<svg xmlns="http://www.w3.org/2000/svg" width="34" height="34" viewBox="-7 -3 34 34" overflow="visible"><path fill-rule="evenodd" clip-rule="evenodd" fill="#D3D3D3" d="M9.99 5.657c2.914-.05 5.04-2.624 4.906-5.657-2.636.225-5.16 2.71-4.905 5.657zM20 17.97c-.434 2.213-2.2 4.396-3.344 5.604-2.254 2.38-4.14-.38-6.976.073-1.282.21-2.135 1.046-3.523.903-3.197-.323-8.12-9.565-5.335-15.128.865-1.732 2.78-3.41 5.31-3.413 1.42 0 2.327.705 3.475.958 2.657.592 4.922-3.535 9.74 1.302-.593.804-1.275.94-1.908 2.098-1.75 3.185.054 6.78 2.56 7.602z"/></svg>