<svg xmlns="http://www.w3.org/2000/svg" width="34" height="34" viewBox="-4.6641 -11.4131 34 34" overflow="visible"><path fill-rule="evenodd" clip-rule="evenodd" fill="#D3D3D3" d="M19.367 6.588h-2.724v-1.96h2.724V1.944h1.968V4.63h2.72v1.958h-2.72V9.23h-1.968V6.588zM5.317 1.89c-.906 0-1.605.32-2.1.96-.492.64-.742 1.538-.742 2.68 0 2.386.944 3.58 2.84 3.58.797 0 1.762-.187 2.894-.565v1.904c-.934.366-1.973.55-3.116.55-1.652 0-2.912-.477-3.782-1.417C.442 8.64 0 7.283 0 5.516c0-1.11.22-2.085.644-2.92A4.474 4.474 0 0 1 2.49.67C3.294.224 4.24 0 5.316 0c1.1 0 2.205.254 3.32.753l-.78 1.843c-.42-.188-.85-.356-1.28-.495a4.006 4.006 0 0 0-1.26-.21zm6.02 4.656v2.642h1.966V6.546h2.72v-1.96h-2.72V1.902h-1.967v2.687H8.61v1.96h2.726z"/></svg>