<svg xmlns="http://www.w3.org/2000/svg" width="34" height="34" viewBox="-6 -7.314 34 34" overflow="visible"><path fill-rule="evenodd" clip-rule="evenodd" fill="#D3D3D3" d="M6.904 1.877c-.442-.134-.815-.742.207-.962 1.045-.223 1.223.19 1.65.028C9.03.16 6.844.437 6.48.586c-1.43.585-.52 2.21 1.915 2.2 2.42-.004 3.876-2.406 6.937-1.64.41.102.507.2.418.715-.333.33-1.48.537-2.03.314-.296-.118-.56-.43-.8-.455-.442-.046-.673.474-.56.697.16.32.987.572 1.413.59 1.02.04 3.276-.046 3.223-1.4-.024-.724-.677-1.11-1.344-1.32-1.615-.512-3.077-.31-4.583.376-1.45.662-3.05 1.547-4.166 1.214zm-5.31 8.1c-.056.273-.49.585-.685.85-1.02 1.39-1.203 3.217-.443 4.736.527 1.06 1.506 1.863 2.756 1.888.47.012 1.62-.182 1.8-.503.124-.227.04-.467-.136-.556-.134-.068-.418-.13-.576-.198l-.677-.345c-.028-.013-.057-.032-.085-.045-.43-.247-1.024-.937-1.26-1.425-.53-1.108-.063-2.496.208-2.467.098.048.207.263.252.34l.723 1.158c.09.13.15.226.236.365l.8 1.075c.337.463.69 1.01.953 1.523.38.744.405 1.717 1.47 2.294.815.447.27.232 1.22.617.18.07.297.12.5.147.373.057.682.154 1.113.18 1.745.104 4.3.23 5.808-.517l.282-.14c.657-.302 1.355-.83 1.57-1.605.43-1.526 2.92-4.7 3.653-6.34.126-.28.207-.605.333-.914l.28-.953c.15-.625.33-1.498.232-2.265-.166-.313-.747.052-.934.146-.43.21-1.628.58-2.155.682l-1.177.23c-.81.16-1.562.24-2.41.355-3.078.4-10.16.284-13.222-1.413-.847-.47-.932-.02-.827.844.074.58.503 1.786.402 2.26zm-.113-7.01c.326-.088.448-.327.947-.327-.06.397-.065.673.227.982.954.998 5.282 1.33 6.46 1.444 1.168.115 2.654.098 3.85.086 1.613-.024 3.31-.235 4.815-.5.665-.117 2.42-.588 2.926-1.043.305-.272.3-.455.317-.96 1.32.23 1.368 1.548-.247 2.18-.34.135.06.038-.634.26a22.655 22.655 0 0 1-3.73.804C13.406 6.26 3.526 6.46 1.38 4.207c-.435-.454-.138-1.096.1-1.238z"/></svg>