<svg xmlns="http://www.w3.org/2000/svg" width="34" height="34" viewBox="-8 -7 34 34" overflow="visible"><path fill-rule="evenodd" clip-rule="evenodd" fill="#D3D3D3" d="M0 19h19V0H0v19zm6.387-3.45C8.525 15.824 8 14.334 8 12.5c-.005-1.51-.03-3.046.008-4.561l1.886-.005c.048 1.544.26 6.944-.298 8.036-1.063 2.082-4.692 1.723-5.364-.44l1.584-.84c.233.613.188.335.57.86zm6.004-.98l.77.712c.252.17.676.334 1.1.35.908.04 1.792-.53 1.225-1.454-.386-.635-2.533-1.018-3.437-2.19-2.432-3.15 3.03-6.095 4.904-2.71l-.632.542c-.317.2-.472.273-.71.415-.613-.533-1.16-.85-2.08-.512-.398 1.67 1.075 1.653 2.432 2.418 1.014.568 2.013 1.582 1.503 3.374-.758 2.68-5.808 2.215-6.43-.16l1.356-.785z"/></svg>