<svg xmlns="http://www.w3.org/2000/svg" width="34" height="34" viewBox="-3.7397 -10.5073 34 34" overflow="visible"><path fill-rule="evenodd" clip-rule="evenodd" fill="#D3D3D3" d="M10.867.114C8.1.384 5.273.99 3.287 2.21c-8.456 5.198.787 11.882 12.042 10.8 2.644-.253 5.604-.974 7.49-2.156C31.1 5.67 21.82-.952 10.868.114zm4.835 10.38c.27-1.66.65-3.356.982-5.047.382-1.95.15-1.987 1-2.066.484-.04 2.413-.003 2.89.068 1.927.278 2.413 1.886 1.45 3.653-.887 1.635-2.085 1.336-4.382 1.61l-.345 1.795-1.595-.012zm-12.1.032l1.443-7.12c2.41-.02 5.53-.555 5.32 2.327-.224 3.106-3.238 2.928-4.83 2.932l-.358 1.86H3.6zm6.443-1.865l1.41-7.14 1.518-.004-.306 1.89c4.506-.03 3.574.503 2.756 5.246l-1.546-.02c.124-1.153.85-2.842.422-3.986l-1.908-.04-.803 4.055h-1.545zM5.807 7.48c.05-.562.15-.98.253-1.56.12-.652.146-1.24.568-1.348 2.829-.74 3.347 3.197-.82 2.907zm12.068.027l.53-2.948c.378.008.987-.025 1.33.016 1.87.22.926 2.173.453 2.546-.585.468-1.43.373-2.313.385z"/></svg>