<svg xmlns="http://www.w3.org/2000/svg" width="34" height="34" viewBox="-6.2256 -5.5107 34 34" overflow="visible"><path fill-rule="evenodd" clip-rule="evenodd" fill="#D3D3D3" d="M6.14 2.778l.052 2.67h5.457l.083 1.04H3.506c-1.184 0-2.168.7-2.742 1.65-1.098 1.81-1.13 6.402.687 8.017.95.842 2.703.667 4.24.667 0-2.375-.44-4.075 1.168-5.437 1.826-1.55 5.354-.426 7.25-1.167.923-.362 1.604-.974 1.604-2.208V2.802C15.712.89 13.425 0 11.782 0c-1.494 0-2.735.037-4.094.48-1.008.33-1.55.997-1.55 2.298zm10.676 5.19l-.02-2.437 2.374-.04c2.152 0 2.83 3.13 2.83 4.905 0 1.264-.265 3.05-.79 3.876-.565.89-1.57 1.217-2.73 1.217h-7.976l-.042 1.127 5.33-.042c0 2.694.452 4.378-1.737 5.058-.7.22-1.644.375-2.632.416h-.928c-1.114-.045-1.846-.05-2.652-.51-.667-.38-1.006-1.21-1.006-2.255l-.083-4.81c0-.757.132-1.196.458-1.668 1.46-2.27 5.822-.252 8.12-1.992.77-.583 1.484-1.535 1.484-2.842zM8.71 1.803a1.03 1.03 0 1 1-.004 2.062 1.03 1.03 0 0 1 .003-2.062zm4.563 16.167a1.03 1.03 0 1 0 0 2.06 1.03 1.03 0 0 0 0-2.06z"/></svg>