<svg xmlns="http://www.w3.org/2000/svg" width="34" height="34" viewBox="-1.0137 -11.8926 34 34" overflow="visible"><path fill-rule="evenodd" clip-rule="evenodd" fill="#D3D3D3" d="M5.45 5.528c0 .484-.123.91-.37 1.287-.244.373-.597.666-1.057.872C3.56 7.897 3.018 8 2.4 8c-.52 0-.955-.04-1.303-.11A4.677 4.677 0 0 1 0 7.51V5.63c.4.206.815.368 1.247.483.437.114.832.174 1.192.174.313 0 .542-.057.69-.163a.493.493 0 0 0 .217-.416.46.46 0 0 0-.087-.28 1.093 1.093 0 0 0-.285-.24c-.127-.085-.472-.252-1.035-.504-.506-.23-.886-.453-1.14-.67a1.995 1.995 0 0 1-.563-.744 2.487 2.487 0 0 1-.185-.995c0-.717.26-1.275.78-1.68C1.355.198 2.072 0 2.986 0 3.79 0 4.61.183 5.45.555l-.646 1.623c-.73-.332-1.355-.503-1.885-.503-.27 0-.473.052-.595.147a.43.43 0 0 0-.186.356c0 .155.078.294.236.412.158.12.586.34 1.283.662.673.3 1.136.625 1.398.97.26.348.39.78.39 1.306zm7.868 2.36h-2.11V4.72H8.765v3.17H6.653V.11h2.112v2.89h2.443V.108h2.11v7.78zm6.31 0h-4.626V.11h4.626v1.69h-2.523v1.22h2.333v1.687h-2.333v1.473h2.523v1.71zm1.358 0V.11h2.103V6.19h2.993v1.7h-5.097zm6.345 0V.11h2.104V6.19h2.994v1.7H27.33z"/></svg>