<?xml version="1.0" encoding="utf-8"?>
<!-- Generator: Adobe Illustrator 21.1.0, SVG Export Plug-In . SVG Version: 6.00 Build 0)  -->
<svg version="1.1" id="Layer_1" xmlns="http://www.w3.org/2000/svg" xmlns:xlink="http://www.w3.org/1999/xlink" x="0px" y="0px"
	 viewBox="0 0 46 46" style="enable-background:new 0 0 46 46;" xml:space="preserve">
<style type="text/css">
	.st0{fill:none;stroke:#939AA0;stroke-miterlimit:10;}
	.st1{fill:#FFFFFF;}
</style>
<title>Group</title>
<g>
	<path class="st0" d="M23,45.2c-12.3,0-22.2-10-22.2-22.2S10.7,0.7,23,0.7s22.2,10,22.2,22.2S35.3,45.2,23,45.2z"/>
	<path class="st1" d="M23,33.4c5.7,0,10.4-4.6,10.4-10.4S28.7,12.6,23,12.6S12.6,17.3,12.6,23S17.3,33.4,23,33.4z M23,36.3
		c-7.4,0-13.4-6-13.4-13.4S15.6,9.6,23,9.6s13.3,6,13.3,13.3S30.4,36.3,23,36.3z"/>
	<path class="st1" d="M14.8,31.3c4.5,2.9,10,4,8.2,3.3c-1.8-0.8,1.2,0.5,1.4,0c1-1.9,1.5-4.1,1.5-6.4c0-6.8-4.8-12.4-11.2-13.8
		c-0.9-0.2-1.3,1.9-2,2.8c-1.6,1.8-0.9,0.1-0.9,7.9C11.9,32.9,13.8,30.7,14.8,31.3z M15.9,31.8c-1.1-1.2-4,1.1-4-8.4
		c0-9.4,1.7-8.6,2.7-9.3c1.9-1.4,1.7-2.5,3.6-1.7c6.3,2.5,10.7,8.7,10.7,15.8c0,1.8-0.3,3.5-0.8,5.2c-0.1,0.3,0.1,0.7-0.3,0.9
		C23.8,35.6,18.2,34.2,15.9,31.8L15.9,31.8z"/>
	<path class="st1" d="M13.4,21.5c6.3,0,11.6-4.1,13.4-9.8c0.4-1.4-4.5-1.3-3.8,0c0.8,1.5-0.7,0-2.5,0c-1.8,0-5-2-7.1,5
		c-0.6,2-1.9,4.7-1.9,4.7C11.9,22.1,12.7,21.5,13.4,21.5L13.4,21.5z M13.4,24.5c-0.6,0-1.1,0-1.7-0.1c-1.6-0.2-2.2-2.8-0.7-2.8
		c0,0,1.5-4.2,3.2-6.8c1.2-1.8,5.7-3.7,7-3.7c1.3,0,2.7,0.7,4.9,0.7c0.6,0,4-0.6,3.5,1.1C27.2,19.7,20.8,24.5,13.4,24.5z M29,33.7
		c1.7-0.7,3.9-2.5,3.9-3.6c0-6.8,1.6-2.4,2.5-5.3c0.2-0.6-1.8-0.3-2.8-0.3c-6.3,0-11.7,4.2-13.5,9.9c-0.4,1.3,0.1,0.8,2.5,0.8
		C23.2,35.3,27.3,34.5,29,33.7L29,33.7z M23,34.7h-3.2c3.1,0.7-3.8-0.1-3.2-1.9c2.4-6.6,8.7-11.3,16.1-11.3c1,0,2.8-0.3,2.6,0.2
		c-0.7,1.6-0.1,4.6-2.1,7.7C30.9,32.8,23.9,34.7,23,34.7L23,34.7z"/>
</g>
</svg>
