<?xml version="1.0" encoding="utf-8"?>
<!-- Generator: Adobe Illustrator 21.1.0, SVG Export Plug-In . SVG Version: 6.00 Build 0)  -->
<svg version="1.1" id="Layer_1" xmlns="http://www.w3.org/2000/svg" xmlns:xlink="http://www.w3.org/1999/xlink" x="0px" y="0px"
	 viewBox="0 0 46 46" style="enable-background:new 0 0 46 46;" xml:space="preserve">
<style type="text/css">
	.st0{fill:none;stroke:#939AA0;}
	.st1{fill:#FFFFFF;}
</style>
<title>github-icon</title>
<path class="st0" d="M23,45.2c12.3,0,22.2-9.9,22.2-22.2S35.3,0.8,23,0.8S0.8,10.7,0.8,23S10.7,45.2,23,45.2z"/>
<path class="st1" d="M22.3,34.4c-1.3,0-3.4-0.1-4,0c0.8-0.5,1.3-0.8,1.3-1.3c0-0.2,0-1,0-2.7c-3.9,1.3-4.7-1.3-4-1.3
	c-1.3-1.5-2.2-2-2.7-1.3c-0.7-1.5,0.6-1.4,0-1.3c2,0,2.7,1.3,2.7,1.3c1.3,2,3.2,1.4,4,1.3c0.1-1.1,0.5-1.7,1.3-2.7
	c-3.5,0.3-6.7-0.9-6.7-6.7c0-0.9,0.5-2.1,1.3-2.7c-0.1-0.7-0.6-2.1,0-4c0.2,0,1.3-0.3,4,1.3c1-0.2,2.2-0.4,2.7,0c1.8-0.4,3-0.2,4,0
	c2.7-1.7,3.8-1.3,4-1.3c0.5,1.9,0.1,3.3,0,4c0.8,0.6,1.3,1.8,1.3,2.7c0,5.8-3.2,7-6.7,6.7c1,1,1.4,1.9,1.3,2.7c0.1,2.3,0,3.7,0,4
	c0,0.5,0.3,0.8,1.3,1.3C26.7,34.3,25,34.4,22.3,34.4z"/>
</svg>
