<?xml version="1.0" encoding="utf-8"?>
<!-- Generator: Adobe Illustrator 21.1.0, SVG Export Plug-In . SVG Version: 6.00 Build 0)  -->
<svg version="1.1" id="Layer_1" xmlns="http://www.w3.org/2000/svg" xmlns:xlink="http://www.w3.org/1999/xlink" x="0px" y="0px"
	 viewBox="0 0 46 46" style="enable-background:new 0 0 46 46;" xml:space="preserve">
<style type="text/css">
	.st0{fill:none;stroke:#939AA0;stroke-miterlimit:10;}
	.st1{fill:#FFFFFF;}
</style>
<title>Group</title>
<circle class="st0" cx="23" cy="23" r="22.2"/>
<path class="st1" d="M9.7,17.1c0-4.1,3.3-7.4,7.4-7.4h11.9c4.1,0,7.4,3.3,7.4,7.4v11.9c0,4.1-3.3,7.4-7.4,7.4H17.1
	c-4.1,0-7.4-3.3-7.4-7.4V17.1z M23,27.4c-2.4,0-4.4-2-4.4-4.4s2-4.4,4.4-4.4s4.4,2,4.4,4.4S25.4,27.4,23,27.4z M23,30.4
	c4.1,0,7.4-3.3,7.4-7.4s-3.3-7.4-7.4-7.4s-7.4,3.3-7.4,7.4S18.9,30.4,23,30.4z M31.1,17.1c1.2,0,2.2-1,2.2-2.2s-1-2.2-2.2-2.2
	s-2.2,1-2.2,2.2S29.9,17.1,31.1,17.1z"/>
</svg>
