<svg width="32" height="32" viewBox="0 0 32 32" fill="none" xmlns="http://www.w3.org/2000/svg">
<path fill-rule="evenodd" clip-rule="evenodd" d="M13.6471 13.2199H17.0963V14.938C17.5931 13.9499 18.8673 13.062 20.7813 13.062C24.4506 13.062 25.3217 15.029 25.3217 18.6379V25.3217H21.6069V19.4598C21.6069 17.4046 21.1101 16.2456 19.8452 16.2456C18.0909 16.2456 17.3619 17.4947 17.3619 19.4589V25.3217H13.6471V13.2199V13.2199ZM7.27716 25.1639H10.9919V13.062H7.27716V25.1639V25.1639ZM11.5241 9.11601C11.5242 9.42738 11.4625 9.73567 11.3424 10.023C11.2224 10.3103 11.0464 10.5708 10.8248 10.7895C10.3757 11.2359 9.76774 11.4857 9.13455 11.4842C8.50247 11.4838 7.89596 11.2345 7.44618 10.7904C7.22535 10.571 7.04999 10.3101 6.93015 10.0228C6.81031 9.73548 6.74834 9.42733 6.7478 9.11601C6.7478 8.48728 6.99855 7.88549 7.44711 7.44157C7.89649 6.99687 8.50326 6.74756 9.13548 6.74783C9.76885 6.74783 10.3762 6.99765 10.8248 7.44157C11.2724 7.88549 11.5241 8.48728 11.5241 9.11601Z" fill="white"/>
<circle cx="15.9999" cy="16" r="15.3043" stroke="#939AA0"/>
</svg>
