<svg width="34" height="34" viewBox="0 0 34 34" xmlns="http://www.w3.org/2000/svg"><title>skype-icon</title><g fill="none" fill-rule="evenodd"><path d="M31.914 21.152a1.076 1.076 0 0 1-.08-.675c.38-1.797.413-3.603.134-5.422-1.23-8.014-8.678-13.702-16.665-12.7-.47.057-.855-.02-1.272-.25C10.68.262 6.55.84 3.78 3.515a8.796 8.796 0 0 0-1.752 10.198c.178.36.23.68.145 1.077-.175.81-.2 1.642-.245 2.508.023.484.027 1.007.075 1.527a15.11 15.11 0 0 0 17.285 13.582c.264-.038.484.008.717.13 1.62.84 3.365 1.06 5.13.795 5.766-.862 9.034-6.772 6.78-12.18" stroke="#FFF"/><path d="M23.027 23.705c-.8.897-1.804 1.466-2.94 1.782-2.13.592-4.277.59-6.385-.07-1.92-.603-3.326-1.815-3.87-3.83-.387-1.427.538-2.482 1.95-2.3.61.078 1.007.453 1.287.967.174.322.32.66.48.994.51 1.085 1.35 1.705 2.55 1.85.98.118 1.93.058 2.845-.346a2.63 2.63 0 0 0 .923-.666c.687-.78.576-1.9-.252-2.53-.8-.607-1.766-.777-2.705-.998-1.344-.316-2.693-.616-3.954-1.196-1.304-.6-2.36-1.463-2.687-2.954-.38-1.73.113-3.185 1.5-4.29 1.223-.975 2.687-1.28 4.2-1.395.35-.027.704.003 1.056.006 1.396-.025 2.753.174 4.007.833.96.504 1.752 1.187 2.206 2.204.22.497.324 1.027.173 1.553-.185.64-.624 1.08-1.284 1.208-.688.133-1.326.018-1.75-.627-.204-.305-.4-.62-.58-.937-.58-1.014-1.414-1.584-2.608-1.593-.545-.004-1.087-.027-1.622.097-.478.11-.92.307-1.287.642-.654.595-.638 1.426.048 1.986.454.368.99.577 1.547.725 1.304.35 2.614.674 3.916 1.03.71.195 1.384.48 2.04.82 3.044 1.573 2.788 5.25 1.195 7.034" fill="#FEFEFE"/></g></svg>