<?xml version="1.0" encoding="utf-8"?>
<!-- Generator: Adobe Illustrator 21.1.0, SVG Export Plug-In . SVG Version: 6.00 Build 0)  -->
<svg version="1.1" id="Layer_1" xmlns="http://www.w3.org/2000/svg" xmlns:xlink="http://www.w3.org/1999/xlink" x="0px" y="0px"
	 viewBox="0 0 46 46" style="enable-background:new 0 0 46 46;" xml:space="preserve">
<style type="text/css">
	.st0{fill:none;stroke:#939AA0;}
	.st1{fill:#FFFFFF;}
</style>
<title>twitter-icon</title>
<path class="st0" d="M23,45.3c12.3,0,22.3-10,22.3-22.3S35.3,0.7,23,0.7S0.7,10.7,0.7,23S10.7,45.3,23,45.3z"/>
<path class="st1" d="M33.3,16.6c-0.8,0.3-1.6,0.6-2.5,0.7c0.9-0.5,1.6-1.4,1.9-2.4c-0.8,0.5-1.8,0.8-2.7,1c-0.8-0.9-1.9-1.4-3.1-1.4
	c-2.4,0-4.3,1.9-4.3,4.3c0,0.3,0,0.7,0.1,1c-3.4-0.2-6.6-1.8-8.8-4.5c-0.4,0.7-0.6,1.4-0.6,2.2c0,1.5,0.8,2.8,1.9,3.6
	c-0.7,0-1.3-0.2-1.9-0.5v0.1c0,2,1.4,3.8,3.4,4.2c-0.6,0.2-1.3,0.2-1.9,0.1c0.6,1.7,2.2,2.9,4,3c-1.8,1.4-4.1,2-6.3,1.8
	c2,1.3,4.2,1.9,6.6,1.9c7.9,0,12.2-6.5,12.2-12.2c0-0.2,0-0.4,0-0.6C32,18.2,32.7,17.5,33.3,16.6"/>
</svg>
