<svg xmlns="http://www.w3.org/2000/svg" width="18" height="18" viewBox="-2.5 -1.2495 18 18" overflow="visible"><path fill-rule="evenodd" clip-rule="evenodd" fill="#444" d="M10.5 0a2.498 2.498 0 0 0-1.577 4.436C8.473 6.21 7.503 7.52 6.5 7.5c-.977-.024-1.986-1.33-2.422-3.064A2.5 2.5 0 1 0 0 2.498c0 1.267.94 2.313 2.16 2.48.733 4.26 3.403 2.816 3.403 5.242v.92A2.5 2.5 0 1 0 9 13.458c0-1.044-.65-1.945-1.564-2.318v-.92c0-2.426 2.67-.982 3.403-5.243A2.5 2.5 0 0 0 10.5 0zM2.798 3.985h-.57C1.5 3.89 1 3.407 1 2.532 1 1.516 1.766.997 2.516.985 3.422.97 4 1.75 4 2.5c0 .766-.406 1.313-1.203 1.485zM8 13.47c0 .946-.616 1.468-1.5 1.468-.863 0-1.422-.442-1.422-1.422 0-.818.517-1.474 1.396-1.5h.052C7.37 12.04 8 12.548 8 13.47zm2.78-9.548h-.57c-.467-.143-1.18-.49-1.18-1.375C9.03 1.817 9.584 1 10.5 1c.784 0 1.516.636 1.516 1.5 0 .787-.622 1.235-1.235 1.422z"/></svg>