<svg xmlns="http://www.w3.org/2000/svg" width="44" height="48" viewBox="0 0 44 48"><path d="M38.427 22.583c2.858-.792 4.284-2.514 4.284-5.166 0-1.795-.707-3.147-2.122-4.055C39.17 12.454 37.264 12 34.86 12h-3.746l-8.104.157v.005l-8.2.12v2.6l2.712.94L13.992 25l-1.145 3.694-1.142-3.853-3.283-9.048 2.64-.908V12.13L0 12.283v2.6l2.428.876 7.208 18.443h5.71l7.528-18.38 1.564-.562 1.248.438v14.875c-1.19.334-2.084.594-2.676.78v2.723h11.24c6.188 0 9.282-2.16 9.282-6.48 0-2.486-1.7-4.155-5.105-5.013zm-7.313-6.888h3.033c.9 0 1.635.205 2.194.61.56.408.84 1.01.84 1.8 0 1.942-1.333 2.915-3.998 2.915h-2.068v-5.325zM36.91 29.66c-.654.503-1.6.756-2.835.756h-2.963v-6.11h2.068c1.62 0 2.808.268 3.57.8.76.534 1.142 1.364 1.142 2.49.003.877-.325 1.564-.982 2.063z"/></svg>