<svg fill="none" height="22" viewBox="0 0 42 22" width="42" xmlns="http://www.w3.org/2000/svg"><g clip-rule="evenodd" fill="#00a2c5" fill-rule="evenodd"><path d="m31.2303.43934 9.5459 9.54594c.5858.58582.5858 1.53552 0 2.12132l-9.5459 9.5459c-.5858.5858-1.5355.5858-2.1213 0-.5858-.5857-.5858-1.5355 0-2.1213l6.9853-6.9853h-34.5943c-.828427 0-1.5-.6715-1.5-1.5 0-.8284.671573-1.49996 1.5-1.49996h34.5943l-6.9853-6.98528c-.5858-.58579-.5858-1.53553 0-2.12132.5858-.585787 1.5355-.585787 2.1213 0z"/><path d="m31.2303.43934 9.5459 9.54594c.5858.58582.5858 1.53552 0 2.12132l-9.5459 9.5459c-.5858.5858-1.5355.5858-2.1213 0-.5858-.5857-.5858-1.5355 0-2.1213l6.9853-6.9853h-34.5943c-.828427 0-1.5-.6715-1.5-1.5 0-.8284.671573-1.49996 1.5-1.49996h34.5943l-6.9853-6.98528c-.5858-.58579-.5858-1.53553 0-2.12132.5858-.585787 1.5355-.585787 2.1213 0z"/></g></svg>
