<svg xmlns="http://www.w3.org/2000/svg" viewBox="0 0 1680 739.8"><style>.st0{fill:url(#SVGID_1_)}.st1,.st2{fill:none;stroke:#33ada6;stroke-width:3}.st2{stroke:#d35b55}.st3{fill:#33ada6}.st4{fill:#d35b55}</style><linearGradient id="SVGID_1_" gradientUnits="userSpaceOnUse" x1="1429.114" y1="-243.073" x2="218.913" y2="1335.497" gradientTransform="matrix(1 0 0 -1 0 896)"><stop offset="0" stop-color="#078E7E"/><stop offset=".23" stop-color="#0B6180"/><stop offset=".476" stop-color="#2B3766"/><stop offset=".73" stop-color="#892E57"/><stop offset="1" stop-color="#E35F35"/></linearGradient><path class="st0" d="M-1 0H1680V740H-1z"/><path class="st1" d="M1544.2 468.1H1928c7.7 0 14 6.3 14 14v155.4c0 7.7-6.3 14-14 14h-383.8c-7.7 0-14-6.3-14-14V482.1c0-7.7 6.2-14 14-14z"/><path class="st2" d="M-115.8 18.5H268c7.7 0 14 6.3 14 14V188c0 7.7-6.3 14-14 14h-383.8c-7.7 0-14-6.3-14-14V32.5c0-7.7 6.3-14 14-14zm217.4 205.1h166.5c7.7 0 14 6.3 14 14v71.7c0 7.7-6.3 14-14 14H101.6c-7.7 0-14-6.3-14-14v-71.7c0-7.8 6.3-14 14-14zM-116 347.3H50.5c7.7 0 14 6.3 14 14V433c0 7.7-6.3 14-14 14H-116c-7.7 0-14-6.3-14-14v-71.7c0-7.8 6.3-14 14-14z"/><path class="st3" d="M1446.9 598.9h166.5c7.7 0 14 6.3 14 14v71.7c0 7.7-6.3 14-14 14h-166.5c-7.7 0-14-6.3-14-14v-71.7c0-7.7 6.3-14 14-14z"/><path class="st4" d="M178 44h166.5c7.7 0 14 6.3 14 14v71.7c0 7.7-6.3 14-14 14H178c-7.7 0-14-6.3-14-14V58c0-7.7 6.3-14 14-14z"/></svg>