<svg width="550" height="470" xmlns="http://www.w3.org/2000/svg" fill-rule="evenodd" clip-rule="evenodd" stroke-linecap="round" stroke-linejoin="round"><path d="M502.909 94.709c31.031-3.17 35.392 16.879 35.916 26.829v301.488c0 15.529-7.765 18.711-27.751 18.711-201.336 9.443-300.152-5.275-479.933 4.168-8.615.453-16.497-4.71-16.497-13.23-6.371-99.568.919-218.259 0-302.441-.145-13.341 9.511-28.872 31.062-33.258 21.552-4.385 275.681-4.913 457.203-8.771" fill="none" stroke="rgb(50,49,70)" stroke-width="1.96px"/><path d="M175.841 14.541c-.109.137-.313.246-.613.327-.273.055-.559-.027-.859-.245a6.416 6.416 0 0 0-.777-.491 8.312 8.312 0 0 0-.981-.531 8.432 8.432 0 0 0-1.063-.409 3.472 3.472 0 0 0-1.022-.164c-.409 0-.845.096-1.309.287-.436.19-.817.463-1.144.817-.627.682-.859 1.35-.696 2.004.191.627.668 1.213 1.431 1.758.491.354 1.023.722 1.595 1.104.573.354 1.131.709 1.677 1.063.572.354 1.104.695 1.594 1.022.518.327.968.614 1.349.859.491.327.955.681 1.391 1.063.436.382.817.818 1.145 1.308.327.464.586.995.776 1.595.191.6.287 1.281.287 2.045-.191 1.499-.791 2.698-1.799 3.598a7.025 7.025 0 0 1-3.435 1.676 7.51 7.51 0 0 1-3.394-.123 5.712 5.712 0 0 1-2.78-1.717c-.191-.218-.355-.518-.491-.899-.136-.382-.15-.655-.041-.818.164-.246.45-.409.859-.491.409-.109.722-.095.94.041a5.943 5.943 0 0 0 2.208 1.268c.845.245 1.731.259 2.658.04.709-.163 1.281-.463 1.717-.899.437-.463.709-.981.818-1.554.136-.6.055-1.213-.245-1.84-.273-.654-.777-1.24-1.513-1.758a34.283 34.283 0 0 0-3.598-2.372 46.073 46.073 0 0 1-3.844-2.535c-.627-.545-1.09-1.145-1.39-1.799-.272-.654-.409-1.294-.409-1.921 0-.655.137-1.268.409-1.84.273-.6.654-1.132 1.145-1.595a5.857 5.857 0 0 1 1.717-1.186 6.163 6.163 0 0 1 2.167-.531 6.113 6.113 0 0 1 3.149.695c1.008.49 1.826 1.104 2.453 1.84.136.163.191.368.164.613 0 .245-.082.477-.246.695zm16.25 3.149c.817.299 1.499.749 2.044 1.349a6.239 6.239 0 0 1 1.309 2.044c.299.736.463 1.5.49 2.29a5.853 5.853 0 0 1-.245 2.208c-.3.763-.682 1.513-1.145 2.249-.463.736-.995 1.39-1.595 1.962a7.529 7.529 0 0 1-2.044 1.391c-.763.354-1.608.531-2.535.531-1.118 0-2.058-.259-2.821-.777a5.527 5.527 0 0 1-1.799-2.003c-.437-.818-.723-1.745-.859-2.781a11.851 11.851 0 0 1 .082-3.107c.109-.763.286-1.499.531-2.208a7.592 7.592 0 0 1 1.022-1.922 5.613 5.613 0 0 1 1.391-1.39 3.304 3.304 0 0 1 1.84-.531c.381 0 .858.081 1.431.245a6.246 6.246 0 0 1 1.594.613c.355-.327.791-.381 1.309-.163zm-1.554 2.984c-.3-.19-.654-.436-1.063-.736-.382-.327-.722-.49-1.022-.49-.327 0-.655.15-.982.45a5.47 5.47 0 0 0-.817 1.063 9.578 9.578 0 0 0-.573 1.185 6.885 6.885 0 0 0-.327.982c-.082.409-.136.899-.163 1.472a7.253 7.253 0 0 0 .122 1.717c.109.545.314 1.049.614 1.513.327.436.804.749 1.431.94.381.109.831.109 1.349 0a5.031 5.031 0 0 0 1.513-.695 5.828 5.828 0 0 0 1.431-1.308 5.803 5.803 0 0 0 1.063-1.881c.273-.791.273-1.608 0-2.453-.245-.873-.763-1.5-1.554-1.881a.98.98 0 0 1-.572.204c-.191 0-.341-.027-.45-.082zm13.342-7.85c.136 2.971.368 6.051.695 9.241.327 3.162.681 6.187 1.063 9.077.082 1.199-.246 1.812-.981 1.84a.879.879 0 0 1-.491-.164 2.59 2.59 0 0 1-.45-.49 12.117 12.117 0 0 1-.409-.614 2.083 2.083 0 0 1-.204-.572 134.616 134.616 0 0 1-.614-4.416 274.61 274.61 0 0 1-.531-4.661 349.62 349.62 0 0 1-.368-4.621 82.765 82.765 0 0 1-.205-4.129c.055-.655.15-1.2.287-1.636.136-.463.422-.681.858-.654.464.027.791.218.982.572.218.327.34.736.368 1.227zm9.853 7.033a64.665 64.665 0 0 0-.491 2.453 30.212 30.212 0 0 0-.368 2.535 15.02 15.02 0 0 0 0 2.208c.082.654.259 1.118.532 1.39.463.082.995-.109 1.595-.572.599-.491 1.185-1.104 1.758-1.84a17.783 17.783 0 0 0 1.553-2.372c.464-.872.791-1.635.982-2.289.109-.328.204-.668.286-1.023.082-.354.123-.722.123-1.104 0-.218.136-.422.409-.613.299-.218.545-.341.736-.368a.694.694 0 0 1 .449.082c.191.081.355.204.491.368.164.136.3.313.409.531.136.191.204.396.204.614.055.817.137 1.717.246 2.698.109.982.231 1.963.368 2.944.163.981.327 1.935.49 2.862.164.927.327 1.759.491 2.494.082.3 0 .641-.245 1.023-.246.381-.518.613-.818.695a1.306 1.306 0 0 1-.777-.082c-.245-.109-.436-.327-.572-.654a14.81 14.81 0 0 1-.409-1.39c-.109-.573-.218-1.159-.327-1.759a93.467 93.467 0 0 0-.246-1.758 20.653 20.653 0 0 1-.163-1.431c-.409.736-.9 1.486-1.472 2.249a16.025 16.025 0 0 1-1.799 2.044 8.229 8.229 0 0 1-2.004 1.432 3.849 3.849 0 0 1-2.126.368c-1.09-.137-1.922-1.159-2.494-3.067-.218-.763-.327-1.608-.327-2.535.027-.927.095-1.84.204-2.74.136-.926.286-1.799.45-2.616a74 74 0 0 1 .491-2.004c.054-.218.163-.409.327-.572.163-.191.354-.259.572-.205.409.082.777.327 1.104.736.354.409.477.832.368 1.268zm23.762 1.145c.518-.028 1.036.095 1.554.368.518.272.777.695.777 1.267-.055.463-.313.763-.777.9-.436.109-.79.163-1.063.163-.545 0-1.131.014-1.758.041-.627.027-1.268.068-1.922.123-.054.899-.109 1.744-.163 2.535-.028.79-.055 1.499-.082 2.126-.027.6-.041 1.09-.041 1.472 0 .382.014.586.041.613.599-.109 1.24-.286 1.922-.531a48.618 48.618 0 0 0 2.085-.859c.709-.327 1.39-.654 2.044-.981.682-.355 1.322-.682 1.922-.982.273-.136.518-.177.736-.122.245.054.395.177.45.368.054.3.013.668-.123 1.104a2.88 2.88 0 0 1-.736 1.185c-.409.328-.954.709-1.635 1.145-.655.409-1.363.804-2.127 1.186-.763.382-1.54.722-2.33 1.022-.764.273-1.445.436-2.045.491-.899.082-1.581-.164-2.044-.736-.463-.572-.722-1.295-.777-2.167a35.898 35.898 0 0 1-.041-3.026c.055-1.145.109-2.358.164-3.639-.518.055-1.022.109-1.513.164-.464.027-.913.068-1.349.122-.355 0-.75-.081-1.186-.245-.409-.164-.614-.477-.614-.94 0-.164.069-.382.205-.655.136-.272.436-.477.899-.613a54.758 54.758 0 0 1 3.721-.491c.082-1.281.177-2.521.286-3.72.11-1.2.205-2.29.287-3.271.027-.328.122-.614.286-.859.163-.245.341-.368.531-.368.464-.027.9.095 1.309.368.436.245.654.531.654.859-.109.926-.218 1.976-.327 3.148a915.609 915.609 0 0 0-.245 3.598 15.797 15.797 0 0 1 1.553-.082c.518-.027 1.009-.054 1.472-.081zm15.505-5.725c-.054.273-.245.423-.572.45-.327.027-.6.041-.818.041-.681.027-1.39.095-2.126.204a19.84 19.84 0 0 0-2.249.491c-.327.109-.681.068-1.063-.123-.382-.191-.613-.572-.695-1.145a.66.66 0 0 1 .245-.531c.164-.136.355-.259.573-.368a6.27 6.27 0 0 1 1.267-.409 8.994 8.994 0 0 1 2.944-.327c.464 0 .845.041 1.145.123.436.136.777.34 1.022.613.273.272.382.6.327.981zm-.94 13.616c.191.436.286.913.286 1.431.027.491-.109.831-.409 1.022-.381.246-.79.232-1.226-.041a2.553 2.553 0 0 1-.982-1.104c-.3-.572-.531-1.267-.695-2.085a27.816 27.816 0 0 1-.368-2.494 37.242 37.242 0 0 1-.163-2.29v-1.594c.027-.382.136-.736.327-1.064.191-.327.436-.517.736-.572.49.027.886.259 1.185.695.3.409.437.927.409 1.554 0 .49.014 1.036.041 1.635.027.6.082 1.2.164 1.799.082.6.177 1.186.286 1.759.109.545.245.995.409 1.349zm14.605-11.203c.817.299 1.499.749 2.044 1.349a6.236 6.236 0 0 1 1.308 2.044c.3.736.464 1.5.491 2.29a5.853 5.853 0 0 1-.245 2.208c-.3.763-.682 1.513-1.145 2.249-.464.736-.995 1.39-1.595 1.962a7.529 7.529 0 0 1-2.044 1.391c-.763.354-1.608.531-2.535.531-1.118 0-2.058-.259-2.822-.777a5.545 5.545 0 0 1-1.799-2.003c-.436-.818-.722-1.745-.858-2.781a11.851 11.851 0 0 1 .082-3.107c.109-.763.286-1.499.531-2.208a7.56 7.56 0 0 1 1.022-1.922 5.626 5.626 0 0 1 1.39-1.39 3.308 3.308 0 0 1 1.84-.531c.382 0 .859.081 1.432.245a6.26 6.26 0 0 1 1.594.613c.354-.327.791-.381 1.309-.163zm-1.554 2.984c-.3-.19-.654-.436-1.063-.736-.382-.327-.723-.49-1.022-.49-.328 0-.655.15-.982.45-.3.299-.572.654-.818 1.063a9.572 9.572 0 0 0-.572 1.185 6.637 6.637 0 0 0-.327.982 10.13 10.13 0 0 0-.164 1.472 7.307 7.307 0 0 0 .123 1.717c.109.545.313 1.049.613 1.513.327.436.804.749 1.431.94.382.109.832.109 1.35 0a5.031 5.031 0 0 0 1.513-.695 5.846 5.846 0 0 0 1.431-1.308 5.821 5.821 0 0 0 1.063-1.881c.272-.791.272-1.608 0-2.453-.246-.873-.763-1.5-1.554-1.881a.983.983 0 0 1-.572.204c-.191 0-.341-.027-.45-.082zm12.524-2.208c.081.409.163.873.245 1.391.109.49.218 1.008.327 1.553.109.518.205 1.05.286 1.595.082.545.15 1.063.205 1.554.327-.709.681-1.459 1.063-2.249.382-.791.79-1.513 1.227-2.167.463-.682.94-1.24 1.431-1.677.518-.436 1.076-.654 1.676-.654.9 0 1.649.327 2.249.982.627.654 1.145 1.472 1.554 2.453a15.84 15.84 0 0 1 1.022 3.026c.245 1.063.45 2.003.613 2.821.164.736-.163 1.281-.981 1.635-.382.191-.668.218-.859.082-.191-.136-.3-.272-.327-.409-.136-.327-.313-.899-.531-1.717a31.166 31.166 0 0 0-.696-2.494 12.03 12.03 0 0 0-.858-2.208c-.327-.627-.695-.913-1.104-.859-.491.027-.927.395-1.309 1.104a40.29 40.29 0 0 0-1.022 1.922c-.327.681-.654 1.39-.981 2.126-.327.709-.654 1.431-.981 2.167-.3.709-.587 1.363-.859 1.963a1.62 1.62 0 0 1-.736.409 1.582 1.582 0 0 1-.859-.082 1.352 1.352 0 0 1-.654-.409c-.163-.191-.245-.382-.245-.573a149.56 149.56 0 0 0-.777-5.806 67.909 67.909 0 0 0-.981-5.356c-.191-.627-.232-1.117-.123-1.472.136-.381.545-.531 1.227-.45.954.164 1.54.764 1.758 1.799zm39.338-3.925c-.109.137-.313.246-.613.327-.273.055-.559-.027-.859-.245a6.416 6.416 0 0 0-.777-.491c-.3-.19-.627-.368-.981-.531a8.432 8.432 0 0 0-1.063-.409 3.472 3.472 0 0 0-1.022-.164c-.409 0-.845.096-1.309.287-.436.19-.817.463-1.145.817-.626.682-.858 1.35-.695 2.004.191.627.668 1.213 1.431 1.758.491.354 1.023.722 1.595 1.104.573.354 1.131.709 1.676 1.063.573.354 1.104.695 1.595 1.022.518.327.968.614 1.349.859.491.327.954.681 1.391 1.063a6.6 6.6 0 0 1 1.144 1.308c.328.464.587.995.777 1.595.191.6.287 1.281.287 2.045-.191 1.499-.791 2.698-1.799 3.598a7.025 7.025 0 0 1-3.435 1.676 7.51 7.51 0 0 1-3.394-.123 5.712 5.712 0 0 1-2.78-1.717c-.191-.218-.355-.518-.491-.899-.136-.382-.15-.655-.041-.818.164-.246.45-.409.859-.491.409-.109.722-.095.94.041a5.943 5.943 0 0 0 2.208 1.268c.845.245 1.731.259 2.658.04.709-.163 1.281-.463 1.717-.899.436-.463.709-.981.818-1.554.136-.6.055-1.213-.245-1.84-.273-.654-.777-1.24-1.513-1.758a34.283 34.283 0 0 0-3.598-2.372 46.073 46.073 0 0 1-3.844-2.535c-.627-.545-1.09-1.145-1.39-1.799a4.963 4.963 0 0 1-.409-1.921c0-.655.136-1.268.409-1.84.273-.6.654-1.132 1.145-1.595a5.857 5.857 0 0 1 1.717-1.186 6.163 6.163 0 0 1 2.167-.531 6.113 6.113 0 0 1 3.149.695c1.008.49 1.826 1.104 2.453 1.84.136.163.191.368.164.613 0 .245-.082.477-.246.695zm13.796 21.875c-.027.3-.163.573-.408.818-.246.273-.518.395-.818.368-.464-.027-.818-.204-1.063-.531-.246-.328-.368-.6-.368-.818a67 67 0 0 0-.082-3.23 174.145 174.145 0 0 0-.205-3.517 1.942 1.942 0 0 1-.981-.082 1.142 1.142 0 0 1-.572-.613c-.191-.463-.164-.872.081-1.226.246-.355.641-.696 1.186-1.023a669.37 669.37 0 0 0-.409-2.985 80.075 80.075 0 0 0-.368-2.862.83.83 0 0 1 .041-.449c.055-.137.123-.259.205-.368.081-.137.231-.259.449-.368.355-.137.75-.028 1.186.327.464.354.777.804.941 1.349.081.518.163 1.118.245 1.799.109.654.204 1.377.286 2.167a13.907 13.907 0 0 0 1.595-1.145 7.42 7.42 0 0 0 1.308-1.308c.382-.464.668-.941.859-1.431.191-.518.245-1.05.163-1.595-.054-.463-.259-.872-.613-1.227-.354-.381-.913-.586-1.676-.613a8.613 8.613 0 0 0-2.045.164c-.654.136-1.308.313-1.962.531-.627.218-1.254.477-1.881.777-.6.3-1.186.6-1.758.9-.382.218-.764.313-1.145.286-.355-.055-.586-.191-.695-.409-.246-.545-.232-1.036.041-1.472.299-.436.749-.845 1.349-1.227a16.802 16.802 0 0 1 1.84-.899c.736-.327 1.499-.6 2.29-.818a13.065 13.065 0 0 1 2.453-.491 7.916 7.916 0 0 1 2.412.041 4.777 4.777 0 0 1 2.045.777c.627.382 1.131.954 1.513 1.717.463 1.254.586 2.413.367 3.476a7.017 7.017 0 0 1-1.226 2.862 11.32 11.32 0 0 1-2.249 2.331 27.286 27.286 0 0 1-2.658 1.84c.137 1.472.232 2.93.287 4.375a61.28 61.28 0 0 1 .04 3.802zm20.111-19.585c.109.763.19 1.581.245 2.453.082.845.136 1.704.164 2.576.054.872.081 1.717.081 2.535 0 .818-.013 1.554-.041 2.208.873.6 1.391 1.131 1.554 1.595.191.463.218.872.082 1.226-.164.491-.463.75-.9.777-.409 0-.886-.15-1.431-.45a46.88 46.88 0 0 1-1.308.9c-.491.3-1.009.6-1.554.9a21.77 21.77 0 0 1-1.635.736 7.703 7.703 0 0 1-1.513.449c-.873.137-1.663-.027-2.372-.49-.681-.464-1.145-1.159-1.39-2.086a5.061 5.061 0 0 1-.123-1.921 5.301 5.301 0 0 1 .614-1.922 5.93 5.93 0 0 1 1.308-1.676 6.284 6.284 0 0 1 2.004-1.145c.19-.082.449-.15.777-.205a4.673 4.673 0 0 1 1.063-.041c.381 0 .763.069 1.144.205.382.136.736.368 1.064.695 0-.463-.014-.968-.041-1.513 0-.572-.014-1.145-.041-1.717a24.899 24.899 0 0 0-.123-1.595 13.205 13.205 0 0 0-.123-1.308c-.054-.409-.218-.655-.49-.736-.246-.109-.559-.096-.941.041-.654.218-1.417.64-2.289 1.267a29.633 29.633 0 0 0-2.495 2.004 1.045 1.045 0 0 1-.858.327c-.3-.027-.559-.15-.777-.368a1.193 1.193 0 0 1-.368-.736c-.027-.3.082-.614.327-.941.463-.49.981-.995 1.554-1.513a14.488 14.488 0 0 1 1.799-1.39c.627-.436 1.267-.79 1.922-1.063a5.721 5.721 0 0 1 1.962-.45c.954-.027 1.69.191 2.208.655.518.436.832 1.008.941 1.717zm-4.743 8.791c-.355.082-.736.259-1.145.531a4.88 4.88 0 0 0-1.063.941c-.3.354-.532.763-.695 1.227a2.133 2.133 0 0 0 0 1.308.62.62 0 0 0 .327.368.94.94 0 0 0 .613.041c.654-.136 1.39-.395 2.208-.777.845-.409 1.513-.845 2.003-1.308 0-.164-.081-.368-.245-.614a5.208 5.208 0 0 0-.572-.777 3.577 3.577 0 0 0-.736-.695c-.246-.191-.477-.272-.695-.245zm19.846-4.171c-.191.109-.423.15-.695.123-.273-.055-.505-.232-.696-.532-.436-.572-.967-.858-1.594-.858-.573 0-1.091.136-1.554.409a4.169 4.169 0 0 0-1.186 1.022 5.834 5.834 0 0 0-.817 1.39 6.653 6.653 0 0 0-.45 1.554c-.137.954.027 1.758.49 2.412.464.654 1.186.982 2.168.982.79.027 1.676-.123 2.657-.45a14.164 14.164 0 0 0 2.822-1.35 3.453 3.453 0 0 1 1.063-.286c.327-.027.599.137.817.491.273.436.205.886-.204 1.349-.409.436-.954.832-1.636 1.186-.681.382-1.403.722-2.167 1.022-.736.273-1.485.477-2.249.613a8.052 8.052 0 0 1-2.289 0 5.396 5.396 0 0 1-2.086-.777c-1.035-.708-1.662-1.717-1.88-3.025-.218-1.309-.123-2.658.286-4.048a7.743 7.743 0 0 1 .695-1.554c.3-.545.654-1.036 1.063-1.472a6.93 6.93 0 0 1 1.431-1.104 4.685 4.685 0 0 1 1.717-.654 5.267 5.267 0 0 1 2.903.327c.927.355 1.541 1.022 1.84 2.004.055.218.055.449 0 .695-.054.218-.204.395-.449.531zm16.531.9a14.855 14.855 0 0 1-3.435 1.472c-1.226.327-2.548.49-3.966.49.055.955.327 1.718.818 2.29a2.999 2.999 0 0 0 1.84.982c.436.054.872.04 1.308-.041a5.787 5.787 0 0 0 1.268-.368 8.385 8.385 0 0 0 1.104-.614c.327-.218.613-.436.858-.654a1.67 1.67 0 0 1 .777-.409c.273-.082.477-.095.614-.041.381.137.518.546.409 1.227a6.47 6.47 0 0 1-1.881 2.249c-.818.6-1.731.981-2.74 1.145-.872.163-1.772.122-2.698-.123-.927-.245-1.759-.722-2.495-1.431a6.3 6.3 0 0 1-1.431-2.208 9.638 9.638 0 0 1-.613-2.617 6.441 6.441 0 0 1 .204-2.412 5.77 5.77 0 0 1 1.104-2.004 5.784 5.784 0 0 1 1.84-1.472c.736-.381 1.595-.599 2.576-.654 1.172-.082 2.236.136 3.19.654.954.518 1.621 1.241 2.003 2.167.218.518.273.968.164 1.35-.082.381-.355.722-.818 1.022zm-4.702-2.781c-.273.055-.573.15-.9.287-.3.136-.586.313-.858.531a4.232 4.232 0 0 0-.696.695c-.19.246-.299.532-.327.859.464 0 .968-.041 1.513-.123a24.809 24.809 0 0 0 1.636-.286 13.449 13.449 0 0 0 1.472-.45 5.685 5.685 0 0 0 1.145-.531c-.218-.518-.627-.832-1.227-.941a4.243 4.243 0 0 0-1.758-.041z" fill="rgb(51,171,128)" fill-rule="nonzero"/><path d="M462.958 255.53a4.194 4.194 0 0 0-4.192-4.192h-29.022a4.194 4.194 0 0 0-4.192 4.192v14.906a4.194 4.194 0 0 0 4.192 4.192h29.022a4.195 4.195 0 0 0 4.192-4.192V255.53zm45.483 0a4.194 4.194 0 0 0-4.192-4.192h-29.022a4.194 4.194 0 0 0-4.192 4.192v14.906a4.194 4.194 0 0 0 4.192 4.192h29.022a4.195 4.195 0 0 0 4.192-4.192V255.53z" fill="rgb(184,67,123)"/><path d="M415.681 255.53a4.194 4.194 0 0 0-4.192-4.192h-29.022a4.194 4.194 0 0 0-4.192 4.192v14.906a4.194 4.194 0 0 0 4.192 4.192h29.022a4.195 4.195 0 0 0 4.192-4.192V255.53zm-45.472 0a4.194 4.194 0 0 0-4.192-4.192h-29.022a4.194 4.194 0 0 0-4.192 4.192v14.906a4.194 4.194 0 0 0 4.192 4.192h29.022a4.195 4.195 0 0 0 4.192-4.192V255.53zm0 30.768a4.194 4.194 0 0 0-4.192-4.192h-29.022a4.194 4.194 0 0 0-4.192 4.192v14.906a4.194 4.194 0 0 0 4.192 4.192h29.022a4.195 4.195 0 0 0 4.192-4.192v-14.906z" fill="rgb(0,153,187)"/><path d="M322.931 255.53a4.194 4.194 0 0 0-4.192-4.192h-29.022a4.194 4.194 0 0 0-4.192 4.192v14.906a4.194 4.194 0 0 0 4.192 4.192h29.022a4.195 4.195 0 0 0 4.192-4.192V255.53zm-45.475 0a4.194 4.194 0 0 0-4.192-4.192h-29.022a4.194 4.194 0 0 0-4.192 4.192v14.906a4.194 4.194 0 0 0 4.192 4.192h29.022a4.195 4.195 0 0 0 4.192-4.192V255.53zm45.475 30.768a4.194 4.194 0 0 0-4.192-4.192h-29.022a4.194 4.194 0 0 0-4.192 4.192v14.906a4.194 4.194 0 0 0 4.192 4.192h29.022a4.195 4.195 0 0 0 4.192-4.192v-14.906zm-45.475 0a4.194 4.194 0 0 0-4.192-4.192h-29.022a4.194 4.194 0 0 0-4.192 4.192v14.906a4.194 4.194 0 0 0 4.192 4.192h29.022a4.195 4.195 0 0 0 4.192-4.192v-14.906zm0 30.772a4.194 4.194 0 0 0-4.192-4.192h-29.022a4.194 4.194 0 0 0-4.192 4.192v14.906a4.194 4.194 0 0 0 4.192 4.192h29.022a4.195 4.195 0 0 0 4.192-4.192V317.07zm45.475 0a4.194 4.194 0 0 0-4.192-4.192h-29.022a4.194 4.194 0 0 0-4.192 4.192v14.906a4.194 4.194 0 0 0 4.192 4.192h29.022a4.195 4.195 0 0 0 4.192-4.192V317.07z" fill="rgb(51,171,128)"/><path d="M230.19 255.53a4.194 4.194 0 0 0-4.192-4.192h-29.022a4.194 4.194 0 0 0-4.192 4.192v14.906a4.194 4.194 0 0 0 4.192 4.192h29.022a4.195 4.195 0 0 0 4.192-4.192V255.53zm-45.483 0a4.194 4.194 0 0 0-4.192-4.192h-29.022a4.194 4.194 0 0 0-4.192 4.192v14.906a4.194 4.194 0 0 0 4.192 4.192h29.022a4.195 4.195 0 0 0 4.192-4.192V255.53z" fill="rgb(255,187,54)"/><path d="M92.17 317.07a4.194 4.194 0 0 0-4.192-4.192H58.956a4.194 4.194 0 0 0-4.192 4.192v14.906a4.194 4.194 0 0 0 4.192 4.192h29.022a4.195 4.195 0 0 0 4.192-4.192V317.07zm0 61.536a4.194 4.194 0 0 0-4.192-4.192H58.956a4.194 4.194 0 0 0-4.192 4.192v14.906a4.194 4.194 0 0 0 4.192 4.192h29.022a4.195 4.195 0 0 0 4.192-4.192v-14.906zm45.27-61.536a4.194 4.194 0 0 0-4.192-4.192h-29.022a4.194 4.194 0 0 0-4.192 4.192v14.906a4.194 4.194 0 0 0 4.192 4.192h29.022a4.195 4.195 0 0 0 4.192-4.192V317.07zm0-61.54a4.194 4.194 0 0 0-4.192-4.192h-29.022a4.194 4.194 0 0 0-4.192 4.192v14.906a4.194 4.194 0 0 0 4.192 4.192h29.022a4.195 4.195 0 0 0 4.192-4.192V255.53zm0 30.768a4.194 4.194 0 0 0-4.192-4.192h-29.022a4.194 4.194 0 0 0-4.192 4.192v14.906a4.194 4.194 0 0 0 4.192 4.192h29.022a4.195 4.195 0 0 0 4.192-4.192v-14.906zm0 61.543a4.194 4.194 0 0 0-4.192-4.192h-29.022a4.194 4.194 0 0 0-4.192 4.192v14.906a4.194 4.194 0 0 0 4.192 4.192h29.022a4.195 4.195 0 0 0 4.192-4.192v-14.906zM91.962 255.53a4.194 4.194 0 0 0-4.192-4.192H58.748a4.194 4.194 0 0 0-4.192 4.192v14.906a4.194 4.194 0 0 0 4.192 4.192H87.77a4.195 4.195 0 0 0 4.192-4.192V255.53zm0 30.768a4.194 4.194 0 0 0-4.192-4.192H58.748a4.194 4.194 0 0 0-4.192 4.192v14.906a4.194 4.194 0 0 0 4.192 4.192H87.77a4.195 4.195 0 0 0 4.192-4.192v-14.906zm0 61.543a4.194 4.194 0 0 0-4.192-4.192H58.748a4.194 4.194 0 0 0-4.192 4.192v14.906a4.194 4.194 0 0 0 4.192 4.192H87.77a4.195 4.195 0 0 0 4.192-4.192v-14.906z" fill="rgb(251,110,66)"/><path d="M415.684 205.431a4.194 4.194 0 0 0-4.192-4.192h-74.497a4.194 4.194 0 0 0-4.192 4.192v33.961a4.194 4.194 0 0 0 4.192 4.192h74.497a4.194 4.194 0 0 0 4.192-4.192v-33.961z" fill="rgb(0,153,187)"/><path d="M508.433 205.431a4.194 4.194 0 0 0-4.192-4.192h-74.497a4.194 4.194 0 0 0-4.192 4.192v33.961a4.194 4.194 0 0 0 4.192 4.192h74.497a4.194 4.194 0 0 0 4.192-4.192v-33.961z" fill="rgb(184,67,123)"/><path d="M322.931 205.701a4.194 4.194 0 0 0-4.192-4.192h-74.497a4.194 4.194 0 0 0-4.192 4.192v33.961a4.194 4.194 0 0 0 4.192 4.192h74.497a4.194 4.194 0 0 0 4.192-4.192v-33.961z" fill="rgb(51,171,128)"/><path d="M230.182 205.701a4.194 4.194 0 0 0-4.192-4.192h-74.497a4.194 4.194 0 0 0-4.192 4.192v33.961a4.194 4.194 0 0 0 4.192 4.192h74.497a4.194 4.194 0 0 0 4.192-4.192v-33.961z" fill="rgb(255,187,54)"/><path d="M137.437 205.701a4.194 4.194 0 0 0-4.192-4.192H58.748a4.194 4.194 0 0 0-4.192 4.192v33.961a4.194 4.194 0 0 0 4.192 4.192h74.497a4.194 4.194 0 0 0 4.192-4.192v-33.961z" fill="rgb(251,110,66)"/><path d="M137.437 153.938a4.194 4.194 0 0 0-4.192-4.192H58.748a4.194 4.194 0 0 0-4.192 4.192v33.961a4.194 4.194 0 0 0 4.192 4.192h74.497a4.194 4.194 0 0 0 4.192-4.192v-33.961zm92.745 0a4.194 4.194 0 0 0-4.192-4.192h-74.497a4.194 4.194 0 0 0-4.192 4.192v33.961a4.194 4.194 0 0 0 4.192 4.192h74.497a4.194 4.194 0 0 0 4.192-4.192v-33.961zm92.749 0a4.194 4.194 0 0 0-4.192-4.192h-74.497a4.194 4.194 0 0 0-4.192 4.192v33.961a4.194 4.194 0 0 0 4.192 4.192h74.497a4.194 4.194 0 0 0 4.192-4.192v-33.961z" fill="rgb(81,95,227)"/><path d="M526.092 44.283a1.064 1.064 0 0 1 1.475-.296c1.895 1.261 3.919 2.475 9.254 5.632.834.494 1.478 1.069 1.864 1.748.403.709.484 1.462.301 2.186-.339 1.339-1.543 2.443-2.774 3.266-1.287.862-2.858 1.585-4.318 2.086-1.432.492-2.885.814-3.92.777a1.064 1.064 0 0 1 .077-2.125c.64.023 1.797-.197 3.153-.663 1.329-.456 2.725-1.105 3.825-1.842 1.158-.775 1.763-1.496 1.896-2.021a.768.768 0 0 0-.089-.613c-.141-.248-.453-.587-1.098-.969-5.319-3.148-7.397-4.393-9.349-5.692a1.063 1.063 0 0 1-.297-1.474zM27.391 60.661a1.063 1.063 0 0 1-1.421.491c-2.048-.995-4.217-1.926-9.927-4.338-.893-.378-1.608-.861-2.082-1.482a2.892 2.892 0 0 1-.591-2.126c.156-1.373 1.201-2.627 2.309-3.609 1.16-1.027 2.62-1.955 3.999-2.647 1.353-.68 2.75-1.194 3.78-1.296a1.063 1.063 0 1 1 .21 2.116c-.637.063-1.754.436-3.036 1.08-1.255.631-2.552 1.461-3.543 2.339-1.043.923-1.546 1.72-1.607 2.257a.772.772 0 0 0 .17.596c.173.227.528.521 1.219.813 5.693 2.405 7.919 3.36 10.028 4.385.529.256.749.892.492 1.421zm495.299-9.564a1.205 1.205 0 0 1 1.217 1.218 1.249 1.249 0 0 1-1.247 1.225l-4.949.013a1.206 1.206 0 0 1-1.218-1.218 1.25 1.25 0 0 1 1.246-1.225c1.665-.005 3.316-.01 4.951-.013zm-14.785.051a1.204 1.204 0 0 1 1.219 1.216 1.248 1.248 0 0 1-1.244 1.227l-4.988.024a1.206 1.206 0 0 1-1.22-1.216 1.248 1.248 0 0 1 1.243-1.227l4.99-.024zm-14.786.079a1.205 1.205 0 0 1 1.221 1.214 1.247 1.247 0 0 1-1.241 1.229l-4.994.032a1.204 1.204 0 0 1-1.222-1.213 1.248 1.248 0 0 1 1.241-1.23l4.995-.032zm-14.797.102a1.207 1.207 0 0 1 1.224 1.213 1.25 1.25 0 0 1-1.24 1.231l-4.958.038a1.204 1.204 0 0 1-1.224-1.212 1.248 1.248 0 0 1 1.24-1.231l4.958-.039zm-14.811.121a1.205 1.205 0 0 1 1.224 1.211 1.247 1.247 0 0 1-1.238 1.232l-4.927.044a1.206 1.206 0 0 1-1.225-1.211 1.248 1.248 0 0 1 1.238-1.232l4.928-.044zm-14.828.136a1.205 1.205 0 0 1 1.226 1.209 1.25 1.25 0 0 1-1.238 1.234l-4.901.047a1.205 1.205 0 0 1-1.226-1.209 1.248 1.248 0 0 1 1.237-1.234l4.902-.047zm-14.811.147a1.205 1.205 0 0 1 1.226 1.209 1.247 1.247 0 0 1-1.236 1.234l-4.911.051a1.205 1.205 0 0 1-1.227-1.209 1.247 1.247 0 0 1 1.236-1.234l4.912-.051zm-14.765.156c.68-.008 1.23.533 1.227 1.208a1.248 1.248 0 0 1-1.236 1.235l-4.968.054a1.205 1.205 0 0 1-1.227-1.208 1.248 1.248 0 0 1 1.236-1.235l4.968-.054zm-14.793.163c.68-.007 1.23.533 1.228 1.208a1.248 1.248 0 0 1-1.236 1.235l-4.94.056a1.205 1.205 0 0 1-1.228-1.207 1.248 1.248 0 0 1 1.235-1.236l4.941-.056zm-14.813.17c.68-.008 1.23.532 1.228 1.207a1.248 1.248 0 0 1-1.235 1.236l-4.921.057a1.205 1.205 0 0 1-1.229-1.207 1.248 1.248 0 0 1 1.235-1.236l4.922-.057zm-14.814.173a1.206 1.206 0 0 1 1.229 1.207 1.248 1.248 0 0 1-1.235 1.236l-4.918.058a1.206 1.206 0 0 1-1.229-1.207 1.249 1.249 0 0 1 1.235-1.236l4.918-.058zm-14.778.176a1.204 1.204 0 0 1 1.229 1.206 1.249 1.249 0 0 1-1.235 1.237l-4.946.059a1.206 1.206 0 0 1-1.228-1.207 1.247 1.247 0 0 1 1.234-1.236l4.946-.059zm-14.798.176a1.206 1.206 0 0 1 1.229 1.207 1.248 1.248 0 0 1-1.235 1.236l-4.933.059a1.205 1.205 0 0 1-1.229-1.207 1.248 1.248 0 0 1 1.235-1.236l4.933-.059zm-14.804.177a1.205 1.205 0 0 1 1.229 1.207 1.248 1.248 0 0 1-1.235 1.236l-4.93.058a1.206 1.206 0 0 1-1.229-1.206 1.25 1.25 0 0 1 1.235-1.237l4.93-.058zm-14.794.175c.68-.008 1.23.532 1.228 1.207a1.247 1.247 0 0 1-1.235 1.236l-4.934.058a1.206 1.206 0 0 1-1.229-1.207 1.248 1.248 0 0 1 1.235-1.236l4.935-.058zm-14.8.172c.68-.008 1.23.533 1.228 1.207a1.248 1.248 0 0 1-1.235 1.236l-4.928.057a1.206 1.206 0 0 1-1.228-1.208 1.247 1.247 0 0 1 1.235-1.235l4.928-.057zm-14.801.168c.68-.007 1.23.534 1.228 1.208a1.248 1.248 0 0 1-1.236 1.235l-4.932.055a1.205 1.205 0 0 1-1.228-1.207 1.249 1.249 0 0 1 1.236-1.236l4.932-.055zm-14.786.163c.68-.007 1.23.534 1.227 1.208a1.248 1.248 0 0 1-1.236 1.235l-4.946.053a1.206 1.206 0 0 1-1.227-1.208 1.248 1.248 0 0 1 1.236-1.235l4.946-.053zm-14.799.156c.68-.007 1.23.534 1.227 1.209a1.248 1.248 0 0 1-1.237 1.234l-4.927.05a1.205 1.205 0 0 1-1.226-1.209 1.249 1.249 0 0 1 1.237-1.234l4.926-.05zm-14.813.148a1.205 1.205 0 0 1 1.226 1.209 1.248 1.248 0 0 1-1.237 1.234l-4.917.047a1.207 1.207 0 0 1-1.226-1.21 1.248 1.248 0 0 1 1.238-1.233l4.916-.047zm-14.797.137a1.206 1.206 0 0 1 1.225 1.211 1.248 1.248 0 0 1-1.238 1.232l-4.936.044a1.207 1.207 0 0 1-1.225-1.211 1.248 1.248 0 0 1 1.239-1.232l4.935-.044zm-14.77.125a1.206 1.206 0 0 1 1.224 1.212 1.249 1.249 0 0 1-1.24 1.232l-4.963.038a1.206 1.206 0 0 1-1.224-1.212 1.25 1.25 0 0 1 1.24-1.231l4.963-.039zm-14.796.112a1.205 1.205 0 0 1 1.222 1.213 1.248 1.248 0 0 1-1.241 1.23l-4.938.033a1.205 1.205 0 0 1-1.222-1.213 1.248 1.248 0 0 1 1.241-1.23l4.938-.033zm-14.826.094c.68-.004 1.227.54 1.221 1.214a1.248 1.248 0 0 1-1.242 1.229l-4.888.027a1.205 1.205 0 0 1-1.22-1.215 1.248 1.248 0 0 1 1.243-1.228l4.886-.027zm-14.808.074a1.205 1.205 0 0 1 1.219 1.216 1.247 1.247 0 0 1-1.244 1.227l-4.911.02a1.204 1.204 0 0 1-1.218-1.217 1.247 1.247 0 0 1 1.245-1.226l4.909-.02zm-14.788.051a1.205 1.205 0 0 1 1.217 1.218 1.25 1.25 0 0 1-1.247 1.225l-4.939.011a1.206 1.206 0 0 1-1.216-1.22 1.25 1.25 0 0 1 1.247-1.224l4.938-.01zm-14.772.022a1.204 1.204 0 0 1 1.214 1.221 1.25 1.25 0 0 1-1.249 1.222h-4.97a1.206 1.206 0 0 1-1.213-1.222c.01-.675.57-1.222 1.25-1.221h4.968zm-14.763-.013c.68.001 1.222.55 1.211 1.224a1.248 1.248 0 0 1-1.252 1.219 7770.99 7770.99 0 0 1-5.001-.013 1.206 1.206 0 0 1-1.21-1.226 1.248 1.248 0 0 1 1.254-1.217l4.998.013zm-14.766-.055c.68.003 1.221.553 1.207 1.228a1.25 1.25 0 0 1-1.256 1.215c-1.692-.009-3.368-.02-5.027-.031a1.205 1.205 0 0 1-1.205-1.23 1.249 1.249 0 0 1 1.258-1.213l5.023.031zm-14.785-.11c.68.006 1.218.559 1.202 1.233a1.25 1.25 0 0 1-1.261 1.21c-1.701-.016-3.38-.034-5.038-.053a1.204 1.204 0 0 1-1.2-1.235 1.25 1.25 0 0 1 1.263-1.208c1.657.019 3.335.037 5.034.053zm-14.817-.182c.68.011 1.214.566 1.194 1.241a1.248 1.248 0 0 1-1.268 1.202 2171.78 2171.78 0 0 1-5.018-.082 1.205 1.205 0 0 1-1.192-1.243 1.25 1.25 0 0 1 1.271-1.2c1.644.029 3.315.057 5.013.082zm-14.844-.281c.68.016 1.21.575 1.184 1.25a1.25 1.25 0 0 1-1.277 1.193c-1.68-.04-3.325-.08-4.935-.123a1.206 1.206 0 0 1-1.18-1.255 1.25 1.25 0 0 1 1.282-1.188c1.607.043 3.249.084 4.926.123zm-14.793-.429c.68.025 1.203.591 1.168 1.265a1.25 1.25 0 0 1-1.292 1.177c-1.665-.06-3.28-.122-4.844-.188a1.205 1.205 0 0 1-1.16-1.272 1.25 1.25 0 0 1 1.3-1.169 782.4 782.4 0 0 0 4.828.187zm-14.704-.681c.679.041 1.187.62 1.137 1.293a1.25 1.25 0 0 1-1.321 1.146c-1.73-.104-3.367-.213-4.907-.327a1.204 1.204 0 0 1-1.117-1.31 1.25 1.25 0 0 1 1.336-1.127c1.528.114 3.153.222 4.872.325z" fill="rgb(51,171,128)"/></svg>