<?xml version="1.0" encoding="utf-8"?>
<!-- Generator: Adobe Illustrator 23.0.3, SVG Export Plug-In . SVG Version: 6.00 Build 0)  -->
<svg version="1.1" id="Layer_1" width="110" height="144" xmlns="http://www.w3.org/2000/svg" xmlns:xlink="http://www.w3.org/1999/xlink" x="0px" y="0px"
	 viewBox="0 0 110 144" style="enable-background:new 0 0 110 144;" xml:space="preserve">
<style type="text/css">
	.st0{fill:#E7E7E7;}
	.st1{fill:#A6A8AB;}
</style>
<path class="st0" d="M37.34,60.33l5.47,5.47c0,0-12.61,25.27-6.18,65.75c2.81,4.42,13.17,9.19,13.17,9.19s-9.9-51.8,10.96-80.66
	C51.14,60.33,37.34,60.33,37.34,60.33z"/>
<polygon class="st0" points="70.06,60.91 79.15,69.99 79.15,129.34 70.23,133.55 "/>
<g>
	<path class="st1" d="M109.1,60.94c-0.01-3.32-0.56-5.73-1.88-7.81c-1.3-2.04-3.28-3.65-6.18-5.39v0l-0.02-0.01l-8.76-5.03
		c-0.74-0.43-1.68-0.18-2.11,0.56c-0.43,0.74-0.18,1.68,0.56,2.11l8.75,5.02l0,0c2.48,1.49,4.15,2.81,5.15,4.4
		c0.98,1.55,1.39,3.46,1.4,6.15h-0.01v12.35v10.25v9.44v12.37c0,0.04,0,0.07,0,0.11c-0.05,2.83-0.37,4.9-1.22,6.53
		c-0.85,1.62-2.29,2.93-4.63,4.28l-10.7,6.18c-0.03,0.02-0.05,0.03-0.08,0.05l-8.79,5.08l-0.07,0.04V61.83h6.87
		c1.93,0,3.5-1.57,3.5-3.5s-1.57-3.5-3.5-3.5h-6.87v-16v-16v-18c0-0.83-0.67-1.5-1.5-1.5s-1.5,0.67-1.5,1.5V21.8
		c-17.46,6.68-31.31,18.01-40.48,33.02h-9.25c-1.93,0-3.5,1.57-3.5,3.5s1.57,3.5,3.5,3.5h5.43c-8.41,17.5-11.12,39.26-7.91,63.18
		l-3.73-2.16c-0.03-0.02-0.06-0.03-0.09-0.05l-10.61-6.12l0,0c-2.48-1.49-4.15-2.81-5.15-4.39c-0.99-1.55-1.4-3.46-1.4-6.15h0.01
		V93.78V83.53v-9.44V61.72c0-0.03,0-0.07,0-0.11c0.05-2.83,0.37-4.9,1.22-6.53c0.85-1.62,2.29-2.93,4.63-4.29l10.69-6.18
		c0.03-0.02,0.05-0.03,0.08-0.05l8.79-5.08l27.18-15.72c0.74-0.42,0.99-1.37,0.57-2.1c-0.42-0.74-1.37-0.99-2.11-0.57L28.2,36.83
		l-8.8,5.08c-0.03,0.02-0.06,0.03-0.08,0.05l-10.7,6.18c-2.86,1.66-4.67,3.35-5.81,5.53c-1.11,2.12-1.51,4.6-1.57,7.91
		c-0.01,0.05-0.01,0.11-0.01,0.16V74.1v9.44v10.25v12.35h0.01c0.01,3.32,0.56,5.73,1.88,7.81c1.29,2.04,3.28,3.65,6.18,5.39v0
		l0.02,0.01l10.63,6.13c0.03,0.02,0.05,0.04,0.08,0.05l6.28,3.63c0.12,0.09,0.25,0.17,0.39,0.23l1.5,0.87l0,0l0,0l8.79,5.08
		c0.03,0.02,0.05,0.03,0.08,0.05l10.63,6.14c0.02,0.02,0.05,0.03,0.07,0.04c2.87,1.64,5.23,2.37,7.69,2.27
		c2.42-0.1,4.81-1.01,7.76-2.66l0,0l0.02-0.01l10.71-6.19l8.17-4.72l8.8-5.08c0.03-0.01,0.06-0.03,0.09-0.05l10.7-6.17
		c2.86-1.66,4.67-3.35,5.81-5.53c1.1-2.12,1.51-4.6,1.57-7.91c0.01-0.05,0.01-0.11,0.01-0.16V92.98v-9.44V73.29L109.1,60.94
		L109.1,60.94z M87.23,59.33h-6.71v-2h6.71c0.55,0,1,0.45,1,1S87.78,59.33,87.23,59.33z M47.96,57.33h3.12
		c-0.27,0.39-0.55,0.77-0.82,1.18c-0.18,0.27-0.34,0.55-0.51,0.82h-3.66h-18.3c-0.55,0-1-0.45-1-1s0.45-1,1-1H47.96z M69.23,62.3
		l0,71.83l-2,1.15v-16.64c0-0.28-0.22-0.5-0.5-0.5H38.64c-0.14,0-0.27,0.06-0.36,0.16s-0.14,0.23-0.14,0.37
		c0.23,4.6,0.65,9.27,1.29,14.49l-0.81-0.47c-0.03-0.02-0.06-0.03-0.09-0.05l-1.91-1.1c-3.26-30.4,0.01-54.36,9.75-71.22h2.76
		c-4.26,7.07-7.35,15.62-9.17,25.49c-0.03,0.15,0.01,0.3,0.11,0.41c0.1,0.11,0.24,0.18,0.38,0.18h26.27c0.28,0,0.5-0.22,0.5-0.5
		V60.33h0.35c0,0,0.01,0,0.01,0c0.22-0.02,0.8,0.03,1.21,0.43c0.2,0.19,0.29,0.4,0.34,0.51C69.23,61.54,69.23,61.84,69.23,62.3z
		 M66.23,126.6h-7.18l7.18-6.76V126.6z M66.23,127.6v7.72c0,0,0,0,0,0H49.8l8.2-7.72H66.23z M65.42,136.33l-3.7,2.13l0,0
		c-2.54,1.41-4.51,2.19-6.38,2.27c-1.83,0.08-3.69-0.52-6.03-1.87c-0.02-0.01-0.04-0.02-0.06-0.04l-1.96-1.13l1.45-1.37H65.42z
		 M46.38,137.17l-1.46-0.84h2.36L46.38,137.17z M57.59,126.6H39.72c-0.24-2.56-0.42-5.02-0.55-7.46h26.34L57.59,126.6z M39.82,127.6
		h16.71l-8.2,7.72h-5.15l-2.67-1.54C40.25,131.64,40.02,129.59,39.82,127.6z M45.82,69.16h12.71l-8.68,7.83h-6.76
		C43.88,74.25,44.79,71.64,45.82,69.16z M66.23,76.99C66.23,76.99,66.23,76.99,66.23,76.99H51.34l8.68-7.83h6.21V76.99z
		 M42.78,77.99h5.95l-7.54,6.8C41.65,82.45,42.18,80.18,42.78,77.99z M50.23,77.99h16c0,0,0,0,0,0v7.41H42.01L50.23,77.99z
		 M66.23,68.16h-5.1l5.1-4.6V68.16z M66.23,62.21l-6.59,5.95H46.23c1.21-2.8,2.58-5.4,4.08-7.83h15.92V62.21z M66.23,59.33h-15.3
		c0.06-0.09,0.11-0.19,0.17-0.28c0.39-0.59,0.79-1.16,1.2-1.72h13.94V59.33z M66.23,56.33h-13.2c3.69-4.9,8.11-8.97,13.2-12.11
		V56.33z M66.98,42.89c-0.15-0.09-0.35-0.09-0.5,0c-5.73,3.39-10.67,7.91-14.7,13.43H48.9c5.27-7.64,12.1-13.59,20.32-17.7v16.25
		c0,0.55-0.23,1.2-0.73,1.44h-1.27v-13C67.23,43.15,67.13,42.98,66.98,42.89z M28.6,126.91c-3.68-24.58-1.04-46.87,7.65-64.5
		c0.35-0.7,0.72-1.39,1.08-2.08h7.91c-9.56,16.88-12.81,40.62-9.69,70.6l-5.81-3.36l0,0L28.6,126.91z M72.42,132.29l-2.19,1.27
		V62.54l0-0.23c0-0.53,0.01-0.95-0.17-1.4c-0.09-0.22-0.25-0.55-0.57-0.86c-0.68-0.67-1.56-0.72-1.92-0.72h-0.34v-2h1.3
		c0.12,0,0.24-0.03,0.35-0.08c0.82-0.37,1.35-1.3,1.35-2.37V37.83c0-0.17-0.09-0.33-0.23-0.42s-0.33-0.1-0.48-0.03
		c-8.91,4.3-16.24,10.67-21.81,18.95h-8.07c8.64-14.11,21.58-24.84,37.89-31.32v13.82v90.51L72.42,132.29z"/>
	<path class="st1" d="M66.73,88.94H39.9c-0.25,0-0.46,0.18-0.49,0.42c-1.27,8.08-1.7,16.27-1.37,25.78c0,0.04,0.01,0.07,0.02,0.1
		c0,0.02,0.01,0.04,0.01,0.06c0.02,0.05,0.04,0.09,0.07,0.13c0.01,0.01,0.01,0.02,0.02,0.03c0,0,0.01,0,0.01,0.01
		c0.05,0.05,0.1,0.09,0.16,0.11c0,0,0,0,0.01,0c0.06,0.03,0.13,0.04,0.2,0.04h28.2c0.28,0,0.5-0.22,0.5-0.5V89.44
		C67.23,89.16,67,88.94,66.73,88.94z M39,114.02c-0.07-2.36-0.09-4.64-0.06-6.86h7.61L39,114.02z M38.96,106.16
		c0.05-2.65,0.18-5.21,0.38-7.72h16.82l-8.51,7.72H38.96z M57.65,98.44h8.58v7.72H49.14L57.65,98.44z M66.23,97.44h-7.47l7.47-6.79
		V97.44z M40.32,89.94h25.2l-8.26,7.5H39.43C39.65,94.9,39.95,92.41,40.32,89.94z M66.23,114.62h-26.4l8.21-7.46h18.19V114.62z"/>
</g>
</svg>
