<svg xmlns="http://www.w3.org/2000/svg" class="icon" width="84" height="84" viewBox="-1.041 -1.0415 84 84" overflow="visible"><path class="bg" fill="#00A0C1" d="M40.957 0C18.337 0 0 18.34 0 40.96s18.338 40.956 40.957 40.956c22.625 0 40.96-18.334 40.96-40.956C81.917 18.34 63.582 0 40.957 0zM25.814 25.488h30.592c1.376 0 2.6.684 3.35 1.726l-15.6 15.595a4.133 4.133 0 0 1-5.824 0L22.584 27.05a4.113 4.113 0 0 1 3.23-1.568zm-4.12 25.083V29.61c0-.6.133-1.173.37-1.69L35.35 41.2 22.99 53.566a4.1 4.1 0 0 1-1.295-2.994zm34.712 4.12H25.813c-.74 0-1.434-.193-2.034-.54l12.254-12.26 1.72 1.72c1.885 1.888 4.975 1.888 6.864 0l1.78-1.773L58.61 54.05a4.103 4.103 0 0 1-2.205.642zm4.118-4.12a4.11 4.11 0 0 1-1.214 2.92L47.028 41.2 60.21 28.02c.204.49.315 1.024.315 1.585V50.57z"/><path class="img-border" fill="#00A0C1" d="M25.58 24.596h31.062c2.668 0 4.855 2.185 4.855 4.855v21.36c0 2.67-2.185 4.858-4.855 4.858H25.58c-2.67 0-4.856-2.185-4.856-4.855V29.45c0-2.67 2.185-4.854 4.856-4.854zm33.73 28.89a4.112 4.112 0 0 0 1.214-2.916V29.605c0-.56-.11-1.094-.314-1.584L47.028 41.2 59.31 53.486zM46.4 41.832l-1.778 1.773c-1.89 1.888-4.98 1.888-6.865 0l-1.72-1.718L23.78 54.15c.6.343 1.294.54 2.032.54h30.594a4.07 4.07 0 0 0 2.203-.644L46.4 41.833zM35.352 41.2l-13.29-13.286a4.08 4.08 0 0 0-.367 1.69V50.57a4.1 4.1 0 0 0 1.295 2.996L35.352 41.2zM22.585 27.057L38.33 42.81a4.13 4.13 0 0 0 5.824 0l15.6-15.596a4.125 4.125 0 0 0-3.35-1.726h-30.59a4.114 4.114 0 0 0-3.23 1.568z"/><path class="border" fill="#00A0C1" d="M40.958 0c22.624 0 40.96 18.34 40.96 40.96S63.58 81.916 40.958 81.916C18.338 81.916 0 63.582 0 40.96 0 18.34 18.338 0 40.96 0zm0 .97C18.874.97.97 18.873.97 40.96c0 22.084 17.904 39.99 39.988 39.99 22.086 0 39.988-17.906 39.988-39.99C80.946 18.873 63.044.97 40.958.97z"/></svg>