<!DOCTYPE svg PUBLIC "-//W3C//DTD SVG 1.1//EN" "http://www.w3.org/Graphics/SVG/1.1/DTD/svg11.dtd" [
	<!ENTITY ns_flows "http://ns.adobe.com/Flows/1.0/">
]><svg xmlns="http://www.w3.org/2000/svg" width="110" height="144" viewBox="-1.019 -3.58 110 144" overflow="visible"><path fill="#A6A8AB" d="M53.98 33.88a9.503 9.503 0 0 1 6.735 2.798 9.5 9.5 0 0 1 2.8 6.735v3.256a12.29 12.29 0 0 1 1.692 1.92c.502.71.92 1.465 1.278 2.29a24.23 24.23 0 0 1 4.862 3.204A24.522 24.522 0 0 1 75.7 58.94c.32.47.473 1.003.472 1.53h.007v8.837a18.678 18.678 0 0 1 2.76 2.45c1.17 1.275 2.105 2.694 2.76 4.197.15.35.22.714.22 1.073h.013v26.148h3.303a2.723 2.723 0 0 1 2.722 2.72v15.116c0 .97-.51 1.82-1.27 2.3l-1.45 1.01V105.9h-6.023V77.032c-1.05-2.418-3.084-4.638-5.757-6.278v-10.28c-2.268-3.32-5.166-5.728-8.596-7.368h-.106a11.468 11.468 0 0 0-3.96-5.47v-4.222c0-3.748-3.067-6.813-6.816-6.813-3.748 0-6.815 3.068-6.815 6.816v4.222a11.43 11.43 0 0 0-3.96 5.47h-.338c-3.43 1.64-6.33 4.047-8.598 7.37v10.278c-2.673 1.64-4.706 3.86-5.757 6.278V105.9H22.72v18.272l-1.572-1.116a2.7 2.7 0 0 1-1.14-2.21H20V105.9c0-1.5 1.22-2.72 2.72-2.72h3.073V77.032c0-.49.13-.948.355-1.345a15.25 15.25 0 0 1 2.64-3.925 18.433 18.433 0 0 1 2.76-2.452v-8.836c0-.637.22-1.223.586-1.687a24.325 24.325 0 0 1 4.245-4.7 24.245 24.245 0 0 1 5.162-3.352c.354-.82.76-1.55 1.252-2.235.48-.668 1.02-1.27 1.647-1.838v-3.25a9.5 9.5 0 0 1 2.8-6.734 9.513 9.513 0 0 1 6.737-2.8z"/><path fill="#A6A8AB" d="M15.186 116.13a1.625 1.625 0 0 1-1.62 2.818l-5.442-3.143-.024-.014v.004c-2.914-1.744-4.904-3.357-6.206-5.41C.57 108.297.018 105.87.006 102.54H0V58.166c0-.058.003-.115.01-.17.06-3.317.47-5.803 1.583-7.93 1.148-2.2 2.972-3.892 5.84-5.56.03-.02.06-.035.092-.05l6.64-3.834v-.002l12.824-7.404 9.944-5.743a1.628 1.628 0 1 1 1.633 2.818l-9.946 5.746-12.825 7.405v-.002l-.006.002-6.64 3.832c-.03.018-.057.035-.085.05-2.32 1.35-3.755 2.647-4.592 4.25-.847 1.618-1.16 3.667-1.215 6.482 0 .037.003.075.003.113v44.373h-.006c.01 2.67.417 4.562 1.39 6.098 1 1.57 2.65 2.884 5.122 4.363v.004l5.416 3.127zM69.583 30.4a1.63 1.63 0 0 1 1.634-2.816l9.754 5.63.085.053 13.34 7.702 5.442 3.14.023.013c2.913 1.743 4.9 3.357 6.205 5.41 1.323 2.084 1.874 4.512 1.887 7.842h.005v44.373c0 .057-.003.114-.008.17-.064 3.316-.47 5.802-1.586 7.93-1.15 2.2-2.972 3.892-5.842 5.56-.028.02-.058.034-.09.05l-6.647 3.837a1.626 1.626 0 0 1-1.618-2.818l6.64-3.835c.026-.018.055-.035.083-.052 2.32-1.35 3.756-2.645 4.593-4.248.846-1.618 1.16-3.667 1.213-6.482-.002-.038-.005-.075-.005-.113v-44.37h.01c-.01-2.673-.415-4.56-1.39-6.098-.996-1.57-2.65-2.887-5.12-4.366l-5.42-3.13L79.43 36.08a1.387 1.387 0 0 1-.092-.05l-9.753-5.63zm-22.01 16.803a.408.408 0 0 1-.817 0v-4.22c0-1.987.813-3.793 2.122-5.102a7.198 7.198 0 0 1 10.204 0 7.2 7.2 0 0 1 2.122 5.105v4.22a.41.41 0 0 1-.408.408.407.407 0 0 1-.408-.407v-4.22a6.393 6.393 0 0 0-1.883-4.525 6.39 6.39 0 0 0-4.524-1.88 6.39 6.39 0 0 0-4.52 1.88 6.39 6.39 0 0 0-1.883 4.526v4.22h-.003z"/><path fill="#A6A8AB" d="M43.02 58.236a.41.41 0 0 1-.817 0v-1.95c0-3.238 1.324-6.18 3.46-8.316a11.734 11.734 0 0 1 8.316-3.46c3.236 0 6.18 1.325 8.314 3.46a11.738 11.738 0 0 1 3.46 8.317v1.95a.41.41 0 0 1-.818 0v-1.95a10.93 10.93 0 0 0-3.218-7.74c-1.987-1.987-4.73-3.22-7.74-3.22s-5.756 1.233-7.743 3.22a10.93 10.93 0 0 0-3.22 7.74v1.95z"/><path fill="#A6A8AB" d="M37.993 72.73a.408.408 0 0 1-.816 0v-2.71c0-4.62 1.89-8.82 4.936-11.866 3.045-3.046 7.246-4.936 11.867-4.936 4.62 0 8.822 1.89 11.867 4.936 3.044 3.044 4.936 7.246 4.936 11.867v2.71a.408.408 0 0 1-.816.003v-2.71c0-4.396-1.8-8.393-4.695-11.29-2.897-2.898-6.896-4.697-11.29-4.697-4.397 0-8.394 1.8-11.292 4.696-2.897 2.897-4.696 6.895-4.696 11.29v2.71zM23.13 122.074l5.13 2.747a.4.4 0 0 1-.153-.315V106.31H23.13v15.764zm10.267 6.42l-10.833-5.8a.41.41 0 0 1-.25-.377V105.9c0-.225.183-.408.408-.408h5.793c.226 0 .408.184.408.408v18.395l4.902 3.508c.165.116.22.34.124.52a.41.41 0 0 1-.555.17z"/><path fill="#A6A8AB" d="M43.886 82.503a.406.406 0 0 1-.612.535l-3.363-3.852a.41.41 0 0 1 .04-.573.403.403 0 0 1 .335-.095v-.002l5.323.867c.22.035.372.245.336.467a.405.405 0 0 1-.467.335L41.27 79.5l2.62 3.005zm3.482-4.152a.41.41 0 0 1-.79.206l-1.786-6.824a.407.407 0 0 1 .672-.396l5.253 4.928c.163.155.17.412.017.575a.405.405 0 0 1-.575.017l-4.226-3.96 1.432 5.458zm5.11-2.06a.41.41 0 0 1-.5.288.41.41 0 0 1-.286-.5l1.895-6.91a.405.405 0 0 1 .78-.01h.002l2.086 6.904a.413.413 0 0 1-.272.51.414.414 0 0 1-.51-.274l-1.68-5.553-1.52 5.547zm5.52.63a.407.407 0 0 1-.57-.58l5.06-5a.407.407 0 0 1 .68.383l-1.623 6.935a.407.407 0 0 1-.793-.186l1.3-5.557L58 76.918zm4.624 3.404a.408.408 0 0 1-.478-.32.41.41 0 0 1 .324-.48l5.378-1.064a.41.41 0 0 1 .48.32.42.42 0 0 1-.105.357l-3.47 4.117c-.146.173-.403.194-.575.05s-.19-.402-.048-.575l2.74-3.246-4.243.838zM54.37 58.3l1.843 6.095a.41.41 0 0 1-.27.51.41.41 0 0 1-.19.01c-.282-.024-.57-.044-.863-.058a21.428 21.428 0 0 0-1.732-.003c-.254.01-.524.028-.812.052a.408.408 0 0 1-.415-.55l1.66-6.043a.408.408 0 0 1 .5-.286.4.4 0 0 1 .28.276V58.3zm.89 5.762l-1.263-4.174-1.142 4.164c.088-.003.178-.01.27-.01.305-.015.59-.02.854-.02a21 21 0 0 1 1.28.04zm3.01.59l4.216-4.168a.408.408 0 0 1 .68.382l-1.2 5.13a.407.407 0 0 1-.567.277c-.47-.188-.95-.36-1.448-.518a19.16 19.16 0 0 0-1.495-.41.408.408 0 0 1-.186-.694zm3.78-2.596l-2.7 2.674c.286.076.57.158.85.247.362.115.723.24 1.083.376l.77-3.297zm-15.926 3.897l-1.33-5.077a.406.406 0 0 1 .672-.397l4.408 4.13a.41.41 0 0 1-.21.7c-.51.11-1.012.245-1.512.398l-.018.004c-.497.153-.986.325-1.466.516a.408.408 0 0 1-.543-.277zm-.186-3.917l.857 3.273c.36-.137.728-.26 1.1-.376l.018-.005c.282-.087.566-.167.854-.243l-2.83-2.652zm8.432-13.593l1.56 5.158a.41.41 0 0 1-.27.51.41.41 0 0 1-.19.01 17.956 17.956 0 0 0-2.18-.05c-.213.01-.443.024-.687.043a.405.405 0 0 1-.414-.545l1.4-5.11a.407.407 0 0 1 .78-.013zm.608 4.826l-.98-3.24-.886 3.23.144-.005a16.243 16.243 0 0 1 1.526.003l.196.01zm2.59.52l3.565-3.527a.407.407 0 0 1 .68.38L60.8 54.986a.408.408 0 0 1-.568.276 16.858 16.858 0 0 0-2.477-.78.408.408 0 0 1-.306-.49.398.398 0 0 1 .12-.205zm3.133-1.956l-2.055 2.033a16.567 16.567 0 0 1 1.47.475l.59-2.51zM47.27 54.95l-1.122-4.295a.406.406 0 0 1 .672-.398l3.73 3.497a.41.41 0 0 1-.213.698c-.425.095-.85.207-1.27.336l-.017.005c-.42.13-.83.272-1.236.433a.406.406 0 0 1-.527-.23c-.006-.016-.012-.03-.016-.047zm.02-3.136l.655 2.494c.286-.106.574-.203.865-.293l.02-.006c.202-.06.407-.12.615-.175l-2.153-2.02zm7.08-11.506l1.364 4.514a.407.407 0 0 1-.46.517 17.35 17.35 0 0 0-1.296-.058c-.223 0-.425.005-.603.012-.183.007-.383.02-.598.04a.41.41 0 0 1-.416-.548l1.228-4.468a.408.408 0 0 1 .5-.287c.14.04.242.147.28.276l.002-.002zm.413 4.182l-.785-2.594-.71 2.59.056-.003a12.65 12.65 0 0 1 1.34.005l.1.002z"/><path fill-rule="evenodd" clip-rule="evenodd" fill="#E7E7E7" d="M65.348 58.236c.113-1.845.007-3.697-.486-5.563 3.43 1.64 6.328 4.047 8.597 7.37v10.28c2.67 1.64 4.703 3.86 5.754 6.276v48.54l-4.846 3.426v-43.75c-.19-5.138-1.62-9.075-3.997-12.087.344-5.88-1.03-10.87-5.025-14.495z"/><path fill="#A6A8AB" d="M64.942 58.203c.055-.9.058-1.803-.016-2.71a15.534 15.534 0 0 0-.457-2.717.403.403 0 0 1 .29-.496.404.404 0 0 1 .3.037c1.733.833 3.34 1.86 4.8 3.1a22.128 22.128 0 0 1 3.933 4.396c.048.07.07.15.07.23h.003v10.054a16.567 16.567 0 0 1 3.375 2.797c1.006 1.095 1.8 2.292 2.346 3.544a.4.4 0 0 1 .033.16h.003v48.545a.412.412 0 0 1-.195.348l-4.826 3.41a.403.403 0 0 1-.566-.1.374.374 0 0 1-.075-.23h-.004V84.82l.002-.02c-.098-2.514-.494-4.73-1.157-6.69s-1.59-3.658-2.75-5.127a.397.397 0 0 1-.085-.274h-.004c.17-2.89-.08-5.56-.864-7.946a14.236 14.236 0 0 0-4.026-6.228.41.41 0 0 1-.132-.333zm.798-2.773c.068.88.073 1.758.025 2.636 1.975 1.835 3.31 4.003 4.11 6.446.803 2.443 1.07 5.158.912 8.09 1.176 1.514 2.115 3.252 2.79 5.244.686 2.028 1.097 4.325 1.196 6.92.003.02.003.035.003.052v42.962l4.03-2.85V76.68c-.507-1.14-1.24-2.232-2.163-3.238a15.873 15.873 0 0 0-3.372-2.757.41.41 0 0 1-.22-.363V60.167a21.274 21.274 0 0 0-3.72-4.132 21.032 21.032 0 0 0-3.873-2.61c.14.67.23 1.34.285 2.005zM29.058 105.9a.545.545 0 0 1-1.087 0V76.6a.55.55 0 0 1 .07-.266c.55-1.248 1.347-2.44 2.348-3.532a16.694 16.694 0 0 1 3.34-2.78v-9.98c0-.127.043-.244.117-.336a22.202 22.202 0 0 1 3.972-4.42 22.13 22.13 0 0 1 4.817-3.1.54.54 0 1 1 .467.976 21.24 21.24 0 0 0-4.584 2.95l-.03.03a21.01 21.01 0 0 0-3.672 4.068v10.112c0 .183-.093.36-.26.464a15.742 15.742 0 0 0-3.368 2.747c-.905.988-1.627 2.06-2.126 3.175V105.9h-.003zM52.348 1.632a1.63 1.63 0 0 1 3.263 0V34.96a1.632 1.632 0 0 1-3.26 0V1.632z"/><path fill-rule="evenodd" clip-rule="evenodd" fill="#E7E7E7" d="M65.434 105.665v-18.21l8.703 8.703v9.507h-8.703"/><path fill="#A6A8AB" d="M33.996 111.695a.407.407 0 0 1-.816 0V84.818c0-5.72 2.34-10.92 6.11-14.69 3.77-3.768 8.97-6.107 14.69-6.107 5.72 0 10.92 2.34 14.688 6.11 3.77 3.77 6.108 8.97 6.108 14.69v33.917a.408.408 0 0 1-.817 0v-33.92c0-5.494-2.25-10.49-5.87-14.11-3.62-3.622-8.62-5.87-14.11-5.87-5.498 0-10.494 2.25-14.115 5.87-3.62 3.62-5.87 8.616-5.87 14.11v26.878z"/><path fill="#A6A8AB" d="M33.996 128.134a.408.408 0 0 1-.816 0v-22.468c0-.226.184-.408.408-.408h8.528V87.454a11.757 11.757 0 0 1 1.004-4.76 11.97 11.97 0 0 1 4.396-5.174 11.753 11.753 0 0 1 6.46-1.928c3.264 0 6.23 1.334 8.38 3.484a11.824 11.824 0 0 1 3.482 8.377v17.804h8.53c.225 0 .406.183.406.408v22.468a.408.408 0 0 1-.817 0v-22.06h-8.525a.41.41 0 0 1-.408-.407v-18.21c0-3.037-1.244-5.8-3.246-7.8a11.004 11.004 0 0 0-7.8-3.247c-2.216 0-4.283.66-6.017 1.79a11.193 11.193 0 0 0-4.094 4.82 10.95 10.95 0 0 0-.7 2.166c-.153.73-.234 1.49-.234 2.27v18.21a.41.41 0 0 1-.407.41h-8.53v22.06H34z"/><path fill="#A6A8AB" d="M53.937 84.764a3.97 3.97 0 0 1 2.696 1.036c.692.638 1.12 1.52 1.12 2.488v48.254c0 .97-.428 1.85-1.12 2.49a3.973 3.973 0 0 1-2.696 1.034 3.974 3.974 0 0 1-2.695-1.036v.002c-.69-.64-1.12-1.52-1.12-2.49V88.288c0-.97.43-1.85 1.12-2.488a3.96 3.96 0 0 1 2.695-1.036zm2.07 1.612a3.047 3.047 0 0 0-2.07-.796 3.05 3.05 0 0 0-2.072.796c-.53.49-.86 1.17-.86 1.912v48.254c0 .745.33 1.422.86 1.912v.003c.53.488 1.264.793 2.07.793.81 0 1.542-.305 2.073-.796.53-.49.86-1.168.86-1.912V88.288c0-.743-.328-1.42-.86-1.912zm-13.72 25.92c.797 0 1.524.327 2.05.854.53.527.855 1.253.855 2.053v20.616a.407.407 0 0 1-.652.325l-4.966-3.06a.404.404 0 0 1-.19-.347h-.004V115.2a2.907 2.907 0 0 1 2.906-2.904zm0 .816a2.08 2.08 0 0 0-1.477.614c-.378.38-.615.902-.615 1.477v17.312l4.182 2.575v-19.887c0-.574-.235-1.098-.615-1.477a2.083 2.083 0 0 0-1.476-.614zm23.622-.816c.8 0 1.523.327 2.05.854h.002c.526.528.854 1.255.854 2.053V132.8a.41.41 0 0 1-.234.37l-4.965 2.924a.408.408 0 0 1-.615-.35v-20.54c0-.8.326-1.525.853-2.055l.023-.02a2.892 2.892 0 0 1 2.03-.836zm0 .816a2.08 2.08 0 0 0-1.46.596l-.018.02c-.38.378-.614.9-.614 1.476v19.828l4.18-2.465v-17.364c0-.574-.235-1.098-.614-1.477s-.9-.614-1.478-.614z"/><path fill="#A6A8AB" d="M92.15 116.483a1.63 1.63 0 0 1 1.656 2.806l-25.908 15.29c-.04.022-.078.044-.117.062l-5.343 3.086-.02.012v.002c-2.96 1.65-5.354 2.562-7.79 2.665-2.476.102-4.85-.63-7.728-2.278-.027-.016-.053-.03-.078-.05l-6.66-3.845-12.816-7.4v.002l-13.776-7.89a1.632 1.632 0 0 1 1.62-2.83l13.775 7.89v.003l.007.005 12.825 7.403 6.655 3.844c.023.012.047.023.07.036 2.33 1.335 4.172 1.933 5.98 1.855 1.853-.077 3.815-.853 6.338-2.256l5.32-3.07c.026-.02.056-.036.084-.052l25.91-15.297z"/></svg>