<!DOCTYPE svg PUBLIC "-//W3C//DTD SVG 1.1//EN" "http://www.w3.org/Graphics/SVG/1.1/DTD/svg11.dtd" [
	<!ENTITY ns_flows "http://ns.adobe.com/Flows/1.0/">
]><svg xmlns="http://www.w3.org/2000/svg" width="23" height="28" viewBox="0.007 -1.031 23 28" overflow="visible"><path fill-rule="evenodd" clip-rule="evenodd" fill="#bababa" d="M1.405 8.637c1.865-.158 1.567 2.096 1.567 4.432v2.194c0 .723.1 1.52-.12 2.07-.574 1.437-2.444 1.065-2.774-.25-.148-.588-.04-1.32-.04-1.945v-3.893c0-1.402.1-2.502 1.367-2.61zM21.392 8.637c.553-.048 1.14.345 1.36.83.306.68.153 2.922.153 3.81 0 1.096.217 2.886-.077 3.89-.413 1.414-2.15 1.42-2.638.168-.328-.843-.117-2.73-.117-3.81v-1.99c0-1.537-.01-2.78 1.32-2.898zM14.642 25.673h-.52c-1.978-.29-1.083-3.23-1.35-5.098-.74-.094-1.667-.014-2.48-.04-.382 1.786.646 4.878-1.39 5.138h-.523c-1.986-.295-1.077-3.262-1.35-5.138-.698-.093-1.377.138-2-.04-1.225-.35-.956-1.928-.956-3.493v-7.99c4.943.028 10.004-.053 14.875.042v7.948c0 .9.178 2.005-.045 2.648-.327.945-1.636.95-2.914.885-.14 1.997.6 4.81-1.348 5.138zM15.398 2.465c.295-.813.92-1.435 1.047-2.272-.043 0-.395-.193-.438-.193-.517.656-1.05 1.565-1.297 2.183-1.7-.793-4.626-.723-6.33.053-.434-.71-.865-1.42-1.294-2.132-.057 0-.333.164-.39.164.04.62.93 1.602 1.187 2.242C5.94 3.683 4.32 5.33 4.326 7.89c4.76.07 9.82.07 14.578 0-.04-2.83-1.944-4.445-3.506-5.425zM8.508 6.48c-.53 0-.96-.41-.96-.913 0-.503.43-.91.96-.91s.957.407.957.91c0 .503-.428.912-.958.912zm6 0c-.53 0-.96-.41-.96-.913 0-.503.43-.91.96-.91s.958.407.958.91c0 .503-.43.912-.96.912z"/></svg>