<!DOCTYPE svg PUBLIC "-//W3C//DTD SVG 1.1//EN" "http://www.w3.org/Graphics/SVG/1.1/DTD/svg11.dtd" [
	<!ENTITY ns_flows "http://ns.adobe.com/Flows/1.0/">
]><svg xmlns="http://www.w3.org/2000/svg" width="23" height="28" viewBox="0 -5 23 28" overflow="visible"><path fill="#bababa" d="M21 0H1a1 1 0 0 0-1 1v6h22V1a1 1 0 0 0-1-1zM3.5 5a1.5 1.5 0 1 1 0-3 1.5 1.5 0 0 1 0 3zm4 0a1.5 1.5 0 1 1 0-3 1.5 1.5 0 0 1 0 3zm4 0a1.5 1.5 0 1 1 0-3 1.5 1.5 0 0 1 0 3zM0 17a1 1 0 0 0 1 1h20a1 1 0 0 0 1-1V8H0v9z"/></svg>