<!DOCTYPE svg PUBLIC "-//W3C//DTD SVG 1.1//EN" "http://www.w3.org/Graphics/SVG/1.1/DTD/svg11.dtd" [
	<!ENTITY ns_flows "http://ns.adobe.com/Flows/1.0/">
]><svg xmlns="http://www.w3.org/2000/svg" width="23" height="28" viewBox="-0.999 0 23 28" overflow="visible"><path fill-rule="evenodd" clip-rule="evenodd" fill="#bababa" d="M15.072 1.02c.027-.35.09-.888-.166-1.02-2.903.63-4.705 2.562-4.735 5.88 1.33-.027 2.315-.508 3.075-1.226.852-.804 1.72-2.177 1.827-3.633zM19.518 17.882c-1.16-.827-2.073-2.243-2.202-4-.155-2.135.746-3.45 1.745-4.45.2-.2.912-.66.915-.818 0-.042-.353-.342-.457-.45-1.09-1.11-2.497-2.077-4.694-1.918-1.738.125-2.786 1.08-4.445.98-1.748-.104-2.95-1.04-5.07-.857-1.987.17-3.442 1.517-4.236 2.94-.852 1.525-1.252 3.818-.997 6 .23 1.958.91 3.785 1.786 5.39.86 1.575 1.858 3.124 3.282 3.92 1.907 1.063 3.33-.43 5.234-.572 1.81-.134 3.008.997 4.735.94.65-.023 1.22-.28 1.703-.612 1.886-1.306 2.902-3.586 3.863-5.92-.576-.17-.808-.32-1.162-.574z"/></svg>