<svg xmlns="http://www.w3.org/2000/svg" class="icon" width="84" height="84" viewBox="-1.3335 -1 84 84" overflow="visible"><path class="bg" fill="#00A0C1" d="M78.627 50.296c.615-2.73.938-5.567.938-8.48 0-21.485-17.62-38.908-39.348-38.908-2.482 0-4.908.232-7.263.665A21.06 21.06 0 0 0 21.172 0C9.572 0 .17 9.3.17 20.772c0 3.49.872 6.782 2.41 9.67A38.474 38.474 0 0 0 .87 41.818c0 21.49 17.617 38.914 39.348 38.914 3.615 0 7.117-.483 10.45-1.386a21.12 21.12 0 0 0 9.995 2.496c11.6 0 21.004-9.3 21.004-20.772a20.51 20.51 0 0 0-3.04-10.772zM54.77 58.798c-3.07 2.924-7.55 4.06-13.12 4.487-9 .688-15.546-2.474-18.376-8.49-1.272-2.703 1.953-7.12 5.96-4.313 3.99 2.795 3.042 7.067 11.86 6.832 4.66-.125 10.92-2.274 7.745-8.757-2.94-6.007-18.346-.315-23.72-10.663-4.42-8.495-.29-15.848 9.95-17.617 9.64-1.67 16.534.64 20.62 5.632 1.08 1.32 1.59 3.752.63 5.112-1.166 1.642-4.136 1.958-6.296-.162-3.272-3.203-6.527-5.07-10.065-5.03-7.768.073-9.594 5.994-5.933 9.077 5.22 4.393 16.644 1.197 22.844 9.12 3.584 4.58 1.78 11.073-2.1 14.773z"/><path class="img-border" fill="#00A0C1" d="M78.46 50.394a38.61 38.61 0 0 0 .937-8.48c0-21.486-17.62-38.908-39.348-38.908-2.487 0-4.91.23-7.267.665A21.07 21.07 0 0 0 21.003.1C9.406.098 0 9.398 0 20.87c0 3.49.874 6.782 2.413 9.67a38.44 38.44 0 0 0-1.71 11.376c0 21.49 17.616 38.914 39.347 38.914a39.81 39.81 0 0 0 10.45-1.39 21.122 21.122 0 0 0 9.995 2.498c11.6 0 21.004-9.3 21.004-20.772 0-3.944-1.116-7.63-3.04-10.772zM60.494 80.946a20.11 20.11 0 0 1-9.522-2.378l-.352-.19-.39.107a38.773 38.773 0 0 1-10.18 1.35c-21.176 0-38.344-16.973-38.344-37.918 0-3.755.558-7.492 1.668-11.083l.12-.394-.192-.36a19.543 19.543 0 0 1-2.298-9.21c0-10.925 8.954-19.78 20-19.78 4.013 0 7.9 1.172 11.217 3.403l.348.23.406-.074a38.558 38.558 0 0 1 7.08-.65C61.23 4 78.397 20.97 78.397 41.91c0 2.78-.307 5.55-.914 8.265l-.093.386.21.346c1.9 3.1 2.893 6.624 2.893 10.254 0 10.927-8.954 19.78-20 19.78z"/><path class="border" fill="#00A0C1" d="M34.513 34.25c-.877-.74-1.47-1.765-1.46-2.925.024-3.293 4.078-4.377 6.753-4.405 3.693-.037 6.84 2.29 9.343 4.745 2.1 2.06 5.96 2.662 7.82.028 1.264-1.793.643-4.708-.666-6.31-5.302-6.48-13.757-7.34-21.578-5.987-10.19 1.76-15.67 9.434-10.67 19.047 5.582 10.74 21.195 5.512 23.706 10.64 2.648 5.41-2.354 7.213-6.865 7.333-8.466.227-6.326-3.195-11.254-6.65-4.56-3.197-9.303 1.605-7.45 5.546 3.515 7.468 11.59 9.652 19.36 9.06 4.827-.372 10.117-1.31 13.744-4.76 4.28-4.085 6.078-11.136 2.198-16.09-6.657-8.513-17.67-4.798-22.987-9.273zm20.09 24.645c-3.07 2.924-7.55 4.062-13.122 4.488-8.993.687-15.54-2.475-18.37-8.49-1.272-2.704 1.953-7.12 5.96-4.313 3.99 2.795 3.04 7.066 11.86 6.83 4.66-.124 10.92-2.272 7.745-8.756-2.94-6.006-18.34-.314-23.72-10.662-4.413-8.495-.29-15.85 9.953-17.617 9.644-1.67 16.537.64 20.62 5.63 1.08 1.324 1.588 3.76.63 5.12-1.163 1.64-4.133 1.956-6.293-.164-3.272-3.2-6.527-5.064-10.065-5.03-7.77.077-9.594 5.998-5.934 9.08 5.22 4.394 16.645 1.2 22.845 9.123 3.58 4.574 1.775 11.066-2.104 14.766z"/></svg>