<svg xmlns="http://www.w3.org/2000/svg" width="52" height="57" viewBox="0 -0.188 52 57" overflow="visible"><path fill="#00a2c5" d="M50.594 13.688c-.656-1.03-2.523-2.57-3.875-3.375S31.187 1.375 31.187 1.375 28.718.03 25.875 0c-2.063-.022-5.25 1.5-5.25 1.5s-13.62 7.718-16 9.125c-1.567.907-2.997 2.868-3.562 4C.375 16 0 18.812 0 18.812v17.906c.094 3.094 1.344 5.094 1.344 5.094s1.125 2.22 3.906 3.97c1.817 1.143 13.65 7.884 15.844 9.03 2.75 1.438 6.53 1.72 9.875-.03 2.677-1.402 12.503-7.17 15.687-8.97 3.812-2.156 5.28-5.156 5.344-8.625V19.25c0-2.5-.652-4.377-1.406-5.562zM7.05 12.354c2.028-1.2 15.48-8.85 15.48-8.85s1.766-.866 3.523-.813c1.757.054 3.408.81 3.408.81S44.208 11.9 45.36 12.587c1.15.687 2.21 1.577 2.63 2.242.153.244.29.483.413.734L26.5 28.11 4.117 15.29c.755-1.33 1.7-2.223 2.934-2.936zm15.53 39.813c-1.856-.997-14.043-8-15.618-8.932-1.574-.93-2.844-2.797-2.844-2.797S3.106 39.055 3 37.262V20.154s.1-2.348.68-3.964L26 28.977v24.06a7.49 7.49 0 0 1-3.42-.87zM49 37.617c-.143 1.987-1.064 3.976-3.775 5.513-2.71 1.537-13.688 7.903-15.956 9.122a6.607 6.607 0 0 1-2.27.72V28.976l21.753-12.46c.16.603.247 1.338.247 2.36v18.74z"/><path fill="#00a2c5" d="M42.28 27.808l-7.708 4.524c-.414.246-.754.942-.758 1.556l-.003.378c-.003.614.366.918.783.673l7.67-4.532c.414-.246.83-.93.834-1.542l.003-.38c.005-.614-.404-.925-.82-.678zM42.244 34.013l-7.71 4.525c-.413.245-.753.94-.757 1.555l-.003.38c-.005.612.365.916.782.67l7.67-4.53c.414-.247.83-.93.834-1.543l.003-.38c.004-.614-.405-.923-.82-.677zM18.263 35.34l-7.67-4.532c-.416-.245-.785.06-.78.673l.002.38c.004.612.344 1.31.758 1.555l7.71 4.524c.414.246.823-.065.818-.68l-.002-.38c-.004-.61-.42-1.295-.835-1.54zM21.256 17.275l.363.197c.584.32 1.456.284 1.91.02l2.923-1.72 2.967 1.756c.452.264 1.296.22 1.882-.1l.36-.195c.588-.32.683-.832.23-1.1l-3.025-1.78 3.025-1.778c.453-.268.358-.78-.23-1.1l-.36-.196c-.586-.32-1.43-.364-1.882-.1l-2.967 1.755-2.924-1.72c-.454-.265-1.326-.3-1.91.02l-.364.196c-.588.32-.67.874-.215 1.14l3.016 1.784-3.015 1.784c-.453.264-.372.818.216 1.137z"/></svg>
