<svg xmlns="http://www.w3.org/2000/svg" class="icon" width="84" height="84" viewBox="-1.0835 -1.0312 84 84" overflow="visible"><path class="bg" fill="#00A0C1" d="M40.944 0C18.33 0 0 18.344 0 40.97 0 63.6 18.33 81.94 40.945 81.94c22.614 0 40.94-18.338 40.94-40.967C81.885 18.345 63.56 0 40.945 0zM21.39 27.445a1.95 1.95 0 0 1 1.95-1.937h35.05c1.07 0 1.948.868 1.948 1.936v2.902a1.947 1.947 0 0 1-1.948 1.933H23.34a1.95 1.95 0 0 1-1.95-1.938v-2.9zm0 11.608a1.95 1.95 0 0 1 1.95-1.937h18.498c1.072 0 1.95.87 1.95 1.937v2.9a1.948 1.948 0 0 1-1.95 1.934h-18.5a1.95 1.95 0 0 1-1.95-1.934v-2.9zm38.95 14.51a1.95 1.95 0 0 1-1.948 1.935H23.34a1.95 1.95 0 0 1-1.95-1.935V50.66c0-1.065.877-1.935 1.95-1.935v.002h35.05c1.07 0 1.948.868 1.948 1.934v2.907zm.082-11.61a1.947 1.947 0 0 1-1.95 1.934h-7.87c-1.07 0-1.947-.87-1.947-1.934v-2.9a1.95 1.95 0 0 1 1.948-1.937h7.87c1.07 0 1.95.87 1.95 1.937v2.9z"/><path class="img-border" fill="#00A0C1" d="M40.944 0c22.614 0 40.94 18.344 40.94 40.97 0 22.63-18.326 40.968-40.94 40.968C18.33 81.938 0 63.6 0 40.97 0 18.345 18.33 0 40.944 0zm0 .968C18.864.968.97 18.878.97 40.97c0 22.09 17.894 39.998 39.974 39.998 22.077 0 39.97-17.907 39.97-39.997s-17.892-40-39.97-40z"/><path class="border" fill="#00A0C1" d="M23.34 24.54h35.05c1.61 0 2.92 1.303 2.92 2.904v2.9c0 1.6-1.312 2.903-2.92 2.903H23.34c-1.61 0-2.923-1.304-2.923-2.902v-2.9c0-1.602 1.313-2.905 2.922-2.905zm27.263 11.608h7.87c1.607 0 2.924 1.307 2.924 2.906v2.9c0 1.6-1.317 2.903-2.925 2.903h-7.87c-1.608 0-2.923-1.305-2.923-2.902v-2.9a2.92 2.92 0 0 1 2.92-2.907zm-27.264 0h18.494c1.61 0 2.922 1.307 2.922 2.906v2.9c0 1.6-1.315 2.903-2.923 2.903h-18.5c-1.608 0-2.92-1.305-2.92-2.902v-2.9a2.92 2.92 0 0 1 2.92-2.907zm0 11.613h35.05c1.61 0 2.92 1.307 2.92 2.9v2.907c0 1.6-1.315 2.9-2.92 2.9H23.34c-1.61 0-2.923-1.3-2.923-2.9V50.66c0-1.596 1.313-2.9 2.922-2.9zm0-22.25c-1.077 0-1.95.87-1.95 1.94v2.9c0 1.062.873 1.933 1.95 1.933h35.05c1.07 0 1.945-.87 1.945-1.933v-2.903a1.947 1.947 0 0 0-1.948-1.937H23.34zM50.6 37.12a1.95 1.95 0 0 0-1.948 1.937v2.9c0 1.063.878 1.934 1.948 1.934h7.87c1.073 0 1.95-.87 1.95-1.935v-2.9a1.95 1.95 0 0 0-1.95-1.937H50.6zm-27.264 0a1.95 1.95 0 0 0-1.95 1.937v2.9c0 1.063.877 1.934 1.95 1.934h18.498c1.073 0 1.95-.87 1.95-1.935v-2.9a1.95 1.95 0 0 0-1.95-1.937h-18.5zm0 11.61c-1.073 0-1.95.87-1.95 1.935v2.904a1.95 1.95 0 0 0 1.95 1.935H58.39a1.95 1.95 0 0 0 1.948-1.935V50.66a1.945 1.945 0 0 0-1.948-1.933H23.34v-.002z"/></svg>