<!DOCTYPE svg PUBLIC "-//W3C//DTD SVG 1.1//EN" "http://www.w3.org/Graphics/SVG/1.1/DTD/svg11.dtd" [
	<!ENTITY ns_flows "http://ns.adobe.com/Flows/1.0/">
]><svg xmlns="http://www.w3.org/2000/svg" width="110" height="144" viewBox="-1 0 110 144" overflow="visible"><path fill="#A6A8AB" d="M47.027 42.75l-3.107-6.5a2.06 2.06 0 0 1 1.858-2.948v-.008h3.53l2.083-8.646a2.06 2.06 0 0 1 4.016.038l2.074 8.608h3.624a2.068 2.068 0 0 1 1.78 3.117l-3.133 6.306 5.745 24.133 1.887-4.998c.058-.14.124-.273.2-.395a2.234 2.234 0 0 0 3.46 0c.15.228.25.482.3.75l3.514 15.626 1.096-1.995c.08-.15.18-.283.288-.403a1.855 1.855 0 0 0 3.38.507c.133.276.203.58.203.89h.003v16.324c0 .865-.53 1.604-1.285 1.913l-2.467 1.226 4.463 6.08a2.064 2.064 0 0 1-1.665 3.285v.003h-1.63v25.623c0 .834-.496 1.554-1.21 1.88l-2.98 1.723v.002l-6.874 3.97c-.04.02-.076.043-.115.063l-3.74 2.158-.022.015.002.002c-3.026 1.684-5.48 2.617-7.997 2.723-2.57.108-5.02-.643-7.973-2.335a1.78 1.78 0 0 1-.152-.096l-5.556-3.208-4.998-2.886-.005-.005-.005.005-5.035-2.907a2.058 2.058 0 0 1-1.026-1.783h-.005V105.66h-1.635a2.068 2.068 0 0 1-1.583-3.4l4.38-5.97L28.115 95a2.06 2.06 0 0 1-1.15-1.85h-.005V76.83c0-.32.073-.623.203-.894a1.856 1.856 0 0 0 3.386-.505c.14.156.26.33.35.52l1.03 1.886 3.53-15.705c.057-.245.154-.47.28-.67a2.234 2.234 0 0 0 3.46 0c.08.125.147.257.2.397l1.89 4.997 5.735-24.104zm2.022-5.318l.916 1.92-8.222 34.155-4.272-10.926-4.728 20.66-3.717-6.41V93.16h4.634l1.037.514c.12.057.236.125.346.207.55.402.844 1.027.844 1.662h-2.063l-5.91 8.056h3.7v27.012l5.034 2.906 4.997 2.885 5.706 3.293c5.217 2.988 8.45 2.662 13.943-.396l3.844-2.22 6.876-3.97 3.156-1.82v-27.69h3.7l-5.91-8.058h-2.067a2.06 2.06 0 0 1 1.15-1.85l1.074-.536h4.637V76.83l-3.718 6.408-4.73-20.658-4.27 10.926-8.22-34.156.954-1.92h-1.418L53.39 25.126 50.428 37.43H49.05v.004z"/><path fill="#A6A8AB" d="M70.537 34.384a1.548 1.548 0 0 1 1.553-2.676l8.883 5.13c.027.015.055.032.08.048l8.096 4.674 10.716 6.19.025.013c2.907 1.738 4.89 3.348 6.19 5.39 1.316 2.076 1.865 4.492 1.877 7.81h.006v44.445c0 .054-.004.108-.008.16-.062 3.313-.47 5.794-1.576 7.913-1.144 2.19-2.96 3.876-5.82 5.54l-10.704 6.18a.884.884 0 0 1-.086.045l-8.8 5.083-8.18 4.724-10.726 6.19-.018.01h.002c-2.957 1.648-5.342 2.56-7.765 2.66-2.464.106-4.83-.625-7.697-2.27-.026-.013-.05-.03-.075-.044l-10.633-6.14c-.027-.017-.054-.032-.08-.05L27 130.328l-.005-.003v.003l-8.182-4.723c-.027-.015-.053-.033-.08-.05l-10.635-6.14-.022-.015v.002c-2.908-1.74-4.892-3.35-6.188-5.392-1.317-2.076-1.867-4.493-1.88-7.812H0v-44.44c0-.055.003-.11.008-.163.062-3.31.468-5.792 1.576-7.912 1.144-2.186 2.96-3.87 5.82-5.535l10.703-6.18.086-.046 8.803-5.084 8.182-4.723a1.542 1.542 0 1 1 1.537 2.676l-8.18 4.723-8.797 5.08a1.077 1.077 0 0 1-.08.05L8.954 50.82c-2.336 1.36-3.785 2.668-4.632 4.29-.854 1.635-1.17 3.7-1.224 6.537.002.036.003.07.003.107v44.443h-.003c.01 2.692.42 4.6 1.405 6.152 1.008 1.583 2.67 2.906 5.157 4.394v.002l10.617 6.13c.028.014.057.03.085.046l8.18 4.722v.003l8.798 5.08c.03.014.058.03.087.046l4.222 2.438v1.184l5.705 3.294c5.216 2.99 8.45 2.662 13.942-.396l3.844-2.22v-1.18l6.106-3.524 8.182-4.724 8.797-5.078.08-.05 10.705-6.18c2.335-1.36 3.782-2.67 4.63-4.29.854-1.633 1.172-3.7 1.225-6.536-.002-.036-.004-.072-.004-.106v-44.44h.008c-.008-2.693-.418-4.6-1.404-6.15-1.006-1.588-2.672-2.91-5.158-4.4h.002l-10.7-6.177-8.1-4.677a1.394 1.394 0 0 1-.085-.046l-8.886-5.13z"/><path fill-rule="evenodd" clip-rule="evenodd" fill="#E7E7E7" d="M65.227 73.028l-11.833-47.9V57.64l7.75 25.836 4.083-10.448"/><path fill="#A6A8AB" d="M53.394 26.775L41.99 74.135l-.49-1.257 11.518-47.84a.386.386 0 0 1 .75 0l11.516 47.84-.49 1.258-11.4-47.36z"/><path fill-rule="evenodd" clip-rule="evenodd" fill="#F2F2F2" d="M49.126 42.365l-3.348-7.002h15.326l-3.48 7.002h-8.498"/><path fill="#A6A8AB" d="M48.762 42.5l-3.333-6.97a.388.388 0 0 1 .18-.515.408.408 0 0 1 .166-.037H61.1a.385.385 0 0 1 .333.586l-3.465 6.973a.383.383 0 0 1-.347.215h-8.5a.386.386 0 0 1-.36-.253zm-2.37-6.75l2.977 6.226h8.013l3.094-6.225H46.39z"/><path fill-rule="evenodd" clip-rule="evenodd" fill="#E7E7E7" d="M32.736 93.155H77.76l-4.8 2.385H33.827l-4.797-2.385h3.706"/><path fill="#A6A8AB" d="M32.736 92.767h45.02a.387.387 0 0 1 .146.747l-4.77 2.372a.406.406 0 0 1-.17.04v.002H33.825a.374.374 0 0 1-.198-.056l-4.77-2.37a.388.388 0 0 1 .17-.735h3.707zm41.315.776H30.68l3.236 1.608H72.87l3.236-1.605H74.05z"/><path fill="#A6A8AB" d="M31.623 103.208h46.485l-5.342-7.28H34.024l-5.344 7.28h2.943zm43.54.775H27.917a.388.388 0 0 1-.312-.616L33.5 95.33a.394.394 0 0 1 .327-.18H72.96v.002a.38.38 0 0 1 .31.157l5.896 8.033a.37.37 0 0 1 .094.25.39.39 0 0 1-.39.388h-3.708z"/><path fill="#A6A8AB" d="M31.617 103.208h10.03c.215 0 .388.175.388.388V136.4a.388.388 0 0 1-.613.315l-4.965-2.866v-.004l-5.035-2.905a.384.384 0 0 1-.193-.333h-.004v-27.013a.39.39 0 0 1 .39-.39zm9.643.775h-9.256v26.4l4.84 2.795h-.002l4.417 2.55v-31.745z"/><path fill="#A6A8AB" d="M41.647 103.208H65.14a.39.39 0 0 1 .388.388v33.48a.39.39 0 0 1-.23.355l-3.81 2.2-.007.006h.005c-2.8 1.56-5.03 2.422-7.247 2.514-2.226.093-4.4-.59-7.074-2.12a.22.22 0 0 1-.03-.017l-5.676-3.278a.387.387 0 0 1-.193-.335h-.003v-32.804a.39.39 0 0 1 .388-.388zm23.105.775H42.035v32.193l5.484 3.166c.005.004.015.008.023.015 2.543 1.456 4.593 2.106 6.662 2.02 2.076-.09 4.205-.92 6.9-2.417l3.645-2.104v-32.873z"/><path fill="#A6A8AB" d="M56.188 122.305h-5.586a.39.39 0 0 1-.388-.39V111.25c0-.9.305-1.743.83-2.455.535-.724 1.3-1.31 2.203-1.684a.393.393 0 0 1 .294 0c.906.376 1.67.96 2.205 1.687a4.11 4.11 0 0 1 .83 2.455v10.667c0 .214-.173.39-.385.39zm-5.2-.775h4.81v-10.28c0-.73-.247-1.415-.677-1.995a4.345 4.345 0 0 0-1.725-1.365 4.39 4.39 0 0 0-1.73 1.365 3.352 3.352 0 0 0-.675 1.995v10.28zm-.775 19.676v-12.473c0-.9.305-1.742.83-2.455.535-.723 1.3-1.31 2.203-1.685a.39.39 0 0 1 .294 0c.903.374 1.667.962 2.202 1.685a4.11 4.11 0 0 1 .83 2.455v12.743a.387.387 0 0 1-.328.382c-.97.234-1.908.332-2.853.287a10.496 10.496 0 0 1-2.91-.574.386.386 0 0 1-.265-.362zm.776-12.473v12.19a9.5 9.5 0 0 0 2.44.45 9.154 9.154 0 0 0 2.365-.206v-12.435a3.33 3.33 0 0 0-.676-1.994 4.34 4.34 0 0 0-1.728-1.366 4.38 4.38 0 0 0-1.728 1.366 3.346 3.346 0 0 0-.676 1.995zm2.255-69.253l-7.23 24.106a.387.387 0 0 1-.736.018L37.57 63.89l-4.447 19.434a.385.385 0 0 1-.463.29.375.375 0 0 1-.248-.183l-2.996-5.16V92.77H77.37V78.27l-2.995 5.162a.39.39 0 0 1-.53.142.387.387 0 0 1-.18-.25l-4.45-19.434-7.71 19.726a.388.388 0 0 1-.73-.03l-7.23-24.09a2.23 2.23 0 0 0 .765-.15l6.882 22.943 7.762-19.85a.386.386 0 0 1 .736.052l4.508 19.7 3.213-5.534a.388.388 0 0 1 .737.17v16.324a.387.387 0 0 1-.386.388H29.03a.39.39 0 0 1-.39-.388V76.83h.002a.39.39 0 0 1 .193-.335.39.39 0 0 1 .53.14l3.223 5.56 4.51-19.695a.385.385 0 0 1 .737-.06l7.762 19.85 6.91-23.03c.227.114.477.19.74.22z"/><path fill="#A6A8AB" d="M69.312 57.425c.725 0 1.38.293 1.854.767l.02.022a2.61 2.61 0 0 1 .748 1.83 2.61 2.61 0 0 1-.768 1.854l-.023.02a2.6 2.6 0 0 1-1.83.748c-.723 0-1.38-.293-1.852-.768a2.608 2.608 0 0 1-.77-1.853c0-.723.296-1.378.77-1.853l.026-.02a2.6 2.6 0 0 1 1.828-.747zm1.305 1.315a1.84 1.84 0 0 0-1.305-.54c-.502 0-.955.2-1.287.522l-.018.02c-.334.333-.54.794-.54 1.304s.206.97.54 1.305.795.544 1.305.544c.502 0 .957-.2 1.287-.522l.015-.02a1.848 1.848 0 0 0 .02-2.592l-.02-.017z"/><path fill="#A6A8AB" d="M69.7 57.812a.388.388 0 0 1-.775 0V50.03a.388.388 0 0 1 .777 0v7.782z"/><path fill="#A6A8AB" d="M68.926 50.417H65.25v2.322h3.676v-2.325zm-4.063-.776h4.45a.39.39 0 0 1 .388.39v3.1a.388.388 0 0 1-.386.387h-4.45a.387.387 0 0 1-.386-.388v-3.1a.39.39 0 0 1 .387-.39zm-27.39 7.785c.724 0 1.38.293 1.854.767l.02.022a2.615 2.615 0 0 1-.02 3.683h-.002v.002a2.617 2.617 0 0 1-3.704-.004l-.02-.022a2.614 2.614 0 0 1 .023-3.683h.002a2.61 2.61 0 0 1 1.852-.767zm1.306 1.315a1.847 1.847 0 0 0-2.613 0h-.002a1.85 1.85 0 0 0-.02 2.594l.02.018c.333.334.794.54 1.305.54.51 0 .974-.206 1.306-.54a1.85 1.85 0 0 0 .018-2.593l-.017-.02z"/><path fill="#A6A8AB" d="M37.86 57.812a.388.388 0 0 1-.774 0V50.03a.39.39 0 0 1 .388-.39.39.39 0 0 1 .387.39v7.782z"/><path fill="#A6A8AB" d="M37.086 50.417h-3.674v2.322h3.674v-2.325zm-4.06-.776h4.448a.39.39 0 0 1 .387.39v3.1c0 .213-.17.387-.384.387h-4.45a.388.388 0 0 1-.387-.388v-3.1a.39.39 0 0 1 .387-.39zm45.01 23.092c.62 0 1.18.25 1.585.658.01.007.02.015.026.022a2.237 2.237 0 0 1-.047 3.168 2.23 2.23 0 0 1-1.563.637c-.617 0-1.18-.25-1.584-.657a2.235 2.235 0 0 1 0-3.17h.002a2.22 2.22 0 0 1 1.58-.658zm1.04 1.206a1.468 1.468 0 1 0-.02 2.093l.02-.014a1.463 1.463 0 0 0 .016-2.058l-.018-.018zM28.75 72.732c.62 0 1.18.25 1.585.658.407.406.658.968.658 1.586s-.25 1.178-.657 1.584a2.235 2.235 0 0 1-1.586.658c-.617 0-1.178-.25-1.585-.657a2.224 2.224 0 0 1-.657-1.582c0-.618.25-1.18.657-1.586a2.232 2.232 0 0 1 1.585-.657zm1.04 1.205zm-.76 15.843a.39.39 0 0 1 0-.777h48.728a.39.39 0 0 1 0 .778h-48.73zM53.78 9.952a3.51 3.51 0 0 1 2.105 1.01c.64.64 1.035 1.52 1.035 2.494 0 .973-.396 1.855-1.035 2.493a3.52 3.52 0 0 1-2.104 1.01v8.166a.387.387 0 0 1-.772 0V16.96a3.523 3.523 0 0 1-3.137-3.504c0-.973.395-1.855 1.033-2.493a3.506 3.506 0 0 1 2.105-1.01V5.126h-5.864a.388.388 0 0 1-.388-.388V.388c0-.216.173-.39.387-.39h6.3l.01.003h.01l.01.005.008.005h.01l.01.003.01.002.01.003.01.002.007.003.01.003.008.004.008.004.01.004.008.004.01.004.007.004.008.004.008.005.008.004.01.005.007.005.007.005.007.008.008.006.007.006.005.005.006.007.006.006.006.007.005.007.006.007.005.004.006.007.006.008.005.007.007.008.003.008.005.01.005.01.005.006.004.008.003.008.002.008.005.01.004.01.003.01.002.007V.3l.003.01.002.01.002.008.002.01V9.95zm-.774-5.6V.775H47.53v3.577h5.476zm2.332 7.16c-.497-.5-1.185-.807-1.944-.807s-1.447.308-1.944.806a2.746 2.746 0 0 0 0 3.89 2.745 2.745 0 0 0 3.888 0 2.75 2.75 0 0 0 0-3.89z"/><path fill-rule="evenodd" clip-rule="evenodd" fill="#E7E7E7" d="M65.14 103.596h10.03v27.69l-3.156 1.82-6.877 3.97v-33.48"/><path fill="#A6A8AB" d="M65.14 103.208h10.03a.39.39 0 0 1 .387.388v27.69c0 .156-.095.29-.228.353l-3.125 1.8-6.876 3.97a.388.388 0 0 1-.583-.334v-33.48a.39.39 0 0 1 .387-.39zm9.643.775h-9.256v32.424l6.295-3.635h.002l2.96-1.708v-27.08zm-21.28-49.34c.725 0 1.38.292 1.855.767l.02.023a2.62 2.62 0 0 1-.02 3.684l-.024.02a2.604 2.604 0 0 1-1.83.748 2.608 2.608 0 0 1-1.852-.768 2.616 2.616 0 0 1-.768-1.853c0-.724.294-1.38.768-1.854l.022-.02a2.61 2.61 0 0 1 1.83-.748zm1.306 1.315a1.847 1.847 0 0 0-2.595-.02l-.018.02c-.335.334-.54.796-.54 1.306s.205.97.54 1.304a1.855 1.855 0 0 0 2.594.02l.017-.02a1.846 1.846 0 0 0 .02-2.592l-.02-.018z"/></svg>