<!DOCTYPE svg PUBLIC "-//W3C//DTD SVG 1.1//EN" "http://www.w3.org/Graphics/SVG/1.1/DTD/svg11.dtd" [
	<!ENTITY ns_flows "http://ns.adobe.com/Flows/1.0/">
]><svg xmlns="http://www.w3.org/2000/svg" width="110" height="144" viewBox="-1 -15.69 110 144" overflow="visible"><path fill-rule="evenodd" clip-rule="evenodd" fill="#E7E7E7" d="M75.123 72.147c5.893 0 10.715 4.82 10.715 10.715v26.11l-21.404 12.334c-.016-.234-.025-.47-.025-.708V82.862c-.004-5.894 4.82-10.715 10.71-10.715z"/><path fill="#A6A8AB" d="M70.482 18.86c-.738-.43-.99-1.375-.562-2.113s1.373-.99 2.11-.562l8.88 5.125c.027.016.053.032.078.05l8.09 4.67 10.713 6.185.026.015v-.002c2.904 1.738 4.887 3.347 6.182 5.387 1.316 2.074 1.865 4.49 1.877 7.806h.006v44.41c0 .057-.002.11-.01.16-.06 3.31-.467 5.79-1.572 7.91-1.143 2.185-2.957 3.87-5.814 5.53l-10.697 6.175a.884.884 0 0 1-.086.046l-8.796 5.08-8.174 4.72-10.715 6.185-.02.012h.002c-2.953 1.645-5.336 2.556-7.76 2.657-2.46.104-4.824-.625-7.69-2.267l-.074-.045-10.628-6.135-.08-.05-8.79-5.075-.005-.003-8.174-4.72-.08-.05-10.626-6.136-.024-.014c-2.905-1.737-4.887-3.347-6.182-5.386C.568 96.35.02 93.934.008 90.62H0V46.207c0-.054.003-.107.01-.16.06-3.31.466-5.79 1.573-7.906 1.143-2.184 2.957-3.87 5.814-5.53l10.696-6.175c.027-.017.056-.03.085-.046l8.796-5.08 8.175-4.72a1.54 1.54 0 1 1 1.533 2.673l-8.174 4.72-8.79 5.076-.08.05-10.692 6.174c-2.334 1.358-3.78 2.665-4.628 4.285-.855 1.632-1.17 3.696-1.225 6.53.002.035.004.07.004.106v44.41h-.01c.01 2.69.42 4.597 1.404 6.148 1.006 1.586 2.67 2.908 5.156 4.396l10.607 6.125.087.046 8.174 4.72-.002.005 8.792 5.076c.03.017.058.03.087.048l10.624 6.134c.02.014.043.025.063.038 2.346 1.343 4.206 1.943 6.034 1.866 1.867-.078 3.84-.857 6.376-2.27l.002.002 10.693-6.174 8.174-4.72 8.79-5.074.08-.05 10.696-6.175c2.337-1.358 3.784-2.665 4.63-4.284.854-1.634 1.17-3.7 1.223-6.533V45.418h.007c-.01-2.69-.42-4.596-1.404-6.146-1.006-1.582-2.67-2.904-5.154-4.392l-10.69-6.173-8.095-4.673a1.433 1.433 0 0 1-.086-.046l-8.88-5.124z"/><path fill="#A6A8AB" d="M53.102 23.023c-3.54.13-6.8 1.435-9.393 3.532a16.008 16.008 0 0 0-5.588 9.026c-.09.345-.188.748-.27 1.08-.19.775-.24.98-.777 1.98l-.026.043a8.27 8.27 0 0 0-.86 2.063 8.69 8.69 0 0 0-.29 2.216v17.72a2.324 2.324 0 0 0-1.883 2.28v2.12a17.2 17.2 0 0 0-1.706-.09c-2.723 0-5.314.633-7.63 1.757a17.753 17.753 0 0 0-6.15 4.927c-3.883 4.888-3.836 8.333-3.766 13.45.004.334.01.667.01 2.05v18.953h.004c0 .8.413 1.577 1.155 2.006l2.472 1.428 8.174 4.72.002-.004.007.004 8.747 5.05c.04.027.08.053.12.076l10.592 6.116c.037.022.073.046.112.068 2.995 1.716 5.485 2.477 8.105 2.366 2.562-.107 5.047-1.052 8.104-2.753v-.003l.03-.016 18.885-10.905 8.877-5.124 1.432-.827a2.33 2.33 0 0 0 1.357-2.116V87.91c0-4.155-.01.675-.005-.956.012-5.126.02-8.98-2.996-13.74a17.79 17.79 0 0 0-6.41-6.035 17.44 17.44 0 0 0-8.47-2.19c-.555 0-1.123.03-1.705.09v-2.12a2.32 2.32 0 0 0-1.88-2.28V42.96c0-.755-.103-1.498-.292-2.21a8.094 8.094 0 0 0-.783-1.926c-.02-.037-.037-.075-.06-.112-.46-.787-.653-1.312-.802-1.875-.162-.61-.268-1.234-.426-1.848a16 16 0 0 0-5.462-8.45 15.83 15.83 0 0 0-10.556-3.52zm.59 2.312c7.372 0 13.425 5.94 13.604 13.272 1.125.968 1.865 2.56 1.865 4.352v20h1.884v4.896a15.12 15.12 0 0 1 4.03-.544c5.423 0 10.208 2.86 12.92 7.15 2.626 4.146 2.638 7.59 2.638 12.395v19.353l-1.62.936-8.875 5.125-8.176 4.72-10.71 6.188c-5.49 3.054-8.72 3.38-13.932.395L36.62 117.4l-8.876-5.126-8.174-4.72-2.472-1.427V87.09c0-5.562-.582-8.65 2.78-13.35 2.776-3.883 7.322-6.426 12.434-6.426 1.373 0 2.727.185 4.03.544v-4.9h1.88v-20c0-1.79.74-3.383 1.866-4.35.182-7.33 6.232-13.273 13.604-13.273zm6.673 36.833v-2.4H47.02v2.4a15.18 15.18 0 0 1 6.672-1.547 15.2 15.2 0 0 1 6.673 1.55zm-6.47-39.978a.388.388 0 0 1-.775 0v-5.43a3.142 3.142 0 0 1-1.838-.898 3.135 3.135 0 0 1-.925-2.228c0-.868.353-1.655.924-2.226a3.15 3.15 0 0 1 1.84-.9V6.092h-3.586a.388.388 0 0 1 0-.775h3.588V.387a.387.387 0 0 1 .776 0v4.93h3.588a.388.388 0 0 1 0 .775h-3.588v4.415a3.147 3.147 0 0 1 1.84.898l.022.023c.558.568.9 1.347.9 2.204a3.15 3.15 0 0 1-.92 2.228l-.025.02a3.125 3.125 0 0 1-1.816.878v5.433zm1.292-10.237a2.366 2.366 0 0 0-1.68-.695 2.373 2.373 0 0 0-1.68 4.056c.43.43 1.024.695 1.68.695a2.37 2.37 0 0 0 1.663-.678l.018-.02c.43-.43.696-1.023.696-1.68 0-.646-.258-1.233-.676-1.66l-.02-.02z"/><path fill-rule="evenodd" clip-rule="evenodd" fill="#A6A8AB" d="M53.507 22.064a2.33 2.33 0 0 1 2.33 2.33v.104a13.24 13.24 0 0 0-4.65-.327 2.33 2.33 0 0 1 2.32-2.104z"/><path fill="#A6A8AB" d="M53.507 20.548c.785 0 1.496.318 2.012.834v.002a2.837 2.837 0 0 1 .823 2.252 14 14 0 0 0-1.022-.256 1.825 1.825 0 0 0-.53-1.27 1.82 1.82 0 0 0-2.567.002c-.27.268-.454.62-.513 1.014-.352.023-.702.06-1.047.11a2.84 2.84 0 0 1 .83-1.854 2.835 2.835 0 0 1 2.013-.834z"/><path fill-rule="evenodd" clip-rule="evenodd" fill="#E7E7E7" d="M56.395 25.607c6.2 1.263 10.906 6.777 10.906 13.338v20.823H60.52V40.993h-.352c.238-1.197.363-2.44.363-3.72 0-4.528-1.573-8.638-4.133-11.666z"/><path fill="#A6A8AB" d="M53.536 35.03a7.27 7.27 0 0 1 5.096 2.073c1.31 1.28 2.12 3.045 2.12 4.987v20.273a17.37 17.37 0 0 0-.79-.38V42.09c0-1.73-.724-3.3-1.89-4.44-1.163-1.14-2.77-1.846-4.536-1.846S50.163 36.51 49 37.65s-1.888 2.712-1.888 4.44v19.895c-.268.12-.532.246-.792.38V42.09c0-1.942.812-3.707 2.12-4.987a7.27 7.27 0 0 1 5.096-2.073z"/><path fill-rule="evenodd" clip-rule="evenodd" fill="#E7E7E7" d="M64.764 37.628c-2.42 0-4.398 2.4-4.398 5.33v18.374l7.484 7.073 3.064-1.642v-3.908l-1.752-.09V42.958c0-2.933-1.98-5.332-4.398-5.332z"/><path fill="#A6A8AB" d="M64.764 38.016c-1.09 0-2.084.545-2.81 1.424-.74.898-1.202 2.145-1.202 3.52v19.404c-.254-.133-.512-.26-.773-.38V42.96c0-1.558.524-2.98 1.38-4.01.87-1.056 2.072-1.71 3.402-1.71s2.535.654 3.404 1.71c.852 1.03 1.38 2.45 1.38 4.01v20h-.774v-20c0-1.376-.46-2.622-1.2-3.52-.728-.88-1.722-1.424-2.81-1.424zm-22.362 0c-1.04 0-1.988.545-2.68 1.424-.708.898-1.147 2.145-1.147 3.52v20h-.74v-20c0-1.557.505-2.978 1.318-4.01.83-1.055 1.98-1.71 3.25-1.71s2.418.655 3.248 1.71c.816 1.032 1.32 2.452 1.32 4.01v19.025c-.25.12-.495.246-.74.38V42.96c0-1.376-.44-2.622-1.145-3.52-.692-.88-1.64-1.424-2.68-1.424zm11.29 4.946c.73 0 1.397.3 1.88.78v.002c.483.48.782 1.147.782 1.88v11.663a.388.388 0 0 1-.388.388h-4.548a.388.388 0 0 1-.387-.388V45.625c0-.732.3-1.398.784-1.88a2.657 2.657 0 0 1 1.88-.783zm1.333 1.33a1.882 1.882 0 0 0-2.666 0 1.878 1.878 0 0 0-.556 1.333V56.9h3.774V45.625c0-.52-.213-.992-.555-1.334z"/><path fill="#A6A8AB" d="M42.583 43.654c.477 0 .907.24 1.212.627.286.364.463.857.463 1.39v11.58a.388.388 0 0 1-.387.388h-2.574a.39.39 0 0 1-.388-.388V45.67c0-.535.178-1.028.463-1.39.307-.385.735-.625 1.214-.625zm.606 1.104c-.164-.203-.38-.33-.61-.33-.23 0-.446.127-.608.33-.18.23-.293.552-.293.91v11.19h1.803V45.67c0-.358-.113-.68-.295-.91zm21.56-1.104c.48 0 .904.24 1.21.627.286.36.464.857.464 1.39v11.58a.39.39 0 0 1-.39.388H63.46a.387.387 0 0 1-.386-.388V45.67c0-.536.176-1.028.463-1.39.305-.385.734-.625 1.213-.625zm.605 1.104c-.162-.203-.377-.33-.607-.33s-.448.127-.608.33a1.47 1.47 0 0 0-.293.91v11.19h1.8V45.67c0-.358-.11-.68-.294-.91zM36.342 62.572h9.907c-.428.238-.84.497-1.24.775h-8.28v4.623a16.156 16.156 0 0 0-.777-.213V62.96c0-.214.173-.388.387-.388zm24.793 0h9.908c.213 0 .387.174.387.388v4.798c-.26.064-.518.135-.775.213v-4.62h-8.28c-.4-.277-.814-.537-1.24-.775z"/><path fill="#A6A8AB" d="M87.668 74.67a15.046 15.046 0 0 0-5.428-5.118 14.764 14.764 0 0 0-7.168-1.85c-1.305 0-2.59.17-3.826.5-1.246.335-2.445.83-3.568 1.477a.39.39 0 0 1-.527-.146l-.01-.025a15 15 0 0 0-5.513-6.198 14.823 14.823 0 0 0-7.933-2.304c-2.874 0-5.61.832-7.934 2.302a14.99 14.99 0 0 0-5.513 6.198.387.387 0 0 1-.514.183l-.037-.02a14.82 14.82 0 0 0-3.558-1.47c-1.237-.33-2.522-.5-3.826-.5a14.78 14.78 0 0 0-6.794 1.648 15.07 15.07 0 0 0-5.325 4.613c-2.834 3.963-2.792 6.77-2.728 10.995.01.724.022 1.483.022 2.133v18.814l2.28 1.315 8.173 4.72.02.012 8.855 5.11h.002l10.694 6.174c2.544 1.456 4.59 2.104 6.656 2.018 2.077-.088 4.206-.917 6.895-2.415l.01-.003 10.7-6.178 8.174-4.72 8.877-5.127 1.425-.82V86.86c0-2.388 0-4.438-.325-6.38-.324-1.933-.967-3.785-2.248-5.81zm-5.055-5.795a15.87 15.87 0 0 1 5.71 5.385c1.343 2.122 2.017 4.064 2.354 6.093.338 2.016.34 4.09.34 6.508v19.357h-.002c0 .134-.07.264-.193.335l-1.62.936-8.876 5.125-8.174 4.72-10.7 6.178-.017.01c-2.797 1.56-5.027 2.42-7.242 2.514-2.224.094-4.398-.587-7.07-2.117l-10.697-6.176-8.854-5.112-.022-.012-8.174-4.72-2.448-1.412a.387.387 0 0 1-.218-.35V87.092c0-.853-.01-1.504-.02-2.123-.064-4.376-.108-7.285 2.873-11.45 1.45-2.03 3.373-3.7 5.6-4.855a15.534 15.534 0 0 1 7.15-1.737 15.532 15.532 0 0 1 7.42 1.882 15.765 15.765 0 0 1 5.613-6.15 15.603 15.603 0 0 1 8.345-2.425c3.024 0 5.9.878 8.348 2.425a15.774 15.774 0 0 1 5.615 6.15 15.562 15.562 0 0 1 14.964.066zm-21.547 53.962a.387.387 0 0 1 .518.153l-.518-.153z"/><path fill="#A6A8AB" d="M89.89 72.972c.38.6.198 1.396-.4 1.775a1.29 1.29 0 0 1-1.776-.403c-1.225-1.934-3.113-3.558-5.322-4.707-2.244-1.17-4.803-1.838-7.318-1.838a13.897 13.897 0 0 0-6.946 1.85 1.286 1.286 0 0 1-1.756-.474c-.016-.028-.03-.057-.045-.086a14.073 14.073 0 0 0-5.182-5.822 13.92 13.92 0 0 0-14.905 0 14.052 14.052 0 0 0-5.18 5.82 1.286 1.286 0 0 1-1.823.548 13.914 13.914 0 0 0-6.924-1.842c-2.378 0-4.813.596-6.975 1.644-2.12 1.03-3.967 2.487-5.218 4.237a1.288 1.288 0 0 1-2.098-1.494c1.51-2.11 3.7-3.85 6.197-5.06 2.502-1.217 5.33-1.906 8.09-1.906 1.447 0 2.877.19 4.26.56.955.255 1.888.6 2.79 1.027a16.675 16.675 0 0 1 5.506-5.714 16.503 16.503 0 0 1 8.825-2.566c3.195 0 6.238.93 8.826 2.565a16.687 16.687 0 0 1 5.506 5.715 16.466 16.466 0 0 1 7.05-1.587c2.93 0 5.905.774 8.507 2.13 2.593 1.35 4.833 3.288 6.31 5.624z"/><path fill="#A6A8AB" d="M53.567 64.814c3.125 0 5.97 1.246 8.03 3.254 2.06 2.008 3.34 4.777 3.34 7.823v45.48a.392.392 0 0 1-.226.35l-3.19 1.796-.022.012c-2.86 1.55-5.145 2.41-7.414 2.503-2.282.093-4.514-.59-7.255-2.12a.1.1 0 0 1-.03-.016l-4.4-2.474a.386.386 0 0 1-.197-.337H42.2V75.89c0-3.045 1.278-5.815 3.338-7.822a11.482 11.482 0 0 1 8.03-3.254zm0 .774c-2.907 0-5.55 1.16-7.467 3.026-1.916 1.867-3.105 4.444-3.105 7.276v44.97l4.2 2.364.027.014c2.608 1.456 4.71 2.104 6.83 2.018 2.126-.087 4.305-.913 7.06-2.406l.01-.006 3.02-1.698V75.89c0-2.83-1.19-5.408-3.105-7.275s-4.562-3.027-7.47-3.027z"/><path fill="#A6A8AB" d="M75.135 71.507c3.027 0 5.783 1.246 7.778 3.254a11.073 11.073 0 0 1 3.237 7.826v26.44c0 .153-.09.285-.218.35l-5.57 3.234-.022.01-8.108 4.71-7.535 4.373a.38.38 0 0 1-.522-.142.39.39 0 0 1-.053-.19h-.002V82.584c0-3.047 1.24-5.815 3.235-7.823 1.997-2.006 4.75-3.252 7.78-3.252zm0 .775c-2.816 0-5.378 1.16-7.234 3.027a10.29 10.29 0 0 0-3.01 7.272V120.7l6.96-4.04 8.107-4.706.02-.014 5.403-3.138V82.584c0-2.833-1.15-5.408-3.01-7.275a10.173 10.173 0 0 0-7.234-3.03zm-43.03-.775c2.99 0 5.706 1.246 7.675 3.254a11.154 11.154 0 0 1 3.193 7.826v38.5c0 .213-.17.387-.38.387a.372.372 0 0 1-.212-.065l-6.236-3.67-.02-.015-8.688-5.11v-.002l-6.008-3.532a.393.393 0 0 1-.19-.335v-26.16c0-3.046 1.223-5.814 3.193-7.822s4.686-3.25 7.675-3.25zm7.14 3.802c-1.834-1.87-4.36-3.03-7.14-3.03-2.78 0-5.308 1.16-7.14 3.027a10.356 10.356 0 0 0-2.97 7.274v25.934l5.817 3.423 8.69 5.113.02.013 5.692 3.35v-37.83c0-2.834-1.138-5.41-2.97-7.276zm14.448 29.216c1.938 0 3.697.793 4.975 2.07a7.02 7.02 0 0 1 2.07 4.975v12.754a.39.39 0 0 1-.22.35l-.15.087-.024.01c-2.396 1.336-4.314 2.074-6.22 2.154-1.918.08-3.792-.506-6.092-1.823l-.018-.01-1.172-.677a.387.387 0 0 1-.193-.335h-.004V111.57c0-1.937.793-3.698 2.07-4.975a7.02 7.02 0 0 1 4.975-2.07zm4.426 2.616a6.255 6.255 0 0 0-4.43-1.842c-1.724 0-3.29.705-4.43 1.842s-1.84 2.704-1.84 4.43v12.283l.98.565.014.007c2.17 1.243 3.918 1.798 5.68 1.724 1.764-.07 3.576-.775 5.867-2.05v-12.53c0-1.72-.706-3.29-1.843-4.426z"/><path fill="#A6A8AB" d="M75.072 79.825a3.97 3.97 0 0 1 2.814 1.172l.02.02a3.974 3.974 0 0 1 1.15 2.795v4a.387.387 0 0 1-.386.388h-7.2a.387.387 0 0 1-.386-.387v-4a3.98 3.98 0 0 1 1.17-2.815h.002a3.974 3.974 0 0 1 2.816-1.173zm2.268 1.718a3.202 3.202 0 0 0-4.538 0 3.208 3.208 0 0 0-.94 2.27v3.612h6.42v-3.613c0-.875-.353-1.67-.923-2.25l-.02-.02zm-45.028-1.718c1.095 0 2.09.45 2.814 1.172V81a3.962 3.962 0 0 1 1.17 2.812v4a.386.386 0 0 1-.386.388h-7.198a.387.387 0 0 1-.387-.387v-4a3.97 3.97 0 0 1 1.17-2.815 3.984 3.984 0 0 1 2.817-1.173zm2.27 1.717a3.202 3.202 0 0 0-4.54 0 3.21 3.21 0 0 0-.942 2.27v3.613h6.423v-3.613c0-.884-.36-1.687-.942-2.27zm19.11-8.41c1.097 0 2.093.448 2.815 1.17l.02.023a3.97 3.97 0 0 1 1.15 2.793v10.694a.387.387 0 0 1-.388.387h-7.2a.388.388 0 0 1-.388-.39V77.12c0-1.098.45-2.095 1.172-2.817a3.982 3.982 0 0 1 2.817-1.172zm2.27 1.718a3.2 3.2 0 0 0-4.538 0 3.205 3.205 0 0 0-.944 2.27v10.306h6.423V77.12c0-.875-.354-1.67-.926-2.252l-.016-.018zm19.11 16.502a3.98 3.98 0 0 1 2.814 1.17v.002a3.974 3.974 0 0 1 1.172 2.813v18.59a.388.388 0 0 1-.223.35l-7.168 4.22a.384.384 0 0 1-.58-.332h-.002V95.337c0-1.095.45-2.09 1.17-2.813h.002v-.002a3.977 3.977 0 0 1 2.815-1.17zm2.268 1.717a3.202 3.202 0 0 0-4.536-.003h-.002a3.194 3.194 0 0 0-.94 2.268v22.15l6.42-3.78v-18.37a3.21 3.21 0 0 0-.942-2.27zm-45.028-1.72c1.097 0 2.092.45 2.815 1.17l.02.022c.71.722 1.15 1.71 1.15 2.792v22.104a.386.386 0 0 1-.593.327l-7.176-3.96a.388.388 0 0 1-.2-.34v-18.13c0-1.096.447-2.092 1.17-2.814h.003a3.972 3.972 0 0 1 2.814-1.17zm2.268 1.717a3.202 3.202 0 0 0-4.536 0 3.196 3.196 0 0 0-.943 2.267v17.904l6.426 3.543V95.33c0-.872-.354-1.67-.926-2.247l-.02-.018zm19.113-1.718c1.095 0 2.092.45 2.814 1.17a3.975 3.975 0 0 1 1.172 2.814v5.177a.39.39 0 0 1-.39.388h-7.2a.387.387 0 0 1-.387-.387v-5.176a3.98 3.98 0 0 1 1.17-2.815 3.982 3.982 0 0 1 2.818-1.17zm2.268 1.716a3.204 3.204 0 0 0-4.536 0 3.2 3.2 0 0 0-.942 2.268v4.79h6.424v-4.79a3.21 3.21 0 0 0-.942-2.27z"/></svg>