<svg xmlns="http://www.w3.org/2000/svg" width="112" height="112" viewBox="-11.736 -11.809 112 112" overflow="visible"><path fill-rule="evenodd" clip-rule="evenodd" fill="#89C400" d="M37.88 83.83c-4.818 4.82-16.065 1.385-25.123-7.67-9.055-9.056-12.49-20.305-7.67-25.124l8.736-8.736 3.188-3.187L46.26 9.867c.95-.95 2.15-1.58 3.535-1.907l.003-.002.025-.004c.295-.07.598-.124.906-.166l21.876-3.025 13.4-1.853-4.93 35.633-.04.22-.015.075v.002c-.307 1.506-.955 2.806-1.97 3.82L49.804 71.906l-3.187 3.188-8.737 8.736zm8.275-73.86l-.052.055-.003.004.055-.06zm0 0l.005-.005-.002.004h-.003zm.005-.006l.004-.002-.004.002zm.004-.002l.007-.006v.002l-.004.004zm.007-.006l.008-.006-.003.003-.002.003zm.008-.006l-.003.003-.002.003-.002.002-.003.003.012-.01zm-.016.014v.003l-.004.003.005-.006zm-.06.064v.002l.002-.002zm0 .003l-.003.006v-.003zm-.003.006l-.004.003.003-.004zm-.004.003l-.003.002.004-.002zm-.003.002l-.002.004.004-.003zm-.002.004v.003-.004zm0 .003l-.005.002.005-.004zm-.005.002zm0 0zm-.002.002l-.003.003.003-.003zm-.003.003l-.003.003.003-.003z"/><path fill-rule="evenodd" clip-rule="evenodd" fill="#89C400" d="M39.94 85.892c-3.227 3.23-8.295 3.788-13.876 2.085-4.99-1.525-10.51-4.896-15.368-9.756-4.86-4.86-8.23-10.374-9.756-15.366-1.703-5.58-1.143-10.647 2.085-13.876l8.736-8.735 3.19-3.188 29.246-29.25a9.672 9.672 0 0 1 2.268-1.676A10.87 10.87 0 0 1 49.12 5.12a3.51 3.51 0 0 1 .16-.033h.016l.014-.005c.11-.022.255-.05.433-.083.207-.038.403-.07.586-.095v-.002L72.204 1.88h.007L85.61.03a2.907 2.907 0 0 1 3.272 3.332l-4.925 35.58a1.58 1.58 0 0 1-.017.103h.005l-.02.11a2.5 2.5 0 0 1-.05.228l-.002.02-.03.13c-.21.984-.53 1.907-.97 2.757a9.674 9.674 0 0 1-1.762 2.432L51.868 73.97l-3.188 3.186-8.737 8.737z"/><path fill-rule="evenodd" clip-rule="evenodd" fill="#F1F9D1" d="M37.88 83.83c-4.818 4.82-16.065 1.385-25.123-7.67-9.055-9.056-12.49-20.305-7.67-25.124l8.736-8.736 32.794 32.794-8.737 8.736z"/><path fill-rule="evenodd" clip-rule="evenodd" fill="#89C400" d="M38.23 84.18c-2.548 2.55-6.744 2.932-11.467 1.49-4.62-1.41-9.772-4.575-14.356-9.16-4.584-4.584-7.75-9.735-9.16-14.356-1.44-4.723-1.06-8.92 1.49-11.468l8.735-8.735a.497.497 0 0 1 .7 0l32.794 32.797a.496.496 0 0 1 0 .7L38.23 84.18zm-11.18.546c4.37 1.334 8.21 1.023 10.48-1.245l8.385-8.384-32.092-32.092-8.386 8.385c-2.27 2.27-2.58 6.11-1.246 10.48 1.368 4.47 4.447 9.47 8.92 13.94s9.473 7.55 13.943 8.917z"/><path fill-rule="evenodd" clip-rule="evenodd" fill="#FFF" d="M60.46 40.34a41.4 41.4 0 0 1-6.532-5.352 41.668 41.668 0 0 1-5.352-6.532c-2.313-3.522-3.79-7.07-4.3-10.222-.56-3.455.044-6.43 1.98-8.368L13.824 42.3c-1.938 1.938-2.54 4.915-1.98 8.37.51 3.15 1.985 6.698 4.3 10.22 1.46 2.225 3.256 4.438 5.35 6.534 2.098 2.096 4.31 3.89 6.533 5.35 3.523 2.315 7.073 3.792 10.224 4.302 3.456.56 6.43-.045 8.37-1.98L79.05 42.66c-1.937 1.938-4.914 2.54-8.368 1.98-3.152-.508-6.7-1.985-10.224-4.3z"/><path fill-rule="evenodd" clip-rule="evenodd" fill="#89C400" d="M60.19 40.753a40.688 40.688 0 0 1-3.4-2.5 43.968 43.968 0 0 1-3.212-2.913 43.56 43.56 0 0 1-2.913-3.214 40.058 40.058 0 0 1-2.5-3.398c-1.17-1.78-2.128-3.565-2.86-5.304-.742-1.768-1.254-3.49-1.517-5.112-.294-1.822-.275-3.52.08-5.02.035-.153.075-.305.118-.454L14.173 42.65c-.884.886-1.47 2.007-1.777 3.302-.325 1.376-.34 2.945-.064 4.64.25 1.544.737 3.19 1.45 4.883.71 1.686 1.64 3.42 2.773 5.146a38.938 38.938 0 0 0 2.442 3.315 42.916 42.916 0 0 0 5.986 5.99 39.665 39.665 0 0 0 3.314 2.44 31.992 31.992 0 0 0 5.146 2.772c1.692.713 3.338 1.202 4.882 1.452 1.694.273 3.264.26 4.64-.066 1.295-.308 2.416-.895 3.302-1.777l29.81-29.815a5.29 5.29 0 0 1-.453.12c-1.498.356-3.196.375-5.02.08-1.622-.263-3.344-.774-5.11-1.52-1.74-.73-3.526-1.69-5.304-2.856zm-2.772-3.267c1.102.9 2.21 1.718 3.313 2.442a32.187 32.187 0 0 0 5.15 2.772c1.693.713 3.338 1.202 4.883 1.45 1.694.275 3.265.26 4.64-.064 1.296-.307 2.417-.894 3.3-1.777l.703.7L46.97 75.44c-1.02 1.018-2.3 1.69-3.776 2.04-1.497.354-3.194.373-5.02.08-1.62-.264-3.343-.775-5.11-1.52-1.74-.73-3.524-1.69-5.304-2.857a40.484 40.484 0 0 1-3.397-2.5 44.26 44.26 0 0 1-6.128-6.128 40.302 40.302 0 0 1-2.5-3.4c-1.168-1.777-2.127-3.563-2.858-5.303-.743-1.768-1.255-3.49-1.517-5.11-.295-1.823-.277-3.522.078-5.02.35-1.476 1.022-2.76 2.04-3.777l32.43-32.43.7.7c-.885.884-1.47 2.006-1.778 3.3-.325 1.376-.34 2.947-.065 4.64.25 1.545.738 3.19 1.45 4.884.71 1.69 1.64 3.42 2.774 5.148a39.504 39.504 0 0 0 2.44 3.313 43.332 43.332 0 0 0 5.986 5.987z"/><path fill-rule="evenodd" clip-rule="evenodd" fill="#F1F9D1" d="M34.037 71.262c2.568 1.36 5.09 2.252 7.398 2.625 3.455.56 6.43-.043 8.368-1.98L79.05 42.66c-1.937 1.938-4.914 2.54-8.368 1.98-2.31-.373-4.83-1.265-7.398-2.625L34.037 71.262z"/><path fill-rule="evenodd" clip-rule="evenodd" fill="#FFF" d="M46.258 9.867c1.207-1.208 2.773-1.85 4.47-2.08l35.28-4.878-4.69 33.88c-.2 1.463-.274 2.564-.902 3.908a6.908 6.908 0 0 1-1.364 1.96c-3.732 3.73-10.374 2.004-14.83-.17-.065-.03-.13-.064-.194-.096-7.018-3.484-13.828-10.21-17.34-17.21-2.448-4.88-4.243-11.507-.43-15.317z"/><path fill-rule="evenodd" clip-rule="evenodd" fill="#F1F9D1" d="M72.605 4.762L86.007 2.91 84.2 15.974c-.72 5.2-6.368 3.044-10.275-.912-3.884-3.933-6.044-9.648-1.32-10.3z"/><path fill-rule="evenodd" clip-rule="evenodd" fill="#89C400" d="M63.39 42.627L34.845 71.122c.6.303 1.195.577 1.785.825 1.693.713 3.34 1.202 4.883 1.452 1.693.27 3.265.26 4.64-.068 1.295-.307 2.417-.893 3.3-1.777L76.06 44.952c-.982.282-2.024.398-3.095.387-.2-.006-.4-.014-.6-.024-.57-.028-1.16-.09-1.76-.188-1.623-.264-3.345-.775-5.112-1.52-.163-.067-.326-.14-.49-.21H65l-.03-.014-.032-.015-.03-.017c-.31-.137-.612-.276-.904-.42l-.03-.015-.166-.083-.383-.194-.034-.015zM45.908 9.517a7.363 7.363 0 0 1 2.114-1.47 9.256 9.256 0 0 1 2.64-.75L85.94 2.42a.494.494 0 0 1 .556.57l-4.688 33.87c-.04.275-.057.418-.077.57-.16 1.23-.29 2.245-.866 3.477-.188.4-.4.774-.643 1.123a7.52 7.52 0 0 1-.82.978l-29.245 29.25c-1.018 1.02-2.3 1.69-3.776 2.04-1.5.355-3.197.373-5.02.078-1.623-.263-3.345-.774-5.11-1.517A33.098 33.098 0 0 1 30.944 70a39.26 39.26 0 0 1-3.398-2.5c-1.095-.897-2.17-1.87-3.215-2.914s-2.017-2.12-2.91-3.214a40.276 40.276 0 0 1-2.5-3.398c-1.17-1.778-2.128-3.563-2.86-5.303-.743-1.766-1.255-3.49-1.517-5.11-.296-1.82-.276-3.52.076-5.02.35-1.475 1.023-2.76 2.04-3.776L45.91 9.514zm8.708 26.828l.05.047.026.024.024.02.05.047.05.047.024.023.025.024a42.927 42.927 0 0 0 1.927 1.674 39.896 39.896 0 0 0 3.4 2.504c.738.486 1.478.935 2.218 1.347l.036.02.028.016.006.004-28.55 28.5a34.705 34.705 0 0 1-2.443-1.467 39.103 39.103 0 0 1-3.312-2.443 42.28 42.28 0 0 1-3.14-2.847c-.96-.96-1.855-1.94-2.68-2.937l28.543-28.543a42.784 42.784 0 0 0 3.72 3.937zm-4.348-4.71l-28.542 28.54a39.5 39.5 0 0 1-1.983-2.742c-1.134-1.727-2.063-3.46-2.772-5.145a22.732 22.732 0 0 1-1.3-4.08l28.42-28.424a24.184 24.184 0 0 0 1.217 3.64c.73 1.738 1.69 3.524 2.858 5.303.17.257.344.513.52.77l.006.01.098.136.01.015.022.03.03.045c.45.642.923 1.276 1.418 1.9zm-6.52-13.603l.04.28.068.39a.496.496 0 0 0-.212.127L15.458 47.01c-.21-1.544-.175-2.98.126-4.247.306-1.296.892-2.418 1.776-3.303l26.58-26.58c-.294 1.026-.406 2.12-.374 3.248.02.627.08 1.263.18 1.902zm4.69-9.086a8.194 8.194 0 0 1 2.356-.67h.002l19.19-2.653c-.325.453-.503.99-.555 1.59-.08.91.148 1.966.6 3.062.714 1.72 1.997 3.568 3.544 5.134 1.52 1.535 3.3 2.812 4.974 3.52 1.088.46 2.142.68 3.064.586.64-.065 1.21-.277 1.69-.66l-2.47 17.868c-.018.12-.048.36-.077.58-.15 1.147-.273 2.096-.784 3.187-.157.34-.345.665-.56.978-.21.297-.444.58-.707.842l-.056.055-.028.028-.044.04h-.002c-.86.816-1.938 1.36-3.172 1.654-.98.23-2.064.306-3.22.23l-.02-.004h-.01c-2.675-.198-5.473-1.176-7.713-2.27l-.025-.01-.168-.083c-2.275-1.13-4.53-2.608-6.658-4.328l-.014-.012-.05-.04-.054-.043-.034-.03-.017-.012-.05-.042-.05-.04a42.674 42.674 0 0 1-3.04-2.765 42.745 42.745 0 0 1-2.85-3.14 40.016 40.016 0 0 1-1.88-2.486l-.036-.05-.01-.017-.026-.035a33.538 33.538 0 0 1-2.35-3.948c-1.066-2.13-2.007-4.592-2.393-6.99-.242-1.624-.217-3.13.096-4.455.294-1.235.84-2.31 1.655-3.176l.04-.04.01-.01.012-.01.06-.064a6.476 6.476 0 0 1 1.834-1.27zM85.43 3.488L72.673 5.252l-.026.003c-.55.08-.987.23-1.32.444-.566.36-.85.916-.91 1.596-.065.752.132 1.65.526 2.602.663 1.6 1.87 3.334 3.334 4.815 1.432 1.45 3.1 2.65 4.652 3.305.936.398 1.825.593 2.58.516.686-.07 1.262-.38 1.654-.992.26-.405.448-.945.543-1.636l1.72-12.42z"/></svg>