<svg xmlns="http://www.w3.org/2000/svg" width="112" height="112" viewBox="-9 -1 112 112" overflow="visible"><path fill-rule="evenodd" clip-rule="evenodd" fill="#B0DDE8" d="M80.133 37.068C73.526 25.708 63.11 21.06 56.996 24.45c-.11.06-.22.127-.33.19l-10.622 6.163.002-.003a8.097 8.097 0 0 0-2.82 2.227c-8.782-7.11-16.83-16.746-23.793-30.114L8.043 9.49c-3.546 5.202-2.495 12.983.19 19.425l-2.616 1.467c.416 6.807 2.57 13.667 8.48 20.642l-2.633 1.346c.78 3.143 1.905 6.018 3.38 8.623l-.544.05-11.39 6.58c20.263 25.28 42.623 31.24 56.584 23.37l.008.003c18-10.464 27.03-16.096 24.957-39.622 2.98-.156 5.62-1.644 7.84-4.788-2.806-.605-5.61-1.212-8.41-1.82 3.22-.975 5.472-3.04 6.413-6.504-2.496.315-5.697.06-9.627-.785-.424-.09-.328-.034-.545-.41z"/><path fill-rule="evenodd" clip-rule="evenodd" fill="#009DE2" d="M77.615 38.526c-2.904-4.996-6.566-8.54-10.178-10.51-3.463-1.888-6.76-2.285-9.03-1.027l-.013.004.002.004c-.217.12-.13.066-.158.084l-.104.06-.014.01.002.002-10.62 6.163a2.89 2.89 0 0 1-.205.107v.003a5.27 5.27 0 0 0-.98.598c-.293.23-.574.508-.837.833a2.904 2.904 0 0 1-4.087.423c-4.548-3.68-8.9-8.01-13.01-13.14-3.563-4.448-6.94-9.485-10.098-15.205l-8.167 4.717c-1.036 1.782-1.457 3.96-1.434 6.282.032 3.222.918 6.7 2.237 9.866a2.91 2.91 0 0 1-1.26 3.655l-.98.55c.282 2.53.853 5.06 1.83 7.588 1.214 3.143 3.07 6.322 5.808 9.553a2.91 2.91 0 0 1-1.072 4.552l-.334.172c.214.663.446 1.315.697 1.954a29.045 29.045 0 0 0 1.77 3.734 2.907 2.907 0 0 1-2.165 4.318L7.34 68.42c8.6 10.067 17.456 16.586 25.746 20.01 9.608 3.97 18.395 3.737 24.982.024.055-.03.11-.06.164-.085 8.615-5.01 15.082-8.88 18.95-14.03 3.798-5.058 5.337-11.746 4.37-22.718a2.91 2.91 0 0 1 2.918-3.163c.492-.04.97-.13 1.432-.278l-2.63-.57a2.912 2.912 0 0 1-.228-5.634v-.003a7.79 7.79 0 0 0 1.914-.85 46.895 46.895 0 0 1-4.886-.804c-.033-.006-.066-.013-.1-.022h-.002c-.035-.006-.068-.014-.104-.022-.48-.1-.748-.174-1.28-.572-.554-.414-.68-.646-.93-1.096-.03-.06-.023-.05-.043-.084zm-7.4-15.61c4.28 2.334 8.562 6.352 11.957 11.898 1.482.29 2.844.485 4.084.586 1.336.108 2.49.11 3.467.006a2.91 2.91 0 0 1 3.394 3.617c-.45 1.662-1.155 3.093-2.083 4.31l1.88.404a2.91 2.91 0 0 1 1.765 4.52c-1.348 1.91-2.86 3.34-4.523 4.333-.84.504-1.707.89-2.604 1.167.623 11.043-1.36 18.258-5.72 24.065-4.6 6.123-11.583 10.285-20.874 15.687v-.005l-.04.022c-8.117 4.572-18.693 4.96-30.04.272C21.046 89.743 10.593 81.84.692 69.506a2.91 2.91 0 0 1 .758-4.403l9.455-5.46c-.254-.56-.494-1.13-.72-1.705a39.29 39.29 0 0 1-1.543-4.877h.006a2.907 2.907 0 0 1 1.028-2.98c-2.014-2.803-3.506-5.6-4.586-8.397-1.43-3.7-2.13-7.357-2.365-10.99a2.91 2.91 0 0 1 1.47-2.854l.436-.244c-1.052-3.11-1.72-6.426-1.75-9.62-.038-3.675.765-7.197 2.76-10.127a2.89 2.89 0 0 1 .945-.873L17.83.48a2.914 2.914 0 0 1 4.188 1.088c3.4 6.527 7.045 12.12 10.896 16.927 3.262 4.073 6.677 7.6 10.22 10.665.533-.386 1.08-.71 1.633-.977l10.442-6.06v.004l.09-.052c.18-.105.23-.14.294-.176h.002c4.058-2.24 9.392-1.837 14.617 1.013z"/><path fill-rule="evenodd" clip-rule="evenodd" fill="#B0DDE8" d="M79.61 36.198c-6.24-10.102-15.507-14.525-21.538-12.245-1.023.386-2.092 1.08-3.03 1.624l-8.998 5.22 4.946 7.773C39.17 31.165 28.405 20.133 19.433 2.913L8.043 9.49l.428 9.478 8.55 5.02-11.4 6.395 13.297 18.174-7.45 3.813 7.595 8.225-4.76.448-11.39 6.58L16.594 78.58 59.5 90.996c18-10.464 27.03-16.096 24.96-39.622 2.98-.156 5.62-1.644 7.84-4.788-2.804-.605-5.608-1.212-8.41-1.82 3.222-.975 5.474-3.04 6.415-6.504-2.258.285-5.092.103-8.52-.558-1.678-.324-1.305-.097-2.174-1.506z"/><path fill-rule="evenodd" clip-rule="evenodd" fill="#FFF" d="M68.906 43.934C58.398 25.51 37.89 24.36 40.982 45.997 28.62 38.592 17.362 27.38 8.042 9.49c-5.148 7.553-.604 20.547 4.562 26.978-2.7-1.802-5.047-3.82-6.987-6.086.506 8.272 3.58 16.623 12.834 25.164-1.7-.255-4.143-1.46-6.984-3.176 2.147 8.663 6.93 15.29 14.402 19.84-5.215 3.575-12.8 2.19-22.958-4.587 33.91 42.308 73.702 30.516 70.157-9.67 2.98-.157 5.623-1.645 7.844-4.79-2.803-.605-5.61-1.21-8.412-1.817 3.223-.976 5.477-3.04 6.418-6.506-2.564.323-5.873.044-9.947-.854-.04-.01-.03 0-.06-.052z"/><path fill-rule="evenodd" clip-rule="evenodd" fill="#009DE2" d="M68.477 44.178C64.49 37.188 59.06 32.73 54.07 31.113c-2.22-.72-4.347-.872-6.207-.43a7.677 7.677 0 0 0-4.572 3.072c-1.81 2.537-2.62 6.557-1.816 12.172a.496.496 0 0 1-.767.48c-6.21-3.723-12.144-8.4-17.696-14.396-5.4-5.826-10.433-12.893-15.005-21.525C6.19 13.64 5.938 17.657 6.622 21.7c.925 5.465 3.554 10.955 6.368 14.46a.493.493 0 0 1-.678.707 38.36 38.36 0 0 1-3.81-2.894 32.64 32.64 0 0 1-2.275-2.176c.357 3.6 1.246 7.215 2.974 10.855 1.965 4.134 5.01 8.304 9.588 12.53a.494.494 0 0 1-.406.85c-.9-.133-1.98-.512-3.202-1.08a37.72 37.72 0 0 1-2.93-1.542c1.07 3.793 2.675 7.172 4.82 10.13 2.36 3.256 5.376 6.007 9.055 8.246a.496.496 0 0 1 .02.83c-2.72 1.866-6.044 2.44-10 1.667-3.2-.625-6.823-2.143-10.88-4.58 10.72 12.633 21.91 19.94 32.036 22.73 6.52 1.793 12.59 1.714 17.798-.023 5.193-1.73 9.537-5.113 12.62-9.93 3.864-6.04 5.753-14.342 4.856-24.484a.497.497 0 0 1 .45-.537l.052-.005a8.52 8.52 0 0 0 3.945-1.2c1.078-.647 2.09-1.562 3.035-2.77l-7.662-1.657a.496.496 0 0 1-.04-.96c1.536-.465 2.837-1.187 3.86-2.196.873-.862 1.55-1.943 2.008-3.268-1.13.088-2.382.076-3.753-.042-1.672-.143-3.54-.44-5.604-.896l-.014-.003c-.085-.016-.128-.024-.23-.107l-.01-.008a.46.46 0 0 1-.127-.16l-.005-.014zm10.714-7.72c.097.152.204.334.294.49.252.425.38.643.64.82.26.18.528.23 1.08.33.1.018.222.04.49.092 1.73.333 3.313.547 4.75.64 1.146.076 2.202.075 3.17 0-.458 1.324-1.136 2.405-2.007 3.267-1.023 1.01-2.324 1.732-3.86 2.198a.49.49 0 0 0-.34.37.49.49 0 0 0 .378.587l7.664 1.657c-.946 1.206-1.96 2.12-3.036 2.77a8.493 8.493 0 0 1-3.945 1.2.492.492 0 0 0-.503.537c1.025 11.63-.68 18.815-4.852 24.37-3.13 4.17-7.678 7.457-13.514 11.025a26.273 26.273 0 0 0 2.947-3.804c3.916-6.12 5.865-14.46 5.055-24.604A9.45 9.45 0 0 0 77.53 57.1c1.37-.82 2.637-2.025 3.787-3.654a.496.496 0 0 0-.3-.77l-6.782-1.465a9.426 9.426 0 0 0 2.674-1.835c1.147-1.135 1.99-2.592 2.483-4.41a.495.495 0 0 0-.58-.614c-1.23.15-2.65.16-4.263.023-1.594-.136-3.357-.413-5.297-.834-4.108-7.13-9.71-11.694-14.88-13.37-1.756-.568-3.465-.806-5.053-.703l5.97-3.463c.22-.127.403-.236.593-.35h.002c.766-.456 1.588-.947 2.363-1.24 2.98-1.125 6.816-.523 10.672 1.668 3.653 2.073 7.308 5.57 10.274 10.373zm-33.37-6.1l8.977-5.21c.162-.093.373-.218.582-.343.803-.478 1.666-.993 2.52-1.315 3.258-1.23 7.393-.605 11.506 1.732 3.787 2.152 7.568 5.765 10.627 10.716.146.238.232.383.303.505.18.304.273.46.348.512.086.06.287.096.695.17l.5.09c1.69.327 3.233.535 4.628.627 1.38.09 2.61.068 3.695-.066a.495.495 0 0 1 .582.614c-.494 1.82-1.338 3.275-2.484 4.41a9.464 9.464 0 0 1-2.673 1.835l6.78 1.466v.004a.497.497 0 0 1 .302.768c-1.153 1.63-2.42 2.834-3.79 3.654a9.405 9.405 0 0 1-3.924 1.304c.957 11.607-.826 18.874-5.09 24.552-4.232 5.633-10.863 9.64-19.672 14.762-.13.077-.258.152-.39.227l-.093.054-.022.013a24.747 24.747 0 0 1-4.32 1.91c-5.39 1.797-11.657 1.885-18.366.038-10.933-3.01-23.06-11.167-34.505-25.44v-.002l-.004-.003a.498.498 0 0 1 .133-.747l11.392-6.577.016-.01c-1.326-2.47-2.352-5.17-3.08-8.098a.5.5 0 0 1 .05-.396.502.502 0 0 1 .235-.2l2.045-1.05c-2.15-2.608-3.785-5.205-5.013-7.79-2.013-4.244-2.922-8.45-3.18-12.638a.496.496 0 0 1 .25-.486l2.235-1.254c-.88-2.187-1.572-4.513-1.964-6.834-.773-4.572-.39-9.14 1.97-12.624a.485.485 0 0 1 .197-.186l.006-.003L19.16 2.5c.014-.01.03-.018.044-.025a.497.497 0 0 1 .668.21C24.34 11.26 29.25 18.29 34.51 24.093a81.015 81.015 0 0 0 8.653 8.25 8.558 8.558 0 0 1 2.654-1.985zm-3.276 2.748l-.056.077c-1.837 2.572-2.727 6.5-2.124 11.86-5.827-3.593-11.4-8.058-16.628-13.702C18.33 25.507 13.286 18.4 8.703 9.68l10.53-6.08c4.44 8.438 9.32 15.388 14.545 21.153a81.334 81.334 0 0 0 8.764 8.356zm-34.546-3.49a35.012 35.012 0 0 0 2.478 4.702 33.26 33.26 0 0 1-1.324-1.092 30.897 30.897 0 0 1-2.76-2.71l1.607-.9zm5.976 22.024a50.383 50.383 0 0 0 2.687 2.876c-.34-.134-.694-.287-1.066-.46-.945-.438-1.99-1-3.107-1.654l1.486-.762zm.602 9.874c.522.9 1.088 1.77 1.695 2.607 2.29 3.164 5.178 5.86 8.67 8.094-2.374 1.38-5.235 1.758-8.603 1.1-3.588-.7-7.744-2.573-12.487-5.66l10.604-6.126.12-.012zm26.13-15.107a.495.495 0 0 1-.21-.34l.21.34z"/><path fill-rule="evenodd" clip-rule="evenodd" fill="#B0DDE8" d="M54.908 45.696c1.338.674 2.424 2.504 2.424 4.09 0 1.587-1.086 2.327-2.424 1.654-1.34-.673-2.424-2.504-2.424-4.09s1.084-2.327 2.424-1.654z"/><path fill-rule="evenodd" clip-rule="evenodd" fill="#009DE2" d="M55.13 45.255c.755.38 1.435 1.076 1.917 1.892.482.812.78 1.757.78 2.64 0 .517-.104.967-.288 1.335v.003c-.17.333-.405.597-.69.777a1.83 1.83 0 0 1-1 .28 2.62 2.62 0 0 1-1.165-.3c-.758-.382-1.436-1.077-1.92-1.894-.482-.812-.78-1.757-.78-2.64 0-.516.105-.967.288-1.334.17-.336.404-.6.69-.78.29-.185.628-.282.995-.282.363 0 .76.098 1.17.303zm1.065 2.396c-.393-.66-.928-1.22-1.508-1.51a1.667 1.667 0 0 0-.727-.195.85.85 0 0 0-.465.127.944.944 0 0 0-.338.387c-.115.23-.18.53-.18.893 0 .705.246 1.47.64 2.137.396.663.93 1.22 1.51 1.512.263.13.507.193.726.193a.86.86 0 0 0 .467-.126.976.976 0 0 0 .336-.39h.002c.113-.23.178-.53.178-.893 0-.702-.244-1.467-.64-2.134z"/></svg>