<svg xmlns="http://www.w3.org/2000/svg" width="112" height="112" viewBox="-14.418 0 112 112" overflow="visible"><path fill-rule="evenodd" clip-rule="evenodd" fill="#B9C8E8" d="M22.76 3.39l-.012.004c-.2.096-.39.206-.574.33l-16.372 9.42c-1.778 1.022-2.888 3.25-2.888 6.41V67.33c0 6.192 4.26 13.72 9.466 16.724l40.165 23.19c2.53 1.46 4.838 1.595 6.54.638l16.696-9.62c1.78-1.025 2.89-3.25 2.89-6.41V44.077c0-6.193-4.262-13.72-9.467-16.725L29.037 4.162c-2.402-1.386-4.602-1.577-6.276-.772z"/><path fill-rule="evenodd" clip-rule="evenodd" fill="#5065A8" d="M24.084 5.975l-.072.037-.11.054c-.043.024.007 0-.1.072a2.73 2.73 0 0 1-.388.222l-16.03 9.222c-.03.02-.06.038-.09.056l-.115.066c-.34.218-.636.59-.867 1.103-.313.695-.486 1.615-.486 2.748V67.33c0 2.596.915 5.514 2.392 8.123 1.477 2.61 3.464 4.85 5.603 6.085l.008.005.003-.005L54 104.728c.874.5 1.66.776 2.333.843.523.054.973-.03 1.326-.226.054-.03.11-.06.17-.087l16.31-9.4c.095-.062.19-.12.294-.174.322-.22.605-.585.83-1.08.31-.695.484-1.615.484-2.747v-47.78c0-2.595-.917-5.513-2.394-8.122-1.477-2.606-3.467-4.845-5.617-6.085L27.58 6.677c-.82-.473-1.577-.742-2.248-.825-.495-.06-.915-.017-1.248.122zm-3.076-4.942c.2-.116.36-.202.477-.258l.002.005.02-.01c1.363-.655 2.897-.903 4.532-.7 1.412.174 2.916.69 4.452 1.576l40.164 23.19c3.057 1.765 5.8 4.792 7.756 8.25 1.955 3.452 3.168 7.394 3.168 10.99v47.777c0 1.966-.36 3.695-1.01 5.137-.737 1.644-1.856 2.908-3.267 3.742l-.078.047-16.502 9.51c-.07.044-.143.09-.217.13-1.38.776-2.982 1.104-4.72.935-1.5-.147-3.09-.666-4.7-1.595L10.923 86.57l.003-.005c-3.064-1.77-5.808-4.796-7.76-8.243C1.214 74.87 0 70.927 0 67.33V19.553c0-1.966.36-3.696 1.01-5.14.74-1.643 1.86-2.908 3.27-3.74.024-.016.05-.032.077-.047l16.17-9.302.02-.014a9 9 0 0 1 .46-.277z"/><path fill-rule="evenodd" clip-rule="evenodd" fill="#B9C8E8" d="M22.76 3.39l-.012.004c-.2.096-.39.206-.574.33l-16.372 9.42 13.77 24.48 3.7-6.11c3.21-5.295 23.33 1.422 25.553 7.007l6.025 15.16 4.234 54.205 16.697-9.62c1.78-1.025 2.89-3.25 2.89-6.41V44.077c0-6.193-4.262-13.72-9.467-16.725L29.037 4.162c-2.402-1.386-4.602-1.577-6.276-.772z"/><path fill-rule="evenodd" clip-rule="evenodd" fill="#5065A8" d="M22.535 2.95l.034-.017c.93-.444 2.006-.607 3.174-.464 1.106.134 2.3.546 3.538 1.262l40.166 23.19c2.68 1.547 5.11 4.247 6.866 7.35 1.756 3.104 2.848 6.62 2.848 9.802V91.85c0 1.62-.285 3.014-.795 4.146-.538 1.194-1.33 2.1-2.315 2.675l-.027.02-16.665 9.6a.494.494 0 0 1-.772-.37l-4.23-54.135-5.996-15.082c-.494-1.246-2.01-2.585-4.064-3.83-2.79-1.69-6.543-3.175-10.134-4.03-3.546-.844-6.9-1.07-8.943-.256-.685.272-1.21.66-1.527 1.184l-3.68 6.075a.494.494 0 0 1-.874.02L5.37 13.385a.495.495 0 0 1 .185-.67l16.34-9.4c.09-.063.195-.127.312-.194.112-.065.22-.123.325-.172zm.445.88l-.017.01a3.728 3.728 0 0 0-.513.295.545.545 0 0 1-.063.036L6.474 13.33l13.114 23.318 3.262-5.385c.436-.72 1.125-1.24 2.008-1.59 2.246-.894 5.814-.675 9.535.21 3.677.875 7.536 2.405 10.417 4.15 2.23 1.35 3.89 2.85 4.47 4.31l6.028 15.155c.02.047.03.096.033.145h.005l4.172 53.422 15.98-9.206a.298.298 0 0 1 .066-.04c.804-.47 1.454-1.224 1.907-2.227.45-1.007.7-2.26.7-3.74V44.076c0-3.012-1.04-6.354-2.713-9.314-1.674-2.958-3.977-5.524-6.504-6.982L28.79 4.59c-1.118-.645-2.185-1.017-3.164-1.138-.986-.12-1.88.013-2.646.38z"/><path fill-rule="evenodd" clip-rule="evenodd" fill="#FFF" d="M20.384 55.58l5.49 3.17v24.59l9.565 5.553v-24.59l7.78 4.492v-8.96l-7.78-4.493v-8.05c0-1.01.69-1.435 1.54-.945l6.24 3.603v-9.116l-7.61-4.425c-5.347-3.11-9.737-.41-9.737 5.956v7.422l-5.49-3.17v8.96zM12.38 13.76l40.165 23.188c5.207 3.005 9.467 10.532 9.467 16.725v47.777c0 6.19-4.26 8.8-9.467 5.793L12.38 84.053C7.174 81.05 2.915 73.523 2.915 67.33V19.553c0-6.192 4.26-8.8 9.465-5.794z"/><path fill-rule="evenodd" clip-rule="evenodd" fill="#5065A8" d="M26.37 82.482l8.574-4.95v-13.23a.5.5 0 0 1 .197-.395.51.51 0 0 1 .187-.187l6.82-3.938-6.952-4.012a.498.498 0 0 1-.248-.43h-.002v-8.05c0-.387.087-.72.238-.983a1.34 1.34 0 0 1 .617-.557c.02-.014.037-.027.06-.04l6.87-3.966v-.628l-7.367-4.282c-1.43-.83-2.777-1.224-3.972-1.224-.86 0-1.64.205-2.31.597-.677.394-1.25.98-1.69 1.737-.65 1.116-1.017 2.607-1.017 4.42v7.423a.497.497 0 0 1-.775.41l-4.717-2.722v7.818l5.245 3.028a.497.497 0 0 1 .247.43v23.73zm8.573-3.808v9.36L26.86 83.34l8.083-4.666zm1.417-14.41l6.367-3.675v7.35L36.36 64.26zm.993-18.274l5.374-3.103v6.205l-5.374-3.102zM25.38 59.035l-5.212-3.01a.495.495 0 0 1-.28-.446v-8.964h.002a.496.496 0 0 1 .743-.427l4.748 2.74v-6.564c0-1.992.42-3.652 1.154-4.917.53-.91 1.223-1.62 2.045-2.098.824-.48 1.774-.733 2.812-.733 1.364 0 2.88.436 4.47 1.36l7.58 4.407c.165.08.278.25.278.445v9.116a.496.496 0 0 1-.743.428l-6.24-3.605a.877.877 0 0 0-.423-.135.314.314 0 0 0-.157.036.348.348 0 0 0-.118.126c-.066.112-.103.277-.103.49v7.767l7.493 4.326c.172.08.29.25.29.45v8.96h-.003a.497.497 0 0 1-.74.43l-7.042-4.066V88.89a.496.496 0 0 1-.742.428l-9.535-5.537a.494.494 0 0 1-.277-.443V59.034zM12.628 13.33l40.165 23.19c2.68 1.547 5.11 4.248 6.867 7.35 1.758 3.104 2.848 6.62 2.848 9.802v47.777c0 1.926-.402 3.533-1.113 4.763-.514.892-1.19 1.584-1.992 2.054-.81.47-1.738.718-2.75.718-1.328 0-2.805-.423-4.354-1.316h-.005L12.132 84.48l-.028-.018c-2.67-1.55-5.09-4.242-6.84-7.334-1.756-3.103-2.846-6.62-2.846-9.8V19.552c0-1.928.4-3.538 1.11-4.767.514-.89 1.19-1.583 1.995-2.052.808-.473 1.736-.72 2.75-.72 1.325 0 2.803.424 4.35 1.317h.003zm39.67 24.046c2.524 1.458 4.83 4.024 6.503 6.983 1.68 2.956 2.718 6.3 2.718 9.31v47.777c0 1.753-.354 3.194-.975 4.273-.427.74-.98 1.31-1.64 1.694-.65.38-1.41.58-2.248.58-1.162 0-2.47-.38-3.86-1.18v-.002L12.63 83.624l-.025-.014c-2.515-1.46-4.808-4.02-6.48-6.968-1.673-2.958-2.713-6.3-2.713-9.312V19.553c0-1.754.353-3.194.974-4.273.43-.74.985-1.312 1.64-1.695.652-.38 1.41-.58 2.25-.58 1.162 0 2.47.38 3.86 1.18L52.3 37.375z"/></svg>