<?xml version="1.0" encoding="UTF-8"?>
<svg width="717px" height="180px" viewBox="0 0 717 180" version="1.1" xmlns="http://www.w3.org/2000/svg" xmlns:xlink="http://www.w3.org/1999/xlink">
    <!-- Generator: Sketch 43.2 (39069) - http://www.bohemiancoding.com/sketch -->
    <title>Group</title>
    <desc>Created with Sketch.</desc>
    <defs></defs>
    <g id="Page-1" stroke="none" stroke-width="1" fill="none" fill-rule="evenodd">
        <g id="Group" fill-rule="nonzero">
            <g id="Pins-Big">
                <polygon id="Shape" fill="#0A203E" opacity="0.12" points="144.667 37.686 140.242 21.047 143.435 17.717 150.887 31.973 156.881 26.09 156.376 21.775 158.337 19.759 160.86 24.633 166.237 27.041 164.388 29.17 159.458 28.891 153.688 35.277 167.972 42.615 164.5 45.811 147.693 41.717 140.579 48.05 139.291 48.387 137.386 48.387 136.826 47.77 137.441 45.417 138.674 43.85"></polygon>
                <polygon id="Shape" fill="#FFFFFF" points="151.972 20.219 147.547 3.581 150.74 0.25 158.191 14.505 164.185 8.623 163.681 4.309 165.642 2.292 168.163 7.166 173.541 9.575 171.693 11.704 166.763 11.424 160.993 17.81 175.278 25.148 171.804 28.343 154.998 24.25 147.883 30.583 146.595 30.92 144.689 30.92 144.13 30.303 144.746 27.95 145.978 26.382"></polygon>
                <g id="Group-2" transform="translate(663.000000, 9.000000)">
                    <path d="M27,80 C32.5228475,80 37,75.5228475 37,70 C37,64.4771525 32.5228475,60 27,60 C21.4771525,60 17,64.4771525 17,70 C17,75.5228475 21.4771525,80 27,80 Z M27,84 C19.2680135,84 13,77.7319865 13,70 C13,62.2680135 19.2680135,56 27,56 C34.7319865,56 41,62.2680135 41,70 C41,77.7319865 34.7319865,84 27,84 Z" id="Oval" fill="#F5EB13"></path>
                    <path d="M14.8038886,63.1207699 C17.2068975,58.8696495 21.7683274,56 27,56 C32.2181844,56 36.7695779,58.8548717 39.1774823,63.0879172 C38.2477621,64.2335145 37.3082906,65.3779776 36.374114,66.5099759 C34.9580655,62.7080684 31.2952844,60 27,60 C22.6903619,60 19.0174614,62.726198 17.6117651,66.5481274 C16.6763196,65.4145655 15.7353182,64.268312 14.8038886,63.1207699 Z" id="Combined-Shape" fill="#B5A116"></path>
                    <path d="M26.976,70 C33.401,61.749 45.14,48.758 49.967,40.234 C52.196,36.297 53.474,31.727 53.474,26.867 C53.474,12.027 41.61,0 26.976,0 C12.339,0 0.476,12.027 0.476,26.867 C0.476,31.724 1.749,36.279 3.973,40.212 C8.798,48.738 20.554,61.749 26.976,70 L26.976,70 Z M20.977,13 L30.993,13 L30.993,20 L31.977,20 L37.993,20 L37.993,27 L37.993,31 L37.993,37 L32.977,37 L27.977,37 L23.977,37 L20.977,37 L13.977,37 L13.977,27 L20.977,27 L20.977,23 L20.977,20 L20.977,16 L20.977,13 Z M30.993,23 L34.977,23 L34.977,27 L30.993,27 L30.993,24 L30.993,23 Z M30.993,30 L34.977,30 L34.977,34 L30.993,34 L30.993,31 L30.993,30 Z M20.977,34 L16.993,34 L16.993,30 L20.977,30 L20.977,33 L20.977,34 Z M23.993,30 L27.977,30 L27.977,34 L23.993,34 L23.993,31 L23.993,30 Z M27.977,24 L27.977,27 L23.993,27 L23.993,23 L27.977,23 L27.977,24 Z M23.993,20 L23.993,16 L27.977,16 L27.977,20 L23.993,20 Z" id="Shape" fill="#FFFFFF"></path>
                </g>
                <g id="Group-2" transform="translate(586.000000, 12.000000)">
                    <path d="M27,80 C32.5228475,80 37,75.5228475 37,70 C37,64.4771525 32.5228475,60 27,60 C21.4771525,60 17,64.4771525 17,70 C17,75.5228475 21.4771525,80 27,80 Z M27,84 C19.2680135,84 13,77.7319865 13,70 C13,62.2680135 19.2680135,56 27,56 C34.7319865,56 41,62.2680135 41,70 C41,77.7319865 34.7319865,84 27,84 Z" id="Oval" fill="#F5EB13"></path>
                    <path d="M14.8038886,63.1207699 C17.2068975,58.8696495 21.7683274,56 27,56 C32.2181844,56 36.7695779,58.8548717 39.1774823,63.0879172 C38.2477621,64.2335145 37.3082906,65.3779776 36.374114,66.5099759 C34.9580655,62.7080684 31.2952844,60 27,60 C22.6903619,60 19.0174614,62.726198 17.6117651,66.5481274 C16.6763196,65.4145655 15.7353182,64.268312 14.8038886,63.1207699 Z" id="Combined-Shape" fill="#B5A116"></path>
                    <path d="M26.976,70 C33.401,61.749 45.14,48.758 49.967,40.234 C52.196,36.297 53.474,31.727 53.474,26.867 C53.474,12.027 41.61,0 26.976,0 C12.339,0 0.476,12.027 0.476,26.867 C0.476,31.724 1.749,36.279 3.973,40.212 C8.798,48.738 20.554,61.749 26.976,70 L26.976,70 Z M20.977,13 L30.993,13 L30.993,20 L31.977,20 L37.993,20 L37.993,27 L37.993,31 L37.993,37 L32.977,37 L27.977,37 L23.977,37 L20.977,37 L13.977,37 L13.977,27 L20.977,27 L20.977,23 L20.977,20 L20.977,16 L20.977,13 Z M30.993,23 L34.977,23 L34.977,27 L30.993,27 L30.993,24 L30.993,23 Z M30.993,30 L34.977,30 L34.977,34 L30.993,34 L30.993,31 L30.993,30 Z M20.977,34 L16.993,34 L16.993,30 L20.977,30 L20.977,33 L20.977,34 Z M23.993,30 L27.977,30 L27.977,34 L23.993,34 L23.993,31 L23.993,30 Z M27.977,24 L27.977,27 L23.993,27 L23.993,23 L27.977,23 L27.977,24 Z M23.993,20 L23.993,16 L27.977,16 L27.977,20 L23.993,20 Z" id="Shape" fill="#FFFFFF"></path>
                </g>
                <g id="Group-3" transform="translate(0.000000, 170.000000)" fill="#FFFFFF">
                    <polygon id="Shape" points="0 1.087 1.589 1.087 5.259 5.91 5.259 1.087 6.96 1.087 6.96 8.92 5.494 8.92 1.701 3.941 1.701 8.92 0 8.92"></polygon>
                    <polygon id="Shape" points="8.845 1.087 14.753 1.087 14.753 2.621 10.557 2.621 10.557 4.21 14.249 4.21 14.249 5.742 10.557 5.742 10.557 7.388 14.809 7.388 14.809 8.92 8.845 8.92"></polygon>
                    <polygon id="Shape" points="15.742 1.087 17.588 1.087 19.21 6.392 20.967 1.065 22.444 1.065 24.201 6.392 25.824 1.087 27.625 1.087 24.951 8.977 23.451 8.977 21.683 3.851 19.915 8.977 18.415 8.977"></polygon>
                    <polygon id="Shape" points="34.471 5.832 31.461 1.087 33.475 1.087 35.344 4.232 37.246 1.087 39.204 1.087 36.194 5.799 36.194 8.92 34.471 8.92"></polygon>
                    <path d="M39.264,5.026 L39.264,5.004 C39.264,2.777 41.021,0.953 43.438,0.953 C45.855,0.953 47.589,2.755 47.589,4.982 L47.589,5.003 C47.589,7.231 45.833,9.055 43.416,9.055 C40.998,9.056 39.264,7.253 39.264,5.026 Z M45.788,5.026 L45.788,5.004 C45.788,3.661 44.803,2.542 43.416,2.542 C42.028,2.542 41.066,3.639 41.066,4.982 L41.066,5.003 C41.066,6.347 42.051,7.465 43.438,7.465 C44.825,7.466 45.788,6.369 45.788,5.026 Z" id="Shape"></path>
                    <path d="M49.127,1.087 L52.708,1.087 C53.704,1.087 54.476,1.367 54.991,1.883 C55.428,2.319 55.662,2.935 55.662,3.672 L55.662,3.694 C55.662,4.959 54.979,5.754 53.983,6.124 L55.897,8.92 L53.882,8.92 L52.204,6.413 L50.85,6.413 L50.85,8.92 L49.127,8.92 L49.127,1.087 Z M52.596,4.893 C53.435,4.893 53.917,4.446 53.917,3.785 L53.917,3.763 C53.917,3.026 53.402,2.644 52.563,2.644 L50.85,2.644 L50.85,4.894 L52.596,4.894 L52.596,4.893 Z" id="Shape"></path>
                    <polygon id="Shape" points="57.222 1.087 58.945 1.087 58.945 4.512 62.123 1.087 64.204 1.087 61.015 4.41 64.349 8.92 62.279 8.92 59.851 5.586 58.944 6.525 58.944 8.92 57.221 8.92 57.221 1.087"></polygon>
                </g>
                <polygon id="Shape" fill="#FFFFFF" points="586.993 104.178 588.683 104.178 588.683 107.536 591.798 104.178 593.839 104.178 590.713 107.437 593.982 111.86 591.952 111.86 589.571 108.59 588.683 109.511 588.683 111.86 586.993 111.86"></polygon>
                <path d="M595.007,104.178 L598.519,104.178 C599.496,104.178 600.252,104.452 600.757,104.957 C601.184,105.385 601.416,105.989 601.416,106.712 L601.416,106.734 C601.416,107.974 600.745,108.754 599.769,109.116 L601.646,111.859 L599.67,111.859 L598.025,109.401 L596.697,109.401 L596.697,111.859 L595.007,111.859 L595.007,104.178 L595.007,104.178 Z M598.409,107.909 C599.232,107.909 599.705,107.471 599.705,106.822 L599.705,106.801 C599.705,106.076 599.2,105.703 598.377,105.703 L596.698,105.703 L596.698,107.909 L598.409,107.909 Z" id="Shape" fill="#FFFFFF"></path>
                <path d="M605.58,104.123 L607.138,104.123 L610.43,111.859 L608.662,111.859 L607.96,110.136 L604.714,110.136 L604.012,111.859 L602.288,111.859 L605.58,104.123 Z M607.357,108.645 L606.336,106.154 L605.315,108.645 L607.357,108.645 Z" id="Shape" fill="#FFFFFF"></path>
                <polygon id="Shape" fill="#FFFFFF" points="611.62 104.178 613.31 104.178 613.31 107.536 616.425 104.178 618.466 104.178 615.34 107.437 618.609 111.86 616.58 111.86 614.198 108.59 613.31 109.511 613.31 111.86 611.62 111.86"></polygon>
                <path d="M618.691,108.04 L618.691,108.019 C618.691,105.834 620.414,104.045 622.784,104.045 C625.153,104.045 626.855,105.813 626.855,107.996 L626.855,108.018 C626.855,110.202 625.132,111.991 622.762,111.991 C620.39,111.992 618.691,110.225 618.691,108.04 Z M625.088,108.04 L625.088,108.019 C625.088,106.702 624.122,105.604 622.762,105.604 C621.4,105.604 620.456,106.679 620.456,107.997 L620.456,108.019 C620.456,109.335 621.423,110.433 622.783,110.433 C624.143,110.434 625.088,109.357 625.088,108.04 Z" id="Shape" fill="#FFFFFF"></path>
                <polygon id="Shape" fill="#FFFFFF" points="627.333 104.178 629.143 104.178 630.734 109.379 632.459 104.155 633.905 104.155 635.628 109.379 637.221 104.178 638.987 104.178 636.366 111.915 634.895 111.915 633.162 106.889 631.428 111.915 629.957 111.915"></polygon>
                <g id="Group-2" transform="translate(5.000000, 78.000000)">
                    <path d="M27,80 C32.5228475,80 37,75.5228475 37,70 C37,64.4771525 32.5228475,60 27,60 C21.4771525,60 17,64.4771525 17,70 C17,75.5228475 21.4771525,80 27,80 Z M27,84 C19.2680135,84 13,77.7319865 13,70 C13,62.2680135 19.2680135,56 27,56 C34.7319865,56 41,62.2680135 41,70 C41,77.7319865 34.7319865,84 27,84 Z" id="Oval" fill="#F5EB13"></path>
                    <path d="M14.8038886,63.1207699 C17.2068975,58.8696495 21.7683274,56 27,56 C32.2181844,56 36.7695779,58.8548717 39.1774823,63.0879172 C38.2477621,64.2335145 37.3082906,65.3779776 36.374114,66.5099759 C34.9580655,62.7080684 31.2952844,60 27,60 C22.6903619,60 19.0174614,62.726198 17.6117651,66.5481274 C16.6763196,65.4145655 15.7353182,64.268312 14.8038886,63.1207699 Z" id="Combined-Shape" fill="#B5A116"></path>
                    <path d="M26.976,70 C33.401,61.749 45.14,48.758 49.967,40.234 C52.196,36.297 53.474,31.727 53.474,26.867 C53.474,12.027 41.61,0 26.976,0 C12.339,0 0.476,12.027 0.476,26.867 C0.476,31.724 1.749,36.279 3.973,40.212 C8.798,48.738 20.554,61.749 26.976,70 L26.976,70 Z M20.977,13 L30.993,13 L30.993,20 L31.977,20 L37.993,20 L37.993,27 L37.993,31 L37.993,37 L32.977,37 L27.977,37 L23.977,37 L20.977,37 L13.977,37 L13.977,27 L20.977,27 L20.977,23 L20.977,20 L20.977,16 L20.977,13 Z M30.993,23 L34.977,23 L34.977,27 L30.993,27 L30.993,24 L30.993,23 Z M30.993,30 L34.977,30 L34.977,34 L30.993,34 L30.993,31 L30.993,30 Z M20.977,34 L16.993,34 L16.993,30 L20.977,30 L20.977,33 L20.977,34 Z M23.993,30 L27.977,30 L27.977,34 L23.993,34 L23.993,31 L23.993,30 Z M27.977,24 L27.977,27 L23.993,27 L23.993,23 L27.977,23 L27.977,24 Z M23.993,20 L23.993,16 L27.977,16 L27.977,20 L23.993,20 Z" id="Shape" fill="#FFFFFF"></path>
                </g>
            </g>
            <path d="M677,102 L678.746223,102 L678.746223,105.473326 L681.968211,102 L684.07779,102 L680.846395,105.370034 L684.224778,109.943246 L682.126959,109.943246 L679.664607,106.561862 L678.746223,107.516459 L678.746223,109.944381 L677,109.944381 L677,102 Z M693.41238,102 L695.158603,102 L695.158603,109.943246 L693.41238,109.943246 L693.41238,102 Z M696.442635,102 L698.3723,102 L700.447778,107.594779 L702.522079,102 L704.405884,102 L701.195655,110 L699.652864,110 L696.442635,102 Z M687.511734,106.812284 L684.502585,102 L686.51574,102 L688.384257,105.188877 L690.2857,102 L692.243587,102 L689.234439,106.777521 L689.234439,109.944381 L687.511734,109.944381 L687.511734,106.812284 Z" id="Combined-Shape" fill="#FFFFFF"></path>
        </g>
    </g>
</svg>