<?xml version="1.0" encoding="UTF-8"?>
<svg width="583px" height="151px" viewBox="0 0 583 151" version="1.1" xmlns="http://www.w3.org/2000/svg" xmlns:xlink="http://www.w3.org/1999/xlink">
    <!-- Generator: Sketch 43.2 (39069) - http://www.bohemiancoding.com/sketch -->
    <title>Group</title>
    <desc>Created with Sketch.</desc>
    <defs></defs>
    <g id="Page-1" stroke="none" stroke-width="1" fill="none" fill-rule="evenodd">
        <g id="Group" fill-rule="nonzero">
            <polygon id="Shape" fill="#0A203E" opacity="0.12" points="118.208 33.177 114.313 18.539 117.123 15.609 123.678 28.149 128.951 22.976 128.508 19.18 130.232 17.406 132.451 21.693 137.182 23.813 135.557 25.685 131.22 25.438 126.143 31.058 138.709 37.513 135.654 40.323 120.869 36.722 114.61 42.293 113.477 42.591 111.801 42.591 111.309 42.048 111.851 39.978 112.934 38.599"></polygon>
            <polygon id="Shape" fill="#FFFFFF" points="124.634 17.81 120.74 3.173 123.549 0.243 130.104 12.784 135.377 7.609 134.934 3.813 136.658 2.039 138.877 6.327 143.607 8.447 141.981 10.319 137.644 10.073 132.567 15.691 145.136 22.147 142.08 24.957 127.294 21.356 121.036 26.929 119.903 27.226 118.227 27.226 117.733 26.681 118.275 24.612 119.36 23.233"></polygon>
            <path d="M561,70.8571429 C565.33938,70.8571429 568.857143,67.3393802 568.857143,63 C568.857143,58.6606198 565.33938,55.1428571 561,55.1428571 C556.66062,55.1428571 553.142857,58.6606198 553.142857,63 C553.142857,67.3393802 556.66062,70.8571429 561,70.8571429 Z M561,74 C554.924868,74 550,69.0751322 550,63 C550,56.9248678 554.924868,52 561,52 C567.075132,52 572,56.9248678 572,63 C572,69.0751322 567.075132,74 561,74 Z" id="Oval" fill="#F5EB13"></path>
            <path d="M551.417341,57.5948907 C553.305419,54.2547246 556.8894,52 561,52 C565.100002,52 568.676097,54.2431135 570.568022,57.5690778 C569.837527,58.46919 569.099371,59.368411 568.365375,60.2578382 C567.252766,57.2706252 564.374866,55.1428571 561,55.1428571 C557.613856,55.1428571 554.728005,57.2848698 553.62353,60.2878144 C552.888537,59.3971586 552.149179,58.4965309 551.417341,57.5948907 Z" id="Combined-Shape" fill="#B5A116"></path>
            <path d="M561.057,63.708 C574.756,46.549 572.858,51.935 579.662,40.214 C581.469,37.109 582.502,33.5 582.502,29.664 C582.502,17.951 572.901,8.458 561.057,8.458 C549.211,8.458 539.61,17.951 539.61,29.664 C539.61,33.497 540.641,37.094 542.44,40.196 C549.243,51.917 547.359,46.549 561.057,63.708 L561.057,63.708 Z M555.984,18 L563.984,18 L563.984,24 L565.984,24 L569.984,24 L569.984,30 L569.984,32 L569.984,38 L565.984,38 L562.004,38.021 L559.004,38.021 L557.004,38.021 L549.984,38 L549.984,30 L555.984,30 L555.984,27 L555.984,24 L555.984,20 L555.984,18 Z M564.004,26.021 L567.984,26 L567.984,30 L563.984,30 L564.004,27.021 L564.004,26.021 Z M564.004,32.021 L567.984,32 L567.984,36 L563.984,36 L564.004,33.021 L564.004,32.021 Z M555.984,36 L551.984,36 L552.004,32.021 L555.984,32 L555.984,35 L555.984,36 Z M558.004,32.021 L561.984,32 L561.984,36 L557.984,36 L558.004,33.021 L558.004,32.021 Z M561.984,27 L561.984,30 L557.984,30 L558.004,26.021 L561.984,26 L561.984,27 Z M557.984,24 L558.004,20.021 L561.984,20 L561.984,24 L557.984,24 Z" id="Shape" fill="#FFFFFF"></path>
            <path d="M498,74.8571429 C502.33938,74.8571429 505.857143,71.3393802 505.857143,67 C505.857143,62.6606198 502.33938,59.1428571 498,59.1428571 C493.66062,59.1428571 490.142857,62.6606198 490.142857,67 C490.142857,71.3393802 493.66062,74.8571429 498,74.8571429 Z M498,78 C491.924868,78 487,73.0751322 487,67 C487,60.9248678 491.924868,56 498,56 C504.075132,56 509,60.9248678 509,67 C509,73.0751322 504.075132,78 498,78 Z" id="Oval" fill="#F5EB13"></path>
            <path d="M488.417341,61.5948907 C490.305419,58.2547246 493.8894,56 498,56 C502.100002,56 505.676097,58.2431135 507.568022,61.5690778 C506.837527,62.46919 506.099371,63.368411 505.365375,64.2578382 C504.252766,61.2706252 501.374866,59.1428571 498,59.1428571 C494.613856,59.1428571 491.728005,61.2848698 490.62353,64.2878144 C489.888537,63.3971586 489.149179,62.4965309 488.417341,61.5948907 Z" id="Combined-Shape" fill="#B5A116"></path>
            <path d="M498.057,67.708 C511.756,50.549 509.858,55.935 516.662,44.214 C518.469,41.109 519.502,37.5 519.502,33.664 C519.502,21.951 509.901,12.458 498.057,12.458 C486.211,12.458 476.61,21.951 476.61,33.664 C476.61,37.497 477.641,41.094 479.44,44.196 C486.243,55.917 484.359,50.549 498.057,67.708 L498.057,67.708 Z M492.984,22 L500.984,22 L500.984,28 L502.984,28 L506.984,28 L506.984,34 L506.984,36 L506.984,42 L502.984,42 L499.004,42.021 L496.004,42.021 L494.004,42.021 L486.984,42 L486.984,34 L492.984,34 L492.984,31 L492.984,28 L492.984,24 L492.984,22 Z M501.004,30.021 L504.984,30 L504.984,34 L500.984,34 L501.004,31.021 L501.004,30.021 Z M501.004,36.021 L504.984,36 L504.984,40 L500.984,40 L501.004,37.021 L501.004,36.021 Z M492.984,40 L488.984,40 L489.004,36.021 L492.984,36 L492.984,39 L492.984,40 Z M495.004,36.021 L498.984,36 L498.984,40 L494.984,40 L495.004,37.021 L495.004,36.021 Z M498.984,31 L498.984,34 L494.984,34 L495.004,30.021 L498.984,30 L498.984,31 Z M494.984,28 L495.004,24.021 L498.984,24 L498.984,28 L494.984,28 Z" id="Shape" fill="#FFFFFF"></path>
            <polygon id="Shape" fill="#FFFFFF" points="0 143.061 1.351 143.061 4.472 147.283 4.472 143.061 5.918 143.061 5.918 149.917 4.67 149.917 1.446 145.559 1.446 149.917 0 149.917"></polygon>
            <polygon id="Shape" fill="#FFFFFF" points="7.519 143.061 12.542 143.061 12.542 144.404 8.975 144.404 8.975 145.795 12.114 145.795 12.114 147.137 8.975 147.137 8.975 148.576 12.589 148.576 12.589 149.918 7.519 149.918"></polygon>
            <polygon id="Shape" fill="#FFFFFF" points="13.382 143.061 14.952 143.061 16.331 147.705 17.824 143.042 19.08 143.042 20.574 147.705 21.953 143.061 23.485 143.061 21.212 149.967 19.937 149.967 18.434 145.481 16.931 149.967 15.657 149.967"></polygon>
            <polygon id="Shape" fill="#FFFFFF" points="29.303 147.214 26.744 143.061 28.456 143.061 30.045 145.813 31.662 143.061 33.327 143.061 30.768 147.184 30.768 149.917 29.303 149.917"></polygon>
            <path d="M33.379,146.508 L33.379,146.489 C33.379,144.539 34.873,142.942 36.927,142.942 C38.982,142.942 40.456,144.519 40.456,146.469 L40.456,146.489 C40.456,148.438 38.962,150.035 36.908,150.035 C34.854,150.035 33.379,148.459 33.379,146.508 Z M38.924,146.508 L38.924,146.489 C38.924,145.313 38.087,144.334 36.907,144.334 C35.728,144.334 34.909,145.294 34.909,146.47 L34.909,146.49 C34.909,147.666 35.747,148.644 36.926,148.644 C38.106,148.644 38.924,147.684 38.924,146.508 Z" id="Shape" fill="#FFFFFF"></path>
            <path d="M41.763,143.061 L44.807,143.061 C45.654,143.061 46.31,143.305 46.747,143.756 C47.118,144.138 47.318,144.677 47.318,145.323 L47.318,145.343 C47.318,146.449 46.737,147.146 45.891,147.469 L47.517,149.917 L45.805,149.917 L44.378,147.723 L43.227,147.723 L43.227,149.917 L41.762,149.917 L41.762,143.061 L41.763,143.061 Z M44.712,146.392 C45.426,146.392 45.835,145.999 45.835,145.421 L45.835,145.401 C45.835,144.755 45.397,144.421 44.685,144.421 L43.229,144.421 L43.229,146.392 L44.712,146.392 Z" id="Shape" fill="#FFFFFF"></path>
            <polygon id="Shape" fill="#FFFFFF" points="48.645 143.061 50.109 143.061 50.109 146.059 52.811 143.061 54.58 143.061 51.869 145.969 54.703 149.917 52.944 149.917 50.879 146.998 50.108 147.822 50.108 149.917 48.644 149.917 48.644 143.061"></polygon>
            <polygon id="Shape" fill="#FFFFFF" points="476.984 88.116 478.456 88.116 478.456 91.111 481.17 88.116 482.947 88.116 480.224 91.023 483.071 94.967 481.303 94.967 479.229 92.05 478.456 92.873 478.456 94.967 476.984 94.967"></polygon>
            <path d="M483.964,88.116 L487.023,88.116 C487.874,88.116 488.533,88.361 488.973,88.811 C489.346,89.193 489.546,89.731 489.546,90.377 L489.546,90.397 C489.546,91.503 488.963,92.198 488.112,92.52 L489.746,94.967 L488.026,94.967 L486.592,92.774 L485.436,92.774 L485.436,94.967 L483.963,94.967 L483.963,88.116 L483.964,88.116 Z M486.928,91.444 C487.644,91.444 488.055,91.053 488.055,90.475 L488.055,90.454 C488.055,89.809 487.616,89.476 486.9,89.476 L485.437,89.476 L485.437,91.443 L486.928,91.443 L486.928,91.444 Z" id="Shape" fill="#FFFFFF"></path>
            <path d="M493.171,88.068 L494.528,88.068 L497.395,94.967 L495.856,94.967 L495.245,93.43 L492.416,93.43 L491.805,94.967 L490.305,94.967 L493.171,88.068 Z M494.719,92.1 L493.83,89.878 L492.941,92.1 L494.719,92.1 Z" id="Shape" fill="#FFFFFF"></path>
            <polygon id="Shape" fill="#FFFFFF" points="498.432 88.116 499.905 88.116 499.905 91.111 502.619 88.116 504.396 88.116 501.672 91.023 504.52 94.967 502.751 94.967 500.678 92.05 499.905 92.873 499.905 94.967 498.432 94.967"></polygon>
            <path d="M504.591,91.562 L504.591,91.541 C504.591,89.594 506.091,87.999 508.156,87.999 C510.219,87.999 511.701,89.575 511.701,91.522 L511.701,91.541 C511.701,93.49 510.2,95.085 508.137,95.085 C506.072,95.085 504.591,93.51 504.591,91.562 Z M510.162,91.562 L510.162,91.541 C510.162,90.368 509.321,89.39 508.137,89.39 C506.951,89.39 506.13,90.349 506.13,91.523 L506.13,91.542 C506.13,92.718 506.97,93.695 508.156,93.695 C509.34,93.694 510.162,92.735 510.162,91.562 Z" id="Shape" fill="#FFFFFF"></path>
            <polygon id="Shape" fill="#FFFFFF" points="512.115 88.116 513.692 88.116 515.078 92.756 516.579 88.098 517.841 88.098 519.341 92.756 520.728 88.116 522.266 88.116 519.982 95.015 518.702 95.015 517.191 90.534 515.681 95.015 514.401 95.015"></polygon>
            <path d="M27,128.857143 C31.3393802,128.857143 34.8571429,125.33938 34.8571429,121 C34.8571429,116.66062 31.3393802,113.142857 27,113.142857 C22.6606198,113.142857 19.1428571,116.66062 19.1428571,121 C19.1428571,125.33938 22.6606198,128.857143 27,128.857143 Z M27,132 C20.9248678,132 16,127.075132 16,121 C16,114.924868 20.9248678,110 27,110 C33.0751322,110 38,114.924868 38,121 C38,127.075132 33.0751322,132 27,132 Z" id="Oval" fill="#F5EB13"></path>
            <path d="M17.4173411,115.594891 C19.3054194,112.254725 22.8894001,110 27,110 C31.1000021,110 34.6760969,112.243114 36.5680218,115.569078 C35.8375273,116.46919 35.0993712,117.368411 34.3653753,118.257838 C33.2527658,115.270625 30.3748663,113.142857 27,113.142857 C23.6138558,113.142857 20.7280054,115.28487 19.6235297,118.287814 C18.8885368,117.397159 18.1491786,116.496531 17.4173411,115.594891 Z" id="Combined-Shape" fill="#B5A116"></path>
            <path d="M27.057,121.708 C40.756,104.549 38.858,109.935 45.662,98.214 C47.469,95.109 48.502,91.5 48.502,87.664 C48.502,75.951 38.901,66.458 27.057,66.458 C15.211,66.458 5.61,75.951 5.61,87.664 C5.61,91.497 6.641,95.094 8.44,98.196 C15.243,109.917 13.359,104.549 27.057,121.708 L27.057,121.708 Z M21.984,76 L29.984,76 L29.984,82 L31.984,82 L35.984,82 L35.984,88 L35.984,90 L35.984,96 L31.984,96 L28.004,96.021 L25.004,96.021 L23.004,96.021 L15.984,96 L15.984,88 L21.984,88 L21.984,85 L21.984,82 L21.984,78 L21.984,76 Z M30.004,84.021 L33.984,84 L33.984,88 L29.984,88 L30.004,85.021 L30.004,84.021 Z M30.004,90.021 L33.984,90 L33.984,94 L29.984,94 L30.004,91.021 L30.004,90.021 Z M21.984,94 L17.984,94 L18.004,90.021 L21.984,90 L21.984,93 L21.984,94 Z M24.004,90.021 L27.984,90 L27.984,94 L23.984,94 L24.004,91.021 L24.004,90.021 Z M27.984,85 L27.984,88 L23.984,88 L24.004,84.021 L27.984,84 L27.984,85 Z M23.984,82 L24.004,78.021 L27.984,78 L27.984,82 L23.984,82 Z" id="Shape" fill="#FFFFFF"></path>
            <path d="M549.772,84 L551.364927,84 L551.364927,87.1684125 L554.304066,84 L556.228451,84 L553.280731,87.0741885 L556.362536,91.2459316 L554.448878,91.2459316 L552.202689,88.1613888 L551.364927,89.0321845 L551.364927,91.246967 L549.772,91.246967 L549.772,84 Z M564.743584,84 L566.336512,84 L566.336512,91.2459316 L564.743584,91.2459316 L564.743584,84 Z M567.507822,84 L569.268087,84 L571.161365,89.1036291 L573.053569,84 L574.772,84 L571.843588,91.297703 L570.436234,91.297703 L567.507822,84 Z M559.360939,88.389827 L556.615955,84 L558.45238,84 L560.156866,86.9089342 L561.891387,84 L563.677396,84 L560.932412,88.3581162 L560.932412,91.246967 L559.360939,91.246967 L559.360939,88.389827 Z" id="Combined-Shape" fill="#FFFFFF"></path>
        </g>
    </g>
</svg>