<svg width="189" height="302" viewBox="0 0 189 302" fill="none" xmlns="http://www.w3.org/2000/svg">
<g clip-path="url(#clip0_1253_1620)">
<rect x="-87" width="276" height="38" rx="6" fill="url(#paint0_linear_1253_1620)"/>
<rect x="-87" y="132" width="276" height="38" rx="6" fill="url(#paint1_linear_1253_1620)"/>
<rect x="-87" y="176" width="276" height="38" rx="6" fill="url(#paint2_linear_1253_1620)"/>
<rect x="-87" y="220" width="276" height="38" rx="6" fill="url(#paint3_linear_1253_1620)"/>
<rect x="-87" y="44" width="276" height="38" rx="6" fill="url(#paint4_linear_1253_1620)"/>
<rect x="-87" y="88" width="276" height="38" rx="6" fill="url(#paint5_linear_1253_1620)"/>
<rect x="-87" y="264" width="282" height="38" rx="6" fill="url(#paint6_linear_1253_1620)"/>
</g>
<defs>
<linearGradient id="paint0_linear_1253_1620" x1="115.357" y1="0" x2="189" y2="0" gradientUnits="userSpaceOnUse">
<stop stop-color="#0087C1"/>
<stop offset="0.521899" stop-color="#0087C1" stop-opacity="0.478101"/>
<stop offset="1" stop-color="#0087C1" stop-opacity="0"/>
</linearGradient>
<linearGradient id="paint1_linear_1253_1620" x1="70.9372" y1="144" x2="189" y2="144" gradientUnits="userSpaceOnUse">
<stop stop-color="#2E329A"/>
<stop offset="1" stop-color="#3F4A83" stop-opacity="0"/>
</linearGradient>
<linearGradient id="paint2_linear_1253_1620" x1="54.9372" y1="184.5" x2="189" y2="184.5" gradientUnits="userSpaceOnUse">
<stop stop-color="#751FB9"/>
<stop offset="1" stop-color="#751FB9" stop-opacity="0"/>
</linearGradient>
<linearGradient id="paint3_linear_1253_1620" x1="47.6797" y1="239" x2="189" y2="239" gradientUnits="userSpaceOnUse">
<stop stop-color="#F14A3F"/>
<stop offset="1" stop-color="#F14A3F" stop-opacity="0"/>
</linearGradient>
<linearGradient id="paint4_linear_1253_1620" x1="107.373" y1="44" x2="189" y2="44" gradientUnits="userSpaceOnUse">
<stop stop-color="#00B172"/>
<stop offset="1" stop-color="#00B172" stop-opacity="0"/>
</linearGradient>
<linearGradient id="paint5_linear_1253_1620" x1="110.291" y1="99" x2="189" y2="99" gradientUnits="userSpaceOnUse">
<stop stop-color="#FF8A00"/>
<stop offset="1" stop-color="#FF8A00" stop-opacity="0"/>
</linearGradient>
<linearGradient id="paint6_linear_1253_1620" x1="39.1218" y1="283" x2="195" y2="283" gradientUnits="userSpaceOnUse">
<stop stop-color="#BFB8CA"/>
<stop offset="1" stop-color="#BFB8CA" stop-opacity="0"/>
</linearGradient>
<clipPath id="clip0_1253_1620">
<rect width="189" height="302" fill="white"/>
</clipPath>
</defs>
</svg>
