<?xml version="1.0" encoding="UTF-8"?>
<svg width="120px" height="120px" viewBox="0 0 120 120" version="1.1" xmlns="http://www.w3.org/2000/svg" xmlns:xlink="http://www.w3.org/1999/xlink">
    <!-- Generator: Sketch 49.1 (51147) - http://www.bohemiancoding.com/sketch -->
    <title>Artboard Copy 8</title>
    <desc>Created with Sketch.</desc>
    <defs></defs>
    <g id="Artboard-Copy-8" stroke="none" stroke-width="1" fill="none" fill-rule="evenodd">
        <path d="M28.1560262,68.3054298 C26.5194878,69.9556229 23.8639422,69.9556229 22.2274038,68.3054298 C20.5908654,66.6552368 20.5908654,63.9775343 22.2274038,62.3273413 L59.7871694,24.4541911 L41.7787976,24.4541911 C39.4634585,24.4541911 37.5866795,22.5617529 37.5866795,20.2270955 C37.5866795,17.894064 39.4634585,16 41.7787976,16 L69.9062975,16 C72.2216365,16 74.0984156,17.894064 74.0984156,20.2270955 L74.0984156,20.3181407 L74.0984156,48.5909066 C74.0984156,50.925564 72.2216365,52.8180021 69.9062975,52.8180021 C67.5909584,52.8180021 65.7141794,50.925564 65.7141794,48.5909066 L65.7141794,30.4339054 L28.1560262,68.3054298 Z M78.2212024,95.5458089 C80.5349291,95.5458089 82.4133205,97.4382471 82.4133205,99.7729045 C82.4133205,102.107562 80.5349291,104 78.2212024,104 L50.0920902,104 C47.7767511,104 45.8999721,102.107562 45.8999721,99.7729045 L45.8999721,71.4107192 C45.8999721,69.0760619 47.7767511,67.1836237 50.0920902,67.1836237 C52.4074292,67.1836237 54.2842082,69.0760619 54.2842082,71.4107192 L54.2842082,89.5693462 L91.8439738,51.696196 C93.4805122,50.0460029 96.1344454,50.0460029 97.7725962,51.696196 C99.4091346,53.346389 99.4091346,56.0240915 97.7725962,57.6742846 L60.2128306,95.5458089 L78.2212024,95.5458089 Z" id="Fill-16" fill="#1A1919"></path>
    </g>
</svg>