<?xml version="1.0" encoding="UTF-8"?>
<svg width="84px" height="84px" viewBox="0 0 84 84" version="1.1" xmlns="http://www.w3.org/2000/svg" xmlns:xlink="http://www.w3.org/1999/xlink">
    <!-- Generator: Sketch 49.1 (51147) - http://www.bohemiancoding.com/sketch -->
    <title>chart</title>
    <desc>Created with Sketch.</desc>
    <defs>
      
    </defs>
    <g id="chart" stroke="none" stroke-width="1" fill="none" fill-rule="evenodd">
        <path d="M20.8575367,67.0553253 C20.8575367,69.2335778 19.0988771,71 16.9287684,71 C14.7600882,71 13,69.2335778 13,67.0553253 L13,56.8183992 C13,54.6387117 14.7600882,52.8722895 16.9287684,52.8722895 C19.0988771,52.8722895 20.8575367,54.6387117 20.8575367,56.8183992 L20.8575367,67.0553253 Z M70,67.0553253 C70,69.2335778 68.2399118,71 66.0712316,71 C63.9025515,71 62.1424633,69.2335778 62.1424633,67.0553253 L62.1424633,11.9461097 C62.1424633,9.76785714 63.9025515,8 66.0712316,8 C68.2399118,8 70,9.76785714 70,11.9461097 L70,67.0553253 Z M53.6663241,67.0553253 C53.6663241,69.2335778 51.9076645,71 49.7375558,71 C47.5688756,71 45.8087874,69.2335778 45.8087874,67.0553253 L45.8087874,41.5333227 C45.8087874,39.3550702 47.5688756,37.587213 49.7375558,37.587213 C51.9076645,37.587213 53.6663241,39.3550702 53.6663241,41.5333227 L53.6663241,67.0553253 Z M37.1912126,67.0553253 C37.1912126,69.2335778 35.432553,71 33.2624442,71 C31.0937641,71 29.3351045,69.2335778 29.3351045,67.0553253 L29.3351045,30.3163265 C29.3351045,28.136639 31.0937641,26.3702168 33.2624442,26.3702168 C35.432553,26.3702168 37.1912126,28.136639 37.1912126,30.3163265 L37.1912126,67.0553253 Z" id="Fill-4" fill="#1A1919"></path>
    </g>
</svg>
