<?xml version="1.0" encoding="UTF-8"?>
<svg width="120px" height="120px" viewBox="0 0 120 120" version="1.1" xmlns="http://www.w3.org/2000/svg" xmlns:xlink="http://www.w3.org/1999/xlink">
    <!-- Generator: Sketch 49.1 (51147) - http://www.bohemiancoding.com/sketch -->
    <title>Artboard Copy 5</title>
    <desc>Created with Sketch.</desc>
    <defs></defs>
    <g id="Artboard-Copy-5" stroke="none" stroke-width="1" fill="none" fill-rule="evenodd">
        <path d="M32.1674959,75.1151898 C32.1674959,77.572749 30.2016461,79.5672898 27.7758737,79.5672898 C25.3516983,79.5672898 23.3842516,77.572749 23.3842516,75.1151898 L23.3842516,64.5904256 C23.3842516,62.1312475 25.3516983,60.1383257 27.7758737,60.1383257 C30.2016461,60.1383257 32.1674959,62.1312475 32.1674959,64.5904256 L32.1674959,75.1151898 Z M25.3916221,100 C22.9658498,100 21,98.0054592 21,95.5479001 C21,93.088722 22.9658498,91.0958002 25.3916221,91.0958002 L94.6083779,91.0958002 C97.0341502,91.0958002 99,93.088722 99,95.5479001 C99,98.0054592 97.0341502,100 94.6083779,100 L25.3916221,100 Z M96.6173454,75.1151898 C96.6173454,77.572749 94.6498987,79.5672898 92.2257232,79.5672898 C89.7999509,79.5672898 87.8341011,77.572749 87.8341011,75.1151898 L87.8341011,18.4520999 C87.8341011,15.9929218 89.7999509,14 92.2257232,14 C94.6498987,14 96.6173454,15.9929218 96.6173454,18.4520999 L96.6173454,75.1151898 Z M75.1958111,75.1151898 C75.1958111,77.572749 73.2283644,79.5672898 70.8041889,79.5672898 C68.3784166,79.5672898 66.4125668,77.572749 66.4125668,75.1151898 L66.4125668,48.8737034 C66.4125668,46.4161443 68.3784166,44.4216035 70.8041889,44.4216035 C73.2283644,44.4216035 75.1958111,46.4161443 75.1958111,48.8737034 L75.1958111,75.1151898 Z M53.5890302,75.1151898 C53.5890302,77.572749 51.6231804,79.5672898 49.197408,79.5672898 C46.7732326,79.5672898 44.8057859,77.572749 44.8057859,75.1151898 L44.8057859,37.3403362 C44.8057859,34.8811581 46.7732326,32.8882363 49.197408,32.8882363 C51.6231804,32.8882363 53.5890302,34.8811581 53.5890302,37.3403362 L53.5890302,75.1151898 Z" id="Fill-11" fill="#1A1919"></path>
    </g>
</svg>