<?xml version="1.0" encoding="UTF-8"?>
<svg width="120px" height="120px" viewBox="0 0 120 120" version="1.1" xmlns="http://www.w3.org/2000/svg" xmlns:xlink="http://www.w3.org/1999/xlink">
    <!-- Generator: Sketch 49.1 (51147) - http://www.bohemiancoding.com/sketch -->
    <title>Artboard Copy 6</title>
    <desc>Created with Sketch.</desc>
    <defs></defs>
    <g id="Artboard-Copy-6" stroke="none" stroke-width="1" fill="none" fill-rule="evenodd">
        <path d="M29.9813396,99.9280407 C29.9813396,102.177391 28.2026442,104 26.0110374,104 C23.8178425,104 22.0407353,102.177391 22.0407353,99.9280407 L22.0407353,77.3873028 C22.0407353,75.1379525 23.8178425,73.3153435 26.0110374,73.3153435 C28.2026442,73.3153435 29.9813396,75.1379525 29.9813396,77.3873028 L29.9813396,99.9280407 Z M91.0525271,15 C93.5029976,15 95.7343074,16.0261337 97.3621313,17.6874931 L97.3875412,17.7135537 C99.0026601,19.383057 100,21.6666118 100,24.1765675 C100,26.6897808 98.9978957,28.9798507 97.3780125,30.6477252 L97.3526025,30.6737857 C95.7263668,32.3302588 93.4982332,33.353135 91.0525271,33.353135 C90.2203518,33.353135 89.4135864,33.2342337 88.646524,33.0127192 L68.5250328,53.6494089 C66.9750268,55.2407306 64.4610315,55.2407306 62.9110255,53.6494089 L46.2929289,36.6074448 L26.7780998,56.623568 C25.2265057,58.2132609 22.7140985,58.2132609 21.1625045,56.623568 C19.6124985,55.033875 19.6124985,52.4555104 21.1625045,50.8658175 L43.4867193,27.9700048 C45.0367253,26.3803118 47.5507206,26.3803118 49.1007266,27.9700048 L65.7172351,45.0119688 L82.7387144,27.5562937 C82.3289792,26.5089858 82.1050542,25.3672084 82.1050542,24.1765675 C82.1050542,21.6617254 83.1055703,19.3732843 84.7254536,17.703781 L84.7508635,17.6777204 C86.3770993,16.0212474 88.6052329,15 91.0525271,15 Z M94.0747211,99.9280407 C94.0747211,102.175762 92.2960257,104 90.1044189,104 C87.911224,104 86.1341168,102.175762 86.1341168,99.9280407 L86.1341168,57.2848541 C86.1341168,55.0371326 87.911224,53.2128948 90.1044189,53.2128948 C92.2960257,53.2128948 94.0747211,55.0371326 94.0747211,57.2848541 L94.0747211,99.9280407 Z M72.7716679,99.9280407 C72.7716679,102.175762 70.9929726,104 68.8013658,104 C66.6081709,104 64.8310636,102.175762 64.8310636,99.9280407 L64.8310636,73.5270854 C64.8310636,71.2793639 66.6081709,69.4551261 68.8013658,69.4551261 C70.9929726,69.4551261 72.7716679,71.2793639 72.7716679,73.5270854 L72.7716679,99.9280407 Z M51.2843927,99.9280407 C51.2843927,102.175762 49.5072855,104 47.3140906,104 C45.1224838,104 43.3437885,102.175762 43.3437885,99.9280407 L43.3437885,61.9236302 C43.3437885,59.6759086 45.1224838,57.8516709 47.3140906,57.8516709 C49.5072855,57.8516709 51.2843927,59.6759086 51.2843927,61.9236302 L51.2843927,99.9280407 Z" id="Fill-12" fill="#1A1919"></path>
    </g>
</svg>