<?xml version="1.0" encoding="UTF-8"?>
<svg width="120px" height="120px" viewBox="0 0 120 120" version="1.1" xmlns="http://www.w3.org/2000/svg" xmlns:xlink="http://www.w3.org/1999/xlink">
    <!-- Generator: Sketch 49.1 (51147) - http://www.bohemiancoding.com/sketch -->
    <title>Artboard Copy 2</title>
    <desc>Created with Sketch.</desc>
    <defs></defs>
    <g id="Artboard-Copy-2" stroke="none" stroke-width="1" fill="none" fill-rule="evenodd">
        <path d="M60.5,96.8924335 C70.5499563,96.8924335 79.6481016,92.8191922 86.2329471,86.2342267 L86.4988704,85.9650555 L86.5394075,85.9228961 L86.6221032,85.8385774 L86.8020879,85.6521034 L86.9253207,85.5207608 L87.0858475,85.3505019 L87.1847581,85.2451036 L87.4052798,85.0051196 L87.4668962,84.9370161 L87.6420165,84.7424345 L87.7295766,84.6451437 L87.7830856,84.5851477 L88.0182007,84.3159765 L88.0311726,84.3013828 L88.2760166,84.014375 L88.3019604,83.9851877 L88.5176177,83.7257456 L88.5403185,83.6981799 L88.6765231,83.5344071 L88.7981344,83.3836063 L88.9537968,83.1890247 L89.0251421,83.101463 L89.2164772,82.858236 L89.2278276,82.8436424 L89.3980834,82.6231166 L89.4224056,82.5906863 L89.6526563,82.2858418 L89.6623852,82.2744912 L89.685086,82.2436825 L89.9104722,81.938838 L89.9218226,81.9226228 L90.130994,81.632372 L90.1439659,81.6145353 L90.2542268,81.4572485 L90.4001603,81.2496948 L90.4682626,81.1507825 L90.6385184,80.902691 L90.7082422,80.8005356 L90.8963344,80.5183923 L90.932007,80.4648824 L91.0941554,80.2151693 L91.1590147,80.116257 L91.1914444,80.0659901 L91.3925084,79.7449305 L91.5919509,79.4222493 L91.6227591,79.3719824 L91.7865289,79.0979467 L91.7946364,79.0849746 L91.9243551,78.8644488 L92.024887,78.6925684 L92.1237976,78.5190664 L92.2210866,78.3488076 L92.3216186,78.1704411 L92.4221506,77.9888316 L92.5324115,77.7845209 L92.5372759,77.7780349 L92.7075317,77.4585968 L92.8923808,77.1034853 L92.9102172,77.0678121 L93.0642581,76.7645891 L93.2037057,76.4808242 L93.2491073,76.388398 L93.4307135,76.0089639 L93.5280025,75.8014102 L93.6106981,75.6214222 L93.7079872,75.4073824 L93.7469028,75.3181992 L93.871757,75.0360559 L94.022555,74.6841875 L94.0322839,74.6663509 L94.1717315,74.3306976 L94.176596,74.316104 L94.273885,74.07612 L94.3306369,73.9350484 L94.4263045,73.6918214 L94.474949,73.5669649 L94.5819669,73.2832 L94.6030462,73.2296901 L94.723036,72.9037659 L94.7295219,72.8843078 L94.8527547,72.5373039 L94.9792304,72.1724634 L95.1008417,71.8060014 L95.2062382,71.4768342 L95.222453,71.4249458 L95.3181205,71.1152368 L95.3391998,71.0455117 L95.4364889,70.721209 L95.4543252,70.65797 L95.5353994,70.3725837 L95.5726935,70.2396196 C95.7332204,69.6591178 95.8807754,69.07213 96.0137371,68.4802777 L96.0283304,68.4154171 L96.0964327,68.095979 L96.1142691,68.0149033 L96.1904788,67.6403338 L96.2585811,67.2917084 L96.2618241,67.2690072 C96.3818139,66.6349955 96.4839674,65.9944978 96.569906,65.347514 L96.5715275,65.3377849 C96.6072001,65.0767213 96.6380083,64.8156576 96.667195,64.554594 L60.5,64.554594 C58.2607309,64.554594 56.4462906,62.7384991 56.4462906,60.5008108 L56.4462906,24.3313353 C56.1836103,24.3605225 55.9225514,24.3929528 55.663114,24.4270046 L55.6533851,24.4286261 C55.0064131,24.5145663 54.365927,24.6183431 53.7303053,24.7367136 L53.7092261,24.7415782 L53.3589856,24.8096817 L53.3103411,24.8194108 L52.9860443,24.8858928 L52.9033486,24.902108 L52.5855378,24.971833 L52.5206785,24.9864267 C51.9272154,25.1177692 51.3418598,25.2653269 50.7597471,25.4274783 L50.6284069,25.4631516 L50.3414043,25.5458487 L50.2781664,25.5636854 L49.9538697,25.6593547 L49.8857674,25.6804343 L49.5744425,25.7777251 L49.522555,25.7939403 L49.1933938,25.8993386 L48.82856,26.0193306 L48.82856,26.0209521 L48.4637261,26.1458087 L48.1167286,26.2706652 L48.0972708,26.2771512 L47.7697311,26.3971432 L47.7178436,26.4166014 L47.434084,26.5252428 L47.3092297,26.5722667 L47.0660071,26.6695575 L46.9233166,26.7263104 L46.683337,26.8219797 L46.6687436,26.8284658 L46.334718,26.9679159 L46.3152602,26.9760235 L45.9650197,27.1268242 L45.68126,27.2533022 L45.5936999,27.2922186 L45.3780426,27.3895094 L45.1996793,27.4722065 L44.9905079,27.5694973 L44.8737611,27.6246288 L44.6127022,27.7511068 L44.5202777,27.7948877 L44.236518,27.9359593 L43.9316791,28.0900031 L43.8960064,28.1078397 L43.5587378,28.2829632 L43.5409015,28.2926923 L43.2230907,28.4629512 L43.2166047,28.4661942 L43.0122978,28.5780786 L42.8306916,28.6786124 L42.6507069,28.7791462 L42.4820726,28.8748155 L42.3069523,28.9753494 L42.1366965,29.0742617 L41.9161748,29.2039827 L41.9032029,29.2120903 L41.6291721,29.3758631 L41.5772847,29.4082934 L41.2562309,29.606118 L40.9351771,29.8088072 L40.8849111,29.8412375 L40.7843791,29.906098 L40.5362921,30.0682493 L40.4827831,30.1039226 L40.2006449,30.2920181 L40.0984915,30.3601217 L39.8504045,30.5303806 L39.751494,30.5984842 L39.5423225,30.7444204 L39.3866601,30.8546833 L39.3672023,30.8692769 L39.0785782,31.0784521 L38.7575244,31.3135715 L38.7250947,31.3378942 L38.7153658,31.3460018 L38.4105269,31.5762567 L38.3780972,31.6022009 L38.1575754,31.7724598 L38.1429821,31.7838104 L37.8997595,31.9751489 L37.8105779,32.044874 L37.6159999,32.2005393 L37.4668233,32.3237743 L37.3030535,32.4583599 L37.2754883,32.4810611 L37.0160509,32.6983439 L36.9852427,32.7242881 L36.6982401,32.9691366 L36.6836467,32.9821087 L36.4144804,33.2172281 L36.356107,33.2707381 L36.258818,33.3582998 L36.0642399,33.5318017 L35.9961376,33.5950407 L35.756158,33.813945 L35.6507616,33.9128573 L35.4788843,34.0733871 L35.3491656,34.1982437 L35.1626949,34.3782316 L35.0767563,34.4593073 L35.0345977,34.5014666 L34.7670529,34.7673948 C28.1822074,41.3523603 24.1090402,50.4506714 24.1090402,60.5008108 C24.1090402,70.5493286 28.1822074,79.6476397 34.7670529,86.2342267 C41.3518984,92.8191922 50.4500437,96.8924335 60.5,96.8924335 Z M96.667195,56.4470275 C95.7332204,48.0167799 91.9194906,40.4540419 86.2329471,34.7673948 C80.5464036,29.0791262 72.9838034,25.2669485 64.5537094,24.3313353 L64.5537094,56.4470275 L96.667195,56.4470275 Z M91.9648921,91.9662762 C83.9126038,100.018711 72.7876038,105 60.5,105 C48.2123962,105 37.0857747,100.018711 29.0351079,91.9662762 C20.9828196,83.9138412 16,72.7886385 16,60.5008108 C16,48.212983 20.9828196,37.0861588 29.0351079,29.0337238 C37.0857747,20.9812888 48.2123962,16 60.5,16 C72.7876038,16 83.9126038,20.9812888 91.9648921,29.0337238 C100.01718,37.0861588 105,48.212983 105,60.5008108 C105,72.7886385 100.01718,83.9138412 91.9648921,91.9662762 Z" id="Fill-9" fill="#1A1919"></path>
    </g>
</svg>