<?xml version="1.0" encoding="UTF-8"?>
<svg width="120px" height="120px" viewBox="0 0 120 120" version="1.1" xmlns="http://www.w3.org/2000/svg" xmlns:xlink="http://www.w3.org/1999/xlink">
    <!-- Generator: Sketch 49.1 (51147) - http://www.bohemiancoding.com/sketch -->
    <title>Artboard</title>
    <desc>Created with Sketch.</desc>
    <defs></defs>
    <g id="Artboard" stroke="none" stroke-width="1" fill="none" fill-rule="evenodd">
        <path d="M20.6546586,62.478903 L36.4287946,46.7129158 C35.5457147,44.9670667 35.0491844,42.9932873 35.0491844,40.903118 C35.0491844,37.3548414 36.4983412,34.1314867 38.8386646,31.7875226 L38.8305778,31.77944 C41.1676666,29.4451751 44.395922,28 47.9589715,28 C51.5058474,28 54.7292508,29.4451751 57.0711916,31.77944 L57.0986868,31.8069209 C59.4276887,34.1476519 60.870376,37.3645405 60.870376,40.903118 C60.870376,42.9932873 60.3722284,44.9670667 59.4891485,46.7129158 L75.0950788,62.3091676 C76.8353608,61.4459422 78.8004562,60.9609842 80.8787669,60.9609842 L80.8787669,60.9448189 C83.0055986,60.9448189 85.011128,61.4540249 86.7837573,62.3544304 L105.066422,44.0828265 L96.8599254,44.0828265 C94.6263478,44.0828265 92.8165192,42.2739328 92.8165192,40.0415091 C92.8165192,37.8090854 94.6263478,36.0001918 96.8599254,36.0001918 L114.956594,36.0001918 C117.188554,36.0001918 119,37.8090854 119,40.0415091 L119,58.1272124 C119,60.3596361 117.188554,62.1685298 114.956594,62.1685298 C112.723016,62.1685298 110.91157,60.3596361 110.91157,58.1272124 L110.91157,49.6711601 L92.5027509,68.0704696 C93.4052391,69.8421831 93.9147083,71.8482931 93.9147083,73.9724094 C93.9147083,77.5691819 92.4558474,80.8264836 90.0961156,83.1833799 C87.7380011,85.5418927 84.4790158,87 80.8803843,87 C77.2946917,87 74.0389411,85.5386597 71.6711225,83.1752973 L71.6630357,83.1833799 C69.3146254,80.8361828 67.8622339,77.578881 67.8622339,73.9724094 L67.8460603,73.9724094 C67.8460603,71.8078799 68.3781725,69.7645898 69.3194775,67.9653954 L53.7653027,52.4224889 C52.0169339,53.3083457 50.0453691,53.8078525 47.9589715,53.8078525 C45.8741913,53.8078525 43.9010091,53.3083457 42.1526403,52.4224889 L26.3768869,68.1900926 C27.2534974,69.9278591 27.7484103,71.8935558 27.7484103,73.9724094 C27.7484103,77.5093704 26.3041056,80.7246424 23.9686342,83.0621404 L23.9783384,83.070223 C21.6477191,85.3996383 18.4275505,86.8399638 14.8742051,86.8399638 C11.3337987,86.8399638 8.11686481,85.3964053 5.7781587,83.0621404 L5.77007188,83.070223 C3.45077412,80.7521234 2.01455626,77.5352348 2.01617362,73.9724094 L2,73.9724094 C2,70.4192832 3.44106995,67.2023947 5.77007188,64.8745959 C8.09098701,62.5548797 11.3079209,61.1210203 14.8725878,61.1210203 L14.8725878,61.1048551 C16.9508985,61.1048551 18.9159939,61.5995123 20.6546586,62.478903 Z M78.1826237,69.8130856 C78.0225048,70.0701134 77.8316561,70.3125925 77.60846,70.5356732 C77.3593862,70.7830018 77.0876693,70.9931503 76.7981615,71.1628856 C76.2531103,71.9598334 75.9328725,72.9265165 75.9328725,73.9707929 L75.9166989,73.9724094 C75.9166989,75.327059 76.4763063,76.5653186 77.3820293,77.4689572 L77.3723251,77.4770398 L77.3820293,77.4851225 C78.2667266,78.3693627 79.5023915,78.9173653 80.8787669,78.9173653 C82.2470556,78.9173653 83.4843378,78.3628966 84.3787393,77.4689572 C85.2747581,76.5750178 85.827896,75.3383747 85.827896,73.9724094 C85.827896,72.6064442 85.2747581,71.3698011 84.3787393,70.4758617 C83.4843378,69.5819223 82.2470556,69.0274536 80.8803843,69.0274536 L80.8787669,69.0112883 C79.8889411,69.0112883 78.9621924,69.3071127 78.1826237,69.8130856 Z M44.4444429,44.2056825 L44.5511888,44.3091402 C44.6175007,44.3738013 44.6789605,44.4400789 44.7388029,44.5095896 C45.5846834,45.2645076 46.7136024,45.7252178 47.9589715,45.7252178 C49.2221316,45.7252178 50.3639895,45.2515754 51.2131048,44.4788756 L51.3699889,44.3123733 C52.2417473,43.4410653 52.7819464,42.2351362 52.7819464,40.903118 C52.7819464,39.5614006 52.2482168,38.3570881 51.3861626,37.4954792 L51.3699889,37.4793139 C50.5079348,36.6177051 49.3013824,36.0826347 47.9589715,36.0826347 C46.6278822,36.0826347 45.4213298,36.6241712 44.5495715,37.4954792 L44.5398673,37.4873966 L44.5333978,37.4954792 C43.6697263,38.3570881 43.1359967,39.5614006 43.1359967,40.903118 C43.1359967,42.1817908 43.6341443,43.3440736 44.4444429,44.2056825 Z M18.2674316,70.5809359 C17.4021427,69.7209436 16.2036771,69.1874897 14.8742051,69.1874897 L14.8725878,69.1713245 C13.5625242,69.1713245 12.3640586,69.7144775 11.4890655,70.5890186 C10.6237766,71.4538605 10.0868123,72.6500904 10.0868123,73.9707929 L10.0706387,73.9724094 C10.0706387,75.2834128 10.6140724,76.4812592 11.4890655,77.3558003 L11.4809787,77.363883 L11.4890655,77.3719656 C12.3446503,78.2271083 13.5398811,78.7573292 14.8725878,78.7573292 C16.1955903,78.7573292 17.3940558,78.2206422 18.2593448,77.3558003 L18.2674316,77.363883 L18.2755184,77.3558003 C19.1311031,76.5006576 19.661598,75.3044276 19.661598,73.9724094 C19.661598,72.6500904 19.126251,71.4538605 18.2593448,70.5890186 L18.2674316,70.5809359 Z" id="Fill-6" fill="#1A1919"></path>
    </g>
</svg>