<?xml version="1.0" encoding="UTF-8"?>
<svg width="120px" height="120px" viewBox="0 0 120 120" version="1.1" xmlns="http://www.w3.org/2000/svg" xmlns:xlink="http://www.w3.org/1999/xlink">
    <!-- Generator: Sketch 49.1 (51147) - http://www.bohemiancoding.com/sketch -->
    <title>Artboard Copy 7</title>
    <desc>Created with Sketch.</desc>
    <defs></defs>
    <g id="Artboard-Copy-7" stroke="none" stroke-width="1" fill="none" fill-rule="evenodd">
        <path d="M21.699797,11 L98.2985851,11 C102.331888,11 106.006029,12.6506723 108.677101,15.3114335 L108.683573,15.3033657 C111.346556,17.9592861 113,21.6252954 113,25.6624236 L113,95.3375764 C113,99.3634097 111.346556,103.024578 108.685191,105.680499 L108.669012,105.696634 C106.006029,108.350941 102.335124,110 98.2985851,110 L21.699797,110 C17.6729651,110 14.0004426,108.350941 11.330988,105.695021 L11.3148094,105.680499 C8.65182619,103.01651 7,99.3553419 7,95.3375764 L7,25.6624236 C7,21.6252954 8.65182619,17.9592861 11.3148094,15.3033657 C13.9777927,12.6490588 17.6535509,11 21.699797,11 Z M79.1917612,83.056768 C77.4040355,83.056768 75.9560585,81.6110178 75.9560585,79.8296471 C75.9560585,78.0466629 77.4040355,76.6025263 79.1917612,76.6025263 L90.770723,76.6025263 C92.5568308,76.6025263 94.0064256,78.0466629 94.0064256,79.8296471 C94.0064256,81.6110178 92.5568308,83.056768 90.770723,83.056768 L79.1917612,83.056768 Z M79.1917612,72.4201777 C77.4040355,72.4201777 75.9560585,70.9744275 75.9560585,69.1930568 C75.9560585,67.4116861 77.4040355,65.9659359 79.1917612,65.9659359 L90.770723,65.9659359 C92.5568308,65.9659359 94.0064256,67.4116861 94.0064256,69.1930568 C94.0064256,70.9744275 92.5568308,72.4201777 90.770723,72.4201777 L79.1917612,72.4201777 Z M79.1917612,62.0143265 C77.4040355,62.0143265 75.9560585,60.5685763 75.9560585,58.7872056 C75.9560585,57.0058349 77.4040355,55.5600848 79.1917612,55.5600848 L90.770723,55.5600848 C92.5568308,55.5600848 94.0064256,57.0058349 94.0064256,58.7872056 C94.0064256,60.5685763 92.5568308,62.0143265 90.770723,62.0143265 L79.1917612,62.0143265 Z M42.6137609,73.7352294 L42.6137609,59.8505419 L42.4972756,59.8811996 L42.4875685,59.8844267 L42.3791725,59.9134708 L42.2626872,59.945742 L42.1462019,59.9796268 L42.0313344,60.0151251 L41.916467,60.0506234 L41.8080709,60.0845082 L41.7999817,60.0877353 C41.6851142,60.1248472 41.5718646,60.1635727 41.4586151,60.2039117 L41.3453655,60.2442507 L41.3081549,60.2571592 L41.2321159,60.2862032 L41.1431341,60.3184745 L41.1188663,60.3281558 L41.0072345,60.3717219 L40.9036921,60.412061 L40.8891314,60.4185152 L40.7839711,60.4604678 L40.6739572,60.5056475 L40.654543,60.5137153 L40.5639433,60.5524407 L40.5396755,60.5637356 L40.2387552,60.6976612 L40.2371373,60.6992747 L40.175659,60.7267052 L40.1287413,60.7492951 L40.0203452,60.800929 L40.0171095,60.800929 L39.860178,60.8783799 L39.8067889,60.9058104 L39.7048642,60.9558308 L39.7000107,60.9590579 L39.5948503,61.013919 L39.5495505,61.0365088 L39.48969,61.0687801 L39.3958546,61.1188004 L39.3845297,61.1252547 L39.2793693,61.1817293 L39.2437766,61.2027056 L39.1758269,61.2398175 L39.0933164,61.2882243 L39.0739022,61.2995192 L38.9703597,61.3592209 L38.9428563,61.3753565 L38.8684351,61.4189227 L38.794014,61.4641024 L38.7681283,61.480238 L38.6662037,61.5415533 L38.6467895,61.5544617 L38.5658969,61.6060957 L38.499565,61.6464347 L38.4655901,61.6690245 L38.3669012,61.7335669 L38.3555762,61.7416347 L38.2682123,61.7981094 L38.2099696,61.8368348 L38.1695233,61.8642653 L38.0724523,61.9320349 L38.0675987,61.935262 L37.9753812,61.9981909 L37.9252278,62.0336892 L37.8783101,62.067574 L37.7860926,62.1337299 L37.7828569,62.1369571 L37.6890215,62.2063402 L37.6469574,62.2369978 L37.5935683,62.2773368 L37.5078222,62.3418792 L37.4997329,62.3483335 L37.4058975,62.4209437 L37.3719226,62.4467607 L37.31368,62.4935539 L37.2360231,62.5548692 L37.2214625,62.5661641 L37.1017415,62.6629778 L37.0386453,62.7162252 L36.9706955,62.7726999 L36.9480456,62.7920626 L36.8590638,62.8678999 L36.8396496,62.8856491 L36.770082,62.9453508 L36.7086036,62.9985983 L36.6811001,63.0244153 L36.5937362,63.1018662 L36.5807934,63.1131611 L36.5063722,63.1825442 L36.4529831,63.230951 L36.4206261,63.2616087 L36.33488,63.3422867 L36.3284086,63.3487409 L36.2491338,63.4245783 L36.203834,63.4681444 L36.1650056,63.5068699 L36.0808773,63.5891614 C33.4777545,66.1853802 31.8679925,69.772325 31.8679925,73.7352294 C31.8679925,77.6981338 33.4777545,81.2866922 36.0808773,83.8812974 C38.6840001,86.4775161 42.2821014,88.0846223 46.2555442,88.0846223 C50.228987,88.0846223 53.8254705,86.4775161 56.4285932,83.8812974 L56.5111036,83.7973922 L56.5499321,83.7586668 L56.5936141,83.7134871 L56.6696531,83.6360362 L56.6761245,83.6295819 L56.7553992,83.5440632 L56.7877562,83.5101785 L56.8362918,83.4585445 L56.9042415,83.3843208 L56.9155665,83.3714123 L56.9948412,83.2826664 L57.0207268,83.2552359 L57.0724981,83.1955342 L57.1339764,83.1261511 L57.1501549,83.1067884 L57.2278118,83.016429 L57.2456081,82.9954527 L57.3038508,82.9260696 L57.3572399,82.8631407 L57.378272,82.8357102 L57.4526931,82.7453508 L57.4656359,82.7292152 L57.5271143,82.6533779 L57.574032,82.5952897 L57.5999176,82.5597914 L57.6727209,82.4678184 L57.7439063,82.3742319 L57.7843526,82.3209844 L57.8150918,82.2790319 L57.8846594,82.1838318 L57.8862773,82.1822182 L57.954227,82.0886317 L57.9882019,82.0418385 L58.0221768,81.9934317 L58.0868908,81.9014587 L58.0901265,81.896618 L58.1580763,81.7981909 L58.1839619,81.7594654 L58.2244082,81.7013772 L58.281033,81.614245 L58.2891222,81.60295 L58.3538363,81.5029093 L58.3748684,81.4690245 L58.4169325,81.4044821 L58.4687037,81.3238041 L58.4800287,81.3028278 L58.541507,81.2027871 L58.5593034,81.1769701 L58.6046032,81.1011328 L58.6482852,81.0285225 L58.6644637,80.9994784 L58.7243242,80.8978241 L58.7356492,80.8784614 L58.7825669,80.7945563 L58.8213953,80.7267867 L58.8408095,80.6912884 L58.8990522,80.5880205 L58.9055236,80.5751121 L58.955677,80.4831391 L58.988034,80.4218238 L59.0106839,80.3782577 L59.0656909,80.2733763 L59.0673087,80.2685356 L59.11908,80.1668813 L59.1465834,80.1136338 L59.1724691,80.0603863 L59.2226224,79.9571184 L59.2242403,79.9538913 L59.2760115,79.8457827 L59.2970436,79.7989895 L59.3261649,79.7376742 L59.3277828,79.7360606 C59.4248539,79.5214571 59.5186892,79.30524 59.6076711,79.0874093 L59.6545887,78.9696194 L59.6982707,78.8582838 L59.7079778,78.8340804 L59.7403349,78.7453345 L59.7694562,78.6694972 L59.782399,78.6323853 L59.8228453,78.5194361 C59.8632916,78.4064868 59.90212,78.291924 59.9393306,78.1773613 L59.9409484,78.170907 L59.9749233,78.0627985 L60.010516,77.9482357 L60.0461088,77.8336729 L60.0461088,77.8320593 L60.0800836,77.715883 L60.1140585,77.5997066 L60.1431798,77.4932116 L60.1464155,77.4835303 L60.1771547,77.3657404 L46.2555442,77.3657404 C44.244555,77.3657404 42.6137609,75.740885 42.6137609,73.7352294 Z M49.8957096,59.8505419 L49.8957096,70.1047184 L60.1771547,70.1047184 C59.5219249,67.6004727 58.2066118,65.3624643 56.4285932,63.5891614 C54.6489568,61.814245 52.4066149,60.5024203 49.8957096,59.8505419 Z M61.5749783,89.0156466 C57.6549245,92.9269171 52.2383583,95.3456442 46.2555442,95.3456442 C40.27273,95.3456442 34.8561639,92.9269171 30.9344923,89.0156466 C27.0128207,85.1059897 24.5876616,79.7021759 24.5876616,73.7352294 C24.5876616,67.7682829 27.0128207,62.3660826 30.9344923,58.4548122 C34.8561639,54.5435417 40.27273,52.1248146 46.2555442,52.1248146 C52.2383583,52.1248146 57.6549245,54.5451552 61.5749783,58.4548122 C65.4966498,62.3660826 67.9234268,67.7682829 67.9234268,73.7352294 C67.9234268,79.7021759 65.4966498,85.1043762 61.5749783,89.0156466 Z M66.6938598,33.8819004 C64.014698,33.8819004 61.8419237,31.7148888 61.8419237,29.0412191 C61.8419237,26.3675495 64.014698,24.2005379 66.6938598,24.2005379 L66.8184343,24.2005379 C69.499214,24.2005379 71.6719883,26.3675495 71.6719883,29.0412191 C71.6719883,31.7148888 69.499214,33.8819004 66.8184343,33.8819004 L66.6938598,33.8819004 Z M80.4019139,33.8819004 C77.7211343,33.8819004 75.54836,31.7148888 75.54836,29.0412191 C75.54836,26.3675495 77.7211343,24.2005379 80.4019139,24.2005379 L80.5248706,24.2005379 C83.2056503,24.2005379 85.3784246,26.3675495 85.3784246,29.0412191 C85.3784246,31.7148888 83.2056503,33.8819004 80.5248706,33.8819004 L80.4019139,33.8819004 Z M93.58902,33.8819004 C90.9098582,33.8819004 88.7370839,31.7148888 88.7370839,29.0412191 C88.7370839,26.3675495 90.9098582,24.2005379 93.58902,24.2005379 L93.7135945,24.2005379 C96.3943742,24.2005379 98.5671485,26.3675495 98.5671485,29.0412191 C98.5671485,31.7148888 96.3943742,33.8819004 93.7135945,33.8819004 L93.58902,33.8819004 Z M15.0876387,37.6640861 L104.910743,37.6640861 L104.910743,25.6624236 C104.910743,23.8520088 104.164914,22.2045636 102.966086,21.0073018 L102.966086,20.9927797 C101.775348,19.8051993 100.123521,19.0678021 98.2985851,19.0678021 L21.699797,19.0678021 C19.8861857,19.0678021 18.2343595,19.8100399 17.0339138,21.0073018 C15.8334682,22.2045636 15.0876387,23.8520088 15.0876387,25.6624236 L15.0876387,37.6640861 Z M104.910743,46.5370548 L15.0876387,46.5370548 L15.0876387,95.3375764 C15.0876387,97.1576726 15.8269967,98.8051178 17.0177353,99.9926982 L17.0339138,100.00722 C18.2230345,101.194801 19.8764786,101.932198 21.699797,101.932198 L98.2985851,101.932198 C100.118668,101.932198 101.77373,101.191574 102.974175,100.000766 C104.16815,98.8035042 104.910743,97.1528319 104.910743,95.3375764 L104.910743,46.5370548 Z" id="Fill-17" fill="#1A1919"></path>
    </g>
</svg>