<?xml version="1.0" encoding="UTF-8"?>
<svg width="120px" height="120px" viewBox="0 0 120 120" version="1.1" xmlns="http://www.w3.org/2000/svg" xmlns:xlink="http://www.w3.org/1999/xlink">
    <!-- Generator: Sketch 49.1 (51147) - http://www.bohemiancoding.com/sketch -->
    <title>Artboard Copy 9</title>
    <desc>Created with Sketch.</desc>
    <defs></defs>
    <g id="Artboard-Copy-9" stroke="none" stroke-width="1" fill="none" fill-rule="evenodd">
        <path d="M29.9318366,47.8668502 L29.9318366,22.6541388 C29.9318366,20.0064463 31.0403029,17.5956945 32.8239113,15.8480584 L32.8239113,15.8337466 C34.6075196,14.0861105 37.0727617,13 39.7846903,13 L77.7792805,13 C80.492832,13 82.9564512,14.0861105 84.7400595,15.8337466 C86.5236678,17.5813826 87.6321342,19.9953149 87.6321342,22.6541388 L87.6321342,29.8895747 L105.299432,29.8895747 C107.694888,29.8895747 109.87287,30.8484688 111.447119,32.3909683 C113.021369,33.9334678 114,36.0675239 114,38.4162577 L114,97.4749072 C114,99.8125096 113.021369,101.940205 111.447119,103.482704 L111.432513,103.498606 C109.856641,105.041106 107.68515,106 105.299432,106 L14.702191,106 C12.3051123,106 10.128753,105.041106 8.55450365,103.498606 C6.98025426,101.956107 6,99.8236411 6,97.4749072 L6,56.3935332 C6,54.0622916 6.97863132,51.9345964 8.55450365,50.3841458 L8.56911009,50.3682438 C10.1514742,48.8257442 12.3229646,47.8668502 14.702191,47.8668502 L29.9318366,47.8668502 Z M22.4760617,94.8781013 C19.7868542,94.8781013 17.6072491,92.7424551 17.6072491,90.1074842 C17.6072491,87.4741036 19.7868542,85.3368671 22.4760617,85.3368671 L22.5864214,85.3368671 C25.274006,85.3368671 27.455234,87.4741036 27.455234,90.1074842 C27.455234,92.7424551 25.274006,94.8781013 22.5864214,94.8781013 L22.4760617,94.8781013 Z M96.7611577,94.8781013 C94.0735732,94.8781013 91.8923451,92.7424551 91.8923451,90.1074842 C91.8923451,87.4741036 94.0735732,85.3368671 96.7611577,85.3368671 L96.8715174,85.3368671 C99.5607249,85.3368671 101.74033,87.4741036 101.74033,90.1074842 C101.74033,92.7424551 99.5607249,94.8781013 96.8715174,94.8781013 L96.7611577,94.8781013 Z M30.0811469,98.0235282 L30.0762781,97.9980849 L30.0730322,97.9710514 L30.0681634,97.9456081 L30.0665404,97.9328865 C30.0454423,97.8152113 30.0275899,97.697536 30.0129835,97.5782706 L30.0113606,97.5735 L30.0016229,97.5003505 L29.9983771,97.473317 L29.9967541,97.4526444 L29.9967541,97.4478737 L29.9870165,97.3683635 L29.9707871,97.2093429 L29.9707871,97.2077527 L29.9691642,97.1823094 C29.9513119,96.9867141 29.9399513,96.792709 29.9350825,96.5939333 L29.9350825,96.5907529 L29.9318366,96.3458612 L29.9318366,55.8178787 L14.702191,55.8178787 C14.5350284,55.8178787 14.388964,55.8783065 14.2899648,55.9753091 L14.2753584,55.9896209 C14.1763592,56.0866235 14.1146876,56.229742 14.1146876,56.3935332 L14.1146876,97.4749072 C14.1146876,97.627567 14.182851,97.7722757 14.2899648,97.8772293 C14.3987016,97.9837731 14.544766,98.0489715 14.702191,98.0489715 L30.0860157,98.0489715 L30.0811469,98.0235282 Z M87.6321342,37.8406033 L87.6305112,96.4285519 L87.6305112,96.5096524 L87.6288883,96.5637194 L87.6272654,96.6177864 L87.6272654,96.6448199 L87.6256424,96.6718534 L87.6240195,96.7179693 L87.6223965,96.7529538 L87.6207736,96.7799873 L87.6207736,96.8070208 L87.6191507,96.8340543 L87.6191507,96.8420054 L87.6175277,96.8610878 L87.6159048,96.8865311 L87.6142819,96.9135646 L87.6126589,96.9405981 L87.611036,96.9644512 L87.611036,96.9676316 L87.609413,96.9946651 L87.6077901,97.0216986 L87.6061672,97.0487321 L87.6029213,97.0741754 L87.6029213,97.086897 L87.6012984,97.1012089 L87.5996754,97.1282424 L87.5964295,97.1552759 L87.5899378,97.2347862 L87.5866919,97.2618197 L87.5818231,97.3142965 L87.5802002,97.3317887 L87.5785772,97.34133 L87.5737084,97.3938067 L87.5704625,97.4208402 L87.557479,97.5257938 L87.5542332,97.5528273 L87.5477414,97.6053041 L87.5444955,97.6307474 L87.5396267,97.6577809 L87.5363808,97.6848144 L87.5363808,97.6943556 L87.533135,97.7102577 L87.5298891,97.735701 L87.5250203,97.7627345 L87.5169056,97.8136211 L87.5169056,97.8152113 L87.5136597,97.8406545 L87.5039221,97.8931313 L87.5006762,97.9201648 L87.4779551,98.0489715 L105.299432,98.0489715 C105.461726,98.0489715 105.609413,97.9869535 105.716527,97.8867705 L105.721396,97.8835901 C105.822018,97.7786365 105.885312,97.6339278 105.885312,97.4749072 L105.885312,38.4162577 C105.885312,38.2620078 105.818772,38.117299 105.710035,38.0123455 C105.602921,37.9073919 105.456857,37.8406033 105.299432,37.8406033 L87.6321342,37.8406033 Z M79.5174466,96.3681241 L79.5174466,82.73052 L38.0465242,82.73052 L38.0465242,96.3887967 L38.0481471,96.4110596 L38.0497701,96.4333225 L38.0497701,96.4539952 L38.051393,96.4762581 L38.053016,96.4969307 L38.0546389,96.5191936 L38.0562618,96.5191936 L38.0578848,96.5398663 L38.0627536,96.5828018 L38.0643765,96.5828018 L38.0659995,96.6034745 L38.0676224,96.6034745 L38.0708683,96.6241472 L38.0741141,96.6448199 L38.07736,96.6654925 L38.0822288,96.6861652 L38.0870976,96.7068379 L38.0919665,96.7275106 L38.0968353,96.7481832 L38.1017041,96.7672657 L38.1065729,96.7879384 L38.1081958,96.7879384 L38.1130646,96.808611 L38.1195564,96.8276935 L38.1260481,96.8483662 L38.1325399,96.8690389 L38.1390316,96.8881213 L38.1455234,96.9072038 L38.1536381,96.9262863 L38.1601298,96.9469589 L38.1682445,96.9660414 L38.1763592,96.9851239 L38.1844739,97.0042064 L38.1925886,97.0232888 L38.2007033,97.0423713 L38.2023262,97.0423713 L38.2104409,97.0614538 L38.2185556,97.078946 L38.2201785,97.078946 L38.2282932,97.0980285 L38.2299161,97.0980285 L38.2380308,97.1155207 L38.2477685,97.1346032 L38.2493914,97.1346032 L38.2575061,97.1520955 L38.259129,97.1520955 L38.2688666,97.1711779 L38.2786043,97.1886702 L38.2899648,97.2061625 L38.2997025,97.2236547 L38.3013254,97.2236547 L38.311063,97.241147 L38.3224236,97.2586393 L38.3240465,97.2586393 L38.3337841,97.2761315 L38.3354071,97.2761315 L38.3451447,97.2936238 L38.3467676,97.2936238 L38.3581282,97.3095258 L38.3694888,97.3270181 L38.3711117,97.3270181 L38.3824723,97.3429202 L38.3954558,97.3604124 L38.4068163,97.3763145 L38.4084393,97.3763145 L38.4197998,97.3922165 L38.4214228,97.3922165 L38.4327833,97.4081186 L38.4473898,97.4240207 L38.4603733,97.4399227 L38.4733568,97.4558248 L38.4879632,97.4717268 L38.5009467,97.4860387 L38.5025697,97.4860387 L38.5155532,97.5019407 L38.5171761,97.5019407 L38.5301596,97.5162526 L38.544766,97.5321546 L38.5593725,97.5464665 C38.832026,97.8120308 39.1906952,97.9933143 39.5866919,98.0378401 L39.609413,98.0410205 L39.6305112,98.0426107 L39.6743305,98.0457911 L39.740871,98.0489715 L77.8458209,98.0473813 L77.8669191,98.0473813 L77.8880173,98.0457911 L77.8896402,98.0457911 L77.9091155,98.0442009 L77.9107384,98.0442009 L77.9302137,98.0426107 L77.9334596,98.0426107 L77.9513119,98.0410205 L77.9545577,98.0410205 L77.974033,98.0378401 L77.9772789,98.0378401 L77.9951312,98.0362499 L77.9983771,98.0346596 L78.0162294,98.0330694 L78.0194753,98.0330694 L78.0373276,98.029889 L78.0405734,98.029889 L78.0584258,98.0267086 L78.0632946,98.0251184 L78.0795239,98.0235282 L78.0843928,98.021938 L78.1006221,98.0203478 L78.1054909,98.0187576 L78.1200974,98.0155772 L78.1265891,98.013987 L78.1411956,98.0108066 L78.1476873,98.0108066 L78.1622938,98.0060359 L78.1687855,98.0044457 L78.181769,98.0012653 L78.1882608,97.9996751 L78.2028672,97.9964947 L78.2093589,97.9949045 L78.2239654,97.9917241 L78.2304571,97.9901339 L78.2434406,97.9869535 L78.2515553,97.9837731 L78.2645388,97.9805927 L78.2710306,97.9774122 L78.2840141,97.9742318 L78.2921288,97.9710514 L78.3034893,97.967871 L78.311604,97.9646906 L78.3229646,97.9615102 L78.3310793,97.9583298 L78.3440628,97.9551494 L78.3521774,97.9519689 L78.363538,97.9471983 L78.3716527,97.9440179 L78.3830133,97.9408375 L78.3911279,97.9376571 L78.4024885,97.9328865 L78.4122261,97.9297061 L78.4219638,97.9265257 L78.4317014,97.921755 L78.4511766,97.913804 L78.4592913,97.9106236 L78.4706519,97.905853 L78.4787666,97.9026726 L78.4901271,97.897902 L78.4982418,97.8931313 L78.5079794,97.8883607 L78.5160941,97.8851803 L78.5274547,97.8804097 L78.5355694,97.8756391 L78.5469299,97.8708685 L78.5534217,97.8660978 L78.5647823,97.8613272 L78.5728969,97.8565566 L78.5842575,97.851786 L78.5907493,97.8486056 L78.6021098,97.8422448 L78.6086016,97.8374741 L78.6215851,97.8311133 L78.6264539,97.8279329 L78.6443062,97.8183917 L78.6572897,97.8104406 L78.6621585,97.8072602 L78.675142,97.8008994 L78.6978631,97.7865876 L78.7108466,97.7786365 L78.7157154,97.7754561 L78.7286989,97.7675051 L78.7319448,97.7643247 L78.7627806,97.743652 L78.7660265,97.7420618 L78.7806329,97.7325206 L78.7838788,97.7293402 L78.7968623,97.7197989 L78.8001082,97.7182087 L78.8147146,97.7070773 L78.8163376,97.7054871 L78.830944,97.6959458 L78.8341899,97.6927654 L78.8471734,97.6832242 L78.8487963,97.6800438 L78.8634028,97.6705025 L78.8650257,97.6673221 L78.8796321,97.6561907 L78.8812551,97.6546005 L78.8958615,97.643469 L78.8974844,97.6418788 L78.9120909,97.6307474 L78.9137138,97.6291572 L78.9283203,97.6164355 L78.9429267,97.6037139 L78.9445496,97.6021237 L78.9591561,97.589402 L78.9591561,97.5878118 L78.9737625,97.5750902 L78.9883689,97.5607783 L78.9899919,97.5607783 L79.0029754,97.5464665 L79.0045983,97.5464665 L79.0175818,97.5321546 L79.0192048,97.5321546 L79.0321883,97.5162526 L79.0467947,97.5019407 L79.0484176,97.5019407 L79.0614011,97.4860387 L79.0760076,97.4717268 L79.0889911,97.4558248 L79.090614,97.4558248 L79.1035975,97.4399227 L79.116581,97.4240207 L79.1295645,97.4081186 L79.142548,97.3922165 L79.1441709,97.3922165 L79.1555315,97.3763145 L79.1571544,97.3763145 L79.168515,97.3604124 L79.1814985,97.3429202 L79.1928591,97.3270181 L79.2058426,97.3095258 L79.2172031,97.2936238 L79.2188261,97.2936238 L79.2285637,97.2761315 L79.2301866,97.2761315 L79.2399243,97.2586393 L79.2415472,97.2586393 L79.2512848,97.241147 L79.2626454,97.2236547 L79.2642683,97.2236547 L79.274006,97.2061625 L79.2853665,97.1886702 L79.2951041,97.1711779 L79.3048418,97.1520955 L79.3145794,97.1346032 L79.3162023,97.1346032 L79.324317,97.1155207 L79.3340546,97.0980285 L79.3437923,97.078946 L79.3535299,97.0614538 L79.3616446,97.0423713 L79.3713822,97.0232888 L79.3794969,97.0042064 L79.3876116,96.9851239 L79.3957263,96.9660414 L79.402218,96.9469589 L79.403841,96.9469589 L79.4103327,96.9262863 L79.4184474,96.9072038 L79.4249391,96.8881213 L79.4314309,96.8690389 L79.4379226,96.8483662 L79.4444144,96.8276935 L79.4509061,96.808611 L79.455775,96.7879384 L79.4573979,96.7879384 L79.4622667,96.7672657 L79.4671355,96.7481832 L79.4720043,96.7275106 L79.4768731,96.7068379 L79.481742,96.6861652 L79.4849878,96.6654925 L79.4866108,96.6654925 L79.4898566,96.6448199 L79.4931025,96.6241472 L79.4963484,96.6034745 L79.4979713,96.6034745 L79.4995943,96.5828018 L79.5012172,96.5828018 L79.5028401,96.560539 L79.506086,96.5398663 L79.507709,96.5191936 L79.5093319,96.4969307 L79.5109548,96.4969307 L79.5125778,96.4762581 L79.5142007,96.4539952 L79.5142007,96.4333225 L79.5158236,96.4110596 L79.5158236,96.3887967 L79.5174466,96.3681241 Z M79.5174466,74.7779013 L79.5174466,22.6541388 C79.5174466,22.1897987 79.3210711,21.7652138 79.0045983,21.4551237 C78.6881255,21.1450336 78.2531783,20.9510285 77.7792805,20.9510285 L39.7846903,20.9510285 C39.3107925,20.9510285 38.8758453,21.1434434 38.5593725,21.4535335 L38.5528807,21.4471727 C38.2412767,21.7556726 38.0465242,22.1834379 38.0465242,22.6541388 L38.0465242,74.7779013 L79.5174466,74.7779013 Z M53.2810387,31.6403912 C51.4893157,31.6403912 50.0351636,30.2155669 50.0351636,28.4599798 C50.0351636,26.7028025 51.4893157,25.2795684 53.2810387,25.2795684 L64.2829321,25.2795684 C66.0746551,25.2795684 67.5288071,26.7028025 67.5288071,28.4599798 C67.5288071,30.2155669 66.0746551,31.6403912 64.2829321,31.6403912 L53.2810387,31.6403912 Z M58.725994,94.8781013 C56.0384095,94.8781013 53.8571815,92.7424551 53.8571815,90.1074842 C53.8571815,87.4741036 56.0384095,85.3368671 58.725994,85.3368671 L58.8363538,85.3368671 C61.5255613,85.3368671 63.7051664,87.4741036 63.7051664,90.1074842 C63.7051664,92.7424551 61.5255613,94.8781013 58.8363538,94.8781013 L58.725994,94.8781013 Z" id="Fill-18" fill="#1A1919"></path>
    </g>
</svg>