<?xml version="1.0" encoding="UTF-8"?>
<svg width="84px" height="84px" viewBox="0 0 84 84" version="1.1" xmlns="http://www.w3.org/2000/svg" xmlns:xlink="http://www.w3.org/1999/xlink">
    <!-- Generator: Sketch 49.1 (51147) - http://www.bohemiancoding.com/sketch -->
    <title>Gauges</title>
    <desc>Created with Sketch.</desc>
    <defs>
      
    </defs>
    <g id="gauges" stroke="none" stroke-width="1" fill="none" fill-rule="evenodd">
        <path d="M13.5663338,25.0195558 C11.5977175,25.0195558 10,23.4052439 10,21.4129608 C10,19.4206778 11.5977175,17.8063659 13.5663338,17.8063659 L43.9728959,17.8063659 C44.4935806,16.3810396 45.3138374,15.1028624 46.3552068,14.0497367 C48.2182596,12.1656515 50.7931526,11 53.636234,11 C56.4793153,11 59.0542083,12.1656515 60.9172611,14.0497367 C61.9586305,15.1028624 62.7788873,16.3810396 63.299572,17.8063659 L71.0370899,17.8063659 C73.0057061,17.8063659 74.6034237,19.4206778 74.6034237,21.4129608 C74.6034237,23.4052439 73.0057061,25.0195558 71.0370899,25.0195558 L63.299572,25.0195558 C62.7788873,26.4448821 61.9586305,27.7230593 60.9172611,28.776185 C59.0542083,30.6617128 56.4793153,31.8273643 53.636234,31.8273643 C50.8059914,31.8273643 48.2339515,30.6588276 46.3623395,28.7689718 L46.3552068,28.776185 C45.3138374,27.7230593 44.4935806,26.4448821 43.9728959,25.0195558 L13.5663338,25.0195558 Z M13.5663338,46.3504007 C11.5977175,46.3504007 10,44.7360888 10,42.7438058 C10,40.7515228 11.5977175,39.1372109 13.5663338,39.1372109 L21.7475036,39.1372109 C22.2696148,37.7190978 23.0870185,36.4452485 24.1269615,35.395008 L24.1398003,35.3805816 C26.0042796,33.4964965 28.574893,32.3294023 31.4079886,32.3294023 C34.2510699,32.3294023 36.8259629,33.4964965 38.6890157,35.3805816 C38.767475,35.4584841 38.8402282,35.5407144 38.9101284,35.6243875 C39.8445078,36.6299061 40.5848787,37.8215251 41.0670471,39.1372109 L71.0370899,39.1372109 C73.0057061,39.1372109 74.6034237,40.7515228 74.6034237,42.7438058 C74.6034237,44.7360888 73.0057061,46.3504007 71.0370899,46.3504007 L41.0670471,46.3504007 C40.5463623,47.7685139 39.7289586,49.0423632 38.6890157,50.0940463 L38.6747504,50.10703 C36.8116976,51.9925578 34.2410842,53.1582093 31.4079886,53.1582093 C28.574893,53.1582093 26.0042796,51.9925578 24.1398003,50.10703 L24.1269615,50.0940463 C23.0870185,49.0423632 22.2681883,47.7685139 21.7475036,46.3504007 L13.5663338,46.3504007 Z M28.2624822,42.3932448 C28.2724679,42.5086558 28.278174,42.6255095 28.278174,42.7438058 C28.278174,42.8621021 28.2724679,42.9789558 28.2624822,43.0943668 C28.3409415,43.8430959 28.6704708,44.5139226 29.1626248,45.014518 C29.7346648,45.5886879 30.5278174,45.9435768 31.4079886,45.9435768 C32.2881598,45.9435768 33.0813124,45.5886879 33.6533524,45.014518 C34.0970043,44.5615297 34.4094151,43.9729334 34.5235378,43.3107625 C34.4950071,43.1261049 34.4793153,42.9371193 34.4793153,42.7438058 C34.4793153,42.5504923 34.4950071,42.3615068 34.5235378,42.1768491 C34.4194009,41.5767117 34.1540656,41.0357225 33.7731812,40.6029311 L33.6462197,40.4803068 C33.0741797,39.901809 32.2824536,39.5440348 31.4079886,39.5440348 C30.5278174,39.5440348 29.7346648,39.8989237 29.1626248,40.4730937 C28.6704708,40.9751317 28.3409415,41.6445157 28.2624822,42.3932448 Z M64.703281,53.171193 C67.5292439,53.171193 70.0998573,54.3368445 71.9700428,56.2223723 L71.9900143,56.2425693 C73.850214,58.1338676 75,60.730616 75,63.5855965 C75,66.460774 73.8473609,69.0647355 71.9843081,70.9502633 C71.9058488,71.0281658 71.8259629,71.103183 71.743224,71.1724296 C69.9001427,72.9252347 67.4236805,74 64.703281,74 C61.8701854,74 59.299572,72.8343485 57.4350927,70.9502633 L57.4293866,70.9416075 L57.4208274,70.9502633 C56.3794579,69.895695 55.5606277,68.6175177 55.0399429,67.1921914 L13.5663338,67.1921914 C11.5977175,67.1921914 10,65.5778796 10,63.5855965 C10,61.5933135 11.5977175,59.9790016 13.5663338,59.9790016 L55.0456491,59.9790016 C55.5663338,58.5637738 56.3837375,57.2899244 57.4222539,56.2367987 L57.4422254,56.2166018 C59.3109843,54.3354019 61.8801712,53.171193 64.703281,53.171193 Z M66.9415121,61.3091138 C66.3766049,60.7378292 65.5863053,60.3858255 64.703281,60.3858255 C63.8202568,60.3858255 63.0285307,60.7392718 62.4650499,61.3091138 L62.4507846,61.3220975 C61.8873039,61.8919395 61.5378031,62.6926036 61.5378031,63.5855965 C61.5378031,64.4699336 61.89301,65.2705977 62.4650499,65.8490955 L62.4579173,65.8563087 C63.0299572,66.4304786 63.8231098,66.7868102 64.703281,66.7868102 C65.5178317,66.7868102 66.2596291,66.4809709 66.8188302,65.9803755 L66.9415121,65.8490955 C67.5135521,65.2705977 67.8673324,64.4699336 67.8673324,63.5855965 C67.8673324,62.6926036 67.5178317,61.8919395 66.9543509,61.3220975 L66.9415121,61.3091138 Z M55.874465,19.1494619 C55.3024251,18.5724067 54.510699,18.2131898 53.636234,18.2131898 C52.7617689,18.2131898 51.9700428,18.5724067 51.3980029,19.1494619 C50.8259629,19.7279597 50.4721826,20.5286238 50.4721826,21.4129608 C50.4721826,22.2972979 50.8259629,23.097962 51.3980029,23.6764598 L51.3908702,23.683673 L51.3980029,23.6908862 C51.9614836,24.2607282 52.7532097,24.6141745 53.636234,24.6141745 C54.510699,24.6141745 55.3024251,24.2549576 55.874465,23.6764598 C56.446505,23.097962 56.8002853,22.2972979 56.8002853,21.4129608 C56.8002853,20.5286238 56.446505,19.7279597 55.874465,19.1494619 Z" id="Fill-5" fill="#1A1919"></path>
    </g>
</svg>
