<?xml version="1.0" encoding="UTF-8"?>
<svg width="84px" height="84px" viewBox="0 0 84 84" version="1.1" xmlns="http://www.w3.org/2000/svg" xmlns:xlink="http://www.w3.org/1999/xlink">
    <!-- Generator: Sketch 49.1 (51147) - http://www.bohemiancoding.com/sketch -->
    <title>gear</title>
    <desc>Created with Sketch.</desc>
    <defs>
      
    </defs>
    <g id="gear" stroke="none" stroke-width="1" fill="none" fill-rule="evenodd">
        <path d="M42.061497,27.4283171 C46.2812587,27.4283171 50.1039,29.0845173 52.8694581,31.760981 C55.6350162,34.4374447 57.3463481,38.1355544 57.3463481,42.2193735 C57.3463481,46.3031925 55.6350162,50.0013022 52.8694581,52.6791484 C50.1039,55.3542296 46.2826872,57.0118123 42.061497,57.0118123 C37.8417353,57.0118123 34.0205225,55.3542296 31.2549644,52.6791484 C28.4894063,50.0013022 26.7780744,46.3031925 26.7780744,42.2193735 C26.7780744,38.1355544 28.4894063,34.4374447 31.2549644,31.760981 C34.0205225,29.0845173 37.8417353,27.4283171 42.061497,27.4283171 Z M53.6908403,13.8676599 C54.4936521,14.1745685 55.2664656,14.504979 56.0064238,14.8602741 C56.7720948,15.2266288 57.5191955,15.6192506 58.2448688,16.0395217 L65.403036,15.0289355 C66.7443888,14.8436844 68.0171741,15.4077325 68.7714172,16.3906694 L74.752508,23.5546336 C75.6296013,24.6108414 75.759594,26.0154319 75.2081966,27.1670301 L72.3669285,33.8319224 C72.5740596,34.5245403 72.752621,35.2157758 72.901184,35.9042463 C73.0483185,36.5775097 73.1725972,37.2687451 73.2740201,37.9751878 L78.8794178,43.0557684 C79.8793614,43.9668167 80.2150567,45.3050485 79.8665049,46.5022684 L77.8223347,55.4357954 C77.532351,56.7090511 76.5481209,57.6601911 75.3396177,58.000279 L67.5257733,60.1914954 C67.1800785,60.6490932 66.8186703,61.0997788 66.4429773,61.5435519 L66.4515482,61.5504643 C66.0915686,61.9762653 65.7073045,62.4034488 65.3001847,62.8306323 L64.6502214,70.7162464 C64.5387991,72.0807452 63.6231365,73.1977817 62.387492,73.6650569 L53.9808239,77.6493381 C52.720895,78.245183 51.2766909,78.0557845 50.2381781,77.2774534 L43.534271,72.68765 L43.4642749,72.6904149 C42.8428815,72.7166819 42.3714795,72.731889 42.061497,72.731889 C41.6972319,72.731889 41.1858322,72.7152994 40.5472968,72.6862675 L40.3630215,72.6765902 L33.4219849,77.2110948 C32.2849063,77.9534817 30.8649864,77.9769837 29.7350502,77.3894335 L21.1769621,73.4659811 C19.9313182,72.8977855 19.1842175,71.7199203 19.1356488,70.474314 L18.6713893,62.6619709 C18.2771259,62.2403173 17.8957188,61.8076039 17.5271682,61.3665956 C17.1400472,60.9034679 16.7729251,60.4361927 16.4243734,59.9689175 L8.71623722,57.6297768 C7.46630781,57.2523622 6.58350052,56.2694254 6.30494482,55.1178271 L4.09364113,46.0184035 C3.76651675,44.6566697 4.31934267,43.2963183 5.39499621,42.4958676 L10.8789722,37.7401677 C10.986109,37.0143705 11.1175302,36.3162227 11.2689502,35.6457243 C11.4332266,34.9268394 11.6246444,34.2134844 11.8432035,33.5056593 L9.12907105,26.7177271 C8.65909759,25.5426268 8.90051253,24.272136 9.64904169,23.347263 L9.64475622,23.3431156 L15.6172761,15.9966651 C16.48437,14.9280151 17.872863,14.4897718 19.1599332,14.7524413 L26.142396,15.8902149 C26.8737833,15.4740911 27.6180269,15.0897642 28.375127,14.7358517 C29.1379411,14.3791742 29.9250395,14.0501461 30.7321368,13.7501499 L34.3433614,7.7612859 C35.0576068,6.57650833 36.3889602,5.95577889 37.7131711,6.05808173 L47.0726426,6.00001795 C48.4139954,5.99587054 49.5853578,6.710608 50.1953234,7.76958073 L53.6908403,13.8676599 Z M52.8537447,21.042684 C51.9623665,20.6168829 51.0709882,20.2491457 50.1867524,19.9463845 C49.3310865,19.6975398 48.5725579,19.1376391 48.1040129,18.3233637 L44.995617,12.8985478 L39.4916421,12.9331096 L36.2532536,18.3026266 L36.2446826,18.2984792 C35.8247064,18.9952446 35.1518872,19.5523803 34.3005067,19.8288745 C33.3434179,20.138548 32.397757,20.5131976 31.472095,20.945911 C30.5864307,21.3592698 29.7393357,21.8168677 28.9393809,22.3117923 C28.1965657,22.8260715 27.2523333,23.0652389 26.2809596,22.9090197 L19.9170333,21.8707841 L16.5029404,26.0707307 L18.8499507,31.9379373 C19.2327862,32.7231807 19.3113532,33.6466713 18.9985137,34.5314527 C18.7013876,35.3664651 18.4485448,36.2346569 18.2442706,37.130498 C18.0371394,38.0484587 17.8842909,38.9373875 17.7957245,39.7889896 L17.7900105,39.7876071 C17.7028726,40.6115598 17.3100376,41.407863 16.6229336,42.0023255 L11.5203646,46.4276149 L12.7845789,51.6326179 L19.6184787,53.7063243 C20.425576,53.9233722 21.1569632,54.4127669 21.651221,55.1440941 C22.1140521,55.8256522 22.591168,56.4615888 23.0797118,57.046374 C23.5696841,57.6339242 24.0867978,58.1965898 24.6296243,58.7329885 C25.2524462,59.3150088 25.6595661,60.1182244 25.7109918,61.0223604 L26.1323966,68.1061414 L31.1121153,70.3886008 L37.3889037,66.2895746 L37.3931892,66.2951045 C38.0531519,65.865156 38.8645347,65.6439607 39.7187722,65.721379 C40.0787518,65.7545583 40.4658728,65.7822077 40.8815636,65.8001799 C41.1344065,65.8126221 41.5243845,65.818152 42.061497,65.818152 C42.5900386,65.818152 42.9500183,65.8140046 43.1571494,65.8043273 C43.3599951,65.7960325 43.7228318,65.7697655 44.2385169,65.7255264 L44.2399454,65.7421161 C45.0484712,65.674375 45.8827098,65.8720684 46.5969552,66.3600806 L52.7451794,70.5697045 L57.6963284,68.2236514 L58.2848666,61.0679819 L58.292009,61.0693644 C58.3562911,60.281356 58.6977004,59.5113197 59.3176654,58.9085624 C59.8504924,58.3915182 60.387605,57.8136454 60.9275745,57.1763263 L60.9361454,57.1832387 L60.9418594,57.1763263 C61.4389741,56.5887762 61.9175186,55.9625168 62.3717786,55.3044607 C62.8217532,54.6546993 63.5017148,54.148715 64.3388104,53.9136949 L71.3327011,51.9533512 L72.5254909,46.7442008 L67.4486348,42.1433376 C66.8429547,41.5862018 66.4315494,40.8244603 66.3472684,39.9562686 C66.2601305,39.0783995 66.1201384,38.1936182 65.9272921,37.3074543 C65.7415883,36.4544697 65.5187438,35.6457243 65.2616154,34.8826003 C64.9516329,34.0932094 64.940205,33.1932209 65.2973277,32.3512961 L67.8786105,26.2933085 L64.4130919,22.1417484 L57.9634561,23.0527967 C57.130646,23.1661593 56.2521242,22.9974979 55.4950241,22.5122506 C54.6450721,21.9689395 53.7622648,21.4767799 52.8537447,21.042684 Z M47.8197433,36.6466332 C46.3469693,35.2213057 44.3099415,34.3392892 42.061497,34.3392892 C39.8130526,34.3392892 37.7774532,35.2213057 36.3046792,36.6466332 C34.8319053,38.0733432 33.9205282,40.0433642 33.9205282,42.2193735 C33.9205282,44.3953827 34.8319053,46.3667862 36.3046792,47.7921137 C37.7774532,49.2174412 39.8130526,50.0994577 42.061497,50.0994577 C44.31137,50.0994577 46.3469693,49.2174412 47.8197433,47.7921137 C49.2925172,46.3654037 50.2038943,44.3953827 50.2038943,42.2193735 C50.2038943,40.0433642 49.2925172,38.0733432 47.8197433,36.6466332 Z" id="Fill-2" fill="#1A1919"></path>
    </g>
</svg>
