<?xml version="1.0" encoding="UTF-8"?>
<svg width="84px" height="84px" viewBox="0 0 84 84" version="1.1" xmlns="http://www.w3.org/2000/svg" xmlns:xlink="http://www.w3.org/1999/xlink">
    <!-- Generator: Sketch 49.1 (51147) - http://www.bohemiancoding.com/sketch -->
    <title>lock</title>
    <desc>Created with Sketch.</desc>
    <defs>
    </defs>
    <g id="lock" stroke="none" stroke-width="1" fill="none" fill-rule="evenodd">
        <path d="M17.6490858,33.2666555 L18.9024534,33.2666555 L18.9024534,23.5601143 C18.9024534,17.0768455 21.556311,11.1868169 25.8313416,6.91831175 C30.1063722,2.64980663 36.0068198,0 42.5,0 C48.9931802,0 54.8936278,2.64980663 59.1686584,6.91831175 C63.443689,11.1868169 66.0975466,17.0768455 66.0975466,23.5601143 L66.0975466,33.2666555 L67.3523289,33.2666555 C69.7345762,33.2666555 71.8961404,34.2370271 73.4621426,35.800639 C75.0281449,37.3628384 76,39.5225156 76,41.9011266 L76,75.3655288 C76,77.7328401 75.0281449,79.8896923 73.4621426,81.4518917 L73.4479963,81.4660165 C71.8834086,83.0282159 69.7246738,84 67.3523289,84 L17.6490858,84 C15.2767408,84 13.1165914,83.0282159 11.5505891,81.4660165 L11.5378574,81.4660165 C9.97185507,79.9024046 9,77.7427274 9,75.3655288 L9,41.9011266 C9,39.5352278 9.97468435,37.3783757 11.5449305,35.8077014 L11.5378574,35.800639 C13.1038596,34.2370271 15.2668384,33.2666555 17.6490858,33.2666555 Z M42.5,47.1428283 C45.4099067,47.1428283 48.0467886,48.3222465 49.9537182,50.2262653 C51.8620624,52.1316967 53.0432836,54.7631411 53.0432836,57.6700185 C53.0432836,60.5768959 51.8620624,63.2083403 49.9537182,65.1137716 L49.9480596,65.1067093 C48.0326422,67.0149655 45.3985896,68.1972087 42.5,68.1972087 C39.5900933,68.1972087 36.9532114,67.0177905 35.0448672,65.1137716 C33.136523,63.2083403 31.9567164,60.5768959 31.9567164,57.6700185 C31.9567164,54.7631411 33.136523,52.1316967 35.0448672,50.2262653 L35.0590136,50.2262653 C36.9673578,48.3222465 39.5985811,47.1428283 42.5,47.1428283 Z M44.9543938,55.2193711 C44.3262953,54.5922314 43.4591233,54.2052127 42.5,54.2052127 C41.5352181,54.2052127 40.6652168,54.5894064 40.038533,55.2123087 L40.0456062,55.2193711 C39.4175077,55.8465108 39.0298974,56.7123592 39.0298974,57.6700185 C39.0298974,58.6262653 39.4175077,59.4935261 40.0456062,60.1206659 C40.6737047,60.7463931 41.5408767,61.1348243 42.5,61.1348243 C43.4676112,61.1348243 44.3347832,60.752043 44.9543938,60.1333782 L44.9543938,60.1206659 C45.5810777,59.4935261 45.9701026,58.6262653 45.9701026,57.6700185 C45.9701026,56.7123592 45.5810777,55.8465108 44.9543938,55.2193711 Z M25.9756345,33.2666555 L59.0243655,33.2666555 L59.0243655,23.5601143 C59.0243655,19.027476 57.1641189,14.9016311 54.1679194,11.9114175 C51.1717199,8.91979149 47.0409822,7.0623844 42.5,7.0623844 C37.9590178,7.0623844 33.8282801,8.91979149 30.8320806,11.9114175 C27.8358811,14.9016311 25.9756345,19.027476 25.9756345,23.5601143 L25.9756345,33.2666555 Z M67.3523289,40.3276274 L17.6490858,40.3276274 C17.2190364,40.3276274 16.8257675,40.5070119 16.5385963,40.7937447 L16.52445,40.7937447 C16.2457666,41.0705902 16.073181,41.4632588 16.073181,41.9011266 L16.073181,75.3655288 C16.073181,75.7935093 16.2514252,76.1861779 16.5385963,76.4729107 L16.5315232,76.4799731 C16.8172797,76.7624685 17.2133778,76.9376156 17.6490858,76.9376156 L67.3523289,76.9376156 C67.7866222,76.9376156 68.1827203,76.7624685 68.4684768,76.4799731 C68.7514041,76.1946528 68.926819,75.7991592 68.926819,75.3655288 L68.926819,41.9011266 C68.926819,41.4717336 68.7485748,41.0790651 68.4614037,40.7937447 C68.1756471,40.5070119 67.7809636,40.3276274 67.3523289,40.3276274 Z" id="Fill-1" fill="#1A1919"></path>
    </g>
</svg>
