<?xml version="1.0" encoding="UTF-8"?>
<svg width="84px" height="84px" viewBox="0 0 84 84" version="1.1" xmlns="http://www.w3.org/2000/svg" xmlns:xlink="http://www.w3.org/1999/xlink">
    <!-- Generator: Sketch 49.1 (51147) - http://www.bohemiancoding.com/sketch -->
    <title>meter</title>
    <desc>Created with Sketch.</desc>
    <defs>
      
    </defs>
    <g id="meter" stroke="none" stroke-width="1" fill="none" fill-rule="evenodd">
        <path d="M65.4448823,26.0199918 C64.3508234,24.4046881 64.7722702,22.2074208 66.3871068,21.1130454 C68.0019434,20.01867 70.1985753,20.4402387 71.2926342,22.0555425 C72.7570555,24.2102271 73.9830826,26.5153706 74.9352402,28.9340679 C75.8760457,31.3272156 76.5628479,33.8395949 76.9601715,36.4399785 C77.2510692,38.3774913 75.9171971,40.1829978 73.9816636,40.4739796 C72.04613,40.7649613 70.2397267,39.4307034 69.9488291,37.49461 C69.6295512,35.4094771 69.0832312,33.4066708 68.3382495,31.5131601 C67.5663065,29.5472588 66.5914446,27.7076862 65.4448823,26.0199918 Z M49.3617906,43.8962092 C48.4181471,46.1530923 46.197392,47.6661975 43.6970913,47.6661975 C40.3070696,47.6661975 37.5598607,44.918194 37.5598607,41.5271917 C37.5598607,39.2972776 38.7475745,37.3455705 40.5255976,36.2696477 L54.817895,27.3641857 C57.3167767,26.0057976 58.2164308,27.247793 57.0712874,29.3655726 L49.3617906,43.8962092 Z M69.8551742,46.6882149 C70.1914803,44.7592186 72.0276829,43.4689628 73.9561213,43.8053661 C75.8845598,44.1417694 77.1758615,45.9799226 76.8395555,47.9089189 C75.3822293,56.2366756 70.9946415,63.5609 64.7793652,68.7772807 C58.6648389,73.908496 50.7822225,77 42.1844236,77 C32.4684426,77 23.671982,73.0611003 17.3048713,66.6921478 C10.9377607,60.3231953 7,51.5241901 7,41.8053986 C7,33.4279622 9.94019463,25.7233324 14.845722,19.6652336 C19.8321332,13.5091946 26.8619229,9.06923847 34.9077257,7.37302759 C36.820555,6.97558906 38.693652,8.20480966 39.0923946,10.1181923 C39.4897182,12.0315749 38.2608531,13.9066332 36.3480238,14.3040717 C29.9340857,15.6567821 24.3218899,19.2053404 20.3330447,24.12932 C16.4335974,28.9454233 14.0950643,35.0957846 14.0950643,41.8053986 C14.0950643,49.5639665 17.2395967,56.590112 22.3225008,61.6730669 C27.4054048,66.7574413 34.4280994,69.9028834 42.1844236,69.9028834 C49.0609599,69.9028834 55.3571199,67.4373451 60.2342671,63.3437282 C65.190879,59.1833984 68.6915837,53.3382132 69.8551742,46.6882149 Z M46.5422121,14.0287036 C44.6137736,13.7292052 43.2926727,11.9236988 43.5906654,9.99470248 C43.8900771,8.06570618 45.6950614,6.74280364 47.6234999,7.04230196 C48.0931931,7.11469255 48.4564604,7.17572775 48.7260729,7.22682699 C48.9843332,7.27508738 49.3546956,7.35315567 49.8158747,7.45535415 C52.1444748,7.97060481 54.3794201,8.71296321 56.4965872,9.65687973 C58.6620008,10.6220876 60.7053793,11.7959507 62.5997615,13.1486611 C64.1918939,14.2827803 64.5650943,16.4928225 63.431303,18.083996 C62.2989308,19.676589 60.0895278,20.0484779 58.4988144,18.9157781 C56.9705375,17.8242415 55.3344157,16.8831639 53.6145721,16.1166753 C51.9160138,15.3587032 50.1337336,14.7653843 48.2918549,14.3580098 C48.1059642,14.3168465 47.8207427,14.2600696 47.4234191,14.1848401 C47.0360286,14.1124495 46.7380359,14.0585115 46.5422121,14.0287036 Z" id="Fill-3" fill="#1A1919"></path>
    </g>
</svg>
