<?xml version="1.0" encoding="UTF-8"?>
<svg width="120px" height="120px" viewBox="0 0 120 120" version="1.1" xmlns="http://www.w3.org/2000/svg" xmlns:xlink="http://www.w3.org/1999/xlink">
    <!-- Generator: Sketch 49.1 (51147) - http://www.bohemiancoding.com/sketch -->
    <title>Artboard Copy</title>
    <desc>Created with Sketch.</desc>
    <defs></defs>
    <g id="Artboard-Copy" stroke="none" stroke-width="1" fill="none" fill-rule="evenodd">
        <path d="M96.1349163,83.1970522 L64.4974554,83.1970522 L64.4974554,96.9522561 L88.6244971,96.9522561 C90.8326914,96.9522561 92.6219525,98.7533412 92.6219525,100.976128 C92.6219525,103.198915 90.8326914,105 88.6244971,105 L32.3739039,105 C30.1657096,105 28.3764485,103.198915 28.3764485,100.976128 C28.3764485,98.7533412 30.1657096,96.9522561 32.3739039,96.9522561 L56.5009456,96.9522561 L56.5009456,83.1970522 L24.8650837,83.1970522 C21.8733881,83.1970522 19.1551185,81.9689665 17.1883704,79.9892214 L17.1963653,79.9811737 C15.2232213,77.9917714 14,75.2587576 14,72.2617777 L14,26.936884 C14,23.9382946 15.2232213,21.2052808 17.1963653,19.217488 L17.1883704,19.2094403 C19.1551185,17.2296953 21.8733881,16 24.8650837,16 L96.1349163,16 C99.1266119,16 101.844882,17.2296953 103.81163,19.2094403 L103.803635,19.217488 C105.776779,21.2052808 107,23.9382946 107,26.936884 L107,72.2617777 C107,75.2587576 105.776779,77.9917714 103.803635,79.9811737 L103.81163,79.9892214 C101.844882,81.9689665 99.1266119,83.1970522 96.1349163,83.1970522 Z M86.2068361,61.5470115 C86.2068361,63.9903065 84.2368901,65.9732706 81.8096352,65.9732706 C79.3807813,65.9732706 77.4124342,63.9903065 77.4124342,61.5470115 L77.4124342,36.1418935 C77.4124342,33.6985984 79.3807813,31.7156343 81.8096352,31.7156343 C84.2368901,31.7156343 86.2068361,33.6985984 86.2068361,36.1418935 L86.2068361,61.5470115 Z M72.0414532,61.5470115 C72.0414532,63.9903065 70.0715072,65.9732706 67.6442523,65.9732706 C65.2153984,65.9732706 63.2470513,63.9903065 63.2470513,61.5470115 L63.2470513,49.7812099 C63.2470513,47.3379148 65.2153984,45.3549507 67.6442523,45.3549507 C70.0715072,45.3549507 72.0414532,47.3379148 72.0414532,49.7812099 L72.0414532,61.5470115 Z M57.7529487,61.5470115 C57.7529487,63.9903065 55.7846016,65.9732706 53.3557477,65.9732706 C50.9284928,65.9732706 48.9585468,63.9903065 48.9585468,61.5470115 L48.9585468,44.6113392 C48.9585468,42.1664346 50.9284928,40.18508 53.3557477,40.18508 C55.7846016,40.18508 57.7529487,42.1664346 57.7529487,44.6113392 L57.7529487,61.5470115 Z M43.5875658,61.5470115 C43.5875658,63.9903065 41.6176198,65.9732706 39.1903648,65.9732706 C36.761511,65.9732706 34.7931639,63.9903065 34.7931639,61.5470115 L34.7931639,56.8278144 C34.7931639,54.3829098 36.761511,52.4015553 39.1903648,52.4015553 C41.6176198,52.4015553 43.5875658,54.3829098 43.5875658,56.8278144 L43.5875658,61.5470115 Z M60.4648224,75.1509178 L96.1349163,75.1509178 C96.9200165,75.1509178 97.6379595,74.8241794 98.1592277,74.2994665 L98.1752175,74.2994665 C98.6868918,73.7844109 99.0050892,73.0617235 99.0050892,72.2617777 L99.0050892,26.936884 C99.0050892,26.1353287 98.6868918,25.4142508 98.1752175,24.8991952 L98.1592277,24.8991952 C97.6379595,24.3728728 96.9200165,24.0477439 96.1349163,24.0477439 L24.8650837,24.0477439 C24.0783845,24.0477439 23.3620405,24.3728728 22.8407723,24.8991952 L22.8247825,24.8991952 C22.3131082,25.4142508 21.9933118,26.1353287 21.9933118,26.936884 L21.9933118,72.2617777 C21.9933118,73.0617235 22.3131082,73.7844109 22.8247825,74.2994665 L22.8407723,74.2994665 C23.3620405,74.8241794 24.0783845,75.1509178 24.8650837,75.1509178 L60.4648224,75.1509178 Z" id="Fill-7" fill="#1A1919"></path>
    </g>
</svg>