<?xml version="1.0" encoding="UTF-8"?>
<svg width="120px" height="120px" viewBox="0 0 120 120" version="1.1" xmlns="http://www.w3.org/2000/svg" xmlns:xlink="http://www.w3.org/1999/xlink">
    <!-- Generator: Sketch 49.1 (51147) - http://www.bohemiancoding.com/sketch -->
    <title>Artboard Copy 12</title>
    <desc>Created with Sketch.</desc>
    <defs></defs>
    <g id="Artboard-Copy-12" stroke="none" stroke-width="1" fill="none" fill-rule="evenodd">
        <path d="M70.3882882,43.1689497 L90.9803649,22.5768729 C92.585873,20.9713648 95.2060035,20.9892826 96.8336214,22.6169004 C98.4601677,24.2434468 98.479157,26.8646488 96.8736489,28.4701569 L76.2815721,49.0622336 L30.4701569,94.8736489 C28.8646488,96.479157 26.2434468,96.4601677 24.6169004,94.8336214 C22.9892826,93.2060035 22.9713648,90.585873 24.5768729,88.9803649 L70.3882882,43.1689497 Z" id="Combined-Shape" fill="#1A1919"></path>
        <g id="Group" transform="translate(21.000000, 19.000000)" fill="#1A1919" fill-rule="nonzero">
            <path d="M61,81 C50.5065898,81 42,72.4934102 42,62 C42,51.5065898 50.5065898,43 61,43 C71.4934102,43 80,51.5065898 80,62 C80,72.4934102 71.4934102,81 61,81 Z M61,73 C67.0751322,73 72,68.0751322 72,62 C72,55.9248678 67.0751322,51 61,51 C54.9248678,51 50,55.9248678 50,62 C50,68.0751322 54.9248678,73 61,73 Z" id="Oval-2"></path>
            <path d="M19,38 C8.50658975,38 0,29.4934102 0,19 C0,8.50658975 8.50658975,0 19,0 C29.4934102,0 38,8.50658975 38,19 C38,29.4934102 29.4934102,38 19,38 Z M19,30 C25.0751322,30 30,25.0751322 30,19 C30,12.9248678 25.0751322,8 19,8 C12.9248678,8 8,12.9248678 8,19 C8,25.0751322 12.9248678,30 19,30 Z" id="Oval-2"></path>
        </g>
    </g>
</svg>