<?xml version="1.0" encoding="UTF-8"?>
<svg width="120px" height="120px" viewBox="0 0 120 120" version="1.1" xmlns="http://www.w3.org/2000/svg" xmlns:xlink="http://www.w3.org/1999/xlink">
    <!-- Generator: Sketch 49.1 (51147) - http://www.bohemiancoding.com/sketch -->
    <title>speed</title>
    <desc>Created with Sketch.</desc>
    <defs></defs>
    <g id="speed" stroke="none" stroke-width="1" fill="none" fill-rule="evenodd">
        <g transform="translate(15.000000, 15.000000)" fill="#1A1919" id="Combined-Shape">
            <path d="M66.3914845,6.20883212 C68.3420385,7.24596006 69.0825166,9.66795478 68.0453887,11.6185087 C67.0082607,13.5690627 64.586266,14.3095408 62.635712,13.2724129 C44.8369071,3.80862042 22.7362053,10.5654831 13.2724129,28.364288 C10.9250858,32.7789681 9.53318312,37.5344537 9.12123577,42.4024269 C8.73871853,46.9226252 9.2079103,51.4790888 10.4926364,55.8312811 C11.8356001,60.3807614 14.0477134,64.6326171 17.0112945,68.3341698 C20.085162,72.1734715 23.9198529,75.3644391 28.364288,77.7275871 C46.1630929,87.1913796 68.2637947,80.4345169 77.7275871,62.635712 C78.7647151,60.6851581 81.1867098,59.94468 83.1372638,60.9818079 C85.0878177,62.0189359 85.8282958,64.4409306 84.7911679,66.3914845 C73.2531196,88.0913974 46.3084283,96.3292162 24.6085155,84.7911679 C19.1980395,81.9143668 14.5176645,78.0196787 10.7662695,73.334136 C7.15153392,68.8192827 4.4557933,63.6378572 2.81994461,58.0961873 C1.25496167,52.7945853 0.683142405,47.241475 1.14972772,41.7278461 C1.65247678,35.7868709 3.35131853,29.9827169 6.20883212,24.6085155 C17.7468804,2.90860263 44.6915717,-5.3292162 66.3914845,6.20883212 Z M84.609493,57.3721338 C82.4016997,57.295036 80.6744298,55.4427658 80.7515276,53.2349725 C80.8286255,51.0271793 82.6808957,49.2999093 84.8886889,49.3770072 C87.0964822,49.454105 88.8237521,51.3063752 88.7466542,53.5141685 C88.6695564,55.7219617 86.8172862,57.4492316 84.609493,57.3721338 Z M85.0631864,44.3800531 C82.8553932,44.3029552 81.1281232,42.450685 81.2052211,40.2428918 C81.2823189,38.0350985 83.1345891,36.3078286 85.3423824,36.3849264 C87.5501756,36.4620243 89.2774455,38.3142945 89.2003477,40.5220877 C89.1232499,42.729881 87.2709797,44.4571509 85.0631864,44.3800531 Z M52.8366978,49.5441169 C51.4726971,52.143182 48.659893,53.7196182 45.671175,53.4581392 C41.6189347,53.1036141 38.62246,49.5315057 38.9770876,45.4780932 C39.2102898,42.8125801 40.8341233,40.6038297 43.0719905,39.5036762 L74.2293889,19.3849083 C77.3584696,18.0224985 78.3039786,19.6011945 76.7136637,22.0129105 L52.8366978,49.5441169 Z"></path>
        </g>
    </g>
</svg>