<?xml version="1.0" encoding="utf-8"?>
<!-- Generator: Adobe Illustrator 22.1.0, SVG Export Plug-In . SVG Version: 6.00 Build 0)  -->
<svg version="1.1" id="Layer_1" xmlns="http://www.w3.org/2000/svg" xmlns:xlink="http://www.w3.org/1999/xlink" x="0px" y="0px"
	 viewBox="0 0 120 120" style="enable-background:new 0 0 120 120;" xml:space="preserve">
<title>Artboard Copy 16</title>
<desc>Created with Sketch.</desc>
<path d="M114,50c0-2.2-1.8-4-4-4h-4V36c0-2.2-1.8-4-4-4h-4V22c0-2.2-1.8-4-4-4H38c-2.2,0-4,1.8-4,4v11.5C18.4,38,7,52.4,7,69.5
	C7,90.2,23.8,107,44.5,107c16.3,0,30.2-10.4,35.4-25H102c2.2,0,4-1.8,4-4c0-0.2,0-0.3,0-0.5c0-0.2,0-0.3,0-0.5v-9h4c2.2,0,4-1.8,4-4
	c0-0.2,0-0.3,0-0.5c0-0.2,0-0.3,0-0.5V50z M98,40v6H73.7c-1.8-2.2-3.8-4.2-6.1-6H94H98z M42,32v-6h48v6H46H42z M44.5,99
	C28.2,99,15,85.8,15,69.5S28.2,40,44.5,40S74,53.2,74,69.5S60.8,99,44.5,99z M98,74H81.7c0.2-1.5,0.3-3,0.3-4.5c0-0.5,0-1,0-1.5h16
	V74z M106,60h-4H80.8c-0.5-2.1-1.3-4.1-2.1-6H102h4V60z"/>
</svg>
