<?xml version="1.0" encoding="UTF-8"?>
<svg width="120px" height="120px" viewBox="0 0 120 120" version="1.1" xmlns="http://www.w3.org/2000/svg" xmlns:xlink="http://www.w3.org/1999/xlink">
    <!-- Generator: Sketch 49.1 (51147) - http://www.bohemiancoding.com/sketch -->
    <title>Artboard Copy 13</title>
    <desc>Created with Sketch.</desc>
    <defs></defs>
    <g id="Artboard-Copy-13" stroke="none" stroke-width="1" fill="none" fill-rule="evenodd">
        <g id="Group" transform="translate(15.000000, 14.000000)" fill="#1A1919" fill-rule="nonzero">
            <path d="M46,92 C20.5949015,92 0,71.4050985 0,46 C0,20.5949015 20.5949015,0 46,0 C71.4050985,0 92,20.5949015 92,46 C92,71.4050985 71.4050985,92 46,92 Z M46,84.0860215 C67.0343289,84.0860215 84.0860215,67.0343289 84.0860215,46 C84.0860215,24.9656711 67.0343289,7.91397849 46,7.91397849 C24.9656711,7.91397849 7.91397849,24.9656711 7.91397849,46 C7.91397849,67.0343289 24.9656711,84.0860215 46,84.0860215 Z" id="Oval"></path>
            <path d="M46.5,70 C33.5213084,70 23,59.4786916 23,46.5 C23,33.5213084 33.5213084,23 46.5,23 C59.4786916,23 70,33.5213084 70,46.5 C70,59.4786916 59.4786916,70 46.5,70 Z M46.5,62.1666667 C55.1524611,62.1666667 62.1666667,55.1524611 62.1666667,46.5 C62.1666667,37.8475389 55.1524611,30.8333333 46.5,30.8333333 C37.8475389,30.8333333 30.8333333,37.8475389 30.8333333,46.5 C30.8333333,55.1524611 37.8475389,62.1666667 46.5,62.1666667 Z" id="Oval"></path>
            <polygon id="Line" points="42 3 50 3 50 28 42 28"></polygon>
            <polygon id="Line" points="90 43 90 51 62 51 62 43"></polygon>
            <polygon id="Line" points="79 76.4444444 73.4444444 82 54 62.5555556 59.5555556 57"></polygon>
        </g>
    </g>
</svg>