<?xml version="1.0" encoding="UTF-8"?>
<svg width="120px" height="120px" viewBox="0 0 120 120" version="1.1" xmlns="http://www.w3.org/2000/svg" xmlns:xlink="http://www.w3.org/1999/xlink">
	<!-- Generator: Sketch 49.1 (51147) - http://www.bohemiancoding.com/sketch -->
	<title>scales</title>
	<desc>Created with Sketch.</desc>
	<defs></defs>
	<g id="scales" stroke="none" stroke-width="1" fill="none" fill-rule="evenodd">
		<g id="Combined-Shape" transform="translate(10.000000, 13.000000)" fill="#000000" fill-rule="nonzero">
			<path d="M80.5,70.0007131 C86.1886157,70.0007131 90.9897033,66.2007537 92.5033845,61.0007131 L68.4966155,61.0007131 C70.0102967,66.2007537 74.8113843,70.0007131 80.5,70.0007131 Z M91.4774816,53.0007131 L80.4770682,31.9999241 L69.3249884,53.0007131 L91.4774816,53.0007131 Z M29.4209964,14.1841446 C27.6624419,15.5212239 25.1529348,15.1795508 23.8158554,13.4209964 C22.4787761,11.6624419 22.8204492,9.15293479 24.5790036,7.81585543 C31.3334858,2.68022909 40.3488929,0.167769682 51.5159532,0.167769682 C62.7482263,0.167769682 71.4883669,2.71054495 77.6063592,7.965714 C79.2821491,9.40516646 79.4737385,11.9305694 78.034286,13.6063592 C76.5948335,15.2821491 74.0694306,15.4737385 72.3936408,14.034286 C68.3901502,10.5954096 62.4535602,8.62307224 54.4915391,8.23773003 C54.4952801,8.29552986 54.4981004,34.7162865 54.5,87.5 C54.5,89.709139 52.709139,91.5 50.5,91.5 C48.290861,91.5 46.5,89.709139 46.5,87.5 L46.5,8.5 C39.3653882,8.97962166 33.6915871,10.9370921 29.4209964,14.1841446 Z M100.210198,63.1553467 C97.7555949,71.7271596 89.8604309,78.0007131 80.5,78.0007131 C70.2953799,78.0007131 61.8322408,70.5445464 60.2613542,60.7829845 C59.6594282,57.0425889 61.4332233,52.9366899 61.9141773,52.030992 L77.3463151,22.9703078 C77.7342061,22.249849 78.2303636,21.7384804 78.8759755,21.4003028 C80.5882849,20.5033788 82.7034864,21.1643793 83.6004104,22.8766886 L98.954581,52.1891962 C99.3365241,52.9183603 101.722624,57.873744 100.210198,63.1553467 Z M40.2104132,62.9875771 C37.7558104,71.5593899 29.8606464,77.8329434 20.5002155,77.8329434 C10.2955954,77.8329434 1.83245632,70.3767768 0.261569672,60.6152148 C-0.340356278,56.8748192 1.43343877,52.7689202 1.91439283,51.8632224 L17.3465307,22.8025381 C17.7344216,22.0820793 18.2305791,21.5707108 18.876191,21.2325331 C20.5885004,20.3356091 22.7037019,20.9966096 23.6006259,22.708919 L38.9547965,52.0214265 C39.3367396,52.7505907 41.7228397,57.7059743 40.2104132,62.9875771 Z M20.5002155,69.8329434 C26.1888312,69.8329434 30.9899188,66.032984 32.5036,60.8329434 L8.49683104,60.8329434 C10.0105122,66.032984 14.8115998,69.8329434 20.5002155,69.8329434 Z M31.4776971,52.8329434 L20.4772837,31.8321544 L9.32520388,52.8329434 L31.4776971,52.8329434 Z"></path>
		</g>
	</g>
</svg>
