<?xml version="1.0" encoding="UTF-8"?>
<svg width="120px" height="120px" viewBox="0 0 120 120" version="1.1" xmlns="http://www.w3.org/2000/svg" xmlns:xlink="http://www.w3.org/1999/xlink">
    <!-- Generator: Sketch 49.1 (51147) - http://www.bohemiancoding.com/sketch -->
    <title>shield</title>
    <desc>Created with Sketch.</desc>
    <defs></defs>
    <g id="shield" stroke="none" stroke-width="1" fill="none" fill-rule="evenodd">
        <g transform="translate(20.000000, 12.000000)" fill="#1A1919" id="Combined-Shape">
            <g>
                <g>
                    <path d="M80.3264217,12.0741841 L80.3264217,37.7872524 C80.3264217,62.0962842 64.7277092,83.8506136 40.653932,94.5206528 C39.5916504,94.9914799 38.3771356,94.9771206 37.3262826,94.4813098 C14.6514062,83.7829068 0,62.0314424 0,37.7872524 L0,12.0741841 C0,10.6962716 0.709203404,9.41536847 1.87702987,8.68405169 C11.1919839,2.85083728 23.9605099,0 40.1632109,0 C56.3659118,0 69.1344378,2.85083728 78.4493919,8.68405169 C79.6172183,9.41536847 80.3264217,10.6962716 80.3264217,12.0741841 Z M40.1632109,8 C26.4786944,8 15.7627109,10.157792 8,14.3698884 L8,37.7872524 C8,58.2580288 20.08718,76.7733189 39.088321,86.436832 C59.4244306,76.758921 72.3264217,58.2242681 72.3264217,37.7872524 L72.3264217,14.3698884 C64.5637108,10.157792 53.8477273,8 40.1632109,8 Z M44,46.3171772 L44,60 C44,62.209139 42.209139,64 40,64 C37.790861,64 36,62.209139 36,60 L36,46.3171772 C31.3392305,44.6698315 28,40.2248753 28,35 C28,28.372583 33.372583,23 40,23 C46.627417,23 52,28.372583 52,35 C52,40.2248753 48.6607695,44.6698315 44,46.3171772 Z M40,39 C42.209139,39 44,37.209139 44,35 C44,32.790861 42.209139,31 40,31 C37.790861,31 36,32.790861 36,35 C36,37.209139 37.790861,39 40,39 Z"></path>
                </g>
            </g>
        </g>
    </g>
</svg>