<?xml version="1.0" encoding="UTF-8"?>
<svg width="120px" height="120px" viewBox="0 0 120 120" version="1.1" xmlns="http://www.w3.org/2000/svg" xmlns:xlink="http://www.w3.org/1999/xlink">
    <!-- Generator: Sketch 49.1 (51147) - http://www.bohemiancoding.com/sketch -->
    <title>Artboard Copy 4</title>
    <desc>Created with Sketch.</desc>
    <defs></defs>
    <g id="Artboard-Copy-4" stroke="none" stroke-width="1" fill="none" fill-rule="evenodd">
        <path d="M32.0136688,107.48878 L32.0136688,36.0536528 C32.0136688,33.4522524 33.0978929,31.0784545 34.8479543,29.3489961 L34.8642339,29.3329678 C36.6208072,27.6099207 39.0318221,26.5424329 41.6740079,26.5424329 L78.3276201,26.5424329 C80.9779457,26.5424329 83.3889606,27.6115235 85.137394,29.3329678 L85.1536737,29.3473933 C86.9021071,31.0704404 87.9879592,33.4442382 87.9879592,36.0536528 L87.9879592,107.48878 C87.9879592,110.098195 86.9021071,112.471993 85.1536737,114.193437 L85.137394,114.209465 C83.3889606,115.930909 80.9779457,117 78.3276201,117 L41.6740079,117 C39.0122865,117 36.5963878,115.930909 34.8479543,114.209465 C33.0995208,112.488021 32.0136688,110.107812 32.0136688,107.48878 Z M21.1388684,77.2817614 C22.2540238,79.1923401 21.5849306,81.6318542 19.6443973,82.7297958 C17.7038641,83.8277375 15.2277307,83.1689725 14.1125753,81.2583938 C11.7748188,77.2721444 9.99708195,73.0422642 8.81192407,68.6841572 C7.61537044,64.2859794 7,59.7467522 7,55.1818795 C7,40.7740003 12.9339292,27.7269276 22.5242659,18.2846297 C32.1146025,8.8423317 45.3646025,3 60,3 C74.6337695,3 87.8853975,8.8423317 97.4757341,18.2846297 C107.066071,27.7269276 113,40.7740003 113,55.1818795 C113,59.7467522 112.386258,64.2859794 111.189704,68.6841572 C110.002918,73.0422642 108.225181,77.2721444 105.887425,81.2583938 C104.773897,83.1689725 102.296136,83.8277375 100.355603,82.7297958 C98.4150694,81.6318542 97.7459762,79.1923401 98.8611316,77.2817614 C100.816317,73.9462629 102.318927,70.3575165 103.336405,66.6181036 C104.342487,62.9171588 104.860179,59.0719588 104.860179,55.1818795 C104.860179,42.9859119 99.8379101,31.9439852 91.7208809,23.9506496 C83.6038518,15.9589168 72.387179,11.0157753 60,11.0157753 C47.612821,11.0157753 36.3977761,15.9589168 28.2791191,23.9506496 C20.1620899,31.9439852 15.1414486,42.9859119 15.1414486,55.1818795 C15.1414486,59.0719588 15.6575132,62.9171588 16.665223,66.6181036 C17.6827006,70.3575165 19.1836835,73.9462629 21.1388684,77.2817614 Z M59.9462772,106.249789 C57.2487406,106.249789 55.0623848,104.097182 55.0623848,101.441286 C55.0623848,98.7853889 57.2487406,96.6327822 59.9462772,96.6327822 L60.0537228,96.6327822 C62.7512594,96.6327822 64.9376152,98.7853889 64.9376152,101.441286 C64.9376152,104.097182 62.7512594,106.249789 60.0537228,106.249789 L59.9462772,106.249789 Z M40.1518614,86.427535 L79.8481386,86.427535 L79.8481386,36.0536528 C79.8481386,35.6417243 79.6804583,35.266661 79.4118442,34.995782 L79.4020764,34.986165 C79.1253225,34.7200945 78.7460069,34.5550025 78.3276201,34.5550025 L41.6740079,34.5550025 C41.2491092,34.5550025 40.8697936,34.7200945 40.6028075,34.9829593 L40.5865278,34.9989877 C40.3195417,35.2618525 40.1518614,35.635313 40.1518614,36.0536528 L40.1518614,86.427535 Z M79.8481386,94.4433103 L40.1518614,94.4433103 L40.1518614,107.48878 C40.1518614,107.897503 40.3244256,108.270963 40.6028075,108.543445 C40.8795614,108.815927 41.258877,108.985828 41.6740079,108.985828 L78.3276201,108.985828 C78.7460069,108.985828 79.1253225,108.822338 79.4020764,108.556268 L79.4118442,108.546651 C79.6804583,108.274169 79.8481386,107.900709 79.8481386,107.48878 L79.8481386,94.4433103 Z" id="Fill-14" fill="#1A1919"></path>
    </g>
</svg>