<?xml version="1.0" encoding="UTF-8"?>
<svg width="120px" height="120px" viewBox="0 0 120 120" version="1.1" xmlns="http://www.w3.org/2000/svg" xmlns:xlink="http://www.w3.org/1999/xlink">
    <!-- Generator: Sketch 49.1 (51147) - http://www.bohemiancoding.com/sketch -->
    <title>Artboard Copy 3</title>
    <desc>Created with Sketch.</desc>
    <defs></defs>
    <g id="Artboard-Copy-3" stroke="none" stroke-width="1" fill="none" fill-rule="evenodd">
        <path d="M33.1490015,23 L45.2124936,23 C48.281874,23 51.0707459,24.2332802 53.0894351,26.2196111 C55.1081243,28.205942 56.3598737,30.95011 56.3598737,33.9702902 L56.3598737,45.8404122 C56.3598737,48.8605925 55.1081243,51.6047605 53.0894351,53.5910914 C53.000256,53.6788409 52.9062127,53.7602087 52.8121693,53.8383856 C50.8178017,55.6779354 48.140809,56.809107 45.2124936,56.809107 L33.1490015,56.809107 C30.0909712,56.809107 27.3069636,55.5758268 25.2882744,53.5910914 L25.2720601,53.5751369 C23.2533709,51.588806 22,48.8494243 22,45.8404122 L22,33.9702902 C22,30.9596826 23.2549923,28.2218964 25.2720601,26.2355655 L25.2801673,26.2275883 L25.2720601,26.2196111 C27.2907493,24.2332802 30.0796211,23 33.1490015,23 Z M74.7875064,63.190893 L86.8509985,63.190893 C89.9090288,63.190893 92.6930364,64.4257686 94.7117256,66.4105041 L94.7198327,66.4184813 L94.7279399,66.4105041 C96.7466291,68.396835 98,71.141003 98,74.1611832 L98,86.0297098 C98,89.035531 96.7433862,91.7781036 94.7198327,93.7724117 L94.7279399,93.7803889 C92.7092507,95.7667198 89.9203789,97 86.8509985,97 L74.7875064,97 C71.718126,97 68.9292541,95.7667198 66.9105649,93.7803889 C66.8213859,93.6926394 66.7386926,93.6016989 66.6592422,93.5075676 C64.7897252,91.5451684 63.6401263,88.9126816 63.6401263,86.0297098 L63.6401263,74.1611832 C63.6401263,71.1505757 64.8934972,68.4127894 66.9105649,66.4264585 L66.9267793,66.4105041 C68.9454685,64.4241732 71.729476,63.190893 74.7875064,63.190893 Z M86.8509985,71.1681256 L74.7875064,71.1681256 C73.9492234,71.1681256 73.187148,71.5047648 72.6358594,72.0424303 C72.0878136,72.5864775 71.7473118,73.3363374 71.7473118,74.1611832 L71.7473118,86.0297098 C71.7473118,86.7875469 72.0326848,87.4799707 72.504523,88.0096589 L72.6439665,88.1404855 C73.1968766,88.6845328 73.9557092,89.0227675 74.7875064,89.0227675 L86.8509985,89.0227675 C87.6827957,89.0227675 88.4416283,88.6845328 88.9945383,88.1404855 L89.0042669,88.1484628 L89.0107527,88.1404855 C89.5539341,87.606011 89.8928145,86.859342 89.8928145,86.0297098 L89.8928145,74.1611832 C89.8928145,73.3427192 89.5474484,72.5944547 88.9945383,72.0504075 L89.0026455,72.0424303 C88.4513569,71.5047648 87.6892814,71.1681256 86.8509985,71.1681256 Z M33.1490015,63.190893 L45.2124936,63.190893 C48.281874,63.190893 51.0707459,64.4241732 53.0894351,66.4105041 C53.1769927,66.4966582 53.2613074,66.5875986 53.3391364,66.68173 C55.2086534,68.6425337 56.3598737,71.2766159 56.3598737,74.1611832 L56.3598737,86.0297098 C56.3598737,89.04989 55.1081243,91.794058 53.0894351,93.7803889 C53.000256,93.8681385 52.9062127,93.9511017 52.8121693,94.0292786 C50.8178017,95.8688284 48.140809,97 45.2124936,97 L33.1490015,97 C30.0909712,97 27.3069636,95.7667198 25.2882744,93.7803889 L25.2801673,93.7724117 L25.2720601,93.7803889 C23.2533709,91.794058 22,89.04989 22,86.0297098 L22,74.1611832 C22,71.1505757 23.2549923,68.4127894 25.2720601,66.4264585 L25.2801673,66.4184813 L25.2720601,66.4105041 C27.2907493,64.4241732 30.0796211,63.190893 33.1490015,63.190893 Z M45.2124936,71.1681256 L33.1490015,71.1681256 C32.3172043,71.1681256 31.5567503,71.5063602 31.0038402,72.0504075 L30.9973545,72.0424303 C30.4493088,72.5864775 30.108807,73.3363374 30.108807,74.1611832 L30.108807,86.0297098 C30.108807,86.8481739 30.4525516,87.5964383 31.0038402,88.1404855 L30.9973545,88.1484628 C31.5486431,88.6877237 32.3107186,89.0227675 33.1490015,89.0227675 L45.2124936,89.0227675 C45.9810548,89.0227675 46.6863799,88.7403734 47.2230756,88.2776939 L47.3560335,88.1404855 C47.9089435,87.5964383 48.2526882,86.8481739 48.2526882,86.0297098 L48.2526882,74.1611832 C48.2526882,73.4033461 47.9656938,72.7109223 47.495477,72.1812341 L47.3560335,72.0504075 C46.8047448,71.5063602 46.0442908,71.1681256 45.2124936,71.1681256 Z M74.7875064,23 L86.8509985,23 C89.9090288,23 92.6930364,24.2348756 94.7117256,26.2196111 L94.7198327,26.2275883 L94.7279399,26.2196111 C96.7466291,28.205942 98,30.95011 98,33.9702902 L98,45.8404122 C98,48.8605925 96.7466291,51.6047605 94.7279399,53.5910914 C94.6387609,53.6788409 94.546339,53.7602087 94.4506742,53.8383856 C92.457928,55.6779354 89.7809353,56.809107 86.8509985,56.809107 L74.7875064,56.809107 C71.729476,56.809107 68.9454685,55.5758268 66.9267793,53.5910914 L66.9105649,53.5751369 C64.8934972,51.588806 63.6401263,48.8494243 63.6401263,45.8404122 L63.6401263,33.9702902 C63.6401263,30.9596826 64.8934972,28.2218964 66.9105649,26.2355655 L66.9267793,26.2196111 C68.9454685,24.2332802 71.729476,23 74.7875064,23 Z M86.8509985,30.978828 L74.7875064,30.978828 C73.9492234,30.978828 73.187148,31.3138718 72.6358594,31.8531327 C72.0878136,32.3955845 71.7473118,33.1454444 71.7473118,33.9702902 L71.7473118,45.8404122 C71.7473118,46.6652581 72.0878136,47.4135225 72.6358594,47.9575697 C73.187148,48.4968307 73.9492234,48.8318744 74.7875064,48.8318744 L86.8509985,48.8318744 C87.6195597,48.8318744 88.3248848,48.5510758 88.8632019,48.0868009 L88.9945383,47.9495925 C89.5474484,47.4055453 89.8928145,46.6588763 89.8928145,45.8404122 L89.8928145,33.9702902 C89.8928145,33.1518261 89.5474484,32.4051572 88.9945383,31.8611099 L89.0026455,31.8531327 C88.4513569,31.3138718 87.6892814,30.978828 86.8509985,30.978828 Z M45.2124936,30.978828 L33.1490015,30.978828 C32.3172043,30.978828 31.5567503,31.3170627 31.0038402,31.8611099 L30.9973545,31.8531327 C30.4493088,32.3955845 30.108807,33.1454444 30.108807,33.9702902 L30.108807,45.8404122 C30.108807,46.6652581 30.4493088,47.4135225 30.9973545,47.9575697 C31.5486431,48.4968307 32.3107186,48.8318744 33.1490015,48.8318744 L45.2124936,48.8318744 C45.9810548,48.8318744 46.6863799,48.5510758 47.2230756,48.0868009 L47.3560335,47.9495925 C47.9089435,47.4071407 48.2526882,46.6588763 48.2526882,45.8404122 L48.2526882,33.9702902 C48.2526882,33.1518261 47.9089435,32.4035617 47.3560335,31.8611099 C46.8047448,31.3170627 46.0442908,30.978828 45.2124936,30.978828 Z" id="Fill-8" fill="#1A1919"></path>
    </g>
</svg>