<?xml version="1.0" encoding="UTF-8"?>
<svg width="120px" height="120px" viewBox="0 0 120 120" version="1.1" xmlns="http://www.w3.org/2000/svg" xmlns:xlink="http://www.w3.org/1999/xlink">
    <!-- Generator: Sketch 49.1 (51147) - http://www.bohemiancoding.com/sketch -->
    <title>Artboard Copy 11</title>
    <desc>Created with Sketch.</desc>
    <defs></defs>
    <g id="Artboard-Copy-11" stroke="none" stroke-width="1" fill="none" fill-rule="evenodd">
        <path d="M93.2386669,61.8008651 C96.1093242,62.6709732 98.6795827,64.247842 100.747034,66.3309262 C103.988773,69.593023 106,74.0972073 106,79.054236 L106,98.9567466 C106,101.19024 104.202426,103 101.983971,103 L19.0160288,103 C16.7975745,103 15,101.19024 15,98.9567466 L15,66.2258016 C15,60.6833098 17.2505825,55.6470334 20.8730405,51.9984015 C23.3854682,49.4689422 26.5597373,47.605811 30.1050876,46.7001222 C27.7709716,43.5932863 26.3862449,39.7247015 26.3862449,35.5294217 C26.3862449,30.4138975 28.4472709,25.7819464 31.7757555,22.4276634 C35.107453,19.0749976 39.7082156,17 44.7892953,17 C49.8703749,17 54.472744,19.0749976 57.8028351,22.4276634 C61.1329261,25.7803291 63.1939521,30.4138975 63.1939521,35.5294217 C63.1939521,39.7247015 61.8092254,43.5932863 59.473503,46.7001222 C60.9305183,47.0721016 62.3232771,47.605811 63.6341089,48.281843 C64.3794838,45.3561448 65.8959363,42.7409685 67.9521431,40.6708228 C70.9384621,37.6658768 75.0637269,35.8059803 79.61951,35.8059803 C84.175293,35.8059803 88.3021642,37.6658768 91.2868769,40.6708228 C94.2731959,43.677386 96.1205691,47.8306159 96.1205691,52.4172826 C96.1205691,55.8993324 95.0571247,59.1307005 93.2386669,61.8008651 Z M52.1241703,28.1448237 C50.2462752,26.2558157 47.653527,25.0881241 44.7892953,25.0881241 C41.9250636,25.0881241 39.3323154,26.257433 37.4560267,28.146441 C35.579738,30.035449 34.4183025,32.6457734 34.4183025,35.5294217 C34.4183025,38.4130701 35.579738,41.0250118 37.4560267,42.9140197 C39.3323154,44.8030277 41.9250636,45.9723366 44.7892953,45.9723366 C47.653527,45.9723366 50.2462752,44.8030277 52.1241703,42.9140197 C54.000459,41.0250118 55.1618945,38.4130701 55.1618945,35.5294217 C55.1618945,32.6457734 54.000459,30.035449 52.1241703,28.1448237 Z M74.5785906,94.9134932 L97.9679424,94.9134932 L97.9679424,79.054236 C97.9679424,76.3307005 96.8563056,73.8497602 95.0683696,72.0480865 C93.2804336,70.2480301 90.8161983,69.1304748 88.1110013,69.1304748 L74.5785906,69.1304748 L74.5785906,94.9134932 Z M54.5739479,54.1720545 L35.0046427,54.1720545 C31.7163183,54.1720545 28.7235736,55.5305877 26.5517053,57.7155618 C24.3814433,59.9021533 23.0320576,62.9151857 23.0320576,66.2258016 L23.0320576,94.9134932 L66.546533,94.9134932 L66.546533,66.2258016 C66.546533,62.916803 65.1971473,59.9037706 63.0252789,57.7171791 C60.8550169,55.5305877 57.8606659,54.1720545 54.5739479,54.1720545 Z M85.6082121,46.3896004 C84.0756955,44.8466949 81.9584451,43.8924871 79.61951,43.8924871 C77.2805748,43.8924871 75.1633244,44.8466949 73.6308078,46.3896004 C72.0998976,47.9308886 71.1505084,50.0624918 71.1505084,52.4172826 C71.1505084,54.7720733 72.0998976,56.9052938 73.6308078,58.4481993 C75.1633244,59.9894875 77.2805748,60.9453126 79.61951,60.9453126 C81.9584451,60.9453126 84.0756955,59.9894875 85.6082121,58.446582 C87.1407287,56.9036765 88.0885115,54.7720733 88.0885115,52.4172826 C88.0885115,50.0641091 87.1407287,47.9308886 85.6082121,46.3896004 Z" id="Fill-20" fill="#1A1919"></path>
    </g>
</svg>