<?xml version="1.0" encoding="UTF-8"?>
<svg width="120px" height="120px" viewBox="0 0 120 120" version="1.1" xmlns="http://www.w3.org/2000/svg" xmlns:xlink="http://www.w3.org/1999/xlink">
    <!-- Generator: Sketch 49.1 (51147) - http://www.bohemiancoding.com/sketch -->
    <title>Artboard Copy 10</title>
    <desc>Created with Sketch.</desc>
    <defs></defs>
    <g id="Artboard-Copy-10" stroke="none" stroke-width="1" fill="none" fill-rule="evenodd">
        <path d="M18.067482,30.0873356 L22.5871322,30.0873356 L22.5871322,25.934064 C22.5871322,22.648521 23.9428656,19.6634069 26.1275517,17.5012767 C28.3138537,15.3407445 31.3323401,14 34.6529983,14 L102.932518,14 C106.254792,14 109.273278,15.3407445 111.457965,17.5012767 C113.642651,19.6634069 115,22.6469229 115,25.934064 L115,77.9786003 C115,81.2641434 113.642651,84.2492574 111.457965,86.4097897 C109.273278,88.5703219 106.254792,89.9126644 102.932518,89.9126644 L98.4128678,89.9126644 L98.4128678,94.065936 C98.4128678,97.3418909 97.0571344,100.320613 94.8708324,102.481145 L94.8562894,102.497125 C92.6716033,104.657658 89.6579646,106 86.3453858,106 L18.067482,106 C14.7452079,106 11.7267215,104.657658 9.54203543,102.497125 C7.35573345,100.336593 6,97.351479 6,94.065936 L6,42.0198016 C6,38.7534349 7.35573345,35.7731149 9.54203543,33.6045926 L9.55819435,33.5886123 C11.7509599,31.4280801 14.7629827,30.0873356 18.067482,30.0873356 Z M30.6665925,30.0873356 L86.3453858,30.0873356 C89.6498851,30.0873356 92.6619079,31.4280801 94.8562894,33.5886123 L94.8708324,33.6045926 C97.0571344,35.7731149 98.4128678,38.7534349 98.4128678,42.0198016 L98.4128678,81.9225304 L102.932518,81.9225304 C104.024861,81.9225304 105.021866,81.476681 105.745786,80.760765 C106.469706,80.044849 106.92054,79.0588664 106.92054,77.9786003 L106.92054,25.934064 C106.92054,24.8521999 106.469706,23.8662174 105.745786,23.1503014 C105.021866,22.4343854 104.024861,21.9885359 102.932518,21.9885359 L34.6529983,21.9885359 C33.5606553,21.9885359 32.5636498,22.4343854 31.8397302,23.1503014 C31.1158105,23.8662174 30.6665925,24.8521999 30.6665925,25.934064 L30.6665925,30.0873356 Z M57.9719368,50.8393115 C55.2960196,50.8393115 53.1242606,48.6915635 53.1242606,46.0452311 C53.1242606,43.3973007 55.2960196,41.2511508 57.9719368,41.2511508 L58.0802016,41.2511508 C60.7561189,41.2511508 62.9278778,43.3973007 62.9278778,46.0452311 C62.9278778,48.6915635 60.7561189,50.8393115 58.0802016,50.8393115 L57.9719368,50.8393115 Z M69.7792602,50.8393115 C67.1017271,50.8393115 64.931584,48.6915635 64.931584,46.0452311 C64.931584,43.3973007 67.1017271,41.2511508 69.7792602,41.2511508 L69.8859091,41.2511508 C72.5634423,41.2511508 74.7335854,43.3973007 74.7335854,46.0452311 C74.7335854,48.6915635 72.5634423,50.8393115 69.8859091,50.8393115 L69.7792602,50.8393115 Z M81.1389815,50.8393115 C78.4614484,50.8393115 76.2913053,48.6915635 76.2913053,46.0452311 C76.2913053,43.3973007 78.4614484,41.2511508 81.1389815,41.2511508 L81.2456304,41.2511508 C83.9231636,41.2511508 86.0933066,43.3973007 86.0933066,46.0452311 C86.0933066,48.6915635 83.9231636,50.8393115 81.2456304,50.8393115 L81.1389815,50.8393115 Z M14.0794604,52.8048844 L90.3334075,52.8048844 L90.3334075,42.0198016 C90.3334075,40.9299474 89.8890371,39.9439648 89.1748128,39.237637 L89.1586539,39.2232548 C88.4444296,38.5153289 87.4490401,38.0758715 86.3453858,38.0758715 L18.067482,38.0758715 C16.9638277,38.0758715 15.9684382,38.5153289 15.2542139,39.2232548 L15.238055,39.237637 C14.5238307,39.9439648 14.0794604,40.9299474 14.0794604,42.0198016 L14.0794604,52.8048844 Z M90.3334075,61.5924337 L14.0794604,61.5924337 L14.0794604,94.065936 C14.0794604,95.1462021 14.5286784,96.1321846 15.2542139,96.8481006 C15.9781336,97.5640166 16.9735231,98.0098661 18.067482,98.0098661 L86.3453858,98.0098661 C87.4441924,98.0098661 88.4444296,97.5672127 89.1683493,96.8560907 C89.8874212,96.1401747 90.3334075,95.1525942 90.3334075,94.065936 L90.3334075,61.5924337 Z" id="Fill-15" fill="#1A1919"></path>
    </g>
</svg>