<!DOCTYPE svg PUBLIC "-//W3C//DTD SVG 1.1//EN" "http://www.w3.org/Graphics/SVG/1.1/DTD/svg11.dtd" [
	<!ENTITY ns_flows "http://ns.adobe.com/Flows/1.0/">
]><svg xmlns="http://www.w3.org/2000/svg" width="110" height="124" viewBox="0 -0.3853 110 124" overflow="visible"><path fill-rule="evenodd" clip-rule="evenodd" fill="#FFF" d="M68.807 117.15l-5.966 3.444-.004.002v.002c-2.92 1.626-5.252 2.524-7.568 2.622-2.33.098-4.603-.614-7.394-2.214l-.023-.01-20.35-11.75-.022-.017L7.844 97.893l-.007-.005c-2.87-1.717-4.814-3.286-6.056-5.24C.535 90.683.015 88.36.004 85.136H0V38.915c0-.017 0-.035.003-.05.054-3.318.442-5.775 1.51-7.822 1.08-2.066 2.835-3.68 5.616-5.298l20.37-11.76c.01-.007.017-.01.026-.015L47.16 2.634l.006-.002V2.63c2.92-1.624 5.25-2.523 7.568-2.62 2.33-.1 4.603.613 7.393 2.212l.023.012 20.35 11.75 19.658 11.35.02.012c2.86 1.713 4.802 3.28 6.04 5.233 1.25 1.963 1.77 4.29 1.78 7.51H110V84.31c0 .018-.002.033-.003.05-.055 3.32-.442 5.775-1.512 7.822-1.08 2.065-2.832 3.68-5.614 5.298l-6.455 3.728-27.58 15.924-.027.015z"/><path fill-rule="evenodd" clip-rule="evenodd" fill="#FFF" d="M103.487 81.216v6.892h-.035c-.21 1.422-1.32 2.874-3.294 4.026l-37.947 22.15c-4.035 2.358-10.213 2.607-13.73.555L8.637 91.58c-1.587-.926-2.37-2.17-2.38-3.472v-6.892h.025c.18-1.45 1.294-2.932 3.306-4.107l37.948-22.153c4.036-2.357 10.215-2.606 13.73-.554l39.844 23.26c1.62.944 2.4 2.22 2.38 3.552z"/><path fill-rule="evenodd" clip-rule="evenodd" fill="#9E9E9E" d="M105.576 81.01a2 2 0 0 1 .01.206v6.892c0 .278-.054.545-.152.79-.22.932-.682 1.844-1.375 2.692-.705.86-1.656 1.66-2.845 2.356L63.27 116.098c-2.313 1.35-5.22 2.094-8.037 2.208-2.872.115-5.706-.426-7.81-1.655L7.58 93.394c-1.05-.612-1.86-1.36-2.433-2.192a5.473 5.473 0 0 1-.976-2.837 2.665 2.665 0 0 1-.013-.254v-6.893c0-.233.04-.46.11-.67.195-.977.657-1.94 1.38-2.84.71-.883 1.676-1.705 2.88-2.41l37.948-22.15c2.313-1.35 5.218-2.095 8.037-2.21 2.87-.115 5.705.427 7.81 1.656l39.845 23.258c1.07.625 1.89 1.39 2.464 2.247.604.905.92 1.893.947 2.913zm-4.188 6.575v-6.37h.006v-.033c.006-.25-.077-.506-.243-.757-.216-.325-.58-.647-1.1-.95l-39.844-23.26c-1.41-.822-3.424-1.18-5.53-1.097-2.158.087-4.36.645-6.085 1.65L10.644 78.923c-.766.448-1.344.926-1.734 1.41-.308.38-.49.753-.54 1.096l-.016.114v6.564h-.008c.005.235.092.484.26.73.22.32.58.634 1.087.93l39.844 23.26c1.41.822 3.424 1.18 5.53 1.095 2.16-.085 4.362-.643 6.085-1.65L99.1 90.32c.747-.434 1.318-.905 1.71-1.386.306-.374.492-.735.555-1.064.007-.05.014-.102.023-.152v-.133z"/><path fill-rule="evenodd" clip-rule="evenodd" fill="#F6F6F6" d="M61.262 60.86l34.872 20.356h7.353v6.892h-.035c-.21 1.422-1.32 2.874-3.294 4.026l-37.947 22.15c-4.035 2.358-10.213 2.607-13.73.555L8.637 91.58c-1.587-.926-2.37-2.17-2.38-3.472v-6.892h7.353L47.53 61.414c4.036-2.357 10.215-2.606 13.73-.555z"/><path fill-rule="evenodd" clip-rule="evenodd" fill="#9E9E9E" d="M61.475 60.496l34.773 20.3h7.658v7.73h-.11c-.163.68-.51 1.357-1.036 2-.58.71-1.38 1.38-2.39 1.97l-37.947 22.15c-2.078 1.213-4.7 1.883-7.257 1.986-2.564.104-5.07-.365-6.897-1.43L8.423 91.94c-.832-.487-1.464-1.06-1.893-1.69a3.847 3.847 0 0 1-.666-1.726h-.03v-7.73h7.662L47.32 61.05c2.077-1.21 4.702-1.883 7.257-1.984 2.564-.104 5.07.364 6.898 1.43zm34.45 21.083L61.05 61.22c-1.69-.985-4.03-1.418-6.443-1.32-2.423.096-4.906.73-6.867 1.874L13.82 81.58l-.21.055H6.675v6.472h-.002c.005.577.187 1.145.55 1.675.36.524.9 1.01 1.625 1.434l39.843 23.26c1.688.984 4.03 1.418 6.44 1.32 2.424-.097 4.908-.73 6.867-1.874L99.945 91.77c.925-.54 1.647-1.143 2.164-1.773.52-.637.83-1.3.925-1.95l.032-.212v-6.2h-6.934l-.21-.056z"/><path fill-rule="evenodd" clip-rule="evenodd" fill="#FFF" d="M61.264 54.404l39.843 23.26c3.515 2.05 3.088 5.658-.95 8.015L62.21 107.83c-4.035 2.356-10.213 2.605-13.73.553L8.638 85.123c-3.515-2.05-3.088-5.66.948-8.014l37.948-22.153c4.036-2.357 10.215-2.606 13.73-.554z"/><path fill-rule="evenodd" clip-rule="evenodd" fill="#9E9E9E" d="M61.475 54.04l39.842 23.26c.952.554 1.637 1.222 2.063 1.95.37.635.544 1.315.524 2.01-.017.69-.224 1.385-.617 2.057-.575.985-1.552 1.927-2.918 2.723L62.42 108.193c-2.078 1.212-4.7 1.882-7.257 1.985-2.564.104-5.07-.365-6.897-1.433L8.424 85.485c-.95-.553-1.636-1.22-2.062-1.95a3.75 3.75 0 0 1-.525-2.01c.02-.686.226-1.382.62-2.054.574-.983 1.55-1.926 2.916-2.72L47.32 54.594c2.077-1.212 4.702-1.883 7.257-1.985 2.564-.104 5.07.365 6.898 1.43zm39.42 23.984L61.052 54.767c-1.69-.986-4.03-1.42-6.443-1.32-2.424.096-4.907.73-6.868 1.872L9.796 77.47c-1.235.72-2.11 1.557-2.615 2.422-.32.552-.49 1.11-.504 1.653a2.923 2.923 0 0 0 .413 1.565c.354.608.94 1.17 1.76 1.65l39.844 23.26c1.688.984 4.03 1.416 6.44 1.32 2.424-.097 4.907-.73 6.866-1.874l37.946-22.152c1.237-.723 2.112-1.56 2.616-2.424.322-.55.492-1.11.506-1.65a2.94 2.94 0 0 0-.412-1.566c-.356-.608-.94-1.172-1.76-1.652z"/><path fill-rule="evenodd" clip-rule="evenodd" fill="#9E9E9E" d="M5.835 78.215v-36.17l.002-.004c.047-2.976.39-5.177 1.348-7.01.963-1.84 2.526-3.28 5.006-4.724h.004l18.16-10.485L47.88 9.7l.007-.002c2.602-1.45 4.68-2.252 6.746-2.34 2.077-.085 4.104.547 6.593 1.973l.002.004L79.39 19.82l17.524 10.12.007.002c2.56 1.53 4.294 2.93 5.4 4.672 1.114 1.754 1.577 3.827 1.587 6.7h.002V77.48h-.84V41.313c-.008-2.703-.434-4.64-1.46-6.25-1.026-1.62-2.674-2.94-5.12-4.404L78.97 20.542 60.81 10.06c-2.348-1.345-4.24-1.944-6.143-1.864-1.915.08-3.88.846-6.367 2.23L30.774 20.543h-.002L12.612 31.03c-2.34 1.36-3.803 2.698-4.686 4.387-.887 1.698-1.207 3.783-1.252 6.63h.002v36.168h-.84z"/><path fill-rule="evenodd" clip-rule="evenodd" fill="#F6F6F6" d="M66.546 81.442l-.03.02-.008.004-1.99 1.27c.003 1.924.01 3.95.01 4.228 0 1.516.113 2.715-.642 3.18l-1.81 1.115a1.04 1.04 0 0 1-.22.177l-2.54 1.566c-.14.165-.327.286-.578.356a1.98 1.98 0 0 1-.408.064c-1.12.07-2.53-.995-3.463-2.688-.617-1.12-.516-2.24-.516-3.588 0-.536.037-7.548-.01-7.907l-.48-.262c.006 1.014.012 1.843.012 2.14 0 1.38.136 2.69-.643 3.184l-1.93 1.225c-.032.024-.065.05-.1.07l-2.676 1.695c-.198.168-.468.27-.835.29-.36.02-.82-.097-1.277-.342-.94-.502-1.775-1.468-2.196-2.323-.662-1.346-.525-2.026-.525-3.568v-7.94c-1.563-1.05-2.41-.946-3.68-2.803-.772-1.13-1.44-2.675-1.444-4.51v-7.615l-2.525 1.594a1.26 1.26 0 0 1-.372.235c-1.28.54-3.32-.93-4.1-2.756-.564-1.318-.424-1.946-.424-3.367v-14.81c0-1.043.06-1.856.826-2.156l2.03-1.294.376-.24c.103-.103.23-.186.388-.247l1.64-1.048c.103-.102.23-.186.39-.248.555-.22 1.265-.16 2.124.407.387-1.647 1.043-2.957 1.727-3.836a5.324 5.324 0 0 1 1.36-1.246v-.003l2.043-1.277-.016-.016.562-.352c.155-.11.316-.21.48-.3l1.326-.828c.3-.237.617-.433.947-.593h.005c2.812-1.348 6.555.016 9.174 1.45 3.01 1.646 5.77 3.983 7.864 6.715a25.21 25.21 0 0 1 3.18 5.518c1.024 2.47 2.002 5.923 2.073 8.98l-2.03 1.294 2.01 1.102.003.18v4.178l.055-.034.46-.293c.098-.085.202-.15.305-.196l1.73-1.094c.096-.085.2-.15.305-.196.53-.24 1.388-.105 2.248.502.857.606 1.51 1.502 1.864 2.295.55 1.22.413 2.075.413 3.397v14.768c0 .628.013 1.075-.188 1.494-.117.25-.282.432-.48.56l-2.027 1.293-2.795 1.78-.018.014-.005.002c-.586.354-1.454.2-2.296-.36-.18.327-.41.562-.656.72l-.007.003-1.99 1.27z"/><path fill-rule="evenodd" clip-rule="evenodd" fill="#7FC042" d="M67.693 83.198l-.028.02c-.055.033-.11.066-.165.095l-.89.566c.002.93.006 1.792.008 2.373l.002.708h.008c0 1.043-.007.23-.005.51.018 1.843.03 3.29-1.428 4.313a2.013 2.013 0 0 1-.37.238l-1.474.91-.047.04c-.028.025-.058.047-.088.07-.126.107-.267.2-.417.275l-2.16 1.33a3.26 3.26 0 0 1-1.29.717l-.043.012c-.12.035-.264.067-.43.093a4.65 4.65 0 0 1-.412.047v.002c-1.084.067-2.217-.346-3.227-1.13-.826-.64-1.605-1.55-2.205-2.642-.8-1.45-.786-2.683-.772-4.113.002-.23-.003.43-.005-.217l-.01.008-2.534 1.604a3.235 3.235 0 0 1-.84.445 3.83 3.83 0 0 1-1.07.203 4.123 4.123 0 0 1-1.26-.14 5.402 5.402 0 0 1-1.11-.45 7.12 7.12 0 0 1-1.78-1.383 7.827 7.827 0 0 1-1.305-1.856h-.003c-.78-1.584-.766-2.434-.744-3.853 0-.056-.003.12-.003-.64h.01v-6.736l-.153-.076c-1.11-.575-1.994-1.032-3.167-2.747-.518-.76-1-1.675-1.34-2.73a9.748 9.748 0 0 1-.464-2.962h-.01v-3.852c-1.33.554-2.85.22-4.155-.658-1.097-.736-2.112-1.91-2.67-3.212-.634-1.488-.62-2.28-.596-3.53v-15.47c0-.685.025-1.316.217-1.953.275-.922.795-1.638 1.753-2.072l1.86-1.184.216-.14a3.218 3.218 0 0 1 .71-.45l1.318-.843c.103-.087.213-.168.326-.242.18-.114.375-.214.583-.295.47-.184.983-.28 1.534-.26.05-.12.1-.238.153-.352.375-.833.817-1.56 1.28-2.154.29-.37.585-.69.888-.967.29-.263.588-.495.894-.698l.063-.044c.05-.032.103-.064.156-.093l1.69-1.055c.078-.063.16-.12.24-.174l.52-.326a5.435 5.435 0 0 1 .525-.326l1.28-.802a7.67 7.67 0 0 1 .502-.35c.162-.1.346-.202.552-.305.1-.06.2-.108.305-.147 1.608-.723 3.367-.818 5.102-.543l.077.014c2.078.343 4.115 1.213 5.74 2.104 1.648.9 3.22 1.985 4.66 3.214A27.014 27.014 0 0 1 66.067 33c.657.855 1.302 1.83 1.904 2.875a27.057 27.057 0 0 1 1.545 3.11 32.602 32.602 0 0 1 1.592 4.986c.357 1.555.6 3.184.638 4.75.01.467-.132.9-.383 1.256.266.387.396.855.367 1.323v.05h.007v.405c.655-.267 1.435-.326 2.245-.145.63.14 1.306.433 1.957.895a7.5 7.5 0 0 1 1.483 1.394c.46.564.828 1.175 1.088 1.754.64 1.428.625 2.39.6 3.63v15.382h-.01v.112c.003.842.003 1.46-.39 2.283a3.34 3.34 0 0 1-1.198 1.392l-.046.03-1.862 1.19c-.102.08-.212.15-.33.21l-2.625 1.673v.004l-.02.01c-.08.054-.166.1-.254.14-.68.35-1.447.456-2.24.33a4.783 4.783 0 0 1-.475-.1 1.46 1.46 0 0 1-.113.067l-1.86 1.186.005.006zm-2.467-3.392c.097-.077.203-.143.315-.202l1.76-1.122c.024-.016.047-.03.07-.047l.005-.01.08-.13a2.095 2.095 0 0 1 2.904-.59c.112.074.21.13.292.163l2.505-1.596.036-.024 1.746-1.112c-.008-.08-.02-.196-.02-.36v-.11h-.01v-14.77c0-.16.01-.264.02-.68.013-.72.02-1.275-.24-1.862a3.992 3.992 0 0 0-.512-.82 3.428 3.428 0 0 0-.65-.623 1.698 1.698 0 0 0-.326-.183l-1.542.984a2.012 2.012 0 0 1-.242.146 1.41 1.41 0 0 1-.143.1l-.35.225a2.1 2.1 0 0 1-3.387-1.66V52.4l-.92-.504.002-.004a2.09 2.09 0 0 1-.116-3.595l.987-.63a21.786 21.786 0 0 0-.47-2.764 27.536 27.536 0 0 0-1.377-4.313 22.49 22.49 0 0 0-2.907-5.052 22.762 22.762 0 0 0-3.265-3.426 23.287 23.287 0 0 0-3.936-2.722c-1.296-.71-2.88-1.398-4.41-1.65a.573.573 0 0 1-.064-.01c-.973-.152-1.91-.127-2.682.204-.07.04-.14.072-.213.104-.054.03-.12.068-.195.115-.073.047-.136.09-.187.124a2.482 2.482 0 0 1-.27.2l-1.327.828-.002-.004c-.033.02-.068.043-.105.063l-.137.084-.112.072c-.04.03-.08.06-.125.085l-.29.182c-.08.067-.164.13-.255.186l-1.955 1.22-.072.05a3.25 3.25 0 0 0-.835.762 6.36 6.36 0 0 0-.758 1.3 9.637 9.637 0 0 0-.577 1.726 2.098 2.098 0 0 1-3.198 1.272 1.853 1.853 0 0 0-.245-.14l-1.505.964c-.106.077-.22.147-.342.205-.054.043-.11.084-.17.12l-.378.243-1.872 1.193c-.006.136-.007.306-.007.494v14.81c0 .147-.01.31-.017.725-.014.7-.023 1.144.27 1.823a3.26 3.26 0 0 0 1.14 1.376c.154.103.155.227.184.266.033-.025.068-.048.105-.07l2.382-1.507a2.1 2.1 0 0 1 3.356 1.682V66.1h-.01c0 .6.104 1.167.27 1.683.2.623.494 1.18.814 1.647.577.844 1.042 1.084 1.625 1.386.426.22.893.46 1.487.86v.003c.56.374.927 1.013.927 1.734v7.94h.01c0 .277-.01.222-.015.69-.012.79-.02 1.263.318 1.95l-.003.002.003.005c.127.26.335.55.602.833.224.24.467.44.7.565.038.02.078.038.12.053l2.515-1.594c.046-.033.093-.067.142-.098l1.915-1.214.014-.008c.308-.194-.312-.3-.32-.852-.005-.496-.01-.135-.01-.56v-1.27l-.004-.72a2.09 2.09 0 0 1 .25-1.16 2.1 2.1 0 0 1 2.847-.828l.48.263-.002.003c.566.31.98.876 1.07 1.56.056.43.04 5.478.03 7.447v.732h.006c0 .728-.005-.067-.01.515-.01.835-.016 1.556.262 2.063.325.588.707 1.05 1.09 1.346.137.106.243.18.315.223.035-.025.073-.05.11-.07l2.442-1.51c.095-.09.202-.17.316-.24l1.798-1.107.015-.006c.335-.207-.342-.26-.348-.862-.005-.62-.01.14-.01-.542h.007l-.002-.708c-.002-.817-.006-2.192-.008-3.517a2.094 2.094 0 0 1 .967-1.765l1.83-1.166zm-15.246 4.09l.002-.002-.002.002zm23.558-28.408l-.015.012.017-.01-.002-.002z"/><path fill-rule="evenodd" clip-rule="evenodd" fill="#DEE9C2" d="M66.546 81.442l-.03.02-.008.004-1.99 1.27c.003 1.924.01 3.95.01 4.226 0 1.518.113 2.717-.642 3.182l-1.81 1.115a1.04 1.04 0 0 1-.22.177l-2.54 1.566c-.14.165-.327.286-.578.356a1.98 1.98 0 0 1-.408.064c-1.12.07-2.53-.995-3.463-2.688-.617-1.12-.516-2.24-.516-3.588 0-.536.037-7.548-.01-7.907l-.48-.262c.006 1.014.012 1.843.012 2.14 0 1.38.136 2.69-.643 3.184l-1.93 1.225c-.032.024-.065.05-.1.07l-2.677 1.697c-.197.166-.467.268-.834.29-.36.017-.82-.1-1.277-.344-.94-.502-1.775-1.468-2.196-2.323-.662-1.346-.525-2.026-.525-3.568v-7.94c-1.563-1.05-2.41-.947-3.68-2.804-.772-1.13-1.44-2.675-1.444-4.51V58.48l-2.525 1.597c-.1.093-.222.172-.37.235-1.28.54-3.322-.93-4.103-2.757-.564-1.318-.424-1.946-.424-3.366V39.373c0-1.04.06-1.853.826-2.153l2.03-1.294.376-.24c.103-.103.23-.186.388-.247l1.64-1.048c.103-.102.23-.186.388-.248.558-.22 1.267-.16 2.126.407.388-1.647 1.043-2.957 1.728-3.836a5.324 5.324 0 0 1 1.36-1.246v-.003l2.043-1.277-.015-.016.562-.352c.155-.11.316-.21.48-.3l1.325-.828c.302-.237.62-.433.948-.59l.006-.004c2.813-1.347 6.555.017 9.174 1.45 3.01 1.647 5.77 3.984 7.866 6.717a25.204 25.204 0 0 1 3.18 5.517c1.024 2.47 2.002 5.923 2.073 8.98l-2.03 1.295 2.01 1.1.002.182v4.176l.055-.034.46-.293c.098-.087.202-.15.305-.198L72.18 53.9c.096-.085.2-.15.305-.196.53-.24 1.388-.105 2.248.502.857.606 1.51 1.502 1.864 2.295.55 1.22.412 2.075.412 3.397v14.768c0 .628.012 1.075-.19 1.495-.116.248-.28.43-.48.557l-2.026 1.295-2.8 1.785-.013.01h-.004c-.586.357-1.454.202-2.296-.357-.18.326-.41.56-.657.717l-.007.005-1.99 1.27z"/><path fill-rule="evenodd" clip-rule="evenodd" fill="#7FC042" d="M66.775 81.793l-.03.02-.018.012-.02.01-1.77 1.13c0 1.253.005 2.52.008 3.29v.707h.003c0 .355.002.445.002.523.013 1.377.023 2.448-.806 2.99a.444.444 0 0 1-.07.046l-1.73 1.068c-.033.03-.068.062-.105.09-.04.032-.08.065-.125.092a.325.325 0 0 1-.072.045l-2.455 1.512a1.475 1.475 0 0 1-.3.247c-.13.08-.274.144-.437.19-.07.02-.15.036-.24.05-.08.015-.168.024-.254.03-.668.042-1.407-.244-2.1-.782l-.024-.02c-.64-.502-1.25-1.225-1.735-2.104-.59-1.07-.58-2.102-.568-3.293v-.496l.005-.73c0-.563.004-1.38.006-2.264-.113.19-.264.352-.462.484l-.043.028-1.895 1.2-.05.036-.013.01-.017.01a.456.456 0 0 1-.055.04l-2.64 1.672a1.502 1.502 0 0 1-.46.252c-.172.062-.37.1-.597.113a2.4 2.4 0 0 1-.738-.085 3.86 3.86 0 0 1-.755-.306 5.38 5.38 0 0 1-1.37-1.08 6.13 6.13 0 0 1-1.003-1.425c-.604-1.225-.594-1.926-.576-3.094.003-.15.005-.312.005-.66h.003v-7.71c-.388-.248-.735-.427-1.056-.594-.9-.462-1.618-.835-2.552-2.2a8.873 8.873 0 0 1-1.13-2.296 8.13 8.13 0 0 1-.387-2.453V59.24L36.3 60.41a1.41 1.41 0 0 1-.2.15 1.778 1.778 0 0 1-.266.136c-.77.325-1.724.084-2.59-.5a5.88 5.88 0 0 1-2.06-2.478c-.497-1.164-.485-1.816-.464-2.846.003-.168.006-.35.006-.683V39.373c0-.552.018-1.05.144-1.473.145-.48.414-.85.914-1.055l1.992-1.27.34-.22a1.56 1.56 0 0 1 .46-.292l1.568-1a1.536 1.536 0 0 1 .497-.31c.366-.142.778-.19 1.24-.1.244.046.502.13.772.262.17-.598.37-1.15.595-1.647a8.892 8.892 0 0 1 1.073-1.813 6.13 6.13 0 0 1 .696-.755c.238-.216.484-.405.74-.568.016-.015.034-.025.052-.036l1.905-1.19.026-.028a.502.502 0 0 1 .075-.062l.55-.346c.083-.057.165-.11.25-.164.072-.046.153-.093.243-.14v-.002l1.314-.82a5.376 5.376 0 0 1 1.04-.64c1.3-.61 2.77-.688 4.238-.457l.016.003c1.878.3 3.758 1.104 5.267 1.93 1.54.842 3.012 1.86 4.368 3.02a25.065 25.065 0 0 1 3.63 3.808 25.48 25.48 0 0 1 3.232 5.612c.564 1.354 1.11 3 1.507 4.718.34 1.46.567 2.977.6 4.414a.42.42 0 0 1-.205.37l-1.42.906 1.39.76c.148.084.228.24.218.396v3.553l.016-.01.03-.016a1.74 1.74 0 0 1 .156-.085l1.67-1.064c.054-.045.11-.09.173-.127a2.06 2.06 0 0 1 .213-.116c.354-.16.81-.193 1.305-.082.427.097.893.3 1.353.626.44.31.825.688 1.15 1.088.364.448.656.93.857 1.382.49 1.092.476 1.892.455 2.923-.002.163-.005.335-.005.64v14.77h-.002v.112c0 .624.002 1.082-.228 1.562a1.77 1.77 0 0 1-.267.41c-.103.122-.22.225-.348.31l-.018.01-1.992 1.27a.215.215 0 0 1-.07.045l-2.762 1.763v.002l-.013.01c-.012.006-.023.01-.035.018l-.01.005c-.37.216-.815.278-1.29.205a3.364 3.364 0 0 1-1.07-.375 2.32 2.32 0 0 1-.553.507h-.002.002l-.01.005-.024.014-1.965 1.253zm-.476-.69l.015-.012v.004l.005-.004 1.97-1.255.02-.015.01-.005v.002-.002c.097-.06.19-.14.278-.235.084-.09.163-.202.238-.335.006-.01.01-.018.017-.027a.418.418 0 0 1 .58-.117c.377.253.75.41 1.09.463.28.042.532.015.73-.095.018-.01.035-.024.055-.033l2.764-1.764.018-.01 2.014-1.285.013-.008a.934.934 0 0 0 .328-.388c.148-.308.146-.685.146-1.2V59.895c0-.15.006-.407.01-.655.016-.926.03-1.645-.383-2.57a5.462 5.462 0 0 0-.743-1.192 5.025 5.025 0 0 0-.983-.932 2.958 2.958 0 0 0-1.05-.493c-.317-.07-.59-.058-.785.03a.858.858 0 0 0-.103.056c-.03.02-.065.046-.1.075a.417.417 0 0 1-.047.036l-1.708 1.09a.304.304 0 0 1-.068.04c-.03.012-.06.03-.09.044l-.017.012a.89.89 0 0 0-.098.072c-.017.01-.032.023-.05.036l-.46.293-.022.013a.418.418 0 0 1-.676-.332v-4.11l-1.793-.985h.002a.42.42 0 0 1-.025-.722l1.83-1.162c-.05-1.303-.266-2.678-.574-4.012a29.794 29.794 0 0 0-1.464-4.583c-.4-.964-.872-1.918-1.394-2.823a24.133 24.133 0 0 0-1.728-2.603 24.307 24.307 0 0 0-3.51-3.68 24.788 24.788 0 0 0-4.224-2.92c-1.443-.792-3.232-1.56-5-1.84l-.013-.003c-1.317-.21-2.62-.146-3.752.386-.017.01-.034.02-.053.027a4.677 4.677 0 0 0-.827.515c-.018.016-.038.03-.06.046l-1.326.828-.02.012a4.357 4.357 0 0 0-.44.276l-.02.012-.44.275a.392.392 0 0 1-.105.094l-2.017 1.26-.026.017c-.227.145-.446.31-.654.5a5.21 5.21 0 0 0-.6.65c-.34.435-.672.985-.968 1.643a11.3 11.3 0 0 0-.682 2.032.418.418 0 0 1-.64.255c-.357-.237-.68-.37-.966-.427a1.387 1.387 0 0 0-.776.06.764.764 0 0 0-.244.155.43.43 0 0 1-.07.056l-1.617 1.03a.374.374 0 0 1-.097.053.644.644 0 0 0-.245.154c-.02.02-.045.038-.07.056l-.377.24-2.005 1.278c-.03.02-.06.04-.096.053-.243.098-.377.282-.45.53-.096.318-.11.75-.11 1.235V54.19c0 .17-.005.444-.01.697-.017.92-.03 1.5.4 2.504a4.984 4.984 0 0 0 1.754 2.113c.645.433 1.314.63 1.8.425a.81.81 0 0 0 .142-.076.497.497 0 0 0 .108-.08.56.56 0 0 1 .062-.047l2.524-1.596a.42.42 0 0 1 .64.354V66.1c.002.792.134 1.527.348 2.196a8.1 8.1 0 0 0 1.024 2.08c.815 1.19 1.447 1.518 2.24 1.93.392.2.818.42 1.325.76a.42.42 0 0 1 .186.348v7.936h.003c0 .134-.005.414-.01.67-.014 1.043-.024 1.667.49 2.714.2.403.5.835.86 1.223.01.007.017.014.024.022.34.356.728.673 1.133.89.194.104.39.18.578.23.18.05.345.07.48.064.14-.007.26-.03.364-.067a.765.765 0 0 0 .207-.11.372.372 0 0 1 .08-.06l2.66-1.684.023-.016.008-.007.028-.02a.187.187 0 0 1 .04-.027l1.92-1.217.008-.006c.48-.305.468-1.24.454-2.288l-.006-.542c0-.436 0-.776-.004-1.2l-.005-.91a.43.43 0 0 1 .05-.233.422.422 0 0 1 .57-.165l.48.263-.002.002a.41.41 0 0 1 .214.312c.044.324.027 5.29.02 7.23l-.002.73h.002l-.006.5c-.01 1.07-.02 2 .468 2.884.43.78.963 1.414 1.515 1.85l.023.014c.535.415 1.074.636 1.533.608.066-.005.125-.01.176-.02l.12-.024.045-.014a.69.69 0 0 0 .352-.216.423.423 0 0 1 .1-.086l2.53-1.556.01-.01c.026-.016.05-.03.07-.05a.45.45 0 0 0 .06-.057.527.527 0 0 1 .09-.072l1.8-1.107.01-.005c.464-.287.458-1.166.447-2.297l-.006-.53h.002l-.002-.707-.01-3.518c0-.14.07-.274.195-.355l1.957-1.25c.018-.01.03-.02.05-.03z"/><path fill-rule="evenodd" clip-rule="evenodd" fill="#FFF" d="M64.814 54.418v26.116c0 1.767-.7 2.627-1.442 2.878-1.256.427-2.076-.487-3.653-1.22-.046.314-.014 7.315-.014 7.846 0 1.89.177 3.29-1.377 3.387-1.12.07-2.53-.995-3.464-2.688-.617-1.12-.516-2.24-.516-3.588 0-.537.036-7.55-.012-7.908l-5.262-2.892c-.094.305-.026 6.883-.026 7.846 0 1.708.206 3.303-1.36 3.387-.357.018-.818-.098-1.276-.343-.938-.502-1.775-1.468-2.196-2.323-.662-1.346-.525-2.026-.525-3.568v-7.94c-1.563-1.05-2.41-.946-3.68-2.803-.772-1.13-1.44-2.675-1.444-4.51V39.842l26.243 14.393v.182zM59.58 37.342c-2.097-2.732-4.857-5.07-7.87-6.716-3.265-1.787-8.284-3.47-11.06.09-1.047 1.343-2.025 3.694-2.085 6.725l26.268 14.4c-.074-3.057-1.053-6.51-2.077-8.98a25.088 25.088 0 0 0-3.177-5.517zm10.33 19.94c.86.607 1.51 1.503 1.865 2.295.547 1.22.412 2.073.412 3.395V77.74c0 .628.014 1.075-.185 1.494-.78 1.63-3.506.533-4.755-2.136-.54-1.153-.417-2.104-.417-3.39V58.942c0-.645-.016-1.083.18-1.502.16-.34.408-.55.65-.66.532-.238 1.392-.103 2.25.504zM34.215 37.708c.827.58 1.508 1.476 1.873 2.288.543 1.21.414 2.052.414 3.365v14.814c0 1.108-.078 1.822-.83 2.14-1.28.54-3.32-.93-4.102-2.758-.564-1.318-.424-1.946-.424-3.366V39.376c0-1.042.06-1.855.826-2.155.582-.227 1.33-.154 2.242.487z"/><path fill-rule="evenodd" clip-rule="evenodd" fill="#7FC042" d="M65.234 54.418v26.116h-.002c0 .877-.163 1.557-.42 2.067-.327.656-.805 1.04-1.305 1.21-1.086.37-1.836-.06-2.83-.63-.176-.1-.36-.208-.557-.313-.013 1.42 0 4.902.004 6.445l.002.73h.002v.52c.018 1.852.03 3.17-1.77 3.284-.67.04-1.407-.244-2.1-.782-.65-.503-1.27-1.232-1.76-2.124-.59-1.07-.58-2.1-.568-3.29 0-.082.002-.146.002-.5h.002l.002-.73c.006-1.74.02-5.928-.003-6.92l-4.48-2.463c-.022 1.244-.003 4.24.008 5.968l.01 1.193c0 .292 0 .42.004.533.022 1.706.04 3.177-1.762 3.27a2.4 2.4 0 0 1-.738-.085 3.828 3.828 0 0 1-.754-.306 5.413 5.413 0 0 1-1.35-1.057 6.028 6.028 0 0 1-1.024-1.448c-.604-1.225-.593-1.926-.576-3.094.003-.15.005-.312.005-.66h.002v-7.71c-.387-.25-.735-.427-1.056-.594-.9-.463-1.616-.835-2.55-2.202a8.81 8.81 0 0 1-1.13-2.294 8.067 8.067 0 0 1-.39-2.453l.003-26.253a.42.42 0 0 1 .418-.42c.074 0 .14.02.2.053l.003-.002L65.015 53.87a.41.41 0 0 1 .216.392l.004.155zm-.838 26.116h-.002v-26.05L38.988 40.55v25.545a7.2 7.2 0 0 0 .347 2.197 8.1 8.1 0 0 0 1.024 2.08c.814 1.19 1.447 1.518 2.24 1.928.39.2.817.423 1.324.763a.416.416 0 0 1 .186.347v7.94h.003c0 .134-.005.413-.01.67-.014 1.043-.023 1.667.49 2.712v.002c.2.408.51.85.884 1.245.34.355.728.673 1.133.89.194.104.39.18.578.23.18.05.344.07.48.064.998-.053.984-1.15.968-2.428l-.007-.54c0-.457-.004-.772-.007-1.19-.013-2.054-.038-5.858.033-6.65 0-.07.015-.14.05-.207a.42.42 0 0 1 .57-.166l5.263 2.89v.002c.11.06.194.175.21.312.045.325.028 5.29.02 7.228v.73l-.005.504c-.01 1.073-.02 2 .467 2.883.435.79.977 1.43 1.536 1.864.533.415 1.074.636 1.533.607h.004c1.007-.062 1-1.05.987-2.44l-.005-.526h.002l-.003-.73c-.007-1.87-.023-6.57.015-7.133a.417.417 0 0 1 .594-.364c.46.214.846.435 1.197.637.807.464 1.418.812 2.145.565.308-.105.608-.352.826-.787.204-.403.333-.958.333-1.694zm-4.484-43.446a25.37 25.37 0 0 0-3.63-3.81 25.926 25.926 0 0 0-4.37-3.02c-1.926-1.054-4.455-2.073-6.817-2.054-1.803.016-3.504.625-4.774 2.253-.593.763-1.165 1.83-1.57 3.143-.34 1.1-.57 2.38-.6 3.804a.42.42 0 0 0 .215.403l26.265 14.4a.418.418 0 0 0 .62-.377c-.035-1.436-.263-2.953-.6-4.414a30.545 30.545 0 0 0-1.506-4.718A25.586 25.586 0 0 0 61.7 39.78a24.997 24.997 0 0 0-1.79-2.692zm1.063 3.108a24.05 24.05 0 0 0-1.73-2.6 24.266 24.266 0 0 0-3.51-3.682 24.927 24.927 0 0 0-4.223-2.92c-1.83-1.003-4.22-1.97-6.41-1.953-1.563.014-3.033.537-4.123 1.93-.54.69-1.06 1.667-1.434 2.877-.3.975-.51 2.1-.556 3.35l25.39 13.918a22.808 22.808 0 0 0-.547-3.512 29.466 29.466 0 0 0-1.463-4.58c-.4-.965-.875-1.92-1.395-2.826zM70.15 56.94c.44.31.826.687 1.15 1.087.365.447.656.93.858 1.38.49 1.093.475 1.892.455 2.924-.003.163-.006.337-.006.643v14.88c0 .625.002 1.082-.228 1.563-.19.396-.474.67-.823.834-.3.14-.642.19-1.003.158a3.086 3.086 0 0 1-1.052-.306c-.978-.466-1.994-1.455-2.634-2.826-.496-1.057-.482-1.923-.465-2.973.002-.144.006-.295.006-.595V58.94h.002v-.14c-.002-.624-.004-1.066.217-1.54.096-.204.22-.373.352-.51v-.002c.156-.157.333-.273.506-.35l.026-.012c.352-.15.798-.18 1.282-.072.428.095.892.3 1.35.626zm.5 1.615a4.985 4.985 0 0 0-.98-.933 2.956 2.956 0 0 0-1.053-.49c-.306-.07-.573-.06-.766.022l-.014.007a.925.925 0 0 0-.448.457c-.14.3-.14.67-.14 1.184V73.71c0 .118-.002.365-.006.607-.015.945-.028 1.725.384 2.606.555 1.19 1.415 2.036 2.238 2.43.267.127.528.204.766.226.216.02.412-.007.574-.083a.885.885 0 0 0 .42-.44c.147-.305.147-.684.147-1.2v-.112h-.002V62.973c0-.148.005-.406.01-.654.018-.927.032-1.646-.383-2.57a5.5 5.5 0 0 0-.743-1.193zm-36.19-21.19c.43.302.822.68 1.155 1.088.358.438.653.915.858 1.373.49 1.09.477 1.88.458 2.914 0 .15-.004.31-.004.62v14.813h-.002c0 .59-.02 1.082-.15 1.492-.152.475-.43.82-.935 1.03-.77.325-1.724.085-2.59-.5a5.852 5.852 0 0 1-2.06-2.477c-.5-1.164-.484-1.816-.464-2.844.002-.17.006-.353.006-.686v-14.81c0-.555.018-1.052.144-1.476.148-.495.427-.866.95-1.07a2.2 2.2 0 0 1 1.3-.09c.41.09.855.287 1.336.623zm.505 1.62a4.98 4.98 0 0 0-.987-.934c-.382-.266-.725-.423-1.03-.49a1.418 1.418 0 0 0-.82.05c-.242.1-.375.283-.45.53-.095.32-.108.75-.108 1.238V54.19c0 .17-.006.444-.01.696-.018.92-.03 1.5.4 2.505a4.995 4.995 0 0 0 1.752 2.113c.645.433 1.314.63 1.8.424a.78.78 0 0 0 .463-.513c.096-.304.11-.723.11-1.24V43.36c0-.13.005-.388.01-.634.015-.926.028-1.636-.386-2.56a5.453 5.453 0 0 0-.745-1.182z"/><path fill-rule="evenodd" clip-rule="evenodd" fill="#7FC042" d="M57.02 39.978c1.94 1.67 1.185 4.974-.67 3.353-.668-.58-1.298-1.84-1.077-2.904.165-.798.873-1.2 1.747-.447zm-11.228-6.153c.412.362.674.754.87 1.227.205.504.34 1.142.224 1.675-.47 2.194-3.277-.223-2.85-2.434.154-.805.855-1.266 1.756-.468zM48.616 26.642a.627.627 0 1 1-1.153.498l-2.23-5.16a.626.626 0 1 1 1.15-.5l2.23 5.162zM59.996 33.027a.628.628 0 0 1-.787-.98l5.718-4.604a.63.63 0 0 1 .884.097.63.63 0 0 1-.096.883l-5.72 4.604z"/></svg>