<!DOCTYPE svg PUBLIC "-//W3C//DTD SVG 1.1//EN" "http://www.w3.org/Graphics/SVG/1.1/DTD/svg11.dtd" [
	<!ENTITY ns_flows "http://ns.adobe.com/Flows/1.0/">
]><svg xmlns="http://www.w3.org/2000/svg" width="125" height="125" viewBox="0 0 125 125" overflow="visible"><path fill="#FFF" d="M111.07 82.69v7.715h-.03c-.248 1.61-1.487 3.224-3.688 4.523L64.864 119.72c-4.523 2.665-11.465 2.945-15.4.65L4.834 94.312C3.07 93.257 2.2 91.865 2.17 90.408V82.69h.03c.217-1.61 1.457-3.284 3.72-4.585l42.488-24.823c4.524-2.634 11.436-2.914 15.37-.62l44.628 26.062c1.826 1.053 2.696 2.48 2.664 3.967z"/><path fill="#9EA0A1" d="M113.24 82.475c0 .094.03.154.03.217v7.715c0 .31-.063.59-.188.837a7.747 7.747 0 0 1-1.485 2.977c-.774.93-1.828 1.83-3.16 2.606l-42.49 24.794c-2.57 1.482-5.794 2.32-8.925 2.443-3.19.127-6.32-.463-8.646-1.826L3.75 96.204c-1.146-.683-2.046-1.52-2.665-2.418-.65-.96-1.023-2.015-1.054-3.1-.03-.09-.03-.183-.03-.276v-7.72c0-.247.03-.464.124-.684.217-1.082.713-2.138 1.518-3.13.775-.96 1.83-1.893 3.162-2.665l42.52-24.79c2.54-1.52 5.763-2.323 8.894-2.45 3.19-.153 6.353.467 8.677 1.83l44.63 26.03c1.177.687 2.073 1.523 2.693 2.48.652.996.99 2.048 1.023 3.166zm-4.338 7.375v-7.19c0-.31-.094-.618-.312-.93-.248-.402-.68-.774-1.27-1.115L62.693 54.55c-1.612-.93-3.904-1.332-6.29-1.238-2.448.093-4.93.712-6.91 1.86L7.003 79.996c-.868.495-1.55 1.053-1.983 1.61-.37.466-.588.897-.65 1.3v7.5h-.03c0 .312.124.622.34.93.248.373.682.745 1.27 1.086l44.627 26.062c1.61.932 3.874 1.334 6.29 1.242 2.42-.094 4.93-.715 6.88-1.858l42.52-24.825c.837-.496 1.49-1.02 1.954-1.58.373-.466.59-.866.65-1.272 0-.06.033-.124.033-.185v-.157z"/><path fill="#F6F6F6" d="M63.78 59.914l39.077 22.777h8.213v7.716h-.03c-.248 1.61-1.487 3.224-3.688 4.523l-42.488 24.79c-4.523 2.665-11.465 2.945-15.4.65L4.834 94.312C3.07 93.257 2.2 91.865 2.17 90.408V82.69h8.243l37.995-22.157c4.524-2.634 11.435-2.912 15.37-.62z"/><path fill="#9EA0A1" d="M63.996 59.542l38.956 22.716h8.554v8.584h-.093c-.188.775-.59 1.55-1.18 2.264-.65.807-1.55 1.55-2.665 2.2L65.08 120.128c-2.322 1.33-5.268 2.104-8.118 2.198-2.883.123-5.672-.403-7.717-1.58L4.618 94.686a6.313 6.313 0 0 1-2.107-1.892c-.4-.59-.65-1.27-.742-1.953h-.032v-8.586h8.554l37.9-22.093c2.324-1.362 5.27-2.105 8.12-2.23s5.64.404 7.686 1.613zm38.613 23.522l-39.05-22.78c-1.893-1.115-4.525-1.61-7.223-1.487-2.73.092-5.518.807-7.72 2.108l-37.99 22.16-.217.06H2.6v7.283c0 .683.217 1.302.62 1.922.403.588 1.023 1.115 1.83 1.61l44.625 26.032c1.922 1.115 4.525 1.61 7.252 1.486 2.727-.093 5.484-.807 7.686-2.105l42.52-24.795c1.02-.617 1.86-1.3 2.417-2.014.588-.713.96-1.456 1.055-2.2l.03-.217v-7.002h-7.778l-.25-.06z"/><path fill="#FFF" d="M64.855 53.297l42.48 24.797c4.543 2.65 4.543 6.953 0 9.604l-42.48 24.798c-4.544 2.652-11.91 2.652-16.455 0L5.923 87.7c-4.544-2.652-4.544-6.954 0-9.605l42.48-24.8c4.543-2.65 11.908-2.65 16.452.002z"/><path fill="#9EA0A1" d="M63.996 52.29l44.626 26.06c1.054.62 1.83 1.364 2.294 2.173.436.71.62 1.457.59 2.23 0 .772-.248 1.548-.683 2.293-.65 1.084-1.735 2.14-3.255 3.036L65.08 112.876c-2.322 1.364-5.268 2.106-8.118 2.23-2.883.124-5.672-.4-7.717-1.61L4.618 87.462c-1.054-.62-1.83-1.363-2.293-2.17a4.442 4.442 0 0 1-.59-2.228c.032-.775.25-1.55.683-2.295.65-1.116 1.735-2.14 3.285-3.038L48.19 52.91c2.324-1.333 5.27-2.108 8.12-2.2 2.85-.126 5.64.4 7.686 1.58zm44.192 26.808L63.562 53.065c-1.893-1.117-4.525-1.612-7.223-1.49-2.73.095-5.52.808-7.72 2.11L6.136 78.478c-1.395.804-2.386 1.765-2.944 2.726-.37.62-.558 1.27-.588 1.86 0 .618.155 1.206.464 1.766.402.714 1.083 1.333 1.983 1.858L49.68 112.75c1.92 1.116 4.524 1.58 7.25 1.488 2.728-.127 5.485-.838 7.687-2.107l42.52-24.793c1.395-.838 2.355-1.766 2.943-2.73.372-.647.557-1.27.557-1.89a3.1 3.1 0 0 0-.465-1.768c-.402-.68-1.054-1.33-1.984-1.855z"/><path fill="#9EA0A1" d="M1.497 79.343V38.84c.062-3.347.434-5.796 1.52-7.84 1.086-2.08 2.823-3.69 5.583-5.303l20.38-11.745 19.637-11.31C51.532 1 53.857.1 56.185.008c2.328-.092 4.59.62 7.354 2.2l20.376 11.747 19.636 11.343c2.885 1.705 4.81 3.285 6.05 5.237 1.243 1.952 1.77 4.276 1.77 7.47V78.51h-.87V38.002c0-3.04-.496-5.208-1.646-7.005-1.146-1.83-3.008-3.318-5.736-4.96L83.485 14.73 63.105 2.982c-2.64-1.52-4.748-2.2-6.888-2.108-2.17.094-4.374.96-7.166 2.51L29.417 14.73 9.036 26.473c-2.607 1.52-4.25 3.006-5.244 4.928-.992 1.89-1.365 4.247-1.426 7.44v40.504l-.87-.002z"/><path fill="#F6F6F6" d="M69.7 82.97h-.032l-2.232 1.427v4.74c0 1.704.125 3.037-.71 3.564l-2.017 1.24c-.095.093-.156.156-.25.218l-2.85 1.735a1.16 1.16 0 0 1-.65.4 7.49 7.49 0 0 1-.467.096c-1.24.06-2.82-1.116-3.874-3.038-.683-1.24-.59-2.478-.59-3.997 0-.62.062-8.46 0-8.862l-.526-.28V82.6c0 1.55.154 3.006-.713 3.564l-2.17 1.363-.09.093-3.007 1.892c-.217.186-.527.31-.93.31-.404.03-.93-.093-1.426-.37-1.054-.56-2.015-1.645-2.48-2.605-.743-1.486-.587-2.26-.587-3.996v-8.896c-1.735-1.178-2.696-1.055-4.12-3.13-.87-1.27-1.612-3.007-1.612-5.054v-8.522l-2.82 1.767a1.05 1.05 0 0 1-.434.278c-1.426.588-3.72-1.053-4.587-3.1-.62-1.456-.465-2.17-.465-3.75v-16.61c0-1.145.062-2.075.93-2.416l2.262-1.426.434-.277c.093-.124.248-.217.435-.28l1.828-1.176c.127-.125.25-.217.437-.28.62-.248 1.425-.185 2.386.465.434-1.858 1.177-3.315 1.92-4.307.466-.588.993-1.022 1.52-1.394l2.293-1.426v-.033l.62-.37c.187-.124.34-.25.527-.34l1.487-.93a4.37 4.37 0 0 1 1.083-.65v-.033c3.13-1.486 7.346.032 10.258 1.644a28.224 28.224 0 0 1 8.835 7.53c1.36 1.768 2.634 3.968 3.562 6.168 1.146 2.758 2.23 6.632 2.294 10.072l-2.262 1.424 2.263 1.24v4.896l.063-.06.496-.31c.122-.094.247-.156.34-.217l1.952-1.24a1.29 1.29 0 0 1 .34-.217c.59-.28 1.552-.125 2.513.558s1.704 1.705 2.076 2.572c.62 1.363.465 2.324.465 3.81v16.55c0 .685.03 1.18-.186 1.676a1.816 1.816 0 0 1-.56.618l-2.264 1.457-3.13 1.982h-.03v.03c-.65.372-1.613.216-2.573-.403-.188.342-.465.62-.743.775v.03l-2.23 1.426z"/><path fill="#9EA0A1" d="M70.875 84.768l-.03.03a.375.375 0 0 0-.122.093l-1.117.715v3.532h.03c0 1.086-.03.312-.03.59.03 2.016.03 3.594-1.52 4.68-.124.094-.248.188-.4.248l-1.677 1.02-.064.063c-.03.03-.094.062-.123.093-.123.125-.25.187-.403.28L62.972 97.6a3.137 3.137 0 0 1-.495.4 3.773 3.773 0 0 1-.868.372c-.03.03-.095.03-.126.03-.124.028-.247.06-.403.094h-.092c-.124.026-.247.026-.372.062-1.146.062-2.385-.373-3.47-1.24a9.465 9.465 0 0 1-2.418-2.914c-.9-1.58-.868-2.942-.868-4.523v-.557l-.28.188-2.818 1.797c-.28.188-.59.373-.93.465-.34.125-.714.217-1.147.217a3.95 3.95 0 0 1-1.333-.12 6.728 6.728 0 0 1-1.208-.498 7.818 7.818 0 0 1-1.952-1.52 8.034 8.034 0 0 1-1.457-2.047c-.837-1.73-.837-2.664-.806-4.244v-8.368c-.093-.028-.154-.092-.248-.123-1.24-.618-2.2-1.147-3.502-3.007a12.094 12.094 0 0 1-1.455-3.037c-.34-.96-.527-2.076-.527-3.256v-4.58c-.062.03-.155.062-.216.093-1.457.622-3.1.25-4.525-.71-1.208-.808-2.324-2.078-2.913-3.504-.713-1.643-.682-2.51-.65-3.905V35.832c0-.743.03-1.425.216-2.138.31-.992.867-1.736 1.89-2.2l2.077-1.334.28-.185a1.34 1.34 0 0 1 .34-.248c.124-.093.28-.155.434-.248l1.49-.93c.123-.095.216-.188.34-.28.216-.125.403-.217.62-.31a4.34 4.34 0 0 1 1.797-.28c.062-.154.124-.34.186-.496.434-.93.93-1.734 1.426-2.386.31-.404.65-.745.96-1.055.37-.31.743-.59 1.115-.837 0-.03.03-.03.06-.03l1.954-1.24.277-.187.56-.37c.123-.063.215-.126.34-.218a2.78 2.78 0 0 1 .31-.187l1.394-.867c.187-.156.373-.28.56-.374.186-.123.37-.216.588-.34.125-.062.248-.124.34-.156 1.768-.806 3.72-.898 5.61-.588h.093c2.295.372 4.558 1.332 6.384 2.324a32.803 32.803 0 0 1 5.177 3.596 28.13 28.13 0 0 1 4.31 4.525c.745.96 1.456 2.045 2.14 3.19a30.685 30.685 0 0 1 1.703 3.472c.683 1.58 1.303 3.532 1.8 5.546.368 1.735.647 3.565.68 5.3a1.98 1.98 0 0 1-.464 1.394c.34.434.495.96.464 1.487v.774c.062-.03.094-.03.124-.062.744-.31 1.61-.403 2.54-.187.686.155 1.397.464 2.108.96.65.465 1.178.992 1.643 1.52.494.65.896 1.3 1.18 1.95.713 1.55.68 2.604.68 4v17.23h-.03v.125c0 .896 0 1.58-.4 2.478-.157.31-.343.588-.56.834-.154.188-.34.373-.56.525a3.768 3.768 0 0 1-.37.25l-2.11 1.333v.03l-3.13 1.98h-.03c-.093.063-.155.125-.247.155a4.046 4.046 0 0 1-2.416.37c-.22-.027-.404-.092-.59-.152l-.03.03h-.03v.03c-.03.03-.096.03-.126.062l-2.114 1.343zm-2.387-3.627h.06l2.108-1.36c.03-.03.062-.03.094-.063 0 0 0-.03.03-.062.03-.03.062-.092.093-.123a2.19 2.19 0 0 1 3.006-.62c.153.126.31.188.435.248l2.883-1.86h.028L79.24 76V58.828c0-.154 0-.308.033-.773 0-.806 0-1.457-.312-2.138a3.24 3.24 0 0 0-.59-.96c-.215-.28-.494-.528-.74-.745a1.866 1.866 0 0 0-.494-.247l-1.77 1.115a1.128 1.128 0 0 1-.31.217c-.063.032-.095.062-.155.093l-.4.25c-.37.31-.836.464-1.333.464-1.21 0-2.17-.96-2.17-2.17V50.34l-1.146-.62a2.508 2.508 0 0 1-.773-.745 2.168 2.168 0 0 1 .685-3.006l1.178-.745a23.423 23.423 0 0 0-.528-3.223c-.403-1.766-.99-3.47-1.55-4.865a30.172 30.172 0 0 0-1.456-2.975 24.83 24.83 0 0 0-1.83-2.727 27.062 27.062 0 0 0-3.687-3.874 28.224 28.224 0 0 0-4.434-3.07c-1.456-.804-3.253-1.58-5.02-1.86h-.063c-1.177-.184-2.293-.152-3.223.313-.09.03-.216.093-.34.186-.093.06-.155.093-.217.153-.093.063-.186.125-.31.217l-1.487.898c-.03.03-.062.062-.093.062a.55.55 0 0 0-.155.125c-.062.03-.093.062-.155.062-.03.03-.062.062-.124.094l-.343.218c-.093.063-.155.155-.28.217l-2.168 1.363c-.03 0-.063.032-.094.032-.186.123-.34.247-.496.4a3.94 3.94 0 0 0-.495.497 9.3 9.3 0 0 0-.868 1.52 11.886 11.886 0 0 0-.65 1.952 2.433 2.433 0 0 1-.31.71 2.154 2.154 0 0 1-3.007.59 2.022 2.022 0 0 0-.372-.186c-.03 0-.06.03-.06.03L35.39 33.17c-.092.094-.216.154-.34.217-.062.062-.124.125-.216.155l-.404.28-2.138 1.363h-.03c-.032.186-.032.403-.032.65v17.418c-.03.806-.03 1.3.31 2.108a3.8 3.8 0 0 0 1.333 1.613c.217.155.34.28.372.31.062-.03.093-.062.155-.093l2.82-1.8v.032c.34-.217.712-.34 1.146-.34 1.208 0 2.17.96 2.17 2.17v8.52c0 .686.123 1.334.31 1.953.216.715.557 1.334.93 1.86.68.992 1.207 1.27 1.89 1.61.463.248.99.527 1.642.962.59.403.96 1.053.96 1.796v8.894h.032c0 .248-.03.278-.03.773 0 .896-.032 1.458.37 2.263.156.312.404.652.713.99.25.278.558.497.836.65.06.063.153.095.216.095l2.913-1.828c.03-.03.092-.062.153-.094l2.14-1.363c.278-.188-.25-.436-.28-1.113v-2.854c-.03-.4.03-.836.248-1.21.59-1.054 1.89-1.455 2.944-.866l.56.312c.59.31.99.896 1.085 1.608.06.465.06 6.104.06 8.31l-.03.835h.03c0 .744 0-.062-.03.56 0 .96 0 1.797.34 2.417.37.684.806 1.21 1.24 1.55.216.153.37.278.496.31.06-.03.123-.092.186-.123l2.695-1.676c.03 0 .062-.03.094-.03.095-.095.187-.188.31-.247l2.017-1.24v-.03c.312-.153-.277-.372-.31-1.083v-5.367c0-.713.34-1.395.99-1.828l2.107-1.336c.062-.03.093-.063.123-.094zm6.664-25.936h-.03.03zm2.293-1.457h-.03.03z"/><path fill="#F6F6F6" d="M67.436 84.396v4.74c0 1.703.123 3.036-.713 3.563l-2.015 1.235a1.633 1.633 0 0 1-.248.22l-3.502 2.138c-1.27-6.322-2.51-12.52-3.78-18.902l-1.705-.525c0 2.292.03 5.08.03 5.73 0 1.552.155 3.007-.712 3.564-1.764 1.113-3.5 2.23-5.266 3.347-1.21-5.642-2.356-11.127-3.596-16.95l1.302-.156v-.436c-1.737-1.177-2.697-1.054-4.123-3.13-.867-1.27-1.61-3.006-1.61-5.052V55.85l-3.13 1.395-3.255 2.045-.558-3.656a5.765 5.765 0 0 1-.898-1.426c-.62-1.488-.465-2.17-.465-3.78v-3.255l-2.2-13.76 2.264-1.426.434-.28c.093-.123.248-.216.435-.278l1.828-1.18c.126-.124.25-.216.436-.28.65-.247 1.488-.154 2.51.56.59.4 1.147.99 1.55 1.58l.186.124 1.675-.124-.806-.433c.06-2.54.68-4.648 1.487-6.198l-.775-.745 2.294-1.426v-.03l.62-.373c.187-.123.34-.248.527-.34l1.488-.93c.34-.278.714-.496 1.085-.65v-.032c3.13-1.486 7.346.032 10.258 1.644a28.27 28.27 0 0 1 8.834 7.53c1.36 1.766 2.633 3.966 3.562 6.166 1.145 2.758 2.23 6.632 2.293 10.072l-2.263 1.424 2.263 1.24v4.898l.062-.06.494-.31c.124-.094.247-.156.34-.217l1.95-1.24a1.29 1.29 0 0 1 .344-.217c.59-.28 1.55-.125 2.512.558s1.704 1.705 2.075 2.572c.62 1.363.467 2.324.467 3.81v16.55c0 .685.03 1.18-.187 1.677a1.79 1.79 0 0 1-.56.617l-2.263 1.457-3.16 2.014-.56-3.406a8.093 8.093 0 0 1-1.085-1.642c-.277-.62-.4-1.18-.434-1.734v4.152c0 1.643-.56 2.604-1.24 3.008v.03c-1.483.96-3 1.89-4.488 2.85z"/><path fill="#9EA0A1" d="M67.87 84.645v5.082c.03 1.52.03 2.728-.868 3.315-.03.03-.062.03-.093.062l-1.954 1.18c-.03.062-.062.093-.094.124a.655.655 0 0 0-.154.093c-.032.03-.032.03-.063.03l-3.472 2.14a.437.437 0 0 1-.588-.124c-.032-.062-.032-.092-.062-.15l-3.72-18.66-.898-.277c0 1.332.03 2.79.03 3.81v1.922c.032 1.427.032 2.696-.897 3.315 0 .033-.03.033-.03.033-1.488.928-2.046 1.3-2.636 1.672a140.24 140.24 0 0 1-2.633 1.673c-.186.126-.465.062-.59-.123a.45.45 0 0 1-.06-.186L45.493 72.65a.4.4 0 0 1 .34-.496s.032 0 .063-.03l.65-.06a8.984 8.984 0 0 0-.96-.525c-.992-.528-1.797-.933-2.82-2.45-.495-.746-.96-1.58-1.27-2.57a8.658 8.658 0 0 1-.434-2.73v-7.25l-2.48 1.086-3.222 2.044a.417.417 0 0 1-.59-.153c-.06-.03-.06-.095-.06-.154l-.59-3.534c-.154-.22-.31-.436-.433-.653-.186-.248-.31-.526-.434-.806-.558-1.3-.527-2.013-.496-3.16v-3.998l-2.2-13.697a.46.46 0 0 1 .216-.465l2.263-1.425.372-.248c.06-.062.154-.124.216-.186.093-.06.186-.09.28-.153l1.765-1.115c.093-.06.155-.123.25-.185.09-.062.184-.093.31-.155a2.416 2.416 0 0 1 1.423-.093c.466.092.96.31 1.488.68.31.217.62.496.9.775.248.248.496.558.68.836h.343v-.123c.03-1.24.186-2.354.434-3.347.248-1.023.558-1.953.96-2.728l-.527-.527c-.185-.156-.185-.435-.03-.62.03 0 .062-.032.093-.063l2.17-1.332c0-.03 0-.03.03-.03.03-.033.03-.063.062-.063l.62-.403c.093-.062.186-.125.28-.186.092-.062.185-.124.278-.156l1.487-.93c.155-.124.34-.247.496-.372.186-.092.372-.217.588-.31 0 0 .03 0 .062-.03 1.457-.683 3.1-.776 4.74-.497 2.11.34 4.215 1.24 5.89 2.17a27.533 27.533 0 0 1 4.896 3.376c1.487 1.27 2.883 2.694 4.06 4.244.685.9 1.364 1.92 1.984 3.006a22.86 22.86 0 0 1 1.612 3.286 30.216 30.216 0 0 1 1.703 5.27c.374 1.64.62 3.314.65 4.926.03.155-.06.31-.186.403l-1.643 1.022 1.61.9c.124.09.22.247.22.4v4.062c.03-.034.03-.034.06-.064.094-.032.153-.094.216-.125l1.86-1.177c.062-.062.124-.092.186-.154.094-.033.188-.095.25-.126.4-.155.896-.217 1.456-.092.466.123.992.34 1.485.713.497.34.933.744 1.272 1.208.434.497.744 1.023.96 1.52.56 1.238.527 2.137.527 3.284 0 .185-.03.37-.03.71V75.5c0 .682 0 1.207-.25 1.734-.06.156-.186.31-.278.434a3.963 3.963 0 0 1-.37.342L67.87 84.645zM67 88.3v-3.903c0-.125.063-.278.188-.37l4.494-2.855h.03c.278-.186.56-.496.744-.96a5.145 5.145 0 0 0 .278-1.704v-4.152c0-.248.154-.434.402-.434.217-.033.434.154.465.4.03.25.064.527.127.775.062.276.152.526.276.805.125.31.28.56.465.807.156.275.343.494.527.71.062.063.093.157.124.25l.435 2.726 2.604-1.642 2.262-1.457h.03l.187-.185c.093-.062.124-.154.187-.248.153-.372.153-.807.153-1.363V58.83c0-.186 0-.464.03-.743 0-1.023.03-1.83-.434-2.882a7.853 7.853 0 0 0-.837-1.332c-.343-.402-.714-.774-1.115-1.052-.403-.31-.838-.496-1.18-.56-.372-.09-.68-.06-.93.032-.03 0-.06.03-.094.06a.482.482 0 0 0-.125.094c-.028 0-.028.03-.062.03l-1.89 1.21c-.032.03-.063.03-.094.062a.22.22 0 0 0-.126.063c-.032 0-.062.03-.094.09-.032 0-.032 0-.063.03l-.527.31-.03.03a.346.346 0 0 1-.248.095.444.444 0 0 1-.435-.434v-4.65l-2.045-1.08c-.062-.063-.096-.093-.156-.155-.123-.217-.062-.465.156-.62l2.045-1.302a23.422 23.422 0 0 0-.65-4.525c-.402-1.86-1.023-3.657-1.61-5.145a34.226 34.226 0 0 0-1.58-3.16 23.88 23.88 0 0 0-1.954-2.914 28.86 28.86 0 0 0-3.902-4.123c-1.486-1.27-3.1-2.355-4.74-3.286-1.643-.866-3.626-1.734-5.61-2.044h-.03c-1.487-.248-2.975-.185-4.245.435-.187.093-.34.187-.527.28-.155.092-.31.216-.434.31-.03.03-.062.03-.062.062l-1.486.93h-.032c-.092.062-.154.093-.248.155-.092.062-.155.092-.248.155l-.03.03-.497.31-.092.094-1.83 1.146.374.34c.125.125.155.34.062.526a11.687 11.687 0 0 0-1.022 2.79 13.98 13.98 0 0 0-.403 2.943l.59.31a.433.433 0 0 1 .215.373c.03.217-.155.434-.403.434l-1.674.123a.557.557 0 0 1-.217-.062l-.217-.09c-.062-.033-.093-.095-.155-.157a5.353 5.353 0 0 0-.682-.835c-.217-.218-.465-.466-.744-.652-.433-.28-.805-.465-1.177-.558-.34-.062-.65-.03-.93.062-.06.03-.123.06-.154.093-.062.03-.093.062-.124.092-.03.03-.062.03-.062.062l-1.828 1.146c-.03.032-.062.062-.093.062a.644.644 0 0 0-.155.093c-.062.03-.093.062-.124.094-.032.03-.062.03-.093.06l-.4.25-2.045 1.3 2.14 13.45c.03.03.03.063.03.094v4.03c-.03 1.053-.062 1.704.434 2.82.092.247.216.464.34.68.155.218.31.436.465.65a.284.284 0 0 1 .092.22l.496 3.004 2.666-1.704c.03 0 .06-.03.06-.03l3.13-1.397c.062 0 .124-.032.186-.032.248 0 .434.217.434.435v7.932c0 .87.154 1.706.402 2.45a8.33 8.33 0 0 0 1.146 2.353c.9 1.33 1.61 1.703 2.51 2.168.434.22.93.466 1.487.84.125.09.188.216.188.368v.437c0 .22-.156.4-.373.435l-.868.093 3.378 15.87c1.085-.682 1.61-.99 2.107-1.332a244.18 244.18 0 0 0 2.634-1.673c.56-.342.56-1.394.53-2.604V81.264c0-1.176-.03-2.882-.03-4.37 0-.027 0-.093.03-.152.06-.218.31-.372.525-.28l1.704.525 2.882 3.38-2.665-2.447 3.75 17.696 3.1-1.952h.03l.093-.095 1.984-1.21.028-.03c.526-.344.526-1.333.496-2.604v.062-1.49H67zm0 .837v-.525.525zm0 .59v-.59.59zm-.525 2.603h.03-.03zm0 .03v-.03.03zm-2.168 1.365l.062-.062-.064.062zm-.095.06c.063-.03.063-.03.095-.06l-.095.06zm-.03.03l.03-.03-.03.03zm-2.913 1.8l2.91-1.8-2.912 1.8zm19.616-17.572l-2.232 1.426h-.028l-3.13 2.012c-.22.125-.497.096-.62-.125-.032-.062-.032-.092-.063-.152l-.526-3.285c-.188-.216-.372-.465-.56-.712-.03-.094-.094-.152-.123-.22v1.522c0 .807-.125 1.488-.342 2.016-.28.648-.65 1.084-1.085 1.365l-.03.028-4.275 2.73 13.014-6.604z"/><path fill="#FFF" d="M67.777 52.692v29.253c0 1.984-.807 2.945-1.644 3.225-1.395.465-2.323-.56-4.093-1.363-.03.342 0 8.182 0 8.77 0 2.14.188 3.69-1.55 3.813-1.238.062-2.818-1.115-3.873-3.037-.682-1.238-.59-2.48-.59-3.998 0-.62.063-8.46 0-8.86L50.14 77.27c-.124.34-.03 7.684-.03 8.77 0 1.92.216 3.687-1.52 3.777-.403.03-.93-.094-1.425-.373-1.054-.557-2.015-1.643-2.48-2.604-.743-1.485-.587-2.26-.587-3.995V73.95c-1.736-1.18-2.697-1.057-4.122-3.133-.868-1.27-1.61-3.006-1.61-5.05V36.36l29.408 16.115v.217h.003zm-5.89-19.12a27.314 27.314 0 0 1 3.564 6.166c1.148 2.757 2.266 6.632 2.328 10.072l-29.41-16.146c.062-3.377 1.146-6.013 2.324-7.53 3.132-3.968 8.74-2.108 12.397-.093 3.377 1.86 6.477 4.463 8.8 7.53zM73.48 55.884c.96.682 1.673 1.704 2.075 2.572.62 1.365.465 2.324.465 3.812v16.548c0 .682.03 1.21-.217 1.675-.867 1.828-3.904.59-5.3-2.387-.62-1.304-.496-2.388-.496-3.812V57.74c0-.712 0-1.207.218-1.673.188-.373.465-.62.743-.744.59-.248 1.55-.123 2.51.56zM33.5 33.974c.93.65 1.674 1.643 2.078 2.573.62 1.333.464 2.293.464 3.75v16.61c0 1.24-.062 2.016-.93 2.387-1.425.588-3.718-1.053-4.586-3.1-.62-1.456-.465-2.17-.465-3.75v-16.61c0-1.147.064-2.077.93-2.418.653-.248 1.49-.154 2.51.558z"/><path fill="#9EA0A1" d="M68.21 52.692v29.253c0 .962-.187 1.736-.464 2.295-.373.712-.898 1.146-1.457 1.334-1.21.4-2.047-.062-3.133-.715-.217-.125-.433-.25-.682-.373-.03 1.55 0 5.518 0 7.28v1.4c.03 2.045.03 3.533-1.952 3.656-.743.03-1.55-.28-2.324-.868-.714-.558-1.427-1.396-1.953-2.386-.65-1.18-.65-2.325-.65-3.658v-.557l.03-.836c0-1.954 0-6.696-.03-7.75l-5.084-2.82c-.03 1.364 0 4.805.032 6.757v1.92c.03 1.894.03 3.533-1.953 3.626-.248.03-.526 0-.806-.093a3.214 3.214 0 0 1-.836-.342 4.96 4.96 0 0 1-1.487-1.178c-.496-.496-.898-1.055-1.146-1.61-.683-1.364-.683-2.14-.65-3.44V74.2a12.762 12.762 0 0 0-1.21-.68c-.992-.528-1.797-.933-2.82-2.45a9.53 9.53 0 0 1-1.27-2.57 8.52 8.52 0 0 1-.435-2.73V36.36c0-.248.187-.434.434-.434.093 0 .155.03.217.062L67.96 52.104a.48.48 0 0 1 .25.402v.186zm-.868 29.255V52.754L38.8 37.104V65.77c0 .9.155 1.705.403 2.48.28.898.682 1.673 1.147 2.325.9 1.33 1.61 1.702 2.51 2.168.435.22.93.465 1.487.868.125.064.187.22.187.34v9.64c-.03 1.176-.03 1.89.558 3.066.217.465.558.96.992 1.396.372.403.806.774 1.27 1.022.218.124.435.186.652.247.217.06.403.095.56.06 1.145-.06 1.145-1.3 1.114-2.726V84.7c-.03-2.29-.062-6.6.03-7.437 0-.093 0-.152.063-.215.092-.22.37-.28.588-.188l5.89 3.254c.124.062.187.186.218.31.03.372.03 5.92.03 8.09l-.03.837h.03l-.03.56c0 1.21 0 2.23.526 3.256.496.864 1.116 1.61 1.735 2.076.62.496 1.21.744 1.735.713 1.178-.094 1.178-1.208 1.146-2.788v-1.4c0-2.104-.03-7.373 0-7.994.033-.062.033-.094.063-.154a.422.422 0 0 1 .56-.22c.526.247.96.495 1.36.714.9.525 1.583.93 2.418.62.343-.095.716-.403.96-.9.22-.43.373-1.082.373-1.888zm-5.08-48.655c.68.93 1.363 1.952 1.982 3.006.62 1.054 1.146 2.17 1.61 3.285a37.773 37.773 0 0 1 1.704 5.27c.37 1.64.62 3.345.65 4.926 0 .246-.188.463-.402.463-.094 0-.154-.03-.248-.062l-29.41-16.114c-.155-.093-.217-.28-.217-.434.033-1.58.28-3.006.684-4.246.434-1.457 1.084-2.665 1.736-3.502 1.425-1.828 3.315-2.51 5.33-2.51 2.634-.03 5.453 1.117 7.623 2.293a27.318 27.318 0 0 1 4.866 3.38 27.86 27.86 0 0 1 4.09 4.244zm1.238 3.44a33.863 33.863 0 0 0-1.952-2.913 27.46 27.46 0 0 0-3.936-4.124c-1.457-1.27-3.068-2.355-4.742-3.284-2.045-1.116-4.71-2.2-7.19-2.17-1.765 0-3.408.59-4.647 2.17-.59.774-1.177 1.86-1.612 3.222-.34 1.117-.555 2.387-.62 3.78l28.516 15.62a26.43 26.43 0 0 0-.62-3.998c-.436-1.86-1.022-3.656-1.645-5.113a25.037 25.037 0 0 0-1.55-3.192zm10.26 18.843c.463.34.896.743 1.237 1.177.4.496.745 1.022.96 1.55.56 1.208.527 2.107.496 3.254v17.387c0 .68 0 1.207-.247 1.73-.218.438-.526.745-.9.9-.34.152-.712.217-1.114.188-.37-.03-.773-.152-1.178-.34-1.084-.527-2.2-1.61-2.912-3.13-.56-1.18-.526-2.17-.526-3.315V57.59c0-.683 0-1.178.248-1.705a2.57 2.57 0 0 1 .4-.558c.155-.186.372-.31.562-.404.372-.155.896-.186 1.425-.062.5.095.994.31 1.523.684-.005 0-.005 0 .027.032zm.556 1.736a5.69 5.69 0 0 0-1.055-1.053h-.027c-.437-.31-.838-.496-1.21-.558a1.46 1.46 0 0 0-.898.03c-.093.03-.187.125-.278.217-.093.062-.154.187-.217.31-.19.34-.19.744-.19 1.333v.154h.032v16.55c0 .155-.03.4-.03.683 0 1.053-.03 1.95.434 2.942.62 1.33 1.61 2.29 2.54 2.726.28.154.59.217.87.248a1.1 1.1 0 0 0 .65-.094c.186-.092.37-.245.495-.495.156-.37.156-.77.156-1.36V61.524c.03-1.022.03-1.83-.436-2.883a5.135 5.135 0 0 0-.834-1.33zM33.75 33.635c.464.31.898.744 1.27 1.21.403.463.744 1.02.96 1.518.56 1.21.528 2.108.528 3.255 0 .154-.032.34-.032.682v16.61c0 .65 0 1.177-.154 1.642-.155.527-.465.9-1.023 1.146-.87.342-1.923.093-2.884-.558-.93-.65-1.797-1.643-2.293-2.758-.558-1.302-.527-2.044-.496-3.192V35.834c0-.62 0-1.178.154-1.643.156-.524.466-.927 1.055-1.176a2.428 2.428 0 0 1 1.425-.093c.466.094.962.31 1.49.714zm.62 1.736a8.917 8.917 0 0 0-1.117-1.055c-.434-.28-.836-.465-1.177-.527a1.564 1.564 0 0 0-.93.03c-.28.125-.434.342-.527.62-.127.373-.127.868-.127 1.395V53.22c-.03 1.022-.03 1.673.434 2.82.404.96 1.178 1.828 1.984 2.386.714.463 1.49.712 2.046.463a.9.9 0 0 0 .527-.59c.125-.34.125-.836.125-1.395v-16.61c0-.155.03-.434.03-.713 0-1.024.03-1.83-.434-2.882a7.88 7.88 0 0 0-.837-1.33z"/><path fill="#9EA0A1" d="M59.037 36.515c2.17 1.86 1.333 5.58-.743 3.75-.744-.65-1.457-2.044-1.21-3.253.187-.9.96-1.334 1.953-.497zm-12.582-6.88c.465.404.775.838.992 1.365.218.557.372 1.27.248 1.89-.527 2.448-3.688-.28-3.192-2.728.155-.93.96-1.426 1.952-.527zM49.584 21.61c.125.308-.03.712-.34.835-.342.156-.713 0-.868-.34l-2.51-5.764a.7.7 0 0 1 .34-.866c.34-.124.713.03.868.34l2.51 5.796zM62.323 28.674c-.28.25-.682.186-.9-.093-.215-.277-.185-.68.094-.897l6.415-5.175c.28-.217.682-.186.9.123a.615.615 0 0 1-.094.9l-6.415 5.145z"/></svg>