<!DOCTYPE svg PUBLIC "-//W3C//DTD SVG 1.1//EN" "http://www.w3.org/Graphics/SVG/1.1/DTD/svg11.dtd" [
	<!ENTITY ns_flows "http://ns.adobe.com/Flows/1.0/">
]><svg xmlns="http://www.w3.org/2000/svg" width="110" height="124" viewBox="0.229 -0.3853 110 124" overflow="visible"><path fill-rule="evenodd" clip-rule="evenodd" fill="#FFF" d="M68.806 117.15l-5.966 3.445-.006.002v.002c-2.92 1.623-5.25 2.522-7.57 2.62-2.327.1-4.6-.614-7.392-2.214l-.023-.01-20.35-11.75-.026-.017L7.842 97.895l-.007-.006v.002c-2.87-1.717-4.814-3.287-6.055-5.242C.53 90.685.012 88.36 0 85.138V38.916c0-.018 0-.035.002-.05.054-3.32.442-5.776 1.51-7.823 1.082-2.066 2.834-3.68 5.615-5.298L27.5 13.985c.008-.007.017-.01.026-.015L47.16 2.634l.006-.002V2.63c2.92-1.624 5.25-2.523 7.567-2.62 2.328-.1 4.604.613 7.394 2.212l.022.012 20.35 11.75 19.657 11.35.02.012c2.86 1.713 4.802 3.28 6.04 5.233 1.25 1.964 1.77 4.29 1.78 7.51H110v46.223c0 .018 0 .033-.003.05-.055 3.32-.443 5.776-1.512 7.82-1.078 2.067-2.832 3.68-5.613 5.3l-6.457 3.728-27.582 15.925c-.01.004-.018.01-.027.014z"/><path fill-rule="evenodd" clip-rule="evenodd" fill="#FFF" d="M103.355 80.218h.002v6.893h-.037c-.208 1.424-1.318 2.877-3.293 4.027L62.08 113.29c-4.037 2.354-10.216 2.606-13.73.553L8.504 90.583c-1.586-.925-2.37-2.17-2.38-3.472v-6.89h.024c.177-1.447 1.293-2.93 3.304-4.105L47.4 53.96c4.038-2.356 10.216-2.605 13.732-.553l39.843 23.258c1.62.946 2.403 2.223 2.38 3.553z"/><path fill-rule="evenodd" clip-rule="evenodd" fill="#9E9E9E" d="M105.446 80.01c.007.07.01.138.01.208v6.893c0 .283-.056.55-.154.793-.222.93-.68 1.844-1.375 2.69-.703.86-1.654 1.663-2.843 2.36L63.138 115.1c-2.313 1.35-5.22 2.095-8.037 2.208-2.87.117-5.703-.428-7.81-1.654L7.45 92.396c-1.05-.61-1.86-1.36-2.432-2.193a5.466 5.466 0 0 1-.975-2.832 2.203 2.203 0 0 1-.015-.26v-6.89c0-.232.04-.457.108-.666.195-.98.658-1.943 1.38-2.842.713-.884 1.677-1.705 2.884-2.41l37.946-22.15c2.31-1.35 5.217-2.096 8.037-2.21 2.87-.116 5.705.428 7.81 1.655l39.843 23.26c1.07.623 1.89 1.39 2.464 2.244.607.904.92 1.893.95 2.91zm-4.188 6.58v-6.372h.007v-.03c.003-.25-.077-.51-.246-.76-.22-.325-.584-.645-1.103-.948L60.075 55.22c-1.412-.824-3.426-1.182-5.532-1.098-2.157.088-4.36.645-6.085 1.65L10.512 77.925c-.767.448-1.346.928-1.735 1.41-.307.38-.488.754-.538 1.098-.008.04-.01.074-.018.113v6.566h-.007c.004.23.09.48.26.727.22.32.58.633 1.087.93l39.844 23.26c1.41.824 3.423 1.18 5.53 1.1 2.158-.09 4.36-.647 6.086-1.655l37.946-22.15c.746-.438 1.317-.908 1.71-1.39.304-.372.49-.73.553-1.063.01-.05.016-.102.026-.15v-.134z"/><path fill-rule="evenodd" clip-rule="evenodd" fill="#F6F6F6" d="M61.13 59.864l34.873 20.354h7.354v6.893h-.037c-.208 1.424-1.32 2.877-3.293 4.027L62.08 113.29c-4.037 2.354-10.216 2.606-13.73.553L8.504 90.583c-1.586-.925-2.37-2.17-2.38-3.472v-6.89h7.352L47.4 60.416c4.038-2.355 10.216-2.604 13.73-.552z"/><path fill-rule="evenodd" clip-rule="evenodd" fill="#9E9E9E" d="M61.342 59.5l34.774 20.3h7.66v7.73h-.11c-.166.68-.512 1.357-1.037 2-.583.71-1.38 1.38-2.39 1.97l-37.95 22.153c-2.077 1.213-4.7 1.883-7.255 1.986-2.566.103-5.072-.368-6.9-1.434l-39.84-23.26c-.834-.486-1.463-1.062-1.895-1.69a3.87 3.87 0 0 1-.667-1.725h-.028V79.8h7.66l33.823-19.745c2.078-1.214 4.702-1.884 7.257-1.987 2.565-.104 5.072.367 6.897 1.433zm34.45 21.082L60.92 60.225c-1.688-.986-4.03-1.417-6.443-1.32-2.423.097-4.907.73-6.865 1.874L13.69 80.58l-.213.058H6.543v6.47c.003.577.186 1.147.55 1.675.358.525.9 1.013 1.623 1.437l39.846 23.258c1.687.986 4.03 1.418 6.44 1.322 2.422-.1 4.908-.732 6.867-1.875l37.945-22.152c.923-.54 1.647-1.143 2.163-1.775.52-.637.83-1.3.925-1.952l.03-.21V80.64H96l-.21-.058z"/><path fill-rule="evenodd" clip-rule="evenodd" fill="#FFF" d="M61.13 53.408l39.845 23.258c3.517 2.054 3.09 5.66-.948 8.015L62.08 106.835c-4.037 2.356-10.215 2.606-13.73.553L8.504 84.127c-3.516-2.05-3.088-5.66.95-8.014L47.4 53.96c4.038-2.356 10.216-2.605 13.73-.552z"/><path fill-rule="evenodd" clip-rule="evenodd" fill="#9E9E9E" d="M61.342 53.045l39.846 23.26c.948.554 1.634 1.22 2.06 1.95.37.635.544 1.315.527 2.008-.02.69-.227 1.385-.618 2.057-.576.986-1.552 1.928-2.918 2.724l-37.95 22.15c-2.077 1.216-4.7 1.886-7.255 1.99-2.566.103-5.072-.368-6.897-1.434L8.292 84.49c-.95-.553-1.636-1.22-2.06-1.95a3.752 3.752 0 0 1-.526-2.01c.02-.69.226-1.382.617-2.056.575-.984 1.552-1.926 2.918-2.725l37.947-22.153c2.078-1.212 4.702-1.882 7.257-1.985 2.565-.104 5.072.366 6.897 1.432zm39.42 23.984L60.92 53.77c-1.687-.986-4.03-1.418-6.442-1.32-2.423.097-4.907.73-6.865 1.874L9.665 76.474c-1.235.723-2.112 1.56-2.615 2.424-.323.55-.493 1.11-.507 1.654a2.926 2.926 0 0 0 .414 1.565c.354.605.94 1.172 1.76 1.648l39.845 23.26c1.687.984 4.03 1.418 6.44 1.32 2.422-.097 4.908-.73 6.867-1.873l37.945-22.154c1.236-.72 2.112-1.557 2.615-2.42.324-.55.495-1.11.508-1.654a2.922 2.922 0 0 0-.414-1.565c-.355-.61-.94-1.174-1.76-1.65z"/><path fill-rule="evenodd" clip-rule="evenodd" fill="#9E9E9E" d="M5.705 77.22V41.043c.047-2.978.39-5.18 1.348-7.01.963-1.843 2.528-3.283 5.007-4.724l18.163-10.49L47.75 8.702l.006-.002c2.603-1.448 4.68-2.252 6.745-2.338 2.08-.088 4.108.547 6.596 1.973l.002.002 18.16 10.485v.002L96.786 28.94l.005.005c2.56 1.53 4.293 2.928 5.4 4.673 1.113 1.752 1.577 3.827 1.587 6.698v36.17h-.84v-36.17h.002c-.01-2.703-.436-4.637-1.458-6.25-1.03-1.62-2.676-2.94-5.12-4.402h.002L78.84 19.548h-.002L60.678 9.063c-2.348-1.345-4.24-1.945-6.144-1.864-1.913.08-3.88.843-6.366 2.227l-17.526 10.12L12.48 30.034c-2.338 1.36-3.803 2.697-4.685 4.385-.887 1.7-1.208 3.783-1.252 6.63v36.17h-.838z"/><path fill-rule="evenodd" clip-rule="evenodd" fill="#9E9E9E" d="M61.766 39.447c.916-.512.018-.007.653-.358 1.634-.908 3.496-1.94 4.42-2.918.7-.736 1.245-1.69 1.613-2.8.257-.78.423-1.628.49-2.52a6.61 6.61 0 0 0-2.072-.337 5.54 5.54 0 0 0-2.82.79l-.05.03-4.56 2.722c-.05.03-.1.056-.15.08l.003.003a5.968 5.968 0 0 0-.995.62 6.56 6.56 0 0 0-.905.847 7.648 7.648 0 0 0-1.344 2.2 8.792 8.792 0 0 0-.62 2.684 2.094 2.094 0 0 1-.17.69c.44-.262.97-.36 1.485-.26.228.03.44.045.64.05.212.006.46-.003.74-.027 1.24-.11 1.985-.54 2.954-1.1.28-.16.57-.33.685-.395zm8.11-.387c-1.312 1.385-3.385 2.555-5.242 3.586.57.254 1.136.55 1.696.884a20.692 20.692 0 0 1 3.845 2.99c.54.524 1.033 1.056 1.488 1.585.482.563.923 1.13 1.322 1.696a32.6 32.6 0 0 1 1.34 2.12c.365.635.69 1.263.845 1.7.338.933-.02 2-.905 2.52l-3.008 1.78c-.262.398-.468.87-.604 1.43-.174.72-.24 1.597-.167 2.667.075 1.093.28 2.112.572 3.073.3.974.7 1.92 1.164 2.84.32.638.703 1.282 1.12 1.905.46.69.95 1.34 1.437 1.915.09.11.25.283.414.46.24.258.483.522.683.78.332.37.534.86.534 1.396 0 1.156-.85 2.795-1.253 3.563-.023.05-.046.1-.073.15-.23.443-.503.895-.802 1.34-.283.422-.57.806-.85 1.16-.483.6-1.052 1.256-1.686 1.877-.66.643-1.396 1.246-2.198 1.713l-.03.016-4.23 2.44a9.84 9.84 0 0 1-.9.6c-.346.2-.714.378-1.108.525-1.267.48-2.596.473-3.962.02-1.194-.397-2.418-1.147-3.65-2.225-.592-.52-1.007-.936-1.425-1.352-.493-.494-.986-.986-1.464-1.384-2.24-1.857-3.753-1.97-5.176-2.074-1.413-.105-2.765-.205-4.49-1.166-.82-.46-1.514-1.042-2.116-1.66a18.213 18.213 0 0 1-1.44-1.73 21.21 21.21 0 0 1-.513-.716 3.466 3.466 0 0 1-.105-.147 22.896 22.896 0 0 1-.584-.93 71.224 71.224 0 0 1-.99-1.758c-1.203-2.277-2.315-4.603-3.288-7.087a54.828 54.828 0 0 1-2.472-8.07c-.715-3.186-1.117-6.414-1.01-9.315.102-2.726.65-5.19 1.798-7.125a9.345 9.345 0 0 1 1.415-1.825 8.036 8.036 0 0 1 1.752-1.333c.2-.133.6-.403 1.003-.677l.004.005c1.826-1.236 3.867-2.618 6.075-3.113a9.815 9.815 0 0 1 3.483-.152c1.25.168 2.622.59 4.117 1.39.643.342 1.243.73 1.813 1.146a11.797 11.797 0 0 1 2.204-3.66 10.273 10.273 0 0 1 3.115-2.422l4.526-2.7a9.708 9.708 0 0 1 4.95-1.378c1.634-.01 3.364.375 5.13 1.246l-.003.002a2.09 2.09 0 0 1 1.167 1.803c.07 1.906-.18 3.702-.708 5.3-.56 1.686-1.43 3.175-2.565 4.375zm-15.46 3.08a2.1 2.1 0 0 0 .957 2.702c1.168.608 2.095.68 3.018.75l.25.02.383.033h.01c.768.063 1.537.126 2.32.296.914.2 1.877.616 2.83 1.183 1.066.636 2.114 1.46 3.075 2.4.437.426.846.863 1.225 1.305.4.47.764.938 1.092 1.4.19.268.517.774.846 1.318l-1.66.982a2.17 2.17 0 0 0-.565.49l-.095.124-.102.134c-.632.856-1.116 1.87-1.413 3.09-.275 1.136-.38 2.434-.28 3.93.095 1.406.363 2.74.75 4.008a22.175 22.175 0 0 0 2.81 5.86 25.895 25.895 0 0 0 1.717 2.28c.114.136.265.302.424.474-.17.36-.405.815-.552 1.094a1.49 1.49 0 0 0-.09.155c-.19.36-.375.672-.56.946a12.25 12.25 0 0 1-.635.866 17.246 17.246 0 0 1-1.344 1.5c-.41.4-.836.76-1.25 1.022a2.02 2.02 0 0 0-.315.183l-4.083 2.355c-.12.06-.235.13-.345.215-.184.14-.365.264-.542.367-.172.102-.33.182-.467.233-.33.123-.73.103-1.19-.05-.67-.222-1.41-.69-2.207-1.388-.326-.287-.768-.728-1.214-1.172-.542-.545-1.087-1.088-1.76-1.646-3.266-2.708-5.475-2.87-7.552-3.025-.943-.07-1.845-.138-2.75-.642-.414-.232-.796-.558-1.148-.92-.407-.42-.77-.882-1.096-1.32-.12-.158-.25-.345-.386-.543a2.823 2.823 0 0 0-.084-.138c-.224-.335-.39-.593-.484-.753a46.08 46.08 0 0 1-.47-.8c-.08-.147-.216-.397-.41-.76-1.13-2.14-2.175-4.33-3.09-6.66a50.64 50.64 0 0 1-2.29-7.463c-.643-2.86-1.004-5.726-.91-8.247.074-2.05.45-3.84 1.223-5.14.22-.37.475-.706.76-.99.235-.235.492-.44.77-.603.13-.06.25-.137.366-.226.48-.314.74-.49 1.01-.672l-.002-.007h.004c1.518-1.027 3.21-2.174 4.64-2.494a5.662 5.662 0 0 1 2.023-.086c.796.106 1.694.386 2.706.928.665.356 1.27.777 1.84 1.235.55.438 1.12.964 1.7 1.516.35.363.828.603 1.37.642.448.032.87-.078 1.228-.292z"/><path fill-rule="evenodd" clip-rule="evenodd" fill="#F6F6F6" d="M36.615 39.71l1.54 2.735c-.633 3.288-.26 7.434.66 11.536 1.26 5.607 3.237 10.224 5.57 14.64.304.57.63 1.14.935 1.656.3.498.704 1.113 1.08 1.615.748 1 1.664 2.124 2.9 2.814 2.825 1.576 4.787.15 8.25 2.214l5.002 8.892 5.928-3.416c1.27-.735 2.44-2.014 3.32-3.11a13.1 13.1 0 0 0 1.423-2.152c.277-.53 1.09-2.025 1.09-2.748-.07-.162-.823-.922-1.134-1.29-1.058-1.257-2.097-2.766-2.828-4.22-1.014-2.02-1.79-4.22-1.957-6.72-.174-2.566.342-4.353 1.29-5.644.046-.06.092-.12.14-.18l3.375-1.996c-.224-.69-1.443-2.648-1.92-3.32a22.114 22.114 0 0 0-2.564-2.997c-2.09-2.044-4.588-3.62-6.922-4.13-1.055-.23-2.007-.284-2.982-.367-1.026-.088-2.038-.08-3.28-1.077-2.067-1.657-3.874-3.97-6.27-5.252-2.505-1.34-4.536-1.404-6.163-1.04-2.244.5-4.555 2.303-6.486 3.555z"/><path fill-rule="evenodd" clip-rule="evenodd" fill="#9E9E9E" d="M37.173 39.844l1.348 2.397a.41.41 0 0 1 .046.29c-.295 1.536-.364 3.266-.26 5.094.115 2.015.444 4.146.92 6.266a52.186 52.186 0 0 0 2.362 7.705c.938 2.39 2.01 4.635 3.17 6.83a37.278 37.278 0 0 0 .923 1.637 19.82 19.82 0 0 0 1.054 1.58c.366.485.77 1.002 1.234 1.48.452.468.96.895 1.536 1.22 1.233.685 2.315.767 3.446.85 1.402.105 2.876.214 4.815 1.368.065.04.115.094.15.155l4.796 8.523 5.525-3.185a.547.547 0 0 1 .07-.04c.588-.343 1.16-.818 1.69-1.335a18.562 18.562 0 0 0 1.48-1.653c.246-.304.49-.635.724-.982.226-.34.447-.71.653-1.102l.018-.03.048-.09c.286-.544.897-1.71.967-2.323a29.17 29.17 0 0 0-.53-.584c-.187-.2-.37-.4-.493-.547a24.042 24.042 0 0 1-1.605-2.133 20.544 20.544 0 0 1-2.598-5.414 16.128 16.128 0 0 1-.68-3.634c-.09-1.326 0-2.456.235-3.426.24-.99.63-1.806 1.135-2.493.02-.025.044-.06.075-.1.025-.032.05-.063.077-.1a.457.457 0 0 1 .113-.095l3.06-1.81a12.737 12.737 0 0 0-.525-.98 29.23 29.23 0 0 0-1.21-1.923 21.5 21.5 0 0 0-2.514-2.937c-1.05-1.027-2.2-1.93-3.384-2.635-1.108-.66-2.243-1.145-3.335-1.384-.89-.194-1.715-.26-2.545-.33h-.002l-.38-.03-.263-.022c-1-.077-2.008-.155-3.246-1.147-.763-.61-1.486-1.305-2.213-2.005-1.248-1.2-2.517-2.416-3.992-3.205-1.202-.644-2.29-.982-3.268-1.114a7.33 7.33 0 0 0-2.608.114c-1.74.39-3.577 1.63-5.217 2.743-.275.185-.547.37-.8.538zm.542 2.674l-1.465-2.604a.42.42 0 0 1 .137-.556 58.4 58.4 0 0 0 1.115-.746c1.705-1.152 3.608-2.44 5.505-2.867a8.225 8.225 0 0 1 2.9-.126c1.07.142 2.25.506 3.552 1.205 1.58.845 2.886 2.1 4.175 3.338.714.686 1.422 1.367 2.157 1.956 1.033.827 1.91.895 2.783.962l.27.02.383.032c.854.07 1.71.14 2.652.347 1.182.257 2.4.778 3.588 1.487 1.24.738 2.444 1.683 3.54 2.75.495.487.955.982 1.38 1.478.45.524.86 1.052 1.23 1.575.283.4.814 1.23 1.254 1.99.33.573.616 1.117.72 1.44a.417.417 0 0 1-.182.497l-3.307 1.956-.02.024-.06.083c-.445.603-.787 1.324-.998 2.194-.216.887-.296 1.932-.212 3.174.08 1.22.31 2.362.64 3.448.334 1.088.773 2.12 1.27 3.11.35.692.77 1.397 1.226 2.08.487.728 1.016 1.43 1.55 2.062.11.13.287.324.467.517.28.303.564.61.685.795.048.07.08.154.08.246 0 .774-.74 2.184-1.074 2.822l-.05.088-.013.034c-.214.408-.453.802-.705 1.18-.25.37-.507.718-.765 1.038-.45.56-.973 1.166-1.55 1.73-.577.565-1.21 1.085-1.876 1.472l-.013.007-5.9 3.4a.415.415 0 0 1-.6-.14l-4.947-8.793c-1.72-1-3.067-1.1-4.35-1.197-1.227-.09-2.398-.176-3.794-.955-.66-.37-1.227-.848-1.73-1.366-.49-.505-.918-1.05-1.302-1.564a15.037 15.037 0 0 1-.556-.79 18.5 18.5 0 0 1-.545-.86 37.537 37.537 0 0 1-.948-1.678c-1.172-2.22-2.258-4.492-3.208-6.914a53.32 53.32 0 0 1-2.4-7.827c-.485-2.164-.82-4.342-.938-6.405-.107-1.835-.04-3.582.244-5.15z"/><path fill-rule="evenodd" clip-rule="evenodd" fill="#FFF" d="M69.146 77.44c-.068-.163-.822-.92-1.133-1.29-1.057-1.256-2.096-2.766-2.827-4.223-1.014-2.015-1.787-4.217-1.957-6.72-.176-2.563.34-4.35 1.29-5.642.83-1.13 2.19-1.972 3.514-2.174-.225-.69-1.444-2.646-1.92-3.32a22.026 22.026 0 0 0-2.565-2.995c-2.09-2.043-4.59-3.62-6.923-4.128-1.055-.232-2.008-.288-2.983-.37-1.026-.088-2.038-.08-3.28-1.077-2.067-1.656-3.873-3.97-6.268-5.253-2.507-1.342-4.537-1.403-6.165-1.038-1.577.35-2.88 1.48-3.73 2.91-2.05 3.455-1.828 9.227-.55 14.914 1.256 5.607 3.236 10.222 5.57 14.638.302.574.63 1.143.935 1.656.296.5.7 1.115 1.077 1.617.748.998 1.664 2.123 2.9 2.812 3.265 1.82 5.375-.366 9.984 3.452 1.054.874 1.92 1.89 2.932 2.777 2.007 1.76 3.892 2.425 5.502 1.822 1.558-.585 3.028-2.16 4.083-3.47a13.53 13.53 0 0 0 1.424-2.154c.275-.53 1.086-2.026 1.086-2.75z"/><path fill-rule="evenodd" clip-rule="evenodd" fill="#F6F6F6" d="M58.515 39.084c.698.295 1.377.514 2.032.665l1.058 2.21c1.963-1.2 5.185-2.69 6.754-4.345 1.82-1.924 2.817-4.845 2.695-8.158-3.04-1.502-5.873-1.262-8.076.053l-5.7 3.4 1.417 2.967a11.254 11.254 0 0 0-.183 3.207z"/><path fill-rule="evenodd" clip-rule="evenodd" fill="#9E9E9E" d="M58.916 38.797c.25.1.5.19.752.27.33.11.657.202.974.275.14.032.244.128.295.25l.85 1.776c.44-.26.933-.532 1.446-.816 1.745-.968 3.73-2.068 4.822-3.22l.002-.003h-.002c.873-.925 1.55-2.093 1.992-3.43.418-1.265.628-2.677.6-4.176-1.322-.616-2.594-.89-3.78-.882-1.348.01-2.59.38-3.673 1.028l-.023.013-5.346 3.19 1.252 2.623c.04.084.048.177.033.262a10.628 10.628 0 0 0-.193 2.84zm.494 1.07c-.33-.11-.672-.236-1.025-.383a.42.42 0 0 1-.29-.365 12.536 12.536 0 0 1-.02-1.678c.028-.512.09-1.017.186-1.512l-1.35-2.82a.42.42 0 0 1 .156-.558l5.7-3.402v.002l.015-.01a8.05 8.05 0 0 1 4.084-1.136c1.38-.008 2.856.325 4.38 1.077a.42.42 0 0 1 .232.36c.064 1.697-.16 3.296-.63 4.72-.48 1.452-1.222 2.727-2.183 3.743v-.002c-1.187 1.254-3.23 2.385-5.023 3.38-.656.363-1.28.708-1.815 1.036l-.003-.002c-.01.01-.024.014-.037.02a.416.416 0 0 1-.557-.195l-.97-2.033c-.28-.07-.564-.15-.848-.244z"/><path fill-rule="evenodd" clip-rule="evenodd" fill="#FFF" d="M53.35 42.14c7.547 3.175 12.814-2.265 12.54-9.627-7.15-3.533-13.138 2.56-12.54 9.626z"/><path fill-rule="evenodd" clip-rule="evenodd" fill="#9E9E9E" d="M53.748 41.85c1.484.592 2.87.837 4.13.79 1.563-.06 2.938-.566 4.07-1.414 1.14-.856 2.04-2.057 2.645-3.5.61-1.446.92-3.13.886-4.946-1.536-.715-3.008-.97-4.357-.856a7.245 7.245 0 0 0-3.73 1.422c-1.083.802-1.973 1.896-2.606 3.175-.77 1.565-1.157 3.405-1.04 5.33zm14.485 14.936l4.754-2.81.426.72-5.147 3.044a.413.413 0 0 1-.17.065 4.812 4.812 0 0 0-1.782.68c-.565.35-1.07.805-1.456 1.33-.444.6-.785 1.322-.997 2.193-.214.888-.295 1.933-.21 3.173.08 1.22.31 2.365.642 3.45a19.876 19.876 0 0 0 1.27 3.11c.35.694.768 1.4 1.224 2.083.482.72 1.005 1.41 1.53 2.035l.02.02c.126.154.296.336.466.523.158.17.318.343.45.493l4.848-2.867.427.723-4.98 2.942c-.124.8-.754 1.997-1.053 2.57l-.047.09-.015.032c-.214.41-.452.805-.704 1.182-.25.37-.507.72-.765 1.04-.538.67-1.183 1.407-1.895 2.056-.73.662-1.53 1.23-2.365 1.545-.893.334-1.85.322-2.856-.01-.983-.326-2.014-.965-3.07-1.89-.486-.425-.913-.852-1.342-1.28v-.002c-.507-.508-1.017-1.018-1.58-1.486-2.653-2.2-4.445-2.33-6.13-2.458-1.223-.088-2.396-.176-3.79-.955-.66-.368-1.23-.848-1.73-1.364-.493-.505-.918-1.05-1.304-1.56A21.37 21.37 0 0 1 39.8 73.55c-.153-.256-.32-.543-.5-.86-.16-.287-.312-.564-.445-.816-1.174-2.222-2.26-4.493-3.21-6.917a53.415 53.415 0 0 1-2.4-7.825c-.684-3.057-1.07-6.142-.967-8.89.09-2.455.568-4.648 1.566-6.33a7.296 7.296 0 0 1 1.76-2.027 5.657 5.657 0 0 1 2.24-1.08 8.135 8.135 0 0 1 2.9-.126c1.07.144 2.252.51 3.553 1.205 1.58.844 2.888 2.102 4.177 3.34.714.685 1.422 1.364 2.157 1.953 1.032.828 1.91.896 2.782.965l.27.02.38.032c.858.07 1.713.14 2.656.346 1.182.257 2.4.777 3.59 1.485a19.408 19.408 0 0 1 3.537 2.754c.496.484.957.98 1.382 1.475.448.523.86 1.053 1.23 1.576.282.398.813 1.227 1.253 1.99.202.348.386.686.525.97zm.485 20.764c-.07.614-.682 1.78-.968 2.323l-.045.09-.02.03a11.56 11.56 0 0 1-.654 1.104c-.23.348-.475.676-.72.982-.516.64-1.132 1.344-1.81 1.96-.66.6-1.37 1.11-2.092 1.38-.703.264-1.477.25-2.3-.023-.878-.29-1.813-.873-2.782-1.723a26.3 26.3 0 0 1-1.298-1.246h-.002c-.527-.526-1.056-1.056-1.64-1.54-2.856-2.367-4.79-2.512-6.602-2.645-1.132-.084-2.214-.164-3.446-.85-.577-.323-1.084-.753-1.537-1.218a15.472 15.472 0 0 1-1.23-1.48 17.315 17.315 0 0 1-.533-.756 17.95 17.95 0 0 1-.522-.825 35.197 35.197 0 0 1-.923-1.638c-1.16-2.195-2.23-4.438-3.168-6.828a52.32 52.32 0 0 1-2.364-7.707c-.67-2.992-1.048-6.003-.95-8.676.086-2.32.53-4.38 1.453-5.933a6.436 6.436 0 0 1 1.554-1.795 4.816 4.816 0 0 1 1.907-.924 7.346 7.346 0 0 1 2.61-.114c.978.13 2.065.468 3.27 1.114 1.475.79 2.74 2.006 3.99 3.206.727.7 1.45 1.392 2.213 2.004 1.238.99 2.244 1.068 3.246 1.147.07.005.146.01.26.02l.382.033h.002c.827.066 1.654.134 2.544.33 1.096.238 2.23.72 3.34 1.383 1.18.702 2.33 1.607 3.382 2.633a21.697 21.697 0 0 1 2.512 2.935c.27.38.782 1.18 1.212 1.925.178.31.34.605.463.85a5.848 5.848 0 0 0-1.575.688 6.127 6.127 0 0 0-1.692 1.546c-.504.688-.894 1.506-1.134 2.494-.235.97-.325 2.1-.235 3.426.086 1.28.328 2.488.678 3.634a20.97 20.97 0 0 0 2.6 5.415c.492.74 1.034 1.456 1.583 2.11.008.007.013.016.02.022.107.128.3.335.495.546.217.237.44.477.53.584zm-10.81-34.074c-1.434.054-3.01-.237-4.687-.937a.42.42 0 0 1-.287-.37c-.184-2.17.235-4.255 1.106-6.02.69-1.4 1.666-2.596 2.856-3.477a8.07 8.07 0 0 1 4.16-1.587c1.56-.13 3.258.18 5.02 1.05a.42.42 0 0 1 .234.36c.074 2.035-.263 3.93-.946 5.554-.663 1.578-1.655 2.898-2.913 3.843-1.266.95-2.8 1.52-4.54 1.583z"/></svg>