<!DOCTYPE svg PUBLIC "-//W3C//DTD SVG 1.1//EN" "http://www.w3.org/Graphics/SVG/1.1/DTD/svg11.dtd" [
	<!ENTITY ns_flows "http://ns.adobe.com/Flows/1.0/">
]><svg xmlns="http://www.w3.org/2000/svg" width="125" height="125" viewBox="-5.535 -0.244 125 125" overflow="visible"><path fill="#FFF" d="M111.07 82.69v7.718h-.03c-.248 1.613-1.487 3.224-3.688 4.524l-42.488 24.795c-4.525 2.664-11.467 2.944-15.402.65L4.835 94.312C3.068 93.26 2.2 91.865 2.17 90.408V82.69h.03c.217-1.61 1.457-3.284 3.72-4.585l42.488-24.823c4.524-2.634 11.436-2.914 15.372-.62l44.626 26.062c1.827 1.054 2.695 2.48 2.665 3.967z"/><path fill="#9EA0A1" d="M113.24 82.475c0 .093.03.154.03.216v7.718c0 .31-.062.59-.186.837a7.7 7.7 0 0 1-1.487 2.976c-.774.93-1.828 1.83-3.16 2.604l-42.49 24.794c-2.57 1.485-5.794 2.323-8.925 2.446-3.19.126-6.32-.463-8.646-1.827L3.75 96.204c-1.146-.682-2.046-1.52-2.665-2.418-.65-.96-1.023-2.015-1.054-3.1-.03-.09-.03-.183-.03-.276v-7.72c0-.247.03-.464.124-.682.217-1.082.713-2.138 1.518-3.13.775-.96 1.83-1.89 3.162-2.665l42.52-24.792c2.54-1.517 5.763-2.322 8.894-2.447 3.19-.155 6.353.465 8.677 1.828l44.628 26.033c1.177.684 2.075 1.52 2.695 2.48.652.992.99 2.046 1.023 3.163zm-4.338 7.375v-7.19c0-.31-.094-.618-.31-.93-.25-.402-.682-.774-1.272-1.115L62.694 54.55c-1.612-.93-3.904-1.332-6.29-1.238-2.448.093-4.93.712-6.91 1.86L7.004 79.996c-.87.495-1.55 1.053-1.984 1.61-.37.466-.588.9-.65 1.3v7.5h-.03c0 .312.124.622.34.93.248.373.682.745 1.27 1.086l44.627 26.062c1.61.93 3.874 1.334 6.29 1.24 2.42-.092 4.93-.714 6.88-1.858l42.52-24.824c.837-.496 1.49-1.02 1.954-1.58.373-.466.59-.868.65-1.272 0-.06.033-.123.033-.184v-.156z"/><path fill="#F6F6F6" d="M63.78 59.914l39.078 22.777h8.213v7.718h-.03c-.247 1.613-1.486 3.224-3.687 4.524l-42.488 24.795c-4.525 2.664-11.467 2.944-15.402.65L4.835 94.312C3.068 93.26 2.2 91.865 2.17 90.408V82.69h8.243l37.995-22.157c4.524-2.634 11.435-2.912 15.372-.62z"/><path fill="#9EA0A1" d="M63.996 59.542l38.956 22.716h8.554v8.584h-.093c-.188.775-.59 1.55-1.18 2.263-.65.806-1.55 1.55-2.664 2.2L65.08 120.13c-2.322 1.33-5.268 2.105-8.118 2.198-2.883.123-5.672-.403-7.717-1.58L4.618 94.685a6.34 6.34 0 0 1-2.107-1.89c-.4-.59-.65-1.272-.742-1.954h-.032v-8.583h8.554l37.9-22.095c2.324-1.363 5.27-2.106 8.12-2.23s5.64.403 7.686 1.612zm38.614 23.522l-39.048-22.78c-1.89-1.115-4.525-1.61-7.22-1.487-2.73.092-5.518.807-7.72 2.108L10.63 83.065l-.217.06h-7.81v7.283c0 .683.217 1.302.62 1.922.403.588 1.023 1.115 1.83 1.61l44.625 26.032c1.922 1.117 4.525 1.61 7.252 1.488 2.727-.093 5.484-.805 7.686-2.106l42.52-24.795c1.02-.62 1.86-1.3 2.417-2.015.588-.713.96-1.456 1.054-2.2l.03-.217v-7.005h-7.778l-.25-.06z"/><path fill="#FFF" d="M64.855 53.297l42.48 24.797c4.543 2.65 4.543 6.953 0 9.604l-42.48 24.798c-4.544 2.652-11.91 2.652-16.453 0L5.922 87.7c-4.543-2.652-4.543-6.954 0-9.605l42.48-24.797c4.544-2.653 11.91-2.653 16.453 0z"/><path fill="#9EA0A1" d="M63.996 52.29l44.626 26.062c1.054.62 1.83 1.364 2.294 2.17.435.713.62 1.458.59 2.23 0 .776-.248 1.55-.683 2.295-.65 1.084-1.735 2.138-3.254 3.036l-42.49 24.793c-2.323 1.364-5.27 2.106-8.12 2.232-2.882.123-5.67-.403-7.716-1.613L4.618 87.463c-1.054-.62-1.83-1.363-2.293-2.17a4.444 4.444 0 0 1-.59-2.23c.032-.775.25-1.548.683-2.294.65-1.117 1.735-2.14 3.285-3.04L48.19 52.91c2.324-1.333 5.27-2.108 8.12-2.2 2.85-.126 5.64.4 7.686 1.58zm44.192 26.807L63.562 53.065c-1.89-1.117-4.525-1.612-7.22-1.49-2.73.095-5.518.808-7.72 2.11L6.137 78.477c-1.395.804-2.386 1.765-2.944 2.726-.37.62-.558 1.27-.588 1.86 0 .62.155 1.208.464 1.766.402.713 1.083 1.332 1.983 1.86l44.626 26.06c1.92 1.117 4.524 1.58 7.25 1.49 2.728-.127 5.485-.84 7.687-2.108l42.52-24.794c1.395-.838 2.355-1.766 2.943-2.728.372-.65.557-1.27.557-1.89a3.1 3.1 0 0 0-.465-1.768c-.403-.68-1.054-1.33-1.984-1.857z"/><path fill="#9EA0A1" d="M1.497 79.343V38.84c.062-3.347.434-5.796 1.52-7.84 1.086-2.08 2.823-3.69 5.583-5.303l20.38-11.745 19.637-11.31C51.532 1 53.857.1 56.185.008c2.328-.092 4.59.62 7.354 2.2l20.376 11.747 19.636 11.343c2.885 1.705 4.81 3.285 6.05 5.237 1.242 1.952 1.77 4.276 1.77 7.47V78.51h-.87V38.002c0-3.04-.497-5.208-1.645-7.005-1.146-1.83-3.008-3.318-5.738-4.96L83.484 14.73 63.105 2.982c-2.64-1.52-4.748-2.2-6.888-2.108-2.17.094-4.374.96-7.166 2.51L29.417 14.73 9.036 26.473c-2.607 1.52-4.25 3.006-5.244 4.928-.992 1.89-1.365 4.247-1.426 7.44v40.504h-.87z"/><path fill="#B3B4B4" d="M86.064 60.656l-4.41 2.505-.473-.624 4.414-2.505"/><path fill="#9EA0A1" d="M29.67 14.483l.315-.312c.314-.155.63-.31.945-.47.157-.154.472-.31.787-.467l4.41-2.348c.158-.157.316-.157.474-.313.16-.156.474-.156.63-.312h.16c1.26-.47 2.52-.47 3.622-.313 1.42.157 2.68.626 3.94 1.252v.156l13.075 7.356 21.738 12.52c3.467 2.036 5.67 3.914 7.247 6.26 1.575 2.348 2.205 5.166 2.205 9.08V94.93c-.157 1.72-.472 3.13-1.103 4.226-.63 1.41-1.575 2.35-2.68 2.974 0 0-.156.157-.314.157l-5.512 2.974c-1.103.626-2.206.783-3.467.783-1.26 0-2.36-.313-3.465-.94-.156 0-.156 0-.316-.156L57.87 96.65 36.13 84.13c-3.466-2.034-5.67-3.91-7.247-6.26-1.575-2.35-2.205-5.165-2.205-9.08V23.4c0-2.19.314-3.91.787-5.32.474-1.564 1.262-2.817 2.206-3.6zm3.15 2.818c-.157 0-.314.16-.472.16-.315.31-.788.94-1.103 1.877-.314 1.095-.473 2.347-.473 4.068v45.39c0 3.133.473 5.167 1.576 6.89 1.103 1.877 2.993 3.285 5.828 5.01l21.74 12.52 14.49 8.294c.63.312 1.262.47 1.893.47.47 0 .943-.157 1.415-.314l5.67-2.974c.473-.313.787-.625 1.103-1.253.314-.625.63-1.563.63-2.66V46.57c0-2.975-.472-5.167-1.576-6.888-1.1-1.878-2.992-3.286-5.827-5.008L55.977 22.31 43.06 14.796h-.158c-.788-.47-1.575-.783-2.363-.94-.63 0-1.105 0-1.577.157h-.315L32.82 17.3zm.316-.31c0 .155-.157.155-.315.31l.317-.31zm.473-.158c-.16.158-.317.158-.475.158l.473-.157zm4.565-2.347L33.61 16.83l4.566-2.347zm.158-.156s-.158 0-.158.155l.158-.156zm.158-.158l-.157.157.158-.158z"/><path fill="#F6F6F6" d="M76.927 100.41L63.38 92.587 41.486 80.064c-6.143-3.6-8.35-6.573-8.35-13.46V19.647L31.09 15.89l5.984-3.286.946-.47c1.89-.626 4.095-.156 5.985.94L57.08 20.43l21.738 12.52c6.144 3.758 8.35 6.73 8.35 13.618v48.208c-.158 3.132-1.26 4.852-2.837 5.634l-5.67 2.975-1.732-2.974z"/><path fill="#9EA0A1" d="M76.615 100.724l-13.548-7.826-21.74-12.364c-3.15-1.877-5.197-3.6-6.615-5.79s-1.89-4.696-2.048-8.14V21.057c0-.157 0-.47.158-.782v-.47l-2.048-3.757-.157-.314.315-.157 5.985-3.288c.157-.158.315-.158.473-.314.158 0 .315-.158.473-.158l.314-.156c.788-.313 1.733-.313 2.68-.157 1.1.156 2.205.625 3.307 1.095l13.075 7.513L78.974 32.64c3.15 1.878 5.355 3.6 6.617 5.634 1.417 2.19 2.047 4.696 2.047 8.296v48.206c-.157 1.564-.474 2.66-.947 3.757-.472.938-1.1 1.72-1.89 2.19h-.315l-5.67 3.13-.315.157-.315-.312-1.575-2.974zm-13.075-8.45l13.705 7.824.156.156 1.42 2.66 5.04-2.816h.314a5.69 5.69 0 0 0 1.734-2.034c.47-.783.786-1.878.786-3.287V46.57c0-3.444-.472-5.792-1.73-7.827-1.26-2.034-3.31-3.6-6.46-5.477L56.767 20.9 43.69 13.39c-.944-.626-1.89-.94-2.992-1.096-.788-.157-1.733 0-2.52.313-.158 0-.315 0-.315.157-.157 0-.314.156-.473.156v.157l-5.67 2.974 1.89 3.443V66.6c0 3.288.472 5.636 1.733 7.67 1.26 2.036 3.307 3.757 6.458 5.48l21.74 12.523zm-25.364-79.67z"/><path fill="#FFF" d="M73.62 103.385l-14.807-8.452-21.74-12.52c-6.142-3.6-8.347-6.73-8.347-13.618v-45.39c0-9.39 5.513-9.548 9.45-7.356l13.076 7.51L72.99 36.083c6.302 3.6 8.348 6.73 8.507 13.46V97.75c-.316 6.417-4.882 7.044-7.877 5.635z"/><path fill="#9EA0A1" d="M73.04 103.7l-14.562-8.453-21.612-12.522c-3.132-1.878-5.324-3.6-6.578-5.635-1.41-2.19-2.034-4.696-2.034-8.296v-45.39c0-2.816.47-4.852 1.252-6.104.627-1.095 1.253-1.722 2.036-2.19.783-.47 1.566-.628 2.505-.628 1.41 0 2.975.47 4.228 1.253l12.998 7.512 21.61 12.522c3.133 1.875 5.325 3.44 6.733 5.632 1.253 2.19 1.88 4.696 1.88 8.14V97.75c0 1.563-.313 2.816-.782 3.756-.627 1.095-1.255 1.878-2.193 2.348-.78.47-1.722.626-2.66.47-.94 0-1.88-.157-2.66-.626h-.16zm-14.093-9.08l14.563 8.296c.626.47 1.565.626 2.348.626.782.157 1.567 0 2.35-.47.627-.312 1.252-.94 1.723-1.88.47-.937.63-2.033.786-3.44V49.544c0-3.287-.627-5.635-1.88-7.67s-3.29-3.6-6.263-5.477L50.96 23.874 37.962 16.36c-1.253-.624-2.662-1.094-3.915-1.094-.783 0-1.41.156-2.036.625-.78.316-1.25.94-1.722 1.724-.782 1.253-1.095 3.13-1.095 5.79v45.392c0 3.443.47 5.792 1.723 7.826 1.252 2.037 3.288 3.603 6.42 5.48l21.612 12.52z"/><path fill="#3AC3DF" d="M65.272 39.37c1.416.782 2.52 2.973 2.205 4.85-.157 1.88-1.575 2.662-3.15 1.88-1.418-.94-2.52-3.13-2.206-5.01.16-1.877 1.578-2.66 3.153-1.72z"/><path fill="#EF486C" d="M72.202 43.282c1.418.94 2.52 3.13 2.206 5.01-.157 1.877-1.573 2.66-3.15 1.72-1.42-.782-2.363-2.973-2.204-4.852.314-1.878 1.573-2.66 3.148-1.878z"/><path fill="#B9D532" d="M58.183 35.145c1.418.94 2.52 3.13 2.205 5.007-.157 1.878-1.575 2.66-3.15 1.722-1.418-.782-2.52-2.974-2.207-4.85.16-1.88 1.578-2.663 3.154-1.88z"/><path fill="#9EA0A1" d="M28.883 32.327l52.77 30.208-.472.626-52.61-30.206"/><path fill="#9EA0A1" d="M88.585 59.248l-6.932 3.913-.472-.624 6.934-3.914"/></svg>