<svg id="Layer_1" data-name="Layer 1" xmlns="http://www.w3.org/2000/svg" viewBox="0 0 37 36"><defs><style>.cls-1{fill:#00a2c5}</style></defs><path class="cls-1" d="M26.45 16.05a2.52 2.52 0 0 0-3.54 0L21 18V2.5a2.5 2.5 0 0 0-5 0V18l-1.91-1.91a2.5 2.5 0 0 0-3.54 3.54L16 25c.51.5 1 1 3 1a2.66 2.66 0 0 0 2-1l5.42-5.41a2.52 2.52 0 0 0 .03-3.54z"/><path class="cls-1" d="M29.89 4H27.5A2.5 2.5 0 0 0 25 6.5 2.5 2.5 0 0 0 27.5 9h2.39A2.12 2.12 0 0 1 32 11.11v17.78A2.12 2.12 0 0 1 29.89 31H7.11A2.12 2.12 0 0 1 5 28.89V11.11A2.12 2.12 0 0 1 7.11 9H9.5A2.5 2.5 0 0 0 12 6.5 2.5 2.5 0 0 0 9.5 4H7.11A7.11 7.11 0 0 0 0 11.11v17.78A7.11 7.11 0 0 0 7.11 36h22.78A7.11 7.11 0 0 0 37 28.89V11.11A7.11 7.11 0 0 0 29.89 4z"/></svg>