<svg height="128" width="128" viewBox="0 0 128 128" xmlns="http://www.w3.org/2000/svg"><circle cx="64" cy="64" class="icon-circle" fill="#1cb7eb" r="64"/><path class="icon-sign" d="M105 40.19a32.75 32.75 0 0 1-9.428 2.583 16.464 16.464 0 0 0 7.217-9.08 32.858 32.858 0 0 1-10.423 3.983 16.392 16.392 0 0 0-11.98-5.184c-9.064 0-16.413 7.35-16.413 16.412 0 1.287.146 2.54.426 3.74-13.642-.684-25.735-7.218-33.83-17.147a16.33 16.33 0 0 0-2.223 8.25A16.405 16.405 0 0 0 35.65 57.41a16.335 16.335 0 0 1-7.435-2.055c-.002.07-.002.138-.002.207 0 7.954 5.657 14.584 13.166 16.093a16.442 16.442 0 0 1-7.413.28c2.09 6.52 8.15 11.268 15.332 11.4a32.936 32.936 0 0 1-20.385 7.023 32.85 32.85 0 0 1-3.915-.23 46.457 46.457 0 0 0 25.16 7.375c30.188 0 46.697-25.01 46.697-46.698 0-.71-.018-1.42-.05-2.123A33.26 33.26 0 0 0 105 40.19" fill="#FFF"/></svg>