<svg width="69" height="25" viewBox="0 0 69 25" fill="none" xmlns="http://www.w3.org/2000/svg">
<path d="M0 13.1517L11.2494 24.551H0V13.1517ZM49.6372 0L67.9062 18.5186C69.3646 20.0047 69.3646 22.4055 67.9062 23.8916C66.4396 25.3695 64.0704 25.3695 62.6038 23.8916L39.0325 0H49.6372ZM37.1164 0H26.5117L50.0831 23.8855C51.5497 25.3634 53.9188 25.3634 55.3854 23.8855C56.8438 22.3994 56.8438 19.9986 55.3854 18.5125L37.1164 0ZM24.5896 0H13.9849L37.5623 23.8855C39.0289 25.3634 41.3981 25.3634 42.8646 23.8855C44.3231 22.3994 44.3231 19.9986 42.8646 18.5125L24.5896 0ZM12.0689 0H1.46417L15.0996 13.8172C16.5662 15.2951 18.9354 15.2951 20.402 13.8172C21.8604 12.3311 21.8604 9.93032 20.402 8.44418L12.0689 0ZM0.0180763 0.464033V11.2101L13.1715 24.551H23.7762L0.0180763 0.464033Z" fill="url(#paint0_linear_369_115)"/>
<defs>
<linearGradient id="paint0_linear_369_115" x1="6.32871" y1="-13.0976" x2="47.447" y2="35.1924" gradientUnits="userSpaceOnUse">
<stop stop-color="#F3558D"/>
<stop offset="0.442604" stop-color="#FF831E"/>
<stop offset="0.983886" stop-color="#FFBC0F"/>
</linearGradient>
</defs>
</svg>
