<svg width="48" height="48" viewBox="0 0 48 48" fill="none" xmlns="http://www.w3.org/2000/svg">
<path fill-rule="evenodd" clip-rule="evenodd" d="M33.5031 15.5015C34.0344 14.9432 34.7924 14.8346 35.1962 15.259L42.7543 23.2029C42.9447 23.403 43.0224 23.686 42.9955 23.9877C43.0162 24.2821 42.937 24.5574 42.75 24.7539L35.1531 32.7386C34.7472 33.1652 33.9876 33.0584 33.4563 32.5C32.9251 31.9417 32.8235 31.1432 33.2293 30.7166L38.2912 25.3963H6.25967C5.56397 25.3963 5 24.7562 5 23.9666C5 23.177 5.56397 22.5368 6.25967 22.5368H38.273L33.2724 17.2809C32.8686 16.8565 32.9719 16.0599 33.5031 15.5015Z" fill="white"/>
</svg>
