<svg width="32" height="18" viewBox="0 0 32 18" fill="none" xmlns="http://www.w3.org/2000/svg">
<path d="M23.9693 0.810714L31.0487 8.07591C31.6164 8.64935 31.6628 9.27949 31.1064 9.85683L23.9309 17.2206C23.5889 17.5716 22.7575 17.631 22.3098 17.1716C21.8622 16.7122 21.9678 15.9079 22.3098 15.5569L27.5633 10.1656H1.56147C0.975238 10.1656 0.5 9.63894 0.5 8.98925C0.5 8.33957 0.975238 7.81289 1.56147 7.81289H27.5502L22.3482 2.47434C21.9345 2.04978 21.9374 1.22704 22.3481 0.811211C22.7534 0.400918 23.5611 0.391801 23.9693 0.810714Z" fill="url(#paint0_linear_41_2100)"/>
<defs>
<linearGradient id="paint0_linear_41_2100" x1="-4.38521" y1="-6.40625" x2="40.5255" y2="5.52162" gradientUnits="userSpaceOnUse">
<stop stop-color="#FF6C40"/>
<stop offset="1" stop-color="#FFB800"/>
</linearGradient>
</defs>
</svg>
