<svg width="30" height="30" viewBox="0 0 30 30" fill="none" xmlns="http://www.w3.org/2000/svg">
<g clip-path="url(#clip0_1154_2389)">
<path d="M18.2231 17.6868C18.0311 18.0707 17.7624 18.4834 17.4169 18.9249C17.0713 19.3472 16.6682 19.7695 16.2075 20.1918C15.766 20.595 15.2861 20.9789 14.7678 21.3436C14.2688 21.6891 13.7697 21.977 13.2706 22.2074C13.117 22.2842 12.9347 22.3322 12.7235 22.3514C12.5124 22.3514 12.3396 22.3034 12.2052 22.2074C11.9365 21.9962 11.8021 21.7179 11.8021 21.3724C11.8213 21.0269 11.9845 20.7581 12.2916 20.5662C12.8483 20.2974 13.405 19.9711 13.9616 19.5872C14.5375 19.2033 15.0366 18.8098 15.4589 18.4066C15.9004 17.9843 16.2459 17.5716 16.4955 17.1685C16.7642 16.7462 16.8794 16.3623 16.841 16.0168C16.7834 15.6521 16.6298 15.3641 16.3803 15.153C16.1307 14.9418 15.814 14.8075 15.4301 14.7499C15.0654 14.6923 14.6431 14.7019 14.1632 14.7787C13.6833 14.8362 13.2034 14.9514 12.7235 15.1242C12.5699 15.1626 12.426 15.1818 12.2916 15.1818C12.1572 15.1626 12.0421 15.0954 11.9461 14.9802C11.7925 14.7691 11.6773 14.5387 11.6006 14.2892C11.543 14.0396 11.6006 13.8285 11.7733 13.6557C12.0996 13.4446 12.4548 13.2142 12.8387 12.9647C13.2226 12.7151 13.5777 12.4464 13.904 12.1584C14.2304 11.8705 14.4895 11.5634 14.6815 11.2371C14.8926 10.8915 14.9694 10.5268 14.9118 10.1429C14.8926 9.98933 14.7966 9.86456 14.6239 9.76858C14.4703 9.67261 14.2784 9.60542 14.048 9.56703C13.8177 9.50944 13.5777 9.49984 13.3282 9.53823C13.0786 9.55743 12.8483 9.60542 12.6371 9.6822C12.522 9.77818 12.3972 9.84537 12.2628 9.88376C12.1284 9.92215 11.9941 9.94134 11.8597 9.94134C11.7253 9.94134 11.6102 9.92215 11.5142 9.88376C11.4182 9.82617 11.351 9.75899 11.3126 9.6822C11.255 9.58622 11.2166 9.45185 11.1975 9.27909C11.1975 9.08714 11.2454 8.93357 11.3414 8.8184C11.5526 8.51127 11.9557 8.27132 12.5507 8.09856C13.1458 7.9066 13.8561 7.85861 14.6815 7.95459C15.3341 8.06977 15.8236 8.33851 16.1499 8.76081C16.4763 9.18312 16.6394 9.6822 16.6394 10.2581C16.6394 10.6996 16.5243 11.1795 16.2939 11.6978C16.0828 12.1968 15.7564 12.6767 15.3149 13.1374C15.8524 13.0798 16.3323 13.147 16.7546 13.339C17.1769 13.5309 17.5224 13.7997 17.7912 14.1452C18.1751 14.6251 18.415 15.1914 18.511 15.844C18.607 16.4967 18.511 17.1109 18.2231 17.6868Z" fill="white"/>
<path d="M18.2231 17.6868L18.0716 17.6111L18.2231 17.6868ZM17.4169 18.9249L17.548 19.0322L17.5502 19.0293L17.4169 18.9249ZM16.2075 20.1918L16.3217 20.3169L16.322 20.3167L16.2075 20.1918ZM14.7678 21.3436L14.8643 21.4828L14.8653 21.4821L14.7678 21.3436ZM13.2706 22.2074L13.1996 22.0535L13.1948 22.0559L13.2706 22.2074ZM12.7235 22.3514V22.5207H12.7312L12.7388 22.52L12.7235 22.3514ZM12.2052 22.2074L12.1005 22.3407L12.1068 22.3452L12.2052 22.2074ZM11.8021 21.3724L11.6328 21.363V21.3724H11.8021ZM12.2916 20.5662L12.218 20.4136L12.2097 20.4176L12.2018 20.4225L12.2916 20.5662ZM13.9616 19.5872L13.8677 19.4462L13.8655 19.4478L13.9616 19.5872ZM15.4589 18.4066L15.5758 18.5292L15.576 18.529L15.4589 18.4066ZM16.4955 17.1685L16.3526 17.0776L16.3515 17.0794L16.4955 17.1685ZM16.841 16.0168L17.0095 15.9981L17.0083 15.9904L16.841 16.0168ZM16.3803 15.153L16.4897 15.0237L16.3803 15.153ZM15.4301 14.7499L15.4037 14.9172L15.405 14.9174L15.4301 14.7499ZM14.1632 14.7787L14.1834 14.9469L14.1899 14.9459L14.1632 14.7787ZM12.7235 15.1242L12.7646 15.2885L12.7729 15.2864L12.7809 15.2835L12.7235 15.1242ZM12.2916 15.1818L12.2677 15.3494L12.2796 15.3511H12.2916V15.1818ZM11.9461 14.9802L11.8088 15.08L11.816 15.0886L11.9461 14.9802ZM11.6006 14.2892L11.4351 14.3273L11.4387 14.339L11.6006 14.2892ZM11.7733 13.6557L11.6813 13.5135L11.6663 13.5233L11.6536 13.536L11.7733 13.6557ZM12.8387 12.9647L12.7464 12.8227L12.8387 12.9647ZM13.904 12.1584L13.792 12.0315L13.904 12.1584ZM14.6815 11.2371L14.5369 11.1487L14.5355 11.1512L14.6815 11.2371ZM14.9118 10.1429L14.7437 10.1639L14.7443 10.168L14.9118 10.1429ZM14.6239 9.76858L14.534 9.91239L14.5416 9.91663L14.6239 9.76858ZM14.048 9.56703L14.0068 9.73186L14.0202 9.73409L14.048 9.56703ZM13.3282 9.53823L13.3412 9.70759L13.3539 9.70563L13.3282 9.53823ZM12.6371 9.6822L12.5792 9.52304L12.5514 9.53315L12.5287 9.55209L12.6371 9.6822ZM12.2628 9.88376L12.3093 10.0466L12.2628 9.88376ZM11.5142 9.88376L11.427 10.029L11.4387 10.036L11.4513 10.041L11.5142 9.88376ZM11.3126 9.6822L11.4646 9.60624L11.4579 9.59507L11.3126 9.6822ZM11.1975 9.27909H11.0281V9.28847L11.0291 9.2978L11.1975 9.27909ZM11.3414 8.8184L11.4715 8.92682L11.4765 8.9208L11.481 8.91435L11.3414 8.8184ZM12.5507 8.09856L12.598 8.26128L12.6027 8.25974L12.5507 8.09856ZM14.6815 7.95459L14.711 7.78751L14.701 7.78636L14.6815 7.95459ZM16.1499 8.76081L16.0159 8.86437L16.1499 8.76081ZM16.2939 11.6978L16.1391 11.629L16.1379 11.6318L16.2939 11.6978ZM15.3149 13.1374L15.1926 13.0202L14.8716 13.3553L15.333 13.3058L15.3149 13.1374ZM16.7546 13.339L16.6845 13.4932L16.7546 13.339ZM17.7912 14.1452L17.6575 14.2492L17.6589 14.251L17.7912 14.1452ZM18.511 15.844L18.3434 15.8687L18.511 15.844ZM18.0716 17.6111C17.886 17.9823 17.624 18.3854 17.2835 18.8205L17.5502 19.0293C17.9007 18.5814 18.1763 18.1591 18.3746 17.7625L18.0716 17.6111ZM17.2858 18.8177C16.946 19.2329 16.5487 19.6494 16.0931 20.067L16.322 20.3167C16.7878 19.8897 17.1966 19.4616 17.5479 19.0322L17.2858 18.8177ZM16.0933 20.0668C15.6574 20.4648 15.1832 20.8442 14.6704 21.2051L14.8653 21.4821C15.3891 21.1135 15.8746 20.7251 16.3217 20.3169L16.0933 20.0668ZM14.6714 21.2043C14.1796 21.5449 13.689 21.8278 13.1996 22.0536L13.3416 22.3612C13.8504 22.1263 14.3579 21.8334 14.8643 21.4828L14.6714 21.2043ZM13.1948 22.0559C13.064 22.1213 12.9031 22.165 12.7082 22.1827L12.7388 22.52C12.9662 22.4994 13.17 22.447 13.3463 22.3589L13.1948 22.0559ZM12.7235 22.182C12.5378 22.182 12.4022 22.14 12.3037 22.0696L12.1068 22.3452C12.277 22.4668 12.4869 22.5207 12.7235 22.5207V22.182ZM12.3099 22.0742C12.0825 21.8956 11.9715 21.6666 11.9715 21.3724H11.6328C11.6328 21.7692 11.7905 22.0969 12.1006 22.3406L12.3099 22.0742ZM11.9712 21.3818C11.9872 21.0942 12.1184 20.8742 12.3814 20.7098L12.2018 20.4225C11.8506 20.6421 11.6554 20.9595 11.633 21.363L11.9712 21.3818ZM12.3652 20.7187C12.9304 20.4458 13.4946 20.115 14.0578 19.7266L13.8655 19.4478C13.3153 19.8272 12.7661 20.149 12.218 20.4136L12.3652 20.7187ZM14.0556 19.7281C14.6382 19.3397 15.1453 18.9402 15.5758 18.5292L15.342 18.2841C14.9279 18.6793 14.4368 19.0668 13.8677 19.4463L14.0556 19.7281ZM15.576 18.529C16.025 18.0995 16.3806 17.6759 16.6395 17.2577L16.3515 17.0794C16.1113 17.4674 15.7758 17.8692 15.3418 18.2843L15.576 18.529ZM16.6383 17.2594C16.9189 16.8185 17.0535 16.3957 17.0093 15.9981L16.6727 16.0355C16.7053 16.3289 16.6095 16.6739 16.3526 17.0776L16.6383 17.2594ZM17.0083 15.9904C16.9452 15.5911 16.7743 15.2645 16.4897 15.0237L16.2709 15.2823C16.4854 15.4638 16.6216 15.7131 16.6737 16.0432L17.0083 15.9904ZM16.4897 15.0237C16.212 14.7887 15.8643 14.6437 15.4552 14.5824L15.405 14.9174C15.7637 14.9712 16.0495 15.095 16.2709 15.2823L16.4897 15.0237ZM15.4565 14.5826C15.0696 14.5215 14.6287 14.5327 14.1364 14.6114L14.1899 14.9459C14.6575 14.8711 15.0612 14.8631 15.4037 14.9172L15.4565 14.5826ZM14.143 14.6105C13.6497 14.6697 13.1574 14.788 12.6661 14.9648L12.7809 15.2835C13.2494 15.1149 13.7168 15.0028 14.1834 14.9468L14.143 14.6105ZM12.6824 14.9599C12.54 14.9955 12.4099 15.0124 12.2916 15.0124V15.3511C12.442 15.3511 12.5999 15.3297 12.7646 15.2885L12.6824 14.9599ZM12.3156 15.0141C12.2271 15.0015 12.1484 14.9584 12.0762 14.8718L11.816 15.0886C11.9358 15.2324 12.0873 15.3237 12.2677 15.3494L12.3156 15.0141ZM12.0831 14.8806C11.9405 14.6846 11.8337 14.471 11.7624 14.2394L11.4387 14.339C11.521 14.6064 11.6446 14.8536 11.8091 15.0798L12.0831 14.8806ZM11.7656 14.2511C11.7204 14.0551 11.764 13.9046 11.8931 13.7755L11.6536 13.536C11.4372 13.7524 11.3656 14.0241 11.4355 14.3273L11.7656 14.2511ZM11.8653 13.7979C12.1918 13.5867 12.547 13.3563 12.931 13.1067L12.7464 12.8227C12.3625 13.0722 12.0075 13.3024 11.6813 13.5135L11.8653 13.7979ZM12.931 13.1067C13.3215 12.8528 13.6832 12.5791 14.0161 12.2854L13.792 12.0315C13.4722 12.3136 13.1237 12.5774 12.7464 12.8227L12.931 13.1067ZM14.0161 12.2854C14.3539 11.9874 14.6252 11.6668 14.8274 11.3229L14.5355 11.1512C14.3538 11.46 14.1069 11.7536 13.792 12.0315L14.0161 12.2854ZM14.826 11.3254C15.0569 10.9475 15.1431 10.5428 15.0793 10.1178L14.7443 10.168C14.7957 10.5108 14.7283 10.8356 14.537 11.1487L14.826 11.3254ZM15.0799 10.1219C15.0522 9.90017 14.9116 9.73471 14.7061 9.62053L14.5416 9.91663C14.6816 9.99441 14.7331 10.0785 14.7438 10.1639L15.0799 10.1219ZM14.7136 9.62496C14.5366 9.51429 14.3221 9.44101 14.0759 9.39997L14.0202 9.73409C14.2346 9.76983 14.4041 9.83092 14.5341 9.9122L14.7136 9.62496ZM14.0891 9.40272C13.8355 9.33933 13.5728 9.32925 13.3024 9.37084L13.3539 9.70563C13.5826 9.67044 13.7998 9.67955 14.0069 9.73134L14.0891 9.40272ZM13.3152 9.36937C13.052 9.38961 12.8064 9.44044 12.5792 9.52304L12.695 9.84137C12.8902 9.7704 13.1052 9.72525 13.3412 9.7071L13.3152 9.36937ZM12.5287 9.55209C12.4303 9.63408 12.3263 9.68946 12.2163 9.72091L12.3093 10.0466C12.468 10.0013 12.6136 9.92228 12.7456 9.81231L12.5287 9.55209ZM12.2163 9.72091C12.0964 9.75515 11.9777 9.77198 11.8597 9.77198V10.1107C12.0104 10.1107 12.1604 10.0891 12.3093 10.0466L12.2163 9.72091ZM11.8597 9.77198C11.7407 9.77198 11.648 9.75489 11.5771 9.72651L11.4513 10.041C11.5723 10.0894 11.7099 10.1107 11.8597 10.1107V9.77198ZM11.6013 9.73853C11.5247 9.69256 11.4843 9.64689 11.4641 9.60646L11.1611 9.75794C11.2177 9.87108 11.3117 9.95978 11.427 10.029L11.6013 9.73853ZM11.4579 9.59507C11.4178 9.52832 11.3836 9.42097 11.3658 9.26039L11.0291 9.2978C11.0497 9.48274 11.0923 9.64413 11.1674 9.76934L11.4579 9.59507ZM11.3668 9.27909C11.3668 9.11542 11.4073 9.00386 11.4715 8.92682L11.2113 8.70997C11.0836 8.86329 11.0281 9.05885 11.0281 9.27909H11.3668ZM11.481 8.91435C11.6594 8.65476 12.0175 8.42972 12.598 8.26121L12.5035 7.93591C11.8938 8.11292 11.4457 8.36777 11.2019 8.72245L11.481 8.91435ZM12.6027 8.25974C13.1685 8.07725 13.853 8.02877 14.6619 8.12282L14.701 7.78636C13.8591 7.68846 13.1232 7.73595 12.4988 7.93738L12.6027 8.25974ZM14.652 8.12138C15.2737 8.23107 15.7212 8.48298 16.0159 8.86437L16.284 8.65725C15.926 8.19403 15.3946 7.90846 14.7109 7.7878L14.652 8.12138ZM16.0159 8.86437C16.3175 9.25461 16.4701 9.71653 16.4701 10.2581H16.8088C16.8088 9.64788 16.6351 9.11162 16.284 8.65725L16.0159 8.86437ZM16.4701 10.2581C16.4701 10.6702 16.3625 11.1264 16.1391 11.629L16.4487 11.7665C16.686 11.2325 16.8088 10.729 16.8088 10.2581H16.4701ZM16.1379 11.6318C15.9361 12.1088 15.6224 12.5718 15.1926 13.0202L15.4372 13.2546C15.8905 12.7816 16.2294 12.2848 16.4499 11.7637L16.1379 11.6318ZM15.333 13.3058C15.8454 13.2509 16.2941 13.3157 16.6845 13.4932L16.8247 13.1848C16.3705 12.9784 15.8594 12.9088 15.2969 12.969L15.333 13.3058ZM16.6845 13.4932C17.0834 13.6745 17.4066 13.9266 17.6575 14.2492L17.9249 14.0412C17.6383 13.6728 17.2704 13.3874 16.8247 13.1848L16.6845 13.4932ZM17.6589 14.251C18.0227 14.7057 18.2515 15.2435 18.3434 15.8687L18.6786 15.8194C18.5786 15.1393 18.3275 14.5445 17.9234 14.0394L17.6589 14.251ZM18.3434 15.8687C18.4345 16.4879 18.3436 17.067 18.0716 17.6111L18.3746 17.7625C18.6784 17.1548 18.7795 16.5054 18.6786 15.8194L18.3434 15.8687Z" fill="white"/>
<path d="M19.5175 26.5587C10.8292 33.1715 -4.08101 19.9999 3.30252 7.81539C13.9934 -9.82702 39.473 10.93 23.0757 26.7154" stroke="#FD6B5C" stroke-width="2.02374" stroke-linecap="round" stroke-linejoin="round"/>
</g>
<defs>
<clipPath id="clip0_1154_2389">
<rect width="30" height="30" fill="white"/>
</clipPath>
</defs>
</svg>
