<svg width="30" height="30" viewBox="0 0 30 30" fill="none" xmlns="http://www.w3.org/2000/svg">
<g clip-path="url(#clip0_1154_2236)">
<path d="M14.9081 20.6378C14.5625 20.3498 14.313 20.0043 14.1594 19.6012C14.0059 19.1789 13.9291 18.9006 13.9291 18.7662C13.6603 15.6757 13.7851 12.6524 14.3034 9.69622C14.3994 9.29311 14.5049 8.92839 14.6201 8.60206C14.7353 8.27574 14.8505 8.11258 14.9656 8.11258C15.1 8.11258 15.244 8.15097 15.3975 8.22775C15.5511 8.30453 15.6855 8.40051 15.8007 8.51568C15.9158 8.63086 16.0022 8.75563 16.0598 8.89C16.1366 9.02437 16.175 9.14914 16.175 9.26432C15.7911 11.1455 15.5799 13.0267 15.5415 14.9078C15.5223 16.7698 15.5703 18.6318 15.6855 20.4938C15.6855 20.6857 15.5991 20.8009 15.4263 20.8393C15.3304 20.8585 15.2344 20.8489 15.1384 20.8105C15.0616 20.7529 14.9848 20.6953 14.9081 20.6378Z" fill="#180F3D"/>
<path d="M14.9081 20.6378L14.7995 20.768L14.8064 20.7733L14.9081 20.6378ZM14.1594 19.6012L14.0002 19.6591L14.0012 19.6615L14.1594 19.6012ZM13.9291 18.7662H14.0984V18.7588L14.0978 18.7515L13.9291 18.7662ZM14.3034 9.69622L14.1383 9.65692L14.1366 9.66697L14.3034 9.69622ZM14.6201 8.60206L14.4604 8.5457L14.6201 8.60206ZM15.3975 8.22775L15.3218 8.37923H15.3218L15.3975 8.22775ZM15.8007 8.51569L15.6809 8.63544L15.8007 8.51569ZM16.0598 8.89L15.9041 8.95671L15.9079 8.96562L15.9127 8.97403L16.0598 8.89ZM16.175 9.26432L16.3409 9.29818L16.3443 9.28142V9.26432H16.175ZM15.5415 14.9078L15.3722 14.9044L15.3722 14.9061L15.5415 14.9078ZM15.6855 20.4938H15.8552L15.8545 20.4833L15.6855 20.4938ZM15.4263 20.8393L15.4596 21.0054L15.4631 21.0046L15.4263 20.8393ZM15.1384 20.8105L15.0368 20.946L15.0547 20.9595L15.0755 20.9678L15.1384 20.8105ZM15.0165 20.5077C14.6923 20.2375 14.4605 19.9157 14.3177 19.5409L14.0012 19.6615C14.1655 20.0929 14.4328 20.4622 14.7996 20.7679L15.0165 20.5077ZM14.3186 19.5433C14.2426 19.3343 14.1867 19.1638 14.1499 19.0307C14.112 18.8934 14.0984 18.809 14.0984 18.7662H13.7597C13.7597 18.8578 13.7845 18.9797 13.8234 19.1208C13.8634 19.2659 13.9227 19.4457 14.0003 19.6591L14.3186 19.5433ZM14.0978 18.7515C13.8303 15.6752 13.9546 12.6666 14.4702 9.72547L14.1366 9.66697C13.6157 12.6381 13.4904 15.6762 13.7603 18.7809L14.0978 18.7515ZM14.4681 9.73545C14.563 9.33704 14.667 8.97817 14.7798 8.65843L14.4604 8.5457C14.3429 8.87861 14.2357 9.24917 14.1386 9.65699L14.4681 9.73545ZM14.7798 8.65843C14.8354 8.5009 14.8869 8.39549 14.9312 8.33262C14.98 8.26354 14.9934 8.28194 14.9656 8.28194V7.94321C14.8227 7.94321 14.7209 8.04319 14.6545 8.13728C14.5837 8.23757 14.52 8.3769 14.4604 8.5457L14.7798 8.65843ZM14.9656 8.28194C15.0674 8.28194 15.1854 8.31104 15.3218 8.37923L15.4733 8.07627C15.3025 7.99089 15.1326 7.94321 14.9656 7.94321V8.28194ZM15.3218 8.37923C15.46 8.44832 15.5793 8.53382 15.6809 8.63544L15.9204 8.39593C15.7917 8.2672 15.6422 8.16075 15.4733 8.07627L15.3218 8.37923ZM15.6809 8.63544C15.7826 8.73712 15.8559 8.84429 15.9041 8.95671L16.2155 8.82328C16.1485 8.66697 16.0491 8.5246 15.9204 8.39593L15.6809 8.63544ZM15.9127 8.97403C15.9797 9.09128 16.0056 9.18704 16.0056 9.26432H16.3443C16.3443 9.11124 16.2934 8.95746 16.2068 8.80597L15.9127 8.97403ZM16.009 9.23045C15.6231 11.1214 15.4108 13.0128 15.3722 14.9044L15.7108 14.9113C15.749 13.0406 15.959 11.1695 16.3409 9.29818L16.009 9.23045ZM15.3722 14.9061C15.3529 16.7722 15.401 18.6382 15.5164 20.5042L15.8545 20.4833C15.7396 18.6254 15.6917 16.7675 15.7109 14.9096L15.3722 14.9061ZM15.5161 20.4938C15.5161 20.5653 15.5001 20.6027 15.4852 20.6225C15.4715 20.6408 15.4459 20.6615 15.3896 20.674L15.4631 21.0046C15.5795 20.9788 15.6835 20.9226 15.7562 20.8258C15.8277 20.7304 15.8548 20.6143 15.8548 20.4938H15.5161ZM15.3931 20.6732C15.3312 20.6856 15.2686 20.6802 15.2013 20.6533L15.0755 20.9678C15.2002 21.0176 15.3295 21.0314 15.4596 21.0054L15.3931 20.6732ZM15.24 20.675C15.1632 20.6174 15.0865 20.5599 15.0097 20.5023L14.8064 20.7733C14.8832 20.8308 14.96 20.8884 15.0368 20.946L15.24 20.675Z" fill="#180F3D"/>
<path d="M9.94672 26.0493C-0.837064 24.3391 -1.62019 4.45966 12.2893 1.37644C32.4293 -3.08785 35.0336 29.6731 12.2924 28.7295" stroke="#6F58FC" stroke-width="2.02374" stroke-linecap="round" stroke-linejoin="round"/>
</g>
<defs>
<clipPath id="clip0_1154_2236">
<rect width="30" height="30" fill="white"/>
</clipPath>
</defs>
</svg>
