<svg width="24" height="24" viewBox="0 0 24 24" fill="none" xmlns="http://www.w3.org/2000/svg">
<path d="M9.33333 7.19995H7.2C6.0799 7.19995 5.51984 7.19995 5.09202 7.41794C4.71569 7.60968 4.40973 7.91565 4.21799 8.29197C4 8.71979 4 9.27985 4 10.4V16.7999C4 17.9201 4 18.4801 4.21799 18.9079C4.40973 19.2843 4.71569 19.5902 5.09202 19.782C5.51984 20 6.07989 20 7.2 20H13.6C14.7201 20 15.2802 20 15.708 19.782C16.0843 19.5902 16.3903 19.2843 16.582 18.9079C16.8 18.4801 16.8 17.9201 16.8 16.8V14.6666" stroke="black" stroke-width="1.5" stroke-linecap="round" stroke-linejoin="round"/>
<path d="M10.4 13.6L20 4M20 4H13.6M20 4V10.4" id="angle" stroke="black" stroke-width="1.5" stroke-linecap="round" stroke-linejoin="round"/>
</svg>
