<svg width="20" height="21" viewBox="0 0 20 21" fill="none" xmlns="http://www.w3.org/2000/svg">
<path fill-rule="evenodd" clip-rule="evenodd" d="M10.0001 20.0334C15.2653 20.0334 19.5337 15.7651 19.5337 10.4999C19.5337 5.23463 15.2653 0.966309 10.0001 0.966309C4.73487 0.966309 0.466553 5.23463 0.466553 10.4999C0.466553 15.7651 4.73487 20.0334 10.0001 20.0334ZM12.3409 5.71729C11.8842 5.95428 11.1521 6.56937 10.6033 7.3727C10.3628 7.7248 10.3639 8.18772 10.6331 8.51847C10.8008 8.72464 10.989 8.91876 11.1703 9.09464C11.382 9.30008 11.5372 9.57242 11.4503 9.85433C11.2016 10.6608 10.4096 11.5567 9.45304 11.8615C9.02458 12.0602 8.5409 11.8945 8.21084 11.5567C8.1069 11.4503 7.99819 11.342 7.88892 11.2389C7.57134 10.9391 7.10524 10.8808 6.73962 11.1196C6.17208 11.4904 5.53002 12.0909 5.18829 12.795C5.02781 13.1256 5.09927 13.5191 5.34599 13.7915C6.91154 15.52 9.53732 15.111 12.1225 12.6292C14.7277 10.1282 15.3603 7.34171 12.9515 5.78289C12.765 5.6622 12.5381 5.61496 12.3409 5.71729Z" fill="url(#paint0_linear_41_1939)"/>
<defs>
<linearGradient id="paint0_linear_41_1939" x1="-3.56333" y1="-1.83467" x2="21.6968" y2="20.0333" gradientUnits="userSpaceOnUse">
<stop stop-color="#FF6C40"/>
<stop offset="1" stop-color="#FFB800"/>
</linearGradient>
</defs>
</svg>
