<svg width="30" height="30" viewBox="0 0 30 30" fill="none" xmlns="http://www.w3.org/2000/svg">
<g clip-path="url(#clip0_1154_2336)">
<path d="M16.9527 10.4593C17.2022 11.2655 17.1926 12.0238 16.9239 12.734C16.7703 13.1179 16.5688 13.5402 16.3192 14.0009C16.0697 14.4616 15.7913 14.9319 15.4842 15.4118C15.1771 15.8725 14.8603 16.3236 14.534 16.7651C14.2077 17.1874 13.9102 17.5713 13.6414 17.9169C13.9869 17.8785 14.4092 17.8305 14.9083 17.7729C15.4266 17.6961 15.9545 17.6193 16.492 17.5425C17.0486 17.4658 17.5861 17.3986 18.1044 17.341C18.6419 17.2642 19.1218 17.2066 19.5441 17.1682C19.7552 17.149 19.9952 17.1682 20.2639 17.2258C20.5519 17.2834 20.7438 17.3314 20.8398 17.3698C20.955 17.4274 20.9934 17.5329 20.955 17.6865C20.9358 17.8209 20.8782 17.9648 20.7822 18.1184C20.6862 18.272 20.5711 18.4159 20.4367 18.5503C20.3215 18.6655 20.2255 18.7231 20.1487 18.7231C19.5345 18.819 18.853 18.9246 18.1044 19.0398C17.375 19.155 16.6359 19.2701 15.8873 19.3853C15.1387 19.5005 14.3996 19.6157 13.6702 19.7308C12.96 19.8268 12.3169 19.9036 11.741 19.9612C11.4723 19.9996 11.242 19.894 11.05 19.6445C10.8772 19.3949 10.7717 19.1358 10.7333 18.867C10.7333 18.8286 10.7429 18.7615 10.7621 18.6655C10.7813 18.5695 10.8964 18.4159 11.1076 18.2048C11.9138 17.3026 12.7008 16.314 13.4687 15.2391C14.2557 14.1449 14.8699 13.0603 15.3114 11.9854C15.369 11.8318 15.3882 11.6879 15.369 11.5535C15.3498 11.3999 15.3114 11.3039 15.2538 11.2655C15.1579 11.1888 15.0331 11.1504 14.8795 11.1504C14.7452 11.1312 14.582 11.1312 14.39 11.1504C14.1213 11.1696 13.843 11.2176 13.555 11.2943C13.2671 11.3711 12.9792 11.4575 12.6912 11.5535C12.4225 11.6495 12.1729 11.755 11.9426 11.8702C11.7122 11.9662 11.5107 12.0526 11.3379 12.1294C11.1076 12.2445 10.9156 12.2925 10.7621 12.2733C10.6085 12.2541 10.4741 12.2157 10.3589 12.1581C10.263 12.0814 10.1862 12.0046 10.1286 11.9278C10.071 11.851 10.0422 11.7934 10.0422 11.755C10.023 11.6591 10.0326 11.5343 10.071 11.3807C10.1094 11.2272 10.1478 11.1024 10.1862 11.0064C10.3589 10.7953 10.6277 10.5745 10.9924 10.3442C11.3763 10.1138 11.8082 9.92185 12.2881 9.76828C12.7872 9.59552 13.3055 9.47075 13.843 9.39397C14.3996 9.31718 14.9563 9.31718 15.513 9.39397C15.8777 9.48995 16.1752 9.63391 16.4056 9.82587C16.6551 10.0178 16.8375 10.229 16.9527 10.4593Z" fill="white"/>
<path d="M16.9527 10.4593L17.1145 10.4092L17.1104 10.396L17.1042 10.3836L16.9527 10.4593ZM16.9239 12.734L17.0812 12.7969L17.0823 12.794L16.9239 12.734ZM16.3192 14.0009L16.4681 14.0816L16.3192 14.0009ZM15.4842 15.4118L15.6251 15.5058L15.6268 15.5031L15.4842 15.4118ZM14.534 16.7651L14.6681 16.8687L14.6702 16.8658L14.534 16.7651ZM13.6414 17.9169L13.5077 17.8129L13.2615 18.1295L13.6601 18.0852L13.6414 17.9169ZM14.9083 17.7729L14.9278 17.9412L14.9331 17.9404L14.9083 17.7729ZM16.492 17.5425L16.4688 17.3748L16.468 17.3749L16.492 17.5425ZM18.1044 17.341L18.1231 17.5094L18.1284 17.5086L18.1044 17.341ZM19.5441 17.1682L19.5288 16.9996L19.5441 17.1682ZM20.2639 17.2258L20.2284 17.3914L20.2307 17.3919L20.2639 17.2258ZM20.8398 17.3698L20.9158 17.2178L20.9027 17.2125L20.8398 17.3698ZM20.955 17.6865L20.7907 17.6454L20.7885 17.6539L20.7873 17.6626L20.955 17.6865ZM20.4367 18.5503L20.5564 18.6701L20.4367 18.5503ZM20.1488 18.7231V18.5537H20.1356L20.1226 18.5557L20.1488 18.7231ZM18.1044 19.0398L18.0787 18.8724L18.078 18.8725L18.1044 19.0398ZM15.8873 19.3853L15.8616 19.2179L15.8873 19.3853ZM13.6702 19.7308L13.6929 19.8987L13.6966 19.8981L13.6702 19.7308ZM11.741 19.9612L11.7242 19.7925L11.7171 19.7935L11.741 19.9612ZM11.05 19.6445L10.9106 19.741L10.9158 19.7477L11.05 19.6445ZM10.7333 18.867H10.5639V18.8791L10.5656 18.891L10.7333 18.867ZM10.7621 18.6655L10.9281 18.6987L10.7621 18.6655ZM11.1076 18.2048L11.2275 18.3247L11.2339 18.3176L11.1076 18.2048ZM13.4687 15.2391L13.3312 15.1402L13.3308 15.1406L13.4687 15.2391ZM15.3114 11.9854L15.4682 12.0498L15.47 12.0449L15.3114 11.9854ZM15.369 11.5535L15.2009 11.5745L15.2014 11.5774L15.369 11.5535ZM15.2538 11.2655L15.148 11.3978L15.1538 11.4024L15.1599 11.4065L15.2538 11.2655ZM14.8795 11.1504L14.8556 11.318L14.8675 11.3197H14.8795V11.1504ZM14.39 11.1504L14.4021 11.3194L14.4069 11.3189L14.39 11.1504ZM13.555 11.2943L13.5114 11.1307L13.555 11.2943ZM12.6912 11.5535L12.6377 11.3928L12.6343 11.394L12.6912 11.5535ZM11.9426 11.8702L12.0079 12.0269L12.0183 12.0217L11.9426 11.8702ZM11.3379 12.1294L11.2691 11.9744L11.2622 11.9779L11.3379 12.1294ZM10.7621 12.2733L10.7411 12.4414H10.7411L10.7621 12.2733ZM10.3589 12.1581L10.2531 12.2904L10.2672 12.3016L10.2832 12.3096L10.3589 12.1581ZM10.1286 11.9278L10.2641 11.8262H10.2641L10.1286 11.9278ZM10.0422 11.755H10.2116V11.7383L10.2083 11.7218L10.0422 11.755ZM10.071 11.3807L9.90671 11.3396L10.071 11.3807ZM10.1862 11.0064L10.0551 10.8992L10.0386 10.9193L10.0289 10.9435L10.1862 11.0064ZM10.9924 10.3442L10.9052 10.1989L10.902 10.201L10.9924 10.3442ZM12.2881 9.76828L12.3397 9.92963L12.3435 9.92833L12.2881 9.76828ZM13.843 9.39397L13.8198 9.22619L13.819 9.22631L13.843 9.39397ZM15.513 9.39397L15.5561 9.23018L15.5462 9.22758L15.5361 9.22619L15.513 9.39397ZM16.4056 9.82587L16.2971 9.95608L16.3023 9.96011L16.4056 9.82587ZM16.7909 10.5094C17.0306 11.2838 17.0194 12.0031 16.7655 12.6741L17.0823 12.794C17.3659 12.0445 17.3738 11.2473 17.1145 10.4092L16.7909 10.5094ZM16.7666 12.6711C16.616 13.0476 16.4175 13.4639 16.1703 13.9203L16.4681 14.0816C16.72 13.6166 16.9246 13.1883 17.0811 12.7969L16.7666 12.6711ZM16.1703 13.9203C15.9229 14.377 15.6467 14.8438 15.3415 15.3205L15.6268 15.5031C15.936 15.02 16.2165 14.5462 16.4681 14.0816L16.1703 13.9203ZM15.3433 15.3179C15.0377 15.7763 14.7225 16.2252 14.3978 16.6644L14.6702 16.8658C14.9982 16.4221 15.3165 15.9687 15.6251 15.5058L15.3433 15.3179ZM14.4 16.6616C14.0738 17.0837 13.7763 17.4675 13.5077 17.8129L13.7751 18.0208C14.044 17.6751 14.3416 17.2911 14.668 16.8687L14.4 16.6616ZM13.6601 18.0852C14.006 18.0468 14.4285 17.9987 14.9277 17.9411L14.8889 17.6046C14.39 17.6622 13.9679 17.7102 13.6227 17.7485L13.6601 18.0852ZM14.9331 17.9404C15.4511 17.8637 15.9787 17.7869 16.5159 17.7102L16.468 17.3749C15.9303 17.4517 15.4021 17.5285 14.8835 17.6053L14.9331 17.9404ZM16.5151 17.7103C17.0704 17.6337 17.6064 17.5667 18.1231 17.5093L18.0857 17.1727C17.5658 17.2304 17.0269 17.2978 16.4688 17.3748L16.5151 17.7103ZM18.1284 17.5086C18.6637 17.4322 19.1407 17.375 19.5594 17.3369L19.5288 16.9996C19.1029 17.0383 18.6201 17.0962 18.0805 17.1733L18.1284 17.5086ZM19.5594 17.3369C19.7494 17.3196 19.9717 17.3364 20.2284 17.3914L20.2994 17.0602C20.0186 17 19.7611 16.9784 19.5288 16.9996L19.5594 17.3369ZM20.2307 17.3919C20.5206 17.4499 20.6976 17.4953 20.7769 17.527L20.9027 17.2125C20.7901 17.1675 20.5831 17.1169 20.2971 17.0597L20.2307 17.3919ZM20.7641 17.5213C20.789 17.5337 20.7936 17.544 20.7958 17.55C20.7996 17.5605 20.8049 17.5885 20.7907 17.6454L21.1193 17.7276C21.1434 17.6309 21.1487 17.5293 21.1141 17.4343C21.078 17.3348 21.0058 17.2634 20.9155 17.2183L20.7641 17.5213ZM20.7873 17.6626C20.7724 17.7671 20.726 17.8888 20.6386 18.0286L20.9258 18.2082C21.0304 18.0409 21.0992 17.8746 21.1226 17.7105L20.7873 17.6626ZM20.6386 18.0286C20.5497 18.1708 20.4427 18.3048 20.3169 18.4306L20.5564 18.6701C20.6994 18.5271 20.8227 18.3731 20.9258 18.2082L20.6386 18.0286ZM20.3169 18.4306C20.2651 18.4824 20.2233 18.5154 20.1912 18.5347C20.1582 18.5544 20.1455 18.5537 20.1488 18.5537V18.8924C20.2288 18.8924 20.3025 18.8629 20.3655 18.8251C20.4294 18.7868 20.4931 18.7334 20.5564 18.6701L20.3169 18.4306ZM20.1226 18.5557C19.5085 18.6517 18.8272 18.7572 18.0787 18.8724L18.1302 19.2072C18.8789 19.092 19.5605 18.9864 20.1749 18.8904L20.1226 18.5557ZM18.078 18.8725C17.3488 18.9876 16.61 19.1028 15.8616 19.2179L15.9131 19.5527C16.6619 19.4375 17.4012 19.3223 18.1308 19.2071L18.078 18.8725ZM15.8616 19.2179C15.1127 19.3331 14.3735 19.4483 13.6438 19.5636L13.6966 19.8981C14.4258 19.783 15.1646 19.6679 15.9131 19.5527L15.8616 19.2179ZM13.6475 19.563C12.9388 19.6588 12.2977 19.7353 11.7242 19.7927L11.7579 20.1297C12.3361 20.0719 12.9811 19.9949 13.6929 19.8987L13.6475 19.563ZM11.7171 19.7935C11.5196 19.8217 11.3461 19.7516 11.1842 19.5412L10.9158 19.7477C11.1378 20.0364 11.425 20.1774 11.765 20.1289L11.7171 19.7935ZM11.1892 19.5481C11.0297 19.3176 10.9352 19.0829 10.9009 18.8431L10.5656 18.891C10.6081 19.1887 10.7248 19.4723 10.9107 19.7409L11.1892 19.5481ZM10.9026 18.867C10.9026 18.8475 10.9088 18.7954 10.9281 18.6987L10.596 18.6323C10.5769 18.7275 10.5639 18.8098 10.5639 18.867H10.9026ZM10.9281 18.6987C10.93 18.6895 10.9441 18.6523 10.9983 18.5799C11.0492 18.5121 11.1247 18.4272 11.2273 18.3245L10.9878 18.085C10.8793 18.1935 10.7916 18.291 10.7273 18.3767C10.6664 18.4579 10.6133 18.5455 10.596 18.6323L10.9281 18.6987ZM11.2339 18.3176C12.0445 17.4105 12.8354 16.417 13.6065 15.3375L13.3308 15.1406C12.5663 16.211 11.7831 17.1947 10.9813 18.0919L11.2339 18.3176ZM13.6061 15.3379C14.3997 14.2347 15.0209 13.1387 15.4681 12.0497L15.1548 11.921C14.719 12.982 14.1117 14.0551 13.3312 15.1402L13.6061 15.3379ZM15.47 12.0449C15.5355 11.8702 15.5607 11.6973 15.5367 11.5295L15.2014 11.5774C15.2158 11.6784 15.2025 11.7934 15.1529 11.9259L15.47 12.0449ZM15.5371 11.5325C15.5265 11.4477 15.5096 11.3697 15.4831 11.3034C15.4571 11.2384 15.416 11.1701 15.3478 11.1246L15.1599 11.4065C15.1493 11.3994 15.1562 11.3982 15.1686 11.4292C15.1804 11.4589 15.1924 11.5057 15.201 11.5745L15.5371 11.5325ZM15.3597 11.1333C15.2268 11.027 15.0617 10.981 14.8795 10.981V11.3197C15.0045 11.3197 15.089 11.3505 15.148 11.3978L15.3597 11.1333ZM14.9035 10.9827C14.7513 10.961 14.5735 10.9618 14.3732 10.9818L14.4069 11.3189C14.5905 11.3005 14.7391 11.3014 14.8556 11.318L14.9035 10.9827ZM14.378 10.9814C14.0975 11.0015 13.8086 11.0514 13.5114 11.1307L13.5987 11.458C13.8773 11.3837 14.1451 11.3377 14.4021 11.3193L14.378 10.9814ZM13.5114 11.1307C13.2201 11.2084 12.9288 11.2958 12.6377 11.3928L12.7448 11.7142C13.0295 11.6192 13.3141 11.5339 13.5987 11.458L13.5114 11.1307ZM12.6343 11.394C12.3598 11.492 12.1039 11.6002 11.8669 11.7187L12.0183 12.0217C12.242 11.9099 12.4852 11.8069 12.7482 11.713L12.6343 11.394ZM11.8775 11.7139C11.6462 11.8102 11.4434 11.8971 11.2691 11.9746L11.4067 12.2841C11.578 12.208 11.7782 12.1222 12.0077 12.0265L11.8775 11.7139ZM11.2622 11.9779C11.0439 12.087 10.888 12.1184 10.7831 12.1053L10.7411 12.4414C10.9432 12.4666 11.1713 12.402 11.4137 12.2808L11.2622 11.9779ZM10.7831 12.1053C10.6448 12.088 10.5296 12.0541 10.4347 12.0067L10.2832 12.3096C10.4186 12.3773 10.5722 12.4203 10.7411 12.4414L10.7831 12.1053ZM10.4648 12.0259C10.377 11.9557 10.3111 11.8889 10.2641 11.8262L9.99311 12.0294C10.0613 12.1203 10.149 12.2071 10.2531 12.2904L10.4648 12.0259ZM10.2641 11.8262C10.2387 11.7924 10.2235 11.7677 10.2153 11.7513C10.2113 11.7433 10.21 11.7393 10.2098 11.7388C10.2096 11.738 10.2116 11.744 10.2116 11.755H9.87286C9.87286 11.8126 9.89314 11.8644 9.91233 11.9028C9.9329 11.9439 9.96088 11.9864 9.99311 12.0294L10.2641 11.8262ZM10.2083 11.7218C10.1961 11.661 10.1997 11.5643 10.2353 11.4218L9.90671 11.3396C9.86556 11.5042 9.84991 11.6571 9.87615 11.7883L10.2083 11.7218ZM10.2353 11.4218C10.2727 11.2722 10.309 11.1555 10.3434 11.0693L10.0289 10.9435C9.98663 11.0493 9.94609 11.1821 9.90671 11.3396L10.2353 11.4218ZM10.3173 11.1137C10.4738 10.9223 10.7257 10.7129 11.0828 10.4873L10.902 10.201C10.5297 10.4361 10.2441 10.6682 10.0551 10.8992L10.3173 11.1137ZM11.0795 10.4894C11.451 10.2665 11.8707 10.0797 12.3397 9.92959L12.2365 9.60698C11.7457 9.76403 11.3017 9.96109 10.9053 10.1989L11.0795 10.4894ZM12.3435 9.92833C12.8321 9.7592 13.3398 9.63692 13.8669 9.56163L13.819 9.22631C13.2711 9.30457 12.7423 9.43184 12.2327 9.60824L12.3435 9.92833ZM13.8661 9.56174C14.4074 9.48708 14.9485 9.48708 15.4899 9.56174L15.5361 9.22619C14.9641 9.14729 14.3919 9.14729 13.8198 9.22619L13.8661 9.56174ZM15.4699 9.55775C15.8166 9.649 16.0901 9.78344 16.2972 9.95598L16.514 9.69576C16.2604 9.48439 15.9388 9.33089 15.5561 9.23018L15.4699 9.55775ZM16.3023 9.96011C16.536 10.1399 16.6997 10.3321 16.8012 10.5351L17.1042 10.3836C16.9753 10.1258 16.7743 9.89578 16.5089 9.69163L16.3023 9.96011Z" fill="white"/>
<path d="M21.4755 4.6754C31.8362 8.12078 29.368 27.8619 15.142 28.6363C-5.45636 29.7576 -2.68498 -2.98972 19.5982 1.64871" stroke="#FFD954" stroke-width="2.02374" stroke-linecap="round" stroke-linejoin="round"/>
</g>
<defs>
<clipPath id="clip0_1154_2336">
<rect width="30" height="30" fill="white"/>
</clipPath>
</defs>
</svg>
