<svg xmlns="http://www.w3.org/2000/svg" viewBox="0 0 66 24"> <defs> </defs> <path d="M-.013 12.63L11.17 24H0l-.013-11.37zM47.463 0L64.94 17.777c1.396 1.42 1.396 3.738 0 5.16a3.555 3.555 0 0 1-5.072 0L37.322 0h10.14zM35.485 0H25.342l22.55 22.938a3.553 3.553 0 0 0 5.07 0c1.396-1.422 1.396-3.74 0-5.16L35.485 0zM23.507 0H13.365L35.91 22.938a3.557 3.557 0 0 0 5.073 0c1.396-1.422 1.396-3.74 0-5.16L23.507 0zM11.53 0H1.386l13.04 13.268a3.555 3.555 0 0 0 5.072 0c1.395-1.42 1.395-3.74 0-5.16L11.53 0zM-.014 10.76L13.01 24h10.14L0 .547-.013 10.76z"></path> </svg>