<svg width="24" height="25" viewBox="0 0 24 25" fill="none" xmlns="http://www.w3.org/2000/svg">
<g id="settings-icon">
<path id="cog" fill-rule="evenodd" clip-rule="evenodd" d="M19.4134 7.61403C19.1217 7.90569 19.0784 8.35932 19.2716 8.72371C19.5074 9.16812 19.7028 9.6372 19.853 10.1261C19.9742 10.5204 20.3256 10.8106 20.7381 10.8106H21.4007C21.8834 10.8106 22.2747 11.2019 22.2747 11.6845V13.3157C22.2747 13.7984 21.8834 14.1897 21.4007 14.1897H20.7381C20.3256 14.1897 19.9741 14.4799 19.853 14.8742C19.7027 15.363 19.5073 15.8321 19.2716 16.2764C19.0783 16.6408 19.1216 17.0945 19.4133 17.3861L19.8829 17.8557C20.2242 18.197 20.2242 18.7504 19.8829 19.0917L18.7294 20.2451C18.3881 20.5864 17.8348 20.5864 17.4935 20.2451L17.0239 19.7755C16.7323 19.4839 16.2786 19.4405 15.9142 19.6338C15.4697 19.8697 15.0004 20.0652 14.5114 20.2155C14.1171 20.3366 13.8269 20.6881 13.8269 21.1006V21.7635C13.8269 22.2462 13.4356 22.6375 12.9529 22.6375H11.3217C10.8391 22.6375 10.4478 22.2462 10.4478 21.7635V21.1004C10.4478 20.6879 10.1576 20.3365 9.76331 20.2153C9.27459 20.0651 8.80565 19.8697 8.36134 19.634C7.99696 19.4408 7.54334 19.4841 7.25168 19.7758L6.7826 20.2449C6.4413 20.5862 5.88794 20.5862 5.54664 20.2449L4.39321 19.0914C4.05191 18.7501 4.05191 18.1968 4.39322 17.8555L4.86215 17.3865C5.15383 17.0948 5.19717 16.6412 5.00385 16.2768C4.76804 15.8323 4.57255 15.3631 4.42227 14.8742C4.30109 14.4799 3.94967 14.1897 3.53717 14.1897H2.87396C2.39128 14.1897 2 13.7984 2 13.3157V11.6845C2 11.2019 2.39129 10.8106 2.87396 10.8106H3.53709C3.9496 10.8106 4.30103 10.5204 4.42221 10.1261C4.57248 9.63708 4.76796 9.1679 5.00377 8.72339C5.19707 8.35901 5.15373 7.90537 4.86207 7.61371L4.39307 7.1447C4.05177 6.8034 4.05177 6.25004 4.39307 5.90874L5.54651 4.7553C5.88781 4.414 6.44117 4.414 6.78247 4.75529L7.25151 5.22432C7.54317 5.51598 7.99681 5.55932 8.36119 5.36604C8.80553 5.13034 9.27453 4.93494 9.7633 4.78471C10.1576 4.66352 10.4478 4.3121 10.4478 3.89961V3.23675C10.4478 2.75408 10.8391 2.36279 11.3217 2.36279H12.9529C13.4356 2.36279 13.8269 2.75408 13.8269 3.23675V3.8994C13.8269 4.31192 14.1171 4.66335 14.5114 4.78453C15.0005 4.93484 15.4698 5.13037 15.9144 5.36625C16.2788 5.55957 16.7324 5.51623 17.0241 5.22456L17.4936 4.75505C17.8349 4.41374 18.3883 4.41374 18.7296 4.75505L19.883 5.90847C20.2243 6.24978 20.2243 6.80314 19.883 7.14444L19.4134 7.61403ZM12.1376 15.1864C13.6213 15.1864 14.824 13.9836 14.824 12.5C14.824 11.0163 13.6213 9.81359 12.1376 9.81359C10.6539 9.81359 9.45121 11.0163 9.45121 12.5C9.45121 13.9836 10.6539 15.1864 12.1376 15.1864Z" fill="url(#paint0_linear_1358_4531)"/>
</g>
<defs>
<linearGradient id="paint0_linear_1358_4531" x1="-2.28511" y1="-0.615575" x2="24.5748" y2="22.6373" gradientUnits="userSpaceOnUse">
<stop stop-color="#FF6C40"/>
<stop offset="1" stop-color="#FFB800"/>
</linearGradient>
</defs>
</svg>
