<svg width="25" height="26" viewBox="0 0 25 26" fill="none" xmlns="http://www.w3.org/2000/svg">
<g id="youtube-gradient">
<path id="box" d="M22.981 8.18408C22.8564 7.72031 22.6123 7.29737 22.2729 6.95761C21.9336 6.61784 21.511 6.37316 21.0474 6.24805C19.3408 5.78906 12.5 5.78906 12.5 5.78906C12.5 5.78906 5.65918 5.78906 3.95264 6.24561C3.48882 6.37031 3.06598 6.61486 2.72658 6.95469C2.38718 7.29452 2.14316 7.71767 2.01904 8.18164C1.5625 9.89062 1.5625 13.4551 1.5625 13.4551C1.5625 13.4551 1.5625 17.0195 2.01904 18.7261C2.27051 19.6685 3.0127 20.4106 3.95264 20.6621C5.65918 21.1211 12.5 21.1211 12.5 21.1211C12.5 21.1211 19.3408 21.1211 21.0474 20.6621C21.9897 20.4106 22.7295 19.6685 22.981 18.7261C23.4375 17.0195 23.4375 13.4551 23.4375 13.4551C23.4375 13.4551 23.4375 9.89063 22.981 8.18408Z" fill="url(#paint0_linear_1562_4013)"/>
<path id="play-icon" d="M10.3271 10.1836V16.7266L15.9912 13.4307L10.3271 10.1836Z" fill="#F3F6FC"/>
</g>
<defs>
<linearGradient id="paint0_linear_1562_4013" x1="2.25976" y1="6.03516" x2="22" y2="26.4551" gradientUnits="userSpaceOnUse">
<stop stop-color="#FF6C40"/>
<stop offset="1" stop-color="#FFB800"/>
</linearGradient>
</defs>
</svg>
