<?xml version="1.0" encoding="utf-8"?>
<!-- Generator: Adobe Illustrator 22.1.0, SVG Export Plug-In . SVG Version: 6.00 Build 0)  -->
<svg version="1.1" id="Layer_1" xmlns="http://www.w3.org/2000/svg" xmlns:xlink="http://www.w3.org/1999/xlink" x="0px" y="0px"
	 viewBox="0 0 29 20" style="enable-background:new 0 0 29 20;" xml:space="preserve">
<style type="text/css">
	.st0{fill:#F02940;}
	.st1{fill:#FFFFFF;}
</style>
<path class="st0" d="M27.611,16.489c-0.354,1.267-1.188,2.094-2.506,2.408c-0.549,0.131-1.121,0.192-1.686,0.236
	c-1.071,0.083-2.145,0.148-3.219,0.187c-1.338,0.049-2.677,0.063-4.015,0.093c-0.126,0.003-0.252,0.011-0.378,0.017
	c-0.809,0-1.617,0-2.426,0c-0.038-0.004-0.076-0.011-0.114-0.012c-1.036-0.02-2.073-0.024-3.109-0.063
	c-1.316-0.049-2.631-0.12-3.946-0.195c-0.68-0.038-1.36-0.101-2.025-0.247c-1.372-0.302-2.265-1.112-2.636-2.432
	c-0.246-0.874-0.331-1.775-0.395-2.675c-0.064-0.904-0.093-1.81-0.138-2.715C1.015,11.015,1.006,10.938,1,10.86
	c0-0.43,0-0.859,0-1.289C1.005,9.524,1.015,9.477,1.016,9.43C1.04,8.292,1.095,7.156,1.211,6.023
	c0.072-0.705,0.146-1.412,0.345-2.095c0.361-1.242,1.187-2.056,2.477-2.396c0.639-0.168,1.301-0.214,1.959-0.259
	c0.984-0.067,1.97-0.128,2.956-0.162c1.32-0.046,2.641-0.063,3.962-0.094C13.053,1.014,13.196,1.006,13.34,1
	c0.816,0,1.631,0,2.447,0c0.031,0.004,0.062,0.011,0.093,0.011c0.675,0.011,1.35,0.017,2.024,0.033
	c0.776,0.018,1.553,0.034,2.329,0.069c0.912,0.041,1.825,0.085,2.735,0.159c0.671,0.054,1.346,0.118,2.004,0.25
	c1.313,0.264,2.186,1.043,2.594,2.283C28.272,6.586,28.334,12.783,27.611,16.489z"/>
<path class="st1" d="M19.445,10.286c-2.492,1.434-4.961,2.856-7.445,4.286c0-2.864,0-5.705,0-8.572
	C14.483,7.43,16.955,8.852,19.445,10.286z"/>
</svg>
