<svg xmlns="http://www.w3.org/2000/svg" width="116" height="48" viewBox="0 0 116 48"><path d="M86.664 18.246a1.83 1.83 0 0 0 1.84-1.52c.02-.127.023-.258.02-.392a1.972 1.972 0 0 0-.048-.37c-.184-.84-.897-1.95-1.783-1.964-1.043-.016-1.926 1.44-1.926 1.44h.08v.975a1.82 1.82 0 0 0 1.817 1.83zM13.006 19.39c-.362-1.955-1.98-3.646-4.364-3.807-2.584-.176-5.204.138-7.802.315-.29.022-.784.558-.785.862-.06 4.473-.07 8.95-.038 13.424.01 1.193.823 1.996 1.992 2.216.843.156 1.837.12 2.837.18v-6.34c2 .04 2.083.292 2.744 1.613.398.793.702 1.606 1.07 2.414 1.093 2.392 3.115 3.088 5.694 1.853-1.273-2.438-2.558-4.872-3.835-7.317 2.044-1.274 2.915-3.106 2.486-5.414zm-7.024 3.59c-1.396-.01-1.396-.01-1.4-2.04-.007-1.997-.007-1.997 1.435-2.003 1.743-.007 2.484.566 2.496 1.93.01 1.382-.876 2.12-2.53 2.112zM51.427 19.817c-3.353-2.374-8.27-1.182-10.17 2.444-1.47 2.8-1.12 6.452.816 8.553 1.947 2.106 5.905 2.812 8.722 1.552 1.56-.696 2.126-1.84 1.76-3.546-4.593 1.227-6.793.876-7.57-1.417.86 0 1.575.045 2.278-.008 1.345-.103 2.7-.166 4.014-.424 1.19-.233 2.076-.975 2.224-2.288.224-2.002-.4-3.678-2.073-4.865zm-3.163 4.53c-1.07.146-2.162.142-3.336.2.158-2.125 2.082-3.192 3.606-2.18.354.234.664.798.667 1.212.002.266-.572.714-.936.766zM104.447 24.163c-.09-3.255-2.362-5.722-5.618-5.722h-.982v.527c-3-.038-5.326 2.112-5.467 5.408-.078 1.854.205 3.72.216 5.576.012 1.64.834 2.49 2.256 2.524.328.008.758-.025 1.162-.104 0-2.327.023-4.676.03-7.028.008-2.33.88-3.514 2.547-3.51 1.772.007 2.626 1.144 2.64 3.56.01 1.433-.01 2.867-.003 4.303.006 1.367.334 2.176 1.162 2.547.495.224 1.175.29 2.07.223 0-.703.004-1.542.01-2.236.01-1.998.03-4.104-.023-6.067zM38.564 28.92c-.41.053-.82.13-1.235.157-1.8.128-1.875-.32-1.89-2.097-.013-1.39.407-2.778.407-4.167V15.92c-2-.22-3.525.563-4.307 1.834-.354.577-.773 1.255-.785 1.984-.047 2.652-.138 5.304-.125 7.96.015 3.528 1.863 5.267 5.384 4.997 2.09-.162 2.96-1.096 2.738-2.935-.03-.26-.112-.54-.188-.84zM115.55 29.502c-.532.104-.985.215-1.444.275-2.107.266-3.084-.485-3.133-2.63-.01-.423-.125-.845-.125-1.265v-1.265c0-2.397.108-2.397 2.457-2.477 1.98-.064 2.604-.824 2.078-2.86-1.137 0-2.283-.02-3.453.01-.646.014-.914-.233-.888-.886.032-.664.017-1.328.017-1.974a2.95 2.95 0 0 0-.325-.015c-1.604.006-2.73 1.185-2.774 2.97a213.497 213.497 0 0 0-.03 8.468c.003.21.013.414.028.61.24 2.74 1.84 4.183 4.607 4.216.2 0 .4-.004.61-.016 1.998-.11 2.714-1.036 2.376-3.162zM91.296 30.172c-.315-.068-.838-.127-1.08-.184-.172-.04-.442-.08-.582-.12-.185-.056-.405-.112-.54-.177-.753-.356-.79-.952-.795-2.745-.004-1.688.01-3.38-.047-5.065-.022-.694-.217-1.238-.538-1.615-.537-.63-1.455-.797-2.628-.425 0 2.98-.084 5.982.02 8.98.005.116.003.232.01.35 0 .067.01.128.014.192.025.345.078.664.164.953a2.965 2.965 0 0 0 .117.33c.514 1.275 1.667 1.943 3.277 2.008.756.03 1.295-.072 1.647-.336.335-.248.995-.64 1.022-1.21.002-.083.492-.17.492-.26v-.024c0-.2-.518-.417-.552-.65z"/><path d="M37.348 18.9c-.71.053-.952.403-.925 1.094.033.827.01 1.657.01 2.75.664-.14 1.17-.167 1.606-.354 1.015-.444 1.518-1.576 1.213-2.747-.297-1.144-1.01-.805-1.905-.742zM24.58 19.123c-2.06-.7-4.157-.66-6.187.143-1.87.734-2.46 2.003-1.967 4.075 1.708-1.298 3.645-1.43 5.655-1.16 1.003.137 1.522.654 1.312 1.76-1.555.224-3.03.32-4.45.664-2.09.504-3.11 1.79-3.204 3.703-.095 1.96.864 3.34 2.898 4.098 1.88.7 3.807.613 5.732.248 1.86-.356 3.104-1.463 3.295-3.346.203-2 .278-4.037.142-6.04-.138-1.997-1.274-3.48-3.224-4.144zm-2.744 10.542c-.852-.01-1.64-.177-1.737-1.23-.087-.933.678-1.42 2.713-1.475.117.14.673.48.723.892.146 1.175-.533 1.822-1.7 1.813zM63.63 15.763c-2.162-.123-4.354.21-6.53.354-.714.048-.974.438-.97 1.177.024 4.218-.313 8.438-.29 12.656.01 2.142 2.007 2.922 3.008 2.4v-6.046c2 0 3.46.228 4.854-.05 2.608-.52 4.253-2.91 4.1-5.845-.128-2.525-1.628-4.5-4.172-4.647zm-.882 7.84c-.88.155-1.826.04-2.73-.072-.226-.025-.522-.482-.568-.777-.092-.574-.026-1.17-.026-1.758-.02-2.75.097-2.855 2.9-2.62 1.435.12 2.08.763 2.24 2.226.166 1.58-.466 2.765-1.816 3.004zM77.482 19.243c-4.533-1.24-8.266 1.835-8.29 6.835-.02 3.78 2.272 6.472 5.756 6.76 3.544.292 6.304-1.957 6.894-5.615.615-3.8-1.196-7.112-4.36-7.98zm-1.368 10.65c-1.605.2-2.835-.55-3.298-2.098-.2-.678-.252-1.4-.373-2.104.086-2.633 1.396-4.066 3.518-3.772 1.756.242 2.687 1.74 2.656 4.268-.03 2.148-.95 3.513-2.502 3.707z"/></svg>