<svg xmlns="http://www.w3.org/2000/svg" width="28" height="28" viewBox="0 0 28 28" overflow="visible"><path fill="currentColor" d="M14 0C6.268 0 0 6.268 0 14s6.268 14 14 14 14-6.268 14-14S21.732 0 14 0zm0 27C6.82 27 1 21.18 1 14S6.82 1 14 1s13 5.82 13 13-5.82 13-13 13z"/><path fill="currentColor" d="M18.56 13.253l-6.235-4.157s-.626-.35-1.09.06c-.26.24-.235.802-.235.802v7.875s-.036.666.375.948c.547.376.984.072.984.072l6.19-4.13s.48-.3.496-.723-.485-.747-.485-.747zM12 17.89v-7.81l5.856 3.905L12 17.89z"/></svg>