<svg xmlns="http://www.w3.org/2000/svg" width="21" height="21" viewBox="-3 -3 21 21" overflow="visible"><path fill="currentColor" d="M6.172 0H.862s-.3.06-.538.297A1.41 1.41 0 0 0 0 .832V6.14s.076.36.3.56c.225.2.563.3.563.3h5.31s.39-.098.58-.264C6.94 6.57 7 6.14 7 6.14V.832s-.082-.334-.308-.56C6.467.05 6.172 0 6.172 0zM6 6H1V1h5v5z"/><path fill="currentColor" d="M14.708.273C14.482.048 14.203 0 14.203 0H8.895s-.317.06-.555.297C8.103.535 8 .832 8 .832V6.14s.092.36.316.56c.225.2.58.3.58.3h5.308s.375-.098.564-.264c.19-.166.232-.596.232-.596V.832s-.066-.334-.292-.56zM14 6H9V1h5v5z"/><path fill="currentColor" d="M6.172 8H.862s-.3.092-.538.328C.087 8.566 0 8.895 0 8.895v5.31s.076.327.3.527c.225.2.563.268.563.268h5.31s.39-.066.58-.232.247-.565.247-.565V8.895s-.082-.365-.308-.59C6.467 8.08 6.172 8 6.172 8zM6 14H1V9h5v5z"/><path fill="currentColor" d="M14.203 8H8.895s-.317.092-.555.328c-.237.238-.34.567-.34.567v5.31s.092.327.316.527c.225.2.58.268.58.268h5.308s.375-.066.564-.232.232-.565.232-.565V8.895s-.066-.365-.292-.59C14.482 8.08 14.203 8 14.203 8zM14 14H9V9h5v5z"/></svg>