<svg xmlns="http://www.w3.org/2000/svg" width="28" height="28" viewBox="-4 -4 28 28" overflow="visible"><path fill="currentColor" d="M8 0H1S.672.03.36.344 0 1 0 1v7s.03.407.328.672S1 9 1 9h7s.47-.062.72-.28S9 8 9 8V1S8.938.61 8.64.312 8 0 8 0zm0 8H1V1h7v7z"/><path fill="currentColor" d="M19.64.312C19.345.016 19 0 19 0h-7s-.328.03-.64.344S11 1 11 1v7s.03.407.328.672S12 9 12 9h7s.47-.062.72-.28S20 8 20 8V1s-.062-.39-.36-.688zM19 8h-7V1h7v7z"/><path fill="currentColor" d="M8 11H1s-.328.03-.64.344S0 12 0 12v7s.03.406.328.672S1 20 1 20h7s.47-.062.72-.28S9 19 9 19v-7s-.062-.39-.36-.688S8 11 8 11zm0 8H1v-7h7v7z"/><path fill="currentColor" d="M19 11h-7s-.328.03-.64.344S11 12 11 12v7s.03.406.328.672S12 20 12 20h7s.47-.062.72-.28S20 19 20 19v-7s-.062-.39-.36-.688S19 11 19 11zm0 8h-7v-7h7v7z"/></svg>