<svg xmlns="http://www.w3.org/2000/svg" width="21" height="21" viewBox="0 0 21 21" overflow="visible"><path fill="currentColor" d="M10.5 0C4.7 0 0 4.7 0 10.5S4.7 21 10.5 21 21 16.3 21 10.5 16.3 0 10.5 0zm0 20.25A9.75 9.75 0 0 1 .75 10.5 9.75 9.75 0 0 1 10.5.75a9.75 9.75 0 0 1 9.75 9.75 9.75 9.75 0 0 1-9.75 9.75z"/><path fill="currentColor" d="M13.8 9.94L9.126 6.82s-.47-.264-.818.046c-.196.18-.176.6-.176.6v5.907s-.026.5.282.71c.41.282.738.054.738.054l4.644-3.1s.358-.225.37-.54-.363-.56-.363-.56zm-4.92 3.476V7.56l4.393 2.93-4.392 2.926z"/></svg>