<!DOCTYPE svg PUBLIC "-//W3C//DTD SVG 1.1//EN" "http://www.w3.org/Graphics/SVG/1.1/DTD/svg11.dtd" [
	<!ENTITY ns_flows "http://ns.adobe.com/Flows/1.0/">
]><svg xmlns="http://www.w3.org/2000/svg" width="244" height="227" viewBox="-0.143 -1.11 244 227" overflow="visible"><path fill-rule="evenodd" clip-rule="evenodd" fill="#31B2DC" d="M100.832 100.332a.457.457 0 0 1-.455.79L79.734 89.26l-.008-.006c-4.987-3.014-8.694-4.197-12.13-4.04-3.438.16-6.658 1.663-10.652 4.022-.01.008-.02.013-.032.02L10.2 116.222c-5.556 3.314-7.982 6.13-8.034 8.678-.05 2.523 2.25 4.886 6.156 7.29l.02.014 34.73 19.996c.22.126.295.404.17.622a.458.458 0 0 1-.624.17l-34.73-19.998c-.015-.007-.03-.017-.046-.025-4.184-2.575-6.647-5.184-6.588-8.09.06-2.876 2.62-5.947 8.478-9.44l.007-.005 46.716-26.972.023-.015c4.112-2.432 7.45-3.98 11.076-4.147 3.625-.166 7.49 1.055 12.642 4.17l20.632 11.86z"/><path fill-rule="evenodd" clip-rule="evenodd" fill="#ECECEC" d="M100.87 14.27h-.002v6.92c-.014 3.352 2.1 6.708 6.345 9.252 8.46 5.07 22.306 5.07 30.766 0 4.223-2.532 6.34-5.87 6.344-9.207V14.27h-.002c.043-3.376-2.07-6.76-6.344-9.322-8.46-5.07-22.306-5.07-30.767 0-4.273 2.56-6.387 5.945-6.343 9.32z"/><path fill-rule="evenodd" clip-rule="evenodd" fill="#B0B1B2" d="M99.723 14.27v-1.146h.065c.18-1.562.764-3.104 1.752-4.557 1.147-1.685 2.843-3.253 5.086-4.598 4.414-2.65 10.2-3.97 15.97-3.97 5.766 0 11.553 1.322 15.968 3.968 2.243 1.345 3.938 2.913 5.086 4.598.99 1.454 1.573 2.995 1.753 4.558h.065v9.256h-.078c-.2 1.545-.792 3.065-1.78 4.5-1.147 1.665-2.83 3.213-5.046 4.54-4.415 2.647-10.202 3.97-15.97 3.97-5.767 0-11.554-1.323-15.968-3.97-2.23-1.334-3.917-2.892-5.065-4.565-1.23-1.794-1.84-3.723-1.833-5.666h-.004v-6.92zm2.29 0v.225l.01.92h-.01v5.774l-.004.003c-.008 1.474.472 2.963 1.44 4.373.964 1.41 2.414 2.737 4.35 3.896 4.043 2.425 9.41 3.638 14.794 3.638s10.75-1.21 14.796-3.637c1.928-1.154 3.374-2.476 4.34-3.88.966-1.4 1.45-2.88 1.452-4.347h-.005v-5.82h-.012l.012-.967v-.18h.003v-.014c.02-1.485-.454-2.983-1.42-4.4-.966-1.423-2.422-2.762-4.37-3.928-4.045-2.425-9.41-3.638-14.795-3.638s-10.75 1.215-14.795 3.64c-1.948 1.166-3.404 2.504-4.37 3.926-.967 1.417-1.44 2.916-1.42 4.4v.014h.003z"/><path fill-rule="evenodd" clip-rule="evenodd" fill="#ECECEC" d="M107.212 9.735c-2.216 1.33-3.852 2.878-4.906 4.534h-1.44v6.92c-.012 3.35 2.103 6.707 6.346 9.25 8.46 5.07 22.305 5.07 30.766 0 4.224-2.53 6.34-5.87 6.345-9.206V14.27h-1.438c-1.056-1.656-2.69-3.206-4.906-4.535-8.463-5.07-22.308-5.07-30.77 0z"/><path fill-rule="evenodd" clip-rule="evenodd" fill="#B0B1B2" d="M107.33 9.93a17.132 17.132 0 0 0-2.817 2.086c-.82.757-1.49 1.554-2.015 2.376l-.068.106h-1.334v6.692c-.007 1.662.525 3.328 1.598 4.892 1.04 1.515 2.584 2.934 4.636 4.164 4.193 2.513 9.727 3.77 15.265 3.77 5.54 0 11.072-1.257 15.266-3.77 2.044-1.224 3.585-2.636 4.624-4.144 1.07-1.555 1.61-3.212 1.61-4.867V14.5h-1.333l-.067-.106a12.054 12.054 0 0 0-2.015-2.376c-.8-.74-1.738-1.438-2.816-2.085-4.193-2.512-9.727-3.77-15.265-3.77s-11.072 1.257-15.265 3.77zm-3.126 1.75a17.34 17.34 0 0 1 2.89-2.14c4.268-2.558 9.887-3.837 15.5-3.837 5.616 0 11.234 1.28 15.5 3.836a17.392 17.392 0 0 1 2.894 2.14c.812.75 1.485 1.54 2.02 2.36h1.546v7.423h-.006c-.05 1.67-.612 3.334-1.688 4.895-1.075 1.56-2.663 3.017-4.765 4.275-4.267 2.557-9.885 3.836-15.5 3.836-5.614 0-11.233-1.28-15.5-3.836-2.11-1.265-3.703-2.73-4.78-4.3-1.124-1.64-1.683-3.393-1.676-5.15V14.04h1.542a12.64 12.64 0 0 1 2.02-2.36z"/><path fill-rule="evenodd" clip-rule="evenodd" fill="#FFF" d="M107.212 4.948c-8.46 5.07-8.46 13.37 0 18.44 8.46 5.07 22.305 5.07 30.766 0 8.46-5.07 8.46-13.37 0-18.44-8.46-5.07-22.305-5.07-30.766 0z"/><path fill-rule="evenodd" clip-rule="evenodd" fill="#B0B1B2" d="M107.33 5.144c-2.292 1.374-3.952 2.983-4.98 4.7-.835 1.394-1.254 2.86-1.254 4.323 0 1.465.418 2.93 1.254 4.324 1.028 1.717 2.688 3.328 4.98 4.7 4.193 2.515 9.727 3.77 15.265 3.77 5.54 0 11.072-1.255 15.266-3.77 2.294-1.372 3.954-2.982 4.98-4.7.837-1.393 1.254-2.857 1.254-4.322 0-1.464-.417-2.93-1.253-4.324-1.026-1.716-2.687-3.326-4.98-4.7-4.192-2.512-9.726-3.77-15.264-3.77s-11.072 1.258-15.265 3.77zm-5.372 4.465c1.066-1.78 2.78-3.445 5.138-4.86 4.267-2.557 9.886-3.835 15.5-3.835 5.615 0 11.233 1.278 15.5 3.836 2.36 1.415 4.07 3.08 5.138 4.858.88 1.467 1.32 3.012 1.32 4.557 0 1.546-.44 3.09-1.32 4.56-1.066 1.777-2.778 3.442-5.138 4.856-4.267 2.558-9.885 3.837-15.5 3.837-5.614 0-11.233-1.28-15.5-3.837-2.358-1.414-4.07-3.08-5.138-4.857-.88-1.468-1.32-3.013-1.32-4.56 0-1.544.44-3.09 1.32-4.557zM144.577 27.052a1.37 1.37 0 1 1-1.363 2.372l-3.833-2.206a1.37 1.37 0 0 1 1.364-2.372l3.834 2.206z"/><path fill-rule="evenodd" clip-rule="evenodd" fill="#31B2DC" d="M143.668 28.54a.457.457 0 1 1 .465-.786l36.68 21.774c3.07 1.822 5.903 4.067 7.374 6.544.623 1.05 1.004 2.144 1.06 3.27.057 1.132-.216 2.285-.902 3.44-.892 1.502-2.483 3.007-4.967 4.482l-73.53 43.655c-.007.003-.016.01-.024.012-5.2 2.963-8.968 4.108-12.23 4.047-3.29-.063-6.02-1.34-9.157-3.214l-9.257-5.38a.457.457 0 0 1 .458-.792l9.257 5.38v.003l.006.003c3.016 1.803 5.627 3.03 8.71 3.087 3.1.06 6.72-1.054 11.765-3.93l.01-.006 73.53-43.653c2.343-1.392 3.83-2.787 4.646-4.16.59-.995.825-1.977.778-2.934-.048-.965-.385-1.92-.935-2.847-1.382-2.327-4.098-4.468-7.052-6.222L143.67 28.54z"/><path fill-rule="evenodd" clip-rule="evenodd" fill="#ECECEC" d="M198.437 51.53v6.918c-.016 3.354 2.1 6.71 6.344 9.253 8.463 5.073 22.307 5.073 30.768 0 4.225-2.53 6.34-5.866 6.345-9.204V51.53c.042-3.377-2.07-6.76-6.345-9.322-8.46-5.07-22.305-5.07-30.766 0-4.273 2.56-6.386 5.945-6.343 9.32z"/><path fill-rule="evenodd" clip-rule="evenodd" fill="#B0B1B2" d="M197.29 51.53v-1.146h.065c.18-1.563.764-3.104 1.753-4.558 1.146-1.685 2.843-3.253 5.086-4.598 4.415-2.646 10.2-3.97 15.97-3.97s11.553 1.324 15.968 3.97c2.243 1.344 3.94 2.913 5.086 4.598.99 1.454 1.574 2.995 1.753 4.558h.067v9.255h-.078c-.2 1.543-.79 3.064-1.78 4.5-1.147 1.663-2.83 3.21-5.047 4.54-4.415 2.646-10.202 3.97-15.97 3.97-5.767 0-11.553-1.324-15.968-3.97-2.23-1.336-3.918-2.893-5.065-4.567-1.23-1.793-1.843-3.723-1.835-5.666h-.005v-6.92zm2.29 0v.225l.013.92h-.012v5.773l-.003.005c-.006 1.474.474 2.963 1.44 4.373.967 1.41 2.416 2.736 4.35 3.896 4.046 2.425 9.41 3.637 14.797 3.637s10.75-1.214 14.797-3.64c1.928-1.153 3.374-2.475 4.34-3.88.966-1.4 1.45-2.88 1.45-4.346h-.003v-5.82h-.013l.013-.967v-.18h.002v-.012c.02-1.485-.454-2.984-1.42-4.4-.967-1.422-2.423-2.76-4.37-3.928-4.045-2.425-9.41-3.638-14.796-3.638s-10.75 1.21-14.797 3.637c-1.947 1.167-3.402 2.505-4.37 3.927-.965 1.417-1.438 2.917-1.42 4.4v.014h.005z"/><path fill-rule="evenodd" clip-rule="evenodd" fill="#ECECEC" d="M204.78 46.995c-2.217 1.328-3.85 2.878-4.906 4.534h-1.438v6.917c-.014 3.354 2.1 6.71 6.345 9.253 8.463 5.072 22.307 5.072 30.768 0 4.225-2.53 6.34-5.867 6.346-9.205V51.53h-1.44c-1.054-1.656-2.688-3.207-4.905-4.535-8.464-5.07-22.308-5.07-30.77 0z"/><path fill-rule="evenodd" clip-rule="evenodd" fill="#B0B1B2" d="M204.897 47.19a17.124 17.124 0 0 0-2.815 2.085 12.148 12.148 0 0 0-2.016 2.375l-.068.107h-1.334v6.69c-.007 1.663.525 3.33 1.598 4.893 1.04 1.516 2.585 2.935 4.636 4.165 4.193 2.513 9.73 3.77 15.266 3.77 5.538 0 11.073-1.257 15.267-3.77 2.043-1.225 3.585-2.637 4.624-4.144 1.07-1.554 1.608-3.21 1.61-4.865V51.76h-1.334l-.068-.108a12.143 12.143 0 0 0-2.016-2.375c-.8-.74-1.738-1.438-2.815-2.084-4.19-2.512-9.727-3.77-15.265-3.77s-11.073 1.258-15.267 3.77zm-3.126 1.75c.82-.76 1.786-1.478 2.894-2.14 4.268-2.558 9.886-3.836 15.5-3.836 5.615 0 11.233 1.278 15.5 3.835 1.107.662 2.07 1.38 2.893 2.14.812.75 1.485 1.54 2.02 2.36h1.546v7.425h-.007c-.05 1.67-.612 3.334-1.688 4.895-1.075 1.56-2.664 3.017-4.765 4.277-4.267 2.557-9.885 3.836-15.5 3.836-5.614 0-11.232-1.28-15.5-3.836-2.11-1.265-3.703-2.73-4.778-4.3-1.126-1.64-1.685-3.393-1.678-5.15V51.3h1.544c.537-.82 1.21-1.61 2.02-2.36z"/><path fill-rule="evenodd" clip-rule="evenodd" fill="#FFF" d="M204.78 42.208c-8.46 5.07-8.46 13.368 0 18.438 8.46 5.07 22.305 5.07 30.766 0 8.46-5.07 8.46-13.368 0-18.438-8.46-5.07-22.305-5.07-30.766 0z"/><path fill-rule="evenodd" clip-rule="evenodd" fill="#B0B1B2" d="M201.623 67.74a1.37 1.37 0 1 1-1.363-2.372l3.833-2.207a1.37 1.37 0 0 1 1.364 2.375l-3.833 2.206z"/><path fill-rule="evenodd" clip-rule="evenodd" fill="#31B2DC" d="M200.76 66.132a.457.457 0 0 1 .624.17.453.453 0 0 1-.17.62l-68.708 39.553a.456.456 0 1 1-.453-.79L200.76 66.13zM147.648 106.348a.456.456 0 0 1-.455-.79l24.135-13.904c5.333-3.32 8.947-4.68 12.398-4.56 3.453.124 6.665 1.725 11.225 4.334l.034.02 28.166 16.23.01.006c1.268.776 2.34 1.756 2.928 2.882h.002c.323.622.5 1.29.48 1.995-.02.7-.232 1.426-.686 2.165-.805 1.31-2.378 2.68-4.996 4.045l-.018.007-37.85 21.095c-2.107 1.175-3.482 2.52-4.234 3.893-.483.883-.71 1.774-.704 2.638.004.86.237 1.696.67 2.47.61 1.094 1.62 2.06 2.95 2.79a.1.1 0 0 1 .023.013L212.8 169.63c.22.126.294.405.167.624a.454.454 0 0 1-.624.166l-31.077-17.953-.004-.003c-1.48-.812-2.615-1.903-3.31-3.148a5.995 5.995 0 0 1-.783-2.908c-.008-1.018.253-2.06.812-3.082.83-1.514 2.323-2.984 4.59-4.25l37.852-21.095a.25.25 0 0 1 .04-.02c2.46-1.283 3.916-2.534 4.638-3.71.366-.596.538-1.17.554-1.71.015-.54-.124-1.057-.38-1.55-.504-.967-1.457-1.826-2.595-2.523l-28.154-16.223c-.01-.006-.02-.01-.03-.017-4.44-2.542-7.554-4.1-10.804-4.216-3.25-.114-6.714 1.207-11.884 4.423h-.002l-.014.007-24.146 13.908z"/><path fill-rule="evenodd" clip-rule="evenodd" fill="#ECECEC" d="M67.32 106h-.004v11.696c-.035 8.428 5.28 16.863 15.95 23.26 21.27 12.745 56.07 12.745 77.338 0 10.62-6.366 15.937-14.752 15.95-23.144h.002V106h-.006c.11-8.485-5.204-16.992-15.946-23.43-21.268-12.747-56.07-12.747-77.338 0C72.524 89.008 67.21 97.515 67.32 106z"/><path fill-rule="evenodd" clip-rule="evenodd" fill="#B0B1B2" d="M66.17 106v-1.145h.026c.176-4.173 1.59-8.32 4.24-12.215 2.747-4.036 6.83-7.805 12.244-11.05 10.818-6.483 25.047-9.727 39.255-9.727s28.437 3.243 39.255 9.726c5.414 3.244 9.496 7.013 12.243 11.05 2.65 3.895 4.064 8.04 4.24 12.214h.026v14.106h-.04c-.23 4.122-1.67 8.216-4.32 12.062-2.748 3.986-6.8 7.706-12.15 10.914-10.82 6.483-25.048 9.725-39.256 9.725s-28.438-3.24-39.255-9.725c-5.38-3.224-9.443-6.965-12.19-10.973-2.896-4.22-4.334-8.736-4.315-13.265h-.005V106zm2.29 0v.068l.015 1.077h-.014v10.55l-.003.005c-.017 4.062 1.29 8.138 3.92 11.974 2.566 3.744 6.39 7.255 11.475 10.3 10.45 6.265 24.258 9.396 38.084 9.396s27.633-3.13 38.083-9.395c5.06-3.034 8.875-6.527 11.442-10.25 2.628-3.814 3.945-7.868 3.952-11.912h-.004v-10.667h-.016l.016-1.158c.052-4.09-1.235-8.196-3.864-12.06-2.568-3.772-6.41-7.31-11.527-10.378-10.45-6.263-24.258-9.395-38.084-9.395S94.3 77.287 83.85 83.55c-5.117 3.066-8.96 6.605-11.526 10.38-2.628 3.86-3.916 7.97-3.864 12.058V106z"/><path fill-rule="evenodd" clip-rule="evenodd" fill="#F2F2F2" d="M83.267 94.604c-5.572 3.34-9.682 7.236-12.334 11.397h-3.616v11.697c-.035 8.428 5.28 16.863 15.95 23.26 21.268 12.745 56.07 12.745 77.338 0 10.62-6.366 15.936-14.752 15.95-23.144V106h-3.617c-2.65-4.16-6.76-8.058-12.333-11.396-21.268-12.748-56.07-12.748-77.338 0z"/><path fill-rule="evenodd" clip-rule="evenodd" fill="#B0B1B2" d="M83.15 94.408c10.67-6.396 24.73-9.594 38.786-9.594 14.055 0 28.115 3.198 38.786 9.593 2.762 1.655 5.166 3.446 7.213 5.338 2.073 1.916 3.782 3.938 5.128 6.026h3.723v12.27h-.005c-.053 4.247-1.45 8.485-4.19 12.46-2.676 3.88-6.63 7.51-11.867 10.65-10.67 6.395-24.73 9.593-38.786 9.593-14.056 0-28.116-3.197-38.787-9.594-5.262-3.154-9.23-6.803-11.906-10.704-2.79-4.067-4.174-8.41-4.155-12.75h-.003V105.77h3.72c1.346-2.09 3.056-4.11 5.13-6.026 2.045-1.89 4.45-3.682 7.21-5.336zm.233.39c-2.732 1.64-5.11 3.41-7.137 5.283-2.08 1.925-3.788 3.95-5.12 6.044l-.07.106h-3.51v11.466c-.02 4.25 1.34 8.503 4.075 12.493 2.64 3.847 6.56 7.45 11.764 10.567 10.597 6.35 24.572 9.527 38.552 9.527s27.955-3.177 38.552-9.527c5.18-3.103 9.086-6.688 11.726-10.517 2.735-3.968 4.105-8.2 4.113-12.43v-11.58h-3.513l-.068-.106c-1.334-2.092-3.04-4.12-5.12-6.042-2.027-1.872-4.406-3.645-7.138-5.282-10.598-6.35-24.573-9.525-38.552-9.525-13.98 0-27.955 3.175-38.552 9.526z"/><path fill-rule="evenodd" clip-rule="evenodd" fill="#FFF" d="M83.267 82.57c-21.27 12.746-21.27 33.604 0 46.352 21.268 12.746 56.07 12.746 77.338 0 21.27-12.747 21.27-33.605 0-46.352-21.268-12.747-56.07-12.747-77.338 0z"/><path fill-rule="evenodd" clip-rule="evenodd" fill="#B0B1B2" d="M83.15 82.374c10.67-6.395 24.73-9.593 38.786-9.593 14.055 0 28.115 3.2 38.786 9.595 5.88 3.523 10.146 7.667 12.796 12.09 2.18 3.635 3.268 7.458 3.268 11.28 0 3.825-1.09 7.648-3.268 11.282-2.65 4.425-6.917 8.567-12.796 12.09-10.67 6.397-24.73 9.594-38.786 9.594-14.056 0-28.116-3.196-38.787-9.592-5.88-3.523-10.147-7.666-12.798-12.09-2.178-3.635-3.268-7.458-3.268-11.282 0-3.823 1.09-7.646 3.268-11.28 2.652-4.424 6.917-8.568 12.796-12.09zm.233.392C77.57 86.25 73.36 90.338 70.745 94.7c-2.134 3.56-3.2 7.304-3.2 11.046 0 3.743 1.066 7.486 3.2 11.047 2.613 4.36 6.826 8.45 12.638 11.933 10.597 6.352 24.572 9.528 38.552 9.528s27.955-3.177 38.552-9.528c5.812-3.482 10.023-7.572 12.638-11.933 2.134-3.56 3.2-7.304 3.2-11.047 0-3.742-1.066-7.485-3.2-11.047-2.614-4.36-6.826-8.45-12.638-11.935-10.598-6.352-24.573-9.526-38.552-9.526-13.98 0-27.955 3.173-38.552 9.525z"/><path fill-rule="evenodd" clip-rule="evenodd" fill="#ECECEC" d="M187.62 158.15v6.92c-.015 3.353 2.1 6.708 6.345 9.252 8.46 5.07 22.305 5.07 30.766 0 4.226-2.532 6.34-5.868 6.347-9.206v-6.967h-.002c.044-3.378-2.07-6.76-6.343-9.32-8.46-5.07-22.305-5.07-30.765 0-4.274 2.56-6.387 5.942-6.344 9.32z"/><path fill-rule="evenodd" clip-rule="evenodd" fill="#B0B1B2" d="M186.475 158.15v-1.146h.064c.18-1.562.762-3.104 1.75-4.558 1.147-1.685 2.844-3.253 5.088-4.598 4.412-2.646 10.2-3.97 15.967-3.97 5.768 0 11.555 1.323 15.97 3.97 2.243 1.345 3.938 2.913 5.086 4.598.99 1.454 1.573 2.995 1.754 4.558h.065v9.256h-.08c-.196 1.546-.79 3.066-1.78 4.502-1.144 1.664-2.83 3.21-5.044 4.54-4.415 2.646-10.202 3.968-15.97 3.968-5.767 0-11.555-1.322-15.968-3.968-2.23-1.336-3.92-2.893-5.066-4.566-1.23-1.794-1.842-3.724-1.835-5.666h-.005v-6.92zm2.29 0v.225l.012.92h-.012v5.774l-.004.004c-.005 1.474.475 2.962 1.44 4.372.968 1.41 2.417 2.736 4.35 3.896 4.048 2.425 9.413 3.638 14.798 3.638 5.386 0 10.752-1.212 14.797-3.637 1.927-1.154 3.373-2.477 4.34-3.88.965-1.4 1.448-2.88 1.45-4.347h-.003v-5.823h-.012l.013-.96v-.185h.003v-.014c.02-1.483-.453-2.982-1.418-4.4-.968-1.42-2.424-2.76-4.37-3.927-4.046-2.425-9.412-3.638-14.798-3.638-5.385 0-10.75 1.21-14.797 3.636-1.946 1.166-3.403 2.506-4.37 3.927-.965 1.418-1.437 2.917-1.418 4.4v.014h.003z"/><path fill-rule="evenodd" clip-rule="evenodd" fill="#ECECEC" d="M193.965 153.616c-2.217 1.33-3.852 2.878-4.906 4.533h-1.44v6.92c-.014 3.352 2.1 6.707 6.345 9.25 8.46 5.07 22.305 5.07 30.766 0 4.226-2.53 6.34-5.867 6.346-9.205v-6.967h-1.438c-1.056-1.656-2.69-3.205-4.907-4.534-8.462-5.07-22.307-5.07-30.767 0z"/><path fill-rule="evenodd" clip-rule="evenodd" fill="#B0B1B2" d="M194.08 153.812a17.092 17.092 0 0 0-2.815 2.084 12.238 12.238 0 0 0-2.014 2.376l-.066.106h-1.334v6.69h-.002c-.007 1.663.526 3.33 1.598 4.893 1.04 1.518 2.585 2.937 4.636 4.167 4.194 2.512 9.73 3.77 15.267 3.77s11.07-1.258 15.263-3.77c2.043-1.225 3.584-2.637 4.623-4.144 1.072-1.556 1.608-3.213 1.612-4.867h-.002v-6.74h-1.335l-.066-.105a12.165 12.165 0 0 0-2.015-2.374 16.96 16.96 0 0 0-2.817-2.084c-4.192-2.513-9.727-3.77-15.265-3.77s-11.075 1.26-15.27 3.772zm-3.125 1.75c.82-.76 1.785-1.48 2.893-2.142 4.267-2.557 9.885-3.835 15.5-3.835 5.613 0 11.232 1.278 15.5 3.835a17.507 17.507 0 0 1 2.89 2.14c.813.75 1.487 1.543 2.022 2.36h1.545v7.428h-.005c-.05 1.67-.612 3.334-1.688 4.895-1.075 1.56-2.664 3.02-4.764 4.277-4.268 2.556-9.887 3.835-15.5 3.835-5.615 0-11.233-1.28-15.5-3.836-2.11-1.267-3.704-2.733-4.78-4.3-1.124-1.64-1.683-3.396-1.676-5.15v-7.15h1.543c.535-.818 1.21-1.61 2.02-2.36z"/><path fill-rule="evenodd" clip-rule="evenodd" fill="#FFF" d="M193.965 148.83c-8.46 5.07-8.46 13.367 0 18.437s22.305 5.07 30.766 0c8.46-5.07 8.46-13.368 0-18.438-8.46-5.07-22.304-5.07-30.764 0z"/><path fill-rule="evenodd" clip-rule="evenodd" fill="#B0B1B2" d="M194.08 149.025c-2.29 1.373-3.95 2.983-4.978 4.7-.835 1.394-1.253 2.858-1.253 4.322 0 1.466.416 2.93 1.25 4.324 1.03 1.718 2.69 3.328 4.98 4.7 4.194 2.515 9.73 3.77 15.267 3.77s11.072-1.255 15.265-3.77c2.293-1.372 3.952-2.982 4.98-4.7.837-1.393 1.254-2.856 1.254-4.322 0-1.464-.417-2.93-1.253-4.323-1.03-1.716-2.688-3.326-4.98-4.7-4.193-2.513-9.728-3.77-15.266-3.77s-11.073 1.258-15.267 3.77zm-5.37 4.465c1.066-1.78 2.778-3.443 5.138-4.857 4.267-2.557 9.885-3.836 15.5-3.836 5.613 0 11.232 1.28 15.5 3.836 2.358 1.414 4.07 3.078 5.137 4.857.88 1.468 1.32 3.013 1.32 4.558 0 1.546-.44 3.09-1.32 4.56-1.065 1.778-2.778 3.442-5.137 4.856-4.268 2.557-9.887 3.836-15.5 3.836-5.615 0-11.233-1.28-15.5-3.836-2.36-1.414-4.07-3.078-5.138-4.857-.88-1.468-1.32-3.013-1.32-4.56 0-1.544.44-3.09 1.32-4.557zM122.15 107.556c1.442 0 2.617-.677 2.617-1.508 0-.83-1.175-1.508-2.616-1.508s-2.613.678-2.613 1.508 1.174 1.508 2.615 1.508z"/><path fill-rule="evenodd" clip-rule="evenodd" fill="#F5F5F5" d="M137.522 100.46c.93.94 1.607 1.947 2.033 2.982h1.74c1.578 0 2.87.783 2.87 1.74v1.887c0 .955-1.292 1.74-2.87 1.74h-1.74c-.426 1.034-1.104 2.04-2.033 2.98l1.23.746c1.115.678 1.115 1.785 0 2.462l-2.197 1.332c-1.116.678-2.94.678-4.057 0l-1.23-.745a25.615 25.615 0 0 1-4.912 1.233v1.056c0 .958-1.29 1.74-2.868 1.74h-3.107c-1.576 0-2.866-.782-2.866-1.74v-1.056a25.774 25.774 0 0 1-4.913-1.233l-1.23.745c-1.113.678-2.94.678-4.054 0L105.12 115c-1.116-.677-1.116-1.784 0-2.462l1.228-.746c-.93-.94-1.606-1.946-2.032-2.98h-1.742c-1.577 0-2.868-.785-2.868-1.742v-1.887c0-.957 1.29-1.74 2.868-1.74h1.742c.426-1.035 1.103-2.042 2.032-2.982l-1.23-.744c-1.114-.677-1.114-1.784 0-2.462l2.198-1.334c1.115-.677 2.94-.677 4.056 0l1.23.745a25.69 25.69 0 0 1 4.912-1.233v-1.057c0-.956 1.29-1.74 2.868-1.74h3.107c1.575 0 2.866.784 2.866 1.74v1.057c1.707.26 3.364.67 4.912 1.234l1.228-.747c1.115-.678 2.94-.678 4.057 0l2.197 1.332c1.115.678 1.115 1.785 0 2.462l-1.23.745zm-8.826 1.562c-3.734-2.266-9.787-2.266-13.52 0-3.735 2.267-3.735 5.94 0 8.207s9.786 2.265 13.52 0c3.734-2.268 3.734-5.94 0-8.21z"/><path fill-rule="evenodd" clip-rule="evenodd" fill="#B0B1B2" d="M121.922 91.556a.23.23 0 0 1 .458 0v14.553a.23.23 0 0 1-.458-.003v-14.55z"/><path fill-rule="evenodd" clip-rule="evenodd" fill="#00749A" d="M137.522 73.976c.93.94 1.607 1.945 2.033 2.98h.688V75.33h3.922v5.254c0 .957-1.29 1.74-2.87 1.74h-1.74c-.11.27-.236.535-.38.8h.413v4.103c.023.464-.255.934-.835 1.287l-2.197 1.333c-1.116.678-2.94.678-4.057 0l-1.23-.745c-1.55.563-3.207.975-4.914 1.233v1.057c0 .957-1.29 1.74-2.868 1.74h-3.108c-1.578 0-2.868-.783-2.868-1.74v-1.057a25.774 25.774 0 0 1-4.913-1.233l-1.23.745c-1.114.678-2.94.678-4.055 0l-2.197-1.333c-.58-.353-.86-.82-.836-1.284v-4.192h.368a7.936 7.936 0 0 1-.335-.714h-1.742c-1.577 0-2.868-.783-2.868-1.74V75.29h5.535c.317-.45.686-.89 1.107-1.313l-1.23-.746c-.545-.33-.824-.764-.835-1.2V67.84h6.317V69.1c.28.082.54.193.77.334l1.23.746a25.543 25.543 0 0 1 4.913-1.234V67.89c0-.958 1.29-1.74 2.868-1.74h3.108c1.578 0 2.87.782 2.87 1.74v1.057c1.706.26 3.363.67 4.91 1.233l1.23-.746c.46-.28 1.043-.444 1.646-.493v-1.06h5.434v3.974c.067.493-.208 1.002-.826 1.378l-1.232.746zm-8.826 1.56c-3.734-2.266-9.787-2.266-13.52 0s-3.735 5.94 0 8.208c3.733 2.266 9.786 2.266 13.52 0s3.734-5.94 0-8.207z"/><path fill-rule="evenodd" clip-rule="evenodd" fill="#22BAE3" d="M137.522 69.828c.93.94 1.607 1.945 2.033 2.98h1.74c1.578 0 2.87.784 2.87 1.74v1.888c0 .958-1.292 1.74-2.87 1.74h-1.74c-.426 1.037-1.104 2.042-2.033 2.982l1.23.746c1.115.677 1.115 1.785 0 2.462l-2.197 1.333c-1.116.676-2.94.676-4.057 0l-1.23-.747a25.615 25.615 0 0 1-4.912 1.233v1.057c0 .957-1.29 1.74-2.868 1.74h-3.107c-1.576 0-2.866-.783-2.866-1.74v-1.057a25.774 25.774 0 0 1-4.913-1.233l-1.23.745c-1.113.677-2.94.677-4.054 0l-2.197-1.334c-1.116-.677-1.116-1.785 0-2.462l1.23-.746c-.93-.94-1.608-1.945-2.034-2.98h-1.742c-1.577 0-2.868-.784-2.868-1.742V74.55c0-.957 1.29-1.74 2.868-1.74h1.742c.426-1.036 1.103-2.04 2.032-2.98l-1.23-.747c-1.114-.677-1.114-1.785 0-2.462l2.198-1.332c1.115-.677 2.94-.677 4.056 0l1.23.746a25.59 25.59 0 0 1 4.913-1.234v-1.057c0-.958 1.29-1.74 2.868-1.74h3.108c1.578 0 2.87.782 2.87 1.74V64.8c1.706.26 3.363.67 4.91 1.233l1.23-.746c1.115-.677 2.94-.677 4.057 0l2.197 1.334c1.116.68 1.116 1.787 0 2.464l-1.228.745zm-8.826 1.562c-3.734-2.266-9.787-2.266-13.52 0-3.735 2.267-3.735 5.94 0 8.207 3.733 2.267 9.786 2.267 13.52 0 3.734-2.266 3.734-5.94 0-8.207z"/><path fill-rule="evenodd" clip-rule="evenodd" fill="#B0B1B2" d="M121.922 48.696a.23.23 0 0 1 .23-.23.23.23 0 0 1 .228.23v32.652a.23.23 0 0 1-.23.23.23.23 0 0 1-.228-.23V48.696z"/><path fill-rule="evenodd" clip-rule="evenodd" fill="#B0B1B2" d="M116.915 44.89c-.755.453-1.312.98-1.67 1.544h-.49v2.356c-.005 1.14.715 2.283 2.16 3.15 2.88 1.725 7.592 1.725 10.472 0 1.438-.863 2.157-2 2.16-3.135v-2.37h-.49c-.358-.563-.915-1.09-1.67-1.543-2.88-1.725-7.593-1.725-10.472 0z"/><path fill-rule="evenodd" clip-rule="evenodd" fill="#F2F2F2" d="M116.915 43.26c-2.88 1.727-2.88 4.55 0 6.277 2.88 1.726 7.592 1.726 10.472 0s2.88-4.55 0-6.276c-2.88-1.724-7.593-1.724-10.472 0z"/><path fill-rule="evenodd" clip-rule="evenodd" fill="#9F2E80" d="M220.675 150.79c6.252 3.737 6.252 9.8 0 13.54-6.25 3.74-16.386 3.74-22.636 0-6.253-3.74-6.253-9.803 0-13.54 6.25-3.74 16.383-3.74 22.634 0z"/><path fill-rule="evenodd" clip-rule="evenodd" fill="#9F2E80" d="M205.863 151.798l.697-.418 5.763 3.448-.844.505-1.728-1.03-.733 3.424 4.367.066-1.25-.924.59-.397 5.21 3.03-1.21.153-1.357-.77-6.46-.395-2.606 1.56 1.872 1.253-.477.285-5.8-3.383.55-.373 1.87.988 2.533-1.47.55-4.503-1.54-1.052zm4.882 10.693l.88.528-.843.505-.88-.526.843-.505zm6.13-1.34l-1.65-1.205-3.71 2.262.698.33 4.662-1.385z"/><path fill-rule="evenodd" clip-rule="evenodd" fill="#FFF" d="M205.863 151.798l.697-.418 5.763 3.448-.844.505-1.728-1.03-.733 3.424 4.367.066-1.25-.924.59-.397 5.21 3.03-1.21.153-1.357-.77-6.46-.395-2.606 1.56 1.872 1.253-.477.285-5.8-3.383.55-.373 1.87.988 2.533-1.47.55-4.503-1.54-1.052zm4.882 10.693l.88.528-.843.505-.88-.526.843-.505zm6.13-1.34l-1.65-1.205-3.71 2.262.698.33 4.662-1.385z"/><path fill-rule="evenodd" clip-rule="evenodd" fill="#DD122B" d="M211.95 44.796l3.707-1.115 5.214-.67c1.1-.043 1.574-.254 3.155.7l1.773 1.07c1.49.87.59 1.06-.566 1.208l-8.578 1.102c-1.056.134-2.12.816-2.365 1.514l-.26.734-1.854 2.956c-.274.65-.678.954-1.67.353l-.805-.575c-1.203-.727-1.266-.97-.95-1.75l1.75-4.344c.277-.686.433-.876 1.45-1.182z"/><path fill-rule="evenodd" clip-rule="evenodd" fill="#4C7ABC" d="M211.826 44.173l4.21-.54-2.617 7.438-.87 2.47c-.275.65-.68.953-1.67.353l-2.26-1.364c-1.204-.73-1.23-.958-.95-1.75l1.79-5.09c.246-.7 1.31-1.38 2.365-1.516zm2.46 4.43l-.867 2.47.866-2.47z"/><path fill-rule="evenodd" clip-rule="evenodd" fill="#FBBD00" d="M228.1 56.388l-2.176.717-6.372.818c-1.1.045-1.573.257-3.154-.698l-1.773-1.072c-1.49-.868-.59-1.056.566-1.205l8.583-1.103c1.055-.135 2.118-.817 2.364-1.515l.29-.826 1.862-3.196c.273-.65.677-.953 1.67-.353l1.095 1.032c1.204.727 1.245.962.952 1.748l-1.543 4.137c-.26.694-1.355 1.183-2.364 1.516z"/><path fill-rule="evenodd" clip-rule="evenodd" fill="#00953F" d="M228.597 56.762l-4.21.54 2.617-7.438.87-2.468c.273-.65.677-.953 1.67-.353l2.257 1.364c1.206.727 1.23.957.955 1.748l-1.793 5.092c-.245.698-1.31 1.38-2.363 1.515zm-2.46-4.43l.867-2.468-.868 2.468z"/><path fill-rule="evenodd" clip-rule="evenodd" fill="#31B2DC" d="M124.884 5.3c1.5.997 2.067 2.38 1.702 3.67 1.5-.085 3.042.254 4.188 1.017 1.495.994 1.91 2.436 1.24 3.678.858.224 1.664.566 2.356 1.027 2.694 1.792 2.694 4.696 0 6.488-2.692 1.792-7.06 1.792-9.753 0a5.65 5.65 0 0 1-.837-.674c-1.705.25-3.56-.066-4.885-.948-.517-.344-.904-.74-1.163-1.164-2.076.516-4.507.22-6.177-.892-1.78-1.184-2.17-2.942-1.17-4.378a5.59 5.59 0 0 1-.955-.503c-2.067-1.373-2.067-3.602 0-4.976 1.432-.953 3.48-1.245 5.292-.877.3-.536.773-1.038 1.42-1.467 2.416-1.606 6.328-1.606 8.742 0z"/><path fill-rule="evenodd" clip-rule="evenodd" fill="#FFF" d="M115.865 9.732a1.017 1.017 0 0 1-.35.15 1.17 1.17 0 0 1-.38.02 1.488 1.488 0 0 1-.392-.093 1.998 1.998 0 0 1-.375-.196 1.368 1.368 0 0 1-.19-.15c-.056-.05-.1-.098-.137-.144a.75.75 0 0 1-.077-.12.194.194 0 0 1-.026-.082c0-.02.01-.045.034-.072a1.074 1.074 0 0 1 .23-.165.57.57 0 0 1 .075-.03.103.103 0 0 1 .05-.004.1.1 0 0 1 .042.017.14.14 0 0 1 .043.064c.013.032.032.07.058.116a.834.834 0 0 0 .426.38c.048.02.096.03.143.04a.382.382 0 0 0 .255-.054c.043-.03.067-.064.07-.1a.234.234 0 0 0-.025-.127.937.937 0 0 0-.085-.143 2.28 2.28 0 0 1-.105-.158 1.192 1.192 0 0 1-.088-.17.45.45 0 0 1-.036-.176c.002-.06.02-.12.058-.18a.648.648 0 0 1 .192-.18.917.917 0 0 1 .305-.13c.11-.026.23-.036.35-.026.123.01.25.037.376.082a1.713 1.713 0 0 1 .538.315c.05.043.09.086.124.124.033.043.06.077.076.108a.31.31 0 0 1 .03.07c.003.017.003.03-.003.042a.35.35 0 0 1-.074.075 1.424 1.424 0 0 1-.176.117.393.393 0 0 1-.067.032.1.1 0 0 1-.05.005c-.014-.004-.026-.01-.038-.018-.013-.008-.026-.027-.04-.055a1.05 1.05 0 0 0-.152-.227.82.82 0 0 0-.164-.138.655.655 0 0 0-.146-.076.48.48 0 0 0-.132-.03.358.358 0 0 0-.214.048c-.045.03-.068.064-.07.103a.253.253 0 0 0 .028.125c.022.044.052.093.09.145.037.05.073.104.107.158.036.054.066.11.092.17.026.06.038.12.038.178 0 .06-.02.12-.055.18a.58.58 0 0 1-.185.18zm1.426 1.675l1.286-.853c.13-.087.228-.173.292-.257a.36.36 0 0 0 .082-.257.512.512 0 0 0-.13-.265 1.77 1.77 0 0 0-.345-.287 2.526 2.526 0 0 0-.79-.334.702.702 0 0 0-.173-.027.277.277 0 0 0-.11.02.687.687 0 0 0-.198.125.25.25 0 0 0-.05.058.08.08 0 0 0-.013.05.064.064 0 0 0 .03.037.357.357 0 0 0 .12.04c.055.012.123.027.203.047.08.02.164.047.255.082a1.4 1.4 0 0 1 .273.142c.07.046.12.09.153.13a.18.18 0 0 1 .046.12.202.202 0 0 1-.053.114.667.667 0 0 1-.14.116l-.115.077-.187-.125a3.298 3.298 0 0 0-.49-.275 1.722 1.722 0 0 0-.443-.137 1.164 1.164 0 0 0-.4.004 1.002 1.002 0 0 0-.355.148c-.102.068-.175.14-.217.213s-.058.15-.047.226a.48.48 0 0 0 .106.224c.06.074.14.146.242.214.123.082.26.14.407.177.147.037.303.054.466.05l-.152.102c-.02.012-.028.026-.028.042 0 .015.014.034.04.06.023.02.068.054.134.097.06.042.11.07.145.087a.305.305 0 0 0 .094.03.118.118 0 0 0 .063-.02zm.284-.9l-.325.216c-.14.005-.263 0-.366-.018a.67.67 0 0 1-.268-.102c-.09-.06-.14-.123-.145-.188-.004-.064.033-.123.113-.176a.422.422 0 0 1 .152-.067.494.494 0 0 1 .177-.005.84.84 0 0 1 .21.06c.076.034.157.08.244.138l.21.14zm.734 1.567a.096.096 0 0 1-.05.016.187.187 0 0 1-.07-.01.64.64 0 0 1-.1-.045c-.04-.02-.085-.05-.138-.084a1.34 1.34 0 0 1-.127-.09.608.608 0 0 1-.067-.064c-.015-.02-.02-.035-.017-.048 0-.013.01-.024.022-.033l2.81-1.87a.115.115 0 0 1 .053-.017.17.17 0 0 1 .073.01.91.91 0 0 1 .1.043 1.52 1.52 0 0 1 .265.176c.03.026.052.048.064.067.013.02.018.036.015.048a.052.052 0 0 1-.026.036l-2.813 1.87zm3.253.822l.086-.057c.134-.09.24-.185.32-.283.08-.1.125-.2.134-.305a.502.502 0 0 0-.088-.318 1.14 1.14 0 0 0-.344-.323 1.69 1.69 0 0 0-1.013-.285c-.18.006-.36.04-.54.1a2.27 2.27 0 0 0-.525.26 1.7 1.7 0 0 0-.404.353.56.56 0 0 0-.135.346c0 .115.045.23.13.344.087.115.216.228.39.343.094.064.19.12.286.167.096.046.184.085.266.118.083.032.153.056.212.072.06.016.098.024.117.024a.212.212 0 0 0 .106-.025c.02-.006.04-.02.063-.03s.05-.03.08-.053c.037-.023.065-.043.087-.06a.228.228 0 0 0 .042-.045.037.037 0 0 0 .004-.032.074.074 0 0 0-.025-.026.405.405 0 0 0-.105-.043 3.376 3.376 0 0 1-.177-.057 2.39 2.39 0 0 1-.23-.094 1.817 1.817 0 0 1-.272-.154.768.768 0 0 1-.204-.185.293.293 0 0 1-.06-.178.302.302 0 0 1 .077-.174.866.866 0 0 1 .19-.168l1.175.782a.3.3 0 0 0 .17.05.355.355 0 0 0 .187-.068zm-.372-.452c.155-.097.243-.197.263-.298.02-.102-.036-.198-.173-.29a.675.675 0 0 0-.22-.094.745.745 0 0 0-.23-.017.924.924 0 0 0-.232.05c-.078.028-.15.063-.222.106l.815.545zm1.635 1.915a1.07 1.07 0 0 1-.35.147c-.123.028-.25.035-.38.022-.13-.014-.26-.045-.392-.095a1.854 1.854 0 0 1-.564-.342c-.056-.05-.1-.1-.136-.145a.75.75 0 0 1-.08-.12.203.203 0 0 1-.027-.084c0-.02.01-.044.034-.07a.903.903 0 0 1 .304-.198.15.15 0 0 1 .053-.006.105.105 0 0 1 .04.018c.016.01.03.03.043.063a1.096 1.096 0 0 0 .157.263.8.8 0 0 0 .327.234c.05.02.097.032.144.038.046.007.09.005.135-.004a.382.382 0 0 0 .12-.05c.042-.03.065-.062.07-.1a.234.234 0 0 0-.026-.124.88.88 0 0 0-.086-.144 2.706 2.706 0 0 1-.105-.158 1.09 1.09 0 0 1-.087-.17.397.397 0 0 1-.035-.175.374.374 0 0 1 .06-.18.663.663 0 0 1 .19-.18.95.95 0 0 1 .305-.13c.112-.028.23-.038.352-.028.123.01.247.037.375.082a1.697 1.697 0 0 1 .54.315c.047.042.09.084.12.123.034.04.06.075.077.106a.31.31 0 0 1 .03.07c.002.017.002.03-.003.04a.17.17 0 0 1-.026.035.744.744 0 0 1-.127.097c-.04.026-.07.046-.096.06a.393.393 0 0 1-.068.032c-.02.005-.037.007-.05.005s-.028-.01-.04-.017a.157.157 0 0 1-.04-.057.942.942 0 0 0-.15-.227.803.803 0 0 0-.308-.215.566.566 0 0 0-.132-.03c-.042-.003-.08 0-.117.01s-.07.022-.097.04c-.044.03-.068.064-.07.102a.236.236 0 0 0 .03.125c.02.046.05.095.088.146s.074.104.108.158c.035.055.065.112.092.17.025.06.038.12.037.178 0 .06-.017.12-.053.18s-.098.123-.184.18zm4.032 2.104c-.16.107-.33.192-.51.252-.177.06-.356.093-.542.1a1.868 1.868 0 0 1-1.1-.33c-.17-.113-.297-.23-.377-.344s-.117-.23-.11-.347a.603.603 0 0 1 .145-.344 1.7 1.7 0 0 1 .39-.34c.16-.105.332-.19.51-.25.18-.06.36-.093.544-.1.185-.003.368.02.554.07.184.055.365.14.542.258.173.115.3.23.38.345.08.116.118.23.11.345a.604.604 0 0 1-.145.343c-.09.117-.22.23-.39.343zm-.58-.357c.095-.062.174-.125.237-.188a.494.494 0 0 0 .13-.19c.022-.063.02-.125-.007-.187s-.087-.123-.18-.184a.802.802 0 0 0-.256-.114.835.835 0 0 0-.28-.014 1.16 1.16 0 0 0-.29.077c-.1.04-.2.09-.3.16a1.452 1.452 0 0 0-.236.187.552.552 0 0 0-.13.19.23.23 0 0 0 .01.185.467.467 0 0 0 .178.182.81.81 0 0 0 .26.115.83.83 0 0 0 .277.014c.095-.01.19-.037.29-.076a1.76 1.76 0 0 0 .297-.162zm2.93.914a3.48 3.48 0 0 0 .12-.08.367.367 0 0 0 .06-.05c.013-.013.022-.02.027-.03a.044.044 0 0 0 .007-.027c0-.01-.008-.023-.02-.04-.012-.014-.026-.032-.044-.05a.47.47 0 0 0-.057-.053c-.02-.015-.04-.03-.06-.04a.698.698 0 0 0-.317-.114 1.988 1.988 0 0 0-.235-.012c-.09 0-.196.008-.318.022l.236-.16a.052.052 0 0 0 .026-.03c.004-.013 0-.027-.01-.043a.244.244 0 0 0-.054-.058.948.948 0 0 0-.108-.08 1.05 1.05 0 0 0-.205-.108.182.182 0 0 0-.065-.008.114.114 0 0 0-.05.015l-1.906 1.27c-.014.008-.022.02-.023.033-.002.012.005.027.02.046.014.02.035.04.065.065.03.026.074.056.127.092.055.035.1.064.14.084.036.02.07.035.098.044.028.01.052.014.07.012a.092.092 0 0 0 .052-.016l1.188-.79c.104-.016.193-.026.272-.03a1.152 1.152 0 0 1 .354.024.384.384 0 0 1 .174.1l.043.05c.014.018.024.03.033.045.01.013.02.023.032.03.015.01.03.017.046.018a.2.2 0 0 0 .063-.01c.023-.01.054-.023.09-.042.037-.016.08-.043.132-.077zm.226 2.046c-.036.025-.07.044-.096.06a.552.552 0 0 1-.126.057.447.447 0 0 1-.074.004 1.74 1.74 0 0 1-.784-.28 1.092 1.092 0 0 1-.326-.306c-.07-.106-.098-.215-.087-.326s.062-.223.15-.334a1.67 1.67 0 0 1 .38-.333c.192-.128.382-.222.57-.283.187-.06.368-.092.546-.095a1.682 1.682 0 0 1 .968.284c.058.04.108.08.154.122a.86.86 0 0 1 .116.13c.03.043.056.084.07.124.02.04.028.07.027.09 0 .022 0 .038-.006.05a.17.17 0 0 1-.025.037c-.015.015-.032.03-.055.05a.872.872 0 0 1-.09.06.7.7 0 0 1-.195.103c-.048.013-.083.012-.105-.003a.126.126 0 0 1-.05-.072 1.635 1.635 0 0 0-.03-.11c-.013-.04-.035-.084-.067-.132s-.084-.096-.156-.144a.71.71 0 0 0-.485-.11c-.184.022-.38.102-.587.24-.102.07-.183.135-.243.2s-.097.125-.113.185a.223.223 0 0 0 .02.17.44.44 0 0 0 .154.156c.075.05.15.087.227.108s.148.037.216.046c.067.01.126.015.176.02.05.002.084.01.103.022.014.01.02.018.02.03.003.01-.004.023-.018.04a.772.772 0 0 1-.062.057c-.03.025-.065.05-.113.082zm2.803.927l.085-.057c.135-.09.24-.183.32-.282.08-.1.123-.2.134-.305a.507.507 0 0 0-.087-.32 1.128 1.128 0 0 0-.344-.322 1.636 1.636 0 0 0-.487-.225c-.17-.05-.347-.07-.527-.063-.18.006-.36.04-.54.1-.18.06-.355.147-.525.26-.177.12-.31.236-.4.353-.09.116-.136.232-.136.347s.043.23.13.344c.085.115.214.228.386.342.095.063.19.118.287.166.095.048.184.087.265.12.082.03.152.055.212.072s.1.024.118.024c.02 0 .037-.002.054-.005s.033-.01.052-.018c.02-.008.04-.02.063-.033s.053-.03.084-.052l.085-.06a.263.263 0 0 0 .04-.044c.01-.013.01-.023.006-.033-.003-.01-.012-.018-.024-.027a.39.39 0 0 0-.104-.042 3.377 3.377 0 0 1-.176-.057 3.483 3.483 0 0 1-.23-.095 1.898 1.898 0 0 1-.272-.153.808.808 0 0 1-.205-.186.294.294 0 0 1-.06-.18.314.314 0 0 1 .076-.172.776.776 0 0 1 .19-.166l1.175.78c.053.035.11.052.17.05.06 0 .123-.022.188-.066zm-.374-.452l-.816-.54c.07-.044.144-.08.222-.106a.855.855 0 0 1 .462-.035c.076.016.15.05.22.094.138.092.195.188.175.29-.02.1-.108.2-.264.297zm-4.95-5.437c.02-.012.033-.024.042-.035s.015-.022.012-.033c0-.012-.007-.027-.02-.05a.998.998 0 0 0-.144-.143 1.395 1.395 0 0 0-.107-.08 1.33 1.33 0 0 0-.717-.23 1.606 1.606 0 0 0-.395.04c-.135.03-.274.08-.416.144l-.253.113-.235-.157a.112.112 0 0 0-.068-.02.615.615 0 0 0-.188.038l-.097.04-.085.043-.058.035c-.035.023-.055.04-.057.056-.003.015.005.027.02.04l.243.16-1.93.85c-.078.033-.148.06-.21.078a.644.644 0 0 1-.172.032.48.48 0 0 1-.29-.083c-.02-.015-.038-.027-.05-.038l-.03-.026-.024-.023-.023-.02c-.012-.008-.03-.01-.054-.01a.864.864 0 0 0-.08.018c-.03.01-.06.02-.092.033l-.09.04a1.1 1.1 0 0 0-.075.036l-.045.026c-.02.013-.03.023-.04.03a.094.094 0 0 0-.012.03.26.26 0 0 0 .064.087c.04.04.096.087.17.137.113.074.23.13.348.17a1.445 1.445 0 0 0 .753.018c.132-.03.27-.078.412-.14l2.015-.886.352.234c.017.01.037.016.065.016a.494.494 0 0 0 .088-.01l.1-.03c.032-.012.066-.024.1-.038.03-.015.06-.028.085-.042l.06-.035c.03-.02.047-.038.052-.053s-.003-.03-.024-.043l-.346-.23.194-.084c.073-.033.14-.058.2-.076a.555.555 0 0 1 .318-.014.595.595 0 0 1 .14.067.384.384 0 0 1 .064.053c.02.018.034.034.045.048l.033.04c.01.013.02.022.026.028.013.008.03.01.054.008a.283.283 0 0 0 .08-.02.677.677 0 0 0 .092-.033l.09-.04.075-.04a.19.19 0 0 0 .044-.023zM142.827 191.94v6.617c.218 1.748-.952 3.55-3.283 5.068l-29.32 19.086c-3.96 2.578-10.29 2.666-13.867.52l-92.77-55.68c-1.768-1.06-2.565-2.514-2.43-4.007h-.002V156.7c-.156-1.72.95-3.577 3.297-4.96l30.634-18.055c4.05-2.433 10.29-2.665 13.866-.52l91.456 54.65c1.815 1.09 2.607 2.59 2.42 4.124z"/><path fill-rule="evenodd" clip-rule="evenodd" fill="#B0B1B2" d="M143.944 190.793h.03v.222c.033.322.033.65 0 .978v6.505c.117 1.12-.186 2.237-.875 3.303-.646.994-1.635 1.938-2.936 2.785l-29.32 19.086c-2.127 1.385-4.86 2.11-7.54 2.21-2.774.104-5.53-.465-7.535-1.67L3 168.53c-1.03-.618-1.795-1.367-2.295-2.192a4.815 4.815 0 0 1-.633-1.65H.01v-.518a4.697 4.697 0 0 1 0-.605V156.7c-.075-1.108.24-2.24.942-3.297.644-.967 1.62-1.878 2.923-2.646l30.626-18.05c2.193-1.316 4.96-2.036 7.658-2.137 2.72-.103 5.4.43 7.382 1.618l91.455 54.648c1.06.636 1.836 1.407 2.335 2.257.32.545.524 1.117.614 1.7zm-2.26 4.52v-2.23h-.15l.158-1.282a2.443 2.443 0 0 0-.33-1.552c-.31-.524-.82-1.02-1.54-1.45l-91.455-54.65c-1.595-.957-3.824-1.383-6.13-1.297-2.33.088-4.706.7-6.564 1.816l-.01.004L5.03 152.723c-.99.583-1.713 1.25-2.173 1.94-.433.65-.622 1.314-.566 1.932l.01.104v5.698h.105l-.113 1.246c-.046.52.074 1.033.366 1.513.31.51.813.99 1.517 1.414l92.77 55.68c1.625.977 3.924 1.435 6.282 1.346 2.292-.086 4.605-.69 6.375-1.844l29.32-19.085c1.03-.67 1.793-1.386 2.264-2.11.406-.628.582-1.26.508-1.86l-.01-.14v-3.248z"/><path fill-rule="evenodd" clip-rule="evenodd" fill="#ECECEC" d="M109.36 191.96l2.284 1.374 31.184-1.395v6.616c.216 1.748-.953 3.55-3.284 5.068l-29.32 19.086c-3.96 2.577-10.29 2.665-13.867.52l-92.77-55.68c-1.768-1.06-2.565-2.515-2.43-4.008h-.002v-7.16l92.917 36.952 1.42-.854c4.052-2.432 10.292-2.666 13.867-.52z"/><path fill-rule="evenodd" clip-rule="evenodd" fill="#B0B1B2" d="M109.477 191.766l2.227 1.336 31.115-1.39.236-.012v6.844c.11.924-.14 1.857-.724 2.758-.573.886-1.473 1.738-2.665 2.515l-29.32 19.085c-1.984 1.292-4.55 1.97-7.074 2.063-2.607.098-5.18-.427-7.034-1.54L3.47 167.747c-.9-.54-1.56-1.183-1.984-1.88a3.813 3.813 0 0 1-.56-2.318v-7.505l.313.124 92.81 36.91 1.325-.797c2.06-1.236 4.67-1.914 7.22-2.01 2.555-.094 5.054.395 6.88 1.492zm2.05 1.763l-2.285-1.374c-1.75-1.05-4.158-1.52-6.63-1.426-2.475.094-5.01.75-7 1.945l-1.422.854-.096.056-.105-.04L1.383 156.72v6.594h.02l-.02.25a3.35 3.35 0 0 0 .492 2.066c.386.636.994 1.225 1.83 1.725l92.768 55.68c1.778 1.067 4.26 1.57 6.784 1.476 2.446-.09 4.927-.743 6.84-1.987l29.32-19.086c1.14-.74 1.99-1.548 2.53-2.38.527-.813.753-1.65.652-2.47l-.002-.027v-6.38l-30.945 1.382-.128-.033z"/><path fill-rule="evenodd" clip-rule="evenodd" fill="#FFF" d="M48.952 133.167l91.456 54.648c3.58 2.14 3.206 5.928-.864 8.326L108.91 214.2c-4.07 2.397-10.286 2.657-13.865.52l-91.457-54.65c-3.58-2.14-3.207-5.93.864-8.327l30.635-18.054c4.07-2.398 10.29-2.665 13.865-.518z"/><path fill-rule="evenodd" clip-rule="evenodd" fill="#B0B1B2" d="M49.07 132.97l91.456 54.65c.922.55 1.594 1.21 2.02 1.932.383.652.565 1.354.546 2.066-.02.71-.237 1.43-.65 2.122-.565.943-1.495 1.84-2.78 2.6l-30.635 18.054c-2.074 1.223-4.693 1.897-7.246 1.993-2.542.096-5.026-.386-6.85-1.476L3.47 160.264c-.922-.55-1.594-1.21-2.018-1.932a3.814 3.814 0 0 1-.546-2.065c.02-.71.237-1.43.65-2.122.564-.943 1.494-1.84 2.78-2.598L34.97 133.49c2.076-1.224 4.7-1.9 7.255-1.997 2.543-.095 5.025.386 6.845 1.48zm91.22 55.04l-91.455-54.646c-1.743-1.047-4.135-1.507-6.594-1.415-2.482.09-5.027.747-7.037 1.933L4.567 151.938c-1.217.717-2.093 1.56-2.618 2.438-.376.625-.57 1.27-.59 1.9a3.373 3.373 0 0 0 .485 1.823c.386.653 1.005 1.26 1.86 1.77l91.456 54.647c1.747 1.044 4.14 1.503 6.603 1.41 2.48-.092 5.023-.746 7.03-1.93l30.636-18.055c1.216-.717 2.09-1.56 2.616-2.44.374-.624.57-1.268.588-1.897a3.377 3.377 0 0 0-.483-1.825c-.386-.652-1.005-1.258-1.86-1.77z"/><path fill-rule="evenodd" clip-rule="evenodd" fill="#2E5394" d="M45.162 161.298l-6.797 4.082c.384.453 2.032 1.523 2.794 1.83 1.143.457 2.2.443 3.194-.147.59-.35 1.75-.98 2.194-1.396.86-.8-.49-1.612-1.597-2.05-.137-.053-.273-.077-.395-.165l2.358-1.407c-.13-.076-1.65-.728-1.753-.747zm-18.288-8.585c-.323-.147-.625-.48-.828-.398a.544.544 0 0 0-.09.047l-.47.283c-.737.443-.785.298-.117.69.036.022.11.06.14.08.113.078.152.047-.216.268-.438.262-3.165 1.874-3.328 2.008l1.483.9c.29-.122 3.41-2.09 3.69-2.194l.997.595 1.375-.66-1.128-.69c.21-.157.83-.535 1.078-.56.366-.035.76.31 1.075.48.18.097.174.05.53-.163.858-.517.96-.467.666-.638-1.173-.685-2.125-1.447-3.762-.677-.31.147-.81.534-1.097.63zm32.88 17.344c-.364.184-4.98 2.978-5.93 3.55l-1.006.61 1.483.904c.3-.12 1.714-1.006 2.253-1.33.086.07-.35.995-.39 1.09l-.443 1.093 1.586.954c.178-.104.867-2.093 1.03-2.357.05-.082.704-.14.927-.17.315-.04.67-.093.98-.132.353-.045.65-.093.982-.135.214-.026.875-.09 1.01-.167l-1.59-.96-1.76.24c-.256.035-.577.08-.896.12-.17.02-.79.132-.86.082.982-.625 2.26-1.362 3.296-1.987l1.075-.645c-.115-.085-1.542-.687-1.746-.757zm-4.903-.578c.716.314 1.38.944 1.424 1.39.055.553-.305.91-1.157 1.422-.827.496-1.468.94-2.37 1.033a4.018 4.018 0 0 1-2.356-.507c-.753-.44-1.392-.89-1.42-1.402-.03-.6.323-.92 1.16-1.425.82-.492 1.464-.934 2.37-1.022.38-.037.71-.033 1.184.066.58.12.76.264 1.168.443zm-4.823-2.906c.34.146.778.48.986.688.797.788.404 1.416-.775 2.125-.864.52-1.407.904-2.358 1.016-.78.09-1.66-.107-2.378-.52-1.725-.995-1.964-1.772-.214-2.823 1.016-.61 2.02-1.303 3.55-.94.696.162.723.257 1.188.455zm-11.13-2.305c-.323.195-.78.5-1.112.67-.12.06-.136.03-.28-.027-.998-.39-2.274-1.046-2.767-1.636-.685-.82-.1-1.438.858-2.014.898-.54 1.87-1.287 3.355-1.022.808.146 1.57.545 2.14 1 .89.71.687 1.443-.256 2.017-.294.18-.813.524-1.12.663l-2.728-1.624c-.1-.03.03-.015-.072-.01-.12.008-.322.19-.377.245-.084.086-.127.19-.104.28.072.283 1.164.86 1.554 1.04.185.085.82.35.91.42zm-10.25-8.96l1.39-.675c.38.21 1.78 1.053 2.063 1.27 1.415 1.097.11 1.673-1.354 2.553l-2.102 1.26-1.263-.77.21-.188c-.08-.067-.62-.16-1.052-.324-.366-.138-.794-.357-1.038-.59-.47-.444-.388-.903.112-1.3.59-.466 1.375-.71 2.133-.523.764.19 1.507.71 2.174 1.103 1.23-.715.437-.676-1.275-1.817zm4.434 6.896l1.193-.715c-.145-.116-1.18-.456-1.817-.926-.637-.47-.02-.71.655-1.116.285-.172.647-.414.934-.516.983-.34 2.11 1.02 2.496 1.195l1.188-.712c-.153-.227-.864-.76-1.194-.964-.9-.557-2.027-.953-3.25-.67-.687.158-1.035.394-1.642.757-.915.55-1.803 1.1-1.3 1.964.22.38.556.64 1.114.975.28.168 1.34.683 1.624.73zm7.887 3.43c.51-.36 1.27-.77 1.842-1.113.12-.072.334-.244.47-.254.13-.01 1.05.24 1.22.577.11.214-.07.357-.38.544-.237.14-1.145.71-1.378.796a1.42 1.42 0 0 1-.442.08c-.348 0-.617-.153-.904-.326-.21-.13-.332-.148-.428-.304zm7.854 1.737c.48.183.787.564.27.868-.166.098-.33.197-.493.295-.57.344-1.17.922-1.94.54-.397-.195-.543-.358-.51-.58.028-.192.45-.412.74-.585.242-.145.716-.46.964-.556.378-.144.586-.126.97.02zm3.584 3.074c.257-.154.475-.282.788-.272.28.01.534.11.763.263.61.406.09.68-.328.93-.372.223-1.066.702-1.46.743-.51.054-1.15-.325-1.168-.613-.01-.17.133-.287.4-.448l1.004-.605zm-14.4-8.82c.51-.296.894-.41 1.44-.065.542.34.2.688-.226.828-.147-.042-1.118-.6-1.213-.762zm-9.17-3.898c-.11-.124-.738-.487-.913-.535-.495-.14-1.255.44.05.77.18.046.324.113.47.047.157-.07.348-.186.395-.283z"/><path fill-rule="evenodd" clip-rule="evenodd" fill="#22BAE3" d="M79.972 185.636c-1.487.904-2.763 1.464-2.1 2.858.314.66 1.503 1.266 2.666 1.333.11.007.163.02.265.03.06.153.017.2.158.503.185.393.69.745 1.21 1 .507.25 1.117.332 1.69.373.89.066 1.914-.174 2.634-.61l1.254-.763c.366-.222.54-.308.587-.558.036-.195-.016-.36-.338-.56-.33-.202-.594-.206-.918-.2-.36.01-.686.208-.92.353l-1.19.725c-.37.224-.724.32-1.19.222a1.127 1.127 0 0 1-.4-.146c-.3-.183-.344-.33-.322-.52.027-.224.182-.335.51-.534.39-.237 1.475-.822 1.618-1.066.385-.66-.93-1.19-1.743-.78-.906.455-1.73 1.31-2.63 1.182-.793-.11-1.028-.59-.778-.91.163-.206 1.293-.844 1.654-1.065.315-.193.454-.304.462-.533.008-.2-.124-.354-.42-.533-.275-.166-.6-.17-.878-.155-.378.016-.554.155-.88.354zm12.14 3.672c-.493-.298-1.215-.28-1.688-.008-.73.42-.28 1.233.812 1.245 1.053.013 1.656-.77.877-1.237zm-4.26 1.548c.388-.235.816-.448 1.377-.364.94.14 1.243.824.65 1.19l-2.59 1.574c-.396.24-.513.304-.964.324-.653.03-1.317-.302-1.24-.833.034-.22.296-.39.594-.57l2.172-1.32zm19.647 10.31c-.707-.29-1.3-.434-2.225-.384-.866.047-1.442.216-2.214.688-.367.225-.74.448-1.107.672-.397.24-.633.402-.586.673.104.6 1.18.815 1.84.47.357-.188.765-.464 1.108-.673.484-.294.87-.62 1.65-.438.45.104 1.178.702 1.67.926.595.27 1.736.024 1.708-.602-.015-.308-.293-.41-.724-.673-.294-.177-.826-.536-1.12-.658zm-11.94-4.778c.93.445 1.44 1.134 2.38 1.093 1.16-.05 1.43-.833.84-1.202-.502-.314-1.137-.65-1.597-.975.327-.24.845-.522 1.22-.75.47-.285.677-.405.662-.75-.022-.52-1.13-.986-2.044-.472-1.225.69-2.432 1.374-3.4 2.21-.485.423-1.04 1.01-.966 1.513.04.264.11.506.334.763.253.29.54.48.982.75.515.313.666.458 1.255.5.466.035.933-.175 1.146-.413.197-.22.153-.544-.13-.762-.322-.247-1.464-.715-1.147-1.13.088-.115.266-.274.466-.37zm-2.99-5.735c1.044-.634 2.545.15 1.96.815-.18.207-1.342.863-1.786 1.14l1.458.888c.283.173.32.194.42.382.217.405-.326.882-1.006.917-.51.027-.77-.063-1.232-.346-.393-.24-.82-.523-1.232-.745-.596.324-.736.64-.105 1.02.618.377 1.02.5 1.01.955-.006.335-.427.62-.926.682-.804.096-1.22-.266-1.757-.59-.59-.36-.873-.645-1.048-1.043-.334-.76.285-1.368 1.024-1.996.416-.354.705-.506 1.01-.75l.915-.597c.263-.168.972-.538 1.296-.735zm11.27 9.704c.027.077-.05.142-.102.213a1.67 1.67 0 0 1-.697.57c-.493.212-.88.124-1.302-.137-.31-.192-2.403-1.51-2.566-1.537-.225 0-.184.348.078.606.633.628 1.215.606 1.93.817.4.116.744.46.585.58.064.174-.37.39-.86.434-1.095.1-2.438-.535-3.158-1.07-.71-.527-.988-1.293-.65-1.942.42-.812 1.783-1.46 3.265-1.417.175.006.342.032.522.056.36.05.723.165 1.065.306 1.11.458 1.864 1.124 2.01 1.88.022.114.004.552-.12.64zm-3.566-1.554l.3.19.817.496.495.3c.36-.19.036-.588-.31-.796-.343-.206-.963-.408-1.3-.192zm-23.622-17.597c.35-.212.67-.418 1.294-.337.474.06.9.32.948.614.052.325-.114.483-.615.787-.424.258-.598.294-.445.396.402.267 1.464.888 1.928 1.168.483.293.77.44.788.786.028.517-1.152 1.05-2.103.472-.77-.467-1.628-1.007-2.405-1.456l-.31.186c-.428.257-.816.443-.847.763a.575.575 0 0 0 .068.28c.27.374 1.69 1.015 2.075 1.358.368.33.235.85-.46 1.06-.833.247-1.335-.104-1.8-.387-.69-.42-1.724-.964-2.033-1.475a1.384 1.384 0 0 1-.178-.38c-.018-.056-.026-.106-.047-.19l.014-.57c.072-.382.475-.856.928-1.13l3.198-1.943z"/><path fill-rule="evenodd" clip-rule="evenodd" fill="#80A61C" d="M108.67 189.29l.405.243c.664.158.65.34 1.71.25-.223.175-.362.248-.33.42.03.165.278.29.516.315.473.052 1.025-.396 1.418-.634l4.166-2.493c.26-.155.404-.264.33-.426-.07-.153-.307-.275-.538-.298-.55-.052-1.935 1.028-2.768 1.45.033-.3.12-.362-.12-.71-.18-.26-.543-.498-.96-.664-2.183-.863-4.827.585-4.37 1.83.17.476.404.518.542.72zm-8.353-15.777l-.41-.247c-.017-.002-.027-.015-.047-.01l-.172-.048a4.584 4.584 0 0 0-1.088-.248c-.194-.022-.3-.04-.48-.02-.283.743-.14.695-1.187 1.408.43.228.74.387.812.793.015.083.006.064-.005.14l.004.163c.572-.186 1.18-.204 1.893-.794.637-.526.53-.773.68-1.136zm-9.216-1.9l-.152.093c-.043.096-.186.23-.256.334-.19.282-.375.765-.218 1.022.826-.007 1.333-.03 2.28.308a2.3 2.3 0 0 1 1.062-.358c.547-.062.573.064 1.068.103-.3-.5-.673-.912-1.573-1.222-1.133-.39-1.85-.24-2.21-.28zm4.01 4.828c.32-.07 1.32-.02 2.096-.502.512-.32.17-.092 1.044-.26a4.856 4.856 0 0 0 1.012-.313c.436.31.562.788.6 1.082.047.368-.012.385-.29.483-1.488.526-3.258.346-4.46-.49zm-5.532-.816c-.652-.295-1.014-.482-1.348-.924-.202-.268-.212-.26.13-.516 1.077-.802 2.58-.952 4.097-.604-.085.166-.248.342-.315.51-.074.193-.074.348-.13.505-1.11.115-1.68.416-2.435 1.028zm3.188.612c-.192.75-.003 1.413 1.088 1.985.255.135.522.238.815.32.433.12.457.17.856-.02.522-.247 1.12-.69 1.175-1.028-.622-.2-1.393-.293-1.97-.905-.146-.153-.107-.17-.37-.182-.673-.032-1.37-.16-1.594-.168zm-.367 1.354c-.667-1.168.12-1.27-.084-1.703a3.27 3.27 0 0 1-.292-1.03c-1.57.226-2.402 1.297-2.386 1.963.003.147.073.38.155.56.13.29.273.254.713.313.49.066 1.372.06 1.893-.104zm1.817-5.716c.604-.35 1.21-.514 1.854-.586.45-.05.488-.022.834.26.206.17.378.365.484.54.21.347.225.78.117 1.094-.126.373-.474.75-1.022 1.08-.247-.058-.37-.045-.607-.03-.05.004-.075.005-.123.007h-.086c.028-.22.082-.374-.08-.615-.07-.103-.223-.204-.278-.303-.075-.133.07-.75-1.093-1.45zm23.486 22.83l.477.285c.306.076.79.38 1.548.395.438.01 1.15-.173 1.384-.54.507-.798-1.832-2.098-.568-2.22.87-.084 1.734 1.11 1.815 1.153.243.13 1.164.157.63-.57-.95-1.287-3.45-1.747-3.87-.58-.21.58 1.027 1.437.962 1.842-.073.465-.957.198-1.354-.013-.527-.28-.74-.568-.916-.9-.218-.413-1.097-.225-.892.235.21.47.642.704.78.908zm-18.29-14.846c-.5-.3-1-.602-1.502-.9-.962-.572-.085-.71.108-.695.375.023 2.462 1.346 2.875 1.616.573.372.016.61-.543.626l-2.18.107a21.47 21.47 0 0 1-.698.032c-.23.008-.5.026-.74.042-.262.017-.432.003-.67.048l1.426.854c.23.136.54.282.517.45-.025.18-.33.297-.574.28-.35-.02-2.43-1.342-2.847-1.605-.413-.26-.344-.565.515-.62.532-.034 3.983-.18 4.316-.238zm3.47 5.964c-.115-.448.313-.547.946-.926.445-.267 1.04-.67 1.54-.854.91-.333 2.22-.295 3.124.232.953.555.998 1.312.472 1.87-.26.28-1.675 1.108-2.194 1.403-.368.21-.454.146-.808.118l-.27-.16c-.068-.335-.187-.252.554-.694.99-.59 2.712-1.34 1.457-2.06-.876-.5-1.7-.106-2.296.25-.376.23-.754.45-1.13.68-.532.32-.516.38-1.146.293l-.25-.15zm21.402 12.448c-.793.052-.877-.157-.793-.604.07-.37.074-1.277.2-1.583-.144-.04-.733-.114-.884-.045-.483.288-1.072.78-1.602.662-.333-.073-.436-.258-.386-.41.06-.18.427-.345.664-.486.46-.277 4.5-2.733 4.784-2.858.537-.237 1.288.16.813.523-.565.434-2.43 1.38-3.16 1.91.52.082 3.24.2 3.512.317.298.13.308.382.047.525-.25.136-.643.065-.9.05-.293-.018-1.613-.138-1.773-.11-.062.172-.037.32-.058.477l-.208 1.476-.256.153zm-10.67-6.016c-.25-.383-.585-.37-.613-1.14-.043-1.253 2.636-2.242 4.585-1.347 1.323.607 1.4 1.577.633 2.257-.76.672-1.07.22-1.852-.248-.543-.326-1.324-.854-1.892-1.122-.48.296-.47.734-.2 1.043.812.92 2.403.414 2.41.955.008.455-1.21.292-1.624.197-.303-.07-.644-.235-.946-.298l-.5-.3zm1.515-1.958c.506-.327 1.488-.257 2.028.073.547.332.623.9.115 1.21l-2.144-1.285zm-15.444-6.39l.5.3c.28.06.6.22.94.294 1.878.41 2.127-.438.974-.49-1.816-.085-2.42-1.247-1.524-1.697l1.9 1.14c.803.48 1.086.904 1.854.2.734-.674.63-1.64-.668-2.23-1.837-.83-4.505-.05-4.598 1.366-.038.58.472.88.622 1.116zm1.523-1.956l2.14 1.287c.48-.263.495-.846-.12-1.217-.564-.337-1.5-.384-2.02-.07zm10.902 5.462c1.832.815-.49 2.454-2.154 1.7-1.802-.816.433-2.465 2.153-1.7z"/><path fill-rule="evenodd" clip-rule="evenodd" fill="#2267B0" d="M48.174 143.673l-1.91 4.394-1.7-2.043 3.537-2.32c-1.47-.075-5.18.91-8.16.636-1.187-.108-1.786-.245-2.534-.993-.71.944-1.26 2.638-1.478 3.533-.184.757.22 1.276 1.398 1.688 3.51 1.227 11.56-2.08 13.972.52.34-.364.744-1.4.91-1.81.253-.624.44-1.217.588-1.814.082-.326.113-.544-.247-.903-.9-.9-2.926-1.08-4.375-.886zm-9.564 2.6l3.53-1.79.06-.023.188-.042-1.75 4.316-2.028-2.46zm11.536.16l2.303-1.11c-.034.494-.314 1.186-.545 1.738-.135.32-.605 1.49-.814 1.724l-.945-2.35z"/><path fill-rule="evenodd" clip-rule="evenodd" fill="#02021A" d="M81.87 166.6l-1.622.87c-1.5-1.017-3.437-1.04-5.022-.348-2.603 1.134-.77 2.253 1.226 2.076l-.614.425c.534.405.312.26.95.59 2.08-1.142 5.183-2.233 6.12-2.933-.435-.415-.363-.324-1.04-.68zm-13.266-8.29c-.54.378-1.01.565-1.632.858-1.597-.97-3.27-1.046-4.94-.357-.877.363-1.637.924-1.288 1.427.285.41 1.074.666 1.752.688l.66.005-.586.414.904.593c.512-.233 1.005-.544 1.52-.782.507-.236 1.045-.46 1.572-.687.754-.328 2.56-1.03 3.062-1.466-.164-.27-.65-.517-1.024-.692zm-.41 6.378c-1.204-.257-2.523-1.23-2.75-1.912-.454-1.353 2.763-2.853 5.306-2.537 1.06.13 2.69.77 2.98 1.563-.35.178-.76.3-1.142.333-.547-.497-.808-.823-1.777-.978-.67-.107-1.32-.02-2.033.212-1.73.565-2.512 1.34-.764 2.245l2.158-.948c.4.097.838.363 1.04.595-.02.133.057.026-.11.155l-2.906 1.268zM49.887 152.07c-.48.156-.728.18-1.22.42.773.714 1.222 1.32 2.665 1.647.91.207 2.39.146 3.063-.653.52-.618-.31-1.37-.228-1.922.072-.495.822-.54 1.356-.292.708.33.74.568 1.114.96.41-.1.745-.17 1.165-.374-2.46-2.7-5.194-1.392-5.242-.55-.048.86.8 1.537 0 1.892-1.313.58-2.473-.947-2.672-1.127zm11.15 4.246c1.91-.106 2.882.792 2.097 1.416-.456.362-2.952 1.41-3.685 1.703l-1.03-.663c1.276-.682 3.683-1.31 3.202-1.8-.752-.768-3.678.785-4.358 1.047a3.046 3.046 0 0 1-1.057-.65c.55-.308 1.58-.7 2.22-.974.823-.354 1.433-.725 2.2-1.08 1.412.663.774.68.41 1zm-5.17.647c-1.462-.427-2.836-1.284-2.368-2.136.435-.79 2.11-1.354 3.53-1.27.7.04 1.415.22 1.976.653 1.088.84-.17 1.78-1.92 1.41-.803-.17-1.288-.524-1.925-.69-1.062.74 1.024 1.273 1.35 1.418-.14.2-.327.41-.644.615zm12.724 8.16l1.05.653c.794-.316 1.53-.692 2.33-.985.94-.343 1.514-.345 2.31.217.356-.13.776-.248 1.087-.486-.468-.45-1.292-.562-1.952-.47l.558-.39c-.307-.284-.55-.41-.955-.606-1.426.888-3.063 1.32-4.428 2.07zm6.206.064c.853-.52.87-.61 2.473.535l-4.548 1.98c-.67-.366-.47-.223-1.016-.643.78-.434 3.03-1.21 3.523-1.6l-.434-.274zm-8.888-5.568c-.695.362-1.965.893-2.89.84-1.296-.074-.793-.923.985-1.23.695-.12 1.196-.103 1.904.388zm13.27 8.28c-.53.272-1.33.6-1.918.734-.42.097-1.812.244-1.698-.307.057-.275 1.986-1.505 3.617-.428zm-23.235-13.427c.673-.26 1.724-.375 2.107.21-.46.57-1.47.196-2.107-.21z"/><path fill-rule="evenodd" clip-rule="evenodd" fill="#2267B0" d="M43.698 148.627c1.653.95 3.7 2.125 5.888 1.73.654-.118 1.493-.56 1.513-1.01.04-.998-2.823-1.147-3.43-1.13-.717.017-3.168.15-3.973.41zM45.054 143.866c-.762-.59-2.87-1.493-3.893-1.71-.687-.145-1.31-.177-1.974-.05-.64.123-1.544.53-1.56.998-.016.435.844.828 1.5.974 1.424.318 4.786.068 5.93-.212zM76.933 164.67c.523.417.388.316 1.008.66.09-.01.057 0 .19-.028.09-.02.155-.036.24-.065 1.197-.41.712-.524.29-.79-.52-.325-.616-.468-1.726.224z"/><path fill-rule="evenodd" clip-rule="evenodd" fill="#B0B1B2" d="M240.8 46.87c-1.065-1.78-2.777-3.444-5.137-4.858-4.267-2.558-9.885-3.836-15.5-3.836-5.614 0-11.232 1.28-15.5 3.836-2.358 1.414-4.07 3.078-5.137 4.857-.88 1.465-1.32 3.01-1.32 4.556 0 1.545.44 3.09 1.32 4.56 1.05 1.75 2.724 3.39 5.025 4.79l.113.066c4.268 2.558 9.886 3.836 15.5 3.836 5.615 0 11.233-1.28 15.5-3.837 2.36-1.412 4.07-3.077 5.138-4.855.88-1.468 1.32-3.013 1.32-4.56 0-1.546-.44-3.09-1.32-4.558zm-.39 8.88c-1.03 1.717-2.69 3.326-4.98 4.7-4.193 2.514-9.73 3.77-15.267 3.77-5.534 0-11.065-1.254-15.258-3.764l-.008-.005c-2.29-1.372-3.95-2.98-4.98-4.697-.835-1.395-1.253-2.86-1.253-4.324s.418-2.93 1.254-4.325c1.028-1.715 2.688-3.326 4.98-4.7 4.192-2.512 9.728-3.77 15.265-3.77 5.538 0 11.073 1.257 15.267 3.77 2.29 1.375 3.95 2.985 4.98 4.7.835 1.395 1.252 2.86 1.252 4.324s-.417 2.927-1.253 4.322z"/></svg>