<!DOCTYPE svg PUBLIC "-//W3C//DTD SVG 1.1//EN" "http://www.w3.org/Graphics/SVG/1.1/DTD/svg11.dtd" [
	<!ENTITY ns_flows "http://ns.adobe.com/Flows/1.0/">
]><svg xmlns="http://www.w3.org/2000/svg" width="495" height="488" viewBox="-1 -1.133 495 488" overflow="visible"><path fill-rule="evenodd" clip-rule="evenodd" fill="#FFF" d="M57.735 429.918v10.817c-.354 2.858 1.47 5.944 5.366 8.283l48.148 28.912c6.62 3.975 16.817 4.354 22.66.85L359.28 343.512c2.89-1.735 4.194-4.112 3.974-6.552v-11.183c.256-2.807-1.57-5.812-5.387-8.104l-48.146-28.91c-6.62-3.976-16.815-4.356-22.66-.85L61.69 423.18c-2.966 1.78-4.26 4.235-3.955 6.738z"/><path fill-rule="evenodd" clip-rule="evenodd" fill="#A7A9AC" d="M56.04 428.417v-.192h.023a7.645 7.645 0 0 1 1.005-2.868c.8-1.363 2.05-2.604 3.754-3.626l225.37-135.263c3.21-1.926 7.553-2.785 11.968-2.62 4.377.163 8.872 1.333 12.428 3.468l48.146 28.91c2.096 1.26 3.672 2.733 4.71 4.296 1.123 1.69 1.628 3.488 1.503 5.26v11.213c.024.336.024.67 0 1.002v.662h-.074a7.673 7.673 0 0 1-1.036 2.784c-.803 1.324-2.03 2.527-3.69 3.523L134.775 480.227c-3.208 1.925-7.552 2.785-11.967 2.62-4.377-.164-8.872-1.332-12.428-3.468l-48.146-28.914c-2.14-1.285-3.737-2.795-4.774-4.395-1.137-1.753-1.615-3.613-1.42-5.427v-10.65a7.423 7.423 0 0 1 0-1.577zm3.388 3.195v9.22l-.013.108c-.13 1.063.165 2.192.877 3.293.766 1.182 1.994 2.327 3.676 3.337l48.146 28.91c3.063 1.84 6.976 2.85 10.813 2.992 3.8.142 7.478-.562 10.114-2.144l225.37-135.265c1.178-.706 2.02-1.514 2.54-2.372.497-.814.7-1.693.623-2.576l-.168-1.848h.154v-9.496l.013-.146c.095-1.042-.225-2.15-.948-3.24-.77-1.157-1.98-2.273-3.624-3.262l-48.145-28.912c-3.062-1.84-6.977-2.848-10.812-2.99-3.8-.144-7.477.56-10.113 2.143L62.555 424.628c-1.203.723-2.058 1.553-2.576 2.436a4.16 4.16 0 0 0-.565 2.648l.232 1.9h-.22z"/><path fill-rule="evenodd" clip-rule="evenodd" fill="#E6E7E8" d="M112.66 427.676l-3.736 2.242h-51.19v10.817c-.352 2.858 1.47 5.944 5.368 8.283l48.146 28.912c6.62 3.975 16.816 4.354 22.66.848l225.37-135.265c2.892-1.735 4.196-4.112 3.976-6.552v-11.7L137.642 429.92l-2.323-1.395c-6.62-3.974-16.82-4.356-22.66-.847z"/><path fill-rule="evenodd" clip-rule="evenodd" fill="#A7A9AC" d="M112.795 427.903l-3.735 2.243-.136.038H58v10.55l-.002.032c-.17 1.395.2 2.85 1.102 4.24.88 1.36 2.264 2.658 4.14 3.784l48.145 28.912c3.27 1.964 7.43 3.04 11.493 3.193 4.06.15 8.02-.618 10.896-2.346l225.37-135.267c1.38-.828 2.387-1.803 3.025-2.856.656-1.085.93-2.258.82-3.444l-.026-.29h.024v-11.02L137.752 430.16l-.126.058-.12-.07-2.323-1.397c-3.27-1.962-7.43-3.04-11.495-3.19-4.06-.153-8.018.617-10.895 2.344zm-3.943 1.75l3.67-2.205c2.967-1.78 7.03-2.574 11.185-2.42 4.15.156 8.4 1.258 11.748 3.27l2.203 1.32L363.143 325.02l.377-.175v12.128c.108 1.288-.188 2.558-.9 3.73-.684 1.126-1.75 2.162-3.206 3.036l-225.37 135.263c-2.967 1.78-7.03 2.575-11.186 2.42-4.15-.155-8.398-1.257-11.747-3.267l-48.144-28.912c-1.947-1.17-3.388-2.524-4.31-3.948-.97-1.495-1.37-3.064-1.187-4.577v-11.07h51.384z"/><path fill-rule="evenodd" clip-rule="evenodd" fill="#FFF" d="M287.06 287.915L61.698 423.245c-5.843 3.508-5.208 9.632 1.412 13.606l48.145 28.913c6.62 3.975 16.817 4.356 22.66.848L359.28 331.283c5.842-3.51 5.208-9.633-1.413-13.608l-48.146-28.91c-6.62-3.976-16.816-4.358-22.66-.85z"/><path fill-rule="evenodd" clip-rule="evenodd" fill="#A7A9AC" d="M287.196 288.142L61.833 423.47c-1.39.835-2.4 1.82-3.04 2.884-.582.967-.856 2.003-.83 3.058.028 1.058.36 2.136.99 3.186.87 1.446 2.304 2.834 4.292 4.026l48.146 28.91c3.273 1.966 7.43 3.043 11.497 3.194 4.06.15 8.017-.617 10.894-2.345l225.364-135.33c1.39-.834 2.4-1.816 3.04-2.882.58-.966.855-2.002.828-3.056-.026-1.058-.357-2.137-.988-3.186-.867-1.447-2.303-2.833-4.292-4.027l-48.146-28.91c-3.27-1.965-7.43-3.04-11.494-3.192-4.06-.152-8.018.618-10.894 2.345zM61.56 423.016l225.364-135.33c2.967-1.78 7.03-2.574 11.185-2.418 4.147.154 8.397 1.257 11.745 3.267L358 317.445c2.068 1.242 3.564 2.69 4.477 4.213.678 1.127 1.034 2.294 1.062 3.443.03 1.156-.27 2.29-.9 3.344-.686 1.14-1.757 2.185-3.227 3.065L134.05 466.84c-2.965 1.78-7.03 2.573-11.184 2.42-4.15-.157-8.4-1.26-11.748-3.27L62.97 437.08c-2.064-1.24-3.56-2.69-4.474-4.21-.677-1.128-1.034-2.296-1.063-3.445-.03-1.154.27-2.287.903-3.343.683-1.136 1.755-2.182 3.223-3.064z"/><path fill-rule="evenodd" clip-rule="evenodd" fill="#838488" d="M89.624 457.65l-5.702-3.423c-.66-.397-1.2.014-1.2.91 0 .898.54 1.957 1.2 2.354l5.702 3.427c.66.396 1.2-.014 1.2-.91 0-.9-.54-1.96-1.2-2.355z"/><path fill-rule="evenodd" clip-rule="evenodd" fill="#2D5998" d="M141.565 423.023l10.594 6.075c1.205-.387 4.082-1.99 4.91-2.72 1.242-1.096 1.236-2.08-.297-2.968-.91-.528-2.543-1.568-3.625-1.958-2.09-.75-4.274.56-5.46 1.617-.147.13-.215.26-.45.38l-3.65-2.11c-.207.126-1.97 1.583-2.025 1.682zm-23.2 17.584c-.398.31-1.293.613-1.078.798a.696.696 0 0 0 .12.08l.736.42c1.15.66.768.712 1.823.065.06-.036.163-.107.217-.136.206-.112.125-.146.697.183.68.39 4.863 2.83 5.21 2.975l2.42-1.44c-.32-.264-5.425-3.045-5.695-3.298l1.596-.968-1.706-1.24-1.85 1.094c-.416-.187-1.396-.737-1.453-.968-.083-.34.846-.73 1.3-1.033.26-.176.138-.167-.415-.483-1.34-.77-1.207-.865-1.666-.582-1.84 1.137-3.883 2.072-1.895 3.55.382.28 1.392.72 1.64.98zm46.756-31.736c.477.33 7.73 4.453 9.218 5.303l1.58.9 2.43-1.44c-.31-.27-2.613-1.53-3.457-2.013.19-.084 2.624.264 2.87.295l2.88.343 2.563-1.54c-.273-.16-5.506-.675-6.202-.812-.21-.04-.343-.646-.416-.852-.103-.29-.23-.618-.323-.905-.106-.328-.224-.603-.325-.908-.065-.198-.217-.81-.413-.93l-2.58 1.54.58 1.627c.087.235.2.53.296.825.052.156.325.727.19.797-1.622-.88-3.537-2.02-5.158-2.95l-1.68-.96c-.225.114-1.857 1.482-2.047 1.678zm-1.663 4.608c.854-.686 2.54-1.346 3.71-1.413 1.468-.086 2.402.227 3.73.988 1.288.738 2.44 1.308 2.663 2.142.175.662-.237 1.504-1.407 2.23-1.18.73-2.387 1.353-3.74 1.41-1.59.07-2.427-.24-3.732-.987-1.28-.735-2.43-1.306-2.64-2.147-.086-.35-.063-.654.21-1.103.335-.553.72-.728 1.207-1.12zm-7.808 4.68c.395-.327 1.29-.757 1.84-.962 2.105-.793 3.757-.467 5.595.588 1.345.772 2.348 1.253 2.615 2.133.218.72-.33 1.553-1.444 2.247-2.677 1.67-4.74 1.942-7.466.378-1.584-.906-3.384-1.8-2.384-3.248.454-.66.7-.69 1.242-1.135zm-6.408 10.518c.51.287 1.306.692 1.738.992.156.107.078.124-.077.264-1.054.955-2.828 2.186-4.4 2.683-2.185.69-3.804.184-5.297-.673-1.4-.803-3.346-1.66-2.605-3.062.403-.762 1.48-1.495 2.705-2.058 1.9-.87 3.828-.73 5.317.113.464.263 1.36.724 1.72 1.002l-4.372 2.644c-.083.096-.038-.027-.025.068.015.11.494.287.636.334.22.075.49.108.73.08.75-.085 2.3-1.14 2.79-1.513.233-.178.958-.787 1.14-.873zm-23.962 10.117l-1.744-1.255c.562-.366 2.83-1.725 3.417-2.002 2.935-1.39 4.422-.208 6.704 1.1 1.09.626 2.18 1.253 3.276 1.878l-2.072 1.227-.49-.183c-.18.08-.443.59-.885 1.003a5.34 5.34 0 0 1-1.584 1.003c-1.19.466-2.4.418-3.43-.023-1.22-.52-1.842-1.235-1.326-1.954.522-.725 1.916-1.45 2.975-2.096-1.856-1.102-1.775-.366-4.838 1.302zm18.348-4.57l-1.855-1.064c-.313.142-1.24 1.127-2.5 1.75-1.256.624-1.876.065-2.93-.54-.443-.253-1.077-.574-1.333-.836-.875-.895 2.753-2.03 3.226-2.4l-1.844-1.063c-.603.158-2.03.855-2.58 1.174-1.5.875-2.582 1.95-1.87 3.072.4.63 1.012.94 1.958 1.48 1.426.82 2.857 1.61 5.152 1.09 1.008-.23 1.7-.56 2.604-1.103.45-.27 1.843-1.29 1.972-1.56zm9.28-7.563c-.93-.453-1.994-1.138-2.884-1.648-.19-.107-.637-.296-.66-.423-.022-.12.667-.994 1.564-1.176.57-.116.942.044 1.425.32.368.212 1.842 1.022 2.067 1.234.13.123.196.305.195.407-.005.324-.42.584-.885.863-.356.202-.405.318-.82.42zm4.817-7.43c.494-.46 1.513-.77 2.3-.307.253.148.51.294.766.44.89.512 2.4 1.03 1.37 1.776-.527.38-.962.524-1.55.51-.504-.015-1.072-.397-1.52-.653-.38-.217-1.2-.64-1.445-.864-.37-.34-.318-.537.08-.905zm8.224-3.533c-.4-.23-.733-.425-.696-.717.032-.262.304-.504.714-.728 1.093-.592 1.802-.126 2.45.247.58.33 1.825.947 1.922 1.31.126.473-.894 1.093-1.657 1.13-.445.02-.75-.108-1.168-.348l-1.565-.896zm-23.71 13.974c-.773-.453-1.06-.804-.138-1.335.913-.526 1.822-.23 2.187.158-.12.14-1.623 1.08-2.05 1.18zm-10.56 8.794c-.33.11-1.307.72-1.44.885-.38.47 1.125 1.142 2.04-.097.125-.17.307-.307.135-.44-.18-.142-.483-.312-.736-.35z"/><path fill-rule="evenodd" clip-rule="evenodd" fill="#00C0E5" d="M206.858 389.046c2.345 1.328 3.79 2.48 7.49 1.774 1.756-.335 3.388-1.48 3.6-2.567.022-.104.057-.153.087-.25.41-.066.534-.028 1.335-.178 1.04-.196 1.99-.69 2.677-1.19.673-.488.905-1.06 1.033-1.6.2-.832-.406-1.77-1.54-2.414l-1.978-1.12c-.577-.325-.8-.482-1.46-.51-.512-.02-.95.038-1.483.35-.548.32-.567.568-.558.87.012.334.53.623.902.835l1.88 1.062c.584.33.825.653.555 1.095-.086.14-.18.25-.4.38-.49.292-.883.344-1.384.334-.588-.01-.876-.147-1.395-.44-.614-.348-2.13-1.323-2.77-1.44-1.734-.316-3.172.942-2.115 1.673 1.18.813 3.415 1.53 3.052 2.376-.32.745-1.587.995-2.424.78-.544-.138-2.196-1.15-2.77-1.473-.504-.28-.79-.403-1.398-.395-.532.006-.938.14-1.42.426-.447.268-.466.57-.437.83.04.35.403.504.918.796zm10.044-11.546c-.8.48-.773 1.15-.068 1.575 1.09.654 3.25.183 3.315-.836.06-.983-1.985-1.496-3.25-.74zm3.974 3.873c-.61-.347-1.16-.732-.924-1.26.4-.888 2.212-1.213 3.162-.682l4.087 2.316c.627.352.79.456.833.877.06.606-.837 1.246-2.237 1.207-.583-.018-1.023-.25-1.492-.518l-3.427-1.94zm27.798-18.96c-.79.676-1.184 1.238-1.078 2.097.098.804.53 1.33 1.756 2.02.583.328 1.162.66 1.744.99.626.354 1.044.565 1.764.504 1.588-.136 2.186-1.152 1.288-1.745-.484-.32-1.2-.685-1.742-.99-.764-.434-1.613-.77-1.11-1.51.287-.425 1.888-1.143 2.495-1.617.73-.57.11-1.62-1.54-1.552-.814.034-1.098.3-1.8.717-.478.282-1.444.8-1.775 1.085zm-12.967 11.426c1.205-.895 3.038-1.413 2.956-2.29-.1-1.074-2.166-1.28-3.157-.706-.844.488-1.75 1.102-2.622 1.55-.625-.29-1.356-.753-1.947-1.09-.74-.418-1.05-.603-1.963-.567-1.376.054-2.637 1.115-1.302 1.935 1.79 1.1 3.558 2.18 5.74 3.027 1.1.427 2.633.91 3.968.806.698-.054 1.34-.134 2.023-.358.776-.257 1.288-.536 2.01-.966.842-.5 1.23-.65 1.36-1.2.104-.437-.44-.86-1.06-1.043-.574-.17-1.437-.106-2.017.17-.667.317-1.934 1.41-3.018 1.142-.304-.078-.717-.234-.97-.414zm-15.237 3.147c-1.643-.933.47-2.38 2.212-1.88.543.157 2.242 1.197 2.965 1.593l2.383-1.413c.464-.274.52-.31 1.02-.415 1.078-.228 2.32.247 2.396.88.057.472-.19.72-.95 1.17-.645.382-1.4.796-2 1.194.843.535 1.672.646 2.7.034 1.007-.6 1.347-.983 2.547-1.004.884-.014 1.626.36 1.77.82.234.745-.732 1.155-1.61 1.678-.96.57-1.724.853-2.78 1.042-2.01.358-3.603-.18-5.24-.828-.926-.367-1.316-.626-1.953-.893l-1.552-.816c-.438-.236-1.397-.874-1.908-1.163zm25.963-11.115c.205-.03.373.038.56.08.548.127 1.128.323 1.485.614.547.446.303.812-.397 1.223-.514.3-4.057 2.333-4.132 2.486-.008.21.913.15 1.605-.11 1.676-.63 1.636-1.17 2.215-1.85.323-.38 1.235-.724 1.55-.583.466-.07 1.02.32 1.125.773.236 1.014-1.483 2.305-2.916 3.01-1.414.695-3.446 1.002-5.15.73-2.132-.34-3.81-1.57-3.65-2.954.018-.164.093-.322.162-.49.136-.34.45-.685.833-1.013 1.24-1.064 3.02-1.81 5.027-1.99.297-.03 1.45-.04 1.683.072zm-4.21 3.42l.516-.29 1.326-.793.806-.48c-.488-.323-1.547.003-2.104.34-.556.33-1.108.922-.547 1.223zm-47.16 23.125c-.554-.312-1.087-.598-.855-1.185.176-.446.876-.86 1.655-.923.858-.07 1.272.075 2.062.522.667.377.757.538 1.03.39.716-.393 2.386-1.42 3.14-1.87.788-.47 1.182-.746 2.1-.785 1.36-.057 2.74 1.008 1.185 1.93-1.258.748-2.706 1.582-3.915 2.334l.48.28c.666.38 1.147.73 1.99.74.162 0 .575-.037.74-.08 1-.276 2.732-1.643 3.65-2.02.885-.367 2.253-.275 2.783.36.633.76-.31 1.25-1.068 1.7-1.13.67-2.594 1.67-3.955 1.99-.366.085-.618.14-1.007.19-.155.02-.287.03-.505.054l-1.51.023c-1.01-.043-2.25-.39-2.962-.794l-5.037-2.856z"/><path fill-rule="evenodd" clip-rule="evenodd" fill="#6D6E71" d="M303.814 310.37c-.158-.098-.44-.18-.617-.255-.22-.094-.42-.188-.648-.28-.21-.083-.408-.15-.624-.25-.1-.046-.2-.076-.307-.12-.613-.25-.103-.178-1.173.928-.087.09-.22.175-.31.268l-.33.27c-.387.25-.386.277-.864.556a4.375 4.375 0 0 1-.903.38c-.312.087-.582.13-.914.132a3.696 3.696 0 0 1-.89-.11c-.194-.047-.758-.218-.89-.33.155-.115 4.9-2.932 5.064-3.03.45-.27.41-.2.148-.36-.548-.34-1.188-.74-1.815-1.012-.45-.194-.7-.337-1.235-.498-.31-.095-.258-.1-.62-.184-.11-.025-.205-.044-.31-.072-.58-.16-1.507-.26-2.165-.256-1.646.006-3.278.585-4.404 1.368a4.525 4.525 0 0 0-1.023.93c-.057.067-.094.124-.136.187a2.476 2.476 0 0 0-.21.373c-.124.278-.12.284-.17.556-.013.07-.013.11-.013.183 0 .11-.032.237.02.358l.08.366c.13.41.353.697.648 1.067.124.154.367.413.556.54.11.07.1.098.218.175.165.107.32.245.492.354.353.23.784.492 1.188.684.21.1.412.195.623.29.103.046.214.086.31.126.125.053.216.082.31.12l.16.07c.004 0 .01 0 .015.002l.016.004.016.004.715.212c.366.09.59.126.938.194.48.094 1.36.127 1.868.102a9.62 9.62 0 0 0 2.196-.4c.345-.103.975-.338 1.276-.498.13-.07.205-.097.317-.152.36-.18.944-.52 1.258-.74l.755-.566c.058-.057.15-.13.22-.188.58-.49.96-.993 1.164-1.493zm-23.45 4.126l.056-.425c.02-.082.086-.35.135-.424.097-.147.15-.29.27-.43.128-.146.384-.41.58-.55.51-.36 1.116-.67 1.83-.868.075-.02.102-.02.17-.036a6.22 6.22 0 0 1 1.472-.176c.36-.004 1.144.057 1.44.13.247.06.48.084.717.157.244.076.492.146.72.228.77.274 1.504.608 2.144.973.907.518.994.572 1.727 1.136.06.046.052.053.107.096.15.12.366.297.446.414.052.073.117.14.185.214l.428.625c.098.266.18.305.225.63.01.07.012.144.023.21.008.04.01.07.008.107l-.02.22c-.01.186-.158.563-.268.742-.133.216-.27.45-.516.645-.085.07-.174.153-.24.218-.194.192-.71.505-.98.658-.168.096-1.11.528-1.296.566-.085.02-.054-.01-.156.06l3.177 1.82c-.068.073-.248.21-.344.284l-1.002.837c-.05.048-.12.097-.177.144l-.335.283c-.06.052-.144.098-.21.148-.18.137-.55.48-.73.56l-13.61-7.752c-.034-.03-.1-.008.094-.12.49-.284 2.567-1.562 2.803-1.657.147.07.39.18.54.226l.4.157.063.03c.007 0 .013.003.02.005l.037.01c-.002-.002.013.003.02.004l.05-.088zm-21.424 11.65l.016.036c.035.09-.114.143-.24.258l-.362.3c-.233.167-.205.18-.064.28.133.096.222.186.325.273.045.037.14.092.188.137.06.055.108.09.183.147.205.162.9.774 1.053.82.214-.077 1.03-.628 1.35-.785.27.117 4.046 2.318 4.807 2.73a7.31 7.31 0 0 0 1.328.548c.165.044.272.076.438.11.077.017.138.03.22.043.14.022.147.036.245.018.042.003.117.017.175.02.187.02.372.03.565.025.213-.005.53-.013.755-.062.4-.087.743-.142 1.14-.298a9.725 9.725 0 0 0 2.272-1.24l.527-.45c.04-.04.097-.077.138-.118.073-.073.09-.09.072-.12-.04-.06-2.18-1.264-2.45-1.41-.094.04-.242.202-.315.262-.59.476-1.214.89-2.168.51-.246-.1-3.374-1.907-4.04-2.287-.53-.302-.556-.19-.035-.502.29-.173 1.126-.652 1.284-.773l-1.5-1.206c-.08-.07-.147-.127-.227-.19-.315-.257-.047-.32-1.304.43-.227.134-.85.537-1.064.622-.375-.195-2.67-1.565-2.83-1.593-.08 0-.2.14-.31.22l-.874.725c-.05.042-.11.08-.165.12-.06.044-.075.073-.127.118-.2.177-.44.33-.646.5l-.268.243.698.578c.222.17.7.584.842.68.072.046.07.06.114.096.07.06.163.134.246.19zm10.36-5.116c-.007.018-.048-.004.033.13.025.04.046.08.077.115-.248-.082-1.197-.5-1.298-.485-.097.016-2.237 1.33-2.702 1.6-.022.014-.08.045-.098.057-.15.106.007.14.193.248l7.2 4.104c.29.163 2.372 1.39 2.51 1.404.102-.003 2.137-1.25 2.488-1.46.216-.13.666-.37.823-.503-.062-.11-.595-.37-.79-.48l-5.563-3.17c-.2-.116-.043-.15-.122-.265.023-.047.01-.094.026-.15.017-.053.042-.108.067-.166.024-.055.194-.29.27-.33 0-.024-.006-.01.008-.035.047-.092.475-.377.568-.44.248-.173.705-.39.77-.445-.256-.163-2.814-1.624-2.908-1.64-.127.02-.466.187-.58.248-.228.124-.364.263-.547.366-.25.156-.427.486-.47.656-.03.12-.06.212-.052.322.008.07.047.247.1.318zm-.353-3.854c.73.414 1.676.48 2.542.285.153-.034.272-.082.43-.13.22-.062.342-.147.525-.257.68-.405.83-1.012.535-1.466-.242-.374-.738-.666-1.393-.8-.48-.1-1.21-.112-1.67.027-.42.128-.544.146-.932.38-.465.275-.693.647-.708.993-.01.32.147.672.67.97zm13.608-1.56c-.147-.085-.074-.244-.036-.384l.053-.193c.14-.35.55-.7 1.185-.796.346-.052.96.035 1.263.12.425.118.925.332 1.276.512.535.274 1.577.88 1.947 1.268.22.23.274.292.412.556.07.134.13.26.13.374-.004.23-.093.533-.477.762-.292.174-.78.393-1.1.43l-4.655-2.65zm-10.842 3.05c1.628.96 3.327 1.9 4.984 2.844.436.248 4.903 2.823 4.987 2.82.087-.004 2.612-1.544 3.118-1.842.078-.045.162-.076.157-.13-.007-.058-2.204-1.28-2.447-1.42l-6.86-3.908c-.784-.447-.464-.467-1.454.126l-1.65.984c-.27.16-.598.34-.845.51l.007.017zm-12.55 18.34c-.12-.072-1.278-1.015-1.37-1.094-.063-.054-.133-.092-.188-.144-.276-.254-.545-.34-.3-.393.848-.187 1.03-.216 1.92-.496.16-.053.323-.11.49-.163.157-.05.32-.135.482-.193.57-.21 1.403-.61 1.576-1.024.17-.413-.45-.687-1.355-.53-.66.113-1.253.31-1.92.5l-.962.237c-.17.046-.53.11-.73.146-.227.04-.246.047-.49.064-.087.007-.153.02-.237.027a5.813 5.813 0 0 1-1.416-.043c-.37-.052-1.127-.26-1.427-.42-.16-.083-.315-.17-.47-.26-.376-.22-.99-.776-1.044-1.085-.008-.045-.035-.098-.055-.146-.023-.056-.016-.085-.024-.137-.062-.34-.03-.477.106-.84.036-.097.1-.188.158-.288.013-.02.02-.054.03-.072l.434-.49c.127-.155.112-.116.204-.213.023-.025.026-.038.057-.063l.417-.3c.337-.214.56-.364.94-.566.365-.192.315-.18.73-.355.08-.035.174-.09.245-.122.167-.076.317-.13.48-.2.33-.138.636-.228.957-.343.21-.076.527-.15.73-.21.31-.09.333-.115.486.004l1.664 1.347c.058.053.13.086.185.14-.09.058-.398.117-.614.18-.43.124-.967.25-1.383.423-.406.167-.835.317-1.19.52-.43.244-.38.203-.617.47-.128.146-.132.32.09.46.332.21.834.1 1.174.05.303-.047.65-.157.98-.226.098-.02 1.214-.36 1.383-.397.062-.015.122-.024.205-.05.144-.04.56-.118.776-.165l.583-.086a6.03 6.03 0 0 1 2.696.216c.13.042.28.124.396.174.398.17.77.416 1.065.634.06.044.07.07.134.116.253.176.52.577.58.79.082.29.126.613.007.915-.12.308-.317.61-.602.923-.12.133-.31.28-.38.358-.046.053-.052.06-.123.108-.13.085-.18.143-.333.24-.13.08-.257.164-.39.244-.76.456-.802.478-1.588.84-.805.37-1.84.694-2.777.92-.235.055-.16.037-.38.07zm34.273-26.606c-.114.068-.164.03-.388-.146-.27-.214-.627-.462-.785-.71-.198-.308-.3-.666.19-.975.395-.25.787-.306 1.264-.264.643.056 1.665.456 2.026.707l-2.307 1.386z"/><path fill-rule="evenodd" clip-rule="evenodd" fill="#77A636" d="M217.327 362.074l.655-.394c.436-.63.917-.627.71-1.608.454.197.644.32 1.103.28.432-.038.767-.277.843-.5.15-.44-1.02-.928-1.632-1.28l-6.474-3.723c-.405-.235-.688-.36-1.12-.283-.406.074-.736.305-.8.52-.153.52 2.66 1.74 3.752 2.488-.792-.01-.956-.088-1.88.158a4.474 4.474 0 0 0-1.78.937c-2.347 2.09 1.405 4.46 4.71 3.957 1.255-.19 1.375-.41 1.913-.553zm-41.927 8.78l-.663.4c-.008.015-.04.025-.03.042l-.13.164c-.362.388-.525.577-.686 1.03-.063.183-.113.28-.06.448 1.953.217 1.83.086 3.685 1.018.613-.417 1.044-.713 2.12-.808.214-.02.16-.01.363-.004l.43-.014c-.476-.522-.507-1.087-2.043-1.715-1.37-.56-2.028-.442-2.984-.56zm-5.276 8.71l.238.136c.25.035.605.16.875.218.74.16 2.012.302 2.7.14 0-.77-.045-1.24.874-2.144-.565-.326-.8-.567-.915-.967-.148-.507.188-.538.302-1.003-1.328.312-2.428.686-3.273 1.545-1.065 1.077-.69 1.735-.8 2.072zm12.868-4.044c-.182-.294-.02-1.23-1.27-1.92-.83-.456-.24-.15-.66-.956-.166-.315-.42-.62-.795-.925.83-.43 2.097-.574 2.875-.63.976-.066 1.018-.014 1.268.24 1.346 1.356.822 3.015-1.418 4.19zm-2.318 5.21c-.8.625-1.303.975-2.48 1.314-.707.203-.687.212-1.354-.092-2.09-.952-2.443-2.343-1.478-3.778.436.068.893.21 1.34.26.508.06.912.05 1.325.09.273 1.027 1.05 1.54 2.647 2.205zm1.708-3.01c1.974.13 3.736-.088 5.276-1.14.36-.247.64-.502.863-.78.33-.412.463-.437-.025-.798-.637-.47-1.79-1-2.683-1.03-.548.594-.815 1.317-2.448 1.895-.41.145-.45.11-.492.355-.102.63-.464 1.287-.488 1.498zm3.565.256c-3.1.694-3.35-.033-4.498.185-.348.067-.633.114-.93.156-.583.082-1.284.154-1.798.183.548 1.45 3.355 2.155 5.116 2.1a11.892 11.892 0 0 0 1.485-.18c.765-.14.675-.27.844-.687.186-.46.197-1.28-.223-1.756zm-15.05-1.333c-.908-.542-1.323-1.094-1.495-1.69-.12-.414-.044-.454.715-.794.45-.203.972-.377 1.437-.487.923-.216 2.065-.258 2.895-.178a7.15 7.15 0 0 1 2.823.885c-.16.235-.13.35-.098.568l.015.114.004.08c-.588-.013-.986-.053-1.628.113-.273.07-.548.22-.808.278-.353.078-1.976-.017-3.86 1.11zm60.988-23.328l.77-.463c.216-.292 1.032-.76 1.094-1.47.034-.407-.427-1.06-1.394-1.254-2.09-.423-5.59 1.84-5.876.67-.197-.805 2.985-1.687 3.1-1.765.354-.236.452-1.098-1.483-.552-3.43.97-4.72 3.328-1.65 3.647 1.526.157 3.827-1.05 4.898-1.017 1.227.038.498.88-.073 1.264-.755.507-1.52.723-2.403.908-1.1.23-.628 1.036.593.814 1.242-.223 1.878-.64 2.42-.78zm-39.74 17.98c-.81.485-1.62.97-2.423 1.457-1.54.935-1.875.126-1.837-.055.075-.352 3.628-2.38 4.354-2.782 1.003-.558 1.62-.054 1.64.467l.223 2.022c.033.245.055.412.067.65.013.212.055.465.088.687.037.243 0 .4.108.62.767-.46 1.534-.92 2.297-1.382.37-.225.766-.52 1.212-.51.473.01.77.29.727.516-.064.33-3.62 2.35-4.328 2.758-.7.4-1.505.355-1.626-.44-.074-.492-.36-3.697-.504-4.005zm15.855-3.61c-1.188.137-1.436-.257-2.42-.822-.693-.397-1.742-.927-2.212-1.383-.854-.827-.717-2.047.703-2.925 1.495-.922 3.495-1.013 4.96-.558.727.226 2.88 1.49 3.643 1.956.542.33.37.415.29.746l-.432.26c-.884.084-.67.19-1.82-.47-1.535-.888-3.47-2.445-5.4-1.23-1.35.85-.33 1.59.6 2.123.586.336 1.17.674 1.755 1.01.83.474.988.455.743 1.047l-.407.246zm33.495-20.73c.114.736-.44.828-1.618.777-.975-.042-3.375.013-4.177-.086-.11.137-.322.69-.146.827.75.43 2.032.95 1.707 1.45-.203.315-.69.424-1.092.387-.473-.045-.897-.376-1.267-.59-.716-.41-7.094-4.02-7.416-4.276-.61-.484.456-1.21 1.408-.79 1.133.5 3.58 2.174 4.962 2.825.23-.49.615-3.033.938-3.296.353-.286 1.017-.31 1.388-.075.353.22.157.592.108.835-.055.272-.41 1.51-.344 1.656.453.048.84.017 1.258.025l3.895.1.4.23zm-16.198 10.324c-1.018.256-.992.567-3.028.642-3.313.12-5.85-2.314-3.43-4.188 1.642-1.27 4.206-1.404 5.98-.732 1.755.667.55.984-.71 1.74-.876.528-2.29 1.29-3.02 1.835.77.428 1.93.392 2.75.12 2.457-.813 1.165-2.266 2.596-2.308 1.2-.035.737 1.11.474 1.503-.19.286-.634.614-.808.9l-.805.485zm-5.13-1.29c-.85-.45-.64-1.37.25-1.897.897-.53 2.405-.638 3.206-.184l-3.455 2.08zm-17.318 14.794l.805-.485c.165-.265.594-.574.8-.896 1.138-1.775-1.096-1.955-1.27-.877-.276 1.698-3.362 2.335-4.524 1.528l3.063-1.842c1.295-.78 2.42-1.07.58-1.74-1.758-.643-4.312-.485-5.904.763-2.25 1.765-.264 4.2 3.48 4.197 1.532 0 2.337-.494 2.97-.65zm-5.13-1.296l3.46-2.075c-.68-.434-2.218-.41-3.217.19-.91.543-1.06 1.42-.243 1.884zm14.74-10.506c2.206-1.76 6.473.3 4.43 1.898-2.207 1.73-6.5-.248-4.43-1.898z"/><path fill-rule="evenodd" clip-rule="evenodd" fill="#246EB7" d="M95.08 421.33l11.555 1.504-5.447 1.712-6.028-3.147c-.245 1.373 2.255 4.77 1.448 7.564-.32 1.11-.7 1.68-2.695 2.423 2.47.603 6.93 1.01 9.29 1.155 1.997.122 3.38-.287 4.5-1.41 3.34-3.348-5.173-10.64 1.772-13.054-.955-.295-3.68-.605-4.757-.734a90.02 90.02 0 0 0-4.777-.434c-.86-.055-1.432-.07-2.394.288-2.406.895-2.94 2.794-2.465 4.13zm6.6 8.75l-4.632-3.18c-.02-.016-.04-.037-.055-.052l-.107-.174 11.354 1.36-6.56 2.045zm.746-10.76l-2.86-2.077c1.3 0 3.12.216 4.573.396.84.102 3.914.47 4.523.647l-6.238 1.032z"/><path fill-rule="evenodd" clip-rule="evenodd" fill="#000019" d="M156.61 388.483l2.253 1.455c-2.723 1.463-2.838 3.268-1.057 4.702 2.923 2.353 5.928.573 5.52-1.274l1.103.545c1.086-.52.7-.305 1.586-.92-2.958-1.87-5.753-4.69-7.577-5.52-1.11.434-.868.36-1.83 1.014zm-22.277 12.885c.986.48 1.467.906 2.224 1.466-2.608 1.55-2.857 3.115-1.085 4.627.93.796 2.388 1.468 3.728 1.11 1.093-.29 1.792-1.04 1.87-1.675l.03-.615 1.083.52 1.59-.88c-.602-.464-1.41-.903-2.025-1.367-.61-.457-1.183-.945-1.77-1.422-.843-.68-2.65-2.32-3.786-2.76-.717.17-1.382.637-1.86 1zm16.843-.02c-.71 1.136-3.326 2.427-5.13 2.683-3.588.51-7.46-2.394-6.555-4.782.38-.997 2.124-2.556 4.225-2.875.46.314.77.688.847 1.04-1.327.543-2.197.807-2.632 1.72-.3.632-.09 1.23.504 1.882 1.444 1.578 3.47 2.256 5.91.57l-2.445-1.95c.27-.378.986-.804 1.603-1.007.35.01.07-.054.408.094l3.27 2.628zm-33.856 17.855c.397.436.453.667 1.07 1.11 1.91-.765 3.523-1.222 4.43-2.587.573-.862.457-2.237-1.638-2.813-1.622-.446-3.628.375-5.088.334-1.305-.036-1.402-.732-.73-1.246.894-.68 1.52-.722 2.565-1.096-.25-.376-.428-.683-.955-1.062-7.2 2.464-3.824 4.93-1.597 4.92 2.266-.008 4.078-.843 4.993-.116 1.494 1.185-2.57 2.36-3.052 2.56zm11.532-10.66c-.226-1.772 2.175-2.735 3.802-2.042.944.404 3.644 2.663 4.396 3.327l-1.782 1.003c-1.766-1.147-3.357-3.35-4.666-2.873-2.048.75 1.97 3.38 2.645 3.996-.42.402-1.063.766-1.75 1.026-.79-.495-1.8-1.43-2.504-2.008-.91-.745-1.872-1.29-2.794-1.984 1.793-1.36 1.815-.765 2.65-.446zm1.562 4.778c-1.17 1.39-3.475 2.726-5.71 2.343-2.077-.355-3.518-1.88-3.258-3.21.127-.653.625-1.332 1.786-1.882 2.25-1.066 4.702.047 3.672 1.7-.473.76-1.423 1.233-1.876 1.838 1.925.944 3.39-1.034 3.78-1.348.528.115 1.074.28 1.606.56zm21.925-12.37l1.75-1.02c-.813-.72-1.786-1.383-2.537-2.108-.886-.854-.875-1.39.633-2.167-.334-.32-.634-.705-1.255-.98-1.202.465-1.524 1.24-1.29 1.85l-1.02-.495c-.76.304-1.1.538-1.63.928 2.306 1.27 3.4 2.768 5.35 3.992zm.34-5.788c-1.355-.76-1.59-.77 1.484-2.337l5.1 4.112c-.985.647-.6.452-1.724.988-1.117-.7-3.11-2.748-4.117-3.184l-.743.42zm-14.964 8.635c.943.624 2.307 1.773 2.142 2.64-.233 1.212-2.462.797-3.22-.84-.297-.64-.24-1.108 1.077-1.8zm22.258-12.89c.707.48 1.546 1.2 1.887 1.74.245.39.593 1.676-.856 1.604-.73-.037-3.923-1.755-1.03-3.343zm-36.137 22.502c-.668-.61-.942-1.585.613-1.98 1.5.394.478 1.36-.612 1.978z"/><path fill-rule="evenodd" clip-rule="evenodd" fill="#246EB7" d="M108.043 425.188c2.555-1.6 5.72-3.583 4.74-5.597-.293-.6-1.44-1.353-2.626-1.343-2.635.022-3.11 2.7-3.086 3.265.03.67.315 2.945.974 3.678zM95.503 424.226c-1.58.747-4.026 2.77-4.626 3.736-.404.65-.506 1.234-.188 1.845.305.59 1.352 1.405 2.59 1.39 1.15-.012 2.21-.84 2.614-1.458.88-1.35.318-4.467-.392-5.515zM151.377 393.205c1.115-.515.844-.382 1.768-.982-.023-.08.003-.052-.067-.175a.93.93 0 0 0-.166-.217c-1.048-1.09-1.365-.63-2.08-.217-.87.505-1.254.6.545 1.593z"/><path fill-rule="evenodd" clip-rule="evenodd" fill="#45515A" d="M281.45 352.697c.945-.566 1.205-1.172 1.14-1.7l.745.425 1.377-.826-3.526-2.02c-.777-.445-1.62-.68-2.503-.653-.86.014-1.785.29-2.708.846-.98.586-1.455 1.095-1.84 1.67l1.445.39c.335-.468.7-.86 1.39-1.273.994-.596 1.982-.66 2.827-.176l.146.086a8.68 8.68 0 0 0-1.905.852c-1.507.902-1.915 1.887-.63 2.623l.022.014c1.194.683 2.864.434 4.02-.26zm-.595-.806c-.678.408-1.53.536-2.104.206l-.02-.012c-.62-.354-.454-.89.457-1.437a6.835 6.835 0 0 1 1.637-.705l.406.233c.753.433.56 1.158-.375 1.718zm4.912-1.926l-5.95-3.407 1.413-.848.913.52c-.155-.553-.067-1.174.89-1.75 1.39-.83 3.098-.8 4.473-.01l3.797 2.174-1.413.848-3.38-1.935c-.925-.53-1.933-.547-2.774-.042-.816.49-.837 1.15.087 1.68l3.358 1.922-1.412.848zm9.27-5.414c1.005-.604 1.15-1.272.986-1.9l.992.567 1.413-.847-8.227-4.712-1.41.848 3.2 1.833c-1.008-.058-2.136.05-3.15.66-1.47.88-1.745 2.353.227 3.482l.022.013c1.972 1.13 4.5.92 5.95.053zm-.844-.882c.946-.567 1.02-1.51-.118-2.162l-.023-.013c-1.148-.658-2.745-.587-3.69-.02-.97.58-1.055 1.478.13 2.155l.02.013c1.15.66 2.723.604 3.68.03zm8.874-4.08l-5.95-3.407 1.413-.846.9.517c-.13-.54-.09-1.146.856-1.714.888-.532 1.935-.67 2.893-.507-.14-.655.095-1.286 1.03-1.847 1.34-.806 2.98-.824 4.436.008l3.798 2.176-1.413.848-3.38-1.937c-.946-.542-1.91-.56-2.703-.083-.77.463-.802 1.088.156 1.637l3.358 1.924-1.412.848-3.394-1.94c-.923-.53-1.908-.547-2.69-.078-.784.47-.757 1.114.156 1.637l3.357 1.923-1.413.847zm13.522-7.95c1.9-1.14 1.894-2.788.204-3.756l-.022-.013c-1.702-.977-4.478-.937-6.37.2-1.89 1.132-1.884 2.78-.183 3.754l.02.013c1.69.968 4.467.928 6.348-.2zm-1.174-.697c1.146-.685 1.013-1.61-.013-2.196l-.022-.014c-1.05-.6-2.7-.628-3.807.037-1.133.68-1 1.604.035 2.198l.022.013c1.038.594 2.687.62 3.785-.037zm5.14-1.837l-5.95-3.408 1.412-.847 1.34.768c-.505-.74-.4-1.517.73-2.142l1.442.826-.082.048c-1.238.742-1.325 1.706.253 2.61l2.266 1.297-1.412.847zm6.933-4c1.133-.68 1.497-1.414 1.405-2.15l-1.538.09c-.028.56-.27.994-.96 1.407-.912.546-2.165.663-3.285.2l4.53-2.718a5.005 5.005 0 0 0-.36-.234c-1.712-.98-4.192-1.237-6.154-.06-1.764 1.056-1.617 2.606.085 3.58l.023.013c1.836 1.055 4.465.944 6.252-.127zm-5.29-.962l3.163-1.9c-.973-.444-2.197-.517-3.132.044-.863.518-.827 1.25-.032 1.857zm8.53-1.14l1.554-.93-1.555-.893-1.555.932 1.556.89zm2.503-1.5l-1.555-.89 1.553-.933 1.556.89-1.554.933zm2.503-1.5l1.554-.932-1.556-.89-1.554.93 1.557.892z"/><path fill-rule="evenodd" clip-rule="evenodd" fill="#E6E7E8" d="M221.51 23.143v11.31c-.024 5.478 3.432 10.963 10.368 15.12 13.828 8.288 36.453 8.288 50.28 0 6.904-4.137 10.36-9.59 10.37-15.044V23.14h-.003c.07-5.517-3.384-11.048-10.366-15.233h-.003c-13.827-8.288-36.452-8.288-50.28 0-6.983 4.184-10.438 9.715-10.367 15.232z"/><path fill-rule="evenodd" clip-rule="evenodd" fill="#A7A9AC" d="M219.814 23.143V21.45h.087c.27-2.58 1.22-5.126 2.855-7.527 1.86-2.733 4.613-5.28 8.256-7.462C238.198 2.155 247.62 0 257.02 0c9.216 0 18.46 2.072 25.59 6.215h.008l.41.245c3.643 2.183 6.395 4.73 8.256 7.462 1.633 2.4 2.583 4.946 2.853 7.526h.088V36.22h-.107c-.3 2.55-1.266 5.062-2.897 7.43-1.863 2.7-4.596 5.213-8.194 7.37l-.41.245h-.006c-7.13 4.143-16.374 6.215-25.59 6.215-9.396 0-18.82-2.153-26.007-6.46-3.62-2.17-6.36-4.696-8.222-7.412-1.99-2.902-2.977-6.02-2.966-9.16h-.007V23.144h-.002zm3.39 0v.326l.017 1.366h-.016v9.615l-.007.007c-.01 2.445.785 4.913 2.385 7.247 1.594 2.324 3.98 4.51 7.164 6.418 6.64 3.98 15.443 5.97 24.273 5.97s17.63-1.99 24.272-5.97l.01-.007c3.166-1.9 5.543-4.073 7.136-6.383 1.598-2.318 2.398-4.77 2.403-7.205h-.007v-9.69h-.02l.02-1.45v-.244h.003v-.02c.03-2.464-.75-4.947-2.35-7.295-1.592-2.34-3.986-4.544-7.184-6.462l-.01-.008c-6.643-3.98-15.444-5.97-24.274-5.97s-17.632 1.99-24.273 5.97c-3.204 1.92-5.602 4.125-7.197 6.47-1.598 2.347-2.38 4.83-2.35 7.293v.02h.007z"/><path fill-rule="evenodd" clip-rule="evenodd" fill="#E6E7E8" d="M231.878 15.732c-3.623 2.17-6.294 4.705-8.02 7.41h-2.35v11.31c-.023 5.478 3.433 10.963 10.37 15.12 13.826 8.288 36.452 8.288 50.28 0 6.903-4.137 10.358-9.59 10.368-15.044V23.143h-2.352c-1.725-2.705-4.396-5.24-8.018-7.41-13.825-8.287-36.45-8.287-50.278 0z"/><path fill-rule="evenodd" clip-rule="evenodd" fill="#A7A9AC" d="M232.014 15.96c-1.77 1.06-3.31 2.208-4.62 3.42-1.347 1.243-2.45 2.553-3.312 3.904l-.078.124h-2.23V34.45c-.013 2.74.864 5.483 2.63 8.057 1.706 2.488 4.242 4.82 7.61 6.837 6.87 4.118 15.934 6.177 25.002 6.177 9.07 0 18.134-2.06 25.004-6.175 3.353-2.01 5.882-4.327 7.59-6.803 1.764-2.56 2.648-5.288 2.652-8.013V23.407h-2.232l-.078-.124c-.86-1.35-1.966-2.66-3.31-3.904-1.313-1.212-2.854-2.36-4.622-3.42-6.87-4.118-15.935-6.177-25.004-6.177-9.067 0-18.13 2.06-25.002 6.177zm-4.98 3.03c1.336-1.235 2.906-2.404 4.708-3.484 6.956-4.17 16.12-6.253 25.275-6.253 9.158 0 18.32 2.084 25.276 6.253 1.803 1.08 3.37 2.25 4.707 3.484 1.338 1.235 2.444 2.54 3.32 3.887h2.473v11.916h-.005c-.06 2.745-.975 5.482-2.744 8.05-1.748 2.537-4.332 4.907-7.75 6.957-6.957 4.17-16.12 6.253-25.277 6.253-9.156 0-18.32-2.083-25.275-6.253-3.435-2.06-6.027-4.443-7.776-6.993-1.827-2.663-2.734-5.508-2.722-8.355V22.877h2.472c.874-1.348 1.98-2.652 3.317-3.887z"/><path fill-rule="evenodd" clip-rule="evenodd" fill="#FFF" d="M231.878 7.91c-13.827 8.286-13.827 21.847 0 30.133 13.827 8.287 36.453 8.287 50.28 0 13.826-8.286 13.826-21.847 0-30.133-13.827-8.287-36.453-8.287-50.28 0z"/><path fill-rule="evenodd" clip-rule="evenodd" fill="#A7A9AC" d="M232.014 8.137c-3.76 2.254-6.487 4.9-8.176 7.718-1.376 2.296-2.064 4.71-2.064 7.122 0 2.413.688 4.826 2.064 7.123 1.69 2.818 4.415 5.463 8.176 7.717 6.87 4.118 15.935 6.177 25.003 6.177 9.07 0 18.134-2.06 25.004-6.177 3.764-2.254 6.49-4.9 8.178-7.717 1.376-2.297 2.064-4.71 2.064-7.123 0-2.412-.687-4.825-2.063-7.122-1.69-2.82-4.415-5.464-8.177-7.718-6.87-4.118-15.934-6.177-25.003-6.177-9.068 0-18.132 2.06-25.003 6.177zm-8.63 7.446c1.733-2.892 4.52-5.6 8.358-7.9 6.956-4.17 16.12-6.254 25.275-6.254 9.158 0 18.32 2.082 25.276 6.252 3.84 2.3 6.625 5.008 8.358 7.9 1.43 2.382 2.144 4.887 2.144 7.394s-.714 5.012-2.142 7.394c-1.732 2.893-4.52 5.6-8.357 7.9-6.956 4.17-16.118 6.255-25.276 6.255-9.157 0-18.32-2.085-25.276-6.254-3.84-2.3-6.625-5.006-8.358-7.9-1.428-2.38-2.142-4.885-2.142-7.392s.715-5.013 2.142-7.394zM292.76 44.347c.898.516 1.21 1.66.692 2.56a1.876 1.876 0 0 1-2.56.69l-6.264-3.606a1.873 1.873 0 1 1 1.87-3.247l6.263 3.605z"/><path fill-rule="evenodd" clip-rule="evenodd" fill="#A7A9AC" d="M291.338 46.613a.753.753 0 0 1 .765-1.294l78.587 46.65c5.014 2.976 9.644 6.643 12.047 10.687 1.02 1.715 1.645 3.504 1.737 5.346.093 1.854-.354 3.74-1.478 5.63-1.457 2.455-4.06 4.918-8.116 7.33L260.203 189.14l-.04.023c-8.5 4.842-14.657 6.714-19.992 6.614-5.372-.1-9.837-2.186-14.963-5.25l-15.128-8.795a.75.75 0 0 1 .752-1.3l15.13 8.795.01.005c4.924 2.947 9.19 4.95 14.226 5.046 5.065.095 10.98-1.723 19.227-6.42l.018-.01 114.68-68.176c3.824-2.274 6.254-4.557 7.586-6.8.964-1.625 1.35-3.23 1.27-4.795-.08-1.578-.63-3.137-1.53-4.653-2.26-3.797-6.693-7.293-11.52-10.157l-78.59-46.652z"/><path fill-rule="evenodd" clip-rule="evenodd" fill="#E6E7E8" d="M419.65 83.813h-.002v11.31c-.022 5.48 3.433 10.963 10.37 15.12 13.825 8.287 36.45 8.287 50.278 0 6.903-4.138 10.36-9.59 10.37-15.045V83.814h-.003c.07-5.518-3.384-11.05-10.367-15.234-13.827-8.287-36.453-8.287-50.28 0-6.982 4.185-10.436 9.716-10.366 15.233z"/><path fill-rule="evenodd" clip-rule="evenodd" fill="#A7A9AC" d="M417.954 83.813V82.12h.087c.27-2.58 1.22-5.126 2.856-7.527 1.86-2.733 4.612-5.28 8.256-7.462 7.187-4.305 16.612-6.46 26.008-6.46s18.82 2.155 26.007 6.46c3.644 2.185 6.396 4.73 8.256 7.464 1.635 2.4 2.586 4.947 2.855 7.526h.088v14.772h-.107c-.3 2.548-1.267 5.06-2.898 7.43-1.862 2.7-4.594 5.212-8.193 7.37-7.188 4.307-16.61 6.46-26.008 6.46s-18.82-2.153-26.007-6.46c-3.618-2.168-6.36-4.696-8.222-7.41-1.99-2.903-2.978-6.022-2.967-9.16h-.007v-11.31h-.003zm3.39 0v.322l.016 1.372h-.017v9.615l-.007.007c-.01 2.443.785 4.91 2.385 7.244 1.596 2.323 3.98 4.51 7.166 6.418 6.64 3.98 15.442 5.97 24.272 5.97s17.632-1.99 24.272-5.97c3.17-1.9 5.552-4.077 7.146-6.39 1.597-2.317 2.397-4.77 2.4-7.205h-.005v-9.69h-.017l.02-1.456v-.236h.003v-.02c.03-2.463-.752-4.947-2.35-7.294-1.595-2.344-3.993-4.55-7.197-6.47-6.64-3.98-15.443-5.97-24.273-5.97s-17.632 1.99-24.272 5.97c-3.204 1.92-5.603 4.125-7.197 6.47-1.6 2.346-2.38 4.83-2.35 7.292v.02h.006z"/><path fill-rule="evenodd" clip-rule="evenodd" fill="#E6E7E8" d="M430.018 76.404c-3.62 2.17-6.293 4.704-8.02 7.41h-2.35V95.12c-.022 5.48 3.434 10.964 10.37 15.12 13.826 8.288 36.45 8.288 50.278 0 6.904-4.137 10.36-9.59 10.37-15.044V83.814h-2.352c-1.724-2.706-4.396-5.24-8.02-7.41-13.824-8.287-36.45-8.287-50.276 0z"/><path fill-rule="evenodd" clip-rule="evenodd" fill="#A7A9AC" d="M430.154 76.63c-1.77 1.06-3.31 2.208-4.62 3.42-1.347 1.244-2.45 2.554-3.312 3.905l-.08.124h-2.228v11.04h-.002c-.01 2.74.866 5.482 2.63 8.057 1.708 2.488 4.243 4.818 7.61 6.836 6.872 4.118 15.936 6.177 25.004 6.177 9.07 0 18.134-2.06 25.005-6.177 3.354-2.008 5.88-4.327 7.59-6.803 1.764-2.56 2.65-5.288 2.652-8.014V84.078h-2.23l-.08-.125c-.86-1.35-1.964-2.662-3.31-3.905-1.312-1.212-2.853-2.36-4.62-3.42-6.87-4.117-15.936-6.176-25.005-6.176-9.066 0-18.13 2.06-25 6.176zm-4.98 3.03c1.337-1.235 2.905-2.403 4.708-3.484 6.957-4.168 16.118-6.253 25.275-6.253 9.158 0 18.32 2.084 25.276 6.253 1.802 1.08 3.37 2.25 4.708 3.484 1.34 1.235 2.445 2.54 3.32 3.887h2.473v11.917h-.004c-.06 2.745-.976 5.482-2.745 8.05-1.748 2.536-4.332 4.907-7.75 6.956-6.957 4.17-16.12 6.254-25.277 6.254s-18.318-2.084-25.275-6.254c-3.435-2.06-6.027-4.442-7.775-6.993-1.826-2.663-2.733-5.508-2.723-8.355V83.547h2.472c.873-1.347 1.98-2.65 3.317-3.887z"/><path fill-rule="evenodd" clip-rule="evenodd" fill="#FFF" d="M430.018 68.58c-13.826 8.287-13.826 21.847 0 30.134 13.827 8.286 36.452 8.286 50.28 0 13.827-8.287 13.827-21.847 0-30.134-13.828-8.287-36.453-8.287-50.28 0z"/><path fill-rule="evenodd" clip-rule="evenodd" fill="#A7A9AC" d="M429.882 68.353C436.84 64.183 446 62.1 455.157 62.1c9.158 0 18.32 2.084 25.276 6.253 3.838 2.3 6.625 5.01 8.358 7.9 1.43 2.382 2.143 4.887 2.143 7.394 0 2.506-.714 5.012-2.14 7.394-1.734 2.894-4.522 5.6-8.36 7.903-6.955 4.168-16.117 6.253-25.275 6.253-9.157 0-18.318-2.085-25.274-6.253-3.84-2.302-6.626-5.01-8.36-7.9-1.427-2.383-2.14-4.89-2.14-7.395 0-2.507.713-5.012 2.14-7.394 1.734-2.892 4.52-5.6 8.36-7.9zm.272.455c-3.762 2.254-6.487 4.898-8.176 7.717-1.377 2.297-2.065 4.71-2.065 7.123s.688 4.826 2.065 7.122c1.688 2.82 4.414 5.463 8.176 7.717 6.87 4.118 15.935 6.177 25.003 6.177 9.07 0 18.134-2.06 25.005-6.177 3.76-2.254 6.486-4.898 8.175-7.717 1.377-2.296 2.065-4.71 2.065-7.122s-.688-4.826-2.065-7.123c-1.688-2.818-4.413-5.462-8.175-7.717-6.87-4.118-15.936-6.177-25.005-6.177-9.068 0-18.132 2.06-25.003 6.18zM424.678 109.994a1.875 1.875 0 0 1-1.87-3.25l6.265-3.607a1.876 1.876 0 0 1 1.87 3.252l-6.265 3.603z"/><path fill-rule="evenodd" clip-rule="evenodd" fill="#A7A9AC" d="M423.446 107.675a.75.75 0 0 1 .746 1.3l-112.29 64.638c-.358.206-.816.083-1.022-.276s-.082-.817.276-1.024l112.29-64.637zM321.98 181.67a.75.75 0 1 1-.747-1.3l28.71-16.524v-.002c8.717-5.423 14.624-7.65 20.267-7.45 5.644.2 10.895 2.818 18.346 7.083.02.01.036.022.054.034l57.37 33.068.017.01c2.075 1.272 3.83 2.873 4.79 4.712.53 1.018.82 2.11.787 3.262-.03 1.145-.38 2.33-1.122 3.538-1.315 2.143-3.887 4.38-8.166 6.61l-.028.015-65.18 36.39c-3.44 1.92-5.687 4.12-6.916 6.36-.79 1.443-1.158 2.9-1.15 4.31.007 1.404.388 2.77 1.092 4.03.998 1.79 2.65 3.37 4.823 4.56a.17.17 0 0 0 .035.022l39.447 22.794c.357.21.48.67.272 1.028a.75.75 0 0 1-1.026.273L374.21 271.7l-.01-.004c-2.42-1.327-4.272-3.112-5.41-5.148-.824-1.48-1.27-3.09-1.28-4.755-.01-1.66.417-3.366 1.333-5.037 1.357-2.476 3.797-4.88 7.504-6.95l65.178-36.387c.02-.014.044-.027.066-.04 4.02-2.095 6.4-4.14 7.58-6.058.597-.976.88-1.91.903-2.797.024-.875-.203-1.724-.622-2.527-.823-1.58-2.38-2.986-4.236-4.125h.002L387.86 164.81l-.053-.027c-7.255-4.153-12.343-6.7-17.65-6.888-5.312-.19-10.974 1.97-19.42 7.226h-.002l-.022.014-28.734 16.538z"/><path fill-rule="evenodd" clip-rule="evenodd" fill="#E6E7E8" d="M167.76 194.065h-.004v19.113c-.058 13.774 8.63 27.562 26.065 38.012 34.76 20.83 91.636 20.83 126.394 0 17.355-10.402 26.044-24.11 26.067-37.82v-19.304h-.007c.178-13.87-8.505-27.77-26.06-38.292-34.758-20.832-91.634-20.832-126.392 0-17.553 10.52-26.236 24.423-26.06 38.29z"/><path fill-rule="evenodd" clip-rule="evenodd" fill="#A7A9AC" d="M166.06 194.065v-1.695h.034c.254-6.843 2.556-13.647 6.906-20.04 4.475-6.576 11.127-12.717 19.953-18.007l.41-.245h.005c17.6-10.415 40.637-15.624 63.65-15.624 23.01 0 46.048 5.21 63.647 15.624h.005l.41.245c8.825 5.29 15.477 11.43 19.952 18.007 4.35 6.393 6.652 13.197 6.906 20.04h.035v22.693h-.052c-.344 6.763-2.69 13.48-7.04 19.79-4.476 6.494-11.077 12.557-19.8 17.786l-.41.243h-.005c-17.6 10.414-40.64 15.623-63.648 15.623-23.012 0-46.05-5.21-63.65-15.623h-.005l-.408-.245c-8.767-5.256-15.39-11.352-19.868-17.88-4.708-6.868-7.048-14.216-7.018-21.582h-.007v-19.113zm3.39 0v.06l.02 1.633h-.02v17.42l-.007.005c-.028 6.674 2.117 13.37 6.436 19.67 4.205 6.133 10.47 11.887 18.795 16.878l.012.01c17.106 10.252 39.703 15.38 62.33 15.38 22.625 0 45.222-5.128 62.328-15.38l.013-.01c8.29-4.97 14.535-10.693 18.743-16.796 4.316-6.262 6.48-12.922 6.49-19.565h-.005v-17.612h-.023l.02-1.714c.088-6.72-2.027-13.465-6.344-19.807-4.208-6.184-10.5-11.983-18.882-17.008l-.013-.008c-17.106-10.252-39.703-15.378-62.328-15.378-22.626 0-45.223 5.126-62.33 15.38l-.012.006c-8.38 5.025-14.674 10.824-18.883 17.008-4.316 6.342-6.43 13.088-6.344 19.807v.022z"/><path fill-rule="evenodd" clip-rule="evenodd" fill="#EDEDEE" d="M193.822 175.44c-9.105 5.456-15.822 11.824-20.156 18.625h-5.91v19.113c-.058 13.774 8.63 27.562 26.065 38.012 34.76 20.83 91.636 20.83 126.394 0 17.355-10.402 26.044-24.11 26.067-37.82v-19.304h-5.91c-4.334-6.8-11.05-13.17-20.156-18.626-34.757-20.833-91.633-20.833-126.39 0z"/><path fill-rule="evenodd" clip-rule="evenodd" fill="#A7A9AC" d="M193.686 175.212c17.42-10.442 40.38-15.663 63.332-15.663 22.953 0 45.91 5.22 63.332 15.66 4.506 2.7 8.43 5.624 11.77 8.71 3.398 3.14 6.196 6.453 8.396 9.877h6.035v19.836h-.002c-.068 6.954-2.346 13.898-6.834 20.41-4.363 6.33-10.817 12.25-19.36 17.372-17.422 10.44-40.38 15.662-63.333 15.662-22.952 0-45.91-5.22-63.33-15.662-8.583-5.145-15.057-11.096-19.42-17.46-4.546-6.628-6.804-13.704-6.774-20.778V193.8h6.028c2.2-3.425 4.997-6.738 8.396-9.878 3.337-3.087 7.26-6.01 11.766-8.71zm.272.455c-4.472 2.68-8.365 5.58-11.682 8.646-3.407 3.148-6.202 6.467-8.387 9.895l-.08.124h-5.79v18.848c-.03 6.967 2.198 13.94 6.68 20.478 4.324 6.302 10.74 12.2 19.257 17.306 17.337 10.39 40.196 15.585 63.06 15.585 22.865 0 45.725-5.197 63.062-15.587 8.475-5.08 14.873-10.95 19.195-17.22 4.482-6.503 6.73-13.438 6.74-20.373v-19.037h-5.785l-.08-.125c-2.184-3.428-4.98-6.747-8.386-9.896-3.316-3.064-7.21-5.965-11.68-8.645-17.338-10.39-40.197-15.585-63.063-15.585-22.862 0-45.722 5.194-63.06 15.585z"/><path fill-rule="evenodd" clip-rule="evenodd" fill="#FFF" d="M193.822 155.773c-34.757 20.83-34.757 54.918 0 75.75 34.758 20.83 91.634 20.83 126.392 0 34.758-20.83 34.758-54.918 0-75.75-34.758-20.83-91.634-20.83-126.392 0z"/><path fill-rule="evenodd" clip-rule="evenodd" fill="#A7A9AC" d="M193.958 156c-9.514 5.702-16.41 12.397-20.69 19.538-3.5 5.837-5.248 11.974-5.248 18.11 0 6.135 1.75 12.27 5.248 18.108 4.28 7.14 11.176 13.836 20.69 19.54 17.337 10.39 40.196 15.584 63.06 15.584 22.865 0 45.725-5.195 63.062-15.585 9.513-5.702 16.41-12.397 20.69-19.54 3.498-5.836 5.247-11.973 5.247-18.108s-1.75-12.27-5.247-18.11c-4.28-7.14-11.178-13.835-20.69-19.537-17.337-10.39-40.197-15.586-63.062-15.586-22.864 0-45.724 5.196-63.06 15.586zm-21.146 19.267c4.324-7.215 11.282-13.973 20.873-19.72 17.42-10.442 40.38-15.663 63.332-15.663 22.953 0 45.91 5.22 63.332 15.662 9.59 5.75 16.55 12.506 20.872 19.72 3.55 5.924 5.325 12.152 5.325 18.382 0 6.23-1.775 12.458-5.325 18.38-4.323 7.215-11.28 13.974-20.874 19.722-17.422 10.44-40.38 15.662-63.333 15.662-22.953 0-45.91-5.22-63.33-15.662-9.593-5.75-16.55-12.507-20.875-19.72-3.55-5.924-5.324-12.152-5.324-18.382 0-6.23 1.775-12.458 5.324-18.38zM320.08 156z"/><path fill-rule="evenodd" clip-rule="evenodd" fill="#E6E7E8" d="M406.273 307.328h-.002v11.31c-.02 5.478 3.435 10.963 10.37 15.12 13.827 8.287 36.454 8.287 50.28 0 6.904-4.14 10.36-9.59 10.37-15.045V307.33h-.003c.07-5.52-3.385-11.05-10.367-15.233-13.827-8.288-36.454-8.288-50.28 0-6.983 4.183-10.437 9.713-10.367 15.23z"/><path fill-rule="evenodd" clip-rule="evenodd" fill="#A7A9AC" d="M404.577 307.328v-1.694h.087c.27-2.58 1.22-5.126 2.854-7.526 1.86-2.733 4.612-5.278 8.256-7.462 7.186-4.307 16.61-6.46 26.007-6.46 9.398 0 18.823 2.153 26.01 6.46 3.643 2.184 6.395 4.73 8.256 7.462 1.634 2.4 2.584 4.946 2.853 7.526h.086v14.773h-.106c-.3 2.548-1.267 5.062-2.898 7.43-1.86 2.7-4.593 5.213-8.192 7.37-7.186 4.307-16.61 6.46-26.007 6.46-9.396 0-18.82-2.153-26.007-6.46-3.618-2.17-6.36-4.697-8.222-7.412-1.99-2.9-2.98-6.02-2.968-9.158h-.007V307.33h-.004zm3.39 0v.32l.017 1.373h-.018v9.617l-.007.007c-.01 2.445.783 4.913 2.383 7.246 1.594 2.322 3.98 4.51 7.164 6.418 6.642 3.98 15.442 5.97 24.272 5.97s17.63-1.99 24.272-5.97c3.17-1.9 5.552-4.078 7.146-6.39 1.597-2.32 2.397-4.772 2.4-7.206h-.004v-9.693h-.02l.02-1.45v-.243h.002v-.02c.032-2.464-.75-4.947-2.348-7.295-1.595-2.344-3.994-4.55-7.197-6.47-6.642-3.98-15.442-5.97-24.272-5.97s-17.63 1.99-24.272 5.97c-3.204 1.92-5.604 4.126-7.197 6.47-1.598 2.348-2.38 4.83-2.35 7.294v.02h.005z"/><path fill-rule="evenodd" clip-rule="evenodd" fill="#E6E7E8" d="M416.642 299.918c-3.623 2.17-6.294 4.704-8.02 7.41h-2.35v11.308c-.023 5.48 3.433 10.964 10.37 15.12 13.825 8.288 36.45 8.288 50.277 0 6.902-4.138 10.36-9.59 10.37-15.044v-11.385h-2.353c-1.726-2.705-4.396-5.24-8.02-7.41-13.824-8.288-36.45-8.288-50.276 0z"/><path fill-rule="evenodd" clip-rule="evenodd" fill="#A7A9AC" d="M416.776 300.145c-1.768 1.06-3.308 2.208-4.62 3.42-1.346 1.244-2.45 2.553-3.31 3.904l-.08.12h-2.23v11.045c-.012 2.74.865 5.482 2.63 8.057 1.706 2.488 4.243 4.818 7.61 6.837 6.87 4.116 15.936 6.176 25.004 6.176s18.133-2.06 25.003-6.177c3.352-2.01 5.882-4.328 7.588-6.805 1.766-2.56 2.65-5.288 2.656-8.014h-.002v-11.12h-2.23l-.08-.123c-.86-1.353-1.964-2.66-3.31-3.905-1.31-1.212-2.85-2.36-4.62-3.42-6.87-4.117-15.936-6.177-25.004-6.177s-18.133 2.06-25.004 6.177zm-4.978 3.03c1.336-1.235 2.905-2.404 4.708-3.484 6.956-4.17 16.118-6.252 25.275-6.252s18.32 2.084 25.277 6.254c1.803 1.08 3.37 2.25 4.708 3.484 1.337 1.236 2.442 2.54 3.317 3.887h2.476v11.92h-.005c-.06 2.744-.974 5.48-2.743 8.05-1.748 2.535-4.332 4.906-7.75 6.956-6.957 4.17-16.12 6.252-25.276 6.252-9.156 0-18.318-2.084-25.274-6.253-3.436-2.06-6.028-4.444-7.776-6.995-1.826-2.66-2.733-5.506-2.722-8.353V307.06h2.472c.874-1.347 1.98-2.65 3.318-3.886z"/><path fill-rule="evenodd" clip-rule="evenodd" fill="#FFF" d="M416.642 292.095c-13.828 8.285-13.828 21.846 0 30.133 13.826 8.287 36.452 8.287 50.278 0 13.827-8.287 13.827-21.848 0-30.133-13.826-8.288-36.452-8.288-50.278 0z"/><path fill-rule="evenodd" clip-rule="evenodd" fill="#A7A9AC" d="M416.506 291.867c6.956-4.168 16.118-6.253 25.275-6.253s18.32 2.085 25.277 6.253c3.84 2.302 6.625 5.01 8.358 7.9 1.428 2.382 2.142 4.888 2.142 7.395s-.714 5.012-2.142 7.394c-1.733 2.893-4.52 5.6-8.358 7.9-6.956 4.17-16.12 6.253-25.275 6.253-9.156 0-18.318-2.086-25.274-6.255-3.84-2.3-6.626-5.01-8.36-7.9-1.426-2.382-2.14-4.887-2.14-7.394s.714-5.012 2.14-7.394c1.734-2.892 4.52-5.6 8.36-7.9zm.27.455c-3.76 2.254-6.486 4.898-8.175 7.718-1.375 2.296-2.062 4.71-2.062 7.122s.688 4.825 2.064 7.122c1.69 2.818 4.415 5.463 8.176 7.718 6.87 4.117 15.937 6.176 25.005 6.176s18.134-2.06 25.004-6.176c3.762-2.255 6.487-4.9 8.176-7.718 1.377-2.297 2.064-4.71 2.064-7.122 0-2.413-.688-4.826-2.064-7.122-1.688-2.82-4.414-5.464-8.176-7.718-6.87-4.117-15.935-6.178-25.003-6.178s-18.133 2.06-25.004 6.178zM86.502 457.108a.75.75 0 1 1 .752 1.3l-13.03 7.575-.018.01c-5.118 3.06-9.58 5.14-14.947 5.24-5.343.1-11.51-1.774-20.023-6.63l-.035-.02-29.788-19.24c-8.67-5.603-10.59-11.095-8.806-16.138 1.736-4.906 7.06-9.27 13.018-12.838l169.087-101.255c12.574-7.53 14.385-13.61 11.202-18.927-3.004-5.017-10.328-9.528-17.44-13.91-7.002-4.313-13.805-8.505-16.393-13.117-2.68-4.775-1.014-9.804 9.07-15.462l16.012-8.98a.75.75 0 0 1 .734 1.31l-16.01 8.98c-9.104 5.11-10.728 9.435-8.494 13.417 2.4 4.277 9.037 8.367 15.87 12.575 7.266 4.477 14.748 9.086 17.94 14.415 3.637 6.076 1.83 12.872-11.72 20.986L14.394 417.655c-5.7 3.412-10.772 7.533-12.37 12.048-1.55 4.38.264 9.247 8.2 14.374l29.78 19.234c8.247 4.698 14.165 6.516 19.23 6.42 5.027-.094 9.287-2.092 14.2-5.028a.208.208 0 0 1 .036-.02l13.032-7.578z"/><path fill-rule="evenodd" clip-rule="evenodd" fill="#A7A9AC" d="M181.893 249.75a1.874 1.874 0 0 1-1.868-3.25l10.49-6.04a1.875 1.875 0 0 1 1.868 3.25l-10.49 6.04zM257.37 196.607c2.354 0 4.273-1.107 4.273-2.465 0-1.357-1.92-2.464-4.273-2.464-2.355 0-4.274 1.106-4.274 2.464 0 1.358 1.92 2.465 4.274 2.465z"/><path fill-rule="evenodd" clip-rule="evenodd" fill="#F1F2F2" d="M282.492 185.01c1.518 1.537 2.625 3.18 3.322 4.874h2.844c2.58 0 4.688 1.28 4.688 2.845v3.08c0 1.565-2.11 2.845-4.688 2.845h-2.844c-.697 1.693-1.805 3.337-3.322 4.873l2.01 1.22c1.82 1.105 1.82 2.916 0 4.022l-3.592 2.18c-1.822 1.106-4.807 1.106-6.63 0l-2.007-1.22c-2.53.922-5.24 1.594-8.028 2.018v1.726c0 1.565-2.11 2.845-4.688 2.845h-5.078c-2.58 0-4.69-1.28-4.69-2.845v-1.727c-2.79-.424-5.497-1.096-8.027-2.017l-2.01 1.22c-1.822 1.106-4.805 1.106-6.628 0l-3.59-2.18c-1.823-1.106-1.823-2.917 0-4.023l2.008-1.22c-1.518-1.537-2.625-3.18-3.322-4.874h-2.843c-2.578 0-4.687-1.28-4.687-2.845v-3.08c0-1.565 2.11-2.846 4.688-2.846h2.844c.697-1.693 1.804-3.337 3.322-4.873l-2.008-1.22c-1.823-1.106-1.823-2.916 0-4.023l3.59-2.18c1.823-1.106 4.806-1.106 6.63 0l2.007 1.22c2.53-.922 5.24-1.595 8.03-2.017v-1.725c0-1.565 2.108-2.846 4.686-2.846h5.076c2.58 0 4.688 1.28 4.688 2.844v1.726c2.79.424 5.497 1.096 8.027 2.018l2.01-1.22c1.82-1.106 4.807-1.106 6.63 0l3.59 2.18c1.822 1.106 1.822 2.917 0 4.024l-2.01 1.22zm-14.426 2.554c-6.103-3.705-15.995-3.705-22.097 0-6.103 3.703-6.103 9.708 0 13.412 6.1 3.703 15.993 3.703 22.095 0 6.103-3.704 6.103-9.708 0-13.412z"/><path fill-rule="evenodd" clip-rule="evenodd" fill="#A7A9AC" d="M257.256 170.458a.267.267 0 0 1 .532 0v23.783a.266.266 0 0 1-.532 0v-23.78z"/><path fill-rule="evenodd" clip-rule="evenodd" fill="#00799B" d="M282.492 141.727c1.518 1.536 2.625 3.18 3.322 4.873h1.123v-2.656h6.41v8.584c0 1.563-2.11 2.844-4.69 2.844h-2.843c-.18.44-.39.874-.625 1.305h.675v6.708c.04.76-.415 1.526-1.365 2.104l-3.59 2.177c-1.822 1.106-4.807 1.106-6.63 0l-2.007-1.22c-2.53.922-5.24 1.595-8.028 2.018v1.726c0 1.565-2.11 2.846-4.688 2.846h-5.078c-2.58 0-4.69-1.28-4.69-2.845v-1.725c-2.79-.423-5.497-1.095-8.027-2.016l-2.01 1.22c-1.822 1.104-4.805 1.104-6.628 0l-3.59-2.18c-.948-.577-1.403-1.34-1.365-2.1v-6.85h.603a13.67 13.67 0 0 1-.55-1.168h-2.844c-2.58 0-4.69-1.28-4.69-2.845v-8.65h9.045a17.065 17.065 0 0 1 1.81-2.148l-2.01-1.22c-.89-.544-1.346-1.253-1.365-1.966v-6.848h10.326v2.065c.457.134.884.316 1.262.545l2.008 1.22c2.53-.922 5.24-1.594 8.03-2.018v-1.725c0-1.565 2.108-2.846 4.686-2.846h5.078c2.58 0 4.688 1.28 4.688 2.846v1.726c2.79.423 5.497 1.095 8.027 2.017l2.01-1.22c.753-.457 1.704-.725 2.69-.805v-1.737h8.88v6.494c.11.807-.34 1.638-1.352 2.25l-2.01 1.22zm-14.426 2.553c-6.103-3.704-15.995-3.704-22.097 0-6.103 3.704-6.103 9.708 0 13.413 6.1 3.703 15.993 3.703 22.095 0 6.103-3.705 6.103-9.71 0-13.413z"/><path fill-rule="evenodd" clip-rule="evenodd" fill="#00C0E5" d="M282.492 134.95c1.518 1.535 2.625 3.18 3.322 4.872h2.844c2.58 0 4.688 1.28 4.688 2.845v3.082c0 1.563-2.11 2.843-4.688 2.843h-2.844c-.697 1.693-1.805 3.337-3.322 4.874l2.01 1.22c1.82 1.105 1.82 2.916 0 4.022l-3.592 2.18c-1.822 1.105-4.807 1.105-6.63 0l-2.007-1.22c-2.53.92-5.24 1.593-8.028 2.017v1.726c0 1.565-2.11 2.845-4.688 2.845h-5.078c-2.58 0-4.69-1.28-4.69-2.846v-1.727c-2.79-.423-5.497-1.095-8.027-2.016l-2.01 1.22c-1.822 1.105-4.805 1.105-6.628 0l-3.59-2.18c-1.823-1.107-1.823-2.918 0-4.024l2.008-1.22c-1.518-1.536-2.625-3.18-3.322-4.873h-2.843c-2.578 0-4.687-1.28-4.687-2.845v-3.083c0-1.564 2.11-2.845 4.688-2.845h2.844c.697-1.693 1.804-3.337 3.322-4.873l-2.008-1.22c-1.823-1.106-1.823-2.917 0-4.023l3.59-2.18c1.823-1.107 4.806-1.107 6.63 0l2.007 1.218c2.53-.92 5.24-1.593 8.03-2.016V125c0-1.565 2.108-2.846 4.686-2.846h5.076c2.58 0 4.688 1.28 4.688 2.845v1.725c2.79.423 5.497 1.095 8.027 2.016l2.01-1.22c1.82-1.105 4.807-1.105 6.63 0l3.59 2.18c1.822 1.108 1.822 2.92 0 4.025l-2.01 1.22zm-14.426 2.552c-6.103-3.703-15.995-3.703-22.097 0-6.103 3.704-6.103 9.708 0 13.413 6.1 3.703 15.993 3.703 22.095 0 6.103-3.705 6.103-9.71 0-13.413z"/><path fill-rule="evenodd" clip-rule="evenodd" fill="#A7A9AC" d="M257.256 100.414a.266.266 0 0 1 .532 0v53.36a.266.266 0 0 1-.532.002v-53.36z"/><path fill-rule="evenodd" clip-rule="evenodd" fill="#A7A9AC" d="M248.812 94.195c-1.232.74-2.143 1.6-2.73 2.522h-.8v3.85c-.007 1.865 1.17 3.73 3.53 5.146 4.706 2.82 12.408 2.82 17.114 0 2.35-1.408 3.526-3.264 3.53-5.12v-3.878h-.802c-.586-.92-1.495-1.782-2.73-2.52-4.703-2.82-12.405-2.82-17.112 0z"/><path fill-rule="evenodd" clip-rule="evenodd" fill="#EDEDEE" d="M248.812 91.532c-4.706 2.82-4.706 7.437 0 10.257 4.706 2.82 12.408 2.82 17.114 0 4.707-2.823 4.707-7.44 0-10.26-4.705-2.82-12.407-2.82-17.114 0z"/><path fill-rule="evenodd" clip-rule="evenodd" fill="#98368A" d="M473.627 72.012c10.216 6.11 10.216 16.02 0 22.13-10.215 6.11-26.777 6.11-36.993 0-10.216-6.11-10.216-16.02 0-22.13s26.778-6.11 36.993 0z"/><path fill-rule="evenodd" clip-rule="evenodd" fill="#FFF" d="M449.42 73.66l1.142-.68 9.417 5.633-1.38.826-2.82-1.69-1.2 5.6 7.14.107-2.04-1.507.96-.645 8.52 4.952-1.98.25-2.22-1.255-10.56-.646-4.258 2.548 3.06 2.045-.78.464-9.48-5.526.9-.61 3.06 1.614 4.14-2.404.9-7.356-2.522-1.723zm7.98 17.477l1.44.86-1.38.827-1.44-.862 1.38-.825zm10.018-2.19l-2.7-1.973-6.06 3.696 1.142.54 7.618-2.262z"/><path fill-rule="evenodd" clip-rule="evenodd" fill="#E22439" d="M243.868 11.823l6.058-1.82 8.52-1.095c1.797-.075 2.572-.42 5.156 1.14L266.5 11.8c2.437 1.42.964 1.726-.927 1.97l-14.022 1.8c-1.722.222-3.46 1.336-3.86 2.476l-.424 1.2-3.027 4.832c-.45 1.062-1.11 1.557-2.73.576l-1.317-.94c-1.967-1.188-2.068-1.585-1.555-2.857l2.86-7.1c.452-1.123.707-1.433 2.37-1.934z"/><path fill-rule="evenodd" clip-rule="evenodd" fill="#4A7BBE" d="M243.665 10.806l6.88-.884-4.277 12.158-1.42 4.033c-.45 1.062-1.107 1.558-2.73.577l-3.69-2.23c-1.966-1.187-2.01-1.562-1.555-2.855l2.93-8.322c.4-1.142 2.138-2.257 3.862-2.477zm4.023 7.24l-1.42 4.033 1.42-4.036z"/><path fill-rule="evenodd" clip-rule="evenodd" fill="#FEBC11" d="M270.26 30.768l-3.556 1.172-10.413 1.337c-1.794.074-2.57.42-5.152-1.14l-2.9-1.752c-2.435-1.42-.962-1.727.928-1.97l14.022-1.802c1.724-.22 3.463-1.335 3.864-2.476l.476-1.35 3.042-5.224c.45-1.062 1.107-1.558 2.73-.577l1.79 1.687c1.968 1.188 2.036 1.572 1.557 2.856l-2.522 6.76c-.423 1.133-2.214 1.933-3.864 2.477z"/><path fill-rule="evenodd" clip-rule="evenodd" fill="#00A651" d="M271.072 31.378l-6.88.884 4.277-12.158 1.417-4.033c.45-1.06 1.108-1.556 2.73-.575l3.69 2.23c1.967 1.187 2.01 1.562 1.556 2.855l-2.928 8.32c-.4 1.143-2.14 2.257-3.864 2.478zm-4.02-7.24l1.418-4.033-1.42 4.033z"/><path fill-rule="evenodd" clip-rule="evenodd" fill="#28B5DB" d="M444.41 293.348c2.452 1.63 3.38 3.892 2.783 6 2.448-.138 4.97.416 6.844 1.663 2.444 1.627 3.12 3.98 2.026 6.01 1.404.368 2.72.927 3.853 1.68 4.402 2.93 4.402 7.676 0 10.603-4.4 2.93-11.538 2.93-15.94 0a9.278 9.278 0 0 1-1.367-1.1c-2.788.407-5.818-.11-7.985-1.55-.844-.562-1.477-1.21-1.9-1.903-3.393.844-7.365.358-10.095-1.457-2.907-1.936-3.545-4.81-1.912-7.155a9.162 9.162 0 0 1-1.558-.823c-3.378-2.246-3.378-5.89 0-8.135 2.34-1.556 5.688-2.034 8.647-1.433.49-.875 1.264-1.695 2.32-2.398 3.944-2.627 10.34-2.627 14.283-.003z"/><path fill-rule="evenodd" clip-rule="evenodd" fill="#FFF" d="M429.672 300.594a1.66 1.66 0 0 1-.57.243 1.9 1.9 0 0 1-.623.036 2.38 2.38 0 0 1-.64-.154 3.205 3.205 0 0 1-.613-.318 2.396 2.396 0 0 1-.312-.243 1.93 1.93 0 0 1-.22-.238c-.06-.073-.103-.14-.13-.195s-.044-.102-.044-.135c0-.035.018-.074.056-.117.037-.044.107-.1.21-.17a1.96 1.96 0 0 1 .167-.1.753.753 0 0 1 .12-.053.18.18 0 0 1 .084-.008c.02.003.043.013.065.027.025.018.05.054.07.106a1.61 1.61 0 0 0 .257.43c.068.088.168.175.295.258a1.195 1.195 0 0 0 .47.19.6.6 0 0 0 .418-.092c.07-.047.107-.102.114-.164a.37.37 0 0 0-.043-.2 1.847 1.847 0 0 0-.14-.234 4.164 4.164 0 0 1-.17-.26 1.775 1.775 0 0 1-.147-.275.697.697 0 0 1-.056-.29.624.624 0 0 1 .095-.293c.062-.1.166-.198.313-.295.148-.1.314-.17.5-.213a1.81 1.81 0 0 1 .573-.045c.2.017.405.06.614.134a2.763 2.763 0 0 1 .88.515c.08.07.146.14.2.203a.857.857 0 0 1 .175.287c.004.027.004.05-.005.067a.24.24 0 0 1-.042.056c-.02.02-.045.042-.078.07a3.143 3.143 0 0 1-.288.192.54.54 0 0 1-.112.05c-.033.01-.058.014-.08.01s-.044-.014-.063-.026a.2.2 0 0 1-.062-.09 1.03 1.03 0 0 0-.092-.164 1.332 1.332 0 0 0-.424-.435.905.905 0 0 0-.45-.174.597.597 0 0 0-.19.016.48.48 0 0 0-.158.067c-.073.048-.11.104-.115.165a.404.404 0 0 0 .048.205c.035.07.084.15.146.235.06.083.12.17.178.26.057.088.106.182.148.277.04.096.062.193.062.292a.58.58 0 0 1-.09.294.95.95 0 0 1-.3.29zm2.33 2.737l2.096-1.393c.214-.142.374-.282.477-.42a.58.58 0 0 0 .135-.42c-.014-.14-.084-.285-.212-.434s-.315-.305-.563-.47a4.06 4.06 0 0 0-1.288-.547 1.387 1.387 0 0 0-.284-.042.503.503 0 0 0-.18.03 1.12 1.12 0 0 0-.324.207.432.432 0 0 0-.083.094.1.1 0 0 0-.02.08c.002.023.016.044.044.062a.603.603 0 0 0 .194.065c.093.02.204.045.334.077.127.033.267.078.415.134s.298.134.446.23c.112.076.195.148.25.213a.29.29 0 0 1 .074.194.308.308 0 0 1-.085.188 1.09 1.09 0 0 1-.228.19l-.188.126-.308-.204a5.49 5.49 0 0 0-.8-.447 2.924 2.924 0 0 0-.725-.226 1.82 1.82 0 0 0-.654.007c-.204.04-.397.12-.58.243-.166.11-.285.228-.354.35a.57.57 0 0 0-.078.368c.02.126.074.248.172.37.097.12.23.24.396.35.204.135.426.23.668.29.244.06.497.09.765.084l-.25.165c-.03.02-.046.044-.044.07 0 .025.023.06.064.095.04.037.112.092.22.162.1.066.178.113.236.142.058.03.108.044.152.047a.16.16 0 0 0 .11-.025zm.46-1.47l-.53.353c-.23.01-.428 0-.596-.028a1.13 1.13 0 0 1-.438-.166c-.148-.1-.228-.2-.235-.307-.01-.104.05-.2.182-.287a.712.712 0 0 1 .25-.107.794.794 0 0 1 .29-.01c.105.015.218.05.342.1.12.057.254.13.396.226l.34.224zm1.2 2.56a.177.177 0 0 1-.083.027.29.29 0 0 1-.118-.02c-.044-.016-.1-.04-.162-.07a4.05 4.05 0 0 1-.223-.14c-.087-.06-.157-.107-.207-.15a.71.71 0 0 1-.11-.106c-.022-.03-.032-.057-.027-.076a.092.092 0 0 1 .04-.056l4.592-3.055a.178.178 0 0 1 .086-.027.3.3 0 0 1 .12.017c.048.014.103.038.166.07s.14.08.226.137.157.106.206.15c.05.04.086.078.106.108.023.03.03.06.025.08a.09.09 0 0 1-.043.056l-4.594 3.056zm5.317 1.345l.137-.092c.22-.146.394-.3.523-.46a.953.953 0 0 0 .22-.5.813.813 0 0 0-.144-.52c-.11-.176-.297-.35-.56-.526a2.758 2.758 0 0 0-.8-.367 2.735 2.735 0 0 0-.86-.103 3.08 3.08 0 0 0-.883.163c-.297.1-.58.242-.858.426-.29.193-.51.385-.657.575-.146.19-.22.38-.222.57 0 .19.07.376.212.56.14.19.352.375.632.56.156.106.312.195.47.273.156.076.3.14.435.193.133.053.247.093.346.12.1.025.16.038.194.038a.407.407 0 0 0 .173-.038 1.826 1.826 0 0 0 .238-.138c.057-.038.104-.072.14-.1a.35.35 0 0 0 .068-.07c.012-.022.014-.04.01-.055a.156.156 0 0 0-.043-.042.735.735 0 0 0-.172-.07c-.08-.02-.174-.053-.288-.09a4.615 4.615 0 0 1-.38-.155 3.088 3.088 0 0 1-.442-.25 1.277 1.277 0 0 1-.334-.302c-.07-.1-.103-.197-.097-.293s.047-.19.123-.283c.076-.094.18-.183.31-.27l1.922 1.275c.086.058.18.084.278.08.1.003.2-.035.31-.106zm-.614-.74c.254-.158.397-.32.432-.486.033-.167-.063-.323-.287-.473a1.037 1.037 0 0 0-.357-.154 1.28 1.28 0 0 0-.38-.027c-.126.01-.252.038-.378.083a1.92 1.92 0 0 0-.36.17l1.33.886zm2.673 3.13c-.177.12-.367.2-.57.246a1.98 1.98 0 0 1-.623.036 2.436 2.436 0 0 1-.64-.154 3.063 3.063 0 0 1-.924-.558 1.937 1.937 0 0 1-.22-.237.992.992 0 0 1-.13-.195.326.326 0 0 1-.045-.136c0-.034.016-.073.055-.117.037-.044.107-.1.21-.17a1.68 1.68 0 0 1 .168-.103.787.787 0 0 1 .12-.05c.033-.01.062-.014.086-.01.02.004.043.014.064.027a.22.22 0 0 1 .07.105c.022.054.053.116.094.19.04.073.094.153.164.24s.168.173.295.26c.08.05.16.094.238.124.08.03.158.05.235.06a.58.58 0 0 0 .417-.09c.07-.046.11-.1.116-.162a.416.416 0 0 0-.043-.203c-.036-.07-.083-.15-.14-.23s-.117-.17-.172-.26a2.025 2.025 0 0 1-.145-.277.67.67 0 0 1-.055-.287.59.59 0 0 1 .094-.294c.06-.1.166-.198.312-.296.15-.1.313-.17.5-.213a1.87 1.87 0 0 1 .57-.042c.2.017.406.06.615.134.21.076.41.18.61.31.1.067.188.136.27.207.078.073.145.14.2.205.055.066.097.122.124.173s.044.09.05.116a.097.097 0 0 1-.005.066c-.01.017-.02.035-.042.056a1.292 1.292 0 0 1-.208.162c-.062.04-.115.075-.157.1a.883.883 0 0 1-.113.05c-.032.01-.06.013-.08.01s-.044-.014-.063-.025a.195.195 0 0 1-.063-.093 1.695 1.695 0 0 0-.25-.37 1.345 1.345 0 0 0-.27-.228 1.1 1.1 0 0 0-.23-.124c-.077-.03-.15-.045-.218-.05s-.13-.002-.19.013a.49.49 0 0 0-.158.068c-.072.048-.11.104-.115.165a.397.397 0 0 0 .05.203c.034.073.082.153.143.236.063.085.122.172.18.26.057.09.107.183.148.278a.73.73 0 0 1 .063.292.588.588 0 0 1-.09.295.938.938 0 0 1-.3.29zm6.59 3.443a3.57 3.57 0 0 1-.83.412 2.974 2.974 0 0 1-1.795.045 3.258 3.258 0 0 1-.89-.42c-.28-.187-.488-.374-.618-.564a.914.914 0 0 1-.182-.564c.01-.188.09-.375.237-.562s.36-.37.634-.554a3.6 3.6 0 0 1 .834-.413 3 3 0 0 1 2.683.374c.284.19.49.38.623.567.13.188.19.376.18.563s-.09.374-.237.56a2.76 2.76 0 0 1-.64.557zm-.947-.585c.154-.102.284-.204.388-.307s.176-.205.21-.308a.413.413 0 0 0-.01-.307c-.046-.1-.143-.2-.292-.3a1.307 1.307 0 0 0-.42-.184c-.148-.033-.3-.04-.457-.023a2.02 2.02 0 0 0-.473.125 2.623 2.623 0 0 0-.492.263 2.7 2.7 0 0 0-.385.31.846.846 0 0 0-.21.307.384.384 0 0 0 .014.306c.047.1.144.2.29.298.136.09.277.153.424.188.148.034.3.042.454.025.155-.02.312-.06.473-.125a2.83 2.83 0 0 0 .487-.265zm4.79 1.494c.082-.055.146-.1.193-.134.046-.034.08-.062.1-.08a.262.262 0 0 0 .042-.05.098.098 0 0 0 .01-.044.173.173 0 0 0-.03-.064c-.02-.024-.043-.054-.07-.083a1.48 1.48 0 0 0-.093-.086c-.032-.025-.064-.05-.095-.068a1.152 1.152 0 0 0-.514-.185 2.97 2.97 0 0 0-.39-.02c-.147 0-.32.013-.52.035l.388-.26c.023-.016.037-.032.043-.053.005-.02 0-.042-.015-.067a.53.53 0 0 0-.09-.094 1.594 1.594 0 0 0-.18-.13 1.5 1.5 0 0 0-.334-.178.24.24 0 0 0-.105-.012.178.178 0 0 0-.08.028l-3.117 2.073c-.022.016-.035.033-.038.055-.005.02.005.047.027.077.024.03.06.065.11.105.05.042.12.092.207.15s.16.103.225.138c.06.032.115.057.16.07a.27.27 0 0 0 .116.02.162.162 0 0 0 .082-.025l1.943-1.294c.17-.023.317-.04.446-.048a2.3 2.3 0 0 1 .333 0c.096.007.178.02.246.04a.65.65 0 0 1 .283.165c.026.03.05.057.07.083.02.026.04.05.053.07.015.02.033.038.052.05.023.017.048.026.075.028s.063-.002.103-.017a2.155 2.155 0 0 0 .36-.2zm.366 3.343c-.063.04-.113.072-.16.098-.044.024-.083.045-.117.06a.43.43 0 0 1-.21.038 1.41 1.41 0 0 1-.243-.03 3.055 3.055 0 0 1-.337-.087 3.323 3.323 0 0 1-.702-.333c-.24-.163-.42-.33-.53-.504-.114-.175-.16-.353-.143-.534s.1-.366.246-.548c.146-.183.352-.363.622-.544a3.83 3.83 0 0 1 .928-.46 3.15 3.15 0 0 1 .896-.156 2.75 2.75 0 0 1 1.58.465c.093.06.177.128.252.2.075.07.137.142.19.213.05.07.09.14.115.202a.378.378 0 0 1 .04.15c.003.033 0 .06-.008.08s-.02.04-.044.06a.875.875 0 0 1-.09.08c-.037.03-.085.062-.144.102-.136.09-.242.146-.32.167s-.138.02-.175-.005a.2.2 0 0 1-.08-.117 2.242 2.242 0 0 0-.05-.177.866.866 0 0 0-.11-.22 1.144 1.144 0 0 0-1.048-.41c-.298.036-.617.166-.957.392-.168.112-.3.22-.398.326-.096.106-.158.206-.184.304s-.017.19.03.28a.76.76 0 0 0 .253.253c.124.08.247.14.373.174.123.034.24.06.352.074.11.015.205.024.286.03a.37.37 0 0 1 .17.04.07.07 0 0 1 .034.046c.002.02-.008.04-.03.066a.944.944 0 0 1-.103.093c-.042.033-.104.076-.18.13zm4.58 1.515l.14-.093c.22-.146.393-.3.52-.46s.2-.33.22-.5a.818.818 0 0 0-.144-.52c-.11-.176-.296-.35-.562-.526a2.795 2.795 0 0 0-1.657-.47c-.295.008-.59.063-.884.163-.297.1-.582.24-.858.426-.29.193-.51.386-.657.576-.147.19-.222.38-.223.566 0 .19.07.377.212.562.14.188.35.373.63.56a4.3 4.3 0 0 0 .47.272c.157.077.302.14.435.193.134.054.25.093.346.12.1.025.162.038.194.038.03 0 .06-.003.088-.01a.382.382 0 0 0 .085-.028 1.834 1.834 0 0 0 .237-.138c.058-.038.105-.07.14-.1a.346.346 0 0 0 .07-.07c.01-.022.014-.04.007-.055-.005-.014-.02-.027-.04-.042a.74.74 0 0 0-.173-.07c-.08-.02-.174-.053-.287-.092a5.696 5.696 0 0 1-.378-.153 3.24 3.24 0 0 1-.443-.25 1.263 1.263 0 0 1-.335-.303.48.48 0 0 1-.1-.293.516.516 0 0 1 .124-.283c.076-.094.18-.184.31-.27l1.92 1.276a.45.45 0 0 0 .28.082c.1 0 .2-.036.31-.107zm-.613-.74l-1.33-.887c.113-.07.23-.127.36-.17.125-.046.25-.074.378-.084.128-.01.254-.002.38.026.124.028.245.08.358.155.225.15.32.306.284.47-.033.167-.176.33-.43.49zm-8.088-8.886a.466.466 0 0 0 .07-.06c.012-.02.02-.034.017-.052 0-.02-.013-.046-.035-.08s-.055-.07-.094-.112c-.04-.04-.087-.082-.142-.126a2.525 2.525 0 0 0-.743-.407c-.195-.06-.396-.096-.604-.1s-.424.018-.645.068c-.224.05-.45.13-.685.234l-.412.186-.388-.26a.195.195 0 0 0-.112-.03.886.886 0 0 0-.146.017.76.76 0 0 0-.162.045c-.054.02-.106.043-.156.065a1.494 1.494 0 0 0-.234.124c-.057.038-.088.067-.09.09-.007.026.006.047.033.064l.396.264-3.16 1.39c-.124.056-.238.1-.338.128-.102.03-.196.047-.282.05a.76.76 0 0 1-.475-.133c-.034-.022-.06-.043-.083-.06-.02-.017-.037-.03-.05-.044-.013-.014-.024-.027-.037-.037-.01-.012-.023-.02-.037-.03-.023-.016-.053-.02-.09-.017a.738.738 0 0 0-.132.027 1.69 1.69 0 0 0-.15.053c-.054.02-.103.043-.148.064-.045.022-.087.04-.124.06a1.32 1.32 0 0 0-.074.044.277.277 0 0 0-.062.052.068.068 0 0 0-.02.046c.004.03.038.076.103.144a2.288 2.288 0 0 0 .847.5c.195.063.397.098.6.103s.416-.02.633-.07a4.16 4.16 0 0 0 .673-.23l3.29-1.448.576.383c.025.017.06.025.104.025s.093-.005.144-.018.104-.028.16-.046c.056-.02.11-.04.164-.062.052-.024.1-.045.14-.067.04-.023.073-.043.096-.06.05-.032.077-.06.087-.083.01-.024-.006-.048-.04-.07l-.567-.38.317-.14a2.58 2.58 0 0 1 .33-.125c.1-.03.19-.047.276-.05a.792.792 0 0 1 .65.303l.054.064a.16.16 0 0 0 .043.043c.02.014.05.018.087.014s.083-.013.13-.03c.05-.014.1-.033.15-.055a3.115 3.115 0 0 0 .27-.13c.036-.02.06-.03.073-.042z"/></svg>