<!DOCTYPE svg PUBLIC "-//W3C//DTD SVG 1.1//EN" "http://www.w3.org/Graphics/SVG/1.1/DTD/svg11.dtd" [
	<!ENTITY ns_flows "http://ns.adobe.com/Flows/1.0/">
]><svg xmlns="http://www.w3.org/2000/svg" width="112" height="140" viewBox="-1.222 -7.465 112 140" overflow="visible"><path fill-rule="evenodd" clip-rule="evenodd" fill="#F3F4F4" d="M73.73 17.526l7.69 4.43 7.392 4.27c20.935 12.083 19.163 8.697 19.184 32.902l.006 8.872v8.538c.003 24.17 2.05 20.943-18.904 33.062l-7.68 4.442-7.393 4.27c-20.932 12.086-17.114 12.247-38.086.162l-7.69-4.432-7.395-4.27c-20.93-12.08-19.16-8.695-19.18-32.9L1.67 68v-8.538C1.665 35.292-.38 38.518 20.57 26.4l7.68-4.444 7.395-4.27c15.502-3.7 22.628-6.282 38.083-.16z"/><path fill="#A7A9AC" d="M54.913 129.075c-4.02 0-7.785-2.2-15.284-6.585a779.327 779.327 0 0 0-4.5-2.615l-15.082-8.7a665.496 665.496 0 0 0-5.09-2.9C.226 99.935-.052 99.445.042 82.075c.01-1.58.02-3.307.017-5.2L.05 59.46c0-2.163-.016-4.105-.03-5.86-.146-16.93.14-17.416 15.228-26.017 1.37-.782 2.872-1.637 4.513-2.585l15.28-8.832.23-.054c1.223-.292 2.393-.577 3.52-.85 6.95-1.692 12.436-3.027 18.172-3.027 5.4 0 10.755 1.167 17.364 3.786l.212.104 15.085 8.698c1.874 1.08 3.565 2.04 5.092 2.902 14.733 8.34 15.013 8.83 14.916 26.198a686.76 686.76 0 0 0-.017 5.2l.01 17.413c0 2.164.016 4.107.03 5.86.145 16.928-.14 17.416-15.228 26.016-1.37.783-2.87 1.64-4.514 2.59l-15.074 8.713a599.55 599.55 0 0 0-5.058 2.957c-7.242 4.264-10.877 6.405-14.862 6.405zM36.25 19.205L21.38 27.8c-1.647.95-3.153 1.81-4.53 2.594-7.017 4-10.54 6.008-12.12 8.71-1.578 2.69-1.543 6.626-1.477 14.47.015 1.762.032 3.714.032 5.887l.008 17.41c0 1.904-.008 3.637-.017 5.22-.044 8.077-.066 12.134 1.482 14.853 1.542 2.71 4.968 4.65 11.794 8.515a633.47 633.47 0 0 1 5.114 2.915l15.082 8.698c1.65.95 3.146 1.826 4.514 2.627 6.995 4.09 10.506 6.14 13.65 6.14 3.104 0 6.485-1.99 13.222-5.955 1.52-.896 3.2-1.886 5.083-2.97L88.29 108.2c1.647-.953 3.154-1.81 4.53-2.596 7.017-4 10.54-6.008 12.122-8.71 1.576-2.688 1.543-6.626 1.476-14.47a599.176 599.176 0 0 1-.032-5.887l-.008-17.41c0-1.903.008-3.637.017-5.222.045-8.077.066-12.13-1.48-14.853-1.542-2.71-4.97-4.65-11.794-8.513-1.532-.87-3.23-1.83-5.112-2.918l-14.98-8.638c-6.162-2.43-11.12-3.515-16.063-3.515-5.348 0-10.407 1.23-17.408 2.934-1.062.26-2.16.526-3.305.8z"/><path fill-rule="evenodd" clip-rule="evenodd" fill="#FFF" d="M54.067 127.418c-4.005-.37-8.398-3.34-18.127-8.943l-7.688-4.432-7.395-4.27c-20.93-12.08-19.162-8.696-19.18-32.9L1.667 68v-8.538C1.666 35.292-.38 38.518 20.57 26.4l7.68-4.444 7.395-4.27c7.46-1.78 12.98-3.3 18.42-3.72V127.42z"/><path fill="#A7A9AC" d="M55.684 129.19l-1.766-.162c-3.686-.34-7.454-2.543-14.296-6.543a882.31 882.31 0 0 0-4.49-2.61l-15.083-8.7a665.496 665.496 0 0 0-5.09-2.9C.225 99.935-.054 99.445.04 82.075c.01-1.58.02-3.307.017-5.2L.05 59.46c0-2.163-.016-4.105-.03-5.86-.146-16.93.14-17.416 15.228-26.017 1.37-.782 2.872-1.637 4.513-2.585l15.28-8.832.23-.054a898.19 898.19 0 0 0 3.514-.85c5.854-1.425 10.48-2.55 15.16-2.91l1.74-.134v116.97zM36.25 19.204L21.38 27.8c-1.647.952-3.153 1.81-4.53 2.595-7.017 4-10.54 6.008-12.12 8.71-1.578 2.69-1.543 6.626-1.477 14.47.015 1.762.032 3.714.032 5.887l.008 17.41c0 1.903-.008 3.636-.017 5.22-.044 8.076-.066 12.133 1.482 14.852 1.542 2.71 4.968 4.65 11.794 8.515a633.47 633.47 0 0 1 5.114 2.914l15.082 8.698c1.647.948 3.14 1.822 4.507 2.62 5.223 3.053 8.542 4.995 11.195 5.766V15.75c-3.878.46-7.937 1.45-12.9 2.657-1.06.258-2.156.525-3.3.797z"/><path fill-rule="evenodd" clip-rule="evenodd" fill="#FFF" d="M106.726 74.7v10.653c0 11.884-.485 12.837-10.75 18.773l-15.196 8.79-15.045 8.69c-10.29 5.94-11.36 5.996-21.633.075l-15.21-8.763-15.047-8.686C3.553 98.293 2.97 97.395 2.96 85.537l-.006-11.622c-.004-8.156 3.655-10.137 10.74-14.236l15.197-8.79 6.13-3.538a45.962 45.962 0 0 1-.057-1.562c-.004-5.783.033-15.436.033-43.093l10.152 10.15a19.403 19.403 0 0 1 9.792-2.636c3.514 0 6.812.93 9.66 2.56L74.673 2.694V30.92c0 4.26.178 12.217.003 16.447l6.103 3.52 15.047 8.687c7.97 4.6 10.897 6.32 10.898 15.126z"/><path fill="#A7A9AC" d="M54.864 128.788c-3.646 0-6.977-1.812-12.108-4.77l-30.258-17.452C1.304 100.106.275 98.336.266 85.538L.26 73.915C.253 64.335 4.93 61.63 12.01 57.54l20.26-11.714c-.003-2.123 0-4.693.007-8.41.01-6.655.024-16.986.024-34.72A2.696 2.696 0 0 1 36.903.79l8.758 8.757a22.2 22.2 0 0 1 18.418-.067l8.69-8.69a2.695 2.695 0 0 1 4.6 1.906V30.92c0 1.306.02 2.962.036 4.75.035 3.437.073 7.255.014 10.167l19.755 11.4c8.152 4.707 12.245 7.07 12.245 17.462v10.65c.002 12.923-1.014 14.698-12.095 21.107l-30.24 17.477c-5.21 3.008-8.583 4.85-12.22 4.85zM37.69 9.2c-.003 13.84-.015 22.426-.024 28.223-.005 3.72-.01 6.29-.007 8.363.007.462.024.952.05 1.417a2.696 2.696 0 0 1-1.344 2.48l-21.66 12.52c-6.778 3.92-9.06 5.24-9.057 11.707l.006 11.622c.008 10.865.008 10.865 9.536 16.363l30.255 17.45c4.956 2.856 7.36 4.05 9.417 4.05 2.144 0 4.666-1.32 9.522-4.126l30.24-17.48c9.405-5.44 9.405-5.44 9.404-16.44V74.7c0-7.28-1.834-8.338-9.55-12.793L73.33 49.702a2.694 2.694 0 0 1-1.345-2.445c.117-2.857.07-7.465.03-11.532a471.12 471.12 0 0 1-.037-4.805V9.202l-5.473 5.473a2.694 2.694 0 0 1-3.243.434 16.774 16.774 0 0 0-8.322-2.205 16.78 16.78 0 0 0-8.436 2.27 2.692 2.692 0 0 1-3.262-.422L37.69 9.2z"/><path fill-rule="evenodd" clip-rule="evenodd" fill="#FFF" d="M106.726 74.7v10.654c0 11.883-.485 12.836-10.75 18.772l-15.196 8.79-15.045 8.69c-10.29 5.94-11.36 5.996-21.633.075l-15.21-8.764-15.047-8.685C3.552 98.293 2.97 97.395 2.96 85.537l-.006-11.622C2.95 65.758 6.61 63.777 13.696 59.678l15.196-8.79 14.948-8.632c-.722 6.15 15.72 9.024 20.784-.69l16.156 9.32 15.048 8.688c7.97 4.6 10.897 6.32 10.898 15.126z"/><path fill="#A7A9AC" d="M54.864 126.633c-2.933 0-5.745-1.438-11.032-4.482L13.575 104.7C3.057 98.627 2.432 97.552 2.422 85.536l-.007-11.622c-.005-8.336 3.787-10.527 10.67-14.507L43.57 41.79a.538.538 0 0 1 .805.53c-.1.84.18 1.635.827 2.365 1.44 1.62 4.506 2.666 7.81 2.666 5 0 9.165-2.253 11.133-6.03a.532.532 0 0 1 .326-.27.543.543 0 0 1 .42.05L96.097 59.11c7.898 4.56 11.167 6.446 11.168 15.594v10.655c0 12.145-.616 13.224-11.02 19.24l-30.24 17.478c-5.367 3.1-8.215 4.56-11.14 4.56zM43.317 43.18L13.625 60.34C6.875 64.242 3.488 66.2 3.493 73.914L3.5 85.536c.01 11.655.406 12.336 10.615 18.23l30.256 17.45c5.12 2.948 7.82 4.338 10.495 4.338 2.663 0 5.404-1.415 10.6-4.416l30.243-17.478c10.09-5.836 10.48-6.52 10.48-18.307V74.7c-.002-8.524-2.68-10.07-10.63-14.66L64.83 42.308c-2.252 3.843-6.624 6.12-11.817 6.12-3.653 0-6.954-1.16-8.614-3.027-.605-.675-.97-1.43-1.084-2.22z"/><path fill-rule="evenodd" clip-rule="evenodd" fill="#FFF" d="M106.726 78.642v6.712c0 11.884-.485 12.837-10.75 18.773l-15.196 8.79-15.045 8.69c-10.29 5.94-11.36 5.996-21.633.075l-15.21-8.765-15.047-8.686C3.553 98.294 2.97 97.396 2.96 85.538l-.004-6.895c0-8.525 7.557-11.02 14.912-6.745l26.96 15.68h20.024l26.963-15.68c7.353-4.275 14.91-1.78 14.91 6.747z"/><path fill="#A7A9AC" d="M54.863 126.633c-2.933 0-5.745-1.438-11.03-4.482l-30.26-17.45c-10.516-6.072-11.14-7.147-11.15-19.164l-.006-6.895c.002-5.67 3.36-9.332 8.555-9.332 2.3 0 4.78.733 7.167 2.123L44.97 87.037h19.734L91.542 71.43c2.39-1.39 4.865-2.123 7.166-2.123 5.196 0 8.554 3.663 8.555 9.334v6.714c0 12.146-.616 13.225-11.02 19.24l-30.24 17.48c-5.366 3.1-8.214 4.56-11.14 4.56zm-43.89-56.248c-4.612 0-7.477 3.164-7.477 8.257l.004 6.894c.01 11.655.406 12.337 10.615 18.23l30.256 17.45c5.12 2.948 7.82 4.338 10.495 4.338 2.664 0 5.404-1.415 10.6-4.416l30.243-17.478c10.09-5.836 10.48-6.52 10.48-18.308V78.64c-.002-5.093-2.865-8.257-7.478-8.257-2.112 0-4.4.684-6.625 1.978l-26.96 15.68a.522.522 0 0 1-.272.075H44.83a.52.52 0 0 1-.27-.074L17.597 72.363c-2.224-1.294-4.515-1.977-6.626-1.977z"/><path fill-rule="evenodd" clip-rule="evenodd" fill="#F3F4F4" d="M105.878 79.488v5.865c.002 11.882-.484 12.413-10.75 18.35l-14.35 8.366-15.044 8.687c-5.232 3.02-8.08 4.52-10.968 4.486v-36.82h10.086l26.963-15.68c7.353-4.276 14.062-1.782 14.063 6.744z"/><path fill-rule="evenodd" clip-rule="evenodd" fill="#FFF" d="M74.64 39.148c.033.562.057 1.153.067 1.78l.003 2.43v2.336c0 7.21-1.514 9.853-7.835 13.66L64.77 60.57l-2.02 1.168c-6.244 3.605-9.29 3.614-15.747.045l-2.105-1.213-2.022-1.167C36.63 55.8 35.1 53.165 34.962 45.788v-4.765c0-.695.014-1.348.044-1.962l9.892 5.41 5.826 3.037c3.935 2.052 4.344 2.033 8.285-.027l5.76-3.01 9.87-5.322z"/><path fill="#A7A9AC" d="M54.93 64.99c-2.3 0-4.672-.793-8.188-2.735l-4.137-2.385c-6.435-3.714-8.04-6.476-8.182-14.07l-.002-4.776c0-.706.018-1.375.048-1.99a.534.534 0 0 1 .795-.443L45.157 44l5.816 3.03c1.912 1 2.918 1.467 3.872 1.467.952 0 1.97-.478 3.915-1.494l5.762-3.01 9.86-5.318c.162-.087.358-.086.52.003s.264.255.275.44c.034.566.056 1.156.067 1.802l.003 4.774c0 7.43-1.588 10.202-8.095 14.12l-4.134 2.39c-3.425 1.98-5.768 2.787-8.088 2.787zM35.513 39.954c-.01.344-.013.703-.013 1.07l.002 4.766c.134 7.178 1.563 9.637 7.644 13.146l4.126 2.38c3.334 1.843 5.555 2.598 7.658 2.596 2.115 0 4.303-.765 7.55-2.64l4.126-2.386c6.15-3.704 7.565-6.17 7.564-13.193l-.002-4.765a59.32 59.32 0 0 0-.025-.9l-9.115 4.914-5.77 3.014c-1.917 1.002-3.156 1.616-4.412 1.616-1.192 0-2.3-.508-4.37-1.59l-5.827-3.036-9.138-4.993z"/><path fill-rule="evenodd" clip-rule="evenodd" fill="#FFF" d="M74.674 2.696v37.3l-9.868 5.32-5.762 3.01c-3.94 2.06-4.35 2.08-8.286.028l-5.826-3.037-9.936-5.433V2.696l10.15 10.15a19.41 19.41 0 0 1 9.793-2.636c3.513 0 6.81.932 9.66 2.56L74.672 2.696z"/><path fill="#A7A9AC" d="M54.88 50.42c-1.19 0-2.298-.508-4.37-1.588l-5.826-3.038-9.946-5.438a.538.538 0 0 1-.28-.473V2.696c0-.218.13-.415.333-.498a.534.534 0 0 1 .59.117l9.86 9.86a20.048 20.048 0 0 1 9.702-2.503c3.346 0 6.646.838 9.568 2.43l9.787-9.787a.538.538 0 0 1 .92.38v37.3c0 .198-.11.38-.283.475l-9.87 5.32-5.768 3.016c-1.917 1-3.157 1.615-4.413 1.615zM35.537 39.565l9.655 5.28 5.818 3.03c1.913.998 2.917 1.468 3.873 1.468.952 0 1.97-.48 3.915-1.494l5.763-3.01 9.58-5.167V3.997l-9.154 9.154a.535.535 0 0 1-.648.09 18.96 18.96 0 0 0-9.393-2.49c-3.35 0-6.642.887-9.52 2.564a.54.54 0 0 1-.654-.084l-9.23-9.232v35.566z"/><path fill-rule="evenodd" clip-rule="evenodd" fill="#A7A9AC" d="M70.526 31.4c.212 6.836-6.303 9.518-11.998 5.246L70.526 31.4zM39.442 31.4c-.21 6.836 6.304 9.518 12 5.246l-12-5.245z"/><path fill-rule="evenodd" clip-rule="evenodd" fill="#FFF" d="M58.878 73.166l11.396 6.573c3.876 2.235 4.096 2.573 4.1 7.04l.006 12.375c0 4.474-.183 4.835-4.05 7.07l-11.39 6.583c-3.874 2.238-4.28 2.258-8.148.03l-11.396-6.575c-3.876-2.235-4.096-2.575-4.1-7.04L35.29 86.85c0-4.476.184-4.836 4.05-7.072l11.39-6.583c3.876-2.24 4.28-2.26 8.148-.03z"/><path fill="#F0516F" d="M54.847 115.04c-1.187 0-2.28-.555-4.324-1.734l-11.396-6.572c-4.04-2.33-4.366-2.892-4.37-7.51L34.75 86.85c0-4.71.28-5.2 4.32-7.537l11.39-6.584c1.893-1.093 3.117-1.763 4.365-1.763 1.187 0 2.278.555 4.323 1.733l11.396 6.572c4.08 2.354 4.364 2.845 4.37 7.508l.005 12.376c0 4.663-.32 5.226-4.32 7.537l-11.39 6.583c-1.89 1.094-3.11 1.763-4.36 1.763zm-.022-42.996c-.92 0-1.92.518-3.824 1.617l-11.39 6.584c-3.675 2.128-3.78 2.313-3.78 6.606l.007 12.374c.003 4.244.11 4.43 3.83 6.575l11.396 6.57c1.874 1.08 2.86 1.59 3.785 1.59.923 0 1.92-.52 3.823-1.62l11.39-6.582c3.678-2.126 3.784-2.312 3.78-6.605l-.004-12.375c-.003-4.245-.11-4.43-3.83-6.574L58.61 73.63c-1.874-1.078-2.86-1.588-3.784-1.588z"/><path fill-rule="evenodd" clip-rule="evenodd" fill="#A7A9AC" d="M43.786 93.618l3.846 3.883h-3.846v-3.88zm17.648-5.06l6.75 6.82c.53.54.82 1.343.29 1.88a1.35 1.35 0 0 1-1.928 0l-8.57-8.7h3.458zm-4.53 0h-3.48l8.57 8.7c.53.54 1.396.54 1.927 0 .533-.537.265-1.403-.267-1.94l-6.812-6.76h.064zm-4.488 0H48.87l8.57 8.7c.53.54 1.398.54 1.93 0 .528-.537.218-1.418-.312-1.956l-6.72-6.745h.078zm-4.492 0H44.32l4.956 5.032c.53.538 1.398.538 1.928 0s.334-1.412-.196-1.95l-3.125-3.083h.04zm-4.138.352v3.73l4.79 4.86h3.577l-8.367-8.59z"/></svg>