<svg width="244" height="244" viewBox="0 0 244 244" xmlns="http://www.w3.org/2000/svg"><title>Group 2</title><g fill="none" fill-rule="evenodd"><path d="M36.557 5.377l4.738-2.706C44.052.798 48.22.72 52.855 2.9l143.798 67.664c8.17 3.843 14.686 13.325 14.686 21.028l.04 131.81c0 10.332-4.862 13.248-7.56 15.974-2.57 3.14-7.514 3.804-13.11 1.173L47.075 172.77c-8.15-3.843-14.686-13.307-14.686-21.03l-.02-135.555V13.12c0-3.75 1.592-6.417 4.187-7.743z" fill="#EBECEC" fill-rule="nonzero"/><path d="M34.984 4.81v-.02l.285-.17c.163-.094.367-.208.55-.303l.02-.018 4.74-2.708v.02C42.214.51 44.237-.037 46.503 0c2.145.038 4.515.606 6.966 1.78l143.796 67.645c4.29 2.025 8.13 5.488 10.907 9.464 2.8 4.013 4.535 8.574 4.535 12.7l.04 131.81c0 9.482-3.882 13.077-6.78 15.746-.41.378-.778.72-1.064 1.022-1.552 1.875-3.798 2.99-6.494 3.218-2.492.226-5.332-.302-8.314-1.723L46.463 173.905c-4.29-2.025-8.13-5.49-10.907-9.464-2.8-4.012-4.534-8.573-4.534-12.7L31 16.186V13.12c0-2.045.43-3.806 1.226-5.263.674-1.268 1.613-2.29 2.758-3.047zm7.025-1.06l-3.902 2.214.02.057-.918.455c-1.083.568-1.96 1.4-2.553 2.5-.593 1.115-.94 2.516-.94 4.144V18.304l.04 133.436c0 3.635 1.553 7.704 4.086 11.319 2.533 3.634 6.006 6.775 9.846 8.592l143.653 67.76c2.49 1.19 4.84 1.646 6.8 1.476 1.92-.17 3.514-.965 4.596-2.272l.94-1.154.14.113.227-.207c2.554-2.367 5.984-5.527 5.964-13.97l-.02-131.808c0-3.614-1.572-7.703-4.105-11.337-2.532-3.615-6.005-6.757-9.845-8.574L52.243 4.033c-2.103-.984-4.064-1.477-5.78-1.515-1.716-.02-3.207.378-4.37 1.173l-.084.056z" fill="#B2B3B3" fill-rule="nonzero"/><path d="M38.15 111.54l-.062-96.907-1.86-2.915 1.82-1.438-1.49-4.903 4.737-2.706C44.052.798 48.22.72 52.855 2.9l143.798 67.664c8.17 3.843 14.686 13.325 14.686 21.028l.04 131.904c0 10.353-4.862 13.25-7.56 15.974L65.52 99.236 38.15 111.54z" fill="#EBECEC" fill-rule="nonzero"/><path d="M37.884 111.54l-.06-96.85-1.84-2.84-.102-.188.164-.133 1.695-1.326-1.45-4.75-.06-.19.183-.095 4.74-2.707c1.45-.985 3.268-1.496 5.33-1.458 1.98.038 4.188.587 6.496 1.666l143.795 67.665c4.107 1.93 7.803 5.28 10.478 9.105 2.696 3.86 4.372 8.232 4.372 12.15l.02 131.904c.02 9.067-3.676 12.49-6.455 15.047-.408.38-.817.758-1.164 1.1l-.205.207-.18-.208L65.46 99.54l-27.187 12.227-.39.17v-.397zm.47-96.907l.08 96.51 26.963-12.134.184-.095.144.152 138.097 140.04c.33-.32.657-.624 1.003-.925 2.676-2.5 6.29-5.83 6.29-14.688l-.04-131.904c0-3.823-1.633-8.08-4.27-11.885-2.633-3.748-6.248-7.022-10.273-8.916L52.734 3.124c-2.248-1.06-4.372-1.57-6.25-1.61-1.96-.037-3.677.436-5.026 1.364l-.02.018-4.575 2.593 1.45 4.733.04.15-.122.115-1.654 1.287 1.757 2.726.02.133z" fill="#B2B3B3" fill-rule="nonzero"/><path d="M32.37 16.185V13.12c-.02-7.724 6.822-10.884 14.97-7.042l143.634 67.76c8.17 3.86 14.687 13.324 14.687 21.045l.04 135.557v3.066c0 7.703-6.82 10.884-14.99 7.04L47.075 172.77c-8.15-3.843-14.686-13.307-14.686-21.03l-.02-135.555z" fill="#FEFEFE" fill-rule="nonzero"/><path d="M32.084 15.75v-2.63c0-1.894.407-3.52 1.14-4.866.714-1.305 1.754-2.327 3.037-3.01 1.264-.7 2.772-1.06 4.464-1.06 2.037 0 4.32.53 6.704 1.667l143.298 67.76c4.096 1.95 7.785 5.28 10.454 9.122 2.688 3.862 4.36 8.215 4.36 12.15l.022 135.558v3.066c0 1.892-.41 3.52-1.122 4.845-.734 1.327-1.772 2.33-3.036 3.03-1.284.68-2.793 1.058-4.464 1.058-2.037 0-4.32-.547-6.724-1.664L46.918 172.997c-4.096-1.932-7.784-5.282-10.454-9.104-2.69-3.862-4.34-8.235-4.34-12.152l-.04-135.555v-.435zm.55-2.63V16.6l.02 135.14c0 3.824 1.63 8.083 4.26 11.87 2.627 3.765 6.234 7.04 10.25 8.95l143.296 67.76c2.323 1.098 4.523 1.61 6.48 1.61 1.57 0 2.996-.34 4.18-.985 1.2-.644 2.158-1.59 2.83-2.82.693-1.25 1.06-2.82 1.06-4.62v-3.501l-.02-135.12c0-3.823-1.63-8.1-4.258-11.886-2.63-3.748-6.237-7.04-10.25-8.934L47.183 6.304c-2.324-1.097-4.504-1.608-6.46-1.608-1.59 0-2.996.34-4.198.985-1.183.644-2.14 1.59-2.813 2.82-.693 1.25-1.08 2.802-1.08 4.62z" fill="#B2B3B3" fill-rule="nonzero"/><path fill="#B2B3B3" fill-rule="nonzero" d="M32.492 21.654l173.15 81.71 5.554-3.54.306.435-5.678 3.594-.143.095-.143-.076L32.247 22.11M42.235 12.38c1.47.417 2.676 2.177 2.676 3.957 0 1.76-1.204 2.857-2.675 2.46-1.49-.416-2.696-2.177-2.696-3.956 0-1.76 1.204-2.857 2.695-2.46zm14.154 6.68c1.49.418 2.696 2.178 2.696 3.958 0 1.76-1.205 2.876-2.697 2.46-1.47-.417-2.676-2.177-2.676-3.938 0-1.778 1.205-2.875 2.675-2.48zm-7.026-3.31c1.47.416 2.675 2.176 2.675 3.936 0 1.78-1.206 2.878-2.676 2.46-1.492-.396-2.697-2.157-2.697-3.936 0-1.76 1.205-2.877 2.697-2.46z"/><path d="M65.03 79.46c.184.188 2.86 1.4 3.268 1.55l3.738 1.74-3.677-11.64-.083-.074-3.247 8.422zm3.268-18.664l-.02.094c.08.133.02.02.08.152l.696 2.176c.653 2.083 1.53 5.054 2.185 6.966.94 2.82 1.94 6.302 2.9 9.236 1 3.104 1.878 6.19 2.9 9.293.51 1.553.94 3.085 1.47 4.657l1.43 4.636-3.9-1.873c-.164-.19-.287-.795-.368-1.08-.654-2.233-1.635-5.355-2.145-7.362l-5.23-2.346-.04-.094-4.76-2.195-2.226 6.13-4.146-1.815c.083-.417 2.575-6.17 2.8-6.738.367-.87 8.19-19.61 8.374-19.836zm.06 42.283c.614-.114 1.206-.266 1.8-.436 1.715-.454 3.797-.834 5.432-1.326 1.634-.472 3.737-.85 5.453-1.324.144-.038.286-.057.43-.113.715-.19.53.134.715-1.494.06-.72 2.49-23.678 2.49-24.454L68.3 59.187c-.347-.114-1.594-.038-2.002-.038l-6.005-.04c-2.634 0-5.37-.13-7.985-.056-.062.284 1.552 18.19 1.797 21.124.205 2.327.367 4.73.633 7.06 1.103 1.343 2.268 2.65 3.39 3.993 1.144 1.344 2.248 2.67 3.412 3.994l5.086 5.962c.266.303 1.532 1.893 1.736 1.893z" fill="#D92B3F" fill-rule="nonzero"/><path d="M116.748 128.838l.368.17c.245-.056 1.347.134 1.633.172l4.78.643c2.123.322 4.246.607 6.352.852l2.858-36.435-31.598-14.535 2.86 39.064c.714.662 8.108 6.38 9.518 7.496.633.492 2.86 2.156 3.228 2.572z" fill="#E75E24" fill-rule="nonzero"/><path d="M116.93 108.7l4.862 2.235-.45 5.772-4.37-.625-4.39-3.37c-.042-.113-.02-.037-.062-.245l-.286-3.634-3.963-1.817c-.02.57.47 7.193.573 7.57l7.965 6.266.123.056 8.13 1.117 1.043-13.628c-.206-.34-.756-.473-1.042-.605l-8.13-3.728-5.227-2.442-.347-4.864 5.575 2.575 9.377 4.294c.183.02.062.038.183-.018l.37-4.374-9.93-4.56-9.925-4.562 1.063 14.48 8.863 4.106z" fill="#FFF" fill-rule="nonzero"/><path d="M149.063 101.356l2.878 39.2c2.146 1.702 4.27 3.35 6.353 4.958l6.292 4.977.407.172 12.726 1.476 2.88-37.06-31.535-14.138v.416z" fill="#37B4DC" fill-rule="nonzero"/><path d="M164.85 120.19l5.535 2.498c.02.72-.224 4.165-.387 4.655l-5.046-2.233-4.84-2.195.388 4.864 4.33 1.948 4.882 2.253-.45 5.812-4.37-.55c-1.145-.72-3.392-2.497-4.474-3.426l-.266-3.822-3.9-1.8.49 7.592 8.087 6.34.224-.058c.205.095 7.456 1.136 7.885.93l1.776-22.903c-.347-.474-4.433-2.14-4.882-2.347-1.675-.738-3.33-1.495-5.005-2.253l-9.825-4.39.327 4.788 9.518 4.297z" fill="#FEFEFE" fill-rule="nonzero"/><path d="M65 141.392c1.747 1.035 3.016.01 3.016-2.155v-.023c0-2.163-1.255-4.66-3.002-5.692-1.745-1.03-3.014-.008-3.014 2.158v.02c0 2.17 1.253 4.657 3 5.692zm12.503 3.84L89 152v-1.205l-11.497-6.77v1.208zM67.82 128.1v-19.57l-.895-.528v19.566l.895.532zm.97 15.407l1.247.737v-2.44l.977.577 1.21 3.155 1.458.86-1.384-3.542c.722.072 1.213-.412 1.213-1.643v-.02c0-.717-.17-1.42-.482-2.028-.372-.722-.93-1.32-1.65-1.746l-2.588-1.535v7.625zm1.247-3.182v-2.19l1.235.735c.608.358.98.946.98 1.666v.024c0 .64-.346.87-.954.512l-1.26-.747zm-5.023-.466c-1-.59-1.713-2.103-1.713-3.406v-.022c0-1.307.697-1.96 1.7-1.367 1.002.592 1.714 2.102 1.714 3.407v.02c-.002 1.308-.695 1.964-1.7 1.37zM134.826 180.723c1.644 1.09 2.84.012 2.84-2.272v-.023c0-2.28-1.183-4.914-2.828-6.002-1.643-1.085-2.838-.01-2.838 2.275v.02c0 2.288 1.18 4.912 2.826 6.003zm3.568 2.23l1.174.775v-2.572l.92.608 1.14 3.327L143 186l-1.303-3.736c.68.075 1.143-.434 1.143-1.733v-.02c0-.756-.16-1.497-.455-2.14-.35-.76-.875-1.39-1.554-1.84l-2.436-1.618v8.04zm1.174-3.357v-2.308l1.163.773c.574.38.925 1 .925 1.76v.023c0 .674-.327.918-.9.54l-1.187-.787zm-4.73-.49c-.94-.624-1.613-2.22-1.613-3.593v-.024c0-1.38.656-2.067 1.6-1.442.944.623 1.614 2.214 1.614 3.59v.023c-.003 1.38-.655 2.07-1.602 1.445zM152 187v-1.197l-5.368-3.062v1.195L152 187zm-22.632-12.74v-1.197L124 170v1.195l5.368 3.064z" fill="#27B5DA" fill-rule="nonzero"/><path d="M114.41 157.857c-.043-.27.07-1.31.112-1.69.017-.17.017-.305.023-.54.093-4.206-.963-10.13-5.543-9.237-2.004.39-2.484 1.433-3.563 2.045-.877-1.457-2.635-3.506-3.574-4.422-5.87-5.74-5.88 2.07-4.296 7.524-.67.107-1.333.07-2.044.23-3.778.85-5.33 4.122-.517 9.315.86.93 2.603 2.473 3.5 3.006l-.134 2.228c-.157 7.136 2.99 11.493 7.57 8.5.574-.377 1.006-.856 1.535-1.225.896 1.478 2.66 3.523 3.612 4.407 2.893 2.69 4.995 2.945 5.208-.934.128-2.324-.39-4.264-.9-6.706.658-.082 1.315-.055 1.997-.196.703-.14 1.387-.368 1.992-.74 3.835-2.354.032-7.48-3.227-10.218-.558-.47-1.213-1.04-1.752-1.345zm-5.228-9.708c3.02-.912 3.902 1.613 4.11 5.176.106 1.85-.086 2.195-.125 3.592l-1.784-1.035c-.56-.322-1.188-.67-1.775-.936-.53-.24-.4-.193-.82-.97-.94-1.734-1.497-2.563-2.36-4.084.913-.705 1.556-1.382 2.754-1.744zm-.31 12.695c-.603-2.12-2.292-3.412-3.424-3.332-1.432.1-1.835 1.904-1.32 3.568 1.423 4.59 6.083 4.468 4.744-.235zm.027-4.285c.5 1.033 2.624 5.47 2.826 6.3.112.46-1.535 3.904-1.748 4.316-.463.914-.234.75-1.46.382-1.3-.39-2.343-.815-3.622-1.36-.457-.195-.486-.056-.856-.82-1.033-2.14-1.95-4.145-2.845-6.34l.677-1.74c.236-.555.503-1.12.75-1.693.125-.293.26-.53.408-.825.122-.252.22-.714.504-.66.64.118 2.866 1.005 3.633 1.282.3.108.612.256.9.375.41.17.503.104.832.783zm5.28 2.67c1.487 1.058 4.765 3.822 5.472 6.18.413 1.375-.544 2.2-1.468 2.652-1.13.55-2.066.485-3.244.633-.323-.918-.597-1.912-.932-2.875-.163-.477-.352-.997-.533-1.474-.343-.91-.383-.7-.21-1.3.183-.63.334-1.238.5-1.867.177-.667.263-1.33.416-1.95zm-9.493-9.952c-.4.36-.812 1.01-1.145 1.473-.165.235-.91 1.5-1.03 1.52-.055.01-1.638-.38-1.877-.423-.623-.113-1.267-.15-1.906-.272-.555-2.13-1.462-7.262-.048-7.863 1.287-.548 4.643 3.395 6.005 5.566zm2.877 4.723l-3.373-1.232c.136-.38 1.138-1.73 1.452-2.012.26.257 1.65 2.717 1.922 3.245zm3.993 3.52l1.35.846c.005.342-.484 2.608-.654 2.875l-1.984-4.41c.415.19.873.45 1.287.69zm-10.13-3.92c.17.034.204.024.36.11l-1.396 3.216c-.43-1.09-.93-2.616-1.21-3.66.438-.01 1.68.21 2.246.333zm7.344 15.598c-.078.315-1.23 1.904-1.514 2.04-.353-.49-1.637-2.703-1.87-3.268.487.146 1.132.457 1.676.657.49.178 1.285.51 1.71.57zm4.982-.59c-.356.075-2.144-.224-2.56-.353l1.39-3.155c.46 1.186.787 2.346 1.17 3.508zm-4.378 2.674c1.596-2.164.234-1.587 2.92-1.2.352.05 1.705.172 1.937.27.472 1.77 1.067 4.982.795 6.425-.106.55-.153 1.294-.71 1.507-1.34.517-4.7-3.343-6.075-5.54.403-.452.762-.957 1.134-1.462zm-6.696-6.163c-.186-.074-2.424-1.304-2.7-1.62.088-.25.09-.43.152-.716.054-.23.124-.484.178-.71.1-.412.225-1.047.386-1.39l1.984 4.435zm-2.015.42c.302.167.575.34.883.506.583.314 1.172.677 1.773.957.696.32.514.5 1.574 2.388.368.656 1.34 2.19 1.577 2.73-.437.664-1.96 1.55-2.723 1.79-1.002.31-2.253.344-3.028-.945-1.13-1.88-1.24-5.912-1-7.56.028-.175.06-.26.067-.417l.876.552zm-2.657-12.29c.537 1.58.808 2.595 1.444 4.304.57 1.528.403.47-.258 3.146-.167.67-.322 1.3-.43 1.966-.415-.123-2.244-1.732-2.823-2.31-2.522-2.526-3.917-4.963-1.187-6.438.568-.305 2.637-.9 3.253-.668z" fill="#06C1E5"/><path fill="#595A5C" d="M176.103 184.645l-10.597 17.184-10.644-28.732 7.704 4.188 2.917 8.324 2.94-5.14"/><path fill="#75B343" d="M179 186.187L165.03 208 151 171l5.58 3.026L165 196.28l8.45-13.103"/></g></svg>