<?xml version="1.0" encoding="utf-8"?>
<!-- Generator: Adobe Illustrator 22.1.0, SVG Export Plug-In . SVG Version: 6.00 Build 0)  -->
<svg version="1.1" id="Layer_1" xmlns="http://www.w3.org/2000/svg" xmlns:xlink="http://www.w3.org/1999/xlink" x="0px" y="0px"
	 viewBox="0 0 244 199" style="enable-background:new 0 0 244 199;" xml:space="preserve">
<style type="text/css">
	.st0{fill:#EBECEC;}
	.st1{fill:#B2B3B3;}
	.st2{fill:#FEFEFE;}
	.st3{fill:#99999D;}
	.st4{fill:#98CD00;}
	.st5{fill:#00C0E5;}
</style>
<path class="st0" d="M25.8,5.3l5.3-2.9c2.3-1.5,5.8-1.4,9.8,0.6l50.1,25.6c6.9,3.5,12.4,11.6,12.4,18l0.1,139.2
	c0,3.2-1.6,5.4-3.7,6.5l-5.6,3l0,0c-2.3,1.4-5.8,1.2-9.7-0.7l-50-25.6c-6.9-3.5-12.4-11.6-12.4-18L21.9,11.8c0-2.1,0.6-3.8,1.8-5
	C24.4,6,24.9,5.8,25.8,5.3z"/>
<path class="st1" d="M25,4l5.3-2.8c1.4-0.9,3.2-1.3,5.2-1.2c1.8,0.1,3.9,0.7,6,1.8l50.1,25.6c3.7,1.9,6.9,4.9,9.3,8.4
	c2.4,3.5,3.9,7.4,3.9,10.9l0,139.2c0,1.8-0.4,3.4-1.1,4.6c-0.8,1.4-2,2.5-3.4,3.2l0,0l-5.6,3c-0.1,0.1-0.3,0.2-0.5,0.2l-0.2,0.1l0,0
	c-1.3,0.6-2.9,0.9-4.5,0.7c-1.8-0.1-3.8-0.7-5.9-1.8l-50-25.6c-3.7-1.9-6.9-4.9-9.3-8.4c-2.4-3.5-3.9-7.4-3.9-11L20.4,11.8
	c0-1.2,0.2-2.3,0.5-3.3c0.4-1.1,0.9-2,1.6-2.7c0.8-0.8,1.3-1.1,2.1-1.5C24.8,4.2,24.9,4.1,25,4z M31.8,3.7l-5.3,2.9
	c-0.1,0.1-0.3,0.1-0.4,0.2c-0.5,0.3-0.9,0.5-1.3,0.9c-0.4,0.4-0.8,1-1,1.6c-0.2,0.7-0.4,1.5-0.4,2.3l0.1,139.4
	c0,2.9,1.3,6.3,3.4,9.3c2.1,3.1,5,5.8,8.2,7.4l50.1,25.6c1.7,0.9,3.3,1.3,4.7,1.4c1.4,0.1,2.5-0.1,3.5-0.7l0.7-0.4l0,0l5-2.7h0
	c0.9-0.5,1.6-1.1,2.1-2c0.5-0.9,0.8-1.9,0.8-3.2l-0.1-139.2c0-2.9-1.3-6.3-3.4-9.3c-2.1-3.1-5-5.8-8.2-7.4L40.2,4.4
	c-1.7-0.9-3.3-1.3-4.8-1.4C34,2.9,32.8,3.1,31.8,3.7L31.8,3.7z"/>
<path class="st0" d="M28.3,147.6L28.2,12.3l-1.6-2.5l1.5-1.1l-3.5-2.9l6.4-3.4C33.5,1,37,1.1,40.9,3.1L91,28.7
	c6.9,3.5,12.4,11.6,12.4,18l0.1,139.2c0,3.2-1.6,5.4-3.7,6.5l-5.6,3l-3.1-1.4l-2.6-4.1l-47.7-24.4C33.9,162.1,28.4,154,28.3,147.6z"
	/>
<path class="st1" d="M28,147.6L27.9,12.4L26.4,10l-0.1-0.2l0.2-0.2l1.2-0.9l-3.2-2.6l-0.3-0.3l0.4-0.2L31,2.2c1.2-0.8,2.8-1.1,4.6-1
	c1.7,0.1,3.5,0.6,5.5,1.6l50.1,25.6c3.5,1.8,6.6,4.7,8.9,8c2.3,3.3,3.7,7,3.7,10.3l0.1,139.2c0,1.6-0.4,2.9-1,4.1
	c-0.7,1.2-1.7,2.1-2.9,2.7l0,0l-5.6,3l-0.1,0.1l-0.1-0.1l-3.1-1.4l-0.1-0.1l-2.5-4l-47.6-24.3c-3.5-1.8-6.6-4.7-8.9-8
	C29.5,154.5,28.1,150.8,28,147.6z M28.5,12.3l0.1,135.2c0,3.2,1.4,6.7,3.6,10c2.2,3.2,5.3,6.1,8.6,7.8l47.7,24.4l0.1,0.1l2.5,4
	l2.9,1.3l5.5-2.9v0c1.1-0.5,2-1.4,2.6-2.5c0.6-1,0.9-2.3,0.9-3.8l-0.1-139.2c0-3.2-1.4-6.7-3.6-10c-2.2-3.2-5.3-6.1-8.6-7.8
	L40.8,3.4c-1.9-1-3.7-1.5-5.2-1.6c-1.6-0.1-3.1,0.2-4.2,0.9h0l-6,3.3l3.1,2.6l0.3,0.2L28.4,9l-1.3,0.9l1.4,2.3L28.5,12.3z"/>
<path class="st2" d="M22,151.1l0-139.4c0-2,0.6-3.7,1.6-4.8c2.2-2.5,6.3-2.8,11-0.4l50.1,25.6c6.9,3.5,12.4,11.6,12.4,18l0.1,139.4
	c0,6.4-5.8,8.8-12.6,5.3l-50-25.6C27.5,165.6,22,157.5,22,151.1z"/>
<path class="st1" d="M21.7,151.1L21.6,11.8c0-1,0.1-2,0.4-2.8c0.3-0.9,0.7-1.6,1.2-2.2c1.2-1.3,2.9-2.1,4.9-2.1
	c1.9-0.1,4.2,0.4,6.5,1.6L85,31.8c3.5,1.8,6.6,4.7,8.9,8c2.3,3.3,3.7,7,3.7,10.3l0.1,139.4c0,1.5-0.3,2.8-0.9,3.9
	c-0.6,1.1-1.4,1.9-2.4,2.4c-1,0.6-2.3,0.8-3.6,0.8c-1.9,0-4-0.5-6.2-1.7l-50.3-25.6c-3.5-1.8-6.6-4.7-8.9-8
	C23.1,158.1,21.7,154.4,21.7,151.1z M22.2,11.8l0.1,139.4c0,3.2,1.4,6.7,3.6,10c2.2,3.2,5.3,6.1,8.7,7.8l50.3,25.6
	c2.1,1.1,4.2,1.6,5.9,1.6c1.3,0,2.4-0.3,3.3-0.8c0.9-0.5,1.7-1.2,2.2-2.2c0.5-1,0.8-2.2,0.8-3.6L97,50.1c0-3.2-1.4-6.7-3.6-10
	c-2.2-3.2-5.3-6.1-8.7-7.8L34.5,6.8c-2.3-1.1-4.4-1.7-6.2-1.6c-1.9,0.1-3.4,0.7-4.5,1.9c-0.5,0.6-0.9,1.2-1.1,2
	C22.4,9.9,22.2,10.8,22.2,11.8z"/>
<path class="st1" d="M59.5,161.2c3.3,1,6,5,6,8.9c0,3.9-2.7,6.1-6,5.1c-3.3-1-6-5-6-8.9C53.5,162.4,56.2,160.1,59.5,161.2z"/>
<path class="st3" d="M72.8,82c-0.1-0.1-0.7-0.8-1-1.2c-0.9-1.2-1.9-2.5-2.5-3.9c-0.9-1.9-1.6-4-1.7-6.4c-0.2-2.4,0.3-4.2,1.1-5.5
	c0.7-1.1,1.9-2,3.1-2.2c-0.2-0.7-1.3-2.5-1.7-3.1c-0.6-0.9-1.4-1.8-2.3-2.7c-1.9-1.9-4.1-3.3-6.2-3.6c-0.9-0.2-1.8-0.2-2.7-0.2
	c-0.9,0-1.8,0-2.9-0.9c-1.8-1.5-3.5-3.6-5.6-4.8c-2.2-1.2-4.1-1.1-5.5-0.7c-1.4,0.4-2.6,1.5-3.3,2.9c-1.8,3.4-1.6,9-0.5,14.3
	c1.1,5.3,2.9,9.7,5,13.8c0.3,0.5,0.6,1.1,0.8,1.5c0.3,0.5,0.6,1,1,1.5c0.7,0.9,1.5,2,2.6,2.6c2.9,1.6,4.8-0.6,8.9,2.8
	c0.9,0.8,1.7,1.7,2.6,2.5c1.8,1.6,3.5,2.1,4.9,1.5c1.4-0.6,2.7-2.2,3.6-3.5c0.5-0.6,0.9-1.3,1.3-2.1C72.1,84.2,72.8,82.7,72.8,82z
	 M56.6,49.9c3.5,1.8,6.4,0.3,7.5-2.8c0.5-1.3,0.6-2.4,0.5-4.2c-1.7-0.8-3.4-0.6-4.7-0.1c-1.2,0.4-2.2,1.6-2.8,3
	C56.6,46.9,56.4,48.2,56.6,49.9z"/>
<path class="st0" d="M216.4,5.3l-5.3-2.9c-2.3-1.5-5.9-1.4-9.8,0.6l-50.1,25.6c-6.9,3.5-12.4,11.6-12.4,18l-0.1,139.2
	c0,3.2,1.6,5.4,3.7,6.5l5.6,3l0,0c2.3,1.4,5.8,1.2,9.7-0.7l50-25.6c6.9-3.5,12.4-11.6,12.4-18l0.1-139.4c0-2.1-0.6-3.8-1.8-5
	C217.8,6,217.3,5.8,216.4,5.3z"/>
<path class="st1" d="M215.7,6.6l-5.3-2.9l-0.1-0.1c-0.9-0.6-2.1-0.8-3.5-0.7c-1.4,0.1-3.1,0.6-4.8,1.4L152,30
	c-3.2,1.6-6.1,4.3-8.2,7.4c-2.1,3-3.4,6.4-3.4,9.3l-0.1,139.2c0,1.3,0.3,2.3,0.8,3.2c0.5,0.9,1.3,1.6,2.2,2h0l4.9,2.6h0l0.7,0.4
	c0.9,0.5,2.1,0.8,3.5,0.7c1.4-0.1,3-0.6,4.7-1.4l50-25.6c3.2-1.6,6.1-4.4,8.2-7.4c2.1-3.1,3.4-6.4,3.4-9.3l0-139.4
	c0-0.9-0.1-1.7-0.4-2.3c-0.2-0.7-0.6-1.2-1-1.6c-0.4-0.5-0.8-0.7-1.3-0.9C216,6.7,215.8,6.7,215.7,6.6z M211.8,1.2l5.3,2.8
	c0.2,0.1,0.3,0.1,0.4,0.2c0.8,0.4,1.3,0.7,2.1,1.5c0.7,0.7,1.3,1.6,1.6,2.7c0.3,1,0.5,2.1,0.5,3.3l-0.1,139.4c0,3.5-1.5,7.4-3.9,11
	c-2.4,3.4-5.6,6.5-9.3,8.4L158.5,196c-2.1,1.1-4.1,1.6-5.9,1.8c-1.6,0.1-3.2-0.1-4.5-0.7h0l-0.3-0.1c-0.2-0.1-0.3-0.2-0.5-0.2
	l-5.6-3l0,0c-1.4-0.7-2.6-1.8-3.4-3.2c-0.7-1.3-1.2-2.8-1.2-4.6l0.1-139.2c0-3.5,1.5-7.4,3.9-10.9c2.4-3.5,5.6-6.5,9.3-8.4l50-25.6
	c2.1-1.1,4.1-1.6,6-1.8C208.6-0.1,210.4,0.3,211.8,1.2z"/>
<path class="st0" d="M213.8,147.6l0.1-135.2l1.6-2.5L214,8.8l3.4-2.9L211,2.5c-2.3-1.5-5.8-1.4-9.8,0.6l-50.1,25.6
	c-6.9,3.5-12.4,11.6-12.4,18l-0.1,139.2c0,3.2,1.6,5.4,3.7,6.5l5.6,3l3.1-1.4l2.6-4.1l47.7-24.4C208.3,162.1,213.8,154,213.8,147.6z
	"/>
<path class="st1" d="M213.5,147.6l0.1-135.2l0.1-0.1l1.4-2.3L213.8,9l-0.3-0.2l0.3-0.2l3.1-2.6l-6-3.3h0c-1.1-0.7-2.6-1-4.2-0.9
	c-1.6,0.1-3.4,0.6-5.3,1.6l-50,25.6c-3.4,1.7-6.4,4.6-8.7,7.8c-2.2,3.2-3.6,6.8-3.6,10l-0.1,139.2c0,1.5,0.3,2.8,0.9,3.8
	c0.6,1.1,1.6,1.9,2.6,2.5v0l5.5,2.9l2.9-1.3l2.5-4l0.1-0.1l47.7-24.4c3.4-1.7,6.4-4.6,8.6-7.8C212.2,154.3,213.5,150.7,213.5,147.6z
	 M214.2,12.4l-0.1,135.1c0,3.3-1.4,7-3.7,10.3c-2.3,3.3-5.4,6.2-8.8,8l-47.6,24.3l-2.5,4l-0.1,0.1l-3,1.4l-0.1,0.1l-0.1-0.1l-5.6-3
	l0,0c-1.2-0.6-2.2-1.5-2.9-2.7c-0.6-1.1-1-2.5-1-4.1l0.1-139.2c0-3.3,1.4-7,3.7-10.3c2.2-3.3,5.4-6.2,8.8-8l50-25.6
	c2-1,3.8-1.5,5.5-1.6c1.8-0.1,3.3,0.2,4.6,1l6.4,3.5l0.4,0.2l-0.3,0.3l-3.2,2.6l1.2,0.9l0.2,0.2l-0.2,0.2L214.2,12.4z"/>
<path class="st2" d="M220.2,151.1l0.1-139.4c0-2-0.6-3.7-1.6-4.8c-2.2-2.5-6.3-2.8-11-0.4l-50,25.6c-6.9,3.5-12.4,11.6-12.4,18
	l0,139.4c0,6.4,5.7,8.8,12.6,5.2l50.1-25.6C214.7,165.6,220.2,157.5,220.2,151.1z"/>
<path class="st1" d="M219.9,151.1l0.1-139.4c0-1-0.1-1.8-0.4-2.6c-0.3-0.8-0.7-1.5-1.2-2c-1.1-1.2-2.6-1.9-4.5-1.9
	c-1.8-0.1-4,0.4-6.2,1.6l-50.4,25.6c-3.4,1.7-6.5,4.6-8.7,7.8c-2.2,3.2-3.6,6.8-3.6,10l-0.1,139.4c0,1.4,0.3,2.6,0.8,3.6
	c0.5,1,1.3,1.7,2.2,2.2c0.9,0.5,2.1,0.8,3.3,0.8c1.8,0,3.8-0.5,5.9-1.6l50.4-25.6c3.4-1.7,6.5-4.6,8.7-7.8
	C218.5,157.9,219.9,154.3,219.9,151.1z M220.5,11.8l-0.1,139.4c0,3.3-1.4,7-3.7,10.3c-2.3,3.3-5.4,6.2-8.9,8L157.5,195
	c-2.2,1.1-4.3,1.7-6.2,1.7c-1.4,0-2.6-0.3-3.6-0.8c-1-0.6-1.9-1.4-2.4-2.4c-0.6-1.1-0.9-2.4-0.9-3.9l0.1-139.4c0-3.3,1.4-7,3.7-10.3
	c2.3-3.3,5.4-6.2,8.9-8l50.4-25.6c2.4-1.2,4.6-1.7,6.5-1.6c2.1,0.1,3.8,0.8,4.9,2.1c0.5,0.6,1,1.4,1.3,2.2
	C220.4,9.8,220.5,10.7,220.5,11.8z"/>
<polygon class="st1" points="154.9,182.1 158,178.6 161.1,175.1 161.1,179.1 161.1,183 158,182.6 "/>
<path class="st1" d="M184.6,163.4L184.6,163.4c1.7-0.8,3,0,3,1.8l0,0c0,1.8-1.4,4-3,4.9l0,0c-1.7,0.8-3,0-3-1.8l0,0
	C181.6,166.5,182.9,164.3,184.6,163.4z"/>
<polygon class="st1" points="206.4,152.9 211.9,150.2 211.9,156.2 206.4,159 "/>
<g>
	<path class="st4" d="M174.1,60.6L174.1,60.6l0,20.3c0,1.4,0.6,2.1,1.2,2.3c1.1,0.3,1.7-0.4,3.1-1c0,0.2,0,5.7,0,6.1
		c0,1.5-0.2,2.6,1.2,2.6c0.9,0,2.1-0.8,2.9-2.1c0.5-0.9,0.4-1.7,0.4-2.8c0-0.4,0-5.9,0-6.1l4.4-2.3c0.1,0.2,0,5.4,0,6.1
		c0,1.3-0.2,2.6,1.2,2.6c0.3,0,0.7-0.1,1.1-0.3c0.8-0.4,1.5-1.1,1.8-1.8c0.6-1,0.4-1.6,0.4-2.8c0-2.1,0-4.1,0-6.2
		c1.3-0.8,2-0.7,3.1-2.2c0.7-0.9,1.2-2.1,1.2-3.5V49.3l-22.1,11.2V60.6z"/>
	<path class="st4" d="M172.4,64.2c0-0.5,0-0.8-0.2-1.2c-0.1-0.3-0.3-0.4-0.5-0.5c-0.4-0.2-1.2-0.1-1.9,0.4c-0.7,0.5-1.3,1.2-1.6,1.8
		c-0.4,0.9-0.3,1.6-0.3,2.6v11.5c0,0.5,0,0.8,0.2,1.2c0.7,1.3,2.9,0.4,4-1.7c0.4-0.9,0.3-1.6,0.3-2.6V64.2z"/>
	<path class="st4" d="M192.8,41c-0.5-0.2-1-0.3-1.6-0.4c-0.2,0-0.4,0-0.6,0c0-0.2,0.4-1,0.5-1.2c0.2-0.4,1.3-2.9,1.3-3.1
		c0-0.3-0.1-0.4-0.2-0.4c-0.2,0-0.4,0.2-0.5,0.4l-1.9,4.3c-0.1,0.1-0.9,0.2-1.1,0.2c-1.2,0.2-2.5,0.8-3.7,1.4
		c-1.2,0.6-2.5,1.4-3.7,2.4c-0.3,0.2-0.9,0.8-1.1,0.9l-1.9-2.4c-0.3-0.4-0.7,0.2-0.7,0.6c0,0.2,0.7,1,0.8,1.1
		c0.2,0.2,0.4,0.5,0.5,0.7c0.1,0.1,0.5,0.6,0.5,0.8c-0.3,0.3-0.8,0.9-1.1,1.2c-1,1.2-2,2.8-2.7,4.3c-0.9,1.9-1.7,4.6-1.7,7
		l22.1-11.2c0-2.4-0.9-4.2-1.7-5.2C193.9,41.6,193.4,41.3,192.8,41z M180.7,51.5c-1.6,1.3-2.2-1.3-0.6-2.6c0.7-0.6,1.3-0.3,1.5,0.3
		C181.8,50,181.2,51,180.7,51.5z M188.6,46.3c-0.1-0.4,0-0.9,0.2-1.3c0.2-0.4,0.4-0.7,0.7-1c0.8-0.6,1.4-0.3,1.5,0.4
		C191.4,46.2,189.1,48.1,188.6,46.3z"/>
	<path class="st4" d="M202.4,60.5V48.9c0-0.8,0-1.4-0.7-1.7c-0.5-0.2-1.1-0.1-1.9,0.4c-0.7,0.4-1.3,1.2-1.6,1.8
		c-0.5,0.9-0.3,1.6-0.3,2.6v11.5c0,0.9,0.1,1.4,0.7,1.7c1.1,0.4,2.8-0.7,3.5-2.2C202.6,62.1,202.4,61.6,202.4,60.5z"/>
</g>
<g>
	<path class="st5" d="M184.1,130.2c1.9-1,3.3-3.8,3.3-6.1c0-2.4-1.5-3.6-3.3-2.7c-1.8,1-3.3,3.7-3.3,6.1
		C180.8,129.8,182.2,131.2,184.1,130.2z"/>
	<path class="st5" d="M203.8,114.6c-0.1-0.7-0.4-1.2-0.8-1.6c-0.5-0.6-1.1-0.9-1.7-1.2c-0.8-0.4-1.8-0.5-2.7-0.6
		c-0.9-0.1-1.9,0-2.9,0.1c0,0-0.1,0-0.1,0c0,0,0,0,0-0.1c0,0,0-0.1,0-0.1c0.3-1.8,0.5-3.6,0.6-5.3c0-1,0-2-0.1-2.9
		c-0.1-0.7-0.2-1.4-0.3-2c-0.2-0.7-0.5-1.3-0.9-1.8c-0.4-0.5-1-0.7-1.7-0.6c-0.6,0.1-1.1,0.4-1.7,0.8c-0.6,0.4-1.1,0.9-1.7,1.4
		c-0.9,0.9-1.8,2-2.6,3.2c-1,1.4-1.9,2.8-2.7,4.3c-0.1,0.2-0.2,0.3-0.3,0.5c0,0-0.1,0-0.1-0.1c-0.2-0.2-0.5-0.3-0.7-0.5
		c-1-0.6-2.1-1.1-3.3-1.4c-0.7-0.1-1.5-0.2-2.3-0.1c-0.7,0.1-1.5,0.4-2.2,0.9c-0.9,0.6-1.6,1.5-2.2,2.7c-0.4,0.8-0.6,1.6-0.8,2.5
		c-0.3,1.3-0.4,2.5-0.4,3.7c0,0.5,0,1,0,1.5c0,0.7,0.1,1.4,0.2,2c0.1,1,0.3,2,0.5,2.9c0,0,0,0.1,0,0.1c0,0-0.1,0.1-0.1,0.1
		c-0.5,0.5-1,0.9-1.5,1.4c-1.2,1.2-2.3,2.4-3.4,3.8c-0.8,1-1.5,2.1-2.1,3.3c-0.4,0.8-0.7,1.6-0.9,2.4c-0.2,1-0.3,1.9-0.1,2.7
		c0.2,0.7,0.4,1.2,0.8,1.6c0.4,0.5,0.9,0.9,1.5,1.1c0.9,0.5,2,0.7,3,0.8c0.9,0.1,1.8,0,2.8-0.1c0,0,0.1,0,0.1,0c0,0,0,0.1,0,0.1
		c-0.1,0.9-0.3,1.7-0.4,2.5c-0.1,1-0.2,1.9-0.2,2.9c0,0.8,0,1.5,0,2.2c0.1,0.8,0.1,1.6,0.3,2.3c0.2,0.8,0.5,1.4,0.9,1.9
		c0.4,0.5,1,0.7,1.7,0.6c0.6-0.1,1.3-0.4,1.9-0.9c0.6-0.4,1.1-0.9,1.6-1.4c0.9-0.9,1.8-2,2.7-3.2c1-1.4,2-2.9,2.9-4.5
		c0-0.1,0.1-0.1,0.1-0.2c0,0,0.1,0,0.1,0.1c0.5,0.3,1,0.7,1.5,0.9c0.9,0.5,1.9,0.8,3,1c0.8,0.1,1.7,0.1,2.6-0.2
		c0.5-0.2,1-0.4,1.6-0.8c0.8-0.6,1.5-1.5,2-2.6c0.4-0.8,0.6-1.7,0.8-2.5c0.3-1.2,0.4-2.4,0.5-3.6c0-1.2,0-2.3-0.1-3.4
		c-0.1-1.1-0.3-2.1-0.5-3.1c0-0.1,0-0.2,0-0.2c0,0,0.1-0.1,0.1-0.1c0.5-0.5,1-1,1.6-1.5c1.2-1.2,2.4-2.6,3.5-4.1
		c0.7-1,1.3-2,1.9-3.1c0.4-0.8,0.7-1.7,0.9-2.5C203.9,116.2,203.9,115.4,203.8,114.6z M188.4,105.4c0.7-0.9,1.3-1.7,2.1-2.4
		c0.4-0.4,0.8-0.7,1.3-0.9c0.6-0.3,1.1-0.2,1.4,0.3c0.2,0.4,0.4,0.8,0.5,1.3c0.1,0.6,0.2,1.2,0.2,1.8c0,0.6,0,1.2,0,1.8
		c0,0.7-0.1,1.5-0.2,2.2c-0.1,0.8-0.2,1.6-0.3,2.3c-0.8,0.2-1.5,0.4-2.3,0.6c-0.6,0.2-1.3,0.4-1.9,0.7c-0.2,0.1-0.3,0.1-0.5,0.2
		c-0.1,0-0.1,0-0.1,0c-0.1-0.2-0.2-0.3-0.4-0.5c-0.8-1-1.7-2-2.6-2.8c-0.1-0.1-0.1-0.1-0.2-0.2C186.4,108.3,187.3,106.8,188.4,105.4
		z M176.4,133.1c0.3,0.5,0.6,1,0.9,1.5c0.3,0.6,0.7,1.2,1.1,1.7c-1,0.4-1.9,0.7-2.9,0.9C175.7,135.9,176,134.5,176.4,133.1z
		 M175.4,123.8c0.9-0.8,1.9-1.5,2.8-2.1c-0.7,1.7-1.3,3.4-1.8,5.1C176,125.8,175.6,124.8,175.4,123.8z M177.5,129.6
		c-0.1-0.3-0.1-0.1,0-0.5c0.4-1.5,0.9-2.9,1.4-4.3c0.6-1.6,1.1-3.1,1.8-4.7c0.1-0.2,0.1-0.2,0.2-0.3c0.3-0.2,0.5-0.3,0.8-0.5
		c0.7-0.4,1.3-0.8,2-1.1c0.7-0.4,1.3-0.7,2-1c0.5-0.3,1.1-0.5,1.6-0.8c0.2-0.1,0.2-0.1,0.3,0.1c0.9,1.2,1.6,2.5,2.4,3.9
		c0.3,0.6,0.6,1.1,0.9,1.7c0,0.1,0,0.2,0,0.3c-0.7,2.2-1.4,4.3-2.2,6.4c-0.3,0.9-0.7,1.9-1.1,2.8c0,0.1-0.1,0.2-0.1,0.2
		c-0.6,0.3-1.1,0.7-1.7,1c-0.6,0.4-1.3,0.7-1.9,1.1c-0.7,0.3-1.4,0.7-2.1,1c-0.3,0.1-0.6,0.3-0.8,0.4c-0.1,0-0.2,0-0.2-0.1
		c-0.7-1-1.4-2.1-2-3.2C178.3,131.3,177.9,130.5,177.5,129.6z M190,115.3c0.9-0.3,2.6-0.8,2.9-0.8c-0.3,1.3-0.6,2.7-1,4.1
		c-0.2-0.3-0.3-0.6-0.5-0.8c-0.3-0.4-0.5-0.9-0.8-1.3C190.5,116,190.3,115.7,190,115.3z M192,124.8c0.4,1,0.7,2,1,3
		c0,0-0.1,0.1-0.1,0.1c-0.7,0.5-1.3,1.1-2,1.5c-0.3,0.2-0.5,0.4-0.8,0.6C190.8,128.3,191.4,126.6,192,124.8z M184.1,112.4
		c0.7,0.6,1.3,1.3,2,2.1c-1.3,0.6-2.6,1.3-3.9,2C182.8,115.1,183.5,113.8,184.1,112.4z M174.6,113.3c0.1-0.5,0.3-1.1,0.5-1.6
		c0.3-0.7,0.7-1.1,1.2-1.4c0.5-0.3,0.9-0.4,1.4-0.5c0.6-0.1,1.3-0.1,1.8,0.1c1,0.2,1.9,0.6,2.7,1.1c0.2,0.1,0.3,0.2,0.5,0.3
		c-1.1,2.1-2.1,4.3-3.1,6.5c0,0,0,0.1-0.1,0.1c0,0.1-0.1,0.1-0.1,0.1c-0.3,0.2-0.6,0.4-0.8,0.6c-0.5,0.3-0.9,0.6-1.4,0.9
		c-0.7,0.5-1.4,1-2.1,1.6c-0.1,0.1-0.3,0.2-0.4,0.3c-0.1-0.8-0.3-1.6-0.4-2.4c-0.1-0.9-0.1-1.8-0.1-2.8
		C174.4,115.3,174.4,114.4,174.6,113.3z M173.3,137.3c0,0.1,0,0.2-0.1,0.3c-1.1,0.1-2.2,0.1-3.3-0.2c-0.7-0.2-1.3-0.4-1.8-0.9
		c-0.3-0.2-0.5-0.5-0.7-0.9c-0.3-0.6-0.3-1.3,0-2.2c0.2-0.7,0.6-1.3,0.9-2c0.6-1,1.2-1.9,1.9-2.7c1-1.2,2-2.3,3.1-3.3
		c0.5,1.7,1.1,3.3,1.7,4.8c0,0.1,0,0.2,0,0.3C174.4,132.9,173.8,135.1,173.3,137.3z M180,146.2c-0.7,0.9-1.4,1.7-2.1,2.4
		c-0.4,0.4-0.8,0.7-1.2,0.9c-0.2,0.1-0.5,0.2-0.7,0.2c-0.4,0.1-0.6-0.1-0.9-0.4c-0.2-0.3-0.4-0.7-0.5-1.2c-0.1-0.6-0.2-1.2-0.2-1.8
		c0-0.6,0-1.2,0-1.8c0-0.8,0.1-1.7,0.2-2.6c0.1-0.7,0.2-1.4,0.3-2c0,0,0.1,0,0.1,0c0.6-0.2,1.2-0.4,1.8-0.5c0.5-0.1,0.9-0.3,1.4-0.5
		c0.4-0.2,0.9-0.3,1.3-0.5c0.1,0,0.2,0,0.3,0.1c0.9,1.2,1.9,2.3,2.9,3.2c0.1,0.1,0.1,0.1,0.2,0.2C182,143.3,181.1,144.8,180,146.2z
		 M184.2,139.3c-0.7-0.6-1.4-1.3-2-2.1c0.4-0.2,0.8-0.4,1.2-0.6c0.5-0.3,1-0.5,1.5-0.8c0.4-0.2,0.8-0.4,1.2-0.7
		C185.7,136.3,184.4,138.9,184.2,139.3z M193.7,138.2c-0.1,0.6-0.3,1.2-0.5,1.7c-0.3,0.7-0.7,1.2-1.3,1.6c-0.5,0.3-1,0.4-1.5,0.5
		c-0.7,0.1-1.4,0-2.1-0.2c-1-0.3-1.9-0.8-2.7-1.4c0.1-0.1,0.1-0.3,0.2-0.4c0.9-1.7,1.7-3.5,2.4-5.2c0.1-0.3,0.3-0.7,0.4-1
		c0-0.1,0.1-0.2,0.2-0.2c0.3-0.2,0.6-0.4,1-0.6c0.3-0.2,0.7-0.5,1-0.7c0.5-0.3,1-0.7,1.4-1c0.4-0.3,0.9-0.7,1.3-1
		c0.1,0.7,0.2,1.3,0.3,2c0.1,1,0.2,2,0.1,3.1C194,136.2,193.9,137.2,193.7,138.2z M200.9,118c-0.2,0.6-0.5,1.2-0.8,1.8
		c-0.5,0.9-1,1.7-1.6,2.5c-1.1,1.4-2.2,2.7-3.4,3.8c-0.5-1.7-1.1-3.3-1.8-4.8c0-0.1,0-0.2,0-0.3c0.7-2.3,1.3-4.5,1.8-6.8
		c1.1-0.1,2.2-0.1,3.2,0.1c0.7,0.1,1.3,0.3,1.8,0.7c0.3,0.2,0.6,0.5,0.8,0.9c0.2,0.3,0.3,0.6,0.2,1C201.1,117.2,201,117.6,200.9,118
		z"/>
</g>
<g>
	<path class="st5" d="M59.5,128.6c-2-1-3.4-3.8-3.4-6.2c0-2.5,1.5-3.6,3.4-2.7c1.9,1,3.4,3.7,3.4,6.2
		C62.9,128.2,61.5,129.6,59.5,128.6z"/>
	<path class="st5" d="M39.2,112.9c0.2-0.7,0.4-1.2,0.8-1.6c0.5-0.6,1.1-0.9,1.7-1.2c0.9-0.4,1.8-0.5,2.8-0.6c1-0.1,2,0,3,0.1
		c0,0,0.1,0,0.1,0c0,0,0,0,0-0.1c0,0,0-0.1,0-0.1c-0.3-1.8-0.5-3.6-0.6-5.4c0-1,0-2,0.1-2.9c0.1-0.7,0.2-1.4,0.3-2
		c0.2-0.7,0.5-1.3,0.9-1.8c0.5-0.5,1-0.7,1.7-0.6c0.6,0.1,1.2,0.4,1.8,0.8c0.6,0.4,1.2,0.9,1.7,1.4c1,1,1.9,2,2.7,3.2
		c1,1.4,2,2.8,2.8,4.3c0.1,0.2,0.2,0.3,0.3,0.5c0,0,0.1,0,0.1-0.1c0.2-0.2,0.5-0.3,0.7-0.5c1.1-0.6,2.2-1.1,3.5-1.4
		c0.8-0.1,1.5-0.2,2.4-0.1c0.8,0.1,1.5,0.4,2.3,0.9c0.9,0.6,1.7,1.5,2.3,2.7c0.4,0.8,0.7,1.7,0.8,2.5c0.3,1.3,0.4,2.5,0.4,3.7
		c0,0.5,0,1,0,1.5c0,0.7-0.1,1.4-0.2,2c-0.1,1-0.3,2-0.5,2.9c0,0,0,0.1,0,0.1c0,0,0.1,0.1,0.1,0.1c0.5,0.5,1.1,0.9,1.6,1.4
		c1.2,1.2,2.4,2.4,3.5,3.9c0.8,1,1.5,2.1,2.2,3.3c0.4,0.8,0.8,1.6,1,2.5c0.3,1,0.3,1.9,0.1,2.7c-0.2,0.7-0.5,1.2-0.8,1.7
		c-0.4,0.5-1,0.9-1.5,1.1c-1,0.5-2,0.7-3.1,0.8c-0.9,0.1-1.9,0-2.9-0.1c0,0-0.1,0-0.1,0c0,0.1,0,0.1,0,0.1c0.2,0.9,0.3,1.7,0.4,2.6
		c0.1,1,0.2,2,0.2,2.9c0,0.8,0,1.5,0,2.3c-0.1,0.8-0.2,1.6-0.3,2.4c-0.2,0.8-0.5,1.4-1,1.9c-0.5,0.5-1,0.7-1.7,0.6
		c-0.7-0.1-1.3-0.4-2-0.9c-0.6-0.4-1.1-0.9-1.7-1.4c-1-0.9-1.9-2-2.8-3.2c-1.1-1.4-2.1-3-3-4.6c0-0.1-0.1-0.1-0.1-0.2
		c0,0-0.1,0.1-0.1,0.1c-0.5,0.4-1,0.7-1.6,0.9c-1,0.5-2,0.9-3.1,1c-0.9,0.1-1.8,0.1-2.7-0.2c-0.5-0.2-1.1-0.4-1.6-0.9
		c-0.8-0.6-1.5-1.5-2-2.6c-0.4-0.8-0.7-1.7-0.9-2.5c-0.3-1.2-0.4-2.4-0.5-3.6c0-1.2,0-2.3,0.1-3.5c0.1-1.1,0.3-2.1,0.5-3.1
		c0-0.1,0-0.2,0-0.2c0,0-0.1-0.1-0.1-0.1c-0.5-0.5-1.1-1-1.6-1.5c-1.3-1.3-2.5-2.6-3.7-4.2c-0.7-1-1.4-2-1.9-3.1
		c-0.4-0.8-0.8-1.7-1-2.6C39,114.4,39,113.6,39.2,112.9z M55.1,103.6c-0.7-0.9-1.4-1.7-2.2-2.4c-0.4-0.4-0.9-0.7-1.3-0.9
		c-0.6-0.3-1.1-0.2-1.4,0.3c-0.2,0.4-0.4,0.8-0.5,1.3c-0.1,0.6-0.2,1.2-0.2,1.9c0,0.6,0,1.2,0,1.8c0,0.7,0.1,1.5,0.2,2.2
		c0.1,0.8,0.2,1.6,0.3,2.4c0.8,0.2,1.6,0.4,2.4,0.6c0.7,0.2,1.3,0.5,2,0.7c0.2,0.1,0.3,0.1,0.5,0.2c0.1,0,0.1,0,0.1,0
		c0.1-0.2,0.2-0.3,0.4-0.5c0.8-1,1.7-2,2.7-2.8c0.1-0.1,0.1-0.1,0.2-0.2C57.2,106.5,56.2,105,55.1,103.6z M67.6,131.5
		c-0.3,0.5-0.6,1.1-0.9,1.6c-0.4,0.6-0.7,1.2-1.1,1.7c1,0.4,2,0.7,3,0.9C68.3,134.3,68,132.9,67.6,131.5z M68.6,122.1
		c-1-0.8-1.9-1.5-2.9-2.1c0.7,1.7,1.3,3.4,1.9,5.1C68,124.1,68.3,123.1,68.6,122.1z M66.4,128c0.1-0.3,0.1-0.1,0-0.5
		c-0.5-1.5-1-2.9-1.5-4.4c-0.6-1.6-1.2-3.2-1.8-4.7c-0.1-0.2-0.1-0.2-0.2-0.3c-0.3-0.2-0.5-0.3-0.8-0.5c-0.7-0.4-1.4-0.8-2.1-1.2
		c-0.7-0.4-1.4-0.7-2.1-1c-0.6-0.3-1.1-0.5-1.7-0.8c-0.2-0.1-0.2-0.1-0.3,0.1c-0.9,1.2-1.7,2.6-2.5,4c-0.3,0.6-0.6,1.2-0.9,1.7
		c0,0.1,0,0.2,0,0.3c0.7,2.2,1.4,4.3,2.3,6.5c0.4,1,0.7,1.9,1.1,2.8c0,0.1,0.1,0.2,0.2,0.2c0.6,0.3,1.2,0.7,1.7,1
		c0.7,0.4,1.3,0.7,2,1.1c0.7,0.3,1.4,0.7,2.2,1c0.3,0.1,0.6,0.3,0.9,0.4c0.1,0,0.2,0,0.2-0.1c0.7-1,1.4-2.1,2.1-3.2
		C65.6,129.7,66,128.9,66.4,128z M53.4,113.6c-0.9-0.3-2.7-0.8-3-0.8c0.3,1.4,0.6,2.7,1,4.1c0.2-0.3,0.3-0.6,0.5-0.9
		c0.3-0.5,0.5-0.9,0.8-1.3C52.9,114.3,53.2,114,53.4,113.6z M51.3,123.2c-0.4,1-0.7,2-1,3c0,0,0.1,0.1,0.1,0.1
		c0.7,0.5,1.4,1.1,2.1,1.6c0.3,0.2,0.6,0.4,0.8,0.6C52.6,126.7,52,125,51.3,123.2z M59.5,110.6c-0.7,0.6-1.4,1.3-2,2.1
		c1.3,0.6,2.7,1.3,4,2C60.9,113.4,60.2,112,59.5,110.6z M69.3,111.6c-0.1-0.5-0.3-1.1-0.5-1.6c-0.3-0.7-0.7-1.1-1.2-1.5
		c-0.5-0.3-1-0.5-1.5-0.5c-0.7-0.1-1.3-0.1-1.9,0.1c-1,0.2-2,0.6-2.8,1.1c-0.2,0.1-0.3,0.2-0.5,0.3c1.1,2.1,2.2,4.3,3.2,6.6
		c0,0,0,0.1,0.1,0.1c0,0.1,0.1,0.1,0.1,0.1c0.3,0.2,0.6,0.4,0.9,0.6c0.5,0.3,0.9,0.6,1.4,0.9c0.7,0.5,1.5,1.1,2.2,1.6
		c0.1,0.1,0.3,0.2,0.4,0.3c0.2-0.8,0.3-1.6,0.4-2.4c0.1-0.9,0.1-1.8,0.1-2.8C69.6,113.6,69.6,112.6,69.3,111.6z M70.7,135.8
		c0,0.1,0,0.2,0.1,0.3c1.2,0.1,2.3,0.1,3.4-0.2c0.7-0.2,1.3-0.4,1.9-0.9c0.3-0.2,0.6-0.5,0.8-0.9c0.3-0.6,0.3-1.3,0-2.2
		c-0.2-0.7-0.6-1.3-0.9-2c-0.6-1-1.3-1.9-2-2.8c-1-1.2-2.1-2.3-3.2-3.3c-0.5,1.7-1.1,3.3-1.8,4.9c0,0.1,0,0.2,0,0.3
		C69.6,131.3,70.2,133.6,70.7,135.8z M63.8,144.7c0.7,0.9,1.4,1.7,2.2,2.4c0.4,0.4,0.8,0.7,1.3,0.9c0.2,0.1,0.5,0.2,0.7,0.2
		c0.4,0.1,0.7-0.1,0.9-0.4c0.2-0.3,0.4-0.7,0.5-1.2c0.1-0.6,0.2-1.2,0.3-1.9c0-0.6,0-1.2,0-1.8c0-0.8-0.1-1.7-0.2-2.6
		c-0.1-0.7-0.2-1.4-0.3-2.1c0,0-0.1,0-0.1,0c-0.6-0.2-1.3-0.4-1.9-0.6c-0.5-0.1-0.9-0.3-1.4-0.5c-0.4-0.2-0.9-0.3-1.3-0.5
		c-0.1,0-0.2,0-0.3,0.1c-0.9,1.2-2,2.3-3,3.2c-0.1,0.1-0.1,0.1-0.2,0.2C61.7,141.9,62.7,143.4,63.8,144.7z M59.4,137.8
		c0.7-0.6,1.4-1.3,2.1-2.1c-0.4-0.2-0.8-0.4-1.2-0.6c-0.5-0.3-1.1-0.5-1.6-0.8c-0.4-0.2-0.8-0.4-1.2-0.7
		C57.9,134.8,59.2,137.4,59.4,137.8z M49.6,136.7c0.1,0.6,0.3,1.2,0.5,1.7c0.3,0.7,0.8,1.3,1.3,1.6c0.5,0.3,1,0.4,1.5,0.5
		c0.8,0.1,1.5,0,2.1-0.2c1-0.3,1.9-0.8,2.8-1.4c-0.1-0.1-0.1-0.3-0.2-0.4c-0.9-1.7-1.7-3.5-2.5-5.3c-0.1-0.3-0.3-0.7-0.4-1
		c0-0.1-0.1-0.2-0.2-0.2c-0.3-0.2-0.7-0.4-1-0.6c-0.4-0.2-0.7-0.5-1.1-0.7c-0.5-0.3-1-0.7-1.5-1c-0.5-0.3-0.9-0.7-1.4-1
		c-0.1,0.7-0.2,1.3-0.3,2c-0.1,1-0.2,2-0.1,3.1C49.3,134.6,49.4,135.6,49.6,136.7z M42.1,116.3c0.2,0.6,0.5,1.2,0.8,1.8
		c0.5,0.9,1.1,1.7,1.7,2.5c1.1,1.4,2.3,2.7,3.6,3.9c0.5-1.7,1.1-3.3,1.9-4.8c0-0.1,0-0.2,0-0.3c-0.7-2.3-1.3-4.6-1.8-6.8
		c-1.1-0.1-2.2-0.1-3.3,0.1c-0.7,0.1-1.3,0.3-1.9,0.7c-0.3,0.2-0.6,0.5-0.9,0.9c-0.2,0.3-0.3,0.6-0.3,1
		C41.9,115.5,42,115.9,42.1,116.3z"/>
</g>
</svg>
