<!DOCTYPE svg PUBLIC "-//W3C//DTD SVG 1.1//EN" "http://www.w3.org/Graphics/SVG/1.1/DTD/svg11.dtd" [
	<!ENTITY ns_flows "http://ns.adobe.com/Flows/1.0/">
]><svg xmlns="http://www.w3.org/2000/svg" width="158" height="41" viewBox="0 0.05 158 41" overflow="visible"><path fill-rule="evenodd" clip-rule="evenodd" fill="#55ADFF" d="M143.07 11.293c.006 1.447-.446 2.435-.647 3.675-1.43.238-2.676.238-4.106 0-.463-3.205 1.63-4.746 4.754-3.675z"/><path fill-rule="evenodd" clip-rule="evenodd" fill="#FFF" d="M108.06 11.726c-.388 7.25-2.627 12.645-2.81 20.1h-3.458c-.062-.733-.344-1.24-.216-2.162-1.13 1.606-6.496 4.1-8.213.648-.872-1.753-.538-4.712.217-6.916 1.282-3.748 5.568-6.8 9.726-6.267.605-1.485.706-3.473.648-5.62 1.39-.173 3.025-.42 4.106.215zM97.686 28.8c3.924.205 4.56-4.628 5.188-8.43-4.71-.448-6.776 4.684-5.188 8.43zM157.335 11.51c-.288 7.42-2.547 12.87-2.81 20.315h-3.457V29.45c-2.395 3.05-8.66 4.19-8.86-1.516-.203-5.722 4.016-11.365 10.372-10.805.7-1.39.674-3.506.648-5.62a11.9 11.9 0 0 1 4.107 0zM146.96 28.8c4 .28 4.608-4.58 5.19-8.43-4.728-.467-6.674 4.785-5.19 8.43zM64.62 12.375c-.01 1.43-.615 2.266-1.08 3.242-2.34-1.245-6.906-1.31-7.133 1.08-.32 3.367 6.563 3.55 6.916 6.917 1.193 8.145-7.462 9.696-13.832 7.563.3-1.216.663-2.363 1.083-3.457 3.206 1.29 8.385 1.382 8.43-1.946.046-3.562-6.063-3.212-6.7-6.7-1.18-7.395 6.766-8.722 12.318-6.7zM123.837 12.158c.05 1.563-.594 2.433-1.08 3.458-8.358-5.207-15.493 13.913-4.323 12.75.933-1.877.805-4.812 1.513-6.916.972-.33 2.917-.33 3.89 0-.437 3.454-1.06 6.722-1.728 9.94-2.287.49-4.475.977-7.135.65-8.27-1.016-8.127-12.71-2.81-17.722 2.953-2.783 6.817-3.462 11.67-2.16z"/><path fill-rule="evenodd" clip-rule="evenodd" fill="#55ADFF" d="M0 20.803v-1.73c1.562-6.72 9.115-7.453 16.857-7.995-1.092 2.43-3.116 5.11-5.62 7.78C8.497 21.782 2.063 26.82 0 20.804zM29.39 29.664c2.71-3.976 5.765-9.823 10.375-11.887 2.642-1.182 5.97-.72 6.484 1.946 1.56 8.084-9.53 9.718-16.86 9.94z"/><path fill-rule="evenodd" clip-rule="evenodd" fill="#FFF" d="M68.725 26.423c.325 3.246 4.473 2.724 6.917 1.73.443.78.66 1.787.648 3.023-4.635 1.45-9.263 1.4-10.806-1.728-1.616-3.272-.04-8.608 2.81-10.808 2.41-1.86 8.798-2.66 9.292 1.514.625 5.28-4.91 5.204-8.86 6.27zm4.972-5.62c-.74-2.327-4.91.56-4.755 2.81 2.182-.037 5.39-.816 4.755-2.81zM90.338 31.825h-3.89c.237-1.848.495-3.99.863-6.052.32-1.785 1.514-4.184-.214-5.403-4.74.808-3.72 7.374-5.187 11.455h-3.89c.755-4.79 2.08-9.01 2.16-14.48h3.46c.38.41.154 1.428.214 2.16.97-1.457 5.5-3.81 7.563-1.51 2.836 3.152-1.59 9.938-1.078 13.83zM126.213 17.345h3.675v2.16c.96-.625 2.268-2.77 5.187-2.16a7.89 7.89 0 0 1-.648 3.458c-6.255-.49-4.93 6.596-6.268 11.022h-3.893c.445-5.03 2.068-8.882 1.945-14.48zM142.207 17.345c-.958 4.733-1.744 9.638-2.594 14.48h-3.89c.636-3.76 1.34-7.45 1.944-11.238-.16-.488-1.212-.084-1.73-.216-.93-4.03 3.274-2.922 6.27-3.024z"/><path fill-rule="evenodd" clip-rule="evenodd" fill="#55ADFF" d="M23.557 35.066c-3.22-5.57-6.408-11.17-9.942-16.425 3.15-3.835 5.525-8.45 8.43-12.532.758 3.923.4 8.965.647 13.398 2.88 1.155 5.93 2.138 9.077 3.026-2.417-5.293-6.28-11.01-9.295-16.424C24.435 2.79 29.872-2.04 34.795.92c2 1.202 3.65 4.82 5.187 7.347 1.712 2.818 3.483 5.602 4.323 7.996-2.154-1.604-3.146-4.343-4.54-6.7-1.392-2.354-2.73-4.795-4.537-6.7.173 2.67-1.462 5.137-.865 7.134.354 1.187 2.923 2.308 4.106 3.026 1.71 1.04 3.315 1.887 4.536 2.594-11.635 1.565-14.867 15.736-21.612 22.26-1.953 1.888-6.327 4.295-9.94 2.593-2.15-1.012-4.226-4.9-5.62-7.132-1.798-2.876-3.08-5.49-4.323-8.428 6.085 1.913 9.32-3.746 12.104-5.836-.506 4.033-.818 8.258-1.297 12.32 3.586 1.383 7.55 2.39 11.24 3.672z"/></svg>