<!DOCTYPE svg PUBLIC "-//W3C//DTD SVG 1.1//EN" "http://www.w3.org/Graphics/SVG/1.1/DTD/svg11.dtd" [
	<!ENTITY ns_flows "http://ns.adobe.com/Flows/1.0/">
]><svg xmlns="http://www.w3.org/2000/svg" width="107" height="21" viewBox="0 -1.062 107 21" overflow="visible"><path fill-rule="evenodd" clip-rule="evenodd" fill="#FFF" d="M5.98 0h1.708c2.564.24 4.598.428 6.194 1.443 3.37 2.14 3.34 8.348.32 10.818-2.117 1.735-4.708 1.915-8.33 1.856-.248 1.237-.035 2.92-.105 4.33H0V.41C1.86.145 4.027.175 5.98 0zm-.107 3.4c-.25 2.302-.035 5.048-.106 7.52 6.584 1.455 6.824-8.95.106-7.52zM79.772 0h1.708c2.11.158 4.185.393 5.767 1.236 2.96 1.58 4.014 6.19 2.136 9.376-1.626 2.758-5.323 3.735-9.932 3.607v4.223c-1.85-.07-3.984.135-5.66-.104V.41C75.65.146 77.82.176 79.774 0zm4.592 8.86c1.305-3.215-1.014-6.113-4.7-5.46-.134.042-.218.132-.213.31.07 2.37-.14 5.01.11 7.21 2.125.172 4.14-.42 4.805-2.06zM99.208 0h1.814c1.365.16 2.764.29 4.06.515.064 1.38.298 2.597.426 3.916-1.264-.544-7.544-1.966-7.795.415-.146 1.386 1.95 2.015 3.203 2.473 2.758 1.006 5.442 1.822 5.874 4.842v1.236c-.474 3.905-3.67 5.183-7.903 5.46h-1.814c-1.766-.254-3.702-.343-5.02-1.03-.1-1.414-.41-2.625-.534-4.018 1.345.618 3.02 1.112 5.02 1.34 1.942.22 4.515.158 4.482-1.648-.025-1.46-2.208-1.98-3.63-2.473-1.58-.547-3.228-1.288-4.06-2.164-2.478-2.62-1.224-6.69 1.816-8.038C96.28.323 97.565.19 99.208 0zM24.455.412v7.11c1.782.238 4.02.036 5.98.103.248-2.2.037-4.84.107-7.213h5.66v18.033h-5.66v-7.007c-1.816-.24-4.094-.035-6.087-.104v7.11h-5.66c.07-5.978-.142-12.228.107-18.033 1.85.003 3.702.003 5.553.003zM40.58.412h5.553v18.033h-5.66V.72c-.01-.145-.017-.29.107-.308zM56.17.412v14.322c1.604.24 3.668.035 5.447.103-.164 1.284-.604 2.303-.747 3.608H50.512c.07-5.978-.143-12.228.107-18.033h5.55zM63.86.412h5.553v18.033h-5.66V.72c-.01-.145-.018-.29.106-.308z"/></svg>