<!DOCTYPE svg PUBLIC "-//W3C//DTD SVG 1.1//EN" "http://www.w3.org/Graphics/SVG/1.1/DTD/svg11.dtd" [
	<!ENTITY ns_flows "http://ns.adobe.com/Flows/1.0/">
]><svg xmlns="http://www.w3.org/2000/svg" width="165" height="36" viewBox="0 0 165 36" overflow="visible"><path fill-rule="evenodd" clip-rule="evenodd" fill="#C09" d="M17.41 36.228h-1.025c-1.644-1.164-3.55-1.116-5.325-1.827-3.646-1.46-4.66-8.377-3.584-12.987-4.062-.88-6.263-3.605-7.476-7.308v-1.117c.247-1.332 1.26-2.145 2.15-3.45.728-1.067 1.168-2.816 1.946-3.35 2.342-1.602 6.15 1.178 8.09 1.93-1.08-2.64-1.834-5.524.103-7.104 1.83-1.492 4.1-.966 7.064-.71 1.792.155 5.296-.297 6.35.507 1.888 1.44.07 6.305-.205 8.22 2.007-.287 5.15-1.463 7.167-.405.975.51 1.25 1.75 1.844 2.74.456.757 1.334 1.458 1.64 2.232 1.246 3.17-1.96 6.008-3.995 7.61.578 1.12 1.367 2.004 2.048 3.248.573 1.048 1.488 2.672 1.23 4.06-.154.822-2.35 2.646-2.97 2.942-3.092 1.48-7.857.312-10.242-1.116-1.34 2.227-2.22 4.906-4.812 5.89zm9.933-23.85c-1.02-.87-2.114-2.148-3.482-2.638-1.476-.53-6.972-1.178-8.805-.913-.333.048-1.276.087-1.536.203-.49.22-1.536 1.738-1.844 2.334-.723 1.396-1.023 3.593-1.332 5.785-.222 1.58-.88 5.173.103 6.493.47.63 2.16 1.018 3.175 1.42 1.23.49 2.362.963 3.38 1.32 2.1.735 5.048 1.973 7.68 1.725 2.94-.277 3.566-3.053 4.302-5.48.604-1.993 1.396-4.144 1.23-7.104-.65-1.276-1.738-2.18-2.87-3.147z"/><path fill-rule="evenodd" clip-rule="evenodd" fill="#C00" d="M30.21 15.525c.167 2.96-.625 5.11-1.23 7.104-.735 2.426-1.36 5.2-4.3 5.477-2.633.248-5.582-.99-7.68-1.725-1.02-.357-2.152-.83-3.38-1.32-1.014-.402-2.705-.79-3.175-1.42-.98-1.32-.325-4.913-.103-6.495.308-2.192.61-4.388 1.332-5.785.31-.596 1.353-2.115 1.843-2.334.26-.117 1.203-.156 1.536-.204 1.833-.265 7.33.384 8.807.913 1.368.49 2.463 1.766 3.482 2.638 1.132.97 2.22 1.872 2.868 3.147zm-12.39 7.712c1.454.516 3.885.772 5.734.305 1.983-.502 2.987-2.255 3.072-4.06.22-4.66-3.49-7.83-8.603-7.306-1.153.118-3.186.498-4.096 1.217-1.287 1.02-1.204 3.328-1.33 5.684 1.432 1.704 3.074 3.4 5.222 4.16z"/><path fill-rule="evenodd" clip-rule="evenodd" fill="#FFF" d="M61.866 22.398c-.46.643-1.735.36-2.76.36-1.082 0-2.22.092-3-.12.073-.625 1.273-.374 1.68-.96.686-.986.24-4.262.24-6.36 0-2.313.407-5.21-.24-6.238-.386-.614-1.364-.47-1.68-.96.85-.63 2.525-.435 3.6-.84.46 2.388-.2 9.927.12 12.958.157 1.494.695 1.965 2.04 2.16zM106.137 19.76c-.307 1.706.683 2.115 1.68 2.52-.68.6-2.152.404-2.998.84-.288-.315-.28-.924-.483-1.32-.646.246-1.14 1.135-2.158 1.32-7.515 1.36-6.288-11.577.6-8.88.633.25.695.655 1.56 1.08-.257-2.806.966-7.113-2.04-7.078.73-.827 2.62-.498 3.72-.96.077 4.118-.164 8.557.116 12.477zm-6.84-3.36c-.767 1.452-.565 4.26.722 5.28 2.576 2.037 5.37-1.264 4.316-4.8-.845-2.296-3.932-2.574-5.04-.48z"/><path fill-rule="evenodd" clip-rule="evenodd" fill="#FFF" d="M106.018 7.28c.28 3.92.04 8.36.12 12.48-.28-3.92-.04-8.36-.12-12.48zM127.613 14.36c.683.116 1.86-.26 2.16.24v.36c-.09.71-1.39.208-2.04.36.107 1.943-.947 6.548.84 6.838.962.155 1.18-.952 2.04-.72-.224 1.347-2.6 2.164-3.84 1.32-1.73-1.177-.642-4.66-.96-7.32-.2-.358-1.286.167-1.32-.36.62-1.028 1.09-.65 1.562-1.32 2.91-4.136-5.37-6.607-5.64-1.798-.123 2.188 1.637 1.95 1.92 3.96-1.25 1.147-2.144-.58-2.64-1.32-.538.074-1.25.473-1.2 1.32.092 1.542 6.792 2.99 3.84 6.358-.765.87-3.396 1.228-4.68.12-.628-.188-.077.804-.6.72-.47-.69-.247-2.713-.12-3.6.567.228.486 1.01.84 1.56.48.75 3.693 2.303 3.72 0 .022-2.066-5.473-2.153-4.44-5.52.303-.985 1.326-1.516 2.64-1.558-1.63-4.285 3.984-6.874 6.72-4.44 1.15 1.027 1.23 2.527 1.198 4.8zM153.65 12.32c.407-5.325 9.654-4.79 8.036 2.04.784.176 2.43-.508 2.16.72-.228.533-1.42.1-2.04.24.084 1.95-.9 6.514.84 6.84.912.17 1.268-.913 2.04-.72-.184 1.373-2.62 2.156-3.84 1.318-1.69-1.163-.646-4.698-.96-7.318-.2-.36-1.285.166-1.32-.36.46-.84 1.195-.812 1.562-1.32 1.103-1.53.354-3.938-1.44-4.438-2.46-.688-5.382 2.124-3.72 4.56.475.692 2.132.773 1.68 2.278-.525 1.75-3.05-.206-2.88-1.44-3.463.683-3.54 7.903.84 7.44.992-.106 1.622-.88 2.64-.962-.03 1.05-1.588 1.762-2.64 1.92-6.65 1.004-6.983-8.82-.958-9.117V12.32zM112.736 9.32c.52.14.72.538.72 1.08 0 1.864-2.774 1.212-2.16-.48.08-.214.47-.86 1.44-.6zM145.25 9.32c1.006.27.73 1.96 0 2.16-1.753.483-2.08-2.72 0-2.16z"/><path fill-rule="evenodd" clip-rule="evenodd" fill="#FFCB00" d="M12.596 19.077c.127-2.355.044-4.665 1.33-5.684.91-.72 2.944-1.1 4.097-1.217 5.11-.523 8.822 2.646 8.603 7.306-.085 1.805-1.09 3.558-3.072 4.06-1.85.468-4.28.21-5.735-.305-2.15-.76-3.79-2.456-5.225-4.16z"/><path fill-rule="evenodd" clip-rule="evenodd" fill="#FFF" d="M153.65 12.32v1.32c-.2-.17-.2-1.152 0-1.32zM45.79 17.598c.253-1.773-.572-2.468-1.92-2.64.58-.857 2.302-.576 3.358-.958.215.345.167.953.36 1.32.626-.234.913-.828 1.56-1.08 6-2.35 8.12 7.845 2.52 8.877-1.893.35-3.038-.435-3.96-1.32-.003 2.444-1.034 6.954 1.92 6.84-.46.64-1.734.36-2.758.36-1.083 0-2.222.092-3-.12.067-.694 1.212-.31 1.56-.72.252-.59.454-1.228.36-2.16.198-2.52.198-5.878 0-8.4zm3.718 4.56c3.434.742 4.71-4.352 2.64-6.48-1.357-1.393-3.837-.706-4.56 1.2-.185 2.695.056 4.878 1.92 5.28zM79.503 20.598c-.294 1.414.78 1.46 1.44 1.92-1.246.477-3.836.243-5.28.12.244-.883 1.08-.096 1.68-.96.71-1.02.403-5.206 0-5.88-.406-.677-1.09-.596-1.68-.838.53-.833 2.33-.613 3.36-.96.142.498.235 1.044.36 1.56.794-1.274 5.39-2.72 5.878.24 1.07-.835 1.734-1.62 3-1.8 4.32-.605 3.047 3.92 3.48 6.72.17 1.085 1.09 1.454 1.92 1.8-1.213.403-4.062.39-5.28 0 .113-.448.85-.273 1.2-.48.37-1.783 1.12-6.155-.72-6.84-1.307-.487-3.115.69-3.24 2.4-.197.482-.197 1.796 0 2.28-.32 1.724.527 2.273 1.563 2.64-1.127.475-3.595.242-4.92.12.033-.688 1.13-.31 1.32-.84.065-1.898.942-5.248-.48-6.36-1.197-.937-3.292.2-3.598 1.8-.2.84-.2 2.517 0 3.358zM113.216 14c.452 2.266-.802 6.433.48 7.798.465.496 1.007.19 1.56.72-1.404.477-4.156.243-5.76.12.265-.837 1.112-.16 1.68-.96.738-1.037.4-5.21 0-5.88-.412-.688-1.105-.592-1.68-.838.588-.893 2.472-.49 3.48-.96h.24zM134.092 17.598c.255-1.773-.57-2.468-1.92-2.64.582-.857 2.304-.576 3.36-.958.143.497.235 1.043.36 1.56.566-1.807 5.877-2.36 4.318.96-.362.16-.957.16-1.32 0-.306-.454-.157-1.363-.72-1.56-2.823.04-2.517 4.497-1.92 6.837.335.467 1.37.23 1.68.72-1.404.477-4.155.243-5.758.12.33-.748 1.255-.343 1.68-.96.33-.48.17-1.05.24-1.92.2-.442.2-1.715 0-2.16zM143.93 17.48c.245-1.726-.626-2.334-1.92-2.52.184-.675 1.153-.493 1.8-.6.67-.113 1.343-.31 1.92-.36.456 2.218-.76 6.17.36 7.68.44.59 1.07.308 1.68.838-1.404.477-4.156.243-5.76.12.323-.75 1.245-.333 1.68-.96.328-.47.19-.937.24-1.8.2-.522.2-1.876 0-2.4zM65.705 14.36c.69 2.466-.777 6.08.84 7.318 1.265.97 3.45-.224 3.84-1.44.2-.634.39-3.728-.24-4.68-.4-.603-1.022-.435-1.68-.958.73-.55 2.47-.087 3.598-.24.633 2.574-1.033 7.6 1.8 7.92-.64.597-2.054.424-2.88.84-.38-.26-.405-.876-.48-1.44-1.327.87-2.5 1.83-4.318 1.44-3.39-.73-1.044-5.374-2.4-7.56-.354-.572-1.438-.578-1.68-.96.73-.55 2.472-.088 3.6-.24z"/><path fill-rule="evenodd" clip-rule="evenodd" fill="#FFF" d="M79.503 17.24v3.357c-.2-.84-.2-2.517 0-3.358zM143.93 17.48c.2.52.2 1.876 0 2.398v-2.4zM45.79 17.598c.2 2.52.2 5.88 0 8.4v-8.4zM85.62 17.598v2.28c-.198-.482-.198-1.796 0-2.28zM134.092 17.598c.2.444.2 1.717 0 2.16V17.6zM68.464 30.916c2.02-.405 3.74 1.16 3.36 3.12-.5 2.57-5.655 2.836-5.28-.96.082-.825.787-1.93 1.92-2.16zm1.32 4.68c1.842-.452 1.837-4.556-.72-4.44-2.757.125-2.145 5.144.72 4.44zM88.38 30.916c3.806-.72 4.15 4.104 1.68 4.92-3.554 1.173-5.038-4.282-1.68-4.92zm.12 4.68c2.97.704 3.493-4.536.48-4.44-2.378.076-2.223 4.027-.48 4.44zM102.18 31.036v1.56c.184-1.233-2.052-2.027-2.16-.72-.102 1.205 1.907.582 2.518 2.04.62 1.48-1.18 2.604-2.52 1.68-.446-.128-.19.45-.6.36v-1.68c.31.37.652 1.206 1.08 1.318.99.263 1.544-.257 1.56-.84.028-1.02-1.685-.85-2.28-1.8-1.068-1.703.993-2.346 2.4-1.918zM128.573 30.916c1.812-.364 3.117.712 3.36 1.8.884 3.982-4.992 4.147-5.28.96-.118-1.308.513-2.477 1.92-2.76zm1.32 4.68c1.48-.364 1.745-3 .6-3.96-3.076-2.574-4.744 4.98-.6 3.96zM139.73 34.275c-.15.865 2.264 2.194 2.64.48-.532-1.342-3.448-1.326-2.4-3.48.437-.567 1.765-.24 2.16-.24.48-.297.137 1.1.24 1.562-.02-1.122-1.708-2.096-2.16-.72.547 1.555 2.525.967 2.64 2.52.07.935-.59 1.48-1.318 1.56-.837.09-1.238-.75-1.8 0v-1.682zM62.226 35.836c-.618-.262.39-.22.48-.48-.308-1.332.713-3.993-.72-4.198 1-.28 2.52-.04 3.72-.12.07.247-.15.787.12.84-.244.387-.287-.423-.48-.48-.562-.157-1.316-.123-2.04-.12v1.68c.128.272.754.046 1.08.12.472.07-.03-.83.48-.72-.112.487-.212 1.217 0 1.68-.278-.44-.675-.765-1.56-.6-.066 1.104-.083 2.162.72 2.4h-.24c-.246-.2-1.314-.2-1.56-.002zM72.904 35.836c-.697-.183.44-.27.48-.48-.293-1.347.688-3.97-.72-4.198 1.62-.26 4.218-.46 3.72 1.798-.42.263-.61.752-1.32.72.582.777 1.116 1.604 2.158 1.92-.09.35-.988-.108-1.08.24-.883-.517-1.04-1.76-2.04-2.16-.15.73-.293 1.24 0 1.68.25.376.84.16.36.48-.245-.2-1.313-.2-1.558 0zm1.08-4.56v2.16c2.326.58 2.293-2.732 0-2.16zM80.342 31.756c.038-.476-.23-.648-.72-.6.245-.274.998-.043 1.44-.12.403 1.357 1.028 2.492 1.56 3.72.67-1.13 1.143-2.456 1.68-3.72h1.32c-.16.2-.534.187-.722.36v3.84c-.025.465.726.155.72.6h-.238c-.286-.2-1.395-.2-1.68 0-.486-.16-.037-.318.36-.24.1-.14.157-.32.12-.6.198-.643.198-2.118 0-2.76-.652 1.148-1.07 2.53-1.68 3.72a36.15 36.15 0 0 1-1.68-3.84c-.144 1.105-.488 3.447.6 3.72h-.24c-.13-.198-1.07-.198-1.2 0h-.24c-.037-.477.84-.042.6-.72.2-.842.2-2.518 0-3.36zM93.18 31.517c.012-.37-.362-.357-.72-.36.205-.274.916-.044 1.32-.12.53 1.228 1.156 2.362 1.56 3.72.936-.903 1.202-2.477 1.8-3.72h1.318c-.16.2-.533.187-.72.36v3.84c-.07.44 1.136.294.48.6-.246-.2-1.314-.2-1.56 0h-.24c1.146-.334.598-2.362.72-3.72-.786 1.093-1.132 2.627-1.8 3.84-.594-1.246-1.136-2.544-1.68-3.84-.278.8-.04 2.12-.12 3.12-.025.465.725.155.72.6h-.24c-.128-.198-1.07-.198-1.2 0h-.24c-.088-.49.778-.023.602-.6.2-.962.2-2.76 0-3.72zM108.297 35.836c-.6-.046.03-.385.36-.24-.06-1.167.792-4.21-.6-4.44 1.874-.662 4.883.273 3.24 2.04 1.135.364 1.096 2.537-.36 2.52-.84.078-2-.16-2.64.12zm1.2-4.56v1.8c.492.01.983.023 1.32-.12.6-.87-.005-1.994-1.32-1.68zm0 2.16c.057.623-.13 1.49.12 1.92.257.223.88.08 1.32.12 1.014-.815.345-2.603-1.44-2.04zM114.176 35.836c-.617-.262.39-.22.48-.48.04-2.24-.95-3.45-2.4-4.198.482-.278 1.478-.043 2.16-.12-1.133.625.472 1.663.72 2.4.63-.492.89-1.35 1.44-1.92-.11-.21-.224-.418-.6-.36.362-.278 1.237-.043 1.8-.12-1.336.424-1.697 1.822-2.4 2.88-.2.128-.2 1.07 0 1.2-.052.25.08.316.12.478.396-.077.845.082.36.24-.286-.2-1.395-.2-1.68 0zM120.176 35.836c-.62-.262.39-.22.48-.48-.294-1.347.687-3.97-.722-4.198.206-.275.916-.045 1.32-.12.512 1.286.96 2.638 1.68 3.72.56-1.202 1.14-2.38 1.56-3.72h1.32c-1.315.325-.492 2.788-.72 4.198-.027.466.724.156.72.6h-.24c-.247-.198-1.314-.198-1.56 0h-.24c-.016-.414.624-.175.72-.48V32.24c-.745 1.055-1.205 2.395-1.68 3.72-.725-1.036-1.113-2.405-1.68-3.6.02-.103-.047-.113-.12-.12-.2.722-.2 2.278 0 3-.177.576.69.11.6.6h-.24c-.13-.2-1.07-.2-1.198-.002zM133.013 35.836c-.697-.183.44-.27.48-.48-.31-1.332.713-3.993-.72-4.198.204-.275.915-.045 1.318-.12.47 1.29 1.1 2.422 1.563 3.72.735-1.064 1.21-2.39 1.68-3.72h1.44c-1.372.205-1.163 4.4-.12 4.8h-.24c-.247-.2-1.314-.2-1.56 0h-.24c-.017-.416.624-.177.72-.48v-3.24c-.64 1.2-1.173 2.507-1.68 3.84-.782-1.06-1.073-2.607-1.8-3.72-.2.642-.2 2.117 0 2.76-.417.827 1.35.52.36.84-.13-.2-1.07-.2-1.2-.002z"/><path fill-rule="evenodd" clip-rule="evenodd" fill="#FFF" d="M93.18 31.517c.2.96.2 2.76 0 3.72v-3.72zM80.342 31.756c.2.842.2 2.52 0 3.36v-3.36zM84.182 32.236c.2.642.2 2.117 0 2.76v-2.76zM121.135 32.355c-.28.722-.04 1.96-.12 2.88-.2-.72-.2-2.277 0-3 .073.008.14.02.12.12zM133.853 32.236v2.76c-.2-.642-.2-2.118 0-2.76zM115.376 33.916v1.2c-.2-.13-.2-1.07 0-1.2zM139.73 34.275v1.68c-.198-.285-.198-1.393 0-1.68zM104.818 35.116v.6c-.143.14-.425.136-.72.12-.34-.552.17-1.06.72-.72zM144.89 35.836c-.424.063-.617-.103-.72-.36.017-.904 1.344-.344.72.36zM77.222 35.595c.42.39-.755.2-1.08.24.092-.35.99.11 1.08-.24zM62.226 35.836c.246-.2 1.314-.2 1.56 0h-1.56zM72.904 35.836c.246-.2 1.313-.2 1.56 0h-1.56zM79.982 35.836c.13-.198 1.07-.198 1.2 0h-1.2zM83.702 35.836c.285-.2 1.394-.2 1.68 0h-1.68zM92.82 35.836c.13-.198 1.07-.198 1.2 0h-1.2zM96.658 35.836c.246-.2 1.314-.2 1.56 0h-1.56zM108.297 35.836c.642-.28 1.8-.042 2.64-.12-.64.277-1.8.04-2.64.12zM114.176 35.836c.285-.2 1.395-.2 1.68 0h-1.68zM120.176 35.836c.128-.198 1.068-.198 1.198 0h-1.198zM124.014 35.836c.246-.2 1.313-.2 1.56 0h-1.56zM133.013 35.836c.13-.198 1.07-.198 1.2 0h-1.2zM136.852 35.836c.246-.2 1.313-.2 1.56 0h-1.56zM142.13 31.036c.023-.097.12-.12.12-.24.41.155.29 1.466.12 1.8-.103-.46.24-1.858-.24-1.56z"/></svg>