<!DOCTYPE svg PUBLIC "-//W3C//DTD SVG 1.1//EN" "http://www.w3.org/Graphics/SVG/1.1/DTD/svg11.dtd" [
	<!ENTITY ns_flows "http://ns.adobe.com/Flows/1.0/">
]><svg xmlns="http://www.w3.org/2000/svg" width="116" height="40" viewBox="-0.191 -1.851 116 40" overflow="visible"><path fill-rule="evenodd" clip-rule="evenodd" fill="#12BFDB" d="M25.102 3.847c-.343 1.512-1.875 1.833-2.473 3.09-2.384-1.02-3.63-2.507-6.18-2.78-8.273-.887-12.56 5.967-11.744 12.36 1.247 9.738 17.387 13.247 19.776 1.236-2.578-.72-6.488-.104-9.58-.31v-4.017H28.81c.805 11.795-6.285 17.33-16.07 16.068C4.595 28.44-.68 20.444.072 13.116.812 5.896 7.49-1.074 17.376.14c3.296.403 5.27 1.895 7.726 3.707z"/><path fill-rule="evenodd" clip-rule="evenodd" fill="#13D152" d="M96.484 1.066c-.035 9.542.054 19.437 0 28.12-1.41-.135-3.403.313-4.326-.31V1.066h4.326z"/><path fill-rule="evenodd" clip-rule="evenodd" fill="#FF4B32" d="M39.317 10.645c7.147-.343 13.424 8.445 8.033 15.45-5.13 6.668-19.267 3.323-17.304-8.033.71-4.123 4.104-7.168 9.27-7.417zm.308 15.144c7.355-.014 6.647-12.97-1.235-11.128-6.307 1.472-4.52 11.133 1.235 11.126z"/><path fill-rule="evenodd" clip-rule="evenodd" fill="#FFC100" d="M59.71 10.645c1.8-.12 4.915.396 6.49 1.546 8.054 5.886 1.558 21.704-10.197 16.687-3.588-1.528-7.185-7.003-4.636-12.977.973-2.28 4.15-4.972 8.344-5.255zm.62 15.144c7.19-.056 6.82-12.9-1.236-11.128C52.707 16.07 54.6 25.827 60.33 25.79z"/><path fill-rule="evenodd" clip-rule="evenodd" fill="#FF4B32" d="M115.642 17.753c-4.083 1.685-7.925 3.61-12.36 4.943.747 4.09 7.764 3.686 8.963.31 1.152.698 2.14 1.564 3.397 2.162-1.38 2.075-3.244 3.86-5.562 4.327-8.495 1.71-12.52-4.82-11.743-11.126 1.168-9.45 15.462-11 17.305-.618zm-13.286 1.854c2.83-1.188 5.967-2.065 8.34-3.708-2.763-3.387-8.6-.607-8.34 3.706z"/><path fill-rule="evenodd" clip-rule="evenodd" fill="#12BFDB" d="M85.36 12.5c.86.138-.244-1.686.618-1.546h3.707c-.977 9.307 2.542 21.48-3.4 25.646-4.64 3.26-12.21 1.114-14.214-4.015.933-.72 2.2-1.1 3.403-1.547 1.27.36 1.312 2.156 2.78 2.78 3.997 1.7 8.027-1.287 7.415-5.87-1.226-.128-2.038 1.278-3.397 1.546-5.322 1.046-10.007-2.922-10.815-7.108C69.96 14.678 78.62 6.836 85.36 12.5zm-4.326 13.29c6.085-.17 6.744-12.884-1.237-11.127-5.445 1.2-5.516 11.306 1.237 11.126z"/></svg>