<?xml version="1.0" encoding="utf-8"?>
<!-- Generator: Adobe Illustrator 22.1.0, SVG Export Plug-In . SVG Version: 6.00 Build 0)  -->
<svg version="1.1" id="Layer_1" xmlns="http://www.w3.org/2000/svg" xmlns:xlink="http://www.w3.org/1999/xlink" x="0px" y="0px"
	 viewBox="0 0 434.5 114.5" style="enable-background:new 0 0 434.5 114.5;" xml:space="preserve">
<style type="text/css">
	.st0{fill:#FFFFFF;}
</style>
<path class="st0" d="M428.9,62.7c0,4.9,0.1,9.7,0,14.6c-0.4,11.9-11.7,19.9-22.8,16.1c-1.4-0.5-3.6-0.8-2.8-3.1
	c0.7-2,2.5-0.9,3.9-0.5c8.4,2.5,16.8-2.6,18-10.9c0.1-0.9,0.5-1.9-0.2-2.5c-0.9-0.7-1.6,0.3-2.2,0.8c-5.1,3.6-10.6,3.7-15.9,0.8
	c-5.2-2.9-7.8-7.6-7.7-13.6c0.1-5.9,0-11.7,0-17.6c0-1.3-0.2-3.1,1.7-3.2c2.2-0.1,2,1.8,2,3.3c0,5.9,0,11.7,0,17.6
	c0.1,6.8,4.7,11.6,11,11.7c6.3,0.1,11.3-4.9,11.4-11.8c0.1-5.2-0.1-10.5,0.1-15.7c0.1-1.8-1.2-4.9,1.7-4.9c3.1,0,1.9,3.2,1.9,5.1
	C429,53.5,428.9,58.1,428.9,62.7C428.9,62.7,428.9,62.7,428.9,62.7z"/>
<path class="st0" d="M289.8,61.6c0-4.9,0-9.7,0-14.6c0-1.4-0.1-3,1.7-3.3c1.8-0.3,1.7,1.3,2,2.5c0.5,2.4,1.6,0.6,2.3,0.1
	c3.8-2.8,7.9-3.5,12.4-2.5c6.3,1.4,11.1,6.8,11.4,13.2c0.2,6.6,0.1,13.2,0.1,19.9c0,1.2,0.1,2.8-1.6,2.8c-2,0-1.9-1.7-1.9-3
	c-0.1-5.7,0-11.5-0.1-17.2c-0.2-7.4-4.7-12.4-11.2-12.4c-6.4,0-11.2,5.1-11.4,12.4c-0.1,5.6,0,11.2-0.1,16.9c0,1.4,0.4,3.5-1.8,3.4
	c-2.1-0.1-1.8-2.1-1.8-3.5C289.7,71.4,289.8,66.5,289.8,61.6z"/>
<path class="st0" d="M159.1,80c-8.1,0-15.2-4.7-17.9-11.9c-2.8-7.5-0.6-15.4,5.6-20.6c5.9-4.9,14.7-5.6,21.4-1.8
	c0.6,0.4,1.3,0.8,1.9,1.3c0.9,0.7,1.3,1.6,0.7,2.6c-0.7,1.1-1.6,1-2.6,0.4c-0.6-0.4-1.3-0.8-1.9-1.2c-6.8-3.6-14.6-2-19.3,3.8
	c-4.2,5.2-4.3,12.9-0.1,18c4.7,5.8,12.5,7.4,19.3,3.9c0.4-0.2,0.9-0.5,1.3-0.8c1.1-0.7,2.3-1.5,3.3,0c1,1.6-0.3,2.5-1.4,3.3
	C166.2,79.1,162.8,80,159.1,80z"/>
<path class="st0" d="M382.6,53.8c0-7.4,0-14.7,0-22.1c0-1.5-0.4-3.7,2-3.7c2.1,0,1.8,2.1,1.8,3.5c0,14.9,0,29.7,0,44.6
	c0,0.4,0,0.7,0,1.1c-0.1,1.3-0.3,2.7-1.9,2.6c-1.7-0.1-1.8-1.5-1.8-2.8c0-6.2,0-12.5,0-18.7C382.6,56.8,382.6,55.3,382.6,53.8z"/>
<path class="st0" d="M229.3,53.6c0-7.2,0-14.5,0-21.7c0-1.5-0.7-3.8,1.7-3.9c2.3-0.1,2,2.2,2,3.7c0,14.9,0,29.7,0,44.6
	c0,1.4,0.3,3.5-1.8,3.5c-2.4,0-1.9-2.2-1.9-3.7C229.3,68.5,229.3,61.1,229.3,53.6z"/>
<path class="st0" d="M107.1,19.6c-0.1-7.3-4.3-11.5-11.4-11.6c-3.2-0.1-6.5-0.1-9.7,0c-2.2,0.1-4,0-4.1-2.9
	c-0.1-1.2-1.2-1.9-2.4-1.9c-1.4-0.1-2.7,0.6-2.7,2c-0.2,3-2.2,2.8-4.2,2.8C61.5,8,50.6,8,39.7,8c-1.9,0-3.8,0.2-3.9-2.7
	c0-1.2-1.1-2-2.3-2.1c-1.2-0.2-2.6,0.2-2.8,1.4C30.3,8.6,27.4,8,24.7,8c-2.2,0-4.5,0-6.7,0C9.3,8,5.3,12,5.3,20.6
	c0,25.6,0,51.2,0,76.8c0,8.5,4.1,12.5,12.7,12.5l76.1,0c9,0,13-4,13-13.1c0-18.2,0-36.5,0-54.7C107.1,34.6,107.2,27.1,107.1,19.6z
	 M101.2,59.6c0,12.5,0,25,0,37.5c0,5.4-1.5,6.9-6.9,6.9c-25.4,0-50.7,0-76.1,0c-5.7,0-7-1.3-7-7.1c0-12.7,0-25.5,0-38.2
	c0-12.6,0-25.2,0-37.9c0-5.5,1.3-6.8,6.9-6.9c3,0,6,0.1,9,0c2.2-0.1,3.3,0.7,3.1,3c-0.1,1.4,0,2.8,0.1,4.1c0.2,1.8,1.1,3.2,3.1,3.1
	c1.7-0.1,2.6-1.3,2.7-3c0-0.2,0-0.5,0-0.7c0.4-6.4,0.4-6.4,6.8-6.4c9.7,0,19.5,0.1,29.2-0.1c3.2-0.1,4.5,0.8,4.3,4.2
	c-0.1,2.3-1.1,5.8,2.6,5.9c4.1,0.1,3-3.6,2.9-6c-0.1-3,0.8-4.4,4-4.1c3,0.2,6,0,9,0.1c4.7,0.1,6.3,1.7,6.3,6.4
	C101.2,33.4,101.2,46.5,101.2,59.6z"/>
<path class="st0" d="M367.4,32.4c0-1.1-0.1-2.2-0.3-3.3c-0.2-0.8-0.8-1.3-1.7-1.2c-0.8,0-1.5,0.5-1.6,1.3c-0.2,1.1-0.2,2.2-0.2,3.4
	c0,5.5,0,10.9,0,17.3c-1.6-1.4-2.5-2.1-3.3-2.8c-7.4-5.7-17.4-4.8-23.7,2.1c-6.4,7.1-6.4,18.3,0.1,25.3c6.3,6.8,16.5,7.7,23.7,1.8
	c2.5-2.1,3.4-2.2,3.3,1.4c-0.1,1.2,0.5,2.3,1.9,2.2c1.2-0.1,1.7-1,1.8-2.1c0-0.7,0.1-1.5,0.1-2.2C367.4,61.1,367.4,46.8,367.4,32.4z
	 M349.5,76.3c-7.7,0-14-6.7-13.9-14.6c0.1-8.1,6.4-14.6,14.1-14.5c7.6,0,13.9,6.7,13.9,14.7C363.6,69.8,357.3,76.3,349.5,76.3z"/>
<path class="st0" d="M249.7,62.5c4.2,0.1,8.5,0,12.7,0c0,0,0,0,0,0c4.2,0,8.5-0.1,12.7,0c3,0.1,3.9-1.2,3.4-4.2
	c-1.9-10.5-11.6-16.9-21.9-14.4c-9.8,2.3-15.7,13.6-12.5,23.7c3.1,9.8,14,15,23.5,11.2c3.3-1.4,6-3.6,8-6.6c0.7-1,0.8-2.1-0.3-3
	c-1.1-0.8-1.8,0-2.5,0.8c-0.6,0.8-1.2,1.6-1.9,2.3c-3.8,3.7-8.4,4.9-13.4,3.5c-5.2-1.5-8.4-5.1-9.9-10.3
	C246.8,63.4,247.4,62.5,249.7,62.5z M248,56.1c1.6-4.9,7.1-8.9,12.6-9.1c5.6-0.2,11.4,3.7,13.3,8.7c0.9,2.4,0.1,3.2-2.3,3.1
	c-3.6-0.1-7.2,0-10.8,0c0,0,0,0,0,0c-3.6,0-7.2,0-10.8,0C247.9,58.9,247.3,58.1,248,56.1z"/>
<path class="st0" d="M214.7,61.9c0-5.1,0-10.2,0-15.3c0-1.2,0.1-2.8-1.6-2.9c-1.7-0.2-2,1.3-2,2.6c0.1,3.4-0.9,2.8-3,1.2
	c-7.6-6-17.1-5.3-23.2,1.5c-6.6,7.3-6.6,18.4,0,25.6c6.3,6.9,15.9,7.5,23.5,1.4c2-1.6,2.6-1.6,2.7,1.1c0,1.4,0.1,3.1,2,2.9
	c1.9-0.2,1.5-2,1.5-3.3C214.7,71.6,214.7,66.7,214.7,61.9z M197.5,76.3c-7.7,0.1-13.9-6.5-13.8-14.7c0.1-8.2,6.3-14.8,13.9-14.6
	c7.5,0.1,13.4,6.7,13.3,14.8C210.9,69.9,205.1,76.3,197.5,76.3z"/>
<path class="st0" d="M59.1,78c-8.1,0-15.2-4.7-17.9-11.9c-2.8-7.5-0.6-15.4,5.6-20.6c5.9-4.9,14.7-5.6,21.4-1.8
	c0.6,0.4,1.3,0.8,1.9,1.3c0.9,0.7,1.3,1.6,0.7,2.6c-0.7,1.1-1.6,1-2.6,0.4c-0.6-0.4-1.3-0.8-1.9-1.2c-6.8-3.6-14.6-2-19.3,3.8
	c-4.2,5.2-4.3,12.9-0.1,18c4.7,5.8,12.5,7.4,19.3,3.9c0.4-0.2,0.9-0.5,1.3-0.8c1.1-0.7,2.3-1.5,3.3,0c1,1.6-0.3,2.5-1.4,3.3
	C66.2,77.1,62.8,78,59.1,78z"/>
</svg>
