<!DOCTYPE svg PUBLIC "-//W3C//DTD SVG 1.1//EN" "http://www.w3.org/Graphics/SVG/1.1/DTD/svg11.dtd" [
	<!ENTITY ns_flows "http://ns.adobe.com/Flows/1.0/">
]><svg xmlns="http://www.w3.org/2000/svg" width="172" height="34" viewBox="0 0.042 172 34" overflow="visible"><path fill-rule="evenodd" clip-rule="evenodd" fill="#13D0EE" d="M28.583 6.838c.046-.54-2.504-2.405-2.49-3 .022-.794 3.233-2.41 3.816-2.67 8.633-3.828 18.297 2.688 18.245 12.005-.042 7.424-6.12 13.52-13.934 13.005-5.722-.376-10.256-4.41-11.61-9.67-.586-2.28-.254-4.215-.83-6.17C18.985.836 3.104 2.586 3.867 13.84c.52 7.69 10.584 11.272 15.924 5.67.505 1.27 1.7 1.85 2.158 3.167-8.392 7.643-22.92 1.86-21.896-10.67C.605 5.227 5.998.123 12.824 0c6.626-.118 12.24 4.668 13.104 11.17.425 3.198.3 5.11 1.493 7.003 4.37 6.933 18.124 4.704 16.756-6.502C43.3 4.49 33.26 1.25 28.584 6.837zM94.77 6.838v7.17c.714-.265 1.338-1.217 2.32-1.5 6.604-1.912 6.277 6.42 5.973 12.67h-2.488c-.465-3.898 1.33-10.165-1.99-10.837-4.994-1.01-3.708 5.885-3.814 10.67-.543.344-1.68.094-2.486.17V7.17c-.005-.887 1.986-.49 2.487-.334zM61.925 15.675c1.097.642 2.008.85 2.653 1.667 4.21 5.317-4.417 10.064-10.285 7.668V8.005c4.607-1.417 11.636-.443 10.45 5.002-.276 1.273-1.445 2.138-2.818 2.668zm-4.977-6.17c-.386 1.502-.056 3.723-.166 5.502 7.586 1.468 6.81-7.677.166-5.502zm-.166 13.838c7.926 1.982 7.94-8.436 0-6.5v6.5zM122.47 15.675c1.802.867 3.253 1.89 3.32 4.167.156 5.48-7.285 6.258-13.105 5.168V8.005c4.297-.846 11.097-1.154 12.274 2.668.644 2.095-.416 4.32-2.49 5.002zm-5.64-4.836v3.665c5.846 1.46 4.79-5.924 0-3.667zm0 11.502c5.896 1.46 5.944-6.307 0-4.834v4.833z"/><path fill-rule="evenodd" clip-rule="evenodd" fill="#FFA750" d="M77.352 8.17c.933 1.767-1.144 3.036-2.488 2.002-1.052-1.926 1.288-3.326 2.488-2z"/><path fill-rule="evenodd" clip-rule="evenodd" fill="#13D0EE" d="M145.528 12.34h2.654c.355.754.078 2.145.167 3.168h-2.656c-.267 1.77-.355 4.802.165 6.336.75.314 1.41.373 2.32.166v3.168c-6.214 2.055-7.372-3.498-6.635-9.503-.23-.38-1.154-.062-1.66-.167v-3c.316-.297 1.097-.122 1.66-.168v-2.334c1.33-.22 2.538-.56 3.648-1 .747.473.133 2.312.334 3.334zM107.707 9.672c.736.316.14 1.973.333 2.834h3.15c.26.383.26 1.618 0 2h-2.985c-.21 2.547-.494 6.61.332 8.67.76.337 1.56.383 2.487.166.083.586.248 1.086.166 1.835-6.343 2.284-5.663-5.136-5.474-10.504-.326-.45-1.65.1-1.99-.334v-1.67c.4-.32 1.333-.105 1.99-.167V10.17c.777-.05 1.305-.354 1.99-.498z"/><path fill-rule="evenodd" clip-rule="evenodd" fill="#13D0EE" d="M160.79 20.177h-8.13c.197 2.622 4.65 2.53 6.803 1.667.555.607.566 1.765.662 2.833-3.618 1.548-8.55.808-10.284-1.667-2.255-3.223-.932-8.518 2.16-10.17 4.527-2.422 10.1.868 8.79 7.337zm-8.13-2.835h4.48c.248-3.318-4.62-3.02-4.48 0z"/><path fill-rule="evenodd" clip-rule="evenodd" fill="#13D0EE" d="M170.576 12.84c.048 1.16-.495 1.726-.497 2.835-1.154-.322-3.694-1.436-4.314.166 1.053 1.95 3.662 1.59 4.81 3.17 3.526 4.846-4.52 8.387-8.958 5.668a49.46 49.46 0 0 1 .664-3c1.098.524 3.776 1.497 4.976.333.2-1.626-1.515-1.63-2.322-2-1.105-.506-2.67-1.313-2.986-2.667-1.094-4.694 4.648-6.22 8.624-4.502zM73.37 12.34v2.334c-5.392-.64-3.447 6.095-3.815 10.504-.81-.076-1.943.174-2.488-.168V12.673c.4-.32 1.333-.105 1.99-.167.334.5.094 1.573.167 2.335.82-1.4 1.726-2.71 4.146-2.5zM88.3 14.174c.045-.566-.13-1.352.166-1.667h1.99c-.715 5.79 1.585 13.247-1.658 16.506-1.89 1.9-5.927 2.062-8.958.668.01-.822.487-1.176.497-2 3.135 1.99 8.81 1.116 7.63-4.167-3.59 3.535-9.225.686-9.288-4.502-.068-5.34 6.047-9.13 9.62-4.835zm-5.806.833c-2.065 1.832-1.81 6.213.166 7.67 3.375 2.488 6.57-1.65 5.308-6.17-.64-2.22-3.743-3.035-5.474-1.5zM130.102 12.34c1.115 2.547 1.712 5.614 2.653 8.336.797-2.7 1.363-5.633 2.157-8.336h4.146c-2.973 6.903-3.127 16.64-11.113 18.506a28.972 28.972 0 0 1-.828-3.335c5.216-1.186 2.832-4.47 1.16-8.67-1.042-2.616-1.726-4.856-2.487-6.166.817-.732 2.95-.144 4.312-.333zM77.352 12.673V25.01c-.545.342-1.68.092-2.488.168v-12.17c-.003-.888 1.988-.49 2.488-.335zM30.408 29.847c-.754-1.244-.254-2.478 1.327-2.668 2.665-.324 8.058-.37 8.127 1.5.1 2.666-7.316 1.36-9.454 1.166zM8.843 30.013c-2.376-2.892 1.86-2.668 5.308-2.668 2.22 0 3.67.03 3.817 1.167.372 2.92-6.754 1.374-9.123 1.5z"/><path fill-rule="evenodd" clip-rule="evenodd" fill="#13D0EE" d="M10.5 33.348c-1.814-3.302 5.642-2.925 5.642-1 0 2.168-4.04 1.72-5.64 1zM33.228 31.012c1.757-.69 4.81.2 4.81 1.335 0 2.085-5.792 2.365-5.972.166-.055-.675.226-1.132 1.162-1.5z"/></svg>