<svg xmlns="http://www.w3.org/2000/svg" width="102.688" height="30.042" viewBox="0 -4.292 102.688 30.042"><title>kvh-logo</title><path d="M3.654 8.18H1.227V5.69h2.427v2.49zm0 12.416H1.227V10.013h2.427v10.583zM10 18.83l-.234 1.98h-.85c-.91 0-1.59-.258-2.046-.77-.454-.51-.68-1.155-.68-1.936V4.624h2.426V17.02c0 .425.014.76.043 1 .027.24.088.423.18.542.09.122.23.196.415.226.184.026.433.04.745.04zM20.498 15.697h-7.09c.14 1.06.527 1.834 1.16 2.327.632.493 1.38.74 2.247.74a7.143 7.143 0 0 0 3.194-.767L20.18 20a7.973 7.973 0 0 1-3.536.81c-.91 0-1.718-.14-2.428-.416a5.085 5.085 0 0 1-1.8-1.162c-.488-.497-.86-1.08-1.116-1.746s-.383-1.397-.383-2.19c0-.77.117-1.48.35-2.143a5.128 5.128 0 0 1 1.024-1.735 4.8 4.8 0 0 1 1.608-1.17c.625-.284 1.334-.428 2.13-.428.668 0 1.28.112 1.842.33.56.22 1.047.53 1.458.928.41.397.735.876.97 1.437a4.8 4.8 0 0 1 .35 1.863 6.308 6.308 0 0 1-.15 1.32zm-4.43-3.832c-1.39 0-2.243.73-2.555 2.193h4.665c0-.61-.17-1.13-.512-1.555-.34-.425-.873-.638-1.597-.638zM25.523 20.81c-1.575 0-2.775-.277-3.598-.832l.233-2.128c.172.127.38.256.63.382.247.13.517.242.808.342.29.1.597.18.916.244.32.064.628.098.927.098.61 0 1.056-.114 1.34-.34.284-.23.425-.52.425-.876 0-.34-.152-.624-.458-.85a4.708 4.708 0 0 0-1.107-.598c-.433-.17-.883-.33-1.353-.48a5.67 5.67 0 0 1-1.17-.5c-.696-.41-1.044-1.12-1.044-2.13 0-.424.075-.84.223-1.245.15-.404.383-.76.703-1.064.32-.306.723-.55 1.213-.734.49-.186 1.075-.278 1.756-.278 1.29 0 2.355.257 3.194.767l-.234 2.086c-.796-.71-1.732-1.064-2.81-1.064-.54 0-.984.1-1.332.298-.348.2-.52.51-.52.938 0 .284.065.51.2.682.136.17.316.312.543.425.228.114.487.207.778.277.292.072.593.15.906.235 1.96.497 2.94 1.568 2.94 3.215 0 .34-.05.692-.15 1.054-.1.362-.298.7-.597 1.013-.298.31-.717.566-1.256.765-.538.194-1.24.295-2.107.295zM34.488 20.81c-1.575 0-2.774-.277-3.598-.832l.234-2.128c.17.127.38.256.63.382.248.13.517.242.808.342.29.1.596.18.916.244.32.064.627.098.927.098.61 0 1.057-.114 1.34-.34.285-.23.426-.52.426-.876 0-.34-.15-.624-.457-.85a4.7 4.7 0 0 0-1.106-.598c-.433-.17-.883-.33-1.352-.48a5.657 5.657 0 0 1-1.17-.5c-.697-.41-1.044-1.12-1.044-2.13 0-.424.076-.84.225-1.245.148-.404.383-.76.702-1.064.32-.306.724-.55 1.214-.734.49-.186 1.076-.278 1.758-.278 1.29 0 2.355.257 3.193.767l-.232 2.086c-.795-.71-1.732-1.064-2.812-1.064-.54 0-.982.1-1.33.298-.348.2-.522.51-.522.938 0 .284.068.51.203.682.134.17.314.312.542.425.226.114.485.207.776.277.29.072.593.15.905.235 1.96.497 2.94 1.568 2.94 3.215 0 .34-.05.692-.15 1.054-.1.362-.297.7-.596 1.013-.298.31-.716.566-1.256.765-.542.194-1.243.295-2.11.295zM39.79 15.314c0-.767.125-1.487.373-2.16a5.056 5.056 0 0 1 1.066-1.747c.46-.49 1.02-.877 1.68-1.16.66-.284 1.395-.428 2.205-.428s1.54.142 2.193.426c.652.284 1.21.674 1.67 1.17s.82 1.08 1.077 1.748c.255.667.383 1.383.383 2.15s-.124 1.483-.373 2.15A5.17 5.17 0 0 1 49 19.21c-.46.497-1.02.887-1.68 1.172-.662.284-1.397.426-2.206.426-.823 0-1.562-.142-2.214-.426a5.073 5.073 0 0 1-1.672-1.16 5.09 5.09 0 0 1-1.065-1.737 6.163 6.163 0 0 1-.372-2.17zm2.47-.01c0 1.062.253 1.904.757 2.527.504.623 1.205.934 2.098.934.895 0 1.593-.31 2.097-.933.503-.622.756-1.464.756-2.526 0-1.062-.253-1.9-.756-2.516-.504-.615-1.203-.923-2.097-.923-.894 0-1.594.308-2.098.923-.504.615-.756 1.454-.756 2.516zM61.726 20.596H59.32v-5.73c0-1.034-.183-1.794-.544-2.277-.36-.483-.947-.725-1.758-.725-.993 0-1.753.348-2.277 1.043v7.688h-2.407V10.013h2.17l.086.787c.823-.652 1.717-.98 2.683-.98 2.968 0 4.452 1.684 4.452 5.048v5.728zM69.306 20.81c-1.08 0-1.995-.328-2.748-.98v5.92h-2.405V10.014h2.043l.214.895a4.246 4.246 0 0 1 2.896-1.087c.78 0 1.48.144 2.1.427a4.768 4.768 0 0 1 1.586 1.172c.44.496.776 1.077 1.01 1.745s.353 1.383.353 2.15c0 .767-.113 1.488-.34 2.16a5.095 5.095 0 0 1-.98 1.748c-.426.488-.952.875-1.575 1.16-.628.284-1.346.427-2.154.427zm-.192-8.945c-.823 0-1.474.305-1.95.913s-.712 1.45-.712 2.526c0 1.104.237 1.956.713 2.558.476.603 1.126.902 1.95.902.852 0 1.524-.32 2.022-.966.496-.643.745-1.475.745-2.494 0-1.033-.25-1.864-.745-2.494-.497-.63-1.17-.945-2.023-.945zM80.06 18.83l-.234 1.98h-.853c-.907 0-1.59-.258-2.043-.77-.456-.51-.683-1.155-.683-1.936V4.624h2.43V17.02c0 .425.013.76.04 1 .03.24.09.423.183.542.092.122.23.196.415.226.183.026.433.04.745.04zM90.75 18.83l-.235 1.98h-.724c-1.19 0-2.016-.44-2.47-1.322-.767.88-1.846 1.32-3.237 1.32-.454 0-.873-.074-1.256-.224a2.808 2.808 0 0 1-.99-.64 2.923 2.923 0 0 1-.65-1 3.44 3.44 0 0 1-.233-1.288c0-.724.21-1.324.63-1.8.418-.476.932-.86 1.543-1.15a7.437 7.437 0 0 1 1.97-.617c.702-.12 1.345-.19 1.927-.204-.014-.724-.177-1.23-.49-1.522-.31-.29-.83-.436-1.554-.436-.865 0-1.816.283-2.854.852l-.255-1.96c1.222-.667 2.478-1 3.77-1 1.277 0 2.232.352 2.864 1.054.63.702.947 1.856.947 3.46v2.642c0 .397.012.717.033.96.02.24.067.428.14.562.07.137.173.225.308.266.138.043.317.065.544.065h.276zm-3.728-.853v-2.45c-1.064.044-1.924.23-2.578.565-.652.334-.978.82-.978 1.46 0 .92.496 1.384 1.49 1.384.34 0 .702-.085 1.087-.257.384-.17.71-.405.98-.703zM101.652 20.596h-2.407v-5.73c0-1.034-.18-1.794-.542-2.277-.362-.483-.948-.725-1.757-.725-.994 0-1.754.348-2.28 1.043v7.688H92.26V10.013h2.173l.085.787c.824-.652 1.717-.98 2.685-.98 2.966 0 4.45 1.684 4.45 5.048v5.728z"/></svg>