<?xml version="1.0" encoding="utf-8"?>
<!-- Generator: Adobe Illustrator 22.1.0, SVG Export Plug-In . SVG Version: 6.00 Build 0)  -->
<svg version="1.1" id="Layer_1" xmlns="http://www.w3.org/2000/svg" xmlns:xlink="http://www.w3.org/1999/xlink" x="0px" y="0px"
	 viewBox="0 0 987 987" style="enable-background:new 0 0 987 987;" xml:space="preserve">
<style type="text/css">
	.st0{fill:url(#SVGID_1_);}
	.st1{fill:url(#SVGID_2_);}
	.st2{fill:url(#SVGID_3_);}
</style>
<linearGradient id="SVGID_1_" gradientUnits="userSpaceOnUse" x1="377.664" y1="944.5789" x2="594.5007" y2="100.1912">
	<stop  offset="0" style="stop-color:#CE3F93"/>
	<stop  offset="1" style="stop-color:#74D1FF"/>
</linearGradient>
<path class="st0" d="M918,69L918,69c-91.6-91.6-241.4-91.6-333,0L69,585c-91.6,91.6-91.6,241.4,0,333l0,0
	c91.6,91.6,241.4,91.6,333,0l516-516C1009.6,310.4,1009.6,160.6,918,69z"/>
<linearGradient id="SVGID_2_" gradientUnits="userSpaceOnUse" x1="729.8456" y1="45.4109" x2="571.6824" y2="295.4109">
	<stop  offset="0" style="stop-color:#FF6A9E"/>
	<stop  offset="1" style="stop-color:#FF2665"/>
</linearGradient>
<path class="st1" d="M790.3,459.7L790.3,459.7c-65.6,65.6-172.9,65.6-238.5,0L395.1,303.1c-65.6-65.6-65.6-172.9,0-238.5l0,0
	c65.6-65.6,172.9-65.6,238.5,0l156.6,156.6C855.8,286.8,855.8,394.2,790.3,459.7z"/>
<linearGradient id="SVGID_3_" gradientUnits="userSpaceOnUse" x1="571.69" y1="114.8929" x2="632.9145" y2="436.3214">
	<stop  offset="0" style="stop-color:#914A87"/>
	<stop  offset="1" style="stop-color:#A41C5B"/>
</linearGradient>
<path class="st2" d="M395.1,303.1l156.6,156.6c65.6,65.6,172.9,65.6,238.5,0l0,0c65.6-65.6,65.6-172.9,0-238.5L633.6,64.6
	c-6.9-6.9-14.3-13.1-22-18.5C602.3,53,593.4,60.6,585,69L375.1,278.9C380.9,287.5,387.6,295.6,395.1,303.1z"/>
</svg>
