<?xml version="1.0" encoding="utf-8"?>
<!-- Generator: Adobe Illustrator 22.1.0, SVG Export Plug-In . SVG Version: 6.00 Build 0)  -->
<svg version="1.1" id="Layer_1" xmlns="http://www.w3.org/2000/svg" xmlns:xlink="http://www.w3.org/1999/xlink" x="0px" y="0px"
	 viewBox="0 0 987 986" style="enable-background:new 0 0 987 986;" xml:space="preserve">
<style type="text/css">
	.st0{fill:url(#SVGID_1_);}
	.st1{fill:url(#SVGID_2_);}
	.st2{fill:url(#SVGID_3_);}
</style>
<linearGradient id="SVGID_1_" gradientUnits="userSpaceOnUse" x1="302.315" y1="607.6363" x2="609.6647" y2="754.6296">
	<stop  offset="0" style="stop-color:#DBADFD"/>
	<stop  offset="0.9988" style="stop-color:#9A67BC"/>
</linearGradient>
<path class="st0" d="M714.5,467.5L714.5,467.5c70.7,70.7,70.7,186.3,0,257L515.2,923.8c-70.7,70.7-186.3,70.7-257,0l0,0
	c-70.7-70.7-70.7-186.3,0-257l199.3-199.3C528.2,396.8,643.8,396.8,714.5,467.5z"/>
<linearGradient id="SVGID_2_" gradientUnits="userSpaceOnUse" x1="163.739" y1="47.255" x2="768.8103" y2="864.2254">
	<stop  offset="0" style="stop-color:#EBF890"/>
	<stop  offset="0.4506" style="stop-color:#79D992"/>
	<stop  offset="1" style="stop-color:#00C4C4"/>
</linearGradient>
<path class="st1" d="M918,917L918,917c91.6-91.6,91.6-241.4,0-333L402,68c-91.6-91.6-241.4-91.6-333,0l0,0
	c-91.6,91.6-91.6,241.4,0,333l516,516C676.6,1008.6,826.4,1008.6,918,917z"/>
<linearGradient id="SVGID_3_" gradientUnits="userSpaceOnUse" x1="537.1522" y1="438.5356" x2="524.0746" y2="883.1738">
	<stop  offset="0" style="stop-color:#764D8E"/>
	<stop  offset="0.9988" style="stop-color:#3C3A95"/>
</linearGradient>
<path class="st2" d="M457.5,467.5l-161,161l257,257l161-161c70.7-70.7,70.7-186.3,0-257l0,0C643.8,396.8,528.2,396.8,457.5,467.5z"
	/>
</svg>
