<?xml version="1.0" encoding="utf-8"?>
<!-- Generator: Adobe Illustrator 22.1.0, SVG Export Plug-In . SVG Version: 6.00 Build 0)  -->
<svg version="1.1" id="Layer_1" xmlns="http://www.w3.org/2000/svg" xmlns:xlink="http://www.w3.org/1999/xlink" x="0px" y="0px"
	 viewBox="0 0 2778 974.2" style="enable-background:new 0 0 2778 974.2;" xml:space="preserve">
<style type="text/css">
	.st0{fill:#D1D8E2;}
	.st1{fill:url(#SVGID_1_);}
	.st2{fill:url(#SVGID_2_);}
	.st3{fill:url(#SVGID_3_);}
	.st4{fill:url(#SVGID_4_);}
	.st5{fill:url(#SVGID_5_);}
	.st6{fill:url(#SVGID_6_);}
	.st7{fill:url(#SVGID_7_);}
	.st8{fill:url(#SVGID_8_);}
	.st9{fill:#FFFFFF;}
</style>
<g>
	<path class="st0" d="M1837.1,688c-6.6,0-12.1,5.1-12.6,11.6H968.8c-0.5-6.5-6-11.6-12.6-11.6s-12.1,5.1-12.6,11.6H71.2v2h872.4
		c0.5,6.5,6,11.6,12.6,11.6s12.1-5.1,12.6-11.6h855.7c0.5,6.5,5.9,11.6,12.6,11.6s12.1-5.1,12.6-11.6h842.1v-2h-842.1
		C1849.2,693.2,1843.8,688,1837.1,688z"/>
	<path class="st0" d="M1837.1,479.6c-6.6,0-12.1,5.1-12.6,11.6H968.8c-0.5-6.5-6-11.6-12.6-11.6s-12.1,5.1-12.6,11.6H71.2v2h872.4
		c0.5,6.5,5.9,11.6,12.6,11.6s12.1-5.1,12.6-11.6h855.7c0.5,6.5,5.9,11.6,12.6,11.6s12.1-5.1,12.6-11.6h842.1v-2h-842.1
		C1849.2,484.8,1843.8,479.6,1837.1,479.6z"/>
	<path class="st0" d="M1837.1,271.2c-6.6,0-12.1,5.1-12.6,11.6H968.8c-0.5-6.5-6-11.6-12.6-11.6s-12.1,5.1-12.6,11.6H71.2v2h872.4
		c0.5,6.5,6,11.6,12.6,11.6s12.1-5.1,12.6-11.6h855.7c0.5,6.5,5.9,11.6,12.6,11.6s12.1-5.1,12.6-11.6h842.1v-2h-842.1
		C1849.2,276.4,1843.8,271.2,1837.1,271.2z"/>
	<path class="st0" d="M1849.7,72.9c-0.5-6.5-6-11.6-12.6-11.6s-12.1,5.1-12.6,11.6H968.8c-0.5-6.5-6-11.6-12.6-11.6
		s-12.1,5.1-12.6,11.6H71.2v2h872.4c0.5,6.5,6,11.6,12.6,11.6s12.1-5.1,12.6-11.6h855.7c0.5,6.5,5.9,11.6,12.6,11.6
		s12.1-5.1,12.6-11.6h842.1v-2H1849.7z"/>
</g>
<g>
	
		<linearGradient id="SVGID_1_" gradientUnits="userSpaceOnUse" x1="74.9" y1="319.9379" x2="74.9" y2="819.247" gradientTransform="matrix(1 0 0 -1 0 1156)">
		<stop  offset="0" style="stop-color:#9495A7"/>
		<stop  offset="1" style="stop-color:#E12B68"/>
	</linearGradient>
	<path class="st1" d="M74.9,175.1c-3.1,0-5.2,2-5.2,5s2.1,5,5.2,5s5.2-2,5.2-5S78,175.1,74.9,175.1z"/>
	
		<linearGradient id="SVGID_2_" gradientUnits="userSpaceOnUse" x1="70.9471" y1="319.9379" x2="70.9471" y2="819.247" gradientTransform="matrix(1 0 0 -1 0 1156)">
		<stop  offset="0" style="stop-color:#9495A7"/>
		<stop  offset="1" style="stop-color:#E12B68"/>
	</linearGradient>
	<path class="st2" d="M72.8,153.6v-8.7c-2.4,0.2-3.7,1.8-3.7,4.2C69,151.4,70.2,153.2,72.8,153.6z"/>
	
		<linearGradient id="SVGID_3_" gradientUnits="userSpaceOnUse" x1="74.9" y1="319.9379" x2="74.9" y2="819.247" gradientTransform="matrix(1 0 0 -1 0 1156)">
		<stop  offset="0" style="stop-color:#9495A7"/>
		<stop  offset="1" style="stop-color:#E12B68"/>
	</linearGradient>
	<path class="st3" d="M74.9,231c-3.2,0-5.2,2.2-5.2,5.2s2,5.2,5.2,5.2s5.2-2.2,5.2-5.2S78.1,231,74.9,231z"/>
	
		<linearGradient id="SVGID_4_" gradientUnits="userSpaceOnUse" x1="71.3" y1="319.9379" x2="71.3" y2="819.247" gradientTransform="matrix(1 0 0 -1 0 1156)">
		<stop  offset="0" style="stop-color:#9495A7"/>
		<stop  offset="1" style="stop-color:#E12B68"/>
	</linearGradient>
	<path class="st4" d="M71.3,41.1L71.3,41.1c-19.2,0-34.9,15.7-34.9,34.9v196.9c0,18.5,14.6,33.8,32.9,34.8v604.4h5.4v-4h-1.4V307.7
		c18.3-1,32.9-16.3,32.9-34.8V76C106.1,56.8,90.4,41.1,71.3,41.1z M58.3,99.6h7.4v-3.8h4.1v3.8h7.8c1.5,0,2.1-0.5,2.1-2v-0.8h4.6V99
		c0,3.5-1.8,5.6-5.5,5.6h-8.9v3.4h-4.1v-3.4h-7.4L58.3,99.6L58.3,99.6z M65.7,124.9v-6l8.8,6.5l9.7-7.4v6l-6.2,4.4l6.2,4.4v5.9
		l-9.7-7.4l-8.8,6.5v-6l5.4-3.5L65.7,124.9z M65.7,115.6v-4.9h18.5v4.9H65.7z M75,139.9h1v13.8c2.8-0.3,4.5-2.4,4.5-5.2
		c0-2.6-1.5-4.5-2.5-5.5l3.6-2.5c1.5,1.6,3.3,4.1,3.3,8c0,6-3.9,10-9.8,10s-9.9-3.8-9.9-9.6C65.1,143.2,68.6,139.9,75,139.9z
		 M56.4,110.4h5.4v5.6h-5.4V110.4z M56.2,161.7h28v4.9h-28C56.2,166.6,56.2,161.7,56.2,161.7z M74.8,206h9.4v4.8H73.5
		c-2.4,0-3.8,1.1-3.8,3.3c0,2.1,1.4,3.8,5.2,3.8h9.4v4.9H65.7V218h2.8v-0.1c-2.3-1-3.4-3.1-3.4-5.6c0-2.7,1.2-4.7,3.7-5.7v-0.1
		c-2.5-1.2-3.7-3.5-3.7-6c0-3.6,2.4-6.4,7.4-6.4h11.7v4.9H73.5c-2.4,0-3.8,1.1-3.8,3.4C69.6,204.4,71,206,74.8,206z M70.2,273.2
		c-8.8,0-14.6-6.3-14.6-15.1c0-4.3,1.3-7.5,3.1-10l4.5,3c-1.2,1.7-2.3,4.1-2.3,7.1c0,5.4,3.6,9.5,9.4,9.5c5.7,0,9.4-4,9.4-9.5
		c0-3-1.1-5.4-2.3-7.1l4.5-3c1.8,2.5,3.1,5.7,3.1,10C84.7,267,79,273.2,70.2,273.2z M74.9,246.4c-5.8,0-9.8-4.4-9.8-10.2
		c0-5.9,4-10.2,9.8-10.2s9.8,4.4,9.8,10.2C84.7,242,80.7,246.4,74.9,246.4z M92.1,189.9H65.7V185h2.6l0,0c-1.9-1.2-3.2-3.2-3.2-6.2
		c0-4.8,3.5-8.9,9.8-8.9s9.8,4,9.8,8.9c0,3-1.3,5-3.2,6.2v0.1h10.6C92.1,185.1,92.1,189.9,92.1,189.9z M92.1,91.4l-9.7-4.5l-16.7,8
		v-5.8l11.2-4.7l-11.2-4.8v-5.2l26.5,11.8L92.1,91.4L92.1,91.4z"/>
</g>
<g>
	
		<linearGradient id="SVGID_5_" gradientUnits="userSpaceOnUse" x1="2619.458" y1="248.35" x2="2628.1699" y2="248.35" gradientTransform="matrix(1 0 0 -1 0 1156)">
		<stop  offset="0" style="stop-color:#9495A7"/>
		<stop  offset="1" style="stop-color:#5331DF"/>
	</linearGradient>
	<path class="st5" d="M2623.9,905.8c-2.4,0-4.1,1.2-4.5,3.7h8.7C2628,907.2,2626.3,905.8,2623.9,905.8z"/>
	
		<linearGradient id="SVGID_6_" gradientUnits="userSpaceOnUse" x1="593.0954" y1="246.55" x2="2462.3547" y2="246.55" gradientTransform="matrix(1 0 0 -1 0 1156)">
		<stop  offset="0" style="stop-color:#9495A7"/>
		<stop  offset="1" style="stop-color:#5331DF"/>
	</linearGradient>
	<path class="st6" d="M2646.8,874.6h-112.5c-18.7,0-34.1,14.9-34.9,33.4h-649.8c-1-6-6.2-10.6-12.5-10.6s-11.5,4.6-12.5,10.6H968.7
		c-1-6-6.2-10.6-12.5-10.6s-11.5,4.6-12.5,10.6h-860c-1-6-6.2-10.6-12.5-10.6c-7,0-12.6,5.7-12.6,12.6c0,7,5.7,12.6,12.6,12.6
		c6.3,0,11.5-4.6,12.5-10.6h860c1,6,6.2,10.6,12.5,10.6s11.5-4.6,12.5-10.6h855.9c1,6,6.2,10.6,12.5,10.6s11.5-4.6,12.5-10.6h649.9
		c1.3,18,16.5,32.3,34.8,32.3h112.5c19.2,0,34.9-15.7,34.9-34.9l0,0C2681.6,890.3,2665.9,874.6,2646.8,874.6z M2570.9,897.7h-7.6
		v23.2h-5.1v-23.2h-7.6v-4.8h20.4L2570.9,897.7L2570.9,897.7z M2578.4,920.9h-4.9v-18.5h4.9V920.9z M2578.8,898.6h-5.6v-5.4h5.6
		V898.6z M2611.6,920.9h-4.9v-10.7c0-2.4-1.1-3.8-3.4-3.8c-2.1,0-3.7,1.4-3.7,5.1v9.4h-4.8v-10.7c0-2.4-1.1-3.8-3.3-3.8
		c-2.1,0-3.8,1.4-3.8,5.2v9.4h-4.9v-18.5h4.8v2.8h0.1c1-2.3,3.1-3.4,5.6-3.4c2.7,0,4.7,1.2,5.7,3.7h0.1c1.2-2.5,3.5-3.7,6-3.7
		c3.6,0,6.4,2.4,6.4,7.4L2611.6,920.9L2611.6,920.9z M2633.1,912.7h-13.8c0.3,2.8,2.4,4.5,5.2,4.5c2.6,0,4.5-1.5,5.5-2.5l2.5,3.6
		c-1.6,1.5-4.1,3.3-8,3.3c-6,0-10-3.9-10-9.8c0-5.9,3.8-9.9,9.6-9.9c5.6,0,9,3.6,9,9.9V912.7z"/>
</g>
<g>
	<g>
		
			<linearGradient id="SVGID_7_" gradientUnits="userSpaceOnUse" x1="1797.188" y1="931.6822" x2="134.3348" y2="400.0729" gradientTransform="matrix(1 0 0 -1 0 1156)">
			<stop  offset="0" style="stop-color:#5600D0"/>
			<stop  offset="1" style="stop-color:#94007B"/>
		</linearGradient>
		<path class="st7" d="M1839.4,143.7c-10.6,0-19.2,8.6-19.2,19.2c0,0.4,0,0.9,0.1,1.3l-849.8,365c-3.4-4-8.5-6.5-14.2-6.5
			c-9.9,0-18,7.7-18.7,17.4l-850,256.8c-3.4-5.4-9.5-8.9-16.3-8.9c-10.7,0-19.4,8.7-19.4,19.4s8.7,19.4,19.4,19.4
			c10.3,0,18.7-8,19.3-18.2l850-256.8c3.3,5.1,9.1,8.5,15.7,8.5c10.3,0,18.7-8.4,18.7-18.7c0-0.4,0-0.7-0.1-1.1l849.8-365
			c3.5,4.1,8.8,6.8,14.6,6.8c10.6,0,19.2-8.6,19.2-19.2S1849.9,143.7,1839.4,143.7z"/>
	</g>
</g>
<g>
	<g>
		
			<linearGradient id="SVGID_8_" gradientUnits="userSpaceOnUse" x1="164.5993" y1="516.5073" x2="1775.7731" y2="401.1237" gradientTransform="matrix(1 0 0 -1 0 1156)">
			<stop  offset="0" style="stop-color:#F77C0D"/>
			<stop  offset="1" style="stop-color:#D6008E"/>
		</linearGradient>
		<path class="st8" d="M1837.5,786.7c-7.8,0-14.9,2.8-20.4,7.4L985,599.5c-5.1-10.8-16-18.3-28.7-18.3c-10.8,0-20.4,5.4-26.1,13.7
			l0,0L93.4,693.2c-5.7-5.6-13.5-9-22.1-9c-17.5,0-31.8,14.2-31.8,31.8s14.2,31.8,31.8,31.8c11.8,0,22-6.4,27.5-15.9l833.5-98
			c5.8,6.7,14.4,10.9,23.9,10.9c7.6,0,14.6-2.7,20.1-7.2l0,0l831.9,194.2l0,0c5,11.2,16.2,19,29.2,19c17.7,0,32-14.3,32-32
			C1869.5,801.1,1855.2,786.7,1837.5,786.7z"/>
	</g>
</g>
<g>
	<circle class="st9" cx="71.2" cy="716" r="12.9"/>
	<circle class="st9" cx="1837.5" cy="818.7" r="13"/>
	<circle class="st9" cx="956.2" cy="613" r="12.9"/>
</g>
</svg>
