<svg id="dd480248-deef-42d0-a5f2-b03d63904d0e" data-name="Layer 1" xmlns="http://www.w3.org/2000/svg" viewBox="0 0 115.8 178.1"><title>logo-elixir</title><path d="M36.2,115.3V105.2a7.85,7.85,0,0,0,.5-2.2,96.17,96.17,0,0,1,9.5-36.1C58.1,41.7,76,21.3,97.1,3.4c.2-.2.5-.2,1-.4A70.84,70.84,0,0,0,99,29c2.7,11.3,8.8,20.8,16.2,29.6,5.7,6.8,11.6,13.4,17.1,20.2C140.5,89,147,100.1,150.1,113c.8,3.2,1.3,6.6,1.9,9.9V130c-.3,1.6-.5,3.1-.8,4.7-4.6,23.4-18.9,37.7-41.5,44.3-3.3,1-6.9,1.4-10.3,2.1H91.8a14.13,14.13,0,0,0-2.2-.6,55,55,0,0,1-28.4-11.4C47.6,158.4,41,143.6,37.9,127,37.2,123.1,36.8,119.2,36.2,115.3Z" transform="translate(-36.2 -3)" style="fill:#613e7e"/></svg>