<svg id="0b64720e-ee77-4c80-aaeb-8ac8a111cd86" data-name="Layer 1" xmlns="http://www.w3.org/2000/svg" viewBox="0 0 148.3 168.36"><title>logo-js</title><path d="M168.7,59.5c0-5.8-2.3-9.7-7.2-12.6q-21.3-12.3-42.6-24.7c-5.5-3.2-11-6.2-16.4-9.5s-10.3-3.2-15.7-.1c-19.4,11.4-39,22.7-58.5,34-3.6,2.1-6.4,4.6-7.5,8.7-.1.4-.4,3.1-.4,3.7v70.8a40.41,40.41,0,0,0,.8,4.6,12.61,12.61,0,0,0,5.4,6.4c5.3,3.1,10.6,6.2,16,9.2,5,2.7,10.3,4.5,16.2,4,8.9-.7,14.7-6,15.9-14.8a40.32,40.32,0,0,0,.4-6v-68a2,2,0,0,0-2.3-2.3c-2,0-4,.1-6.1,0s-3,.7-2.9,2.9c.1,6.9,0,13.8,0,20.7V134c0,6.2-4.8,9.9-10.8,8.6a15.78,15.78,0,0,1-4.7-1.8c-4.9-2.9-9.9-5.8-14.9-8.6A4.24,4.24,0,0,1,31,128c.1-22.7.1-45.3,0-68a4.17,4.17,0,0,1,2.4-4.2q29-16.65,57.7-33.4c2.4-1.4,4.2-1.5,6.6-.1,19.3,11.5,38.6,22.6,58,33.7a4.05,4.05,0,0,1,2.3,4c-.1,20.9-.3,41.8.1,62.7.1,6-1.5,9.4-6.9,12.4-18.4,10.1-36.5,20.9-54.7,31.5a3.3,3.3,0,0,1-3.9,0c-4.4-2.8-9-5.3-13.4-8.1a3.61,3.61,0,0,0-4.2-.2,30.29,30.29,0,0,1-7.1,3.2c-.6.2-1.5.3-1.7.9-.2.9.8,1.2,1.4,1.6,7.7,4.7,15.5,9.3,23.2,13.9a11.27,11.27,0,0,0,8.1,0c5.6-3.2,11.1-6.5,16.7-9.7q23.4-13.5,46.7-27.1a12.31,12.31,0,0,0,6.4-11.3C168.6,106.4,168.5,82.9,168.7,59.5Z" transform="translate(-20.4 -10.29)" style="fill:#40a96b"/><path d="M124.7,117.3a51,51,0,0,1-21.3.3c-6-1-9.9-4.4-10.7-10.7-.2-1.7-1.1-2.3-2.7-2.3a56.1,56.1,0,0,1-5.8,0c-2.3-.1-3.1,1-2.9,3.3.6,8.7,4.8,14.7,12.9,18a45.7,45.7,0,0,0,19,3c2.1,0,4.2.2,6.3,0,6.6-.6,13-2,18.3-6.4,5.9-4.9,7.4-11.4,6.2-18.7-1.1-6.5-5.6-9.7-11.3-11.7-5.9-2-12-2.7-18-3.6-5.1-.7-10.2-1.2-15.1-2.9C94.9,84,93.8,79,97,75.5a11.13,11.13,0,0,1,6.2-3.1,47.85,47.85,0,0,1,13.1-.5c7.9.5,12.5,3.2,14.3,10.7a2,2,0,0,0,2.1,1.8h7.1a1.79,1.79,0,0,0,2-2.3c-.8-7.9-3.9-14.3-11.5-17.7-7.3-3.3-15.1-3.7-23-3.2-5.8.4-11.4,1.6-16.2,4.9-6,4.1-8.1,10-7.5,17.1s4.9,11,11.2,13.2a39.61,39.61,0,0,0,4.6,1.3c4.8,1.2,9.8,1.5,14.7,2.1s9.5,1.1,14,3c3.5,1.4,4.5,3.2,4.2,6.9S129.4,116.1,124.7,117.3Z" transform="translate(-20.4 -10.29)" style="fill:#40a96b"/></svg>