<svg id="8a29e47f-69cf-4238-8473-22ddee07139f" data-name="Layer 1" xmlns="http://www.w3.org/2000/svg" viewBox="0 0 158.48 157.41"><title>logo-python</title><path d="M174,101c0,2-.6,8.4-.8,9.2-1.6,6.5-4.2,12.4-9.5,16.9a21,21,0,0,1-14.2,5.1c-17.4,0-34.7,0-52.1-.1-2.5,0-2.2,1.3-2.2,2.9s.1,2.6,2.2,2.6c11.2-.1,22.4,0,33.6-.1,2,0,2.8.5,2.7,2.6-.1,4.7-.2,9.4.1,14.1.3,5.8-2.5,9.8-7.1,12.8a35.64,35.64,0,0,1-15.2,5.1c-7.8,1.1-15.8,1.9-23.7.7-6.8-1-13.8-1.1-20.1-4.7-7-4-11.1-9.3-10.8-17.8.4-10.7.1-21.4.1-32.1,0-13.5,8.2-21.7,21.7-21.7,12.6-.1,25.3,0,37.9-.1,6.8,0,13-1.7,17.4-7.4,3.5-4.4,4.8-9.5,4.9-15s.1-11.3,0-16.9c0-1.6.4-2.2,2.1-2.2q4.65.15,9.3,0c8.5-.4,14.4,3.7,18.5,10.8,2.1,3.6,3.8,7.3,4,11.6,0,1,1.2,9.7,1.2,11.7Zm-49.8,53a6.91,6.91,0,0,0-6.9-6.9,7,7,0,1,0,0,14A7,7,0,0,0,124.2,154Z" transform="translate(-15.52 -15.99)" style="fill:#fed343"/><path d="M106,16a40.06,40.06,0,0,1,11.9,1.9c7,2,14.8,7.1,15.7,15.6a26.7,26.7,0,0,1,0,4V69.8c.1,13.1-7.4,21.2-20.5,21.6-10.7.3-21.4.1-32.1.1-3.6,0-7.2,0-10.8.3-10.2.7-17.5,9.7-18.2,18.3-.5,6.8-.2,13.6-.2,20.5,0,1.8-.4,2.5-2.4,2.4-4-.2-8.1,0-12.1,0-5,0-8.7-2.6-12-6-4.8-5.1-7-11.5-8.3-18.1a72.46,72.46,0,0,1-.1-28.6c1.6-7.5,4.1-14.4,10.2-19.5a21.54,21.54,0,0,1,14.2-4.9c17.6.1,35,.1,52.5.1,1.6,0,2.3-.7,2-2.1s.9-3.5-2.2-3.5c-11.3.1-22.6,0-33.9.1-2.2,0-2.9-.5-2.8-2.8.2-5,.1-9.9,0-14.9a11.78,11.78,0,0,1,3.7-9.1,25.76,25.76,0,0,1,14.6-6.8A87.25,87.25,0,0,1,86,16ZM66.5,34.2a6.94,6.94,0,0,0,7.2,6.7,7.21,7.21,0,0,0,6.9-7,7.17,7.17,0,0,0-7.1-7A7,7,0,0,0,66.5,34.2Z" transform="translate(-15.52 -15.99)" style="fill:#3772a4"/></svg>