<svg id="d2cc890b-eb65-4537-acf0-045882eb7fad" data-name="Layer 1" xmlns="http://www.w3.org/2000/svg" viewBox="0 0 189.09 95.69"><title>logo-go</title><path d="M90.9,113.4a70.23,70.23,0,0,1-31.7,27.3c-8.7,2.7-17.5,3.6-26.5,1.5C14.2,138,.6,123.2,0,103.2-.4,90.6,3.6,79.6,11.3,69.8A54.7,54.7,0,0,1,36.2,51.5,51.48,51.48,0,0,1,49.4,48a63,63,0,0,1,15.8.9A39.17,39.17,0,0,1,91.1,67.6c2.7,4.5,4.6,6.3-3.1,7.9-5.4,1.2-10.7,2.7-16.1,4.2a3.5,3.5,0,0,1-3.9-1C57.3,66.6,41.6,71,32.6,81.2c-5.8,6.6-7.5,14.3-5.9,22.5,2.7,13.2,16,19.1,28.6,14.3,5.1-1.9,8.4-5.9,11.9-9.7.3-.4.8-.9.6-1.6-.3-.9-1.2-.5-1.8-.5H44.8c-3.2,0-4.2-1.1-3-4a91.58,91.58,0,0,1,6.3-13c1.2-1.9,2.6-2.3,4.6-2.3,12,.1,23.9,0,35.9.1,2.1,0,3.1-.6,3.9-2.6C94.2,80,97,76,99.6,72a46.39,46.39,0,0,1,13.6-13.6,53.43,53.43,0,0,1,18.1-7.5A80.07,80.07,0,0,1,146.7,49a41.12,41.12,0,0,1,25,7.9C180,63,186.3,70.6,188.1,81c1.5,8.4,1.4,16.7-1.4,25.1a50.47,50.47,0,0,1-8.5,15.4,46.93,46.93,0,0,1-17.5,14.8c-4.8,2.3-9.7,4.8-15.3,5.6-3.6.5-7.2,1.5-10.8,1.6-6,.2-11.7-1.3-17.4-3.2a39.7,39.7,0,0,1-17.9-12.1A38.63,38.63,0,0,1,90.9,113.4Zm46.1,6.5a28.19,28.19,0,0,0,12.4-3.2,30.73,30.73,0,0,0,9.3-7.8c3.1-3.6,4.6-8.2,5.4-13.1,2-12.8-9.5-25.7-22.3-24.2-12.4,1.5-21.1,7.8-25.2,19.9-2,5.9-2,12,1,17.4C121.7,116,128.4,119.9,137,119.9Z" transform="translate(0.03 -47.82)" style="fill:#2ebcae"/></svg>