<?xml version="1.0" encoding="utf-8"?>
<!-- Generator: Adobe Illustrator 22.1.0, SVG Export Plug-In . SVG Version: 6.00 Build 0)  -->
<svg version="1.1" id="Layer_1" xmlns="http://www.w3.org/2000/svg" xmlns:xlink="http://www.w3.org/1999/xlink" x="0px" y="0px"
	 viewBox="0 0 818.9 1080.5" style="enable-background:new 0 0 818.9 1080.5;" xml:space="preserve">
<style type="text/css">
	.st0{fill:url(#SVGID_1_);}
	.st1{fill:url(#SVGID_2_);}
	.st2{fill:url(#SVGID_3_);}
	.st3{fill:url(#SVGID_4_);}
	.st4{fill:url(#SVGID_5_);}
	.st5{fill:url(#SVGID_6_);}
	.st6{fill:url(#SVGID_7_);}
	.st7{fill:url(#SVGID_8_);}
	.st8{fill:url(#SVGID_9_);}
	.st9{fill:url(#SVGID_10_);}
	.st10{fill:url(#SVGID_11_);}
	.st11{fill:url(#SVGID_12_);}
	.st12{fill:url(#SVGID_13_);}
	.st13{fill:url(#SVGID_14_);}
	.st14{fill:url(#SVGID_15_);}
	.st15{fill:#D80A46;}
	.st16{fill:#940122;}
	.st17{fill:url(#SVGID_16_);}
	.st18{fill:#5F5F87;}
	.st19{fill:url(#SVGID_17_);}
	.st20{fill:url(#SVGID_18_);}
	.st21{fill:url(#SVGID_19_);}
	.st22{fill:url(#SVGID_20_);}
	.st23{fill:url(#SVGID_21_);}
	.st24{fill:url(#SVGID_22_);}
	.st25{fill:url(#SVGID_23_);}
	.st26{fill:url(#SVGID_24_);}
	.st27{fill:url(#SVGID_25_);}
	.st28{fill:url(#SVGID_26_);}
	.st29{fill:url(#SVGID_27_);}
	.st30{fill:url(#SVGID_28_);}
	.st31{fill:url(#SVGID_29_);}
	.st32{fill:url(#SVGID_30_);}
	.st33{fill:url(#SVGID_31_);}
	.st34{fill:url(#SVGID_32_);}
	.st35{fill:url(#SVGID_33_);}
	.st36{fill:url(#SVGID_34_);}
	.st37{fill:url(#SVGID_35_);}
	.st38{fill:url(#SVGID_36_);}
	.st39{fill:url(#SVGID_37_);}
	.st40{fill:url(#SVGID_38_);}
	.st41{fill:url(#SVGID_39_);}
	.st42{fill:url(#SVGID_40_);}
	.st43{fill:url(#SVGID_41_);}
	.st44{fill:url(#SVGID_42_);}
	.st45{fill:url(#SVGID_43_);}
	.st46{fill:url(#SVGID_44_);}
	.st47{fill:url(#SVGID_45_);}
	.st48{fill:url(#SVGID_46_);}
	.st49{fill:url(#SVGID_47_);}
	.st50{fill:url(#SVGID_48_);}
	.st51{fill:url(#SVGID_49_);}
	.st52{fill:url(#SVGID_50_);}
	.st53{fill:url(#SVGID_51_);}
	.st54{fill:#850647;}
	.st55{fill:#AE4D00;}
	.st56{fill:url(#SVGID_52_);}
	.st57{fill:url(#SVGID_53_);}
	.st58{fill:url(#SVGID_54_);}
	.st59{fill:url(#SVGID_55_);}
	.st60{fill:#FCE390;}
	.st61{fill:#FFD86C;}
	.st62{fill:#EA8302;}
	.st63{fill:url(#SVGID_56_);}
	.st64{fill:url(#SVGID_57_);}
	.st65{fill:url(#SVGID_58_);}
	.st66{fill:#FB4D7A;}
	.st67{fill:#E5E5FF;}
	.st68{fill:#D3D3E7;}
	.st69{fill:#5E5E71;}
	.st70{fill:#E3E3FF;}
	.st71{fill:url(#SVGID_59_);}
	.st72{fill:url(#SVGID_60_);}
	.st73{fill:#D9D8FA;}
	.st74{fill:#F28000;}
	.st75{fill:url(#SVGID_61_);}
</style>
<linearGradient id="SVGID_1_" gradientUnits="userSpaceOnUse" x1="480.5441" y1="1047.7816" x2="374.0286" y2="859.6797">
	<stop  offset="0" style="stop-color:#FF155A"/>
	<stop  offset="1" style="stop-color:#CC0540"/>
</linearGradient>
<path class="st0" d="M413.3,780.7L413.3,780.7l0,296.5L263.5,786.1l-7.1-13.9C304.6,777.6,357.6,780.6,413.3,780.7z"/>
<linearGradient id="SVGID_2_" gradientUnits="userSpaceOnUse" x1="347.8104" y1="936.7598" x2="171.9987" y2="773.7086">
	<stop  offset="0" style="stop-color:#FF1861"/>
	<stop  offset="1" style="stop-color:#FF93B6"/>
</linearGradient>
<path class="st1" d="M256.4,772.2l156.9,305L26.3,706C62,735.8,146.9,760,256.4,772.2z"/>
<linearGradient id="SVGID_3_" gradientUnits="userSpaceOnUse" x1="302.8172" y1="967.0943" x2="115.4964" y2="769.9145">
	<stop  offset="0" style="stop-color:#FF87B2"/>
	<stop  offset="1" style="stop-color:#FB1959"/>
</linearGradient>
<path class="st2" d="M123.9,748.8l-0.4-0.4c-44.2-11.8-77.9-26.3-97.1-42.5l386.9,371.3L123.9,748.8z"/>
<linearGradient id="SVGID_4_" gradientUnits="userSpaceOnUse" x1="258.5913" y1="674.4396" x2="74.1313" y2="674.4396">
	<stop  offset="0" style="stop-color:#FF5683"/>
	<stop  offset="1" style="stop-color:#FB1959"/>
</linearGradient>
<ellipse class="st3" cx="409.5" cy="674.4" rx="401" ry="106.3"/>
<linearGradient id="SVGID_5_" gradientUnits="userSpaceOnUse" x1="396.802" y1="570.6833" x2="425.0537" y2="802.3477">
	<stop  offset="0" style="stop-color:#D9133F"/>
	<stop  offset="1" style="stop-color:#4B2B35"/>
</linearGradient>
<ellipse class="st4" cx="409.5" cy="674.4" rx="342.8" ry="85.9"/>
<linearGradient id="SVGID_6_" gradientUnits="userSpaceOnUse" x1="567.0861" y1="609.4999" x2="633.4183" y2="780.3204">
	<stop  offset="0" style="stop-color:#C4C3E5"/>
	<stop  offset="0.4195" style="stop-color:#C7C5F3"/>
	<stop  offset="0.9926" style="stop-color:#FFFFFF"/>
</linearGradient>
<path class="st5" d="M413.3,568.2v212.6c219.7-0.5,397.2-47.9,397.2-106.3S633,568.7,413.3,568.2z"/>
<linearGradient id="SVGID_7_" gradientUnits="userSpaceOnUse" x1="628.0163" y1="574.8326" x2="545.9542" y2="684.0705">
	<stop  offset="6.513897e-03" style="stop-color:#9D96BE"/>
	<stop  offset="0.8861" style="stop-color:#6D6B97"/>
</linearGradient>
<path class="st6" d="M412.6,588.5v171.8c187.9-0.4,339.6-38.7,339.6-85.9C752.2,627.3,600.5,589,412.6,588.5z"/>
<linearGradient id="SVGID_8_" gradientUnits="userSpaceOnUse" x1="445.5806" y1="301.4958" x2="589.0816" y2="316.5351">
	<stop  offset="6.513897e-03" style="stop-color:#8684B3"/>
	<stop  offset="0.5243" style="stop-color:#6D6B97"/>
	<stop  offset="0.7642" style="stop-color:#6D6B97"/>
	<stop  offset="1" style="stop-color:#7C79A7"/>
</linearGradient>
<path class="st7" d="M608.8,211.6l-56.3,208.1l-140-171C514,248.7,597.6,232.5,608.8,211.6z"/>
<g>
	<linearGradient id="SVGID_9_" gradientUnits="userSpaceOnUse" x1="754.9369" y1="265.0876" x2="580.8576" y2="269.1125">
		<stop  offset="0" style="stop-color:#8686C1"/>
		<stop  offset="1" style="stop-color:#D1D1E8"/>
	</linearGradient>
	<path class="st8" d="M608.8,202l134.5,129.9c-23.5-18.8-79.9-34.7-154.9-44.5l20.5-75.8c0.8-1.6,1.3-3.2,1.3-4.8
		S609.7,203.6,608.8,202L608.8,202z"/>
</g>
<linearGradient id="SVGID_10_" gradientUnits="userSpaceOnUse" x1="533.5858" y1="261.571" x2="470.5331" y2="400.3842">
	<stop  offset="6.513897e-03" style="stop-color:#5C5A83"/>
	<stop  offset="0.2185" style="stop-color:#605E87"/>
	<stop  offset="0.4305" style="stop-color:#6B6993"/>
	<stop  offset="0.6427" style="stop-color:#7D7BA7"/>
	<stop  offset="0.8538" style="stop-color:#9795C3"/>
	<stop  offset="1" style="stop-color:#ADABDB"/>
</linearGradient>
<path class="st9" d="M552.6,419.7L435.8,277c55.5,0.8,107.4,4.5,152.6,10.4L552.6,419.7C552.6,419.7,552.6,419.7,552.6,419.7z"/>
<linearGradient id="SVGID_11_" gradientUnits="userSpaceOnUse" x1="482.9902" y1="423.4759" x2="399.8088" y2="317.5051">
	<stop  offset="6.513897e-03" style="stop-color:#6C6B91"/>
	<stop  offset="1" style="stop-color:#ADABDB"/>
</linearGradient>
<path class="st10" d="M435.8,277l116.8,142.7l0,0c-42.7,4.2-90.1,6.5-140,6.5V276.9C420.4,276.9,428.1,276.9,435.8,277z"/>
<linearGradient id="SVGID_12_" gradientUnits="userSpaceOnUse" x1="573.8469" y1="305.8377" x2="689.0824" y2="414.4505">
	<stop  offset="0" style="stop-color:#8689C0"/>
	<stop  offset="1" style="stop-color:#D1D1E8"/>
</linearGradient>
<path class="st11" d="M588.3,287.4c100,13,167,36.9,167,64.1c0,30.4-83.3,56.5-202.7,68.2L588.3,287.4z"/>
<linearGradient id="SVGID_13_" gradientUnits="userSpaceOnUse" x1="251.4155" y1="315.7152" x2="366.8613" y2="316.7104">
	<stop  offset="0" style="stop-color:#FF155A"/>
	<stop  offset="1" style="stop-color:#CC0540"/>
</linearGradient>
<path class="st12" d="M216.4,211.6l56.3,208.1l139.9-171C311.2,248.7,227.7,232.5,216.4,211.6z"/>
<g>
	<linearGradient id="SVGID_14_" gradientUnits="userSpaceOnUse" x1="144.5767" y1="264.4217" x2="287.1869" y2="341.1287">
		<stop  offset="0" style="stop-color:#D9133F"/>
		<stop  offset="1" style="stop-color:#4B2B35"/>
	</linearGradient>
	<path class="st13" d="M216.4,202L82,331.9c23.5-18.8,79.9-34.7,154.9-44.5l-20.5-75.8c-0.8-1.6-1.3-3.2-1.3-4.8
		S215.6,203.6,216.4,202L216.4,202z"/>
</g>
<linearGradient id="SVGID_15_" gradientUnits="userSpaceOnUse" x1="318.5176" y1="273.4359" x2="254.6857" y2="378.4499">
	<stop  offset="0" style="stop-color:#FD2767"/>
	<stop  offset="1" style="stop-color:#FF7BA3"/>
</linearGradient>
<path class="st14" d="M272.7,419.7L389.4,277c-55.5,0.8-107.4,4.5-152.5,10.4L272.7,419.7C272.7,419.7,272.7,419.7,272.7,419.7z"/>
<path class="st15" d="M389.4,277L272.7,419.7l0,0c42.7,4.2,90.1,6.5,139.9,6.5V276.9C404.8,276.9,397.1,276.9,389.4,277z"/>
<polygon class="st16" points="412.6,248.7 412.6,276.9 389.4,277 "/>
<linearGradient id="SVGID_16_" gradientUnits="userSpaceOnUse" x1="79.6929" y1="353.5579" x2="250.0981" y2="353.5579">
	<stop  offset="0" style="stop-color:#FF5683"/>
	<stop  offset="1" style="stop-color:#FB1959"/>
</linearGradient>
<path class="st17" d="M236.9,287.4c-100,13-166.9,36.9-166.9,64.1c0,30.4,83.2,56.5,202.7,68.2L236.9,287.4z"/>
<polygon class="st18" points="412.6,248.7 412.6,276.9 435.8,277 "/>
<linearGradient id="SVGID_17_" gradientUnits="userSpaceOnUse" x1="357.8827" y1="254.1545" x2="298.2136" y2="163.539">
	<stop  offset="0" style="stop-color:#FF3D78"/>
	<stop  offset="1" style="stop-color:#D4184A"/>
</linearGradient>
<path class="st19" d="M215.1,206.8c0,23.2,88.4,41.9,197.5,41.9v-83.9C303.5,164.8,215.1,183.6,215.1,206.8z"/>
<linearGradient id="SVGID_18_" gradientUnits="userSpaceOnUse" x1="443.7216" y1="138.4047" x2="561.3865" y2="290.8499">
	<stop  offset="0" style="stop-color:#ACACC5"/>
	<stop  offset="0.5861" style="stop-color:#EAE6F3"/>
	<stop  offset="0.9985" style="stop-color:#FFFFFF"/>
</linearGradient>
<path class="st20" d="M610.1,206.8c0,23.2-88.4,41.9-197.5,41.9v-83.9C521.7,164.8,610.1,183.6,610.1,206.8z"/>
<linearGradient id="SVGID_19_" gradientUnits="userSpaceOnUse" x1="368.8635" y1="161.7833" x2="297.1189" y2="301.6852">
	<stop  offset="0" style="stop-color:#D9133F"/>
	<stop  offset="1" style="stop-color:#4B2B35"/>
</linearGradient>
<path class="st21" d="M412.6,176.7c-81.7,0-148,13.4-148,29.9c0,16.5,66.3,29.9,148,29.9V176.7z"/>
<linearGradient id="SVGID_20_" gradientUnits="userSpaceOnUse" x1="453.7101" y1="237.1087" x2="528.7521" y2="135.3505">
	<stop  offset="0" style="stop-color:#595A6A"/>
	<stop  offset="0.4232" style="stop-color:#9A91B9"/>
	<stop  offset="1" style="stop-color:#EAE6F3"/>
</linearGradient>
<path class="st22" d="M412.6,176.7c81.5,0,147.6,13.4,147.6,29.9c0,16.5-66.1,29.9-147.6,29.9V176.7z"/>
<linearGradient id="SVGID_21_" gradientUnits="userSpaceOnUse" x1="369.5352" y1="227.9049" x2="456.4432" y2="227.9049">
	<stop  offset="5.291941e-03" style="stop-color:#9696AF"/>
	<stop  offset="0.3657" style="stop-color:#5A5978"/>
	<stop  offset="0.6188" style="stop-color:#5A5978"/>
	<stop  offset="1" style="stop-color:#9696AF"/>
</linearGradient>
<path class="st23" d="M369.5,235.2c13.6,0.8,28.1,1.3,43.1,1.3c15.3,0,30-0.5,43.8-1.3v-15.9h-86.9V235.2z"/>
<linearGradient id="SVGID_22_" gradientUnits="userSpaceOnUse" x1="320.1888" y1="225.4262" x2="311.6861" y2="225.4262">
	<stop  offset="0" style="stop-color:#EF3D65"/>
	<stop  offset="1" style="stop-color:#C5183B"/>
</linearGradient>
<path class="st24" d="M307.4,212.3v23.2c0,1.6,3,2.9,6.6,2.9s6.6-1.3,6.6-2.9v-23.2H307.4z"/>
<linearGradient id="SVGID_23_" gradientUnits="userSpaceOnUse" x1="511.3272" y1="170.6445" x2="541.84" y2="170.6445">
	<stop  offset="6.513897e-03" style="stop-color:#FFFFFF"/>
	<stop  offset="0.3382" style="stop-color:#988FB8"/>
	<stop  offset="0.4542" style="stop-color:#9A91B9"/>
	<stop  offset="1" style="stop-color:#EAE6F3"/>
</linearGradient>
<path class="st25" d="M523.3,157.6v23.2c0,1.6,3,2.9,6.6,2.9s6.6-1.3,6.6-2.9v-23.2H523.3z"/>
<linearGradient id="SVGID_24_" gradientUnits="userSpaceOnUse" x1="385.0479" y1="114.0655" x2="432.2917" y2="114.0655">
	<stop  offset="6.513897e-03" style="stop-color:#FFFFFF"/>
	<stop  offset="0.3591" style="stop-color:#988FB8"/>
	<stop  offset="0.4542" style="stop-color:#9A91B9"/>
	<stop  offset="1" style="stop-color:#EAE6F3"/>
</linearGradient>
<path class="st26" d="M396.8,84.4v52.7c0,3.7,6.7,6.6,15.1,6.6c8.3,0,15.1-3,15.1-6.6V84.4H396.8z"/>
<linearGradient id="SVGID_25_" gradientUnits="userSpaceOnUse" x1="513.8135" y1="104.2968" x2="327.6017" y2="104.2968">
	<stop  offset="6.513897e-03" style="stop-color:#FFFFFF"/>
	<stop  offset="7.142466e-02" style="stop-color:#EAE6F3"/>
	<stop  offset="0.1667" style="stop-color:#988FB8"/>
	<stop  offset="0.4372" style="stop-color:#9A91B9"/>
	<stop  offset="1" style="stop-color:#EAE6F3"/>
</linearGradient>
<path class="st27" d="M505.5,98.2C494.8,89.5,457.3,83,412.7,83c-44.6,0-82.2,6.5-92.9,15.2h-3.1v1.9v3.3v1.9
	c0,11.2,43,20.3,96,20.3c53,0,96-9.1,96-20.3v-1.9v-3.3v-1.9H505.5z"/>
<linearGradient id="SVGID_26_" gradientUnits="userSpaceOnUse" x1="461.4399" y1="855.8038" x2="415.92" y2="981.5825">
	<stop  offset="6.513897e-03" style="stop-color:#9D99CE"/>
	<stop  offset="1" style="stop-color:#6D6B97"/>
</linearGradient>
<path class="st28" d="M413.3,780.7L413.3,780.7l0,296.5L560,786.1l7-13.9C519.8,777.6,467.8,780.6,413.3,780.7z"/>
<linearGradient id="SVGID_27_" gradientUnits="userSpaceOnUse" x1="491.4722" y1="891.8196" x2="436.085" y2="896.4838">
	<stop  offset="6.513897e-03" style="stop-color:#9D99CE"/>
	<stop  offset="1" style="stop-color:#6D6B97"/>
</linearGradient>
<path class="st29" d="M413.3,881.4V915c29.2-0.6,52.4-8.4,52.4-18v-18.4C449,880.4,431.5,881.3,413.3,881.4z"/>
<linearGradient id="SVGID_28_" gradientUnits="userSpaceOnUse" x1="686.8042" y1="985.6153" x2="507.8289" y2="785.0566">
	<stop  offset="0" style="stop-color:#C4C3E5"/>
	<stop  offset="0.4752" style="stop-color:#C7C9EE"/>
	<stop  offset="0.9926" style="stop-color:#FFFFFF"/>
</linearGradient>
<path class="st30" d="M567,772.2l-153.8,305L792.5,706C757.6,735.8,674.4,760,567,772.2z"/>
<linearGradient id="SVGID_29_" gradientUnits="userSpaceOnUse" x1="563.543" y1="769.5232" x2="437.6923" y2="841.4379">
	<stop  offset="6.513897e-03" style="stop-color:#A29ED5"/>
	<stop  offset="1" style="stop-color:#6D6B97"/>
</linearGradient>
<path class="st31" d="M560,786.1l7-13.9c-47.3,5.4-99.2,8.4-153.8,8.5l0,0v100.7c38.7-0.2,74.6-4.2,104.2-10.9L560,786.1z"/>
<linearGradient id="SVGID_30_" gradientUnits="userSpaceOnUse" x1="571.9236" y1="840.1738" x2="511.3701" y2="751.4559">
	<stop  offset="0" style="stop-color:#C4C3E9"/>
	<stop  offset="0.3599" style="stop-color:#D4CDF5"/>
	<stop  offset="0.9926" style="stop-color:#FFFFFF"/>
</linearGradient>
<path class="st32" d="M567,772.2l-49.6,98.3c48.7-10.9,80.5-29.1,80.5-49.6v-52.6C587.9,769.7,577.6,771,567,772.2z"/>
<linearGradient id="SVGID_31_" gradientUnits="userSpaceOnUse" x1="359.8524" y1="896.8755" x2="413.2706" y2="896.8755">
	<stop  offset="0" style="stop-color:#C60047"/>
	<stop  offset="1" style="stop-color:#99002E"/>
</linearGradient>
<path class="st33" d="M413.3,881.4V915c-29.8-0.6-53.4-8.4-53.4-18v-18.4C376.8,880.4,394.7,881.3,413.3,881.4z"/>
<linearGradient id="SVGID_32_" gradientUnits="userSpaceOnUse" x1="215.8591" y1="775.7835" x2="268.1017" y2="829.3003">
	<stop  offset="0" style="stop-color:#FF5683"/>
	<stop  offset="1" style="stop-color:#FB1959"/>
</linearGradient>
<path class="st34" d="M256.4,772.2l50.6,98.3c-49.7-10.9-82.2-29.1-82.2-49.6v-52.6C235.1,769.7,245.6,771,256.4,772.2z"/>
<linearGradient id="SVGID_33_" gradientUnits="userSpaceOnUse" x1="100.4164" y1="508.5359" x2="129.8681" y2="508.5359">
	<stop  offset="6.513897e-03" style="stop-color:#FFFFFF"/>
	<stop  offset="0.3039" style="stop-color:#988FB8"/>
	<stop  offset="0.4644" style="stop-color:#9A91B9"/>
	<stop  offset="1" style="stop-color:#EAE6F3"/>
</linearGradient>
<path class="st35" d="M110.4,441.1v131.5c0,1.9,3.5,3.4,7.8,3.4c4.3,0,7.8-1.5,7.8-3.4V441.1H110.4z"/>
<linearGradient id="SVGID_34_" gradientUnits="userSpaceOnUse" x1="92.1346" y1="514.467" x2="144.2095" y2="514.467">
	<stop  offset="0" style="stop-color:#F28000"/>
	<stop  offset="0.2756" style="stop-color:#F48600"/>
	<stop  offset="0.6264" style="stop-color:#F89500"/>
	<stop  offset="1" style="stop-color:#FFAE00"/>
</linearGradient>
<path class="st36" d="M142.1,509.2c-3-3.3-8.9-5.8-16.1-6.9v5c4.7,1.3,7.9,3.7,7.9,6.5c0,4.1-7,7.5-15.7,7.5
	c-8.7,0-15.7-3.3-15.7-7.5c0-2.8,3.2-5.2,7.9-6.5v-5c-7.2,1.1-13.1,3.6-16.1,6.9h-2.2v4.9c0,6.8,11.7,12.4,26,12.4s26-5.5,26-12.4
	v-4.9H142.1z"/>
<linearGradient id="SVGID_35_" gradientUnits="userSpaceOnUse" x1="140.2593" y1="508.7464" x2="91.7868" y2="510.2346">
	<stop  offset="0" style="stop-color:#FFE4A5"/>
	<stop  offset="0.5363" style="stop-color:#FFDD4D"/>
	<stop  offset="0.6762" style="stop-color:#FFDB4A"/>
	<stop  offset="0.7719" style="stop-color:#FFD641"/>
	<stop  offset="0.8543" style="stop-color:#FFCC32"/>
	<stop  offset="0.9289" style="stop-color:#FFBF1C"/>
	<stop  offset="0.9982" style="stop-color:#FFAE01"/>
	<stop  offset="1" style="stop-color:#FFAE00"/>
</linearGradient>
<path class="st37" d="M126,497.4v5.4c4.7,1.3,7.9,3.7,7.9,6.5c0,4.1-7,7.5-15.7,7.5c-8.7,0-15.7-3.3-15.7-7.5c0-2.8,3.2-5.2,7.9-6.5
	v-5.4c-10.6,1.6-18.2,6.3-18.2,11.8c0,6.8,11.7,12.4,26,12.4s26-5.5,26-12.4C144.2,503.7,136.5,499,126,497.4z"/>
<linearGradient id="SVGID_36_" gradientUnits="userSpaceOnUse" x1="658.1432" y1="697.4601" x2="680.6829" y2="697.4601">
	<stop  offset="0.3306" style="stop-color:#6D6B97"/>
	<stop  offset="1" style="stop-color:#AAA4C9"/>
</linearGradient>
<path class="st38" d="M658.1,733.6c8-2.1,15.5-4.3,22.6-6.6v-65.6h-22.6V733.6z"/>
<g>
	<linearGradient id="SVGID_37_" gradientUnits="userSpaceOnUse" x1="697.636" y1="553.6996" x2="358.0996" y2="558.5968">
		<stop  offset="0" style="stop-color:#4C4F78"/>
		<stop  offset="0.4792" style="stop-color:#6C6A96"/>
		<stop  offset="1" style="stop-color:#5A567F"/>
	</linearGradient>
	<rect x="520.2" y="544.3" class="st39" width="6.9" height="23.9"/>
	<linearGradient id="SVGID_38_" gradientUnits="userSpaceOnUse" x1="697.6412" y1="554.0647" x2="358.1049" y2="558.9619">
		<stop  offset="0" style="stop-color:#4C4F78"/>
		<stop  offset="0.4792" style="stop-color:#6C6A96"/>
		<stop  offset="1" style="stop-color:#5A567F"/>
	</linearGradient>
	<rect x="290.8" y="544.6" class="st40" width="18.5" height="30.4"/>
	<linearGradient id="SVGID_39_" gradientUnits="userSpaceOnUse" x1="699.1032" y1="655.429" x2="359.5668" y2="660.3261">
		<stop  offset="0" style="stop-color:#4C4F78"/>
		<stop  offset="0.4792" style="stop-color:#6C6A96"/>
		<stop  offset="1" style="stop-color:#5A567F"/>
	</linearGradient>
	<path class="st41" d="M574.9,581.9v-20.6h-19v20.6H414.1v0.3H280.4v-21.1h-35.5v21.1h-22.1v164.3c53.7,8.8,117.8,13.9,186.7,13.9
		c69,0,133.3-5.1,187.1-13.9V581.9H574.9z"/>
</g>
<g>
	<linearGradient id="SVGID_40_" gradientUnits="userSpaceOnUse" x1="261.2247" y1="670.5634" x2="562.8309" y2="670.5634">
		<stop  offset="6.513897e-03" style="stop-color:#737099"/>
		<stop  offset="1" style="stop-color:#9A97C2"/>
	</linearGradient>
	<path class="st42" d="M222.6,746.5c2.1,0.3,4.1,0.7,6.2,1V593.7h-6.2V746.5z"/>
	<linearGradient id="SVGID_41_" gradientUnits="userSpaceOnUse" x1="261.2247" y1="683.332" x2="562.8309" y2="683.332">
		<stop  offset="6.513897e-03" style="stop-color:#737099"/>
		<stop  offset="1" style="stop-color:#9A97C2"/>
	</linearGradient>
	<path class="st43" d="M243.6,749.6c6.4,0.9,13,1.7,19.7,2.5V614.5h-19.7V749.6z"/>
	<linearGradient id="SVGID_42_" gradientUnits="userSpaceOnUse" x1="261.2247" y1="694.4529" x2="562.8309" y2="694.4529">
		<stop  offset="6.513897e-03" style="stop-color:#737099"/>
		<stop  offset="1" style="stop-color:#9A97C2"/>
	</linearGradient>
	<path class="st44" d="M290.5,755c9.1,0.8,18.4,1.6,27.9,2.2V631.6h-27.9V755z"/>
	<linearGradient id="SVGID_43_" gradientUnits="userSpaceOnUse" x1="261.2247" y1="701.0444" x2="562.8309" y2="701.0444">
		<stop  offset="6.513897e-03" style="stop-color:#737099"/>
		<stop  offset="1" style="stop-color:#9A97C2"/>
	</linearGradient>
	<path class="st45" d="M354.4,759.2c11.4,0.5,22.9,0.8,34.7,1V641.9h-34.7V759.2z"/>
	<linearGradient id="SVGID_44_" gradientUnits="userSpaceOnUse" x1="261.2247" y1="695.9216" x2="562.8309" y2="695.9216">
		<stop  offset="6.513897e-03" style="stop-color:#737099"/>
		<stop  offset="1" style="stop-color:#9A97C2"/>
	</linearGradient>
	<path class="st46" d="M428.2,760.2c11.2-0.2,22.3-0.4,33.3-0.9V631.6h-33.3V760.2z"/>
	<linearGradient id="SVGID_45_" gradientUnits="userSpaceOnUse" x1="261.2247" y1="694.8136" x2="562.8309" y2="694.8136">
		<stop  offset="6.513897e-03" style="stop-color:#737099"/>
		<stop  offset="1" style="stop-color:#9A97C2"/>
	</linearGradient>
	<path class="st47" d="M496.7,757.5c10.3-0.7,20.4-1.5,30.3-2.4V632.1h-30.3V757.5z"/>
	<linearGradient id="SVGID_46_" gradientUnits="userSpaceOnUse" x1="261.2247" y1="683.9299" x2="562.8309" y2="683.9299">
		<stop  offset="6.513897e-03" style="stop-color:#737099"/>
		<stop  offset="1" style="stop-color:#9A97C2"/>
	</linearGradient>
	<path class="st48" d="M554.9,752.2c6.4-0.8,12.7-1.6,18.9-2.4V615.6h-18.9V752.2z"/>
	<linearGradient id="SVGID_47_" gradientUnits="userSpaceOnUse" x1="261.2247" y1="671.0002" x2="562.8309" y2="671.0002">
		<stop  offset="6.513897e-03" style="stop-color:#737099"/>
		<stop  offset="1" style="stop-color:#9A97C2"/>
	</linearGradient>
	<path class="st49" d="M590.1,594.5v152.9c2.2-0.3,4.4-0.7,6.5-1V594.5H590.1z"/>
</g>
<linearGradient id="SVGID_48_" gradientUnits="userSpaceOnUse" x1="396.6209" y1="510.7968" x2="420.4377" y2="652.0156">
	<stop  offset="0" style="stop-color:#C4C3E5"/>
	<stop  offset="0.4488" style="stop-color:#CDC5F5"/>
	<stop  offset="0.7208" style="stop-color:#E8E4FA"/>
	<stop  offset="0.9926" style="stop-color:#FFFFFF"/>
</linearGradient>
<path class="st50" d="M355.6,535.7c0,3.5-8.5,6.3-19,6.3c-7.2,0-13.4-1.3-16.7-3.2c-10.3,1.7-20.1,3.6-29.1,5.9
	c2.1,1,3.3,2.2,3.3,3.5c0,3.3-8.2,6-18.3,6c-4.5,0-8.7-0.5-11.9-1.4c-7.2,2.6-13.6,5.5-19.1,8.4c4.9,1.1,8.2,2.9,8.2,5
	c0,3.3-8.2,6-18.3,6c-1.8,0-3.5-0.1-5.1-0.2c-3.4,3.3-5.7,6.8-7,10.4c8.7,0.4,15.3,2.8,15.3,5.7c0,2.9-6.7,5.3-15.5,5.7
	c1.1,3.4,3.2,6.7,6.2,9.9c1.6-0.2,3.3-0.2,5-0.2c10.1,0,18.3,2.7,18.3,6.1c0,2.2-3.4,4.1-8.5,5.1c5.6,3.2,12.3,6.2,19.8,8.9
	c3.1-0.7,6.9-1.2,11.1-1.2c10.4,0,18.9,2.8,18.9,6.2c0,1.2-1,2.3-2.8,3.2c8.7,2.1,18,4,27.9,5.7c3.6-1.7,9.6-2.7,16.4-2.7
	c11,0,19.9,2.8,19.9,6.2c0,0.4-0.1,0.7-0.3,1.1c11.1,1,22.7,1.7,34.7,2.1c2.2-2.9,10.1-5,19.5-5c9.5,0,17.5,2.2,19.6,5
	c11.4-0.3,22.5-1,33.3-1.9c-0.4-0.5-0.6-1-0.6-1.5c0-3.4,8.5-6.2,18.9-6.2c7.4,0,13.8,1.4,16.9,3.4c10.7-1.7,20.9-3.7,30.3-5.9
	c-2.4-1-3.8-2.3-3.8-3.7c0-3.4,8.5-6.2,18.9-6.2c4.9,0,9.4,0.6,12.8,1.6c7.1-2.6,13.4-5.3,18.9-8.3c-6.1-1-10.3-3.1-10.3-5.5
	c0-3.4,8.5-6.2,18.9-6.2c2.6,0,5,0.2,7.3,0.5c3.3-3.2,5.6-6.6,6.9-10.1c-10-0.2-17.9-2.9-17.9-6.2s7.9-6.1,17.9-6.2
	c-1.2-3.3-3.4-6.5-6.4-9.6c-1.9,0.2-4,0.3-6.2,0.3c-10.5,0-19-2.7-19-6c0-2.3,4-4.3,10-5.3c-5.6-3.1-12.1-6-19.4-8.6
	c-3.4,0.9-7.9,1.5-12.8,1.5c-10.9,0-19.7-2.7-19.7-6.1c0-1.4,1.5-2.7,4.1-3.7c-8.5-2-17.7-3.9-27.3-5.4c-2.9,2.3-9.7,3.9-17.6,3.9
	c-10.5,0-19-2.8-19-6.3c0-0.7,0.4-1.4,1.1-2c-17.3-1.6-35.6-2.4-54.6-2.4c-19,0-37.3,0.8-54.6,2.4
	C355.4,534.8,355.6,535.3,355.6,535.7z"/>
<linearGradient id="SVGID_49_" gradientUnits="userSpaceOnUse" x1="461.3108" y1="587.9519" x2="352.839" y2="587.9519">
	<stop  offset="6.513897e-03" style="stop-color:#8684B3"/>
	<stop  offset="1" style="stop-color:#6D6B97"/>
</linearGradient>
<ellipse class="st51" cx="409.7" cy="588" rx="121.4" ry="35.9"/>
<linearGradient id="SVGID_50_" gradientUnits="userSpaceOnUse" x1="394.4203" y1="584.2089" x2="445.7155" y2="579.8433">
	<stop  offset="0" style="stop-color:#FF1861"/>
	<stop  offset="1" style="stop-color:#FF7BA3"/>
</linearGradient>
<path class="st52" d="M465.3,580.9c0,9.3-13,19.7-42.9,19.7c-29.9,0-65.3-10.5-65.3-19.7c0-9.3,24.2-16.8,54.1-16.8
	C441,564.2,465.3,571.7,465.3,580.9z"/>
<linearGradient id="SVGID_51_" gradientUnits="userSpaceOnUse" x1="459.6857" y1="580.9276" x2="305.3988" y2="580.9276">
	<stop  offset="0" style="stop-color:#D91362"/>
	<stop  offset="1" style="stop-color:#4B2B35"/>
</linearGradient>
<path class="st53" d="M419,597.1c-15,0-15.4-20.5-0.8-21.3c40.4-0.3,46.4-12.3,47.1-17.5V538h-111v81.8c16.6,2.5,35.5,4,55.5,4
	s38.9-1.4,55.5-4v-38.9C465.3,592.7,440.3,596.9,419,597.1z"/>
<path class="st54" d="M441.3,581.2c0-2.4-2.8-4.6-7.5-6.3c-4.5,0.5-9.7,0.8-15.6,0.8c-9.3,0.5-12.5,9-9.7,15.1c0.4,0,0.9,0,1.3,0
	C427.2,590.9,441.3,586.6,441.3,581.2z"/>
<path class="st55" d="M427.3,589.3v-13.8c-2.8,0.2-5.9,0.3-9.2,0.3c-9.3,0.5-12.5,9-9.7,15.1c0.4,0,0.9,0,1.3,0
	C416.2,590.9,422.3,590.3,427.3,589.3z"/>
<linearGradient id="SVGID_52_" gradientUnits="userSpaceOnUse" x1="377.0838" y1="538.0317" x2="451.3643" y2="538.0317">
	<stop  offset="0" style="stop-color:#FF1861"/>
	<stop  offset="1" style="stop-color:#FF7E9F"/>
</linearGradient>
<ellipse class="st56" cx="409.7" cy="538" rx="55.5" ry="16.8"/>
<ellipse class="st54" cx="409.7" cy="538.5" rx="31.6" ry="9"/>
<linearGradient id="SVGID_53_" gradientUnits="userSpaceOnUse" x1="394.3478" y1="503.5554" x2="435.2695" y2="503.5554">
	<stop  offset="0" style="stop-color:#C87A00"/>
	<stop  offset="0.5312" style="stop-color:#FF9D01"/>
	<stop  offset="1" style="stop-color:#F8D902"/>
</linearGradient>
<path class="st57" d="M392.2,459.7v81.9c0,3.3,7.9,5.9,17.6,5.9s17.6-2.6,17.6-5.9v-81.9H392.2z"/>
<linearGradient id="SVGID_54_" gradientUnits="userSpaceOnUse" x1="290.6545" y1="667.0352" x2="125.9253" y2="667.0352">
	<stop  offset="0" style="stop-color:#F28000"/>
	<stop  offset="1" style="stop-color:#FFAE00"/>
</linearGradient>
<path class="st58" d="M398.3,691.6c-99.6-6.4-181.6-13.5-222.5-32.4c-23.9-11-35.7-5.3-38.9-11.4c-1.6-3-2.3-8-2.3-8
	c0-1.3-0.6-2.5-1.6-3.5c-0.3-0.3-0.5-0.6-0.9-0.9c-2.3-2.1-6.4-3.8-13.9-3.8c0,0,0,0-0.1,0c0,0,0,0-0.1,0c0,0-0.1,0-0.1,0v-14.4
	h-16.4v22.6c0,0,0,0,0,0.1c0,0.4,0,0.8,0,1.1c-0.4,27.5,61.4,50.1,129.4,61.9c76.4,13.3,160.4,14.1,167.4,14
	c10.6-0.1,13.6-5.6,13.6-13.5C411.5,696.6,410.2,692.4,398.3,691.6z"/>
<linearGradient id="SVGID_55_" gradientUnits="userSpaceOnUse" x1="101.5163" y1="656.2184" x2="411.8752" y2="656.2184">
	<stop  offset="0" style="stop-color:#FFE4A5"/>
	<stop  offset="0.5363" style="stop-color:#FFDD4D"/>
	<stop  offset="0.6762" style="stop-color:#FFDB4A"/>
	<stop  offset="0.7719" style="stop-color:#FFD641"/>
	<stop  offset="0.8543" style="stop-color:#FFCC32"/>
	<stop  offset="0.9289" style="stop-color:#FFBF1C"/>
	<stop  offset="0.9982" style="stop-color:#FFAE01"/>
	<stop  offset="1" style="stop-color:#FFAE00"/>
</linearGradient>
<path class="st59" d="M396.8,685.6c-99.7-2.5-182.8-14.8-223.8-33.7c-23.9-11-33-20.5-36.2-26.6c-1.6-3-2.3-8-2.3-8
	c0-1.3-0.6-2.5-1.6-3.5c-0.3-0.3-0.5-0.6-0.9-0.9c-2.3-2.1-6.4-3.8-13.9-3.8c0,0,0,0-0.1,0c0,0,0,0-0.1,0c-0.3,0-0.6,0-0.9,0
	c-0.2,0-0.4,0-0.6,0c-0.1,0-0.3,0-0.4,0c-10.2,0.5-13.3,3.8-14.2,6.4c-0.2,0.6-0.4,1.1-0.4,1.7c0,0,0,0,0,0.1c0,0.4,0,0.8,0,1.1
	c-0.4,27.5,61.4,50.1,129.4,61.9c76.4,13.3,160.4,14.1,167.4,14c10.6-0.1,13.2,5.7,13.6,9C411.5,696.6,412.4,686,396.8,685.6z"/>
<ellipse class="st60" cx="409.7" cy="459.7" rx="17.6" ry="5.8"/>
<path class="st61" d="M403.1,707.7v-1c0-2.7-2.1-4.8-4.8-4.8c-2.7,0-4.8,2.1-4.8,4.8c0,0,0,0.1,0,0.1v0.9c-4.2,1.8-7.1,6-7.1,10.9
	c0,0.1,0,0.2,0,0.3v4.6h1c1.9,4.2,6,7.1,10.9,7.1c4.9,0,9.1-2.9,10.9-7.1h1v-4.8C410.2,713.8,407.3,709.6,403.1,707.7z"/>
<ellipse class="st62" cx="117.9" cy="618.4" rx="9.3" ry="4"/>
<linearGradient id="SVGID_56_" gradientUnits="userSpaceOnUse" x1="326.0071" y1="97.2341" x2="505.8519" y2="97.2341">
	<stop  offset="0" style="stop-color:#988FB8"/>
	<stop  offset="1" style="stop-color:#EAE6F3"/>
</linearGradient>
<ellipse class="st63" cx="412.7" cy="97.2" rx="96" ry="20.3"/>
<linearGradient id="SVGID_57_" gradientUnits="userSpaceOnUse" x1="574.0289" y1="48.9596" x2="265.7383" y2="48.9596">
	<stop  offset="2.909837e-02" style="stop-color:#FFE4EB"/>
	<stop  offset="0.132" style="stop-color:#F54878"/>
	<stop  offset="0.2382" style="stop-color:#CB1445"/>
	<stop  offset="0.5016" style="stop-color:#F54878"/>
	<stop  offset="1" style="stop-color:#FFC0C3"/>
</linearGradient>
<path class="st64" d="M575.7,40c-18.8-15.4-84.7-26.7-163-26.7S268.5,24.6,249.6,40h-5.4v9c0,19.7,75.4,35.7,168.4,35.7
	s168.4-16,168.4-35.7v-9H575.7z"/>
<linearGradient id="SVGID_58_" gradientUnits="userSpaceOnUse" x1="250.1166" y1="38.9596" x2="574.65" y2="38.9596">
	<stop  offset="0" style="stop-color:#CB1445"/>
	<stop  offset="0.5016" style="stop-color:#F54878"/>
	<stop  offset="1" style="stop-color:#FFC0C3"/>
</linearGradient>
<ellipse class="st65" cx="412.7" cy="39" rx="168.4" ry="35.7"/>
<ellipse class="st66" cx="314" cy="212.3" rx="6.6" ry="2.9"/>
<ellipse class="st67" cx="529.9" cy="157.6" rx="6.6" ry="2.9"/>
<ellipse class="st68" cx="413" cy="219.3" rx="43.5" ry="9.1"/>
<ellipse class="st69" cx="413" cy="219.3" rx="19.7" ry="4.1"/>
<ellipse class="st70" cx="118.2" cy="441.1" rx="7.8" ry="3.4"/>
<linearGradient id="SVGID_59_" gradientUnits="userSpaceOnUse" x1="616.75" y1="578.1727" x2="719.4549" y2="578.1727">
	<stop  offset="6.513897e-03" style="stop-color:#AAA4C9"/>
	<stop  offset="0.4496" style="stop-color:#6D6B97"/>
	<stop  offset="1" style="stop-color:#AAA4C9"/>
</linearGradient>
<path class="st71" d="M714.1,599.1L714.1,599.1l0-38.7h-8.7v-17.2h-37.9v-19.8h-7.2v-5H643v5h-6.5V563h0c0.2,2.3,1.6,4.5,4.6,6.1
	c1.2,0.6,11.9,5.3,20,12.8h-3.7v7.2h-6.9v38.7h0c-0.4,7.6,15.9,14,29.8,7.1C683.4,633.5,713.9,619,714.1,599.1z"/>
<linearGradient id="SVGID_60_" gradientUnits="userSpaceOnUse" x1="685.8302" y1="582.2925" x2="662.8928" y2="523.0991">
	<stop  offset="0" style="stop-color:#D3D1F1"/>
	<stop  offset="1" style="stop-color:#E6E6F9"/>
</linearGradient>
<path class="st72" d="M694.3,533.1c-8.1-5.3-19-10.1-33.5-15.5c-21.3-8-30.7,6.9-19.6,12.8c2.7,1.5,54.6,23.8,13.7,52.5
	c-13.4,9.4,8,22,25.6,13.2C684.6,594,744.2,565.9,694.3,533.1z M651.9,527.2c-4.3,0-7.7-1.7-7.7-3.8c0-2.1,3.5-3.8,7.7-3.8
	s7.7,1.7,7.7,3.8C659.6,525.5,656.2,527.2,651.9,527.2z M668.6,593.2c-5.8,0-10.5-2.3-10.5-5.2c0-2.9,4.7-5.2,10.5-5.2
	c5.8,0,10.5,2.3,10.5,5.2C679.1,590.9,674.4,593.2,668.6,593.2z M691.2,563c-6.7,0-12.1-2.7-12.1-6c0-3.3,5.4-6,12.1-6
	s12.1,2.7,12.1,6C703.4,560.4,697.9,563,691.2,563z"/>
<ellipse class="st73" cx="669.5" cy="661.4" rx="11.3" ry="4.9"/>
<ellipse class="st74" cx="398.3" cy="722.9" rx="11.9" ry="11.6"/>
<linearGradient id="SVGID_61_" gradientUnits="userSpaceOnUse" x1="282.1545" y1="774.6196" x2="407.8742" y2="856.8661">
	<stop  offset="0" style="stop-color:#8A003C"/>
	<stop  offset="1" style="stop-color:#99002E"/>
</linearGradient>
<path class="st75" d="M263.5,786.1l-7.1-13.9c48.2,5.4,101.2,8.4,156.9,8.5l0,0v100.7c-39.5-0.2-76.1-4.2-106.3-10.9L263.5,786.1z"
	/>
</svg>
