<?xml version="1.0" encoding="utf-8"?>
<!-- Generator: Adobe Illustrator 22.1.0, SVG Export Plug-In . SVG Version: 6.00 Build 0)  -->
<svg version="1.1" id="Layer_1" xmlns="http://www.w3.org/2000/svg" xmlns:xlink="http://www.w3.org/1999/xlink" x="0px" y="0px"
	 viewBox="0 0 451 534" style="enable-background:new 0 0 451 534;" xml:space="preserve">
<style type="text/css">
	.st0{fill:url(#SVGID_1_);}
	.st1{fill:url(#SVGID_2_);}
	.st2{fill:#BDA9D2;}
	.st3{fill:url(#SVGID_3_);}
	.st4{fill:url(#SVGID_4_);}
	.st5{fill:url(#SVGID_5_);}
	.st6{fill:url(#SVGID_6_);}
	.st7{fill:#F8E2FF;}
	.st8{fill:#924ABC;}
	.st9{fill:#D086E2;}
	.st10{fill:#FFFFFF;}
	.st11{fill:#734091;}
	.st12{fill:#8ED4DE;}
	.st13{fill:url(#SVGID_7_);}
	.st14{fill:url(#SVGID_8_);}
	.st15{fill:url(#SVGID_9_);}
	.st16{fill:url(#SVGID_10_);}
	.st17{fill:#00C9C3;}
	.st18{fill:#0067A0;}
	.st19{fill:#00B8BA;}
	.st20{fill:#C5FFF9;}
	.st21{fill:url(#SVGID_11_);}
	.st22{fill:url(#SVGID_12_);}
	.st23{fill:url(#SVGID_13_);}
	.st24{fill:url(#SVGID_14_);}
	.st25{fill:#542D70;}
	.st26{fill:#C7C7DC;}
	.st27{fill:url(#SVGID_15_);}
	.st28{fill:url(#SVGID_16_);}
	.st29{fill:url(#SVGID_17_);}
	.st30{fill:url(#SVGID_18_);}
	.st31{fill:url(#SVGID_19_);}
	.st32{fill:url(#SVGID_20_);}
	.st33{fill:#FFF9CA;}
	.st34{fill:#91653A;}
	.st35{fill:#E9A023;}
	.st36{fill:#ED9A2E;}
	.st37{fill:#A8D1BF;}
	.st38{fill:url(#SVGID_21_);}
	.st39{fill:url(#SVGID_22_);}
	.st40{fill:url(#SVGID_23_);}
	.st41{fill:url(#SVGID_24_);}
	.st42{fill:#DBFFBF;}
	.st43{fill:#4AA063;}
	.st44{fill:#3A8D5C;}
	.st45{fill:url(#SVGID_25_);}
	.st46{fill:#F8B41A;}
	.st47{fill:#3972A3;}
	.st48{fill:#E99623;}
	.st49{fill:#30648F;}
	.st50{fill:url(#SVGID_26_);}
	.st51{fill:url(#SVGID_27_);}
	.st52{fill:#42AE61;}
	.st53{fill:#2B9045;}
	.st54{fill:url(#SVGID_28_);}
	.st55{fill:url(#SVGID_29_);}
	.st56{fill:#32BBAF;}
	.st57{fill:#26A09D;}
</style>
<linearGradient id="SVGID_1_" gradientUnits="userSpaceOnUse" x1="93.234" y1="432.5205" x2="93.234" y2="170.3647">
	<stop  offset="0" style="stop-color:#996699"/>
	<stop  offset="1" style="stop-color:#A168FF;stop-opacity:0"/>
</linearGradient>
<rect x="6.4" y="144.1" class="st0" width="173.7" height="133.4"/>
<linearGradient id="SVGID_2_" gradientUnits="userSpaceOnUse" x1="224.0689" y1="391.224" x2="224.0689" y2="279.4301">
	<stop  offset="0" style="stop-color:#33FFE7"/>
	<stop  offset="1" style="stop-color:#33FFE7;stop-opacity:0"/>
</linearGradient>
<rect x="137.2" y="296.8" class="st1" width="173.7" height="75.4"/>
<path class="st2" d="M180.1,268c0-3-1.6-6-4.8-8.3l-71-50.5c-6.1-4.3-16.1-4.3-22.2,0l-71,50.5C8,262,6.4,265,6.4,268h0v9.3h6.2
	l69.6,49.5c6.1,4.3,16.1,4.3,22.2,0l69.6-49.5h6.2V268z"/>
<radialGradient id="SVGID_3_" cx="96.0287" cy="348.272" r="106.6777" gradientUnits="userSpaceOnUse">
	<stop  offset="0.2456" style="stop-color:#B47CF2"/>
	<stop  offset="1" style="stop-color:#2E005D"/>
</radialGradient>
<path class="st3" d="M82.1,336l-71-50.5c-6.4-4.6-6.4-12,0-16.6l71-50.5c6.1-4.3,16.1-4.3,22.2,0l71,50.5c6.4,4.6,6.4,12,0,16.6
	l-71,50.5C98.2,340.4,88.2,340.4,82.1,336z"/>
<linearGradient id="SVGID_4_" gradientUnits="userSpaceOnUse" x1="93.4938" y1="833.5767" x2="93.4938" y2="230.3338">
	<stop  offset="0" style="stop-color:#F593F9"/>
	<stop  offset="1" style="stop-color:#F593F9;stop-opacity:0"/>
</linearGradient>
<path class="st4" d="M124.4,134.8l-14.2-10.1H76.2l-13.6,9.7v187.6L82.1,336c6.1,4.3,16.1,4.3,22.2,0l20.1-14.3V134.8z"/>
<linearGradient id="SVGID_5_" gradientUnits="userSpaceOnUse" x1="93.4938" y1="687.172" x2="93.4938" y2="221.8065">
	<stop  offset="0" style="stop-color:#F593F9"/>
	<stop  offset="1" style="stop-color:#F593F9;stop-opacity:0"/>
</linearGradient>
<path class="st5" d="M112.2,157.8l-7.9-5.6c-6.1-4.3-16.1-4.3-22.2,0l-7.3,5.2v173.4l7.3,5.2c6.1,4.3,16.1,4.3,22.2,0l7.9-5.6V157.8
	z"/>
<linearGradient id="SVGID_6_" gradientUnits="userSpaceOnUse" x1="93.4938" y1="670.9016" x2="93.4938" y2="220.1873">
	<stop  offset="0" style="stop-color:#F593F9"/>
	<stop  offset="1" style="stop-color:#F593F9;stop-opacity:0"/>
</linearGradient>
<path class="st6" d="M86.6,338c4.3,1.7,9.5,1.6,13.8-0.2V159.7H86.6V338z"/>
<circle class="st7" cx="101.5" cy="311.9" r="4.8"/>
<circle class="st8" cx="74.8" cy="270.3" r="4.8"/>
<circle class="st9" cx="74.8" cy="285" r="4.8"/>
<circle class="st10" cx="73.9" cy="193.8" r="4.8"/>
<circle class="st11" cx="113" cy="258.8" r="4.8"/>
<path class="st12" d="M310.9,362.7c0-3-1.6-6-4.8-8.3l-71-50.5c-6.1-4.3-16.1-4.3-22.2,0l-71,50.5c-3.2,2.3-4.8,5.3-4.8,8.3h0v9.3
	h6.2l69.6,49.5c6.1,4.3,16.1,4.3,22.2,0l69.6-49.5h6.2V362.7z"/>
<radialGradient id="SVGID_7_" cx="230.1367" cy="442.9789" r="114.0597" gradientUnits="userSpaceOnUse">
	<stop  offset="0.3075" style="stop-color:#49B2A5"/>
	<stop  offset="1" style="stop-color:#250A79"/>
</radialGradient>
<path class="st13" d="M213,430.7l-71-50.5c-6.4-4.6-6.4-12,0-16.6l71-50.5c6.1-4.3,16.1-4.3,22.2,0l71,50.5c6.4,4.6,6.4,12,0,16.6
	l-71,50.5C229.1,435.1,219.1,435.1,213,430.7z"/>
<linearGradient id="SVGID_8_" gradientUnits="userSpaceOnUse" x1="224.3288" y1="703.1477" x2="224.3288" y2="350.6554">
	<stop  offset="0" style="stop-color:#00FFE4"/>
	<stop  offset="1" style="stop-color:#00FFE4;stop-opacity:0"/>
</linearGradient>
<path class="st14" d="M255.3,327.5l-14.2-10.1H207l-13.6,9.7v89.7l19.6,13.9c6.1,4.3,16.1,4.3,22.2,0l20.1-14.3V327.5z"/>
<linearGradient id="SVGID_9_" gradientUnits="userSpaceOnUse" x1="224.3288" y1="657.345" x2="224.3288" y2="341.7996">
	<stop  offset="0" style="stop-color:#00FFE4"/>
	<stop  offset="1" style="stop-color:#00FFE4;stop-opacity:0"/>
</linearGradient>
<path class="st15" d="M243,318.8l-7.9-5.6c-6.1-4.3-16.1-4.3-22.2,0l-7.3,5.2v107.1l7.3,5.2c6.1,4.3,16.1,4.3,22.2,0l7.9-5.6V318.8z
	"/>
<linearGradient id="SVGID_10_" gradientUnits="userSpaceOnUse" x1="224.3288" y1="603.7198" x2="224.3288" y2="336.0226">
	<stop  offset="0" style="stop-color:#00FFE4"/>
	<stop  offset="1" style="stop-color:#00FFE4;stop-opacity:0"/>
</linearGradient>
<path class="st16" d="M217.4,432.7c4.3,1.7,9.5,1.6,13.8-0.2V317.4h-13.8V432.7z"/>
<circle class="st17" cx="217.1" cy="390.8" r="4.8"/>
<circle class="st18" cx="180.2" cy="368.5" r="4.8"/>
<circle class="st19" cx="243.5" cy="376.1" r="4.8"/>
<circle class="st20" cx="217.1" cy="406.1" r="4.8"/>
<linearGradient id="SVGID_11_" gradientUnits="userSpaceOnUse" x1="357.1265" y1="438.4895" x2="357.1265" y2="122.3325">
	<stop  offset="0" style="stop-color:#7CE180"/>
	<stop  offset="1" style="stop-color:#7CE180;stop-opacity:0"/>
</linearGradient>
<rect x="270.3" y="104.7" class="st21" width="173.7" height="173.7"/>
<linearGradient id="SVGID_12_" gradientUnits="userSpaceOnUse" x1="6.2097" y1="168.7221" x2="179.9568" y2="168.7221">
	<stop  offset="0" style="stop-color:#A4A6D2"/>
	<stop  offset="5.752167e-02" style="stop-color:#8A8AC2"/>
	<stop  offset="0.1647" style="stop-color:#8A8AC2"/>
	<stop  offset="0.225" style="stop-color:#8F8FC4"/>
	<stop  offset="0.2922" style="stop-color:#9C9CCC"/>
	<stop  offset="0.3628" style="stop-color:#B2B2D7"/>
	<stop  offset="0.4352" style="stop-color:#D0D1E8"/>
	<stop  offset="0.4702" style="stop-color:#E2E3F1"/>
	<stop  offset="0.4982" style="stop-color:#DFDFED"/>
	<stop  offset="0.5113" style="stop-color:#DBDAE9"/>
	<stop  offset="0.5924" style="stop-color:#FFFFFF"/>
	<stop  offset="1" style="stop-color:#FFFFFF"/>
</linearGradient>
<path class="st22" d="M125.7,125.3l-21.6-15.3c-6.1-4.3-16.1-4.3-22.2,0l-21.6,15.3H6.2v43.4h0c0,3,1.6,6,4.8,8.3l71,50.5
	c6.1,4.3,16.1,4.3,22.2,0l71-50.5c3.2-2.3,4.8-5.3,4.8-8.3l0,0v-43.4H125.7z"/>
<linearGradient id="SVGID_13_" gradientUnits="userSpaceOnUse" x1="93.0832" y1="170.2743" x2="93.0832" y2="75.0985">
	<stop  offset="0" style="stop-color:#E1E1EF"/>
	<stop  offset="1" style="stop-color:#E1E1EF"/>
</linearGradient>
<path class="st23" d="M82,184.1l-71-50.5c-6.4-4.6-6.4-12,0-16.6l71-50.5c6.1-4.3,16.1-4.3,22.2,0l71,50.5c6.4,4.6,6.4,12,0,16.6
	l-71,50.5C98.1,188.4,88.1,188.4,82,184.1z"/>
<linearGradient id="SVGID_14_" gradientUnits="userSpaceOnUse" x1="70.1549" y1="115.8089" x2="122.5462" y2="137.6629">
	<stop  offset="0" style="stop-color:#6C3F84"/>
	<stop  offset="1" style="stop-color:#75528C"/>
</linearGradient>
<path class="st24" d="M62.8,96.8c0,0,8,11.3,30.5,10.5c10.2-0.4,19.1,2,25.4,4.9c9.9,4.6,13.9,11.9,12.2,21.1
	c-2.1,11.1-23.8,26.5-48.6,10.8C56.5,127.8,62.8,96.8,62.8,96.8z"/>
<path class="st25" d="M62.8,99.6c0,0,8,11.3,30.5,10.5c10.2-0.4,19.1,2,25.4,4.9c7.9,3.7,12,9.1,12.5,15.7c0.6-8-3.5-14.4-12.5-18.6
	c-6.2-2.9-15.2-5.3-25.4-4.9c-22.5,0.8-30.5-10.5-30.5-10.5s-0.8,4-0.7,9.9C62.3,102.4,62.8,99.6,62.8,99.6z"/>
<path class="st26" d="M444,457.7c0-3-1.6-6-4.8-8.3l-71-50.5c-6.1-4.3-16.1-4.3-22.2,0l-71,50.5c-3.2,2.3-4.8,5.3-4.8,8.3h0v9.3h6.2
	l69.6,49.5c6.1,4.3,16.1,4.3,22.2,0l69.6-49.5h6.2V457.7z"/>
<linearGradient id="SVGID_15_" gradientUnits="userSpaceOnUse" x1="357.1265" y1="527.8765" x2="357.1265" y2="390.6918">
	<stop  offset="0" style="stop-color:#FFA300"/>
	<stop  offset="1" style="stop-color:#FFA300;stop-opacity:0"/>
</linearGradient>
<rect x="270.3" y="391.8" class="st27" width="173.7" height="75.4"/>
<radialGradient id="SVGID_16_" cx="363.1942" cy="537.9929" r="114.0597" gradientUnits="userSpaceOnUse">
	<stop  offset="9.939745e-02" style="stop-color:#E4A524"/>
	<stop  offset="0.6179" style="stop-color:#533558"/>
	<stop  offset="1" style="stop-color:#282D70"/>
</radialGradient>
<path class="st28" d="M346,525.7l-71-50.5c-6.4-4.6-6.4-12,0-16.6l71-50.5c6.1-4.3,16.1-4.3,22.2,0l71,50.5c6.4,4.6,6.4,12,0,16.6
	l-71,50.5C362.1,530.1,352.1,530.1,346,525.7z"/>
<linearGradient id="SVGID_17_" gradientUnits="userSpaceOnUse" x1="357.3863" y1="798.1616" x2="357.3863" y2="445.6693">
	<stop  offset="0" style="stop-color:#FFA300"/>
	<stop  offset="1" style="stop-color:#FFA300;stop-opacity:0"/>
</linearGradient>
<path class="st29" d="M388.3,422.5l-14.2-10.1h-34.1l-13.6,9.7v89.7l19.6,13.9c6.1,4.3,16.1,4.3,22.2,0l20.1-14.3V422.5z"/>
<linearGradient id="SVGID_18_" gradientUnits="userSpaceOnUse" x1="357.3863" y1="654.5775" x2="357.3863" y2="444.1504">
	<stop  offset="0" style="stop-color:#FFA300"/>
	<stop  offset="1" style="stop-color:#FFA300;stop-opacity:0"/>
</linearGradient>
<path class="st30" d="M376.1,413.8l-7.9-5.6c-6.1-4.3-16.1-4.3-22.2,0l-7.3,5.2v107.1l7.3,5.2c6.1,4.3,16.1,4.3,22.2,0l7.9-5.6
	V413.8z"/>
<linearGradient id="SVGID_19_" gradientUnits="userSpaceOnUse" x1="357.3863" y1="557.9248" x2="357.3863" y2="460.1779">
	<stop  offset="0" style="stop-color:#FFA300"/>
	<stop  offset="1" style="stop-color:#FFA300;stop-opacity:0"/>
</linearGradient>
<path class="st31" d="M350.5,527.8c4.3,1.7,9.5,1.6,13.8-0.2V412.4h-13.8V527.8z"/>
<linearGradient id="SVGID_20_" gradientUnits="userSpaceOnUse" x1="270.2529" y1="390.5895" x2="444" y2="390.5895">
	<stop  offset="0" style="stop-color:#A4A6D2"/>
	<stop  offset="5.752167e-02" style="stop-color:#8A8AC2"/>
	<stop  offset="0.1567" style="stop-color:#8A8AC2"/>
	<stop  offset="0.2186" style="stop-color:#8F8FC4"/>
	<stop  offset="0.2876" style="stop-color:#9C9CCC"/>
	<stop  offset="0.36" style="stop-color:#B2B2D7"/>
	<stop  offset="0.4343" style="stop-color:#D0D1E8"/>
	<stop  offset="0.4702" style="stop-color:#E2E3F1"/>
	<stop  offset="0.4982" style="stop-color:#DFDFED"/>
	<stop  offset="0.5113" style="stop-color:#DBDAE9"/>
	<stop  offset="0.5924" style="stop-color:#FFFFFF"/>
	<stop  offset="1" style="stop-color:#FFFFFF"/>
</linearGradient>
<path class="st32" d="M389.8,347.2l-21.6-15.3c-6.1-4.3-16.1-4.3-22.2,0l-21.6,15.3h-54.2v43.4h0c0,3,1.6,6,4.8,8.3l71,50.5
	c6.1,4.3,16.1,4.3,22.2,0l71-50.5c3.2-2.3,4.8-5.3,4.8-8.3l0,0v-43.4H389.8z"/>
<circle class="st33" cx="350.2" cy="484" r="4.8"/>
<circle class="st34" cx="338.2" cy="462.5" r="4.8"/>
<circle class="st35" cx="376.6" cy="484" r="4.8"/>
<circle class="st36" cx="350.2" cy="499.4" r="4.8"/>
<path class="st37" d="M444,268.9c0-3-1.6-6-4.8-8.3l-71-50.5c-6.1-4.3-16.1-4.3-22.2,0l-71,50.5c-3.2,2.3-4.8,5.3-4.8,8.3h0v9.3h6.2
	l69.6,49.5c6.1,4.3,16.1,4.3,22.2,0l69.6-49.5h6.2V268.9z"/>
<radialGradient id="SVGID_21_" cx="359.9211" cy="349.1844" r="97.927" gradientUnits="userSpaceOnUse">
	<stop  offset="0.4448" style="stop-color:#23B065"/>
	<stop  offset="1" style="stop-color:#282D70"/>
</radialGradient>
<path class="st38" d="M346,336.9l-71-50.5c-6.4-4.6-6.4-12,0-16.6l71-50.5c6.1-4.3,16.1-4.3,22.2,0l71,50.5c6.4,4.6,6.4,12,0,16.6
	l-71,50.5C362.1,341.3,352.1,341.3,346,336.9z"/>
<linearGradient id="SVGID_22_" gradientUnits="userSpaceOnUse" x1="357.3863" y1="568.6187" x2="357.3863" y2="221.4035">
	<stop  offset="0" style="stop-color:#8FFF4C"/>
	<stop  offset="1" style="stop-color:#8FFF4C;stop-opacity:0"/>
</linearGradient>
<path class="st39" d="M388.3,135.8l-14.2-10.1h-34.1l-13.6,9.7V323l19.6,13.9c6.1,4.3,16.1,4.3,22.2,0l20.1-14.3V135.8z"/>
<linearGradient id="SVGID_23_" gradientUnits="userSpaceOnUse" x1="357.3863" y1="532.8568" x2="357.3863" y2="210.0106">
	<stop  offset="0" style="stop-color:#8FFF4C"/>
	<stop  offset="1" style="stop-color:#8FFF4C;stop-opacity:0"/>
</linearGradient>
<path class="st40" d="M376.1,158.7l-7.9-5.6c-6.1-4.3-16.1-4.3-22.2,0l-7.3,5.2v173.4l7.3,5.2c6.1,4.3,16.1,4.3,22.2,0l7.9-5.6
	V158.7z"/>
<linearGradient id="SVGID_24_" gradientUnits="userSpaceOnUse" x1="357.3863" y1="544.3381" x2="357.3863" y2="159.4244">
	<stop  offset="0" style="stop-color:#8FFF4C"/>
	<stop  offset="1" style="stop-color:#8FFF4C;stop-opacity:0"/>
</linearGradient>
<path class="st41" d="M350.5,339c4.3,1.7,9.5,1.6,13.8-0.2V160.6h-13.8V339z"/>
<circle class="st42" cx="355.2" cy="254.3" r="4.8"/>
<circle class="st43" cx="355.2" cy="238.6" r="4.8"/>
<circle class="st10" cx="337.8" cy="194.7" r="4.8"/>
<circle class="st44" cx="376.9" cy="254.5" r="4.8"/>
<linearGradient id="SVGID_25_" gradientUnits="userSpaceOnUse" x1="357.1265" y1="392.1417" x2="357.1265" y2="296.9659">
	<stop  offset="0" style="stop-color:#E1E1EF"/>
	<stop  offset="1" style="stop-color:#E1E1EF"/>
</linearGradient>
<path class="st45" d="M346,405.9l-71-50.5c-6.4-4.6-6.4-12,0-16.6l71-50.5c6.1-4.3,16.1-4.3,22.2,0l71,50.5c6.4,4.6,6.4,12,0,16.6
	l-71,50.5C362.1,410.3,352.1,410.3,346,405.9z"/>
<g>
	<path class="st46" d="M390.1,328.5c0.2,0.2,0.4,0.5,0.7,0.7c1.4,1.4,2.5,2.9,3.2,4.5c0.7,1.8,0.7,3.5-0.1,5.3
		c-0.6,1.1-1.4,2.1-2.6,2.9c-3.1,2.2-6.1,4.3-9.2,6.5c-3.5,2.5-7,5-10.5,7.5c-0.1,0.1-0.2,0.1,0,0.2c0.6,0.4,1.1,0.8,1.6,1.2
		c0.1,0.1,0.2,0.1,0.3,0c4.5-3.2,9.1-6.5,13.6-9.7c0.2-0.2,0.2-0.2,0.4,0c2,1.5,4.1,2.9,6.2,4.4c1.7,1.1,2.2,2.5,2,4.1
		c-0.2,1.3-0.8,2.4-1.6,3.6c-0.5,0.7-1.1,1.3-1.7,2c-0.4,0.5-0.9,0.9-1.4,1.3c-0.5,0.4-1,0.9-1.5,1.3c-1,0.8-2,1.6-3,2.3
		c-0.9,0.6-1.8,1.3-2.8,1.9c-2.1,1.3-4.3,2.5-6.9,3.3c-1.7,0.6-3.6,1-5.5,1.1c-1.9,0.1-3.6-0.2-5.2-1c-0.5-0.2-0.9-0.5-1.3-0.8
		c-0.1,0-0.1-0.1-0.2-0.1c-4.2-3-8.5-6-12.7-9.1c-1.2-0.8-2-1.8-2.6-2.9c-0.7-1.5-0.6-3,0.1-4.4c0.5-1,1.3-2,2.3-2.8
		c0.3-0.3,0.6-0.5,0.9-0.7c4.5-3.2,8.9-6.4,13.4-9.6c1.1-0.8,2-1.6,2.7-2.6c1.3-1.8,1.4-3.6,0.4-5.5c-0.5-1-1.3-1.9-2.2-2.8
		c-0.4-0.3-0.8-0.6-1.2-0.9c-2.1-1.5-4.3-3.1-6.5-4.6c-0.1-0.1-0.1-0.1,0-0.2c1.6-1.1,3.2-2.3,4.8-3.4c1.1-0.8,2.5-1.3,4-1.5
		c1.9-0.3,3.8-0.3,5.8,0.1c2.1,0.4,4,1.1,5.8,1.9c0.8,0.4,1.6,0.8,2.4,1.2c0,0,0.1,0,0.1,0C384.9,324.8,387.5,326.7,390.1,328.5z
		 M384.8,357.8c1.4,1,3.6,1,5,0c1.4-1,1.4-2.6,0-3.6c-1.4-1-3.6-1-5,0C383.4,355.2,383.4,356.8,384.8,357.8z"/>
	<path class="st47" d="M354.7,346.2c-2.3,1.7-4.7,3.3-7,5c-1.2,0.9-2.2,1.9-2.8,3.1c-0.8,1.6-0.7,3.2,0.1,4.7
		c0.7,1.3,1.8,2.5,3.2,3.5c2.2,1.6,4.4,3.2,6.7,4.7c0.1,0.1,0.1,0.1,0,0.2c-1.6,1.1-3.2,2.3-4.8,3.4c-1.1,0.8-2.5,1.3-4,1.5
		c-1.9,0.3-3.8,0.3-5.8-0.1c-2.1-0.4-4.1-1.1-5.9-1.9c-1.5-0.7-2.8-1.4-4.1-2.3c-1.1-0.7-2.1-1.4-3.1-2.1c-1.9-1.4-3.6-2.9-5-4.6
		c-0.9-1.2-1.7-2.4-2-3.7c-0.6-1.9-0.3-3.8,1-5.6c0.5-0.7,1.1-1.3,1.9-1.9c3.2-2.2,6.3-4.5,9.4-6.7c3.4-2.4,6.8-4.9,10.2-7.3
		c0.2-0.1,0.2-0.1,0-0.3c-0.5-0.4-1.1-0.8-1.6-1.2c-0.1-0.1-0.2-0.1-0.3,0c-3.6,2.6-7.2,5.2-10.8,7.7c-0.9,0.7-1.8,1.3-2.7,2
		c-0.2,0.1-0.2,0.1-0.4,0c-2-1.5-4.1-3-6.2-4.4c-1.7-1.1-2.2-2.5-2-4.1c0.2-1.2,0.8-2.4,1.6-3.5c0.9-1.2,2-2.3,3.1-3.4
		c1.6-1.5,3.4-2.8,5.2-4.1c1.4-1,2.9-1.9,4.5-2.8c2-1,4-1.9,6.4-2.5c1.7-0.4,3.5-0.6,5.3-0.4c1.6,0.2,3.1,0.6,4.3,1.5
		c1.8,1.3,3.6,2.6,5.4,3.9c2.6,1.9,5.2,3.7,7.8,5.6c1.4,1,2.4,2.2,2.9,3.6c0.4,1.4,0.1,2.8-0.7,4.2c-0.7,1.1-1.7,2.2-2.9,3
		C359.3,342.9,357,344.6,354.7,346.2C354.7,346.2,354.7,346.2,354.7,346.2z M324.5,338.1c1.4,1,3.6,1,5,0c1.4-1,1.4-2.6,0-3.6
		c-1.4-1-3.6-1-5,0C323.1,335.5,323.1,337.1,324.5,338.1z"/>
</g>
<g>
	<path class="st48" d="M387.5,347.6c-0.2-0.2-0.2-0.2-0.4,0c-4.5,3.2-9.1,6.5-13.6,9.7c-0.1,0.1-0.2,0.1-0.3,0
		c-0.1-0.1-0.2-0.2-0.4-0.3c-0.4,0.3-0.8,0.6-1.3,0.9c-0.1,0.1-0.2,0.1,0,0.2c0.6,0.4,1.1,0.8,1.6,1.2c0.1,0.1,0.2,0.1,0.3,0
		c4.5-3.2,9.1-6.5,13.6-9.7c0.2-0.2,0.2-0.2,0.4,0c2,1.5,4.1,2.9,6.2,4.4c1.1,0.7,1.6,1.5,1.9,2.4c0-0.1,0.1-0.3,0.1-0.4
		c0.2-1.6-0.3-2.9-2-4.1C391.6,350.5,389.5,349,387.5,347.6z"/>
	<path class="st48" d="M384.8,359.9c1.4,1,3.6,1,5,0c1.1-0.8,1.3-1.9,0.7-2.8c-0.2,0.3-0.4,0.5-0.7,0.8c-1.3,1-3.6,1-5,0
		c-0.3-0.2-0.6-0.5-0.8-0.8C383.5,357.9,383.7,359.1,384.8,359.9z"/>
	<path class="st48" d="M349.5,356.5c0.5-1,1.3-2,2.3-2.8c0.3-0.3,0.6-0.5,0.9-0.7c4.5-3.2,8.9-6.4,13.4-9.6c1.1-0.8,2-1.6,2.7-2.6
		c0.9-1.3,1.2-2.7,0.9-4.1c-0.2,0.7-0.5,1.4-0.9,2c-0.7,1-1.6,1.8-2.7,2.6c-4.5,3.2-9,6.4-13.4,9.6c-0.3,0.2-0.6,0.5-0.9,0.7
		c-1,0.9-1.8,1.8-2.3,2.8c-0.6,1.1-0.8,2.3-0.5,3.4C349.1,357.4,349.2,357,349.5,356.5z"/>
	<path class="st48" d="M359.5,324.9c0.4,0.3,0.8,0.6,1.3,0.9c1.2-0.8,2.4-1.7,3.5-2.5c1.1-0.8,2.5-1.3,4-1.5
		c1.9-0.3,3.8-0.3,5.8,0.1c2.1,0.4,4,1.1,5.8,1.9c0.8,0.4,1.6,0.8,2.4,1.2c0,0,0.1,0,0.1,0c2.6,1.9,5.2,3.7,7.8,5.6
		c0.2,0.2,0.4,0.5,0.7,0.7c1.4,1.4,2.5,2.9,3.2,4.5c0.2,0.5,0.3,1,0.4,1.5c0.2-1.2,0-2.4-0.4-3.6c-0.6-1.7-1.8-3.1-3.2-4.5
		c-0.2-0.2-0.5-0.4-0.7-0.7c-2.6-1.9-5.2-3.7-7.8-5.6c0,0-0.1,0-0.1,0c-0.8-0.4-1.6-0.8-2.4-1.2c-1.8-0.8-3.7-1.5-5.8-1.9
		c-1.9-0.4-3.8-0.4-5.8-0.1c-1.5,0.3-2.9,0.7-4,1.5c-1.6,1.1-3.2,2.3-4.8,3.4C359.3,324.8,359.3,324.8,359.5,324.9z"/>
</g>
<g>
	<path class="st49" d="M320.3,334.8c0.9-1.2,2-2.3,3.1-3.4c1.6-1.5,3.4-2.8,5.2-4.1c1.4-1,2.9-1.9,4.5-2.8c2-1,4-1.9,6.4-2.5
		c1.7-0.4,3.5-0.6,5.3-0.4c1.6,0.2,3.1,0.6,4.3,1.5c1.8,1.3,3.6,2.6,5.4,3.9c2.6,1.9,5.2,3.7,7.8,5.6c1.4,1,2.4,2.2,2.9,3.6
		c0,0.1,0.1,0.2,0.1,0.3c0.2-0.8,0.2-1.6-0.1-2.4c-0.4-1.4-1.5-2.6-2.9-3.6c-2.6-1.9-5.2-3.7-7.8-5.6c-1.8-1.3-3.6-2.6-5.4-3.9
		c-1.2-0.9-2.6-1.3-4.3-1.5c-1.8-0.2-3.6,0-5.3,0.4c-2.3,0.6-4.4,1.5-6.4,2.5c-1.6,0.8-3.1,1.8-4.5,2.8c-1.9,1.3-3.6,2.6-5.2,4.1
		c-1.2,1.1-2.3,2.2-3.1,3.4c-0.8,1.1-1.4,2.3-1.6,3.5c-0.1,0.6-0.1,1.2,0.1,1.7C319,336.8,319.5,335.8,320.3,334.8z"/>
	<path class="st49" d="M323,352.5c3.2-2.2,6.3-4.5,9.4-6.7c3.4-2.4,6.8-4.9,10.2-7.3c0.2-0.1,0.2-0.1,0-0.3
		c-0.4-0.3-0.8-0.6-1.3-0.9c-3,2.1-6,4.3-9,6.4c-3.1,2.2-6.2,4.5-9.4,6.7c-0.8,0.5-1.4,1.2-1.9,1.9c-1.1,1.5-1.5,3.1-1.2,4.7
		c0.2-0.9,0.6-1.8,1.2-2.7C321.6,353.6,322.2,353,323,352.5z"/>
	<path class="st49" d="M354.8,367.3c-2.2-1.6-4.4-3.2-6.7-4.7c-1.4-1-2.5-2.2-3.2-3.5c-0.2-0.5-0.4-1-0.5-1.4
		c-0.3,1.2-0.1,2.3,0.5,3.5c0.7,1.3,1.8,2.5,3.2,3.5c1.8,1.3,3.6,2.6,5.4,3.8c0.4-0.3,0.9-0.6,1.3-0.9
		C354.9,367.5,354.9,367.4,354.8,367.3z"/>
	<path class="st49" d="M324.5,340.1c1.4,1,3.6,1,5,0c1.1-0.8,1.3-1.9,0.7-2.8c-0.2,0.3-0.4,0.5-0.7,0.8c-1.4,1-3.6,1-5,0
		c-0.3-0.2-0.6-0.5-0.7-0.8C323.1,338.2,323.4,339.4,324.5,340.1z"/>
</g>
<linearGradient id="SVGID_26_" gradientUnits="userSpaceOnUse" x1="270.2529" y1="111.1803" x2="444" y2="111.1803">
	<stop  offset="0" style="stop-color:#A4A6D2"/>
	<stop  offset="5.752167e-02" style="stop-color:#8A8AC2"/>
	<stop  offset="0.2014" style="stop-color:#8A8AC2"/>
	<stop  offset="0.2545" style="stop-color:#8F8FC4"/>
	<stop  offset="0.3136" style="stop-color:#9C9CCC"/>
	<stop  offset="0.3757" style="stop-color:#B2B2D7"/>
	<stop  offset="0.4394" style="stop-color:#D0D1E8"/>
	<stop  offset="0.4702" style="stop-color:#E2E3F1"/>
	<stop  offset="0.4982" style="stop-color:#DFDFED"/>
	<stop  offset="0.5113" style="stop-color:#DBDAE9"/>
	<stop  offset="0.5924" style="stop-color:#FFFFFF"/>
	<stop  offset="1" style="stop-color:#FFFFFF"/>
</linearGradient>
<path class="st50" d="M389.8,67.7l-21.6-15.3c-6.1-4.3-16.1-4.3-22.2,0l-21.6,15.3h-54.2v43.4h0c0,3,1.6,6,4.8,8.3l71,50.5
	c6.1,4.3,16.1,4.3,22.2,0l71-50.5c3.2-2.3,4.8-5.3,4.8-8.3l0,0V67.7H389.8z"/>
<linearGradient id="SVGID_27_" gradientUnits="userSpaceOnUse" x1="357.1265" y1="112.7325" x2="357.1265" y2="17.5566">
	<stop  offset="0" style="stop-color:#E1E1EF"/>
	<stop  offset="1" style="stop-color:#E1E1EF"/>
</linearGradient>
<path class="st51" d="M346,126.5l-71-50.5c-6.4-4.6-6.4-12,0-16.6L346,9c6.1-4.3,16.1-4.3,22.2,0l71,50.5c6.4,4.6,6.4,12,0,16.6
	l-71,50.5C362.1,130.9,352.1,130.9,346,126.5z"/>
<g>
	<path class="st52" d="M372.9,33.9c-2.3-1.7-5-2.2-8.2-1.6c-13.4,2.6-26.9,5.1-40.3,7.7c-3.1,0.6-5,2-5.9,4.2
		c-3.6,9.6-7.2,19.2-10.8,28.8c-0.9,2.3-0.1,4.2,2.2,5.9c4.9,3.5,9.8,7,14.7,10.5c5,3.6,10,7.1,14.9,10.7c2.2,1.6,4.8,2.1,7.8,1.5
		c3.4-0.6,6.7-1.3,10.1-1.9c3.2-0.7,6.2-1.7,8.5-3.5c3.5-2.7,4.1-5.8,1.6-8.8c-0.7-0.8-1.6-1.6-2.5-2.2c-5.9-4.2-11.8-8.4-17.7-12.6
		c-3.9-2.8-7.7-5.5-11.6-8.3c-0.8-0.6-1.3-0.6-2.1,0c-0.8,0.6-1.7,1.2-2.5,1.8c-1.2,0.8-1.2,1,0,1.8c4.7,3.4,9.4,6.7,14.1,10.1
		c4.9,3.5,9.9,7,14.8,10.6c2.4,1.7,2,4.2-0.8,5.5c-1,0.5-2,0.8-3.1,1c-3.4,0.6-6.8,1.3-10.2,2c-0.9,0.2-1.5,0-2.1-0.4
		c-9.7-7-19.5-13.9-29.2-20.8c-0.6-0.5-0.8-0.9-0.5-1.5c3.6-9.5,7.1-18.9,10.7-28.4c0.2-0.6,0.7-1,1.6-1.1
		c13.3-2.5,26.6-5.1,39.9-7.6c0.9-0.2,1.5-0.1,2.1,0.4c9.7,7,19.5,13.9,29.2,20.8c0.6,0.4,0.8,0.9,0.6,1.5
		c-3.6,9.5-7.2,19-10.7,28.5c-0.2,0.6-0.7,0.9-1.5,1.1c-3.2,0.6-6.4,1.2-9.6,1.7c-0.7,0.1-1.1,0.4-1.3,0.9c-0.4,1.2-1,2.3-1.8,3.4
		c-0.2,0.3-0.6,0.6-0.3,0.9c0.3,0.3,0.9,0.1,1.4,0c0.3,0,0.7-0.1,1-0.2c4.1-0.8,8.2-1.5,12.4-2.3c3.3-0.6,5.3-2,6.2-4.4
		c3.6-9.5,7.2-19.1,10.8-28.6c0.9-2.3,0.1-4.2-2.2-5.9C392.5,47.9,382.7,40.9,372.9,33.9z"/>
	<path class="st52" d="M378.5,64.8c-2.5,2.8-5.7,5-9.6,6.8c-2.6,1.2-5.3,1.2-7.8-0.1c-0.2-0.1-0.4-0.2-0.5-0.3
		c-0.7-0.3-1.2-0.3-1.8,0.1c-0.9,0.7-1.9,1.4-2.8,2c-0.9,0.6-0.9,0.9,0.1,1.5c3.7,2.5,8,3.1,12.7,1.9c3.7-1,6.7-2.7,9.5-4.6
		c2.7-1.9,5.1-3.9,6.7-6.3c2.7-4,1.8-7.5-2.8-10.5c-2.4-1.5-5.1-2-8.3-1.4c-1.5,0.3-2.8,0.8-4.1,1.3c-3.9,1.6-7.3,3.7-10.9,5.5
		c-1.5,0.8-3,1.5-4.7,2.1c-0.8,0.2-1.6,0.4-2.4,0.1c-1.5-0.5-2.6-1.9-2.4-3.1c0.1-0.7,0.5-1.4,1.1-2c1.7-1.9,4-3.5,6.5-4.9
		c3.1-1.7,6.2-2,9.6-0.5c0.6,0.3,1.1,0.2,1.6-0.1c1-0.7,2-1.4,3-2.1c0.8-0.6,0.8-0.9-0.1-1.4c-4.2-2.6-9.3-3.1-14.4-1.2
		c-3.9,1.4-7,3.5-9.7,5.9c-2,1.7-3.6,3.6-4.2,5.8c-0.8,3.2,0.9,5.7,4.4,7.7c3.2,1.8,6.6,1.6,10.1,0.4c0.4-0.1,0.7-0.3,1.1-0.4
		c3.1-1.2,5.7-2.8,8.4-4.3c2.3-1.3,4.5-2.6,7.2-3.4c2.3-0.7,3.9-0.3,5.2,1.3C380.2,62.2,379.6,63.6,378.5,64.8z"/>
	<g>
		<path class="st53" d="M376.2,92.5c3.2-0.6,6.4-1.2,9.6-1.7c0.9-0.2,1.3-0.5,1.5-1.1c3.6-9.5,7.1-19,10.7-28.5
			c0.2-0.4,0.1-0.8-0.2-1.1c-3.5,9.3-7.1,18.7-10.6,28.1c-0.2,0.6-0.7,0.9-1.5,1.1c-3.2,0.6-6.4,1.2-9.6,1.7
			c-0.7,0.1-1.1,0.4-1.3,0.9c-0.4,1.2-1,2.3-1.8,3.4c-0.2,0.3-0.6,0.6-0.3,0.9c0.2,0.2,0.4,0.2,0.6,0.2c0.6-0.9,1.1-1.9,1.5-2.9
			C375.1,92.8,375.5,92.6,376.2,92.5z"/>
		<path class="st53" d="M307.7,74.5c3.6-9.6,7.2-19.2,10.8-28.8c0.8-2.2,2.8-3.6,5.9-4.2c13.4-2.6,26.9-5.1,40.3-7.7
			c3.2-0.6,5.9-0.1,8.2,1.6c9.8,7,19.6,14,29.4,21c1.4,1,2.2,2.1,2.5,3.3c0.3-1.9-0.5-3.5-2.5-4.9c-9.8-7-19.6-14-29.4-21
			c-2.3-1.7-5-2.2-8.2-1.6c-13.4,2.6-26.9,5.1-40.3,7.7c-3.1,0.6-5,2-5.9,4.2c-3.6,9.6-7.2,19.2-10.8,28.8c-0.3,0.9-0.4,1.7-0.3,2.5
			C307.4,75.2,307.5,74.8,307.7,74.5z"/>
		<path class="st53" d="M365,84.9c-5.9-4.2-11.8-8.4-17.7-12.6c-3.9-2.8-7.7-5.5-11.6-8.3c-0.8-0.6-1.3-0.6-2.1,0
			c-0.8,0.6-1.7,1.2-2.5,1.8c-1.1,0.8-1.1,1-0.2,1.7c0.1,0,0.1-0.1,0.2-0.1c0.8-0.6,1.7-1.2,2.5-1.8c0.8-0.6,1.2-0.6,2.1,0
			c3.9,2.8,7.8,5.5,11.6,8.3c5.9,4.2,11.8,8.4,17.7,12.6c1,0.7,1.8,1.4,2.5,2.2c0.8,1,1.3,1.9,1.5,2.9c0.3-1.5-0.2-3-1.5-4.5
			C366.8,86.4,366,85.6,365,84.9z"/>
		<path class="st53" d="M314.6,77.1c9.8,6.9,19.5,13.9,29.2,20.8c0.6,0.5,1.2,0.6,2.1,0.4c3.4-0.7,6.8-1.3,10.2-2
			c1.1-0.2,2.2-0.6,3.1-1c1.9-0.9,2.7-2.4,2.2-3.7c-0.3,0.8-1,1.6-2.2,2.2c-1,0.5-2,0.8-3.1,1c-3.4,0.6-6.8,1.3-10.2,2
			c-0.9,0.2-1.5,0-2.1-0.4c-9.7-7-19.5-13.9-29.2-20.8c-0.2-0.1-0.3-0.2-0.4-0.4c-0.1,0.1-0.1,0.3-0.2,0.4
			C313.8,76.2,314,76.6,314.6,77.1z"/>
	</g>
	<g>
		<path class="st53" d="M358.8,72.6c0.6-0.4,1.2-0.4,1.8-0.1c0.2,0.1,0.3,0.2,0.5,0.3c2.6,1.3,5.2,1.3,7.8,0.1
			c3.9-1.8,7.1-4,9.6-6.8c0.9-1,1.4-2,1.1-3c-0.2,0.6-0.6,1.2-1.1,1.8c-2.5,2.8-5.7,5-9.6,6.8c-2.6,1.2-5.3,1.2-7.8-0.1
			c-0.2-0.1-0.4-0.2-0.5-0.3c-0.7-0.3-1.2-0.3-1.8,0.1c-0.9,0.7-1.9,1.4-2.8,2c-0.8,0.6-0.9,0.9-0.2,1.4c0,0,0.1-0.1,0.2-0.1
			C356.9,74,357.8,73.3,358.8,72.6z"/>
		<path class="st53" d="M358.8,60.9c-1.5,0.8-3,1.5-4.7,2.1c-0.8,0.2-1.6,0.4-2.4,0.1c-1.1-0.3-2-1.2-2.3-2.1c0,0.1-0.1,0.2-0.1,0.3
			c-0.2,1.2,0.9,2.6,2.4,3.1c0.8,0.2,1.6,0.1,2.4-0.1c1.7-0.5,3.2-1.3,4.7-2.1c3.6-1.8,7-3.9,10.9-5.5c1.3-0.5,2.7-1,4.1-1.3
			c3.1-0.6,5.9-0.1,8.3,1.4c2.6,1.7,4,3.5,4.3,5.6c0.3-2.5-1.1-4.8-4.3-6.8c-2.4-1.5-5.1-2-8.3-1.4c-1.5,0.3-2.8,0.8-4.1,1.3
			C365.8,57,362.5,59.1,358.8,60.9z"/>
		<path class="st53" d="M342.6,60.8c0.6-2.2,2.1-4.1,4.2-5.8c2.8-2.4,5.9-4.5,9.7-5.9c5.1-1.9,10.1-1.5,14.4,1.2
			c0.1,0,0.1,0.1,0.2,0.1c0.7-0.6,0.7-0.9-0.2-1.4c-4.2-2.6-9.3-3.1-14.4-1.2c-3.9,1.4-7,3.5-9.7,5.9c-2,1.7-3.6,3.6-4.2,5.8
			c-0.2,0.8-0.3,1.5-0.2,2.2C342.5,61.4,342.6,61.1,342.6,60.8z"/>
	</g>
</g>
<linearGradient id="SVGID_28_" gradientUnits="userSpaceOnUse" x1="137.9666" y1="295.8302" x2="311.7137" y2="295.8302">
	<stop  offset="0" style="stop-color:#A4A6D2"/>
	<stop  offset="5.752167e-02" style="stop-color:#8A8AC2"/>
	<stop  offset="0.1935" style="stop-color:#8A8AC2"/>
	<stop  offset="0.2481" style="stop-color:#8F8FC4"/>
	<stop  offset="0.309" style="stop-color:#9C9CCC"/>
	<stop  offset="0.3729" style="stop-color:#B2B2D7"/>
	<stop  offset="0.4385" style="stop-color:#D0D1E8"/>
	<stop  offset="0.4702" style="stop-color:#E2E3F1"/>
	<stop  offset="0.4982" style="stop-color:#DFDFED"/>
	<stop  offset="0.5113" style="stop-color:#DBDAE9"/>
	<stop  offset="0.5924" style="stop-color:#FFFFFF"/>
	<stop  offset="1" style="stop-color:#FFFFFF"/>
</linearGradient>
<path class="st54" d="M257.5,252.4L235.9,237c-6.1-4.3-16.1-4.3-22.2,0l-21.6,15.3H138v43.4h0c0,3,1.6,6,4.8,8.3l71,50.5
	c6.1,4.3,16.1,4.3,22.2,0l71-50.5c3.2-2.3,4.8-5.3,4.8-8.3l0,0v-43.4H257.5z"/>
<linearGradient id="SVGID_29_" gradientUnits="userSpaceOnUse" x1="224.8401" y1="297.3824" x2="224.8401" y2="202.2065">
	<stop  offset="0" style="stop-color:#E1E1EF"/>
	<stop  offset="1" style="stop-color:#E1E1EF"/>
</linearGradient>
<path class="st55" d="M213.7,311.2l-71-50.5c-6.4-4.6-6.4-12,0-16.6l71-50.5c6.1-4.3,16.1-4.3,22.2,0l71,50.5c6.4,4.6,6.4,12,0,16.6
	l-71,50.5C229.8,315.5,219.8,315.5,213.7,311.2z"/>
<g>
	<path class="st56" d="M259.1,253.2c-0.3,0.2-0.6,0.4-1,0.7c-0.2,0-0.3,0.1-0.4,0.2c-2.2,1.3-4.6,2.5-7.3,3.3
		c-6.9,2-13.7,2.1-20.5-0.3c-0.1,0-0.3-0.2-0.5-0.1c0,0.1,0,0.1,0.1,0.2c2.9,7.1,1.7,13.7-5,19.6c-3,2.6-6.6,4.6-11.2,5.8
		c-4.8,1.2-9.7,1.5-14.7,0.5c-6.1-1.3-10.8-4-14.1-7.7c-3.8-4.3-4.9-9-4.2-14c0.6-4.2,3-7.9,6.8-11.2c1.8-1.6,4-3,6.5-4.1
		c6.6-2.8,13.6-3.2,20.8-1.2c0.5,0.1,0.6,0.3,0.4,0.6c-0.1,0.2-0.2,0.3-0.4,0.5c-1.9,2.3-3.9,4.5-5.7,6.8c-0.6,0.8-1.4,1-2.6,1
		c-4.5-0.2-8,1.2-10.3,3.9c-3.8,4.3-2.7,9.9,2.6,13.3c2.1,1.4,4.7,2.3,7.6,2.3c5,0,8.5-1.8,10.8-4.7c1.7-2.2,1.7-4.6,0.9-7.1
		c0,0-0.1,0-0.1,0c-0.1,0-0.2,0.1-0.2,0.1c-2.9,2-5.8,4-8.8,6.1c-0.3,0.2-0.5,0.4-0.8,0.5c-0.7,0.4-1.4,0.3-1.9-0.2
		c-0.1-0.1-0.2-0.3-0.3-0.4c-1-1.7-1.9-3.4-2.7-5.2c-0.4-0.8-0.2-1.3,0.7-1.9c3.6-2.5,7.2-5,10.8-7.5c1.5-1.1,3-2.1,4.6-3.2
		c0.2-0.2,0.3-0.3,0.2-0.5c-1.5-2-2.3-4.2-2.8-6.5c-0.7-3.5-0.4-7,1.5-10.4c1.3-2.3,3.2-4.5,5.4-6.4c2.7-2.4,5.9-4.4,9.9-5.6
		c5.8-1.8,11.8-2.2,17.8-0.7c5.8,1.5,10,4.3,13.3,7.8c3.1,3.4,4.1,7.3,3.8,11.3c-0.3,5-2.8,9.4-7.4,13.2
		C260.1,252.3,259.5,252.7,259.1,253.2z M233.5,231.1c-0.5,0.4-1.1,0.9-1.5,1.3c-2.8,3-3.7,6.2-1.9,9.7c1,1.9,2.4,3.6,4.8,4.8
		c6.2,3.1,13.3,1.2,16.7-2c1.6-1.5,2.4-3.2,2.8-5c0.8-3.8-0.8-7-5.1-9.5C244.8,227.7,237.7,228,233.5,231.1z"/>
	<g>
		<path class="st57" d="M203.5,260.4c-0.8,0.6-1,1.1-0.7,1.9c0.1,0.1,0.1,0.2,0.2,0.3c0.1-0.1,0.3-0.3,0.5-0.4
			c3.6-2.5,7.2-5,10.8-7.5c1.5-1.1,3-2.1,4.6-3.2c0.2-0.2,0.3-0.3,0.2-0.5c-0.2-0.3-0.4-0.6-0.6-0.9c-1.4,0.9-2.7,1.9-4.1,2.8
			C210.7,255.4,207.1,257.9,203.5,260.4z"/>
		<path class="st57" d="M198.4,272.7c2.1,1.4,4.7,2.3,7.6,2.3c5,0,8.5-1.8,10.8-4.7c1.2-1.6,1.6-3.3,1.3-5c-0.1,1.1-0.6,2.1-1.3,3.2
			c-2.3,3-5.7,4.8-10.8,4.7c-3,0-5.5-0.9-7.6-2.3c-2.9-1.9-4.5-4.4-4.8-6.9C193.2,267.1,194.9,270.4,198.4,272.7z"/>
		<path class="st57" d="M217.7,234.1c1.3-2.3,3.2-4.5,5.4-6.4c2.7-2.4,5.9-4.4,9.9-5.6c5.8-1.8,11.8-2.2,17.8-0.7
			c5.8,1.5,10,4.3,13.3,7.8c2.5,2.8,3.7,5.9,3.8,9.1c0.2-3.9-0.8-7.6-3.8-10.9c-3.2-3.6-7.5-6.4-13.3-7.8c-6-1.5-12-1.1-17.8,0.7
			c-4,1.2-7.2,3.3-9.9,5.6c-2.2,2-4.1,4.1-5.4,6.4c-1.4,2.6-2,5.2-1.8,8C216,238.2,216.6,236.2,217.7,234.1z"/>
		<path class="st57" d="M230,258.8c-0.1,0-0.3-0.2-0.5-0.1c0,0.1,0,0.1,0.1,0.2c0.8,2.1,1.3,4.1,1.5,6c0.1-2-0.2-4-0.8-6.1
			C230.2,258.9,230.1,258.9,230,258.8z"/>
		<path class="st57" d="M180.4,263.1c0.6-4.2,3-7.9,6.8-11.2c1.8-1.6,4-3,6.5-4.1c6.5-2.7,13.3-3.2,20.4-1.4
			c0.2-0.2,0.3-0.4,0.5-0.6c0.1-0.2,0.3-0.3,0.4-0.5c0.2-0.3,0-0.5-0.4-0.6c-7.2-1.9-14.2-1.5-20.8,1.2c-2.6,1.1-4.7,2.5-6.5,4.1
			c-3.8,3.3-6.2,7-6.8,11.2c-0.2,1.2-0.3,2.5-0.2,3.7C180.2,264.4,180.3,263.7,180.4,263.1z"/>
		<path class="st57" d="M230.1,243.9c1,1.9,2.4,3.6,4.8,4.8c6.2,3.1,13.3,1.2,16.7-2c1.6-1.5,2.4-3.2,2.8-5c0.2-0.9,0.2-1.8,0.1-2.7
			c0,0.3-0.1,0.6-0.1,0.9c-0.4,1.8-1.2,3.5-2.8,5c-3.4,3.2-10.5,5-16.7,2c-2.4-1.2-3.9-2.9-4.8-4.8c-0.5-0.9-0.7-1.8-0.9-2.6
			C229.1,240.9,229.3,242.4,230.1,243.9z"/>
	</g>
</g>
</svg>
