<svg xmlns="http://www.w3.org/2000/svg" width="816" height="11in" viewBox="0 0 8500 11000" shape-rendering="geometricPrecision" text-rendering="geometricPrecision" image-rendering="optimizeQuality" fill-rule="evenodd" clip-rule="evenodd"><defs><style>.fil1,.fil0{fill:#c5c6c6}.fil0{fill-rule:nonzero}</style></defs><g id="Layer_x0020_1"><g id="_242406236544"><path class="fil0" d="M3700 5587h-5v-66h5c7 37 26 55 58 55 11 0 20-3 27-9s11-13 11-23-5-19-16-28c-25-14-46-27-63-38-16-10-24-25-24-42 0-15 5-27 16-37 11-9 24-14 40-14 11 0 22 2 33 7 6 3 9 4 12 4 5 0 8-4 9-11h6v67h-6c-2-20-9-34-19-43-10-8-22-13-34-13-10 0-18 3-24 9-7 6-10 13-10 21 0 5 2 11 6 17 5 6 19 15 42 28 14 7 25 13 32 18s13 11 18 19 7 16 7 25c0 16-5 29-17 39s-26 15-43 15c-10 0-21-2-35-6-8-3-14-5-17-5-5 0-8 4-9 11zm399-192h-7c-7 0-13 2-16 6-3 5-5 13-5 24v78c0 17-1 31-4 43s-11 22-23 30-27 11-47 11c-19 0-35-3-47-10s-20-16-23-27c-4-11-6-28-6-51v-76c0-9-1-17-4-21-3-5-8-7-17-7h-7v-6h83v6h-7c-6 0-11 1-15 5-4 3-6 11-6 23v85c0 16 2 29 5 38 3 10 9 17 16 22 8 5 18 7 30 7 11 0 22-2 32-7s17-12 21-20c4-9 7-24 7-46v-79c0-12-2-20-6-24-3-3-8-4-15-4h-7v-6h68v6zm117 97v57c0 12 2 20 6 24 3 3 8 5 15 5h7v5h-83v-5h7c9 0 14-2 17-6 3-5 4-12 4-23v-126c0-12-2-20-5-24-4-3-9-4-16-4h-7v-6h71c27 0 47 5 59 16 12 10 18 23 18 38 0 16-6 29-16 39-11 9-26 14-44 14-9 0-20-1-33-4zm0-89v81c10 2 18 3 24 3 11 0 20-4 27-13 6-8 9-18 9-28 0-15-4-26-11-34-8-7-18-11-30-11-5 0-11 1-19 2zm338 180h-76v-5c13-1 20-5 20-12 0-4-2-11-6-20l-12-28h-75l-13 31c-3 7-5 13-5 16 0 7 8 12 23 13v5h-61v-5c7-2 13-4 16-6 4-3 9-12 16-28l68-159h5l67 161c5 11 9 19 14 24 4 4 11 7 19 8v5zm-78-76l-33-78-33 78h66zm147 76v-5h7c8 0 14-3 16-7 3-4 5-11 5-22v-126c0-12-2-20-6-24-4-3-9-4-15-4h-7v-6h79c22 0 41 2 57 7 15 4 29 14 41 30s18 35 18 59c0 18-4 35-12 50s-20 27-36 35c-16 9-36 13-61 13h-86zm55-179v165c12 3 22 4 30 4 26 0 45-9 58-26s19-38 19-61c0-26-7-46-21-62s-33-24-57-24c-8 0-18 1-29 4zm420-14h-8c-7 0-12 2-15 7-4 5-5 12-5 23v79c0 16-2 30-5 43-3 11-11 21-22 29-12 8-28 12-48 12-19 0-34-4-46-10-12-7-20-16-24-27s-6-28-6-51v-76c0-10-1-17-4-22-2-5-8-7-17-7h-7v-5h84v5h-8c-6 0-11 2-15 5-3 4-5 12-5 24v84c0 17 1 29 4 39 3 9 9 16 17 21 7 5 17 8 29 8 11 0 22-3 32-8 10-4 17-11 22-20 4-8 6-23 6-46v-78c0-13-2-21-5-24-4-3-9-5-16-5h-7v-5h69v5zm117 98v56c0 13 1 21 5 24 4 4 9 5 15 5h8v5h-83v-5h7c8 0 13-2 16-6s4-12 4-23v-125c0-13-2-21-5-24-4-3-9-5-15-5h-7v-5h71c26 0 46 5 58 15 12 11 18 23 18 38 0 17-5 30-16 39-11 10-25 15-44 15-9 0-20-2-32-4zm0-89v81c10 2 18 3 23 3 12 0 21-5 27-13 6-9 10-18 10-29 0-14-4-25-12-33s-18-12-30-12c-4 0-11 1-18 3zm339 184h-76v-5c13-1 19-5 19-12 0-4-1-11-5-20l-12-28h-75l-13 31c-3 7-5 13-5 16 0 7 8 12 23 13v5h-61v-5c7-2 12-4 16-6 3-3 9-12 15-28l68-159h5l68 161c5 11 9 19 13 24 5 4 11 7 20 8v5zm-78-76l-33-78-33 78h66z"/><path class="fil1" d="M3156 5509h-8c-2 7-8 66-7 71 10 0 9-5 13-10 12 0 23 23 65 22 81-1 98-116 24-150-35-16-74-18-75-57 0-13 4-25 11-33 23-26 60-20 81 20 3 6 5 10 7 16 3 9 0 13 10 11 1-11-3-61-7-66-8 0-6 6-13 4-6-2-24-17-54-13-26 5-39 21-49 38-12 20-15 48-4 70 19 37 82 32 106 69 14 21 11 53-6 66-20 14-45 15-66 1-24-18-25-37-28-59z"/><path class="fil1" d="M2972 5614c3 6 17 25 22 29 21 18 20 21 48 42 94 71 232 72 325 10 50-34 94-90 111-171 9-42 11-86 11-131 0-26 4-117-9-133 7 76 9 186-8 259-34 152-173 238-332 204-47-10-82-30-115-57l-36-33c-3-4-5-5-8-9l-7-9c-1 0-1 0-1-1h-1z"/><path class="fil1" d="M2968 5504c-7-30-14-30-17-79-2-29 2-61 12-85 6-14 11-19 21-26 27-20 83-23 119-27 94-10 181-6 274 8 32 4 52 6 75 23-8-23-44-27-70-31-123-19-248-21-370 3-63 13-69 77-65 134 2 21 6 43 13 62 3 6 6 12 8 18z"/></g></g></svg>