<svg xmlns="http://www.w3.org/2000/svg" width="260" height="260" viewBox="-34.664 -31.729 260 260" overflow="visible"><path fill-rule="evenodd" clip-rule="evenodd" fill="#FFF" d="M169.9 46.454L95.27 3.02c-1.53-.892-2.564-.857-3.938-.01L88.79 4.58c-2.108 1.3-2.98 1.92-2.982 4.985l-.048 93.944c-.002 3.936 2.404 8.565 5.347 10.274l74.68 43.36c1.52.88 2.737.796 4.092-.048l3.046-1.894c1.778-1.107 2.325-2.14 2.325-4.605v-93.87c0-3.937-2.406-8.562-5.35-10.274z"/><path fill-rule="evenodd" clip-rule="evenodd" fill="#B3B4B4" d="M168.715 48.503L94.082 5.07c-.396-.232-.664-.344-.832-.343-.145 0-.364.1-.678.296l-2.542 1.57c-.8.495-1.36.85-1.577 1.163-.195.284-.283.808-.283 1.81l-.048 93.944c0 1.574.502 3.327 1.31 4.882.775 1.49 1.79 2.725 2.86 3.344l74.68 43.36c.37.216.65.313.865.31.202-.005.462-.116.787-.318l3.047-1.894c.518-.32.83-.584.97-.857.17-.335.235-.883.235-1.736V56.73c0-1.586-.498-3.338-1.3-4.88-.776-1.49-1.79-2.726-2.86-3.347zM96.455.97l74.633 43.436c1.873 1.09 3.53 3.022 4.694 5.257 1.135 2.182 1.84 4.714 1.84 7.067v93.87c0 1.614-.21 2.815-.755 3.888-.58 1.136-1.43 1.944-2.692 2.73l-3.048 1.894c-1.028.64-2.056.994-3.18 1.022-1.112.027-2.2-.272-3.35-.938l-74.68-43.36c-1.873-1.087-3.532-3.02-4.694-5.255-1.13-2.17-1.83-4.702-1.83-7.067L83.44 9.57c.004-2.063.35-3.383 1.12-4.5.747-1.084 1.68-1.69 2.986-2.5L90.086 1c1.06-.653 2.044-.995 3.144-1 1.073-.006 2.09.312 3.225.97z"/><path fill-rule="evenodd" clip-rule="evenodd" fill="#F6F6F6" d="M169.9 46.454L95.26 3.044c-1.828-1.062-3.007-.576-4.23.17l-3.41 2.02 1.96 2.647 13.394 81.99c.636 3.89 2.824 7.995 5.347 10.276l59.51 53.843 1.793 3.29 2.61-1.624c2.074-1.29 3.017-2.357 3.017-5.034V56.73c-.002-3.94-2.407-8.565-5.35-10.276z"/><path fill-rule="evenodd" clip-rule="evenodd" fill="#B3B4B4" d="M169.753 46.71L95.11 3.3c-.853-.494-1.544-.63-2.16-.555-.62.076-1.187.367-1.767.723l-.003.002-3.13 1.853 1.767 2.384.054.13 13.396 81.988c.31 1.892.994 3.84 1.91 5.597.93 1.79 2.098 3.38 3.344 4.506l59.51 53.842.06.08 1.642 3.014 2.345-1.456c1.004-.625 1.73-1.19 2.195-1.91.463-.71.682-1.597.682-2.875V56.73c0-1.924-.59-4.017-1.537-5.84-.946-1.813-2.243-3.355-3.664-4.18zM95.406 2.79l74.644 43.408c1.52.884 2.898 2.51 3.89 4.42.99 1.903 1.605 4.094 1.605 6.11v93.893c0 1.4-.25 2.387-.78 3.2-.522.806-1.306 1.42-2.378 2.088l-2.61 1.624-.266.165-.147-.274-1.768-3.247-59.473-53.81c-1.3-1.175-2.513-2.82-3.472-4.67-.94-1.808-1.648-3.817-1.97-5.775L89.3 8l-1.92-2.59-.194-.264.283-.167 3.41-2.02c.64-.394 1.27-.718 2-.806.736-.088 1.55.065 2.525.634z"/><path fill-rule="evenodd" clip-rule="evenodd" fill="#FFF" d="M165.785 48.953l-74.68-43.43c-2.943-1.713-5.348.107-5.348 4.045v93.942c0 3.938 2.406 8.566 5.347 10.276l74.68 43.43c2.943 1.712 5.348-.107 5.348-4.046V59.23c0-3.94-2.404-8.566-5.347-10.277z"/><path fill-rule="evenodd" clip-rule="evenodd" fill="#B3B4B4" d="M165.637 49.21L90.957 5.776c-.704-.41-1.37-.602-1.97-.602-.473 0-.905.12-1.28.35-.38.233-.71.582-.973 1.032-.432.743-.68 1.763-.68 3.01v93.943c0 1.92.588 4.014 1.537 5.837.947 1.815 2.244 3.355 3.663 4.183l74.68 43.432c.704.41 1.37.603 1.97.603.474 0 .905-.12 1.28-.352.382-.232.712-.58.973-1.03.433-.743.68-1.763.68-3.012V59.23c0-1.923-.59-4.017-1.537-5.84-.945-1.815-2.24-3.356-3.66-4.18zM91.253 5.266l74.68 43.43c1.522.885 2.9 2.513 3.893 4.422.99 1.9 1.604 4.092 1.604 6.11v93.94c0 1.355-.277 2.477-.762 3.31-.31.536-.71.954-1.176 1.24a3.017 3.017 0 0 1-1.588.437c-.7 0-1.468-.22-2.267-.683l-74.68-43.433c-1.52-.883-2.898-2.51-3.89-4.42-.99-1.9-1.606-4.093-1.606-6.11V9.567c0-1.354.28-2.475.764-3.308.312-.536.71-.955 1.176-1.24a3.002 3.002 0 0 1 1.588-.438c.7 0 1.467.22 2.265.685z"/><path fill-rule="evenodd" clip-rule="evenodd" fill="#F6F6F6" d="M86.105 42.3v61.006c0 3.94 2.406 8.565 5.348 10.275l47.767 27.78V80.355c0-3.94-2.404-8.563-5.347-10.275L86.105 42.3z"/><path fill-rule="evenodd" clip-rule="evenodd" fill="#E4E4E4" d="M95.52 21.118l16.168 9.39a.292.292 0 0 1 .146.256h.002v20.394a.298.298 0 0 1-.464.247l-16.166-9.39a.295.295 0 0 1-.146-.257V21.363c0-.164.13-.296.296-.296.06 0 .12.02.165.05zm15.722 9.816l-15.59-9.056v19.71l15.59 9.055v-19.71z"/><path fill-rule="evenodd" clip-rule="evenodd" fill="#E4E4E4" d="M127.426 40.332l-15.59-9.054v19.71l15.59 9.054v-19.71zm-15.738-9.825l16.166 9.39c.1.048.167.15.167.266v20.394a.296.296 0 0 1-.444.256l-16.165-9.39a.297.297 0 0 1-.166-.266V30.764h.002a.295.295 0 0 1 .443-.257zM159.795 59.13l-15.59-9.053v19.71l15.59 9.054V59.13zm-15.738-9.824l16.166 9.39c.1.05.166.15.166.266v20.395h-.003a.295.295 0 0 1-.444.255l-16.166-9.39a.292.292 0 0 1-.166-.266V49.562h.003a.275.275 0 0 1 .04-.148c.08-.142.26-.19.403-.108z"/><path fill-rule="evenodd" clip-rule="evenodd" fill="#E4E4E4" d="M127.89 39.917l16.167 9.39a.296.296 0 0 1 .147.256v20.394a.296.296 0 0 1-.463.245l-16.164-9.39a.296.296 0 0 1-.148-.256V40.162a.297.297 0 0 1 .463-.245zm15.72 9.814l-15.59-9.053v19.71l15.59 9.056v-19.71zM95.652 61.982l15.59 9.056v-19.71l-15.59-9.056v19.71zm15.74 9.825l-16.167-9.39a.29.29 0 0 1-.166-.266V41.76a.295.295 0 0 1 .444-.255l16.165 9.39c.1.05.165.15.165.267v20.393h-.002a.26.26 0 0 1-.04.148.294.294 0 0 1-.403.107z"/><path fill-rule="evenodd" clip-rule="evenodd" fill="#E4E4E4" d="M127.558 81.195l-16.167-9.39a.292.292 0 0 1-.144-.255h-.002V51.157c0-.163.134-.297.297-.297.063 0 .12.02.168.053l16.165 9.39a.29.29 0 0 1 .15.253v20.396a.298.298 0 0 1-.3.296.286.286 0 0 1-.164-.053zm-15.722-9.814l15.59 9.058v-19.71l-15.59-9.056v19.71zM159.926 99.995l-16.166-9.39a.293.293 0 0 1-.146-.255h-.002V69.956a.297.297 0 0 1 .462-.247l16.166 9.39a.292.292 0 0 1 .148.255V99.75a.295.295 0 0 1-.462.245zm-15.72-9.814l15.59 9.056v-19.71l-15.59-9.054v19.71z"/><path fill-rule="evenodd" clip-rule="evenodd" fill="#E4E4E4" d="M128.02 80.78l15.592 9.056v-19.71l-15.59-9.056v19.71zm15.74 9.825l-16.166-9.39a.29.29 0 0 1-.168-.265V60.556c0-.05.014-.1.042-.148a.294.294 0 0 1 .403-.105l16.17 9.388c.1.05.166.15.166.27v20.394a.297.297 0 0 1-.445.252zM95.8 102.685l15.294 8.884V92.2L95.8 83.318v19.368zm15.516 10.038l-16.158-9.384a.447.447 0 0 1-.248-.4V82.545a.447.447 0 0 1 .668-.384l16.158 9.384a.448.448 0 0 1 .248.4v20.394h-.002a.442.442 0 0 1-.666.382z"/><path fill-rule="evenodd" clip-rule="evenodd" fill="#E4E4E4" d="M127.475 122.106l-16.158-9.384a.444.444 0 0 1-.22-.383h-.003V91.943a.445.445 0 0 1 .695-.367l16.154 9.383a.447.447 0 0 1 .223.385v20.395c0 .245-.2.445-.445.445a.434.434 0 0 1-.248-.08zm-15.49-10.022l15.293 8.883V101.6l-15.294-8.883v19.367zM159.926 140.783l-16.166-9.39a.292.292 0 0 1-.146-.256h-.002v-20.395a.296.296 0 0 1 .462-.246l16.166 9.39a.295.295 0 0 1 .148.257v20.395a.295.295 0 0 1-.462.245zm-15.72-9.814l15.59 9.053v-19.71l-15.59-9.056v19.71z"/><path fill-rule="evenodd" clip-rule="evenodd" fill="#E4E4E4" d="M128.02 121.568l15.592 9.055v-19.708l-15.59-9.056v19.707zm15.74 9.826l-16.166-9.39a.292.292 0 0 1-.168-.265v-20.397c0-.05.014-.102.042-.148a.295.295 0 0 1 .403-.107l16.17 9.388c.1.05.166.15.166.266v20.395a.297.297 0 0 1-.445.254zM95.604 61.783l16.157 9.384a.44.44 0 0 1 .223.384h.002v20.397a.445.445 0 0 1-.695.37L95.132 82.93a.44.44 0 0 1-.222-.384V62.15a.446.446 0 0 1 .695-.367zm15.49 10.023L95.8 62.924V82.29l15.294 8.885v-19.37z"/><path fill-rule="evenodd" clip-rule="evenodd" fill="#E4E4E4" d="M127.278 81.206l-15.294-8.884v19.37l15.294 8.88V81.207zm-15.516-10.04l16.158 9.385a.45.45 0 0 1 .248.4v20.396a.442.442 0 0 1-.666.383l-16.158-9.384a.45.45 0 0 1-.25-.4V71.552h.002a.444.444 0 0 1 .666-.382zM159.795 99.92l-15.59-9.056v19.71l15.59 9.055V99.92zm-15.738-9.825l16.166 9.39a.29.29 0 0 1 .166.265v20.395h-.003a.295.295 0 0 1-.444.255l-16.166-9.39a.292.292 0 0 1-.166-.267V90.35h.003a.27.27 0 0 1 .04-.147c.08-.142.26-.19.403-.108z"/><path fill-rule="evenodd" clip-rule="evenodd" fill="#E4E4E4" d="M127.89 80.705l16.167 9.39a.295.295 0 0 1 .147.256v20.395a.297.297 0 0 1-.463.248l-16.164-9.39a.3.3 0 0 1-.148-.257V80.95a.296.296 0 0 1 .463-.246zm15.72 9.814l-15.59-9.056v19.71l15.59 9.055V90.52z"/><path fill-rule="evenodd" clip-rule="evenodd" fill="#E94C6D" d="M159.098 57.494a1.773 1.773 0 0 1 1.99 2.935L144.9 71.42a1.772 1.772 0 0 1-1.883.067l-.003.002-15.225-8.843-15.26 10.367a1.772 1.772 0 0 1-1.988-2.934l16.087-10.928a1.78 1.78 0 0 1 1.984-.137l15.223 8.84L159.1 57.49z"/><path fill-rule="evenodd" clip-rule="evenodd" fill="#FFF" d="M121.106 74.34L46.473 30.907c-1.334-.777-2.557-.828-3.496-.283l-3.72 2.297.006.014c-1.36.51-2.253 2.122-2.253 4.52l-.048 93.945c0 3.937 2.404 8.566 5.347 10.273l74.68 43.36c1.487.864 2.84.828 3.81.068l.024.044 3.577-2.224c.14-.066.27-.144.4-.234h.003c1.014-.717 1.648-2.18 1.648-4.2v-93.87c0-3.94-2.403-8.564-5.345-10.276z"/><path fill-rule="evenodd" clip-rule="evenodd" fill="#B3B4B4" d="M119.92 76.39L45.287 32.955c-.338-.197-.628-.3-.863-.32a.457.457 0 0 0-.262.037l-.05.027-3.393 2.094a2.38 2.38 0 0 1-.655.363c-.11.05-.226.197-.34.425-.226.452-.355 1.08-.355 1.868l-.046 93.946c0 1.572.502 3.326 1.31 4.88.776 1.49 1.79 2.726 2.86 3.346l74.68 43.36c.375.218.683.324.914.328a.396.396 0 0 0 .257-.072c.19-.15.4-.27.62-.35l3.184-1.98c.08-.05.16-.095.246-.135l.094-.066c.118-.104.23-.285.327-.535.168-.426.26-.99.26-1.686v-93.87c0-1.586-.498-3.338-1.302-4.88-.772-1.49-1.788-2.726-2.855-3.347zM47.66 28.857l74.632 43.433c1.873 1.09 3.53 3.023 4.694 5.258 1.136 2.182 1.84 4.714 1.84 7.067v93.87c0 1.288-.212 2.436-.595 3.41-.457 1.172-1.164 2.095-2.062 2.727v-.002c-.128.09-.253.17-.374.24l-.002-.002a6.926 6.926 0 0 1-.18.1l-3.534 2.197-.13.074a2.556 2.556 0 0 1-.25.115c-.8.472-1.702.71-2.68.692-1.04-.02-2.128-.328-3.215-.96L41.12 143.72c-1.872-1.086-3.53-3.02-4.693-5.255-1.13-2.17-1.832-4.703-1.83-7.068l.048-93.945c0-1.566.304-2.914.837-3.982.604-1.215 1.502-2.104 2.615-2.61l3.53-2.18c.052-.038.105-.072.16-.105a5.1 5.1 0 0 1 3.006-.666c.927.07 1.895.382 2.867.947z"/><path fill-rule="evenodd" clip-rule="evenodd" fill="#F6F6F6" d="M121.106 74.34L46.463 30.93c-1.83-1.062-3.008-.577-4.23.17l-3.41 2.02 1.96 2.647 13.395 81.99c.634 3.885 2.823 7.99 5.346 10.274l59.51 53.844 1.793 3.292 2.61-1.624c2.075-1.29 3.018-2.357 3.018-5.034v-93.89c-.002-3.94-2.407-8.566-5.35-10.276z"/><path fill-rule="evenodd" clip-rule="evenodd" fill="#B3B4B4" d="M120.958 74.596l-74.644-43.41c-.852-.493-1.545-.63-2.16-.555-.62.077-1.188.37-1.768.725l-.003.002-3.128 1.853 1.764 2.383.053.128 13.395 81.99c.308 1.89.993 3.84 1.907 5.6.932 1.79 2.1 3.378 3.344 4.506l59.51 53.842.063.077 1.64 3.016 2.345-1.456c1.003-.623 1.73-1.19 2.195-1.908.463-.71.683-1.598.683-2.876V84.614c0-1.922-.59-4.016-1.538-5.838-.946-1.815-2.242-3.356-3.662-4.18zM46.61 30.676l74.644 43.407c1.52.885 2.897 2.513 3.89 4.42.99 1.903 1.605 4.095 1.605 6.112v93.892c0 1.398-.253 2.385-.78 3.198-.523.806-1.307 1.422-2.38 2.09l-2.61 1.622-.267.164-.15-.272-1.765-3.247-59.476-53.81c-1.3-1.175-2.512-2.82-3.473-4.67-.94-1.81-1.648-3.82-1.967-5.775l-13.38-81.92-1.918-2.59-.196-.262.28-.167 3.41-2.02c.64-.393 1.276-.717 2.003-.805.736-.086 1.55.067 2.527.636z"/><path fill-rule="evenodd" clip-rule="evenodd" fill="#FFF" d="M116.988 76.84l-74.68-43.43c-2.942-1.714-5.347.106-5.347 4.046v93.94c0 3.94 2.407 8.565 5.35 10.275l74.68 43.434c2.942 1.71 5.35-.107 5.35-4.046V87.115c0-3.94-2.407-8.565-5.35-10.275z"/><path fill-rule="evenodd" clip-rule="evenodd" fill="#B3B4B4" d="M116.287 77.096L42.122 33.664c-.698-.41-1.36-.604-1.955-.604-.47 0-.898.122-1.272.352-.378.233-.705.58-.965 1.03-.43.743-.676 1.764-.676 3.014v93.94c0 1.922.584 4.015 1.527 5.838.94 1.815 2.228 3.357 3.638 4.183l74.165 43.43c.698.41 1.36.604 1.956.604.47 0 .896-.12 1.27-.35.38-.232.705-.58.966-1.03.43-.743.675-1.762.675-3.01V87.114c0-1.923-.583-4.016-1.525-5.84-.94-1.813-2.226-3.354-3.637-4.18zm-73.87-43.944l74.165 43.43c1.51.886 2.877 2.513 3.863 4.42.984 1.904 1.595 4.095 1.595 6.113v93.942c0 1.354-.276 2.475-.757 3.308-.31.537-.707.954-1.168 1.238-.468.288-1 .44-1.577.44-.695 0-1.46-.22-2.25-.684L42.12 141.925c-1.51-.884-2.877-2.513-3.864-4.42-.982-1.902-1.594-4.094-1.594-6.11v-93.94c0-1.356.277-2.48.756-3.312.31-.535.706-.954 1.17-1.238a2.96 2.96 0 0 1 1.577-.44c.694 0 1.457.22 2.25.685z"/><path fill-rule="evenodd" clip-rule="evenodd" fill="#F6F6F6" d="M37.328 105.105v26.116c0 3.94 2.405 8.566 5.347 10.276l61.88 35.987v-78.84c0-2.436-1.283-5.178-2.85-6.094l-3.45-2.015c-1.087-.635-2.095-1.02-4.52.28l-6.352 3.405c-.72.386-1.19 1.423-1.19 2.896v16.56c-.494-1.613-1.417-3.05-2.47-3.664l-3.127-1.826c-1.772-1.035-2.282-1.327-4.683-.03l-6.516 3.53c-.867.256-1.456 1.36-1.456 3.01v12.857c-.49-.922-1.124-1.67-1.81-2.072l-3.363-1.963c-1.627-.95-2.12-1.226-4.206-.078l-8.436 4.61v-16.12c0-2.438-1.283-5.18-2.852-6.096l-3.18-1.856c-1.882-1.1-2.128-1.417-4.22-.27l-2.542 1.398z"/><path fill-rule="evenodd" clip-rule="evenodd" fill="#FFF" d="M14.528 123.272l6.097 3.536v-10.746c0-1.68.61-2.793 1.502-3.02l6.933-3.805c2.092-1.15 2.337-.83 4.22.27l3.18 1.855c1.568.916 2.852 3.658 2.852 6.094v16.122l8.436-4.61c2.088-1.15 2.58-.873 4.207.078l3.365 1.964c.685.4 1.316 1.15 1.81 2.072v-12.858c0-1.65.59-2.753 1.457-3.01l6.517-3.527c2.398-1.3 2.91-1.007 4.682.027l3.127 1.827c1.053.615 1.976 2.053 2.47 3.667v-16.56c0-1.476.47-2.513 1.19-2.898l6.352-3.405c2.424-1.3 3.432-.916 4.52-.28l3.45 2.014c1.566.915 2.85 3.656 2.85 6.09v83.248c0 1.466-.465 2.498-1.177 2.89l-7.91 4.35c-.5.38-1.15.41-1.86-.006l-4.563-2.663c-1.567-.917-2.853-3.658-2.853-6.095v-7.43l-8.9 5.667a1.586 1.586 0 0 1-.374.236c-.45.198-.987.153-1.563-.183l-4.562-2.665c-1.566-.914-2.85-3.656-2.85-6.092v-6.886l-8.995 5.193c-.095.07-.192.127-.297.172-.445.19-.98.143-1.545-.19l-4.562-2.663c-1.565-.914-2.85-3.657-2.85-6.093v-6.97l-9.116 5.357c-.48.29-1.08.28-1.723-.097l-4.562-2.665c-1.565-.915-2.85-3.657-2.85-6.094v-6.883l-9.005 5.198a1.445 1.445 0 0 1-.28.16c-.448.197-.983.15-1.555-.182L5.23 150.12c-1.564-.916-2.852-3.658-2.852-6.095v-14.238c0-1.468.466-2.5 1.18-2.893l.023-.013 6.694-3.59c2.163-1.16 2.663-.94 4.255-.017z"/><path fill-rule="evenodd" clip-rule="evenodd" fill="#2EBCE3" d="M15.715 121.223l2.537 1.472v-6.632c0-1.2.238-2.25.653-3.084a1.8 1.8 0 0 1 .094-.174c.51-.934 1.246-1.596 2.15-1.933l6.77-3.713c3.132-1.72 3.69-1.39 6.204.096.04.024.084.05.12.077l.226.132.007-.007 3.178 1.856c1.202.702 2.246 2 2.96 3.524.66 1.41 1.07 3.062 1.07 4.618v12.13l4.925-2.69-.003-.005c1.483-.814 2.497-1.115 3.593-1.033 1.134.086 1.853.5 2.95 1.142l1.605.937v-7.71c0-1.17.23-2.203.63-3.03.504-1.04 1.273-1.778 2.23-2.147l6.363-3.447c1.618-.877 2.697-1.21 3.838-1.14 1.224.076 1.984.518 3.16 1.204l2.03 1.185v-10.204c0-1.025.18-1.95.5-2.728.367-.898.933-1.604 1.647-2.074.15-.113.314-.207.49-.28l6.164-3.306c1.608-.862 2.84-1.165 3.91-1.146 1.256.023 2.084.415 2.918.9l3.45 2.015c1.2.7 2.244 2 2.958 3.522.66 1.41 1.07 3.063 1.07 4.617v83.246c0 1.027-.176 1.947-.486 2.71-.38.935-.97 1.66-1.717 2.133a2.27 2.27 0 0 1-.334.193l-7.74 4.255a3.705 3.705 0 0 1-2.055.605h-.06a4.328 4.328 0 0 1-2.125-.616l-4.562-2.665c-1.2-.702-2.246-2-2.96-3.524-.66-1.41-1.07-3.06-1.07-4.617v-3.117l-5.12 3.26c-.107.084-.21.158-.31.223l-.01.007v.003a3.43 3.43 0 0 1-.413.217l-.098.047.004.006a3.76 3.76 0 0 1-1.972.292 4.46 4.46 0 0 1-1.732-.596l-.005-.003-.003.003-4.563-2.665c-1.2-.7-2.243-2-2.957-3.523-.66-1.41-1.07-3.063-1.07-4.618v-2.788l-5.324 3.074a4.336 4.336 0 0 1-.257.16l.002.004a3.763 3.763 0 0 1-2.36.482l-.007-.002v.002a4.452 4.452 0 0 1-1.705-.595l-.008-.004-.002.005-4.562-2.664c-1.2-.7-2.243-2-2.957-3.524-.66-1.408-1.07-3.062-1.07-4.616v-2.832l-5.52 3.244.002.006a3.72 3.72 0 0 1-2.168.534 4.392 4.392 0 0 1-1.974-.612l-4.562-2.664c-1.2-.7-2.245-2-2.96-3.525-.657-1.41-1.07-3.06-1.07-4.616v-2.78l-5.35 3.09a2.992 2.992 0 0 1-.372.22c-.08.043-.158.08-.23.113-.066.027-.134.055-.202.077a3.764 3.764 0 0 1-1.777.213l-.1-.014a4.532 4.532 0 0 1-1.62-.58l-.007-.005-.003.006-4.563-2.664c-1.2-.702-2.245-2-2.958-3.525-.66-1.412-1.07-3.066-1.07-4.62V129.79c0-1.032.175-1.95.485-2.713.39-.954.998-1.69 1.774-2.164v-.004c.105-.073.217-.135.33-.188l6.557-3.518c1.482-.795 2.486-1.114 3.56-1.07 1.153.05 1.9.446 3.007 1.088zm3.723 7.633l-6.096-3.536c-.487-.282-.788-.456-.82-.457-.117-.005-.447.148-1.13.515l-6.518 3.497c-.08.21-.128.517-.128.914v14.236c0 .88.232 1.815.606 2.613.32.684.702 1.217 1.067 1.43l4.31 2.517 8.563-4.946a2.373 2.373 0 0 1 3.703 1.967v6.885c0 .88.232 1.816.605 2.614.32.686.704 1.218 1.07 1.43l4.317 2.522 8.508-5.002c.39-.277.865-.44 1.38-.44a2.37 2.37 0 0 1 2.372 2.373v6.97c0 .88.232 1.817.606 2.615.32.685.7 1.216 1.067 1.43l4.313 2.52 8.518-4.917a2.374 2.374 0 0 1 3.75 1.933v6.886c0 .88.23 1.815.604 2.613.32.685.703 1.217 1.067 1.43l4.288 2.503 8.47-5.392a2.374 2.374 0 0 1 3.822 1.88v7.43c0 .883.23 1.818.605 2.618.32.684.702 1.215 1.068 1.43l4.312 2.52 7.5-4.125c.08-.21.127-.517.127-.915v-83.25c0-.88-.23-1.817-.604-2.614-.32-.684-.702-1.216-1.068-1.43l-3.45-2.014c-.254-.148-.473-.268-.6-.27-.31-.007-.795.15-1.61.588l-6.16 3.3c-.075.2-.12.507-.12.916v16.56h-.01a2.366 2.366 0 0 1-4.627.687 6.122 6.122 0 0 0-.752-1.602l.007-.002-.005-.007c-.198-.296-.397-.524-.58-.65l-.07-.04-3.128-1.827c-.592-.347-.975-.568-1.048-.573-.157-.01-.536.16-1.315.584l-6.516 3.528-.097.05c-.07.196-.108.49-.108.873v12.858h-.01a2.362 2.362 0 0 1-4.45 1.11 4.483 4.483 0 0 0-.546-.807 1.598 1.598 0 0 0-.375-.328l-3.367-1.965c-.53-.31-.87-.508-.91-.512-.08-.005-.355.128-.96.46l-.003-.002-.006.003-8.255 4.513a2.37 2.37 0 0 1-3.686-1.974v-16.124c0-.88-.233-1.818-.606-2.616-.32-.682-.703-1.214-1.07-1.428l-3.18-1.857.006-.007-.005-.002-.234-.138a2.457 2.457 0 0 1-.135-.072c-.61-.362-.747-.442-1.515-.02l-6.932 3.803-.003-.007c-.05.027-.103.054-.154.078-.07.2-.11.49-.11.87v10.748h-.006c0 .402-.103.81-.32 1.186a2.362 2.362 0 0 1-3.232.86z"/><path fill-rule="evenodd" clip-rule="evenodd" fill="#EAF2F7" d="M14.528 123.272l8.016 4.65c1.528.885 2.726-.37 2.792 2.014l1.582 1.382-4.79-18.277 6.932-3.8c2.092-1.15 2.337-.83 4.22.27l3.18 1.854c1.568.916 2.852 3.658 2.852 6.094v16.122l8.436-4.612c2.088-1.148 2.58-.872 4.207.08l3.365 1.963c1.172.687 2.187 2.395 2.623 4.23l6.493 4.167-5.85-22.19 6.517-3.527c2.398-1.3 2.91-1.008 4.682.026l3.127 1.827c1.568.914 2.85 3.66 2.85 6.093v.613l3.803 2.99-2.995-25.49 6.352-3.406c2.424-1.3 3.432-.915 4.52-.28l3.45 2.015c1.566.914 2.85 3.655 2.85 6.09v83.247c0 1.466-.465 2.498-1.177 2.89l-7.91 4.35-4.135-16.173-1.598-3.34c-.33.5-1.164 2.15-1.695 2.142l-11.123 7.08L65.946 169l-5.12-2.592c-.336.524-.81.807-1.362.787l-11.627 6.714-4.2-16.218 2.89 3.88c-.37.668-3.697-5.43-4.36-5.515l-12.403 7.29-4.558-15.957-2.85 1.648c-.344.543.954-2.626.388-2.652l-11.4 6.583-7.79-26.073 6.72-3.604c2.162-1.164 2.662-.946 4.254-.022z"/><path fill-rule="evenodd" clip-rule="evenodd" fill="#2EBCE3" d="M14.676 123.016l8.016 4.65c.494.285.97.323 1.367.354h.01c.884.07 1.48.124 1.557 1.776l.762.667-4.55-17.35a.298.298 0 0 1 .146-.332l6.932-3.803c2.098-1.15 2.47-.932 4.152.062l.017.01.342.202 3.177 1.856c.837.488 1.592 1.45 2.133 2.606.535 1.144.867 2.483.867 3.743v15.622l7.998-4.37h-.002c1.1-.606 1.79-.834 2.44-.785.657.05 1.21.37 2.06.865l3.364 1.964c.62.362 1.192.983 1.667 1.75a9.05 9.05 0 0 1 1.065 2.55l5.752 3.692L58.3 117.29a.297.297 0 0 1 .146-.336h.002l.006-.004 6.51-3.525c1.252-.68 2.023-.94 2.733-.896.72.042 1.315.39 2.236.926l3.13 1.826c.835.488 1.59 1.45 2.13 2.607.536 1.143.867 2.482.867 3.74v.47l3.128 2.464-2.91-24.785a.293.293 0 0 1 .176-.305l6.33-3.396c1.263-.677 2.168-.915 2.906-.9.76.013 1.322.285 1.902.624l3.45 2.014c.835.487 1.59 1.45 2.13 2.606.536 1.143.867 2.482.867 3.74v83.248c0 .756-.12 1.41-.333 1.93-.228.56-.564.973-.976 1.207a.352.352 0 0 1-.04.023l-7.893 4.34a.296.296 0 0 1-.43-.187L80.24 178.58l-1.346-2.818c-.41.694-1.01 1.698-1.564 1.807l-11.066 7.043a.29.29 0 0 1-.408-.09.3.3 0 0 1-.046-.156l-.156-15.188-4.733-2.398c-.16.2-.344.36-.55.478h.003c-.25.147-.53.224-.827.23l-11.558 6.672a.296.296 0 0 1-.437-.192l-4.114-15.886c-.56-.84-1.045-1.537-1.24-1.7l-12.28 7.22a.298.298 0 0 1-.405-.105c-.012-.023-.02-.048-.03-.07l-4.45-15.594-2.466 1.424c-.124.16-.256.186-.41.095a.295.295 0 0 1-.12-.374c.02-.15.076-.335.142-.55.15-.485.367-1.182.413-1.61l-11.096 6.406a.295.295 0 0 1-.43-.17l-7.79-26.07a.3.3 0 0 1 .156-.353l6.706-3.6c1.132-.606 1.842-.854 2.494-.826.66.025 1.21.325 2.046.81zm7.72 5.16l-8.016-4.65c-.758-.438-1.254-.71-1.778-.73-.533-.022-1.158.203-2.19.757l-6.505 3.492 7.612 25.48 11.065-6.39a.3.3 0 0 1 .17-.045c.33.016.445.27.426.658-.02.444-.23 1.155-.397 1.698l2.252-1.298a.295.295 0 0 1 .454.16l4.452 15.59 12.075-7.097a.324.324 0 0 1 .188-.04c.31.043.855.74 1.477 1.64a.312.312 0 0 1 .194.115l.004.006.002.004 2.885 3.87c.07.096.074.22.02.317-.133.244-.33.277-.577.14-.373-.207-1.053-1.173-1.773-2.255l3.59 13.86 11.29-6.52c.048-.026.1-.04.16-.04.216.008.42-.043.6-.146.19-.11.358-.28.503-.503a.295.295 0 0 1 .383-.106l5.12 2.594a.29.29 0 0 1 .16.26l.155 14.837 10.676-6.795a.292.292 0 0 1 .163-.046c.25.004.808-.943 1.172-1.563.11-.185.203-.343.273-.448a.295.295 0 0 1 .513.036l1.587 3.32a.187.187 0 0 1 .03.073l4.04 15.802 7.566-4.16.01-.006c.303-.165.557-.48.734-.922.186-.45.288-1.03.288-1.708V104.17c0-1.175-.31-2.425-.808-3.49-.492-1.052-1.164-1.92-1.896-2.347l-3.448-2.014c-.508-.3-.994-.537-1.613-.55-.643-.01-1.455.21-2.617.833l-6.174 3.31 2.97 25.293a.282.282 0 0 1-.063.217.296.296 0 0 1-.416.05l-3.786-2.982a.3.3 0 0 1-.127-.242v-.614c0-1.176-.31-2.426-.81-3.49-.49-1.052-1.163-1.92-1.895-2.348l-3.127-1.825c-.85-.495-1.396-.814-1.974-.85-.587-.035-1.27.205-2.42.827l-6.31 3.416 5.79 21.965a.295.295 0 0 1-.445.325l-6.48-4.16a.29.29 0 0 1-.14-.187 8.565 8.565 0 0 0-1.02-2.494c-.426-.685-.93-1.233-1.465-1.547l-3.366-1.966c-.778-.45-1.284-.746-1.802-.785-.523-.04-1.124.168-2.113.71l-8.414 4.6a.297.297 0 0 1-.462-.246v-16.122c0-1.177-.31-2.427-.808-3.492-.493-1.05-1.165-1.918-1.896-2.346l-3.18-1.857-.345-.204-.017-.01c-1.445-.854-1.766-1.04-3.566-.054l-6.73 3.694 4.732 18.055a.307.307 0 0 1-.064.27.298.298 0 0 1-.417.026l-1.582-1.38a.298.298 0 0 1-.1-.214c-.034-1.254-.43-1.286-1.024-1.333h-.004c-.457-.037-1.002-.08-1.615-.435zm1.62.435h-.003.003zm34.435-11.657l.06-.022c-.02.007-.04.013-.058.023zM3.426 126.63l.045-.018a.192.192 0 0 0-.046.018z"/><path fill-rule="evenodd" clip-rule="evenodd" fill="#FFF" d="M5.225 127.026l4.562 2.664c1.567.916 2.853 3.663 2.853 6.094v14.238c0 2.43-1.288 3.676-2.853 2.763l-4.562-2.664c-1.564-.913-2.852-3.655-2.852-6.092V129.79c0-2.436 1.283-3.68 2.852-2.764zm73.006-27.14l4.564 2.664c1.568.914 2.852 3.656 2.852 6.092v83.246c0 2.436-1.283 3.678-2.852 2.763l-4.562-2.662c-1.566-.916-2.852-3.657-2.852-6.094v-83.246c0-2.435 1.286-3.678 2.853-2.762zM59.98 117.46l4.56 2.666c1.57.915 2.853 3.658 2.853 6.093v55.2c0 2.434-1.283 3.68-2.852 2.763l-4.56-2.665c-1.566-.915-2.85-3.657-2.85-6.093v-55.202c0-2.437 1.28-3.68 2.85-2.765zm-18.252 15.927l4.562 2.665c1.567.916 2.85 3.662 2.85 6.093v28.81c0 2.434-1.284 3.68-2.85 2.763l-4.562-2.664c-1.565-.914-2.852-3.657-2.852-6.093v-28.807c0-2.437 1.284-3.68 2.852-2.765zM23.478 113.3l4.56 2.664c1.57.915 2.852 3.66 2.852 6.092v38.433c0 2.43-1.285 3.675-2.852 2.76l-4.56-2.663c-1.567-.915-2.853-3.657-2.853-6.094v-38.43c0-2.438 1.282-3.68 2.852-2.765z"/><path fill-rule="evenodd" clip-rule="evenodd" fill="#2EBCE3" d="M5.373 126.77l4.562 2.665c.836.488 1.59 1.45 2.13 2.607.536 1.144.87 2.484.87 3.742v14.238c0 .962-.196 1.758-.53 2.33a2.2 2.2 0 0 1-.694.75 1.672 1.672 0 0 1-.93.278c-.36 0-.746-.11-1.143-.34l-4.562-2.665c-.834-.487-1.59-1.452-2.13-2.608-.534-1.144-.868-2.482-.868-3.74V129.79c0-.968.195-1.765.53-2.335.187-.322.42-.575.69-.75.28-.182.595-.276.93-.276.364 0 .75.107 1.147.34zm4.264 3.177l-4.562-2.665c-.3-.177-.587-.26-.847-.26-.222 0-.427.06-.607.178-.19.125-.36.31-.5.554-.284.482-.448 1.177-.448 2.035v14.236c0 1.175.312 2.425.81 3.49.493 1.053 1.164 1.92 1.895 2.347l4.562 2.664c.3.177.585.26.843.26.224 0 .43-.062.61-.182.192-.123.363-.31.506-.555.28-.48.446-1.174.446-2.028v-14.238c0-1.174-.31-2.425-.81-3.492-.493-1.05-1.165-1.92-1.896-2.345zM78.38 99.63l4.563 2.663c.836.487 1.59 1.45 2.13 2.607.535 1.142.868 2.482.868 3.74v83.247c0 .966-.193 1.764-.527 2.333a2.193 2.193 0 0 1-.69.75h-.003c-.28.183-.593.277-.93.277-.362 0-.75-.11-1.146-.343l-4.562-2.663c-.836-.486-1.59-1.45-2.133-2.605-.536-1.143-.868-2.482-.868-3.742v-83.246c0-.966.196-1.763.528-2.333.19-.32.424-.576.694-.75.28-.182.593-.278.93-.278.362 0 .75.112 1.147.344zm4.265 3.175l-4.562-2.665c-.303-.176-.59-.26-.848-.26a1.09 1.09 0 0 0-.607.18c-.19.122-.36.31-.504.552-.28.483-.447 1.178-.447 2.035v83.246c0 1.176.31 2.426.81 3.492.49 1.05 1.163 1.917 1.896 2.345l4.562 2.664c.3.178.588.26.847.26.222 0 .43-.06.61-.178.19-.125.36-.312.5-.553.28-.482.447-1.177.447-2.035v-83.246c0-1.176-.313-2.426-.81-3.49-.494-1.052-1.166-1.92-1.896-2.347zm-22.516 14.4l4.56 2.664c.836.486 1.59 1.45 2.13 2.605.536 1.143 1.2 2.723 1.2 3.98l.19 54.94c0 .964-.717 1.786-1.05 2.357l-.01.014a2.185 2.185 0 0 1-.683.736c-.28.182-.595.277-.932.277-.36 0-.75-.11-1.145-.343l-4.56-2.664c-.837-.487-1.59-1.45-2.132-2.608-.535-1.14-.867-2.48-.867-3.74v-55.202c0-.967.197-1.765.53-2.336a2.23 2.23 0 0 1 .69-.75c.28-.18.596-.276.93-.276.367 0 .75.113 1.15.345zm4.262 3.176l-4.562-2.662c-.302-.176-.587-.262-.847-.262-.22 0-.427.063-.607.18-.19.123-.36.31-.502.554-.283.482-.447 1.176-.447 2.035v55.202c0 1.175.31 2.425.807 3.49.492 1.053 1.164 1.92 1.896 2.347l4.562 2.664c.3.177.587.26.846.26.223 0 .428-.06.61-.18.187-.12.354-.303.493-.54l.01-.014c.28-.483 1.063-1.264 1.063-2.12l-.28-54.876c0-1.175-.646-2.664-1.144-3.73-.493-1.052-1.164-1.92-1.896-2.347zm-22.516 12.75l4.562 2.667c.835.488 1.59 1.45 2.13 2.607.535 1.144.867 2.484.867 3.74v28.812c0 .964-.195 1.76-.528 2.332-.19.32-.424.576-.695.75l-.008.006c-.277.178-.59.272-.922.272-.362 0-.748-.11-1.145-.342l-4.562-2.664c-.836-.49-1.59-1.452-2.13-2.61-.535-1.143-.87-2.48-.87-3.74v-28.81c0-.966.197-1.764.53-2.333.188-.322.422-.576.692-.75.28-.183.594-.278.93-.278.364 0 .75.11 1.147.34zm4.264 3.18l-4.56-2.665c-.304-.177-.59-.26-.85-.26-.222 0-.427.06-.606.18-.19.122-.36.31-.503.553-.28.482-.446 1.176-.446 2.035v28.81c0 1.175.31 2.425.81 3.49.492 1.05 1.165 1.92 1.896 2.346l4.56 2.663c.302.176.587.26.847.26a1.1 1.1 0 0 0 .6-.174l.01-.007c.19-.123.36-.31.502-.554.28-.484.445-1.177.445-2.033v-28.81c0-1.175-.31-2.425-.81-3.492-.492-1.05-1.165-1.92-1.895-2.346zm-22.515-23.266l4.562 2.664c.835.488 1.59 1.45 2.132 2.607.532 1.144.864 2.484.864 3.74v38.434c0 .962-.195 1.76-.527 2.33-.19.32-.424.576-.695.752-.28.18-.594.277-.932.277-.36 0-.746-.11-1.142-.34l-4.562-2.666c-.835-.488-1.59-1.45-2.132-2.608-.535-1.143-.867-2.48-.867-3.74V116.06c0-.967.195-1.765.528-2.335.188-.32.423-.575.692-.75h.002a1.66 1.66 0 0 1 .926-.276c.365 0 .752.11 1.148.342zm4.264 3.177l-4.564-2.663c-.302-.177-.59-.262-.85-.262a1.1 1.1 0 0 0-.607.18c-.19.123-.36.31-.5.553-.284.483-.45 1.177-.45 2.036v38.43c0 1.176.312 2.427.81 3.492.492 1.052 1.164 1.92 1.895 2.346l4.562 2.666c.3.176.586.26.844.26.224 0 .43-.063.61-.18.19-.125.363-.312.505-.556.28-.482.447-1.177.447-2.03v-38.434c0-1.175-.31-2.425-.81-3.49-.49-1.05-1.163-1.92-1.894-2.346z"/><path fill-rule="evenodd" clip-rule="evenodd" fill="#B3B4B4" d="M105.928 88.48a.443.443 0 1 1-.442.768L49.818 57.11a.442.442 0 1 1 .44-.767l55.67 32.137zM72.768 86.155c.212.12.285.394.164.604a.444.444 0 0 1-.605.16l-22.51-12.99a.443.443 0 0 1 .442-.77l22.508 12.996zM60.535 95.45a.444.444 0 1 1-.445.766l-10.272-5.932a.443.443 0 0 1-.162-.605.443.443 0 0 1 .606-.165l10.273 5.933z"/><path fill-rule="evenodd" clip-rule="evenodd" fill="#E94C6D" d="M160.093 53.788c2.023 1.146 3.662 4.39 3.662 7.247s-1.64 4.244-3.662 3.1c-2.022-1.146-3.663-4.39-3.663-7.248 0-2.856 1.64-4.243 3.663-3.1zM143.908 64.784c2.023 1.145 3.662 4.39 3.662 7.246 0 2.856-1.64 4.244-3.662 3.1-2.023-1.146-3.663-4.39-3.663-7.248 0-2.857 1.64-4.245 3.663-3.098zM127.723 55.383c2.023 1.146 3.663 4.39 3.663 7.247s-1.64 4.244-3.663 3.1c-2.02-1.146-3.662-4.39-3.662-7.247 0-2.856 1.64-4.245 3.664-3.1z"/></svg>