<svg xmlns="http://www.w3.org/2000/svg" width="260" height="260" viewBox="-41.751 -11.282 260 260" overflow="visible"><path fill="#FEFEFE" d="M58.105 3.37l74.677 42.777c4.787 2.742 8.71 10.175 8.71 16.527v75.69c0 3.468-1.168 5.925-3.007 6.997l-.008.007h-.005l-4.275 2.972c-1.6 1.43-3.903 1.59-6.452.125l-75.325-43.3c-4.783-2.75-8.71-10.17-8.71-16.526V12.915c0-3.494 1.187-5.964 3.05-7.024l.026-.013c.09-.05.178-.098.27-.14l4.667-2.427c2.336-1.216 3.83-1.404 6.382.057z"/><path fill="#B2B3B3" d="M59.27 1.336l74.676 42.775c2.786 1.597 5.283 4.488 7.062 7.86 1.746 3.315 2.833 7.15 2.833 10.704v75.69c0 2.025-.35 3.796-.975 5.255-.702 1.63-1.756 2.882-3.074 3.69l-4.21 2.924a6.722 6.722 0 0 1-4.27 1.593h-.016c-1.484.028-3.083-.4-4.714-1.337l-75.325-43.3c-2.79-1.603-5.29-4.492-7.063-7.855-1.746-3.312-2.832-7.144-2.832-10.697v-75.72c0-2.027.358-3.81 1-5.283v-.007c.7-1.616 1.747-2.856 3.05-3.656.12-.084.246-.156.374-.215l.025-.014.036-.02.023-.01.103-.053v-.002L50.64 1.23C52.112.467 53.374.024 54.796 0c1.435-.023 2.82.39 4.474 1.336zm72.348 46.847L56.94 5.407c-.896-.514-1.537-.738-2.07-.73-.546.008-1.2.268-2.066.717l-4.67 2.426v-.003l-.08.04-.024.014-.02.01a2.7 2.7 0 0 1-.143.083l-.025.012c-.474.296-.882.812-1.19 1.523l-.005-.002c-.378.875-.59 2.026-.59 3.422V88.64c0 2.794.874 5.844 2.28 8.514 1.387 2.63 3.25 4.837 5.247 5.986l75.323 43.298c.86.495 1.64.724 2.305.712h.004c.498-.01.945-.172 1.318-.467.098-.098.206-.188.322-.27l4.276-2.972.004.007c.055-.038.113-.075.173-.11.492-.29.92-.822 1.242-1.57.378-.88.59-2.025.59-3.4v-75.69c0-2.795-.875-5.85-2.282-8.523-1.38-2.622-3.24-4.823-5.242-5.97zm-.32 103.644h-.006.005zM48.028 7.87z"/><path fill="#F6F6F6" d="M58.105 3.37l74.677 42.777c4.787 2.742 8.71 10.175 8.71 16.527v75.69c0 3.468-1.167 5.925-3.007 6.997l-.008.007h-.005l-4.94 3.435-.76-3.714-30.545-17.23c-4.806-2.712-6.002-10.78-8.71-16.527L49.394 17.7 46.76 5.892l4.963-2.58c2.336-1.215 3.83-1.403 6.382.058z"/><path fill="#B2B3B3" d="M58.25 3.118l74.677 42.775c2.443 1.4 4.662 3.99 6.267 7.03 1.598 3.036 2.593 6.53 2.593 9.75v75.692c0 1.74-.29 3.237-.81 4.442-.547 1.272-1.35 2.226-2.342 2.804l-4.935 3.43-.365.255-.09-.436-.734-3.584-30.427-17.166c-3.47-1.96-5.085-6.56-6.69-11.138-.67-1.913-1.342-3.823-2.142-5.52l-44.12-93.63-.02-.06-2.633-11.806-.05-.22.2-.104 4.962-2.58c1.205-.627 2.2-.99 3.24-1.006 1.04-.016 2.1.313 3.42 1.072zM132.636 46.4L57.96 3.627c-1.23-.703-2.195-1.01-3.122-.995-.93.016-1.85.355-2.98.943L47.095 6.05l2.578 11.55 44.107 93.602c.81 1.724 1.488 3.65 2.163 5.576 1.57 4.477 3.148 8.974 6.427 10.823l30.544 17.23.116.067.026.128.673 3.28 4.573-3.18.015-.01.006-.003.01-.007c.884-.515 1.605-1.374 2.104-2.532.486-1.134.76-2.55.76-4.21v-75.69c0-3.128-.97-6.525-2.524-9.48-1.556-2.948-3.694-5.45-6.04-6.795z"/><path fill="#FEFEFE" d="M52.42 6.34l75.325 43.3c4.782 2.748 8.71 10.172 8.71 16.526v75.723c0 6.352-3.928 9.323-8.71 6.575l-75.325-43.3c-4.783-2.75-8.71-10.17-8.71-16.527V12.916c0-6.355 3.927-9.326 8.71-6.577z"/><path fill="#B2B3B3" d="M52.566 6.087l75.323 43.3c2.443 1.403 4.662 3.993 6.266 7.037 1.597 3.032 2.592 6.52 2.592 9.742v75.723c0 2.125-.436 3.89-1.192 5.207-.496.86-1.13 1.533-1.87 1.986-.745.46-1.595.7-2.522.7-1.1 0-2.308-.343-3.566-1.064l-75.324-43.3c-2.444-1.405-4.665-3.996-6.268-7.04-1.597-3.03-2.59-6.52-2.59-9.743v-75.72c0-2.128.434-3.893 1.19-5.21.496-.862 1.128-1.532 1.87-1.987a4.754 4.754 0 0 1 2.522-.7c1.1 0 2.306.343 3.566 1.067zm75.032 43.804L52.274 6.596c-1.164-.67-2.272-.985-3.276-.985-.816 0-1.563.21-2.217.612-.66.404-1.22 1.005-1.666 1.778-.707 1.228-1.11 2.894-1.11 4.918V88.64c0 3.127.966 6.52 2.52 9.47 1.556 2.952 3.697 5.456 6.04 6.805l75.325 43.297c1.164.668 2.272.985 3.274.985.815 0 1.565-.212 2.218-.61.66-.407 1.224-1.005 1.67-1.78.704-1.228 1.11-2.893 1.11-4.917V66.167c0-3.126-.968-6.518-2.522-9.47-1.556-2.952-3.695-5.46-6.04-6.806z"/><path fill="#F6F6F6" d="M135.342 94.27v46.796c0 6.355-3.93 9.326-8.71 6.58l-40.17-23.092v-49.55c0-5.064 3.092-7.404 6.873-5.202l42.007 24.47zM63.1 110.856L44.177 99.99l-.073-.043V24.944l10.628 6.07c4.602 2.63 8.366 9.773 8.366 15.874v63.968z"/><path fill="#B2B3B3" d="M136.6 73.633a.293.293 0 0 1-.29-.508l5.035-2.91c.14-.08.32-.03.398.11a.29.29 0 0 1-.107.397l-5.037 2.91z"/><path fill="#BCCF17" d="M51.924 12.74c1.55.903 2.81 3.19 2.81 5.11s-1.258 2.745-2.81 1.843c-1.55-.902-2.808-3.188-2.808-5.11.003-1.917 1.26-2.744 2.808-1.842z"/><path fill="#2CBCE3" d="M59.76 17.343c1.55.902 2.808 3.188 2.808 5.11s-1.256 2.745-2.808 1.844c-1.55-.902-2.808-3.188-2.808-5.11.002-1.92 1.257-2.744 2.808-1.844z"/><path fill="#B2B3B3" d="M43.345 19.483a.293.293 0 0 1 .293-.507l92.65 53.858a.293.293 0 0 1-.294.506l-92.65-53.857zM52.433 46.16v-.03l.002-.006v-.017l.002-.008v-.01l.006-.02v-.005l.003-.01v-.002l.002-.008.002-.01.002-.005.003-.01v-.006l.007-.017v-.003l.005-.01.004-.008.01-.014.005-.01.01-.013.01-.02v-.003l.024-.032.005-.007.01-.012.01-.01.014-.015.027-.023.007-.006.01-.006.02-.014.012-.006.037-.02.002-.002c.025-.01.052-.022.08-.028a.487.487 0 0 1 .11-.013h.005l.04.003h.01l.022.004h.01l.006.002h.006l.014.003.015.003.01.002c.034.01.065.025.093.044l2.268 1.338a.44.44 0 1 1-.448.758l-1.612-.95v1.32a.44.44 0 0 1-.88 0V46.16h-.002zm0 6.49a.44.44 0 0 1 .88 0v2.64a.44.44 0 0 1-.88 0v-2.64zm0 7.043a.44.44 0 0 1 .88 0v2.64a.44.44 0 0 1-.88 0v-2.64zm0 7.044a.44.44 0 0 1 .88 0v2.64a.44.44 0 0 1-.88 0v-2.64zm0 7.044a.44.44 0 0 1 .88 0v2.643a.44.44 0 0 1-.88 0v-2.64zm0 7.046a.44.44 0 0 1 .88 0v2.36a.44.44 0 0 1-.59.62l-.074-.044a.433.433 0 0 1-.218-.378v-2.56zm4.08 5.216a.44.44 0 0 1 .448-.76l2.277 1.346a.44.44 0 1 1-.448.758l-2.275-1.342zm6.067 3.58a.44.44 0 1 1 .447-.758l2.275 1.343a.44.44 0 1 1-.448.76L62.58 89.62zm6.065 3.58a.44.44 0 1 1 .447-.756l2.273 1.342a.44.44 0 1 1-.448.76L68.644 93.2zm6.064 3.583a.44.44 0 0 1 .446-.76l2.275 1.343a.44.44 0 0 1-.446.76l-2.276-1.343zm6.065 3.578a.44.44 0 1 1 .447-.757l2.273 1.344a.44.44 0 1 1-.447.76l-2.275-1.346zm6.064 3.58a.44.44 0 0 1 .446-.757l2.276 1.343a.44.44 0 0 1-.45.758l-2.274-1.344zm6.065 3.583a.443.443 0 1 1 .448-.76l2.274 1.343c.21.12.28.392.156.6a.442.442 0 0 1-.604.156l-2.275-1.342zm6.066 3.58a.44.44 0 1 1 .45-.758l2.273 1.343a.442.442 0 0 1-.45.76l-2.273-1.343zm6.067 3.58a.44.44 0 0 1 .448-.758l2.276 1.342a.44.44 0 1 1-.448.76l-2.274-1.342zm6.064 3.58a.44.44 0 1 1 .45-.76l2.275 1.345a.44.44 0 1 1-.45.758l-2.273-1.343zm6.066 3.58a.442.442 0 0 1 .45-.762l.71.42v-.273a.44.44 0 0 1 .88 0v1.045a.44.44 0 0 1-.67.376l-1.37-.806zm2.04-5.014a.44.44 0 0 1-.878 0v-2.642a.44.44 0 0 1 .878 0v2.64zm0-7.046a.44.44 0 0 1-.878 0v-2.64a.438.438 0 0 1 .878 0v2.64zm0-7.043a.438.438 0 0 1-.878 0v-2.64a.44.44 0 0 1 .878 0v2.64zm0-7.042a.438.438 0 0 1-.878 0v-2.64a.438.438 0 0 1 .878 0v2.64zm0-7.042a.438.438 0 0 1-.878 0v-2.64a.438.438 0 0 1 .878 0v2.64zm-3.18-5.73a.44.44 0 1 1-.45.758l-2.272-1.343a.44.44 0 0 1 .448-.758l2.276 1.342zm-6.066-3.58a.44.44 0 0 1-.448.758l-2.274-1.343a.44.44 0 1 1 .447-.757l2.276 1.34zm-6.064-3.58a.44.44 0 0 1-.448.756l-2.275-1.342a.44.44 0 0 1-.154-.602.44.44 0 0 1 .6-.157l2.275 1.344zm-6.066-3.58a.44.44 0 1 1-.447.757L95.108 71.6a.44.44 0 0 1-.154-.603.44.44 0 0 1 .603-.155l2.273 1.342zm-6.066-3.58a.44.44 0 1 1-.448.757l-2.274-1.343a.442.442 0 1 1 .447-.76l2.273 1.344zm-6.066-3.58a.44.44 0 1 1-.447.758l-2.273-1.343a.44.44 0 1 1 .447-.757l2.275 1.34zm-6.065-3.582a.44.44 0 1 1-.448.76l-2.276-1.347a.444.444 0 0 1-.154-.605.44.44 0 0 1 .603-.155l2.272 1.343zm-6.065-3.58c.21.122.28.392.156.6a.44.44 0 0 1-.604.156l-2.274-1.344a.44.44 0 1 1 .448-.757l2.275 1.343zm-6.066-3.58a.44.44 0 0 1-.448.76L64.78 53.7a.442.442 0 0 1-.157-.604.443.443 0 0 1 .604-.155l2.275 1.344zm-6.065-3.58a.44.44 0 1 1-.447.756l-2.275-1.344a.44.44 0 1 1 .446-.757l2.276 1.343z"/><path fill="#B2B3B3" d="M116.443 80.835l4.647 2.75v5.684l-4.647-2.75"/><path fill="#B2B3B3" d="M116.687 80.47l4.627 2.738c.138.08.216.228.218.378v5.682a.44.44 0 0 1-.685.367l-4.628-2.74a.445.445 0 0 1-.217-.378H116v-5.682a.44.44 0 0 1 .686-.366zm3.964 3.368l-3.767-2.232v4.662l3.77 2.23v-4.66z"/><path fill="#FEFEFE" d="M15.89 19.404L45.575 36.36c4.602 2.627 8.366 9.77 8.366 15.873V210.8c0 3.334-1.12 5.692-2.89 6.722l-.01.005v.002l-5.083 2.957c-1.48.904-3.43.862-5.56-.353l-29.685-16.958c-4.603-2.627-8.366-9.77-8.366-15.872V28.734c0-3.345 1.13-5.71 2.913-6.732l5.073-2.954c1.48-.904 3.43-.86 5.555.356z"/><path fill="#B2B3B3" d="M17.174 17.44l29.558 16.884c2.7 1.542 5.114 4.33 6.825 7.578 1.687 3.2 2.733 6.9 2.733 10.33v158.57c0 1.957-.338 3.672-.945 5.083-.67 1.56-1.676 2.762-2.932 3.55a2.41 2.41 0 0 1-.328.196l-4.952 2.884-.01.008c-1.153.69-2.472 1.012-3.9.922-1.278-.08-2.625-.495-3.987-1.272l-.12-.073-29.56-16.883c-2.7-1.54-5.112-4.328-6.823-7.578C1.047 194.44 0 190.74 0 187.306V28.735c0-1.952.344-3.672.96-5.098.716-1.654 1.792-2.902 3.136-3.67l.087-.05 4.975-2.896.02-.007c1.15-.687 2.47-1.007 3.89-.916 1.278.082 2.623.494 3.984 1.272l.122.07zM44.42 38.396l-29.568-16.89a2.238 2.238 0 0 1-.127-.067c-.724-.417-1.38-.63-1.948-.668-.467-.03-.88.065-1.22.273l-.047.027-4.966 2.89a2.04 2.04 0 0 1-.116.073c-.473.27-.876.764-1.174 1.452-.36.828-.56 1.918-.56 3.247v158.57c0 2.672.836 5.595 2.182 8.148 1.32 2.506 3.092 4.604 4.992 5.69l29.57 16.89c.04.022.084.044.125.068.725.416 1.382.63 1.95.668.424.025.804-.052 1.127-.222.093-.064.19-.12.292-.17l4.857-2.828.012-.01h.002l.014-.008.08-.046c.45-.27.837-.76 1.133-1.45.36-.836.56-1.923.56-3.23V52.234c0-2.67-.833-5.594-2.18-8.15-1.32-2.505-3.093-4.605-4.992-5.69z"/><path fill="#F6F6F6" d="M15.89 19.404L45.576 36.36c4.602 2.627 8.366 9.77 8.366 15.873v158.57c0 3.33-1.122 5.69-2.89 6.72l-.008.004-.003.002-5.08 2.957-.73-3.567-29.34-16.758c-4.6-2.628-8.366-9.77-8.366-15.87V33.162l-2.287-11.15 5.1-2.966c1.478-.903 3.427-.858 5.554.357z"/><path fill="#B2B3B3" d="M16.034 19.148L45.72 36.105c2.35 1.343 4.48 3.83 6.022 6.752 1.538 2.917 2.492 6.277 2.492 9.375v158.57c0 1.673-.278 3.11-.777 4.273-.5 1.16-1.224 2.046-2.112 2.61v.004l-.146.084-.01.005h-.004l-5.083 2.958-.35.206-.083-.4-.705-3.438-29.222-16.69c-2.352-1.343-4.483-3.83-6.024-6.753-1.54-2.916-2.494-6.277-2.494-9.374V33.19l-2.28-11.115-.042-.206.182-.106 5.1-2.97.03-.018.097-.057.14-.083.002.003a4.697 4.697 0 0 1 2.482-.5c.97.066 2.012.393 3.096 1.01zM45.43 36.614L15.747 19.657c-1.003-.573-1.96-.876-2.84-.93-.897-.06-1.715.142-2.418.57l-.27.165-.005-.004-4.647 2.705L7.81 33.106l.008.058V184.29c0 3.004.93 6.266 2.423 9.103 1.494 2.83 3.546 5.23 5.797 6.518l29.337 16.76.116.065.025.13.65 3.167 4.596-2.676.15-.084c.843-.492 1.535-1.315 2.012-2.424.468-1.09.73-2.45.73-4.04V52.233c0-3.004-.93-6.267-2.422-9.103-1.495-2.83-3.546-5.23-5.797-6.516z"/><path fill="#FEFEFE" d="M10.713 22.418L40.4 39.375c4.6 2.628 8.366 9.77 8.366 15.874v158.57c0 6.1-3.766 8.942-8.367 6.315L10.71 203.18c-4.603-2.63-8.366-9.772-8.366-15.875V28.735c0-6.102 3.764-8.946 8.366-6.317z"/><path fill="#B2B3B3" d="M10.782 22.164l29.43 16.958c2.33 1.342 4.443 3.828 5.97 6.75 1.526 2.918 2.473 6.28 2.473 9.377v158.57c0 2.034-.41 3.726-1.125 4.987-.472.832-1.078 1.482-1.785 1.923a4.51 4.51 0 0 1-2.418.68c-1.05-.002-2.202-.328-3.4-1.02l-29.43-16.957c-2.332-1.343-4.445-3.83-5.973-6.752-1.525-2.914-2.47-6.276-2.47-9.375V28.735c0-2.037.41-3.728 1.125-4.99.47-.83 1.076-1.48 1.784-1.92a4.523 4.523 0 0 1 2.417-.678c1.05-.002 2.2.325 3.4 1.017zM39.925 39.63l-29.43-16.958c-1.11-.638-2.162-.94-3.115-.94v-.002c-.778 0-1.492.202-2.112.59-.625.39-1.164.966-1.585 1.713-.665 1.175-1.046 2.766-1.046 4.7v158.572c0 3.005.92 6.268 2.4 9.103 1.48 2.83 3.514 5.232 5.746 6.518l29.43 16.958c1.11.64 2.164.94 3.115.94a3.93 3.93 0 0 0 2.112-.59c.625-.388 1.164-.966 1.585-1.714.665-1.175 1.046-2.766 1.046-4.7V55.248c0-3.004-.917-6.267-2.4-9.103-1.48-2.83-3.51-5.23-5.744-6.515z"/><path fill="#BCCF17" d="M10.713 29.14c1.732.988 3.135 3.45 3.135 5.495 0 2.047-1.402 2.904-3.135 1.915-1.733-.99-3.137-3.45-3.137-5.498 0-2.047 1.404-2.903 3.137-1.913z"/><path fill="#2CBCE3" d="M19.2 34.184c1.732.99 3.136 3.45 3.136 5.498 0 2.045-1.404 2.903-3.136 1.914-1.73-.99-3.136-3.45-3.136-5.497 0-2.05 1.405-2.907 3.136-1.917z"/><path fill="#B2B3B3" d="M2.495 37.808L48.91 64.322l-.29.507L2.205 38.313z"/><path fill="#B2B3B3" d="M24.92 51.323h.586v109.704h-.587zM14.257 61.346L9.61 61.3l4.653-9.93 4.545 14.646M33.11 63.545l9.004 5.144.223.125v11.653l-.657-.376-9.004-5.144-.224-.126V63.17l.657.375zm8.346 5.78l-8.124-4.642v9.63l8.124 4.64v-9.63z"/><path fill="#B2B3B3" d="M31.237 61.027l3.31 1.89v3.91l-3.31-1.89M40.243 66.17l3.31 1.89v3.91l-3.31-1.89M40.243 76.81l3.31 1.89v3.91l-3.31-1.89M31.237 71.668l3.31 1.89v3.91l-3.31-1.89M36.217 69.755L38.57 71.1v2.782l-2.353-1.345M42.28 153.687l-.082.053-.53-.303-.09-.143c-.03-.86-.057-1.373-.093-1.537-.064-.302-.246-.56-.537-.773-.11-.082-.64-.395-1.577-.93l-1.12-.642c-.097 1.918-.02 4.593-.02 6.55 0 1.57.04 2.612.11 3.13.03.21.123.386.288.528.082.074.41.295.978.66l.085.147v1.272l-.084.05c-.552-.355-1.412-.866-2.58-1.535a61.022 61.022 0 0 0-2.58-1.412l-.076-.135v-1.285l.085-.05c.568.286.896.44.978.46.165.042.26-.026.287-.203.072-.436.11-1.437.11-3.008 0-1.783.12-4.735-.026-6.573l-1.2-.685c-.998-.57-1.58-.865-1.75-.89-.087-.012-.153 0-.182.04-.053.076-.092.267-.125.564-.038.325-.067.67-.078 1.032l-.085.056-.53-.304-.09-.154-.02-1.703c-.003-.546-.028-1.543-.1-2.143l.077-.058c.33.255 1.53.974 3.602 2.158l3.397 1.94c1.91 1.09 3.11 1.742 3.605 1.956l.083.15c-.163 1.038-.12 2.548-.13 3.713zM10.2 78.612v-2.234l2.16 1.234v2.234l3.69 2.108c.73.417 1.4 1.114 1.918 1.93l3.22-1.965.4.7-3.226 1.97c.41.832.655 1.734.655 2.562v4.514l1.978 1.13V95.3l-1.978-1.13v2.235l-2.163-1.235v-2.233l-3.69-2.11c-1.633-.93-2.965-3.27-2.965-5.196v-4.51l-1.98-1.13v-2.505l1.98 1.128zm2.32 8.6l3.815-2.33c-.174-.26-.372-.475-.56-.583l-3.415-1.95v4.183c0 .19.06.43.16.677zm4.188-1.616l-3.81 2.326c.17.248.363.454.545.558l3.412 1.95v-4.184c0-.183-.056-.412-.147-.65zM35.207 96.5l.132.077v-5.095c0-1.203.832-1.712 1.85-1.13 1.02.58 1.854 2.042 1.854 3.247v5.092l.132.075c.417.24.76.84.76 1.335 0 .494-.343.703-.76.463l-3.97-2.267c-.417-.24-.76-.84-.76-1.335 0-.493.343-.703.76-.464z"/><path fill="#B2B3B3" d="M35.12 96.958l-.13-.074a.366.366 0 0 0-.088-.038.377.377 0 0 0-.015.12c0 .172.063.367.166.546v.002c.1.176.234.325.373.406l3.97 2.268c.035.02.065.03.088.036a.36.36 0 0 0 .015-.12c0-.17-.065-.368-.168-.546a1.11 1.11 0 0 0-.374-.408l-.13-.073-.224-.127v-5.348c0-.525-.187-1.116-.485-1.64-.3-.524-.705-.975-1.145-1.227-.218-.123-.416-.182-.584-.182a.53.53 0 0 0-.27.068.557.557 0 0 0-.198.21c-.09.16-.142.38-.142.656v5.85l-.66-.38zm-.222-.995v-4.48c0-.432.094-.802.26-1.09a1.392 1.392 0 0 1 1.232-.72c.316 0 .662.095 1.02.298v.003c.577.33 1.1.903 1.47 1.554.372.652.605 1.396.605 2.074v4.845c.24.16.455.406.61.68.174.304.283.656.283.98 0 .22-.052.416-.14.573a.854.854 0 0 1-.306.314v.002a.835.835 0 0 1-.426.114c-.174 0-.36-.05-.547-.158l-3.97-2.268a1.994 1.994 0 0 1-.7-.736h-.003a2.038 2.038 0 0 1-.282-.98c0-.224.05-.418.14-.574v-.002a.846.846 0 0 1 .308-.312v-.002a.838.838 0 0 1 .425-.113h.018v.003zm4.577 4.28zm-4.566-3.416z"/><path fill="#B2B3B3" d="M37.973 106.22h.02a.51.51 0 0 0 .408-.185c.124-.15.2-.388.208-.698v-4.772l-2.825-1.614v4.22c0 .375.095.783.258 1.174v.002c.17.416.418.81.71 1.135l.113.294v.917c0 .175.064.376.168.56.103.18.24.334.385.417.04.023.073.035.1.04a.41.41 0 0 0 .017-.13v-1.36l.443.004zm1.104.372c-.18.22-.41.372-.67.45v.533c0 .224-.052.42-.142.58v.002a.847.847 0 0 1-.737.432c-.174 0-.364-.055-.553-.16a2.012 2.012 0 0 1-.71-.748 2.07 2.07 0 0 1-.286-.993v-.758a5.04 5.04 0 0 1-.755-1.253c-.206-.5-.326-1.02-.326-1.51v-5.734l.656.375 3.706 2.118.223.126v5.228l-.002.005v.064c-.013.52-.16.94-.407 1.24zm-1.575 1.128v.002-.002zM37.56 117.573l2.06 6.143 2.462 7.332c-1.175.164-2.174.562-2.98 1.22l-3.815-2.183c-.836-1.74-1.848-3.3-3.045-4.657l2.46-4.523 2.06-3.788v7.547c-.602-.14-1.044.266-1.044 1.043 0 .944.646 2.077 1.443 2.53s1.446.062 1.446-.88c0-.78-.443-1.688-1.046-2.238v-7.547zm-2.394 13.54v2.378l3.99 2.28v-2.38l-3.99-2.277zM10.36 109.032l7.942 3.912a.43.43 0 0 1 .258.38h.002v9.816c0 .242-.23.44-.51.44a.572.572 0 0 1-.29-.076l-7.94-3.91a.433.433 0 0 1-.26-.383V109.4c0-.243.23-.44.51-.44.106 0 .204.026.288.075zm7.18 4.548l-6.956-3.428v8.805l6.957 3.427v-8.804z"/><path fill="#B2B3B3" d="M14.465 104.052l1.957 4.553 1.962 4.566c.098.23-.032.48-.293.566a.56.56 0 0 1-.436-.036l-3.91-1.96-3.927-1.963c-.24-.12-.325-.388-.187-.598l.015-.028 1.963-2.602 1.964-2.6c.152-.202.464-.258.695-.124a.458.458 0 0 1 .198.226zm1.02 4.863l-1.617-3.762-1.423 1.884-1.667 2.21 3.46 1.732 2.72 1.36-1.474-3.426z"/><path fill="#B2B3B3" d="M13.95 104.194l1.72 4.564.025.063-3.487-1.99.024-.034"/><path fill="#B2B3B3" d="M14.465 104.052l1.957 4.553.025.062c.1.227-.032.48-.29.566a.564.564 0 0 1-.44-.038l-3.967-1.983c-.24-.12-.324-.388-.188-.598l.018-.024.027-.037.014-.016 1.954-2.586c.152-.2.464-.256.695-.122a.454.454 0 0 1 .196.225zm.556 3.785l-1.15-2.684-1.155 1.53 2.307 1.154zM12.596 110.07l3.308 1.836c.146.08.228.23.23.382v9.814c0 .243-.204.44-.454.44a.458.458 0 0 1-.254-.076l-3.308-1.836a.434.434 0 0 1-.23-.38v-9.814c0-.244.203-.44.452-.44.095 0 .182.026.256.074zm2.632 2.47l-2.435-1.35v8.805l2.435 1.35v-8.804zM13.42 133.62a.44.44 0 1 1 .396-.787l.02.01.04.02.042.023.044.023.04.02.043.023.042.024.04.023.035.02.007.006.04.024.043.023.04.025.042.024.043.025.04.024.04.027.04.026.044.023.04.028.04.023.043.028.04.026.04.028.042.026.04.028.042.028.04.028.04.03.04.025.04.03.04.027.04.03.04.03.043.03.04.03.036.028.04.032.04.03.04.03.04.03.036.032.04.03.038.033.038.03.04.032.036.032.007.005a.44.44 0 1 1-.572.67l-.006-.006-.034-.03-.036-.028-.037-.032-.035-.028-.034-.027-.036-.03-.037-.028-.036-.026-.035-.03-.034-.026-.036-.03-.038-.026-.035-.026-.034-.024-.035-.026-.036-.026-.038-.027-.037-.026-.037-.026-.037-.026-.037-.023-.038-.025-.037-.025-.04-.024-.034-.025-.04-.023-.035-.025-.037-.022-.037-.024-.034-.023-.038-.023-.04-.024-.034-.02-.04-.023-.036-.025-.037-.02-.036-.023-.04-.023-.037-.022-.036-.02-.036-.022-.04-.02-.033-.02-.037-.02-.04-.02-.022.003zm-2.365-1.455a.44.44 0 0 1 .465.413.44.44 0 0 1-.413.466l-.032.003h-.028l-.027.003-.03.003-.028.003-.026.002-.027.003-.03.006-.028.003-.026.004-.027.004-.027.005-.03.006-.026.003-.024.005-.028.007-.026.005-.025.005-.026.006-.025.01-.028.006-.024.007-.027.008-.024.008-.025.01-.026.007-.02.007-.027.01-.027.01-.022.01-.025.008-.025.01-.024.01-.024.01-.023.01-.025.013-.026.01-.024.01-.023.014-.025.01-.023.013-.026.013-.022.012-.022.01-.023.014-.022.013-.024.015-.023.01-.02.015-.025.016-.023.013-.02.015-.023.013-.023.017-.02.015-.02.014-.01.005a.44.44 0 1 1-.51-.717l.01-.008.03-.02.03-.022.03-.02.03-.02.03-.018.027-.02.028-.02.033-.02.03-.017.026-.017.03-.017.032-.018.03-.016.032-.018.03-.015.032-.016.03-.014.033-.017.032-.016.03-.015.033-.015.032-.015.032-.015.033-.012.033-.014.032-.015.037-.012.03-.012.03-.01.038-.012.032-.01.032-.012.034-.01.034-.01.035-.01.033-.008.035-.01.036-.008.035-.008.036-.008.033-.007.036-.01.035-.005.035-.007.037-.005.035-.007.036-.005.037-.003.035-.006.037-.004.036-.004.038-.003.034-.004.038-.004.036-.002.04.005zm-3.457 3.048a.44.44 0 1 1 .85.23l-.003.017-.01.034-.01.033-.01.036-.008.034-.008.035-.01.036-.008.036-.008.037-.008.036-.007.037-.008.036-.008.037-.006.037-.008.038-.008.037-.005.037-.008.04-.007.038-.006.038-.005.038-.004.04-.004.04-.005.043-.005.038v.047l-.004.04-.004.043-.003.043-.003.038v.043l-.005.042-.002.042-.002.042V136.814l-.004.04v.045l-.002.044v.043l-.002.044v.04a.44.44 0 1 1-.88-.007v-.094l.002-.05.003-.048v-.048l.002-.048v-.05l.003-.046.002-.047.004-.05v-.045l.006-.047.003-.05.004-.043.003-.046.004-.044.006-.046.006-.046.006-.044.005-.044.007-.045.007-.045.006-.044.007-.043.008-.04.006-.047.01-.043.006-.043.008-.045.008-.043.008-.04.01-.045.01-.044.01-.04.008-.043.01-.038.01-.044.01-.04.01-.04.01-.04.012-.042v-.012h-.002zm.092 4.576a.44.44 0 0 1 .854-.213l.013.05.012.045.01.047.013.045.014.05.014.047.013.05.013.045.014.046.015.05.014.047.012.048.016.048.013.048.017.048.014.046.017.048.015.05.016.044.018.048.015.048.017.05.016.045.017.05.017.046.018.05.018.047.016.047.017.046.02.05.017.045.018.05.018.046.02.048.002.01a.44.44 0 0 1-.247.57.44.44 0 0 1-.57-.25l-.006-.012-.02-.048-.02-.053-.02-.05-.02-.05-.02-.05-.017-.05-.02-.053-.02-.05-.017-.05-.02-.05-.018-.05-.02-.053-.016-.05-.017-.05-.018-.05-.016-.053-.015-.05-.017-.05-.017-.052-.014-.05-.016-.05-.016-.052-.015-.05-.016-.054-.014-.048-.016-.05-.016-.052-.013-.05-.015-.053-.014-.05-.014-.05-.012-.054-.013-.05-.01-.045zm1.76 4.162c-.128-.208-.063-.48.145-.605s.478-.063.606.145l.018.024.027.044.026.045.027.043.027.043.026.046.026.042.027.043.027.043.03.042.026.043.027.04.028.045.03.042.028.04.027.042.03.043.03.04.027.04.03.042.028.04.028.042.03.04.03.042.028.04.03.04.028.04.03.04.03.04.03.04.03.04.03.04.03.037.032.042.003.005a.44.44 0 0 1-.69.547l-.007-.01-.032-.042-.03-.04-.034-.043-.033-.043-.03-.045-.032-.04-.03-.044-.033-.043-.032-.043-.03-.043-.02-.036-.033-.044-.03-.04-.03-.044-.03-.045-.032-.044-.03-.04-.03-.045-.034-.046-.03-.046-.03-.043-.028-.045-.03-.047-.028-.045-.032-.045-.03-.046-.027-.045-.03-.046-.027-.046-.028-.044-.03-.048-.027-.045-.028-.046-.02-.024zm2.933 3.45a.44.44 0 1 1 .56-.68l.01.007.033.027.037.03.036.027.034.028.036.027.037.026.038.028.036.028.037.025.036.027.035.025.037.025.038.026.036.03.036.022.036.026.038.024.036.024.04.025.036.025.035.025.038.023.038.025.037.023.038.024.036.023.04.023.037.025.037.02.04.024.037.022.037.02.038.024.04.02.037.02.038.022.036.02.005.004a.44.44 0 0 1-.416.775l-.01-.003-.04-.023-.043-.023-.04-.022-.042-.024-.043-.024-.042-.025-.042-.024-.04-.023-.044-.026-.04-.023-.04-.024-.043-.026-.04-.025-.043-.027-.04-.025-.04-.025-.043-.027-.04-.027-.04-.026-.042-.027-.04-.028-.043-.027-.04-.03-.04-.028-.04-.028-.04-.027-.04-.03-.043-.028-.04-.032-.04-.03-.038-.027-.04-.03-.04-.032-.04-.03-.038-.03-.04-.03-.04-.032-.005-.015zm4.25 1.8a.44.44 0 0 1-.003-.88h.11l.027-.003h.028l.03-.004.027-.002.027-.003h.03l.027-.003.027-.003.027-.004.03-.002.027-.003.026-.004.027-.003.027-.004.028-.005.027-.005.025-.007.027-.006.026-.005.024-.008.026-.005.026-.006.027-.007.025-.01.026-.008.025-.008.024-.008.027-.008.023-.008.026-.01.026-.008.022-.01.024-.01.025-.01.023-.01.025-.01.023-.01.025-.01.024-.012.024-.01.024-.012.025-.012.022-.01.024-.015.022-.01.024-.012.023-.013.02-.013.025-.015.023-.014.02-.013.025-.014v-.003a.445.445 0 0 1 .61.14.447.447 0 0 1-.143.61l-.008.003-.03.02-.032.02-.03.017-.027.016-.032.02-.028.015-.03.017-.033.017-.03.014-.034.016-.03.015-.03.017-.032.015-.03.014-.033.016-.034.015-.03.014-.033.014-.032.013-.033.015-.036.01-.03.012-.03.01-.038.014-.033.01-.034.01-.034.01-.032.01-.034.01-.033.008-.034.01-.036.01-.035.007-.035.007-.033.007-.036.01-.035.004-.034.005-.036.007-.036.006-.038.003-.036.005-.034.006-.037.005-.036.004-.038.005h-.036l-.037.004h-.03l-.036.002h-.036l-.04.004h-.034l-.037.002h-.07v-.004zm3.614-2.854a.44.44 0 0 1-.84-.264l.005-.014.01-.032.01-.033.01-.035.01-.032.01-.034.01-.034.01-.034.008-.035.01-.034.007-.035.008-.033.008-.04.01-.036.007-.032.007-.036.007-.035.008-.04.007-.037.004-.037.007-.04.007-.036.007-.04.006-.037.006-.04.004-.035.006-.042.004-.04.005-.04.004-.038.002-.04.003-.04.004-.043.003-.042.004-.04.002-.04.002-.043.002-.04.002-.042.003-.044v-.042l.002-.04v-.036a.443.443 0 0 1 .456-.426c.242.008.432.21.424.453l-.002.042v.048l-.003.05-.004.046-.002.048-.002.048v.046l-.005.05-.004.045-.005.046-.003.043-.004.046-.005.045-.006.046-.007.046-.005.044-.005.046-.007.045-.006.047-.007.044-.007.044-.007.044-.01.044-.006.044-.008.043-.008.042-.008.04-.01.045-.01.044-.008.04-.01.04-.01.043-.01.043-.01.04-.01.04-.01.04-.012.042-.012.04-.012.04-.012.04-.01.037-.014.04-.003.005zm.01-4.584a.438.438 0 0 1-.328.527.442.442 0 0 1-.53-.327l-.008-.036-.012-.05-.01-.046-.012-.046-.012-.05-.012-.047-.013-.047-.01-.047-.013-.05-.014-.047-.013-.05-.014-.046-.014-.046-.015-.048-.014-.047-.014-.05-.018-.047-.014-.046-.016-.048-.015-.048-.017-.047-.016-.05-.016-.044-.015-.05-.017-.047-.016-.048-.017-.047-.016-.046-.02-.046-.016-.05-.017-.047-.016-.047-.018-.046-.02-.048-.01-.028a.44.44 0 0 1 .826-.308l.01.028.02.05.02.052.02.05.016.052.018.05.018.05.02.05.018.052.017.05.018.05.017.052.017.05.016.05.017.05.016.054.015.05.018.052.015.05.016.052.015.052.015.05.015.05.016.052.014.05.015.052.012.05.014.05.013.054.013.05.014.05.01.054.014.05.01.052.01.03zm-1.702-4.188a.44.44 0 1 1-.756.45l-.006-.007-.025-.046-.027-.044-.027-.044-.025-.043-.025-.044-.027-.045-.026-.042-.026-.044-.027-.045-.028-.044-.027-.04-.027-.042-.027-.043-.03-.043-.026-.04-.028-.044-.028-.043-.028-.04-.028-.042-.03-.042-.03-.042-.027-.04-.028-.04-.03-.042-.027-.04-.03-.04-.03-.042-.03-.04-.028-.04-.03-.04-.03-.04-.03-.04-.03-.04-.015-.02a.445.445 0 0 1 .08-.62.443.443 0 0 1 .617.083l.018.023.032.043.03.04.033.045.032.043.03.046.03.043.03.042.033.043.03.043.03.042.033.045.03.045.03.044.028.042.032.046.03.045.028.045.03.042.03.047.028.045.03.045.028.045.03.046.028.048.03.046.027.044.028.047.028.047.03.046.028.046.027.047.027.046.028.047.007.003zM22.3 178.083l15.084 8.938c.09.055.142.15.142.253v18.512c0 .16-.124.29-.278.29a.27.27 0 0 1-.158-.052l-15.085-8.936a.292.292 0 0 1-.14-.253h-.002v-18.51c0-.16.123-.29.278-.29.06 0 .114.02.16.05zm14.67 9.355l-14.55-8.618v17.848l14.548 8.616v-17.846z"/><path fill="#2CBCE3" d="M12.888 164.695l15.78 8.756v18.12l-15.78-8.757"/><path fill="#B2B3B3" d="M13.95 137.672c1.408.805 2.55 2.804 2.55 4.466 0 1.66-1.142 2.36-2.55 1.555-1.405-.804-2.547-2.803-2.547-4.465 0-1.664 1.142-2.36 2.548-1.556z"/><path fill="#B2B3B3" d="M14.17 137.29c.77.44 1.466 1.2 1.965 2.075.497.87.804 1.864.804 2.77 0 .57-.123 1.05-.335 1.424a1.8 1.8 0 0 1-.65.667 1.758 1.758 0 0 1-.897.236c-.41 0-.857-.126-1.325-.392-.772-.44-1.468-1.203-1.966-2.076-.5-.87-.808-1.864-.808-2.77 0-.567.12-1.05.334-1.424.165-.288.385-.514.648-.668.267-.156.568-.237.898-.237v.002c.41 0 .86.127 1.326.392zm1.203 2.508c-.425-.742-1.003-1.383-1.64-1.744-.328-.188-.63-.276-.89-.276-.17 0-.326.04-.453.114a.937.937 0 0 0-.33.347c-.137.24-.217.574-.217.99 0 .753.264 1.59.688 2.335s1.005 1.385 1.64 1.746c.326.187.63.276.89.276v.002a.88.88 0 0 0 .454-.117.942.942 0 0 0 .33-.345c.138-.242.216-.576.216-.99 0-.754-.264-1.593-.687-2.34zM48.912 64.83a.293.293 0 0 1-.293-.507l5.177-2.99a.294.294 0 0 1 .4.106c.08.137.033.32-.106.4l-5.178 2.99zM48.912 92.255a.294.294 0 0 1-.4-.107.294.294 0 0 1 .107-.4l5.176-2.99a.294.294 0 0 1 .4.107c.08.14.033.318-.106.4l-5.178 2.99zM48.912 119.68a.294.294 0 0 1-.4-.105.294.294 0 0 1 .107-.4l5.176-2.99a.295.295 0 0 1 .4.107c.08.14.033.318-.106.4l-5.178 2.988zM48.91 147.108a.292.292 0 0 1-.29-.508l5.178-2.987a.294.294 0 0 1 .4.107c.08.14.03.318-.11.398l-5.177 2.99zM48.91 174.533a.292.292 0 0 1-.29-.506l5.178-2.99c.14-.08.318-.03.4.11a.29.29 0 0 1-.11.396l-5.177 2.99z"/><path fill="#FEFEFE" d="M160.347 122.643l-78.74-45.866c-1.715-1-3.288-1.063-4.496-.363l-4.78 2.954.01.015c-1.75.654-2.897 2.727-2.897 5.81v96.052c0 5.062 3.092 11.006 6.873 13.208l78.74 45.864c1.916 1.114 3.65 1.065 4.9.09l.03.054 4.6-2.856c.18-.085.353-.186.515-.3l.004-.002c1.305-.92 2.12-2.8 2.12-5.4v-96.048c0-5.064-3.093-11.007-6.876-13.21z"/><path fill="#B2B3B3" d="M159.173 124.67l-78.74-45.866c-.528-.308-1-.47-1.405-.503-.293-.02-.545.028-.744.143l-.05.028-4.438 2.743a2.26 2.26 0 0 1-.643.363c-.32.12-.613.428-.85.905-.328.66-.514 1.575-.514 2.715v96.05c0 2.15.67 4.518 1.75 6.595 1.053 2.025 2.456 3.72 3.947 4.587l78.74 45.863c.59.342 1.1.51 1.515.516.3.006.563-.078.772-.245.21-.16.44-.283.68-.364l4.152-2.58c.1-.065.205-.12.312-.165l.014-.012h.003c.048-.038.1-.073.15-.108.26-.21.484-.548.663-1.005.247-.628.385-1.442.385-2.42v-96.052c0-2.15-.672-4.518-1.754-6.596-1.054-2.027-2.454-3.718-3.948-4.588zM82.78 74.75l78.74 45.867c2.288 1.333 4.328 3.714 5.765 6.477 1.41 2.71 2.285 5.848 2.285 8.76v96.05c0 1.567-.257 2.957-.715 4.13-.54 1.372-1.362 2.452-2.404 3.186l-.003.002c-.13.093-.27.183-.425.27v-.002a4.415 4.415 0 0 1-.27.15l-4.525 2.813c-.04.024-.085.052-.127.073a2.244 2.244 0 0 1-.292.133c-.93.56-1.987.844-3.133.823-1.217-.02-2.5-.388-3.79-1.14L75.142 196.48c-2.287-1.333-4.324-3.714-5.76-6.478-1.41-2.708-2.285-5.847-2.285-8.758v-96.05c0-1.884.366-3.51 1.01-4.806.71-1.428 1.763-2.468 3.064-3.052l4.61-2.847c.05-.037.104-.07.16-.103a5.858 5.858 0 0 1 3.456-.764c1.087.087 2.23.455 3.385 1.127z"/><path fill="#F6F6F6" d="M160.347 122.643l-78.74-45.865c-1.715-1-3.288-1.062-4.496-.363l-4.78 2.954 1.976 3.627v95.462c0 5.062 3.094 11.006 6.874 13.21l76.504 44.56 2.303 4.23 4.6-2.86c.18-.083.35-.184.513-.3h.006c1.302-.92 2.118-2.8 2.118-5.4v-96.05c0-5.063-3.096-11.007-6.877-13.21z"/><path fill="#B2B3B3" d="M160.2 122.896L81.46 77.03c-.803-.466-1.567-.72-2.272-.777-.714-.057-1.37.087-1.932.415l-4.54 2.803 1.842 3.388.037.14v95.462c0 2.483.76 5.187 1.986 7.542 1.223 2.348 2.903 4.342 4.743 5.414l76.506 44.562.107.113 2.154 3.96 4.338-2.696.03-.017a2.49 2.49 0 0 0 .46-.267l.01-.006.004-.004c.617-.435 1.12-1.106 1.466-1.987.338-.866.528-1.933.528-3.17v-96.05c0-2.485-.76-5.19-1.986-7.543-1.216-2.348-2.896-4.342-4.737-5.414zM81.755 76.523l78.74 45.865c1.94 1.13 3.7 3.21 4.97 5.65 1.265 2.432 2.052 5.234 2.052 7.812v96.05c0 1.312-.204 2.45-.57 3.385-.365.93-.895 1.662-1.547 2.16v.02l-.136.08a3.71 3.71 0 0 1-.537.313l-4.586 2.853-.263.166-.147-.272-2.265-4.16-76.435-44.52c-1.94-1.13-3.7-3.21-4.968-5.65-1.267-2.432-2.053-5.233-2.053-7.812V83.068l-1.94-3.56-.13-.243.234-.146 4.78-2.953.008-.005a3.848 3.848 0 0 1 2.27-.49c.79.063 1.64.342 2.52.853z"/><path fill="#FEFEFE" d="M155.058 125.854L76.315 79.99c-3.78-2.202-6.873.14-6.873 5.203v96.052c0 5.06 3.093 11.006 6.873 13.207l78.743 45.866c3.78 2.2 6.873-.14 6.873-5.203v-96.05c0-5.063-3.093-11.007-6.87-13.21z"/><path fill="#B2B3B3" d="M154.33 126.11L76.12 80.242c-.91-.533-1.777-.788-2.557-.788-.618 0-1.186.16-1.678.464-.5.307-.93.763-1.27 1.354-.56.97-.883 2.296-.883 3.92v96.05c0 2.48.755 5.188 1.972 7.54 1.213 2.35 2.88 4.343 4.708 5.414l78.21 45.866c.91.534 1.776.788 2.557.788a3.14 3.14 0 0 0 1.676-.466c.5-.307.93-.763 1.272-1.353.56-.97.88-2.296.88-3.92v-96.05c0-2.484-.755-5.19-1.973-7.543-1.213-2.346-2.882-4.34-4.706-5.41zM76.413 79.737l78.21 45.865c1.925 1.13 3.674 3.21 4.932 5.648 1.26 2.437 2.04 5.236 2.04 7.814v96.05c0 1.73-.352 3.155-.962 4.215-.392.673-.89 1.2-1.473 1.56a3.74 3.74 0 0 1-1.98.55c-.88 0-1.845-.28-2.85-.87l-78.21-45.863c-1.925-1.13-3.673-3.21-4.934-5.65-1.257-2.433-2.038-5.233-2.038-7.81V85.193c0-1.73.35-3.157.962-4.213.39-.675.89-1.202 1.47-1.56a3.73 3.73 0 0 1 1.982-.552c.88 0 1.845.28 2.85.87z"/><path fill="#2CBCE3" d="M80.08 130.484l21.518 12.507c1.493.87 2.715 3.22 2.715 5.218v26.106c0 2-1.222 2.925-2.715 2.056l-21.52-12.51c-1.493-.87-2.716-3.217-2.716-5.218V132.54c-.002-2.002 1.22-2.926 2.717-2.056z"/><path fill="#2CBCE3" d="M80.298 130.103l21.518 12.508c.82.48 1.56 1.35 2.09 2.363.522 1.004.85 2.165.85 3.235v26.106c0 .737-.156 1.358-.427 1.825a2.05 2.05 0 0 1-.7.73 1.816 1.816 0 0 1-.958.267c-.405 0-.844-.124-1.295-.388l-21.52-12.51c-.82-.478-1.56-1.347-2.09-2.363-.52-1.004-.848-2.163-.848-3.234V132.54c0-.74.155-1.36.425-1.826a2.07 2.07 0 0 1 .698-.733 1.83 1.83 0 0 1 .958-.266c.406.002.845.128 1.297.39zm21.077 13.27l-21.517-12.51c-.312-.18-.602-.268-.856-.268a.957.957 0 0 0-.502.136 1.178 1.178 0 0 0-.395.425c-.193.334-.307.802-.307 1.385v26.103c0 .93.287 1.944.75 2.83.456.876 1.076 1.615 1.75 2.008l21.518 12.51c.312.18.603.268.856.268a.94.94 0 0 0 .5-.136c.153-.092.287-.235.397-.422.192-.332.303-.804.303-1.383V148.21c0-.93-.285-1.943-.746-2.83-.46-.877-1.08-1.617-1.753-2.008z"/><path fill="#BCCF17" d="M76.936 86.646c1.55.903 2.808 3.19 2.808 5.11S78.488 94.5 76.936 93.6c-1.55-.9-2.808-3.19-2.808-5.11 0-1.92 1.258-2.745 2.808-1.844z"/><path fill="#2CBCE3" d="M84.77 91.25c1.55.9 2.81 3.19 2.81 5.108 0 1.92-1.256 2.747-2.81 1.845-1.55-.903-2.807-3.19-2.807-5.11 0-1.92 1.257-2.744 2.808-1.843z"/><path fill="#B2B3B3" d="M69.295 93.935a.293.293 0 1 1 .293-.507l92.49 53.767a.293.293 0 1 1-.295.507L69.296 93.935zM69.295 114.787a.293.293 0 0 1 .293-.507l92.49 53.768c.137.08.185.26.105.4s-.263.188-.4.105l-92.488-53.766zM76.593 103.48l68.91 40.06c.54.314 1.025.883 1.37 1.547.343.657.556 1.417.556 2.118v3.568c0 .483-.104.89-.28 1.197-.12.206-.276.37-.46.48a1.19 1.19 0 0 1-.63.175c-.266 0-.555-.083-.85-.255L76.3 112.31c-.538-.314-1.023-.882-1.37-1.546-.342-.657-.554-1.417-.554-2.12v-3.566c0-.486.102-.892.278-1.197.12-.205.276-.367.46-.48.185-.112.4-.173.628-.173.266 0 .555.084.85.255zm68.616 40.566l-68.91-40.06a1.112 1.112 0 0 0-.56-.173c-.12 0-.23.03-.324.087a.75.75 0 0 0-.257.274c-.127.218-.2.522-.2.904v3.567c0 .608.187 1.27.49 1.847.297.572.7 1.056 1.14 1.31l68.91 40.06c.204.12.393.175.56.175.12 0 .23-.03.323-.09.1-.06.187-.152.26-.272.124-.218.197-.522.197-.904v-3.565c0-.607-.187-1.27-.487-1.847-.3-.572-.704-1.056-1.144-1.31zM152.927 148.11c.706.41 1.34 1.127 1.79 1.95.453.82.732 1.76.732 2.622 0 .565-.124 1.043-.337 1.41a1.613 1.613 0 0 1-1.432.842c-.37 0-.775-.118-1.197-.36-.707-.41-1.343-1.128-1.793-1.95-.45-.82-.73-1.76-.73-2.62 0-.57.123-1.047.335-1.413.156-.265.36-.473.602-.616a1.61 1.61 0 0 1 .83-.222c.374.002.78.117 1.2.36zm1.02 2.374c-.378-.693-.896-1.285-1.46-1.612-.28-.162-.537-.24-.76-.24a.716.716 0 0 0-.38.1.807.807 0 0 0-.29.303c-.136.233-.216.562-.216.972 0 .712.24 1.5.623 2.195.38.692.898 1.286 1.463 1.614.278.165.535.24.76.24a.73.73 0 0 0 .67-.405c.135-.23.215-.56.215-.966 0-.713-.237-1.502-.62-2.2z"/><path fill="#B2B3B3" d="M153.962 154.542a.44.44 0 1 1 .77-.425l2.21 4.024a.438.438 0 1 1-.77.424l-2.21-4.02z"/><path fill="#FEFEFE" d="M90.838 156.237c4.262 2.478 7.796 8.12 8.46 13.203l-16.92-9.834c.662-4.315 4.198-5.845 8.46-3.37zm0-11.713c-2.207-1.282-3.993-.108-3.993 2.62 0 2.73 1.787 5.983 3.993 7.264 2.204 1.282 3.99.108 3.99-2.622s-1.786-5.982-3.99-7.262z"/><path fill="#E6E6E6" d="M111.628 148.824l27.183 15.802v5.19l-27.18-15.802M111.628 161.015L152.885 185v2.594l-41.257-23.984M111.628 167.312l41.257 23.985v2.595l-41.257-23.985M111.628 179.907l17.8 10.347v2.595l-17.8-10.35M111.628 173.61l41.257 23.983v2.595l-41.257-23.982"/><path fill="#B2B3B3" d="M79.285 169.877l23.4 13.602c.537.31 1.022.88 1.368 1.543.342.658.556 1.417.556 2.12v3.568c0 .484-.106.893-.28 1.198-.12.205-.276.368-.46.478a1.172 1.172 0 0 1-.63.176 1.7 1.7 0 0 1-.85-.254l-23.4-13.604c-.54-.312-1.023-.88-1.368-1.546-.343-.656-.557-1.417-.557-2.118v-3.567c0-.485.103-.892.28-1.196.12-.208.275-.37.458-.482.186-.114.4-.174.628-.174.268 0 .557.083.854.254zm23.105 14.11l-23.4-13.604c-.2-.12-.39-.173-.557-.173a.62.62 0 0 0-.325.087.742.742 0 0 0-.255.273c-.126.22-.2.523-.2.904v3.567c0 .61.187 1.273.488 1.85.3.57.706 1.056 1.145 1.31l23.4 13.604c.203.12.39.174.556.174.123 0 .23-.032.326-.09a.786.786 0 0 0 .257-.272c.126-.218.198-.523.198-.903v-3.57c0-.604-.186-1.267-.487-1.847-.3-.57-.702-1.055-1.142-1.31z"/><path fill="#B2B3B3" d="M97.193 180.797a.294.294 0 0 1 .587 0v8.324a.294.294 0 0 1-.587.002V180.8zM100.822 188.01l.428-.67.43-.67-.858-.497-.857-.498.43 1.167"/><path fill="#B2B3B3" d="M101.62 187.575l-.412.646a.44.44 0 0 1-.797-.057l-.427-1.17-.427-1.166a.445.445 0 0 1 .03-.373.442.442 0 0 1 .602-.158l.857.498.855.498.016.01c.204.13.265.402.133.606l-.43.67zm-.692-.55l.134-.206-.266-.156.01.025.122.335zM112.827 188.67l38.205 22.212c.47.27.893.768 1.192 1.345.297.57.48 1.23.48 1.838v11.908c0 .423-.088.78-.244 1.05-.107.182-.245.33-.41.427a1.044 1.044 0 0 1-.56.156c-.235 0-.49-.072-.753-.223l-38.204-22.21c-.47-.273-.892-.767-1.192-1.344-.295-.57-.48-1.233-.48-1.84v-11.91c0-.422.09-.78.247-1.05.106-.183.244-.326.407-.426.17-.103.36-.157.562-.157.235-.002.492.07.752.222zm37.912 22.716l-38.207-22.21a.937.937 0 0 0-.46-.143.477.477 0 0 0-.256.07.62.62 0 0 0-.206.22c-.104.18-.164.44-.164.757v11.91c0 .514.157 1.077.415 1.568.253.483.596.894.966 1.107l38.204 22.21c.17.097.323.144.46.144a.487.487 0 0 0 .257-.07.634.634 0 0 0 .206-.223c.105-.18.166-.437.166-.756v-11.91c0-.513-.16-1.073-.418-1.567-.25-.482-.593-.89-.964-1.108z"/><path fill="#E6E6E6" d="M77.36 182.524l26.953 15.666v2.596L77.36 185.12"/><path fill="#B2B3B3" d="M162.078 147.702a.295.295 0 0 1-.4-.106.295.295 0 0 1 .107-.4l4.862-2.81a.293.293 0 0 1 .294.507l-4.862 2.81zM162.076 168.552a.294.294 0 0 1-.4-.108.295.295 0 0 1 .11-.398l4.864-2.806a.292.292 0 0 1 .398.107c.08.14.03.317-.107.397l-4.863 2.808zM2.495 65.235L48.91 91.75l-.29.506L2.205 65.743zM2.496 92.66l46.414 26.514-.29.51L2.206 93.17zM2.495 120.086L48.91 146.6l-.29.508-46.416-26.514zM2.498 147.514l46.414 26.514-.29.508-46.414-26.514z"/></svg>