<svg xmlns="http://www.w3.org/2000/svg" width="260" height="260" viewBox="-64.498 -35.692 260 260" overflow="visible"><path fill-rule="evenodd" clip-rule="evenodd" fill="#F6F6F6" d="M86.343 8.88L96.91 3.093c1.59-.87 3.672-.748 5.953.574 4.986 2.89 9.027 10.417 9.027 16.812 0 3.94-.886 5.633-3.832 7.247l-7.236 3.962 15.308 8.876c4.73 2.742 8.6 9.95 8.6 16.02v10.958l-.002-.003.002.175v26.427c0 1.46-.507 2.48-1.308 2.91l-9.317 5.01v26.1c0 1.804-.617 3.073-1.594 3.63l-10.556 6.005-.046-.2c-.848.5-1.974.454-3.205-.26-2.62-1.52-4.766-5.515-4.766-8.878v-1.16l-4.68 2.582c-.872.71-2.12.75-3.502-.052-2.62-1.52-4.766-5.514-4.766-8.878V79.42l-4.056 2.3c-.694.56-1.686.59-2.78-.046-2.085-1.21-3.79-4.388-3.79-7.063V48.187c0-.06 0-.113.002-.17l-.002-.002V37.056c0-3.303 1.146-5.612 2.95-6.592L83.394 25a4.26 4.26 0 0 1 1.78-.798c-1.232-2.694-1.972-5.632-1.972-8.364.003-3.51 1.222-5.95 3.143-6.958z"/><path fill-rule="evenodd" clip-rule="evenodd" fill="#B3B4B4" d="M85.303 6.752L95.78 1.017l.057-.03c1.21-.65 2.586-.92 4.07-.778 1.327.126 2.728.586 4.145 1.41 2.88 1.67 5.453 4.61 7.28 8.02 1.812 3.37 2.932 7.25 2.932 10.84 0 2.354-.296 4.1-1.09 5.602-.826 1.57-2.087 2.687-3.983 3.724l-3.547 1.944 11.676 6.77c2.753 1.598 5.217 4.423 6.972 7.69 1.737 3.233 2.814 6.955 2.814 10.38v10.957c0 .057-.002.114-.007.17h.006v26.428c0 1.048-.2 1.985-.554 2.775-.448 1-1.137 1.753-2.005 2.22l-8.065 4.335v24.69c0 1.215-.223 2.295-.62 3.2-.023.054-.05.106-.076.157-.446.94-1.085 1.68-1.874 2.19-.123.09-.254.166-.39.23l-10.397 5.913c-.405.23-.852.327-1.285.306-.51.128-1.047.17-1.604.126-.82-.066-1.678-.326-2.542-.8a2.38 2.38 0 0 1-.345-.2c-1.63-.997-3.07-2.667-4.096-4.572a14.795 14.795 0 0 1-1.362-3.576l-1.36.752a4.736 4.736 0 0 1-2.895.896c-.934-.013-1.912-.272-2.888-.806a2.563 2.563 0 0 1-.35-.202c-1.63-1-3.072-2.666-4.095-4.574-1.04-1.938-1.688-4.18-1.688-6.252V83.486l-.375.214a4.25 4.25 0 0 1-2.61.81c-.863-.016-1.768-.27-2.66-.786l-.018-.01c-1.425-.832-2.682-2.263-3.56-3.9-.865-1.61-1.4-3.473-1.4-5.202V48.185c0-.06 0-.115.004-.172h-.005V37.056c0-1.95.353-3.657.98-5.065.72-1.6 1.79-2.81 3.123-3.56.05-.03.1-.06.154-.086l9.885-5.358c-.29-.825-.537-1.66-.733-2.49-.37-1.564-.57-3.138-.57-4.656 0-2.062.37-3.855 1.032-5.323.767-1.702 1.926-2.97 3.377-3.73l.064-.035zM98.04 5.17l-10.435 5.715a2.267 2.267 0 0 1-.16.09c-.507.27-.94.772-1.264 1.488-.387.86-.602 1.993-.602 3.375 0 1.163.155 2.372.44 3.58.29 1.244.714 2.475 1.236 3.645a2.37 2.37 0 0 1-1.626 3.465 2.116 2.116 0 0 0-.426.13 2.75 2.75 0 0 0-.257.14 2.386 2.386 0 0 1-.485.324l-9.973 5.407-.04.02c-.464.25-.86.716-1.15 1.37-.358.793-.558 1.85-.558 3.135v10.957h-.006c.005.057.007.113.007.172V74.61c0 .948.316 2.01.826 2.96.467.872 1.062 1.6 1.68 1.994.07.037.14.078.207.122.058.03.108.053.15.07.105-.073.218-.136.334-.19l3.725-2.113a2.373 2.373 0 0 1 3.7 1.967v41.532c0 1.292.426 2.73 1.113 4.01.667 1.242 1.54 2.28 2.46 2.817h.006c.32.187.57.275.747.277.023 0 .04 0 .055-.003.152-.128.322-.236.505-.32l4.417-2.44a2.373 2.373 0 0 1 3.645 2.004v1.16c0 1.29.424 2.73 1.11 4.01.668 1.24 1.54 2.28 2.46 2.816l.007.004c.286.165.525.252.715.267.06.005.094.005.1 0v.004a2.367 2.367 0 0 1 .95-.315l9.65-5.49.038-.02c.043-.025.09-.09.143-.193l.036-.087c.134-.31.21-.74.21-1.292v-26.1h.005c0-.844.452-1.66 1.247-2.087l9.26-4.98-.01-.005h-.003c.08-.183.126-.465.126-.85V67.718h.006a2.435 2.435 0 0 1-.006-.17v-10.96c0-2.643-.858-5.562-2.238-8.135-1.365-2.538-3.2-4.688-5.176-5.835L99.636 33.74v-.002a2.365 2.365 0 0 1 .055-4.123l7.238-3.963c1.05-.574 1.703-1.114 2.054-1.778.388-.732.533-1.806.533-3.394 0-2.807-.9-5.888-2.355-8.6-1.437-2.678-3.38-4.945-5.482-6.164-.82-.476-1.565-.736-2.216-.8-.546-.05-1.025.04-1.422.253zm24.26 89.796c.047-.024-.05.022-.067.025l.01.008.058-.03z"/><path fill-rule="evenodd" clip-rule="evenodd" fill="#FFF" d="M42.852 8.708L32.284 2.922c-1.588-.87-3.672-.75-5.954.574-4.985 2.89-9.026 10.417-9.026 16.812 0 3.943.885 5.637 3.83 7.25l7.238 3.962-15.308 8.876c-4.73 2.744-8.6 9.95-8.6 16.02v10.958l.002-.003c0 .063-.003.12-.003.177v26.427c0 1.46.508 2.48 1.31 2.91l9.317 5.008v26.102c0 1.804.617 3.074 1.593 3.63l10.558 6.004.047-.198c.85.5 1.974.455 3.205-.26 2.622-1.52 4.768-5.515 4.768-8.88v-1.16l4.68 2.585c.872.708 2.12.75 3.5-.052 2.623-1.52 4.768-5.514 4.768-8.878V79.25l4.056 2.3c.69.56 1.684.59 2.777-.046 2.085-1.21 3.793-4.388 3.793-7.062v-26.43c0-.056-.002-.112-.004-.17h.003V36.884c0-3.303-1.146-5.612-2.952-6.59v-.002L45.804 24.83c-.53-.4-1.127-.67-1.78-.798 1.23-2.696 1.97-5.635 1.97-8.365-.002-3.51-1.22-5.948-3.14-6.96z"/><path fill-rule="evenodd" clip-rule="evenodd" fill="#B3B4B4" d="M43.81 6.54c.11.047.216.103.318.168 1.37.77 2.468 2.004 3.205 3.638.66 1.467 1.03 3.26 1.03 5.322 0 1.518-.2 3.09-.57 4.656-.194.83-.44 1.664-.73 2.49l9.884 5.36c.053.026.104.054.154.084 1.333.75 2.405 1.957 3.12 3.562.633 1.407.985 3.115.985 5.065V47.84H61.2l-.002.035c.004.047.006.092.006.138V74.44c0 1.73-.537 3.594-1.4 5.203-.848 1.574-2.043 2.96-3.4 3.802a2.218 2.218 0 0 1-.367.212c-.83.448-1.67.668-2.473.68a4.243 4.243 0 0 1-2.61-.808l-.374-.215v37.464c0 2.072-.647 4.313-1.688 6.253-1.023 1.905-2.467 3.575-4.096 4.574-.11.076-.226.144-.348.2-.977.532-1.955.794-2.888.808a4.738 4.738 0 0 1-2.897-.9l-1.357-.75a14.868 14.868 0 0 1-1.36 3.574c-1.024 1.906-2.468 3.574-4.097 4.573-.11.076-.227.144-.348.2-.863.473-1.72.733-2.54.8-.558.044-1.095 0-1.605-.124-.436.02-.88-.077-1.285-.308l-10.396-5.913a2.273 2.273 0 0 1-.387-.23c-.84-.54-1.507-1.336-1.956-2.36-.396-.9-.62-1.98-.62-3.19V103.3l-7.92-4.257a2.258 2.258 0 0 1-.35-.196c-.774-.473-1.39-1.182-1.8-2.093l.004-.002-.005-.008c-.355-.79-.555-1.73-.555-2.775V67.544h.006c-.003-.057-.006-.114-.006-.172V56.416c0-3.424 1.078-7.146 2.814-10.378 1.753-3.267 4.22-6.095 6.973-7.69l11.675-6.77L20 29.635c-1.895-1.038-3.155-2.152-3.984-3.725-.79-1.5-1.088-3.246-1.088-5.602 0-3.588 1.12-7.468 2.932-10.842 1.828-3.406 4.4-6.35 7.28-8.02 1.422-.82 2.82-1.28 4.148-1.41 1.496-.143 2.884.135 4.1.796l.027.015L43.81 6.54zm-2.215 4.177l-10.262-5.62a2.215 2.215 0 0 1-.304-.162c-.37-.17-.81-.236-1.3-.188-.65.062-1.395.322-2.215.8-2.104 1.218-4.045 3.484-5.483 6.164-1.455 2.71-2.356 5.794-2.356 8.6 0 1.59.146 2.66.533 3.396.35.664 1.005 1.203 2.054 1.776l7.238 3.964a2.366 2.366 0 0 1 .055 4.123v.003L14.25 42.447c-1.976 1.146-3.81 3.297-5.174 5.836-1.38 2.572-2.238 5.49-2.238 8.135v10.958c0 .058-.003.115-.006.172h.006v26.427c0 .378.043.657.123.84l.006-.002c0 .002 0 .004-.003.004l.003.006.008.018 9.238 4.968a2.367 2.367 0 0 1 1.247 2.086h.005v26.1c0 .56.074.996.21 1.302.065.15.126.242.177.272l.02.01 9.672 5.5a2.5 2.5 0 0 1 .264.043c.246.058.478.15.685.273l.002-.003c.006.003.04.003.1-.002.19-.016.43-.102.715-.267l.006-.002c.918-.535 1.793-1.574 2.46-2.817.687-1.277 1.112-2.72 1.112-4.01v-1.16a2.374 2.374 0 0 1 3.644-2.003l4.42 2.44c.182.086.35.193.502.32a.35.35 0 0 0 .054.004c.18 0 .43-.092.75-.276l.005-.004c.92-.536 1.794-1.575 2.462-2.817.686-1.28 1.112-2.72 1.112-4.01V79.25a2.373 2.373 0 0 1 3.703-1.967l3.722 2.112c.116.055.23.118.335.188.064-.024.15-.066.26-.13l.007-.003c.65-.38 1.28-1.14 1.77-2.05.51-.95.827-2.014.827-2.96V48.013c0-.057.003-.114.006-.172h-.006V36.887c0-1.287-.2-2.342-.557-3.14-.29-.65-.688-1.114-1.154-1.367l-.04-.02-9.98-5.41a2.312 2.312 0 0 1-.455-.306l-.022-.018a1.98 1.98 0 0 0-.258-.14 1.99 1.99 0 0 0-.428-.128 2.373 2.373 0 0 1-1.625-3.467c.523-1.17.943-2.4 1.236-3.645.284-1.207.438-2.417.438-3.58 0-1.38-.215-2.516-.604-3.375-.324-.717-.757-1.223-1.266-1.488a1.547 1.547 0 0 1-.153-.085zM6.958 94.814c-.028-.004-.11-.043-.064-.018l.02.012.026.014.018-.008z"/><path fill-rule="evenodd" clip-rule="evenodd" fill="#F6F6F6" d="M89.6 25.184l26.53 15.382c4.73 2.744 8.6 9.953 8.6 16.02v10.96l-.002-.004.002.174v26.427c0 1.46-.507 2.48-1.308 2.91l-9.317 5.01v26.1c0 1.804-.617 3.073-1.594 3.63l-10.556 6.005-2.993-13.272-9.7 5.357-2.8-53.564-9.524 5.4-3.62-51.256L83.396 25c1.567-1.193 3.772-1.23 6.205.183z"/><path fill-rule="evenodd" clip-rule="evenodd" fill="#B3B4B4" d="M89.747 24.927l26.53 15.385c2.415 1.398 4.604 3.93 6.187 6.878 1.58 2.945 2.562 6.313 2.562 9.397v10.958c0 .015-.002.028-.004.044l.002.122v.003h.002v26.427c0 .757-.132 1.408-.368 1.932v.002c-.254.566-.63.986-1.096 1.235l-9.16 4.927v25.925c0 .926-.16 1.723-.44 2.366l-.01.017c-.298.668-.732 1.172-1.267 1.484a.187.187 0 0 1-.052.03l-10.534 5.99a.298.298 0 0 1-.405-.11.244.244 0 0 1-.03-.08l-2.908-12.886-9.358 5.168a.297.297 0 0 1-.44-.257l-2.77-53.073-9.105 5.168a.298.298 0 0 1-.404-.11.31.31 0 0 1-.037-.126l-3.62-51.257a.294.294 0 0 1 .154-.28l10.068-5.46c.847-.634 1.866-.955 3-.922 1.08.03 2.268.388 3.503 1.104zm26.235 15.896L89.45 25.44c-1.15-.665-2.24-.998-3.226-1.027-.997-.028-1.89.252-2.63.808a.344.344 0 0 1-.07.05l-9.9 5.365 3.572 50.6 9.105-5.167a.296.296 0 0 1 .452.236l2.775 53.094 9.29-5.13a.28.28 0 0 1 .08-.028.294.294 0 0 1 .352.222l2.904 12.882 10.196-5.798.015-.01c.437-.25.797-.667 1.048-1.23l.006-.016c.25-.567.387-1.283.387-2.126v-26.1a.3.3 0 0 1 .157-.263l9.317-5.01c.35-.186.64-.51.837-.955h.002c.2-.447.31-1.018.31-1.69v-37.56c0-2.983-.952-6.254-2.49-9.114-1.533-2.857-3.643-5.302-5.96-6.646zm-14.317 97.038l.142-.32a.293.293 0 0 0-.142.32zm0 .003zM88.96 129.9v-.01.01z"/><path fill-rule="evenodd" clip-rule="evenodd" fill="#F6F6F6" d="M102.863 3.667c4.986 2.89 9.025 10.417 9.025 16.812 0 3.94-.884 5.633-3.83 7.247l-9.18 5.027L86.342 8.88 96.91 3.093c1.59-.87 3.672-.748 5.953.574z"/><path fill-rule="evenodd" clip-rule="evenodd" fill="#B3B4B4" d="M103.013 3.412c2.54 1.473 4.837 4.12 6.493 7.207 1.656 3.082 2.68 6.612 2.68 9.86 0 2.017-.23 3.47-.845 4.634-.617 1.176-1.612 2.037-3.14 2.873l-9.18 5.028a.298.298 0 0 1-.4-.118l-.008-.015L86.08 9.017a.298.298 0 0 1 .12-.396l10.57-5.785.02-.01c.857-.465 1.846-.66 2.924-.555 1.03.1 2.143.47 3.3 1.142zm5.97 7.487c-1.607-3-3.823-5.56-6.268-6.978-1.08-.628-2.112-.975-3.06-1.066-.965-.093-1.845.08-2.602.493l-.013.006-.01.005L86.74 9 99 32.353l8.918-4.883c1.42-.777 2.34-1.57 2.9-2.63.563-1.07.773-2.437.773-4.36.003-3.148-.993-6.58-2.605-9.58zM97.056 3.35l-.003.002.003-.002z"/><path fill-rule="evenodd" clip-rule="evenodd" fill="#FFF" d="M92.23 9.492c4.983 2.89 9.024 10.418 9.024 16.812 0 6.396-4.04 9.237-9.025 6.347-4.986-2.89-9.027-10.416-9.027-16.81 0-6.396 4.04-9.237 9.025-6.347zM78.963 31.01c-4.73-2.744-8.6-.023-8.6 6.046v10.957h.002l-.002.172V74.61c0 2.677 1.705 5.855 3.79 7.064 2.086 1.208 3.792.008 3.792-2.666V53.443c0-3.066 3.043-1.285 3.043 1.738v65.77c0 3.366 2.144 7.36 4.765 8.88 2.62 1.52 4.767.01 4.767-3.35V90.133c0-3.218 3.415-1.28 3.415 1.98v36.346c0 3.362 2.145 7.358 4.766 8.878 2.62 1.52 4.768.012 4.768-3.353v-66.28c0-2.478 3.045-.714 3.045 1.765l-.002 26.1c0 2.677 1.707 5.855 3.79 7.064 2.088 1.208 3.793.01 3.793-2.666V73.54c0-.057 0-.113-.002-.173l.003.003V62.412c0-6.068-3.87-13.277-8.6-16.02L78.965 31.01z"/><path fill-rule="evenodd" clip-rule="evenodd" fill="#B3B4B4" d="M92.377 9.236c2.54 1.474 4.836 4.12 6.494 7.207 1.658 3.084 2.683 6.615 2.683 9.86 0 2.095-.428 3.824-1.176 5.116-.496.852-1.134 1.52-1.88 1.967a4.888 4.888 0 0 1-2.555.69c-1.18 0-2.49-.377-3.86-1.17-2.54-1.475-4.836-4.122-6.494-7.21-1.654-3.083-2.68-6.613-2.68-9.86 0-2.095.427-3.825 1.176-5.115.496-.854 1.133-1.518 1.88-1.968a4.89 4.89 0 0 1 2.555-.69c1.18 0 2.49.376 3.86 1.17zm5.972 7.487c-1.61-2.997-3.827-5.56-6.27-6.976-1.275-.74-2.48-1.09-3.564-1.09-.832 0-1.59.207-2.248.604-.663.4-1.23.993-1.675 1.76-.696 1.2-1.094 2.83-1.094 4.82 0 3.147.996 6.58 2.606 9.58 1.608 2.995 3.826 5.56 6.27 6.975 1.275.74 2.482 1.09 3.564 1.09.83 0 1.59-.21 2.25-.603.66-.398 1.228-.99 1.673-1.758.697-1.202 1.094-2.83 1.094-4.818 0-3.148-.997-6.58-2.608-9.58zm-19.24 14.03c-1.3-.754-2.54-1.11-3.666-1.11-.9 0-1.73.23-2.453.664-.716.433-1.33 1.07-1.804 1.89-.715 1.23-1.12 2.875-1.12 4.86v10.956l.003.033-.003.107V74.61c0 1.388.44 2.9 1.148 4.223.71 1.32 1.692 2.457 2.78 3.092l.01.006c.598.348 1.174.51 1.697.51.43 0 .823-.106 1.168-.313.34-.206.63-.507.855-.894.33-.567.518-1.32.518-2.224V53.442c0-.694.156-1.084.386-1.23a.486.486 0 0 1 .35-.06c.16.028.334.113.508.244.626.473 1.203 1.504 1.203 2.784v65.77c0 1.733.55 3.62 1.437 5.273.89 1.654 2.12 3.077 3.478 3.865.74.43 1.452.633 2.097.633.524 0 1.006-.133 1.43-.387.415-.25.77-.62 1.046-1.095.407-.702.64-1.635.64-2.758V90.132c0-.718.172-1.123.428-1.277a.602.602 0 0 1 .424-.062c.185.032.386.126.587.27.717.52 1.382 1.65 1.382 3.05v36.346c0 1.73.55 3.62 1.435 5.27.885 1.646 2.108 3.062 3.46 3.852a.18.18 0 0 0 .04.023c.733.42 1.44.622 2.076.622v-.002a2.74 2.74 0 0 0 1.43-.387c.417-.25.77-.62 1.046-1.095.406-.702.64-1.637.64-2.76v-66.28c0-.482.12-.75.302-.848v-.002a.527.527 0 0 1 .353-.036c.16.028.33.103.504.215l.018.013c.654.43 1.276 1.353 1.276 2.423v26.1h-.002c0 1.388.44 2.902 1.15 4.223.71 1.326 1.697 2.466 2.787 3.1.6.347 1.176.51 1.7.51.428 0 .822-.107 1.166-.314.34-.206.63-.508.853-.893.33-.566.517-1.32.517-2.225V73.536l-.003-.123a.232.232 0 0 0 .004-.044V62.41c0-3.082-.98-6.452-2.56-9.396-1.584-2.95-3.773-5.48-6.187-6.88l-26.53-15.382zm26.234 15.895l-26.53-15.383c-1.203-.697-2.345-1.027-3.37-1.027a4.09 4.09 0 0 0-2.145.577c-.633.38-1.176.948-1.6 1.68-.66 1.14-1.04 2.684-1.04 4.562v37.555c0 1.29.414 2.703 1.078 3.94.658 1.23 1.56 2.278 2.547 2.856l.037.022c.496.283.963.418 1.38.418.32 0 .61-.08.862-.23.256-.154.477-.385.65-.683.275-.478.434-1.13.434-1.927V53.443c0-.92.268-1.477.66-1.73.23-.147.498-.19.774-.143a1.8 1.8 0 0 1 .76.355c.752.566 1.44 1.775 1.44 3.256v65.77c0 1.635.523 3.426 1.365 4.99.84 1.566 1.99 2.903 3.253 3.636.646.373 1.256.55 1.8.55.416 0 .795-.103 1.123-.3.333-.2.617-.5.842-.887.354-.61.557-1.443.557-2.46V90.133c0-.95.287-1.524.713-1.783.25-.15.535-.192.835-.14.272.048.56.177.832.376.846.612 1.63 1.924 1.63 3.527v36.347c0 1.632.52 3.422 1.362 4.99.84 1.56 1.99 2.896 3.248 3.63h.006c.647.375 1.257.554 1.802.554.414 0 .793-.103 1.122-.3.332-.202.617-.5.842-.886.354-.61.558-1.445.558-2.463v-66.28c0-.73.243-1.168.613-1.37v.002c.22-.12.476-.148.74-.1.237.044.484.15.724.306l.02.01c.79.52 1.54 1.633 1.54 2.917l-.002 26.1c0 1.29.413 2.703 1.078 3.942.662 1.233 1.57 2.29 2.564 2.865.504.29.98.43 1.402.43.32 0 .61-.078.86-.23a1.87 1.87 0 0 0 .648-.682c.276-.477.435-1.13.435-1.927V62.413c0-2.985-.953-6.255-2.49-9.116-1.534-2.86-3.644-5.306-5.96-6.648z"/><path fill-rule="evenodd" clip-rule="evenodd" fill="#FFF" d="M39.595 25.013l-26.53 15.383c-4.73 2.744-8.6 9.95-8.6 16.02v10.958l.002-.002c0 .06-.003.117-.003.174v26.427c0 1.46.508 2.48 1.31 2.91l9.317 5.008v26.103c0 1.804.62 3.074 1.595 3.63l10.558 6.004 2.993-13.27 9.702 5.356 2.8-53.565 9.524 5.403 3.62-51.255L45.8 24.83c-1.57-1.192-3.774-1.227-6.207.183z"/><path fill-rule="evenodd" clip-rule="evenodd" fill="#B3B4B4" d="M39.743 25.27l-26.53 15.383c-4.922 2.853-8.45 10.173-8.45 15.763v10.958l-.002.172h.003v26.427c0 .674.112 1.24.312 1.69.2.443.488.77.838.958l9.317 5.01c.1.055.155.156.155.26v26.103c0 .844.14 1.56.39 2.13.25.57.612.99 1.054 1.242l.014.01 10.196 5.8 2.906-12.884a.293.293 0 0 1 .43-.194l9.29 5.13 2.774-53.094a.298.298 0 0 1 .452-.235l9.106 5.166 3.57-50.596L45.67 25.1a.318.318 0 0 1-.07-.05c-.74-.554-1.633-.834-2.63-.804-.986.028-2.077.36-3.226 1.026zm-24.95 76.798l-9.18-4.852-1.282-.428-.16-2.816V56.416l-.407-5.192 3.56-7.548 5.595-3.534 26.53-15.384c1.236-.717 2.422-1.074 3.507-1.105 1.133-.033 2.152.287 3 .922l10.067 5.458a.3.3 0 0 1 .155.282l-3.62 51.255a.296.296 0 0 1-.44.235L43.01 76.64l-2.774 53.075v.012l-25.44-27.66zm0 25.923v-25.92 25.923zm.44 2.367c-.283-.644-.44-1.44-.44-2.365l.44 2.366zm1.276 1.504c-.543-.314-.98-.824-1.277-1.503l1.275 1.504zm.05.03c-.02-.007-.036-.02-.05-.03l.05.03zm10.534 5.993L16.56 131.89l10.535 5.992zm.435-.19a.65.65 0 0 1-.03.08.3.3 0 0 1-.406.11l.435-.19zm2.904-12.89l-2.904 12.89 2.905-12.89zm9.36 5.168l-9.36-5.167 9.36 5.168zm.4-.114a.292.292 0 0 1-.4.115l.4-.114z"/><path fill-rule="evenodd" clip-rule="evenodd" fill="#FFF" d="M26.33 3.497c-4.985 2.89-9.026 10.417-9.026 16.812 0 3.94.885 5.635 3.83 7.25l9.184 5.025L42.852 8.708 32.284 2.922c-1.588-.87-3.672-.75-5.954.575z"/><path fill-rule="evenodd" clip-rule="evenodd" fill="#B3B4B4" d="M26.48 3.752c-2.446 1.416-4.662 3.98-6.27 6.977-1.613 2.997-2.61 6.43-2.61 9.577 0 1.924.213 3.292.775 4.36.56 1.062 1.48 1.853 2.9 2.63l8.918 4.883L42.456 8.83 32.16 3.19l-.008-.004-.014-.007c-.756-.415-1.636-.59-2.6-.495-.945.09-1.978.44-3.06 1.066zm-6.792 6.695c1.656-3.087 3.953-5.733 6.494-7.206 1.156-.67 2.27-1.043 3.3-1.14 1.077-.105 2.065.09 2.924.554l.02.01L42.993 8.45c.14.076.194.253.12.396L30.583 32.71l-.006.016a.298.298 0 0 1-.402.12l-9.182-5.03c-1.525-.834-2.52-1.697-3.14-2.87-.615-1.167-.846-2.62-.846-4.638 0-3.245 1.025-6.777 2.68-9.86zm12.45-7.268a.296.296 0 0 1-.126-.373l.127.37zm.006 0h-.005.003z"/><path fill-rule="evenodd" clip-rule="evenodd" fill="#F6F6F6" d="M36.965 9.32c-4.983 2.892-9.024 10.418-9.024 16.813 0 6.396 4.043 9.237 9.026 6.348 4.985-2.89 9.026-10.416 9.026-16.81 0-6.397-4.04-9.24-9.025-6.35zM50.23 30.838c4.73-2.743 8.6-.02 8.6 6.048V47.84l-.003.003c.002.057.004.113.004.17V74.44c0 2.676-1.706 5.854-3.79 7.063-2.085 1.208-3.79.01-3.79-2.666V53.272c0-3.066-3.044-1.286-3.044 1.736v65.772c0 3.365-2.145 7.36-4.767 8.88-2.62 1.52-4.767.012-4.767-3.352V89.962c0-3.218-3.415-1.28-3.415 1.98v36.345c0 3.364-2.146 7.36-4.767 8.88-2.62 1.52-4.765.012-4.765-3.353v-66.28c0-2.476-3.045-.712-3.045 1.767v26.1c0 2.677-1.705 5.856-3.79 7.064-2.086 1.21-3.79.01-3.79-2.667V62.24c0-6.066 3.868-13.276 8.6-16.02l26.53-15.383z"/><path fill-rule="evenodd" clip-rule="evenodd" fill="#B3B4B4" d="M37.113 9.578c-2.443 1.415-4.66 3.98-6.27 6.976-1.61 3-2.607 6.43-2.607 9.58 0 1.987.397 3.616 1.095 4.82.445.765 1.014 1.356 1.676 1.756a4.3 4.3 0 0 0 2.247.604c1.082 0 2.29-.35 3.564-1.09 2.444-1.416 4.66-3.98 6.27-6.976 1.61-3 2.608-6.432 2.608-9.58 0-1.99-.397-3.618-1.094-4.818-.444-.768-1.01-1.36-1.675-1.758a4.3 4.3 0 0 0-2.247-.605c-1.08 0-2.287.35-3.564 1.09zm-6.79 6.693c1.658-3.086 3.953-5.73 6.493-7.205 1.37-.794 2.68-1.17 3.86-1.17.94 0 1.803.237 2.555.69.75.448 1.387 1.113 1.883 1.967.748 1.292 1.175 3.022 1.175 5.117 0 3.245-1.024 6.776-2.68 9.86-1.657 3.087-3.953 5.734-6.494 7.206-1.37.796-2.678 1.173-3.86 1.173-.94 0-1.802-.24-2.554-.69-.75-.45-1.386-1.115-1.882-1.97-.747-1.29-1.175-3.02-1.175-5.116 0-3.246 1.024-6.777 2.68-9.86zM50.38 31.095c1.202-.697 2.344-1.028 3.367-1.028a4.1 4.1 0 0 1 2.146.577c.635.383 1.176.95 1.6 1.682.662 1.14 1.04 2.684 1.04 4.562V47.85l.002.144v26.45c0 1.286-.415 2.7-1.08 3.94-.662 1.232-1.57 2.288-2.564 2.864-.5.293-.976.43-1.4.43-.32 0-.61-.078-.86-.23a1.86 1.86 0 0 1-.65-.682c-.273-.478-.433-1.13-.433-1.927V53.27c0-.922-.268-1.477-.66-1.73a1.045 1.045 0 0 0-.774-.143 1.764 1.764 0 0 0-.76.352c-.752.565-1.44 1.775-1.44 3.255v65.772c0 1.634-.524 3.424-1.366 4.99-.836 1.558-1.98 2.89-3.236 3.624-.013.007-.024.015-.04.02-.635.367-1.24.54-1.776.54a2.16 2.16 0 0 1-1.122-.3c-.33-.2-.616-.5-.84-.885-.356-.61-.558-1.445-.558-2.46V89.96c0-.952-.29-1.524-.713-1.782a1.187 1.187 0 0 0-.834-.144c-.273.05-.56.18-.834.377-.843.613-1.626 1.925-1.626 3.53v36.345c0 1.632-.523 3.423-1.365 4.99-.84 1.563-1.99 2.902-3.254 3.634-.646.374-1.257.553-1.8.553v-.003c-.415 0-.794-.102-1.122-.3a2.447 2.447 0 0 1-.842-.883c-.353-.612-.556-1.445-.556-2.463v-66.28c0-.73-.244-1.17-.614-1.367a1.117 1.117 0 0 0-.74-.098c-.237.04-.483.146-.725.3l-.018.014c-.79.52-1.543 1.633-1.543 2.916l.004 26.1h-.002c0 1.29-.412 2.703-1.078 3.94-.663 1.235-1.57 2.29-2.565 2.867-.504.29-.98.43-1.402.43-.32 0-.61-.078-.86-.23a1.852 1.852 0 0 1-.647-.682c-.277-.478-.436-1.13-.436-1.93V73.37h-.002l.003-.153a.226.226 0 0 0 0-.052V62.24c0-2.984.954-6.254 2.49-9.116 1.534-2.858 3.646-5.304 5.96-6.646l26.53-15.385zm-26.83 14.87L50.08 30.58c1.298-.75 2.54-1.107 3.665-1.107.903 0 1.73.23 2.453.664.72.432 1.33 1.07 1.807 1.892.713 1.23 1.12 2.87 1.12 4.856V47.84l-.003.038v.105l.003.03V74.44c0 1.387-.44 2.9-1.15 4.22-.71 1.327-1.7 2.466-2.79 3.098-.598.35-1.174.512-1.697.512-.428 0-.822-.108-1.168-.315a2.48 2.48 0 0 1-.854-.893c-.328-.567-.517-1.32-.517-2.225V53.272c0-.695-.155-1.083-.386-1.23a.486.486 0 0 0-.354-.058 1.21 1.21 0 0 0-.505.242c-.627.473-1.204 1.504-1.204 2.782v65.772c0 1.732-.55 3.622-1.435 5.272-.886 1.648-2.113 3.068-3.468 3.857l-.01.004c-.74.43-1.452.633-2.098.633a2.754 2.754 0 0 1-1.43-.387c-.418-.25-.77-.62-1.047-1.094-.406-.702-.64-1.636-.64-2.76V89.963c0-.717-.17-1.122-.427-1.276a.6.6 0 0 0-.424-.065 1.55 1.55 0 0 0-.587.274c-.717.52-1.382 1.65-1.382 3.05v36.344c0 1.73-.55 3.62-1.436 5.27-.89 1.657-2.12 3.08-3.48 3.866-.737.428-1.45.632-2.097.63v.003a2.73 2.73 0 0 1-1.428-.39 3.006 3.006 0 0 1-1.048-1.094c-.406-.702-.64-1.635-.64-2.76v-66.28c0-.48-.12-.75-.303-.848a.53.53 0 0 0-.354-.038c-.156.028-.33.103-.5.213l-.02.014c-.653.43-1.275 1.354-1.275 2.424v26.1h.004c0 1.39-.44 2.9-1.15 4.223-.71 1.325-1.698 2.466-2.79 3.098-.598.347-1.175.513-1.698.513-.428 0-.822-.11-1.166-.317a2.432 2.432 0 0 1-.855-.892c-.33-.567-.517-1.32-.517-2.226V73.366l.004-.124a.206.206 0 0 1-.004-.044V62.24c0-3.082.98-6.452 2.562-9.396 1.588-2.948 3.778-5.48 6.192-6.88z"/><path fill-rule="evenodd" clip-rule="evenodd" fill="#E5EDD0" d="M18.353 59.195l10.566-5.787c1.587-.87 3.672-.75 5.953.574C39.858 56.872 43.9 64.4 43.9 70.794c0 3.942-.886 5.636-3.83 7.248l-7.24 3.964 15.31 8.876c4.73 2.74 8.6 9.95 8.6 16.02v10.957l-.003-.004.003.174v26.428c0 1.46-.508 2.48-1.308 2.908l-9.317 5.01v26.1c0 1.806-.617 3.075-1.594 3.632l-10.557 6.004-.044-.2c-.85.502-1.975.456-3.207-.26-2.62-1.52-4.766-5.513-4.766-8.878v-1.16l-4.68 2.585c-.873.706-2.12.746-3.5-.054h-.002c-2.62-1.52-4.767-5.517-4.767-8.88v-41.53l-4.054 2.3c-.693.56-1.685.59-2.78-.048-2.084-1.21-3.79-4.388-3.79-7.063V98.5c0-.057 0-.114.002-.17l-.003-.002V87.37c0-3.3 1.146-5.61 2.952-6.592l10.078-5.463a4.3 4.3 0 0 1 1.78-.8c-1.232-2.693-1.97-5.63-1.97-8.362 0-3.51 1.22-5.948 3.14-6.958z"/><path fill-rule="evenodd" clip-rule="evenodd" fill="#98CA3C" d="M17.076 57.194a2.31 2.31 0 0 1 .317-.17l10.395-5.694.06-.03c1.208-.647 2.583-.92 4.068-.775 1.327.127 2.727.587 4.146 1.41 2.88 1.67 5.45 4.61 7.28 8.018 1.81 3.372 2.93 7.255 2.93 10.843 0 2.354-.297 4.1-1.087 5.602-.83 1.57-2.088 2.685-3.984 3.724l-3.547 1.944 11.674 6.77c2.754 1.596 5.22 4.424 6.973 7.69 1.737 3.232 2.814 6.953 2.814 10.378v10.957c0 .06-.003.117-.007.174h.007v26.427c0 1.05-.2 1.986-.554 2.776-.413.917-1.025 1.626-1.793 2.097a2.19 2.19 0 0 1-.357.2l-7.922 4.26v24.687c0 1.21-.222 2.287-.62 3.192-.446 1.02-1.114 1.816-1.95 2.355a2.16 2.16 0 0 1-.39.23L35.13 190.17c-.403.23-.85.327-1.282.307a4.96 4.96 0 0 1-1.604.124c-.877-.07-1.795-.36-2.72-.896l-.045-.027c-1.68-.99-3.17-2.693-4.22-4.648a14.874 14.874 0 0 1-1.363-3.575l-1.357.75a4.71 4.71 0 0 1-2.895.9c-.99-.015-2.03-.307-3.064-.906l-.02-.013c-1.69-.986-3.19-2.7-4.244-4.664-1.042-1.94-1.688-4.18-1.688-6.252v-37.464l-.374.212a4.27 4.27 0 0 1-2.61.81c-.865-.015-1.77-.27-2.663-.787-1.43-.83-2.692-2.264-3.575-3.906-.87-1.616-1.405-3.48-1.405-5.208V98.5c0-.06.002-.115.007-.172H0V87.37c0-1.95.353-3.657.982-5.063.718-1.604 1.79-2.812 3.122-3.562.05-.03.1-.058.152-.085l9.887-5.36c-.293-.825-.54-1.66-.734-2.49-.37-1.564-.57-3.137-.57-4.655 0-2.06.37-3.854 1.03-5.32.737-1.638 1.837-2.872 3.205-3.64zm12.974-1.71l-10.44 5.72c-.05.03-.1.06-.153.087-.508.27-.94.773-1.266 1.488-.386.86-.602 1.995-.602 3.376 0 1.162.154 2.373.44 3.58a20.287 20.287 0 0 0 1.237 3.646 2.37 2.37 0 0 1-1.627 3.463 2.172 2.172 0 0 0-.427.13 1.8 1.8 0 0 0-.283.162c-.142.117-.296.22-.46.303L6.49 82.844l-.037.02c-.467.255-.862.72-1.153 1.37-.357.798-.556 1.852-.556 3.138V98.33H4.74c.004.056.007.112.007.17v26.428c0 .946.316 2.01.826 2.96.492.916 1.125 1.675 1.778 2.053.11.065.196.108.263.133.104-.07.217-.135.334-.19l3.723-2.112a2.373 2.373 0 0 1 3.702 1.968v41.533c0 1.29.426 2.73 1.113 4.01.642 1.196 1.477 2.204 2.357 2.756.076.038.15.08.223.13.265.14.48.21.634.212.02 0 .04 0 .052-.004a2.42 2.42 0 0 1 .502-.32l4.42-2.44a2.375 2.375 0 0 1 3.645 2.005v1.16c0 1.29.425 2.73 1.11 4.007.643 1.194 1.477 2.2 2.355 2.753.08.038.154.084.227.13.236.126.436.193.6.206.06.004.094.004.102 0v.003a2.316 2.316 0 0 1 .95-.317l9.65-5.487.04-.023c.05-.03.11-.12.178-.27.135-.31.21-.744.21-1.303v-26.1h.005a2.37 2.37 0 0 1 1.246-2.086l9.262-4.98-.012-.003h-.002c.083-.18.13-.466.13-.848v-26.426h.005a2.428 2.428 0 0 1-.006-.172v-10.957c0-2.644-.86-5.562-2.24-8.135-1.362-2.54-3.2-4.69-5.175-5.836L31.648 84.06v-.003a2.366 2.366 0 0 1 .054-4.123l7.24-3.963c1.048-.573 1.704-1.113 2.054-1.777.387-.734.533-1.808.533-3.395 0-2.807-.9-5.888-2.357-8.6-1.437-2.678-3.378-4.944-5.48-6.165-.82-.476-1.567-.735-2.218-.798-.547-.055-1.027.035-1.422.25zm24.26 89.797c.047-.023-.05.024-.068.028l.012.004.035-.018.02-.01z"/><path fill-rule="evenodd" clip-rule="evenodd" fill="#E5EDD0" d="M21.608 75.498L48.14 90.882c4.73 2.74 8.6 9.95 8.6 16.02v10.957l-.003-.004.003.174v26.428c0 1.46-.508 2.48-1.308 2.908l-9.317 5.01v26.1c0 1.806-.62 3.074-1.594 3.632l-10.557 6.004-2.992-13.272-9.702 5.36-2.8-53.567-9.522 5.403-3.62-51.258 10.078-5.463c1.568-1.19 3.773-1.228 6.205.183z"/><path fill-rule="evenodd" clip-rule="evenodd" fill="#98CA3C" d="M21.757 75.244l26.53 15.382c2.414 1.4 4.603 3.93 6.187 6.88 1.58 2.942 2.562 6.314 2.562 9.396v10.957c0 .013 0 .026-.003.04l.002.126v26.434c0 .757-.13 1.407-.366 1.932v.002c-.255.565-.63.986-1.1 1.236l-9.16 4.924v25.925c0 .924-.157 1.72-.44 2.363-.297.68-.734 1.19-1.275 1.507-.016.012-.033.02-.05.03l-10.535 5.99a.295.295 0 0 1-.434-.193L30.77 175.29l-9.357 5.166a.295.295 0 0 1-.438-.253L18.2 127.126l-9.107 5.167c-.14.08-.32.03-.402-.11a.32.32 0 0 1-.035-.126H8.65L5.03 80.8a.3.3 0 0 1 .154-.282L15.25 75.06c.85-.636 1.867-.957 3-.922 1.085.03 2.27.388 3.507 1.106zM47.99 91.137L21.46 75.754c-1.148-.666-2.24-.998-3.225-1.025-.997-.03-1.892.25-2.632.803a.298.298 0 0 1-.075.05l-9.895 5.364 3.572 50.6 9.105-5.167a.297.297 0 0 1 .452.238l2.775 53.094 9.29-5.13a.296.296 0 0 1 .43.193l2.905 12.883 10.195-5.798.016-.01c.44-.252.805-.673 1.055-1.243.25-.57.39-1.286.39-2.13v-26.1c0-.105.057-.21.155-.262l9.317-5.01c.35-.187.638-.513.838-.957.2-.448.313-1.018.313-1.69V118.03h.003l-.003-.156v-10.972c0-2.985-.953-6.255-2.49-9.118-1.533-2.858-3.642-5.304-5.96-6.647zm8.45 26.737v-.013.015zm-22.766 70.3l.143-.32a.297.297 0 0 0-.143.32zm0 0zm-12.703-7.962v-.01.01z"/><path fill-rule="evenodd" clip-rule="evenodd" fill="#E5EDD0" d="M34.874 53.982C39.858 56.872 43.9 64.4 43.9 70.794c0 3.942-.886 5.636-3.83 7.248l-9.184 5.028-12.533-23.875 10.566-5.787c1.587-.87 3.672-.75 5.953.574z"/><path fill-rule="evenodd" clip-rule="evenodd" fill="#98CA3C" d="M35.022 53.726c2.54 1.473 4.837 4.12 6.494 7.207 1.654 3.083 2.68 6.615 2.68 9.86 0 2.02-.23 3.472-.847 4.638-.62 1.175-1.616 2.038-3.14 2.873l-9.184 5.027a.297.297 0 0 1-.4-.118l-.008-.016-12.53-23.864a.296.296 0 0 1 .122-.396l10.566-5.787.02-.01c.857-.466 1.846-.66 2.924-.557 1.03.098 2.144.472 3.3 1.142zm5.973 7.488c-1.608-2.996-3.826-5.56-6.27-6.976-1.08-.628-2.113-.976-3.06-1.066-.966-.094-1.845.08-2.6.492l-.015.008-.01.004-10.293 5.638 12.26 23.354 8.92-4.883c1.418-.778 2.34-1.57 2.898-2.63.562-1.07.775-2.437.775-4.36.003-3.15-.994-6.58-2.605-9.58zm-11.93-7.55l-.005.004.005-.003z"/><path fill-rule="evenodd" clip-rule="evenodd" fill="#FFF" d="M24.24 59.807c4.982 2.89 9.023 10.416 9.023 16.812s-4.04 9.234-9.024 6.344c-4.988-2.89-9.028-10.417-9.028-16.812 0-6.395 4.04-9.236 9.026-6.346zM10.972 81.323c-4.73-2.742-8.6-.02-8.6 6.047v10.958h.003l-.003.172v26.427c0 2.675 1.707 5.853 3.792 7.062 2.084 1.21 3.79.01 3.79-2.668V103.76c0-3.066 3.043-1.287 3.043 1.736v65.772c0 3.362 2.146 7.358 4.767 8.88 2.62 1.518 4.768.01 4.768-3.354v-36.346c0-3.217 3.414-1.28 3.414 1.98v36.345c0 3.365 2.146 7.36 4.766 8.88 2.62 1.52 4.766.01 4.766-3.352v-66.28c0-2.475 3.046-.71 3.044 1.768l-.002 26.1c0 2.674 1.707 5.853 3.792 7.06 2.085 1.21 3.79.01 3.79-2.665v-26.427c0-.058 0-.115-.002-.173h.003v-10.956c0-6.07-3.87-13.277-8.6-16.02l-26.53-15.384z"/><path fill-rule="evenodd" clip-rule="evenodd" fill="#98CA3C" d="M24.388 59.55c2.54 1.473 4.836 4.12 6.494 7.208 1.654 3.082 2.678 6.613 2.678 9.86 0 2.095-.426 3.825-1.174 5.114-.495.855-1.133 1.52-1.88 1.97a4.893 4.893 0 0 1-2.555.69v-.002c-1.183 0-2.49-.376-3.86-1.17-2.54-1.473-4.836-4.12-6.492-7.208-1.656-3.083-2.68-6.614-2.68-9.86 0-2.095.427-3.824 1.174-5.115.497-.856 1.135-1.52 1.882-1.97a4.897 4.897 0 0 1 2.555-.69c1.18 0 2.49.378 3.86 1.173zm5.972 7.49c-1.61-3-3.827-5.56-6.27-6.978-1.275-.738-2.484-1.09-3.564-1.09-.832 0-1.59.207-2.248.604-.664.398-1.23.992-1.676 1.76-.695 1.2-1.094 2.83-1.094 4.816 0 3.148.998 6.58 2.61 9.582 1.607 2.995 3.823 5.56 6.27 6.976 1.275.74 2.48 1.09 3.562 1.09a4.3 4.3 0 0 0 2.247-.604c.663-.4 1.23-.992 1.675-1.758.696-1.2 1.094-2.83 1.094-4.818 0-3.15-.996-6.58-2.606-9.58zM11.12 81.066c-1.297-.753-2.54-1.108-3.664-1.108a4.71 4.71 0 0 0-2.452.66c-.72.435-1.33 1.072-1.807 1.893-.713 1.23-1.12 2.873-1.12 4.858v10.958l.003.033v.107l-.004.032v26.426c0 1.386.442 2.9 1.15 4.22.71 1.326 1.698 2.467 2.79 3.1.6.346 1.174.51 1.7.51.427 0 .82-.108 1.165-.316.344-.205.633-.507.856-.892.33-.566.517-1.32.517-2.225V103.76c0-.696.156-1.084.386-1.232a.51.51 0 0 1 .353-.06c.158.03.332.113.504.245.627.473 1.205 1.504 1.205 2.783v65.772c0 1.73.55 3.62 1.437 5.27.89 1.655 2.12 3.077 3.48 3.865.74.43 1.45.632 2.096.632.525 0 1.006-.133 1.428-.387a3 3 0 0 0 1.047-1.095c.407-.702.64-1.636.64-2.76V140.45c0-.718.17-1.122.428-1.278a.61.61 0 0 1 .423-.062c.187.032.388.127.59.272.716.52 1.382 1.65 1.382 3.048v36.346c0 1.73.552 3.622 1.438 5.27.886 1.655 2.117 3.075 3.476 3.864h.002c.74.43 1.452.635 2.1.635v-.002c.523 0 1.006-.132 1.426-.385.417-.25.77-.62 1.047-1.095.407-.7.64-1.637.64-2.76v-66.28c0-.48.12-.748.303-.847a.533.533 0 0 1 .353-.038c.16.03.34.107.52.227.653.432 1.275 1.354 1.275 2.425v26.1h-.002c0 1.386.44 2.9 1.15 4.22.707 1.318 1.688 2.45 2.77 3.087.014.008.027.016.042.023.59.338 1.158.498 1.677.498.428 0 .82-.108 1.167-.315.34-.204.63-.506.854-.893.328-.566.516-1.32.516-2.225v-26.43l-.003-.124c.005-.013.005-.03.005-.044V112.73c0-3.084-.98-6.453-2.562-9.4-1.583-2.947-3.772-5.48-6.187-6.876L11.12 81.068zm26.235 15.896L10.825 81.58c-1.204-.697-2.346-1.028-3.37-1.028a4.1 4.1 0 0 0-2.145.577c-.634.38-1.176.946-1.6 1.68-.662 1.14-1.04 2.682-1.04 4.56V98.3l.003.035-.004.145v26.447c0 1.288.412 2.702 1.076 3.94.663 1.234 1.572 2.29 2.566 2.866.503.292.978.43 1.402.43.318 0 .61-.08.86-.23a1.87 1.87 0 0 0 .647-.683c.278-.478.438-1.13.438-1.928v-25.564c0-.92.266-1.477.658-1.73.23-.147.497-.19.775-.142.25.044.51.165.76.354.75.565 1.44 1.776 1.44 3.256v65.772c0 1.633.523 3.423 1.365 4.99.84 1.563 1.993 2.9 3.254 3.632.645.374 1.254.552 1.8.552.415 0 .794-.104 1.12-.3.335-.202.62-.5.845-.886.353-.61.558-1.444.558-2.462v-36.346c0-.95.287-1.523.713-1.783.248-.15.535-.193.834-.142.274.05.56.18.833.377.845.612 1.628 1.924 1.628 3.527v36.346c0 1.633.524 3.424 1.367 4.99.835 1.56 1.983 2.893 3.24 3.625a.26.26 0 0 1 .03.02c.64.365 1.243.54 1.784.54v.002c.414 0 .793-.104 1.12-.303.334-.2.618-.498.843-.884.354-.612.557-1.444.557-2.462v-66.28c0-.73.245-1.17.614-1.367.22-.12.475-.146.74-.097.244.044.497.152.742.313.79.52 1.54 1.632 1.54 2.917l-.002 26.1c0 1.288.413 2.702 1.08 3.94.66 1.23 1.567 2.285 2.56 2.862l.006.003c.502.29.977.43 1.4.43.32 0 .61-.08.86-.23.257-.154.477-.385.65-.682.274-.477.434-1.13.434-1.93v-37.554c0-2.985-.954-6.256-2.49-9.117-1.532-2.86-3.642-5.305-5.96-6.646z"/><path fill-rule="evenodd" clip-rule="evenodd" fill="#FFF" d="M110.652 59.195l-10.565-5.787h-.002c-1.588-.87-3.672-.75-5.954.574-4.98 2.89-9.022 10.417-9.022 16.812 0 3.942.885 5.636 3.83 7.248l7.236 3.964-15.308 8.876c-4.73 2.74-8.6 9.95-8.6 16.02v10.957l.003-.004c-.003.058-.003.116-.003.174v26.428c0 1.46.506 2.48 1.307 2.908l9.317 5.01v26.1c0 1.806.62 3.075 1.596 3.632l10.557 6.004.045-.2c.85.502 1.975.456 3.205-.26 2.62-1.52 4.767-5.513 4.767-8.878v-1.16l4.68 2.585c.87.706 2.12.746 3.5-.054 2.623-1.52 4.767-5.517 4.767-8.88v-41.53l4.057 2.3c.692.56 1.684.59 2.778-.048 2.085-1.21 3.79-4.388 3.79-7.063V98.5c0-.057 0-.114-.002-.17l.002-.002V87.37c0-3.3-1.145-5.612-2.95-6.592l-10.078-5.463a4.31 4.31 0 0 0-1.78-.8c1.232-2.693 1.97-5.63 1.97-8.362-.003-3.51-1.22-5.948-3.142-6.958z"/><path fill-rule="evenodd" clip-rule="evenodd" fill="#B3B4B4" d="M111.61 57.024c.108.047.216.104.318.17 1.37.77 2.468 2.003 3.205 3.638.66 1.467 1.03 3.26 1.03 5.32 0 1.52-.2 3.092-.568 4.657a24 24 0 0 1-.733 2.487l9.885 5.36c.054.027.104.055.154.085 1.334.75 2.405 1.957 3.123 3.56.63 1.41.982 3.117.982 5.067v10.956H129c.002.057.005.113.005.172v26.426c0 1.73-.537 3.592-1.4 5.203-.884 1.642-2.147 3.077-3.577 3.906-.894.518-1.797.772-2.662.787a4.257 4.257 0 0 1-2.61-.81l-.376-.212v37.465c0 2.073-.647 4.313-1.688 6.254-1.05 1.952-2.54 3.657-4.22 4.645l-.046.028c-1.035.6-2.075.892-3.065.906a4.74 4.74 0 0 1-2.894-.9l-1.36-.752a14.86 14.86 0 0 1-1.36 3.575c-1.055 1.966-2.556 3.677-4.246 4.664l-.02.01c-.923.536-1.842.83-2.718.9-.558.044-1.096 0-1.604-.125-.436.02-.88-.076-1.285-.308l-10.396-5.912a2.353 2.353 0 0 1-.39-.23c-.837-.54-1.504-1.337-1.952-2.356-.396-.905-.62-1.98-.62-3.193v-24.68l-7.92-4.26a2.18 2.18 0 0 1-.357-.2c-.768-.47-1.38-1.18-1.793-2.097-.354-.79-.554-1.728-.554-2.775V118.03h.01a1.9 1.9 0 0 1-.008-.17V106.9c0-3.425 1.078-7.146 2.814-10.38 1.754-3.267 4.22-6.093 6.973-7.688l11.675-6.77-3.55-1.944c-1.896-1.04-3.155-2.152-3.983-3.724-.792-1.5-1.09-3.248-1.09-5.602 0-3.588 1.12-7.47 2.933-10.843 1.828-3.406 4.4-6.348 7.28-8.02 1.418-.82 2.816-1.28 4.146-1.41 1.484-.142 2.86.13 4.07.777l.057.03 10.395 5.696zm-2.213 4.18l-10.44-5.72c-.397-.215-.878-.305-1.424-.252-.65.062-1.396.322-2.215.798-2.104 1.22-4.046 3.487-5.483 6.165-1.455 2.712-2.355 5.793-2.355 8.6 0 1.587.146 2.66.53 3.395.352.664 1.01 1.204 2.057 1.777l7.237 3.963a2.366 2.366 0 0 1 .053 4.123l.002.003-15.31 8.876c-1.977 1.146-3.81 3.295-5.174 5.836-1.382 2.572-2.238 5.49-2.238 8.135v10.957c0 .06-.003.115-.008.172h.007v26.427c0 .38.044.664.126.845 0 .003-.002.003-.004.003l-.01.003 9.26 4.98a2.37 2.37 0 0 1 1.247 2.086h.004v26.1c0 .56.076.994.21 1.303.067.15.128.24.18.27l.04.024 9.65 5.487a2.422 2.422 0 0 1 .95.315.57.57 0 0 0 .1-.002c.164-.013.366-.08.604-.207.07-.046.143-.088.216-.126.883-.55 1.72-1.56 2.36-2.756.686-1.278 1.112-2.718 1.112-4.01v-1.158a2.373 2.373 0 0 1 3.643-2.004l4.423 2.44c.182.086.35.193.503.32a.36.36 0 0 0 .054.003c.155-.003.366-.07.63-.21.073-.05.15-.095.23-.135.88-.553 1.715-1.56 2.355-2.753.686-1.28 1.112-2.72 1.112-4.01v-41.53a2.373 2.373 0 0 1 3.703-1.968l3.724 2.11c.115.055.23.12.333.19a1.99 1.99 0 0 0 .26-.13c.654-.38 1.287-1.14 1.778-2.055.51-.95.827-2.014.827-2.96V98.5c0-.06.003-.115.008-.172h-.008V87.37c0-1.285-.2-2.34-.555-3.137-.292-.65-.688-1.115-1.155-1.37l-.038-.02-9.97-5.406a2.43 2.43 0 0 1-.49-.326 1.995 1.995 0 0 0-.256-.136 2.046 2.046 0 0 0-.428-.13 2.37 2.37 0 0 1-1.625-3.466c.523-1.17.944-2.4 1.236-3.644.285-1.208.44-2.42.44-3.58 0-1.382-.217-2.517-.604-3.377-.322-.716-.757-1.22-1.265-1.486a2.246 2.246 0 0 1-.15-.086zm-34.634 84.103c-.018-.004-.113-.052-.067-.026l.02.014.038.02.01-.006z"/><path fill-rule="evenodd" clip-rule="evenodd" fill="#FFF" d="M107.396 75.498l-26.215 15.2c-5.277 3.062-8.912 10.17-8.912 16.204v10.957l.002-.004c-.003.058-.003.116-.003.174v26.428c0 1.46.506 2.48 1.307 2.908l9.317 5.01v26.1c0 1.806.62 3.074 1.597 3.632l10.557 6.004 2.993-13.272 9.704 5.36 2.8-53.567 9.524 5.403 3.617-51.257-8-4.34c-2.985-1.617-4.585-3.087-8.283-.943z"/><path fill-rule="evenodd" clip-rule="evenodd" fill="#B3B4B4" d="M107.544 75.754L81.33 90.956c-2.54 1.472-4.693 3.903-6.232 6.7-1.603 2.912-2.534 6.218-2.534 9.246v37.555c0 .675.112 1.243.312 1.69.2.444.486.77.837.958l9.318 5.01c.1.052.158.155.158.26v26.1c0 1.19.305 2.727 1.444 3.374l.016.01 10.195 5.796 2.905-12.883a.296.296 0 0 1 .43-.194l9.29 5.13 2.777-53.095a.296.296 0 0 1 .45-.236l9.105 5.165 3.572-50.6-7.834-4.245c-.305-.165-.66-.366-1-.56-2.303-1.304-3.873-2.194-6.992-.386zM94.896 188.37l-10.222-5.815-.577-.345a2.97 2.97 0 0 1-.563-.537c-.886-1.012-.94-2.53-.94-3.196v-25.925l-9.16-4.924c-.466-.25-.84-.67-1.097-1.238-.236-.524-.367-1.142-.367-1.897v-37.59c0-3.126 1.054-6.403 2.705-9.4 1.586-2.887 3.723-5.53 6.357-7.06l26.216-15.2c3.412-1.98 5.103-1.02 7.58.386.295.165.6.34.99.55l8.003 4.34c.1.054.164.16.155.28l-3.618 51.257a.294.294 0 0 1-.44.235l-9.107-5.166-2.774 53.077-.037.138a.294.294 0 0 1-.403.117l-9.37-5.13-2.87 12.746c-.067.267-.318.375-.46.295z"/><path fill-rule="evenodd" clip-rule="evenodd" fill="#FFF" d="M94.13 53.982c-4.982 2.89-9.023 10.417-9.023 16.812 0 3.942.885 5.636 3.83 7.248l9.18 5.028 12.536-23.876-10.565-5.787h-.002c-1.59-.87-3.673-.748-5.955.575z"/><path fill-rule="evenodd" clip-rule="evenodd" fill="#B3B4B4" d="M94.28 54.24c-2.443 1.415-4.66 3.978-6.27 6.975-1.61 3-2.608 6.432-2.608 9.58 0 1.924.212 3.29.776 4.36.56 1.06 1.48 1.852 2.9 2.63l8.917 4.883 12.26-23.354-10.293-5.638-.01-.004-.013-.008c-.758-.412-1.64-.586-2.6-.492-.948.09-1.98.44-3.06 1.067zm-6.792 6.693c1.658-3.087 3.953-5.734 6.494-7.207 1.156-.67 2.27-1.044 3.3-1.143 1.08-.104 2.067.09 2.925.555l.02.01 10.567 5.787a.295.295 0 0 1 .12.396L98.386 83.2l-.008.016a.295.295 0 0 1-.4.117l-9.183-5.026c-1.525-.835-2.52-1.7-3.14-2.87-.614-1.167-.846-2.62-.846-4.638 0-3.247 1.022-6.78 2.677-9.862zm12.452-7.268a.296.296 0 0 1-.127-.372l.127.372zm.004.002l-.004-.003.004.003z"/><path fill-rule="evenodd" clip-rule="evenodd" fill="#F6F6F6" d="M104.767 59.807c-4.984 2.89-9.025 10.416-9.025 16.812s4.04 9.234 9.025 6.344c4.984-2.89 9.024-10.417 9.024-16.812 0-6.395-4.04-9.236-9.022-6.346zm13.265 21.516c4.73-2.742 8.6-.02 8.6 6.047v10.958h-.003v26.6c0 2.674-1.705 5.852-3.79 7.06-2.085 1.21-3.79.01-3.79-2.666V103.76c0-3.066-3.045-1.287-3.045 1.736v65.772c0 3.362-2.144 7.358-4.767 8.88-2.622 1.518-4.767.01-4.767-3.354v-36.346c0-3.217-3.412-1.28-3.412 1.98v36.345c0 3.365-2.147 7.36-4.768 8.88-2.622 1.52-4.767.01-4.767-3.352v-66.28c0-2.475-3.046-.71-3.046 1.768l.002 26.1c0 2.674-1.707 5.853-3.79 7.06-2.086 1.21-3.793.01-3.793-2.665v-26.427c0-.058 0-.115.003-.173v-10.956c0-6.07 3.87-13.277 8.6-16.02l26.532-15.383z"/><path fill-rule="evenodd" clip-rule="evenodd" fill="#B3B4B4" d="M104.915 60.062c-2.443 1.417-4.66 3.98-6.27 6.976-1.61 3-2.607 6.433-2.607 9.58 0 1.99.397 3.617 1.095 4.82.443.766 1.01 1.357 1.674 1.757.66.396 1.416.604 2.247.604 1.083 0 2.29-.353 3.565-1.09 2.44-1.42 4.66-3.98 6.267-6.978 1.61-3.002 2.607-6.434 2.607-9.582 0-1.986-.396-3.615-1.094-4.816-.443-.767-1.01-1.36-1.673-1.76a4.32 4.32 0 0 0-2.248-.603c-1.084.003-2.29.355-3.566 1.093zm-6.79 6.695c1.656-3.088 3.953-5.734 6.494-7.207 1.37-.795 2.676-1.172 3.86-1.172.937 0 1.8.237 2.552.69.748.45 1.384 1.112 1.88 1.97.748 1.29 1.175 3.02 1.175 5.113 0 3.25-1.024 6.78-2.68 9.863-1.656 3.088-3.953 5.735-6.493 7.208-1.37.797-2.678 1.173-3.86 1.173a4.89 4.89 0 0 1-2.555-.69c-.75-.45-1.385-1.114-1.88-1.968-.75-1.292-1.176-3.022-1.176-5.116 0-3.247 1.025-6.78 2.68-9.86zM118.18 81.58c1.203-.697 2.344-1.028 3.368-1.028.795 0 1.52.198 2.148.577.633.38 1.176.946 1.6 1.68.66 1.14 1.04 2.682 1.04 4.56V98.3l-.002.035.002.145v26.448c0 1.288-.414 2.702-1.08 3.94-.662 1.234-1.57 2.29-2.563 2.866-.504.292-.98.43-1.402.43-.316 0-.607-.08-.86-.23a1.893 1.893 0 0 1-.646-.682c-.277-.48-.436-1.13-.436-1.93V103.76c0-.922-.267-1.478-.66-1.73a1.058 1.058 0 0 0-.774-.143 1.79 1.79 0 0 0-.76.354c-.752.567-1.442 1.778-1.442 3.258v65.772c0 1.632-.52 3.422-1.363 4.988-.84 1.564-1.99 2.902-3.254 3.633-.646.376-1.255.554-1.8.554-.416 0-.795-.104-1.122-.3a2.44 2.44 0 0 1-.842-.886c-.355-.61-.558-1.444-.558-2.462V140.45c0-.952-.288-1.524-.713-1.784a1.198 1.198 0 0 0-.834-.142c-.274.05-.56.18-.833.377-.844.614-1.628 1.926-1.628 3.53v36.345c0 1.633-.522 3.424-1.365 4.99-.836 1.56-1.982 2.893-3.24 3.625-.01.005-.02.01-.03.018-.64.366-1.244.542-1.784.542a2.15 2.15 0 0 1-1.123-.302c-.33-.2-.616-.498-.84-.884-.354-.612-.558-1.444-.558-2.462V118.02c0-.73-.245-1.17-.613-1.368a1.11 1.11 0 0 0-.743-.097 2.02 2.02 0 0 0-.74.313c-.79.522-1.544 1.633-1.544 2.918l.004 26.1c0 1.288-.413 2.702-1.077 3.94-.662 1.23-1.57 2.285-2.56 2.862l-.006.004c-.504.29-.98.43-1.402.43-.32 0-.61-.08-.86-.23a1.862 1.862 0 0 1-.648-.682c-.278-.478-.437-1.13-.437-1.93v-26.426l.003-.17-.003-.032v-10.927c0-2.985.955-6.256 2.49-9.117 1.535-2.858 3.647-5.304 5.962-6.646L118.18 81.58zM91.353 96.45l26.53-15.383c1.3-.753 2.542-1.108 3.665-1.108.903 0 1.73.226 2.454.66.718.434 1.33 1.07 1.807 1.892.71 1.23 1.117 2.872 1.117 4.857v10.957l-.003.034.002.107v26.46c0 1.385-.44 2.9-1.148 4.22-.713 1.325-1.7 2.466-2.79 3.1-.6.345-1.175.51-1.7.51-.427 0-.822-.11-1.165-.317a2.43 2.43 0 0 1-.854-.892c-.33-.567-.518-1.32-.518-2.226v-25.564c0-.695-.155-1.083-.386-1.23a.49.49 0 0 0-.353-.06 1.23 1.23 0 0 0-.506.244c-.628.473-1.205 1.504-1.205 2.783v65.772c0 1.73-.55 3.62-1.437 5.27-.887 1.654-2.12 3.076-3.478 3.864-.74.43-1.45.634-2.098.634a2.737 2.737 0 0 1-1.43-.387 3.004 3.004 0 0 1-1.047-1.095c-.407-.7-.638-1.635-.638-2.758v-36.346c0-.718-.174-1.122-.428-1.278a.615.615 0 0 0-.425-.062 1.463 1.463 0 0 0-.586.272c-.718.52-1.383 1.65-1.383 3.048v36.346c0 1.73-.552 3.62-1.438 5.27-.887 1.655-2.117 3.075-3.475 3.864h-.002c-.74.43-1.452.635-2.098.635a2.757 2.757 0 0 1-1.428-.387 3.018 3.018 0 0 1-1.047-1.095c-.406-.7-.64-1.636-.64-2.76v-66.28c0-.48-.12-.748-.303-.847a.536.536 0 0 0-.354-.038c-.162.03-.34.107-.52.227-.654.432-1.276 1.354-1.276 2.425l.002 26.1c0 1.386-.44 2.9-1.147 4.22-.71 1.318-1.688 2.45-2.77 3.087l-.04.023c-.592.338-1.16.498-1.68.498-.427 0-.82-.108-1.166-.315a2.446 2.446 0 0 1-.852-.893c-.33-.566-.517-1.32-.517-2.225v-26.427h.003v-.003l.002-.124a.222.222 0 0 1-.004-.045v-10.957c0-3.083.98-6.452 2.563-9.397 1.587-2.95 3.777-5.48 6.19-6.88z"/></svg>