<svg xmlns="http://www.w3.org/2000/svg" width="260" height="260" viewBox="-33.02 -24.948 260 260" overflow="visible"><path fill-rule="evenodd" clip-rule="evenodd" fill="#FFF" d="M169.612 59.656L72.618 3.21c-1.735-1.01-3.325-1.076-4.544-.368L63.24 5.828l.008.015c-1.77.66-2.927 2.757-2.93 5.874l-.06 122.092c-.004 5.117 3.124 11.132 6.948 13.352l97.056 56.352c1.936 1.123 3.69 1.076 4.953.09l.03.057 4.65-2.89c.18-.086.353-.187.52-.305h.003c1.318-.93 2.142-2.832 2.142-5.46V73.01c0-5.118-3.125-11.13-6.948-13.354z"/><path fill-rule="evenodd" clip-rule="evenodd" fill="#B3B4B4" d="M168.426 61.705L71.432 5.258c-.533-.31-1.012-.476-1.42-.51-.3-.023-.55.027-.752.143l-.05.03-4.464 2.758c-.098.078-.2.15-.312.213-.138.08-.28.146-.427.194-.297.136-.57.44-.792.887-.34.68-.532 1.606-.532 2.745l-.062 122.092c0 2.163.684 4.56 1.783 6.672 1.064 2.046 2.48 3.757 3.99 4.632l97.057 56.353c.593.345 1.108.514 1.53.52.302.006.567-.08.78-.244a2.29 2.29 0 0 1 .688-.373l4.195-2.61c.097-.06.195-.112.296-.157l.032-.02a3.92 3.92 0 0 1 .153-.11c.262-.21.49-.554.672-1.015.25-.636.39-1.458.39-2.45V73.01c0-2.175-.68-4.568-1.774-6.67-1.064-2.047-2.48-3.757-3.988-4.635zM73.806 1.16L170.8 57.607c2.31 1.347 4.37 3.754 5.822 6.546 1.426 2.74 2.312 5.913 2.312 8.857v121.995c0 1.584-.26 2.99-.723 4.174-.545 1.387-1.377 2.477-2.43 3.22l-.003.002c-.13.09-.274.185-.43.274-.076.044-.16.09-.263.14l-4.587 2.855-.13.075a2.423 2.423 0 0 1-.296.133 5.838 5.838 0 0 1-3.165.833c-1.23-.02-2.526-.392-3.83-1.15L66.02 149.21c-2.312-1.343-4.37-3.75-5.826-6.543-1.42-2.73-2.3-5.904-2.3-8.86l.062-122.09c0-1.92.367-3.562 1.015-4.86.72-1.443 1.786-2.494 3.1-3.084L66.727.896a3.94 3.94 0 0 1 .16-.103A5.944 5.944 0 0 1 70.384.02c1.1.09 2.254.46 3.422 1.14z"/><path fill-rule="evenodd" clip-rule="evenodd" fill="#F6F6F6" d="M169.612 59.656L72.604 3.24c-2.378-1.38-3.91-.75-5.496.222l-4.433 2.626 2.547 3.44 17.406 106.554c.826 5.05 3.67 10.387 6.95 13.354l77.34 69.974 2.328 4.278 3.39-2.11c2.7-1.678 3.924-3.065 3.924-6.544V73.01c0-5.118-3.124-11.13-6.948-13.354z"/><path fill-rule="evenodd" clip-rule="evenodd" fill="#B3B4B4" d="M169.464 59.912L72.456 3.497c-1.125-.654-2.042-.833-2.86-.733-.824.1-1.57.484-2.334.95l-.003.002-4.15 2.458 2.35 3.176.056.13 17.406 106.554c.402 2.467 1.297 5.01 2.49 7.3 1.214 2.336 2.736 4.41 4.365 5.882l77.34 69.974.062.077 2.176 4.002 3.126-1.945c1.315-.817 2.268-1.56 2.882-2.506.61-.94.9-2.108.9-3.788V73.01c0-2.512-.77-5.248-2.007-7.628-1.237-2.373-2.934-4.388-4.794-5.47zM72.754 2.985L169.76 59.4c1.962 1.14 3.74 3.243 5.022 5.708 1.28 2.46 2.076 5.293 2.076 7.9V195.03c0 1.8-.323 3.068-1 4.11-.67 1.035-1.68 1.827-3.064 2.687l-3.39 2.11-.268.165-.15-.274-2.303-4.234-77.303-69.94c-1.683-1.52-3.25-3.65-4.495-6.044-1.22-2.344-2.134-4.946-2.548-7.48L64.94 9.645l-2.5-3.382L62.244 6l.28-.167 4.433-2.626c.824-.504 1.64-.92 2.568-1.032.94-.114 1.977.082 3.228.81z"/><path fill-rule="evenodd" clip-rule="evenodd" fill="#FFF" d="M164.263 62.904L67.207 6.46c-3.824-2.223-6.95.14-6.95 5.26v122.087c0 5.12 3.127 11.13 6.95 13.354l97.056 56.446c3.823 2.223 6.95-.14 6.95-5.26V76.26c0-5.12-3.127-11.13-6.95-13.354z"/><path fill-rule="evenodd" clip-rule="evenodd" fill="#B3B4B4" d="M164.36 63.16L67.074 6.717c-.932-.54-1.814-.795-2.61-.795-.63 0-1.21.16-1.714.47-.508.31-.948.772-1.297 1.37-.57.98-.897 2.32-.897 3.958v122.088c0 2.512.77 5.246 2.014 7.628 1.237 2.373 2.938 4.39 4.804 5.47l97.284 56.443c.93.54 1.812.794 2.61.794.63 0 1.208-.16 1.714-.47.51-.31.948-.772 1.296-1.37.57-.98.898-2.32.898-3.958V76.256c0-2.51-.77-5.245-2.012-7.626-1.238-2.373-2.938-4.388-4.805-5.47zM67.372 6.205l97.284 56.443c1.966 1.14 3.747 3.242 5.033 5.71 1.283 2.46 2.08 5.292 2.08 7.9v122.09c0 1.743-.357 3.186-.98 4.253-.397.687-.907 1.22-1.5 1.58a3.83 3.83 0 0 1-2.023.56c-.898 0-1.882-.28-2.908-.88l-97.285-56.44c-1.965-1.14-3.747-3.243-5.034-5.71-1.282-2.46-2.08-5.293-2.08-7.9V11.72c0-1.745.358-3.187.98-4.255.4-.685.908-1.218 1.5-1.58a3.838 3.838 0 0 1 2.026-.558c.895 0 1.88.283 2.906.878z"/><path fill-rule="evenodd" clip-rule="evenodd" fill="#E94C6D" d="M89.287 84.933a.296.296 0 0 1 .593 0v12.69c0 .166-.132.298-.296.298s-.297-.13-.297-.295v-12.69z"/><path fill-rule="evenodd" clip-rule="evenodd" fill="#FFF" d="M106.04 107.194l-32.91-19.14c-1.298-.752-2.357.05-2.357 1.784v21.728L52 100.65c-1.296-.755-2.355.046-2.355 1.782v21.13l-18.562-10.794c-1.297-.753-2.357.048-2.357 1.783v22.07l-19.34-11.245c-1.297-.755-2.357.047-2.357 1.782v41.397c0 1.735 1.06 3.773 2.355 4.527l32.908 19.14c1.297.754 2.356-.047 2.356-1.783v-22.07l19.34 11.248c1.298.754 2.357-.048 2.357-1.783V156.7l18.563 10.795c1.297.753 2.355-.05 2.355-1.783v-21.728l18.773 10.917c1.295.756 2.355-.046 2.355-1.78v-41.4c.002-1.734-1.057-3.773-2.354-4.526z"/><path fill-rule="evenodd" clip-rule="evenodd" fill="#98CA3C" d="M104.852 109.243l-31.706-18.44v24.884l-3.56-2.07-17.57-10.218v24.282l-3.558-2.07-17.36-10.095v25.224l-3.56-2.07L9.4 128.124v40.432c0 .482.164 1.037.424 1.54.232.446.5.796.747.938l31.707 18.44v-25.227l3.56 2.07 18.138 10.55V152.58l3.56 2.072 17.36 10.095v-24.88l3.56 2.07 17.568 10.216V111.72c0-.482-.162-1.036-.424-1.538-.234-.447-.5-.797-.747-.94zM74.316 86.006l32.908 19.14c1.05.61 1.96 1.656 2.582 2.85.592 1.14.96 2.475.96 3.726v41.397c0 1-.233 1.876-.642 2.58a3.804 3.804 0 0 1-1.288 1.332 3.535 3.535 0 0 1-1.866.526c-.69 0-1.41-.197-2.12-.61l-15.21-8.846v17.608c0 .998-.234 1.877-.644 2.58a3.79 3.79 0 0 1-1.288 1.334 3.525 3.525 0 0 1-1.866.525c-.69 0-1.41-.195-2.12-.607L68.72 160.82v17.01c0 1-.234 1.88-.643 2.58a3.762 3.762 0 0 1-1.29 1.334 3.517 3.517 0 0 1-1.864.527c-.69 0-1.41-.194-2.12-.606l-15.78-9.178v17.95c0 1-.234 1.88-.643 2.58a3.756 3.756 0 0 1-1.29 1.335 3.53 3.53 0 0 1-1.864.527c-.69 0-1.41-.196-2.12-.608l-32.91-19.14c-1.047-.61-1.96-1.656-2.58-2.85-.593-1.14-.96-2.475-.96-3.727v-41.397c0-1 .234-1.878.64-2.58a3.76 3.76 0 0 1 1.29-1.333 3.52 3.52 0 0 1 1.866-.527c.69 0 1.41.195 2.12.61l15.78 9.176v-17.95c0-1.002.235-1.88.644-2.58a3.754 3.754 0 0 1 1.29-1.334 3.508 3.508 0 0 1 1.864-.527c.69 0 1.41.197 2.12.61l15.003 8.725v-17.012c0-1 .235-1.878.644-2.58a3.765 3.765 0 0 1 1.288-1.334 3.527 3.527 0 0 1 1.866-.528c.69 0 1.41.197 2.12.61l15.21 8.847V89.84c0-1 .237-1.878.645-2.58a3.76 3.76 0 0 1 1.288-1.334 3.536 3.536 0 0 1 1.865-.526c.69-.002 1.412.193 2.12.606z"/><path fill-rule="evenodd" clip-rule="evenodd" fill="#FFF" d="M106.04 107.194l-32.91-19.14c-1.298-.752-2.357.05-2.357 1.784v41.397c0 1.734 1.06 3.773 2.356 4.527l32.91 19.14c1.293.753 2.353-.05 2.353-1.784V111.72c0-1.734-1.058-3.773-2.355-4.526z"/><path fill-rule="evenodd" clip-rule="evenodd" fill="#98CA3C" d="M105.89 107.45L72.98 88.312c-.283-.166-.55-.244-.785-.244a.9.9 0 0 0-.477.13c-.146.088-.27.222-.373.396-.174.302-.275.724-.275 1.245v41.395c0 .82.252 1.715.658 2.496.402.774.95 1.43 1.55 1.776l32.908 19.14c.282.163.55.24.784.24a.92.92 0 0 0 .48-.128c.144-.09.27-.224.37-.397.176-.302.277-.723.277-1.243V111.72c0-.82-.252-1.716-.658-2.496-.404-.773-.953-1.43-1.55-1.776zM73.278 87.8l32.91 19.137c.697.406 1.327 1.148 1.777 2.016.448.86.727 1.854.727 2.77v41.396c0 .625-.13 1.15-.358 1.54-.15.26-.346.464-.575.603-.234.144-.5.22-.787.22-.335 0-.702-.105-1.08-.325l-32.908-19.14c-.698-.406-1.33-1.147-1.778-2.014-.448-.86-.728-1.854-.728-2.77V89.838c0-.627.13-1.15.36-1.542.15-.26.345-.464.573-.604.232-.143.5-.218.785-.218.338 0 .703.106 1.082.325z"/><path fill-rule="evenodd" clip-rule="evenodd" fill="#F6F6F6" d="M71.21 99.703v31.278c0 1.737 1.062 3.776 2.357 4.53l22.11 12.857V117.09c0-1.736-1.06-3.775-2.356-4.53L71.21 99.704z"/><path fill-rule="evenodd" clip-rule="evenodd" fill="#B3B4B4" d="M6.312 156.04a.298.298 0 0 1-.404-.108.3.3 0 0 1 .107-.404l83.06-47.955a.297.297 0 0 1 .405.107.297.297 0 0 1-.107.404L6.313 156.04z"/><path fill-rule="evenodd" clip-rule="evenodd" fill="#FFF" d="M84.91 119.788L52 100.648c-1.296-.753-2.355.048-2.355 1.784v41.396c0 1.736 1.06 3.774 2.355 4.528l32.91 19.14c1.297.753 2.355-.05 2.355-1.784v-41.397c0-1.735-1.058-3.773-2.355-4.527z"/><path fill-rule="evenodd" clip-rule="evenodd" fill="#98CA3C" d="M85.07 120.043l-33.195-19.14c-.285-.164-.553-.242-.79-.242a.932.932 0 0 0-.484.13 1.12 1.12 0 0 0-.372.398c-.178.302-.28.724-.28 1.245v41.396c0 .82.254 1.715.664 2.496.408.773.962 1.428 1.564 1.775l33.196 19.14c.286.165.554.243.79.243.18 0 .344-.045.484-.13a1.1 1.1 0 0 0 .374-.396c.178-.303.28-.724.28-1.244v-41.397c0-.82-.254-1.715-.665-2.495-.405-.774-.96-1.43-1.562-1.776zm-32.896-19.65l33.196 19.14c.705.404 1.34 1.146 1.794 2.013.45.86.733 1.854.733 2.77v41.397c0 .627-.133 1.15-.36 1.54a1.73 1.73 0 0 1-.583.605 1.52 1.52 0 0 1-.793.218c-.337 0-.707-.104-1.09-.324l-33.194-19.14c-.705-.404-1.34-1.146-1.794-2.014-.45-.86-.732-1.854-.732-2.77v-41.396c0-.627.133-1.15.36-1.54.155-.262.35-.466.582-.606.236-.143.504-.218.794-.218.338 0 .708.105 1.09.325z"/><path fill-rule="evenodd" clip-rule="evenodd" fill="#F6F6F6" d="M50.083 112.35v31.225c0 1.735 1.06 3.774 2.356 4.527l23.72 13.796v-31.225c0-1.736-1.06-3.774-2.356-4.528l-23.72-13.795z"/><path fill-rule="evenodd" clip-rule="evenodd" fill="#B3B4B4" d="M6.312 156.04a.298.298 0 0 1-.404-.108.3.3 0 0 1 .107-.404l60.418-34.883a.296.296 0 1 1 .297.51L6.312 156.04z"/><path fill-rule="evenodd" clip-rule="evenodd" fill="#FFF" d="M63.99 131.907l-32.908-19.14c-1.297-.752-2.355.05-2.355 1.784v41.4c0 1.733 1.06 3.772 2.355 4.526l32.91 19.14c1.296.753 2.355-.05 2.355-1.784v-41.395c0-1.736-1.06-3.775-2.356-4.528z"/><path fill-rule="evenodd" clip-rule="evenodd" fill="#98CA3C" d="M63.843 132.163l-32.91-19.14c-.282-.164-.548-.242-.784-.242a.9.9 0 0 0-.48.133 1.09 1.09 0 0 0-.37.395c-.178.303-.278.725-.278 1.245v41.397c0 .818.25 1.714.66 2.494.4.774.95 1.43 1.548 1.776l32.91 19.14c.282.163.55.24.784.24a.92.92 0 0 0 .48-.128 1.1 1.1 0 0 0 .37-.396c.176-.303.277-.724.277-1.244v-41.396c0-.82-.25-1.717-.656-2.497-.403-.776-.953-1.43-1.55-1.778zm-32.613-19.65l32.908 19.137c.698.406 1.328 1.148 1.78 2.015.446.86.725 1.854.725 2.77v41.397c0 .627-.132 1.15-.358 1.54-.15.26-.346.466-.576.606-.234.142-.5.217-.787.217-.336 0-.703-.104-1.08-.324l-32.91-19.137c-.697-.406-1.326-1.147-1.78-2.014-.446-.86-.724-1.855-.724-2.77v-41.4c0-.626.13-1.148.356-1.54.15-.26.348-.464.575-.605.235-.143.5-.22.787-.22.337.002.704.107 1.082.327z"/><path fill-rule="evenodd" clip-rule="evenodd" fill="#F6F6F6" d="M29.163 124.74v30.954c0 1.735 1.06 3.774 2.356 4.527l23.09 13.43v-30.953c0-1.735-1.06-3.774-2.355-4.528l-23.092-13.43z"/><path fill-rule="evenodd" clip-rule="evenodd" fill="#E94C6D" d="M138.208 124.054V99.857c0-3.02-.91-6.308-2.38-9.17-1.463-2.852-3.476-5.275-5.684-6.578L109.01 71.64l.293-.512 21.135 12.468c2.307 1.36 4.398 3.872 5.91 6.818 1.508 2.94 2.446 6.326 2.446 9.442v24.197h-.586z"/><path fill-rule="evenodd" clip-rule="evenodd" fill="#B3B4B4" d="M6.312 156.04a.298.298 0 0 1-.404-.108.3.3 0 0 1 .107-.404l39.258-22.666a.296.296 0 0 1 .297.51L6.312 156.04z"/><path fill-rule="evenodd" clip-rule="evenodd" fill="#FFF" d="M42.293 144.512L9.385 125.374c-1.297-.754-2.357.048-2.357 1.783v41.397c0 1.735 1.06 3.773 2.357 4.527l32.908 19.14c1.297.755 2.356-.046 2.356-1.782V149.04c0-1.736-1.06-3.774-2.358-4.528z"/><path fill-rule="evenodd" clip-rule="evenodd" fill="#98CA3C" d="M42.145 144.768l-32.91-19.14c-.283-.163-.548-.242-.784-.242a.913.913 0 0 0-.477.13c-.145.09-.27.224-.37.397-.177.304-.278.724-.278 1.244v41.397c0 .82.252 1.715.66 2.496.4.773.95 1.428 1.55 1.775l32.907 19.14c.284.164.55.24.786.24a.926.926 0 0 0 .48-.128c.143-.09.27-.223.37-.396.176-.3.277-.72.277-1.242V149.04c0-.82-.254-1.715-.66-2.496-.402-.774-.95-1.428-1.548-1.776zm-32.612-19.65l32.908 19.14c.7.404 1.33 1.146 1.78 2.014.448.86.726 1.854.726 2.77v41.396c0 .627-.13 1.15-.357 1.54-.153.26-.348.466-.577.605-.232.143-.5.218-.785.218-.336 0-.703-.102-1.082-.322l-32.91-19.14c-.696-.405-1.327-1.146-1.778-2.014-.448-.86-.727-1.854-.727-2.77v-41.397c0-.626.13-1.15.36-1.54a1.67 1.67 0 0 1 .575-.605c.233-.142.5-.217.786-.217.338 0 .705.105 1.084.324z"/><path fill-rule="evenodd" clip-rule="evenodd" fill="#FFF" d="M155.116 134.856l-32.91-19.138c-1.294-.754-2.353.047-2.353 1.782v21.728L101.08 128.31c-1.296-.752-2.356.05-2.356 1.784v41.397c0 1.738 1.06 3.775 2.357 4.53l32.91 19.14c1.296.752 2.356-.05 2.356-1.785v-21.727l18.77 10.916c1.298.754 2.356-.047 2.356-1.782v-41.396c.002-1.735-1.057-3.774-2.354-4.528z"/><path fill-rule="evenodd" clip-rule="evenodd" fill="#2EBCE3" d="M153.93 136.905l-31.705-18.438v24.882l-3.56-2.073-17.567-10.217v40.433c0 .483.162 1.037.422 1.54.232.446.502.796.747.938l31.705 18.44v-24.88l3.56 2.07 17.568 10.216v-40.43c0-.485-.163-1.038-.424-1.54-.234-.447-.5-.798-.746-.94zm-30.536-23.236l32.91 19.136c1.05.61 1.96 1.657 2.58 2.85.594 1.14.963 2.476.963 3.728v41.397c0 1-.234 1.878-.643 2.58a3.775 3.775 0 0 1-1.29 1.334 3.527 3.527 0 0 1-1.863.526c-.69 0-1.41-.195-2.12-.607l-15.21-8.846v17.607c0 1-.234 1.877-.643 2.58a3.77 3.77 0 0 1-1.29 1.334 3.525 3.525 0 0 1-1.864.526c-.69 0-1.41-.196-2.12-.608l-32.908-19.14c-1.05-.608-1.96-1.655-2.582-2.85-.594-1.14-.962-2.474-.962-3.726v-41.397c0-1 .236-1.878.643-2.58a3.776 3.776 0 0 1 1.29-1.333 3.523 3.523 0 0 1 1.865-.527c.69 0 1.41.195 2.12.608l15.212 8.85V117.5c0-1 .232-1.878.64-2.58a3.793 3.793 0 0 1 1.29-1.333 3.518 3.518 0 0 1 1.865-.527c.69 0 1.41.196 2.12.61z"/><path fill-rule="evenodd" clip-rule="evenodd" fill="#FFF" d="M155.116 134.856l-32.91-19.138c-1.295-.754-2.353.047-2.353 1.782v41.397c0 1.735 1.06 3.774 2.354 4.528l32.91 19.138c1.296.754 2.355-.047 2.355-1.782v-41.395c0-1.736-1.06-3.774-2.356-4.528z"/><path fill-rule="evenodd" clip-rule="evenodd" fill="#2EBCE3" d="M154.968 135.113l-32.908-19.14c-.283-.164-.55-.243-.785-.243a.916.916 0 0 0-.48.13 1.12 1.12 0 0 0-.37.397c-.176.302-.277.723-.277 1.243v41.397c0 .82.254 1.716.658 2.496.403.773.953 1.428 1.55 1.775l32.91 19.14c.283.163.548.242.785.242.18 0 .34-.045.48-.13a1.1 1.1 0 0 0 .37-.396c.177-.302.278-.723.278-1.243v-41.395c0-.82-.253-1.716-.66-2.496-.402-.775-.95-1.43-1.55-1.776zm-32.613-19.65l32.91 19.137c.697.405 1.327 1.147 1.778 2.015.447.86.727 1.854.727 2.77v41.397c0 .626-.13 1.15-.36 1.54-.15.262-.346.465-.574.604-.232.144-.5.22-.785.22-.336 0-.702-.105-1.08-.326l-32.91-19.138c-.697-.405-1.326-1.147-1.78-2.015-.446-.86-.724-1.854-.724-2.77V117.5c0-.626.13-1.15.358-1.54.152-.262.346-.465.575-.604.232-.144.5-.22.785-.22.336 0 .705.106 1.08.326z"/><path fill-rule="evenodd" clip-rule="evenodd" fill="#F6F6F6" d="M120.292 127.083v31.574c0 1.735 1.06 3.773 2.356 4.527l24.128 14.03V145.64c0-1.735-1.06-3.774-2.357-4.528l-24.13-14.03z"/><path fill-rule="evenodd" clip-rule="evenodd" fill="#FFF" d="M133.99 147.45l-32.91-19.14c-1.297-.752-2.357.05-2.357 1.784v41.397c0 1.738 1.06 3.775 2.357 4.53l32.91 19.14c1.294.752 2.354-.05 2.354-1.785V151.98c0-1.737-1.06-3.775-2.355-4.53z"/><path fill-rule="evenodd" clip-rule="evenodd" fill="#2EBCE3" d="M133.84 147.706l-32.908-19.138c-.283-.165-.55-.243-.785-.243a.904.904 0 0 0-.48.13 1.1 1.1 0 0 0-.37.396c-.176.304-.277.725-.277 1.245v41.397c0 .82.252 1.716.66 2.497.4.772.95 1.427 1.55 1.774l32.907 19.14c.283.163.55.242.785.242a.93.93 0 0 0 .48-.13 1.11 1.11 0 0 0 .37-.396c.176-.302.276-.723.276-1.244V151.98c0-.82-.252-1.715-.657-2.496-.402-.774-.95-1.43-1.55-1.776zm-32.61-19.65l32.907 19.137c.698.406 1.327 1.148 1.78 2.016.446.86.725 1.852.725 2.77v41.394c0 .627-.13 1.15-.358 1.54-.15.262-.346.466-.576.605-.232.142-.5.217-.785.217-.336 0-.704-.104-1.08-.324l-32.91-19.14c-.697-.403-1.328-1.146-1.78-2.013-.447-.86-.726-1.853-.726-2.77v-41.396c0-.626.13-1.15.358-1.54.15-.26.347-.465.576-.605.235-.145.5-.22.788-.22.335 0 .703.104 1.082.324z"/><path fill-rule="evenodd" clip-rule="evenodd" fill="#FFF" d="M88.977 36.873L73.13 27.656c-1.298-.754-2.357.047-2.357 1.783v41.395c0 1.735 1.06 3.774 2.356 4.528L106.04 94.5c1.293.755 2.353-.046 2.353-1.782V72.772c0-7.046.377-6.737-3.137-13.065l-7.84-14.117c-3.235-5.83-2.695-5.377-8.44-8.717z"/><path fill-rule="evenodd" clip-rule="evenodd" fill="#E94C6D" d="M87.82 38.92l-14.624-8.516v40.43c0 .484.162 1.04.423 1.54.23.447.5.797.743.94l31.663 18.438v-18.98c0-.747.008-.522.016-1.854.027-4.62.028-4.884-2.843-10.062L95.37 46.74l-.01-.01-.62-1.124c-1.104-2.002-1.67-3.032-2.307-3.69-.69-.712-1.79-1.352-4.052-2.667l-.562-.33zM74.366 25.608l15.827 9.217.562.327c2.643 1.538 3.93 2.285 5.07 3.465 1.096 1.132 1.766 2.347 3.066 4.71l.623 1.126-.004.002 7.822 14.106c3.47 6.26 3.47 6.59 3.437 12.38-.003.22 0-.27 0 1.835V92.72c0 1-.234 1.877-.642 2.58a3.79 3.79 0 0 1-1.286 1.333 3.524 3.524 0 0 1-1.863.526c-.69 0-1.41-.198-2.117-.61L71.996 77.413c-1.05-.61-1.958-1.658-2.58-2.85-.592-1.14-.96-2.475-.96-3.727v-41.4c0-1 .236-1.876.642-2.58a3.754 3.754 0 0 1 1.288-1.332 3.52 3.52 0 0 1 1.863-.527c.69 0 1.41.197 2.116.61z"/><path fill-rule="evenodd" clip-rule="evenodd" fill="#FFF" d="M88.977 36.873L73.13 27.656c-1.298-.754-2.357.047-2.357 1.783v41.395c0 1.735 1.06 3.774 2.356 4.528L106.04 94.5c1.293.755 2.353-.046 2.353-1.782V72.772c0-7.046.377-6.737-3.137-13.065l-7.84-14.117c-3.235-5.83-2.695-5.377-8.44-8.717z"/><path fill-rule="evenodd" clip-rule="evenodd" fill="#E94C6D" d="M88.755 37.256l-15.85-9.216c-.258-.15-.5-.223-.71-.223a.76.76 0 0 0-.4.108.943.943 0 0 0-.32.343c-.164.28-.256.676-.256 1.17v41.397c0 .795.244 1.667.64 2.428.39.75.92 1.384 1.49 1.716l32.91 19.136c.26.152.5.224.71.224.15 0 .287-.037.4-.107a.98.98 0 0 0 .32-.344c.164-.28.258-.678.258-1.17V72.772c0-.373.004-1.125.01-1.846.027-5.093.028-5.387-3.09-11.004L97.03 45.806h-.003l-.623-1.127c-1.184-2.15-1.794-3.255-2.618-4.106-.874-.902-2.052-1.586-4.472-2.99l-.563-.33zm-15.403-9.984L89.2 36.488l.564.328c2.49 1.446 3.703 2.15 4.662 3.14.908.938 1.538 2.08 2.76 4.296l.623 1.126 7.835 14.114c3.23 5.82 3.23 6.125 3.198 11.438-.002.388-.005.858-.005 1.843V92.72c0 .653-.14 1.2-.38 1.614a1.842 1.842 0 0 1-.626.657c-.257.16-.55.243-.863.243-.36 0-.753-.11-1.154-.345L72.906 75.75c-.722-.42-1.372-1.185-1.835-2.075-.456-.88-.74-1.898-.74-2.838v-41.4c0-.652.14-1.2.38-1.613.16-.283.375-.504.624-.657.258-.157.55-.24.863-.24.363 0 .753.112 1.156.345z"/><path fill-rule="evenodd" clip-rule="evenodd" fill="#B3B4B4" d="M6.31 156.04a.294.294 0 1 1-.293-.512l17.293-9.984a.296.296 0 0 1 .403.11.29.29 0 0 1-.11.4l-17.29 9.986z"/><path fill-rule="evenodd" clip-rule="evenodd" fill="#FFF" d="M6.164 160.76c2.742 0 4.977-2.236 4.977-4.978s-2.232-4.977-4.975-4.977-4.977 2.235-4.977 4.977 2.235 4.977 4.977 4.977z"/><path fill-rule="evenodd" clip-rule="evenodd" fill="#B3B4B4" d="M6.164 149.62c1.7 0 3.238.69 4.354 1.804l.005.006a6.145 6.145 0 0 1 1.806 4.354c0 1.7-.693 3.242-1.808 4.357a6.146 6.146 0 0 1-4.358 1.81c-1.702 0-3.244-.69-4.358-1.808S0 157.485 0 155.784s.69-3.242 1.806-4.36a6.15 6.15 0 0 1 4.358-1.804zm2.683 3.48a3.78 3.78 0 0 0-2.683-1.107 3.778 3.778 0 0 0-2.68 1.11c-.687.685-1.11 1.633-1.11 2.68s.424 1.994 1.11 2.68c.684.686 1.633 1.11 2.68 1.11s1.994-.425 2.68-1.11 1.11-1.633 1.11-2.68a3.78 3.78 0 0 0-1.107-2.682z"/><path fill-rule="evenodd" clip-rule="evenodd" fill="#D9DADA" d="M105.297 143.467a1.184 1.184 0 1 1 1.186-2.05l22.372 12.96c.565.328.76 1.053.432 1.62a1.187 1.187 0 0 1-1.618.43l-22.374-12.96zM105.297 150.364a1.184 1.184 0 1 1 1.186-2.05l22.372 12.96a1.186 1.186 0 0 1-1.186 2.052l-22.373-12.962zM105.297 157.542a1.184 1.184 0 0 1 1.186-2.05l11.013 6.382c.567.327.76 1.052.433 1.617a1.188 1.188 0 0 1-1.62.435l-11.014-6.382z"/><path fill-rule="evenodd" clip-rule="evenodd" fill="#E94C6D" d="M93.257 39.803a.297.297 0 0 1 .593 0v18.17l14.84 8.568a.296.296 0 1 1-.293.515l-14.965-8.64a.294.294 0 0 1-.175-.27v-18.34z"/><path fill-rule="evenodd" clip-rule="evenodd" fill="#D9DADA" d="M78.53 61.308a1.185 1.185 0 0 1-.43-1.618 1.182 1.182 0 0 1 1.618-.43l20.927 12.124c.565.328.76 1.052.43 1.618a1.18 1.18 0 0 1-1.616.43L78.53 61.31zM78.53 68.527a1.185 1.185 0 0 1 1.188-2.05l11.075 6.417a1.184 1.184 0 1 1-1.187 2.048L78.53 68.526z"/></svg>