<svg xmlns="http://www.w3.org/2000/svg" width="260" height="260" viewBox="-65.147 -39.859 260 260" overflow="visible"><path fill-rule="evenodd" clip-rule="evenodd" fill="#FFF" d="M10.002 54.188L97.384 3.29c1.9-1.107 3.648-1.18 4.987-.402l5.31 3.278-.01.016c1.94.726 3.215 3.03 3.215 6.447v87.034c0 5.616-3.432 12.215-7.628 14.66L15.874 165.22c-2.123 1.237-4.05 1.183-5.437.1l-.034.06-5.103-3.17a3.88 3.88 0 0 1-.57-.334l-.004-.003c-1.447-1.02-2.352-3.106-2.352-5.99V68.847c0-5.618 3.436-12.218 7.628-14.66z"/><path fill-rule="evenodd" clip-rule="evenodd" fill="#B3B4B4" d="M8.815 52.14l87.38-50.9C97.448.514 98.682.117 99.855.023c1.348-.108 2.6.177 3.703.816.057.03.11.066.162.102l5.14 3.175c1.396.625 2.53 1.744 3.3 3.285.7 1.407 1.098 3.175 1.098 5.23v87.035c0 3.192-.962 6.638-2.512 9.614-1.576 3.028-3.804 5.638-6.304 7.094L17.06 167.27c-1.393.813-2.78 1.21-4.09 1.234a6.193 6.193 0 0 1-3.376-.896 2.69 2.69 0 0 1-.312-.14c-.044-.024-.087-.05-.13-.075v.002l-5.008-3.115a4.334 4.334 0 0 1-.33-.175 2.575 2.575 0 0 1-.156-.1 8.167 8.167 0 0 1-.29-.19l-.01-.007c-1.114-.788-2-1.95-2.58-3.428-.5-1.273-.778-2.788-.778-4.497V68.847c0-3.192.964-6.638 2.512-9.612 1.575-3.03 3.805-5.64 6.303-7.096zM98.57 5.34L11.188 56.236c-1.693.986-3.28 2.9-4.47 5.186-1.216 2.337-1.972 5-1.972 7.425v87.036c0 1.117.158 2.05.442 2.772.217.552.497.965.82 1.223.05.03.098.063.143.1l.056.03.085.05c.09.04.176.086.26.14l4.63 2.877c.25.084.492.21.714.382a1.54 1.54 0 0 0 1.002.32c.502-.01 1.105-.204 1.79-.604l87.384-50.897c1.694-.987 3.28-2.9 4.467-5.184 1.218-2.338 1.973-5.004 1.973-7.427V12.63c0-1.3-.215-2.35-.597-3.116-.27-.54-.606-.908-.983-1.08a2.515 2.515 0 0 1-.4-.175 2.153 2.153 0 0 1-.377-.26l-4.917-3.036-.05-.028c-.263-.15-.587-.216-.96-.187-.483.037-1.04.23-1.656.59z"/><path fill-rule="evenodd" clip-rule="evenodd" fill="#F6F6F6" d="M10.002 54.188L97.384 3.29c1.9-1.107 3.648-1.178 4.987-.402l5.31 3.278-2.19 4.026v86.38c0 5.618-3.435 12.215-7.63 14.66l-84.9 49.45-2.555 4.696-5.104-3.173a3.908 3.908 0 0 1-.57-.333l-.004-.002c-1.446-1.02-2.35-3.107-2.35-5.99V68.846c0-5.618 3.43-12.216 7.627-14.66z"/><path fill-rule="evenodd" clip-rule="evenodd" fill="#B3B4B4" d="M9.854 53.932l87.38-50.896c.974-.567 1.912-.876 2.783-.945.92-.07 1.768.117 2.502.543l.005.005 5.307 3.277.237.146-.134.247-2.154 3.958V96.57c0 2.856-.87 5.96-2.275 8.657-1.405 2.705-3.353 5.008-5.5 6.26l-84.83 49.41-2.516 4.622-.15.273-.264-.166-5.095-3.167c-.102-.05-.2-.1-.29-.153a5.514 5.514 0 0 1-.296-.187l-.33-.182.043-.04c-.66-.55-1.193-1.315-1.57-2.276-.405-1.033-.63-2.294-.63-3.744v-87.03c0-2.857.87-5.96 2.273-8.658 1.41-2.704 3.356-5.006 5.504-6.258zM97.53 3.547L10.15 54.443c-2.048 1.193-3.915 3.41-5.272 6.02-1.36 2.617-2.207 5.624-2.207 8.384v87.032c0 1.376.21 2.562.59 3.526.386.982.947 1.735 1.637 2.22l.003.003.005.003.006.005c.08.053.164.106.25.156.09.053.18.1.267.14l.03.018 4.84 3.01 2.403-4.42.11-.116 84.9-49.45c2.048-1.194 3.915-3.41 5.272-6.022 1.36-2.616 2.208-5.623 2.208-8.384V10.19l.037-.142 2.058-3.78-5.062-3.126c-.63-.365-1.36-.527-2.16-.464-.785.064-1.636.346-2.532.867z"/><path fill-rule="evenodd" clip-rule="evenodd" fill="#FFF" d="M15.874 57.754l87.382-50.898c4.192-2.44 7.628.157 7.628 5.773v87.03c0 5.615-3.433 12.215-7.628 14.658l-87.382 50.897c-4.194 2.443-7.628-.153-7.628-5.772v-87.03c0-5.62 3.437-12.218 7.628-14.66z"/><path fill-rule="evenodd" clip-rule="evenodd" fill="#B3B4B4" d="M15.727 57.497L103.11 6.6c1.115-.65 2.187-.958 3.164-.958.807 0 1.55.208 2.2.607.646.394 1.2.975 1.636 1.72.68 1.17 1.07 2.748 1.07 4.658V99.66c0 2.855-.87 5.96-2.274 8.657-1.407 2.7-3.354 5.006-5.5 6.257L16.023 165.47c-1.12.652-2.19.96-3.168.96a4.16 4.16 0 0 1-2.2-.606c-.646-.396-1.2-.976-1.634-1.722-.68-1.17-1.07-2.748-1.07-4.66v-87.03c0-2.855.873-5.96 2.276-8.655 1.407-2.704 3.354-5.01 5.502-6.26zm87.677-50.385L16.022 58.01c-2.046 1.19-3.914 3.41-5.27 6.02-1.363 2.616-2.21 5.622-2.21 8.383v87.032c0 1.806.36 3.283.99 4.363.384.66.87 1.17 1.43 1.514.557.34 1.195.52 1.893.52.877 0 1.848-.283 2.872-.88l87.382-50.897c2.044-1.192 3.91-3.41 5.27-6.02 1.36-2.617 2.207-5.623 2.207-8.383V12.63c0-1.805-.362-3.282-.99-4.36-.385-.66-.87-1.17-1.432-1.516a3.584 3.584 0 0 0-1.892-.52c-.877 0-1.848.282-2.87.878z"/><path fill-rule="evenodd" clip-rule="evenodd" fill="#F6F6F6" d="M110.387 93.474v5.956c0 5.615-3.435 12.217-7.63 14.66l-34.795 20.267V75.782c0-7.655 6.734-12.246 10.84-10.635v-.003l.013.008c1.554.616 4.44 2.577 6.43 3.847.34.15.657.346.95.59h.003c1.173.98 1.94 2.698 1.94 5.28v25.87c.236-.16.478-.307.723-.44 1.516-.822 2.923-1 4.067-.635h.002v.002c.79.253 2.515 1.477 3.354 1.97 1.002-3.68 3.547-7.305 6.51-8.917 1.485-.807 2.866-.995 4-.655h.002c.804.24 2.55 1.51 3.41 2.022.056-.205.116-.41.182-.613z"/><path fill-rule="evenodd" clip-rule="evenodd" fill="#BBCE32" d="M37.416 50.512c-1.98 1.15-3.585 4.07-3.585 6.52 0 2.453 1.607 3.508 3.587 2.356 1.98-1.15 3.584-4.07 3.584-6.522 0-2.45-1.603-3.506-3.583-2.354z"/><path fill-rule="evenodd" clip-rule="evenodd" fill="#2EBCE3" d="M27.414 56.388c-1.98 1.15-3.584 4.07-3.584 6.522s1.604 3.506 3.584 2.354c1.98-1.15 3.585-4.07 3.585-6.52s-1.607-3.507-3.587-2.356z"/><path fill-rule="evenodd" clip-rule="evenodd" fill="#B3B4B4" d="M110.734 21.793a.3.3 0 0 1 .405.107.298.298 0 0 1-.11.405L8.395 81.972a.296.296 0 0 1-.404-.107.297.297 0 0 1 .108-.403l102.636-59.67zM90.67 43.766l-72.325 42.11c-.584.342-1.12.98-1.512 1.73-.395.762-.642 1.635-.642 2.433v4.617c0 .506.1.916.273 1.21.098.17.22.3.36.385.134.083.29.125.463.125.228 0 .487-.075.763-.235L90.372 54.03c.582-.338 1.118-.976 1.512-1.73.396-.76.642-1.63.642-2.43v-4.62c0-.506-.098-.915-.27-1.21-.1-.17-.22-.3-.36-.385a.876.876 0 0 0-.464-.125c-.23 0-.488.075-.763.236zm-72.622 41.6l72.325-42.11c.37-.22.73-.32 1.06-.32.28 0 .542.074.772.214.224.14.415.34.564.595.22.38.35.895.35 1.506v4.62c0 .897-.273 1.865-.71 2.704-.44.847-1.06 1.573-1.74 1.97l-72.326 42.11c-.37.217-.73.32-1.06.32-.282 0-.542-.075-.77-.215a1.652 1.652 0 0 1-.566-.595c-.224-.382-.353-.895-.353-1.507v-4.62c0-.895.272-1.863.71-2.704.442-.845 1.057-1.57 1.74-1.968zM99.72 37.978c.53-.27 1.04-.4 1.512-.4.464 0 .89.124 1.256.36.36.23.66.565.88.992.266.513.415 1.16.415 1.914 0 1.244-.404 2.576-1.06 3.722-.657 1.154-1.575 2.13-2.596 2.655-.53.273-1.04.403-1.51.403-.465 0-.89-.124-1.258-.36a2.508 2.508 0 0 1-.883-.993c-.265-.514-.413-1.16-.413-1.915 0-1.244.406-2.575 1.06-3.722.657-1.154 1.575-2.13 2.596-2.655zm1.51.488c-.334 0-.707.097-1.103.302-.864.443-1.654 1.29-2.23 2.302-.582 1.02-.94 2.194-.94 3.285 0 .61.112 1.12.31 1.51.15.284.343.507.57.65.223.142.485.217.78.217.335 0 .708-.096 1.104-.3.866-.444 1.656-1.293 2.23-2.304.584-1.018.94-2.193.94-3.284 0-.61-.11-1.12-.31-1.508v-.002a1.674 1.674 0 0 0-.57-.65 1.42 1.42 0 0 0-.78-.218z"/><path fill-rule="evenodd" clip-rule="evenodd" fill="#B3B4B4" d="M102.097 44.72a.443.443 0 0 1-.1-.62.446.446 0 0 1 .62-.1l3.275 2.373c.198.144.242.42.1.62a.447.447 0 0 1-.62.1l-3.275-2.373zM8.395 81.46a.297.297 0 0 1 .108.404.297.297 0 0 1-.405.107l-5.396-3.114a.296.296 0 1 1 .297-.51l5.395 3.117z"/><path fill-rule="evenodd" clip-rule="evenodd" fill="#F6F6F6" d="M97.16 107.79a9.89 9.89 0 0 1 .722-.436c1.515-.825 2.92-1.004 4.066-.638h.004c.792.256 2.514 1.477 3.353 1.97 1.003-3.677 3.548-7.302 6.51-8.915 1.485-.806 2.866-.993 4-.654h.002c.806.24 2.548 1.51 3.41 2.023.997-3.69 3.55-7.333 6.52-8.95 1.727-.94 3.313-1.04 4.533-.45l.003.003c1.99.968 4.543 2.73 6.52 3.916 1.323.797 2.152 2.48 2.152 4.83v33.45c0 4.92-3.37 10.78-7.486 13.02l-40.755 22.177c-2.424 1.32-4.587 1.102-5.958-.302l-5.193-2.998a3.735 3.735 0 0 1-.405-.235l-.007-.003c-1.34-.893-2.167-2.66-2.167-5.1V82.83c0-7.655 6.734-12.247 10.84-10.634v-.004l.013.008c1.552.616 4.44 2.576 6.43 3.846.337.152.656.35.95.592v.002c1.174.977 1.94 2.696 1.94 5.278v25.87z"/><path fill-rule="evenodd" clip-rule="evenodd" fill="#B3B4B4" d="M98.74 109.586l-.113.07a2.374 2.374 0 0 1-3.84-1.865V81.923c-.002-.957-.127-1.728-.347-2.325-.166-.456-.382-.8-.63-1.042a2.545 2.545 0 0 1-.196-.16l-.102-.066a1.573 1.573 0 0 0-.22-.12l.004-.004a2.348 2.348 0 0 1-.3-.162c-.687-.438-.904-.58-1.19-.766-1.68-1.09-3.648-2.365-4.722-2.827a1.37 1.37 0 0 1-.14-.05c-.262-.1-.566-.15-.898-.15-1.008 0-2.16.447-3.23 1.26-1.156.876-2.176 2.153-2.803 3.75a9.724 9.724 0 0 0-.656 3.575V160.5c0 .877.13 1.6.365 2.153.173.407.398.715.657.915.066.04.13.084.193.13l.045.024c.04.02.08.042.12.065l5.073 2.93c.23.114.45.27.64.466.27.276.62.435 1.035.462h.032c.576.03 1.274-.156 2.062-.586l40.75-22.178c1.67-.908 3.22-2.604 4.37-4.605 1.158-2.01 1.876-4.286 1.876-6.338v-33.45c0-.825-.124-1.49-.345-1.988-.15-.34-.343-.595-.56-.756a2.27 2.27 0 0 1-.26-.16c-.767-.464-1.346-.833-1.94-1.21-1.46-.927-3.015-1.913-4.205-2.494l-.035-.016c-.23-.108-.516-.15-.846-.117-.445.043-.954.213-1.514.516-1.152.628-2.248 1.675-3.173 2.943a14.1 14.1 0 0 0-2.188 4.54 2.37 2.37 0 0 1-3.495 1.427 29.28 29.28 0 0 1-1.07-.68c-.683-.45-1.484-.976-1.765-1.094-.043-.012-.086-.024-.13-.04a2 2 0 0 0-.768-.01c-.407.067-.858.23-1.345.494-1.15.624-2.24 1.666-3.16 2.93a14.146 14.146 0 0 0-2.188 4.477 2.362 2.362 0 0 1-3.488 1.47c-.395-.23-.703-.43-1.04-.646-.73-.47-1.597-1.03-1.84-1.108v-.003l-.02-.008a1.922 1.922 0 0 0-.833-.03c-.406.062-.864.227-1.365.5l-.27.16v-.007zm.793-5.308l.122-.02c1.048-.164 2.046-.095 2.964.19l.055.018v-.002c.427.137.92.388 1.43.68a19.11 19.11 0 0 1 1.86-3.15c1.322-1.81 2.947-3.335 4.718-4.3.973-.527 1.93-.86 2.848-1.01.993-.164 1.94-.12 2.81.115.126.026.25.065.37.116.41.15.86.383 1.32.65a19.29 19.29 0 0 1 1.855-3.14c1.325-1.817 2.954-3.35 4.73-4.314 1.134-.618 2.252-.968 3.312-1.073 1.147-.114 2.223.052 3.185.477.125.046.246.104.363.17 1.458.728 3.045 1.735 4.54 2.685.8.51 1.576 1 2 1.255l.057.035c1.068.658 1.92 1.644 2.484 2.912.496 1.113.772 2.433.772 3.915v33.45c0 2.87-.97 5.985-2.526 8.692-1.563 2.72-3.76 5.073-6.205 6.404l-40.754 22.177c-1.588.865-3.144 1.234-4.566 1.16l-.05-.003c-1.514-.09-2.85-.656-3.92-1.644l-4.868-2.81a7.392 7.392 0 0 1-.26-.144l-.01-.004-.002.004a7.02 7.02 0 0 1-.25-.16l-.072-.044-.003.002c-1.068-.71-1.918-1.748-2.478-3.065-.485-1.145-.756-2.493-.756-4.008V82.833c0-1.93.367-3.71.99-5.3.966-2.457 2.554-4.438 4.36-5.808 1.893-1.436 4.063-2.223 6.086-2.223.83 0 1.646.135 2.42.408.17.048.334.114.486.198 1.49.646 3.613 2.02 5.432 3.2l.994.644a6.31 6.31 0 0 1 1.173.73c.134.093.257.195.367.31.84.752 1.52 1.74 1.97 2.975.41 1.113.643 2.43.643 3.955v22.356zm29.717-10.404l-.014-.007.014.007zM88.954 70.11l.554.413a2.37 2.37 0 0 0-.554-.414z"/><path fill-rule="evenodd" clip-rule="evenodd" fill="#F6F6F6" d="M93.42 111.727c1.21-1.87 2.77-3.452 4.462-4.372 1.515-.825 2.92-1.004 4.066-.638h.004c.792.256 2.514 1.477 3.353 1.97 1.003-3.677 3.548-7.302 6.51-8.915 1.485-.808 2.866-.995 4-.656h.002c.806.24 2.548 1.51 3.41 2.023.997-3.69 3.55-7.334 6.52-8.95 1.727-.94 3.313-1.04 4.533-.45l.003.002c1.99.968 4.543 2.73 6.52 3.916l-4.09 5.923v28.593c0 4.92-3.37 10.78-7.486 13.02L91.215 161.7l-5.36 7.766-6.29-3.63a3.735 3.735 0 0 1-.405-.235l-.006-.002c-1.34-.89-2.167-2.66-2.167-5.1V82.832c0-7.655 6.734-12.247 10.84-10.634v-.004l.013.008c1.825.724 5.497 3.306 7.382 4.44l-3.64 26.622 1.838 8.46z"/><path fill-rule="evenodd" clip-rule="evenodd" fill="#B3B4B4" d="M93.562 110.99c.53-.75 1.117-1.445 1.743-2.058.76-.745 1.58-1.373 2.436-1.84.777-.42 1.526-.68 2.233-.79.737-.116 1.43-.068 2.052.128l.02.006c.588.188 1.61.85 2.464 1.4.223.143.433.278.62.395a16.92 16.92 0 0 1 2.507-5.017c1.148-1.57 2.54-2.885 4.038-3.7.76-.413 1.496-.672 2.19-.786.722-.118 1.4-.08 2.013.1L93.563 110.99zm2.158-1.636c-.75.734-1.438 1.59-2.043 2.52a.294.294 0 0 1-.194.144.297.297 0 0 1-.353-.23l-1.838-8.46a.276.276 0 0 1-.004-.1L94.9 76.795c-.554-.34-1.232-.78-1.963-1.254-1.81-1.173-3.944-2.557-5.188-3.056l-.028-.01-.008-.002a4.564 4.564 0 0 0-1.668-.3c-1.452 0-3.052.594-4.48 1.678-1.44 1.093-2.708 2.68-3.483 4.652a11.805 11.805 0 0 0-.802 4.33v77.665c0 1.158.19 2.153.536 2.965.35.822.855 1.456 1.48 1.878.016.008.03.018.043.027.047.03.103.066.165.1l-.002.003c.062.034.127.07.19.102l.017.008 6.054 3.495 5.206-7.54a.27.27 0 0 1 .102-.093l34.012-18.507c2.01-1.095 3.843-3.078 5.173-5.394 1.332-2.316 2.16-4.96 2.16-7.367V101.58c0-.06.017-.117.052-.168l3.91-5.666c-.585-.355-1.18-.734-1.794-1.123-1.503-.955-3.1-1.97-4.427-2.614l-.01-.005c-.574-.278-1.236-.39-1.964-.318-.714.072-1.49.32-2.3.76-1.425.776-2.754 2.035-3.854 3.544-1.134 1.56-2.023 3.38-2.52 5.22-.007.025-.02.052-.032.077a.296.296 0 0 1-.404.104c-.27-.16-.614-.386-.99-.63-.835-.55-1.827-1.2-2.348-1.36l-.017-.005c-.53-.158-1.126-.19-1.763-.086-.63.103-1.303.34-2.002.72-1.42.772-2.746 2.025-3.844 3.53a16.23 16.23 0 0 0-2.52 5.19.294.294 0 0 1-.437.19c-.265-.157-.6-.373-.964-.607-.83-.533-1.815-1.17-2.33-1.336-.54-.172-1.147-.214-1.8-.112-.64.1-1.325.338-2.037.726-.803.44-1.58 1.035-2.302 1.743zm20.2-10.516l-22.357 12.15-1.682-7.735 3.634-26.57a.295.295 0 0 0-.14-.292c-.567-.34-1.31-.82-2.112-1.342-1.83-1.185-3.983-2.58-5.284-3.105a.27.27 0 0 0-.086-.034 5.144 5.144 0 0 0-1.842-.328c-1.578 0-3.305.64-4.838 1.8-1.52 1.155-2.86 2.83-3.678 4.91a12.415 12.415 0 0 0-.844 4.544V160.5c0 1.234.21 2.31.584 3.195.396.933.98 1.656 1.705 2.142l.024.018.006.003c.072.046.14.09.2.124h.002c.07.04.144.08.216.116l6.267 3.618a.294.294 0 0 0 .403-.08l5.32-7.708 33.95-18.475c2.106-1.146 4.02-3.213 5.402-5.616 1.382-2.404 2.24-5.152 2.24-7.662v-28.503l4.03-5.84.015-.022a.295.295 0 0 0-.102-.404c-.605-.363-1.315-.815-2.048-1.28-1.507-.958-3.11-1.975-4.475-2.64a.156.156 0 0 0-.047-.022c-.663-.316-1.426-.442-2.253-.36-.79.077-1.64.35-2.524.83-1.503.816-2.898 2.136-4.05 3.713a16.904 16.904 0 0 0-2.506 5.034c-.193-.12-.41-.265-.638-.413-.862-.57-1.886-1.24-2.49-1.428zm21.124-3.013l-.003.006.005-.004zm-58.055 70.02l-.014-.008.012.008z"/><path fill-rule="evenodd" clip-rule="evenodd" fill="#FFF" d="M97.16 81.922v41.312c0-4.576 3.134-10.027 6.965-12.113 3.832-2.083 6.967-.043 6.967 4.535 0-4.578 3.135-10.03 6.966-12.114 3.83-2.084 6.966-.045 6.966 4.533 0-4.578 3.134-10.028 6.966-12.113 3.83-2.085 6.965-.047 6.965 4.53v33.45c0 4.923-3.37 10.78-7.486 13.02l-40.755 22.18c-4.118 2.24-7.487.05-7.487-4.87V86.6c-.002-11.012 13.93-15.69 13.93-4.68z"/><path fill-rule="evenodd" clip-rule="evenodd" fill="#B3B4B4" d="M97.456 81.922v37.597c.36-1.177.87-2.34 1.494-3.424 1.287-2.242 3.07-4.166 5.033-5.237 1.067-.58 2.087-.855 3.01-.855.78 0 1.496.197 2.112.573.614.37 1.128.92 1.51 1.624.174.317.32.665.438 1.043.333-1.613.974-3.243 1.83-4.732 1.287-2.24 3.068-4.164 5.033-5.234 1.065-.58 2.087-.855 3.008-.855.783 0 1.498.197 2.114.572.613.373 1.127.922 1.51 1.626.172.316.32.666.437 1.043.333-1.613.973-3.243 1.828-4.732 1.29-2.24 3.07-4.166 5.034-5.234 1.067-.58 2.087-.854 3.01-.854.78 0 1.496.197 2.112.572.612.372 1.127.922 1.51 1.626.492.906.77 2.07.77 3.45v33.45c0 2.51-.856 5.257-2.24 7.66-1.38 2.405-3.293 4.47-5.4 5.62L90.856 169.4c-1.143.62-2.235.916-3.223.916-.837 0-1.6-.212-2.26-.61s-1.206-.986-1.615-1.74c-.53-.97-.83-2.22-.83-3.697V86.6c0-4.893 2.69-8.567 5.735-10.244.992-.546 2.026-.883 3.02-.98 1.008-.1 1.978.044 2.826.46 1.73.842 2.945 2.798 2.945 6.084zm0 41.31h-.593v-41.31c0-3.024-1.08-4.805-2.613-5.555-.745-.365-1.606-.49-2.506-.402-.914.09-1.87.402-2.794.91-2.883 1.588-5.427 5.076-5.427 9.727v77.665c0 1.38.272 2.532.753 3.414.36.66.835 1.175 1.402 1.518.564.343 1.225.523 1.954.523.895 0 1.89-.27 2.94-.84l40.752-22.18c2.01-1.09 3.844-3.076 5.175-5.392 1.33-2.314 2.155-4.957 2.155-7.367v-33.45c0-1.28-.25-2.35-.696-3.166-.333-.61-.774-1.085-1.298-1.403a3.458 3.458 0 0 0-1.81-.482c-.828 0-1.75.25-2.725.78-1.867 1.016-3.567 2.86-4.804 5.01-1.238 2.15-2.006 4.607-2.006 6.845h-.595c0-1.28-.25-2.35-.695-3.166-.333-.61-.774-1.086-1.298-1.403-.52-.317-1.135-.484-1.81-.484-.828 0-1.75.25-2.725.78-1.867 1.015-3.57 2.858-4.806 5.01-1.238 2.15-2.006 4.605-2.006 6.845h-.594c0-1.282-.25-2.35-.695-3.167-.333-.612-.773-1.084-1.3-1.403-.52-.318-1.133-.484-1.806-.484-.83 0-1.755.253-2.73.78-1.866 1.02-3.567 2.86-4.805 5.01-1.23 2.15-2 4.607-2 6.844z"/><path fill-rule="evenodd" clip-rule="evenodd" fill="#E94C6D" d="M17.806 62.394c-1.98 1.15-3.584 4.07-3.584 6.522s1.604 3.506 3.584 2.354c1.98-1.15 3.584-4.07 3.584-6.522 0-2.45-1.606-3.506-3.584-2.354z"/></svg>