<svg xmlns="http://www.w3.org/2000/svg" width="260" height="260" viewBox="-55.454 -25.777 260 260" overflow="visible"><path fill-rule="evenodd" clip-rule="evenodd" fill="#FFF" d="M137.43 115.212l8.024-4.52c5.642-3.18 10.278-10.434 10.306-16.12l.17-36.69c.01-2.615-.956-4.46-2.554-5.382L67.783 3.08l-.133-.075c-1.875-1.04-4.59-.835-7.595.858l-8.13 4.58-.16.276v57.03l85.666 49.46z"/><path fill-rule="evenodd" clip-rule="evenodd" fill="#B3B4B4" d="M137.442 112.485l6.854-3.862c2.482-1.4 4.757-3.717 6.423-6.322 1.64-2.564 2.663-5.352 2.675-7.737l.17-36.69c.004-.912-.147-1.665-.426-2.254-.23-.48-.553-.84-.95-1.07-.048-.026-.095-.057-.14-.087L66.666 5.165a2.197 2.197 0 0 1-.286-.156c-.503-.24-1.153-.326-1.917-.24-.955.107-2.055.486-3.248 1.16L54.14 9.916V64.39l83.302 48.095zm9.17.273l-8.023 4.52h-.003a2.367 2.367 0 0 1-2.345-.018L50.73 67.89a2.376 2.376 0 0 1-1.337-2.137V8.72h.006c-.004-.403.1-.813.316-1.187l.11-.19c.206-.394.524-.734.94-.968l8.128-4.58C60.648.808 62.36.24 63.94.063c1.76-.198 3.368.085 4.73.808.056.027.11.057.163.088l.134.076-.003.005 85.4 49.304c.114.052.223.112.328.184l.054.037c1.142.706 2.054 1.728 2.675 3.036.57 1.2.88 2.64.87 4.29l-.166 36.69c-.017 3.303-1.324 6.986-3.42 10.263-2.066 3.235-4.93 6.135-8.09 7.916z"/><path fill-rule="evenodd" clip-rule="evenodd" fill="#FFF" d="M70.097 45.11l.03-6.655 66.498 41.34L153.377 52.5 67.782 3.08l-.133-.075c-1.876-1.04-4.59-.835-7.596.858l-8.13 4.58-.16.276v57.03l8.025-4.52c5.642-3.18 10.28-10.433 10.306-16.12z"/><path fill-rule="evenodd" clip-rule="evenodd" fill="#B3B4B4" d="M69.8 45.11l.032-6.655.003-.53.447.28 66.246 41.182 16.438-26.783-85.33-49.267h-.002l-.13-.075c-.9-.498-2.013-.692-3.27-.552-1.23.14-2.597.6-4.034 1.412l-8.057 4.54-.08.137v56.445l7.582-4.273c2.778-1.565 5.312-4.138 7.154-7.02 1.84-2.876 2.987-6.057 3-8.842zm.62-6.125l-.028 6.128c-.014 2.9-1.197 6.19-3.094 9.158-1.893 2.96-4.5 5.607-7.363 7.22l-8.023 4.52-.44.25V8.72l.04-.148.16-.276.11-.11 8.13-4.58c1.508-.85 2.95-1.335 4.258-1.482 1.186-.135 2.264.01 3.184.407v-.04l.444.258.134.08 85.595 49.416.263.152-.158.258-16.755 27.297-.156.255-.25-.157-66.05-41.062zM67.505 3.262z"/><path fill-rule="evenodd" clip-rule="evenodd" fill="#FFF" d="M2.373 94.27v52.182c0 3.544 1.198 6.074 3.083 7.173l.01.006.004.004 85.723 49.397c1.58.97 3.686.935 5.936-.376l31.37-18.288c4.872-2.84 8.93-10.432 8.93-16.946v-52.207l-85.664-49.46L2.373 94.27z"/><path fill-rule="evenodd" clip-rule="evenodd" fill="#B3B4B4" d="M4.746 95.635v50.816c0 1.41.22 2.59.61 3.5.328.765.762 1.313 1.266 1.613.055.03.11.064.162.1l85.377 49.2c.13.057.254.125.37.204.372.2.81.292 1.3.262.627-.04 1.34-.276 2.11-.726l31.373-18.288c2.054-1.197 3.977-3.477 5.404-6.188 1.44-2.734 2.34-5.852 2.34-8.71v-50.843l-83.29-48.088-47.02 27.15zM0 146.45V94.27h.005c0-.815.424-1.61 1.182-2.048l49.375-28.507a2.362 2.362 0 0 1 2.39-.01l85.516 49.372a2.373 2.373 0 0 1 1.336 2.135v52.206c0 3.63-1.113 7.53-2.895 10.916-1.823 3.454-4.386 6.423-7.224 8.08L98.316 204.7c-1.428.832-2.846 1.27-4.19 1.355-1.53.097-2.944-.26-4.165-1.007v-.002L4.48 155.786a2.545 2.545 0 0 1-.39-.224c-1.322-.826-2.38-2.096-3.087-3.74-.64-1.49-1-3.304-1-5.37z"/><path fill-rule="evenodd" clip-rule="evenodd" fill="#F6F6F6" d="M2.373 94.27v52.18c0 3.55 1.197 6.074 3.083 7.173l.01.006h.002l83.502 48.235.782-3.81 31.32-17.89c4.907-2.804 8.93-10.43 8.93-16.945V119.5l-41.965 24.23L2.373 94.27z"/><path fill-rule="evenodd" clip-rule="evenodd" fill="#B3B4B4" d="M2.67 94.783v51.665c0 1.702.278 3.155.78 4.32.51 1.19 1.25 2.07 2.155 2.598l.008.006.003.002.01.005h.005l.004.002 83.13 48.02.7-3.406.026-.13.116-.067 31.32-17.89c2.402-1.375 4.595-3.94 6.19-6.966 1.597-3.03 2.59-6.517 2.59-9.725v-43.21l-41.522 23.974-.147.085-.147-.086-85.22-49.2zm-.593 51.665V93.76l.443.256 85.517 49.373 41.82-24.146.44-.258v44.234c0 3.306-1.018 6.89-2.657 10-1.644 3.12-3.918 5.773-6.424 7.204l-31.202 17.823-.755 3.678-.085.4-.355-.205-83.5-48.234-.015-.01H5.3l-3.223-7.428zm.828 4.554c-.532-1.236-.828-2.77-.828-4.554l.828 4.554zm2.397 2.873c-1.013-.593-1.838-1.57-2.396-2.873l2.396 2.873z"/><path fill-rule="evenodd" clip-rule="evenodd" fill="#FFF" d="M87.876 143.637v52.084c0 6.5 4.033 9.543 8.932 6.746l31.69-18.103c4.898-2.798 8.933-10.433 8.933-16.947v-52.203L88.04 143.73l-.16-.093z"/><path fill-rule="evenodd" clip-rule="evenodd" fill="#B3B4B4" d="M88.173 143.993v51.728c0 2.06.41 3.756 1.13 5.01.458.805 1.04 1.427 1.718 1.845a4.302 4.302 0 0 0 2.295.634c1.026 0 2.158-.32 3.348-1l31.692-18.104c2.4-1.37 4.594-3.938 6.188-6.967 1.597-3.03 2.592-6.517 2.592-9.724v-51.69l-48.95 28.26-.01.008zm-.594 51.728v-52.595l.442.256.013.008 49.245-28.43.446-.258v52.715c0 3.303-1.02 6.887-2.66 9.998-1.646 3.122-3.92 5.776-6.42 7.206l-31.694 18.1c-1.282.734-2.514 1.08-3.64 1.08-.953 0-1.83-.25-2.6-.725-.767-.472-1.42-1.164-1.926-2.053-.766-1.343-1.207-3.14-1.207-5.302z"/><path fill-rule="evenodd" clip-rule="evenodd" fill="#EBECEB" d="M51.767 65.753l85.664 49.46-49.553 28.424L2.373 94.27"/><path fill-rule="evenodd" clip-rule="evenodd" fill="#B3B4B4" d="M51.915 65.498l85.663 49.458a.295.295 0 0 1-.002.51l-49.553 28.426a.29.29 0 0 1-.313-.012L2.226 94.527a.295.295 0 0 1 0-.51l49.394-28.52a.287.287 0 0 1 .295 0zm84.92 49.713L51.768 66.097 2.964 94.27l84.912 49.025 48.96-28.084z"/><path fill-rule="evenodd" clip-rule="evenodd" fill="#FFF" d="M155.76 94.57l.17-36.69c.024-5.688-4.582-7.73-10.21-4.56l-8.128 4.58-.16.277v57.034l8.022-4.52c5.642-3.18 10.278-10.43 10.306-16.12z"/><path fill-rule="evenodd" clip-rule="evenodd" fill="#B3B4B4" d="M155.464 94.57l.17-36.69c.006-1.396-.274-2.56-.786-3.467a4.338 4.338 0 0 0-1.685-1.695c-.7-.39-1.528-.59-2.45-.595-1.428-.007-3.084.463-4.85 1.457l-8.058 4.54-.08.14v56.446l7.585-4.273c2.777-1.565 5.312-4.14 7.153-7.02 1.84-2.88 2.988-6.06 3-8.844zm.76-36.69l-.168 36.69c-.014 2.902-1.198 6.194-3.094 9.16-1.893 2.96-4.5 5.604-7.363 7.22l-8.025 4.52-.44.25V58.177l.04-.148.16-.277.11-.11 8.13-4.58c1.854-1.045 3.61-1.537 5.14-1.53 1.022.005 1.948.232 2.736.67a4.925 4.925 0 0 1 1.914 1.92c.558.993.865 2.254.86 3.757z"/><path fill-rule="evenodd" clip-rule="evenodd" fill="#F0EFEF" d="M51.767 65.753V8.72l85.664 49.458v57.034"/><path fill-rule="evenodd" clip-rule="evenodd" fill="#B3B4B4" d="M51.47 65.753V8.72a.296.296 0 0 1 .462-.247l85.36 49.45a.292.292 0 0 1 .147.255v57.034a.297.297 0 0 1-.296.297.28.28 0 0 1-.165-.054L51.617 66.01a.3.3 0 0 1-.148-.257zm.592-56.52v56.35L136.85 114.7V58.35L52.06 9.23z"/><path fill-rule="evenodd" clip-rule="evenodd" fill="#E94C6D" d="M113.08 141.6c8.72-5.27 15.79-.665 15.79 10.285 0 10.952-7.07 24.104-15.79 29.375-8.72 5.27-15.79.667-15.79-10.284 0-10.953 7.07-24.104 15.79-29.375z"/><path fill-rule="evenodd" clip-rule="evenodd" fill="#FFF" d="M110.244 152.888l5.673-3.43v6.697l5.33-3.223v7.123l-5.33 3.222v6.696l-5.673 3.43v-6.696l-5.33 3.222v-7.124l5.33-3.224M116.262 71.894L44.61 30.157c-1.562-.908-2.993-.968-4.092-.33l-4.352 2.688.008.013c-1.592.595-2.637 2.486-2.637 5.288v72.337l54.418 31.478 34.56-19.95V83.912c.002-4.607-2.814-10.016-6.253-12.02z"/><path fill-rule="evenodd" clip-rule="evenodd" fill="#B3B4B4" d="M115.27 73.942L43.453 32.206c-.45-.26-.847-.4-1.18-.426a.907.907 0 0 0-.543.097l-.052.028-4.047 2.493a2.392 2.392 0 0 1-.617.343l.003.003c-.235.087-.457.33-.646.708-.285.57-.447 1.366-.447 2.365v70.976l52.167 30.105 32.26-18.58v-36.4c0-1.92-.602-4.034-1.57-5.893-.943-1.807-2.19-3.313-3.51-4.08zM45.83 28.108l71.818 41.736c2.128 1.235 4.02 3.438 5.348 5.99 1.304 2.495 2.112 5.39 2.112 8.078v37.764h-.006a2.37 2.37 0 0 1-1.184 2.05l-34.622 19.94a2.377 2.377 0 0 1-2.398.012l-54.396-31.392a2.372 2.372 0 0 1-1.338-2.135V37.817c0-1.75.343-3.266.948-4.48.673-1.343 1.667-2.325 2.897-2.88l4.18-2.574c.05-.036.103-.07.16-.102a5.584 5.584 0 0 1 3.29-.728c1.028.083 2.105.43 3.19 1.058z"/><path fill-rule="evenodd" clip-rule="evenodd" fill="#F6F6F6" d="M116.262 71.894L44.61 30.157c-1.562-.908-2.993-.968-4.092-.33l-4.352 2.688 1.797 3.302v77.28c0 .603.05 1.22.142 1.843l49.85 28.836 34.562-19.953v-39.91c0-4.607-2.816-10.016-6.255-12.02z"/><path fill-rule="evenodd" clip-rule="evenodd" fill="#B3B4B4" d="M116.674 72.15L44.52 30.412c-.73-.422-1.427-.652-2.068-.703-.648-.05-1.242.08-1.75.373l-4.136 2.535 1.675 3.055.04.142v77.28c0 .295.01.592.034.885.02.256.048.516.083.774l49.926 28.678 34.502-19.78v-39.74c0-2.257-.695-4.712-1.816-6.852-1.12-2.13-2.653-3.942-4.335-4.913zM44.82 29.9l72.153 41.736c1.783 1.03 3.398 2.93 4.564 5.153 1.162 2.217 1.884 4.77 1.884 7.12v40.08l-.15.086-34.8 19.954-.147.085-.15-.084-50.2-28.834-.124-.072-.02-.142a12.272 12.272 0 0 1-.147-1.884V35.89l-1.77-3.233-.136-.245.24-.148 4.38-2.687.008-.005a3.59 3.59 0 0 1 2.097-.452c.728.06 1.51.313 2.32.78z"/><path fill-rule="evenodd" clip-rule="evenodd" fill="#FFF" d="M111.446 74.817L39.794 33.082c-3.44-2.005-6.256.127-6.256 4.733v74.483l54.418 31.477 29.745-17.173V86.837c0-4.608-2.812-10.017-6.253-12.02z"/><path fill-rule="evenodd" clip-rule="evenodd" fill="#B3B4B4" d="M111.572 75.073L39.668 33.337c-.835-.484-1.625-.713-2.336-.713a2.91 2.91 0 0 0-1.53.417c-.454.28-.846.69-1.157 1.225-.513.877-.808 2.08-.808 3.552v74.313l54.312 31.304 29.55-17V86.837c0-2.255-.694-4.71-1.81-6.85-1.115-2.132-2.643-3.94-4.32-4.914zM39.966 32.825L111.87 74.56c1.776 1.032 3.386 2.93 4.547 5.153 1.16 2.218 1.88 4.77 1.88 7.123v39.936l-.15.085-29.852 17.175-.146.084-.15-.084-54.61-31.476-.15-.087V37.813c0-1.578.325-2.883.89-3.85.362-.618.823-1.102 1.362-1.43a3.485 3.485 0 0 1 1.838-.506c.815 0 1.706.255 2.636.795z"/><path fill-rule="evenodd" clip-rule="evenodd" fill="#E94C6D" d="M41.706 40.827c1.7.988 3.08 3.496 3.08 5.6 0 2.106-1.38 3.01-3.08 2.024-1.7-.986-3.077-3.494-3.077-5.6s1.376-3.01 3.075-2.022z"/><path fill-rule="evenodd" clip-rule="evenodd" fill="#2EBCE3" d="M50.297 45.874c1.7.987 3.08 3.495 3.08 5.6 0 2.106-1.38 3.012-3.08 2.023s-3.077-3.495-3.077-5.6c0-2.107 1.377-3.013 3.077-2.023z"/><path fill-rule="evenodd" clip-rule="evenodd" fill="#B3B4B4" d="M33.39 49.804a.295.295 0 0 1 .297-.51L117.85 98.22c.142.08.19.262.108.403a.297.297 0 0 1-.405.107L33.39 49.804z"/><path fill-rule="evenodd" clip-rule="evenodd" fill="#B3B4B4" d="M117.85 98.73a.295.295 0 0 1-.297-.51l4.426-2.556a.296.296 0 1 1 .296.51l-4.427 2.558z"/><path fill-rule="evenodd" clip-rule="evenodd" fill="#BBCE32" d="M58.9 51.2c1.7.99 3.08 3.497 3.08 5.603s-1.38 3.01-3.08 2.022c-1.7-.99-3.078-3.497-3.078-5.602 0-2.105 1.378-3.01 3.077-2.022z"/><path fill-rule="evenodd" clip-rule="evenodd" fill="#FFF" d="M96.796 100.142L25.144 58.406c-1.56-.91-2.99-.967-4.09-.33l-4.35 2.687.008.013c-1.594.596-2.64 2.487-2.64 5.287v32.83l73.884 42.736 15.096-8.718v-20.75c0-4.607-2.815-10.016-6.256-12.02z"/><path fill-rule="evenodd" clip-rule="evenodd" fill="#B3B4B4" d="M95.61 102.19L23.957 60.456c-.447-.263-.844-.4-1.177-.428a.93.93 0 0 0-.54.096l-.05.03-3.983 2.46a2.397 2.397 0 0 1-.735.406c-.21.105-.408.337-.58.68-.283.57-.443 1.366-.443 2.363V97.53l71.507 41.364 12.722-7.344v-19.388c0-1.92-.603-4.034-1.57-5.893-.94-1.807-2.184-3.313-3.5-4.08zM26.33 56.357l71.653 41.736c2.123 1.235 4.008 3.438 5.335 5.987 1.3 2.5 2.107 5.395 2.107 8.082v20.75h-.006a2.375 2.375 0 0 1-1.184 2.05l-15.077 8.705a2.37 2.37 0 0 1-2.394.01l-73.733-42.65a2.37 2.37 0 0 1-1.335-2.134v-32.83c0-1.75.34-3.265.946-4.477.67-1.345 1.66-2.327 2.89-2.88l4.17-2.577c.05-.038.104-.07.16-.106a5.586 5.586 0 0 1 3.284-.726c1.025.084 2.1.43 3.18 1.057z"/><path fill-rule="evenodd" clip-rule="evenodd" fill="#F6F6F6" d="M96.796 100.142L25.144 58.406c-1.56-.91-2.99-.967-4.09-.33l-4.35 2.688 1.795 3.302V103.6l69.455 40.176 15.096-8.716v-22.896c0-4.608-2.814-10.018-6.255-12.022z"/><path fill-rule="evenodd" clip-rule="evenodd" fill="#B3B4B4" d="M96.647 100.397L24.995 58.662c-.725-.42-1.418-.65-2.053-.702-.645-.05-1.233.08-1.74.373l-4.106 2.536 1.663 3.054.035.14v39.363l69.16 40.006 14.8-8.544V112.16c0-2.256-.692-4.71-1.806-6.85-1.11-2.13-2.633-3.943-4.304-4.916zM25.292 58.15l71.652 41.735c1.77 1.03 3.375 2.93 4.533 5.153 1.153 2.22 1.87 4.77 1.87 7.124v23.066l-.147.087-15.096 8.716-.148.086-.148-.084-69.457-40.177-.146-.085V64.14l-1.76-3.23-.133-.25.24-.145 4.35-2.687.008-.005a3.512 3.512 0 0 1 2.082-.45c.72.058 1.497.312 2.302.78z"/><path fill-rule="evenodd" clip-rule="evenodd" fill="#FFF" d="M91.98 103.065L20.33 61.33c-3.442-2.004-6.257.13-6.257 4.733v34.976l73.883 42.734 10.28-5.935v-22.756c0-4.606-2.814-10.015-6.255-12.02z"/><path fill-rule="evenodd" clip-rule="evenodd" fill="#B3B4B4" d="M91.833 103.32L20.18 61.587c-.83-.483-1.618-.712-2.328-.712-.562 0-1.074.143-1.522.417-.453.277-.844.69-1.153 1.223-.51.878-.806 2.08-.806 3.55v34.807l73.588 42.564 9.984-5.764v-22.584c0-2.256-.69-4.71-1.804-6.85-1.11-2.132-2.633-3.94-4.303-4.915zM20.478 61.076L92.13 102.81c1.77 1.03 3.375 2.93 4.532 5.154 1.154 2.218 1.87 4.77 1.87 7.122v22.925l-.146.087-10.28 5.937-.15.084-.147-.084-73.885-42.736-.148-.087V66.064c0-1.577.324-2.88.887-3.848.36-.62.82-1.102 1.358-1.43a3.455 3.455 0 0 1 1.83-.507c.81 0 1.7.257 2.625.797z"/><path fill-rule="evenodd" clip-rule="evenodd" fill="#E94C6D" d="M21.952 68.627c1.7.988 3.078 3.497 3.078 5.602 0 2.104-1.377 3.01-3.078 2.02-1.7-.987-3.078-3.496-3.078-5.6 0-2.107 1.38-3.01 3.078-2.024z"/><path fill-rule="evenodd" clip-rule="evenodd" fill="#2EBCE3" d="M30.542 73.673c1.7.988 3.078 3.496 3.078 5.602s-1.377 3.01-3.078 2.022c-1.7-.987-3.078-3.495-3.078-5.6s1.38-3.01 3.078-2.024z"/><path fill-rule="evenodd" clip-rule="evenodd" fill="#B3B4B4" d="M13.925 78.054a.296.296 0 1 1 .296-.51l84.165 48.925c.14.08.188.26.105.402a.29.29 0 0 1-.4.108L13.924 78.055z"/><path fill-rule="evenodd" clip-rule="evenodd" fill="#B3B4B4" d="M98.386 126.98a.296.296 0 0 1-.405-.108.297.297 0 0 1 .11-.404l4.426-2.555c.14-.08.32-.034.403.107.08.14.033.32-.108.404l-4.424 2.556z"/><path fill-rule="evenodd" clip-rule="evenodd" fill="#BBCE32" d="M39.146 79.002c1.7.988 3.078 3.496 3.078 5.602 0 2.104-1.378 3.01-3.078 2.02-1.7-.986-3.078-3.494-3.078-5.6s1.378-3.01 3.078-2.022z"/><path fill-rule="evenodd" clip-rule="evenodd" fill="#EBECEB" d="M99.012 35.995v-2.97l-7.532-1.56-4.944 1.58c-1.057.338-2.862.61-2.938 1.305-.01.084-.005 2.888 0 2.97.028.59.396 1.157 1.108 1.586l1.542.928c1.646.992 4.552.904 6.456-.194l6.308-3.645z"/><path fill-rule="evenodd" clip-rule="evenodd" fill="#B3B4B4" d="M98.716 35.826v-2.56l-7.22-1.497-4.87 1.557-.016.005c-.258.08-.533.153-.816.23h-.01c-.883.23-1.856.49-1.893.82v1.078c0 .83.002 1.812.004 1.848.012.244.096.486.254.714.16.23.398.444.71.633l1.54.927h.002c.774.466 1.855.677 2.97.645 1.123-.034 2.277-.317 3.186-.843l.018-.01 6.142-3.548zm.593-2.8v2.97h-.003a.3.3 0 0 1-.148.257l-6.29 3.632-.02.01c-.992.574-2.246.885-3.463.922-1.225.036-2.422-.204-3.294-.73l-1.54-.925a2.856 2.856 0 0 1-.89-.802 1.936 1.936 0 0 1-.362-1.024c0-.062-.006-1.057-.006-1.874 0-.52.003-.977.006-1.108l.004-.03v-.004c.08-.734 1.26-1.05 2.33-1.328l.01-.003c.287-.077.566-.15.786-.22l.015-.007 4.945-1.583v.003a.285.285 0 0 1 .148-.01l7.51 1.557a.3.3 0 0 1 .26.295z"/><path fill-rule="evenodd" clip-rule="evenodd" fill="#FFF" d="M99.012 33.025l-7.532-4.533-6.31 3.643c-1.9 1.1-2.11 2.81-.464 3.8l1.542.928c1.646.992 4.552.904 6.456-.194l6.308-3.646z"/><path fill-rule="evenodd" clip-rule="evenodd" fill="#B3B4B4" d="M98.43 33.02l-6.954-4.184-6.156 3.555c-.557.324-.955.698-1.188 1.084v.002c-.15.25-.232.504-.24.75-.008.242.053.482.183.707l.01.018c.157.267.415.517.776.735l.02.01 1.52.916h.003c.773.467 1.854.68 2.97.647 1.122-.035 2.276-.318 3.185-.845l.018-.008 5.856-3.38zm-6.798-4.782l7.532 4.533a.3.3 0 0 1-.006.51l-6.29 3.634-.017.01c-.99.574-2.245.886-3.462.92-1.225.037-2.422-.2-3.294-.726v-.002l-1.522-.914-.017-.01c-.446-.27-.773-.592-.98-.944l-.012-.018a1.902 1.902 0 0 1-.26-1.024c.013-.35.122-.7.323-1.037h.002c.282-.47.75-.916 1.396-1.29h.003l6.296-3.636a.303.303 0 0 1 .312-.005zm-6.755 7.456c.126.088.163.26.083.395l-.083-.397z"/><path fill-rule="evenodd" clip-rule="evenodd" fill="#EBECEB" d="M49.91 130.872l-9.82-5.706-3.23 2.288 2.256 4.906 3.453 4.84 2.785 3.462c3.983-2.377 4.462-2.91 4.553-6.33v-3.46z"/><path fill-rule="evenodd" clip-rule="evenodd" fill="#B3B4B4" d="M49.464 131.128l-9.352-5.435-2.695 1.91 2.084 4.53 3.426 4.8 2.535 3.15c1.735-1.042 2.728-1.71 3.276-2.458.56-.763.687-1.685.73-3.295h-.002v-3.202zm-9.152-6.346l9.793 5.69c.147.073.25.225.25.4v3.458h-.003v.01c-.048 1.808-.204 2.86-.9 3.81-.673.92-1.818 1.67-3.85 2.883a.443.443 0 0 1-.59-.093l-2.787-3.46-.017-.022-3.453-4.84h.002c-.017-.025-.03-.05-.043-.075l-2.248-4.886a.443.443 0 0 1 .138-.565l3.228-2.288a.445.445 0 0 1 .48-.022z"/><path fill-rule="evenodd" clip-rule="evenodd" fill="#F6F6F6" d="M46.68 132.877l-9.82-5.423v4.652c0 8.3 9.82 12.144 9.82 5.633v-4.864z"/><path fill-rule="evenodd" clip-rule="evenodd" fill="#B3B4B4" d="M46.235 133.138l-8.93-4.93v3.898c0 3.71 2.05 6.483 4.227 7.742.633.365 1.277.603 1.878.69.57.085 1.1.033 1.538-.164.77-.35 1.287-1.2 1.287-2.636v-4.6zm-9.162-6.073l9.796 5.408c.15.07.254.226.254.403v4.862c0 1.836-.726 2.952-1.812 3.445-.595.27-1.294.343-2.03.234-.71-.105-1.462-.378-2.195-.803-2.406-1.392-4.672-4.44-4.672-8.51v-4.652h.002a.443.443 0 0 1 .655-.387z"/></svg>