<svg xmlns="http://www.w3.org/2000/svg" width="260" height="260" viewBox="-34.002 -29.856 260 260" overflow="visible"><path fill-rule="evenodd" clip-rule="evenodd" fill="#FFF" d="M67.24 59.833l17.06 9.744c4.04 2.308 5.802 6.778 5.802 11.008v71.068c0 2.31-.777 3.946-2.003 4.66l-.008.003-.003.002-53.327 30.805c-1.027.63-2.388.61-3.855-.244L10.53 175c-3.173-1.85-5.802-6.776-5.802-11.01V92.925c0-2.32.785-3.962 2.02-4.67l49.545-28.62c3.788-2.23 7.174-1.956 10.947.2z"/><path fill-rule="evenodd" clip-rule="evenodd" fill="#B3B4B4" d="M68.408 57.775l17.06 9.744c2.327 1.327 4.03 3.23 5.173 5.4 1.256 2.377 1.837 5.07 1.837 7.664v71.068c0 1.46-.257 2.75-.718 3.818-.52 1.204-1.298 2.144-2.274 2.77-.112.08-.23.15-.352.21L35.95 189.172l-.01.007c-.927.55-1.987.81-3.134.74-.997-.064-2.043-.385-3.086-.993l-20.376-11.88c-1.984-1.156-3.76-3.204-5.01-5.578-1.22-2.313-1.98-4.986-1.98-7.48V92.924c0-1.453.263-2.746.73-3.83.563-1.3 1.418-2.285 2.487-2.897l.1-.053 49.436-28.557.11-.06c2.255-1.303 4.427-1.873 6.63-1.8 2.208.07 4.352.785 6.563 2.048zm14.724 13.86l-17.06-9.744c-1.56-.89-2.997-1.39-4.373-1.436-1.313-.042-2.657.325-4.11 1.16a1.77 1.77 0 0 1-.11.07L8.04 90.244l-.113.07c-.188.107-.36.33-.5.652-.207.48-.323 1.135-.323 1.958v71.067c0 1.726.545 3.613 1.42 5.274.86 1.63 1.996 2.988 3.194 3.688l20.377 11.88c.392.227.73.343 1.01.362a.74.74 0 0 0 .36-.057c.086-.057.177-.107.27-.152L86.77 154.35l.004-.005.002-.002v.002l.13-.073.007-.006c.176-.104.344-.328.488-.666.21-.488.33-1.142.33-1.945v-71.07c0-1.88-.406-3.802-1.278-5.457-.75-1.417-1.842-2.648-3.32-3.493z"/><path fill-rule="evenodd" clip-rule="evenodd" fill="#FFF" d="M11.765 87.738l20.586 11.76c3.19 1.82 5.804 6.774 5.804 11.006v71.067c0 2.31-.778 3.948-2.004 4.66l-.007.005-.002.002-3.523 2.052c-1.026.627-2.38.597-3.855-.247l-20.586-11.76c-3.19-1.82-5.8-6.774-5.8-11.006V94.21c0-2.32.784-3.963 2.02-4.67l3.518-2.048c1.027-.628 2.38-.596 3.853.246z"/><path fill-rule="evenodd" clip-rule="evenodd" fill="#B3B4B4" d="M12.933 85.68L33.52 97.438c1.998 1.143 3.774 3.186 5.022 5.555 1.223 2.32 1.983 5.012 1.983 7.51v71.068c0 1.46-.258 2.75-.717 3.82-.518 1.203-1.298 2.143-2.275 2.77a2.377 2.377 0 0 1-.344.206l-3.385 1.968c-.93.56-1.99.818-3.135.745-.99-.063-2.032-.38-3.078-.98L7.005 178.34c-1.998-1.14-3.773-3.185-5.023-5.555C.76 170.465 0 167.775 0 165.275V94.21c0-1.454.262-2.747.73-3.83.563-1.3 1.417-2.286 2.486-2.898l.09-.048 3.42-1.99.017-.01a5.33 5.33 0 0 1 3.112-.73c.993.062 2.034.38 3.078.976zm18.25 15.874L10.596 89.796c-.4-.23-.748-.35-1.037-.367a.745.745 0 0 0-.354.05 2.2 2.2 0 0 1-.248.14l-3.27 1.903c-.04.024-.08.05-.118.072-.19.108-.363.33-.502.655-.207.48-.324 1.136-.324 1.958v71.067c0 1.73.548 3.635 1.428 5.303.852 1.62 1.98 2.967 3.168 3.646l20.587 11.76c.4.228.75.348 1.04.365a.754.754 0 0 0 .35-.054c.083-.053.168-.103.256-.146l3.237-1.883.012-.008.002-.004.127-.073.01-.004c.177-.105.345-.33.49-.667.21-.488.327-1.142.327-1.945V110.5c0-1.73-.55-3.634-1.428-5.304-.854-1.618-1.98-2.964-3.17-3.644z"/><path fill-rule="evenodd" clip-rule="evenodd" fill="#F6F6F6" d="M66.8 59.583l17.5 9.995c4.03 2.303 5.802 6.777 5.802 11.008v71.067c0 2.31-.777 3.946-2.003 4.66l-.008.004h-.003L33.85 187.65l-.508-2.474L13 173.556c-3.19-1.823-5.803-6.775-5.803-11.008V96.644L5.61 88.912l51.692-29.86c2.177-1.304 5.895-1.526 9.498.53z"/><path fill-rule="evenodd" clip-rule="evenodd" fill="#B3B4B4" d="M66.945 59.326l17.5 9.995c1.953 1.117 3.39 2.727 4.36 4.57 1.085 2.06 1.592 4.416 1.592 6.697v71.067c0 1.173-.196 2.184-.546 3-.37.868-.923 1.52-1.602 1.916l-.005.002h-.004L34 187.907l-.356.205-.082-.4-.48-2.343-20.228-11.555c-1.646-.94-3.137-2.68-4.213-4.72-1.07-2.037-1.74-4.383-1.74-6.546V96.67l-1.576-7.7-.044-.207.184-.107 51.69-29.86c1.208-.722 2.86-1.125 4.702-1.022 1.607.09 3.363.566 5.09 1.552zm17.21 10.51l-17.5-9.997c-1.644-.94-3.31-1.39-4.83-1.477-1.724-.096-3.26.275-4.372.94l-.003.002L5.943 89.062l1.544 7.522.007.06v65.904c0 2.068.64 4.315 1.67 6.27 1.026 1.948 2.438 3.6 3.98 4.48l20.346 11.62.116.067.026.13.426 2.073 53.884-31.127h.007c.566-.334 1.034-.89 1.355-1.64.32-.743.498-1.675.498-2.767V80.586c0-2.192-.484-4.45-1.523-6.42-.92-1.75-2.28-3.276-4.126-4.33z"/><path fill-rule="evenodd" clip-rule="evenodd" fill="#F6F6F6" d="M11.765 87.738L32.35 99.495c3.19 1.822 5.803 6.777 5.803 11.01v71.066c0 2.31-.778 3.948-2.004 4.66l-.008.005-.002.002-3.524 2.052-.507-2.475-20.346-11.622c-3.19-1.82-5.802-6.775-5.802-11.007V97.28l-1.586-7.73 3.535-2.06c1.028-.626 2.38-.595 3.854.248z"/><path fill-rule="evenodd" clip-rule="evenodd" fill="#B3B4B4" d="M11.91 87.48l20.586 11.76c1.646.938 3.137 2.677 4.213 4.718 1.07 2.036 1.737 4.383 1.737 6.546v71.067c0 1.175-.196 2.186-.547 3-.345.807-.842 1.424-1.455 1.826v.014l-.154.08-3.525 2.054-.354.206-.083-.403-.48-2.343L11.62 174.45c-1.647-.94-3.138-2.677-4.214-4.72-1.072-2.035-1.74-4.382-1.74-6.545v-65.88L4.09 89.608l-.043-.208.184-.107 3.535-2.058.014-.008.073-.042.11-.065v.003a3.36 3.36 0 0 1 1.765-.353c.683.044 1.42.274 2.183.71zm20.295 12.273L11.618 87.995c-.683-.39-1.333-.597-1.93-.634a2.736 2.736 0 0 0-1.622.384l-.2.122-.003-.004L4.71 89.7l1.542 7.52.007.06v65.906c0 2.067.64 4.314 1.67 6.27 1.024 1.948 2.435 3.6 3.98 4.48l20.343 11.62.117.067.028.132.425 2.07 3.028-1.764.15-.084c.57-.33 1.035-.888 1.358-1.638.32-.744.498-1.674.498-2.766v-71.066c0-2.068-.64-4.315-1.67-6.27-1.027-1.948-2.435-3.598-3.98-4.48z"/><path fill-rule="evenodd" clip-rule="evenodd" fill="#FFF" d="M8.174 89.828l20.586 11.76c3.192 1.82 5.802 6.778 5.802 11.007v71.067c0 4.23-2.612 6.202-5.802 4.38l-20.586-11.76c-3.188-1.82-5.8-6.774-5.8-11.006V94.21c0-4.233 2.61-6.204 5.8-4.382z"/><path fill-rule="evenodd" clip-rule="evenodd" fill="#B3B4B4" d="M8.32 89.57l20.586 11.76c1.646.94 3.137 2.678 4.213 4.72 1.07 2.036 1.737 4.382 1.737 6.545v71.067c0 1.427-.29 2.614-.798 3.503-.34.592-.774 1.053-1.283 1.367a3.276 3.276 0 0 1-1.74.486c-.75 0-1.57-.232-2.423-.72L8.028 176.542c-1.644-.938-3.136-2.677-4.212-4.72-1.073-2.035-1.74-4.38-1.74-6.544V94.21c0-1.43.29-2.618.8-3.507.337-.59.772-1.052 1.28-1.366a3.276 3.276 0 0 1 1.74-.485c.75 0 1.57.23 2.424.72zm20.295 12.274L8.028 90.084c-.76-.433-1.48-.64-2.132-.64-.53 0-1.012.137-1.43.395-.425.26-.79.65-1.077 1.154-.46.8-.72 1.89-.72 3.214v71.066c0 2.067.64 4.314 1.67 6.27 1.025 1.947 2.436 3.6 3.98 4.48l20.584 11.76c.76.433 1.48.64 2.13.64.53 0 1.013-.137 1.432-.396.424-.262.79-.652 1.077-1.156.46-.802.72-1.89.72-3.212v-71.067c0-2.067-.64-4.314-1.67-6.27-1.026-1.947-2.435-3.6-3.98-4.48z"/><path fill-rule="evenodd" clip-rule="evenodd" fill="#FFF" d="M122.35 4.543l-16.334 9.33c-4.04 2.307-5.802 6.777-5.802 11.007v126.773c0 3.583 1.187 4.19 3.546 5.55l51.792 29.92c1.026.63 2.388.61 3.855-.244L179.785 175c3.172-1.85 5.802-6.776 5.802-11.01V37.22c0-2.322-.785-3.962-2.02-4.67L134.02 3.93c-4.32-2.545-7.578-1.724-11.67.613z"/><path fill-rule="evenodd" clip-rule="evenodd" fill="#B3B4B4" d="M123.516 6.602l-16.332 9.33c-1.48.843-2.572 2.075-3.318 3.492-.873 1.656-1.278 3.576-1.278 5.457v126.775c0 2.147.737 2.572 2.2 3.415l.007.004.002-.005.15.085 51.635 29.828c.094.045.185.096.27.152L123.517 6.602zm-18.67 5.213l16.334-9.33c2.312-1.32 4.436-2.217 6.698-2.434 2.322-.22 4.642.28 7.22 1.77l.11.06 49.437 28.56.1.053c1.07.613 1.923 1.598 2.485 2.897.47 1.083.73 2.375.73 3.83v126.77c0 2.494-.76 5.168-1.978 7.48-1.25 2.373-3.026 4.42-5.012 5.578l-20.377 11.88c-1.043.607-2.087.928-3.086.99a5.372 5.372 0 0 1-3.132-.74l-.01-.007-51.793-29.917-.15-.087.003-.004c-3.05-1.758-4.585-2.647-4.585-7.508V24.88c0-2.595.58-5.287 1.833-7.663 1.145-2.172 2.847-4.074 5.174-5.402zm52.365 173.377L123.518 6.602c1.78-1.017 3.337-1.7 4.806-1.84 1.344-.13 2.75.196 4.4 1.145a.94.94 0 0 0 .114.07l49.44 28.562c.037.02.074.045.112.066.187.108.36.332.5.656.21.478.323 1.134.323 1.957v126.77c0 1.725-.546 3.61-1.42 5.274-.86 1.63-1.997 2.987-3.194 3.687l-20.38 11.88c-.388.227-.728.343-1.01.362z"/><path fill-rule="evenodd" clip-rule="evenodd" fill="#FFF" d="M178.55 32.034l-20.584 11.76c-3.19 1.822-5.802 6.777-5.802 11.007v126.773c0 2.308.778 3.946 2.003 4.66l.005.003.003.002 3.524 2.052v-.002c1.024.63 2.377.6 3.853-.245l20.586-11.76c3.187-1.82 5.8-6.774 5.8-11.006V38.505c0-2.32-.784-3.962-2.02-4.67l-3.52-2.048c-1.025-.626-2.375-.595-3.85.247z"/><path fill-rule="evenodd" clip-rule="evenodd" fill="#B3B4B4" d="M179.72 34.092L159.133 45.85c-1.19.68-2.316 2.026-3.17 3.646-.88 1.67-1.428 3.573-1.428 5.304v126.77c0 .804.118 1.457.33 1.946.144.336.31.562.486.666l.048.026.088.052h.003l.012.01 3.236 1.883c.09.043.175.093.256.146.097.04.215.06.352.05.288-.018.638-.137 1.04-.366l20.585-11.76c1.19-.68 2.316-2.025 3.17-3.645.88-1.67 1.427-3.573 1.427-5.304V38.506c0-.824-.117-1.48-.324-1.958-.14-.324-.312-.547-.5-.655l-.12-.072-3.41-1.983-.045-.028a.714.714 0 0 0-.413-.083c-.29.02-.637.138-1.038.366zm-22.922 7.643l20.584-11.758c1.046-.597 2.086-.915 3.077-.98a5.364 5.364 0 0 1 3.1.725l.03.017 3.42 1.99.087.047c1.07.613 1.924 1.598 2.486 2.898.47 1.083.73 2.376.73 3.83v126.77c0 2.5-.76 5.19-1.98 7.51-1.25 2.372-3.026 4.415-5.025 5.556L162.72 190.1c-1.046.598-2.086.917-3.08.98a5.347 5.347 0 0 1-3.12-.738l-.008-.005-3.39-1.972-.012-.007-.04-.022-.01-.005a2.308 2.308 0 0 1-.275-.172c-.98-.626-1.76-1.565-2.278-2.77-.46-1.07-.717-2.36-.717-3.818V54.802c0-2.5.76-5.19 1.983-7.512 1.248-2.37 3.025-4.414 5.025-5.555zm-1.445 142.448l.017.008-.017-.006zm-2.23 4.18l-.012-.006.013.006zm0 0z"/><path fill-rule="evenodd" clip-rule="evenodd" fill="#FFF" d="M123.516 3.88l-17.5 9.995c-4.03 2.302-5.802 6.777-5.802 11.008v126.77c0 2.31.778 3.947 2.004 4.66l.005.005h.002l54.24 31.332.507-2.473 20.344-11.62c3.19-1.823 5.803-6.776 5.803-11.01V40.94l1.584-7.732-51.69-29.86c-2.18-1.305-5.897-1.527-9.5.53z"/><path fill-rule="evenodd" clip-rule="evenodd" fill="#B3B4B4" d="M123.662 4.136l-17.5 9.996c-1.846 1.054-3.206 2.58-4.13 4.33-1.037 1.97-1.52 4.228-1.52 6.42v126.772c0 1.092.178 2.023.496 2.766.323.75.79 1.307 1.357 1.64l.008.003 53.884 31.127.425-2.072.026-.13.117-.067 20.344-11.62c1.543-.88 2.954-2.53 3.98-4.48 1.03-1.953 1.67-4.2 1.67-6.27V40.94l.007-.06 1.543-7.522-51.506-29.754-.003-.002c-1.11-.666-2.646-1.037-4.367-.94-1.523.084-3.19.536-4.83 1.474zm-17.793 9.482l17.5-9.995c1.725-.986 3.48-1.463 5.09-1.552 1.84-.1 3.493.303 4.7 1.024l51.69 29.86.184.106-.042.207-1.58 7.696v121.584c0 2.164-.666 4.51-1.738 6.545-1.076 2.042-2.567 3.78-4.213 4.72l-20.227 11.555-.48 2.342-.083.4-.354-.205-54.24-31.333h.002-.003l-.005-.004c-.68-.397-1.23-1.05-1.606-1.918-.35-.815-.545-1.826-.545-3V24.883c0-2.28.504-4.635 1.59-6.696.97-1.844 2.407-3.454 4.36-4.568z"/><path fill-rule="evenodd" clip-rule="evenodd" fill="#FFF" d="M178.55 32.034l-20.585 11.758c-3.19 1.822-5.8 6.777-5.8 11.007v126.77c0 2.31.777 3.946 2.002 4.66l.005.003.003.002 3.524 2.052.505-2.474 20.345-11.622c3.19-1.82 5.803-6.774 5.803-11.006V41.574l1.586-7.73-3.538-2.057c-1.027-.627-2.377-.596-3.852.247z"/><path fill-rule="evenodd" clip-rule="evenodd" fill="#B3B4B4" d="M178.696 32.29L158.11 44.05c-1.545.88-2.954 2.532-3.98 4.48-1.03 1.954-1.67 4.2-1.67 6.27v126.77c0 1.093.18 2.022.497 2.767.323.75.79 1.307 1.358 1.638l.148.087 3.03 1.764.423-2.07.026-.132.117-.066 20.342-11.62c1.545-.883 2.955-2.533 3.98-4.482 1.03-1.954 1.67-4.2 1.67-6.27V41.576l.008-.06 1.545-7.52-2.907-1.693v.014l-.45-.276a2.735 2.735 0 0 0-1.623-.38c-.594.036-1.246.24-1.93.63zM157.82 43.535l20.584-11.758c.764-.436 1.5-.667 2.186-.71a3.365 3.365 0 0 1 1.517.24v-.035l.352.205.085.05.006.004 3.536 2.06.186.107-.043.208-1.58 7.697v121.586c0 2.163-.668 4.51-1.74 6.545-1.075 2.043-2.567 3.78-4.213 4.72l-20.227 11.555-.48 2.343-.083.404-.354-.205-3.524-2.054h-.004l-.154-.082v-.014c-.61-.402-1.11-1.02-1.456-1.825-.352-.814-.547-1.825-.547-2.998V54.8c0-2.164.665-4.51 1.737-6.546 1.075-2.04 2.565-3.78 4.21-4.72z"/><path fill-rule="evenodd" clip-rule="evenodd" fill="#F6F6F6" d="M182.14 34.125l-20.585 11.76c-3.187 1.82-5.8 6.778-5.8 11.006v126.773c0 4.23 2.61 6.203 5.8 4.38l20.586-11.76c3.19-1.82 5.803-6.774 5.803-11.006V38.507c0-4.234-2.617-6.2-5.8-4.38z"/><path fill-rule="evenodd" clip-rule="evenodd" fill="#B3B4B4" d="M182.204 34.38L161.33 46.14c-1.565.88-2.996 2.533-4.038 4.48-1.043 1.956-1.692 4.203-1.692 6.27v126.77c0 1.324.266 2.413.73 3.214.292.504.66.895 1.092 1.155.424.26.912.393 1.448.393.66 0 1.392-.206 2.163-.64l20.873-11.76c1.567-.88 2.997-2.532 4.04-4.48 1.04-1.953 1.69-4.2 1.69-6.27V38.505c0-1.322-.265-2.41-.73-3.21-.292-.503-.662-.894-1.094-1.156a2.76 2.76 0 0 0-1.452-.395c-.657 0-1.387.204-2.156.637zm-21.17 11.246l20.872-11.76c.866-.486 1.696-.716 2.455-.716.65 0 1.245.167 1.768.485.518.314.96.776 1.303 1.368.515.888.81 2.075.81 3.5v126.772c0 2.163-.676 4.51-1.764 6.545-1.09 2.042-2.604 3.78-4.27 4.72L161.33 188.3c-.868.486-1.698.72-2.46.72-.645 0-1.24-.168-1.763-.486-.516-.314-.957-.774-1.3-1.367-.515-.89-.81-2.077-.81-3.504V56.89c0-2.16.676-4.507 1.763-6.543 1.093-2.043 2.606-3.782 4.273-4.72zM51.22 161.007c1.513-.79 2.74.524 2.74 2.933 0 2.41-1.228 5.002-2.74 5.79-1.512.79-2.737-.524-2.737-2.934s1.225-5 2.738-5.79zM139.682 161.154c1.512.618 2.738 3.073 2.738 5.482 0 2.408-1.227 3.86-2.738 3.24-1.512-.617-2.738-3.072-2.738-5.48 0-2.41 1.226-3.86 2.738-3.242z"/><path fill-rule="evenodd" clip-rule="evenodd" fill="#98CA3C" d="M138.163 164.332a1.478 1.478 0 0 1 2.022.538c.41.708.17 1.613-.54 2.022l-33.38 19.282c-3.895 2.252-7.342 3.313-10.835 3.253-3.48-.06-6.916-1.235-10.805-3.456L51.232 166.9a1.48 1.48 0 1 1 1.46-2.572l33.39 19.072c3.467 1.98 6.458 3.024 9.394 3.075 2.924.05 5.887-.884 9.307-2.86l33.38-19.28z"/><path fill-rule="evenodd" clip-rule="evenodd" fill="#B3B4B4" d="M89.955 102.794c.14-.08.32-.03.402.11.08.14.032.32-.11.402l-55.272 31.91a.29.29 0 0 1-.3-.002L1.7 116.177a.296.296 0 0 1-.108-.402.3.3 0 0 1 .404-.11l32.832 18.958 55.127-31.83zM89.953 131.52a.297.297 0 0 1 .404.11c.082.14.033.32-.108.402l-55.274 31.912a.293.293 0 0 1-.312-.01L1.7 144.904a.297.297 0 0 1-.108-.403.297.297 0 0 1 .404-.107l32.832 18.956 55.125-31.828zM100.334 103.307a.295.295 0 1 1 .294-.513l55.126 31.83 32.833-18.958a.298.298 0 0 1 .403.11c.08.14.03.32-.108.4l-32.976 19.04a.29.29 0 0 1-.3.002l-55.272-31.91zM100.332 132.032c-.14-.08-.19-.262-.107-.403s.263-.19.404-.11l55.123 31.827 32.833-18.956a.296.296 0 0 1 .403.11c.08.14.03.32-.11.4l-32.963 19.033a.3.3 0 0 1-.313.01L100.33 132.03z"/><path fill-rule="evenodd" clip-rule="evenodd" fill="#B3B4B4" d="M51.22 135.654c1.513-.788 2.74.524 2.74 2.935 0 2.406-1.228 5-2.74 5.787-1.512.79-2.737-.524-2.737-2.934s1.225-5.002 2.738-5.79zM139.682 135.803c1.512.618 2.738 3.073 2.738 5.48 0 2.41-1.227 3.862-2.738 3.243s-2.738-3.073-2.738-5.482c0-2.408 1.226-3.86 2.738-3.24z"/><path fill-rule="evenodd" clip-rule="evenodd" fill="#2EBCE3" d="M138.163 138.98a1.478 1.478 0 0 1 2.022.538c.41.707.17 1.613-.54 2.022l-33.38 19.282c-3.895 2.252-7.342 3.313-10.835 3.253-3.48-.06-6.916-1.235-10.805-3.456l-33.393-19.075a1.48 1.48 0 1 1 1.46-2.575l33.39 19.073c3.467 1.98 6.458 3.023 9.394 3.074 2.924.05 5.887-.884 9.307-2.86l33.38-19.28z"/><path fill-rule="evenodd" clip-rule="evenodd" fill="#B3B4B4" d="M51.22 107.188c1.513-.79 2.74.525 2.74 2.934 0 2.41-1.228 5.002-2.74 5.79-1.512.788-2.737-.524-2.737-2.934s1.225-5 2.738-5.79zM139.682 107.337c1.512.618 2.738 3.074 2.738 5.482s-1.227 3.86-2.738 3.24c-1.512-.62-2.738-3.074-2.738-5.48 0-2.41 1.226-3.863 2.738-3.244z"/><path fill-rule="evenodd" clip-rule="evenodd" fill="#E94C6D" d="M138.163 110.515a1.477 1.477 0 0 1 2.022.54c.41.706.17 1.61-.54 2.02l-33.38 19.283c-3.895 2.25-7.342 3.312-10.835 3.252-3.48-.06-6.916-1.234-10.805-3.456L51.232 113.08a1.48 1.48 0 1 1 1.46-2.572l33.39 19.072c3.467 1.98 6.458 3.023 9.394 3.075 2.924.05 5.887-.884 9.307-2.858l33.38-19.282z"/><path fill-rule="evenodd" clip-rule="evenodd" fill="#B3B4B4" d="M25.062 108.115c1.188.672 2.258 1.95 3.027 3.472.762 1.512 1.236 3.273 1.236 4.922 0 1.15-.232 2.105-.634 2.814-.253.45-.577.8-.954 1.04l-.024.013c-.378.236-.81.36-1.27.36-.522 0-1.088-.158-1.676-.49-1.188-.673-2.258-1.952-3.027-3.474-.763-1.512-1.237-3.27-1.237-4.922 0-1.15.232-2.106.633-2.814.253-.448.578-.8.955-1.038v-.002c.384-.245.82-.374 1.294-.374.522 0 1.09.158 1.676.49zm2.5 3.738c-.72-1.422-1.707-2.61-2.79-3.223-.493-.28-.96-.412-1.385-.412-.36 0-.69.097-.977.28-.295.187-.55.468-.758.83-.35.62-.553 1.476-.553 2.524 0 1.558.446 3.225 1.17 4.656.72 1.424 1.708 2.61 2.79 3.225.493.28.96.41 1.385.41.353 0 .675-.09.958-.266l.02-.014c.295-.188.553-.47.758-.832.35-.616.554-1.473.554-2.52 0-1.557-.45-3.223-1.173-4.656zM26.824 168.104a.444.444 0 0 1 .888 0v9.248a.445.445 0 0 1-.89 0v-9.245zm-18.02-10.2a.446.446 0 0 1 .89 0v9.245a.445.445 0 0 1-.89 0v-9.247zm2.575 1.457a.445.445 0 0 1 .887.002v9.246a.444.444 0 0 1-.89 0v-9.244zm2.572 1.46a.446.446 0 0 1 .89 0v9.245a.445.445 0 0 1-.89 0v-9.247zm2.574 1.456a.445.445 0 0 1 .89 0v9.247a.445.445 0 0 1-.89 0v-9.244zm2.574 1.457a.445.445 0 0 1 .89 0v9.247a.445.445 0 0 1-.89 0v-9.25zm2.576 1.458a.445.445 0 0 1 .89 0v9.247a.444.444 0 0 1-.888 0v-9.245zm2.574 1.458a.444.444 0 0 1 .888 0v9.246a.444.444 0 0 1-.888 0v-9.246zM7.542 126.663l21.925 12.512a.295.295 0 0 1 .147.258h.002v6.597a.297.297 0 0 1-.294.298.295.295 0 0 1-.166-.053L7.23 133.763a.298.298 0 0 1-.145-.258h-.003v-6.598c0-.164.133-.297.294-.297a.29.29 0 0 1 .166.053zm21.486 12.94L7.67 127.416v5.918l21.358 12.19v-5.92z"/><path fill-rule="evenodd" clip-rule="evenodd" fill="#B3B4B4" d="M7.542 133.26l21.925 12.513a.295.295 0 0 1 .147.257h.002v6.598a.295.295 0 0 1-.46.245L7.23 140.36a.3.3 0 0 1-.145-.257h-.003v-6.6c0-.162.133-.296.294-.296a.3.3 0 0 1 .166.054zm21.486 12.94L7.67 134.014v5.92l21.358 12.188v-5.92z"/><path fill-rule="evenodd" clip-rule="evenodd" fill="#98CA3C" d="M24.917 112.37c.708.4 1.28 1.536 1.28 2.536s-.572 1.486-1.28 1.085c-.708-.4-1.282-1.534-1.282-2.535 0-1 .574-1.484 1.282-1.084z"/><path fill-rule="evenodd" clip-rule="evenodd" fill="#98CA3C" d="M25.136 111.984c.43.244.815.696 1.084 1.23a3.85 3.85 0 0 1 .424 1.69c0 .42-.09.777-.243 1.05v.003c-.11.19-.25.342-.414.447l-.04.023a1.083 1.083 0 0 1-.553.148c-.22 0-.453-.064-.693-.2h-.003c-.43-.243-.814-.696-1.083-1.23a3.838 3.838 0 0 1-.424-1.692c0-.42.09-.777.243-1.05.11-.192.25-.343.414-.448l.04-.023c.168-.098.355-.148.552-.148.22 0 .453.065.69.2h.005zm.29 1.63c-.192-.385-.452-.702-.73-.858a.515.515 0 0 0-.257-.08.23.23 0 0 0-.1.02l-.018.01a.423.423 0 0 0-.12.135c-.08.143-.124.35-.124.615 0 .432.124.895.326 1.294.193.384.452.7.73.857h-.002c.098.055.186.08.258.08.04 0 .072-.008.102-.02l.016-.01a.407.407 0 0 0 .12-.136c.08-.14.124-.35.124-.613 0-.43-.125-.893-.328-1.292z"/><path fill-rule="evenodd" clip-rule="evenodd" fill="#B3B4B4" d="M178.197 44.15c-1.083.614-2.07 1.802-2.79 3.225-.724 1.432-1.172 3.1-1.172 4.656 0 1.05.202 1.906.553 2.525.205.363.46.644.757.832l.02.015c.282.175.605.267.957.267.425 0 .89-.134 1.384-.413 1.085-.613 2.07-1.8 2.79-3.225.725-1.432 1.173-3.098 1.173-4.656 0-1.048-.204-1.904-.555-2.523a2.342 2.342 0 0 0-.756-.832 1.82 1.82 0 0 0-.98-.28c-.423 0-.89.135-1.384.413zm-3.318 2.958c.767-1.52 1.84-2.8 3.024-3.472.59-.333 1.154-.49 1.676-.49.476 0 .91.128 1.296.372v.002c.377.24.7.59.954 1.04.4.707.63 1.663.63 2.814 0 1.65-.472 3.41-1.235 4.923-.77 1.52-1.84 2.8-3.027 3.472-.588.33-1.154.49-1.676.49-.462 0-.89-.125-1.27-.36l-.025-.015c-.376-.24-.7-.59-.953-1.04-.4-.708-.632-1.664-.632-2.815 0-1.65.472-3.41 1.237-4.922zM179.942 131.335a.446.446 0 0 1 .89 0v9.245c0 .245-.2.446-.444.446s-.446-.2-.446-.446v-9.245zm-2.574 1.457a.445.445 0 0 1 .89 0v9.246a.446.446 0 0 1-.89 0v-9.246zm-2.573 1.457a.444.444 0 0 1 .888 0v9.243a.444.444 0 0 1-.89 0v-9.246zm-2.574 1.455a.446.446 0 0 1 .892 0v9.247a.445.445 0 0 1-.89 0v-9.246zm-2.573 1.457a.446.446 0 0 1 .89 0v9.246a.445.445 0 0 1-.888 0v-9.248zm-2.574 1.458a.446.446 0 0 1 .89 0v9.247a.445.445 0 0 1-.89 0v-9.244zm-2.575 1.457a.445.445 0 0 1 .89 0v9.247a.445.445 0 0 1-.89 0v-9.248zM181.875 157.176L163.06 167.83v10.896l18.815-10.65v-10.9zm-19.26 10.225l19.39-10.975a.297.297 0 0 1 .464.244v11.58h-.004a.293.293 0 0 1-.148.255l-19.39 10.977a.297.297 0 0 1-.464-.244V167.66c0-.102.055-.203.15-.257z"/><path fill-rule="evenodd" clip-rule="evenodd" fill="#2EBCE3" d="M178.053 47.892c-.71.4-1.283 1.537-1.283 2.537s.574 1.484 1.283 1.083c.708-.4 1.28-1.536 1.28-2.537 0-1-.572-1.486-1.28-1.085z"/><path fill-rule="evenodd" clip-rule="evenodd" fill="#2EBCE3" d="M178.27 48.278c-.275.156-.534.473-.728.857-.202.4-.327.862-.327 1.293 0 .265.046.473.125.613l.01.02a.36.36 0 0 0 .11.12v-.003c.032.02.072.033.115.033a.537.537 0 0 0 .258-.082c.276-.157.534-.473.73-.858.2-.4.325-.862.325-1.293 0-.265-.046-.473-.126-.613a.378.378 0 0 0-.118-.135l-.016-.01a.2.2 0 0 0-.1-.023.53.53 0 0 0-.257.08zm-1.52.458c.27-.533.65-.986 1.083-1.23.24-.135.476-.2.696-.2.195 0 .382.05.55.15l.04.02c.165.106.306.258.414.45.154.272.244.63.244 1.05 0 .568-.163 1.174-.426 1.693-.27.53-.652.983-1.083 1.23v-.003h-.003c-.238.135-.474.2-.693.2-.216 0-.415-.06-.592-.17v-.002a1.23 1.23 0 0 1-.398-.418l-.017-.028c-.154-.274-.244-.63-.244-1.05 0-.57.163-1.177.425-1.695zm.6 2.326c.035.068.05.14.048.213l-.048-.213z"/><path fill-rule="evenodd" clip-rule="evenodd" fill="#B3B4B4" d="M182.32 167.98a.295.295 0 1 1-.295.512l-5.52-3.188-13.596 7.85a.296.296 0 0 1-.298-.512l13.74-7.935a.3.3 0 0 1 .297 0l5.67 3.273z"/><path fill-rule="evenodd" clip-rule="evenodd" fill="#B3B4B4" d="M176.8 164.964a.296.296 0 0 1-.593 0v-5.17a.297.297 0 0 1 .594 0v5.172zM139.682 79.332c1.512.62 2.738 3.074 2.738 5.482 0 2.41-1.227 3.86-2.738 3.242s-2.738-3.073-2.738-5.482 1.226-3.86 2.738-3.242z"/><path fill-rule="evenodd" clip-rule="evenodd" fill="#B3B4B4" d="M100.332 75.452a.296.296 0 1 1 .297-.512l55.123 31.827 32.833-18.956a.298.298 0 0 1 .403.11.3.3 0 0 1-.11.404l-32.963 19.03a.294.294 0 0 1-.313.012L100.33 75.453zM100.332 46.602a.296.296 0 1 1 .297-.512l55.123 31.827 32.833-18.956a.298.298 0 0 1 .403.11c.08.14.03.32-.11.403l-32.963 19.03a.294.294 0 0 1-.313.012L100.33 46.603z"/></svg>