<!DOCTYPE svg PUBLIC "-//W3C//DTD SVG 1.1//EN" "http://www.w3.org/Graphics/SVG/1.1/DTD/svg11.dtd" [
	<!ENTITY ns_flows "http://ns.adobe.com/Flows/1.0/">
]><svg xmlns="http://www.w3.org/2000/svg" width="70" height="38" viewBox="-1 -0.918 70 38" overflow="visible"><path fill="#09C" d="M32.968 12.098v11.957a6.16 6.16 0 0 1-3.066 5.318l-10.353 5.97a6.13 6.13 0 0 1-6.13 0l-10.355-5.97A6.138 6.138 0 0 1 0 24.055V12.098A6.122 6.122 0 0 1 3.066 6.8L13.42.822a6.125 6.125 0 0 1 6.13 0L29.9 6.8a6.144 6.144 0 0 1 3.066 5.298z"/><path fill="#EE3968" d="M69 12.098v11.957a6.162 6.162 0 0 1-3.065 5.318l-10.354 5.97a6.13 6.13 0 0 1-6.13 0l-10.35-5.97a6.14 6.14 0 0 1-3.066-5.32V12.1c0-2.18 1.168-4.2 3.066-5.298L49.45.822a6.125 6.125 0 0 1 6.13 0L65.936 6.8A6.146 6.146 0 0 1 69 12.098z"/></svg>