<svg xmlns="http://www.w3.org/2000/svg" width="150" height="27" viewBox="0 0 150 27"><path d="M8.78 16.416l-.07 2.086h1.654c0 6.477.648 6.048-1.655 6.19l.07 2.088 6.334.07.072-2.16c-1.438-.07-1.295-.285-1.295-1.797 0-1.152 0-2.303.072-3.456.505-.864 2.16-1.728 3.24-1.008.504.935.288 2.88.288 4.174.07 4.39-1.512-.43-1.223 4.247H22.6l.144-2.16c-1.872 0-1.728.288-1.728-3.022 0-1.51.288-3.525-.432-4.678-1.295-2.086-5.04-1.8-6.766-.143l-.575-1.44-4.463 1.01zM108.61 11.953l-.935 4.104 1.153.214 1.08-4.03zM0 11.45l.648-.722c1.51 1.01 5.83 1.01 7.414 0l.647.72c-2.017 1.945-6.767 1.945-8.71 0zM41.962 12.098c-.36.432-.504.86-.648 1.295l-1.152-1.08c.288-.505.576-1.01.864-1.37 1.44-1.51 2.664-1.08 4.247-.288 1.87.863 2.23 1.8 4.175-1.007l.863 1.15c-1.726 2.88-3.38 2.377-5.252 1.37-1.152-.72-2.016-1.368-3.096-.07zM89.393 11.45l.648-.722c1.585 1.01 5.903 1.01 7.487 0l.646.72c-2.012 1.945-6.836 1.945-8.78 0zM98.464 22.894c-1.01.503-1.944 1.798-3.744 1.585-.79-.074-1.367-.437-1.726-.94-.65-.645-.722-1.15-.793-2.228h7.486c.432-7.415-9.574-7.56-11.23-1.73-2.087 7.486 8.35 9.79 11.376 4.68l-1.368-1.368zM96.23 19.51h-3.887c.29-2.448 3.458-2.593 3.887 0zM75.43 24.043c-.72 2.018-4.462.29-5.325-1.726l-2.16.792 1.297 3.67c2.086.215 1.224-.505 2.16-.36.863.144 1.223.647 2.806.647 2.016 0 3.887-1.08 4.318-2.59 1.44-5.185-6.623-3.887-6.982-6.478 1.8-1.584 3.816 1.078 4.536 1.582l1.942-.72-.862-3.168c-1.583 0-1.44.432-2.448.146-2.88-.794-5.902-.146-6.406 2.445-.79 4.32 5.9 3.817 7.125 5.758zM29.87 15.84v2.23h1.656c.144 2.305-.505 6.55.864 7.846 1.51 1.438 4.75 1.224 6.837.217l-.07-2.233c-1.44.65-2.305.866-3.745.216-.432-1.438-.36-4.388-.215-6.045h3.526v-2.375h-3.6V11.88H33.11c-.937 2.232-.865 3.167-3.24 3.96z"/><path d="M78.67 16.344v1.727l1.656.073c.286 5.973-1.657 10.437 7.7 8.133v-2.303c-1.8.506-2.016.793-3.815.215-.43-1.51-.358-4.318-.286-6.045l3.6-.072-.073-2.375-3.525-.07V11.88c-3.598 0-1.44.29-3.167 2.592-.864 1.297-1.656.862-2.09 1.872zM100.334 11.375l-.145 2.16c2.16.074 1.655-1.005 1.655 6.623 0 4.968.432 4.462-1.656 4.534l.07 2.16h6.768l.072-2.086-1.584-.216c-.72-3.743.36-10.15-.145-14.11-1.15-.07-3.524.72-5.036.935zM117.25 11.45l-.074 2.014 1.658.072c0 2.52.285 8.782-.146 10.943l-1.513.286v2.015l6.767.072.144-2.16c-2.016 0-1.73 0-1.73-2.087 0-2.376.147-10.796-.067-12.164l-5.04 1.01zM51.75 16.344v2.158l1.656.07v3.817c0 2.16.36 2.3-1.656 2.3l.072 2.16h6.766l.07-1.943c-1.654-.647-1.726.36-1.726-2.014 0-6.333.287-3.24 3.022-3.744 3.312-.577-.07-6.55-3.022-2.233l-.576-1.438c-1.222-.074-3.022.646-4.606.864zM136.97 16.344v2.158l1.654.07c0 6.12.65 6.12-1.653 6.12l.07 2.16 6.77-.072.07-1.873c-1.655-.647-1.728.36-1.728-2.014.072-6.333.288-3.24 3.023-3.744 3.383-.577-.072-6.55-3.023-2.233-.36-.43-.36-1.148-.576-1.438-1.223 0-2.952.646-4.605.864zM1.294 16.416l-.07 2.086h1.654v5.903l-1.584.36v2.086H8.06l.073-2.085-1.583-.215-.145-9.07c-1.007-.074-3.454.717-5.11.936zM110.556 22.46h5.9l.072-2.66h-5.9zM23.25 22.46h5.973l.07-2.59-5.973-.07zM61.252 22.46H67.3v-2.59l-5.976-.07zM135.82 24.766c-1.584-.578-1.228.072-1.228-4.608 0-2.303-.214-3.597-2.156-4.316-3.096-1.153-9.43.356-6.84 4.1 3.168.36 1.873-1.295 3.313-2.158 1.728-1.007 2.374.647 2.16 2.23-2.81.648-7.128.578-6.768 4.247.143 1.44 1.367 2.522 2.878 2.666 2.088.287 3.095-.72 4.607-1.226 1.08 1.584 2.52 1.296 4.607 1.08v-1.8c-.502-.36.073 0-.575-.214zm-4.678-.938c-.866.65-1.514.938-2.736.65-1.15-1.73.79-2.448 2.736-2.448v1.798zM49.663 22.82c-1.007.503-1.944 1.87-3.814 1.658-1.656-.22-2.303-1.37-2.448-3.096l7.486-.072c.576-7.343-9.717-7.775-11.228-1.51-1.8 7.34 8.493 9.715 11.372 4.314l-1.37-1.294zm-2.303-3.31h-3.887c.36-2.448 3.455-2.593 3.887 0z"/></svg>