<svg xmlns="http://www.w3.org/2000/svg" width="816" height="11in" viewBox="0 0 8500 11000" shape-rendering="geometricPrecision" text-rendering="geometricPrecision" image-rendering="optimizeQuality" fill-rule="evenodd" clip-rule="evenodd"><defs><style>.fil0{fill:#c5c6c6;fill-rule:nonzero}</style></defs><path class="fil0" d="M3355 5590h-1v149h-39v-360h39v44h1c20-33 48-49 86-49 31 0 56 11 74 33s27 51 27 88c0 41-10 75-31 99-20 25-47 37-82 37-32 0-56-13-74-41zm-1-99v34c0 20 7 38 20 52 14 14 30 21 51 21 24 0 42-9 56-27 13-18 20-44 20-76 0-28-6-49-19-65-13-15-30-23-51-23-23 0-42 8-56 24s-21 36-21 60zm452 21h-174c1 28 8 49 22 64s34 22 59 22c27 0 53-9 76-27v37c-22 16-50 23-86 23-35 0-62-11-82-33-20-23-30-54-30-95 0-38 11-69 33-93s49-36 81-36 57 10 75 31c17 21 26 50 26 87v20zm-40-33c0-23-6-41-17-53-11-13-26-19-45-19-18 0-34 6-47 20-13 13-21 30-24 52h133zm232-60c-7-5-17-8-30-8-17 0-31 8-42 24s-17 38-17 65v126h-40v-247h40v51h1c5-17 14-31 26-40 11-10 24-15 38-15 11 0 18 1 24 3v41zm143 212c-37 0-66-11-87-34-22-23-33-54-33-92 0-41 11-73 34-97 23-23 53-34 92-34 36 0 65 11 86 34 20 22 30 53 30 94 0 39-11 70-33 94s-52 35-89 35zm3-224c-26 0-46 8-60 26-15 17-23 41-23 71 0 29 8 52 23 69s35 25 60 25 45-8 59-25c13-16 20-40 20-70 0-31-7-55-20-71-14-17-34-25-59-25zm289 224c-36 0-65-11-87-34s-33-54-33-92c0-41 12-73 34-97 23-23 53-34 92-34 37 0 65 11 86 34 20 22 31 53 31 94 0 39-11 70-34 94-22 24-52 35-89 35zm3-224c-25 0-45 8-60 26-15 17-22 41-22 71 0 29 7 52 22 69s35 25 60 25 45-8 59-25c14-16 20-40 20-70 0-31-6-55-20-71-14-17-34-25-59-25zm358-16l-146 201h145v34h-203v-13l146-200h-132v-34h190v12zm231 235h-39v-39h-1c-17 30-43 44-76 44-25 0-44-6-58-19s-20-30-20-52c0-46 27-73 81-80l74-10c0-42-17-63-51-63-30 0-57 10-80 30v-40c24-16 52-23 83-23 58 0 87 30 87 91v161zm-39-125l-60 8c-18 3-32 7-41 14-9 6-14 18-14 34 0 12 4 22 13 30 8 7 20 11 34 11 20 0 36-7 48-20 13-14 20-31 20-52v-25zm154 56c0 22 9 34 26 34 7 0 13-1 19-3v36c-3 1-7 1-12 2s-10 1-16 1c-8 0-15-1-22-4-7-2-13-6-18-12-5-5-9-11-12-19s-5-18-5-28v-303h40v296z" id="Layer_x0020_1"/></svg>