<svg xmlns="http://www.w3.org/2000/svg" width="162" height="48" viewBox="0 0 162 48"><path d="M147.48 9.017c-6.902-.293-12.54 3.23-15.53 7.516 1.196 1.083 2.028 2.533 3.172 3.674 2.142-1.978 4.636-3.603 6.68-5.678-.3-.484-1.272-.982-1.002-1.504 3.304-1.382 8.78-1.554 11.86.167-.203.688-.855.928-1.172 1.502 2.348 1.775 4.56 3.68 6.85 5.512 1.062-1.273 2.1-2.576 3.172-3.84-3.065-3.706-7.55-7.075-14.03-7.35z"/><path d="M142.305 22.546c.81-.097 1.5-1.146 1.002-2.34-2.453-2.187-3.606 2.645-1.002 2.34zM147.48 19.873c-2.823-1.03-2.9 2.75-.836 2.675 1.172-.047 1.795-1.583.836-2.675zM151.154 22.546c1.878.03 1.712-3.618-.5-2.675-1.394.597-.852 2.652.5 2.676zM142.805 24.215c-2.93-.48-2.34 3.057-.5 2.837 1.174-.136 1.636-2.01.5-2.837zM145.143 25.718c.184 2.286 4.24 1.03 2.338-1.336-1.4-.614-2.412.393-2.337 1.336zM151.154 27.053c2.13.04 1.476-3.836-.666-2.67-1.172.637-.672 2.648.666 2.67zM146.312 28.725c-.86.21-1.182.592-1.172 1.336.045 2.63 3.777 1.112 2.674-.833-.15-.268-.544-.737-1.502-.502zM149.818 30.395c.156.748.69 1.1 2.006 1.002 2.67-2.422-2.648-4.05-2.006-1.002zM141.53 28.766c-1.394.596-.853 2.65.502 2.674 1.876.033 1.71-3.618-.5-2.674zM0 17.477h1.69v14.26H0zM18.35 23.127a2.668 2.668 0 0 0-1.106-.786c-.46-.18-1.02-.27-1.694-.27-.725 0-1.314.158-1.77.473s-.86.756-1.21 1.318a8.847 8.847 0 0 0-.31-.55 2.236 2.236 0 0 0-.535-.587 3.09 3.09 0 0 0-.854-.462c-.342-.127-.77-.19-1.28-.19a3.743 3.743 0 0 0-1.992.552c-.27.17-.5.36-.695.575a2.657 2.657 0 0 0-.452.665h-.044c0-.27-.007-.53-.02-.784-.015-.256-.022-.51-.022-.767H4.877c0 .31.012.652.04 1.027.025.376.04.78.04 1.21v7.19h1.57v-4.594c0-.535.057-1.026.17-1.47.116-.442.288-.823.526-1.146.233-.323.535-.57.904-.745.37-.175.81-.263 1.32-.263.645 0 1.108.22 1.39.655.282.436.424 1.178.424 2.223v5.34h1.57V26.3c0-.417.065-.795.192-1.138.127-.344.303-.635.524-.878.222-.24.48-.43.775-.563.296-.13.612-.2.946-.2.456 0 .834.076 1.13.224.293.147.53.343.704.584.174.24.295.517.362.825.067.31.1.625.1.945v5.642h1.573v-5.722c0-.604-.062-1.15-.184-1.64s-.318-.908-.6-1.25zM30.616 23.48a4.534 4.534 0 0 0-1.562-1.038 5.332 5.332 0 0 0-2.024-.372c-.685 0-1.312.14-1.882.422a4.646 4.646 0 0 0-1.502 1.188h-.04v-1.37h-1.57v14.02h1.57v-6.264h.04c.295.537.763.99 1.4 1.358.637.37 1.38.554 2.226.554.658 0 1.276-.123 1.853-.37s1.077-.598 1.5-1.038c.424-.443.755-.97 1-1.572.24-.604.36-1.26.36-1.973s-.12-1.37-.36-1.976a4.794 4.794 0 0 0-1.01-1.57zm-.554 4.924c-.155.424-.38.79-.675 1.11a3.21 3.21 0 0 1-1.06.742c-.408.183-.868.27-1.38.27-.51 0-.97-.09-1.38-.27a3.303 3.303 0 0 1-1.058-.743 3.252 3.252 0 0 1-.676-1.11 4.03 4.03 0 0 1-.23-1.378c0-.498.077-.957.23-1.38.154-.425.38-.792.675-1.11.295-.312.648-.562 1.058-.744.41-.18.87-.27 1.38-.27.51 0 .97.092 1.38.27.41.185.76.433 1.06.746.294.317.52.687.674 1.108.154.424.23.883.23 1.38.002.497-.075.956-.23 1.38zM41.996 30.105v-4.05c0-1.34-.31-2.342-.927-3-.62-.657-1.626-.986-3.02-.986-.69 0-1.362.118-2.027.35a4.454 4.454 0 0 0-1.722 1.1l.987 1.028c.375-.35.81-.606 1.3-.774.49-.168.99-.254 1.5-.254.738 0 1.312.178 1.723.525s.615.865.615 1.55v.282h-.604c-.576 0-1.21.027-1.904.08a7.39 7.39 0 0 0-1.933.404 3.69 3.69 0 0 0-1.502.987c-.4.442-.602 1.055-.602 1.834 0 .458.094.86.28 1.208.188.352.44.645.757.877.316.235.685.41 1.107.532s.877.183 1.36.183c.726 0 1.346-.152 1.862-.463a3.69 3.69 0 0 0 1.238-1.188h.04c0 .2.004.43.01.693.006.265.037.502.09.716h1.513a10.188 10.188 0 0 1-.14-1.634zm-1.572-2.294a3.69 3.69 0 0 1-.2 1.1c-.12.342-.297.64-.524.896-.228.256-.513.46-.854.616-.344.154-.742.23-1.2.23-.592 0-1.084-.124-1.48-.374s-.595-.668-.595-1.258c0-.645.296-1.108.89-1.39.59-.282 1.39-.427 2.395-.427h1.57v.608zM46.82 24.547c.262-.322.595-.572.997-.756.402-.18.866-.27 1.39-.27.472 0 .9.092 1.29.27.39.185.75.476 1.088.877l1.25-1.106a4.306 4.306 0 0 0-1.643-1.127 5.43 5.43 0 0 0-1.984-.362c-.726 0-1.386.125-1.983.373a4.58 4.58 0 0 0-1.54 1.037 4.65 4.65 0 0 0-.998 1.57 5.405 5.405 0 0 0-.352 1.977c0 .725.116 1.39.352 1.994.236.605.563 1.13.986 1.57.424.443.938.785 1.54 1.027.606.24 1.27.36 1.997.36.684 0 1.334-.12 1.95-.36a4.12 4.12 0 0 0 1.613-1.146l-1.17-1.108c-.563.78-1.36 1.168-2.395 1.168-.483 0-.92-.09-1.31-.27a2.932 2.932 0 0 1-.997-.757 3.63 3.63 0 0 1-.644-1.117 3.975 3.975 0 0 1-.232-1.36c0-.482.068-.937.202-1.358.133-.426.334-.798.595-1.12zM59.078 30.447c-.24.057-.477.082-.706.082-.35 0-.617-.058-.805-.173a1.083 1.083 0 0 1-.424-.463 1.762 1.762 0 0 1-.16-.685c-.015-.26-.022-.548-.022-.857V23.64h2.78v-1.33h-2.78v-2.68h-1.57v2.68h-2.055v1.33h2.055v5.176c0 .483.03.924.09 1.32.062.395.186.728.374.995.188.272.45.48.785.626s.784.222 1.348.222a5.7 5.7 0 0 0 .937-.08c.33-.053.63-.142.897-.262l-.06-1.433a2.74 2.74 0 0 1-.684.244zM78.573 20.426c-.362-.53-.78-.98-1.258-1.357a7.278 7.278 0 0 0-3.052-1.432 7.462 7.462 0 0 0-1.49-.16h-5.48v14.26h5.48a7.467 7.467 0 0 0 3.052-.676 7.303 7.303 0 0 0 1.49-.914 6.137 6.137 0 0 0 1.258-1.36c.363-.532.652-1.142.866-1.833.215-.693.322-1.475.322-2.348 0-.87-.107-1.654-.323-2.345a6.682 6.682 0 0 0-.867-1.836zm-1.066 6.7c-.295.698-.698 1.27-1.208 1.722-.512.45-1.115.783-1.813.998a7.705 7.705 0 0 1-2.276.32H68.99V19.05h3.223c.82 0 1.58.106 2.277.32a4.88 4.88 0 0 1 1.812 1c.51.45.912 1.023 1.207 1.72.295.7.444 1.54.444 2.52 0 .978-.148 1.818-.443 2.517zM82.34 22.31h1.57v9.428h-1.57zM83.127 17.477c-.322 0-.595.114-.814.343a1.11 1.11 0 0 0-.334.806c0 .336.106.61.322.826.216.214.49.32.825.32.336 0 .61-.106.826-.32a1.12 1.12 0 0 0 .324-.826c0-.31-.113-.578-.334-.806a1.086 1.086 0 0 0-.816-.343zM94.607 30.105v-4.05c0-1.34-.31-2.342-.928-3-.618-.657-1.624-.986-3.022-.986-.687 0-1.36.118-2.024.35a4.468 4.468 0 0 0-1.724 1.1l.985 1.028c.377-.35.81-.606 1.3-.774s.99-.254 1.5-.254c.74 0 1.313.178 1.724.525.41.35.612.865.612 1.55v.282h-.602c-.578 0-1.212.027-1.902.08a7.403 7.403 0 0 0-1.936.404 3.673 3.673 0 0 0-1.5.987c-.402.442-.603 1.055-.603 1.834 0 .458.09.86.28 1.208.187.352.437.645.755.877.315.235.686.41 1.11.532s.873.183 1.355.183c.727 0 1.348-.152 1.864-.463.516-.312.93-.703 1.237-1.188h.04c0 .2.007.43.013.693.008.265.037.502.09.716h1.512a10.188 10.188 0 0 1-.138-1.634zm-1.572-2.294c-.014.39-.08.755-.2 1.1-.12.342-.295.64-.522.896a2.55 2.55 0 0 1-.856.616c-.342.154-.742.23-1.198.23-.593 0-1.086-.124-1.48-.374-.397-.25-.595-.668-.595-1.258 0-.645.293-1.108.885-1.39.592-.282 1.39-.427 2.397-.427h1.57v.608h-.002zM97.627 16.51H99.2v15.23h-1.573zM103.268 17.477c-.322 0-.596.114-.814.343a1.12 1.12 0 0 0-.333.806c0 .336.11.61.324.826.215.214.49.32.826.32s.61-.106.825-.32c.216-.215.323-.49.323-.826 0-.31-.11-.578-.332-.806a1.094 1.094 0 0 0-.818-.343zM102.482 22.31h1.57v9.428h-1.57zM114.527 23.136c-.297-.335-.668-.597-1.118-.785s-.984-.28-1.602-.28c-.39 0-.752.05-1.088.15-.337.1-.64.236-.906.402-.27.17-.5.36-.693.575-.194.215-.35.436-.453.665h-.04c0-.27-.007-.53-.022-.784-.016-.256-.02-.51-.02-.767h-1.49c0 .31.012.652.04 1.027.026.376.04.78.04 1.21v7.19h1.57v-4.594c0-.535.06-1.026.172-1.47a3.36 3.36 0 0 1 .523-1.146c.234-.32.537-.57.906-.745.368-.175.81-.263 1.318-.263.738 0 1.282.228 1.632.686.35.456.522 1.08.522 1.874v5.658h1.572v-5.82c0-.564-.072-1.084-.21-1.56a3.12 3.12 0 0 0-.653-1.222zM126.21 23.922h-.04c-.16-.31-.36-.58-.604-.816a3.423 3.423 0 0 0-.816-.584 4.11 4.11 0 0 0-.938-.342 4.295 4.295 0 0 0-.967-.11c-.753 0-1.438.112-2.055.342a4.493 4.493 0 0 0-1.583.976 4.362 4.362 0 0 0-1.017 1.562c-.24.618-.36 1.31-.36 2.077 0 .697.12 1.34.36 1.932.24.59.584 1.1 1.027 1.53a4.71 4.71 0 0 0 1.592 1.006 5.522 5.522 0 0 0 2.034.363c.63 0 1.247-.143 1.852-.423.604-.283 1.094-.728 1.47-1.332h.042v1.21c0 .497-.055.974-.162 1.43-.107.458-.294.862-.562 1.218-.27.357-.633.64-1.1.848-.462.21-1.043.313-1.74.313-.726 0-1.367-.138-1.924-.41-.558-.276-1.086-.685-1.582-1.22l-1.128 1.29c.67.655 1.38 1.118 2.124 1.39.746.268 1.582.4 2.51.4 1.664 0 2.937-.444 3.815-1.34.878-.895 1.316-2.2 1.316-3.916v-9.004h-1.568l.003 1.61zm-.222 4.36c-.146.41-.365.772-.653 1.09a3.27 3.27 0 0 1-1.058.755c-.418.188-.895.28-1.43.28-.46 0-.888-.085-1.29-.26a3.345 3.345 0 0 1-1.772-1.785 3.345 3.345 0 0 1-.264-1.336c0-.498.082-.957.24-1.38.16-.425.387-.792.674-1.11.29-.312.64-.562 1.047-.744.412-.18.865-.27 1.36-.27.496 0 .953.086 1.37.252.416.17.772.406 1.07.715.292.31.52.676.682 1.1.16.423.242.89.242 1.4a3.67 3.67 0 0 1-.22 1.296z"/></svg>