<svg width="220" height="40" viewBox="0 0 220 40" fill="none" xmlns="http://www.w3.org/2000/svg">
<path d="M163.784 21.2782C166.075 21.2796 168.366 21.2957 170.656 21.2709C171.453 21.2623 171.935 21.349 171.951 22.3774C172.108 31.9576 166.371 39.3033 156.518 39.4016C145.656 39.51 138.593 30.7452 140.229 20.3916C141.235 14.0332 144.944 9.57516 151.138 7.77634C158.276 5.70315 164.531 7.47818 169.421 13.294C170.411 14.4711 170.561 15.386 168.827 16.0873C167.624 16.5742 166.493 17.948 165.428 17.8514C164.521 17.7692 163.802 16.1039 162.915 15.2239C159.105 11.4421 149.822 11.4437 146.593 19.4278C144.899 23.617 146.291 28.735 149.983 31.5658C153.429 34.2078 158.903 34.2809 162.243 31.7284C162.443 31.5751 162.659 31.4332 162.829 31.2501C163.859 30.1406 165.411 28.8229 164.968 27.5008C164.594 26.3871 162.583 27.1988 161.308 27.0429C160.806 26.9816 160.291 27.0329 159.782 27.0329C155.161 27.0329 155.194 27.0348 155.46 22.4233C155.515 21.4696 155.86 21.2493 156.72 21.2634C159.074 21.3021 161.429 21.2768 163.784 21.2782Z" fill="#273A49"/>
<path d="M38.3672 13.4421C38.4103 17.3616 38.4322 21.2814 38.509 25.2002C38.5329 26.4179 37.7278 26.2869 36.9737 26.2887C33.9324 26.2957 30.891 26.2806 27.8498 26.3001C27.0949 26.3049 26.3407 26.4089 25.5861 26.4672C24.8307 26.4299 24.0757 26.3825 23.32 26.3574C19.8541 26.2425 16.38 26.5836 12.9192 26.1739L12.941 26.1951C12.9477 22.0687 12.9544 17.9423 12.9611 13.8158C12.9914 10.1345 13.0976 6.45157 13.0147 2.77284C12.9816 1.30515 13.4575 0.890407 14.8561 0.962961C18.5255 1.15333 22.2107 0.715469 25.8763 1.20453C25.8847 4.68572 25.9581 8.16893 25.8695 11.648C25.8326 13.0937 26.319 13.4916 27.7198 13.4584C31.2671 13.3744 34.8179 13.4378 38.3672 13.4421Z" fill="#02B2E2"/>
<path d="M138.54 23.2222C138.54 27.8559 138.459 32.4919 138.585 37.1222C138.628 38.7346 138.06 39.1249 136.632 38.9672C135.879 38.884 135.108 38.9324 134.346 38.9591C133.417 38.9916 132.518 39.1014 132.717 37.6572C132.837 36.7859 132.287 36.8332 131.807 37.2652C126.643 41.9093 119.034 38.2984 116.881 33.7322C114.578 28.8461 115.23 20.8867 121.588 18.0225C124.974 16.4968 128.327 16.4752 131.525 18.5887C131.832 18.7913 132.066 19.2307 132.482 19.0399C133.02 18.7928 132.716 18.2521 132.719 17.857C132.744 14.8104 132.769 11.7627 132.711 8.71695C132.691 7.65291 133.011 7.31989 134.11 7.29952C138.541 7.21741 138.54 7.17632 138.54 11.606C138.54 15.4781 138.54 19.3501 138.54 23.2222ZM132.826 28.2062C132.851 24.8249 130.501 22.3597 127.235 22.34C123.909 22.3199 121.46 24.7079 121.417 28.0127C121.374 31.3035 123.969 34.0544 127.143 34.0825C130.215 34.1098 132.802 31.4348 132.826 28.2062Z" fill="#273A49"/>
<path d="M68.9828 29.6211C68.9453 34.0105 65.8004 37.9724 61.4573 38.9499C55.6979 40.2462 50.7253 38.7386 46.4464 34.6826C45.596 33.8765 45.7927 33.5617 46.5822 32.995C47.6606 32.2209 48.6969 31.3789 49.6873 30.4945C50.6203 29.6613 51.2603 29.6998 52.0921 30.7225C54.3631 33.5145 57.274 34.3701 60.1486 33.2681C61.5801 32.7194 62.3932 31.6853 62.6452 30.1849C62.9001 28.667 62.2145 27.6897 60.9733 26.876C59.3965 25.8425 57.5729 25.5331 55.8523 24.9344C53.7571 24.2055 51.5534 23.6411 49.8703 22.1588C47.6434 20.1975 46.727 17.6649 47.2976 14.6658C47.9644 11.1611 50.111 8.84051 53.3684 7.76566C58.489 6.07605 63.227 6.99683 67.3969 10.5242C68.1777 11.1847 68.2378 11.7141 67.3569 12.2952C66.988 12.5386 66.6284 12.8042 66.3001 13.0991C64.7573 14.4849 63.5199 15.5397 61.397 13.4337C59.7633 11.8132 57.2293 11.645 55.0038 13.0249C52.8959 14.332 52.793 16.6967 54.8075 18.1205C57.2913 19.8759 60.3617 20.1974 63.0768 21.4078C67.0068 23.1599 69.0149 25.8674 68.9828 29.6211Z" fill="#273A49"/>
<path d="M219.518 23.2448C219.519 27.9477 219.473 32.6514 219.549 37.3531C219.569 38.5928 219.269 39.0928 217.982 38.9703C216.974 38.8743 215.947 38.9223 214.93 38.9633C214.122 38.996 213.54 38.8983 213.662 37.8604C213.799 36.6834 213.259 36.858 212.618 37.3998C207.48 41.7415 199.594 38.5271 197.516 32.9932C195.875 28.6237 196.058 24.3014 199.141 20.6282C202.065 17.1442 205.967 16.2547 210.357 17.4884C211.178 17.7191 211.878 18.0955 212.506 18.649C212.787 18.8963 213.099 19.2351 213.498 19.0061C213.9 18.7751 213.666 18.3222 213.667 17.973C213.68 14.9225 213.72 11.8709 213.649 8.822C213.623 7.68127 213.918 7.30307 215.128 7.29673C219.518 7.27373 219.517 7.22347 219.517 11.6146C219.517 15.4914 219.517 19.3681 219.518 23.2448ZM213.75 28.1995C213.762 24.7861 211.434 22.3442 208.163 22.3408C204.84 22.3374 202.361 24.7504 202.324 28.0258C202.286 31.3079 204.869 34.0117 208.085 34.0774C211.24 34.1417 214.094 30.9829 213.75 28.1995Z" fill="#273A49"/>
<path d="M87.7085 31.4608C88.3823 31.9204 89.033 32.4193 89.7345 32.8322C91.7803 34.0366 91.878 34.3089 90.2253 35.9167C86.4256 39.6134 81.9034 40.3719 77.0931 38.4853C72.9935 36.8776 70.7287 33.6569 70.4009 29.1901C70.0258 24.0815 72.1351 20.1918 76.7027 18.0673C83.7317 14.7979 92.1937 18.7483 92.5994 27.4704C92.6417 28.3776 92.8936 29.3712 92.3526 30.2552C87.4054 30.2425 82.4582 30.2229 77.511 30.23C77.1088 30.2305 76.5517 29.9659 76.3152 30.467C76.0857 30.9533 76.3622 31.3987 76.6629 31.8468C78.7708 34.987 83.6918 35.2355 86.2336 32.2854C86.6419 31.8115 86.8853 31.1504 87.7085 31.4608ZM81.3346 25.5994C82.6048 25.5994 83.8761 25.6278 85.1449 25.5845C85.6105 25.5686 86.2573 25.8836 86.5161 25.3046C86.7918 24.6878 86.2119 24.2466 85.8627 23.8429C83.5859 21.2109 78.6333 21.6161 76.7295 24.5334C76.1644 25.3993 76.421 25.6197 77.3335 25.6038C78.6668 25.5806 80.0009 25.5978 81.3346 25.5994Z" fill="#273A49"/>
<path d="M100.003 19.4328C101.483 18.5684 102.318 17.7145 103.52 17.3462C108.709 15.7576 113.327 18.5042 114.056 23.8668C114.692 28.5399 114.524 33.2914 114.143 37.9407C113.964 40.1304 111.172 38.5229 109.619 38.9261C108.647 39.1785 108.139 38.7574 108.164 37.5904C108.239 33.9697 108.208 30.3465 108.188 26.7245C108.18 25.3915 108.117 24.0207 107.033 23.0469C105.937 22.0632 104.626 21.5482 103.161 22.0642C101.648 22.5974 100.516 23.5655 100.307 25.2847C100.222 25.9759 100.159 26.6744 100.156 27.3698C100.142 30.6742 100.072 33.9816 100.192 37.2818C100.244 38.7112 99.7133 38.9745 98.4446 38.9767C94.1123 38.984 94.1124 39.0237 94.1124 34.7641C94.1123 29.5533 94.1759 24.3411 94.0717 19.1324C94.0417 17.6305 94.5397 17.2184 95.9124 17.361C96.7308 17.446 97.5677 17.4188 98.3915 17.3674C99.658 17.2884 100.604 17.4892 100.003 19.4328Z" fill="#273A49"/>
<path d="M12.9408 26.1946C12.9408 26.1946 12.919 26.1735 12.9189 26.1738C13.0698 30.4263 13.0971 34.6782 12.9065 38.9299C9.28857 38.9383 5.67003 38.9127 2.05299 38.9746C0.878924 38.9947 0.326033 38.7527 0.394878 37.4059C0.58542 33.6788 0.203636 29.9381 0.599124 26.2107C4.71238 26.2049 8.82662 26.1997 12.9408 26.1946Z" fill="#1B82E1"/>
<path d="M12.9069 38.9299C13.0974 34.6782 13.0701 30.4263 12.9193 26.1738C16.3802 26.5832 19.8542 26.2421 23.3201 26.3569C24.0758 26.382 24.8308 26.4294 25.5862 26.4667C25.5806 30.0882 25.5311 33.7103 25.5937 37.3304C25.6151 38.5667 25.2396 39.0045 23.9734 38.9786C20.2857 38.9033 16.5959 38.9382 12.9069 38.9299Z" fill="#97DFF3"/>
<path d="M38.3671 13.4418C34.8178 13.4374 31.267 13.374 27.7197 13.458C26.3189 13.4912 25.8325 13.0933 25.8694 11.6477C25.958 8.16857 25.8846 4.68536 25.8762 1.20417C29.7853 0.737202 33.7022 1.03216 37.6164 1.09461C38.372 1.10667 38.5118 1.59387 38.5012 2.25503C38.4418 5.9837 38.409 9.71281 38.3671 13.4418Z" fill="#1B82E1"/>
<path d="M12.9409 26.1952C8.82673 26.2003 4.71249 26.2054 0.599237 26.2112C0.0855447 22.4338 0.500284 18.6367 0.369027 14.8508C0.327871 13.6645 1.17683 13.7794 1.93592 13.7811C5.6109 13.789 9.28593 13.8036 12.961 13.8158C12.9543 17.9423 12.9476 22.0687 12.9409 26.1952Z" fill="#97DFF3"/>
<path d="M195.275 28.0902C195.275 31.2038 195.215 34.3192 195.305 37.4302C195.34 38.6256 194.96 38.9444 193.808 38.9746C189.221 39.0951 189.222 39.1306 189.222 34.4799C189.223 31.1756 189.215 27.8712 189.229 24.5669C189.232 23.8316 189.294 23.1096 188.218 23.1801C187.116 23.2524 187.049 22.741 187.506 21.9233C187.66 21.6473 187.795 21.3592 187.917 21.0672C189.596 17.0218 189.593 17.0517 194.057 17.3536C195.069 17.4221 195.318 17.7768 195.298 18.7499C195.234 21.8621 195.275 24.9766 195.275 28.0902Z" fill="#273A49"/>
<path d="M195.757 10.538C195.743 12.4015 194.08 14.0123 192.186 13.9972C190.31 13.9823 188.637 12.3429 188.632 10.5161C188.627 8.62381 190.401 6.89884 192.309 6.94018C194.119 6.97939 195.771 8.70329 195.757 10.538Z" fill="#273A49"/>
<path d="M186.635 17.4742C185.361 17.3166 184.106 17.4637 182.859 17.7207C181.489 18.1542 180.38 18.9011 179.788 20.2695C178.836 19.9172 179.418 19.1233 179.332 18.5454C179.232 17.8752 179.241 17.259 178.292 17.483C176.692 17.6091 175.006 16.8358 173.498 17.9383C173.451 24.5983 173.403 31.2584 173.355 37.9184C173.351 38.457 173.407 39.0349 174.11 38.9806C175.78 38.8516 177.491 39.3926 179.122 38.6782L179.125 38.6808C179.125 38.6796 179.125 38.6783 179.125 38.6771C179.127 38.6765 179.128 38.6763 179.129 38.6757C179.129 38.6757 179.126 38.6728 179.126 38.6726C179.702 35.3596 179.431 32.0352 179.258 28.7122C179.262 28.3034 179.265 27.8946 179.269 27.4858C179.082 27.3091 178.925 27.1394 178.816 26.9811C178.925 27.1394 179.082 27.309 179.269 27.4857C179.387 26.9813 179.505 26.4769 179.623 25.9725C180.384 23.9022 181.614 23.0758 183.828 23.0808C184.426 23.0821 185.232 23.6176 185.522 22.5634C185.628 22.306 185.734 22.0487 185.841 21.7914C185.885 21.6759 185.929 21.5604 185.973 21.445C186.602 20.8377 186.688 20.0328 186.78 19.2305C186.78 19.2305 186.778 19.2262 186.778 19.2257C187.679 17.6105 187.678 17.6098 186.635 17.4742Z" fill="#273A49"/>
</svg>
