<svg width="245" height="72" viewBox="0 0 245 72" fill="none" xmlns="http://www.w3.org/2000/svg">
<path d="M39.0176 4.53367C38.6506 4.16721 38.3394 3.67652 37.69 3.93918C37.3084 3.75167 36.9265 3.56374 36.5448 3.37581C36.3974 3.29076 36.2501 3.20575 36.1028 3.12075C36.1028 3.12079 36.0525 3.03202 36.0525 3.03202C35.306 2.3856 34.4378 2.04408 33.4524 1.99602C33.0375 1.91497 32.6226 1.83396 32.2078 1.75296C31.7952 1.34793 31.3029 1.3396 30.7833 1.46732C30.5992 1.4548 30.4151 1.44224 30.2311 1.42972C27.5507 0.551178 24.8701 0.519679 22.1901 1.42847C22.0091 1.43963 21.8286 1.45066 21.6483 1.46164C21.1229 1.31457 20.6361 1.36203 20.2165 1.74574C19.893 1.63612 19.6138 1.73127 19.3564 1.92855C18.1851 1.87025 17.2078 2.37462 16.2689 2.99014C15.6835 2.95953 15.2112 3.21068 14.7874 3.58263C14.3598 3.54797 14.0848 3.80797 13.8183 4.08365C11.3629 5.21856 9.27233 6.88418 7.41846 8.79774C3.75492 12.5794 1.22016 16.976 0.592773 22.31C0.62404 22.6032 0.655307 22.8964 0.686574 23.1897C0.91419 24.0907 1.05526 24.9919 1.11147 25.893C1.05526 24.9918 0.91419 24.0907 0.686481 23.1895C0.687877 25.5928 0.68918 27.996 0.690483 30.3993C0.659495 30.6922 0.628414 30.985 0.597426 31.2779C0.706209 32.4114 0.852029 33.5361 1.37128 34.5734C1.2572 35.3998 1.61956 36.0514 2.13416 36.6469C2.41482 37.3817 2.49243 38.2142 3.15759 38.7634C3.08203 39.2047 3.35385 39.4424 3.67815 39.6493C4.44196 41.6056 5.65504 43.315 6.74892 45.0807C12.3339 54.0958 17.7945 63.1952 24.8749 71.1848C25.8007 72.2295 26.3754 72.153 27.1268 71.2932C28.7414 69.446 30.3665 67.6033 31.8881 65.6806C35.074 61.6552 37.6575 57.2087 40.5929 53.0182C44.1644 47.9191 47.4028 42.6248 50.082 37.0683C55.6546 25.5117 50.5809 10.1412 39.0176 4.53367ZM5.65448 19.3415C5.6543 19.3492 5.65542 19.3575 5.65532 19.3653C5.65542 19.3576 5.6543 19.3493 5.65448 19.3415ZM47.5449 28.1796C47.0745 37.3085 40.1083 44.9712 32.2638 47.0424C32.0213 47.1064 31.7914 47.219 31.5556 47.3089C31.0068 47.2633 30.4877 47.306 30.1181 47.7922C29.9738 47.7984 29.8296 47.8046 29.6854 47.8108V47.8109C29.0245 47.6473 28.3817 47.7151 27.753 47.9611C26.6026 47.9558 25.4521 47.9505 24.3018 47.9453C23.159 47.7416 22.0163 47.5378 20.8736 47.3341C16.0239 46.1074 12.1869 43.3381 9.00824 39.5654C8.94515 39.1496 8.69799 38.8656 8.35228 38.6523C7.67474 37.4288 6.9972 36.2053 6.31965 34.9819C6.31956 34.9819 6.31956 34.9819 6.31947 34.9819C6.30141 34.4434 6.20491 33.9403 5.70492 33.6187C5.52272 32.8046 5.34051 31.9905 5.15831 31.1764C5.16147 30.6476 5.10936 30.1316 4.81149 29.6721C4.81279 27.7553 4.814 25.8386 4.8153 23.9218C4.90091 23.5454 4.98662 23.1689 5.07232 22.7925C5.07232 22.7925 5.07232 22.7924 5.07242 22.7924C5.28552 21.8581 5.49852 20.9237 5.71143 19.9893C5.71143 19.9891 5.71143 19.989 5.71143 19.9888C6.21347 19.6514 6.25619 19.1161 6.31705 18.5886C8.7836 12.7136 13.1958 8.86768 19.1198 6.83207C26.729 4.21751 33.7691 5.57855 39.9617 10.6672C45.4419 15.1707 47.9068 21.1576 47.5449 28.1796Z" fill="#42474B"/>
<path d="M15.1526 21.2478C15.2633 23.0054 14.9376 25.3454 15.4898 27.6736C16.2746 30.9826 18.0126 33.4944 21.2831 34.6184C26.4818 36.405 32.9514 35.4485 35.5951 30.2365C36.6095 28.2365 36.6809 26.0826 36.7633 23.9449C36.8659 21.2874 36.7733 18.6228 36.8074 15.9618C36.814 15.4454 36.4566 14.7153 37.1742 14.4533C37.7641 14.2379 37.9974 14.9211 38.3338 15.2546C45.1181 21.9814 44.5438 33.4357 37.1212 39.6401C27.5588 47.6333 12.9753 43.2027 9.73504 31.103C8.12461 25.0894 9.81581 19.5815 14.0725 14.9481C14.2877 14.7139 14.5166 14.4569 14.8687 14.5575C15.2922 14.6786 15.143 15.0698 15.1452 15.3512C15.1596 17.1253 15.1526 18.8996 15.1526 21.2478Z" fill="#97C23E"/>
<path d="M32.3122 19.011C32.3122 21.1664 32.4134 23.3275 32.2907 25.4759C32.051 29.6756 29.4568 31.2893 25.8697 31.538C22.5085 31.7711 19.8452 29.0646 19.7376 25.4513C19.6111 21.2075 19.6984 16.9578 19.628 12.7117C19.6114 11.7144 19.9792 11.1665 20.8882 10.8868C24.1221 9.89173 27.383 9.95184 30.6459 10.6849C31.8979 10.9662 32.4759 11.7014 32.3698 13.1181C32.2234 15.0724 32.333 17.0458 32.333 19.011C32.3261 19.011 32.3192 19.011 32.3122 19.011Z" fill="#97C23E"/>
<path d="M154.385 24.2799C152.901 23.8459 151.317 23.8499 149.876 24.2072C148.794 24.4756 149.401 25.7537 149.382 26.5559C149.31 29.6147 149.353 32.6761 149.353 36.1217C148.754 35.5545 148.448 35.34 148.239 35.0544C145.815 31.7419 143.407 28.4174 140.99 25.0993C140.36 24.2332 136.417 23.5948 135.552 24.1956C135.166 24.4639 135.233 24.8526 135.233 25.2177C135.228 31.6866 135.232 38.1556 135.225 44.6245C135.224 45.454 135.519 45.8322 136.379 45.5194C137.64 45.6627 138.901 45.7461 140.158 45.482C141.114 45.2112 140.647 44.4329 140.655 43.9002C140.696 41.047 140.657 38.1926 140.668 35.3387C140.67 34.9365 140.431 34.3676 140.992 34.1877C141.545 34.0105 141.704 34.582 141.95 34.9218C143.911 37.6326 146.076 40.2252 147.758 43.0993C149.151 45.4809 151.014 45.9075 153.424 45.6776C154.362 45.5882 154.777 45.2806 154.773 44.2919C154.747 38.0134 154.763 31.7346 154.756 25.456C154.756 25.0304 154.905 24.4318 154.385 24.2799Z" fill="#42474B"/>
<path d="M107.036 40.6416C104.5 40.7454 101.956 40.6322 99.417 40.6892C97.6208 40.7295 98.2615 39.4319 98.1686 38.5599C98.0705 37.6397 98.0355 36.7652 99.4561 36.8764C100.782 36.9801 102.122 36.8996 103.455 36.9002C106.592 36.9018 106.552 36.9035 106.425 33.8078C106.382 32.7549 105.995 32.3011 104.952 32.321C103.175 32.355 101.389 32.2517 99.6221 32.3991C98.3123 32.5085 98.107 31.9049 98.1464 30.8569C98.1824 29.9051 97.9756 28.9191 99.5289 29.0019C101.492 29.1065 103.465 29.0472 105.433 29.0328C109.227 29.0052 108.722 29.5821 108.796 25.511C108.815 24.4652 108.503 24.0345 107.399 24.0451C103.081 24.0863 98.7617 24.0924 94.4442 24.0356C93.1566 24.0186 92.8397 24.5269 92.8694 25.7324C92.9442 28.7748 92.8943 31.8203 92.8956 34.8645C92.8969 37.9089 92.9631 40.9553 92.8671 43.9965C92.8232 45.381 93.3391 45.7355 94.6318 45.7132C98.3774 45.6484 102.125 45.6981 105.872 45.6832C109.386 45.6693 108.88 46.1732 109.021 42.5351C109.082 40.9527 108.495 40.582 107.036 40.6416Z" fill="#42474B"/>
<path d="M178.788 33.3626C177.122 32.6178 175.387 32.0268 173.695 31.3378C172.878 31.0049 172.225 30.4425 172.438 29.4744C172.655 28.4936 173.516 28.3366 174.382 28.3017C175.73 28.2474 176.983 28.53 177.621 29.8284C178.194 30.9934 178.986 30.955 179.98 30.589C180.454 30.4143 180.941 30.2654 181.432 30.1435C183.406 29.6532 183.601 29.1441 182.439 27.4776C179.352 23.0514 173.842 23.0226 170.358 24.7421C168.064 25.8747 166.656 27.8175 166.808 30.5342C166.953 33.1163 168.604 34.5182 170.782 35.6126C172.708 36.5808 174.886 36.8697 176.737 38.0125C177.47 38.4657 177.867 39.007 177.735 39.8624C177.588 40.8169 176.907 41.251 176.046 41.4288C174.446 41.7592 172.822 41.1744 172.168 39.9637C170.852 37.5293 169.243 38.5272 167.545 39.032C166.102 39.4608 165.992 40.2914 166.733 41.4525C168.65 44.4537 171.402 45.9932 175.297 46.1888C176.57 46.0041 178.243 45.9098 179.707 45.1007C181.516 44.1005 183.061 42.8604 183.308 40.5543C183.687 37.0174 182.505 35.0241 178.788 33.3626Z" fill="#42474B"/>
<path d="M201.925 23.949C200.758 23.9801 200.743 24.8193 200.757 25.7083C200.788 27.7369 200.717 29.7681 200.79 31.7947C200.832 32.9705 200.368 33.3453 199.238 33.3286C196.064 33.2815 192.888 33.2741 189.715 33.3287C188.508 33.3495 188.201 32.829 188.233 31.7296C188.293 29.6388 188.243 27.545 188.26 25.4527C188.266 24.7015 188.211 23.9262 187.257 23.9642C186.409 23.9979 186.439 24.7538 186.441 25.4129C186.451 28.5199 186.445 31.627 186.445 34.7341C186.446 37.7777 186.424 40.8216 186.462 43.8647C186.47 44.5914 186.035 45.7459 187.395 45.7009C188.541 45.663 188.244 44.6489 188.249 43.9327C188.264 41.6501 188.288 39.3665 188.237 37.0849C188.212 35.9943 188.516 35.4584 189.726 35.4796C192.9 35.5352 196.075 35.5315 199.249 35.4817C200.398 35.4637 200.819 35.8708 200.788 37.029C200.722 39.4368 200.784 41.8477 200.756 44.257C200.746 45.1465 200.954 45.7738 201.997 45.734C203.054 45.6938 202.934 44.9196 202.934 44.2193C202.932 38.0053 202.935 31.7912 202.93 25.5771C202.929 24.8378 203.122 23.9172 201.925 23.949Z" fill="#42474B"/>
<path d="M163.62 27.4718C163.621 23.9618 163.624 24.0224 160.076 24.043C158.693 24.051 158.362 24.5848 158.393 25.8565C158.467 28.831 158.417 31.8087 158.418 34.7851C158.419 37.3181 158.405 39.8514 158.423 42.3843C158.449 46.0593 157.839 45.5593 161.782 45.7184C163.374 45.7826 163.671 45.2527 163.651 43.8099C163.575 38.3648 163.618 32.918 163.62 27.4718Z" fill="#42474B"/>
<path d="M224.724 24.8682C224.754 24.3172 224.356 23.9119 223.741 23.9388C223.076 23.9679 222.688 24.2994 222.725 25.027C222.75 25.5325 222.742 26.0407 222.729 26.5472C222.623 30.723 223.008 34.911 222.503 39.0745C222.193 41.6331 220.765 43.5901 218.241 44.0188C214.859 44.593 212.427 44.4817 210.509 41.8458C209.352 40.2551 209.346 38.3846 209.295 36.5845C209.189 32.8496 209.257 29.1095 209.269 25.3716C209.272 24.5844 209.095 23.9261 208.166 23.9525C207.287 23.9776 207.281 24.6654 207.284 25.3368C207.297 27.6175 207.289 29.8983 207.289 32.1791C207.292 32.1791 207.295 32.1791 207.299 32.1791C207.299 34.0797 207.276 35.9807 207.303 37.8809C207.37 42.6398 210.288 45.7175 214.682 46.1947C218.759 46.6376 223.361 45.0002 224.227 40.4006C225.194 35.2686 224.441 30.0443 224.724 24.8682Z" fill="#42474B"/>
<path d="M88.8768 23.8104C86.4032 23.8845 83.9258 23.831 81.45 23.8314C79.0377 23.8318 76.6208 23.9209 74.2145 23.8015C72.5201 23.7175 72.0133 24.3282 72.0676 25.9893C72.1726 29.1866 72.0866 29.1894 75.2592 29.1894C75.7671 29.1894 76.279 29.2307 76.7819 29.1815C78.2164 29.041 78.6539 29.6956 78.6267 31.0801C78.5543 34.7561 78.57 38.4348 78.6062 42.1118C78.6475 46.3123 77.8983 45.7319 82.3455 45.8349C83.6457 45.8649 84.142 45.484 84.1134 44.113C84.0326 40.247 84.0849 36.3783 84.0851 32.5106C84.0853 29.1859 84.0855 29.1886 87.388 29.1882C91.1529 29.1878 90.8045 29.6382 90.8972 25.7375C90.9345 24.1669 90.3035 23.7676 88.8768 23.8104ZM83.4303 43.5694C83.4504 38.7896 83.436 34.0095 83.4316 29.2302C83.4817 29.1336 83.5368 29.0501 83.5962 28.9778C83.5369 29.0499 83.4819 29.1333 83.432 29.2296C83.436 34.0095 83.4504 38.7896 83.4303 43.5694Z" fill="#42474B"/>
<path d="M131.106 24.6681C131.064 24.0847 130.703 24.0976 130.279 24.2267C129.652 24.172 129.018 24.1561 128.398 24.0554C126.647 23.7711 126.07 24.4468 126.171 26.229C126.329 29.0058 126.231 31.7973 126.232 34.5826C126.232 34.9504 126.291 35.398 125.853 35.5618C125.381 35.7384 125.209 35.2823 125.002 35.005C123.676 33.2352 122.368 31.4526 121.055 29.6741C120.844 28.8235 120.244 28.2698 119.589 27.758V27.758C119.405 27.5186 119.222 27.2792 119.038 27.0398C118.996 26.4295 118.619 26.0515 118.138 25.7453C118.126 25.6357 118.072 25.5527 117.977 25.4967C117.911 24.8566 117.611 24.4192 116.939 24.3057C116.939 24.3061 116.939 24.3063 116.939 24.3067C115.41 23.5406 113.885 23.4915 112.365 24.3314L112.361 24.335C111.44 24.736 111.873 25.5531 111.868 26.168C111.831 31.4294 111.811 36.6914 111.859 41.9526C111.9 46.3731 110.956 45.7463 116.01 45.8315C117.175 45.8511 117.568 45.366 117.543 44.2345C117.484 41.4463 117.494 38.6562 117.509 35.8671C117.513 35.2276 117.162 34.4174 118.126 34.0921L118.194 34.1605C118.258 34.5459 118.338 34.9197 118.786 35.0503C118.804 35.1689 118.866 35.2581 118.97 35.3179C118.913 35.7908 119.255 35.9554 119.594 36.1212C119.628 35.773 119.521 35.5341 119.27 35.4072C119.521 35.5341 119.628 35.773 119.594 36.1212C119.748 36.363 119.901 36.6047 120.054 36.8465C120.379 36.8999 120.613 37.0186 120.779 37.1865C120.613 37.0186 120.379 36.8999 120.054 36.8465C120.211 37.4987 120.506 38.0525 121.143 38.3601C122.197 39.8467 123.187 41.385 124.329 42.8009C125.05 43.6955 125.368 44.9986 126.686 45.3503C126.686 45.3503 126.723 45.3812 126.723 45.3809C127.948 46.0317 129.265 45.6105 130.535 45.6635C131.311 45.6958 131.378 45.0909 131.108 44.4661C131.108 38.143 131.107 31.8199 131.107 25.4968C131.315 25.2202 131.317 24.944 131.106 24.6681ZM114.881 29.1751C114.802 29.141 114.71 29.0746 114.636 29.056C114.71 29.0746 114.802 29.141 114.881 29.1747C114.881 29.1748 114.881 29.175 114.881 29.1751ZM129.885 36.8861V36.8862C129.672 36.7747 129.474 36.6456 129.291 36.5019C129.474 36.6456 129.672 36.7746 129.885 36.8861ZM130.245 42.9841C129.436 43.0235 128.964 42.727 128.678 42.2911C128.964 42.727 129.436 43.0234 130.245 42.984C130.292 43.2667 130.24 43.6071 130.286 43.8903C130.24 43.6071 130.292 43.2668 130.245 42.9841Z" fill="#42474B"/>
<path d="M243.082 35.7426C242.068 35.0548 241.258 33.9428 239.804 34.1685C239.784 33.9311 239.764 33.6935 239.743 33.456C239.329 33.4571 238.915 33.4583 238.501 33.4594C238.915 33.4583 239.329 33.4571 239.743 33.456C241.402 33.2506 241.894 31.5873 243.082 30.7939C243.082 29.7788 243.082 28.7637 243.082 27.7486C242.778 27.3749 242.473 27.0011 242.169 26.6274C242.201 26.1795 241.983 25.9595 241.543 25.9408V25.9408C241.397 25.7861 241.251 25.6314 241.105 25.4767C240.788 24.6142 239.946 24.5823 239.256 24.3347C237.406 23.6717 235.475 23.9143 233.587 23.9809C232.189 24.0303 230.713 23.4381 229.381 24.3267C230.361 24.385 231.349 24.3766 232.337 24.3584C231.349 24.3766 230.361 24.3851 229.381 24.3268C229.339 24.4427 229.298 24.5587 229.257 24.6747C229.013 27.7225 229.01 30.7701 229.26 33.8178C229.544 33.8288 229.817 33.8136 230.016 33.6362C229.817 33.8136 229.544 33.8288 229.26 33.8178C229.094 34.0857 229.093 34.3537 229.259 34.6219C229.043 38.1728 228.951 41.7231 229.309 45.2712C229.383 45.668 229.681 45.7362 230.011 45.7348C232.923 45.7224 235.839 45.7926 238.745 45.6516C240.034 45.589 241.38 45.2667 242.256 44.0914C242.531 43.973 242.807 43.8548 243.082 43.7365C243.082 43.5038 243.082 43.271 243.082 43.0382C244.154 41.8815 245.625 39.4839 243.082 35.7426ZM230.903 26.2759C231.446 25.6881 232.159 25.803 232.85 25.7884C234.235 25.7589 235.62 25.7055 237.005 25.662C240.866 26.5713 241.944 28.2174 240.732 31.3559C240.732 31.3562 240.732 31.3564 240.732 31.3567C239.941 31.5611 239.388 32.08 238.924 32.7176L238.902 32.7286C238.538 32.8108 238.178 32.9352 237.81 32.9682C235.488 33.1763 233.148 33.7266 230.887 32.6447C231.18 30.5225 231.156 28.3996 230.903 26.276C230.53 26.2766 230.297 26.1444 230.222 25.8637C230.297 26.1444 230.53 26.2765 230.903 26.2759ZM229.907 24.9085C230.064 25.0522 230.161 25.261 230.201 25.5327C230.201 25.5327 230.201 25.5328 230.2 25.5329C230.161 25.2611 230.064 25.0522 229.907 24.9085ZM230.113 45.2456C230.113 45.2456 230.113 45.2456 230.113 45.2455C230.938 45.2481 231.766 45.2252 232.592 45.218C231.766 45.2252 230.938 45.2482 230.113 45.2456ZM237.377 44.0702C235.351 44.1503 233.32 44.0988 231.292 44.1056C230.943 41.3535 231.232 38.5889 231.128 35.8323C231.095 34.973 231.573 34.7755 232.31 34.7947C234.632 34.8554 236.955 34.8971 239.277 34.9462C240.2 35.4003 241.007 36.0023 241.708 36.7358C241.861 37.0006 242.906 38.8996 242.499 40.5373C242.49 40.5637 242.483 40.5901 242.475 40.6136C241.688 43.1173 239.76 43.976 237.377 44.0702Z" fill="#42474B"/>
</svg>
