<svg width="261" height="45" viewBox="0 0 261 45" fill="none" xmlns="http://www.w3.org/2000/svg">
<path d="M180.39 20.2167C185.833 22.8522 186.808 29.2831 182.311 32.6186C180.671 33.8352 178.747 34.5887 176.668 34.613C171.53 34.6731 166.39 34.6391 161.251 34.6793C160.369 34.6862 160.035 34.4393 160.039 33.4965C160.071 25.1322 160.066 16.7676 160.04 8.40322C160.037 7.47705 160.442 7.12047 161.281 7.1472C166.727 7.32048 172.189 6.73385 177.621 7.50375C180.747 7.94678 183.102 9.36255 183.958 12.6035C184.681 15.3424 183.587 17.6806 180.667 19.7675C180.575 19.833 180.537 19.9727 180.39 20.2167ZM171.039 30.4496C171.039 30.4327 171.039 30.4159 171.039 30.3991C172.496 30.3991 173.968 30.5246 175.408 30.3667C177.142 30.1767 178.509 29.3205 179.041 27.507C179.5 25.9428 179.09 24.6035 177.858 23.5868C176.851 22.7566 175.592 22.4676 174.311 22.443C171.966 22.3979 169.619 22.4659 167.275 22.3996C166.089 22.366 165.714 22.8568 165.753 23.9758C165.811 25.6201 165.837 27.2717 165.747 28.9129C165.674 30.2195 166.24 30.5492 167.426 30.4677C168.625 30.3854 169.834 30.4496 171.039 30.4496ZM170.506 18.2022C171.33 18.2022 172.154 18.2311 172.976 18.194C173.794 18.1571 174.614 18.0895 175.424 17.9726C177.173 17.7203 178.133 16.6962 178.195 14.9226C178.256 13.1857 177.312 12.1332 175.36 11.7149C172.852 11.1773 170.303 11.6101 167.784 11.418C166.207 11.2978 165.711 11.8375 165.732 13.4339C165.795 18.2009 165.731 18.2018 170.506 18.2022Z" fill="#2675BE"/>
<path d="M194.933 29.9156C196.284 25.3225 197.696 20.7457 198.943 16.1244C199.242 15.0146 199.681 14.7466 200.718 14.791C202.428 14.8641 204.144 14.7669 205.855 14.8274C206.937 14.8656 207.421 14.6131 207.444 13.3726C207.526 9.04989 207.579 9.06913 211.887 8.82372C212.578 8.78435 212.822 9.00676 212.822 9.63605C212.822 10.0162 212.822 10.3964 212.822 10.7765C212.827 14.5521 212.824 14.6 216.502 14.7915C218.538 14.8975 217.386 16.3502 217.589 17.1848C217.782 17.9843 217.816 18.7579 216.456 18.7733C212.821 18.8145 212.821 18.8841 212.822 22.4722C212.822 24.3097 212.804 26.1474 212.828 27.9846C212.857 30.2523 213.383 30.8907 215.604 30.8491C216.874 30.8253 217.187 31.2994 217.031 32.3895C216.898 33.3197 217.609 34.6104 215.731 34.7057C209.562 35.0187 206.987 34.6009 207.392 27.3326C207.519 25.0586 207.411 22.7717 207.413 20.4907C207.414 19.681 207.612 18.6459 206.34 18.7578C205.226 18.8558 203.767 17.9881 203.147 19.8315C201.861 23.6528 200.515 27.4543 199.146 31.2467C197.97 34.5043 196.803 37.7789 194.905 40.7077C193.23 43.2913 188.639 44.7334 185.744 43.7523C184.423 43.3048 185.131 42.288 184.976 41.5221C184.623 39.7687 185.22 39.0781 187.147 39.2062C189.385 39.355 190.988 37.9972 191.7 35.8797C191.83 35.4916 191.715 35.1645 191.598 34.7913C189.636 28.5373 187.715 22.2704 185.733 16.0227C185.427 15.0583 185.637 14.8426 186.61 14.7898C190.413 14.5834 190.427 14.5475 191.413 18.1815C192.468 22.0735 193.488 25.9749 194.524 29.8722C194.66 29.8867 194.797 29.9012 194.933 29.9156Z" fill="#2675BE"/>
<path d="M23.9928 33.9132C23.995 32.8002 23.9971 31.6873 23.9992 30.5743C29.5432 27.4971 32.5518 22.8011 32.4923 16.4591C32.4346 10.307 29.6029 5.65132 24.0844 2.73719C24.1032 2.63405 24.1076 2.5303 24.0974 2.42595C27.4457 1.11511 30.8158 0.318021 34.4713 1.15739C40.7847 2.60702 45.5286 7.51609 46.747 14.1037C47.8495 20.0647 44.8919 26.5905 39.5692 29.9271C38.5326 30.5768 37.343 30.8364 36.1816 31.111C32.1204 32.0714 28.045 32.9718 23.975 33.895C23.975 33.8949 23.9928 33.9132 23.9928 33.9132Z" fill="#FCCA38"/>
<path d="M72.6632 20.0178C76.8558 22.5027 77.9921 24.4656 77.3477 28.1032C76.7033 31.7407 73.7012 34.4046 69.5262 34.572C64.6536 34.7673 59.768 34.6311 54.8885 34.6811C53.9211 34.691 53.7622 34.2661 53.7648 33.4187C53.7904 25.063 53.7992 16.7071 53.7586 8.35147C53.7531 7.21851 54.195 6.96561 55.2172 6.97588C59.5266 7.0192 63.8367 6.98846 68.1463 7.01579C69.6816 7.02552 71.1731 7.40122 72.5565 8.02357C74.5638 8.92662 75.926 10.388 76.1933 12.711C76.4888 15.2794 75.979 17.4896 73.6829 18.9989C73.2654 19.2733 72.7703 19.4449 72.6632 20.0178ZM63.6388 31.6539C63.6388 31.6241 63.6388 31.5944 63.6388 31.5646C65.2198 31.5646 66.8037 31.6227 68.3812 31.5477C69.8748 31.4767 71.2073 30.8778 72.2295 29.7806C73.5025 28.4144 73.8328 26.7691 73.1529 25.036C72.2965 22.853 70.462 21.8499 68.2618 21.7322C65.1694 21.5669 62.064 21.6592 58.9651 21.5963C58.0672 21.5781 57.7382 21.9014 57.752 22.8003C57.791 25.3275 57.8028 27.8564 57.7477 30.383C57.7255 31.4 58.1185 31.7054 59.0837 31.6691C60.6001 31.612 62.1202 31.6539 63.6388 31.6539ZM63.8491 10.14C63.2703 10.14 63.0161 10.1284 62.7633 10.1419C61.1907 10.2259 59.1626 9.48313 58.1614 10.4223C57.0564 11.4588 57.8167 13.5339 57.786 15.1517C57.7223 18.4976 57.7683 18.5652 61.2172 18.4772C63.9873 18.4066 66.8003 18.9305 69.5212 17.9943C71.3957 17.3493 72.4155 16.025 72.3122 14.1914C72.2059 12.3055 71.2896 11.0265 69.3801 10.4884C67.4424 9.94238 65.4742 10.269 63.8491 10.14Z" fill="#2675BE"/>
<path d="M117.937 31.899C113.317 36.8695 106.286 35.184 103.609 32.214C99.923 28.1245 100.281 21.1916 104.32 17.0687C107.164 14.1651 114.245 13.1423 117.836 17.3751C117.823 15.3537 118.735 14.5976 120.588 14.9253C121.199 15.0333 121.526 15.1618 121.516 15.8071C121.411 22.5806 121.925 29.3785 121.268 36.1217C120.818 40.7407 118.539 42.8674 113.87 43.7561C109.661 44.5575 105.646 44.1858 102.617 40.583C102.455 40.39 102.234 40.2149 102.152 39.9909C101.835 39.1209 100.942 38.1579 101.804 37.3311C102.505 36.6578 104.961 37.4183 105.444 38.2581C107.151 41.228 109.977 41.1291 112.795 40.8597C115.346 40.6158 116.906 39.1194 117.539 36.6409C117.926 35.1258 117.961 33.5973 117.937 31.899ZM104.76 24.879C104.745 29.0306 107.532 32.0071 111.44 32.0127C115.587 32.0186 118.109 29.3013 118.148 24.7839C118.186 20.3711 115.676 17.5502 111.689 17.5243C107.659 17.4982 104.776 20.5593 104.76 24.879Z" fill="#2675BE"/>
<path d="M231.324 25.9397C229.231 25.9392 227.138 25.9251 225.046 25.9433C223.087 25.9604 222.944 26.213 223.779 28.0398C225.301 31.3691 230.346 32.3082 232.972 29.7509C233.675 29.0655 237.711 28.439 238.499 28.918C239.149 29.3123 238.725 29.7978 238.525 30.2111C237.029 33.3126 234.291 34.7065 231.101 35.0911C226.808 35.6086 222.616 35.1718 219.826 31.309C217.145 27.5991 217.025 23.4572 219.048 19.4614C220.862 15.877 224.163 14.3724 228.112 14.2304C235.285 13.9725 238.958 18.0212 239.423 24.0105C239.533 25.4284 239.236 26.0996 237.6 25.9778C235.519 25.8227 233.417 25.9402 231.324 25.9397ZM228.427 22.5405C229.948 22.5405 231.469 22.5474 232.99 22.5379C233.862 22.5324 234.05 22.2051 233.71 21.3457C232.888 19.2627 231.091 17.998 228.728 17.9939C226.264 17.9897 224.43 19.2388 223.535 21.3626C223.164 22.2415 223.381 22.5338 224.244 22.5392C225.638 22.548 227.033 22.5416 228.427 22.5405Z" fill="#2675BE"/>
<path d="M250.792 35.2391C247.64 35.2666 244.936 34.7318 242.602 33.0134C241.351 32.0913 240.079 30.6952 240.405 29.2864C240.67 28.1371 242.491 28.9601 243.607 28.7937C244.708 28.6294 245.553 28.8931 246.37 29.8886C247.848 31.6891 251.369 32.1295 253.402 31.0575C254.166 30.6547 254.875 30.1465 254.82 29.2161C254.763 28.2448 254.128 27.6067 253.16 27.3916C251.493 27.021 249.826 26.6401 248.146 26.3379C246.769 26.0904 245.425 25.7961 244.149 25.1888C242.011 24.1706 240.793 22.5664 240.888 20.1513C240.979 17.8237 242.651 15.7027 244.977 14.9597C248.337 13.8864 251.746 13.9025 255.076 14.9788C256.987 15.5968 258.437 16.9245 259.254 18.8575C259.634 19.7589 259.672 20.2947 258.448 20.2443C257.308 20.1974 256.165 20.2406 255.024 20.2321C254.587 20.2288 254.21 20.2154 253.895 19.7451C252.456 17.5915 250.279 17.7073 248.107 18.0536C247.19 18.1998 246.4 18.8017 246.328 19.7912C246.25 20.8707 247.145 21.2812 248.023 21.5342C250.516 22.2528 253.139 22.3255 255.621 23.1801C258.802 24.2751 260.396 26.164 260.244 29.0576C260.092 31.9448 258.125 34.036 254.994 34.69C253.505 35.001 252.03 35.3827 250.792 35.2391Z" fill="#2675BE"/>
<path d="M24.0975 2.42625C24.1077 2.5306 24.1034 2.63434 24.0839 2.73714C22.2173 3.14138 21.0319 4.54483 19.6921 5.7215C12.4136 3.80163 5.84563 9.75732 5.4413 15.8565C4.9568 23.1654 12.6578 29.6207 19.5069 27.2977C19.6151 27.3163 19.7215 27.3423 19.8261 27.3758C20.6201 28.8157 22.2284 29.3462 23.2988 30.4773C20.0634 31.7837 16.5791 32.1413 13.2525 33.1015C12.7089 33.2584 12.1197 33.27 11.5882 33.4539C10.0021 34.0029 9.1617 33.6981 9.51574 31.8154C9.70202 30.8247 9.03463 30.4035 8.31299 29.9113C2.14836 25.7066 -0.465978 19.0662 1.64027 11.8967C4.26363 2.96712 14.4605 -1.14 21.5814 1.6256C22.4002 1.9436 23.2579 2.16178 24.0975 2.42625Z" fill="#2675BE"/>
<path d="M128.726 17.6559C131.215 14.7877 134.281 14.1194 137.726 14.6755C141.095 15.2193 143.317 17.5414 143.467 20.981C143.652 25.2139 143.566 29.4585 143.614 33.6979C143.633 35.3813 142.37 34.5613 141.684 34.619C140.952 34.6806 139.818 35.1556 139.839 33.565C139.887 30.0218 139.862 26.477 139.816 22.9336C139.804 22.0043 139.839 21.0645 139.351 20.1685C138.418 18.4593 137.097 17.5475 135.099 17.5056C132.687 17.4551 130.975 18.5382 129.8 20.5321C129.053 21.8007 128.693 23.1964 128.714 24.6999C128.752 27.5474 128.626 30.4006 128.766 33.2417C128.84 34.7391 128.081 34.7443 127.051 34.6645C126.139 34.5938 125.027 35.1065 125.041 33.3328C125.112 24.473 125.111 15.612 125.043 6.75219C125.029 5.00992 126.105 5.45801 127.045 5.38204C128.14 5.29361 128.801 5.43605 128.76 6.85693C128.657 10.454 128.726 14.0559 128.726 17.6559Z" fill="#2675BE"/>
<path d="M19.692 5.72167C21.0318 4.545 22.2172 3.14154 24.0838 2.7373C29.603 5.65179 32.4347 10.3074 32.4924 16.4596C32.5518 22.8016 29.5432 27.4976 23.9992 30.5748C23.7652 30.5424 23.5312 30.5099 23.298 30.4775C22.2283 29.3463 20.62 28.8158 19.8259 27.376C20.3823 27.0868 20.9313 26.7823 21.4963 26.5108C25.7472 24.468 28.2318 20.1677 27.7882 15.607C27.3311 10.9081 24.2397 7.23814 19.6971 6.00176C19.6915 5.90848 19.6898 5.8151 19.692 5.72167Z" fill="#161152"/>
<path d="M148.723 24.4506C148.723 23.0568 148.61 21.6514 148.751 20.272C148.94 18.4196 148.427 17.4639 146.395 17.8566C145.094 18.1082 144.805 17.4759 144.787 16.2649C144.767 14.8863 145.525 14.8132 146.481 14.9677C148.342 15.2683 149.041 14.5163 148.734 12.6919C148.661 12.2606 148.722 11.8068 148.723 11.3633C148.725 9.71236 150.46 8.37935 151.982 8.85245C152.363 8.97056 152.405 9.27605 152.417 9.59442C152.43 9.97407 152.423 10.3545 152.424 10.7345C152.434 14.7377 152.432 14.7952 156.328 14.9218C157.557 14.9618 157.614 15.5476 157.623 16.4708C157.631 17.3722 157.453 17.8282 156.383 17.8876C152.421 18.1078 152.424 18.1507 152.423 22.0836C152.423 24.301 152.402 26.5187 152.428 28.7359C152.457 31.2573 153.206 32.0342 155.713 32.0081C156.624 31.9987 157.142 32.0617 157.091 33.177C157.049 34.0985 157.025 34.8255 155.814 34.738C155.376 34.7064 154.93 34.8237 154.487 34.8352C150.367 34.9427 148.964 33.6892 148.749 29.5816C148.659 27.8757 148.734 26.1612 148.734 24.4506C148.73 24.4506 148.727 24.4506 148.723 24.4506Z" fill="#2675BE"/>
<path d="M79.8349 24.7587C79.8349 21.9769 79.9017 19.1927 79.8073 16.4141C79.7587 14.9815 80.5071 14.9238 81.5813 14.9358C82.6505 14.9479 83.6371 14.8188 83.4919 16.4261C83.428 17.1344 83.0817 18.2742 83.6998 18.5266C84.6474 18.9136 84.5847 17.588 85.0583 17.089C86.5821 15.4836 88.4636 14.7471 90.6019 14.5258C91.2543 14.4583 91.8571 14.6609 91.6724 15.4229C91.4644 16.2809 92.4663 17.8117 90.8905 17.9249C85.3655 18.3214 83.3261 22.8313 83.4906 27.7643C83.5538 29.659 83.4164 31.5628 83.5312 33.4527C83.6225 34.9562 82.6665 34.7143 81.8232 34.65C81.0075 34.5878 79.8098 35.1783 79.8467 33.4837C79.91 30.5766 79.8642 27.6671 79.8642 24.7587C79.8545 24.7587 79.8447 24.7587 79.8349 24.7587Z" fill="#2675BE"/>
<path d="M98.4959 24.744C98.4958 27.593 98.3942 30.447 98.5356 33.289C98.6148 34.8786 97.7046 34.6837 96.7486 34.6631C95.7919 34.6425 94.7522 35.0151 94.783 33.28C94.8829 27.647 94.8764 22.0103 94.7873 16.3771C94.7606 14.6909 95.755 14.9819 96.7542 14.9461C97.7967 14.9088 98.5873 14.9075 98.528 16.3882C98.4166 19.1694 98.496 21.9583 98.4959 24.744Z" fill="#2675BE"/>
<path d="M23.9752 33.8945C23.966 35.0751 23.9568 36.2557 23.9474 37.4363C23.9472 37.4364 23.9661 37.4078 23.9661 37.4078C20.11 38.3384 16.2528 39.2644 12.3985 40.2023C11.2218 40.4886 9.99884 40.6524 9.60604 39.178C9.2005 37.6559 10.4053 37.3173 11.56 37.0307C15.7066 36.0011 19.8488 34.9532 23.9929 33.9125C23.9931 33.9128 23.9752 33.8945 23.9752 33.8945Z" fill="#2675BE"/>
<path d="M23.9661 37.4081C23.9661 37.4081 23.9473 37.4367 23.9475 37.4366C27.5703 36.5804 31.1919 35.7195 34.8169 34.8734C35.3681 34.7447 35.9342 34.6767 36.4956 34.5956C37.4183 34.4622 38.137 34.6827 38.3299 35.7266C38.5235 36.7739 38.0683 37.4723 37.0673 37.7202C33.4557 38.6146 29.8487 39.5376 26.2098 40.3071C24.4547 40.6783 24.0213 40.0099 23.9661 37.4081Z" fill="#FCCA38"/>
<path d="M96.6118 9.83613C95.3097 9.65498 94.3701 9.03458 94.4032 7.55014C94.4327 6.22531 95.1855 5.38599 96.5122 5.32833C97.9393 5.26632 98.817 6.12953 98.8775 7.5017C98.939 8.89923 98.0717 9.67815 96.6118 9.83613Z" fill="#2675BE"/>
<path d="M19.5072 27.2977C16.4005 23.5765 15.0098 19.3331 15.5882 14.486C15.9821 11.1847 17.2725 8.32002 19.6979 6.00195C24.2401 7.23798 27.3315 10.908 27.7886 15.6069C28.2322 20.1675 25.7476 24.4678 21.4967 26.5106C20.9317 26.7821 20.3827 27.0866 19.8263 27.3758C19.7218 27.3424 19.6154 27.3163 19.5072 27.2977Z" fill="#FCCA38"/>
</svg>
