<svg width="236" height="61" viewBox="0 0 236 61" fill="none" xmlns="http://www.w3.org/2000/svg">
<path d="M57.1136 10.7352C57.1085 5.96703 54.6961 3.60247 49.9054 3.60335C48.2716 3.60367 46.6376 3.60035 45.0039 3.61987C44.0258 3.63157 43.1621 3.67673 43.0921 2.2588C43.055 1.50783 42.4419 0.938939 41.5226 0.916749C40.584 0.894098 39.963 1.50751 39.9237 2.22073C39.8386 3.7637 38.917 3.61679 37.8623 3.61232C31.8292 3.58668 25.7957 3.57264 19.763 3.6295C18.6147 3.64036 17.8441 3.52375 17.6021 2.20374C17.4393 1.31576 16.7688 0.805935 15.7964 0.936177C14.9366 1.05141 14.3905 1.57182 14.4102 2.44249C14.4343 3.50952 13.9037 3.65288 12.9958 3.6225C11.0504 3.55745 9.10088 3.56274 7.15411 3.59796C2.885 3.67516 0.561272 6.03941 0.548151 10.3096C0.533511 15.0805 0.545159 19.8514 0.545435 24.6223C0.54608 34.3523 0.580976 44.0826 0.526698 53.8124C0.5104 56.7438 2.80388 60.1754 6.54383 60.131C13.8135 60.0448 21.085 60.1058 28.3557 60.1058C28.3556 60.1525 28.3555 60.1994 28.3555 60.2462C35.7694 60.2462 43.1834 60.261 50.5973 60.2399C54.2958 60.2294 56.9585 57.6172 57.1062 53.861C57.1728 52.1687 57.12 50.4717 57.1199 48.7767C57.1194 36.0962 57.127 23.4157 57.1136 10.7352ZM53.5819 52.8894C53.5806 56.0328 52.8348 56.7858 49.7439 56.786C35.6765 56.7872 21.6091 56.7879 7.54166 56.7853C4.65526 56.7848 4.00299 56.1476 3.99811 53.2502C3.98605 46.0997 3.99415 38.9493 3.99415 31.7988C3.98918 24.7111 3.98061 17.6234 3.99318 10.5357C3.99852 7.53799 4.65945 6.89898 7.66187 6.88563C9.42029 6.87785 11.1795 6.90727 12.9369 6.8634C13.9862 6.83715 14.4314 7.27111 14.3806 8.31442C14.341 9.1276 14.3924 9.94477 14.3815 10.7599C14.3663 11.8887 15.0315 12.6536 16.0178 12.6689C17.0237 12.6846 17.6808 11.8908 17.7475 10.7929C17.7628 10.5428 17.7599 10.2913 17.7572 10.0405C17.7199 6.52769 17.6184 6.88315 20.8942 6.87845C26.1067 6.8709 31.3192 6.86321 36.5317 6.88061C40.2354 6.893 39.7428 6.46263 39.7847 10.0406C39.7925 10.7066 39.5912 11.4366 40.2704 11.9504C40.7064 12.2802 41.0232 12.8958 41.6867 12.6927C42.3694 12.4837 42.9167 12.0627 43.0692 11.2949C43.1057 11.1111 43.1421 10.925 43.1526 10.7384C43.3702 6.88549 43.3695 6.88545 47.2224 6.87942C53.5883 6.86947 53.5907 6.86947 53.5903 13.1858C53.5894 26.4203 53.5874 39.6549 53.5819 52.8894Z" fill="#72747B"/>
<path d="M201.187 16.3994C201.187 15.4858 201.16 14.4932 199.904 14.5355C198.71 14.5757 198.864 15.5794 198.861 16.3794C198.851 19.5767 198.857 22.774 198.857 26.2505C192.704 21.7196 187.13 21.6464 182.635 28.1453C180.156 31.7298 180.896 37.5027 183.949 40.525C185.529 42.0893 187.406 43.1955 189.672 43.5484C193.151 44.0902 196.031 42.8358 198.66 40.3634C198.761 40.8712 198.837 41.0941 198.845 41.3196C198.879 42.2385 198.626 43.5148 199.929 43.5359C201.312 43.5585 201.197 42.2605 201.197 41.2546C201.196 32.9696 201.193 24.6845 201.187 16.3994ZM190.925 41.3811C186.752 41.3218 183.282 37.5458 183.36 33.149C183.434 29.0537 187.215 25.2998 191.237 25.331C195.587 25.3647 198.935 29.0265 198.852 33.6606C198.77 38.2314 195.47 41.4456 190.925 41.3811Z" fill="#72747B"/>
<path d="M137.379 24.3967C133.931 26.2562 131.761 30.5808 132.203 34.7126C132.613 38.5376 135.717 42.3489 139.414 43.2941C143.569 44.3562 147.076 43.2084 149.853 39.8798C150.505 39.0973 151.183 38.3595 150.094 37.5285C148.973 36.6736 148.731 37.9457 148.31 38.4791C146.193 41.1588 143.364 41.9561 140.224 41.1978C137.253 40.4803 135.493 38.2972 134.657 35.3724C134.345 34.2817 134.74 33.8816 135.839 33.8974C138.226 33.932 140.614 33.9081 143.002 33.9062C145.39 33.9043 147.779 33.9173 150.166 33.8988C151.383 33.8894 152.231 33.5697 152.012 32.0179C150.992 24.7822 143.721 20.9768 137.379 24.3967ZM148.503 31.8125C146.433 31.7595 144.359 31.7984 142.287 31.7984C140.278 31.7939 138.268 31.8124 136.259 31.7882C134.535 31.7674 134.362 31.4725 135.179 29.9204C136.688 27.0531 138.9 25.2189 142.315 25.2955C145.789 25.3734 147.985 27.3011 149.402 30.3022C149.845 31.2378 149.819 31.8462 148.503 31.8125Z" fill="#72747B"/>
<path d="M116.703 25.0431C116.697 24.2414 116.769 23.2672 115.623 23.1893C114.533 23.1152 114.571 24.0307 114.483 24.7746C114.434 25.1891 114.596 25.7121 114.057 25.9082C113.545 26.0946 113.295 25.647 112.964 25.3701C109.158 22.1908 104.038 22.3483 100.531 25.7396C96.6374 29.5048 96.2042 36.0462 99.5809 40.0877C103.18 44.3958 108.173 44.8509 113.104 41.2483C114.195 40.4513 114.497 40.6974 114.496 41.9262C114.495 42.6955 114.548 43.5922 115.57 43.5933C116.721 43.5945 116.699 42.6004 116.705 41.7917C116.729 39.0318 116.714 36.2716 116.712 33.5115C116.71 30.6887 116.723 27.8658 116.703 25.0431ZM107.05 41.5671C102.886 41.6291 99.4632 37.9707 99.4578 33.4527C99.4524 28.8538 102.686 25.33 106.918 25.2505C111.518 25.1642 114.264 29.3366 114.524 33.2514C114.808 37.5375 111.076 41.5071 107.05 41.5671Z" fill="#72747B"/>
<path d="M235.014 34.0802C235.017 34.0802 235.02 34.0802 235.023 34.0802C235.023 30.8815 235.024 27.6828 235.022 24.4841C235.021 23.8173 234.951 23.1947 234.053 23.1983C233.256 23.2014 232.948 23.6915 232.894 24.3967C232.86 24.8335 232.875 25.2743 232.874 25.7134C232.868 28.9128 232.914 32.1134 232.843 35.3114C232.765 38.7855 230.098 41.3857 226.764 41.3631C223.176 41.3389 220.654 38.8613 220.599 35.2137C220.55 31.9523 220.613 28.6891 220.562 25.4277C220.549 24.5911 221.042 23.2682 219.57 23.2251C218.114 23.1825 218.466 24.4784 218.457 25.3475C218.427 28.6094 218.462 31.8718 218.445 35.134C218.428 38.3682 219.832 40.8394 222.601 42.4146C225.484 44.0551 228.438 44.1138 231.317 42.2496C231.709 41.9955 232.102 41.3509 232.596 41.6993C233.106 42.0587 232.838 42.7292 232.733 43.2773C231.812 48.0797 226.464 50.9002 222.555 48.81C221.893 48.4562 221.21 48.3324 220.794 49.1749C220.389 49.9963 220.84 50.4397 221.548 50.7885C227.216 53.5812 234.73 49.2226 234.993 42.9152C235.116 39.975 235.014 37.0255 235.014 34.0802Z" fill="#72747B"/>
<path d="M171.037 24.6345C167.876 22.5421 164.706 22.6221 161.529 24.6559C161.147 24.9009 160.498 25.8579 160.194 24.5653C160.029 23.8608 159.96 23.0809 158.997 23.2627C158.013 23.4484 158.092 24.3257 158.09 25.0773C158.084 27.8361 158.088 30.5949 158.088 33.3537C158.088 36.1125 158.082 38.8713 158.092 41.63C158.095 42.4261 157.914 43.5123 159.048 43.5442C160.294 43.5793 160.167 42.4469 160.169 41.5864C160.177 38.3888 160.105 35.1898 160.176 31.9939C160.265 28.0456 163.002 25.271 166.606 25.3391C169.973 25.4028 172.459 28.204 172.495 32.0396C172.526 35.3624 172.509 38.6857 172.498 42.0088C172.495 42.8548 172.703 43.5815 173.681 43.5748C174.568 43.5688 174.783 42.8402 174.777 42.1033C174.742 38.093 174.824 34.0746 174.583 30.0759C174.442 27.7382 172.993 25.9299 171.037 24.6345Z" fill="#72747B"/>
<path d="M90.4902 39.9772C90.2136 40.1215 89.9828 40.3564 89.7026 40.4903C87.1276 41.7206 84.4572 41.9325 81.906 40.6354C77.4609 38.3755 76.0677 33.2702 78.6119 29.1243C81.052 25.1482 86.2678 24.0725 90.3052 26.7181C90.9483 27.1395 91.702 27.7053 92.2559 26.8381C92.7502 26.0641 92.4243 25.2711 91.5325 24.8179C89.6816 23.8771 87.8483 22.8829 85.847 23.1894C80.4932 22.6453 76.0682 27.4602 75.3954 31.324C74.4043 37.0159 77.359 41.4793 82.4983 43.2C85.6704 44.262 88.8268 43.7742 91.664 41.8325C92.3024 41.3956 92.7576 40.8301 92.3217 40.1115C91.8613 39.3525 91.1256 39.6458 90.4902 39.9772Z" fill="#72747B"/>
<path d="M126.856 16.3623C126.858 15.4031 126.84 14.5124 125.589 14.5356C124.35 14.5587 124.537 15.5585 124.534 16.3414C124.52 20.5343 124.527 24.7274 124.527 28.9204C124.531 28.9204 124.536 28.9204 124.54 28.9204C124.54 32.0495 124.54 35.1787 124.54 38.3078C124.54 39.622 124.535 40.9362 124.541 42.2505C124.544 42.9452 124.777 43.5304 125.56 43.5794C126.432 43.6339 126.746 43.022 126.839 42.2702C126.877 41.9616 126.857 41.6453 126.857 41.3325C126.854 33.0091 126.841 24.6857 126.856 16.3623Z" fill="#72747B"/>
<path d="M210.444 14.5649C209.261 14.608 209.488 15.7856 209.484 16.4898C209.444 24.8897 209.464 33.2899 209.481 41.69C209.482 42.4865 209.358 43.5551 210.506 43.5444C211.603 43.5343 211.563 42.4846 211.566 41.68C211.582 37.4865 211.574 33.2929 211.575 29.0994C211.577 24.9027 211.587 20.706 211.568 16.5094C211.564 15.669 211.756 14.5172 210.444 14.5649Z" fill="#72747B"/>
<path d="M31.2913 24.0601C32.4154 24.0663 34.1906 24.3152 35.7148 25.5117C36.106 25.8188 36.7097 26.0912 37.049 25.5521C37.4275 24.9506 36.7771 24.7131 36.3772 24.4404C34.8832 23.4217 33.1997 22.9844 31.4232 22.8418C26.7771 22.4686 22.8344 24.7921 21.1831 28.8712C19.4743 33.0926 20.6172 37.5905 24.1487 40.542C27.3182 43.191 32.7904 43.4372 36.333 41.0801C36.7226 40.8208 37.4144 40.6043 37.0313 39.9874C36.7166 39.4805 36.1283 39.7364 35.667 39.9616C35.4423 40.0713 35.2364 40.2192 35.0205 40.3471C31.8047 42.2515 27.4434 41.8975 24.6465 39.5057C21.8549 37.1183 20.8873 33.1505 22.2205 29.5571C23.5261 26.0383 26.6512 23.9748 31.2913 24.0601Z" fill="#72747B"/>
</svg>
