<svg width="81" height="73" viewBox="0 0 81 73" fill="none" xmlns="http://www.w3.org/2000/svg">
<path fill-rule="evenodd" clip-rule="evenodd" d="M41.125 5.67593L35.0952 2.00104C32.3996 0.358197 29.02 0.32617 26.2937 1.91769L14.4263 8.84564C11.5932 10.4995 9.85127 13.5334 9.85127 16.8139V18.589L4.58035 22.4445C2.205 24.1821 0.801025 26.9486 0.801025 29.8916V42.4839C0.801025 45.4563 2.23306 48.2467 4.64799 49.9799L9.85127 53.7141V55.722C9.85127 58.8061 11.3922 61.6862 13.9578 63.3977L25.6945 71.2268C28.7489 73.2643 32.7606 73.1353 35.6779 70.9058L41.1224 66.7447L46.3287 70.8054C49.2718 73.1008 53.3605 73.2331 56.4459 71.1328L67.8234 63.3876C70.3474 61.6694 71.8579 58.8138 71.8579 55.7605V53.6968L76.9514 49.9664C79.3242 48.2286 80.7264 45.4637 80.7264 42.5226V29.8529C80.7264 26.9414 79.3521 24.2007 77.019 22.4591L71.8579 18.6065V16.7765C71.8579 13.5252 70.1467 10.5139 67.3535 8.84983L55.8432 1.99265C53.0836 0.348665 49.6374 0.381608 46.9098 2.07806L41.125 5.67593ZM32.1148 6.89137C31.2163 6.3437 30.0898 6.33303 29.181 6.86353L17.3135 13.7915C16.2389 14.4188 15.5782 15.5696 15.5782 16.8139V20.0422C15.5782 20.9555 15.1425 21.8141 14.4053 22.3533L7.96147 27.0668C7.06048 27.7259 6.52795 28.7753 6.52795 29.8916V42.4839C6.52795 43.6114 7.07111 44.6698 7.98713 45.3272L14.3843 49.9183C15.1338 50.4562 15.5782 51.3222 15.5782 52.2446V55.722C15.5782 56.8918 16.1626 57.9843 17.1358 58.6335L28.8725 66.4627C29.8906 67.1418 31.2279 67.0988 32.2003 66.3556L37.277 62.4757C37.9071 61.9942 38.2767 61.2464 38.2767 60.4534V47.2136H32.5594L29.0899 49.5447C29.1695 49.8209 29.2122 50.1128 29.2122 50.4147C29.2122 52.1463 27.8085 53.55 26.077 53.55C24.3454 53.55 22.9417 52.1463 22.9417 50.4147C22.9417 48.6832 24.3454 47.2795 26.077 47.2795C27.0563 47.2795 27.9308 47.7286 28.5057 48.4319L32.0207 46.0704C32.1237 46.0012 32.245 45.9643 32.3691 45.9643H38.2767V36.5399H23.1409C22.8482 37.9681 21.5843 39.0423 20.0696 39.0423C18.3381 39.0423 16.9343 37.6385 16.9343 35.907C16.9343 34.1755 18.3381 32.7718 20.0696 32.7718C21.5901 32.7718 22.8578 33.8542 23.1442 35.2905H38.2767V26.0502H32.3691C32.3508 26.0502 32.3327 26.0494 32.3147 26.0478C32.2901 26.0457 32.2658 26.0421 32.2418 26.0371C32.1632 26.0208 32.0881 25.9893 32.0207 25.944L28.4613 23.5527C27.8863 24.2255 27.0314 24.652 26.077 24.652C24.3454 24.652 22.9417 23.2483 22.9417 21.5167C22.9417 19.7852 24.3454 18.3815 26.077 18.3815C27.8085 18.3815 29.2122 19.7852 29.2122 21.5167C29.2122 21.8439 29.1621 22.1593 29.0691 22.4558L32.5594 24.8008H38.2767V12.0763C38.2767 11.1884 37.8141 10.3648 37.056 9.90276L32.1148 6.89137ZM44.0036 47.2136V60.4864C44.0036 61.2707 44.3652 62.0111 44.9835 62.4934L49.8508 66.2896C50.8318 67.0547 52.1947 67.0989 53.2232 66.3987L64.6007 58.6535C65.5581 58.0018 66.131 56.9186 66.131 55.7605V52.2447C66.131 51.3319 66.5662 50.4739 67.3025 49.9346L73.5676 45.3461C74.4676 44.687 74.9994 43.6382 74.9994 42.5226V29.8529C74.9994 28.7486 74.4782 27.709 73.5932 27.0484L67.2816 22.3369C66.5575 21.7964 66.131 20.9458 66.131 20.0422V16.7765C66.131 15.5433 65.4819 14.4011 64.4225 13.7698L52.9122 6.91264C51.9923 6.36467 50.8436 6.37565 49.9343 6.94116L45.2047 9.88278C44.4577 10.3473 44.0036 11.1646 44.0036 12.0442V24.8008H49.6697L52.6297 22.8122C52.4503 22.4173 52.3503 21.9787 52.3503 21.5167C52.3503 19.7852 53.754 18.3815 55.4856 18.3815C57.2171 18.3815 58.6208 19.7852 58.6208 21.5167C58.6208 23.2483 57.2171 24.652 55.4856 24.652C54.667 24.652 53.9217 24.3383 53.3633 23.8245L50.2085 25.944C50.1055 26.0132 49.9842 26.0502 49.8601 26.0502H44.0036V35.2905H58.4183C58.7047 33.8542 59.9725 32.7718 61.493 32.7718C63.2245 32.7718 64.6282 34.1755 64.6282 35.907C64.6282 37.6385 63.2245 39.0423 61.493 39.0423C59.9782 39.0423 58.7144 37.9681 58.4216 36.5399H44.0036V45.9643H49.8601C49.9842 45.9643 50.1055 46.0012 50.2085 46.0704L53.3118 48.1554C53.8755 47.613 54.6416 47.2795 55.4856 47.2795C57.2171 47.2795 58.6208 48.6832 58.6208 50.4147C58.6208 52.1463 57.2171 53.55 55.4856 53.55C53.754 53.55 52.3503 52.1463 52.3503 50.4147C52.3503 49.9776 52.4398 49.5614 52.6014 49.1833L49.6697 47.2136H44.0036Z" fill="url(#paint0_linear)"/>
<defs>
<linearGradient id="paint0_linear" x1="82.3333" y1="86.5416" x2="-6.31115" y2="66.2186" gradientUnits="userSpaceOnUse">
<stop stop-color="#FF9B00"/>
<stop offset="0.273177" stop-color="#DD4C52"/>
<stop offset="0.54108" stop-color="#921E8D"/>
<stop offset="0.785659" stop-color="#521182"/>
</linearGradient>
</defs>
</svg>
