<svg width="62" height="69" viewBox="0 0 62 69" fill="none" xmlns="http://www.w3.org/2000/svg">
<path d="M61.3718 47.2799C61.206 46.0822 60.9191 44.9204 60.5189 43.8269C59.487 41.007 57.8028 38.363 55.0582 35.2541C54.8257 34.9906 54.5902 34.7295 54.3858 34.5028L54.345 34.4576C54.7237 33.9597 55.1031 33.469 55.4799 32.9815C56.4828 31.6838 57.4301 30.4582 58.3284 29.1544C59.7967 27.0243 60.7715 24.7896 61.2258 22.5126C62.0338 18.4621 60.3385 15.4978 56.4524 14.1655C55.7444 13.9227 54.9739 13.7328 54.1624 13.6008C50.1425 12.9464 46.3 13.5775 43.0716 14.2814C42.9658 14.3044 42.8595 14.3249 42.7679 14.3415C42.4351 13.6056 42.1129 12.8771 41.7938 12.1559C40.9719 10.2978 40.1954 8.54284 39.3101 6.80371C38.2112 4.64545 36.7132 2.88601 34.8576 1.57454C32.2053 -0.299411 29.4163 -0.274154 26.7919 1.64809C25.3989 2.66843 24.192 4.03724 22.9937 5.9559C21.6008 8.18566 20.4953 10.7009 19.5144 13.8717C19.4636 14.0365 19.404 14.1986 19.3429 14.3637C15.5539 13.4973 12.377 13.2025 9.37025 13.4357C7.11711 13.6104 5.35375 14.0845 3.8206 14.9278C1.25533 16.3388 0.0274774 18.7643 0.451722 21.5823C0.64695 22.8795 0.985868 24.1384 1.45875 25.3242C2.87927 28.8865 5.22525 31.7113 7.33282 34.0047C7.47105 34.1549 7.60791 34.3063 7.74887 34.4621L7.66047 34.5561C7.45979 34.7691 7.27667 34.9634 7.09732 35.1614C4.79878 37.6968 2.27106 40.835 0.950372 44.8839C0.331582 46.7805 0.205469 48.3577 0.553432 49.8472C1.11522 52.252 2.71834 53.8319 5.59847 54.819C8.03728 55.6549 10.7068 55.8907 13.9996 55.5603C15.2899 55.431 16.5491 55.2299 17.8821 55.0173C18.3838 54.9374 18.891 54.8565 19.4061 54.7787C19.469 54.9753 19.5335 55.1767 19.5968 55.3784C20.4511 58.101 21.6041 61.2533 23.6773 63.9896C24.7386 65.3907 25.8786 66.5501 27.0655 67.4361C28.279 68.3416 29.5675 68.7949 30.866 68.7949C32.1138 68.7949 33.371 68.3761 34.5792 67.5378C35.6538 66.7927 36.7093 65.8146 37.7162 64.6302C39.2959 62.7725 40.5372 60.5181 41.741 57.3208C42.0001 56.6327 42.2346 55.9429 42.4612 55.276C42.5286 55.078 42.595 54.8825 42.6609 54.691C43.2744 54.7767 43.8836 54.8668 44.4901 54.9569C46.0342 55.1862 47.631 55.4231 49.2056 55.5583C52.4289 55.8375 55.1324 55.4422 57.4741 54.3555C60.4295 52.9848 61.8137 50.4718 61.3718 47.2799ZM45.0942 37.7656V31.0983L49.15 34.3907L45.0942 37.7656ZM52.1989 31.2693C52.0499 31.4413 51.9026 31.6111 51.7589 31.7789L50.6422 30.9249C48.7078 29.4459 46.8204 28.0025 44.9394 26.5507C44.8427 26.476 44.764 26.3463 44.7539 26.2763C44.4148 23.9457 44.0889 21.6132 43.7575 19.243L43.5665 17.8779C46.4874 17.1506 49.0817 16.8554 51.4884 16.9742C52.8344 17.0411 53.988 17.2102 55.0147 17.4914C57.4354 18.1546 58.2272 19.5022 57.6623 21.9979C57.0016 24.9159 55.3725 27.3072 53.7103 29.457C53.2248 30.085 52.7031 30.687 52.1989 31.2693ZM43.7836 49.9284C43.9764 48.7813 44.1587 47.6983 44.3193 46.5853C44.4165 45.9112 44.4921 45.2252 44.5652 44.5617C44.629 43.9815 44.6951 43.3811 44.7751 42.7951C44.8024 42.5951 44.9021 42.3763 45.0021 42.2968C46.8216 40.853 48.6182 39.4527 50.5203 37.9704L51.7634 37.0012C54.495 39.7547 56.4478 42.8565 57.5695 46.2242C57.8287 47.0031 57.7731 47.9382 57.7193 48.8427L57.7105 48.9912C57.6555 49.9339 57.0668 50.6803 56.1355 50.9875C54.4972 51.5281 53.2429 51.822 52.0688 51.9397C49.0822 52.2397 46.1248 51.6889 43.5909 51.0793C43.6549 50.6933 43.7194 50.31 43.7836 49.9284ZM40.9257 45.0344L40.1081 50.1448L35.1982 48.3519L40.9257 45.0344ZM26.7757 48.4058L21.9372 50.2574L21.0336 45.0999L26.7757 48.4058ZM21.0297 23.8416L21.9101 18.7853L26.7049 20.5606L21.0297 23.8416ZM35.1842 20.5854L40.0045 18.8186L40.8632 23.8471L35.1842 20.5854ZM24.5415 53.1432C26.0929 52.5623 27.5584 52.0138 28.985 51.3025C30.4427 50.5762 31.5704 50.566 33.006 51.2677C34.4381 51.9677 35.9132 52.4926 37.4747 53.0486C38.0373 53.249 38.6044 53.451 39.1737 53.663L39.0932 53.9265C38.9628 54.3545 38.8285 54.7958 38.6863 55.234C37.7752 58.042 36.3122 60.7035 34.3377 63.1449C34.1809 63.3387 33.9964 63.5595 33.7903 63.7264C31.4397 65.6313 30.0468 65.6169 28.0579 63.664C25.909 61.5547 24.6793 58.8106 23.7598 56.4047C23.5045 55.7371 23.2787 55.0466 23.0601 54.3787C22.9946 54.178 22.9292 53.9784 22.8633 53.7797C23.4256 53.5606 23.9857 53.351 24.5415 53.1432ZM20.9873 28.2303C23.0964 26.9799 25.2552 25.7316 27.3432 24.5244C28.3777 23.9261 29.4123 23.3279 30.4455 22.7269C30.6305 22.6194 30.7895 22.5656 30.9467 22.5656C31.0967 22.5656 31.2452 22.6146 31.4129 22.712C34.4125 24.4541 37.5843 26.2758 40.8398 28.1267C41.2197 28.3428 41.3591 28.5878 41.3543 29.0308C41.3397 30.3532 41.3422 31.6968 41.3448 32.9961L41.3467 34.5143L41.3583 34.8634H41.3586C41.3591 35.2117 41.3603 35.5602 41.3615 35.9087C41.3663 37.2456 41.3711 38.6281 41.3349 39.9841C41.3289 40.2032 41.1513 40.5455 40.9954 40.638C37.9762 42.4278 34.7903 44.2746 31.2557 46.2832C31.1254 46.357 30.8105 46.3539 30.6752 46.2778C27.3032 44.3743 24.0205 42.4862 20.918 40.6653C20.7631 40.5745 20.5778 40.268 20.5761 40.0998C20.5341 36.0957 20.5308 32.4369 20.5662 28.9146C20.5682 28.7061 20.7887 28.3481 20.9873 28.2303ZM37.9116 12.0776C38.2396 12.8725 38.5309 13.7043 38.8126 14.5086C38.9056 14.7744 38.9988 15.0405 39.0935 15.306C38.5752 15.4951 38.0537 15.6741 37.5465 15.8482C36.1096 16.3414 34.7526 16.8071 33.4602 17.4822C31.6965 18.4032 30.1859 18.3928 28.4094 17.4462C27.3037 16.8574 26.095 16.4494 24.9258 16.0548C24.4241 15.8854 23.9052 15.7103 23.4052 15.5241C23.2237 15.4567 23.04 15.3953 22.8319 15.3258C24.0383 11.5129 25.3998 7.872 28.3125 5.05143C30.0825 3.3379 31.5658 3.32886 33.4317 5.01986C35.6315 7.01327 36.8847 9.58997 37.9116 12.0776ZM12.8586 34.4667L16.7893 31.2005V37.7326L12.8586 34.4667ZM18.0715 19.7416C17.771 21.5282 17.4871 23.2158 17.3253 24.9444C17.219 26.0794 16.8085 26.7695 15.8107 27.4907C14.4144 28.5003 13.111 29.5694 11.7311 30.7015C11.25 31.0961 10.7662 31.493 10.2756 31.8893C7.7388 29.1226 5.21893 26.0864 4.18528 22.198C3.51393 19.6725 4.27317 18.3249 6.80584 17.5462C8.26544 17.0972 9.73596 16.9383 11.1852 16.9383C12.5094 16.9383 13.816 17.0711 15.0796 17.2368C15.9126 17.3458 16.7589 17.5081 17.5773 17.665C17.8478 17.7167 18.1183 17.7685 18.3891 17.8187C18.2859 18.4687 18.1782 19.1087 18.0715 19.7416ZM11.4379 37.9963C13.2931 39.4513 15.1146 40.8797 16.928 42.319C17.0287 42.3985 17.1261 42.5606 17.1452 42.6797C17.5567 45.2412 17.9577 47.8485 18.3458 50.3701L18.4717 51.1889C15.5559 51.9489 12.8528 52.2223 10.2135 52.0237C9.54398 51.9732 8.75249 51.9032 7.95792 51.7674C7.38402 51.6687 6.87325 51.5247 6.43996 51.339C4.22095 50.3881 3.54363 49.0328 4.17504 46.8078C4.53888 45.5262 5.10101 44.1921 5.8937 42.7292C7.11746 40.4701 8.83287 38.5323 10.2466 37.0618L11.4379 37.9963Z" fill="#29ABE2"/>
<path d="M30.8888 40.8324C30.8933 40.8324 30.8977 40.8324 30.9021 40.8324C34.4014 40.8324 37.2716 37.988 37.303 34.4855C37.3349 30.9523 34.484 28.0488 30.948 28.0133C29.2337 27.9906 27.6177 28.6481 26.4 29.8493C25.1793 31.0533 24.5035 32.6646 24.497 34.3863C24.4905 36.1077 25.154 37.7269 26.3653 38.9453C27.5722 40.159 29.1785 40.829 30.8888 40.8324Z" fill="#29ABE2"/>
</svg>
