<svg width="72" height="37" viewBox="0 0 72 37" fill="none" xmlns="http://www.w3.org/2000/svg">
<path d="M20.024 0.213867C21.263 0.213867 22.5021 0.213867 23.7411 0.213867C23.8082 0.381787 23.963 0.316987 24.0814 0.335464C29.5806 1.19403 33.5892 4.0654 35.9868 9.10963C36.3396 9.85197 36.2445 10.0433 35.4426 10.2549C32.9607 10.9098 30.4716 11.5386 27.9992 12.2273C27.2202 12.4443 26.7119 12.3207 26.1458 11.6853C24.1617 9.4587 21.6091 8.74191 18.7477 9.39414C13.8226 10.5167 10.5795 15.002 10.9102 20.2113C11.0785 22.8617 12.3875 24.9066 14.7438 26.1765C18.0089 27.9363 22.1375 27.1266 24.8253 24.2785C25.3986 23.671 25.8909 23.0087 26.388 22.2377C26.0741 22.2377 25.8703 22.2377 25.6665 22.2377C23.0385 22.2377 20.4104 22.2382 17.7823 22.2368C17.5761 22.2367 17.3674 22.2414 17.1641 22.2133C16.5795 22.1328 16.3381 21.8305 16.4142 21.2511C16.4429 21.033 16.5227 20.8163 16.6093 20.6117C17.2806 19.0267 18.0158 17.4716 18.7816 15.9295C19.1399 15.2078 19.637 14.8961 20.4666 14.9012C25.1782 14.9299 29.8901 14.91 34.6018 14.9245C34.9875 14.9257 35.1475 14.8097 35.2742 14.4465C36.3289 11.4234 38.0621 8.81234 40.3207 6.56763C44.8952 2.02139 50.5723 0.335164 56.8595 0.66487C62.4085 0.955864 66.7435 3.6164 69.6283 8.33411C71.9965 12.2071 72.1483 16.4997 71.2025 20.8328C70.3727 24.635 68.2948 27.7561 65.4367 30.3324C60.2506 35.007 54.1582 36.9693 47.2563 35.6819C41.9238 34.6872 37.9773 31.6461 35.6395 26.6785C35.3872 26.1422 35.2025 25.5741 34.9668 24.9705C34.847 25.1811 34.7542 25.3413 34.6641 25.503C33.4955 27.5995 32.0093 29.4463 30.2348 31.0599C26.8438 34.1435 22.8188 35.7498 18.2677 36.0159C12.5892 36.348 7.80171 34.4229 4.23633 29.9663C0.90972 25.8081 0.148143 20.9259 1.5486 15.9401C3.85039 7.74544 9.33979 2.63572 17.6853 0.654809C18.4589 0.47118 19.2648 0.467234 20.024 0.213867ZM52.2765 27.1232C52.5759 27.0982 52.9722 27.0921 53.3591 27.0286C57.7923 26.3014 61.2398 22.9553 62.0954 18.561C62.814 14.8705 60.9052 11.2079 57.4985 9.79381C55.1978 8.83886 52.9205 9.11367 50.6557 9.97717C46.1262 11.7041 44.3158 15.8232 44.1641 19.1513C43.9645 23.5304 47.6683 27.1593 52.2765 27.1232Z" fill="#20BBAF"/>
</svg>
