<svg width="72" height="73" viewBox="0 0 72 73" fill="none" xmlns="http://www.w3.org/2000/svg">
<path fill-rule="evenodd" clip-rule="evenodd" d="M71.9797 9.27051C71.9797 13.9922 68.1519 17.8203 63.4301 17.8203C61.3574 17.8203 59.457 17.0827 57.977 15.8558L42.001 31.6099C42.4507 32.3159 42.7112 33.1542 42.7112 34.0533C42.7112 36.5685 40.6722 38.6075 38.157 38.6075C35.6418 38.6075 33.6028 36.5685 33.6028 34.0533C33.6028 33.1192 33.884 32.2508 34.3664 31.5281L28.6334 25.5082C27.9318 25.9497 27.1012 26.2051 26.211 26.2051C25.3533 26.2051 24.5511 25.9681 23.8661 25.5559L16.0487 33.2593C16.9744 34.6257 17.5151 36.2742 17.5151 38.0488C17.5151 42.7705 13.6873 46.5986 8.96545 46.5986C4.24359 46.5986 0.415771 42.7705 0.415771 38.0488C0.415771 33.3271 4.24359 29.499 8.96545 29.499C11.1907 29.499 13.2174 30.3492 14.7385 31.7425L22.419 24.1741C21.9374 23.4518 21.6567 22.5841 21.6567 21.6509C21.6567 19.1357 23.6957 17.0967 26.211 17.0967C28.7262 17.0967 30.7652 19.1357 30.7652 21.6509C30.7652 22.5517 30.5037 23.3914 30.0525 24.0982L35.8134 30.1475C36.4981 29.7358 37.2999 29.499 38.157 29.499C39.049 29.499 39.8812 29.7555 40.5837 30.1987L56.596 14.4087C55.5189 12.9783 54.8804 11.1989 54.8804 9.27051C54.8804 4.54883 58.7082 0.720703 63.4301 0.720703C68.1519 0.720703 71.9797 4.54883 71.9797 9.27051ZM66.73 9.27051C66.73 11.0928 65.2526 12.5703 63.4301 12.5703C61.6075 12.5703 60.1301 11.0928 60.1301 9.27051C60.1301 7.44824 61.6075 5.9707 63.4301 5.9707C65.2526 5.9707 66.73 7.44824 66.73 9.27051ZM8.96545 41.3486C10.788 41.3486 12.2654 39.8711 12.2654 38.0488C12.2654 36.2266 10.788 34.749 8.96545 34.749C7.14294 34.749 5.66553 36.2266 5.66553 38.0488C5.66553 39.8711 7.14294 41.3486 8.96545 41.3486Z" fill="url(#paint0_linear)"/>
<path d="M62.784 28.2529C61.1324 28.2529 59.7935 29.5918 59.7935 31.2432V69.8721C59.7935 71.5234 61.1324 72.8623 62.784 72.8623C64.4357 72.8623 65.7746 71.5234 65.7746 69.8721V31.2432C65.7746 29.5918 64.4357 28.2529 62.784 28.2529Z" fill="url(#paint1_linear)"/>
<path d="M49.9493 45.6982C48.2977 45.6982 46.9587 47.0371 46.9587 48.6885V69.8721C46.9587 71.5234 48.2977 72.8623 49.9493 72.8623C51.601 72.8623 52.9399 71.5234 52.9399 69.8721V48.6885C52.9399 47.0371 51.601 45.6982 49.9493 45.6982Z" fill="url(#paint2_linear)"/>
<path d="M34.124 55.417C34.124 53.7656 35.463 52.4268 37.1146 52.4268C38.7662 52.4268 40.1052 53.7656 40.1052 55.417V69.8721C40.1052 71.5234 38.7662 72.8623 37.1146 72.8623C35.463 72.8623 34.124 71.5234 34.124 69.8721V55.417Z" fill="url(#paint3_linear)"/>
<path d="M24.2798 45.6982C22.6282 45.6982 21.2893 47.0371 21.2893 48.6885V69.8721C21.2893 71.5244 22.6282 72.8633 24.2798 72.8633C25.9315 72.8633 27.2704 71.5244 27.2704 69.8721V48.6885C27.2704 47.0371 25.9315 45.6982 24.2798 45.6982Z" fill="url(#paint4_linear)"/>
<path d="M8.45459 55.417C8.45459 53.7656 9.79352 52.4268 11.4451 52.4268C13.0968 52.4268 14.4357 53.7656 14.4357 55.417V69.8721C14.4357 71.5234 13.0968 72.8623 11.4451 72.8623C9.79352 72.8623 8.45459 71.5234 8.45459 69.8721V55.417Z" fill="url(#paint5_linear)"/>
<defs>
<linearGradient id="paint0_linear" x1="80.1823" y1="15.9496" x2="-5.56424" y2="63.2792" gradientUnits="userSpaceOnUse">
<stop stop-color="#FF9B00"/>
<stop offset="0.273177" stop-color="#DD4C52"/>
<stop offset="0.54108" stop-color="#921E8D"/>
<stop offset="0.785659" stop-color="#521182"/>
</linearGradient>
<linearGradient id="paint1_linear" x1="80.1823" y1="15.9496" x2="-5.56424" y2="63.2792" gradientUnits="userSpaceOnUse">
<stop stop-color="#FF9B00"/>
<stop offset="0.273177" stop-color="#DD4C52"/>
<stop offset="0.54108" stop-color="#921E8D"/>
<stop offset="0.785659" stop-color="#521182"/>
</linearGradient>
<linearGradient id="paint2_linear" x1="80.1823" y1="15.9496" x2="-5.56424" y2="63.2792" gradientUnits="userSpaceOnUse">
<stop stop-color="#FF9B00"/>
<stop offset="0.273177" stop-color="#DD4C52"/>
<stop offset="0.54108" stop-color="#921E8D"/>
<stop offset="0.785659" stop-color="#521182"/>
</linearGradient>
<linearGradient id="paint3_linear" x1="80.1823" y1="15.9496" x2="-5.56424" y2="63.2792" gradientUnits="userSpaceOnUse">
<stop stop-color="#FF9B00"/>
<stop offset="0.273177" stop-color="#DD4C52"/>
<stop offset="0.54108" stop-color="#921E8D"/>
<stop offset="0.785659" stop-color="#521182"/>
</linearGradient>
<linearGradient id="paint4_linear" x1="80.1823" y1="15.9496" x2="-5.56424" y2="63.2792" gradientUnits="userSpaceOnUse">
<stop stop-color="#FF9B00"/>
<stop offset="0.273177" stop-color="#DD4C52"/>
<stop offset="0.54108" stop-color="#921E8D"/>
<stop offset="0.785659" stop-color="#521182"/>
</linearGradient>
<linearGradient id="paint5_linear" x1="80.1823" y1="15.9496" x2="-5.56424" y2="63.2792" gradientUnits="userSpaceOnUse">
<stop stop-color="#FF9B00"/>
<stop offset="0.273177" stop-color="#DD4C52"/>
<stop offset="0.54108" stop-color="#921E8D"/>
<stop offset="0.785659" stop-color="#521182"/>
</linearGradient>
</defs>
</svg>
