<svg width="66" height="51" viewBox="0 0 66 51" fill="none" xmlns="http://www.w3.org/2000/svg">
<path d="M45.3262 5.86631C37.1445 2.76763 29.4864 3.9413 22.3621 10.1585C14.9951 16.5875 9.7305 25.0954 6.18066 35.3749C4.53481 40.1409 3.2373 45.0393 2.65393 50.366C10.1737 50.366 17.5727 50.366 24.7959 50.366C24.7959 45.5766 24.4619 40.903 24.8548 36.3284C26.3871 18.4911 39.286 8.09514 52.7108 14.002C56.4999 15.6692 59.9345 18.6074 63.5504 20.916C63.9857 21.194 64.5388 21.1792 65.0373 21.3001C65.0849 21.0698 65.1325 20.8395 65.1801 20.6092C59.3522 14.0241 52.9061 8.73706 45.3262 5.86631Z" fill="#C12D4A"/>
<path d="M5.13284 33.3304C4.01849 32.8263 3.06909 32.3968 1.9803 31.9043C1.49729 33.371 1.07295 34.6595 0.646973 35.953C0.947652 36.1501 1.08498 36.2644 1.23527 36.3345C1.99935 36.6913 2.76679 37.0366 3.77638 37.4969C4.2376 36.0802 4.66079 34.7803 5.13284 33.3304Z" fill="#C12D4A"/>
<path d="M26.2546 43.7803C25.9941 47.8377 26.4305 48.5198 29.5419 49.055C28.9316 43.9366 29.449 45.0164 26.2546 43.7803Z" fill="#C12D4A"/>
<path d="M27.2909 30.7725C26.215 35.0146 26.3143 34.1688 28.6102 36.1355C29.4217 32.0332 29.4217 32.0332 27.2909 30.7725Z" fill="#C12D4A"/>
<path d="M13.8339 17.1381C13.1021 16.3955 12.4891 15.7736 11.8037 15.0781C11.0735 15.9587 10.486 16.6672 9.74231 17.564C10.6312 18.4991 11.2769 19.1784 11.9414 19.8774C12.6444 18.8599 13.202 18.0527 13.8339 17.1381Z" fill="#C12D4A"/>
<path d="M30.6895 22.6526C30.9515 23.1763 31.1159 23.534 31.3033 23.8714C31.5041 24.2329 31.7266 24.5752 31.9501 24.9432C33.7468 22.5983 33.7468 22.5983 32.2223 20.5576C31.7395 21.2175 31.2603 21.8724 30.6895 22.6526Z" fill="#C12D4A"/>
<path d="M24.6256 6.44403C24.1443 5.53369 23.7719 4.82921 23.3821 4.0918C22.6248 4.63343 22.0214 5.06503 21.3065 5.5764C21.7384 6.39754 22.1147 7.11321 22.537 7.91609C23.2403 7.42042 23.8385 6.99881 24.6256 6.44403Z" fill="#C12D4A"/>
<path d="M37.8436 16.0097C38.0552 16.8131 38.2225 17.4486 38.4465 18.2994C39.2977 17.847 39.9808 17.4839 40.7921 17.0527C40.5394 16.2515 40.3381 15.6131 40.1127 14.8984C39.2754 15.3085 38.5885 15.6449 37.8436 16.0097Z" fill="#C12D4A"/>
<path d="M49.4572 6.21364C50.1822 3.15441 48.4372 3.40437 47.2126 2.87207C46.3514 5.84875 48.5214 5.2007 49.4572 6.21364Z" fill="#C12D4A"/>
<path d="M36.3735 2.20244C36.0768 -0.30886 34.6466 0.960369 33.4935 0.780428C34.0069 3.11893 34.3197 3.25161 36.3735 2.20244Z" fill="#C12D4A"/>
<path d="M49.0908 14.4325C48.5138 14.0966 47.7728 14.2072 47.0327 14.1211C47.0327 14.8963 47.0327 15.4192 47.0327 16.0999C47.9756 16.2172 48.7499 16.3135 49.9282 16.4601C49.5662 15.5256 49.4519 14.6428 49.0908 14.4325Z" fill="#C12D4A"/>
</svg>
