<svg width="58" height="66" viewBox="0 0 58 66" fill="none" xmlns="http://www.w3.org/2000/svg">
<path d="M57.9813 33.4313C57.981 28.8404 57.9916 24.2495 57.976 19.6586C57.9694 17.705 57.2053 16.1691 55.4529 15.1561C47.8406 10.7555 40.2255 6.35953 32.6451 1.90455C30.5043 0.64641 28.5329 0.678208 26.3992 1.91911C18.7405 6.37331 11.0443 10.763 3.36088 15.1746C1.45492 16.2689 0.461564 17.8586 0.467612 20.1062C0.491366 28.9297 0.498449 37.7533 0.462956 46.5766C0.453704 48.8802 1.43222 50.5158 3.38665 51.6307C5.36879 52.7615 7.34423 53.9048 9.34393 55.0038C11.3385 56.0999 13.4381 56.7355 15.7691 56.5502C18.8714 56.3036 21.0427 54.5028 21.7249 51.468C21.9126 50.633 21.9738 49.7886 21.9736 48.9348C21.9707 40.0889 21.972 31.243 21.9716 22.3971C21.9716 22.218 21.9824 22.0366 21.9585 21.8603C21.8865 21.3303 21.654 21.0098 21.0377 21.0414C20.256 21.0816 19.4706 21.0458 18.687 21.0527C17.6432 21.0618 17.1387 21.5741 17.1387 22.6122C17.1386 31.0998 17.1387 39.5874 17.1384 48.0749C17.1383 48.5004 17.1511 48.9267 17.1291 49.3512C17.0394 51.0806 15.7694 52.2622 14.0432 52.2136C13.0805 52.1865 12.2082 51.8445 11.3837 51.3699C9.44462 50.2537 7.51782 49.1156 5.56229 48.0292C4.97753 47.7043 4.75868 47.3142 4.76017 46.6436C4.77995 37.8425 4.78179 29.0414 4.75725 20.2403C4.75524 19.5272 5.02674 19.1465 5.61055 18.8118C13.3164 14.3942 21.0166 9.96672 28.7047 5.5184C29.3288 5.15727 29.8085 5.1566 30.4307 5.52102C37.9794 9.94253 45.54 14.3438 53.1078 18.7323C53.5605 18.9948 53.6982 19.2824 53.6973 19.7946C53.6808 28.9092 53.6828 38.0239 53.697 47.1385C53.6977 47.5492 53.5905 47.7843 53.2302 47.9928C45.5223 52.4518 37.8196 56.9198 30.1232 61.3986C29.6736 61.6602 29.3219 61.6357 28.8879 61.3705C27.0932 60.2742 25.2699 59.2245 23.4806 58.1195C22.9705 57.8045 22.5622 57.8022 22.0642 58.1177C21.2305 58.6458 20.32 59.0227 19.3895 59.3543C19.0686 59.4686 18.5564 59.4545 18.5176 59.8554C18.4765 60.2792 18.9725 60.412 19.2881 60.5998C21.7109 62.0413 24.1639 63.4338 26.5586 64.9203C28.6246 66.2027 30.5876 66.167 32.6747 64.9375C40.135 60.5426 47.6104 56.1725 55.1174 51.858C57.1076 50.7141 57.9981 49.106 57.9877 46.8681C57.967 42.3893 57.9816 37.9103 57.9813 33.4313Z" fill="#84CD2B"/>
<path d="M42.6832 41.7417C42.1454 42.0759 41.5569 42.2902 40.9405 42.4206C38.6592 42.9034 36.3608 42.8774 34.0573 42.6289C31.1665 42.3171 29.1475 41.044 28.8 37.8914C28.7489 37.4286 28.4269 37.1576 27.9032 37.1711C27.0976 37.1918 26.291 37.1748 25.4849 37.177C24.6156 37.1793 24.3754 37.425 24.381 38.2982C24.4022 41.6497 26.2191 44.2936 29.4191 45.6313C31.0256 46.3029 32.7113 46.6463 34.4367 46.7765C37.5141 47.0088 40.5787 46.9682 43.5222 45.8878C46.3908 44.8348 48.4196 42.9776 48.7726 39.7816C49.1926 35.9786 47.743 33.8918 44.6732 32.7428C44.1087 32.5315 43.5299 32.3514 42.9471 32.1974C40.6032 31.5779 38.1911 31.3566 35.8035 30.9914C34.3003 30.7615 32.7885 30.5596 31.3488 30.0379C30.7262 29.8123 30.1632 29.5038 29.9715 28.7837C29.6549 27.5944 30.1458 26.3445 31.2009 25.6978C31.6827 25.4025 32.2052 25.1985 32.756 25.0887C35.091 24.6233 37.4326 24.6403 39.7593 25.1146C41.651 25.5003 42.8191 26.693 43.3178 28.5505C43.3584 28.7017 43.4023 28.8524 43.4352 29.0053C43.5295 29.4442 43.8032 29.6482 44.2463 29.6473C45.1868 29.6453 46.1273 29.6475 47.0678 29.6468C47.6561 29.6464 47.9447 29.3538 47.8875 28.7644C47.5712 25.5054 46.125 23.0262 42.9964 21.7213C40.8269 20.8165 38.5376 20.6129 36.2197 20.6648C35.504 20.6648 34.783 20.6085 34.0735 20.6751C31.6542 20.9023 29.381 21.5157 27.4327 23.0969C24.4337 25.5306 23.8292 32.2288 29.1887 34.1978C29.7548 34.4058 30.3283 34.6002 30.9099 34.7584C33.2547 35.396 35.6809 35.4968 38.0729 35.8247C39.5368 36.0254 41.0014 36.2377 42.3879 36.779C43.1513 37.077 43.8581 37.4591 44.071 38.3629C44.3739 39.6492 43.8094 41.0419 42.6832 41.7417Z" fill="#84CD2B"/>
</svg>
