<svg width="129" height="121" viewBox="0 0 129 121" fill="none" xmlns="http://www.w3.org/2000/svg">
<path fill-rule="evenodd" clip-rule="evenodd" d="M28.5301 117.852C38.3073 123.5 50.8124 120.153 56.4611 110.376L63.8007 97.6724L70.6096 109.474C75.2175 117.46 85.4274 120.199 93.414 115.591C101.401 110.984 104.14 100.774 99.5316 92.7871L92.5118 80.62H107.842C119.001 80.62 128.047 71.5741 128.047 60.4155C128.047 49.2568 119.001 40.211 107.842 40.211L93.363 40.211L99.4532 29.6623C103.997 21.7922 101.301 11.7288 93.4304 7.18502C85.5604 2.64122 75.4969 5.33773 70.9531 13.2078L64.7997 23.8659L57.0119 10.2238C51.5639 0.680338 39.411 -2.63968 29.8675 2.8083C20.3241 8.25628 17.0041 20.4092 22.4521 29.9526L30.5736 44.1794L16.3022 44.1098C7.38446 44.0663 0.119887 51.2603 0.0763681 60.1781C0.0328646 69.0959 7.22686 76.3604 16.1446 76.404L28.8282 76.4658L21.0549 89.9205C15.4062 99.6977 18.753 112.203 28.5301 117.852ZM39.7689 76.5192L29.2807 94.6729C26.2567 99.9071 28.0484 106.602 33.2825 109.626C38.5167 112.65 45.2113 110.858 48.2353 105.624L58.3187 88.1708L51.6296 76.5771L39.7689 76.5192ZM59.474 86.1711L53.075 75.0802C52.8973 74.7721 52.5693 74.5817 52.2137 74.5799L40.9212 74.5248L48.5674 61.2902C49.4125 59.8275 49.4171 58.0261 48.5797 56.559L42.6881 46.2386L53.5793 46.2917C53.9383 46.2934 54.2707 46.1026 54.4502 45.7917L60.4474 35.4042L67.2474 47.3159C68.0928 48.7968 69.6672 49.711 71.3725 49.711H85.5687L79.2555 60.6458C79.0769 60.9552 79.0768 61.3362 79.2553 61.6456L84.7217 71.12H70.9111C69.2146 71.12 67.6469 72.0248 66.7982 73.4938L59.474 86.1711ZM64.956 95.6727L72.342 108.474C76.3979 115.504 85.3847 117.915 92.4145 113.859C99.4444 109.803 101.855 100.816 97.7993 93.7866L90.2028 80.62H73.6526L64.956 95.6727ZM87.0307 71.12H107.842C113.754 71.12 118.547 66.3274 118.547 60.4155C118.547 54.5035 113.754 49.711 107.842 49.711L87.8781 49.711L81.2761 61.146L87.0307 71.12ZM91.0536 40.211L97.7212 28.6623C101.713 21.7488 99.3439 12.9086 92.4304 8.91707C85.5169 4.92556 76.6767 7.29431 72.6852 14.2078L65.9478 25.8772L74.1304 40.211H91.0536ZM59.2993 33.3929L48.7615 14.9336C45.9147 9.94666 39.5642 8.21179 34.5773 11.0586C29.5904 13.9055 27.8556 20.2559 30.7024 25.2428L41.5431 44.2329L53.0085 44.2889L59.2993 33.3929ZM31.7186 46.185L38.9769 58.8998L29.9805 74.4714L16.1544 74.404C8.34118 74.3659 2.03822 68.0011 2.07635 60.1878C2.11448 52.3746 8.47926 46.0716 16.2925 46.1098L31.7186 46.185Z" fill="url(#paint0_linear)"/>
<defs>
<linearGradient id="paint0_linear" x1="118.744" y1="79.0743" x2="0.144024" y2="73.7104" gradientUnits="userSpaceOnUse">
<stop stop-color="#2950C9"/>
<stop offset="1" stop-color="#55006E"/>
</linearGradient>
</defs>
</svg>
