<svg width="137" height="122" viewBox="0 0 137 122" fill="none" xmlns="http://www.w3.org/2000/svg">
<path fill-rule="evenodd" clip-rule="evenodd" d="M67.7452 19.8669C62.8232 15.6674 57.963 12.1007 53.3248 9.26704C47.3014 5.58704 41.6048 3.11398 36.6002 2.12338C31.5967 1.13303 27.1629 1.60545 23.8413 3.9904C20.5197 6.37535 18.8174 10.3088 18.4314 15.1689C18.0453 20.0302 18.9615 25.9357 21.0033 32.4746C21.2584 33.2918 21.5314 34.1197 21.822 34.9575C10.1125 40.696 0.97461 49.4865 0.974609 60.6743C0.974608 71.9381 10.2369 80.7718 22.0607 86.5075C22.4473 86.695 22.8383 86.8802 23.2335 87.0628C22.8526 88.2706 22.5056 89.458 22.1932 90.6227C20.4202 97.233 19.7461 103.168 20.3307 108.012C20.9151 112.854 22.7769 116.72 26.1917 118.979C29.6066 121.237 34.0552 121.545 39.0148 120.369C43.9754 119.193 49.5668 116.51 55.4355 112.608C59.9543 109.604 64.6651 105.86 69.4116 101.48C74.3331 105.679 79.1929 109.246 83.8305 112.079C89.854 115.759 95.5505 118.232 100.555 119.223C105.559 120.213 109.993 119.741 113.314 117.356C116.636 114.971 118.338 111.037 118.724 106.177C119.11 101.316 118.194 95.4103 116.152 88.8714C115.897 88.055 115.624 87.2279 115.334 86.3909C127.043 80.6524 136.181 71.862 136.181 60.6743C136.181 49.4106 126.919 40.5768 115.095 34.8411C114.708 34.6536 114.317 34.4685 113.922 34.2858C114.303 33.0778 114.65 31.8902 114.963 30.7252C116.736 24.115 117.41 18.1796 116.825 13.3361C116.241 8.49364 114.379 4.62772 110.964 2.36925C107.549 0.110784 103.101 -0.196853 98.1412 0.978943C93.1806 2.15496 87.5892 4.83814 81.7205 8.73955C77.2019 11.7434 72.4914 15.4879 67.7452 19.8669ZM114.798 13.5911C114.252 9.06948 112.56 5.81992 109.788 3.98695C107.017 2.15398 103.233 1.78158 98.6018 2.87946C93.9717 3.97712 88.6146 6.52135 82.8653 10.3434C78.4779 13.2601 73.8891 16.9028 69.2529 21.1714C70.8419 22.5654 72.4355 24.0239 74.0285 25.5437C88.3903 26.1211 101.583 28.9641 112.06 33.4567C112.397 32.3744 112.706 31.3099 112.987 30.2649C114.724 23.7891 115.343 18.1118 114.798 13.5911ZM71.0404 25.4568C69.9577 24.4514 68.8761 23.4758 67.7973 22.5308C66.7869 23.4877 65.7749 24.4738 64.7631 25.4879C66.0266 25.4525 67.2985 25.4346 68.5778 25.4346C69.4019 25.4346 70.2228 25.442 71.0404 25.4568ZM66.2896 21.2287C61.4811 17.1343 56.7456 13.664 52.2411 10.9119C46.3396 7.3064 40.8822 4.9632 36.2106 4.03853C31.5378 3.11362 27.7731 3.6269 25.0804 5.56034C22.3876 7.49379 20.8293 10.8026 20.4687 15.3415C20.1083 19.8793 20.9598 25.5296 22.9603 31.9361C23.1816 32.6449 23.4168 33.3623 23.6656 34.0878C34.0601 29.367 47.3355 26.3221 61.8663 25.6004C63.3395 24.0852 64.8155 22.627 66.2896 21.2287ZM111.779 77.5493C122.117 72.3316 126.681 66.1063 126.681 60.6743C126.681 55.0991 121.873 48.688 110.949 43.3885C110.843 43.3373 110.737 43.2862 110.63 43.2353C108.443 48.4795 105.72 53.9773 102.502 59.5872L108.618 59.5798C108.728 58.9543 108.946 58.3368 109.279 57.7534C110.83 55.0346 114.292 54.0882 117.01 55.6394C119.729 57.1907 120.676 60.6522 119.124 63.371C117.573 66.0898 114.112 67.0363 111.393 65.485C109.881 64.6222 108.917 63.1682 108.626 61.5798L103.2 61.5864C106.577 67.0567 109.452 72.4242 111.779 77.5493ZM98.9978 61.5915C96.3472 66.0035 93.3908 70.4759 90.1464 74.9387C87.3941 78.7246 84.5624 82.3278 81.6894 85.7237C77.484 86.1743 73.0969 86.414 68.5778 86.414C64.2994 86.414 60.1393 86.1991 56.1397 85.7939C53.2533 82.6232 50.3987 79.2611 47.6102 75.728C43.9064 71.0351 40.5387 66.3186 37.5334 61.6657L59.5605 61.6391C60.0428 66.1931 63.8959 69.7412 68.5778 69.7412C73.2671 69.7412 77.1251 66.1818 77.5973 61.6173L98.9978 61.5915ZM99.5641 59.5908C96.5735 54.967 93.2252 50.2808 89.5451 45.618C86.7575 42.086 83.9037 38.7248 81.0182 35.555C77.0179 35.1496 72.8571 34.9346 68.5778 34.9346C64.0586 34.9346 59.6715 35.1744 55.466 35.625C52.5932 39.0206 49.7617 42.6236 47.0096 46.4092C43.7877 50.8412 40.8497 55.2825 38.2133 59.6649L59.568 59.6391C60.0812 55.1178 63.9192 51.605 68.5778 51.605C73.2288 51.605 77.0621 55.1066 77.5851 59.6173L99.5641 59.5908ZM33.9 59.6701C30.5472 54.2315 27.6915 48.8954 25.3775 43.799C15.0387 49.0167 10.4746 55.2422 10.4746 60.6743C10.4746 66.2496 15.2825 72.6607 26.207 77.9601C26.3128 78.0114 26.4189 78.0625 26.5255 78.1134C28.7248 72.8404 31.4653 67.3111 34.7069 61.6692L28.1923 61.677C28.0911 62.3493 27.8663 63.0146 27.5092 63.6406C25.958 66.3593 22.4964 67.3058 19.7776 65.7546C17.0588 64.2033 16.1123 60.7418 17.6636 58.023C19.2149 55.3042 22.6764 54.3577 25.3952 55.909C26.8639 56.7469 27.8154 58.1424 28.1354 59.6771L33.9 59.6701ZM101.092 61.9976C104.61 67.6438 107.582 73.1736 109.96 78.4283C103.028 81.6363 94.3453 84.0814 84.5758 85.3778C87.0332 82.4064 89.4539 79.2893 91.8146 76.042C95.225 71.3508 98.3249 66.643 101.092 61.9976ZM101.015 58.1415C98.06 53.6022 94.7697 49.0128 91.1697 44.4515C88.8233 41.4784 86.4284 38.6227 84.005 35.8966C93.4644 37.1033 101.926 39.3847 108.794 42.395C106.699 47.4356 104.095 52.7285 101.015 58.1415ZM53.153 85.4523C50.7287 82.7254 48.333 79.8686 45.9857 76.8945C42.386 72.3337 39.096 67.7448 36.1409 63.2059C33.0613 68.6194 30.4569 73.9127 28.3617 78.9536C35.2307 81.9642 43.6926 84.2457 53.153 85.4523ZM36.0641 59.3498C38.8313 54.7046 41.9311 49.997 45.3415 45.3059C47.702 42.0589 50.1224 38.942 52.5796 35.9709C42.8106 37.2673 34.1283 39.7122 27.196 42.92C29.5748 48.1745 32.5467 53.704 36.0641 59.3498ZM63.1298 95.805C64.7223 97.3242 66.3154 98.7823 67.9039 100.176C63.2674 104.445 58.6784 108.088 54.2907 111.005C48.5414 114.827 43.1843 117.371 38.5542 118.468C33.9233 119.566 30.1392 119.194 27.3678 117.361C24.5963 115.528 22.9039 112.278 22.3582 107.757C21.8126 103.236 22.4324 97.5588 24.1693 91.083C24.4496 90.0382 24.7585 88.974 25.0958 87.892C35.5733 92.3848 48.767 95.2278 63.1298 95.805ZM69.3595 98.8164C68.2812 97.8719 67.2001 96.8967 66.1179 95.8919C66.9346 95.9066 67.7547 95.914 68.5778 95.914C69.8571 95.914 71.1289 95.8961 72.3922 95.8607C71.3808 96.8744 70.3694 97.8599 69.3595 98.8164ZM70.8672 100.119C72.3408 98.7207 73.8163 97.2629 75.289 95.7483C89.8202 95.0266 103.096 91.9816 113.491 87.2606C113.739 87.9853 113.974 88.7019 114.195 89.4099C116.196 95.8165 117.047 101.467 116.687 106.004C116.326 110.543 114.768 113.852 112.075 115.786C109.382 117.719 105.618 118.232 100.945 117.307C96.2732 116.383 90.8158 114.04 84.9143 110.434C80.4102 107.682 75.6752 104.212 70.8672 100.119Z" fill="url(#paint0_linear)"/>
<defs>
<linearGradient id="paint0_linear" x1="125.101" y1="61.6526" x2="-11.722" y2="57.98" gradientUnits="userSpaceOnUse">
<stop stop-color="#2950C9"/>
<stop offset="1" stop-color="#55006E"/>
</linearGradient>
</defs>
</svg>
