<svg width="117" height="118" viewBox="0 0 117 118" fill="none" xmlns="http://www.w3.org/2000/svg">
<path d="M35.1775 92.6963C35.6904 92.7637 36.214 92.7979 36.7461 92.7979H38.1743C38.7265 92.7979 39.1743 93.2451 39.1743 93.7979C39.1743 94.3506 38.7265 94.7979 38.1743 94.7979H36.7461C36.1273 94.7979 35.5173 94.7578 34.9188 94.6797C34.3712 94.6084 33.9851 94.1064 34.0566 93.5586C34.128 93.0107 34.6299 92.625 35.1775 92.6963Z" fill="url(#paint0_linear)"/>
<path d="M43.8868 94.7979C43.3345 94.7979 42.8868 94.3506 42.8868 93.7979C42.8868 93.2451 43.3345 92.7979 43.8868 92.7979H46.743C47.2953 92.7979 47.743 93.2451 47.743 93.7979C47.743 94.3506 47.2953 94.7979 46.743 94.7979H43.8868Z" fill="url(#paint1_linear)"/>
<path d="M52.4556 94.7979C51.9033 94.7979 51.4556 94.3506 51.4556 93.7979C51.4556 93.2451 51.9033 92.7979 52.4556 92.7979H55.3118C55.8641 92.7979 56.3118 93.2451 56.3118 93.7979C56.3118 94.3506 55.8641 94.7979 55.3118 94.7979H52.4556Z" fill="url(#paint2_linear)"/>
<path d="M61.0244 94.7979C60.4721 94.7979 60.0244 94.3506 60.0244 93.7979C60.0244 93.2451 60.4721 92.7979 61.0244 92.7979H63.8807C64.4329 92.7979 64.8807 93.2451 64.8807 93.7979C64.8807 94.3506 64.4329 94.7979 63.8807 94.7979H61.0244Z" fill="url(#paint3_linear)"/>
<path d="M69.5932 94.7979C69.0409 94.7979 68.5932 94.3506 68.5932 93.7979C68.5932 93.2451 69.0409 92.7979 69.5932 92.7979H72.4495C73.0018 92.7979 73.4495 93.2451 73.4495 93.7979C73.4495 94.3506 73.0018 94.7979 72.4495 94.7979H69.5932Z" fill="url(#paint4_linear)"/>
<path d="M29.4412 90.3193C29.8792 90.6553 29.9614 91.2832 29.6248 91.7217C29.2883 92.1592 28.6605 92.2412 28.2226 91.9053C27.2531 91.1602 26.384 90.291 25.639 89.3213C25.3025 88.8838 25.3846 88.2559 25.8226 87.9189C26.2605 87.583 26.8883 87.665 27.2248 88.1025C27.8639 88.9346 28.6096 89.6797 29.4412 90.3193Z" fill="url(#paint5_linear)"/>
<path d="M24.8476 82.3662C24.919 82.9141 24.533 83.416 23.9853 83.4873C23.4377 83.5586 22.9358 83.1729 22.8644 82.625C22.7863 82.0264 22.7461 81.417 22.7461 80.7979V79.3926C22.7461 78.8398 23.1938 78.3926 23.7461 78.3926C24.2984 78.3926 24.7461 78.8398 24.7461 79.3926V80.7979C24.7461 81.3301 24.7806 81.8535 24.8476 82.3662Z" fill="url(#paint6_linear)"/>
<path d="M24.7461 73.7695C24.7461 74.3213 24.2984 74.7695 23.7461 74.7695C23.1938 74.7695 22.7461 74.3213 22.7461 73.7695V70.958C22.7461 70.4062 23.1938 69.958 23.7461 69.958C24.2984 69.958 24.7461 70.4062 24.7461 70.958V73.7695Z" fill="url(#paint7_linear)"/>
<path d="M24.7461 65.335C24.7461 65.8877 24.2984 66.335 23.7461 66.335C23.1938 66.335 22.7461 65.8877 22.7461 65.335V62.5244C22.7461 61.9717 23.1938 61.5244 23.7461 61.5244C24.2984 61.5244 24.7461 61.9717 24.7461 62.5244V65.335Z" fill="url(#paint8_linear)"/>
<path d="M24.7461 56.9014C24.7461 57.4531 24.2984 57.9014 23.7461 57.9014C23.1938 57.9014 22.7461 57.4531 22.7461 56.9014V54.0898C22.7461 53.5371 23.1938 53.0898 23.7461 53.0898C24.2984 53.0898 24.7461 53.5371 24.7461 54.0898V56.9014Z" fill="url(#paint9_linear)"/>
<path d="M24.7461 48.4668C24.7461 49.0195 24.2984 49.4668 23.7461 49.4668C23.1938 49.4668 22.7461 49.0195 22.7461 48.4668V45.6553C22.7461 45.1035 23.1938 44.6553 23.7461 44.6553C24.2984 44.6553 24.7461 45.1035 24.7461 45.6553V48.4668Z" fill="url(#paint10_linear)"/>
<path fill-rule="evenodd" clip-rule="evenodd" d="M18.0586 117.236C8.25555 117.236 0.308594 109.289 0.308594 99.4863V51.125C0.308594 41.3223 8.25555 33.375 18.0586 33.375H22.7461V14.6748C22.7461 6.94336 29.0141 0.674805 36.7461 0.674805H92.9659C93.5182 0.674805 93.9659 1.12305 93.9659 1.6748C93.9659 2.22754 93.5182 2.6748 92.9659 2.6748H36.7461C30.1187 2.6748 24.7461 8.04785 24.7461 14.6748V33.375H66.42C71.1149 33.375 75.3842 35.1982 78.5585 38.1748L110.411 6.32129L104.954 0.864258H116.815V1.95215C116.887 2.16309 116.887 2.39258 116.815 2.60352V12.7246L111.826 7.73535L79.9389 39.6221C82.5775 42.7197 84.17 46.7363 84.17 51.125V92.7979H102.869C109.496 92.7979 114.869 87.4248 114.869 80.7979V25.1006C114.869 24.5479 115.317 24.1006 115.869 24.1006C116.421 24.1006 116.869 24.5479 116.869 25.1006V80.7979C116.869 88.5303 110.601 94.7979 102.869 94.7979H84.17V99.4863C84.17 109.289 76.223 117.236 66.42 117.236H18.0586ZM74.67 51.125C74.67 49.3613 74.1168 47.7275 73.1745 46.3867L49.3881 70.1729C49.5555 70.4062 49.7131 70.6514 49.86 70.9053C52.2899 75.1143 50.8479 80.4961 46.6391 82.9258C42.4304 85.3564 37.0486 83.9141 34.6187 79.7051C32.1887 75.4961 33.6307 70.1152 37.8395 67.6846C41.1916 65.749 45.2878 66.2705 48.0441 68.6885L71.8336 44.8994C70.3847 43.6387 68.4915 42.875 66.42 42.875H18.0586C13.5023 42.875 9.80859 46.5684 9.80859 51.125V99.4863C9.80859 104.043 13.5023 107.736 18.0586 107.736H66.42C70.9763 107.736 74.67 104.043 74.67 99.4863V51.125Z" fill="url(#paint11_linear)"/>
<defs>
<linearGradient id="paint0_linear" x1="107.317" y1="58.0107" x2="-10.6543" y2="60.8384" gradientUnits="userSpaceOnUse">
<stop stop-color="#2950C9"/>
<stop offset="1" stop-color="#55006E"/>
</linearGradient>
<linearGradient id="paint1_linear" x1="107.317" y1="58.0107" x2="-10.6543" y2="60.8384" gradientUnits="userSpaceOnUse">
<stop stop-color="#2950C9"/>
<stop offset="1" stop-color="#55006E"/>
</linearGradient>
<linearGradient id="paint2_linear" x1="107.317" y1="58.0107" x2="-10.6543" y2="60.8384" gradientUnits="userSpaceOnUse">
<stop stop-color="#2950C9"/>
<stop offset="1" stop-color="#55006E"/>
</linearGradient>
<linearGradient id="paint3_linear" x1="107.317" y1="58.0107" x2="-10.6543" y2="60.8384" gradientUnits="userSpaceOnUse">
<stop stop-color="#2950C9"/>
<stop offset="1" stop-color="#55006E"/>
</linearGradient>
<linearGradient id="paint4_linear" x1="107.317" y1="58.0107" x2="-10.6543" y2="60.8384" gradientUnits="userSpaceOnUse">
<stop stop-color="#2950C9"/>
<stop offset="1" stop-color="#55006E"/>
</linearGradient>
<linearGradient id="paint5_linear" x1="107.317" y1="58.0107" x2="-10.6543" y2="60.8384" gradientUnits="userSpaceOnUse">
<stop stop-color="#2950C9"/>
<stop offset="1" stop-color="#55006E"/>
</linearGradient>
<linearGradient id="paint6_linear" x1="107.317" y1="58.0107" x2="-10.6543" y2="60.8384" gradientUnits="userSpaceOnUse">
<stop stop-color="#2950C9"/>
<stop offset="1" stop-color="#55006E"/>
</linearGradient>
<linearGradient id="paint7_linear" x1="107.317" y1="58.0107" x2="-10.6543" y2="60.8384" gradientUnits="userSpaceOnUse">
<stop stop-color="#2950C9"/>
<stop offset="1" stop-color="#55006E"/>
</linearGradient>
<linearGradient id="paint8_linear" x1="107.317" y1="58.0107" x2="-10.6543" y2="60.8384" gradientUnits="userSpaceOnUse">
<stop stop-color="#2950C9"/>
<stop offset="1" stop-color="#55006E"/>
</linearGradient>
<linearGradient id="paint9_linear" x1="107.317" y1="58.0107" x2="-10.6543" y2="60.8384" gradientUnits="userSpaceOnUse">
<stop stop-color="#2950C9"/>
<stop offset="1" stop-color="#55006E"/>
</linearGradient>
<linearGradient id="paint10_linear" x1="107.317" y1="58.0107" x2="-10.6543" y2="60.8384" gradientUnits="userSpaceOnUse">
<stop stop-color="#2950C9"/>
<stop offset="1" stop-color="#55006E"/>
</linearGradient>
<linearGradient id="paint11_linear" x1="107.317" y1="58.0107" x2="-10.6543" y2="60.8384" gradientUnits="userSpaceOnUse">
<stop stop-color="#2950C9"/>
<stop offset="1" stop-color="#55006E"/>
</linearGradient>
</defs>
</svg>
