<svg width="116" height="117" viewBox="0 0 116 117" fill="none" xmlns="http://www.w3.org/2000/svg">
<path fill-rule="evenodd" clip-rule="evenodd" d="M89.6267 40.9615C98.0828 40.9615 104.938 34.1065 104.938 25.6504C104.938 17.1943 98.0828 10.3393 89.6267 10.3393C81.1706 10.3393 74.3157 17.1943 74.3157 25.6504C74.3157 34.1065 81.1706 40.9615 89.6267 40.9615ZM89.6267 51.2637C94.4117 51.2637 98.8902 49.9516 102.722 47.6675C103.47 50.9464 103.865 54.3602 103.865 57.8674C103.865 61.6789 103.398 65.3812 102.519 68.9202C98.7321 66.7103 94.3273 65.4441 89.6267 65.4441C75.4809 65.4441 64.0134 76.9115 64.0134 91.0573C64.0134 105.203 75.4809 116.671 89.6267 116.671C103.773 116.671 115.24 105.203 115.24 91.0573C115.24 82.3895 110.934 74.7272 104.345 70.0927C105.376 66.1908 105.926 62.0932 105.926 57.8674C105.926 53.9389 105.451 50.1201 104.555 46.4659C111.026 41.8172 115.24 34.2259 115.24 25.6504C115.24 11.5046 103.773 0.0371094 89.6267 0.0371094C80.8206 0.0371094 73.0525 4.48114 68.4427 11.2488C65.1445 10.5279 61.7195 10.1482 58.2066 10.1482C54.3855 10.1482 50.6692 10.5974 47.1076 11.4459C42.5151 4.56778 34.6821 0.0375669 25.791 0.0375669C11.6452 0.0375669 0.177734 11.505 0.177734 25.6508C0.177734 39.7967 11.6452 51.2641 25.791 51.2641C39.9368 51.2641 51.4043 39.7967 51.4043 25.6508C51.4043 21.1727 50.255 16.9629 48.2354 13.3004C51.4448 12.5856 54.7816 12.2086 58.2066 12.2086C61.3166 12.2086 64.3532 12.5194 67.2873 13.1114C65.2026 16.8177 64.0134 21.0952 64.0134 25.6504C64.0134 39.7962 75.4809 51.2637 89.6267 51.2637ZM89.6267 67.5045C94.1459 67.5045 98.3679 68.7773 101.954 70.9839C100.584 75.5577 98.5172 79.8301 95.8757 83.6776C94.1903 82.249 92.0091 81.3873 89.6266 81.3873C84.286 81.3873 79.9567 85.7167 79.9567 91.0572C79.9567 96.3977 84.286 100.727 89.6266 100.727C94.9671 100.727 99.2964 96.3977 99.2964 91.0572C99.2964 88.8573 98.5618 86.8289 97.3245 85.2041C100.083 81.2634 102.262 76.8862 103.737 72.197C109.47 76.493 113.18 83.3419 113.18 91.0573C113.18 104.065 102.635 114.61 89.6267 114.61C76.6189 114.61 66.0739 104.065 66.0739 91.0573C66.0739 78.0495 76.6189 67.5045 89.6267 67.5045ZM25.791 10.3398C30.1792 10.3398 34.1362 12.1858 36.9279 15.1437C33.6867 16.761 30.6554 18.7363 27.886 21.0176C27.2083 20.689 26.4476 20.5047 25.6439 20.5047C22.8021 20.5047 20.4984 22.8084 20.4984 25.6501C20.4984 28.4919 22.8021 30.7956 25.6439 30.7956C28.4856 30.7956 30.7893 28.4919 30.7893 25.6501C30.7893 24.3761 30.3263 23.2103 29.5594 22.3117C32.2319 20.1556 35.1523 18.2948 38.2711 16.7788C40.0537 19.2818 41.1021 22.3439 41.1021 25.6508C41.1021 34.1069 34.2471 40.9619 25.791 40.9619C17.3349 40.9619 10.4799 34.1069 10.4799 25.6508C10.4799 17.1948 17.3349 10.3398 25.791 10.3398ZM41.1021 91.0573C41.1021 99.5134 34.2471 106.368 25.791 106.368C17.3349 106.368 10.4799 99.5134 10.4799 91.0573C10.4799 82.6013 17.3349 75.7463 25.791 75.7463C34.2471 75.7463 41.1021 82.6013 41.1021 91.0573ZM51.4043 91.0573C51.4043 105.203 39.9368 116.671 25.791 116.671C11.6452 116.671 0.177734 105.203 0.177734 91.0573C0.177734 81.9835 4.89611 74.0117 12.0132 69.4616C11.9218 69.3472 11.8534 69.2115 11.817 69.0597C11.5934 68.1294 11.3962 67.1868 11.2263 66.2326C11.0564 65.2784 10.9161 64.3257 10.8048 63.3754C10.7386 62.8103 11.1431 62.2985 11.7082 62.2323C12.2733 62.1661 12.7851 62.5706 12.8513 63.1357C12.9578 64.0454 13.0921 64.9576 13.2548 65.8714C13.4083 66.7335 13.5851 67.5855 13.7843 68.4268C17.3655 66.5229 21.4523 65.4441 25.791 65.4441C39.9368 65.4441 51.4043 76.9115 51.4043 91.0573ZM13.0524 51.0128C13.1377 50.4502 12.7508 49.925 12.1883 49.8397C11.6258 49.7543 11.1005 50.1412 11.0152 50.7037C10.7284 52.5945 10.5543 54.5147 10.4988 56.4558C10.4825 57.0245 10.9304 57.4988 11.4992 57.515C12.0679 57.5313 12.5421 57.0834 12.5584 56.5147C12.6115 54.6579 12.778 52.8212 13.0524 51.0128Z" fill="url(#paint0_linear)"/>
<defs>
<linearGradient id="paint0_linear" x1="108.426" y1="116.671" x2="-19.1015" y2="52.1204" gradientUnits="userSpaceOnUse">
<stop stop-color="#FF9B00"/>
<stop offset="0.26803" stop-color="#DD4C52"/>
<stop offset="0.552201" stop-color="#921E8D"/>
<stop offset="0.809309" stop-color="#521182"/>
</linearGradient>
</defs>
</svg>
