<svg width="148" height="125" viewBox="0 0 148 125" fill="none" xmlns="http://www.w3.org/2000/svg">
<path fill-rule="evenodd" clip-rule="evenodd" d="M73.1115 115.449C67.9523 115.449 62.0065 111.15 57.0674 101.285C56.1774 99.5075 55.3457 97.5927 54.5813 95.5555C54.643 95.3757 54.7041 95.1951 54.7648 95.0139H67.5143C68.136 98.2228 70.9607 100.646 74.3514 100.646C78.1977 100.646 81.3158 97.5277 81.3158 93.6814C81.3158 89.8351 78.1977 86.717 74.3514 86.717C70.7302 86.717 67.7545 89.4807 67.4185 93.0139H55.405C56.7046 88.7651 57.7362 84.1629 58.4557 79.2995H95.8084C94.4747 87.8028 92.1435 95.3173 89.1556 101.285C84.2166 111.15 78.2707 115.449 73.1115 115.449ZM96.101 77.2995H58.7321C59.2859 72.989 59.5968 68.4887 59.6352 63.8601L97.0538 63.8601C97.0131 68.5256 96.6818 73.0278 96.101 77.2995ZM105.681 77.2995C106.218 72.9674 106.517 68.4682 106.554 63.8601L133.705 63.8601C134.181 67.2434 137.087 69.8465 140.601 69.8465C144.448 69.8465 147.566 66.7284 147.566 62.8821C147.566 59.0358 144.448 55.9177 140.601 55.9177C137.102 55.9177 134.206 58.4983 133.711 61.8601L106.554 61.8601C106.515 57.204 106.208 52.6592 105.658 48.2859H116.115C116.737 51.4948 119.562 53.9178 122.953 53.9178C126.799 53.9178 129.917 50.7997 129.917 46.9534C129.917 43.1071 126.799 39.989 122.953 39.989C119.331 39.989 116.356 42.7527 116.02 46.2859H105.388C103.963 36.4158 101.287 27.4896 97.6505 20.2259C92.2034 9.34614 83.801 0.814453 73.1115 0.814453C62.9343 0.814453 54.8303 8.54793 49.376 18.6784C44.2838 10.0397 37.5417 4.56445 29.9427 4.56445C21.4362 4.56445 14.0035 11.4255 8.75694 21.9047C5.32719 28.7551 2.76015 37.2748 1.38346 46.7798C1.29616 46.9282 1.2461 47.1012 1.2461 47.2859C1.2461 47.3714 1.25684 47.4544 1.27704 47.5337C0.604403 52.4268 0.246094 57.5735 0.246094 62.882C0.246094 68.1508 0.599079 73.2604 1.26205 78.1207C1.25157 78.1787 1.2461 78.2385 1.2461 78.2995C1.2461 78.458 1.28293 78.6078 1.34851 78.7409C2.71646 88.3438 5.29796 96.9504 8.75694 103.859C14.0035 114.338 21.4362 121.199 29.9427 121.199C37.5417 121.199 44.2838 115.724 49.376 107.086C54.8303 117.216 62.9344 124.949 73.1115 124.949C83.801 124.949 92.2034 116.418 97.6505 105.538C101.309 98.2306 103.995 89.2405 105.414 79.2995H116.148C116.829 82.4305 119.617 84.7752 122.953 84.7752C126.799 84.7752 129.917 81.6571 129.917 77.8108C129.917 73.9645 126.799 70.8464 122.953 70.8464C119.278 70.8464 116.268 73.6919 116.007 77.2995H105.681ZM3.45179 79.2995C4.19572 84.2291 5.26531 88.8697 6.6082 93.1214C6.74383 93.0526 6.89724 93.0139 7.0597 93.0139H43.7355C42.4842 88.722 41.4975 84.1227 40.8092 79.2995H3.45179ZM50.4146 79.2995C51.1536 84.0112 52.1989 88.4193 53.4924 92.4288C54.7347 88.3674 55.7298 83.9627 56.4336 79.2995H50.4146ZM56.7154 77.2995H50.122C49.5412 73.0278 49.2099 68.5256 49.1692 63.8601H57.6351C57.5959 68.5007 57.2783 73.0017 56.7154 77.2995ZM40.5425 77.2995H3.17C2.60707 73.0017 2.28943 68.5007 2.25022 63.8601L39.6689 63.8601C39.706 68.4682 40.005 72.9674 40.5425 77.2995ZM44.3448 95.0139H7.23279C8.21614 97.8676 9.32606 100.529 10.5453 102.964C15.6849 113.229 22.6005 119.199 29.9427 119.199C36.7948 119.199 43.2754 114 48.2876 104.961C46.7997 101.911 45.4786 98.5785 44.3448 95.0139ZM97.0534 61.8601L59.6348 61.8601C59.5942 57.183 59.2755 52.637 58.709 48.2859H96.0766C96.6707 52.5973 97.0105 57.1452 97.0534 61.8601ZM55.3018 32.4153C56.634 36.705 57.6918 41.3606 58.4292 46.2859H95.7802C94.442 37.8559 92.1225 30.4048 89.1556 24.4789C84.2166 14.6137 78.2707 10.3145 73.1115 10.3145C67.9523 10.3145 62.0064 14.6137 57.0674 24.4789C56.1774 26.2564 55.3457 28.1712 54.5813 30.2084C54.6049 30.2773 54.6284 30.3462 54.6519 30.4153H67.4185C67.7545 26.8821 70.7302 24.1184 74.3514 24.1184C78.1977 24.1184 81.3158 27.2365 81.3158 31.0828C81.3158 34.9291 78.1977 38.0472 74.3514 38.0472C70.9607 38.0472 68.136 35.6242 67.5143 32.4153H55.3018ZM44.4521 30.4153C45.5616 26.9766 46.8464 23.7568 48.2876 20.8024C43.2754 11.7641 36.7948 6.56445 29.9427 6.56445C22.6005 6.56445 15.6849 12.5344 10.5453 22.8C9.37385 25.1399 8.30333 27.688 7.34902 30.4153H44.4521ZM6.70147 32.3492C6.81269 32.3919 6.93346 32.4153 7.0597 32.4153H43.8338C42.5514 36.7497 41.5401 41.4022 40.8348 46.2859H3.47888C4.23892 41.3094 5.33114 36.6293 6.70147 32.3492ZM2.2506 61.8601C2.29199 57.1706 2.61771 52.6241 3.19353 48.2859H40.5647C40.015 52.6592 39.7084 57.204 39.6692 61.8601L2.2506 61.8601ZM53.4924 33.335C52.2152 37.2939 51.1801 41.6413 50.4428 46.2859H56.4065C55.7044 41.6888 54.7188 37.3446 53.4924 33.335ZM56.6918 48.2859H50.1464C49.5523 52.5973 49.2126 57.1452 49.1696 61.8601H57.6348C57.5934 57.1706 57.2677 52.6241 56.6918 48.2859Z" fill="url(#paint0_linear)"/>
<defs>
<linearGradient id="paint0_linear" x1="135.493" y1="63.8882" x2="-13.5748" y2="59.6478" gradientUnits="userSpaceOnUse">
<stop stop-color="#2950C9"/>
<stop offset="1" stop-color="#55006E"/>
</linearGradient>
</defs>
</svg>
