<svg width="143" height="144" viewBox="0 0 143 144" fill="none" xmlns="http://www.w3.org/2000/svg">
<path fill-rule="evenodd" clip-rule="evenodd" d="M69.1136 2.9834C68.2973 2.9834 67.4845 2.99801 66.6753 3.02697C66.1234 3.04673 65.6599 2.61532 65.6402 2.06339C65.6204 1.51146 66.0518 1.04801 66.6038 1.02825C67.4368 0.998433 68.2735 0.983398 69.1136 0.983398C69.9538 0.983398 70.7905 0.998433 71.6235 1.02825C72.1754 1.04801 72.6068 1.51146 72.5871 2.06339C72.5673 2.61532 72.1039 3.04673 71.552 3.02697C70.7428 2.99801 69.9299 2.9834 69.1136 2.9834ZM60.7421 2.48667C60.8175 3.03379 60.4351 3.53844 59.888 3.61385C58.2713 3.8367 56.673 4.11728 55.0954 4.45343C54.5553 4.56852 54.0241 4.22394 53.909 3.68378C53.7939 3.14362 54.1385 2.61243 54.6786 2.49734C56.3037 2.15108 57.9498 1.8621 59.6149 1.63259C60.162 1.55717 60.6667 1.93956 60.7421 2.48667ZM78.6123 1.63259C78.0652 1.55717 77.5606 1.93956 77.4852 2.48667C77.4098 3.03379 77.7921 3.53844 78.3393 3.61385C79.956 3.8367 81.5542 4.11728 83.1319 4.45343C83.672 4.56852 84.2032 4.22394 84.3183 3.68378C84.4334 3.14362 84.0888 2.61243 83.5487 2.49734C81.9236 2.15108 80.2774 1.8621 78.6123 1.63259ZM49.1586 4.95357C49.3284 5.47911 49.0401 6.04279 48.5145 6.21259C46.9647 6.71334 45.4396 7.2691 43.9414 7.87755C43.4297 8.08537 42.8465 7.83903 42.6386 7.32733C42.4308 6.81564 42.6772 6.23236 43.1888 6.02454C44.732 5.39779 46.3031 4.8253 47.8996 4.30946C48.4252 4.13966 48.9888 4.42804 49.1586 4.95357ZM90.3276 4.30946C89.8021 4.13966 89.2384 4.42804 89.0686 4.95358C88.8988 5.47911 89.1872 6.04279 89.7127 6.21259C91.2626 6.71335 92.7877 7.2691 94.2858 7.87755C94.7975 8.08537 95.3808 7.83903 95.5886 7.32734C95.7965 6.81564 95.5501 6.23236 95.0384 6.02454C93.4952 5.39779 91.9242 4.8253 90.3276 4.30946ZM38.1842 9.40804C38.4432 9.89583 38.2577 10.5012 37.7699 10.7602C36.3338 11.5227 34.9287 12.336 33.557 13.1977C33.0894 13.4914 32.4721 13.3505 32.1783 12.8828C31.8845 12.4152 32.0255 11.7979 32.4931 11.5041C33.9058 10.6167 35.3529 9.77909 36.832 8.99375C37.3198 8.73476 37.9252 8.92025 38.1842 9.40804ZM101.395 8.99375C100.907 8.73476 100.302 8.92025 100.043 9.40804C99.7841 9.89584 99.9696 10.5012 100.457 10.7602C101.894 11.5227 103.299 12.336 104.67 13.1977C105.138 13.4914 105.755 13.3505 106.049 12.8828C106.343 12.4152 106.202 11.7979 105.734 11.5041C104.322 10.6167 102.874 9.77909 101.395 8.99375ZM28.1531 15.7065C28.4928 16.1419 28.4151 16.7703 27.9796 17.11C26.6992 18.1088 25.4561 19.1531 24.2526 20.2405C23.8429 20.6108 23.2105 20.5788 22.8402 20.169C22.47 19.7592 22.502 19.1269 22.9118 18.7566C24.151 17.6369 25.4311 16.5615 26.7495 15.533C27.185 15.1934 27.8134 15.271 28.1531 15.7065ZM111.478 15.533C111.042 15.1934 110.414 15.271 110.074 15.7065C109.735 16.1419 109.812 16.7703 110.248 17.11C111.528 18.1088 112.771 19.1531 113.975 20.2405C114.384 20.6108 115.017 20.5788 115.387 20.169C115.757 19.7592 115.725 19.1269 115.316 18.7566C114.076 17.6369 112.796 16.5615 111.478 15.533ZM19.3634 23.6459C19.7731 24.0162 19.8052 24.6485 19.4349 25.0583C18.3474 26.2618 17.3031 27.5049 16.3044 28.7853C15.9647 29.2208 15.3363 29.2984 14.9008 28.9587C14.4653 28.619 14.3877 27.9907 14.7274 27.5552C15.7559 26.2367 16.8312 24.9566 17.951 23.7174C18.3212 23.3076 18.9536 23.2756 19.3634 23.6459ZM120.276 23.7174C119.906 23.3077 119.274 23.2756 118.864 23.6459C118.454 24.0162 118.422 24.6485 118.792 25.0583C119.88 26.2618 120.924 27.5049 121.923 28.7853C122.263 29.2208 122.891 29.2984 123.326 28.9587C123.762 28.619 123.84 27.9907 123.5 27.5552C122.471 26.2367 121.396 24.9566 120.276 23.7174ZM12.0772 32.984C12.5448 33.2778 12.6858 33.895 12.392 34.3627C11.5303 35.7343 10.717 37.1394 9.95455 38.5756C9.69556 39.0633 9.09017 39.2488 8.60238 38.9898C8.11458 38.7308 7.9291 38.1255 8.18809 37.6377C8.97343 36.1585 9.81103 34.7114 10.6984 33.2988C10.9922 32.8311 11.6095 32.6902 12.0772 32.984ZM127.529 33.2988C127.235 32.8311 126.618 32.6902 126.15 32.984C125.682 33.2778 125.541 33.895 125.835 34.3627C126.697 35.7344 127.51 37.1394 128.273 38.5756C128.532 39.0633 129.137 39.2488 129.625 38.9898C130.113 38.7309 130.298 38.1255 130.039 37.6377C129.254 36.1585 128.416 34.7114 127.529 33.2988ZM6.52167 43.4443C7.03336 43.6521 7.2797 44.2354 7.07188 44.7471C6.46343 46.2452 5.90768 47.7704 5.40693 49.3202C5.23713 49.8457 4.67345 50.1341 4.14791 49.9643C3.62238 49.7945 3.334 49.2308 3.5038 48.7053C4.01964 47.1088 4.59212 45.5377 5.21888 43.9945C5.4267 43.4828 6.00998 43.2365 6.52167 43.4443ZM133.008 43.9945C132.801 43.4828 132.217 43.2365 131.706 43.4443C131.194 43.6521 130.948 44.2354 131.155 44.7471C131.764 46.2452 132.32 47.7704 132.82 49.3202C132.99 49.8457 133.554 50.1341 134.079 49.9643C134.605 49.7945 134.893 49.2308 134.723 48.7053C134.208 47.1088 133.635 45.5377 133.008 43.9945ZM2.87812 54.7146C3.41828 54.8297 3.76286 55.3609 3.64776 55.9011C3.31161 57.4787 3.03104 59.0769 2.80819 60.6937C2.73278 61.2408 2.22812 61.6232 1.68101 61.5478C1.1339 61.4724 0.75151 60.9677 0.826922 60.4206C1.05643 58.7555 1.34542 57.1093 1.69168 55.4843C1.80677 54.9441 2.33796 54.5995 2.87812 54.7146ZM136.536 55.4843C136.421 54.9441 135.889 54.5995 135.349 54.7146C134.809 54.8297 134.464 55.3609 134.579 55.9011C134.916 57.4787 135.196 59.0769 135.419 60.6937C135.494 61.2408 135.999 61.6232 136.546 61.5478C137.093 61.4724 137.476 60.9677 137.4 60.4206C137.171 58.7555 136.882 57.1093 136.536 55.4843ZM1.25772 66.4458C1.80965 66.4656 2.24107 66.929 2.22131 67.481C2.19234 68.2901 2.17773 69.103 2.17773 69.9193C2.17773 70.7356 2.19234 71.5485 2.22131 72.3576C2.24107 72.9095 1.80965 73.373 1.25772 73.3927C0.705791 73.4125 0.242346 72.9811 0.222588 72.4292C0.192769 71.5962 0.177734 70.7595 0.177734 69.9193C0.177734 69.0791 0.192769 68.2424 0.222588 67.4094C0.242346 66.8575 0.705792 66.4261 1.25772 66.4458ZM2.80819 79.1449C2.73278 78.5978 2.22812 78.2154 1.68101 78.2908C1.1339 78.3662 0.751509 78.8709 0.826921 79.418C1.05643 81.0831 1.34542 82.7293 1.69167 84.3543C1.80677 84.8945 2.33796 85.2391 2.87812 85.124C3.41828 85.0089 3.76286 84.4777 3.64776 83.9375C3.31161 82.3599 3.03104 80.7617 2.80819 79.1449ZM4.14791 89.8743C4.67344 89.7045 5.23712 89.9929 5.40692 90.5184C5.90768 92.0682 6.46343 93.5934 7.07188 95.0915C7.2797 95.6032 7.03336 96.1865 6.52167 96.3943C6.00998 96.6021 5.4267 96.3558 5.21888 95.8441C4.59212 94.3009 4.01964 92.7298 3.5038 91.1333C3.334 90.6078 3.62238 90.0441 4.14791 89.8743ZM9.95455 101.263C9.69556 100.775 9.09017 100.59 8.60238 100.849C8.11458 101.108 7.9291 101.713 8.18809 102.201C8.97342 103.68 9.81103 105.127 10.6984 106.54C10.9922 107.007 11.6095 107.148 12.0772 106.855C12.5448 106.561 12.6858 105.944 12.392 105.476C11.5303 104.104 10.717 102.699 9.95455 101.263ZM14.9008 110.88C15.3363 110.54 15.9647 110.618 16.3044 111.053C17.3031 112.334 18.3474 113.577 19.4349 114.78C19.8052 115.19 19.7731 115.822 19.3634 116.193C18.9536 116.563 18.3212 116.531 17.9509 116.121C16.8312 114.882 15.7559 113.602 14.7274 112.283C14.3877 111.848 14.4653 111.22 14.9008 110.88ZM24.2526 119.598C23.8429 119.228 23.2105 119.26 22.8402 119.67C22.47 120.079 22.502 120.712 22.9118 121.082C24.151 122.202 25.431 123.277 26.7495 124.306C27.185 124.645 27.8134 124.568 28.1531 124.132C28.4928 123.697 28.4151 123.068 27.9796 122.729C26.6992 121.73 25.4561 120.685 24.2526 119.598ZM32.1783 126.956C32.4721 126.488 33.0894 126.347 33.557 126.641C34.9287 127.503 36.3338 128.316 37.7699 129.078C38.2577 129.337 38.4432 129.943 38.1842 130.431C37.9252 130.918 37.3198 131.104 36.832 130.845C35.3529 130.059 33.9057 129.222 32.4931 128.334C32.0255 128.041 31.8845 127.423 32.1783 126.956ZM43.9414 131.961C43.4297 131.753 42.8465 132 42.6386 132.511C42.4308 133.023 42.6772 133.606 43.1888 133.814C44.732 134.441 46.3031 135.013 47.8996 135.529C48.4252 135.699 48.9888 135.411 49.1586 134.885C49.3284 134.359 49.0401 133.796 48.5145 133.626C46.9647 133.125 45.4396 132.569 43.9414 131.961ZM53.909 136.155C54.0241 135.615 54.5552 135.27 55.0954 135.385C56.673 135.721 58.2713 136.002 59.888 136.225C60.4351 136.3 60.8175 136.805 60.7421 137.352C60.6667 137.899 60.162 138.281 59.6149 138.206C57.9498 137.977 56.3037 137.688 54.6786 137.341C54.1385 137.226 53.7939 136.695 53.909 136.155ZM15.9375 69.9201C15.9375 40.5518 39.7452 16.7441 69.1135 16.7441C98.4818 16.7441 122.289 40.5518 122.289 69.9201C122.289 78.0653 120.459 85.7801 117.188 92.678C116.951 93.177 117.164 93.7734 117.663 94.01C118.162 94.2467 118.758 94.034 118.995 93.535C122.39 86.3749 124.289 78.3679 124.289 69.9201C124.289 39.4473 99.5864 14.7441 69.1135 14.7441C38.6406 14.7441 13.9375 39.4473 13.9375 69.9201C13.9375 100.393 38.6406 125.096 69.1135 125.096C80.1496 125.096 90.4317 121.855 99.0563 116.272C99.52 115.972 99.6525 115.353 99.3524 114.889C99.0523 114.426 98.4332 114.293 97.9696 114.593C89.6589 119.973 79.7525 123.096 69.1135 123.096C39.7452 123.096 15.9375 99.2884 15.9375 69.9201ZM69.1136 77.7696C73.4496 77.7696 76.9647 74.2545 76.9647 69.9185C76.9647 65.5824 73.4496 62.0674 69.1136 62.0674C64.7775 62.0674 61.2625 65.5824 61.2625 69.9185C61.2625 74.2545 64.7775 77.7696 69.1136 77.7696ZM89.251 69.9197C89.251 58.7981 80.2351 49.7822 69.1135 49.7822C57.9919 49.7822 48.976 58.7981 48.976 69.9197C48.976 81.0413 57.9919 90.0572 69.1135 90.0572C80.2351 90.0572 89.251 81.0413 89.251 69.9197ZM69.1135 51.7822C79.1305 51.7822 87.251 59.9027 87.251 69.9197C87.251 79.9368 79.1305 88.0572 69.1135 88.0572C59.0964 88.0572 50.976 79.9368 50.976 69.9197C50.976 59.9027 59.0964 51.7822 69.1135 51.7822ZM69.1135 29.0488C46.5417 29.0488 28.2437 47.3469 28.2437 69.9187C28.2437 92.4905 46.5417 110.789 69.1135 110.789C79.7639 110.789 89.4629 106.715 96.737 100.04L121.213 124.516C123.166 126.469 126.332 126.469 128.284 124.516C130.237 122.564 130.237 119.398 128.284 117.445L103.246 92.4068C107.504 85.956 109.983 78.2269 109.983 69.9187C109.983 47.3469 91.6853 29.0488 69.1135 29.0488ZM38.2437 69.9187C38.2437 52.8697 52.0646 39.0488 69.1135 39.0488C86.1625 39.0488 99.9834 52.8697 99.9834 69.9187C99.9834 86.9677 86.1625 100.789 69.1135 100.789C52.0646 100.789 38.2437 86.9677 38.2437 69.9187ZM75.5586 138.215C75.5586 141.217 73.1249 143.651 70.1227 143.651C67.1205 143.651 64.6868 141.217 64.6868 138.215C64.6868 135.213 67.1205 132.779 70.1227 132.779C73.1249 132.779 75.5586 135.213 75.5586 138.215ZM136.816 75.9676C139.818 75.9676 142.251 73.5338 142.251 70.5316C142.251 67.5294 139.818 65.0957 136.816 65.0957C133.813 65.0957 131.38 67.5294 131.38 70.5316C131.38 73.5338 133.813 75.9676 136.816 75.9676Z" fill="url(#paint0_linear)"/>
<defs>
<linearGradient id="paint0_linear" x1="137.621" y1="77.4736" x2="-3.20657" y2="72.3173" gradientUnits="userSpaceOnUse">
<stop stop-color="#FF9B00"/>
<stop offset="0.26803" stop-color="#DD4C52"/>
<stop offset="0.552201" stop-color="#921E8D"/>
<stop offset="0.809309" stop-color="#521182"/>
</linearGradient>
</defs>
</svg>
