<svg width="115" height="130" viewBox="0 0 115 130" fill="none" xmlns="http://www.w3.org/2000/svg">
<path d="M57.7888 17.8072C62.0745 17.8072 65.6446 14.7434 66.4284 10.6866C72.0179 11.5739 77.3244 13.3084 82.2129 15.7539C82.7068 16.001 83.3076 15.8009 83.5547 15.307C83.8018 14.8131 83.6017 14.2123 83.1077 13.9653C77.9919 11.406 72.4351 9.59823 66.5826 8.68623C66.4135 3.97522 62.5411 0.208008 57.7888 0.208008C53.0365 0.208008 49.1641 3.97519 48.995 8.68618C43.7564 9.50247 38.7546 11.0365 34.0939 13.1848C33.5924 13.416 33.3732 14.01 33.6044 14.5116C33.8356 15.0131 34.4296 15.2323 34.9312 15.0011C39.3799 12.9505 44.1514 11.4799 49.1492 10.6865C49.9329 14.7433 53.5031 17.8072 57.7888 17.8072Z" fill="url(#paint0_linear)"/>
<path d="M57.7888 129.139C62.541 129.139 66.4134 125.372 66.5826 120.661C72.4351 119.749 77.9919 117.941 83.1077 115.382C83.6017 115.135 83.8018 114.534 83.5547 114.04C83.3076 113.546 82.7068 113.346 82.2129 113.593C77.3244 116.039 72.0179 117.773 66.4284 118.661C65.6446 114.604 62.0745 111.54 57.7888 111.54C53.503 111.54 49.9329 114.604 49.1492 118.661C44.1513 117.867 39.3799 116.397 34.9312 114.346C34.4296 114.115 33.8356 114.334 33.6044 114.836C33.3732 115.337 33.5924 115.931 34.0939 116.162C38.7546 118.311 43.7564 119.845 48.995 120.661C49.1641 125.372 53.0365 129.139 57.7888 129.139Z" fill="url(#paint1_linear)"/>
<path d="M3.22518 61.2996C3.5694 55.6449 4.77335 50.222 6.70815 45.1603C10.6149 46.514 15.0572 44.9544 17.2012 41.2408C19.3431 37.531 18.4767 32.91 15.3589 30.2023C18.7042 26.0898 22.6355 22.4728 27.026 19.4784C27.4823 19.1672 27.5999 18.5451 27.2887 18.0888C26.9776 17.6326 26.3554 17.5149 25.8992 17.8261C21.3044 20.9598 17.1941 24.7521 13.7044 29.0674C9.53912 26.8544 4.33706 28.3239 1.95991 32.4412C-0.414967 36.5546 0.908653 41.7884 4.89898 44.292C2.85861 49.5832 1.58926 55.2578 1.22887 61.1781C1.19532 61.7294 1.615 62.2035 2.16626 62.237C2.71753 62.2706 3.19162 61.8509 3.22518 61.2996Z" fill="url(#paint2_linear)"/>
<path d="M98.3762 88.1072C96.2345 91.8168 97.1007 96.4376 100.218 99.1453C97.1766 102.884 93.6506 106.214 89.7355 109.038C89.2876 109.361 89.1865 109.986 89.5096 110.434C89.8327 110.882 90.4577 110.983 90.9056 110.66C95.0068 107.701 98.6966 104.207 101.872 100.28C106.038 102.494 111.24 101.024 113.617 96.9068C115.992 92.7932 114.669 87.5592 110.678 85.0558C112.719 79.7645 113.988 74.0897 114.348 68.1692C114.382 67.6179 113.962 67.1438 113.411 67.1103C112.86 67.0767 112.386 67.4964 112.352 68.0477C112.008 73.7027 110.804 79.1257 108.869 84.1876C104.962 82.8341 100.52 84.3937 98.3762 88.1072Z" fill="url(#paint3_linear)"/>
<path d="M17.201 88.107C15.057 84.3934 10.615 82.8338 6.70828 84.1874C4.77341 79.1255 3.56942 73.7026 3.22518 68.0477C3.19162 67.4964 2.71753 67.0767 2.16627 67.1103C1.615 67.1438 1.19532 67.6179 1.22888 68.1692C1.58928 74.0896 2.85866 79.7643 4.89909 85.0556C0.908499 87.559 -0.415262 92.793 1.95969 96.9066C4.33691 101.024 9.53926 102.493 13.7046 100.28C17.1943 104.595 21.3044 108.388 25.8992 111.521C26.3554 111.832 26.9776 111.715 27.2887 111.258C27.5999 110.802 27.4823 110.18 27.026 109.869C22.6356 106.875 18.7043 103.258 15.359 99.1452C18.4765 96.4374 19.3427 91.8166 17.201 88.107Z" fill="url(#paint4_linear)"/>
<path d="M98.3762 41.2405C100.52 44.9541 104.962 46.5137 108.869 45.1601C110.804 50.2219 112.008 55.6448 112.352 61.2996C112.386 61.8509 112.86 62.2706 113.411 62.237C113.962 62.2035 114.382 61.7294 114.348 61.1781C113.988 55.2578 112.719 49.5831 110.678 44.2919C114.669 41.7884 115.992 36.5545 113.618 32.441C111.24 28.3236 106.038 26.8541 101.873 29.0673C98.6968 25.1401 95.0069 21.6459 90.9056 18.6873C90.4577 18.3642 89.8327 18.4653 89.5096 18.9132C89.1865 19.3611 89.2876 19.9862 89.7355 20.3093C93.6507 23.1336 97.1767 26.4632 100.218 30.2022C97.1007 32.91 96.2344 37.5309 98.3762 41.2405Z" fill="url(#paint5_linear)"/>
<path fill-rule="evenodd" clip-rule="evenodd" d="M92.8465 64.6731C92.8465 84.035 77.1506 99.7309 57.7887 99.7309C38.4268 99.7309 22.7309 84.035 22.7309 64.6731C22.7309 45.3112 38.4268 29.6152 57.7887 29.6152C77.1506 29.6152 92.8465 45.3112 92.8465 64.6731ZM83.3465 64.6731C83.3465 78.7883 71.9039 90.2309 57.7887 90.2309C43.6735 90.2309 32.2309 78.7883 32.2309 64.6731C32.2309 50.5579 43.6735 39.1152 57.7887 39.1152C71.9039 39.1152 83.3465 50.5579 83.3465 64.6731Z" fill="url(#paint6_linear)"/>
<defs>
<linearGradient id="paint0_linear" x1="105.454" y1="65.7187" x2="-9.95896" y2="63.2723" gradientUnits="userSpaceOnUse">
<stop stop-color="#2950C9"/>
<stop offset="1" stop-color="#55006E"/>
</linearGradient>
<linearGradient id="paint1_linear" x1="105.454" y1="65.7187" x2="-9.95896" y2="63.2723" gradientUnits="userSpaceOnUse">
<stop stop-color="#2950C9"/>
<stop offset="1" stop-color="#55006E"/>
</linearGradient>
<linearGradient id="paint2_linear" x1="105.454" y1="65.7187" x2="-9.95896" y2="63.2723" gradientUnits="userSpaceOnUse">
<stop stop-color="#2950C9"/>
<stop offset="1" stop-color="#55006E"/>
</linearGradient>
<linearGradient id="paint3_linear" x1="105.454" y1="65.7187" x2="-9.95896" y2="63.2723" gradientUnits="userSpaceOnUse">
<stop stop-color="#2950C9"/>
<stop offset="1" stop-color="#55006E"/>
</linearGradient>
<linearGradient id="paint4_linear" x1="105.454" y1="65.7187" x2="-9.95896" y2="63.2723" gradientUnits="userSpaceOnUse">
<stop stop-color="#2950C9"/>
<stop offset="1" stop-color="#55006E"/>
</linearGradient>
<linearGradient id="paint5_linear" x1="105.454" y1="65.7187" x2="-9.95896" y2="63.2723" gradientUnits="userSpaceOnUse">
<stop stop-color="#2950C9"/>
<stop offset="1" stop-color="#55006E"/>
</linearGradient>
<linearGradient id="paint6_linear" x1="105.454" y1="65.7187" x2="-9.95896" y2="63.2723" gradientUnits="userSpaceOnUse">
<stop stop-color="#2950C9"/>
<stop offset="1" stop-color="#55006E"/>
</linearGradient>
</defs>
</svg>
