<svg width="136" height="134" viewBox="0 0 136 134" fill="none" xmlns="http://www.w3.org/2000/svg">
<path d="M89.867 34.3789C90.8874 34.3789 91.8854 34.4711 92.8534 34.6474C93.3968 34.7464 93.9175 34.3862 94.0164 33.8428C94.1154 33.2995 93.7551 32.7788 93.2118 32.6798C92.1261 32.4821 91.0082 32.3789 89.867 32.3789H86.83C86.2777 32.3789 85.83 32.8266 85.83 33.3789C85.83 33.9312 86.2777 34.3789 86.83 34.3789H89.867Z" fill="url(#paint0_linear)"/>
<path d="M80.7436 33.3789C80.7436 32.8266 80.2959 32.3789 79.7436 32.3789H73.6696C73.1174 32.3789 72.6696 32.8266 72.6696 33.3789C72.6696 33.9312 73.1174 34.3789 73.6696 34.3789H79.7436C80.2959 34.3789 80.7436 33.9312 80.7436 33.3789Z" fill="url(#paint1_linear)"/>
<path d="M67.5833 33.3789C67.5833 32.8266 67.1356 32.3789 66.5833 32.3789H60.5093C59.957 32.3789 59.5093 32.8266 59.5093 33.3789C59.5093 33.9312 59.957 34.3789 60.5093 34.3789H66.5833C67.1356 34.3789 67.5833 33.9312 67.5833 33.3789Z" fill="url(#paint2_linear)"/>
<path d="M54.423 33.3789C54.423 32.8266 53.9752 32.3789 53.423 32.3789H47.349C46.7967 32.3789 46.349 32.8266 46.349 33.3789C46.349 33.9312 46.7967 34.3789 47.349 34.3789H53.423C53.9752 34.3789 54.423 33.9312 54.423 33.3789Z" fill="url(#paint3_linear)"/>
<path d="M41.2626 33.3789C41.2626 32.8266 40.8149 32.3789 40.2626 32.3789H34.1886C33.6363 32.3789 33.1886 32.8266 33.1886 33.3789C33.1886 33.9312 33.6363 34.3789 34.1886 34.3789H40.2626C40.8149 34.3789 41.2626 33.9312 41.2626 33.3789Z" fill="url(#paint4_linear)"/>
<path d="M99.0164 35.9159C98.7023 36.3701 98.8159 36.993 99.2701 37.3072C100.919 38.4475 102.351 39.8797 103.492 41.5287C103.806 41.983 104.429 42.0966 104.883 41.7824C105.337 41.4683 105.451 40.8454 105.137 40.3912C103.859 38.5438 102.255 36.9397 100.408 35.6622C99.9535 35.348 99.3306 35.4616 99.0164 35.9159Z" fill="url(#paint5_linear)"/>
<path d="M106.956 46.7824C106.413 46.8814 106.052 47.4021 106.151 47.9454C106.328 48.9134 106.42 49.9115 106.42 50.9319V54.2413C106.42 54.7936 106.868 55.2413 107.42 55.2413C107.972 55.2413 108.42 54.7936 108.42 54.2413V50.9319C108.42 49.7907 108.317 48.6727 108.119 47.5871C108.02 47.0437 107.499 46.6835 106.956 46.7824Z" fill="url(#paint6_linear)"/>
<path d="M107.42 60.9634C106.868 60.9634 106.42 61.4111 106.42 61.9634V68.5824C106.42 69.1347 106.868 69.5824 107.42 69.5824C107.972 69.5824 108.42 69.1347 108.42 68.5824V61.9634C108.42 61.4111 107.972 60.9634 107.42 60.9634Z" fill="url(#paint7_linear)"/>
<path fill-rule="evenodd" clip-rule="evenodd" d="M135.176 22.9055C135.176 10.4501 125.078 0.352539 112.623 0.352539H42.23C29.7743 0.352539 19.677 10.4501 19.677 22.9055V32.3789H19.4744C9.22784 32.3789 0.921387 40.6856 0.921387 50.9319V132.023C0.921387 132.428 1.16503 132.792 1.5387 132.947C1.91238 133.102 2.34249 133.016 2.62849 132.73L26.4747 108.884H89.867C100.114 108.884 108.42 100.578 108.42 90.3313V84.8579H112.623C125.078 84.8579 135.176 74.7604 135.176 62.305V22.9055ZM112.623 10.3525C119.555 10.3525 125.176 15.9729 125.176 22.9055V62.305C125.176 69.2376 119.555 74.8579 112.623 74.8579H48.8161C47.49 74.8579 46.2182 75.3847 45.2805 76.3224L29.677 91.9259V22.9055C29.677 15.9729 35.2972 10.3525 42.23 10.3525H112.623ZM106.42 84.8579H50.8871L28.8607 106.884H89.867C99.0089 106.884 106.42 99.4731 106.42 90.3313V84.8579ZM23.6418 108.889C23.3448 108.826 23.0509 108.735 22.7636 108.616C20.8952 107.842 19.677 106.019 19.677 103.997V34.3789H19.4744C10.3324 34.3789 2.92139 41.7901 2.92139 50.9319V129.609L23.6418 108.889Z" fill="url(#paint8_linear)"/>
<defs>
<linearGradient id="paint0_linear" x1="113.807" y1="140.844" x2="-2.18951" y2="66.5519" gradientUnits="userSpaceOnUse">
<stop stop-color="#FF9B00"/>
<stop offset="0.26803" stop-color="#DD4C52"/>
<stop offset="0.552201" stop-color="#921E8D"/>
<stop offset="0.809309" stop-color="#521182"/>
</linearGradient>
<linearGradient id="paint1_linear" x1="113.807" y1="140.844" x2="-2.18951" y2="66.5519" gradientUnits="userSpaceOnUse">
<stop stop-color="#FF9B00"/>
<stop offset="0.26803" stop-color="#DD4C52"/>
<stop offset="0.552201" stop-color="#921E8D"/>
<stop offset="0.809309" stop-color="#521182"/>
</linearGradient>
<linearGradient id="paint2_linear" x1="113.807" y1="140.844" x2="-2.18951" y2="66.5519" gradientUnits="userSpaceOnUse">
<stop stop-color="#FF9B00"/>
<stop offset="0.26803" stop-color="#DD4C52"/>
<stop offset="0.552201" stop-color="#921E8D"/>
<stop offset="0.809309" stop-color="#521182"/>
</linearGradient>
<linearGradient id="paint3_linear" x1="113.807" y1="140.844" x2="-2.18951" y2="66.5519" gradientUnits="userSpaceOnUse">
<stop stop-color="#FF9B00"/>
<stop offset="0.26803" stop-color="#DD4C52"/>
<stop offset="0.552201" stop-color="#921E8D"/>
<stop offset="0.809309" stop-color="#521182"/>
</linearGradient>
<linearGradient id="paint4_linear" x1="113.807" y1="140.844" x2="-2.18951" y2="66.5519" gradientUnits="userSpaceOnUse">
<stop stop-color="#FF9B00"/>
<stop offset="0.26803" stop-color="#DD4C52"/>
<stop offset="0.552201" stop-color="#921E8D"/>
<stop offset="0.809309" stop-color="#521182"/>
</linearGradient>
<linearGradient id="paint5_linear" x1="113.807" y1="140.844" x2="-2.18951" y2="66.5519" gradientUnits="userSpaceOnUse">
<stop stop-color="#FF9B00"/>
<stop offset="0.26803" stop-color="#DD4C52"/>
<stop offset="0.552201" stop-color="#921E8D"/>
<stop offset="0.809309" stop-color="#521182"/>
</linearGradient>
<linearGradient id="paint6_linear" x1="113.807" y1="140.844" x2="-2.18951" y2="66.5519" gradientUnits="userSpaceOnUse">
<stop stop-color="#FF9B00"/>
<stop offset="0.26803" stop-color="#DD4C52"/>
<stop offset="0.552201" stop-color="#921E8D"/>
<stop offset="0.809309" stop-color="#521182"/>
</linearGradient>
<linearGradient id="paint7_linear" x1="113.807" y1="140.844" x2="-2.18951" y2="66.5519" gradientUnits="userSpaceOnUse">
<stop stop-color="#FF9B00"/>
<stop offset="0.26803" stop-color="#DD4C52"/>
<stop offset="0.552201" stop-color="#921E8D"/>
<stop offset="0.809309" stop-color="#521182"/>
</linearGradient>
<linearGradient id="paint8_linear" x1="113.807" y1="140.844" x2="-2.18951" y2="66.5519" gradientUnits="userSpaceOnUse">
<stop stop-color="#FF9B00"/>
<stop offset="0.26803" stop-color="#DD4C52"/>
<stop offset="0.552201" stop-color="#921E8D"/>
<stop offset="0.809309" stop-color="#521182"/>
</linearGradient>
</defs>
</svg>
