<svg width="129" height="117" viewBox="0 0 129 117" fill="none" xmlns="http://www.w3.org/2000/svg">
<path fill-rule="evenodd" clip-rule="evenodd" d="M82.4861 27.8152C77.9961 25.2383 76.4453 19.5095 79.0222 15.0195C81.5991 10.5295 87.328 8.97867 91.8179 11.5556C96.3079 14.1325 97.8587 19.8614 95.2818 24.3513C92.7049 28.8413 86.9761 30.3922 82.4861 27.8152ZM77.7572 36.0547C73.3998 33.5538 70.4172 29.5787 69.0774 25.1191L65.1768 31.8706L72.0497 43.9101H88.4751L91.9205 37.9467C87.3015 39.1531 82.2248 38.6187 77.7572 36.0547ZM69.7467 43.9101L64.0184 33.8756L58.221 43.9101H69.7467ZM64.0288 29.8597L68.4473 22.2118C67.9066 18.23 68.6279 14.0452 70.7828 10.2907C75.9713 1.25017 87.5063 -1.87241 96.5468 3.31617C105.587 8.50475 108.71 20.0397 103.521 29.0802C101.446 32.6962 98.3552 35.3655 94.8149 36.9348L90.7849 43.9101H98.3558C101.539 41.4628 105.524 40.0078 109.85 40.0078C120.273 40.0078 128.723 48.4578 128.723 58.8814C128.723 69.3051 120.273 77.7551 109.85 77.7551C105.402 77.7551 101.314 76.2168 98.0885 73.6433H89.0232L92.5018 79.7369C97.065 81.0093 101.157 83.9905 103.733 88.4055C108.985 97.4089 105.945 108.966 96.9416 114.218C87.9382 119.471 76.3814 116.431 71.1286 107.427C69.151 104.038 68.3489 100.286 68.598 96.6453L64.4826 89.4362L60.8812 95.6697C61.3918 99.616 60.6636 103.755 58.53 107.473C53.3415 116.513 41.8065 119.636 32.766 114.447C23.7255 109.259 20.603 97.7237 25.7915 88.6832C27.8888 85.0289 31.0231 82.3416 34.6104 80.7792L38.733 73.6433H31.2247C27.9989 76.2168 23.9108 77.7551 19.4635 77.7551C9.03986 77.7551 0.589844 69.3051 0.589844 58.8814C0.589844 48.4578 9.03986 40.0078 19.4635 40.0078C23.7889 40.0078 27.7744 41.4628 30.9574 43.9101H38.4934L34.7267 37.3118C31.0156 35.7945 27.7568 33.0877 25.5803 29.3571C20.3275 20.3538 23.368 8.79691 32.3713 3.54415C41.3747 -1.70861 52.9315 1.33185 58.1843 10.3352C60.5973 14.4712 61.2602 19.146 60.3989 23.5011L64.0288 29.8597ZM37.5451 38.2147C42.0907 39.2888 47.0404 38.6877 51.3932 36.1482C55.3838 33.82 58.203 30.2533 59.6478 26.2194L62.8704 31.8647L55.9112 43.9101H40.7964L37.5451 38.2147ZM39.6352 45.9101H33.1734C36.3741 49.292 38.3371 53.8575 38.3371 58.8814C38.3371 63.8024 36.4538 68.2836 33.3686 71.6433H39.8885L47.1501 59.0744L39.6352 45.9101ZM48.3085 57.0694L41.9381 45.9101H54.7557L48.3085 57.0694ZM49.4565 59.0804L57.0655 45.9101H70.8885L79.0548 60.2155L72.4525 71.6433H56.6282L49.4565 59.0804ZM48.2981 61.0854L42.1983 71.6433H54.3253L48.2981 61.0854ZM55.467 73.6433H41.0428L37.4909 79.7912C42.0835 78.618 47.1198 79.1629 51.5556 81.7087C55.9441 84.2275 58.9382 88.2417 60.2639 92.7402L63.3346 87.4252L55.467 73.6433ZM65.6409 87.4312L69.0882 93.47C70.2556 88.657 73.3041 84.3073 77.9197 81.6145C81.6809 79.4201 85.8877 78.6731 89.8943 79.2034L86.7203 73.6433H73.6068L65.6409 87.4312ZM87.8815 71.6433H95.9446C92.8594 68.2836 90.9761 63.8024 90.9761 58.8814C90.9761 53.8575 92.939 49.292 96.1398 45.9101H89.6294L81.3612 60.2215L87.8815 71.6433ZM80.2028 62.2264L85.5786 71.6433H74.7623L80.2028 62.2264ZM80.2132 58.2105L87.3196 45.9101H73.1914L80.2132 58.2105ZM64.4929 85.4202L57.7699 73.6433H71.297L64.4929 85.4202ZM46.6059 27.9426C42.1344 30.5514 36.3947 29.0413 33.7859 24.5698C31.1771 20.0983 32.6871 14.3585 37.1586 11.7497C41.6302 9.14094 47.3699 10.651 49.9787 15.1225C52.5875 19.5941 51.0775 25.3338 46.6059 27.9426ZM19.4635 68.2551C24.6404 68.2551 28.8371 64.0583 28.8371 58.8814C28.8371 53.7045 24.6404 49.5078 19.4635 49.5078C14.2866 49.5078 10.0898 53.7045 10.0898 58.8814C10.0898 64.0583 14.2866 68.2551 19.4635 68.2551ZM109.85 68.2551C115.027 68.2551 119.223 64.0583 119.223 58.8814C119.223 53.7045 115.027 49.5078 109.85 49.5078C104.673 49.5078 100.476 53.7045 100.476 58.8814C100.476 64.0583 104.673 68.2551 109.85 68.2551ZM79.3342 102.64C81.943 107.112 87.6827 108.622 92.1543 106.013C96.6258 103.404 98.1358 97.6644 95.5271 93.1928C92.9183 88.7213 87.1785 87.2113 82.707 89.82C78.2355 92.4288 76.7254 98.1686 79.3342 102.64ZM34.031 93.4121C31.4541 97.9021 33.0049 103.631 37.4949 106.208C41.9848 108.785 47.7137 107.234 50.2906 102.744C52.8675 98.254 51.3167 92.5251 46.8267 89.9482C42.3367 87.3713 36.6079 88.9221 34.031 93.4121Z" fill="url(#paint0_linear)"/>
<defs>
<linearGradient id="paint0_linear" x1="118.223" y1="59.8232" x2="-11.4454" y2="56.3944" gradientUnits="userSpaceOnUse">
<stop stop-color="#2950C9"/>
<stop offset="1" stop-color="#55006E"/>
</linearGradient>
</defs>
</svg>
