<svg width="130" height="126" viewBox="0 0 130 126" fill="none" xmlns="http://www.w3.org/2000/svg">
<path fill-rule="evenodd" clip-rule="evenodd" d="M0.365234 20.2695C0.365234 9.3619 9.20761 0.519531 20.1152 0.519531H110.149C121.057 0.519531 129.899 9.36191 129.899 20.2695V74.2517C129.899 85.0458 121.24 93.8174 110.489 93.9988V111.581C110.489 119.313 104.221 125.581 96.4888 125.581H34.6714C26.9394 125.581 20.6714 119.313 20.6714 111.581V94.0017H20.1152C9.20761 94.0017 0.365234 85.1593 0.365234 74.2517V20.2695ZM120.399 74.2517C120.399 79.7989 115.992 84.3168 110.489 84.4962V43.291C110.489 35.559 104.221 29.291 96.4888 29.291H34.6714C26.9394 29.291 20.6714 35.559 20.6714 43.291V84.5017H20.1152C14.4543 84.5017 9.86523 79.9126 9.86523 74.2517V20.2695C9.86523 14.6086 14.4543 10.0195 20.1152 10.0195H110.149C115.81 10.0195 120.399 14.6086 120.399 20.2695V74.2517ZM16.2102 17.3316C14.8486 19.6899 15.6566 22.7054 18.0149 24.0669C20.3731 25.4284 23.3886 24.6204 24.7502 22.2622C26.1117 19.9039 25.3037 16.8884 22.9455 15.5269C20.5872 14.1654 17.5717 14.9734 16.2102 17.3316ZM28.6622 17.3316C27.3007 19.6899 28.1087 22.7054 30.4669 24.0669C32.8252 25.4284 35.8407 24.6204 37.2022 22.2622C38.5637 19.9039 37.7557 16.8884 35.3975 15.5269C33.0392 14.1654 30.0238 14.9734 28.6622 17.3316ZM42.9191 24.0669C40.5608 22.7054 39.7528 19.6899 41.1144 17.3316C42.4759 14.9734 45.4914 14.1654 47.8496 15.5269C50.2079 16.8884 51.0159 19.9039 49.6543 22.2622C48.2928 24.6204 45.2773 25.4284 42.9191 24.0669ZM34.6714 31.291H96.4888C103.116 31.291 108.489 36.6636 108.489 43.291V111.581C108.489 118.209 103.116 123.581 96.4888 123.581H34.6714C28.044 123.581 22.6714 118.209 22.6714 111.581V43.291C22.6714 36.6636 28.044 31.291 34.6714 31.291ZM27.4567 88.252C26.9044 88.252 26.4567 88.6997 26.4567 89.252C26.4567 89.8042 26.9044 90.252 27.4567 90.252H30.5114C31.0637 90.252 31.5114 89.8042 31.5114 89.252C31.5114 88.6997 31.0637 88.252 30.5114 88.252H27.4567ZM36.6208 88.252C36.0685 88.252 35.6208 88.6997 35.6208 89.252C35.6208 89.8042 36.0685 90.252 36.6208 90.252H39.6755C40.2278 90.252 40.6755 89.8042 40.6755 89.252C40.6755 88.6997 40.2278 88.252 39.6755 88.252H36.6208ZM45.7849 88.252C45.2326 88.252 44.7849 88.6997 44.7849 89.252C44.7849 89.8042 45.2326 90.252 45.7849 90.252H48.8396C49.3919 90.252 49.8396 89.8042 49.8396 89.252C49.8396 88.6997 49.3919 88.252 48.8396 88.252H45.7849ZM54.949 88.252C54.3967 88.252 53.949 88.6997 53.949 89.252C53.949 89.8042 54.3967 90.252 54.949 90.252H58.0037C58.556 90.252 59.0037 89.8042 59.0037 89.252C59.0037 88.6997 58.556 88.252 58.0037 88.252H54.949ZM64.1131 88.252C63.5608 88.252 63.1131 88.6997 63.1131 89.252C63.1131 89.8042 63.5608 90.252 64.1131 90.252H67.1678C67.7201 90.252 68.1678 89.8042 68.1678 89.252C68.1678 88.6997 67.7201 88.252 67.1678 88.252H64.1131ZM73.2772 88.252C72.7249 88.252 72.2772 88.6997 72.2772 89.252C72.2772 89.8042 72.7249 90.252 73.2772 90.252H76.3319C76.8842 90.252 77.3319 89.8042 77.3319 89.252C77.3319 88.6997 76.8842 88.252 76.3319 88.252H73.2772ZM82.4413 88.252C81.889 88.252 81.4413 88.6997 81.4413 89.252C81.4413 89.8042 81.889 90.252 82.4413 90.252H85.496C86.0483 90.252 86.496 89.8042 86.496 89.252C86.496 88.6997 86.0483 88.252 85.496 88.252H82.4413ZM91.6054 88.252C91.0531 88.252 90.6054 88.6997 90.6054 89.252C90.6054 89.8042 91.0531 90.252 91.6054 90.252H94.6601C95.2124 90.252 95.6601 89.8042 95.6601 89.252C95.6601 88.6997 95.2124 88.252 94.6601 88.252H91.6054ZM100.769 88.252C100.217 88.252 99.7695 88.6997 99.7695 89.252C99.7695 89.8042 100.217 90.252 100.769 90.252H103.824C104.376 90.252 104.824 89.8042 104.824 89.252C104.824 88.6997 104.376 88.252 103.824 88.252H100.769Z" fill="url(#paint0_linear)"/>
<defs>
<linearGradient id="paint0_linear" x1="119.284" y1="64.0641" x2="-11.8123" y2="60.8095" gradientUnits="userSpaceOnUse">
<stop stop-color="#2950C9"/>
<stop offset="1" stop-color="#55006E"/>
</linearGradient>
</defs>
</svg>
