<svg width="210" height="187" viewBox="0 0 210 187" fill="none" xmlns="http://www.w3.org/2000/svg">
<g opacity="0.8">
<path opacity="0.2" d="M61.2829 0.619629C51.7102 0.619629 43.9502 8.37982 43.9502 17.9523C43.9502 24.421 47.501 30.0527 52.7535 33.0305L58.0824 23.7204C56.0492 22.5885 56.0167 20.5139 56.0167 18.0222C56.0167 14.3633 58.2594 12.4866 61.9186 12.4866C65.5775 12.4866 67.9079 14.2927 67.9084 17.9516H78.6155C78.615 8.37917 70.855 0.619629 61.2829 0.619629Z" fill="url(#paint0_linear)"/>
<path opacity="0.2" d="M148.619 0.619629C139.047 0.619629 131.287 8.37917 131.286 17.9516H141.993C141.994 14.2927 144.96 12.3487 148.619 12.3487C152.278 12.3487 154.498 14.9049 154.498 18.5638C154.498 21.0239 153.888 22.5349 151.897 23.6777L157.224 32.9845C162.434 29.9951 165.952 24.39 165.952 17.9523C165.952 8.37982 158.192 0.619629 148.619 0.619629Z" fill="url(#paint1_linear)"/>
<path opacity="0.2" d="M192.235 76.2322C189.138 76.2322 186.238 77.0536 183.722 78.4763L189.03 87.7994C189.984 87.2679 191.066 86.939 192.235 86.939C195.894 86.939 197.503 89.6001 197.503 93.2592C197.503 96.9183 195.894 100.191 192.235 100.191C191.004 100.191 189.865 99.8325 188.877 99.2476L183.522 108.532C186.084 110.027 189.055 110.898 192.235 110.898C201.807 110.898 209.568 103.137 209.568 93.5649C209.568 83.9922 201.807 76.2322 192.235 76.2322Z" fill="url(#paint2_linear)"/>
<path opacity="0.2" d="M157.271 154.044L151.915 163.332C153.896 164.477 154.408 166.341 154.408 168.794C154.408 172.453 151.996 174.389 148.337 174.389C144.678 174.389 141.993 172.707 141.993 169.048L131.286 169.047C131.286 169.048 131.286 169.048 131.286 169.048C131.286 178.62 139.046 186.381 148.619 186.381C158.192 186.381 165.952 178.62 165.952 169.048C165.952 162.63 162.455 157.041 157.271 154.044Z" fill="url(#paint3_linear)"/>
<path opacity="0.2" d="M67.9086 169.048C67.9086 172.707 65.4786 174.33 61.8193 174.33C58.1601 174.33 55.6595 172.572 55.6595 168.913C55.6595 166.43 56.0385 164.428 58.0593 163.293L52.693 154.007C47.4745 156.994 43.9502 162.604 43.9502 169.048C43.9502 178.621 51.7102 186.381 61.2829 186.381C70.8553 186.381 78.6155 178.621 78.6155 169.048C78.6155 169.047 78.6155 169.047 78.6155 169.047L67.9084 169.046C67.9084 169.047 67.9086 169.047 67.9086 169.048Z" fill="url(#paint4_linear)"/>
<path opacity="0.2" d="M17.7652 100.191C14.1058 100.191 12.8031 97.1578 12.8031 93.4987C12.8031 89.8397 14.1058 86.939 17.7652 86.939C18.9244 86.939 19.9975 87.2627 20.9453 87.7862L26.1214 78.3811C23.6426 77.0142 20.796 76.2322 17.7652 76.2322C8.19257 76.2322 0.432373 83.9922 0.432373 93.5648C0.432373 103.137 8.19257 110.898 17.7652 110.898C20.9256 110.898 23.8795 110.038 26.4307 108.56L21.0665 99.278C20.0911 99.8428 18.9736 100.191 17.7652 100.191Z" fill="url(#paint5_linear)"/>
</g>
<path d="M198.219 91.6732C197.73 89.7861 196.538 88.2035 194.863 87.2172C193.74 86.5553 192.466 86.2055 191.178 86.2055C190.561 86.2055 189.942 86.2849 189.337 86.4417C189.2 86.4772 189.069 86.5302 188.929 86.5866C188.851 86.6181 188.772 86.65 188.692 86.6788C188.667 86.6876 188.642 86.6919 188.617 86.6919C188.541 86.6919 188.467 86.6515 188.427 86.582L152.709 24.7182C152.656 24.6263 152.677 24.5093 152.758 24.4407C153.43 23.8747 153.97 23.2474 154.365 22.5766C155.351 20.9012 155.625 18.9394 155.137 17.052C154.648 15.1646 153.456 13.582 151.781 12.596C151.777 12.5933 151.772 12.5905 151.768 12.5878C150.653 11.9357 149.383 11.5911 148.095 11.5911C145.515 11.5911 143.103 12.9663 141.8 15.1805C141.363 15.9218 141.064 16.7389 140.912 17.6094C140.893 17.7145 140.802 17.7911 140.696 17.7911H69.2944C69.1882 17.7911 69.0969 17.7148 69.0782 17.61C68.9202 16.7209 68.6267 15.9074 68.2071 15.1916C67.2221 13.5119 65.6419 12.3158 63.7579 11.8239C63.1493 11.6655 62.526 11.585 61.9054 11.585C60.6218 11.585 59.3513 11.9326 58.2312 12.5896C54.7636 14.6225 53.596 19.0977 55.6283 22.5653C56.0255 23.2422 56.5683 23.8731 57.2421 24.4407C57.3233 24.5093 57.3438 24.6263 57.2908 24.7182L21.5869 86.5584C21.5468 86.6279 21.4733 86.6683 21.3967 86.6683C21.3716 86.6683 21.3462 86.6641 21.3214 86.6549C20.5106 86.3587 19.6744 86.2086 18.8358 86.2086C14.8157 86.2086 11.5454 89.4792 11.5454 93.4993C11.5454 97.5188 14.8157 100.789 18.8358 100.789C19.6732 100.789 20.5094 100.639 21.321 100.343C21.3456 100.334 21.371 100.33 21.3961 100.33C21.4727 100.33 21.5462 100.37 21.5863 100.44L57.2483 162.208C57.3019 162.3 57.2804 162.419 57.1974 162.487C55.5018 163.88 54.5293 165.933 54.5293 168.12C54.5293 172.139 57.7996 175.409 61.8194 175.409C65.3589 175.409 68.3753 172.877 68.9912 169.389C69.0099 169.284 69.1009 169.208 69.2075 169.208H140.696C140.803 169.208 140.894 169.284 140.912 169.389C141.064 170.256 141.361 171.069 141.793 171.807C142.779 173.488 144.359 174.683 146.243 175.174C146.851 175.332 147.473 175.413 148.094 175.413C149.377 175.413 150.648 175.065 151.77 174.407C153.45 173.424 154.645 171.844 155.137 169.959C155.628 168.075 155.357 166.112 154.372 164.432C153.956 163.723 153.416 163.088 152.767 162.545C152.685 162.476 152.665 162.359 152.718 162.267L188.416 100.436C188.456 100.366 188.53 100.326 188.606 100.326C188.632 100.326 188.657 100.33 188.682 100.339C189.505 100.64 190.336 100.793 191.151 100.793C191.768 100.793 192.387 100.713 192.992 100.557C194.877 100.069 196.459 98.8753 197.447 97.1969C198.434 95.522 198.707 93.5602 198.219 91.6732ZM186.537 87.6604C186.59 87.7523 186.57 87.8693 186.488 87.9379C185.817 88.5037 185.277 89.1303 184.882 89.8008C184.457 90.5221 184.162 91.3393 184.004 92.23C183.985 92.3348 183.894 92.4113 183.787 92.4113L171.02 92.4107C170.904 92.4107 170.808 92.3207 170.801 92.2052C170.18 82.6054 162.602 74.1195 149.461 68.3116C149.373 68.2724 149.32 68.1802 149.332 68.0846C151.09 53.4362 147.451 42.4498 139.085 37.1494C138.985 37.086 138.953 36.9549 139.013 36.8526L145.481 25.8653C145.522 25.7969 145.595 25.7571 145.671 25.7571C145.694 25.7571 145.718 25.7611 145.742 25.7691C146.526 26.0368 147.308 26.1725 148.069 26.1725C148.686 26.1725 149.305 26.0931 149.91 25.9369C150.048 25.9011 150.18 25.8478 150.321 25.7911C150.398 25.7599 150.476 25.7286 150.555 25.6999C150.579 25.691 150.604 25.6867 150.63 25.6867C150.706 25.6867 150.78 25.7271 150.82 25.7966L186.537 87.6604ZM160.081 94.8062C160.081 94.8173 160.08 94.828 160.078 94.8387C160.069 94.8997 160.056 94.9603 160.044 95.0206L160.022 95.1312C159.977 95.3744 159.914 95.6945 159.824 96.0133C159.792 96.1285 159.753 96.2434 159.715 96.3576L159.684 96.448C159.587 96.7405 159.49 97.0021 159.386 97.2471C159.32 97.4045 159.249 97.5613 159.174 97.7182C159.066 97.943 158.943 98.1794 158.796 98.4416L158.767 98.4928C158.678 98.6505 158.589 98.8083 158.491 98.9648C158.386 99.1326 158.271 99.2983 158.155 99.465L157.997 99.6938C157.881 99.8604 157.766 100.027 157.638 100.191C157.612 100.224 157.585 100.256 157.557 100.289C157.536 100.313 157.516 100.336 157.497 100.361C154.102 104.6 147.72 108.339 139.042 111.174C139.019 111.181 138.996 111.185 138.973 111.185C138.936 111.185 138.899 111.175 138.866 111.157C138.813 111.127 138.775 111.077 138.76 111.017C137.478 105.756 135.603 100.243 133.193 94.6225H160.081V94.8062ZM131.738 96.8716C133.798 101.915 135.426 106.91 136.576 111.717C136.604 111.831 136.536 111.947 136.424 111.979C131.627 113.369 126.42 114.43 120.945 115.132C120.935 115.134 120.926 115.134 120.917 115.134C120.84 115.134 120.769 115.094 120.729 115.028C120.684 114.954 120.687 114.86 120.737 114.789C122.675 112.02 124.547 109.118 126.3 106.165C128.094 103.141 129.789 100.01 131.338 96.8578C131.375 96.7824 131.451 96.735 131.535 96.735C131.537 96.735 131.54 96.735 131.543 96.7353C131.629 96.738 131.706 96.7916 131.738 96.8716ZM124.429 105.053C122.552 108.216 120.512 111.333 118.357 114.335L110.242 100.171C111.884 98.8098 113.009 96.8477 113.283 94.6225H130C128.316 98.1506 126.445 101.656 124.429 105.053ZM78.1613 90.165C76.0693 85.0919 74.4261 80.0904 73.2775 75.2994C73.2502 75.1854 73.317 75.0703 73.4297 75.0375C78.2462 73.6374 83.4783 72.5697 88.9808 71.8643C88.99 71.8631 88.9995 71.8625 89.0087 71.8625C89.0849 71.8625 89.1566 71.9023 89.1964 71.9684C89.2414 72.0429 89.2384 72.1369 89.1885 72.208C87.226 75.0112 85.3521 77.913 83.6188 80.8329C81.8157 83.871 80.1142 87.0154 78.5616 90.1782C78.5246 90.2535 78.448 90.301 78.3644 90.301C78.3619 90.301 78.3595 90.301 78.3573 90.3007C78.271 90.2979 78.1944 90.2449 78.1613 90.165ZM85.49 81.9444C87.427 78.6802 89.5297 75.477 91.7457 72.4061L99.8459 86.5446C97.9457 87.881 96.6133 89.9674 96.2791 92.3749H79.9185C81.6044 88.8446 83.4749 85.3393 85.49 81.9444ZM131.619 90.7901C131.618 90.7901 131.617 90.7901 131.616 90.7901C131.531 90.7901 131.453 90.7408 131.417 90.6639C129.915 87.4662 128.272 84.293 126.532 81.2326C124.8 78.1862 122.918 75.1573 120.938 72.23C120.89 72.1586 120.888 72.0655 120.934 71.992C120.974 71.9265 121.045 71.8876 121.12 71.8876C121.13 71.8876 121.139 71.8882 121.149 71.8894C126.748 72.6178 132.061 73.721 136.94 75.1692C137.053 75.2026 137.119 75.3193 137.09 75.4335C135.847 80.3428 134.072 85.4649 131.817 90.6581C131.783 90.7371 131.705 90.7889 131.619 90.7901ZM124.641 82.308C126.499 85.5755 128.225 88.956 129.785 92.3749H113.266C112.957 90.1478 111.793 88.1952 110.117 86.857L118.454 72.4992C120.653 75.6577 122.732 78.9516 124.641 82.308ZM108.191 85.6968C107.144 85.241 105.988 84.9865 104.773 84.9865C103.742 84.9865 102.754 85.1687 101.839 85.502L93.7351 71.3571C97.4654 71.0272 101.235 70.8584 104.96 70.8584C108.799 70.8584 112.676 71.037 116.502 71.3856L108.191 85.6968ZM78.3025 96.2017C78.3034 96.2017 78.3047 96.2017 78.3056 96.2017C78.3907 96.2017 78.4682 96.251 78.5044 96.3282C79.9975 99.5182 81.6402 102.693 83.3867 105.765C85.1276 108.827 87.012 111.856 88.9869 114.768C89.0356 114.839 89.0375 114.933 88.9921 115.006C88.952 115.072 88.8809 115.111 88.8053 115.111C88.7958 115.111 88.7866 115.11 88.7771 115.109C83.1818 114.382 77.8667 113.278 72.9792 111.828C72.8661 111.795 72.8 111.678 72.8288 111.564C74.0735 106.652 75.8485 101.528 78.1043 96.3337C78.1387 96.2547 78.2161 96.2029 78.3025 96.2017ZM85.2777 104.69C83.4099 101.405 81.6763 98.0238 80.1127 94.6225H96.2626C96.5548 96.9947 97.8131 99.0677 99.6346 100.433L91.4556 114.517C89.2699 111.36 87.1936 108.06 85.2777 104.69ZM101.596 101.531C102.578 101.923 103.65 102.141 104.773 102.141C106.045 102.141 107.251 101.862 108.337 101.365L116.498 115.611C112.666 115.96 108.789 116.139 104.96 116.139C101.118 116.139 97.2421 115.961 93.4184 115.613L101.596 101.531ZM139.163 76.1083C139.178 76.0492 139.217 75.9989 139.27 75.9699C139.303 75.9521 139.339 75.9429 139.376 75.9429C139.399 75.9429 139.423 75.9466 139.445 75.9542C147.713 78.7053 153.877 82.3073 157.271 86.3719L157.393 86.5176C157.499 86.6435 157.604 86.7694 157.701 86.8956C157.793 87.0148 157.877 87.1358 157.961 87.2564L158.051 87.3851C158.192 87.5848 158.375 87.8488 158.54 88.1183C158.625 88.2556 158.703 88.3937 158.786 88.5395C158.939 88.8118 159.081 89.0868 159.208 89.3567C159.27 89.4875 159.33 89.6186 159.386 89.7509C159.496 90.0112 159.6 90.293 159.704 90.6134L159.745 90.7338C159.773 90.8195 159.802 90.905 159.826 90.9904C159.921 91.3265 159.984 91.6566 160.029 91.9072L160.049 92.0061C160.059 92.0567 160.07 92.1072 160.078 92.158C160.079 92.1691 160.08 92.1801 160.08 92.1911V92.3749H133.43C135.891 86.823 137.823 81.356 139.163 76.1083ZM139.104 62.0243C139.101 62.1628 139.094 62.3049 139.087 62.447L139.074 62.7172C139.058 63.1325 139.036 63.6263 139 64.1381C138.99 64.2823 138.977 64.4287 138.964 64.5755L138.945 64.8018C138.896 65.3721 138.846 65.8849 138.79 66.3691C138.767 66.5752 138.742 66.7832 138.715 66.9918C138.646 67.5434 138.564 68.1217 138.473 68.7104L138.452 68.8467C138.429 68.9956 138.407 69.1441 138.382 69.2942C138.251 70.0909 138.118 70.8201 137.978 71.5222L137.963 71.6064C137.914 71.8465 137.859 72.0922 137.804 72.3378C137.772 72.4793 137.74 72.6208 137.709 72.7614C137.696 72.8209 137.659 72.8726 137.607 72.9036C137.573 72.9241 137.534 72.9345 137.495 72.9345C137.474 72.9345 137.453 72.9314 137.433 72.9256C132.172 71.3859 126.366 70.2526 120.171 69.542L133.636 46.3535L133.652 46.3611C133.662 46.366 133.672 46.3716 133.681 46.378C133.728 46.4111 133.776 46.4429 133.824 46.4751C133.931 46.5465 134.037 46.6178 134.139 46.6984C134.23 46.7704 134.316 46.8488 134.403 46.9272L134.501 47.016C134.712 47.2013 134.879 47.3578 135.027 47.5097C135.174 47.6604 135.315 47.8188 135.453 47.9808C135.575 48.1223 135.694 48.269 135.81 48.4204C135.947 48.5986 136.107 48.8118 136.259 49.0415C136.312 49.1205 136.362 49.2026 136.412 49.2847L136.473 49.3833C137.257 50.6535 137.875 52.1593 138.308 53.8586L138.336 53.9636C138.429 54.3367 138.518 54.7474 138.608 55.2191L138.661 55.5067C138.736 55.9251 138.8 56.3469 138.853 56.7598C138.865 56.8495 138.875 56.9414 138.885 57.0327L138.899 57.1574C138.957 57.6597 138.995 58.0508 139.023 58.4254C139.03 58.5271 139.035 58.6309 139.039 58.7348L139.05 58.9314C139.082 59.5023 139.102 60.0975 139.107 60.7009L139.107 60.7526C139.111 61.164 139.114 61.5894 139.104 62.0243ZM118.238 68.3952C114.689 63.5451 110.969 59.1954 107.165 55.4669C107.121 55.424 107.097 55.3649 107.099 55.304C107.101 55.2427 107.128 55.1851 107.174 55.145C113.809 49.3365 120.108 45.7914 125.392 44.8931L125.458 44.882C125.596 44.8588 125.733 44.8358 125.869 44.8171C126.119 44.7819 126.367 44.7525 126.612 44.7298C126.9 44.7044 127.197 44.6876 127.494 44.6796C127.545 44.6778 127.596 44.675 127.647 44.6722C127.731 44.6679 127.814 44.6634 127.896 44.6634C127.994 44.6634 128.089 44.6701 128.184 44.6771C128.244 44.6817 128.304 44.686 128.364 44.6885L128.487 44.6928C128.758 44.702 129.037 44.7118 129.306 44.7433C129.708 44.7905 130.115 44.864 130.548 44.9684L130.583 44.9743C130.61 44.9782 130.636 44.9825 130.662 44.9889C130.803 45.0245 130.937 45.0716 131.072 45.1194C131.138 45.1433 131.204 45.1669 131.272 45.1887C131.282 45.192 131.292 45.196 131.301 45.2006L131.617 45.3562L118.238 68.3952ZM115.741 68.7438C115.793 68.8127 115.8 68.9058 115.758 68.9815C115.72 69.0522 115.645 69.0957 115.566 69.0957C115.56 69.0957 115.554 69.0954 115.549 69.0951C112.028 68.8213 108.465 68.6825 104.96 68.6825C101.574 68.6825 98.1221 68.813 94.6996 69.0703C94.6941 69.0706 94.6886 69.0709 94.683 69.0709C94.6025 69.0709 94.5278 69.0265 94.4895 68.9548C94.4484 68.8782 94.4564 68.7845 94.51 68.7162C97.9227 64.3479 101.502 60.4013 105.148 56.9867C105.19 56.9472 105.244 56.9273 105.298 56.9273C105.353 56.9273 105.408 56.9481 105.451 56.9895C108.989 60.4295 112.452 64.384 115.741 68.7438ZM103.461 55.4338C99.5396 59.1375 95.6917 63.4808 92.0079 68.3425L78.6477 45.022C78.6492 45.0214 78.6508 45.0202 78.6526 45.0196C78.678 45.0089 78.7022 44.9963 78.7267 44.9837C78.7669 44.9632 78.8076 44.9427 78.8486 44.9268C78.9099 44.9026 78.9736 44.8839 79.0373 44.8652C79.0784 44.8533 79.1197 44.8413 79.1611 44.8266C79.4419 44.7286 79.7706 44.6174 80.1173 44.5341C80.2095 44.5124 80.3048 44.4973 80.3997 44.4823C80.4551 44.4735 80.5109 44.4649 80.5951 44.4487C80.8696 44.3963 81.1532 44.3424 81.4478 44.3111C81.5881 44.2967 81.7321 44.2909 81.8763 44.2848L82.1667 44.271C82.3704 44.2597 82.5744 44.2486 82.7833 44.2486L82.8439 44.2489C82.9671 44.2505 83.0923 44.2569 83.2176 44.2633L83.3441 44.2695C83.5949 44.2814 83.8596 44.3019 84.1493 44.3316C84.3729 44.3552 84.5968 44.3791 84.8238 44.4134C84.9212 44.4278 85.0204 44.4462 85.1197 44.4646L85.278 44.4934C90.5741 45.4447 96.8608 49.1166 103.458 55.1116C103.504 55.153 103.53 55.2112 103.53 55.2721C103.531 55.3334 103.506 55.3919 103.461 55.4338ZM76.2648 46.4938C76.2969 46.4659 76.3297 46.4386 76.3876 46.3942L76.7257 46.1887L90.0838 69.5052C83.9591 70.1913 78.2048 71.2909 72.9743 72.7875C72.9543 72.7933 72.9341 72.796 72.9139 72.796C72.8741 72.796 72.8346 72.7853 72.8 72.7642C72.7476 72.7323 72.7111 72.6803 72.6989 72.6202C72.2538 70.4422 71.924 68.3903 71.7181 66.5213L71.6823 66.1645C71.6207 65.5715 71.5699 64.9795 71.5261 64.3546C71.5117 64.1482 71.4982 63.942 71.4866 63.7384C71.4627 63.3236 71.4449 62.8881 71.4293 62.3267L71.4235 62.1165C71.4177 61.9196 71.4119 61.7226 71.4103 61.5306C71.4076 61.2503 71.4122 60.9783 71.4171 60.7061L71.4201 60.5085C71.4553 58.4043 71.6474 56.4752 71.9904 54.7756L72.0015 54.7223C72.4854 52.3547 73.2668 50.3353 74.3247 48.7196L74.3765 48.639C74.4028 48.5968 74.4294 48.5545 74.4564 48.5156C74.623 48.2715 74.7988 48.047 74.9648 47.8396C75.0705 47.7091 75.1771 47.579 75.2865 47.4555C75.4463 47.2742 75.598 47.1125 75.7511 46.9602C75.8987 46.8151 76.0626 46.6662 76.2648 46.4938ZM76.738 92.3749H49.8384V92.1911C49.8384 92.1801 49.8394 92.1691 49.8409 92.1583C49.8501 92.0977 49.8626 92.038 49.8749 91.9782L49.8969 91.8689C49.9619 91.5124 50.0228 91.2395 50.0948 90.9834C50.127 90.8701 50.1649 90.7574 50.2029 90.6449L50.2335 90.554C50.3297 90.2627 50.4277 89.9996 50.5331 89.7496C50.599 89.5937 50.6697 89.4382 50.7435 89.2841C50.8498 89.0608 50.9745 88.8219 51.1249 88.553L51.1659 88.4807C51.2501 88.3318 51.3344 88.183 51.4266 88.0366C51.5344 87.8632 51.6538 87.6914 51.7733 87.5192L51.9316 87.2914C52.0431 87.1309 52.1546 86.9701 52.2771 86.8129C52.3075 86.7731 52.3408 86.7342 52.3739 86.6953C52.3981 86.6671 52.422 86.6393 52.4459 86.6092C55.8519 82.375 62.2396 78.641 70.9184 75.8109C70.9405 75.8035 70.9634 75.7999 70.9864 75.7999C71.0235 75.7999 71.0602 75.8094 71.0933 75.8277C71.1469 75.8574 71.1855 75.9083 71.1999 75.9677C72.4784 81.2516 74.3443 86.7679 76.738 92.3749ZM49.8381 94.6225H76.4887C74.0288 100.171 72.0976 105.638 70.7561 110.89C70.7408 110.949 70.7019 110.999 70.6483 111.028C70.6158 111.046 70.5797 111.055 70.5432 111.055C70.5199 111.055 70.4963 111.052 70.474 111.044C62.1762 108.282 56.0007 104.667 52.6144 100.588L52.4894 100.438C52.3987 100.33 52.3081 100.221 52.2257 100.114C52.1264 99.9847 52.0355 99.8542 51.9448 99.7235L51.8548 99.5945C51.7068 99.3832 51.5359 99.1369 51.3834 98.8882C51.2961 98.747 51.2155 98.6046 51.1285 98.4514C50.9757 98.1797 50.836 97.9093 50.7132 97.648C50.6504 97.5142 50.5882 97.3794 50.531 97.2446C50.4207 96.9831 50.3178 96.7037 50.2161 96.3907L50.1772 96.2734C50.1472 96.1846 50.1172 96.0954 50.0923 96.0063C50.0185 95.7438 49.956 95.4626 49.8905 95.0954L49.8709 94.998C49.8596 94.945 49.8485 94.892 49.8406 94.8387C49.839 94.828 49.8381 94.8173 49.8381 94.8062V94.6225ZM70.8152 124.979C70.8189 124.831 70.8262 124.679 70.8336 124.527L70.8461 124.254C70.8648 123.798 70.8853 123.34 70.919 122.87C70.9304 122.706 70.9448 122.54 70.9591 122.374L70.976 122.177C71.0216 121.639 71.0709 121.137 71.1273 120.644C71.1518 120.427 71.1782 120.209 71.2057 119.991C71.271 119.471 71.3484 118.922 71.4425 118.313L71.467 118.153C71.4906 117.998 71.5138 117.844 71.5396 117.689C71.6655 116.927 71.7941 116.217 71.9322 115.521L71.9592 115.379C72.0073 115.139 72.0624 114.894 72.1175 114.649C72.1485 114.512 72.1794 114.373 72.2094 114.237C72.2223 114.177 72.2594 114.125 72.3117 114.094C72.346 114.074 72.3846 114.063 72.4238 114.063C72.4444 114.063 72.4652 114.067 72.4854 114.072C77.7463 115.611 83.5524 116.744 89.7493 117.456L76.3003 140.617L76.0335 140.474C76.024 140.469 76.0151 140.464 76.0066 140.457C75.9781 140.437 75.9484 140.417 75.919 140.397C75.8721 140.366 75.8255 140.335 75.7799 140.299C75.6911 140.228 75.6059 140.151 75.5208 140.074L75.4179 139.981C75.2016 139.791 75.0399 139.64 74.8923 139.488C74.7455 139.337 74.604 139.179 74.4665 139.017C74.3443 138.875 74.2258 138.728 74.11 138.578C73.9743 138.401 73.8144 138.189 73.6591 137.955C73.6071 137.877 73.5574 137.795 73.5075 137.714L73.4466 137.614C72.6618 136.344 72.0441 134.837 71.6109 133.136L71.5837 133.035C71.4903 132.659 71.4011 132.248 71.3108 131.775L71.2587 131.494C71.1855 131.081 71.1203 130.658 71.0658 130.235C71.0553 130.152 71.0207 129.845 71.0207 129.845C70.9785 129.477 70.9307 129.038 70.8967 128.57C70.8896 128.474 70.885 128.375 70.8804 128.276L70.8709 128.086C70.837 127.505 70.817 126.881 70.8118 126.232L70.8109 126.064C70.8084 125.706 70.806 125.349 70.8152 124.979ZM91.6884 118.592C95.2335 123.42 98.9617 127.763 102.786 131.5C102.83 131.542 102.854 131.601 102.852 131.662C102.851 131.724 102.824 131.781 102.778 131.822C96.1177 137.66 89.7998 141.216 84.5062 142.107L84.3101 142.14C84.1233 142.173 83.9365 142.205 83.7545 142.226C83.6323 142.241 83.5125 142.249 83.3928 142.258L83.2124 142.272C82.9079 142.297 82.5833 142.321 82.2712 142.326L82.1563 142.327C82.0675 142.327 81.9796 142.325 81.8913 142.324L81.8151 142.322C81.4855 142.317 81.1627 142.299 80.8555 142.27C80.7179 142.257 80.5813 142.242 80.446 142.224C80.1449 142.184 79.8389 142.128 79.5102 142.054L79.3935 142.029C79.3084 142.01 79.2229 141.992 79.1402 141.97C78.8921 141.905 78.6548 141.82 78.4247 141.738L78.3721 141.719C78.3616 141.715 78.3518 141.711 78.3423 141.706L78.2844 141.675L91.6884 118.592ZM94.1326 118.25C94.0812 118.181 94.0745 118.088 94.1161 118.013C94.155 117.942 94.2288 117.899 94.3085 117.899C94.314 117.899 94.3198 117.899 94.3256 117.899C97.8611 118.175 101.439 118.315 104.96 118.315C108.345 118.315 111.797 118.185 115.22 117.927C115.226 117.927 115.231 117.927 115.237 117.927C115.317 117.927 115.392 117.971 115.43 118.043C115.471 118.119 115.463 118.213 115.41 118.281C111.985 122.666 108.39 126.628 104.724 130.057C104.682 130.097 104.628 130.117 104.574 130.117C104.518 130.117 104.463 130.096 104.421 130.055C100.885 126.614 97.4244 122.643 94.1326 118.25ZM106.425 131.598C110.422 127.828 114.345 123.389 118.1 118.407L131.518 141.829L131.304 141.958C131.295 141.964 131.246 141.987 131.231 141.995C131.202 142.01 131.173 142.024 131.143 142.036C131.05 142.072 130.955 142.104 130.859 142.136L130.734 142.177C130.465 142.271 130.221 142.345 129.989 142.405C129.795 142.454 129.596 142.498 129.398 142.535C129.204 142.573 129.007 142.604 128.808 142.631C128.585 142.661 128.324 142.694 128.057 142.713C127.974 142.718 127.889 142.721 127.804 142.723L127.671 142.727C127.522 142.732 127.371 142.735 127.219 142.735C125.856 142.735 124.392 142.521 122.869 142.102L122.766 142.074C122.362 141.961 121.945 141.829 121.489 141.672L121.29 141.602C120.859 141.448 120.429 141.284 120.012 141.112L119.812 141.025C118.703 140.556 117.521 139.966 116.299 139.273L116.222 139.229C115.899 139.045 115.576 138.861 115.248 138.662C115.126 138.587 115.002 138.509 114.878 138.43L114.675 138.302C114.158 137.975 113.761 137.717 113.388 137.464C113.245 137.367 113.102 137.269 112.957 137.169C112.411 136.791 111.901 136.425 111.397 136.049L111.184 135.891C109.677 134.756 108.077 133.42 106.428 131.92C106.383 131.879 106.356 131.821 106.356 131.76C106.355 131.699 106.38 131.64 106.425 131.598ZM133.585 140.565C133.573 140.577 133.555 140.592 133.54 140.601L133.44 140.662L120.145 117.457C126.132 116.771 131.763 115.689 136.895 114.224C136.915 114.218 136.935 114.216 136.955 114.216C136.995 114.216 137.034 114.227 137.069 114.248C137.121 114.279 137.158 114.331 137.17 114.392C138.994 123.334 138.898 130.728 136.893 135.775C136.881 135.805 136.87 135.836 136.858 135.868C136.844 135.908 136.829 135.948 136.814 135.985C136.734 136.179 136.646 136.362 136.558 136.544L136.452 136.765C136.36 136.959 136.267 137.152 136.168 137.336C136.08 137.499 135.986 137.656 135.892 137.812L135.868 137.852C135.709 138.116 135.561 138.345 135.419 138.548C135.323 138.687 135.225 138.822 135.124 138.955C134.952 139.179 134.768 139.398 134.562 139.625L134.503 139.691C134.426 139.777 134.349 139.863 134.269 139.944C134.07 140.146 133.849 140.347 133.585 140.565ZM143.675 16.2829C144.589 14.7303 146.281 13.7655 148.091 13.7655C148.999 13.7655 149.894 14.0096 150.678 14.4712C151.853 15.1631 152.689 16.2731 153.032 17.5975C153.374 18.9216 153.182 20.2984 152.49 21.4739C151.576 23.0278 149.884 23.9929 148.075 23.9929C147.168 23.9929 146.273 23.7488 145.488 23.2872C143.057 21.8559 142.244 18.7136 143.675 16.2829ZM68.9722 20.7186C68.9998 20.6129 69.0136 20.5033 69.028 20.3869C69.0378 20.3073 69.0479 20.2276 69.062 20.148C69.0807 20.0432 69.1719 19.967 69.2782 19.967H140.696C140.802 19.967 140.893 20.0432 140.912 20.1483C141.22 21.8841 142.145 23.4471 143.514 24.5491C143.599 24.6174 143.621 24.7375 143.566 24.8315L137.105 35.8066C137.064 35.8755 136.991 35.9147 136.916 35.9147C136.884 35.9147 136.853 35.908 136.823 35.8942C134.121 34.636 131.15 33.9979 127.991 33.9979C121.172 33.9979 113.417 37.0079 105.563 42.7028C105.525 42.7307 105.48 42.7447 105.434 42.7447C105.388 42.7447 105.341 42.73 105.302 42.7003C97.3953 36.7393 89.5545 33.5884 82.6274 33.5884C79.2428 33.5884 76.0699 34.3321 73.1969 35.7986C73.1651 35.8152 73.1308 35.8228 73.0971 35.8228C73.0217 35.8228 72.9485 35.7836 72.9078 35.7144L66.4906 24.7693C66.4358 24.6759 66.4573 24.5571 66.5406 24.4885C67.7464 23.4988 68.5872 22.1952 68.9722 20.7186ZM56.9714 17.588C57.3166 16.2645 58.1549 15.1557 59.3317 14.4656C60.1182 14.0053 61.0098 13.7618 61.91 13.7618C62.3431 13.7618 62.7799 13.8181 63.2087 13.9293C64.5313 14.2742 65.6398 15.1135 66.3295 16.2921C67.0208 17.4701 67.2117 18.8472 66.8668 20.1694C66.5228 21.4908 65.6839 22.5996 64.5043 23.2912C63.7193 23.7515 62.8283 23.9947 61.9278 23.9947C61.4923 23.9947 61.0546 23.9384 60.627 23.8275C59.3059 23.4835 58.1972 22.6443 57.5059 21.4651C56.8161 20.2886 56.6262 18.9118 56.9714 17.588ZM23.4721 87.6445L59.1804 25.796C59.2205 25.7265 59.294 25.6861 59.3706 25.6861C59.3957 25.6861 59.4208 25.6904 59.4456 25.6992C59.5237 25.7277 59.6003 25.7587 59.6769 25.7899C59.8141 25.8453 59.9436 25.898 60.0784 25.9329C60.687 26.0919 61.3103 26.1725 61.9306 26.1725C62.719 26.1725 63.5267 26.0279 64.3322 25.7424C64.3561 25.7339 64.3809 25.7299 64.4054 25.7299C64.4814 25.7299 64.5546 25.7697 64.5947 25.8383L71.0314 36.8177C71.0899 36.9169 71.0614 37.0446 70.9662 37.1096C63.0393 42.5395 59.5476 53.4576 61.1342 67.8528C61.1449 67.949 61.0916 68.0402 61.0031 68.0785C47.5195 73.8941 39.7473 82.4626 39.1188 92.2052C39.1114 92.3207 39.0156 92.4107 38.8998 92.4107L26.2239 92.4113C26.1173 92.4113 26.0263 92.3348 26.0076 92.23C25.7115 90.5528 24.8281 89.0228 23.5208 87.922C23.4397 87.8534 23.4191 87.7364 23.4721 87.6445ZM18.8358 98.6132C16.0158 98.6132 13.7213 96.319 13.7213 93.4993C13.7213 90.6789 16.0158 88.3842 18.8358 88.3842C21.6558 88.3842 23.9503 90.6789 23.9503 93.4993C23.9503 96.319 21.6558 98.6132 18.8358 98.6132ZM23.4721 99.3535C23.4188 99.2613 23.4397 99.1443 23.5208 99.076C24.8281 97.9761 25.7114 96.4464 26.0076 94.7686C26.0263 94.6638 26.1173 94.5872 26.2239 94.5872L38.8992 94.5866C39.015 94.5866 39.1108 94.6767 39.1182 94.7922C39.7381 104.392 47.3167 112.878 60.4579 118.686C60.5461 118.725 60.5985 118.817 60.5872 118.913C58.848 133.41 62.4059 144.343 70.6054 149.698C70.7037 149.762 70.734 149.892 70.6746 149.993L64.1711 161.041C64.1307 161.109 64.0581 161.149 63.9818 161.149C63.9607 161.149 63.9395 161.146 63.9187 161.14C63.232 160.933 62.5257 160.829 61.8194 160.829C61.0092 160.829 60.1994 160.969 59.4122 161.246C59.3883 161.255 59.3635 161.259 59.3393 161.259C59.2627 161.259 59.1892 161.218 59.1491 161.149L23.4721 99.3535ZM61.8194 173.234C58.9993 173.234 56.7052 170.94 56.7052 168.12C56.7052 165.3 58.9993 163.005 61.8194 163.005C64.6394 163.005 66.9338 165.3 66.9338 168.12C66.9339 170.94 64.6394 173.234 61.8194 173.234ZM140.912 166.851C140.893 166.956 140.802 167.032 140.696 167.032H69.2075C69.1009 167.032 69.0099 166.955 68.9912 166.851C68.6702 165.032 67.6732 163.414 66.1841 162.294C66.0949 162.227 66.0701 162.103 66.1268 162.007L72.5657 151.068C72.6064 150.999 72.6796 150.96 72.7552 150.96C72.7871 150.96 72.8196 150.967 72.8505 150.982C75.6209 152.319 78.6768 152.997 81.9336 152.997C88.7517 152.997 96.5049 149.988 104.355 144.295C104.394 144.267 104.439 144.253 104.484 144.253C104.531 144.253 104.577 144.268 104.616 144.297C112.536 150.269 120.386 153.426 127.318 153.426C130.688 153.424 133.857 152.678 136.737 151.206C136.769 151.19 136.803 151.182 136.836 151.182C136.912 151.182 136.985 151.221 137.026 151.291L143.455 162.257C143.509 162.349 143.489 162.468 143.407 162.536C142.097 163.632 141.211 165.164 140.912 166.851ZM153.031 169.41C152.688 170.726 151.856 171.829 150.687 172.52C150.681 172.524 150.675 172.528 150.669 172.532C149.882 172.992 148.99 173.236 148.09 173.236C147.655 173.236 147.218 173.179 146.791 173.068C145.47 172.724 144.362 171.885 143.671 170.707C142.981 169.53 142.791 168.153 143.136 166.829C143.481 165.505 144.319 164.397 145.495 163.708C146.277 163.249 147.168 163.006 148.074 163.006C149.887 163.006 151.581 163.974 152.494 165.533C153.185 166.711 153.376 168.088 153.031 169.41ZM186.534 99.344L150.836 161.175C150.796 161.245 150.722 161.285 150.646 161.285C150.621 161.285 150.596 161.281 150.571 161.272C149.771 160.981 148.933 160.834 148.082 160.834C147.235 160.834 146.402 160.98 145.606 161.268C145.582 161.277 145.556 161.282 145.531 161.282C145.455 161.282 145.382 161.242 145.342 161.173L138.895 150.176C138.837 150.076 138.865 149.949 138.96 149.884C146.882 144.452 150.371 133.535 148.785 119.146C148.774 119.05 148.827 118.959 148.916 118.92C162.4 113.104 170.172 104.536 170.8 94.7922C170.807 94.6767 170.903 94.5866 171.019 94.5866L183.804 94.5872C183.911 94.5872 184.002 94.6638 184.02 94.7686C184.034 94.8473 184.044 94.9263 184.054 95.005C184.068 95.118 184.08 95.2246 184.107 95.3263C184.485 96.7876 185.307 98.0805 186.484 99.0659C186.566 99.1345 186.587 99.2518 186.534 99.344ZM195.572 96.0945C194.658 97.648 192.966 98.6132 191.157 98.6132C190.249 98.6132 189.355 98.369 188.57 97.9075C187.392 97.2134 186.556 96.1034 186.213 94.7817C185.871 93.4586 186.064 92.0818 186.757 90.9044C187.673 89.3506 189.364 88.3854 191.172 88.3854C192.079 88.3854 192.974 88.6295 193.759 89.0914C194.936 89.7852 195.773 90.8955 196.116 92.2175C196.458 93.5397 196.265 94.9165 195.572 96.0945Z" fill="url(#paint6_linear)"/>
<defs>
<linearGradient id="paint0_linear" x1="120.488" y1="126.676" x2="50.6284" y2="-1.61934" gradientUnits="userSpaceOnUse">
<stop stop-color="#29CDFF"/>
<stop offset="1" stop-color="#D91D9A"/>
</linearGradient>
<linearGradient id="paint1_linear" x1="188.777" y1="89.4915" x2="118.918" y2="-38.8041" gradientUnits="userSpaceOnUse">
<stop stop-color="#29CDFF"/>
<stop offset="1" stop-color="#D91D9A"/>
</linearGradient>
<linearGradient id="paint2_linear" x1="190.843" y1="88.3666" x2="120.983" y2="-39.9291" gradientUnits="userSpaceOnUse">
<stop stop-color="#29CDFF"/>
<stop offset="1" stop-color="#D91D9A"/>
</linearGradient>
<linearGradient id="paint3_linear" x1="124.387" y1="124.553" x2="54.5274" y2="-3.74257" gradientUnits="userSpaceOnUse">
<stop stop-color="#29CDFF"/>
<stop offset="1" stop-color="#D91D9A"/>
</linearGradient>
<linearGradient id="paint4_linear" x1="56.0991" y1="161.737" x2="-13.7606" y2="33.4418" gradientUnits="userSpaceOnUse">
<stop stop-color="#29CDFF"/>
<stop offset="1" stop-color="#D91D9A"/>
</linearGradient>
<linearGradient id="paint5_linear" x1="53.9623" y1="162.901" x2="-15.8973" y2="34.6052" gradientUnits="userSpaceOnUse">
<stop stop-color="#29CDFF"/>
<stop offset="1" stop-color="#D91D9A"/>
</linearGradient>
<linearGradient id="paint6_linear" x1="145.669" y1="122.2" x2="34.015" y2="43.4929" gradientUnits="userSpaceOnUse">
<stop stop-color="#2950C9"/>
<stop offset="1" stop-color="#55006E"/>
</linearGradient>
</defs>
</svg>
