<svg width="165" height="137" viewBox="0 0 165 137" fill="none" xmlns="http://www.w3.org/2000/svg">
<path d="M27.7742 99.8394C25.7563 98.6744 25.0649 96.0941 26.2299 94.0761C27.395 92.0582 29.9753 91.3668 31.9932 92.5319C34.0111 93.6969 34.7025 96.2772 33.5375 98.2952C32.3724 100.313 29.7921 101.004 27.7742 99.8394Z" fill="url(#paint0_linear)"/>
<path d="M139.405 38.2879C138.866 38.2879 138.429 38.725 138.429 39.2641C138.429 39.8033 138.866 40.2403 139.405 40.2403H147.753C148.293 40.2403 148.73 39.8033 148.73 39.2641C148.73 38.725 148.293 38.2879 147.753 38.2879H139.405Z" fill="url(#paint1_linear)"/>
<path d="M138.429 42.637C138.429 42.0978 138.866 41.6608 139.405 41.6608H147.753C148.293 41.6608 148.73 42.0978 148.73 42.637C148.73 43.1761 148.293 43.6132 147.753 43.6132H139.405C138.866 43.6132 138.429 43.1761 138.429 42.637Z" fill="url(#paint2_linear)"/>
<path d="M139.405 45.0336C138.866 45.0336 138.429 45.4707 138.429 46.0098C138.429 46.549 138.866 46.986 139.405 46.986H147.753C148.293 46.986 148.73 46.549 148.73 46.0098C148.73 45.4707 148.293 45.0336 147.753 45.0336H139.405Z" fill="url(#paint3_linear)"/>
<path fill-rule="evenodd" clip-rule="evenodd" d="M146.915 23.7622L129.601 23.7622C129.397 10.9988 118.987 0.714847 106.175 0.714847L52.3048 0.714844C39.4928 0.714844 29.0828 10.9988 28.8791 23.7622H17.7494C8.17967 23.7622 0.421878 31.52 0.421878 41.0897L0.421875 95.7085C0.421875 105.278 8.17967 113.036 17.7494 113.036H28.8791C29.0821 125.8 39.4924 136.085 52.3048 136.085H106.175C119.115 136.085 129.604 125.595 129.604 112.656V99.6493H146.915C156.485 99.6493 164.243 91.8915 164.243 82.3218V41.0897C164.243 31.52 156.485 23.7622 146.915 23.7622ZM28.8761 64.1798L28.8761 33.0361H17.7494C13.3015 33.0361 9.69575 36.6418 9.69575 41.0897L9.69574 95.7085C9.69574 100.156 13.3015 103.762 17.7494 103.762H43.969C48.4169 103.762 52.0226 100.156 52.0226 95.7085L52.0226 41.0897C52.0226 36.6418 48.4168 33.0361 43.969 33.0361H30.8285L30.8284 64.1798H33.184C33.9355 64.1798 34.4052 64.9933 34.0295 65.6441L30.7291 71.3604C30.3534 72.0112 29.414 72.0112 29.0383 71.3604L25.738 65.6441C25.3622 64.9933 25.8319 64.1798 26.5834 64.1798H28.8761ZM43.969 23.7622L30.8318 23.7622C31.0352 12.0771 40.5711 2.66724 52.3048 2.66724L106.175 2.66724C117.909 2.66724 127.445 12.0771 127.648 23.7622L84.6221 23.7622C75.0524 23.7622 67.2946 31.52 67.2946 41.0897V82.3218C67.2946 91.8915 75.0523 99.6493 84.6221 99.6493H127.652V112.656C127.652 124.517 118.036 134.132 106.175 134.132H52.3048C40.5707 134.132 31.0345 124.722 30.8317 113.036H43.969C53.5387 113.036 61.2964 105.278 61.2964 95.7085L61.2964 41.0897C61.2964 31.52 53.5387 23.7622 43.969 23.7622ZM125.193 69.9431H127.652V90.3755H84.6221C80.1742 90.3755 76.5684 86.7697 76.5684 82.3218V41.0897C76.5684 36.6418 80.1742 33.0361 84.6221 33.0361L146.915 33.0361C151.363 33.0361 154.969 36.6418 154.969 41.0897V82.3218C154.969 86.7697 151.363 90.3755 146.915 90.3755H129.604V69.9431H131.794C132.545 69.9431 133.015 69.1296 132.639 68.4788L129.339 62.7625C128.963 62.1117 128.024 62.1117 127.648 62.7625L124.348 68.4788C123.972 69.1296 124.442 69.9431 125.193 69.9431Z" fill="url(#paint4_linear)"/>
<defs>
<linearGradient id="paint0_linear" x1="150.818" y1="69.4971" x2="-14.9418" y2="64.6889" gradientUnits="userSpaceOnUse">
<stop stop-color="#2950C9"/>
<stop offset="1" stop-color="#55006E"/>
</linearGradient>
<linearGradient id="paint1_linear" x1="150.818" y1="69.4971" x2="-14.9418" y2="64.6889" gradientUnits="userSpaceOnUse">
<stop stop-color="#2950C9"/>
<stop offset="1" stop-color="#55006E"/>
</linearGradient>
<linearGradient id="paint2_linear" x1="150.818" y1="69.4971" x2="-14.9418" y2="64.6889" gradientUnits="userSpaceOnUse">
<stop stop-color="#2950C9"/>
<stop offset="1" stop-color="#55006E"/>
</linearGradient>
<linearGradient id="paint3_linear" x1="150.818" y1="69.4971" x2="-14.9418" y2="64.6889" gradientUnits="userSpaceOnUse">
<stop stop-color="#2950C9"/>
<stop offset="1" stop-color="#55006E"/>
</linearGradient>
<linearGradient id="paint4_linear" x1="150.818" y1="69.4971" x2="-14.9418" y2="64.6889" gradientUnits="userSpaceOnUse">
<stop stop-color="#2950C9"/>
<stop offset="1" stop-color="#55006E"/>
</linearGradient>
</defs>
</svg>
