<svg width="126" height="151" viewBox="0 0 126 151" fill="none" xmlns="http://www.w3.org/2000/svg">
<path d="M57.7167 6.16992C58.1606 8.01367 59.8206 9.38379 61.8005 9.38379C64.1202 9.38379 66.0007 7.50293 66.0007 5.18359C66.0007 2.86426 64.1202 0.983398 61.8005 0.983398C59.8331 0.983398 58.1816 2.33594 57.7253 4.16211C44.5897 5.25293 32.6731 10.6377 23.3828 18.9092C21.8234 18.1699 19.9025 18.4443 18.6122 19.7344C17.3036 21.043 17.039 23.001 17.8186 24.5723C9.66608 34.0605 4.4718 46.1641 3.66641 59.4531C1.66422 59.7734 0.134277 61.5088 0.134277 63.6006C0.134277 65.7178 1.70111 67.4697 3.73862 67.7588C4.69934 80.0449 9.4158 91.2764 16.7396 100.307C15.6809 101.935 15.8656 104.136 17.2938 105.563C18.9341 107.204 21.5935 107.204 23.2338 105.563C24.8741 103.924 24.8741 101.264 23.2338 99.624C21.8702 98.2598 19.8024 98.0303 18.2012 98.9336C11.1694 90.2188 6.64682 79.3975 5.72949 67.5635C7.36349 66.9883 8.53476 65.4307 8.53476 63.6006C8.53476 61.7441 7.33038 60.1699 5.6604 59.6143C6.42422 46.8721 11.3643 35.2568 19.1303 26.1162C20.7719 27.2998 23.0753 27.1523 24.5523 25.6748C26.0472 24.1797 26.1797 21.8389 24.9497 20.1934C33.8492 12.3574 45.2067 7.24805 57.7167 6.16992Z" fill="url(#paint0_linear)"/>
<path fill-rule="evenodd" clip-rule="evenodd" d="M103.329 62.2461C103.329 76.1943 96.2937 88.4971 85.6235 95.8018C85.0374 96.2031 84.69 96.6064 84.5327 96.8584C84.5095 96.8955 84.4927 96.9248 84.4808 96.9482V108.365C84.4808 117.665 76.9422 125.203 67.6428 125.203H57.7275C48.4282 125.203 40.8896 117.665 40.8896 108.365V96.9482C40.8777 96.9248 40.8609 96.8955 40.8378 96.8584C40.6804 96.6074 40.3329 96.2031 39.7469 95.8018C29.0766 88.4971 22.041 76.1943 22.041 62.2461C22.041 39.7988 40.238 21.6016 62.6851 21.6016C85.1323 21.6016 103.329 39.7988 103.329 62.2461ZM79.9745 87.5498C76.8443 89.6934 74.4808 93.0078 74.4808 96.8008V108.365C74.4808 112.142 71.4193 115.203 67.6428 115.203H63.5942V73.335L63.5934 73.2949C68.8283 72.835 72.9341 68.4404 72.9341 63.0859C72.9341 57.4258 68.3455 52.8369 62.6852 52.8369C57.0248 52.8369 52.4363 57.4258 52.4363 63.0859C52.4363 68.3779 56.4476 72.7334 61.5958 73.2773L61.5942 73.335V115.203H57.7275C53.951 115.203 50.8896 112.142 50.8896 108.365V96.8008C50.8896 93.0078 48.5261 89.6934 45.3958 87.5498C37.332 82.0303 32.041 72.7559 32.041 62.2461C32.041 45.3213 45.7609 31.6016 62.6851 31.6016C79.6094 31.6016 93.3292 45.3213 93.3292 62.2461C93.3292 72.7559 88.0383 82.0303 79.9745 87.5498ZM62.6852 54.8369C58.1295 54.8369 54.4363 58.5303 54.4363 63.0859C54.4363 67.6416 58.1295 71.335 62.6852 71.335C67.2409 71.335 70.9341 67.6416 70.9341 63.0859C70.9341 58.5303 67.2409 54.8369 62.6852 54.8369Z" fill="url(#paint1_linear)"/>
<path d="M48.6155 132.617C48.0632 132.617 47.6155 133.064 47.6155 133.617C47.6155 134.17 48.0632 134.617 48.6155 134.617H76.8268C77.3792 134.617 77.8268 134.17 77.8268 133.617C77.8268 133.064 77.3792 132.617 76.8268 132.617H48.6155Z" fill="url(#paint2_linear)"/>
<path d="M47.6155 141.594C47.6155 141.041 48.0632 140.594 48.6155 140.594H76.8268C77.3792 140.594 77.8268 141.041 77.8268 141.594C77.8268 142.146 77.3792 142.594 76.8268 142.594H48.6155C48.0632 142.594 47.6155 142.146 47.6155 141.594Z" fill="url(#paint3_linear)"/>
<path d="M54.5083 148.57C53.956 148.57 53.5083 149.018 53.5083 149.57C53.5083 150.123 53.956 150.57 54.5083 150.57H70.9341C71.4864 150.57 71.9341 150.123 71.9341 149.57C71.9341 149.018 71.4864 148.57 70.9341 148.57H54.5083Z" fill="url(#paint4_linear)"/>
<path d="M70.4846 5.46777C70.5674 4.9209 71.0771 4.5459 71.6232 4.62891C73.3755 4.89453 75.1026 5.2373 76.801 5.65332C77.3375 5.78418 77.6658 6.32617 77.5344 6.8623C77.403 7.39844 76.8616 7.72656 76.3252 7.5957C74.6846 7.19336 73.0162 6.8623 71.3234 6.60645C70.7773 6.52344 70.4018 6.01367 70.4846 5.46777Z" fill="url(#paint5_linear)"/>
<path d="M81.5778 8.08691C81.7662 7.56836 82.3398 7.2998 82.859 7.48828C84.5199 8.09082 86.1461 8.7666 87.7338 9.50977C88.2339 9.74414 88.4495 10.3398 88.2153 10.8398C87.981 11.3398 87.3857 11.5557 86.8856 11.3213C85.3518 10.6025 83.781 9.95117 82.1767 9.36816C81.6575 9.17969 81.3894 8.60645 81.5778 8.08691Z" fill="url(#paint6_linear)"/>
<path d="M91.9401 12.835C92.2266 12.3623 92.8416 12.2119 93.3137 12.498C94.8207 13.4131 96.2834 14.3926 97.6982 15.4336C98.1429 15.7607 98.2382 16.3867 97.9108 16.832C97.5834 17.2764 96.9575 17.3721 96.5127 17.0439C95.1456 16.0381 93.7322 15.0918 92.2762 14.208C91.8041 13.9219 91.6536 13.3066 91.9401 12.835Z" fill="url(#paint7_linear)"/>
<path d="M108.939 27.8604C109.384 27.5332 110.01 27.6279 110.338 28.0732C111.379 29.4873 112.358 30.9502 113.273 32.457C113.559 32.9297 113.409 33.5449 112.937 33.8311C112.464 34.1172 111.849 33.9668 111.563 33.4951C110.68 32.0391 109.733 30.626 108.727 29.2588C108.399 28.8135 108.495 28.1875 108.939 27.8604Z" fill="url(#paint8_linear)"/>
<path d="M114.932 37.5557C115.432 37.3213 116.027 37.5371 116.261 38.0371C117.005 39.625 117.68 41.251 118.283 42.9121C118.471 43.4316 118.203 44.0049 117.684 44.1934C117.165 44.3818 116.591 44.1133 116.403 43.5947C115.82 41.9902 115.168 40.4189 114.45 38.8857C114.216 38.3857 114.431 37.79 114.932 37.5557Z" fill="url(#paint9_linear)"/>
<path d="M118.909 48.2373C119.445 48.1055 119.987 48.4336 120.118 48.9697C120.534 50.6689 120.877 52.3955 121.143 54.1484C121.225 54.6943 120.85 55.2041 120.304 55.2861C119.758 55.3691 119.248 54.9941 119.165 54.4482C118.908 52.7549 118.577 51.0869 118.176 49.4463C118.044 48.9092 118.372 48.3682 118.909 48.2373Z" fill="url(#paint10_linear)"/>
<path d="M120.312 70.8242C120.858 70.9062 121.234 71.416 121.152 71.9619C120.89 73.7021 120.552 75.417 120.142 77.1035C120.012 77.6406 119.471 77.9697 118.934 77.8389C118.397 77.709 118.068 77.168 118.199 76.6309C118.595 75.002 118.921 73.3447 119.174 71.6641C119.256 71.1182 119.766 70.7422 120.312 70.8242Z" fill="url(#paint11_linear)"/>
<path d="M117.73 81.8447C118.249 82.0312 118.519 82.6045 118.332 83.124C117.737 84.7744 117.071 86.3916 116.338 87.9697C116.105 88.4707 115.511 88.6885 115.01 88.4561C114.509 88.2227 114.291 87.6289 114.524 87.1279C115.233 85.6025 115.876 84.041 116.45 82.4463C116.637 81.9268 117.21 81.6572 117.73 81.8447Z" fill="url(#paint12_linear)"/>
<path d="M113.048 92.1494C113.521 92.4346 113.674 93.0488 113.389 93.5215C112.487 95.0215 111.52 96.4785 110.492 97.8877C110.167 98.334 109.541 98.4316 109.095 98.1064C108.649 97.7812 108.551 97.1553 108.876 96.709C109.869 95.3477 110.803 93.9404 111.675 92.4912C111.96 92.0176 112.574 91.8652 113.048 92.1494Z" fill="url(#paint13_linear)"/>
<path d="M121.036 67.8008C123.356 67.8008 125.236 65.9199 125.236 63.6006C125.236 61.2812 123.356 59.4004 121.036 59.4004C118.716 59.4004 116.836 61.2812 116.836 63.6006C116.836 65.9199 118.716 67.8008 121.036 67.8008Z" fill="url(#paint14_linear)"/>
<path d="M100.818 107.256C102.459 108.896 105.118 108.896 106.758 107.256C108.399 105.615 108.399 102.956 106.758 101.315C105.118 99.6758 102.459 99.6758 100.818 101.315C99.178 102.956 99.178 105.615 100.818 107.256Z" fill="url(#paint15_linear)"/>
<path d="M105.598 24.5127C107.239 22.873 107.239 20.2129 105.598 18.5732C103.958 16.9326 101.299 16.9326 99.6583 18.5732C98.0179 20.2129 98.0179 22.873 99.6583 24.5127C101.299 26.1533 103.958 26.1533 105.598 24.5127Z" fill="url(#paint16_linear)"/>
<defs>
<linearGradient id="paint0_linear" x1="121.159" y1="81.1833" x2="-2.89469" y2="77.3687" gradientUnits="userSpaceOnUse">
<stop stop-color="#FF9B00"/>
<stop offset="0.26803" stop-color="#DD4C52"/>
<stop offset="0.552201" stop-color="#921E8D"/>
<stop offset="0.809309" stop-color="#521182"/>
</linearGradient>
<linearGradient id="paint1_linear" x1="121.159" y1="81.1833" x2="-2.89469" y2="77.3687" gradientUnits="userSpaceOnUse">
<stop stop-color="#FF9B00"/>
<stop offset="0.26803" stop-color="#DD4C52"/>
<stop offset="0.552201" stop-color="#921E8D"/>
<stop offset="0.809309" stop-color="#521182"/>
</linearGradient>
<linearGradient id="paint2_linear" x1="121.159" y1="81.1833" x2="-2.89469" y2="77.3687" gradientUnits="userSpaceOnUse">
<stop stop-color="#FF9B00"/>
<stop offset="0.26803" stop-color="#DD4C52"/>
<stop offset="0.552201" stop-color="#921E8D"/>
<stop offset="0.809309" stop-color="#521182"/>
</linearGradient>
<linearGradient id="paint3_linear" x1="121.159" y1="81.1833" x2="-2.89469" y2="77.3687" gradientUnits="userSpaceOnUse">
<stop stop-color="#FF9B00"/>
<stop offset="0.26803" stop-color="#DD4C52"/>
<stop offset="0.552201" stop-color="#921E8D"/>
<stop offset="0.809309" stop-color="#521182"/>
</linearGradient>
<linearGradient id="paint4_linear" x1="121.159" y1="81.1833" x2="-2.89469" y2="77.3687" gradientUnits="userSpaceOnUse">
<stop stop-color="#FF9B00"/>
<stop offset="0.26803" stop-color="#DD4C52"/>
<stop offset="0.552201" stop-color="#921E8D"/>
<stop offset="0.809309" stop-color="#521182"/>
</linearGradient>
<linearGradient id="paint5_linear" x1="121.159" y1="81.1833" x2="-2.89469" y2="77.3687" gradientUnits="userSpaceOnUse">
<stop stop-color="#FF9B00"/>
<stop offset="0.26803" stop-color="#DD4C52"/>
<stop offset="0.552201" stop-color="#921E8D"/>
<stop offset="0.809309" stop-color="#521182"/>
</linearGradient>
<linearGradient id="paint6_linear" x1="121.159" y1="81.1833" x2="-2.89469" y2="77.3687" gradientUnits="userSpaceOnUse">
<stop stop-color="#FF9B00"/>
<stop offset="0.26803" stop-color="#DD4C52"/>
<stop offset="0.552201" stop-color="#921E8D"/>
<stop offset="0.809309" stop-color="#521182"/>
</linearGradient>
<linearGradient id="paint7_linear" x1="121.159" y1="81.1833" x2="-2.89469" y2="77.3687" gradientUnits="userSpaceOnUse">
<stop stop-color="#FF9B00"/>
<stop offset="0.26803" stop-color="#DD4C52"/>
<stop offset="0.552201" stop-color="#921E8D"/>
<stop offset="0.809309" stop-color="#521182"/>
</linearGradient>
<linearGradient id="paint8_linear" x1="121.159" y1="81.1833" x2="-2.89469" y2="77.3687" gradientUnits="userSpaceOnUse">
<stop stop-color="#FF9B00"/>
<stop offset="0.26803" stop-color="#DD4C52"/>
<stop offset="0.552201" stop-color="#921E8D"/>
<stop offset="0.809309" stop-color="#521182"/>
</linearGradient>
<linearGradient id="paint9_linear" x1="121.159" y1="81.1833" x2="-2.89469" y2="77.3687" gradientUnits="userSpaceOnUse">
<stop stop-color="#FF9B00"/>
<stop offset="0.26803" stop-color="#DD4C52"/>
<stop offset="0.552201" stop-color="#921E8D"/>
<stop offset="0.809309" stop-color="#521182"/>
</linearGradient>
<linearGradient id="paint10_linear" x1="121.159" y1="81.1833" x2="-2.89469" y2="77.3687" gradientUnits="userSpaceOnUse">
<stop stop-color="#FF9B00"/>
<stop offset="0.26803" stop-color="#DD4C52"/>
<stop offset="0.552201" stop-color="#921E8D"/>
<stop offset="0.809309" stop-color="#521182"/>
</linearGradient>
<linearGradient id="paint11_linear" x1="121.159" y1="81.1833" x2="-2.89469" y2="77.3687" gradientUnits="userSpaceOnUse">
<stop stop-color="#FF9B00"/>
<stop offset="0.26803" stop-color="#DD4C52"/>
<stop offset="0.552201" stop-color="#921E8D"/>
<stop offset="0.809309" stop-color="#521182"/>
</linearGradient>
<linearGradient id="paint12_linear" x1="121.159" y1="81.1833" x2="-2.89469" y2="77.3687" gradientUnits="userSpaceOnUse">
<stop stop-color="#FF9B00"/>
<stop offset="0.26803" stop-color="#DD4C52"/>
<stop offset="0.552201" stop-color="#921E8D"/>
<stop offset="0.809309" stop-color="#521182"/>
</linearGradient>
<linearGradient id="paint13_linear" x1="121.159" y1="81.1833" x2="-2.89469" y2="77.3687" gradientUnits="userSpaceOnUse">
<stop stop-color="#FF9B00"/>
<stop offset="0.26803" stop-color="#DD4C52"/>
<stop offset="0.552201" stop-color="#921E8D"/>
<stop offset="0.809309" stop-color="#521182"/>
</linearGradient>
<linearGradient id="paint14_linear" x1="121.159" y1="81.1833" x2="-2.89469" y2="77.3687" gradientUnits="userSpaceOnUse">
<stop stop-color="#FF9B00"/>
<stop offset="0.26803" stop-color="#DD4C52"/>
<stop offset="0.552201" stop-color="#921E8D"/>
<stop offset="0.809309" stop-color="#521182"/>
</linearGradient>
<linearGradient id="paint15_linear" x1="121.159" y1="81.1833" x2="-2.89469" y2="77.3687" gradientUnits="userSpaceOnUse">
<stop stop-color="#FF9B00"/>
<stop offset="0.26803" stop-color="#DD4C52"/>
<stop offset="0.552201" stop-color="#921E8D"/>
<stop offset="0.809309" stop-color="#521182"/>
</linearGradient>
<linearGradient id="paint16_linear" x1="121.159" y1="81.1833" x2="-2.89469" y2="77.3687" gradientUnits="userSpaceOnUse">
<stop stop-color="#FF9B00"/>
<stop offset="0.26803" stop-color="#DD4C52"/>
<stop offset="0.552201" stop-color="#921E8D"/>
<stop offset="0.809309" stop-color="#521182"/>
</linearGradient>
</defs>
</svg>
