<svg width="168" height="162" viewBox="0 0 168 162" fill="none" xmlns="http://www.w3.org/2000/svg">
<path opacity="0.2" d="M30.5703 92.4581C14.1621 75.0779 7.20684 56.163 14.4267 42.7593C25.572 22.0671 66.2687 22.3465 105.325 43.383C112.083 47.0232 118.348 51.0466 124.033 55.3184L148.794 41.3582C140.779 34.2423 130.932 27.9244 121.988 23.1071C72.4133 -3.59566 19.8578 -4.20886 3.85099 24.0778C-6.35265 42.1092 5.59085 70.3282 30.5703 92.4581Z" fill="url(#paint0_linear)"/>
<path d="M167.394 27.793C158.963 16.3177 141.112 12.6843 122.714 13.8192C118.702 14.0674 114.513 14.6054 110.215 15.4092C103.001 5.81041 94.3595 0.633067 85.2485 0.624023C85.2401 0.624023 85.2331 0.624023 85.2246 0.624023C73.5874 0.624023 62.6991 9.05815 54.5652 24.3743C54.0788 25.2898 53.6065 26.2246 53.1468 27.1756C52.0932 27.1284 51.048 27.1001 50.013 27.0931C49.831 27.0919 49.6516 27.0913 49.4704 27.0913C32.3973 27.0913 20.0019 32.6631 14.5369 42.8095C9.73369 51.7267 10.8289 63.1685 17.5411 75.4872C16.5419 76.995 15.5914 78.5059 14.6925 80.0175C7.75389 91.6836 5.56607 103.728 6.93933 113.878C6.95727 114.01 6.98265 114.183 7.01095 114.367C7.11657 115.057 7.77737 115.52 8.46137 115.382C9.07711 115.258 9.4946 114.688 9.43479 114.063C8.48923 104.17 12.6514 92.5328 20.8266 80.9155C20.8631 80.97 20.8974 81.0246 20.934 81.0794C26.6648 89.6472 34.6048 97.9162 44.1192 105.348C46.1392 117.238 49.6413 128.142 54.4537 137.247C54.6318 137.584 54.813 137.914 54.9939 138.244C53.0193 138.457 51.0684 138.608 49.1489 138.687C35.3656 139.254 24.4506 136.258 17.5305 130.157C18.1795 129.255 18.5658 128.151 18.5658 126.955C18.5658 123.92 16.1052 121.459 13.0698 121.459C10.0345 121.459 7.57388 123.92 7.57388 126.955C7.57388 129.99 10.0345 132.451 13.0698 132.451C14.0373 132.451 14.945 132.199 15.7346 131.76C22.5407 137.886 32.9134 141.145 45.9102 141.144C47.0031 141.144 48.1173 141.121 49.2469 141.075C51.5535 140.98 53.9016 140.789 56.2834 140.506C64.1651 153.78 74.2975 161.047 85.0904 161.058C85.0988 161.058 85.1056 161.058 85.114 161.058C96.7512 161.058 107.64 152.623 115.774 137.308C116.257 136.397 116.727 135.468 117.184 134.523C118.235 134.57 119.277 134.598 120.309 134.605C120.491 134.606 120.67 134.607 120.852 134.607C137.925 134.607 150.32 129.035 155.785 118.889C160.943 109.313 159.3 96.8265 151.203 83.4683C151.449 83.1083 151.694 82.7479 151.933 82.3871C161.72 67.6124 164.826 53.4344 160.68 42.4652C160.447 41.8479 159.758 41.5363 159.14 41.7697C158.523 42.0031 158.212 42.6928 158.445 43.3101C162.312 53.5411 159.291 66.9504 149.941 81.0675C149.897 81.1325 149.852 81.1973 149.809 81.2624C149.668 81.0479 149.532 80.8338 149.388 80.6188C144.416 73.1853 137.781 65.9769 129.898 59.3449L148.082 45.2132C151.119 42.8331 149.069 39.8646 145.426 41.2735L124.978 49.9769C122.994 41.0328 120.133 32.7752 116.477 25.5824C116.821 25.553 117.166 25.522 117.508 25.4966C134.439 24.2468 147.609 28.2151 154.593 36.6723C154.999 37.163 155.711 37.243 156.217 36.8713L167.012 30.1868C167.837 29.6689 167.971 28.5781 167.394 27.793ZM56.676 25.4952C64.376 10.9962 74.5128 3.01401 85.2246 3.01401C85.2313 3.01401 85.2398 3.01401 85.2462 3.01401C93.2923 3.02189 101.006 7.53405 107.6 15.9259C95.4232 18.483 82.4688 23.13 70.1305 29.4889C65.2183 28.4042 60.3981 27.6818 55.7339 27.3338C56.0429 26.7138 56.3553 26.0988 56.676 25.4952ZM73.7811 62.2151C64.8595 67.6684 61.5589 79.2105 66.2552 88.5555C71.4807 98.9533 84.2569 102.782 94.288 97.1506C100.257 93.7996 103.867 87.8754 104.516 81.5468C104.7 79.7526 105.61 78.113 107.085 77.0746L124.814 63.296C125.497 68.9973 125.847 74.8865 125.841 80.8811C125.831 90.6908 124.875 100.22 123.054 109.095C118.03 112.962 112.635 116.601 106.954 119.935C102.059 122.808 97.0885 125.379 92.1037 127.631C83.4032 125.015 74.5364 121.322 65.8739 116.657C58.8428 112.869 52.2745 108.616 46.3213 104.034C45.114 96.6091 44.4903 88.7982 44.4981 80.8008C44.507 71.6907 45.3333 62.8228 46.9096 54.4951C51.7202 50.8317 56.9123 47.338 62.4444 44.0909C68.4661 40.5566 74.6286 37.4732 80.8032 34.8772C88.6701 37.4253 96.6421 40.837 104.448 45.0417C109.074 47.5332 113.5 50.2263 117.683 53.0822L98.2523 61.3524C96.6392 62.0531 94.7948 62.04 93.2121 61.2727C87.2327 58.3736 79.9343 58.4539 73.7811 62.2151ZM88.2821 86.4587C84.4328 88.6196 79.5594 87.2508 77.397 83.4012C75.2346 79.5513 76.6023 74.6785 80.4516 72.5175C84.3009 70.3566 89.1746 71.7254 91.337 75.5753C93.4991 79.4249 92.1314 84.2977 88.2821 86.4587ZM122.262 112.683C120.613 119.656 118.414 126.176 115.708 132.049C109.277 131.64 102.519 130.484 95.6242 128.632C99.835 126.638 104.027 124.424 108.164 121.996C113.092 119.103 117.807 115.981 122.262 112.683ZM60.3514 34.9738C56.7515 37.1662 53.2972 39.4891 49.991 41.9159C51.3116 37.5881 52.8587 33.4809 54.6225 29.6494C58.5811 29.9014 62.6635 30.4388 66.8253 31.2449C64.6413 32.4361 62.4797 33.6775 60.3514 34.9738ZM16.641 43.9426C21.6695 34.607 33.3161 29.4813 49.4686 29.4813C49.644 29.4813 49.8202 29.4819 49.9967 29.4831C50.6785 29.4877 51.3663 29.505 52.0567 29.5274C50.0037 34.1186 48.2486 39.0772 46.8101 44.3196C35.5419 53.0799 26.172 63.0538 19.0603 73.2577C13.2628 62.0989 12.3739 51.8647 16.641 43.9426ZM22.9208 79.7508C22.7185 79.4483 22.5237 79.1469 22.3281 78.8452C27.992 71.2423 35.3498 63.6939 44.0932 56.694C42.7961 64.3924 42.1163 72.4989 42.1082 80.7985C42.101 88.0108 42.6008 95.0783 43.5724 101.86C35.1535 95.0115 28.1055 87.502 22.9208 79.7508ZM56.5669 136.13C52.2133 127.893 48.956 118.135 46.9291 107.485C52.428 111.555 58.4008 115.346 64.7407 118.761C72.6663 123.03 80.7673 126.496 88.7696 129.088C78.1716 133.568 67.5718 136.58 57.5562 137.935C57.2227 137.344 56.8917 136.745 56.5669 136.13ZM113.663 136.186C105.963 150.686 95.8258 158.669 85.114 158.668C85.1073 158.668 85.0992 158.668 85.0927 158.668C75.4111 158.659 66.2103 152.126 58.8638 140.161C69.6115 138.598 80.9765 135.193 92.2744 130.17C99.9246 132.411 107.446 133.832 114.597 134.365C114.29 134.979 113.981 135.588 113.663 136.186ZM153.681 117.756C148.652 127.091 137.006 132.217 120.853 132.217C120.678 132.217 120.502 132.216 120.325 132.215C119.647 132.21 118.962 132.194 118.275 132.171C121.215 125.6 123.544 118.276 125.208 110.445C134.981 102.831 143.35 94.3656 149.696 85.6074C156.874 97.8625 158.307 109.167 153.681 117.756ZM147.401 81.9474C147.725 82.4308 148.037 82.9125 148.343 83.3933C142.528 91.6022 134.879 99.5742 125.922 106.83C127.43 98.5872 128.222 89.8479 128.231 80.8834C128.237 74.296 127.821 67.8289 127.009 61.5904L127.971 60.8424C135.852 67.4178 142.469 74.5735 147.401 81.9474ZM122.744 50.9277L120.282 51.9759C115.663 48.7489 110.744 45.7182 105.582 42.9376C98.5306 39.1396 91.3405 35.9747 84.2049 33.4969C94.3321 29.5373 104.427 26.9192 113.919 25.8368C117.751 33.1603 120.726 41.6676 122.744 50.9277Z" fill="url(#paint1_linear)"/>
<defs>
<linearGradient id="paint0_linear" x1="161.93" y1="24.4688" x2="-38.3631" y2="61.5788" gradientUnits="userSpaceOnUse">
<stop stop-color="#29CDFF"/>
<stop offset="1" stop-color="#D91D9A"/>
</linearGradient>
<linearGradient id="paint1_linear" x1="166.849" y1="74.9686" x2="-27.1585" y2="85.5058" gradientUnits="userSpaceOnUse">
<stop stop-color="#2950C9"/>
<stop offset="1" stop-color="#55006E"/>
</linearGradient>
</defs>
</svg>
