<svg width="146" height="194" viewBox="0 0 146 194" fill="none" xmlns="http://www.w3.org/2000/svg">
<path opacity="0.2" d="M99.9636 97.3254C91.0021 89.0143 81.843 82.053 73.0011 76.606C64.1591 82.053 55.0001 89.0143 46.0385 97.3254C38.6804 104.149 32.0597 111.324 26.314 118.546C33.9837 131.494 44.9582 145.111 58.3838 157.562C63.2255 162.052 68.125 166.148 73.0011 169.825C77.8771 166.148 82.7766 162.052 87.6184 157.562C101.044 145.111 112.018 131.494 119.688 118.546C113.942 111.324 107.322 104.149 99.9636 97.3254Z" fill="url(#paint0_linear)"/>
<path d="M138.545 145.823C135.401 139.108 131.337 132.23 126.518 125.403C129.277 120.928 131.709 116.459 133.773 112.051C137.997 103.03 140.512 94.6189 141.25 87.0505C142.131 78.0131 140.477 70.3874 136.334 64.3853C133.58 60.3956 129.878 57.3663 125.331 55.3817C121.315 53.6293 116.702 52.7406 111.618 52.7406C111.298 52.7406 110.976 52.7449 110.653 52.7518V26.9672C110.653 26.3183 110.127 25.7922 109.478 25.7922C108.829 25.7922 108.303 26.3183 108.303 26.9672V52.861C98.2561 53.5696 86.6805 57.4305 74.3413 64.1773V1.99726C74.3413 1.34838 73.8152 0.822266 73.1663 0.822266C72.5174 0.822266 71.9913 1.34838 71.9913 1.99726V64.5152C60.0045 57.8823 48.7226 53.9577 38.8443 52.9832V26.9672C38.8443 26.3183 38.3182 25.7922 37.6693 25.7922C37.0204 25.7922 36.4943 26.3183 36.4943 26.9672V52.8054C35.6872 52.7635 34.889 52.7403 34.1027 52.7403C29.018 52.74 24.4038 53.6287 20.3882 55.3812C15.8411 57.3657 12.1389 60.395 9.38467 64.385C5.24147 70.3874 3.58741 78.0131 4.46837 87.0505C5.20619 94.6189 7.72171 103.03 11.9452 112.051C14.0419 116.529 16.5206 121.07 19.3342 125.618C14.5809 132.374 10.5677 139.178 7.45665 145.823C-0.449075 162.707 -1.6083 176.634 4.19183 185.037C7.2742 189.502 12.0588 192.12 18.4123 192.818C19.536 192.942 20.6978 193.003 21.8969 193.003C33.9263 193.002 49.5855 186.864 65.6734 176.176C65.8793 176.334 66.0847 176.495 66.291 176.652C66.9445 177.249 67.6854 177.761 68.501 178.167C69.8699 178.85 71.351 179.186 72.8246 179.186C74.8923 179.186 76.9466 178.525 78.6603 177.233C79.1664 176.852 79.6715 176.464 80.1764 176.075C96.318 186.826 112.038 193.003 124.105 193.003C125.303 193.003 126.467 192.942 127.589 192.818C133.943 192.12 138.728 189.502 141.81 185.037C147.61 176.634 146.451 162.707 138.545 145.823ZM59.1825 156.432C46.3973 144.575 35.5253 131.38 27.7287 118.375C33.3964 111.322 39.8281 104.419 46.8372 97.9187C55.1007 90.2551 63.6432 83.6537 71.9913 78.3493V115.397L65.8461 115.409C64.4624 115.412 63.6662 116.983 64.482 118.1L71.7951 128.117C72.4721 129.044 73.8556 129.043 74.5312 128.115L81.8445 118.07C82.6598 116.949 81.858 115.377 80.4725 115.38L74.3413 115.392V78.5602C82.5844 83.8284 91.0107 90.3566 99.1646 97.9187C106.174 104.419 112.606 111.322 118.273 118.375C110.477 131.38 99.6046 144.575 86.8193 156.432C82.2714 160.65 77.6388 164.545 73.0005 168.081C68.3624 164.546 63.7301 160.65 59.1825 156.432ZM33.1552 80.4644C32.3015 80.4624 31.8102 81.4259 32.3137 82.1147L36.8259 88.2903C37.2436 88.8621 38.0973 88.8652 38.5141 88.2966L43.0259 82.1428C43.5291 81.4566 43.0342 80.4882 42.1794 80.4862L38.8443 80.4781V63.9768C48.1311 65.0835 59.2074 69.4249 70.7836 76.3579C62.2826 81.7435 53.609 88.4338 45.2394 96.1958C38.3791 102.558 32.0625 109.306 26.4602 116.207C24.789 113.296 23.2722 110.398 21.9301 107.532C14.3936 91.4347 13.165 78.3361 18.4711 70.6493C21.1487 66.7703 25.3688 64.4888 31.014 63.8686C32.078 63.7516 33.1793 63.6939 34.3156 63.6939C35.0281 63.6939 35.7553 63.7186 36.4943 63.7636V80.4724L33.1552 80.4644ZM104.963 80.4644C104.109 80.4624 103.618 81.4259 104.122 82.1147L108.634 88.2903C109.051 88.8621 109.905 88.8652 110.322 88.2966L114.834 82.1428C115.337 81.4566 114.842 80.4882 113.987 80.4862L110.653 80.4781V63.7114C111 63.7011 111.345 63.6939 111.686 63.6939C112.821 63.6939 113.925 63.7519 114.988 63.8686C120.633 64.4888 124.853 66.77 127.531 70.6493C132.837 78.3361 131.608 91.4347 124.072 107.532C122.73 110.398 121.213 113.296 119.542 116.207C113.939 109.306 107.623 102.558 100.762 96.1958C92.3929 88.4335 83.7192 81.7435 75.2182 76.3576C87.2737 69.1375 98.7879 64.7269 108.303 63.8546V80.4724L104.963 80.4644ZM21.9703 190.657C20.8352 190.657 19.7319 190.599 18.6688 190.482C13.0236 189.862 8.80348 187.581 6.12588 183.702C0.819735 176.015 2.04809 162.916 9.5849 146.819C12.5164 140.558 16.2667 134.149 20.694 127.772C28.7822 140.373 39.4022 152.953 51.6502 164.312C55.5873 167.963 59.6392 171.431 63.7333 174.664C48.2945 184.831 33.3842 190.658 21.9703 190.657ZM139.876 183.702C137.198 187.581 132.978 189.862 127.333 190.482C115.547 191.78 99.146 185.808 82.1148 174.562C86.1667 171.357 90.1742 167.923 94.0684 164.311C106.385 152.889 117.056 140.232 125.16 127.56C129.652 134.008 133.453 140.489 136.417 146.819C143.954 162.916 145.182 176.015 139.876 183.702Z" fill="url(#paint1_linear)"/>
<g opacity="0.4">
<path opacity="0.9" d="M92.3804 17.0967C91.7364 17.0967 91.2146 17.6185 91.2146 18.2625V42.241C91.2146 42.8847 91.7364 43.4068 92.3804 43.4068C93.0245 43.4068 93.5463 42.8847 93.5463 42.241V18.2625C93.5463 17.6185 93.0245 17.0967 92.3804 17.0967Z" fill="url(#paint2_linear)"/>
<path opacity="0.9" d="M55.3547 17.0967C54.7107 17.0967 54.1887 17.6185 54.1887 18.2625V42.241C54.1887 42.8847 54.7107 43.4068 55.3547 43.4068C55.9986 43.4068 56.5205 42.8847 56.5205 42.241V18.2625C56.5205 17.6185 55.9986 17.0967 55.3547 17.0967Z" fill="url(#paint3_linear)"/>
</g>
<defs>
<linearGradient id="paint0_linear" x1="100.996" y1="151.804" x2="27.4701" y2="69.7271" gradientUnits="userSpaceOnUse">
<stop stop-color="#29CDFF"/>
<stop offset="1" stop-color="#D91D9A"/>
</linearGradient>
<linearGradient id="paint1_linear" x1="133.577" y1="98.4703" x2="-13.1139" y2="95.8193" gradientUnits="userSpaceOnUse">
<stop stop-color="#2950C9"/>
<stop offset="1" stop-color="#55006E"/>
</linearGradient>
<linearGradient id="paint2_linear" x1="92.3804" y1="9.58079" x2="92.3804" y2="63.2703" gradientUnits="userSpaceOnUse">
<stop stop-color="#29CDFF"/>
<stop offset="1" stop-color="#D91D9A"/>
</linearGradient>
<linearGradient id="paint3_linear" x1="55.3546" y1="9.58079" x2="55.3546" y2="63.2703" gradientUnits="userSpaceOnUse">
<stop stop-color="#29CDFF"/>
<stop offset="1" stop-color="#D91D9A"/>
</linearGradient>
</defs>
</svg>
