<svg width="129" height="116" viewBox="0 0 129 116" fill="none" xmlns="http://www.w3.org/2000/svg">
<path fill-rule="evenodd" clip-rule="evenodd" d="M65.2429 8.12319L55.5904 2.24038C51.2752 -0.389504 45.8652 -0.440773 41.5009 2.10696L22.5034 13.1973C17.9681 15.8449 15.1796 20.7014 15.1796 25.953V28.7946L6.74188 34.9666C2.93939 37.7481 0.691895 42.1767 0.691895 46.8878V67.0458C0.691895 71.8041 2.98431 76.271 6.85016 79.0456L15.1796 85.0233V88.2376C15.1796 93.1746 17.6463 97.7851 21.7534 100.525L40.5416 113.058C45.4312 116.319 51.8532 116.113 56.5231 112.544L65.2388 105.883L73.5732 112.383C78.2845 116.058 84.8297 116.27 89.7688 112.907L107.982 100.509C112.023 97.7582 114.441 93.1869 114.441 88.2991V84.9956L122.594 79.0238C126.393 76.242 128.637 71.8159 128.637 67.1078V46.826C128.637 42.1652 126.437 37.7779 122.703 34.9899L114.441 28.8225V25.8931C114.441 20.6884 111.701 15.8678 107.23 13.204L88.8041 2.22695C84.3865 -0.404763 78.8698 -0.352028 74.5033 2.36367L65.2429 8.12319ZM50.8193 10.0689C49.381 9.19216 47.5776 9.17507 46.1229 10.0243L27.1253 21.1146C25.405 22.1189 24.3474 23.9611 24.3474 25.953V31.1209C24.3474 32.5829 23.6498 33.9573 22.4697 34.8206L12.1544 42.366C10.7121 43.421 9.85962 45.1009 9.85962 46.8878V67.0458C9.85962 68.8507 10.7291 70.5451 12.1955 71.5974L22.4362 78.9469C23.6359 79.808 24.3474 81.1942 24.3474 82.6709V88.2376C24.3474 90.1101 25.283 91.859 26.8408 92.8982L45.6291 105.431C47.2589 106.518 49.3996 106.45 50.9562 105.26L59.083 99.049C60.0917 98.2781 60.6834 97.0811 60.6834 95.8115V74.6172H51.5311L45.9771 78.3488C46.1046 78.791 46.1729 79.2583 46.1729 79.7416C46.1729 82.5135 43.9258 84.7605 41.1539 84.7605C38.3821 84.7605 36.135 82.5135 36.135 79.7416C36.135 76.9697 38.3821 74.7227 41.1539 74.7227C42.7217 74.7227 44.1215 75.4416 45.0419 76.5675L50.6687 72.7871C50.8336 72.6764 51.0277 72.6172 51.2264 72.6172H60.6834V57.5305H36.4539C35.9852 59.8168 33.962 61.5364 31.5372 61.5364C28.7654 61.5364 26.5183 59.2893 26.5183 56.5175C26.5183 53.7456 28.7654 51.4986 31.5372 51.4986C33.9713 51.4986 36.0007 53.2313 36.4592 55.5305H60.6834V40.7385H51.2264C51.1972 40.7385 51.1682 40.7372 51.1393 40.7348C51.1 40.7313 51.0611 40.7256 51.0227 40.7176C50.8969 40.6914 50.7766 40.641 50.6687 40.5686L44.9708 36.7405C44.0503 37.8175 42.6818 38.5003 41.1539 38.5003C38.3821 38.5003 36.135 36.2532 36.135 33.4813C36.135 30.7095 38.3821 28.4624 41.1539 28.4624C43.9258 28.4624 46.1729 30.7095 46.1729 33.4813C46.1729 34.005 46.0926 34.51 45.9438 34.9846L51.5311 38.7385H60.6834V18.3689C60.6834 16.9477 59.9429 15.6292 58.7293 14.8895L50.8193 10.0689ZM69.8511 74.6172V95.8644C69.8511 97.1199 70.4299 98.3052 71.4198 99.0773L79.2113 105.154C80.7818 106.379 82.9635 106.45 84.6099 105.329L102.823 92.9303C104.356 91.887 105.273 90.1531 105.273 88.2991V82.671C105.273 81.2099 105.97 79.8363 107.148 78.9729L117.177 71.6277C118.618 70.5725 119.47 68.8936 119.47 67.1078V46.826C119.47 45.0581 118.635 43.3939 117.219 42.3364L107.115 34.7942C105.956 33.929 105.273 32.5674 105.273 31.1209V25.8931C105.273 23.919 104.234 22.0905 102.538 21.08L84.1121 10.1029C82.6395 9.22573 80.8006 9.24331 79.3451 10.1486L71.7737 14.8576C70.5781 15.6012 69.8511 16.9094 69.8511 18.3175V38.7385H78.9215L83.6598 35.5551C83.3726 34.923 83.2126 34.2208 83.2126 33.4813C83.2126 30.7095 85.4597 28.4624 88.2316 28.4624C91.0034 28.4624 93.2505 30.7095 93.2505 33.4813C93.2505 36.2532 91.0034 38.5003 88.2316 38.5003C86.9211 38.5003 85.728 37.9981 84.8342 37.1756L79.7839 40.5686C79.619 40.6793 79.4249 40.7385 79.2263 40.7385H69.8511V55.5305H92.9263C93.3848 53.2313 95.4142 51.4986 97.8483 51.4986C100.62 51.4986 102.867 53.7456 102.867 56.5175C102.867 59.2893 100.62 61.5364 97.8483 61.5364C95.4235 61.5364 93.4003 59.8168 92.9316 57.5305H69.8511V72.6172H79.2263C79.4249 72.6172 79.619 72.6764 79.7839 72.7871L84.7518 76.1248C85.6541 75.2565 86.8805 74.7227 88.2316 74.7227C91.0034 74.7227 93.2505 76.9697 93.2505 79.7416C93.2505 82.5135 91.0034 84.7605 88.2316 84.7605C85.4597 84.7605 83.2126 82.5135 83.2126 79.7416C83.2126 79.0418 83.3559 78.3755 83.6146 77.7703L78.9215 74.6172H69.8511Z" fill="url(#paint0_linear)"/>
<defs>
<linearGradient id="paint0_linear" x1="131.21" y1="137.574" x2="-10.6934" y2="105.041" gradientUnits="userSpaceOnUse">
<stop stop-color="#FF9B00"/>
<stop offset="0.273177" stop-color="#DD4C52"/>
<stop offset="0.54108" stop-color="#921E8D"/>
<stop offset="0.785659" stop-color="#521182"/>
</linearGradient>
</defs>
</svg>
