<svg width="77" height="70" viewBox="0 0 77 70" fill="none" xmlns="http://www.w3.org/2000/svg">
<path d="M76.3182 20.8214C76.3182 21.0104 76.2868 21.2056 76.323 21.3873C76.9297 24.4342 75.1661 25.9787 72.7783 27.2913C68.1249 29.8494 63.2243 31.8737 58.4044 34.0652C53.27 36.3998 48.093 38.6535 43.182 41.4235C39.5553 43.4692 36.2849 42.8423 32.803 41.0835C28.7246 39.0234 24.496 37.2604 20.3313 35.3714C17.0022 33.8613 13.6726 32.3523 10.3404 30.8488C8.12291 29.8483 5.82291 29.0421 3.68887 27.8405C2.0745 26.9316 1.20308 25.6597 1.06392 23.8198C0.928188 22.0247 0.952177 20.2355 1.08099 18.4437C1.25518 16.0201 3.27104 15.2391 4.98653 14.4871C9.87087 12.346 14.8922 10.5187 19.79 8.40654C24.6584 6.30704 29.6347 4.46245 34.4218 2.17118C38.7125 0.117483 42.9287 0.559855 47.0815 2.6423C51.018 4.61636 55.1423 6.16228 59.181 7.90296C63.8415 9.91159 68.5426 11.8291 73.1646 13.9219C75.2318 14.8579 76.5962 16.4563 76.3278 18.9802C76.2632 19.5874 76.3182 20.2073 76.3182 20.8214ZM23.2891 13.2313C21.1388 13.0799 18.7144 13.4473 16.4046 14.4256C15.367 14.865 14.3661 15.4064 14.2926 16.7491C14.222 18.0384 14.9145 18.8065 16.0289 19.2996C20.8614 21.438 25.727 21.4383 30.6025 19.4864C31.7619 19.0222 32.8347 18.2442 32.7317 16.8719C32.6294 15.509 31.5601 14.8501 30.3174 14.3028C28.1592 13.3523 25.9283 13.1967 23.2891 13.2313ZM45.3916 16.8603C47.9562 18.2781 50.5817 19.2908 53.1808 20.3839C54.6566 21.0046 55.9313 21.0032 57.3416 20.3298C58.7007 19.6808 60.1752 19.2672 61.5133 18.5825C62.9918 17.826 64.6708 17.4097 66.0138 16.1708C63.2773 14.998 60.6312 13.9306 58.0472 12.7297C56.6505 12.0806 55.3876 12.2591 54.0752 12.8398C52.4379 13.5643 50.7601 14.206 49.1626 15.0085C47.965 15.6102 46.5461 15.7658 45.3916 16.8603ZM45.0296 20.9799C43.1606 21.316 41.4185 21.6484 39.6694 21.9396C36.3344 22.4948 32.9955 23.0262 29.6583 23.5682C29.3818 23.6131 29.0655 23.6304 29.0776 24.0238C29.0872 24.3375 29.2762 24.4766 29.5767 24.6066C32.7339 25.972 35.8753 27.3739 39.0317 28.7412C39.5469 28.9644 40.2579 29.2046 40.599 28.6426C42.0994 26.1703 44.0574 23.9557 45.0296 20.9799ZM47.9737 11.0313C47.1294 10.1254 46.1221 9.93464 45.2365 9.63846C43.9537 9.20945 43.4716 8.63359 44.1389 7.34549C44.3647 6.90938 44.8236 6.34398 44.4154 5.92563C44.0113 5.51151 43.4532 5.92958 43.0069 6.17173C40.9224 7.30267 38.8846 7.54679 36.9334 5.88468C36.9003 5.8565 36.8457 5.84761 36.7995 5.84176C36.2217 5.76858 35.6972 4.98554 35.1562 5.51137C34.9918 5.6712 35.4066 6.49702 35.637 6.97921C36.3006 8.3686 36.2258 8.5376 34.8073 9.01314C33.7212 9.37724 32.6603 9.81639 31.2786 10.3394C33.3044 10.8744 35.0239 11.1525 36.7613 11.1154C37.8249 11.0927 38.3867 11.5597 38.883 12.4024C39.4093 13.2959 39.7739 14.3198 40.6352 15.0124C41.0609 14.4814 41.2817 13.9658 41.4373 13.3528C41.6893 12.3597 42.1563 11.5525 43.4942 11.547C44.9355 11.541 46.3755 11.2292 47.9737 11.0313Z" fill="#EE051C"/>
<path d="M76.2492 30.498C76.2492 33.089 76.2747 35.3972 76.2389 37.7044C76.2196 38.9522 75.217 39.5436 74.3401 40.1307C71.0949 42.3032 67.5051 43.8365 64.0041 45.518C57.1517 48.8091 49.9774 51.4203 43.3799 55.2523C39.8821 57.2839 36.4291 57.0571 32.9617 55.1631C26.4314 51.5963 19.4629 48.9649 12.764 45.7544C9.62264 44.2489 6.34184 43.0381 3.26084 41.387C1.90018 40.6579 1.23062 39.5544 1.10073 38.0621C0.943708 36.258 1.2429 34.4807 1.42201 32.6971C1.46117 32.3068 1.53355 31.9076 2.09805 32.2996C6.13306 35.1019 10.7002 36.8919 15.1245 38.9063C21.5232 41.8195 28.0352 44.4884 34.402 47.479C37.2942 48.8376 40.1674 48.7301 42.9628 47.3426C47.9606 44.8619 52.9214 42.3094 57.9907 39.9716C62.7283 37.7869 67.3987 35.4564 72.1409 33.2821C73.6011 32.6126 74.6513 31.4029 76.2492 30.498Z" fill="#EE051C"/>
<path d="M1.56596 44.9282C4.54981 47.658 8.08731 48.8633 11.427 50.4222C16.0482 52.5792 20.6484 54.79 25.3381 56.7891C29.1403 58.4099 32.7328 60.5426 36.7614 61.6135C38.5632 62.0925 40.2953 61.6264 41.9569 60.9236C47.6556 58.513 53.0461 55.4621 58.6581 52.8665C63.3302 50.7056 68.0763 48.6894 72.5852 46.1892C73.8066 45.5119 74.9547 44.7022 76.2523 43.8799C76.2523 46.2863 76.259 48.593 76.2473 50.8997C76.2446 51.4446 75.8974 51.8067 75.5419 52.2011C73.7056 54.2385 71.2108 55.2092 68.8322 56.3303C61.8692 59.6121 54.866 62.8085 47.8878 66.058C46.0189 66.9283 44.2945 68.0664 42.4201 68.9508C39.3904 70.3803 36.5219 69.8327 33.7397 68.5411C25.7527 64.8331 17.7164 61.2366 9.65401 57.698C7.42657 56.7205 5.08323 56.0177 3.03746 54.6308C1.84971 53.8256 1.22993 52.7569 1.10797 51.3654C0.925158 49.2801 1.20829 47.2299 1.56596 44.9282Z" fill="#EE051C"/>
<path d="M23.2904 13.2321C25.9296 13.1974 28.1606 13.3531 30.3188 14.3036C31.5614 14.8508 32.6308 15.5098 32.7331 16.8726C32.836 18.245 31.7633 19.023 30.6039 19.4871C25.7284 21.4391 20.8627 21.4387 16.0303 19.3003C14.9159 18.8072 14.2234 18.0392 14.294 16.7499C14.3675 15.4071 15.3684 14.8657 16.406 14.4263C18.7158 13.448 21.1402 13.0806 23.2904 13.2321Z" fill="#FEFBF9"/>
<path d="M45.3906 16.8603C46.5451 15.7659 47.964 15.6102 49.1617 15.0086C50.7591 14.2061 52.4369 13.5643 54.0743 12.8399C55.3867 12.2592 56.6496 12.0807 58.0462 12.7298C60.6303 13.9306 63.2763 14.998 66.0129 16.1709C64.6699 17.4098 62.9908 17.826 61.5123 18.5826C60.1743 19.2673 58.6997 19.6809 57.3406 20.3298C55.9304 21.0033 54.6556 21.0047 53.1798 20.384C50.5808 19.2909 47.9553 18.2782 45.3906 16.8603Z" fill="#FEFBF9"/>
<path d="M45.0285 20.9795C44.0563 23.9553 42.0984 26.1698 40.5979 28.6422C40.2568 29.2042 39.5458 28.964 39.0307 28.7408C35.8743 27.3735 32.7328 25.9716 29.5757 24.6062C29.2752 24.4762 29.0862 24.3371 29.0765 24.0233C29.0644 23.63 29.3807 23.6127 29.6572 23.5678C32.9944 23.0257 36.3334 22.4944 39.6684 21.9392C41.4175 21.648 43.1596 21.3156 45.0285 20.9795Z" fill="#FEFBF9"/>
<path d="M47.9725 11.0315C46.3743 11.2294 44.9343 11.5412 43.493 11.5472C42.1551 11.5527 41.6881 12.3599 41.4361 13.353C41.2805 13.966 41.0597 14.4816 40.634 15.0126C39.7727 14.32 39.4081 13.2961 38.8818 12.4026C38.3855 11.5599 37.8237 11.0929 36.7601 11.1156C35.0227 11.1527 33.3031 10.8746 31.2773 10.3396C32.6591 9.81659 33.72 9.37743 34.8061 9.01333C36.2246 8.5378 36.2994 8.36879 35.6357 6.9794C35.4054 6.49722 34.9906 5.67139 35.155 5.51156C35.696 4.98573 36.2205 5.76877 36.7983 5.84195C36.8444 5.8478 36.8991 5.8567 36.9322 5.88488C38.8834 7.54698 40.9212 7.30286 43.0057 6.17192C43.4519 5.92977 44.01 5.5117 44.4142 5.92583C44.8224 6.34418 44.3635 6.90958 44.1376 7.34568C43.4704 8.63379 43.9524 9.20964 45.2353 9.63865C46.1209 9.93484 47.1281 10.1256 47.9725 11.0315Z" fill="#FEFBF9"/>
</svg>
