<svg width="81" height="72" viewBox="0 0 81 72" fill="none" xmlns="http://www.w3.org/2000/svg">
<path d="M16.3645 56.903C16.2626 54.8936 16.7908 52.9669 17.2754 51.065C17.5766 49.8831 17.1649 49.3325 16.2003 49.0608C13.1168 48.1923 10.2017 46.9538 7.46119 45.2977C5.76581 44.2732 4.15245 43.1146 2.95428 41.5362C-0.0324185 37.6016 -0.21312 33.9712 3.72659 29.7721C6.53528 26.7784 10.2151 25.0706 14.0273 23.701C17.7068 22.3791 17.7701 22.4004 16.7988 18.7218C16.5034 17.6032 16.4049 16.5023 16.3757 15.3744C16.3205 13.2365 16.0753 11.0852 16.4163 8.96335C16.9814 5.44747 18.2208 2.20174 21.8792 0.904819C24.5395 -0.0382726 27.3234 0.261988 29.9815 1.37749C33.6617 2.92187 36.7729 5.29677 39.672 7.96879C40.5274 8.75727 41.1444 8.88119 42.061 8.04387C45.0051 5.35454 48.0996 2.82088 51.8702 1.38332C55.3079 0.0726926 58.8195 -0.411515 62.0134 2.07106C64.0907 3.6856 65.0627 6.06899 65.3289 8.53538C65.7903 12.8101 65.7315 17.1129 64.436 21.2968C64.1931 22.0814 64.3412 22.5805 65.2665 22.8665C68.4941 23.8641 71.6379 25.0761 74.5142 26.8961C77.2963 28.6564 79.6532 30.732 80.6618 34.0547C81.3809 36.4234 80.8439 38.5 79.5759 40.4639C77.3992 43.8353 74.0714 45.7429 70.519 47.2712C68.9048 47.9657 67.3016 48.7263 65.5455 49.1018C64.6203 49.2997 64.1434 49.8061 64.589 51.0463C65.1195 52.5227 65.3032 54.1637 65.3967 55.7476C65.5361 58.1113 65.7634 60.4915 65.4273 62.8573C64.9053 66.532 63.659 69.8726 59.8688 71.2602C57.3044 72.1989 54.6083 71.8629 52.0501 70.7989C48.4152 69.2872 45.299 67.0038 42.4123 64.3736C40.926 63.0194 40.9474 63.0408 39.5011 64.3289C36.1625 67.3023 32.5701 69.8399 28.2892 71.3589C23.4075 73.0911 18.2341 70.3891 16.8932 65.4178C16.1283 62.5821 16.4402 59.7446 16.3645 56.903ZM40.7976 48.9776C42.7799 48.9776 44.7657 48.908 46.7432 49.0051C47.8352 49.0587 48.5149 48.6083 49.0373 47.7715C51.2119 44.2881 53.3361 40.7767 55.1581 37.089C55.5294 36.3375 55.5228 35.6784 55.1613 34.9732C53.2462 31.2382 51.155 27.6078 48.8262 24.1118C48.3756 23.4355 47.8728 23.1993 47.095 23.1811C43.0373 23.0865 38.9812 23.1081 34.923 23.1576C33.8704 23.1704 33.2384 23.5856 32.7398 24.3778C30.6088 27.7637 28.5719 31.2035 26.7588 34.7736C26.2921 35.6924 26.3217 36.5636 26.7791 37.441C28.6093 40.9513 30.6237 44.3558 32.7366 47.7016C33.2776 48.5582 33.9622 49.0885 35.136 49.0105C37.0156 48.8855 38.9097 48.977 40.7976 48.9776ZM24.9707 3.65986C23.3995 3.54927 21.9924 4.31008 20.9921 5.86439C20.0811 7.27985 19.6637 8.86256 19.5995 10.513C19.4653 13.9625 19.7794 17.3715 20.6303 20.7329C20.7995 21.4012 21.0756 21.5181 21.6735 21.5511C22.9251 21.6203 24.0566 21.0864 25.2462 20.8751C27.009 20.5619 28.7708 20.4307 30.5422 20.277C31.1895 20.2209 31.8097 19.9344 32.2223 19.3531C33.9798 16.877 35.9171 14.5446 37.9353 12.28C38.4572 11.6944 38.2977 11.2522 37.8118 10.8017C35.9264 9.05309 33.9393 7.40882 31.7643 6.05508C29.7907 4.82669 27.69 3.75388 24.9707 3.65986ZM77.6328 36.0059C77.5736 34.5198 76.8639 33.3114 75.8778 32.2907C72.8357 29.1419 68.8445 27.7303 64.8571 26.2708C63.4417 25.7527 63.0596 26.3494 62.693 27.4686C61.979 29.6483 61.2943 31.8453 60.2019 33.8773C59.4217 35.3284 59.3075 36.7218 60.1974 38.2017C61.0908 39.6874 61.599 41.3563 62.1495 42.9929C63.3075 46.4354 63.3012 46.457 66.6436 45.1886C69.8258 43.981 72.9681 42.667 75.4651 40.2549C76.6509 39.1095 77.6161 37.7821 77.6328 36.0059ZM19.5602 60.024C19.5931 60.5858 19.5728 61.6322 19.7279 62.6519C20.5091 67.7865 23.5397 69.62 28.3524 67.7262C32.0009 66.2905 35.0168 63.8401 37.8867 61.2129C38.4294 60.7161 38.3035 60.3078 37.91 59.8324C35.9795 57.5002 33.9619 55.2367 32.2597 52.7236C31.8453 52.1116 31.2017 51.9476 30.5527 51.9005C28.9516 51.7844 27.3715 51.5646 25.7972 51.2478C24.4622 50.9791 23.107 50.8076 21.7582 50.6107C21.2004 50.5293 20.8226 50.6102 20.6468 51.3258C19.982 54.0314 19.5931 56.763 19.5602 60.024ZM22.3331 36.2549C22.3122 35.9077 22.3428 35.7494 22.2894 35.6279C20.9827 32.6496 19.8271 29.6125 18.724 26.554C18.5362 26.0332 18.1533 25.9096 17.5861 26.0929C13.8999 27.284 10.3315 28.6789 7.216 31.0854C3.40354 34.0303 3.28013 37.836 7.02761 40.8464C10.017 43.2478 13.5162 44.618 17.1039 45.8495C18.2886 46.2562 18.7396 45.9116 19.032 44.8907C19.6237 42.825 20.4349 40.8399 21.2425 38.8535C21.6197 37.9258 22.2119 37.0808 22.3331 36.2549ZM62.0897 12.6543C62.0897 11.5753 62.1996 10.483 62.0707 9.41972C61.4986 4.70182 58.702 2.80383 54.2244 4.14073C50.2777 5.31911 47.2583 7.96648 44.243 10.6236C43.4177 11.3509 43.4025 11.8276 44.1159 12.5787C46.0152 14.5787 47.7177 16.745 49.3022 19.0005C49.825 19.7447 50.5162 20.215 51.3838 20.2809C52.8842 20.3949 54.365 20.6389 55.8496 20.8109C57.2047 20.9679 58.4836 21.4414 59.8444 21.5162C60.6546 21.5608 61.0496 21.4741 61.25 20.4922C61.7796 17.8981 62.2414 15.3126 62.0897 12.6543ZM62.1806 59.3412C62.2404 56.7276 61.8292 54.1832 61.2613 51.6404C61.0501 50.6945 60.6678 50.4823 59.8306 50.6252C57.6485 50.9977 55.473 51.5536 53.2768 51.659C51.0762 51.7646 49.5277 52.4195 48.2982 54.3673C47.0333 56.3714 45.3403 58.1049 43.8408 59.9619C43.552 60.3196 43.3156 60.6058 43.8301 61.0824C47.0788 64.0918 50.4314 67.0298 54.8112 68.1491C58.0271 68.971 60.3804 68.2961 61.6961 64.3773C62.2471 62.7361 62.1595 61.0314 62.1806 59.3412ZM45.6781 19.7036C44.6089 18.3449 43.7389 17.1649 42.7912 16.0509C40.9798 13.9216 40.9115 13.8943 39.1261 15.9714C38.1346 17.1248 37.0432 18.2419 36.2716 19.7036C39.4428 19.7036 42.3923 19.7036 45.6781 19.7036ZM27.7723 23.7986C26.1715 24.1047 24.2749 24.4619 22.3811 24.8329C21.8201 24.9428 21.7258 25.3762 21.8931 25.8108C22.5437 27.5016 23.2295 29.1791 23.9175 30.8552C24.0309 31.1314 23.94 31.5875 24.4075 31.6067C24.8286 31.624 24.8932 31.2189 25.0525 30.9457C26.2431 28.9038 27.4275 26.858 28.6189 24.8165C28.9964 24.1695 29.0182 23.7267 27.7723 23.7986ZM53.4089 48.4007C55.6275 47.9837 57.5063 47.6293 59.3857 47.2783C59.945 47.1738 60.0803 46.8158 59.8882 46.3447C59.1895 44.6311 58.7009 42.8421 57.9021 41.159C57.4746 40.2582 57.2024 40.4044 56.8151 41.0643C55.5736 43.1796 54.3444 45.3024 53.1421 47.4401C52.804 48.0412 52.9537 48.4501 53.4089 48.4007ZM53.8364 23.7668C53.1247 23.6959 52.7464 24.0037 53.1358 24.6512C54.4512 26.8384 55.7711 29.0203 56.9586 31.2819C57.217 31.7742 57.559 31.8196 57.8056 31.1615C58.4852 29.3489 59.2206 27.5574 59.9143 25.7499C60.1055 25.2517 59.864 24.9108 59.3659 24.8131C57.5252 24.4518 55.68 24.1136 53.8364 23.7668ZM28.0686 48.3664C28.8366 48.3625 29.0704 48.0839 28.7174 47.4612C27.4792 45.2766 26.208 43.1104 24.9307 40.9483C24.5846 40.3624 24.2586 40.346 23.9882 41.0491C23.3059 42.8233 22.5855 44.5829 21.907 46.3585C21.7673 46.724 21.7695 47.1432 22.2896 47.2467C24.2141 47.6295 26.1418 47.9956 28.0686 48.3664ZM37.2581 52.3257C36.9828 52.2706 36.6666 52.1797 36.4767 52.4466C36.267 52.7413 36.5027 52.9655 36.6845 53.1799C37.9426 54.6637 39.2127 56.1377 40.4508 57.6382C40.7935 58.0536 41.0374 57.9913 41.3387 57.6363C42.5666 56.1897 43.8049 54.7518 45.0224 53.2965C45.2236 53.0561 45.4716 52.7452 45.2269 52.4139C45.0403 52.1614 44.7186 52.2415 44.4388 52.2738C42.0462 52.5494 39.6527 52.3693 37.2581 52.3257Z" fill="#31C1E7"/>
<path d="M40.9748 29.0488C44.7587 28.706 48.0637 32.1831 48.0479 36.0479C48.033 39.6826 45.166 43.1384 40.8714 43.1237C36.5971 43.1092 33.7958 39.6219 33.791 36.0899C33.7859 32.3036 36.8177 28.7037 40.9748 29.0488Z" fill="#31C1E7"/>
</svg>
