<svg width="68" height="76" viewBox="0 0 68 76" fill="none" xmlns="http://www.w3.org/2000/svg">
<path d="M31.0056 0.496584C42.9409 0.496584 52.6723 0.496567 62.4038 0.496584C62.7345 0.496584 63.0662 0.479033 63.3956 0.499371C68.1844 0.795001 67.498 0.388786 67.0277 4.83053C66.7714 7.25217 66.5563 9.70391 66.3071 12.1248C65.995 15.156 65.6733 18.2054 65.4833 21.2609C65.1768 26.1891 64.5008 31.0932 64.0429 36.0133C63.6275 40.4767 63.3162 44.9498 62.9201 49.4151C62.4454 54.7657 62.1409 60.1328 61.3861 65.4569C61.3266 65.8764 61.2426 66.3211 61.3191 66.726C61.5731 68.0705 60.7313 68.5329 59.6937 68.8121C55.7532 69.8719 51.7975 70.8763 47.8643 71.9622C43.6535 73.1247 39.4353 74.2735 35.2771 75.6055C33.9784 76.0215 32.925 75.6056 31.859 75.2689C24.8211 73.0455 17.643 71.3336 10.5552 69.2987C9.72992 69.0618 8.86226 68.7767 8.03599 68.5199C7.04125 68.2107 6.92111 67.7387 6.84722 66.8609C6.40941 61.6594 5.92193 56.4617 5.40872 51.2668C5.17259 48.8767 5.05209 46.4789 4.81493 44.0865C3.93082 35.1677 3.41125 26.2123 2.49493 17.2973C1.98481 12.3342 1.71206 7.34434 0.971936 2.40619C0.767972 1.04528 1.19433 0.661638 2.60131 0.659233C12.804 0.641872 23.0055 0.364208 31.0056 0.496584ZM34.3913 52.7045C33.3523 53.0315 32.4896 52.3787 31.5453 52.185C29.6504 51.7961 27.7973 51.2646 25.9556 50.6603C25.0329 50.3576 24.8049 49.8327 24.7689 49.0213C24.7144 47.796 24.6631 46.5703 24.5835 45.3465C24.527 44.4777 24.161 44.0207 23.1598 44.0588C21.1798 44.1341 19.1929 44.135 17.213 44.0586C16.1748 44.0186 15.9693 44.4122 15.9923 45.3631C16.0721 48.6603 16.729 51.9109 16.7374 55.2195C16.7388 55.7859 16.6963 56.7424 17.8852 57.1119C20.4462 57.908 23.0654 58.4857 25.614 59.3122C25.7043 59.8249 25.974 59.9315 26.4092 59.6637C26.7258 59.5825 27.0177 59.6564 27.2978 59.8049C27.4687 60.6685 28.1047 60.3368 28.6187 60.3186C28.962 60.1984 29.2866 60.2186 29.5835 60.447C29.6897 60.9819 29.9664 61.0714 30.3972 60.7583C30.6907 60.8066 30.9842 60.8549 31.2777 60.9031C31.4475 61.3012 31.791 61.2588 32.1261 61.2375C32.5053 61.2848 32.8846 61.332 33.2638 61.3792C34.36 62.1218 34.4891 63.1888 34.4191 64.4137C34.3303 65.9673 34.3978 67.5298 34.4001 69.0885C34.4011 69.8112 34.5417 70.0864 35.4128 69.7769C37.0534 69.1938 38.7455 68.7149 40.4519 68.3681C42.8445 67.8818 45.1346 67.0421 47.5094 66.4855C49.8214 65.9437 52.0888 65.176 54.3874 64.5446C55.1501 64.335 56.5561 64.4431 56.5099 62.9507C56.3858 58.9487 57.0602 55.0029 57.3974 51.0364C57.7298 47.1269 57.9415 43.2095 58.385 39.3005C58.8557 35.1526 58.9374 30.9562 59.5969 26.8078C59.9161 24.7994 59.9334 22.7142 60.0433 20.705C60.2245 17.394 61.1083 14.1281 60.7784 10.7869C60.7231 10.2264 60.8758 9.72202 61.1393 9.17829C61.8926 7.62337 61.3002 6.2494 59.9579 6.2472C51.8332 6.23401 43.7085 6.25243 35.5838 6.22522C34.6316 6.22203 34.3627 6.58742 34.3836 7.48189C34.4297 9.46457 34.3292 11.4523 34.4226 13.4316C34.4805 14.6593 34.1265 15.0621 32.8487 15.0482C26.8503 14.9832 20.8509 15.0125 14.8519 15.0319C14.3424 15.0335 13.67 14.7423 13.4015 15.5263C13.3181 17.2244 13.5707 18.8949 13.7382 20.5794C14.3379 26.6121 14.8429 32.6541 15.3796 38.6929C15.4292 39.2513 15.3451 39.8291 16.208 39.8693C17.7505 39.941 19.2745 40.1896 20.8324 40.1916C25.3523 40.1975 29.8745 40.0214 34.3928 40.2808C34.3923 44.422 34.3918 48.5632 34.3913 52.7045Z" fill="#F84A14"/>
<path d="M27.2975 59.8047C27.0174 59.6562 26.7255 59.5823 26.4091 59.6635C26.2254 59.3623 25.9546 59.2579 25.6138 59.312C23.0652 58.4854 20.446 57.9078 17.8849 57.1117C16.696 56.7422 16.7386 55.7857 16.7372 55.2192C16.7287 51.9107 16.0718 48.6601 15.992 45.3629C15.969 44.412 16.1745 44.0184 17.2127 44.0584C19.1926 44.1347 21.1796 44.1339 23.1595 44.0586C24.1607 44.0205 24.5268 44.4775 24.5833 45.3463C24.6629 46.5701 24.7142 47.7957 24.7686 49.0211C24.8046 49.8325 25.0326 50.3573 25.9554 50.6601C27.797 51.2644 29.6501 51.7959 31.5451 52.1847C32.4893 52.3785 33.352 53.0313 34.3911 52.7042C34.5786 52.7132 34.7781 52.769 34.9516 52.7241C37.2303 52.1335 39.5355 51.6183 41.7608 50.8671C42.3467 50.6693 43.5895 50.8142 43.4784 49.5865C43.2296 46.8375 44.1251 44.1827 44.0921 41.4474C44.0807 40.4993 43.9264 40.1117 42.8799 40.1491C40.0528 40.25 37.222 40.2441 34.3926 40.2806C29.8743 40.0212 25.3521 40.1973 20.8322 40.1914C19.2742 40.1894 17.7502 39.9408 16.2077 39.869C15.3448 39.8289 15.4289 39.2511 15.3793 38.6927C14.8427 32.6539 14.3376 26.6119 13.7379 20.5792C13.5705 18.8947 13.3179 17.2242 13.4012 15.5262C20.6306 15.5091 27.8602 15.4863 35.0897 15.4764C41.233 15.468 47.3766 15.5025 53.5194 15.4485C54.6047 15.4389 54.8553 15.7475 54.8264 16.7986C54.7785 18.5387 54.3725 20.2438 54.3376 21.9562C54.3083 23.4011 53.8102 23.6167 52.5307 23.6076C46.4843 23.5647 40.4371 23.6222 34.3901 23.644C30.6128 23.5531 26.8355 23.5132 23.0585 23.6646C22.0673 24.395 22.412 25.1615 22.9972 25.9345C23.0388 27.6871 23.0804 29.4397 23.122 31.1922C23.088 31.5573 23.1853 31.7944 23.6198 31.7026C27.2099 31.9587 30.8011 31.8852 34.3926 31.7394C34.9077 31.7724 35.4228 31.8333 35.938 31.834C41.1292 31.8411 46.3205 31.8374 51.5117 31.8389C53.2796 31.8394 53.2645 31.8416 53.1937 33.6755C53.1247 35.4619 52.979 37.2378 52.8047 39.0191C52.264 44.5475 51.8175 50.086 51.4225 55.6269C51.3309 56.9118 50.5622 57.3023 49.585 57.5097C46.3893 58.1878 43.2807 59.1891 40.1183 59.9849C37.8586 60.5536 35.668 61.5085 33.2635 61.379C32.8843 61.3318 32.5051 61.2846 32.126 61.2374C31.9523 60.8493 31.6603 60.7608 31.2775 60.9029C30.984 60.8546 30.6904 60.8064 30.397 60.7581C30.1841 60.5021 29.9116 60.4015 29.5832 60.4468C29.2863 60.2184 28.9617 60.1982 28.618 60.3187C28.2606 59.9345 27.8579 59.6673 27.2975 59.8047Z" fill="#FEFBF9"/>
<path d="M33.2647 61.3786C35.6692 61.5081 37.8598 60.5532 40.1195 59.9845C43.2818 59.1888 46.3905 58.1874 49.5862 57.5093C50.5634 57.3019 51.3321 56.9114 51.4237 55.6266C51.8187 50.0857 52.2652 44.5471 52.8059 39.0187C52.9801 37.2374 53.1259 35.4615 53.1949 33.6751C53.2657 31.8412 53.2808 31.839 51.5129 31.8385C46.3217 31.837 41.1304 31.8407 35.9392 31.8336C35.424 31.8329 34.9089 31.772 34.3938 31.739C34.393 29.0405 34.3922 26.3421 34.3913 23.6436C40.4383 23.6218 46.4854 23.5643 52.5319 23.6072C53.8114 23.6163 54.3094 23.4007 54.3388 21.9558C54.3737 20.2434 54.7796 18.5383 54.8276 16.7982C54.8565 15.7472 54.6058 15.4385 53.5206 15.4481C47.3778 15.5021 41.2342 15.4676 35.0909 15.476C27.8614 15.4859 20.6318 15.5087 13.4023 15.5259C13.6709 14.7417 14.3434 15.0329 14.8528 15.0313C20.8518 15.0119 26.8512 14.9826 32.8496 15.0477C34.1274 15.0615 34.4814 14.6587 34.4235 13.431C34.3301 11.4517 34.4306 9.46398 34.3845 7.4813C34.3637 6.58683 34.6325 6.22145 35.5848 6.22463C43.7094 6.25184 51.8341 6.23342 59.9588 6.24661C61.3012 6.24881 61.8935 7.62278 61.1402 9.1777C60.8768 9.72143 60.724 10.2258 60.7793 10.7863C61.1092 14.1275 60.2254 17.3934 60.0442 20.7044C59.9343 22.7136 59.917 24.7989 59.5978 26.8072C58.9383 30.9556 58.8566 35.152 58.3859 39.2999C57.9424 43.2089 57.7307 47.1264 57.3983 51.0358C57.0611 55.0023 56.3867 58.9481 56.5108 62.9501C56.557 64.4425 55.1511 64.3344 54.3883 64.544C52.0897 65.1754 49.8223 65.9431 47.5103 66.4849C45.1355 67.0415 42.8455 67.8812 40.4528 68.3675C38.7465 68.7143 37.0543 69.1933 35.4138 69.7763C34.5427 70.0858 34.402 69.8106 34.401 69.0879C34.3987 67.5292 34.3312 65.9667 34.42 64.4131C34.49 63.1883 34.3609 62.1213 33.2647 61.3786Z" fill="#FE6616"/>
<path d="M34.394 40.2805C37.2234 40.244 40.0543 40.2498 42.8814 40.1489C43.9279 40.1116 44.0821 40.4991 44.0936 41.4473C44.1265 44.1826 43.2311 46.8373 43.4798 49.5864C43.591 50.8141 42.3481 50.6692 41.7622 50.867C39.5369 51.6181 37.2317 52.1334 34.953 52.724C34.7796 52.7689 34.58 52.7131 34.3926 52.7041C34.393 48.5629 34.3935 44.4217 34.394 40.2805Z" fill="#FE6616"/>
<path d="M27.2988 59.8051C27.8592 59.6677 28.2619 59.9349 28.6193 60.3191C28.1057 60.337 27.4698 60.6688 27.2988 59.8051Z" fill="#FE6616"/>
<path d="M25.6152 59.3115C25.956 59.2574 26.2268 59.3618 26.4105 59.663C25.9752 59.9309 25.7055 59.8242 25.6152 59.3115Z" fill="#FE6616"/>
<path d="M31.2812 60.9026C31.6641 60.7606 31.9561 60.849 32.1298 61.2372C31.7945 61.2584 31.451 61.3007 31.2812 60.9026Z" fill="#FE6616"/>
<path d="M29.584 60.447C29.9123 60.4018 30.1848 60.5023 30.3978 60.7584C29.9669 61.0714 29.6902 60.982 29.584 60.447Z" fill="#FE6616"/>
<path d="M34.3928 23.6441C34.3937 26.3426 34.3945 29.0411 34.3953 31.7396C30.8038 31.8853 27.2126 31.9589 23.6226 31.7029C23.6079 31.3853 23.4399 31.2171 23.1247 31.1924C23.0831 29.4398 23.0415 27.6873 23 25.9346C23.0205 25.1779 23.0408 24.4213 23.0612 23.6647C26.8382 23.5134 30.6155 23.5533 34.3928 23.6441Z" fill="#F84A14"/>
<path d="M23.0601 23.6641C23.0397 24.4207 23.0194 25.1772 22.9989 25.9339C22.4135 25.161 22.0689 24.3945 23.0601 23.6641Z" fill="#FE6616"/>
<path d="M23.1234 31.1914C23.438 31.216 23.6057 31.384 23.6204 31.701C23.1865 31.7926 23.0894 31.5559 23.1234 31.1914Z" fill="#FE6616"/>
</svg>
