<svg width="76" height="73" viewBox="0 0 76 73" fill="none" xmlns="http://www.w3.org/2000/svg">
<path d="M20.6961 72.7314C13.7633 72.5398 8.3638 70.7408 4.27022 66.0324C2.40308 63.8848 1.42265 61.2688 0.781539 58.4755C0.363606 56.6543 0.232511 54.8549 0.293437 53.027C0.476112 47.5479 2.46781 42.7737 6.00336 38.6085C7.33913 37.0348 8.71139 35.5217 10.3845 34.2779C11.1999 33.6717 11.5128 33.6732 11.5988 34.7252C11.6752 35.6593 12.0571 36.539 12.3062 37.4173C12.5641 38.3266 12.3428 38.7313 11.7517 39.2797C9.0578 41.7788 6.85352 44.6128 5.51259 48.0987C4.35894 51.0978 4.18942 54.0763 4.98499 57.1822C5.87552 60.6588 7.58827 63.5741 10.618 65.537C13.8048 67.6016 17.4182 68.0149 21.1289 67.8266C27.0545 67.526 32.0826 64.9102 36.8393 61.6554C41.0175 58.7963 44.3714 55.1687 46.8684 50.7358C47.4758 49.6576 47.6258 48.8867 46.9223 47.7334C45.2918 45.0607 46.4817 42.017 48.6358 40.5151C50.9568 38.8968 54.3153 39.5799 55.8712 41.8701C57.6494 44.4877 57.23 48.4463 54.4738 49.6105C51.9796 50.664 51.1769 52.6839 49.9998 54.5778C45.3317 62.0887 39.0242 67.5664 30.5921 70.458C28.9786 71.0113 27.3783 71.6801 25.715 71.9914C23.7882 72.352 21.8552 72.9191 20.6961 72.7314Z" fill="#904BC5"/>
<path d="M42.9687 69.6358C44.2902 68.5236 45.5264 67.4571 46.7946 66.4302C47.2185 66.087 47.6405 66.3644 48.1028 66.5286C52.5756 68.1177 57.1236 69.022 61.7759 67.3582C66.9436 65.5101 70.1135 61.8988 70.9899 56.417C71.8846 50.8204 69.3962 46.3009 66.0999 42.1959C61.5153 36.4864 55.3175 33.2368 48.3456 31.3751C45.2871 30.5585 42.1429 30.272 38.9826 30.1296C38.0535 30.0878 37.5015 30.4768 37.0029 31.1905C35.4222 33.4541 33.0189 34.1844 30.5357 33.2056C28.3075 32.3272 26.8602 29.6247 27.2708 27.1091C27.7178 24.3707 30.8082 22.4495 33.4621 22.9494C34.9841 23.236 36.0326 23.9709 36.9694 25.0417C37.4203 25.5571 37.9516 25.6768 38.604 25.6649C42.39 25.5959 46.155 25.9343 49.8101 26.8875C54.9423 28.2257 59.6821 30.4303 63.8968 33.7358C68.1514 37.0725 71.7846 40.9336 73.8597 45.9643C76.5029 52.3725 76.9846 58.8036 72.4894 64.6772C69.8516 68.1237 66.2619 70.2856 62.0814 71.6296C58.9014 72.6519 55.7029 72.8871 52.4866 72.5235C49.2209 72.1543 46.027 71.2932 42.9687 69.6358Z" fill="#904BC5"/>
<path d="M36.283 0.351562C43.5984 0.795787 48.9617 4.36675 52.5943 10.6577C54.3329 13.6684 55.504 16.8807 55.8934 20.3675C55.9856 21.1935 56.3761 21.9777 56.3324 22.8502C56.2993 23.5113 56.1086 23.6723 55.4614 23.4123C54.5702 23.0543 53.6562 22.6648 52.7181 22.5362C51.7488 22.4032 51.5186 21.9181 51.3615 21.0712C50.5204 16.5336 48.8304 12.3668 45.6422 8.9428C42.1861 5.23127 37.9691 4.32496 33.092 5.47292C25.0842 7.35779 21.4954 13.2154 19.7759 20.4755C17.9626 28.1317 19.0293 35.6105 22.3747 42.7425C22.7493 43.5411 23.1674 44.321 23.6003 45.09C23.8983 45.6193 24.3703 45.8113 25.0026 45.8589C28.0814 46.0907 30.0774 47.9972 30.3306 50.8679C30.5366 53.2042 28.7838 55.6384 26.1528 56.305C24.1685 56.8077 22.3291 56.2309 20.92 54.6867C19.4517 53.0778 19.2408 51.1493 19.9014 49.1616C20.1003 48.5631 20.1513 48.2114 19.8247 47.6385C17.9951 44.4298 16.4888 41.053 15.5178 37.4968C14.3211 33.1143 13.7933 28.5942 14.3675 24.0762C15.1573 17.8612 17.0524 12.0021 21.3944 7.26557C24.3287 4.06468 27.9057 1.8703 32.2165 0.875043C33.5706 0.562433 34.8942 0.450524 36.283 0.351562Z" fill="#904BC5"/>
</svg>
