<svg width="68" height="76" viewBox="0 0 68 76" fill="none" xmlns="http://www.w3.org/2000/svg">
<path d="M34.077 0.494848C44.7099 0.494831 55.3429 0.519392 65.9755 0.462983C67.2686 0.456129 67.607 0.829821 67.4846 2.05561C66.9779 7.12758 66.5227 12.2048 66.0648 17.2815C65.8109 20.0967 65.6306 22.919 65.3439 25.7306C64.7953 31.1102 64.5125 36.5136 63.8211 41.8818C63.5448 44.0274 63.512 46.2017 63.2834 48.3635C62.6139 54.697 62.1049 61.0487 61.6285 67.4005C61.5463 68.4962 60.7662 68.6114 60.1697 68.7583C56.2466 69.724 52.3736 70.8654 48.4838 71.9494C43.9505 73.2128 39.4041 74.4296 34.8595 75.6522C34.505 75.7475 34.0954 75.8322 33.7537 75.7487C31.6606 75.2369 29.5732 74.6987 27.4963 74.1246C23.8566 73.1185 20.2302 72.0637 16.5897 71.0606C13.7423 70.276 10.8739 69.5665 8.03205 68.7628C7.23132 68.5364 6.70812 68.1243 6.62355 67.0258C6.22244 61.8152 5.65431 56.6175 5.14502 51.4153C4.9297 49.2158 4.81134 47.0038 4.64054 44.8053C4.39248 41.6124 4.12264 38.4104 3.81098 35.2288C3.18102 28.7985 2.7077 22.3551 2.07448 15.9259C1.76452 12.7785 1.54515 9.62237 1.26049 6.4724C1.12483 4.97121 0.983935 3.46704 0.749785 1.9793C0.558975 0.766939 1.0019 0.466981 2.17833 0.471412C12.8111 0.51143 23.4441 0.494848 34.077 0.494848ZM34.199 60.9815C34.1982 63.6273 34.1925 66.2731 34.2007 68.9189C34.2024 69.4796 34.0953 70.1177 35.0776 69.8792C38.4988 69.0486 41.8135 67.8475 45.2611 67.0893C48.0969 66.4656 50.8558 65.4981 53.6606 64.7257C56.3353 63.989 56.5238 63.8735 56.5895 61.1391C56.714 55.9663 57.785 50.8697 57.7791 45.6893C57.7789 45.5495 57.8027 45.4047 57.8433 45.2708C58.7509 42.2763 58.3899 39.1421 58.7469 36.0839C59.1184 32.9 59.8057 29.6825 59.479 26.4244C59.4699 26.3325 59.4764 26.2279 59.5114 26.1443C60.5556 23.6467 60.0369 20.9467 60.4218 18.3519C60.942 14.8452 61.1019 11.244 61.4161 7.68353C61.5001 6.73236 61.3587 6.20112 60.1816 6.20695C51.9596 6.24777 43.7372 6.24617 35.5151 6.20687C34.4155 6.20162 34.148 6.60554 34.1772 7.62115C34.2371 9.69828 34.1888 11.7785 34.185 13.8575C33.6213 13.8834 33.0575 13.9314 32.4938 13.9319C26.5045 13.9373 20.5151 13.9428 14.5257 13.9263C13.7309 13.9241 13.1146 13.9561 13.229 15.0271C13.439 16.994 13.6178 18.9651 13.7633 20.9378C13.8476 22.0805 14.3022 22.5308 15.5366 22.5162C21.195 22.449 26.8547 22.483 32.5139 22.4924C33.0742 22.4933 33.6343 22.5743 34.1945 22.6181C34.1944 25.2854 34.1943 27.9526 34.1941 30.6198C31.474 30.8929 28.7467 30.6834 26.0232 30.738C24.4142 30.7703 24.22 30.9128 24.4415 32.5411C24.6763 34.267 24.9595 35.9904 24.9009 37.732C24.862 38.8862 25.3709 39.1559 26.4202 39.1619C29.0023 39.1766 31.5887 38.9873 34.1674 39.2642C34.1725 43.547 34.1776 47.8299 34.1827 52.1127C33.3676 52.4009 32.7795 51.7293 32.0582 51.5823C29.8701 51.1366 27.7212 50.5014 25.5486 49.9752C24.9165 49.8221 24.8984 49.3877 24.8984 48.9042C24.8987 47.3431 24.6848 45.8029 24.4726 44.261C24.3892 43.6552 24.2894 43.1758 23.4875 43.1884C21.2708 43.2232 19.0533 43.202 16.836 43.2065C16.0568 43.2082 15.7175 43.5918 15.8471 44.3716C15.993 45.2494 16.2703 46.1302 16.255 47.0057C16.2071 49.7535 16.8843 52.4352 16.9064 55.1712C16.9109 55.7287 17.0387 56.2204 17.6509 56.3867C20.462 57.1505 23.2786 57.8936 26.0881 58.6625C28.8005 59.4047 31.5532 60.0065 34.199 60.9815Z" fill="#1075C1"/>
<path d="M34.165 39.2642C31.5864 38.9873 29 39.1765 26.4178 39.1619C25.3686 39.1559 24.8597 38.8861 24.8985 37.732C24.9571 35.9904 24.674 34.267 24.4392 32.5411C24.2176 30.9128 24.4118 30.7703 26.0208 30.738C28.7443 30.6834 31.4717 30.8929 34.1919 30.6197C37.5327 30.6451 40.8733 30.6695 44.2139 30.6968C44.7749 30.7014 45.2423 30.6193 45.3013 29.9072C45.4841 27.7053 45.6858 25.505 45.8799 23.3041C45.9246 22.7973 45.7428 22.4797 45.185 22.4893C41.521 22.5523 37.8534 22.3138 34.1922 22.6181C33.6319 22.5743 33.0718 22.4933 32.5116 22.4924C26.8524 22.4829 21.1927 22.449 15.5342 22.5162C14.2998 22.5308 13.8452 22.0804 13.7609 20.9378C13.6154 18.9651 13.4367 16.994 13.2266 15.0271C13.1122 13.9561 13.7286 13.9241 14.5234 13.9263C20.5127 13.9428 26.5021 13.9373 32.4914 13.9318C33.0552 13.9313 33.6189 13.8834 34.1828 13.8574C40.5129 13.8743 46.8428 13.8775 53.1727 13.9161C55.2112 13.9285 55.3745 13.4184 55.0841 15.9878C54.7362 19.0663 54.5126 22.1579 54.1618 25.2365C53.6894 29.3841 53.3131 33.5577 53.0399 37.7206C52.6974 42.9421 51.9102 48.1208 51.7161 53.351C51.6883 54.1002 51.5046 54.8446 51.376 55.5883C51.3023 56.0147 51.1578 56.2968 50.6363 56.4664C49.4514 56.8518 48.2345 57.1245 47.0436 57.4766C42.7878 58.7347 38.4829 59.8266 34.1967 60.9815C31.5509 60.0065 28.7981 59.4047 26.0858 58.6625C23.2762 57.8936 20.4596 57.1504 17.6486 56.3867C17.0364 56.2204 16.9085 55.7287 16.904 55.1711C16.882 52.4352 16.2047 49.7535 16.2527 47.0057C16.268 46.1302 15.9907 45.2494 15.8448 44.3715C15.7152 43.5918 16.0544 43.2082 16.8337 43.2065C19.0509 43.202 21.2684 43.2232 23.4851 43.1884C24.2871 43.1758 24.3868 43.6552 24.4702 44.261C24.6824 45.8028 24.8963 47.3431 24.8961 48.9042C24.896 49.3877 24.9141 49.8221 25.5462 49.9752C27.7189 50.5014 29.8678 51.1366 32.0559 51.5823C32.7771 51.7292 33.3653 52.4009 34.1805 52.1127C36.915 51.6559 39.5398 50.7607 42.2269 50.1229C43.1404 49.9062 43.5265 49.4608 43.6039 48.6664C43.8817 45.819 44.1156 42.9673 44.3694 40.1174C44.4276 39.464 44.1546 39.1666 43.4832 39.1751C40.3773 39.2144 37.2711 39.2361 34.165 39.2642Z" fill="#F8FBFD"/>
<path d="M34.1997 60.9817C38.486 59.8269 42.7908 58.7349 47.0466 57.4768C48.2375 57.1247 49.4544 56.852 50.6393 56.4666C51.1608 56.297 51.3053 56.015 51.379 55.5886C51.5076 54.8448 51.6913 54.1004 51.7191 53.3513C51.9132 48.121 52.7004 42.9424 53.0429 37.7208C53.3161 33.5579 53.6924 29.3844 54.1649 25.2367C54.5156 22.1582 54.7392 19.0666 55.0871 15.9881C55.3775 13.4186 55.2142 13.9287 53.1757 13.9163C46.8459 13.8777 40.5159 13.8746 34.1858 13.8577C34.1894 11.7787 34.2378 9.6985 34.1779 7.62136C34.1486 6.60575 34.4162 6.20184 35.5157 6.20708C43.7378 6.24639 51.9602 6.24798 60.1823 6.20717C61.3593 6.20134 61.5007 6.73257 61.4168 7.68374C61.1026 11.2442 60.9426 14.8454 60.4225 18.3521C60.0376 20.9469 60.5562 23.6469 59.512 26.1445C59.4771 26.2282 59.4705 26.3327 59.4797 26.4246C59.8063 29.6827 59.119 32.9002 58.7475 36.0841C58.3906 39.1423 58.7516 42.2765 57.844 45.271C57.8034 45.4049 57.7796 45.5498 57.7797 45.6895C57.7857 50.8699 56.7146 55.9665 56.5902 61.1393C56.5244 63.8737 56.336 63.9892 53.6613 64.7259C50.8565 65.4983 48.0976 66.4658 45.2617 67.0895C41.8141 67.8477 38.4995 69.0488 35.0782 69.8794C34.0959 70.1179 34.203 69.4798 34.2013 68.9191C34.1932 66.2733 34.1989 63.6275 34.1997 60.9817Z" fill="#2EB1EC"/>
<path d="M34.168 39.2641C37.2741 39.236 40.3802 39.2142 43.4862 39.175C44.1575 39.1665 44.4306 39.4638 44.3723 40.1173C44.1185 42.9671 43.8847 45.8188 43.6069 48.6663C43.5294 49.4607 43.1434 49.906 42.2299 50.1228C39.5428 50.7606 36.918 51.6558 34.1834 52.1125C34.1782 47.8297 34.1731 43.5469 34.168 39.2641Z" fill="#2EB1EC"/>
<path d="M34.1936 22.6187C37.8548 22.3144 41.5224 22.5529 45.1865 22.4899C45.7442 22.4803 45.926 22.7979 45.8814 23.3046C45.6873 25.5056 45.4855 27.7059 45.3028 29.9078C45.2437 30.6199 44.7763 30.702 44.2153 30.6974C40.8747 30.6701 37.5342 30.6457 34.1934 30.6203C34.1934 27.9532 34.1935 25.2859 34.1936 22.6187Z" fill="#2EB1EC"/>
</svg>
