<svg width="64" height="63" viewBox="0 0 64 63" fill="none" xmlns="http://www.w3.org/2000/svg">
<path d="M1.58796 37.9992C4.24905 43.2172 8.7784 43.6792 13.878 42.2691C18.6872 40.9394 22.6011 38.0337 26.4458 35.0395C32.9872 29.9452 38.5304 23.9978 42.0826 16.3879C43.4194 13.5241 44.2669 10.5924 44.0881 7.35668C43.8959 3.88056 41.4057 1.1059 38.4963 0.268231C39.626 -0.124872 40.7853 0.276479 41.9452 0.278495C45.5805 0.28483 49.2137 0.281853 52.8511 0.429591C60.0141 0.72053 63.5203 5.38332 63.9153 11.8324C64.1499 15.663 63.4065 19.4548 63.1685 23.2688C62.7923 29.2967 62.3041 35.3177 61.8552 41.341C61.4561 46.6969 60.8482 52.0365 60.6137 57.4058C60.5833 58.1016 60.3358 58.7854 60.2484 59.4822C60.1513 60.2566 59.5749 60.1354 59.0804 60.1714C56.6812 60.3459 54.2733 60.4584 51.876 60.5741C47.6383 60.7785 43.4156 61.1845 39.1863 61.4576C33.4596 61.8274 27.7275 62.192 22.0109 62.6581C18.6591 62.9315 15.3308 62.9967 11.9901 62.9744C9.87592 62.9603 7.85231 62.3123 6.00007 61.3298C3.34492 59.9215 2.13513 57.4771 1.46745 54.6421C0.553779 50.7628 1.02826 46.8527 1.05508 42.9533C1.06652 41.2904 1.61517 39.6794 1.58796 37.9992Z" fill="#C80F33"/>
<path d="M34.9695 8.34197C35.0552 11.1308 33.7868 13.4997 32.4348 15.7596C28.5998 22.1696 23.5074 27.3789 17.0255 31.1528C14.5992 32.5655 12.0501 33.749 9.25538 34.2359C7.0257 34.6244 4.67266 33.1794 4.66993 30.5915C4.66526 26.1703 6.66035 22.4634 9.16835 19.0871C13.5477 13.1916 18.8723 8.3194 25.6221 5.17755C27.1749 4.45475 28.8125 4.01118 30.4982 3.85854C33.5021 3.58653 35.0045 5.1435 34.9695 8.34197Z" fill="#C80F33"/>
</svg>
