<svg width="71" height="71" viewBox="0 0 71 71" fill="none" xmlns="http://www.w3.org/2000/svg">
<path d="M35.0337 70.8807C26.4828 70.8807 17.9312 70.8067 9.38156 70.9082C4.17299 70.97 0.0999422 66.9358 0.113443 61.6119C0.156922 44.5119 0.185516 27.4114 0.0977959 10.3118C0.0698945 4.86852 4.22561 0.765727 9.68771 0.801747C26.6941 0.913941 43.7025 0.931924 60.7085 0.792348C66.3148 0.746325 70.2356 5.17161 70.2156 10.3372C70.1494 27.3898 70.1371 44.4432 70.2226 61.4956C70.249 66.7462 66.0859 70.983 60.8275 70.9121C52.231 70.7961 43.6318 70.8807 35.0337 70.8807ZM35.8653 61.5003C40.2333 61.1537 45.1431 60.891 49.8891 59.113C53.1497 57.8914 56.2685 56.5029 59.1379 54.5587C60.5757 53.5845 61.0192 51.9133 60.2388 50.8003C59.4556 49.6836 58.1966 49.6092 56.6221 50.6738C54.5414 52.0808 52.3555 53.287 50.0144 54.1881C46.4454 55.5618 42.7109 56.2011 38.9277 56.6545C33.4895 57.3065 28.2203 56.3647 22.9932 55.0591C19.4556 54.1755 16.2689 52.5139 13.2837 50.4261C11.989 49.5206 10.7076 49.7989 9.96354 50.9676C9.08039 52.3545 9.28934 53.136 10.7374 54.2145C13.9455 56.6037 17.5225 58.2801 21.307 59.463C25.8474 60.8822 30.5448 61.4289 35.8653 61.5003ZM49.1096 29.4871C49.1096 26.465 49.1104 23.443 49.1094 20.4209C49.1087 18.296 49.1392 16.1704 49.0908 14.0466C49.0632 12.8377 48.5998 11.8303 47.2517 11.6074C45.7719 11.3627 44.8432 11.9974 44.4526 13.5165C44.3143 14.0546 44.315 14.6379 44.3145 15.2006C44.3066 24.5501 44.3076 33.8996 44.3118 43.2491C44.312 43.7196 44.3175 44.1966 44.3907 44.6595C44.6417 46.248 45.7688 47.243 47.1287 47.1147C48.4574 46.9893 49.106 46.1011 49.1078 44.3612C49.1129 39.4032 49.1095 34.4451 49.1096 29.4871ZM37.4167 29.7175C37.4167 24.3806 37.4206 19.0436 37.4119 13.7068C37.4108 13.0067 37.4949 12.2863 37.1772 11.6224C36.6014 10.4194 35.5424 10.2376 34.4193 10.4981C33.1352 10.7959 32.856 11.8699 32.855 13.0125C32.8451 23.9697 32.8406 34.9269 32.8532 45.8841C32.8551 47.575 33.7984 48.7063 35.1126 48.7351C36.5395 48.7664 37.4117 47.6975 37.414 45.8699C37.4207 40.4858 37.4163 35.1016 37.4167 29.7175ZM21.2101 29.0729C21.2101 32.1431 21.209 35.2133 21.2104 38.2836C21.2114 40.4564 21.1932 42.6295 21.2276 44.8017C21.2462 45.9799 21.9134 46.8082 23.0265 47.0348C24.1816 47.2699 25.075 46.8315 25.6112 45.6242C25.9185 44.9325 25.9701 44.2691 25.9709 43.5765C25.9818 33.9406 25.9785 24.3048 25.9774 14.6689C25.9774 14.3858 25.9904 14.0988 25.9511 13.8201C25.7323 12.2712 24.6724 11.3945 23.1811 11.5121C21.778 11.6228 21.2153 12.3312 21.2129 14.0523C21.2059 19.0592 21.2104 24.066 21.2101 29.0729ZM14.1241 28.9296C14.1241 25.4375 14.1121 21.9453 14.131 18.4532C14.1371 17.313 13.4886 16.6609 12.5954 16.1441C11.7237 15.6397 11.0098 16.2217 10.4155 16.6347C9.62436 17.1847 9.37547 18.0934 9.38225 19.1047C9.41569 24.0595 9.39734 29.0148 9.39734 33.9698C9.39734 35.5743 9.37325 37.1793 9.40441 38.7832C9.43895 40.5616 10.4991 41.7326 11.9687 41.6845C13.3606 41.6391 14.1247 40.635 14.1257 38.8398C14.1277 35.5364 14.1263 32.2331 14.1241 28.9296ZM56.1375 28.9437C56.1375 32.2908 56.1269 35.638 56.1421 38.9851C56.1493 40.5915 57.0782 41.6886 58.3704 41.6868C59.7702 41.6847 60.8289 40.5736 60.8332 38.9794C60.8514 32.3324 60.8562 25.6852 60.8292 19.0382C60.8221 17.3102 59.9031 16.3582 58.4345 16.3687C56.9883 16.3791 56.1467 17.3418 56.1411 19.0438C56.1301 22.3438 56.1378 25.6437 56.1375 28.9437Z" fill="#0393FE"/>
<path d="M49.1096 29.4874C49.1095 34.4454 49.1129 39.4035 49.1078 44.3615C49.106 46.1014 48.4574 46.9896 47.1287 47.1149C45.7688 47.2433 44.6417 46.2483 44.3907 44.6598C44.3175 44.1968 44.312 43.7199 44.3118 43.2493C44.3076 33.8999 44.3066 24.5504 44.3145 15.2009C44.3149 14.6382 44.3143 14.0549 44.4526 13.5168C44.8432 11.9977 45.7718 11.363 47.2517 11.6077C48.5998 11.8306 49.0632 12.8379 49.0908 14.0469C49.1392 16.1707 49.1087 18.2963 49.1094 20.4212C49.1104 23.4433 49.1096 26.4653 49.1096 29.4874Z" fill="#F8FBFD"/>
<path d="M37.4168 29.7173C37.4166 35.1015 37.421 40.4856 37.4142 45.8697C37.4119 47.6973 36.5397 48.7662 35.1129 48.7349C33.7987 48.7061 32.8553 47.5748 32.8534 45.8839C32.8408 34.9267 32.8453 23.9695 32.8552 13.0123C32.8562 11.8697 33.1355 10.7957 34.4196 10.4979C35.5427 10.2375 36.6017 10.4192 37.1774 11.6223C37.4951 12.2861 37.411 13.0065 37.4121 13.7066C37.4209 19.0435 37.4169 24.3804 37.4168 29.7173Z" fill="#F8FBFD"/>
<path d="M21.2108 29.0732C21.2109 24.0663 21.2064 19.0595 21.2134 14.0526C21.2158 12.3315 21.7786 11.6231 23.1816 11.5125C24.673 11.3949 25.7329 12.2715 25.9517 13.8204C25.991 14.0991 25.978 14.3861 25.978 14.6693C25.9791 24.3051 25.9823 33.941 25.9714 43.5768C25.9706 44.2694 25.9191 44.9328 25.6118 45.6245C25.0755 46.8318 24.1821 47.2702 23.027 47.0351C21.9139 46.8085 21.2468 45.9803 21.2282 44.802C21.1938 42.6298 21.212 40.4567 21.2109 38.2839C21.2095 35.2137 21.2107 32.1434 21.2108 29.0732Z" fill="#F8FBFD"/>
<path d="M14.1259 28.9295C14.127 32.2329 14.1284 35.5363 14.1264 38.8397C14.1254 40.6349 13.3613 41.639 11.9694 41.6844C10.4998 41.7325 9.43965 40.5614 9.4051 38.7831C9.37395 37.1792 9.39804 35.5742 9.39804 33.9697C9.39804 29.0147 9.41639 24.0594 9.38295 19.1046C9.37616 18.0933 9.62506 17.1846 10.4162 16.6346C11.0105 16.2215 11.7244 15.6396 12.5961 16.144C13.4893 16.6608 14.1378 17.3129 14.1317 18.4531C14.1128 21.9452 14.1248 25.4374 14.1259 28.9295Z" fill="#F8FBFD"/>
<path d="M56.1365 28.9442C56.1367 25.6442 56.129 22.3442 56.1399 19.0443C56.1455 17.3423 56.9872 16.3796 58.4333 16.3692C59.9019 16.3587 60.821 17.3107 60.8281 19.0387C60.8551 25.6856 60.8502 32.3329 60.8321 38.9799C60.8277 40.5741 59.7691 41.6852 58.3693 41.6872C57.077 41.6891 56.1482 40.592 56.141 38.9855C56.1258 35.6385 56.1364 32.2913 56.1365 28.9442Z" fill="#F8FBFD"/>
</svg>
