<svg width="62" height="80" viewBox="0 0 62 80" fill="none" xmlns="http://www.w3.org/2000/svg">
<path d="M0.158849 39.5832C0.158918 29.05 0.160026 18.5168 0.158157 7.98357C0.157741 5.45396 0.698045 3.13242 3.06717 1.77069C4.20151 1.11874 5.55345 0.964967 6.87264 0.923539C17.1676 0.600215 27.4595 1.0511 37.7532 1.04228C42.9471 1.03783 48.1414 0.988619 53.3346 0.903011C54.7754 0.879264 56.1839 1.16287 57.5165 1.51627C59.2033 1.96363 60.0991 3.46516 60.4526 5.12978C61.2923 9.08332 61.1548 13.0681 60.6521 17.0534C60.5933 17.5193 60.6058 17.9958 60.6058 18.4673C60.6036 32.9219 60.562 47.3767 60.6455 61.8308C60.6594 64.2205 61.0776 66.6269 60.8822 69.019C60.7227 70.9727 60.6721 72.9531 60.0768 74.8643C59.085 78.0483 57.5715 78.6792 54.7825 78.9437C51.7283 79.2335 48.6516 78.8815 45.5857 78.8687C34.3425 78.8217 23.0988 78.8327 11.8554 78.8635C9.36313 78.8703 6.89015 79.0731 4.40097 78.5411C2.48401 78.1315 1.15887 76.9044 0.693476 74.9514C-0.0969025 71.6355 0.187927 68.2852 0.172073 64.9471C0.131778 56.4927 0.15871 48.0379 0.158849 39.5832ZM48.6527 52.9653C48.6527 48.0052 48.5159 43.0402 48.6881 38.086C48.8938 32.1661 45.5655 29.1738 40.8327 27.9053C35.435 26.4585 29.9372 26.869 24.5099 28.1843C21.9015 28.8164 21.9157 28.9998 21.8343 26.1891C21.8302 26.0475 21.8347 25.9057 21.8336 25.764C21.7937 20.5699 21.7534 15.3758 21.7142 10.1817C21.7096 9.57665 21.855 8.95469 20.8493 8.97483C18.2992 9.0259 15.7473 9.00089 13.1962 8.98668C12.6051 8.98339 12.3476 9.21591 12.321 9.81258C12.2644 11.0827 12.1198 12.3499 12.0904 13.6201C11.899 21.8805 12.3625 30.1352 12.3235 38.3946C12.323 38.4891 12.3326 38.5844 12.3235 38.6779C12.2289 39.6565 12.7963 39.8722 13.547 39.5919C16.7088 38.4113 19.9938 37.6538 23.2296 36.7327C27.3667 35.555 31.5312 34.8118 35.856 35.8549C38.5082 36.4946 39.2832 37.2353 39.2538 39.9623C39.2025 44.7259 39.102 49.4891 39.0219 54.2524C39.0092 55.0076 38.9755 55.763 38.9841 56.5179C39.0345 60.9046 38.8399 65.294 39.2003 69.6784C39.2811 70.661 39.6245 70.9456 40.58 70.9193C42.8459 70.8568 45.1178 70.831 47.3813 70.9277C48.5187 70.9763 48.6811 70.5401 48.6734 69.5464C48.6302 64.0197 48.6526 58.4924 48.6527 52.9653ZM47.2647 8.99071C45.8495 8.99071 44.4303 9.05528 43.0207 8.96754C42.1123 8.91101 41.6519 9.33897 41.27 10.0392C39.3453 13.5693 37.2608 17.0051 35.0815 20.3823C34.871 20.7086 34.5778 20.9665 34.716 21.3672C34.8834 21.8537 35.343 21.6931 35.6905 21.6951C38.0961 21.7085 40.502 21.701 42.9078 21.7029C43.4352 21.7033 43.9706 21.6831 44.3309 21.2375C47.2061 17.6838 50.2757 14.2709 52.3011 10.105C52.7633 9.15424 52.3918 8.96206 51.5099 8.98224C50.0956 9.01461 48.6798 8.99092 47.2647 8.99071ZM12.1988 60.0688C12.1988 62.7603 12.1944 65.4519 12.2042 68.1434C12.2054 68.5005 12.0663 68.9403 12.5052 69.1534C12.9716 69.3799 13.2051 68.9095 13.4436 68.699C16.1081 66.3455 18.7227 63.9355 21.3962 61.5925C22.0833 60.9902 22.0081 60.6514 21.4515 59.9803C18.9742 56.9942 16.0728 54.4272 13.369 51.6665C13.1521 51.445 13.0134 50.9024 12.5035 51.1334C12.0467 51.3404 12.2071 51.7848 12.2054 52.1359C12.1929 54.7801 12.1986 57.4245 12.1988 60.0688Z" fill="#4040B3"/>
<path d="M48.6537 52.9666C48.6536 58.4937 48.6312 64.0209 48.6744 69.5476C48.6822 70.5413 48.5197 70.9776 47.3824 70.929C45.1188 70.8323 42.847 70.858 40.581 70.9205C39.6256 70.9469 39.2822 70.6622 39.2014 69.6797C38.8409 65.2952 39.0355 60.9058 38.9851 56.5191C38.9765 55.7642 39.0102 55.0089 39.0229 54.2537C39.1031 49.4903 39.2035 44.7272 39.2548 39.9635C39.2842 37.2365 38.5092 36.4958 35.857 35.8561C31.5322 34.813 27.3677 35.5563 23.2307 36.7339C19.9948 37.6551 16.7098 38.4125 13.5481 39.5931C12.7974 39.8734 12.2299 39.6577 12.3245 38.6792C12.3336 38.5856 12.3241 38.4903 12.3245 38.3958C12.3635 30.1365 11.9001 21.8817 12.0914 13.6213C12.1209 12.3511 12.2654 11.0839 12.3221 9.81381C12.3486 9.21714 12.6061 8.98462 13.1972 8.98791C15.7483 9.00212 18.3002 9.02713 20.8503 8.97606C21.856 8.95592 21.7106 9.57788 21.7152 10.1829C21.7545 15.377 21.7948 20.5711 21.8346 25.7652C21.8357 25.9069 21.8312 26.0487 21.8353 26.1903C21.9167 29.001 21.9026 28.8176 24.511 28.1855C29.9382 26.8703 35.436 26.4597 40.8338 27.9065C45.5666 29.175 48.8949 32.1673 48.6891 38.0872C48.5169 43.0414 48.6537 48.0064 48.6537 52.9666Z" fill="#F8FBFD"/>
<path d="M47.2641 8.99115C48.6792 8.99126 50.095 9.01495 51.5093 8.98258C52.3911 8.96239 52.7627 9.15458 52.3005 10.1054C50.2751 14.2712 47.2055 17.6842 44.3303 21.2378C43.97 21.6834 43.4346 21.7036 42.9072 21.7032C40.5014 21.7013 38.0955 21.7089 35.6899 21.6954C35.3424 21.6934 34.8828 21.8541 34.7154 21.3676C34.5772 20.9668 34.8704 20.709 35.0808 20.3827C37.2602 17.0055 39.3447 13.5696 41.2694 10.0395C41.6512 9.33931 42.1117 8.91135 43.0201 8.96788C44.4297 9.05562 45.8489 8.99105 47.2641 8.99115Z" fill="#F8FBFD"/>
<path d="M12.199 60.0686C12.1989 57.4243 12.1932 54.78 12.2057 52.1357C12.2073 51.7847 12.0469 51.3402 12.5037 51.1333C13.0137 50.9022 13.1524 51.4449 13.3692 51.6663C16.073 54.4271 18.9745 56.994 21.4518 59.9802C22.0084 60.6512 22.0836 60.9901 21.3965 61.5923C18.723 63.9353 16.1083 66.3454 13.4439 68.6988C13.2054 68.9094 12.9718 69.3797 12.5055 69.1532C12.0666 68.9401 12.2057 68.5003 12.2044 68.1432C12.1947 65.4517 12.1991 62.7602 12.199 60.0686Z" fill="#F8FBFD"/>
</svg>
