<svg xmlns="http://www.w3.org/2000/svg" width="260" height="260" viewBox="-52.535 -13.312 260 260" overflow="visible"><path fill-rule="evenodd" clip-rule="evenodd" fill="#EAF2F7" d="M90.857 105.812l3.495-1.56v3.17c0 2.254-.25 4.898-3.08 6.258l15.595-7.496c2.128-1.02 3.08-3.527 3.08-5.572V73.494l-.936.413v-3.252c0-2.253.25-4.898 3.08-6.257L93.94 73.123c-2.126 1.023-3.08 3.526-3.08 5.572v27.117zm-38.45-99.73l33.17 15.93c15.18 7.292 22.772 15.115 22.772 34.142v1.473l-15.793 7.59V59.57c0-9.393-2.4-19.702-17.02-27.768l-2.144-1.03c-3.18-1.53-7.113-2.938-11.318-3.15-4.342 5.688-5.584 11.474-5.584 19.88v65.11c0 5.474-4.845 11.078-10.466 13.914l-3.822 1.93c-.38.207-.757.398-1.14.576L30.43 134.4c-14.903 6.15-28.058-3.447-28.058-16.375v-84.75c0-6.027 1.96-16.656 10.244-21.622l-.096.047c3.367-2.026 6.82-2.77 10.13-2.742-2.892.067-5.39.59-7.54 1.457C28.367 3.762 36.986-1.325 52.406 6.08zm9.368 18.993c-10.402-5.007-16.625-7.99-26.906-12.938-3.18-1.53-7.113-2.938-11.317-3.15-4.343 5.687-5.585 11.474-5.585 19.88 0 29.598.194 58.502.194 88.013 0 9.21 8.504 15.034 17.59 13.74 3.254-3.17 5.143-7.17 5.143-11.103V51.91c0-6.027 1.96-16.656 10.244-21.623l-.098.047c3.365-2.023 6.814-2.77 10.12-2.74-2.878.068-5.365.588-7.51 1.446 2.933-1.467 5.59-2.823 8.122-3.965z"/><path fill-rule="evenodd" clip-rule="evenodd" fill="#2EBCE3" d="M93.23 102.164l.158-.07a2.365 2.365 0 0 1 3.33 2.16h.008v3.167c0 .336-.006.68-.02 1.028l9.142-4.396c.49-.232.874-.663 1.156-1.174.388-.7.57-1.524.57-2.265v-24.82a2.355 2.355 0 0 1-.932-1.885h-.003v-3.252c0-.333.002-.675.02-1.023l-11.703 5.623c-.488.235-.873.665-1.156 1.175-.386.7-.57 1.526-.57 2.267v23.468zm-1.572 7.897c.23-.613.3-1.385.316-2.15a2.374 2.374 0 0 1-3.49-2.096v-27.12c0-1.464.373-3.114 1.163-4.544.724-1.31 1.802-2.453 3.27-3.158l18.155-8.727 2.04 4.265c-.772.37-1.19.902-1.406 1.485-.28.746-.32 1.72-.32 2.64v.95a2.38 2.38 0 0 1 .936 1.89v27.116a9.612 9.612 0 0 1-1.164 4.548c-.723 1.31-1.8 2.45-3.27 3.16l-15.595 7.494-2.04-4.263c.77-.37 1.186-.903 1.405-1.487zM53.426 3.95l33.17 15.93c7.94 3.813 13.922 7.803 17.98 13.41 4.098 5.665 6.146 12.816 6.146 22.863v1.473c0 1.02-.645 1.89-1.55 2.227l-15.595 7.495a2.363 2.363 0 0 1-3.382-2.132h-.01V59.57c0-4.38-.55-8.955-2.768-13.307-2.227-4.364-6.174-8.603-12.996-12.37l-2.055-.99c-1.48-.714-3.14-1.4-4.923-1.93-1.36-.407-2.78-.72-4.23-.886a22.238 22.238 0 0 0-3.266 7.056c-.79 2.978-1.08 6.338-1.08 10.357v65.112c0 3.16-1.3 6.302-3.375 9.06-2.15 2.86-5.163 5.333-8.4 6.967l-3.82 1.93-.034.016c-.214.117-.392.21-.536.282l-.13.06-.506.253-.07.033-10.496 5.3c-.086.042-.174.08-.262.11-3.453 1.412-6.822 2.056-9.988 2.056-4.535 0-8.675-1.31-12.074-3.555a20.333 20.333 0 0 1-7.62-9.23A20.514 20.514 0 0 1 0 118.025v-84.75c0-3.754.717-9.187 3.068-14.155 1.71-3.61 4.28-6.98 8.057-9.328.057-.042.117-.083.182-.12l-.002-.002a21.874 21.874 0 0 1 3.08-1.536c.832-.42.283-.147 1.475-.748C28.727.896 37.673-3.617 53.426 3.95zm31.132 20.195L51.388 8.213C41.75 3.585 34.88 4.258 27.578 7.12c.923.187 1.822.416 2.693.676 2.03.605 3.93 1.39 5.627 2.207 9.664 4.653 12.056 5.803 14.076 6.774L62.72 22.9l21.838 1.245zm16.18 11.927c-3.533-4.882-8.938-8.45-16.18-11.928l16.18 11.928zm5.24 20.073c-.003-8.976-1.75-15.247-5.24-20.072l5.24 20.072zM94.93 61.452l11.045-5.308-11.045 5.308zm0-1.883v1.88-1.882zm-3.287-15.46l3.287 15.46c0-5.01-.65-10.293-3.287-15.46zM76.678 29.725l14.967 14.387c-2.627-5.15-7.185-10.095-14.967-14.387zm-.195-.096l.194.095a1.455 1.455 0 0 0-.194-.096zm-2.06-.993l2.06.992-2.06-.994zm-5.627-2.207l5.628 2.207c-1.7-.818-3.598-1.602-5.628-2.207zm-4.677-1l4.675 1a28.86 28.86 0 0 0-4.677-1zm-8.756 10.508c.52-1.958 1.227-3.8 2.156-5.58-1.08.215-2.073.513-2.987.878a2.276 2.276 0 0 1-.275.092c-.582.254-1.164.548-1.746.885-.05.036-.104.07-.156.104-3.02 1.81-5.09 4.52-6.48 7.458-1.998 4.217-2.605 8.89-2.605 12.134v67.606c0 2.18-.49 4.37-1.404 6.46l3.096-1.563c2.618-1.322 5.04-3.303 6.75-5.576 1.482-1.97 2.41-4.138 2.41-6.224V47.5c0-4.387.333-8.123 1.245-11.562zM21.248 133.93c2.317 0 4.77-.418 7.287-1.332-2.44-.61-4.69-1.69-6.603-3.17-3.153-2.438-5.368-5.943-5.974-10.196a16.86 16.86 0 0 1-.168-2.353c0-17.588-.045-30.744-.09-43.943-.053-16.027-.105-32.064-.105-44.07 0-4.387.334-8.124 1.246-11.562A26.895 26.895 0 0 1 19 11.725c-1.088.218-2.09.518-3.01.887-.09.035-.178.066-.268.09a17.34 17.34 0 0 0-1.735.878c-.05.037-.102.072-.156.105-3.02 1.808-5.09 4.52-6.48 7.457-2 4.217-2.606 8.89-2.606 12.135v84.748c0 2.173.418 4.223 1.182 6.075a15.618 15.618 0 0 0 5.86 7.078c2.637 1.74 5.877 2.753 9.46 2.753zm35.06-108.86c-6.442-3.1-7.33-3.528-8.372-4.027L33.842 14.27a33.31 33.31 0 0 0-4.922-1.932 24.547 24.547 0 0 0-4.232-.885 22.233 22.233 0 0 0-3.266 7.057c-.79 2.977-1.08 6.337-1.08 10.357 0 17.61.044 30.85.088 44.07.053 16.01.107 32.038.107 43.94 0 .603.04 1.163.113 1.69.422 2.963 1.97 5.41 4.174 7.115 2.266 1.754 5.232 2.744 8.415 2.744.474 0 .946-.02 1.41-.063 1.167-1.244 2.1-2.61 2.757-4.03.727-1.567 1.115-3.204 1.115-4.817V51.91c0-3.755.715-9.186 3.068-14.155 1.712-3.61 4.28-6.978 8.055-9.326.06-.044.12-.085.185-.123l-.002-.002a21.61 21.61 0 0 1 3.108-1.547l1.02-.512c.802-.402 1.588-.796 2.35-1.175zm7.63-.968l.182 1.327c.065-.44.01-.898-.183-1.33z"/><path fill-rule="evenodd" clip-rule="evenodd" fill="#EAF2F7" d="M90.857 105.812l18.154-8.094V70.655c0-2.253.25-4.898 3.08-6.257L93.94 73.123c-2.127 1.023-3.08 3.526-3.08 5.572v27.117z"/><path fill-rule="evenodd" clip-rule="evenodd" fill="#2EBCE3" d="M91.154 105.356l17.56-7.83v-26.87c0-1.153.065-2.41.5-3.568a5.36 5.36 0 0 1 .71-1.32l-15.86 7.62c-.916.443-1.604 1.185-2.08 2.044a6.922 6.922 0 0 0-.83 3.264v26.66zm17.98-7.37l-18.13 8.085a.316.316 0 0 1-.146.04.3.3 0 0 1-.297-.3V78.697c0-1.147.29-2.437.906-3.55.53-.958 1.305-1.79 2.346-2.288l18.155-8.727.254.534c-1.335.64-2.06 1.583-2.45 2.63-.4 1.065-.46 2.262-.46 3.36v27.063h-.003a.294.294 0 0 1-.173.27z"/><path fill-rule="evenodd" clip-rule="evenodd" fill="#F6F6F6" d="M147.955 89.677l3.453 1.702h-.002c1.367.652 2.236 2.175 2.236 4.33v79.098c0 3.935-2.89 8.564-6.423 10.274l-89.703 43.432c-1.798.87-3.432.826-4.6.053l-.007.007-3.134-1.622c-.23-.12-.45-.238-.658-.354-1.484-.836-2.113-1.04-2.66-2.67-.207-.56-.306-1.214-.306-2.01v-79.115c0-3.94 2.888-8.566 6.422-10.276l20.597-9.975-.025-.036c10.34-5.015 3.28-15.17 13.62-20.186l20.257-9.822c2.158-1.047 3.556-1.132 4.515-.66l.002-.003 4.804 2.508h-.002c1.856.772 2.145 3.528 2.88 5.722.432-.146.905-.34 1.42-.59l-.017.092 21.653-10.484c2.818-1.366 3.605-.445 5.68.58zm-39.73 13.19l-15.256 7.396c-1.8.87-3.183 4.535-2.468 5.986l15.257-7.4c1.91-.924 3.26-4.64 2.465-5.985z"/><path fill-rule="evenodd" clip-rule="evenodd" fill="#B3B4B4" d="M149.003 87.553l3.452 1.704c.054.025.104.054.153.082 1.085.562 1.96 1.444 2.556 2.6.547 1.06.852 2.333.852 3.77v79.098c0 2.417-.86 5.006-2.25 7.226-1.386 2.22-3.337 4.127-5.518 5.182l-89.7 43.432c-1.198.58-2.385.86-3.503.874-1.148.013-2.205-.26-3.125-.79a2.297 2.297 0 0 1-.24-.127l-2.986-1.547-.02-.008-.342-.182-.02-.01-.352-.19c-.04-.024-.082-.048-.12-.073l-.267-.148h-.003c-1.73-.956-2.552-1.408-3.335-3.705l-.002.002a7.097 7.097 0 0 1-.352-1.38 9.768 9.768 0 0 1-.102-1.445v-79.116c0-2.42.86-5.008 2.248-7.228s3.34-4.128 5.52-5.183l20.158-9.76c.158-.122.326-.22.502-.294 4.043-2.005 4.736-5.21 5.43-8.416.94-4.355 1.883-8.71 8.098-11.725l20.26-9.823c1.31-.636 2.445-.986 3.437-1.11 1.116-.143 2.067-.005 2.894.346.16.056.314.13.458.22l4.54 2.366c2.077.9 2.855 2.723 3.437 4.685l20.49-9.922c3.475-1.682 4.81-.97 6.97.187.205.105.425.223.785.4zm1.186 5.864l-3.283-1.617c-.255-.126-.596-.31-.914-.48-.846-.453-1.37-.73-2.69-.092l-21.538 10.428a2.373 2.373 0 0 1-.754.263l-.077.03-.127.06c-.26.106-.54.21-.838.31a2.367 2.367 0 0 1-2.995-1.493c-.17-.508-.324-1.072-.48-1.636-.34-1.242-.68-2.49-1.062-2.646l.003-.006a2.348 2.348 0 0 1-.275-.137l-4.625-2.413-.036-.018c-.077-.038-.23-.048-.474-.017-.484.06-1.128.275-1.976.686l-20.256 9.82c-4.124 2-4.823 5.23-5.52 8.46-.92 4.248-1.836 8.493-7.643 11.497-.13.1-.273.19-.428.265L53.6 134.656c-1.354.653-2.613 1.915-3.554 3.418-.94 1.507-1.523 3.203-1.523 4.725v79.114c0 .286.017.533.048.742.025.175.062.326.11.452h-.005l.023.064c.2.593.503.76 1.15 1.118v.004l.01.006.285.16c.043.02.088.043.132.067l.278.156.324.17v.002l2.91 1.507c.15.06.294.135.433.228.205.133.47.202.784.2.417-.005.915-.138 1.48-.412l89.702-43.43c1.352-.653 2.61-1.917 3.552-3.42.94-1.506 1.524-3.203 1.524-4.724V95.712c0-.674-.11-1.21-.312-1.603a1.358 1.358 0 0 0-.47-.544 2.42 2.42 0 0 1-.296-.15zM91.94 108.13l-.01.005v-.005l-.015.007a2.937 2.937 0 0 0-.2.11c-1.358.757-2.48 2.314-3.12 3.923-.7 1.76-.875 3.768-.23 5.1.177.364.43.662.735.884h.002l.023.02.08.053.004.003c.67.438 1.546.522 2.316.15l.003.003 15.256-7.397a5.47 5.47 0 0 0 .35-.19c1.372-.807 2.476-2.378 3.09-3.964.658-1.707.8-3.62.178-4.904a3.56 3.56 0 0 0-.08-.15 1.814 1.814 0 0 0-.06-.114 2.37 2.37 0 0 0-3.142-.893l-15.184 7.36z"/><path fill-rule="evenodd" clip-rule="evenodd" fill="#F6F6F6" d="M148 89.7l3.408 1.68-2.354 2.646-.355 1.813v76.4c0 3.933-2.89 8.56-6.425 10.27l-85.183 41.243-2.03 1.53-2.15 3.29-3.136-1.622c-.23-.12-.45-.237-.658-.353-1.485-.837-2.114-1.042-2.66-2.67-.208-.562-.307-1.215-.307-2.01V142.8c0-3.94 2.89-8.566 6.423-10.276l20.597-9.974-.027-.036c10.34-5.014 3.28-15.17 13.62-20.185l20.257-9.82c2.157-1.05 3.555-1.134 4.514-.663l.002-.002 4.805 2.51-2.575 1.396c1.703 6.2 3.84 5.288 8.692 2.938l19.817-9.596c2.834-1.37 3.638-.423 5.724.606zm-56.953 18.387l-3.29 9.48c.088-.033.18-.072.27-.115l17.733-8.6c1.458-.706 2.664-2.674 2.775-4.47.006-.092.01-3.153.01-3.243 0-.987-.35-1.71-.902-2.06l-16.596 9.006z"/><path fill-rule="evenodd" clip-rule="evenodd" fill="#B3B4B4" d="M148.133 89.434l3.406 1.68.346.173-.258.29-2.3 2.587-.335 1.702v76.375c0 2.023-.74 4.223-1.933 6.13-1.19 1.907-2.84 3.53-4.657 4.413L57.25 224.01l-1.966 1.48-2.124 3.25-.146.223-.237-.123-3.134-1.622h-.003l-.343-.183h-.002c-.11-.06-.22-.12-.32-.177l-.404-.226c-1.264-.7-1.857-1.026-2.39-2.602-.11-.3-.19-.623-.243-.975a7.42 7.42 0 0 1-.08-1.137v-79.115c0-2.028.74-4.225 1.933-6.133 1.19-1.906 2.84-3.53 4.657-4.41l20.267-9.813-.03-.037.333-.16c5.04-2.443 5.844-6.166 6.647-9.888.836-3.863 1.67-7.727 6.972-10.297l20.258-9.82c1.108-.54 2.03-.83 2.798-.928.726-.09 1.322-.013 1.82.195l.013-.007.15.08 4.805 2.507.492.257-.487.263-2.37 1.288c.8 2.808 1.672 4.01 2.87 4.234 1.262.236 2.972-.562 5.348-1.712l19.817-9.596c2.543-1.23 3.537-.696 5.125.156.264.147.55.3.858.45zm2.795 2.04l-3.057-1.51c-.322-.16-.607-.312-.877-.457-1.425-.765-2.317-1.243-4.587-.145l-19.818 9.596c-2.48 1.198-4.266 2.032-5.712 1.76-1.477-.274-2.508-1.658-3.396-4.886l-.063-.226.206-.11 2.09-1.136-4.21-2.196-.098-.05c-.43-.21-.964-.295-1.64-.21-.708.088-1.566.363-2.615.873L86.893 102.6c-5.04 2.443-5.846 6.166-6.65 9.89-.816 3.78-1.635 7.562-6.642 10.13l.034.04-.33.16-20.6 9.974c-1.715.83-3.277 2.375-4.412 4.19-1.136 1.818-1.84 3.904-1.84 5.82v79.113c0 .385.022.733.07 1.05.048.313.12.6.217.858v.008c.457 1.362.986 1.655 2.116 2.278v.003l.408.227c.102.058.206.116.312.173l.338.178 2.898 1.5 2.006-3.065.07-.073 2.03-1.53.05-.03 85.182-41.24c1.713-.83 3.275-2.376 4.41-4.192 1.14-1.818 1.844-3.905 1.844-5.816v-76.4l.006-.057.355-1.813.068-.14 2.098-2.36zm-60.023 16.354l-.138.163-3.29 9.48-.205.59.586-.215c.04-.015.09-.034.146-.06.05-.02.1-.043.147-.065l17.74-8.602c.775-.376 1.482-1.082 2.01-1.927.522-.845.87-1.84.93-2.792a39 39 0 0 0 .005-.912l.006-2.347c0-.525-.093-.985-.26-1.367-.18-.41-.45-.73-.78-.943l-.146-.095-.153.084-16.594 9.007zm16.714-8.4l-16.334 8.865-3.025 8.715 17.37-8.422c.675-.326 1.296-.953 1.766-1.708.475-.767.79-1.663.844-2.515.003-.04.005-.407.005-.878l.004-2.347c0-.443-.078-.823-.21-1.13a1.62 1.62 0 0 0-.42-.58z"/><path fill-rule="evenodd" clip-rule="evenodd" fill="#FFF" d="M57.52 135.098l20.598-9.973-.03-.037c10.342-5.014 3.28-15.17 13.62-20.184l20.258-9.823c11.052-5.357 1.755 12.81 15.265 6.267l19.99-9.678c3.534-1.71 6.425.11 6.425 4.043v79.097c0 3.935-2.89 8.564-6.423 10.274l-89.7 43.432c-3.532 1.71-6.422-.107-6.422-4.046v-79.097c0-3.938 2.89-8.565 6.42-10.275zm53.183-33.435l-17.734 8.6c-1.533.743-2.787 2.878-2.787 4.747 0 .146.01 3.256.022 3.39.175 1.58 1.353 2.308 2.763 1.624l17.733-8.6c1.434-.695 2.625-2.61 2.77-4.383.01-.12.017-3.21.017-3.33-.002-1.868-1.255-2.79-2.787-2.046z"/><path fill-rule="evenodd" clip-rule="evenodd" fill="#B3B4B4" d="M57.39 134.83l20.267-9.81-.027-.037.33-.16c5.04-2.443 5.844-6.166 6.65-9.89.833-3.86 1.668-7.725 6.97-10.295l20.257-9.823c3.827-1.855 5.373-1.004 6.218.738.365.75.58 1.656.8 2.576h-.002c.22.912.44 1.84.81 2.602.862 1.778 2.624 2.677 7.44.346l19.99-9.68c.943-.456 1.848-.673 2.67-.673.803 0 1.53.205 2.146.592.615.387 1.115.953 1.467 1.677.36.747.562 1.662.562 2.715v79.096c0 2.024-.74 4.223-1.934 6.13-1.19 1.907-2.84 3.532-4.656 4.412l-89.702 43.43c-.943.46-1.848.674-2.67.674-.803 0-1.53-.205-2.146-.592-.615-.387-1.117-.953-1.467-1.676-.36-.75-.563-1.662-.563-2.718V145.37c0-2.026.74-4.224 1.933-6.13 1.19-1.908 2.84-3.53 4.655-4.413zm20.855-9.437l-20.6 9.97c-1.712.83-3.274 2.376-4.41 4.193-1.136 1.817-1.843 3.905-1.843 5.817v79.097c0 .964.182 1.793.504 2.46.3.62.728 1.105 1.25 1.434.518.326 1.14.5 1.83.5.738 0 1.555-.198 2.413-.614l89.7-43.43c1.713-.83 3.275-2.375 4.412-4.19 1.137-1.82 1.842-3.906 1.842-5.82V95.712c0-.964-.18-1.79-.502-2.458a3.424 3.424 0 0 0-1.25-1.434c-.52-.326-1.14-.5-1.832-.5-.737 0-1.554.197-2.41.613l-19.993 9.68c-5.25 2.54-7.224 1.453-8.23-.623-.393-.814-.623-1.778-.85-2.725-.212-.89-.422-1.767-.756-2.455-.695-1.438-2.03-2.11-5.426-.463l-20.258 9.822c-5.04 2.44-5.844 6.165-6.65 9.89-.814 3.777-1.633 7.56-6.642 10.13l.032.04-.33.162zm32.588-23.464l-17.736 8.6c-.712.345-1.363 1.02-1.84 1.833-.478.815-.776 1.764-.776 2.646l.01 2.43c.003.493.008.882.013.927.034.31.11.58.22.807.14.29.34.51.575.645.236.133.52.19.83.153.224-.023.464-.096.714-.216l17.737-8.6c.66-.32 1.27-.93 1.735-1.666.475-.75.795-1.63.865-2.473.003-.046.006-.43.008-.913.004-.776.006-2.294.006-2.396 0-.476-.087-.88-.24-1.197a1.477 1.477 0 0 0-.51-.603 1.286 1.286 0 0 0-.716-.207c-.274 0-.577.073-.893.226zm-17.993 8.066c-.818.396-1.56 1.16-2.094 2.067-.53.904-.858 1.96-.858 2.945 0 .074.003 1.328.01 2.43.004.524.01.94.015.99.04.377.137.713.275 1 .193.4.473.707.816.9.346.197.748.28 1.187.23.29-.032.597-.12.908-.272l17.736-8.6c.763-.37 1.458-1.058 1.98-1.883.522-.83.877-1.804.954-2.74.004-.042.007-.445.01-.96l.008-2.398c0-.563-.108-1.055-.3-1.453a2.113 2.113 0 0 0-.72-.843 1.89 1.89 0 0 0-1.04-.303c-.36 0-.747.094-1.15.288l-17.735 8.6z"/><path fill-rule="evenodd" clip-rule="evenodd" fill="#C6C6C5" d="M104.44 164.014a1.182 1.182 0 1 1-1.02-2.134l36.673-17.626a1.185 1.185 0 0 1 1.577.556c.28.59.03 1.295-.557 1.576l-36.672 17.628zm0 12.8l21.34-10.256a1.183 1.183 0 1 0-1.02-2.133l-21.34 10.258a1.18 1.18 0 1 0 1.02 2.13zm0 12.183a1.18 1.18 0 0 1-1.575-.557 1.178 1.178 0 0 1 .555-1.574l10.305-4.953a1.18 1.18 0 0 1 1.02 2.13l-10.302 4.954zM91.558 167.52l-21.844 10.573c-1.337.646-2.43 2.524-2.43 4.175v21.53c0 1.65 1.093 2.47 2.43 1.824l21.844-10.57c1.336-.648 2.43-2.526 2.43-4.177v-21.53c-.002-1.65-1.094-2.47-2.43-1.824z"/><path fill-rule="evenodd" clip-rule="evenodd" fill="#C6C6C5" d="M91.75 167.92l-21.844 10.572c-.586.283-1.127.85-1.525 1.533-.4.693-.65 1.496-.65 2.242v21.53c0 .397.07.73.196.99.097.2.23.357.385.46.148.1.326.15.525.15a1.6 1.6 0 0 0 .688-.177l21.843-10.57c.586-.285 1.127-.853 1.524-1.535.4-.692.65-1.496.65-2.24v-21.532c0-.396-.068-.73-.193-.988a1.115 1.115 0 0 0-.385-.46.923.923 0 0 0-.524-.15c-.21 0-.442.056-.688.175zm-22.23 9.772l21.844-10.57a2.433 2.433 0 0 1 1.073-.268c.375 0 .72.104 1.015.3.288.19.524.465.694.814.183.38.285.843.285 1.375v21.53c0 .903-.295 1.867-.772 2.688-.48.83-1.157 1.528-1.907 1.89l-21.843 10.573c-.373.18-.736.266-1.072.266-.377 0-.72-.105-1.016-.3a2.03 2.03 0 0 1-.694-.815c-.184-.38-.286-.844-.286-1.375v-21.532c0-.904.296-1.866.774-2.686.482-.83 1.157-1.526 1.907-1.89z"/><path fill-rule="evenodd" clip-rule="evenodd" fill="#FFF" d="M80.635 188.89c-4.222 2.044-7.723 6.697-8.38 10.892l16.763-8.113c-.66-3.56-4.16-4.823-8.383-2.78zm0-9.662c2.186-1.058 3.956-.09 3.956 2.162 0 2.253-1.77 4.936-3.954 5.993-2.184 1.057-3.954.088-3.954-2.163 0-2.253 1.77-4.935 3.955-5.992z"/><path fill-rule="evenodd" clip-rule="evenodd" fill="#E94C6D" d="M70.03 158.334v4.5l-2.618 1.264v-12.354l3.177-1.532c2.632-1.273 3.95-.692 3.95 1.738 0 1.43-.55 2.803-1.645 4.112l2.823 4.023-2.97 1.434-2.056-3.508-.664.32zm0-2.507l.49-.238c.918-.444 1.376-1.18 1.376-2.21 0-.853-.45-1.058-1.348-.625l-.52.25v2.82h.002zm12.513.962l2.863-1.385-3.2-10.857-3.493 1.686-3.16 13.932 2.878-1.392.49-2.553 3.15-1.52.474 2.087zm-1.02-4.56l-2.062.995c.405-2.133.665-3.56.783-4.272.114-.716.194-1.228.233-1.536.045.29.137.758.275 1.407.14.647.26 1.174.356 1.576l.417 1.83zm4.93 2.67v-12.354l2.633-1.27v12.353l-2.632 1.27zm4.728-2.28v-12.355L93.8 139v9.654l3.73-1.803v2.7l-6.35 3.07zm14.235-10.626c0 .767-.15 1.52-.456 2.262a6.567 6.567 0 0 1-1.32 2.025 6.86 6.86 0 0 1-2.02 1.47c-.645.31-1.188.516-1.625.61-.436.095-.89.113-1.363.054v-2.976c.5.084 1.02.087 1.558.01a5.076 5.076 0 0 0 1.484-.44c.39-.19.673-.413.855-.672.18-.257.27-.52.27-.79 0-.17-.036-.3-.11-.39-.07-.093-.19-.163-.35-.215s-.59-.11-1.29-.173c-.63-.062-1.105-.19-1.42-.378a1.713 1.713 0 0 1-.7-.846c-.154-.37-.23-.86-.23-1.47 0-1.135.323-2.18.973-3.13.65-.952 1.544-1.7 2.68-2.248 1-.484 2.022-.686 3.065-.598l-.8 2.958c-.906-.09-1.687.022-2.345.34-.34.163-.588.363-.742.59-.155.23-.233.456-.233.68 0 .243.1.413.297.51.198.096.73.187 1.6.273.835.075 1.415.31 1.74.7.322.398.484 1.007.484 1.84zm5.815-8.85c-.623.3-1.11.86-1.457 1.678-.352.82-.525 1.8-.525 2.946 0 2.375.71 3.22 2.13 2.535a5.757 5.757 0 0 0 1.245-.83c.4-.348.806-.724 1.213-1.137v2.825a9.424 9.424 0 0 1-2.744 2.013c-1.463.707-2.584.706-3.364 0-.78-.703-1.17-2.078-1.17-4.122a11.6 11.6 0 0 1 .566-3.644c.376-1.15.92-2.157 1.63-3.02s1.544-1.527 2.504-1.99c1.047-.505 2.046-.7 3-.582l-.8 3.013a5.436 5.436 0 0 0-1.074-.023c-.357.024-.74.137-1.155.337zm13.29-2.82c0 2.08-.397 3.853-1.198 5.32-.8 1.468-1.972 2.575-3.514 3.32-1.52.733-2.686.75-3.498.057-.81-.694-1.215-2.083-1.215-4.16 0-2.054.402-3.82 1.21-5.294.806-1.473 1.98-2.582 3.517-3.325 1.542-.744 2.71-.77 3.506-.077.797.69 1.193 2.08 1.193 4.162zm-6.666 3.218c0 2.387.652 3.267 1.955 2.638.66-.32 1.152-.85 1.473-1.583.322-.735.482-1.716.482-2.942 0-1.234-.162-2.067-.49-2.498-.322-.433-.808-.49-1.453-.18-1.313.633-1.97 2.156-1.97 4.566zm17.64-2.327l-3.434 1.658-3.537-6.993-.06.03c.084 1.328.124 2.354.124 3.074v5.568l-2.318 1.12v-12.354l3.42-1.65 3.523 6.88.04-.02a59.843 59.843 0 0 1-.09-2.954v-5.586l2.33-1.125v12.353zm4.674-2.256l-2.578 1.243V117.85l5.727-2.764v2.682l-3.148 1.52v2.354l2.9-1.402v2.682l-2.9 1.402v4.636z"/><path fill-rule="evenodd" clip-rule="evenodd" fill="#FFF" d="M109.947 73.494L94.352 80.36v27.06c0 2.255-.25 4.9-3.08 6.26l15.595-7.497c2.128-1.02 3.08-3.527 3.08-5.572V73.496z"/><path fill-rule="evenodd" clip-rule="evenodd" fill="#2EBCE3" d="M109.65 73.948l-15 6.604v26.87c0 1.152-.066 2.408-.5 3.566a5.283 5.283 0 0 1-.712 1.32l13.302-6.393c.918-.44 1.606-1.183 2.08-2.043.564-1.02.83-2.205.83-3.263V73.946zm-15.417 6.14l15.582-6.858a.296.296 0 0 1 .43.265v27.117c0 1.147-.29 2.438-.905 3.548-.53.96-1.305 1.79-2.345 2.29L91.4 113.947l-.256-.532c1.336-.642 2.06-1.584 2.452-2.63.4-1.067.46-2.26.46-3.362V80.36c0-.115.067-.223.177-.272z"/><path fill-rule="evenodd" clip-rule="evenodd" fill="#2EBCE3" d="M102.62 86.607c0-.166.133-.298.298-.298.163 0 .297.13.297.296v18.94c0 .732-.157 1.474-.473 2.147a4.427 4.427 0 0 1-1.32 1.65.297.297 0 1 1-.36-.47 3.865 3.865 0 0 0 1.143-1.43 4.45 4.45 0 0 0 .415-1.898v-18.94z"/><path fill-rule="evenodd" clip-rule="evenodd" fill="#EAF2F7" d="M2.373 118.023V33.275c0-8.1 3.535-24.51 21.206-24.324-4.365 5.7-5.61 11.494-5.61 19.918 0 29.597.193 58.5.193 88.012 0 11.394 13.02 17.61 24.054 11.568l-11.786 5.95c-14.904 6.15-28.06-3.447-28.06-16.375z"/><path fill-rule="evenodd" clip-rule="evenodd" fill="#2EBCE3" d="M2.076 118.023V33.275l.002-.03.002-.27v-.01c.045-4.115.982-10.178 4.078-15.214 3.113-5.063 8.397-9.096 17.122-9.096l.028.002h.27a.298.298 0 0 1 .236.477c-2.156 2.816-3.545 5.657-4.39 8.832-.852 3.184-1.16 6.715-1.16 10.903 0 15.208.05 29.646.098 44.07.05 14.805.1 29.604.1 43.94 0 2.374.575 4.516 1.585 6.36 1.235 2.256 3.125 4.072 5.406 5.324 2.286 1.255 4.968 1.943 7.786 1.943 2.5 0 5.11-.543 7.643-1.716l1.2-.606a.3.3 0 0 1 .394.122.296.296 0 0 1-.118.4l-.01.006-.01.005c-.392.215-.786.414-1.183.596l-10.594 5.352-.025.012c-3.216 1.324-6.35 1.927-9.292 1.927-4.12 0-7.865-1.178-10.93-3.204a18.288 18.288 0 0 1-6.852-8.286 18.56 18.56 0 0 1-1.39-7.087zm.594-13.014v13.013c0 2.438.475 4.755 1.344 6.862a17.725 17.725 0 0 0 6.63 8.02c2.97 1.96 6.605 3.103 10.605 3.103 2.867 0 5.923-.588 9.057-1.88l6.86-3.462c-1.323.29-2.64.43-3.928.43-2.92 0-5.697-.715-8.07-2.018-2.38-1.305-4.35-3.2-5.64-5.56-1.06-1.93-1.663-4.167-1.663-6.642 0-15.15-.05-29.54-.096-43.94-.05-14.827-.1-29.663-.1-44.07 0-4.235.316-7.814 1.18-11.056.82-3.072 2.133-5.838 4.136-8.563-8.3.088-13.34 3.96-16.324 8.812-3.032 4.938-3.95 10.884-3.992 14.92l-.002.27.002.025v71.734zm27.873 29.662l-.004.002.002-.002z"/><path fill-rule="evenodd" clip-rule="evenodd" fill="#EAF2F7" d="M56.492 105.547V47.5c0-8.423 1.246-14.215 5.61-19.915-17.67-.187-21.206 16.225-21.206 24.323v67.61c0 5.747-4.032 11.635-10.465 14.883l15.596-7.873c5.62-2.836 10.467-8.44 10.467-13.913v-7.066z"/><path fill-rule="evenodd" clip-rule="evenodd" fill="#2EBCE3" d="M56.195 105.547V47.5c0-4.233.315-7.812 1.18-11.055.818-3.07 2.132-5.837 4.135-8.563-8.3.09-13.34 3.962-16.323 8.812-3.032 4.935-3.95 10.88-3.99 14.916v.01l-.003.288v67.61c0 2.953-1.04 5.94-2.91 8.6a19.74 19.74 0 0 1-3.423 3.715l11.035-5.57c2.887-1.457 5.567-3.654 7.47-6.185 1.74-2.314 2.832-4.908 2.832-7.464v-7.066zm.594-2.326v9.393c0 2.69-1.14 5.405-2.955 7.817-1.96 2.604-4.712 4.862-7.676 6.358l-15.597 7.874-.267-.527c3.15-1.59 5.718-3.823 7.5-6.36 1.8-2.56 2.802-5.43 2.802-8.26v-67.61l.003-.3c.044-4.114.98-10.183 4.08-15.222 3.115-5.064 8.4-9.097 17.122-9.097l.283.003a.295.295 0 0 1 .25.474c-2.154 2.815-3.54 5.656-4.39 8.83-.85 3.185-1.157 6.716-1.157 10.904v55.72z"/><path fill-rule="evenodd" clip-rule="evenodd" fill="#2EBCE3" d="M80.04 33.968l-6.647-3.198c-5.885-2.835-14.357-5.244-22.35-.437 14.703-7.202 22.284-12.655 38.522-4.963l-9.526 8.598z"/><path fill-rule="evenodd" clip-rule="evenodd" fill="#2EBCE3" d="M79.826 34.357l-6.625-3.19c-2.904-1.396-6.442-2.69-10.232-3.04-2.873-.265-5.896.014-8.9 1.2a311.6 311.6 0 0 1-2.814 1.396.44.44 0 0 1-.436-.77 19.557 19.557 0 0 1 2.902-1.44l1.112-.56c12.344-6.19 20.025-10.04 34.922-2.982a.444.444 0 0 1 .11.734L80.34 34.3a.45.45 0 0 1-.512.057zm-6.24-3.987l6.377 3.068 8.808-7.95C75.78 19.518 68.4 22.226 58 27.363a21.32 21.32 0 0 1 5.05-.12c3.917.362 7.557 1.69 10.54 3.127z"/><path fill-rule="evenodd" clip-rule="evenodd" fill="#FFF" d="M112.67 61.533V79.42c0 .908-.4 1.638-1.06 2.087a2.71 2.71 0 0 1-.622.314l-17.276 8.75-.003-.025c-.688.36-1.577.46-2.547.21-2.25 0-3.906-2.613-3.906-4.572v-17.67c0-1.04.493-1.85 1.275-2.3l-.005-.025 17.692-8.933c1.48-.748 3.265-.48 4.473.52 1.305 1.076 1.977 2.952 1.977 3.76z"/><path fill-rule="evenodd" clip-rule="evenodd" fill="#B3B4B4" d="M115.045 61.533V79.42a4.94 4.94 0 0 1-.534 2.262 4.72 4.72 0 0 1-1.38 1.65c-.12.098-.247.187-.383.26a5.61 5.61 0 0 1-.84.42l-17.13 8.67a2.31 2.31 0 0 1-.38.155 5.575 5.575 0 0 1-1.694.406 6.19 6.19 0 0 1-1.8-.123c-1.696-.085-3.133-.966-4.18-2.19-1.146-1.342-1.84-3.174-1.84-4.75V68.514c0-.916.23-1.76.64-2.498.35-.63.83-1.165 1.414-1.583.176-.16.377-.295.6-.397l17.617-8.895a6.437 6.437 0 0 1 3.635-.64 6.576 6.576 0 0 1 3.414 1.445c.83.687 1.472 1.566 1.926 2.434.606 1.15.915 2.39.915 3.154zm-4.747 17.887V61.533c0-.145-.12-.5-.356-.95-.195-.37-.453-.733-.758-.987a1.8 1.8 0 0 0-.933-.39 1.724 1.724 0 0 0-.962.16l-17.42 8.796a2.63 2.63 0 0 1-.157.098.164.164 0 0 0-.053.054.504.504 0 0 0-.025.2V86.18c0 .525.26 1.17.69 1.672.264.31.566.526.844.526v.01c.197 0 .396.023.593.074.2.052.393.068.576.053a.817.817 0 0 0 .223-.046c.13-.075.27-.135.42-.184l16.802-8.506c.13-.076.266-.14.412-.192l.056-.02.027-.017h.003c.004-.003.006 0 .006 0h.002a.465.465 0 0 0 .012-.13z"/><path fill-rule="evenodd" clip-rule="evenodd" fill="#FFF" d="M112.67 62.108V79.42c0 .91-.4 1.638-1.06 2.087-.19.128-.396.233-.622.314l-17.276 8.75-5.184-24.383 17.692-8.932c3.5-1.766 6.45 1.676 6.45 4.855z"/><path fill-rule="evenodd" clip-rule="evenodd" fill="#B3B4B4" d="M112.968 62.108V79.42c0 .493-.108.94-.306 1.328-.202.4-.496.733-.86.988l-.046.03a2.995 2.995 0 0 1-.645.326l-17.265 8.74a.295.295 0 0 1-.422-.203L88.24 66.245a.292.292 0 0 1 .17-.33l17.677-8.928c.704-.355 1.388-.513 2.036-.513.918 0 1.762.317 2.477.843.705.516 1.287 1.233 1.695 2.046a6.16 6.16 0 0 1 .673 2.742zm-.594 17.312V62.108a5.56 5.56 0 0 0-.606-2.476c-.37-.73-.89-1.376-1.516-1.836-.618-.452-1.342-.727-2.13-.727-.56 0-1.155.137-1.77.445l-17.485 8.83 5.055 23.783 16.934-8.574.034-.014a2.31 2.31 0 0 0 .554-.28h.002l.004-.003c.29-.2.527-.464.686-.777a2.32 2.32 0 0 0 .238-1.06z"/><path fill-rule="evenodd" clip-rule="evenodd" fill="#F6F6F6" d="M95.07 70.53v17.665c0 3.842-7.812 3.61-7.812-2.015V68.514c0-3.844 7.812-3.61 7.812 2.015z"/><path fill-rule="evenodd" clip-rule="evenodd" fill="#B3B4B4" d="M95.366 70.53v17.665c0 1.363-.87 2.267-2.06 2.663a4.625 4.625 0 0 1-1.65.22 5.243 5.243 0 0 1-1.724-.364c-1.616-.642-2.97-2.124-2.97-4.533V68.516c0-1.364.87-2.268 2.06-2.664a4.633 4.633 0 0 1 1.648-.22c.575.02 1.165.145 1.724.366 1.617.642 2.972 2.124 2.972 4.534zm-.593 17.665V70.53c0-2.124-1.185-3.427-2.598-3.986a4.666 4.666 0 0 0-1.527-.324 4.11 4.11 0 0 0-1.442.19c-.954.318-1.65 1.032-1.65 2.104V86.18c0 2.125 1.184 3.426 2.595 3.986.497.195 1.02.302 1.53.322a4.078 4.078 0 0 0 1.44-.19c.955-.318 1.654-1.03 1.654-2.103z"/><path fill-rule="evenodd" clip-rule="evenodd" fill="#FFF" d="M52.406 6.08l33.17 15.933c15.182 7.29 22.773 15.114 22.773 34.14v1.474l-15.793 7.59V59.57c0-9.96-2.7-20.956-19.812-29.21C54.803 21.71 48.3 18.604 34.87 12.14c-5.89-2.84-14.36-5.247-22.35-.44C27.3 4.46 36.007-1.794 52.406 6.08z"/><path fill-rule="evenodd" clip-rule="evenodd" fill="#2EBCE3" d="M52.533 5.814l33.172 15.932c7.633 3.666 13.363 7.472 17.19 12.762 3.833 5.298 5.75 12.066 5.75 21.646v1.473c0 .128-.08.236-.192.278l-15.768 7.58a.3.3 0 0 1-.394-.14.33.33 0 0 1-.026-.13h-.002V59.57c0-4.938-.666-10.13-3.45-15.102-2.785-4.976-7.7-9.746-16.195-13.843a20198.11 20198.11 0 0 0-23.728-11.42c-4.648-2.233-9.18-4.41-14.147-6.803-2.917-1.406-6.474-2.704-10.282-3.056-2.903-.268-5.955.014-8.992 1.22-.908.455-1.842.92-2.815 1.398a.294.294 0 0 1-.282-.517c.946-.57 1.9-1.04 2.854-1.42l1.57-.79C29.126 3.017 37.7-1.31 52.533 5.814zM85.45 22.278L52.277 6.348C38.27-.38 29.902 3.308 18.455 9.06c2.054-.42 4.088-.483 6.055-.302 3.895.36 7.52 1.682 10.488 3.11 5.924 2.853 10.008 4.815 14.145 6.805 6.592 3.167 13.36 6.42 23.73 11.42 8.62 4.156 13.613 9.013 16.455 14.087 2.845 5.08 3.527 10.368 3.527 15.39v5.176l15.197-7.305v-1.285c0-9.447-1.88-16.104-5.637-21.298-3.76-5.2-9.42-8.953-16.966-12.578z"/><path fill-rule="evenodd" clip-rule="evenodd" fill="#2EBCE3" d="M23.49 8.67c.154-.05.32.036.37.19a.298.298 0 0 1-.19.373c-4.176 1.34-7.146 3.82-9.146 6.8-2.446 3.64-3.45 8.028-3.45 11.977v90.502c0 1.816.46 3.786 1.346 5.666 1.078 2.278 2.783 4.423 5.064 5.996 2.278 1.573 5.135 2.577 8.514 2.577 2.848 0 6.068-.71 9.63-2.394a.296.296 0 0 1 .393.143.295.295 0 0 1-.14.392c-3.65 1.726-6.953 2.455-9.88 2.455-3.51 0-6.478-1.045-8.85-2.684-2.37-1.634-4.146-3.862-5.264-6.23-.927-1.96-1.405-4.02-1.405-5.917V28.01c0-4.05 1.034-8.557 3.554-12.307 2.07-3.082 5.14-5.65 9.456-7.033z"/><path fill-rule="evenodd" clip-rule="evenodd" fill="#2EBCE3" d="M61.62 27.487a.296.296 0 0 1 .255.534c-5.353 2.585-8.547 5.84-10.397 9.42-1.853 3.582-2.37 7.51-2.37 11.422v65.598c0 4.52-1.107 7.88-3.47 10.623-2.347 2.726-5.928 4.82-10.888 6.825a.3.3 0 0 1-.385-.164.297.297 0 0 1 .165-.384c4.874-1.97 8.38-4.018 10.66-6.663 2.263-2.626 3.324-5.866 3.324-10.235V48.86c0-3.995.532-8.008 2.437-11.693 1.908-3.687 5.186-7.034 10.67-9.68z"/><path fill-rule="evenodd" clip-rule="evenodd" fill="#2EBCE3" d="M101.78 60.947a.295.295 0 0 1-.317.273.294.294 0 0 1-.273-.315c.523-7.314-.69-14.055-3.622-19.682-2.82-5.415-7.237-9.803-13.225-12.68L42.61 8.483c-3.47-1.67-7.077-2.625-11.013-2.623-3.94.005-8.22.972-13.038 3.147a.297.297 0 0 1-.246-.54c4.896-2.21 9.258-3.192 13.28-3.196 4.032-.002 7.722.975 11.268 2.68l41.733 20.06c6.11 2.938 10.616 7.415 13.496 12.94 2.985 5.724 4.22 12.573 3.688 19.996z"/></svg>