<svg xmlns="http://www.w3.org/2000/svg" width="260" height="260" viewBox="-26.105 -24.616 260 260" overflow="visible"><path fill-rule="evenodd" clip-rule="evenodd" fill="#FFF" d="M2.375 134.58h-.002v14.44h.077c.437 2.98 2.763 6.02 6.897 8.434l79.5 46.407c8.457 4.938 21.4 5.46 28.766 1.16l83.472-48.727c3.326-1.94 4.967-4.547 4.987-7.275h.002V134.58h-.055c-.375-3.032-2.71-6.142-6.924-8.603L119.6 79.57c-8.457-4.937-21.4-5.46-28.766-1.16L7.362 127.138c-3.394 1.98-5.032 4.654-4.987 7.443z"/><path fill-rule="evenodd" clip-rule="evenodd" fill="#B3B4B4" d="M0 134.58c0-.073.004-.145.01-.216.02-1.814.566-3.578 1.65-5.197 1.03-1.536 2.53-2.926 4.506-4.078l83.472-48.73c4.074-2.378 9.616-3.425 15.26-3.198 5.59.225 11.337 1.696 15.898 4.36l79.497 46.406c2.314 1.35 4.148 2.907 5.484 4.566 1.34 1.667 2.182 3.44 2.51 5.23.104.264.16.553.16.855v14.442c0 .09-.006.18-.016.266-.06 1.778-.623 3.497-1.704 5.07-1.026 1.5-2.507 2.856-4.444 3.987L118.81 207.07c-4.074 2.38-9.616 3.427-15.262 3.2-5.587-.226-11.336-1.697-15.896-4.36l-79.5-46.406c-2.277-1.33-4.086-2.852-5.41-4.47-1.3-1.59-2.143-3.286-2.516-5.005A2.35 2.35 0 0 1 0 149.02V134.58zm4.748 0v13.84c.028.116.05.234.062.354.178 1.064.716 2.168 1.604 3.255.974 1.19 2.353 2.337 4.13 3.374l79.5 46.407c3.895 2.275 8.85 3.534 13.69 3.73 4.78.192 9.393-.647 12.684-2.568l83.47-48.728c1.327-.773 2.298-1.642 2.927-2.56.587-.856.884-1.76.895-2.667h-.01V135.08a1.987 1.987 0 0 1-.04-.28c-.15-1.09-.677-2.227-1.572-3.34-.97-1.205-2.367-2.375-4.185-3.436l-79.498-46.407c-3.896-2.274-8.85-3.533-13.69-3.728-4.78-.194-9.395.647-12.685 2.567l-83.473 48.73c-1.352.788-2.338 1.677-2.965 2.613-.587.875-.867 1.807-.854 2.744v.037h.01z"/><path fill-rule="evenodd" clip-rule="evenodd" fill="#F6F6F6" d="M90.834 91.935L17.78 134.58H2.372v14.44h.077c.436 2.977 2.762 6.02 6.896 8.434l79.5 46.408c8.457 4.936 21.4 5.458 28.766 1.16l83.472-48.73c3.326-1.94 4.967-4.546 4.987-7.274h.003V134.58h-15.407L119.6 93.096c-8.457-4.937-21.4-5.46-28.766-1.16z"/><path fill-rule="evenodd" clip-rule="evenodd" fill="#B3B4B4" d="M90.982 92.19l-73.055 42.646-.148.04H2.67v13.846h.036l.037.253c.214 1.465.906 2.95 2.065 4.367 1.126 1.378 2.692 2.69 4.69 3.855l79.497 46.407c4.188 2.444 9.488 3.796 14.654 4.005 5.16.205 10.18-.727 13.81-2.847l83.473-48.728c1.592-.93 2.787-2.012 3.59-3.184.826-1.204 1.24-2.507 1.253-3.835v-14.14h-15.11l-.15-.04L119.45 93.35c-4.187-2.443-9.487-3.795-14.655-4.003-5.16-.208-10.18.723-13.813 2.843zM17.7 134.284L90.682 91.68c3.732-2.18 8.867-3.136 14.135-2.924 5.26.212 10.66 1.59 14.93 4.083l70.998 41.443h15.625v15.034h-.01c-.066 1.347-.513 2.658-1.345 3.873-.853 1.243-2.11 2.386-3.783 3.36l-83.47 48.727c-3.73 2.18-8.866 3.137-14.134 2.924-5.26-.21-10.66-1.59-14.932-4.08L9.2 157.71c-2.06-1.202-3.68-2.56-4.85-3.99-1.163-1.42-1.884-2.916-2.152-4.404h-.122v-15.032H17.7z"/><path fill-rule="evenodd" clip-rule="evenodd" fill="#FFF" d="M90.834 78.41L7.36 127.138c-7.364 4.3-6.47 11.855 1.987 16.79l79.5 46.41c8.457 4.937 21.4 5.458 28.765 1.16l83.473-48.73c7.364-4.297 6.47-11.853-1.986-16.79L119.6 79.57c-8.457-4.937-21.4-5.46-28.766-1.16z"/><path fill-rule="evenodd" clip-rule="evenodd" fill="#B3B4B4" d="M90.984 78.666L7.51 127.394c-1.807 1.056-3.103 2.31-3.896 3.666-.665 1.138-.977 2.352-.944 3.586.034 1.238.416 2.505 1.14 3.743 1.104 1.894 3.01 3.72 5.688 5.283l79.5 46.407c4.186 2.446 9.486 3.798 14.652 4.005 5.16.21 10.18-.723 13.812-2.844l83.474-48.726c1.808-1.056 3.104-2.31 3.896-3.667.664-1.137.977-2.35.943-3.585-.03-1.237-.414-2.504-1.138-3.742-1.105-1.895-3.01-3.72-5.69-5.285l-79.497-46.41c-4.187-2.443-9.488-3.794-14.655-4.003-5.16-.208-10.18.724-13.81 2.844zM7.21 126.882l83.476-48.728c3.73-2.178 8.865-3.135 14.133-2.923 5.26.214 10.66 1.59 14.93 4.084l79.497 46.408c2.77 1.618 4.747 3.52 5.903 5.5.772 1.323 1.182 2.686 1.218 4.026.035 1.346-.303 2.666-1.022 3.898-.844 1.445-2.21 2.77-4.11 3.88l-83.473 48.728c-3.73 2.178-8.867 3.135-14.133 2.924-5.26-.213-10.66-1.59-14.93-4.084l-79.5-46.41c-2.77-1.617-4.747-3.516-5.903-5.5-.772-1.32-1.18-2.684-1.216-4.024-.035-1.346.303-2.667 1.024-3.898.842-1.446 2.21-2.772 4.108-3.88z"/><path fill-rule="evenodd" clip-rule="evenodd" fill="#D9DADA" d="M140.89 92.18a.295.295 0 0 1 .293.512L30.778 156.435v12.486a.298.298 0 0 1-.594 0v-12.653h.003c0-.103.053-.2.147-.256L140.89 92.18z"/><path fill-rule="evenodd" clip-rule="evenodd" fill="#D9DADA" d="M30.137 114.915a.296.296 0 1 1 .296-.51l110.08 63.556a.292.292 0 0 1 .146.256h.002v12.478a.297.297 0 0 1-.594 0V178.39l-109.93-63.472z"/><path fill-rule="evenodd" clip-rule="evenodd" fill="#D9DADA" d="M177.31 113.955c.142-.08.322-.033.403.108s.03.322-.11.403l-109.96 63.488v12.486a.297.297 0 0 1-.593 0v-12.656a.3.3 0 0 1 .147-.256l110.116-63.573z"/><path fill-rule="evenodd" clip-rule="evenodd" fill="#D9DADA" d="M66.506 93.132a.295.295 0 0 1-.107-.405c.08-.14.26-.19.402-.107l110.557 63.83a.296.296 0 0 1 .145.256h.002v12.53a.296.296 0 0 1-.593 0v-12.36L66.506 93.13z"/><path fill-rule="evenodd" clip-rule="evenodd" fill="#F6F6F6" d="M134.048 56.72l-1.198 3.163c-1.764 4.653-3.024 5.564-7.57 8.188l-8.865 5.12c-4.984 2.877-10.785.613-10.826-2.37h-.005v-8.58h.003c.01-1.074.77-2.237 2.585-3.284l7.19-4.15c4.308-2.49 5.513-7.8 6.757-11.343l1.905-5.426c.99-2.823 2.548-4.867 4.506-5.983h-.002l8.98-5.125a7.65 7.65 0 0 1 2.045-1.168l.006-.003c2.395-.9 5.28-.555 8.41 1.26l19.324 11.213c4.492 2.606 8.17 9.454 8.17 15.22V63.86l-.002-.002.002.165V89.13c0 1.35-.457 2.305-1.184 2.73l-8.91 5.18v24.408c0 1.754-.614 2.977-1.578 3.483v.003l-9.885 5.746c-.803.47-1.868.42-3.03-.254-2.49-1.444-4.53-5.24-4.53-8.435v-1.185l-4.623 2.67c-.817.542-1.93.525-3.147-.182-2.49-1.443-4.528-5.24-4.528-8.435V56.72z"/><path fill-rule="evenodd" clip-rule="evenodd" fill="#2EBCE3" d="M130.634 59.05l1.14-3.008a2.374 2.374 0 0 1 4.647.677v58.136c0 1.206.403 2.554 1.045 3.753.624 1.16 1.438 2.13 2.29 2.63l.01.002c.266.154.48.234.637.242.01 0 .013.006.013.01.105-.07.217-.133.332-.186l4.23-2.44a2.373 2.373 0 0 1 3.746 1.934v1.186c0 1.205.4 2.554 1.044 3.752.623 1.162 1.438 2.133 2.29 2.63l.01.004c.252.146.463.224.63.237.018.003.02.01.02.014.052-.028.104-.057.156-.082l9.69-5.635a3.34 3.34 0 0 1 .13-.074c.02-.012.06-.075.11-.188.128-.28.198-.684.198-1.2v-24.41h.006c0-.815.425-1.61 1.18-2.048l8.808-5.12c.065-.153.102-.4.102-.74V64.023h.006a1.79 1.79 0 0 1-.006-.163V53.453c0-2.492-.81-5.245-2.113-7.672-1.284-2.395-3.012-4.42-4.87-5.497L146.785 29.07c-1.27-.738-2.467-1.178-3.564-1.343-.983-.148-1.886-.075-2.69.2a1.83 1.83 0 0 1-.264.1 5.463 5.463 0 0 0-.596.29c-.226.13-.454.285-.683.465a2.44 2.44 0 0 1-.307.204l-8.918 5.088-.06.037c-.667.38-1.277.925-1.818 1.618-.025.04-.054.078-.083.116-.61.812-1.127 1.808-1.536 2.97l-1.905 5.426c-.12.335-.298.88-.485 1.453-1.23 3.746-2.768 8.435-7.176 11.067a1.908 1.908 0 0 1-.147.092l-7.19 4.15-.005-.002-.006.004c-.58.335-.98.664-1.228.977-.092.12-.145.2-.164.253v8.58l.027.05c.167.29.554.575 1.094.815.697.31 1.576.49 2.54.475a7.412 7.412 0 0 0 3.497-.944c.036-.025.073-.047.11-.068l8.866-5.118.002.004.008-.004c2.083-1.203 3.404-2.003 4.308-2.935.848-.873 1.465-2.035 2.225-4.04zm1.04 7.47c-1.276 1.274-2.834 2.224-5.21 3.595l.003.004-8.866 5.117c-.05.03-.1.056-.15.08a12.167 12.167 0 0 1-5.77 1.562c-1.654.022-3.215-.31-4.508-.884-1.45-.645-2.608-1.616-3.28-2.78a4.85 4.85 0 0 1-.665-2.337v-.034l28.45-4.328zm-28.462 4.3v-8.58c0-.114.01-.228.024-.337.074-.973.44-1.94 1.16-2.85.59-.75 1.44-1.477 2.593-2.142l-.004-.002 7.188-4.15c.037-.023.077-.043.115-.063 2.864-1.726 4.093-5.472 5.073-8.463.156-.475.31-.94.52-1.546l1.907-5.426c.58-1.648 1.33-3.08 2.226-4.27.035-.046.072-.092.11-.135.882-1.138 1.9-2.056 3.032-2.74a2.39 2.39 0 0 1 .356-.207l8.663-4.943a10.004 10.004 0 0 1 2.54-1.416l.007-.003c1.598-.602 3.338-.784 5.176-.508 1.682.25 3.446.886 5.253 1.934L168.48 36.19c2.635 1.526 4.992 4.23 6.668 7.35 1.658 3.09 2.688 6.643 2.688 9.917v10.41c0 .053 0 .108-.006.162h.006v25.1c0 .978-.184 1.863-.51 2.622-.414.95-1.05 1.678-1.852 2.148l-.01.006v.003l-7.724 4.486v23.05c0 1.2-.224 2.263-.624 3.147-.463 1.02-1.155 1.807-2.022 2.318-.083.056-.17.105-.262.15l-9.74 5.663-.024.014a4.683 4.683 0 0 1-2.768.602c-.787-.067-1.61-.317-2.438-.77a2.612 2.612 0 0 1-.348-.2c-1.562-.96-2.945-2.563-3.926-4.388a14.22 14.22 0 0 1-1.27-3.282l-1.293.747c-.842.56-1.822.826-2.89.766-.833-.048-1.702-.3-2.57-.773a2.404 2.404 0 0 1-.35-.2c-1.565-.962-2.947-2.562-3.928-4.388-.997-1.857-1.617-4.007-1.617-5.995V66.52l-28.458 4.3zm.01 0h-.01.01zm39.81 54.627h-.003z"/><path fill-rule="evenodd" clip-rule="evenodd" fill="#EAF2F7" d="M135.467 52.977c-2.89 7.62-2.597 10.71-10.187 15.094l-8.866 5.12c-2.47 1.426-5.14 1.59-7.21 1.03-4.235-1.148-3.62-3.36-3.62-6.59v-5.39c7.863-2.704 32.805-20.882 22.945-30.188l8.98-5.125c3.137-2.486 7.02-1.902 10.457.092l19.326 11.21c4.492 2.607 8.17 9.455 8.17 15.22v35.677c0 1.35-.457 2.305-1.184 2.73l-8.91 5.18v24.408c0 1.756-.426 2.812-1.89 3.664l-9.575 5.565-1.167-13.563-11.018 6.36c-4.004-37.23 14.094-89.53-6.255-70.496z"/><path fill-rule="evenodd" clip-rule="evenodd" fill="#2EBCE3" d="M135.72 53.144c-.51 1.346-.92 2.55-1.29 3.645-1.744 5.126-2.686 7.89-9 11.535l-8.867 5.12-.02.01a10.155 10.155 0 0 1-3.635 1.258 9.478 9.478 0 0 1-3.78-.21c-3.962-1.073-3.92-3.013-3.853-5.79.006-.322.014-.656.014-1.088V62.24c0-.135.09-.25.213-.286 4.086-1.41 12.79-7.013 18.785-13.364 2.185-2.315 4.007-4.728 5.102-7.063 1.077-2.3 1.454-4.522.772-6.502-.336-.98-.936-1.907-1.836-2.758a.293.293 0 0 1-.013-.417.36.36 0 0 1 .075-.06l8.957-5.11a7.72 7.72 0 0 1 4.955-1.69c1.952.016 3.95.692 5.814 1.773l19.326 11.213c2.295 1.332 4.377 3.737 5.883 6.542 1.502 2.8 2.436 6.002 2.436 8.934V89.13c0 .7-.12 1.308-.333 1.802-.23.533-.575.935-1 1.183l-8.762 5.093v24.238c0 .92-.114 1.664-.427 2.3-.315.646-.825 1.163-1.61 1.62l-9.575 5.566a.295.295 0 0 1-.443-.23l-1.128-13.1-10.615 6.128a.294.294 0 0 1-.44-.225c-1.612-14.98.346-32.375 1.945-46.603 1.533-13.63 2.738-24.333.2-27.047-1.302-1.392-3.735-.55-7.856 3.29zm-1.85 3.455c.378-1.12.796-2.35 1.32-3.73a.3.3 0 0 1 .074-.11c4.454-4.167 7.175-4.985 8.742-3.31 2.724 2.915 1.506 13.737-.044 27.515-1.58 14.057-3.51 31.21-1.992 46.023l10.6-6.12a.297.297 0 0 1 .466.217l1.128 13.1 9.17-5.333c.678-.395 1.114-.832 1.376-1.367.267-.543.364-1.205.364-2.04V97.038h.002c0-.103.052-.202.146-.257l8.91-5.18v.003c.314-.185.573-.493.754-.907.18-.42.28-.946.28-1.57V53.453c0-2.834-.903-5.938-2.362-8.653-1.457-2.714-3.46-5.036-5.658-6.31L147.82 27.275c-1.782-1.034-3.682-1.68-5.52-1.696a7.152 7.152 0 0 0-4.6 1.574l-.044.03-8.64 4.932c.817.844 1.376 1.755 1.708 2.717.734 2.137.345 4.51-.797 6.945-1.126 2.397-2.983 4.86-5.21 7.217-5.966 6.324-14.617 11.92-18.836 13.454v5.177c0 .326-.007.72-.016 1.098-.058 2.506-.1 4.255 3.417 5.207a8.868 8.868 0 0 0 3.545.196 9.604 9.604 0 0 0 3.425-1.186l.015-.01 8.866-5.118c6.127-3.538 7.04-6.226 8.74-11.217z"/><path fill-rule="evenodd" clip-rule="evenodd" fill="#FFF" d="M131.658 44.924l-2.846 8.745c-1.54 4.732-5.438 6.983-9.984 9.61l-2.414 1.392c-6.81 3.93-15.14-1.733-8.24-5.716l7.19-4.15c4.308-2.49 5.513-7.8 6.757-11.343l1.907-5.426c2.3-6.55 7.63-8.903 13.974-5.223l19.33 11.214c4.49 2.604 8.167 9.452 8.167 15.217v10.41l-.002-.002c.002.055.002.11.002.166v25.104c0 2.542-1.62 3.68-3.6 2.533-1.982-1.148-3.602-4.167-3.602-6.71l.002-24.792c0-2.355-2.893-4.03-2.893-1.678v62.966c0 3.195-2.04 4.63-4.528 3.185-2.49-1.444-4.528-5.24-4.528-8.435V87.46c0-3.096-3.244-4.937-3.244-1.88v34.53c0 3.192-2.038 4.626-4.527 3.183-2.49-1.443-4.528-5.24-4.528-8.435V45.45c0-2.27-1.3-3.878-2.39-.526z"/><path fill-rule="evenodd" clip-rule="evenodd" fill="#2EBCE3" d="M131.94 45.016l-2.848 8.745c-.788 2.427-2.18 4.215-3.954 5.73-1.752 1.5-3.877 2.726-6.164 4.046l-2.414 1.394c-3.17 1.83-6.672 1.637-8.898.498-.705-.36-1.287-.818-1.697-1.338-.422-.536-.664-1.142-.674-1.78-.017-1.195.78-2.48 2.736-3.61l7.19-4.15.015-.01c3.625-2.1 5.008-6.312 6.107-9.668.17-.517.333-1.015.507-1.507l1.904-5.426a14.84 14.84 0 0 1 1.152-2.534c1.163-2.008 2.713-3.41 4.542-4.113 1.83-.703 3.932-.7 6.203.096.816.285 1.65.674 2.502 1.167l19.328 11.213c2.295 1.332 4.376 3.738 5.883 6.542 1.5 2.8 2.434 6.002 2.434 8.934v10.41c0 .014 0 .028-.003.042v25.224c0 .862-.177 1.58-.49 2.12a2.34 2.34 0 0 1-.817.854c-.33.2-.706.303-1.116.303-.5 0-1.05-.158-1.622-.49-1.037-.602-1.977-1.687-2.654-2.947-.673-1.257-1.093-2.698-1.093-4.018L158 65.952c0-1.012-.588-1.883-1.205-2.29a1.365 1.365 0 0 0-.488-.215.502.502 0 0 0-.327.033v.002c-.17.092-.28.34-.28.793v62.966c0 1.07-.22 1.96-.608 2.63a2.888 2.888 0 0 1-1 1.045 2.61 2.61 0 0 1-1.363.37c-.61 0-1.284-.19-1.98-.592a.223.223 0 0 1-.04-.024c-1.287-.753-2.45-2.1-3.29-3.665-.845-1.57-1.368-3.37-1.368-5.014V87.46c0-1.322-.63-2.392-1.308-2.883a1.39 1.39 0 0 0-.552-.256.548.548 0 0 0-.39.06c-.24.146-.4.525-.4 1.2v34.53c0 1.07-.222 1.96-.61 2.627a2.88 2.88 0 0 1-1 1.046 2.6 2.6 0 0 1-1.363.37c-.61 0-1.28-.19-1.98-.592a.174.174 0 0 1-.04-.022c-1.287-.752-2.45-2.1-3.29-3.664-.844-1.57-1.368-3.37-1.368-5.015V45.45c0-.82-.174-1.537-.442-1.92-.083-.12-.17-.2-.253-.22h-.002c-.064-.02-.143.002-.236.068-.278.2-.58.71-.88 1.638zm-3.41 8.56l2.847-8.743c.344-1.056.724-1.663 1.09-1.93.25-.184.504-.23.744-.163.225.06.42.22.584.45.334.478.55 1.322.55 2.26v69.407c0 1.55.497 3.247 1.296 4.733.794 1.48 1.885 2.748 3.08 3.442l.005.003c.61.354 1.188.52 1.703.52.393 0 .75-.097 1.058-.282.312-.19.583-.47.794-.835.336-.58.527-1.368.527-2.33V85.58c0-.91.276-1.457.686-1.706.238-.146.515-.188.802-.137.263.046.536.17.798.36.805.583 1.553 1.834 1.553 3.363v34.528c0 1.548.496 3.246 1.294 4.733.795 1.483 1.888 2.75 3.08 3.444l.006.002c.61.355 1.188.522 1.703.522.39 0 .747-.098 1.055-.284a2.31 2.31 0 0 0 .796-.834c.335-.58.528-1.368.528-2.333V64.274c0-.7.233-1.12.59-1.313.212-.113.458-.14.715-.093.23.042.474.147.708.302.755.496 1.474 1.557 1.474 2.783h-.002l-.003 24.793h.003c0 1.222.392 2.563 1.02 3.737.63 1.17 1.49 2.17 2.433 2.717.475.275.924.405 1.323.405.3 0 .574-.075.81-.217.24-.145.448-.362.61-.642.26-.452.41-1.068.41-1.824V59.244c0-2.832-.904-5.936-2.362-8.65-1.457-2.714-3.46-5.037-5.658-6.31L137.85 33.07c-.82-.476-1.622-.85-2.4-1.122-2.133-.75-4.096-.754-5.798-.102-1.698.65-3.145 1.966-4.242 3.857-.422.727-.79 1.54-1.104 2.43l-1.906 5.425c-.158.453-.325.963-.5 1.496-1.13 3.45-2.55 7.777-6.368 9.995l-.02.01-7.19 4.15c-1.742 1.008-2.457 2.1-2.44 3.09.007.5.204.985.55 1.42.356.456.87.858 1.5 1.18 2.076 1.063 5.353 1.236 8.336-.484l2.414-1.395c2.258-1.303 4.355-2.514 6.072-3.98 1.695-1.45 3.023-3.156 3.773-5.464z"/><path fill-rule="evenodd" clip-rule="evenodd" fill="#F6F6F6" d="M154.83 3.44c4.734 2.745 8.572 9.896 8.572 15.97 0 3.747-.84 5.355-3.64 6.886l-8.72 4.778c-1.568 1.28-3.817 1.35-6.318-.1-4.734-2.746-8.572-9.896-8.572-15.973 0-3.33 1.156-5.65 2.982-6.607l10.038-5.498c1.51-.827 3.49-.71 5.658.546z"/><path fill-rule="evenodd" clip-rule="evenodd" fill="#2EBCE3" d="M156.017 1.39c2.756 1.598 5.214 4.41 6.96 7.665 1.73 3.22 2.8 6.928 2.8 10.356 0 2.257-.285 3.933-1.048 5.378-.8 1.515-2.014 2.59-3.836 3.586l-8.542 4.678c-1.196.913-2.627 1.384-4.218 1.36-1.455-.023-3.014-.47-4.596-1.39-2.757-1.598-5.216-4.41-6.962-7.664-1.73-3.22-2.8-6.928-2.8-10.356 0-1.974.355-3.695.99-5.104.71-1.573 1.77-2.762 3.087-3.506.104-.065.21-.123.32-.17L148.04.814l.065-.034c1.167-.622 2.493-.884 3.924-.746 1.28.125 2.623.568 3.986 1.357zm2.79 9.908c-1.356-2.526-3.186-4.663-5.164-5.81-.764-.443-1.457-.686-2.057-.744-.494-.047-.928.032-1.282.226l-9.913 5.43c-.05.03-.1.06-.15.086-.46.24-.854.702-1.15 1.357-.36.802-.562 1.862-.562 3.157 0 2.647.85 5.554 2.223 8.113 1.358 2.527 3.187 4.663 5.165 5.81.87.503 1.643.748 2.297.758.472.01.89-.117 1.238-.364a2.37 2.37 0 0 1 .647-.42l8.54-4.676c.976-.535 1.585-1.033 1.905-1.64.355-.68.49-1.68.49-3.17 0-2.646-.85-5.553-2.224-8.112z"/><path fill-rule="evenodd" clip-rule="evenodd" fill="#EAF2F7" d="M154.83 3.44c4.734 2.745 8.572 9.896 8.572 15.97 0 3.747-.84 5.355-3.64 6.887l-8.72 4.777-11.907-22.682 10.038-5.498c1.51-.827 3.49-.71 5.657.546z"/><path fill-rule="evenodd" clip-rule="evenodd" fill="#2EBCE3" d="M154.98 3.184c2.413 1.4 4.597 3.917 6.173 6.853 1.574 2.932 2.547 6.29 2.547 9.375 0 1.92-.22 3.3-.804 4.41-.59 1.12-1.538 1.94-2.99 2.735l-8.722 4.776a.293.293 0 0 1-.4-.12l-.01-.014-11.9-22.674a.296.296 0 0 1 .12-.396l10.038-5.497.02-.01c.816-.442 1.758-.628 2.785-.53.98.097 2.04.452 3.142 1.09zm5.65 7.132c-1.526-2.845-3.63-5.277-5.948-6.62-1.027-.596-2.005-.926-2.9-1.012-.914-.088-1.748.076-2.463.466l-.016.007-.01.005-9.764 5.348 11.633 22.16 8.46-4.633c1.346-.737 2.218-1.487 2.748-2.49.535-1.014.737-2.31.737-4.136 0-2.987-.946-6.244-2.475-9.093zM149.32 3.15l-.004.003.004-.002z"/><path fill-rule="evenodd" clip-rule="evenodd" fill="#FFF" d="M144.725 8.972c4.735 2.746 8.574 9.896 8.574 15.972 0 6.076-3.84 8.774-8.576 6.03-4.734-2.746-8.572-9.896-8.572-15.973 0-6.072 3.837-8.77 8.572-6.027z"/><path fill-rule="evenodd" clip-rule="evenodd" fill="#2EBCE3" d="M144.873 8.716c2.418 1.4 4.602 3.917 6.176 6.853 1.572 2.93 2.547 6.287 2.547 9.373 0 1.992-.408 3.64-1.12 4.867-.473.815-1.08 1.447-1.792 1.876a4.647 4.647 0 0 1-2.434.658c-1.124 0-2.37-.36-3.675-1.115-2.414-1.403-4.598-3.92-6.174-6.855-1.572-2.932-2.546-6.29-2.546-9.375 0-1.99.406-3.637 1.118-4.865.472-.814 1.08-1.447 1.792-1.875a4.653 4.653 0 0 1 2.434-.658c1.124 0 2.368.358 3.673 1.114zm5.654 7.134c-1.526-2.844-3.63-5.277-5.95-6.62-1.21-.702-2.353-1.035-3.378-1.035-.79 0-1.508.197-2.13.572-.627.378-1.165.94-1.585 1.665-.66 1.14-1.037 2.684-1.037 4.57 0 2.988.944 6.245 2.474 9.094 1.527 2.845 3.632 5.277 5.95 6.62 1.21.702 2.354 1.035 3.378 1.035.787 0 1.505-.194 2.128-.57.628-.377 1.165-.94 1.585-1.665.66-1.14 1.037-2.684 1.037-4.57 0-2.99-.946-6.246-2.475-9.094z"/><path fill-rule="evenodd" clip-rule="evenodd" fill="#E5EDD0" d="M56.394 56.574L79.81 70.14c2.886 1.674 5.06 1.615 8-.16l7.81-4.51c2.89-1.67 4.125-.966 5.755.003l5.576 3.318c.278.09.523.24.73.436 1.98 1.862.94 8.07-3.325 10.563l-14.08 8.233c-1.046.53-5.013 3.495-10.602 2.948v63.43c0 2.74-1.008 3.16-2.906 4.24l-8.648 4.705c-.068.04-.137.08-.208.112-.782.373-1.782.29-2.868-.34-2.49-1.443-4.527-5.24-4.527-8.435v-1.1l-4.447 2.454c-.827.673-2.014.71-3.326-.05-2.49-1.443-4.526-5.24-4.526-8.436v-39.454l-3.853 2.185c-.66.53-1.6.56-2.64-.043-1.98-1.148-3.603-4.168-3.603-6.71v-25.1l.002-.163h-.002v-10.41c0-3.136 1.09-5.33 2.805-6.26l9.574-5.19c1.487-1.135 3.58-1.167 5.895.17z"/><path fill-rule="evenodd" clip-rule="evenodd" fill="#98CA3C" d="M57.58 54.525L80.995 68.09c1.063.618 1.94.917 2.746.9.817-.02 1.728-.367 2.846-1.042.044-.028.092-.053.138-.077l7.71-4.45c1.935-1.117 3.422-1.43 4.77-1.293 1.397.14 2.327.682 3.377 1.307l5.41 3.22c.197.08.38.17.554.272.054.033.106.065.155.1.22.143.42.3.604.475l.026.027.023.023.004-.004c.037.036.07.072.104.11.273.28.506.588.7.92.045.08.087.162.124.245.74 1.45.918 3.44.5 5.457-.408 1.975-1.382 4.065-2.934 5.715-.67.71-1.437 1.34-2.302 1.846a2.6 2.6 0 0 1-.172.092l-13.908 8.13a1.85 1.85 0 0 1-.13.072v.003c-.143.073-.27.148-.428.242l.003.004c-1.48.884-4.596 2.74-8.87 2.994V154.4c0 3.966-1.324 4.72-3.83 6.134l.004.004-.284.16c-.037.02-.076.042-.116.062l-8.47 4.606c-.038.022-.1.058-.202.112-.104.057-.18.098-.226.118h-.004c-.8.38-1.69.528-2.635.416-.784-.093-1.605-.37-2.43-.848l-.03-.02c-1.62-.95-3.057-2.59-4.066-4.47a14.305 14.305 0 0 1-1.266-3.272l-1.15.635a4.62 4.62 0 0 1-2.816.872c-.96-.016-1.97-.3-2.97-.88l-.032-.02c-1.62-.95-3.055-2.59-4.065-4.47-.996-1.856-1.616-4.006-1.616-5.994V112.16l-.17.097a4.155 4.155 0 0 1-2.55.788c-.84-.014-1.72-.26-2.587-.762-1.378-.8-2.595-2.18-3.44-3.76-.83-1.546-1.348-3.337-1.348-5V78.426l.003-.118-.002-.046h-.002V67.854c0-1.868.338-3.507.944-4.86.692-1.546 1.727-2.713 3.015-3.437.048-.03.1-.058.15-.083l9.45-5.122c1.142-.794 2.483-1.193 3.953-1.15 1.377.04 2.84.467 4.322 1.325zM78.62 72.19L55.208 58.622c-.785-.454-1.486-.68-2.078-.696a1.91 1.91 0 0 0-1.084.272 2.412 2.412 0 0 1-.484.322l-9.47 5.134-.037.02c-.42.23-.78.65-1.044 1.245-.33.742-.517 1.725-.517 2.932v10.41h-.004c.002.053.003.107.003.163v25.104c0 .88.297 1.87.77 2.754.458.853 1.044 1.56 1.645 1.906.07.04.13.072.175.095a2.34 2.34 0 0 1 .277-.153l3.524-2a2.372 2.372 0 0 1 3.702 1.967v39.453c0 1.207.4 2.555 1.042 3.752.6 1.115 1.37 2.053 2.188 2.566.08.042.154.086.227.134.23.12.41.18.538.182v.002a2.41 2.41 0 0 1 .476-.297l4.188-2.31a2.374 2.374 0 0 1 3.644 2.004v1.103c0 1.207.4 2.554 1.04 3.753.6 1.112 1.374 2.052 2.19 2.565.075.04.15.08.22.128.195.102.363.16.503.176.04.003.05.01.058.01h.003c.01-.005.008-.003 0 0l.088-.05 8.576-4.664.035-.02.282-.162.003.004.007-.005c.92-.52 1.41-.795 1.41-2.02v-63.43h.008a2.362 2.362 0 0 1 2.587-2.354c4.072.395 7.23-1.484 8.592-2.295v.004l.007-.005c.303-.182.55-.328.69-.4l13.806-8.075c.056-.037.11-.073.168-.106.475-.278.89-.615 1.244-.992.924-.98 1.505-2.23 1.75-3.417.198-.96.19-1.79-.028-2.266l-.047-.075a2.52 2.52 0 0 1-.33-.162l-5.576-3.318c-.58-.344-1.083-.642-1.432-.677-.4-.04-.976.13-1.93.68l-7.715 4.454-.06.038c-1.822 1.1-3.47 1.67-5.2 1.708-1.733.035-3.39-.473-5.212-1.53zm-11.735 89.137l.008-.004-.004.002-.006.002zm.013-.008z"/><path fill-rule="evenodd" clip-rule="evenodd" fill="#E5EDD0" d="M56.394 56.574L79.81 70.14c2.886 1.674 5.06 1.615 8-.16l7.81-4.51c2.89-1.67 4.125-.966 5.755.003l6.306 3.752c-26.112 17.473-10.95 6.49-28.006 15.66V154.4c0 2.74-1.008 3.162-2.906 4.24l-8.857 4.818-2.622-12.513-9.22 5.09-2.657-50.886-9.046 5.13-3.438-48.69L50.5 56.4c1.486-1.132 3.58-1.164 5.894.174z"/><path fill-rule="evenodd" clip-rule="evenodd" fill="#98CA3C" d="M56.542 56.318l23.415 13.567c1.395.808 2.61 1.2 3.826 1.173s2.446-.472 3.873-1.333l.02-.01 7.795-4.502c1.51-.87 2.598-1.12 3.53-1.025.94.094 1.683.528 2.525 1.03l6.307 3.753a.295.295 0 0 1-.003.514C92.083 80.02 91.306 80.23 89.44 80.736c-1.19.323-2.845.77-9.47 4.327v69.34c0 2.77-.96 3.31-2.773 4.335l-.283.162-.012.005-8.852 4.813a.297.297 0 0 1-.43-.198l-2.54-12.12-8.867 4.895a.292.292 0 0 1-.4-.116.297.297 0 0 1-.038-.14L53.14 105.64l-8.63 4.896a.296.296 0 0 1-.44-.237l-3.44-48.69a.297.297 0 0 1 .152-.28l9.565-5.185c.806-.605 1.777-.91 2.854-.878 1.034.03 2.165.37 3.343 1.05zm23.118 14.08L56.246 56.83c-1.09-.63-2.126-.944-3.06-.972-.942-.028-1.788.237-2.487.76a.305.305 0 0 1-.074.05L41.23 61.76l3.39 48.036 8.63-4.896a.273.273 0 0 1 .14-.045.298.298 0 0 1 .313.28l2.635 50.415 8.804-4.863a.298.298 0 0 1 .432.2l2.542 12.124 8.495-4.62.01-.003.285-.16c1.615-.912 2.47-1.396 2.47-3.823v-69.52h.002c0-.104.058-.207.157-.26 6.82-3.666 8.522-4.13 9.75-4.46 1.79-.487 2.546-.693 17.844-10.923l-5.905-3.51c-.785-.468-1.475-.87-2.282-.954-.812-.082-1.79.15-3.172.95l-7.8 4.503-.006.004c-1.513.914-2.84 1.387-4.167 1.417-1.332.028-2.647-.39-4.137-1.252zm-2.76 88.507l-.39-.118c.078.138.25.19.39.118zm-21.128-2.853v-.01.01z"/><path fill-rule="evenodd" clip-rule="evenodd" fill="#FFF" d="M53.12 66.07l19.84 11.45c5.585 3.037 9.743 4.396 15.556 1.042l15.85-9.15c5.62-3.247 5.832 7.106 0 10.473L90.274 88.02c-5.72 3.3-10.06 3.75-14.575 1.978-4.417-1.732-6.133.114-6.133 2.724v67.21c0 3.196-2.036 4.63-4.527 3.186v-.002c-2.49-1.443-4.526-5.24-4.526-8.435v-34.527c0-3.096-3.244-4.937-3.244-1.88V152.8c0 3.194-2.038 4.628-4.53 3.185-2.488-1.443-4.525-5.24-4.525-8.436V85.07c0-2.87-2.892-4.562-2.892-1.65v24.286c0 2.54-1.62 3.682-3.602 2.533-1.98-1.15-3.6-4.17-3.6-6.71V67.855c0-5.766 3.678-8.35 8.17-5.746l6.83 3.96z"/><path fill-rule="evenodd" clip-rule="evenodd" fill="#98CA3C" d="M53.27 65.813l19.84 11.454.004.003c2.756 1.498 5.158 2.583 7.573 2.876 2.403.292 4.84-.196 7.683-1.838l15.85-9.15c1.44-.833 2.575-.827 3.383-.285.48.322.833.83 1.06 1.458.214.604.312 1.327.294 2.107-.068 2.65-1.523 6.02-4.44 7.706L90.42 88.28l-.018.01c-2.885 1.664-5.433 2.61-7.83 2.917-2.418.31-4.678-.028-6.98-.93-1.16-.455-2.122-.655-2.907-.655-.697 0-1.25.16-1.67.438-.413.274-.707.67-.895 1.146-.174.444-.255.962-.255 1.52v67.21c0 1.07-.223 1.96-.61 2.63-.262.45-.6.805-1 1.044-.4.242-.863.37-1.363.37-.617 0-1.293-.194-2-.605l-.012-.006c-1.29-.754-2.457-2.104-3.3-3.67-.84-1.57-1.364-3.37-1.364-5.017v-34.528c0-1.322-.63-2.393-1.31-2.883a1.357 1.357 0 0 0-.55-.256.556.556 0 0 0-.393.057c-.238.146-.398.526-.398 1.202v34.527c0 1.07-.223 1.96-.61 2.628-.26.454-.603.807-1 1.046-.4.243-.862.37-1.363.37-.616 0-1.294-.193-2-.603l-.01-.008c-1.29-.75-2.458-2.1-3.3-3.67-.844-1.568-1.366-3.367-1.366-5.014V85.073c0-1.21-.546-2.185-1.14-2.63a1.14 1.14 0 0 0-.473-.23.45.45 0 0 0-.325.054c-.214.138-.36.503-.36 1.157v24.287c0 .86-.18 1.58-.49 2.12a2.38 2.38 0 0 1-.82.854c-.328.2-.706.305-1.115.305-.5 0-1.05-.158-1.62-.49-1.04-.6-1.98-1.687-2.657-2.946-.674-1.258-1.094-2.7-1.094-4.02V78.426l.003-.03V78.3l-.002-.038v-10.41c0-1.887.388-3.45 1.065-4.622.454-.78 1.036-1.39 1.722-1.8a4.467 4.467 0 0 1 2.337-.634c1.072 0 2.254.34 3.49 1.056l6.833 3.96zM72.812 77.78l-19.84-11.455-6.83-3.96c-1.142-.663-2.223-.976-3.194-.976-.75 0-1.436.187-2.03.545-.6.36-1.114.9-1.517 1.59-.623 1.083-.982 2.545-.982 4.327V78.24l.002.026-.003.136v25.127c0 1.22.392 2.56 1.02 3.735.63 1.17 1.49 2.17 2.433 2.717.477.275.925.406 1.324.406.3 0 .575-.075.81-.218.24-.146.45-.363.612-.644.262-.45.41-1.067.41-1.823V83.42c0-.88.258-1.412.635-1.654.225-.144.48-.186.75-.14.24.043.49.16.727.34.716.54 1.375 1.694 1.375 3.105v62.483c0 1.55.497 3.247 1.296 4.734.793 1.477 1.88 2.74 3.07 3.436l.035.02c.604.347 1.173.51 1.684.51.392 0 .75-.097 1.058-.282.314-.19.584-.47.795-.835.336-.58.527-1.367.527-2.33v-34.528c0-.91.276-1.458.684-1.706a1.13 1.13 0 0 1 .804-.136c.263.046.536.17.798.36.807.583 1.554 1.833 1.554 3.362v34.528c0 1.548.496 3.247 1.295 4.733.793 1.477 1.88 2.74 3.07 3.436l.036.022c.603.345 1.173.51 1.683.51.39 0 .747-.1 1.057-.284.313-.19.583-.47.794-.834.337-.58.53-1.368.53-2.33v-67.21c0-.628.094-1.22.295-1.735.232-.586.6-1.077 1.122-1.423.516-.342 1.176-.538 1.996-.538.854 0 1.89.212 3.123.695 2.212.867 4.38 1.192 6.69.896 2.318-.296 4.794-1.22 7.61-2.843l.017-.01 14.093-8.136c2.724-1.57 4.082-4.726 4.147-7.21.017-.703-.07-1.352-.263-1.89-.184-.513-.46-.92-.83-1.165-.623-.418-1.54-.397-2.757.304h-.003l-15.85 9.15c-2.967 1.713-5.52 2.22-8.043 1.916-2.504-.305-4.968-1.414-7.783-2.944l-.025-.01zm.3-.51l.103.4a.295.295 0 0 0-.102-.4z"/><path fill-rule="evenodd" clip-rule="evenodd" fill="#E5EDD0" d="M68.994 36.134c4.735 2.746 8.573 9.896 8.573 15.97 0 3.747-.84 5.355-3.638 6.888l-8.725 4.776c-1.567 1.28-3.816 1.35-6.316-.1-4.735-2.746-8.575-9.896-8.575-15.972 0-3.334 1.156-5.65 2.982-6.61l10.038-5.5c1.512-.824 3.492-.71 5.658.548z"/><path fill-rule="evenodd" clip-rule="evenodd" fill="#98CA3C" d="M70.182 34.085c2.755 1.598 5.215 4.41 6.962 7.664 1.73 3.22 2.798 6.926 2.798 10.354 0 2.256-.286 3.93-1.048 5.376-.8 1.516-2.01 2.59-3.833 3.587l-8.54 4.678c-1.195.913-2.63 1.384-4.22 1.358-1.453-.022-3.012-.47-4.595-1.388-2.757-1.598-5.215-4.41-6.96-7.664-1.73-3.22-2.8-6.927-2.8-10.354 0-1.975.354-3.696.99-5.105.73-1.62 1.84-2.834 3.228-3.576l.006-.005 10.037-5.5.074-.038c1.167-.618 2.49-.878 3.916-.742 1.28.126 2.624.568 3.987 1.357zm2.79 9.908c-1.356-2.526-3.185-4.663-5.163-5.81-.768-.443-1.46-.685-2.06-.744-.495-.05-.93.03-1.28.224l-10.04 5.498-.037.02c-.45.236-.84.697-1.14 1.356-.36.8-.564 1.862-.564 3.157 0 2.647.85 5.554 2.225 8.113 1.356 2.526 3.185 4.663 5.163 5.81.866.503 1.642.75 2.295.758a2.04 2.04 0 0 0 1.24-.368c.194-.176.41-.315.64-.415l8.545-4.68c.975-.534 1.584-1.032 1.904-1.64.357-.678.49-1.68.49-3.17 0-2.646-.85-5.553-2.222-8.112zM52.168 39.01l.074-.038-.074.038z"/><path fill-rule="evenodd" clip-rule="evenodd" fill="#E5EDD0" d="M68.994 36.134c4.735 2.746 8.573 9.896 8.573 15.97 0 3.747-.84 5.355-3.638 6.888l-8.725 4.776L53.3 41.086l10.037-5.498c1.51-.826 3.49-.71 5.657.546z"/><path fill-rule="evenodd" clip-rule="evenodd" fill="#98CA3C" d="M69.143 35.878c2.416 1.4 4.6 3.918 6.175 6.854 1.573 2.93 2.547 6.288 2.547 9.374 0 1.92-.22 3.302-.805 4.41-.59 1.12-1.538 1.94-2.99 2.736l-8.72 4.776a.294.294 0 0 1-.4-.118l-.008-.015-11.905-22.672a.297.297 0 0 1 .12-.396l10.038-5.498.02-.013c.817-.44 1.758-.626 2.784-.528.98.095 2.04.45 3.142 1.087zm5.654 7.134c-1.527-2.845-3.632-5.276-5.95-6.622-1.026-.594-2.004-.924-2.902-1.01-.913-.088-1.745.076-2.46.466l-.016.007-.01.004-9.766 5.35L65.33 63.364l8.46-4.633c1.344-.735 2.216-1.486 2.746-2.49.535-1.014.734-2.31.734-4.136 0-2.988-.945-6.245-2.473-9.093zm-11.314-7.166l-.005.002.005-.002z"/><path fill-rule="evenodd" clip-rule="evenodd" fill="#FFF" d="M58.89 41.667c4.735 2.745 8.575 9.896 8.575 15.97s-3.84 8.777-8.574 6.03-8.572-9.895-8.572-15.97 3.84-8.775 8.574-6.03z"/><path fill-rule="evenodd" clip-rule="evenodd" fill="#98CA3C" d="M59.04 41.412c2.415 1.4 4.6 3.917 6.175 6.853 1.572 2.932 2.547 6.29 2.547 9.375 0 1.992-.406 3.64-1.12 4.867-.472.815-1.078 1.447-1.79 1.875a4.67 4.67 0 0 1-2.434.658c-1.127 0-2.37-.358-3.676-1.115-2.416-1.4-4.6-3.917-6.175-6.852-1.573-2.932-2.547-6.29-2.547-9.375 0-1.993.406-3.64 1.12-4.868.47-.814 1.078-1.446 1.79-1.875a4.654 4.654 0 0 1 2.434-.66c1.126 0 2.37.36 3.675 1.117zm5.653 7.132c-1.527-2.845-3.633-5.277-5.95-6.62-1.21-.702-2.355-1.035-3.38-1.035-.787 0-1.502.195-2.127.57-.627.377-1.165.94-1.584 1.665-.66 1.14-1.04 2.685-1.04 4.57 0 2.99.948 6.247 2.477 9.095 1.525 2.845 3.63 5.277 5.95 6.622 1.207.7 2.352 1.034 3.377 1.034.787 0 1.503-.197 2.127-.572.627-.378 1.164-.94 1.585-1.665.66-1.14 1.037-2.686 1.037-4.57 0-2.99-.947-6.247-2.475-9.097z"/></svg>