<svg xmlns="http://www.w3.org/2000/svg" width="260" height="260" viewBox="-11.988 -30.451 260 260" overflow="visible"><path fill-rule="evenodd" clip-rule="evenodd" fill="#B3B4B4" d="M12.068 107.76c3.354 1.057 7.35 1.487 11.778 1.355 4.723-.142 9.932-.915 15.395-2.24 3.713-.898 7.61-2.094 11.58-3.516a158.712 158.712 0 0 0 10.848-4.375c-.623-3.23-1.225-6.687-1.496-10.082-.338-4.208-.163-8.312 1.094-11.792l.275-.764c1.525-4.228 2.567-7.12 3.97-11.627 1.076-3.465 2.713-4.028 4.226-4.548.233-.08.454-.156.5-.264 1.677-3.824 10.18-6.765 15.746-8.69 1.63-.564 2.977-1.03 3.67-1.345 1.107-.505 3.383-1.868 6.002-3.438 3.007-1.8 6.446-3.86 9.41-5.377l-.398-.104c-.865-.217-1.463-.783-1.805-1.476a2.058 2.058 0 0 1-.13-.312 3.092 3.092 0 0 1-.12-1.638l2.59-11.896c.02-.097.037-.186.05-.267-.16.068-.332.163-.52.28-2.33 1.47-4.512 3.416-6.46 5.563a44.75 44.75 0 0 0-5.587 7.707 2.374 2.374 0 0 1-2.14 1.365c-3.016.283-6.275.83-9.786 1.65-3.615.84-7.44 1.96-11.484 3.368-2.554.89-5.033 1.804-7.47 2.756-2.42.947-4.712 1.906-6.893 2.887a2.396 2.396 0 0 1-.54.166c-1.87.35-3.745 1.014-5.642 2.003-1.943 1.014-3.924 2.38-5.96 4.104-.097.082-.2.156-.308.22l.003.003a114.756 114.756 0 0 0-8.77 5.865c-2.93 2.16-5.876 4.53-8.9 7.155-5.86 5.09-10.49 9.937-13.83 14.526-3.234 4.45-5.228 8.608-5.924 12.46-.575 3.175-.35 5.288.686 6.736 1.08 1.516 3.203 2.586 6.34 3.58zm11.907 6.083c-4.97.146-9.49-.346-13.335-1.56-4.097-1.295-6.99-2.868-8.77-5.354C.047 104.38-.433 101.14.383 96.613c.83-4.59 3.097-9.396 6.742-14.407 3.544-4.87 8.42-9.982 14.57-15.324 3.138-2.723 6.18-5.172 9.197-7.395 3-2.21 5.967-4.2 8.974-6.02 2.23-1.873 4.447-3.385 6.673-4.546 2.226-1.162 4.45-1.964 6.686-2.41a155.49 155.49 0 0 1 6.85-2.866c2.4-.94 4.94-1.873 7.637-2.81 4.254-1.483 8.24-2.653 11.965-3.52 3.293-.77 6.43-1.313 9.415-1.638a49.433 49.433 0 0 1 5.67-7.64c2.227-2.456 4.742-4.69 7.44-6.395 1.086-.685 2.19-1.068 3.192-1.146.984-.076 1.9.13 2.684.626.835.527 1.442 1.324 1.744 2.387.246.87.27 1.916.01 3.123l-2.23 10.24c.627.203 1.23.43 1.808.674 1.053.447 2.03.97 2.924 1.562a2.37 2.37 0 0 1-.622 4.375l-.272.063h-.01l-.205.044-.09.02c-2.41.504-8.31 4.04-13.058 6.883-2.73 1.636-5.1 3.057-6.467 3.68-.87.395-2.33.9-4.095 1.51-4.79 1.655-12.102 4.186-12.947 6.11-.89 2.033-2.056 2.434-3.3 2.86-.424.147-.885.306-1.24 1.45-1.4 4.5-2.473 7.48-4.043 11.833l-.276.764c-.987 2.737-1.106 6.194-.814 9.827.304 3.79 1.067 7.774 1.78 11.38h-.005a2.367 2.367 0 0 1-1.34 2.605 163.23 163.23 0 0 1-12.92 5.29c-4.144 1.486-8.204 2.73-12.06 3.666-5.77 1.403-11.31 2.22-16.38 2.37z"/><path fill-rule="evenodd" clip-rule="evenodd" fill="#FFF" d="M74.446 119.77l-9.885 6.195c-1.963 1.232-5.046 1.396-6.887.436l-.084-.044-.006-.003-.082-.047-.004-.003-.08-.048-.006-.003-2.938-1.83-.057-.035-.055-.034-.05-.035h-.002l-.05-.034-.05-.035h-.002l-.046-.036-.046-.035c-.54-.428-.735-.86-.854-1.383l-.01-.044v-.013c-.065-.29-.11-.606-.178-.963l-.99-5.154a1.73 1.73 0 0 1-.075-.387l-.02-.092v-.22h.014c.03-.235.105-.473.23-.706l.005-.008.013-.028c.214-.396.567-.78 1.057-1.127v-.003l.075-.05.012-.01.043-.03c.062-.04.124-.08.186-.117l.098-.058 18.943-11.023c21.44-12.477 31.51-1.622 1.78 17.007z"/><path fill-rule="evenodd" clip-rule="evenodd" fill="#B3B4B4" d="M75.592 121.46l-9.56 5.99c-1.28.8-2.872 1.256-4.417 1.352-1.602.102-3.236-.177-4.512-.843l-.018-.01-.082-.044-.057-.03h-.005v.002l-.005-.003a1.845 1.845 0 0 1-.125-.078l-.013-.008-.023-.014-.002.002-.005-.003c-.048-.028-.094-.058-.14-.088l-2.655-1.653a2.7 2.7 0 0 1-.24-.152 2.017 2.017 0 0 1-.21-.14l-.048-.034-.08-.062a2.444 2.444 0 0 1-.308-.26 4.3 4.3 0 0 1-.912-1.1 4.633 4.633 0 0 1-.5-1.293h-.004l-.018-.08-.017-.07h-.003v-.007a1.146 1.146 0 0 1-.025-.152 8.92 8.92 0 0 1-.08-.43l-.013-.07-.985-5.148a3.885 3.885 0 0 1-.12-.62 2.444 2.444 0 0 1-.036-.405h-.005v-.21c0-.246.04-.48.107-.703.028-.11.06-.225.098-.34a4.4 4.4 0 0 1 .297-.71l.023-.04h-.002l.014-.03.03-.052a5.12 5.12 0 0 1 .72-.972c.05-.056.104-.108.16-.157.243-.243.51-.466.794-.67l.023-.014c.034-.03.07-.056.105-.08v-.002l.01-.007.004-.003c.056-.038.11-.073.167-.105.095-.067.19-.126.295-.177l.027-.016 18.268-10.63c7.663-4.46 14.094-6.006 17.966-5.324 2.104.37 3.64 1.358 4.485 2.892.825 1.495.89 3.35.08 5.483-1.62 4.24-7.294 10.324-18.447 17.312z"/><path fill-rule="evenodd" clip-rule="evenodd" fill="#F6F6F6" d="M11.354 110.02c7.348 2.322 17.432 1.825 28.44-.845 16.703-4.05 37.222-13.977 51.153-24.07 7.807-5.658 13.86-11.616 18.218-17.868 6.643-9.53 8.284-17.07 5.597-22.15L3.602 105.27c1.393 2.16 3.964 3.553 7.752 4.75z"/><path fill-rule="evenodd" clip-rule="evenodd" fill="#FFF" d="M11.354 110.02c7.348 2.322 17.432 1.825 28.44-.845 16.703-4.05 37.222-13.977 51.153-24.07 7.807-5.658 13.86-11.616 18.218-17.868 13.742-19.72 6.087-30.913-17.048-29.445-6.793.43-14.635 2.148-23.626 5.28-18.09 6.3-30.686 12.958-45.245 25.602C11.23 79.106 4.235 88.59 2.71 97.032c-1.39 7.703 1.41 10.703 8.644 12.99z"/><path fill-rule="evenodd" clip-rule="evenodd" fill="#B3B4B4" d="M11.444 109.738c3.568 1.127 7.79 1.584 12.46 1.445 4.87-.146 10.226-.94 15.82-2.295 8.178-1.983 17.275-5.38 26.063-9.515l.015-.006c9.113-4.29 17.893-9.374 24.972-14.503 3.894-2.822 7.35-5.717 10.37-8.683 3.02-2.963 5.61-6.003 7.78-9.114 3.52-5.053 5.626-9.535 6.417-13.376.718-3.477.354-6.424-1.014-8.788s-3.748-4.16-7.064-5.334c-3.835-1.355-8.915-1.877-15.122-1.484-3.385.216-7.03.752-10.945 1.62-3.92.873-8.116 2.082-12.604 3.645-9.03 3.143-16.687 6.38-23.9 10.4-7.21 4.02-13.985 8.837-21.25 15.146-5.99 5.2-10.725 10.16-14.153 14.877-3.416 4.696-5.53 9.135-6.284 13.31-.682 3.768-.346 6.373 1.036 8.303 1.386 1.937 3.846 3.228 7.405 4.35zm12.474 2.036c-4.734.14-9.024-.325-12.654-1.47-3.676-1.163-6.234-2.516-7.707-4.575-1.48-2.068-1.848-4.814-1.137-8.75.77-4.268 2.918-8.79 6.385-13.556 3.453-4.747 8.22-9.744 14.247-14.977 7.294-6.335 14.1-11.172 21.347-15.213 7.246-4.042 14.934-7.29 23.993-10.444 4.503-1.568 8.724-2.783 12.67-3.662 3.952-.877 7.628-1.418 11.036-1.634 6.29-.398 11.446.135 15.356 1.518 3.45 1.22 5.94 3.103 7.38 5.595 1.44 2.49 1.828 5.578 1.08 9.202-.805 3.92-2.94 8.476-6.51 13.594-2.187 3.14-4.8 6.206-7.85 9.2-3.046 2.988-6.524 5.903-10.438 8.74-7.1 5.145-15.914 10.25-25.066 14.556l-.015.008c-8.823 4.15-17.958 7.562-26.175 9.554-5.635 1.366-11.03 2.166-15.947 2.312z"/><path fill-rule="evenodd" clip-rule="evenodd" fill="#F6F6F6" d="M11.354 110.02c7.348 2.322 17.432 1.825 28.44-.845 16.703-4.05 37.222-13.977 51.153-24.07 7.807-5.658 13.86-11.616 18.218-17.868 3.537-5.074 5.653-9.582 6.454-13.457-7.487 12.576-19.377 20.906-31.678 28.33a149.938 149.938 0 0 1-9.597 5.4C53.72 98.29 31.303 104.792 9.61 106.026c-.158.584-.473 1.07-.943 1.39-.878.595-2.093.47-3.226-.207l-.023.006c1.452 1.132 3.428 2.012 5.938 2.804z"/><path fill-rule="evenodd" clip-rule="evenodd" fill="#B3B4B4" d="M11.444 109.738c3.568 1.127 7.793 1.584 12.46 1.445 4.87-.146 10.226-.94 15.82-2.295 8.178-1.983 17.275-5.38 26.063-9.515l.015-.006c9.113-4.29 17.893-9.374 24.972-14.503 3.894-2.822 7.35-5.716 10.37-8.683 3.02-2.963 5.61-6.003 7.78-9.114 1.74-2.5 3.135-4.855 4.194-7.063.744-1.554 1.325-3.036 1.744-4.44-3.604 5.6-8.094 10.34-13.084 14.54-5.466 4.598-11.523 8.544-17.68 12.26l-.007.004a149.887 149.887 0 0 1-9.61 5.41l-.02.01c-10.374 5.42-21.2 9.76-32.157 12.892-10.794 3.086-21.72 5.004-32.47 5.632-.087.25-.2.48-.342.69a2.467 2.467 0 0 1-.66.66c-.44.3-.95.44-1.492.435.248.13.506.258.774.383.98.453 2.092.867 3.334 1.26zm12.474 2.036c-4.732.14-9.024-.325-12.654-1.47-1.268-.402-2.4-.825-3.402-1.29h.002c-1.002-.467-1.876-.98-2.617-1.556a.31.31 0 0 1-.117-.162.3.3 0 0 1 .207-.365l.023-.005a.3.3 0 0 1 .232.03c.537.32 1.09.508 1.607.54.477.032.926-.07 1.3-.324.2-.134.367-.307.5-.504.14-.203.245-.44.317-.702a.297.297 0 0 1 .29-.234c10.767-.612 21.714-2.53 32.532-5.622 10.923-3.125 21.713-7.45 32.05-12.85l.02-.01c1.65-.852 3.277-1.73 4.875-2.63a145.86 145.86 0 0 0 4.69-2.755l.015-.01c6.144-3.707 12.18-7.64 17.606-12.205 5.418-4.558 10.237-9.756 13.96-16.006a.3.3 0 0 1 .323-.154c.16.032.262.188.227.35-.41 1.98-1.158 4.125-2.26 6.42-1.076 2.24-2.486 4.627-4.24 7.146-2.19 3.14-4.803 6.207-7.853 9.2-3.045 2.99-6.523 5.903-10.437 8.74-7.097 5.146-15.91 10.25-25.063 14.556l-.015.008c-8.824 4.15-17.96 7.562-26.176 9.554-5.635 1.366-11.03 2.166-15.947 2.312zM9.07 102.573a.295.295 0 0 1-.28-.52l60.908-33a.293.293 0 0 1 .4.12.293.293 0 0 1-.12.4l-60.907 33zM79.234 64.56c-.145.078-.324.022-.4-.12s-.025-.323.12-.402l35.624-19.3a.295.295 0 1 1 .28.52l-35.624 19.3zM6.715 100.02a.294.294 0 1 1-.523-.27c3.22-6.156 10.088-13.96 19.625-21.963 8.63-7.24 19.45-14.65 31.738-21.154a.296.296 0 0 1 .275.523c-12.246 6.483-23.033 13.87-31.633 21.086-9.482 7.953-16.3 15.694-19.482 21.778zm60.588-47.55a.3.3 0 0 1-.393-.146.3.3 0 0 1 .146-.394c6.7-3.09 15.518-6.568 24.268-8.895 6.734-1.79 13.436-2.9 19.117-2.628a.294.294 0 1 1-.027.588c-5.613-.266-12.254.835-18.938 2.612-8.712 2.317-17.492 5.783-24.17 8.862z"/><path fill-rule="evenodd" clip-rule="evenodd" fill="#FFF" d="M90.53 37.914c.535-.05 1.064-.09 1.588-.123 4.96-.313 9.205-.045 12.684.765h.013l2.702-12.416c.716-3.295-1.537-4.075-4.05-2.49-5.388 3.4-10.013 9.105-12.937 14.265z"/><path fill-rule="evenodd" clip-rule="evenodd" fill="#B3B4B4" d="M90.53 38.21v-.002a.294.294 0 0 1-.256-.438 47.366 47.366 0 0 1 6.024-8.34c2.104-2.32 4.475-4.43 7.012-6.03.79-.5 1.564-.777 2.24-.83.545-.04 1.035.062 1.43.312.398.253.696.65.85 1.193.158.554.164 1.264-.023 2.126l-2.7 12.42h-.002a.296.296 0 0 1-.304.232h-.01l-.05-.007c-1.735-.404-3.66-.672-5.775-.8-2.094-.124-4.372-.113-6.825.042-.25.017-.513.035-.788.057-.283.02-.54.043-.768.063l-.054.005zm.537-.64l.24-.02c.252-.02.518-.038.793-.056 2.477-.157 4.78-.17 6.896-.04 2.034.12 3.9.372 5.592.747l2.638-12.125c.165-.765.164-1.377.032-1.842-.11-.393-.32-.678-.596-.852-.283-.18-.648-.253-1.068-.22-.584.045-1.263.292-1.97.74-2.49 1.57-4.82 3.643-6.89 5.924a47.168 47.168 0 0 0-5.667 7.746z"/><path fill-rule="evenodd" clip-rule="evenodd" fill="#FFF" d="M127.995 48.704c-.21.1-.408.22-.612.33-5.32 2.827-11.226 4.708-17.076 6.25l5.624-6.23 11.53-2.344c1.6-.325 1.97 1.294.536 1.994z"/><path fill-rule="evenodd" clip-rule="evenodd" fill="#B3B4B4" d="M128.122 48.97c-.116.056-.238.126-.36.195l-.017.008c-.077.043-.156.087-.224.123-2.67 1.42-5.49 2.604-8.377 3.624-2.88 1.02-5.828 1.88-8.762 2.65a.293.293 0 0 1-.36-.21c-.026-.1 0-.2.067-.273l5.625-6.23a.292.292 0 0 1 .18-.096l11.51-2.34c.604-.12 1.073 0 1.38.247.172.142.293.322.355.524.062.197.068.415.016.633-.103.427-.438.86-1.028 1.148zm-.652-.322c.126-.07.254-.144.396-.212.416-.2.645-.485.71-.754a.592.592 0 0 0-.005-.316.497.497 0 0 0-.162-.24c-.18-.145-.478-.21-.89-.128l-11.43 2.325-4.893 5.418c2.6-.7 5.2-1.475 7.75-2.377 2.858-1.012 5.653-2.184 8.298-3.59h.002c.077-.04.144-.078.208-.114l.018-.01z"/><path fill-rule="evenodd" clip-rule="evenodd" fill="#F6F6F6" d="M102.606 75.132v-.002c2.503-2.577 4.688-5.21 6.56-7.894a57.013 57.013 0 0 0 3.247-5.212L116.75 66c1.72 1.576 1.836 4.096-1.08 5.762-3.964 2.267-11.343 3.292-13.064 3.37z"/><path fill-rule="evenodd" clip-rule="evenodd" fill="#B3B4B4" d="M102.395 74.924a67.725 67.725 0 0 0 3.496-3.885 59.785 59.785 0 0 0 4.772-6.608 49.24 49.24 0 0 0 1.49-2.55.295.295 0 0 1 .47-.067l4.327 3.966c.345.32.633.673.847 1.047.358.627.523 1.318.45 2.018-.074.696-.384 1.396-.975 2.04-.37.407-.852.79-1.455 1.134-1.55.887-3.61 1.583-5.654 2.11-3.25.84-6.475 1.247-7.543 1.297a.296.296 0 0 1-.223-.504zm3.95-3.506a66.556 66.556 0 0 1-2.987 3.356c1.43-.146 4.032-.538 6.658-1.216 1.996-.515 4.005-1.193 5.507-2.052a5.37 5.37 0 0 0 1.315-1.02c.498-.543.76-1.127.818-1.7a2.762 2.762 0 0 0-.373-1.665 3.893 3.893 0 0 0-.73-.902l-4.062-3.723c-.41.74-.85 1.49-1.325 2.25-.543.872-1.13 1.76-1.756 2.66a59.007 59.007 0 0 1-3.064 4.014z"/><path fill-rule="evenodd" clip-rule="evenodd" fill="#FFF" d="M92.407 102.167l-.836 4.546c-.29 1.58-.077 2.12-1.896 3.263l-25.19 15.79c-2.06 1.293-5.35 1.41-7.146.29l-2.94-1.83c-1.21-.755-1.177-1.495-1.397-2.645l-1.08-5.63v-.22h.013c.092-.755.672-1.527 1.72-2.14l27.67-16.1c2.104-1.225 5.35-1.408 7.147-.29l2.937 1.83c1.572.98 1.263 1.715 1 3.138z"/><path fill-rule="evenodd" clip-rule="evenodd" fill="#B3B4B4" d="M92.84 102.272l-.834 4.52c-.037.203-.072.433-.104.64-.187 1.24-.28 1.844-1.994 2.92l-.03.016-25.16 15.775c-1.094.686-2.505 1.06-3.876 1.115-1.393.056-2.763-.217-3.74-.825l-2.94-1.83c-1.224-.762-1.35-1.49-1.524-2.52l-.074-.42-1.083-5.632a.55.55 0 0 1-.005-.08v-.22c0-.063.012-.12.033-.174.076-.426.276-.85.598-1.25.32-.397.762-.77 1.322-1.098L81.1 97.104c1.124-.654 2.554-1.028 3.936-1.084 1.367-.055 2.7.2 3.667.803l2.938 1.83c1.7 1.057 1.545 1.857 1.273 3.25l-.003.012-.063.335-.008.022zm-1.707 4.362l.834-4.525.004-.026.066-.337.003-.015c.196-1.01.31-1.592-.867-2.324l-2.94-1.83c-.81-.506-1.963-.72-3.163-.672-1.243.05-2.525.384-3.528.967l-27.67 16.102c-.463.27-.824.57-1.076.887-.24.297-.38.605-.422.903a.41.41 0 0 1-.012.07v.075l1.073 5.587c.032.158.055.3.077.435.137.798.234 1.364 1.12 1.915l2.938 1.83c.825.514 2.012.74 3.235.692 1.23-.05 2.483-.38 3.44-.98l25.164-15.775.023-.016c1.37-.86 1.44-1.333 1.588-2.3.03-.19.06-.393.11-.67z"/><path fill-rule="evenodd" clip-rule="evenodd" fill="#F6F6F6" d="M88.63 100.467l.356.322 3.562.275-.805 5.52c-.295 1.594-.074 2.15-1.906 3.297L64.485 125.77c-2.06 1.29-5.348 1.407-7.145.287l-2.944-1.83c-1.217-.758-1.18-1.494-1.393-2.645l-1.088-5.854h3.827l25.74-14.975c2.104-1.222 5.576-1.706 7.147-.286z"/><path fill-rule="evenodd" clip-rule="evenodd" fill="#B3B4B4" d="M88.916 100.15l.25.225 3.415.266.46.038-.066.45-.806 5.52-.004.015c-.04.214-.073.445-.105.654-.187 1.24-.278 1.854-1.993 2.928L64.71 126.13c-1.09.684-2.497 1.058-3.864 1.113-1.39.056-2.756-.216-3.73-.824l-2.943-1.834c-1.225-.763-1.346-1.485-1.516-2.516a21.805 21.805 0 0 0-.07-.41l-1.088-5.854-.096-.504h4.227l25.64-14.915c1.176-.684 2.756-1.147 4.227-1.208 1.333-.056 2.592.224 3.418.97zm-.214.954l-.357-.32c-.645-.584-1.686-.8-2.813-.754-1.335.054-2.77.475-3.833 1.093l-25.74 14.975-.215.06H52.43l.995 5.35c.03.156.053.297.074.427.132.805.226 1.37 1.124 1.93l2.942 1.833c.827.516 2.018.744 3.246.694 1.23-.05 2.488-.38 3.45-.98l25.353-15.89c1.378-.86 1.452-1.347 1.6-2.327.026-.19.058-.4.108-.67l.738-5.066-3.104-.246-.255-.11z"/><path fill-rule="evenodd" clip-rule="evenodd" fill="#FFF" d="M88.467 97.2l2.938 1.83c1.798 1.12 1.608 2.95-.493 4.172l-27.67 16.103c-2.104 1.224-5.35 1.408-7.147.29l-2.94-1.832c-1.798-1.12-1.608-2.948.493-4.172l27.672-16.1c2.104-1.223 5.348-1.407 7.147-.29z"/><path fill-rule="evenodd" clip-rule="evenodd" fill="#B3B4B4" d="M88.692 96.84l2.938 1.83c.51.316.884.692 1.122 1.1.22.377.32.78.306 1.192a2.45 2.45 0 0 1-.388 1.2c-.316.512-.834.996-1.545 1.41l-27.67 16.102c-1.122.653-2.55 1.025-3.93 1.08-1.36.055-2.69-.2-3.654-.8l-2.94-1.83c-.51-.315-.882-.69-1.12-1.1a2.17 2.17 0 0 1-.303-1.192 2.42 2.42 0 0 1 .385-1.2c.32-.512.836-.996 1.546-1.41l27.67-16.1c1.125-.655 2.55-1.028 3.93-1.083 1.363-.056 2.69.2 3.656.8zm2.49 2.554l-2.94-1.83c-.813-.507-1.97-.722-3.173-.673-1.248.05-2.53.386-3.535.97l-27.673 16.1c-.584.343-1 .728-1.247 1.123-.163.263-.25.526-.26.78-.01.25.055.5.192.736.167.287.445.56.832.803l2.94 1.83c.812.506 1.97.722 3.17.673 1.25-.05 2.534-.385 3.538-.968l27.67-16.103c.582-.34 1-.726 1.247-1.12.162-.263.25-.528.26-.78a1.37 1.37 0 0 0-.193-.737c-.167-.29-.445-.563-.833-.803z"/><path fill-rule="evenodd" clip-rule="evenodd" fill="#2EBCE3" d="M69.484 117.952c.552-.345.998-.044.998.67 0 .714-.446 1.57-.998 1.914-.552.343-.998.043-.998-.67 0-.714.446-1.57.998-1.914zm15.115-9.42c.55-.344.995-.044.995.67 0 .713-.447 1.57-.997 1.914-.553.344-1 .044-1-.67 0-.714.447-1.57 1-1.913zm-3.78 2.356c.55-.345.997-.044.997.67 0 .714-.447 1.57-1 1.913-.55.346-.995.046-.995-.67 0-.71.445-1.57.996-1.91zm-3.78 2.354c.55-.344 1-.044 1 .67 0 .713-.448 1.57-1 1.914-.55.343-1 .043-1-.67s.45-1.57 1-1.914zm-3.78 2.355c.55-.344 1-.044 1 .67s-.448 1.57-1 1.913c-.55.345-.997.044-.997-.67 0-.712.447-1.57.998-1.913z"/><path fill-rule="evenodd" clip-rule="evenodd" fill="#B3B4B4" d="M37.81 109.884a.296.296 0 0 1-.157-.57 9.433 9.433 0 0 0 2.78-1.28c3.1-2.102 4.65-5.873 4.65-10.27 0-4.438-1.575-9.508-4.726-14.155-3.152-4.65-7.277-7.99-11.4-9.63-4.086-1.63-8.162-1.585-11.263.516a9.663 9.663 0 0 0-1.493 1.26.297.297 0 0 1-.417.008.3.3 0 0 1-.008-.42c.24-.247.493-.485.76-.71.26-.22.537-.43.828-.627 3.27-2.218 7.547-2.276 11.812-.576 4.228 1.683 8.452 5.1 11.672 9.848 3.218 4.747 4.827 9.936 4.826 14.485 0 4.592-1.638 8.54-4.91 10.76a9.893 9.893 0 0 1-2.953 1.358zM99.237 78.73a.294.294 0 0 1-.414-.047.297.297 0 0 1 .047-.417c3.072-2.44 4.55-6.526 4.44-11.22-.114-4.707-1.825-10.016-5.134-14.898-2.97-4.38-6.736-7.69-10.61-9.66-3.917-1.992-7.94-2.605-11.333-1.55a.293.293 0 0 1-.37-.194.294.294 0 0 1 .193-.37c3.548-1.104 7.725-.475 11.78 1.587 3.954 2.013 7.8 5.39 10.828 9.86 3.375 4.976 5.12 10.4 5.234 15.213.118 4.878-1.437 9.138-4.66 11.698z"/><path fill-rule="evenodd" clip-rule="evenodd" fill="#FFF" d="M67.65 98.812c3.16-.48 10.415-3.61 13.127-7.103 5.1-6.568 4.038-19.07-2.755-29.09-7.568-11.16-20.375-16.41-28.338-12.53-3.396 1.643-6.63 3.327-8.94 5.62 7.956-4.62 19.993.03 27.787 11.527 7.8 11.503 7.998 25.62.083 30.988-.313.212-.634.406-.962.586z"/><path fill-rule="evenodd" clip-rule="evenodd" fill="#2EBCE3" d="M69.24 98.14c1.692-.493 3.85-1.37 5.893-2.475 2.19-1.187 4.24-2.63 5.41-4.138l.013-.013c2.506-3.24 3.488-7.96 3-13.11-.484-5.13-2.43-10.678-5.777-15.618-3.7-5.456-8.66-9.485-13.688-11.71-5.133-2.27-10.324-2.646-14.28-.72l-.015.007c-1.688.817-3.332 1.643-4.84 2.547a25.278 25.278 0 0 0-2.398 1.617c3.724-1.396 8.08-1.1 12.41.695 4.974 2.063 9.915 6.113 13.804 11.85 3.954 5.83 5.97 12.333 5.985 18.048.013 5.474-1.807 10.234-5.52 13.02zm6.173-1.954c-2.842 1.54-5.924 2.647-7.72 2.92v-.002a.3.3 0 0 1-.302-.15.297.297 0 0 1 .12-.4c.16-.088.317-.18.475-.274.156-.095.31-.193.462-.297 3.85-2.61 5.738-7.355 5.723-12.86-.016-5.605-1.997-11.986-5.884-17.718-3.82-5.637-8.668-9.61-13.542-11.634-4.945-2.05-9.914-2.086-13.85.2a.295.295 0 0 1-.357-.048.293.293 0 0 1 0-.417c1.174-1.165 2.578-2.175 4.118-3.1 1.528-.917 3.188-1.75 4.885-2.57l.015-.01c4.116-2.006 9.488-1.625 14.777.713 5.116 2.264 10.17 6.367 13.935 11.92 3.406 5.024 5.384 10.67 5.88 15.893.5 5.296-.522 10.165-3.122 13.524l-.013.02c-1.224 1.574-3.344 3.072-5.6 4.293z"/><path fill-rule="evenodd" clip-rule="evenodd" fill="#EAF2F7" d="M69.205 98.137c1.503-.357 8.556-3.037 11.266-6.53 2.22-2.858 3.28-6.73 3.208-11.075-2.432 1.833-5.068 3.576-8.936 4.794-.023 5.05-1.58 9.897-5.535 12.81z"/><path fill-rule="evenodd" clip-rule="evenodd" fill="#2EBCE3" d="M70.554 97.392a35.673 35.673 0 0 0 5.334-2.49c1.714-.994 3.343-2.182 4.348-3.476 1.074-1.383 1.872-3.012 2.396-4.82.488-1.69.74-3.537.753-5.486-1.08.797-2.214 1.575-3.492 2.297a26.04 26.04 0 0 1-4.858 2.127C75 88.17 74.55 90.74 73.568 93.01c-.71 1.647-1.7 3.137-3.014 4.383zm5.63-1.98c-2.866 1.66-5.967 2.788-6.912 3.013a.302.302 0 0 1-.307-.112.297.297 0 0 1 .064-.414c1.82-1.346 3.123-3.11 3.992-5.124.975-2.25 1.406-4.813 1.422-7.434a.294.294 0 0 1 .207-.3c1.915-.603 3.52-1.334 4.95-2.14s2.686-1.696 3.896-2.608a.296.296 0 0 1 .474.23c.04 2.227-.22 4.332-.77 6.244-.545 1.878-1.376 3.574-2.497 5.018-1.056 1.363-2.746 2.598-4.518 3.624z"/><path fill-rule="evenodd" clip-rule="evenodd" fill="#B3B4B4" d="M8.435 102.077c-.01-.013-.02-.026-.028-.042-.672-.98-1.545-1.687-2.414-2.035-.84-.334-1.67-.33-2.29.093-.62.42-.933 1.19-.933 2.093h-.002c0 .943.336 2.025 1.01 3.02.676.995 1.555 1.708 2.433 2.058.84.334 1.67.33 2.29-.092.623-.42.934-1.19.934-2.094h.002c0-.937-.335-2.012-1-3zM6.21 99.452c.978.39 1.953 1.175 2.694 2.266l.008.01c.742 1.095 1.112 2.295 1.112 3.35 0 1.095-.397 2.044-1.193 2.583-.793.54-1.82.56-2.84.153-.98-.39-1.957-1.18-2.7-2.274-.74-1.096-1.11-2.297-1.11-3.353h-.003c0-1.095.398-2.043 1.195-2.582.795-.54 1.823-.557 2.84-.152z"/><path fill-rule="evenodd" clip-rule="evenodd" fill="#EAF2F7" d="M65.512 59.523l96.824-56.31c1.9-1.105 3.127-1.078 4.826-.215l2.575 1.31c1.563.793 2.567 2.806 2.567 5.7v121.8c0 5.105-3.12 11.103-6.933 13.32l-96.823 56.31c-1.66.966-3.19 1.063-4.385.445-3.614-1.865-5.583-2.352-5.583-7.24V72.845c0-5.108 3.12-11.105 6.934-13.323z"/><path fill-rule="evenodd" clip-rule="evenodd" fill="#2EBCE3" d="M64.326 57.475l96.824-56.31C162.448.41 163.58.04 164.76.003c1.196-.036 2.273.275 3.468.882l2.575 1.31.068.036c1.26.66 2.26 1.758 2.923 3.226.567 1.258.886 2.797.886 4.556v121.8c0 2.937-.885 6.104-2.308 8.84-1.45 2.785-3.505 5.19-5.81 6.53l-96.826 56.31c-1.11.645-2.217 1.01-3.28 1.118a5.992 5.992 0 0 1-3.182-.52c-.12-.05-.237-.11-.348-.177-.503-.258-.653-.333-.785-.4-3.852-1.934-5.934-2.978-5.934-8.865v-121.8c0-2.937.883-6.105 2.307-8.84 1.45-2.786 3.504-5.19 5.814-6.53zm99.198-52.21L66.7 61.57c-1.505.873-2.918 2.58-3.98 4.62-1.09 2.097-1.768 4.483-1.768 6.653V194.64c0 2.98 1.157 3.562 3.3 4.638l.963.484.03.015c.204.104.456.145.745.116.39-.04.85-.205 1.37-.506l96.825-56.31c1.503-.874 2.916-2.58 3.977-4.62 1.09-2.098 1.77-4.482 1.77-6.653V10.01c0-1.08-.165-1.957-.46-2.608-.22-.49-.495-.824-.802-.98h.002l-2.576-1.31c-.504-.255-.89-.39-1.205-.38-.33.01-.762.18-1.365.532z"/><path fill-rule="evenodd" clip-rule="evenodd" fill="#EAF2F7" d="M65.512 59.523l96.824-56.31c1.9-1.105 3.127-1.078 4.826-.215l2.575 1.31-.057-.028-.058-.027-.057-.025-.008-.004-.098-.04-.024-.01c-.033-.014-.07-.027-.105-.04l-.06-.02-.06-.02-.06-.02-.013-.003-.074-.02-.06-.015-.093-.022h-.004l-.06-.012h-.002l-.058-.01-.083-.015-.065-.01-.095-.012-.05-.005-.1-.01-.04-.002-.107-.005H168.038l-.116.003h-.03l-.123.01-.036.005c-.048.003-.097.01-.145.015h-.003a3.603 3.603 0 0 0-.155.023l-.015.002-.14.024-.028.01c-.05.01-.1.02-.15.032h-.01l-.154.042h-.01c-.443.123-.903.31-1.376.568v.002c-.06.03-.12.065-.178.1l-96.825 56.31c-3.814 2.218-6.932 8.216-6.932 13.32V196.4l.002.032v.03l.004.168.005.068.01.19v.02l.016.197v.014l.006.034.012.146.004.038.003.02.02.19.003.013.026.194.005.026.03.19v.007l.03.172.004.024v.008l.003.01.035.17.005.022c.014.058.025.115.04.172l.006.026.043.157.01.045.046.158v.004l.05.157.01.03.053.153.01.025c.018.05.035.1.055.146l.014.035c.018.045.035.09.055.136l.003.01.008.015c.02.048.04.095.063.142l.004.006.004.01c.02.046.044.09.063.133l.015.028.06.116.025.05.06.107.01.016.01.016.066.11.01.016v.002l.007.01.062.097.03.045.07.102.02.03c.025.032.05.066.074.1l.026.032.074.093.007.007.004.004.014.016.07.083.025.03.08.085.034.035.007.007.062.06.005.007.04.037.08.075.01.007.016.014.075.063.036.03.08.063.04.03.084.062.04.026.087.06.04.024.06.037.07.04.065.036.044.023h.003-.003c-3.613-1.865-5.582-2.35-5.582-7.24V72.845c0-5.108 3.118-11.105 6.932-13.323zM169.44 4.173l-.106-.04.105.04z"/><path fill-rule="evenodd" clip-rule="evenodd" fill="#2EBCE3" d="M65.364 59.267l96.824-56.31c.994-.577 1.82-.86 2.63-.885.81-.025 1.585.21 2.478.663l2.576 1.308.262.134-.134.262-.13.263-.264-.13-.054-.027-.057-.026-.037-.017-.006-.003-.007-.004-.092-.038-.022-.01-.09-.033-.06-.02-.056-.02-.045-.015v.002l-.013-.004-.005-.002-.068-.02-.055-.015v.003l-.093-.02-.06-.014-.012-.003-.04-.008-.076-.014-.058-.008-.095-.012v.002l-.038-.005v.002l-.104-.01-.034-.002-.1-.005h-.037l-.105-.002h-.043l-.11.004h-.024l-.122.01h-.022v.002l-.145.016-.07.01-.067.01-.017.003-.13.024-.025.006-.148.03h-.004l-.004.002-.15.037a5.7 5.7 0 0 0-.65.22 6.6 6.6 0 0 0-.654.315l-.01.006-.085.048-.09.05L68.7 61.326c-1.858 1.08-3.55 3.09-4.78 5.458-1.238 2.373-2.005 5.104-2.005 7.608V196.19h-.003l.002.205v.055l.007.167v.063l.01.187v.02l.016.196.002.02v.002l.003.02.014.147v.002l.004.038v.01l.023.19v.002l.003.015.023.184.004.026.027.18v.007l.003.002.03.17.005.027v.01l.035.167.006.022.037.164.006.024.037.153.014.044.044.154.025.082.022.072.007.024.053.153h-.002l.01.02.05.142h.002l.014.036.053.13v.005l.005.01h-.002l.003.005h.003l.06.142.002.003.002.006.063.132.01.02.06.115.024.05.06.104.003.008.01.014.066.11.002.007h.002v.002l.007.01v.003l.063.097.022.037v-.003l.072.103.014.02.077.102.023.03.066.084.007.006.014.016.07.08.02.022.08.086.025.027.006.007.062.06.006.007h-.003l.03.028h.002l.074.07.01.006.014.016.068.058.035.03.073.057.032.023.085.06v.003l.028.02.082.056.038.024.055.033.062.035.066.036.04.02.014.01-.15.55-.136-.032c-.38-.196-.68-.347-.963-.49-3.103-1.558-4.78-2.4-4.78-7.015v-121.8c0-2.604.794-5.43 2.07-7.884 1.28-2.46 3.054-4.56 5.01-5.696zm97.12-55.798L65.662 59.78c-1.855 1.078-3.548 3.088-4.78 5.455-1.236 2.375-2.004 5.104-2.004 7.61v121.797c0 3.798 1.247 4.83 3.57 6.04l-.004-.005-.06-.094-.005-.007-.003-.002-.008-.012-.01-.015v-.002l-.067-.113v-.002l-.01-.017v-.002l-.01-.013-.002-.005-.06-.106-.003-.004-.025-.048-.002-.005-.06-.118-.002-.002-.014-.028-.002-.004-.062-.13-.002-.007-.006-.012-.004-.006-.063-.144-.006-.015-.006-.01-.003-.005-.06-.142-.012-.036v-.005l-.056-.146-.003-.008-.01-.026-.053-.153-.002-.008-.01-.027-.024-.077v-.004l-.025-.08-.002-.007v-.003l-.046-.16v-.003l-.015-.044v-.004l-.038-.157-.002-.003-.006-.025v-.006l-.04-.173-.003-.006-.003-.02v-.003l-.034-.167v-.007l-.007-.022-.005-.026-.03-.168-.002-.005v-.01l-.03-.19-.002-.007V197.794l-.03-.193v-.006l-.002-.013-.02-.19v-.004l-.002-.02-.005-.04h.003l-.014-.145-.005-.035v-.02h-.002v-.023l-.014-.18v-.027l-.01-.19v-.004l-.004-.066-.006-.168v-.07l-.002-.205V74.397c0-2.603.792-5.427 2.068-7.883 1.28-2.46 3.055-4.558 5.01-5.695l96.826-56.31.088-.052.006-.002.088-.05h.003c.245-.134.487-.25.724-.348.246-.1.486-.185.72-.247h.01l.002-.003.154-.04h.005l.01-.003h.01l.146-.032h.006l.032-.006h.004l.137-.025.002-.002.017-.002h.005l.075-.013h.007l.074-.01.003-.002h.01l.144-.015h.006l.034-.004h.005l.034-.003-.754-.383c-.807-.41-1.496-.62-2.197-.6-.7.023-1.438.28-2.345.806zm5.067.796zM63.237 200.756zm-.002-.002l.002.002-.002-.002z"/><path fill-rule="evenodd" clip-rule="evenodd" fill="#FFF" d="M68.547 61.073l96.825-56.31c3.813-2.22 6.933.14 6.933 5.246v121.796c0 5.106-3.12 11.104-6.933 13.322l-96.825 56.308c-3.814 2.22-6.932-.14-6.932-5.247V74.395c0-5.106 3.118-11.104 6.932-13.322z"/><path fill-rule="evenodd" clip-rule="evenodd" fill="#2EBCE3" d="M68.325 60.688L165.15 4.38c1.044-.607 2.05-.896 2.968-.896.765 0 1.47.2 2.09.578.613.374 1.138.924 1.547 1.63.63 1.087.995 2.55.995 4.317v121.796c0 2.626-.8 5.477-2.09 7.95-1.29 2.485-3.083 4.605-5.065 5.756l-96.825 56.31c-1.045.606-2.05.895-2.97.895-.765 0-1.47-.2-2.09-.578-.612-.377-1.136-.926-1.545-1.63-.632-1.087-.995-2.55-.995-4.32V74.395c0-2.625.8-5.477 2.086-7.95 1.293-2.485 3.086-4.604 5.07-5.757zm97.27-55.54L68.77 61.456c-1.83 1.065-3.505 3.054-4.724 5.398-1.226 2.354-1.986 5.06-1.986 7.54V196.19c0 1.61.32 2.922.874 3.877.334.573.753 1.02 1.24 1.314a3.058 3.058 0 0 0 1.627.448c.77 0 1.624-.248 2.525-.773l96.825-56.31c1.83-1.062 3.502-3.053 4.723-5.396 1.225-2.356 1.986-5.06 1.986-7.54V10.01c0-1.607-.32-2.92-.875-3.874-.335-.575-.756-1.02-1.24-1.315a3.106 3.106 0 0 0-1.63-.444c-.765 0-1.62.248-2.522.773z"/><path fill-rule="evenodd" clip-rule="evenodd" fill="#EFF9FE" d="M127.995 48.704c-.208.1-.406.22-.61.33-5.32 2.827-11.227 4.708-17.077 6.25l5.625-6.23 11.527-2.344c1.6-.325 1.974 1.294.535 1.994z"/><path fill-rule="evenodd" clip-rule="evenodd" fill="#B3B4B4" d="M128.125 48.97c-.134.064-.25.13-.365.195a11.48 11.48 0 0 1-.238.13c-2.67 1.42-5.492 2.605-8.38 3.625-2.88 1.02-5.828 1.88-8.76 2.65a.293.293 0 0 1-.36-.21c-.027-.1 0-.2.064-.273l5.625-6.23a.297.297 0 0 1 .18-.096l11.51-2.34c.606-.12 1.074 0 1.38.247.175.142.295.322.358.524.062.197.068.415.016.633-.104.427-.438.86-1.03 1.146h.002zm-.654-.322c.137-.076.27-.15.397-.212.416-.2.647-.485.713-.754a.622.622 0 0 0-.01-.316.47.47 0 0 0-.162-.24c-.177-.147-.478-.21-.89-.128l-11.43 2.325-4.893 5.418c2.598-.7 5.2-1.475 7.75-2.377 2.86-1.012 5.652-2.184 8.3-3.59a9.54 9.54 0 0 0 .226-.124z"/><path fill-rule="evenodd" clip-rule="evenodd" fill="#ECF5FB" d="M102.607 75.132v-.002c2.503-2.577 4.69-5.21 6.56-7.894a56.383 56.383 0 0 0 3.248-5.212L116.75 66c1.723 1.576 1.836 4.096-1.08 5.762-3.962 2.267-11.342 3.292-13.063 3.37z"/><path fill-rule="evenodd" clip-rule="evenodd" fill="#B3B4B4" d="M102.396 74.924a67.39 67.39 0 0 0 3.497-3.886 59.497 59.497 0 0 0 4.77-6.607 49.62 49.62 0 0 0 1.492-2.55.295.295 0 0 1 .47-.063l4.323 3.966c.35.318.634.672.85 1.046.356.626.52 1.317.45 2.017-.075.696-.386 1.397-.974 2.04l-.002.002h.002c-.37.404-.854.785-1.46 1.13-1.55.89-3.606 1.585-5.653 2.11-3.246.84-6.473 1.25-7.54 1.3a.3.3 0 0 1-.31-.285c0-.085.03-.165.087-.22zm3.95-3.508a65.78 65.78 0 0 1-2.987 3.358c1.43-.146 4.03-.538 6.655-1.216 1.998-.515 4.006-1.193 5.508-2.052.55-.314.984-.658 1.315-1.02.498-.543.758-1.127.82-1.7.06-.572-.08-1.145-.376-1.665a3.802 3.802 0 0 0-.732-.902l-4.06-3.723c-.41.74-.854 1.49-1.326 2.25a61.08 61.08 0 0 1-4.818 6.672z"/><path fill-rule="evenodd" clip-rule="evenodd" fill="#ACDCF2" d="M69.486 117.952c.55-.345.996-.044.996.67 0 .714-.446 1.57-.996 1.914-.552.343-1 .043-1-.67 0-.714.448-1.57 1-1.914zm15.113-9.42c.55-.344.997-.044.997.67 0 .713-.447 1.57-1 1.914-.55.344-.997.044-.997-.67 0-.714.448-1.57 1-1.913zm-3.78 2.356c.55-.345 1-.044 1 .67 0 .714-.45 1.57-1 1.913s-.998.046-.998-.67c0-.71.447-1.57.998-1.91zm-3.78 2.354c.55-.344.998-.044.998.67 0 .713-.448 1.57-.998 1.914-.55.343-.998.043-.998-.67s.45-1.57.998-1.914zm-3.78 2.355c.554-.344 1-.044 1 .67s-.446 1.57-1 1.913c-.55.345-.995.044-.995-.67 0-.712.445-1.57.997-1.913z"/><path fill-rule="evenodd" clip-rule="evenodd" fill="#E6F3FA" d="M69.206 98.137c1.504-.357 8.556-3.037 11.266-6.53 2.22-2.858 3.28-6.73 3.205-11.075-2.43 1.833-5.067 3.576-8.934 4.794-.026 5.05-1.582 9.897-5.537 12.81z"/><path fill-rule="evenodd" clip-rule="evenodd" fill="#2EBCE3" d="M70.554 97.392a35.586 35.586 0 0 0 5.335-2.49c1.713-.994 3.342-2.182 4.346-3.476 1.074-1.383 1.873-3.012 2.396-4.82.49-1.69.738-3.537.75-5.486-1.076.797-2.212 1.575-3.49 2.297a26.03 26.03 0 0 1-4.857 2.127C75 88.17 74.55 90.74 73.567 93.01c-.71 1.647-1.7 3.137-3.014 4.383zm5.632-1.98c-2.867 1.66-5.97 2.788-6.912 3.013a.296.296 0 0 1-.245-.526c1.823-1.346 3.126-3.112 3.995-5.123.974-2.252 1.406-4.813 1.422-7.434a.292.292 0 0 1 .207-.3 25.624 25.624 0 0 0 4.95-2.14c1.425-.807 2.685-1.696 3.895-2.608a.294.294 0 0 1 .472.23c.038 2.227-.217 4.332-.772 6.244-.543 1.88-1.375 3.574-2.494 5.018-1.06 1.363-2.75 2.598-4.52 3.623z"/><path fill-rule="evenodd" clip-rule="evenodd" fill="#ACDCF2" d="M62.3 103.16a1.717 1.717 0 0 1-.685.142v-3.575a174.615 174.615 0 0 0 5.702-2.654c.135-.066.275-.113.417-.142a26.118 26.118 0 0 0 6.226-2.32 25.21 25.21 0 0 0 5.662-4.094c.094-.09.196-.167.303-.232l-.002-.002c1.76-1.047 3.51-2.14 5.24-3.272 1.67-1.094 3.27-2.192 4.782-3.288a97.877 97.877 0 0 0 6.138-4.82 77.89 77.89 0 0 0 5.3-4.96c.332-.34.77-.513 1.208-.517 1.057-.058 4.04-.445 7.08-1.23 1.88-.484 3.76-1.12 5.153-1.915.026-.016.054-.03.082-.045.376-.222.673-.46.896-.703a.797.797 0 0 1 .066-.065c.237-.282.362-.562.39-.822.03-.266-.044-.548-.198-.816-.118-.21-.273-.4-.454-.567l-.005-.003-.004.004-4.336-3.977a1.71 1.71 0 0 1-.298-2.157 35.127 35.127 0 0 0 1.875-4.005 22.93 22.93 0 0 0 1.115-3.687c.13-.633.596-1.11 1.172-1.29v-.002a79.245 79.245 0 0 0 5.885-2.054 52.786 52.786 0 0 0 1.533-.634l-6.12 1.245a1.71 1.71 0 0 1-1.704-.43 1.702 1.702 0 0 1-.5-1.155c-.22-1.993-.996-3.69-2.29-5.067-1.383-1.47-3.377-2.613-5.94-3.403-.4-.12-.72-.375-.93-.698l3.5-2.023c2.413.94 4.376 2.205 5.86 3.785a11.8 11.8 0 0 1 2.893 5.33l9.807-1.995h.007c1.06-.216 1.938.038 2.547.534a2.507 2.507 0 0 1 .85 2.584c-.193.804-.777 1.598-1.786 2.088a4.15 4.15 0 0 0-.285.154l-.268.15a59.263 59.263 0 0 1-5.92 2.71 84.09 84.09 0 0 1-5.197 1.852 28.074 28.074 0 0 1-1.047 3.24 37.592 37.592 0 0 1-1.483 3.303l3.372 3.093-.005.003c.463.425.84.89 1.12 1.38.502.878.732 1.86.626 2.865-.1.947-.495 1.885-1.24 2.737-.03.04-.06.08-.096.12a7.362 7.362 0 0 1-1.696 1.34 1.987 1.987 0 0 1-.097.062c-1.66.95-3.847 1.69-6.01 2.25-2.82.727-5.64 1.142-7.132 1.284a82.934 82.934 0 0 1-5.076 4.713A99.52 99.52 0 0 1 91.95 86.5a125.815 125.815 0 0 1-4.916 3.382 148.403 148.403 0 0 1-5.213 3.253 28.59 28.59 0 0 1-6.27 4.51 29.52 29.52 0 0 1-6.902 2.597c-.96.467-1.992.955-3.085 1.46-1.04.476-2.13.966-3.266 1.464z"/><path fill-rule="evenodd" clip-rule="evenodd" fill="#EFF9FE" d="M92.484 102.363l-.09.487-.575 3.93c-.295 1.595-.076 2.153-1.905 3.3l-25.353 15.886c-.84.526-1.885.857-2.947.99v-17.76l19.78-11.51.1-.058.1-.055.104-.054.103-.054.105-.05.104-.05.11-.047.108-.046.11-.045.112-.044.113-.04.113-.04.115-.038.115-.037.12-.032.117-.032.118-.03.118-.03.12-.028.12-.027.12-.024.12-.022.123-.02.122-.02.12-.02.123-.017.123-.016.12-.013.124-.012.123-.01.12-.007.122-.007.12-.003.12-.004h.363l.12.006.118.004.12.008.117.01.118.012.116.013.115.014.116.017.11.02.115.02.11.02.11.025.11.024.106.026.106.03.104.03.102.032.103.034.1.036.1.038.1.04.096.043.094.043.09.047.09.047.087.05.086.05 2.94 1.83c.913.57 1.19 1.056 1.214 1.642.03.243.008.493-.068.742-.043.23-.093.478-.144.75z"/><path fill-rule="evenodd" clip-rule="evenodd" fill="#ACDCF2" d="M93.976 103.848l-.464 3.176c-.006.047-.016.095-.025.14-.023.134-.055.345-.084.535-.244 1.63-.364 2.435-2.584 3.824L65.463 127.41a8.045 8.045 0 0 1-1.72.808c-.63.21-1.28.355-1.922.437-.07.008-.14.013-.208.013v-21.45l18.922-11.012.064-.035.052-.026c.027-.017.055-.03.082-.046l.045-.024.072-.038.055-.03.052-.024.08-.04.025-.012v-.002l.105-.05.028-.013.105-.05.023-.01-.002-.003.107-.048.09-.035.055-.023.08-.03.053-.02.03-.014.114-.043.015-.005v-.002l.112-.042c.05-.02.103-.034.156-.05l.018-.003v-.004l.113-.037.02-.007.117-.038.02-.005.117-.035c.027-.01.055-.016.08-.022l.063-.018.072-.02.074-.018.02-.006.12-.03.023-.007.12-.026a1.42 1.42 0 0 1 .142-.027l.02-.004v-.003l.12-.025.026-.006v-.003l.12-.022.028-.005v-.002l.12-.02.123-.02.02-.002.028-.004v-.002l.12-.02c.04-.006.077-.01.114-.013l.03-.004.027-.003-.003-.004.123-.015c.033-.002.066-.005.1-.006l.047-.003.1-.007.043-.004.027-.003v-.005l.12-.01.1-.005.05-.002c1.37-.056 2.682.077 3.93.63.04.018.076.035.112.055l.02.01.06.03.07.036.028.013.09.047.107.06.025.017.038.02.087.05c.022.014.046.028.065.043l2.895 1.8c.662.414 1.118.83 1.436 1.283.03.042.06.086.086.13.308.48.45.96.488 1.473h.002c.028.227.03.47.005.733-.02.196-.05.39-.1.575l-.033.186-.002.003v.005l-.288 1.686zm-5.018-8.17l.02.01-.02-.01z"/><path fill-rule="evenodd" clip-rule="evenodd" fill="#ECF5FB" d="M61.616 101.593c10.645-4.66 21.13-10.545 29.332-16.488 7.81-5.658 13.86-11.616 18.218-17.868 6.644-9.53 8.286-17.07 5.6-22.15l-53.14 28.767c-.007.182-.01.362-.01.54v27.2z"/><path fill-rule="evenodd" clip-rule="evenodd" fill="#B3B4B4" d="M61.912 101.14a176.705 176.705 0 0 0 15.17-7.584c4.954-2.786 9.608-5.73 13.69-8.69 3.897-2.823 7.35-5.717 10.373-8.683 3.02-2.965 5.61-6.005 7.777-9.116 3.248-4.66 5.29-8.833 6.21-12.467.905-3.586.715-6.64-.495-9.11l-52.72 28.545-.003.1v.003l-.003.258v26.744h.003zm15.458-7.068a177.01 177.01 0 0 1-15.61 7.78.298.298 0 0 1-.44-.26v-27.2l.002-.27v-.007l.008-.254a.303.303 0 0 1 .158-.27l53.136-28.77h.002a.297.297 0 0 1 .4.124c1.398 2.646 1.656 5.933.682 9.794-.937 3.706-3.01 7.945-6.3 12.664-2.185 3.14-4.8 6.206-7.85 9.2-3.046 2.988-6.522 5.903-10.437 8.738-4.1 2.973-8.772 5.932-13.75 8.73z"/><path fill-rule="evenodd" clip-rule="evenodd" fill="#F7FCFE" d="M61.616 101.593c10.645-4.66 21.13-10.545 29.332-16.488 7.81-5.658 13.86-11.616 18.218-17.868 10.302-14.78 8.58-24.77-2.672-28.23L68.548 61.072c-3.813 2.218-6.933 8.216-6.933 13.32v27.2z"/><path fill-rule="evenodd" clip-rule="evenodd" fill="#ACDCF2" d="M61.912 101.14a176.705 176.705 0 0 0 15.17-7.584c4.954-2.786 9.608-5.73 13.69-8.69 3.897-2.822 7.35-5.717 10.373-8.683 3.02-2.965 5.61-6.005 7.777-9.116 2.914-4.18 4.86-7.97 5.89-11.328.99-3.218 1.142-6.036.507-8.423-.63-2.368-2.043-4.315-4.183-5.808-1.28-.893-2.82-1.623-4.607-2.184l-37.833 22c-1.855 1.08-3.55 3.09-4.78 5.46-1.236 2.372-2.005 5.103-2.005 7.607v26.746zm15.458-7.068a177.01 177.01 0 0 1-15.61 7.78.298.298 0 0 1-.44-.26V74.393c0-2.603.79-5.428 2.07-7.883 1.28-2.46 3.052-4.558 5.01-5.695l37.944-22.066a.294.294 0 0 1 .233-.025c1.904.586 3.54 1.354 4.897 2.3 2.258 1.575 3.748 3.636 4.415 6.145.662 2.49.51 5.418-.513 8.745-1.053 3.42-3.02 7.264-5.97 11.492-2.187 3.14-4.803 6.207-7.85 9.2-3.048 2.988-6.524 5.903-10.44 8.738-4.097 2.97-8.77 5.93-13.748 8.727z"/><path fill-rule="evenodd" clip-rule="evenodd" fill="#F7FCFE" d="M61.616 101.593c10.645-4.66 21.13-10.545 29.332-16.488 7.81-5.658 13.86-11.616 18.218-17.868 3.537-5.074 5.653-9.582 6.457-13.457-7.487 12.576-19.378 20.904-31.677 28.33a149.49 149.49 0 0 1-9.6 5.402 174.454 174.454 0 0 1-12.73 6.014v8.067z"/><path fill-rule="evenodd" clip-rule="evenodd" fill="#ACDCF2" d="M61.912 101.14a176.705 176.705 0 0 0 15.17-7.584c4.954-2.786 9.608-5.73 13.69-8.69 3.897-2.822 7.35-5.717 10.373-8.683 3.02-2.965 5.61-6.005 7.777-9.116 1.742-2.5 3.137-4.855 4.195-7.062.746-1.556 1.326-3.038 1.747-4.442-3.606 5.6-8.095 10.34-13.085 14.54-5.467 4.598-11.525 8.544-17.684 12.26l-.007.004a150.985 150.985 0 0 1-9.61 5.41l-.02.01a174.936 174.936 0 0 1-12.55 5.935v7.418zm15.458-7.068a177.01 177.01 0 0 1-15.61 7.78.298.298 0 0 1-.44-.26v-8.07c0-.114.066-.225.182-.27A176.36 176.36 0 0 0 74.19 87.26l.02-.013a149.05 149.05 0 0 0 9.567-5.384l.014-.01c6.143-3.707 12.18-7.64 17.607-12.205 5.418-4.56 10.237-9.758 13.96-16.007a.295.295 0 0 1 .553.196c-.41 1.98-1.16 4.125-2.26 6.42-1.077 2.24-2.485 4.627-4.243 7.146-2.186 3.14-4.802 6.207-7.85 9.2-3.047 2.988-6.523 5.903-10.438 8.738-4.1 2.972-8.774 5.93-13.75 8.73zM61.773 74.02a.295.295 0 0 1-.4-.12.294.294 0 0 1 .12-.4l8.206-4.447a.295.295 0 1 1 .28.52L61.77 74.02zm17.46-9.46a.294.294 0 0 1-.4-.12.298.298 0 0 1 .12-.402l35.624-19.3a.297.297 0 0 1 .402.12.298.298 0 0 1-.123.4l-35.625 19.3zM103.066 41.312c-.163.02-.31-.1-.327-.26s.096-.31.26-.33a53.17 53.17 0 0 1 3.893-.316 39.254 39.254 0 0 1 3.55.002c.162.007.29.146.28.308a.292.292 0 0 1-.31.28 39.973 39.973 0 0 0-3.497 0 52.67 52.67 0 0 0-3.85.316z"/><path fill-rule="evenodd" clip-rule="evenodd" fill="#F7FCFE" d="M127.995 48.704c-.208.1-.406.22-.61.33-5.32 2.827-11.227 4.708-17.077 6.25l5.625-6.23 11.527-2.344c1.6-.325 1.974 1.294.535 1.994z"/><path fill-rule="evenodd" clip-rule="evenodd" fill="#ACDCF2" d="M128.125 48.97c-.134.063-.247.128-.362.193-.083.047-.167.094-.24.133-2.67 1.42-5.492 2.604-8.38 3.624-2.88 1.02-5.828 1.88-8.76 2.65a.296.296 0 0 1-.296-.483l5.627-6.23a.28.28 0 0 1 .174-.095L127.4 46.42c.605-.122 1.075-.002 1.38.248.174.14.294.32.357.522.062.196.066.414.016.63v.002c-.104.427-.438.86-1.03 1.146l.002.002zm-.65-.324c.135-.073.27-.15.39-.21h.002c.415-.2.646-.484.712-.752a.626.626 0 0 0-.01-.317.478.478 0 0 0-.163-.24c-.177-.145-.478-.21-.89-.128l-11.43 2.323-4.893 5.418c2.598-.7 5.2-1.476 7.75-2.38 2.86-1.01 5.652-2.182 8.3-3.59.084-.043.158-.084.23-.125v.002-.002z"/><path fill-rule="evenodd" clip-rule="evenodd" fill="#F7FCFE" d="M102.607 75.132v-.002c2.503-2.577 4.69-5.21 6.56-7.894a56.258 56.258 0 0 0 3.248-5.213L116.75 66c1.723 1.576 1.836 4.096-1.08 5.762-3.962 2.267-11.342 3.292-13.063 3.37z"/><path fill-rule="evenodd" clip-rule="evenodd" fill="#ACDCF2" d="M102.396 74.924a67.376 67.376 0 0 0 3.497-3.885 58.92 58.92 0 0 0 3.03-3.975l.013-.016a64.487 64.487 0 0 0 1.727-2.616 51.377 51.377 0 0 0 1.493-2.555.295.295 0 0 1 .4-.117c.02.012.04.025.06.04l4.336 3.978.016.017c.34.314.62.662.832 1.032.356.624.52 1.316.45 2.017-.075.694-.385 1.395-.974 2.04a6.09 6.09 0 0 1-1.46 1.132c-1.55.887-3.608 1.583-5.653 2.11-3.25.84-6.475 1.247-7.543 1.297a.303.303 0 0 1-.31-.284.302.302 0 0 1 .086-.22zm3.95-3.506a68.064 68.064 0 0 1-2.987 3.356c1.43-.146 4.03-.538 6.655-1.216 1.998-.515 4.005-1.194 5.508-2.053h.002c.55-.314.984-.658 1.313-1.018.498-.544.758-1.127.82-1.702.06-.57-.078-1.143-.376-1.664a3.82 3.82 0 0 0-.714-.885l-.02-.018-4.06-3.723c-.41.742-.853 1.492-1.327 2.252a60.946 60.946 0 0 1-1.743 2.642l-.013.017a58.624 58.624 0 0 1-3.06 4.014z"/><path fill-rule="evenodd" clip-rule="evenodd" fill="#F7FCFE" d="M88.63 100.467l.356.322 3.564.275-.806 5.52c-.294 1.594-.075 2.15-1.904 3.297L64.487 125.77c-.82.514-1.836.84-2.873.978v-14.434l19.87-11.56c2.104-1.223 5.577-1.707 7.147-.287z"/><path fill-rule="evenodd" clip-rule="evenodd" fill="#ACDCF2" d="M88.83 100.248l.28.253 3.464.273.315.024-.046.312-.807 5.52-.003.01c-.04.22-.076.45-.106.657-.18 1.2-.27 1.796-1.934 2.838l-25.35 15.885a6.6 6.6 0 0 1-1.387.65 8.33 8.33 0 0 1-1.604.37l-.336.046v-14.942l.148-.087 19.87-11.56c1.157-.672 2.717-1.13 4.165-1.187 1.305-.053 2.53.216 3.327.936v.002h.003zm-.04.76l-.355-.32c-.673-.608-1.748-.833-2.908-.786-1.354.054-2.81.48-3.893 1.11l-19.722 11.472v13.92c.396-.07.784-.166 1.157-.293a6.09 6.09 0 0 0 1.26-.59l25.354-15.886c1.432-.897 1.508-1.4 1.66-2.422.03-.19.06-.404.107-.667l.76-5.205-3.245-.254-.176-.076z"/><path fill-rule="evenodd" clip-rule="evenodd" fill="#F7FCFE" d="M88.468 97.2l2.938 1.83c1.8 1.12 1.61 2.95-.493 4.172l-27.67 16.103a7.324 7.324 0 0 1-1.628.685v-11.032L81.32 97.49c2.104-1.224 5.35-1.408 7.148-.29z"/><path fill-rule="evenodd" clip-rule="evenodd" fill="#ACDCF2" d="M88.625 96.95l2.938 1.83c.492.305.85.665 1.076 1.054.206.354.3.736.287 1.122a2.31 2.31 0 0 1-.365 1.137c-.31.494-.81.964-1.502 1.366l-27.67 16.1a7.04 7.04 0 0 1-.802.398c-.28.118-.58.223-.89.312l-.38.108v-11.594l.148-.086L81.173 97.23c1.104-.643 2.51-1.01 3.867-1.063 1.34-.054 2.644.195 3.585.78zm2.625 2.332l-2.938-1.83c-.837-.52-2.02-.74-3.247-.69-1.266.05-2.572.39-3.595.984l-19.56 11.38v10.458a6.465 6.465 0 0 0 1.184-.535l27.67-16.104c.604-.352 1.037-.753 1.294-1.165.174-.28.27-.567.278-.845.01-.273-.06-.547-.208-.806-.177-.307-.47-.596-.878-.85z"/><path fill-rule="evenodd" clip-rule="evenodd" fill="#ACDCF2" d="M85.693 100.546a.3.3 0 0 1-.322.268.3.3 0 0 1-.265-.323l1.06-11.23a.295.295 0 0 1 .59.055l-1.06 11.23zM69.486 117.952c.55-.344.996-.044.996.67 0 .714-.446 1.57-.996 1.913-.552.344-1 .044-1-.67 0-.715.448-1.57 1-1.913zm15.113-9.42c.55-.344.997-.044.997.67 0 .713-.447 1.57-1 1.914-.55.344-.997.044-.997-.67 0-.714.448-1.57 1-1.913zm-3.78 2.356c.55-.345 1-.044 1 .67 0 .714-.45 1.57-1 1.913s-.998.046-.998-.67c0-.713.447-1.57.998-1.91zm-3.78 2.354c.55-.344.998-.044.998.67 0 .713-.448 1.57-.998 1.913-.55.344-.998.044-.998-.67 0-.713.45-1.57.998-1.913zm-3.78 2.355c.554-.344 1-.044 1 .67s-.446 1.57-1 1.914-.995.045-.995-.67c0-.71.445-1.57.997-1.912zM99.24 78.73a.298.298 0 0 1-.417-.047.296.296 0 0 1 .048-.415c3.073-2.442 4.554-6.528 4.44-11.223-.11-4.706-1.823-10.015-5.13-14.897a33.765 33.765 0 0 0-2.21-2.9 31.08 31.08 0 0 0-2.48-2.58.294.294 0 1 1 .4-.432c.874.81 1.72 1.688 2.525 2.63.785.92 1.54 1.904 2.25 2.953 3.374 4.976 5.12 10.4 5.234 15.213.115 4.877-1.438 9.138-4.66 11.698z"/><path fill-rule="evenodd" clip-rule="evenodd" fill="#F7FCFE" d="M67.653 98.812c3.158-.48 10.414-3.61 13.124-7.103 5.1-6.568 4.038-19.07-2.754-29.09a35.275 35.275 0 0 0-3.897-4.79L68.55 61.07c-1.017.59-1.98 1.448-2.855 2.485a37.625 37.625 0 0 1 2.835 3.68c7.8 11.504 7.998 25.62.082 30.988a12.19 12.19 0 0 1-.96.586z"/><path fill-rule="evenodd" clip-rule="evenodd" fill="#ACDCF2" d="M69.245 98.138c1.69-.493 3.848-1.37 5.89-2.473 2.19-1.187 4.24-2.63 5.41-4.138l.01-.014c2.51-3.24 3.49-7.96 3.003-13.11-.485-5.13-2.43-10.677-5.78-15.617a34.783 34.783 0 0 0-3.702-4.584l-5.378 3.126a9.26 9.26 0 0 0-1.414 1.026l-.02.016c-.405.355-.8.754-1.178 1.188a38.564 38.564 0 0 1 2.692 3.513c3.95 5.832 5.968 12.335 5.982 18.05.014 5.475-1.804 10.235-5.515 13.02zm6.17-1.952c-2.844 1.54-5.926 2.647-7.718 2.918a.3.3 0 0 1-.304-.15.292.292 0 0 1 .118-.4c.16-.088.32-.18.475-.274.157-.095.312-.193.464-.297 3.85-2.61 5.735-7.355 5.722-12.86-.014-5.605-1.997-11.986-5.882-17.718a37.684 37.684 0 0 0-2.797-3.634.293.293 0 0 1-.02-.4 13.35 13.35 0 0 1 1.404-1.442l.02-.02a9.91 9.91 0 0 1 1.506-1.09l5.577-3.242a.295.295 0 0 1 .36.05 34.924 34.924 0 0 1 2.068 2.328c.647.796 1.27 1.632 1.862 2.504 3.406 5.024 5.383 10.67 5.877 15.893.502 5.297-.52 10.166-3.12 13.525l-.014.02c-1.22 1.573-3.34 3.07-5.595 4.292z"/><path fill-rule="evenodd" clip-rule="evenodd" fill="#2EBCE3" d="M68.4 60.816l96.824-56.31c1.02-.593 2-.874 2.894-.874.738 0 1.418.19 2.013.557.595.36 1.1.89 1.497 1.574.62 1.064.977 2.504.977 4.244v121.797c0 2.603-.793 5.428-2.07 7.884-1.28 2.46-3.055 4.56-5.012 5.695L68.7 201.693c-1.02.594-2 .876-2.896.876a3.82 3.82 0 0 1-2.014-.557c-.592-.363-1.098-.896-1.493-1.577-.622-1.066-.976-2.503-.976-4.246V74.396c0-2.603.793-5.428 2.07-7.883 1.28-2.46 3.054-4.558 5.01-5.696zM165.52 5.02L68.696 61.328c-1.857 1.08-3.55 3.09-4.78 5.458-1.237 2.373-2.004 5.104-2.004 7.608V196.19c0 1.637.326 2.974.894 3.95.347.597.785 1.058 1.29 1.368a3.237 3.237 0 0 0 1.706.468c.792 0 1.672-.256 2.598-.793l96.825-56.31c1.854-1.078 3.548-3.09 4.78-5.457 1.236-2.375 2.004-5.103 2.004-7.61V10.01c0-1.634-.33-2.972-.897-3.948-.347-.597-.783-1.06-1.29-1.367a3.216 3.216 0 0 0-1.706-.468c-.793 0-1.672.253-2.598.793z"/><path fill-rule="evenodd" clip-rule="evenodd" fill="#B3B4B4" d="M140.403 97.784l-29.84 17.228.002.005c-3.983 2.3-5.22 4.383-6.703 6.88-.312.527-.634 1.07-1.074 1.767-.102.162-.22.307-.353.437-3.15 3.08-7.97 8.074-11.365 13.12-3.022 4.49-4.93 8.912-3.163 11.47 1.383 2.007 5.36 2 10.076 1.057 8.492-1.697 18.75-6.513 23.076-9.01l-.005-.004 20.075-11.59c3.85-2.224 7.98-3.798 12.278-4.913 3.547-.92 7.18-1.524 10.84-1.92V74.48l-12.18-5.128c-3.053.82-5.318 2.286-6.89 4.115-1.924 2.234-2.856 5.047-2.964 7.912l-.535 14.385a2.362 2.362 0 0 1-1.278 2.018zm26.703-27.23c.248.045.484.13.7.243l3.986 1.68a22.662 22.662 0 0 1 4.54-6.995c2.344-2.464 5.322-4.517 9.04-6.294l.054-.088c.202-.34.35-.584.43-.723l12.088-20.633c.516-.877 1.482-2.336 2.722-3.865.897-1.11 1.94-2.266 3.065-3.29 2.395-2.175 5.947-4.395 8.49-5.255.984-.334 1.907-.496 2.696-.44 1.488.108 2.556.81 3.028 2.243.25.757.236 1.658-.098 2.713l-9.064 28.44-.024.074.007.002c-.37 1.044-.865 2.72-1.32 4.842a54.38 54.38 0 0 0-.618 3.363c2.488.898 4.616 2.774 6.048 5.023a13.23 13.23 0 0 1 1.56 3.425c.352 1.23.5 2.495.408 3.723-.19 2.514-1.353 4.82-3.8 6.378-.797.51-1.566.975-2.302 1.393l-.476.27a25.285 25.285 0 0 0 2.75 5.39 23.253 23.253 0 0 0 5.285 5.534c.04.03.077.06.112.092l21.43 15.615a2.412 2.412 0 0 1 .24 3.695l.003.004c-4.07 3.86-9.017 6.18-14.35 7.53-5.188 1.31-10.716 1.7-16.13 1.7H185.03c-3.2 0-6.438 0-9.084.06-2.95.064-5.973.2-9.076.466-.158.013-.313.01-.464-.006-4.05.367-8.024.967-11.808 1.948-3.896 1.01-7.63 2.432-11.092 4.43l-20.075 11.59-.002-.004-.006.005c-4.59 2.646-15.486 7.766-24.51 9.57-6.468 1.29-12.196.9-14.9-3.023-3.167-4.59-.886-10.832 3.128-16.793 3.564-5.296 8.492-10.438 11.79-13.676.27-.44.567-.937.854-1.422 1.83-3.083 3.354-5.65 8.407-8.57l.003.005.007-.004L137 94.29l.487-13.076c.145-3.888 1.433-7.73 4.092-10.823 2.324-2.702 5.664-4.807 10.16-5.83v.004c.464-.105.965-.07 1.435.128l13.93 5.863zm1.984 6.016v45.28c2.21-.14 4.475-.222 6.758-.273 3.5-.076 6.377-.08 9.18-.08h22.576c5.083 0 10.23-.353 14.955-1.55 3.615-.914 7-2.326 9.937-4.463L213.57 101.69a2.56 2.56 0 0 1-.186-.128 27.955 27.955 0 0 1-6.363-6.686c-1.83-2.698-3.12-5.6-4-8.558a2.415 2.415 0 0 1 1.22-2.87 45.67 45.67 0 0 0 2.116-1.135c.736-.42 1.434-.84 2.094-1.26 1.005-.642 1.487-1.61 1.566-2.67.048-.647-.037-1.343-.236-2.04a8.33 8.33 0 0 0-.975-2.16c-1.142-1.79-2.917-3.186-4.843-3.33v-.002l-.086-.007a2.417 2.417 0 0 1-2.137-2.667c.244-2.2.595-4.222.97-5.97.508-2.358 1.07-4.253 1.49-5.445h.007l8.408-26.38c-1.83.854-4.026 2.323-5.635 3.784a25.072 25.072 0 0 0-2.572 2.758c-1.072 1.326-1.884 2.544-2.306 3.262l-12.088 20.633c-.213.36-.36.61-.45.76l-.446.742h-.002a2.417 2.417 0 0 1-1.057.936c-3.466 1.587-6.175 3.396-8.23 5.557-1.997 2.102-3.4 4.584-4.306 7.58l-.01-.005a2.408 2.408 0 0 1-3.24 1.525l-3.184-1.34z"/><path fill-rule="evenodd" clip-rule="evenodd" fill="#FFF" d="M169.34 78.348l-59.96 34.62c-5.41 3.122-6.323 5.84-8.595 9.435-6.447 6.305-19.76 20.48-14.826 27.63 5.245 7.607 28.98-3.038 36.28-7.254l20.075-11.59c12.508-7.224 28.27-7.273 42.71-7.273h22.577c10.496 0 21.346-1.48 28.815-8.558L214.84 99.633c-16.105-12.138-10.432-36.214-8.356-42.068l9.063-28.44c1.325-4.157-6.168-.4-10.19 3.253-2.497 2.27-4.532 5.22-5.33 6.585l-12.09 20.632c-5.11 8.716-9.895 13.725-18.597 18.75z"/><path fill-rule="evenodd" clip-rule="evenodd" fill="#B3B4B4" d="M169.49 78.604l-59.962 34.62c-4.453 2.57-5.815 4.863-7.45 7.62-.323.542-.657 1.105-1.042 1.716a.332.332 0 0 1-.044.055l-.005.004c-3.215 3.14-8.137 8.243-11.637 13.444-3.455 5.133-5.527 10.352-3.147 13.802 1.96 2.843 6.704 3.01 12.187 1.913 8.725-1.744 19.266-6.695 23.705-9.26l.02-.01 20.057-11.58c6.293-3.633 13.398-5.462 20.74-6.38 7.326-.917 14.888-.93 22.117-.93h22.574c5.23 0 10.543-.37 15.47-1.615 4.798-1.215 9.236-3.264 12.882-6.618l-21.29-15.517h-.004c-6.103-4.6-9.11-10.89-10.38-17.267-2.103-10.602.618-21.454 1.923-25.138l.005-.01 9.058-28.42c.15-.473.176-.816.1-1.05-.08-.24-.31-.36-.642-.385-.42-.03-.983.08-1.634.302l-.01.004c-2.225.754-5.374 2.735-7.525 4.69a27.333 27.333 0 0 0-2.79 2.988c-1.143 1.414-2.023 2.738-2.484 3.527L188.19 59.747c-2.566 4.38-5.053 7.83-7.994 10.82-2.94 2.988-6.33 5.513-10.707 8.04zm-60.26 34.108l59.962-34.62h.002c4.325-2.497 7.676-4.99 10.58-7.94 2.904-2.952 5.365-6.367 7.906-10.704l12.09-20.632c.474-.808 1.37-2.162 2.537-3.602a28.056 28.056 0 0 1 2.852-3.055c2.197-2 5.434-4.034 7.73-4.814l.01-.005c.725-.243 1.365-.365 1.865-.33.586.04.996.29 1.162.79.114.348.092.813-.1 1.413L206.77 57.63l-.01.03c-1.287 3.64-3.976 14.36-1.896 24.83 1.243 6.25 4.186 12.41 10.153 16.906l21.56 15.71c.02.015.038.03.056.048a.296.296 0 0 1-.01.418c-3.775 3.578-8.402 5.74-13.405 7.007-4.986 1.26-10.346 1.633-15.614 1.633h-22.576c-7.212 0-14.756.013-22.045.925-7.275.91-14.307 2.718-20.518 6.305l-20.058 11.58-.017.008c-4.472 2.584-15.092 7.57-23.887 9.33-5.7 1.14-10.663.923-12.79-2.16-2.552-3.7-.435-9.147 3.145-14.466 3.522-5.234 8.462-10.357 11.694-13.52a73.47 73.47 0 0 0 1.014-1.673c1.68-2.826 3.078-5.182 7.665-7.83z"/><path fill-rule="evenodd" clip-rule="evenodd" fill="#F6F6F6" d="M103.618 117.887v.002a7.423 7.423 0 0 1-.325.45c-.874 1.265-1.577 2.59-2.507 4.06-.082 4.13 6.82 7.37 14.275 5.88 1.396-.28 2.17-.95 2.295-1.823.13-.93-.49-2.054-2.23-1.735-6.88 1.253-13.777-3.225-11.506-6.836z"/><path fill-rule="evenodd" clip-rule="evenodd" fill="#B3B4B4" d="M103.225 117.938c.05-.068.098-.14.145-.21a.295.295 0 1 1 .498.316c-.358.57-.46 1.162-.355 1.744.098.537.374 1.075.793 1.585.432.522 1.012 1.016 1.71 1.453 2.243 1.412 5.65 2.227 9.056 1.605.376-.065.706-.072.992-.033.47.066.827.258 1.087.517l.007.004c.26.265.416.597.48.94.037.215.042.433.012.642-.074.52-.34.977-.8 1.34-.42.333-.997.585-1.73.73a19.15 19.15 0 0 1-4.13.37c-2.68-.052-5.11-.68-6.95-1.676-1.88-1.017-3.154-2.425-3.472-4.012a4.093 4.093 0 0 1-.075-.848.3.3 0 0 1 .046-.16c.36-.572.7-1.147 1.03-1.7.482-.814.942-1.59 1.474-2.358l.02-.026c.06-.078.114-.153.163-.22h.002v-.002h-.004zm-.34 1.567c-.27.435-.535.882-.81 1.34-.31.522-.63 1.062-.996 1.646 0 .217.022.435.065.65.28 1.406 1.446 2.672 3.17 3.604 1.764.955 4.1 1.557 6.682 1.607a18.733 18.733 0 0 0 4.004-.36c.64-.126 1.134-.34 1.48-.613.333-.265.527-.592.578-.96.02-.148.02-.304-.007-.454a1.203 1.203 0 0 0-.317-.628h-.002l-.004-.007a1.306 1.306 0 0 0-.746-.345 2.59 2.59 0 0 0-.807.03c-3.558.648-7.123-.206-9.477-1.686-.75-.47-1.378-1.006-1.85-1.578-.48-.588-.802-1.215-.92-1.857a3.88 3.88 0 0 1-.043-.387z"/><path fill-rule="evenodd" clip-rule="evenodd" fill="#F6F6F6" d="M173.477 75.802l-21.218-8.934c-8.466 1.924-12.173 8.09-12.41 14.428l-.534 14.387 30.023-17.335a82.478 82.478 0 0 0 4.136-2.546z"/><path fill-rule="evenodd" clip-rule="evenodd" fill="#B3B4B4" d="M172.852 75.858l-20.618-8.68c-3.84.89-6.676 2.67-8.63 4.94-2.244 2.61-3.334 5.875-3.457 9.188l-.516 13.853 29.563-17.068.02-.01c.67-.39 1.358-.8 2.065-1.234.544-.334 1.07-.665 1.575-.992zm-20.477-9.26l21.218 8.933c.05.023.097.06.132.11a.3.3 0 0 1-.086.41 84.654 84.654 0 0 1-4.134 2.544l-.02.01-30.022 17.335a.312.312 0 0 1-.16.04.296.296 0 0 1-.283-.307l.536-14.386c.127-3.44 1.262-6.834 3.598-9.55 2.048-2.382 5.02-4.243 9.04-5.156a.28.28 0 0 1 .18.018z"/><ellipse transform="rotate(-45.01 88.372 148.58)" fill-rule="evenodd" clip-rule="evenodd" fill="#FFF" cx="88.375" cy="148.582" rx="2.713" ry="3.577"/><path fill-rule="evenodd" clip-rule="evenodd" fill="#B3B4B4" d="M90.084 146.873l-.013-.013c-.646-.644-1.43-1.03-2.166-1.13-.716-.1-1.39.07-1.85.53-.458.46-.63 1.134-.53 1.85.102.742.49 1.528 1.143 2.18.653.653 1.44 1.042 2.184 1.145.714.1 1.39-.07 1.848-.532.46-.46.63-1.134.533-1.85-.103-.74-.493-1.528-1.145-2.18zm.418-.42h.002c.744.745 1.19 1.655 1.31 2.522.124.895-.1 1.748-.698 2.346-.598.6-1.45.824-2.346.7-.866-.12-1.777-.564-2.52-1.31-.748-.746-1.193-1.656-1.313-2.523-.122-.893.1-1.747.7-2.345.598-.597 1.45-.82 2.346-.698.86.12 1.764.56 2.506 1.297l.01.015zM167.343 79.33c.142.08.19.262.11.403a.297.297 0 0 1-.404.108L147.89 68.78a.296.296 0 0 1-.11-.4.298.298 0 0 1 .405-.11l19.155 11.06zm66.202 38.222c.14.08.19.26.11.402a.296.296 0 0 1-.404.108l-30.263-17.473-.002-.003c-3.562-2.056-6.11-3.518-8.637-3.935-2.514-.417-5.052.19-8.634 2.258v.002l-40.646 23.468c-1.196.69-2.134.92-2.858.65-.74-.276-1.218-1.043-1.474-2.34l-.006-.036a21.045 21.045 0 0 0-2.668-8.21c-1.45-2.512-3.366-4.566-5.508-5.925-2.127-1.35-4.476-2.016-6.81-1.76a9.412 9.412 0 0 0-3.698 1.23c-.142.08-.322.033-.403-.11s-.032-.32.108-.4c1.283-.74 2.607-1.165 3.933-1.31 2.474-.27 4.952.428 7.19 1.847 2.22 1.41 4.203 3.534 5.7 6.13a21.667 21.667 0 0 1 2.747 8.438c.212 1.073.566 1.692 1.094 1.89.544.203 1.32-.01 2.356-.608L185.416 98.4h.003c3.713-2.145 6.366-2.77 9.02-2.332 2.635.436 5.223 1.92 8.84 4.01l30.264 17.474zm-92.81 3.115l-.004-.012.005.012z"/><path fill-rule="evenodd" clip-rule="evenodd" fill="#B3B4B4" d="M217.308 108.69c-.14.08-.32.03-.402-.11a.296.296 0 0 1 .11-.403l5.47-3.158a.295.295 0 0 1 .403.106c.08.142.03.322-.11.403l-5.473 3.16zM161.64 76.548a.297.297 0 0 1-.298-.512l5.547-3.202c.14-.08.32-.034.4.108a.293.293 0 0 1-.106.403l-5.546 3.203zM139.43 95.957a.295.295 0 0 1-.3-.51c1.996-1.183 4.312-1.316 6.625-.634 2.424.715 4.848 2.332 6.89 4.57 2.06 2.256 3.51 4.6 4.497 7.065.99 2.463 1.513 5.044 1.722 7.775a.3.3 0 0 1-.273.317.294.294 0 0 1-.315-.272c-.203-2.675-.717-5.2-1.678-7.6-.964-2.4-2.38-4.685-4.387-6.886-1.972-2.162-4.302-3.72-6.622-4.403-2.16-.638-4.312-.52-6.157.576z"/><path fill-rule="evenodd" clip-rule="evenodd" fill="#E94C6D" d="M145.235 112.312c1.02-.498 2.14.006 2.496 1.128.36 1.12-.18 2.435-1.2 2.934-1.02.498-2.14-.006-2.495-1.128-.358-1.12.18-2.434 1.2-2.934zm5.99-3.46c1.023-.5 2.14.006 2.497 1.126.356 1.122-.18 2.435-1.2 2.934-1.023.5-2.14-.006-2.496-1.127-.358-1.122.18-2.435 1.2-2.933z"/><path fill-rule="evenodd" clip-rule="evenodd" fill="#2EBCE3" d="M161.356 103.138c1.02-.5 2.14.005 2.496 1.126.357 1.12-.18 2.435-1.2 2.935-1.022.496-2.14-.008-2.497-1.13-.358-1.12.18-2.434 1.2-2.933zm5.706-3.272c1.02-.498 2.138.006 2.495 1.127.357 1.122-.182 2.436-1.202 2.934-1.02.5-2.138-.006-2.495-1.126-.358-1.12.18-2.434 1.202-2.933z"/><path fill-rule="evenodd" clip-rule="evenodd" fill="#98CA3C" d="M176.386 94.096c1.02-.498 2.14.006 2.495 1.127.36 1.12-.18 2.436-1.2 2.934-1.02.497-2.14-.006-2.493-1.128-.357-1.124.18-2.437 1.2-2.935zm5.18-3.032c1.02-.5 2.138.005 2.495 1.127.36 1.12-.18 2.437-1.2 2.936-1.02.498-2.14-.006-2.495-1.13-.358-1.12.18-2.432 1.202-2.93z"/><path fill-rule="evenodd" clip-rule="evenodd" fill="#F6F6F6" d="M173.12 76c1.99-6.89 6.323-11.448 13.94-14.938-4.007 6.54-7.962 10.913-13.94 14.938z"/><path fill-rule="evenodd" clip-rule="evenodd" fill="#B3B4B4" d="M172.836 75.916l.002-.004c1.008-3.486 2.61-6.387 4.927-8.86 2.31-2.464 5.328-4.497 9.17-6.26a.298.298 0 0 1 .393.146.297.297 0 0 1-.017.277c-2.01 3.286-4.012 6.032-6.262 8.46l-.015.013c-2.25 2.426-4.747 4.536-7.748 6.558a.297.297 0 0 1-.41-.08.31.31 0 0 1-.038-.25zm5.36-8.457c-2.07 2.207-3.557 4.774-4.545 7.816 2.66-1.85 4.91-3.79 6.95-5.99l.015-.015c2.025-2.187 3.85-4.634 5.664-7.516-3.346 1.63-6.01 3.492-8.084 5.704z"/><path fill-rule="evenodd" clip-rule="evenodd" fill="#FFF" d="M190.35 74.95a37.028 37.028 0 0 1 10.994-6.128c7.924-2.812 15.22 9.927 8.402 14.265-3.64 2.317-7.36 4.088-11.177 5.255-5.357 1.64-12.586 1.3-14.3-1.836-1.54-2.818 1.904-8.183 6.08-11.555z"/><path fill-rule="evenodd" clip-rule="evenodd" fill="#B3B4B4" d="M190.165 74.72c1.605-1.296 3.326-2.47 5.168-3.503s3.812-1.93 5.914-2.675c2.855-1.013 5.628-.09 7.734 1.733a11.32 11.32 0 0 1 2.628 3.358c.652 1.266 1.054 2.633 1.126 3.962.122 2.25-.695 4.384-2.83 5.74a49.946 49.946 0 0 1-5.553 3.076 42.477 42.477 0 0 1-5.692 2.214c-2.865.878-6.26 1.195-9.084.833-2.578-.332-4.7-1.237-5.562-2.81-.777-1.426-.39-3.418.7-5.487 1.187-2.26 3.218-4.633 5.455-6.44zm5.457-2.987a36.59 36.59 0 0 0-5.087 3.447c-2.176 1.758-4.15 4.064-5.302 6.254-1 1.9-1.377 3.698-.703 4.93.76 1.39 2.717 2.2 5.117 2.507 2.744.354 6.047.044 8.838-.81 1.89-.58 3.762-1.31 5.613-2.182a49.792 49.792 0 0 0 5.488-3.04c1.928-1.226 2.667-3.165 2.556-5.213-.067-1.24-.444-2.526-1.062-3.72a10.77 10.77 0 0 0-2.486-3.184c-1.957-1.693-4.52-2.553-7.15-1.62a37.61 37.61 0 0 0-5.822 2.634zM206.335 57.31a.294.294 0 0 1 .296.51l-6.374 3.682a.297.297 0 0 1-.423-.364l10.847-27.552a.31.31 0 0 1 .15-.16l3.515-2.03c.14-.08.322-.03.402.11a.294.294 0 0 1-.107.402l-3.445 1.99-10.498 26.667 5.638-3.256z"/><path fill-rule="evenodd" clip-rule="evenodd" fill="#B3B4B4" d="M205.68 47.726a.295.295 0 0 1-.294-.512l4.955-2.86a.294.294 0 1 1 .295.51l-4.954 2.862zM154.774 87.1a.3.3 0 0 1-.406-.104.297.297 0 0 1 .104-.405c1.996-1.183 4.312-1.315 6.625-.633 2.425.714 4.85 2.33 6.893 4.57 2.057 2.257 3.508 4.6 4.494 7.064.988 2.465 1.514 5.046 1.723 7.776a.297.297 0 0 1-.59.045c-.204-2.677-.717-5.2-1.68-7.6-.963-2.4-2.377-4.683-4.386-6.886-1.97-2.16-4.297-3.717-6.617-4.4-2.162-.638-4.314-.52-6.158.577z"/></svg>