<svg xmlns="http://www.w3.org/2000/svg" width="260" height="260" viewBox="-40.91 -52.383 260 260" overflow="visible"><path fill-rule="evenodd" clip-rule="evenodd" fill="#BBCE32" d="M31.45 20.552a.888.888 0 0 1-1.17-1.336c11.08-9.704 26.834-16 43.848-18.27 16.78-2.237 34.806-.565 50.8 5.603 4.07 1.57 7.833 3.363 11.274 5.346 3.54 2.04 6.733 4.273 9.56 6.66a.886.886 0 0 1 .105 1.25.89.89 0 0 1-1.252.105c-2.756-2.326-5.86-4.5-9.295-6.477-3.357-1.935-7.04-3.69-11.03-5.23C108.58 2.145 90.86.506 74.358 2.707 57.678 4.932 42.262 11.08 31.45 20.552z"/><path fill-rule="evenodd" clip-rule="evenodd" fill="#FFF" d="M133.32 17.834c6.175-6.763 19.85-9.08 30.542-5.176 6.935 2.532 10.91 7.058 11.167 11.772v.028c.016.306.016.61 0 .918v51.267c.13 2.545-.825 5.144-2.987 7.512-6.172 6.762-19.847 9.08-30.54 5.176-7.237-2.642-11.253-7.457-11.18-12.39h-.002V24.43h.015c.115-2.247 1.082-4.51 2.984-6.596z"/><path fill-rule="evenodd" clip-rule="evenodd" fill="#BBCE32" d="M131.568 16.24c3.456-3.784 8.912-6.308 14.938-7.33 5.903-1 12.424-.57 18.162 1.523 3.762 1.374 6.763 3.307 8.894 5.552 2.29 2.416 3.602 5.205 3.816 8.097.016.114.025.23.025.35v.092c.008.183.012.314.012.394 0 .09-.004.244-.016.46h.002v51.267l-.002.074a11.568 11.568 0 0 1-.83 4.68c-.605 1.515-1.522 2.98-2.775 4.35-3.454 3.784-8.91 6.31-14.937 7.33-5.904 1-12.423.572-18.16-1.523-3.94-1.438-7.04-3.484-9.188-5.864-2.305-2.555-3.53-5.502-3.552-8.532a2.284 2.284 0 0 1-.01-.22V24.43c0-.153.015-.305.042-.452a11.85 11.85 0 0 1 1.028-3.932c.597-1.314 1.443-2.593 2.55-3.806zm15.717-2.658c-5.023.853-9.494 2.87-12.212 5.848-.767.838-1.34 1.7-1.73 2.564a7.072 7.072 0 0 0-.634 2.41v.027c0 .085-.006.166-.015.245V76.94h-.008v.026c-.028 1.9.784 3.824 2.348 5.555 1.647 1.83 4.103 3.43 7.274 4.587 4.954 1.81 10.62 2.175 15.77 1.302 5.023-.853 9.492-2.87 12.21-5.847.875-.958 1.5-1.934 1.885-2.904.36-.91.523-1.833.496-2.746-.01-.09-.013-.18-.013-.27V25.378h.006l.003-.11c0-.03.003-.146.003-.35l-.003-.228a2.236 2.236 0 0 1-.01-.23v-.03c-.13-1.783-.998-3.57-2.526-5.183-1.646-1.734-4.03-3.252-7.074-4.364-4.957-1.807-10.62-2.173-15.772-1.3z"/><path fill-rule="evenodd" clip-rule="evenodd" fill="#FFF" d="M47.078 76.587c.148 2.563-.805 5.184-2.982 7.568-6.172 6.762-19.846 9.08-30.54 5.176-7.41-2.704-11.443-7.687-11.17-12.742h-.013V24.822c.02-2.375.985-4.78 3-6.987 6.173-6.763 19.848-9.08 30.54-5.176 7.41 2.704 11.44 7.686 11.167 12.74v51.187h-.002z"/><path fill-rule="evenodd" clip-rule="evenodd" fill="#E94C6D" d="M49.453 76.667a11.537 11.537 0 0 1-.813 4.698c-.6 1.52-1.524 2.998-2.792 4.386-3.454 3.786-8.91 6.31-14.938 7.33-5.902 1-12.423.573-18.16-1.522-4.03-1.47-7.186-3.586-9.34-6.044-2.298-2.62-3.474-5.627-3.4-8.703A2.69 2.69 0 0 1 0 76.59V24.822c0-.088.004-.175.016-.262.042-1.445.355-2.884.955-4.28.603-1.4 1.48-2.76 2.65-4.04 3.455-3.784 8.91-6.308 14.94-7.33 5.9-1 12.423-.57 18.16 1.523 4.027 1.47 7.185 3.586 9.34 6.045 2.35 2.682 3.528 5.77 3.39 8.922h.004v51.268zm-5.226 2.973a6.882 6.882 0 0 0 .495-2.775 2.512 2.512 0 0 1-.017-.277l.002-.087V25.4h.007l.003-.12c.105-1.946-.666-3.917-2.217-5.687-1.645-1.877-4.14-3.52-7.395-4.71-4.953-1.808-10.62-2.173-15.77-1.302-5.025.855-9.493 2.87-12.212 5.85-.812.89-1.407 1.798-1.796 2.706a7.02 7.02 0 0 0-.586 2.524c.005.054.008.107.008.162l-.002.03v51.543c.01.103.012.207.005.312-.103 1.946.668 3.918 2.22 5.688 1.643 1.876 4.14 3.52 7.392 4.71 4.957 1.81 10.62 2.174 15.77 1.3 5.027-.85 9.495-2.867 12.214-5.845.873-.954 1.496-1.937 1.883-2.92z"/><path fill-rule="evenodd" clip-rule="evenodd" fill="#F9F2F3" d="M47.078 76.587c.148 2.563-.805 5.184-2.982 7.568-6.172 6.762-19.846 9.08-30.54 5.176-7.41-2.704-11.443-7.687-11.17-12.742h-.013V24.823H47.08v51.765h-.002z"/><path fill-rule="evenodd" clip-rule="evenodd" fill="#E94C6D" d="M47.377 76.612a9.455 9.455 0 0 1-.668 3.998c-.507 1.284-1.3 2.545-2.397 3.745-3.133 3.432-8.156 5.733-13.745 6.68-5.574.944-11.72.543-17.115-1.426-3.688-1.35-6.558-3.26-8.488-5.463-1.994-2.273-2.994-4.863-2.88-7.48a.283.283 0 0 1-.01-.08V24.824c0-.163.132-.296.296-.296h44.71c.164 0 .297.133.297.296v51.79zm-1.22 3.783a8.922 8.922 0 0 0 .628-3.768l-.003-.04V25.12H2.67V76.5c.01.032.015.067.014.103-.135 2.492.813 4.974 2.73 7.156 1.865 2.13 4.65 3.98 8.243 5.293 5.297 1.933 11.336 2.326 16.816 1.397 5.465-.924 10.363-3.163 13.404-6.493 1.045-1.146 1.8-2.344 2.28-3.562z"/><path fill-rule="evenodd" clip-rule="evenodd" fill="#F0F7E8" d="M175.03 76.644c.13 2.545-.824 5.144-2.985 7.512-6.173 6.762-19.848 9.08-30.54 5.176-7.238-2.644-11.255-7.46-11.18-12.393h-.003V24.43h44.71v52.214z"/><path fill-rule="evenodd" clip-rule="evenodd" fill="#BBCE32" d="M175.328 76.655a9.487 9.487 0 0 1-.682 3.983c-.508 1.276-1.297 2.527-2.383 3.717-3.133 3.43-8.156 5.733-13.745 6.68-5.573.944-11.718.543-17.115-1.426-3.603-1.317-6.422-3.168-8.35-5.307-2.005-2.222-3.052-4.756-3.024-7.327l-.005-.038V24.43c0-.162.134-.296.296-.296h44.71c.163 0 .297.134.297.297v52.225zm-1.23 3.765c.49-1.235.7-2.494.64-3.738l-.003-.038V24.728H130.62v52.214c-.036 2.434.958 4.844 2.874 6.967 1.866 2.067 4.604 3.862 8.11 5.144 5.298 1.933 11.337 2.326 16.815 1.397 5.463-.924 10.363-3.163 13.404-6.493 1.04-1.138 1.792-2.33 2.273-3.538z"/><path fill-rule="evenodd" clip-rule="evenodd" fill="#FFF" d="M133.32 17.834c6.175-6.763 19.85-9.08 30.542-5.176s14.356 12.553 8.183 19.315c-6.173 6.76-19.848 9.08-30.54 5.174-10.694-3.902-14.36-12.55-8.185-19.313z"/><path fill-rule="evenodd" clip-rule="evenodd" fill="#BBCE32" d="M133.102 17.634c3.134-3.43 8.157-5.733 13.747-6.68 5.57-.944 11.716-.544 17.112 1.426 2.992 1.093 5.445 2.556 7.293 4.242 1.816 1.66 3.057 3.54 3.66 5.507a9.365 9.365 0 0 1-.163 6.05c-.5 1.37-1.325 2.716-2.49 3.99-3.132 3.432-8.155 5.734-13.744 6.68-5.574.945-11.72.545-17.116-1.425-2.993-1.093-5.444-2.554-7.294-4.243-1.816-1.658-3.055-3.538-3.658-5.505a9.374 9.374 0 0 1 .163-6.053c.498-1.37 1.323-2.714 2.487-3.99zm13.844-6.095c-5.465.923-10.365 3.163-13.406 6.493-1.11 1.22-1.897 2.497-2.37 3.793a8.794 8.794 0 0 0-.155 5.678c.573 1.864 1.755 3.655 3.493 5.24 1.796 1.64 4.18 3.062 7.098 4.127 5.297 1.935 11.336 2.327 16.814 1.398 5.465-.927 10.365-3.165 13.406-6.495 1.11-1.22 1.897-2.497 2.37-3.796a8.786 8.786 0 0 0 .155-5.678c-.57-1.865-1.754-3.656-3.492-5.24-1.795-1.64-4.18-3.06-7.097-4.126-5.294-1.934-11.333-2.327-16.813-1.398z"/><path fill-rule="evenodd" clip-rule="evenodd" fill="#FFF" d="M5.373 17.834c6.173-6.763 19.848-9.08 30.54-5.176 10.692 3.905 14.356 12.553 8.183 19.315-6.172 6.76-19.846 9.08-30.54 5.175C2.862 33.245-.802 24.598 5.373 17.834z"/><path fill-rule="evenodd" clip-rule="evenodd" fill="#E94C6D" d="M5.153 17.634c3.134-3.43 8.157-5.733 13.745-6.68 5.573-.944 11.72-.544 17.115 1.426 2.993 1.093 5.445 2.556 7.293 4.243 1.817 1.66 3.057 3.54 3.66 5.506a9.384 9.384 0 0 1-.162 6.05c-.5 1.37-1.325 2.716-2.49 3.99-3.133 3.43-8.156 5.734-13.745 6.68-5.575.945-11.72.546-17.116-1.425-2.994-1.093-5.445-2.554-7.293-4.242-1.817-1.66-3.056-3.54-3.66-5.506a9.374 9.374 0 0 1 .164-6.053c.5-1.37 1.323-2.714 2.488-3.99zm13.844-6.095c-5.465.923-10.365 3.163-13.406 6.493-1.11 1.22-1.894 2.497-2.37 3.793a8.807 8.807 0 0 0-.152 5.678c.572 1.864 1.755 3.655 3.492 5.243 1.796 1.638 4.18 3.06 7.097 4.124 5.297 1.935 11.337 2.327 16.816 1.398 5.463-.927 10.363-3.165 13.404-6.495 1.112-1.22 1.898-2.497 2.37-3.795A8.77 8.77 0 0 0 46.4 22.3c-.57-1.864-1.754-3.654-3.49-5.24-1.796-1.64-4.182-3.06-7.1-4.125-5.294-1.934-11.333-2.327-16.813-1.398z"/><path fill-rule="evenodd" clip-rule="evenodd" fill="#FFF" d="M135.454 100.093c.01 4.97-1.983 10.004-6.194 14.616-8.555 9.37-24.08 14.607-40.04 14.61V77.14l46.235-29.23v52.183z"/><path fill-rule="evenodd" clip-rule="evenodd" fill="#B3B4B4" d="M137.816 100.332c-.025 2.76-.6 5.528-1.748 8.238-1.133 2.672-2.81 5.272-5.056 7.733-4.468 4.894-10.68 8.71-17.823 11.317-7.284 2.657-15.57 4.062-23.973 4.064a2.365 2.365 0 0 1-2.363-2.364h-.01V77.14c0-.913.515-1.704 1.268-2.102l46.08-29.13a2.37 2.37 0 0 1 3.63 2h.006v52.184c0 .08-.005.16-.014.24zm-6.105 6.404c.907-2.138 1.36-4.31 1.38-6.46a1.834 1.834 0 0 1-.007-.184V52.21l-41.49 26.227v48.48c7.023-.24 13.885-1.522 19.985-3.746 6.438-2.35 11.993-5.742 15.932-10.055 1.892-2.074 3.286-4.218 4.2-6.378z"/><path fill-rule="evenodd" clip-rule="evenodd" fill="#FFF" d="M89.22 129.32c-7.84 0-15.786-1.26-23.063-3.918-15.027-5.487-23.332-15.507-23.095-25.754h-.005V47.893l46.162.014v81.413z"/><path fill-rule="evenodd" clip-rule="evenodd" fill="#B3B4B4" d="M88.98 131.683c-4.095-.01-8.2-.346-12.212-1.02a67.202 67.202 0 0 1-11.654-3.037c-7.827-2.832-13.968-6.85-18.182-11.507-4.47-4.94-6.786-10.6-6.694-16.366a1.283 1.283 0 0 1-.004-.108h-.008V47.894a2.386 2.386 0 0 1 2.61-2.364l46.363.014a2.374 2.374 0 0 1 2.384 2.364h.01v81.412a2.384 2.384 0 0 1-2.613 2.363zm-11.423-5.692c3.063.52 6.163.823 9.247.928V50.27l-41.79-.01v49.387h-.003v.048c-.106 4.604 1.793 9.2 5.48 13.273 3.7 4.088 9.184 7.65 16.253 10.21a62.155 62.155 0 0 0 10.815 2.813z"/><path fill-rule="evenodd" clip-rule="evenodd" fill="#FFF" d="M129.248 33.292c7.98 8.743 8.566 19.864.012 29.235-8.555 9.37-24.078 14.61-40.04 14.612V47.906l40.028-14.616z"/><path fill-rule="evenodd" clip-rule="evenodd" fill="#B3B4B4" d="M131 31.698c4.46 4.886 6.816 10.503 6.82 16.242.002 5.546-2.192 11.125-6.808 16.182-4.468 4.893-10.68 8.71-17.823 11.316-7.284 2.657-15.57 4.063-23.973 4.064a2.364 2.364 0 0 1-2.363-2.363h-.01V47.906c0-1.09.733-2.008 1.734-2.286l39.86-14.555a2.366 2.366 0 0 1 2.557.633l.004-.002zm2.092 16.242c-.002-4.087-1.576-8.16-4.572-11.862L91.592 49.56v25.174c7.023-.238 13.885-1.52 19.985-3.745 6.438-2.353 11.993-5.747 15.932-10.06 3.783-4.147 5.583-8.62 5.58-12.99z"/><path fill-rule="evenodd" clip-rule="evenodd" fill="#B3B4B4" d="M47.497 31.718c6.745-7.39 17.49-12.333 29.412-14.354 11.793-2 24.81-1.146 36.247 3.03 3.742 1.366 7.094 3.007 10.025 4.857 3.073 1.943 5.69 4.115 7.817 6.447a2.367 2.367 0 0 1-1.044 3.854l-39.93 14.582a2.353 2.353 0 0 1-1.614 0l-39.97-14.595a2.366 2.366 0 0 1-.945-3.82zm30.19-9.68c-9.458 1.603-18.045 5.147-24.08 10.347L89.22 45.388l35.67-13.023a36.063 36.063 0 0 0-4.227-3.106c-2.653-1.677-5.7-3.167-9.118-4.415-10.656-3.892-22.815-4.68-33.857-2.808z"/><path fill-rule="evenodd" clip-rule="evenodd" fill="#FFF" d="M89.22 77.14c-7.84 0-15.786-1.264-23.063-3.92-22.094-8.067-29.663-25.935-16.907-39.907l39.97 14.595v29.23z"/><path fill-rule="evenodd" clip-rule="evenodd" fill="#B3B4B4" d="M89.004 79.5a73.607 73.607 0 0 1-12.1-1.02c-3.95-.67-7.835-1.677-11.555-3.035-6.41-2.34-11.674-5.48-15.655-9.116-3.99-3.645-6.72-7.798-8.058-12.163-1.365-4.454-1.287-9.095.365-13.62 1.113-3.047 2.932-6.023 5.493-8.83a2.37 2.37 0 0 1 2.667-.59l39.86 14.555a2.368 2.368 0 0 1 1.562 2.226h.006v29.23a2.37 2.37 0 0 1-2.586 2.362zm-11.322-5.69c3.036.516 6.108.822 9.164.926V49.56l-36.87-13.463c-1.606 1.978-2.774 4.014-3.52 6.064-1.292 3.535-1.355 7.15-.292 10.617 1.09 3.553 3.363 6.983 6.72 10.047 3.548 3.238 8.28 6.054 14.08 8.17a60.98 60.98 0 0 0 10.718 2.815z"/><path fill-rule="evenodd" clip-rule="evenodd" fill="#FFF" d="M135.454 100.093c.01 4.97-1.983 10.004-6.194 14.616-8.555 9.37-24.08 14.607-40.04 14.61V77.14l46.235-29.23v52.183z"/><path fill-rule="evenodd" clip-rule="evenodd" fill="#B3B4B4" d="M135.75 100.132c0 2.55-.52 5.118-1.588 7.635-1.038 2.447-2.59 4.848-4.684 7.142-4.234 4.636-10.16 8.27-16.993 10.763-7.066 2.578-15.11 3.94-23.267 3.942a.295.295 0 0 1-.294-.295h-.003V77.14c0-.114.066-.213.16-.263L135.3 47.66a.295.295 0 0 1 .407.094c.03.05.047.104.047.157v52.223zm-2.133 7.407c1.04-2.457 1.547-4.96 1.54-7.44V48.446L89.517 77.3v51.725c7.984-.032 15.85-1.383 22.768-3.906 6.746-2.463 12.59-6.043 16.757-10.608 2.05-2.244 3.567-4.59 4.577-6.97z"/><path fill-rule="evenodd" clip-rule="evenodd" fill="#FFF" d="M89.22 129.32c-7.84 0-15.786-1.26-23.063-3.918-15.027-5.487-23.332-15.507-23.095-25.754h-.005V47.893l46.162.014v81.413z"/><path fill-rule="evenodd" clip-rule="evenodd" fill="#B3B4B4" d="M89.188 129.616c-4.04 0-8.104-.327-12.09-.997-3.87-.65-7.676-1.627-11.315-2.94-7.516-2.714-13.386-6.53-17.386-10.94-4.147-4.57-6.287-9.78-6.18-15.054v-.04h-.003v-51.75a.3.3 0 0 1 .3-.3l.028.004 46.672.012c.166 0 .298.133.298.296h.002v81.412a.298.298 0 0 1-.3.297h-.026zm-11.99-1.58c3.87.648 7.807.974 11.717.988v-80.82l-46.1-.015v51.424c.002.013.002.026.002.04-.12 5.135 1.968 10.22 6.026 14.692 3.934 4.337 9.723 8.1 17.143 10.777a64.6 64.6 0 0 0 11.212 2.91z"/><path fill-rule="evenodd" clip-rule="evenodd" fill="#E94C6D" d="M75.195 95.96c.486.06.834.502.773.99a.887.887 0 0 1-.99.774c-3.994-.5-7.972-1.23-11.887-2.2a93.647 93.647 0 0 1-11.22-3.526c-12.05-4.646-21.387-11.245-27.635-18.863-6.515-7.94-9.68-16.98-9.083-26.08a.888.888 0 1 1 1.773.11c-.567 8.647 2.458 17.26 8.68 24.844 6.062 7.386 15.15 13.8 26.905 18.334A92.39 92.39 0 0 0 63.517 93.8c3.83.95 7.738 1.666 11.68 2.158z"/><path fill-rule="evenodd" clip-rule="evenodd" fill="#2EBCE3" d="M159.918 48.145a.888.888 0 1 1 1.773-.063c.167 4.49-.57 9.018-2.27 13.458-1.637 4.285-4.167 8.49-7.636 12.504-5.514 6.38-12.84 11.618-21.287 15.59-8.75 4.113-18.702 6.87-29.09 8.128a.887.887 0 0 1-.986-.778.89.89 0 0 1 .78-.987c10.21-1.237 19.977-3.94 28.545-7.97 8.227-3.865 15.348-8.955 20.697-15.144 3.327-3.847 5.75-7.875 7.317-11.976 1.614-4.22 2.32-8.515 2.16-12.762z"/><path fill-rule="evenodd" clip-rule="evenodd" fill="#FFF" d="M129.248 33.292c7.98 8.743 8.566 19.864.012 29.235-8.555 9.37-24.078 14.61-40.04 14.612V47.906l40.028-14.616z"/><path fill-rule="evenodd" clip-rule="evenodd" fill="#B3B4B4" d="M129.467 33.092c4.11 4.503 6.283 9.637 6.285 14.848 0 5.032-2.02 10.127-6.273 14.787-4.236 4.638-10.16 8.27-16.995 10.765-7.066 2.578-15.11 3.94-23.267 3.942a.296.296 0 0 1-.295-.295h-.003V47.906a.3.3 0 0 1 .22-.288l40.005-14.607a.294.294 0 0 1 .32.078zm5.694 14.848c0-5.004-2.075-9.944-5.997-14.303L89.516 48.114v28.73c7.985-.034 15.85-1.384 22.768-3.908 6.746-2.46 12.59-6.04 16.757-10.607 4.15-4.55 6.123-9.507 6.12-14.39z"/><path fill-rule="evenodd" clip-rule="evenodd" fill="#FFF" d="M49.25 33.313c12.755-13.973 41.007-18.76 63.1-10.693 7.277 2.657 12.98 6.377 16.896 10.672l-40.03 14.616-39.97-14.595z"/><path fill-rule="evenodd" clip-rule="evenodd" fill="#B3B4B4" d="M49.03 33.113c6.423-7.036 16.737-11.758 28.22-13.704 11.466-1.945 24.106-1.12 35.203 2.93 3.6 1.315 6.818 2.89 9.627 4.664 2.908 1.837 5.38 3.89 7.387 6.088a.295.295 0 0 1-.13.482L89.32 48.184a.28.28 0 0 1-.2 0h-.007L49.147 33.59a.298.298 0 0 1-.117-.478zm28.317-13.12C66.167 21.888 56.12 26.43 49.77 33.187l39.45 14.405 39.51-14.427c-1.92-2.04-4.247-3.943-6.964-5.66-2.774-1.752-5.955-3.31-9.514-4.608-11-4.015-23.533-4.83-34.905-2.904z"/><path fill-rule="evenodd" clip-rule="evenodd" fill="#FFF" d="M89.22 77.14c-7.84 0-15.786-1.264-23.063-3.92-22.094-8.067-29.663-25.935-16.907-39.907l39.97 14.595v29.23z"/><path fill-rule="evenodd" clip-rule="evenodd" fill="#B3B4B4" d="M89.68 77.434c-4.034 0-8.094-.328-12.074-.998A65.072 65.072 0 0 1 66.3 73.498c-6.207-2.244-11.29-5.242-15.12-8.702-3.752-3.39-6.31-7.227-7.55-11.236-1.25-4.02-1.176-8.215.334-12.306 1.03-2.79 2.728-5.536 5.13-8.14a.305.305 0 0 1 .338-.074L89.81 47.63c.12.042.194.156.196.278v29.23a.298.298 0 0 1-.3.297h-.024zm-11.976-1.582c3.865.65 7.798.975 11.703.99V48.114L49.404 33.66c-2.28 2.503-3.895 5.13-4.877 7.795-1.465 3.967-1.536 8.033-.328 11.93 1.21 3.91 3.71 7.654 7.38 10.973 3.776 3.412 8.793 6.37 14.923 8.585 3.6 1.3 7.366 2.265 11.2 2.91z"/><path fill-rule="evenodd" clip-rule="evenodd" fill="#FFF" d="M111.067 147.123c.015 2.416-.95 4.865-2.997 7.11-6.174 6.762-19.848 9.078-30.54 5.174-7.187-2.623-11.198-7.388-11.183-12.284V94.9c.018-2.376.984-4.783 2.998-6.99 6.175-6.762 19.848-9.08 30.54-5.175 7.128 2.603 11.132 7.312 11.182 12.166h.002v52.225h-.004z"/><path fill-rule="evenodd" clip-rule="evenodd" fill="#2EBCE3" d="M113.432 147.36a11.622 11.622 0 0 1-.935 4.357c-.603 1.428-1.49 2.81-2.675 4.11-3.454 3.782-8.91 6.306-14.938 7.328-5.903 1-12.424.57-18.16-1.524-3.907-1.423-6.992-3.45-9.137-5.806-2.367-2.6-3.613-5.61-3.604-8.7h-.01V94.9c0-.09.004-.18.016-.266a11.63 11.63 0 0 1 .95-4.277c.603-1.4 1.483-2.76 2.65-4.042 3.456-3.784 8.91-6.31 14.94-7.33 5.903-1 12.424-.57 18.16 1.524 3.874 1.412 6.94 3.417 9.08 5.746 2.296 2.498 3.555 5.383 3.653 8.36.01.094.018.188.018.282v52.222c0 .08-.003.16-.01.24zm-5.292 2.52c.36-.85.544-1.714.562-2.567a2.368 2.368 0 0 1-.01-.19l.004-.07v-52.15h.007c-.023-1.86-.86-3.74-2.416-5.436-1.648-1.794-4.078-3.363-7.207-4.505-4.955-1.81-10.62-2.175-15.77-1.302-5.023.852-9.492 2.867-12.212 5.845-.812.89-1.407 1.8-1.798 2.71a6.996 6.996 0 0 0-.584 2.524c.003.054.006.107.006.162l-.002.062v52.16h-.01c-.005 1.89.818 3.796 2.38 5.513 1.65 1.81 4.094 3.396 7.245 4.546 4.955 1.81 10.62 2.176 15.77 1.303 5.026-.852 9.494-2.868 12.213-5.846.83-.908 1.434-1.835 1.822-2.756z"/><path fill-rule="evenodd" clip-rule="evenodd" fill="#EFF6FB" d="M111.067 147.123c.015 2.416-.95 4.865-2.997 7.11-6.174 6.762-19.848 9.078-30.54 5.174-7.187-2.623-11.198-7.388-11.183-12.284V94.9h44.722v52.223h-.004z"/><path fill-rule="evenodd" clip-rule="evenodd" fill="#2EBCE3" d="M111.363 147.16a9.536 9.536 0 0 1-.773 3.754c-.508 1.207-1.272 2.39-2.3 3.518-3.133 3.432-8.157 5.733-13.746 6.68-5.573.945-11.72.544-17.114-1.426-3.576-1.306-6.382-3.14-8.31-5.258-2.013-2.213-3.075-4.74-3.067-7.305h-.002V94.9c0-.162.135-.296.3-.296h44.72c.164 0 .298.134.298.297v52.224l-.004.038zm-1.316 3.525a9 9 0 0 0 .727-3.536l-.003-.028.005-.023V95.196h-44.13v51.926c-.007 2.415 1 4.804 2.915 6.907 1.864 2.05 4.59 3.828 8.07 5.1 5.298 1.934 11.337 2.326 16.816 1.398 5.464-.927 10.366-3.165 13.405-6.496.987-1.078 1.715-2.203 2.198-3.347z"/><path fill-rule="evenodd" clip-rule="evenodd" fill="#FFF" d="M69.346 87.91c6.175-6.762 19.848-9.08 30.54-5.175s14.358 12.552 8.185 19.314-19.846 9.077-30.54 5.174C66.84 103.32 63.176 94.672 69.348 87.91z"/><path fill-rule="evenodd" clip-rule="evenodd" fill="#2EBCE3" d="M69.127 87.71c3.135-3.43 8.157-5.732 13.746-6.68 5.574-.944 11.72-.543 17.115 1.427 2.992 1.093 5.445 2.556 7.294 4.242 1.817 1.657 3.055 3.537 3.66 5.505.606 1.98.57 4.04-.165 6.05-.5 1.372-1.323 2.717-2.488 3.992-3.134 3.432-8.158 5.733-13.747 6.68-5.573.945-11.72.544-17.114-1.426-2.995-1.092-5.445-2.555-7.296-4.24-1.816-1.66-3.056-3.54-3.658-5.508a9.365 9.365 0 0 1 .162-6.05c.5-1.37 1.323-2.716 2.487-3.992zm13.844-6.095c-5.462.926-10.362 3.163-13.403 6.495-1.112 1.218-1.897 2.497-2.37 3.794a8.767 8.767 0 0 0-.154 5.676c.573 1.866 1.755 3.656 3.493 5.242 1.794 1.64 4.18 3.06 7.097 4.124 5.297 1.935 11.336 2.328 16.815 1.4 5.464-.927 10.364-3.164 13.405-6.496 1.11-1.218 1.896-2.496 2.37-3.794a8.79 8.79 0 0 0 .155-5.677c-.572-1.867-1.755-3.657-3.493-5.243-1.796-1.64-4.18-3.06-7.098-4.126-5.297-1.932-11.335-2.326-16.815-1.396z"/><path fill-rule="evenodd" clip-rule="evenodd" fill="#BBCE32" d="M145.394 22.882l-1.514-3.947h-.044c.07.673.104 1.194.104 1.566v2.383h-1.77v-5.48h2.66l1.543 3.892h.042l1.51-3.89h2.665v5.478h-1.835V20.48c0-.124.003-.264.008-.416.006-.153.027-.526.066-1.12h-.045l-1.493 3.938h-1.9zm10.96 0h-4.39v-5.48h4.39v1.19h-2.392v.86h2.216v1.19h-2.216v1.034h2.392v1.206zm5.608 0l-.36-1.03H159.2l-.373 1.03h-2.195l2.41-5.502h2.664l2.442 5.502h-2.186zm-.777-2.24l-.317-.9c-.074-.2-.164-.457-.27-.775a9.286 9.286 0 0 1-.21-.684c-.032.13-.092.338-.18.63-.09.292-.288.87-.596 1.73h1.573zm-15.72 7.607c0 .34-.115.64-.348.903-.233.264-.567.468-1.006.615-.436.145-.95.218-1.54.218a8.25 8.25 0 0 1-1.237-.077 5.69 5.69 0 0 1-1.04-.268v-1.32c.38.145.775.258 1.187.34.41.08.788.12 1.13.12.297 0 .516-.038.653-.113s.207-.176.207-.295a.265.265 0 0 0-.085-.196.955.955 0 0 0-.268-.17c-.122-.06-.45-.177-.983-.354-.48-.163-.843-.32-1.083-.472a1.616 1.616 0 0 1-.533-.525 1.364 1.364 0 0 1-.175-.7c0-.507.248-.898.742-1.18.496-.284 1.178-.427 2.045-.427.763 0 1.542.132 2.337.394l-.61 1.14c-.692-.232-1.287-.35-1.79-.35-.258 0-.447.034-.564.102-.118.066-.177.15-.177.25 0 .11.076.205.225.29.15.084.558.24 1.223.465.636.21 1.078.44 1.326.683.245.243.37.548.37.92zm7.213-3.82v3.3c0 .717-.273 1.272-.822 1.666-.547.394-1.338.59-2.37.59-1.006 0-1.78-.19-2.32-.572-.542-.382-.813-.933-.813-1.65V24.43h2.007v3.217c0 .387.098.667.295.843.195.177.482.264.863.264.41 0 .703-.087.89-.26.183-.174.274-.46.274-.853v-3.207h1.996zm3.33 3.485v1.995h-1.996v-5.478h2.423c2.01 0 3.012.54 3.012 1.62 0 .633-.417 1.124-1.253 1.47l2.153 2.39h-2.263l-1.568-1.995h-.508zm0-1.113h.375c.698 0 1.05-.23 1.05-.686 0-.377-.345-.565-1.03-.565h-.395v1.25zm9.182 3.108h-4.39v-5.478h4.39v1.19h-2.392v.86h2.215v1.188h-2.215v1.036h2.392v1.205z"/><path fill-rule="evenodd" clip-rule="evenodd" fill="#E94C6D" d="M8.557 27.514v-5.48h1.996v4.283H13.4v1.197H8.556zm10.197 0h-4.39v-5.48h4.39v1.19h-2.392v.86h2.215v1.19h-2.215v1.034h2.392v1.206zm5.61 0L24 26.484h-2.4l-.373 1.03h-2.194l2.41-5.502h2.663l2.44 5.502h-2.183zm-.78-2.24l-.317-.9a34.73 34.73 0 0 1-.27-.775 9.8 9.8 0 0 1-.21-.686c-.03.13-.09.338-.18.632-.09.29-.287.867-.595 1.728h1.573zm5.54.246v1.994H27.13v-5.48h2.422c2.01 0 3.013.54 3.013 1.62 0 .634-.417 1.124-1.252 1.472l2.152 2.39h-2.263l-1.57-1.995h-.507zm0-1.115h.377c.7 0 1.05-.228 1.05-.685 0-.378-.344-.565-1.027-.565h-.396v1.25zm11.83 3.11h-2.617l-2.698-3.86h-.047c.062.607.096 1.07.096 1.39v2.47h-1.77v-5.48h2.61l2.686 3.81h.032a15.38 15.38 0 0 1-.073-1.33v-2.48h1.778v5.48z"/><path fill-rule="evenodd" clip-rule="evenodd" fill="#2EBCE3" d="M73.7 92.124h2.578c1.005 0 1.75.11 2.235.33.49.223.732.566.732 1.033 0 .31-.106.57-.32.788-.21.217-.49.355-.838.42v.037c.46.09.79.24.996.45.205.21.31.48.31.815 0 .5-.253.89-.757 1.175-.503.287-1.192.43-2.062.43h-2.876v-5.478zm1.995 2.103h.604c.282 0 .505-.044.662-.133a.418.418 0 0 0 .234-.39c0-.308-.312-.46-.94-.46h-.56v.983h-.002zm0 1.08v1.152h.704c.62 0 .933-.196.933-.587 0-.183-.083-.323-.25-.42s-.408-.147-.726-.147h-.663zm11.047-3.183v3.298c0 .718-.273 1.274-.82 1.667-.548.39-1.338.59-2.37.59-1.008 0-1.782-.19-2.323-.574s-.81-.932-.81-1.65v-3.332h2.004v3.216c0 .387.097.668.293.843.194.175.483.262.864.262.41 0 .706-.087.89-.26.184-.174.275-.458.275-.853v-3.207h1.996zm1.334 5.478v-5.48h2.008v5.48h-2.008zm3.39 0v-5.48h1.995v4.282h2.848V97.6h-4.842v.002zm12.08-2.855c0 .914-.34 1.62-1.017 2.114-.684.496-1.636.743-2.867.743H97.27v-5.48h2.56c1.187 0 2.103.226 2.747.675.647.45.97 1.1.97 1.95zm-2.07.054c0-.5-.136-.873-.403-1.115s-.674-.364-1.222-.364h-.58v3.07h.446c.606 0 1.052-.13 1.336-.392.283-.26.425-.658.425-1.196z"/><path fill-rule="evenodd" clip-rule="evenodd" fill="#B3B4B4" d="M75.53 34.64v-5.478h2.007v5.48H75.53zm9.66-2.853c0 .914-.34 1.618-1.017 2.113-.68.495-1.635.74-2.865.74h-2.392v-5.478h2.56c1.186 0 2.102.225 2.747.673.646.452.968 1.102.968 1.952zm-2.07.053c0-.503-.136-.875-.402-1.118-.27-.24-.675-.362-1.223-.362h-.58v3.07h.444c.605 0 1.05-.132 1.334-.393.283-.26.424-.66.424-1.197zm7.568 2.8h-4.39v-5.478h4.39v1.19h-2.394v.858h2.215v1.19h-2.217v1.036h2.394v1.205zm5.61 0l-.364-1.026h-2.4l-.374 1.027h-2.194l2.41-5.5h2.665l2.44 5.5H96.3zm-.78-2.24l-.316-.9a23.056 23.056 0 0 1-.27-.774 10.052 10.052 0 0 1-.21-.684c-.03.13-.092.34-.18.632-.09.29-.288.868-.594 1.727h1.57zm8.377.578c0 .342-.116.643-.35.907-.232.263-.566.468-1.006.613-.44.146-.954.22-1.54.22-.494 0-.907-.026-1.24-.077-.333-.05-.68-.14-1.04-.267v-1.32c.38.145.774.258 1.186.34.412.08.79.12 1.133.12.296 0 .513-.038.65-.113.14-.076.21-.174.21-.293a.256.256 0 0 0-.088-.196.97.97 0 0 0-.266-.17c-.123-.06-.45-.174-.984-.353-.48-.162-.842-.32-1.084-.472-.24-.15-.42-.328-.536-.524a1.364 1.364 0 0 1-.174-.7c0-.503.246-.897.742-1.18.494-.283 1.178-.424 2.043-.424.764 0 1.545.13 2.34.392l-.612 1.142c-.69-.234-1.285-.353-1.79-.353-.255 0-.445.035-.563.103s-.18.152-.18.25c0 .11.077.207.228.292.15.083.557.238 1.22.463.636.212 1.08.442 1.327.685.246.243.37.55.37.918zM101.102 53.425c-.473 0-.845.145-1.11.43-.268.29-.4.69-.4 1.196 0 1.057.542 1.583 1.624 1.583.326 0 .643-.033.95-.1.306-.07.614-.15.925-.246v1.255c-.615.203-1.312.305-2.09.305-1.117 0-1.97-.24-2.566-.72-.596-.48-.893-1.173-.893-2.08 0-.566.146-1.065.433-1.495.288-.43.702-.76 1.244-.99.543-.232 1.178-.348 1.907-.348.8 0 1.562.128 2.29.385l-.61 1.164a7.928 7.928 0 0 0-.82-.24 3.846 3.846 0 0 0-.88-.097zm9.92 1.598c0 .92-.304 1.622-.915 2.102-.61.48-1.502.72-2.68.72-1.158 0-2.048-.24-2.667-.723-.618-.482-.927-1.185-.927-2.105 0-.912.31-1.61.924-2.09.613-.48 1.508-.723 2.68-.723 1.178 0 2.068.24 2.675.717.61.48.91 1.18.91 2.104zm-5.084-.002c0 1.06.495 1.59 1.49 1.59.505 0 .882-.13 1.124-.386.246-.257.37-.657.37-1.202 0-.546-.127-.95-.375-1.212-.247-.26-.617-.392-1.11-.392-.998 0-1.5.537-1.5 1.605zm12.474-.107c0 .915-.34 1.62-1.018 2.115-.68.494-1.635.74-2.863.74h-2.39V52.29h2.56c1.184 0 2.1.225 2.746.674.645.45.967 1.1.967 1.948zm-2.07.055c0-.503-.135-.875-.402-1.12-.268-.24-.676-.36-1.223-.36h-.58v3.07h.443c.607 0 1.053-.133 1.336-.393.283-.26.425-.66.425-1.197zm7.567 2.8h-4.39V52.29h4.39v1.188h-2.394v.86h2.215v1.19h-2.214v1.035h2.392v1.205zM61.887 54.92c0 .914-.34 1.62-1.018 2.114-.683.495-1.638.74-2.867.74h-2.39v-5.478h2.558c1.186 0 2.103.226 2.747.676.646.45.97 1.1.97 1.95zm-2.073.055c0-.503-.135-.875-.402-1.12-.267-.24-.675-.36-1.222-.36h-.58v3.07h.444c.606 0 1.052-.133 1.336-.393.283-.26.424-.66.424-1.197zm7.505 2.8l-.364-1.027h-2.402l-.373 1.028h-2.19l2.407-5.502h2.666l2.44 5.502H67.32zm-.78-2.238l-.317-.9c-.074-.2-.165-.46-.27-.776a9.898 9.898 0 0 1-.21-.682c-.03.13-.09.34-.18.632-.09.29-.288.867-.594 1.728h1.57zm6.082 2.24V53.51h1.803v-1.215H68.82v1.213h1.807v4.266h1.995zm6.45 0l-.362-1.03h-2.403l-.37 1.03h-2.194l2.41-5.503h2.662l2.44 5.502h-2.183zm-.78-2.24l-.316-.9c-.074-.2-.164-.46-.27-.776a9.355 9.355 0 0 1-.21-.682c-.03.13-.09.34-.18.632-.09.29-.288.867-.595 1.728h1.573z"/></svg>