<svg xmlns="http://www.w3.org/2000/svg" viewBox="-1.457 -0.67 412 208" overflow="visible"><path fill="#FFF" d="M385.323 87.162c18.8-18.518 27.527-36.085 22.658-50.073l-.052-.114c-4.14-11.86-17.514-19.75-37.432-23.723a9.865 9.865 0 0 1-2.797 5.764c-1.79 1.79-4.253 2.91-6.94 2.91-1.734 0-3.41-.448-4.81-1.287a38.015 38.015 0 0 1-2.966 1.566c-3.022 1.456-5.37 1.79-6.21.785-.617-.727-.392-2.012.447-3.635.783-1.456 2.127-3.246 3.918-5.258-.112-.673-.224-1.344-.224-2.015 0-.448.056-.895.11-1.287-5.93-.39-12.196-.56-18.796-.503-41.01.503-94.39 10.52-150.448 29.82-1.12.393-2.127.728-3.078 1.063-31.946 11.19-61.208 24.17-86.385 37.878.112.28.168.56.168.895 0 .67-.28 1.232-.67 1.68-.45.446-1.008.67-1.68.67-.67 0-1.23-.28-1.678-.67-.448-.448-.672-1.01-.672-1.68 0-.67.28-1.23.672-1.68.447-.446 1.007-.67 1.678-.67.672 0 1.23.28 1.68.67l.166.17c25.234-13.712 54.55-26.748 86.5-37.938 1.12-.392 2.126-.73 3.077-1.064 56.17-19.303 109.66-29.316 150.67-29.82 6.658-.113 12.98.055 18.91.504.39-1.903 1.34-3.638 2.687-4.925 1.79-1.79 4.25-2.908 6.936-2.908 1.4 0 2.687.278 3.862.78 2.236-1.34 4.194-2.292 5.762-2.74 1.732-.503 3.02-.447 3.58.28.84 1.063.057 3.245-1.96 5.93a33.612 33.612 0 0 1-1.956 2.46 9.688 9.688 0 0 1 .504 3.135v.503c20.254 4.03 33.848 12.084 38.045 24.17l.055.11c4.925 14.27-3.86 32.116-22.882 50.86.39.502.56 1.117.56 1.788 0 .84-.336 1.623-.895 2.24-.56.56-1.343.895-2.237.895-.84 0-1.623-.334-2.238-.894-.56-.56-.896-1.343-.896-2.24 0-.838.336-1.62.896-2.238.56-.56 1.344-.895 2.238-.895.782 0 1.51.28 2.07.784l.057-.054zM91.537 201.13c.783 0 1.455.67 1.455 1.454 0 .783-.672 1.454-1.455 1.454a1.48 1.48 0 0 1-1.455-1.454c0-.784.67-1.455 1.455-1.455zm263.91-180.77a9.957 9.957 0 0 1-1.68-1.342 9.76 9.76 0 0 1-2.518-4.364c-1.68 1.847-2.91 3.524-3.638 4.923-.784 1.455-.952 2.573-.505 3.134.73.84 2.8.45 5.65-.894.842-.392 1.738-.895 2.688-1.456zm9.677-17.12c.952.504 1.847 1.12 2.575 1.845.95.953 1.676 2.07 2.18 3.302.67-.783 1.288-1.51 1.79-2.238 1.846-2.52 2.63-4.534 1.96-5.374-.45-.56-1.567-.56-3.078-.112-1.454.45-3.3 1.288-5.37 2.517l-.06.06zm3.806 6.882c-1.623 1.677-3.47 3.467-5.594 5.202-2.07 1.68-4.085 3.19-5.987 4.42 1.062.447 2.18.727 3.41.727a8.32 8.32 0 0 0 5.93-2.46 8.412 8.412 0 0 0 2.463-5.93c0-.67-.055-1.286-.224-1.9v-.057zm-12.14 9.343c1.958-1.232 4.082-2.797 6.21-4.532a60.383 60.383 0 0 0 5.762-5.372c-.392-1.34-1.12-2.57-2.126-3.52a8.424 8.424 0 0 0-5.93-2.46 8.33 8.33 0 0 0-5.933 2.46 8.42 8.42 0 0 0-2.46 5.93c0 2.35.95 4.42 2.46 5.93a7.85 7.85 0 0 0 2.07 1.51l-.053.056zM332.23 2.68c-5.71 0-13.542.167-21.097.673-5.594.335-11.02.838-15.327 1.62-.112.392-.506.673-.952.673a.946.946 0 0 1-.953-.952c0-.56.45-.95.955-.95.39 0 .73.224.894.56 4.31-.728 9.735-1.29 15.33-1.624 7.553-.447 15.387-.615 21.09-.67.17-.504.62-.896 1.178-.896.67 0 1.23.56 1.23 1.23s-.56 1.232-1.23 1.232a1.21 1.21 0 0 1-1.176-.84l.06-.056zM9.907 165.154c-.056 7.387 2.91 12.98 8.17 17.232 5.594 4.533 13.818 7.554 23.777 9.513.167.054.335.222.28.39-.057.167-.225.335-.392.28-10.07-2.016-18.35-5.09-24.06-9.68-5.426-4.364-8.503-10.184-8.448-17.793A1.443 1.443 0 0 1 8.17 163.7c0-.784.673-1.454 1.457-1.454s1.454.67 1.454 1.455c0 .673-.502 1.23-1.12 1.4l-.053.055zM289.09 4.75c.448 0 .84.39.84.84 0 .447-.392.838-.84.838s-.838-.39-.838-.838c0-.45.392-.84.84-.84zM46.388 192.234c.503 0 .895.392.895.895a.883.883 0 0 1-.895.894.885.885 0 0 1-.896-.896c0-.505.392-.896.897-.896zm-16.785 5.146c.504 0 .896.394.896.896s-.393.895-.897.895c-.503 0-.896-.39-.896-.893s.393-.896.896-.896zm36.758 5.204c.505 0 .896.392.896.895s-.39.894-.895.894c-.502 0-.895-.394-.895-.896s.392-.896.896-.896zm-44.48-8.727c.785 0 1.457.67 1.457 1.453 0 .785-.672 1.455-1.455 1.455s-1.454-.67-1.454-1.455v-.28c-9.735-4.42-16.337-10.518-19.023-18.35l-.056-.11c-6.38-18.52 10.24-42.97 42.296-67.588 9.12-7.05 19.582-14.042 31.052-20.98-.167-.39-.224-.84-.224-1.343 0-1.008.39-1.96 1.063-2.63.67-.67 1.622-1.065 2.63-1.065 1.006 0 1.957.394 2.63 1.064a3.883 3.883 0 0 1 1.062 2.63 3.712 3.712 0 0 1-1.064 2.627c-.672.673-1.623 1.064-2.63 1.064s-1.958-.39-2.63-1.063c-.223-.223-.39-.447-.56-.67-11.468 6.88-21.818 13.93-30.938 20.925-31.835 24.45-48.34 48.618-42.073 66.803l.056.11c2.685 7.61 9.12 13.597 18.63 17.904.28-.336.67-.56 1.12-.56l.112.056zm341.398-89.295c.673 0 1.232.56 1.232 1.23s-.56 1.232-1.233 1.232c-.67 0-1.23-.56-1.23-1.23s.56-1.232 1.23-1.232zm10.968-9.68a2.39 2.39 0 0 1 2.406 2.407 2.388 2.388 0 0 1-2.405 2.404 2.387 2.387 0 0 1-2.405-2.406 2.387 2.387 0 0 1 2.405-2.407zm10.642-6.99c-.447-.45-1.006-.673-1.677-.673s-1.23.277-1.68.67c-.445.448-.67 1.007-.67 1.678 0 .672.28 1.23.67 1.678.45.447 1.01.67 1.68.67s1.23-.278 1.678-.67c.45-.447.673-1.006.673-1.68 0-.67-.28-1.23-.672-1.676zM76.15 200.906c.672 0 1.232.28 1.68.67.446.45.67 1.01.67 1.68s-.28 1.23-.67 1.68c-.448.446-1.008.67-1.68.67-.67 0-1.23-.28-1.678-.67-.448-.448-.672-1.01-.672-1.68s.28-1.23.672-1.68c.448-.447 1.008-.67 1.678-.67zm1.12 1.23a1.56 1.56 0 0 0-1.12-.448c-.446 0-.837.168-1.118.45-.28.28-.447.67-.447 1.117s.167.84.447 1.12c.28.28.672.447 1.12.447.447 0 .84-.168 1.118-.447.28-.28.448-.673.448-1.12s-.168-.838-.448-1.118zM91.25 78.82a1.56 1.56 0 0 0-1.118-.448c-.447 0-.84.168-1.12.447-.28.28-.446.67-.446 1.12 0 .445.167.836.447 1.116s.67.45 1.12.45c.447 0 .838-.17 1.118-.45.28-.28.45-.67.45-1.118 0-.448-.17-.84-.45-1.12zm-11.04 5.75c-.56-.56-1.288-.838-2.07-.838a2.91 2.91 0 0 0-2.07.838c-.56.56-.84 1.288-.84 2.07 0 .84.336 1.567.84 2.07.56.56 1.287.84 2.07.84.838 0 1.566-.337 2.07-.84.56-.56.84-1.286.84-2.07 0-.838-.337-1.567-.84-2.07z"/><circle fill="#E73379" cx="341.739" cy="2.792" r="1.791"/><path fill="#BBCE32" d="M375.533 20.696a1.23 1.23 0 0 1 0 2.46 1.23 1.23 0 0 1 0-2.46z"/></svg>