<svg xmlns="http://www.w3.org/2000/svg" width="260" height="260" viewBox="-31.357 -14.693 260 260" overflow="visible"><path fill-rule="evenodd" clip-rule="evenodd" fill="#FFF" d="M2.375 153.863h-.002v13.655h.072c.412 2.82 2.61 5.695 6.523 7.98l75.19 43.89c8 4.67 20.24 5.164 27.206 1.1L190.31 174.4c3.147-1.836 4.698-4.3 4.72-6.88v-13.657h-.05c-.354-2.868-2.563-5.81-6.548-8.137l-75.19-43.89c-7.998-4.67-20.24-5.164-27.205-1.098L7.09 146.823c-3.21 1.873-4.76 4.402-4.715 7.04z"/><path fill-rule="evenodd" clip-rule="evenodd" fill="#B3B4B4" d="M0 153.863c0-.073.002-.146.01-.218.02-1.737.545-3.424 1.582-4.974.985-1.467 2.418-2.795 4.302-3.894L84.842 98.69c3.874-2.263 9.143-3.26 14.505-3.043 5.304.214 10.763 1.61 15.093 4.14l75.19 43.89c2.202 1.286 3.946 2.77 5.22 4.35 1.28 1.59 2.083 3.284 2.398 4.99.102.265.155.55.155.847v13.654c0 .09-.005.18-.015.267-.06 1.703-.602 3.348-1.635 4.853-.98 1.434-2.397 2.73-4.246 3.81l-78.947 46.087c-3.873 2.26-9.142 3.258-14.504 3.04-5.305-.212-10.764-1.61-15.094-4.138l-75.19-43.895c-2.167-1.265-3.89-2.715-5.15-4.256-1.238-1.52-2.042-3.134-2.402-4.773a2.35 2.35 0 0 1-.22-.998v-13.657zm4.746 0v13.073c.027.11.05.224.06.34.165.98.665 2 1.49 3.01.91 1.112 2.2 2.188 3.87 3.162l75.188 43.892c3.667 2.14 8.33 3.325 12.888 3.51 4.5.182 8.836-.608 11.927-2.412l78.946-46.086c1.236-.723 2.143-1.53 2.726-2.383.54-.79.813-1.62.823-2.45h-.01v-13.17a2.302 2.302 0 0 1-.04-.266c-.138-1.01-.627-2.06-1.456-3.09-.91-1.13-2.22-2.225-3.923-3.22l-75.19-43.892c-3.667-2.14-8.33-3.326-12.887-3.51-4.498-.18-8.836.61-11.926 2.413L8.284 148.87c-1.262.738-2.18 1.564-2.76 2.434-.54.804-.8 1.66-.786 2.52l.002.038h.006z"/><path fill-rule="evenodd" clip-rule="evenodd" fill="#F6F6F6" d="M86.038 113.53l-69.095 40.333H2.373v13.655h.072c.412 2.817 2.61 5.695 6.523 7.98l75.19 43.89c8 4.67 20.24 5.164 27.206 1.1L190.31 174.4c3.147-1.835 4.698-4.3 4.72-6.88v-13.657h-14.572l-67.215-39.236c-7.998-4.67-20.24-5.165-27.205-1.1z"/><path fill-rule="evenodd" clip-rule="evenodd" fill="#B3B4B4" d="M86.188 113.785L17.092 154.12l-.148.04H2.67v13.062h.03l.036.254c.205 1.384.857 2.785 1.952 4.124 1.063 1.3 2.545 2.54 4.43 3.64l75.19 43.894c3.957 2.31 8.97 3.588 13.852 3.784 4.877.197 9.622-.683 13.055-2.687l78.948-46.084c1.504-.878 2.633-1.9 3.39-3.008.78-1.137 1.17-2.364 1.182-3.618v-13.36H180.46l-.148-.04-67.216-39.238c-3.958-2.31-8.97-3.588-13.853-3.785-4.88-.197-9.623.684-13.055 2.687zm-69.325 39.78l69.025-40.292c3.532-2.062 8.393-2.967 13.376-2.767 4.978.2 10.087 1.505 14.13 3.864l67.145 39.195h14.785v14.25h-.01c-.064 1.27-.488 2.51-1.273 3.654-.81 1.18-2 2.26-3.58 3.184l-78.95 46.086c-3.53 2.062-8.39 2.968-13.376 2.767-4.976-.2-10.088-1.504-14.127-3.863l-75.19-43.89c-1.95-1.14-3.483-2.424-4.59-3.78-1.1-1.34-1.78-2.752-2.038-4.158h-.117v-14.25h14.787z"/><path fill-rule="evenodd" clip-rule="evenodd" fill="#FFF" d="M86.038 100.738L7.09 146.824c-6.965 4.066-6.12 11.213 1.88 15.88L84.16 206.6c7.998 4.67 20.24 5.162 27.205 1.097l78.948-46.085c6.964-4.066 6.118-11.213-1.88-15.883l-75.19-43.89c-7.998-4.67-20.24-5.166-27.205-1.1z"/><path fill-rule="evenodd" clip-rule="evenodd" fill="#B3B4B4" d="M86.188 100.994L7.24 147.08c-1.708.997-2.932 2.18-3.68 3.462-.628 1.073-.922 2.218-.89 3.384.028 1.166.39 2.362 1.07 3.53 1.047 1.79 2.847 3.516 5.378 4.993l75.19 43.89c3.956 2.31 8.968 3.59 13.85 3.785 4.878.197 9.623-.683 13.056-2.688l78.948-46.086c1.708-.996 2.932-2.18 3.68-3.46.626-1.075.922-2.22.89-3.384-.03-1.168-.39-2.363-1.072-3.532-1.045-1.79-2.846-3.515-5.377-4.992l-75.188-43.893c-3.958-2.31-8.97-3.588-13.853-3.785-4.877-.197-9.622.684-13.054 2.688zM6.94 146.568l78.948-46.086c3.532-2.062 8.393-2.968 13.377-2.766 4.977.2 10.086 1.505 14.13 3.863l75.187 43.89c2.624 1.53 4.494 3.332 5.59 5.207.73 1.253 1.117 2.545 1.152 3.816.033 1.275-.287 2.526-.97 3.695-.8 1.368-2.093 2.624-3.893 3.675l-78.946 46.086c-3.53 2.06-8.39 2.967-13.375 2.766-4.98-.2-10.09-1.505-14.13-3.863l-75.19-43.89c-2.623-1.533-4.494-3.33-5.59-5.207-.73-1.254-1.117-2.545-1.15-3.816-.036-1.276.286-2.527.967-3.696.8-1.37 2.095-2.626 3.894-3.676z"/><path fill-rule="evenodd" clip-rule="evenodd" fill="#FFF" d="M179.882 136.802v11.588h-.06c-.35 2.39-2.217 4.83-5.537 6.77l-63.797 37.24c-6.787 3.96-17.174 4.38-23.084.93l-66.987-39.104c-2.67-1.558-3.985-3.648-4.004-5.838V136.8h.044c.298-2.435 2.174-4.93 5.555-6.903l63.8-37.242c6.784-3.962 17.172-4.38 23.08-.93l66.99 39.102c2.723 1.59 4.037 3.737 4 5.975z"/><path fill-rule="evenodd" clip-rule="evenodd" fill="#B3B4B4" d="M182.246 136.578c.007.074.01.148.01.224v11.588c0 .34-.072.667-.203.96-.32 1.434-1.023 2.842-2.104 4.162-1.098 1.34-2.59 2.6-4.47 3.695L111.68 194.45c-3.725 2.172-8.418 3.374-12.974 3.56-4.615.184-9.156-.678-12.503-2.63L19.22 156.275c-1.615-.942-2.854-2.08-3.72-3.34-.905-1.324-1.386-2.773-1.444-4.274-.01-.09-.017-.18-.017-.272v-11.588c0-.288.05-.563.144-.82.283-1.492.986-2.97 2.102-4.355 1.106-1.376 2.623-2.664 4.528-3.776l63.798-37.24c3.725-2.175 8.418-3.376 12.975-3.56 4.615-.186 9.154.675 12.502 2.63l66.985 39.103c1.646.96 2.902 2.126 3.768 3.417.913 1.36 1.378 2.847 1.402 4.378zm-4.736 10.934v-10.71h.008v-.037c.012-.656-.19-1.313-.604-1.935-.464-.69-1.202-1.354-2.23-1.953L107.7 93.773c-2.56-1.495-6.172-2.15-9.924-1.998-3.81.154-7.707 1.143-10.768 2.93l-63.8 37.242c-1.41.822-2.486 1.723-3.228 2.646-.66.82-1.05 1.646-1.16 2.435a2.876 2.876 0 0 1-.03.227v11.136h-.01c.01.634.22 1.27.636 1.88.467.677 1.196 1.327 2.2 1.91L88.6 191.285c2.56 1.495 6.17 2.15 9.924 2 3.81-.155 7.707-1.144 10.768-2.93l63.798-37.243c1.378-.803 2.44-1.686 3.188-2.6.656-.8 1.052-1.606 1.186-2.37.01-.098.025-.19.047-.286v-.34z"/><path fill-rule="evenodd" clip-rule="evenodd" fill="#F6F6F6" d="M108.893 102.578l58.627 34.224h12.363v11.588h-.06c-.352 2.39-2.218 4.83-5.538 6.77l-63.797 37.24c-6.787 3.96-17.174 4.38-23.084.93l-66.987-39.104c-2.67-1.558-3.985-3.648-4.004-5.838V136.8h12.364l57.033-33.292c6.786-3.96 17.173-4.38 23.083-.93z"/><path fill-rule="evenodd" clip-rule="evenodd" fill="#B3B4B4" d="M109.044 102.323l58.557 34.183h12.58v12.178h-.106c-.225 1.188-.803 2.382-1.73 3.513-.942 1.154-2.247 2.248-3.906 3.217l-63.8 37.242c-3.432 2.005-7.776 3.113-12.007 3.284-4.235.172-8.37-.6-11.374-2.353L20.27 154.483c-1.348-.785-2.365-1.71-3.054-2.715-.662-.967-1.023-2.01-1.086-3.083h-.012v-12.18h12.58l56.962-33.252c3.435-2.005 7.778-3.114 12.01-3.285 4.236-.17 8.37.6 11.374 2.355zm58.327 34.736l-58.624-34.226c-2.907-1.696-6.923-2.44-11.053-2.274-4.138.168-8.382 1.25-11.734 3.207L28.925 137.06l-.148.04H16.71v11.29c.008 1.057.337 2.09.994 3.047.64.934 1.593 1.796 2.862 2.537l66.986 39.104c2.906 1.697 6.922 2.44 11.053 2.275 4.137-.166 8.383-1.25 11.734-3.205l63.795-37.242c1.597-.932 2.848-1.98 3.747-3.08.923-1.13 1.474-2.312 1.646-3.477l.036-.255h.02v-10.992H167.52l-.15-.04z"/><path fill-rule="evenodd" clip-rule="evenodd" fill="#FFF" d="M108.893 91.725l66.988 39.103c5.91 3.45 5.194 9.514-1.594 13.476l-63.797 37.243c-6.788 3.96-17.175 4.38-23.085.93l-66.987-39.104c-5.91-3.45-5.192-9.514 1.595-13.475l63.8-37.243c6.784-3.96 17.17-4.38 23.08-.93z"/><path fill-rule="evenodd" clip-rule="evenodd" fill="#B3B4B4" d="M109.043 91.47l66.986 39.103c1.53.896 2.637 1.967 3.32 3.135.58 1 .854 2.068.826 3.16-.03 1.086-.36 2.19-.984 3.26-.933 1.6-2.525 3.13-4.758 4.434l-63.8 37.242c-3.432 2.005-7.776 3.113-12.007 3.284-4.236.17-8.37-.6-11.375-2.354L20.268 143.63c-1.533-.896-2.637-1.968-3.318-3.135a5.91 5.91 0 0 1-.83-3.16c.03-1.087.36-2.19.984-3.26.934-1.598 2.526-3.13 4.758-4.433L85.66 92.4c3.434-2.005 7.777-3.114 12.01-3.284 4.236-.17 8.37.6 11.373 2.353zm66.687 39.615L108.745 91.98c-2.907-1.695-6.923-2.44-11.053-2.274-4.138.167-8.382 1.25-11.734 3.206L22.16 130.154c-2.14 1.25-3.66 2.707-4.544 4.22-.575.985-.88 1.992-.905 2.976-.024.98.225 1.943.75 2.847.63 1.08 1.666 2.08 3.107 2.92l66.986 39.105c2.906 1.697 6.922 2.44 11.053 2.275 4.137-.166 8.383-1.25 11.734-3.205l63.796-37.242c2.14-1.25 3.662-2.71 4.545-4.22.576-.986.88-1.993.906-2.976a5.287 5.287 0 0 0-.75-2.848c-.63-1.08-1.662-2.078-3.105-2.92z"/><path fill-rule="evenodd" clip-rule="evenodd" fill="#B3B4B4" d="M15.83 134.136V57.923l.002-.004c.076-4.946.647-8.59 2.23-11.606 1.586-3.023 4.178-5.393 8.296-7.777l30.674-17.63 29.605-17.01.004-.002C90.98 1.49 94.435.157 97.85.015c3.42-.145 6.778.905 10.914 3.263l30.675 17.63 29.597 17.012.006.002c4.263 2.54 7.15 4.854 8.98 7.725 1.837 2.878 2.602 6.298 2.616 11.043v78.59h-.595V56.69c-.014-4.626-.753-7.948-2.525-10.726-1.774-2.784-4.6-5.043-8.782-7.535l-29.596-17.01-30.674-17.63C104.434 1.49 101.175.463 97.873.6c-3.308.14-6.686 1.445-10.944 3.806h-.004L57.33 21.42 26.658 39.05c-4.02 2.326-6.54 4.624-8.07 7.538-1.533 2.92-2.086 6.485-2.163 11.335v76.212h-.594z"/><path fill-rule="evenodd" clip-rule="evenodd" fill="#FFF" d="M153.62 57.297L97.75 24.752c-1.695-.986-2.51-.67-3.89.165L90.416 27c-1.993 1.205-2.92 1.702-2.92 4.658v62.357c0 3.593 2.194 7.81 4.878 9.374l55.873 32.542c1.635.952 2.607.644 3.966-.18l4.077-2.476c1.663-1.01 2.207-1.912 2.207-4.25V66.67c0-3.593-2.194-7.81-4.876-9.373z"/><path fill-rule="evenodd" clip-rule="evenodd" fill="#BBCE32" d="M152.435 59.346L96.56 26.8c-.374-.217-.56-.302-.634-.293-.12.012-.422.186-.844.44L91.64 29.03l-.124.074c-1.124.68-1.646.995-1.646 2.554v62.357c0 1.41.445 2.975 1.164 4.354.69 1.325 1.588 2.42 2.527 2.97l55.875 32.543c.35.203.553.28.667.27.188-.02.49-.182.89-.424l4.075-2.476c.467-.283.754-.504.867-.72.14-.257.192-.73.192-1.51V66.67c0-1.412-.445-2.975-1.163-4.354-.69-1.326-1.59-2.423-2.525-2.97zm-53.5-36.642l55.873 32.544c1.743 1.016 3.284 2.81 4.362 4.88 1.05 2.02 1.7 4.362 1.7 6.543v62.358c0 1.56-.218 2.706-.767 3.735-.574 1.074-1.396 1.81-2.592 2.537l-4.074 2.473c-.96.582-1.823.987-2.87 1.09-1.12.112-2.224-.134-3.506-.88l-55.873-32.545c-1.744-1.016-3.286-2.81-4.363-4.88-1.05-2.018-1.703-4.36-1.703-6.542V31.658c0-4.23 1.256-4.988 3.95-6.615l.122-.073 3.444-2.083c.957-.578 1.752-.98 2.81-1.09 1.102-.112 2.17.14 3.49.907z"/><path fill-rule="evenodd" clip-rule="evenodd" fill="#E5EDD0" d="M153.62 57.297L97.75 24.752c-1.217-.71-2.334-.754-3.19-.257l-5.013 3.03 1.4 2.575v61.938c0 3.593 2.196 7.81 4.88 9.373l54.286 31.623 1.634 3.003 4.883-2.964c.127-.06.25-.13.366-.213h.002v-.003c.925-.65 1.502-1.985 1.502-3.83V66.67c0-3.593-2.194-7.81-4.876-9.373z"/><path fill-rule="evenodd" clip-rule="evenodd" fill="#BBCE32" d="M153.473 57.553L97.6 25.008c-.56-.325-1.088-.5-1.575-.54s-.93.06-1.313.28l-4.77 2.883 1.265 2.328.04.14v61.94c0 1.748.534 3.652 1.397 5.31.86 1.653 2.04 3.055 3.33 3.808l54.287 31.62.113.114 1.485 2.73 4.617-2.804.028-.015c.053-.022.106-.052.162-.084.044-.024.092-.057.143-.09l.018-.015c.424-.297.77-.76 1.008-1.37.237-.604.37-1.35.37-2.217V66.67c0-1.75-.537-3.653-1.4-5.312-.86-1.65-2.04-3.054-3.33-3.805zM97.896 24.496L153.77 57.04c1.39.81 2.65 2.3 3.558 4.045.904 1.74 1.466 3.74 1.466 5.585v62.355c0 .94-.146 1.76-.41 2.433-.26.66-.633 1.183-1.092 1.546v.012l-.132.088h-.002c-.06.04-.126.084-.197.125-.06.035-.125.07-.194.103l-4.866 2.954-.266.162-.148-.274-1.593-2.93-54.217-31.58c-1.392-.81-2.65-2.297-3.56-4.042-.903-1.74-1.467-3.742-1.467-5.585V30.17l-1.365-2.506-.136-.25.24-.146 5.013-3.03.005-.002a2.8 2.8 0 0 1 1.66-.36c.575.046 1.19.247 1.826.618z"/><path fill-rule="evenodd" clip-rule="evenodd" fill="#FFF" d="M148.246 60.512L92.373 27.967c-2.682-1.563-4.88.1-4.88 3.69v62.357c0 3.59 2.198 7.81 4.88 9.373l55.873 32.544c2.684 1.564 4.877-.096 4.877-3.687V69.885c0-3.593-2.195-7.81-4.877-9.373z"/><path fill-rule="evenodd" clip-rule="evenodd" fill="#BBCE32" d="M148.098 60.768L92.225 28.223c-.637-.37-1.24-.547-1.783-.547-.426 0-.814.108-1.152.316a2.6 2.6 0 0 0-.88.93c-.392.673-.618 1.6-.618 2.735v62.357c0 1.748.537 3.652 1.4 5.31.86 1.654 2.04 3.056 3.33 3.807l55.873 32.546c.638.37 1.24.547 1.785.547.424 0 .812-.108 1.15-.315.346-.21.643-.524.88-.93.392-.675.617-1.6.617-2.735V69.885c0-1.748-.536-3.653-1.398-5.31-.863-1.653-2.04-3.055-3.333-3.807zM92.52 27.71l55.874 32.546c1.39.81 2.65 2.3 3.56 4.045.904 1.74 1.467 3.74 1.467 5.585v62.357c0 1.242-.255 2.27-.697 3.033a3.19 3.19 0 0 1-1.082 1.138 2.75 2.75 0 0 1-1.46.405c-.644 0-1.35-.202-2.08-.628l-55.874-32.545c-1.39-.81-2.65-2.3-3.56-4.044-.903-1.737-1.468-3.74-1.468-5.583v-62.36c0-1.24.257-2.27.7-3.032.288-.492.655-.877 1.083-1.138a2.77 2.77 0 0 1 1.46-.404c.645 0 1.35.2 2.08.628z"/><path fill-rule="evenodd" clip-rule="evenodd" fill="#E94C6D" d="M94.32 33.335c1.753 1.02 3.175 3.604 3.175 5.774s-1.422 3.102-3.175 2.083c-1.752-1.02-3.174-3.604-3.174-5.775s1.422-3.104 3.174-2.085z"/><path fill-rule="evenodd" clip-rule="evenodd" fill="#2EBCE3" d="M103.177 38.537c1.753 1.02 3.174 3.604 3.174 5.775 0 2.17-1.42 3.104-3.172 2.084-1.753-1.02-3.174-3.604-3.174-5.774s1.42-3.103 3.174-2.085z"/><path fill-rule="evenodd" clip-rule="evenodd" fill="#BBCE32" d="M112.045 44.03c1.754 1.02 3.174 3.604 3.174 5.775 0 2.17-1.42 3.104-3.176 2.085-1.752-1.02-3.172-3.604-3.172-5.774 0-2.172 1.42-3.105 3.172-2.086z"/><path fill-rule="evenodd" clip-rule="evenodd" fill="#FFF" d="M129.123 71.257L73.25 38.712c-1.217-.71-2.334-.754-3.188-.257l-5.013 3.03.004.01c-1.242.465-2.057 1.937-2.057 4.123v62.357c0 3.593 2.194 7.81 4.878 9.374l55.874 32.543c1.356.79 2.59.756 3.475.063l.022.04 4.883-2.965c.128-.06.25-.13.366-.212l.002-.003c.925-.652 1.503-1.986 1.503-3.83V80.63c0-3.593-2.194-7.81-4.876-9.373z"/><path fill-rule="evenodd" clip-rule="evenodd" fill="#2EBCE3" d="M127.938 73.306L72.063 40.76c-.28-.162-.514-.247-.697-.262a.497.497 0 0 0-.104 0l-4.827 2.92a2.485 2.485 0 0 1-.572.302c-.053.033-.12.13-.2.288-.186.373-.29.915-.29 1.61v62.357c0 1.412.446 2.975 1.164 4.355.688 1.326 1.588 2.423 2.526 2.97l55.873 32.545c.31.18.557.27.732.27a.166.166 0 0 0 .102-.022c.205-.158.426-.278.655-.36l4.48-2.722.167-.09c.034-.024.068-.05.103-.072.08-.075.156-.21.23-.397.143-.363.223-.853.223-1.46V80.63c0-1.41-.446-2.974-1.165-4.354-.69-1.327-1.587-2.424-2.525-2.97zm-53.5-36.643l55.873 32.545c1.744 1.015 3.286 2.81 4.363 4.88 1.05 2.018 1.702 4.36 1.702 6.542v62.356c0 1.2-.198 2.273-.558 3.187-.412 1.053-1.04 1.897-1.834 2.492a2.565 2.565 0 0 1-.133.1c-.09.062-.202.133-.35.218l-.002-.003a4.288 4.288 0 0 1-.28.153l-4.662 2.83c-.057.04-.117.075-.178.11a2.79 2.79 0 0 1-.222.104 4.79 4.79 0 0 1-2.563.666c-.984-.018-2.012-.31-3.03-.902L66.69 119.398c-1.745-1.016-3.286-2.81-4.363-4.88-1.05-2.018-1.703-4.36-1.703-6.542V45.617c0-1.448.286-2.71.79-3.724.567-1.132 1.4-1.968 2.437-2.455l4.987-3.014v.002l.037-.02a4.842 4.842 0 0 1 2.86-.638c.876.072 1.788.363 2.703.895zm56.683 108.23v.002c-.014.007-.005 0 0-.002z"/><path fill-rule="evenodd" clip-rule="evenodd" fill="#EAF2F7" d="M129.123 71.257L73.25 38.712c-1.217-.71-2.334-.754-3.188-.257l-5.013 3.03 1.4 2.575v61.938c0 3.593 2.193 7.81 4.876 9.374l54.288 31.62 1.633 3.003 4.883-2.964c.128-.06.25-.13.366-.21l.002-.002c.925-.652 1.503-1.987 1.503-3.83V80.63c0-3.593-2.194-7.81-4.876-9.373z"/><path fill-rule="evenodd" clip-rule="evenodd" fill="#2EBCE3" d="M128.976 71.513L73.103 38.968c-.557-.324-1.09-.5-1.575-.54-.486-.04-.93.06-1.312.28l-4.772 2.884 1.266 2.326.038.14V106c0 1.748.537 3.652 1.398 5.31.86 1.652 2.04 3.056 3.33 3.807l54.29 31.62.108.116 1.487 2.73 4.618-2.804.03-.015a1.87 1.87 0 0 0 .157-.085h.002c.043-.025.087-.053.13-.082l.032-.023c.422-.298.767-.763 1.007-1.37.236-.605.37-1.35.37-2.217V80.63c0-1.748-.538-3.652-1.4-5.312-.86-1.65-2.04-3.053-3.33-3.805zM73.398 38.456L129.27 71c1.392.81 2.653 2.3 3.562 4.045.904 1.738 1.466 3.74 1.466 5.584v62.354c0 .94-.147 1.76-.41 2.432-.26.66-.633 1.182-1.093 1.546v.004l-.088.062-.04.027-.002.002c-.063.044-.132.09-.202.128-.063.035-.125.07-.19.1l-4.87 2.96-.266.16-.147-.273-1.595-2.93-54.216-31.58c-1.393-.81-2.653-2.298-3.56-4.043-.906-1.74-1.47-3.74-1.47-5.586v-61.86l-1.362-2.508-.136-.25.24-.145 5.014-3.03h.005a2.804 2.804 0 0 1 1.663-.36c.572.046 1.188.246 1.823.617z"/><path fill-rule="evenodd" clip-rule="evenodd" fill="#FFF" d="M123.75 74.47L67.876 41.928c-2.682-1.562-4.878.1-4.878 3.69v62.357c0 3.592 2.195 7.81 4.878 9.373l55.874 32.546c2.684 1.56 4.878-.1 4.878-3.69v-62.36c0-3.593-2.197-7.812-4.878-9.374z"/><path fill-rule="evenodd" clip-rule="evenodd" fill="#2EBCE3" d="M123.974 74.728L67.76 42.182c-.644-.37-1.25-.547-1.795-.547-.43 0-.82.11-1.162.316-.345.21-.646.526-.883.93-.394.676-.622 1.603-.622 2.737v62.357c0 1.748.54 3.652 1.407 5.31.866 1.653 2.053 3.056 3.352 3.808l56.214 32.545c.645.372 1.25.547 1.798.547.427 0 .82-.108 1.16-.315a2.58 2.58 0 0 0 .883-.93c.395-.675.623-1.603.623-2.737V83.846c0-1.748-.54-3.652-1.408-5.31-.864-1.653-2.052-3.056-3.35-3.807zM68.057 41.67l56.214 32.545c1.4.81 2.67 2.3 3.584 4.044.91 1.737 1.477 3.74 1.477 5.582V146.2c0 1.24-.26 2.27-.703 3.032-.29.492-.66.876-1.09 1.138-.435.265-.93.404-1.47.404-.646 0-1.356-.202-2.093-.628L67.76 117.6c-1.4-.81-2.67-2.3-3.584-4.044-.91-1.74-1.476-3.74-1.476-5.584V45.617c0-1.24.258-2.27.706-3.032a3.206 3.206 0 0 1 1.086-1.14 2.812 2.812 0 0 1 1.472-.403c.648 0 1.356.202 2.093.628z"/><path fill-rule="evenodd" clip-rule="evenodd" fill="#E94C6D" d="M69.822 47.294c1.756 1.02 3.176 3.604 3.176 5.775s-1.42 3.102-3.176 2.082c-1.752-1.02-3.172-3.604-3.172-5.774s1.42-3.104 3.172-2.086z"/><path fill-rule="evenodd" clip-rule="evenodd" fill="#2EBCE3" d="M78.68 52.497c1.752 1.02 3.174 3.604 3.174 5.774 0 2.173-1.422 3.106-3.174 2.088-1.754-1.02-3.174-3.604-3.174-5.775 0-2.17 1.42-3.104 3.174-2.085z"/><path fill-rule="evenodd" clip-rule="evenodd" fill="#BBCE32" d="M87.55 57.99c1.753 1.018 3.173 3.603 3.173 5.774 0 2.17-1.42 3.104-3.174 2.085-1.755-1.02-3.176-3.606-3.176-5.777 0-2.17 1.42-3.104 3.174-2.085z"/><path fill-rule="evenodd" clip-rule="evenodd" fill="#FFF" d="M103.426 86.296L47.553 53.75c-1.215-.708-2.33-.753-3.19-.256l-5.012 3.03.01.01c-1.243.464-2.056 1.936-2.056 4.123v62.356c0 3.594 2.193 7.81 4.877 9.373l55.874 32.545c1.356.793 2.59.758 3.478.066l.022.04 4.884-2.966c.126-.06.248-.132.363-.214h.003c.925-.653 1.504-1.987 1.504-3.832V95.67c0-3.593-2.198-7.812-4.88-9.374z"/><path fill-rule="evenodd" clip-rule="evenodd" fill="#B3B4B4" d="M102.24 88.345L46.365 55.8c-.278-.163-.513-.25-.698-.263a.494.494 0 0 0-.104 0l-4.83 2.92a2.417 2.417 0 0 1-.568.3c-.05.03-.12.13-.2.29-.186.37-.29.913-.29 1.61v62.354c0 1.414.445 2.977 1.164 4.357.69 1.326 1.586 2.423 2.525 2.97L99.24 162.88c.31.182.555.27.73.273.046 0 .083-.01.104-.024.202-.16.425-.28.654-.363l4.482-2.72a1.76 1.76 0 0 1 .164-.092c.033-.025.067-.05.104-.074.077-.073.156-.21.23-.396.143-.364.223-.854.223-1.462V95.67c0-1.412-.445-2.976-1.163-4.355-.69-1.326-1.588-2.423-2.527-2.97zm-53.5-36.642l55.873 32.544c1.743 1.016 3.284 2.81 4.36 4.88 1.052 2.02 1.704 4.362 1.704 6.543v62.356c0 1.2-.2 2.273-.557 3.187-.422 1.075-1.068 1.932-1.885 2.528-.06.048-.12.09-.184.13h-.004l-.072.046a2.27 2.27 0 0 1-.168.107 4.897 4.897 0 0 1-.29.155l-4.656 2.827a2.748 2.748 0 0 1-.4.213 4.797 4.797 0 0 1-2.565.667c-.982-.018-2.012-.31-3.03-.903L40.99 134.435c-1.743-1.015-3.283-2.81-4.36-4.88-1.05-2.017-1.702-4.36-1.702-6.542V60.657c0-1.45.286-2.71.792-3.725.564-1.13 1.398-1.966 2.432-2.454l4.987-3.016v.003l.036-.02a4.84 4.84 0 0 1 2.86-.637c.877.07 1.79.362 2.702.895z"/><path fill-rule="evenodd" clip-rule="evenodd" fill="#F6F6F6" d="M103.426 86.296L47.553 53.75c-1.215-.708-2.33-.753-3.19-.256l-5.01 3.03 1.4 2.575v61.936c0 3.594 2.194 7.812 4.876 9.374l54.286 31.62 1.634 3.005 4.885-2.965c.126-.06.248-.13.363-.213h.003v-.002c.927-.65 1.506-1.986 1.506-3.83V95.67c0-3.593-2.197-7.812-4.88-9.374z"/><path fill-rule="evenodd" clip-rule="evenodd" fill="#B3B4B4" d="M103.277 86.552L47.404 54.007c-.557-.324-1.087-.5-1.573-.54-.485-.04-.93.06-1.312.28l-4.77 2.883 1.265 2.326.037.142v61.938c0 1.748.535 3.654 1.398 5.312.86 1.65 2.04 3.055 3.33 3.806l54.287 31.62.11.115 1.486 2.73 4.62-2.807.028-.014c.05-.025.105-.054.16-.085v-.002a1.43 1.43 0 0 0 .13-.08l.032-.023c.423-.298.77-.762 1.007-1.37.236-.604.37-1.35.37-2.217V95.67c0-1.75-.538-3.653-1.4-5.312-.86-1.652-2.04-3.054-3.33-3.806zM47.7 53.496l55.874 32.545c1.393.81 2.65 2.3 3.56 4.047.904 1.738 1.468 3.74 1.468 5.584v62.357c0 .94-.148 1.76-.41 2.432-.26.66-.633 1.182-1.094 1.545v.005l-.088.06-.037.028h-.003v.002a2.707 2.707 0 0 1-.394.23l-4.872 2.958-.264.16-.148-.27-1.593-2.93-54.22-31.58c-1.39-.81-2.65-2.3-3.56-4.045-.904-1.74-1.466-3.74-1.466-5.586V59.172l-1.364-2.507-.134-.25.24-.145 5.014-3.03.005-.002c.49-.284 1.05-.41 1.66-.36.574.045 1.19.247 1.826.618z"/><path fill-rule="evenodd" clip-rule="evenodd" fill="#FFF" d="M98.053 89.51L42.18 56.967c-2.682-1.562-4.877.1-4.877 3.69v62.357c0 3.592 2.193 7.81 4.877 9.373l55.873 32.545c2.683 1.563 4.877-.097 4.877-3.69V98.884c0-3.593-2.196-7.81-4.877-9.373z"/><path fill-rule="evenodd" clip-rule="evenodd" fill="#B3B4B4" d="M98.114 89.767L42.05 57.222c-.64-.37-1.246-.547-1.79-.547-.426 0-.818.11-1.158.316a2.59 2.59 0 0 0-.88.93c-.396.676-.622 1.603-.622 2.738v62.356c0 1.748.537 3.652 1.403 5.31.863 1.653 2.047 3.056 3.343 3.807l56.065 32.547c.643.37 1.248.547 1.79.547.43 0 .82-.11 1.16-.316.344-.21.643-.523.88-.93.394-.674.62-1.6.62-2.736V98.885c0-1.748-.538-3.652-1.405-5.31-.86-1.653-2.045-3.055-3.34-3.807zM42.347 56.71l56.065 32.545c1.396.81 2.66 2.3 3.57 4.045.908 1.74 1.473 3.74 1.473 5.584v62.356c0 1.242-.256 2.27-.702 3.033a3.19 3.19 0 0 1-1.083 1.14 2.8 2.8 0 0 1-1.468.403c-.645 0-1.353-.203-2.088-.63L42.05 132.643c-1.397-.81-2.662-2.3-3.574-4.045-.907-1.738-1.47-3.74-1.47-5.584V60.657c0-1.24.255-2.27.702-3.033a3.2 3.2 0 0 1 1.086-1.138 2.78 2.78 0 0 1 1.466-.405c.646.003 1.35.205 2.087.63z"/><path fill-rule="evenodd" clip-rule="evenodd" fill="#B3B4B4" d="M37.153 87.532a.295.295 0 1 1 .297-.51l65.628 38.15c.142.083.19.265.107.405a.295.295 0 0 1-.404.108L37.155 87.532zM42.793 75.704l43.353 25.282c.5.29.948.818 1.27 1.433.315.606.513 1.31.513 1.956v3.28c0 .45-.098.83-.264 1.113-.113.193-.26.345-.432.45a1.1 1.1 0 0 1-.592.165c-.25 0-.518-.076-.793-.237L42.495 83.865h-.002c-.498-.29-.946-.82-1.268-1.434-.316-.605-.514-1.31-.514-1.956v-3.28c0-.45.096-.828.262-1.113.113-.192.26-.345.43-.45.177-.107.377-.165.594-.165.248 0 .518.077.795.238zM85.85 101.5L42.496 76.216a1.02 1.02 0 0 0-.498-.157.534.534 0 0 0-.285.076.68.68 0 0 0-.226.242c-.114.195-.18.472-.18.816v3.28c0 .552.17 1.156.445 1.683.27.52.642.96 1.04 1.194l43.353 25.283a1 1 0 0 0 .497.156.54.54 0 0 0 .284-.078.68.68 0 0 0 .228-.243c.113-.197.18-.474.18-.817v-3.28c0-.552-.17-1.156-.447-1.685-.27-.52-.64-.96-1.037-1.19zM94.192 105.275c.763.442 1.446 1.215 1.935 2.104.485.883.787 1.896.787 2.826 0 .61-.13 1.123-.357 1.515a1.812 1.812 0 0 1-.643.66c-.262.158-.56.24-.883.24-.396 0-.832-.126-1.28-.387-.764-.442-1.448-1.215-1.937-2.104-.486-.886-.787-1.9-.787-2.83 0-.61.13-1.12.357-1.514.166-.285.383-.507.643-.66.26-.155.56-.236.883-.236.4 0 .833.123 1.283.385zm1.156 2.532c-.416-.755-.982-1.404-1.6-1.764-.31-.178-.593-.264-.84-.264v-.004c-.16 0-.307.04-.43.113a.91.91 0 0 0-.328.34c-.148.26-.234.62-.234 1.07 0 .78.258 1.64.676 2.4.416.756.982 1.404 1.6 1.763.31.18.594.264.84.264.162 0 .31-.038.432-.11a.926.926 0 0 0 .325-.342c.147-.26.233-.62.233-1.07 0-.778-.258-1.64-.676-2.4z"/><path fill-rule="evenodd" clip-rule="evenodd" fill="#B3B4B4" d="M95.36 112.21c-.116-.216-.038-.486.177-.605s.484-.04.604.176l2.4 4.366a.445.445 0 0 1-.176.604.447.447 0 0 1-.604-.177l-2.4-4.364zM103.077 125.685a.296.296 0 0 1-.403-.11.297.297 0 0 1 .11-.402l6.82-3.938a.293.293 0 0 1 .403.11.29.29 0 0 1-.11.4l-6.82 3.94z"/><path fill-rule="evenodd" clip-rule="evenodd" fill="#E94C6D" d="M44.127 62.334c1.752 1.02 3.174 3.604 3.174 5.774s-1.42 3.104-3.172 2.085c-1.752-1.018-3.174-3.604-3.174-5.775 0-2.17 1.422-3.103 3.174-2.084z"/><path fill-rule="evenodd" clip-rule="evenodd" fill="#2EBCE3" d="M52.983 67.537c1.75 1.02 3.173 3.604 3.173 5.774s-1.422 3.106-3.173 2.087c-1.753-1.02-3.175-3.604-3.175-5.775 0-2.17 1.422-3.102 3.175-2.083z"/><path fill-rule="evenodd" clip-rule="evenodd" fill="#BBCE32" d="M61.853 73.03c1.753 1.018 3.173 3.603 3.173 5.773 0 2.17-1.42 3.104-3.173 2.085-1.753-1.02-3.175-3.604-3.175-5.774s1.422-3.104 3.175-2.085z"/><path fill-rule="evenodd" clip-rule="evenodd" fill="#2EBCE3" d="M43.845 97.17l11.894 6.914c.826.48 1.502 1.778 1.502 2.884v14.43c0 1.106-.676 1.618-1.504 1.137l-11.895-6.915c-.826-.48-1.502-1.776-1.502-2.883v-14.43c0-1.107.677-1.618 1.503-1.138z"/><path fill-rule="evenodd" clip-rule="evenodd" fill="#2EBCE3" d="M44.066 96.786l11.896 6.914c.487.285.923.794 1.232 1.387l.016.034c.293.578.477 1.24.477 1.85v14.43c0 .445-.098.822-.264 1.11a1.37 1.37 0 0 1-.455.475c-.19.116-.405.177-.635.177-.26 0-.537-.078-.818-.24l-11.894-6.915c-.486-.283-.923-.793-1.23-1.387l-.017-.033c-.295-.576-.475-1.236-.475-1.848V98.31c0-.446.094-.824.263-1.11.117-.205.273-.365.456-.478.19-.115.403-.176.634-.176.26 0 .535.078.816.242zm11.45 7.682l-11.894-6.915a.78.78 0 0 0-.372-.12.335.335 0 0 0-.173.045.463.463 0 0 0-.147.163c-.092.157-.143.38-.143.667v14.43c0 .472.143.988.374 1.44l.02.03c.235.453.552.832.89 1.028l11.894 6.915c.14.08.268.12.37.12v-.002a.332.332 0 0 0 .173-.045.465.465 0 0 0 .15-.162c.088-.152.14-.38.14-.662v-14.43c0-.473-.142-.99-.372-1.442l-.018-.03c-.236-.45-.552-.83-.89-1.027z"/><path fill-rule="evenodd" clip-rule="evenodd" fill="#FFF" d="M49.79 111.406c2.357 1.37 4.313 4.488 4.68 7.3l-9.355-5.44c.367-2.383 2.323-3.23 4.676-1.86zm0-6.475c-1.216-.707-2.204-.06-2.204 1.45s.988 3.31 2.205 4.017c1.22.708 2.21.06 2.21-1.45s-.988-3.307-2.208-4.015z"/><path fill-rule="evenodd" clip-rule="evenodd" fill="#D9DADA" d="M68.693 128.99l27.144 15.754v1.306l-27.144-15.753M68.693 132.16l27.144 15.753v1.306l-27.144-15.756M68.693 138.496l12.836 7.445v1.308L68.69 139.8M68.693 135.328l27.144 15.753v1.308l-27.144-15.754M68.693 122.857l17.557 10.19v2.612l-17.557-10.19"/><path fill-rule="evenodd" clip-rule="evenodd" fill="#B3B4B4" d="M43.3 120.862l13.767 8.003c.34.196.64.55.854.96.213.403.34.87.34 1.303v2.1c0 .308-.063.567-.18.767a.898.898 0 0 1-.31.326.817.817 0 0 1-.435.123 1.14 1.14 0 0 1-.563-.166l-13.765-8.004c-.336-.195-.638-.55-.852-.96h-.002c-.208-.403-.34-.87-.34-1.303v-2.1c0-.31.067-.568.183-.767a.9.9 0 0 1 .31-.326.835.835 0 0 1 .437-.122c.176 0 .366.055.56.167zm13.47 8.515l-13.766-8.002a.522.522 0 0 0-.266-.086.237.237 0 0 0-.127.03.357.357 0 0 0-.107.12c-.062.11-.1.27-.1.47v2.1c0 .335.105.704.274 1.03.164.314.386.58.623.72l13.766 8.002c.1.058.19.085.267.085.048 0 .09-.012.126-.033a.33.33 0 0 0 .105-.117.96.96 0 0 0 .1-.47v-2.1a2.3 2.3 0 0 0-.272-1.03c-.165-.317-.386-.583-.624-.72z"/><path fill-rule="evenodd" clip-rule="evenodd" fill="#B3B4B4" d="M53.65 127.394a.297.297 0 0 1 .594 0v4.897a.297.297 0 0 1-.594 0v-4.894zM55.91 131.637l.252-.393.25-.394-.502-.293-.504-.293.252.687"/><path fill-rule="evenodd" clip-rule="evenodd" fill="#B3B4B4" d="M56.535 131.482l-.235.37a.445.445 0 0 1-.806-.062l-.253-.688-.25-.687a.443.443 0 0 1 .64-.538l.503.29.504.294.016.01a.444.444 0 0 1 .135.612l-.253.397z"/><path fill-rule="evenodd" clip-rule="evenodd" fill="#D9DADA" d="M62.877 102.54a.296.296 0 0 1 .594 0v41.242a.296.296 0 0 1-.592 0V102.54z"/><path fill-rule="evenodd" clip-rule="evenodd" fill="#D9DADA" d="M62.73 112.857a.295.295 0 0 1 .292-.513l39.48 22.794c.14.08.19.262.108.402a.294.294 0 0 1-.402.11l-39.48-22.793zM78.817 114.795c.9.523 1.632 1.854 1.632 2.97 0 1.115-.73 1.597-1.634 1.072l-10.38-6.025c-.9-.524-1.633-1.854-1.633-2.97s.732-1.597 1.634-1.073l10.38 6.024zM85.024 118.484c.9.525 1.632 1.854 1.632 2.97s-.73 1.597-1.632 1.073c-.9-.524-1.634-1.854-1.634-2.97s.733-1.595 1.634-1.073zM90.746 121.575c.9.524 1.632 1.854 1.632 2.97 0 1.115-.73 1.597-1.632 1.072-.9-.523-1.633-1.854-1.633-2.97s.732-1.595 1.633-1.072zM96.496 124.866c.902.523 1.63 1.854 1.63 2.97 0 1.115-.728 1.596-1.63 1.072-.9-.523-1.633-1.854-1.633-2.97s.732-1.596 1.633-1.072z"/></svg>