<svg xmlns="http://www.w3.org/2000/svg" width="260" height="260" viewBox="-49.287 -11.048 260 260" overflow="visible"><path fill-rule="evenodd" clip-rule="evenodd" fill="#FFF" d="M62.943 233.16c2.447-1.442 3.64-3.344 3.582-5.233v-15.44c.004-.09.004-.174 0-.26v-.02c-.062-1.797-1.258-3.582-3.582-4.95-4.78-2.82-12.53-2.82-17.31 0-2.325 1.368-3.52 3.153-3.58 4.95h-.005v15.82h.002c-.016 1.854 1.18 3.716 3.582 5.133 4.782 2.817 12.53 2.817 17.31 0z"/><path fill-rule="evenodd" clip-rule="evenodd" fill="#E94C6D" d="M61.748 231.12c.883-.52 1.527-1.098 1.936-1.693.333-.485.493-.974.48-1.436l-.003-.062h-.006v-15.44c0-.07.004-.14.01-.21v-.008l-.003-.043h-.006v-.074c-.04-.396-.217-.817-.523-1.24-.41-.565-1.04-1.118-1.89-1.62a1.12 1.12 0 0 1-.11-.068c-1.997-1.14-4.65-1.71-7.34-1.71-2.743 0-5.45.594-7.46 1.78-.84.493-1.467 1.046-1.88 1.62-.32.44-.497.878-.528 1.29h.003v15.76l.002.06c0 .053-.003.105-.006.155.027.415.19.847.488 1.273.407.584 1.048 1.15 1.923 1.666 2.01 1.185 4.717 1.777 7.46 1.777s5.447-.592 7.46-1.778zm5.848.976c-.787 1.15-1.94 2.21-3.456 3.103-2.768 1.63-6.33 2.444-9.852 2.444-3.52 0-7.083-.814-9.85-2.446-1.482-.874-2.62-1.91-3.407-3.04-.85-1.217-1.297-2.536-1.34-3.88a2.15 2.15 0 0 1-.014-.254v-15.82c0-.128.01-.254.03-.377.1-1.29.57-2.545 1.403-3.697.776-1.074 1.89-2.07 3.33-2.917 2.765-1.632 6.326-2.447 9.85-2.447 3.464 0 6.97.79 9.72 2.37.045.023.092.05.14.076 1.43.843 2.536 1.837 3.317 2.917.844 1.164 1.313 2.434 1.408 3.74.016.107.025.22.025.332v.02h-.01v.082c.006.058.01.12.01.18v15.44h-.01c.033 1.44-.4 2.863-1.294 4.168z"/><path fill-rule="evenodd" clip-rule="evenodd" fill="#F9F2F3" d="M62.943 233.16c2.447-1.442 3.64-3.344 3.582-5.233v-15.72H42.05v15.82c-.015 1.854 1.18 3.716 3.583 5.133 4.78 2.817 12.53 2.817 17.31 0z"/><path fill-rule="evenodd" clip-rule="evenodd" fill="#E94C6D" d="M62.794 232.904c1.16-.684 2.028-1.472 2.6-2.31.586-.853.864-1.76.837-2.66v-15.432H42.346v15.525l-.002.024c0 .877.288 1.76.867 2.588.575.822 1.433 1.595 2.573 2.267 2.343 1.382 5.422 2.072 8.505 2.072s6.163-.69 8.506-2.072zm3.09-1.976c-.62.907-1.552 1.756-2.792 2.485-2.436 1.438-5.623 2.155-8.804 2.155s-6.367-.718-8.804-2.155c-1.217-.716-2.137-1.548-2.758-2.438-.647-.927-.972-1.92-.973-2.916l-.002-.035v-15.82a.3.3 0 0 1 .3-.296h24.476c.163 0 .297.132.297.295v15.72h-.002c.033 1.024-.28 2.047-.934 3.002z"/><path fill-rule="evenodd" clip-rule="evenodd" fill="#FFF" d="M62.943 217.457c4.78-2.817 4.78-7.386 0-10.2-4.78-2.82-12.53-2.82-17.31 0-4.78 2.814-4.78 7.383 0 10.2 4.78 2.816 12.53 2.816 17.31 0z"/><path fill-rule="evenodd" clip-rule="evenodd" fill="#E94C6D" d="M62.794 217.203c1.306-.77 2.24-1.67 2.8-2.624.426-.72.64-1.474.64-2.225s-.214-1.504-.638-2.223c-.564-.955-1.498-1.854-2.802-2.623-2.343-1.383-5.423-2.073-8.506-2.073s-6.162.69-8.505 2.072c-1.306.77-2.24 1.667-2.8 2.62-.426.72-.638 1.474-.638 2.225s.212 1.502.637 2.222c.562.955 1.496 1.854 2.8 2.625 2.344 1.38 5.423 2.07 8.506 2.07s6.163-.69 8.506-2.07zm3.31-2.326c-.61 1.038-1.618 2.012-3.013 2.835-2.434 1.436-5.62 2.154-8.802 2.154s-6.367-.72-8.804-2.154c-1.396-.823-2.4-1.797-3.012-2.835-.48-.813-.72-1.668-.72-2.52 0-.855.24-1.71.72-2.522.612-1.04 1.618-2.013 3.013-2.835 2.437-1.437 5.623-2.155 8.804-2.155s6.367.72 8.803 2.155c1.398.823 2.403 1.796 3.014 2.833v.002c.48.812.722 1.667.722 2.52 0 .854-.243 1.708-.723 2.522z"/><path fill-rule="evenodd" clip-rule="evenodd" fill="#E94C6D" d="M53.844 136.18a.445.445 0 0 1 .89 0v77.075a.444.444 0 0 1-.89 0V136.18z"/><path fill-rule="evenodd" clip-rule="evenodd" fill="#FFF" d="M62.943 30.392c2.447-1.442 3.64-3.344 3.582-5.234V9.718a2.818 2.818 0 0 0 0-.26v-.02c-.062-1.796-1.258-3.58-3.582-4.952-4.78-2.817-12.53-2.817-17.31 0-2.325 1.37-3.52 3.155-3.58 4.95h-.005v15.82h.002c-.016 1.86 1.18 3.72 3.582 5.136 4.782 2.816 12.53 2.816 17.31 0z"/><path fill-rule="evenodd" clip-rule="evenodd" fill="#E94C6D" d="M61.748 28.352c.883-.52 1.527-1.098 1.936-1.693.333-.488.493-.978.48-1.44l-.003-.064h-.006V9.716c0-.07.004-.14.01-.207V9.5l-.003-.043h-.006v-.072c-.04-.396-.217-.816-.523-1.24-.41-.567-1.04-1.118-1.89-1.62a1.12 1.12 0 0 1-.11-.068c-1.997-1.14-4.65-1.71-7.34-1.71-2.743 0-5.45.593-7.46 1.78-.84.495-1.467 1.045-1.88 1.618-.32.442-.497.88-.528 1.292h.003v15.758l.002.062c0 .052-.003.104-.006.156.027.414.19.844.488 1.272.407.583 1.048 1.15 1.923 1.667 2.01 1.186 4.717 1.78 7.46 1.78s5.447-.594 7.46-1.78zm5.848.976c-.787 1.15-1.94 2.21-3.456 3.102-2.768 1.63-6.33 2.448-9.852 2.448-3.52 0-7.083-.816-9.85-2.448-1.482-.873-2.62-1.91-3.407-3.038-.85-1.218-1.297-2.538-1.34-3.88a2.184 2.184 0 0 1-.014-.256V9.436c0-.126.01-.252.03-.374.1-1.29.57-2.545 1.403-3.698.776-1.074 1.89-2.068 3.33-2.917C47.203.817 50.766 0 54.286 0c3.466 0 6.97.79 9.72 2.37.047.024.094.05.14.077 1.43.842 2.538 1.837 3.32 2.917.843 1.166 1.312 2.435 1.407 3.74.016.11.025.22.025.333v.02h-.01v.083c.006.058.01.117.01.177v15.44h-.01c.032 1.443-.4 2.865-1.295 4.17z"/><path fill-rule="evenodd" clip-rule="evenodd" fill="#FFF" d="M120.25 218.49c2.446-1.442 3.64-3.343 3.58-5.234v-15.44a3.757 3.757 0 0 0 0-.26v-.02c-.063-1.795-1.256-3.58-3.58-4.95-4.78-2.816-12.53-2.816-17.312 0-2.324 1.37-3.52 3.155-3.58 4.95h-.005v15.82c-.014 1.858 1.18 3.718 3.585 5.135 4.78 2.818 12.53 2.818 17.31 0z"/><path fill-rule="evenodd" clip-rule="evenodd" fill="#B3B4B4" d="M119.053 216.45c.883-.52 1.527-1.098 1.936-1.692.332-.487.49-.977.477-1.438v-.064h-.01v-15.44c0-.046.002-.093.004-.137 0-.05-.004-.097-.004-.146v-.05c-.04-.397-.215-.818-.52-1.24-.41-.568-1.04-1.12-1.893-1.62a1.512 1.512 0 0 1-.107-.07c-2-1.14-4.652-1.71-7.342-1.71-2.744 0-5.447.595-7.46 1.78-.84.495-1.466 1.045-1.882 1.618-.32.442-.496.88-.527 1.292h.003v15.82c0 .05-.002.103-.006.153.027.416.19.85.49 1.276.406.582 1.045 1.15 1.922 1.665 2.012 1.186 4.715 1.778 7.46 1.778 2.74 0 5.445-.592 7.457-1.778zm5.847.976c-.785 1.15-1.94 2.21-3.456 3.103-2.767 1.63-6.33 2.444-9.85 2.444-3.522 0-7.085-.816-9.853-2.446-1.48-.873-2.616-1.91-3.403-3.038-.854-1.224-1.302-2.545-1.343-3.888a2.06 2.06 0 0 1-.014-.25v-15.82c0-.127.01-.252.028-.374.102-1.292.57-2.545 1.404-3.698.777-1.074 1.89-2.068 3.328-2.917 2.768-1.63 6.33-2.447 9.852-2.447 3.465 0 6.97.79 9.72 2.37.047.024.095.05.14.077 1.43.844 2.537 1.84 3.32 2.92.84 1.162 1.31 2.43 1.406 3.733.016.11.024.224.024.337v.02h-.01v.066c.007.063.01.13.01.193v15.44h-.01c.035 1.444-.397 2.866-1.292 4.172z"/><path fill-rule="evenodd" clip-rule="evenodd" fill="#FFF" d="M163.24 108.672v.063c.004.226.004.45 0 .676v22.31c.002 12.135-4.39 22.23-23.55 33.524-19.163 11.293-55.357 17.06-83.642 11.192h-.008l-.03-.008c-6.16-1.28-12.108-3.016-17.694-5.207l-.037-.01-.094-.04a92.65 92.65 0 0 1-6.434-2.82l-.09-.037-.103-.055a81.737 81.737 0 0 1-5.393-2.88v-22.435l1.883.85a83.22 83.22 0 0 1-1.882-1.06c.865.502 1.763.975 2.68 1.422l2.37 1.07c15.812 6.61 37.783 5.79 51.854-2.504 4.695-2.77 7.98-6.053 9.854-9.55-1.902-3.57-5.258-6.93-10.064-9.765-11.108-6.546-14.472-15.918-10.066-24.128-4.37-8.188-1.094-17.46 9.854-23.913 14.554-8.577 37.56-9.166 53.462-1.8 14.435 6.687 24.45 19.467 26.56 29.838.353 1.754.543 3.513.568 5.272zM40.352 149.347l.012.006h.002l-.014-.006zM26.17 165.38c.81.47 1.645.914 2.503 1.336l-2.504-1.337z"/><path fill-rule="evenodd" clip-rule="evenodd" fill="#2EBCE3" d="M160.867 108.672h.01a25.717 25.717 0 0 0-.152-2.39c-.09-.82-.213-1.622-.37-2.407-1.022-5.008-4.08-10.68-8.716-15.887-4.303-4.832-9.934-9.22-16.52-12.272-7.666-3.55-17.08-5.172-26.34-4.86-9.123.306-18.05 2.488-24.937 6.548-4.913 2.896-8.108 6.35-9.594 9.955-1.444 3.5-1.25 7.202.567 10.687a2.37 2.37 0 0 1 .062 2.352c-1.89 3.52-2.09 7.292-.597 10.87 1.522 3.65 4.778 7.154 9.77 10.096 2.54 1.498 4.708 3.137 6.5 4.874 1.843 1.788 3.303 3.696 4.38 5.676.434.697.494 1.602.076 2.376-1.063 1.983-2.524 3.897-4.38 5.696-1.758 1.702-3.88 3.308-6.365 4.772-7.316 4.312-16.624 6.696-26.14 7.154-5.34.26-10.76-.09-15.943-1.04a2.365 2.365 0 0 1-2.106.833h-.003v-.002a2.388 2.388 0 0 1-.686-.192l-.012-.005a2.374 2.374 0 0 1-1.31-1.528 55.258 55.258 0 0 1-7.703-2.546c-.04-.015-.08-.03-.12-.05l-1.703-.77v17.353l1.12.6.058.026c.185.092.353.205.503.335.684.358 1.478.76 2.375 1.197l-.003.008.062.03c.043.018.083.037.125.057a87.9 87.9 0 0 0 3.074 1.42c1.013.443 2.078.886 3.192 1.323v.002l.038.017.09.033a101.636 101.636 0 0 0 8.378 2.862c2.862.843 5.796 1.576 8.778 2.2.105.014.21.035.313.064 13.49 2.784 28.837 2.87 43.208.945 15.11-2.02 29.086-6.25 38.64-11.88 9.23-5.44 14.867-10.536 18.167-15.688 3.174-4.955 4.195-10.044 4.22-15.604a1.756 1.756 0 0 1-.01-.193v-22.31h.01v-.45a2.806 2.806 0 0 1-.01-.226v-.062zm4.738 0h.01v.063c0 .064-.004.13-.008.195v.153l-.002.328h.01v22.31c0 .078-.004.155-.01.23-.03 6.405-1.23 12.304-4.96 18.127-3.686 5.75-9.827 11.352-19.76 17.206-10.09 5.945-24.706 10.39-40.42 12.493-14.88 1.992-30.8 1.894-44.838-1.01l-.148-.03a118.283 118.283 0 0 1-9.26-2.315 106.332 106.332 0 0 1-8.906-3.047 97.51 97.51 0 0 1-6.578-2.883l-.02-.01a2.172 2.172 0 0 1-.194-.095l-.003.004a89.038 89.038 0 0 1-2.81-1.445 78.87 78.87 0 0 1-2.74-1.52 2.366 2.366 0 0 1-1.176-2.048h-.002V142.94c0-.04.002-.08.004-.117a2.373 2.373 0 0 1 3.565-2.143l.366.215a39.94 39.94 0 0 0 2.093 1.1v-.003l2.35 1.062c7.64 3.186 16.793 4.563 25.734 4.132 8.788-.424 17.328-2.592 23.97-6.506 2.14-1.26 3.956-2.634 5.455-4.086 1.14-1.106 2.09-2.256 2.85-3.432-.775-1.204-1.75-2.387-2.93-3.53-1.533-1.487-3.396-2.895-5.59-4.187-5.93-3.493-9.85-7.79-11.755-12.36-1.897-4.548-1.815-9.312.247-13.815-2.042-4.482-2.138-9.208-.28-13.71 1.868-4.536 5.73-8.788 11.577-12.234 7.58-4.467 17.302-6.866 27.18-7.198 9.965-.336 20.14 1.428 28.47 5.287a55.834 55.834 0 0 1 18.076 13.422c5.18 5.82 8.627 12.283 9.807 18.094.197.965.346 1.917.447 2.853.1.923.158 1.878.173 2.863v.027z"/><path fill-rule="evenodd" clip-rule="evenodd" fill="#F6F6F6" d="M120.25 218.49c2.446-1.442 3.64-3.343 3.58-5.234v-15.72H99.355v15.82c-.015 1.857 1.18 3.717 3.584 5.135 4.78 2.818 12.53 2.818 17.31 0z"/><path fill-rule="evenodd" clip-rule="evenodd" fill="#B3B4B4" d="M120.098 218.236c1.162-.687 2.03-1.474 2.604-2.31.584-.855.862-1.763.834-2.662v-15.432H99.65v15.508l.002.015-.002.027c-.003.876.287 1.756.866 2.586.573.82 1.43 1.595 2.572 2.268 2.34 1.38 5.42 2.07 8.505 2.07s6.162-.69 8.505-2.07zm3.09-1.977c-.62.906-1.552 1.754-2.79 2.484h-.002c-2.436 1.436-5.62 2.153-8.803 2.153s-6.367-.718-8.804-2.153c-1.22-.72-2.14-1.55-2.76-2.438-.65-.932-.974-1.926-.974-2.923v-15.847c0-.164.133-.298.296-.298h24.478c.163 0 .296.134.296.298v15.72c.03 1.024-.282 2.045-.937 3.003z"/><path fill-rule="evenodd" clip-rule="evenodd" fill="#FFF" d="M120.25 202.787c4.777-2.817 4.777-7.384 0-10.202-4.78-2.816-12.53-2.816-17.312 0-4.778 2.818-4.778 7.385 0 10.202 4.782 2.816 12.53 2.816 17.31 0z"/><path fill-rule="evenodd" clip-rule="evenodd" fill="#B3B4B4" d="M120.1 202.53c1.303-.768 2.237-1.667 2.8-2.622l.01-.017c.42-.71.628-1.46.628-2.204 0-.75-.213-1.504-.637-2.222-.56-.953-1.493-1.854-2.8-2.624l-.015-.01c-2.34-1.375-5.414-2.062-8.49-2.062-3.084 0-6.162.69-8.505 2.07-1.307.77-2.242 1.67-2.803 2.624-.424.718-.637 1.472-.637 2.222s.213 1.505.637 2.223c.56.954 1.494 1.854 2.802 2.623l.013.01c2.34 1.375 5.414 2.062 8.49 2.062 3.084 0 6.164-.69 8.506-2.07zm3.31-2.32c-.61 1.036-1.615 2.01-3.014 2.83-2.436 1.438-5.62 2.157-8.803 2.157-3.174 0-6.354-.717-8.787-2.147l-.02-.01c-1.393-.82-2.398-1.793-3.01-2.833-.48-.814-.72-1.668-.72-2.522 0-.855.24-1.707.72-2.52.61-1.04 1.617-2.014 3.01-2.835h.003c2.435-1.437 5.62-2.155 8.802-2.155 3.174 0 6.354.716 8.788 2.146l.02.01c1.393.82 2.398 1.795 3.01 2.835.48.814.72 1.667.72 2.52 0 .85-.236 1.698-.71 2.508l-.01.017z"/><path fill-rule="evenodd" clip-rule="evenodd" fill="#B3B4B4" d="M110.742 153.315a.445.445 0 0 1 .89 0v43.033a.446.446 0 0 1-.89 0v-43.033z"/><path fill-rule="evenodd" clip-rule="evenodd" fill="#EAF2F7" d="M139.79 89.853a35.862 35.862 0 0 1 3.306 2.2c8.695 5.793 14.574 12.538 17.64 19.618l2.507-2.996v23.048l-.002.002c.004 12.133-4.387 22.23-23.55 33.522s-55.355 17.06-83.64 11.192h-.01l-.027-.008c-6.16-1.28-12.11-3.016-17.695-5.207l-.037-.01-.09-.04a92.638 92.638 0 0 1-6.435-2.818l-.09-.04-.103-.054a82.194 82.194 0 0 1-5.39-2.88v-22.434l14.19 6.41 44.394 4.607 6.016-3.237c7.316-8.87 4.67-19.904-7.908-27.318-15.84-9.334-15.934-24.412-.213-33.677 15.72-9.264 41.303-9.21 57.14.126zM26.17 165.38c.81.47 1.645.914 2.503 1.336l-2.504-1.337z"/><path fill-rule="evenodd" clip-rule="evenodd" fill="#2EBCE3" d="M139.94 89.598c.593.35 1.166.71 1.722 1.08.55.364 1.082.742 1.596 1.13 4.312 2.87 7.934 5.974 10.867 9.237 2.9 3.223 5.13 6.605 6.69 10.07l2.2-2.634a.297.297 0 0 1 .522.193h.002v23.048l-.005.04c-.002 6.106-1.115 11.7-4.636 17.198-3.516 5.49-9.438 10.87-19.06 16.542-9.856 5.806-24.19 10.156-39.64 12.224-14.68 1.964-30.37 1.87-44.187-.993-.02 0-.04-.004-.06-.01l-.025-.006a116.89 116.89 0 0 1-9.127-2.28 104.307 104.307 0 0 1-8.583-2.933l-.023-.005-.046-.02-.07-.03c-1.104-.435-2.2-.89-3.286-1.364a92.384 92.384 0 0 1-3.163-1.46l-.083-.035-.035-.018-.08-.043a83.902 83.902 0 0 1-5.412-2.887.292.292 0 0 1-.148-.256v-22.436a.3.3 0 0 1 .44-.26l14.13 6.38 44.254 4.595 5.884-3.168a19.775 19.775 0 0 0 1.738-2.478l.01-.014c2.062-3.51 2.658-7.254 1.79-10.904-.874-3.67-3.228-7.25-7.058-10.41a33.552 33.552 0 0 0-4.348-3.022c-4.55-2.682-7.815-5.84-9.797-9.2-1.52-2.58-2.285-5.284-2.29-7.988-.002-2.702.753-5.4 2.27-7.973 1.945-3.303 5.146-6.398 9.606-9.026 7.904-4.66 18.285-6.976 28.676-6.953 10.39.023 20.8 2.384 28.764 7.078v.002-.002zm1.394 1.572c-.54-.36-1.105-.714-1.695-1.062-7.875-4.64-18.176-6.975-28.465-6.997-10.29-.02-20.563 2.268-28.377 6.874-4.368 2.574-7.5 5.598-9.397 8.816-1.46 2.48-2.19 5.077-2.187 7.672.005 2.597.742 5.2 2.21 7.69 1.93 3.276 5.126 6.36 9.585 8.988a34.293 34.293 0 0 1 4.424 3.075c3.936 3.247 6.357 6.938 7.26 10.73.904 3.8.287 7.693-1.855 11.338l-.012.018a20.104 20.104 0 0 1-1.817 2.585.3.3 0 0 1-.1.09l-6.015 3.237a.298.298 0 0 1-.17.034l-44.39-4.608a.292.292 0 0 1-.095-.025l-13.775-6.22v21.8l2.342 1.252c.06.03.105.078.13.135l.026.012c.88.468 1.79.933 2.73 1.39v.002l.01.005.09.047.074.033.02.008a92.4 92.4 0 0 0 6.412 2.807l.01.005.076.032.012.004.03.01c2.77 1.086 5.624 2.06 8.548 2.92a116.366 116.366 0 0 0 9.127 2.28l.01.002c13.754 2.854 29.387 2.95 44.014.992 15.372-2.058 29.63-6.38 39.416-12.148 9.538-5.622 15.397-10.938 18.864-16.353 3.453-5.39 4.54-10.89 4.543-16.893a.21.21 0 0 1 0-.05V109.49l-1.982 2.372a.273.273 0 0 1-.11.08.294.294 0 0 1-.387-.152c-1.54-3.56-3.802-7.034-6.78-10.348-2.903-3.227-6.487-6.3-10.754-9.14l-.014-.01c-.503-.377-1.03-.75-1.586-1.12zm-102.94 79.765l.007.002-.006-.002zm-6.53-2.856h.01l-.01-.002zm-.34.493l-.013-.007.016.007z"/><path fill-rule="evenodd" clip-rule="evenodd" fill="#FFF" d="M162.67 103.404c2.836 13.945-4.824 28.49-22.98 39.19-31.336 18.47-82.09 18.514-113.52.138 15.853 9.197 41.26 9.208 56.902-.01 15.72-9.267 15.625-24.346-.21-33.68-15.84-9.334-15.935-24.413-.214-33.678 14.554-8.577 37.56-9.166 53.462-1.8 14.435 6.688 24.45 19.468 26.56 29.84z"/><path fill-rule="evenodd" clip-rule="evenodd" fill="#2EBCE3" d="M162.96 103.344c1.458 7.177.17 14.51-3.874 21.403-3.88 6.616-10.296 12.827-19.247 18.104-15.71 9.26-36.284 13.9-56.86 13.927-20.547.024-41.11-4.554-56.86-13.73l-.1-.058a.295.295 0 1 1 .296-.512c7.887 4.573 18.153 6.862 28.396 6.86 10.234 0 20.438-2.29 28.21-6.87 4.367-2.574 7.498-5.598 9.396-8.816 1.46-2.478 2.19-5.077 2.185-7.674-.003-2.596-.74-5.2-2.208-7.69-1.932-3.275-5.127-6.358-9.587-8.986-4.548-2.68-7.814-5.838-9.796-9.198-1.52-2.583-2.285-5.287-2.29-7.99-.002-2.703.753-5.402 2.27-7.974 1.946-3.303 5.147-6.398 9.606-9.026 7.277-4.29 16.65-6.593 26.197-6.914 9.656-.326 19.5 1.376 27.536 5.1 6.945 3.216 12.873 7.836 17.398 12.92 4.942 5.55 8.22 11.667 9.33 17.126zm-4.384 21.104c3.967-6.763 5.234-13.953 3.805-20.984-1.09-5.36-4.32-11.378-9.19-16.854a53.095 53.095 0 0 0-17.2-12.776c-7.957-3.685-17.705-5.37-27.27-5.047-9.456.318-18.73 2.595-25.92 6.833-4.367 2.574-7.498 5.597-9.396 8.817-1.462 2.48-2.19 5.077-2.188 7.674.005 2.598.742 5.2 2.21 7.693 1.93 3.276 5.126 6.36 9.585 8.987 4.55 2.68 7.817 5.837 9.797 9.197 1.522 2.582 2.286 5.287 2.29 7.99.004 2.702-.752 5.4-2.267 7.974-1.947 3.306-5.15 6.4-9.61 9.028-7.86 4.634-18.173 6.95-28.507 6.952-6.597 0-13.207-.942-19.198-2.825 14.086 6.074 30.778 9.102 47.464 9.082 20.477-.024 40.94-4.64 56.56-13.845 8.86-5.223 15.205-11.362 19.035-17.894z"/><path fill-rule="evenodd" clip-rule="evenodd" fill="#EAF2F7" d="M119.69 87.335c4.78 2.817 4.78 7.384 0 10.202-4.78 2.817-12.53 2.817-17.308 0-4.78-2.818-4.78-7.385 0-10.202s12.53-2.817 17.308 0z"/><path fill-rule="evenodd" clip-rule="evenodd" fill="#2EBCE3" d="M119.84 87.08c1.397.824 2.402 1.796 3.014 2.834l.01.018c.473.81.71 1.657.71 2.505 0 .854-.24 1.707-.72 2.52v.002c-.612 1.037-1.617 2.01-3.013 2.83l-.015.01c-2.436 1.43-5.615 2.145-8.788 2.145-3.18 0-6.366-.718-8.805-2.154-1.395-.822-2.398-1.794-3.012-2.833-.48-.814-.72-1.667-.72-2.522 0-.854.24-1.708.72-2.52.613-1.04 1.617-2.013 3.013-2.835 2.44-1.436 5.625-2.154 8.806-2.154s6.365.718 8.804 2.155zm2.504 3.134c-.562-.956-1.497-1.855-2.802-2.624-2.343-1.38-5.422-2.07-8.506-2.07-3.083 0-6.163.69-8.505 2.07-1.304.77-2.237 1.668-2.8 2.623-.424.72-.636 1.472-.636 2.223 0 .75.212 1.504.635 2.224.562.954 1.496 1.854 2.802 2.623 2.343 1.38 5.42 2.07 8.506 2.07 3.078 0 6.15-.687 8.49-2.06l.013-.01c1.308-.77 2.24-1.67 2.805-2.624.425-.72.635-1.473.635-2.223 0-.746-.21-1.492-.626-2.207l-.01-.016zm.52-.282l-.114.387a.296.296 0 0 0 .113-.39z"/><path fill-rule="evenodd" clip-rule="evenodd" fill="#FFF" d="M16.697 134.587c-9.55-8.1-14.327-17.56-14.325-27.02V85.24h.005c.135-12.03 7.982-24.033 23.555-33.21 30.242-17.824 78.568-18.487 110.16-1.992v21.447c-15.9-7.358-38.31-6.545-53.443 2.375-3.137 1.847-5.64 3.618-7.5 5.348 1.916 2.278 4.486 4.417 7.71 6.316 7.888 4.65 11.87 10.722 11.94 16.792v22.014c.07 6.12-3.836 12.234-11.727 16.886-14.33 8.445-36.855 9.145-52.724 2.13-5.22-2.307-10.017-5.676-13.654-8.76z"/><path fill-rule="evenodd" clip-rule="evenodd" fill="#B3B4B4" d="M15.167 136.394c-4.955-4.2-8.697-8.774-11.226-13.544-2.59-4.89-3.9-9.985-3.932-15.102-.01-.12-.01-.24 0-.357L.01 85.686H0v-.442c0-.1.006-.196.018-.292.13-6.526 2.346-13.014 6.646-19.077 4.106-5.79 10.132-11.202 18.07-15.88 15.43-9.094 35.412-13.823 55.55-14.187 20.24-.366 40.702 3.68 56.9 12.14a2.357 2.357 0 0 1 1.27 2.094h.01v21.446a2.374 2.374 0 0 1-3.5 2.09c-7.625-3.498-16.822-5.04-25.938-4.635-9.058.404-17.995 2.727-25.18 6.96a56.793 56.793 0 0 0-4.052 2.608c-.424.3-.828.6-1.213.9.46.436.954.87 1.48 1.3a31.5 31.5 0 0 0 4.008 2.778c.044.026.086.054.127.082 4.103 2.44 7.23 5.263 9.382 8.286 2.304 3.24 3.5 6.72 3.583 10.233.007.076.01.154.01.23h.005v22.014c0 .074-.004.147-.01.22-.01 3.532-1.147 7.033-3.41 10.29-2.137 3.08-5.3 5.95-9.486 8.416-7.46 4.396-16.99 6.788-26.698 7.18-9.816.397-19.864-1.244-28.178-4.92-2.515-1.11-4.935-2.457-7.185-3.9a66.74 66.74 0 0 1-7.044-5.22zm-7.035-15.75c2.245 4.236 5.61 8.334 10.093 12.135a62.438 62.438 0 0 0 6.542 4.85c2.05 1.312 4.252 2.54 6.536 3.55 7.662 3.386 16.965 4.896 26.083 4.527 8.97-.36 17.716-2.538 24.49-6.53 3.554-2.095 6.216-4.494 7.984-7.042 1.706-2.456 2.563-5.04 2.575-7.603a2.232 2.232 0 0 1-.01-.2v-22.015h.01c-.035-2.593-.94-5.22-2.717-7.72-1.783-2.508-4.43-4.878-7.94-6.964a1.862 1.862 0 0 1-.122-.068 36.52 36.52 0 0 1-4.6-3.185 28.16 28.16 0 0 1-3.6-3.512l-.043-.044a2.37 2.37 0 0 1 .12-3.347c1.003-.932 2.176-1.872 3.516-2.825a62.055 62.055 0 0 1 4.4-2.83c7.866-4.633 17.574-7.173 27.368-7.608 8.598-.382 17.296.855 24.896 3.717V51.484C118.43 43.84 99.322 40.19 80.354 40.535c-19.36.35-38.512 4.862-53.23 13.537-7.336 4.323-12.87 9.277-16.607 14.547-3.757 5.294-5.68 10.9-5.776 16.49.005.062.005.13.004.195v.38h-.01v21.883c0 4.392 1.13 8.808 3.395 13.078z"/><path fill-rule="evenodd" clip-rule="evenodd" fill="#F6F6F6" d="M16.697 134.587c-9.55-8.1-14.327-17.56-14.325-27.02V85.24l3.286.607C9.332 78.494 16.088 71.56 25.93 65.76c9.195-5.42 20.065-9.25 31.626-11.495V50.04c25.348-7.458 50.855-13.497 78.534 0v22.014c-15.9-7.357-38.308-7.113-53.442 1.807-15.133 8.92-15.626 16.06.213 25.396.67.393 1.308.798 1.92 1.21l10.02 1.853v22.013c.07 6.12-3.837 12.234-11.728 16.886-14.33 8.445-36.854 9.143-52.723 2.13-5.22-2.308-10.014-5.677-13.65-8.76z"/><path fill-rule="evenodd" clip-rule="evenodd" fill="#B3B4B4" d="M16.506 134.812c-4.75-4.026-8.328-8.39-10.73-12.927-2.46-4.642-3.693-9.465-3.697-14.287-.004-.02-.004-.037-.004-.057l.002-22.3a.295.295 0 0 1 .35-.288l3.062.567c1.875-3.69 4.52-7.277 7.94-10.664 3.364-3.335 7.483-6.48 12.35-9.35 4.544-2.677 9.496-4.97 14.735-6.874 5.324-1.935 10.946-3.472 16.742-4.61v-3.98c0-.142.1-.26.232-.29 12.684-3.73 25.41-7.107 38.442-7.863 13.05-.76 26.396 1.112 40.285 7.885a.297.297 0 0 1 .166.267v22.014a.297.297 0 0 1-.44.26c-8.03-3.71-17.73-5.474-27.303-5.15-9.28.313-18.44 2.59-25.846 6.954-7.473 4.403-11.328 8.34-11.363 12.288-.028 3.947 3.76 7.982 11.58 12.592.34.2.67.4.988.603.314.2.613.394.896.585l9.957 1.84c.147.026.246.15.246.29v22.015l-.002.038c.027 3.168-.986 6.33-3.043 9.29-1.976 2.847-4.92 5.51-8.83 7.813-7.156 4.22-16.343 6.518-25.73 6.896-9.51.384-19.23-1.2-27.26-4.75-2.414-1.066-4.74-2.36-6.9-3.75a64.283 64.283 0 0 1-6.823-5.057zM6.3 121.61c2.367 4.47 5.897 8.775 10.588 12.75a63.664 63.664 0 0 0 6.76 5.013c2.136 1.37 4.433 2.648 6.82 3.704 7.948 3.513 17.577 5.08 27 4.7 9.293-.375 18.382-2.647 25.456-6.815 3.83-2.258 6.71-4.862 8.64-7.643 1.993-2.87 2.973-5.927 2.94-8.98v-.006.002-21.773l-9.76-1.804a.294.294 0 0 1-.13-.05 36.615 36.615 0 0 0-1.904-1.202c-8.018-4.727-11.902-8.927-11.865-13.11.035-4.184 3.992-8.278 11.654-12.794 7.49-4.416 16.75-6.717 26.124-7.035 9.505-.32 19.136 1.396 27.17 5.02V50.227c-13.73-6.657-26.925-8.498-39.83-7.75-12.9.75-25.527 4.086-38.113 7.786v4.004c0 .14-.1.264-.24.29-5.85 1.137-11.525 2.68-16.892 4.632-5.207 1.892-10.127 4.17-14.64 6.828-4.822 2.842-8.9 5.957-12.23 9.258-3.433 3.4-6.075 7-7.927 10.707a.3.3 0 0 1-.316.16L2.667 85.6l-.003 21.95v.02c0 4.735 1.21 9.475 3.632 14.043zm88.204 2.73v-.003.004z"/><path fill-rule="evenodd" clip-rule="evenodd" fill="#FFF" d="M16.697 112.573C-5.103 94.09-2.02 68.507 25.932 52.03c30.242-17.822 78.568-18.485 110.16-1.99-15.9-7.357-38.896-6.767-53.443 1.807-15.723 9.266-15.627 24.344.21 33.678 15.837 9.335 15.933 24.412.21 33.678-14.33 8.445-36.853 9.146-52.722 2.132-5.22-2.307-10.016-5.677-13.653-8.762z"/><path fill-rule="evenodd" clip-rule="evenodd" fill="#B3B4B4" d="M16.506 112.8c-4.248-3.604-7.56-7.48-9.934-11.504-3.564-6.048-5.01-12.436-4.336-18.763.674-6.322 3.464-12.577 8.37-18.363 3.792-4.472 8.852-8.666 15.177-12.394C40.9 42.866 60.52 38.232 80.317 37.874c19.907-.36 40.003 3.605 55.89 11.893l.008.004.014.008a.296.296 0 0 1-.264.53c-7.955-3.68-17.7-5.36-27.262-5.038-9.45.32-18.72 2.595-25.906 6.83-4.368 2.575-7.5 5.598-9.397 8.816-1.46 2.48-2.19 5.08-2.187 7.675.005 2.598.742 5.2 2.21 7.693 1.93 3.276 5.126 6.36 9.585 8.987 4.55 2.68 7.816 5.837 9.796 9.197 1.522 2.582 2.286 5.287 2.29 7.99.004 2.702-.75 5.4-2.267 7.973-1.947 3.304-5.15 6.4-9.61 9.027-7.156 4.22-16.343 6.516-25.73 6.896-9.51.384-19.23-1.2-27.26-4.748-2.414-1.066-4.74-2.36-6.902-3.75a64.177 64.177 0 0 1-6.822-5.056zm-9.424-11.802c2.338 3.97 5.607 7.79 9.806 11.35a63.8 63.8 0 0 0 6.76 5.012c2.136 1.37 4.433 2.65 6.82 3.705 7.947 3.51 17.575 5.08 27 4.7 9.293-.377 18.382-2.647 25.454-6.816 4.368-2.575 7.5-5.6 9.397-8.816 1.46-2.48 2.19-5.078 2.184-7.675-.003-2.598-.74-5.2-2.208-7.69-1.93-3.277-5.127-6.36-9.587-8.99-4.55-2.68-7.815-5.836-9.797-9.197-1.52-2.582-2.285-5.287-2.29-7.99-.002-2.702.753-5.402 2.27-7.974 1.946-3.304 5.15-6.4 9.606-9.027 7.273-4.287 16.642-6.59 26.185-6.913 7.04-.237 14.185.604 20.652 2.52-14.58-6.13-31.86-9.043-49.012-8.732-19.7.355-39.215 4.963-54.244 13.82-6.264 3.693-11.272 7.844-15.023 12.267-4.828 5.69-7.572 11.837-8.232 18.04-.66 6.2.758 12.467 4.256 18.403z"/><path fill-rule="evenodd" clip-rule="evenodd" fill="#F6F6F6" d="M62.943 97.264c4.78 2.818 4.78 7.385 0 10.202s-12.53 2.817-17.31 0c-4.78-2.816-4.78-7.384 0-10.202 4.78-2.818 12.53-2.818 17.31 0z"/><path fill-rule="evenodd" clip-rule="evenodd" fill="#B3B4B4" d="M63.092 97.008c1.395.823 2.4 1.795 3.013 2.834.48.814.722 1.668.722 2.522 0 .854-.242 1.708-.722 2.52-.61 1.04-1.618 2.013-3.013 2.836-2.436 1.437-5.623 2.154-8.804 2.154s-6.367-.718-8.804-2.154c-1.396-.823-2.4-1.796-3.012-2.834l-.01-.02c-.473-.807-.71-1.655-.71-2.504 0-.853.24-1.707.72-2.52v-.002c.61-1.04 1.615-2.01 3.01-2.834l.02-.006c2.434-1.43 5.612-2.145 8.786-2.145 3.18 0 6.368.717 8.804 2.153zm2.503 3.133c-.562-.952-1.495-1.85-2.8-2.62-2.344-1.38-5.424-2.07-8.507-2.07-3.077 0-6.148.685-8.49 2.06l-.015.01c-1.305.77-2.238 1.67-2.8 2.623-.426.72-.638 1.473-.638 2.222 0 .746.21 1.492.626 2.207l.013.017c.562.955 1.496 1.854 2.8 2.624 2.344 1.38 5.423 2.07 8.506 2.07s6.162-.69 8.505-2.07c1.305-.77 2.24-1.67 2.8-2.623.426-.72.64-1.472.64-2.224-.002-.75-.214-1.503-.64-2.224zm-23.132 4.73l.113-.386a.294.294 0 0 0-.113.386z"/><path fill-rule="evenodd" clip-rule="evenodd" fill="#F9F2F3" d="M62.943 30.392c2.447-1.442 3.64-3.344 3.582-5.234V9.438H42.05v15.82c-.015 1.857 1.18 3.717 3.583 5.134 4.78 2.816 12.53 2.816 17.31 0z"/><path fill-rule="evenodd" clip-rule="evenodd" fill="#E94C6D" d="M62.793 30.137c1.16-.685 2.03-1.473 2.602-2.31.585-.855.863-1.76.836-2.662V9.735H42.346v15.523l-.002.025c0 .876.288 1.757.867 2.587.573.82 1.43 1.593 2.573 2.267l.016.01c2.34 1.374 5.41 2.06 8.487 2.06 3.083 0 6.163-.69 8.505-2.07zm3.092-1.976c-.62.91-1.553 1.757-2.79 2.488h-.003c-2.436 1.436-5.623 2.154-8.804 2.154-3.174 0-6.354-.714-8.787-2.144l-.017-.01c-1.215-.716-2.135-1.547-2.756-2.437-.647-.93-.972-1.922-.973-2.917l-.002-.035V9.438c0-.165.134-.297.298-.297h24.477c.163 0 .297.134.297.3v15.72h-.002c.032 1.022-.282 2.045-.935 3.002z"/><path fill-rule="evenodd" clip-rule="evenodd" fill="#FFF" d="M62.943 14.688c4.78-2.816 4.78-7.384 0-10.202-4.78-2.817-12.53-2.817-17.31 0-4.78 2.818-4.78 7.385 0 10.202s12.53 2.817 17.31 0z"/><path fill-rule="evenodd" clip-rule="evenodd" fill="#E94C6D" d="M62.794 14.433c1.304-.768 2.237-1.668 2.8-2.624l.013-.017c.416-.715.626-1.462.626-2.207 0-.75-.213-1.502-.637-2.222-.563-.954-1.498-1.854-2.803-2.624l-.014-.008c-2.344-1.375-5.416-2.062-8.493-2.062-3.083 0-6.162.69-8.505 2.07-1.306.77-2.24 1.67-2.8 2.624-.426.72-.638 1.472-.638 2.223s.212 1.504.637 2.223c.563.954 1.497 1.854 2.8 2.622 2.345 1.38 5.424 2.072 8.507 2.072s6.163-.69 8.506-2.07zm3.31-2.323c-.61 1.038-1.615 2.01-3.013 2.833-2.434 1.437-5.62 2.155-8.802 2.155s-6.367-.718-8.804-2.155c-1.395-.822-2.4-1.795-3.012-2.834-.48-.815-.72-1.67-.72-2.523 0-.855.24-1.708.72-2.522.612-1.04 1.618-2.012 3.013-2.834 2.437-1.436 5.623-2.154 8.804-2.154 3.174 0 6.353.715 8.787 2.145l.018.01c1.396.82 2.4 1.795 3.01 2.834.48.815.723 1.668.723 2.522 0 .85-.238 1.696-.71 2.504l-.012.02zM53.844 32.504c0-.245.2-.445.444-.445s.445.2.445.443v77.075a.445.445 0 0 1-.89 0V32.502z"/><path fill-rule="evenodd" clip-rule="evenodd" fill="#B3B4B4" d="M110.742 56.473a.445.445 0 0 1 .89 0v43.032a.445.445 0 0 1-.89 0V56.473z"/><path fill-rule="evenodd" clip-rule="evenodd" fill="#FFF" d="M120.25 53c2.446-1.443 3.64-3.344 3.58-5.234v-15.44a3.757 3.757 0 0 0 0-.26v-.02c-.063-1.795-1.256-3.58-3.58-4.95-4.78-2.817-12.53-2.817-17.312 0-2.324 1.37-3.52 3.155-3.58 4.95h-.005v15.82c-.014 1.857 1.18 3.717 3.585 5.135 4.78 2.82 12.53 2.82 17.31 0z"/><path fill-rule="evenodd" clip-rule="evenodd" fill="#B3B4B4" d="M119.053 50.96c.883-.52 1.527-1.097 1.936-1.693.332-.486.49-.975.477-1.436v-.062h-.01v-15.44c0-.047.002-.093.004-.14 0-.046-.004-.093-.004-.14v-.053c-.04-.396-.215-.816-.52-1.24a1.622 1.622 0 0 1-.072-.104c-.404-.523-1.01-1.04-1.82-1.515a2.795 2.795 0 0 1-.107-.068c-2-1.14-4.652-1.71-7.342-1.71-2.744 0-5.447.593-7.46 1.778-.84.495-1.466 1.045-1.882 1.62-.32.442-.496.88-.527 1.292h.003v15.82c0 .05 0 .1-.006.152.027.415.19.85.49 1.275.406.584 1.047 1.15 1.922 1.667 2.012 1.187 4.715 1.78 7.46 1.78 2.74 0 5.444-.594 7.456-1.78zm5.847.978c-.785 1.15-1.94 2.21-3.456 3.103-2.767 1.63-6.33 2.448-9.85 2.448-3.522 0-7.085-.816-9.853-2.446-1.48-.873-2.616-1.91-3.403-3.038-.854-1.223-1.302-2.544-1.343-3.887a2.06 2.06 0 0 1-.014-.25v-15.82c0-.13.01-.253.028-.376.102-1.29.57-2.543 1.404-3.696.777-1.074 1.89-2.068 3.328-2.917 2.768-1.63 6.33-2.447 9.852-2.447 3.465 0 6.97.79 9.72 2.37.047.023.095.048.14.076 1.354.797 2.424 1.74 3.204 2.77.04.047.08.097.116.147.84 1.164 1.31 2.43 1.406 3.735.016.11.024.223.024.338v.02h-.01v.066c.007.063.01.128.01.193v15.44h-.01c.035 1.444-.397 2.865-1.292 4.173z"/><path fill-rule="evenodd" clip-rule="evenodd" fill="#F6F6F6" d="M120.25 53c2.446-1.443 3.64-3.344 3.58-5.233v-15.72H99.355v15.818c-.015 1.857 1.18 3.717 3.584 5.135 4.78 2.818 12.53 2.818 17.31 0z"/><path fill-rule="evenodd" clip-rule="evenodd" fill="#B3B4B4" d="M120.098 52.746c1.162-.685 2.03-1.473 2.604-2.31.584-.854.862-1.76.834-2.66V32.342H99.65V47.85l.002.016-.002.027c-.003.876.287 1.757.866 2.586.573.82 1.43 1.59 2.572 2.265l.015.01c2.34 1.373 5.414 2.06 8.49 2.06 3.085 0 6.162-.69 8.505-2.07zm3.09-1.977c-.62.907-1.552 1.755-2.79 2.484h-.002c-2.436 1.436-5.62 2.155-8.803 2.155-3.174 0-6.354-.717-8.787-2.146l-.02-.01c-1.214-.717-2.134-1.548-2.755-2.438-.647-.93-.972-1.924-.972-2.92v-15.85c0-.164.133-.296.296-.296h24.478c.163 0 .296.134.296.297v15.72c.03 1.023-.282 2.045-.937 3.002z"/><path fill-rule="evenodd" clip-rule="evenodd" fill="#FFF" d="M120.25 37.297c4.777-2.816 4.777-7.385 0-10.2-4.78-2.818-12.53-2.818-17.312 0-4.778 2.815-4.778 7.384 0 10.2 4.782 2.818 12.53 2.818 17.31 0z"/><path fill-rule="evenodd" clip-rule="evenodd" fill="#B3B4B4" d="M120.1 37.042c1.303-.77 2.237-1.668 2.8-2.624l.01-.015c.42-.715.628-1.462.628-2.207 0-.75-.213-1.503-.637-2.223-.56-.954-1.493-1.854-2.8-2.624l-.015-.01c-2.34-1.375-5.414-2.063-8.49-2.063-3.084 0-6.162.69-8.505 2.07-1.307.77-2.242 1.67-2.803 2.623-.424.72-.637 1.473-.637 2.225 0 .75.213 1.503.637 2.223.56.954 1.494 1.853 2.802 2.623l.013.01c2.34 1.376 5.414 2.063 8.49 2.063 3.084 0 6.164-.69 8.506-2.07zm3.31-2.322c-.61 1.038-1.615 2.01-3.014 2.832-2.436 1.437-5.62 2.155-8.803 2.155-3.174 0-6.354-.715-8.787-2.145l-.02-.01c-1.393-.82-2.398-1.794-3.01-2.833-.48-.816-.72-1.67-.72-2.524s.24-1.708.72-2.522c.61-1.04 1.617-2.012 3.01-2.833h.003c2.435-1.436 5.62-2.154 8.802-2.154 3.174 0 6.354.716 8.788 2.145l.02.01c1.393.823 2.398 1.796 3.01 2.835.48.814.72 1.668.72 2.522 0 .85-.236 1.698-.71 2.506l-.01.016z"/></svg>