<svg xmlns="http://www.w3.org/2000/svg" width="113" height="48" viewBox="0 0 113 48"><path d="M36.85 30.198c0 .588-.147.88-.22 1.396h4.266c.515-2.133.957-4.412 1.396-6.473.148-.734.148-1.25.442-1.543 1.03-.735 3.457-.955 2.942 1.84-.222 1.103-.662 2.133-.516 3.235.222 3.236 3.605 3.236 4.708 2.722 1.618-.735 1.84-1.472 2.427-1.618.222.146.516.663.884.956 1.25 1.03 2.94 1.03 4.485.662 2.722-.588 3.752-2.278 4.708-2.868v-1.84c-.368.223-.223.223-.736.81-.367.296-.515.518-.882.736-2.722 2.06-4.93 1.177-5.075-.662-.148-2.207.146-1.84.514-1.913 3.017-.588 6.18-2.5 6.18-6.104-.074-3.236-4.12-3.31-6.18-2.427-2.132.957-3.456 3.384-4.046 5.737-.514 1.913-.808 3.825-.294 5.812-.367.074-2.5.736-2.426-.883.072-1.396 1.69-3.898-.442-5.886-.295-.293-.734-.587-1.104-.81-.66-.292-.882-.22-1.765-.22l5.736-3.897c-4.413 0-2.5-.516-6.766 2.72-.368.22-.59.442-.957.736-.146.147-.22.22-.367.294-.294.294-.22.294-.59.367 0-.66.883-4.192 1.03-5l.81-3.825c.074-.44.22-.81.22-1.25-.66 0-1.544.22-2.28.294l-1.763.22c-.59.147-.295 0-.59 1.47l-3.087 14.417c-.148.662-.074 1.104-1.326 1.473-.734.223-1.618 0-1.765-.734-.146-.662 1.397-7.65 1.69-8.975.148-.516.368-1.912.516-2.207h-4.412c0 .294 0 .367-.074.59-.956-.443-.81-.664-2.28-.664-1.028.074-1.838.294-2.5.59-1.324.514-2.5 1.69-3.164 2.94-1.176 2.134-1.69 4.708-1.69 7.355 0 .663 0 .736-.516 1.03-1.104.736-2.426.44-2.06-1.545.367-1.69 1.692-6.18 1.25-7.575-.367-1.325-1.616-2.722-3.235-2.795-1.913 0-3.163 1.178-4.267 1.913-1.913-2.87-4.192-2.06-6.62-.442 0-.587.22-.88.22-1.396H3.017a548.375 548.375 0 0 0-1.545 7.28c-.22 1.104-.515 2.353-.734 3.603-.15.737-.736 3.163-.736 3.75h4.265c0-.44.223-1.175.295-1.69l2.133-10.075c.44-.81 3.604-1.398 3.09 1.545-.223 1.177-.516 2.28-.737 3.384l-1.396 6.84h3.385c1.247 0 .808.22 1.322-2.134.22-.735.295-1.323.44-1.985.296-1.25.517-2.574.81-3.897.22-1.028.81-3.014.368-3.896 2.133-1.104 3.384-.442 2.795 2.353l-1.104 5.44c-.663 4.193 3.237 4.782 5.15 3.605.882-.515 1.47-1.177 1.91-1.47.517 2.133 4.047 3.383 6.695.66.294-.293.442-.586.735-.733.443 1.837 3.236 2.94 5.885 1.102.296-.15.517-.372.81-.444zm23.684-10.226c-.22 3.09-2.353 4.34-4.633 4.414.442-1.985 1.03-3.75 2.06-5l.294-.295c1.03-1.103 2.353-.81 2.28.882zM29.2 19.237c.883-.735 1.986-.662 2.574.074l-1.838 8.9c-.735 1.474-3.017 1.84-3.385.147-.585-2.72.738-7.428 2.65-9.12z"/><path d="M62.374 26.667v1.84c0 1.84 1.396 3.31 3.235 3.31 3.016 0 3.603-1.767 4.41-2.278.37 1.766 3.02 2.794 5.443 1.395.81-.44 1.104-.884 1.618-1.178 1.028 1.84 2.724 1.912 4.71 1.912 1.766.073 2.794-.59 4.044-1.545.883-.662 1.913-2.354 2.354-3.383.662-1.398 1.838-5.223 1.104-7.503-.588-1.986-2.28-2.723-4.266-2.43-.66.15-1.104.516-1.692.664l1.03-4.782c.072-.515.296-1.176.296-1.69-1.25 0-3.236.514-4.34.587l-3.163 14.563c-.146.88-.295 1.322-.295 2.353-.516.146-.883.59-1.692.368-1.69-.294-.733-2.28-.22-4.708l1.472-7.208h-4.34c0 .294-.073.367-.147.59-.515-.295-.88-.59-1.69-.664-.884 0-1.617.074-2.278.294-1.25.44-2.208 1.03-3.017 1.986-.812 1.03-1.397 1.985-1.77 3.237-.29.736-.953 3.384-.806 4.267zm6.62-7.43c.882-.735 2.06-.662 2.646 0l-1.912 8.9c-.664 1.547-3.017 1.912-3.386.148-.585-2.723.74-7.356 2.65-9.048zm24.2-7.65c0 1.325-3.386 14.565-3.386 17.063 0 1.69 1.323 2.94 3.09 2.94 2.13 0 2.574-.66 4.12-1.838.365-.294.66-.66 1.028-.882.146 2.277 1.91 2.72 3.824 2.72 1.32 0 2.794-1.47 3.678-2.058 0 .365-.146.66-.222 1.027-.222 1.25-.222.587-2.647 1.616-2.428 1.104-3.458 3.825-1.472 5.812 1.396 1.396 4.045 1.104 5.59 0 1.617-1.104 2.133-3.385 2.5-5.225.223-1.396 3.237-15.226 3.237-15.812h-4.27l-2.132 10.077c-.146.81-.222.81-.81 1.252-.734.438-.882.587-1.84.587-1.544 0-1.175-1.25-.956-2.354l2.062-9.562h-4.414l-1.69 8.46c-.517 2.206 0 1.838-1.324 2.795-1.396.955-3.386.955-3.017-.81.367-1.69 3.457-15.666 3.457-16.4-.733 0-1.473.147-2.205.295-.585.077-1.543.298-2.204.298zm11.767 20.89c-.145 1.986-.587 3.09-1.176 3.604-.81.81-2.28.296-1.984-.954 0-.294.146-.517.292-.812.59-.88 1.913-1.543 2.87-1.837zM81.058 27.77l1.84-8.68c2.205-.956 3.457-.074 3.236 2.28-.443 4.928-1.914 7.796-3.53 8.385-1.326.222-1.84-.366-1.546-1.985z"/></svg>