<!DOCTYPE svg PUBLIC "-//W3C//DTD SVG 1.1//EN" "http://www.w3.org/Graphics/SVG/1.1/DTD/svg11.dtd" [
	<!ENTITY ns_flows "http://ns.adobe.com/Flows/1.0/">
]><svg xmlns="http://www.w3.org/2000/svg" width="19" height="30" viewBox="0 -1.125 19 30" overflow="visible"><path fill="#FFF" d="M19.04 9.536C19.04 4.27 14.78 0 9.52 0S0 4.27 0 9.536c0 1.49.34 2.9.95 4.157H.928l.108.175c.25.487.538.95.863 1.386l7.863 12.62 7.706-13.09a9.31 9.31 0 0 0 .49-.833l.15-.256h-.02a9.49 9.49 0 0 0 .95-4.157zm-9.52 4.34c-2.392 0-4.332-1.942-4.332-4.34s1.94-4.34 4.333-4.34 4.335 1.943 4.335 4.34-1.94 4.34-4.333 4.34z"/></svg>