<svg xmlns="http://www.w3.org/2000/svg" width="816" height="11in" viewBox="0 0 8500 11000" shape-rendering="geometricPrecision" text-rendering="geometricPrecision" image-rendering="optimizeQuality" fill-rule="evenodd" clip-rule="evenodd"><defs><style>.fil0{fill:#c5c6c6;fill-rule:nonzero}</style></defs><path class="fil0" d="M3508 5776c-10-2-14-16-13-42 2-26 5-59 12-99 2 18 4 35 6 52 1 16 3 32 3 45 1 13 0 24-1 32s-3 12-7 12zm-48-244c-4 2-11 1-14 4-9 9-14 25 9 34-3 21-5 40-8 58-3 24-5 42-6 54-4 40 0 72 11 96 11 25 27 38 50 40 14 1 24-4 30-16 7-11 11-29 12-51 0-23-1-51-6-85-4-38-11-77-18-115 13-89 37-193 51-284 3-21 9-40 5-56-11-36-48-41-70-1-8 16-8 40-11 65-4 24-7 51-11 81s-8 61-13 95c-4 28-7 55-11 81zm66 50h2c50-4 73-94 42-170-10-24-8-77 37-67 7 2 11 7 15 16s5 21 3 38c10 1 32 6 37 5s10-3 14-6c2-1 5-2 9-1s7 3 11 5c3 3 6 6 8 10 1 4 2 8 0 13-3 10-6 24-9 42-3 17-5 34-7 51-1 17-1 31 0 43s4 18 9 18 10-2 15-7 11-11 16-18c6-7 11-15 17-23 5-8 10-16 16-22 4-7 9-11 13-13s8-2 11 0c2 2 4 5 4 9 1 4 0 9-3 15-8 16-16 31-26 45-8 12-18 24-29 36-10 12-22 20-35 26-6 3-14 3-22 2-8-2-15-5-22-11-6-6-11-14-15-25-4-10-5-23-4-39 2-13 4-26 7-39s6-25 9-35c3-11 5-20 6-27 2-6 1-10-1-9-8 3-32-1-40-2 25 96-44 174-80 178h-2l-6-38zm679 43c-1 0-3 0-4-1-1 0-3-1-5-1-13-6-22-13-27-22s-8-19-9-29 0-20 1-30c2-10 3-18 3-25 2-13 4-27 7-39 3-13 5-26 6-40 0-5 1-11 1-17s-2-12-7-18c-4-5-7-6-11-6-3 0-7 2-11 4-3 2-6 5-9 8s-4 5-6 6c-5 7-9 15-12 24-2 9-5 18-7 28l-3 9c-1 4-1 7-2 11l-6 39c-3 12-5 25-7 38 0 4-1 8-1 12-1 3-1 7-2 11 0 5 0 10 1 15 0 5 0 9-2 14 0 1 0 1-1 2 0 1-1 2-1 3 0 0-1 0 0 0 0 1-1 1-1 1-1 1-3 1-5 2-2 0-3 0-5 1-4 0-9 1-13 1h-15c-4 0-8-1-12-2-2 0-4-3-5-6-2-3-3-7-2-9 0-7 1-13 1-19 1-6 1-12 2-18l9-57c2-18 5-37 7-56 1-6 2-11 2-17 1-5 2-11 2-17 2-11 4-22 5-33 1-12 3-23 4-35 2-19 4-37 7-55 2-17 5-35 7-53 1-11 2-21 2-31v-10c-1-4-2-7-2-10-1-4-1-7-1-7 1-1 4-2 10-2h7c3 0 6 0 8-1 7-1 12-2 16-2 5-1 8-1 10-1s4 0 5 1 2 2 2 3c5 7 8 13 8 20v19c-1 11-2 21-4 30-1 5-1 10-2 15 0 6-1 11-1 16-2 10-4 21-6 31-1 10-3 21-4 32-1 3-1 6-1 9-1 3-1 6-1 9-2 9-3 18-4 28v2c0-1 1-1 1-2 1-1 1-1 1-2 1-1 2-2 3-2 0-1 1-2 2-3 3-4 7-8 11-12s8-7 13-9c2-2 6-3 9-4 4 0 8-1 11-1 6-1 11-1 17 0 7 1 13 4 18 8 10 8 16 16 20 24 4 9 6 17 7 26s1 17 0 25-1 16-2 22c-1 8-2 16-3 23l-3 24c-1 5-2 11-4 17-1 6-2 11-3 17s-1 12-1 18c0 7 2 14 5 20 5 2 9 1 13-1 3-2 6-5 8-7 3-3 5-6 8-9 2-3 5-6 7-10 12-19 20-36 27-49 10-31 17-63 19-91 2-19 5-31 7-48 3-27 53-57 65-14 1 5-4 14-7 25v4c0 4 0 7 1 11 2 10 4 19 7 28 2 10 5 19 7 28 4 16 8 31 11 45 3 15 5 29 5 43 1 52-42 116-95 104-4-1-7-2-11-4-3-2-6-4-9-7-4-2-7-5-9-9-4-7-6-10-6-17s3-23 15-17c4 2 6 4 10 9 3 5 6 12 10 16 16 18 33 8 42-6 8-13 5-59 2-73-2-11-3-22-5-33-3-15-6-30-9-46-2-15-6-31-11-46 3 33-9 91-29 134-14 30-32 52-46 63-3 3-6 5-9 8-4 2-9 4-16 6-6 1-12 1-20-1zm277-2c-5-2-11-4-17-8-10-6-18-14-24-23s-11-19-14-29-5-20-6-30v-25c2-25 5-49 9-73 3-24 8-47 14-70 2-6 3-12 4-18v-7c0-3 0-5 2-6-2-1-6-2-10-3h-11c-4 0-7-1-10-2-3-2-5-4-6-9-1-3-1-6 2-7 2-2 5-3 9-3 3 0 7 0 11 1h9c4-1 7-2 10-5 2-3 4-6 5-10s2-9 2-13c1-4 1-8 1-12 1-7 2-14 2-21v-21c0-3 0-6-1-10-1-3-1-7-1-11-1-3-1-7-1-10s1-6 2-8c2-2 4-4 7-4 3-1 7-1 11-1h22c3-1 8-2 12-2 5 0 10 2 14 7 3 4 5 8 6 12v12c1 8 1 15 0 23-1 7-2 14-3 22s-3 17-5 26-3 18-1 28h25c2 0 5 1 8 2 3 2 4 5 5 10 0 4-1 6-3 8-3 3-8 4-14 3s-11-1-16-1c-6 0-11 2-13 6-2 5-3 10-4 16-3 26-7 52-11 78-3 26-8 52-13 78-2 6-2 13-3 20s0 14 2 22c0 6 3 11 6 15s6 7 10 9c4 3 7 3 11 3s8-2 12-5c6-4 11-11 14-19 2-7 5-15 8-23 3-10 5-19 8-29 2-9 5-19 8-28 0-1 1-2 1-3 1-9 3-19 5-27 6-19 14-35 27-49 7-9 16-16 27-22s22-10 35-12c15-2 26 2 34 11 9 9 15 19 18 27 3 9 4 18 3 25-1 8-3 15-8 22-4 7-9 13-15 19-5 6-11 11-18 15s-12 7-18 10-11 6-16 8c-5 3-9 6-12 9-3 4-5 8-6 14-1 5-1 12 1 21 0 5 2 11 5 16 2 5 5 10 9 15 4 4 9 8 14 11 5 2 10 3 17 3 6 0 11-1 16-3 5-3 9-6 12-10 4-3 7-8 9-12 3-5 5-10 7-15 3-6 5-12 7-19 0-2 1-5 1-8 2-9 4-18 6-26 3-9 5-18 6-27 2-10 3-20 3-30v-32c0-7 1-13 2-20 1-6 4-11 9-15 4-3 9-5 15-6 5-1 12 0 18 3 4 2 7 4 9 6l6 9c1 3 2 7 3 10 0 3 1 6 1 9 1 10 1 20 0 30s-2 19-4 28c-1 11-4 20-6 29-3 10-5 19-6 29-2 8-3 16-5 25-1 9 0 19 4 28 3 8 6 12 11 12 5 1 9 0 12-3 6-5 9-12 12-19 2-8 4-15 6-22 4-18 8-36 12-53 4-18 6-37 7-57 0-9 0-18 1-28 0-9 3-17 8-24 2-2 4-4 7-6s6-3 9-4c4-1 8-1 12 0s8 2 12 5c5 3 9 7 11 11 2 5 4 9 4 13 1 5 1 9 1 13 0 5-1 8-1 11-3 18-6 36-10 53-4 16-6 34-7 54 0 2 0 7-1 13v19c1 7 2 13 4 19s6 11 11 13c4 2 8 3 12 2 3-1 6-3 9-5s5-5 7-8 4-6 5-8c4-8 8-16 10-25 2-10 4-19 6-28 2-15 4-30 5-46s-1-33-5-49c0-3-1-5-1-8-15-8-19-25-17-38 0-2 1-4 1-5 1-5 3-8 6-11h1c21-25 38 8 46 19 19 24 57 2 69-2 5-1 5 2 2 6-3 5-11 10-11 11-17 13-35 24-58 26 2 18 3 34 1 50-1 17-4 32-8 47-5 17-11 33-17 49-7 15-16 29-28 40-4 4-8 7-13 10s-11 5-18 5c-9 1-19-1-29-6-10-4-18-12-26-23-4-6-8-13-10-20-3-6-5-13-7-19-2 9-5 17-7 25-3 9-7 16-13 23-4 6-11 11-19 15-7 4-17 5-27 2l-1-1h-2c-8-4-16-10-22-18-7-8-12-17-15-25l-3-9c-4 10-9 18-15 27-7 9-15 16-26 22-5 2-11 4-17 6-7 1-14 1-22 0s-17-4-26-8c-12-6-21-13-28-22s-13-19-17-29c-3-8-5-15-6-23l-5 10c-3 8-7 17-11 26-4 10-9 19-15 27-7 8-14 13-23 17s-20 4-33 0zm-477-263c2 5-3 14-6 25v4c0 4 0 7 1 11 1 10 4 19 6 28 3 10 5 19 7 28 4 16 8 31 11 45 4 15 6 29 6 43 1 52-43 116-96 104-3-1-7-2-10-4-4-2-7-4-10-7-3-2-6-5-9-9-4-7-5-10-5-17s2-23 15-17c4 2 6 4 9 9 4 5 7 12 11 16 16 18 33 8 41-6 8-13 5-59 2-73-2-11-3-22-5-33-3-15-5-30-8-46-3-15-6-31-11-46 3 33-9 91-30 134-17 36-39 61-53 68-6 4-12 6-19 8-6 1-13 1-21 0-9-1-17-4-26-8-12-6-22-13-29-22s-12-19-16-29c-4-11-6-21-8-31-1-10-2-19-2-27 0-22 2-42 7-60 5-19 14-35 26-49 8-9 17-16 28-22 10-6 22-10 35-12 14-2 26 2 34 11 9 9 15 19 18 27 3 9 4 18 3 25-1 8-4 15-8 22s-9 13-15 19-12 11-18 15c-7 4-13 7-18 10-6 3-11 6-16 8-5 3-9 6-12 9-3 4-5 8-6 14-1 5-1 12 0 21 1 5 3 11 5 16 3 5 6 10 10 15 4 4 8 8 13 11 5 2 11 3 17 3s12-1 16-3c3-2 6-3 8-5 1-1 1-2 2-3 7-8 13-17 19-27 6-15 14-35 21-53 8-27 12-54 14-78 2-19 5-31 7-48 4-27 53-57 65-14zm623 127c2 0 5-1 7-3s4-3 4-3c7-6 13-13 17-22 5-8 8-17 11-26 2-5 3-11 3-17 1-7 0-14-2-21-1-3-3-5-6-8-3-2-6-3-8-3-4 1-6 4-9 8-2 4-3 7-5 10-1 2-2 5-3 7s-1 5-2 7c-2 7-4 13-6 20s-4 14-5 21c0 1-1 4-1 7-1 3-1 7-1 11-1 4 0 7 1 10 0 2 2 3 5 2zm-815 0c2 0 4-1 7-3 2-2 3-3 4-3 7-6 12-13 17-22 4-8 8-17 11-26 1-5 2-11 3-17 1-7 0-14-3-21-1-3-3-5-5-8-3-2-6-3-9-3-3 1-6 4-8 8s-4 7-5 10c-1 2-2 5-3 7s-2 5-2 7c-3 7-5 13-7 20-1 7-3 14-4 21-1 1-1 4-2 7 0 3-1 7-1 11s0 7 1 10c1 2 3 3 6 2z" id="Layer_x0020_1"/></svg>