<svg xmlns="http://www.w3.org/2000/svg" width="184" height="48" viewBox="0 0 184 48"><path d="M109.554 21.74c-.284-1.113-.804-1.983-1.656-2.613-.852-.58-1.894-.87-3.172-.87-1.75 0-3.123.483-4.165 1.548-.993 1.017-1.514 2.467-1.514 4.306 0 1.742.52 3.146 1.468 4.21.994 1.063 2.272 1.596 3.93 1.596 1.324 0 2.46-.387 3.454-1.112.9-.726 1.516-1.74 1.8-3h1.42c-.285 1.646-1.042 3-2.226 3.967-1.183 1.02-2.65 1.5-4.402 1.5-2.034 0-3.692-.676-4.923-1.98-1.23-1.308-1.847-3-1.847-5.178 0-2.225.616-4.015 1.847-5.273 1.277-1.258 2.982-1.936 5.16-1.936 1.703 0 3.124.436 4.212 1.307 1.088.87 1.75 2.032 1.94 3.532h-1.326zm64.468 5.998h1.277c.094.774.425 1.307.994 1.692.568.387 1.372.58 2.413.58 1.09 0 1.94-.193 2.51-.482.567-.338.85-.774.85-1.402 0-.388-.14-.726-.424-.97-.284-.24-.758-.386-1.372-.482l-2.84-.436c-1.136-.193-1.94-.483-2.414-.918-.474-.436-.758-1.017-.758-1.84 0-.918.427-1.595 1.184-2.127.758-.532 1.848-.823 3.172-.823 1.373 0 2.462.29 3.217.87.76.582 1.187 1.355 1.187 2.37h-1.278c-.096-.677-.428-1.16-.95-1.5-.565-.336-1.323-.53-2.364-.53-.852 0-1.562.146-2.083.436-.473.337-.758.725-.758 1.257 0 .388.19.727.52.97.284.24.9.386 1.753.53l2.51.388c1.087.194 1.844.483 2.318.92.474.387.71 1.016.71 1.79 0 1.063-.38 1.838-1.23 2.42-.806.53-1.99.82-3.598.82-1.372 0-2.462-.34-3.268-.92-.757-.628-1.182-1.498-1.278-2.612zm-9.704 0h1.28c.094.774.425 1.307.992 1.692.57.387 1.373.58 2.413.58 1.09 0 1.94-.193 2.51-.482.568-.338.853-.774.853-1.402 0-.388-.143-.726-.426-.97-.284-.24-.758-.386-1.372-.482l-2.84-.436c-1.138-.193-1.94-.483-2.414-.918-.475-.436-.76-1.017-.76-1.84 0-.918.428-1.595 1.185-2.127.757-.532 1.845-.823 3.17-.823 1.373 0 2.463.29 3.22.87.757.582 1.183 1.355 1.183 2.37h-1.276c-.096-.677-.427-1.16-.948-1.5-.57-.336-1.326-.53-2.32-.53-.898 0-1.608.146-2.13.436-.474.337-.71.725-.71 1.257 0 .388.142.727.474.97.283.24.898.386 1.75.53l2.51.388c1.09.194 1.846.483 2.32.92.474.387.71 1.016.71 1.79 0 1.063-.38 1.838-1.232 2.42-.804.53-1.987.82-3.597.82-1.372 0-2.46-.34-3.266-.92-.76-.628-1.186-1.498-1.282-2.612zm-2.744-2.272c-.237.145-.616.29-1.088.386-.475.146-1.232.24-2.322.436-1.372.193-2.27.483-2.65.726-.377.242-.566.628-.566 1.16 0 .533.236.97.71 1.307.425.34 1.04.484 1.845.484 1.185 0 2.18-.29 2.937-.87.757-.58 1.136-1.306 1.136-2.226v-1.403h-.002zm2.366 4.158v1.163l-.567.144h-.52c-.428 0-.71-.095-.947-.337-.19-.242-.284-.63-.33-1.21-.57.63-1.137 1.065-1.8 1.355-.662.24-1.468.387-2.414.387-1.184 0-2.082-.242-2.745-.774-.615-.532-.947-1.257-.947-2.224 0-.436.095-.823.238-1.162.188-.387.425-.677.757-.967.283-.194.662-.338 1.134-.483.426-.146 1.23-.29 2.365-.436.238-.05.57-.098.996-.146 1.61-.192 2.415-.678 2.415-1.403 0-.532-.237-.968-.71-1.26-.473-.288-1.136-.434-2.035-.434-1.09 0-1.94.193-2.557.58-.566.387-.853.968-.898 1.742h-1.278c.047-1.16.474-2.032 1.23-2.612.756-.58 1.893-.87 3.36-.87.9 0 1.656.096 2.226.29.615.145 1.04.483 1.372.92.188.24.33.53.425.87.096.337.143.82.143 1.547v4.402c0 .484.048.725.096.87.093.097.234.146.425.146h.283c.092-.047.188-.047.282-.096zm-21.678 4.838V20.917h1.278v1.742c.52-.678 1.04-1.16 1.704-1.5.615-.34 1.325-.484 2.176-.484 1.563 0 2.794.484 3.787 1.45.948.968 1.42 2.226 1.42 3.773 0 1.548-.472 2.806-1.467 3.772-.946.97-2.177 1.452-3.74 1.452-.804 0-1.56-.146-2.176-.436-.616-.34-1.184-.822-1.704-1.5v5.272h-1.278v.002zm1.278-8.563c0 1.21.378 2.177 1.04 2.902.71.726 1.657 1.112 2.84 1.112 1.185 0 2.13-.387 2.794-1.112.71-.726 1.088-1.693 1.088-2.903s-.38-2.177-1.088-2.902c-.663-.727-1.61-1.112-2.794-1.112-1.183 0-2.13.386-2.84 1.112-.662.726-1.04 1.692-1.04 2.9zm-20.022 4.983v-9.966h1.23v1.84a4.888 4.888 0 0 1 1.75-1.55 5.335 5.335 0 0 1 2.368-.53c.946 0 1.705.192 2.32.53.567.34.993.872 1.277 1.55a4.866 4.866 0 0 1 1.752-1.55 5.48 5.48 0 0 1 2.365-.53c1.28 0 2.226.338 2.84.918.616.63.9 1.548.9 2.854v6.433h-1.278v-5.61c0-1.26-.19-2.13-.616-2.662-.38-.482-1.088-.724-2.082-.724-1.09 0-2.035.29-2.746.918a3.133 3.133 0 0 0-1.088 2.42v5.66h-1.136V25.27c0-1.258-.236-2.13-.615-2.66-.427-.484-1.138-.726-2.13-.726-1.09 0-2.037.29-2.746.918a3.13 3.13 0 0 0-1.09 2.42v5.66h-1.276zM111.73 25.9c0-1.597.475-2.902 1.47-3.87.945-.968 2.224-1.5 3.785-1.5 1.563 0 2.793.532 3.787 1.5.946.968 1.42 2.273 1.42 3.87 0 1.596-.474 2.902-1.42 3.87-.994 1.017-2.224 1.5-3.787 1.5-1.562 0-2.84-.483-3.786-1.5-.995-.967-1.47-2.274-1.47-3.87zm1.327 0c0 1.257.33 2.226 1.042 2.95.71.773 1.655 1.112 2.886 1.112 1.183 0 2.13-.34 2.84-1.11.71-.727 1.043-1.695 1.043-2.953 0-1.258-.333-2.226-1.043-2.95-.71-.774-1.658-1.113-2.84-1.113-1.23 0-2.178.34-2.888 1.112-.712.725-1.043 1.693-1.043 2.95zM41.653 28.27c0 .773.096 1.208.237 1.402.19.145.473.242.9.242.14 0 .33 0 .472-.05.19 0 .38-.048.568-.097v1.113c-.284.097-.568.146-.805.194-.283 0-.52.05-.758.05-.71 0-1.183-.195-1.466-.583-.284-.435-.427-1.11-.427-2.078v-6.434h-1.656v-1.064h1.656v-2.95h1.278v2.95h2.226v1.064H41.65v6.242h.003zM0 30.93V17.336h2.13l5.632 12.336 5.682-12.336h1.987V30.93h-1.324l.047-12.432L8.52 30.93H7.006l-5.82-12.432.14 12.432H0zm92.443 0v-9.965h1.277v9.965h-1.277zm-4.876 0H86.29v-9.965h1.277v1.646c.284-.63.71-1.11 1.23-1.5a3.132 3.132 0 0 1 1.75-.532c.19 0 .38.05.617.098.19.048.426.098.663.193v1.257a11.06 11.06 0 0 1-.616-.146c-.188 0-.378-.047-.52-.047-.805 0-1.42.242-1.94.63-.52.434-.9 1.062-1.184 1.934v6.433zm-13.11-4.983c0-1.596.52-2.903 1.467-3.87.947-1.016 2.225-1.5 3.786-1.5 1.562 0 2.793.484 3.787 1.5.946.967 1.42 2.274 1.42 3.87 0 1.597-.474 2.903-1.42 3.87-.994.968-2.225 1.5-3.787 1.5-1.562 0-2.84-.532-3.786-1.5-.947-.966-1.467-2.273-1.467-3.87zm1.325 0c0 1.258.38 2.226 1.04 2.95.71.774 1.704 1.113 2.888 1.113s2.13-.34 2.84-1.112c.71-.726 1.042-1.693 1.042-2.95 0-1.258-.33-2.227-1.04-2.952-.712-.772-1.658-1.11-2.842-1.11s-2.177.338-2.887 1.11c-.662.726-1.04 1.694-1.04 2.95zm-11.22 1.84h1.28c.093.773.424 1.305.992 1.69.568.388 1.373.582 2.416.582 1.088 0 1.938-.195 2.508-.485.567-.338.85-.773.85-1.402 0-.387-.14-.726-.425-.968-.283-.242-.757-.387-1.372-.483l-2.887-.437c-1.09-.192-1.893-.482-2.366-.918-.52-.436-.757-1.016-.757-1.84 0-.917.378-1.595 1.183-2.127.757-.532 1.847-.823 3.172-.823 1.372 0 2.413.29 3.22.872.755.58 1.18 1.353 1.18 2.368H72.28c-.096-.677-.427-1.16-.946-1.5-.57-.338-1.374-.53-2.368-.53-.9 0-1.562.145-2.083.436-.473.29-.757.725-.757 1.257 0 .388.19.727.473.968.33.243.946.388 1.798.533l2.51.388c1.09.193 1.846.483 2.318.87.475.436.71 1.063.71 1.838 0 1.064-.38 1.84-1.23 2.42-.804.532-2.035.82-3.597.82-1.374 0-2.463-.338-3.267-.917-.76-.632-1.233-1.502-1.28-2.614zm-9.703 0h1.277c.095.773.426 1.305.995 1.69.567.388 1.372.582 2.413.582 1.09 0 1.94-.195 2.508-.485.57-.338.854-.773.854-1.402 0-.387-.145-.726-.428-.968-.285-.242-.76-.387-1.373-.483l-2.888-.437c-1.09-.192-1.895-.482-2.368-.918-.52-.436-.758-1.016-.758-1.84 0-.917.38-1.595 1.185-2.127.756-.532 1.846-.823 3.17-.823 1.373 0 2.462.29 3.22.872.757.58 1.183 1.353 1.183 2.368h-1.277c-.096-.677-.428-1.16-.948-1.5-.567-.338-1.325-.53-2.366-.53-.898 0-1.562.145-2.084.436-.472.29-.756.725-.756 1.257 0 .388.188.727.473.968.332.243.947.388 1.8.533l2.51.388c1.087.193 1.845.483 2.318.87.474.436.71 1.063.71 1.838 0 1.064-.38 1.84-1.23 2.42-.806.532-2.035.82-3.598.82-1.372 0-2.46-.338-3.267-.917-.757-.632-1.23-1.502-1.28-2.614zm-.85-.05c-.238 1.113-.806 1.983-1.706 2.612-.853.627-1.894.966-3.124.966-1.562 0-2.84-.483-3.787-1.5-.946-.966-1.42-2.272-1.42-3.87 0-1.595.474-2.902 1.42-3.868.947-1.017 2.226-1.5 3.787-1.5s2.84.483 3.787 1.45c.947.968 1.42 2.274 1.42 3.92v.288h-9.04c.046 1.21.425 2.13 1.088 2.807.662.63 1.61.968 2.745.968.853 0 1.562-.193 2.13-.58.616-.387.994-.967 1.278-1.692h1.42zm-8.617-2.61h7.526c-.095-.97-.474-1.79-1.136-2.373-.663-.628-1.563-.917-2.604-.917-1.088 0-1.94.29-2.65.917-.71.582-1.09 1.403-1.137 2.372zM28.78 30.93v-9.965h1.23v1.838a4.874 4.874 0 0 1 1.75-1.548c.71-.34 1.468-.532 2.368-.532 1.277 0 2.224.34 2.84.92.614.63.898 1.547.898 2.854v6.434h-1.23v-5.61c0-1.26-.237-2.13-.616-2.66-.426-.483-1.135-.726-2.13-.726-1.09 0-2.035.29-2.746.92-.71.628-1.087 1.402-1.087 2.418v5.66H28.78v-.002zm-11.787-4.983c0-1.596.474-2.903 1.467-3.87.947-1.016 2.226-1.5 3.786-1.5 1.563 0 2.793.484 3.788 1.5.945.967 1.42 2.274 1.42 3.87 0 1.597-.475 2.903-1.42 3.87-.995.968-2.225 1.5-3.788 1.5-1.56 0-2.84-.532-3.786-1.5-.993-.966-1.467-2.273-1.467-3.87zm1.325 0c0 1.258.33 2.226 1.042 2.95.71.774 1.655 1.113 2.886 1.113 1.185 0 2.13-.34 2.84-1.112.71-.726 1.042-1.693 1.042-2.95 0-1.258-.33-2.227-1.042-2.952-.71-.772-1.655-1.11-2.84-1.11-1.23 0-2.177.338-2.886 1.11-.71.726-1.042 1.694-1.042 2.95zM92.964 13.757l-1.515.774-.76-3.53 2.274 2.757zm1.373.484l-1.088-.435 1.37-2.032-.283 2.468zm-2.7 3.53l1.09.39-1.325 2.03.236-2.42zm3.125-.385l.38-1.113 1.987 1.356-2.368-.243zm-3.502-2.757l-.38 1.112-1.986-1.354 2.366.242zm3.88 1.354l-.756-1.596 3.503-.726-2.746 2.322zm-4.307-.05l.758 1.55-3.5.775 2.743-2.324zm2.13 2.227l1.563-.775.758 3.53-2.32-2.756z"/></svg>