<svg width="320" height="195" viewBox="0 0 320 195" fill="none" xmlns="http://www.w3.org/2000/svg">
<g clip-path="url(#clip0_1263_1623)">
<rect x="-3.92383" y="-0.259766" width="60.3627" height="22.2887" rx="4.19882" fill="#FFA800"/>
<rect x="117.676" y="119.383" width="121.423" height="22.2887" rx="4.19882" fill="#FFA800"/>
<path d="M163.365 119.383H234.901C237.219 119.383 239.099 121.263 239.099 123.582V137.473C239.099 139.792 237.219 141.672 234.901 141.672H163.365V119.383Z" fill="#FFA800"/>
<rect x="57.291" y="47.4141" width="60.3856" height="22.2887" rx="4.19882" fill="#8168B7"/>
<rect x="270.973" y="167.059" width="150.902" height="22.2887" rx="4.19882" fill="#11ACEE"/>
<rect x="26.6934" y="23.2637" width="60.7782" height="22.9078" rx="4.19882" fill="#FF6B4A"/>
<rect x="209.742" y="142.908" width="90.5644" height="22.9078" rx="4.19882" fill="#FB5842"/>
<rect x="209.932" y="117.994" width="91.4381" height="22.9078" rx="4.19882" transform="rotate(-180 209.932 117.994)" fill="#32B978"/>
<rect x="117.676" y="93.8477" width="60.3856" height="22.9078" rx="4.19882" transform="rotate(-180 117.676 93.8477)" fill="#11ACEE"/>
<path d="M157.856 23.6667C149.357 32.3305 158.742 41.1126 165.511 37.1879C174.954 31.7136 167.508 18.3067 159.234 24.5794" stroke="#FD6B5C" stroke-width="1.17059" stroke-linecap="round" stroke-linejoin="round"/>
<path d="M162.462 36.6935C163.719 72.6818 163.982 126.26 163.728 190.482" stroke="#FD6B5C" stroke-width="1.14262" stroke-linecap="round" stroke-linejoin="round" stroke-dasharray="4.7 7.05"/>
<path d="M164.641 30.4621C164.641 31.6651 163.605 32.9125 162.463 32.6402C160.818 32.2481 160.285 31.6651 160.285 30.4621C160.285 29.2592 161.26 28.284 162.463 28.284C163.914 27.8965 164.641 29.2592 164.641 30.4621Z" fill="#FD6B5C"/>
<path d="M165.701 192.685C165.701 193.888 164.645 195.182 163.523 194.864C162.175 194.48 161.345 193.888 161.345 192.685C161.345 191.483 162.32 190.507 163.523 190.507C165.023 190.294 165.701 191.483 165.701 192.685Z" fill="#FD6B5C"/>
<path d="M140.906 13.9804C140.895 14.1003 140.857 14.2148 140.791 14.3238C140.737 14.422 140.649 14.4656 140.529 14.4547C140.344 14.4438 140.18 14.3729 140.039 14.2421C139.908 14.1112 139.842 14.0022 139.842 13.9149C139.853 12.9663 139.821 12.0012 139.744 11.0199C139.679 10.0276 139.57 9.04075 139.417 8.05937C139.417 8.01576 139.428 7.96669 139.45 7.91217C139.472 7.86855 139.499 7.81948 139.532 7.76496C139.564 7.69953 139.619 7.63956 139.695 7.58504C139.772 7.55233 139.853 7.55778 139.941 7.6014C140.039 7.64501 140.131 7.71044 140.219 7.79767C140.306 7.88491 140.382 7.98304 140.448 8.09209C140.513 8.20113 140.562 8.30472 140.595 8.40286C140.628 8.62094 140.66 8.86083 140.693 9.12253C140.726 9.38423 140.753 9.65684 140.775 9.94035C141.036 9.7986 141.287 9.64048 141.527 9.46602C141.767 9.29155 141.974 9.10073 142.149 8.89355C142.334 8.68637 142.476 8.47373 142.574 8.25565C142.672 8.02666 142.705 7.79222 142.672 7.55233C142.65 7.36696 142.569 7.19794 142.427 7.04528C142.285 6.89262 142.067 6.77813 141.773 6.7018C141.096 6.54914 140.491 6.54369 139.957 6.68544C139.423 6.81629 138.91 7.03983 138.419 7.35605C138.278 7.46509 138.147 7.53052 138.027 7.55233C137.907 7.57414 137.803 7.56868 137.716 7.53597C137.629 7.50326 137.563 7.45419 137.52 7.38876C137.476 7.32334 137.454 7.25791 137.454 7.19249C137.476 6.94169 137.596 6.71815 137.814 6.52188C138.043 6.3147 138.283 6.14023 138.534 5.99848C138.861 5.83491 139.265 5.69861 139.744 5.58957C140.224 5.48053 140.704 5.44236 141.184 5.47508C141.674 5.49688 142.132 5.61138 142.558 5.81856C142.983 6.02574 143.31 6.35832 143.539 6.81629C143.746 7.3615 143.79 7.85219 143.67 8.28836C143.561 8.72453 143.359 9.12253 143.065 9.48237C142.77 9.84221 142.421 10.1748 142.018 10.4801C141.614 10.7745 141.233 11.0471 140.873 11.2979C140.895 11.7777 140.906 12.2466 140.906 12.7046C140.917 13.1625 140.917 13.5878 140.906 13.9804ZM149.333 8.30472C149.137 8.41376 148.93 8.52825 148.712 8.6482C148.504 8.76815 148.292 8.9099 148.074 9.07347C147.867 9.22612 147.665 9.4115 147.469 9.62958C147.283 9.83676 147.114 10.0876 146.962 10.382C146.743 10.7963 146.596 11.2216 146.52 11.6578C146.444 12.083 146.395 12.5028 146.373 12.9172C146.373 13.1135 146.324 13.3152 146.226 13.5224C146.138 13.7187 146.013 13.8168 145.849 13.8168C145.642 13.8168 145.473 13.7132 145.342 13.506C145.222 13.2879 145.141 13.0808 145.097 12.8845C144.912 12.1103 144.759 11.347 144.639 10.5946C144.519 9.83131 144.415 9.07347 144.328 8.32107C144.328 8.16842 144.372 8.07028 144.459 8.02666C144.557 7.98304 144.666 7.96669 144.786 7.97759C144.917 7.9885 145.042 8.02121 145.162 8.07573C145.282 8.13025 145.353 8.21748 145.375 8.33743C145.419 8.74089 145.473 9.16615 145.539 9.61322C145.604 10.0494 145.669 10.4256 145.735 10.7418C145.778 10.3711 145.898 10.0112 146.095 9.66229C146.291 9.31336 146.531 8.99714 146.814 8.71363C147.109 8.43012 147.436 8.19022 147.796 7.99395C148.166 7.79767 148.543 7.66682 148.924 7.6014C149.088 7.57959 149.224 7.57959 149.333 7.6014C149.442 7.6232 149.519 7.66137 149.562 7.71589C149.606 7.77041 149.611 7.85765 149.579 7.97759C149.557 8.09754 149.475 8.20658 149.333 8.30472ZM153.674 8.23929C154.001 8.35924 154.274 8.53916 154.492 8.77905C154.721 9.01894 154.895 9.29155 155.015 9.59687C155.135 9.89128 155.2 10.1966 155.211 10.5128C155.233 10.829 155.2 11.1235 155.113 11.3961C154.993 11.7014 154.841 12.0012 154.655 12.2957C154.47 12.5901 154.257 12.8518 154.017 13.0808C153.777 13.3098 153.505 13.4951 153.199 13.6369C152.894 13.7786 152.556 13.8495 152.185 13.8495C151.738 13.8495 151.362 13.7459 151.057 13.5387C150.751 13.3316 150.512 13.0644 150.337 12.7373C150.163 12.4102 150.048 12.0394 149.994 11.6251C149.95 11.2107 149.961 10.7963 150.026 10.382C150.07 10.0767 150.141 9.78224 150.239 9.49873C150.348 9.20432 150.484 8.94807 150.648 8.72998C150.811 8.50099 150.997 8.31562 151.204 8.17387C151.422 8.03211 151.667 7.96124 151.94 7.96124C152.093 7.96124 152.283 7.99395 152.512 8.05937C152.741 8.11389 152.954 8.19568 153.15 8.30472C153.292 8.17387 153.467 8.15206 153.674 8.23929ZM153.052 9.4333C152.932 9.35697 152.791 9.25884 152.627 9.13889C152.474 9.00804 152.338 8.94261 152.218 8.94261C152.087 8.94261 151.956 9.00259 151.826 9.12253C151.706 9.24248 151.597 9.38423 151.498 9.5478C151.411 9.70046 151.335 9.85857 151.269 10.0221C151.204 10.1857 151.16 10.3165 151.139 10.4147C151.106 10.5782 151.084 10.7745 151.073 11.0035C151.062 11.2325 151.079 11.4615 151.122 11.6905C151.166 11.9086 151.248 12.1103 151.368 12.2957C151.498 12.4701 151.689 12.5955 151.94 12.6719C152.093 12.7155 152.273 12.7155 152.48 12.6719C152.687 12.6173 152.889 12.5246 153.085 12.3938C153.292 12.2629 153.483 12.0885 153.657 11.8704C153.843 11.6523 153.985 11.4015 154.083 11.118C154.192 10.8018 154.192 10.4747 154.083 10.1366C153.985 9.78769 153.777 9.53689 153.461 9.38423C153.385 9.43876 153.308 9.46602 153.232 9.46602C153.156 9.46602 153.096 9.45511 153.052 9.4333ZM159.093 9.4333C159.18 9.55325 159.262 9.70591 159.338 9.89128C159.425 10.0657 159.491 10.2457 159.534 10.431C159.6 10.7255 159.67 11.0471 159.747 11.3961C159.834 11.7341 159.916 12.0885 159.992 12.4592C160.079 12.83 160.156 13.2062 160.221 13.5878C160.297 13.9695 160.363 14.3347 160.417 14.6837C160.483 15.1635 160.445 15.6214 160.303 16.0576C160.172 16.5047 159.949 16.9027 159.632 17.2516C159.316 17.6006 158.924 17.8786 158.455 18.0858C157.986 18.293 157.457 18.4075 156.868 18.4293C156.737 18.4184 156.601 18.3529 156.459 18.233C156.317 18.124 156.247 18.0095 156.247 17.8895C156.236 17.7696 156.29 17.6714 156.41 17.5951C156.541 17.5297 156.672 17.4861 156.803 17.4643C157.032 17.4424 157.266 17.3934 157.506 17.317C157.757 17.2516 157.991 17.1535 158.209 17.0226C158.427 16.8918 158.624 16.7337 158.798 16.5483C158.984 16.3629 159.125 16.1448 159.223 15.894C159.3 15.6978 159.338 15.4579 159.338 15.1744C159.338 14.88 159.316 14.591 159.272 14.3075C159.24 14.024 159.191 13.7568 159.125 13.506C159.071 13.2443 159.022 13.0481 158.978 12.9172C158.902 12.9935 158.804 13.0753 158.684 13.1625C158.575 13.2498 158.449 13.3316 158.307 13.4079C158.166 13.4842 158.008 13.5442 157.833 13.5878C157.67 13.6314 157.501 13.6478 157.326 13.6369C157.141 13.626 156.966 13.5605 156.803 13.4406C156.65 13.3207 156.514 13.168 156.394 12.9826C156.274 12.7863 156.176 12.5628 156.099 12.312C156.034 12.0612 156.001 11.7995 156.001 11.5269C156.023 10.8727 156.187 10.2947 156.492 9.79314C156.808 9.28064 157.31 8.88264 157.997 8.59913C158.051 8.58823 158.122 8.57732 158.209 8.56642C158.307 8.55551 158.406 8.55551 158.504 8.56642C158.602 8.56642 158.695 8.57732 158.782 8.59913C158.88 8.62094 158.962 8.65365 159.027 8.69727C159.147 8.7845 159.207 8.9099 159.207 9.07347C159.207 9.23703 159.169 9.35697 159.093 9.4333ZM157.032 11.6741C157.032 11.7941 157.043 11.9304 157.064 12.083C157.086 12.2248 157.157 12.3284 157.277 12.3938C157.408 12.4701 157.566 12.481 157.751 12.4265C157.948 12.372 158.128 12.2793 158.291 12.1485C158.444 12.0285 158.542 11.8977 158.586 11.7559C158.64 11.6032 158.64 11.4015 158.586 11.1507C158.531 10.8999 158.471 10.6382 158.406 10.3656C158.34 10.093 158.297 9.84766 158.275 9.62958C158.144 9.695 158.002 9.78769 157.849 9.90764C157.708 10.0276 157.577 10.1802 157.457 10.3656C157.337 10.5401 157.233 10.7364 157.146 10.9544C157.07 11.1725 157.032 11.4124 157.032 11.6741ZM166.14 8.30472C165.944 8.41376 165.737 8.52825 165.518 8.6482C165.311 8.76815 165.099 8.9099 164.881 9.07347C164.673 9.22612 164.472 9.4115 164.275 9.62958C164.09 9.83676 163.921 10.0876 163.768 10.382C163.55 10.7963 163.403 11.2216 163.327 11.6578C163.25 12.083 163.201 12.5028 163.179 12.9172C163.179 13.1135 163.13 13.3152 163.032 13.5224C162.945 13.7187 162.82 13.8168 162.656 13.8168C162.449 13.8168 162.28 13.7132 162.149 13.506C162.029 13.2879 161.947 13.0808 161.904 12.8845C161.718 12.1103 161.566 11.347 161.446 10.5946C161.326 9.83131 161.222 9.07347 161.135 8.32107C161.135 8.16842 161.179 8.07028 161.266 8.02666C161.364 7.98304 161.473 7.96669 161.593 7.97759C161.724 7.9885 161.849 8.02121 161.969 8.07573C162.089 8.13025 162.16 8.21748 162.182 8.33743C162.225 8.74089 162.28 9.16615 162.345 9.61322C162.411 10.0494 162.476 10.4256 162.542 10.7418C162.585 10.3711 162.705 10.0112 162.901 9.66229C163.098 9.31336 163.338 8.99714 163.621 8.71363C163.916 8.43012 164.243 8.19022 164.602 7.99395C164.973 7.79767 165.349 7.66682 165.731 7.6014C165.895 7.57959 166.031 7.57959 166.14 7.6014C166.249 7.6232 166.325 7.66137 166.369 7.71589C166.413 7.77041 166.418 7.85765 166.385 7.97759C166.364 8.09754 166.282 8.20658 166.14 8.30472ZM170.677 10.1039C170.252 10.3547 169.794 10.551 169.303 10.6927C168.812 10.8236 168.283 10.889 167.716 10.889C167.738 11.2707 167.847 11.576 168.043 11.805C168.24 12.0231 168.485 12.1539 168.779 12.1975C168.954 12.2193 169.128 12.2139 169.303 12.1812C169.488 12.1485 169.657 12.0994 169.81 12.034C169.973 11.9576 170.121 11.8758 170.252 11.7886C170.382 11.7014 170.497 11.6141 170.595 11.5269C170.693 11.4397 170.797 11.3852 170.906 11.3633C171.015 11.3306 171.097 11.3252 171.151 11.347C171.304 11.4015 171.358 11.5651 171.315 11.8377C171.14 12.1866 170.889 12.4865 170.562 12.7373C170.235 12.9772 169.87 13.1298 169.466 13.1953C169.118 13.2607 168.758 13.2443 168.387 13.1462C168.016 13.0481 167.684 12.8572 167.389 12.5737C167.138 12.3229 166.948 12.0285 166.817 11.6905C166.686 11.3524 166.604 11.0035 166.571 10.6437C166.539 10.3056 166.566 9.98397 166.653 9.67865C166.751 9.37333 166.898 9.10618 167.095 8.87719C167.291 8.6373 167.536 8.44102 167.831 8.28836C168.125 8.1357 168.469 8.04847 168.861 8.02666C169.33 7.99395 169.755 8.08118 170.137 8.28836C170.519 8.49554 170.786 8.7845 170.939 9.15525C171.026 9.36243 171.048 9.54235 171.004 9.695C170.971 9.84766 170.862 9.98397 170.677 10.1039ZM168.796 8.99168C168.687 9.01349 168.567 9.05166 168.436 9.10618C168.316 9.1607 168.202 9.23158 168.093 9.31881C167.994 9.39514 167.902 9.48782 167.814 9.59687C167.738 9.695 167.695 9.8095 167.684 9.94035C167.869 9.94035 168.071 9.92399 168.289 9.89128C168.518 9.85857 168.736 9.8204 168.943 9.77679C169.161 9.72227 169.357 9.66229 169.532 9.59687C169.717 9.53144 169.87 9.46056 169.99 9.38423C169.903 9.17706 169.739 9.05166 169.499 9.00804C169.27 8.95352 169.036 8.94807 168.796 8.99168ZM175.103 9.05711C175.081 8.93716 175.059 8.82267 175.037 8.71363C175.015 8.60458 174.961 8.53371 174.874 8.50099C174.688 8.44647 174.492 8.44102 174.285 8.48464C174.078 8.52825 173.887 8.59913 173.712 8.69727C173.538 8.7845 173.391 8.88809 173.271 9.00804C173.151 9.11708 173.085 9.21522 173.074 9.30245C173.042 9.46602 173.085 9.62413 173.205 9.77679C173.325 9.92945 173.5 10.0821 173.729 10.2348C174.11 10.4638 174.508 10.6982 174.923 10.9381C175.337 11.178 175.686 11.4233 175.969 11.6741C176.253 11.9249 176.444 12.203 176.542 12.5083C176.651 12.8027 176.629 13.1407 176.477 13.5224C176.357 13.8168 176.133 14.0567 175.806 14.2421C175.479 14.4274 175.119 14.5746 174.726 14.6837C174.334 14.7818 173.941 14.8527 173.549 14.8963C173.156 14.929 172.824 14.9454 172.551 14.9454C172.486 14.9454 172.404 14.9236 172.306 14.88C172.218 14.8254 172.131 14.7655 172.044 14.7C171.968 14.6346 171.897 14.5692 171.831 14.5038C171.777 14.4274 171.75 14.362 171.75 14.3075C171.75 14.1112 171.837 13.9749 172.011 13.8986C172.186 13.8222 172.366 13.7841 172.551 13.7841C172.813 13.7841 173.091 13.7732 173.385 13.7514C173.69 13.7187 173.979 13.675 174.252 13.6205C174.525 13.5551 174.77 13.4733 174.988 13.3752C175.206 13.277 175.359 13.1516 175.446 12.999C175.522 12.8681 175.473 12.7155 175.299 12.541C175.135 12.3556 174.912 12.1648 174.628 11.9685C174.356 11.7723 174.056 11.5814 173.729 11.3961C173.412 11.2107 173.14 11.0417 172.911 10.889C172.682 10.7364 172.486 10.5564 172.322 10.3493C172.158 10.1312 172.055 9.86402 172.011 9.5478C172 9.26429 172.06 8.99168 172.191 8.72998C172.322 8.46828 172.491 8.23929 172.698 8.04302C172.916 7.83584 173.162 7.67227 173.434 7.55233C173.707 7.43238 173.979 7.37241 174.252 7.37241C174.721 7.39422 175.108 7.52507 175.413 7.76496C175.719 7.99395 175.899 8.33743 175.953 8.79541C175.953 8.94807 175.926 9.07346 175.871 9.1716C175.828 9.26974 175.746 9.32971 175.626 9.35152C175.473 9.37333 175.348 9.35697 175.25 9.30245C175.163 9.23703 175.113 9.15525 175.103 9.05711ZM181.463 6.97986C181.419 7.03438 181.338 7.07799 181.218 7.11071C181.109 7.13252 180.994 7.0998 180.874 7.01257C180.787 6.94714 180.683 6.88172 180.563 6.81629C180.443 6.73996 180.313 6.66909 180.171 6.60366C180.029 6.53824 179.887 6.48371 179.746 6.4401C179.604 6.39648 179.468 6.37467 179.337 6.37467C179.173 6.37467 178.999 6.41284 178.813 6.48917C178.639 6.5655 178.486 6.67454 178.355 6.81629C178.105 7.0889 178.012 7.35605 178.077 7.61775C178.154 7.86855 178.344 8.10299 178.65 8.32107C178.846 8.46283 179.059 8.61004 179.288 8.76269C179.517 8.90445 179.74 9.0462 179.958 9.18796C180.187 9.32971 180.4 9.46602 180.596 9.59687C180.803 9.72772 180.983 9.84221 181.136 9.94035C181.332 10.0712 181.518 10.213 181.692 10.3656C181.866 10.5183 182.019 10.6927 182.15 10.889C182.281 11.0744 182.384 11.287 182.461 11.5269C182.537 11.7668 182.575 12.0394 182.575 12.3447C182.499 12.9445 182.259 13.4242 181.856 13.7841C181.463 14.133 181.005 14.3566 180.482 14.4547C180.024 14.5419 179.571 14.5256 179.124 14.4056C178.688 14.2857 178.317 14.0567 178.012 13.7187C177.936 13.6314 177.87 13.5115 177.816 13.3588C177.761 13.2062 177.756 13.0971 177.799 13.0317C177.865 12.9336 177.979 12.8681 178.143 12.8354C178.306 12.7918 178.432 12.7973 178.519 12.8518C178.77 13.0808 179.064 13.2498 179.402 13.3588C179.74 13.457 180.095 13.4624 180.465 13.3752C180.749 13.3098 180.978 13.1898 181.152 13.0153C181.327 12.83 181.436 12.6228 181.479 12.3938C181.534 12.1539 181.501 11.9086 181.381 11.6578C181.272 11.3961 181.07 11.1616 180.776 10.9544C180.329 10.6164 179.849 10.3002 179.337 10.0058C178.835 9.71136 178.323 9.37333 177.799 8.99168C177.548 8.7736 177.363 8.53371 177.243 8.27201C177.134 8.0103 177.08 7.75406 177.08 7.50326C177.08 7.24156 177.134 6.99621 177.243 6.76722C177.352 6.52733 177.505 6.3147 177.701 6.12933C177.897 5.93305 178.126 5.77494 178.388 5.65499C178.65 5.53505 178.939 5.46417 179.255 5.44236C179.691 5.42055 180.111 5.51324 180.514 5.72042C180.918 5.9167 181.245 6.16204 181.496 6.45645C181.55 6.52188 181.572 6.60366 181.561 6.7018C181.561 6.79994 181.528 6.89262 181.463 6.97986Z" fill="#FD6B5C"/>
</g>
<defs>
<clipPath id="clip0_1263_1623">
<rect width="320" height="195" fill="white"/>
</clipPath>
</defs>
</svg>
