<svg width="150" height="150" viewBox="0 0 150 150" fill="none" xmlns="http://www.w3.org/2000/svg">
<g clip-path="url(#clip0_1143_3177)">
<path d="M61.0913 4.15549C61.0913 1.23734 64.2357 -0.59901 66.7773 0.834879L131.556 37.3816C136.17 39.9848 139.024 44.8719 139.024 50.1697V105.755C139.024 112.808 135.213 119.31 129.059 122.756L83.3143 148.373C79.8203 150.329 75.5574 150.316 72.0756 148.338L10.8324 113.542C8.21936 112.057 8.27136 108.274 10.9243 106.861L61.0913 80.1546V4.15549Z" fill="#C4C4C4"/>
<path d="M61.0913 4.15549C61.0913 1.23734 64.2357 -0.59901 66.7773 0.834879L131.556 37.3816C136.17 39.9848 139.024 44.8719 139.024 50.1697V105.755C139.024 112.808 135.213 119.31 129.059 122.756L83.3143 148.373C79.8203 150.329 75.5574 150.316 72.0756 148.338L10.8324 113.542C8.21936 112.057 8.27136 108.274 10.9243 106.861L61.0913 80.1546V4.15549Z" fill="url(#paint0_linear_1143_3177)"/>
<path d="M61.0913 4.15549C61.0913 1.23734 64.2357 -0.59901 66.7773 0.834879L131.556 37.3816C136.17 39.9848 139.024 44.8719 139.024 50.1697V105.755C139.024 112.808 135.213 119.31 129.059 122.756L83.3143 148.373C79.8203 150.329 75.5574 150.316 72.0756 148.338L10.8324 113.542C8.21936 112.057 8.27136 108.274 10.9243 106.861L61.0913 80.1546V4.15549Z" fill="url(#paint1_linear_1143_3177)"/>
<path d="M61.0913 4.15549C61.0913 1.23734 64.2357 -0.59901 66.7773 0.834879L131.556 37.3816C136.17 39.9848 139.024 44.8719 139.024 50.1697V105.755C139.024 112.808 135.213 119.31 129.059 122.756L83.3143 148.373C79.8203 150.329 75.5574 150.316 72.0756 148.338L10.8324 113.542C8.21936 112.057 8.27136 108.274 10.9243 106.861L61.0913 80.1546V4.15549Z" fill="url(#paint2_linear_1143_3177)"/>
<path d="M29.8477 17.7765C29.8477 14.1878 33.713 11.928 36.8403 13.6885L106.29 52.7859C110.436 55.1201 113.002 59.5085 113.002 64.2666V129.061C113.002 132.65 109.136 134.91 106.009 133.149L36.5595 94.0517C32.4132 91.7176 29.8477 87.3291 29.8477 82.571V17.7765Z" fill="#050038"/>
<path d="M29.8477 17.7765C29.8477 14.1878 33.713 11.928 36.8403 13.6885L106.29 52.7859C110.436 55.1201 113.002 59.5085 113.002 64.2666V129.061C113.002 132.65 109.136 134.91 106.009 133.149L36.5595 94.0517C32.4132 91.7176 29.8477 87.3291 29.8477 82.571V17.7765Z" fill="url(#paint3_linear_1143_3177)"/>
<path d="M42.7983 94.501L42.4206 95.8017C61.1044 84.68 61.1044 80.0386 61.1044 71.5293V27.3408L106.323 52.8089C110.459 55.1372 113.008 59.4488 113.008 64.116V129.016C113.008 132.589 109.055 134.825 105.888 133.042L42.043 97.1025L42.7983 94.501Z" fill="#16055A"/>
<path d="M0 61.6371C0 57.4359 4.52659 54.7918 8.18603 56.8554L40.7018 75.1914C44.8435 77.5269 47.4054 81.9128 47.4054 86.6675V124.913C47.4054 129.114 42.8788 131.758 39.2193 129.695L6.70352 111.359C2.56191 109.023 0 104.637 0 99.8827V61.6371Z" fill="#16055A"/>
<path d="M26.2984 104.136C25.6027 103.696 25.2036 102.501 25.6256 102.121L29.6865 98.4676L24.0841 86.4857C23.6545 85.5669 24.0386 84.871 24.733 85.3104L27.974 87.3614C28.7469 87.8505 29.4799 88.734 29.9609 89.756L34.5266 99.4587C35.0025 100.47 35.0114 101.471 34.5482 101.89L30.6789 105.384C30.0534 105.949 29.0832 105.897 28.0504 105.244L26.2984 104.136Z" fill="white"/>
<path d="M19.3247 81.9395C20.0204 82.3795 20.4194 83.5741 19.9975 83.9537L15.9365 87.6075L21.5389 99.5893C21.9686 100.508 21.5844 101.204 20.8901 100.765L17.649 98.7137C16.8762 98.2246 16.1431 97.3411 15.6622 96.3191L11.0964 86.6163C10.6205 85.6049 10.6116 84.6039 11.0748 84.1856L14.9441 80.6914C15.5696 80.1265 16.5398 80.1782 17.5726 80.8314L19.3247 81.9395Z" fill="white"/>
<path d="M72.6699 60.0615L81.9025 65.2805" stroke="#F3F6FC" stroke-width="2.8517" stroke-linecap="round"/>
<path d="M72.6699 79.1426L76.3242 81.2082" stroke="#FF9F16" stroke-width="2.8517" stroke-linecap="round"/>
<path d="M72.6699 69.6026L99.5408 84.792" stroke="#7307A8" stroke-width="2.8517" stroke-linecap="round"/>
<path d="M99.5391 94.3332L83.1855 85.0889" stroke="#7307A8" stroke-width="2.8517" stroke-linecap="round"/>
</g>
<defs>
<linearGradient id="paint0_linear_1143_3177" x1="178.821" y1="43.4335" x2="-46.3253" y2="146.608" gradientUnits="userSpaceOnUse">
<stop offset="0.222919" stop-color="#F56A82"/>
<stop offset="0.644688" stop-color="#FFC453"/>
<stop offset="1" stop-color="#FFF5DA"/>
</linearGradient>
<linearGradient id="paint1_linear_1143_3177" x1="94.1081" y1="46.1518" x2="44.8895" y2="161.947" gradientUnits="userSpaceOnUse">
<stop stop-color="#F54D9E"/>
<stop offset="0.526495" stop-color="#FF831E"/>
<stop offset="1" stop-color="#FFB800"/>
</linearGradient>
<linearGradient id="paint2_linear_1143_3177" x1="32.2803" y1="26.0641" x2="71.9155" y2="145.659" gradientUnits="userSpaceOnUse">
<stop stop-color="#FF6C40"/>
<stop offset="1" stop-color="#FFB800"/>
</linearGradient>
<linearGradient id="paint3_linear_1143_3177" x1="24.1999" y1="156.292" x2="29.4827" y2="5.6119" gradientUnits="userSpaceOnUse">
<stop stop-color="#E14C88"/>
<stop offset="0.372409" stop-color="#8E1898"/>
<stop offset="0.856097" stop-color="#5C05C0"/>
</linearGradient>
<clipPath id="clip0_1143_3177">
<rect width="150" height="150" fill="white"/>
</clipPath>
</defs>
</svg>
