<svg xmlns="http://www.w3.org/2000/svg" width="260" height="260" viewBox="-32.64 -0.017 260 260" overflow="visible"><path fill="#B2B3B3" d="M31.68 148.095c.706.41 1.34 1.125 1.79 1.95.453.817.732 1.76.732 2.62 0 .565-.122 1.043-.336 1.41a1.64 1.64 0 0 1-.602.62 1.6 1.6 0 0 1-.828.222c-.37 0-.777-.117-1.2-.36-.706-.41-1.343-1.128-1.792-1.95-.45-.818-.73-1.758-.73-2.62 0-.567.122-1.046.334-1.412a1.616 1.616 0 0 1 1.434-.84c.373 0 .778.116 1.198.36zm1.022 2.373c-.38-.693-.897-1.285-1.462-1.612-.278-.162-.536-.24-.758-.24a.735.735 0 0 0-.383.1.835.835 0 0 0-.29.304c-.137.232-.217.562-.217.972 0 .712.237 1.5.62 2.195.38.692.898 1.286 1.464 1.614.278.166.535.24.76.24a.73.73 0 0 0 .67-.405c.136-.23.216-.56.216-.967 0-.713-.24-1.502-.622-2.2z"/><path fill="#B2B3B3" d="M32.715 154.525a.44.44 0 0 1 .77-.425l2.212 4.023c.117.213.04.48-.174.596a.438.438 0 0 1-.597-.176l-2.21-4.02zm8.117-6.84a.297.297 0 0 1-.4-.105.298.298 0 0 1 .107-.4l4.86-2.81a.3.3 0 0 1 .4.107.293.293 0 0 1-.106.4l-4.863 2.81zm-.002 20.85a.292.292 0 0 1-.4-.108.294.294 0 0 1 .11-.397l4.864-2.806a.29.29 0 0 1 .29.503l-4.864 2.808z"/><path fill-rule="evenodd" clip-rule="evenodd" fill="#FFF" d="M2.235 205.823h-.07v15.295c.006 2.22 1.394 4.34 4.213 5.92l50.79 28.43c6.22 3.482 17.163 3.058 24.312-.945l99.82-55.876c4.05-2.267 6.05-5.215 5.892-7.978v-15.313h-.058c0-2.212-1.36-4.313-4.146-5.87l-50.79-28.433c-6.223-3.483-17.284-2.99-24.583 1.096l-99.28 55.577c-4.134 2.313-6.21 5.303-6.1 8.096z"/><path fill="#B2B3B3" d="M0 205.823c0-.208.03-.406.083-.595.084-1.703.737-3.412 1.946-5.017 1.196-1.586 2.953-3.085 5.25-4.37l99.28-55.574c3.94-2.208 8.88-3.444 13.657-3.656 4.837-.217 9.572.62 13.038 2.56l50.79 28.43c1.654.927 2.915 2.04 3.787 3.277.847 1.2 1.32 2.5 1.433 3.857.06.197.09.406.09.624v15.31h-.002c.077 1.874-.546 3.77-1.854 5.54-1.167 1.578-2.887 3.062-5.143 4.323l-99.82 55.88c-3.873 2.167-8.75 3.366-13.486 3.55-4.78.185-9.48-.668-12.94-2.605l-50.79-28.43c-1.667-.935-2.94-2.057-3.822-3.3-.992-1.392-1.485-2.923-1.49-4.507H0v-15.295zm4.328.52v14.775H4.32c.002.676.232 1.356.694 2.006.516.723 1.32 1.41 2.42 2.03l50.79 28.43c2.76 1.544 6.644 2.22 10.676 2.062 4.076-.157 8.245-1.174 11.522-3.008l99.82-55.878c1.718-.96 2.983-2.028 3.79-3.122.72-.972 1.055-1.947 1.004-2.852-.002-.04-.005-.078-.005-.118h-.003v-14.815a2.296 2.296 0 0 1-.05-.64c-.03-.628-.256-1.253-.68-1.85-.5-.712-1.287-1.39-2.365-1.993l-50.79-28.43c-2.756-1.543-6.663-2.202-10.737-2.02-4.134.184-8.377 1.237-11.73 3.114L9.39 199.61c-1.757.984-3.064 2.08-3.912 3.206-.757 1.005-1.124 2.007-1.088 2.93a2.12 2.12 0 0 1-.062.598z"/><path fill-rule="evenodd" clip-rule="evenodd" fill="#FAFAFA" d="M6.212 205.823H2.165v15.295c.006 2.22 1.394 4.342 4.213 5.92l50.79 28.43c6.22 3.482 17.163 3.058 24.312-.945l99.82-55.876c4.05-2.267 6.05-5.215 5.892-7.978v-15.313h-5.788L132.2 147.814c-6.224-3.483-17.164-3.058-24.314.944l-99.822 55.88a17.73 17.73 0 0 0-1.852 1.185zm54.452 25.436l-10.414-5.83 60.983-34.095c5.467-3.056 13.826-3.384 18.58-.722l10.417 5.83-60.983 34.093c-5.468 3.056-13.828 3.384-18.583.722z"/><path fill="#B2B3B3" d="M6.212 206.104H2.445v15.015c.003 1.07.347 2.12 1.04 3.093.674.948 1.683 1.825 3.028 2.58l50.792 28.43c3.064 1.716 7.303 2.47 11.66 2.3 4.363-.17 8.84-1.264 12.376-3.244l99.823-55.878c1.95-1.092 3.414-2.34 4.377-3.646.985-1.335 1.447-2.73 1.37-4.072V175.64h-5.51a.277.277 0 0 1-.152-.045l-49.19-27.536c-3.065-1.717-7.303-2.47-11.66-2.3-4.364.17-8.84 1.263-12.378 3.243L8.202 204.88a19.88 19.88 0 0 0-.95.57l-.015.008c-.296.19-.583.388-.86.59a.28.28 0 0 1-.165.056zm-4.047-.562h3.957c.255-.188.527-.372.813-.556l.014-.01c.31-.2.64-.396.976-.586l99.822-55.876c3.61-2.023 8.182-3.143 12.63-3.315 4.456-.175 8.8.6 11.956 2.367l49.14 27.508h5.717c.157 0 .283.126.283.282v15.31c.08 1.47-.42 2.982-1.482 4.423-1.01 1.368-2.532 2.67-4.553 3.802L81.62 254.77c-3.615 2.02-8.183 3.14-12.634 3.314-4.455.173-8.798-.604-11.955-2.37l-50.79-28.43c-1.42-.797-2.49-1.73-3.212-2.747-.76-1.068-1.14-2.23-1.143-3.42v-15.294a.28.28 0 0 1 .28-.28zm58.36 25.963l-10.413-5.83a.28.28 0 0 1 .014-.498l60.97-34.085c2.774-1.55 6.277-2.41 9.687-2.542 3.416-.133 6.748.463 9.17 1.818l10.416 5.83a.28.28 0 0 1-.02.5L79.38 230.78c-2.77 1.553-6.272 2.41-9.686 2.543-3.414.133-6.745-.462-9.17-1.817zm-9.7-6.075l9.978 5.585c2.33 1.304 5.556 1.877 8.875 1.748 3.325-.13 6.738-.965 9.433-2.47l60.546-33.848-9.976-5.586c-2.333-1.31-5.56-1.88-8.876-1.75-3.328.13-6.74.963-9.435 2.47l-60.546 33.85z"/><path fill-rule="evenodd" clip-rule="evenodd" fill="#FFF" d="M57.167 239.918l-50.79-28.432c-6.223-3.482-5.34-9.675 1.958-13.76l99.28-55.575c7.3-4.083 18.36-4.577 24.584-1.094l50.79 28.432c6.22 3.482 5.34 9.674-1.96 13.76L81.75 238.82c-7.3 4.087-18.36 4.58-24.583 1.098z"/><path fill="#B2B3B3" d="M57.03 240.162l-50.79-28.43c-1.672-.937-2.85-2.068-3.542-3.307a5.704 5.704 0 0 1-.746-2.97c.028-1.022.33-2.06.9-3.074.984-1.76 2.776-3.46 5.345-4.9l99.28-55.574c3.69-2.062 8.324-3.22 12.822-3.42 4.502-.2 8.88.56 12.034 2.325l50.79 28.43c1.673.938 2.85 2.07 3.542 3.308.528.94.775 1.947.746 2.97-.026 1.02-.33 2.06-.898 3.075-.984 1.76-2.777 3.462-5.346 4.9l-99.283 55.574c-3.687 2.063-8.323 3.222-12.82 3.422-4.505.2-8.88-.558-12.037-2.327zm-50.516-28.92l50.792 28.43c3.063 1.717 7.33 2.452 11.735 2.256 4.416-.197 8.963-1.33 12.573-3.352l99.28-55.573c2.476-1.386 4.196-3.013 5.132-4.688.525-.936.804-1.886.83-2.812a5.143 5.143 0 0 0-.678-2.682c-.644-1.147-1.748-2.205-3.326-3.09l-50.79-28.43c-3.063-1.716-7.33-2.45-11.737-2.254-4.414.196-8.96 1.33-12.57 3.35l-99.28 55.577c-2.476 1.385-4.196 3.012-5.133 4.685-.524.937-.803 1.887-.83 2.814-.023.923.2 1.828.678 2.682.644 1.15 1.748 2.205 3.326 3.09z"/><path fill-rule="evenodd" clip-rule="evenodd" fill="#F3F3F3" d="M50.25 225.43l-28.405-15.9c-4.756-2.662-4.177-7.346 1.29-10.402l88.1-49.25c5.466-3.057 13.825-3.385 18.58-.723l38.82 21.73c4.756 2.66 4.177 7.345-1.29 10.4l-88.098 49.252c-5.468 3.056-13.827 3.384-18.583.722l-10.414-5.83z"/><path fill="#B2B3B3" d="M50.1 225.668l-28.395-15.894c-1.312-.734-2.235-1.625-2.78-2.597a4.435 4.435 0 0 1-.58-2.295c.02-.784.248-1.58.684-2.36.732-1.31 2.062-2.575 3.97-3.64l88.095-49.252c2.774-1.55 6.277-2.408 9.687-2.54 3.416-.134 6.747.46 9.17 1.818l38.82 21.73c1.313.733 2.237 1.624 2.78 2.596a4.43 4.43 0 0 1 .582 2.295c-.02.783-.25 1.58-.684 2.355-.733 1.314-2.065 2.578-3.97 3.643l-88.1 49.252c-2.772 1.55-6.274 2.408-9.688 2.54-3.414.134-6.745-.46-9.17-1.816l-10.413-5.83-.01-.006zm-28.118-16.384l28.404 15.898 10.416 5.832c2.33 1.304 5.556 1.877 8.875 1.748 3.325-.13 6.738-.965 9.432-2.47l88.1-49.253c1.81-1.013 3.064-2.2 3.75-3.43.39-.697.595-1.404.61-2.097a3.864 3.864 0 0 0-.51-2.007c-.49-.88-1.345-1.697-2.564-2.38l-38.818-21.73c-2.333-1.305-5.56-1.877-8.876-1.747-3.328.13-6.74.962-9.434 2.47L23.27 199.37c-1.81 1.012-3.067 2.2-3.754 3.43-.39.694-.596 1.402-.613 2.096a3.885 3.885 0 0 0 .512 2.007c.493.88 1.344 1.697 2.565 2.38z"/><path fill-rule="evenodd" clip-rule="evenodd" fill="#FFF" d="M9.234 161.103H9.17v11.804c.005 2.053 1.287 4.012 3.892 5.472l46.946 26.277c5.75 3.218 15.862 2.826 22.472-.875l92.264-51.645c3.743-2.096 5.59-4.82 5.444-7.375v-11.82h-.052c0-2.043-1.26-3.985-3.83-5.426l-46.948-26.28c-5.75-3.218-15.975-2.762-22.72 1.014L14.87 153.618c-3.823 2.14-5.738 4.904-5.638 7.486z"/><path fill="#01C0E4" d="M7.005 161.103c0-.2.028-.395.078-.577.082-1.602.697-3.202 1.83-4.707 1.12-1.487 2.76-2.89 4.9-4.088l91.767-51.366c3.668-2.054 8.258-3.202 12.7-3.4 4.497-.202 8.904.58 12.135 2.386l46.946 26.28c1.55.867 2.733 1.914 3.556 3.077.794 1.124 1.244 2.35 1.35 3.625.06.192.088.398.088.608v11.82h-.002c.073 1.766-.515 3.55-1.746 5.216-1.09 1.48-2.698 2.863-4.803 4.04l-92.266 51.65c-3.6 2.016-8.135 3.13-12.538 3.3-4.448.174-8.82-.62-12.048-2.428L12.01 180.265c-1.563-.875-2.758-1.928-3.588-3.096-.936-1.317-1.402-2.764-1.406-4.265h-.01v-11.803zm4.328.497v11.307h-.007c0 .592.204 1.188.61 1.76.463.65 1.187 1.27 2.183 1.826l46.945 26.28c2.524 1.414 6.08 2.03 9.78 1.887 3.742-.146 7.57-1.078 10.575-2.76l92.267-51.648c1.565-.875 2.718-1.848 3.45-2.84.64-.867.94-1.73.895-2.53-.002-.04-.002-.078-.002-.118h-.006V133.42a2.19 2.19 0 0 1-.048-.617c-.03-.542-.227-1.086-.596-1.61-.45-.638-1.16-1.245-2.135-1.79l-46.943-26.28c-2.52-1.41-6.1-2.012-9.838-1.846-3.797.17-7.692 1.136-10.77 2.86L15.93 155.504c-1.607.898-2.8 1.896-3.57 2.917-.676.9-1.003 1.79-.97 2.606.006.2-.015.39-.058.575z"/><path fill-rule="evenodd" clip-rule="evenodd" fill="#DFF2F4" d="M12.91 161.103H9.167v11.804c.007 2.053 1.29 4.012 3.894 5.472l46.947 26.277c5.75 3.218 15.862 2.826 22.472-.875l92.263-51.645c3.743-2.096 5.59-4.82 5.444-7.375v-11.82h-5.35l-45.48-25.457c-5.75-3.22-15.862-2.826-22.473.874L14.62 160.005c-.622.347-1.194.714-1.712 1.096z"/><path fill="#01C0E4" d="M12.91 161.382H9.45v11.524c0 .986.318 1.953.956 2.85.622.873 1.553 1.682 2.795 2.377l46.946 26.28c2.83 1.582 6.743 2.277 10.767 2.12 4.03-.155 8.165-1.167 11.43-2.995l92.265-51.646c1.8-1.008 3.15-2.158 4.04-3.364.908-1.23 1.332-2.513 1.262-3.75v-11.553h-5.07a.273.273 0 0 1-.15-.044l-45.467-25.45c-2.83-1.583-6.742-2.28-10.768-2.12-4.03.156-8.165 1.167-11.43 2.994L14.76 160.25c-.307.172-.6.348-.877.525l-.015.008c-.272.175-.538.356-.794.545a.276.276 0 0 1-.165.054zm-3.74-.562h3.648c.235-.17.484-.34.748-.51l.015-.01c.29-.185.593-.365.907-.54l92.262-51.647c3.344-1.87 7.57-2.906 11.686-3.066 4.122-.16 8.14.56 11.062 2.193l45.414 25.42h5.28a.28.28 0 0 1 .28.283v11.82c.073 1.36-.388 2.764-1.373 4.1-.937 1.267-2.346 2.47-4.217 3.52L82.62 204.028c-3.344 1.872-7.57 2.908-11.686 3.067-4.12.16-8.14-.558-11.06-2.193l-46.946-26.278c-1.314-.736-2.306-1.6-2.976-2.544-.707-.99-1.057-2.068-1.06-3.173v-11.804a.28.28 0 0 1 .28-.283z"/><path fill-rule="evenodd" clip-rule="evenodd" fill="#FFF" d="M60.008 192.616l-46.946-26.278c-5.75-3.22-4.936-8.942 1.81-12.72l91.766-51.367c6.746-3.774 16.97-4.23 22.72-1.01l46.948 26.28c5.75 3.217 4.935 8.94-1.812 12.72l-91.766 51.365c-6.745 3.776-16.97 4.23-22.72 1.012z"/><path fill="#01C0E4" d="M59.87 192.86l-46.945-26.277c-1.55-.867-2.64-1.917-3.282-3.064a5.307 5.307 0 0 1-.692-2.76c.028-.946.308-1.91.835-2.85.914-1.63 2.573-3.206 4.95-4.537l91.767-51.368c3.412-1.91 7.7-2.98 11.86-3.165 4.167-.185 8.216.518 11.137 2.153l46.944 26.278c1.55.87 2.64 1.92 3.282 3.066.49.875.72 1.806.692 2.757-.025.947-.306 1.908-.833 2.85-.913 1.63-2.572 3.207-4.95 4.538L82.87 191.85c-3.412 1.91-7.7 2.98-11.86 3.165-4.17.186-8.216-.515-11.137-2.15zM13.2 166.093l46.945 26.28c2.828 1.582 6.77 2.262 10.84 2.08 4.075-.182 8.272-1.228 11.606-3.094l91.768-51.368c2.284-1.277 3.872-2.778 4.734-4.323.484-.863.74-1.737.765-2.59a4.75 4.75 0 0 0-.623-2.47c-.592-1.06-1.61-2.033-3.066-2.85l-46.944-26.276c-2.83-1.583-6.77-2.263-10.838-2.082-4.077.182-8.274 1.23-11.61 3.096L15.01 153.864c-2.286 1.277-3.873 2.778-4.737 4.32-.483.865-.737 1.737-.76 2.593a4.71 4.71 0 0 0 .62 2.467c.593 1.06 1.612 2.033 3.066 2.848zm131.086-1.13l11.216-6.27v-.002c.354-.196.68-.586.918-1.056.245-.48.396-1.037.396-1.554 0-.328-.06-.593-.165-.782a.635.635 0 0 0-.21-.235.47.47 0 0 0-.257-.073.833.833 0 0 0-.405.122l-.015.007-11.203 6.262c-.353.197-.678.588-.918 1.06a3.514 3.514 0 0 0-.396 1.55c0 .33.06.593.166.782a.64.64 0 0 0 .21.237.483.483 0 0 0 .26.073c.12 0 .257-.04.404-.12zm11.488-5.78l-11.216 6.27c-.235.13-.466.194-.68.194-.202 0-.392-.057-.56-.162a1.23 1.23 0 0 1-.4-.437c-.15-.272-.237-.63-.237-1.055 0-.603.18-1.25.464-1.807.288-.564.692-1.04 1.143-1.293l11.2-6.263.016-.01c.235-.13.466-.194.68-.194.204 0 .392.058.56.162.16.104.295.25.4.438.15.27.238.63.238 1.054 0 .603-.176 1.25-.46 1.808-.288.564-.69 1.04-1.143 1.294h-.002zm6-4.008l9.742-5.454c.353-.195.678-.586.917-1.057a3.5 3.5 0 0 0 .397-1.552c0-.326-.06-.59-.166-.78a.663.663 0 0 0-.212-.237.47.47 0 0 0-.258-.07c-.12 0-.257.04-.404.12l-9.74 5.454c-.354.197-.68.59-.92 1.06-.245.48-.397 1.035-.397 1.553 0 .326.062.59.167.778.06.104.132.186.21.237a.49.49 0 0 0 .26.07c.12 0 .257-.04.404-.12zm10.017-4.964l-9.74 5.455a1.395 1.395 0 0 1-.68.195c-.202 0-.392-.06-.56-.164a1.204 1.204 0 0 1-.4-.435c-.15-.27-.237-.63-.237-1.052 0-.604.177-1.253.46-1.81.29-.564.693-1.04 1.143-1.292l9.742-5.455c.234-.13.465-.19.68-.19.204 0 .392.054.56.16.16.104.295.25.398.436.153.273.24.63.24 1.055 0 .605-.177 1.25-.46 1.81-.29.563-.695 1.04-1.144 1.292z"/><path fill="#B2B3B3" d="M117.84 140.656c3.808 0 7.25-.865 9.738-2.268 2.438-1.374 3.947-3.255 3.947-5.316 0-2.063-1.51-3.944-3.947-5.317-2.487-1.4-5.93-2.267-9.738-2.267s-7.25.866-9.737 2.267c-2.438 1.373-3.946 3.254-3.946 5.317 0 2.062 1.508 3.942 3.946 5.316 2.487 1.403 5.93 2.268 9.737 2.268zm10.013-1.777c-2.566 1.444-6.106 2.34-10.013 2.34-3.904 0-7.444-.896-10.012-2.34-2.616-1.475-4.235-3.527-4.235-5.81s1.62-4.333 4.235-5.807c2.567-1.446 6.106-2.34 10.012-2.34 3.906 0 7.446.894 10.013 2.34 2.616 1.473 4.233 3.526 4.233 5.808s-1.617 4.335-4.233 5.808z"/><path fill="#B2B3B3" d="M117.998 131.938a.28.28 0 0 1-.56 0V88.92a.28.28 0 0 1 .56 0v43.018z"/><path fill-rule="evenodd" clip-rule="evenodd" fill="#B2B3B3" d="M117.84 134.782c1.8 0 3.26-.822 3.26-1.835 0-1.016-1.46-1.837-3.26-1.837-1.8 0-3.258.82-3.258 1.837 0 1.013 1.46 1.835 3.258 1.835z"/><path fill-rule="evenodd" clip-rule="evenodd" fill="#FFF" d="M106.17 124.12L59.726 98.125c-2.35-1.315-3.59-3.052-3.77-4.902v-.013a4.993 4.993 0 0 1 0-.924V87.69c-.247-2.627 1.646-5.48 5.56-7.668l44.767-25.047c6.675-3.735 16.79-4.187 22.478-1.003l46.445 25.998c2.61 1.46 3.85 3.443 3.79 5.522v5.227a3.7 3.7 0 0 1 0 .256V91c-.072 2.457-1.964 5.046-5.58 7.07l-44.767 25.047c-6.676 3.736-16.792 4.188-22.48 1.003zm3.387-15.208l-32.516-18.2a6.527 6.527 0 0 1-1.483-1.11c.65-.78 1.564-1.525 2.74-2.182l31.34-17.537c4.675-2.615 11.757-2.93 15.74-.7l32.515 18.2a6.55 6.55 0 0 1 1.486 1.11c-.648.78-1.563 1.524-2.74 2.18l-31.34 17.538c-4.673 2.616-11.755 2.933-15.74.703z"/><path fill="#B2B3B3" d="M105.114 126.007L58.67 100.01c-1.41-.79-2.513-1.73-3.314-2.773-.85-1.104-1.352-2.31-1.518-3.573a2.226 2.226 0 0 1-.045-.443v-.01a6.247 6.247 0 0 1-.02-.46 6.9 6.9 0 0 1 .02-.463V87.67c-.113-1.798.454-3.62 1.688-5.323 1.11-1.528 2.778-2.97 4.98-4.207v-.003l44.767-25.048c3.632-2.035 8.178-3.17 12.575-3.37 4.455-.197 8.82.574 12.02 2.365l46.442 25.997c1.576.882 2.77 1.953 3.587 3.144.87 1.27 1.303 2.658 1.304 4.095a1.9 1.9 0 0 1 .007.17v5.314c0 .018.003-.022.003.042 0 .14-.004-.043-.01.13h.008V91c0 .1-.006.2-.02.295-.1 1.64-.763 3.278-1.97 4.81-1.103 1.396-2.676 2.713-4.7 3.846l.003.004-44.767 25.05c-3.632 2.03-8.178 3.17-12.573 3.364-4.456.2-8.822-.573-12.018-2.363zm-44.33-29.77l46.442 26c2.49 1.393 6.026 1.986 9.72 1.822 3.752-.17 7.603-1.125 10.646-2.828l44.766-25.048.002.004.007-.005c1.52-.85 2.66-1.79 3.42-2.752.64-.805.988-1.607 1.045-2.355V91c0-.036 0-.073.002-.11v-.08c-.002-.03-.002-.06-.002-.09v-5.227h.005v-.06c.02-.6-.164-1.2-.555-1.77-.44-.644-1.15-1.257-2.134-1.808l-46.442-25.997c-2.49-1.393-6.026-1.987-9.72-1.823-3.75.167-7.603 1.123-10.645 2.825L62.576 81.91l-.002-.006-.006.005c-1.628.91-2.826 1.93-3.585 2.974-.617.853-.915 1.695-.887 2.466.02.11.027.225.027.34v4.595h-.008c0 .064-.002.128-.01.194a5.284 5.284 0 0 0-.002.43c.01.074.017.15.018.23.072.493.287.985.652 1.46.447.58 1.116 1.136 2.014 1.637zm47.716 14.56l-32.515-18.2a9.566 9.566 0 0 1-1.048-.677 8.056 8.056 0 0 1-.92-.806 2.158 2.158 0 0 1-.036-2.988c.415-.484.89-.942 1.423-1.368.53-.422 1.145-.832 1.84-1.22l-.003-.003L108.58 68c2.632-1.474 5.92-2.298 9.093-2.44 3.232-.144 6.412.424 8.758 1.737l32.52 18.2a9.75 9.75 0 0 1 1.05.676c.322.243.63.513.917.807.814.828.825 2.148.037 2.988a10.3 10.3 0 0 1-1.423 1.368 13.68 13.68 0 0 1-1.836 1.22l.002.004-31.343 17.536c-2.63 1.472-5.917 2.296-9.092 2.438-3.232.144-6.413-.423-8.76-1.737zM79.152 89.415l31.463 17.612c1.635.916 3.987 1.304 6.458 1.194 2.532-.11 5.123-.752 7.165-1.895L155.58 88.79l.002.002.007-.003c.062-.04.126-.075.19-.11l-31.463-17.613c-1.636-.917-3.987-1.306-6.46-1.196-2.53.114-5.122.756-7.165 1.898l-31.34 17.535-.004-.004-.005.004c-.066.036-.13.072-.193.11z"/><path fill-rule="evenodd" clip-rule="evenodd" fill="#F3F3F3" d="M106.17 124.12L59.726 98.125c-2.35-1.315-3.59-3.052-3.77-4.902v-.013a4.993 4.993 0 0 1 0-.924v-4.83h2.82a15.638 15.638 0 0 1 2.74-1.916l44.766-25.048c6.675-3.735 16.79-4.187 22.478-1.002l46.445 25.997.006.004h3.786v5.23a3.7 3.7 0 0 1 0 .257V91c-.072 2.457-1.964 5.046-5.58 7.07l-44.767 25.047c-6.675 3.737-16.79 4.19-22.48 1.004zm3.387-9.69L77.04 96.23c-3.98-2.23-3.417-6.195 1.256-8.81l31.34-17.537c4.675-2.615 11.757-2.93 15.74-.7l32.515 18.2c3.985 2.23 3.423 6.195-1.252 8.81l-31.342 17.536c-4.672 2.612-11.754 2.93-15.738.7z"/><path fill="#B2B3B3" d="M106.033 124.367L59.59 98.37c-1.187-.666-2.102-1.438-2.748-2.28-.675-.875-1.058-1.825-1.16-2.807a.34.34 0 0 1-.008-.062v-.01a5.31 5.31 0 0 1 0-.926v-4.828c0-.155.128-.282.282-.282h2.715c.374-.323.78-.638 1.218-.945.46-.323.96-.635 1.492-.933l44.766-25.047c3.376-1.89 7.62-2.95 11.734-3.133 4.123-.184 8.13.51 11.02 2.13l46.384 25.962h3.712a.28.28 0 0 1 .28.28v5.243c.003.057.003.092.003.113l-.004.13V91a.31.31 0 0 1-.003.043c-.046 1.3-.575 2.63-1.575 3.897-.955 1.21-2.343 2.362-4.147 3.373l-44.766 25.05c-3.375 1.887-7.62 2.947-11.736 3.13-4.123.184-8.128-.51-11.017-2.128zM59.863 97.88l46.444 25.997c2.797 1.565 6.693 2.238 10.72 2.057 4.032-.18 8.185-1.214 11.483-3.06l44.768-25.048c1.74-.974 3.072-2.078 3.98-3.23.928-1.173 1.416-2.395 1.454-3.58v-.04h.002v-5.205h-3.503a.287.287 0 0 1-.115-.025l-.026-.013-46.444-25.998c-2.798-1.566-6.695-2.238-10.72-2.06-4.032.18-8.186 1.216-11.484 3.063L61.655 85.785c-.52.29-1 .592-1.444.902-.445.31-.854.632-1.23.96a.28.28 0 0 1-.2.088h-2.54v4.574a4.672 4.672 0 0 0 0 .893c.09.885.435 1.747 1.047 2.543.6.782 1.46 1.505 2.577 2.132zm119.41-6.835a.28.28 0 0 1-.277.238l.278-.238zm-69.853 23.63l-32.516-18.2c-1.086-.61-1.854-1.347-2.306-2.156a3.742 3.742 0 0 1-.49-1.956c.02-.67.217-1.35.588-2.014.64-1.142 1.8-2.245 3.462-3.174L109.5 69.638c2.375-1.33 5.356-2.074 8.252-2.202 2.9-.13 5.723.36 7.76 1.5l32.515 18.2c1.087.61 1.854 1.35 2.307 2.156.348.62.51 1.28.49 1.956-.018.67-.216 1.35-.588 2.014-.638 1.143-1.8 2.245-3.463 3.175l-31.34 17.537c-2.375 1.33-5.36 2.074-8.254 2.203-2.903.13-5.724-.362-7.76-1.502zm-32.24-18.69l32.515 18.2c1.945 1.09 4.658 1.556 7.46 1.43 2.812-.124 5.704-.845 8.004-2.13l31.34-17.537c1.566-.877 2.655-1.906 3.246-2.96.328-.586.5-1.18.518-1.755a3.172 3.172 0 0 0-.422-1.665c-.4-.72-1.097-1.385-2.09-1.94l-32.516-18.2c-1.946-1.09-4.657-1.557-7.46-1.43-2.81.123-5.705.845-8.002 2.13l-31.34 17.538c-1.57.877-2.657 1.904-3.247 2.96-.328.584-.503 1.177-.52 1.754a3.223 3.223 0 0 0 .42 1.664c.404.72 1.1 1.384 2.093 1.94z"/><path fill-rule="evenodd" clip-rule="evenodd" fill="#FFF" d="M106.17 118.604l-46.443-26c-5.69-3.184-4.886-8.847 1.79-12.582l44.767-25.047c6.675-3.735 16.79-4.187 22.478-1.003l46.444 25.998c5.688 3.185 4.884 8.85-1.79 12.583l-44.767 25.05c-6.677 3.732-16.793 4.185-22.48 1zm3.387-9.692l-32.516-18.2c-3.98-2.23-3.416-6.195 1.257-8.81l31.34-17.537c4.675-2.615 11.757-2.932 15.74-.702l32.515 18.2c3.984 2.23 3.422 6.196-1.253 8.81l-31.343 17.537c-4.672 2.615-11.754 2.932-15.738.702z"/><path fill="#B2B3B3" d="M106.033 118.848L59.59 92.85c-1.534-.857-2.613-1.896-3.25-3.033a5.237 5.237 0 0 1-.684-2.73c.025-.935.302-1.888.822-2.82.904-1.612 2.545-3.17 4.9-4.488l44.767-25.05c3.376-1.89 7.62-2.947 11.734-3.13 4.12-.186 8.127.51 11.017 2.13l46.444 25.995c1.534.858 2.613 1.896 3.248 3.033l.008.015a5.23 5.23 0 0 1 .678 2.714c-.026.937-.303 1.888-.825 2.82-.9 1.613-2.546 3.172-4.9 4.49l-44.766 25.048c-3.375 1.89-7.62 2.948-11.736 3.13-4.123.182-8.128-.512-11.017-2.13zM59.863 92.36l46.444 25.998c2.797 1.566 6.693 2.238 10.72 2.058 4.032-.18 8.185-1.214 11.483-3.06l44.768-25.048c2.26-1.265 3.83-2.748 4.685-4.275.478-.852.73-1.717.752-2.56a4.676 4.676 0 0 0-.605-2.427l-.01-.014c-.584-1.047-1.592-2.01-3.03-2.816l-46.444-25.998c-2.798-1.566-6.695-2.238-10.72-2.06-4.032.18-8.185 1.216-11.484 3.062L61.654 80.268c-2.26 1.264-3.83 2.75-4.685 4.273-.48.856-.73 1.72-.756 2.564-.023.84.182 1.664.615 2.44.586 1.047 1.592 2.012 3.032 2.817zm49.557 16.797L76.904 90.955c-1.086-.607-1.854-1.346-2.306-2.154l-.008-.015a3.716 3.716 0 0 1-.48-1.938c.018-.67.215-1.35.586-2.015.64-1.142 1.8-2.244 3.462-3.174L109.5 64.12c2.375-1.33 5.356-2.073 8.253-2.203 2.9-.13 5.722.36 7.76 1.5l32.514 18.202c1.087.607 1.854 1.345 2.307 2.154.348.62.51 1.278.49 1.954-.018.668-.216 1.35-.587 2.012-.64 1.143-1.8 2.246-3.464 3.176l-31.34 17.536c-2.375 1.33-5.36 2.075-8.254 2.203-2.903.13-5.723-.36-7.76-1.5zM77.18 90.465l32.515 18.2c1.945 1.09 4.658 1.557 7.46 1.432 2.81-.126 5.705-.846 8.004-2.132L156.5 90.43c1.567-.878 2.656-1.905 3.247-2.962.328-.585.5-1.178.518-1.754a3.174 3.174 0 0 0-.422-1.665c-.4-.72-1.097-1.386-2.09-1.94l-32.516-18.203c-1.946-1.088-4.657-1.556-7.46-1.43-2.81.124-5.705.846-8.002 2.132L78.433 82.145c-1.568.877-2.656 1.906-3.246 2.96-.328.585-.503 1.177-.52 1.754a3.196 3.196 0 0 0 .414 1.65l.008.015c.404.72 1.1 1.384 2.093 1.94z"/><path fill-rule="evenodd" clip-rule="evenodd" fill="#008EBA" d="M110.52 78.203L81.967 62.22c-1.444-.81-2.206-1.877-2.316-3.015v-.008a2.983 2.983 0 0 1 0-.567v-2.97h1.735a9.73 9.73 0 0 1 1.684-1.178l27.523-15.4c4.102-2.295 10.32-2.573 13.818-.615l28.556 15.984.004.004h2.324v3.214a2.08 2.08 0 0 1 0 .158v.016c-.044 1.51-1.207 3.104-3.43 4.347l-27.523 15.4c-4.103 2.294-10.32 2.573-13.82.615zm2.083-5.96l-19.99-11.19c-2.447-1.37-2.104-3.807.77-5.415l19.27-10.782c2.872-1.607 7.227-1.802 9.677-.43l19.99 11.19c2.45 1.37 2.102 3.808-.77 5.416l-19.27 10.78c-2.874 1.608-7.228 1.803-9.677.432z"/><path fill-rule="evenodd" clip-rule="evenodd" fill="#01C0E4" d="M110.52 74.81L81.967 58.826c-3.497-1.957-3.002-5.44 1.102-7.735l27.523-15.4c4.102-2.294 10.32-2.572 13.818-.615l28.556 15.984c3.497 1.957 3.002 5.44-1.102 7.735l-27.522 15.4c-4.104 2.296-10.322 2.574-13.82.616z"/><path fill-rule="evenodd" clip-rule="evenodd" fill="#7FAD00" d="M113.515 25.893l-16.248-9.095c-.82-.46-1.255-1.066-1.316-1.714v-.004a1.462 1.462 0 0 1 0-.324v-2.302h.988c.266-.236.586-.46.958-.67l15.658-8.76c2.335-1.307 5.874-1.465 7.864-.352l16.246 9.094h1.325v2.542c-.025.858-.688 1.763-1.95 2.472l-15.66 8.762c-2.337 1.308-5.875 1.465-7.864.35z"/><path fill-rule="evenodd" clip-rule="evenodd" fill="#ADDD00" d="M113.515 23.35l-16.248-9.093c-1.988-1.114-1.708-3.096.628-4.4l15.658-8.764c2.335-1.306 5.874-1.465 7.864-.35l16.246 9.093c1.99 1.115 1.71 3.096-.626 4.402L121.377 23c-2.335 1.307-5.873 1.465-7.862.35z"/><path fill-rule="evenodd" clip-rule="evenodd" fill="#AAACAF" d="M117.84 91.07c2.317 0 4.197-1.06 4.197-2.365 0-1.306-1.88-2.363-4.197-2.363s-4.195 1.058-4.195 2.363c0 1.306 1.878 2.364 4.195 2.364z"/><path fill="#B2B3B3" d="M117.465 90.636c1.084 0 2.058-.243 2.758-.637.62-.35 1.007-.81 1.007-1.296 0-.485-.386-.944-1.007-1.295-.7-.394-1.674-.637-2.758-.637-1.085 0-2.06.243-2.754.636-.622.35-1.01.81-1.01 1.294s.388.944 1.01 1.294c.698.393 1.67.636 2.756.636zm3.18.117c-.82.462-1.946.75-3.18.75s-2.357-.287-3.18-.75c-.895-.504-1.45-1.227-1.45-2.048 0-.82.555-1.543 1.45-2.048.822-.463 1.946-.75 3.18-.75s2.358.287 3.18.75c.895.504 1.45 1.227 1.45 2.048 0 .82-.554 1.545-1.45 2.048z"/><path fill-rule="evenodd" clip-rule="evenodd" fill="#FFF" d="M117.465 57.02c2.718 0 4.918-1.24 4.918-2.77s-2.2-2.77-4.918-2.77c-2.717 0-4.918 1.24-4.918 2.77s2.202 2.77 4.918 2.77z"/><path fill="#FFF" d="M118.2 54.835c0 .155-.186.28-.415.28-.23 0-.41-.125-.41-.28V28.29c0-.155.182-.28.41-.28.23 0 .416.125.416.28v26.545z"/><path fill-rule="evenodd" clip-rule="evenodd" fill="#FFF" d="M56.703 138.912l50.355 28.345c1.266.712 1.09 1.978-.39 2.812l-7.286 4.1c-1.482.833-3.73.932-4.994.22l-50.356-28.346c-1.266-.713-1.09-1.977.39-2.81l7.287-4.103c1.48-.833 3.725-.932 4.992-.22z"/><path fill="#B2B3B3" d="M56.84 138.667l50.354 28.345c.377.212.644.473.807.76.13.228.19.475.185.728a1.61 1.61 0 0 1-.215.737c-.22.392-.61.766-1.166 1.077l-7.285 4.1c-.78.44-1.758.685-2.705.727-.955.044-1.887-.122-2.566-.505L43.895 146.29c-.377-.212-.644-.472-.807-.758a1.404 1.404 0 0 1-.184-.73c.005-.248.078-.496.214-.736.22-.393.61-.766 1.166-1.078l7.287-4.1c.777-.44 1.754-.685 2.7-.726.957-.043 1.89.123 2.567.505zm50.08 28.835l-50.354-28.345c-.588-.33-1.412-.472-2.268-.435-.863.038-1.75.26-2.452.655l-7.286 4.1c-.46.26-.78.558-.95.86-.09.162-.14.326-.144.48a.853.853 0 0 0 .112.44c.112.197.308.382.59.54l50.356 28.346c.586.33 1.41.473 2.267.437.865-.04 1.75-.262 2.454-.656l7.286-4.1c.46-.26.777-.56.947-.862.092-.164.14-.324.144-.48a.806.806 0 0 0-.11-.437c-.11-.198-.307-.384-.59-.543z"/><path fill-rule="evenodd" clip-rule="evenodd" fill="#FFF" d="M37.868 150.767l38.98 21.942 12.216 5.382.005 2.22c0 .558-.42 1.15-1.238 1.61l-7.286 4.102c-1.48.834-3.73.932-4.994.22L25.2 157.9c-.644-.36-.915-.865-.833-1.383l-.015-2.14 2.36.077 6.162-3.467c1.48-.834 3.727-.933 4.994-.22z"/><path fill="#B2B3B3" d="M38.004 150.52l38.97 21.94 12.203 5.378.165.073v.185l.006 2.22v.28h-.027c-.05.255-.166.508-.352.748-.23.3-.562.58-.998.828l-7.286 4.1c-.778.44-1.756.685-2.703.727-.952.042-1.885-.123-2.563-.506L25.06 158.146c-.358-.2-.618-.447-.783-.72a1.384 1.384 0 0 1-.19-.925l-.014-2.12-.003-.29.292.01 2.28.072 6.095-3.43c.777-.438 1.756-.683 2.702-.725.952-.043 1.885.122 2.563.504zm38.708 22.434L37.73 151.012c-.588-.33-1.412-.472-2.268-.435-.86.038-1.75.26-2.452.655l-6.162 3.467-.145.033-2.07-.066.01 1.73.022.02-.022.143a.846.846 0 0 0 .116.575c.112.19.304.366.574.52L75.69 186c.587.33 1.41.473 2.268.434.862-.037 1.75-.26 2.452-.653l7.285-4.1c.365-.207.644-.438.826-.677.18-.23.27-.467.27-.688l-.002-.283-.003-1.752-12.048-5.31-.024-.014z"/><path fill-rule="evenodd" clip-rule="evenodd" fill="#FFF" d="M37.868 148.443l50.356 28.344c1.264.713 1.09 1.98-.392 2.812l-7.286 4.1c-1.48.832-3.73.932-4.994.22l-50.354-28.346c-1.268-.712-1.092-1.978.39-2.812l7.287-4.1c1.478-.834 3.726-.934 4.993-.22z"/><path fill="#B2B3B3" d="M38.004 148.196l50.355 28.346c.374.212.643.472.803.76.13.228.19.475.184.728a1.564 1.564 0 0 1-.215.737c-.22.39-.61.764-1.164 1.074l-7.286 4.105c-.778.438-1.756.684-2.703.727-.954.042-1.887-.123-2.565-.505L25.058 155.82c-.376-.212-.643-.472-.805-.758a1.39 1.39 0 0 1-.182-.73c.008-.248.08-.497.215-.737.22-.39.61-.765 1.164-1.076l7.286-4.104c.777-.438 1.756-.683 2.702-.726.956-.04 1.89.125 2.567.506zm50.08 28.835L37.73 148.688c-.588-.33-1.412-.472-2.268-.434-.862.038-1.75.26-2.452.654l-7.284 4.102c-.462.26-.78.556-.95.86-.093.162-.14.323-.145.48a.86.86 0 0 0 .114.436c.11.198.308.385.59.543l50.356 28.344c.586.33 1.41.474 2.267.435.862-.037 1.748-.26 2.45-.654l7.287-4.103c.46-.258.778-.56.95-.86a1.06 1.06 0 0 0 .143-.48.848.848 0 0 0-.11-.437c-.114-.198-.31-.383-.592-.544zm8.896-10.186a.28.28 0 0 1-.563 0V136.72a.28.28 0 0 1 .562 0v30.124z"/><path fill-rule="evenodd" clip-rule="evenodd" fill="#B2B3B3" d="M96.697 169.2c1.106 0 2.003-.505 2.003-1.127 0-.624-.896-1.128-2.003-1.128-1.105 0-2.002.504-2.002 1.128 0 .622.896 1.128 2.002 1.128z"/><path fill="#B2B3B3" d="M55.253 143.202a.28.28 0 0 1-.562 0v-28.28a.28.28 0 0 1 .563 0v28.28z"/><path fill-rule="evenodd" clip-rule="evenodd" fill="#B2B3B3" d="M54.795 145.934c1.098 0 1.988-.5 1.988-1.118s-.89-1.12-1.988-1.12c-1.096 0-1.984.502-1.984 1.12s.89 1.118 1.986 1.118z"/><path fill-rule="evenodd" clip-rule="evenodd" fill="#FFF" d="M56.703 108.982l38.98 21.942 12.216 5.384.003 2.22c0 .56-.42 1.15-1.235 1.61l-7.287 4.1c-1.48.834-3.73.934-4.993.222L44.03 116.114c-.642-.36-.91-.863-.832-1.38l-.012-2.14 2.36.076 6.16-3.468c1.482-.833 3.728-.933 4.995-.22z"/><path fill="#01C0E4" d="M56.84 108.737l38.97 21.936 12.2 5.38.17.072v.184l.004 2.22v.28h-.026c-.052.254-.17.506-.354.746-.23.3-.565.582-1 .826l-7.285 4.103c-.78.438-1.758.684-2.705.724-.954.042-1.887-.123-2.566-.505L43.895 116.36c-.36-.202-.62-.448-.782-.718v-.002a1.365 1.365 0 0 1-.192-.925l-.014-2.12-.003-.29.29.01 2.284.073 6.093-3.43c.777-.438 1.754-.683 2.7-.725.956-.044 1.89.122 2.566.504zm38.706 22.433l-38.98-21.943c-.588-.33-1.412-.472-2.268-.434-.863.038-1.75.26-2.452.654l-6.16 3.468-.147.035-2.07-.066.01 1.732.02.02-.02.14a.836.836 0 0 0 .114.576c.114.19.306.366.576.52l50.356 28.342c.586.332 1.41.475 2.267.437.863-.036 1.75-.26 2.452-.652l7.286-4.102c.37-.207.646-.438.83-.678.175-.23.266-.465.265-.688v-.282l-.004-1.754-12.047-5.31-.026-.014z"/><path fill-rule="evenodd" clip-rule="evenodd" fill="#FFF" d="M56.703 106.658l50.355 28.344c1.266.713 1.09 1.98-.39 2.812l-7.286 4.103c-1.482.832-3.73.933-4.994.22L44.032 113.79c-1.266-.712-1.09-1.977.39-2.81l7.287-4.102c1.48-.835 3.725-.933 4.992-.22z"/><path fill="#01C0E4" d="M56.84 106.412l50.354 28.346c.377.212.644.47.807.758.13.23.19.477.185.73-.008.248-.08.496-.215.737-.22.39-.61.765-1.166 1.076l-7.285 4.1c-.78.438-1.758.685-2.705.725-.955.042-1.887-.123-2.566-.505l-50.355-28.344c-.377-.212-.644-.472-.807-.758a1.406 1.406 0 0 1-.183-.73 1.56 1.56 0 0 1 .214-.737c.22-.39.61-.763 1.165-1.075l7.287-4.1c.777-.44 1.754-.685 2.7-.725.957-.045 1.89.12 2.567.502zm50.08 28.835l-50.354-28.345c-.588-.33-1.413-.472-2.268-.435-.863.04-1.75.26-2.452.655l-7.286 4.1c-.46.26-.78.56-.95.863a1.04 1.04 0 0 0-.144.478.852.852 0 0 0 .112.438c.112.2.308.386.59.545l50.356 28.345c.586.33 1.41.472 2.267.434.865-.038 1.75-.26 2.454-.653l7.286-4.1c.46-.26.777-.56.947-.86a1.02 1.02 0 0 0 .144-.48.803.803 0 0 0-.11-.438c-.11-.197-.307-.384-.59-.543z"/><path fill-rule="evenodd" clip-rule="evenodd" fill="#01C0E4" d="M96.697 137.09c1.205 0 2.182-.55 2.182-1.228s-.98-1.228-2.184-1.228c-1.204 0-2.18.55-2.18 1.228s.976 1.23 2.18 1.23zM54.46 113.738c1.222 0 2.21-.558 2.21-1.245s-.988-1.243-2.21-1.243c-1.22 0-2.207.556-2.207 1.243 0 .688.99 1.245 2.208 1.245z"/><path fill-rule="evenodd" clip-rule="evenodd" fill="#FFF" d="M117.465 13.244c1.682 0 3.047-.768 3.047-1.715 0-.95-1.365-1.717-3.047-1.717s-3.044.768-3.044 1.715c0 .946 1.365 1.714 3.046 1.714z"/></svg>