<svg width="150" height="150" viewBox="0 0 150 150" fill="none" xmlns="http://www.w3.org/2000/svg">
<path fill-rule="evenodd" clip-rule="evenodd" d="M98.0455 117.682C90.2837 141.477 64.9269 147.547 41.4091 131.24C17.8914 114.934 5.11794 82.4248 12.8797 58.6301C20.6415 34.8354 45.9992 28.7657 69.5169 45.0723C93.0347 61.3788 105.807 93.8871 98.0455 117.682ZM84.6871 104.32C89.618 107.739 94.6298 110.174 99.5433 111.669C103.639 88.6669 91.1045 60.0425 69.5145 45.0726C64.5834 41.6535 59.5713 39.2181 54.6576 37.7237C50.5624 60.7257 63.0973 89.3504 84.6871 104.32Z" fill="url(#paint0_linear_1143_3136)"/>
<path fill-rule="evenodd" clip-rule="evenodd" d="M107.189 25.6508L42.7871 65.0974L68.3297 107.937L107.189 84.1491V25.6508Z" fill="#16055A"/>
<path fill-rule="evenodd" clip-rule="evenodd" d="M141.321 90.7609C138.551 99.2527 133.54 105.487 127.172 109.253L84.85 135.584C90.7631 131.772 95.4124 125.745 98.042 117.683C105.804 93.8886 93.0313 61.3803 69.5135 45.0737C54.1576 34.4264 38.0173 33.319 26.5031 40.4567L26.502 40.4548L69.8935 13.464L69.8943 13.4653C81.401 6.40384 97.4866 7.53841 112.793 18.1513C136.311 34.4579 149.083 66.9662 141.321 90.7609Z" fill="url(#paint1_linear_1143_3136)"/>
<path d="M49.0437 105.915C59.5598 113.206 70.8982 110.492 74.3689 99.8521C77.8396 89.2122 72.1283 74.6759 61.6122 67.3844C51.0961 60.0928 39.7573 62.8069 36.2866 73.4468C32.8159 84.0867 38.5276 98.6233 49.0437 105.915Z" fill="#F3F6FC"/>
<path d="M53.6562 87.1573L7.34646 117.446" stroke="#F3F6FC" stroke-width="2.01077" stroke-linecap="round"/>
<path fill-rule="evenodd" clip-rule="evenodd" d="M98.8068 89.3549L120.63 75.9955L120.629 75.9928C123.36 74.2959 125.509 71.5601 126.712 67.872C130.182 57.2321 124.471 42.6958 113.955 35.4043C106.901 30.5131 99.4764 30.1242 94.305 33.6098L72.2754 47.1031C85.7497 57.5524 95.281 73.3862 98.8068 89.3549Z" fill="url(#paint2_linear_1143_3136)"/>
<path d="M6.77518 125.503C11.9484 129.09 17.5261 127.755 19.2334 122.521C20.9408 117.287 18.1312 110.136 12.958 106.549C7.78487 102.962 2.20696 104.297 0.499617 109.531C-1.20773 114.765 1.60203 121.916 6.77518 125.503Z" fill="#16055A"/>
<defs>
<linearGradient id="paint0_linear_1143_3136" x1="138.865" y1="185.544" x2="26.2979" y2="53.114" gradientUnits="userSpaceOnUse">
<stop stop-color="#E14C88"/>
<stop offset="0.591174" stop-color="#75089C"/>
<stop offset="1" stop-color="#16055A"/>
</linearGradient>
<linearGradient id="paint1_linear_1143_3136" x1="59.5" y1="27" x2="102.492" y2="103.005" gradientUnits="userSpaceOnUse">
<stop stop-color="#FF6C40"/>
<stop offset="1" stop-color="#FFB800"/>
</linearGradient>
<linearGradient id="paint2_linear_1143_3136" x1="132.242" y1="78.2215" x2="99.8542" y2="28.6549" gradientUnits="userSpaceOnUse">
<stop stop-color="#FF6E40"/>
<stop offset="1" stop-color="#8B1CA7"/>
</linearGradient>
</defs>
</svg>
