<svg width="150" height="150" viewBox="0 0 150 150" fill="none" xmlns="http://www.w3.org/2000/svg">
<path d="M81.5841 4.23414C85.0609 2.23259 89.3407 2.23524 92.8149 4.24109L140.391 31.7093C143.87 33.7176 146.013 37.4292 146.013 41.4458V96.3636C146.013 100.385 143.864 104.101 140.379 106.107L95.5623 131.908C92.0855 133.91 87.8057 133.907 84.3315 131.902L36.7552 104.433C33.2767 102.425 31.1338 98.7133 31.1338 94.6967V36.312C31.1338 34.4352 32.1362 32.7014 33.7627 31.765L81.5841 4.23414Z" fill="url(#paint0_linear_1143_3207)"/>
<path d="M81.5841 4.23414C85.0609 2.23259 89.3407 2.23524 92.8149 4.24109L140.391 31.7093C143.87 33.7176 146.013 37.4292 146.013 41.4458V96.3636C146.013 100.385 143.864 104.101 140.379 106.107L95.5623 131.908C92.0855 133.91 87.8057 133.907 84.3315 131.902L36.7552 104.433C33.2767 102.425 31.1338 98.7133 31.1338 94.6967V36.312C31.1338 34.4352 32.1362 32.7014 33.7627 31.765L81.5841 4.23414Z" fill="url(#paint1_linear_1143_3207)"/>
<path d="M96.8527 47.2135C102.545 50.4344 107.16 47.0627 107.16 39.6827C107.16 32.3027 102.545 23.7091 96.8527 20.4883C91.16 17.2674 86.5449 20.639 86.5449 28.019C86.5449 35.3989 91.16 43.9927 96.8527 47.2135Z" fill="white"/>
<path d="M117.917 95.0796C117.917 96.2278 116.672 96.9497 115.673 96.3843L72.9092 72.1888C72.9133 70.2892 72.867 68.3829 72.9703 66.4852C73.7717 51.7728 83.5121 45.3027 95.414 52.0366C107.003 58.5933 116.542 75.3493 117.776 90.6449C117.895 92.1205 117.917 93.5999 117.917 95.0796Z" fill="white"/>
<path d="M30.8486 36.7074C30.8486 32.6699 35.2182 30.1455 38.7159 32.1621L88.961 61.1317C92.907 63.4068 95.3384 67.6153 95.3384 72.1702V129.088C95.3384 133.126 90.9689 135.65 87.4711 133.634L37.2261 104.664C33.28 102.389 30.8486 98.1805 30.8486 93.6256V36.7074Z" fill="#16055A"/>
<path d="M95.3388 84.8792L74.9555 73.3464C73.6914 72.6312 72.9053 71.29 72.9026 69.8376C72.9006 68.7192 72.9096 67.6006 72.9703 66.4851C73.2543 61.2715 74.6608 57.0929 76.8883 54.1702L88.9613 61.1311C92.9074 63.4062 95.3388 67.6147 95.3388 72.1696V84.8792Z" fill="#8E1FA5"/>
<path d="M95.3388 84.8792L74.9555 73.3464C73.6914 72.6312 72.9053 71.29 72.9026 69.8376C72.9006 68.7192 72.9096 67.6006 72.9703 66.4851C73.2543 61.2715 74.6608 57.0929 76.8883 54.1702L88.9613 61.1311C92.9074 63.4062 95.3388 67.6147 95.3388 72.1696V84.8792Z" fill="url(#paint2_linear_1143_3207)"/>
<path d="M62.804 89.8822C65.9539 91.6666 68.5074 89.7986 68.5074 85.7098C68.5074 81.621 65.9539 76.8598 62.804 75.0753C59.6542 73.2909 57.1006 75.1588 57.1006 79.2476C57.1006 83.3364 59.6542 88.0977 62.804 89.8822Z" fill="white"/>
<line x1="61.3949" y1="82.9698" x2="32.0915" y2="102.078" stroke="white" stroke-width="2.01077"/>
<path d="M0.0664062 66.7563C0.0664062 62.8879 4.25295 60.4691 7.60423 62.4013L45.8236 84.4373C49.5599 86.5915 51.8621 90.5763 51.8621 94.8891V138.139C51.8621 142.007 47.6756 144.426 44.3243 142.494L6.10487 120.458C2.3686 118.303 0.0664062 114.319 0.0664062 110.006V66.7563Z" fill="#0A0353"/>
<path d="M0.0664062 66.7563C0.0664062 62.8879 4.25295 60.4691 7.60423 62.4013L45.8236 84.4373C49.5599 86.5915 51.8621 90.5763 51.8621 94.8891V138.139C51.8621 142.007 47.6756 144.426 44.3243 142.494L6.10487 120.458C2.3686 118.303 0.0664062 114.319 0.0664062 110.006V66.7563Z" fill="url(#paint3_linear_1143_3207)"/>
<path d="M0.0664062 66.7563C0.0664062 62.8879 4.25295 60.4691 7.60423 62.4013L45.8236 84.4373C49.5599 86.5915 51.8621 90.5763 51.8621 94.8891V138.139C51.8621 142.007 47.6756 144.426 44.3243 142.494L6.10487 120.458C2.3686 118.303 0.0664062 114.319 0.0664062 110.006V66.7563Z" fill="url(#paint4_linear_1143_3207)" fill-opacity="0.5"/>
<path fill-rule="evenodd" clip-rule="evenodd" d="M51.865 113.102L37.229 104.664C33.283 102.389 30.8516 98.1802 30.8516 93.6253V75.802L45.8265 84.436C49.5628 86.5902 51.865 90.575 51.865 94.8878V113.102Z" fill="#6307AB"/>
<path d="M16.3867 86.5567L33.7891 96.2731V105.841L32.5424 104.998C32.5424 104.998 32.6463 97.1654 27.2437 94.885C27.1918 99.7432 27.1918 110.203 27.1918 111.641C27.1918 113.078 27.6593 114.962 29.8931 115.854C29.997 116.747 29.945 117.887 29.945 117.887L19.9711 112.186V110.6C19.9711 110.6 22.5165 112.136 22.5685 109.261C22.6187 106.478 22.5685 93.0012 22.5685 93.0012C22.5685 93.0012 18.7763 88.0935 17.5296 96.4714C17.0101 96.3226 16.3867 96.0252 16.3867 96.0252V86.5567V86.5567Z" fill="white"/>
<defs>
<linearGradient id="paint0_linear_1143_3207" x1="89.9448" y1="12.1609" x2="155.917" y2="122.678" gradientUnits="userSpaceOnUse">
<stop stop-color="#F54D9E"/>
<stop offset="0.526495" stop-color="#FF831E"/>
<stop offset="1" stop-color="#FFB800"/>
</linearGradient>
<linearGradient id="paint1_linear_1143_3207" x1="67.5426" y1="13.3476" x2="119.287" y2="116.836" gradientUnits="userSpaceOnUse">
<stop stop-color="#FF6C40"/>
<stop offset="1" stop-color="#FFB800"/>
</linearGradient>
<linearGradient id="paint2_linear_1143_3207" x1="110.808" y1="72.0221" x2="71.7001" y2="88.5053" gradientUnits="userSpaceOnUse">
<stop stop-color="#E95F54"/>
<stop offset="1" stop-color="#8B1CA7"/>
</linearGradient>
<linearGradient id="paint3_linear_1143_3207" x1="2.44283" y1="29.2468" x2="54.724" y2="132.383" gradientUnits="userSpaceOnUse">
<stop stop-color="#D84987"/>
<stop offset="1" stop-color="#6405D1"/>
</linearGradient>
<linearGradient id="paint4_linear_1143_3207" x1="61" y1="149.5" x2="-10" y2="67.4996" gradientUnits="userSpaceOnUse">
<stop stop-color="#6001CD"/>
<stop offset="1" stop-color="#8D189A"/>
</linearGradient>
</defs>
</svg>
