<svg xmlns="http://www.w3.org/2000/svg" width="260" height="260" viewBox="0 0 260 260"><path fill="#DEDFE1" d="M86.273 123.138l17.038 9.9a.393.393 0 0 1 0 .68l-17.04 9.905a.396.396 0 0 1-.396 0l-17.036-9.905a.39.39 0 0 1 .002-.68l17.037-9.903a.395.395 0 0 1 .396.003zm16.06 10.24l-16.26-9.448-16.26 9.45 16.26 9.45 16.26-9.45z"/><path fill="#DEDFE1" d="M86.273 142.945l17.038 9.902a.392.392 0 0 1 0 .68l-17.04 9.903a.396.396 0 0 1-.396-.002l-17.036-9.9a.393.393 0 0 1 .002-.683l17.037-9.902a.397.397 0 0 1 .396.002zm16.06 10.243l-16.26-9.45-16.26 9.45 16.26 9.45 16.26-9.45z"/><path fill="#DEDFE1" d="M69.232 133.042l17.038 9.9a.392.392 0 0 1-.002.68l-17.04 9.905a.392.392 0 0 1-.396-.002l-17.037-9.902a.395.395 0 0 1 0-.682l17.04-9.9a.392.392 0 0 1 .397.003zm16.06 10.24l-16.26-9.45-16.258 9.45 16.26 9.452 16.258-9.452zm103.013-.124l17.037 9.903a.39.39 0 0 1-.002.68l-17.038 9.904a.394.394 0 0 1-.397-.002l-17.037-9.9a.393.393 0 0 1 0-.68l17.04-9.904a.397.397 0 0 1 .397.002zm16.06 10.242l-16.26-9.45-16.26 9.45 16.26 9.45 16.26-9.45z"/><path fill="#DEDFE1" d="M205.56 152.85l17.037 9.9a.393.393 0 0 1-.002.682l-17.04 9.903a.388.388 0 0 1-.395-.004l-17.038-9.9a.393.393 0 0 1 .002-.68l17.04-9.9a.383.383 0 0 1 .395.002zm16.058 10.24l-16.258-9.45-16.26 9.45 16.26 9.45 16.258-9.45z"/><path fill="#DEDFE1" d="M188.305 162.967l17.037 9.9a.393.393 0 0 1-.002.68l-17.038 9.903a.392.392 0 0 1-.397-.002l-17.037-9.902a.393.393 0 0 1 0-.68l17.04-9.903a.392.392 0 0 1 .397.004zm16.06 10.24l-16.26-9.45-16.26 9.45 16.26 9.45 16.26-9.45z"/><path fill="#DEDFE1" d="M205.56 172.656l17.037 9.903a.392.392 0 0 1-.002.68l-17.04 9.9a.397.397 0 0 1-.395 0l-17.038-9.904a.393.393 0 0 1 .002-.68l17.04-9.903a.39.39 0 0 1 .395.002zm16.058 10.243l-16.258-9.454-16.26 9.452 16.26 9.447 16.258-9.448z"/><path fill="#DEDFE1" d="M188.305 182.774l17.037 9.9a.392.392 0 0 1-.002.682l-17.038 9.9a.392.392 0 0 1-.397 0l-17.037-9.902a.393.393 0 0 1 0-.682l17.04-9.902a.392.392 0 0 1 .397.004zm16.06 10.24l-16.26-9.448-16.26 9.45 16.26 9.448 16.26-9.45zm-66.97 19.256l17.038 9.903c.188.11.252.35.145.536a.395.395 0 0 1-.146.142l-17.04 9.903a.392.392 0 0 1-.395-.002l-17.037-9.9a.392.392 0 0 1 .002-.682l17.04-9.902a.39.39 0 0 1 .393 0zm16.06 10.242l-16.26-9.45-16.26 9.45 16.26 9.45 16.26-9.45z"/><path fill="#DEDFE1" d="M103.313 212.27l17.04 9.903a.393.393 0 0 1-.003.68l-17.04 9.903a.394.394 0 0 1-.397-.002l-17.038-9.9a.392.392 0 0 1 .002-.682l17.04-9.903a.39.39 0 0 1 .396 0zm16.06 10.242l-16.26-9.45-16.258 9.45 16.26 9.45 16.26-9.45z"/><path fill="#DEDFE1" d="M86.273 202.368l17.038 9.9a.394.394 0 0 1 0 .68l-17.04 9.904a.394.394 0 0 1-.396-.003l-17.035-9.903a.392.392 0 0 1 0-.68l17.04-9.902a.386.386 0 0 1 .394.002zm16.06 10.24l-16.26-9.45-16.26 9.45 16.26 9.45 16.26-9.45zm-33.1-59.758l17.037 9.9a.392.392 0 0 1-.002.682l-17.04 9.903a.387.387 0 0 1-.396-.004l-17.037-9.9a.393.393 0 0 1 0-.68l17.04-9.9a.385.385 0 0 1 .397.002zm16.06 10.24l-16.26-9.45-16.26 9.45 16.26 9.45 16.26-9.45z"/><path fill="#DEDFE1" d="M86.273 162.752l17.038 9.902a.393.393 0 0 1 0 .68l-17.04 9.903a.396.396 0 0 1-.396-.002l-17.036-9.902a.39.39 0 0 1 .002-.68l17.037-9.903a.395.395 0 0 1 .396.002zm16.06 10.24l-16.26-9.448-16.26 9.45 16.26 9.45 16.26-9.45z"/><path fill="#DEDFE1" d="M69.232 172.656l17.038 9.903a.392.392 0 0 1-.002.68l-17.04 9.9a.397.397 0 0 1-.396 0l-17.037-9.904a.393.393 0 0 1 0-.68l17.04-9.903a.392.392 0 0 1 .397.002zm16.06 10.243l-16.26-9.454-16.258 9.452 16.26 9.447L85.29 182.9z"/><path fill="#DEDFE1" d="M86.273 182.56l17.038 9.902a.392.392 0 0 1 0 .682l-17.04 9.902a.398.398 0 0 1-.396-.003l-17.036-9.9a.392.392 0 0 1 .002-.682l17.037-9.9a.385.385 0 0 1 .396 0zm16.06 10.242l-16.26-9.45-16.26 9.45 16.26 9.45 16.26-9.45z"/><path fill="#DEDFE1" d="M69.232 192.464l17.038 9.902a.392.392 0 0 1-.002.68l-17.04 9.902a.39.39 0 0 1-.395 0l-17.037-9.904a.392.392 0 0 1 0-.68l17.04-9.903a.393.393 0 0 1 .396.005zm16.06 10.24l-16.26-9.45-16.258 9.45 16.26 9.45 16.258-9.45z"/><path fill="#AAACAF" d="M120.176 26.72a.254.254 0 0 1-.09-.347.253.253 0 0 1 .35-.09L142.7 39.3c.12.072.16.23.09.35a.254.254 0 0 1-.35.09l-22.264-13.02z"/><path fill="#AAACAF" d="M122.306 20.104c.308 0 .596.044.864.128.695.217 1.24.696 1.61 1.372.357.655.548 1.493.548 2.447 0 .826-.142 1.74-.442 2.704-.556 1.784-1.554 3.4-2.718 4.57-1.183 1.19-2.544 1.928-3.805 1.928-.306 0-.596-.043-.863-.127-.693-.217-1.24-.697-1.608-1.373-.358-.654-.55-1.492-.55-2.447 0-.824.144-1.74.445-2.702.555-1.783 1.553-3.4 2.717-4.57 1.18-1.19 2.543-1.926 3.802-1.926zm.714.614a2.43 2.43 0 0 0-.714-.104c-1.12 0-2.352.68-3.44 1.775-1.11 1.113-2.062 2.656-2.594 4.36-.284.91-.417 1.775-.417 2.55 0 .87.17 1.626.485 2.204.305.558.75.953 1.313 1.13.218.066.457.103.712.103 1.12 0 2.353-.678 3.443-1.774 1.108-1.116 2.06-2.658 2.592-4.364.284-.91.418-1.775.418-2.55 0-.87-.17-1.626-.485-2.204-.306-.558-.75-.953-1.313-1.13z"/><path fill="#AAACAF" d="M120.944 24.723c.735 0 1.06.875.722 1.953-.336 1.08-1.205 1.954-1.94 1.954s-1.058-.875-.722-1.954c.336-1.078 1.204-1.953 1.94-1.953z"/><path fill="#01C0E4" d="M24.836 85.35a.252.252 0 0 1-.09-.35.25.25 0 0 1 .347-.09l22.265 13.02c.122.07.162.228.09.348a.252.252 0 0 1-.35.09L24.838 85.35z"/><path fill="#01C0E4" d="M26.965 78.732c.306 0 .596.043.863.127.694.214 1.24.695 1.61 1.37.357.655.548 1.493.548 2.448 0 .823-.143 1.74-.443 2.7-.555 1.786-1.553 3.4-2.718 4.572-1.183 1.19-2.545 1.927-3.803 1.927a2.87 2.87 0 0 1-.864-.128c-.696-.218-1.24-.698-1.61-1.374-.355-.658-.548-1.494-.548-2.45 0-.822.142-1.738.443-2.7.556-1.785 1.554-3.4 2.718-4.572 1.186-1.19 2.547-1.926 3.806-1.926zm.712.616a2.378 2.378 0 0 0-.712-.104c-1.12 0-2.352.68-3.442 1.774-1.108 1.115-2.06 2.658-2.592 4.364-.283.91-.42 1.774-.42 2.55 0 .87.17 1.624.49 2.204.304.557.75.952 1.31 1.128.22.068.457.104.714.104 1.118 0 2.352-.68 3.442-1.774 1.108-1.115 2.06-2.658 2.592-4.363.285-.91.418-1.772.418-2.55 0-.87-.168-1.623-.485-2.2-.304-.56-.75-.957-1.312-1.13z"/><path fill="#01C0E4" d="M25.603 83.352c.735 0 1.06.875.723 1.953-.336 1.08-1.206 1.954-1.94 1.954-.737 0-1.06-.876-.724-1.956.336-1.078 1.206-1.953 1.94-1.953z"/><path fill="#FFF" d="M155.93 28.94c-3.393-1.017-5.696-.48-8.327 1.03l-94.94 54.59c-14.19 8.16-15.725 18.27-15.725 27.806v67.914c0 2.834.175 5.752 2.934 7.98-.186 5.948 1.346 7.853 5.424 10.197l62.413 35.86c8.4 4.828 20.63 2.977 29.005-1.898l93.408-54.39c2.477-1.442 5.92-4.36 5.787-7.902v-6.65a5.58 5.58 0 0 0 0-.43v-.044c-.107-2.34-1.775-4.95-6.304-7.592l-65.838-38.392V39.826c0-3.67-.964-6.498-2.565-8.24-1.37-1.487-3.432-1.98-5.272-2.646zM39.87 188.26l123.897-71.237L39.87 188.26z"/><path fill="#AAACAF" d="M155.365 30.82c-1.404-.42-2.555-.522-3.6-.37-1.067.158-2.085.584-3.188 1.218l-94.94 54.59c-6.683 3.84-10.367 8.102-12.37 12.503a2.582 2.582 0 0 1-.07.14c-1.945 4.356-2.294 8.968-2.294 13.467v67.914c0 1.28.036 2.56.355 3.68.185.648.476 1.27.935 1.856l121.604-69.92v-76.07c0-1.604-.197-3.005-.564-4.18-.354-1.14-.858-2.057-1.48-2.73-.797-.866-2.17-1.333-3.506-1.788a40.08 40.08 0 0 1-.882-.306zm-4.17-4.257c1.612-.238 3.31-.1 5.297.494v.002c.036.01.072.02.107.034.206.075.557.193.91.314 1.802.612 3.657 1.242 5.134 2.847 1.012 1.098 1.81 2.52 2.338 4.22.485 1.557.75 3.352.75 5.348v76.072l64.854 37.82c2.338 1.362 4.007 2.75 5.15 4.127 1.366 1.646 2 3.288 2.117 4.873.014.095.02.192.02.292v.042h-.004v.309l.004.12v6.646h-.005c.054 1.98-.69 3.76-1.81 5.285-1.38 1.89-3.353 3.384-4.956 4.317l-93.408 54.388c-4.66 2.713-10.45 4.54-16.183 4.914-5.23.34-10.445-.523-14.784-3.017l-62.41-35.86c-2.33-1.34-3.956-2.59-5.035-4.47-.962-1.673-1.394-3.696-1.39-6.552-1.272-1.245-2-2.636-2.416-4.1-.46-1.603-.51-3.194-.51-4.754V112.36c0-4.935.404-10.04 2.653-15.07.02-.054.04-.11.065-.162 2.31-5.08 6.49-9.953 13.995-14.27l94.94-54.59c1.53-.877 2.98-1.475 4.57-1.71zM41.815 189.4c.018 1.984.29 3.332.866 4.334.66 1.145 1.84 2.02 3.59 3.023l62.414 35.86c3.61 2.078 8.062 2.79 12.585 2.494 5.122-.332 10.296-1.965 14.46-4.39l93.41-54.387c1.236-.722 2.74-1.85 3.757-3.24.653-.893 1.09-1.88 1.05-2.896v-.068h-.006v-6.65c0-.075.005-.148.014-.22v-.03a1.52 1.52 0 0 1-.015-.224v-.03c-.064-.8-.43-1.68-1.216-2.628-.855-1.033-2.182-2.115-4.104-3.235l-64.866-37.826L41.814 189.4z"/><path fill="#FFF" d="M39.655 188.26l120.962-73.192V37.87c0-2.49-.442-4.59-1.228-6.23l-1.257-1.824-2.42-.877c-3.392-1.02-5.698-.483-8.327 1.03L52.444 84.56c-14.188 8.158-15.723 18.27-15.723 27.805v67.914c0 2.832.177 5.75 2.936 7.98z"/><path fill="#AAACAF" d="M39.677 187.948l120.684-73.024V37.87c0-1.21-.102-2.324-.303-3.337a11.63 11.63 0 0 0-.888-2.762l-1.2-1.74-2.33-.845c-1.657-.496-3.047-.614-4.34-.424-1.294.19-2.5.693-3.787 1.43l-94.94 54.593c-7.042 4.048-10.94 8.575-13.08 13.27-2.135 4.696-2.515 9.576-2.515 14.314v67.914c0 1.4.043 2.818.42 4.147a6.97 6.97 0 0 0 2.28 3.522zm121.073-72.66L39.797 188.473a.257.257 0 0 1-.304-.014c-1.425-1.154-2.183-2.485-2.584-3.896-.4-1.393-.444-2.852-.444-4.286v-67.915c0-4.796.387-9.742 2.566-14.525 2.176-4.784 6.14-9.39 13.286-13.5l94.94-54.59c1.342-.77 2.605-1.294 3.97-1.495 1.363-.2 2.825-.08 4.558.44l.016.004 2.417.876a.25.25 0 0 1 .124.094l1.256 1.825a.26.26 0 0 1 .02.036c.408.854.728 1.824.938 2.904.206 1.045.316 2.193.316 3.435v77.197a.257.257 0 0 1-.124.22z"/><path fill="#F3F3F3" d="M51.965 188.26h-12.31c-.186 5.948 1.346 7.853 5.423 10.197l62.413 35.86c8.403 4.828 20.636 2.977 29.01-1.898l93.407-54.39c2.478-1.442 5.92-4.36 5.787-7.902v-7.124h-5.46c-.272-.17-.55-.34-.845-.513l-65.84-38.39-111.584 64.16z"/><path fill="#AAACAF" d="M51.965 188.518H39.902c-.065 2.785.265 4.64 1.085 6.066.842 1.465 2.215 2.503 4.218 3.652l62.412 35.862c3.93 2.257 8.713 3.036 13.543 2.72 5.388-.353 10.828-2.07 15.21-4.62l93.407-54.387c1.398-.81 3.107-2.1 4.28-3.706.862-1.176 1.433-2.52 1.38-3.965v-6.878h-5.206a.246.246 0 0 1-.15-.048c-.125-.08-.257-.16-.394-.244-.137-.086-.28-.17-.426-.256l-65.713-38.318L52.092 188.48a.253.253 0 0 1-.127.038zm-12.31-.513H51.9l111.51-64.116a.253.253 0 0 1 .268-.01l65.84 38.39c.145.087.292.173.435.26.115.07.232.146.354.22h5.388c.14 0 .255.116.255.256v7.123c.056 1.57-.556 3.02-1.477 4.275-1.223 1.672-2.993 3.007-4.438 3.85l-93.407 54.387c-4.444 2.587-9.966 4.328-15.436 4.687-4.922.32-9.804-.477-13.827-2.79l-62.413-35.86c-2.077-1.193-3.51-2.28-4.405-3.84-.893-1.554-1.24-3.55-1.147-6.563v-.015a.255.255 0 0 1 .255-.258z"/><path fill="#FFF" d="M39.655 188.26l123.897-71.237V39.826c0-8.53-5.2-12.518-11.555-8.865l-96.62 55.556c-14.19 8.157-15.722 18.27-15.722 27.806v73.94z"/><path fill="#AAACAF" d="M40.47 187.82l122.83-70.945v-77.05c0-2.768-.552-5.042-1.51-6.718-.602-1.05-1.362-1.864-2.25-2.413a5.616 5.616 0 0 0-2.99-.833c-1.343 0-2.82.426-4.373 1.32l-96.18 55.556c-7.008 4.05-10.89 8.576-13.017 13.27-2.128 4.698-2.506 9.577-2.506 14.315v73.5zm123.21-70.577L40.362 188.47a.248.248 0 0 1-.146.048.256.256 0 0 1-.255-.257v-73.94c0-4.796.387-9.74 2.554-14.523 2.168-4.784 6.112-9.39 13.23-13.5l96.18-55.555c1.635-.942 3.197-1.39 4.624-1.39 1.194 0 2.293.314 3.257.912.96.594 1.777 1.47 2.423 2.593 1 1.752 1.576 4.114 1.576 6.972v77.196a.26.26 0 0 1-.127.22z"/><path fill="#FFF" d="M163.55 117.022l-123.895 71.24 67.836 38.978c8.403 4.828 20.636 2.977 29.01-1.898l93.407-54.388c4.12-2.4 10.913-8.873-.518-15.54l-65.84-38.392z"/><path fill="#AAACAF" d="M163.548 117.317L40.165 188.26l67.452 38.76c3.93 2.257 8.713 3.035 13.543 2.72 5.388-.353 10.828-2.07 15.21-4.62l93.407-54.386c1.613-.94 3.643-2.513 4.783-4.47.5-.858.83-1.79.876-2.77.048-.98-.187-2.02-.813-3.093-.892-1.53-2.574-3.137-5.363-4.763l-65.712-38.32zM39.528 188.04l123.88-71.23a.253.253 0 0 1 .27-.007l65.838 38.39c2.872 1.675 4.615 3.347 5.55 4.952.678 1.165.932 2.297.88 3.372-.05 1.07-.407 2.08-.944 3-1.193 2.05-3.298 3.685-4.968 4.658l-93.408 54.386c-4.445 2.59-9.967 4.33-15.436 4.69-4.92.322-9.804-.475-13.827-2.786L39.526 188.48a.253.253 0 0 1 0-.44z"/><path fill="#F3F3F3" d="M141.75 137.075l-4.173 2.468-7.192 4.207v-12.324l-7.19-4.208-7.19-4.208-8.512 5.2v15.578l-5.87-5.2-7.19 4.208v-16.37l-7.192-4.21-7.19 4.21v11.048l-7.183 4.203h-.007v14.754l-7.19 4.21v12.92l-7.192 4.208-2.874 1.682c-2.893 1.738-2.053 4.137.058 5.086l2.816 1.647 7.19 4.207 7.19 4.208c1.135.664 2.296 1.28 3.4 1.99 2.536 1.63 5.655 1.215 8.445-.505l2.537-1.485 7.19-4.208 7.192-4.207 7.19-4.207 7.19-4.208 2.84-1.66 10-5.853 1.543-.9 7.19-4.208 7.19-4.21 7.19-4.206 7.192-4.205 7.19-4.21 7.19-4.206 7.192-4.21-4.294-14.133-2.9-10.978-7.19 4.207V81.234l-7.19-4.208-7.19 4.208v34.022l-10.207 5.95v15.87zm-32.936 36.482l7.19-4.207-7.19-4.206 7.19 4.206-7.19 4.207zm57.526-54.567v12.696-12.696zm-71.908 23.807v13.577-13.577zm7.19 9.37v-5.162l-7.19-4.208 7.19 9.37z"/><path fill="#FFF" d="M204.992 30h-.002c-.102-.068-2.907-1.6-3.012-1.66-2.296-1.413-4.244-1.94-6.67-.546L138.73 60.328c-3.918 2.254-7.126 8.367-7.126 13.583v29.583c0 3.39.71 4.677 3.957 6.416.314.166 3.354 1.806 3.715 1.983 1.224.604 2.772.498 4.452-.468l56.576-32.533c3.92-2.254 7.127-8.366 7.127-13.583V35.723c0-2.83-.946-4.84-2.438-5.724z"/><path fill="#01C0E4" d="M203.92 31.646c-.093-.053-.86-.472-1.573-.864-.704-.386-1.353-.742-1.396-.77-.923-.567-1.74-.954-2.494-1.048-.667-.083-1.364.064-2.17.527L139.71 62.027c-1.63.937-3.146 2.74-4.273 4.89-1.15 2.19-1.863 4.698-1.863 6.995v29.58c0 1.346.11 2.22.47 2.815.375.62 1.138 1.176 2.443 1.875l.007.002.002-.003.364.194c.84.45 2.772 1.492 3.218 1.72l.122.06c.28.127.61.174.977.136.473-.05 1.004-.233 1.578-.564l56.576-32.534c1.63-.937 3.147-2.74 4.274-4.89 1.15-2.19 1.864-4.7 1.864-6.996V35.724c0-1.124-.17-2.054-.475-2.768-.257-.6-.597-1.03-.997-1.268a1.027 1.027 0 0 1-.074-.042zm.316-4.307c.668.365 1.387.76 1.685.93.025.012.05.024.07.04 1.123.663 2.02 1.72 2.61 3.11.51 1.2.796 2.65.796 4.303v29.582c0 2.92-.89 6.075-2.324 8.81-1.454 2.773-3.502 5.155-5.79 6.472l-56.58 32.534c-1.07.618-2.126.968-3.13 1.074-1.12.118-2.17-.065-3.108-.517-.02-.008-.038-.017-.056-.026-.354-.173-2.51-1.333-3.407-1.816l-.367-.196.002-.004c-1.94-1.038-3.155-1.997-3.943-3.3-.806-1.333-1.05-2.796-1.05-4.84V73.91c0-2.92.89-6.074 2.324-8.808 1.456-2.775 3.503-5.155 5.79-6.473l56.577-32.536c1.622-.932 3.112-1.218 4.6-1.033 1.402.175 2.708.758 4.08 1.6.05.03.614.34 1.226.678zm-138.66 74.4c.308 0 .597.043.865.127.696.216 1.24.697 1.61 1.372.36.653.55 1.49.55 2.446 0 .825-.144 1.74-.44 2.702-.558 1.782-1.556 3.398-2.72 4.57-1.183 1.19-2.544 1.926-3.804 1.926a2.9 2.9 0 0 1-.864-.127c-.693-.218-1.238-.697-1.607-1.373-.36-.655-.55-1.494-.55-2.448 0-.825.143-1.74.443-2.703.556-1.784 1.554-3.4 2.718-4.57 1.183-1.19 2.544-1.927 3.803-1.927zm.715.614a2.395 2.395 0 0 0-.71-.103c-1.12 0-2.353.68-3.443 1.776-1.108 1.115-2.06 2.658-2.592 4.364-.284.91-.42 1.773-.42 2.548 0 .87.17 1.625.487 2.204.305.558.75.954 1.315 1.128.217.068.456.104.712.104 1.12 0 2.352-.68 3.44-1.775 1.108-1.118 2.06-2.66 2.59-4.365.287-.913.42-1.776.42-2.55 0-.87-.17-1.624-.484-2.203-.308-.56-.752-.954-1.314-1.13z"/><path fill="#01C0E4" d="M64.215 106.36c.735 0 1.06.873.722 1.952-.335 1.078-1.205 1.953-1.94 1.953-.736 0-1.06-.875-.723-1.953.338-1.08 1.206-1.953 1.94-1.953z"/><path fill="#AAACAF" d="M75.91 109.782c.226 0 .44.032.64.094.514.162.918.518 1.192 1.017.263.48.402 1.09.402 1.784 0 .596-.104 1.258-.32 1.954-.4 1.29-1.122 2.455-1.96 3.3-.86.864-1.852 1.4-2.772 1.4a2.14 2.14 0 0 1-.64-.096c-.514-.16-.918-.516-1.192-1.016-.263-.48-.402-1.09-.402-1.785 0-.596.103-1.258.32-1.953.4-1.288 1.12-2.455 1.96-3.3.857-.863 1.85-1.398 2.77-1.398zm.486.582a1.605 1.605 0 0 0-.487-.07c-.783 0-1.646.477-2.413 1.247-.785.79-1.46 1.885-1.835 3.093a6.102 6.102 0 0 0-.297 1.8c0 .612.118 1.14.337 1.543.208.38.513.65.897.772.15.046.31.07.487.07.78 0 1.643-.475 2.41-1.246.785-.79 1.46-1.882 1.836-3.09a6.1 6.1 0 0 0 .296-1.8c0-.612-.12-1.14-.34-1.542-.207-.384-.51-.653-.895-.774z"/><path fill="#01C0E4" d="M52.526 99.583c.735 0 1.06.875.722 1.954-.337 1.08-1.207 1.954-1.94 1.954-.736 0-1.06-.873-.723-1.952.337-1.08 1.205-1.954 1.94-1.954z"/><path fill="#01C0E4" d="M51.892 101.848a.255.255 0 1 1 .258-.44l11.253 6.58c.122.073.163.23.09.35a.254.254 0 0 1-.348.09l-11.253-6.58z"/><path fill="#AAACAF" d="M151.896 42.26c.734 0 1.058.873.72 1.952-.335 1.078-1.204 1.954-1.94 1.954s-1.06-.875-.722-1.954 1.206-1.953 1.942-1.953z"/><path fill="#AAACAF" d="M151.26 44.522a.256.256 0 0 1-.09-.35.257.257 0 0 1 .35-.09l11.253 6.582c.123.07.162.227.09.35a.255.255 0 0 1-.347.09l-11.255-6.582z"/><path fill="#FFF" d="M141.435 110.345L198.01 77.81c3.922-2.254 7.128-8.366 7.128-13.582V34.646c0-1.845.546-3.584-.146-4.647-.24-.156-3.177-1.766-3.41-1.9-2.127-1.23-3.99-1.62-6.272-.307l-56.577 32.534c-3.92 2.254-7.127 8.367-7.127 13.583v29.582c0 3.325.682 4.63 3.775 6.318.365.198 3.463 1.868 3.896 2.08.95.082 1.033-.897 2.16-1.545z"/><path fill="#01C0E4" d="M141.308 110.123l56.575-32.534c1.918-1.105 3.665-3.16 4.936-5.58 1.27-2.428 2.06-5.217 2.06-7.785v-29.58c0-.598.06-1.19.114-1.752.104-1.092.197-2.062-.188-2.708-.278-.165-1.473-.825-2.36-1.314-.503-.28-.908-.5-.993-.55-1.033-.597-1.996-.99-2.97-1.07-.97-.086-1.955.136-3.048.763L138.86 60.548c-1.918 1.103-3.664 3.157-4.936 5.577-1.274 2.428-2.063 5.217-2.063 7.785v29.58c0 1.62.164 2.74.69 3.645.534.907 1.45 1.63 2.953 2.45.23.126 1.53.83 2.57 1.384.57.302 1.063.563 1.267.667.387.013.603-.237.877-.557.265-.303.57-.658 1.09-.957zm56.83-32.093l-56.575 32.534c-.445.256-.723.576-.958.85-.382.443-.68.788-1.352.73a.27.27 0 0 1-.093-.025c-.156-.08-.693-.366-1.325-.703a548.43 548.43 0 0 1-2.577-1.387c-1.588-.866-2.562-1.642-3.146-2.64-.585-1-.763-2.194-.763-3.9V73.91c0-2.65.81-5.524 2.122-8.022 1.312-2.502 3.13-4.632 5.132-5.784L195.18 27.57c1.19-.685 2.275-.925 3.343-.834 1.06.09 2.09.508 3.185 1.14.077.044.48.268.985.546.956.528 2.27 1.255 2.437 1.36a.24.24 0 0 1 .075.074c.517.795.412 1.87.297 3.08-.052.544-.108 1.116-.108 1.706v29.58c0 2.65-.813 5.524-2.123 8.022-1.313 2.506-3.13 4.636-5.132 5.786z"/><path fill="#FFF" d="M143.727 111.423l56.576-32.533c3.92-2.255 7.127-8.367 7.127-13.584V35.724c0-5.217-3.207-7.64-7.127-5.386l-56.576 32.535c-3.92 2.253-7.128 8.365-7.128 13.582v29.582c0 5.217 3.207 7.64 7.126 5.386z"/><path fill="#01C0E4" d="M143.6 111.202l56.576-32.535c1.917-1.102 3.664-3.156 4.936-5.577 1.273-2.426 2.062-5.216 2.062-7.785v-29.58c0-1.665-.332-3.028-.908-4.034-.36-.625-.82-1.113-1.355-1.442a3.394 3.394 0 0 0-1.8-.498c-.82 0-1.726.26-2.68.81l-56.576 32.533c-1.917 1.103-3.664 3.156-4.935 5.577-1.273 2.427-2.063 5.218-2.063 7.784v29.582c0 1.663.33 3.028.907 4.032.36.63.82 1.116 1.354 1.445a3.4 3.4 0 0 0 1.802.497c.818 0 1.726-.26 2.68-.808zm56.83-32.092l-56.576 32.534c-1.038.597-2.028.88-2.935.88-.76 0-1.46-.198-2.07-.574-.605-.373-1.12-.92-1.528-1.626-.622-1.082-.98-2.534-.98-4.286V76.455c0-2.648.815-5.522 2.127-8.02 1.31-2.502 3.127-4.632 5.13-5.784l56.576-32.53c1.037-.598 2.027-.88 2.934-.88.762 0 1.46.198 2.07.574.605.372 1.122.92 1.528 1.625.623 1.08.98 2.533.98 4.285v29.582c0 2.65-.814 5.524-2.124 8.02-1.316 2.503-3.132 4.632-5.134 5.784z"/><path fill="#ED135D" d="M145.332 67.564c1.085 0 1.562 1.29 1.066 2.88-.497 1.59-1.778 2.88-2.864 2.88-1.083 0-1.56-1.29-1.064-2.88.497-1.59 1.78-2.88 2.862-2.88z"/><path fill="#AAACAF" d="M157.198 135.48l-7.04 4.12-7.19 4.207-7.19 4.207a1.93 1.93 0 0 1-.725.25l.354.727a1.966 1.966 0 0 1-1.54 2.816l-13.076 2.64a1.958 1.958 0 0 1-2.342-1.922V142.29l-5.232-3.063-3.31 1.938 4.148 2.43c.667.312 1.13.993 1.13 1.778v5.16a1.967 1.967 0 0 1-3.934 0v-4.04l-3.258-1.907v10.156a1.967 1.967 0 0 1-3.934 0V125.91l-5.224-3.058-5.23 3.062v9.925c0 .72-.39 1.35-.968 1.687l-.01.007-.008.005-6.197 3.625v21.42c0 .06 0 .122-.007.184l-.068 11.9 7.872 4.35 1.454-1.666c.026-.062.05-.124.08-.188.417-.927 1.204-1.815 2.446-2.562a1.96 1.96 0 0 1 2.48 2.974l-1.295 1.487c.13.194.37.376.687.518.105.048.203.104.298.166l2.546 1.49.11.06v.004l.05.027c.242.144.443.33.597.545l.975.57c.254.147.685.392 1.116.636.798.455 1.598.907 2.353 1.393.123.08.236.158.34.238.068.025.133.053.195.084l.062-.075a1.95 1.95 0 0 1 .653-.533l6.106-3.573v-7.297c0-.903.61-1.665 1.44-1.895l3.137-1.145-.168-.594 8.288-2.37a1.966 1.966 0 0 1 1.1 3.773l-6.218 2.27 5.482 2.095 2.02-1.18 10.002-5.854.144-.085-.56-1.584c-.333-.946.1-1.976.972-2.41l7.08-4.144 7.19-4.207 7.042-4.12a2.08 2.08 0 0 1 .3-.177l7.038-4.12 7.19-4.208 5.646-3.304-1.673-3.588-1.015.988v.66a1.966 1.966 0 0 1-3.932 0V80.72l-5.225-3.056-5.225 3.057v36.304c0 .787-.462 1.465-1.13 1.78l-6.06 3.547v11.353a1.99 1.99 0 0 1-1.137 1.78zm-9.02.74l6.214-3.638V121.23h.008c0-.673.347-1.327.97-1.69l6.212-3.638v-36.3h.01c0-.673.345-1.327.968-1.69l7.163-4.193a1.962 1.962 0 0 1 2.01-.018l7.04 4.12a1.967 1.967 0 0 1 1.125 1.778v44.703l6.132 3.587a1.963 1.963 0 0 1 .46 3.146l-2.592 2.525 2.98 6.398c.372.736.252 1.66-.366 2.276l-.005-.007c-.114.117-.246.22-.394.305l-7.19 4.208-7.19 4.208-7.186 4.204-.007.005-7.19 4.207-7.19 4.21-5.795 3.39.562 1.585h-.005a1.96 1.96 0 0 1-.857 2.342l-1.542.902-10 5.853-2.715 1.587a1.965 1.965 0 0 1-1.815.22l-8.6-3.284v5.562h-.007a1.96 1.96 0 0 1-.968 1.69l-6.868 4.02-3.99 5.01-.003-.002a1.96 1.96 0 0 1-3.37-1.905l.026-.068c-.577-.122-1.05-.395-1.304-.81-.614-.99-.46-2.103 1-3.117l-.096-.057c-.33-.186-.66-.372-1.162-.665l-6.075-3.557-.376.434a1.96 1.96 0 0 1-2.5.522l-10.27-5.68v-.002a1.955 1.955 0 0 1-1.015-1.725l.075-13.074a2.164 2.164 0 0 1-.004-.16V140.04h.003c0-.335.083-.673.264-.983a1.94 1.94 0 0 1 .872-.795l6.057-3.545v-9.887a1.955 1.955 0 0 1 .968-1.727l7.165-4.193a1.96 1.96 0 0 1 2.01-.016l7.038 4.12a1.964 1.964 0 0 1 1.128 1.78v12.95l4.208-2.46a1.955 1.955 0 0 1 2.01-.016l7.172 4.197.007.005.01.007c.578.34.967.97.967 1.69v8.966l8.398-1.694-2.122-4.36a1.966 1.966 0 0 1 2.89-2.504l3.37 2.416 6.085-3.562 7.19-4.206z"/><path fill="#FFF" d="M156.36 133.7l-7.192 4.21-7.19 4.207L124 152.637l6.894-1.444-.47-4.228-10.02 3.716v-9.517l-7.19-4.21-7.19 4.21V124.79l-7.19-4.208-7.192 4.208v33.578l8.508 8.227-22.89 13.395-7.19 4.207-2.874 1.682c-2.892 1.737-2.054 4.136.057 5.084l2.816 1.648 7.19 4.207 7.19 4.21c1.133.66 2.295 1.277 3.4 1.986 2.535 1.63 5.652 1.217 8.443-.506l2.538-1.483 7.19-4.207 7.19-4.207 7.19-4.208v-8.417l7.194 4.208 2.837-1.66 10-5.854 1.545-.903 7.19-4.21 7.192-4.207 7.19-4.208 7.19-4.206 7.19-4.21 7.192-4.207 5.486-3.21c2.075-1.164 1.03-1.568.044-2.28l-9.126-7.064 3.596-8.35-7.19-4.207V79.6l-7.192-4.207-7.19 4.208v37.423l-7.19 4.208v12.47h.002zm21.57-8.278v12.695-12.696zm-71.906 15.742v13.578-13.578zm7.19 9.368v-5.16l-7.19-4.208 7.19 9.368z"/><path fill="#AAACAF" d="M156.47 133.934l-7.173 4.196-7.19 4.206-11.21 6.56.25 2.27c.016.13-.07.25-.2.278l-6.893 1.443a.255.255 0 0 1-.182-.47l6.48-3.794-.144-1.304-9.716 3.6a.253.253 0 0 1-.342-.257v-9.353l-6.938-4.06-6.686 3.914 6.795 3.978a.25.25 0 0 1 .148.23v5.16a.256.256 0 0 1-.512 0v-5.017l-6.678-3.91v13.135a.256.256 0 0 1-.51 0v-29.805l-6.937-4.06-6.936 4.06v33.326l8.43 8.15a.254.254 0 0 1-.058.41L77.39 180.21l-7.193 4.208-2.872 1.68c-.82.494-1.317 1.035-1.56 1.572a1.884 1.884 0 0 0-.17.943c.023.31.126.61.292.887.305.506.82.94 1.47 1.232l.038.02 2.8 1.64 7.193 4.21 7.19 4.206c.363.213.75.432 1.134.65.768.435 1.537.868 2.274 1.344 1.177.758 2.485 1.055 3.827.976 1.45-.087 2.94-.614 4.347-1.482h.006l2.537-1.487 7.192-4.21 7.19-4.207 7.064-4.136v-8.27a.256.256 0 0 1 .403-.207l7.043 4.122 2.708-1.586 10.003-5.853 1.543-.902 7.19-4.206 7.19-4.208 7.19-4.207 7.172-4.198c.013-.007.025-.015.04-.02l7.17-4.197 7.19-4.208 5.488-3.212h.004v-.003c.95-.53 1.156-.825 1.037-1.04-.102-.18-.382-.37-.695-.585a20.462 20.462 0 0 1-.32-.226l-.006-.006-9.128-7.063a.254.254 0 0 1-.08-.3l3.508-8.14-6.612-3.87v12.25a.255.255 0 0 1-.256.256.255.255 0 0 1-.257-.256V79.746l-6.935-4.06-6.936 4.06v37.275c0 .103-.06.19-.147.23l-7.044 4.124V133.7a.244.244 0 0 1-.14.234zm-7.432 3.754l7.064-4.133V121.23c0-.088.046-.174.127-.22l7.062-4.135V79.6a.26.26 0 0 1 .125-.22l7.188-4.205a.252.252 0 0 1 .262-.002l7.172 4.196c.086.04.145.127.145.23v45.674l7.045 4.124c.125.058.18.204.125.33l-3.518 8.165 8.97 6.943c.09.063.198.14.305.21.366.252.693.475.852.757.275.493.06 1.013-1.23 1.737l-5.483 3.208-7.19 4.208-7.185 4.205-.006.006-7.19 4.207-7.19 4.21-7.193 4.205-7.193 4.21-1.54.9-10.003 5.855-2.832 1.656a.256.256 0 0 1-.263.004l-6.806-3.984v7.974a.257.257 0 0 1-.127.22l-7.19 4.207-7.192 4.21-7.19 4.208-2.534 1.483c-1.477.91-3.048 1.464-4.582 1.556-1.447.088-2.86-.234-4.134-1.055-.736-.47-1.494-.9-2.25-1.33-.374-.212-.75-.424-1.14-.652l-7.192-4.207-7.19-4.21-2.8-1.636c-.738-.334-1.333-.837-1.69-1.432a2.562 2.562 0 0 1-.366-1.105 2.44 2.44 0 0 1 .215-1.196c.283-.63.85-1.25 1.765-1.8h.002l2.873-1.682 7.19-4.21 22.6-13.223-8.266-7.992a.256.256 0 0 1-.076-.186V124.79c0-.088.045-.173.125-.22l7.186-4.207a.253.253 0 0 1 .263-.002l7.17 4.198c.085.04.145.13.145.23v15.93l6.802-3.98a.252.252 0 0 1 .262-.004l7.19 4.206a.25.25 0 0 1 .125.22v9.15l9.68-3.586a.255.255 0 0 1 .342.21l.154 1.405 11.015-6.446 7.194-4.207zm-18.622 11.492l-4.935 2.888 5.137-1.076-.2-1.812z"/><path fill="#01C0E4" d="M151.75 63.84c1.084 0 1.56 1.29 1.063 2.88s-1.777 2.88-2.862 2.88-1.56-1.288-1.063-2.88c.497-1.59 1.778-2.88 2.864-2.88z"/><path fill="#98CD00" d="M158.164 60.12c1.084 0 1.562 1.29 1.064 2.88-.496 1.59-1.777 2.88-2.86 2.88-1.087 0-1.563-1.292-1.067-2.88.498-1.592 1.78-2.88 2.865-2.88z"/><path fill="#01C0E4" d="M136.727 81.99a.26.26 0 0 1-.35-.094.257.257 0 0 1 .096-.35l70.953-40.544a.256.256 0 1 1 .255.443L136.73 81.99zm89.91 6.152c.12.07.16.228.09.35a.253.253 0 0 1-.348.09l-41.92-24.515a.253.253 0 0 1-.093-.348.256.256 0 0 1 .35-.094l41.918 24.515z"/><path fill="#01C0E4" d="M224.51 94.76a2.86 2.86 0 0 1-.865-.128c-.694-.216-1.24-.696-1.608-1.372-.358-.655-.55-1.492-.55-2.447 0-.824.143-1.74.442-2.702.555-1.782 1.554-3.4 2.717-4.57 1.183-1.19 2.545-1.924 3.804-1.924.31 0 .597.043.865.127.695.216 1.24.696 1.607 1.372.358.655.55 1.492.55 2.447 0 .826-.143 1.74-.442 2.704-.555 1.784-1.554 3.4-2.717 4.57-1.184 1.188-2.545 1.926-3.804 1.926zm-.714-.615c.218.067.455.104.713.104 1.116 0 2.35-.68 3.44-1.777 1.107-1.115 2.06-2.657 2.59-4.363.285-.91.42-1.773.42-2.55 0-.87-.17-1.625-.485-2.203-.305-.558-.75-.953-1.313-1.13a2.413 2.413 0 0 0-.713-.102c-1.12 0-2.354.677-3.443 1.774-1.107 1.113-2.06 2.655-2.59 4.36-.285.91-.42 1.776-.42 2.55 0 .873.17 1.626.486 2.204.304.558.747.954 1.312 1.13z"/><path fill="#01C0E4" d="M225.87 90.14c-.736 0-1.06-.875-.72-1.954.334-1.08 1.203-1.953 1.937-1.953.736 0 1.06.875.723 1.953-.335 1.08-1.205 1.954-1.94 1.954zm-40.886-28.365c.735 0 1.06.875.723 1.954-.337 1.076-1.206 1.95-1.94 1.95s-1.06-.873-.724-1.952c.338-1.08 1.207-1.955 1.94-1.955z"/><path fill="#AAACAF" d="M40.065 188.6a.394.394 0 0 1-.536-.143.394.394 0 0 1 .143-.536l123.68-71.237a.39.39 0 1 1 .39.68l-123.68 71.24z"/><path fill="#DDDEDF" d="M85.485 200.885a.395.395 0 0 1-.535-.145.395.395 0 0 1 .146-.536l29.955-17.295 5.05-6.25a.393.393 0 0 1 .278-.146l6.947-.692 58.44-33.74a.393.393 0 0 1 .393.68l-58.513 33.782a.407.407 0 0 1-.16.05l-6.876.688-4.99 6.177a.39.39 0 0 1-.11.092l-30.023 17.332zm-14.735-8.678a.393.393 0 0 1-.39-.68l100.028-57.75a.392.392 0 0 1 .535.143.393.393 0 0 1-.146.535L70.75 192.207zm7.51 4.376a.39.39 0 1 1-.392-.68l78.947-45.58a.394.394 0 0 1 .536.144.394.394 0 0 1-.142.536l-78.947 45.58z"/><path fill="#DEDFE1" d="M120.355 142.945l17.036 9.902a.392.392 0 0 1 0 .68l-17.04 9.903a.394.394 0 0 1-.395-.002l-17.037-9.9a.393.393 0 0 1 .002-.683l17.038-9.902a.4.4 0 0 1 .397.002zm16.06 10.243l-16.26-9.45-16.26 9.45 16.26 9.45 16.26-9.45z"/><path fill="#DEDFE1" d="M103.313 152.85l17.04 9.9a.393.393 0 0 1-.003.682l-17.04 9.903a.39.39 0 0 1-.397-.004l-17.038-9.9a.39.39 0 0 1-.142-.534.4.4 0 0 1 .144-.145l17.04-9.9a.383.383 0 0 1 .396.002zm16.06 10.24l-16.26-9.45-16.258 9.45 16.26 9.45 16.26-9.45z"/><path fill="#AAACAF" d="M82.15 117.118c.735 0 1.058.875.722 1.954-.336 1.08-1.206 1.952-1.94 1.952s-1.06-.874-.723-1.952c.333-1.08 1.202-1.954 1.94-1.954z"/><path fill="#A7A9AC" d="M163.55 129.947l-6.416 3.753 6.416 3.755 6.414-3.755-6.414-3.753zm-7.39 3.415l7.186-4.204a.39.39 0 0 1 .402-.004l7.19 4.208a.39.39 0 0 1 0 .675l-7.184 4.206a.393.393 0 0 1-.404.003l-7.19-4.207a.393.393 0 0 1 0-.678z"/><path fill="#A7A9AC" d="M178.13 138.246l-7.19 4.21a.396.396 0 0 1-.402-.004l-7.188-4.207a.394.394 0 0 1 0-.675l7.192-4.208a.398.398 0 0 1 .403.002l7.184 4.207a.39.39 0 0 1 0 .677zm-7.39 3.417l6.415-3.754-6.415-3.757-6.415 3.755 6.415 3.753zm-64.915 21.157l7.19-4.208a.393.393 0 0 1 .404.003l7.182 4.205a.39.39 0 0 1 0 .676l-7.19 4.208a.392.392 0 0 1-.402-.003l-7.185-4.203a.392.392 0 0 1 0-.677zm7.39-3.416l-6.417 3.752 6.416 3.756 6.416-3.756-6.416-3.752z"/><path fill="#A7A9AC" d="M120.404 171.118l6.416-3.753-6.416-3.753-6.413 3.753 6.415 3.753zm7.39-3.415l-7.184 4.206a.393.393 0 0 1-.403 0l-7.192-4.206a.393.393 0 0 1 0-.678l7.185-4.205a.394.394 0 0 1 .402-.002l7.193 4.207a.39.39 0 0 1 0 .676z"/><path fill="#A7A9AC" d="M120.404 155.194l-6.413 3.755 6.415 3.752 6.416-3.754-6.415-3.756zm-7.388 3.418l7.184-4.206a.39.39 0 0 1 .403-.003l7.193 4.207a.38.38 0 0 1 .138.14.39.39 0 0 1-.138.537l-7.185 4.204a.39.39 0 0 1-.4.006l-7.193-4.208a.39.39 0 0 1 0-.675z"/><path fill="#A7A9AC" d="M134.985 163.495l-7.19 4.208a.396.396 0 0 1-.403-.004l-7.185-4.207a.39.39 0 0 1 0-.677l7.19-4.207a.39.39 0 0 1 .402.002l7.185 4.205a.393.393 0 0 1 0 .677zm-7.39 3.417l6.417-3.756-6.416-3.752-6.415 3.752 6.417 3.756z"/><path fill="#A7A9AC" d="M120.207 154.404l7.19-4.208a.39.39 0 0 1 .4.003l7.188 4.203c.187.11.25.35.14.537a.4.4 0 0 1-.14.14l-7.19 4.208a.396.396 0 0 1-.403-.003l-7.185-4.205a.393.393 0 0 1 0-.676zm7.39-3.417l-6.416 3.755 6.417 3.753 6.416-3.753-6.416-3.755zm-21.573 12.625l-6.415 3.752 6.413 3.754 6.415-3.754-6.416-3.752zm-7.39 3.415l7.186-4.206a.394.394 0 0 1 .4 0l7.193 4.207a.392.392 0 0 1 0 .677l-7.185 4.205a.396.396 0 0 1-.403.003l-7.19-4.208a.39.39 0 0 1 0-.677z"/><path fill="#A7A9AC" d="M120.602 171.912l-7.19 4.206a.392.392 0 0 1-.402-.003l-7.186-4.205a.39.39 0 0 1-.138-.536.386.386 0 0 1 .138-.14l7.19-4.208a.4.4 0 0 1 .404.003l7.184 4.203a.393.393 0 0 1 0 .678zm-7.388 3.416l6.416-3.754-6.416-3.755-6.416 3.753 6.416 3.754z"/><path fill="#01C0E4" d="M120.404 171.574l-7.19 4.206 7.19 4.21 7.192 4.207v-8.417z"/><path fill="#F4F5F5" d="M91.642 179.66l7.906 4.848 8.123-20.47-16.027-9.01v-10.78l-7.19-4.208v35.413z"/><path fill="#AAACAF" d="M91.776 179.445l7.647 4.687 7.93-19.98-15.835-8.9a.254.254 0 0 1-.13-.225v-10.633l-6.68-3.91v34.824l7.062 4.135.006.002zm7.64 5.28l-7.905-4.846-7.166-4.196a.256.256 0 0 1-.146-.23V140.04a.255.255 0 0 1 .384-.22l7.17 4.197c.088.04.148.13.148.23v10.63l15.897 8.94c.11.06.16.195.112.316l-8.117 20.454a.254.254 0 0 1-.374.14z"/><path fill="#FFF" d="M91.642 124.79l7.19-4.207 7.192 4.207-7.19 4.21z"/><path fill="#A7A9AC" d="M91.516 124.57l7.188-4.208a.256.256 0 0 1 .262.002l7.187 4.207a.255.255 0 0 1 .09.35.257.257 0 0 1-.094.094l-7.19 4.206a.256.256 0 0 1-.262-.004l-7.187-4.206a.256.256 0 0 1 .004-.44zm7.317-3.693l-6.687 3.913 6.687 3.914 6.687-3.914-6.687-3.913z"/><path fill="#FFF" d="M98.833 129l7.19-4.21v16.374l5.32 3.72 1.87 30.896-7.19 4.21-2.486-6.99-11.895 6.66 22.16-11.186-22.16 11.187v-35.405l7.19-4.207z"/><path fill="#AAACAF" d="M98.704 128.778l7.192-4.208a.252.252 0 0 1 .347.09c.024.04.036.085.035.13h.002v16.24l5.208 3.644a.255.255 0 0 1 .11.192l1.435 23.707.653-.33.23.455-.85.43.403 6.637a.254.254 0 0 1-.14.24l-7.18 4.202a.258.258 0 0 1-.35-.09.25.25 0 0 1-.02-.045l-2.193-6.16-11.822 5.97a.255.255 0 0 1-.38-.222v-35.407c0-.1.06-.19.146-.23l7.045-4.123v-10.902a.262.262 0 0 1 .128-.22zm7.065-3.542l-6.683 3.91v10.9a.258.258 0 0 1-.125.22l-7.064 4.136v34.824l11.51-6.445h.002a.213.213 0 0 1 .04-.02.254.254 0 0 1 .326.158l.1.28 8.66-4.372-1.44-23.804-5.2-3.636a.253.253 0 0 1-.127-.222v-15.927zm7.18 50.404l-.38-6.26-8.52 4.303 2.11 5.932 6.79-3.975zm-9.534-2.21l-.02-.06-1.253.702 1.273-.64z"/><path fill="#F4F5F5" d="M98.833 140.047V129l-7.19-4.21v11.05z"/><path fill="#AAACAF" d="M98.578 139.604v-10.46l-6.68-3.908v10.457l6.68 3.91zm.51-10.605v11.047a.254.254 0 0 1-.384.22l-7.19-4.21a.252.252 0 0 1-.126-.218v-11.05c0-.043.01-.087.035-.127a.252.252 0 0 1 .347-.09l7.193 4.207a.25.25 0 0 1 .124.22z"/><path fill="#A7A9AC" d="M106.024 179.536l6.415-3.754-6.417-3.755-6.415 3.755 6.414 3.754zm7.388-3.417l-7.185 4.204a.393.393 0 0 1-.403.003l-7.19-4.207a.393.393 0 0 1 0-.678l7.185-4.203a.39.39 0 0 1 .4-.006l7.19 4.208a.39.39 0 0 1 0 .676zm7.19 12.624l-7.19 4.207a.39.39 0 0 1-.402-.002l-7.186-4.205a.39.39 0 0 1-.138-.536.39.39 0 0 1 .138-.14l7.19-4.207a.396.396 0 0 1 .404 0l7.184 4.206a.392.392 0 0 1 0 .678zm-7.388 3.416l6.416-3.755-6.416-3.754-6.416 3.756 6.416 3.755z"/><path fill="#A7A9AC" d="M106.024 180.443l-6.415 3.754 6.413 3.754 6.415-3.752-6.416-3.754zm-7.39 3.416l7.186-4.206a.39.39 0 0 1 .4-.005l7.193 4.21a.39.39 0 0 1 0 .674l-7.185 4.205a.396.396 0 0 1-.403.003l-7.19-4.21a.394.394 0 0 1 0-.676z"/><path fill="#FFF" d="M163.55 79.6l7.19-4.206 7.19 4.207-7.19 4.21z"/><path fill="#A7A9AC" d="M163.425 79.38l7.188-4.207a.256.256 0 0 1 .263.002l7.186 4.206c.12.07.163.23.092.35a.254.254 0 0 1-.095.093l-7.19 4.207a.258.258 0 0 1-.263-.003l-7.188-4.206a.254.254 0 0 1 .004-.44zm7.315-3.692l-6.687 3.913 6.687 3.915 6.688-3.913-6.688-3.912z"/><path fill="#FFF" d="M156.36 121.23l7.19-4.208 7.19 4.208-7.19 4.208z"/><path fill="#A7A9AC" d="M156.233 121.01l7.187-4.207a.257.257 0 0 1 .264.002l7.187 4.206a.255.255 0 0 1 0 .443l-7.19 4.207a.252.252 0 0 1-.26-.004l-7.188-4.205a.257.257 0 0 1 .003-.44zm7.317-3.693l-6.687 3.913 6.687 3.912 6.685-3.912-6.685-3.913z"/><path fill="#FFF" d="M170.74 83.81l7.19-4.21v58.396l-14.38 8.415v-20.97l7.19-4.208z"/><path fill="#AAACAF" d="M170.63 83.578l7.173-4.197a.255.255 0 0 1 .383.22v58.395c0 .1-.058.19-.145.23l-14.36 8.404a.255.255 0 0 1-.384-.22v-20.974c0-.102.06-.19.146-.23l7.046-4.122V83.81a.256.256 0 0 1 .145-.232zm7.046-3.532l-6.68 3.91v37.275a.26.26 0 0 1-.126.22l-7.064 4.136v20.383l13.87-8.116V80.046z"/><path fill="#F4F5F5" d="M170.74 121.23V83.81l-7.19-4.21v37.422z"/><path fill="#AAACAF" d="M170.484 120.786v-36.83l-6.68-3.91v36.83l6.68 3.91zm.513-36.977v37.42h-.002a.255.255 0 0 1-.383.22l-7.17-4.2a.257.257 0 0 1-.145-.23V79.6c0-.044.012-.09.034-.13.07-.12.23-.16.35-.09l7.17 4.197c.087.04.15.127.15.23z"/><path fill="#F4F5F5" d="M163.55 146.324v-20.886l-7.19-4.208v20.888z"/><path fill="#AAACAF" d="M163.296 145.882v-20.298l-6.68-3.908v20.297l6.68 3.91zm.51-20.444v20.886h-.002a.26.26 0 0 1-.033.13.257.257 0 0 1-.35.09l-7.17-4.198a.25.25 0 0 1-.145-.23V121.23a.27.27 0 0 1 .035-.13.257.257 0 0 1 .35-.09l7.17 4.196a.26.26 0 0 1 .145.232z"/><path fill="#FFF" d="M106.024 141.164l7.19-4.21 7.19 4.21-7.19 4.21z"/><path fill="#D1D3D4" d="M120.404 141.164l-7.19 4.21v33.662l7.19-4.21z"/><path fill="#E6E7E8" d="M113.214 179.036v-33.663l-7.19-4.21v33.664z"/><path fill="#C9EBFC" d="M134.786 134l7.192-4.206-7.192-4.21-7.19-4.207-7.192 4.208 7.192 4.21z"/><path fill="#01C0E4" d="M120.404 171.574v-45.99L134.786 134l3.93 19.324-3.257 22.105-7.296 3.23z"/><path fill="#C9EBFC" d="M134.786 154.742l-7.19 4.207-7.192-4.21 7.192-4.21z"/><path fill="#7BB03D" d="M120.404 154.742l-11.264 1.822 4.074 27.463v8.586l7.19-4.208z"/><path fill="#FFFAC7" d="M106.024 154.742l7.19-4.21 7.19 4.21-7.19 4.207z"/><path fill="#DAE94E" d="M113.214 192.613V158.95l-7.19-4.208v33.663z"/><path fill="#D1D3D4" d="M113.214 184.197l-13.4.574 6.21 12.05 7.19-4.206z"/><path fill="#FFF" d="M106.024 188.405l7.19-4.208-7.19-4.207-7.19 4.207z"/><path fill="#E6E7E8" d="M98.833 192.613v-8.416l7.19 4.208v8.416z"/><path fill="#ED135D" d="M106.024 179.99v-8.416H91.642l7.19 12.623z"/><path fill="#7BB03D" d="M163.335 146.625l-12.67 1 5.48 11.624 7.19-4.21z"/><path fill="#FFFAC7" d="M156.146 150.833l7.19-4.208-7.19-4.21-7.19 4.21z"/><path fill="#DAE94E" d="M148.955 155.04v-8.415l7.19 4.208v8.416z"/><path fill="#008CB2" d="M192.312 146.324v-20.902l-11.653 1.452 4.46 23.658z"/><path fill="#C9EBFC" d="M177.93 125.422l7.192-4.208 7.19 4.208-7.19 4.208z"/><path fill="#01C0E4" d="M185.122 129.63l-7.19-4.208v20.902l7.19 4.208z"/><path fill="#FFF" d="M84.452 140.047l7.19-4.207 7.19 4.207-7.19 4.207z"/><path fill="#AAACAF" d="M84.326 139.825l7.188-4.205a.25.25 0 0 1 .263.002l7.187 4.206a.254.254 0 0 1-.003.44l-7.187 4.207a.257.257 0 0 1-.26-.002l-7.188-4.207a.255.255 0 0 1 .002-.44zm7.316-3.69l-6.686 3.912 6.686 3.913 6.687-3.913-6.69-3.913z"/><path fill="#008CB2" d="M141.978 129.793L134.786 134v20.473l-.132.192-7.058 4.284v25.246l2.838-1.66 10.002-5.85 1.542-.907z"/><path fill="#FAC3C3" d="M91.642 171.574l7.19-4.21 7.192 4.21-7.19 4.206z"/><path fill="#A7A9AC" d="M136.066 191.99l34.114-19.88c.958-.56 2.27-.806 3.617-.753 1.34.056 2.714.406 3.804 1.04l14.508 8.455c.722.42 1.238.918 1.54 1.438.206.354.315.72.325 1.085.01.368-.083.728-.276 1.062-.228.388-.59.74-1.09 1.032l-34.115 19.88c-.958.56-2.27.804-3.615.75-1.34-.053-2.715-.405-3.805-1.04l-14.507-8.454c-.72-.42-1.236-.918-1.538-1.438a2.26 2.26 0 0 1-.326-1.086c-.01-.366.08-.727.276-1.062.226-.386.587-.74 1.09-1.032zm34.37-19.44l-34.113 19.88c-.423.247-.723.537-.904.848a1.49 1.49 0 0 0-.21.793c.007.278.093.56.256.846.26.443.714.878 1.354 1.25l14.508 8.454c1.017.592 2.308.92 3.567.973 1.253.05 2.468-.174 3.343-.683l34.113-19.882c.424-.245.725-.536.906-.846a1.5 1.5 0 0 0 .21-.794 1.758 1.758 0 0 0-.258-.842c-.26-.445-.714-.88-1.355-1.252l-14.506-8.454c-1.017-.593-2.308-.923-3.568-.973-1.256-.05-2.47.174-3.343.682z"/><path fill="#F26B7E" d="M98.833 175.78l-7.19-4.206v16.83l7.19 4.21z"/><path fill="#008CB2" d="M91.642 171.574l-13.4.574 6.21 12.05 7.19-4.208z"/><path fill="#C9EBFC" d="M84.452 175.78l7.19-4.206-7.19-4.21-7.192 4.21z"/><path fill="#01C0E4" d="M77.26 179.99v-8.416l7.192 4.206v8.417z"/></svg>