<svg xmlns="http://www.w3.org/2000/svg" width="103" height="48" viewBox="0 0 103 48"><path d="M83.53 14.435l.06 1.88c.72-.365 3.007-2.607 3.368-3.518-1.084-.91-2.166-2.545-3.367-3.09l-.12 1.88c-3.787-.245-4.578.484-7.465 1.514C79.07 8.98 84.87 6.07 91.87 5.34v2c1-.543 2.414-2.14 3.438-2.987C94.83 3.018 93.213 1.988 92.252 1h-.38v1.737c-5 .423-8.35 1.637-11.716 3.395-5.232 2.728-5.56 4.85-7.662 7.154-.422-.607-.705-1.516-1.064-2.242-1.143-2.123-2.576-3.612-4.682-5.067L68.198 4h-5.17l.12 5.49 1.443-1.315c2.407.97 5.23 4.192 5.653 7.647.24 2.062-2.045 8.16-3.13 10.04l-3.187-7.684c-1.504 0-1.143-.175-1.924 1.767-.24.667-.48 1.337-.72 1.946l-1.265 3.097c-.24.423 0 0-.3.483 0 .06-.12.182-.12.182 0-.06-.062-.035-.12.025L56.95 18h-3.304l4.93 13h1.262l3.67-7.82L66.875 31h1.322c.543-2 1.443-3.857 2.164-5.617 2.105-5.213 4.15-11.675 13.17-10.948zM90.1 20.91c-1.628 2.958-.93 6.98 1.05 8.816 2.095 2.01 6.458 2.216 8.96.44-.117-.948-.64-1.437-.873-2.384-1.338.65-2.328 1.035-4.363.562C93.36 27.99 92.602 27 92.37 25h9.08c1.978-7-8.09-10.127-11.35-4.09zm2.445 2.36c.523-3.61 5.937-3.847 6.052.06l-6.052-.06zM30.615 20.452c-1.322-3.096-5.83-2.798-9.077-1.785l.72 2.38c2.404-.418 5.532-1.37 5.832 1.727-4.27-.537-8.177.894-7.876 5.118.3 4.168 5.832 4.584 8.178 2.267 1.02 1.306 1.984 2.198 3.728.65-.18-.893-.542-.893-.78-2.082-.423-2.202.298-5.836-.725-8.276zM23.7 28.49c-.84-.894-.66-4.05 4.33-3.335.66 5.24-3.85 3.87-4.33 3.334zM3.375 21.76c-.3-1.488 1.263-1.488 2.345-1.31.6.12 1.202.418 1.863.774l.902-2.322c-2.104-1.546-8.72-1.727-8.48 2.86.243 3.81 4.69 3.392 5.714 5.178.54.833.422 1.846-.722 2.025-1.502.24-2.585-.237-3.787-.894l-1.2 2.502c2.164.595 3.006 1.37 5.83.832 1.806-.355 3.248-1.55 3.43-3.274.54-5-5.29-3.99-5.895-6.37zM48.655 27.157c-.12-1.375-.24-5.157.12-6.157h3.097v-3h-3v-3.625l-3 1.373V17.9c0 .358-.773.24-1.674.24l-.026 2.388 1.4.18c0 6.932-1.585 12.07 7.014 10.517l.05-2.72c-1.804.477-3.68 1.222-3.98-1.348zM14.8 27.11c-.18-1.367-.3-5.11.12-6.11h2.95v-3h-3v-3.625l-3 1.366v2.143c0 .416-.762.238-1.603.238 0 3.27-.05 2.082 1.395 2.617.48 6.6-1.95 12.01 7.07 10.403l.048-2.7c-1.802.48-3.68 1.228-3.98-1.33zM37.41 19.166c-.24-.062-.24-.062-.24-.425 0-.06-.114-.242-.176-.484l-3.122-.06V31h3c0-6.85-1.084-11.473 4.81-9.896.42-.91 1.05-2 1.11-2.79-1.864-.786-4.178-.422-5.38.852z"/><path d="M84.014 19.166c-.36-.123-.66.12-.717-.91l-3.426-.06V31h3c.42-4.606-.688-12.2 5.265-9.896l1.307-2.608c-1.745-1.15-4.346-.484-5.428.67zM74.39 23l-.058 8h3.066l-.058-8zM75.293 18.497c-.84.423-1.44 2-.12 2.788 1.202.668 2.708-.24 2.226-1.756-.242-.91-1.324-1.335-2.107-1.033z"/></svg>