<?xml version="1.0" encoding="UTF-8"?>
<svg width="80px" height="65px" viewBox="0 0 80 65" version="1.1" xmlns="http://www.w3.org/2000/svg" xmlns:xlink="http://www.w3.org/1999/xlink">
    <!-- Generator: Sketch 50.2 (55047) - http://www.bohemiancoding.com/sketch -->
    <title>icon19</title>
    <desc>Created with Sketch.</desc>
    <defs></defs>
    <g id="Page-1" stroke="none" stroke-width="1" fill="none" fill-rule="evenodd">
        <g id="icon19" fill="#0000FF" fill-rule="nonzero">
            <path d="M29.8,12.5 C27.1,12.5 25,14.7 25,17.3 C25,20 27.2,22.1 29.8,22.1 C32.5,22.1 34.6,19.9 34.6,17.3 C34.6,14.7 32.4,12.5 29.8,12.5 Z M29.8,18.5 C29.2,18.5 28.7,18 28.7,17.4 C28.7,16.8 29.2,16.3 29.8,16.3 C30.4,16.3 30.9,16.8 30.9,17.4 C30.9,18 30.4,18.5 29.8,18.5 Z M40.5,12.5 C43.1,12.5 45.3,14.7 45.3,17.3 C45.3,19.9 43.2,22.1 40.5,22.1 C37.9,22.1 35.7,20 35.7,17.3 C35.7,14.7 37.8,12.5 40.5,12.5 Z M40.5,18.5 C41.1,18.5 41.6,18 41.6,17.4 C41.6,16.8 41.1,16.3 40.5,16.3 C39.9,16.3 39.4,16.8 39.4,17.4 C39.4,18 39.9,18.5 40.5,18.5 Z M51.1,19.2 C50.1,19.2 49.3,18.4 49.3,17.4 C49.3,16.4 50.1,15.6 51.1,15.6 C52.1,15.6 52.9,16.4 52.9,17.4 C52.9,18.4 52.1,19.2 51.1,19.2 Z M40.5,23.2 C43.1,23.2 45.3,25.3 45.3,28 C45.3,30.6 43.2,32.8 40.5,32.8 C37.9,32.8 35.7,30.7 35.7,28 C35.7,25.4 37.8,23.2 40.5,23.2 Z M40.5,29.1 C41.1,29.1 41.6,28.6 41.6,28 C41.6,27.4 41.1,26.9 40.5,26.9 C39.9,26.9 39.4,27.4 39.4,28 C39.4,28.6 39.9,29.1 40.5,29.1 Z M51.2,23.2 C53.8,23.2 56,25.3 56,28 C56,30.6 53.9,32.8 51.2,32.8 C48.6,32.8 46.4,30.7 46.4,28 C46.4,25.4 48.5,23.2 51.2,23.2 Z M51.2,29.1 C51.8,29.1 52.3,28.6 52.3,28 C52.3,27.4 51.8,26.9 51.2,26.9 C50.6,26.9 50.1,27.4 50.1,28 C50.1,28.6 50.6,29.1 51.2,29.1 Z M19.1,33.9 C21.8,33.9 23.9,36 23.9,38.7 C23.9,41.3 21.8,43.5 19.1,43.5 C16.5,43.5 14.3,41.4 14.3,38.7 C14.3,36.1 16.4,33.9 19.1,33.9 Z M19.1,39.8 C19.8,39.8 20.3,39.3 20.2,38.7 C20.2,38.1 19.7,37.6 19.1,37.6 C18.5,37.6 18,38.1 18,38.7 C18,39.3 18.5,39.8 19.1,39.8 Z M29.8,33.9 C32.4,33.9 34.6,36 34.6,38.7 C34.6,41.3 32.5,43.5 29.8,43.5 C27.2,43.5 25,41.4 25,38.7 C25,36.1 27.1,33.9 29.8,33.9 Z M29.8,39.8 C30.4,39.8 30.9,39.3 30.9,38.7 C30.9,38.1 30.4,37.6 29.8,37.6 C29.2,37.6 28.7,38.1 28.7,38.7 C28.7,39.3 29.2,39.8 29.8,39.8 Z M51.2,33.9 C53.8,33.9 56,36 56,38.7 C56,41.3 53.9,43.5 51.2,43.5 C48.6,43.5 46.4,41.4 46.4,38.7 C46.4,36.1 48.5,33.9 51.2,33.9 Z M51.2,39.8 C51.8,39.8 52.3,39.3 52.3,38.7 C52.3,38.1 51.8,37.6 51.2,37.6 C50.6,37.6 50.1,38.1 50.1,38.7 C50.1,39.3 50.6,39.8 51.2,39.8 Z M40.5,44.5 C43.1,44.5 45.3,46.7 45.3,49.3 C45.3,51.9 43.2,54.1 40.5,54.1 C37.9,54.1 35.7,52 35.7,49.3 C35.7,46.7 37.8,44.5 40.5,44.5 Z M40.5,50.5 C41.1,50.5 41.6,50 41.6,49.4 C41.6,48.8 41.1,48.3 40.5,48.3 C39.9,48.3 39.4,48.8 39.4,49.4 C39.4,50 39.9,50.5 40.5,50.5 Z M19,47.3 C20,47.3 20.8,48.1 20.8,49.1 C20.8,50.1 20,50.9 19,50.9 C18,50.9 17.2,50.1 17.2,49.1 C17.2,48.1 18,47.3 19,47.3 Z M30,47.3 C31,47.3 31.8,48.1 31.8,49.1 C31.8,50.1 31,50.9 30,50.9 C29,50.9 28.2,50.1 28.2,49.1 C28.2,48.1 29,47.3 30,47.3 Z M40.3,40.5 C39.3058875,40.5 38.5,39.6941125 38.5,38.7 C38.5,37.7058875 39.3058875,36.9 40.3,36.9 C41.2941125,36.9 42.1,37.7058875 42.1,38.7 C42.1,39.6941125 41.2941125,40.5 40.3,40.5 Z M30,30.2 C29.0058875,30.2 28.2,29.3941125 28.2,28.4 C28.2,27.4058875 29.0058875,26.6 30,26.6 C30.9941125,26.6 31.8,27.4058875 31.8,28.4 C31.8,29.3941125 30.9941125,30.2 30,30.2 Z M19,30.2 C18.0058875,30.2 17.2,29.3941125 17.2,28.4 C17.2,27.4058875 18.0058875,26.6 19,26.6 C19.9941125,26.6 20.8,27.4058875 20.8,28.4 C20.8,29.3941125 19.9941125,30.2 19,30.2 Z M51.3,47.3 C52.3,47.3 53.1,48.1 53.1,49.1 C53.1,50.1 52.3,50.9 51.3,50.9 C50.3,50.9 49.5,50.1 49.5,49.1 C49.5,48.1 50.3,47.3 51.3,47.3 Z M19,19.2 C18.0058875,19.2 17.2,18.3941125 17.2,17.4 C17.2,16.4058875 18.0058875,15.6 19,15.6 C19.9941125,15.6 20.8,16.4058875 20.8,17.4 C20.8,18.3941125 19.9941125,19.2 19,19.2 Z M61.8,33.9 C64.4,33.9 66.6,36 66.6,38.7 C66.6,41.3 64.5,43.5 61.8,43.5 C59.2,43.5 57,41.4 57,38.7 C57,36.1 59.1,33.9 61.8,33.9 Z M61.8,39.8 C62.4,39.8 62.9,39.3 62.9,38.7 C62.9,38.1 62.4,37.6 61.8,37.6 C61.2,37.6 60.7,38.1 60.7,38.7 C60.7,39.3 61.2,39.8 61.8,39.8 Z M61.7,47.3 C62.7,47.3 63.5,48.1 63.5,49.1 C63.5,50.1 62.7,50.9 61.7,50.9 C60.7,50.9 59.9,50.1 59.9,49.1 C59.9,48.1 60.7,47.3 61.7,47.3 Z M61.7,30.2 C60.7058875,30.2 59.9,29.3941125 59.9,28.4 C59.9,27.4058875 60.7058875,26.6 61.7,26.6 C62.6941125,26.6 63.5,27.4058875 63.5,28.4 C63.5,29.3941125 62.6941125,30.2 61.7,30.2 Z M61.7,19.2 C60.7058875,19.2 59.9,18.3941125 59.9,17.4 C59.9,16.4058875 60.7058875,15.6 61.7,15.6 C62.6941125,15.6 63.5,16.4058875 63.5,17.4 C63.5,18.3941125 62.6941125,19.2 61.7,19.2 Z" id="Combined-Shape"></path>
            <path d="M78.2,14 C77.6,11 76.7,8.8 74.2,6.1 C72,3.7 69.7,2.8 66.5,1.9 L66.1,1.8 C57.7,0.8 49,0.2 40.3,0.1 C31.7,0.2 23,0.8 14.5,1.8 L14.2,1.8 C7.8,3.2 3.7,7.5 2.4,14.1 C1.3,20.2 0.7,26.4 0.7,32.6 C0.7,39.1 1.3,45.4 2.4,50.6 C3,53.6 3.9,55.8 6.4,58.5 C8.6,60.9 10.9,61.8 14.1,62.7 L14.5,62.8 C23,63.9 31.7,64.4 40.3,64.5 C48.9,64.4 57.6,63.9 66.1,62.8 L66.4,62.8 C72.8,61.4 76.9,57.2 78.2,50.6 C79.3,44.5 79.9,38.3 79.9,32.1 C79.9,25.5 79.3,19.3 78.2,14 Z M72.4,49.4 C71.6,53.6 69.3,56 65.3,56.9 C57.1,57.9 48.7,58.5 40.4,58.5 C32.1,58.4 23.7,57.9 15.5,56.9 C12.7,56.1 11.8,55.6 10.8,54.5 C9.2,52.8 8.8,51.6 8.3,49.4 C7.3,44.6 6.8,38.7 6.7,32.6 C6.7,26.8 7.2,20.9 8.3,15.2 C9.1,11 11.4,8.6 15.4,7.7 C23.6,6.7 32,6.1 40.3,6.1 C48.6,6.2 57,6.7 65.2,7.7 C68,8.5 68.9,9 69.9,10.1 C71.5,11.8 71.9,13 72.4,15.2 C73.4,20 73.9,25.9 74,32 C73.9,37.9 73.4,43.7 72.4,49.4 Z" id="Shape"></path>
        </g>
    </g>
</svg>