<?xml version="1.0" encoding="utf-8"?>
<!-- Generator: Adobe Illustrator 22.1.0, SVG Export Plug-In . SVG Version: 6.00 Build 0)  -->
<svg version="1.1" id="Layer_1" xmlns="http://www.w3.org/2000/svg" xmlns:xlink="http://www.w3.org/1999/xlink" x="0px" y="0px"
	 viewBox="0 0 84 84" style="enable-background:new 0 0 84 84;" xml:space="preserve">
<style type="text/css">
	.st0{fill:#0000FF;}
</style>
<path class="st0" d="M69.6,44.7c-1.8,0-3.4,0.5-4.7,1.5l-4.7-4.7l4.7-4.7c1.4,0.9,3,1.5,4.7,1.5c4.6,0,8.4-3.8,8.4-8.4
	s-3.8-8.4-8.4-8.4c-4.3,0-7.9,3.3-8.4,7.5H55v-6.2c4.2-0.4,7.5-4,7.5-8.4c0-4.6-3.8-8.4-8.4-8.4s-8.4,3.8-8.4,8.4
	c0,1.8,0.5,3.4,1.5,4.7l-4.7,4.7l-4.7-4.7c0.9-1.4,1.5-3,1.5-4.7c0-4.6-3.8-8.4-8.4-8.4s-8.4,3.8-8.4,8.4c0,4.3,3.3,7.9,7.5,8.4V29
	h-6.2c-0.4-4.2-4-7.5-8.4-7.5c-4.6,0-8.4,3.8-8.4,8.4s3.8,8.4,8.4,8.4c1.8,0,3.4-0.5,4.7-1.5l4.7,4.7l-4.7,4.7
	c-1.4-0.9-3-1.5-4.7-1.5c-4.6,0-8.4,3.8-8.4,8.4s3.8,8.4,8.4,8.4c4.3,0,7.9-3.3,8.4-7.5H30v6.2c-4.2,0.4-7.5,4-7.5,8.4
	c0,4.6,3.8,8.4,8.4,8.4s8.4-3.8,8.4-8.4c0-1.8-0.5-3.4-1.5-4.7l4.7-4.7l4.7,4.7c-0.9,1.4-1.5,3-1.5,4.7c0,4.6,3.8,8.4,8.4,8.4
	s8.4-3.8,8.4-8.4c0-4.3-3.3-7.9-7.5-8.4V54h6.2c0.4,4.2,4,7.5,8.4,7.5c4.6,0,8.4-3.8,8.4-8.4S74.2,44.7,69.6,44.7z M69.6,27.5
	c1.3,0,2.4,1.1,2.4,2.4s-1.1,2.4-2.4,2.4s-2.4-1.1-2.4-2.4S68.3,27.5,69.6,27.5z M61.2,31c0.2,1.7,1,3.3,2.1,4.5l-4.6,4.6L55,36.3
	V31H61.2z M46.8,52h-8.7L32,45.8v-8.7l6.2-6.2h8.7l6.2,6.2v8.7L46.8,52z M53,48.7V52h-3.3L53,48.7z M44.8,54l-2.3,2.3L40.2,54H44.8z
	 M35.3,52H32v-3.3L35.3,52z M30,43.8l-2.3-2.3l2.3-2.3V43.8z M32,34.3V31h3.3L32,34.3z M40.2,29l2.3-2.3l2.3,2.3H40.2z M49.7,31H53
	v3.3L49.7,31z M55,39.2l2.3,2.3L55,43.8V39.2z M54.1,12c1.3,0,2.4,1.1,2.4,2.4s-1.1,2.4-2.4,2.4s-2.4-1.1-2.4-2.4S52.8,12,54.1,12z
	 M48.5,20.7c1.2,1.1,2.8,1.9,4.5,2.1V29h-5.3l-3.8-3.8L48.5,20.7z M28.5,14.4c0-1.3,1.1-2.4,2.4-2.4s2.4,1.1,2.4,2.4
	s-1.1,2.4-2.4,2.4S28.5,15.7,28.5,14.4z M32,22.8c1.7-0.2,3.3-1,4.5-2.1l4.6,4.6L37.3,29H32V22.8z M15.4,32.3
	c-1.3,0-2.4-1.1-2.4-2.4s1.1-2.4,2.4-2.4s2.4,1.1,2.4,2.4S16.7,32.3,15.4,32.3z M21.7,35.5c1.1-1.2,1.9-2.8,2.1-4.5H30v5.3l-3.8,3.8
	L21.7,35.5z M15.4,55.5c-1.3,0-2.4-1.1-2.4-2.4s1.1-2.4,2.4-2.4s2.4,1.1,2.4,2.4S16.7,55.5,15.4,55.5z M23.8,52
	c-0.2-1.7-1-3.3-2.1-4.5l4.6-4.6l3.8,3.8V52H23.8z M30.9,71c-1.3,0-2.4-1.1-2.4-2.4s1.1-2.4,2.4-2.4s2.4,1.1,2.4,2.4
	S32.2,71,30.9,71z M36.5,62.3c-1.2-1.1-2.8-1.9-4.5-2.1V54h5.3l3.8,3.8L36.5,62.3z M56.5,68.6c0,1.3-1.1,2.4-2.4,2.4
	s-2.4-1.1-2.4-2.4s1.1-2.4,2.4-2.4S56.5,67.3,56.5,68.6z M53,60.2c-1.7,0.2-3.3,1-4.5,2.1l-4.6-4.6l3.8-3.8H53V60.2z M55,46.7
	l3.8-3.8l4.6,4.6c-1.1,1.2-1.9,2.8-2.1,4.5H55V46.7z M69.6,55.5c-1.3,0-2.4-1.1-2.4-2.4s1.1-2.4,2.4-2.4s2.4,1.1,2.4,2.4
	S70.9,55.5,69.6,55.5z"/>
</svg>
