<?xml version="1.0" encoding="utf-8"?>
<!-- Generator: Adobe Illustrator 22.1.0, SVG Export Plug-In . SVG Version: 6.00 Build 0)  -->
<svg version="1.1" id="Layer_1" xmlns="http://www.w3.org/2000/svg" xmlns:xlink="http://www.w3.org/1999/xlink" x="0px" y="0px"
	 viewBox="0 0 84 84" style="enable-background:new 0 0 84 84;" xml:space="preserve">
<style type="text/css">
	.st0{fill:#0000FF;}
</style>
<path class="st0" d="M77.7,41.5L60.5,11.7c-0.1-0.3-0.2-0.5-0.5-0.6C59.9,11,59.7,11,59.5,11c0,0,0,0,0,0H24.9
	c-0.4,0-0.7,0.2-0.9,0.5l-17.3,30c0,0,0,0,0,0c0,0.1-0.1,0.1-0.1,0.2c0,0.2,0,0.3,0,0.5c0,0.1,0.1,0.1,0.1,0.2c0,0,0,0,0,0l17.3,30
	c0.2,0.3,0.5,0.5,0.9,0.5h34.6c0,0,0,0,0,0c0,0,0,0,0,0c0.2,0,0.3,0,0.5-0.1c0.2-0.1,0.4-0.4,0.5-0.6l17.2-29.8
	C77.9,42.2,77.9,41.8,77.7,41.5z M30.5,48.8l0.1-13.6l11.6-6.7l11.9,7v13l-11.9,7.1L30.5,48.8z M26,30.2V13.7l14.1,8.3L26,30.2z
	 M24,50.3L9.6,42L24,33.7V50.3z M26,53.8l14.1,8.2L26,70.3V53.8z M58.6,53.4v16.9l-14.5-8.3L58.6,53.4z M60.6,34.1L74,42l-13.5,7.9
	V34.1z M44.1,22.1l14.5-8.3v16.9L44.1,22.1z M42.1,20.9L28.7,13h27.2L42.1,20.9z M24,31.4l-13.7,7.9L24,15.5V31.4z M24,52.6v15.8
	L10.3,44.7L24,52.6z M42.1,63.1L55.8,71H28.7L42.1,63.1z M60.6,52.2l14-8.2l-14,24.2V52.2z M60.6,31.8v-16l14,24.2L60.6,31.8z"/>
</svg>
