<?xml version="1.0" encoding="utf-8"?>
<!-- Generator: Adobe Illustrator 22.1.0, SVG Export Plug-In . SVG Version: 6.00 Build 0)  -->
<svg version="1.1" id="Layer_1" xmlns="http://www.w3.org/2000/svg" xmlns:xlink="http://www.w3.org/1999/xlink" x="0px" y="0px"
	 viewBox="0 0 84 84" style="enable-background:new 0 0 84 84;" xml:space="preserve">
<style type="text/css">
	.st0{fill:#0000FF;}
</style>
<g>
	<path class="st0" d="M40.9,29.2c-7,0-12.7,5.7-12.7,12.7s5.7,12.7,12.7,12.7S53.7,49,53.7,41.9S48,29.2,40.9,29.2z M40.9,48.7
		c-3.7,0-6.7-3-6.7-6.7s3-6.7,6.7-6.7c3.7,0,6.7,3,6.7,6.7S44.7,48.7,40.9,48.7z"/>
	<path class="st0" d="M40.9,20.4C29,20.4,19.4,30,19.4,41.9S29,63.5,40.9,63.5s21.6-9.7,21.6-21.6S52.8,20.4,40.9,20.4z M40.9,57.5
		c-8.6,0-15.6-7-15.6-15.6s7-15.6,15.6-15.6s15.6,7,15.6,15.6S49.5,57.5,40.9,57.5z"/>
	<path class="st0" d="M53.9,75.9c-2.2,0-3.9,1.7-4,3.9c-2.9,0.7-5.9,1-8.9,1C19.5,80.9,2,63.4,2,41.9S19.5,3,40.9,3
		C44,3,47,3.4,49.9,4c0,0,0,0,0,0c0,2.2,1.8,4,4,4s4-1.8,4-4s-1.8-4-4-4c-1.5,0-2.8,0.8-3.5,2.1c-3-0.7-6.2-1.1-9.4-1.1
		C18.4,1,0,19.4,0,41.9s18.4,40.9,40.9,40.9c3.2,0,6.4-0.4,9.4-1.1c0.7,1.3,2,2.2,3.6,2.2c2.2,0,4-1.8,4-4
		C57.9,77.7,56.1,75.9,53.9,75.9z"/>
	<path class="st0" d="M71.9,34.1C71.9,34.1,71.9,34.1,71.9,34.1C68.4,20.2,55.8,10,40.9,10c-17.6,0-32,14.3-32,32s14.3,32,32,32
		c14.8,0,27.3-10.2,30.9-23.9c0,0,0.1,0,0.1,0c4.4,0,8-3.6,8-8S76.3,34.1,71.9,34.1z M40.9,71.9c-16.5,0-30-13.4-30-30
		s13.4-30,30-30c13.9,0,25.6,9.5,29,22.4c-3.4,0.9-5.9,4-5.9,7.7c0,3.7,2.5,6.8,5.9,7.7C66.4,62.5,54.8,71.9,40.9,71.9z M71.9,46
		c-2.2,0-4-1.8-4-4s1.8-4,4-4c2.2,0,4,1.8,4,4S74.1,46,71.9,46z"/>
</g>
</svg>
