<?xml version="1.0" encoding="UTF-8"?>
<svg width="73px" height="73px" viewBox="0 0 73 73" version="1.1" xmlns="http://www.w3.org/2000/svg" xmlns:xlink="http://www.w3.org/1999/xlink">
    <!-- Generator: Sketch 50.2 (55047) - http://www.bohemiancoding.com/sketch -->
    <title>icon15</title>
    <desc>Created with Sketch.</desc>
    <defs></defs>
    <g id="Page-1" stroke="none" stroke-width="1" fill="none" fill-rule="evenodd">
        <g id="icon15" fill="#0000FF" fill-rule="nonzero">
            <path d="M11.3,53 C12.9,53 14.3,54.4 14.3,56 L14.3,70 C14.3,71.7 13,73 11.3,73 C9.6,73 8.3,71.7 8.3,70 L8.3,56 C8.3,54.3 9.6,53 11.3,53 Z M24.3,46.1 C26,46.1 27.3,47.4 27.3,49.1 L27.3,70 C27.3,71.7 26,73 24.3,73 C22.6,73 21.3,71.7 21.3,70 L21.3,49.1 C21.3,47.4 22.6,46.1 24.3,46.1 Z M37.4,53 C39.1,53 40.4,54.4 40.4,56 L40.4,70 C40.4,71.7 39.1,73 37.4,73 C35.7,73 34.4,71.7 34.4,70 L34.4,56 C34.4,54.3 35.7,53 37.4,53 Z M50.5,46.1 C52.2,46.1 53.5,47.4 53.5,49.1 L53.5,70 C53.5,71.7 52.2,73 50.5,73 C48.8,73 47.5,71.7 47.5,70 L47.5,49.1 C47.5,47.4 48.8,46.1 50.5,46.1 Z M63.6,28.5 C65.2,28.5 66.6,29.8 66.6,31.5 L66.6,70 C66.6,71.7 65.3,73 63.6,73 C61.9,73 60.6,71.7 60.6,70 L60.6,31.5 C60.6,29.8 61.9,28.5 63.6,28.5 Z" id="Combined-Shape"></path>
            <path d="M64.1,0.1 C59.2,0.1 55.2,4.1 55.2,9 C55.2,11.1 55.9,13 57.1,14.5 L41.4,30.1 C40.6,29.6 39.7,29.3 38.8,29.3 C37.8,29.3 36.9,29.6 36.2,30.1 L30.5,24.4 C31,23.6 31.3,22.7 31.3,21.8 C31.3,19.1 29.1,16.9 26.4,16.9 C23.7,16.9 21.5,19.1 21.5,21.8 C21.5,22.8 21.8,23.7 22.3,24.4 L15,31.8 C13.4,30.4 11.3,29.5 9,29.5 C4.1,29.5 0.1,33.5 0.1,38.4 C0.1,43.3 4.1,47.3 9,47.3 C13.9,47.3 17.9,43.3 17.9,38.4 C17.9,36.5 17.3,34.7 16.3,33.3 L23.7,25.9 C24.5,26.4 25.4,26.7 26.3,26.7 C27.3,26.7 28.2,26.4 28.9,25.9 L34.6,31.6 C34.1,32.4 33.8,33.3 33.8,34.2 C33.8,36.9 36,39.1 38.7,39.1 C41.4,39.1 43.6,36.9 43.6,34.2 C43.6,33.2 43.3,32.3 42.8,31.6 L58.4,16 C59.9,17.2 61.9,18 64,18 C69,18 73,14 73,9 C73,4 69,0.1 64.1,0.1 Z M9,41.3 C7.4,41.3 6.1,40 6.1,38.4 C6.1,36.8 7.4,35.5 9,35.5 C10.6,35.5 11.9,36.8 11.9,38.4 C11.9,40 10.6,41.3 9,41.3 Z M64.1,12 C62.5,12 61.2,10.7 61.2,9.1 C61.2,7.5 62.5,6.2 64.1,6.2 C65.7,6.2 67,7.4 67,9 C67,10.6 65.7,12 64.1,12 Z" id="Shape"></path>
        </g>
    </g>
</svg>