<?xml version="1.0" encoding="utf-8"?>
<!-- Generator: Adobe Illustrator 22.1.0, SVG Export Plug-In . SVG Version: 6.00 Build 0)  -->
<svg version="1.1" id="Layer_1" xmlns="http://www.w3.org/2000/svg" xmlns:xlink="http://www.w3.org/1999/xlink" x="0px" y="0px"
	 viewBox="0 0 84 84" style="enable-background:new 0 0 84 84;" xml:space="preserve">
<style type="text/css">
	.st0{fill:#0000FF;}
</style>
<path class="st0" d="M71.3,43h5c0.4,1.7,2,2.9,3.8,2.9c2.2,0,3.9-1.7,3.9-3.9s-1.7-3.9-3.9-3.9c-1.8,0-3.3,1.2-3.8,2.9h-5v-7.8h5
	c0.4,1.7,2,2.9,3.8,2.9c2.2,0,3.9-1.7,3.9-3.9s-1.7-3.9-3.9-3.9c-1.8,0-3.3,1.2-3.8,2.9h-5v-3.9c0-8.1-6.6-14.7-14.7-14.7h-3.9v-5
	c1.7-0.4,2.9-2,2.9-3.8c0-2.2-1.7-3.9-3.9-3.9s-3.9,1.7-3.9,3.9c0,1.8,1.2,3.3,2.9,3.8v5H43v-5c1.7-0.4,2.9-2,2.9-3.8
	C45.9,1.7,44.2,0,42,0s-3.9,1.7-3.9,3.9c0,1.8,1.2,3.3,2.9,3.8v5h-7.8v-5c1.7-0.4,2.9-2,2.9-3.8c0-2.2-1.7-3.9-3.9-3.9
	s-3.9,1.7-3.9,3.9c0,1.8,1.2,3.3,2.9,3.8v5h-3.9c-8.1,0-14.7,6.6-14.7,14.7v3.9h-5c-0.4-1.7-2-2.9-3.8-2.9c-2.2,0-3.9,1.7-3.9,3.9
	s1.7,3.9,3.9,3.9c1.8,0,3.3-1.2,3.8-2.9h5V41h-5c-0.4-1.7-2-2.9-3.8-2.9C1.7,38.1,0,39.8,0,42s1.7,3.9,3.9,3.9
	c1.8,0,3.3-1.2,3.8-2.9h5v7.8h-5c-0.4-1.7-2-2.9-3.8-2.9c-2.2,0-3.9,1.7-3.9,3.9c0,2.2,1.7,3.9,3.9,3.9c1.8,0,3.3-1.2,3.8-2.9h5v3.9
	c0,8.1,6.6,14.7,14.7,14.7h3.9v5c-1.7,0.4-2.9,2-2.9,3.8c0,2.2,1.7,3.9,3.9,3.9s3.9-1.7,3.9-3.9c0-1.8-1.2-3.3-2.9-3.8v-5H41v5
	c-1.7,0.4-2.9,2-2.9,3.8c0,2.2,1.7,3.9,3.9,3.9s3.9-1.7,3.9-3.9c0-1.8-1.2-3.3-2.9-3.8v-5h7.8v5c-1.7,0.4-2.9,2-2.9,3.8
	c0,2.2,1.7,3.9,3.9,3.9s3.9-1.7,3.9-3.9c0-1.8-1.2-3.3-2.9-3.8v-5h3.9c8.1,0,14.7-6.6,14.7-14.7v-3.9h5c0.4,1.7,2,2.9,3.8,2.9
	c2.2,0,3.9-1.7,3.9-3.9c0-2.2-1.7-3.9-3.9-3.9c-1.8,0-3.3,1.2-3.8,2.9h-5V43z M65.4,50.8H55.3c1.4-2.3,2.3-4.9,2.4-7.8h7.8V50.8z
	 M42.7,51.7h-1.4c-5,0-9-4-9-9v-1.4c0-5,4-9,9-9h1.4c5,0,9,4,9,9v1.4C51.7,47.7,47.7,51.7,42.7,51.7z M65.4,41h-7.8
	c-0.1-2.9-0.9-5.5-2.4-7.8h10.1V41z M56.7,18.6c4.8,0,8.8,3.9,8.8,8.8v3.9H53.8c-0.3-0.4-0.7-0.7-1-1V18.6H56.7z M50.8,18.6v10.1
	c-2.3-1.4-4.9-2.3-7.8-2.4v-7.8H50.8z M41,18.6v7.8c-2.9,0.1-5.5,0.9-7.8,2.4V18.6H41z M18.6,27.3c0-4.8,3.9-8.8,8.8-8.8h3.9v11.7
	c-0.4,0.3-0.7,0.7-1,1H18.6V27.3z M18.6,33.2h10.1c-1.4,2.3-2.3,4.9-2.4,7.8h-7.8V33.2z M18.6,43h7.8c0.1,2.9,0.9,5.5,2.4,7.8H18.6
	V43z M27.3,65.4c-4.8,0-8.8-3.9-8.8-8.8v-3.9h11.7c0.3,0.4,0.7,0.7,1,1v11.7H27.3z M33.2,65.4V55.3c2.3,1.4,4.9,2.3,7.8,2.4v7.8
	H33.2z M43,65.4v-7.8c2.9-0.1,5.5-0.9,7.8-2.4v10.1H43z M65.4,56.7c0,4.8-3.9,8.8-8.8,8.8h-3.9V53.8c0.4-0.3,0.7-0.7,1-1h11.7V56.7z
	"/>
</svg>
