<?xml version="1.0" encoding="utf-8"?>
<!-- Generator: Adobe Illustrator 22.1.0, SVG Export Plug-In . SVG Version: 6.00 Build 0)  -->
<svg version="1.1" id="Layer_1" xmlns="http://www.w3.org/2000/svg" xmlns:xlink="http://www.w3.org/1999/xlink" x="0px" y="0px"
	 viewBox="0 0 84 84" style="enable-background:new 0 0 84 84;" xml:space="preserve">
<style type="text/css">
	.st0{fill:#0000FF;}
</style>
<path class="st0" d="M75.8,49.3L56.5,16.4C53.4,11.2,47.9,8,41.7,8c-6.1,0-11.6,3.2-14.8,8.4L7.6,49.3c-3.2,5.4-3.2,11.8-0.1,17.2
	c3.1,5.4,8.6,8.6,14.9,8.6h38.7c6.2,0,11.8-3.2,14.9-8.6C79,61.1,79,54.7,75.8,49.3z M38.7,56.9c-0.3-5.2-3.1-9.8-7.2-12.6l3-5.1
	c2.2,1.1,4.8,1.8,7.4,1.8c2.7,0,5.2-0.7,7.4-1.8l3,5.1c-4.1,2.8-6.9,7.4-7.2,12.6H38.7z M21.5,58.4c0.2,0.3,0.5,0.5,0.9,0.5h10.4
	c-0.5,5.3-5,9.4-10.4,9.4c-5.7,0-10.4-4.7-10.4-10.4c0-5.7,4.7-10.4,10.4-10.4c1.6,0,3.1,0.4,4.4,1l-5.2,8.9
	C21.3,57.7,21.3,58.1,21.5,58.4z M24.1,56.9l4.4-7.4c2.3,1.7,4,4.4,4.3,7.4H24.1z M31.6,24.6c0-5.7,4.7-10.4,10.4-10.4
	s10.4,4.7,10.4,10.4c0,3.5-1.7,6.5-4.3,8.4l-5.2-8.9c-0.4-0.6-1.4-0.6-1.7,0L35.9,33C33.3,31.1,31.6,28,31.6,24.6z M42,26.5l4.4,7.5
	c-1.3,0.6-2.8,1-4.4,1s-3.1-0.4-4.4-1L42,26.5z M55.5,49.5l4.4,7.4h-8.6C51.6,53.9,53.2,51.2,55.5,49.5z M61.6,58.9
	c0.4,0,0.7-0.2,0.9-0.5c0.2-0.3,0.2-0.7,0-1l-5.2-8.9c1.3-0.6,2.8-1,4.4-1c5.7,0,10.4,4.7,10.4,10.4c0,5.7-4.7,10.4-10.4,10.4
	c-5.4,0-9.9-4.1-10.4-9.4H61.6z M61.6,41.5c-2.7,0-5.2,0.7-7.4,1.8l-3-5.1c4.4-3,7.2-8,7.2-13.6c0-0.3,0-0.6,0-0.9l12,20.5
	C67.9,42.5,64.9,41.5,61.6,41.5z M32.8,38.2l-3,5.1c-2.2-1.1-4.8-1.8-7.4-1.8c-3.7,0-7,1.2-9.7,3.2l13.1-22.3
	c-0.1,0.7-0.1,1.4-0.1,2.1C25.6,30.2,28.5,35.2,32.8,38.2z M38.7,58.9h6.5c0.4,6.4,4.4,11.8,10.1,14.2H28.7
	C34.3,70.8,38.4,65.3,38.7,58.9z"/>
</svg>
