<?xml version="1.0" encoding="utf-8"?>
<!-- Generator: Adobe Illustrator 22.1.0, SVG Export Plug-In . SVG Version: 6.00 Build 0)  -->
<svg version="1.1" id="Layer_1" xmlns="http://www.w3.org/2000/svg" xmlns:xlink="http://www.w3.org/1999/xlink" x="0px" y="0px"
	 viewBox="0 0 84 84" style="enable-background:new 0 0 84 84;" xml:space="preserve">
<style type="text/css">
	.st0{fill:#0000FF;}
</style>
<path class="st0" d="M78.9,63.3l-1-5.2c-0.1-0.4-0.4-0.8-0.8-0.9c-0.4-0.1-0.9,0-1.2,0.3l-1.2,1.2l-4.5-4.5l2.7-2.7
	c5.7-5.7,5.7-15,0-20.7l-2.7-2.7l4.2-4.2l1.5,1.5c0.2,0.2,0.5,0.3,0.8,0.3c0.1,0,0.2,0,0.4-0.1c0.4-0.1,0.7-0.5,0.8-0.9l1-5.2
	c0.1-0.4-0.1-0.8-0.3-1.1c-0.3-0.3-0.7-0.4-1.1-0.3l-5.2,1c-0.4,0.1-0.8,0.4-0.9,0.8c-0.1,0.4,0,0.9,0.3,1.2l1.3,1.3L58.4,37.1
	c-1.5-0.8-3.3-0.6-4.6,0.7c-0.6,0.6-1,1.4-1.1,2.2h-4.8c-0.2-0.8-0.5-1.6-1-2.3L62.5,22l1.4,1.4c0.2,0.2,0.5,0.3,0.8,0.3
	c0.1,0,0.2,0,0.4-0.1c0.4-0.1,0.7-0.5,0.8-0.9l1-5.2c0.1-0.4-0.1-0.8-0.3-1.1c-0.3-0.3-0.7-0.4-1.1-0.3l-5.2,1
	c-0.4,0.1-0.8,0.4-0.9,0.8c-0.1,0.4,0,0.9,0.3,1.2l1.4,1.4L45.4,36.3c-0.7-0.5-1.5-0.8-2.4-1v-5.1c0.8-0.1,1.5-0.5,2.2-1.1
	c1.2-1.2,1.4-3,0.8-4.4l14.7-14.7l1.3,1.3c0.2,0.2,0.5,0.3,0.8,0.3c0.1,0,0.2,0,0.4-0.1c0.4-0.1,0.7-0.5,0.8-0.9l1-5.2
	c0.1-0.4-0.1-0.8-0.3-1.1c-0.3-0.3-0.7-0.4-1.1-0.3l-5.2,1c-0.4,0.1-0.8,0.4-0.9,0.8c-0.1,0.4,0,0.9,0.3,1.2l1.5,1.5L55,12.8
	l-2.7-2.7c-5.7-5.7-15-5.7-20.7,0l-2.7,2.7l-4.5-4.5l1.2-1.2c0.2-0.2,0.3-0.5,0.3-0.8c0-0.1,0-0.2-0.1-0.4c-0.1-0.4-0.5-0.7-0.9-0.8
	l-5.2-1c-0.4-0.1-0.8,0.1-1.1,0.3c-0.3,0.3-0.4,0.7-0.3,1.1l1,5.2c0.1,0.4,0.4,0.8,0.8,0.9c0.4,0.1,0.9,0,1.2-0.3l1.6-1.6l15.7,15.7
	c-0.3,1.3,0,2.7,1,3.7c0.4,0.4,0.9,0.7,1.4,0.9v5.3c-0.9,0.1-1.7,0.5-2.5,1L22.8,20.7c-0.1-0.1-0.3-0.2-0.5-0.3l1.2-1.2
	c0.2-0.2,0.3-0.5,0.3-0.8c0-0.1,0-0.2-0.1-0.4c-0.1-0.4-0.5-0.7-0.9-0.8l-5.2-1c-0.4-0.1-0.8,0.1-1.1,0.3c-0.3,0.3-0.4,0.7-0.3,1.1
	l1,5.2c0.1,0.4,0.4,0.8,0.8,0.9c0.4,0.1,0.9,0,1.2-0.3l1.8-1.8c0,0.2,0.1,0.4,0.3,0.5l15.7,15.7c-0.5,0.7-0.8,1.4-1,2.2h-4.9
	c-0.2-0.5-0.5-1.1-0.9-1.5c-1.2-1.2-2.9-1.4-4.3-0.8L10.5,22.2l1-1c0.2-0.2,0.3-0.5,0.3-0.8c0-0.1,0-0.2-0.1-0.4
	c-0.1-0.4-0.5-0.7-0.9-0.8l-5.2-1c-0.4-0.1-0.8,0.1-1.1,0.3c-0.3,0.3-0.4,0.7-0.3,1.1l1,5.2c0.1,0.4,0.4,0.8,0.8,0.9
	c0.4,0.1,0.9,0,1.2-0.3l1.8-1.8l4.5,4.5l-2.7,2.7c-5.7,5.7-5.7,15,0,20.7l2.7,2.7L8.8,59l-1.5-1.5c-0.2-0.2-0.5-0.3-0.8-0.3
	c-0.1,0-0.2,0-0.4,0.1c-0.4,0.1-0.7,0.5-0.8,0.9l-1,5.2c-0.1,0.4,0.1,0.8,0.3,1.1c0.3,0.3,0.7,0.4,1.1,0.3l5.2-1
	c0.4-0.1,0.8-0.4,0.9-0.8c0.1-0.4,0-0.9-0.3-1.2l-1.3-1.3l15.6-15.6c1.4,0.7,3.2,0.4,4.4-0.8c0.6-0.6,0.9-1.3,1.1-2h4.7
	c0.1,0.9,0.4,1.8,1,2.6L20.8,60.9l-1.4-1.4c-0.2-0.2-0.5-0.3-0.8-0.3c-0.1,0-0.2,0-0.4,0.1c-0.4,0.1-0.7,0.5-0.8,0.9l-1,5.2
	c-0.1,0.4,0.1,0.8,0.3,1.1c0.3,0.3,0.7,0.4,1.1,0.3l5.2-1c0.4-0.1,0.8-0.4,0.9-0.8c0.1-0.4,0-0.9-0.3-1.2l-1.4-1.4L38.4,46
	c0.8,0.6,1.6,0.9,2.6,1.1v4.4c-0.8,0.1-1.5,0.5-2.1,1.1c-1.2,1.2-1.5,3.1-0.7,4.6L22.7,72.8l-1.3-1.3c-0.2-0.2-0.5-0.3-0.8-0.3
	c-0.1,0-0.2,0-0.4,0.1c-0.4,0.1-0.7,0.5-0.8,0.9l-1,5.2c-0.1,0.4,0.1,0.8,0.3,1.1c0.3,0.3,0.7,0.4,1.1,0.3l5.2-1
	c0.4-0.1,0.8-0.4,0.9-0.8c0.1-0.4,0-0.9-0.3-1.2l-1.5-1.5l4.7-4.7l2.7,2.7c5.7,5.7,15,5.7,20.7,0l2.7-2.7l4.5,4.5l-1.8,1.8
	c-0.2,0.2-0.3,0.5-0.3,0.8c0,0.1,0,0.2,0.1,0.4c0.1,0.4,0.5,0.7,0.9,0.8l5.2,1c0.4,0.1,0.8-0.1,1.1-0.3c0.3-0.3,0.4-0.7,0.3-1.1
	l-1-5.2c-0.1-0.4-0.4-0.8-0.8-0.9c-0.4-0.1-0.9,0-1.2,0.3l-1,1L45.3,56.9c0.6-1.4,0.3-3.1-0.8-4.3c-0.4-0.4-0.9-0.7-1.5-0.9v-4.6
	c0.9-0.1,1.7-0.5,2.4-1L61,61.7c0.1,0.1,0.3,0.2,0.5,0.3l-1.8,1.8c-0.2,0.2-0.3,0.5-0.3,0.8c0,0.1,0,0.2,0.1,0.4
	c0.1,0.4,0.5,0.7,0.9,0.8l5.2,1c0.4,0.1,0.8-0.1,1.1-0.3c0.3-0.3,0.4-0.7,0.3-1.1l-1-5.2c-0.1-0.4-0.4-0.8-0.8-0.9
	c-0.4-0.1-0.9,0-1.2,0.3l-1.2,1.2c0-0.2-0.1-0.4-0.3-0.5L46.9,44.7c0.6-0.8,0.9-1.7,1-2.7h5c0.2,0.5,0.5,0.9,0.9,1.3
	c1,1,2.4,1.3,3.7,1l15.8,15.8l-1.6,1.6c-0.2,0.2-0.3,0.5-0.3,0.8c0,0.1,0,0.2,0.1,0.4c0.1,0.4,0.5,0.7,0.9,0.8l5.2,1
	c0.4,0.1,0.8-0.1,1.1-0.3C78.8,64.1,79,63.7,78.9,63.3z M35.7,14.2c3.4-3.4,9-3.4,12.4,0l2.7,2.7l-6.2,6.2c-1.5-1.1-3.6-0.9-5,0.4
	L33,17L35.7,14.2z M15,47.4c-3.4-3.4-3.4-9,0-12.4l2.7-2.7l6.7,6.7c-1,1.4-1.1,3.2-0.1,4.6l-6.6,6.6L15,47.4z M48.1,68.1
	c-3.4,3.4-9,3.4-12.4,0L33,65.4l6.6-6.6c1.4,0.9,3.1,0.8,4.4-0.2l6.8,6.8L48.1,68.1z M59.3,43.3c1.3-1.3,1.5-3.3,0.5-4.8l6.3-6.3
	l2.7,2.7c3.4,3.4,3.4,9,0,12.4l-2.7,2.7L59.3,43.3C59.3,43.3,59.3,43.3,59.3,43.3z"/>
</svg>
