<?xml version="1.0" encoding="utf-8"?>
<!-- Generator: Adobe Illustrator 22.1.0, SVG Export Plug-In . SVG Version: 6.00 Build 0)  -->
<svg version="1.1" id="Layer_1" xmlns="http://www.w3.org/2000/svg" xmlns:xlink="http://www.w3.org/1999/xlink" x="0px" y="0px"
	 viewBox="0 0 84 84" style="enable-background:new 0 0 84 84;" xml:space="preserve">
<style type="text/css">
	.st0{fill:#0000FF;}
</style>
<g>
	<path class="st0" d="M42.1,9.5C23.8,9.5,9,24.3,9,42.6s14.8,33.1,33.1,33.1c18.2,0,33.1-14.8,33.1-33.1S60.3,9.5,42.1,9.5z
		 M69.1,42H57.5c-0.3-7.9-6.6-14.3-14.4-14.8V15.5C57.3,16.1,68.8,27.7,69.1,42z M31.6,42.6c0-5.8,4.7-10.4,10.4-10.4
		c5.8,0,10.4,4.7,10.4,10.4S47.8,53,42.1,53C36.3,53,31.6,48.3,31.6,42.6z M15,42.6c0-14.6,11.6-26.5,26-27v11.6
		c-8,0.5-14.4,7.2-14.4,15.4c0,3.8,1.4,7.2,3.6,9.9L22,60.7C17.6,55.9,15,49.5,15,42.6z M42.1,69.6c-7.2,0-13.8-2.9-18.7-7.5
		l8.2-8.2C34.3,56.4,38,58,42.1,58c8,0,14.7-6.2,15.4-14.1h11.6C68.3,58.2,56.5,69.6,42.1,69.6z"/>
	<path class="st0" d="M42.1,1.6c-22.6,0-41,18.4-41,41s18.4,41,41,41c0.6,0,1-0.4,1-1s-0.4-1-1-1c-21.5,0-39-17.5-39-39
		s17.5-39,39-39c21.5,0,39,17.5,39,39c0,0.6,0.4,1,1,1s1-0.4,1-1C83,20,64.6,1.6,42.1,1.6z"/>
</g>
</svg>
