<?xml version="1.0" encoding="utf-8"?>
<!-- Generator: Adobe Illustrator 22.1.0, SVG Export Plug-In . SVG Version: 6.00 Build 0)  -->
<svg version="1.1" id="Layer_1" xmlns="http://www.w3.org/2000/svg" xmlns:xlink="http://www.w3.org/1999/xlink" x="0px" y="0px"
	 viewBox="0 0 84 84" style="enable-background:new 0 0 84 84;" xml:space="preserve">
<style type="text/css">
	.st0{fill:#0000FF;}
</style>
<path class="st0" d="M72.5,32.1c-1,0-2,0.2-3,0.5l-12-20.9c-0.1-0.3-0.2-0.5-0.5-0.6C56.9,11,56.7,11,56.5,11c0,0,0,0,0,0H31.9
	c-0.8-4.5-4.6-7.9-9.3-7.9c-5.2,0-9.5,4.2-9.5,9.5c0,2.8,1.3,5.4,3.2,7.1L3.7,41.5c0,0,0,0.1,0,0.1c0,0.1-0.1,0.1-0.1,0.2
	c0,0.1,0,0.1,0,0.2c0,0,0,0,0,0c0,0,0,0,0,0c0,0.1,0,0.1,0,0.2c0,0.1,0,0.1,0.1,0.2c0,0,0,0.1,0,0.1l12.7,21.9
	c-2,1.7-3.3,4.3-3.3,7.2c0,5.2,4.2,9.5,9.5,9.5c4.7,0,8.7-3.5,9.3-8h24.6c0,0,0,0,0,0c0,0,0,0,0,0c0.2,0,0.3,0,0.5-0.1
	c0.2-0.1,0.4-0.4,0.5-0.6L70,50.7c0.8,0.2,1.7,0.4,2.6,0.4c5.2,0,9.5-4.2,9.5-9.5S77.8,32.1,72.5,32.1z M23,62.1v-8.4L37.3,62
	l-7,4.1C28.6,63.8,26,62.3,23,62.1z M23,22c3-0.1,5.7-1.7,7.3-4.1l7,4L23,30.2V22z M31.3,16.2c0.4-1,0.7-2.1,0.7-3.2h20.9l-13.5,7.8
	L31.3,16.2z M22.5,9.1c1.9,0,3.5,1.6,3.5,3.5S24.4,16,22.5,16s-3.5-1.6-3.5-3.5S20.6,9.1,22.5,9.1z M17.9,20.8
	c0.9,0.5,2,0.9,3.1,1.1v9.5L7.3,39.3L17.9,20.8z M21,33.7v16.7L6.6,42L21,33.7z M7.3,44.7L21,52.6v9.6c-1.1,0.2-2.1,0.5-3,1
	L7.3,44.7z M22.5,75c-1.9,0-3.5-1.6-3.5-3.5s1.6-3.5,3.5-3.5s3.5,1.6,3.5,3.5S24.4,75,22.5,75z M32,71c-0.1-1.1-0.3-2.2-0.7-3.2
	l8.1-4.6L52.8,71H32z M55.6,70.3L41.3,62l14.3-8.2V70.3z M55.6,51.5l-16.3,9.4L23,51.5v-19l16.3-9.4l16.3,9.4V51.5z M55.6,30.2
	L41.3,22l14.3-8.2V30.2z M57.6,15.8l10.2,17.6c-1,0.6-1.9,1.4-2.6,2.3l-7.6-4.4V15.8z M57.6,33.7l6.5,3.7c-0.6,1.3-1,2.7-1,4.2
	c0,1.8,0.5,3.4,1.3,4.8l-6.8,3.9V33.7z M57.6,68.2V52.6l8-4.6c0.7,0.8,1.6,1.4,2.5,1.9L57.6,68.2z M72.5,45c-1.9,0-3.5-1.6-3.5-3.5
	s1.6-3.5,3.5-3.5s3.5,1.6,3.5,3.5S74.4,45,72.5,45z"/>
</svg>
