<?xml version="1.0" encoding="utf-8"?>
<!-- Generator: Adobe Illustrator 22.1.0, SVG Export Plug-In . SVG Version: 6.00 Build 0)  -->
<svg version="1.1" id="Layer_1" xmlns="http://www.w3.org/2000/svg" xmlns:xlink="http://www.w3.org/1999/xlink" x="0px" y="0px"
	 viewBox="0 0 84 84" style="enable-background:new 0 0 84 84;" xml:space="preserve">
<style type="text/css">
	.st0{fill:#0000FF;}
</style>
<path class="st0" d="M73.5,32.1c-1,0-2,0.2-3,0.5L61,16c1.1-1,1.9-2.4,1.9-4c0-2.9-2.4-5.3-5.3-5.3c-2.6,0-4.7,1.8-5.2,4.3H32.9
	c-0.8-4.5-4.6-7.9-9.3-7.9c-5.2,0-9.5,4.2-9.5,9.5c0,2.8,1.3,5.4,3.2,7.1L7.4,36.8c-0.3,0-0.6-0.1-0.8-0.1c-2.9,0-5.3,2.4-5.3,5.3
	c0,2.9,2.4,5.3,5.3,5.3c0.3,0,0.6,0,0.8-0.1l9.9,17.2c-2,1.7-3.3,4.3-3.3,7.2c0,5.2,4.2,9.5,9.5,9.5c4.7,0,8.7-3.5,9.3-8h19.5
	c0.5,2.4,2.6,4.3,5.2,4.3c2.9,0,5.3-2.4,5.3-5.3c0-1.6-0.7-3-1.9-4l10-17.3c0.8,0.2,1.7,0.4,2.6,0.4c5.2,0,9.5-4.2,9.5-9.5
	S78.8,32.1,73.5,32.1z M68.7,33.4c-1,0.6-1.9,1.4-2.6,2.3l-7.6-4.4V17.2c0.2,0,0.5-0.1,0.7-0.2L68.7,33.4z M53.6,68.5L42.3,62
	l14.3-8.2v13C55.4,67,54.3,67.7,53.6,68.5z M56.6,17.2v13L42.3,22l11.3-6.5C54.3,16.3,55.4,17,56.6,17.2z M56.6,32.5v19l-16.3,9.4
	L24,51.5v-19l16.3-9.4L56.6,32.5z M58.6,33.7l6.5,3.7c-0.6,1.3-1,2.7-1,4.2c0,1.8,0.5,3.4,1.3,4.8l-6.8,3.9V33.7z M33,13h19.4
	c0,0.2,0.1,0.5,0.2,0.7l-12.3,7.1l-8-4.6C32.7,15.2,32.9,14.1,33,13z M31.3,18l7,4L24,30.2V22C27,21.9,29.7,20.3,31.3,18z M23.5,9.1
	c1.9,0,3.5,1.6,3.5,3.5S25.4,16,23.5,16s-3.5-1.6-3.5-3.5S21.6,9.1,23.5,9.1z M18.9,20.8c0.9,0.5,2,0.9,3.1,1.1v9.5l-11.8,6.8
	c-0.3-0.3-0.6-0.5-0.9-0.7L18.9,20.8z M11.4,39.8L22,33.7v16.7l-10.6-6.1c0.3-0.7,0.5-1.4,0.5-2.2S11.7,40.5,11.4,39.8z M9.3,46.5
	c0.3-0.2,0.6-0.4,0.9-0.7L22,52.6v9.6c-1.1,0.2-2.1,0.5-3,1L9.3,46.5z M23.5,75c-1.9,0-3.5-1.6-3.5-3.5s1.6-3.5,3.5-3.5
	s3.5,1.6,3.5,3.5S25.4,75,23.5,75z M24,62.1v-8.4L38.3,62l-7,4.1C29.6,63.8,27,62.3,24,62.1z M32.2,67.8l8.1-4.6l12.3,7.1
	c-0.1,0.2-0.2,0.5-0.2,0.7H33C32.9,69.9,32.6,68.8,32.2,67.8z M59.3,67c-0.2-0.1-0.5-0.2-0.7-0.2V52.6l8-4.6
	c0.7,0.8,1.6,1.4,2.5,1.9L59.3,67z M73.5,45c-1.9,0-3.5-1.6-3.5-3.5s1.6-3.5,3.5-3.5s3.5,1.6,3.5,3.5S75.4,45,73.5,45z"/>
</svg>
