<?xml version="1.0" encoding="utf-8"?>
<!-- Generator: Adobe Illustrator 22.1.0, SVG Export Plug-In . SVG Version: 6.00 Build 0)  -->
<svg version="1.1" id="Layer_1" xmlns="http://www.w3.org/2000/svg" xmlns:xlink="http://www.w3.org/1999/xlink" x="0px" y="0px"
	 viewBox="0 0 84 84" style="enable-background:new 0 0 84 84;" xml:space="preserve">
<style type="text/css">
	.st0{fill:#0000FF;}
</style>
<path class="st0" d="M64.6,36.6c1.4,0.9,3.1,1.5,4.8,1.5c4.7,0,8.6-3.9,8.6-8.6S74.1,21,69.4,21c-4.4,0-8.1,3.4-8.5,7.7h-6.5v-9.6
	c2.7-0.4,4.7-2.7,4.7-5.5c0-3.1-2.5-5.6-5.6-5.6c-3.1,0-5.6,2.5-5.6,5.6c0,1,0.2,1.9,0.7,2.7l-7.1,7.1l-4.9-4.9
	c0.9-1.4,1.5-3.1,1.5-4.8c0-4.7-3.9-8.6-8.6-8.6S21,8.9,21,13.6c0,4.4,3.4,8.1,7.7,8.5v6.5h-9.6C18.7,26,16.4,24,13.6,24
	C10.5,24,8,26.5,8,29.5c0,3.1,2.5,5.6,5.6,5.6c1,0,1.9-0.2,2.7-0.7l7.1,7.1l-4.9,4.9c-1.4-0.9-3.1-1.5-4.8-1.5
	c-4.7,0-8.6,3.9-8.6,8.6S8.9,62,13.6,62c4.4,0,8.1-3.4,8.5-7.7h6.5v9.6C26,64.3,24,66.6,24,69.4c0,3.1,2.5,5.6,5.6,5.6
	c3.1,0,5.6-2.5,5.6-5.6c0-1-0.2-1.9-0.7-2.7l7.1-7.1l4.9,4.9c-0.9,1.4-1.5,3.1-1.5,4.8c0,4.7,3.9,8.6,8.6,8.6s8.6-3.9,8.6-8.6
	c0-4.4-3.4-8.1-7.7-8.5v-6.5h9.6c0.4,2.7,2.7,4.7,5.5,4.7c3.1,0,5.6-2.5,5.6-5.6c0-3.1-2.5-5.6-5.6-5.6c-1,0-1.9,0.2-2.7,0.7
	l-7.1-7.1L64.6,36.6z M69.4,27c1.4,0,2.6,1.2,2.6,2.6s-1.2,2.6-2.6,2.6s-2.6-1.2-2.6-2.6S68,27,69.4,27z M60.9,30.6
	c0.2,1.8,1,3.4,2.1,4.6l-4.8,4.8l-3.9-3.9v-5.5H60.9z M46,52.4h-9L30.6,46v-9l6.4-6.4h9l6.4,6.4v9L46,52.4z M52.4,48.8v3.5h-3.5
	L52.4,48.8z M44,54.4l-2.5,2.5L39,54.4H44z M34.2,52.4h-3.5v-3.5L34.2,52.4z M28.6,44l-2.5-2.5l2.5-2.5V44z M30.6,34.2v-3.5h3.5
	L30.6,34.2z M39,28.6l2.5-2.5l2.5,2.5H39z M48.8,30.6h3.5v3.5L48.8,30.6z M54.4,39l2.5,2.5L54.4,44V39z M49.8,17.8
	c0.7,0.6,1.6,1,2.5,1.2v9.6h-5.5l-3.9-3.9L49.8,17.8z M27,13.6c0-1.4,1.2-2.6,2.6-2.6s2.6,1.2,2.6,2.6s-1.2,2.6-2.6,2.6
	S27,15,27,13.6z M30.6,22.1c1.8-0.2,3.4-1,4.6-2.1l4.8,4.8l-3.9,3.9h-5.5V22.1z M17.8,33.2c0.6-0.7,1-1.6,1.2-2.5h9.6v5.5l-3.9,3.9
	L17.8,33.2z M13.6,56c-1.4,0-2.6-1.2-2.6-2.6s1.2-2.6,2.6-2.6s2.6,1.2,2.6,2.6S15,56,13.6,56z M22.1,52.4c-0.2-1.8-1-3.4-2.1-4.6
	l4.8-4.8l3.9,3.9v5.5H22.1z M33.2,65.2c-0.7-0.6-1.6-1-2.5-1.2v-9.6h5.5l3.9,3.9L33.2,65.2z M56,69.4c0,1.4-1.2,2.6-2.6,2.6
	s-2.6-1.2-2.6-2.6s1.2-2.6,2.6-2.6S56,68,56,69.4z M52.4,60.9c-1.8,0.2-3.4,1-4.6,2.1l-4.8-4.8l3.9-3.9h5.5V60.9z M65.2,49.8
	c-0.6,0.7-1,1.6-1.2,2.5h-9.6v-5.5l3.9-3.9L65.2,49.8z"/>
</svg>
