<?xml version="1.0" encoding="utf-8"?>
<!-- Generator: Adobe Illustrator 22.1.0, SVG Export Plug-In . SVG Version: 6.00 Build 0)  -->
<svg version="1.1" id="Layer_1" xmlns="http://www.w3.org/2000/svg" xmlns:xlink="http://www.w3.org/1999/xlink" x="0px" y="0px"
	 viewBox="0 0 84 84" style="enable-background:new 0 0 84 84;" xml:space="preserve">
<style type="text/css">
	.st0{fill:#0000FF;}
</style>
<path class="st0" d="M3.3,72.8c-0.5,0.3-0.6,0.9-0.3,1.4c0.2,0.3,0.5,0.4,0.8,0.4c0.2,0,0.4-0.1,0.6-0.2l9.7-6.6
	c6.3,8.5,16.3,14,27.7,14c11.9,0,23-6.2,29.2-16.3l10.4,6c0.2,0.1,0.3,0.1,0.5,0.1c0.3,0,0.7-0.2,0.9-0.5c0.3-0.5,0.1-1.1-0.4-1.4
	L62.6,58.3c1.7-3.3,2.7-7,2.7-10.9c0-12.5-9.9-22.8-22.3-23.4V1.5c0-0.6-0.4-1-1-1s-1,0.4-1,1V7C19.1,7.5,1.4,25.4,1.4,47.4
	c0,7.9,2.3,15.6,6.6,22.2L3.3,72.8z M13.4,47.4C13.4,32,25.7,19.5,41,19v13c-8.1,0.4-14.6,7.2-14.6,15.4c0,3,0.9,5.7,2.3,8.1
	L18,62.8C15.1,58.4,13.4,53.1,13.4,47.4z M50.4,51.3l-4.7-2.7c0.1-0.4,0.2-0.9,0.2-1.3c0-1.8-1.2-3.4-2.9-3.9v-5.3
	c4.6,0.6,8.3,4.5,8.3,9.3C51.3,48.8,50.9,50.1,50.4,51.3z M32.4,47.4c0-4.9,3.8-9,8.6-9.4v5.2c-1.8,0.4-3.2,2-3.2,4
	c0,0.6,0.2,1.2,0.4,1.7l-4.5,3.1C32.9,50.7,32.4,49.1,32.4,47.4z M49.4,53c-1.7,2.3-4.5,3.8-7.5,3.8c-2.8,0-5.3-1.2-7-3.1l4.6-3.2
	c0.7,0.5,1.5,0.8,2.4,0.8c1.1,0,2-0.4,2.7-1.1L49.4,53z M54.6,56l5.2,3c-3.8,5.9-10.4,9.8-18,9.8c-6.7,0-12.9-3.1-16.9-8.3l5-3.4
	c2.8,3.5,7.1,5.7,12,5.7C47.1,62.8,51.8,60.1,54.6,56z M60.8,57.3l-5.2-3c1-2.1,1.6-4.4,1.6-6.9C57.3,39.3,51,32.6,43,32v-6
	c11.3,0.6,20.3,9.9,20.3,21.4C63.3,51,62.4,54.3,60.8,57.3z M19.1,64.5l4.1-2.8c4.4,5.8,11.3,9.2,18.6,9.2c8.3,0,15.5-4.3,19.7-10.8
	l4.3,2.5c-5.2,8.2-14.3,13.3-24,13.3C32.6,75.8,24.3,71.4,19.1,64.5z M7.4,47.4c0,6.9,2.1,13.4,5.6,18.8l-3.3,2.3
	c-4.1-6.3-6.3-13.5-6.3-21C3.4,26.5,20.2,9.5,41,9v4C22.4,13.5,7.4,28.7,7.4,47.4z"/>
</svg>
