<svg version="1.1" id="Layer_1" xmlns="http://www.w3.org/2000/svg" xmlns:xlink="http://www.w3.org/1999/xlink" x="0px" y="0px"
	 viewBox="0 0 84 84" style="enable-background:new 0 0 84 84;" xml:space="preserve">
<style type="text/css">
	.st0{fill:#0000FF;}
</style>
<path class="st0" d="M77.3,27.8l-5.3-3.5v-3.8c0-2.2-1.2-4.2-3.1-5.2L54.9,7.3C54,6.8,53,6.5,51.9,6.5c-1,0-2,0.3-2.9,0.8l-6.9,4.4
	c0,0-0.1,0-0.1,0.1c0,0-0.1,0-0.1-0.1L35,7.3c-0.9-0.5-1.9-0.8-2.9-0.8c-1,0-2,0.3-2.9,0.8L15,15.2c-1.9,1.1-3.1,3.1-3.1,5.2v3.8
	l-5.3,3.5c-1.7,1.1-2.7,3-2.7,5v17c0,2,1,3.8,2.6,4.9l6.3,4.4v3.1c0,2.1,1.1,4,2.8,5.1l14.1,8.8c1,0.6,2.1,0.9,3.2,0.9
	s2.2-0.3,3.2-0.9l5.9-4.3l5.9,4.3c1,0.6,2.1,0.9,3.2,0.9s2.2-0.3,3.2-0.9l14.1-8.8c1.8-1.1,2.8-3,2.8-5.1v-3.1l6.3-4.4
	c1.6-1.1,2.6-3,2.6-4.9v-17C80,30.8,79,28.9,77.3,27.8z M32.9,71l-14.1-8.8V56L10,49.8v-17l7.9-5.3v-7.1l14.1-7.9l6.9,4.4V30h-4.7
	l-3.4-2.2C31,27.5,31,27.3,31,27c0-1.7-1.3-3-3-3s-3,1.3-3,3s1.3,3,3,3c0.7,0,1.3-0.2,1.8-0.6l3.7,2.4c0,0,0.1,0,0.1,0
	c0,0,0.1,0,0.1,0c0.1,0,0.2,0.1,0.3,0.1c0,0,0,0,0,0c0,0,0,0,0,0h5v8H24.8c-0.4-1.2-1.5-2-2.8-2c-1.7,0-3,1.3-3,3s1.3,3,3,3
	c1.3,0,2.4-0.8,2.8-2H39v8h-5c0,0-0.1,0-0.1,0c-0.1,0-0.1,0-0.2,0c-0.1,0-0.1,0-0.2,0.1c0,0-0.1,0-0.1,0l-3.7,2.4
	C29.3,52.2,28.7,52,28,52c-1.7,0-3,1.3-3,3s1.3,3,3,3s3-1.3,3-3c0-0.3,0-0.5-0.1-0.8l3.4-2.2H39v14.6L32.9,71z M74,49.8L65.2,56v6.2
	L51.1,71L45,66.6V52h4.7l3.4,2.2C53,54.5,53,54.7,53,55c0,1.7,1.3,3,3,3s3-1.3,3-3s-1.3-3-3-3c-0.7,0-1.3,0.2-1.8,0.6l-3.7-2.4
	c0,0-0.1,0-0.1,0c-0.1,0-0.1-0.1-0.2-0.1c-0.1,0-0.1,0-0.2,0c0,0-0.1,0-0.1,0h-5v-8h14.2c0.4,1.2,1.5,2,2.8,2c1.7,0,3-1.3,3-3
	s-1.3-3-3-3c-1.3,0-2.4,0.8-2.8,2H45v-8h5c0,0,0,0,0,0c0,0,0,0,0,0c0.1,0,0.2,0,0.3-0.1c0,0,0.1,0,0.1,0c0,0,0.1,0,0.1,0l3.7-2.4
	c0.5,0.4,1.1,0.6,1.8,0.6c1.7,0,3-1.3,3-3s-1.3-3-3-3s-3,1.3-3,3c0,0.3,0,0.5,0.1,0.8L49.7,30H45V16.9l6.9-4.4l14.1,7.9v7.1l7.9,5.3
	V49.8z"/>
</svg>
