<?xml version="1.0" encoding="utf-8"?>
<!-- Generator: Adobe Illustrator 22.1.0, SVG Export Plug-In . SVG Version: 6.00 Build 0)  -->
<svg version="1.1" id="Layer_1" xmlns="http://www.w3.org/2000/svg" xmlns:xlink="http://www.w3.org/1999/xlink" x="0px" y="0px"
	 viewBox="0 0 84 84" style="enable-background:new 0 0 84 84;" xml:space="preserve">
<style type="text/css">
	.st0{fill:#0000FF;}
</style>
<path class="st0" d="M71.3,43h5c0.4,1.7,2,2.9,3.8,2.9c2.2,0,3.9-1.7,3.9-3.9s-1.7-3.9-3.9-3.9c-1.8,0-3.3,1.2-3.8,2.9h-5v-7.8h5
	c0.4,1.7,2,2.9,3.8,2.9c2.2,0,3.9-1.7,3.9-3.9s-1.7-3.9-3.9-3.9c-1.8,0-3.3,1.2-3.8,2.9h-5v-3.9c0-8.1-6.6-14.7-14.7-14.7h-3.9v-5
	c1.7-0.4,2.9-2,2.9-3.8c0-2.2-1.7-3.9-3.9-3.9s-3.9,1.7-3.9,3.9c0,1.8,1.2,3.3,2.9,3.8v5H43v-5c1.7-0.4,2.9-2,2.9-3.8
	C45.9,1.7,44.2,0,42,0s-3.9,1.7-3.9,3.9c0,1.8,1.2,3.3,2.9,3.8v5h-7.8v-5c1.7-0.4,2.9-2,2.9-3.8c0-2.2-1.7-3.9-3.9-3.9
	s-3.9,1.7-3.9,3.9c0,1.8,1.2,3.3,2.9,3.8v5h-3.9c-8.1,0-14.7,6.6-14.7,14.7v3.9h-5c-0.4-1.7-2-2.9-3.8-2.9c-2.2,0-3.9,1.7-3.9,3.9
	s1.7,3.9,3.9,3.9c1.8,0,3.3-1.2,3.8-2.9h5V41h-5c-0.4-1.7-2-2.9-3.8-2.9C1.7,38.1,0,39.8,0,42s1.7,3.9,3.9,3.9
	c1.8,0,3.3-1.2,3.8-2.9h5v7.8h-5c-0.4-1.7-2-2.9-3.8-2.9c-2.2,0-3.9,1.7-3.9,3.9c0,2.2,1.7,3.9,3.9,3.9c1.8,0,3.3-1.2,3.8-2.9h5v3.9
	c0,8.1,6.6,14.7,14.7,14.7h3.9v5c-1.7,0.4-2.9,2-2.9,3.8c0,2.2,1.7,3.9,3.9,3.9s3.9-1.7,3.9-3.9c0-1.8-1.2-3.3-2.9-3.8v-5H41v5
	c-1.7,0.4-2.9,2-2.9,3.8c0,2.2,1.7,3.9,3.9,3.9s3.9-1.7,3.9-3.9c0-1.8-1.2-3.3-2.9-3.8v-5h7.8v5c-1.7,0.4-2.9,2-2.9,3.8
	c0,2.2,1.7,3.9,3.9,3.9s3.9-1.7,3.9-3.9c0-1.8-1.2-3.3-2.9-3.8v-5h3.9c8.1,0,14.7-6.6,14.7-14.7v-3.9h5c0.4,1.7,2,2.9,3.8,2.9
	c2.2,0,3.9-1.7,3.9-3.9c0-2.2-1.7-3.9-3.9-3.9c-1.8,0-3.3,1.2-3.8,2.9h-5V43z M65.4,50.8h-9.9c-0.6-1.4-2-2.4-3.6-2.4
	c-0.6,0-1.2,0.1-1.7,0.4L47,45.5c0.5-0.7,0.9-1.6,1-2.5h17.4V50.8z M65.4,41H48c-0.2-1-0.6-1.9-1.2-2.7l3.5-3.5
	c0.5,0.2,1,0.3,1.5,0.3c1.4,0,2.7-0.8,3.3-1.9h10.2V41z M56.7,18.6c4.8,0,8.8,3.9,8.8,8.8v3.9h-9.6c0-1.9-1.3-3.4-3-3.8v-8.9H56.7z
	 M50.8,18.6v9c-1.6,0.5-2.8,2-2.8,3.7c0,0.9,0.3,1.7,0.8,2.3L45.4,37c-0.7-0.5-1.5-0.8-2.4-0.9V18.6H50.8z M41,18.6v17.5
	c-0.9,0.2-1.7,0.5-2.4,1l-3.6-3.6c0.5-0.6,0.8-1.4,0.8-2.3c0-1.7-1.1-3.1-2.6-3.7v-9H41z M18.6,27.3c0-4.8,3.9-8.8,8.8-8.8h3.9v8.8
	c-1.8,0.3-3.2,1.9-3.2,3.8h-9.4V27.3z M18.6,33.2h10c0.7,1.1,1.9,1.9,3.3,1.9c0.6,0,1.1-0.1,1.6-0.3l3.7,3.7c-0.5,0.7-0.9,1.6-1,2.5
	H18.6V33.2z M18.6,43h17.6c0.1,0.8,0.4,1.6,0.9,2.3l-3.5,3.5c-0.5-0.3-1.1-0.4-1.7-0.4c-1.6,0-3,1-3.6,2.4h-9.7V43z M27.3,65.4
	c-4.8,0-8.8-3.9-8.8-8.8v-3.9h9.5c0.2,1.7,1.5,3,3.2,3.3v9.4H27.3z M33.2,65.4v-9.5c1.5-0.5,2.6-2,2.6-3.7c0-0.8-0.2-1.6-0.7-2.2
	l3.3-3.3c0.7,0.6,1.6,1,2.6,1.1v17.5H33.2z M43,65.4V47.9c1-0.1,1.8-0.5,2.6-1l3.1,3.1c-0.4,0.6-0.7,1.4-0.7,2.2
	c0,1.8,1.2,3.2,2.8,3.7v9.5H43z M65.4,56.7c0,4.8-3.9,8.8-8.8,8.8h-3.9V56c1.6-0.4,2.8-1.7,3-3.3h9.7V56.7z"/>
</svg>
