<?xml version="1.0" encoding="utf-8"?>
<!-- Generator: Adobe Illustrator 22.1.0, SVG Export Plug-In . SVG Version: 6.00 Build 0)  -->
<svg version="1.1" id="Layer_1" xmlns="http://www.w3.org/2000/svg" xmlns:xlink="http://www.w3.org/1999/xlink" x="0px" y="0px"
	 viewBox="0 0 84 84" style="enable-background:new 0 0 84 84;" xml:space="preserve">
<style type="text/css">
	.st0{fill:#0000FF;}
</style>
<g>
	<path class="st0" d="M50.2,76.3c4.3,0,7.9-3.5,7.9-7.9s-3.5-7.9-7.9-7.9s-7.9,3.5-7.9,7.9S45.9,76.3,50.2,76.3z M50.2,66.5
		c1,0,1.9,0.8,1.9,1.9s-0.8,1.9-1.9,1.9s-1.9-0.8-1.9-1.9S49.2,66.5,50.2,66.5z"/>
	<path class="st0" d="M32.7,76.3c4.3,0,7.9-3.5,7.9-7.9s-3.5-7.9-7.9-7.9s-7.9,3.5-7.9,7.9S28.4,76.3,32.7,76.3z M32.7,66.5
		c1,0,1.9,0.8,1.9,1.9s-0.8,1.9-1.9,1.9s-1.9-0.8-1.9-1.9S31.7,66.5,32.7,66.5z"/>
	<circle class="st0" cx="15.3" cy="68.3" r="3"/>
	<path class="st0" d="M32.7,58.8c4.3,0,7.9-3.5,7.9-7.9S37.1,43,32.7,43s-7.9,3.5-7.9,7.9S28.4,58.8,32.7,58.8z M32.7,49
		c1,0,1.9,0.8,1.9,1.9s-0.8,1.9-1.9,1.9s-1.9-0.8-1.9-1.9S31.7,49,32.7,49z"/>
	<path class="st0" d="M15.2,43c-4.3,0-7.9,3.5-7.9,7.9s3.5,7.9,7.9,7.9c4.3,0,7.9-3.5,7.9-7.9S19.6,43,15.2,43z M15.2,52.8
		c-1,0-1.9-0.8-1.9-1.9s0.8-1.9,1.9-1.9s1.9,0.8,1.9,1.9S16.2,52.8,15.2,52.8z"/>
	<path class="st0" d="M67.7,41.3c4.3,0,7.9-3.5,7.9-7.9s-3.5-7.9-7.9-7.9s-7.9,3.5-7.9,7.9S63.4,41.3,67.7,41.3z M67.7,31.5
		c1,0,1.9,0.8,1.9,1.9s-0.8,1.9-1.9,1.9s-1.9-0.8-1.9-1.9S66.7,31.5,67.7,31.5z"/>
	<path class="st0" d="M50.2,41.3c4.3,0,7.9-3.5,7.9-7.9s-3.5-7.9-7.9-7.9s-7.9,3.5-7.9,7.9S45.9,41.3,50.2,41.3z M50.2,31.5
		c1,0,1.9,0.8,1.9,1.9s-0.8,1.9-1.9,1.9s-1.9-0.8-1.9-1.9S49.2,31.5,50.2,31.5z"/>
	<path class="st0" d="M15.2,41.3c4.3,0,7.9-3.5,7.9-7.9s-3.5-7.9-7.9-7.9c-4.3,0-7.9,3.5-7.9,7.9S10.9,41.3,15.2,41.3z M15.2,31.5
		c1,0,1.9,0.8,1.9,1.9s-0.8,1.9-1.9,1.9s-1.9-0.8-1.9-1.9S14.2,31.5,15.2,31.5z"/>
	<path class="st0" d="M32.7,23.8c4.3,0,7.9-3.5,7.9-7.9S37.1,8,32.7,8s-7.9,3.5-7.9,7.9S28.4,23.8,32.7,23.8z M32.7,14
		c1,0,1.9,0.8,1.9,1.9s-0.8,1.9-1.9,1.9s-1.9-0.8-1.9-1.9S31.7,14,32.7,14z"/>
	<circle class="st0" cx="67.9" cy="16.3" r="3"/>
	<circle class="st0" cx="49.9" cy="16.3" r="3"/>
	<circle class="st0" cx="32.9" cy="33.3" r="3"/>
	<circle class="st0" cx="49.9" cy="50.3" r="3"/>
	<circle class="st0" cx="67.9" cy="50.3" r="3"/>
	<circle class="st0" cx="14.9" cy="16.3" r="3"/>
	<circle class="st0" cx="67.9" cy="68.3" r="3"/>
</g>
</svg>
