<?xml version="1.0" encoding="utf-8"?>
<!-- Generator: Adobe Illustrator 22.1.0, SVG Export Plug-In . SVG Version: 6.00 Build 0)  -->
<svg version="1.1" id="Layer_1" xmlns="http://www.w3.org/2000/svg" xmlns:xlink="http://www.w3.org/1999/xlink" x="0px" y="0px"
	 viewBox="0 0 84 84" style="enable-background:new 0 0 84 84;" xml:space="preserve">
<style type="text/css">
	.st0{fill:#0000FF;}
</style>
<path class="st0" d="M72,34.4h3.4c0.4,1.6,1.9,2.8,3.7,2.8c2.1,0,3.8-1.7,3.8-3.8c0-2.1-1.7-3.8-3.8-3.8c-1.8,0-3.2,1.2-3.7,2.8
	h-3.3c0-0.8,0.1-1.7,0.1-2.6v-5h3.2c0.4,1.6,1.9,2.8,3.7,2.8c2.1,0,3.8-1.7,3.8-3.8c0-2.1-1.7-3.8-3.8-3.8c-1.8,0-3.2,1.2-3.7,2.8
	h-3.2v-6.2c0-5.3-4.2-9.6-9.3-9.6H21c-5.1,0-9.3,4.3-9.3,9.6v6.2H8.6c-0.4-1.6-1.9-2.8-3.7-2.8c-2.1,0-3.8,1.7-3.8,3.8
	c0,2.1,1.7,3.8,3.8,3.8c1.8,0,3.2-1.2,3.7-2.8h3.2v5c0,0.9,0,1.7,0.1,2.6H8.6c-0.4-1.6-1.9-2.8-3.7-2.8c-2.1,0-3.8,1.7-3.8,3.8
	c0,2.1,1.7,3.8,3.8,3.8c1.8,0,3.2-1.2,3.7-2.8H12c0.3,2.6,0.8,5.1,1.5,7.5H8.6c-0.4-1.6-1.9-2.8-3.7-2.8c-2.1,0-3.8,1.7-3.8,3.8
	c0,2.1,1.7,3.8,3.8,3.8c1.8,0,3.2-1.2,3.7-2.8h5.5C17.2,53.1,23.4,61,31.5,66v5.7c-1.6,0.4-2.8,1.9-2.8,3.7c0,2.1,1.7,3.8,3.8,3.8
	c2.1,0,3.8-1.7,3.8-3.8c0-1.8-1.2-3.2-2.8-3.7v-4.5c2.4,1.3,4.9,2.3,7.5,3.1v6.3c-1.6,0.4-2.8,1.9-2.8,3.7c0,2.1,1.7,3.8,3.8,3.8
	s3.8-1.7,3.8-3.8c0-1.8-1.2-3.2-2.8-3.7v-6.3c2.6-0.8,5.1-1.8,7.5-3.1v4.5c-1.6,0.4-2.8,1.9-2.8,3.7c0,2.1,1.7,3.8,3.8,3.8
	c2.1,0,3.8-1.7,3.8-3.8c0-1.8-1.2-3.2-2.8-3.7V66c8.1-5,14.3-12.9,17.4-22.1h5.5c0.4,1.6,1.9,2.8,3.7,2.8c2.1,0,3.8-1.7,3.8-3.8
	c0-2.1-1.7-3.8-3.8-3.8c-1.8,0-3.2,1.2-3.7,2.8h-4.9C71.3,39.4,71.7,36.9,72,34.4z M64.3,41.9h-9.1c-0.6-1.4-1.9-2.4-3.5-2.4
	c-0.6,0-1.1,0.1-1.6,0.4l-3.2-3.2c0.5-0.7,0.8-1.5,1-2.3H66C65.7,37,65.1,39.5,64.3,41.9z M66.3,29.8c0,0.9,0,1.7-0.1,2.6H47.8
	c-0.2-0.9-0.6-1.8-1.1-2.5l3.4-3.4c0.5,0.2,1,0.3,1.5,0.3c1.4,0,2.6-0.7,3.2-1.8h11.4V29.8z M17.7,16.6c0-2,1.5-3.6,3.3-3.6h42
	c1.8,0,3.3,1.6,3.3,3.6v6.2H55.4c0-2.1-1.7-3.8-3.8-3.8c-2.1,0-3.8,1.7-3.8,3.8c0,0.8,0.3,1.6,0.8,2.3l-3.3,3.3
	c-0.9-0.6-2-0.9-3.2-0.9c-1.2,0-2.4,0.4-3.3,1.1l-3.5-3.5c0.4-0.6,0.7-1.4,0.7-2.2c0-2.1-1.7-3.8-3.8-3.8c-2.1,0-3.8,1.7-3.8,3.8
	H17.7V16.6z M17.7,29.8v-5h11.2c0.7,1.1,1.9,1.8,3.2,1.8c0.5,0,1.1-0.1,1.5-0.3l3.6,3.6c-0.5,0.7-0.8,1.5-1,2.4H17.8
	C17.8,31.5,17.7,30.7,17.7,29.8z M18,34.4h18.3c0.1,0.8,0.4,1.5,0.8,2.2l-3.4,3.4c-0.5-0.2-1.1-0.4-1.6-0.4c-1.6,0-2.9,1-3.5,2.4
	h-8.9C18.9,39.5,18.3,37,18,34.4z M20.5,43.9h8c0.2,1.6,1.5,2.9,3.1,3.2v11.6C26.6,54.9,22.8,49.7,20.5,43.9z M33.5,60.1V46.9
	c1.4-0.5,2.5-1.9,2.5-3.6c0-0.8-0.2-1.5-0.6-2.1l3.2-3.2c0.7,0.5,1.5,0.9,2.5,1.1V64C38.3,63,35.8,61.7,33.5,60.1z M43,64V39.1
	c0.9-0.1,1.7-0.5,2.5-1l3,3c-0.4,0.6-0.7,1.4-0.7,2.2c0,1.7,1.1,3.1,2.7,3.6v13.2C48.2,61.7,45.7,63,43,64z M52.5,58.7V47
	c1.5-0.4,2.7-1.6,2.9-3.1h8.1C61.2,49.7,57.4,54.9,52.5,58.7z"/>
</svg>
