<?xml version="1.0" encoding="utf-8"?>
<!-- Generator: Adobe Illustrator 22.1.0, SVG Export Plug-In . SVG Version: 6.00 Build 0)  -->
<svg version="1.1" id="Layer_1" xmlns="http://www.w3.org/2000/svg" xmlns:xlink="http://www.w3.org/1999/xlink" x="0px" y="0px"
	 viewBox="0 0 84 84" style="enable-background:new 0 0 84 84;" xml:space="preserve">
<style type="text/css">
	.st0{fill:#0000FF;}
</style>
<path class="st0" d="M76.4,41c0-0.2,0-0.3,0-0.5c0-0.4-0.1-0.8-0.1-1.1c0-0.2,0-0.3-0.1-0.5c0-0.4-0.1-0.8-0.2-1.2
	c0-0.1,0-0.2-0.1-0.4c-0.1-0.5-0.2-1-0.3-1.5c0,0,0,0,0,0C73.4,24,64.7,14.3,53,10.7c0,0,0,0,0,0c-0.5-0.2-1-0.3-1.5-0.4
	c0,0-0.1,0-0.1,0c-0.1,0-0.2-0.1-0.3-0.1c-0.2-0.1-0.4-0.1-0.6-0.1c-0.3-0.1-0.6-0.1-1-0.2c-0.3-0.1-0.5-0.1-0.8-0.1
	c-0.4-0.1-0.7-0.1-1.1-0.2c-0.3,0-0.5-0.1-0.8-0.1c-0.3,0-0.6-0.1-0.9-0.1c-0.1-0.5-0.4-0.9-0.7-1.3c-0.6-0.6-1.3-0.9-2.1-0.9
	c0,0,0,0,0,0C23.5,7.2,7.6,23.1,7.6,42.6c0,0.1,0,0.2,0,0.3l0,0.1c0,1.3,0.9,2.5,2.2,2.8c0,0.2,0,0.4,0.1,0.5c0,0.2,0.1,0.5,0.1,0.7
	c0.1,0.4,0.1,0.8,0.2,1.2c0,0.3,0.1,0.5,0.1,0.8c0.1,0.4,0.2,0.7,0.2,1.1c0,0.2,0.1,0.4,0.1,0.6c3.2,12.6,13.3,22,25.6,24.6
	c0.1,0,0.1,0,0.2,0c0.4,0.1,0.9,0.2,1.3,0.2c0.2,0,0.3,0,0.5,0.1c0.4,0.1,0.7,0.1,1.1,0.1c0.2,0,0.4,0,0.5,0.1
	c0.4,0,0.7,0.1,1.1,0.1c0.2,0,0.3,0,0.5,0c0.5,0,1.1,0,1.6,0c18.4,0,33.4-15,33.4-33.4C76.5,42,76.4,41.5,76.4,41z M43,53.5
	c-5.9,0-10.8-4.7-11-10.6c0,0,0,0,0,0c0-0.1,0-0.2,0-0.3c0-0.4,0-0.8,0.1-1.1c0.6-5.5,5.2-9.8,10.8-9.8c0,0,0.1,0,0.1,0
	c6,0,11,4.9,11,11S49.1,53.5,43,53.5z M40,13.3v12.6c-7.1,1.3-12.7,7-13.7,14.1H13.7C14.9,26,26,14.7,40,13.3z M43,74
	c-0.5,0-1,0-1.5,0c-0.2,0-0.3,0-0.5,0c-0.3,0-0.7,0-1-0.1c-0.2,0-0.3,0-0.5-0.1c-0.3,0-0.7-0.1-1-0.1c-0.1,0-0.3,0-0.4-0.1
	c-0.4-0.1-0.8-0.1-1.2-0.2c-0.1,0-0.1,0-0.2,0c-12-2.5-21.5-11.8-24.2-23.7c-0.1-0.3-0.2-0.7-0.2-1c0-0.2-0.1-0.5-0.1-0.7
	c-0.1-0.4-0.1-0.7-0.2-1.1c0-0.2-0.1-0.5-0.1-0.7c0-0.1,0-0.1,0-0.2h17.3c0.5,0,0.9-0.1,1.4-0.3c1.4,5.7,6.5,9.9,12.6,9.9
	c4.4,0,8.3-2.2,10.6-5.6l15.2,10.5C63.2,68.6,53.7,74,43,74z M70,58.8L54.7,48.2c0.8-1.7,1.3-3.6,1.3-5.7c0-6.2-4.4-11.5-10.3-12.7
	c0.2-0.4,0.3-0.8,0.3-1.3V11.3c0.2,0,0.4,0,0.5,0c0.2,0,0.5,0.1,0.7,0.1c0.3,0,0.6,0.1,1,0.1c0.3,0,0.5,0.1,0.8,0.1
	c0.3,0.1,0.6,0.1,0.8,0.2c0.3,0.1,0.6,0.1,1,0.2c0,0,0,0,0,0c11.5,3,20.5,12.4,22.9,24.1c0,0,0,0,0,0c0.1,0.5,0.2,0.9,0.3,1.4
	c0,0.1,0,0.2,0,0.3c0.1,0.4,0.1,0.7,0.1,1.1c0,0.1,0,0.3,0,0.4c0,0.4,0.1,0.7,0.1,1.1c0,0.1,0,0.3,0,0.4c0,0.5,0,1,0,1.5
	C74.5,48.5,72.8,54,70,58.8z"/>
</svg>
