<?xml version="1.0" encoding="utf-8"?>
<!-- Generator: Adobe Illustrator 22.1.0, SVG Export Plug-In . SVG Version: 6.00 Build 0)  -->
<svg version="1.1" id="Layer_1" xmlns="http://www.w3.org/2000/svg" xmlns:xlink="http://www.w3.org/1999/xlink" x="0px" y="0px"
	 viewBox="0 0 84 84" style="enable-background:new 0 0 84 84;" xml:space="preserve">
<style type="text/css">
	.st0{fill:#0000FF;}
</style>
<g>
	<path class="st0" d="M71.3,54.1C73,50.2,74,46,74,41.5s-1-8.7-2.7-12.6c2.2-2.1,3.7-5.1,3.7-8.4C75,14.2,69.8,9,63.5,9
		c-3.3,0-6.3,1.4-8.4,3.7C51.2,11,47,10,42.5,10c-4.5,0-8.7,1-12.6,2.7C27.8,10.4,24.8,9,21.5,9C15.2,9,10,14.2,10,20.5
		c0,3.3,1.4,6.3,3.7,8.4C12,32.8,11,37,11,41.5c0,4.5,1,8.8,2.7,12.6c-2.2,2.1-3.7,5.1-3.7,8.4C10,68.8,15.2,74,21.5,74
		c3.3,0,6.3-1.4,8.4-3.7C33.8,72,38,73,42.5,73c4.5,0,8.7-1,12.6-2.7c2.1,2.2,5.1,3.7,8.4,3.7C69.8,74,75,68.8,75,62.5
		C75,59.2,73.6,56.2,71.3,54.1z M63.5,15c3,0,5.5,2.5,5.5,5.5S66.5,26,63.5,26S58,23.5,58,20.5S60.5,15,63.5,15z M21.5,15
		c3,0,5.5,2.5,5.5,5.5S24.5,26,21.5,26S16,23.5,16,20.5S18.5,15,21.5,15z M21.5,68c-3,0-5.5-2.5-5.5-5.5s2.5-5.5,5.5-5.5
		s5.5,2.5,5.5,5.5S24.5,68,21.5,68z M42.5,71c-4,0-7.9-0.8-11.3-2.3c1.2-1.8,1.8-3.9,1.8-6.2c0-2.7-0.9-5.1-2.4-7l4.7-4.7
		c1-1,1-2.6,0-3.5c-1-1-2.6-1-3.5,0l-5,5c-1.6-0.8-3.3-1.3-5.2-1.3c-2.3,0-4.4,0.7-6.2,1.8c-1.5-3.5-2.3-7.3-2.3-11.3
		c0-4,0.8-7.8,2.3-11.3c1.8,1.2,3.9,1.8,6.2,1.8C27.8,32,33,26.8,33,20.5c0-2.3-0.7-4.4-1.8-6.2c3.5-1.5,7.3-2.3,11.3-2.3
		c4,0,7.8,0.8,11.3,2.3c-1.2,1.8-1.8,3.9-1.8,6.2c0,1.9,0.5,3.6,1.3,5.2l-5,5c-1,1-1,2.6,0,3.5c0.5,0.5,1.1,0.7,1.8,0.7
		s1.3-0.2,1.8-0.7l4.7-4.7c1.9,1.5,4.4,2.4,7,2.4c2.3,0,4.4-0.7,6.2-1.8c1.5,3.5,2.3,7.3,2.3,11.3c0,4-0.8,7.8-2.3,11.3
		c-1.8-1.2-3.9-1.8-6.2-1.8c-2.3,0-4.4,0.7-6.2,1.8l-4.6-4.6c-1-1-2.6-1-3.5,0c-1,1-1,2.6,0,3.5l4.6,4.6c-1.1,1.8-1.8,3.9-1.8,6.2
		c0,2.3,0.7,4.4,1.8,6.2C50.3,70.2,46.5,71,42.5,71z M63.5,68c-3,0-5.5-2.5-5.5-5.5s2.5-5.5,5.5-5.5s5.5,2.5,5.5,5.5
		S66.5,68,63.5,68z"/>
	<path class="st0" d="M42.5,35c-0.9,0-1.7,0.2-2.5,0.5l-4.8-4.8c-1-1-2.6-1-3.5,0c-1,1-1,2.6,0,3.5l4.8,4.8
		c-0.3,0.8-0.5,1.6-0.5,2.5c0,3.6,2.9,6.5,6.5,6.5s6.5-2.9,6.5-6.5S46.1,35,42.5,35z"/>
</g>
</svg>
