<svg xmlns="http://www.w3.org/2000/svg" width="816" height="11in" viewBox="0 0 8500 11000" shape-rendering="geometricPrecision" text-rendering="geometricPrecision" image-rendering="optimizeQuality" fill-rule="evenodd" clip-rule="evenodd"><defs><style>.fil0{fill:#c5c6c6}</style></defs><g id="Layer_x0020_1"><g id="_242404280192"><path class="fil0" d="M4854 5481l-78 1c6-30 59-37 78-1zm48 65l-38-21c-13 18-25 33-49 32-22-1-42-17-44-40h131c0-134-154-119-176-37-13 50 12 94 58 108 52 17 88-4 118-42zM4341 5521c-17-80 94-82 102-27 12 82-93 75-102 27zm-29-68c-54 66 11 155 102 138 116-21 94-174-22-173-33 1-62 14-80 35zM4981 5513c-6-30 19-54 47-55 33-2 57 11 60 44 4 66-95 74-107 11zm-35-48c-36 55 20 145 112 125 85-18 103-115 31-157-19-11-39-15-59-14-34 1-65 18-84 46z"/><path class="fil0" d="M4578 5497l-80 93h57l53-60 53 60h55l-78-92 68-74h-53l-46 45-40-45h-51zM4187 5597c12-10 93-159 94-174h-46l-46 86c-18-21-40-84-54-86h-43c2 12 37 71 46 88l49 86zM3742 5453c26 0 48 21 48 48 0 26-22 47-48 47s-47-21-47-47c0-27 21-48 47-48zm-337-242c21 0 38 18 38 39 0 22-17 39-38 39-22 0-39-17-39-39 0-21 17-39 39-39zm677 0c21 0 39 18 39 39 0 22-18 39-39 39-22 0-39-17-39-39 0-21 17-39 39-39zm-342 501c21 0 39 17 39 38 0 22-18 39-39 39s-39-17-39-39c0-21 18-38 39-38zm255-379c21 0 38 17 38 39 0 21-17 39-38 39-22 0-39-18-39-39 0-22 17-39 39-39zm-84-122c22 0 39 17 39 39 0 21-17 38-39 38-21 0-38-17-38-38 0-22 17-39 38-39zm-336 0c21 0 39 17 39 39 0 21-18 39-39 39-22 0-39-18-39-39 0-22 17-39 39-39zm-87 121c21 0 38 17 38 39 0 21-17 38-38 38-22 0-39-17-39-38 0-22 17-39 39-39zm170-9c26 0 47 21 47 47s-21 48-47 48c-27 0-48-22-48-48s21-47 48-47zm-83 130c26 0 47 21 47 47s-21 47-47 47-47-21-47-47 21-47 47-47zm83 123c26 0 47 21 47 47s-21 47-47 47-47-21-47-47 21-47 47-47zm168-1c26 0 47 22 47 48s-21 47-47 47-47-21-47-47 21-48 47-48zm86-122c26 0 47 21 47 47s-21 47-47 47-48-21-48-47 22-47 48-47zm-86-128c26 0 47 21 47 47s-21 47-47 47-47-21-47-47 21-47 47-47z"/></g></g></svg>