<svg xmlns="http://www.w3.org/2000/svg" width="36" height="36" viewBox="0 0 36 36" overflow="visible"><path fill="currentColor" d="M18 .625C27.206.625 35.292 8.797 35.292 18c0 9.208-8.087 17.292-17.292 17.292S.625 27.208.625 18C.625 8.797 8.795.625 18 .625zM17.998 0C8.058 0 0 8.057 0 17.998 0 27.94 8.058 36 17.998 36 27.938 36 36 27.94 36 17.998 36 8.058 27.94 0 17.998 0z"/><path fill="currentColor" d="M11.45 17.587c-.02.085-.035.17-.04.256-.02.464.24.988.382 1.375-.71.136-1.352.53-1.665.912-.317.386-.502.847-.583 1.403-.055.27-.08.564-.086.892-.012 1.444.637 2.89 1.544 3.86.057.063.09.11.144.176.238.28.985.926 1.25 1.125 1.28.956 2.996 1.42 4.688 1.404.69.007 1.38-.066 2.038-.218 1.517-.353 2.448-.928 3.55-1.857.122-.106.208-.23.332-.335.24-.21.732-.834.93-1.122 1.254-1.868 1.726-4.204 1.474-6.548-.082-.74-.253-1.392-.62-1.896a2.34 2.34 0 0 0-.99-.928c-.388-.195-.638-.236-.835-.29.154-.483.663-1.9.76-2.188.384-1.135 1.32-3.918 1.286-5.033-.02-.475-.15-.927-.41-1.27a1.562 1.562 0 0 0-1.066-.784c-.746-.163-1.163.204-1.563.68-.602.71-1.034 1.627-1.454 2.514-.336.708-.623 1.498-.91 2.26l-.818 2.266c-.113-.31-.243-.75-.312-.95-.464-1.33-1.548-4.483-2.602-6.026-.253-.402-.507-.724-.75-.91-.394-.302-.7-.404-1.313-.204-.644.216-1.08.793-1.183 1.586-.05.228-.07.473-.06.733.033.804.395 1.976.62 2.712.376 1.233.8 2.515 1.228 3.728l.335.98c-.368-.166-.815-.447-1.393-.34-.76.14-1.833 1.166-1.91 2.037zm-.028 5.01c-.307 1.16 1.176 2.445 1.82 2.782.375.2.814.342 1.248.316.31.016.62-.047.907-.225.67-.423.78-.987.616-1.725.112.024.22.048.368.048.023-.004.04-.004.06-.004.038.003.077.003.12.003a.693.693 0 0 0 .31-.08c.01.662.064 1.262.3 1.835.19.446.64.995 1.083.995.097 0 .073.01.083-.008a.73.73 0 0 0 .094.008c.124 0 .047.017.104-.032.104-.264-.163-.93-.244-1.187-.423-1.368-.16-2.3.657-3.39 1.396-1.86 2.835-1.702 3.554-2.39-.01-.208-.084-.406-.207-.53-.065-.153-.172-.275-.313-.315-.403-.12-4.393.27-5.498-1.103a.838.838 0 0 1-.043-.09c-.183-.43-.275-1.216.382-1.395.153-.044.385-.06.637-.065.405.005.837.037 1.103.058 1.192.09 2.354.3 3.432.622.697.208 1.56.5 1.878 1.156.433.89.362 2.62.17 3.807-.03.165-.063.325-.096.458-.57 2.2-1.913 3.756-3.406 4.668-1.836 1.127-4.49 1.232-6.517.24-.983-.483-1.655-1.115-2.214-1.836-.098-.12-.2-.26-.304-.41-.383-.61-.75-1.385-.828-2.152-.126-1.225.647-2.165 1.317-2.242.07.008.14.027.206.062.21.104.544.41.707.572.457.455 1.837 2.227 1.91 2.85-.086.18-.288.316-.446.373-1.256.42-2.48-1.973-2.814-2.15-.08.154-.125.31-.138.473zm4.38-7.48c-.203-.492-.565-1.542-.65-1.782-.367-1.038-1.685-4.54-1.372-5.514.08-.246.28-.48.568-.52.03.005.06.014.09.02.557.14.902 1.064 1.143 1.654.266.65.514 1.343.74 2.03l1.076 3.11c.08.236.21.553.295.826-.63-.055-1.602-.234-1.886.177zm4.066.053c.08-.26.243-.692.292-.834.117-.346.23-.667.35-1.01.24-.687.47-1.362.706-2.038.345-.985 1.083-3.373 1.96-3.5l.023-.003c.314.04.503.3.576.586.045.19.04.384.017.576-.028.134-.065.26-.1.382-.34 1.282-.884 2.9-1.335 4.15-.12.333-.232.664-.356 1-.107.294-.295.725-.36 1.006l-1.776-.313zm-6.42 4.598c-.253-.397-.52-.877-.66-1.322-.14-.448-.065-.684.156-.993.145-.2.423-.477.725-.57a.616.616 0 0 1 .11-.023c.55.07 1.076.728 1.257.972.323.432.69 1.054.958 1.595.27.558.554 1.177.76 1.804.073.22.177.49.17.74l-.025.064c-.114.247-.404.542-.812.432-.838-.228-2.02-1.803-2.548-2.563l-.09-.134zm4.515 1.373c-.13-.402-.39-1.166-.64-1.627l.906.236c.36.063.692.097 1.05.125l-.2.153c-.38.307-.48.457-.81.758-.094.09-.224.265-.308.356z"/></svg>