<svg xmlns="http://www.w3.org/2000/svg" width="36" height="36" viewBox="0 0 36 36" overflow="visible"><path fill="currentColor" d="M18 0C8.06 0 0 8.06 0 18s8.06 18 18 18c9.943 0 18-8.06 18-18S27.943 0 18 0zm.033 35.28C8.827 35.28.688 27.208.688 18 .688 8.792 8.794.656 18 .656 27.21.656 35.312 8.793 35.312 18s-8.068 17.28-17.28 17.28z"/><path fill="currentColor" d="M8 27h20V9H8v18zm1.758-1.75c0-2.006 0-5.353.002-8.5l16.48-.003v8.5l-16.48.003zm16.483-14.5v4.248H9.76v-4.243c3.494 0 12.99-.005 16.48-.005z"/><path fill="currentColor" d="M12 12h2v2h-2zM15.035 12h2v2h-2zM18.033 12h2v2h-2z"/></svg>