<svg xmlns="http://www.w3.org/2000/svg" width="36" height="36" viewBox="0 0 36 36" overflow="visible"><path fill="currentColor" d="M18 .625C27.208.625 35.333 8.797 35.333 18c0 9.208-8.125 17.334-17.333 17.334C8.794 35.334.667 27.208.667 18 .667 8.797 8.794.625 18 .625zM18 0C8.057 0 0 8.057 0 17.998 0 27.94 8.058 36 18 36c9.94 0 18-8.06 18-18.002C36 8.058 27.94 0 18 0z"/><path fill="currentColor" d="M13.476 13.677c-1.15 0-2.057.402-2.716 1.2-.66.798-.993 1.9-.993 3.313 0 1.473.32 2.587.954 3.345.635.753 1.554 1.13 2.757 1.13.52 0 1.028-.048 1.512-.15.487-.1.994-.23 1.52-.39v1.69c-.963.355-2.056.534-3.273.534-1.798 0-3.175-.533-4.138-1.6-.963-1.066-1.446-2.593-1.446-4.58 0-1.25.234-2.343.7-3.28a4.93 4.93 0 0 1 2.026-2.15c.886-.5 1.92-.75 3.114-.75 1.255 0 2.415.257 3.477.77l-.72 1.635c-.415-.19-.855-.358-1.314-.504a4.94 4.94 0 0 0-1.46-.214zm5.497-1.685h3.64c1.69 0 2.91.24 3.667.724.748.485 1.123 1.245 1.123 2.288 0 .703-.18 1.286-.555 1.753-.365.464-.898.757-1.59.88v.08c.857.16 1.493.477 1.9.945.4.464.61 1.104.61 1.9 0 1.078-.393 1.924-1.157 2.535-.77.605-1.842.914-3.203.914h-4.434V11.994zm2.007 4.968h1.93c.838 0 1.453-.134 1.835-.39.383-.26.578-.704.578-1.327 0-.56-.208-.972-.623-1.22-.415-.253-1.082-.382-1.985-.382h-1.732v3.32h-.003zm0 1.6v3.805h2.13c.838 0 1.472-.154 1.898-.472.43-.313.644-.814.644-1.494 0-.63-.22-1.094-.66-1.39-.432-.297-1.098-.45-1.984-.45H20.98z"/></svg>