<svg xmlns="http://www.w3.org/2000/svg" width="36" height="36" viewBox="0 0 36 36" overflow="visible"><path fill="currentColor" d="M18.005 6.006c-6.626 0-11.995 5.367-11.995 11.996 0 6.625 5.368 11.996 11.995 11.996 6.626 0 11.998-5.37 11.998-11.996 0-6.63-5.372-11.996-11.998-11.996zm10.117 10.327c-.138-.004-.276-.016-.42-.016-1.645 0-3.237.236-4.745.676a16.54 16.54 0 0 0-1.262-2.66c1.44-.91 2.7-2.06 3.803-3.342a10.185 10.185 0 0 1 2.624 5.344zm-3.556-6.197c-1.03 1.205-2.197 2.292-3.545 3.138-1.47-2.136-3.442-3.886-5.72-5.16.868-.236 1.763-.402 2.705-.402 2.51 0 4.778.93 6.562 2.424zm-10.888-1.44c2.508 1.172 4.68 2.954 6.253 5.205a15.655 15.655 0 0 1-7.26 1.776c-1.55 0-3.04-.26-4.456-.68a10.28 10.28 0 0 1 5.465-6.3zm-5.96 9.306c0-.615.076-1.205.18-1.79 1.518.446 3.113.715 4.775.715 2.868 0 5.57-.712 7.938-1.97.453.77.84 1.584 1.158 2.43-4.295 1.603-7.71 4.936-9.544 9.12a10.273 10.273 0 0 1-4.506-8.505zm5.61 9.11c1.68-3.905 4.838-7.027 8.834-8.532.39 1.37.602 2.82.602 4.316 0 1.592-.27 3.112-.712 4.562-1.243.532-2.608.83-4.047.83-1.695 0-3.27-.447-4.677-1.175zm10.234-.475c.27-1.207.45-2.45.45-3.738 0-1.64-.228-3.223-.657-4.714a15.68 15.68 0 0 1 4.35-.614c.184 0 .365.016.55.024.003.138.04.27.04.407 0 3.628-1.895 6.803-4.733 8.633z"/><path fill="currentColor" d="M18 0C8.06 0 0 8.057 0 18.002 0 27.942 8.06 36 18 36c9.943 0 18-8.057 18-17.998C36 8.057 27.943 0 18 0zm.006 35.292c-9.208 0-17.298-8.086-17.298-17.29C.708 8.792 8.792.625 18 .625 27.206.625 35.292 8.79 35.292 18c0 9.204-8.08 17.292-17.286 17.292z"/></svg>