<svg xmlns="http://www.w3.org/2000/svg" width="60" height="60" viewBox="0 0 60 60"><path fill="#26221F" d="M12.156 25.7c.305-.263.542-.496.805-.693 1.246-.924 2.814-.75 3.786.45.25.31.375.322.635.025.58-.66 1.313-1.044 2.21-1.052 1.48-.015 2.56.89 2.68 2.393.173 2.208.04 4.426.07 6.64.002.284-.12.41-.4.39-.043-.004-.087-.002-.13 0-1.69.06-1.683.06-1.69-1.62a304.62 304.62 0 0 0-.05-4.582c-.014-.635-.19-1.2-.93-1.337-.655-.122-1.336.312-1.6 1.028-.28.763-.26 1.57-.27 2.365-.018 1.196-.02 2.39.003 3.586.008.433-.12.568-.562.574-1.642.017-1.636.032-1.644-1.61a333.313 333.313 0 0 0-.05-4.582c-.01-.593-.103-1.177-.816-1.35-.658-.158-1.376.228-1.678.907-.286.642-.295 1.335-.303 2.022-.015 1.35-.023 2.703.002 4.052.008.445-.146.555-.57.56-1.67.017-1.67.03-1.67-1.642 0-2.302.012-4.606-.01-6.908-.005-.482.107-.716.62-.634.13.02.266.003.4.003.99 0 .99 0 1.163 1.02z"/><path fill="#FF9A00" d="M23.877 39.943c-5.656.19-10.68-1.726-15.417-4.603-.232-.142-.597-.287-.47-.632.124-.324.507-.24.77-.198 1.445.235 2.832.703 4.235 1.103 2.53.722 5.05 1.47 7.662 1.86 3.264.486 6.478.144 9.685-.482 1.908-.37 3.824-.705 5.737-1.056.02-.004.04-.01.062-.013.424-.06.963-.13 1.104.32.146.47-.37.7-.74.88-2.177 1.063-4.445 1.86-6.83 2.314-1.916.364-3.855.516-5.8.51z"/><path fill="#26221F" d="M31.318 29.717c-.025 1.254-.162 2.526.308 3.74.11.283.05.408-.273.397a16.31 16.31 0 0 0-1.327.002c-.322.015-.502-.108-.56-.423-.09-.506-.286-.473-.638-.174-.87.74-1.902.91-2.993.66-1.11-.258-1.76-1.08-1.874-2.294-.113-1.25.423-2.258 1.463-2.727.957-.43 2.01-.51 3-.82.288-.09.725-.054.7-.545-.024-.503-.13-.96-.708-1.148-.93-.303-1.583-.087-2.127.77-.112.178-.215.262-.42.214-.215-.05-.433-.086-.65-.13-1.187-.235-1.218-.333-.572-1.4.545-.9 1.392-1.25 2.375-1.37.307-.038.62-.05.927-.043 2.577.075 3.41.98 3.372 3.365-.008.642 0 1.283 0 1.924zm-2.203.564c.052-.83.052-.83-.782-.62-.427.11-.862.196-1.28.333-.714.234-1.006.757-.835 1.427.173.675.746 1.01 1.483.868.94-.183 1.34-.747 1.416-2.007zM7.302 29.7c.112 1.276-.086 2.573.41 3.808.113.277-.036.35-.288.346-.442-.008-.887-.018-1.328.003-.325.015-.5-.114-.55-.43-.083-.518-.29-.48-.638-.183-.893.762-1.94.934-3.055.662C.798 33.648.097 32.73.01 31.57c-.09-1.214.465-2.22 1.47-2.66.98-.432 2.054-.53 3.066-.848.275-.087.653-.065.642-.523-.012-.44-.09-.844-.52-1.075-.814-.438-1.833-.175-2.285.63-.155.276-.315.322-.583.255-.236-.058-.477-.095-.716-.143-.91-.183-.923-.217-.542-1.045.365-.79.948-1.32 1.8-1.544a6.092 6.092 0 0 1 3.213.014c1.074.293 1.66.967 1.73 2.084.067.992.017 1.99.017 2.984zm-2.114.55c-.17-.18.317-.764-.326-.697-.607.062-1.206.27-1.79.463-.69.23-.96.743-.8 1.385.162.65.72 1.004 1.414.903.987-.14 1.49-.814 1.502-2.052zM42.06 29.243c-.007-2.342 1.187-4.146 3.103-4.663 2.63-.71 5.123 1.017 5.456 3.786.103.864.07 1.724-.186 2.563-.626 2.065-2.35 3.227-4.55 3.07-1.94-.144-3.42-1.577-3.734-3.634-.055-.37-.062-.748-.09-1.124zm6.33.02c-.026-.55-.036-1.107-.27-1.62-.324-.714-.855-1.18-1.663-1.232-.79-.05-1.388.344-1.726 1.01-.61 1.216-.602 2.48.03 3.686.357.68.985 1.002 1.765.934.752-.065 1.26-.488 1.572-1.158.24-.51.263-1.067.293-1.618zM54.258 25.752c.287-.074.388-.29.545-.433.95-.87 2.042-1.128 3.26-.705 1.184.414 1.663 1.358 1.688 2.53.044 2.104.024 4.208.04 6.31 0 .274-.09.376-.38.403-1.854.173-1.854.182-1.854-1.657 0-1.35.01-2.7-.004-4.05-.014-1.2-.445-1.812-1.265-1.854-.95-.046-1.67.623-1.806 1.744-.205 1.676-.09 3.36-.086 5.043.002.594-.13.805-.764.783-1.428-.05-1.43-.014-1.43-1.432 0-2.368.018-4.738-.013-7.106-.008-.54.162-.732.676-.652.065.01.133 0 .198 0 1.08 0 1.08 0 1.2 1.074zM37.066 31.723h3.64c.842 0 .842 0 .842.873v.84c-1.268-1.19-2.702-.84-4.1-.62-.98.154-1.947.405-2.914.64-.37.092-.457-.01-.472-.37-.03-.706.096-1.303.586-1.884 1.21-1.434 2.34-2.935 3.5-4.405-.118-.238-.32-.14-.48-.144-.617-.01-1.236-.004-1.856-.003-1.55.002-1.54.003-1.414-1.558.025-.32.146-.415.446-.414 2.013.007 4.028.007 6.042 0 .3 0 .427.092.446.414.043.77-.063 1.438-.618 2.073-1.163 1.332-2.238 2.74-3.348 4.12-.08.097-.146.21-.3.438z"/><path fill="#FF9A00" d="M38.61 33.588c1.726-.012 2.13.554 1.498 2.162-.456 1.164-1.097 2.222-2.06 3.046-.254.214-.553.477-.887.236-.35-.256-.114-.62.003-.907.262-.633.593-1.236.85-1.87.26-.625.117-.856-.54-.962-.84-.133-1.672.025-2.51.08-.15.01-.305.05-.458.047-.245-.002-.52-.016-.605-.3-.092-.313.138-.497.38-.622.58-.296 1.224-.372 1.845-.523.818-.198 1.635-.404 2.484-.387zM4.964 49.53c-.598.487-1.203.805-1.952.806-1.15 0-1.898-.575-1.966-1.562-.083-1.178.54-1.916 1.74-2.063.492-.06.985-.12 1.477-.165.348-.03.614-.163.7-.514.083-.34-.055-.62-.323-.825-.685-.53-1.93-.273-2.248.528-.18.454-.482.334-.755.313-.426-.026-.27-.376-.24-.602.093-.697.686-1.22 1.615-1.363.564-.09 1.138-.092 1.704.093.99.32 1.263.658 1.268 1.688.005.86-.012 1.723.007 2.585.01.4-.2.933.54.98.22.012.135.3.147.47.016.235-.153.312-.34.353-.647.148-1.117-.074-1.372-.718zm-1.845-.11c1.19-.024 1.954-.812 1.847-1.78-.026-.235-.04-.396-.364-.322-.555.13-1.126.19-1.684.314-.56.127-.877.485-.76 1.077.11.562.56.694.96.71zM36.938 49.54c-.59.48-1.196.795-1.945.796-1.15 0-1.896-.58-1.962-1.567-.077-1.18.544-1.914 1.75-2.06.49-.06.98-.12 1.476-.167.382-.036.66-.198.705-.6.04-.368-.14-.64-.474-.82-.8-.425-1.7-.163-2.137.69-.197.383-.485.236-.736.23-.373-.004-.267-.314-.248-.53.097-.976 1.07-1.528 2.572-1.475 1.285.045 2.003.593 2.025 1.59.022 1.044.002 2.088.007 3.134 0 .282-.04.612.394.618.318.005.283.23.298.438.02.26-.12.368-.35.433-.522.154-.958-.05-1.374-.713zm-1.83-.12c1.182-.023 1.948-.81 1.843-1.777-.02-.235-.032-.4-.36-.325-.555.127-1.13.188-1.684.312-.56.127-.876.485-.764 1.078.11.565.565.695.968.713zM45.588 47.505c-.493 0-.996.037-1.483-.01-.565-.055-.684.17-.536.66.18.606.474 1.107 1.16 1.225.7.122 1.297-.048 1.72-.653.14-.204.18-.515.534-.47.22.032.505-.116.646.12.118.188-.038.403-.128.588-.486 1.004-1.458 1.47-2.823 1.364-.98-.077-1.844-.775-2.155-1.787a4.203 4.203 0 0 1 .028-2.61c.473-1.408 1.806-2.16 3.202-1.83 1.405.337 2.183 1.502 2.053 2.998-.033.38-.21.41-.5.408-.575-.01-1.148-.005-1.722-.005zm-.484-.82c.368 0 .732-.02 1.097.003.523.032.554-.188.4-.61-.213-.594-.574-.982-1.21-1.08-.657-.095-1.18.158-1.553.69-.176.25-.392.55-.23.858.142.273.473.112.717.134.26.018.523.005.78.005zM18.473 47.207c-.006-1.252.333-2.363 1.544-2.926 1.03-.48 2.09-.393 3.022.33 1.052.81 1.307 2.826.573 4.35-.54 1.12-1.81 1.655-3.2 1.346-1.25-.28-1.94-1.384-1.94-3.098zm4.402-.084c0-.227.016-.41-.002-.59-.09-.88-.616-1.47-1.38-1.563-.89-.108-1.452.248-1.772 1.176-.27.792-.266 1.592.066 2.367.28.652.8.928 1.498.913.68-.013 1.13-.34 1.366-.974.164-.438.288-.89.225-1.33zM15.35 50.35c-1.42 0-2.166-.45-2.42-1.49-.048-.194-.255-.518.114-.57.286-.042.646-.21.875.237.483.95 1.445 1.223 2.33.726.297-.167.495-.403.48-.747-.02-.32-.25-.516-.54-.604-.647-.194-1.305-.353-1.948-.556-.717-.23-1.263-.617-1.24-1.484.02-.795.47-1.402 1.276-1.684 1.246-.437 2.645-.034 3.106.91.126.26.37.635.01.802-.267.126-.707.205-.92-.28-.317-.725-.98-.69-1.61-.623-.387.04-.72.21-.763.65-.04.414.253.628.584.735.644.207 1.313.326 1.95.55 1.036.368 1.39 1.168 1.023 2.18-.304.83-1.07 1.242-2.31 1.247zM9.66 50.347c-1.362-.003-2.04-.395-2.34-1.384-.067-.22-.3-.566.056-.663.286-.075.69-.24.92.272.406.9 1.398 1.166 2.286.694.3-.16.508-.39.505-.73-.002-.362-.272-.562-.584-.655-.645-.194-1.308-.337-1.95-.546-.683-.226-1.207-.612-1.194-1.44.01-.798.45-1.418 1.245-1.708 1.263-.458 2.708-.033 3.155.945.112.247.346.606.023.754-.27.123-.713.234-.934-.246-.364-.793-1.07-.725-1.75-.63-.32.048-.59.238-.64.6-.054.378.18.604.482.724.385.153.79.26 1.193.358 1.695.405 2.113.843 1.953 2.08-.133 1.016-1.004 1.58-2.43 1.58zM51.096 50.347c-1.41.004-2.106-.4-2.396-1.42-.058-.21-.307-.553.1-.636.28-.054.646-.21.872.244.452.902 1.296 1.185 2.194.79.33-.147.594-.365.61-.747.018-.41-.285-.606-.615-.71-.62-.194-1.26-.328-1.875-.523-.72-.23-1.262-.623-1.236-1.488.024-.793.474-1.397 1.282-1.677 1.25-.44 2.647-.03 3.104.914.125.262.37.633.005.8-.273.123-.702.195-.92-.287-.342-.754-1.033-.69-1.69-.604-.352.045-.644.238-.68.644-.033.375.216.6.52.7.64.206 1.304.345 1.947.552.688.222 1.205.59 1.184 1.437-.02.893-.395 1.52-1.174 1.84-.4.166-.814.168-1.23.17zM24.756 47.216c-.004-2.172 1.134-3.332 3.114-3.183.963.073 1.695.686 1.873 1.602.038.197.22.522-.133.577-.29.045-.703.22-.87-.254-.174-.496-.446-.88-1.013-.965-.973-.15-1.68.487-1.848 1.67-.217 1.506.306 2.604 1.29 2.717.73.088 1.19-.266 1.482-.897.077-.16.138-.412.26-.45.236-.074.548-.108.76-.01.26.123.084.414.027.626-.33 1.163-1.31 1.774-2.667 1.67-1.206-.095-2.16-1.096-2.277-2.396-.02-.238 0-.473 0-.71zM39.77 47.372v-1.566c.005-.39.088-.82-.542-.795-.258.01-.236-.227-.234-.406 0-.148-.027-.39.16-.38.8.04.59-.524.62-.958.024-.33-.16-.745.473-.764.657-.02.542.39.547.772.004.476-.152 1.056.69.936.262-.037.244.21.246.39.006.218-.002.453-.31.42-.63-.07-.642.315-.635.778.02.914.015 1.83.003 2.745-.008.41.07.76.547.783.38.02.396.22.398.513.003.356-.24.34-.472.37-1.054.133-1.466-.21-1.485-1.264-.012-.523-.003-1.048-.003-1.57zM30.76 47.175c0-.834.02-1.67-.007-2.505-.02-.482.256-.46.595-.477.372-.016.493.112.49.49a245.89 245.89 0 0 0 0 5.008c.006.39-.14.49-.502.48-.352-.01-.6-.02-.585-.487.03-.835.01-1.67.01-2.507zM30.196 41.004c.104.505-.188.523-.564.542-.52.024-.455-.295-.488-.634-.04-.485.22-.498.593-.52.523-.03.493.284.46.612z"/><path fill="#FAFAF9" d="M29.115 30.28c-.078 1.26-.476 1.825-1.414 2.01-.735.144-1.31-.194-1.48-.87-.17-.67.12-1.193.833-1.426.417-.138.853-.222 1.28-.33.835-.215.835-.215.783.617zM5.188 30.25c-.01 1.24-.514 1.91-1.5 2.053-.697.102-1.253-.252-1.415-.9-.16-.643.11-1.156.8-1.386.583-.195 1.183-.4 1.79-.463.642-.07.154.516.325.696zM48.387 29.264c-.027.55-.052 1.106-.29 1.618-.312.67-.82 1.09-1.572 1.157-.78.066-1.407-.256-1.765-.936-.633-1.206-.642-2.47-.028-3.685.338-.668.938-1.06 1.726-1.01.808.053 1.34.52 1.664 1.232.232.513.24 1.07.265 1.62z"/><path fill="#FBFBFB" d="M22.875 47.123c.063.438-.06.89-.226 1.33-.237.633-.688.96-1.368.975-.696.013-1.22-.263-1.497-.912-.333-.778-.335-1.577-.064-2.37.32-.927.88-1.283 1.774-1.175.763.097 1.29.688 1.38 1.564.016.18 0 .366 0 .59z"/></svg>