<svg version="1.1" id="Layer_1" xmlns="http://www.w3.org/2000/svg" xmlns:xlink="http://www.w3.org/1999/xlink" x="0px" y="0px"
	 width="60" height="60" viewBox="0 0 60 60" style="enable-background:new 0 0 60 60;" xml:space="preserve">
<style type="text/css">
	.st0{fill:#F8C744;}
	.st1{fill:#57BCF3;}
	.st2{fill:#DF4957;}
	.st3{fill:#AD3742;}
</style>
<path class="st0" d="M27,6.9L5.9,15.7c-1.2,0.5-1.2,2.2,0,2.6l21.2,8.4c1.9,0.7,3.9,0.7,5.8,0l21.2-8.4c1.2-0.5,1.2-2.1,0-2.6
	L33,6.9C31.1,6.1,28.9,6.1,27,6.9"/>
<path class="st1" d="M31.9,31.3v21c0,1,1,1.7,1.9,1.3l23.6-9.2c0.5-0.2,0.9-0.7,0.9-1.3v-21c0-1-1-1.7-1.9-1.3L32.8,30
	C32.2,30.2,31.9,30.7,31.9,31.3"/>
<path class="st2" d="M26.3,32.3l-7,3.4l-0.7,0.3L3.8,43.2c-0.9,0.5-2.1-0.2-2.1-1.3V22.2c0-0.4,0.2-0.7,0.5-0.9
	C2.3,21.1,2.4,21,2.5,21c0.4-0.2,0.9-0.3,1.3-0.1l22.4,8.9C27.4,30.2,27.5,31.8,26.3,32.3"/>
<path class="st3" d="M26.3,32.3l-7,3.4L2.2,21.2C2.3,21.1,2.4,21,2.5,21c0.4-0.2,0.9-0.3,1.3-0.1l22.4,8.9
	C27.4,30.2,27.5,31.8,26.3,32.3"/>
</svg>
