<svg xmlns="http://www.w3.org/2000/svg" width="60" height="60" viewBox="0 0 60 60"><path fill="#556" d="M55.417 40.357c-6.767.002-13.533.016-20.3.002-3.575-.01-6.205-1.745-8.192-4.606-.24-.346-.5-.68-.75-1.02-.27-.843-.77-1.56-1.236-2.296-.87-1.882-1.75-3.762-3.118-5.35-1.875-2.177-4.76-2.248-6.812-.223-1.08 1.068-1.76 2.39-2.454 3.707-1.333 2.536-2.51 5.174-4.635 7.2-.76.648-1.535 1.287-2.46 1.69-.655.29-1.34.52-2.01.775-.693.04-1.39.102-2.084.115-.91.027-1.347-.34-1.365-1.09-.02-.772.44-1.247 1.33-1.25a7.59 7.59 0 0 0 2.575-.444c2.416-.88 3.72-2.847 4.896-4.948 1.103-1.97 1.97-4.067 3.268-5.93 1.07-1.54 2.35-2.813 4.243-3.34 2.873-.797 5.815.163 7.62 2.545a20.898 20.898 0 0 1 2.25 3.68c.49.867.768 1.854 1.474 2.597.228.9.797 1.622 1.315 2.354 1.566 2.215 3.61 3.586 6.446 3.48.965-.037 1.93-.005 2.894-.008 4.1-.012 8.196-.02 12.296-.034.052.015.107.02.15.048 1.426.87 2.844 1.756 4.522 2.078.06.012.093.174.14.265z"/><path fill="#ABB7DD" d="M55.417 40.357c-.046-.092-.078-.254-.14-.268-1.68-.324-3.098-1.21-4.52-2.08-.045-.027-.103-.033-.153-.048-.194-.217-.375-.45-.588-.646a18.81 18.81 0 0 1-3.972-5.17c-.616-1.172-1.04-2.447-1.896-3.5-1.096-1.35-1.877-1.362-2.86.08-.57.836-1.063 1.723-1.716 2.506-1.45 1.752-3.78 1.88-5.424.332-.953-.898-1.5-2.066-2.23-3.114-.698-1.008-1.646-.97-2.274.076-.37.615-.644 1.282-.965 1.92-.3.593-.316 1.376-1.03 1.725-.705-.742-.983-1.727-1.473-2.595.612-.113.57-.708.762-1.1.534-1.093 1.076-2.137 2.252-2.707 1.626-.788 3.436-.392 4.496 1.082.56.78 1.06 1.605 1.6 2.4.878 1.3 1.854 1.315 2.78.05.63-.86 1.094-1.83 1.818-2.638 2.023-2.257 4.55-1.58 6.152.453.786.997 1.25 2.168 1.807 3.29 1.152 2.32 2.53 4.466 4.74 5.956 1.422.963 2.932 1.627 4.686 1.61.45-.007.91-.058 1.323.22.732.486.79 1.754.004 1.976-1.018.285-2.098.573-3.183.192zM3.452 40.244c.67-.256 1.354-.485 2.01-.773.924-.404 1.698-1.04 2.46-1.69.16.256.422.19.655.19 2.922.002 5.846.05 8.767-.025 1.335-.034 2.587-.5 3.733-1.256 1.657-1.093 2.71-2.708 3.862-4.247.466.736.964 1.453 1.234 2.295-2.25 3.308-5.175 5.54-9.336 5.605-4.288.068-8.576.025-12.864.03-.183 0-.38.036-.524-.128z"/></svg>