<!DOCTYPE svg PUBLIC "-//W3C//DTD SVG 1.1//EN" "http://www.w3.org/Graphics/SVG/1.1/DTD/svg11.dtd" [
	<!ENTITY ns_flows "http://ns.adobe.com/Flows/1.0/">
]><svg xmlns="http://www.w3.org/2000/svg" width="60" height="60" viewBox="0 0.1 60 60" overflow="visible"><path fill-rule="evenodd" clip-rule="evenodd" fill="#7BB312" d="M18.955 4.85c3.6-1.55 9.796-1.61 13.382 0 .98-1.102 1.937-2.57 2.817-3.885.265-.394.47-1.217 1.175-.89.227 1.046-.72 1.873-1.254 2.67-.562.84-1.118 1.722-1.645 2.51 4.19 2.49 7.805 5.58 8.453 11.734-10.617.133-21.782.133-32.4 0 .673-6.105 4.17-9.285 8.453-11.655-.442-.9-1.086-1.674-1.643-2.51-.532-.797-1.308-1.62-1.33-2.67.86-.438 1.587 1.165 2.27 2.185.673 1.013 1.226 2.082 1.72 2.51zm-1.957 5.503c-.25 2.665 3.09 2.628 3.6.81.442-1.576-.897-2.692-2.27-2.348-.846.213-1.268.867-1.33 1.538zm13.93.324c.103 2.382 3.72 2.32 3.68-.163-.02-1.157-.816-2.083-2.35-1.7-.85.215-1.376.794-1.33 1.863zM3.146 18.855c1.683-.23 3.294.83 3.835 2.113.743 1.758.314 6.293.314 8.61v4.46c0 1.22.146 3.15-.234 4.226-.522 1.473-1.83 2.398-3.366 2.427C2.04 40.72.6 39.48.172 38.188-.07 37.45.016 35.284.016 33.96v-8.61c0-3.376-.11-6.053 3.13-6.495zM47.284 18.855c1.565-.196 3.38.784 3.915 2.35.39 1.142.153 2.7.153 4.302v8.767c0 1.446.074 3.397-.235 4.147-.524 1.28-1.992 2.063-2.66 2.19a3.643 3.643 0 0 1-4.15-2.27c-.377-1.02-.232-2.71-.232-4.302v-8.922c0-1.558-.112-3.14.312-4.148.414-.986 1.423-1.926 2.894-2.112zM9.64 19.31h32.244c.143 7.28.078 16.084.078 24.037 0 1.145.146 2.508-.157 3.258-.774 1.937-3.392 1.79-5.868 1.706-.448 3.108.697 6.737-.235 9.307-1.12 3.09-6.11 2.993-6.964-.232-.392-1.48-.08-3.1-.08-4.498 0-1.483.067-2.91-.078-4.497-1.72-.184-3.782-.026-5.634-.078-.145 1.584-.078 3.087-.078 4.65 0 1.45.324 3.162-.157 4.576-1.014 2.982-5.81 3.216-6.886.078-.888-2.59.18-6.184-.234-9.305-2.644.1-5.06.2-5.87-1.704-.633-1.482-.235-4.398-.235-6.592v-20.47c.067-.064.045-.213.156-.234z"/></svg>