<svg xmlns="http://www.w3.org/2000/svg" width="60" height="60" viewBox="0 0 60 60"><path fill-rule="evenodd" clip-rule="evenodd" fill="#0694F8" d="M-689.57-12.6c-.233 3.35.88 6.8-.737 10.05-.07-3.373-.485-6.772.738-10.05z"/><g fill-rule="evenodd" clip-rule="evenodd"><circle fill="#00A8FF" cx="27.966" cy="32.034" r="27.966"/><path fill="#3A96EF" d="M55.16 38.8c.008-.032.018-.065.026-.1-.008.034-.018.068-.027.1z"/><path fill="#FEFEFE" d="M35.763 36.57l.35.646c-.142.006-.257.016-.373.016-4.995.008-9.99.015-14.985.02-.095 0-.225.05-.28-.044-.055-.097.064-.177.106-.264.087-.18.244-.32.28-.526.896-1.326 1.69-2.715 2.53-4.076.358-.58.696-1.17 1.044-1.752a.448.448 0 0 1 .43-.242c2.287.003 4.574 0 6.862-.014.208-.002.314.07.417.243 1.09 1.828 2.188 3.653 3.285 5.478.062.104.132.203.198.305.02.09.06.166.148.207l-.01.003zM24.59 28.513c-.797 1.302-1.597 2.6-2.388 3.903a3338.958 3338.958 0 0 0-5.67 9.384c-.136.223-.222.258-.445.103-1.07-.747-2.147-1.48-3.232-2.203-.208-.14-.034-.238.01-.316.517-.896 1.045-1.783 1.574-2.672 1.007-1.7 2.017-3.402 3.03-5.104.847-1.427 1.7-2.85 2.542-4.278.326-.55.633-1.114.955-1.67.073-.126.124-.278.342-.134 1.16.768 2.332 1.52 3.5 2.28.056.036.113.073.12.15-.14.17-.264.353-.34.562l-.002-.005zM38.28 32.934c-.01.044-.022.088-.034.13-.78.45-1.57.886-2.342 1.353-.244.148-.357.134-.52-.113-1.287-1.97-2.454-4.01-3.556-6.085-.726-1.368-1.424-2.748-2.135-4.12-.372-.797-.753-1.59-1.116-2.388-.896-1.964-1.874-3.892-2.538-5.955-.186-.572-.35-1.153-.33-1.764.02-.51.26-.66.723-.436.5.243.885.636 1.245 1.048 1.09 1.25 1.947 2.666 2.8 4.08 2.26 3.734 4.308 7.586 6.338 11.45l1.443 2.74c0 .02.005.04.02.058zM45.833 30.532c0 2.096-.007 4.192.01 6.288 0 .307-.053.417-.392.41-1.27-.02-2.54-.01-3.81.007-.236.002-.35-.074-.45-.286-.976-2.024-1.963-4.045-2.948-6.065-.052-.11-.117-.213-.177-.32-.106-.24.092-.17.188-.17.78-.007 1.556-.006 2.335-.01 1.646-.007 3.29-.018 4.934-.024.128 0 .306-.063.313.173zM17.026 30.502c-.78 1.297-1.564 2.592-2.343 3.89-.528.877-1.056 1.754-1.57 2.64-.11.187-.227.26-.448.257a46.466 46.466 0 0 0-2.24 0c-.274.007-.333-.087-.333-.34.002-2.028-.006-4.057-.013-6.086-.003-.09-.01-.177-.013-.267 0-.17.062-.247.256-.245 2.178.02 4.356.033 6.535.048.075.002.164-.02.166.102zM27.287 23.91c-.03.05-.06.11-.095.167-.622 1.017-1.248 2.033-1.862 3.054-.11.184-.193.223-.385.094A292.91 292.91 0 0 0 21.6 25.01c-.14-.093-.145-.154-.06-.287a327.32 327.32 0 0 0 1.986-3.113c.088-.14.15-.177.305-.073 1.094.73 2.195 1.45 3.29 2.178.07.045.173.07.168.195zM39.26 34.88c.43.877.854 1.757 1.297 2.626.104.204.084.3-.115.417-.632.373-1.257.76-1.874 1.157-.194.125-.272.08-.382-.103-.73-1.235-1.473-2.463-2.212-3.693-.056-.138.03-.198.133-.257.767-.443 1.534-.887 2.295-1.342.17-.104.22-.03.29.108.184.366.377.725.567 1.088zM25.664 19.807c.878.11 1.66.605 2.167 1.5.254.446.1.913-.05 1.358-.234.7-.24.696-.84.306-.97-.627-1.944-1.26-2.923-1.88-.11-.07-.098-.125-.068-.21.2-.56.972-1.086 1.715-1.072z"/><path fill="#206FE1" d="M55.798 31.252c-.028.02-.054.05-.07.046-.022-.006-.048-.04-.05-.063-.005-.044.022-.083.073-.066.02.004.03.045.05.08zM38.28 32.934a.086.086 0 0 1-.02-.06c.013.01.024.022.032.036.004.005-.006.015-.01.024z"/><path fill="#FEFEFE" d="M43.115 47.565c-.563.01-.984-.237-1.303-.688-.69-.98-1.18-2.065-1.643-3.164-.47-1.117-.826-2.275-1.246-3.41-.115-.31-.056-.467.24-.625a24.343 24.343 0 0 0 1.56-.94c.218-.138.35-.118.522.09 1.04 1.252 1.938 2.603 2.774 3.996.365.61.724 1.228 1.07 1.85.565 1.014.23 2.065-.824 2.6-.36.184-.745.288-1.15.29zM10.882 47.05c.373-1.704.738-3.368 1.1-5.033.092-.427.168-.857.25-1.287.035-.173.074-.252.272-.112 1.042.73 2.095 1.445 3.145 2.167.145.102.217.18.02.34-1.56 1.278-3.112 2.57-4.667 3.857-.025.02-.057.032-.122.07z"/></g></svg>