<!DOCTYPE svg PUBLIC "-//W3C//DTD SVG 1.1//EN" "http://www.w3.org/Graphics/SVG/1.1/DTD/svg11.dtd" [
	<!ENTITY ns_flows "http://ns.adobe.com/Flows/1.0/">
]><svg xmlns="http://www.w3.org/2000/svg" width="60" height="60" viewBox="0 -11.137 60 60" overflow="visible"><path fill-rule="evenodd" clip-rule="evenodd" fill="#247FB2" d="M.292 0h48.583v48.863H.012V.838C-.012.442-.034.046.292 0zm37.135 36.857c-1.355-1.166-2.12-4.457-3.07-6.98C31.703 22.84 28.04 12.65 25.98 7.26a7.08 7.08 0 0 1-2.234.558c-1.997 4.844-3.93 10.045-5.864 15.08-1.938 5.037-3.516 10.327-6.7 14.238-.69.708-2.93-.137-2.514 1.676 2.27.78 9.655 1.223 11.168-.28-.136-1.632-3.138-.397-3.35-1.953.55-2.897 1.196-5.69 2.512-7.82h8.097c1.01 2.527 2.2 4.872 2.792 7.82-.13 1.543-3.202.146-2.792 2.23 1.305 1 4.292.56 6.702.56 2.227 0 5.76.654 6.42-.84-.15-1.41-1.92-.927-2.79-1.674z"/><path fill-rule="evenodd" clip-rule="evenodd" fill="#247FB2" d="M22.63 16.753c1.737 2.635 2.413 6.334 3.628 9.493h-6.7c.862-3.326 2.224-6.152 3.07-9.493z"/></svg>