<svg width="60" height="60" viewBox="0 0 60 60" fill="none" xmlns="http://www.w3.org/2000/svg">
<path d="M20.8781 0.444546C20.9795 0.444546 21.081 0.444546 21.1824 0.444546C21.4078 0.536158 21.6278 0.639777 21.8594 0.717646C29.3289 3.2285 36.7959 5.74499 44.2766 8.23083C44.9024 8.43882 45.0899 8.68504 45.0879 9.25565C45.0624 16.5876 45.0774 23.9196 45.0578 31.2516C45.0564 31.774 45.1706 31.9738 45.8331 31.9534C47.5291 31.9013 49.2291 31.9445 50.9249 31.8901C51.5245 31.8708 51.6322 32.03 51.6262 32.5033C51.5981 34.6852 51.6494 36.8681 51.5919 39.0492C51.5749 39.6946 51.8786 39.8483 52.5127 39.9209C54.7925 40.1818 57.0661 40.4823 59.3456 40.7451C59.8154 40.7992 60.0151 40.9045 59.9991 41.3686C59.9522 42.7203 59.9504 44.0749 59.9989 45.4265C60.0173 45.9383 59.8244 46.188 59.2974 46.414C49.6707 50.5425 40.0548 54.6896 30.4331 58.8267C30.2582 58.9019 30.0778 59.1252 29.8372 58.9063C30.0731 58.6873 30.0046 58.414 30.005 58.1584C30.0094 55.6737 29.9887 53.1887 30.0223 50.7043C30.0298 50.1525 29.8206 49.9102 29.2145 49.7268C21.2189 47.3066 13.2309 44.8678 5.24744 42.4179C3.60613 41.9142 1.93161 41.4861 0.339264 40.8668C1.0073 40.7709 1.67753 40.6849 2.34294 40.5769C3.59741 40.3733 4.8871 40.3484 6.11732 40.0236C6.13027 40.3519 6.39887 40.4441 6.70822 40.5222C7.87352 40.8164 9.03296 41.1279 10.1992 41.4191C11.1244 41.6502 11.1393 41.6367 11.1394 40.8186C11.1406 30.8777 11.1406 20.9368 11.1376 10.996C11.1375 10.7404 11.2065 10.4674 10.9759 10.2459C11.1499 10.0715 11.3393 10.1871 11.5277 10.2206C12.3581 10.3685 13.1893 10.5125 14.0203 10.6579C14.0238 10.8979 14.0302 11.1379 14.0305 11.3779C14.0409 21.4842 14.0564 31.5906 14.0453 41.6969C14.0447 42.2467 14.2699 42.4537 14.8492 42.5926C16.6547 43.0255 18.4558 43.4772 20.2356 43.9817C20.9194 44.1755 21.0418 44.0366 21.0412 43.464C21.0274 29.4065 21.0307 15.349 21.028 1.29154C21.0279 1.03537 21.094 0.761911 20.8583 0.542667C20.8433 0.506727 20.8499 0.47402 20.8781 0.444546ZM30.007 40.2024C30.007 38.3265 29.9783 36.4502 30.0234 34.5752C30.0381 33.9631 29.7582 33.7843 29.1128 33.7372C27.551 33.6233 25.9873 33.5015 24.4374 33.3059C23.7852 33.2236 23.5991 33.3249 23.6048 33.9C23.639 37.324 23.655 40.7485 23.6285 44.1725C23.624 44.7548 23.8828 44.9646 24.4773 45.1076C26.0861 45.4946 27.6866 45.9096 29.2762 46.3515C29.8441 46.5094 30.0285 46.4447 30.0194 45.8951C29.9877 43.9979 30.0072 42.1 30.007 40.2024Z" fill="#6FA54B"/>
<path d="M14.0202 10.6579C14.0237 10.8979 14.0301 11.1379 14.0304 11.3779C14.0408 21.4842 14.0564 31.5906 14.0453 41.6969C14.0447 42.2467 14.2698 42.4537 14.8491 42.5926C16.6546 43.0255 18.4557 43.4772 20.2355 43.9817C20.9193 44.1755 21.0417 44.0366 21.0411 43.464C21.0273 29.4065 21.0306 15.349 21.0279 1.29153C21.0279 1.03538 21.0939 0.761899 20.858 0.54277C18.7743 1.43117 16.698 2.33237 14.6016 3.1977C14.138 3.38907 14.0143 3.62454 14.0187 4.04858C14.0414 6.25151 14.0238 8.45474 14.0202 10.6579Z" fill="#37592C"/>
<path d="M29.2145 49.7267C21.2189 47.3065 13.2308 44.8678 5.24739 42.4179C3.60609 41.9142 1.93153 41.4861 0.33928 40.8668C0.0164423 40.8082 0.0447182 41.1209 0.0429095 41.269C0.0256159 42.6855 0.0611868 44.1029 0.0164456 45.5185C0.00153187 45.9909 0.215306 46.1982 0.669318 46.3924C6.41717 48.8502 12.1555 51.3244 17.8985 53.7907C21.8763 55.499 25.8575 57.2013 29.8372 58.9063C30.0731 58.6873 30.0045 58.414 30.005 58.1584C30.0094 55.6737 29.9886 53.1887 30.0223 50.7043C30.0297 50.1525 29.8206 49.9102 29.2145 49.7267Z" fill="#37592C"/>
<path d="M6.11727 40.0236C6.13022 40.3519 6.39883 40.4441 6.70814 40.5222C7.87345 40.8164 9.03291 41.1278 10.1992 41.4191C11.1243 41.6502 11.1393 41.6367 11.1394 40.8186C11.1405 30.8777 11.1406 20.9368 11.1376 10.9959C11.1375 10.7404 11.2065 10.4674 10.9756 10.246C9.60445 10.6885 8.24432 11.1588 6.85719 11.5599C6.2824 11.7261 6.10112 11.9507 6.10242 12.4819C6.12467 21.6624 6.11781 30.843 6.11727 40.0236Z" fill="#37592C"/>
<path d="M23.6285 44.1725C23.624 44.7548 23.8827 44.9646 24.4772 45.1076C26.086 45.4946 27.6865 45.9096 29.2761 46.3515C29.844 46.5094 30.0285 46.4447 30.0193 45.8951C29.9876 43.9979 30.0071 42.1 30.007 40.2024C30.0069 38.3265 29.9783 36.4502 30.0233 34.5752C30.038 33.9631 29.7581 33.7843 29.1128 33.7372C27.551 33.6233 25.9872 33.5015 24.4373 33.3059C23.7852 33.2236 23.599 33.3249 23.6048 33.9C23.6389 37.324 23.6549 40.7485 23.6285 44.1725Z" fill="#37592C"/>
</svg>
