<!DOCTYPE svg PUBLIC "-//W3C//DTD SVG 1.1//EN" "http://www.w3.org/Graphics/SVG/1.1/DTD/svg11.dtd" [
	<!ENTITY ns_flows "http://ns.adobe.com/Flows/1.0/">
]><svg xmlns="http://www.w3.org/2000/svg" width="60" height="60" viewBox="0 -1 60 60" overflow="visible"><path fill-rule="evenodd" clip-rule="evenodd" fill="#00325B" d="M11.836 28.84c-1.362.765-2.728 1.526-4.056 2.325v4.19c2.672 1.48 5.3 3.01 7.946 4.517 1.25-.76 2.543-1.463 3.825-2.193 1.278-.73 2.57-1.443 3.794-2.228-1.854-1.183-3.836-2.184-5.736-3.307-1.914-1.13-3.857-2.195-5.77-3.306z"/><path fill-rule="evenodd" clip-rule="evenodd" fill="#00325B" d="M44.05 25.01c-.968-.554-1.926-1.118-2.902-1.67-2.895-1.634-5.874-3.235-8.737-4.91-.957-.56-1.9-1.157-2.867-1.702-1.445-.815-2.887-1.684-4.32-2.488-.486-.273-.97-.637-1.45-.85-.116-.053-.27-.045-.396-.1-.23-.1-.45-.288-.692-.425-1.23-.695-2.437-1.38-3.66-2.062a42.86 42.86 0 0 1-1.45-.852c-1.928-1.172-3.96-2.206-5.837-3.337-.96-.58-1.956-1.09-2.935-1.637C5.873 3.336 3.005 1.546.033 0v26.582c.667-.28 1.31-.648 1.946-1.015.637-.368 1.26-.78 1.91-1.146 1.296-.73 2.64-1.412 3.857-2.224.043-2.99-.087-6.138.066-9.002 2.64 1.503 5.284 3.003 7.913 4.518 2.548-1.463 5.068-2.955 7.682-4.353.007-.05.054-.006.065.032v8.74c5.262 2.993 10.542 5.967 15.694 9.068.096 1.27-.13 2.687 0 3.96.015.15.087.283.098.427.055.697-.033 1.46-.033 2.193 0 2.25.028 4.507-.032 6.612-.365-.057-.647-.317-.956-.49-1.002-.56-1.973-1.112-2.968-1.67-1.317-.737-2.608-1.547-3.958-2.227-.202-.32-.588-.438-.89-.622-.32-.193-.663-.364-.99-.555-1.967-1.15-3.927-2.284-5.934-3.34-.077 2.87-.01 5.882-.033 8.807 1.94 1.125 3.91 2.207 5.87 3.34 1.943 1.123 3.934 2.194 5.87 3.338a299.973 299.973 0 0 0 5.834 3.372c1.712.96 3.504 1.912 5.145 2.913.214.132.447.338.724.327V26.68c-.895-.653-1.91-1.12-2.87-1.67z"/><path fill-rule="evenodd" clip-rule="evenodd" fill="#0092CC" d="M35.105 28.84c1.363.765 2.73 1.526 4.058 2.325v4.19c-2.674 1.48-5.303 3.01-7.95 4.517-1.25-.76-2.545-1.463-3.83-2.193-1.275-.73-2.568-1.443-3.793-2.228 1.856-1.183 3.84-2.184 5.74-3.307 1.916-1.13 3.86-2.195 5.775-3.306z"/><path fill-rule="evenodd" clip-rule="evenodd" fill="#0092CC" d="M2.87 25.01c.968-.554 1.927-1.118 2.904-1.67 2.896-1.634 5.878-3.235 8.744-4.91.96-.56 1.903-1.157 2.87-1.702 1.447-.815 2.89-1.684 4.323-2.488.49-.273.973-.637 1.454-.85.116-.053.272-.045.396-.1.228-.1.45-.288.692-.425 1.23-.695 2.438-1.38 3.662-2.062.493-.275.98-.565 1.452-.852 1.93-1.172 3.96-2.206 5.84-3.337.963-.58 1.958-1.09 2.937-1.637C41.078 3.336 43.945 1.543 46.92 0v26.58c-.668-.278-1.31-.647-1.947-1.014-.64-.368-1.264-.78-1.914-1.146-1.3-.73-2.643-1.414-3.86-2.226-.046-2.99.085-6.138-.068-9.002-2.642 1.503-5.287 3.003-7.917 4.518-2.55-1.464-5.073-2.956-7.688-4.354-.008-.05-.054-.005-.066.033v8.74c-5.264 2.99-10.55 5.965-15.704 9.066-.097 1.27.13 2.687 0 3.96-.015.15-.088.283-.1.427-.053.697.034 1.46.034 2.193 0 2.25-.027 4.507.034 6.612.365-.058.647-.318.957-.492 1.003-.56 1.975-1.11 2.97-1.67 1.318-.736 2.61-1.546 3.96-2.226.203-.32.588-.438.89-.622.32-.194.665-.365.99-.556 1.97-1.15 3.93-2.284 5.94-3.34.077 2.87.01 5.882.033 8.807-1.94 1.125-3.914 2.207-5.873 3.34-1.946 1.123-3.937 2.194-5.874 3.34a308.612 308.612 0 0 1-5.84 3.37C4.164 55.3 2.37 56.25.73 57.252c-.22.133-.454.34-.73.328v-30.9c.893-.653 1.91-1.12 2.87-1.67z"/></svg>