<svg width="60" height="60" viewBox="0 0 60 60" fill="none" xmlns="http://www.w3.org/2000/svg">
<g clip-path="url(#clip0_12_112)">
<path d="M-7.62939e-06 30.4999C-7.62939e-06 30.1667 -7.62939e-06 29.8335 -7.62939e-06 29.5002C0.0142948 29.4529 0.0362985 29.4065 0.041616 29.3581C0.129447 28.5668 0.4081 27.8436 0.804716 27.1579C2.70535 23.8722 4.60231 20.5844 6.50043 17.2972C8.65252 13.5703 10.7996 9.84045 12.9586 6.11756C14.0188 4.28951 15.6178 3.31669 17.7341 3.31262C25.9074 3.29688 34.0808 3.30641 42.2542 3.30576C42.7399 3.30572 43.218 3.36069 43.6864 3.48996C45.1767 3.90132 46.2767 4.80219 47.0461 6.136C51.093 13.152 55.1479 20.1634 59.1933 27.1803C60.2752 29.0569 60.264 30.948 59.189 32.828C58.4575 34.107 57.7189 35.3819 56.9801 36.6567C56.3711 37.7075 55.7574 38.7555 55.1457 39.8047C55.0622 39.7122 54.9827 39.6159 54.8948 39.5279C49.6041 34.237 44.3129 28.9469 39.0217 23.6567C38.9628 23.5979 38.9038 23.5391 38.844 23.4813C38.7992 23.4381 38.7509 23.4086 38.6906 23.456C38.4971 23.228 38.3122 22.992 38.1087 22.7731C35.4328 19.8942 32.135 18.708 28.2552 19.2805C25.6276 19.6682 23.4572 20.9512 21.7147 22.9586C18.7907 26.327 18.2918 31.439 20.5066 35.3101C21.2314 36.577 22.165 37.6595 23.3015 38.5708C23.3059 38.7342 23.4376 38.8128 23.535 38.9103C29.3735 44.7506 35.2132 50.5898 41.0523 56.4295C41.1345 56.5117 41.2108 56.5998 41.2898 56.6852C41.2234 56.6881 41.1569 56.6937 41.0905 56.6937C33.3107 56.694 25.5309 56.7026 17.7512 56.6882C15.6472 56.6843 14.0367 55.7391 12.9824 53.9185C8.90367 46.8752 4.83879 39.8239 0.768349 32.7759C0.47081 32.2606 0.245639 31.7174 0.122663 31.134C0.0782888 30.9234 0.0406992 30.7113 -7.62939e-06 30.4999Z" fill="#4485F6"/>
<path d="M55.1456 39.8047C54.6428 40.6855 54.1434 41.5682 53.6366 42.4467C51.4414 46.2513 49.2471 50.0563 47.0463 53.8576C45.9564 55.7399 44.3169 56.6871 42.1387 56.6936C41.8558 56.6945 41.5728 56.6882 41.2899 56.6852C41.2108 56.5998 41.1345 56.5117 41.0523 56.4295C35.2132 50.5898 29.3735 44.7506 23.535 38.9103C23.4376 38.8128 23.3059 38.7342 23.3015 38.5708C23.3228 38.5839 23.3453 38.5954 23.3651 38.6105C27.2627 41.5761 32.5177 41.6302 36.4536 38.733C36.6668 38.5761 36.7662 38.6072 36.9345 38.7771C38.2475 40.1023 39.5696 41.4186 40.8901 42.7363C41.1935 43.039 41.4489 43.0404 41.754 42.7415C42.0574 42.4443 42.3562 42.1425 42.6566 41.8422C43.0638 41.4351 43.0648 41.221 42.6595 40.8156C41.3464 39.5022 40.0347 38.1872 38.7167 36.8788C38.5843 36.7474 38.5778 36.6705 38.6903 36.5131C40.9971 33.2864 41.4665 29.8004 40.1292 26.072C39.7899 25.126 39.2672 24.2747 38.6906 23.456C38.7509 23.4087 38.7992 23.4381 38.844 23.4813C38.9038 23.5391 38.9628 23.5979 39.0216 23.6567C44.3129 28.9469 49.6041 34.2371 54.8947 39.5279C54.9827 39.6159 55.0622 39.7123 55.1456 39.8047Z" fill="#407BDD"/>
<path d="M38.6906 23.456C39.2672 24.2747 39.7899 25.126 40.1292 26.072C41.4665 29.8004 40.9971 33.2864 38.6903 36.5131C38.5778 36.6705 38.5843 36.7474 38.7167 36.8788C40.0347 38.1872 41.3464 39.5022 42.6595 40.8156C43.0647 41.221 43.0638 41.4351 42.6566 41.8422C42.3562 42.1424 42.0573 42.4443 41.754 42.7415C41.4489 43.0404 41.1935 43.039 40.8901 42.7363C39.5696 41.4186 38.2475 40.1023 36.9345 38.7771C36.7662 38.6072 36.6667 38.5761 36.4536 38.733C32.5176 41.6302 27.2627 41.5761 23.3651 38.6104C23.3453 38.5954 23.3228 38.5839 23.3015 38.5708C22.165 37.6595 21.2314 36.577 20.5066 35.3101C18.2918 31.439 18.7907 26.327 21.7147 22.9586C23.4572 20.9512 25.6276 19.6682 28.2552 19.2805C32.135 18.708 35.4328 19.8942 38.1087 22.7731C38.3121 22.992 38.4971 23.228 38.6906 23.456ZM30.0107 21.7527C25.4601 21.7426 21.7558 25.4321 21.7467 29.9835C21.7376 34.534 25.4244 38.235 29.9788 38.2473C34.5263 38.2595 38.2331 34.5672 38.2431 30.0153C38.253 25.4645 34.5649 21.7628 30.0107 21.7527Z" fill="#FEFEFE"/>
<path d="M30.0108 21.7528C34.5649 21.7628 38.2531 25.4645 38.2431 30.0153C38.2331 34.5672 34.5263 38.2595 29.9789 38.2473C25.4244 38.235 21.7376 34.534 21.7467 29.9835C21.7558 25.4321 25.4602 21.7427 30.0108 21.7528ZM28.9015 31.3003C28.9015 32.7317 28.9042 34.1632 28.898 35.5946C28.8972 35.7655 28.9319 35.8397 29.1199 35.8659C29.6516 35.94 30.1803 35.9451 30.7123 35.8836C30.8852 35.8636 30.9607 35.8095 30.9601 35.6099C30.9524 32.7304 30.9533 29.8509 30.9586 26.9714C30.959 26.7887 30.9136 26.7259 30.7232 26.7304C30.1992 26.7428 29.6744 26.7423 29.1503 26.7306C28.9566 26.7263 28.8959 26.7812 28.8971 26.981C28.9054 28.4207 28.9015 29.8605 28.9015 31.3003ZM26.8904 35.0525C26.8904 33.2409 26.8894 31.4852 26.8921 29.7295C26.8923 29.5733 26.7939 29.5841 26.6924 29.584C26.1511 29.584 25.6095 29.5922 25.0686 29.5795C24.8759 29.5749 24.8334 29.6407 24.8349 29.8217C24.8429 30.8125 24.8384 31.8034 24.8391 32.7943C24.8392 32.8683 24.8291 32.9439 24.8706 33.0132C25.3665 33.8413 26.0227 34.5096 26.8904 35.0525ZM33.1626 32.9487C33.1626 33.5478 33.1617 34.1468 33.1639 34.7458C33.1641 34.8089 33.1321 34.8935 33.1991 34.9303C33.2677 34.9679 33.3176 34.8912 33.3688 34.8558C34.1054 34.3458 34.6959 33.7011 35.1445 32.9254C35.1963 32.8359 35.2223 32.7456 35.2217 32.6421C35.2192 32.1595 35.2144 31.6768 35.2241 31.1945C35.2275 31.0299 35.1746 30.9808 35.0122 30.9834C34.4714 30.9919 33.9302 30.9956 33.3897 30.9818C33.1924 30.9768 33.1558 31.0495 33.1589 31.2266C33.1687 31.8005 33.1625 32.3747 33.1626 32.9487Z" fill="#407BDD"/>
<path d="M28.9015 31.3003C28.9015 29.8605 28.9054 28.4207 28.8971 26.981C28.8959 26.7812 28.9566 26.7263 29.1503 26.7306C29.6744 26.7423 30.1992 26.7428 30.7232 26.7304C30.9136 26.7259 30.959 26.7886 30.9586 26.9714C30.9533 29.8509 30.9524 32.7304 30.9601 35.6099C30.9607 35.8094 30.8852 35.8635 30.7123 35.8835C30.1803 35.9451 29.6516 35.94 29.1199 35.8659C28.9319 35.8397 28.8972 35.7655 28.898 35.5945C28.9042 34.1631 28.9015 32.7317 28.9015 31.3003Z" fill="#FEFEFE"/>
<path d="M26.8904 35.0524C26.0227 34.5096 25.3664 33.8413 24.8706 33.0132C24.8291 32.9439 24.8391 32.8682 24.8391 32.7943C24.8384 31.8034 24.8429 30.8125 24.8349 29.8217C24.8333 29.6407 24.8759 29.5749 25.0685 29.5794C25.6095 29.5922 26.1511 29.5839 26.6923 29.584C26.7939 29.584 26.8923 29.5732 26.892 29.7294C26.8893 31.4851 26.8904 33.2408 26.8904 35.0524Z" fill="#FEFEFE"/>
<path d="M33.1625 32.9487C33.1625 32.3747 33.1686 31.8005 33.1589 31.2266C33.1558 31.0494 33.1924 30.9768 33.3897 30.9818C33.9302 30.9955 34.4714 30.9919 35.0121 30.9833C35.1745 30.9808 35.2275 31.0298 35.2241 31.1945C35.2144 31.6768 35.2192 32.1595 35.2217 32.642C35.2223 32.7456 35.1962 32.8359 35.1445 32.9254C34.6959 33.7011 34.1054 34.3458 33.3688 34.8558C33.3176 34.8912 33.2677 34.9679 33.1991 34.9303C33.1321 34.8935 33.1641 34.8089 33.1639 34.7458C33.1617 34.1468 33.1626 33.5478 33.1625 32.9487Z" fill="#FEFEFE"/>
</g>
<defs>
<clipPath id="clip0_12_112">
<rect width="60" height="60" fill="white"/>
</clipPath>
</defs>
</svg>
