<!DOCTYPE svg PUBLIC "-//W3C//DTD SVG 1.1//EN" "http://www.w3.org/Graphics/SVG/1.1/DTD/svg11.dtd" [
	<!ENTITY ns_flows "http://ns.adobe.com/Flows/1.0/">
]><svg xmlns="http://www.w3.org/2000/svg" width="60" height="60" viewBox="0 0 60 60" overflow="visible"><path fill-rule="evenodd" clip-rule="evenodd" fill="#FFB600" d="M13.625 36.683c1.127-4.107 0-11.807 0-16.507V3.93C8.93 2.773 4.745 1.108 0 0v48.998c2.608-1.67 4.696-3.863 7.075-6.026 1.61-1.464 5.995-4.267 6.55-6.29z"/><path fill-rule="evenodd" clip-rule="evenodd" fill="#FFB600" d="M47.163 24.106c-9.87-2.444-19.488-6.54-29.083-8.385 2.023 4.006 3.85 8.205 5.764 12.317 2.923 1.444 6.2 2.535 8.908 4.192C21.94 38.01 10.817 43.48.262 49.52c4.74 2.86 8.783 6.416 13.625 9.172 10.956-6.687 21.964-13.32 33.276-19.65.264 0 .312-.213.524-.263V24.365c-.262.002-.312-.21-.524-.26z"/></svg>