<!DOCTYPE svg PUBLIC "-//W3C//DTD SVG 1.1//EN" "http://www.w3.org/Graphics/SVG/1.1/DTD/svg11.dtd" [
	<!ENTITY ns_flows "http://ns.adobe.com/Flows/1.0/">
]><svg xmlns="http://www.w3.org/2000/svg" width="60" height="60" viewBox="0 -10.034 60 60" overflow="visible"><path fill-rule="evenodd" clip-rule="evenodd" fill="#383234" d="M0 .096C10.458.7 30.52-2.108 36.588 4.486c3.416 3.712 6.063 15.426-3.66 19.027 8.812 3.284 12.717 14.224 6.588 21.22C32.26 53.017 14.144 48.677 0 49.857V42.54h5.854V8.144C5.31 6.494 1.75 7.86 0 7.414V.095zm13.904 21.22c9.538.61 20.835-.427 16.83-10.976-3.36-3.468-10.675-2.984-17.56-2.927.385 4.492-.84 10.594.73 13.903zm-.732 21.223c28.04 5.374 25.835-20.56 0-14.638V42.54z"/></svg>