<!DOCTYPE svg PUBLIC "-//W3C//DTD SVG 1.1//EN" "http://www.w3.org/Graphics/SVG/1.1/DTD/svg11.dtd" [
	<!ENTITY ns_flows "http://ns.adobe.com/Flows/1.0/">
]><svg xmlns="http://www.w3.org/2000/svg" width="60" height="60" viewBox="0 0.159 60 60" overflow="visible"><path fill-rule="evenodd" clip-rule="evenodd" fill="#000068" d="M33.008 0v21.1c.275.04.42-.05.473-.23 4.873-5.822 13.384-3.448 14.21 4.406.35 3.293 0 8.414 0 13.448 0 8.185 1.276 17.132-3.077 20.174-3.616 2.526-8.992 1.006-11.84-2.32-.7.478.224 2.54-.475 3.016h-7.105V.002C27.797 0 30.403 0 33.008 0zm.236 51.246c.094 2.433 1.167 4.003 3.315 3.94 4.367-.125 3.313-8.848 3.313-15.767 0-6.53 1.068-15.88-2.605-16.466-2.407-.382-4.25 1.986-4.026 5.797-.394 6.958-.394 15.538 0 22.495z"/><path fill-rule="evenodd" clip-rule="evenodd" fill="#FF5A00" d="M21.403 32h-7.34c-.17-3.947.813-8.482-2.606-8.812-5.01-.484-3.552 8.943-3.552 15.535 0 6.953-1.282 15.985 3.08 16 3.75.013 3.068-4.516 3.078-9.044h7.34c-.316 5.21.953 8.737-1.657 11.593-3.948 4.32-14.494 3.452-17.762-.696C-.62 53.27.09 46.087.09 39.42c0-11.394-.966-20.68 9.235-21.796C18.285 16.64 23.14 21.54 21.403 32z"/></svg>