<svg width="60" height="61" viewBox="0 0 60 61" fill="none" xmlns="http://www.w3.org/2000/svg">
<g clip-path="url(#clip0_3_22)">
<path d="M22.3121 30.4046C22.3121 26.4162 25.5491 23.1792 29.5376 23.1792C33.526 23.1792 36.763 26.4162 36.763 30.4046C36.763 34.3931 33.526 37.6301 29.5376 37.6301C25.5491 37.6879 22.3121 34.3931 22.3121 30.4046ZM29.5376 0C15.3179 0 3.4104 9.71098 0.0578035 22.8902C0.0578035 23.0058 0 23.0636 0 23.1792C0 23.9884 0.635838 24.6243 1.44509 24.6243H13.6994C14.2775 24.6243 14.7977 24.2775 15.0289 23.7572C17.5723 18.2659 23.0636 14.4509 29.5376 14.4509C38.3237 14.4509 45.4913 21.6185 45.4913 30.4046C45.4913 39.1908 38.3237 46.3584 29.5376 46.3584C23.1214 46.3584 17.5723 42.5434 15.0289 37.052C14.7977 36.5318 14.2775 36.185 13.6994 36.185H1.44509C0.635838 36.185 0 36.8208 0 37.6301C0 37.7457 0 37.8035 0.0578035 37.9191C3.4104 51.0983 15.3179 60.8092 29.5376 60.8092C46.3584 60.8092 60 47.1676 60 30.3468C60 13.5838 46.3584 0 29.5376 0Z" fill="#343434"/>
</g>
<defs>
<clipPath id="clip0_3_22">
<rect width="60" height="60.8092" fill="white"/>
</clipPath>
</defs>
</svg>
