<!DOCTYPE svg PUBLIC "-//W3C//DTD SVG 1.1//EN" "http://www.w3.org/Graphics/SVG/1.1/DTD/svg11.dtd" [
	<!ENTITY ns_flows "http://ns.adobe.com/Flows/1.0/">
]><svg xmlns="http://www.w3.org/2000/svg" width="60" height="60" viewBox="0 -3.049 60 60" overflow="visible"><path fill-rule="evenodd" clip-rule="evenodd" fill="#0077B0" d="M25.69 10.455c1.725-2.42 1.113-7.18 3.928-8.514 14.098 4.207 17.645 24.157 8.514 34.71-7.19 8.31-21.3 15.986-27.506 20.3-.4-.035-.775-.096-.655-.652 3.064-7.198 5.34-15.183 7.86-22.922 16.366 5.34 21.59-19.347 7.86-22.92z"/><path fill-rule="evenodd" clip-rule="evenodd" fill="#0077B0" d="M24.378 13.73c9.177 1.87 7.33 19.743-5.238 16.372.1-2.084 1.485-2.88 1.31-5.24 4.782 1.555 6.01-4.996 2.62-5.894-.176-2.358 1.21-3.156 1.308-5.24z"/><path fill-rule="evenodd" clip-rule="evenodd" fill="#00A3E7" d="M16.52.632c4.076-1.146 7.656-.504 9.86.138.757.415 2.202.552 3.238 1.17-2.815 1.334-2.203 6.094-3.93 8.515C9 5.95 4 27.95 17.83 33.375c-2.52 7.74-4.796 15.724-7.86 22.922-1.582-3.774-3.77-10.117-5.53-15.96C2.857 35.08.61 29.443.146 24.86-1.044 13.026 5.01 4.984 16.52.632z"/><path fill-rule="evenodd" clip-rule="evenodd" fill="#00A3E7" d="M19.14 30.102C9.042 28.02 13.354 9.12 24.378 13.73c-.1 2.082-1.484 2.88-1.31 5.238-2.264-.52-2.93-.02-3.928 1.31-.425 2.39.44 3.488 1.31 4.585.175 2.357-1.21 3.155-1.31 5.24z"/></svg>