<!DOCTYPE svg PUBLIC "-//W3C//DTD SVG 1.1//EN" "http://www.w3.org/Graphics/SVG/1.1/DTD/svg11.dtd" [
	<!ENTITY ns_flows "http://ns.adobe.com/Flows/1.0/">
]><svg xmlns="http://www.w3.org/2000/svg" width="60" height="60" viewBox="0 -1.709 60 60" overflow="visible"><path fill-rule="evenodd" clip-rule="evenodd" fill="#540012" d="M44.718 13.792c-.873-3.642-.72-7.682-6.268-6.894-.056-2.563 1.66-3.354 1.88-5.64C39.884.24 38.7-.04 37.197.002c-1.818 1-.31 5.333-1.565 6.895-5.418-.956-5.205 1.913-6.894 5.64-2.172 4.793-7.104 10.796-7.834 17.862-.997 9.66 2.082 19.316 7.208 24.442 11.654 11.654 20.172-11.568 20.996-22.25v-2.506c.26-4.388-3.287-11.694-4.388-16.295zm-11.28 40.425c-6.523-.15-9.332-9.617-9.402-17.862-.086-10.067 3.79-23.56 11.596-24.756 6.675-1.023 10.64 8.36 10.654 17.86.014 10.337-4.6 24.95-12.85 24.756zM11.91 29.026c5.277-6.74 12.022-10.747 14.415-17.548-5.018-.807-5.212 4.158-7.834 6.894-2.94 3.07-7.107 4.594-10.026 7.52C4.308 30.06.85 35.387.004 43.13v3.76c-.08 6.28 2.042-1.094 2.82-2.82 2.514-5.598 5.936-11.02 9.086-15.043z"/><path fill-rule="evenodd" clip-rule="evenodd" fill="#540012" d="M38.137 15.36c-.11-1.587-1.655-2.125-3.134-1.254-3.408 2.006 3.393 4.975 3.134 1.253zM38.764 18.18c.825.758 2.31.758 3.134 0v-1.567c-1.104-1.05-3.47-.583-3.134 1.567zM33.75 17.24c-.44-.082-.357-.688-.627-.94-1.763-.197-2.45.683-2.82 1.88.45 2.103 3.497.98 3.447-.94z"/><path fill-rule="evenodd" clip-rule="evenodd" fill="#540012" d="M33.75 18.18c-.27 2.417 3.776 2.218 5.014 1.253-.22-2.06-3.497-2.28-5.014-1.253zM31.87 21.627c.81-3.425-3.92-2.362-3.134.313.983.944 2.337.51 3.133-.313zM40.018 21.313c1.14.546 2.102.655 3.133 0 .86-2.876-4.8-2.25-3.13 0zM10.874 49.517c2.037-2.172 7.528-6.617 8.147-9.4.54-2.426-.55-5.584-.31-8.148.436-4.693 2.43-7.77 3.446-11.283-7.278 6.863-14.386 15.59-18.803 25.38-1.45 3.216-3.566 7.467-1.88 11.283 3.665-1.536 6.396-4.63 9.4-7.833z"/><path fill-rule="evenodd" clip-rule="evenodd" fill="#540012" d="M38.45 22.567c.315-2.16-2.817-2.882-4.7-1.88-4.243 2.257 4.15 5.65 4.7 1.88zM39.076 24.134c.032 1.804 3.128 2.59 5.016 1.253.6-4.163-5.06-3.94-5.016-1.253zM27.795 26.954c2.317.123 3.4-.987 3.76-2.82-1.126-2.128-4.903-.872-4.387 2.193.352.067.488.348.627.627z"/><path fill-rule="evenodd" clip-rule="evenodd" fill="#540012" d="M31.87 26.954c1.475 2.31 7.676 1.85 6.267-1.88-2.408.59-6.886-2.12-6.268 1.88zM39.076 28.207c.753 1.667 4.044 2.043 5.328.627.03-2.487-5.14-3.657-5.328-.627zM30.616 28.207c-.832-1.693-4.186-.76-4.074 1.254.815 1.68 4.267.843 4.074-1.252zM31.242 30.715c1.26 1.582 7.24 2.274 7.208-.94-1.585-.868-5.374-1.035-7.208-.627v1.567z"/><path fill-rule="evenodd" clip-rule="evenodd" fill="#540012" d="M39.704 31.342c.444 1.955 3.066 2.49 4.7 1.566.07-.243.01-.62.313-.627-.03-2.327-4.215-2.94-5.013-.937zM30.616 31.342c-1.714-1.252-5.384-.557-4.7 2.507 2.102.745 5.183.315 4.7-2.51zM38.764 33.22c-1.88-.252-6.932-1.123-7.834.63.182 2.953 8.34 2.736 7.834-.63z"/><path fill-rule="evenodd" clip-rule="evenodd" fill="#540012" d="M39.39 36.042c.682.99 1.494 1.848 3.447 1.567 3.366-2.617-3.212-5.798-3.447-1.57zM30.93 35.73c-1.178-1.76-5.762-1.148-5.015 1.88 1.738 1.34 4.89.292 5.014-1.88zM38.45 36.98c-1.627-1.02-5.145.146-7.52.314-1.45 3.963 8.202 3.834 7.52-.313z"/><path fill-rule="evenodd" clip-rule="evenodd" fill="#540012" d="M38.764 39.49c.512 1.656 3.312 2.056 4.387.625.203-2.335-4.15-3.166-4.385-.626zM30.302 39.49c-1.882-1.462-4.142-.33-4.074 1.25.095 2.182 4.524 2.227 4.074-1.25zM38.137 40.74c-2.043-.615-5.29.094-7.52.315-.887 4.53 8.487 3.562 7.52-.314zM22.47 49.83c-.845-2.603-1.765-5.13-2.822-7.52-4.854 5.8-9.65 11.658-15.98 15.98 8.728-.357 14.326-3.847 18.8-8.46z"/><path fill-rule="evenodd" clip-rule="evenodd" fill="#540012" d="M39.076 41.37c-2.328 1.45.534 4.75 2.82 3.446.85-1.943-.433-3.77-2.82-3.447zM29.99 43.563c-.93-1.19-3.496-.692-2.822 1.566.93 1.187 3.496.69 2.82-1.568zM30.93 45.13c-1.036 4.2 6.88 3.673 5.64-.313-1.44-.602-4.052.046-5.64.313zM37.51 47.01c.578 1.685 3.132 1.423 3.134-.627-.567-1.565-3.277-1.646-3.133.627z"/><path fill-rule="evenodd" clip-rule="evenodd" fill="#540012" d="M28.423 46.383c-.925 1.67.292 3.59 2.506 3.134.695-1.63-.32-3.436-2.508-3.134zM35.315 50.144c.86.792 2.294.743 2.82-.313.51-2.81-3.69-2.855-2.82.315zM30.616 50.77c.28 1.44 3.932 1.94 4.073 0-.038-2.026-4.1-2.158-4.075 0zM23.144 51.445c-1.484 1.757-4.912 3.23-5.954 4.388 2.396-1.05 5.076-1.818 7.207-3.134-.552-.286-.518-1.155-1.253-1.256z"/></svg>