<!DOCTYPE svg PUBLIC "-//W3C//DTD SVG 1.1//EN" "http://www.w3.org/Graphics/SVG/1.1/DTD/svg11.dtd" [
	<!ENTITY ns_flows "http://ns.adobe.com/Flows/1.0/">
]><svg xmlns="http://www.w3.org/2000/svg" width="60" height="60" viewBox="0 -9.296 60 60" overflow="visible"><path fill-rule="evenodd" clip-rule="evenodd" fill="#9EC63E" d="M23.562 37.654h7.278c3.06-.21 6.958.42 9.492-.315.27.056.298-.127.315-.32.525-.44.525-3.037 0-3.48v-.632H28.624V0h-5.378c.21 12.445-.42 25.734.316 37.652zM14.387 27.53a7.92 7.92 0 0 0 3.48-3.48c2.608-3.535 2.81-11.078.317-14.873-1.04-2.02-2.388-3.73-4.746-4.43h-.317c-.05-.37-.5-.343-.95-.316-.646-.524-3.462-.524-4.11 0-.474.056-1.168-.11-1.267.318C-5.37 8.118-.2 35.16 14.387 27.53zm-8.543-7.595a21.007 21.007 0 0 1 0-6.96c.862-1.46 1.672-2.97 3.48-3.482 3.444-.07 4.277 2.473 5.063 5.063v3.797c-.63 1.9-1.346 3.716-2.848 4.746-1.54.192-1.627.192-3.166 0-.93-.97-1.832-1.97-2.53-3.166z"/><path fill-rule="evenodd" clip-rule="evenodd" fill="#9EC63E" d="M51.032 9.177c-1.037-2.02-2.388-3.73-4.746-4.43h-.317c-.054-.37-.5-.343-.95-.316-.648-.524-3.464-.524-4.114 0-.473.056-1.167-.11-1.265.318-12.163 3.37-6.992 30.413 7.594 22.782a7.92 7.92 0 0 0 3.48-3.48c2.608-3.535 2.808-11.08.317-14.873zm-3.798 6.01v3.166c-.63 1.9-1.346 3.716-2.848 4.746-1.538.192-1.625.192-3.164 0-.93-.97-1.83-1.968-2.53-3.165a20.954 20.954 0 0 1 0-6.96c.86-1.46 1.672-2.97 3.48-3.482 3.443-.07 4.277 2.473 5.06 5.063.002.21.002.42.002.63zM49.253 39.553c-.74.21-1.5.476-2.276.77v-.14C44.03 41.35 41.353 42.79 37.8 43.35c-1.38.374-2.745.765-4.36.907-.52.03-1.046.048-1.586.04H24.83c-.537.008-1.063-.01-1.58-.04-1.617-.14-2.982-.532-4.364-.908-3.55-.563-6.227-2-9.174-3.167v.142c-.78-.296-1.54-.56-2.284-.773-.724.54-.116 2.414-.317 3.48-.176 1.55.03 2.71 1.266 2.848.443.194.888.385 1.336.573v.06c3.75 1.313 6.963 3.16 11.705 3.48.233.5 1.1.364 1.896.3.273.086.643.072 1.03.042.905.297 2.524.415 4.002.354 1.477.06 3.096-.06 4-.356.388.03.758.044 1.03-.042.796.064 1.663.2 1.897-.3 4.742-.32 7.956-2.167 11.706-3.48v-.063c.444-.19.886-.378 1.326-.57 1.234-.136 1.442-1.3 1.266-2.85-.2-1.064.41-2.94-.315-3.48z"/></svg>