<svg xmlns="http://www.w3.org/2000/svg" width="60" height="60" viewBox="0 0 60 60"><g fill-rule="evenodd" clip-rule="evenodd"><path fill="#E67C44" d="M39.26 26.207c1.068-.1 2.15.07 3.212-.204.742-.19 1.43-.478 2.025-.96 1.49-1.206 1.472-3.016-.048-4.185-1.047-.805-2.268-1.1-3.557-1.11-2.477-.017-4.953-.01-7.43.002-.403.002-.7-.085-.977-.414-2.84-3.394-6.425-5.766-10.42-7.57-.137-.06-.272-.124-.38-.31h.768c6.083 0 12.167-.065 18.25.035 2.3.04 4.64.165 6.864.934 1.37.474 2.66 1.105 3.95 1.766 1.273.647 2.392 1.453 3.325 2.485 2.41 2.666 3.49 5.69 2.177 9.243-.57 1.545-1.54 2.837-2.767 3.918-.43.38-.427.565.002.965 2.25 2.108 3.593 4.61 3.243 7.81-.206.002-.34-.14-.494-.246-2.433-1.702-4.91-3.34-7.353-5.028-3.453-2.39-6.96-4.703-10.392-7.128zM18.72 34.882c.575-1.033 1.136-2.07 1.317-3.267.49-3.223-.817-5.738-3.156-7.778-3.39-2.957-7.49-3.957-11.867-4.094-1.452-.045-2.906-.023-4.36 0-.484.01-.652-.134-.648-.636.023-2.34.01-4.68.01-7.023 0-.335-.035-.633.472-.628 2.93.034 5.862-.068 8.785.283 4.25.506 8.335 1.567 12.1 3.63 3.23 1.77 6.18 3.917 8.23 7.08 1.496 2.307 2.487 4.79 2.478 7.595a1.182 1.182 0 0 0-.77.182c-1.057.71-2.115 1.413-3.164 2.133-1.89 1.297-3.767 2.61-5.66 3.898-.586.4-1.16.382-1.76-.076-.632-.482-1.333-.87-2.004-1.3z"/><path fill="#F99F33" d="M39.26 26.207c3.432 2.425 6.94 4.738 10.395 7.127 2.443 1.69 4.92 3.326 7.353 5.028.154.106.288.248.494.245-.334 2.833-1.895 4.933-4.054 6.634-2.74 2.16-5.922 3.23-9.336 3.72-1.876.27-3.76.185-5.644.186-5.172.004-10.342.003-15.514.004-.29 0-.584 0-.918-.125.978-.515 1.962-1.015 2.93-1.546 2.882-1.588 5.416-3.614 7.546-6.123.312-.37.626-.497 1.1-.493 2.527.02 5.06.032 7.593-.003 1.38-.02 2.655-.41 3.63-1.46 1.11-1.192 1-2.687-.256-3.745-1.115-.937-2.456-1.17-3.847-1.204a96.313 96.313 0 0 0-3.876 0c-.486.01-.614-.156-.505-.616.574-2.398.542-4.8-.05-7.19-.095-.382.013-.478.372-.47.86.02 1.72.022 2.585.032z"/><path fill="#F99F33" d="M18.72 34.882c.67.43 1.372.818 2.003 1.3.6.458 1.174.477 1.76.076 1.894-1.29 3.77-2.602 5.66-3.897 1.05-.72 2.107-1.422 3.165-2.13a1.18 1.18 0 0 1 .77-.183c.017 2.912-.738 5.597-2.36 8.028-2.764 4.147-6.704 6.77-11.23 8.607-4.39 1.786-8.988 2.53-13.71 2.56-1.348.008-2.695-.022-4.04.013-.55.015-.747-.13-.738-.714.03-2.315.028-4.63 0-6.945-.007-.532.147-.703.682-.69 1.426.033 2.853.015 4.28.01 4.06-.012 7.823-1 11.148-3.412 1.01-.734 1.822-1.667 2.61-2.62z"/></g></svg>