<!DOCTYPE svg PUBLIC "-//W3C//DTD SVG 1.1//EN" "http://www.w3.org/Graphics/SVG/1.1/DTD/svg11.dtd" [
	<!ENTITY ns_flows "http://ns.adobe.com/Flows/1.0/">
]><svg xmlns="http://www.w3.org/2000/svg" width="60" height="60" viewBox="0 -13.01 60 60" overflow="visible"><path fill-rule="evenodd" clip-rule="evenodd" fill="#00955B" d="M14.342 31.25c-.303-.325-1.02-.233-1.645-.236-.08 1.376.057 4.455 0 6.58h1.41c.525-1.67.096-4.293.235-6.345zM19.276 31.25c-.303-.325-1.02-.233-1.645-.236v6.58c3.1.433 1.06-4.268 1.647-6.345zM24.445 31.25c-.303-.325-1.02-.233-1.645-.236-.41 1.772-.33 4.792 0 6.58h1.175c1.036-1.237.2-4.344.47-6.345zM27.97 37.592c.664-.04 1.61.202 1.644-.47v-6.109H27.97v6.58zM34.783 31.013h-1.646c.14 2.13-.29 4.834.235 6.58h1.175c.527-1.746.096-4.45.236-6.58z"/><path fill-rule="evenodd" clip-rule="evenodd" fill="#00955B" d="M.246 0C-.028.04-.01.372.01.705V46.99H47V0H.246zm5.168 8.928H41.83c.762.685.762 4.25 0 4.934-4.62.548-10.258.08-15.27.235-.152 4.39.308 9.392-.235 13.392-1.133.357-3.81.412-4.934 0h-.47V14.095c-4.7-.702-11.036.23-15.74-.47V9.16c-.043-.2.09-.22.235-.233zm3.524 6.58c10.44-1.527 10.377 12.53 2.115 13.156C2.4 29.32.57 16.73 8.938 15.507zm.94 22.788c-.532-2.13-.09-5.234-.235-7.753 4.117-.425 8.774-.235 13.627-.235 4.58 0 10.873-.37 13.86.47v7.05c-8.147 1.09-18.32.16-27.252.468zM30.084 24.2C27.19 15.084 42.03 12.05 43.71 20.676v2.585c-.985 7.24-11.887 6.424-13.626.94z"/><path fill-rule="evenodd" clip-rule="evenodd" fill="#F11D17" d="M8.938 15.507c10.44-1.526 10.377 12.532 2.115 13.157C2.4 29.32.57 16.73 8.938 15.507zm.706 2.114c2.25.807 3.674 2.437 4.23 4.936.762.136 1.092-.16 1.644-.235 1.073-3.285-3.534-7.813-5.874-4.7zm4.23 7.286c.263.05.365.26.47.47 1.28.176 1.77-1.396 1.174-2.35-1.134.042-1.546.805-1.645 1.88zM43.71 23.26c-.985 7.237-11.887 6.423-13.626.94-2.893-9.117 11.945-12.15 13.627-3.525v2.585zm-7.282-6.11c-.045 1.456 1.474 1.346 2.35 1.88 1.36.912.592 3.95 3.054 3.76 1.51-3.166-2.046-7.33-5.404-5.64zm4.228 8.225c1.148.56 2.09-.38 1.88-1.88-1.155-.733-2.05.534-1.88 1.88z"/></svg>