<!DOCTYPE svg PUBLIC "-//W3C//DTD SVG 1.1//EN" "http://www.w3.org/Graphics/SVG/1.1/DTD/svg11.dtd" [
	<!ENTITY ns_flows "http://ns.adobe.com/Flows/1.0/">
]><svg xmlns="http://www.w3.org/2000/svg" width="60" height="60" viewBox="0 -6.882 60 60" overflow="visible"><path fill-rule="evenodd" clip-rule="evenodd" fill="#F7BF00" d="M32.917 28.396c-4.033-1.98-8.142-3.887-12.416-5.626-.78-1.87-1.67-3.63-2.52-5.432 1.35-3.74.77-7.77 2.133-11.057C21.365 3.258 26.627.448 30.588.075c9.705-.912 16.74 6.83 15.52 16.877-4.218 3.995-8.5 7.928-13.19 11.447z"/><path fill-rule="evenodd" clip-rule="evenodd" fill="#EC448D" d="M17.785 6.28c-.402 3.48-1.32 6.44-1.746 9.894-2.998-.69-6.04-1.333-8.926-2.133-2.197-6.613 5.43-11.604 10.67-7.76z"/><path fill-rule="evenodd" clip-rule="evenodd" fill="#294392" d="M15.845 18.31c.96 1.368 1.47 3.186 2.328 4.655-3.814 4.074-8.027 7.75-12.416 11.25-8.162-3.36-7.416-15.573.776-18.04 3.042.773 6.038 1.593 9.312 2.134z"/><path fill-rule="evenodd" clip-rule="evenodd" fill="#25BFB1" d="M19.725 24.905c4.503 1.64 8.46 3.825 12.803 5.625.727 2.335 2.654 3.44 2.91 5.432.2 1.567-.647 3.965-.97 5.626-.377 1.937-.567 3.8-1.164 5.238-2.95 7.112-15.486 8.444-21.728 2.716-2.59-2.378-6.034-7.765-4.268-12.998.647-1.917 3.988-4 5.82-5.625 2.56-2.27 4.56-4.298 6.597-6.016z"/><path fill-rule="evenodd" clip-rule="evenodd" fill="#F7BF00" d="M46.302 39.26c1.99 7.118-5.54 11.373-10.67 7.76.59-3.355 1.176-6.714 1.94-9.895 2.78.84 5.89 1.355 8.73 2.135z"/><path fill-rule="evenodd" clip-rule="evenodd" fill="#0C6655" d="M47.272 19.084c3.58 1.18 7.233 5.4 6.207 10.863-.62 3.302-3.898 6.936-6.403 7.178-3.334.32-6.07-2.18-9.7-2.134-.845-1.61-1.736-3.175-2.52-4.85 3.894-3.926 8.313-7.332 12.414-11.055z"/></svg>