<svg width="60" height="60" viewBox="0 0 60 60" fill="none" xmlns="http://www.w3.org/2000/svg">
<path d="M53.3521 44.7856C50.2585 42.9783 47.1362 41.2187 44.0726 39.3621C43.1506 38.8034 42.4328 38.843 41.5394 39.3721C38.0617 41.4317 34.5409 43.4185 31.0595 45.4719C30.2912 45.925 29.6912 45.8898 28.907 45.4578C24.6498 43.1128 20.5984 40.4028 16.2039 38.3005C15.751 38.0838 15.4186 37.7038 15.4587 37.0948C15.4946 36.5485 15.4294 35.9955 15.4087 35.4455C15.4313 31.1904 15.4895 26.935 15.4537 22.6804C15.4436 21.479 15.8347 20.7736 16.9094 20.1788C20.3921 18.251 23.8095 16.2053 27.2546 14.2094C27.7879 13.9004 28.2872 13.5817 28.1858 12.8457C28.2361 12.5338 28.3294 12.2219 28.3301 11.9099C28.3381 8.41865 28.3414 4.92737 28.3248 1.43618C28.3174 -0.136193 27.9088 -0.349145 26.4887 0.465355C24.2984 1.72154 22.1209 2.99988 19.9343 4.26249C14.7654 7.24725 9.59535 10.2303 4.42245 13.2083C3.8059 13.5632 3.26108 13.9203 3.27828 14.764C3.32324 16.9664 3.33019 19.1696 3.35214 21.3724C3.32788 23.7482 3.27993 26.124 3.28416 28.4996C3.29209 32.9317 3.33032 37.3637 3.35581 41.7957C3.4566 43.0781 2.6858 44.5187 4.34405 45.4693C12.5462 50.1711 20.7199 54.9225 28.8957 59.6703C29.6532 60.1102 30.3176 60.111 31.0824 59.6661C38.5073 55.3481 45.9462 51.0541 53.3777 46.7476C54.6972 45.983 54.692 45.5683 53.3521 44.7856Z" fill="#FCC34E"/>
<path d="M56.5816 14.7313C56.7387 14.072 56.3744 13.6946 55.8595 13.4007C55.182 13.014 54.5009 12.6336 53.8254 12.2433C47.0318 8.31725 40.2438 4.38157 33.4422 0.46945C32.0341 -0.340466 31.6727 -0.107839 31.6707 1.50055C31.6664 5.03446 31.7165 8.56931 31.6463 12.1018C31.6239 13.2298 32.0308 13.8562 32.9874 14.3877C36.4723 16.3239 39.9198 18.3275 43.3784 20.3111C44.1042 20.7274 44.4852 21.2952 44.4569 22.2079C44.4087 23.7631 44.4936 25.3225 44.5225 26.8801C44.4898 29.3998 44.4917 31.9207 44.4074 34.4387C44.3737 35.4466 44.7645 36.0462 45.6212 36.5294C48.6978 38.2646 51.7407 40.0595 54.8072 41.8128C56.3801 42.7122 56.7168 42.5128 56.718 40.7214C56.7235 32.4621 56.7244 24.2028 56.7216 15.9435C56.7214 15.537 56.8061 15.1145 56.5816 14.7313Z" fill="#F7932D"/>
</svg>
