<!DOCTYPE svg PUBLIC "-//W3C//DTD SVG 1.1//EN" "http://www.w3.org/Graphics/SVG/1.1/DTD/svg11.dtd" [
	<!ENTITY ns_flows "http://ns.adobe.com/Flows/1.0/">
]><svg xmlns="http://www.w3.org/2000/svg" width="60" height="60" viewBox="0 -12.444 60 60" overflow="visible"><path fill-rule="evenodd" clip-rule="evenodd" fill="#DD3900" d="M47.56 30.62c1.524-1.445 1.984-2.877 1.717-4.983-.104-.816-.356-2.113-1.332-2.296-1.02-.186-2.107-.02-3.166.1-.015.03-.023.067-.035.096-.247.536-2.327 1.72-3.334 2.255-3.587 1.9-8.976 4.755-13.9 4.38-2.52-.19-4.29-1.007-4.724-3.255 1.03-.85 2.45-1.065 3.753-1.625 5.98-2.585 13.762-7.02 14.59-14.272C41.94 3.958 36.33-.085 29.32 0c-5.937.076-10.05 3.107-12.786 6.76-2.78 3.71-4.33 8.63-5.14 13.646-1.834-.07-3.06.193-4.59-.25-1.55-.453-2.267-1.587-3.608-1.504-1.85.12-1.813.735-2.842 2.03L0 24.035c2.385 2.4 7.232 2.577 11.53 3.253 1.283 4.503 3.653 7.953 7.366 10.014 5.182 2.88 14.19 1.447 19.73-.75 1.58-.626 2.97-1.644 4.47-2.328 1.444-1.225 3.09-2.3 4.463-3.603zM29.734 7.515c2.062-.343 3.255 1.834 3.196 3.754-.16 5.114-6.296 8.04-11.117 8.762.342-5.77 2.596-11.638 7.922-12.516z"/></svg>