<!DOCTYPE svg PUBLIC "-//W3C//DTD SVG 1.1//EN" "http://www.w3.org/Graphics/SVG/1.1/DTD/svg11.dtd" [
	<!ENTITY ns_flows "http://ns.adobe.com/Flows/1.0/">
]><svg xmlns="http://www.w3.org/2000/svg" width="60" height="60" viewBox="0 -14.412 60 60" overflow="visible"><path fill-rule="evenodd" clip-rule="evenodd" fill="#DD0020" d="M37.066 8.477c1.42.245 2.622-.18 4.736 0 .854.76 1.465 1.77 2.455 2.385-.147-3.453.946-8.206-2.807-7.89-.575-1.026-.942-1.955-1.753-2.385-5.812-3.078-8.35 6.902-2.63 7.89zM40.574 34.16H55.31c-.395-.81-.706-1.707-1.054-2.566-16.898-.123-34.264.243-50.87-.184.084-.952-.19-2.278.176-2.936h49.29c.354-.804-.763-1.473-.7-2.568-16.196-.123-32.86.243-48.766-.184.084-.952-.19-2.277.176-2.936 15.73-.123 31.926.243 47.36-.183-.52-.62-.615-1.68-1.05-2.387-1.766-.11-3.963.23-5.44-.183-1.1-3.147 1.62-3.785 2.28-5.687h-7.015c.348 1.384 3.543 3.017 1.93 5.87-6.435-.122-13.33.244-19.472-.183-.588-.73-.854-1.798-1.053-2.936.792-.15 2.21.354 2.456-.367-.52-.617-.617-1.68-1.053-2.384H1.28c-.22.075-.358.236-.35.55-.398 10.385-4.34 31.88 7.72 30.64 3.06-.313 4.46-2.902 5.787-5.504.9 1.098.988 2.255 1.93 3.302 2.407 2.68 6.77 2.997 9.472.368 1.087-1.06 1.295-2.293 2.28-3.67.89 1.087 1 2.196 1.752 3.12 4.115 5.033 12.536 1.49 11.753-5.504-.157-1.404-.97-2.063-1.052-3.487zM18.472 17.1c.17 1.106.764 1.77.876 2.936-1.764.416-4.26.07-6.315.183-.56-.884-1.02-1.87-1.228-3.12h6.667zm-14.91 0h5.613c.364.966.79 1.865 1.053 2.936-1.91.3-4.93.3-6.84 0 .083-.952-.19-2.277.174-2.936zm7.894 22.932c-1.385 4.736-7.93 3.07-8.07-1.285-.147-4.597 6.556-6.51 8.07-1.65-1.855.636-4.863-.615-5.087 1.284-.268 2.25 3.05 1.09 5.085 1.653zm6.14 0c2.06-.305 5.307-.305 7.367 0-.25 3.858-7.106 3.807-7.368 0zm-.177-2.935c.612-3.766 7.102-3.766 7.717 0-2.176.303-5.543.303-7.72 0zm13.68 2.935c1.964-.608 5.09.62 5.09-1.47s-3.126-.855-5.09-1.466c1.243-4.52 7.697-3.21 8.07.918.44 4.87-6.398 6.99-8.07 2.018z"/><path fill-rule="evenodd" clip-rule="evenodd" fill="#DD0020" d="M59.52 45.536c-.847-2.906-2.236-5.244-2.983-8.257H44.61c.34 3.963-1.14 6.023-2.457 8.255H59.52z"/></svg>