<!DOCTYPE svg PUBLIC "-//W3C//DTD SVG 1.1//EN" "http://www.w3.org/Graphics/SVG/1.1/DTD/svg11.dtd" [
	<!ENTITY ns_flows "http://ns.adobe.com/Flows/1.0/">
]><svg xmlns="http://www.w3.org/2000/svg" width="60" height="60" viewBox="0 -16.167 60 60" overflow="visible"><path fill-rule="evenodd" clip-rule="evenodd" fill="#BC1337" d="M7.746 0c.22.68-.505 1.398-.84 1.88-2.89 4.19-5.146 10.472-4.864 18.136.303 8.233 3.667 14.65 7.214 18.817H.028C.14 25.946-.195 12.603.196 0h7.55zM52.205 0h7.718v38.833h-7.047c-.438-.61.59-1.187 1.007-1.71 1.31-1.65 2.696-3.968 3.858-5.817-2.63-1.935-5.98-3.14-8.89-4.79-3.53 4.984-7.406 10.636-15.435 10.094-9.064-.613-11.863-9.47-11.744-18.647H56.4c.57-7.34-1.14-13.756-4.194-17.963z"/><path fill-rule="evenodd" clip-rule="evenodd" fill="#BC1337" d="M37.944 8.725c-4.923.398-10.57.058-15.77.17-.658-9.665 16.296-11.156 15.77-.17z"/></svg>