<svg xmlns="http://www.w3.org/2000/svg" width="60" height="60" viewBox="0 0 60 60"><path fill="#327BF3" d="M0 34.777v-4.64c.146-.05.108-.184.132-.292.156-.72.097-1.472.36-2.17.626-.574 1.186-1.216 1.885-1.715 1.506-1.072 3.23-1.355 5.01-1.39 2.013-.04 3.97.333 5.884.956 2.765.9 5.334 2.207 7.837 3.655 3.717 2.15 7.437 4.294 11.235 6.296 3.168 1.67 6.373 3.263 9.662 4.68-.008.127-.083.216-.16.31-.917 1.09-1.94 2.068-3.002 3.02-1.102.987-2.29 1.854-3.5 2.696l-.138.032c-.153-.04-.305-.093-.46-.118-3.42-.537-6.796-1.295-10.162-2.09-5.408-1.282-10.748-2.806-16-4.632a12.708 12.708 0 0 0-4.784-.69c-.964.043-1.78.315-2.443 1.02-.104.11-.198.27-.395.165-.008-.1-.002-.2-.027-.29-.346-1.31-.6-2.63-.747-3.978-.03-.27.065-.592-.183-.823z"/><path fill-rule="evenodd" clip-rule="evenodd" fill="#F1F1F1" d="M24.387 5.037h6.186c.01.173.11.24.273.236.597-.017 1.172.135 1.748.25 2.642.522 5.175 1.346 7.56 2.626 1.922 1.03 3.717 2.22 5.363 3.655 1.14.992 2.164 2.082 3.154 3.21.184.208.45.405.466.735.04.04.08.077.12.114l-.007-.007c0 .08-.008.158-.003.236.078 1.094.182 2.187.23 3.282.086 1.81-.13 3.602-.344 5.394-.02.17-.075.3-.233.377-.282-.184-.57-.36-.843-.552-1.415-.996-2.678-2.17-3.935-3.35-2.024-1.897-3.97-3.877-5.935-5.835a42.57 42.57 0 0 0-2.072-1.958c-2.21-1.928-4.698-3.43-7.322-4.71-2.967-1.446-6.085-2.2-9.415-1.946-.592.045-1.177.16-1.773.153.103-.17.28-.2.447-.26 1.97-.686 3.972-1.237 6.06-1.417.166-.013.265-.065.275-.237z"/><path fill-rule="evenodd" clip-rule="evenodd" fill="#C6C6C6" d="M54.96 35.61c-.317.022-.212.27-.235.447-.175 1.338-.42 2.66-.82 3.95-.068.037-.15.06-.202.11-1.26 1.34-2.897 1.742-4.634 1.745-1.26.002-2.515-.22-3.73-.59-1.056-.318-2.128-.59-3.115-1.103a1.33 1.33 0 0 1 .258-.463 28.222 28.222 0 0 0 3.938-6.205c.27-.578.67-1.12.69-1.8l.058-.005.053.005c.57.502 1.26.812 1.926 1.15 1.063.538 2.167.95 3.4.883.782-.043 1.394-.36 1.894-.95.176-.21.253-.5.52-.627v2.378c-.176.277-.2.555 0 .834v.238z"/><path fill-rule="evenodd" clip-rule="evenodd" fill="#2E67C7" d="M54.96 32.16c-.268.128-.345.418-.52.626-.5.59-1.11.908-1.893.95-1.234.07-2.338-.344-3.4-.883-.665-.338-1.355-.647-1.926-1.15.144-.363.297-.725.425-1.094.603-1.738 1.1-3.5 1.377-5.32.55.265 1.063.607 1.633.837 1.19.48 2.36.678 3.48-.176.39 1.27.536 2.58.702 3.888.018.14-.066.323.126.416v1.904z"/><path fill-rule="evenodd" clip-rule="evenodd" fill="#FEFEFE" d="M54.96 35.373c-.2-.28-.176-.557 0-.834v.832z"/><path fill-rule="evenodd" clip-rule="evenodd" fill="#F1F1F1" d="M47.11 31.705c-.02.68-.42 1.22-.69 1.8a28.24 28.24 0 0 1-3.938 6.204 1.323 1.323 0 0 0-.258.46 7.8 7.8 0 0 0-.222-.014c-3.29-1.418-6.494-3.01-9.66-4.68-3.8-2.003-7.52-4.147-11.236-6.295-2.503-1.447-5.072-2.755-7.835-3.654-1.913-.623-3.87-.997-5.882-.957-1.78.035-3.503.32-5.01 1.39-.7.5-1.258 1.14-1.884 1.715-.07-.69.227-1.315.373-1.962.41-1.815 1.062-3.557 1.89-5.215.917-1.835 1.98-3.588 3.298-5.18.39-.472.847-.88 1.21-1.372.218.027.425 0 .64-.064 2.022-.6 4.068-.938 6.198-.815 1.824.104 3.624.272 5.394.746 2.215.593 4.266 1.57 6.252 2.685 4.637 2.606 8.97 5.66 13.107 8.996 2.68 2.16 5.36 4.332 8.255 6.21zM5.107 48.46c-.675-.893-1.22-1.867-1.772-2.84C2.3 43.804 1.6 41.85.96 39.868c.196.104.29-.055.394-.165.663-.704 1.48-.977 2.443-1.02a12.728 12.728 0 0 1 4.784.69c5.254 1.826 10.594 3.35 16 4.63 3.368.797 6.744 1.555 10.164 2.092.155.025.307.078.46.118-1.59 1.123-3.326 1.972-5.113 2.72a29.338 29.338 0 0 1-9.624 2.234c-2.62.152-5.252.093-7.847-.44-1.72-.355-3.418-.773-5.068-1.385-.776-.285-1.51-.686-2.32-.883l.006.003c-.043-.103-.087-.083-.13 0z"/><path fill-rule="evenodd" clip-rule="evenodd" fill="#C6C6C6" d="M5.23 48.458c.81.197 1.543.598 2.32.884 1.65.61 3.347 1.03 5.067 1.385 2.595.533 5.227.593 7.847.44a29.365 29.365 0 0 0 9.625-2.235c1.785-.747 3.522-1.596 5.11-2.72l.14-.03c.333.144.697.134 1.047.188 1.798.278 3.6.493 5.422.526.95.02 1.897-.07 2.846-.1 1.33-.04 2.626-.286 3.9-.66 1.26-.367 2.43-.93 3.563-1.578-.25.71-.64 1.348-1.02 1.988-1.256 2.11-2.74 4.042-4.546 5.717-.228-.03-.43.07-.632.14-3.51 1.22-7.15 1.654-10.838 1.752-2.215.06-4.428-.01-6.642-.19-2.267-.19-4.51-.522-6.743-.937-1.22-.225-2.443-.496-3.7-.41-.93.06-1.68.43-2.15 1.262-.35.62-.35 1.292-.2 1.963.11.517.273 1.023.413 1.533-.237.06-.418-.08-.613-.173a26.65 26.65 0 0 1-5.97-3.938c-1.485-1.29-2.805-2.728-4.006-4.278-.12-.157-.244-.315-.244-.53z"/><path fill-rule="evenodd" clip-rule="evenodd" fill="#2E67C7" d="M52.12 44.558c-1.133.647-2.302 1.21-3.56 1.58-1.276.372-2.573.618-3.902.66-.948.026-1.895.116-2.847.098-1.82-.033-3.622-.248-5.42-.526-.35-.054-.714-.044-1.05-.188 1.21-.843 2.4-1.71 3.5-2.696 1.064-.95 2.087-1.93 3.003-3.02.078-.094.153-.183.16-.31l.223.014c.987.513 2.06.785 3.114 1.104 1.216.37 2.47.59 3.728.59 1.736-.004 3.374-.407 4.634-1.745.052-.055.134-.076.202-.113-.388 1.493-.98 2.913-1.604 4.317-.038.087-.118.155-.18.233zM16.065 57.375c-.14-.51-.303-1.017-.415-1.533-.146-.67-.148-1.342.2-1.963.47-.834 1.222-1.203 2.15-1.265 1.26-.085 2.48.187 3.7.41 2.235.415 4.477.747 6.744.937 2.214.183 4.427.252 6.642.19 3.688-.097 7.327-.53 10.838-1.75.202-.07.404-.17.632-.14-1.873 1.88-4.02 3.39-6.364 4.622a26.765 26.765 0 0 1-8.525 2.793c-5.278.792-10.366.12-15.26-2.01-.09-.037-.164-.106-.246-.16.004-.07-.015-.125-.097-.134h.003z"/><path fill-rule="evenodd" clip-rule="evenodd" fill="#C6C6C6" d="M5.107 48.46c.042-.083.086-.103.128.002h-.128zM16.063 57.375c.082.01.1.062.1.133-.063-.023-.106-.06-.1-.133z"/><path fill-rule="evenodd" clip-rule="evenodd" fill="#337BF3" d="M47.11 31.705c-2.895-1.877-5.573-4.05-8.256-6.21-4.14-3.337-8.47-6.39-13.108-8.995-1.986-1.115-4.037-2.092-6.252-2.685-1.77-.473-3.57-.64-5.394-.747-2.13-.124-4.176.215-6.197.815-.216.064-.422.09-.642.064 1.73-1.96 3.75-3.565 5.973-4.923A27.38 27.38 0 0 1 16.33 7.4a8.68 8.68 0 0 1 1.277-.45c.596.008 1.18-.11 1.773-.153 3.33-.254 6.447.5 9.415 1.947 2.624 1.28 5.113 2.78 7.322 4.71.717.623 1.4 1.287 2.072 1.958 1.964 1.96 3.91 3.94 5.933 5.836 1.257 1.178 2.52 2.354 3.935 3.35.272.193.56.37.84.552l.12.14c-.276 1.82-.773 3.584-1.376 5.32-.128.37-.28.73-.423 1.095l-.054-.005-.056.007z"/><path fill-rule="evenodd" clip-rule="evenodd" fill="#C6C6C6" d="M49.02 25.29l-.12-.14c.16-.078.214-.21.234-.38.214-1.792.43-3.585.345-5.394-.05-1.095-.155-2.188-.233-3.282-.005-.08.002-.158.002-.236.703.755 1.25 1.622 1.775 2.502 1.343 2.255 2.346 4.657 3.054 7.183.036.13.04.272.054.41-1.12.854-2.29.657-3.48.176-.572-.233-1.085-.575-1.634-.84zM49.136 15.75c.04.04.08.077.12.114l-.12-.113z"/></svg>