<!DOCTYPE svg PUBLIC "-//W3C//DTD SVG 1.1//EN" "http://www.w3.org/Graphics/SVG/1.1/DTD/svg11.dtd" [
	<!ENTITY ns_flows "http://ns.adobe.com/Flows/1.0/">
]><svg xmlns="http://www.w3.org/2000/svg" width="60" height="60" viewBox="0 -8.845 60 60" overflow="visible"><path fill-rule="evenodd" clip-rule="evenodd" fill="#00A95E" d="M19.8.275c3.674 5.337 6.805 11.208 10.1 16.916-3.248 5.67-6.714 11.123-9.832 16.918-3.594 5.417-6.51 11.497-10.236 16.785C6.514 45.383 3.272 39.797 0 34.24 6.42 22.74 13.277 11.672 19.8.274z"/><path fill-rule="evenodd" clip-rule="evenodd" fill="#3374E6" d="M20.068 34.106h19.934c6.6.088 13.557-.175 19.933.133-3.375 5.63-6.525 11.48-10.1 16.914H9.965c-.025-.106-.135-.132-.134-.264 3.726-5.286 6.643-11.367 10.237-16.784z"/><path fill-rule="evenodd" clip-rule="evenodd" fill="#FFD059" d="M59.935 34.24c-6.376-.31-13.333-.046-19.933-.134-3.43-5.576-6.587-11.42-10.102-16.915C26.605 11.485 23.474 5.614 19.8.277 23.427.17 29.596.068 33.866.043c1.464-.01 4.5-.21 5.704.347.877.408 2.187 2.724 2.855 3.85 4.147 6.978 8.308 14.204 12.393 21.146 1.733 2.95 3.768 5.66 4.982 8.458.073.166.043.26.135.395z"/></svg>