<!DOCTYPE svg PUBLIC "-//W3C//DTD SVG 1.1//EN" "http://www.w3.org/Graphics/SVG/1.1/DTD/svg11.dtd" [
	<!ENTITY ns_flows "http://ns.adobe.com/Flows/1.0/">
]><svg xmlns="http://www.w3.org/2000/svg" width="60" height="60" viewBox="0 -16.806 60 60" overflow="visible"><path fill-rule="evenodd" clip-rule="evenodd" fill="#ADADA3" d="M53.163 13.29v1.94c-.23-.332-.23-1.61 0-1.94z"/><path fill-rule="evenodd" clip-rule="evenodd" fill="#EAE8DA" d="M29.904 27.827h.14c.682.562 1.484 1.007 2.214 1.522 6.816 4.626 13.724 9.164 20.49 13.843H6.92a534.006 534.006 0 0 1 22.982-15.367z"/><path fill-rule="evenodd" clip-rule="evenodd" fill="#AEAEA4" d="M51.224 12.737c.48-.306.84-.73 1.385-.97.2.075.336-.54.414-.138.088.464-.18 1.284.14 1.522v.138c-.23.33-.23 1.61 0 1.94v2.076c-7.037 3.948-13.97 7.998-20.906 12.044-.73-.516-1.533-.96-2.216-1.522 7.14-4.95 14.182-10 21.18-15.09zM6.645 41.948c7.575-4.794 15.067-9.67 22.29-14.813.118-.026.13.055.138.14-.278.197.775.23.83.553a533.612 533.612 0 0 0-22.98 15.366h-.278v-1.246z"/><path fill-rule="evenodd" clip-rule="evenodd" fill="#ADADA3" d="M52.608 11.768c.12-.203.207-.44.555-.416v1.8c-.317-.237-.05-1.057-.14-1.523-.077-.403-.214.21-.415.137zM29.073 27.273c.354.062.637.194.83.415 7.268-4.822 14.126-10.055 21.32-14.952-6.997 5.092-14.038 10.142-21.18 15.09h-.14c-.054-.322-1.108-.354-.83-.553z"/><path fill-rule="evenodd" clip-rule="evenodd" fill="#DE4534" d="M.416 40.84c.526.722 1.108 1.385 1.8 1.94-.8-.447-1.418-1.076-1.8-1.94z"/><path fill-rule="evenodd" clip-rule="evenodd" fill="#EAE8DA" d="M6.645 32.81V10.938c5.594 4.282 11.433 8.32 17.167 12.46.432.167.602.597 1.107.69 1.23 1.126 2.736 1.972 4.014 3.047-7.223 5.145-14.715 10.02-22.29 14.813V32.81z"/><path fill-rule="evenodd" clip-rule="evenodd" fill="#DD4431" d="M56.484.194h-1.246c-8.36 6-16.772 12.485-25.334 18.55C21.428 12.547 12.868 6.194 4.43.194h-.97C1.744.195.58 1.64 0 3.323V39.87c.233.23.17.752.416.97.526.722 1.108 1.385 1.8 1.94.207.16.566.17.692.414H7V10.936c5 4.282 11.257 8.32 16.99 12.46.433.167.514.597 1.02.69 1.23 1.126 2.692 1.972 3.97 3.047.118-.026.108.055.116.14.354.06.626.193.82.414 7.267-4.822 14.12-10.055 21.314-14.952.48-.306.754-.73 1.3-.97.12-.2.47-.436.47-.413v31.843h4.04c1.245-.647 1.96-1.538 2.96-2.91V3.043c-1-1.52-1.906-2.85-3.516-2.85z"/><path fill-rule="evenodd" clip-rule="evenodd" fill="#ADADA3" d="M52.747 43.194c-6.766-4.68-13.673-9.217-20.49-13.845 6.938-4.048 13.87-8.098 20.906-12.046v25.89h-.416z"/><path fill-rule="evenodd" clip-rule="evenodd" fill="#EAE8DA" d="M4.43 0h50.808c-8.36 6.27-16.772 12.485-25.334 18.55C21.428 12.353 12.868 6.24 4.43 0z"/></svg>