<!DOCTYPE svg PUBLIC "-//W3C//DTD SVG 1.1//EN" "http://www.w3.org/Graphics/SVG/1.1/DTD/svg11.dtd" [
	<!ENTITY ns_flows "http://ns.adobe.com/Flows/1.0/">
]><svg xmlns="http://www.w3.org/2000/svg" width="60" height="60" viewBox="0 -3.079 60 60" overflow="visible"><path fill-rule="evenodd" clip-rule="evenodd" fill="#27A06C" d="M24.31 56.92v-7.895C8.64 47.602-1.428 36.86.166 21.72 1.402 9.975 10.97.868 22.956.06c14.7-.99 25.935 10.666 25.95 24.37.02 17.536-12.92 26.47-24.596 32.49zM11.9 17.435c-.848 2.57-.482 7.45-.227 10.38 1.542 1.016 5.133-.02 6.995.677-.095 2.313-1.862 2.952-3.61 3.61.098 1.03-.228 2.485.226 3.16 7.71.635 7.626-9.668 6.77-17.6-2.54-.83-7.257-.484-10.155-.226zm15.118 0c-.86 2.536-.48 7.48-.226 10.38 1.54 1.016 5.133-.02 6.994.677-.203 2.203-1.866 2.947-3.61 3.61v3.16c7.91.75 7.86-9.575 6.995-17.6-2.54-.83-7.253-.484-10.15-.226z"/></svg>