<svg width="60" height="60" viewBox="0 0 60 60" fill="none" xmlns="http://www.w3.org/2000/svg">
<path d="M16.3767 3.30521C25.3148 3.30521 34.2529 3.30521 43.191 3.30521C45.3403 3.87413 46.6089 5.36863 47.6446 7.25488C49.5981 10.8124 51.7396 14.2666 53.7007 17.8201C55.812 21.6458 58.3855 25.2197 60 29.317C60 29.7839 60 30.2508 60 30.7177C59.097 33.1156 57.6914 35.2417 56.3765 37.4168C55.9183 37.1884 55.5868 36.8087 55.2338 36.4559C49.9282 31.1533 44.6245 25.8489 39.3166 20.5486C38.9681 20.2006 38.6697 19.7683 38.1167 19.7057C37.7817 19.5236 37.7357 18.3184 37.0428 19.4022C36.7213 19.0357 36.4183 18.6506 36.0733 18.3076C35.6637 17.9004 35.2584 17.4157 34.5666 17.7658C34.2027 17.7843 33.8388 17.8183 33.4748 17.8189C30.0488 17.8247 26.6227 17.8225 23.1967 17.8297C22.8122 17.8305 22.4074 17.7438 22.1466 18.1988C20.1467 21.6881 18.1351 25.1707 16.1188 28.6505C15.9203 28.9932 16.1334 29.0443 16.3754 29.1089C16.9106 29.7004 17.4457 30.292 17.9809 30.8835C17.6164 30.8961 17.2499 30.9384 16.8877 30.915C16.1493 30.8674 15.9014 31.0207 16.3582 31.7673C17.0672 32.9261 17.6964 34.1337 18.3594 35.3205C17.5093 35.5117 16.6477 35.5264 15.7803 35.5242C11.8849 35.5143 7.98941 35.5201 4.09394 35.52C3.55912 35.5199 3.0069 35.4726 2.69434 36.0541C2.13398 35.1125 1.59465 34.1577 1.00908 33.2321C-0.380702 31.0352 -0.293691 28.9003 1.01658 26.6667C4.65021 20.4724 8.24196 14.253 11.7915 8.0101C12.9233 6.01943 14.0613 4.10866 16.3767 3.30521Z" fill="#4586F5"/>
<path d="M56.3765 37.4168C56.3887 37.4677 56.3729 37.5075 56.3289 37.5361C56.2326 37.5564 56.1714 37.5998 56.2125 37.7112C56.2449 37.6852 56.2764 37.6863 56.307 37.7145C53.6498 42.2822 50.9924 46.8498 48.3356 51.4177C47.9846 52.0212 47.6029 52.6099 47.2942 53.2345C46.4302 54.9824 45.074 56.1055 43.1842 56.5846C43.1166 56.5675 43.0491 56.5504 42.9816 56.5333C42.6303 56.2719 42.2202 56.3353 41.8257 56.3332C40.6615 56.327 39.4972 56.3284 38.333 56.3314C37.8933 56.3326 37.4828 56.2931 37.1287 55.9695C34.9235 53.9542 32.7117 51.946 30.4966 49.9417C27.9372 47.6259 25.3743 45.3142 22.8067 43.0076C22.5015 42.7335 22.2136 42.4688 22.2175 42.0196C22.5111 42.0616 22.8048 42.1396 23.0985 42.1402C26.8294 42.1486 30.5605 42.1248 34.291 42.1605C35.2366 42.1696 35.1829 41.8942 34.7881 41.219C32.9557 38.0856 31.1409 34.9415 29.3604 31.7784C29.0057 31.1483 28.6063 30.8971 27.8725 30.9031C24.5756 30.93 21.2782 30.8957 17.9809 30.8835C17.4458 30.292 16.9106 29.7004 16.3754 29.1089C16.7399 29.0946 17.1043 29.0683 17.4688 29.068C20.9576 29.0648 24.4464 29.0615 27.9352 29.071C28.4196 29.0723 28.7956 29.0376 29.0874 28.5301C31.0235 25.1625 32.9849 21.8093 34.9691 18.4698C35.3219 17.8761 35.0227 17.8156 34.5667 17.7658C35.2585 17.4157 35.6637 17.9004 36.0733 18.3076C36.4183 18.6506 36.7213 19.0357 37.0428 19.4022C35.1771 22.673 33.3242 25.9511 31.4336 29.2073C31.1109 29.7631 31.0821 30.1789 31.4204 30.7482C32.8506 33.1549 34.2265 35.5938 35.6239 38.0201C36.2202 39.0554 36.8204 40.0885 37.4222 41.1285C37.7954 40.8962 37.8941 40.5614 38.0575 40.2784C39.8579 37.161 41.6218 34.022 43.4685 30.9324C43.9349 30.1521 43.848 29.6047 43.411 28.8687C41.6103 25.8357 39.8757 22.7635 38.1168 19.7057C38.6697 19.7683 38.9681 20.2006 39.3166 20.5486C44.6245 25.8489 49.9283 31.1533 55.2338 36.4559C55.5869 36.8087 55.9184 37.1884 56.3765 37.4168Z" fill="#417BDD"/>
<path d="M22.2175 42.0196C22.2136 42.4688 22.5015 42.7335 22.8067 43.0076C25.3743 45.3142 27.9372 47.6259 30.4966 49.9416C32.7117 51.946 34.9235 53.9542 37.1287 55.9695C37.4828 56.2931 37.8933 56.3326 38.333 56.3314C39.4972 56.3283 40.6615 56.327 41.8257 56.3332C42.2202 56.3353 42.6303 56.2719 42.9816 56.5333C42.9105 56.5761 42.8396 56.6189 42.7689 56.6617C42.6923 56.6727 42.6155 56.6837 42.5388 56.6948C34.5733 56.6797 26.6075 56.6165 18.6426 56.6753C15.8097 56.6963 13.8654 55.6251 12.4734 53.1265C9.45949 47.7169 6.30086 42.388 3.2042 37.0244C3.02166 36.7082 2.86374 36.3779 2.69437 36.0541C3.00692 35.4726 3.55913 35.5199 4.09396 35.52C7.98943 35.5201 11.8849 35.5143 15.7804 35.5242C16.6477 35.5265 17.5094 35.5117 18.3594 35.3205C19.7106 37.516 21.0198 39.7357 22.2175 42.0196Z" fill="#4784ED"/>
<path d="M34.5667 17.7658C35.0227 17.8156 35.3219 17.8761 34.9691 18.4698C32.9849 21.8093 31.0235 25.1625 29.0874 28.5301C28.7956 29.0376 28.4196 29.0723 27.9352 29.071C24.4465 29.0615 20.9576 29.0648 17.4688 29.068C17.1044 29.0683 16.7399 29.0946 16.3754 29.1089C16.1334 29.0443 15.9203 28.9932 16.1188 28.6505C18.1351 25.1707 20.1467 21.6881 22.1466 18.1988C22.4074 17.7438 22.8123 17.8305 23.1968 17.8297C26.6228 17.8225 30.0488 17.8247 33.4748 17.8189C33.8388 17.8183 34.2027 17.7843 34.5667 17.7658Z" fill="#FEFEFE"/>
<path d="M38.1167 19.7057C39.8757 22.7635 41.6103 25.8357 43.411 28.8687C43.8479 29.6047 43.9349 30.1521 43.4685 30.9324C41.6218 34.022 39.8578 37.161 38.0575 40.2784C37.8941 40.5614 37.7954 40.8962 37.4222 41.1285C36.8204 40.0885 36.2202 39.0554 35.6239 38.0201C34.2265 35.5938 32.8506 33.1549 31.4204 30.7482C31.0821 30.1789 31.1109 29.7631 31.4336 29.2073C33.3242 25.9511 35.1771 22.673 37.0428 19.4022C37.7357 18.3184 37.7817 19.5236 38.1167 19.7057Z" fill="#D8E6FB"/>
<path d="M22.2174 42.0196C21.0198 39.7357 19.7106 37.516 18.3594 35.3205C17.6964 34.1337 17.0672 32.9261 16.3582 31.7673C15.9014 31.0207 16.1493 30.8674 16.8877 30.915C17.2499 30.9384 17.6164 30.8961 17.9809 30.8835C21.2782 30.8957 24.5756 30.93 27.8725 30.9031C28.6063 30.8971 29.0057 31.1483 29.3604 31.7784C31.1409 34.9415 32.9557 38.0856 34.7881 41.219C35.1829 41.8942 35.2365 42.1696 34.291 42.1605C30.5605 42.1248 26.8294 42.1486 23.0985 42.1402C22.8047 42.1396 22.5111 42.0616 22.2174 42.0196Z" fill="#B5CEF7"/>
<path d="M42.5388 56.6948C42.6155 56.6837 42.6923 56.6727 42.7689 56.6617C42.692 56.6728 42.6154 56.6838 42.5388 56.6948Z" fill="#D8E6FB"/>
<path d="M56.2125 37.7116C56.1714 37.6 56.2327 37.5564 56.3292 37.5361C56.2904 37.5946 56.2515 37.6531 56.2125 37.7116Z" fill="#4586F5"/>
</svg>
