<!DOCTYPE svg PUBLIC "-//W3C//DTD SVG 1.1//EN" "http://www.w3.org/Graphics/SVG/1.1/DTD/svg11.dtd" [
	<!ENTITY ns_flows "http://ns.adobe.com/Flows/1.0/">
]><svg xmlns="http://www.w3.org/2000/svg" width="60" height="60" viewBox="0 -7.134 60 60" overflow="visible"><path fill-rule="evenodd" clip-rule="evenodd" fill="#D94234" d="M12.626 0H40.24c8.046.37 12.257 4.578 12.626 12.627V40.24c-.366 8.052-4.58 12.254-12.626 12.626H12.626C4.58 52.493.366 48.293 0 40.24V12.627C.365 4.574 4.58.373 12.626 0zm19.47 12.98c-1.417-1.088-2.605-1.813-4.482-2.005-6.23-.638-10.686 4-10.03 10.03.424 3.905 3.068 6.483 4.956 10.03 1.068 2.008 2.356 5.56 2.832 8.38.127.752.015 2.756 1.18 2.595.785-.11.855-2.162.944-2.713a27.357 27.357 0 0 1 2.714-8.26c1.594-3.088 4.57-6.32 4.956-9.796.37-3.34-.686-5.63-1.89-7.08a6.623 6.623 0 0 0-1.18-1.18z"/><path fill-rule="evenodd" clip-rule="evenodd" fill="#E2A19B" d="M25.726 16.167c.165-.195 1.132-.195 1.297 0h-1.297z"/><path fill-rule="evenodd" clip-rule="evenodd" fill="#D94234" d="M23.128 21.595c-1.052-2.526.33-5.104 2.597-5.43h1.297c5.68.976 2.457 9.766-2.713 6.728-.367-.462-.8-.855-1.183-1.298z"/><path fill-rule="evenodd" clip-rule="evenodd" fill="#E2A19B" d="M32.097 12.98a6.69 6.69 0 0 1 1.18 1.18 6.623 6.623 0 0 1-1.18-1.18z"/><path fill-rule="evenodd" clip-rule="evenodd" fill="#FFF" d="M33.276 14.16c1.203 1.45 2.26 3.74 1.89 7.082-.387 3.477-3.362 6.708-4.957 9.795a27.347 27.347 0 0 0-2.716 8.26c-.09.552-.16 2.605-.944 2.714-1.164.163-1.052-1.84-1.18-2.594-.475-2.818-1.763-6.37-2.83-8.378-1.89-3.548-4.533-6.126-4.957-10.03-.655-6.03 3.802-10.67 10.03-10.03 1.877.19 3.065.916 4.483 2.004a6.69 6.69 0 0 0 1.18 1.18zm-7.55 2.007c-2.268.325-3.65 2.903-2.597 5.43.26.563.73.92 1.18 1.297 5.17 3.04 8.392-5.75 2.712-6.727-.166-.195-1.132-.195-1.297 0z"/><path fill-rule="evenodd" clip-rule="evenodd" fill="#E2A19B" d="M23.128 21.595c.383.443.816.836 1.18 1.298-.447-.378-.917-.733-1.18-1.298z"/></svg>