<svg width="60" height="60" viewBox="0 0 60 60" fill="none" xmlns="http://www.w3.org/2000/svg">
<g clip-path="url(#clip0_12_2)">
<path d="M17.5146 49.3965C15.9125 47.8045 14.3061 46.2169 12.7092 44.6197C9.0075 40.9173 5.3076 37.2132 1.61328 33.5034C0.61225 32.4982 0.0702765 31.2756 0.11602 29.8517C0.159643 28.4942 0.734082 27.3449 1.69175 26.3857C9.99844 18.0656 18.3142 9.75459 26.6043 1.41812C28.4087 -0.396334 31.5961 -0.491243 33.3649 1.25826C36.4857 4.34487 39.5682 7.47012 42.6667 10.5792C42.5036 10.7261 42.333 10.8654 42.1787 11.0209C38.7667 14.4606 35.3567 17.9022 31.9457 21.3429C31.4675 21.8252 30.9839 22.3023 30.5065 22.7855C30.3675 22.9262 30.1859 23.043 30.1824 23.2752C30.005 23.2272 29.9162 23.3582 29.8147 23.4597C27.7394 25.534 25.6708 27.615 23.5826 29.6763C23.2902 29.965 23.4036 30.1091 23.6265 30.3305C24.8758 31.5708 26.1213 32.8152 27.3573 34.0689C28.2442 34.9684 29.1142 35.8846 29.9917 36.7934C29.9897 36.8395 29.9878 36.8856 29.9858 36.9317C29.8881 37.0135 29.7835 37.0883 29.6937 37.178C25.7167 41.1532 21.7409 45.1297 17.766 49.1071C17.6759 49.1972 17.5981 49.2997 17.5146 49.3965Z" fill="#4FC2F6"/>
<path d="M30.1824 23.2752C30.1859 23.043 30.3675 22.9262 30.5065 22.7855C30.9839 22.3023 31.4674 21.8252 31.9457 21.3429C35.3567 17.9022 38.7667 14.4606 42.1787 11.0209C42.333 10.8654 42.5036 10.7261 42.6666 10.5792C44.385 12.2859 46.108 13.9879 47.8208 15.7002C51.3138 19.1922 54.7854 22.7058 58.2996 26.1763C59.5626 27.4236 60.145 28.8721 59.9693 30.6238C59.852 31.7938 59.3015 32.7685 58.485 33.5876C53.2092 38.8802 47.9265 44.1658 42.6453 49.4529C42.6204 49.4778 42.5842 49.4913 42.5533 49.5101C42.5524 49.2778 42.3739 49.1583 42.2338 49.0181C38.3144 45.0973 34.3941 41.1773 30.472 37.2591C30.3331 37.1203 30.2208 36.9321 29.9858 36.9317C29.9878 36.8856 29.9897 36.8395 29.9916 36.7934C30.2012 36.737 30.3141 36.5581 30.4541 36.418C32.4643 34.4065 34.4633 32.3836 36.4881 30.3868C36.818 30.0614 36.807 29.9012 36.4834 29.5813C34.3699 27.4925 32.28 25.3799 30.1824 23.2752Z" fill="#2979FE"/>
<path d="M29.9858 36.9317C30.2207 36.9321 30.3331 37.1203 30.472 37.2591C34.3941 41.1773 38.3144 45.0973 42.2338 49.0182C42.3739 49.1583 42.5523 49.2778 42.5533 49.5101C40.5246 51.5564 38.497 53.6037 36.4667 55.6484C35.4833 56.6387 34.5017 57.6309 33.5073 58.6101C31.6609 60.4279 28.5518 60.5077 26.6285 58.5826C23.6434 55.5948 20.664 52.6011 17.6834 49.6088C17.62 49.5452 17.5705 49.4676 17.5146 49.3965C17.5981 49.2997 17.6759 49.1973 17.766 49.1071C21.7409 45.1297 25.7167 41.1532 29.6937 37.178C29.7834 37.0883 29.8881 37.0135 29.9858 36.9317Z" fill="#2962FE"/>
</g>
<defs>
<clipPath id="clip0_12_2">
<rect width="60" height="60" fill="white"/>
</clipPath>
</defs>
</svg>
