<svg width="60" height="60" viewBox="0 0 60 60" fill="none" xmlns="http://www.w3.org/2000/svg">
<g clip-path="url(#clip0_12_34)">
<path d="M29.645 0C29.8662 0 30.0873 0 30.3084 0C30.3369 0.0586032 30.393 0.0454743 30.4413 0.0499727C33.7534 0.358133 35.9667 3.43711 35.1836 6.66091C35.1344 6.86337 35.1906 6.9439 35.3537 7.03787C39.3156 9.32028 43.2755 11.6062 47.2319 13.8981C47.4071 13.9995 47.4989 13.9713 47.6396 13.84C48.9198 12.6458 50.4352 12.1606 52.1667 12.4151C54.6515 12.7805 56.5001 14.8461 56.6775 17.4236C56.8415 19.807 55.2273 22.1093 52.8881 22.8022C52.6448 22.8743 52.5808 22.9765 52.5812 23.2187C52.5883 27.7527 52.588 32.2866 52.5816 36.8206C52.5814 37.0505 52.6349 37.1514 52.8739 37.2228C55.6829 38.0619 57.2906 41.0327 56.4595 43.8223C55.2885 47.7525 50.3923 48.9828 47.5034 46.0712C47.3953 45.9622 47.3215 45.8887 47.1456 45.9906C43.1899 48.2836 39.23 50.5694 35.2687 52.8528C35.1283 52.9338 35.0849 53.006 35.1336 53.1737C35.318 53.8075 35.3778 54.4542 35.322 55.116C35.0716 58.0878 32.367 60.3103 29.4109 59.9645C26.198 59.5887 24.0673 56.5485 24.8138 53.3888C24.8646 53.1741 24.8069 53.0925 24.6347 52.9934C20.6799 50.7155 16.7277 48.4334 12.7785 46.146C12.611 46.049 12.5187 46.055 12.3713 46.1902C10.9054 47.5343 9.19441 47.9853 7.27146 47.4795C5.08931 46.9055 3.64061 45.1366 3.34876 42.7732C3.3493 42.7223 3.35203 42.6713 3.34998 42.6205C3.24959 40.073 4.75684 37.9471 7.2078 37.2015C7.40853 37.1405 7.42264 37.036 7.42257 36.8708C7.42032 32.305 7.41909 27.7393 7.42591 23.1735C7.42618 22.9541 7.35284 22.8769 7.14946 22.8114C5.18705 22.1799 3.95305 20.8603 3.45181 18.8566C3.39913 18.646 3.41194 18.4213 3.31107 18.2219C3.31107 17.8476 3.31107 17.4733 3.31107 17.099C3.40397 17.0166 3.37766 16.897 3.39804 16.7953C3.81169 14.7282 4.99375 13.2891 6.99297 12.6311C9.00036 11.9704 10.818 12.4194 12.3766 13.8537C12.5197 13.9854 12.6103 13.9831 12.7654 13.8933C16.7303 11.5989 20.6973 9.30814 24.6671 7.0221C24.8289 6.92888 24.8624 6.84342 24.8185 6.66047C24.0949 3.64705 25.9705 0.726319 29.0076 0.121266C29.2198 0.079004 29.4434 0.0968868 29.645 0ZM29.9902 41.072C35.2715 41.072 40.5528 41.0709 45.8341 41.0761C46.0416 41.0763 46.1415 41.0302 46.2033 40.8112C46.4355 39.9874 46.8529 39.2596 47.4532 38.6486C47.606 38.493 47.5987 38.3917 47.4983 38.2184C45.7465 35.1965 44.0009 32.1709 42.2545 29.1458C38.7106 23.0073 35.1664 16.869 31.6278 10.7275C31.5298 10.5572 31.4431 10.5148 31.2518 10.5637C30.4302 10.7734 29.601 10.7812 28.7799 10.5675C28.5613 10.5106 28.471 10.5736 28.3676 10.7532C25.946 14.9587 23.5189 19.1609 21.0927 23.3636C18.233 28.3171 15.3744 33.2713 12.5089 38.2214C12.3989 38.4113 12.4189 38.5165 12.5676 38.6698C13.1449 39.2655 13.561 39.9651 13.7833 40.7652C13.8547 41.022 13.9703 41.0786 14.2228 41.0782C19.4786 41.07 24.7344 41.072 29.9902 41.072ZM29.9976 43.6063C24.7426 43.6063 19.4877 43.6063 14.2328 43.6063C14.1563 43.6063 14.0795 43.6104 14.0032 43.6062C13.9114 43.601 13.8625 43.6432 13.8377 43.7287C13.8114 43.8191 13.8746 43.8494 13.9334 43.8835C14.1685 44.0201 14.4038 44.1562 14.6392 44.2922C18.4065 46.4674 22.174 48.6424 25.9408 50.8185C26.0605 50.8876 26.1473 50.946 26.2889 50.8147C28.5063 48.7593 31.6751 48.8008 33.8146 50.9105C33.9276 51.0218 34.0021 51.0268 34.1345 50.9502C38.1056 48.6522 42.0785 46.3573 46.0548 44.0683C46.2108 43.9785 46.216 43.892 46.1733 43.7446C46.1157 43.5452 45.9614 43.6085 45.8388 43.6085C40.5584 43.6059 35.278 43.6063 29.9976 43.6063ZM9.95635 30.0045C9.95635 32.2842 9.95635 34.5639 9.95649 36.8436C9.95649 36.9116 9.95833 36.9796 9.95826 37.0477C9.95812 37.1201 9.99908 37.1508 10.0651 37.1675C10.1293 37.1837 10.1813 37.1849 10.217 37.1183C10.2451 37.0659 10.277 37.0157 10.3068 36.9642C15.249 28.4035 20.1912 19.8429 25.1335 11.2822C25.4947 10.6566 25.8541 10.0299 26.2189 9.40623C26.2905 9.28384 26.3151 9.17384 26.1587 9.12422C26.1054 9.10729 26.021 9.17157 25.9565 9.20876C21.9818 11.5026 18.0081 13.7983 14.0315 16.0889C13.8678 16.1832 13.8146 16.2636 13.8611 16.465C14.5024 19.2399 12.9235 21.9892 10.2229 22.802C10.0152 22.8645 9.95042 22.9494 9.95124 23.1654C9.95955 25.4451 9.95635 27.7248 9.95635 30.0045ZM50.0481 30.0272C50.0481 27.7305 50.0453 25.4339 50.0528 23.1372C50.0534 22.939 49.9917 22.8647 49.8034 22.8082C47.089 21.9925 45.5045 19.2618 46.138 16.4878C46.1851 16.2819 46.144 16.193 45.9651 16.09C41.995 13.8052 38.0289 11.5134 34.062 9.22291C34.0178 9.19741 33.9738 9.17168 33.93 9.14561C33.8706 9.11033 33.8202 9.1187 33.7706 9.16822C33.7204 9.21845 33.7156 9.26952 33.7498 9.32858C33.784 9.3874 33.817 9.44683 33.851 9.50572C39.1201 18.6332 44.3892 27.7606 49.6584 36.888C49.6966 36.9543 49.7357 37.0201 49.7728 37.0869C49.8099 37.1539 49.8585 37.1828 49.9396 37.1655C50.025 37.1472 50.0476 37.0951 50.047 37.0193C50.0466 36.9513 50.048 36.8832 50.048 36.8152C50.0481 34.5525 50.0481 32.2899 50.0481 30.0272Z" fill="#E435AB"/>
</g>
<defs>
<clipPath id="clip0_12_34">
<rect width="60" height="60" fill="white"/>
</clipPath>
</defs>
</svg>
