<!DOCTYPE svg PUBLIC "-//W3C//DTD SVG 1.1//EN" "http://www.w3.org/Graphics/SVG/1.1/DTD/svg11.dtd" [
	<!ENTITY ns_flows "http://ns.adobe.com/Flows/1.0/">
]><svg xmlns="http://www.w3.org/2000/svg" width="60" height="60" viewBox="0 -10 60 60" overflow="visible"><path fill-rule="evenodd" clip-rule="evenodd" fill="#C0BA97" d="M43.648 17.36h.097c.292 2.244-.095 6.053.196 8.63-.227 3.245-.03 6.925-.096 10.337-1.93.734-3.898 1.966-5.885 2.308.206-5.366.174-12.177.195-18.966 1.88-.72 3.636-1.568 5.494-2.31z"/><path fill-rule="evenodd" clip-rule="evenodd" fill="#D9EEF0" d="M35.212 20.974c.163.304.163 1.3 0 1.605v-1.607z"/><path fill-rule="evenodd" clip-rule="evenodd" fill="#71C358" d="M11.574 25.49h.098c.003-.1.12-.078.196-.102v10.938c1.803.897 3.715 1.685 5.69 2.408.707-.212 1.202-.644 1.96-.803.055.76-.063 1.34-.098 2.01 2.643 1.343 5.662 2.3 8.337 3.61.06-.14.377-.014.392-.2 2.782-1.032 5.426-2.206 8.14-3.31.05-.788-.054-1.42-.1-2.108.64.183 1.068.582 1.767.703 1.986-.342 3.955-1.573 5.885-2.308.065-3.412-.13-7.092.098-10.336 2.706 2.13 6.11 4.593 7.16 8.328.576 2.046-.274 3.89-1.372 5.02-3.78 3.886-12.328 5.472-18.832 6.22h-.98c-.515-.06-.743.177-1.276.1h-2.058c-.33-.23-1.077-.034-1.57-.1-7.46-.867-16.14-2.018-20.303-6.422-.726-.766-1.198-1.79-1.473-2.91v-1.003c1.35-4.704 4.746-7.318 8.336-9.733z"/><path fill-rule="evenodd" clip-rule="evenodd" fill="#D9EEF0" d="M3.237 35.224v1.003c-.162-.11-.162-.896 0-1.003zM29.916 45.56h.98c-.106.165-.875.165-.98 0zM27.463 45.66h1.176c-.17.165-1.008.165-1.178 0zM22.07 1.204c.35-.274.855-.394 1.37-.502-.387.24-.903.348-1.373.502zM3.825 20.37C7.823 11.885 13.27 4.88 21.97 1.205 13.385 4.995 7.94 12 3.826 20.37zM2.648 23.382c-.117.348-.154.78-.393 1.004.12-.35.155-.78.393-1.004zM2.06 25.088c-.07.464-.2.867-.393 1.204.07-.464.2-.868.393-1.204zM32.957.903c.34.12.762.157.98.4-.34-.118-.762-.155-.98-.4zM34.525 1.506c.448.145.84.345 1.178.602a3.932 3.932 0 0 1-1.178-.602zM35.8 2.107c7.73 4.202 12.913 11.007 16.577 19.368-3.77-8.25-8.992-15.02-16.576-19.368zM52.377 21.576c.33.432.474 1.054.687 1.605-.33-.43-.475-1.053-.687-1.603zM53.063 23.282c.238.223.274.654.393 1.003-.24-.224-.275-.656-.393-1.003zM55.712 38.334c-1.36 3.19-4.555 4.505-7.553 6.02 2.897-1.617 6.05-2.972 7.55-6.02zM44.628 45.76c.496-.33 1.17-.478 1.766-.703-.484.342-1.143.503-1.766.703zM42.766 46.36a5.09 5.09 0 0 1 1.47-.5 5.06 5.06 0 0 1-1.47.5zM11.966 45.96c.372.122.792.195 1.08.4-.42-.07-.82-.162-1.08-.4zM9.416 45.057c.814.306 1.69.545 2.452.904-.89-.227-1.753-.48-2.452-.902zM.098 38.233c1.43 3.153 4.636 4.49 7.553 6.12-3.017-1.527-6.245-2.84-7.55-6.12zM11.868 19.468c.125-.508.768-.487 1.177-.703-.29.34-.942.307-1.177.703z"/><path fill-rule="evenodd" clip-rule="evenodd" fill="#B7E2F4" d="M27.562 0h.687c1.7.165 3.25.49 4.706.903.218.245.64.28.98.4.204.06.28.25.588.202.337.257.73.457 1.178.602h.098c7.585 4.35 12.807 11.117 16.577 19.368v.1c.212.55.357 1.173.687 1.606v.103c.117.347.153.778.393 1.003 1.188 3.702 2.092 7.693 2.354 12.343v1.304c-.144.018-.09.242-.096.4-1.5 3.05-4.654 4.404-7.553 6.022-.664.156-1.18.466-1.765.702-.597.226-1.27.374-1.766.703-.17-.007-.305.023-.393.1a5.07 5.07 0 0 0-1.47.503c-3.895 1.102-8.11 1.874-12.752 2.208h-4.12c-4.688-.32-8.932-1.097-12.85-2.207-.287-.206-.707-.28-1.078-.4h-.098c-.76-.36-1.64-.6-2.453-.904-.586-.24-1.1-.548-1.766-.705-2.916-1.632-6.12-2.968-7.552-6.12-.016-.15.036-.37-.098-.402V36.73c.237-3.806.824-7.25 1.666-10.438.194-.336.323-.74.393-1.203.074-.224.204-.393.194-.703.24-.225.275-.656.393-1.004.396-1 .836-1.953 1.177-3.01C7.937 12 13.384 4.995 21.97 1.203h.1c.47-.154.985-.262 1.372-.502 1.308-.3 2.65-.564 4.12-.7zM3.237 36.227c.275 1.12.747 2.145 1.47 2.91C8.87 43.54 17.55 44.692 25.012 45.56c.33.23 1.077.033 1.57.1h.88c.17.165 1.01.165 1.177 0 .532.075.76-.16 1.274-.1.105.164.874.164.98 0 6.504-.75 15.053-2.336 18.832-6.223 1.098-1.13 1.948-2.973 1.373-5.02-1.05-3.734-4.456-6.196-7.16-8.327-.29-2.577.095-6.387-.197-8.63h-.097c-1.335-.91-3.142-1.335-4.61-2.106-.336-.36-1.105-.548-1.473-.1-.51.213-.964.485-1.568.602-.412.08-.714.273-1.08.4a91.542 91.542 0 0 1-.293-5.218c-.116-.015-.224-.178-.295 0h-.098c-.054-.527-.794-.678-1.275-.902-1.12-.522-2.155-.96-3.336-1.506-1.62-.75-2.05-.64-3.53 0-.603.26-1.12.583-1.67.903-.38-.023-.507.215-.784.3-.745.41-1.8.503-2.255 1.205-.624 2.572-.407 6.006-.784 8.832-1.18-.866-1.813-2.294-3.236-2.91 0 .132-.17.09-.195.2-1.36.583-2.67 1.216-4.12 1.705-.41.216-1.052.195-1.177.703-.165 1.894.348 4.947-.294 6.02-3.59 2.416-6.986 5.03-8.337 9.735-.162.108-.162.895 0 1.004z"/><path fill-rule="evenodd" clip-rule="evenodd" fill="#D9EEF0" d="M37.565 15.153c.367-.447 1.137-.26 1.473.1-.5-.215-.94-.393-1.473-.1zM34.918 16.157c.365-.128.667-.32 1.08-.4-.256.207-.583.34-.98.4-.066.504.128 1.27-.1 1.605-.063-.438.128-1.135-.098-1.405v-.1c.082.018.09-.04.098-.1z"/><path fill-rule="evenodd" clip-rule="evenodd" fill="#C0BA97" d="M17.557 38.735V24.887c.908-.51 2.037-.794 2.844-1.405h.1c-.477 4.45-.534 9.767-.98 14.45-.76.16-1.253.59-1.962.803z"/><path fill-rule="evenodd" clip-rule="evenodd" fill="#51869A" d="M34.23 10.938h.1c.474 1.456.22 3.656.49 5.318v.1c.063.44-.13 1.136.098 1.406v.1c.064.438-.128 1.135.1 1.405v.1c.03 1.708.106 3.37.293 4.918v.1c.01 1.098.043 2.165.198 3.11v.102c.164 3.51.287 7.063.687 10.336.045.688.146 1.32.1 2.107-2.715 1.104-5.36 2.278-8.143 3.31h-.293c.064-9.866-.13-20 .097-29.702v-.1c2.083-.847 4.164-1.695 6.18-2.61h.096z"/><path fill-rule="evenodd" clip-rule="evenodd" fill="#70ACC2" d="M21.383 10.938c2.19.902 4.32 1.868 6.57 2.71-.228 9.7-.032 19.835-.097 29.703h.294c-.015.19-.332.064-.392.203-2.675-1.31-5.695-2.27-8.337-3.612.037-.666.155-1.25.1-2.006.448-4.684.504-10 .98-14.45-.046-1.26.195-2.735.1-3.713.376-2.825.16-6.26.784-8.83z"/><path fill-rule="evenodd" clip-rule="evenodd" fill="#FDF8D4" d="M43.648 17.36c-1.858.743-3.613 1.59-5.493 2.31-.02 6.788.01 13.6-.196 18.965-.7-.12-1.13-.52-1.768-.702v-.703c-.064-.503.128-1.27-.1-1.605-.083.02-.093-.04-.097-.1.188-1.967-.144-4.27-.294-6.222-.083.018-.092-.04-.097-.1.162-.306.162-1.303 0-1.606h-.1v-.1c.234-.91.002-2.21-.097-3.11h-.1v-.102c.164-.305.164-1.302 0-1.605-.083.02-.092-.04-.098-.1.162-.306.162-1.303 0-1.606-.085.02-.094-.04-.1-.1.164-.272.164-1.235 0-1.506h-.097v-.1c.163-.24.163-1.168 0-1.405h-.1v-.1c.23-.338.035-1.103.1-1.606.4-.06.727-.194.98-.4.605-.118 1.06-.39 1.57-.604.533-.293.973-.115 1.473.1 1.473.772 3.28 1.197 4.614 2.108z"/><path fill-rule="evenodd" clip-rule="evenodd" fill="#D9EEF0" d="M35.113 20.873v-1.505c.164.27.164 1.234 0 1.505z"/><path fill-rule="evenodd" clip-rule="evenodd" fill="#FDF8D4" d="M20.4 23.482c-.807.61-1.935.895-2.843 1.405v13.848c-1.974-.724-3.886-1.51-5.69-2.408V25.39c-.075.022-.192.002-.195.1h-.098c.643-1.074.13-4.127.294-6.02.234-.397.887-.366 1.177-.704 1.45-.49 2.76-1.123 4.12-1.705a.452.452 0 0 0 .294-.1c.707 1.018 2.664 1.61 3.04 3.01.286 1.07-.288 2.063-.1 3.513z"/><path fill-rule="evenodd" clip-rule="evenodd" fill="#D9EEF0" d="M35.31 24.285V22.68c.164.303.164 1.3 0 1.605zM35.507 27.496c.07-1.144-.162-1.976-.098-3.11.097.902.33 2.2.096 3.11zM35.605 29.202v-1.605c.163.303.163 1.3 0 1.605zM35.997 35.523c.015-2.19-.297-4.045-.294-6.22.15 1.953.483 4.255.294 6.22zM36.193 37.23c-.228-.338-.034-1.103-.1-1.606.228.337.036 1.103.1 1.605zM25.012 45.56c.492.064 1.24-.132 1.57.1-.494-.066-1.242.13-1.57-.1z"/></svg>