<!DOCTYPE svg PUBLIC "-//W3C//DTD SVG 1.1//EN" "http://www.w3.org/Graphics/SVG/1.1/DTD/svg11.dtd" [
	<!ENTITY ns_flows "http://ns.adobe.com/Flows/1.0/">
]><svg xmlns="http://www.w3.org/2000/svg" width="60" height="60" viewBox="0 -0.436 60 60" overflow="visible"><path fill-rule="evenodd" clip-rule="evenodd" fill="#E82734" d="M25.93 0h2.716c3.014 1.066 5.037 3.09 4.445 7.65-2.71 7.032-13.99 3.246-11.604-3.826C22.132 1.904 23.832.976 25.93 0zM0 28.187C3.453 24.174 8.844 17.76 15.805 17.02c6.464-.69 9.372 2.495 8.89 6.735C24.1 28.98 20.46 34.44 18.027 39.71c-1.222 2.645-2.343 5.53-3.457 8.154-1.086 2.558-3.74 5.926-.248 8.154 7.973-.244 9.516-5.105 13.088-8.51h3.21c-3.633 5.312-8.064 10.048-16.298 12.056h-3.457c-4.45-1.062-6.645-2.99-6.173-7.445.533-5.05 3.942-10.656 6.42-15.78 1.237-2.56 2.6-5.13 3.704-7.623 1.154-2.603 2.847-5.34 1.976-7.977-3.862-1.54-6.253.987-8.15 2.482-2.07 1.637-4.353 3.483-5.432 5.32H0v-.355z"/></svg>