<svg xmlns="http://www.w3.org/2000/svg" width="60" height="60" viewBox="0 0 60 60"><path fill="#D8D8D8" d="M26.938 6.125C12.06 6.125 0 18.185 0 33.062S12.06 60 26.938 60s26.938-12.06 26.938-26.938S41.814 6.125 26.938 6.125zm.54 43.723c-.5.555-1.196.832-2.087.832-.81 0-1.482-.246-2.014-.738s-.797-1.3-.797-2.426c0-2.125.937-3.188 2.81-3.188.907 0 1.606.273 2.1.82s.737 1.336.737 2.367c0 1-.25 1.778-.75 2.333zm8.354-23.18c-.305.867-.754 1.688-1.348 2.46s-1.875 2.02-3.844 3.74c-1.578 1.343-2.62 2.46-3.13 3.35s-.76 2.08-.76 3.563v.775h-3.024V39.29c0-1.83.28-3.333.844-4.513s1.61-2.426 3.14-3.738c2.126-1.798 3.466-3.15 4.02-4.056s.833-2 .833-3.28c0-1.595-.512-2.825-1.535-3.692s-2.496-1.3-4.418-1.3c-1.234 0-2.438.145-3.61.434s-2.515.816-4.03 1.582l-1.383-3.164c2.953-1.547 6.04-2.32 9.258-2.32 2.984 0 5.305.734 6.96 2.203s2.485 3.54 2.485 6.21c0 1.142-.153 2.146-.458 3.013z"/></svg>