<!DOCTYPE svg PUBLIC "-//W3C//DTD SVG 1.1//EN" "http://www.w3.org/Graphics/SVG/1.1/DTD/svg11.dtd" [
	<!ENTITY ns_flows "http://ns.adobe.com/Flows/1.0/">
]><svg xmlns="http://www.w3.org/2000/svg" width="60" height="60" viewBox="0 -5.5 60 60" overflow="visible"><path fill-rule="evenodd" clip-rule="evenodd" fill="#DD0020" d="M22.284 0h8.692c1.234 2.81 1.93 6.18 2.496 9.8.158 1.01.665 2.772.463 3.7-.145.658-1.128 1.198-1.757 1.757-2.018 1.792-3.626 3.403-5.55 4.993-1.26-1.052-2.367-2.15-3.697-3.33-.746-.663-3.417-2.473-3.604-3.513-.162-.905.308-2.44.462-3.513.508-3.54 1.3-7.57 2.497-9.894zM35.137 4.81c6.267 2.61 10.766 6.99 13.316 13.314-2.3-.444-4.598-.89-7.12-1.11-1.276-2.08-3.07-3.647-4.993-5.085-.315-2.463-.705-4.846-1.203-7.12zM17.94 4.9h.184c-.364 1.124-.454 2.236-.647 3.422-.182 1.116-.13 2.604-.555 3.514-.277.593-2.127 1.85-2.68 2.404-.963.962-1.705 1.737-2.313 2.773-2.53.216-4.817.674-7.12 1.11C7.346 11.88 11.76 7.505 17.94 4.9zM20.158 26.63c-1.552 1.957-3.1 3.59-4.9 5.64-.498.567-1.258 1.632-1.758 1.757-.835.21-2.744-.316-3.7-.463-3.54-.54-6.965-1.293-9.8-2.495v-8.787c3.897-1.59 8.463-2.51 13.593-2.866 2.303 2.288 4.355 4.83 6.565 7.212zM53.26 22.284v8.785c-2.8 1.2-6.146 1.936-9.8 2.493-.976.15-2.735.644-3.605.463-.58-.12-1.302-1.137-1.85-1.757-1.734-1.958-3.31-3.698-4.9-5.64 2.222-2.37 4.272-4.913 6.564-7.214 5.124.36 9.7 1.27 13.59 2.867zM30.977 53.354h-8.692c-1.188-2.728-2.086-6.13-2.588-9.8-.133-.97-.572-2.86-.37-3.7.175-.728 2.83-2.79 3.42-3.33 1.52-1.382 2.647-2.242 3.884-3.328 1.573 1.255 3.674 3.206 5.55 4.9.615.556 1.628 1.214 1.758 1.665.256.89-.32 2.708-.463 3.7-.528 3.684-1.24 7.097-2.497 9.895zM48.268 35.23c.12.818-.472 1.53-.832 2.22-2.602 4.983-6.776 8.983-12.3 11.095.505-2.24.878-4.61 1.204-7.026 1.924-1.5 3.72-3.125 5.086-5.18 2.412-.21 4.65-.59 6.75-1.11h.092zM4.81 35.23c2.282.428 4.504.92 7.026 1.11 1.41 1.98 3.07 3.708 5.085 5.085.34 2.404.608 4.882 1.204 7.027-6.186-2.29-10.812-6.94-13.314-13.223z"/></svg>