<!DOCTYPE svg PUBLIC "-//W3C//DTD SVG 1.1//EN" "http://www.w3.org/Graphics/SVG/1.1/DTD/svg11.dtd" [
	<!ENTITY ns_flows "http://ns.adobe.com/Flows/1.0/">
]><svg xmlns="http://www.w3.org/2000/svg" width="60" height="60" viewBox="0 -0.922 60 60" overflow="visible"><path fill-rule="evenodd" clip-rule="evenodd" fill="#1066FF" d="M13.57.003C7.29-.112 2.124 2.79 0 7.817c4.593-2.464 8.716-5.19 15.167-4.58C28.707 4.514 35.8 17.48 38.847 29.373 37.907 15.223 28.58.28 13.567.003z"/><path fill-rule="evenodd" clip-rule="evenodd" fill="#1066FF" d="M18.575 12.102c-9.512 1.035-7.746 14.7.81 14.55 9.584-.165 9.503-15.67-.81-14.55zM23.964 30.155c-2.534 1.148-5.187 2.18-9.16 1.886-.08 14.725-1.17 26.25 3.574 26.947 7.444 1.093 5.826-7.805 5.8-14.012-.02-4.868-.028-10.002-.214-14.82z"/></svg>