<svg id="Layer_1" data-name="Layer 1" xmlns="http://www.w3.org/2000/svg" width="60" height="60" viewBox="0 0 60 52"><defs><style>.cls-1{fill:#008ded;}</style></defs><title>intercom</title><path class="cls-1" d="M56,30.06q0,9.74,0,19.48a6.53,6.53,0,0,1-5.35,6.35,8,8,0,0,1-1.31.11q-19.48,0-39,0A6.42,6.42,0,0,1,4.11,50.5,9,9,0,0,1,4,49.08Q4,29.91,4,10.75A6.59,6.59,0,0,1,10.74,4Q30,4,49.27,4a6.34,6.34,0,0,1,6.19,4A6,6,0,0,1,56,10.36C56,16.93,56,23.49,56,30.06ZM30.91,49a33.82,33.82,0,0,0,6.52-.74,29.23,29.23,0,0,0,8.66-3.28,15.15,15.15,0,0,0,2.37-1.66,1.63,1.63,0,0,0-.73-2.79,1.82,1.82,0,0,0-1.65.43,23.08,23.08,0,0,1-7.33,3.48,29.92,29.92,0,0,1-8.52,1.2,29.42,29.42,0,0,1-4.41-.32,42.73,42.73,0,0,1-5.43-1.17,21,21,0,0,1-6.73-3.38,1.63,1.63,0,0,0-2.45.67,1.69,1.69,0,0,0,.72,2.23,24.05,24.05,0,0,0,5.86,3.17A35.19,35.19,0,0,0,30.91,49ZM28.32,25.21q0,6,0,12c0,.26,0,.53,0,.79a1.66,1.66,0,0,0,1.94,1.46,1.78,1.78,0,0,0,1.44-1.93q0-12.25,0-24.51c0-.07,0-.14,0-.21a1.72,1.72,0,0,0-2.68-1.45,1.91,1.91,0,0,0-.74,1.76Q28.33,19.15,28.32,25.21Zm-8.65-.08q0,3,0,6c0,1.8,0,3.6,0,5.4a1.7,1.7,0,0,0,2.18,1.74,1.8,1.8,0,0,0,1.2-1.91q0-11.27,0-22.54c0-.11,0-.21,0-.32a1.72,1.72,0,0,0-2.13-1.6,1.77,1.77,0,0,0-1.25,1.87Q19.67,19.47,19.67,25.13Zm20.65,0q0-3.49,0-7c0-1.53,0-3.07,0-4.6A1.66,1.66,0,0,0,38.18,12a1.86,1.86,0,0,0-1.24,1.89c0,2.13,0,4.27,0,6.4q0,8,0,16a2.08,2.08,0,0,0,.56,1.59,1.59,1.59,0,0,0,1.75.39,1.65,1.65,0,0,0,1.08-1.6Q40.33,30.91,40.32,25.14Zm-25.95-.3c0-2.61,0-5.22,0-7.83a1.63,1.63,0,0,0-2.1-1.57A1.78,1.78,0,0,0,11,17.38q0,6.75,0,13.5c0,.53,0,1.06,0,1.59a1.71,1.71,0,1,0,3.4-.06C14.34,29.88,14.38,27.36,14.38,24.84Zm31.24,0c0,2.54,0,5.08,0,7.62a1.67,1.67,0,0,0,2.25,1.74A1.76,1.76,0,0,0,49,32.33q0-7.52,0-15c0-.09,0-.18,0-.26a1.69,1.69,0,1,0-3.38.21Q45.62,21,45.62,24.81Z" transform="translate(-4 -4)"/></svg>
