<svg xmlns="http://www.w3.org/2000/svg" width="60" height="60" viewBox="0 0 60 60"><g fill-rule="evenodd" clip-rule="evenodd"><path fill="#E4251F" d="M21.083 33.055c-2.29-2.222-4.66-4.273-6.208-7.027-1.622-2.89-1.23-5.118 1.134-7.573 1.786-1.855 3.874-3.35 5.86-4.968 1.896-1.542 3.703-3.158 4.874-5.36C27.81 6.123 27.79 4 27.454 1.83c.84.613 1.502 2.2 1.54 3.707.065 2.723-1.147 4.95-2.756 7.014-1.468 1.886-3.302 3.39-5.138 4.89-1.072.875-2.04 1.853-2.836 2.99-1.9 2.72-1.452 5.37.25 7.976.787 1.207 1.595 2.4 2.38 3.607.166.254.405.512.19 1.043z"/><path fill="#0F75BC" d="M9.185 51.07c-1.458.25-2.828.416-4.058 1.07-.085.046-.183.065-.267.11-.39.216-.952.384-.935.867.017.506.62.6 1.02.733 1.71.57 3.482.908 5.272 1.057 6.993.575 13.986.514 20.962-.22 2.32-.243 4.66-.502 6.884-1.308.903-.328 1.725-.74 1.516-1.963 1.076.492 1.195 1.21.346 1.896-.967.78-2.124 1.218-3.285 1.555-3.335.97-6.76 1.504-10.216 1.786-6 .492-11.997.368-17.98-.234-2.167-.218-4.323-.582-6.467-.975-.743-.137-1.77-.27-1.822-1.268-.047-.94.83-1.368 1.576-1.756 1.986-1.03 4.07-1.72 6.337-1.714.336.003.714-.097 1.118.364z"/><path fill="#E4251F" d="M24.18 34.887c1.603-2.626 1.478-3.878-.435-6.112-.933-1.09-1.594-2.33-1.923-3.718-.55-2.304.247-4.253 1.824-5.882 2.853-2.945 6.54-4.373 10.326-5.592l.133.204c-.668.43-1.33.865-2 1.29-2.005 1.268-4 2.548-5.604 4.33-1.845 2.048-1.94 3.737-.35 5.957.467.65.93 1.304 1.38 1.968 1.122 1.664 1.033 3.324-.12 4.915-.78 1.072-1.628 2.098-3.23 2.64z"/><path fill="#0D73BC" d="M13.32 47.12c.102.66.68.742 1.15.957l.395.112c2.398.13 4.792.41 7.2.245 1.472-.1 2.943-.232 4.382-.546.732-.16 1.337-.15 1.993.263.668.424 1.424.708 2.307 1.133-1.295.71-2.576 1.058-3.853 1.343-4.083.91-8.183 1.072-12.286.07-.944-.23-1.838-.583-2.65-1.1-1.162-.74-1.124-1.688.062-2.354.388-.218.77-.463 1.228-.52.025.13.048.262.072.394z"/><path fill="#0F75BC" d="M31.598 36.094a.78.78 0 0 1 .676-.076c.23.048.492-.015.68.187-2.023 1.453-4.425 1.59-6.763 1.906-4.493.61-9.013.77-13.543.528a40.582 40.582 0 0 1-5.727-.688 4.95 4.95 0 0 1-1.697-.654c-.606-.383-.59-.757-.06-1.2.58-.486 1.29-.72 1.97-.982 2.126-.82 4.27-1.597 6.773-1.364-.724.45-1.424.586-2.095.79-.77.232-1.493.572-2.203.945-.262.14-.527.303-.49.645.033.315.35.35.576.436 1.345.51 2.77.544 4.173.592 5.24.186 10.456-.18 15.654-.852.474-.062.956-.062 1.437-.088.225.018.458.08.64-.124z"/><path fill="#0D73BC" d="M31.73 43.12c-2.414.84-4.793 1.22-7.174 1.492-3.643.417-7.303.504-10.934-.147-1.22-.22-2.47-.434-3.527-1.174-.914-.637-.93-1.316-.057-1.99a5.035 5.035 0 0 1 2.206-.993c-.02.48-.66.8-.297 1.305.352.496.886.584 1.44.655 4.97.65 9.918.493 14.836-.472.726-.142 1.346-.185 1.95.39.4.38.962.59 1.556.937z"/><path fill="#187ABF" d="M42.828 54.493c-.025 1.194-.79 1.67-1.5 2.118-1.85 1.17-3.946 1.663-6.058 2.075-3.286.643-6.612.916-9.948 1.01-4.85.135-9.694.077-14.5-.724a8.79 8.79 0 0 1-2.626-.865c2.323.173 4.72.424 7.126.518 6.85.27 13.672.032 20.4-1.41 2.446-.522 4.87-1.147 7.106-2.72z"/><path fill="#0D73BC" d="M34.37 44.157c.437-.652 1.01-.802 1.46-1.104 1.412-.955 2.782-1.94 3.776-3.358.928-1.325 1.327-2.715.47-4.22-.693-1.22-2.59-2.15-4.19-1.553-.196.073-.423.058-.645-.003 1.56-1.18 3.3-1.274 5.026-.57 3.127 1.27 3.707 4.75 1.24 7.207-1.928 1.916-4.295 3.024-7.136 3.6z"/><path fill="#187ABF" d="M32.953 36.204c-.188-.2-.448-.14-.68-.187.418-.287.887-.305 1.508-.277-.3.268-.502.46-.826.464zM13.32 47.12l-.07-.395c.15-.063.355-.284.44-.07.065.16-.173.36-.37.466zM31.598 36.094c-.183.205-.416.143-.642.122.188-.174.39-.28.642-.122zM14.866 48.19c-.132-.04-.264-.076-.395-.113.184-.142.287-.004.397.112z"/><path fill="#0D73BC" d="M33.916 44.148l-.022.03.035-.04z"/><path fill="#0D73BC" d="M33.93 44.137l.02-.01-.034.02z"/></g></svg>