<svg width="61" height="67" viewBox="0 0 61 67" fill="none" xmlns="http://www.w3.org/2000/svg">
<path d="M56.4276 32.6264C56.4276 29.213 53.6679 26.4533 50.2545 26.4533C50.0367 26.4533 49.8188 26.4715 49.6009 26.4896L58.0798 1.50695H22.0764L30.5371 26.4715C30.41 26.4715 30.2829 26.4533 30.1558 26.4533C26.7425 26.4533 23.9828 29.213 23.9828 32.6264C23.9828 35.3861 25.7802 37.7101 28.2857 38.5089C26.9785 40.7966 25.3082 42.8482 23.4381 44.6093C20.8781 47.0241 17.955 48.8397 14.7958 49.9835C11.0375 48.0408 9.25824 43.7379 10.856 39.9796C11.0375 39.562 11.2191 39.1262 11.4006 38.6905C14.1241 38.055 16.1575 35.604 16.1575 32.6808C16.1575 29.2675 13.3978 26.5078 9.98448 26.5078C6.57114 26.5078 3.81143 29.2675 3.81143 32.6808C3.81143 34.7688 4.84632 36.6207 6.44405 37.7282C4.91895 41.196 2.6676 44.8454 1.97767 49.0576C1.14249 54.1049 1.97767 59.4791 6.35327 62.5112C16.5388 69.5739 27.5777 58.1356 39.2338 55.2669C43.4642 54.232 48.094 54.3954 51.816 52.2349C54.612 50.619 56.4457 47.9319 56.9723 44.918C57.4806 41.9404 56.7362 38.981 55.0114 36.5844C55.8829 35.5132 56.4276 34.1333 56.4276 32.6264ZM36.3289 32.6445V32.6264C36.3289 30.3932 35.1306 28.4323 33.3513 27.343L40.0872 13.726L46.8412 27.4882C45.189 28.5957 44.0996 30.484 44.0996 32.6264C44.0996 32.6627 44.0996 32.7171 44.0996 32.7535L36.3289 32.6445Z" fill="#C63D14"/>
<path d="M57.9345 32.6264C57.9345 28.8862 55.2293 25.7452 51.6707 25.0916L60.1677 0H19.9703L28.4855 25.1461C25.054 25.9086 22.4758 28.977 22.4758 32.6445C22.4758 35.3861 23.9283 37.8008 26.107 39.1625C25.054 40.724 23.8194 42.1946 22.4032 43.5381C20.1518 45.6624 17.6282 47.2783 14.9229 48.3495C12.1995 46.6428 11.0375 43.4111 12.2358 40.5787L12.3266 40.3608C12.3811 40.2156 12.4355 40.0885 12.5082 39.9433C15.5039 38.8902 17.6645 36.0397 17.6645 32.699C17.6645 28.4686 14.2148 25.019 9.98448 25.019C5.75412 25.019 2.30448 28.4686 2.30448 32.699C2.30448 34.8414 3.17597 36.7659 4.59214 38.164C4.33795 38.7086 4.06561 39.2715 3.79327 39.8343C2.50419 42.4851 1.03356 45.499 0.488875 48.8397C-0.618643 55.4667 1.16065 60.7682 5.48178 63.764C8.09625 65.5796 10.7652 66.2876 13.4523 66.2876C18.4996 66.2876 23.6015 63.7458 28.5944 61.2766C32.1893 59.4973 35.9113 57.6454 39.5788 56.7376C40.9405 56.3926 42.3567 56.1929 43.8455 55.975C46.8049 55.5574 49.8551 55.1035 52.5603 53.5421C55.7013 51.7265 57.8438 48.6763 58.4429 45.1903C58.9694 42.1946 58.334 39.1807 56.8089 36.6389C57.5169 35.4587 57.9345 34.097 57.9345 32.6264ZM54.9206 32.6264C54.9206 35.2045 52.8327 37.2925 50.2545 37.2925C47.6764 37.2925 45.5884 35.2045 45.5884 32.6264C45.5884 30.0482 47.6764 27.9603 50.2545 27.9603C52.8145 27.9603 54.9206 30.0664 54.9206 32.6264ZM55.9737 3.0139L48.4571 25.1642C48.1303 25.2369 47.8216 25.3458 47.513 25.4547L40.0872 10.3126L32.6432 25.364C32.3164 25.255 31.9896 25.1642 31.6446 25.0916L24.1643 3.0139H55.9737ZM30.1558 27.9603C32.734 27.9603 34.8219 30.0482 34.8219 32.6264C34.8219 35.2045 32.734 37.2925 30.1558 37.2925C27.5777 37.2925 25.4897 35.2045 25.4897 32.6264C25.4897 30.0482 27.5777 27.9603 30.1558 27.9603ZM9.98448 28.0147C12.5626 28.0147 14.6506 30.1027 14.6506 32.6808C14.6506 35.259 12.5626 37.3469 9.98448 37.3469C7.40632 37.3469 5.31838 35.259 5.31838 32.6808C5.31838 30.1027 7.42448 28.0147 9.98448 28.0147ZM55.4653 44.6638C55.0114 47.2783 53.3955 49.5659 51.0352 50.9276C48.8384 52.1986 46.2057 52.5798 43.4097 52.9793C41.9209 53.1971 40.3595 53.415 38.8526 53.7963C34.8582 54.7767 30.991 56.7013 27.2509 58.5532C19.7706 62.2752 13.2889 65.4888 7.2066 61.2584C2.74022 58.1719 2.93994 52.4346 3.46646 49.2936C3.95668 46.3886 5.24575 43.7015 6.51667 41.1234C6.73455 40.6695 6.95242 40.2337 7.15213 39.798C7.76944 40.0522 8.44121 40.2156 9.13114 40.2882C7.84207 44.5186 9.85738 49.1302 14.1059 51.3089L14.6869 51.5994L15.3042 51.3815C18.6449 50.1832 21.7314 48.2769 24.473 45.6987C26.2341 44.0284 27.7592 42.1764 29.012 40.2156C29.3933 40.2701 29.7745 40.3064 30.1558 40.3064C34.3862 40.3064 37.8358 36.8567 37.8358 32.6264C37.8358 30.3569 36.8372 28.3052 35.2577 26.8891L40.0872 17.1393L44.953 27.0706C43.4823 28.4686 42.5745 30.4295 42.5745 32.6082C42.5745 36.8386 46.0242 40.2882 50.2545 40.2882C51.8886 40.2882 53.3955 39.7798 54.6301 38.9084C55.4835 40.6876 55.8103 42.6848 55.4653 44.6638Z" fill="white"/>
</svg>
