<!DOCTYPE svg PUBLIC "-//W3C//DTD SVG 1.1//EN" "http://www.w3.org/Graphics/SVG/1.1/DTD/svg11.dtd" [
	<!ENTITY ns_flows "http://ns.adobe.com/Flows/1.0/">
]><svg xmlns="http://www.w3.org/2000/svg" width="60" height="60" viewBox="0 -13.414 60 60" overflow="visible"><path fill-rule="evenodd" clip-rule="evenodd" fill="#4B4B4B" d="M.938 0h28.14v25.573c0 3.008-.017 5.646-1.063 7.435-1.083 1.85-3.953 3.09-6.548 1.946-2.267-1-3.387-3.094-3.628-6.283H6.776c.38 8.74 4.76 13.514 12.034 15.223 8.17 1.918 15.707-1.866 18.76-7.434 2.33-4.25 1.858-11.09 1.858-17.345V0h4.777C45.38.444 45 3.468 45 5.486v33.98c0 1.783.37 3.796-.53 5.22-.152.083-.475-.002-.44.266H1.026c-1.367-.367-.974-3.17-.974-5.574V5.308C.053 3.183-.312.302.938 0z"/></svg>