<svg xmlns="http://www.w3.org/2000/svg" width="60" height="60" viewBox="0 0 60 60"><path fill-rule="evenodd" clip-rule="evenodd" fill="#4A0000" d="M30.46 48.785c-.114-.033-.32-.077-.518-.15-5.183-1.887-10.363-3.78-15.548-5.66-.496-.18-.79-.49-1.01-.96-1.678-3.632-3.378-7.253-5.06-10.884-.167-.36-.384-.61-.745-.8-2.085-1.104-4.15-2.24-6.233-3.35-.492-.263-.923-.55-.898-1.174.022-.59.45-.85.933-1.075 12.75-5.94 25.496-11.885 38.24-17.834.515-.24 1.01-.35 1.462.085.454.438.36.934.132 1.454-.865 1.966-1.708 3.94-2.576 5.906-.14.316-.15.574.01.888.37.732.74 1.468 1.038 2.232.195.502.42.46.828.268 2.452-1.163 4.923-2.295 7.38-3.454.51-.24.995-.384 1.467.032.474.417.39.922.212 1.453-1.286 3.804-2.954 7.433-5.066 10.85-.223.363-.263.638-.075 1.027a253.78 253.78 0 0 1 2.434 5.21c.17.378.283.403.595.11 1.532-1.446 3.096-2.862 4.634-4.302.382-.357.785-.585 1.305-.41.535.18.676.642.755 1.145.115.75.282 1.494.355 2.248.043.44.257.602.632.727 1.157.387 2.306.807 3.46 1.203.516.18.91.45.927 1.056.02.6-.35.896-.846 1.126-9.14 4.265-18.276 8.535-27.413 12.804-.233.107-.46.217-.815.23z"/><path fill-rule="evenodd" clip-rule="evenodd" fill="#CE1C1F" d="M7.39 24.27c3.186-1.483 6.364-2.984 9.56-4.442 1.146-.523 2.36-.793 3.624-.467 1.668.43 2.488 1.716 3.09 3.18.43 1.052.678 2.163.79 3.3.085.903.8 1.32 1.618.94 4.353-2.023 8.704-4.054 13.057-6.082 2.402-1.12 4.81-2.24 7.212-3.358.092-.043.19-.07.36-.127-.08.647-.373 1.16-.602 1.682-1.76 4.057-3.882 7.91-6.78 11.273-2.337 2.712-5.08 4.913-8.555 6.05-.656.217-.968.786-.764 1.37.21.597.76.845 1.433.63 2.51-.8 4.688-2.168 6.675-3.87.4-.342.8-.687 1.165-1.063.235-.243.408-.2.644-.02 2.155 1.656 3.96 3.642 5.547 5.842.237.332.128.443-.18.587-4.108 1.906-8.21 3.82-12.314 5.732-.058.027-.126.04-.174.075-1.63 1.264-3.243.85-4.995.158-3.835-1.51-7.73-2.878-11.613-4.266-.645-.23-1.04-.577-1.325-1.2-1.617-3.542-3.272-7.07-4.92-10.6-.105-.222-.265-.422-.4-.632-.596-.91-.978-1.928-1.42-2.912-.263-.583-.7-1.1-.73-1.776zM52.318 31.34c.115.64.23 1.15.294 1.668.066.533.372.823.848.99.688.242 1.372.493 2.204.792-.484.245-.842.44-1.213.613-1.58.738-3.18 1.448-4.745 2.222-.46.228-.613.1-.777-.307-.222-.545-.485-1.074-.74-1.606-.11-.23-.14-.43.07-.626 1.33-1.224 2.654-2.45 4.06-3.747z"/><path fill-rule="evenodd" clip-rule="evenodd" fill="#FED527" d="M7.39 24.27c.792 1.528 1.568 3.062 2.15 4.686l-5.736-3.042L7.39 24.27z"/><path fill-rule="evenodd" clip-rule="evenodd" fill="#4A0000" d="M14.312 28.744c-1.42 0-2.525-1.104-2.516-2.512.01-1.375 1.108-2.46 2.497-2.465 1.434-.005 2.55 1.077 2.56 2.477.005 1.4-1.114 2.502-2.54 2.5z"/></svg>