<!DOCTYPE svg PUBLIC "-//W3C//DTD SVG 1.1//EN" "http://www.w3.org/Graphics/SVG/1.1/DTD/svg11.dtd" [
	<!ENTITY ns_flows "http://ns.adobe.com/Flows/1.0/">
]><svg xmlns="http://www.w3.org/2000/svg" width="60" height="60" viewBox="0 -12.25 60 60" overflow="visible"><path fill-rule="evenodd" clip-rule="evenodd" fill="#0083CC" d="M13.877.017c1.916 2.98 3.93 6.277 5.853 9.534.396.673 1.355 3.02 2.077 3.023.67.003 1.732-2.424 2.077-3.02 1.847-3.196 3.698-6.587 5.664-9.535H41.63c-.952 1.898-2.088 3.65-3.208 5.38-2.74 4.232-5.583 8.444-8.402 12.933-.47.75-1.565 2.06-1.604 2.645-.06.88 1.223 2.218 1.793 3.115 3.753 5.903 7.536 11.646 11.42 17.464.643.96 1.413 1.88 1.795 3.02-3.645.006-8.533.002-12.18 0-2.566-3.81-4.85-7.863-7.268-11.895a41.914 41.914 0 0 0-2.548-3.777c-1.094.922-1.885 2.45-2.645 3.775-2.26 3.946-4.444 8.202-6.985 11.988-3.687-.22-8.268-.03-11.8-.094.245-1.14 1.077-2.082 1.7-3.02C5.522 35.787 9.506 29.908 13.31 23.9c.506-.798 1.79-2.32 1.795-3.02.004-.643-1.048-1.767-1.605-2.645-1.675-2.642-3.31-5.23-5.003-7.742C6.044 6.858 3.847 3.637 1.7.3V.11C5.57-.11 9.85.08 13.876.017z"/></svg>