<svg xmlns="http://www.w3.org/2000/svg" width="60" height="60" viewBox="0 0 60 60"><path fill-rule="evenodd" clip-rule="evenodd" fill="#292929" d="M55.636 37.39c0 4.853.028 9.708-.007 14.562-.037 4.82-3.174 7.987-8.017 8.008-9.56.04-19.118.067-28.677-.01C9 59.873.856 52.42.066 42.82c-.806-9.816 5.674-18.33 15.5-20.165 1.663-.31 2.326-.765 2.66-2.61 1.74-9.68 10.566-16.45 19.932-15.552 10.107.968 17.397 8.88 17.474 19.008.034 4.63.006 9.26.006 13.89zm-31.8-9.148c-.584-.1-.935-.143-1.278-.222-5.51-1.278-10.278.06-13.903 4.412-3.427 4.115-4.18 8.865-2.018 13.83 2.27 5.216 6.455 8.058 12.07 8.18 9.476.2 18.96.056 28.443.063 2.03.002 3.028-1.01 3.028-3.024-.004-9.404.17-18.815-.063-28.216-.23-9.386-9.236-15.562-17.903-12.574-6.938 2.393-10.17 8.99-8.376 17.552z"/><path fill-rule="evenodd" clip-rule="evenodd" fill="#F58834" d="M36.84 35.746c0 4.848-.032 9.697.022 14.545.015 1.22-.294 1.658-1.606 1.7-6.088.188-6.087.23-6.087-5.914 0-8.206.026-16.412-.03-24.62-.01-1.392.294-1.918 1.826-1.93 5.873-.042 5.873-.102 5.873 5.7v10.52z"/><path fill-rule="evenodd" clip-rule="evenodd" fill="#28C1F0" d="M39.536 40.306c0-3.286.074-6.574-.034-9.857-.05-1.517.49-1.854 1.92-1.863 6.06-.042 6.06-.087 6.06 5.99 0 4.853-.06 9.707.026 14.56.037 2.136-.79 2.89-2.922 2.862-5.05-.064-5.05.014-5.05-4.976v-6.72z"/><path fill-rule="evenodd" clip-rule="evenodd" fill="#82C343" d="M26.47 43.06c0 2.463-.053 4.926.02 7.387.036 1.177-.372 1.49-1.528 1.54-6.186.258-6.185.29-6.185-5.84 0-3.43.054-6.865-.026-10.294-.03-1.366.408-1.878 1.784-1.784 1.41.097 2.84.107 4.25-.003 1.456-.115 1.754.536 1.708 1.83-.08 2.384-.02 4.774-.02 7.162z"/><path fill-rule="evenodd" clip-rule="evenodd" fill="#EE3B45" d="M16.53 47.042c0 .372.04.75-.01 1.115-.144 1.066.59 2.646-.37 3.09-1.105.513-2.323-.63-3.348-1.327-1.967-1.337-3.284-3.2-4.137-5.41-.524-1.356-.552-2.302 1.366-2.03.658.093 1.34.015 2.01.015 4.49 0 4.49 0 4.49 4.547z"/></svg>