<!DOCTYPE svg PUBLIC "-//W3C//DTD SVG 1.1//EN" "http://www.w3.org/Graphics/SVG/1.1/DTD/svg11.dtd" [
	<!ENTITY ns_flows "http://ns.adobe.com/Flows/1.0/">
]><svg xmlns="http://www.w3.org/2000/svg" width="60" height="60" viewBox="0 -8.999 60 60" overflow="visible"><path fill-rule="evenodd" clip-rule="evenodd" fill="#0D7793" d="M51 .008V51H.008V.16c-.03-.13.02-.18.15-.15H51zM7.08 8.624c-.075.12-.408.79-.498 1.095-.77 2.58.803 4.67 2.24 5.426.653.343 1.844.608 2.84.498 1.984-.222 3.52-1.81 3.884-3.585.69-3.377-2.068-5.9-5.18-5.528-1.422.17-2.686 1.105-3.286 2.09zM45 31c0-4.29-.687-7.523-2.763-9.927-1.592-1.84-4.354-2.84-7.968-2.59C31 18.71 29.456 19.853 28 22v-3c-2.442-.115-6 0-8 0 0 8-.117 16.62 0 25 2 0 5.475.116 8 0v-8c0-3.647 0-8 1.24-9.35 1.26-1.373 4.57-1.667 6.023-.3 1.82 1.713 1.735 5.65 1.735 8.65v9c2.524.084 5.478.084 8 0C45 39.844 45 35.212 45 31zM7 20c0 8-.116 15.686 0 24 2.507.085 5.493.085 8 0 .083-8.348.146-16.712.062-25.06-2.606 0-5.52-.063-8.125-.063C6.867 18.89 7 19 7 20z"/></svg>