<svg xmlns="http://www.w3.org/2000/svg" width="60" height="60" viewBox="0 0 60 60"><path fill-rule="evenodd" clip-rule="evenodd" fill="#F3591C" d="M31.617 60c-1.792-1.733-3.433-3.312-5.068-4.9-2.16-2.094-4.32-4.187-6.46-6.297-.323-.316-.67-.366-1.08-.363-6.02.004-12.04-.012-18.058.02-.765.005-.954-.212-.953-.962C.02 33.744.02 19.99 0 6.238 0 5.594.136 5.4.813 5.4c13.828.022 27.657.022 41.484 0 .667 0 .816.172.814.824-.02 13.777-.02 27.557.003 41.335 0 .73-.217.905-.92.9-3.258-.037-6.516.004-9.774-.035-.68-.008-.822.205-.815.84.03 3.258.013 6.518.013 9.775V60zm4.373-33.055c0-4.522-.02-9.045.016-13.565.005-.736-.223-.944-.926-.898-.867.057-1.74.06-2.607 0-.705-.047-.932.163-.925.896.035 4.024.017 8.05.017 12.074 0 4.994.017 9.987-.018 14.98-.006.74.214.934.92.886.915-.062 1.84-.055 2.756-.002.643.036.78-.205.78-.807-.024-4.52-.013-9.044-.013-13.566zm-8.108 3.516c0-3.38-.007-6.762.01-10.143.002-.502-.108-.707-.655-.687a47.6 47.6 0 0 1-3.206 0c-.46-.013-.593.14-.59.595.01 6.837.01 13.676 0 20.513 0 .478.177.583.612.573 1.043-.023 2.09-.04 3.132.007.563.022.716-.15.712-.71-.024-3.38-.012-6.763-.012-10.145zm-8.14 3.51c0-2.184-.01-4.37.01-6.554.004-.48-.13-.66-.63-.646-1.067.03-2.135.02-3.203.003-.418-.006-.636.07-.634.565.015 4.445.015 8.89 0 13.34-.002.52.218.618.67.608a51.034 51.034 0 0 1 3.13.003c.542.02.67-.186.666-.688-.022-2.21-.01-4.42-.01-6.632zm-8.186 3.658c0-1.045-.016-2.09.006-3.134.008-.426-.148-.562-.566-.555-1.068.02-2.14.02-3.208 0-.436-.007-.624.126-.62.594.018 2.09.015 4.178 0 6.268 0 .38.117.537.51.53a81.72 81.72 0 0 1 3.358.005c.454.01.534-.182.526-.575-.02-1.044-.006-2.09-.006-3.133z"/></svg>