<svg xmlns="http://www.w3.org/2000/svg" width="60" height="60" viewBox="0 0 60 60"><g fill-rule="evenodd" clip-rule="evenodd" fill="#33B2D1"><path d="M25.68 4.09c2.45.96 4.647 2.405 6.946 3.652 5.534 3.005 11.032 6.076 16.556 9.1 1.127.62 1.674 1.498 1.67 2.797a5583.44 5583.44 0 0 0 .002 24.894c.004 1.302-.524 2.19-1.648 2.807-7.37 4.048-14.736 8.1-22.09 12.176-1.156.64-2.203.646-3.36.004-7.31-4.05-14.63-8.082-21.962-12.094-1.237-.676-1.8-1.61-1.794-3.03.03-8.216.028-16.43.002-24.646-.003-1.383.555-2.297 1.753-2.954 7.375-4.038 14.736-8.1 22.098-12.16.425-.235.88-.366 1.322-.546h.504zm-1.094 21.696c-.758-.898-1.497-1.762-2.22-2.638-.183-.22-.336-.136-.52-.033-.688.384-1.37.782-2.07 1.14-.532.27-.738.685-.72 1.26.018.485.006.972 0 1.458 0 .102.046.248-.154.24-.42-.02-1.07-.66-1.087-1.092-.022-.525-.23-.915-.722-1.17a55.532 55.532 0 0 1-2.334-1.28c-.647-.367-.664-.67-.037-1.035.997-.583 2.02-1.12 3.025-1.69.24-.137.36-.027.5.143.318.388.645.77.972 1.153.545.636.55.643 1.263.225.287-.168.66-.248.838-.53.298-.468-.05-1.645-.54-1.933a50.833 50.833 0 0 0-1.89-1.045c-.25-.132-.35-.295-.347-.59.017-1.406.01-2.814.006-4.223-.003-.84-.27-1-1.01-.592-3.903 2.143-7.802 4.296-11.712 6.43-.52.284-.754.682-.754 1.252v16.644c0 .585.225.998.77 1.29 2.022 1.084 4.02 2.213 6.038 3.3.366.2.46.324.146.668-.577.632-1.104 1.305-1.656 1.957-.514.608-.407 1.38.298 1.77 3.118 1.734 6.244 3.45 9.367 5.173.352.195.694.204 1.042-.02.18-.118.37-.246.573-.31 1.17-.362 1.42-1.21 1.316-2.313-.05-.553-.23-.948-.73-1.215-1.095-.583-2.17-1.202-3.265-1.78-.358-.188-.6-.422-.754-.807-.447-1.106-1.172-1.937-2.286-2.48-1.37-.662-2.67-1.466-4.016-2.18-.365-.192-.5-.422-.467-.822.033-.416.007-.837.004-1.256-.005-.575-.26-.97-.784-1.236-.82-.42-1.608-.896-2.425-1.322-.305-.16-.344-.273-.11-.544a83.323 83.323 0 0 0 2.118-2.554c.21-.266.373-.296.662-.132 1.032.59 2.08 1.154 3.12 1.726.874.48.957.458 1.59-.297 1.852-2.21 3.707-4.415 5.553-6.628.22-.264.48-.46.775-.622.868-.475 1.728-.955 2.63-1.454zm21.123 7.52c.04-.072.07-.097.07-.122V21.22c0-.575-.246-.968-.77-1.245-1.565-.832-3.14-1.656-4.662-2.564-.776-.46-1.437-.527-2.16.02-.252.19-.55.326-.837.46-.535.254-.74.673-.73 1.255.02 1.223-.005 2.447.014 3.67.005.324-.083.512-.38.67-1.094.58-2.17 1.193-3.26 1.784-.474.26-.706.632-.694 1.18.017.77-.013 1.54.018 2.31.015.34-.09.55-.396.655-1.19.412-1.61 1.26-1.413 2.465.012.084 0 .17 0 .253.017.778.444 1.213 1.217 1.23.407.007.816 0 1.306 0-.122.156-.18.234-.242.31l-3.615 4.313c-.36.428-.686.872-.686 1.467 0 1.24.004 2.48.003 3.722 0 .502.224.855.665 1.092.648.348 1.298.696 1.934 1.068.423.248.816.225 1.23-.01.61-.348 1.24-.665 1.842-1.028.274-.166.423-.12.617.117.855 1.032 1.728 2.05 2.59 3.073.447.526.638.57 1.25.235 2.13-1.167 4.25-2.35 6.384-3.504.56-.3.783-.73.78-1.34a881.313 881.313 0 0 1 0-6.084c0-.403-.113-.75-.38-1.06-.62-.726-1.232-1.46-1.84-2.194-.698-.84-.69-.832.3-1.34.426-.22.76-.175 1.06.197.252.306.516.6.784.91zm-20.805-20.85c0 .738.015 1.476-.004 2.212-.012.514.143.942.483 1.328.598.68 1.196 1.36 1.75 2.074.306.394.66.333 1.033.24.377-.092.575-.383.528-.75-.08-.63.24-.953.76-1.176.138-.06.26-.155.393-.224.466-.24.67-.623.664-1.144a94.84 94.84 0 0 1 0-2.263c.004-.5-.202-.858-.647-1.1-1.294-.704-2.58-1.426-3.874-2.128-.757-.41-1.07-.214-1.08.668-.01.755-.005 1.51-.005 2.263zm-4.556 1.66h-.004c0 .453-.003.905.002 1.357 0 .213-.048.468.206.57.26.104.396-.116.535-.278.586-.688 1.166-1.383 1.75-2.073a1.18 1.18 0 0 0 .292-.733c.02-.537.037-1.076 0-1.61-.034-.53-.312-.673-.785-.435-.478.24-.94.512-1.414.763-.396.208-.577.545-.583.98-.006.486 0 .97 0 1.457z"/><path d="M41.965 30.297c.366.993-.3 1.527-1.274 2.006-1.5.738-2.944 1.587-4.403 2.408-.28.16-.494.183-.78.013a40.624 40.624 0 0 0-2.063-1.143c-.288-.15-.38-.292-.255-.625.323-.86.612-1.733.895-2.61.077-.24.2-.397.426-.517.843-.45 1.676-.914 2.51-1.377.377-.21.7-.17.98.166.22.257.433.513.654.765.453.518.615.55 1.208.233a83.63 83.63 0 0 0 1.765-.964c.237-.135.358-.137.346.192-.017.417-.005.836-.005 1.457z"/></g></svg>