<svg width="60" height="40" viewBox="0 0 60 40" fill="none" xmlns="http://www.w3.org/2000/svg">
<path fill-rule="evenodd" clip-rule="evenodd" d="M58.6774 0.0761259C57.7495 0.105763 58.0432 0.373166 56.0374 0.867122C54.0148 1.36442 51.5317 1.2109 49.3623 2.12538C42.8541 4.8555 41.5524 14.1739 35.645 17.5115C31.2394 20.0079 26.7671 20.2082 22.7621 21.4498C20.1254 22.2775 17.2551 23.9696 14.8521 26.0222C12.9997 27.6209 12.9497 29.026 11.0139 31.0285C8.94128 33.1712 2.77016 31.0649 0 34.346C0.901137 35.2538 1.29497 35.5108 3.0672 35.2739C2.70007 35.9681 0.537346 36.5555 0.961215 37.5801C1.40845 38.6581 6.63504 39.3857 11.3743 36.5154C13.5871 35.1771 15.346 33.2513 18.7837 32.7774C23.256 32.1833 28.3958 33.1579 33.5357 33.9055C32.768 36.1884 31.2327 37.7103 29.9979 39.5126C29.6174 39.9231 30.7655 39.9698 32.0738 39.7212C34.4301 39.1404 36.1122 38.6698 37.9145 37.6352C40.0973 36.3636 40.4277 33.0961 43.1211 32.3952C44.613 34.6915 48.6614 35.2322 51.1979 33.3965C48.9885 32.769 48.3777 28.0564 49.122 25.9872C49.8295 24.0247 50.5271 20.8807 51.238 18.2774C52.0023 15.4906 52.2826 11.9695 53.2105 10.5677C54.6022 8.43167 56.1409 7.69741 57.4825 6.49589C58.8176 5.29104 60.0391 4.11956 59.999 1.35607C59.9861 0.468285 59.5285 -0.0256713 58.6841 0.00102909L58.6774 0.0761259Z" fill="#002B64"/>
<path d="M1.93911 37.4566C5.31003 37.9406 7.37931 37.4566 10.1161 36.2785C12.429 35.2739 14.6552 33.2079 17.3919 32.3402C21.397 31.0519 25.8026 32.3418 30.108 32.5988C31.1526 32.6616 32.1906 32.6622 33.2152 32.5508C34.8139 31.5695 34.7806 27.9116 36.3358 27.5444C36.2901 32.6843 34.1765 35.7882 31.9637 38.7586C36.6362 37.9376 39.4064 35.2542 41.2754 31.6496C41.8461 30.5583 42.3334 29.3868 42.764 28.1452C43.4315 28.6559 43.0527 30.2145 43.3881 31.0555C46.5955 29.27 48.4278 25.1815 49.6627 21.0763C51.0711 16.3036 51.6452 11.4642 52.553 10.0624C53.4374 8.68398 54.8158 7.83291 56.0908 6.9518C57.5192 5.9472 58.7942 4.90254 59.0145 2.98011C57.5059 2.8406 57.1588 2.49283 56.9352 1.73187C56.1809 2.15908 55.4867 2.24919 54.7024 2.27255C54.0215 2.29325 53.2739 2.26288 52.3594 2.35666C44.8166 3.13097 43.8487 11.4682 39.0092 16.1741C38.6554 16.5179 38.275 16.8383 37.8745 17.1386C36.179 18.4002 34.103 19.3047 32.2006 20.0356C29.1034 21.2171 26.1597 21.3039 23.256 22.3252C21.1233 23.0728 18.9506 24.1608 17.2151 25.359C16.7778 25.6584 16.364 25.9665 15.9868 26.2768C14.9589 27.1179 14.2847 28.0491 13.6305 29.0103C12.9563 29.9982 12.3089 31.0162 11.3176 31.9874C9.71226 33.5627 3.70801 32.448 1.60536 33.9098C1.37006 34.0723 1.18483 34.2669 1.05466 34.5006C2.20612 35.0246 2.97708 34.7028 4.30209 34.8477C4.47598 36.1059 1.56864 36.8535 1.99919 37.4309L1.93911 37.4566Z" fill="#C49A6C"/>
<path fill-rule="evenodd" clip-rule="evenodd" d="M47.6635 28.1115C47.7536 29.5533 48.5913 32.4169 49.3289 33.1178C47.8804 33.4716 45.3906 32.8882 44.7565 31.8662C45.0852 30.3911 46.7957 29.0427 47.6702 28.1282L47.6635 28.1115Z" fill="#C49A6C"/>
<path fill-rule="evenodd" clip-rule="evenodd" d="M49.666 5.41618C50.734 6.34402 52.9769 5.59941 52.5764 3.75408C50.9143 3.61657 49.953 4.18129 49.666 5.41618Z" fill="#002B64"/>
<path d="M57.0086 3.07991C56.7243 3.67733 56.1809 4.44497 56.1809 5.96356C56.1786 6.22422 55.983 6.40411 55.9796 6.00094C55.9943 4.51573 56.3868 3.87491 56.804 3.03385C56.9979 2.68675 57.1148 2.83093 57.0093 3.08125L57.0086 3.07991Z" fill="#002B64"/>
<path d="M57.0086 3.07993C56.6749 3.64731 55.8672 4.68863 55.7337 6.20054C55.709 6.45986 55.498 6.62107 55.5301 6.21956C55.6756 4.74437 56.3211 3.81986 56.8117 3.01552C57.034 2.68877 57.1384 2.84096 57.0109 3.08093L57.0086 3.07993Z" fill="#002B64"/>
<path d="M56.6748 2.74618C56.2944 3.28352 55.0495 4.53176 54.7891 6.02698C54.7424 6.28297 54.5188 6.42749 54.5845 6.02899C54.8536 4.57048 55.9262 3.42236 56.4803 2.65806C56.7292 2.35068 56.8207 2.51121 56.6739 2.73983L56.6748 2.74618Z" fill="#002B64"/>
<path d="M56.3411 2.4124C55.8872 2.89301 54.4053 4.48168 53.9381 5.91682C53.8553 6.1638 53.614 6.27394 53.7351 5.89013C54.2057 4.48168 55.504 2.96643 56.1615 2.28557C56.4516 2.01623 56.5187 2.18812 56.3418 2.39405L56.3411 2.4124Z" fill="#002B64"/>
</svg>
