<!DOCTYPE svg PUBLIC "-//W3C//DTD SVG 1.1//EN" "http://www.w3.org/Graphics/SVG/1.1/DTD/svg11.dtd" [
	<!ENTITY ns_flows "http://ns.adobe.com/Flows/1.0/">
]><svg xmlns="http://www.w3.org/2000/svg" width="60" height="60" viewBox="0 -10.9 60 60" overflow="visible"><path fill-rule="evenodd" clip-rule="evenodd" fill="#DD0020" d="M17.1 0c.6.4 1.2 1.1 1.5 1.6.7.9 1.2 1.6 2 2.4.2.3.5.5.7.7.5.5.8 1.1 1.3 1.6.4.5.9 1 1.4 1.6 1.3 1.5 2.8 3.1 4 4.7 1-.9 1.9-2.1 2.8-3.1.9-1 1.9-2 2.8-3.1.5-.5.9-1.1 1.3-1.6 1.3-1.5 2.7-3.1 4-4.8 2.2.3 4.4.8 6.6 1.1.2 0 .8.1 1 .2.3 0 .6.1 1 .1 1.7.3 3.3.6 5.1.9.6.1 1.8.2 2 .4.1.1.2.7.3 1.1.1 1.2.2 2.5.4 3.7.3 1.8.3 3.6.5 5.2.2 1.7.3 3.6.3 5.4 0 1.9.2 3.8.1 5.6-.1 7.5-.6 14.8-2 20.7-5.2.6-10.4 1.2-15.7 1.7 1.3-7.7 2-16.6 1.8-25.7-.3.1-.5.5-.7.7-3.3 3.8-7 7.3-11.4 10.1-4.1-2.7-7.7-5.8-10.9-9.4-.4-.5-.8-1.1-1.3-1.5-.2 9.2.6 17.9 1.8 25.8-2.5-.2-5.1-.5-7.8-.8-.3 0-.6-.1-.9-.2-2.4-.1-4.8-.3-7.1-.7C-.7 32-.6 15.2 1.8 2.6M8.4 7C7 15.7 7.3 27.9 8 36.8c0 .4.3 1 .2 1.4 0 .2-.2.2-.2.4-.6 1.2 1.4 1.6 1.4.4 0-.5-.4-.6-.5-.9-.2-.4-.1-1.2-.2-1.8-.2-1.9-.3-4-.4-5.7-.4-5.4-.2-10.9.1-16 .1-1.3.1-2.6.2-3.9.2-1.4.4-2.6.3-3.8h-.3c-.1 0-.2 0-.2.1zM47 7c0 .6.1 1.2.2 1.9.2 1.8.5 3.7.6 5.6.1 2.6.2 5.3.2 8s.1 5.4-.2 8c-.2 2.2-.2 4.5-.6 6.6-.1.3-.1.7-.1.9-.1.2-.3.2-.4.4-.2.2-.2.4-.2.6 0 1.2 1.5 1 1.6.1 0-.4-.2-.6-.4-.9.9-4.6.9-10.1.9-15.8 0-4.8-.2-9.6-.9-13.9-.1-.5-.1-1.8-.7-1.6.1 0 .1 0 0 .1zm-7.3 3.7c-.5.5-1 .9-1.5 1.4-2.7 2.6-5.4 5.1-8.1 7.7-.4.4-1.1 1.2-1.4 1.3-.2 0-.4-.1-.7-.1-.2 0-.3.1-.5.1-3.7-3.4-7.4-7-11.2-10.3v.7c3.6 3.4 7.3 6.8 10.9 10.2-.3 1.3 1.7 1.7 1.9.6v-.6c2.8-2.5 5.4-5.2 8.1-7.7.9-.8 1.8-1.7 2.7-2.6 0-.2.1-.7-.2-.7.1 0 .1 0 0 0z"/><path fill-rule="evenodd" clip-rule="evenodd" fill="#FFF" d="M8.5 6.9h.3c.2 1.2 0 2.4-.2 3.7-.1 1.3-.2 2.6-.2 3.9-.2 5.2-.5 10.6-.1 16 .1 1.8.2 3.8.4 5.7.1.6 0 1.4.2 1.8.1.4.6.5.5 1 0 1.2-2 .8-1.4-.4.1-.2.2-.2.2-.4.1-.4-.2-1-.2-1.4-.7-8.9-.9-21.1.4-29.8 0-.1.1-.1.1-.1zM47.2 6.9c.6-.2.6 1.1.7 1.6.7 4.2.9 9.1.9 13.9 0 5.7-.1 11.2-.9 15.8.1.4.4.5.4.9-.1.9-1.7 1-1.6-.1 0-.2.1-.5.2-.6.2-.2.4-.1.4-.4.1-.2.1-.6.1-.9.4-2.1.4-4.4.6-6.6.2-2.6.2-5.3.2-8s-.1-5.4-.2-8c-.1-1.8-.4-3.8-.6-5.6-.3-.7-.4-1.3-.4-1.9.1-.1.1-.1.2-.1zM39.8 10.7c.2 0 .1.6.1.7-.8.9-1.7 1.8-2.7 2.6-2.7 2.5-5.3 5.2-8.1 7.7 0 .2.1.5 0 .6-.3 1.1-2.3.7-1.9-.6-3.6-3.4-7.3-6.8-10.9-10.2v-.7c3.8 3.4 7.5 6.9 11.2 10.3.2 0 .3-.1.5-.1.3 0 .5.1.7.1.3-.1 1-.9 1.4-1.3 2.7-2.6 5.4-5.1 8.1-7.7.6-.5 1.1-.9 1.6-1.4z"/><path fill="none" d="M29.2 22.3v-.6c2.8-2.5 5.4-5.2 8.1-7.7.9-.8 1.8-1.7 2.7-2.6 0-.1.1-.7-.1-.7-.5.5-1 .9-1.5 1.4-2.7 2.6-5.4 5.1-8.1 7.7-.4.4-1.1 1.2-1.4 1.3-.2 0-.4-.1-.7-.1-.2 0-.3.1-.5.1-3.7-3.4-7.3-7-11.1-10.3v.8c3.6 3.4 7.3 6.7 10.9 10.2-.6 1.2 1.4 1.6 1.7.5z"/><path fill="#A70020" d="M17.3 21.9c3.2 3.6 6.8 6.7 10.9 9.4 4.3-2.8 8.1-6.3 11.4-10.1.2-.3.4-.6.7-.7l-.2-9.7L38.9 0 35 4.8c-.5.5-.9 1.1-1.3 1.6-.9 1-1.9 2-2.8 3.1-.9 1-1.7 2.2-2.8 3.1-1.3-1.6-2.7-3.1-4-4.7-.5-.5-1-1-1.4-1.6-.4-.6-.8-1.1-1.3-1.6-.2-.3-.5-.5-.7-.7-.7-.8-1.2-1.5-2-2.4-.3-.4-.9-1.1-1.4-1.5l-.8 10.7c3.8 3.3 7.4 6.9 11.1 10.3.2 0 .3-.1.5-.1.3 0 .5.1.7.1.3-.1 1-.9 1.4-1.3 2.7-2.6 5.4-5.1 8.1-7.7.5-.5 1-.9 1.5-1.4.2 0 .1.6.1.7-.8.9-1.7 1.8-2.7 2.6-2.7 2.5-5.3 5.2-8.1 7.7 0 .2.1.5 0 .6-.3 1.1-2.3.7-1.9-.6-3.5-3.4-7.2-6.7-10.8-10.2l-.4 8.8c.5.5.9 1.1 1.3 1.6z"/></svg>