<svg xmlns="http://www.w3.org/2000/svg" width="60" height="60" viewBox="0 0 60 60"><g fill-rule="evenodd" clip-rule="evenodd"><path fill="#CC2819" d="M13.244 39.01c.052 2.417.054 4.835.166 7.248.2 4.378.574 8.744 1.355 13.062.11.606-.028.718-.616.65-3.855-.437-7.707-.872-11.566-1.24-.822-.076-1.03-.468-1.16-1.16C.674 53.648.277 49.69.1 45.705A105.77 105.77 0 0 1 .79 28.21c.142-1.16.37-2.308.54-3.46.058-.39.203-.586.637-.648 1.733-.25 3.46-.547 5.19-.828l.778-.14c.833-.128 1.664-.276 2.5-.38 1.352-.168 2.673-.563 4.05-.534-.446 2.866-.83 5.737-.814 8.647-.206.253-.124.54-.094.82-.12 1.6-.262 3.2-.213 4.808.023.838.054 1.684-.123 2.516zM6.85 53.68c-.326.31-.243.63.067.853.248.18.578.16.767-.12.214-.318.215-.642-.195-.843-.36-2.52-.54-5.063-.616-7.6-.17-5.806-.14-11.61.614-17.388.39-.26.652-.576.288-1.023-.267-.33-.66-.39-.964-.098-.29.278-.494.657.016.97-.01.21-.003.424-.03.634-.347 2.738-.51 5.49-.576 8.245-.13 5.47-.015 10.928.626 16.368zM38.9 23.14c1.883.317 3.764.663 5.655.932.578.083.795.286.896.86.8 4.537 1.154 9.113 1.253 13.71.117 5.476-.083 10.94-.95 16.362-.155.97-.368 1.93-.506 2.9-.078.546-.347.737-.872.79-2.616.26-5.23.55-7.843.833-1.346.145-2.692.282-4.036.45-.475.06-.633.023-.533-.554.855-4.927 1.287-9.897 1.42-14.895.05-1.857.05-3.718.07-5.576.142-2.018-.196-4.024-.14-6.04.013-.456-.035-.9-.17-1.335v-.756c-.063-1.074-.093-2.153-.198-3.225-.177-1.8-.403-3.598-.608-5.396.344-.075.678.02 1.014.07 1.638.247 3.275.496 4.91.744.19.166.423.125.643.127zm.79 30.516c.1-.71.217-1.416.294-2.128.627-5.798.62-11.605.294-17.42a54.368 54.368 0 0 0-.626-5.774c-.045-.276-.057-.65-.47-.597-.26.034-.243.302-.205.522.564 3.197.723 6.43.816 9.667.15 5.208.057 10.402-.75 15.563-.443.213-.556.542-.272.94.18.25.46.35.757.175.418-.245.49-.568.164-.95z"/><path fill="#97999C" d="M38.9 23.14c-.22-.002-.45.04-.64-.125-.226-3.967-.422-7.936-.692-11.9-.063-.925-.06-1.853-.162-2.776-.057-.5-.178-.668-.727-.448-1.896.76-3.818 1.445-5.716 2.196-.73.287-1.538.405-2.158.945-1.158.1-2.103.79-3.198 1.133 1.96.844 3.932 1.582 5.876 2.382 1.17.48 2.407.802 3.496 1.474-1.39.178-2.054 1.093-2.408 2.344-.1.354-.28.686-.42 1.032-.714 1.796-1.6 3.52-2.186 5.37l.01-.017c-.168.07-.137.238-.177.37-.34.44-.61.94-1.13 1.213-.06-.31.1-.57.21-.835 1.187-2.81 2.37-5.62 3.58-8.42.224-.52.187-.753-.408-.964-2.723-.967-5.426-1.99-8.135-2.997-.276-.104-.525-.178-.838-.057-2.77 1.07-5.54 2.135-8.326 3.168-.536.2-.504.43-.313.87.858 1.968 1.7 3.944 2.514 5.932.52 1.27 1.21 2.472 1.507 3.828-.475-.415-.91-.867-1.26-1.396-.033-.142.016-.32-.176-.39l.006.023c.053-.312-.123-.566-.233-.83-.927-2.2-1.906-4.382-2.78-6.605-.307-.784-.73-1.25-1.556-1.346-.5-.058-.656-.3-.704-.836-.116-1.305.35-2.125 1.642-2.438.102-.025.2-.07.297-.112 1.42-.628 2.838-1.258 4.415-1.957-2.492-.924-4.8-1.79-7.115-2.64-1.674-.615-1.63-.603-1.78 1.183-.207 2.457-.523 4.905-.73 7.36-.173 2.088-.52 4.16-.55 6.26l-.778.14c.267-2.497.54-4.994.797-7.492.26-2.5.49-5 .77-7.496.064-.54-.064-.828-.583-1.02-.277-.102-.73-.028-.78-.51.36-.022.683-.19.94-.397.567-.454 1.107-.472 1.767-.194 1.414.597 2.86 1.122 4.29 1.683 2.783 1.09 5.568 2.184 8.348 3.287.51.202.782.188.735-.48-.046-.66-.008-1.328-.006-1.99L37.272 2.62c.062.833.117 1.666.186 2.498.028.36.187.644.524.82.487.253.967.522 1.45.785-.05.06-.094.164-.15.173-1.294.194-1.28 1.072-1.213 2.102.3 4.552.55 9.107.82 13.662.01.16.006.32.01.478z"/><path fill="#A72327" d="M13.244 39.01c.178-.83.146-1.677.12-2.516-.047-1.608.095-3.207.213-4.807 1.43 1.293 2.89 2.557 4.284 3.888 1.587 1.513 3.293 2.896 4.79 4.503-.01.524.32.745.773.856v6.793c-.314.087-.482-.17-.685-.31-3.323-2.295-6.364-4.904-8.953-8.02-.14-.168-.232-.437-.54-.386z"/><path fill="#931E28" d="M23.42 47.728c0-2.265 0-4.53.002-6.793.458-.11.81-.315.78-.863.097-.125.18-.267.293-.374 2.88-2.708 5.763-5.412 8.646-8.118.138.435.186.88.173 1.335-.057 2.016.28 4.022.14 6.04-.857.673-1.48 1.57-2.216 2.358-2.253 2.414-4.833 4.427-7.528 6.308-.083.058-.19.073-.288.11z"/><path fill="#BBBDBF" d="M23.434 8.666c0 .663-.04 1.33.005 1.99.044.67-.228.683-.737.48-2.78-1.102-5.564-2.195-8.35-3.287-1.43-.563-2.874-1.088-4.288-1.685-.66-.278-1.2-.26-1.765.193-.258.206-.58.374-.94.395-.09-.826.075-1.64.223-2.437.182-.982 1.77-1.688 2.685-1.294 4.386 1.885 8.777 3.76 13.166 5.642zM39.43 6.725c-.48-.263-.96-.532-1.448-.785-.338-.176-.496-.46-.524-.82-.068-.832-.123-1.665-.186-2.498 1.838.8 2.443 1.95 2.16 4.103z"/><path fill="#A72327" d="M14.487 22.22c.81.745 1.36 1.707 2.1 2.51.128.14.164.406.444.368l-.004-.024c-.103.205.097.27.178.39.35.53.784.982 1.26 1.397a6557.2 6557.2 0 0 0 4.96 5.564v6.09c0 .312-.064.645.274.846-.375.31-.68.116-.963-.146-3.022-2.78-6.043-5.563-9.064-8.347-.013-2.91.37-5.78.818-8.646z"/><path fill="#97999C" d="M13.672 30.866c3.02 2.783 6.042 5.566 9.064 8.347.284.262.588.457.963.146.26.08.383-.13.53-.27 1.663-1.56 3.3-3.154 4.99-4.684 1.313-1.188 2.485-2.53 3.92-3.584v.756c-2.883 2.705-5.767 5.41-8.647 8.117-.114.107-.196.25-.293.374-.514.504-1.03.523-1.55.007-1.5-1.606-3.204-2.99-4.79-4.503-1.395-1.33-2.854-2.595-4.284-3.888-.03-.28-.11-.568.096-.82zM7.49 28.583c-.756 5.776-.785 11.582-.615 17.387.074 2.537.256 5.08.614 7.6-.057.248.18.648-.258.692-.373.04-.21-.412-.383-.583-.64-5.44-.758-10.9-.627-16.37.066-2.754.23-5.506.577-8.244.027-.21.02-.423.03-.635.03-.07.057-.143.087-.213.072-.177.038-.46.336-.428.3.032.216.29.226.485l.01.307z"/><path fill="#A72327" d="M7.49 28.583l-.01-.307c-.01-.194.073-.454-.227-.486-.298-.033-.264.25-.336.428-.03.07-.058.142-.087.214-.51-.312-.305-.69-.017-.968.303-.292.698-.23.964.096.365.447.103.764-.288 1.023z"/><path fill="#ECF2F5" d="M6.85 53.68c.173.17.01.62.383.582.438-.044.2-.444.256-.692.41.202.407.525.193.844-.19.28-.52.3-.767.12-.31-.225-.393-.544-.067-.855z"/><path fill="#931E28" d="M33.143 30.823c-1.436 1.054-2.607 2.396-3.92 3.584-1.693 1.53-3.328 3.122-4.992 4.684-.144.14-.27.35-.53.27-.34-.202-.275-.534-.275-.847v-6.09c.134-.162.266-.325.403-.482 1.57-1.803 3.143-3.604 4.714-5.407.094-.03.15-.086.136-.193l-.004-.004c.52-.272.792-.774 1.13-1.214.1-.104.272-.17.177-.368l-.01.017c.327.01.37-.31.54-.48.65-.66 1.04-1.544 1.827-2.087.205 1.8.432 3.595.608 5.396.105 1.07.134 2.15.2 3.224z"/><path fill="#97999C" d="M39.043 53.492c.808-5.16.9-10.355.75-15.563-.093-3.24-.25-6.47-.815-9.67-.038-.22-.056-.49.204-.523.414-.054.426.32.47.597.315 1.914.52 3.84.627 5.775.323 5.812.33 11.62-.296 17.42-.077.71-.195 1.417-.294 2.125-.207.165-.022.706-.464.592-.38-.1-.14-.493-.183-.756z"/><path fill="#ECF2F5" d="M39.043 53.492c.043.263-.196.657.183.755.44.114.257-.427.465-.592.326.382.256.705-.16.95-.296.175-.576.075-.756-.175-.285-.397-.172-.726.27-.938z"/><path fill="#BBBDBF" d="M28.808 11.035c2.005.68 3.892 1.648 5.855 2.43.12.047.307.14.312.22.048.78.32 1.56.007 2.34-1.087-.672-2.324-.993-3.494-1.474-1.945-.8-3.915-1.536-5.877-2.38 1.096-.343 2.04-1.033 3.2-1.134z"/><path fill="#ECF2F5" d="M17.203 25.464c-.08-.12-.28-.186-.178-.39.192.07.143.248.178.39zM29.978 24.753c.094.197-.078.265-.176.368.04-.13.01-.295.176-.366zM22.65 40.078c.52.517 1.037.497 1.552-.007.03.55-.322.756-.78.865-.45-.11-.78-.33-.772-.856z"/><path fill="#97999C" d="M28.54 26.53c-.007-.1.018-.178.135-.192.014.107-.043.162-.135.193z"/></g></svg>