<!DOCTYPE svg PUBLIC "-//W3C//DTD SVG 1.1//EN" "http://www.w3.org/Graphics/SVG/1.1/DTD/svg11.dtd" [
	<!ENTITY ns_flows "http://ns.adobe.com/Flows/1.0/">
]><svg xmlns="http://www.w3.org/2000/svg" width="60" height="60" viewBox="0 -4.167 60 60" overflow="visible"><path fill-rule="evenodd" clip-rule="evenodd" fill="#2A2A2A" d="M34.132.683C30.884.93 27.838.26 24.552.27c3.046-.516 6.942-.246 9.58.413zM28.68 8.528c-1.358.126-2.763.208-4.127.33 1.145-.29 2.793-.505 4.128-.33z"/><path fill-rule="evenodd" clip-rule="evenodd" fill="#2A2A2A" d="M11.01 5.885C8.915 8 6.47 10.48 5.066 13.565c2.057-3.233 4.984-5.906 8.258-8.258C16.42 3.08 20.424.957 25.05.6c1.62-.125 3.25.204 4.623.248 3.758.12 7.135.774 9.66 2.064.688.35-.755-.27-1.154-.414-2.158-.772-4.71-1.34-7.847-1.32 1.845.22 3.533.595 5.12 1.073-2.195-.296-5.144-.655-7.927-.41 1.175.293 2.847.402 4.13.33-.48.25.093.072.33.083 1.903.087 3.754.924 5.2 1.487.14.053 1.66.57.827.33-2.17-.632-3.633-1.474-7.02-1.735-2.17-.167-4.267-.13-6.523-.165.93.21-.722.24-1.155.33 2.187-.035 5.245-.395 7.515.083-1.092.23-2.702-.058-3.8.165-.345.062.114-.315-.247-.33-2.887.112-5.28.72-7.597 1.403 5.003-1.323 12.94-1.45 17.26.828.702.37-.64-.19-1.076-.33-2.02-.655-4.503-1.19-7.35-1.157 7.06 1.09 12.74 3.936 17.01 7.846 4.34 3.972 6.854 9.717 7.848 17.01-.01-1.24-.064-3.044-.414-4.375-.832-1.68-1.24-4.48-2.395-6.11-.04-.34.283.08.08-.25-.05-.093-.423-.28-.165-.33-.895-1.23-2.736-5.203-4.54-7.02 2.243 1.83 4.327 4.537 5.614 7.6-.896-2.877-2.534-5.726-4.378-7.928.213-.098.46.473.743.58-1.29-1.684-2.855-3.09-4.54-4.377 3.998 2.305 7.475 5.847 9.495 10.404.193-.17-.197-.46-.164-.744.833 1.702 2.025 3.476 1.898 5.863-.877-1.156-1.394-2.63-2.064-3.965-.67-1.335-1.317-2.644-2.23-3.716 2.757 4.45 5.36 10.387 5.037 17.753-.186 4.216-1.23 7.534-2.642 10.653.66-2.23 1.695-4.8 1.98-7.68-.777 3.294-1.755 6.392-3.056 9.166-.18-.082.01-.478.082-.58-.024-.196-.224.093-.247.166-.183-.108.097-.446.082-.66-1.504 2.872-3.48 5.273-5.78 7.35 2.34-2.842 5.105-6.4 6.77-10.57.686-1.715 1.67-3.668 1.156-5.533-1.09 5.048-2.863 9.413-5.532 12.883 1.064-2.24 2.755-4.57 3.55-7.35-.11.054-.152.176-.163.33.09-1.617 1.08-3.05 1.073-5.037-.96 5.407-3.22 9.604-6.274 12.964-3.003 3.303-6.87 6.13-12.14 7.103 6.344-2.218 11.272-5.852 14.368-11.313-3.213 4.934-7.522 8.772-13.79 10.652 2.895-1.152 5.68-2.413 7.68-4.46-2.043 1.8-4.342 2.84-6.937 4.047.25-.38.883-.654 1.405-.99.523-.338 1.082-.706 1.568-.99-1.187.41-2.867 1.04-4.377 1.402.357-.492 1.103-.535 1.733-.743 4.685-1.544 8.273-4.163 11.23-8.587 2.553-3.815 4.11-7.727 4.46-12.964.055-.812.175-1.406-.166-2.064-.14 4.786-1.143 8.71-2.808 11.974.514-2.133 1.57-4.432 1.818-7.103-1.046 4.295-2.753 7.928-4.955 11.064-1.634 1.694-3.416 3.497-5.533 4.875-.642.417-1.422 1.033-2.23.907.358-.578 1.033-.82 1.57-1.155 3.8-2.368 6.857-5.898 8.67-10.404-.71 1.383-1.347 2.838-2.23 4.048 1.76-3.365 4.025-7.8 4.294-13.046.303-5.9-1.72-10.357-4.046-13.955 1.147 2.34 2.793 5.953 2.89 9.247-.426-3.096-1.335-5.71-2.643-7.927.157-.016.086.79 0 .33.18.974 1.29 2.248 1.322 3.716-2.58-5.846-6.898-9.95-13.297-11.974 1.395.56 2.727 1.182 3.963 1.9-1.44-.543-3.146-1.535-5.036-1.9a24.45 24.45 0 0 1 5.615 2.642c-1.473-.685-2.91-1.42-4.707-1.98-1.79-.562-4.158-.864-5.862-1.075a23 23 0 0 1 4.21.25c-.48-.21-1.086-.29-1.733-.333 1.195-.205 2.428.27 3.468.496-2.594-1.138-7.467-1.23-10.32-.25.14.216.427-.116.743 0a2.55 2.55 0 0 1-.826.25c.46.075 1.925-.292 2.725-.332.365-.02 1.5.03.58.083-5.56.33-9.57 2.38-12.717 5.286-2.255 2.074-4.155 4.63-4.875 7.84.774-1.73 1.612-3.398 2.644-4.872-.11.58-.79 1.302-.99 2.065a19.973 19.973 0 0 1 6.357-6.854c-3.824 2.98-7.577 7.913-7.926 14.697-.315 6.146 2.742 10.235 5.45 13.707-1.356-1.176-2.723-3.057-3.632-4.954.865 2.22 2.53 4.352 4.212 6.03-1.898-.772-3.125-2.93-4.458-4.543.536 1.005 1.097 1.986 1.816 2.807-1.04-.86-1.962-2.55-2.642-4.046.59 1.86 1.896 3.72 3.138 5.202-4.027-3.33-6.8-12.204-4.21-19.57-.84 2.168-1.508 4.862-1.322 7.844.42 6.773 3.483 11.597 7.597 14.946 1.37 1.115 3.002 1.896 4.377 3.056.364-.16.462-.583 1.156-.413-.61-.63-1.735-.74-2.23-1.486 1.725.423 2.76 1.535 4.626 1.816.25.03.17-.268.246-.413 1.95.457 4.59.99 5.946 2.562.823.954 1.313 1.584 1.156 3.385-.097 1.104-.8 1.75-1.156 2.478-3.698.715-7.998.2-10.652-1.24-.324-.174-.562-.553-.908-.742-2.268-1.237-4.84-1.915-7.102-3.138-2.127-1.15-3.717-3.388-5.037-5.202C2.403 41.08-.31 35.44.028 27.768.38 19.756 2.93 14.446 6.718 9.436c-.755 1.42-1.903 3.163-2.56 4.955 1.794-3.324 4.076-6.16 6.853-8.504zm-5.53 9.662c3.586-6.5 9.127-12.3 18.745-13.213.05-.004.098-.012.082-.082a14.7 14.7 0 0 0-1.733.166c-.37.055-1.438.333-1.24.165-.218-.186.435-.337.744-.413 1.423-.352 3.117-.494 4.46-.66h.99c.455.063.648-.13.083-.083-6.636-.072-11.574 1.943-15.36 4.87-3.46 2.68-6.302 6.18-7.68 10.405 1.58-3.624 3.95-6.896 6.69-9.083-2.39 2.176-4.4 4.74-5.78 7.926zM17.286 4.812c-3.096 1.28-6.224 2.97-7.927 5.368 2.154-2.222 5.13-4.062 7.925-5.368zm-9.91 10.983c3.55-6.405 8.858-11.055 17.26-12.222.404-.056 1.558-.02 1.817-.165-.033.018-1.327-.105-1.65-.083C15.45 3.965 9.24 9.838 6.47 16.95c1.35-3.19 3.32-5.76 5.696-7.925-1.828 1.88-3.966 4.444-4.79 6.77zm.166 7.1c1.674-6.114 5.6-10.417 10.24-13.293-5.285 2.91-8.814 7.286-10.24 13.294zm33.69-12.385c-.462-.17-.94-.762-1.32-.744.464.144.934 1.06 1.32.744zm2.395 2.56c-.58-.41-1.208-1.213-1.733-1.403 1.01.833 1.92 1.767 2.807 2.725.18-.065-.555-.58-.66-.91.41.31.67.727 1.076.827-1.026-1.29-2.385-2.68-3.634-3.47.095.02.13.09.166.165-.207-.068-.262-.29-.413-.413.435.862 1.75 1.55 2.394 2.477zm2.065 1.982c.46.447 1.298 1.582.744.743-.23-.344-1.183-1.49-1.568-1.57.22.582.674.68.824.827zm-3.798-1.817c-1.07-.966-2.39-2.124-3.716-2.56 1.376.66 2.648 1.866 3.716 2.56zm3.385 3.716c-.345-.54-1.377-2.253-2.23-2.56.893.705 1.49 1.703 2.23 2.56zm2.89 3.388c-.087-.355-.208-.675-.415-.91.12.322.222.66.414.91zM.853 28.76c.456-1.61.317-3.813.91-5.286a3.7 3.7 0 0 1 .247-1.32c.06-.18-.082-.526-.08-.167-.6 2.016-1.156 4.076-1.075 6.772zm53.674 0c.013.295-.016.667 0 1.072.003.05.025.876.084.33.244-2.32-.374-5.385-.91-6.854.014.098-.015.235.083.25a38.8 38.8 0 0 1 .743 5.2zm-2.56-3.056c-.11-.458-.514-1.95-.495-1.652.106 1.77.928 3.18.825 5.863-.02.14.093.204.083 0 .1-1.738-.13-3.035-.41-4.21zm-44.92 6.11c-.36-1.66-.3-4.425-.084-6.11.044-.344.262-1.167.083-.91-.445 1.988-.658 5.096 0 7.02zm47.067-3.798c.126.155.115-.767.083-1.156a6.16 6.16 0 0 0-.33-1.486c.05.913.242 1.685.247 2.642zm-.908 9.083c.01-.05.166-.78.248-.745-.022-.01.044.425.082.33.193-.464.1-.68.084-1.238-.106.484-.59 1.427-.412 1.65zm-1.238 3.714c.126-.355.47-1.237.327-1.072-.395.453-.337 1.065-.825 1.65.028.23-.237.58 0 .743.133-.394.343-.9.496-1.32zm-34.93 7.102c-1.086-.485-2.186-1.395-3.057-1.816.945.623 2.048 1.53 3.055 1.817z"/><path fill-rule="evenodd" clip-rule="evenodd" fill="#2A2A2A" d="M37.6 49.733c.494-.773 1.436-1.21 2.23-1.816 1.355-1.035 2.726-2.15 3.715-3.633-1.51 1.85-3.404 3.312-5.367 4.707.97-1.533 2.723-2.56 4.046-3.962 1.344-1.422 2.432-3.027 3.468-4.707-1.832 2.215-4.282 4.526-7.266 5.864 3.76-2.18 7.084-5.485 8.836-9.99-.01-.206.102-.143.08 0-1.244 6.515-4.702 10.82-9.742 13.54zM20.424 2.83c-.65.315-1.482.445-2.147.743.3-.334 1.347-.635 2.147-.743zM41.73 11.17c.48.077 1.25 1.003 1.734 1.487.173.174.747.697.494.496-.096-.077-.454-.35-.825-.826-.493-.362-.863-.845-1.404-1.157zM38.178 11.5c4.12 2.253 7.546 6.174 9.084 11.313 1.007 3.368.917 8.655.164 12.304.014-1.093.346-2.21.413-3.386.53-9.33-3.864-15.357-8.92-19.32 1.527.73 2.94 2.29 4.212 3.55-1.443-1.694-3.026-3.25-4.955-4.46z"/><path fill-rule="evenodd" clip-rule="evenodd" fill="#2A2A2A" d="M41.564 44.86c-1.368 1.99-3.836 3.597-6.358 4.708 2.195-1.493 4.7-2.676 6.358-4.707z"/></svg>