<svg xmlns="http://www.w3.org/2000/svg" width="60" height="60" viewBox="0 0 60 60"><path fill="#70798C" d="M8.338 20.21c4.625-.003 8.32 3.658 8.348 8.27.026 4.602-3.812 8.524-8.336 8.52-4.533-.01-8.373-3.92-8.35-8.507a8.305 8.305 0 0 1 8.338-8.282zM32.147 22.706c3.198 0 5.87 2.68 5.88 5.9.013 3.282-2.575 5.89-5.85 5.895a5.853 5.853 0 0 1-5.868-5.886c.002-3.278 2.6-5.903 5.836-5.907zM53.62 28.572c0 1.363-1.26 2.65-2.6 2.645-1.364-.004-2.645-1.27-2.65-2.618-.008-1.368 1.24-2.6 2.642-2.61a2.59 2.59 0 0 1 2.61 2.58z"/></svg>