<svg width="60" height="56" viewBox="0 0 60 56" fill="none" xmlns="http://www.w3.org/2000/svg">
<g clip-path="url(#clip0_3_40)">
<path d="M41.8507 20.9302H57.3488C58.813 20.9302 60 22.1172 60 23.5814V37.6981C60 43.0795 55.6376 47.4419 50.2563 47.4419H50.2102C44.8289 47.4426 40.4659 43.0808 40.4651 37.6995C40.4651 37.6991 40.4651 37.6986 40.4651 37.6981V22.3158C40.4651 21.5506 41.0855 20.9302 41.8507 20.9302Z" fill="#5059C9"/>
<path d="M52.3256 18.1395C55.7934 18.1395 58.6047 15.3283 58.6047 11.8605C58.6047 8.39263 55.7934 5.58139 52.3256 5.58139C48.8578 5.58139 46.0465 8.39263 46.0465 11.8605C46.0465 15.3283 48.8578 18.1395 52.3256 18.1395Z" fill="#5059C9"/>
<path d="M32.7907 18.1396C37.7998 18.1396 41.8605 14.0789 41.8605 9.06978C41.8605 4.06068 37.7998 0 32.7907 0C27.7816 0 23.7209 4.06068 23.7209 9.06978C23.7209 14.0789 27.7816 18.1396 32.7907 18.1396Z" fill="#7B83EB"/>
<path d="M44.8842 20.9302H19.3018C17.8551 20.966 16.7106 22.1667 16.7442 23.6135V39.7144C16.5421 48.3966 23.4111 55.6015 32.093 55.814C40.775 55.6015 47.6439 48.3966 47.4419 39.7144V23.6135C47.4754 22.1667 46.3309 20.966 44.8842 20.9302Z" fill="#7B83EB"/>
<path opacity="0.1" d="M33.4884 20.9302V43.493C33.4814 44.5277 32.8544 45.4572 31.8977 45.8512C31.5931 45.98 31.2656 46.0464 30.9349 46.0465H17.9721C17.7907 45.5861 17.6233 45.1256 17.4837 44.6512C16.9953 43.0501 16.746 41.3856 16.7442 39.7116V23.6093C16.7106 22.1648 17.8532 20.966 19.2976 20.9302H33.4884Z" fill="black"/>
<path opacity="0.2" d="M32.093 20.9302V44.8884C32.093 45.2191 32.0265 45.5465 31.8977 45.8512C31.5037 46.8079 30.5742 47.4349 29.5395 47.4419H18.6279C18.3907 46.9814 18.1674 46.5209 17.9721 46.0465C17.7767 45.5721 17.6233 45.1256 17.4837 44.6512C16.9953 43.0501 16.746 41.3856 16.7442 39.7116V23.6093C16.7106 22.1648 17.8532 20.966 19.2976 20.9302H32.093Z" fill="black"/>
<path opacity="0.2" d="M32.093 20.9302V42.0977C32.0824 43.5035 30.9454 44.6405 29.5395 44.6512H17.4837C16.9953 43.0501 16.7461 41.3856 16.7442 39.7116V23.6093C16.7106 22.1648 17.8532 20.966 19.2977 20.9302H32.093Z" fill="black"/>
<path opacity="0.2" d="M30.6977 20.9302V42.0977C30.687 43.5035 29.55 44.6405 28.1442 44.6512H17.4837C16.9953 43.0501 16.7461 41.3856 16.7442 39.7116V23.6093C16.7106 22.1648 17.8532 20.966 19.2977 20.9302H30.6977Z" fill="black"/>
<path opacity="0.1" d="M33.4884 13.7163V18.1116C33.2512 18.1256 33.0279 18.1396 32.7907 18.1396C32.5535 18.1396 32.3302 18.1256 32.093 18.1116C31.622 18.0804 31.1549 18.0057 30.6977 17.8884C27.8721 17.2192 25.5377 15.2376 24.4186 12.5582C24.226 12.1082 24.0766 11.641 23.9721 11.1628H30.9349C32.3429 11.1682 33.483 12.3082 33.4884 13.7163Z" fill="black"/>
<path opacity="0.2" d="M32.093 15.1116V18.1116C31.622 18.0804 31.1549 18.0057 30.6977 17.8884C27.8721 17.2192 25.5377 15.2376 24.4186 12.5582H29.5395C30.9476 12.5635 32.0877 13.7036 32.093 15.1116Z" fill="black"/>
<path opacity="0.2" d="M32.093 15.1116V18.1116C31.622 18.0804 31.1549 18.0057 30.6977 17.8884C27.8721 17.2192 25.5377 15.2376 24.4186 12.5582H29.5395C30.9476 12.5635 32.0877 13.7036 32.093 15.1116Z" fill="black"/>
<path opacity="0.2" d="M30.6977 15.1116V17.8884C27.8721 17.2192 25.5377 15.2376 24.4186 12.5581H28.1442C29.5522 12.5635 30.6923 13.7036 30.6977 15.1116Z" fill="black"/>
<path d="M2.55766 12.5581H28.14C29.5525 12.5581 30.6976 13.7033 30.6976 15.1158V40.6981C30.6976 42.1107 29.5525 43.2558 28.14 43.2558H2.55766C1.14509 43.2558 0 42.1107 0 40.6981V15.1158C0 13.7033 1.14512 12.5581 2.55766 12.5581Z" fill="url(#paint0_linear_3_40)"/>
<path d="M22.08 22.2949H16.966V36.2205H13.7079V22.2949H8.61769V19.5935H22.08V22.2949Z" fill="white"/>
</g>
<defs>
<linearGradient id="paint0_linear_3_40" x1="5.33281" y1="10.5596" x2="25.3649" y2="45.2543" gradientUnits="userSpaceOnUse">
<stop stop-color="#5A62C3"/>
<stop offset="0.5" stop-color="#4D55BD"/>
<stop offset="1" stop-color="#3940AB"/>
</linearGradient>
<clipPath id="clip0_3_40">
<rect width="60" height="55.814" fill="white"/>
</clipPath>
</defs>
</svg>
