<!DOCTYPE svg PUBLIC "-//W3C//DTD SVG 1.1//EN" "http://www.w3.org/Graphics/SVG/1.1/DTD/svg11.dtd" [
	<!ENTITY ns_flows "http://ns.adobe.com/Flows/1.0/">
]><svg xmlns="http://www.w3.org/2000/svg" width="60" height="60" viewBox="-0.165 -23.775 60 60" overflow="visible"><path fill="#666" d="M0 20.863l5.216-.104v-2.13l-2.483-.23V2.482l2.483-.23V.105L0 0M13.326 2.248c-2.128 0-3.808.688-5.04 2.065S6.442 7.575 6.442 9.967c0 2.45.557 4.312 1.67 5.592 1.113 1.28 2.712 1.917 4.798 1.917s3.773-.716 5.06-2.148 1.93-3.325 1.93-5.676c0-2.337-.574-4.155-1.722-5.456-1.147-1.302-2.764-1.952-4.85-1.952zm2.2 11.423c-.577.8-1.415 1.2-2.513 1.2-1.043 0-1.82-.405-2.326-1.22-.508-.813-.762-2.075-.762-3.786 0-1.795.278-3.078.835-3.85.556-.772 1.376-1.158 2.46-1.158 1.058 0 1.85.394 2.38 1.18.528.785.792 2.026.792 3.724 0 1.807-.288 3.11-.865 3.91zM31.633 7.172c-.73-.96-1.79-1.44-3.18-1.44-1.03 0-2.025.37-2.985 1.106v-5.8l-4.63.167v1.67l1.563.416V17l.565.125c.375.07.918.143 1.627.22.71.076 1.405.114 2.087.114 1.974 0 3.477-.536 4.506-1.607 1.03-1.07 1.544-2.6 1.544-4.59 0-1.766-.365-3.13-1.095-4.088zm-4.62 7.845c-.71 0-1.225-.056-1.545-.168V9.13l.21-.23c.152-.166.392-.326.72-.478.326-.153.677-.23 1.053-.23 1.365 0 2.046 1.093 2.046 3.276 0 2.364-.828 3.547-2.483 3.547zM33.854 7.776l1.67.418v9.973c0 .695-.133 1.213-.397 1.554-.264.343-.702.514-1.314.514H32.73l-.252 1.94 1.586.145c1.696 0 2.88-.43 3.547-1.284.67-.855 1.003-2.222 1.003-4.1V5.94l-4.757.167v1.67zM36.9.62c-.515 0-.942.175-1.283.52-.34.35-.51.802-.51 1.357 0 .612.155 1.082.47 1.408.31.327.753.49 1.323.49.487 0 .9-.177 1.242-.532.34-.354.51-.81.51-1.366 0-1.25-.583-1.877-1.752-1.877zM51.42 13.66c-.36.25-.87.497-1.532.74a5.497 5.497 0 0 1-1.91.365c-2.363 0-3.546-1.6-3.546-4.8 0-3.406 1.148-5.11 3.443-5.11.903 0 1.683.11 2.336.334l.48 2h2.046l.104-3.963-.67-.25c-.43-.167-1.05-.33-1.855-.49-.807-.16-1.585-.24-2.337-.24-2.155 0-3.866.695-5.132 2.086-1.266 1.392-1.898 3.304-1.898 5.737 0 2.408.58 4.24 1.742 5.5 1.16 1.258 2.806 1.887 4.934 1.887a6.84 6.84 0 0 0 1.826-.25 9.11 9.11 0 0 0 1.512-.543c.403-.194.79-.424 1.158-.688.368-.264.608-.448.72-.553s.195-.184.25-.24l-1.147-1.877-.522.354zM54.384.104v2.15l2.504.228v15.9l-2.504.228v2.15l5.216.103V0"/></svg>