<!DOCTYPE svg PUBLIC "-//W3C//DTD SVG 1.1//EN" "http://www.w3.org/Graphics/SVG/1.1/DTD/svg11.dtd" [
	<!ENTITY ns_flows "http://ns.adobe.com/Flows/1.0/">
]><svg xmlns="http://www.w3.org/2000/svg" width="60" height="60" viewBox="0 -3.635 60 60" overflow="visible"><path fill-rule="evenodd" clip-rule="evenodd" fill="#00A3E7" d="M21.31.11c14.716-1.258 22.668 8.366 24.048 21.077 1.07 9.86-.103 20.884-4.526 27.023-4.384 6.086-12.305 9.336-23.014 7.76-3.003-.444-6.034-1.728-8.274-3.234-8.122-5.46-10.557-17.99-9.18-31.418C1.58 9.416 8.128.602 21.05.11c.086-.002.173.01.26 0zm-1.683 5.82C10.76 6.99 6.87 13.525 6.18 23c7.453-5.78 25.893-5.805 33.49-.13-.64-11.17-6.848-18.52-20.043-16.94zm6.724 20.946c-.676.13-2.592-.197-3.49 0-1.46.32-2.65 1.755-3.75 2.458-1.352.863-2.57 1.453-3.877 2.324.808 1.434 1.472 3.013 2.586 4.14 1.313-.41 1.984-1.464 3.49-1.682.31 3.33.033 7.872.13 10.99 1.43.295 3.4.047 5.042.13.13-5.777.387-12.798-.13-18.36z"/></svg>