<svg xmlns="http://www.w3.org/2000/svg" width="60" height="60" viewBox="0 0 60 60"><g fill-rule="evenodd" clip-rule="evenodd"><path fill="#D2EDB4" d="M44.78 6.418c1.187-.42 2.376-.834 3.558-1.263.724-.262 1.478-.446 2.14-.86h.37c.523 1.572 1.196 3.094 1.55 4.72.154.697.372 1.38.418 2.098-.26-.01-.385-.22-.54-.375-.46-.468-.946-.898-1.485-1.278-1.687-1.188-3.564-1.985-5.485-2.7-.192-.07-.48-.032-.523-.342zM.923 29.444c-.19-.268.01-.51.07-.75.537-2.147 1.093-4.29 1.64-6.436.03-.118.025-.245.037-.367l1.515-4.222 6.143.63c.137.186.254.028.377-.02 1.06.268 2.158.235 3.233.39-.28.52-.6 1.025-.832 1.57-.48 1.13-.91 2.284-1.367 3.425-.528 1.306-.248 2.563.212 3.81-.324.62-.872 1.033-1.366 1.496-.306-.607-.657-1.208-.734-1.89-.268-2.38-.232-4.75.3-7.1.086-.383.254-.773.12-1.32-.21.697-.424 1.266-.547 1.855-.193.924-.173 1.875-.283 2.81-.224 1.893-.1 3.73.647 5.5-.135.265-.34.39-.647.376-.397-.015-.77.12-1.136.246a9.234 9.234 0 0 1-5.26.254c-.694-.17-1.41-.21-2.125-.256z"/><path fill="#C5E5A1" d="M10.328 18.298l-6.144-.63c-.147-.963-.312-1.922-.646-2.844-.424-2.08-1.002-4.115-1.812-6.082A37.75 37.75 0 0 0 .108 5.268c-.17-.318-.177-.467.26-.477 3.724-.08 7.27.705 10.68 2.174.07.03.115.112.172.17-.573 1.974-1.12 3.955-1.735 5.915-.18.572-.025.745.494.91.92.286 1.815.653 2.723.987-.136.088-.268.182-.405.264-1.168.705-1.718 1.8-1.972 3.09z"/><path fill="#383F40" d="M56.462 28.058l-.5 1.99c-.497 1.492-1.22 2.877-2.01 4.23-.468.604-.934 1.21-1.4 1.816-.946 1.018-2.005 1.908-3.103 2.753-.927.525-1.843 1.062-2.816 1.495-.11-.012-.21.004-.27.113a.232.232 0 0 0-.09.035c-.11-.026-.214-.025-.273.1a.208.208 0 0 0-.095.03c-.114-.033-.212-.027-.27.097a.17.17 0 0 0-.097.026c-.2-.056-.36.064-.534.117-1.208.358-2.438.61-3.693.692-3.006.19-5.887-.344-8.596-1.675-.468-.23-.678-.104-.848.31-.63.302-1.015-.213-1.454-.47-.473-.28-.89-.652-1.332-.986-.138-.102-.312-.203-.44-.054-.153.183.082.275.17.396.23.315.48.614.69.94.315.494.188.742-.374.826-.632.093-1.29.223-1.758.652-.474.436-1.06.646-1.562 1.005-.19-.668-.428-1.31-.977-1.782-.448-.403-.74-1.002-1.413-1.128l-.233-.227.434-.588 1.002-.995.737-.76c1.135-1.082 1.042-.813.163-1.853-.172-.203-.146-.522-.423-.642a4.06 4.06 0 0 0-.53-.894c-.19-.24-.202-.534.11-.676.562-.254.44-.58.228-1.02-1.58-3.305-1.968-6.766-1.338-10.362.196-1.12.643-2.167.9-3.27l-.003.003c.076-.023.093-.073.07-.144a.297.297 0 0 0 .047-.108c.075-.02.096-.07.068-.14.02-.04.036-.078.053-.117.078-.015.1-.06.063-.13a2.21 2.21 0 0 0 .056-.13c.075-.01.1-.047.06-.114l.06-.142c.072-.007.096-.04.054-.104l.36-.733c.256-.234.428-.513.46-.868l1.5-1.86c.175-.19.35-.383.523-.576l1.24-1.128a18.924 18.924 0 0 1 5.526-3.06c1.11-.39 2.27-.53 3.41-.765.028.014.05.007.068-.02 2.475-.14 4.905.097 7.276.84l2.75 1.26c1.72 1.04 3.288 2.263 4.585 3.81.38.455.75.92 1.124 1.38l-.004-.005.104.167c.966 1.652 1.822 3.348 2.28 5.228.528 2.165.65 4.34.337 6.544-.03.224-.044.45-.067.674zM39.58 41.102c.7.106 1.4.02 2.088-.064 4.237-.526 7.787-2.38 10.568-5.64 1.723-2.02 2.95-4.305 3.457-6.94.153-.212.152-.468.19-.708.54-3.355.112-6.576-1.355-9.648-4.13-8.652-14.815-12.02-22.996-7.036-6.98 4.252-9.792 13.246-6.355 20.654.27.578.863.794 1.162 1.375.665 1.3 1.607 2.43 2.714 3.406.014.148.045.276.24.243.342.286.676.585 1.028.858.518.405 1.047.803 1.645 1.074.582.264.764.956 1.43 1.16 1.027.313 1.975.89 3.085.944.08.02.162.04.243.062.112.193.25.03.378.025l.367.09c.15.248.333.04.5.04.448.124.903.092 1.358.09.08.066.164.075.252.017z"/><path fill="#D2EDB4" d="M13.552 8.042c3.286-.66 6.58-1.28 9.79-2.27-.13 1.56-.78 2.726-2.357 3.262-.616.21-1.235.445-1.79.804-.52.337-.573.64-.243 1.18.153.25.364.43.586.616.484.407 1.093.664 1.457 1.21-.068.14-.187.2-.328.258-1.114.46-2.31.516-3.475.738-.416.08-.888.015-1.206.433 1.85-.364 3.8-.283 5.5-1.3.145.3.56.445.5.866a.8.8 0 0 0 .252.547c.737.682 1.502 1.328 2.465 1.683a3.71 3.71 0 0 1-1.48 1.728c-1.164-1.118-2.533-1.386-4.102-1.144-.874.136-1.7.484-2.59.524-.065-.96-.415-1.84-.75-2.726.013-.112-.007-.21-.107-.28.017-.618-.316-1.134-.503-1.692-.5-1.494-1.195-2.916-1.618-4.438z"/><path fill="#CC8981" d="M12.704 14.945c-.908-.334-1.804-.7-2.725-.99-.52-.162-.676-.334-.496-.908.616-1.96 1.162-3.94 1.735-5.915.18-.015.354-.003.493.136-.065.66-.338 1.266-.514 1.896-.355 1.264-.75 2.516-1.105 3.78-.043.15-.27.413.067.514 1.18.35 2.288.914 3.506 1.142.118.178.296.23.498.227l.65 2.964.117.388.112.61c.282 1.208.42 2.448.835 3.625.192.904.395 1.813-.592 2.43-1.002.91-1.792 2.035-2.873 2.868-.142.11-.104.304-.118.466l-.237.123c-.33.075-.485.342-.66.594-.13.186-.316.356-.093.585.61.623 1.074 1.38 1.75 1.945l.134.372a.458.458 0 0 0-.254.254.79.79 0 0 0-.37.37c-.66.52-1.123 1.237-1.794 1.76-.59.46-.628.955-.167 1.55.865 1.118 1.75 2.225 2.71 3.264l.232.24.118.132c.12.244.294.442.5.616.044.096.126.133.224.146.005.285.17.466.4.6.16.458.403.513.836.277.777-.42 1.593-.764 2.384-1.153.26-.13.5-.176.748.002.218.237.54.378.666.702a.45.45 0 0 1-.28.298c-.49-.625-1.02-.627-1.67-.195-.51.337-1.133.505-1.642.845-.612.41-1.04.302-1.417-.277-.165-.2-.33-.403-.493-.605-.043-.053-.088-.106-.13-.16a.388.388 0 0 0-.32-.25 10.94 10.94 0 0 1-.058-.246c-.084-.08-.168-.157-.25-.236-.026-.124-.11-.197-.227-.24l-.123-.134c-.655-.982-1.443-1.854-2.224-2.732-.093-.155-.154-.344-.373-.375-.27-.45-.427-.93-.42-1.46l.052-.487c.63-.408 1.115-.976 1.642-1.496 1.123-1.104 1.088-1.083.03-2.265-.395-.443-.96-.795-1.067-1.46.044-.037.088-.073.13-.11.495-.463 1.043-.876 1.367-1.495.086-.075.172-.148.26-.222 1.12-1 2.05-2.186 3.125-3.228.206-.2.21-.405.153-.67-.33-1.522-.638-3.046-.954-4.57l-.228-.374c.038-.907-.342-1.745-.442-2.627-.057-.502-.32-.66-.777-.61-.057-.207-.218-.227-.39-.228z"/><path fill="#C5E5A1" d="M13.67 14.6c-1.22-.227-2.328-.79-3.507-1.14-.34-.102-.11-.364-.067-.515.355-1.264.75-2.516 1.104-3.78.176-.63.45-1.236.514-1.896l1.838.77c.423 1.523 1.118 2.945 1.62 4.44.186.557.52 1.073.502 1.692-.693.03-1.345.247-2.005.428z"/><path fill="#9CD17F" d="M29.08 12.01c-.415.375-.83.75-1.242 1.127-.187-1.688-.55-3.344-.9-5.003l-.135-.256c-.154-.634-.124-1.328-.6-1.856-.008-.098-.03-.188-.126-.24.067-.41-.193-.7-.38-1.016 2.45.176 4.866.532 7.187 1.39-.31.197-.622.39-.928.592-1.228.806-2.36 1.712-3.006 3.077-.35.734-.428 1.487.13 2.184z"/><path fill="#D2EDB4" d="M53.816 15.453c-.375-.46-.742-.925-1.123-1.38-1.297-1.547-2.864-2.77-4.584-3.81.167-.237.307-.477.26-.792-.096-.606-.9-1.46-1.517-1.563-.134-.023-.324-.03-.414.043-.39.32-.9.522-1.083 1.053-2.37-.743-4.802-.98-7.275-.838.714-.427 1.537-.515 2.317-.723 1.283-.34 2.582-.622 3.875-.928.006.176.122.233.272.284.447.152.89.32 1.332.484 2.35.867 4.584 1.926 6.355 3.776.25.262.36.665.754.79.28 1.2.71 2.367.825 3.605z"/><path fill="#C5E5A1" d="M29.08 12.01c-.558-.698-.48-1.45-.13-2.186.645-1.364 1.778-2.27 3.005-3.077.306-.2.618-.395.928-.59 1.625.506 3.188 1.178 4.78 1.78.13.05.234.163.352.246-1.142.235-2.3.374-3.41.764a18.938 18.938 0 0 0-5.526 3.062zM10.458 29.076c.105.666.672 1.018 1.068 1.46 1.057 1.182 1.09 1.16-.03 2.265-.528.523-1.014 1.09-1.644 1.496-.332-.54-.636-1.098-1-1.613-.83-1.18-1.886-2.127-3.377-2.2-1.475-.075-2.935-.15-4.365-.538l-.14-.023-.046-.476c.714.045 1.43.086 2.127.254 1.783.428 3.53.34 5.26-.254.368-.126.74-.26 1.137-.245.305.013.512-.11.646-.376.128.075.175.27.366.253zM25.695 4.766c.188.316.448.604.38 1.016-.918.41-1.764.913-2.42 1.707-.846 1.02-1.277 2.227-1.68 3.456-.227.685-.507 1.34-.98 1.898-.364-.548-.973-.805-1.457-1.21-.223-.188-.433-.367-.586-.618-.33-.54-.278-.842.243-1.18.554-.358 1.173-.594 1.79-.803 1.577-.536 2.228-1.7 2.357-3.262.788-.325 1.513-.8 2.353-1.005zM52.99 11.847c-.394-.124-.502-.526-.753-.79-1.77-1.85-4.005-2.91-6.356-3.775-.44-.164-.883-.332-1.33-.484-.15-.05-.267-.108-.272-.284l.505-.096c.044.31.33.27.52.342 1.922.714 3.8 1.51 5.488 2.7.54.38 1.026.81 1.487 1.277.154.156.28.364.54.375.057.245.117.49.175.735z"/><path fill="#D2EDB4" d="M53.915 15.615l-.103-.167c.082.026.116.083.103.167z"/><path fill="#C5E5A1" d="M9.8 34.782c-.007.53.15 1.01.42 1.46-.062.766-.285 1.02-1.21 1.218-1.847.396-3.723.558-5.605.653-.285-1.52-.605-3.032-1.23-4.457-.148-.685-.22-1.392-.614-2 .024-.47-.317-.866-.27-1.344 1.103.202 2.197.457 3.336.375 1.88-.138 3.125.88 4.1 2.34.38.57.718 1.168 1.075 1.755z"/><path fill="#D2EDB4" d="M3.153 44.683c.198-.16.093-.443.25-.62.967-.31 1.935-.617 2.9-.935.036-.013.046-.105.07-.16.33-.012.66-.022.99-.03.133.44.738.076.873.514-1.446.542-2.596 1.498-3.573 2.655-.677.802-1.5 1.392-2.383 1.923.18-1.145.59-2.23.873-3.347z"/><path fill="#B8D1E7" d="M2.28 48.03c.883-.532 1.707-1.122 2.384-1.924.978-1.157 2.127-2.113 3.573-2.655.24-.043.49-.064.724-.134 1.847-.547 3.68-1.114 4.966-2.696.165.2.328.403.492.604-.663.854-1.515 1.42-2.54 1.772-.52.178-1.087.23-1.556.554-.92.064-1.728.48-2.566.808-1.418.55-2.3 1.753-3.37 2.733-.695.636-1.397 1.273-2.332 1.554l-.01-.12.24-.494z"/><path fill="#9CD17F" d="M9.8 34.782c-.357-.587-.696-1.186-1.076-1.755-.974-1.46-2.22-2.478-4.1-2.34-1.14.082-2.233-.173-3.336-.375-.06-.123-.12-.245-.178-.37 1.43.39 2.89.465 4.365.538 1.49.074 2.547 1.02 3.377 2.2.364.517.67 1.075 1 1.614l-.052.488z"/><path fill="#C5E5A1" d="M13.09 15.17c.458-.05.72.107.777.61.1.88.48 1.72.442 2.627l-.373.258c-1.075-.153-2.172-.12-3.233-.39.266-1.44.88-2.614 2.385-3.105z"/><path fill="#B2CF95" d="M10.458 29.076c-.19.016-.238-.178-.366-.253-.747-1.77-.872-3.607-.647-5.5.11-.934.09-1.886.283-2.81.123-.59.337-1.16.547-1.856.134.548-.034.938-.12 1.32-.532 2.35-.567 4.72-.3 7.1.077.683.428 1.284.734 1.89-.046.037-.09.073-.133.11zM13.938 18.666c.124-.086.248-.17.37-.258.078.125.154.25.23.375-.493.05-.637.47-.82.813-.67 1.25-.992 2.642-1.592 3.922-.586 1.246-.345 2.498.086 3.732l-.26.222c-.46-1.248-.74-2.505-.213-3.81.456-1.142.886-2.295 1.365-3.427.232-.543.553-1.047.832-1.57z"/><path fill="#9CD17F" d="M13.09 15.17c-1.504.49-2.12 1.664-2.384 3.105-.123.05-.24.207-.377.02.252-1.285.802-2.382 1.97-3.087.136-.083.27-.176.403-.264.172.002.333.022.386.226z"/><path fill="#B8D1E7" d="M36.482 40.78c-1.11-.056-2.058-.632-3.085-.945-.666-.204-.848-.896-1.43-1.16-.598-.27-1.127-.67-1.645-1.073-.352-.273-.687-.572-1.028-.858-.04-.12-.083-.237-.24-.24-1.107-.977-2.048-2.107-2.716-3.407-.298-.58-.893-.797-1.162-1.375-3.437-7.408-.625-16.402 6.355-20.654 8.183-4.984 18.867-1.616 22.998 7.035 1.468 3.073 1.895 6.293 1.356 9.648-.04.24-.038.498-.19.71-.272-.12.032-.59-.384-.62-.006-.105-.027-.2-.133-.25.026-.336-.056-.685.128-1 .07-.036.198-.07.198-.11.026-.913.187-1.83-.08-2.73v-.493c-.046-.22.165-.54-.242-.62 0-.084 0-.17-.003-.253.158-.104.104-.235.068-.383-.684-2.753-1.705-5.32-3.63-7.497-1.564-1.768-3.443-3.03-5.534-4.038-.19-.092-.38-.176-.56.022-.383-.19-.756-.405-1.15-.565-2.106-.857-4.3-1.017-6.515-.64-1.946.33-3.796.985-5.47 2.072l-.367.25c-.556.13-.98.47-1.368.865-.124.08-.247.165-.37.25-1.422.83-2.504 1.98-3.22 3.47-.198.163-.25.414-.37.624-.216.005-.29.146-.385.326-.598 1.12-1.045 2.3-1.452 3.498-.312.918-.25.996.728 1.01-.08.456.126.885.125 1.34-.008 2.046.42 3.993 1.614 5.684.595.845 1.296 1.66 2.46 1.77l.006.12c-.073.728.12 1.426.253 2.127.49 2.563 1.345 4.936 3.59 6.544.167.26.355.505.656.61.728.26 1.46.503 2.192.752.003.06.003.124.005.185zm-11.16-15.253c.06-.556-.137-1.015-.538-1.384-.17-.158-.414-.253-.43.095-.034.698-.04 1.4.015 2.097.026.358.26.505.59.192.292-.277.41-.61.36-1z"/><path fill="#829572" d="M25.808 42.494c.503-.36 1.088-.57 1.562-1.005.467-.43 1.126-.56 1.758-.654.562-.084.69-.332.374-.826-.21-.325-.46-.624-.69-.938-.088-.12-.323-.213-.17-.396.128-.15.302-.048.44.056.44.334.86.707 1.332.985.44.258.824.772 1.454.47.066.343.386.47.607.66.684.59.697.575 1.08-.12.005-.012.037-.01.058-.013.11.192.153.396.132.616-.394.22-.427.47-.058.745.164.122.335.237.506.35.915.604 1.96.948 2.924 1.452.15.078.47.068.4.29-.093.3-.34.017-.52.018a3.444 3.444 0 0 1-.67-.073c-1.254-.233-2.417-.833-3.69-.963-.933-.097-1.744-.76-2.73-.544-.288-.087-.624.1-.88-.157.082 0 .166.012.246 0 .168-.026.434.087.468-.158.04-.27-.237-.31-.43-.32-.494-.03-.996-.063-1.52.272l.783.205-.02.267a10.04 10.04 0 0 0-.25-.01c-.13-.184-.322-.117-.498-.12-.56-.306-.614.04-.607.468-.28.185-.546.377-.512.77-.197.166-.086.394-.12.593-.418.312-.436.79-.505 1.245-.812 1.812-2.35 2.973-3.767 4.248-.41.367-.978.656-1.047 1.313-.07.188-.216.27-.407.283-.27-.12-.47-.077-.7.148-.857.854-1.706 1.724-2.635 2.495-.624.517-1.145 1.145-1.865 1.575-.566.338-1.225.71-1.354 1.494-.282-.05-.563-.103-.847-.147-.197-.03-.474.05-.54-.192-.06-.22.2-.34.344-.473 1.604-1.468 3.218-2.926 4.827-4.388.93-.845 1.85-1.693 2.78-2.533.14-.127.24-.372.5-.27.388.15.534-.128.65-.387.115-.25.277-.438.475-.625.51-.48 1.05-.942 1.48-1.49.716-.913 1.4-1.873 1.185-3.15.23-.356.754-.523.668-1.07z"/><path fill="#C5E5A1" d="M15.046 18.788l-.112-.61a21.556 21.556 0 0 1 3.584-1.062c1.435-.285 2.852-.417 4.122.568.243.188.41.5.746.58.1-.248-.133-.315-.162-.468a3.687 3.687 0 0 0 1.48-1.727c.084-.003.167-.003.25-.003l.4.37-.36.732a.14.14 0 0 0-.054.103l-.062.142-.058.116-.055.13-.063.13-.05.117-.07.14a.283.283 0 0 1-.047.108l-.07.144.003-.003c-.208-.05-.25.163-.38.24-.552-.156-.537.477-.87.627-.613-.158-1.215-.328-1.842 0-.444.232-.83.53-1.19.866-1.223 1.142-2.103 2.58-3.23 3.792-1.36 1.462-1.642 3.205-1.66 5.063-.012 1.258.004 2.514.008 3.77-.44-.043-.812.252-1.24.263-.202-.584-.54-1.118-.63-1.74.21-.09.292-.288.346-.482.262-.942.522-1.885.763-2.833.255-1.005.61-1.985.746-3.02.985-.617.783-1.526.59-2.43.46-1.03.64-2.143.947-3.217.054-.19-.012-.267-.196-.28-.527-.04-1.056-.085-1.585-.128z"/><path fill="#B8D1E7" d="M14.793 40.727c-.23-.135-.394-.315-.4-.6.93-.73 1.685-1.638 2.426-2.54.47-.577 1.03-1.18 1.153-1.942.202-1.272.283-2.564.415-3.85l.62-3.22-.002.002c.102-.05.124-.14.126-.242.236-.548.425-1.123.72-1.638.507-.89 1.134-1.676 2.244-1.857.018.306-.043.624.135.905-.17.18-.47.006-.627.22-.68.165-1.206.586-1.49 1.187-.66 1.388-1.108 2.852-1.248 4.395-.416 1.076-.274 2.185-.13 3.275.1.73.642 1.138 1.364 1.183.35.02.703-.02 1.05.015.51.047.823-.19 1.017-.627.373-.84.345-1.71.262-2.602-.067-.7-.52-1.363-.205-2.1a.887.887 0 0 0 .013-.122l.118-.13c.283.034.425.2.493.47.202.814.42 1.625.625 2.44.28 1.104.263 2.284.82 3.318.19.35.31.71.328 1.108l-1.003.995c-.173-.17-.347-.34-.52-.513-1.712-1.87-3.49-2.07-5.512-.465-1.062.846-1.935 1.892-2.795 2.937z"/><path fill="#9EA0A0" d="M24.622 37.773a2.536 2.536 0 0 0-.328-1.108c-.557-1.034-.54-2.214-.82-3.32-.206-.812-.423-1.623-.625-2.437-.07-.27-.21-.437-.495-.472l.37-.63c.605-.382.823-.856.58-1.597-.19-.59-.25-1.234-.217-1.87 0-.947.003-1.897.006-2.847.01-.265.04-.53.065-.792.1-1.086.515-2.102.68-3.173.304-.274.083-.68.247-.988.128-.08.17-.29.38-.24-.257 1.1-.704 2.145-.9 3.267-.63 3.596-.24 7.057 1.338 10.36.21.443.334.77-.23 1.022-.31.14-.3.434-.11.675.22.276.393.573.532.894-.165.37-.2.763-.128 1.142.087.46.253.903.386 1.353-.244.253-.49.505-.735.757z"/><path fill="#D1E2F1" d="M55.31 27.835c.417.03.113.502.384.62-.506 2.637-1.734 4.92-3.457 6.942-2.78 3.26-6.33 5.113-10.568 5.64-.69.086-1.39.17-2.09.064-.075-.14-.158-.165-.25-.013-.457.003-.91.035-1.36-.09-.15-.23-.32-.207-.5-.038l-.366-.09c-.112-.2-.24-.2-.378-.028l-.243-.06c-.002-.063-.002-.127-.003-.19.258-.218.543-.11.823-.076.61.07 1.222.212 1.828.188 1.807-.072 3.603.012 5.35-.787 1.014-.463 2.087-.83 3.094-1.335 1.85-.925 3.15-2.52 4.696-3.816.313-.264.12-.366-.186-.367.076-.098.15-.195.23-.29.92-1.073 1.765-2.2 2.25-3.55.17-.17.196-.4.248-.62.22-.52.188-1.063.124-1.607.293-.04.33-.27.375-.497z"/><path fill="#C5E5A1" d="M46.275 40.49a.19.19 0 0 1 .09-.035l.283.012c.7-.06 1.26.297 1.828.62.05.044.095.087.142.13-.004.08-.007.16-.013.238-.672.28-1.343.56-2.015.837a.31.31 0 0 0-.206.275l-.88-.42c-1.732-.843-2.59-.598-3.525 1.01-.01.015-.033.025-.05.038-.556.036-1.09-.1-1.628-.198-.208-.04-.41-.12-.49.173-.41-.03-.657-.358-.984-.54-.362-.2-.407-.446-.23-.78 2 .02 3.99-.012 5.916-.64.355-.116.773-.11 1.022-.467a.152.152 0 0 1 .096-.026c.108.02.2-.007.27-.096a.19.19 0 0 1 .097-.03c.11.02.207 0 .274-.1zM26.938 8.134c.35 1.66.714 3.315.9 5.003l-.522.577c-.22-.11-.423-.216-.548-.46-.533-1.055-.95-2.14-.81-3.345.083-.708.24-1.413.98-1.777z"/><path fill="#9EA0A0" d="M45.54 40.743c-.25.357-.668.35-1.023.466-1.926.627-3.917.66-5.915.64-.166-.18-.34-.186-.52-.02a31.277 31.277 0 0 1-4.47-1.117c-.02.004-.052 0-.058.013-.382.695-.396.71-1.08.12-.22-.19-.54-.317-.606-.66.17-.413.38-.537.848-.31 2.71 1.332 5.59 1.867 8.597 1.676 1.256-.08 2.485-.334 3.693-.692.173-.052.335-.172.533-.117z"/><path fill="#B8D1E7" d="M52.837 37.114c.107.19.146.396.126.61-.54.3-1.083.6-1.625.898-.78.396-1.566.778-2.336 1.198-.453.247-.52.426-.13.753-.224.1-.28.33-.395.514-.57-.324-1.128-.682-1.828-.62l-.017-.126c.974-.432 1.89-.97 2.814-1.493.278.044.525-.078.764-.18a11.34 11.34 0 0 0 2.626-1.552z"/><path fill="#C5E5A1" d="M45.358 9.002c.183-.53.693-.733 1.082-1.054.09-.074.28-.065.414-.042.617.105 1.42.957 1.516 1.565.048.317-.092.557-.26.794l-2.752-1.26z"/><path fill="#B2CF95" d="M26.938 8.134c-.74.364-.897 1.07-.98 1.775-.14 1.202.277 2.29.81 3.342.125.246.33.353.548.46l-1.5 1.858c-.444.01-.636-.327-.856-.623.593.013.9-.527 1.388-.725.317-.13.392-.354.204-.686a7.16 7.16 0 0 1-.5-1.12c-.476-1.322-.69-2.645.096-3.94.162-.268.316-.532.655-.6l.135.258z"/><path fill="#C5E5A1" d="M23.097 38.257c.173.17.348.34.52.512l-.433.586c-.52.065-.78.42-.96.864-.222.022-.293-.195-.444-.287-.944-.574-1.058-.567-1.834.19-.16.156-.346.288-.52.43-.125-.323-.446-.464-.665-.7.878-.472 1.84-.628 2.81-.742.635-.073 1.16-.312 1.528-.852z"/><path fill="#CC8981" d="M25.808 42.494c.086.548-.438.715-.666 1.067l-1.19-1.85c.357-.276.758-.515.88-1 .547.475.785 1.117.976 1.785z"/><path fill="#C5E5A1" d="M24.83 40.712c-.12.483-.52.722-.878.998l-1.364-1.28c.172-.385.468-.648.83-.847.67.126.964.725 1.413 1.13zM52.837 37.114a11.447 11.447 0 0 1-2.625 1.552c-.238.103-.485.225-.764.18 1.1-.844 2.157-1.734 3.104-2.752.165.32.226.67.285 1.02z"/><path fill="#829572" d="M25.358 37.015c-.133-.45-.3-.893-.387-1.353a1.9 1.9 0 0 1 .13-1.143c.277.12.25.436.423.64.88 1.04.973.77-.164 1.854z"/><path fill="#9CD17F" d="M24.96 14.947c.22.296.41.633.854.624-.032.356-.205.635-.46.87l-.4-.37v-.257c.067-.033.183-.054.196-.102.04-.15-.087-.21-.203-.26-.355-.307-.68-.656-1.112-.865-.488-.45-1.017-.81-1.727-.752.16-.667.584-.287.847-.163.718.34 1.362.81 2.004 1.277z"/><path fill="#E4E4E4" d="M23.417 39.583c-.362.198-.658.462-.83.847-.192.052-.298-.043-.362-.21.18-.443.44-.798.96-.863l.232.226z"/><path fill="#B8D1E7" d="M37.47 40.96c.182-.17.35-.19.5.037-.167.002-.35.21-.5-.038zM36.726 40.842c.14-.172.266-.17.378.026-.127.005-.266.168-.378-.026zM39.328 41.087c.094-.152.177-.127.252.015-.088.058-.17.05-.252-.015z"/><path fill="#9EA0A0" d="M29.054 36.502c.157.004.2.12.24.24-.194.034-.226-.094-.24-.24zM46.275 40.49c-.067.1-.163.118-.274.1.06-.125.164-.126.276-.1zM45.905 40.62c-.07.09-.162.115-.27.097.058-.124.156-.13.27-.096zM46.634 40.342l.015.125-.286-.012c.06-.11.158-.125.27-.113zM24.94 17.275a.14.14 0 0 1 .055-.104c.042.067.018.1-.054.106zM24.82 17.534l.058-.116c.04.067.018.104-.058.116zM24.702 17.793l.063-.13c.035.07.014.114-.063.13zM24.583 18.05l.068-.14c.03.07.008.118-.066.14zM24.466 18.3l.07-.143c.023.072.006.12-.07.144z"/><path fill="#C5E5A1" d="M24.96 14.947c-.643-.467-1.287-.938-2.004-1.278-.263-.126-.688-.506-.847.16l-.123.007c.06-.42-.355-.564-.5-.865.5-1.323.95-2.667 1.518-3.96.627-1.433 1.763-2.388 3.197-2.992.478.53.447 1.223.6 1.857-.338.067-.493.332-.654.598-.786 1.296-.573 2.62-.098 3.942.14.384.3.765.5 1.12.19.33.114.556-.203.685-.49.198-.797.738-1.39.725zM14.817 17.792l-.65-2.964a3.966 3.966 0 0 1 1.614-.376c.338.885.687 1.767.754 2.726-.532.316-1.164.352-1.716.614z"/><path fill="#B2CF95" d="M26.202 6.02c-1.434.605-2.57 1.56-3.197 2.992-.567 1.294-1.017 2.64-1.52 3.96-1.698 1.018-3.648.937-5.498 1.3.317-.418.79-.354 1.206-.433 1.164-.224 2.36-.28 3.475-.74.14-.058.26-.117.328-.257.473-.558.753-1.214.98-1.898.403-1.23.834-2.438 1.68-3.458.656-.794 1.502-1.296 2.42-1.707.095.053.118.143.126.24zM14.817 17.792c.552-.262 1.184-.298 1.716-.614.89-.04 1.714-.39 2.59-.524 1.57-.242 2.938.025 4.1 1.144.03.153.263.22.163.47-.337-.084-.503-.394-.746-.582-1.27-.986-2.687-.853-4.122-.568-1.226.244-2.418.61-3.584 1.062-.038-.13-.078-.26-.117-.388zM21.988 13.838l.12-.006c.71-.057 1.24.303 1.728.752-.396.05-.733-.216-1.296-.252.81.693 1.497 1.267 2.414 1.48v.256c-.082 0-.166 0-.248.002-.963-.355-1.728-1-2.465-1.683a.79.79 0 0 1-.25-.55z"/><path fill="#9CD17F" d="M15.78 14.452c-.564.007-1.1.142-1.612.376-.202 0-.38-.05-.5-.227.66-.18 1.313-.396 2.005-.426.1.068.12.167.108.28z"/><path fill="#383F40" d="M22.226 40.22c.064.167.17.262.362.21l1.364 1.28 1.19 1.852c.217 1.278-.468 2.238-1.185 3.152-.43.547-.97 1.01-1.48 1.49a1.95 1.95 0 0 0-.474.625c-.118.257-.263.534-.65.384-.262-.1-.36.145-.5.27-.93.84-1.853 1.69-2.78 2.533-1.61 1.462-3.222 2.92-4.827 4.388-.145.132-.402.252-.343.474.064.242.34.16.537.19.284.046.564.1.847.147.187.176.417.078.628.1.127.04.253.082.38.123 0 .208-.156.306-.312.328-.765.11-1.493.432-2.278.416-.868-.018-1.645.152-2.18.92-.068.1-.18.168-.256.263-.324.395-.7.464-1.137.2.207-.41.85-.578.667-1.21-.182-.63-.418-1.23-.946-1.667-.43-.517-.882-1.004-1.49-1.317-.156-.056-.312-.11-.467-.164-.477-.298-.9-.304-1.27.19-.113.15-.233.353-.49.307-.107-.538.066-.955.496-1.3.238-.19.426-.445.635-.67.515-.473 1.027-.947 1.468-1.492.125-.105.258-.204.374-.317 3.305-3.293 6.608-6.584 9.91-9.877.1-.102.184-.22.274-.33.318-.257.625-.525.853-.87a.453.453 0 0 0 .28-.3c.173-.14.358-.272.52-.43.775-.757.89-.764 1.833-.19.152.09.223.31.446.29z"/><path fill="#C5E5A1" d="M10.594 36.618c.78.878 1.57 1.75 2.224 2.732-.46.17-.927.327-1.38.514-1.516.625-3.054 1.02-4.723.75-.966-.155-1.953-.18-2.93-.265 0-.634-.183-1.24-.26-1.86 1.502-.166 3.007-.296 4.5-.512.997-.146 2.072-.234 2.57-1.362zM19.147 40.852c-.23.345-.535.613-.853.87a.576.576 0 0 0-.507.152c-1.103.98-2.258 1.895-3.314 2.93-2.243 2.2-4.305 4.576-6.607 6.716-.227.21-.61.31-.635.708l-.364-.016c-.033-.29.17-.447.343-.623.67-.67 1.323-1.356 2.013-2.007 1.335-1.26 2.577-2.583 3.395-4.263.317-.65.25-1-.425-1.24-.19-.07-.4-.084-.595-.147-.422-.137-.907-.064-1.274-.383.47-.323 1.037-.376 1.556-.554 1.024-.353 1.876-.92 2.54-1.772.378.58.805.688 1.417.277.51-.34 1.133-.506 1.642-.844.646-.43 1.175-.428 1.666.197z"/><path fill="#D2EDB4" d="M12.213 27.25c-.43-1.235-.672-2.486-.086-3.732.6-1.28.922-2.672 1.59-3.922.185-.344.33-.764.822-.813.313 1.523.622 3.048.952 4.568.057.268.053.474-.153.673-1.078 1.042-2.007 2.228-3.128 3.228zM23.097 38.257c-.366.54-.894.78-1.527.854-.97.116-1.932.273-2.808.743-.25-.178-.487-.13-.748-.002-.792.39-1.607.735-2.383 1.154-.43.235-.675.18-.835-.277.86-1.044 1.732-2.09 2.792-2.934 2.02-1.604 3.8-1.405 5.51.465zM18.39 31.796c-.133 1.284-.214 2.576-.416 3.85-.122.76-.682 1.364-1.155 1.94-.743.903-1.497 1.81-2.428 2.54-.098-.013-.18-.05-.224-.145.373-.537.67-1.115.88-1.737.513-.87.668-1.836.728-2.816.06-1.002-.204-2-.108-3.01.335.04.64-.074.954-.168.582-.174 1.148-.414 1.765-.453z"/><path fill="#C5E5A1" d="M13.32 38.993c-.96-1.04-1.845-2.146-2.71-3.263-.462-.596-.424-1.092.166-1.55.67-.523 1.136-1.24 1.795-1.762.267.196.555.375.62.74-.036.068-.116.15-.102.205.246.97.5 1.938.767 2.903.014.05.13.075.2.112.043.084.085.167.126.252 0 .407-.01.813 0 1.22.018.617-.247 1.008-.86 1.143zM6.373 42.967c-.023.056-.033.148-.07.16-.964.318-1.932.626-2.9.936.042-.083.083-.167.123-.25l.12-.125c.718-.25 1.437-.496 2.297-.794a6.99 6.99 0 0 0-1.92-.442L3.9 40.968c.645.087 1.305.117 1.936.27 2.172.53 4.21.03 6.24-.692.466-.164.815-.573 1.34-.583.02.082.038.164.057.247-1.607 1.025-3.29 1.862-5.188 2.21-.652.118-1.36.068-1.913.547z"/><path fill="#D2EDB4" d="M15.29 24.843c-.135 1.036-.49 2.015-.746 3.02-.24.95-.5 1.892-.763 2.834-.052.194-.133.392-.345.482-.17-.14-.205-.343-.27-.534-.285-.825-.576-1.647-.864-2.47.015-.162-.023-.355.12-.465 1.08-.833 1.87-1.957 2.87-2.87z"/><path fill="#9CD17F" d="M13.417 39.962c-.524.01-.873.42-1.338.583-2.033.723-4.07 1.223-6.243.693-.63-.154-1.29-.185-1.938-.27l-.117-.618c.978.084 1.965.11 2.93.266 1.67.27 3.208-.126 4.723-.75.455-.188.92-.345 1.38-.515l.124.138c-2.565 1.438-5.29 1.86-8.193 1.243.907.243 1.808.45 2.71.467 2.028.04 3.92-.54 5.71-1.47.083.08.166.157.25.236z"/><path fill="#B2CF95" d="M12.3 28.176c.288.823.58 1.645.862 2.47.066.19.102.395.27.532.093.622.43 1.156.63 1.74.62 1.552.83 3.175.735 4.868.225-.073.214-.186.25-.277.566-1.583.323-3.225.365-4.845.102-.056.127-.152.138-.257l.12.006c-.096 1.01.17 2.007.108 3.01-.06.98-.214 1.946-.73 2.815h-.495c-.013-1.39.092-2.786-.358-4.14-.06-.18-.066-.362-.265-.45v.005c-.07-.69-.344-1.298-.736-1.86l-.133-.372c-.33-1.042-.663-2.084-.997-3.126.08-.04.16-.08.237-.122z"/><path fill="#C5E5A1" d="M13.925 40.62c-1.284 1.58-3.12 2.148-4.964 2.695-.232.07-.48.09-.722.136-.135-.436-.74-.072-.872-.513.09-.038.178-.098.273-.114 1.356-.234 2.69-.52 3.91-1.22.727-.42 1.495-.765 2.245-1.145.043.055.088.108.13.162z"/><path fill="#D2EDB4" d="M15.046 18.788c.528.043 1.058.087 1.586.128.185.015.25.09.196.28-.307 1.075-.486 2.187-.947 3.217-.412-1.177-.55-2.417-.833-3.625z"/><path fill="#B2CF95" d="M10.594 36.618c-.497 1.128-1.57 1.216-2.57 1.36-1.493.217-2.998.347-4.5.514-.04-.127-.08-.253-.118-.38 1.882-.095 3.757-.256 5.604-.652.926-.198 1.15-.452 1.21-1.218.22.03.28.22.374.376z"/><path fill="#9CD17F" d="M13.794 40.458c-.75.38-1.518.726-2.246 1.145-1.218.7-2.553.985-3.91 1.22-.095.017-.183.076-.273.114l-.992.03c.552-.48 1.26-.43 1.914-.548 1.897-.35 3.58-1.187 5.188-2.21.15.02.26.102.32.247z"/><path fill="#C5E5A1" d="M12.063 28.3l1 3.125c-.678-.564-1.14-1.322-1.752-1.946-.222-.23-.035-.4.094-.587.175-.252.33-.52.66-.595zM13.167 39.726c-1.79.93-3.68 1.51-5.708 1.47-.905-.018-1.806-.224-2.713-.466 2.902.616 5.628.194 8.194-1.243.118.04.2.114.226.24z"/><path fill="#B2CF95" d="M14.18 36.632l-.125-.252c.045-.787-.153-1.546-.306-2.306-.073-.356-.187-.727-.56-.914-.067-.366-.355-.545-.62-.74a.79.79 0 0 1 .37-.37c.17.634.727 1.03.99 1.607v-.003c.163.988.467 1.956.375 2.976-.043 0-.085 0-.126.002z"/><path fill="#9CD17F" d="M14.553 38.243h.496c-.21.62-.508 1.2-.88 1.738a1.888 1.888 0 0 1-.5-.614l.136-.135c.162-.003.245-.084.248-.246v-.002l.123-.12v-.002c.247-.006.287-.21.37-.377 0-.078.003-.158.005-.237z"/><path fill="#9CD17F" d="M14.18 36.632c.042 0 .083 0 .125-.002.233.606.067 1.238.116 1.856a.375.375 0 0 0-.24.372c-.04.043-.083.083-.124.123v.004c-.162.003-.246.084-.248.247-.086 0-.17.004-.255.004l-.232-.24c.613-.135.878-.526.86-1.143-.012-.404 0-.81 0-1.217z"/><path fill="#C5E5A1" d="M13.932 33.657c-.263-.577-.82-.974-.993-1.606a.45.45 0 0 1 .253-.252c.393.562.666 1.17.738 1.86z"/><path fill="#B2CF95" d="M13.552 39.233l.255-.003c-.045.046-.092.09-.137.135l-.118-.132z"/><path fill="#D2EDB4" d="M10.322 43.55c.367.32.852.247 1.274.384.193.062.403.077.595.146.68.242.745.59.427 1.24-.818 1.68-2.06 3.003-3.396 4.265-.69.65-1.34 1.337-2.013 2.005-.174.176-.375.333-.343.623l-.627.02c-.432-.224-.897-.075-1.346-.118-.04-.002-.08-.004-.122-.01-.075-.624.184-1.102.607-1.544.523-.543 1.203-.85 1.805-1.27.65-.453 1.384-.85 1.49-1.77.07-.607-.13-1.12-.57-1.542-.42-.408-.897-.36-1.374-.154-.627.27-1.047.8-1.443 1.314-.833 1.087-2.01 1.58-3.237 2.01l.006-.502c.935-.28 1.638-.918 2.332-1.552 1.07-.98 1.953-2.184 3.37-2.733.84-.327 1.648-.744 2.568-.81z"/><path fill="#C5E5A1" d="M2.046 49.146c1.228-.43 2.404-.923 3.237-2.01.396-.515.815-1.046 1.443-1.314.478-.206.956-.254 1.375.154.44.423.64.934.57 1.544-.104.92-.84 1.314-1.49 1.77-.602.42-1.28.726-1.804 1.27-.423.442-.682.92-.607 1.545-1.206-.093-2.315.343-3.45.635.164-1.215.264-2.44.727-3.594zM.93 55.7c.086-.87.122-1.746.347-2.598 1.167-.42 2.346-.782 3.607-.742l.005.004c.08.203.163.408.245.61-1.06.545-1.456 1.533-1.743 2.597-.574.065-1.167-.1-1.728.14H1.29L.93 55.7z"/><path fill="#B2CF95" d="M53.343 39.715c.036 0 .07.006.105.017l.007.982c-.278.62-.855.977-1.28 1.466-.105.12-.295.2-.283.38.018.274.364-.123.402.193-.236.322-.5.625-.943.688-.3-.58-.652-1.12-1.034-1.65-.345-.48-.92-.69-1.198-1.204.17-.19.396-.095.6-.122.05.035.108.105.147.096 1.158-.283 2.358-.407 3.48-.845z"/><path fill="#C5E5A1" d="M51.35 43.44c.445-.062.708-.365.944-.688-.038-.316-.385.08-.402-.193-.012-.18.18-.26.282-.38.426-.49 1.003-.85 1.28-1.468.278.327.23.73.263 1.114l-.143.746c-.182.213-.23.47-.254.738-.268.234-.25.55-.247.862-.39.276-.268.78-.5 1.126-.563-.42-.685-1.17-1.206-1.62-.005-.08-.012-.158-.016-.238z"/><path fill="#B2CF95" d="M4.884 52.36c-1.26-.04-2.44.323-3.607.742l.042-.363c1.133-.294 2.242-.73 3.447-.637.04.005.082.007.123.01 0 .08-.003.163-.006.246z"/><path fill="#D2EDB4" d="M3.773 42.826l.25-.375a7.003 7.003 0 0 1 1.92.444l-2.298.794.128-.86zM3.646 43.688l-.12.125.12-.125z"/><path fill="#CAE8C9" d="M33.63 39.23c-2.244-1.61-3.1-3.98-3.59-6.546-.134-.7-.326-1.4-.253-2.127 2.228.087 4.064-.904 5.824-2.11.044 0 .086 0 .128.002 1.045.825 2.013 1.742 3.08 2.545 1.897 1.423 3.355 1.362 5.016-.3 1.318-1.318 2.11-2.928 2.524-4.72.254-1.098.282-2.203-.34-3.223.096-.076.202-.143.286-.23.484-.5.554-.486.85.152.405.874.435 1.78.277 2.712-.145.866-.37 1.732-.397 2.604-.04 1.328.228 2.236 1.832 2.077.51-.05 1.03.072 1.53-.112a.28.28 0 0 1 .33.104c-.656.797-1.564 1.3-2.34 1.963-1.276 1.088-2.603 2.116-3.732 3.365-1.017.92-2.023 1.853-2.807 2.99-.553.804-.42 1.242.453 1.595-.02.225-.186.216-.354.255-1.846.434-3.67.157-5.48-.212-.957-.197-1.892-.522-2.836-.79z"/><path fill="#D6EDD9" d="M32.02 11.6l.366-.25c.202.234.4.072.617.017.393-.102.727-.622.975-.545.487.15.98-.09 1.438.155.317.17.688.198 1.026.11 1.207-.32 2.43-.378 3.67-.358.4.004.842 0 .99-.53.042-.15.196-.203.353-.204.966-.01 1.918.025 2.815.473.46.23.955.44 1.502.265.82.457 1.492 1.062 1.93 1.905.06.12.208.25.083.386-.11.12-.274.068-.403 0-.945-.512-1.987-.78-2.984-1.156-1.097-.41-2.266-.544-3.442-.504-.312.01-.6.218-.575.525.03.357.215.7.334 1.05.04.116.135.145.246.14.115-.004.19-.064.214-.18.04-.206-.034-.52.305-.5.276.02.37.276.46.52.105.285.27.548.636.317.18-.114.308-.37.563-.108.21.213.1.376-.01.597-.205.408-.288.82.28 1.056.144.06.255.202.39.298.705.51.73.634.305 1.383-.06.1-.054.237-.078.357-.952-.773-1.818-.612-2.04.41-.167.772.032 1.517.413 2.195.237.417.643.564 1.115.477.43-.08.657-.375.797-.77.17-.49.1-.97-.027-1.455.298.065.597.135.896.196.214.043.49.172.566-.144.07-.286.027-.61-.354-.666-.375-.055-.516-.294-.58-.614-.053-.253.175-.297.33-.374.343-.168.77-.292 1.025.013.27.32.472.394.815.185.207-.126.422-.013.564.11.182.16-.016.337-.078.498-.104.265-.222.525-.334.788-.04 0-.083.003-.125.005-.51.02-.52.024-.375.373-.002.12-.006.243-.01.365-.5.206-.63.697-.857 1.114-.363.047-.427.34-.5.62-.483.26-.74.74-1.102 1.115-.042 0-.085.003-.127.004-.184-.306-.526-.35-.808-.5-.462-.243-1.02-.26-1.432-.62-.01-.25-.024-.6-.312-.58-.576.043-.562-.35-.623-.693-.077-.44-.116-.89-.18-1.333-.04-.272 0-.627-.34-.713-.403-.102-.757.125-1.08.337-.063.04-.052.23-.034.345.02.153.17.194.284.15.497-.19.475.21.543.477.055.215.025.453.088.666.165.565.095.986-.578 1.102-.284-.04-.568-.08-.854-.122.007-.725-.064-1.427-.472-2.062-.245-.386-.563-.597-1.023-.513-.462.085-.747.343-.874.83-.19.73.116 1.41.15 2.113l-.394.26c-.64.242-.904.01-.948-.66-.037-.57-.187-1.13-.28-1.695-.093-.573-.47-.304-.758-.25-.337.062-.655.17-.604.624.024.21.147.21.307.152.344-.127.45.105.5.362.09.482.153.97.24 1.454.027.162-.028.238-.178.25-.476.043-.557.342-.49.74-.197.118-.41.145-.63.13-.01-.368-.1-.66-.564-.622-.25.02-.296-.155-.328-.354-.112-.686-.235-1.37-.347-2.056-.03-.188-.043-.42-.293-.38-.32.052-.646.115-.927.31-.17.12-.158.278-.13.44.027.158.154.206.277.146.41-.195.444.092.494.366.07.383.15.763.2 1.148.036.296.03.588-.385.638-.31.037-.206.3-.232.49-.33 0-.658 0-.987-.002.238-.89.173-1.75-.297-2.55-.265-.446-.67-.67-1.198-.517-.52.152-.72.53-.746 1.07-.035.687.098 1.34.264 1.995-.25 0-.5 0-.75.002a3.88 3.88 0 0 0-.268-1.727c-.17-.44-.408-.85-.97-.875.06-.782.38-1.494.62-2.227.12-.21.17-.46.37-.625.764.303 1.462-.154 2.198-.198.11-.007.155-.18.142-.313-.022-.235-.2-.232-.367-.228-.434.01-.592-.268-.454-.597.164-.39.466-.806.898-.85.454-.048.213.49.385.717.024.032.035.074.052.11.32.94.984 1.27 1.665.828.475-.31.46-.79.43-1.267-.01-.17.105-.437-.13-.48-.223-.04-.316.217-.404.4a.61.61 0 0 0-.068.235c-.007.317-.094.62-.446.625-.328.004-.368-.33-.436-.586 0-.272-.04-.553-.25-.727-.28-.236-.31-.46-.093-.734.097-.122.1-.263.097-.407.123-.084.246-.168.37-.25.425.05 1.136-.4 1.37-.87zm5.072 1.868c-.025-.1-.038-.203-.077-.297-.117-.28-.013-.874-.457-.73-.386.125-.252.654-.082 1.02-.06.31.193.744-.334.86-.196.043-.452-.01-.36.33.077.275.28.33.53.286.44-.078.88-.17 1.322-.23.225-.028.338-.104.327-.34-.01-.215-.134-.304-.32-.277-.513.075-.59-.218-.547-.62zm-2.85.37c-.003-.04.007-.094-.016-.118-.225-.246.102-.907-.46-.82-.48.075-.186.613-.256.94.078.452.29.958-.483 1.02-.148.01-.138.176-.09.3.065.16.153.303.357.272.52-.08 1.045-.16 1.563-.262.22-.042.268-.23.253-.432-.01-.127-.038-.282-.204-.225-.713.25-.676-.22-.663-.675zm5.267.616c.642 0 1.047-.39 1.054-1.02.002-.248.032-.534-.31-.574-.37-.042-.29.256-.31.466-.023.253-.15.44-.398.48-.266.044-.34-.194-.413-.38-.082-.208-.132-.43-.193-.646-.05-.183-.194-.184-.344-.177-.142.006-.212.078-.254.216-.208.685.462 1.63 1.167 1.633z"/><path fill="#B5DEB8" d="M45.264 20.146c.074-.28.138-.573.5-.62 1.02-.253 1.02-.253.86-1.115l.008-.364a.75.75 0 0 0 .374-.373c.042 0 .084-.002.125-.004.595.5 1.35.55 2.055.734.097.025.21.01.26-.106.06-.136-.008-.25-.103-.326-.316-.253-.487-.598-.62-.966-.093-.255-.297-.393-.537-.47-.563-.18-.52-.48-.182-.846.605.27 1.098.696 1.52 1.19.564.66 1.294.892 2.12.918.15.004.306-.01.378-.16.098-.198-.07-.316-.192-.402-.776-.554-1.332-1.346-2.07-1.927-.465-.366-.794-.985-1.508-.974-.223-.194-.068-.474-.162-.7-.07-.165-.176-.366.033-.496.18-.11.303.07.43.16 1.365.94 3.17 2.427 4.33 4.218.528.818 1.215 1.52 1.56 2.473.287.79.386 1.63.743 2.39.003.086.004.17.005.256.05.218-.14.53.242.62v.492c-.168.145-.117.342-.114.52.008.775-.192 1.547-.004 2.32-.185.315-.103.664-.13 1-.12.167-.244.333-.366.5h-.367c-1.086.11-1.927.654-2.61 1.476-.47-.06-.697.425-1.11.495a.282.282 0 0 0-.33-.105c-.5.185-1.02.062-1.53.112-1.605.16-1.873-.75-1.833-2.076.028-.87.253-1.736.398-2.603.157-.932.128-1.838-.277-2.712-.296-.638-.365-.652-.85-.153-.084.09-.19.156-.286.232-.28-.462-.793-.693-1.115-1.116.202-.474.234-.992.36-1.49zm6.32-1.23c-.143.004-.255-.004-.314.1-.07.128 0 .234.082.333.174.2.352.4.516.61.596.752.98 1.67 1.758 2.284.105.084.19.28.347.187.177-.104.09-.295.02-.44-.48-1.023-.966-2.045-1.836-2.814-.174-.156-.375-.257-.573-.26z"/><path fill="#D1E2F1" d="M36.1 20.41l.393-.26c.396.47.766.967 1.52.636.46-.202.563-.604.7-1.004l.855.122c-.066.558.307.532.667.486.522-.067 1.044-.16 1.564-.242.41.36.97.376 1.43.62.28.15.624.194.807.5l-.72 1.012c.145.11.24.07.34.047.52-.113.91.306.724.796-.084.222-.35.546-.52.27-.26-.415-.862-.042-1.012-.56-.026-.087-.18.002-.258.07-.142.116-.284.23-.43.346-.063-.05-.138-.09-.193-.15-.332-.34-.68-.614-1.19-.384-.517.232-.703.67-.697 1.196.003.32-.14.838.302.86.5.03.43-.486.43-.853 0-.084-.008-.17.014-.246.075-.278.3-.426.486-.2.318.38.573.082.857.015.045.133.096.267.133.403.094.333.276.76-.188.886-.374.1-.367-.34-.445-.597-.033-.11-.09-.197-.213-.163-.14.04-.118.14-.054.238.314.475-.148.396-.355.526-.234.15.012.61-.4.677a.353.353 0 0 1-.333-.11c-.21-.216-.416-.08-.507.097-.228.442-.64.59-1.028.835-1.052.664-2.034 1.438-3.044 2.168h-.125c-.85-.897-1.853-1.54-3.04-1.892-1.306-.387-2.38.28-2.66 1.608-.16.755-.102 1.513-.13 2.27-1.164-.108-1.866-.923-2.46-1.768-1.194-1.69-1.623-3.638-1.615-5.685 0-.453-.205-.882-.124-1.34.04 0 .08-.004.118-.005.29 0 .578 0 .868.002h.744l.75-.002c.853.702 1.36.703 1.977.002h.988c.248.217.533.125.806.08.476-.076.94-.21 1.428-.204.222.015.436-.012.63-.13.522-.08 1.043-.223 1.563-.222.578.004.716-.254.648-.75zm1.124 3.853c.04.27-.062.777.358.797.465.023.17-.477.26-.732.013-.037 0-.082.008-.123.035-.222.156-.388.377-.433.23-.05.306.146.403.304.143.234.186.495.26.75.067.236.25.322.48.267.26-.064.208-.265.152-.444-.1-.313-.113-.636-.267-.94-.282-.57-.743-.686-1.282-.558-.524.124-.768.51-.75 1.11zm-5.7.913c.03.23.05.487.33.528.32.048.263-.23.3-.422.018-.1.063-.194.09-.293.044-.166.09-.33.29-.356.237-.032.327.15.397.322.1.245.176.5.265.75.085.237.266.304.494.25.224-.055.207-.253.17-.404-.104-.412-.163-.833-.5-1.167-.326-.32-.64-.507-1.09-.324-.504.204-.688.615-.746 1.115zm4.327-.77c-.017-.202.105-.593-.277-.752-.375-.156-.705.11-1.044.235-.145.05-.157.172-.14.3.02.16.137.32.27.27.604-.225.55.26.667.57.045.12.025.326.25.266.14-.038.267-.116.273-.29.005-.164 0-.328 0-.602z"/><path fill="#CAE8C9" d="M48 15.69c-.34.366-.382.664.182.845.24.077.444.215.536.47.134.37.305.713.622.967.096.077.164.19.104.326-.05.116-.164.13-.26.106-.706-.184-1.46-.233-2.054-.735.112-.264.23-.524.334-.79.062-.16.26-.338.078-.497-.143-.124-.357-.237-.564-.11-.344.208-.544.135-.815-.188-.257-.304-.683-.18-1.025-.013-.155.077-.383.12-.33.375.064.32.205.56.58.614.382.057.424.38.355.665-.077.316-.353.187-.564.144-.3-.063-.6-.13-.898-.197-.026-.303-.285-.538-.257-.857.024-.12.02-.256.078-.357.424-.75.4-.87-.307-1.383-.133-.096-.243-.237-.39-.298-.566-.236-.483-.65-.28-1.057.11-.22.222-.383.01-.598-.255-.26-.382-.005-.562.108-.367.23-.53-.032-.635-.317-.09-.244-.186-.5-.464-.518-.34-.022-.264.29-.305.498-.023.115-.1.174-.214.18-.11.003-.207-.025-.246-.14-.118-.35-.304-.694-.33-1.05-.025-.306.262-.514.574-.524 1.177-.04 2.346.094 3.442.504.997.375 2.04.644 2.984 1.155.13.07.292.124.403 0 .125-.135-.02-.265-.084-.383-.44-.844-1.11-1.45-1.93-1.906l-.253-.25c.18-.197.373-.114.562-.02 2.09 1.006 3.97 2.27 5.533 4.037 1.925 2.178 2.946 4.743 3.63 7.498.036.148.09.278-.068.383-.357-.76-.456-1.602-.742-2.39-.346-.954-1.032-1.656-1.56-2.474-1.16-1.79-2.966-3.278-4.33-4.218-.128-.088-.252-.27-.43-.16-.21.13-.103.33-.033.496.095.226-.06.506.163.7.073.48-.13.91-.243 1.355z"/><path fill="#D6EDD9" d="M29.78 30.437c.03-.758-.028-1.516.132-2.27.28-1.33 1.353-1.996 2.66-1.61 1.187.352 2.19.996 3.04 1.892-1.76 1.203-3.597 2.194-5.824 2.107l-.007-.12z"/><path fill="#E4E4E4" d="M45.52 10.485l.252.25c-.547.176-1.042-.037-1.502-.266-.897-.45-1.85-.484-2.815-.475-.156 0-.31.053-.353.203-.148.528-.59.535-.99.528-1.24-.02-2.463.04-3.67.357a1.4 1.4 0 0 1-1.026-.11c-.456-.244-.95-.003-1.438-.154-.248-.076-.582.444-.975.545-.216.055-.415.217-.617-.016 1.674-1.088 3.523-1.743 5.47-2.074 2.216-.375 4.408-.216 6.515.642.396.16.77.375 1.15.565z"/><path fill="#D6EDD9" d="M33.63 39.23c.943.266 1.878.59 2.837.787 1.81.37 3.634.646 5.48.212.167-.04.334-.03.352-.257.837-.004 1.627-.19 2.352-.62 1.43-.483 2.687-1.288 3.915-2.132.803-.55 1.615-1.103 2.283-1.83.422-.096.623-.445.866-.746.12-.083.244-.166.366-.248.306 0 .5.104.185.367-1.547 1.295-2.848 2.892-4.696 3.816-1.005.503-2.08.87-3.09 1.334-1.75.8-3.545.715-5.35.787-.606.024-1.22-.12-1.83-.187-.28-.033-.563-.142-.82.077-.73-.248-1.465-.49-2.192-.75-.3-.106-.49-.352-.658-.61z"/><path fill="#E4E4E4" d="M29.917 14.83c-.017-.038-.028-.08-.052-.11-.17-.228.07-.767-.385-.72-.433.046-.735.46-.898.852-.138.33.02.607.454.596.166-.005.344-.007.367.227.013.133-.03.306-.142.313-.733.044-1.432.5-2.197.198.715-1.49 1.797-2.638 3.22-3.47.002.143 0 .284-.097.406-.217.275-.186.498.094.733.207.174.25.455.25.727-.206.082-.41.165-.613.248z"/><path fill="#CAE8C9" d="M25.7 21.636c-.04 0-.08.004-.118.006-.978-.013-1.04-.09-.728-1.01.407-1.196.854-2.376 1.452-3.497.095-.18.17-.32.386-.326-.24.73-.558 1.443-.62 2.225-.205.175-.097.41-.124.62-.23.64-.255 1.308-.25 1.98zM25.322 25.527c.047.39-.07.722-.36 1-.33.313-.564.167-.592-.192-.054-.697-.05-1.4-.015-2.097.016-.348.26-.253.43-.095.4.37.597.83.537 1.384zM55.307 26.59c-.188-.775.012-1.547.004-2.32 0-.18-.052-.377.115-.522.268.9.107 1.818.08 2.73 0 .04-.128.074-.197.11z"/><path fill="#E4E4E4" d="M32.02 11.6c-.233.47-.944.92-1.368.866.387-.396.81-.736 1.367-.866z"/><path fill="#CAE8C9" d="M54.812 28.088l.367-.5c.103.05.125.145.13.248-.046.226-.08.458-.375.498-.095-.056-.122-.145-.124-.246zM55.425 23.254c-.382-.09-.19-.4-.242-.62.407.08.196.4.242.62z"/><path fill="#CC8981" d="M38.082 41.83c.18-.165.354-.16.52.02-.18.334-.134.58.228.78.327.182.573.51.983.54.266.324.622.51 1.008.64v1.9c.007.156.01.313.02.47-.104.607.12 1.238-.147 1.833-1.416.173-2.82.432-4.205.767-.528.128-.982.128-1.47-.122-.282-.146-.513-.425-.873-.407-.043-.27-.222-.357-.472-.353-1.428-1-3-1.755-4.488-2.655-.22-.132-.39-.04-.526.148-.243.082-.477.178-.63.397-.226.032-.365.182-.49.352-.3.033-.514.214-.71.42-.3.08-.39.348-.5.587-.62 1.364-1.23 2.73-1.847 4.096-.047.13-.094.255-.142.383-.702 1.136-.936 2.41-1.112 3.706a.97.97 0 0 1-.6.136c.09-.438.175-.875.27-1.31.184-.85.148-.926-.646-1.314-.028-.135-.107-.218-.246-.24-.13-.27-.415-.344-.627-.512-.04-.213-.225-.263-.38-.347l-.16-.234c.19-.014.336-.095.407-.28l.123.022c.12.21.278.38.502.48.315.262.647.505.94.79.284.277.437.21.583-.12.283-.64.615-1.257.867-1.907.205-.53.55-1.013.6-1.604.45-.44.537-1.04.723-1.6.37-.35.396-.943.87-1.22.31-.07.56-.23.75-.482.176-.06.353-.116.48-.263.26-.103.513-.215.648-.482.337-.07.604-.396 1.027-.12.84.55 1.706 1.062 2.594 1.527.923.48 1.745 1.155 2.767 1.448.033.142.124.21.268.21.294.376.655.484 1.135.39 1.208-.236 2.422-.437 3.637-.642.435-.073.688-.25.542-.737-.004-.206-.005-.41-.006-.614l-.007-.268.006-.36c.005-.407.01-.813.017-1.218.003-.188.007-.396-.19-.476-.453-.184-.797-.566-1.285-.675-.143-.108-.27-.25-.432-.32-.6-.263-.782-.618-.32-1.16z"/><path fill="#9CD17F" d="M38.833 43.31c.488.107.832.49 1.284.674.198.08.194.287.192.476-.01.405-.014.81-.02 1.217-1.2-.1-2.387-.264-3.563-.55-1.874-.456-3.602-1.356-5.5-1.754-.452-.095-1.075-.184-1.322-.766.987-.217 1.8.447 2.732.542 1.272.13 2.436.727 3.69.96.22.04.446.077.67.074.18 0 .426.283.52-.018.068-.222-.25-.212-.4-.29-.966-.504-2.01-.85-2.925-1.452-.17-.112-.342-.228-.506-.35-.37-.275-.336-.525.058-.745.013.254.237.34.4.434 1.382.795 2.895 1.25 4.425 1.654.114.03.2-.016.262-.11z"/><path fill="#B2CF95" d="M29.906 42.606c.247.582.87.67 1.322.766 1.898.397 3.626 1.298 5.5 1.754 1.177.286 2.363.45 3.564.55l-.007.36c-.463.095-.895.25-1.202.642a.462.462 0 0 1-.274.227c-1.25.433-2.513.817-3.828 1.002-.144 0-.234-.07-.267-.21 1.404-.194 2.75-.588 4.096-1.118-.406-.313-.423-.32-.97-.414-.12-.074-.23-.176-.36-.22-2.74-.967-5.48-1.918-8.212-2.905-.237-.085-.622.08-.718-.323l.02-.268h.455c.257.254.593.07.88.155z"/><path fill="#C5E5A1" d="M28.552 42.717c.097.405.48.238.717.324 2.73.99 5.472 1.94 8.21 2.906.13.045.24.146.36.22-.226.13-.456.147-.71.082-2.347-.594-4.58-1.514-6.857-2.31-.383-.135-.743-.314-1.158-.39-.553-.098-.758.45-1.196.522l-.115-.13c-.04-.494.347-.817.495-1.235l.252.012z"/><path fill="#B2CF95" d="M38.833 43.31c-.062.095-.148.14-.263.11-1.53-.406-3.043-.86-4.426-1.655-.162-.095-.387-.18-.4-.435.022-.22-.02-.424-.13-.616 1.46.49 2.954.845 4.468 1.116-.46.543-.278.897.32 1.158.16.07.288.212.43.32z"/><path fill="#9CD17F" d="M20.837 51.506l.16.234c-1.417 1.313-2.832 2.628-4.253 3.935-.357.33-.702.66-1.204.813-.34.104-.638.386-.626.83-.21-.022-.44.076-.628-.1.13-.785.788-1.156 1.353-1.494.72-.43 1.24-1.06 1.863-1.575.93-.773 1.778-1.644 2.636-2.497.226-.225.427-.267.696-.148zM21.367 51.248c-.04-.008-.082-.017-.123-.023.07-.658.638-.947 1.047-1.313 1.42-1.275 2.957-2.437 3.77-4.248.13.134.26.27.394.403-.474.276-.5.87-.87 1.22-.188-.004-.282.112-.39.252-.337.436-.773.78-1.168 1.163-.884.85-1.9 1.565-2.658 2.544z"/><path fill="#9EA0A0" d="M26.684 43.825c-.034-.394.23-.586.512-.77l.128.017c-.016.34.313.532.36.844.035.354-.094.68-.165 1.017-.366-.306-.548-.746-.837-1.108zM26.453 46.066a49.73 49.73 0 0 0-.394-.403c.067-.455.084-.933.503-1.246.222.384.29.853.64 1.167-.19.255-.443.413-.75.482z"/><path fill="#B2CF95" d="M27.203 45.584c-.35-.314-.417-.783-.64-1.167.035-.2-.077-.427.12-.593.29.362.473.803.837 1.108l.165.39c-.13.146-.306.202-.482.262z"/><path fill="#9CD17F" d="M29.027 42.45h-.456l-.78-.206c.523-.336 1.025-.303 1.52-.272.192.012.47.052.43.32-.033.245-.3.132-.467.157-.08.01-.163 0-.245 0z"/><path fill="#B2CF95" d="M27.685 43.915c-.048-.31-.377-.503-.36-.843.278-.043.445-.2.478-.485.176.003.367-.063.5.12-.15.417-.535.74-.496 1.234-.04-.006-.08-.015-.122-.024z"/><path fill="#9CD17F" d="M27.803 42.587c-.033.286-.2.442-.48.485-.042-.005-.084-.01-.127-.018-.008-.426.048-.773.607-.467zM15.55 32.41c-.01.104-.037.2-.138.257l-.107-.01c-.004-1.258-.02-2.514-.008-3.77.018-1.86.3-3.602 1.66-5.064 1.127-1.213 2.007-2.65 3.23-3.79.36-.337.746-.634 1.19-.867.626-.328 1.23-.158 1.843 0 .137.24.365.326.62.362-.162 1.07-.577 2.086-.677 3.174-.025.263-.057.527-.065.792-.256.336-.066.73-.138 1.09-.304.026-.623.006-.86.255-1.11.18-1.738.967-2.246 1.857-.294.515-.483 1.09-.72 1.638-.103.048-.125.14-.125.242v-.002c-.444.284-.868.606-1.336.845-.803.41-1.37.19-1.772-.606-.07-.142-.062-.36-.352-.47v4.066zM20 20.647c.754-.182 1.465-.52 2.246-.602.43-.045.865-.073 1.317-.305-.8-.47-1.567-.678-2.326-.185-.456.296-.936.604-1.237 1.093l-.027.052a.378.378 0 0 0 .027-.053zm-3.797 4.86c1.827-1 2.666-2.122 2.86-3.824-1.03 1.32-2.116 2.438-2.86 3.825z"/><path fill="#D2EDB4" d="M15.304 32.657l.107.01c-.04 1.62.203 3.262-.364 4.843-.034.092-.024.204-.25.277.097-1.693-.113-3.316-.733-4.868.43-.013.8-.308 1.242-.264z"/><path fill="#B2CF95" d="M23.84 19.528c-.256-.037-.484-.122-.62-.362.33-.15.316-.783.87-.626-.165.31.056.714-.25.988z"/><path fill="#C5E5A1" d="M15.55 32.41v-4.067c.29.11.28.328.352.47.402.797.97 1.018 1.772.607.468-.24.892-.56 1.336-.845l-.62 3.22c-.618.04-1.184.28-1.766.453-.313.094-.62.207-.954.17-.04-.002-.08-.004-.12-.008zM18.866 31.547c.14-1.542.587-3.007 1.247-4.395.285-.6.81-1.02 1.49-1.186.038.9-.092 1.818.145 2.7.17.632-.1 1.38.49 1.9 0 .04-.006.08-.013.122l-.484-.007h-.122c-.048-.366-.07-.737-.15-1.095-.096-.42-.323-.502-.64-.162A3.136 3.136 0 0 0 20 31.178l-.237.24c-.31-.03-.6.07-.896.13z"/><path fill="#D2EDB4" d="M18.866 31.547c.297-.06.587-.16.896-.13-.1.755-.507 1.427-.557 2.198-.04.593.07 1.12.576 1.455.517.338 1.133.496 1.7.217.524-.26.514-.84.5-1.363 0-.082-.008-.164-.018-.246-.116-.995-.263-1.987-.22-2.995l.484.007c-.316.736.138 1.4.204 2.102.083.89.11 1.763-.262 2.602-.194.437-.506.674-1.017.627-.347-.03-.7.007-1.05-.013-.722-.045-1.266-.452-1.363-1.183-.145-1.092-.286-2.2.13-3.276z"/><path fill="#B2CF95" d="M22.237 30.567c-.59-.52-.32-1.27-.49-1.9-.236-.882-.107-1.8-.144-2.7.16-.215.456-.042.628-.22.127 0 .25.004.377.007-.285 1.36-.042 2.705.12 4.052l-.37.63-.12.13z"/><path fill="#9EA0A0" d="M22.606 25.753l-.375-.008c-.176-.282-.115-.6-.133-.905.238-.25.557-.23.86-.255l.01 1.164-.36.002z"/><path fill="#C5E5A1" d="M19.008 28.578c0-.104.022-.194.126-.242-.002.1-.024.19-.126.242z"/><path fill="#9CD17F" d="M22.606 25.753c.12 0 .24-.003.36-.004.04.195-.068.423.123.59-.035.635.024 1.28.216 1.867.242.74.024 1.215-.582 1.596-.16-1.346-.403-2.69-.12-4.05z"/><path fill="#829572" d="M23.09 26.342c-.19-.167-.084-.396-.123-.592l-.01-1.164c.072-.36-.118-.755.138-1.09 0 .948-.004 1.898-.006 2.846z"/><path fill="#E4E4E4" d="M51.717 34.646c-.243.3-.444.65-.865.745-1.115.256-2.26.427-3.34.783-1.523.503-2.47 1.615-2.858 3.184-.726.43-1.516.615-2.354.62-.872-.354-1.006-.792-.453-1.595.783-1.138 1.79-2.07 2.807-2.99a.61.61 0 0 0 .455-.142c.775-.66 1.542-1.337 2.35-1.966.62-.486 1.262-.917 2.054-1.163 1.338-.416 2.734-.72 3.88-1.634.393-.312.898-.483 1.42-.545-.053.22-.08.45-.25.62-.24-.023-.43.12-.64.194-.948.33-1.656.996-2.337 1.68-.875.877-1.922 1.543-2.822 2.385-.098.09-.28.184-.2.344.09.184.247.033.378.016.933-.125 1.817-.52 2.773-.534z"/><path fill="#D6EDD9" d="M54.812 29.94c-.52.062-1.026.234-1.418.545-1.146.915-2.543 1.218-3.88 1.634-.793.244-1.435.675-2.057 1.16-.806.63-1.572 1.306-2.35 1.967a.604.604 0 0 1-.455.14c1.13-1.248 2.456-2.276 3.732-3.364.775-.662 1.684-1.166 2.34-1.965.414-.07.642-.557 1.11-.496a6.874 6.874 0 0 0 1.853-.75c.298-.173.698-.286.757-.726h.367c.005.1.03.19.126.245.065.545.097 1.086-.123 1.608z"/><path fill="#F4F4F4" d="M51.717 34.646c-.956.015-1.84.41-2.775.532-.13.018-.288.168-.377-.016-.08-.16.102-.254.2-.345.9-.842 1.946-1.508 2.82-2.386.682-.68 1.39-1.35 2.337-1.677.212-.074.4-.218.64-.192-.483 1.35-1.327 2.477-2.25 3.55-.078.094-.152.19-.228.288-.123.082-.246.165-.367.25z"/><path fill="#829572" d="M40.82 45.71c0-.1 0-.2-.002-.3.64-.338 1.164-.75.99-1.594l.115-.13c1.36.03 2.702-.043 3.973-.602.2-.087.454-.088.495-.38.594.082 1.103-.22 1.647-.36.487-.126.676-.403.57-.89l.012-.238.24.233c.117.697-.203 1.075-.868 1.24-.285.07-.55.216-.86.34.277.31.634.44.772.783-1.862.867-3.758 1.613-5.857 1.626-.162-.237-.328-.34-.598-.113-.185.156-.417.256-.628.38z"/><path fill="#9CD17F" d="M46.392 42.706c-.04.29-.296.292-.495.38-1.27.558-2.612.63-3.973.6l.008-.49c.017-.013.038-.023.048-.04.935-1.605 1.793-1.85 3.526-1.008l.88.42.006.138z"/><path fill="#9EA0A0" d="M48.858 41.45l-.24-.233-.142-.13c.115-.184.172-.413.396-.512.08.003.162.005.243.01.278.513.854.723 1.198 1.202.382.533.734 1.073 1.036 1.653.003.08.01.157.015.238l-.427.15c-.073-.05-.144-.096-.216-.143a7.333 7.333 0 0 0-1.866-2.235z"/><path fill="#B2CF95" d="M46.392 42.706l-.007-.14a.31.31 0 0 1 .206-.274c.674-.278 1.345-.558 2.017-.837.106.486-.082.764-.57.89-.544.14-1.053.442-1.644.36zM41.932 43.195l-.008.49a4.87 4.87 0 0 1-.116.13l-.987-.007c-.384-.13-.74-.314-1.006-.64.08-.29.283-.21.49-.172.54.1 1.073.235 1.63.2zM51.338 38.623c.542-.3 1.084-.6 1.625-.897.106.627.335 1.232.365 1.875-1.202.04-2.306.536-3.467.753.06-.436.498-.5.746-.746.293-.294.742-.465.733-.983z"/><path fill="#829572" d="M49.86 40.352c1.162-.217 2.266-.712 3.468-.75a.38.38 0 0 1 .014.113c-1.12.438-2.32.562-3.48.843-.038.01-.098-.06-.147-.096l.146-.11z"/><path fill="#C5E5A1" d="M49.86 40.352l-.145.11c-.202.027-.43-.07-.6.122l-.242-.01c-.39-.327-.324-.506.13-.753.77-.42 1.555-.8 2.335-1.196.01.518-.44.688-.732.982-.25.248-.686.31-.745.747z"/><path fill="#D2EDB4" d="M24.953 15.812c-.917-.213-1.603-.787-2.414-1.48.56.036.9.303 1.294.252.433.21.756.558 1.112.866l.006.362z"/><path fill="#B2CF95" d="M24.953 15.812l-.006-.362c.116.05.243.11.203.26-.013.048-.13.07-.197.102z"/><path fill="#CC8981" d="M9.132 59.567c-.342.427-.69.638-1.233.242-.337-.246-.77-.356-1.16-.526-.152-.164-.293-.343-.457-.495-.66-.615-1.14-1.333-1.354-2.224-.067-.275-.05-.482.193-.644l1.137.28c.09.1.21.12.336.125.387.355.773.71 1.157 1.066.145.136.31.25.48.09.24-.234.58-.4.618-.795.53.435.766 1.035.95 1.667.184.632-.46.8-.667 1.21z"/><path fill="#B2CF95" d="M7.23 52.228c.025-.398.408-.497.634-.708 2.303-2.14 4.365-4.517 6.607-6.716 1.058-1.035 2.213-1.95 3.316-2.93a.563.563 0 0 1 .507-.15c-.09.11-.174.227-.274.33L8.11 51.93c-.117.11-.25.21-.375.315-.167-.007-.336-.012-.505-.018zM16.14 57.214c-.215.323-.555.187-.846.228-.126-.04-.253-.083-.38-.124-.012-.443.287-.725.626-.83.502-.153.846-.482 1.204-.812 1.42-1.307 2.835-2.62 4.253-3.935.156.086.342.136.38.35-.152.37-.548.48-.803.742-.95.99-2 1.876-3.01 2.803-.52.475-1.134.89-1.423 1.58z"/><path fill="#C5E5A1" d="M8.852 56.69c-.04.394-.378.56-.62.794-.168.16-.334.047-.478-.09-.384-.356-.77-.71-1.157-1.065.208-.358.66-.52.765-.958.608.314 1.06.8 1.49 1.317z"/><path fill="#9CD17F" d="M7.23 52.228c.167.007.337.012.505.02-.44.544-.953 1.02-1.468 1.49-.59.022-1.24.625-1.517 1.302-.145.354-.03.514.25.66-.285-.044-.597.11-.856-.12-.02-.213.086-.387.16-.574.262-.654.77-1.126 1.205-1.65.407-.053.835-.134 1.07-.488.205-.317-.256-.404-.346-.636l.627-.02.368.016z"/><path fill="#C5E5A1" d="M6.26 56.203l-1.136-.28.032-.16.01-.033-.03-.02c.257.046.378-.16.49-.31.37-.492.793-.486 1.27-.19-.166.36-.7.486-.635.993z"/><path fill="#829572" d="M5.002 55.7c-.28-.147-.396-.306-.25-.66.275-.677.924-1.28 1.516-1.302-.21.225-.397.48-.635.67-.43.345-.603.762-.496 1.3l.03.02-.01.035a3.132 3.132 0 0 1-.155-.064z"/><path fill="#E4E4E4" d="M6.26 56.203c-.065-.507.47-.633.635-.994.156.053.31.106.466.162-.102.44-.555.6-.763.956-.125-.006-.245-.026-.335-.127z"/><path fill="#D2EDB4" d="M13.19 33.16c.374.188.488.558.56.914.15.76.35 1.52.305 2.306-.07-.037-.187-.062-.2-.112a147.65 147.65 0 0 1-.768-2.903c-.014-.056.066-.137.102-.205z"/><path fill="#C5E5A1" d="M14.42 38.486c-.048-.618.118-1.25-.115-1.856.093-1.02-.212-1.987-.375-2.976.198.086.206.27.265.448.45 1.354.345 2.752.358 4.14l-.005.24c-.043 0-.086.003-.127.004z"/><path fill="#B2CF95" d="M14.42 38.486c.043 0 .085-.003.127-.005-.083.168-.122.373-.368.38a.375.375 0 0 1 .24-.373zM13.807 39.23c.002-.163.086-.244.248-.247-.003.163-.086.244-.248.247zM14.055 38.98l.123-.12-.123.12z"/><path fill="#C5E5A1" d="M6.236 52.23c.09.232.55.32.344.637-.233.354-.66.436-1.07.487l-.127-.248c.325-.068.622-.268.567-.586-.05-.293-.413-.12-.636-.153-.138-.02-.282-.003-.424-.003l-.006-.004.006-.247c.45.043.915-.105 1.346.118z"/><path fill="#9CD17F" d="M42.044 45.44c2.1-.012 3.995-.758 5.856-1.625.513.187.9.567 1.342.863l2.732 2.496c.04.55-.255 1.04-.275 1.58-.45 1.618-.844 3.246-.988 4.927-.043.5-.013 1.076-.73 1.163-2.594.927-5.23 1.694-7.94 2.208-.27-.663-.758-1.18-1.153-1.86l-1.3 2.364-.274.008c.276-.796.77-1.48 1.17-2.213.14-.26.29-.5.116-.8-.4-.69-.655-1.444-.92-2.19.066-.67-.17-1.4.396-1.97.485-.19.807-.61 1.233-.885.7-.454 1.15-1.05.986-1.948l-.25-1.383a59.215 59.215 0 0 1-.004-.732z"/><path fill="#B2CF95" d="M4.145 55.58l-.75-.01c.286-1.062.682-2.05 1.742-2.595l.247.13.127.25c-.434.524-.94.996-1.202 1.65-.076.188-.183.362-.162.575z"/><path fill="#D2EDB4" d="M5.383 53.106l-.247-.13-.247-.612c.14 0 .284-.018.422.003.224.033.587-.14.637.154.054.32-.243.52-.568.587z"/><path fill="#B8D1E7" d="M52.574 45.3l-.37 1.358-1.265-2.83.426-.15c.522.453.643 1.202 1.207 1.622zM35.737 28.45c1.01-.73 1.992-1.504 3.044-2.167.39-.245.803-.393 1.03-.835.09-.177.296-.313.507-.096.097.098.203.13.332.11.412-.064.166-.526.4-.676.207-.13.67-.052.355-.526-.064-.097-.086-.198.054-.237.122-.034.18.053.212.163.08.257.072.695.445.596.464-.126.28-.553.188-.886-.037-.136-.088-.27-.134-.404l-.01-.242c.146-.116.288-.23.43-.347.08-.067.23-.156.257-.07.15.52.752.146 1.012.562.17.275.436-.05.52-.27.187-.49-.205-.91-.724-.797-.1.022-.195.062-.34-.047l.72-1.01c.042 0 .085-.004.127-.005l.738.377c.323.424.836.655 1.117 1.117.622 1.02.594 2.124.34 3.22-.413 1.793-1.206 3.403-2.524 4.72-1.66 1.663-3.118 1.724-5.015.3-1.067-.805-2.035-1.722-3.08-2.55z"/><path fill="#FEFEFE" d="M38.713 19.78c-.138.4-.242.803-.702 1.005-.75.33-1.12-.165-1.517-.637-.033-.705-.34-1.383-.15-2.114.128-.486.413-.744.875-.83.46-.083.778.128 1.024.515.408.633.48 1.335.473 2.06zm-.75-.407c.01-.416-.08-.814-.247-1.19-.073-.166-.184-.364-.396-.33-.225.037-.327.23-.34.454-.028.54.1 1.056.253 1.566.063.21.215.296.424.267.223-.032.3-.192.305-.398.004-.123 0-.246 0-.37z"/><path fill="#F4F4F4" d="M30.038 21.638c-.618.7-1.124.7-1.977-.002-.164-.655-.297-1.308-.262-1.996.027-.54.226-.917.747-1.07.527-.153.934.072 1.197.52.47.8.536 1.66.298 2.548zm-.632-.913c.058-.425-.08-.79-.208-1.16-.076-.225-.205-.39-.43-.354-.22.038-.326.23-.342.46-.042.57.13 1.094.322 1.615.054.145.16.24.332.222.19-.02.306-.122.323-.31.015-.163.003-.328.003-.47zM44.025 16.816c-.028.32.23.554.257.857.128.483.198.964.027 1.456-.14.393-.37.687-.8.767-.472.088-.877-.06-1.113-.477-.38-.677-.58-1.422-.412-2.193.22-1.022 1.087-1.183 2.04-.41zm-.364 1.768c.035-.51-.124-.938-.252-1.37-.062-.213-.213-.298-.424-.272-.188.024-.285.146-.303.334-.06.607.06 1.188.26 1.757.06.18.196.257.384.243.224-.018.325-.156.337-.368.01-.123 0-.247 0-.324z"/><path fill="#FEFEFE" d="M36.1 20.41c.068.497-.07.754-.65.753-.52 0-1.04.143-1.56.223-.065-.4.016-.698.49-.74.15-.013.205-.09.177-.25-.086-.484-.148-.972-.24-1.454-.05-.257-.155-.49-.5-.362-.158.06-.28.06-.306-.153-.05-.453.27-.56.606-.624.287-.053.665-.323.76.25.092.565.24 1.126.28 1.695.04.67.306.903.945.662zM41.798 20.147c-.52.083-1.042.175-1.564.242-.36.044-.733.07-.667-.488.673-.116.743-.537.578-1.102-.062-.212-.033-.45-.088-.665-.068-.268-.046-.67-.543-.477-.115.044-.263.003-.284-.15-.018-.115-.03-.305.033-.346.324-.212.678-.438 1.08-.336.34.086.3.44.34.713.064.442.104.89.18 1.33.063.344.048.737.624.695.286-.02.302.33.31.58zM33.258 21.515c-.486-.006-.952.127-1.427.205-.27.044-.556.136-.804-.08.026-.188-.078-.452.232-.49.416-.05.42-.34.384-.637-.046-.385-.128-.766-.196-1.148-.05-.274-.083-.562-.494-.366-.123.06-.25.01-.277-.147-.028-.163-.04-.322.13-.44.28-.196.606-.26.926-.312.25-.04.263.194.293.38.11.688.234 1.373.347 2.058.03.198.076.374.327.353.463-.037.55.255.56.623z"/><path fill="#E4E4E4" d="M39.51 14.454c-.706-.002-1.376-.948-1.168-1.635.042-.14.112-.21.254-.218.15-.006.293-.006.345.177.064.216.113.437.195.646.073.186.147.423.413.38.248-.04.375-.228.397-.48.02-.21-.06-.51.31-.467.343.04.312.325.31.572-.006.632-.412 1.022-1.055 1.02z"/><path fill="#F4F4F4" d="M29.917 14.83l.612-.25c.064.258.104.592.433.587.353-.004.44-.308.446-.625 0-.08.033-.16.067-.233.088-.187.182-.443.405-.403.233.042.12.31.13.48.028.478.044.958-.432 1.268-.68.444-1.344.113-1.663-.826zM34.243 13.838c-.013.455-.05.924.664.676.166-.058.194.097.204.225.017.2-.032.39-.25.43-.52.1-1.043.18-1.564.262-.204.03-.292-.112-.356-.272-.05-.123-.06-.29.088-.3.774-.06.562-.567.483-1.02.247 0 .49 0 .734-.002z"/><path fill="#E4E4E4" d="M25.95 19.657c.025-.21-.083-.445.122-.62.562.026.8.434.97.875.215.55.317 1.13.27 1.727h-.744c0-.306.043-.62-.01-.91-.08-.417-.05-.923-.61-1.074z"/><path fill="#F4F4F4" d="M37.092 13.468c-.042.403.034.696.548.62.186-.026.31.063.32.277.012.237-.102.312-.326.342-.443.06-.883.15-1.323.23-.25.043-.45-.01-.526-.287-.093-.34.163-.287.36-.33.526-.117.273-.55.333-.858.205 0 .41.003.616.006z"/><path fill="#CAE8C9" d="M44.9 21.638l-.737-.377c.362-.373.618-.854 1.1-1.112-.124.497-.156 1.015-.362 1.49z"/><path fill="#E4E4E4" d="M37.092 13.468l-.616-.007c-.17-.366-.304-.895.082-1.02.444-.144.34.45.457.73.04.096.05.2.077.3z"/><path fill="#CAE8C9" d="M46.623 18.41c.16.863.16.863-.858 1.115.226-.417.356-.908.858-1.114z"/><path fill="#E4E4E4" d="M34.243 13.838l-.732.002c.07-.328-.223-.865.258-.94.562-.087.235.574.46.82.022.024.012.08.016.118z"/><path fill="#CAE8C9" d="M47.006 17.672a.747.747 0 0 1-.374.373c-.144-.35-.137-.354.374-.373z"/><path fill="#B2CF95" d="M48 15.69c.112-.447.316-.877.245-1.355.714-.01 1.043.608 1.507.973.74.582 1.295 1.374 2.07 1.927.122.086.29.204.194.403-.072.148-.228.163-.377.16-.83-.027-1.56-.26-2.123-.92-.42-.493-.914-.918-1.518-1.19zM51.584 18.916c.198.005.4.106.572.26.87.768 1.354 1.79 1.837 2.812.068.146.155.337-.02.442-.156.093-.242-.103-.348-.187-.778-.614-1.162-1.532-1.758-2.286-.164-.21-.342-.407-.516-.61-.08-.098-.15-.204-.08-.333.06-.102.17-.094.315-.098z"/><path fill="#CAE8C9" d="M54.444 28.088c-.06.44-.46.553-.757.727a6.953 6.953 0 0 1-1.852.75c.684-.823 1.524-1.366 2.61-1.477z"/><path fill="#F4F4F4" d="M37.224 24.263c-.02-.6.226-.986.75-1.11.54-.13 1-.013 1.282.556.153.304.168.627.267.937.056.18.108.38-.152.444-.23.057-.41-.03-.48-.266-.072-.255-.115-.516-.26-.75-.096-.16-.17-.354-.4-.304-.22.046-.343.212-.378.434-.006.04.006.086-.008.123-.09.255.206.755-.26.732-.42-.02-.317-.527-.358-.798zM31.523 25.176c.058-.5.24-.912.743-1.115.45-.18.766.007 1.09.326.34.333.397.755.502 1.167.037.15.054.35-.17.403-.23.056-.41-.01-.495-.25-.09-.25-.163-.504-.263-.75-.07-.17-.16-.353-.396-.32-.2.025-.247.19-.29.353-.027.1-.073.193-.092.292-.036.193.02.47-.3.423-.28-.04-.297-.298-.33-.527zM42.16 23.25c.004.08.008.162.01.242-.284.067-.54.364-.857-.016-.188-.225-.41-.077-.487.2-.02.077-.015.163-.015.246.003.366.07.88-.427.854-.44-.022-.3-.54-.302-.86-.005-.526.18-.964.697-1.197.513-.23.86.042 1.19.383.056.056.13.096.195.146zM35.85 24.405c0 .274.006.438 0 .6-.007.174-.135.252-.274.29-.224.06-.204-.146-.25-.264-.116-.31-.062-.795-.665-.57-.133.05-.25-.112-.27-.27-.017-.127-.004-.25.14-.302.34-.124.67-.39 1.044-.235.38.16.26.552.278.753z"/><path fill="#D6EDD9" d="M25.95 19.657c.56.15.527.657.606 1.07.055.294.01.607.01.91H25.7c-.007-.673.017-1.34.25-1.98z"/><path fill="#F4F4F4" d="M44.653 39.355c.39-1.568 1.335-2.68 2.857-3.184 1.082-.354 2.226-.525 3.34-.78-.667.73-1.48 1.28-2.282 1.833-1.228.844-2.486 1.65-3.915 2.133z"/><path fill="#D2EDB4" d="M37.96 57.828l-.61-.04c-.096-.89-.47-1.696-.764-2.523-.502-1.41-1.227-2.644-2.566-3.49-1.347-.854-2.622-1.83-3.604-3.125 1.257-.005 2.472-.397 3.728-.4.36-.018.59.262.873.407.487.25.94.25 1.47.122a36.78 36.78 0 0 1 4.205-.77c-.204.794-.41 1.587-.613 2.38-.567.568-.33 1.298-.4 1.968-.253.02-.253.25-.3.41-.48 1.683-.95 3.37-1.42 5.058zM27.92 44.07c.44-.073.644-.62 1.197-.52.415.073.774.253 1.158.388 2.275.796 4.51 1.716 6.856 2.31.257.064.487.048.71-.08.55.094.566.1.974.41-1.345.53-2.69.925-4.096 1.118-1.02-.293-1.844-.968-2.766-1.45a30.945 30.945 0 0 1-2.593-1.527c-.424-.277-.69.05-1.027.12-.153-.25-.372-.463-.41-.77z"/><path fill="#C5E5A1" d="M22.627 55.463c-.736.445-1.595.554-2.38.862-.58.14-1.137.378-1.743.4 1.25-1.297 2.497-2.593 3.746-3.887.794.39.83.466.646 1.313-.094.44-.18.875-.27 1.314zM24.482 51.24c.614-1.366 1.228-2.732 1.847-4.097.107-.24.196-.505.496-.587.295.363.61.705.99.987 0 .034 0 .07.005.104-.05.2-.08.405-.156.595-.244.62-.34 1.28-.868 1.802-.665.66-1.47.944-2.315 1.195zM16.14 57.214c.29-.69.904-1.105 1.423-1.582 1.01-.927 2.06-1.812 3.01-2.802.254-.265.65-.372.802-.743.213.168.498.243.627.513-.18.197-.354.4-.538.593l-3.442 3.63c-.585.33-1.224.403-1.88.39z"/><path fill="#D2EDB4" d="M28.658 45.386c.136-.19.307-.28.526-.147 1.488.9 3.06 1.653 4.488 2.653-1.162.183-2.316.433-3.503.375l-.14-.23-.123-.14.004.006c-.315-.89-.776-1.71-1.253-2.52z"/><path fill="#C5E5A1" d="M23.964 55.055c-.246.09-.492.182-.737.273.176-1.295.41-2.57 1.113-3.706.293-.09.597-.154.877-.274 1.094-.466 2.116-1.017 2.474-2.288.11-.39.248-.776.374-1.164.858.728.89.904.223 1.684-.802.937-1.608 1.892-2.73 2.457-1.273.642-1.562 1.748-1.592 3.018zM40.078 50.39c.204-.792.41-1.585.613-2.378.27-.595.045-1.226.147-1.833l1.212-.007.25 1.383c.162.897-.286 1.494-.986 1.948-.427.274-.75.695-1.235.886zM24.858 48.886c-.048.59-.394 1.072-.6 1.604-.25.65-.583 1.27-.866 1.908-.146.33-.3.396-.583.12-.295-.286-.627-.53-.94-.79.516-.884 1.317-1.506 2.06-2.17.274-.246.486-.637.927-.672z"/><path fill="#D2EDB4" d="M34.983 47.906c1.315-.185 2.577-.57 3.826-1.002a.453.453 0 0 0 .272-.227c.163-.007.327-.01.49-.017.206.185.46.232.723.255.147.486-.106.664-.54.737-1.216.205-2.43.405-3.64.643-.477.095-.84-.014-1.133-.39z"/><path fill="#B2CF95" d="M24.858 48.886c-.442.035-.653.427-.928.672-.743.664-1.544 1.286-2.062 2.17a1.12 1.12 0 0 1-.502-.48c.758-.98 1.774-1.694 2.657-2.545.396-.383.83-.727 1.17-1.165.106-.14.2-.256.388-.25-.183.558-.27 1.16-.72 1.598z"/><path fill="#B8D1E7" d="M28.658 45.386c.478.81.938 1.63 1.254 2.52-.295-.007-.4-.242-.542-.44-.26-.364-.566-.648-1.067-.558.032-.405-.184-.75-.276-1.124.155-.22.39-.316.63-.398z"/><path fill="#9CD17F" d="M18.022 56.822l3.442-3.63c.184-.193.36-.396.538-.593.14.02.218.102.247.237-1.25 1.294-2.5 2.59-3.748 3.886-.136.147-.317.08-.48.098z"/><path fill="#B2CF95" d="M28.062 47.896c-.126.388-.262.773-.372 1.164-.358 1.27-1.38 1.822-2.474 2.288-.28.12-.584.185-.877.274l.14-.383c.847-.253 1.65-.537 2.315-1.196.53-.522.624-1.182.868-1.802.075-.19.106-.396.157-.595l.234.13a.96.96 0 0 1 .008.118zM30.17 48.27c1.186.057 2.34-.193 3.502-.376.25-.004.43.086.472.355-1.256 0-2.47.394-3.728.4l-.247-.247v-.135z"/><path fill="#9CD17F" d="M40.82 43.81l.987.007c.175.845-.35 1.256-.99 1.594l.003-1.6z"/><path fill="#B8D1E7" d="M27.815 47.544c-.378-.282-.694-.624-.99-.987.2-.207.412-.388.712-.422l.65.79c-.047.25-.227.426-.372.62z"/><path fill="#B2CF95" d="M42.048 46.174l-1.212.005-.016-.47c.21-.127.442-.227.626-.38.27-.23.436-.126.598.11 0 .246 0 .49.004.733z"/><path fill="#B8D1E7" d="M27.92 44.07c.04.308.257.52.41.77-.134.267-.387.38-.646.48-.054-.13-.11-.258-.165-.388.07-.336.197-.663.163-1.017l.122.025.115.13z"/><path fill="#D2EDB4" d="M28.187 46.924l-.65-.79c.126-.17.266-.318.49-.35.092.373.308.718.276 1.123a.56.56 0 0 1-.116.017z"/><path fill="#9CD17F" d="M39.574 46.66c-.163.007-.327.01-.49.018.308-.39.74-.547 1.202-.642l.007.268a1.39 1.39 0 0 0-.72.357z"/><path fill="#C5E5A1" d="M39.574 46.66c.2-.195.447-.3.72-.356 0 .203 0 .408.004.612-.264-.022-.518-.07-.724-.255zM16.203 25.508c.744-1.388 1.83-2.506 2.86-3.825-.194 1.703-1.033 2.823-2.86 3.825zM20 20.648c.302-.49.782-.797 1.238-1.093.758-.493 1.527-.284 2.326.185-.453.232-.888.26-1.317.305-.78.083-1.492.42-2.246.602z"/><path fill="#C5E5A1" d="M20 20.647c-.01.018-.018.036-.026.054l.027-.05v-.002z"/><path fill="#B2CF95" d="M21.74 30.683c-.042 1.008.105 2 .222 2.995.01.082.015.164.018.246.013.522.024 1.104-.5 1.363-.566.28-1.183.12-1.698-.217-.507-.334-.614-.862-.576-1.455.05-.77.456-1.443.557-2.197l.24-.24c.577-.037 1.11-.225 1.616-.496h.12z"/><path fill="#9CD17F" d="M21.617 30.682c-.506.27-1.04.46-1.617.497a3.12 3.12 0 0 1 .828-1.757c.316-.34.543-.26.638.162.082.358.103.73.15 1.096z"/><path fill="#B2CF95" d="M49.242 44.68c-.442-.297-.83-.678-1.342-.864-.137-.34-.493-.472-.77-.782.31-.125.574-.27.86-.342.665-.164.985-.542.867-1.24a7.353 7.353 0 0 1 1.867 2.235c-.537.263-1.1.493-1.482.992z"/><path fill="#C5E5A1" d="M49.242 44.68c.383-.5.944-.73 1.483-.993.072.047.143.093.215.142l1.263 2.83a.71.71 0 0 1-.23.515l-2.73-2.497zM37.96 57.828c.473-1.688.94-3.375 1.42-5.06.047-.16.047-.388.3-.41.267.747.52 1.5.922 2.19.174.3.023.54-.117.8-.397.732-.893 1.416-1.17 2.213-.43.197-.87.35-1.354.27zM42.043 57.05c-.82.17-1.638.336-2.455.504l1.3-2.365c.396.68.885 1.196 1.155 1.86zM36.858 57.667c-2.4-.59-4.737-1.38-7.086-2.14-1.366-.44-2.727-.918-4.173-1.04-.523-.044-.92.32-1.394.44.098-1.328.694-2.25 2.01-2.725.794-.288 1.475-.806 1.843-1.64.2-.45.635-.675 1.014-.96.338-.254.557-.215.834.083 1.125 1.206 2.483 2.142 3.745 3.19 1.538 1.28 2.65 2.852 3.203 4.792z"/><path fill="#B8D1E7" d="M36.858 57.667c-.553-1.94-1.665-3.513-3.202-4.79-1.262-1.05-2.62-1.984-3.746-3.19-.277-.298-.496-.337-.834-.082-.38.284-.816.51-1.015.96-.367.833-1.047 1.35-1.84 1.64-1.316.475-1.913 1.395-2.01 2.725l-.245.126c.03-1.27.32-2.376 1.593-3.02 1.12-.564 1.926-1.52 2.73-2.456.666-.78.634-.956-.224-1.684a.917.917 0 0 0-.008-.116c.414-.802.586-.81 1.13-.113.255.328.473.738.984.738l.246.245c.98 1.294 2.257 2.27 3.604 3.124 1.34.848 2.064 2.08 2.566 3.49.294.828.668 1.636.764 2.523l-.492-.12z"/><path fill="#D6EDD9" d="M37.963 19.373c0 .123.003.246 0 .37-.006.205-.083.365-.306.397-.21.03-.36-.058-.424-.267-.154-.51-.28-1.026-.253-1.566.013-.225.115-.417.34-.454.212-.034.322.164.396.33.167.376.256.774.247 1.19zm-.48-.11c.15.01.22-.067.224-.21.004-.136-.052-.234-.196-.25-.126-.016-.25.016-.263.167-.014.158.082.257.236.293zM29.406 20.725c0 .143.012.308-.002.47-.017.19-.134.293-.323.31-.17.018-.276-.076-.33-.22-.19-.522-.364-1.048-.322-1.617.016-.228.122-.42.34-.457.228-.034.356.13.432.355.126.37.264.736.206 1.16zm-.247-.405c-.033-.112-.073-.258-.255-.245-.137.01-.212.12-.213.25 0 .156.07.284.246.276.138-.005.196-.117.22-.28zM43.66 18.584c0 .077.008.2 0 .325-.012.21-.113.35-.337.366-.188.015-.32-.063-.384-.243-.203-.57-.32-1.15-.26-1.757.017-.188.113-.31.302-.334.21-.027.362.058.424.27.128.433.287.86.254 1.37zm-.258-.482c-.017-.13-.075-.244-.21-.255-.176-.015-.253.112-.256.268-.002.13.073.244.207.255.177.015.24-.113.26-.268z"/><path fill="#9EA0A0" d="M30.17 48.404c-.512 0-.73-.41-.986-.738-.543-.697-.716-.688-1.13.113-.077-.046-.154-.09-.232-.133a.92.92 0 0 1-.006-.104c.145-.193.325-.368.37-.62a.56.56 0 0 0 .117-.017c.5-.09.808.193 1.067.558.14.198.247.434.542.44l-.004-.005.123.14.14.23v.133z"/><path fill="#B8D1E7" d="M30.03 48.04l-.122-.14.123.14z"/><path fill="#FEFEFE" d="M37.482 19.263c-.154-.037-.25-.135-.236-.293.013-.15.137-.183.265-.167.147.016.2.114.198.25-.004.143-.073.22-.225.21z"/><path fill="#F4F4F4" d="M29.16 20.32c-.023.162-.082.274-.22.28-.177.01-.25-.12-.247-.275 0-.13.076-.24.213-.25.18-.013.22.133.253.245zM43.402 18.103c-.02.154-.082.283-.26.267-.133-.01-.208-.124-.206-.255.003-.156.08-.283.255-.268.138.01.197.123.213.256z"/></g></svg>