<!DOCTYPE svg PUBLIC "-//W3C//DTD SVG 1.1//EN" "http://www.w3.org/Graphics/SVG/1.1/DTD/svg11.dtd" [
	<!ENTITY ns_flows "http://ns.adobe.com/Flows/1.0/">
]><svg xmlns="http://www.w3.org/2000/svg" width="60" height="60" viewBox="0 -6.012 60 60" overflow="visible"><path fill-rule="evenodd" clip-rule="evenodd" fill="#0E415B" d="M26.804 0h1.026c7.953.345 14.28 3.73 18.594 8.207 4.34 4.504 7.694 10.36 7.694 18.722 0 7.8-3.06 14.323-7.566 18.977-4.254 4.394-10.593 7.654-18.595 8.08H26.29c-5.387-.39-9.795-1.638-13.336-3.72C4.097 45.06-2.473 33.457.9 20.26c1.433-5.61 4.298-10.1 8.334-13.592C13.43 3.038 19.337.19 26.804 0zm-.513 7.31c-4.53.4-7.895 4-7.82 8.335.105 6.15 8.06 7.335 13.08 9.233 5.904 2.233 11.216 5.33 11.67 12.696 4.792-5.222 3.98-18.217-.898-22.7-1.907.236-3.874 1.077-5.897.77-.368-5.32-4.79-8.81-10.132-8.334zM7.698 25.262c-.26 3.877.33 6.41 1.54 9.233.63 1.473 1.65 4.333 2.82 4.617.745.18 1.97-.364 2.82-.514.93-.162 1.872-.52 2.95-.256-.063 9.163 12.58 10.61 16.544 4.616 1.548-2.34 1.64-5.982 0-8.08-2.885-3.694-9.437-4.608-14.234-6.796-5.028-2.293-9.003-5.606-9.36-11.926-1.195 2.274-2.806 5.034-3.08 9.106z"/></svg>