<!DOCTYPE svg PUBLIC "-//W3C//DTD SVG 1.1//EN" "http://www.w3.org/Graphics/SVG/1.1/DTD/svg11.dtd" [
	<!ENTITY ns_flows "http://ns.adobe.com/Flows/1.0/">
]><svg xmlns="http://www.w3.org/2000/svg" width="60" height="60" viewBox="0 -3.86 60 60" overflow="visible"><path fill-rule="evenodd" clip-rule="evenodd" fill="#009AE4" d="M12.828 49.77c.236-.5.283-1.178.367-1.823.11-.3.168-.652.184-1.043.12-.58.23-1.17.272-1.825a4.99 4.99 0 0 0 .275-1.48c.145-.47.148-1.076.274-1.562v-.176c.14-.27.18-.642.185-1.043.12-.38.184-.81.183-1.303.07-.02.105-.072.09-.173v-.262c.192-.6.285-1.294.367-1.998-.003-.495.232-.764.183-1.303.163-.424.225-.945.275-1.477-.31-4.465 5.512-3.115 9.712-3.302.34-.055.914.114 1.1-.086 11.545-.694 17.277-6.904 19.058-16.856 3.18 1.678 4.515 4.01 4.857 7.298.35 3.364-.514 6.96-1.832 9.818-2.39 5.18-7.658 8.808-15.12 9.21-1.49.08-3.354-.2-4.397.174-1.562.56-1.59 2.546-1.923 4.432-.21 1.184-.34 2.515-.55 3.736-.3 1.733-.628 6.007-1.742 6.863-1.145.88-4.15.434-6.506.434-1.425 0-4.958.37-5.68-.347-1.135-1.122.692-4.533.457-5.82"/><path fill-rule="evenodd" clip-rule="evenodd" fill="#00288C" d="M45.54 10.325c-.065-1.04-.22-1.993-.55-2.78-.022-.068-.004-.17-.093-.174-.428-1.445-1.305-2.467-2.198-3.473a1.817 1.817 0 0 0-.553-.52c-.522-.404-.976-.872-1.65-1.13-.02-.098-.1-.136-.183-.174C37.894.803 34.97.225 31.334.107c-.215-.257-1.063.033-1.28.033H9.895c-.363 0-.87.07-1.19.314-.224.136-.407.207-.55.417-.946 2.003-.994 4.8-1.467 7.25-.108.014-.1.11-.093.233-.557 3.615-1.244 7.092-1.74 10.762-.107.015-.1.13-.093.253-.99 6.186-2.11 12.245-3.023 18.504-.07.02-.106.072-.09.173-.17 1.23-.432 2.37-.55 3.65-.136.015-.084.207-.092.346C.655 44.05.31 46.07 0 48.12v.52c.005.057.014.106.09.09-.006.15.022.27.093.35.02.095.102.317.184.356.16.312.51.705.916.705h11.545c.236-1 .283-1.362.367-2.007.11-.3.168-.745.184-1.136.12-.58.23-1.216.272-1.87.146-.442.16-.935.174-1.5.144-.47.173-1.1.173-1.587v-.176c0-.27.28-.642.284-1.043.12-.38.405-.81.404-1.3.07-.02.31-.073.31-.173v-.262c0-.6.115-1.294.197-1.998-.003-.495.147-.764.098-1.303.163-.425.183-.946.232-1.478-.31-4.465 5.49-3.115 9.69-3.302.34-.056.903.113 1.09-.087 11.544-.694 17.27-6.904 19.05-16.856.018-.766.167-1.405.184-2.17.152-.32.15-1.243 0-1.564zM4.8 26.967c0 .016-.07.11-.123.288.052-.18.124-.272.124-.288zm-.127 9.598c.21-.102.246-.15.406-.133-.16-.016-.197.033-.408.133zm2.745 3.494v-.01h.002l-.002.01zM11.853.46l-.035-.007.035.007zM8.69 41.72l.247-.21-.246.21zm.09-23.1l.024-.02a.116.116 0 0 1-.024.02zm.163-8.845c-.178-.14-.387-.1-.547 0 .16-.1.37-.14.547 0zm.134 13.933c.117.065.28.088.396.15-.118-.062-.28-.085-.396-.15zm.57-19.614c.13-.055.503-.105.606-.19-.103.084-.475.135-.607.19zm1.45 17.17c.057-.046.157-.05.217-.094-.06.043-.16.048-.217.095zm.544.003a.947.947 0 0 1 .002 0zM11.9.47c.066.01.13.024.196.037L11.898.47zm.376 31.108c.105-.068.314-.16.19-.395.125.237-.085.327-.19.395zM12.9 19.24c.03-.086.104-.16.112-.284-.007.124-.08.198-.113.284zm.127-16.494c.006.073.068.143.077.272-.01-.13-.07-.2-.077-.272zm1.347 30.786c.133-.112.162-.207.11-.422.052.215.023.31-.11.422zm1.652-16.95h-.002l-.014-.01.016.01zm-.167 1.378c.123-.238.274-.25.453-.195-.178-.055-.33-.043-.453.195zm2.186-14.49c-.03.01-.063.02-.095.028.03-.01.065-.018.095-.027zm6.41 3.816l.008-.002h.002c.026-.007.05-.01.072-.014a.47.47 0 0 0-.08.016zm11.007 3.124c.086-.01.21-.037.34-.055-.13.018-.254.044-.34.055z"/></svg>