<!DOCTYPE svg PUBLIC "-//W3C//DTD SVG 1.1//EN" "http://www.w3.org/Graphics/SVG/1.1/DTD/svg11.dtd" [
	<!ENTITY ns_flows "http://ns.adobe.com/Flows/1.0/">
]><svg xmlns="http://www.w3.org/2000/svg" width="60" height="60" viewBox="0 -9.866 60 60" overflow="visible"><path fill="#EA5F00" d="M47.568 28.39c-4.945-2.16-10.775-3.773-16.935-3.236-11.163.974-18.292 7.07-28.73 8.373C1.223 36.907.715 40.457 0 43.8c12.812-.124 20.18-8.56 32.727-8.56 5.133 0 9.24 1.23 13.32 2.664.484-3.194 1.11-6.247 1.52-9.515z"/><path fill="#271D82" d="M39.957.04c-6.35.536-10.787 5.162-10.655 11.606.122 5.973 4.912 10.906 11.226 11.036 5.205.106 10.24-3.514 11.417-8.37C54.153 5.198 46.725-.538 39.957.04z"/></svg>