<!DOCTYPE svg PUBLIC "-//W3C//DTD SVG 1.1//EN" "http://www.w3.org/Graphics/SVG/1.1/DTD/svg11.dtd" [
	<!ENTITY ns_flows "http://ns.adobe.com/Flows/1.0/">
]><svg xmlns="http://www.w3.org/2000/svg" width="60" height="60" viewBox="0 -3 60 60" overflow="visible"><path fill-rule="evenodd" clip-rule="evenodd" fill="#4F799C" d="M27.13 0h2.74c8.245.59 14.323 3.88 18.788 8.343C53.12 12.807 56.413 18.883 57 27.13v2.74c-.588 8.245-3.88 14.322-8.343 18.786C44.193 53.12 38.115 56.412 29.87 57h-2.74c-8.246-.587-14.323-3.88-18.787-8.344C3.88 44.192.588 38.116 0 29.87v-2.74c.21-3.943 1.28-7.79 2.802-10.89C7.252 7.17 15.05 1.093 27.132 0zm-9.298 8.343c-2.602 1.364-4.58 3.093-6.368 5.03-3.495 3.787-6.25 9.458-5.668 16.94.528 6.796 3.526 11.572 7.515 15.223 3.73 3.415 9.704 6.204 16.94 5.67 6.876-.51 11.61-3.542 15.224-7.517 3.528-3.88 6.312-9.486 5.796-16.94-.466-6.706-3.705-11.775-7.517-15.224-3.77-3.41-9.578-6.28-17.004-5.73a23.183 23.183 0 0 0-8.92 2.546z"/><path fill-rule="evenodd" clip-rule="evenodd" fill="#DE752E" d="M33.755 18.597a137.948 137.948 0 0 1-3.313 5.732c-.81-.307-2.037-.54-3.057-.257-2.266-3.53-4.244-7.347-6.432-10.954 2.33-1.47 4.806-2.795 7.197-4.204 1.912 3.182 3.75 6.437 5.605 9.68zM45.282 18.342c-1.89 3.27-3.772 6.546-5.67 9.808h-6.56c-.1-1.302-.718-2.084-1.273-2.93 2.165-3.608 4.214-7.332 6.367-10.954 2.407 1.33 4.726 2.748 7.134 4.076zM11.464 19.042h8.216c.78 0 2.138-.21 2.74 0 .51.18 1.442 2.32 1.718 2.802.6 1.047 1.125 1.867 1.655 2.802-.494.74-1.498 1.516-1.72 2.74H11.4v-8.152c-.005-.09-.01-.18.064-.192zM17.323 28.978h6.624c.178 1.18.648 2.068 1.337 2.738-2.116 3.68-4.225 7.367-6.37 11.018-2.477-1.28-4.758-2.756-7.195-4.075 1.87-3.228 3.707-6.48 5.602-9.683zM32.926 29.742H45.6v8.215h-8.343c-.784 0-2.137.212-2.738 0-.513-.18-1.445-2.32-1.72-2.803-.604-1.05-1.13-1.86-1.657-2.8.632-.723 1.333-1.36 1.72-2.422-.007-.09-.01-.18.062-.19zM29.55 32.926c2.25 3.59 4.338 7.338 6.433 11.082-2.454 1.304-4.735 2.78-7.197 4.076a616.873 616.873 0 0 0-5.54-9.616c1.12-1.935 2.203-3.91 3.374-5.797.74.323 1.977.538 2.93.257z"/></svg>