<!DOCTYPE svg PUBLIC "-//W3C//DTD SVG 1.1//EN" "http://www.w3.org/Graphics/SVG/1.1/DTD/svg11.dtd" [
	<!ENTITY ns_flows "http://ns.adobe.com/Flows/1.0/">
]><svg xmlns="http://www.w3.org/2000/svg" width="60" height="60" viewBox="0 -3.13 60 60" overflow="visible"><path fill-rule="evenodd" clip-rule="evenodd" fill="#FFDA00" d="M48.757 8.45c-12.95-.6-27.016-.085-40.395-.256-.427 12.95-.43 27.7 0 40.65 12.95.602 27.016.087 40.395.258.428-12.952.43-27.7 0-40.65z"/><path fill-rule="evenodd" clip-rule="evenodd" fill="#E0E0E0" d="M56.733 51.932c-.784-.59-2.048-.698-2.06-2.058v-.258c.368-.748 1.25-.98 2.06-1.286v-3.602c-.784-.59-2.048-.7-2.06-2.06v-.256c.368-.748 1.25-.98 2.06-1.288v-3.6c-.886-.403-1.796-.78-2.06-1.803.188-.753.78-1.104 1.286-1.54h.256c1.03-.43.292-2.625.516-3.86-.81-.308-1.69-.54-2.06-1.287v-.258c.012-1.36 1.275-1.467 2.06-2.057v-3.603c-.81-.307-1.69-.54-2.06-1.287-.1-.367-.31-.434 0-.77.382-.82 1.35-1.054 2.06-1.545v-3.345c-.71-.49-1.678-.724-2.06-1.543-.1-.367-.31-.434 0-.772.368-.748 1.25-.98 2.06-1.287V8.963c-.784-.59-2.048-.698-2.06-2.06v-.256c.368-.748 1.25-.98 2.06-1.286V2.53c-.69-.167-.98-.736-1.545-1.028v-.257C55.402-.092 52.85-.007 52.1.473h-.257c-.568 2.343-3.488 2.104-3.86-.257C46.517-.2 45.7.036 45.088.473h-.19c-.008.06-.02.116-.032.173-.753.635-1.254 1.524-2.54 1.628-.86-.342-.944-1.456-1.543-2.06-1.262.196-3.456-.54-3.6.773.2 2.007-3.288 2.007-3.088 0-.146-1.313-2.34-.577-3.603-.772-.26 1.694-2.904 3.083-3.603.772V.73c-.495-.878-2.358-.387-3.603-.515-.403 2.394-3.222 2.532-3.86.257h-.256c-.36-.426-2.47-.426-2.83 0h-.257c-.57 2.343-3.488 2.104-3.86-.257-1.468-.417-2.283-.18-2.897.257h-.19c-.007.06-.02.116-.03.173a3.407 3.407 0 0 1-.003.002c-.754.636-1.255 1.525-2.54 1.63C5.703 1.934 5.617.82 5.02.217 3.902.304 2.322-.076 1.93.732c.02.448-.057.8-.257 1.03C.363 2.08-.117 3.228.13 5.105c1.917.2 3.126 3.47.257 3.602-.396.89-.227 2.346-.257 3.602 2.36.37 2.6 3.29.257 3.86v.255c-.426.36-.426 2.47 0 2.83v.515c.822.38 1.895.508 1.802 1.8-.067 1.223-1.4 1.176-2.06 1.803.126 1.245-.365 3.108.513 3.602H.9c.734.38 1.48.75 1.288 2.058-.343.86-1.458.945-2.06 1.544.195 1.264-.542 3.458.772 3.603 2.007-.2 2.007 3.287 0 3.088-1.314.145-.577 2.34-.772 3.6 3.38 1.35 1.582 2.244.498 4.072a2.996 2.996 0 0 1-.24.046v.405c-.344.73-.527 1.603-.258 2.685 2.36.37 2.6 3.29.257 3.858v.258c-.58.19-.1 1.444-.257 2.06.79.754 1.626 1.46 2.06 2.57h3.086c.307-.806.54-1.69 1.286-2.056h.257c1.36.012 1.468 1.275 2.058 2.058h3.602c.307-.807.54-1.69 1.287-2.057.367-.102.434-.31.772 0 .818.38 1.05 1.35 1.542 2.058h3.345c.49-.708.724-1.677 1.544-2.057.368-.102.435-.31.772 0 .747.367.98 1.25 1.286 2.058h3.602c.59-.78.698-2.045 2.058-2.057h.256c.748.367.98 1.25 1.287 2.058 1.234-.22 3.43.515 3.86-.514v-.256h.256c.06-.886.765-1.122 1.543-1.287.743.456 1.203 1.198 1.544 2.058h3.602c.307-.807.54-1.69 1.286-2.057h.258c1.358.012 1.47 1.275 2.058 2.058h3.603c.308-.807.54-1.69 1.287-2.057.368-.103.435-.31.772 0 .82.38 1.052 1.35 1.543 2.057h3.088c.34-1.888 2.473-1.985 1.8-4.888zm-1.055-48.96zm-.105-.04zm-.894-.886c-.013-.022-.023-.045-.034-.068.01.023.02.045.032.068zm-.104-.24a1.67 1.67 0 0 1 0 .002zm-.088-.264zm-10.283.288c.042-.038.082-.08.122-.12-.04.04-.08.082-.123.12zm.13-.13a1.603 1.603 0 0 0-.002 0zm.223-.292zm.25-.55zm-.068.196a2.468 2.468 0 0 1-.083.18c.028-.058.057-.118.082-.18zm-.085.184zm-2.3 1.1l-.098-.02.098.02zm1.84-.5c-.042.04-.085.073-.128.107l.127-.106zm-.14.118l-.132.092c.043-.03.087-.06.13-.092zm-.15.103l-.136.075c.045-.024.09-.05.135-.077zm-.158.086zm-.164.075zm-.17.063c-.043.014-.087.025-.133.037.045-.01.09-.022.134-.036zm-.172.046zm-.175.03zm-.177.02h-.118c.04 0 .08 0 .12-.002zm-.178 0c-.038 0-.076-.003-.112-.006l.112.006zm-.177-.014c-.036-.004-.072-.01-.106-.015.033.007.07.01.105.016zM40.94 1.132c.01.025.02.05.033.074-.01-.025-.023-.05-.033-.074zm.085.187l.04.07-.04-.07zm.097.17l.048.067-.048-.067zm.11.156l.054.063c-.017-.02-.035-.04-.053-.064zm.122.142l.06.057-.06-.058zm.832.505l-.092-.03.092.03zm-.168-.06c-.028-.01-.057-.02-.084-.035.027.013.055.024.084.036zm-.162-.073c-.027-.014-.054-.027-.08-.042l.08.042zm-.156-.09c-.024-.016-.05-.03-.072-.047.023.017.048.03.072.046zm-.147-.105c-.02-.018-.045-.034-.065-.053.02.02.043.035.065.053zm-.657-.963c-.008-.026-.02-.05-.025-.076.01.026.02.05.027.076zm-.063-.226c-.003-.02-.013-.043-.017-.066.005.023.013.045.017.068zM8.443 1.83zm.13-.13zm.224-.292zm.25-.55zm-.068.196a2.475 2.475 0 0 1-.002 0zm-.086.183zM6.597 2.34c-.034-.008-.067-.015-.1-.024.033.01.066.016.1.023zm1.838-.5zm-.142.115zm-.15.103zm-.156.09zm-.164.074c-.045.018-.09.035-.135.05.045-.015.09-.03.135-.05zm-.17.062a2.846 2.846 0 0 1 .002 0zm-.172.046a1.61 1.61 0 0 1-.127.025c.043-.007.086-.016.13-.025zm-.174.03zm-.177.02l-.12.002c.04 0 .08 0 .12-.003zm-.18 0c-.037 0-.075-.003-.113-.005l.114.006zm-.177-.013l-.107-.014.107.014zM5.177 1.13c.01.028.024.053.035.08-.01-.026-.024-.052-.035-.08zm.085.188c.013.026.028.05.042.075-.014-.024-.03-.048-.042-.075zm.098.173c.015.026.032.05.048.07-.016-.02-.033-.044-.048-.07zm.11.158c.018.023.036.043.055.065a1.113 1.113 0 0 1-.055-.065zm.122.142l.06.058-.06-.06zm.832.505l-.094-.03c.032.01.063.022.094.03zm-.167-.06A1.073 1.073 0 0 1 6.17 2.2c.03.013.056.025.086.036zm-.163-.073l-.08-.042.08.042zm-.155-.09a.928.928 0 0 1-.075-.047c.023.017.048.032.073.048zm-.15-.105a1.13 1.13 0 0 1-.067-.053c.022.02.045.036.068.053zm-.656-.96c-.01-.027-.02-.05-.027-.08.008.03.018.053.027.08zM5.072.784L5.054.71l.018.073zm-3.656 4.09a.22.22 0 0 1 .036.004l-.036-.005zm.246.064l.034.013a.2.2 0 0 0-.034-.012zm-.007 39.45c.035-.034.066-.07.098-.105-.032.035-.064.07-.098.104zm.637-1.44v-.094.095zm0-.174zm-.015-.174a1.4 1.4 0 0 0-.014-.09c.006.03.01.06.014.09zm-.03-.173l-.02-.086.02.088zm-.044-.17l-.028-.082c.01.027.02.054.028.083zm-.06-.164c-.01-.026-.02-.053-.034-.08.01.027.02.053.032.08zm-.075-.16c-.013-.024-.025-.05-.04-.073l.04.074zm-.09-.153l-.045-.07.046.07zm-.103-.145l-.053-.064.053.066zm-.12-.137l-.06-.06.06.06zm-.136-.126l-.066-.055.064.055zm-.153-.115zm-.166-.104a.604.604 0 0 0-.074-.042l.075.044zm-.182-.09l-.08-.035c.027.01.053.023.08.034zm-.203-.08c-.026-.007-.05-.018-.08-.025.028.008.053.02.08.026zm-.226-.06l-.07-.018c.024.005.046.012.07.018zm1.434 2.774c-.015.034-.03.07-.046.103l.045-.103zm.163-.67a1.1 1.1 0 0 1-.01.097l.01-.098zm-.02.17c-.006.034-.012.068-.02.1.008-.03.014-.066.02-.1zm-.035.17l-.026.103c.01-.034.018-.07.026-.103zm-.047.167zm-.404.72c.03-.035.057-.07.083-.105-.027.033-.053.07-.082.102zm.114-.145l.07-.106-.07.104zm.1-.153zm-.486.556zm.123-.11a1.67 1.67 0 0 1-.117.105c.04-.033.08-.07.118-.105zm47.38 9.586c-1.01.19-1.236 1.162-1.8 1.8-2.83.684-2.53-3.127-5.145-1.8a5.2 5.2 0 0 0-1.544 1.543c-.426.43-1.51.205-2.314.257-.546-2.935-4.65-2.2-5.403 0-.74-.03-1.685.143-2.06-.256A5.218 5.218 0 0 0 29.2 53.99c-2.682-1.308-2.34 2.63-5.402 1.8-.194-.92-.595-1.634-1.544-1.8h-1.8c-1.146.057-1.15 1.253-1.802 1.8-2.42.62-2.08-1.52-3.602-1.8h-1.8c-1.01.19-1.24 1.163-1.802 1.8-2.832.685-2.53-3.126-5.146-1.8-.942.616-2.83 3.65-3.86 1.03-.466-.734-1.35-1.053-1.028-2.573.97-.316 1.83-.743 1.8-2.06-.027-1.344-.696-2.047-1.543-2.572-.455-.487-.186-1.7-.256-2.572 1.098-.19 1.78-.795 1.8-2.06v-.514c.095-1.555-1.204-1.714-1.8-2.574v-2.06c2.224-.57 2.13-4.042 0-4.63-.755-2.9 1.79-2.5 1.8-4.633v-.514c.113-1.486-1.076-1.67-1.8-2.316.052-.805-.174-1.89.257-2.315.848-.527 1.518-1.23 1.544-2.574.038-1.41-1.152-1.592-1.8-2.316v-2.057c.97-.315 1.83-.742 1.8-2.058.187-.787-.443-.756-.257-1.543-.767-.95-2.045-1.386-1.544-3.603 1.098-.19 1.78-.795 1.8-2.06.006-.606-.442-.758-.257-1.543-.047-.02-.09-.046-.134-.072.042.026.086.05.133.072a3.266 3.266 0 0 1-.263-.158 1.75 1.75 0 0 0 0-.002c-.126-.094-.24-.2-.354-.308l-.1-.095c-.01-.007-.018-.015-.026-.022-.05-.044-.1-.087-.152-.128v-.002c-.9-1.115-.365-2.663.896-3.662C5.36.99 4.73 3.508 6.82 3.306h.514C8.818 3.418 9 2.228 9.65 1.505c2.685-.714 2.217 1.726 4.116 1.8h.772c1.513.14 1.564-1.18 2.315-1.8 2.662-.69 2.136 1.808 4.117 1.8 1.344-.027 2.047-.697 2.573-1.543.487-.457 1.7-.188 2.572-.257.19 1.098.793 1.78 2.06 1.8h.514c1.55.096 1.71-1.203 2.57-1.8h2.058c.534 2.187 4.098 2.187 4.63 0h2.317c.444.927.954 1.79 2.315 1.8h.515c1.484.114 1.667-1.076 2.315-1.8.805.052 1.888-.173 2.315.257.525.847 1.228 1.516 2.572 1.543 1.512.14 1.563-1.18 2.314-1.8.884-.06 1.634.235 2.16.723.05.09.11.175.178.253.067.08.14.15.22.216v.002c.41.618.54 1.398.274 2.153A3.555 3.555 0 0 0 53.9 6.395c-1.307 2.683 2.63 2.342 1.8 5.404-1.02.094-1.482.746-1.8 1.543v1.8c.384 1.504 2.457 1.318 1.8 3.86-.92.195-1.634.597-1.8 1.545v1.8c.056 1.145 1.253 1.15 1.8 1.802.686 2.832-3.126 2.53-1.8 5.145.405.625.92 1.14 1.543 1.545.432.428.205 1.51.258 2.315-2.754.597-2.386 4.697 0 5.403-.03.74.14 1.685-.257 2.06a5.195 5.195 0 0 0-1.543 1.543c-1.306 2.683 2.63 2.342 1.802 5.403-.763.094-1.27.445-1.544 1.03-.617 1.382-.132 3.21 1.03 3.6.228.458.718.654.514 1.545-.67.615-1.353 1.22-1.8 2.058-.94.167-1.37-.173-1.802-.514-.487-.97-1.438-1.48-3.086-1.29zM1.88 5.04l.017.01-.017-.01z"/><path fill-rule="evenodd" clip-rule="evenodd" fill="#1E100C" d="M38.208 23.116v-1.03c.08-.596-.042-.987-.258-1.285-.085 0-.214-.513-.3-.513-.11-.49-.172-.515-.472-.772-.38-1.078-1.46-1.456-2.06-2.315-1.06-.483-1.9-1.188-3.6-1.03h-12.35c-.482.58-.353 2.74 0 3.344h2.572c.6 5.575.086 12.263.257 18.267h-2.83c-.48.584-.352 2.744 0 3.346h10.035c.267-.724.492-2.406 0-3.086-.694-.508-2.25-.154-3.345-.26v-6.173h4.116c1.526.067 2.893-.023 3.86-.516 1.3-.67 2.294-1.65 3.345-2.57.11-.49.387-.43.644-1.16.258.13.258-.555.258-.64.12-1.338.192-2.08.128-3.603zm-3.902 1.458c-.086 0-.13.6-.214.6-.496 2.164-2.353 2.966-4.89 3.088h-3.087v-8.748c3.82-.13 7.475-.1 7.977 3.087.085 0 .086.473.17.473.087 1.074.298.473.044 1.502z"/></svg>