<svg width="60" height="60" viewBox="0 0 60 60" fill="none" xmlns="http://www.w3.org/2000/svg">
<path d="M29.6427 0.000486443C27.1686 0.0117567 24.8059 0.218617 22.7271 0.579257C16.6029 1.63997 15.491 3.86012 15.491 7.95445V13.3618H29.9632V15.1642H15.491H10.0597C5.85368 15.1642 2.17077 17.6427 1.01881 22.3576C-0.309973 27.7619 -0.368913 31.1343 1.01881 36.7773C2.04754 40.9777 4.5043 43.9705 8.7103 43.9706H13.6862V37.4883C13.6862 32.8052 17.8192 28.6744 22.7271 28.6744H37.1824C41.2062 28.6744 44.4185 25.4263 44.4185 21.4646V7.95445C44.4185 4.10938 41.1098 1.22098 37.1824 0.579257C34.6962 0.173536 32.1167 -0.0107838 29.6427 0.000486443ZM21.8163 4.34953C23.3111 4.34953 24.5319 5.56589 24.5319 7.06149C24.5319 8.55175 23.3111 9.75692 21.8163 9.75692C20.316 9.75692 19.1006 8.55175 19.1006 7.06149C19.1006 5.56589 20.316 4.34953 21.8163 4.34953Z" fill="url(#paint0_linear_8_21)"/>
<path d="M46.2235 15.1646V21.4649C46.2235 26.3494 41.9995 30.4606 37.1826 30.4606H22.7273C18.7678 30.4606 15.4912 33.783 15.4912 37.6705V51.1806C15.4912 55.0257 18.9017 57.2873 22.7273 58.3905C27.3084 59.711 31.7015 59.9497 37.1826 58.3905C40.8261 57.3563 44.4187 55.275 44.4187 51.1806V45.7732H29.9634V43.9708H44.4187H51.6548C55.8608 43.9708 57.4282 41.0945 58.8909 36.7775C60.4019 32.3331 60.3375 28.0591 58.8909 22.3578C57.8514 18.2529 55.8661 15.1646 51.6548 15.1646H46.2235ZM38.0935 49.3781C39.5937 49.3781 40.8091 50.5833 40.8091 52.0735C40.8091 53.5692 39.5937 54.7855 38.0935 54.7855C36.5986 54.7855 35.3778 53.5692 35.3778 52.0735C35.3778 50.5833 36.5986 49.3781 38.0935 49.3781Z" fill="url(#paint1_linear_8_21)"/>
<defs>
<linearGradient id="paint0_linear_8_21" x1="-2.51806e-06" y1="-4.71971e-07" x2="32.8131" y2="28.5211" gradientUnits="userSpaceOnUse">
<stop stop-color="#5A9FD4"/>
<stop offset="1" stop-color="#306998"/>
</linearGradient>
<linearGradient id="paint1_linear_8_21" x1="37.7457" y1="51.619" x2="26.0858" y2="34.9529" gradientUnits="userSpaceOnUse">
<stop stop-color="#FFD43B"/>
<stop offset="1" stop-color="#FFE873"/>
</linearGradient>
</defs>
</svg>
