<!DOCTYPE svg PUBLIC "-//W3C//DTD SVG 1.1//EN" "http://www.w3.org/Graphics/SVG/1.1/DTD/svg11.dtd" [
	<!ENTITY ns_flows "http://ns.adobe.com/Flows/1.0/">
]><svg xmlns="http://www.w3.org/2000/svg" width="60" height="60" viewBox="0 -6.055 60 60" overflow="visible"><path fill-rule="evenodd" clip-rule="evenodd" fill="#2479CE" d="M24.81.095c8.75-.718 15.712 2.722 20.29 6.763 4.603 4.065 8.223 10.136 8.9 18.036.71 8.342-2.62 15.286-6.645 19.933-4.192 4.838-10.028 8.352-17.917 9.018-8.53.72-15.732-2.54-20.29-6.525C4.318 43.093.868 37.154.13 29.403-.736 20.3 2.83 13.74 6.774 9.233 10.712 4.733 16.78.753 24.81.093z"/><path fill="#FFF" d="M37.823 44.298c-1.1.482-2.292.725-3.58.725-2.6 0-4.798-1.354-6.595-4.062l-1.73-2.612c-3.457-.054-6.218-1.232-8.283-3.538-2.12-2.44-3.177-5.806-3.177-10.094 0-4.45 1.1-7.855 3.297-10.214 2.064-2.226 4.906-3.34 8.526-3.34 3.593 0 6.45 1.142 8.567 3.42 2.198 2.36 3.298 5.736 3.298 10.134 0 3.618-.697 6.51-2.09 8.665-1.396 2.16-3.272 3.615-5.632 4.365l.644 1.006c.644.99 1.595 1.515 2.855 1.57 1.152 0 2.452-.31 3.9-.926V44.3zM33.24 24.774c0-2.988-.626-5.294-1.87-6.917-1.248-1.622-2.93-2.433-5.048-2.433s-3.807.81-5.067 2.433c-1.26 1.623-1.89 3.928-1.89 6.917 0 2.99.63 5.282 1.89 6.877 1.26 1.597 2.95 2.395 5.067 2.395s3.8-.798 5.047-2.393c1.243-1.593 1.87-3.885 1.87-6.876z"/></svg>