<!DOCTYPE svg PUBLIC "-//W3C//DTD SVG 1.1//EN" "http://www.w3.org/Graphics/SVG/1.1/DTD/svg11.dtd" [
	<!ENTITY ns_flows "http://ns.adobe.com/Flows/1.0/">
]><svg xmlns="http://www.w3.org/2000/svg" width="60" height="60" viewBox="0 -6.198 60 60" overflow="visible"><path fill-rule="evenodd" clip-rule="evenodd" fill="#3AB312" d="M24.744.095c8.73-.717 15.67 2.714 20.236 6.745 4.59 4.053 8.2 10.108 8.875 17.988.713 8.32-2.61 15.246-6.627 19.882-4.18 4.824-10 8.328-17.87 8.992-8.505.72-15.69-2.533-20.234-6.508C4.304 42.98.866 37.054.13 29.324c-.864-9.08 2.694-15.62 6.628-20.117C10.684 4.72 16.734.752 24.744.095zm3.315 11.242v26.27c2.983-.172 5.776.237 8.282 0 5.897-.553 10.008-5.287 9.703-11.358-.312-6.175-4.67-10.183-11.716-10.18v3.787c5.236-.687 9.77 4.928 7.22 10.177-1.47 3.027-4.898 4.295-9.588 3.668v-22.72h-3.787c-.137.02-.128.186-.117.354zM7.82 27.077c.09 6.053 4.467 10.686 11.717 10.53v-3.785c-4.503.267-7.453-2.522-7.813-6.036-.526-5.138 3.79-8.87 10.177-7.81.078 7.503-.153 15.926.12 22.84 1.23-.072 2.75.148 3.787-.12V16.19C15.67 14.707 7.692 18.27 7.822 27.076z"/></svg>