<!DOCTYPE svg PUBLIC "-//W3C//DTD SVG 1.1//EN" "http://www.w3.org/Graphics/SVG/1.1/DTD/svg11.dtd" [
	<!ENTITY ns_flows "http://ns.adobe.com/Flows/1.0/">
]><svg xmlns="http://www.w3.org/2000/svg" width="60" height="60" viewBox="0 -1.98 60 60" overflow="visible"><path fill-rule="evenodd" clip-rule="evenodd" fill="#252525" d="M33.37 0h3.213C48.9 1.456 55.845 8.286 56.92 20.98v1.57c-.055.017-.083.06-.07.144-.784 11.163-5.977 18.51-12.632 24.05A33.832 33.832 0 0 1 32.3 53.167c-4.465 1.35-10.924 2.063-15.77.142-.1-5.066.465-9.278 1.927-12.99 1.475-3.747 5.586-10.086 10.99-6.637 4.03 2.576 5.684 8.812 6.208 14.772 1.125-.47 2.504-1.3 3.496-2.14-1.226-2.953-2.39-6.47-2.64-10.35-.26-4.07.524-8.114 1.57-11.417 2.06-6.506 5.74-11.967 9.063-16.985C43.383 4.416 36.74 2.98 29.8 3.923 30.893 2.517 32.124 1.25 33.37 0z"/><path fill-rule="evenodd" clip-rule="evenodd" fill="#DD0020" d="M12.176 58.02h-.143C5.825 55.136 1.555 50.353.33 42.89c-1.417-8.627 2-16.06 5.28-20.98 3.418-5.125 8.447-9.59 14.416-12.417 5.736-2.72 15.096-4.65 21.98-1.285-1.2 3.11-2.664 6.325-4.78 9.135-1.962 2.6-4.484 5.35-7.852 6.137-.6.14-1.365.243-2 .072-3.248-.88-1.433-6.273-.5-8.28.82-1.756 1.816-3.35 2.927-4.708.384-.467 1.045-.85 1-1.285-.84.336-2.12.13-2.996.57-.492.246-1.254 1.503-1.784 2.21-8.5 11.336-14.24 26.44-13.844 45.96zm16.127-40.18c-.227.97-.036 2.21.644 2.57 1.38.732 3.255-.713 3.924-1.356.923-.885 1.83-2.206 2.215-3.497.493-1.653.072-3.407-1.713-3.21-2.596.283-4.542 3.26-5.067 5.494z"/></svg>