<svg id="Layer_1" data-name="Layer 1" xmlns="http://www.w3.org/2000/svg" width="60" height="60" viewBox="0 0 60 53.7"><defs><style>.cls-1{fill:#00cfff;}</style></defs><title>reactjs</title><path class="cls-1" d="M54.39,22.66A35.41,35.41,0,0,0,48.2,20l-.63-.23c.16-.79.32-1.57.47-2.35a23.35,23.35,0,0,0,.34-7.71,8.64,8.64,0,0,0-2-4.7A5.5,5.5,0,0,0,43,3.22a.62.62,0,0,1-.14-.05H41.18c-.87.23-1.76.39-2.59.69a21.15,21.15,0,0,0-6.2,3.79c-.81.68-1.6,1.4-2.39,2.1-.76-.69-1.48-1.38-2.25-2a19.84,19.84,0,0,0-7.1-4.12c-.62-.18-1.26-.28-1.89-.42h-1.5c-.38.09-.76.15-1.12.26a5.79,5.79,0,0,0-3.68,3.49,13,13,0,0,0-1,4.89,30.47,30.47,0,0,0,.85,7.35c0,.21.08.41.13.67-.66.23-1.3.44-1.94.67a27.91,27.91,0,0,0-6.7,3.29A10,10,0,0,0,.5,27.57,13.49,13.49,0,0,0,0,29v2c.88,3.18,3.21,5,6,6.51A36.84,36.84,0,0,0,12,40l.42.16c-.17.84-.35,1.65-.5,2.47a21.71,21.71,0,0,0-.19,8.3,8.61,8.61,0,0,0,1.69,3.87,5.54,5.54,0,0,0,3.61,2,2.07,2.07,0,0,1,.25.07h1.35c.91-.24,1.85-.4,2.74-.73a21.94,21.94,0,0,0,6.06-3.68c.86-.69,1.69-1.41,2.56-2.14l1.47,1.26a29.31,29.31,0,0,0,5.72,3.95,11.49,11.49,0,0,0,4,1.28.93.93,0,0,1,.18.05h1.2c.41-.09.83-.15,1.24-.28a6,6,0,0,0,3.85-3.77,14.42,14.42,0,0,0,.88-6,34.79,34.79,0,0,0-.9-6.11c-.12-.54-.12-.56.42-.73a37,37,0,0,0,5.33-2.08A19.25,19.25,0,0,0,57,35.57a9.23,9.23,0,0,0,3-4.36V28.74C59.06,25.85,57,24,54.39,22.66ZM39.34,6.28a7,7,0,0,1,3-.59,3.1,3.1,0,0,1,2.54,1.44,7,7,0,0,1,1.08,3.27,25,25,0,0,1-.64,7.88c-.06.28-.12.56-.2.89-.67-.11-1.32-.24-2-.33L37.17,18a.58.58,0,0,1-.34-.17q-2.46-3.07-4.91-6.14a.65.65,0,0,1,0-.1A24.63,24.63,0,0,1,39.34,6.28ZM17.63,33.1l3.43,6.05c-.3,0-.49,0-.68-.06-1.38-.22-2.76-.43-4.14-.67-.51-.09-.58-.22-.41-.69.52-1.41,1.06-2.82,1.6-4.23C17.48,33.39,17.54,33.28,17.63,33.1ZM15.75,21.69l5.25-1,.08.13-3.41,5.91A23.1,23.1,0,0,1,15.75,21.69ZM20.65,33.2c-.58-1-1.06-2-1.57-3.06a.56.56,0,0,1,0-.44,90.72,90.72,0,0,1,5.28-9.05.59.59,0,0,1,.41-.24c2.17-.05,4.34-.11,6.52-.12,1.26,0,2.52.08,3.78.12a.91.91,0,0,1,.81.47c1.85,2.84,3.51,5.78,5.08,8.78a.56.56,0,0,1,0,.44,65.25,65.25,0,0,1-4.87,8.59,2,2,0,0,1-1.9,1c-1.4-.06-2.8,0-4.2,0h0c-1.51,0-3,0-4.53,0A1.33,1.33,0,0,1,24.19,39C23,37.08,21.8,35.16,20.65,33.2Zm21.72,0h.12c.44,1.14.88,2.28,1.31,3.42.15.38.27.78.4,1.17s.1.58-.39.67c-1,.19-2,.36-3.06.52-.54.09-1.08.15-1.62.22L39,39.07Zm.12-6.42-.12,0L39,20.88l.08-.14,5.29.94A38.57,38.57,0,0,1,42.48,26.74ZM30,13.4l3.48,4.18h-7Zm-15.9-2.61a17.86,17.86,0,0,1,.5-2.45,3.84,3.84,0,0,1,1.45-2,3.32,3.32,0,0,1,2.73-.55,11,11,0,0,1,3.65,1.38,30.6,30.6,0,0,1,5.73,4.43l-.64.78c-1.41,1.78-2.82,3.56-4.25,5.33a.89.89,0,0,1-.51.29c-2.45.39-4.91.77-7.36,1.14l-.48,0c-.17-.92-.35-1.81-.51-2.7A18.74,18.74,0,0,1,14.11,10.79ZM13.3,37.14a2.46,2.46,0,0,1-.3.44c-.82-.27-1.55-.48-2.26-.74a20.83,20.83,0,0,1-5.87-3.09,7.44,7.44,0,0,1-1.79-2A3.26,3.26,0,0,1,3,28.35a7.38,7.38,0,0,1,2.41-2.52,25.33,25.33,0,0,1,7.48-3.36c.34-.1.41.11.49.33q1,2.7,2,5.39c.2.54.44,1.06.64,1.6a.64.64,0,0,1,0,.42Q14.68,33.68,13.3,37.14ZM27.76,48.8a24,24,0,0,1-6.81,4.82,6.9,6.9,0,0,1-3.35.63,3.17,3.17,0,0,1-2.53-1.59,7.23,7.23,0,0,1-1-3.61c0-.47,0-.95,0-1.42a25.32,25.32,0,0,1,.76-6.41c.06-.27.18-.38.45-.33,1.07.18,2.14.37,3.21.53s2.44.36,3.67.5a1.49,1.49,0,0,1,1.05.55l2.21,2.69C26.25,46.1,27,47,27.8,48,28.17,48.4,28.17,48.43,27.76,48.8Zm2.31-2.41a32.88,32.88,0,0,1-3.51-4,37.47,37.47,0,0,1,7,0ZM45.64,51a6.22,6.22,0,0,1-1,2.1,3.08,3.08,0,0,1-2.89,1.17,9.46,9.46,0,0,1-4.12-1.37,29.56,29.56,0,0,1-5.4-4.14c-.29-.27-.27-.47,0-.75.69-.81,1.37-1.62,2-2.44l2.55-3.1a1.59,1.59,0,0,1,1.09-.56q3.37-.49,6.73-1.06c.38-.06.47.07.55.38A31,31,0,0,1,46,47.7,28.34,28.34,0,0,1,45.64,51ZM56.36,32.62a11.43,11.43,0,0,1-3.15,2.44,25.32,25.32,0,0,1-5.87,2.4c-.34.09-.49,0-.61-.32q-1-2.73-2.09-5.45c-.18-.45-.41-.89-.57-1.34a1,1,0,0,1,0-.63c.87-2.32,1.76-4.64,2.63-7,.12-.34.28-.38.58-.29a27.5,27.5,0,0,1,5.24,2.09,27.63,27.63,0,0,1,2.92,1.87A4.94,4.94,0,0,1,57,28.33a10.58,10.58,0,0,1,.48,1.37A4.26,4.26,0,0,1,56.36,32.62Z" transform="translate(0 -3.17)"/><path class="cls-1" d="M30,35.35A5.33,5.33,0,1,0,24.68,30,5.32,5.32,0,0,0,30,35.35Z" transform="translate(0 -3.17)"/></svg>
