<svg width="60" height="60" viewBox="0 0 60 60" fill="none" xmlns="http://www.w3.org/2000/svg">
<path d="M24.3814 0.447163C28.11 0.447163 31.8385 0.447163 35.5671 0.447163C35.5671 20.0297 35.567 39.6122 35.5678 59.1947C35.5678 59.306 35.5786 59.4174 35.5844 59.5288C35.516 59.5353 35.4476 59.5475 35.3792 59.5475C31.7844 59.5484 28.1896 59.5485 24.5949 59.547C24.5213 59.547 24.439 59.5745 24.3756 59.51C24.4634 59.3881 24.4262 59.2493 24.4262 59.1181C24.4279 39.7048 24.4278 20.2914 24.4278 0.87806C24.4278 0.810912 24.4275 0.743764 24.4275 0.676616C24.4273 0.608813 24.4238 0.541886 24.3758 0.486174C24.3781 0.473225 24.38 0.460225 24.3814 0.447163Z" fill="#2E73B7"/>
<path d="M35.5844 59.5288C35.5786 59.4174 35.5678 59.306 35.5678 59.1947C35.567 39.6122 35.5671 20.0297 35.5671 0.447163C35.5825 0.447163 35.598 0.447163 35.6135 0.447163C35.6737 0.521207 35.7678 0.541481 35.8487 0.580563C38.6504 1.93365 41.4521 3.28693 44.2575 4.63283C44.4288 4.71498 44.4833 4.80793 44.4827 4.98812C44.4762 6.93302 44.479 8.87796 44.4793 10.8229C44.479 23.5227 44.4788 36.2226 44.4787 48.9225C44.4787 48.9747 44.4803 49.0269 44.4812 49.0792C44.4803 51.0632 44.4771 53.0473 44.4827 55.0313C44.4831 55.1973 44.4289 55.2778 44.2754 55.3513C42.4414 56.2287 40.6119 57.115 38.7801 57.997C37.7158 58.5094 36.6497 59.0183 35.5844 59.5288Z" fill="#5293CE"/>
<path d="M6.73971 51.098C5.31975 50.4157 3.89975 49.7334 2.47979 49.0511C2.36958 48.9981 2.25941 48.9451 2.1492 48.8922C2.1492 36.2362 2.1492 23.5802 2.1492 10.9242C2.55202 10.737 2.95423 10.5487 3.35774 10.3629C4.48469 9.84398 5.61219 9.32606 6.73939 8.80778C6.82191 8.906 6.78912 9.02266 6.78915 9.13133C6.79081 13.6738 6.79059 18.2163 6.79059 22.7587C6.79059 32.0898 6.79074 41.4209 6.78897 50.752C6.78894 50.8679 6.82493 50.992 6.73971 51.098Z" fill="#205B98"/>
<path d="M15.5092 10.8258C15.5116 9.07371 15.5124 7.3216 15.518 5.5695C15.5189 5.29565 15.4117 4.96756 15.5604 4.76298C15.7013 4.56905 16.0291 4.49987 16.277 4.38021C18.906 3.1113 21.5355 1.84319 24.1651 0.575442C24.2336 0.542441 24.3055 0.516105 24.3758 0.486649C24.4238 0.542347 24.4273 0.609273 24.4274 0.677076C24.4275 0.744224 24.4278 0.811372 24.4278 0.87852C24.4278 20.2919 24.4279 39.7052 24.4261 59.1186C24.4261 59.2497 24.4634 59.3885 24.3756 59.5105C23.3462 59.0176 22.3159 58.5263 21.2874 58.0315C19.4229 57.1344 17.5604 56.2336 15.6939 55.3403C15.5549 55.2738 15.5122 55.1993 15.5126 55.0523C15.5183 53.1508 15.5164 51.2492 15.5161 49.3477C15.516 49.2583 15.512 49.1689 15.5098 49.0795C15.512 48.9676 15.516 48.8558 15.5161 48.7439C15.5163 36.2164 15.5163 23.6889 15.516 11.1614C15.516 11.0495 15.5116 10.9377 15.5092 10.8258Z" fill="#205B98"/>
<path d="M53.2193 51.1094C52.6703 51.0344 52.1408 50.876 51.6038 50.7509C49.2286 50.1976 46.8552 49.6371 44.4812 49.0792C44.4803 49.0269 44.4787 48.9747 44.4787 48.9225C44.4788 36.2226 44.479 23.5227 44.4792 10.8229C47.288 10.1631 50.0966 9.50294 52.9058 8.84497C53.008 8.82103 53.1086 8.77483 53.2193 8.79705C53.2143 8.90867 53.2049 9.02027 53.2049 9.13186C53.2042 23.0128 53.2042 36.8937 53.2049 50.7746C53.2049 50.8862 53.2143 50.9978 53.2193 51.1094Z" fill="#205B98"/>
<path d="M15.5092 10.8254C15.5116 10.9372 15.5161 11.0491 15.5161 11.1609C15.5164 23.6884 15.5164 36.2159 15.5161 48.7434C15.5161 48.8553 15.512 48.9672 15.5098 49.079C12.6812 49.7451 9.85268 50.412 7.02293 51.0737C6.93422 51.0944 6.84056 51.1704 6.7397 51.098C6.82495 50.992 6.78896 50.8678 6.78899 50.752C6.79076 41.4209 6.79061 32.0898 6.79061 22.7587C6.79061 18.2163 6.79083 13.6738 6.78917 9.13132C6.78914 9.02266 6.82193 8.90599 6.73941 8.80778C6.85677 8.74288 6.96436 8.817 7.06852 8.84135C9.88292 9.49933 12.696 10.1628 15.5092 10.8254Z" fill="#5293CE"/>
<path d="M53.2194 51.1094C53.2143 50.9978 53.2049 50.8862 53.2049 50.7746C53.2043 36.8937 53.2043 23.0128 53.2049 9.13186C53.2049 9.02027 53.2143 8.90867 53.2193 8.79705C53.9665 9.13717 54.7148 9.4752 55.4608 9.81806C56.1861 10.1515 56.906 10.4964 57.6354 10.8211C57.8054 10.8968 57.8496 10.9876 57.8495 11.1588C57.8449 17.0382 57.8457 22.9176 57.8457 28.797C57.8457 35.4076 57.8446 42.0182 57.8508 48.6288C57.851 48.8298 57.7888 48.9269 57.6019 49.0155C56.2148 49.6731 54.8345 50.3439 53.4516 51.0097C53.3759 51.0462 53.2968 51.0763 53.2194 51.1094Z" fill="#5293CE"/>
</svg>
