<?xml version="1.0" encoding="UTF-8"?>
<svg width="60px" height="60px" viewBox="0 0 60 60" version="1.1" xmlns="http://www.w3.org/2000/svg" xmlns:xlink="http://www.w3.org/1999/xlink">
    <!-- Generator: Sketch 46.2 (44496) - http://www.bohemiancoding.com/sketch -->
    <title>Page 1</title>
    <desc>Created with Sketch.</desc>
    <defs>
        <polygon id="path-1" points="0.372731215 0.413890909 31.5904047 0.413890909 31.5904047 41.9572565 0.372731215 41.9572565 0.372731215 0.413890909"></polygon>
    </defs>
    <g id="Page-1" stroke="none" stroke-width="1" fill="none" fill-rule="evenodd">
        <g transform="translate(2.000000, 2.000000)">
            <path d="M56,41.3613314 C55.9843945,41.4388674 55.9586455,41.5156203 55.9547441,41.5939395 C55.8798379,43.2574397 55.5053067,44.8465367 54.7484415,46.3346019 C54.1281242,47.5563817 53.285429,48.6152576 52.2960424,49.5558714 C50.2181744,51.5334317 47.7634344,52.8131678 44.9942443,53.5023769 C44.1983655,53.7005245 43.3900023,53.8297512 42.5753969,53.9135528 C41.7241186,54.0012703 40.868939,54.0192838 40.0161003,53.9809073 C37.6542128,53.8751764 35.3804962,53.352004 33.1840267,52.4834438 C32.7150824,52.2986105 32.2555014,52.0894982 31.7927993,51.8913505 C31.7413013,51.8694212 31.6937046,51.8404431 31.6203589,51.8028498 C32.7111811,50.9648342 33.7879583,50.1471815 34.7867082,49.2480769 C35.1620197,49.395317 35.5162638,49.5417739 35.8759698,49.6733502 C37.0034648,50.0860925 38.1613905,50.381356 39.3481863,50.564623 C40.3133844,50.7142127 41.2824839,50.7925319 42.2586059,50.756505 C43.931512,50.6954161 45.5396554,50.3547274 47.0455829,49.5942478 C48.6061297,48.8055733 49.8615895,47.6691614 50.8548775,46.2343533 C51.4790962,45.3313327 51.9956371,44.3734886 52.3116478,43.3161791 C52.5074964,42.6645632 52.6284388,41.999633 52.6791566,41.3198222 C52.8055609,39.6218615 52.4786263,38.0014369 51.8692328,36.4287869 C50.9539722,34.0713784 49.6056598,31.9927863 47.8555067,30.174214 C46.6172129,28.8889956 45.227546,27.7925265 43.7270803,26.8346825 C41.6273647,25.4946406 39.3973435,24.4349816 37.0175097,23.6979977 C35.8002833,23.3220654 34.5643303,23.0322843 33.3065296,22.8372695 C32.6214496,22.7307553 31.9355894,22.6344227 31.2427066,22.5976127 C30.5225143,22.558453 29.8015417,22.5200766 29.0797889,22.5044128 C28.6740467,22.4957977 28.266744,22.5341741 27.8610019,22.5451388 C27.7182119,22.5490547 27.6401845,22.6077942 27.5762021,22.7393704 C27.0744863,23.7669186 26.2825089,24.473358 25.1948078,24.8203121 C22.9140688,25.5478977 20.5139479,24.1138728 20.0715329,21.759597 C19.6595486,19.571358 21.0687223,17.4990314 23.2277387,17.0753244 C24.8491467,16.7573484 26.4494874,17.4637878 27.3397793,18.8602195 C27.464623,19.151567 27.6120947,19.1907266 27.8032617,19.1507838 C27.8703652,19.1374695 27.9405898,19.1382527 28.0092538,19.1382527 C28.834783,19.1492174 29.6603122,19.1484342 30.4850612,19.1774123 C31.0281314,19.1962089 31.5704214,19.2486828 32.1119311,19.3042895 C32.6752885,19.3614625 33.2370853,19.4335162 33.7988821,19.5118354 C34.6844924,19.6332302 35.5591788,19.8110148 36.4276231,20.0185607 C38.7177254,20.5636625 40.9149752,21.3617354 43.0100091,22.440191 C46.1272012,24.0441687 48.8417722,26.1658363 51.1498208,28.8138092 C52.0401127,29.8327422 52.8539378,30.9064987 53.5405784,32.0765879 C54.5135793,33.7338226 55.223628,35.496005 55.6301504,37.3780159 C55.7682588,38.0178839 55.8735957,38.6648007 55.9235332,39.3195493 C55.9375781,39.5020331 55.9414795,39.6860833 55.9555244,39.8693503 C55.9617666,39.9421871 55.9843945,40.0126744 56,40.0839449 L56,41.3613314 Z" id="Fill-1" fill="#9013FE"></path>
            <g id="Group-5" transform="translate(10.000000, 0.000000)">
                <mask id="mask-2" fill="white">
                    <use xlink:href="#path-1"></use>
                </mask>
                <g id="Clip-4"></g>
                <path d="M31.5746341,17.5990691 C31.5106341,17.5807418 31.457561,17.5669964 31.4044878,17.5494327 C30.3492683,17.1928145 29.2823415,16.8675055 28.1998049,16.5987055 C28.0788293,16.5689236 28.0343415,16.5162327 28.0187317,16.3986327 C27.9672195,15.9870327 27.9196098,15.5746691 27.843122,15.1676509 C27.5738537,13.7396509 27.1219512,12.3651055 26.5272195,11.0356145 C25.9754146,9.80310545 25.3041951,8.63779636 24.4620488,7.57099636 C23.7783415,6.70426909 22.9994146,5.93223273 22.0862439,5.29383273 C21.0154146,4.54546909 19.8353171,4.04681455 18.5350244,3.83834182 C17.8950244,3.73601455 17.2503415,3.70088727 16.5994146,3.75205091 C14.6653659,3.90401455 12.8437073,4.43016 11.1297561,5.31445091 C10.044878,5.87419636 9.06692683,6.57368727 8.26692683,7.49157818 C7.63707317,8.21397818 7.08682927,8.99441455 6.59278049,9.81226909 C5.45482927,11.6931055 4.69307317,13.7129236 4.26614634,15.8564509 C4.13112195,16.5330327 4.03121951,17.2141964 3.95785366,17.8999418 C3.82439024,19.1523055 3.79785366,20.4077236 3.83765854,21.6639055 C3.85560976,22.2236509 3.90946341,22.7826327 3.95941463,23.3408509 C4.09678049,24.8688873 4.3964878,26.3679055 4.82107317,27.8440145 C5.23160976,29.2720145 5.76078049,30.6572509 6.42731707,31.9890327 C6.76526829,32.6633236 7.13756098,33.3208145 7.50282927,33.9821236 C7.64643902,34.2402327 7.58790244,34.20816 7.88760976,34.1753236 C8.54634146,34.1027782 9.18478049,34.1814327 9.79043902,34.43496 C11.132878,34.9962327 11.9633171,35.9790327 12.2263415,37.3902327 C12.6087805,39.4421236 11.2327805,41.5039418 9.02321951,41.8911055 C6.67473171,42.3019418 4.77190244,40.7403055 4.39492683,38.8373236 C4.21229268,37.9194327 4.3324878,37.0397236 4.7875122,36.2134691 C4.85697561,36.0874691 4.85385366,35.99736 4.78204878,35.8767055 C3.936,34.4540509 3.20078049,32.9787055 2.57639024,31.4506691 C1.81853659,29.5980873 1.2355122,27.6951055 0.867902439,25.7317964 C0.732097561,25.0109236 0.64,24.2816509 0.543219512,23.5546691 C0.450341463,22.8536509 0.425365854,22.1472873 0.39102439,21.4416873 C0.355902439,20.7169964 0.375414634,19.9938327 0.415219512,19.2714327 C0.554926829,16.6979782 1.07629268,14.1978327 1.95512195,11.7671782 C2.44292683,10.41936 3.0462439,9.12728727 3.82360976,7.91539636 C5.12780488,5.88336 6.77229268,4.16899636 8.81639024,2.83263273 C10.3867317,1.80630545 12.0905366,1.08237818 13.9410732,0.698269091 C14.5748293,0.566923636 15.2140488,0.472232727 15.8626341,0.444741818 C16.257561,0.427178182 16.6532683,0.407323636 17.0481951,0.415723636 C18.0776585,0.438632727 19.0883902,0.595178182 20.0788293,0.876196364 C22.1955122,1.47565091 24.0343415,2.54932364 25.6429268,4.01245091 C26.944,5.19608727 28.001561,6.56528727 28.862439,8.08110545 C29.923122,9.94896 30.6411707,11.9412873 31.0782439,14.0298327 C31.2265366,14.73696 31.3397073,15.4517236 31.4481951,16.1664873 C31.5160976,16.6093964 31.5449756,17.0584145 31.5902439,17.5036145 C31.5918049,17.5295782 31.5816585,17.5563055 31.5746341,17.5990691" id="Fill-3" fill="#9013FE" mask="url(#mask-2)"></path>
            </g>
            <path d="M8.17764725,25 C8.2477243,25.3133308 8.31010057,25.5930045 8.37247685,25.8718769 C8.56961668,26.7541715 8.78985883,27.6300553 9.05245525,28.4939186 C9.11483152,28.7006689 9.11252129,28.6990662 8.95234518,28.8320915 C7.1472836,30.3346368 5.65102308,32.1144518 4.5259399,34.222022 C3.88754568,35.4176473 3.42626928,36.6845935 3.19216573,38.0348809 C3.10745721,38.5269144 3.0566321,39.0229547 3.04123055,39.5246045 C2.95883226,42.2676511 3.84750166,44.6621073 5.46312418,46.7857047 C6.31251962,47.902797 7.39832885,48.7241884 8.63507326,49.328412 C9.56224653,49.781179 10.5340843,50.0824894 11.5421157,50.2603907 C12.1666485,50.3717794 12.7950317,50.4543192 13.4280354,50.4711477 C14.0387068,50.4879763 14.6501483,50.5160238 15.2600497,50.4903803 C16.8941541,50.4206622 18.4912947,50.1145437 20.0530118,49.6088871 C21.3914065,49.176154 22.6712752,48.6007794 23.9072496,47.9172214 C25.3981195,47.0918232 26.8358542,46.1806798 28.1950409,45.1357096 C30.4305758,43.4151951 32.3580797,41.3869593 33.8959244,38.9692637 C34.3702921,38.2223985 34.806926,37.4514926 35.1973553,36.6541419 C35.2820638,36.4818501 35.2805237,36.4826514 35.155001,36.336003 C34.6043956,35.6957184 34.2655616,34.9544627 34.1616011,34.0978116 C33.9043952,31.98944 35.2281584,30.0854146 37.1287096,29.6062028 C39.2856966,29.0620811 41.4396032,30.4548404 41.9062702,32.7050522 C42.3937292,35.0506256 40.9244214,37.1894487 38.7859163,37.6101614 C38.4555531,37.6750714 38.5233199,37.6205791 38.3693044,37.9403207 C36.9007666,40.989486 35.0071462,43.7149028 32.6337674,46.0724965 C30.9519182,47.7441282 29.0891008,49.1609283 27.0522459,50.3325129 C24.8028497,51.6275066 22.4233103,52.5739098 19.9313396,53.2198039 C19.0372797,53.4513962 18.1385993,53.6597492 17.2252874,53.7919732 C16.7501496,53.8608899 16.2711614,53.9025605 15.7929433,53.9466352 C15.0251761,54.0171546 14.2550986,54.0091411 13.4865613,53.9722786 C12.9906314,53.9490392 12.4939314,53.8961497 12.0018519,53.8288356 C11.1886501,53.7190496 10.3869995,53.5451551 9.59767009,53.309556 C7.70712991,52.7445989 5.96521469,51.8743247 4.42582983,50.5873446 C2.92956932,49.3356242 1.82681839,47.7809907 1.09909518,45.934663 C0.659380947,44.8199747 0.355200348,43.6668213 0.175772298,42.4768055 C0.0263772698,41.4839235 -0.0205974556,40.4870348 0.0078954106,39.4853379 C0.0695016079,37.3288849 0.545409482,35.2718003 1.39249469,33.3060704 C2.39513555,30.9797296 3.83980088,28.9835481 5.59942789,27.2245684 C6.35564396,26.4688883 7.16037491,25.7725086 8.00360974,25.1258131 C8.0528947,25.0881493 8.10371981,25.0528896 8.17764725,25" id="Fill-6" fill="#9013FE"></path>
        </g>
    </g>
</svg>