<!DOCTYPE svg PUBLIC "-//W3C//DTD SVG 1.1//EN" "http://www.w3.org/Graphics/SVG/1.1/DTD/svg11.dtd" [
	<!ENTITY ns_flows "http://ns.adobe.com/Flows/1.0/">
]><svg xmlns="http://www.w3.org/2000/svg" width="60" height="60" viewBox="0 -19.6 60 60" overflow="visible"><path fill-rule="evenodd" clip-rule="evenodd" d="M42.7 32.5c2.9-.3 5.5-1.4 6.5-3.6.4-1 .6-2.2.1-3.4-1-2.6-4.9-3.7-7.9-4.8-5-1.7-10.4-4-10.4-10.6C31 3.9 35.6.3 42.3 0h1.8c3.7.3 6.8 1.1 9.9 2v.9c-.2.6 0 1.6-.1 2.4V6c-.2.6 0 1.6-.1 2.4 0 .8-.2 1.4-.1 2.2h-3.3c-.5-1.9-1.2-3.6-1.7-5.4-1.5-.4-3-.9-5-.8-.2-.2-1.1-.2-1.4 0-3.9-.1-7.4 3.1-5.4 6.8 1.1 2.2 4.6 3.5 7.5 4.5 4.9 1.7 9.7 3.2 10.4 9v2.2c-.9 6.4-5.4 9.2-11.9 9.9h-2.8c-3.2-.3-6.1-.9-8.7-1.8 0-.1-.2-.1-.4-.1 0-.1-.1-.1-.2-.1v-9c1.4.1 3-.1 4.2.1.2 1.9.7 3.4.9 5.3 1.3.6 2.8 1.1 4.6 1.2.6.3 1.7.3 2.2.1z"/><path fill-rule="evenodd" clip-rule="evenodd" fill="#1462CD" d="M30.9 33.2v1.7c.1 0 .2 0 .2.1-.1.4.1 1.1-.1 1.4h-7.7c-1.6-3.5-3.4-8-5.4-11.6-.7-1.2-1.3-2.6-2.4-3.2-1.4-.9-3.4-.8-5.6-.7-.2 3.6-.2 7.9 0 11.5 1.4.4 2.8.7 4.2 1v3c-4.6-.1-9.5.1-14-.1.1-1-.3-2.5.3-3 1.3-.3 2.6-.7 4-1V4.6C3 4.2 1.5 3.9 0 3.6V.7h.4C1.2.6 1.9.7 2.9.6h1c.8-.1 1.4 0 2.4 0 .3 0 .8-.1 1.1-.1h9.7c5.4.6 9.1 2.8 9.8 8V11c-.2 2.5-1.1 4.4-2.3 5.9-.3.3-.7.6-1 .9-.9.7-1.9 1.3-3.1 1.8 1.3 1.8 2.6 4 3.7 6.2 1.1 2.3 2.2 4.6 3.3 6.7 1.2.2 2.1.6 3.4.7-.1 0-.1 0 0 0zM9.8 16.9c3.8 0 7.7.2 9.6-1.7.4-.2.8-.6 1-1 1.6-1.6 1.5-5.6 0-7.2-.2-.4-.5-.7-.8-.9-1.8-2-6.1-1.4-9.8-1.5-.1 3.9-.1 8.4 0 12.3z"/></svg>