<svg width="42" height="56" viewBox="0 0 42 56" fill="none" xmlns="http://www.w3.org/2000/svg">
<path d="M34.2157 0.00333786C31.9261 -0.0458185 29.2038 0.448273 26.1202 1.46518C25.6576 1.62742 25.2919 1.8837 24.9626 2.20797C21.8262 5.15227 18.7752 8.27359 15.8912 11.5006L15.6699 11.7456C15.6086 11.815 15.6011 11.9183 15.6462 11.9985C15.693 12.0796 15.7842 12.1214 15.8754 12.1012L16.1994 12.0341C20.8471 11.0405 25.5396 10.2777 30.1423 9.7741C30.4453 9.74072 30.7579 9.84449 30.9839 10.0507C31.2099 10.2589 31.3416 10.556 31.3355 10.8646C31.2594 15.4328 31.4225 20.0236 31.8294 24.5112L31.8571 24.8036C31.8672 24.8932 31.9289 24.9654 32.0191 24.9893C32.0353 24.9933 32.0503 24.9974 32.0705 24.9974C32.1385 24.9984 32.2068 24.9662 32.2483 24.9065L32.4182 24.6655C35.0114 20.9652 37.8345 17.3682 40.8022 13.9663C41.1346 13.5878 41.2219 13.3498 41.2842 13.0062C42.2185 7.02642 40.7765 2.60397 39.4865 1.48523C38.3662 0.513916 36.7407 0.0578346 34.2159 0.00360084L34.2157 0.00333786ZM27.0961 12.117L26.8116 12.1564C22.3711 12.768 17.8758 13.6152 13.4494 14.6732C13.0107 14.7958 12.729 15.0809 12.6672 15.1473C9.3545 19.1146 6.21687 23.2902 3.33894 27.5691C3.19512 27.7855 3.18095 28.304 3.18095 28.304C3.18095 28.304 3.90297 33.8778 4.9589 37.9839C2.34241 45.5086 0.0083278 55.4234 0.0083278 55.4234C-0.00987824 55.4878 0.00226339 55.5549 0.0398892 55.6091C0.0793356 55.6634 0.141842 55.6979 0.209812 55.7H1.69933C1.79359 55.7015 1.87573 55.6443 1.90874 55.5578L2.0115 55.2772C3.53152 51.1311 5.26411 47.0381 7.17934 43.049C7.62523 42.1198 8.56613 40.2438 8.56613 40.2438C8.72068 39.9393 9.4426 38.5547 9.60524 38.2446L9.63295 38.1894C14.4555 29.092 20.3345 20.5111 27.1002 12.6859L27.2859 12.4726C27.3431 12.4046 27.355 12.3061 27.3136 12.2276C27.2691 12.1485 27.1825 12.1052 27.0963 12.117L27.0961 12.117ZM29.1427 13.8317C29.0591 13.8003 28.9629 13.8216 28.9056 13.891L28.7199 14.1083C20.831 23.232 14.2009 33.3587 9.01253 44.2067L8.88994 44.4596C8.8505 44.5397 8.86567 44.6362 8.92555 44.7006C8.96661 44.7431 9.02083 44.7671 9.0797 44.7677C9.10599 44.7688 9.13977 44.7637 9.16668 44.7516L9.42743 44.6409C13.8583 42.8052 18.3847 41.2147 22.8804 39.9156C23.1495 39.8375 23.3736 39.6507 23.5007 39.4019C25.4717 35.5608 30.0475 28.1259 30.0475 28.1259C30.1651 27.9582 30.1383 27.7071 30.1383 27.7071C30.1383 27.7071 29.3346 18.8141 29.2849 14.3133L29.2809 14.0288C29.2768 13.9396 29.2247 13.8612 29.1425 13.8312L29.1427 13.8317ZM17.4439 43.697L17.0764 43.8235C14.6946 44.6149 11.1707 45.8314 8.00897 47.2845C7.83965 47.364 7.72847 47.5848 7.72847 47.5848C7.6696 47.7201 7.59818 47.8892 7.5151 48.0787L7.50297 48.1023C7.1488 48.9085 6.65731 50.1216 6.44806 50.6151L6.28604 51.0063C6.26075 51.0682 6.27593 51.1374 6.32549 51.1841C6.35482 51.212 6.38859 51.226 6.43209 51.2276C6.45434 51.2276 6.47983 51.2236 6.5033 51.2114L6.88652 51.0298C7.75143 50.6183 8.8478 49.9951 9.99593 49.4494L10.0354 49.4291C12.2187 48.3935 14.6827 47.2246 16.1673 46.5173C16.1673 46.5163 16.4062 46.3884 16.5268 46.1498L17.6371 43.9215C17.6664 43.8632 17.6579 43.7934 17.6168 43.7437C17.5717 43.6951 17.5048 43.6759 17.4431 43.6963L17.4439 43.697Z" fill="black"/>
</svg>
