<svg xmlns="http://www.w3.org/2000/svg" width="60" height="60" viewBox="0 0 60 60"><g fill-rule="evenodd" clip-rule="evenodd"><path fill="#37424D" d="M57.53 39.276c0 6.658-.007 13.316.01 19.975.004.558-.105.75-.71.744a230.903 230.903 0 0 0-7.444 0c-.66.013-.808-.173-.806-.814.02-10.566.016-21.132.016-31.697 0-.172-.015-.345 0-.515.037-.448-.138-.48-.52-.337-1.65.62-3.312 1.214-4.972 1.815-6.31 2.298-12.593 4.66-18.867 7.054-6.208 2.37-10.102 6.765-11.954 13.044-1.054 3.57-1.98 7.18-2.945 10.78-.123.458-.26.678-.813.67-2.653-.038-5.307-.015-7.96-.015-.313 0-.686.08-.526-.467C1.675 53.89 2.76 48.108 4.91 42.64c1.965-5.004 4.96-9.236 9.556-12.2 2.7-1.74 5.668-2.898 8.636-4.06 9.608-3.764 19.35-7.158 29.03-10.725.784-.29 1.588-.504 2.44-.492 1.31.018 2.106.566 2.543 1.823.378 1.083.415 2.214.415 3.346v18.946z"/><path fill="#1BB1C6" d="M46.06 30.112v.778c0 9.422-.004 18.846.013 28.268 0 .61-.1.85-.788.837-2.7-.047-5.4-.03-8.102-.008-.535.003-.76-.074-.76-.704.024-8.37.02-16.742.013-25.114 0-.364.014-.627.453-.783 2.93-1.042 5.846-2.118 8.77-3.18.107-.04.223-.056.4-.096z"/><path fill="#B8D138" d="M33.935 34.578c0 2.034.002 3.997 0 5.96-.002 6.216-.015 12.427.005 18.64.004.643-.147.828-.807.816a279.42 279.42 0 0 0-7.66-.005c-.544.003-.705-.134-.704-.694.02-6.876.01-13.753.01-20.627 0-.346-.036-.65.413-.82 2.823-1.06 5.632-2.155 8.448-3.235.064-.026.14-.018.294-.038z"/><path fill="#EB9640" d="M22.27 49.66c0 3.194-.01 6.39.012 9.582.004.552-.1.767-.718.758a545.794 545.794 0 0 0-9.138-.01c-.528.004-.698-.105-.54-.662.988-3.486 1.728-7.047 2.9-10.48 1.27-3.72 3.196-7.01 6.67-9.145.22-.134.45-.438.702-.297.254.14.106.495.107.75.01 3.167.006 6.335.006 9.505z"/></g></svg>