<svg width="56" height="57" viewBox="0 0 56 57" fill="none" xmlns="http://www.w3.org/2000/svg">
<path fill-rule="evenodd" clip-rule="evenodd" d="M28.8797 0.863277C29.9795 1.78079 30.379 3.39852 31.3293 4.46571C30.495 5.8889 29.5296 7.18087 28.4474 8.35621C16.7082 8.88376 8.53587 16.351 7.84191 27.5207C7.61231 31.2179 8.50795 33.8743 9.42698 36.7428C8.07605 36.2205 6.47254 35.9507 5.10418 35.4459C3.90515 36.2642 3.22288 37.5992 2.36635 38.7601C1.11541 36.1023 0.530105 33.75 0.34898 30.8349C-0.638285 14.9399 10.9466 1.94912 25.7096 0.863277C26.823 0.781333 27.9376 0.926877 28.8797 0.863277Z" fill="#0C88C4"/>
<path fill-rule="evenodd" clip-rule="evenodd" d="M30.7528 1.00742C47.8311 2.33828 61.3473 20.2344 53.8079 39.4804C52.354 39.4675 51.1496 39.7042 49.7732 39.7686C48.654 38.6785 48.2407 36.8822 47.3236 35.5899C51.5453 21.6582 42.7958 9.76489 30.1765 8.50015C30.8909 7.10134 31.9226 6.01964 32.9142 4.89781C32.2548 3.54014 31.3335 2.44412 30.7528 1.00742Z" fill="#0C88C4"/>
<path fill-rule="evenodd" clip-rule="evenodd" d="M42.8567 24.3506C38.0653 31.511 32.8855 37.4334 28.0151 43.9474C24.5938 40.1932 21.475 36.2239 18.2167 32.1317C16.3803 29.8253 14.6906 27.5999 12.671 24.6421C14.97 21.8498 18.0921 19.2307 20.5221 16.5694C23.0485 16.5694 25.3991 16.5694 27.8709 16.5694C30.2267 16.5694 30.2267 16.5694 35.2197 16.5694C35.2197 16.5694 38.1083 19.458 39.1104 20.46C40.482 21.8318 39.1104 20.46 42.8567 24.3506Z" fill="#CE2030"/>
<path fill-rule="evenodd" clip-rule="evenodd" d="M5.39234 36.8867C6.93851 37.3098 8.45665 37.7611 10.1474 38.0396C13.4478 43.7896 18.5811 48.4763 26.8623 48.9906C36.8363 49.6102 43.3521 43.8152 46.6031 37.0308C47.4773 38.1739 47.9607 39.7079 48.6204 41.0655C50.2114 41.0233 51.6064 40.7854 53.2314 40.7774C48.2969 49.7701 40.1598 57.2519 26.286 56.4836C14.3302 55.8214 7.36768 48.6572 2.79865 40.3451C3.52627 39.0553 4.39127 37.9031 5.39234 36.8867Z" fill="#0C88C4"/>
</svg>
