<!DOCTYPE svg PUBLIC "-//W3C//DTD SVG 1.1//EN" "http://www.w3.org/Graphics/SVG/1.1/DTD/svg11.dtd" [
	<!ENTITY ns_flows "http://ns.adobe.com/Flows/1.0/">
]><svg xmlns="http://www.w3.org/2000/svg" width="60" height="60" viewBox="0 -12.333 60 60" overflow="visible"><path fill-rule="evenodd" clip-rule="evenodd" fill="#0090D8" d="M55.897 9.128c-1.893-1.583-4.81-2.84-8.372-2.104C45.91 3.084 42.988.45 37.88 0h-.793c-4.935.397-7.713 2.948-9.484 6.508-1.967-1.146-5.316-1.11-7.46-.277-2.17.846-3.76 2.377-4.84 4.168-5.044-.95-8.844 1.01-11.35 3.293-2.456 2.237-4.435 6.283-3.85 11.073.52 4.24 2.877 7.32 5.874 9.245 1.46.938 3.457 1.74 5.635 1.945 2.352.22 4.516-.21 6.39-1.032 1.52 2.54 3.89 4.668 7.42 5.28 4.124.712 7.245-1.057 9.364-3.057 1.925 2.467 4.576 4.206 8.65 4.523h.992c4.19-.33 7.135-2.26 9.048-5 1.77-2.536 2.883-7.504 1.07-11.07 2.623-1.798 4.647-4.19 4.962-8.295v-.91c-.23-3.265-1.63-5.606-3.61-7.26zM16.905 26.385a34.32 34.32 0 0 1 .88-2.42c1.598.71 3.99 2.303 6.38 1.54.715-.23 1.3-.87 1.21-1.76-.14-1.388-2.225-1.66-3.63-2.092-2.133-.655-4.33-1.715-4.4-4.29-.14-4.98 7.072-6.034 10.78-3.3-.15.874-.53 1.522-.77 2.31-1.215-.273-2.292-.957-3.63-1.1-1.687-.18-3.226.15-3.19 1.54.032 1.37 2.22 1.874 3.52 2.31 2.198.74 4.327 1.512 4.51 4.07.416 5.795-8.18 6.205-11.66 3.192zM41.013 9.442c-2.85-.966-4.457.88-4.51 3.41.88.257 2.235.04 3.3.11.053 1.007-.287 1.62-.33 2.53-.94.234-2.293.054-3.41.11-.605 2.755-1.143 6.257-1.76 9.792-.563 3.215-1.105 6.865-3.08 8.36-1.147.868-4.19 1.532-6.052.44-.047-.69.516-1.673.773-2.42 4.81 1.51 4.722-4.007 5.39-7.812.572-3.256 1.127-6.182 1.54-8.36-.78-.062-1.816.13-2.42-.11.043-.947.233-1.748.44-2.53h2.31c.346-4.39 3.663-7.766 8.692-6.05-.15.987-.512 1.762-.88 2.53z"/></svg>