<svg xmlns="http://www.w3.org/2000/svg" width="60" height="60" viewBox="0 0 60 60"><path fill-rule="evenodd" clip-rule="evenodd" fill="#4A63A9" d="M34.85 50.453l-.043-.153c.012-.397.1-.81-.21-1.146-.043-.08-.085-.158-.126-.238.05-.15-.013-.26-.134-.346-.01-.208-.018-.417-.025-.625.68-.305.21-.816.295-1.256-.432.086-.155.675-.606.674l-.083-.39a1.06 1.06 0 0 0-.003-.71l.068-.42c.12-.38.51-.7.347-1.193-.375.163-.32.56-.585.718l-.23-.473.016-.435c.02-.09.04-.182.063-.273.028-.095.06-.19.09-.282.032-.113.066-.226.102-.34.312-.35.13-.77.142-1.157.002-.084-.142-.06-.196.038l-.257.092c-.253-.143-.043-.39-.127-.57l.404-.69c.085-.02.178-.057.133-.16-.03-.068-.104-.042-.147.02-.622-.3-.514-.793-.344-1.303.13-.186.432-.252.4-.572-.267-.084-.47.312-.738.095-.143-.258.045-.745-.51-.725-.04.002-.14-.172-.115-.222.276-.614-.267-1.1-.223-1.73-.464.267-.748.383-.906-.31-.086-.386-.81-.59-1.184-.48-.537.156-.783-.107-1.08-.375-.29-.262-.56-.445-.985-.287-.28.103-.59.042-.885-.043-.242-.07-.57-.49-.674.143-.002.025-.14.068-.18.045-.504-.31-1.153-.052-1.643-.432-.268-.205-.52-.347-.77.088-.17.3-.396 0-.465-.122-.284-.496-.765-.486-1.216-.514-.898-.056-.898-.04-1.74-.89-.047-.046-.11-.077-.237-.166-.13.693-.43.66-.92.302-.268-.19-.66.21-1.07-.083-.47-.336-.56.39-.88.51-.637.247-.445 1.15-1.123 1.36-.037.013.082.425.073.65-.01.29.08.703-.494.51-.353-.12-.364.235-.36.416.005.414-.214.75-.29 1.133-.023.11-.07.278-.144.305-.804.28-.677 1.073-.943 1.65-.1.214-.173.566-.484.492-.27-.063-.145-.394-.186-.61-.01-.06-.044-.116-.068-.177-.266.058-.283.297-.384.467-.31.52-.475 1.172-1.216 1.308-.098.02-.154.216-.25.31-.34.336-.528.938-1.224.654-.134-.055-.14.227-.228.34-.204.266-.215.823-.797.5-.04-.022-.163.074-.223.137-.785.82-1.58 1.646-1.7 2.854a19.44 19.44 0 0 0-.05 2.835c.015.345.09.564.49.597.195.017.394.126.566.233.194.122.247.326.186.55-.064.234-.253.236-.442.236-.74 0-1.48-.027-2.218.01-.458.02-.545-.17-.51-.57.124-1.494.23-2.99.342-4.484l.074-1.035c-.972.09-1.5.907-2.256 1.254-.97.446-1.236 1.21-1.453 2.08-.09.356-.05.73.024 1.1.092.464.255.82.806.88.345.035.65.243.622.622-.034.46-.442.304-.713.312-.58.018-1.157-.002-1.733.01-.276.003-.4-.064-.418-.384-.097-1.543-.4-3.06-.615-4.588-.02-.134-.06-.29-.013-.404.297-.704.45-1.48.956-2.08.16-.194.44-.1.67-.214-.082-.15-.565-.205-.15-.478.23-.15.474-.282.715-.418.77-.432 1.37-.976 1.42-1.943.01-.163.127-.405.26-.465.638-.29.498-1.074.97-1.456.083-.065.1-.167.028-.242-.432-.446-.07-.823.198-1.06.54-.48.486-1.204.852-1.74.062-.09.134-.23.007-.305-.408-.243-.235-.55-.094-.833.33-.668.6-1.32-.154-1.897-.025-.02-.03-.103-.01-.128.434-.555.04-1.367.59-1.884.065-.062.11-.142.166-.212-.73-.38-.184-.728.025-1.084.01-.017.016-.052.005-.064-.715-.845.26-1.304.462-1.933.072-.224-.024-.303-.125-.4-.524-.504-.938-1.063-1.066-1.808a.792.792 0 0 0-.294-.456c-1.31-.944-1.58-2.41-1.826-3.827-.312-1.786-.03-3.54.724-5.203a2.64 2.64 0 0 1 .235-.423c.222-.317.426-.73.9-.616.51.12.54.583.54 1.005 0 .92-.14 1.837-.047 2.763.125 1.25.313 2.473.995 3.562.963 1.536 2.38 2.168 4.16 2.106.41-.014.67-.247.83-.53.198-.352.466-.483.823-.52.82-.085 1.605-.26 2.262-.807.07-.06.242-.064.332-.02.545.26 1.08.055 1.616-.016a3.85 3.85 0 0 1 1.905.206c.215.082.44.17.666.182 1.867.09 3.734.238 5.6.212.922-.012 1.852-.23 2.784-.32a41.55 41.55 0 0 1 1.965-.138c.432-.022.956-.205 1.406-.39.3-.124.563-.17.86-.08.064.02.166.078.188.056.743-.734 1.797-.823 2.666-1.293.02-.01.043-.02.06-.035.785-.782 1.252-1.006 2.372-1.185.11-.018.66.185.244-.305.152-.097.295-.255.457-.28.64-.092 1.112-.576 1.735-.692a.498.498 0 0 0 .176-.076c-.225-.745.538-.585.765-.878.31-.4.66-.435 1.074-.574.54-.18 1.007-.59 1.592-.72a.124.124 0 0 0 .053-.04c.32-.426 1.052-.91 1.652-1.06.358-.09.69-.112.77-.622.05-.332.51-.336.79-.48.28-.147.614-.198.83-.464h1.662c.11.245.374.245.573.322.96.375 1.932.718 2.897 1.077.406.15.812.366.71.87-.145.743.278 1.07.81 1.41 1.01.64 2.123 1.06 3.186 1.585v.692c-.333.44-.402 1.154-1.188 1.12-.313-.014-.63-.002-1-.002.178.317.48.33.706.458.15.087.4.084.404.317.004.204-.197.302-.34.41-.312.23-.68.268-1.052.287a7.913 7.913 0 0 0-1.916.322c-.847.253-1.764.77-2.786.373-.154-.06-.854.416-1.02.892-.245.694-.806.82-1.396 1.078-.404.176-1.018.315-1.204.752-.312.737-1.077 1.058-1.403 1.85-.236.572-.448 1.266-.817 1.74-.407.522-.488 1.07-.67 1.628-.03.085-.075.184-.146.232-.796.564-1.405 1.304-1.974 2.082-.05.068-.15.106-.23.145-.81.37-.928 1.355-.223 1.868.318.23.623.482.96.68.598.348.833.795.636 1.498-.203.72-.4 1.293-1.313 1.45-1.247.218-2.396.81-3.586 1.248-.24.09-.288.245-.314.47-.04.336-.183.57-.643.352.09.38.19.705.232 1.037.042.324.18.68-.21.936-.213.14-.057.386-.057.584-.002.713-.243 1.44.15 2.133.066.116.044.353-.033.47-.628.947-.243 2.018-.39 3.02-.05.34.11.518.436.583.366.072.718.2 1.014.426.405.31.574.673.116 1.088-1.114-.017-2.23-.032-3.343-.047zm16.37-33.13c-.31.027-.48.102-.525.502-.05.47.21.98-.164 1.426-.072.09-.033.358.18.374.2.014.214-.19.266-.343.217-.64-.065-1.337.24-1.963l.063-.257.025.007-.083.256zm-2.95 3.207c.458.3.802.635 1.21.763.382.118.83.492 1.225.137.33-.297.408-.756.36-1.21-.023-.248-.167-.362-.41-.368-.32-.008-.188.21-.208.377-.068.597-.438.832-.942.537-.365-.213-.726-.243-1.235-.238zM36.85 37.188c.547-.234.997-.454 1.467-.62.322-.115.315-.246.062-.393-.526-.305-1.067-.58-1.65-.895-.104.693.1 1.262.12 1.908z"/></svg>