<svg xmlns="http://www.w3.org/2000/svg" width="60" height="60" viewBox="0 0 60 60"><path fill="#173C8F" d="M38.915 38.986h-1.003V36.26c-.274.31-.415.442-.524.597-1.775 2.527-5.91 3.378-8.534 1.734-1.51-.944-1.732-2.44-1.613-4.037.12-1.595.99-2.728 2.474-3.194 1.253-.395 2.59-.528 3.896-.74.728-.12 1.476-.135 2.206-.25 1.94-.316 2.77-1.795 1.946-3.615-.27-.594-.77-1.166-1.306-1.545-1.528-1.075-4.305-.96-5.815.142-1.04.76-1.483 1.848-1.626 3.13h-.894c-.283-1.897 1.012-3.88 2.96-4.497 1.755-.556 3.532-.55 5.294-.033 1.653.485 2.58 1.578 2.605 3.294.05 3.837.01 7.673.005 11.51-.003.05-.03.098-.07.23zm-1.08-8.124c-1.378.196-2.755.365-4.122.595-1.182.195-2.383.354-3.514.72-1.257.403-1.9 1.394-1.96 2.743-.06 1.365.49 2.385 1.683 3.03 1.262.69 2.62.686 3.958.357 3.545-.867 4.513-4.135 3.955-7.445zM26.02 34.047c-.267 3.08-2.692 5.23-5.996 5.34-3.958.13-6.72-2.4-7.016-6.458-.164-2.263.09-4.45 1.31-6.43 1.38-2.242 3.46-3.082 6.012-2.876 2.463.198 4.29 1.404 5.164 3.726.434 1.148.523 2.427.748 3.65.1.556-.25.6-.697.597-3.53-.013-7.06-.01-10.59-.006-.998 0-1.07.05-.902 1.06.137.825.29 1.67.6 2.44.933 2.305 2.908 3.534 5.294 3.404 2.455-.137 4.222-1.49 4.937-3.89.21-.717.604-.677 1.135-.556zm-6.414-3.308h3.6c2.202 0 2.335-.196 1.6-2.33-1.34-3.897-5.667-5.22-8.587-2.597-1.204 1.08-1.82 2.492-2.137 4.063-.13.65.016.886.696.872 1.606-.034 3.214-.01 4.825-.01zM0 34.106h.972c.048.18.095.32.123.47.36 1.96 1.508 3.218 3.43 3.71 1.635.415 3.25.273 4.774-.487 1.047-.523 1.623-1.388 1.62-2.58-.005-1.203-.597-2.106-1.688-2.51-1.19-.444-2.453-.684-3.68-1.03-.982-.276-1.987-.503-2.923-.89C1.143 30.174.49 28.97.52 27.373c.03-1.557.788-2.63 2.213-3.186 2.08-.812 4.204-.864 6.288-.028 1.64.66 2.574 2.302 2.417 4.094-.13.022-.272.056-.417.067-.15.013-.3.004-.473.004-.046-.116-.104-.204-.113-.298-.243-2.11-1.468-3.39-3.587-3.465a11.786 11.786 0 0 0-3.453.42c-1.107.3-1.795 1.164-1.838 2.385-.045 1.23.603 2.108 1.694 2.484 1.44.5 2.957.774 4.428 1.194.854.245 1.737.48 2.51.902 2.115 1.15 2.405 4.475.586 6.055-2.176 1.89-7.063 1.835-9.17-.11C.53 36.9.08 35.635 0 34.106zM48.088 34.11c.174-.022.294-.056.417-.052.176 0 .35.028.505.044.044.073.088.116.094.162.373 3.136 3.176 4.86 6.912 4.02a5.873 5.873 0 0 0 1.5-.56c.977-.528 1.486-1.372 1.492-2.5.003-1.112-.485-2.003-1.483-2.4-1.225-.485-2.533-.757-3.804-1.13-1.05-.31-2.136-.54-3.136-.977-1.487-.646-2.02-1.913-1.95-3.5.07-1.48.81-2.47 2.13-2.997 2.125-.847 4.3-.927 6.426-.02a3.886 3.886 0 0 1 2.332 4.044c-.6.19-.948.16-1.045-.65-.16-1.35-.963-2.307-2.256-2.758-1.55-.542-3.12-.495-4.657.08-1.148.43-1.91 1.246-1.92 2.514-.015 1.237.69 2.114 1.828 2.483 1.405.456 2.864.744 4.29 1.13.715.194 1.428.405 2.11.68 1.448.58 2.108 1.74 2.185 3.237.07 1.492-.44 2.787-1.812 3.47-2.545 1.272-5.18 1.413-7.734.042-1.65-.883-2.31-2.445-2.42-4.36zM48.148 24.786c-.595.085-1.213.112-1.795.265-2.212.585-3.938 2.79-3.965 5.085-.03 2.66-.013 5.323-.016 7.982v.87h-.98v-14.98c.29-.015.56-.028.983-.047v3.024c.198-.137.3-.17.336-.24 1.024-1.86 2.708-2.638 4.714-2.867.826-.095.883-.005.725.91z"/><text transform="translate(0 50.078)" fill="#173C8F" font-family="'OpenSans'" font-size="7.094">DEVELOPER</text></svg>