<svg width="60" height="60" viewBox="0 0 60 60" fill="none" xmlns="http://www.w3.org/2000/svg">
<path d="M32.7925 53.5257C32.7925 51.7405 32.8252 49.9544 32.7775 48.1705C32.7563 47.3809 32.9472 47.1337 33.8127 47.0055C38.6241 46.2927 41.7855 43.3357 42.7166 38.8509C43.8613 33.3369 39.9718 27.7369 34.3675 27.0439C33.002 26.8751 32.7284 26.4147 32.7625 25.1553C32.852 21.8578 32.8409 18.5552 32.7654 15.257C32.7401 14.1501 33.0976 13.909 34.1347 13.9695C44.1986 14.5565 52.877 21.649 55.2143 31.8357C58.143 44.5994 49.8599 57.155 36.9729 59.5914C32.7939 60.3814 32.7938 60.3814 32.7925 56.2846C32.7923 55.3649 32.7925 54.4453 32.7925 53.5257Z" fill="#212322"/>
<path d="M27.2532 6.45766C27.2533 8.02581 27.1831 9.59814 27.2762 11.1607C27.3464 12.3374 27.027 12.8388 25.762 13.0181C21.2716 13.6544 18.0937 16.701 17.2604 20.9641C16.4244 25.2405 18.3304 29.4577 22.1597 31.7511C23.3351 32.455 24.6303 32.8515 25.9925 32.9579C26.8919 33.0282 27.3 33.3115 27.2793 34.3369C27.2095 37.7963 27.2168 41.2585 27.2755 44.7183C27.2929 45.7403 27.0019 45.9666 25.9863 45.9246C13.697 45.4168 3.83572 34.7961 4.20639 22.4092C4.55185 10.8665 12.9611 1.62787 24.509 0.112711C24.9361 0.056659 25.3785 0.107864 25.8029 0.0403713C26.9192 -0.137166 27.341 0.261036 27.2765 1.43007C27.1843 3.10128 27.2531 4.78136 27.2532 6.45766Z" fill="#FCC805"/>
</svg>
