<!DOCTYPE svg PUBLIC "-//W3C//DTD SVG 1.1//EN" "http://www.w3.org/Graphics/SVG/1.1/DTD/svg11.dtd" [
	<!ENTITY ns_flows "http://ns.adobe.com/Flows/1.0/">
]><svg xmlns="http://www.w3.org/2000/svg" width="60" height="60" viewBox="0 -4.052 60 60" overflow="visible"><path fill-rule="evenodd" clip-rule="evenodd" fill="#00B8EC" d="M0 14.39C.978 6.204 6.272.836 14.68 0h1.9c2.393.085 4.044.656 5.77 1.46.51.237 1.158.743 1.607.803.985.133 1.967-.44 3.214-.292.37.123 1.24.123 1.61 0 7.486.355 12.563 3.116 16.724 6.794.53.59 1.09 1.15 1.68 1.68 3.75 4.262 6.57 9.45 6.794 17.237-.122.08-.122.653 0 .73.158 1.37-.415 2.457-.292 3.508.06.503.55 1.14.803 1.68.786 1.692 1.39 3.427 1.46 5.916v1.533c-.904 8.732-5.937 13.783-14.535 14.9H39.15c-2.312-.153-3.917-.63-5.697-1.46-.495-.23-1.086-.748-1.534-.804-.895-.11-1.8.427-2.923.292-.512-.122-1.533-.122-2.045 0-7.497-.392-12.548-3.23-16.726-6.938a13.27 13.27 0 0 0-1.315-1.315c-3.677-4.11-6.473-9.105-6.937-16.433.12-.15.12-.8 0-.95-.1-.32-.034-.465 0-.805.12-.102.12-.702 0-.803.08-.918.095-1.9.292-2.702C1.17 22.01.165 19.9 0 16.947V14.39zm17.237 11.83c2.47 2.14 6.096 3.004 10.152 3.946 2.986.692 6.93 1.322 7.302 4.455v1.024c-.497 4.71-9.323 5.308-12.27 2.41-1.563-1.534-1.935-4.823-3.945-5.624-1.977-.787-4.1.476-4.455 2.19-.547 2.64 1.556 5.246 2.92 6.574 1.688 1.64 3.587 2.642 6.43 3.213 5.868 1.18 12.182-.003 15.484-2.994.273-.214.517-.457.73-.73 1.992-2.044 2.88-5.864 2.045-8.91-1.29-4.72-6.58-6.162-11.394-7.305-2.904-.69-8.606-1.373-8.838-4.528-.2-2.71 2.48-3.542 4.893-3.872h2.338c2.77.17 3.91 1.45 5.04 3.287.713 1.162 1.228 2.404 2.483 2.775 1.978.585 3.73-.523 4.164-2.118.422-1.56-.39-3.317-1.023-4.236-1.88-2.727-5.625-4.253-10.225-4.602-4.534-.344-9.208.895-11.686 3.068a4.168 4.168 0 0 0-.73.73c-2.488 2.13-2.647 8.275-.147 10.518.216.274.46.518.733.73z"/></svg>