<!DOCTYPE svg PUBLIC "-//W3C//DTD SVG 1.1//EN" "http://www.w3.org/Graphics/SVG/1.1/DTD/svg11.dtd" [
	<!ENTITY ns_flows "http://ns.adobe.com/Flows/1.0/">
]><svg xmlns="http://www.w3.org/2000/svg" width="60" height="60" viewBox="0 -6 60 60" overflow="visible"><path fill-rule="evenodd" clip-rule="evenodd" fill="#5D3959" d="M26.473 37.125c-3.062-.172-5.54-.928-7.172-2.53.314-1.342.967-2.34 1.584-3.376 1.62.88 3.442 2.25 5.8 2.213 1.54-.022 3.05-.642 3.06-2.004.01-1.56-1.98-1.957-3.27-2.216-2.612-.523-5.15-.98-6.328-2.848-1.4-2.217-.745-5.69.844-7.277 3.075-3.077 9.637-2.17 12.76 0-.354 1.332-.803 2.57-1.58 3.48-1.397-1.107-8.04-2.99-8.017.526.018 2.615 5.52 1.907 8.016 3.375 1.286.758 2.145 1.858 2.32 3.903v1.055c-.354 3.866-2.93 5.51-6.963 5.694h-1.055z"/><path fill-rule="evenodd" clip-rule="evenodd" fill="#5CC49E" d="M34.488 30.375c.103.003.082.13.105.21v.845h-.105v-1.055z"/><path fill-rule="evenodd" clip-rule="evenodd" fill="#FFF" d="M34.594 30.586c.26.065.05 1.727 0 .844v-.844z"/><path fill-rule="evenodd" clip-rule="evenodd" fill="#D70A00" d="M54 31.64v12.974c-.324 4.105-2.233 6.626-5.062 8.227a79.507 79.507 0 0 0-1.793-5.27c-1.214-4.2-2.783-8.046-4.008-12.235 3.54-1.314 7.278-2.427 10.863-3.693z"/><path fill-rule="evenodd" clip-rule="evenodd" fill="#5CC49E" d="M26.473 37.23v-.105h1.055v.105h-1.055z"/><path fill-rule="evenodd" clip-rule="evenodd" fill="#FFF" d="M27.527 37.23c1.417.152-2.47.152-1.055 0h1.055z"/><path fill-rule="evenodd" clip-rule="evenodd" fill="#5D3959" d="M1.37 49.254c5.898-1.838 11.586-3.884 17.403-5.8.486 1.27.846 2.668 1.37 3.9.7 2.256 1.482 4.426 2.216 6.646H9.384c-3.932-.32-6.445-2.062-8.015-4.746z"/><path fill-rule="evenodd" clip-rule="evenodd" fill="#F5F3F1" d="M34.805 10.97c2.748 8.115 5.524 16.2 8.227 24.362-8.09 2.704-16.11 5.475-24.258 8.12-.175-.352-.247-.807-.422-1.16.018-.12-.023-.187-.105-.21-.19-.827-.54-1.5-.738-2.32.02-.09-.043-.1-.107-.105.087-.3-.15-.273-.105-.527.02-.09-.042-.1-.106-.105.087-.3-.15-.273-.105-.527.02-.09-.042-.1-.106-.105.03-.38-.194-.51-.21-.844.02-.09-.04-.1-.105-.107-.17-.85-.48-1.56-.738-2.32-.08-.27-.105-.598-.316-.738v-.21c.02-.09-.04-.1-.104-.106-.053-.58-.326-.94-.423-1.478-.188-.305-.19-.795-.422-1.055.088-.3-.15-.273-.104-.527.02-.088-.04-.1-.105-.104-.24-1.06-.62-1.982-.95-2.953.02-.123-.02-.188-.103-.21v-.106c-.014-.196-.07-.352-.21-.422-.014-.48-.258-.727-.316-1.16.02-.09-.04-.1-.104-.105.086-.3-.15-.273-.106-.527.02-.09-.04-.1-.105-.105v-.21c-.147-.066-.017-.407-.212-.423.087-.3-.15-.274-.105-.527.02-.09-.04-.1-.105-.105.087-.3-.15-.274-.105-.527.02-.09-.04-.1-.105-.105-.014-.477-.258-.725-.316-1.16.02-.09-.04-.1-.105-.103v-.21c-.146-.066-.016-.407-.21-.423.043-.22-.074-.28-.106-.422.02-.122-.022-.187-.104-.21v-.105c.018-.123-.023-.188-.105-.21-.058-.434-.302-.683-.315-1.16v-.212c7.992-2.796 16.092-5.49 24.14-8.234zm-.317 19.405c-.173-2.045-1.032-3.146-2.32-3.902-2.496-1.468-7.998-.76-8.016-3.375-.024-3.516 6.62-1.633 8.016-.527.778-.907 1.227-2.145 1.582-3.48-3.124-2.167-9.686-3.074-12.762 0-1.588 1.59-2.243 5.06-.844 7.28 1.178 1.865 3.716 2.323 6.328 2.847 1.29.26 3.28.655 3.27 2.215-.01 1.363-1.52 1.982-3.06 2.005-2.357.035-4.18-1.335-5.8-2.215-.617 1.036-1.27 2.034-1.582 3.375 1.63 1.604 4.11 2.36 7.172 2.53v.106c-1.417.153 2.47.153 1.055 0v-.104c4.034-.186 6.61-1.83 6.96-5.696h.106c.05.884.26-.777 0-.843-.023-.082-.002-.21-.105-.21z"/><path fill="#E30757" d="M47.145 47.566c-1.214-4.2-2.783-8.045-4.008-12.234h-.105c-8.09 2.704-16.11 5.475-24.258 8.12.486 1.272.846 2.67 1.37 3.903.7 2.255 1.482 4.425 2.216 6.645h22.254c1.67-.157 3.15-.507 4.324-1.16a79.75 79.75 0 0 0-1.793-5.274z"/><path fill-rule="evenodd" clip-rule="evenodd" fill="#5CC49E" d="M18.352 42.293c.018-.122-.023-.188-.105-.21-.19-.828-.54-1.5-.738-2.32.02-.09-.043-.1-.107-.106.087-.3-.15-.273-.105-.527.02-.09-.042-.1-.106-.105.087-.3-.15-.273-.105-.527.02-.09-.042-.1-.106-.105.03-.38-.194-.51-.21-.844.02-.09-.04-.1-.105-.107-.17-.85-.48-1.56-.738-2.32-.08-.27-.105-.598-.316-.738v-.21c.02-.09-.04-.1-.104-.106-.053-.58-.326-.94-.423-1.478-.188-.305-.19-.795-.422-1.055.088-.3-.15-.273-.104-.527.02-.088-.04-.1-.105-.104-.24-1.06-.62-1.982-.95-2.953.02-.123-.02-.188-.103-.21v-.106c-.014-.196-.07-.352-.21-.422-.014-.48-.258-.727-.316-1.16.02-.09-.04-.1-.104-.105.074-.26-.092-.273-.11-.44l.004-.087c.02-.09-.04-.1-.105-.105v-.21c-.147-.066-.017-.407-.212-.423.087-.3-.15-.274-.105-.527.02-.09-.04-.1-.105-.105.087-.3-.15-.274-.105-.527.02-.09-.04-.1-.105-.105-.014-.477-.258-.725-.316-1.16.02-.09-.04-.1-.105-.103v-.21c-.146-.066-.016-.407-.21-.423.043-.22-.074-.28-.106-.422.02-.122-.022-.187-.104-.21v-.105c.018-.123-.023-.188-.105-.21-.058-.434-.302-.683-.315-1.16-1.957-6.043-4.082-11.9-6.022-17.94C1.997 2.98.367 5.5 0 9.28v35.437c.195 1.774.577 3.36 1.37 4.535 5.898-1.837 11.586-3.883 17.403-5.8-.175-.35-.246-.804-.42-1.157zm-5.838-16.26zm0 .03zm.002.033zm.004.038zm.004.044c0 .005 0 .01.002.014l-.002-.014zm.006.05c0 .006 0 .01.002.016 0-.005 0-.01-.002-.015zm.01.06v.002zM1.162 24.39c0-.042 0-.086-.002-.132.003.045.004.09.003.132zm-.003.03c0 .03-.005.064-.01.094.005-.03.007-.063.01-.094zm-.015.122c-.005.03-.01.06-.018.088.007-.028.012-.058.018-.088zm-.025.11a.564.564 0 0 1-.028.085l.03-.085zm-.035.1zm-.045.093zm11.09 11.753c.103.066.11.23.3.212-.19.02-.197-.146-.3-.212zm.005-2.98l-.02-.022c.008.008.014.014.02.023zm-.025-.03l-.016-.017.016.02zm-.023-.024l-.013-.012.013.012zm-.02-.017l-.01-.007.01.007zm-.017-.01c-.004-.003-.006-.003-.01-.003a.02.02 0 0 1 .01.002zm-.015-.004c-.004 0-.01.002-.012.006.003-.006.008-.007.012-.008zm.255 2.615zm.05-.394zM12.3 36c-.003.027-.007.054-.008.078 0-.024.004-.05.008-.077zm.13.81zm-.042-.106l-.01-.032.01.032zm-.037-.11l-.007-.036a.17.17 0 0 0 .01.037zm-.03-.115l-.007-.05.008.05zm-.02-.126l-.003-.058c0 .02 0 .04.004.058zm.64-2.188l.014-.018-.015.017zm.035-.052l.012-.02-.012.02zm.036-.067l.01-.018-.01.017zm.034-.082l.006-.017-.007.016zm-.144.238l.017-.015-.018.014zm-.04.026l.02-.01a.054.054 0 0 1-.02.01zm-.207-.02l.032.017-.032-.018zm.042.02c.01.003.02.01.03.01l-.03-.01zm.042.014c.01 0 .02.003.03.005l-.03-.006zm.04.005h.027-.026zm.042-.005l.022-.007-.024.006zm-.176-.042l-.034-.022.035.023zm-.04-.027l-.035-.027c.01.01.022.017.033.026zm-.042-.032c-.01-.01-.023-.02-.035-.033l.035.034zm-.04-.04c-.012-.01-.023-.022-.036-.035.013.012.024.025.036.035zm-.23 2.783c-.007 0-.01-.005-.016-.008.005.002.01.006.015.007zm.03.008h-.005.005zm-.074-.043a.096.096 0 0 0 .013.02l-.013-.02zm1.112.69l-.005-.013c0 .003.003.007.005.01zm-.683-3.635l-.02-.01.02.01zm.082.053a.69.69 0 0 0-.002 0zm-.22-.06zm.034-.013zm.04 0zm-.16.148c-.123-.137-.236-.31-.317-.412.08.104.193.273.316.412zm-.214 2.81a.083.083 0 0 1-.008-.036c0 .01.002.023.008.033zm.452.55l.01.028a.176.176 0 0 0-.01-.03zm.034.11l.008.03-.01-.03zm-.07-.208c0 .007.005.013.007.02l-.008-.02zm1.225.574l-.116.023.117-.02zm.038.003c.004.084.065.11.094.17-.03-.057-.09-.086-.094-.17zm-.424.26c0 .016 0 .03.002.048-.002-.016-.003-.032-.002-.047zm0-.014c0-.01 0-.02.002-.03 0 .01 0 .02-.002.03zm.043-.124l-.01.015.01-.014zm-.018.026l-.01.02.01-.02zm-.014.033c-.004.008-.005.016-.006.024a.06.06 0 0 1 .005-.025zm.053-.08c-.006.004-.01.008-.014.013.004-.006.01-.01.013-.014zm.055-.036c-.007 0-.013.005-.02.01.007-.006.013-.01.02-.01zm-.03.014l-.016.012.015-.012zm.175-.06l-.032.008.032-.007zm-.04.01c-.01 0-.02.004-.027.005.008 0 .017-.005.026-.007zm-.04.01c-.007 0-.014.004-.02.007l.02-.01zm-.034.01l-.02.01.02-.01zm.367.123zM.983 24.932zm-.172.174c-.02.017-.04.03-.064.045a.4.4 0 0 0 .066-.043zm-.16.098zm.085-.045a.648.648 0 0 1 0-.002zm-.327.126l.056-.015-.056.016zm.093-.024l.06-.02-.06.02zm.42-.253zm-.076.07zm-.483.214l-.05.008.05-.008zm-.11.014l-.04.003c.014 0 .027-.002.04-.003zm-.113-.447s.002.004.004.004c0 0 0-.002-.003-.003zm12.386 1.093v-.002.003zm-.008.06v-.007.007zm.002-.023v-.006.006zm.002-.02v-.004.004zM.084 24.832c-.003-.004-.006-.005-.01-.006.004 0 .007.002.01.006z"/><path fill-rule="evenodd" clip-rule="evenodd" fill="#85D3DF" d="M31.22 0c.866 3.14 2.088 5.926 2.952 9.07.032.353.108.665.316.844.42-.46-.07.154.21.316.147-.468.023.084 0 .316.018.125-.018.3.106.316v.105c-8.048 2.745-16.147 5.438-24.152 8.227v.21C8.704 13.374 6.58 7.52 4.642 1.478 5.802.565 7.507.198 9.386 0H31.22z"/><path fill-rule="evenodd" clip-rule="evenodd" fill="#EDB316" d="M35.12 10.652c-.242.032-.116-.305-.315-.316-.023.082-.003.208-.105.21.022-.23.146-.784 0-.315-.28-.16.208-.774-.21-.314.01-.376.21-.667-.106-.316-.137-.263.31-.44 0-.528-.023.082-.003.208-.105.21-.025-.08-.005-.207-.107-.21C33.308 5.926 32.086 3.14 31.22 0h13.394C50.27.602 53.4 3.73 54 9.387V31.64c-3.585 1.268-7.324 2.38-10.863 3.692h-.105c-2.702-8.16-5.48-16.247-8.227-24.363v-.107c.02-.612.19-.044.21 0"/></svg>