<svg width="60" height="60" viewBox="0 0 60 60" fill="none" xmlns="http://www.w3.org/2000/svg">
<path d="M19.4719 48.0007C17.8896 48.9122 16.4337 49.7512 14.9773 50.5896C14.1334 51.0755 13.3025 51.5864 12.4417 52.0407C10.0733 53.2905 7.40916 51.9645 6.96478 49.3326C6.71274 47.8397 7.43683 46.3979 8.91996 45.5291C10.7029 44.4846 12.502 43.4674 14.2938 42.4379C16.6416 41.0889 18.9737 39.7113 21.3416 38.3985C23.4023 37.2561 25.7462 38.0211 26.6188 40.053C26.8575 40.6087 26.943 41.1968 26.9438 41.792C26.9503 46.4754 26.9578 51.1589 26.9421 55.8423C26.936 57.6524 26.0043 59.0206 24.4826 59.5698C23.0504 60.0867 21.3452 59.6151 20.3412 58.4318C19.6913 57.6657 19.4709 56.7634 19.4714 55.7848C19.4729 53.2428 19.4719 50.7009 19.4719 48.0007Z" fill="#2DB5E8"/>
<path d="M32.983 11.1016C32.9831 8.74736 32.9756 6.39306 32.9852 4.03883C32.9942 1.84474 34.5377 0.248571 36.6542 0.222578C38.8568 0.195533 40.4921 1.77009 40.5195 4.00722C40.5487 6.40869 40.54 8.81092 40.5174 11.2125C40.5117 11.8152 40.6599 11.8323 41.1356 11.5527C43.2456 10.3129 45.3548 9.07031 47.4966 7.88699C49.9227 6.5466 52.6386 7.88385 53.0308 10.6196C53.2353 12.0461 52.7281 13.2922 51.4926 14.0623C49.5381 15.2806 47.5207 16.3985 45.5255 17.5514C43.2831 18.8471 41.0407 20.1428 38.7895 21.4231C36.3885 22.7887 33.6688 21.6758 33.0645 19.0834C32.9901 18.7643 32.9871 18.4238 32.9862 18.0931C32.9799 15.7626 32.9828 13.4321 32.983 11.1016Z" fill="#2CB5E8"/>
<path d="M0.294111 36.9961C0.326445 35.8555 1.00531 34.7624 2.28264 34.0267C4.34116 32.8411 6.39895 31.6542 8.45608 30.4662C9.18134 30.0474 9.18097 30.0436 8.46948 29.6324C6.39218 28.4318 4.29827 27.2589 2.24026 26.0261C-0.348998 24.4751 -0.383589 20.9671 2.16933 19.5431C3.45955 18.8234 4.76063 18.9265 6.03563 19.6571C9.51888 21.653 13.0082 23.6386 16.4953 25.6278C17.0936 25.9692 17.6956 26.3043 18.2916 26.6497C20.6886 28.0388 20.9856 31.0656 18.8905 32.8929C17.861 33.7908 16.6009 34.3303 15.4338 35.0104C12.2729 36.852 9.10036 38.6741 5.91948 40.4811C3.34915 41.9412 0.295058 40.2232 0.294111 36.9961Z" fill="#2CB5E8"/>
<path d="M40.4124 48.0007C40.4124 50.621 40.4087 53.2298 40.4141 55.8387C40.4166 57.0297 39.9792 58.0163 39.0628 58.7742C37.8682 59.7622 36.524 59.9456 35.1277 59.3194C33.7187 58.6873 32.9924 57.5356 32.9884 55.9852C32.9759 51.2295 32.9745 46.4737 32.9862 41.7179C32.9935 38.7205 36.0658 36.8805 38.704 38.3349C41.554 39.9061 44.3566 41.5633 47.1789 43.1846C48.5179 43.9538 49.875 44.6942 51.187 45.5071C52.5643 46.3605 53.2379 47.6365 52.973 49.2557C52.7328 50.7235 51.8531 51.7439 50.4209 52.2324C49.3147 52.6097 48.2692 52.4216 47.2745 51.8468C45.2379 50.6699 43.2015 49.4929 41.1621 48.321C40.943 48.1951 40.7487 48.0021 40.4124 48.0007Z" fill="#2CB5E8"/>
<path d="M19.5827 11.9615C19.5827 9.87631 19.5826 7.88609 19.5827 5.89589C19.5827 5.23011 19.572 4.56411 19.5859 3.89862C19.6288 1.8495 21.3048 0.221634 23.36 0.222745C25.3979 0.223841 27.0004 1.81199 27.0077 3.90006C27.0241 8.63172 27.0202 13.3635 27.0114 18.0952C27.0055 21.2323 23.9961 22.9789 21.2422 21.4426C19.7694 20.6209 18.3168 19.7627 16.8547 18.9216C14.219 17.4052 11.5727 15.9068 8.95057 14.3672C7.09778 13.2793 6.45394 11.3293 7.32426 9.62805C8.38356 7.55727 10.6849 6.87299 12.7183 8.0369C14.7596 9.20527 16.7928 10.3876 18.8308 11.5617C19.05 11.688 19.2777 11.7999 19.5827 11.9615Z" fill="#2CB5E8"/>
<path d="M50.8353 29.9444C52.2738 30.7796 53.6013 31.5497 54.9281 32.321C55.9552 32.9181 57.0042 33.481 58.0023 34.1231C59.4997 35.0862 60.078 36.8444 59.505 38.4897C58.9658 40.0379 57.4176 41.023 55.6975 40.9064C55.0929 40.8654 54.543 40.6522 54.0215 40.3523C49.9636 38.0188 45.8918 35.7091 41.851 33.3466C38.9741 31.6647 38.9966 28.3274 41.8754 26.6592C45.8639 24.3479 49.8616 22.0524 53.8672 19.7708C55.83 18.6528 57.8333 19.1097 59.0615 20.9035C60.1868 22.5468 59.8702 24.5567 58.1719 25.6327C56.126 26.9289 53.9978 28.0951 51.9053 29.3177C51.5836 29.5057 51.2623 29.6942 50.8353 29.9444Z" fill="#2CB5E8"/>
<path d="M30.277 22.9069C30.9861 22.7329 31.584 23.149 32.1679 23.7563C33.6166 25.2629 35.1172 26.7196 36.5928 28.2004C37.3926 29.003 37.385 30.5906 36.5826 31.3936C34.9368 33.0402 33.2914 34.6873 31.6416 36.3299C30.8268 37.1412 29.0962 37.1647 28.2854 36.3618C26.6819 34.7738 25.0866 33.1772 23.4975 31.5747C22.8295 30.901 22.8112 29.0238 23.4796 28.3471C25.149 26.657 26.8466 24.9947 28.5106 23.2995C28.986 22.8152 29.5529 22.9387 30.277 22.9069ZM29.9308 27.4867C29.7818 27.4675 29.5924 27.5303 29.4556 27.6623C28.8752 28.2227 28.2776 28.7701 27.7468 29.3754C27.3826 29.7909 27.4867 30.2734 27.8537 30.6631C28.3256 31.1642 28.809 31.6563 29.313 32.1248C29.7723 32.5517 30.2716 32.5052 30.7144 32.096C31.2024 31.6451 31.6606 31.1619 32.1276 30.6888C32.316 30.4979 32.4352 30.272 32.4482 29.9948C32.4794 29.3341 30.6483 27.4663 29.9308 27.4867Z" fill="#2DB5E8"/>
</svg>
