<!DOCTYPE svg PUBLIC "-//W3C//DTD SVG 1.1//EN" "http://www.w3.org/Graphics/SVG/1.1/DTD/svg11.dtd" [
	<!ENTITY ns_flows "http://ns.adobe.com/Flows/1.0/">
]><svg xmlns="http://www.w3.org/2000/svg" width="60" height="60" viewBox="0 -9.394 60 60" overflow="visible"><path fill-rule="evenodd" clip-rule="evenodd" fill="#ED4321" d="M24.17 0h2.176c.724.214 1.85.023 2.447.362-5.528 9.792-11.066 20.046-16.584 29.453 1.144-9.277 2.175-18.667 3.35-27.912C18.07.905 20.898.23 24.173 0zM13.207 2.99c-1.48 8.58-3.484 17.418-5.075 26.19C6.9 24.204 5.952 18.704 4.87 13.32c-.165-.82-.52-1.767-.453-2.265C4.51 10.37 5.58 9.45 6.23 8.7c1.98-2.29 4.478-4.318 6.977-5.71zM2.06 15.042c.717 4.842 1.225 9.893 1.813 14.862-.832-1.5-1.968-3.285-2.9-4.984-.315-.575-.823-1.3-.906-1.722-.28-1.42.393-3.067.725-4.35.36-1.393.79-2.63 1.27-3.806zM48.548 35.342c-9.213 1.085-18.393 2.208-27.64 3.26 9.736-5.548 19.615-10.953 29.36-16.49.85 4.8-.23 9.876-1.72 13.23zM47.28 37.607c-.73 2.112-3.45 5.175-5.527 6.978-.69.6-1.747 1.628-2.356 1.722-.895.14-3.466-.6-4.53-.814-4.38-.88-8.863-1.89-13.23-2.63 8.333-1.965 17.203-3.396 25.642-5.256zM20.91 47.032c4.575.348 9.58 1.054 14.227 1.63-1.06.46-2.282.948-3.534 1.27-1.227.315-2.88.822-4.168.635-1.068-.156-2.216-1.237-3.263-1.812-1.18-.65-2.288-1.187-3.263-1.723zM30.425.544c5.17 1.083 9.034 3.47 12.323 6.434-8.744 8.474-17.888 16.546-26.732 24.92C20.61 21.6 25.626 10.938 30.426.544zM43.836 8.065c2.877 3.316 5.24 7.146 6.253 12.325-10.184 5.01-20.79 9.6-31.085 14.5 8.015-8.842 16.474-18.024 24.83-26.825z"/></svg>