<!DOCTYPE svg PUBLIC "-//W3C//DTD SVG 1.1//EN" "http://www.w3.org/Graphics/SVG/1.1/DTD/svg11.dtd" [
	<!ENTITY ns_flows "http://ns.adobe.com/Flows/1.0/">
]><svg xmlns="http://www.w3.org/2000/svg" width="60" height="60" viewBox="0 -6.074 60 60" overflow="visible"><path fill-rule="evenodd" clip-rule="evenodd" fill="#FF5B00" d="M13.375.11c4.314-.205 9.15-.062 13.54-.062 4.527 0 9.012.04 13.355.062 4.66.025 7.737 1.216 10 3.48 2.326 2.325 3.38 5.247 3.54 9.75.166 4.636.063 8.973.063 13.417 0 4.584.16 9.078 0 13.416-.174 4.633-1.166 7.682-3.416 10.062-2.197 2.325-5.365 3.408-9.814 3.604-4.524.196-9.088 0-13.478 0-4.457 0-8.992.103-13.416 0C4.9 53.625.32 49.323.144 40.545a800.58 800.58 0 0 1-.062-26.833C.213 5.226 4.516.11 13.25.11c.042 0 .084.002.125 0zm17.516 8.2c1.49 2.278 2.83 5.038 3.605 8.26.748 3.103.888 7.567-.372 10.373-3.44-2.342-6.83-4.663-10-7.267-3.16-2.594-6.125-5.39-9.254-8.012 3.103 4.722 6.43 9.223 10.185 13.292-5.534-3.492-10.333-7.72-15.528-11.552 5.28 7.765 11.912 14.174 18.82 20.31-2.814 1.944-7.897 2.596-12.174 1.863-4.135-.707-7.485-2.585-10.373-4.347 1.93 3.42 4.67 6.142 7.95 8.385a23.763 23.763 0 0 0 12.236 4.1c3.76.188 6.2-.483 8.633-1.678 1.72-.843 3.31-1.95 5.464-1.925 1.66.018 3.12.746 4.16 1.614.743.617 1.242 1.447 1.927 1.988.49-4.736-1.507-8.057-3.48-10.746.94-2.488.88-5.91.438-8.447-1.4-8.03-6.795-12.49-12.114-16.396h-.186c.008.073-.01.177.06.186z"/></svg>