<!DOCTYPE svg PUBLIC "-//W3C//DTD SVG 1.1//EN" "http://www.w3.org/Graphics/SVG/1.1/DTD/svg11.dtd" [
	<!ENTITY ns_flows "http://ns.adobe.com/Flows/1.0/">
]><svg xmlns="http://www.w3.org/2000/svg" width="60" height="60" viewBox="0 -7.912 60 60" overflow="visible"><path fill-rule="evenodd" clip-rule="evenodd" fill="#8AC736" d="M24.194 0h1.612c4.737 1.208 3.572 7.995-.88 7.917C20.6 7.843 19.473.977 24.196 0zM46.04 9.385c-4.36 4.58-8.98 8.907-13.342 13.49-1.34-1.288-2.686-2.54-4.252-4.107-.086-.086-1.32-1.304-1.32-1.32-.03-.545 2.61-2.75 3.226-3.372 3.336-3.368 7.19-7.228 9.97-10.118 2.14 1.578 3.703 3.727 5.72 5.427zM50 24.34v1.32c-.484 1.706-1.568 2.765-2.64 3.078-7.197 2.114-6.545-9.65.147-7.477.988.323 1.847 1.175 2.493 3.08zM40.615 46.04c-4.74-4.155-8.857-8.932-13.49-13.195 1.578-2.138 3.728-3.703 5.426-5.72 2.627 2.412 6.743 6.742 10.12 10.118.584.586 3.35 2.735 3.37 3.226.026.545-2.44 2.44-2.784 2.784-1.122 1.123-1.76 1.852-2.64 2.786zM25.806 50h-1.612c-1.625-.52-2.635-1.6-2.933-2.64-2.023-7.06 9.388-6.588 7.48 0-.31 1.074-1.064 1.9-2.933 2.64zM3.96 9.53c5.265 5.047 10.275 10.35 15.54 15.396A933.39 933.39 0 0 1 3.96 40.47a912.138 912.138 0 0 1 15.395-15.396C14.31 19.806 9.005 14.797 3.96 9.53zM9.53 46.04a1618.334 1618.334 0 0 1 20.382-20.38A1585.575 1585.575 0 0 1 9.53 46.04zM9.53 3.958c7.05 6.93 14.04 13.917 20.968 20.967A1664.662 1664.662 0 0 1 9.53 3.958z"/><path fill-rule="evenodd" clip-rule="evenodd" fill="#00863F" d="M30.5 24.926c-.01.432-.45.433-.587.734A1611.754 1611.754 0 0 0 9.53 46.04a118.937 118.937 0 0 1-5.57-5.57A933.39 933.39 0 0 0 19.5 24.926C14.236 19.88 9.227 14.576 3.96 9.53a117.98 117.98 0 0 1 5.57-5.57C16.46 11.01 23.448 18 30.5 24.928z"/><path fill-rule="evenodd" clip-rule="evenodd" fill="#00863F" d="M0 24.193c.43-1.52 1.77-2.81 2.933-3.08 6.78-1.564 6.16 9.45-.146 7.772C1.722 28.603.715 27.695 0 25.807v-1.614z"/></svg>