<!DOCTYPE svg PUBLIC "-//W3C//DTD SVG 1.1//EN" "http://www.w3.org/Graphics/SVG/1.1/DTD/svg11.dtd" [
	<!ENTITY ns_flows "http://ns.adobe.com/Flows/1.0/">
]><svg xmlns="http://www.w3.org/2000/svg" width="60" height="60" viewBox="0 -15.802 60 60" overflow="visible"><path fill-rule="evenodd" clip-rule="evenodd" fill="#2C48B4" d="M4.42 0H22.1c6.297 1.057 5.23 13.327-3.4 10.88v32.98H7.82V11.22C3.934 11.024.89 9.99 0 6.8V4.42C.744 2.217 2.217.745 4.42 0z"/><path fill-rule="evenodd" clip-rule="evenodd" fill="#F59000" d="M43.178 0h4.42c4.538.798 6.21 7.67 2.04 10.2-2.563 1.556-5.676.73-7.48 1.36-8.85 3.083-9.292 17.976 0 21.08 4.795 1.6 9.67.012 9.86 5.78.103 3.17-1.89 4.574-4.42 5.778h-3.74C18.088 41.558 17.505 3.21 43.178 0z"/><path fill-rule="evenodd" clip-rule="evenodd" fill="#2C48B4" d="M44.198 15.98c3.863-.887 7.47 1.007 8.16 4.08 2.672 11.903-14.776 10.216-12.92.34.354-1.876 1.198-3.603 4.76-4.42z"/></svg>