<!DOCTYPE svg PUBLIC "-//W3C//DTD SVG 1.1//EN" "http://www.w3.org/Graphics/SVG/1.1/DTD/svg11.dtd" [
	<!ENTITY ns_flows "http://ns.adobe.com/Flows/1.0/">
]><svg xmlns="http://www.w3.org/2000/svg" width="60" height="60" viewBox="0 -7.12 60 60" overflow="visible"><path fill-rule="evenodd" clip-rule="evenodd" fill="#046EBC" d="M.187 52.754c.44-9.72-.59-18.912 0-28.384.468-7.532 3.99-13.185 8.17-17.202C12.745 2.954 19.104 0 26.564 0 40.91 0 52.086 10.616 52.94 24.37c.478 7.685-1.74 12.49-4.73 17.202.888-2.022 2.09-4.526 2.437-7.312.773-6.198-1.904-11.69-4.875-14.908-3.19-3.457-7.982-6.184-14.334-5.878-6.883.332-10.523 3.786-14.335 7.6-3.737 3.735-7.416 7.44-11.038 10.75 3.188 3.657 7.184 7.327 11.038 11.182 3.924 3.924 7.83 7.37 14.622 7.598 3.357.11 8.318-1.425 10.32-2.867C34.02 55.335 15.117 52.06.187 52.754z"/><path fill-rule="evenodd" clip-rule="evenodd" fill="#046EBC" d="M22.836 22.506c9.34.03 17.208-1.02 22.076 3.44 2.62 2.402 4.79 6.374 4.158 11.612-.197 1.62-.982 2.898-1.148 4.3-.17.265-3.352 4.394-5.303 5.447-1.395.408-2.55 1.15-4.016 1.434-7.953 1.53-14.976-3.944-15.77-11.04-.534-4.783.398-9.79 0-15.195z"/></svg>