<svg width="60" height="60" viewBox="0 0 60 60" fill="none" xmlns="http://www.w3.org/2000/svg">
<path d="M2.21044 2.23051e-08C3.08974 0.638615 4.08161 1.09654 5.03054 1.62166C9.59964 4.15002 14.174 6.66948 18.7559 9.17608C19.1422 9.38736 19.268 9.61813 19.2668 10.0457C19.2497 15.9823 19.2552 21.9189 19.2552 27.8555C19.2552 28.0221 19.2552 28.1887 19.2552 28.3594C19.0132 28.3849 18.8742 28.2346 18.7148 28.1469C13.2863 25.1602 7.86166 22.167 2.42961 19.1864C2.11006 19.0111 2.01846 18.8076 2.01906 18.4671C2.02925 12.5136 2.02668 6.56011 2.02532 0.606593C2.02525 0.404392 2.0088 0.202198 2 2.23051e-08C2.07014 -2.78814e-08 2.1403 2.23051e-08 2.21044 2.23051e-08Z" fill="#5F43E8"/>
<path d="M21.1814 31.6571C23.579 32.9763 25.9182 34.2625 28.2564 35.5503C31.4481 37.3081 34.6353 39.0736 37.8351 40.8176C38.2291 41.0324 38.3922 41.2542 38.3906 41.7147C38.3702 47.6159 38.3771 53.5172 38.3771 59.4184C38.377 60.1141 38.3753 60.1164 37.7777 59.7871C32.3527 56.7982 26.9289 53.8073 21.5015 50.8224C21.2706 50.6955 21.1407 50.572 21.1412 50.2833C21.1518 44.1453 21.1496 38.0074 21.1509 31.8694C21.1509 31.8214 21.1642 31.7734 21.1814 31.6571Z" fill="#5F43E8"/>
<path d="M21.173 10.5917C22.0468 11.0726 22.8608 11.5204 23.6745 11.9685C28.4186 14.5808 33.1604 17.1969 37.911 19.7983C38.2605 19.9897 38.3883 20.1958 38.3874 20.5895C38.3725 26.545 38.3772 32.5005 38.3769 38.456C38.3769 39.0511 38.3756 39.0516 37.8491 38.7613C32.4081 35.7617 26.9684 32.76 21.523 29.7678C21.2665 29.6269 21.1413 29.4888 21.1418 29.1861C21.1513 23.1122 21.1488 17.0383 21.1497 10.9644C21.1497 10.8691 21.1612 10.7738 21.173 10.5917Z" fill="#5F43E8"/>
<path d="M40.2684 39.0168C40.2684 38.7579 40.2684 38.5899 40.2684 38.4219C40.2684 32.4848 40.2726 26.5478 40.2592 20.6108C40.2583 20.2084 40.3787 19.9872 40.75 19.7836C46.1806 16.8068 51.6017 13.814 57.0217 10.8192C57.3389 10.6439 57.4856 10.5885 57.4848 11.0507C57.4736 17.0892 57.4761 23.1277 57.4815 29.1662C57.4817 29.4238 57.4315 29.596 57.1721 29.7384C51.6368 32.7773 46.1073 35.8262 40.5763 38.8725C40.5038 38.9125 40.4259 38.9434 40.2684 39.0168Z" fill="#4040B1"/>
</svg>
