<svg xmlns="http://www.w3.org/2000/svg" width="60" height="60" viewBox="0 0 60 60"><g fill="#CB000A"><path d="M23.52 18.246c2.384 0 4.77-.046 7.153.014 2.035.052 3.947.64 5.74 1.61a13.678 13.678 0 0 1 3.36 2.55c.067.068.14.2.245.15.1-.045.063-.187.063-.287v-3.648c0-.376.027-.407.395-.407 3.027-.002 6.054-.023 9.08.002 2.466.02 4.67.84 6.593 2.383a10.375 10.375 0 0 1 3.42 4.912c.588 1.77.69 3.576.313 5.41a10.27 10.27 0 0 1-1.782 4.05 10.642 10.642 0 0 1-4.233 3.467c-1.316.6-2.7.943-4.15.97-.367.01-.384.024-.384.39v4.98c0 .4-.02.42-.41.42-2.79 0-5.58 0-8.37.002-.43 0-.448-.018-.448-.444 0-1.2 0-2.396.003-3.592 0-.01.002-.022 0-.026-.016-.107.05-.254-.077-.306-.11-.04-.173.094-.24.165a13.67 13.67 0 0 1-6.258 3.718c-1.15.315-2.323.48-3.516.48h-8.57c-.375 0-.397-.023-.398-.402v-4.98c-.003-.395-.01-.4-.394-.4-2.073 0-4.147.006-6.222-.003-.233 0-.366.09-.476.275-1.004 1.71-2.014 3.42-3.01 5.136-.16.27-.342.39-.67.39-3.3-.014-6.602-.007-9.9-.007-.42 0-.464-.066-.248-.433.86-1.47 1.73-2.936 2.596-4.402.545-.925 1.133-1.825 1.625-2.777.326-.632.794-1.173 1.084-1.815.31-.69.804-1.27 1.118-1.967.173-.38.476-.733.7-1.11 1.098-1.862 2.195-3.724 3.294-5.584.876-1.483 1.756-2.963 2.63-4.444.82-1.386 1.64-2.77 2.447-4.16.13-.23.292-.3.544-.3 2.45.008 4.902.005 7.353.005.005.004.005.01.005.02zm13.722 6.5c-.077-.207-.25-.31-.43-.412l-.008-.008c-.133-.25-.383-.38-.593-.543-1.904-1.48-4.07-2.185-6.48-2.176-2.876.01-5.75.002-8.624.002-.972 0-1.94.003-2.913-.004-.23-.002-.39.06-.502.28-.132.268-.295.522-.45.782-.65 1.09-1.3 2.18-1.946 3.273-.947 1.604-1.884 3.21-2.83 4.814-.79 1.34-1.59 2.668-2.378 4.004-1.32 2.237-2.632 4.476-3.947 6.715-.055.094-.17.184-.095.303.07.11.206.068.314.068.687.006 1.375-.004 2.062.01.242.004.388-.095.5-.292.732-1.248 1.474-2.493 2.2-3.747.25-.437.55-.848.74-1.32.045-.03.075-.07.068-.126.173-.3.44-.33.76-.327 2.05.016 4.1.01 6.15.01.092 0 .187.02.273-.03.105.01.206.023.31.023 1.145.002 2.293.002 3.44.002.488-.003.976-.012 1.462-.02.15.104.13.262.13.412 0 1.57-.002 3.14 0 4.712 0 .1-.033.206.037.3-.03.107-.046.21.036.305.06.186.217.11.333.11 1.674.008 3.348.012 5.023 0 .39-.004.787.01 1.17-.102a.2.2 0 0 0 .18-.025c.062.038.117.028.16-.033.1.02.194 0 .285-.036.238.02.465-.02.668-.15.11.02.2-.02.294-.068.21.006.4-.054.566-.184l.113-.034a.6.6 0 0 0 .44-.17c.04.012.063-.003.082-.037a.678.678 0 0 0 .493-.226c.05.01.095-.005.128-.044.177-.016.31-.128.45-.212.427-.255.88-.475 1.22-.854h.023l.01-.02c.025-.007.06-.002.078-.02.794-.617 1.5-1.324 2.06-2.16.318-.474.598-.97.894-1.456l4.248.012c.008.076.014.152.08.2-.007.047-.02.093-.02.14 0 1.694-.002 3.387 0 5.08 0 .072.022.147.033.22-.02.034-.01.06.03.068l.006.02c.047.144.172.09.264.093.52.005 1.036 0 1.553 0 .537 0 .537 0 .537-.55V36.46c0-.397.014-.403.415-.41 1.24-.01 2.486.032 3.728-.026.324-.014.652-.04.95-.2a1.33 1.33 0 0 1 .113-.025c.558-.03 1.054-.278 1.53-.527 1.99-1.047 3.298-2.646 3.806-4.856.497-2.15.055-4.136-1.258-5.88-1.438-1.912-3.41-2.887-5.812-2.92-1.836-.025-3.673-.006-5.512-.006-.36 0-.384.02-.384.386v4.495c0 .084-.018.17.033.248-.056.166-.027.336-.026.504.003.945.012 1.892.018 2.838-.075.106-.142.206-.303.205-.99-.01-1.98-.006-2.97-.006-.177 0-.294-.074-.306-.26-.027-.407-.158-.793-.272-1.18-.105-.357-.185-.728-.415-1.036.01-.022.006-.038-.017-.048-.002-.184-.09-.328-.212-.455l.002-.006a1.586 1.586 0 0 0-.426-.77c.008-.043-.01-.073-.048-.094.002-.124-.066-.198-.174-.247.012-.037-.003-.058-.033-.072a3.71 3.71 0 0 0-.887-1.114l-.012-.02a.316.316 0 0 0-.22-.236z"/><path d="M28.915 24.024c.913.002 1.823-.025 2.726.192 1.7.408 3.12 1.257 4.236 2.59 1.314 1.573 1.926 3.403 1.778 5.447-.154 2.173-1.095 3.976-2.767 5.37-1.49 1.24-3.224 1.825-5.167 1.8-.82-.01-1.64-.01-2.46.005-.257.004-.35-.075-.346-.338.012-.887.01-1.773 0-2.66-.003-.27.108-.354.373-.357 1.065-.01 2.132.08 3.194-.045 2.563-.298 4.408-2.923 3.626-5.492-.493-1.61-1.59-2.604-3.2-3.045-.376-.1-.763-.11-1.15-.114-.82-.007-1.64 0-2.46 0-.33-.003-.376-.044-.377-.375-.003-.885.004-1.77-.005-2.66-.003-.247.094-.325.334-.32.554.013 1.11.003 1.666.005zM19.046 33.655c-1.677 0-3.354.003-5.03-.002-.107 0-.25.056-.31-.07-.058-.114.048-.206.106-.305.546-.92 1.1-1.84 1.632-2.77.116-.202.264-.236.463-.236 1.555.002 3.11.002 4.664.002.46 0 .464 0 .464-.448l-.002-5.428c0-.382 0-.382.37-.382.906 0 1.812.007 2.715-.005.263-.002.336.088.336.345-.007 2.986-.01 5.974-.002 8.96 0 .262-.084.34-.342.34-1.687-.01-3.373-.003-5.06-.003v.005zM48.075 24.022c.508 0 1.018-.017 1.526.003a4.823 4.823 0 0 1 4.494 3.717 4.79 4.79 0 0 1-3.09 5.62c-.542.19-1.09.28-1.66.28-1.018.003-2.034-.005-3.053.004-.25.002-.353-.074-.35-.337.01-.898.01-1.794 0-2.69-.004-.247.09-.33.33-.33.96.01 1.924 0 2.884.003.66.003 1.188-.21 1.518-.827.42-.792-.11-1.91-1-2.047a3.626 3.626 0 0 0-.533-.04c-.953-.005-1.904-.006-2.856 0-.235 0-.346-.078-.344-.325.007-.914.008-1.827 0-2.742-.002-.22.08-.304.3-.3.61.006 1.225 0 1.837 0v.008z"/></g></svg>