<svg xmlns="http://www.w3.org/2000/svg" width="60" height="60" viewBox="0 0 60 60"><g fill-rule="evenodd" clip-rule="evenodd"><path fill="#05539E" d="M.827 45.248c2.012 7.2 6.74 11.857 13.84 13.67 11.71 2.99 21.91-.363 30.764-8.31.197-.178.563-.424.14-.874-.39.188-.797.372-1.192.58-4.99 2.61-10.26 4.104-15.915 4.355-13.635.6-23.002-9.93-20.816-23.36C8.95 23.3 13.342 17.223 19.21 11.99c.503-.446 1.257-.694 1.33-1.52-.41-.23-.674.04-.945.187-6.81 3.686-11.912 8.99-15.805 15.71-2.08 3.59-3.297 9.008-3.53 9.775-.23.768-.228 2.192-.26 3.9-.032 1.71.827 5.205.827 5.205z"/><path fill="#54BE83" d="M45.546 7.144c1.69.22 4.576 1.055 6.502 2.848l-2.55-.163c-13.6-.886-27.438 10.184-29.54 23.63-1.05 6.723 2.43 12.887 8.74 15.474l2.19.892C20.242 51.1 9.424 42.953 13.315 29.292 16.74 17.264 25.46 10.518 37.35 7.562c0 0 6.506-.637 8.196-.418z"/><path fill="#FED605" d="M25.274 40.397c-.977-2.548-.813-4.66-.455-6.793 1.66-9.855 9.953-17.485 19.9-18.296 8.63-.703 14.457 7.223 11.086 15.08-.143.125-.244.09-.262-.11-.693-8.202-7.82-10.95-14.616-9.012-8.3 2.37-12.56 8.477-14.873 16.327-.23.786-.44 1.577-.783 2.804z"/></g></svg>