<!DOCTYPE svg PUBLIC "-//W3C//DTD SVG 1.1//EN" "http://www.w3.org/Graphics/SVG/1.1/DTD/svg11.dtd" [
	<!ENTITY ns_flows "http://ns.adobe.com/Flows/1.0/">
]><svg xmlns="http://www.w3.org/2000/svg" width="60" height="60" viewBox="0 -7 60 60" overflow="visible"><path fill-rule="evenodd" clip-rule="evenodd" fill="#6A34BF" d="M25.154 0h2.69C42.744 1.872 51.13 10.256 53 25.154v2.69C51.144 42.724 42.765 51.08 27.95 53h-2.9C10.237 51.08 1.857 42.724 0 27.846v-2.69C1.872 10.256 10.256 1.87 25.154 0zM11.18 17.184c-.435.29-.103 1.346-.207 1.967h4.14c2.09 1.92 4.244 4.614 6.108 7.04.634.823 1.634 1.785 1.865 2.59.463 1.61-.015 3.475-.104 5.28-1.082.4-2.52.443-4.036.412-.005.514-.123.914-.207 1.347 4.484-.07 8.966-.145 13.56-.105.028-.456.166-.8.105-1.346-1.265-.22-2.915-.05-4.347-.105.167-1.99-.688-3.836-.104-5.59.4-1.206 2.573-2.783 3.727-3.727 2.04-1.667 3.906-3.633 7.35-3.312.436-.6.964-1.106 1.242-1.863H28.16c.12.638.36 1.157.412 1.864h3.313c-1.81 1.71-3.587 3.45-5.59 4.97-1.668-2.542-4.048-4.924-5.383-7.454h4.037c-.056-.635.12-1.498-.105-1.967H11.18zm26.914 15.113c.728-.07 1.136.175 1.863.104.726-2.792 1.462-5.575 2.174-8.383-1.393-.123-2.802-.233-4.14-.414-.05 2.986.06 5.806.105 8.695zm-.31 3.416c.765-.075 1.263.116 1.966.104.083-.71.215-1.372.31-2.07-.85.02-1.628-.028-2.276-.207v2.173z"/></svg>