<!DOCTYPE svg PUBLIC "-//W3C//DTD SVG 1.1//EN" "http://www.w3.org/Graphics/SVG/1.1/DTD/svg11.dtd" [
	<!ENTITY ns_flows "http://ns.adobe.com/Flows/1.0/">
]><svg xmlns="http://www.w3.org/2000/svg" width="60" height="60" viewBox="0 -7 60 60" overflow="visible"><path fill-rule="evenodd" clip-rule="evenodd" fill="#CE1539" d="M24.78 0h2.44c7.683.576 12.988 3.532 17.163 7.617 4.084 4.175 7.04 9.48 7.617 17.164v2.44c-.577 7.684-3.533 12.99-7.617 17.164-4.175 4.084-9.48 7.04-17.164 7.617h-2.44c-7.684-.576-12.99-3.532-17.164-7.616C3.532 40.208.576 34.904 0 27.22v-2.44c.378-7.053 3.697-13.364 7.617-17.265C11.817 3.335 17.58.57 24.78 0zm-6.803 6.703c-1.607.516-3.63 1.096-3.86 3.047-.21 1.798 1.44 3.633 2.134 4.672 1.704 2.553 3.735 5.58 5.385 8.328.866 1.442 1.797 3.236 3.555 3.352 4.26.277 2.753-6.285 2.538-9.953-.198-3.36.116-9.446-1.828-10.564-.657-.378-1.748-.287-2.438-.203-1.947.238-3.592.71-5.485 1.32zm15.54 12.29c-1.234 1.58-2.158 3.04-3.353 4.67-.63.862-1.36 1.728-1.422 2.642-.308 4.665 5.782 2.588 8.43 1.93 1.972-.49 4.707-.857 5.28-2.64.642-1.988-.818-3.694-1.827-5.18-1.093-1.61-2.52-3.655-4.672-3.25-1.043.195-1.877 1.11-2.437 1.827zm-20.212 4.773c-3.48.666-3.164 10.262-.305 11.07 1.864.526 3.73-.526 5.586-1.117 2.504-.8 5.797-1.19 6.094-3.658.36-2.986-2.798-3.493-4.977-4.367-2.11-.848-4.182-2.258-6.195-1.93-.066.01-.137-.012-.203 0zM29.25 33.21c-.122 1.21.652 2.368 1.117 3.15.56.937 1.093 1.756 1.625 2.64.983 1.635 1.982 4.388 3.96 4.672 2.214.316 3.56-1.763 4.673-3.148.872-1.086 2.484-2.91 2.133-4.875-.312-1.735-2.718-2.306-4.57-2.947-2.168-.752-3.978-1.757-5.688-1.93-.464-.047-.976.093-1.016.102-1.22.25-2.102 1.024-2.234 2.335zm-9.04 3.657c-1.09 1.258-3.467 3.244-3.35 5.18.12 1.977 2.338 2.756 3.858 3.352 1.526.597 3.76 1.582 5.484 1.014 1.815-.6 1.813-2.964 1.828-5.688.01-1.884.505-4.58 0-6.195-.462-1.477-2.223-2.016-3.25-1.827-1.866.34-3.21 2.6-4.57 4.163z"/><path fill-rule="evenodd" clip-rule="evenodd" fill="#CE1539" d="M24.883 7.516c.586 3.808.682 8.41 1.016 12.594.11 1.385.376 2.85-.307 3.96-1.422-.38-1.904-1.964-2.64-3.25-1.39-2.424-2.873-4.562-4.57-7.108-.644-.964-2.29-2.678-2.134-3.656.18-1.137 6.08-2.525 7.413-2.64.4-.037.97-.04 1.22.1zM30.977 27.016c-.29-.83.47-1.525.914-2.133 1.285-1.755 2.728-3.87 4.166-5.484 1.142-.525 1.908 1.01 2.742 2.232.66.97 1.908 2.224 1.625 3.148-.25.822-3.743 1.418-4.57 1.626-1.825.46-3.458 1.106-4.875.61zM13.71 32.805c-1.135-1.41-.692-5.01-.202-6.805 1.467-.272 3.03.604 5.078 1.422 1.24.496 3.977 1.238 3.96 2.234-.015 1-3.35 1.665-4.163 1.93-1.722.563-3.15 1.112-4.672 1.22zM40.625 36.055c-.225 1.356-.904 2.097-1.727 3.148-.483.618-1.547 2.368-2.438 2.336-1.02-.04-2.373-3.18-2.844-3.963-.895-1.484-2.193-2.744-2.133-4.47 1.27-.417 3.238.637 4.977 1.22 1.604.54 3.246.913 4.165 1.727zM25.594 34.734c.646.935.47 2.62.406 4.062-.084 1.925.016 4.04-.406 5.484-2.678.138-4.93-1.026-6.602-2.234.37-1.37 1.704-2.456 2.742-3.656 1.05-1.215 1.952-2.613 3.047-3.453.178-.133.354-.27.815-.203z"/></svg>