<svg width="60" height="60" viewBox="0 0 60 60" fill="none" xmlns="http://www.w3.org/2000/svg">
<g clip-path="url(#clip0_3_55)">
<path d="M30 60C46.5685 60 60 46.5685 60 30C60 13.4315 46.5685 0 30 0C13.4315 0 0 13.4315 0 30C0 46.5685 13.4315 60 30 60Z" fill="#4A8CFF"/>
<path d="M10.7515 20.6075V34.7058C10.7589 36.2349 11.3731 37.6985 12.4591 38.775C13.5451 39.8515 15.0141 40.4527 16.5432 40.4467H37.0936C37.3714 40.448 37.6384 40.3391 37.836 40.1439C38.0336 39.9486 38.1457 39.683 38.1478 39.4052V25.3069C38.1404 23.7778 37.5262 22.3142 36.4402 21.2377C35.3541 20.1612 33.8852 19.56 32.3561 19.566H11.812C11.6739 19.5645 11.5369 19.5903 11.4088 19.6419C11.2807 19.6934 11.164 19.7698 11.0655 19.8666C10.967 19.9633 10.8885 20.0786 10.8346 20.2057C10.7807 20.3329 10.7525 20.4694 10.7515 20.6075ZM39.456 26.1071L47.9403 19.909C48.677 19.298 49.2485 19.4517 49.2485 20.5567V39.456C49.2485 40.7134 48.55 40.561 47.9403 40.1025L39.456 33.9183V26.1071Z" fill="white"/>
</g>
<defs>
<clipPath id="clip0_3_55">
<rect width="60" height="60" fill="white"/>
</clipPath>
</defs>
</svg>
