<svg xmlns="http://www.w3.org/2000/svg" width="28" height="28" viewBox="-2 -3 28 28" overflow="visible"><path fill-rule="evenodd" clip-rule="evenodd" fill="currentColor" d="M1.528 0H13.52C14.473 0 15 .412 15 1.396v3.018C15 5.4 14.472 6 13.52 6H1.597C.647 6 0 5.383 0 4.396V1.5C0 .516.576 0 1.528 0zm9.034 16h10.972c.952 0 1.466.534 1.466 1.52v2.918c0 .987-.553 1.562-1.5 1.562h-11c-.95 0-1.5-.606-1.5-1.594V17.52c0-.986.61-1.52 1.562-1.52zM11 18v2h10v-2H11zM1 8h21c.95 0 1 .018 1 1v4c0 .986-.054 1-1 1H1c-.95 0-1-.502-1-1.488V9.5C0 8.513.048 8 1 8zm1 2v2h19v-2H2zm0-8v2h11V2H2z"/></svg>