<svg width="21" height="28" viewBox="0 0 21 28" fill="none" xmlns="http://www.w3.org/2000/svg">
<path fill-rule="evenodd" clip-rule="evenodd" fill="currentColor" d="M10.193 1.96491C5.64874 1.96491 1.96491 5.64874 1.96491 10.193C1.96491 12.6953 3.08076 14.936 4.84547 16.4466C5.41868 16.9373 6.01075 17.4747 6.44598 18.1514C6.90131 18.8593 7.16059 19.6771 7.16059 20.698V22.1053H13.2254V20.6979C13.2254 19.6771 13.4847 18.8593 13.94 18.1514C14.3752 17.4747 14.9673 16.9373 15.5405 16.4466C17.3052 14.936 18.4211 12.6953 18.4211 10.193C18.4211 5.64874 14.7372 1.96491 10.193 1.96491ZM14.6602 23.4688C14.9751 23.3052 15.1903 22.976 15.1903 22.5965V20.6979C15.1903 20.043 15.347 19.5961 15.5926 19.2143C15.8582 18.8013 16.2519 18.4241 16.8183 17.9393C19.0005 16.0714 20.386 13.2934 20.386 10.193C20.386 4.56355 15.8224 0 10.193 0C4.56355 0 0 4.56355 0 10.193C0 13.2934 1.3855 16.0714 3.5677 17.9393C4.13404 18.4241 4.52774 18.8013 4.7934 19.2143C5.03896 19.5961 5.19568 20.043 5.19568 20.698V22.5965C5.19568 22.8288 5.27631 23.0423 5.4111 23.2104C5.4715 23.6951 5.88493 24.0702 6.38596 24.0702H13.7544C14.1618 24.0702 14.5113 23.8221 14.6602 23.4688ZM8.8421 5.40351C8.8421 4.86091 9.28197 4.42105 9.82456 4.42105C13.2612 4.42105 16.2105 6.9742 16.2105 10.3158C16.2105 10.8584 15.7707 11.2982 15.2281 11.2982C14.6855 11.2982 14.2456 10.8584 14.2456 10.3158C14.2456 8.23143 12.3565 6.38596 9.82456 6.38596C9.28197 6.38596 8.8421 5.9461 8.8421 5.40351ZM6.38596 27.0175C6.38596 26.4749 6.82583 26.0351 7.36842 26.0351H13.2632C13.8058 26.0351 14.2456 26.4749 14.2456 27.0175C14.2456 27.5601 13.8058 28 13.2632 28H7.36842C6.82583 28 6.38596 27.5601 6.38596 27.0175Z"/>
</svg>
