<svg width="28" height="28" viewBox="0 0 28 28" fill="none" xmlns="http://www.w3.org/2000/svg">
<path fill-rule="evenodd" clip-rule="evenodd" d="M8.79545 7.75164C8.79545 5.12743 10.9228 3.00009 13.547 3.00009C16.1712 3.00009 18.2986 5.12743 18.2986 7.75164C18.2986 10.3759 16.1712 12.5032 13.547 12.5032C10.9228 12.5032 8.79545 10.3759 8.79545 7.75164ZM13.547 0.90918C9.76802 0.90918 6.70455 3.97265 6.70455 7.75164C6.70455 9.1418 7.11911 10.4351 7.83135 11.5147C4.50254 12.2017 2 15.1495 2 18.6818V26H25V18.6818C25 15.1787 22.5387 12.2505 19.2511 11.5323C19.9704 10.4491 20.3895 9.14932 20.3895 7.75164C20.3895 3.97265 17.326 0.90918 13.547 0.90918ZM9.7646 13.4545C10.8481 14.1746 12.1486 14.5941 13.547 14.5941C14.9455 14.5941 16.2459 14.1746 17.3294 13.4545H17.6818C20.5688 13.4545 22.9091 15.7948 22.9091 18.6818V23.9091H19.7727V21.2955C19.7727 20.7182 19.3047 20.2501 18.7273 20.2501C18.1499 20.2501 17.6818 20.7182 17.6818 21.2955V23.9091H9.31818V21.2955C9.31818 20.7182 8.85012 20.2501 8.27273 20.2501C7.69534 20.2501 7.22727 20.7182 7.22727 21.2955V23.9091H4.09091V18.6818C4.09091 15.7948 6.43124 13.4545 9.31818 13.4545H9.7646Z" fill="currentColor"/>
</svg>
