<svg xmlns="http://www.w3.org/2000/svg" width="28" height="28" viewBox="-4 -2.042 28 28" overflow="visible"><path fill-rule="evenodd" clip-rule="evenodd" fill="currentColor" d="M5 17.935c-3.966-.053-3.972 3.97 0 4.023h10l.004-4.023H5zm7-8.968h-1V7.97h-.997v-.997H9V5.98l-2-.022v7l2-.006v-.998h1.002v-.997H11v-.992h1v-.998zM2 4.983C2 3.487 3.5 1.96 5 1.96h12v14H5c-1.227 0-2.225.302-3 .74V4.982zM.004 19.926H0V4.983C0 1.995 2 0 5 0h14v17.958h-2v6l-12-.046v.016C1.655 23.923-.01 21.92.005 19.926z"/></svg>