<svg xmlns="http://www.w3.org/2000/svg" width="28" height="28" viewBox="-2.016 -4 28 28" overflow="visible"><path fill="currentColor" d="M4 2h15c1.1 0 2 .894 2 2v3H1.984V4c0-1.106.92-2 2.016-2zm8.477 1.01c-.826 0-1.5.673-1.5 1.5s.675 1.503 1.5 1.503a1.503 1.503 0 1 0 0-3.004zm-3.986 0a1.5 1.5 0 0 0 0 3.002c.832 0 1.505-.676 1.505-1.5S9.32 3.01 8.49 3.01zM4.5 3.002A1.497 1.497 0 0 0 4.5 6c.83 0 1.496-.67 1.496-1.5S5.33 3 4.5 3zM21 9v7c0 1.102-.9 2-2 2H4c-1.096 0-2.016-.898-2.016-2V9H21zM3.497 0A3.51 3.51 0 0 0 0 3.502v13A3.51 3.51 0 0 0 3.497 20h15.99a3.507 3.507 0 0 0 3.497-3.497v-13A3.51 3.51 0 0 0 19.486 0H3.496z"/></svg>