<svg xmlns="http://www.w3.org/2000/svg" width="28" height="28" viewBox="-3 -3 28 28" overflow="visible"><path fill-rule="evenodd" clip-rule="evenodd" fill="currentColor" d="M2.75 0h1.01c.782 0 1.5.312 2.038.82A2.967 2.967 0 0 1 7.833 0h1.013c.774 0 1.486.306 2.02.805.54-.5 1.25-.805 2.03-.805h1.01a2.97 2.97 0 0 1 2.022.805c.54-.5 1.246-.805 2.025-.805h1.008C20.634 0 22 1.416 22 3.147v5.25c0 .136-.008.272-.028.41v9.562c0 2.013-1.598 3.63-3.542 3.63H3.256C1.312 22 0 20.39 0 18.37V3.146C0 1.416 1.08 0 2.75 0zM12 12.95V14c0 1.725-1.79 3-3.458 3H6.014C4.7 17 4.614 15 6 15h2.24c.712 0 1.76-.81 1.76-1.548V13c0-2-1-2-2-2H4c-1 0-2 1.256-2 2v.218h-.013L2 18c0 1.153.652 2 1.758 2h14.17C19.032 20 20 19.144 20 18v-7c-.307.11-.654 0-1 0h-1.008c-.78 0-1.452-.5-1.992-1-.538.5-1.28 1-2.055 1h-1.012C12.446 11 12 11 11 10c1 1 1 2.45 1 2.95zM17 3v5c.048.704.313 1 1 1h1c.626 0 .877-.385 1-1V3c0-.743-.282-1-1-1h-1c-.687 0-.952.298-1 1zm-2 5V3c-.032-.71-.305-1-1-1h-1c-.688 0-.955.298-1 1v5c.045.704.312 1 1 1h1c.695 0 .968-.292 1-1zm-5 0V3c-.036-.71-.31-1-1-1H8c-.716 0-1 .257-1 1v5c0 .744.284 1 1 1h1c.69 0 .964-.292 1-1zM2 8c.035.708.307 1 1 1h1c.716 0 1-.256 1-1V3c0-.743-.284-1-1-1H3c-.715 0-1 .257-1 1v5z"/></svg>