<?xml version="1.0" encoding="utf-8"?>
<!-- Generator: Adobe Illustrator 22.1.0, SVG Export Plug-In . SVG Version: 6.00 Build 0)  -->
<svg version="1.1" id="Layer_1" xmlns="http://www.w3.org/2000/svg" xmlns:xlink="http://www.w3.org/1999/xlink" x="0px" y="0px"
	 viewBox="0 0 29 21" style="enable-background:new 0 0 29 21;" xml:space="preserve">
<style type="text/css">
	.st0{fill:#F00E0F;}
</style>
<g>
	<path class="st0" d="M27.89,5.053c-0.442-2.262-2.225-3.97-4.438-4.251c-0.363-0.046-0.728-0.08-1.092-0.11
		c-0.875-0.073-1.753-0.117-2.63-0.158c-0.672-0.031-1.345-0.047-2.017-0.063l-0.211-0.005c-0.43-0.01-0.859-0.017-1.289-0.022
		L15.607,0.43l-0.068-0.009l-2.431,0.001l-1.574,0.042C10.675,0.482,9.816,0.5,8.957,0.53C8.011,0.564,7.066,0.625,6.123,0.691
		c-0.212,0.015-0.425,0.03-0.636,0.05C3.015,0.968,1.057,2.863,0.726,5.35C0.685,5.658,0.653,5.969,0.623,6.278
		C0.521,7.309,0.458,8.426,0.425,9.73l-0.007,1.38l0.056,1.104c0.026,0.617,0.053,1.234,0.095,1.85
		c0.044,0.65,0.103,1.348,0.231,2.04c0.389,2.1,2.059,3.722,4.155,4.036c0.459,0.069,0.924,0.107,1.388,0.135
		c1.252,0.074,2.505,0.144,3.758,0.191c0.681,0.026,1.363,0.037,2.045,0.047l1.048,0.026l3.863-0.041
		c0.878-0.018,1.755-0.034,2.633-0.067c1.032-0.038,2.063-0.104,3.092-0.186c0.264-0.021,0.529-0.046,0.789-0.08
		c2.105-0.271,3.784-1.854,4.276-4.034h0C28.356,13.881,28.38,7.565,27.89,5.053z M25.8,15.668c-0.296,1.31-1.276,2.257-2.5,2.415
		c-0.228,0.03-0.457,0.051-0.685,0.068c-1,0.08-2.002,0.144-3.004,0.182c-0.865,0.031-1.73,0.049-2.595,0.065l-3.725,0.045
		l-1.114-0.03c-0.665-0.01-1.331-0.02-1.995-0.045c-1.239-0.048-2.478-0.117-3.716-0.189c-0.4-0.023-0.801-0.056-1.199-0.115
		c-1.211-0.182-2.177-1.123-2.402-2.343c-0.108-0.587-0.161-1.212-0.201-1.8c-0.041-0.599-0.066-1.197-0.092-1.796l-0.054-2.21
		l0.015-0.181c0.024-1.21,0.083-2.272,0.18-3.25C2.741,6.198,2.77,5.912,2.808,5.627c0.201-1.509,1.382-2.658,2.873-2.795
		c0.195-0.018,0.392-0.032,0.588-0.046c0.92-0.064,1.841-0.124,2.763-0.157c0.849-0.03,1.697-0.047,2.546-0.065l1.194-0.026
		l0.381-0.017l3.029,0.021c0.423,0.006,0.845,0.012,1.269,0.022l0.212,0.005c0.656,0.016,1.313,0.031,1.969,0.062
		c0.852,0.04,1.703,0.082,2.552,0.153c0.334,0.028,0.669,0.058,1.003,0.101c1.312,0.167,2.374,1.2,2.642,2.571
		C26.284,7.79,26.202,13.886,25.8,15.668z"/>
	<path class="st0" d="M11.461,14.579c2.358-1.357,4.701-2.706,7.066-4.068C16.163,9.15,13.817,7.8,11.461,6.443
		C11.461,9.164,11.461,11.861,11.461,14.579z"/>
</g>
</svg>
