<svg xmlns="http://www.w3.org/2000/svg" width="96" height="48" viewBox="0 0 96 48"><path d="M41.46 14.343h-5.15V31.83h5.15c.132-.48.066-11.545.066-13.05 0-1.297.067-3.277-.066-4.437zM32.55 14.343h-5.153v6.897l-5.347.07v-6.967h-5.148l-.067 17.486h5.215v-6.9h5.346c.067 1.23-.13 6.353.067 6.9h5.018c.133-.548.068-11.477.068-13.05 0-1.297.132-3.277 0-4.437zM10.958 14.616a9.98 9.98 0 0 0-1.52-.342c-.395-.136-1.317-.136-1.647-.274H0v17.83c.725 0 4.885.066 5.148-.07.264-.41-.132-3.277.067-4.097 2.443 0 4.49 0 6.404-1.095 1.518-.89 2.77-2.253 3.102-4.44.594-3.755-.726-6.283-3.764-7.512zM8.516 23.77c-.857.68-2.046.75-3.368.75l.067-7.24c2.77 0 4.555.546 4.49 3.62 0 1.297-.462 2.323-1.19 2.87zM50.44 14.343h-5.15V31.83h9.31l.792-3.484-4.95-.07zM95.467 24.246c-1.253-2.595-4.555-2.937-6.47-3.96-1.98-1.026-1.52-2.665.794-2.87 2.178-.137 3.3.478 4.952.888 0-.615-.266-3.415-.465-3.757-.263-.343-3.035-.48-3.3-.547h-2.64l-.596.07c-.13.068-.328.068-.46.135-.857.138-1.916.48-2.576.958-.923.614-1.648 1.364-1.98 2.8-.33 1.434-.065 3.005.594 4.03 1.52 2.253 4.027 2.39 6.074 3.482 1.85.958 1.32 2.322.594 2.802-1.452.82-4.422.137-6.072-.274-.66-.205-1.453-.613-1.783-.683l.53 4.03c1.386.34 2.375.684 3.895.75 2.508.206 5.613 0 7.593-1.57.66-.546 1.12-1.297 1.45-2.185l.2-.82c0-.067.065-.067.065-.067v-2.05c-.197-.272-.264-.82-.396-1.162zM73.812 14h-3.17c-.13.07-3.828.273-4.358.343-.132 1.298-.065 3.074-.065 4.438 0 1.573-.067 12.502.064 13.05h5.085c.196-.685-.067-3.21.065-4.167 2.047-.205 3.895.34 6.47-1.095 3.83-2.186 4.094-7.99 1.52-10.587-1.915-1.91-5.218-1.842-5.613-1.98zm-2.376 10.52v-7.24c2.31-.07 4.62.342 4.555 3.553-.066 2.867-1.783 3.824-4.554 3.687zM57.24 14.343h5.15V31.83h-5.15z"/></svg>