<svg width="71" height="70" viewBox="0 0 71 70" fill="none" xmlns="http://www.w3.org/2000/svg">
<rect x="0.84375" width="70.1514" height="70" rx="35" fill="#007BB0"/>
<path fill-rule="evenodd" clip-rule="evenodd" d="M39.4724 20.8237L39.4724 26.6208L35.007 26.6208C30.3763 26.6208 26.6091 30.3799 26.6091 35.0005C26.6091 39.6211 30.3763 43.38 35.007 43.38H39.4724L39.4724 49.177H35.007C27.1605 49.177 20.7998 42.83 20.7998 35.0005C20.7998 27.171 27.1605 20.8237 35.007 20.8237L39.4724 20.8237ZM48.0083 37.962L48.0083 43.3799L39.4724 43.3799L39.4724 37.962L48.0083 37.962ZM39.4724 32.0388L39.4724 37.962H35.007C33.3704 37.962 32.039 36.6332 32.039 35.0004C32.039 33.3673 33.3704 32.0388 35.007 32.0388H39.4724ZM48.0083 26.6207V32.0389L39.4724 32.0389V26.6207L48.0083 26.6207Z" fill="white"/>
</svg>
