<svg width="70" height="70" viewBox="0 0 70 70" fill="none" xmlns="http://www.w3.org/2000/svg">
<rect width="70" height="70" rx="35" fill="#351F65"/>
<path d="M41.1958 26.1902L28.7533 26.1903C28.0304 26.1903 27.4033 26.433 26.9702 26.8515C26.5641 27.244 26.1355 27.9772 26.1355 29.352L26.1355 41.499C26.1355 41.86 26.3203 42.5176 26.8026 43.0706C27.2288 43.5592 27.8795 43.9613 28.9078 43.9613L41.7647 43.9613C42.0967 43.9613 42.6687 43.7995 43.1487 43.3468C43.573 42.9467 44.0122 42.2364 44.0122 40.9591V39.4924C44.0122 38.2506 45.0188 37.2439 46.2606 37.2439C47.5024 37.2439 48.509 38.2506 48.509 39.4924V40.9591C48.509 46.0517 44.6903 48.4582 41.7647 48.4582L28.9078 48.4582C23.9492 48.4582 21.6387 44.2934 21.6387 41.499L21.6387 29.352C21.6387 26.9607 22.4265 24.989 23.8452 23.6179C25.2369 22.2729 27.0429 21.6935 28.7533 21.6935L41.9083 21.6934C45.1158 21.6934 44.0079 26.1902 41.1958 26.1902Z" fill="white"/>
<path d="M45.6206 22.5723C46.5064 24.5292 45.3364 26.2959 44.0115 27.7306C43.449 28.3397 42.8528 28.9134 42.2639 29.4964C40.4671 31.2748 37.1254 34.5401 36.3568 35.2682C36.2398 35.3789 36.143 35.3955 36.1057 35.3961C36.0863 35.3964 36.0701 35.3933 36.0531 35.3864C36.0372 35.3799 36.0006 35.3621 35.9492 35.3106L32.4055 31.7669C31.5274 30.8888 30.1038 30.8888 29.2257 31.7669C28.3476 32.6449 28.3476 34.0686 29.2257 34.9466L32.7694 38.4904C34.7474 40.4683 37.6503 40.237 39.4493 38.5328C40.4804 37.5561 45.5739 32.5524 46.5215 31.6049C48.1605 29.9659 48.5605 27.4809 47.8747 25.4476C47.5544 24.498 46.5215 23.0589 45.6206 22.5723Z" fill="#FC704E"/>
</svg>
