<svg width="162" height="162" viewBox="0 0 162 162" fill="none" xmlns="http://www.w3.org/2000/svg">
<rect x="0.518555" y="0.602051" width="161.348" height="161.348" rx="80.6739" fill="#1A2E44"/>
<path d="M52.3852 60.9244C52.8406 60.0258 52.8399 60.0254 52.8399 60.0254C52.8526 60.0319 52.866 60.039 52.8785 60.046L81.1926 75.9452L109.453 60.0512L109.455 60.0498L109.462 60.0463L109.491 60.0296C109.519 60.0136 109.558 59.9925 109.605 59.9676C109.701 59.9179 109.835 59.8525 110.001 59.7813C110.334 59.6394 110.805 59.4708 111.376 59.3583C112.522 59.1325 114.097 59.1288 115.713 60.0471C117.615 61.1141 118.802 63.0954 118.802 65.2561L118.802 100.497C118.802 102.647 117.02 103.869 115.071 102.85L115.059 102.844L107.008 98.4983C106.682 98.3225 106.479 97.9821 106.479 97.6118L106.479 75.6388L84.2624 88.087C82.3618 89.1519 80.0241 89.1519 78.1235 88.087L55.9068 75.6388L55.9068 97.6089C55.9068 97.9645 55.7194 98.2937 55.4137 98.4752L48.1097 102.811C47.4708 103.212 46.45 103.463 45.516 103.229C45.0155 103.103 44.5071 102.828 44.1316 102.33C43.7579 101.833 43.584 101.206 43.584 100.497L43.584 65.2561C43.584 63.0943 44.7723 61.1121 46.676 60.0455L46.701 60.0319C48.2414 59.2252 49.7883 59.2362 50.9085 59.4275C51.4715 59.5236 51.9423 59.6676 52.2752 59.7887C52.4423 59.8494 52.5764 59.9051 52.6721 59.9472C52.72 59.9683 52.7585 59.9861 52.7867 59.9995L52.8215 60.0162L52.833 60.0219L52.8373 60.0241L52.8399 60.0254L52.3852 60.9244Z" fill="#22D172"/>
<path d="M104.75 53.1216L104.752 53.1204C105.535 52.6804 105.965 51.9141 105.946 51.1088C105.928 50.3249 105.483 49.5929 104.735 49.2046L84.0344 37.6063C82.1338 36.5414 79.7961 36.5414 77.8955 37.6063L57.0835 49.2093C57.0731 49.2152 57.0628 49.2212 57.0527 49.2273C56.3139 49.6763 55.8586 50.4022 55.9043 51.2169C55.9477 51.9908 56.4369 52.634 57.1247 52.9507C58.5847 53.7626 60.5998 54.8859 62.2525 55.8078C64.3926 57.0014 66.9988 56.9994 69.1368 55.8015L78.8804 50.4001C80.1691 49.678 81.7608 49.678 83.0495 50.4001L92.8709 55.9028C95.0073 57.0998 97.6113 57.1033 99.7506 55.9104C101.355 55.0157 103.302 53.9299 104.75 53.1216Z" fill="#F3F6FC"/>
<path d="M55.4574 108.565C55.4511 108.569 55.4449 108.573 55.4387 108.577C54.6322 109.107 54.3409 109.918 54.4496 110.666C54.5396 111.286 54.9253 111.929 55.5355 112.218L77.8909 124.944L77.8946 124.946C79.7952 126.011 82.1329 126.011 84.0335 124.946L106.873 112.141L106.894 112.129C107.613 111.703 107.993 110.987 107.957 110.243C107.923 109.536 107.513 108.877 106.843 108.542L99.5413 104.596C98.9647 104.238 98.2214 104.184 97.6838 104.211C97.1476 104.238 96.4837 104.364 96.014 104.664L83.0486 111.936C81.7608 112.658 80.1705 112.658 78.8823 111.938L78.8795 111.936L65.8351 104.428C65.3105 104.11 64.6945 103.989 64.134 103.993C63.5654 103.997 62.9612 104.129 62.4488 104.418L55.4783 108.552C55.4713 108.556 55.4643 108.56 55.4574 108.565Z" fill="#F3F6FC"/>
</svg>
