<svg xmlns="http://www.w3.org/2000/svg" width="115" height="48" viewBox="0 0 115 48"><path d="M11.358 18.802c-.523-.543-1.072-.958-1.647-1.24-.575-.28-1.26-.423-2.054-.423-.773 0-1.45.14-2.023.423-.577.28-1.057.67-1.443 1.16a5.23 5.23 0 0 0-.88 1.695c-.197.64-.296 1.3-.296 1.992 0 .69.114 1.344.345 1.96a4.93 4.93 0 0 0 .972 1.616c.418.46.92.822 1.506 1.082.586.262 1.245.393 1.978.393.794 0 1.474-.142 2.038-.423.565-.283 1.09-.695 1.568-1.238l2.01 2.005c-.733.818-1.585 1.402-2.558 1.758a8.9 8.9 0 0 1-3.09.535c-1.15 0-2.202-.188-3.153-.565a7.255 7.255 0 0 1-2.463-1.584 6.997 6.997 0 0 1-1.6-2.448C.187 24.55 0 23.5 0 22.348c0-1.15.188-2.207.564-3.168A7.25 7.25 0 0 1 2.15 16.7a7.216 7.216 0 0 1 2.446-1.615c.952-.387 2.014-.58 3.185-.58 1.09 0 2.13.193 3.125.58a6.886 6.886 0 0 1 2.588 1.773l-2.135 1.944zM15.908 16.668a7.866 7.866 0 0 1 2.76-1.647 9.478 9.478 0 0 1 3.14-.547c1.085 0 2.022.136 2.807.407.784.27 1.427.64 1.928 1.1.503.46.874.986 1.115 1.584.24.595.36 1.217.36 1.866v7.59c0 .524.01 1.005.033 1.444.02.44.053.857.096 1.256h-2.51a27.105 27.105 0 0 1-.094-2.26h-.063c-.63.963-1.37 1.643-2.228 2.04-.86.396-1.852.595-2.982.595-.69 0-1.348-.094-1.976-.28a4.816 4.816 0 0 1-1.648-.85 4.06 4.06 0 0 1-1.114-1.395c-.27-.555-.407-1.196-.407-1.932 0-.96.214-1.764.644-2.414.428-.646 1.012-1.176 1.756-1.584.744-.408 1.61-.7 2.604-.88a18.16 18.16 0 0 1 3.185-.265h2.07v-.627c0-.375-.073-.753-.22-1.13s-.365-.715-.657-1.02A3.16 3.16 0 0 0 23.41 17c-.44-.177-.962-.266-1.57-.266-.543 0-1.02.05-1.427.157-.408.103-.78.234-1.113.392-.334.156-.64.34-.91.548-.273.21-.534.408-.785.596l-1.697-1.758zm7.97 5.9c-.67 0-1.355.035-2.056.108-.7.073-1.34.214-1.915.423-.575.21-1.045.5-1.412.878-.367.377-.55.856-.55 1.442 0 .856.29 1.476.863 1.85.575.38 1.355.566 2.337.566.774 0 1.432-.13 1.977-.394.544-.26.982-.6 1.317-1.02.334-.418.575-.883.72-1.396.147-.512.22-1.02.22-1.52v-.94h-1.503v.002zM32.348 6h2.825v23.72h-2.825V6zM42.105 23.32c0 .646.14 1.238.423 1.77.283.536.654.99 1.114 1.366.46.377.994.67 1.6.88a5.782 5.782 0 0 0 1.883.313c.88 0 1.642-.206 2.29-.614a7.332 7.332 0 0 0 1.79-1.615l2.134 1.632c-1.57 2.03-3.766 3.045-6.59 3.045-1.172 0-2.233-.2-3.185-.596-.952-.397-1.758-.946-2.417-1.647a7.262 7.262 0 0 1-1.52-2.48c-.358-.95-.534-1.98-.534-3.087 0-1.11.192-2.14.58-3.092a7.67 7.67 0 0 1 1.602-2.48 7.308 7.308 0 0 1 2.43-1.647c.942-.396 1.965-.594 3.075-.594 1.32 0 2.433.23 3.342.69.91.46 1.658 1.062 2.244 1.803a7.167 7.167 0 0 1 1.27 2.51c.262.932.393 1.876.393 2.84v1.003H42.104zm8.91-2.258a5.972 5.972 0 0 0-.297-1.728 3.755 3.755 0 0 0-.8-1.364 3.68 3.68 0 0 0-1.333-.91c-.533-.22-1.156-.33-1.867-.33-.69 0-1.323.13-1.898.393a4.623 4.623 0 0 0-2.385 2.415c-.22.514-.33 1.02-.33 1.52h8.91v.004zM57.105 14.85h2.823v2.29h.063c.357-.795.975-1.438 1.854-1.93.877-.492 1.893-.737 3.045-.737.708 0 1.395.108 2.052.327.66.22 1.232.56 1.727 1.02.49.46.883 1.05 1.175 1.774.295.722.44 1.574.44 2.557v9.57H67.46v-8.786c0-.688-.093-1.28-.28-1.77-.19-.492-.44-.89-.756-1.192a2.834 2.834 0 0 0-1.082-.66 3.98 3.98 0 0 0-1.27-.204 4.6 4.6 0 0 0-1.63.283 3.39 3.39 0 0 0-1.32.896c-.376.408-.668.926-.878 1.553-.208.627-.313 1.37-.313 2.228v7.656h-2.823l-.002-14.875zM89.454 29.72H86.63v-2.134h-.062c-.545.797-1.293 1.412-2.245 1.852-.95.44-1.93.66-2.933.66-1.15 0-2.192-.2-3.123-.596-.93-.398-1.727-.953-2.385-1.664s-1.166-1.535-1.52-2.48c-.356-.94-.534-1.964-.534-3.074 0-1.108.178-2.14.533-3.09s.864-1.778 1.522-2.48c.66-.7 1.454-1.25 2.385-1.647.93-.397 1.972-.595 3.123-.595 1.066 0 2.07.225 3.012.675.943.45 1.664 1.062 2.166 1.835h.062V6h2.823v23.72zm-7.72-2.26c.754 0 1.433-.13 2.04-.392a4.464 4.464 0 0 0 1.536-1.066 4.73 4.73 0 0 0 .975-1.63c.23-.638.343-1.333.343-2.087a6.14 6.14 0 0 0-.343-2.087 4.68 4.68 0 0 0-.975-1.63 4.483 4.483 0 0 0-1.537-1.068c-.606-.26-1.285-.393-2.04-.393s-1.432.132-2.036.393a4.48 4.48 0 0 0-1.538 1.068c-.42.45-.745.993-.975 1.63-.23.64-.346 1.333-.346 2.087s.114 1.45.345 2.086c.23.64.555 1.183.974 1.632.416.45.93.807 1.537 1.066.605.265 1.283.393 2.037.393zM93.94 6h2.823v23.72H93.94V6zM99.494 14.85h3.264l4.403 11.607h.064l4.225-11.608h3.01l-7.058 18.07c-.252.65-.512 1.24-.782 1.773s-.593.99-.97 1.365a3.85 3.85 0 0 1-1.358.88c-.53.208-1.18.312-1.953.312-.417 0-.84-.026-1.267-.078a4.566 4.566 0 0 1-1.233-.332l.342-2.57c.562.23 1.125.345 1.686.345.435 0 .803-.06 1.105-.172.3-.115.562-.283.778-.502.22-.22.4-.477.546-.77s.292-.627.438-1.004l.914-2.353-6.154-14.964z"/></svg>