<svg xmlns="http://www.w3.org/2000/svg" width="140" height="140" viewBox="0 0 140 140"><path fill="#A4A8AB" d="M60.752 129.74c-3.706 0-7.03-1.805-12.143-4.75L18.86 107.833C7.757 101.42 6.612 99.448 6.598 86.746l-.012-34.34c-.002-12.824 1.132-14.8 12.13-21.16l29.728-17.184c5.188-2.996 8.552-4.83 12.25-4.83 3.706 0 7.028 1.805 12.142 4.755L102.58 31.14c11.106 6.413 12.257 8.383 12.262 21.083l.02 34.345c.003 12.82-1.13 14.797-12.132 21.162l-29.727 17.184c-5.19 2.986-8.554 4.826-12.25 4.826zm-.06-117.216c-2.103 0-4.665 1.35-9.622 4.21L19.715 34.862c-9.5 5.494-9.5 5.494-9.498 16.61l.014 36.216c.012 10.975.012 10.975 9.64 16.538l31.37 18.09c5.058 2.914 7.495 4.14 9.515 4.14 2.098 0 4.664-1.357 9.62-4.217l31.354-18.118c9.503-5.497 9.503-5.497 9.5-16.618l-.018-36.214c-.01-10.973-.01-10.973-9.64-16.533L70.207 16.657c-5.06-2.914-7.498-4.133-9.516-4.133z"/><path fill="#00C0E5" d="M60.827 18.584c3.744 0 6.797-3.053 6.797-6.79C67.624 8.05 64.57 5 60.827 5c-3.74 0-6.788 3.048-6.788 6.793 0 3.74 3.05 6.79 6.787 6.79z"/><path fill="#F0516F" d="M109.438 103.69c3.66 0 6.648-2.984 6.648-6.646 0-3.658-2.988-6.647-6.648-6.647-3.66 0-6.646 2.99-6.646 6.647 0 3.662 2.983 6.646 6.644 6.646h.002z"/><path fill="#B2D235" d="M10.73 103.87c3.758 0 6.825-3.066 6.825-6.826S14.49 90.22 10.73 90.22s-6.827 3.065-6.827 6.824c0 3.76 3.067 6.826 6.826 6.826z"/><path fill="#B2D235" d="M50.462 73.057l1.032 1.8-40.268 23.066-1.033-1.802 40.27-23.063z"/><path fill="#F0516F" d="M69.733 73.04l40.225 23.11-1.034 1.8-40.226-23.11 1.035-1.8z"/><path fill="#00C0E5" d="M59.76 11.793h2.075v46.383H59.76V11.793z"/><path fill="#F0516F" d="M60.095 80.753c-6.647 0-12.058-5.41-12.058-12.057 0-6.648 5.41-12.056 12.058-12.056 6.65 0 12.06 5.41 12.06 12.06s-5.41 12.056-12.06 12.056v-.003zm0-17.887a5.835 5.835 0 0 0-5.83 5.83 5.84 5.84 0 0 0 5.83 5.833 5.833 5.833 0 0 0 5.83-5.83 5.833 5.833 0 0 0-5.83-5.83v-.004z"/></svg>