<svg id="Layer_1" data-name="Layer 1" xmlns="http://www.w3.org/2000/svg" viewBox="0 0 140 140"><defs><style>.cls-1{fill:#b2d235;}.cls-2{fill:#f0516f;}.cls-3{fill:#a4a8ab;}</style></defs><title>Artboard 1</title><line class="cls-1" x1="39.42" y1="67.47" x2="39.36" y2="85.5"/><path class="cls-1" d="M38.27,63.66v0l0,0-.06,25.29.1.07,20.86,12.19V75.85ZM41.09,80V76l3.39,2v4Zm3.38,5.33v4l-3.39-2v-4ZM41.11,72.65v-4l3.39,2v4ZM56.17,96.13,47.33,91V87l8.84,5.17Zm0-7.33-8.84-5.17v-4l8.84,5.17Zm0-7.33-8.84-5.17v-4l8.84,5.17Z"/><path class="cls-2" d="M94,59.85c-1,.63-2.53-.8-3.5-2.57l-2.88-5.47-.08,0v4.51l1.69,3.28c1.67,3.06,4.37,4.23,6,3.15l9.83-6.4V52.62Z"/><path class="cls-2" d="M97.39,67.24c0,1.69-1.11,2.41-2.47,1.6l-7.86-4.65a5.77,5.77,0,0,1-2.47-4.53V49.56c0-1.69,1.11-2.41,2.47-1.6l7.86,4.65a5.17,5.17,0,0,1,1.83,2.1l1.91-1.24A8.86,8.86,0,0,0,95.55,50L86.14,44.4c-2.36-1.4-4.27-.16-4.27,2.77V58.84a10,10,0,0,0,4.27,7.82l9.41,5.57c2.36,1.4,4.27.16,4.27-2.77V63.66l-2.43,1.58Z"/><path class="cls-3" d="M28.94,84.6V53.9a3.51,3.51,0,0,1,5.28-3l22,12.79,0,3.07a2.24,2.24,0,0,0,.67,1.49,1.34,1.34,0,0,0,.91.46h.09l6.76-.94a.67.67,0,0,0,.53-.41,1.72,1.72,0,0,0-.3-1.55L58.22,56a1.58,1.58,0,0,0-1.2-.81.74.74,0,0,0-.72.82l0,3.34V60L36.06,48.22a9.61,9.61,0,0,0-4.78-1.47,5.19,5.19,0,0,0-4,1.77,7,7,0,0,0-1.54,4.63V84.27c0,10.35.84,11.79,9.89,17l2.57,1.48V99l-1.23-.71C29,93.75,29,93.62,28.94,84.6Z"/><path class="cls-3" d="M104.39,38.69,79.78,24.49a11.64,11.64,0,0,0-5.38-1.66,4.86,4.86,0,0,0-4.33,2.39,10.19,10.19,0,0,0-1.35,5.38v79.72c0,2.81-1.74,3.8-3.24,3.8a4.52,4.52,0,0,1-2.2-.62l-1.15-.66-8.22-4.74,0-3.71a2.24,2.24,0,0,0-.67-1.49,1.34,1.34,0,0,0-.91-.46h-.09l-6.76.94a.67.67,0,0,0-.53.41,1.72,1.72,0,0,0,.3,1.55l6.6,9.81a1.58,1.58,0,0,0,1.2.81.74.74,0,0,0,.72-.82l0-3.34,6.37,3.67.61.36c.18.11.33.2.66.38a8.68,8.68,0,0,0,4.09,1.12A6.4,6.4,0,0,0,72,111V30.2c0-3.55,2.56-3.82,3.34-3.82a5.22,5.22,0,0,1,2.58.74l25.19,14.53c7.91,4.57,8,4.7,8,13.72V84.45a3.77,3.77,0,0,1-1.31,2.89,4.63,4.63,0,0,1-3,1.08,5.79,5.79,0,0,1-2.9-.81L75.74,71.29V75l.15.09c10.16,5.95,22.9,13.39,25.92,15.07a11.74,11.74,0,0,0,5.61,1.51,6.89,6.89,0,0,0,4.8-1.72c1.38-1.31,2.08-3.29,2.08-5.89l0-28.43C114.28,45.35,113.45,43.92,104.39,38.69Z"/><path class="cls-3" d="M126.39,52.16c0-13.19-1.2-15.24-12.74-21.9L82.76,12.44C77.44,9.37,74,7.5,70.14,7.5s-7.34,1.91-12.72,5L26.54,30.37C15.11,37,13.94,39,13.94,52.35V88c0,13.19,1.2,15.24,12.74,21.9l30.9,17.82c5.31,3.06,8.76,4.93,12.61,4.93h0c3.84,0,7.33-1.91,12.72-5l30.88-17.85c11.43-6.61,12.61-8.67,12.6-22Zm-4.12,45a7.21,7.21,0,0,1-2.6,4.48c-1.77,1.87-4.42,3.58-8.37,5.86l-29.1,16.82c-3.94,2.26-6.8,3.84-9.57,4.45a6.35,6.35,0,0,1-4.81,0c-2.77-.59-5.61-2.14-9.5-4.38L29.2,107.62c-4-2.33-6.73-4.07-8.52-6a7.2,7.2,0,0,1-2.57-4.43c-.75-2.48-.91-5.64-.91-10.25V53.37c0-4.67.15-7.87.9-10.37a7.19,7.19,0,0,1,2.56-4.44c1.77-1.88,4.43-3.6,8.41-5.9l29.1-16.82c4-2.28,6.82-3.86,9.61-4.46a6.35,6.35,0,0,1,4.73,0c2.79.58,5.63,2.14,9.54,4.39l29.11,16.79c4.07,2.35,6.78,4.09,8.57,6a7.17,7.17,0,0,1,2.52,4.36c.75,2.48.91,5.65.91,10.27l0,33.62C123.17,91.48,123,94.68,122.27,97.18Z"/></svg>