<!DOCTYPE svg PUBLIC "-//W3C//DTD SVG 1.1//EN" "http://www.w3.org/Graphics/SVG/1.1/DTD/svg11.dtd" [
	<!ENTITY ns_flows "http://ns.adobe.com/Flows/1.0/">
]><svg xmlns="http://www.w3.org/2000/svg" width="140" height="140" viewBox="-15.03 -9.449 140 140" overflow="visible"><path fill-rule="evenodd" clip-rule="evenodd" fill="#A4A8AB" d="M3.74 66.02c0 1.03-.837 1.87-1.87 1.87-1.033 0-1.87-.84-1.87-1.87V39.623c0-4.465.35-7.246 1.774-9.627 1.412-2.36 3.713-4.03 7.627-6.29.037-.02.07-.038.106-.055l17.43-10.06-.002-.004 6.943-4.01L44.78 3.282c3.87-2.234 6.454-3.323 9.216-3.28 2.76.042 5.357 1.202 9.272 3.463L80.8 13.585l.097.06 6.84 3.95.006.003.002-.003 10.903 6.295.1.06c3.81 2.21 6.018 3.895 7.35 6.287 1.344 2.41 1.638 5.236 1.638 9.75v25.78c0 1.03-.838 1.87-1.87 1.87-1.033 0-1.87-.84-1.87-1.87v-25.78c0-3.888-.21-6.24-1.155-7.94-.934-1.678-2.746-3.014-5.96-4.873a1.652 1.652 0 0 1-.1-.055l-10.904-6.297.003-.003-6.84-3.95a1.19 1.19 0 0 1-.108-.054L61.4 6.693c-3.363-1.942-5.502-2.937-7.446-2.966-1.94-.03-4.027.892-7.302 2.783l-10.904 6.295-6.943 4.01-.002-.004-.005.006-17.43 10.062-.095.06c-3.364 1.942-5.296 3.3-6.298 4.975-.99 1.656-1.233 3.924-1.233 7.71V66.02z"/><path fill-rule="evenodd" clip-rule="evenodd" fill="#F8F8F8" d="M103.79 89.985l-20.23 11.68-7.97 4.602-12.518 7.23c-8.204 4.734-10.72 4.614-19.078-.21l-20.127-11.62-7.97-4.603L3.74 89.926 3.654 79.16l12.243 7.066 7.97 4.603 20.128 11.62c8.357 4.823 10.874 4.944 19.078.206l12.52-7.226 7.97-4.602 20.127-11.62.1-.06v10.837zM3.654 79.14l-.015-1.846 4.12-.525-4.02 2.32-.087.05zm97.18-1.698l2.955 1.708v-1.855l-2.958.147z"/><path fill-rule="evenodd" clip-rule="evenodd" fill="#A4A8AB" d="M103.184 80.226L83.98 91.366l-7.933 4.604-.034.02-12.426 7.206v.002c-4.18 2.424-6.932 3.606-9.753 3.563-2.822-.042-5.604-1.307-9.854-3.77l-.03-.02-20-11.602h-.002l-7.934-4.602-.03-.02-11.22-6.506.077 9.33 11.768 6.94.025.014 7.933 4.604 19.998 11.6.035.02c4.066 2.358 6.696 3.568 9.25 3.607 2.55.04 5.137-1.087 9.12-3.398l12.426-7.207.03-.02 7.936-4.602h.002l19.82-11.498v-9.404zm1.977 12.564l-19.936 11.566c-.06.033-.115.064-.173.094l-7.772 4.508-12.45 7.222.002.006c-4.576 2.654-7.654 3.947-11.024 3.896-3.362-.052-6.45-1.427-11.067-4.104a1.93 1.93 0 0 1-.16-.1l-19.86-11.52-.01-.005-.003.005-7.934-4.603a3 3 0 0 1-.153-.095L2.664 92.605a3.102 3.102 0 0 1-1.527-2.708l-.102-10.663a3.106 3.106 0 0 1 1.55-2.718l.08-.046.1-.058L22.72 64.838l3.787-2.197c2.01-1.165 4 1.924 2.125 3.01L24.6 67.99l-.03.02L5.36 79.15l11.24 6.52.036.02 7.933 4.603v.002l19.996 11.6.035.02c4.067 2.358 6.697 3.568 9.25 3.607 2.55.037 5.135-1.087 9.12-3.4v.002L75.4 94.91l.03-.02 7.936-4.6h.002l19.202-11.14-11.273-6.54v-.002l-7.93-4.6-3.496-2.026c-2.227-1.294.34-4.047 2.467-2.812l2.876 1.668.01.005.004-.005 7.933 4.602c.055.032.107.065.158.1l12.03 6.978a3.105 3.105 0 0 1 1.55 2.69h.013v10.777a3.124 3.124 0 0 1-1.75 2.805z"/><path fill-rule="evenodd" clip-rule="evenodd" fill="#7EC108" d="M44.884 31.574h17.132c1.025 0 1.857.838 1.857 1.87V53.8h9.878c1.026 0 1.857.837 1.857 1.87 0 .468-.17.896-.45 1.224L65.087 70.62l-10.15 13.835a1.844 1.844 0 0 1-2.995-.027l-10.13-13.81-10.15-13.838a1.872 1.872 0 0 1 .384-2.608c.332-.248.72-.367 1.103-.367V53.8h9.876V33.444c0-1.032.832-1.87 1.857-1.87zm15.277 3.74H46.74V55.67c0 1.033-.83 1.87-1.856 1.87h-8.06l7.963 10.857 8.663 11.81 8.664-11.81L70.08 57.54h-8.063a1.863 1.863 0 0 1-1.855-1.87V35.315z"/></svg>