<svg xmlns="http://www.w3.org/2000/svg" width="140" height="140" viewBox="0 0 140 140"><path fill="#A4A8AB" d="M69.514 131.508c-3.798 0-7.205-1.85-12.444-4.867l-30.488-17.586c-11.382-6.572-12.556-8.592-12.57-21.61L14 52.25c-.002-13.144 1.16-15.17 12.43-21.687L56.9 12.95C62.218 9.88 65.665 8 69.455 8c3.798 0 7.203 1.85 12.443 4.873l30.485 17.58c11.382 6.572 12.563 8.592 12.567 21.608l.02 35.2c.002 13.138-1.158 15.166-12.434 21.69L82.07 126.56c-5.32 3.062-8.767 4.948-12.556 4.948zm-.062-120.133c-2.154 0-4.78 1.385-9.86 4.316L27.455 34.268c-9.736 5.63-9.736 5.63-9.734 17.022l.016 37.117c.01 11.248.01 11.248 9.877 16.95l32.15 18.542c5.185 2.984 7.684 4.24 9.753 4.24 2.15 0 4.78-1.39 9.86-4.32l32.134-18.57c9.74-5.634 9.74-5.634 9.736-17.03l-.017-37.117c-.01-11.246-.01-11.246-9.88-16.944L79.204 15.61c-5.185-2.986-7.685-4.235-9.753-4.235z"/></svg>