<svg xmlns="http://www.w3.org/2000/svg" width="140" height="140" viewBox="0 0 140 140"><path fill="#A4A8AB" d="M60.752 129.74c-3.706 0-7.03-1.805-12.143-4.75L18.86 107.833C7.757 101.42 6.612 99.448 6.598 86.746l-.012-34.34c-.002-12.824 1.132-14.8 12.13-21.16l29.728-17.184c5.188-2.996 8.552-4.83 12.25-4.83 3.706 0 7.028 1.805 12.142 4.755L102.58 31.14c11.106 6.413 12.257 8.383 12.262 21.083l.02 34.345c.003 12.82-1.13 14.797-12.132 21.162l-29.727 17.184c-5.19 2.986-8.554 4.826-12.25 4.826zm-.06-117.216c-2.103 0-4.665 1.35-9.622 4.21L19.715 34.862c-9.5 5.494-9.5 5.494-9.498 16.61l.014 36.216c.012 10.975.012 10.975 9.64 16.538l31.37 18.09c5.058 2.914 7.495 4.14 9.515 4.14 2.098 0 4.664-1.357 9.62-4.217l31.354-18.118c9.503-5.497 9.503-5.497 9.5-16.618l-.018-36.214c-.01-10.973-.01-10.973-9.64-16.533L70.207 16.657c-5.06-2.914-7.498-4.133-9.516-4.133z"/><path fill="#00C0E5" d="M35.674 74.575a4.597 4.597 0 0 0 4.586-4.59c0-2.53-2.06-4.59-4.586-4.59a4.6 4.6 0 0 0-4.592 4.587 4.6 4.6 0 0 0 4.592 4.59v.003zM63.93 89.73a4.6 4.6 0 0 0 4.588-4.59 4.6 4.6 0 0 0-4.59-4.59 4.596 4.596 0 0 0-4.59 4.59 4.597 4.597 0 0 0 4.587 4.59h.005zM78.29 63.527a4.6 4.6 0 0 0 4.59-4.59c0-2.527-2.06-4.59-4.59-4.59a4.597 4.597 0 0 0-4.587 4.59 4.6 4.6 0 0 0 4.588 4.586v.004z"/><path fill="#00C0E5" d="M11.554 98.135l-1.536-1.39 25.43-28.058 28.065 15.05 14.004-25.54 30.297-18.747 1.09 1.76L79.07 59.674 64.344 86.537 35.898 71.28"/><path fill="#FFF" d="M108.36 48.01c4.225 0 7.675-3.45 7.675-7.68 0-4.228-3.45-7.678-7.678-7.678s-7.68 3.448-7.68 7.68c0 4.23 3.455 7.68 7.682 7.68z"/><path fill="#B2D235" d="M108.36 51.12c-5.95 0-10.788-4.84-10.788-10.787s4.84-10.784 10.787-10.784c5.946 0 10.784 4.84 10.784 10.786 0 5.947-4.838 10.788-10.785 10.788v-.004zm0-15.36a4.573 4.573 0 0 0-4.57 4.572c0 2.52 2.05 4.57 4.57 4.57 2.52 0 4.568-2.052 4.568-4.57 0-2.52-2.047-4.57-4.57-4.57z"/><path fill="#FFF" d="M10.787 105.115c4.227 0 7.678-3.45 7.678-7.678s-3.448-7.678-7.678-7.678-7.68 3.452-7.68 7.68c0 4.224 3.446 7.675 7.678 7.675h.002z"/><path fill="#F0516F" d="M10.787 108.225C4.842 108.225 0 103.387 0 97.435c0-5.95 4.842-10.785 10.787-10.785 5.947 0 10.786 4.84 10.786 10.787 0 5.95-4.84 10.788-10.786 10.788zm0-15.358c-2.52 0-4.57 2.053-4.57 4.57s2.047 4.57 4.568 4.57c2.52 0 4.568-2.053 4.568-4.57s-2.048-4.57-4.568-4.57h.002z"/></svg>