<?xml version="1.0" encoding="utf-8"?>
<!-- Generator: Adobe Illustrator 21.0.0, SVG Export Plug-In . SVG Version: 6.00 Build 0)  -->
<svg version="1.1" id="Layer_1" xmlns="http://www.w3.org/2000/svg" xmlns:xlink="http://www.w3.org/1999/xlink" x="0px" y="0px"
	 viewBox="0 0 140 140" style="enable-background:new 0 0 140 140;" xml:space="preserve">
<style type="text/css">
	.st0{fill:#00C0E5;}
	.st1{fill:#A4A8AB;}
	.st2{fill:#F0516F;}
</style>
<ellipse transform="matrix(0.5277 -0.8494 0.8494 0.5277 -20.1317 129.3729)" class="st0" cx="106.3" cy="82.8" rx="3.7" ry="3.7"/>
<ellipse transform="matrix(0.5277 -0.8494 0.8494 0.5277 -28.0594 147.0574)" class="st1" cx="118.2" cy="98.8" rx="3.7" ry="3.7"/>
<path class="st0" d="M71.5,37.3c19.2,0,34.7,15.5,34.7,34.7c0,3.4-0.5,6.7-1.4,9.8l2.9,1.2c1.1-3.5,1.6-7.2,1.6-11
	c0-20.9-17-37.9-37.9-37.9S33.6,51.1,33.6,72c0,12.2,5.7,23,14.6,29.9v-4.1c-7-6.4-11.5-15.5-11.5-25.8
	C36.8,52.8,52.3,37.3,71.5,37.3z"/>
<path class="st1" d="M64.7,123.4C39.2,120.1,19.6,98.4,19.6,72c0-28.7,23.2-51.9,51.9-51.9s51.9,23.2,51.9,51.9
	c0,9.4-2.5,18.1-6.8,25.7l3.1,1.9c4.7-8.1,7.4-17.6,7.4-27.6c0-30.7-24.8-55.5-55.5-55.5S16,41.3,16,72c0,29.4,22.8,53.4,51.6,55.4
	L64.7,123.4z"/>
<g>
	<path class="st1" d="M51.6,53.4c-0.8,0.8-0.8,2.1,0,2.9L62.2,67l3-2.8L54.4,53.4C53.7,52.6,52.4,52.6,51.6,53.4z"/>
	<path class="st1" d="M102,41.9c-0.8-0.8-2.1-0.8-2.9,0L77,64l2.9,2.8L102,44.8C102.8,44,102.8,42.7,102,41.9z"/>
</g>
<path class="st2" d="M66.2,87.1C59.9,84.9,55.5,79,55.5,72c0-8.8,7.2-16,16-16s16,7.2,16,16c0,3.8-1.3,7.3-3.5,10l2.7,1.1l0.5,0.7
	c2.5-3.3,4-7.3,4-11.8c0-10.8-8.8-19.6-19.6-19.6S51.9,61.2,51.9,72c0,9,6,16.5,14.2,18.8V87.1z"/>
<path class="st1" d="M100.5,98.6l0-3.9c0-3-1.2-4.9-2.2-5.9c-1.3-1.3-3.1-2.1-5-2.1c-1.3,0-2.7,0.4-3.8,1.1c0-0.3,0-0.6,0-0.8
	c0-2.2-0.7-4.1-2.1-5.6c-1.3-1.4-3.2-2.2-5.2-2.2c-1.3,0-2.4,0.3-3.4,0.9c0-2.9,0-5.7,0-8.1c0-4-3.2-7.2-7.3-7.2c-3.4,0-7,2.6-7,7.5
	c-0.1,4,0,26.8,0,27.7l0,0.2c0,0.2,0,0.6-0.2,0.8c-0.1,0.1-0.4,0.2-0.6,0.2c-0.3,0-0.6-0.1-0.8-0.3c-1.2-1.1-1.5-1.5-2.6-2.7
	c-0.4-0.4-0.9-1-1.5-1.7c-1.4-1.6-3.3-2.4-5.4-2.4c-2.6,0-5,1.5-6.2,3.7c-1.3,2.4-1,5.2,0.8,7.8c1.7,2.5,10.3,13,15.8,19.7
	c4.3,5.1,10.5,8.1,17.1,8.1c5.4,0,10.4-2,14-5.7c3.9-3.9,5.9-9.5,5.8-16C100.4,107.6,100.5,103.6,100.5,98.6z M97,111.7
	c0.3,19.8-20.9,23.1-30.7,11.3c-6.3-7.6-14.1-17.2-15.6-19.4c-3.1-4.5,2.4-8,5.3-4.7c2.4,2.7,2.5,2.9,4.3,4.6
	c2.7,2.6,7.8,1.2,7.5-3.4c0,0-0.1-23.6,0-27.7c0.1-5.8,7.3-4.8,7.3-0.3c0,7.7,0.1,21,0,23.6c-0.1,2.8,3.5,2.8,3.5,0.1
	c0-5.7,0-7,0-9.4c0.1-5,7.3-4.7,7.2,0.6c-0.1,7.3-0.1,10,0,12.4c0.1,2.4,3.7,2.6,3.7-0.1s0-3.2,0-5.1c0-5.1,7.4-5.4,7.3,0.5
	C97,101.6,96.9,106.7,97,111.7z"/>
</svg>
