<!DOCTYPE svg PUBLIC "-//W3C//DTD SVG 1.1//EN" "http://www.w3.org/Graphics/SVG/1.1/DTD/svg11.dtd" [
	<!ENTITY ns_flows "http://ns.adobe.com/Flows/1.0/">
]><svg xmlns="http://www.w3.org/2000/svg" width="140" height="140" viewBox="-8.408 -9.041 140 140" overflow="visible"><path fill-rule="evenodd" clip-rule="evenodd" fill="#A4A8AB" d="M10.397 46.984a1.873 1.873 0 0 1-3.745 0v-7.408c0-4.48.365-7.246 1.807-9.606 1.425-2.336 3.737-3.977 7.65-6.236L40.614 9.587c.034-.02.068-.04.104-.056l10.81-6.24v-.004C55.405 1.05 57.99-.04 60.757.002c2.762.042 5.36 1.203 9.282 3.467L87.59 13.6l.097.06 6.847 3.953 10.916 6.302.006.003.002-.003c3.873 2.237 6.11 3.932 7.458 6.353 1.344 2.412 1.64 5.24 1.64 9.763V60.3h-.008l-.002 8.025.002 12.604h.007c0 4.467-.352 7.252-1.776 9.636-1.416 2.363-3.72 4.033-7.638 6.296l-35.42 20.447c-3.876 2.236-6.46 3.325-9.227 3.283-2.755-.043-5.355-1.204-9.275-3.467l-.004-.003-.002.003-6.247-3.607a1.867 1.867 0 1 1 1.872-3.232l6.247 3.604v.003c3.36 1.942 5.502 2.936 7.454 2.966 1.942.03 4.033-.893 7.312-2.785l35.418-20.448c3.367-1.944 5.302-3.303 6.305-4.98.99-1.656 1.234-3.93 1.234-7.72h.006v-20.63h-.008V40.03c0-3.892-.21-6.246-1.156-7.948-.942-1.692-2.788-3.04-6.07-4.934l.005-.003-10.912-6.3-6.854-3.956c-.034-.02-.07-.038-.103-.058L68.167 6.7C64.8 4.757 62.66 3.76 60.713 3.73c-1.94-.028-4.032.895-7.31 2.788l-.003-.002-.006.002-10.81 6.242-.097.06-24.503 14.147c-3.373 1.947-5.323 3.29-6.336 4.95-.998 1.633-1.25 3.878-1.25 7.66v7.407z"/><path fill-rule="evenodd" clip-rule="evenodd" fill="#DFF0F5" d="M41.545 52.788l18.27 8.233L16.54 85.805.152 76.686M71.453 65.62l16.543 8.73-59.59 34.152.12-10.71 29.668-17.127"/><path fill-rule="evenodd" clip-rule="evenodd" fill="#009CD3" d="M92.59 44.044l-12.06 13.13 8.665 14.846c1.087 1.864-1.087 2.985-2.324 3.7l-57.526 32.864c-.297.173-.64.423-.812.125-.062-.11-.194-.51-.187-.627l-.13-10.237c0-.236.497-.535.692-.638l23.938-13.813c1.297-.81 2.368-2.486 2.68-5.137L57.385 63l-40.61 23.072c-.204.117-.37.375-.558.262l-16-9.438c-.298-.17-.253-.51-.084-.808a.614.614 0 0 1 .232-.234L38.51 53.698c1.92-1.11 2.295-1.38 4.523-1.883l16.116-3.898 2.13-17.207L7.217 61.96c-.298.17-.635.52-.808.223-.174-.298.174-.718.472-.89l53.823-31.178c.66-.38 1.906-1.032 2.61-.95a1.87 1.87 0 0 1 1.445 1.005l8.593 14.752 17.453-3.965a1.866 1.866 0 0 1 1.782 3.085h.003zM55.218 61.397L41.365 55.67c-2.154-.894-3.696-.324-4.586.165L.903 76.585l15.637 8.7L56.968 62.27l-1.75-.872zM85.26 73.834L70.7 67.916 60.6 78.932c-1.61 1.667-1.98 2.05-5.945 4.34l-25.51 14.883-.053 9.68 58.125-33.25-1.958-.75zm-8.416-18.17l8.94-9.737-12.867 2.923a1.87 1.87 0 0 1-2.104-.868L64.29 36.78l-1.585 13.136h-.003a1.873 1.873 0 0 1-1.445 1.603l-13.06 2.953L60.12 59.46a1.872 1.872 0 0 1 1.214 1.976l-1.563 12.87 9.03-9.847a1.87 1.87 0 0 1 2.13-.503l12.214 5.12-6.54-11.208c-.4-.69-.33-1.59.24-2.208z"/></svg>