<?xml version="1.0" encoding="utf-8"?>
<!-- Generator: Adobe Illustrator 21.0.0, SVG Export Plug-In . SVG Version: 6.00 Build 0)  -->
<svg version="1.1" id="Layer_1" xmlns="http://www.w3.org/2000/svg" xmlns:xlink="http://www.w3.org/1999/xlink" x="0px" y="0px"
	 viewBox="0 0 140 140" style="enable-background:new 0 0 140 140;" xml:space="preserve">
<style type="text/css">
	.st0{fill:#A4A8AB;}
	.st1{fill:#F0516F;}
	.st2{fill:#00C0E5;}
</style>
<path class="st0" d="M71.8,132.3c-3.7,0-7-1.8-12.1-4.8l-29.7-17.2c-11.1-6.4-12.2-8.4-12.3-21.1l0-34.3c0-12.8,1.1-14.8,12.1-21.2
	l29.7-17.2c5.2-3,8.6-4.8,12.2-4.8c3.7,0,7,1.8,12.1,4.8l29.7,17.2c11.1,6.4,12.3,8.4,12.3,21.1l0,34.3c0,12.8-1.1,14.8-12.1,21.2
	l-29.7,17.2C78.9,130.4,75.5,132.3,71.8,132.3L71.8,132.3z M71.8,15c-2.1,0-4.7,1.4-9.6,4.2L30.8,37.4c-9.5,5.5-9.5,5.5-9.5,16.6
	l0,36.2c0,11,0,11,9.6,16.5l31.4,18.1c5.1,2.9,7.5,4.1,9.5,4.1c2.1,0,4.7-1.4,9.6-4.2l31.4-18.1c9.5-5.5,9.5-5.5,9.5-16.6l0-36.2
	c0-11,0-11-9.6-16.5L81.3,19.2C76.2,16.3,73.8,15,71.8,15L71.8,15z"/>
<g>
	<path class="st0" d="M66.9,73.4L47.3,84.7c-1,0.6-1.3,1.8-0.7,2.8c0.6,1,1.8,1.3,2.8,0.7l19-11L66.9,73.4z"/>
	<path class="st0" d="M73.6,67V29.1c0-1.1-0.9-2-2-2c-1.1,0-2,0.9-2,2v36.6L73.6,67z"/>
</g>
<path class="st1" d="M71.6,80.4c-4.6,0-8.4-3.8-8.4-8.4c0-4.6,3.8-8.4,8.4-8.4c4.6,0,8.4,3.8,8.4,8.4S76.2,80.4,71.6,80.4
	C71.6,80.4,71.6,80.4,71.6,80.4z M71.6,67.9c-2.2,0-4.1,1.8-4.1,4.1c0,2.2,1.8,4.1,4.1,4.1c2.2,0,4.1-1.8,4.1-4.1
	C75.7,69.8,73.8,67.9,71.6,67.9L71.6,67.9L71.6,67.9z"/>
<circle class="st2" cx="107.4" cy="60.8" r="1.7"/>
<circle class="st2" cx="103.2" cy="51.9" r="1.7"/>
<ellipse transform="matrix(0.9642 -0.2652 0.2652 0.9642 -8.3501 27.3305)" class="st2" cx="97" cy="44.6" rx="1.7" ry="1.7"/>
<path class="st2" d="M110.9,72c0-1-0.8-1.8-1.7-1.8s-1.7,0.8-1.7,1.8c0,7-2,14-6.2,20.2c-11.1,16.3-33.4,20.6-49.7,9.5
	C35.1,90.6,30.9,68.3,42,52c2.9-4.3,6.6-7.8,10.8-10.3c0.2,0.2,0.5,0.5,0.7,0.6c2.1,1.4,4.9,0.9,6.4-1.2c1.4-2.1,0.9-4.9-1.2-6.4
	c-2.1-1.4-4.9-0.9-6.4,1.2c-0.5,0.7-0.8,1.6-0.8,2.4c-4.8,2.8-9.1,6.8-12.4,11.7C27,68,31.6,92.4,49.5,104.6
	c17.9,12.2,42.3,7.5,54.5-10.4C108.7,87.4,110.9,79.7,110.9,72C110.9,72,110.9,72,110.9,72z"/>
<ellipse transform="matrix(0.1642 -0.9864 0.9864 0.1642 35.9157 119.7206)" class="st2" cx="88.6" cy="38.7" rx="1.7" ry="1.7"/>
</svg>
