<!DOCTYPE svg PUBLIC "-//W3C//DTD SVG 1.1//EN" "http://www.w3.org/Graphics/SVG/1.1/DTD/svg11.dtd" [
	<!ENTITY ns_flows "http://ns.adobe.com/Flows/1.0/">
]><svg xmlns="http://www.w3.org/2000/svg" width="112" height="140" viewBox="-1 -2.729 112 140" overflow="visible"><path fill="#A7A9AC" d="M54.92 134.27c-3.268 0-6.26-1.52-11.858-4.743L12 111.61C.922 105.213.026 103.675.016 91.013L0 55.153C0 42.364.885 40.82 11.845 34.48l31.047-17.944c5.18-2.99 8.53-4.824 11.97-4.824 3.27 0 6.262 1.52 11.86 4.744L97.784 34.37c11.076 6.394 11.973 7.935 11.982 20.597l.017 35.86c0 12.79-.885 14.336-11.845 20.675l-31.05 17.944c-5.18 2.99-8.528 4.825-11.97 4.825zm-.057-119.32c-2.477 0-5.182 1.407-10.35 4.39L13.466 37.285C3.43 43.088 3.24 43.422 3.24 55.155l.016 35.856c.01 11.597.204 11.93 10.363 17.795l31.06 17.914c5.085 2.93 7.753 4.31 10.24 4.31 2.476 0 5.182-1.404 10.35-4.39l31.045-17.94c10.036-5.806 10.228-6.14 10.227-17.87l-.016-35.86c-.01-11.594-.203-11.927-10.363-17.79l-31.06-17.917c-5.086-2.93-7.754-4.31-10.24-4.31z"/><path fill-rule="evenodd" clip-rule="evenodd" fill="#F3F4F4" d="M65.91 17.858l15.616 9 15.447 8.916c10.567 6.098 11.164 7.02 11.174 19.193l.016 18.02v17.84c.002 12.198-.498 13.178-11.035 19.272l-15.602 9.02-15.445 8.92c-5.64 3.258-8.582 4.79-11.705 4.59V13.346c3.066-.18 6 1.32 11.537 4.512z"/><path fill-rule="evenodd" clip-rule="evenodd" fill="#FFF" d="M108.06 96.446c-.405 7.102-2.303 8.662-10.932 13.654l-15.602 9.023-15.445 8.92c-10.563 6.1-11.66 6.157-22.207.08l-15.615-9-15.447-8.917c-5.9-3.406-8.69-5.197-10.01-8.235a15.79 15.79 0 0 1-.704-4.673c0-8.7 7.052-15.753 15.752-15.753a15.71 15.71 0 0 1 11.727 5.234c5.63-7.722 14.747-12.74 25.035-12.74 10.558 0 19.88 5.286 25.47 13.353a15.72 15.72 0 0 1 12.248-5.846c8.415 0 15.288 6.598 15.73 14.903z"/><path fill="#B2D235" d="M2.952 95.28a.54.54 0 0 1-.54-.528c-.156-7.25 5.603-12.286 11.37-13.518 6.052-1.29 12.104.706 15.794 5.215a.538.538 0 1 1-.836.68c-3.433-4.19-9.078-6.05-14.732-4.84C8.804 83.4 3.35 88.137 3.492 94.73a.538.538 0 0 1-.528.55h-.012zM106.94 95.28h-.01a.54.54 0 0 1-.53-.55c.144-6.594-5.305-11.33-10.503-12.44-5.808-1.24-11.72.832-15.06 5.28a.54.54 0 0 1-.865-.65c3.59-4.782 9.93-7.014 16.147-5.687 5.765 1.23 11.517 6.27 11.36 13.518a.537.537 0 0 1-.54.53z"/><path fill="#A7A9AC" d="M54.92 134.27c-3.268 0-6.26-1.52-11.858-4.743L12 111.61C.922 105.213.026 103.675.016 91.013L0 55.153C0 42.364.885 40.82 11.845 34.48l31.047-17.944c5.18-2.99 8.53-4.824 11.97-4.824 3.27 0 6.262 1.52 11.86 4.744L97.784 34.37c11.076 6.394 11.973 7.935 11.982 20.597l.017 35.86c0 12.79-.885 14.336-11.845 20.675l-31.05 17.944c-5.18 2.99-8.528 4.825-11.97 4.825zm-.057-119.32c-2.477 0-5.182 1.407-10.35 4.39L13.466 37.285C3.43 43.088 3.374 43.477 3.376 55.208l-.12 35.803c.01 11.597.204 11.93 10.363 17.795l31.06 17.914c5.085 2.93 7.753 4.31 10.24 4.31 2.476 0 5.182-1.404 10.35-4.39l31.045-17.94c10.036-5.806 10.228-6.14 10.227-17.87l-.016-35.86c-.01-11.594-.203-11.927-10.363-17.79l-31.06-17.917c-5.086-2.93-7.754-4.31-10.24-4.31z"/><path fill-rule="evenodd" clip-rule="evenodd" fill="#FFF" d="M67.14 38.936V23.822c0-8.21-7.827-21.122-12.674-21.122-4.772 0-12.25 12.982-12.25 21.122v14.87c-8.897 4.48-15.002 13.695-15.002 24.336 0 2.36.3 4.646.864 6.83a39.387 39.387 0 0 1 14.14-8.173v.003a39.407 39.407 0 0 1 12.226-1.935c4.43 0 8.692.73 12.67 2.08a39.43 39.43 0 0 1 13.696 8.024c.562-2.183.862-4.47.862-6.83 0-10.452-5.89-19.527-14.532-24.09z"/><path fill="#A7A9AC" d="M80.81 72.56a2.705 2.705 0 0 1-1.807-.694 36.498 36.498 0 0 0-12.758-7.475 36.7 36.7 0 0 0-11.802-1.934c-3.887 0-7.72.606-11.39 1.802-.036.01-.072.02-.108.032a36.48 36.48 0 0 0-13.063 7.577c-.7.63-1.68.85-2.585.576a2.695 2.695 0 0 1-1.834-1.91c-.63-2.44-.95-4.963-.95-7.504 0-10.814 5.706-20.608 15.002-25.95V23.82C39.515 15.493 47.2 0 54.465 0c6.98 0 15.375 14.632 15.375 23.822v13.536a29.873 29.873 0 0 1 14.533 25.67c0 2.542-.32 5.066-.95 7.505a2.7 2.7 0 0 1-2.614 2.026zM54.466 5.4c-.55.016-2.906 1.52-5.613 6.222-2.39 4.156-3.937 8.944-3.937 12.2v14.87c0 1.02-.575 1.955-1.486 2.413-8.338 4.198-13.517 12.598-13.517 21.923 0 .615.023 1.23.068 1.84a41.768 41.768 0 0 1 11.517-5.785 42.073 42.073 0 0 1 12.947-2.03c4.632 0 9.185.748 13.536 2.22a41.824 41.824 0 0 1 10.925 5.596 25.13 25.13 0 0 0 .067-1.843c0-9.123-5.018-17.44-13.094-21.705a2.7 2.7 0 0 1-1.438-2.388V23.822c0-3.273-1.622-8.08-4.133-12.246C57.47 6.864 55.033 5.4 54.467 5.4z"/><path fill-rule="evenodd" clip-rule="evenodd" fill="#FFF" d="M67.386 61.84V23.823c0-8.21-7.903-21.122-12.797-21.122-4.82 0-12.37 12.983-12.37 21.123V61.69a40.156 40.156 0 0 1 12.345-1.936c4.484 0 8.796.735 12.82 2.088z"/><path fill="#A7A9AC" d="M67.794 62.406l-.54-.182a39.764 39.764 0 0 0-12.688-2.066c-4.17 0-8.28.645-12.22 1.914l-.534.172V23.822c0-8.45 7.762-21.526 12.777-21.526 5.183 0 13.203 13.077 13.203 21.526v38.584zm-13.23-3.058c4.242 0 8.415.65 12.412 1.932V23.822c0-7.938-7.64-20.717-12.388-20.717-4.583 0-11.96 12.78-11.96 20.717v37.312a40.59 40.59 0 0 1 11.937-1.786z"/><path fill-rule="evenodd" clip-rule="evenodd" fill="#FFF" d="M41.912 61.685a38.478 38.478 0 0 0-13.86 8.172 27.822 27.822 0 0 1-.846-6.83c0-10.64 5.985-19.854 14.707-24.334v22.992z"/><path fill="#A7A9AC" d="M27.832 70.604l-.165-.646a28.262 28.262 0 0 1-.86-6.93c0-10.506 5.72-19.97 14.925-24.698l.576-.295v23.943l-.274.09c-5.095 1.694-9.71 4.416-13.717 8.09l-.485.446zM41.515 39.36c-8.6 4.683-13.913 13.692-13.913 23.668 0 2.054.23 4.098.68 6.082a38.577 38.577 0 0 1 13.233-7.718V39.36z"/><path fill-rule="evenodd" clip-rule="evenodd" fill="#FFF" d="M67.51 38.936c8.43 4.564 14.172 13.64 14.172 24.093a28.01 28.01 0 0 1-.84 6.827 38.264 38.264 0 0 0-13.357-8.025l.026.01V38.935z"/><path fill="#A7A9AC" d="M81.075 70.604l-.474-.446c-3.703-3.47-7.943-6.095-12.613-7.803l-.307-.11-.083-.03.12-.375h-.357V38.263l.568.314c8.727 4.805 14.15 14.173 14.15 24.45 0 2.35-.284 4.68-.843 6.932l-.16.643zm-13.17-9.052a38.367 38.367 0 0 1 12.707 7.558 27.62 27.62 0 0 0 .676-6.082c0-9.75-5.11-18.66-13.383-23.412v21.936z"/><path fill-rule="evenodd" clip-rule="evenodd" fill="#FFF" d="M69.08 65.51c-1.25-.303-2.296 1.014-2.394 2.296v15.12h-3.283v2.867H45.677v-2.866h-2.943V67.232c-.085-1.587-1.55-2.06-2.212-2.06 1.722-.674 2.303-1.812 2.124-4.072 4.812-4.152 19.285-4.138 24.034.098-.01 2.438.855 3.6 2.4 4.313z"/><path fill="#00C0E5" d="M54.443 123.25a.54.54 0 0 1-.54-.54V47.952a.54.54 0 0 1 1.08 0v74.756c0 .296-.242.54-.54.54zM62.844 115.954a.54.54 0 0 1-.54-.54V85.357a.54.54 0 0 1 1.08 0v30.055c0 .3-.24.54-.54.54zM46.202 115.954a.54.54 0 0 1-.54-.54V85.357a.54.54 0 0 1 1.08 0v30.055c0 .3-.24.54-.54.54z"/><path fill="#B2D235" d="M84.345 96.714a.542.542 0 0 1-.523-.404c-2.46-9.5-10.172-17.235-20.124-20.188a.54.54 0 1 1 .306-1.035c10.314 3.06 18.31 11.088 20.863 20.952a.536.536 0 0 1-.522.673zm-59.268-.635a.537.537 0 0 1-.52-.688c2.75-9.65 10.446-17.233 20.586-20.275a.54.54 0 1 1 .31 1.033c-9.785 2.94-17.208 10.242-19.86 19.537a.54.54 0 0 1-.518.392z"/><path fill="#00C0E5" d="M54.678 38.866c-3.91 0-7.087-3.18-7.087-7.088s3.18-7.087 7.09-7.087 7.086 3.18 7.086 7.09-3.178 7.087-7.087 7.087zm0-13.096a6.015 6.015 0 0 0-6.007 6.007 6.015 6.015 0 0 0 6.01 6.008 6.014 6.014 0 0 0 6.006-6.008 6.015 6.015 0 0 0-6.007-6.007zM54.443 123.25a.54.54 0 0 1-.54-.54V47.952a.54.54 0 0 1 1.08 0v74.756c0 .296-.242.54-.54.54zM62.844 115.954a.54.54 0 0 1-.54-.54V85.357a.54.54 0 0 1 1.08 0v30.055c0 .3-.24.54-.54.54zM46.202 115.954a.54.54 0 0 1-.54-.54V85.357a.54.54 0 0 1 1.08 0v30.055c0 .3-.24.54-.54.54z"/><path fill="#00C0E5" d="M54.678 38.866c-3.91 0-7.087-3.18-7.087-7.088s3.18-7.087 7.09-7.087 7.086 3.18 7.086 7.09-3.178 7.087-7.087 7.087zm0-13.096a6.015 6.015 0 0 0-6.007 6.007 6.015 6.015 0 0 0 6.01 6.008 6.014 6.014 0 0 0 6.006-6.008 6.015 6.015 0 0 0-6.007-6.007z"/><path fill="#B2D235" d="M84.345 96.714a.542.542 0 0 1-.523-.404c-2.46-9.5-10.172-17.235-20.124-20.188a.54.54 0 1 1 .306-1.035c10.314 3.06 18.31 11.088 20.863 20.952a.536.536 0 0 1-.522.673zm-59.268-.635a.537.537 0 0 1-.52-.688c2.75-9.65 10.446-17.233 20.586-20.275a.54.54 0 1 1 .31 1.033c-9.785 2.94-17.208 10.242-19.86 19.537a.54.54 0 0 1-.518.392z"/><path fill="#B2D235" d="M29.576 86.45c-3.69-4.51-9.742-6.507-15.793-5.216-4.606.984-9.196 4.4-10.783 9.423v4.615c.28-.025.5-.257.492-.543-.142-6.595 5.312-11.33 10.516-12.44 5.654-1.208 11.3.65 14.73 4.84a.54.54 0 1 0 .838-.683zM107 90.98c-1.485-5.203-6.177-8.74-10.878-9.746-6.218-1.327-12.557.904-16.148 5.687-.18.24-.13.58.106.758.24.18.578.13.757-.106 3.34-4.447 9.253-6.52 15.06-5.278 5.2 1.11 10.647 5.846 10.504 12.438a.54.54 0 0 0 .53.55h.013c.02 0 .038-.01.06-.01v-4.29z"/></svg>