<!DOCTYPE svg PUBLIC "-//W3C//DTD SVG 1.1//EN" "http://www.w3.org/Graphics/SVG/1.1/DTD/svg11.dtd" [
	<!ENTITY ns_flows "http://ns.adobe.com/Flows/1.0/">
]><svg xmlns="http://www.w3.org/2000/svg" width="110" height="124" viewBox="0 -0.384 110 124" overflow="visible"><path fill-rule="evenodd" clip-rule="evenodd" fill="#FFF" d="M68.806 117.15l-5.966 3.444-.006.004v.002c-2.92 1.625-5.25 2.523-7.567 2.62-2.33.1-4.604-.612-7.394-2.212l-.023-.014-20.35-11.75-.024-.013L7.843 97.897l-.007-.004c-2.87-1.714-4.814-3.282-6.056-5.24C.532 90.685.01 88.36 0 85.14V38.915c0-.017 0-.034.002-.05.055-3.32.442-5.775 1.51-7.82 1.08-2.067 2.834-3.682 5.616-5.3L27.5 13.987l.027-.015L47.16 2.636l.006-.002V2.63c2.92-1.624 5.25-2.523 7.566-2.622 2.33-.097 4.604.615 7.395 2.213l.023.016 20.35 11.75 19.66 11.35.018.013c2.86 1.712 4.802 3.28 6.042 5.23 1.247 1.968 1.768 4.294 1.778 7.515H110v46.223c0 .017 0 .032-.002.05-.055 3.318-.442 5.775-1.512 7.82-1.08 2.064-2.834 3.68-5.615 5.3l-6.455 3.728-27.58 15.924c-.01 0-.017.007-.028.01z"/><path fill-rule="evenodd" clip-rule="evenodd" fill="#FFF" d="M46.673 9.874l5.517-3.186.04-.022.41-.238.02.03c1.335-.53 3.147-.294 5.133.84L95.95 29.086c4.06 2.317 7.365 7.543 7.346 11.614l-.22 46.137c-.01 1.838-.695 3.137-1.82 3.8l-.006.003-.01.004-5.585 3.227-.366.21-.015-.02c-1.343.567-3.187.347-5.208-.81L51.91 71.46c-4.06-2.315-7.364-7.542-7.345-11.612l.22-46.136c.01-1.876.724-3.19 1.888-3.838z"/><path fill-rule="evenodd" clip-rule="evenodd" fill="#9E9E9E" d="M45.59 8.083l.01-.005c.037-.023.075-.043.114-.064l5.435-3.138.03-.018v-.004l.41-.238c.245-.14.506-.228.77-.263.916-.274 1.932-.332 3.01-.157 1.092.18 2.26.6 3.455 1.28l38.158 21.79c2.334 1.332 4.436 3.476 5.94 5.854 1.528 2.42 2.474 5.145 2.462 7.587l-.22 46.137c-.007 1.22-.247 2.293-.68 3.197-.498 1.045-1.24 1.85-2.172 2.398l-.007.004-.01.007c-.023.013-.046.024-.07.04L96.7 95.676l.005.004-.367.213c-.2.115-.412.193-.627.238-.945.323-2.012.405-3.153.23-1.117-.174-2.31-.6-3.52-1.29l-38.16-21.787c-2.333-1.332-4.435-3.475-5.94-5.855-1.53-2.42-2.474-5.143-2.46-7.587l.22-46.134c.006-1.247.255-2.338.705-3.253.51-1.036 1.257-1.833 2.19-2.37zm7.64.418l-5.42 3.13c-.04.026-.08.05-.12.074-.222.123-.404.32-.535.585-.177.36-.276.84-.278 1.43l-.222 46.137c-.007 1.626.69 3.55 1.823 5.34 1.158 1.832 2.74 3.463 4.465 4.445L91.1 91.43c.772.44 1.477.7 2.096.797.506.078.934.043 1.26-.098l.002.004.043-.02.107-.06.002.003.004-.004 5.52-3.188.05-.03h.008l.01-.01a1.3 1.3 0 0 0 .516-.59c.172-.356.267-.827.27-1.41l.22-46.136c.01-1.627-.69-3.55-1.822-5.343-1.157-1.83-2.74-3.46-4.463-4.444L56.76 9.118c-.752-.43-1.447-.69-2.062-.79-.474-.077-.876-.06-1.193.047-.05.023-.1.043-.152.06l-.072.043v-.004l-.007.005-.04.02z"/><path fill-rule="evenodd" clip-rule="evenodd" fill="#F6F6F6" d="M50.156 56.62l.193-40.378-3.678-6.368 5.517-3.186.04-.022.41-.238.02.03c1.334-.53 3.146-.294 5.132.84L95.95 29.086c4.06 2.317 7.365 7.543 7.346 11.614l-.22 46.137c-.01 1.838-.695 3.137-1.82 3.8l-.006.003-.01.004-5.95 3.436-3.677-6.37L57.5 68.234c-4.06-2.316-7.363-7.543-7.344-11.613z"/><path fill-rule="evenodd" clip-rule="evenodd" fill="#9E9E9E" d="M49.738 56.618l.193-40.264-3.62-6.27-.21-.363.364-.207 5.517-3.185.04-.023.41-.238.365-.21.055.097c.67-.198 1.43-.237 2.25-.103.903.148 1.883.504 2.9 1.084L96.157 28.72c2.09 1.194 3.984 3.132 5.35 5.293 1.372 2.167 2.217 4.572 2.207 6.688l-.222 46.137c-.003.965-.186 1.8-.514 2.482a3.873 3.873 0 0 1-1.07 1.372l.03.028-.468.275-.007.007-.006.002-.01.004-5.95 3.436-.36.21-.21-.364-3.62-6.27L57.294 68.6c-2.09-1.193-3.984-3.133-5.35-5.29-1.37-2.17-2.216-4.574-2.206-6.69zm1.03-40.374l-.193 40.378c-.01 1.954.787 4.197 2.08 6.24 1.295 2.05 3.084 3.885 5.054 5.008l34.11 19.476.153.156 3.467 6.006 5.59-3.227h.002l.01-.006h.004c.5-.295.9-.736 1.18-1.316.274-.574.427-1.287.43-2.125l.222-46.135c.01-1.953-.787-4.197-2.078-6.24-1.296-2.05-3.087-3.885-5.054-5.008L57.586 7.66c-.93-.53-1.814-.855-2.62-.987-.814-.132-1.543-.07-2.154.173l-.2.08-.174.1-.04.022v.002l-5.154 2.975 3.467 6.004.06.213z"/><path fill-rule="evenodd" clip-rule="evenodd" fill="#FFF" d="M44.565 59.848l.22-46.136c.02-4.07 3.357-5.505 7.417-3.187L90.36 32.312c4.06 2.318 7.364 7.544 7.345 11.615l-.22 46.136c-.02 4.068-3.357 5.504-7.417 3.188L51.91 71.46c-4.06-2.315-7.364-7.542-7.345-11.612z"/><path fill-rule="evenodd" clip-rule="evenodd" fill="#9E9E9E" d="M44.147 59.846l.22-46.136c.006-1.1.24-2.027.66-2.76a3.746 3.746 0 0 1 1.476-1.463c.603-.326 1.308-.493 2.09-.49 1.14.006 2.445.382 3.816 1.165L90.564 31.95c2.09 1.192 3.984 3.13 5.35 5.29 1.372 2.168 2.217 4.573 2.207 6.69L97.9 90.064c-.004 1.1-.24 2.027-.656 2.758a3.722 3.722 0 0 1-1.477 1.463c-.604.326-1.31.494-2.09.492-1.14-.008-2.445-.38-3.816-1.166L51.706 71.826c-2.09-1.19-3.984-3.13-5.35-5.29-1.37-2.167-2.217-4.572-2.207-6.69zm1.058-46.132l-.22 46.135c-.01 1.952.786 4.194 2.077 6.237 1.297 2.05 3.085 3.885 5.055 5.01l38.158 21.787c1.243.71 2.405 1.05 3.407 1.055.635 0 1.203-.13 1.686-.39.473-.26.864-.643 1.148-1.14.35-.612.545-1.4.55-2.35l.22-46.136c.01-1.954-.787-4.198-2.078-6.24-1.296-2.05-3.086-3.884-5.054-5.01L51.994 10.89c-1.243-.71-2.406-1.05-3.406-1.055-.635-.004-1.205.13-1.686.39a2.92 2.92 0 0 0-1.148 1.138c-.35.613-.546 1.4-.55 2.35z"/><path fill-rule="evenodd" clip-rule="evenodd" fill="#9E9E9E" d="M92.902 95.942l-13.798 7.965-17.526 10.12-.008.003c-2.603 1.45-4.68 2.252-6.746 2.338-2.076.088-4.104-.547-6.592-1.973v-.002L30.07 103.907l-17.53-10.12-.004-.003c-2.558-1.527-4.292-2.928-5.398-4.67-1.114-1.754-1.578-3.828-1.587-6.7V41.198c.047-2.978.39-5.18 1.35-7.01.963-1.842 2.527-3.28 5.006-4.724h.002l18.16-10.486 13.16-7.6.418.725-13.16 7.6-18.164 10.485c-2.338 1.36-3.802 2.698-4.685 4.387-.89 1.7-1.21 3.786-1.254 6.636v41.205c.01 2.7.437 4.637 1.46 6.25 1.026 1.617 2.672 2.94 5.113 4.398l17.526 10.12 18.16 10.485c2.35 1.344 4.24 1.943 6.144 1.863 1.914-.08 3.88-.845 6.366-2.23l17.526-10.12 13.8-7.964.42.727z"/><path fill-rule="evenodd" clip-rule="evenodd" fill="#F6F6F6" d="M43.09 42.32l-.07.04-5.127 2.96-1.215-2.104c-.813-1.408-2.163-2.165-2.998-1.683l-1.354.782-1.354.78-4.59 2.65 4.01 7.068-1.902-1.068c-.583-.327-1.115-.35-1.505-.126l-5.944 3.43 7.72 15.04 6.566 10.61 8.083 12.953 5.885-3.395c.39-.225.636-.7.644-1.37l.046-3.847 4.094 8.673 4.59-2.648.774-.447 1.933-1.117c.837-.48.856-2.03.042-3.437l-1.26-2.184 5.19-2.893c.397-.223.65-.7.657-1.375l.053-4.334c.02-1.337-.924-2.966-2.09-3.62l-3.356-1.885a30.14 30.14 0 0 0-1.33-4.588l2.405-1.39c.834-.48.853-2.03.04-3.437l-2.634-4.564c-.814-1.408-2.162-2.165-3-1.682l-2.404 1.39a29.6 29.6 0 0 0-3.31-3.448l.048-3.85c.017-1.337-.924-2.966-2.09-3.62l-3.777-2.122c-.57-.315-1.087-.347-1.474-.144zm-2.187 14.853l10.56 16.724-.217 1.633c-3.002 1.508-7.644-1.17-10.49-6.102-2.91-5.043-2.845-10.528.147-12.255z"/><path fill-rule="evenodd" clip-rule="evenodd" fill="#00AAD4" d="M42.045 40.502l.034-.02v.003l.03-.02a3.273 3.273 0 0 1 1.865-.35 4.134 4.134 0 0 1 1.608.52l3.778 2.122c.918.514 1.72 1.37 2.276 2.333.556.962.894 2.086.88 3.14l-.035 2.913a30.816 30.816 0 0 1 1.66 1.685l.74-.427c.12-.085.253-.16.394-.22 1.055-.503 2.25-.38 3.35.237.813.455 1.603 1.217 2.193 2.185l.02.03v.002l.064.11.003.003 2.634 4.564h-.004l.004.008c.598 1.034.89 2.156.877 3.13-.016 1.36-.58 2.525-1.68 3.16l-.002-.004-.007.004-.905.523a33.026 33.026 0 0 1 .63 2.27l2.54 1.432c.916.51 1.72 1.366 2.277 2.33.554.962.893 2.087.88 3.142l-.053 4.332a4.122 4.122 0 0 1-.382 1.723 3.237 3.237 0 0 1-1.298 1.427l-.053.03-3.33 1.858.195.34-.003.002.003.006c.597 1.034.888 2.157.877 3.132-.018 1.357-.582 2.52-1.69 3.16l-1.816 1.05a.934.934 0 0 1-.11.065l-.774.45-4.554 2.628c-.05.03-.104.06-.158.086l-1.234.714.002.002c-1.11.643-2.4.55-3.583-.115-.82-.458-1.618-1.23-2.21-2.214v.003l-.02-.035-.046-.08h.002l-.003-.008-.17-.293-3.163 1.826c-.023.014-.045.027-.067.043-.038.024-.076.048-.116.07a3.198 3.198 0 0 1-1.666.427 4.058 4.058 0 0 1-1.913-.535l-3.778-2.123c-.916-.515-1.72-1.37-2.275-2.333-.555-.963-.894-2.086-.88-3.14l.035-2.913c-.378-.356-.747-.72-1.105-1.097a28.6 28.6 0 0 1-.55-.586l-.907.523h-.01c-1.105.64-2.392.547-3.573-.115-.845-.477-1.67-1.29-2.274-2.332l-.003.002-2.568-4.45-.01-.017-.057-.098.003-.002-.003-.006c-.597-1.033-.888-2.158-.876-3.133.017-1.355.58-2.517 1.683-3.153l-.003-.004.913-.53c-.08-.255-.158-.51-.232-.77a30.76 30.76 0 0 1-.394-1.495L21.41 66.2c-.916-.514-1.72-1.37-2.275-2.332-.555-.963-.894-2.088-.88-3.142l.052-4.333c.01-.742.182-1.394.48-1.927.284-.505.68-.91 1.168-1.202l.015-.01.023-.013v-.002c.045-.026.09-.05.14-.076l3.215-1.856-.173-.298c-.595-1.034-.886-2.156-.875-3.132.017-1.356.582-2.52 1.69-3.16l1.24-.714c.033-.024.07-.045.106-.067l4.59-2.65.003.004.005-.004 1.356-.782 1.24-.716.106-.066c1.11-.64 2.398-.55 3.58.116.853.477 1.678 1.292 2.276 2.325l.003.005.17.297 3.21-1.852a3.03 3.03 0 0 1 .176-.108zM31.64 78.727l-3.68-5.95-1.782 1.03c.03.207.11.447.24.7v-.003l.066.115 2.634 4.562v.008c.168.29.365.52.56.67l1.963-1.133zm14.49-18.462a28.63 28.63 0 0 0-2.48-2.662l8.12 12.86c-.122-.362-.253-.73-.394-1.105l-.626-1.664 1.536-.89 1.992-1.147c-.03-.21-.11-.447-.24-.7l-.066-.114-2.634-4.563v-.008a2.252 2.252 0 0 0-.56-.667l-1.983 1.144-1.54.887-1.125-1.373zm-3.787-4.607l.003-.193.046-3.85c.003-.283-.12-.64-.323-.992-.203-.348-.453-.635-.703-.775l-2.824-1.585-.034 2.75-.033 2.627-2.55-.617a9.332 9.332 0 0 0-1.406-.227 7.378 7.378 0 0 0-1.277-.004l-.76.065a2.093 2.093 0 0 1-3.064 1.812l-.38.547a7.237 7.237 0 0 0-.634 1.104 9.5 9.5 0 0 0-.496 1.333l-.743 2.524-1.613-.905 5.02 9.778.84 1.36c-.575-1.72-.852-3.41-.833-4.944.037-2.95 1.15-5.406 3.334-6.67l-.003-.002c1.075-.62 2.27-.872 3.51-.797.558-1.11 1.37-2.017 2.444-2.635a2.087 2.087 0 0 1 2.48.296zm-.385 31.72l.02-1.556 2.55.617c.452.107.92.184 1.405.227.44.04.867.04 1.28.004l.658-.056.02-1.598a2.094 2.094 0 0 1 2.117-2.068c.695.01 1.308.354 1.68.882.13-.22.252-.447.365-.69.19-.4.355-.847.497-1.33l.742-2.524 2.292 1.285 2.403 1.35.04-3.233c.002-.284-.12-.642-.324-.993-.2-.348-.45-.635-.7-.775l-3.357-1.884-.204-.116-.118.88c-.1.755-.59 1.364-1.24 1.65-.965.458-2.014.644-3.1.58-.554 1.108-1.366 2.013-2.437 2.634l.003.004c-2.188 1.264-4.875 1-7.45-.445-1.048-.59-2.09-1.385-3.072-2.36l1.072 1.733.003-.002 4.858 7.78zm5.687-31.708c.184.19.367.388.55.588l.907-.523h.01a3.19 3.19 0 0 1 1.613-.433l-.153-.162a27.2 27.2 0 0 0-1.576-1.517 2.083 2.083 0 0 1-.705-1.598l.048-3.843c.003-.282-.12-.64-.323-.992-.202-.348-.452-.635-.702-.775l-3.62-2.03-1.72.992 1.446.812c.915.512 1.72 1.37 2.274 2.33.555.963.894 2.087.88 3.14l-.035 2.913c.38.358.75.722 1.106 1.096zm6.822 1.775c.175.23.34.476.49.736h.004l2.57 4.45.01.02.057.095-.003.002.003.006c.15.26.28.523.392.79.11-.087.23-.165.36-.23l1.874-1.08a2.354 2.354 0 0 0-.303-.822l-.003.003-2.57-4.45a1.948 1.948 0 0 1-.123-.21 2.207 2.207 0 0 0-.506-.582l-1.986 1.15c-.085.047-.174.09-.263.126zm3.506 10.405a3.197 3.197 0 0 1-1.184 1.188v.004l-.91.527c.08.254.156.51.23.77.145.496.276.996.394 1.496l2.545 1.426c.912.514 1.716 1.37 2.273 2.334.554.963.893 2.086.88 3.143l-.02 1.614 1.73-.963.052-4.136c.004-.28-.12-.64-.322-.99s-.45-.635-.702-.775l-3.356-1.886c-.6-.336-.97-.926-1.055-1.56a27.07 27.07 0 0 0-.493-1.974c-.02-.073-.043-.148-.065-.22zm1.344 18.77c-.17.02-.34.035-.516.03-.626-.007-1.276-.18-1.91-.536l-1.287-.72-.04.077 1.722 2.988a6.7 6.7 0 0 1 .383.768l.725-.418c.038-.02.078-.043.117-.062l1.402-.81a2.323 2.323 0 0 0-.304-.82h-.004l-.287-.495zM32.063 44.88c.172.226.333.47.48.726l1.715 2.97.098.003.018-1.467c.01-.742.18-1.393.48-1.927.087-.153.184-.298.29-.433l-.21-.365a2.672 2.672 0 0 1-.13-.225 2.294 2.294 0 0 0-.503-.58l-.934.54-1.302.754zm11.77 22.765c-.848-1.47-1.87-2.7-2.943-3.627.27 1.39.826 2.887 1.677 4.36.85 1.474 1.87 2.708 2.942 3.634-.27-1.39-.828-2.887-1.678-4.36v-.007zm-7.31-5.423a1.77 1.77 0 0 0-.515.196H36c-.806.464-1.22 1.614-1.238 3.1-.023 1.856.595 4.103 1.86 6.292v.01c1.258 2.18 2.896 3.834 4.525 4.748 1.292.727 2.495.943 3.3.48h.008c.157-.09.3-.208.426-.347-2.187-1.27-4.33-3.437-5.94-6.22-1.602-2.78-2.406-5.725-2.415-8.257z"/><path fill-rule="evenodd" clip-rule="evenodd" fill="#FFF" d="M47.746 58.936a29.67 29.67 0 0 0-3.31-3.447l.047-3.85c.016-1.34-.925-2.967-2.09-3.62l-3.778-2.123c-1.166-.654-2.133-.097-2.15 1.24l-.046 3.85c-1.155-.28-2.28-.38-3.35-.29l-2.34-4.05c-.81-1.41-2.16-2.167-2.996-1.684l-2.708 1.563c-.835.483-.854 2.03-.042 3.438l2.34 4.052c-.614.88-1.088 1.904-1.423 3.043l-3.356-1.885c-1.165-.655-2.132-.097-2.15 1.24l-.052 4.334c-.016 1.336.925 2.964 2.09 3.62l3.357 1.883c.303 1.496.746 3.04 1.33 4.588l-2.406 1.39c-.836.484-.855 2.03-.042 3.438l2.635 4.565c.813 1.408 2.16 2.164 2.998 1.682l2.405-1.39a29.932 29.932 0 0 0 3.31 3.448l-.046 3.85c-.016 1.336.925 2.965 2.09 3.62l3.778 2.118c1.166.657 2.133.1 2.15-1.237l.046-3.85c1.153.28 2.277.38 3.347.29l2.34 4.052c.812 1.406 2.16 2.164 2.996 1.682l2.71-1.563c.837-.484.855-2.03.043-3.44l-2.34-4.052c.614-.88 1.088-1.904 1.423-3.043l3.356 1.886c1.168.65 2.136.093 2.15-1.243l.054-4.332c.016-1.337-.924-2.966-2.09-3.62l-3.358-1.885a30.162 30.162 0 0 0-1.33-4.59l2.405-1.388c.84-.484.856-2.03.043-3.438l-2.635-4.565c-.812-1.408-2.16-2.165-2.997-1.683l-2.404 1.39zm-2.1 7.666c2.91 5.043 2.843 10.53-.148 12.256-2.993 1.73-7.777-.96-10.687-5.998-2.91-5.04-2.84-10.528.15-12.255 2.993-1.728 7.777.958 10.687 5.997zM65.212 51.787c-1.257-4.118.1-7.252 3.034-7.002 2.932.25 6.33 3.792 7.588 7.91 1.26 4.118-.098 7.252-3.032 7.002-2.933-.25-6.33-3.793-7.59-7.91z"/><path fill-rule="evenodd" clip-rule="evenodd" fill="#9E9E9E" d="M64.813 51.907c-.41-1.343-.555-2.59-.463-3.662.08-.938.34-1.75.757-2.388.432-.66 1.03-1.13 1.773-1.355a3.68 3.68 0 0 1 1.4-.136c1.57.133 3.25 1.13 4.69 2.632a14.248 14.248 0 0 1 3.265 5.573c.41 1.346.553 2.593.462 3.665-.08.94-.34 1.75-.756 2.388-.43.66-1.03 1.128-1.77 1.355-.43.13-.897.18-1.4.136-1.573-.133-3.25-1.13-4.69-2.632a14.23 14.23 0 0 1-3.266-5.573zm.373-3.593c-.082.975.05 2.115.427 3.352A13.388 13.388 0 0 0 68.68 56.9c1.307 1.363 2.796 2.263 4.156 2.378.403.034.77-.002 1.09-.1.545-.167.988-.517 1.314-1.014.34-.52.552-1.2.62-1.997.084-.976-.047-2.116-.426-3.352a13.35 13.35 0 0 0-3.067-5.236c-1.307-1.36-2.794-2.26-4.156-2.376-.4-.035-.765 0-1.087.1-.544.166-.99.517-1.313 1.014-.342.52-.556 1.2-.624 1.997z"/><path fill-rule="evenodd" clip-rule="evenodd" fill="#A8C838" d="M69.022 44.923c2.73.733 5.664 4.01 6.812 7.77.53 1.738.597 3.3.273 4.508-2.73-.73-5.666-4.01-6.812-7.77-.53-1.737-.596-3.3-.273-4.506z"/><path fill-rule="evenodd" clip-rule="evenodd" fill="#9E9E9E" d="M69.128 44.518c1.457.39 2.957 1.45 4.233 2.908a14.3 14.3 0 0 1 2.876 5.146c.27.886.425 1.73.473 2.508.05.82-.02 1.572-.196 2.23l-.106.405-.405-.11c-1.457-.39-2.957-1.45-4.233-2.907a14.253 14.253 0 0 1-2.875-5.146c-.27-.886-.425-1.73-.473-2.508-.05-.82.02-1.57.195-2.228l.106-.406.405.108zm3.604 3.46c-1.045-1.192-2.235-2.09-3.4-2.517-.08.468-.106.98-.073 1.536.042.716.184 1.496.435 2.314a13.412 13.412 0 0 0 2.702 4.837c1.046 1.19 2.236 2.09 3.4 2.516.08-.466.107-.98.074-1.534a10.043 10.043 0 0 0-.436-2.316 13.404 13.404 0 0 0-2.703-4.838z"/><path fill-rule="evenodd" clip-rule="evenodd" fill="#FFF" d="M16.438 80.034c-2.504-2.686-5.305-3.582-7.12-2.547h-.002l-.032.02-.01.006-3.954 2.282-.01.006-.003.006c-.552.326-1.012.838-1.34 1.535-1.402 2.994.133 8.283 3.428 11.814 2.494 2.674 5.28 3.574 7.097 2.56l4.01-2.313c.564-.33 1.03-.845 1.363-1.554 1.402-2.99-.133-8.278-3.427-11.81z"/><path fill-rule="evenodd" clip-rule="evenodd" fill="#9E9E9E" d="M14.904 81.46c-.994-1.065-2.01-1.77-2.935-2.1-.67-.24-1.233-.263-1.605-.06l-.033.02-.01.004.002.002-.01.006c-.03.018-.06.033-.09.05L6.48 81.54c-.053.036-.108.07-.165.1a1.05 1.05 0 0 0-.19.18 1.74 1.74 0 0 0-.266.405c-.478 1.02-.417 2.564.066 4.234a13.33 13.33 0 0 0 3 5.264c.997 1.07 2.006 1.773 2.917 2.104.68.243 1.25.265 1.628.054a.57.57 0 0 1 .07-.035l3.74-2.16a.33.33 0 0 1 .054-.036 1.53 1.53 0 0 1 .183-.11c.067-.045.128-.102.185-.164.1-.116.188-.255.266-.42.477-1.02.416-2.563-.068-4.233a13.33 13.33 0 0 0-2.998-5.268zm-1.524-6.05c1.523.544 3.117 1.618 4.59 3.196a17.617 17.617 0 0 1 3.952 6.953c.755 2.603.76 5.2-.162 7.172-.25.533-.557 1-.907 1.398a5.217 5.217 0 0 1-1.3 1.08l-.003-.003-.006.002-3.857 2.227c-.05.033-.1.064-.152.096-.066.037-.133.07-.2.1-1.43.73-3.136.768-4.898.13-1.527-.548-3.116-1.62-4.574-3.183a17.62 17.62 0 0 1-3.95-6.954c-.757-2.602-.762-5.2.162-7.168a5.963 5.963 0 0 1 .887-1.393 5.23 5.23 0 0 1 1.18-1.004c.04-.025.084-.055.128-.08l.01-.006v.004l3.85-2.223.035-.02c.097-.065.197-.118.3-.165 1.434-.745 3.146-.794 4.915-.16zM73.258 49.96a.42.42 0 1 1 .423.723l-11.43 6.6a.42.42 0 1 1-.42-.724l11.43-6.6z"/><path fill-rule="evenodd" clip-rule="evenodd" fill="#EAF2F7" d="M43.09 42.32l-.07.04-5.127 2.96-1.215-2.104c-.813-1.408-2.163-2.165-2.998-1.683l-1.354.782-1.354.78-4.59 2.65 4.01 7.068-1.902-1.068c-.583-.327-1.115-.35-1.505-.126l-5.944 3.43 7.72 15.04 6.566 10.61 8.083 12.953 5.885-3.395c.39-.225.636-.7.644-1.37l.046-3.847 4.094 8.673 4.59-2.648.774-.447 1.933-1.117c.837-.48.856-2.03.042-3.437l-1.26-2.184 5.19-2.893c.397-.223.65-.7.657-1.375l.053-4.334c.02-1.337-.924-2.966-2.09-3.62l-3.356-1.885a30.14 30.14 0 0 0-1.33-4.588l2.405-1.39c.834-.48.853-2.03.04-3.437l-2.634-4.564c-.814-1.408-2.162-2.165-3-1.682l-2.404 1.39a29.6 29.6 0 0 0-3.31-3.448l.048-3.85c.017-1.337-.924-2.966-2.09-3.62l-3.777-2.122c-.57-.315-1.087-.347-1.474-.144zm-2.187 14.853l10.56 16.724-.217 1.633c-3.002 1.508-7.644-1.17-10.49-6.102-2.91-5.043-2.845-10.528.147-12.255z"/><path fill-rule="evenodd" clip-rule="evenodd" fill="#00AAD4" d="M43.293 42.686l-.004.003-.035.017-.02.012-.008.002-5.128 2.96-.363.21-.208-.363-1.216-2.106 6.978-.74zm-.44-.714l-5.814 1.033c-.446-.77-1.044-1.366-1.65-1.707-.67-.376-1.365-.45-1.92-.128l-1.354.78-1.355.783-4.59 2.65-.36.208.206.363 3.267 5.758-.59-.33c-.34-.19-.67-.296-.98-.323-.347-.03-.665.04-.94.198l-5.944 3.432-.346.2.18.354 7.72 15.038.018.03 6.565 10.614 8.082 12.954.214.344.35-.2 5.886-3.4c.274-.157.495-.4.643-.714.13-.28.207-.62.21-1.01l.026-2.033 3.317 7.03.195.413.395-.23 4.59-2.647.775-.45h-.002l1.934-1.116c.556-.322.84-.96.85-1.73.008-.69-.21-1.51-.653-2.277v-.004l-1.045-1.812 4.82-2.687.35-.195-.024-.05c.13-.13.243-.29.33-.47a2.46 2.46 0 0 0 .218-1.022l.053-4.332c.01-.746-.243-1.562-.656-2.28-.414-.718-.996-1.345-1.647-1.71l-3.19-1.793a29.652 29.652 0 0 0-1.186-4.13l2.1-1.21c.557-.32.84-.962.85-1.73.01-.692-.21-1.508-.652-2.28l-2.638-4.56-.012-.023c-.443-.76-1.036-1.347-1.635-1.684-.67-.377-1.365-.45-1.923-.13v.002l-2.1 1.212a31.11 31.11 0 0 0-1.404-1.567 28.964 28.964 0 0 0-1.58-1.527l.044-3.66c.01-.744-.244-1.562-.657-2.28-.415-.718-.996-1.346-1.646-1.71l-3.778-2.12a2.426 2.426 0 0 0-.954-.318 1.596 1.596 0 0 0-.918.167l-.01.003-.038.017zm-.013.01l.012-.01-.012.01zm-.034.02l.034-.02-.034.02zm-4.76 2.747l4.76-2.75-4.76 2.747zm-1.007-1.746l1.006 1.744-1.008-1.745zm-.727.42c-.368-.637-.852-1.124-1.333-1.394-.415-.232-.81-.296-1.09-.135h-.003l-1.354.782-1.353.78v.002l-4.23 2.44 3.805 6.706-.57.572-1.9-1.068a1.62 1.62 0 0 0-.64-.216.777.777 0 0 0-.454.086l-5.6 3.232 7.53 14.668 6.558 10.6 7.87 12.61 5.535-3.194a.76.76 0 0 0 .3-.348c.084-.176.13-.398.133-.66l.046-3.852.798-.174 3.9 8.264 4.196-2.422.775-.45 1.936-1.114c.28-.162.423-.54.43-1.014.006-.555-.173-1.215-.542-1.852l-1.26-2.184-.213-.37.373-.206 4.842-2.697.35-.198a.75.75 0 0 0 .308-.345c.084-.176.132-.4.135-.67l.053-4.332c.01-.592-.2-1.256-.544-1.852-.344-.593-.815-1.106-1.33-1.4l-3.36-1.882-.166-.093-.04-.19c-.148-.74-.334-1.49-.555-2.25a30.99 30.99 0 0 0-.756-2.272L58.762 65l.307-.177 2.407-1.39c.28-.16.425-.538.43-1.013.007-.553-.172-1.214-.54-1.85h-.002l-2.62-4.542-.014-.023c-.366-.638-.85-1.124-1.33-1.395-.416-.232-.813-.296-1.094-.135h-.003l-2.404 1.39-.307.176-.226-.272a30.342 30.342 0 0 0-1.588-1.79c-.55-.575-1.11-1.11-1.676-1.61l-.143-.126.003-.192.045-3.85c.008-.59-.202-1.256-.545-1.852-.343-.594-.814-1.108-1.33-1.4l-3.78-2.12a1.64 1.64 0 0 0-.622-.215.813.813 0 0 0-.437.07l-6.978.74zm4.943 13.525l10.56 16.723.062.275-.218 1.634-.03.22-.198.1c-1.64.823-3.696.52-5.71-.653-1.95-1.135-3.872-3.088-5.332-5.613-1.492-2.586-2.222-5.295-2.194-7.584.028-2.364.863-4.298 2.498-5.243l.347-.2.215.34zm9.77 17.042l-.166 1.256c-1.338.565-3.028.26-4.718-.724-1.828-1.064-3.64-2.912-5.025-5.31-1.417-2.452-2.108-5.007-2.083-7.154.023-1.892.606-3.453 1.743-4.305l10.25 16.236z"/><path fill-rule="evenodd" clip-rule="evenodd" fill="#FFF" d="M47.746 58.936a29.67 29.67 0 0 0-3.31-3.447l.047-3.85c.016-1.34-.925-2.967-2.09-3.62l-3.778-2.123c-1.166-.654-2.133-.097-2.15 1.24l-.046 3.85c-1.155-.28-2.28-.38-3.35-.29l-2.34-4.05c-.81-1.41-2.16-2.167-2.996-1.684l-2.708 1.563c-.835.483-.854 2.03-.042 3.438l2.34 4.052c-.614.88-1.088 1.904-1.423 3.043l-3.356-1.885c-1.165-.655-2.132-.097-2.15 1.24l-.052 4.334c-.016 1.336.925 2.964 2.09 3.62l3.357 1.883c.303 1.496.746 3.04 1.33 4.588l-2.406 1.39c-.836.484-.855 2.03-.042 3.438l2.635 4.565c.813 1.408 2.16 2.164 2.998 1.682l2.405-1.39a29.932 29.932 0 0 0 3.31 3.448l-.046 3.85c-.016 1.336.925 2.965 2.09 3.62l3.778 2.118c1.166.657 2.133.1 2.15-1.237l.046-3.85c1.153.28 2.277.38 3.347.29l2.34 4.052c.812 1.406 2.16 2.164 2.996 1.682l2.71-1.563c.837-.484.855-2.03.043-3.44l-2.34-4.052c.614-.88 1.088-1.904 1.423-3.043l3.356 1.886c1.168.65 2.136.093 2.15-1.243l.054-4.332c.016-1.337-.924-2.966-2.09-3.62l-3.358-1.885a30.162 30.162 0 0 0-1.33-4.59l2.405-1.388c.84-.484.856-2.03.043-3.438l-2.635-4.565c-.812-1.408-2.16-2.165-2.997-1.683l-2.404 1.39zm-2.1 7.666c2.91 5.043 2.843 10.53-.148 12.256-2.993 1.73-7.777-.96-10.687-5.998-2.91-5.04-2.84-10.528.15-12.255 2.993-1.728 7.777.958 10.687 5.997z"/><path fill-rule="evenodd" clip-rule="evenodd" fill="#00AAD4" d="M47.422 59.202a30.342 30.342 0 0 0-1.588-1.79c-.55-.574-1.11-1.11-1.675-1.61l-.145-.127.002-.19.047-3.85c.007-.59-.203-1.256-.546-1.85-.345-.595-.815-1.11-1.332-1.4l-3.778-2.12c-.263-.147-.504-.22-.712-.222a.736.736 0 0 0-.38.092.73.73 0 0 0-.268.282c-.103.184-.163.43-.167.727l-.045 3.85-.006.524-.51-.123a10.935 10.935 0 0 0-1.654-.273 8.96 8.96 0 0 0-1.562-.005l-.262.023-.134-.232-2.34-4.053c-.368-.636-.85-1.122-1.334-1.392-.416-.233-.814-.297-1.094-.136l-2.708 1.564c-.28.163-.424.54-.43 1.016-.006.552.173 1.214.542 1.852l2.34 4.053.132.23-.152.218c-.29.417-.55.87-.776 1.354-.23.49-.426 1.015-.588 1.57l-.15.504-.457-.258-3.357-1.883c-.262-.147-.504-.22-.71-.222a.76.76 0 0 0-.38.093h-.002a.734.734 0 0 0-.268.283c-.103.182-.162.427-.166.725l-.053 4.333c-.008.59.202 1.255.545 1.85.343.594.814 1.11 1.33 1.4l3.358 1.886.167.093.04.19c.148.737.334 1.49.554 2.253.218.748.47 1.504.758 2.27l.126.332-.307.18-2.407 1.39h-.003c-.278.16-.42.536-.427 1.013-.007.546.168 1.198.528 1.83h.002l.012.02 2.635 4.564c.367.638.85 1.12 1.332 1.394.415.23.812.296 1.092.136l2.406-1.39.31-.18.224.274a31.064 31.064 0 0 0 1.588 1.793c.55.57 1.11 1.107 1.674 1.607l.144.127-.003.19-.046 3.85c-.007.59.203 1.258.546 1.854.344.594.814 1.11 1.33 1.398l3.78 2.12c.262.147.504.22.71.222a.73.73 0 0 0 .38-.092h.002a.728.728 0 0 0 .265-.283c.104-.185.163-.43.167-.728l.046-3.848.007-.525.51.12a10.68 10.68 0 0 0 1.652.273 8.958 8.958 0 0 0 1.562.003l.26-.02.135.23 2.327 4.03v-.002l.012.024c.37.64.85 1.125 1.333 1.395.415.23.812.296 1.092.134h.003l2.708-1.564c.28-.16.423-.537.43-1.014.007-.55-.174-1.214-.542-1.853l-2.34-4.05-.13-.233.15-.216c.292-.418.55-.87.777-1.354.23-.49.425-1.014.588-1.568l.15-.504.458.256 3.356 1.885c.264.145.506.218.714.222.145 0 .272-.03.38-.094a.742.742 0 0 0 .266-.28c.104-.186.163-.43.167-.73l.054-4.333c.007-.588-.202-1.254-.546-1.85-.344-.594-.815-1.107-1.33-1.396l-3.358-1.89-.166-.09-.04-.19c-.15-.74-.335-1.494-.555-2.256a30.787 30.787 0 0 0-.757-2.27l-.125-.332.306-.178 2.406-1.39h.003c.278-.163.422-.538.427-1.013.008-.543-.168-1.195-.527-1.83L55.42 64l-2.635-4.564c-.367-.638-.85-1.124-1.333-1.395-.416-.23-.813-.294-1.093-.134l-2.406 1.39-.308.178-.225-.27zm-.984-2.37a31.17 31.17 0 0 1 1.405 1.565l2.1-1.213c.557-.32 1.25-.247 1.92.13.605.338 1.202.934 1.647 1.707h.002l2.62 4.54.003.007.01.018v.002c.444.77.662 1.588.655 2.277-.01.77-.293 1.408-.848 1.73l-2.1 1.213a31.037 31.037 0 0 1 1.185 4.13l3.19 1.79c.65.365 1.232.992 1.647 1.713.414.714.666 1.532.657 2.278l-.05 4.334c-.006.445-.103.824-.27 1.127a1.585 1.585 0 0 1-.583.594 1.56 1.56 0 0 1-.807.203 2.31 2.31 0 0 1-1.113-.326l-2.91-1.63a11.9 11.9 0 0 1-.475 1.186c-.208.44-.44.863-.698 1.256l2.208 3.826c.446.77.66 1.585.654 2.28-.01.77-.293 1.408-.85 1.73L52.93 94.86c-.558.32-1.253.247-1.924-.13-.6-.336-1.19-.922-1.634-1.684l-.003-.004-.01-.016v-.004L47.152 89.2c-.47.03-.95.018-1.438-.023a10.902 10.902 0 0 1-1.267-.184l-.04 3.336c-.006.443-.104.824-.273 1.125a1.56 1.56 0 0 1-.58.598c-.237.14-.51.207-.81.203-.346-.004-.725-.11-1.11-.326l-3.78-2.12c-.648-.363-1.23-.992-1.644-1.71-.414-.716-.666-1.536-.657-2.28l.044-3.658a31.126 31.126 0 0 1-2.986-3.093l-2.1 1.21c-.556.32-1.25.247-1.92-.128-.604-.34-1.202-.938-1.646-1.71h-.002l-2.62-4.538v.002-.002l-.004-.006-.01-.02h.002-.002c-.444-.77-.66-1.587-.652-2.278.01-.768.292-1.406.847-1.73l2.1-1.213a31.037 31.037 0 0 1-1.185-4.128l-3.19-1.794c-.65-.366-1.233-.993-1.647-1.712-.414-.716-.666-1.535-.657-2.28l.052-4.333c.005-.445.103-.825.27-1.125.146-.258.343-.46.583-.598.237-.138.51-.207.81-.204.346.003.724.11 1.11.326l2.91 1.63c.14-.41.297-.806.474-1.186.208-.444.44-.864.7-1.257l-2.21-3.827c-.445-.77-.662-1.585-.654-2.28.01-.77.293-1.407.85-1.728l2.708-1.564c.555-.32 1.25-.247 1.92.13.604.338 1.202.935 1.647 1.707L33.3 50.26c.47-.027.95-.02 1.44.022.414.036.836.098 1.267.184l.04-3.334c.005-.446.103-.826.27-1.126.146-.257.344-.458.583-.597.237-.14.51-.208.81-.205.346.002.725.108 1.11.325l3.78 2.12c.65.365 1.23.993 1.645 1.71.415.718.667 1.536.658 2.282l-.044 3.66c.533.477 1.06.987 1.577 1.524zm-1.154 9.98c1.417 2.456 2.11 5.01 2.083 7.155-.025 2.072-.72 3.744-2.078 4.53h-.004c-1.357.782-3.153.548-4.96-.466-1.872-1.05-3.738-2.926-5.154-5.38-1.417-2.454-2.11-5.01-2.083-7.155.024-2.07.72-3.743 2.077-4.528h.002c1.356-.784 3.152-.55 4.96.465 1.87 1.053 3.737 2.93 5.153 5.383zm-4.746-6.11c1.995 1.118 3.976 3.105 5.47 5.69 1.494 2.59 2.223 5.296 2.196 7.587-.03 2.36-.864 4.295-2.497 5.24-1.634.943-3.727.7-5.79-.46-1.994-1.12-3.975-3.104-5.47-5.69-1.493-2.59-2.222-5.297-2.195-7.59.03-2.36.864-4.294 2.497-5.237 1.633-.945 3.725-.7 5.787.457z"/><path fill-rule="evenodd" clip-rule="evenodd" fill="#9E9E9E" d="M43.656 67.05a.42.42 0 1 1 .42.727l-32.72 18.89a.417.417 0 0 1-.57-.152.416.416 0 0 1 .15-.572l32.72-18.892z"/><path fill-rule="evenodd" clip-rule="evenodd" fill="#FFF" d="M16.438 80.034c-2.504-2.686-5.305-3.582-7.12-2.547h-.002l-.032.02-.01.006-3.968 2.293 2.357 4.08c.52 2.396 1.823 4.97 3.696 6.98.254.274.514.532.775.77l2.356 4.08L18.5 93.4c.564-.33 1.03-.844 1.363-1.553 1.403-2.99-.132-8.28-3.426-11.812z"/><path fill-rule="evenodd" clip-rule="evenodd" fill="#9E9E9E" d="M16.13 80.32c-1.186-1.27-2.433-2.124-3.598-2.54-1.144-.41-2.198-.393-3.01.07l-.015.012-.014.006v.004l-.01.004-3.606 2.082 2.148 3.72.047.12a14.236 14.236 0 0 0 1.337 3.598 14.972 14.972 0 0 0 2.254 3.184c.113.123.237.25.372.383.12.12.248.242.38.36l.08.103 2.147 3.717 3.377-1.95.27-.157c.247-.143.474-.328.672-.555.2-.225.376-.496.523-.81.657-1.4.618-3.364.024-5.407a15.02 15.02 0 0 0-3.38-5.94zm-3.315-3.33c1.284.46 2.647 1.386 3.928 2.76a15.917 15.917 0 0 1 3.572 6.276c.647 2.23.674 4.406-.07 5.996-.183.39-.4.723-.65 1.008-.16.18-.33.342-.512.48l.017.025-.354.205-.033.02-4.013 2.315-.36.21-.21-.364-2.32-4.02c-.117-.105-.237-.22-.36-.342-.124-.12-.256-.256-.397-.406a15.803 15.803 0 0 1-2.383-3.364 15.122 15.122 0 0 1-1.402-3.752L4.944 80.01l-.21-.36.362-.21 3.968-2.29h.002l.01-.007.03-.018.28-.162.013.014c.98-.445 2.162-.435 3.414.012z"/><path fill-rule="evenodd" clip-rule="evenodd" fill="#FFF" d="M12.473 82.323c-3.295-3.53-7.103-3.973-8.505-.983-1.403 2.993.132 8.282 3.427 11.813 3.296 3.533 7.104 3.973 8.506.98 1.404-2.99-.13-8.28-3.426-11.81z"/><path fill-rule="evenodd" clip-rule="evenodd" fill="#9E9E9E" d="M12.166 82.606c-.995-1.066-2.033-1.838-3.028-2.303-.822-.387-1.61-.562-2.317-.52-.674.036-1.275.276-1.752.724a3.226 3.226 0 0 0-.72 1.014c-.657 1.4-.618 3.365-.025 5.41a15.072 15.072 0 0 0 3.38 5.94c.996 1.067 2.035 1.84 3.03 2.306.82.385 1.61.56 2.316.52.674-.037 1.276-.277 1.753-.725.284-.26.527-.6.72-1.013.657-1.398.617-3.363.024-5.408a15.067 15.067 0 0 0-3.38-5.943zm-2.674-3.06c1.092.51 2.22 1.345 3.288 2.49a15.915 15.915 0 0 1 3.57 6.278c.648 2.23.675 4.406-.07 5.996-.24.514-.547.938-.906 1.273-.626.584-1.408.896-2.28.947-.842.047-1.768-.154-2.717-.602-1.092-.512-2.22-1.346-3.288-2.492a15.887 15.887 0 0 1-3.57-6.277c-.65-2.23-.677-4.408.07-5.998.24-.516.546-.938.905-1.273.627-.585 1.407-.897 2.28-.946.84-.048 1.766.155 2.716.6z"/></svg>