<!DOCTYPE svg PUBLIC "-//W3C//DTD SVG 1.1//EN" "http://www.w3.org/Graphics/SVG/1.1/DTD/svg11.dtd" [
	<!ENTITY ns_flows "http://ns.adobe.com/Flows/1.0/">
]><svg xmlns="http://www.w3.org/2000/svg" width="110" height="124" viewBox="0.205 -0.385 110 124" overflow="visible"><path fill-rule="evenodd" clip-rule="evenodd" fill="#FFF" d="M68.807 117.15l-5.966 3.444-.004.003v.002c-2.92 1.624-5.25 2.52-7.567 2.62-2.33.1-4.605-.614-7.395-2.213l-.022-.015L27.5 109.245l-.024-.015L7.844 97.894l-.007-.003c-2.868-1.713-4.814-3.283-6.055-5.24C.534 90.685.014 88.36.002 85.14H0V38.915c0-.016 0-.033.003-.05.054-3.318.443-5.774 1.512-7.82 1.08-2.066 2.833-3.68 5.614-5.298L27.5 13.985c.01-.004.018-.01.027-.014L47.16 2.637l.006-.002V2.63c2.92-1.624 5.25-2.523 7.567-2.622 2.328-.097 4.602.615 7.394 2.213l.024.016 20.35 11.75 19.66 11.35.02.01c2.86 1.714 4.8 3.28 6.04 5.233 1.248 1.965 1.77 4.292 1.78 7.512v46.223l-.002.05c-.056 3.318-.44 5.775-1.512 7.82-1.08 2.065-2.833 3.68-5.615 5.3l-6.455 3.728-27.58 15.925c-.008.006-.02.01-.027.015z"/><path fill-rule="evenodd" clip-rule="evenodd" fill="#FFF" d="M50.456 11.485c.433-.357.91-.603 1.414-.758l4.052-1.895c.278-.196.57-.352.876-.47l.002-.002c1.725-.668 3.822-.16 5.597.813l12.448 7.187L95.56 28.32c5.912 3.537 7.992 6.427 8.017 13.015V87.49c-.15 3.026-1.268 4.715-2.714 5.473v.002l-5.176 2.44v-.002c-1.475.797-3.306.61-4.81-.122L76.893 87.21l-20.716-11.96c-5.912-3.54-7.994-6.427-8.016-13.016V18.628c0-3.81.934-6.018 2.297-7.142z"/><path fill-rule="evenodd" clip-rule="evenodd" fill="#9E9E9E" d="M51.848 13.057a2.3 2.3 0 0 1-.16.128c-.375.348-.703.893-.956 1.68-.3.932-.472 2.166-.472 3.762v43.605h-.008c.01 2.87.442 4.896 1.48 6.528 1.064 1.68 2.846 3.092 5.52 4.69l-.003.003 20.683 11.94 13.836 7.99.025.014c.535.26 1.11.418 1.657.432.442.01.87-.07 1.242-.273v.002c.03-.02.064-.034.098-.05l5.17-2.44c.357-.21.686-.557.943-1.076.3-.606.505-1.417.568-2.465V41.335h.01c-.01-2.87-.444-4.896-1.48-6.53-1.066-1.678-2.848-3.092-5.52-4.69v-.002l-20.57-11.878-.115-.064-12.448-7.186c-.72-.39-1.494-.68-2.24-.788-.522-.076-1.014-.062-1.435.073-.07.034-.145.063-.218.087-.035.018-.074.037-.116.06-.07.037-.14.08-.21.13l-.003-.003c-.1.07-.205.13-.318.184l-3.96 1.852a2 2 0 0 1-.364.148 2.21 2.21 0 0 0-.37.156c-.09.046-.178.104-.267.173zM49.12 9.87a6.214 6.214 0 0 1 1.01-.678c.318-.17.65-.31.99-.423l3.74-1.75a6.237 6.237 0 0 1 1.3-.655c1.14-.417 2.346-.49 3.538-.317 1.276.184 2.552.658 3.7 1.287l.05.026 12.446 7.188c.04.022.074.043.11.066L96.6 26.508l.032.02.004-.004c3.237 1.94 5.454 3.74 6.913 6.037 1.483 2.344 2.102 5.06 2.116 8.776h.007V87.49c0 .094-.005.187-.018.278-.102 1.65-.46 3-.992 4.08-.656 1.317-1.568 2.245-2.62 2.85a2.2 2.2 0 0 1-.42.224L96.62 97.28c-1.022.538-2.144.76-3.264.73a8.302 8.302 0 0 1-3.396-.843 2.077 2.077 0 0 1-.284-.167L75.85 89.02 55.135 77.06l-.032-.02v.002c-3.24-1.94-5.456-3.74-6.914-6.036-1.49-2.343-2.108-5.058-2.12-8.775h-.01V18.63c0-2.024.25-3.688.685-5.042.536-1.667 1.364-2.875 2.376-3.712V9.87z"/><path fill-rule="evenodd" clip-rule="evenodd" fill="#F6F6F6" d="M95.135 92.263l-13.026-7.52-20.717-11.96c-5.91-3.537-7.993-6.428-8.016-13.016V16.163c0-.455.014-.887.04-1.297l-1.96-3.636 4.465-2.397c.278-.196.57-.352.876-.47V8.36c1.725-.668 3.822-.16 5.597.813l12.448 7.187L95.56 28.32c5.912 3.537 7.992 6.427 8.017 13.015V87.49c-.15 3.026-1.268 4.715-2.714 5.473v.002l-4.173 2.183-1.555-2.885z"/><path fill-rule="evenodd" clip-rule="evenodd" fill="#9E9E9E" d="M94.822 92.567l-12.925-7.46.002-.002-20.716-11.958-.007-.004c-3.01-1.803-5.054-3.45-6.355-5.5-1.308-2.06-1.852-4.496-1.862-7.875h-.002V16.163a21.634 21.634 0 0 1 .035-1.204l-1.904-3.534-.2-.37.37-.197 4.44-2.386c.145-.1.294-.192.447-.274.15-.08.31-.153.472-.217l.6-.317v.126c.72-.18 1.48-.193 2.24-.083 1.07.153 2.153.557 3.136 1.096l.01.004L75.056 16 95.77 27.957l.005.003c3.013 1.803 5.056 3.45 6.357 5.5 1.305 2.058 1.85 4.496 1.862 7.874h.002V87.49l-.002.02c-.074 1.488-.376 2.674-.835 3.597-.48.968-1.135 1.65-1.88 2.1v.008l-.227.12-4.172 2.185-.365.193-.196-.365-1.5-2.78zM82.318 84.38l13.026 7.52.158.165 1.358 2.522 3.58-1.875.228-.12c.688-.358 1.298-.96 1.74-1.856.408-.82.677-1.89.746-3.244V41.336h.002c-.012-3.21-.52-5.51-1.734-7.428-1.224-1.926-3.178-3.494-6.078-5.23L74.638 16.723h-.004L62.187 9.536c-.898-.49-1.88-.857-2.845-.998-.835-.12-1.653-.073-2.39.213l-.002.003c-.136.052-.27.114-.404.187-.13.067-.257.147-.382.234l-.043.027-4.094 2.2 1.76 3.268.05.225c-.013.214-.024.42-.03.617-.004.18-.008.396-.008.653v43.605h-.002c.01 3.21.518 5.51 1.736 7.427 1.223 1.926 3.178 3.495 6.076 5.23l20.71 11.955h.002z"/><path fill-rule="evenodd" clip-rule="evenodd" fill="#FFF" d="M90.878 95.282l-13.985-8.074-20.716-11.96c-5.912-3.54-7.994-6.427-8.016-13.016V18.627c0-9.033 5.244-9.06 9.023-6.99l12.447 7.187 20.714 11.96c5.91 3.537 7.993 6.427 8.014 13.016v46.155c-.302 6.094-4.525 6.768-7.48 5.327z"/><path fill-rule="evenodd" clip-rule="evenodd" fill="#9E9E9E" d="M90.67 95.646L76.684 87.57 55.97 75.61l-.008-.003c-3.013-1.803-5.054-3.45-6.355-5.498-1.308-2.06-1.852-4.5-1.863-7.88h-.002V18.628c0-2.65.446-4.56 1.175-5.89.52-.95 1.184-1.607 1.936-2.03.752-.422 1.584-.606 2.443-.606 1.37 0 2.812.473 4.085 1.17l.01.005 12.45 7.188 20.713 11.96.007.003c3.01 1.802 5.052 3.448 6.354 5.498 1.307 2.06 1.853 4.497 1.862 7.875h.002v46.156l-.002.02c-.07 1.47-.366 2.645-.813 3.56-.516 1.056-1.232 1.778-2.057 2.228-.82.45-1.734.62-2.65.57a6.608 6.608 0 0 1-2.562-.672l-.024-.014zm-13.57-8.8l13.963 8.06c.698.34 1.47.555 2.234.593.77.037 1.534-.104 2.21-.47.675-.37 1.27-.974 1.7-1.86.4-.82.663-1.88.733-3.215V43.8c-.01-3.21-.518-5.51-1.734-7.428-1.223-1.925-3.18-3.494-6.077-5.23L69.42 19.187l-12.44-7.182h-.002c-1.16-.636-2.46-1.064-3.682-1.064-.722 0-1.416.153-2.034.5-.62.348-1.17.9-1.61 1.7-.665 1.21-1.07 2.99-1.07 5.49v43.603h-.002c.01 3.21.518 5.51 1.735 7.43 1.223 1.924 3.178 3.492 6.077 5.228L77.1 86.848z"/><path fill-rule="evenodd" clip-rule="evenodd" fill="#00AAD4" d="M75.227 51.746a.376.376 0 1 0-.326-.677L40.795 67.35a.373.373 0 0 0-.177.5c.09.187.315.266.502.176l34.11-16.28z"/><path fill-rule="evenodd" clip-rule="evenodd" fill="#00AAD4" d="M72.124 40.49c-.517 0-1.008.075-1.468.216-1.187.365-2.145 1.174-2.82 2.312-.657 1.104-1.048 2.515-1.125 4.123h.005c-.066 1.394.1 2.935.526 4.554.794 3.005 2.346 5.728 4.21 7.7 1.9 2.004 4.134 3.245 6.257 3.245.516 0 1.007-.075 1.467-.217 1.187-.365 2.145-1.174 2.82-2.312.657-1.102 1.048-2.514 1.123-4.122h-.002c.067-1.39-.098-2.933-.525-4.55-.794-3.006-2.348-5.73-4.214-7.702-1.896-2.005-4.13-3.244-6.252-3.244zm-1.25 1.042a4.105 4.105 0 0 1 1.208-.174c1.886 0 3.905 1.142 5.652 2.987 1.778 1.878 3.255 4.476 4.015 7.347.404 1.537.562 2.992.5 4.294h-.003c-.07 1.466-.413 2.734-.994 3.71-.56.937-1.338 1.603-2.3 1.896-.37.116-.774.176-1.207.176-1.886 0-3.906-1.142-5.652-2.987-1.778-1.877-3.257-4.474-4.016-7.345-.406-1.538-.564-2.992-.503-4.295h.004c.07-1.466.413-2.736.994-3.71.56-.937 1.338-1.602 2.3-1.898z"/><path fill-rule="evenodd" clip-rule="evenodd" fill="#B3B4B4" d="M57.466 75.987l4.216-2.435.418.725-4.215 2.434z"/><path fill-rule="evenodd" clip-rule="evenodd" fill="#00AAD4" d="M74.138 48.207c-1.238 0-1.935 1.472-1.556 3.29.38 1.816 1.692 3.288 2.93 3.288 1.24 0 1.936-1.472 1.557-3.29-.38-1.816-1.693-3.288-2.933-3.288z"/><path fill-rule="evenodd" clip-rule="evenodd" fill="#9E9E9E" d="M49.446 12.504L12.89 30.138l-.363-.755L49.082 11.75zM98.96 94.438l-39.598 19.017L59 112.7l39.598-19.017z"/><path fill-rule="evenodd" clip-rule="evenodd" fill="#00AAD4" d="M58.683 25.423a.313.313 0 0 0 .147-.42.315.315 0 0 0-.42-.15L29.756 38.53a.316.316 0 1 0 .272.57L58.68 25.423z"/><path fill-rule="evenodd" clip-rule="evenodd" fill="#00AAD4" d="M57.81 22.15c-1.013 0-1.458 1.204-.994 2.69s1.662 2.69 2.674 2.69c1.014 0 1.46-1.204.996-2.69s-1.663-2.69-2.675-2.69zM87.415 79.65a.313.313 0 0 0 .146-.422.313.313 0 0 0-.42-.146L58.49 92.756a.313.313 0 0 0-.147.42.313.313 0 0 0 .42.15L87.415 79.65z"/><path fill-rule="evenodd" clip-rule="evenodd" fill="#00AAD4" d="M86.523 76.31c-1.04 0-1.495 1.234-1.02 2.757.473 1.524 1.7 2.757 2.738 2.757s1.496-1.232 1.023-2.757c-.476-1.523-1.7-2.757-2.74-2.757z"/><path fill-rule="evenodd" clip-rule="evenodd" fill="#FFF" d="M9.77 31.337c.435-.358.91-.604 1.414-.76l4.317-2.372c.28-.195.573-.352.878-.47h.002c1.725-.67 3.82-.16 5.596.813l12.447 7.187 20.715 11.96c5.912 3.538 7.994 6.427 8.016 13.015v46.157c-.15 3.024-1.266 4.714-2.715 5.47l-5.44 2.92c-1.476.797-3.306.61-4.81-.12l-13.985-8.076L15.492 95.1C9.58 91.563 7.5 88.673 7.477 82.084V38.48c0-3.81.932-6.02 2.294-7.143z"/><path fill-rule="evenodd" clip-rule="evenodd" fill="#9E9E9E" d="M8.287 29.853c.1-.1.21-.188.323-.264.274-.214.554-.396.836-.546a6.21 6.21 0 0 1 .888-.39l4.074-2.24c.16-.104.335-.21.528-.313l-.003-.002c.18-.097.373-.187.58-.27a1.86 1.86 0 0 1 .22-.087c1.14-.417 2.348-.492 3.543-.32 1.285.188 2.562.66 3.71 1.29l.102.06 12.386 7.15.108.068L56.18 45.882l.032.02V45.9c3.24 1.936 5.455 3.737 6.914 6.034 1.487 2.342 2.106 5.057 2.12 8.774h.008v46.156c0 .093-.006.186-.02.276-.102 1.652-.458 3-.993 4.08-.653 1.318-1.565 2.247-2.62 2.85-.1.07-.204.13-.313.18l-5.31 2.852-.06.028c-1.022.538-2.145.76-3.266.733a8.308 8.308 0 0 1-3.394-.846c-.1-.05-.196-.106-.284-.166l-13.825-7.98-20.715-11.96-.032-.02h-.002c-3.24-1.94-5.455-3.74-6.912-6.035-1.487-2.34-2.107-5.058-2.12-8.775H5.38v-43.6c0-2.024.25-3.69.684-5.042.508-1.584 1.282-2.753 2.225-3.585zm3.144 2.88c-.12.066-.232.14-.33.218v.004c-.415.343-.78.91-1.052 1.765-.3.93-.47 2.164-.47 3.76v43.605h-.01c.01 2.872.443 4.896 1.48 6.528 1.065 1.68 2.847 3.092 5.52 4.69l-.003.003 20.684 11.942 13.836 7.988.026.014c.536.26 1.11.417 1.658.43.442.012.87-.07 1.24-.27l.002.002 5.437-2.92v.004l.02-.01c.388-.204.74-.563 1.016-1.116.302-.606.505-1.417.57-2.466l-.002-.038V60.71h.01c-.01-2.872-.443-4.896-1.48-6.53-1.065-1.678-2.847-3.092-5.52-4.69l.002-.002-20.575-11.88-.116-.06-12.384-7.15-.024-.013c-.737-.403-1.526-.703-2.282-.812-.52-.075-1.013-.062-1.435.073-.07.032-.143.06-.217.084-.036.018-.076.037-.117.06l-.002-.004-.006.004c-.042.022-.1.058-.17.107-.073.053-.15.102-.23.146l-4.317 2.373v-.002a1.99 1.99 0 0 1-.392.166 2.004 2.004 0 0 0-.37.154z"/><path fill-rule="evenodd" clip-rule="evenodd" fill="#F6F6F6" d="M53.447 112.373l-13.025-7.52-20.715-11.96c-5.912-3.54-7.993-6.43-8.015-13.016V36.27c0-.455.013-.887.04-1.297l-1.96-3.636 5.73-3.132c.278-.195.57-.352.876-.47h.002c1.726-.67 3.822-.16 5.597.813l12.447 7.187 20.715 11.96c5.91 3.538 7.994 6.427 8.014 13.015v46.157c-.15 3.024-1.268 4.714-2.715 5.47L55 115.257l-1.556-2.884z"/><path fill-rule="evenodd" clip-rule="evenodd" fill="#9E9E9E" d="M53.135 112.674l-12.923-7.46L19.5 93.254l-.008-.004c-3.013-1.803-5.054-3.447-6.355-5.497-1.308-2.06-1.852-4.5-1.863-7.876h-.002V36.27a21.566 21.566 0 0 1 .034-1.204l-1.903-3.53-.198-.366.366-.2 5.706-3.117a4.32 4.32 0 0 1 .917-.493l.607-.352v.157c.718-.18 1.477-.192 2.24-.082 1.072.155 2.154.56 3.137 1.097l.008.005 12.448 7.187 20.715 11.96.006.004c3.014 1.803 5.055 3.448 6.355 5.498 1.305 2.06 1.85 4.498 1.86 7.876h.002v46.157l-.002.02c-.072 1.488-.374 2.674-.832 3.596-.48.97-1.133 1.652-1.88 2.102v.005l-.22.12-5.437 2.92-.367.195-.2-.368-1.497-2.783zm-12.503-8.185l13.025 7.52.16.162 1.355 2.518 4.846-2.602v-.003l.172-.088.05-.028.007-.004c.688-.36 1.298-.962 1.74-1.856.408-.82.676-1.89.746-3.243V60.71h.002c-.01-3.21-.518-5.51-1.734-7.428-1.223-1.926-3.176-3.495-6.076-5.23L34.216 36.098h-.002l-12.44-7.182c-.9-.493-1.885-.862-2.853-1.002-.832-.12-1.652-.073-2.39.212v.002a3.55 3.55 0 0 0-.785.422l-.043.024-5.362 2.93 1.762 3.27.05.226a19.876 19.876 0 0 0-.04 1.27v43.61c.01 3.208.517 5.51 1.734 7.424 1.223 1.928 3.178 3.497 6.076 5.23l20.71 11.956h.002z"/><path fill-rule="evenodd" clip-rule="evenodd" fill="#FFF" d="M50.194 115.135l-13.986-8.076L15.493 95.1C9.58 91.56 7.5 88.67 7.478 82.082V38.48c0-9.034 5.24-9.06 9.02-6.99l12.446 7.186 20.716 11.96c5.91 3.538 7.992 6.428 8.015 13.016v46.155c-.304 6.094-4.525 6.77-7.48 5.328z"/><path fill-rule="evenodd" clip-rule="evenodd" fill="#9E9E9E" d="M49.986 115.498L36 107.423l-20.716-11.96-.006-.004c-3.013-1.805-5.054-3.45-6.355-5.5C7.616 87.9 7.07 85.46 7.06 82.082h-.004V38.48c0-2.65.445-4.56 1.174-5.89.522-.95 1.187-1.61 1.937-2.032.752-.422 1.585-.606 2.443-.606 1.373 0 2.812.47 4.087 1.17l.007.004 12.447 7.187h.004l20.716 11.96.003.003c3.012 1.803 5.054 3.45 6.355 5.498 1.306 2.06 1.852 4.498 1.864 7.877v46.177c-.074 1.47-.37 2.645-.816 3.56-.515 1.056-1.232 1.778-2.055 2.228-.82.45-1.734.62-2.65.573a6.647 6.647 0 0 1-2.56-.675l-.023-.014zm-13.57-8.8l13.96 8.06h.002c.698.34 1.47.555 2.232.593.77.04 1.536-.1 2.212-.47.673-.366 1.267-.97 1.7-1.856.4-.82.662-1.877.732-3.215V63.65c-.01-3.21-.518-5.51-1.734-7.427-1.222-1.926-3.176-3.493-6.07-5.227L28.732 39.04l-12.44-7.182v.002c-1.16-.636-2.46-1.064-3.684-1.064-.723 0-1.416.15-2.034.497-.62.35-1.17.9-1.61 1.7-.664 1.212-1.07 2.99-1.07 5.49v43.602c.01 3.21.517 5.51 1.733 7.43 1.222 1.924 3.177 3.492 6.076 5.228l20.71 11.955z"/><path fill-rule="evenodd" clip-rule="evenodd" fill="#00AAD4" d="M41.11 52.416c1.6.93 2.692 3.31 2.437 5.313-.254 2-1.757 2.87-3.357 1.94-1.6-.93-2.69-3.31-2.436-5.31.254-2.007 1.757-2.877 3.357-1.945z"/><path fill-rule="evenodd" clip-rule="evenodd" fill="#EF4A6F" d="M48.585 56.765c1.6.93 2.69 3.31 2.436 5.313-.252 2.004-1.755 2.872-3.355 1.943-1.6-.93-2.69-3.31-2.436-5.312.253-2.004 1.756-2.873 3.356-1.942z"/><path fill-rule="evenodd" clip-rule="evenodd" fill="#A8C838" d="M33.488 47.98c1.6.93 2.69 3.31 2.436 5.313-.254 2.003-1.758 2.873-3.357 1.94-1.6-.93-2.69-3.31-2.436-5.312s1.76-2.87 3.36-1.94z"/><path fill-rule="evenodd" clip-rule="evenodd" fill="#9E9E9E" d="M57.466 76.712L7.27 47.73l.418-.724 50.196 28.982z"/><path fill-rule="evenodd" clip-rule="evenodd" fill="#9E9E9E" d="M57.46 75.984l6.623-3.785.416.726-6.624 3.786z"/></svg>