<!DOCTYPE svg PUBLIC "-//W3C//DTD SVG 1.1//EN" "http://www.w3.org/Graphics/SVG/1.1/DTD/svg11.dtd" [
	<!ENTITY ns_flows "http://ns.adobe.com/Flows/1.0/">
]><svg xmlns="http://www.w3.org/2000/svg" width="110" height="124" viewBox="-0.001 -0.3853 110 124" overflow="visible"><path fill-rule="evenodd" clip-rule="evenodd" fill="#FFF" d="M68.807 117.152l-5.968 3.443-.005.004c-2.92 1.623-5.25 2.524-7.568 2.62-2.33.1-4.604-.614-7.395-2.21l-.023-.015-20.35-11.75-.025-.016L7.843 97.895l-.008-.004c-2.868-1.717-4.813-3.285-6.055-5.24C.532 90.685.012 88.36 0 85.138V38.916c0-.017 0-.034.002-.05.055-3.32.442-5.775 1.512-7.82 1.08-2.068 2.833-3.682 5.615-5.3l20.37-11.76.026-.015L47.16 2.637l.006-.003c2.92-1.626 5.25-2.525 7.567-2.623 2.33-.1 4.602.613 7.394 2.212l.022.014 20.35 11.75 19.657 11.35.02.01c2.862 1.714 4.802 3.28 6.04 5.233 1.248 1.964 1.77 4.29 1.78 7.51v46.275c-.055 3.32-.442 5.774-1.513 7.82-1.078 2.065-2.832 3.68-5.613 5.298l-6.456 3.728-27.582 15.925-.026.016z"/><path fill-rule="evenodd" clip-rule="evenodd" fill="#00AAD4" d="M85.932 44.473L61.475 58.688l-.63-1.087L85.3 43.387l.632 1.088zm-38.04 22.11L22.898 81.106l-.63-1.086 24.995-14.524.63 1.086z"/><path fill-rule="evenodd" clip-rule="evenodd" fill="#9E9E9E" d="M96.06 93.675c2.444-1.463 4.09-2.785 5.12-4.404 1.022-1.61 1.45-3.545 1.457-6.25V41.81c-.043-2.845-.365-4.93-1.252-6.63-.882-1.688-2.346-3.025-4.686-4.386L78.536 20.31l-17.52-10.12c-2.49-1.385-4.456-2.15-6.372-2.232-1.905-.08-3.795.52-6.143 1.864l-18.16 10.485L11.955 30.92l-.42-.724L29.92 19.582h.003L48.085 9.097c2.49-1.427 4.517-2.06 6.592-1.973 2.066.086 4.144.888 6.75 2.337l.002.005 17.524 10.12h.004l18.16 10.485c2.48 1.443 4.044 2.882 5.005 4.724.958 1.83 1.303 4.033 1.35 7.01V83.02c-.01 2.874-.473 4.946-1.586 6.7-1.108 1.742-2.844 3.143-5.402 4.672l-.427-.717z"/><path fill-rule="evenodd" clip-rule="evenodd" fill="#00AAD4" d="M50.745 56.28c-2.64-5.16-6.083-7.492-10.106-8.083-4.103-.6-8.85.57-13.978 2.412-3.17 1.137-6.33 1.81-9.238 1.67-2.97-.143-5.676-1.123-7.862-3.295a10.57 10.57 0 0 1-.582-.627c-1.382-1.618-2.75-4.154-2.866-7.206-.114-3.04 1.01-6.573 4.598-10.187.46-.462.96-.925 1.5-1.388l.818.953c-.517.442-.993.882-1.427 1.32-3.3 3.324-4.336 6.527-4.234 9.257.1 2.718 1.326 4.984 2.565 6.432.172.2.344.386.512.553 1.945 1.93 4.365 2.802 7.035 2.93 2.733.13 5.73-.51 8.757-1.598 5.304-1.904 10.24-3.113 14.58-2.475 4.42.65 8.186 3.177 11.04 8.756l-1.116.57z"/><path fill-rule="evenodd" clip-rule="evenodd" fill="#EF4A6F" d="M62.716 62.408a1.256 1.256 0 0 1-2.51-.108l.006-.125c.002-.096-.004.066-.004-.126a5.75 5.75 0 0 0-1.69-4.08 5.754 5.754 0 0 0-4.08-1.69c-1.59 0-3.034.646-4.077 1.69s-1.687 2.486-1.687 4.08a5.757 5.757 0 0 0 3.255 5.195 1.256 1.256 0 1 1-1.093 2.263 8.286 8.286 0 0 1-3.41-3.055 8.273 8.273 0 0 1-1.272-4.406c0-2.29.927-4.36 2.427-5.86s3.57-2.428 5.86-2.428c2.29 0 4.36.926 5.86 2.426s2.427 3.57 2.427 5.86c0 .09-.002-.022-.007.176 0 .087-.004.15-.004.182z"/><path fill-rule="evenodd" clip-rule="evenodd" fill="#FFF" d="M56.106 64.642l1.77 38.04c7.08-.595 13.114 2.82 16.3 9.097 5.435-3.14 8.117-4.48 13.55-7.615-4.536-6.387-3.63-13.018.44-18.97-10.688-6.853-21.372-13.704-32.06-20.554zm14.475 25.07a4.88 4.88 0 0 1 6.666 1.786 4.874 4.874 0 0 1-1.786 6.664 4.878 4.878 0 0 1-4.88-8.45z"/><path fill-rule="evenodd" clip-rule="evenodd" fill="#9E9E9E" d="M58.387 68.59l1.483 31.93c3.127.067 6.043.86 8.612 2.294 2.568 1.432 4.77 3.498 6.464 6.11 1.905-1.083 3.45-1.936 4.996-2.79 1.536-.845 3.068-1.69 4.85-2.7-1.568-2.825-2.245-5.692-2.18-8.54.072-3.12 1.032-6.162 2.68-9.055L58.388 68.59zm-2.603 34.183L54.02 64.828a2.094 2.094 0 0 1 3.217-1.947L89.3 83.43h-.003l.05.032a2.097 2.097 0 0 1 .55 2.912c-1.903 2.787-3.035 5.696-3.103 8.602-.06 2.61.738 5.28 2.606 7.928a2.092 2.092 0 0 1-.623 3.072 359.35 359.35 0 0 1-6.816 3.832c-2.046 1.13-4.095 2.26-6.732 3.78a2.094 2.094 0 0 1-2.92-.866c-1.404-2.766-3.424-4.893-5.86-6.252-2.422-1.352-5.284-1.957-8.4-1.697v-.004l-.08.002a2.093 2.093 0 0 1-2.182-2zM71.62 91.527l.003-.002a2.784 2.784 0 0 1 2.118-.274c.69.186 1.31.633 1.695 1.3l.004-.003a2.78 2.78 0 0 1 .27 2.112A2.776 2.776 0 0 1 74.5 96.3c-.03.017-.058.035-.09.05a2.773 2.773 0 0 1-2.11.276 2.777 2.777 0 0 1-1.692-1.29 2.79 2.79 0 0 1-.274-2.12 2.776 2.776 0 0 1 1.287-1.688zm-5.337.607a6.954 6.954 0 0 1 3.052-4.11 2 2 0 0 1 .41-.235A6.954 6.954 0 0 1 78.97 90.3c.078.113.147.234.203.36a6.958 6.958 0 0 1 .586 5.08 6.972 6.972 0 0 1-3.12 4.15c-.04.03-.086.054-.13.083a6.956 6.956 0 0 1-5.293.7 6.95 6.95 0 0 1-4.234-3.256 6.953 6.953 0 0 1-.7-5.287z"/><path fill-rule="evenodd" clip-rule="evenodd" fill="#FFF" d="M56.106 64.642l1.77 38.04c7.116-.946 13.82 3.837 16.3 9.097 5.435-3.14 8.117-4.48 13.55-7.615-4.187-5.282-3.808-13.676.44-18.97-10.688-6.853-21.372-13.704-32.06-20.554zm14.475 25.07a4.88 4.88 0 0 1 6.666 1.786 4.874 4.874 0 0 1-1.786 6.664 4.878 4.878 0 0 1-4.88-8.45z"/><path fill-rule="evenodd" clip-rule="evenodd" fill="#9E9E9E" d="M56.563 65.43l1.71 36.784c3.286-.328 6.465.51 9.182 2.028 3.04 1.695 5.506 4.242 6.9 6.95a362.768 362.768 0 0 1 6.396-3.587c1.93-1.065 3.86-2.127 6.357-3.566-1.93-2.633-2.82-5.94-2.743-9.25.077-3.393 1.168-6.797 3.193-9.493L56.563 65.43zm.896 37.27l-1.77-38.02a.42.42 0 0 1 .644-.39L88.39 84.84c.012.01.024.017.037.03.177.14.208.407.062.587-2.088 2.605-3.216 5.98-3.295 9.35-.073 3.288.85 6.566 2.86 9.097.01.015.024.033.032.05a.42.42 0 0 1-.152.573 357.614 357.614 0 0 1-6.783 3.812 355.497 355.497 0 0 0-6.76 3.795c-.013.006-.027.016-.04.022a.42.42 0 0 1-.557-.2c-1.278-2.71-3.71-5.29-6.748-6.986-2.694-1.503-5.86-2.305-9.107-1.876l-.05.006a.417.417 0 0 1-.434-.4zm13.326-12.62l.003-.002a4.452 4.452 0 0 1 3.384-.446 4.447 4.447 0 0 1 2.708 2.078c.615 1.065.74 2.28.445 3.383a4.46 4.46 0 0 1-2.056 2.7l-.02.01a4.452 4.452 0 0 1-3.384.446 4.437 4.437 0 0 1-2.708-2.078 4.445 4.445 0 0 1-.446-3.385 4.436 4.436 0 0 1 2.073-2.707zm-2.884 2.488a5.295 5.295 0 0 1 2.508-3.236 5.298 5.298 0 0 1 7.182 1.93c.013.023.027.044.038.067a5.288 5.288 0 0 1 .508 3.982 5.284 5.284 0 0 1-2.445 3.2l-.024.015a5.285 5.285 0 0 1-4.02.53 5.276 5.276 0 0 1-3.217-2.47 5.283 5.283 0 0 1-.53-4.02z"/><path fill-rule="evenodd" clip-rule="evenodd" fill="#9E9E9E" d="M55.745 64.85a.418.418 0 0 1 .725-.417l14.474 25.072c.116.2.046.456-.154.57s-.456.048-.57-.154L55.744 64.85z"/><path fill-rule="evenodd" clip-rule="evenodd" fill="#00AAD4" d="M24.795 76.835h-4.423a1.52 1.52 0 0 0-1.517 1.518v4.422c0 .836.682 1.52 1.517 1.52h4.423c.835 0 1.517-.684 1.517-1.52v-4.422a1.52 1.52 0 0 0-1.517-1.518zM87.827 40.2h-4.423a1.52 1.52 0 0 0-1.516 1.517v4.423c0 .835.68 1.517 1.516 1.517h4.423a1.52 1.52 0 0 0 1.517-1.517v-4.423a1.52 1.52 0 0 0-1.517-1.517z"/><path fill-rule="evenodd" clip-rule="evenodd" fill="#FFF" d="M98.127 89.505a3.425 3.425 0 0 0-3.416 3.416v.004c0 1.88 1.538 3.416 3.418 3.416s3.416-1.538 3.416-3.417v-.002a3.426 3.426 0 0 0-3.416-3.414z"/><path fill-rule="evenodd" clip-rule="evenodd" fill="#9E9E9E" d="M98.127 90.136c-.765 0-1.463.313-1.968.817a2.782 2.782 0 0 0-.82 1.97c0 .764.313 1.46.82 1.967s1.2.82 1.966.82 1.462-.314 1.968-.82c.505-.506.82-1.203.82-1.967 0-.767-.315-1.463-.82-1.97a2.783 2.783 0 0 0-1.968-.817zm0-1.26v-.002a4.04 4.04 0 0 1 2.858 1.19 4.034 4.034 0 0 1 1.19 2.86 4.04 4.04 0 0 1-1.19 2.857 4.035 4.035 0 0 1-5.716.002 4.026 4.026 0 0 1 0-5.717 4.043 4.043 0 0 1 2.856-1.19z"/><path fill-rule="evenodd" clip-rule="evenodd" fill="#00AAD4" d="M5.193 53.133a.63.63 0 0 1 1.26 0v2.52a.63.63 0 0 1-1.26 0v-2.52zm57.582 59.513c.302-.174.688-.07.862.23s.07.688-.23.862l-2.18 1.258a.63.63 0 0 1-.633-1.09l2.18-1.26zm-6.613 3.127a.63.63 0 1 1 .248 1.236h-.007l-.05.01-.052.01-.05.01-.05.007-.05.008-.05.01-.05.008-.05.01-.05.006-.05.006-.05.008-.05.006-.053.01-.05.005-.05.006-.05.01-.05.003-.052.006-.05.005-.05.002-.05.006-.05.004-.05.004-.05.005-.05.002-.05.004-.05.003-.05.003-.05.002-.05.002h-.1l-.053.003h-.348l-.05-.002h-.1l-.05-.002-.05-.002-.05-.003-.05-.002-.05-.003-.05-.002-.05-.004-.05-.003-.05-.006-.052-.003-.02-.002a.628.628 0 1 1 .12-1.253h.015l.043.004.043.004.044.004.043.002.044.004.044.002.044.002.042.002.044.002.044.002.042.002.044.002h.043l.045.002h.212l.043-.002h.042l.043-.002.043-.002h.043l.046-.004.044-.002.04-.002.043-.002.044-.002.044-.004.045-.004.043-.004.044-.004.044-.002.043-.006.042-.004.044-.005.044-.004.043-.004.045-.006.043-.005.044-.008.046-.006.043-.004.043-.007.045-.007.044-.008.045-.008.044-.008.043-.01.044-.006.046-.01.043-.008.006-.002zm-6.868-1.348a.63.63 0 0 1-.563 1.126l-.027-.012-.058-.033-.057-.027-.057-.03-.056-.03-.058-.028-.058-.03-.057-.028-.06-.034-.055-.03-.058-.028-.06-.03-.058-.033-.06-.034-.06-.03-.06-.032-.057-.03-.06-.032-.06-.032-.06-.03-.06-.034-.06-.035-.06-.035-.05-.03-.02-.007-.854-.496a.63.63 0 0 1 .63-1.09l.853.493.05.03.06.03.06.032.056.033.057.032.058.032.057.03.058.032.057.03.057.03.057.03.057.03.055.03.058.03.056.03.055.028.056.028.056.03.056.028.056.028.054.03.054.026.055.026.03.015h-.002zm-1.933.4l.605-1.105-.612 1.102.01.004zm-4.604-4.11c.302.17.404.558.23.86a.63.63 0 0 1-.86.23l-2.18-1.26a.63.63 0 1 1 .628-1.09l2.182 1.26zm-6.545-3.78a.63.63 0 1 1-.63 1.09l-2.18-1.26a.625.625 0 0 1-.23-.86.628.628 0 0 1 .86-.23l2.18 1.26zm-6.543-3.78a.63.63 0 0 1-.63 1.092l-2.182-1.26a.63.63 0 1 1 .63-1.09l2.18 1.26h.002zM23.12 99.38a.63.63 0 0 1-.63 1.09l-2.18-1.26a.63.63 0 1 1 .628-1.09l2.183 1.26zm-6.544-3.78a.63.63 0 0 1-.63 1.092l-2.182-1.26a.63.63 0 1 1 .63-1.09l2.182 1.26zm-6.38-3.87a.63.63 0 0 1-.78.988l-.016-.01-.045-.037-.044-.035-.042-.035-.043-.038-.044-.033-.042-.037-.043-.037-.043-.036-.042-.036-.042-.035-.042-.037-.042-.037-.04-.037-.042-.036-.04-.037-.042-.036-.04-.034-.04-.037-.04-.04-.04-.035-.04-.037-.038-.04-.038-.035-.038-.038-.04-.037-.037-.037-.04-.04-.036-.035-.037-.035-.038-.04-.036-.036-.038-.04-.036-.04-.036-.034-.036-.04-.036-.038-.034-.04-.035-.036-.035-.04-.034-.038-.034-.04-.034-.036-.033-.04-.034-.04-.034-.04-.033-.038-.033-.04-.03-.042-.033-.037-.013-.018a.63.63 0 1 1 .988-.782l.01.01.028.037.028.033.027.035.03.033.028.035.03.035.027.035.03.035.03.033.03.035.03.034.03.036.03.033.032.033.032.033.032.033.03.033.032.034.034.034.032.033.032.033.035.033.034.034.033.033.034.033.036.03.035.036.035.032.035.033.035.033.035.032.036.03.036.035.036.03.037.034.036.03.04.034.038.036.038.032.037.033.04.03.038.032.04.034.04.035.038.03.04.035.04.032.04.03.042.034.016.012zM6.72 85.765a.63.63 0 0 1-.52.725.63.63 0 0 1-.722-.522v-.002l-.01-.054-.01-.057-.007-.057-.007-.056-.01-.057-.007-.058-.008-.055-.008-.06-.01-.055-.005-.057-.01-.06-.005-.057-.007-.06-.008-.057-.006-.057-.01-.063-.006-.06-.006-.06-.008-.06-.006-.058-.005-.06-.007-.06-.005-.06-.006-.06-.006-.064-.005-.06-.004-.06-.005-.063-.003-.06-.006-.065-.004-.062-.005-.062-.003-.063-.004-.06-.004-.063-.004-.064-.005-.065-.003-.063-.003-.065-.003-.064-.002-.065-.003-.063v-.05a.63.63 0 1 1 1.257-.056l.003.045.002.065.003.06.002.06.004.063.002.06.003.06.006.064.003.06.004.06.004.06.003.058.006.06.004.057.005.06.004.06.003.056.006.06.003.056.005.06.006.055.005.057.004.057.006.056.005.058.007.055.007.054.005.057.006.055.008.052.007.055.006.055.008.052.007.055.008.054.007.05.007.056.008.053.007.053.01.05.006.052.01.052.007.053v.002zm-.267-7.44a.63.63 0 0 1-1.26 0v-2.52a.63.63 0 0 1 1.26 0v2.52zm0-7.558a.63.63 0 0 1-1.26 0v-2.52a.63.63 0 0 1 1.26 0v2.52zm0-7.557a.63.63 0 0 1-1.26 0v-2.52a.63.63 0 0 1 1.26 0v2.52z"/><path fill-rule="evenodd" clip-rule="evenodd" fill="#9E9E9E" d="M75.673 19.62L60.59 10.915c-2.366-1.317-4.22-2.044-5.978-2.118-1.733-.072-3.486.49-5.693 1.757l-.004-.005L30.76 21.03v.004L12.603 31.517l-1.26-2.175 18.16-10.483h.005L47.67 8.37v-.005c2.628-1.506 4.792-2.176 7.04-2.08 2.216.092 4.406.93 7.122 2.44l.018.01 15.082 8.708-1.26 2.175z"/><path fill-rule="evenodd" clip-rule="evenodd" fill="#FFF" d="M14.648 26.64h-4.054c-.764 0-1.39.624-1.39 1.39v4.052c0 .765.626 1.39 1.39 1.39h4.054c.764 0 1.39-.625 1.39-1.39V28.03c0-.766-.626-1.39-1.39-1.39z"/><path fill-rule="evenodd" clip-rule="evenodd" fill="#9E9E9E" d="M14.648 27.27h-4.053a.762.762 0 0 0-.76.76v4.052c0 .21.085.4.222.538v-.002c.14.14.33.225.538.225h4.053a.758.758 0 0 0 .76-.76V28.03a.76.76 0 0 0-.76-.76zm-4.053-1.26h4.052c.555 0 1.06.227 1.426.593.367.365.594.87.594 1.427v4.052a2.01 2.01 0 0 1-.593 1.425v.002a2.022 2.022 0 0 1-1.427.59h-4.052a2.02 2.02 0 0 1-1.428-.592v-.003a2.014 2.014 0 0 1-.592-1.425v-4.05c0-.556.227-1.062.592-1.427a2.018 2.018 0 0 1 1.428-.593z"/><path fill-rule="evenodd" clip-rule="evenodd" fill="#FFF" d="M78.748 15.36h-4.05c-.767 0-1.393.625-1.393 1.39v4.053c0 .765.626 1.39 1.392 1.39h4.05c.766 0 1.392-.625 1.392-1.39V16.75c0-.765-.628-1.39-1.393-1.39z"/><path fill-rule="evenodd" clip-rule="evenodd" fill="#9E9E9E" d="M78.748 15.99h-4.05a.758.758 0 0 0-.76.76v4.054c0 .21.084.4.22.537h.004a.757.757 0 0 0 .537.225h4.05a.764.764 0 0 0 .762-.76V16.75a.76.76 0 0 0-.225-.537h.002a.763.763 0 0 0-.54-.223zm-4.05-1.26h4.05c.555 0 1.06.228 1.426.594h.002c.365.365.593.87.593 1.427v4.054c0 .555-.23 1.06-.595 1.425h-.002a2.01 2.01 0 0 1-1.426.594h-4.05a2.014 2.014 0 0 1-1.428-.592v-.002a2.007 2.007 0 0 1-.594-1.425V16.75c0-.556.226-1.06.593-1.426a2.01 2.01 0 0 1 1.426-.594z"/></svg>