<!DOCTYPE svg PUBLIC "-//W3C//DTD SVG 1.1//EN" "http://www.w3.org/Graphics/SVG/1.1/DTD/svg11.dtd" [
	<!ENTITY ns_flows "http://ns.adobe.com/Flows/1.0/">
]><svg xmlns="http://www.w3.org/2000/svg" width="110" height="124" viewBox="0 -0.3857 110 124" overflow="visible"><path fill-rule="evenodd" clip-rule="evenodd" fill="#FFF" d="M68.805 117.15l-5.966 3.445-.007.002v.002c-2.92 1.623-5.25 2.52-7.567 2.62-2.33.096-4.603-.615-7.394-2.214l-.022-.012-20.35-11.75-.024-.016L7.843 97.894l-.007-.005c-2.868-1.716-4.814-3.286-6.055-5.242C.535 90.684.015 88.358 0 85.138V38.914c0-.017 0-.035.002-.05.055-3.318.443-5.775 1.512-7.822 1.08-2.066 2.833-3.68 5.614-5.298L27.5 13.985l.027-.014L47.16 2.635l.006-.002V2.63c2.92-1.624 5.25-2.523 7.566-2.62 2.33-.1 4.603.612 7.395 2.212l.02.012L82.5 13.984l19.658 11.35.02.012c2.86 1.713 4.8 3.28 6.04 5.233 1.248 1.963 1.768 4.29 1.78 7.51V84.31c0 .018 0 .034-.003.05-.053 3.32-.44 5.775-1.51 7.82-1.078 2.068-2.834 3.68-5.615 5.3l-6.455 3.73-27.582 15.92c-.01.007-.018.013-.028.016z"/><path fill-rule="evenodd" clip-rule="evenodd" fill="#9E9E9E" d="M67.525 111.42l-5.32 3.07-.006.005c-2.604 1.45-4.68 2.252-6.748 2.338-2.077.088-4.104-.547-6.593-1.973l-.02-.01-18.144-10.476-.022-.016L13.17 94.255l-.005-.004c-2.557-1.53-4.29-2.926-5.4-4.67-1.112-1.754-1.575-3.83-1.585-6.7V41.626c.05-2.958.395-5.15 1.348-6.973.963-1.843 2.526-3.28 5.006-4.724l18.163-10.485c.007-.006.016-.01.024-.014L48.227 9.322l.005-.003c2.604-1.448 4.68-2.25 6.747-2.34 2.076-.085 4.103.55 6.593 1.976l.02.012 18.14 10.475 17.528 10.12.017.01c2.55 1.527 4.28 2.924 5.384 4.664 1.114 1.753 1.58 3.828 1.59 6.7V82.19c-.05 2.96-.396 5.15-1.35 6.973-.96 1.842-2.526 3.28-5.005 4.723l-5.758 3.326-24.59 14.197c-.01.002-.016.006-.023.01zm-5.733 2.345l5.315-3.07.022-.012 24.59-14.196 5.754-3.326c2.34-1.355 3.8-2.695 4.685-4.383.883-1.693 1.203-3.77 1.25-6.6v-41.24c-.01-2.703-.434-4.64-1.456-6.248-1.026-1.62-2.67-2.94-5.105-4.398l-.01-.002-17.527-10.12L61.17 9.69l-.018-.008c-2.348-1.346-4.24-1.945-6.143-1.866-1.917.08-3.885.848-6.375 2.234L31.138 20.155l-.022.012-18.162 10.487c-2.338 1.36-3.802 2.697-4.685 4.386-.887 1.692-1.208 3.77-1.254 6.6v41.24c.01 2.703.435 4.64 1.458 6.248 1.028 1.62 2.675 2.94 5.12 4.404v.002l17.497 10.102c.01.004.017.008.025.014l18.143 10.474.017.008c2.347 1.346 4.237 1.945 6.143 1.865 1.916-.082 3.884-.848 6.372-2.232zm35.485-84.193l.134.563a.42.42 0 0 0-.132-.563z"/><path fill-rule="evenodd" clip-rule="evenodd" fill="#00AAD4" d="M90.686 72.054a.42.42 0 0 1-.84 0V46.84h.002c-.006-1.925-.31-3.302-1.033-4.444-.73-1.15-1.905-2.09-3.648-3.133L72.53 31.967l-.02-.013-13.073-7.547v.002c-1.673-.96-3.016-1.39-4.366-1.33-1.356.055-2.76.602-4.534 1.59L37.9 31.966l-13.096 7.56c-1.666.97-2.707 1.92-3.332 3.115-.63 1.207-.86 2.694-.89 4.726h.002V77.08h-.003c.01 1.925.31 3.302 1.036 4.443.73 1.15 1.904 2.09 3.648 3.134L37.9 91.954l.02.012 8.423 4.863c.2.112.268.367.153.57-.115.2-.37.27-.57.153l-8.423-4.863c-.008-.003-.016-.01-.023-.01l-12.637-7.3-.005-.002c-1.86-1.115-3.122-2.133-3.93-3.406-.816-1.285-1.155-2.8-1.162-4.893h-.002V47.37h.002v-.007c.033-2.163.285-3.766.984-5.104.706-1.35 1.847-2.403 3.654-3.455l13.096-7.56 12.636-7.296.007-.004c1.89-1.052 3.405-1.636 4.915-1.7 1.522-.064 3.003.4 4.817 1.437v.002l13.07 7.547c.01.003.02.008.027.012l12.634 7.297h.005c1.86 1.115 3.124 2.134 3.935 3.41.813 1.283 1.153 2.796 1.16 4.89h.002v25.216z"/><path fill-rule="evenodd" clip-rule="evenodd" fill="#9E9E9E" d="M46.763 87.132c.6.345.805 1.117.458 1.717-.345.6-1.115.804-1.715.455l-4.48-2.586a1.062 1.062 0 0 0-.066-.04l-9.71-5.608-.02-.01c-1.565-.937-2.64-1.812-3.352-2.935-.73-1.15-1.035-2.477-1.04-4.287h-.006V50.85c0-.044.003-.088.008-.132.036-1.762.26-3.097.866-4.255.635-1.217 1.63-2.143 3.186-3.047l10.132-5.85 9.78-5.648a.813.813 0 0 1 .066-.035c1.568-.87 2.85-1.352 4.173-1.406 1.37-.058 2.668.338 4.228 1.233.023.01.04.022.06.035l10.08 5.82.065.04 9.708 5.605.017.01h.002c1.566.937 2.64 1.81 3.35 2.935.733 1.15 1.037 2.478 1.042 4.286h.007v17.037a1.262 1.262 0 0 1-2.52 0V50.44h.005c-.005-1.3-.196-2.21-.657-2.937-.48-.754-1.293-1.396-2.517-2.13l-9.693-5.596-.07-.037-10.074-5.82c-.018-.008-.036-.016-.053-.027-1.14-.652-2.027-.943-2.88-.908-.874.038-1.825.413-3.055 1.094l-.024.012-9.776 5.647-10.133 5.85c-1.13.657-1.827 1.28-2.22 2.034-.4.768-.553 1.764-.58 3.14V73.84h-.004c.004 1.303.196 2.216.657 2.938.48.754 1.292 1.397 2.516 2.13l9.693 5.597c.024.014.048.025.07.04l4.48 2.587z"/><path fill-rule="evenodd" clip-rule="evenodd" fill="#FFF" d="M55.215 69.77c4.33 0 7.86-3.533 7.86-7.86 0-4.33-3.53-7.86-7.86-7.86s-7.86 3.53-7.86 7.86c0 4.327 3.53 7.86 7.86 7.86z"/><path fill-rule="evenodd" clip-rule="evenodd" fill="#EF4A6F" d="M55.214 55.31c-1.822 0-3.472.74-4.666 1.933a6.582 6.582 0 0 0-1.934 4.667c0 1.823.74 3.472 1.934 4.667a6.58 6.58 0 0 0 4.666 1.934 6.594 6.594 0 0 0 6.6-6.6 6.587 6.587 0 0 0-1.93-4.666 6.59 6.59 0 0 0-4.67-1.933zm-6.448.15a9.09 9.09 0 0 1 6.448-2.67c2.518 0 4.798 1.02 6.448 2.67s2.67 3.932 2.67 6.45c0 2.52-1.02 4.798-2.67 6.448s-3.93 2.67-6.448 2.67a9.092 9.092 0 0 1-6.448-2.67 9.09 9.09 0 0 1-2.67-6.448 9.098 9.098 0 0 1 2.67-6.45z"/><path fill-rule="evenodd" clip-rule="evenodd" fill="#F6F6F6" d="M71.123 89.056l-10.1 11.92-3.595-3.274-1.35-34.3 28.79 18.394 1.258 4.685"/><path fill-rule="evenodd" clip-rule="evenodd" fill="#9E9E9E" d="M72.228 90.995l-9.605 11.336a2.093 2.093 0 0 1-2.95.246l-.06-.05-3.598-3.272c-.46-.42-.69-.996-.684-1.574L53.99 63.485a2.094 2.094 0 0 1 3.294-1.795l28.713 18.344c.46.293.766.735.896 1.223h.006l1.256 4.683a2.093 2.093 0 0 1-1.7 2.614l-14.222 2.44zm-11.4 6.97l8.647-10.2c.308-.397.76-.684 1.296-.774l12.737-2.183-.454-1.69L58.327 67.32l1.155 29.42 1.347 1.226z"/><path fill-rule="evenodd" clip-rule="evenodd" fill="#F6F6F6" d="M71.3 89.21l-10.24 11.797-3.63-3.305-.397-10.084 1.604-19.79 17.36 8.296 8.875 5.672 1.265 4.72"/><path fill-rule="evenodd" clip-rule="evenodd" fill="#9E9E9E" d="M71.52 89.593L61.372 101.28a.416.416 0 0 1-.59.04l-.008-.003-3.63-3.304a.422.422 0 0 1-.138-.315l-.395-10.064v-.05l1.604-19.79a.42.42 0 0 1 .45-.387.418.418 0 0 1 .18.06l17.33 8.28c.014.01.03.018.045.025v.002l8.87 5.67a.4.4 0 0 1 .18.244h.004l1.265 4.72a.418.418 0 0 1-.358.525l-14.664 2.66zm-10.497 10.814l9.96-11.472a.415.415 0 0 1 .243-.137l14.386-2.612-1.106-4.125-8.716-5.57-16.788-8.023-1.552 19.168.388 9.875 3.184 2.897z"/><path fill-rule="evenodd" clip-rule="evenodd" fill="#FFF" d="M84.87 81.796l-16.69 2.576-10.752 13.33-1.35-34.3 28.79 18.394"/><path fill-rule="evenodd" clip-rule="evenodd" fill="#9E9E9E" d="M84.92 82.214l-16.52 2.55-10.646 13.202a.418.418 0 0 1-.59.062l-.033-.03V98a.43.43 0 0 1-.122-.313L55.66 63.42a.416.416 0 0 1 .402-.435.412.412 0 0 1 .256.073l28.775 18.386a.41.41 0 0 1 .195.352h.002c0 .215-.162.39-.37.418zm-16.806 1.744l15.594-2.406-27.18-17.366L57.8 96.57l10.035-12.435a.416.416 0 0 1 .28-.176z"/></svg>