<!DOCTYPE svg PUBLIC "-//W3C//DTD SVG 1.1//EN" "http://www.w3.org/Graphics/SVG/1.1/DTD/svg11.dtd" [
	<!ENTITY ns_flows "http://ns.adobe.com/Flows/1.0/">
]><svg xmlns="http://www.w3.org/2000/svg" width="110" height="124" viewBox="-0.0493 -0.3848 110 124" overflow="visible"><path fill-rule="evenodd" clip-rule="evenodd" fill="#FFF" d="M68.808 117.15l-5.968 3.445-.006.004c-2.92 1.624-5.25 2.523-7.567 2.62-2.33.097-4.603-.613-7.393-2.212l-.023-.015-20.35-11.75-.023-.014L7.842 97.895l-.007-.003c-2.867-1.717-4.812-3.285-6.055-5.24C.533 90.683.012 88.358.002 85.14H0V38.914c0-.016 0-.034.002-.05.056-3.32.443-5.775 1.512-7.82 1.08-2.067 2.833-3.68 5.615-5.3l20.37-11.76.027-.015L47.16 2.634l.006-.003c2.92-1.626 5.25-2.525 7.566-2.623 2.33-.1 4.604.612 7.395 2.21l.024.014 20.35 11.75 19.66 11.35.02.012c2.862 1.714 4.8 3.28 6.04 5.232 1.248 1.966 1.77 4.292 1.78 7.512v46.275c-.055 3.32-.443 5.774-1.512 7.82-1.08 2.066-2.834 3.68-5.615 5.298l-6.456 3.73-27.583 15.924-.025.013z"/><path fill-rule="evenodd" clip-rule="evenodd" fill="#DFDFDE" d="M18.705 60.978c0-10.11 4.1-19.267 10.725-25.894 6.628-6.627 15.783-10.725 25.895-10.725.708 0 1.42.02 2.14.06.722.042 1.433.103 2.13.185 2.34.272 4.86.883 7.38 1.74 2.62.89 5.242 2.05 7.658 3.37l-.4.735a48.246 48.246 0 0 0-7.528-3.31c-2.464-.838-4.924-1.436-7.206-1.7a35.727 35.727 0 0 0-4.175-.242c-9.88 0-18.827 4.006-25.3 10.48s-10.48 15.42-10.48 25.3h-.84zm73.35-2.415l-.835.013a47.94 47.94 0 0 1-.197 5.197 40.577 40.577 0 0 1-.74 4.87c-1.773 8.117-6.3 15.206-12.55 20.233a35.625 35.625 0 0 1-22.408 7.883c-2.998 0-5.908-.368-8.687-1.063a35.522 35.522 0 0 1-8.143-3.133l-.392.738a36.422 36.422 0 0 0 17.222 4.296c8.68 0 16.657-3.023 22.933-8.072 6.4-5.146 11.03-12.4 12.842-20.707.343-1.568.595-3.248.756-4.97a48.61 48.61 0 0 0 .2-5.288z"/><path fill-rule="evenodd" clip-rule="evenodd" fill="#9E9E9E" d="M7.732 61.797a.42.42 0 0 1-.84 0V41.88c0-.015 0-.03.002-.045.05-2.913.39-5.068 1.327-6.864.95-1.812 2.49-3.23 4.93-4.65L31.026 20l17.25-9.96.02-.01c2.558-1.423 4.6-2.21 6.63-2.294 2.044-.086 4.04.538 6.49 1.94l.02.014L79.293 20l.02.012L96.54 29.96l.005.002c2.517 1.506 4.225 2.883 5.315 4.6 1.096 1.727 1.554 3.77 1.562 6.596V81.76c-.05 2.913-.387 5.068-1.328 6.864-.947 1.815-2.486 3.232-4.93 4.652l-17.872 10.32c-.008.005-.016.01-.025.013l-17.226 9.945-.004.002c-2.562 1.427-4.61 2.216-6.643 2.302-2.045.085-4.04-.54-6.49-1.944l-.022-.012-17.855-10.308a.42.42 0 1 1 .42-.727L49.3 113.18l.017.01c2.31 1.324 4.17 1.913 6.04 1.833 1.887-.08 3.823-.834 6.27-2.197h.002l17.22-9.94.02-.016 17.875-10.318c2.3-1.338 3.74-2.654 4.608-4.314.868-1.665 1.185-3.708 1.23-6.492V41.158c-.007-2.658-.426-4.563-1.433-6.146-1.01-1.594-2.63-2.894-5.034-4.332l-17.22-9.943-.025-.012-17.853-10.31-.017-.01c-2.31-1.322-4.17-1.912-6.045-1.833-1.88.08-3.813.83-6.255 2.19l-.005.003-17.25 9.96-17.875 10.32c-2.3 1.337-3.74 2.652-4.607 4.313-.87 1.665-1.187 3.708-1.232 6.492a.15.15 0 0 1 .003.03v19.917z"/><path fill-rule="evenodd" clip-rule="evenodd" fill="#9E9E9E" d="M7.928 76.597a1.25 1.25 0 0 1-1.71-.463c-.346-.6-.14-1.366.46-1.712l3.864-2.23-.002-.004 13.833-8.085a31.4 31.4 0 0 1 3.11-17.037 31.117 31.117 0 0 1 12.368-13.16 31.118 31.118 0 0 1 17.523-4.136 31.392 31.392 0 0 1 16.957 6.255 1.26 1.26 0 0 1-.214 2.137L52.17 50.834l-4.368 2.52.002.003c-.368.213-.582.394-.684.588-.117.224-.16.565-.17 1.062h.005v9.916h-.005c.002.415.053.69.174.884.138.215.41.423.833.678l4.217 2.434 4.364 2.52v-.004c.37.212.637.31.858.3.25-.01.565-.14.998-.382l4.218-2.436a1.15 1.15 0 0 1 .07-.037l21.96-12.68a1.256 1.256 0 0 1 1.715.46c.086.153.137.314.156.476h.005a31.38 31.38 0 0 1-3.06 17.807 31.126 31.126 0 0 1-12.344 13.104l.002.002a31.126 31.126 0 0 1-17.464 4.137 31.367 31.367 0 0 1-16.242-5.7l-11.57 6.68-6.546 3.884a1.258 1.258 0 0 1-1.28-2.166l6.548-3.88.01-.005 12.285-7.095v.002c.423-.244.967-.23 1.382.082a28.845 28.845 0 0 0 15.56 5.687c5.423.324 11-.883 16.055-3.803l.002.002.004-.003A28.618 28.618 0 0 0 81.205 73.82a28.9 28.9 0 0 0 2.984-14.464L63.935 71.054l-.065.04-4.216 2.435v-.003l-.02.01c-.782.436-1.434.68-2.14.71-.736.028-1.412-.17-2.205-.625v-.002l-.008-.003-4.37-2.523-4.216-2.435-.016-.01c-.77-.464-1.307-.907-1.682-1.496-.39-.617-.554-1.308-.558-2.232h-.005v-9.916h.005v-.02c.014-.894.13-1.58.456-2.203.342-.655.856-1.142 1.647-1.602l.002.003.004-.002 4.37-2.522 20.32-11.733a28.897 28.897 0 0 0-14.017-4.648 28.6 28.6 0 0 0-16.114 3.8 28.637 28.637 0 0 0-11.374 12.098 28.874 28.874 0 0 0-2.792 16.342 1.256 1.256 0 0 1-.598 1.346l-14.54 8.497v-.005l-.008.005-3.872 2.234z"/><path fill-rule="evenodd" clip-rule="evenodd" fill="#00AAD4" d="M78.915 66.4a23.878 23.878 0 0 1-4.08 8.82 23.964 23.964 0 0 1-7.254 6.467 23.84 23.84 0 0 1-18.14 2.387A23.844 23.844 0 0 1 34.925 72.94l-.006-.006a23.832 23.832 0 0 1-2.39-18.145 23.832 23.832 0 0 1 11.14-14.52 23.91 23.91 0 0 1 18.824-2.2l-.238.805a23.08 23.08 0 0 0-18.164 2.117 23.002 23.002 0 0 0-10.753 14.01 23.018 23.018 0 0 0 2.302 17.51l.002.002a23.014 23.014 0 0 0 14.01 10.75 23.005 23.005 0 0 0 17.51-2.306 23.08 23.08 0 0 0 7-6.24A23.1 23.1 0 0 0 78.1 66.21l.815.19z"/><path fill-rule="evenodd" clip-rule="evenodd" fill="#9E9E9E" d="M31.08 78.945a.418.418 0 0 1 .418.726L11.843 91.08a.42.42 0 0 1-.572-.154.422.422 0 0 1 .154-.573L31.08 78.945zM27.24 72.6L7.586 84.01a.418.418 0 0 0 .418.726l19.66-11.41c.2-.115.267-.37.15-.57a.414.414 0 0 0-.572-.153z"/><path fill-rule="evenodd" clip-rule="evenodd" fill="#FFF" d="M82.195 47.29l4.153 2.398 4.01 2.314c1.163.65 1.85.718 2.954.084l7.048-4.098 4.01-2.315 1.26-.728c1.143-.684 1.546-1.243 1.55-2.518v-9.423c-.02-1.333-.304-1.96-1.405-2.602l-4.154-2.398-4.005-2.314c-1.164-.65-1.85-.718-2.957-.084l-1.257.726-.003.003-.01.005-2.88 1.664-4.008 2.314c-.163.096-.31.19-.44.282l-3.718 2.147c-1.142.685-1.546 1.244-1.55 2.518v9.426c.02 1.333.304 1.96 1.405 2.6z"/><path fill-rule="evenodd" clip-rule="evenodd" fill="#00AAD4" d="M83.244 45.478l4.155 2.4 4.005 2.313c.28.158.456.24.533.246.023 0 .13-.054.33-.17l.002.004 7.04-4.094 3.893-2.25.115-.065 1.26-.726.002.002c.27-.164.432-.277.48-.35.018-.03.027-.144.028-.358h-.01v-4.795h.01v-4.595c-.005-.345-.02-.553-.06-.626-.01-.02-.108-.08-.305-.196l-4.153-2.398.002-.003-3.976-2.296h-.002c-.3-.166-.485-.256-.564-.26-.026 0-.132.053-.333.17l-.005-.008-1.24.717-.01.006-.007.008-.01.004-.004.005v.003l-.002-.002-2.867 1.657-4.006 2.315-.147.093c-.044.028-.09.06-.135.09l-.165.1-3.685 2.128v.003c-.288.17-.458.29-.506.364-.02.03-.028.144-.028.357h.008v4.797h-.008v4.604c.004.34.02.545.06.618.01.02.105.084.302.198zM85.3 51.5l-4.155-2.397c-.903-.526-1.5-1.1-1.912-1.887-.382-.734-.52-1.508-.534-2.502V40.06h-.01v-4.795h.01c0-1.06.196-1.865.666-2.604.44-.69 1.043-1.196 1.9-1.71l.032-.014 3.583-2.07.25-.168.29-.175.025-.017 4.007-2.314 2.884-1.664v.003l.034-.024.002-.002.004.006 1.24-.716v-.008c.902-.52 1.693-.747 2.577-.71.83.035 1.57.303 2.435.785l.026.02 4.007 2.313h.01l4.153 2.398c.905.527 1.502 1.1 1.912 1.887.384.734.52 1.507.536 2.495v4.662h.008v4.795h-.008c-.005 1.06-.2 1.864-.668 2.603-.44.695-1.045 1.2-1.902 1.71l-.024.018-1.144.663-.117.066-4.006 2.313-7.048 4.1-.01.008c-.904.518-1.695.747-2.58.71-.83-.036-1.568-.304-2.434-.785l-.034-.017L85.3 51.5z"/><path fill-rule="evenodd" clip-rule="evenodd" fill="#EAF2F7" d="M82.195 47.29l4.153 2.398 4.01 2.314c1.163.65 1.85.718 2.954.084l7.048-4.098 4.01-2.315c1.142-.684 1.544-1.242 1.55-2.517V33.73c-.022-1.333-.304-1.96-1.406-2.602l-4.154-2.398-4.007-2.314c-1.165-.648-1.85-.717-2.957-.083l-7.048 4.098-4.007 2.315c-1.14.685-1.545 1.243-1.55 2.518v9.426c.02 1.33.305 1.96 1.406 2.6z"/><path fill-rule="evenodd" clip-rule="evenodd" fill="#00AAD4" d="M82.404 46.93l4.153 2.396 4.01 2.314c.52.29.928.45 1.307.466.368.017.747-.107 1.23-.383l7.047-4.098 4.01-2.314v.003c.51-.307.853-.58 1.058-.9.198-.314.28-.704.284-1.256v-9.42c-.008-.6-.072-1.034-.25-1.372-.17-.327-.465-.594-.946-.873l-4.15-2.398h-.003l-4.008-2.314c-.523-.29-.928-.45-1.307-.466-.368-.016-.748.108-1.23.384l-7.047 4.097-4.006 2.314c-.513.305-.854.577-1.058.9-.2.31-.283.702-.285 1.254h.003v4.796h-.003v4.623c.01.602.075 1.035.25 1.373.17.327.468.593.947.873zm3.735 3.12l-4.154-2.397h-.002c-.62-.362-1.018-.73-1.268-1.21-.246-.47-.334-1.018-.345-1.75v-9.428c.003-.722.124-1.25.413-1.705.284-.447.714-.796 1.342-1.172l.004-.004 4.01-2.314 7.045-4.1c.626-.357 1.142-.516 1.684-.493.53.022 1.047.22 1.685.575l.007.004 4.008 2.314 4.15 2.398h.003c.623.36 1.02.73 1.27 1.21.246.47.333 1.017.344 1.748v9.43c-.003.72-.124 1.25-.41 1.703-.285.446-.715.796-1.345 1.172l-.004.003-4.007 2.314-7.047 4.1c-.626.357-1.142.515-1.682.493-.53-.023-1.05-.22-1.685-.575l-.007-.005-4.008-2.315z"/><path fill-rule="evenodd" clip-rule="evenodd" fill="#FFF" d="M86.35 44.862l4.154 2.397 4.007 2.313c1.168.648 1.853.716 2.96.084l4.15-2.4 4.01-2.313c1.144-.684 1.547-1.243 1.55-2.518v-9.423c-.02-1.333-.303-1.96-1.404-2.603l-4.155-2.396-4.005-2.314c-1.164-.648-1.85-.718-2.957-.084l-4.153 2.398-4.006 2.314c-1.147.684-1.548 1.244-1.554 2.517v9.425c.02 1.332.304 1.96 1.406 2.602zm5.494-4.795a4.87 4.87 0 1 1 8.437-4.87 4.87 4.87 0 0 1-1.78 6.653 4.873 4.873 0 0 1-6.655-1.783z"/><path fill-rule="evenodd" clip-rule="evenodd" fill="#00AAD4" d="M86.56 44.5l4.154 2.397 4.008 2.314c.523.29.928.454 1.307.47.367.014.746-.11 1.23-.385l4.152-2.397 4.007-2.314c.51-.307.852-.58 1.056-.9.2-.313.284-.704.285-1.256v-9.423c-.01-.6-.074-1.03-.25-1.367-.17-.327-.465-.594-.946-.873l-4.152-2.398-4.01-2.314h.002c-.524-.29-.93-.45-1.308-.467-.37-.015-.75.108-1.23.385l-4.152 2.397-4.01 2.314c-.51.308-.853.58-1.057.9-.2.315-.282.704-.284 1.257h.002v9.424h-.002c.01.6.074 1.03.25 1.368.17.327.468.593.946.872zm3.733 3.123l-4.152-2.4c-.62-.36-1.016-.73-1.267-1.21-.246-.47-.333-1.016-.344-1.747l-.003-.006v-9.424h.002c0-.722.122-1.25.41-1.705.283-.444.715-.794 1.343-1.17l.005-.003 4.007-2.314 4.155-2.398v-.002c.623-.358 1.14-.516 1.68-.493.53.02 1.05.218 1.687.574l.007.004 4.008 2.314 4.152 2.398c.623.36 1.02.73 1.27 1.21.245.47.333 1.016.345 1.747v9.43c-.006.723-.126 1.25-.414 1.706-.284.446-.714.796-1.343 1.172l-.004.004-4.01 2.312-4.153 2.397c-.624.358-1.14.516-1.683.493-.53-.022-1.047-.22-1.687-.575l-.005-.003-4.01-2.314zm1.19-7.346l-.002-.004a5.267 5.267 0 0 1-.525-4.01 5.275 5.275 0 0 1 2.464-3.212v.003a5.277 5.277 0 0 1 4.012-.53c1.31.35 2.483 1.2 3.214 2.464h-.002l.002.002c.73 1.264.88 2.706.53 4.01a5.276 5.276 0 0 1-2.466 3.213 5.276 5.276 0 0 1-4.014.53 5.264 5.264 0 0 1-3.21-2.465zm.724-.42a4.44 4.44 0 0 1-.444-3.377 4.44 4.44 0 0 1 2.075-2.704l.005-.004a4.44 4.44 0 0 1 3.372-.44c1.1.295 2.09 1.01 2.703 2.074l.005.006a4.44 4.44 0 0 1 .44 3.372 4.433 4.433 0 0 1-2.074 2.703 4.438 4.438 0 0 1-3.38.445 4.44 4.44 0 0 1-2.704-2.075z"/></svg>