<!DOCTYPE svg PUBLIC "-//W3C//DTD SVG 1.1//EN" "http://www.w3.org/Graphics/SVG/1.1/DTD/svg11.dtd" [
	<!ENTITY ns_flows "http://ns.adobe.com/Flows/1.0/">
]><svg xmlns="http://www.w3.org/2000/svg" width="110" height="124" viewBox="0.0439 -0.2808 110 124" overflow="visible"><path fill-rule="evenodd" clip-rule="evenodd" fill="#FFF" d="M68.807 117.148l-5.968 3.446-.007.002v.003c-2.92 1.622-5.25 2.52-7.567 2.62-2.33.097-4.604-.616-7.394-2.215l-.023-.012-20.35-11.75-.024-.015L7.842 97.894l-.006-.006c-2.868-1.716-4.812-3.283-6.056-5.24-1.247-1.964-1.768-4.29-1.778-7.51H0V38.914c0-.016 0-.034.003-.05.055-3.318.442-5.774 1.51-7.82 1.08-2.066 2.834-3.68 5.615-5.298L27.5 13.985l.027-.014L47.16 2.637l.005-.003C50.085 1.008 52.417.108 54.732.01c2.33-.098 4.603.613 7.395 2.212l.022.014 20.35 11.75 19.656 11.35.02.01c2.862 1.714 4.802 3.28 6.042 5.233 1.245 1.964 1.766 4.29 1.776 7.51H110v46.224c0 .016-.002.032-.004.05-.054 3.318-.44 5.773-1.512 7.82-1.08 2.065-2.833 3.68-5.615 5.298l-6.457 3.727-27.58 15.923c-.01.007-.02.01-.027.014z"/><path fill-rule="evenodd" clip-rule="evenodd" fill="#EAF2F7" d="M69.655 52.784v.002l.132.283c.166.426.24.93.242 1.56v12.82c-.03 1.81-.414 2.666-1.914 3.537l-5.65 3.264-5.452 3.15c-.823.456-1.47.702-2.112.71V61.15l14.752-8.367z"/><path fill-rule="evenodd" clip-rule="evenodd" fill="#00AAD4" d="M70.025 52.59h.002c.005.014.012.026.018.04l.122.265.01.022a3.7 3.7 0 0 1 .208.793c.042.272.06.577.063.92h.002v12.82c0 .013-.002.03-.004.045-.015.95-.133 1.665-.45 2.27-.327.627-.85 1.11-1.668 1.588l-5.65 3.262a.092.092 0 0 0-.024.013l-5.432 3.133-.005.005a7.34 7.34 0 0 1-1.188.555 3.49 3.49 0 0 1-1.12.21.415.415 0 0 1-.424-.41v-.008h-.003v-16.96c0-.168.1-.313.243-.38l14.72-8.353a.42.42 0 0 1 .572.157l.005.01zm.02.04l-.006.323a.425.425 0 0 0 .004-.323zm-.49 1.205a3.335 3.335 0 0 0-.103-.454l-14.128 8.017V77.65c.14-.03.283-.07.43-.12.32-.113.667-.278 1.056-.495h.002l5.424-3.132.02-.014 5.65-3.263c.68-.395 1.102-.776 1.348-1.25.25-.476.342-1.077.356-1.9V54.63h.002a5.847 5.847 0 0 0-.056-.793z"/><path fill-rule="evenodd" clip-rule="evenodd" fill="#00AAD4" d="M57.774 43.896l10.77 6.218.02.012c1.093.652 1.757 1.238 2.184 2.03.426.792.542 1.647.542 2.856V67.45c0 .045-.004.09-.007.133-.03 1.21-.207 2.048-.67 2.792-.466.76-1.152 1.287-2.203 1.893l-10.77 6.22-.017.008.002.002c-1.11.617-1.95.9-2.847.873-.895-.027-1.695-.354-2.743-.96l-10.77-6.22-.02-.01c-1.093-.65-1.758-1.24-2.184-2.03-.424-.79-.54-1.647-.54-2.855V54.857c0-.045.003-.09.007-.134.03-1.208.207-2.048.666-2.792.47-.757 1.156-1.285 2.206-1.892l10.77-6.22.017-.007c1.108-.618 1.948-.9 2.846-.873.894.027 1.694.355 2.742.96zm9.5 8.382l-10.75-6.208c-.69-.4-1.165-.613-1.56-.626-.392-.01-.86.17-1.56.56V46L42.65 52.21c-.69.4-1.113.703-1.32 1.04-.196.316-.277.782-.294 1.522.002.028.003.056.003.085v12.436c0 .8.05 1.32.233 1.665.186.343.575.66 1.26 1.068l10.75 6.21c.692.397 1.167.613 1.562.624.39.014.86-.17 1.558-.558l10.756-6.208c.69-.398 1.11-.702 1.32-1.038.196-.316.275-.782.293-1.522a1.21 1.21 0 0 1-.004-.084V55.012c0-.8-.05-1.32-.236-1.665-.186-.344-.575-.657-1.26-1.068v-.003z"/><path fill-rule="evenodd" clip-rule="evenodd" fill="#00AAD4" d="M40.452 52.27l14.665 8.522-.42.723-14.665-8.523z"/><path fill-rule="evenodd" clip-rule="evenodd" fill="#FFF" d="M17.216 65.6l14.955-8.854 14.59 9.294-.452 16.947-14.427 8.095-14.727-8.547.064-16.934zm60.146-8.406L63.064 65.6l-.174 16.713 14.838 8.77 14.877-8.903-.128-16.425-14.52-8.586-.595.023zM40.21 42.666l14.693 8.49 14.81-8.728-.327-17.01-14.754-8.165-14.598 8.865.175 16.548z"/><path fill-rule="evenodd" clip-rule="evenodd" fill="#00AAD4" d="M28.54 58.403a.63.63 0 0 1-1.26 0v-9.125c0-.023 0-.045.003-.067.03-1.685.234-2.944.793-4.012.572-1.096 1.487-1.944 2.932-2.784l8.665-5.002a.628.628 0 1 1 .63 1.088l-8.665 5c-1.23.718-1.998 1.41-2.452 2.278-.454.87-.623 1.96-.65 3.455l.003.045v9.125z"/><path fill-rule="evenodd" clip-rule="evenodd" fill="#9E9E9E" d="M61.32 8.55l18.144 10.475.02.014 17.504 10.103.007.004c2.557 1.53 4.29 2.928 5.398 4.672 1.113 1.752 1.578 3.826 1.586 6.7V81.77c-.05 2.96-.396 5.15-1.35 6.973-.963 1.84-2.526 3.28-5.005 4.724a.092.092 0 0 0-.024.012l-18.137 10.47v.003l-17.527 10.118-.022.012c-2.596 1.444-4.67 2.243-6.73 2.33-2.077.086-4.105-.548-6.593-1.972l-.02-.014-18.143-10.475-.02-.013-17.505-10.108h-.006C10.34 92.3 8.606 90.904 7.5 89.16c-1.115-1.752-1.58-3.826-1.588-6.7H5.91V41.252c0-.015 0-.03.004-.045.047-2.958.392-5.148 1.346-6.972.963-1.842 2.526-3.28 5.005-4.724l.025-.01 18.14-10.474 17.526-10.12.005-.003c2.604-1.45 4.68-2.25 6.748-2.338 2.076-.088 4.104.547 6.592 1.973l.02.012zm17.724 11.2L60.9 9.275l-.016-.01c-2.35-1.345-4.24-1.943-6.144-1.864-1.914.083-3.882.85-6.372 2.236L30.845 19.75 12.707 30.224l-.02.013c-2.34 1.36-3.803 2.697-4.687 4.387-.884 1.692-1.205 3.768-1.252 6.6a.15.15 0 0 1 .002.03V82.46h-.002c.01 2.705.435 4.64 1.46 6.25 1.027 1.622 2.673 2.942 5.118 4.404v.002l17.498 10.1.023.015 18.143 10.477.018.008c2.348 1.345 4.238 1.946 6.143 1.867 1.914-.08 3.88-.845 6.363-2.227l.005-.003 17.527-10.12h.002l18.14-10.472.02-.013c2.337-1.362 3.803-2.698 4.685-4.387.885-1.692 1.206-3.77 1.254-6.6-.002-.01-.002-.02-.002-.03V40.52h.002c-.01-2.704-.436-4.64-1.458-6.25-1.03-1.62-2.676-2.94-5.12-4.404l-17.5-10.103-.022-.013z"/><path fill-rule="evenodd" clip-rule="evenodd" fill="#F6F6F6" d="M92.478 65.755h.002l.13.285c.165.427.24.93.243 1.558V80.42c-.03 1.813-.414 2.668-1.913 3.54l-5.65 3.262-5.453 3.148c-.822.458-1.468.703-2.11.712V74.124l14.75-8.37z"/><path fill-rule="evenodd" clip-rule="evenodd" fill="#9E9E9E" d="M92.848 65.56h.002l.01.02.13.284.012.03c.095.242.16.503.205.787.042.273.064.577.064.92h.003v12.866c-.02.95-.137 1.664-.454 2.27-.328.626-.848 1.11-1.668 1.587l-5.65 3.262-.025.012-5.43 3.134-.005.006c-.43.24-.82.428-1.188.554a3.524 3.524 0 0 1-1.118.21.417.417 0 0 1-.425-.412v-.006h-.002V74.124c0-.168.1-.314.243-.382l14.72-8.352a.42.42 0 0 1 .573.158l.006.01zm-.47 1.244a3.192 3.192 0 0 0-.104-.452l-14.128 8.014V90.62c.14-.03.283-.07.43-.12a7.026 7.026 0 0 0 1.058-.495l5.426-3.132.02-.014 5.65-3.264c.68-.394 1.1-.775 1.347-1.25.25-.475.34-1.075.357-1.9-.002-.008-.002-.017-.002-.027V67.597h.002c0-.287-.02-.55-.056-.794z"/><path fill-rule="evenodd" clip-rule="evenodd" fill="#9E9E9E" d="M80.436 56.775l10.93 6.31.02.012v-.002c.962.573 1.62 1.11 2.072 1.847.466.758.654 1.606.654 2.775V80.42c0 .045-.002.09-.008.132-.024 1.067-.164 1.873-.557 2.603-.42.78-1.065 1.364-2.08 1.95l-.07.04-10.936 6.31-.014.01.002.002c-.978.544-1.772.846-2.637.87-.877.025-1.706-.238-2.723-.826l-11-6.35-.018-.01h-.003c-.96-.573-1.617-1.11-2.07-1.843-.467-.758-.655-1.608-.655-2.778v-12.7c0-.046.005-.09.01-.138.025-1.063.165-1.87.557-2.6.417-.774 1.063-1.362 2.085-1.95l11-6.35.015-.01c.978-.546 1.77-.847 2.635-.87.882-.027 1.71.237 2.73.824.02.014.043.027.063.04zM90.1 65.25l-10.915-6.304c-.025-.01-.047-.024-.07-.037-.598-.347-1.028-.503-1.4-.493-.393.01-.855.205-1.484.555h-.002l-10.986 6.34c-.592.344-.94.635-1.118.97-.18.332-.25.797-.264 1.46.002.027.003.055.003.084v12.7c0 .695.08 1.146.27 1.46.208.334.606.64 1.226 1.01l10.98 6.34c.6.345 1.027.503 1.404.49.394-.01.856-.202 1.487-.555v.003l10.916-6.3a.894.894 0 0 1 .064-.043c.6-.343.95-.638 1.126-.964.18-.335.247-.8.264-1.462-.002-.03-.004-.056-.004-.085V67.715c0-.695-.077-1.144-.27-1.457-.207-.338-.603-.64-1.224-1.01z"/><path fill-rule="evenodd" clip-rule="evenodd" fill="#9E9E9E" d="M63.273 65.24l14.665 8.523-.42.724-14.666-8.523z"/><path fill-rule="evenodd" clip-rule="evenodd" fill="#F6F6F6" d="M69.655 25.827v.002l.132.28c.166.43.24.93.242 1.56v12.82c-.03 1.814-.414 2.67-1.914 3.54l-5.65 3.264-5.452 3.148c-.823.457-1.47.702-2.112.712v-16.96l14.752-8.368z"/><path fill-rule="evenodd" clip-rule="evenodd" fill="#9E9E9E" d="M70.025 25.632h.002l.01.02.13.284c.004.01.01.02.013.03.093.242.16.503.205.787.042.272.06.576.063.918h.002v12.823c0 .015-.002.03-.004.045-.015.952-.133 1.665-.45 2.272-.327.624-.85 1.107-1.668 1.585l-5.65 3.262-.025.013-5.43 3.135-.006.003c-.43.24-.82.426-1.188.554a3.52 3.52 0 0 1-1.12.212.418.418 0 0 1-.425-.412v-.007h-.002v-16.96c0-.168.1-.313.243-.38l14.72-8.353a.42.42 0 0 1 .572.158l.005.012zm-.47 1.245a3.335 3.335 0 0 0-.103-.454l-14.128 8.015V50.69c.14-.027.28-.067.43-.12a6.66 6.66 0 0 0 1.056-.493h.002l5.424-3.13.02-.014 5.65-3.263c.68-.395 1.102-.776 1.348-1.25.25-.475.342-1.076.356-1.9V27.672h.002a5.87 5.87 0 0 0-.056-.793z"/><path fill-rule="evenodd" clip-rule="evenodd" fill="#9E9E9E" d="M57.572 16.823l10.973 6.334.018.01h.002c.938.562 1.593 1.09 2.05 1.817.475.747.675 1.596.675 2.76V40.49c0 .045-.004.09-.007.133-.025 1.04-.16 1.842-.544 2.57-.41.78-1.046 1.377-2.055 1.96l-11.04 6.375-.068.035c-.934.516-1.71.81-2.55.844-.878.033-1.713-.218-2.723-.802l-.003-.002v.002L41.26 45.23a.788.788 0 0 1-.06-.036c-.916-.552-1.56-1.077-2.01-1.788-.47-.75-.672-1.6-.672-2.76V27.9c0-.047.003-.09.007-.136.026-1.04.16-1.84.54-2.57.41-.776 1.047-1.373 2.062-1.958l11.04-6.374.016-.01c.953-.532 1.74-.836 2.595-.87.883-.034 1.718.218 2.728.8l.064.04zm9.703 8.498l-10.957-6.324-.07-.038c-.578-.333-1-.48-1.37-.465-.393.015-.856.21-1.474.554L42.377 25.41c-.573.332-.91.624-1.083.956-.178.336-.243.8-.258 1.45.002.026.003.054.003.083v12.75c0 .67.08 1.11.277 1.42.205.325.59.62 1.173.973l.03.015 11.04 6.373-.002.003c.577.333.998.478 1.372.464.385-.016.835-.202 1.43-.53l.024-.015 11.043-6.375c.578-.334.917-.627 1.09-.954.175-.336.24-.8.256-1.45-.002-.028-.004-.056-.004-.084V27.74c0-.673-.084-1.11-.28-1.42-.21-.336-.61-.638-1.216-1z"/><path fill-rule="evenodd" clip-rule="evenodd" fill="#9E9E9E" d="M40.45 25.313l14.665 8.522-.42.724-14.665-8.525z"/><path fill-rule="evenodd" clip-rule="evenodd" fill="#F6F6F6" d="M46.63 65.755l.13.285c.17.427.244.93.245 1.558V80.42c-.028 1.813-.414 2.668-1.913 3.54l-5.65 3.262-5.453 3.148c-.824.458-1.47.703-2.11.712V74.124l14.75-8.37z"/><path fill-rule="evenodd" clip-rule="evenodd" fill="#9E9E9E" d="M47.002 65.56l.01.02.13.284.012.03c.095.242.163.503.207.787.04.273.063.577.063.92h.004v12.82a.41.41 0 0 1-.004.046c-.017.95-.134 1.664-.45 2.27-.328.626-.85 1.11-1.67 1.587l-5.65 3.262-.025.012-5.43 3.134-.004.006a7.43 7.43 0 0 1-1.19.554c-.385.133-.75.206-1.116.21a.418.418 0 0 1-.427-.41V74.123c0-.168.1-.314.243-.382l14.72-8.35a.42.42 0 0 1 .573.16l.005.01h.003zm-.472 1.244a3.064 3.064 0 0 0-.102-.452l-14.13 8.014V90.62c.14-.03.283-.07.43-.12.32-.113.667-.278 1.058-.495l5.426-3.132.02-.014 5.65-3.264c.68-.394 1.1-.775 1.348-1.25.25-.475.342-1.075.356-1.9l-.002-.027V67.597h.002c0-.287-.018-.55-.056-.794z"/><path fill-rule="evenodd" clip-rule="evenodd" fill="#9E9E9E" d="M34.69 56.83l10.835 6.256c.02.01.04.023.06.037 1.03.62 1.68 1.187 2.11 1.956.436.78.57 1.632.57 2.83v12.51c0 .044-.003.09-.008.13-.028 1.173-.194 2.004-.636 2.744-.454.765-1.126 1.31-2.166 1.91L34.62 91.456c-.022.014-.045.025-.068.037-1.05.58-1.865.86-2.74.846-.895-.014-1.703-.325-2.743-.926-.025-.012-.046-.027-.07-.04l-10.76-6.21-.02-.01c-1.055-.634-1.72-1.205-2.154-1.983-.437-.782-.57-1.634-.57-2.833v-12.51c0-.045 0-.09.007-.135.027-1.166.194-1.998.636-2.74.454-.762 1.126-1.306 2.166-1.906.022-.014.047-.026.07-.038l10.77-6.217.013-.01c1.072-.6 1.9-.886 2.787-.874.89.013 1.698.325 2.74.925l.003.004v-.003zm9.576 8.43l-10.834-6.256h.002c-.667-.385-1.126-.583-1.515-.59-.39-.005-.858.18-1.54.56v-.002l-10.75 6.204c-.02.015-.042.03-.063.042-.67.387-1.074.688-1.274 1.022-.19.318-.266.783-.282 1.504.003.028.003.054.003.083v12.508c0 .776.06 1.277.246 1.614.19.335.58.645 1.25 1.047h-.003l10.75 6.206c.023.01.047.022.07.037.668.386 1.128.586 1.514.592.383.004.837-.17 1.495-.536l.024-.013L44.19 83.03c.67-.39 1.073-.69 1.272-1.025.192-.32.267-.784.283-1.503-.002-.028-.002-.055-.002-.084V67.91c0-.777-.06-1.275-.245-1.61-.185-.333-.564-.635-1.208-1.025l-.026-.014z"/><path fill-rule="evenodd" clip-rule="evenodd" fill="#9E9E9E" d="M17.428 65.24l14.663 8.522-.42.724-14.66-8.522z"/><path fill-rule="evenodd" clip-rule="evenodd" fill="#A8C838" d="M71.593 81.352c.3-.172.684-.068.856.23s.067.686-.233.858l-13.223 7.634-.007.005c-1.5.833-2.706 1.295-3.925 1.346-1.234.05-2.425-.317-3.874-1.147l-.048-.03-10.04-5.8-4.584-2.643a.627.627 0 1 1 .626-1.086l4.58 2.645 10.046 5.798.043.024c1.24.708 2.225 1.025 3.2.985.995-.042 2.036-.452 3.366-1.192v.003l13.215-7.63z"/><path fill-rule="evenodd" clip-rule="evenodd" fill="#EF4A6F" d="M64.012 35.313c-.3-.173-.402-.558-.228-.858s.558-.403.86-.23l4.09 2.363.033.02 4.545 2.625h.004l5.153 2.976.03.017c1.46.877 2.46 1.687 3.11 2.71.66 1.04.934 2.257.94 3.932v16.94a.63.63 0 0 1-1.26 0V48.87h.003c-.005-1.42-.223-2.43-.748-3.26-.53-.836-1.4-1.53-2.694-2.307l-.01-.006-5.157-2.977h.002l-4.547-2.626a.202.202 0 0 1-.036-.018l-4.092-2.363z"/></svg>