<svg id="Layer_1" data-name="Layer 1" xmlns="http://www.w3.org/2000/svg" xmlns:xlink="http://www.w3.org/1999/xlink" viewBox="0 0 160 190"><defs><style>.cls-1{fill:#a7a7ac;}.cls-2{fill:url(#linear-gradient);}.cls-3{fill:#ed3238;}.cls-4{fill:#095bfa;}</style><linearGradient id="linear-gradient" x1="154.97" y1="88.42" x2="5.04" y2="92.17" gradientUnits="userSpaceOnUse"><stop offset="0" stop-color="#095bfa"/><stop offset="1" stop-color="#ed3238"/></linearGradient></defs><title>Artboard 1</title><path class="cls-1" d="M152.38,62.07A18,18,0,0,0,148.57,55a17.58,17.58,0,0,0-2.55-2.4,16.5,16.5,0,0,0-2-1.32L89.14,19.54c-.34-.2-.68-.38-1-.56a17.94,17.94,0,0,0-15.83,0c-.35.18-.69.36-1,.56L16.34,51.24A18,18,0,0,0,7.43,65.55c0,.39,0,.79,0,1.19v63.4a18,18,0,0,0,9,15.5l54.91,31.7a17.93,17.93,0,0,0,17.89,0l54.91-31.7a18,18,0,0,0,8.95-15.5V66.74A17.76,17.76,0,0,0,152.38,62.07Zm-79-38.77a13.5,13.5,0,0,1,5.9-1.79c.29,0,.58,0,.88,0s.58,0,.87,0a12.36,12.36,0,0,1,2,.29c.32.07.63.15.94.24a13,13,0,0,1,1.86.69c.37.18.74.36,1.1.57L141.88,55a13.56,13.56,0,0,1,6.78,11.74V109.5a13.57,13.57,0,0,1-6.78,11.74L87,152.94a13.52,13.52,0,0,1-13.55,0l-54.91-31.7a13.56,13.56,0,0,1-6.77-11.74V66.74A13.55,13.55,0,0,1,18.51,55Zm75.24,106.84a13.55,13.55,0,0,1-6.78,11.73L87,173.57a13.52,13.52,0,0,1-13.55,0l-54.91-31.7a13.54,13.54,0,0,1-6.77-11.73v-9a17.92,17.92,0,0,0,4.6,3.82l54.91,31.7a17.87,17.87,0,0,0,17.89,0L144.05,125a18,18,0,0,0,4.61-3.82Z"/><path class="cls-2" d="M80.2,47.72A13.5,13.5,0,0,1,87,49.53l54.2,31.29c4.19,2.42,6.77,4.79,6.77,9.63s-2.58,6.89-6.77,9.31L87,131.05a13.58,13.58,0,0,1-13.55,0L19.22,99.76c-4.19-2.42-6.49-4.47-6.49-9.31s2.3-7.21,6.49-9.63l54.2-31.29a13.56,13.56,0,0,1,6.78-1.81m0-4.89A18.41,18.41,0,0,0,71,45.3L16.78,76.59a20.17,20.17,0,0,0-6.32,5.25,14,14,0,0,0-2.61,8.61c0,7.74,4.61,11,8.93,13.54L71,135.28a18.44,18.44,0,0,0,18.44,0L143.61,104c3.45-2,9.22-5.32,9.22-13.54,0-7.52-4.66-11.23-9.22-13.86L89.42,45.3a18.43,18.43,0,0,0-9.22-2.47Z"/><ellipse class="cls-3" cx="80.34" cy="62.21" rx="9.5" ry="5.43"/><ellipse class="cls-4" cx="97.17" cy="71.99" rx="9.5" ry="5.43"/><ellipse class="cls-1" cx="114.01" cy="81.22" rx="9.5" ry="5.43"/></svg>