<svg id="Layer_1" data-name="Layer 1" xmlns="http://www.w3.org/2000/svg" xmlns:xlink="http://www.w3.org/1999/xlink" viewBox="0 0 160 190"><defs><style>.cls-1{fill:url(#linear-gradient);}.cls-2{fill:#a7a7ac;}</style><linearGradient id="linear-gradient" x1="145.62" y1="62.03" x2="16.25" y2="132.39" gradientUnits="userSpaceOnUse"><stop offset="0" stop-color="#095bfa"/><stop offset="1" stop-color="#ed3238"/></linearGradient></defs><title>Artboard 1</title><path class="cls-1" d="M146,50.35A11.67,11.67,0,0,0,134.35,62v.15c-9.87,4.93-19.76,15.78-25.59,29-1.27,2.89-6.06,12.46-14.05,14.18-5.19,1.12-11-1.19-17.38-6.87-7-6.29-14.52-8.79-22.27-7.43-11.44,2-23.12,12.6-34.8,31.5A11.74,11.74,0,1,0,24.51,125C35.34,107.42,45.88,97.64,55.9,95.88a18,18,0,0,1,3.17-.28c5.11,0,10.15,2.19,15,6.53,7.58,6.78,14.87,9.48,21.67,8,10-2.15,15.56-12.6,17.49-17,5.57-12.62,14.31-21.69,22.29-26.05A11.67,11.67,0,1,0,146,50.35Z"/><path class="cls-2" d="M12.63,114.78V66a13.55,13.55,0,0,1,6.78-11.74l54.9-31.7a13.6,13.6,0,0,1,13.56,0l45.45,26.25A18.83,18.83,0,0,1,137,45.9L90,18.77a17.89,17.89,0,0,0-17.9,0l-54.9,31.7A18,18,0,0,0,8.29,66V116.2A18.71,18.71,0,0,1,12.63,114.78Z"/><path class="cls-2" d="M149.55,80.52v48.85a13.55,13.55,0,0,1-6.78,11.74l-54.9,31.7a13.6,13.6,0,0,1-13.56,0L29.15,146.73a18.82,18.82,0,0,1-3.82,2.81l46.81,27a17.89,17.89,0,0,0,17.9,0L145,144.87a18,18,0,0,0,8.94-15.5V79.27A18.06,18.06,0,0,1,149.55,80.52Z"/></svg>