<svg id="Layer_1" data-name="Layer 1" xmlns="http://www.w3.org/2000/svg" xmlns:xlink="http://www.w3.org/1999/xlink" viewBox="0 0 159.96 160.24"><defs><style>.cls-1{fill:url(#linear-gradient);}.cls-2{fill:url(#linear-gradient-2);}</style><linearGradient id="linear-gradient" x1="99.11" y1="98.99" x2="32.67" y2="50.18" gradientUnits="userSpaceOnUse"><stop offset="0" stop-color="#00e4ff"/><stop offset="1" stop-color="#0097ff"/></linearGradient><linearGradient id="linear-gradient-2" x1="112.35" y1="98.8" x2="27.08" y2="60.58" gradientUnits="userSpaceOnUse"><stop offset="0" stop-color="#0e41cc"/><stop offset="1" stop-color="#822cac"/></linearGradient></defs><title>Artboard 1</title><path class="cls-1" d="M140.89,102V45.48l-50.22-29a11.51,11.51,0,0,0-23,.79v0L18.91,45.48v56.2A11.51,11.51,0,1,0,29.29,121.9L79.9,151.12l50.16-29A11.52,11.52,0,1,0,140.89,102ZM33.71,115.22a11.78,11.78,0,0,0,.31-2.6A11.52,11.52,0,0,0,26.91,102V50.1L70.57,24.89a11.49,11.49,0,0,0,17.71-.55L132.89,50.1v51.59a11.5,11.5,0,0,0-7.9,10.93,11.79,11.79,0,0,0,.4,3L79.9,141.88Z"/><path class="cls-2" d="M136.5,37.72A11.49,11.49,0,0,0,128,41.47H31A11.54,11.54,0,1,0,24.28,60.6l45,77.92a11.52,11.52,0,1,0,20.39,1l45.55-78.89a10.9,10.9,0,0,0,1.29.08,11.52,11.52,0,1,0,0-23Zm-57.3,95.1a11.2,11.2,0,0,0-3.64.6L31.26,56.69A11.37,11.37,0,0,0,34,49.47h91a11.47,11.47,0,0,0,3.06,7.58L83.77,133.77A11.43,11.43,0,0,0,79.2,132.82Z"/></svg>