<svg id="Layer_1" data-name="Layer 1" xmlns="http://www.w3.org/2000/svg" xmlns:xlink="http://www.w3.org/1999/xlink" viewBox="0 0 159.96 160.24"><defs><style>.cls-1{fill:url(#linear-gradient);}.cls-2{fill:url(#linear-gradient-2);}</style><linearGradient id="linear-gradient" x1="123.79" y1="101.48" x2="34.47" y2="49.91" gradientUnits="userSpaceOnUse"><stop offset="0" stop-color="#0e41cc"/><stop offset="1" stop-color="#822cac"/></linearGradient><linearGradient id="linear-gradient-2" x1="64.77" y1="14.69" x2="119.01" y2="111.68" gradientUnits="userSpaceOnUse"><stop offset="0" stop-color="#00e4ff"/><stop offset="1" stop-color="#0097ff"/></linearGradient></defs><title>Artboard 1</title><path class="cls-1" d="M80.11,8.76l58.46,33.75V110L80.11,143.77,21.65,110V42.51L80.11,8.76m0-8a8,8,0,0,0-4,1.07L17.65,35.58a8,8,0,0,0-4,6.93V110a8,8,0,0,0,4,6.93l58.46,33.75a7.95,7.95,0,0,0,8,0l58.46-33.75a8,8,0,0,0,4-6.93V42.51a8,8,0,0,0-4-6.93L84.11,1.83a8,8,0,0,0-4-1.07Z"/><path class="cls-2" d="M142,30.14A11.72,11.72,0,0,0,130.31,43L80.58,71.75,29.65,42.34c0-.16,0-.32,0-.49a11.74,11.74,0,1,0-3.12,7.94l50,28.87v58.2a11.72,11.72,0,1,0,8,.37V78.69l49.26-28.44A11.71,11.71,0,1,0,142,30.14Z"/></svg>