<svg id="Layer_1" data-name="Layer 1" xmlns="http://www.w3.org/2000/svg" xmlns:xlink="http://www.w3.org/1999/xlink" viewBox="0 0 160 190"><defs><style>.cls-1{fill:url(#linear-gradient);}.cls-2{fill:url(#linear-gradient-2);}.cls-3{fill:url(#linear-gradient-3);}.cls-4{fill:url(#linear-gradient-4);}.cls-5{fill:#a7a7ac;}</style><linearGradient id="linear-gradient" x1="119.88" y1="34.41" x2="11.8" y2="117.5" gradientUnits="userSpaceOnUse"><stop offset="0" stop-color="#095bfa"/><stop offset="1" stop-color="#ed3238"/></linearGradient><linearGradient id="linear-gradient-2" x1="123.13" y1="38.64" x2="15.06" y2="121.73" xlink:href="#linear-gradient"/><linearGradient id="linear-gradient-3" x1="110.95" y1="22.8" x2="2.88" y2="105.89" xlink:href="#linear-gradient"/><linearGradient id="linear-gradient-4" x1="161.77" y1="88.9" x2="53.69" y2="171.99" xlink:href="#linear-gradient"/></defs><title>Artboard 1</title><path class="cls-1" d="M112.49,68.57V15a4.34,4.34,0,0,0-2.68-4,4.36,4.36,0,0,0-4.74.94L94.65,22.33a31.24,31.24,0,0,0-26.76,0L57.46,11.9a4.34,4.34,0,0,0-3.07-1.27,4.44,4.44,0,0,0-1.67.33A4.34,4.34,0,0,0,50,15V67.6l-32.58,19v5L54.39,70.09V15L67.11,27.69a26.87,26.87,0,0,1,28.31,0L108.15,15V70.9h-.3l35.59,20.65v-5Z"/><path class="cls-2" d="M102.71,52.44c-3.25,1.63-15.2,8.69-15.2,8.69C98.37,68.73,104.89,56.78,102.71,52.44Z"/><path class="cls-3" d="M74.35,61.13s-11.94-7.06-15.2-8.69C57,56.78,63.49,68.73,74.35,61.13Z"/><path class="cls-4" d="M101.87,133.68,85.13,124a9.3,9.3,0,0,0-9.28,0l-16.74,9.67a9.31,9.31,0,0,0-4.64,8v19.33a9.33,9.33,0,0,0,4.64,8l16.74,9.66a9.3,9.3,0,0,0,9.28,0l16.74-9.66a9.32,9.32,0,0,0,4.65-8V141.72A9.29,9.29,0,0,0,101.87,133.68Zm-.24,27.37a4.38,4.38,0,0,1-2.2,3.8l-16.74,9.67a4.4,4.4,0,0,1-4.4,0l-16.74-9.67a4.37,4.37,0,0,1-2.19-3.8V141.72a4.39,4.39,0,0,1,2.19-3.81l16.74-9.67a4.46,4.46,0,0,1,4.4,0l16.74,9.67a4.4,4.4,0,0,1,2.2,3.81Z"/><path class="cls-5" d="M61.91,76.68,76.67,85.2a9.13,9.13,0,0,0,9.12,0l13.67-7.9v5a11.1,11.1,0,0,1-5.55,9.61l-7.68,4.43a11.06,11.06,0,0,1-11.09,0l-7.68-4.43a11.07,11.07,0,0,1-5.55-9.61V76.68m0-4.35a4.37,4.37,0,0,0-4.35,4.35v5.63a15.48,15.48,0,0,0,7.72,13.37L73,100.12a15.43,15.43,0,0,0,15.44,0l7.68-4.44a15.48,15.48,0,0,0,7.72-13.37v-5a4.35,4.35,0,0,0-2.17-3.76A4.31,4.31,0,0,0,99.46,73a4.37,4.37,0,0,0-2.18.58l-13.67,7.9a4.83,4.83,0,0,1-4.77,0L64.08,72.92a4.32,4.32,0,0,0-2.17-.59Z"/><path class="cls-5" d="M49.5,159,19,141.41a13.57,13.57,0,0,1-6.78-11.74V66.27A13.57,13.57,0,0,1,19,54.53L43.53,40.37v-5L16.83,50.77a18,18,0,0,0-8.95,15.5v63.4a18,18,0,0,0,9,15.5L49.5,164Z"/><path class="cls-5" d="M144.54,50.77,118.46,35.72v5l23.91,13.8a13.56,13.56,0,0,1,6.77,11.74v63.4a13.56,13.56,0,0,1-6.77,11.74l-31,17.87v5l33.14-19.13a18,18,0,0,0,9-15.5V66.27A18,18,0,0,0,144.54,50.77Z"/></svg>