<svg id="Layer_1" data-name="Layer 1" xmlns="http://www.w3.org/2000/svg" xmlns:xlink="http://www.w3.org/1999/xlink" viewBox="0 0 160 190"><defs><style>.cls-1{fill:#a7a7ac;}.cls-2{fill:url(#linear-gradient);}.cls-3{fill:url(#linear-gradient-2);}</style><linearGradient id="linear-gradient" x1="97.22" y1="30.68" x2="74.46" y2="118.9" gradientUnits="userSpaceOnUse"><stop offset="0" stop-color="#095bfa"/><stop offset="1" stop-color="#ed3238"/></linearGradient><linearGradient id="linear-gradient-2" x1="85.18" y1="32.44" x2="66.39" y2="105.28" xlink:href="#linear-gradient"/></defs><title>Artboard 1</title><rect class="cls-1" x="77.97" y="98.6" width="4.34" height="59.19" rx="1.74" ry="1.74"/><rect class="cls-1" x="89.92" y="114.89" width="4.34" height="29.87" rx="1.74" ry="1.74"/><rect class="cls-1" x="66.02" y="114.89" width="4.34" height="29.87" rx="1.74" ry="1.74"/><path class="cls-1" d="M144.12,50.31,104.84,27.62c.94,2.06,1.86,4.26,2.7,6.58L142,54.07a13.55,13.55,0,0,1,6.78,11.73v63.41A13.55,13.55,0,0,1,142,140.94L87,172.64a13.52,13.52,0,0,1-13.55,0l-54.91-31.7a13.54,13.54,0,0,1-6.77-11.73V65.8a13.54,13.54,0,0,1,6.77-11.73L52.15,34.69a61.49,61.49,0,0,1,2-6.15L16.41,50.31A17.93,17.93,0,0,0,7.46,65.8v63.41a17.93,17.93,0,0,0,9,15.49l54.91,31.71a17.93,17.93,0,0,0,17.89,0l54.91-31.71a17.93,17.93,0,0,0,8.95-15.49V65.8A17.93,17.93,0,0,0,144.12,50.31Z"/><path class="cls-2" d="M122.67,90c-1.59-13.45-8-24-18.63-30.68V46.17c0-5.74-2.77-14.48-7.06-22.25C90.24,11.68,84.1,9.11,80.14,9.11,76,9.11,69.72,11.68,63.08,24c-4.15,7.67-6.83,16.4-6.83,22.22V59.33C45.64,66,39.21,76.56,37.61,90a58.54,58.54,0,0,0,1,19.59,4.88,4.88,0,0,0,2.89,3.29,4.72,4.72,0,0,0,1.84.37,5,5,0,0,0,2.53-.7l15.23-9.18V46.17C61.14,36,71.45,14,80.14,14h0c8.15,0,19,22,19,32.18v57.21l15.23,9.18a4.94,4.94,0,0,0,2.52.7,4.77,4.77,0,0,0,1.85-.37,4.85,4.85,0,0,0,2.88-3.29A57.94,57.94,0,0,0,122.67,90ZM56.25,100.62l-12.87,7.75S36.15,80.46,56.25,65.26Zm60.65,7.75L104,100.62V65.26C124.14,80.46,116.9,108.37,116.9,108.37Z"/><circle class="cls-3" cx="79.6" cy="54.07" r="8.07"/></svg>