<svg width="228" height="31" viewBox="0 0 228 31" fill="none" xmlns="http://www.w3.org/2000/svg">
<g clip-path="url(#clip0_2_2863)">
<path d="M10.17 25.339C16.27 25.339 20.338 20.9 20.338 14.822C20.338 8.74398 16.271 4.33398 10.169 4.33398C4.068 4.33398 0 8.74398 0 14.822C0 20.9 4.068 25.34 10.17 25.34V25.339ZM10.17 23.077C4.94 23.077 2.615 19.176 2.615 14.822C2.615 10.469 4.939 6.59598 10.169 6.59598C15.399 6.59598 17.723 10.469 17.723 14.822C17.723 19.176 15.399 23.077 10.169 23.077H10.17ZM25.604 13.543V6.94298H37.009V4.66798H23.005V25.006H25.604V15.818H34.814V13.543H25.604V13.543ZM41.941 13.543V6.94298H53.346V4.66798H39.343V25.006H41.941V15.818H51.151V13.543H41.941V13.543ZM55.68 4.66798V25.006H58.347V4.66798H55.68ZM76.372 11.402H79.019C78.519 7.55698 75.226 4.33398 70.08 4.33398C64.317 4.33398 60.348 8.74398 60.348 14.822C60.348 20.929 64.317 25.339 70.08 25.339C75.255 25.339 78.548 22.116 79.019 17.649H76.372C76.196 20.194 74.491 23.077 70.08 23.077C65.082 23.077 62.994 18.921 62.994 14.822C62.994 10.752 65.082 6.59598 70.08 6.59598C74.461 6.59598 75.99 9.47898 76.372 11.402V11.402ZM84.297 13.344V6.94398H96.341V4.66698H81.686V25.005H96.689V22.73H84.298V15.62H94.948V13.344H84.298H84.297ZM109.744 12.404C107.132 11.701 105.826 11.307 105.826 10.07C105.826 8.94498 107.045 8.46698 108.612 8.46698C110.615 8.46698 111.949 9.36698 112.181 10.886H117.404C117.259 6.80798 113.457 4.33398 108.612 4.33398C104.144 4.33398 100.604 6.04898 100.604 10.436C100.604 14.148 103.737 15.638 107.306 16.65C110.237 17.494 112.471 17.86 112.471 19.462C112.471 20.474 111.427 21.205 109.482 21.205C107.162 21.205 105.246 20.418 105.246 18.281H100.023C100.023 22.751 104.085 25.339 109.482 25.339C114.676 25.339 117.694 22.836 117.694 18.984C117.694 14.682 113.66 13.444 109.744 12.404V12.404ZM120.028 25.005H125.326V17.638H130.242C134.628 17.638 137.365 15.42 137.365 11.153C137.365 6.88598 134.628 4.66698 130.242 4.66698H120.028V25.005V25.005ZM125.326 8.84898H129.123C130.948 8.84898 132.067 9.44598 132.067 11.153C132.067 12.86 130.948 13.457 129.123 13.457H125.326V8.84898V8.84898ZM149.441 20.767L150.784 25.005H156.036L148.507 4.66698H143.256L135.698 25.005H140.95L142.293 20.767H149.441ZM143.489 16.87L145.852 9.35998H145.911L148.274 16.87H143.489ZM169.791 12.263H175.04C174.544 7.59598 171.512 4.33398 165.824 4.33398C159.232 4.33398 155.703 8.77698 155.703 14.822C155.703 20.896 159.232 25.339 165.824 25.339C171.541 25.339 174.574 22.077 175.04 17.353H169.791C169.441 19.603 168.39 21.205 165.591 21.205C162.12 21.205 160.952 18.618 160.952 14.822C160.952 11.054 162.12 8.46698 165.591 8.46698C168.361 8.46698 169.411 10.07 169.791 12.263ZM182.631 12.462V8.84898H193.203V4.66798H177.374V25.006H193.378V20.825H182.631V16.643H191.742V12.462H182.631V12.462Z" fill="black"/>
<mask id="mask0_2_2863" style="mask-type:alpha" maskUnits="userSpaceOnUse" x="196" y="20" width="5" height="6">
<path d="M196.143 23.1831C196.144 23.8175 196.397 24.4256 196.846 24.8741C197.294 25.3226 197.903 25.5751 198.537 25.5761C199.172 25.5748 199.78 25.3223 200.228 24.8739C200.677 24.4254 200.93 23.8175 200.932 23.1831C200.931 22.5481 200.678 21.9395 200.229 21.4904C199.781 21.0413 199.172 20.7884 198.537 20.7871C197.902 20.7887 197.294 21.0417 196.845 21.4908C196.397 21.9398 196.144 22.5483 196.143 23.1831V23.1831ZM196.651 23.1831C196.651 22.1131 197.467 21.2571 198.537 21.2571C199.594 21.2571 200.424 22.1131 200.424 23.1831C200.424 24.2531 199.594 25.1091 198.537 25.1091C197.467 25.1091 196.651 24.2521 196.651 23.1831ZM197.238 23.1831C197.238 23.9971 197.78 24.6251 198.59 24.6251C199.171 24.6251 199.648 24.2521 199.758 23.6051H199.21C199.167 23.9711 198.91 24.1551 198.562 24.1551C198.055 24.1551 197.748 23.7381 197.748 23.1831C197.748 22.6151 198.022 22.2091 198.537 22.2091C198.892 22.2091 199.145 22.4071 199.21 22.7331H199.718C199.628 22.0911 199.151 21.7391 198.59 21.7391C197.748 21.7391 197.238 22.3551 197.238 23.1831V23.1831Z" fill="white"/>
</mask>
<g mask="url(#mask0_2_2863)">
<path d="M194.475 26.5761H202.598V18.4531H194.475V26.5761Z" fill="black"/>
</g>
<path d="M213.358 17.704L213.302 25.721L220.292 21.797L220.345 13.779L213.358 17.704ZM221.314 13.315L221.263 21.128L227.95 17.304L228 9.492L221.314 13.315V13.315ZM221.313 22.195L221.263 30.006L227.949 26.183L228 18.371L221.313 22.195V22.195ZM206.566 3.95L213.263 7.961L220.038 4.011L213.34 0L206.566 3.95ZM213.855 8.544L220.704 12.554L227.634 8.604L220.785 4.594L213.855 8.544ZM206.047 12.983L212.897 16.994L219.826 13.044L212.975 9.034L206.047 12.984V12.983Z" fill="black"/>
</g>
<defs>
<clipPath id="clip0_2_2863">
<rect width="228" height="31" fill="white"/>
</clipPath>
</defs>
</svg>
