<svg xmlns="http://www.w3.org/2000/svg" width="94.863" height="48" viewBox="0.554 -12 94.863 48"><path d="M.554 4.804H5.22c2.126 0 3.67.303 4.63.907.96.606 1.44 1.57 1.44 2.887 0 .896-.21 1.63-.63 2.205-.42.574-.98.92-1.677 1.035v.104c.95.212 1.636.608 2.056 1.19.42.58.63 1.354.63 2.315 0 1.367-.494 2.435-1.48 3.2-.99.766-2.33 1.147-4.026 1.147H.554V4.804zm3.178 5.936h1.846c.86 0 1.485-.133 1.87-.398.387-.268.58-.71.58-1.324 0-.574-.21-.984-.63-1.234-.42-.25-1.084-.375-1.994-.375H3.732v3.33zm0 2.524v3.906h2.07c.876 0 1.522-.166 1.94-.502.416-.334.624-.848.624-1.54 0-1.24-.89-1.864-2.666-1.864H3.732zM23.84 19.795l-1.087-3.568h-5.465L16.2 19.795h-3.424l5.29-15.052h3.887l5.312 15.052H23.84zm-1.845-6.234a929.8 929.8 0 0 1-1.697-5.484 15.086 15.086 0 0 1-.272-1.004c-.226.875-.872 3.04-1.938 6.49h3.907zM35.52 7.234c-1.196 0-2.123.45-2.78 1.348-.655.9-.983 2.152-.983 3.758 0 3.344 1.254 5.016 3.763 5.016 1.053 0 2.328-.264 3.825-.79v2.665c-1.23.514-2.605.77-4.123.77-2.18 0-3.85-.66-5.004-1.984-1.155-1.322-1.733-3.22-1.733-5.695 0-1.558.284-2.923.85-4.095.568-1.173 1.383-2.072 2.446-2.698 1.063-.625 2.31-.938 3.74-.938 1.455 0 2.918.35 4.388 1.055l-1.025 2.583a17.388 17.388 0 0 0-1.692-.697 5.08 5.08 0 0 0-1.67-.296zM54.592 19.795h-3.61l-3.925-6.316-1.343.964v5.353h-3.18V4.804h3.18v6.86l1.25-1.764 4.06-5.096h3.528l-5.23 6.633 5.27 8.358zM70.086 12.28c0 2.48-.615 4.388-1.846 5.72-1.23 1.334-2.994 2-5.29 2s-4.062-.666-5.292-2c-1.23-1.332-1.846-3.246-1.846-5.742 0-2.494.615-4.4 1.85-5.715 1.234-1.316 3.003-1.974 5.307-1.974 2.304 0 4.065.662 5.285 1.988 1.222 1.327 1.83 3.233 1.83 5.72zm-10.94 0c0 1.675.317 2.935.952 3.783.637.848 1.586 1.27 2.853 1.27 2.535 0 3.805-1.684 3.805-5.054 0-3.378-1.26-5.067-3.783-5.067-1.266 0-2.22.426-2.86 1.277-.644.85-.967 2.115-.967 3.79zM83.55 9.48c0 1.613-.505 2.848-1.514 3.702-1.01.854-2.442 1.28-4.302 1.28H76.37v5.332h-3.18V4.804h4.79c1.817 0 3.2.392 4.147 1.174.948.783 1.422 1.95 1.422 3.502zm-7.18 2.38h1.047c.978 0 1.71-.194 2.194-.58.485-.388.73-.95.73-1.69 0-.743-.204-1.294-.61-1.65-.406-.354-1.044-.532-1.91-.532h-1.447l-.002 4.45zM95.23 15.633c0 1.354-.487 2.42-1.462 3.2S91.438 20 89.7 20c-1.6 0-3.015-.3-4.244-.902v-2.953c1.012.45 1.868.77 2.567.953.7.187 1.343.277 1.924.277.697 0 1.232-.133 1.604-.4.374-.266.562-.662.562-1.188 0-.293-.082-.556-.246-.783s-.405-.448-.725-.662c-.315-.21-.965-.55-1.94-1.016-.917-.43-1.604-.844-2.062-1.24A4.643 4.643 0 0 1 86.04 10.7c-.273-.524-.41-1.14-.41-1.845 0-1.324.45-2.368 1.35-3.126.898-.76 2.142-1.14 3.728-1.14.778 0 1.522.093 2.23.278.706.185 1.446.444 2.22.78l-1.025 2.47c-.8-.33-1.46-.558-1.984-.687a6.318 6.318 0 0 0-1.544-.194c-.602 0-1.062.14-1.385.42-.32.28-.48.646-.48 1.098 0 .28.064.525.194.732.13.21.338.41.62.605.284.196.956.546 2.017 1.052 1.4.67 2.362 1.342 2.883 2.016.515.672.776 1.496.776 2.475z"/></svg>