<svg xmlns="http://www.w3.org/2000/svg" width="210" height="210" viewBox="-45 -21 210 210" overflow="visible"><path class="icon-bg" fill-rule="evenodd" clip-rule="evenodd" fill="#EFEEED" d="M59.9 36.958l28.743-17.29v16.805L59.9 53.763V36.958zm55.765 124.85l-27.08 16.29a3.066 3.066 0 0 1-3.21-.037l-25.473-15.32-24.99 15.03a3.068 3.068 0 0 1-3.21-.03L4.647 161.46a3.073 3.073 0 0 1-1.062-4.212c.278-.46.658-.824 1.094-1.077l13.152-7.912 13.456 7.976 29.09-17.62 28.273 17.21 12.786-7.882 14.26 8.58a3.073 3.073 0 0 1-.035 5.29zm-27.02-33.493v26.534l28.74-17.294v-26.533l-28.74 17.29zM59.9 137.56v-26.534l-28.743 17.29v26.534L59.9 137.56zm-21.65-29.58v-5.038c0 .992.663 1.983 1.978 2.774 2.836 1.708 7.504 1.708 10.34 0 1.318-.79 1.978-1.782 1.98-2.774v5.038c0 .994-.66 1.988-1.98 2.78-2.836 1.706-7.504 1.706-10.34 0-1.318-.79-1.98-1.785-1.98-2.78zm71.785-34.58v-5.045c0 .994-.66 1.988-1.98 2.78-2.837 1.708-7.504 1.708-10.34 0-1.32-.792-1.98-1.786-1.98-2.78V73.4c0 .992.66 1.985 1.98 2.778 2.836 1.707 7.503 1.707 10.34 0 1.32-.792 1.98-1.785 1.98-2.778zM95.75 64.808c0 .993-.66 1.987-1.978 2.78-2.84 1.707-7.505 1.707-10.343 0-1.32-.793-1.98-1.785-1.98-2.78v-5.042c0 .993.66 1.986 1.98 2.78 2.835 1.705 7.5 1.705 10.34 0 1.312-.792 1.97-1.778 1.98-2.768v5.03zm.087 17.135c0 .992-.66 1.985-1.98 2.778-2.836 1.71-7.504 1.71-10.342 0-1.32-.79-1.977-1.783-1.977-2.775v-5.038c.003.99.66 1.982 1.977 2.774 2.838 1.707 7.506 1.707 10.343 0 1.32-.795 1.98-1.787 1.98-2.78v5.044zm0 34.58c0 .994-.66 1.986-1.98 2.78-2.836 1.706-7.504 1.706-10.342 0-1.32-.794-1.977-1.786-1.977-2.78v-5.035c.003.99.66 1.98 1.977 2.77 2.838 1.71 7.506 1.71 10.343 0 1.32-.792 1.98-1.786 1.98-2.778v5.043zm14.198-8.54c0 .993-.66 1.987-1.98 2.778-2.837 1.71-7.504 1.71-10.34 0-1.32-.79-1.98-1.782-1.98-2.776v-5.043c0 .994.66 1.986 1.98 2.78 2.836 1.707 7.503 1.707 10.34 0 1.213-.73 1.87-1.63 1.968-2.54l.005-.706-.54-1.24-2.536-1.73-4.48-.81-4.048.81L95.94 98.1l-.215-4.37-1.08-1.727-1.688-.864 24.43-14.698v26.532l-6.69 4.024-.66-.398v1.38h-.002zM95.75 99.388v-5.03c-.007.99-.665 1.976-1.978 2.766-2.84 1.707-7.505 1.707-10.343 0-1.32-.792-1.98-1.785-1.98-2.78v5.044c0 .994.66 1.986 1.98 2.78 2.835 1.707 7.5 1.707 10.34 0 1.32-.795 1.98-1.787 1.98-2.78zM38.352 116.52c0 .995-.66 1.987-1.98 2.78-2.836 1.707-7.504 1.707-10.34 0-1.32-.793-1.98-1.785-1.98-2.78v-5.034c.003.99.663 1.98 1.98 2.77 2.836 1.71 7.504 1.71 10.34 0 1.32-.79 1.976-1.78 1.98-2.77v5.035zm-14.286-8.592v-5.043c0 .994-.66 1.987-1.98 2.78-2.835 1.706-7.506 1.706-10.34 0-1.32-.793-1.98-1.786-1.98-2.78v5.043c0 .993.66 1.988 1.98 2.78 2.834 1.708 7.505 1.708 10.34 0 1.32-.792 1.98-1.787 1.98-2.78zm57.486 0v-5.043c0 .994-.66 1.987-1.98 2.78-2.835 1.706-7.505 1.706-10.34 0-1.315-.79-1.973-1.778-1.98-2.767v5.03c0 .992.66 1.987 1.98 2.78 2.835 1.707 7.505 1.707 10.34 0 1.32-.792 1.98-1.787 1.98-2.78zm-.26-17.24v-5.04c0 .99-.66 1.984-1.98 2.777-2.837 1.708-7.504 1.708-10.343 0-1.32-.793-1.98-1.786-1.98-2.778v5.04c0 .995.66 1.987 1.98 2.782 2.836 1.704 7.503 1.704 10.34 0 1.32-.796 1.98-1.788 1.98-2.78zm.26-17.34v-5.043c0 .992-.66 1.986-1.98 2.78-2.835 1.706-7.505 1.706-10.34 0-1.315-.792-1.973-1.778-1.98-2.767v5.028c0 .993.66 1.985 1.98 2.78 2.835 1.707 7.505 1.707 10.34 0 1.32-.794 1.98-1.786 1.98-2.78zM38.266 99.39v-5.044c0 .994-.662 1.987-1.98 2.78-2.837 1.706-7.506 1.706-10.343 0-1.318-.793-1.98-1.786-1.98-2.78v5.043c0 .99.66 1.983 1.98 2.78 2.837 1.704 7.506 1.704 10.344 0 1.317-.797 1.98-1.79 1.98-2.78zm28.83-.156c0 .992-.66 1.986-1.98 2.78-2.837 1.704-7.505 1.704-10.343 0-1.32-.794-1.98-1.788-1.98-2.78V94.19c0 .993.66 1.985 1.98 2.778 2.838 1.707 7.506 1.707 10.343 0 1.32-.793 1.98-1.785 1.98-2.78v5.046zm-.09-17.134c0 .992-.66 1.985-1.977 2.78-2.84 1.705-7.51 1.705-10.347 0-1.318-.795-1.978-1.788-1.978-2.78v-5.045c0 .994.66 1.986 1.978 2.78 2.838 1.708 7.508 1.708 10.345 0 1.314-.79 1.973-1.782 1.977-2.772V82.1zm-14.2 8.54v-5.044c0 .994-.656 1.987-1.976 2.78-2.836 1.708-7.506 1.708-10.343 0-1.317-.793-1.978-1.786-1.978-2.78v5.045c0 .995.654 1.988 1.975 2.78 2.837 1.708 7.507 1.708 10.344 0 1.32-.792 1.98-1.785 1.98-2.78zM38.35 81.943v-5.038c-.003.99-.66 1.982-1.98 2.774-2.834 1.704-7.502 1.704-10.34 0-1.315-.795-1.976-1.786-1.98-2.777v5.038c0 .993.66 1.986 1.98 2.78 2.838 1.71 7.506 1.71 10.34 0 1.32-.79 1.98-1.785 1.98-2.778zm14.2-8.54c0 .99-.66 1.984-1.98 2.777-2.838 1.707-7.506 1.707-10.34 0-1.32-.793-1.98-1.786-1.98-2.778v-5.038c0 .99.663 1.98 1.98 2.774 2.834 1.707 7.502 1.707 10.34 0 1.316-.793 1.976-1.784 1.98-2.774v5.038zm-14.285-8.595v-5.042c0 .993-.662 1.986-1.98 2.78-2.837 1.705-7.506 1.705-10.343 0-1.317-.794-1.98-1.787-1.98-2.78v5.042c0 .995.66 1.987 1.98 2.78 2.838 1.707 7.507 1.707 10.345 0 1.317-.793 1.98-1.787 1.98-2.78zm-14.2 8.54c0 .994-.66 1.986-1.98 2.78-2.835 1.708-7.506 1.708-10.34 0-1.32-.794-1.98-1.786-1.98-2.78v-5.04c0 .99.66 1.985 1.98 2.778 2.834 1.707 7.505 1.707 10.34 0 1.318-.793 1.98-1.787 1.98-2.78v5.043z"/><path class="icon-border" fill-rule="evenodd" clip-rule="evenodd" fill="#A1A4A7" d="M28.744 20.66c0-1.262.628-2.73 1.71-3.38L58.62.336c.72-.432 1.8-.457 2.517-.026l28.218 16.98c.997.6 1.704 1.88 1.704 3.044v16.14c0 .794-.5 1.658-1.184 2.067l-28.7 17.265c-.717.432-1.795.458-2.514.025L30.086 38.64c-.73-.44-1.343-1.318-1.343-2.168V20.66zm21.58 79.912c-1.342-.807-3.13-1.21-4.924-1.21s-3.586.403-4.926 1.21c-.673.405-1.152.86-1.436 1.332-.204.34-.307.69-.307 1.035s.106.692.31 1.03c.283.475.763.928 1.436 1.333 1.34.807 3.13 1.21 4.926 1.21s3.583-.403 4.924-1.21c.674-.405 1.154-.858 1.438-1.332.205-.34.306-.687.306-1.033s-.1-.696-.305-1.036c-.282-.47-.763-.925-1.437-1.33zm59.228-28.84l-.794-.48a6.72 6.72 0 0 1-.454.298c-1.496.9-3.46 1.35-5.42 1.35-1.955 0-3.92-.45-5.418-1.35a5.926 5.926 0 0 1-1.248-.983v2.835c0 .404.142.814.42 1.208.294.41.733.804 1.322 1.158 1.342.806 3.13 1.21 4.924 1.21 1.797 0 3.584-.404 4.925-1.21.59-.354 1.03-.75 1.32-1.158.28-.394.42-.804.42-1.208v-1.67zm-14.285-8.594l-.795-.478c-.14.104-.294.202-.452.297-1.496.9-3.463 1.352-5.42 1.352-1.956 0-3.923-.45-5.42-1.355a7.502 7.502 0 0 1-.412-.268l-.833.5v1.617c0 .405.14.815.42 1.21.29.408.732.803 1.322 1.157 1.34.81 3.128 1.21 4.924 1.21 1.797 0 3.585-.4 4.928-1.21.59-.353 1.028-.75 1.32-1.157.28-.394.42-.805.42-1.21V63.14zM68.57 71.23l-.835.5v1.618c0 .823.582 1.667 1.744 2.368l.02.016c1.337.795 3.114 1.194 4.898 1.194 1.795 0 3.583-.404 4.924-1.21.59-.355 1.028-.75 1.323-1.158.278-.395.42-.805.42-1.21v-2.833a5.762 5.762 0 0 1-1.25.982c-1.495.9-3.46 1.35-5.418 1.35-1.957 0-3.92-.448-5.418-1.35a5.9 5.9 0 0 1-.415-.267zm-16.505.5l-.792-.477a8.75 8.75 0 0 1-.456.297c-1.495.9-3.46 1.35-5.417 1.35-1.958 0-3.923-.45-5.42-1.35a5.85 5.85 0 0 1-1.248-.983v2.835c0 .404.14.814.42 1.208.293.41.733.804 1.322 1.158 1.34.806 3.13 1.21 4.926 1.21s3.582-.404 4.923-1.21c.588-.354 1.03-.75 1.322-1.158.28-.394.42-.804.42-1.208V71.73zM37.78 63.138l-.794-.478a5.29 5.29 0 0 1-.453.297c-1.495.9-3.46 1.352-5.42 1.352s-3.922-.45-5.418-1.355a6.87 6.87 0 0 1-.414-.268l-.83.5v1.617c0 .405.14.815.42 1.21.29.408.734.803 1.32 1.157 1.344.81 3.13 1.21 4.926 1.21 1.796 0 3.582-.4 4.926-1.21.59-.353 1.03-.75 1.32-1.157.28-.394.42-.804.42-1.21V63.14zM11.084 71.23l-.834.5v1.618c0 .405.14.815.42 1.21.29.408.732.802 1.325 1.158l.02.016c1.34.795 3.117 1.194 4.9 1.194 1.797 0 3.585-.404 4.925-1.21.59-.355 1.03-.75 1.323-1.158.28-.395.42-.805.42-1.21v-2.835a5.78 5.78 0 0 1-1.25.984c-1.496.9-3.46 1.35-5.417 1.35-1.96 0-3.924-.448-5.42-1.35a7.323 7.323 0 0 1-.413-.267zm-.834 35.082l.812-.49-.813.49v1.617c0 .403.14.812.42 1.21.29.41.73.8 1.32 1.155 1.34.806 3.13 1.21 4.925 1.21 1.794 0 3.584-.404 4.924-1.21.59-.354 1.03-.747 1.323-1.158.28-.396.42-.805.42-1.21v-2.834c-.332.35-.75.682-1.25.983-1.496.897-3.46 1.35-5.417 1.35-1.96 0-3.924-.452-5.42-1.35a5.987 5.987 0 0 1-1.248-.984v1.216zm28.482 1.67v-2.835c.33.352.746.685 1.25.985 1.495.898 3.46 1.35 5.418 1.35 1.956 0 3.922-.45 5.417-1.35.502-.3.918-.634 1.248-.985v2.835c0 .404-.14.816-.42 1.208-.293.41-.734.804-1.322 1.16-1.34.806-3.128 1.21-4.923 1.21s-3.586-.404-4.926-1.21c-.59-.356-1.03-.75-1.32-1.16-.282-.39-.422-.803-.422-1.208zm14.3-5.018v-.024c0-.52-.148-1.036-.446-1.528-.364-.606-.953-1.175-1.77-1.665-1.493-.9-3.46-1.35-5.416-1.35-1.488 0-2.98.26-4.267.778l-2.386-1.437v-3.406a2.934 2.934 0 0 0-.446-1.516c-.36-.606-.952-1.175-1.766-1.665-1.495-.895-3.46-1.35-5.42-1.35-1.484 0-2.977.26-4.265.78L3.35 76.445l5.933-3.57v.475c0 .603.203 1.203.603 1.767.367.518.906 1.003 1.61 1.427l.03.016c1.492.89 3.446 1.333 5.393 1.333 1.955 0 3.92-.45 5.416-1.35.708-.427 1.247-.912 1.614-1.427.4-.563.6-1.163.6-1.768v-5.06a2.94 2.94 0 0 0-.445-1.513c-.364-.605-.955-1.174-1.77-1.664l-.075-.042 1.222-.734v.474c0 .604.202 1.204.604 1.77.367.515.904.998 1.61 1.425 1.497.9 3.46 1.35 5.42 1.35s3.924-.45 5.42-1.35c.706-.426 1.245-.91 1.61-1.425.403-.564.604-1.164.604-1.77v-.525l1.35.813-.116.07c-.815.49-1.404 1.058-1.77 1.664-.294.49-.442 1-.445 1.516V73.4c0 .605.2 1.204.6 1.767.365.516.902 1.002 1.612 1.426 1.496.9 3.46 1.35 5.42 1.35 1.955 0 3.922-.45 5.416-1.35.71-.424 1.244-.91 1.613-1.426.4-.562.6-1.162.6-1.766v-.526l1.528.92-.12.07c-.815.488-1.404 1.057-1.767 1.662-.3.49-.444 1.003-.45 1.518V82.1c0 .604.203 1.203.606 1.767.366.515.903 1 1.61 1.426 1.496.9 3.462 1.35 5.42 1.35 1.958 0 3.923-.45 5.418-1.35.708-.427 1.246-.91 1.612-1.426.4-.563.604-1.163.604-1.767v-.527l1.35.813c-.04.022-.077.046-.116.07-.815.49-1.406 1.058-1.77 1.663-.294.49-.442 1-.444 1.514v5.056c0 .605.2 1.206.6 1.77.366.515.905 1 1.614 1.427 1.495.898 3.462 1.35 5.417 1.35 1.957 0 3.924-.45 5.42-1.35.71-.428 1.247-.912 1.61-1.428.4-.564.604-1.166.604-1.77v-.525l1.527.916-.12.07c-.812.49-1.405 1.06-1.77 1.666a2.943 2.943 0 0 0-.444 1.528v3.445l-2.248 1.353c-1.3-.533-2.81-.8-4.317-.8-1.955 0-3.92.45-5.416 1.35-.815.49-1.405 1.06-1.77 1.665a2.932 2.932 0 0 0-.446 1.526l.002.05v3.395l-6.87 4.132-6.868-4.132v-3.367h-.002zm0 4.49l5.935 3.57-27.81 16.73-27.808-16.73 5.93-3.57v.476c0 .605.203 1.205.603 1.768.367.516.906 1 1.613 1.427 1.496.9 3.46 1.35 5.42 1.35 1.956 0 3.92-.45 5.417-1.35.708-.427 1.247-.91 1.614-1.427.4-.562.6-1.162.6-1.768v-5.058a2.964 2.964 0 0 0-.445-1.515c-.364-.605-.955-1.174-1.77-1.664l-.074-.045 1.22-.734v.475c0 .602.203 1.202.605 1.765.367.515.904 1 1.61 1.426 1.497.9 3.46 1.353 5.42 1.353s3.924-.45 5.42-1.352c.706-.425 1.245-.91 1.61-1.425.403-.562.604-1.162.604-1.768v-.526l1.35.813c-.04.023-.08.045-.117.07-.815.49-1.404 1.06-1.77 1.665a2.95 2.95 0 0 0-.445 1.53v5.042c0 .604.2 1.203.6 1.767.367.515.904 1 1.614 1.425 1.495.9 3.46 1.35 5.42 1.35 1.954 0 3.92-.45 5.415-1.35.71-.427 1.245-.91 1.614-1.426.4-.564.6-1.163.6-1.77v-.526h-.003zm42.22-39.11v5.06c0 .603.2 1.202.6 1.765.37.513.905 1 1.614 1.423 1.497.9 3.463 1.35 5.418 1.35 1.96 0 3.924-.45 5.42-1.35.707-.424 1.245-.91 1.61-1.426.4-.563.605-1.163.605-1.767v-.53l5.93 3.573L92.915 90.6c-1.3-.53-2.81-.8-4.315-.8-1.485 0-2.977.26-4.264.78l-2.56-1.54v-3.404a2.956 2.956 0 0 0-.446-1.517c-.366-.607-.955-1.176-1.77-1.666-1.497-.898-3.46-1.35-5.42-1.35-1.486 0-2.977.26-4.264.78l-2.387-1.438v-3.394c0-.518-.15-1.034-.45-1.53-.364-.605-.953-1.173-1.765-1.662l-.03-.014-.047-.028 1.57-.945v.476c0 1.16.735 2.304 2.21 3.192l.03.016c1.49.89 3.444 1.333 5.39 1.333 1.956 0 3.922-.45 5.42-1.35.706-.426 1.245-.91 1.61-1.426.4-.563.604-1.163.604-1.768v-5.04c0-.52-.15-1.036-.446-1.53-.365-.605-.956-1.174-1.77-1.664l-.075-.044 1.22-.735v.474c0 .602.2 1.202.605 1.767.366.516.904 1 1.61 1.426 1.496.9 3.462 1.35 5.42 1.35 1.956 0 3.923-.45 5.42-1.35.707-.427 1.244-.91 1.61-1.426.4-.564.6-1.164.6-1.77v-.525l1.355.812-.12.07c-.812.49-1.404 1.058-1.77 1.664-.292.486-.44 1-.443 1.513zM36.04 91.98c-1.344-.808-3.13-1.21-4.926-1.21-1.795 0-3.582.402-4.925 1.21-.677.405-1.155.86-1.44 1.333a2.006 2.006 0 0 0-.305 1.033c0 .348.102.696.305 1.034.285.474.764.928 1.438 1.334 1.342.806 3.13 1.21 4.924 1.21 1.796 0 3.582-.404 4.926-1.21.673-.406 1.15-.86 1.437-1.334.202-.338.305-.687.305-1.034s-.103-.695-.305-1.033c-.287-.474-.764-.928-1.437-1.334zm1.74 4.575c-.33.352-.747.682-1.247.984-1.495.895-3.46 1.35-5.42 1.35s-3.922-.454-5.418-1.35a5.99 5.99 0 0 1-1.247-.987v2.834c0 .403.142.813.42 1.208.292.41.734.805 1.32 1.158 1.344.807 3.13 1.21 4.926 1.21 1.796 0 3.582-.403 4.926-1.21.588-.354 1.03-.748 1.32-1.158.28-.395.42-.805.42-1.21v-2.833zm-14.3-2.21v3.446l-2.248 1.356c-1.298-.533-2.81-.8-4.315-.8-1.96 0-3.924.45-5.42 1.35-.814.49-1.403 1.06-1.77 1.664-.293.49-.442 1-.444 1.514v3.46l-.18.107-6.206-3.73V77.3l12.636 7.6 10.282 6.185-.12.07c-.813.49-1.405 1.06-1.77 1.665a2.95 2.95 0 0 0-.445 1.527zm43.29 13.11l-5.936 3.57 27.81 16.73 27.808-16.73-5.933-3.57v.527c0 .605-.206 1.204-.607 1.768-.366.516-.904 1-1.61 1.426-1.497.9-3.462 1.35-5.42 1.35-1.956 0-3.922-.45-5.42-1.35-.708-.427-1.244-.91-1.612-1.426-.4-.563-.6-1.162-.6-1.768v-5.043c0-.52.15-1.04.444-1.53.364-.607.956-1.176 1.77-1.666.227-.137-.03 0 .218-.117l-1.452-.853v.61c0 .606-.2 1.206-.6 1.77-.366.517-.904 1-1.61 1.425-1.497.9-3.464 1.35-5.42 1.35-1.958 0-3.924-.45-5.42-1.35-.706-.427-1.244-.91-1.61-1.427-.403-.562-.604-1.162-.604-1.768v-.475l-1.22.735.073.045c.812.49 1.403 1.06 1.77 1.665.292.49.44 1 .443 1.515v5.057c0 .604-.202 1.204-.602 1.767-.365.517-.904 1-1.612 1.427-1.498.9-3.463 1.35-5.42 1.35-1.956 0-3.92-.45-5.417-1.35-1.476-.886-2.213-2.03-2.213-3.192v-.475zm43.75-1.124l.176.11 6.208-3.732v-25.41l-22.96 13.81.075.046c.81.49 1.4 1.06 1.77 1.665.292.492.44 1.01.44 1.527v3.392l2.39 1.436c1.285-.52 2.775-.78 4.262-.78 1.96 0 3.924.452 5.42 1.352.813.49 1.404 1.06 1.77 1.665.296.493.445 1.01.445 1.53v3.39zm-15.253-9.773c-.33.352-.748.682-1.247.984-1.496.898-3.463 1.35-5.42 1.35-1.957 0-3.923-.45-5.42-1.35a5.94 5.94 0 0 1-1.245-.984v2.834c0 .402.14.812.42 1.207.29.41.732.805 1.322 1.158 1.34.807 3.128 1.21 4.924 1.21 1.797 0 3.585-.403 4.926-1.208v-.002c.59-.355 1.03-.748 1.322-1.158.28-.395.42-.805.42-1.21v-2.833zM36.04 57.397c-1.344-.806-3.13-1.21-4.926-1.21-1.795 0-3.582.404-4.925 1.21-.677.405-1.155.86-1.44 1.33a2.02 2.02 0 0 0-.305 1.036c0 .347.102.695.305 1.036.285.47.764.924 1.438 1.33 1.342.805 3.13 1.21 4.924 1.21 1.796 0 3.582-.405 4.926-1.21.673-.406 1.15-.86 1.437-1.33.202-.344.305-.69.305-1.04 0-.345-.103-.694-.305-1.033-.287-.472-.764-.927-1.437-1.332zm.085 17.134c-1.34-.803-3.13-1.206-4.924-1.206s-3.58.403-4.92 1.21c-.675.405-1.154.858-1.44 1.33-.2.34-.304.69-.304 1.036 0 .347.103.696.305 1.034.285.473.766.926 1.44 1.332 1.34.807 3.127 1.21 4.922 1.21s3.585-.403 4.926-1.21c.675-.406 1.154-.86 1.437-1.332.205-.338.306-.688.306-1.035s-.1-.697-.306-1.037c-.283-.472-.763-.925-1.437-1.332zM31.2 72.358c1.957 0 3.924.45 5.42 1.35.814.49 1.403 1.058 1.768 1.665a2.95 2.95 0 0 1 .447 1.53v5.044c0 .604-.2 1.2-.603 1.766-.365.515-.905.998-1.613 1.425-1.498.9-3.465 1.35-5.42 1.35-1.947 0-3.9-.443-5.39-1.333l-.03-.017c-.706-.424-1.245-.908-1.61-1.426-.403-.565-.604-1.163-.604-1.767v-5.045c0-.518.148-1.035.446-1.528.364-.608.953-1.176 1.768-1.666 1.497-.9 3.46-1.35 5.42-1.35zm6.667 6.753a5.81 5.81 0 0 1-1.248.982c-1.498.9-3.465 1.35-5.42 1.35-1.96 0-3.924-.45-5.42-1.35a5.87 5.87 0 0 1-1.247-.982v2.835c0 .404.14.814.42 1.208.292.41.73.803 1.325 1.16l.02.014c1.34.797 3.115 1.195 4.9 1.195 1.794 0 3.582-.405 4.923-1.21.59-.355 1.03-.75 1.323-1.16.28-.393.42-.803.42-1.207V79.11zM21.84 65.937c.675.405 1.153.86 1.437 1.332.204.34.307.69.307 1.035s-.103.695-.307 1.035c-.283.473-.762.928-1.436 1.333-1.34.806-3.125 1.21-4.92 1.21-1.798 0-3.585-.404-4.926-1.21-.674-.405-1.152-.86-1.437-1.33-.204-.34-.307-.69-.307-1.037s.102-.696.306-1.035c.284-.47.763-.925 1.437-1.33 1.34-.81 3.128-1.21 4.925-1.21 1.796 0 3.584.404 4.924 1.21zm28.483.052c.674.404 1.154.86 1.438 1.332.207.34.308.688.308 1.034s-.1.697-.305 1.035c-.282.474-.763.93-1.437 1.333-1.34.807-3.128 1.21-4.923 1.21s-3.586-.403-4.926-1.21c-.673-.404-1.152-.86-1.436-1.332-.203-.337-.306-.687-.306-1.034s.104-.695.308-1.034c.284-.474.764-.928 1.437-1.333 1.34-.807 3.13-1.21 4.925-1.21s3.582.404 4.923 1.21zm14.433 8.682c-1.34-.796-3.114-1.195-4.897-1.195-1.8 0-3.588.404-4.928 1.21-.675.406-1.154.86-1.44 1.333-.2.34-.302.69-.302 1.037s.104.695.304 1.034c.285.475.766.928 1.44 1.334 1.34.807 3.128 1.21 4.924 1.21 1.793 0 3.58-.403 4.923-1.21.676-.406 1.155-.86 1.44-1.332.203-.34.306-.687.306-1.034 0-.346-.103-.695-.305-1.034-.28-.47-.762-.925-1.437-1.332l-.026-.015zm1.768 4.592c-.33.35-.748.683-1.25.984-1.494.897-3.46 1.347-5.416 1.347-1.96 0-3.925-.45-5.42-1.35a5.83 5.83 0 0 1-1.247-.983V82.1c0 .404.14.814.424 1.21.29.41.732.802 1.32 1.157 1.34.805 3.13 1.21 4.926 1.21 1.793 0 3.58-.405 4.923-1.21.588-.355 1.03-.748 1.32-1.158.28-.398.422-.808.422-1.21v-2.837zM64.868 91.82c-1.342-.806-3.13-1.21-4.925-1.21-1.794 0-3.58.404-4.925 1.21-.673.407-1.15.86-1.436 1.335a2 2 0 0 0-.305 1.033c0 .345.102.695.305 1.032.284.473.764.927 1.436 1.333 1.344.807 3.13 1.21 4.925 1.21s3.583-.403 4.925-1.21c.675-.406 1.152-.86 1.437-1.333.204-.337.307-.688.307-1.034s-.103-.696-.307-1.034c-.284-.474-.762-.928-1.437-1.334zm-4.925-2.175c-1.957 0-3.922.45-5.42 1.35-.81.49-1.402 1.06-1.768 1.664a2.96 2.96 0 0 0-.444 1.517v5.057c0 .603.2 1.203.604 1.766.367.518.907 1 1.612 1.428 1.497.9 3.462 1.35 5.42 1.35 1.957 0 3.922-.45 5.42-1.35.705-.426 1.244-.91 1.61-1.426.4-.56.603-1.162.603-1.765v-5.06a2.952 2.952 0 0 0-.447-1.515c-.36-.605-.953-1.173-1.767-1.663-1.497-.9-3.462-1.35-5.42-1.35zm6.668 6.752c-.33.352-.746.683-1.245.984-1.497.9-3.462 1.35-5.42 1.35-1.957 0-3.922-.45-5.42-1.35a5.95 5.95 0 0 1-1.245-.983v2.836c0 .403.14.814.42 1.207.29.41.73.806 1.32 1.16 1.343.807 3.13 1.21 4.924 1.21s3.583-.403 4.925-1.21c.59-.354 1.03-.75 1.32-1.16.28-.39.42-.802.42-1.205V96.4zm-16.025-13.17c-1.34-.804-3.13-1.21-4.924-1.21-1.797 0-3.583.406-4.924 1.21-.673.407-1.153.862-1.436 1.333-.207.34-.31.69-.31 1.037 0 .348.103.695.31 1.035.28.473.76.927 1.434 1.333 1.34.81 3.127 1.21 4.924 1.21 1.794 0 3.582-.4 4.923-1.21.676-.406 1.154-.86 1.44-1.332.203-.34.306-.687.306-1.034s-.103-.697-.307-1.037c-.286-.47-.764-.925-1.438-1.33zm-4.924-2.174c-1.956 0-3.922.45-5.42 1.35-.81.49-1.402 1.058-1.767 1.663-.3.494-.447 1.01-.447 1.53v5.044c0 .606.2 1.205.603 1.77.366.516.902 1 1.61 1.426l.03.015c1.49.89 3.443 1.337 5.39 1.337 1.956 0 3.92-.45 5.417-1.35l.002-.002v.002c.706-.426 1.242-.91 1.61-1.427.4-.564.6-1.164.6-1.768v-5.044a2.93 2.93 0 0 0-.443-1.527c-.364-.606-.952-1.174-1.77-1.664-1.495-.9-3.46-1.35-5.417-1.35zm6.667 6.75a5.7 5.7 0 0 1-1.25.986c-1.495.9-3.46 1.35-5.417 1.35s-3.924-.45-5.42-1.35a5.813 5.813 0 0 1-1.25-.986v2.836c0 .406.14.816.42 1.21.29.41.734.802 1.326 1.16l.022.013c1.338.797 3.113 1.195 4.898 1.195 1.794 0 3.58-.403 4.922-1.21.592-.356 1.034-.75 1.325-1.16.28-.392.42-.802.42-1.206v-2.835zm26.74-4.523c-1.34-.805-3.13-1.21-4.925-1.21-1.793 0-3.58.405-4.922 1.21-.674.408-1.15.863-1.438 1.335a2 2 0 0 0-.307 1.035c0 .344.103.693.306 1.03.285.474.765.93 1.437 1.335 1.342.807 3.13 1.21 4.924 1.21 1.798 0 3.586-.403 4.927-1.21.674-.406 1.153-.86 1.437-1.332.205-.34.307-.69.307-1.034 0-.35-.1-.7-.306-1.038-.283-.47-.763-.926-1.437-1.333zm1.744 4.578a5.86 5.86 0 0 1-1.25.984c-1.494.9-3.46 1.35-5.417 1.35-1.955 0-3.922-.448-5.417-1.35a5.914 5.914 0 0 1-1.25-.98v2.83c0 .407.14.815.42 1.21.293.41.733.803 1.323 1.158 1.34.807 3.13 1.21 4.923 1.21 1.796 0 3.584-.403 4.925-1.21.59-.355 1.03-.748 1.322-1.158.277-.395.42-.803.42-1.21V87.86zm12.716 4.122c-1.343-.808-3.13-1.21-4.925-1.21s-3.583.402-4.923 1.21c-.675.405-1.153.86-1.438 1.333a2.006 2.006 0 0 0-.305 1.033c0 .348.102.696.304 1.034.284.474.763.928 1.437 1.334 1.34.806 3.128 1.21 4.924 1.21 1.795 0 3.583-.404 4.926-1.21.674-.406 1.15-.86 1.436-1.334.208-.338.31-.687.31-1.034s-.102-.695-.31-1.033c-.282-.474-.76-.928-1.434-1.334zm.086 17.133c-1.34-.808-3.127-1.21-4.922-1.21s-3.584.402-4.926 1.21c-.673.405-1.15.86-1.436 1.332-.202.34-.305.69-.305 1.035s.103.695.305 1.035c.285.473.763.928 1.437 1.332 1.343.806 3.132 1.21 4.927 1.21s3.58-.404 4.923-1.21c.677-.406 1.152-.86 1.437-1.332.203-.34.305-.69.305-1.035 0-.347-.102-.695-.305-1.035-.284-.472-.76-.926-1.436-1.332zm-4.92-2.175c-1.96 0-3.925.45-5.42 1.35-.814.49-1.403 1.06-1.77 1.664a2.947 2.947 0 0 0-.445 1.53v5.042c0 .604.2 1.204.602 1.768.366.516.904 1 1.61 1.426 1.497.9 3.462 1.35 5.42 1.35 1.956 0 3.92-.45 5.418-1.35.705-.426 1.244-.91 1.614-1.426.4-.563.6-1.164.6-1.768v-5.057a2.94 2.94 0 0 0-.444-1.515c-.363-.604-.954-1.173-1.77-1.663-1.498-.9-3.46-1.35-5.417-1.35zm6.663 6.75v2.835c0 .404-.14.814-.42 1.208-.29.414-.73.807-1.32 1.16-1.343.81-3.13 1.21-4.924 1.21s-3.584-.4-4.926-1.21c-.59-.353-1.03-.746-1.322-1.16-.277-.39-.42-.8-.42-1.205v-2.834c.33.35.75.684 1.248.983 1.497.9 3.462 1.35 5.42 1.35 1.957 0 3.92-.45 5.42-1.35.498-.3.915-.632 1.245-.983zm-16.03-13.168c-1.34-.807-3.13-1.21-4.924-1.21-1.792 0-3.58.403-4.92 1.21-.675.406-1.154.86-1.437 1.334a2.002 2.002 0 0 0-.306 1.033c0 .348.103.697.307 1.035.283.473.763.926 1.437 1.332 1.34.807 3.13 1.21 4.925 1.21 1.797 0 3.585-.403 4.926-1.21.674-.406 1.153-.86 1.437-1.332.205-.338.308-.688.308-1.035 0-.346-.103-.695-.308-1.033-.283-.475-.763-.928-1.436-1.334zm1.744 4.576c-.335.352-.75.683-1.25.984-1.498.898-3.464 1.35-5.42 1.35-1.957 0-3.92-.45-5.418-1.35a5.85 5.85 0 0 1-1.25-.983v2.833c0 .824.583 1.67 1.743 2.368 1.34.806 3.128 1.21 4.924 1.21s3.584-.404 4.925-1.21c.59-.354 1.028-.747 1.323-1.158.276-.395.42-.804.42-1.21v-2.834zm26.74-4.524c.672.405 1.15.86 1.435 1.332.203.34.306.688.306 1.035 0 .343-.102.692-.305 1.03-.283.475-.764.928-1.438 1.333-1.342.807-3.13 1.21-4.926 1.21-1.793 0-3.58-.403-4.923-1.21-.675-.405-1.15-.858-1.436-1.332-.204-.34-.306-.687-.306-1.033s.102-.696.307-1.036c.285-.472.76-.926 1.437-1.33 1.342-.808 3.13-1.21 4.924-1.21 1.798 0 3.585.403 4.926 1.21zm1.74 4.575v2.835c0 .404-.14.814-.42 1.208-.29.41-.73.804-1.32 1.16-1.344.806-3.13 1.21-4.928 1.21-1.794 0-3.582-.404-4.924-1.21-.59-.356-1.03-.75-1.32-1.16-.28-.392-.423-.804-.423-1.208v-2.835c.33.352.747.685 1.248.985 1.497.898 3.463 1.35 5.418 1.35 1.96 0 3.925-.45 5.42-1.35.5-.3.917-.633 1.25-.985zm-16.027-47.75c-1.343-.806-3.13-1.21-4.925-1.21-1.797 0-3.585.404-4.925 1.21-.675.405-1.153.86-1.438 1.332a2 2 0 0 0-.304 1.03c0 .348.103.696.305 1.037.285.47.764.926 1.438 1.33 1.34.807 3.128 1.21 4.924 1.21 1.793 0 3.582-.403 4.924-1.21.675-.404 1.15-.86 1.437-1.33.207-.342.31-.69.31-1.037 0-.345-.103-.694-.31-1.033-.283-.472-.76-.927-1.435-1.332zm.086 17.134c-1.343-.803-3.13-1.206-4.924-1.206s-3.584.403-4.926 1.21c-.672.405-1.15.858-1.435 1.33-.202.34-.305.69-.305 1.036 0 .347.102.696.304 1.034.285.473.763.926 1.437 1.332 1.345.807 3.134 1.21 4.93 1.21s3.58-.403 4.923-1.21c.677-.406 1.152-.86 1.437-1.332.202-.338.304-.688.304-1.035s-.102-.697-.305-1.037c-.286-.472-.76-.925-1.438-1.332zm-4.923-2.173c1.956 0 3.92.45 5.418 1.35.814.49 1.405 1.058 1.77 1.665.292.49.44 1 .444 1.516v5.058c0 .604-.2 1.2-.6 1.766-.37.518-.91 1.002-1.613 1.426h-.002c-1.498.9-3.462 1.35-5.418 1.35-1.944 0-3.9-.443-5.392-1.333l-.03-.017c-.705-.424-1.243-.908-1.61-1.426-.4-.564-.602-1.162-.602-1.766V76.9c0-.52.148-1.036.445-1.53.364-.606.953-1.174 1.766-1.664 1.497-.9 3.462-1.35 5.42-1.35zm6.664 6.753a5.82 5.82 0 0 1-1.245.982c-1.498.9-3.462 1.35-5.418 1.35-1.96 0-3.924-.45-5.42-1.35-.5-.3-.917-.632-1.247-.982v2.835c0 .404.143.814.42 1.208.294.41.733.803 1.324 1.16l.025.014c1.335.797 3.112 1.195 4.9 1.195 1.792 0 3.58-.403 4.92-1.21.59-.357 1.032-.75 1.322-1.16.28-.393.42-.803.42-1.207V79.11zM79.327 65.94c.673.404 1.152.86 1.436 1.33a2 2 0 0 1 .308 1.037c0 .345-.103.695-.308 1.035-.283.472-.763.927-1.436 1.332-1.34.806-3.13 1.21-4.925 1.21-1.792 0-3.58-.404-4.92-1.21-.675-.405-1.154-.86-1.437-1.33a2.015 2.015 0 0 1-.306-1.036c0-.347.103-.696.307-1.036.283-.472.763-.927 1.437-1.33 1.34-.81 3.13-1.212 4.925-1.212 1.797 0 3.585.404 4.926 1.21zm28.483.05c.67.406 1.15.86 1.435 1.334.203.34.306.688.306 1.034s-.102.697-.305 1.035c-.283.473-.764.928-1.438 1.332-1.342.807-3.13 1.21-4.926 1.21-1.793 0-3.58-.403-4.923-1.21-.675-.404-1.15-.86-1.436-1.332-.204-.338-.305-.688-.305-1.035s.1-.695.306-1.034c.285-.474.76-.928 1.437-1.333 1.342-.804 3.13-1.21 4.924-1.21 1.798 0 3.585.407 4.926 1.21zm-71.687 43.124c-1.34-.808-3.13-1.21-4.924-1.21s-3.584.402-4.923 1.21c-.674.405-1.154.86-1.44 1.332-.2.34-.304.688-.304 1.035s.103.697.305 1.037c.283.47.763.926 1.437 1.332 1.34.805 3.128 1.21 4.923 1.21s3.584-.405 4.925-1.21c.674-.407 1.154-.86 1.437-1.333.205-.34.307-.69.307-1.035 0-.346-.104-.694-.31-1.034-.282-.472-.76-.926-1.436-1.332zM31.2 106.94c1.957 0 3.924.45 5.42 1.35.814.49 1.405 1.06 1.768 1.663a2.95 2.95 0 0 1 .447 1.53v5.042c0 .604-.2 1.204-.603 1.768-.365.516-.905 1-1.613 1.426-1.498.9-3.465 1.35-5.42 1.35-1.96 0-3.924-.45-5.42-1.35-.706-.428-1.245-.91-1.61-1.428-.403-.563-.604-1.164-.604-1.768v-5.043c0-.52.148-1.033.446-1.527.365-.605.953-1.174 1.768-1.664 1.497-.9 3.46-1.35 5.42-1.35zm6.667 6.75a5.72 5.72 0 0 1-1.248.983c-1.498.9-3.465 1.35-5.42 1.35-1.96 0-3.924-.45-5.42-1.35a5.84 5.84 0 0 1-1.247-.983v2.833c0 .404.14.814.42 1.208.292.414.73.807 1.323 1.16 1.34.81 3.128 1.21 4.923 1.21s3.583-.4 4.924-1.21c.59-.353 1.03-.746 1.322-1.16.28-.39.42-.8.42-1.205v-2.834zM21.84 100.52c.675.406 1.153.86 1.437 1.333a2 2 0 0 1 .307 1.034c0 .348-.103.697-.307 1.035-.283.473-.762.926-1.436 1.332-1.34.807-3.125 1.21-4.92 1.21-1.798 0-3.585-.403-4.926-1.21-.674-.406-1.152-.86-1.437-1.332a1.996 1.996 0 0 1-.307-1.035c0-.346.102-.695.306-1.034.284-.474.763-.927 1.437-1.333 1.34-.807 3.128-1.21 4.925-1.21 1.796 0 3.584.403 4.924 1.21zm38.543 36.766V111.88l27.777 16.707v25.41l-27.777-16.71zM2.897 111.88v25.406l27.778 16.71v-25.408l-27.778-16.71zm114.006 0v25.406l-27.776 16.71v-25.408l27.776-16.71zm-57.485 25.406v-25.41l-13.92 8.374-13.858 8.338v25.408l27.778-16.71zM0 137.782c0 .948.547 1.77 1.344 2.163l28.578 17.192a2.41 2.41 0 0 0 2.515-.025L59.9 140.59l27.507 16.548c.802.48 1.77.438 2.513-.025l28.7-17.266a2.4 2.4 0 0 0 1.173-2.064h.007V111.25c0-.95-.548-1.77-1.342-2.166l-3.094-1.86 3.257-1.958a2.4 2.4 0 0 0 1.175-2.065h.007V76.67a2.41 2.41 0 0 0-1.336-2.16l-6.013-3.62v-2.306c0-1.002-.32-1.982-.965-2.883-.517-.73-1.248-1.395-2.192-1.962-1.62-.975-3.66-1.51-5.714-1.606-1.605-.074-3.253.116-4.74.57l-.674-.403v-2.31c0-1.84-1.053-3.577-3.157-4.845-1.807-1.086-4.13-1.63-6.407-1.63-2.28 0-4.6.544-6.406 1.63-.943.568-1.68 1.234-2.194 1.96-.642.904-.964 1.884-.964 2.885v2.36l-.53.32a14.12 14.12 0 0 0-4.758-.592c-2.07.092-4.124.63-5.753 1.607-.944.568-1.678 1.234-2.195 1.96-.643.904-.963 1.884-.963 2.886v2.36l-.88.53a13.88 13.88 0 0 0-4.07-.605c-1.39-.004-2.793.19-4.078.584l-.848-.51v-2.31c0-1.002-.32-1.98-.962-2.885-.52-.727-1.25-1.395-2.195-1.96-1.62-.976-3.658-1.51-5.714-1.607-1.605-.075-3.252.115-4.74.57l-.673-.404v-2.31c0-1-.32-1.98-.962-2.883-.516-.724-1.25-1.39-2.192-1.96-1.806-1.084-4.13-1.63-6.408-1.63s-4.6.546-6.406 1.63c-.943.57-1.677 1.236-2.192 1.96-.644.906-.965 1.886-.965 2.887v2.36l-.53.32c-1.493-.467-3.146-.664-4.756-.592-2.07.092-4.126.63-5.754 1.607-.943.57-1.675 1.235-2.192 1.96-.643.906-.965 1.885-.965 2.887v2.36L1.183 74.6a2.415 2.415 0 0 0-1.17 2.064H0V103.2c0 .948.547 1.77 1.344 2.164l3.092 1.86-3.092 1.86A2.415 2.415 0 0 0 0 111.248v26.532zM51.84 22.016a.48.48 0 0 0-.005.828l3.22 1.938c.15.09.34.1.5.003l1.366-.822 2.98-1.79 2.948 1.77c.02.014.043.028.068.04l1.327.8c.147.09.34.098.5.002l3.222-1.94a.446.446 0 0 0 .17-.167.484.484 0 0 0-.167-.66l-1.365-.82-2.54-1.53 2.533-1.522.007-.004 1.362-.818a.484.484 0 0 0 .003-.83l-3.22-1.938a.478.478 0 0 0-.5-.002l-1.367.82-2.977 1.792-2.98-1.793-1.362-.82a.473.473 0 0 0-.496 0l-3.22 1.937a.47.47 0 0 0-.172.168.483.483 0 0 0 .168.66l1.366.822 2.54 1.527-2.54 1.528-1.36.82zm7.578 30.894V37.23L38.01 24.35l-6.37-3.83v15.682L59.418 52.91zM88.16 20.52L63.715 35.228l-3.332 2.003v15.68L88.16 36.2V20.52zm-.45-.852L59.9 2.938 32.09 19.67l1.456.875L59.9 36.395l14.664-8.82L87.71 19.67zm-32.152-5.114l.164.164a.494.494 0 0 0-.164-.164zm9.187 0l.16.164a.466.466 0 0 0-.16-.164zm-.503 10.228l-.162-.163a.485.485 0 0 0 .162.16zm-9.186 0l-.162-.163a.505.505 0 0 0 .162.16z"/></svg>