<svg xmlns="http://www.w3.org/2000/svg" width="210" height="210" viewBox="-13.942 -12.55 210 210" overflow="visible"><path class="icon-bg" fill-rule="evenodd" clip-rule="evenodd" fill="#ECEDED" d="M104.28 3.155l72.12 41.638c3.433 1.982 6.243 7.35 6.243 11.93v63.7c0 2.576-.892 4.374-2.283 5.1l-4.558 2.383c1.216-.82 1.98-2.54 1.98-4.923V59.28c0-4.575-2.812-9.943-6.244-11.924l-72.12-41.64c-1.5-.866-2.88-.95-3.96-.383l4.74-2.495c1.098-.637 2.527-.583 4.082.317zM10.1 26.237l-6.782 3.27L20.88 39.65c7.758 4.48 2.023 7.037 10.055 11.674l5.314 3.067 9.946 5.74v-.006c-.095-3.873 2.537-5.55 5.662-3.746 3.13 1.805 5.66 6.406 5.663 10.28l16.24 9.36c6.58 3.33 1.66-4.877 9.08-.594l17.562 10.14v20.052c0 10.46-4.76-.422-4.76 10.415v8.52c3.127 1.81 5.662 6.41 5.662 10.286s-2.535 5.552-5.662 3.746v9.218c0 10.836 4.76 5.452 4.76 15.912v20.048l6.786-3.27v-20.05c0-10.46-4.764-5.076-4.764-15.914v-7.02l3.232-1.583c.32-.09.616-.234.885-.43v-.002c.96-.702 1.545-2.06 1.545-3.922 0-3.874-2.535-8.48-5.663-10.284v-8.522c0-10.838 4.763.045 4.763-10.414v-20.05L89.627 72.15c-2.233-1.287-3.35-1.446-3.995-1.126h-.002l-4.27 2.1c-.25-.105-.52-.23-.815-.38l-16.235-9.36c-.003-3.873-2.536-8.473-5.663-10.28-1.55-.894-2.98-.933-4.016-.27l-4.652 2.29-6.942-4.003-5.313-3.065c-8.03-4.636-2.295-7.195-10.055-11.674L10.1 26.237zm19.222 38.14c1.726.996 3.125 3.8 3.125 6.264 0 .127-.003.25-.01.367l3.74-1.796c.52-.25 1.163-.203 1.86.2 1.727.996 3.126 3.8 3.126 6.263 0 .056 0 .112-.003.167l3.55-1.705c.52-.25 1.163-.204 1.86.2 1.726.996 3.125 3.8 3.125 6.262 0 1.54-.547 2.582-1.38 2.903l-4.483 2.155c.77-.37 1.266-1.384 1.266-2.853 0-2.46-1.398-5.266-3.125-6.263-1.684-.975-3.056.132-3.124 2.47l-3.547 1.72v-.004c.766-.37 1.26-1.385 1.26-2.85 0-2.462-1.398-5.267-3.125-6.263-1.633-.943-2.974.068-3.114 2.262l-3.6 1.743c.687-.42 1.123-1.4 1.123-2.775 0-2.463-1.4-5.267-3.126-6.264-.613-.354-1.185-.43-1.667-.277l4.312-2.08c.535-.3 1.213-.274 1.952.152zm-6.647 2.113l.002-.002-.002.002zm37.828 88.363l-4.797 2.31c1.104-.63 1.8-2.032 1.816-4.03l2.98 1.72zM3.96 73.818h.002-.002zm.916-.442l3.2-1.545V74c-1.186-.685-2.29-.87-3.2-.62zm17.228-19.17v55.926c0 4.012 2.463 8.717 5.47 10.453l60.828 35.12c-.043 3.937-2.488 5.75-5.47 4.03L20.79 123.857c-3.008-1.737-5.47-6.44-5.47-10.452V57.583c0-4.012 2.46-5.872 5.47-4.135l1.314.76zm46.104-24.12c-1.23-.708-2.364-.82-3.28-.426l-3.765 1.61c.852-.244 1.867-.084 2.953.54l63.197 36.49c3.01 1.736 5.473 6.442 5.473 10.452v55.82c0 2.38-.867 4-2.2 4.567l3.904-1.658c.128-.043.253-.095.37-.157h.006v-.002c1.225-.634 2.01-2.213 2.01-4.477V98.983l.127.074 28.794 16.625c2.394 1.382 4.4.215 4.813-2.59l-33.734-19.476V77.028c0-4.01-2.46-8.716-5.47-10.453L68.21 30.087zm-7.686 1.456h.004-.004zm19.24 23.06c-.35 1.708-1.57 2.415-3.022 1.577-1.728-1-3.127-3.804-3.127-6.266 0-2.463 1.4-3.65 3.127-2.655.117.07.235.146.35.23a5.238 5.238 0 0 0-.104 1.077c0 2.292 1.214 4.883 2.776 6.033zm-8.716-5.035c-.352 1.71-1.572 2.417-3.023 1.578-1.725-.996-3.126-3.8-3.126-6.263 0-2.462 1.4-3.65 3.126-2.654.118.068.234.146.35.23a5.385 5.385 0 0 0-.102 1.075c0 2.295 1.217 4.885 2.778 6.034zm17.248 9.96c-.35 1.71-1.57 2.416-3.023 1.578-1.724-.996-3.123-3.8-3.123-6.264 0-2.46 1.4-3.65 3.126-2.65a3.1 3.1 0 0 1 .35.23 5.457 5.457 0 0 0-.102 1.075c0 2.293 1.215 4.883 2.777 6.033zm17.317-41.532l-.05-.027c-2.685-1.554-4.886.11-4.886 3.695V48.83l4.86 2.807V19.102a7.99 7.99 0 0 1 .08-1.107z"/><path class="icon-border" fill-rule="evenodd" clip-rule="evenodd" fill="#A1A4A7" d="M139.292 108.528l32.487 18.756c.793.46 1.545.676 2.22.676.53 0 1.015-.137 1.44-.395.426-.264.8-.657 1.09-1.168v-.002c.487-.842.767-1.997.767-3.414v-63.7c0-2.21-.683-4.615-1.778-6.71-1.09-2.086-2.586-3.852-4.223-4.795L99.18 6.135h-.002c-.794-.46-1.546-.678-2.222-.678-.53 0-1.016.136-1.437.395-.43.263-.8.656-1.096 1.166v.003c-.487.845-.766 2-.766 3.418V42l6.527 3.77V21.663c0-1.26.26-2.314.717-3.104a3.37 3.37 0 0 1 1.153-1.22c.467-.29.998-.44 1.572-.44.673 0 1.407.21 2.17.647l60.236 34.776c1.425.824 2.712 2.334 3.638 4.104.923 1.76 1.494 3.788 1.494 5.657v49.9c0 1.262-.26 2.314-.717 3.105a3.372 3.372 0 0 1-1.152 1.216 2.972 2.972 0 0 1-1.573.437c-.674 0-1.41-.207-2.17-.648L139.29 100.93v7.594h.002zM11.435 24.23l17.428 10.063.006.003v-.003c4.663 2.69 5.33 4.896 6.006 7.12.407 1.34.817 2.694 4.04 4.554l.006.003.003-.003 5.313 3.068c.042.023.08.05.122.076l5.702 3.29 3.4-1.672a5.336 5.336 0 0 1 2.766-.757V35.95c0-1.397.246-2.633.69-3.668.53-1.25 1.352-2.203 2.387-2.813l.004-.004c.202-.12.4-.22.585-.3.146-.062.297-.118.448-.167l3.642-1.557.02-.008a5.326 5.326 0 0 1 2.79-.356c.847.11 1.728.412 2.612.923l.006.004.004-.004L90.764 40.33V10.435c0-1.597.292-3.005.812-4.172.588-1.317 1.465-2.318 2.56-2.952.11-.07.227-.13.345-.182l4.567-2.4c.97-.553 2.068-.8 3.242-.708 1.03.08 2.112.42 3.202 1.05l72.12 41.64c.053.03.1.06.15.093 2.06 1.242 3.887 3.386 5.184 5.868 1.306 2.498 2.117 5.38 2.117 8.05v63.7c0 1.6-.29 3.01-.81 4.177-.58 1.294-1.44 2.282-2.517 2.917-.142.098-.293.18-.455.246l-4.19 2.19c-.984.64-2.126.953-3.37.893-1.09-.05-2.23-.394-3.38-1.06a1.333 1.333 0 0 1-.126-.075l-30.914-17.85v20.99c0 1.446-.27 2.726-.743 3.785-.543 1.21-1.354 2.13-2.366 2.714-.15.1-.313.18-.485.245l-.075.03.002.005c-.117.05-.23.094-.334.13l-3.768 1.596-.018.007a5.318 5.318 0 0 1-2.777.354c-.856-.11-1.74-.414-2.62-.923a2.705 2.705 0 0 1-.122-.075l-15.48-8.937c-.022 1.13-.22 2.146-.565 3.02-.438 1.114-1.11 2.002-1.967 2.632a5.72 5.72 0 0 1-1.46.752l-1.668.815v5.525c0 4.553.895 5.54 1.78 6.52 1.497 1.654 2.98 3.295 2.98 9.394v20.05c0 1.02-.632 1.892-1.525 2.245l-6.626 3.198c-.75.363-1.6.3-2.27-.094l-17.55-10.13c-4.66-2.692-5.33-4.897-6.002-7.12-.406-1.338-.815-2.687-4.05-4.555l-.124-.077-11.05-6.38-3.626 1.742c-.916.492-1.953.7-3.074.6-.978-.093-2.007-.426-3.044-1.023l-.006-.005-.004.006c-1.934-1.116-3.655-3.04-4.88-5.243-.964-1.74-1.638-3.694-1.88-5.605l-2.348-1.354-11.818-6.823a2.018 2.018 0 0 1-.126-.077c-1.646-.955-1.624-1.003-1.632-.985-1.092 2.34-2.176 4.66-8.297 1.126L2.11 129.79a2.406 2.406 0 0 1-1.203-2.085H.9v-20.05c0-7.715 2.43-7.595 4.878-7.473.06.002-.115-.006-.115-2.94V89.29c-1.455-1.142-2.737-2.718-3.703-4.47C.75 82.62 0 80.085 0 77.74c0-1.216.2-2.305.568-3.235.438-1.113 1.11-2 1.968-2.63l.006-.006a4.98 4.98 0 0 1 1.436-.736l1.686-.814v-4.85c0-4.552-.895-5.54-1.78-6.52-1.497-1.653-2.98-3.294-2.98-9.392V29.51a2.42 2.42 0 0 1 1.525-2.248l6.623-3.196a2.414 2.414 0 0 1 2.38.165zm47.693 26.415V35.948c0-1.232.242-2.236.662-2.965.255-.438.572-.776.94-1.002.358-.22.772-.334 1.228-.334.578 0 1.227.187 1.916.585l63.2 36.49c1.424.82 2.727 2.36 3.678 4.177.955 1.83 1.55 3.927 1.55 5.856v55.82c0 1.23-.24 2.233-.66 2.964h-.004c-.253.438-.57.777-.938 1.002-.36.222-.773.337-1.227.337-.582 0-1.232-.188-1.92-.584l-17.518-10.115a16.494 16.494 0 0 0-1.49-3.69c-.965-1.755-2.247-3.33-3.703-4.47v-7.26c0-2.936-.173-2.945-.115-2.943 2.45.123 4.877.242 4.877-7.47V82.29h-.006c0-.83-.432-1.64-1.2-2.084l-17.565-10.14-.002.004-.003-.004c-1.335-.77-2.375-1.21-3.207-1.42-1.26-.317-2.24-.184-3.054.218l-3.2 1.577-14.74-8.494c-.233-1.922-.9-3.888-1.864-5.636-1.224-2.223-2.956-4.163-4.907-5.29a8.47 8.47 0 0 0-.725-.374zM29.563 63.96c.946.546 1.796 1.57 2.4 2.782.537 1.076.89 2.31.956 3.497l3.05-1.466.31-.148.02.022c.254-.07.524-.094.807-.063.372.04.765.17 1.167.404.95.547 1.798 1.57 2.403 2.784.51 1.018.852 2.18.942 3.308L44.5 73.7l.308-.147.024.023c.254-.07.525-.093.807-.063.373.04.77.172 1.17.405.95.547 1.796 1.57 2.4 2.782.6 1.197.966 2.59.966 3.896 0 .83-.148 1.534-.412 2.086-.236.5-.566.877-.967 1.114v.004l-.03.013c-.084.05-.173.09-.264.128l-4.422 2.127a1.3 1.3 0 0 1-.09.044l-.374.18-.026-.05a2.01 2.01 0 0 1-.45.05c-.44 0-.92-.134-1.41-.42-.95-.545-1.797-1.57-2.402-2.782-.51-1.023-.853-2.19-.942-3.32l-2.872 1.392-.43.207-.025-.05c-.147.03-.295.046-.448.046v-.003c-.444 0-.923-.134-1.413-.417-.948-.547-1.797-1.57-2.4-2.783-.54-1.082-.895-2.325-.957-3.517l-2.887 1.397a2 2 0 0 1-.327.157l-.14.068-.01-.018c-.185.055-.38.083-.583.083-.434 0-.9-.128-1.38-.4v34.197c0 1.625.507 3.406 1.325 4.967.79 1.512 1.832 2.77 2.93 3.4L85.99 151.53v-33.91L62.92 104.3l-.008-.005-.002.006c-1.902-1.1-3.594-3.062-4.79-5.345-1.164-2.228-1.89-4.804-1.89-7.19V76.69L24.52 58.384v6.683l2.624-1.267c.07-.04.143-.075.217-.105l.114-.054.008.01a2.09 2.09 0 0 1 .847-.1c.39.03.81.164 1.235.41zm56.426 50.334V99.778c0-1.623-.51-3.405-1.327-4.966-.768-1.464-1.77-2.69-2.828-3.34-.04-.02-.073-.04-.11-.062l-22.6-13.045v13.403c0 1.93.595 4.03 1.552 5.856.95 1.816 2.254 3.355 3.678 4.18l21.63 12.49zM21.62 72.04c-.32-.91-.504-1.88-.504-2.805 0-.917.184-1.687.504-2.265V54.485l-1.07-.62c-.69-.398-1.34-.587-1.918-.587v.002c-.453 0-.867.114-1.227.336-.37.228-.688.565-.94 1-.42.73-.662 1.734-.662 2.967v55.822c0 1.928.594 4.027 1.55 5.855.95 1.817 2.254 3.357 3.678 4.18l62.145 35.878h.003c.688.396 1.334.584 1.916.584.454 0 .867-.115 1.227-.337.367-.225.686-.563.94-1.004.377-.65.61-1.522.654-2.583L27.334 121c-1.585-.916-3.018-2.596-4.05-4.567-1.024-1.96-1.663-4.22-1.663-6.302V72.04zm23.744 12.347l2.47-1.187v-.03l.31-.12c.306-.117.566-.385.752-.777.203-.426.317-.992.317-1.676 0-1.156-.33-2.396-.864-3.467-.53-1.053-1.24-1.93-2.02-2.38a2.1 2.1 0 0 0-.79-.28c-.23-.024-.44.01-.624.098l-.308.148-2.65 1.272c.083.04.167.085.252.133.948.55 1.798 1.574 2.402 2.787.598 1.196.967 2.59.967 3.896 0 .597-.077 1.128-.218 1.587zm-4.68-8.68v-.034h-.002c0-1.156-.33-2.396-.864-3.465-.527-1.055-1.24-1.933-2.02-2.382a2.033 2.033 0 0 0-.79-.28c-.23-.022-.438.01-.62.1l-.31.147-2.65 1.27c.083.04.167.085.253.136.95.544 1.8 1.57 2.405 2.78.598 1.197.967 2.59.967 3.896 0 .59-.075 1.12-.214 1.575l1.548-.747c.056-.728.235-1.342.512-1.82a2.42 2.42 0 0 1 .804-.862 1.99 1.99 0 0 1 .983-.314zm-8.72-4.908v-.16c0-1.158-.33-2.398-.863-3.468-.523-1.054-1.24-1.93-2.02-2.38a1.947 1.947 0 0 0-.825-.283 1.128 1.128 0 0 0-.646.133l-.32.18-.017-.017-2.548 1.228c.08.04.16.083.24.13h.002c.947.545 1.797 1.57 2.402 2.783.595 1.195.966 2.59.966 3.896 0 .586-.076 1.11-.213 1.564l1.748-.848c.073-.634.245-1.175.493-1.607.214-.372.486-.66.803-.862.246-.15.514-.25.8-.292zm-5.46-1.424c-.525-1.054-1.24-1.93-2.02-2.38-.336-.195-.65-.287-.932-.287-.22 0-.418.057-.59.166-.187.117-.35.294-.483.526-.255.437-.4 1.06-.4 1.832 0 1.157.33 2.396.864 3.467.525 1.055 1.24 1.93 2.018 2.38h.002c.338.196.65.288.932.288.22 0 .418-.06.59-.168a1.47 1.47 0 0 0 .48-.527c.254-.438.4-1.058.4-1.83 0-1.157-.33-2.397-.865-3.468zm17.25 9.96c-.528-1.057-1.243-1.934-2.02-2.382-.337-.194-.65-.287-.933-.287-.22 0-.415.057-.59.166a1.48 1.48 0 0 0-.48.526c-.25.437-.4 1.057-.4 1.83 0 1.157.33 2.397.865 3.466.527 1.055 1.24 1.93 2.02 2.38.336.195.65.287.932.287.22 0 .418-.057.59-.166a1.45 1.45 0 0 0 .482-.525c.25-.437.397-1.058.397-1.832 0-1.155-.33-2.396-.863-3.465zM35.22 74.41c-.527-1.053-1.24-1.93-2.02-2.38-.335-.193-.65-.286-.932-.286-.22 0-.418.058-.59.166a1.47 1.47 0 0 0-.482.526c-.252.438-.398 1.06-.398 1.833 0 1.15.33 2.392.864 3.462.526 1.054 1.24 1.932 2.02 2.38.34.196.653.29.932.29V80.4c.22 0 .417-.057.59-.165.185-.117.35-.294.482-.527.253-.437.397-1.057.397-1.83 0-1.156-.33-2.397-.863-3.467zm65.67 108.58v-19.28c0-5.367-1.232-6.73-2.475-8.102-1.14-1.258-2.287-2.527-2.287-7.81v-8.435c.67.288 1.31.427 1.905.427v-.003c.644 0 1.234-.16 1.748-.465s.947-.75 1.277-1.32c.47-.812.735-1.883.735-3.167 0-2.02-.656-4.22-1.72-6.15-1.01-1.837-2.395-3.435-3.942-4.403v-8.253c0-4.96.96-4.916 1.905-4.87 1.435.07 2.855.14 2.855-5.55V85.29l-.243-.14L83.08 75.005c-4.298-2.482-4.938-1.11-5.585.274-.393.84-.79 1.685-3.518.304L58 66.374c-.06-1.94-.703-4.03-1.715-5.866-1.062-1.93-2.542-3.6-4.184-4.547-.5-.29-.99-.495-1.466-.623l3.78-1.858.024.05.45-.288c.438-.28.97-.41 1.562-.37.597.04 1.26.253 1.953.654 1.484.858 2.836 2.392 3.82 4.18.987 1.794 1.602 3.83 1.602 5.682v.278l.242.14 16.236 9.36.023.013c.153.08.3.15.438.212.153.07.29.13.406.18l.2.083.197-.097 3.96-1.948v.002l.313-.153c.225-.11.56-.134 1.072-.004.6.15 1.396.496 2.47 1.115h-.003l17.32 10v19.774c0 4.678-.917 4.632-1.84 4.585-1.456-.073-2.92-.146-2.92 5.827v8.8l.24.14c1.486.857 2.84 2.394 3.823 4.18.986 1.796 1.598 3.83 1.598 5.69 0 .853-.13 1.586-.362 2.182-.233.59-.57 1.045-.984 1.35l-.01.01a2.373 2.373 0 0 1-.722.35l-.08.03-3.232 1.583-.272.134v7.318c0 5.65 1.276 7.062 2.54 8.456 1.116 1.235 2.222 2.458 2.222 7.46v19.746l-5.813 2.804zM49.12 55.185l-6.328-3.648-5.315-3.068c-4.214-2.436-4.79-4.337-5.362-6.22-.506-1.67-1.01-3.33-4.69-5.456L10.08 26.78l-5.732 2.77 16.774 9.684c4.01 2.317 4.568 4.155 5.13 6.01.52 1.702 1.04 3.42 4.925 5.663h.002l5.31 3.068 9.248 5.333c.07-.93.31-1.72.673-2.353v-.002a3.598 3.598 0 0 1 1.247-1.297c.437-.264.93-.425 1.464-.472zm8.385 100.577l1.968-.946-1.513-.872a6.13 6.13 0 0 1-.455 1.82zM7.595 72.6l-.733.353c.24.065.485.153.733.26V72.6zM20.64 40.066c3.68 2.124 4.186 3.782 4.69 5.455.572 1.886 1.148 3.787 5.364 6.22l5.312 3.07h.002l9.95 5.736.743.427-.02-.857v-.006c-.025-1.108.18-2.01.566-2.676.24-.415.55-.736.908-.954v-.002a2.492 2.492 0 0 1 1.23-.346c.67-.016 1.43.195 2.236.66 1.483.857 2.835 2.392 3.82 4.18.99 1.794 1.6 3.83 1.603 5.684v.277l.24.14 16.238 9.36.02.013c3.616 1.828 4.22.53 4.825-.76.424-.906.844-1.804 4.237.153l17.32 10v19.77c0 4.68-.92 4.634-1.843 4.587-1.454-.07-2.92-.146-2.92 5.828v8.798l.243.14c1.485.857 2.837 2.395 3.822 4.182.987 1.795 1.598 3.832 1.598 5.687 0 1.11-.218 2.017-.603 2.685a2.65 2.65 0 0 1-.93.977c-.365.218-.79.33-1.26.33v-.002c-.644 0-1.37-.213-2.146-.66l-.725-.42v10.055c0 5.648 1.274 7.06 2.536 8.455 1.116 1.232 2.225 2.457 2.225 7.457v19.214L83.08 173.2c-3.682-2.124-4.187-3.78-4.692-5.454-.573-1.885-1.15-3.786-5.363-6.218l-11.82-6.825-3.444-1.99-.714-.414-.006.826c-.01 1.08-.23 1.963-.606 2.618-.25.43-.565.76-.938.98-.37.218-.8.328-1.273.325-.637-.006-1.355-.22-2.123-.66-1.477-.856-2.82-2.375-3.804-4.148-.987-1.78-1.604-3.805-1.618-5.652l-.003-.274-.237-.136-3.446-1.99-11.817-6.825h-.002c-4.504-2.6-5.166-1.186-5.82.217-.423.906-.843 1.806-4.233-.152l-17.322-10v-19.773c0-4.678.92-4.634 1.845-4.586 1.45.07 2.917.147 2.917-5.825V87.75l-.24-.14c-1.487-.858-2.84-2.393-3.825-4.18C3.51 81.635 2.9 79.598 2.9 77.743c0-1.112.22-2.018.603-2.686a2.67 2.67 0 0 1 .93-.974c.366-.217.79-.33 1.26-.33.644 0 1.37.212 2.147.66l.724.42v-9.36c0-5.65-1.273-7.057-2.537-8.455C4.907 55.785 3.8 54.562 3.8 49.56V30.344l16.84 9.723zm.39 12.964h-.002c-.84-.483-1.65-.714-2.396-.715v-.002a3.26 3.26 0 0 0-1.73.482H16.9c-.502.308-.932.76-1.27 1.344-.504.872-.793 2.04-.793 3.44v55.823c0 2.082.637 4.34 1.664 6.3 1.034 1.974 2.467 3.655 4.05 4.568l62.145 35.88c.84.486 1.654.717 2.398.717.635 0 1.218-.166 1.73-.48.505-.31.937-.764 1.27-1.342v-.003c.507-.874.796-2.04.796-3.442V99.78c0-2.08-.64-4.34-1.664-6.3-1.03-1.972-2.466-3.652-4.05-4.567h.002L21.03 53.03zm80.125-6.702V21.663c0-1.093.213-1.98.584-2.625.22-.384.5-.68.82-.876a2.024 2.024 0 0 1 1.07-.293c.447 0 .94.123 1.46.39-.027.27-.04.55-.04.84v29.48l-3.897-2.252zm6.793 3.922V22.126l56.64 32.7c.038.022.073.043.11.062.903.558 1.76 1.613 2.422 2.877.71 1.36 1.152 2.91 1.152 4.323v46.875l-28.98-16.732v-15.2c0-2.387-.724-4.964-1.89-7.19-1.195-2.283-2.887-4.25-4.788-5.346l-24.666-14.24zm31.344 45.317l30.786 17.774a4.17 4.17 0 0 1-.46 1.27c-.223.387-.5.684-.82.88-.313.19-.676.293-1.07.293-.512 0-1.082-.164-1.69-.514h-.002l-26.744-15.443V95.57zm-6.68 42.19c.418-.84.656-1.916.656-3.184v-55.82c0-2.083-.64-4.34-1.664-6.303-1.03-1.97-2.465-3.65-4.05-4.566h.002l-63.2-36.49a5.9 5.9 0 0 0-1.098-.497l1.558-.666.3-.125a2.452 2.452 0 0 1 1.302-.162c.48.063 1.003.248 1.548.563l63.2 36.49c1.423.82 2.727 2.36 3.68 4.177.954 1.828 1.548 3.927 1.548 5.858v55.82c0 1.044-.173 1.924-.48 2.61-.307.68-.74 1.167-1.268 1.44h-.004l-.002.002c-.054.028-.104.05-.148.07l-.154.06-.033.012-1.693.718zM76.98 46.845c-.495-.283-.972-.42-1.415-.42-.4 0-.773.112-1.104.32-.313.2-.586.49-.8.86-.335.584-.53 1.37-.53 2.313 0 1.306.37 2.7.968 3.895.605 1.213 1.453 2.237 2.402 2.784.49.285.97.42 1.41.42.403 0 .774-.11 1.104-.318.32-.2.59-.49.804-.86.336-.585.53-1.37.53-2.314 0-1.306-.37-2.7-.967-3.896-.602-1.213-1.45-2.237-2.4-2.785zm-.418.87l-.062-.037c-.336-.194-.65-.287-.934-.287a1.1 1.1 0 0 0-.59.17 1.48 1.48 0 0 0-.482.525c-.252.437-.398 1.058-.398 1.832 0 1.154.332 2.396.865 3.467.53 1.053 1.24 1.93 2.02 2.378.34.196.65.288.935.288.22 0 .417-.057.59-.166.186-.114.348-.293.48-.526h.002c.097-.164.175-.355.238-.57-.684-.578-1.29-1.395-1.752-2.32-.597-1.2-.966-2.592-.966-3.897 0-.302.018-.586.058-.853zm8.95 4.056c-.494-.283-.97-.42-1.413-.42-.404 0-.776.11-1.107.32-.317.2-.59.49-.803.86-.335.585-.53 1.37-.53 2.31 0 1.31.37 2.7.967 3.9.604 1.21 1.453 2.235 2.403 2.783.494.285.97.42 1.412.42.402 0 .773-.11 1.104-.317.316-.2.588-.49.805-.86.338-.585.53-1.37.53-2.313 0-1.307-.37-2.7-.965-3.897-.605-1.212-1.453-2.237-2.4-2.783zm-.42.87l-.063-.035c-.34-.194-.65-.287-.93-.287-.22 0-.42.06-.594.167-.185.117-.35.293-.482.524-.252.437-.397 1.06-.397 1.83 0 1.157.33 2.396.864 3.466.526 1.055 1.24 1.933 2.02 2.38.335.196.65.287.93.287.22 0 .42-.056.59-.167.188-.117.35-.293.483-.524.096-.164.176-.355.24-.57-.686-.58-1.29-1.395-1.752-2.322-.6-1.197-.966-2.59-.966-3.896 0-.298.02-.582.056-.85zM68.266 41.815h-.002c-.492-.283-.97-.42-1.412-.42-.4 0-.772.11-1.103.318-.318.2-.59.49-.805.86-.337.585-.53 1.37-.53 2.314 0 1.306.368 2.7.967 3.896.605 1.21 1.455 2.235 2.403 2.784.492.283.97.418 1.41.418.402 0 .774-.11 1.105-.317.32-.2.59-.49.804-.86.337-.584.532-1.37.532-2.312 0-1.306-.37-2.7-.967-3.896-.607-1.215-1.455-2.24-2.4-2.786zm-.42.872l-.063-.037v-.004c-.336-.192-.652-.285-.932-.285-.22 0-.416.058-.59.166a1.44 1.44 0 0 0-.48.526c-.253.44-.4 1.06-.4 1.834 0 1.155.33 2.396.866 3.466.526 1.054 1.24 1.932 2.02 2.38.335.194.65.286.93.286.22 0 .42-.057.592-.166a1.48 1.48 0 0 0 .482-.526c.094-.165.174-.355.236-.572-.684-.577-1.29-1.393-1.752-2.322-.597-1.196-.967-2.59-.967-3.896 0-.3.02-.584.058-.85zM177.6 126.42c.427-.923.665-2.084.665-3.438v-63.7c0-2.365-.725-4.93-1.89-7.16-1.173-2.237-2.8-4.146-4.596-5.185L99.66 5.3a6.143 6.143 0 0 0-1.764-.706l2.526-1.33.016-.01a2.79 2.79 0 0 1 1.632-.35c.607.047 1.27.264 1.97.67l72.12 41.635c1.636.942 3.13 2.71 4.223 4.794 1.096 2.095 1.776 4.503 1.776 6.715v63.7c0 1.196-.2 2.205-.555 3-.353.785-.858 1.355-1.47 1.68l-.26.133-2.276 1.187z"/></svg>