<svg xmlns="http://www.w3.org/2000/svg" width="210" height="210" viewBox="-28 -21.457 210 210" overflow="visible"><path class="icon-bg" fill-rule="evenodd" clip-rule="evenodd" fill="#ECEDED" d="M77.688 150.788v11.395l-8.72 5.016v-21.447l8.72 5.033zM85.765 28.45C79.295 32.186 74 41.48 74 49.098v24.01L21.066 42.55c-2.7-1.558-5.155-1.69-6.95-.65l-8.238 4.77c1.74-.76 4.003-.526 6.468.896L84.86 89.428c5.463 3.155 9.934 11 9.934 17.432v42.107c0 3.262-1.15 5.56-2.996 6.62l8.687-4.995c1.866-1.053 3.03-3.358 3.03-6.64v-42.108c0-.078-.002-.158-.004-.238l.005.184 15.75-9.094L135 83.61c5.125-2.957 9.32-10.318 9.32-16.353V26.823c0-7.92-1.535-10.09-9.32-5.594l-1.96 1.13v38.39c0 .998-.115 2.035-.33 3.082 2.448 1.826 4.123 4.926 4.688 9.094L101.503 93.65a24.907 24.907 0 0 0-1.754-3.13l.1.157c2.583-10.522 9.833-21.21 18.37-26.143 4.544-2.622 8.72-3.192 12.023-2.02l-8.363-4.83c-1.12 1.222-2.356 2.255-3.657 3.005-5.07 2.926-9.182.46-9.182-5.51s4.11-13.188 9.184-16.115c2.45-1.414 4.676-1.57 6.322-.68l-9.638-5.563-13.46 7.772a14.457 14.457 0 0 0-2.362 1.723c-.84 2.115-1.322 4.31-1.322 6.355 0 2.953 1.007 5.05 2.637 6.06l.02.01c.07.044.138.083.208.12l5.904 3.41c-5.774 3.478-10.93 9.57-14.4 16.42v8.877l-6.85-3.954v-24.02c0-7.62 5.295-16.912 11.767-20.648L139.4 10.5c3.195-1.844 6.1-2.003 8.227-.777l-11.21-6.464c-2.13-1.274-5.065-1.13-8.294.733L85.765 28.45zm17.64 71.62l.02.185-.02-.185zm.08.93c.005.062.01.125.013.19l-.012-.19zm-86.17-33.025l62.577 36.13v6.24l-62.578-36.13v-6.24zm0 24.953l26.818 15.484v6.238l-26.82-15.483v-6.24zm0-12.476l62.577 36.13v6.24L17.314 86.69v-6.24zm107.43-41.944l.022.012-.02-.012z"/><path class="icon-border" fill-rule="evenodd" clip-rule="evenodd" fill="#A1A4A7" d="M80.102 154.963v7.22c0 .977-.58 1.817-1.417 2.198l-8.52 4.9a2.402 2.402 0 0 1-3.283-.884l-.006-.012-.004.002-17.89-31.394-37.834-21.844c-3.114-1.797-5.912-4.87-7.91-8.38C1.238 103.26 0 99.266 0 95.63V53.527c0-2.11.418-3.94 1.167-5.424.835-1.65 2.067-2.862 3.598-3.572l8.145-4.72.063-.03c1.334-.756 2.88-1.078 4.565-.92 1.506.143 3.106.665 4.737 1.605.042.025.082.05.123.077L71.584 68.94V49.1c0-4.23 1.445-8.88 3.777-12.97 2.337-4.095 5.59-7.68 9.2-9.763l42.36-24.454c.044-.027.092-.05.14-.074C129.187.62 131.005.022 132.86 0c1.928-.022 3.715.573 5.75 1.747l10.033 5.787c.137.062.268.14.396.232 1.46.9 2.625 2.246 3.41 3.986.73 1.615 1.135 3.57 1.135 5.81v51.046c0 4.228-1.447 8.88-3.776 12.97-2.068 3.624-4.86 6.853-7.99 8.995v22.076a2.414 2.414 0 0 1-3.82 1.96l-18.483-11.092-13.586 7.843v32.59c0 1.953-.36 3.664-1.01 5.09-.704 1.542-1.744 2.73-3.046 3.522-.105.076-.22.143-.337.2L93 157.672l-.073.038c-1.334.75-2.877 1.066-4.553.907-1.496-.14-3.092-.663-4.72-1.605l-3.55-2.05zm-5.62-84.352l10.312 5.957V55.602c0-3.893 1.348-8.205 3.52-12.018 2.173-3.812 5.178-7.135 8.488-9.047l42.357-24.455c1.884-1.09 3.68-1.612 5.294-1.632L136.4 3.803l-.005.002-.227-.133c-.998-.596-2.195-.854-3.527-.734-1.31.115-2.755.595-4.275 1.473v.004L86.008 28.867c-3.16 1.825-6.04 5.017-8.134 8.688-2.092 3.674-3.39 7.816-3.39 11.543V70.61zm11.28 6.514l5.883 3.397V56.954c0-3.1 1.073-6.535 2.8-9.568 1.73-3.033 4.123-5.68 6.76-7.203l33.554-19.37c4.076-2.356 6.564-2.93 8.1-1.835 1.513 1.085 1.94 3.73 1.94 7.846v40.434c0 3.102-1.073 6.534-2.8 9.568-1.73 3.034-4.124 5.68-6.76 7.203l-15.737 9.084-13.6 7.853c.016.295.023.59.023.88v6.18l13.366-7.716.246-.144.242.146 19.135 11.484V88.98l.244-.14c3.16-1.824 6.037-5.018 8.13-8.69 2.093-3.673 3.393-7.816 3.393-11.542V17.56c0-2.16-.436-3.938-1.208-5.274-.54-.932-1.24-1.652-2.072-2.135-.828-.48-1.793-.73-2.857-.73-1.476 0-3.14.48-4.904 1.5l-42.36 24.454c-3.16 1.824-6.04 5.018-8.132 8.688-2.09 3.675-3.39 7.82-3.39 11.544v21.52zm6.847 3.955l2.165 1.25.007.004.003-.004c2.03 1.172 3.927 2.89 5.557 4.924a47.716 47.716 0 0 1 4.824-10.143c3.434-5.47 7.912-10.16 12.812-12.99 2.456-1.416 4.81-2.25 6.99-2.544.864-.116 1.704-.15 2.51-.1l-5.51-3.18c-1.083 1.132-2.267 2.097-3.508 2.81v.003c-1.526.88-2.98 1.297-4.278 1.297-.977 0-1.87-.236-2.646-.687-.774-.45-1.425-1.114-1.92-1.968-.68-1.178-1.06-2.72-1.06-4.57 0-3.07 1.052-6.452 2.75-9.438 1.703-2.984 4.06-5.584 6.672-7.093 1.354-.78 2.65-1.196 3.833-1.28l-6.905-3.99-13.22 7.634c-.758.438-1.494.974-2.197 1.59l-.045.114c-.764 1.992-1.202 4.045-1.202 5.96 0 1.382.23 2.56.64 3.507.417.955 1.02 1.678 1.767 2.14l.01.007.01.007c.033.02.063.04.09.052v.003l.093.053.012.006 5.904 3.408.706.41-.7.42c-3.404 2.05-6.592 5.026-9.34 8.533a47 47 0 0 0-4.828 7.586v6.267H92.6zm8.443 7.105a26.28 26.28 0 0 1 2.327 3.828l33.49-19.335c-.317-2.104-.93-3.916-1.79-5.403-1.04-1.807-2.45-3.14-4.137-3.946-1.69-.808-3.67-1.09-5.848-.795-2.06.277-4.293 1.07-6.634 2.42-4.76 2.754-9.124 7.33-12.48 12.672-2.08 3.312-3.77 6.916-4.926 10.56zm2.744 4.697c1.042 2.29 1.753 4.697 2.015 7.024l13.207-7.624 15.735-9.087c2.488-1.437 4.756-3.95 6.404-6.844 1.65-2.897 2.673-6.16 2.673-9.095v-40.43c0-3.804-.34-6.205-1.537-7.063-1.183-.843-3.355-.255-7.06 1.886l-1.718.99v38.117c0 .936-.1 1.904-.283 2.883 1.043.832 1.943 1.89 2.678 3.158.963 1.67 1.635 3.705 1.955 6.07l.044.318-.282.163L103.8 92.88zm20.94-54.93c.057.03.11.06.165.093.045.025.09.053.134.08l.382.22-.02.033a5.45 5.45 0 0 1 1.42 1.637c.68 1.175 1.063 2.718 1.063 4.57 0 3.068-1.05 6.448-2.752 9.435a22.523 22.523 0 0 1-2.5 3.55l7.81 4.51a10.02 10.02 0 0 1 1.926.94 14.47 14.47 0 0 0 .187-2.263v-37.56l-16.68 9.633 8.87 5.12zm-2.48.37c-1.137 0-2.425.377-3.795 1.168h-.003c-2.46 1.42-4.69 3.89-6.313 6.735-1.622 2.847-2.625 6.058-2.625 8.96 0 1.68.336 3.058.93 4.09.41.705.94 1.25 1.567 1.616.626.363 1.356.555 2.163.555 1.138 0 2.426-.376 3.795-1.167h.002c2.46-1.42 4.69-3.89 6.313-6.736s2.626-6.056 2.626-8.96c0-1.68-.336-3.055-.93-4.085v-.003c-.41-.704-.94-1.247-1.568-1.614-.627-.366-1.358-.555-2.164-.555zm-24.3 5.803a21.866 21.866 0 0 0-2.677 3.74c-1.65 2.894-2.673 6.158-2.673 9.092V72.77a47.38 47.38 0 0 1 4.07-6.138c2.634-3.362 5.667-6.253 8.91-8.337l-5.196-3.004c-.05-.025-.085-.05-.11-.063l-.115-.067v-.003l-.008-.004-.242-.14v-.02c-.807-.564-1.46-1.38-1.914-2.424-.464-1.07-.722-2.38-.722-3.895 0-1.473.24-3.017.68-4.555zM69.45 146.585v19.778l7.755-4.46v-10.84l-7.756-4.477zM8.39 45.77c1.294.074 2.714.52 4.197 1.377h.002L85.1 89.012c2.807 1.62 5.354 4.435 7.195 7.665 1.838 3.23 2.98 6.883 2.98 10.183v42.107c0 1.85-.36 3.414-1 4.643l5.678-3.267v-.003l.295-.166c.86-.486 1.56-1.275 2.042-2.33.476-1.045.74-2.352.74-3.893v-42.104c0-3.13-1.093-6.617-2.855-9.707-1.76-3.09-4.18-5.774-6.838-7.308l-72.51-41.864c-1.263-.73-2.46-1.13-3.55-1.23-1.1-.104-2.09.1-2.918.58l-.265.148L8.39 45.77zm60.092 119.607v-20.46l.723.42 15.894 9.176c1.475.852 2.87 1.256 4.102 1.256.885 0 1.687-.21 2.375-.61s1.272-1 1.72-1.778c.645-1.117 1.01-2.605 1.01-4.416V106.86c0-3.133-1.093-6.618-2.854-9.707-1.76-3.09-4.182-5.773-6.84-7.308L12.107 47.98c-1.477-.854-2.87-1.257-4.103-1.257v-.002c-.884 0-1.686.21-2.376.616-.69.4-1.274 1-1.72 1.772-.647 1.118-1.012 2.607-1.012 4.42V95.63c0 3.135 1.094 6.62 2.854 9.71 1.76 3.09 4.18 5.773 6.835 7.308h.002l38.408 22.174.18.178 17.307 30.377zM17.552 67.56l-.72-.42v7.35l.242.14 62.578 36.13.724.418v-7.35l-.243-.14-62.58-36.13zm61.858 36.82L17.797 68.81v5.128L79.41 109.51v-5.128zM17.556 92.51l-.724-.42v7.354l.24.14 26.82 15.484.724.418v-7.35l-.242-.14L17.556 92.51zm26.094 16.18L17.796 93.764v5.125l25.853 14.925v-5.127zM17.552 80.036l-.72-.418v7.35l.24.14 62.577 36.13.724.42v-7.353l-.243-.14-62.58-36.13zM79.41 116.86L17.797 81.286v5.126l61.613 35.572v-5.126z"/></svg>