<svg xmlns="http://www.w3.org/2000/svg" width="210" height="210" viewBox="-27 -12.951 210 210" overflow="visible"><path class="icon-bg" fill-rule="evenodd" clip-rule="evenodd" fill="#EFEEED" d="M76.742 42.61L32.367 69.205c-4.353 2.61-7.916 9.103-7.916 14.426v69.086l7.197-4.312v-37.12c0-5.322 3.562-11.814 7.916-14.425l37.182-22.283V42.61zm-40.9-20.37c3.076 0 5.57 1.283 5.57 2.865 0 1.582-2.494 2.865-5.57 2.865-3.074 0-5.57-1.283-5.57-2.865 0-1.583 2.496-2.864 5.57-2.864zm-10.98 6.95c3.075 0 5.57 1.28 5.57 2.863 0 1.58-2.495 2.864-5.57 2.864s-5.57-1.283-5.57-2.864c0-1.582 2.493-2.864 5.57-2.864zm103.194 66.223l-58.43 34.81-6.773 4.046v12.09l27.61 16.65-8.36 4.83-27.69-16.596V124.91c0-5.322 3.562-11.813 7.917-14.424l37.18-22.282V38.868c0-5.324 3.563-11.815 7.92-14.425l12.708-7.615c4.356-2.61 7.92-.39 7.92 4.933v73.655h-.002zm27.582 9.996c0 5.353-4.696 9.214-10.225 12.566l-3.015 1.827c-2.093-.605-4.502-.26-6.87 1.176-6.43 3.893-11.638 14.68-11.638 24.094 0 12.427 6.854 18.134 11.635 25.936l.47-.86c.23.5.46.98.68 1.44 6.796-4.055 12.107-8.424 15.368-13.233 6.65-9.812 4.197-17.29-3.385-19.9 6.626-5.24 6.98-10.483 6.98-14.904V105.41zm-20.11 26.016c2.488-1.506 4.502.226 4.502 3.868 0 3.644-2.014 7.817-4.503 9.326-2.487 1.507-4.503-.224-4.503-3.87 0-3.642 2.016-7.816 4.503-9.323zm-19.042 4.097L90.543 151.26v11.85l-8.44 4.728v10.803L120 155.93c-2.333-4.08-4.023-8.68-4.023-15.718 0-1.514.182-3.09.51-4.685z"/><path class="icon-border" fill-rule="evenodd" clip-rule="evenodd" fill="#A1A4A7" d="M19.562 33.832V59.35c0 .624.55 1.217 1.438 1.67.985.505 2.362.816 3.893.816s2.906-.31 3.893-.814c.89-.455 1.438-1.048 1.438-1.673V33.83a5.05 5.05 0 0 1-1 .663c-1.12.57-2.652.924-4.33.924-1.68 0-3.213-.355-4.33-.925a5.007 5.007 0 0 1-1.002-.663zm106.744 80.878c6.26-3.793 9.902-1.423 13.6.984.118.077-.167-.11.51.328l.014.008 3.615 2.216 1.12-.68c2.728-1.653 5.247-3.43 7.078-5.445 1.36-1.5 2.34-3.133 2.73-4.955.086-.572.15-1.158.182-1.752h.002a19.522 19.522 0 0 0-.626-6.105c-1.145-4.3-3.856-8.477-8.59-11.305l-15.84-9.47V91.21c0 1.572-.144 2.483-.61 3.216s-1.2 1.2-2.39 1.915l-63.32 37.93 26.766 16.423 23.308-14.137c.25-1.663.657-3.35 1.183-5.013 1.006-3.197 2.458-6.338 4.065-9.068 1.073-1.823 2.194-3.31 3.297-4.512 1.33-1.447 2.672-2.513 3.904-3.258zm18.62 4.127l.737-.447c2.8-1.7 5.392-3.53 7.29-5.62.91-1 1.66-2.056 2.2-3.187v13.968c0 2.545-.117 5.36-1.51 8.26-.904 1.88-2.347 3.807-4.644 5.748.366-2.236.58-4.435.58-6.58 0-2.883-.455-5.39-1.26-7.43-.8-2.024-1.958-3.617-3.395-4.71zm3.197 22.986c-1.465 6.047-3.832 12.28-6.152 18.387-1.51 3.982-3 7.91-4.15 11.526a2.402 2.402 0 0 1-3.02 1.565 2.427 2.427 0 0 1-.515-.23l-.003.01-9.5-5.75c-.38-.23-.675-.55-.872-.913-.84-1.367-1.77-2.743-2.673-4.085a143.492 143.492 0 0 1-2.06-3.103l-35.8 21.46c-.742.46-1.71.5-2.51.02l-27.522-16.495a2.193 2.193 0 0 1-.333-.2L31.644 151.21l-5.924 3.548a2.4 2.4 0 0 1-2.507.022L1.345 141.674A2.417 2.417 0 0 1 0 139.51V70.15c0-3.064 1.005-6.42 2.627-9.37 1.628-2.97 3.916-5.58 6.462-7.12l7.57-4.583V31.965c0-1.798 1.156-3.288 3.023-4.24 1.384-.71 3.23-1.146 5.206-1.146.91 0 1.796.09 2.616.26v-1.73c0-1.8 1.156-3.29 3.025-4.24 1.385-.71 3.228-1.148 5.207-1.148 1.976 0 3.82.438 5.204 1.145 1.868.953 3.024 2.443 3.024 4.24v7.452l11.887-7.19c3.837-2.32 7.247-3.15 10.356-3.025 3.046.125 5.7 1.16 8.128 2.62.12-2.91 1.097-6.043 2.617-8.813 1.628-2.963 3.915-5.57 6.47-7.1l12.708-7.62C97.5.618 98.85.16 100.125.036c1.482-.144 2.845.16 4.015.862l23.073 13.563c.166.08.325.186.475.31.927.77 1.66 1.82 2.138 3.115.415 1.117.642 2.418.642 3.877v53.53l16.958 10.24c4.078 2.475 6.86 5.808 8.554 9.42a22.194 22.194 0 0 1 2.062 10.46h.007v18.143c0 2.856-.14 6.04-1.807 9.504-1.396 2.905-3.836 5.876-8.122 8.766zm-30.436 14.93l-35.104 21.04v-9.67l8.172-4.577c.16-.08.27-.244.27-.437v-11.58l22.67-13.75a23.06 23.06 0 0 0-.133 2.43c0 7.42 1.725 12.27 4.125 16.542zm22.206-37.66c-1.43.018-2.99.494-4.613 1.477-3.297 1.997-6.27 5.74-8.415 10.18-2.137 4.42-3.457 9.547-3.457 14.326 0 9.662 4.062 15.3 8.134 20.957.83 1.15 1.66 2.303 2.455 3.488l-7.62-4.61c-.92-1.496-1.844-2.864-2.743-4.195-3.787-5.613-7.173-10.63-7.173-20.502 0-2.49.51-5.17 1.34-7.802.942-2.99 2.296-5.923 3.794-8.466.952-1.616 1.95-2.94 2.936-4.012 1.143-1.244 2.265-2.14 3.273-2.752 4.708-2.852 7.596-.97 10.532.943l.52.338.02.015 1.02.623zm.08.966c1.006 0 1.933.26 2.753.766.83.514 1.56 1.275 2.158 2.263 1.14 1.877 1.798 4.556 1.798 7.886 0 8.688-3.77 18.61-7.416 28.216-1.378 3.628-2.738 7.21-3.88 10.69-.976-1.518-2.018-2.967-3.062-4.412-3.98-5.523-7.95-11.036-7.95-20.393 0-4.635 1.284-9.61 3.358-13.908 2.068-4.284 4.913-7.88 8.045-9.777 1.494-.906 2.91-1.334 4.195-1.334zm-4.694 10.955c.685-.416 1.35-.615 1.966-.615.514 0 .99.138 1.416.4.413.255.768.625 1.055 1.1.504.83.794 1.985.794 3.395 0 1.894-.52 3.924-1.366 5.674-.854 1.764-2.043 3.26-3.37 4.06-.688.42-1.353.615-1.97.615-.514 0-.988-.136-1.414-.398a3.25 3.25 0 0 1-1.057-1.1c-.502-.83-.793-1.987-.793-3.397 0-1.894.52-3.922 1.366-5.672.854-1.766 2.046-3.26 3.37-4.063zm1.966.35c.334 0 .64.088.91.253.28.174.534.436.74.776.41.682.65 1.666.65 2.898 0 1.752-.486 3.63-1.27 5.254-.777 1.61-1.84 2.955-3 3.66-.53.32-1.025.472-1.472.472-.333 0-.64-.087-.91-.254a2.26 2.26 0 0 1-.738-.777c-.412-.68-.65-1.664-.65-2.898 0-1.75.484-3.63 1.27-5.254.775-1.61 1.838-2.958 3-3.66.53-.32 1.023-.473 1.47-.473zm-85.253 28.67L32.128 148.13v-36.848c0-2.58.866-5.45 2.264-7.998 1.398-2.543 3.315-4.754 5.418-6.013l37.145-22.26c.16-.08.27-.24.27-.432V25.543c0-2.58.87-5.45 2.267-7.998 1.396-2.544 3.315-4.754 5.417-6.013l12.705-7.617c.99-.595 1.934-.922 2.785-1.004.855-.08 1.623.08 2.26.467h.003l.016.01 21.566 11.906a4.89 4.89 0 0 0-.646-.043c-1.13 0-2.39.374-3.71 1.165l-12.707 7.616c-2.255 1.35-4.296 3.694-5.77 6.376-1.472 2.683-2.386 5.72-2.386 8.463v49.064l-36.943 22.14c-2.253 1.35-4.295 3.69-5.768 6.376-1.474 2.682-2.388 5.72-2.388 8.462v23.83l-.726.42a2.407 2.407 0 0 0-1.2 2.085h-.008v8.793zm2.9-11.854v-23.27c0-2.58.867-5.45 2.266-8 1.396-2.543 3.315-4.752 5.417-6.013l37.146-22.262c.16-.08.27-.244.27-.434V38.87c0-2.58.868-5.45 2.265-7.998 1.397-2.544 3.314-4.754 5.415-6.013l12.71-7.618c1.16-.698 2.252-1.026 3.216-1.026.662 0 1.262.156 1.78.456.52.303.97.753 1.32 1.337.557.927.87 2.194.87 3.753v71.1l-.157.134-59.022 35.163-6.77 4.045a2.403 2.403 0 0 0-1.17 2.066h-.01v10.708l-5.547 3.207zm28.48-40.327v2.905l-2.627 1.584v-2.905l2.628-1.586zm-3.35.908l3.564-2.15a.477.477 0 0 1 .74.398v4.023a.47.47 0 0 1-.228.41l-3.562 2.15a.48.48 0 0 1-.747-.398v-4.02h.002a.48.48 0 0 1 .23-.41zm32.204-18.4v2.91l-2.627 1.585V91.95l2.627-1.586zm-3.353.91l3.565-2.15a.48.48 0 0 1 .744.4v4.02c0 .16-.084.32-.23.407l-3.567 2.15a.48.48 0 0 1-.745-.396v-4.02a.484.484 0 0 1 .232-.41zm-4.353 3.742v2.905l-2.627 1.585V96.6l2.628-1.587zm-3.35.907l3.563-2.15a.48.48 0 0 1 .746.4v4.02a.48.48 0 0 1-.233.407l-3.565 2.15a.478.478 0 0 1-.744-.4v-4.02c0-.16.08-.318.23-.408zm11.056-14.903v2.905l-2.627 1.585V82.6l2.625-1.583zm-3.353.907l3.565-2.15a.477.477 0 0 1 .743.397v4.02a.48.48 0 0 1-.23.41l-3.565 2.15a.48.48 0 0 1-.745-.397v-4.02a.484.484 0 0 1 .232-.41zm11.06-52.056l-2.63 1.583v2.907l2.63-1.586v-2.9zm-3.355.906a.474.474 0 0 0-.23.408v4.02a.478.478 0 0 0 .742.398l3.567-2.15a.485.485 0 0 0 .23-.41v-4.02a.48.48 0 0 0-.746-.397l-3.564 2.15zm3.353 36.48l-2.627 1.585v2.904l2.628-1.585v-2.905zm-3.353.907a.473.473 0 0 0-.23.41v4.02a.478.478 0 0 0 .742.4l3.566-2.15a.486.486 0 0 0 .23-.41v-4.02a.48.48 0 0 0-.746-.397l-3.565 2.15zm-4.354-5.605l-2.627 1.586v2.905l2.625-1.584v-2.905zm-3.353.907a.474.474 0 0 0-.23.407v4.02a.478.478 0 0 0 .744.4l3.565-2.15c.15-.09.23-.25.23-.41v-4.02a.475.475 0 0 0-.743-.398l-3.565 2.15zm11.06-14.903l-2.63 1.585v2.906l2.63-1.584V48.56zm-3.355.907a.478.478 0 0 0-.23.41v4.018a.474.474 0 0 0 .743.397l3.568-2.15a.484.484 0 0 0 .23-.41v-4.02a.48.48 0 0 0-.745-.398l-3.564 2.152zm-4.353 3.74l-2.627 1.585V57.7l2.626-1.584V53.21zm-3.353.908a.48.48 0 0 0-.23.41v4.02a.477.477 0 0 0 .742.397l3.565-2.15a.48.48 0 0 0 .23-.41v-4.02a.478.478 0 0 0-.743-.398l-3.565 2.15zm11.06-14.9L117.3 40.8v2.905l2.63-1.586v-2.906zm-3.356.906a.477.477 0 0 0-.23.41v4.02c0 .265.213.48.48.48a.46.46 0 0 0 .263-.084l3.567-2.15c.146-.09.23-.25.23-.41v-4.02a.48.48 0 0 0-.745-.398l-3.566 2.15zm-4.353 3.74l-2.626 1.588v2.904l2.626-1.584v-2.906zm-3.352.91a.48.48 0 0 0-.23.41v4.02a.478.478 0 0 0 .744.393l3.565-2.15a.478.478 0 0 0 .23-.408v-4.02a.478.478 0 0 0-.744-.398l-3.565 2.152zm-17.793 58.434v2.905l-2.63 1.584v-2.905l2.63-1.586zm-3.354.908l3.565-2.15a.47.47 0 0 1 .265-.083.48.48 0 0 1 .477.48v4.02a.478.478 0 0 1-.23.407l-3.565 2.15a.477.477 0 0 1-.744-.398v-4.02a.48.48 0 0 1 .23-.408zM67.96 117.15v2.905l-2.63 1.586v-2.904l2.63-1.585zm-3.355.907l3.566-2.15a.478.478 0 0 1 .745.397v4.02c0 .163-.083.32-.23.41l-3.564 2.15a.48.48 0 0 1-.748-.4v-4.018a.49.49 0 0 1 .233-.41zm11.06-5.556v2.907l-2.63 1.584v-2.904l2.63-1.586zm-3.353.91l3.563-2.15a.48.48 0 0 1 .745.397v4.02a.48.48 0 0 1-.233.408l-3.562 2.15a.477.477 0 0 1-.745-.398v-4.02a.483.483 0 0 1 .23-.407zm-42.956 35.795l-4.432 2.656V83.63c0-2.58.867-5.45 2.266-7.997 1.396-2.546 3.313-4.754 5.417-6.015l41.71-25v28.6l-36 21.574c-2.554 1.53-4.84 4.138-6.466 7.102-1.624 2.953-2.63 6.32-2.63 9.39v37.12c0 .28.05.55.136.802zM74.326 43.5L32.12 68.79c-2.252 1.35-4.294 3.69-5.767 6.376-1.474 2.682-2.388 5.718-2.388 8.462v68.232l-21.07-12.625V70.15c0-2.575.87-5.436 2.264-7.978 1.396-2.547 3.32-4.764 5.42-6.035l8.013-4.847v8.058c0 1.016.75 1.907 1.966 2.53 1.12.57 2.65.923 4.33.923 1.68 0 3.21-.35 4.33-.92 1.216-.623 1.968-1.515 1.968-2.53v-4.444c.07.04.143.08.22.12 1.116.57 2.65.924 4.33.924 1.68 0 3.21-.355 4.327-.926 1.216-.62 1.968-1.512 1.968-2.53v-15.38L57.35 27.85c3.307-2 6.18-2.72 8.746-2.617 2.56.105 4.837 1.035 6.95 2.332l.006.002 1.274.766v15.165zM34.688 75.61v6.986l5.885 5.142 4.74-2.85-10.625-9.28zm0 9.377v6.287l4.265-2.562-4.265-3.723zm25.234-24.85l-4.736 2.848 10.532 9.2c.65.57 1.72-.07 2.37-1.424.65-1.35.65-2.922 0-3.494l-8.166-7.13zm-6.36 3.823l-4.737 2.845 10.533 9.203c.65.568 1.72-.07 2.37-1.424.65-1.353.65-2.925 0-3.495l-8.166-7.13zm-6.358 3.822l-4.74 2.848L53 79.834c.65.57 1.715-.07 2.37-1.424.65-1.354.65-2.926 0-3.495l-8.166-7.132zm-6.36 3.822l-4.74 2.85 6.094 5.322c.65.57 1.718-.07 2.37-1.424s.65-2.924 0-3.494l-3.725-3.255zm-9.656-39.652V53.76c.19.145.41.28.658.408.984.503 2.36.815 3.893.815 1.526 0 2.902-.312 3.89-.815.89-.454 1.44-1.048 1.44-1.673V26.977a5.15 5.15 0 0 1-1.004.664c-1.12.575-2.65.926-4.33.926-1.68 0-3.212-.352-4.33-.923a4.92 4.92 0 0 1-1-.663v3.293c.493.493.777 1.065.78 1.683zm-2.404-1.66c.89.454 1.438 1.048 1.438 1.672s-.55 1.218-1.438 1.673c-.986.503-2.362.814-3.893.814s-2.904-.31-3.89-.812c-.89-.455-1.44-1.048-1.44-1.673s.55-1.218 1.44-1.673c.985-.502 2.36-.814 3.893-.814s2.908.312 3.894.815zm10.845-6.855c-.987-.503-2.36-.815-3.89-.815-1.535 0-2.91.312-3.896.815-.89.455-1.438 1.048-1.438 1.674 0 .627.55 1.22 1.438 1.674.984.503 2.36.815 3.893.815 1.528 0 2.904-.314 3.89-.817.89-.454 1.44-1.048 1.44-1.672 0-.625-.55-1.22-1.44-1.673zm23.704 111.69l26.726 16.4v10.677L63.337 146.09v-10.96zm-7.977 16.125l7.486-4.33 26.67 16.08-7.41 4.278-4.952-2.968-21.794-13.06zm-.466.843v9.68l26.725 16.017v-9.68L54.89 152.095zm71.866-42.533l1.867 1.117-6.204 3.72-1.868-1.12 6.203-3.72zm3.898-22.852l4.934 2.958-1.6.958-3.59-2.152v-1.608l.255-.155zm.684 22.203l-1.835-1.12a895.654 895.654 0 0 0 5.593-3.65c.45.272 1.442.9 1.892 1.128a915.35 915.35 0 0 0-5.65 3.645zm8.09-5.2c-.65-.388-1.335-.714-1.974-1.13l.26-.172c2.122-1.4 3.04-2.842 3.13-4.224h2.12c.027 1.962-1.16 3.9-3.54 5.528zm2.416-8.698h-2.154c-.67-1.043-1.756-2.004-3.045-2.822.423-.315.888-.612 1.346-.86 1.85 1.12 3.13 2.378 3.854 3.682zm-24.4 20.126l1.868 1.12-5.614 3.366-1.868-1.12 5.615-3.363zm-8.716 5.226l1.867 1.12-5.765 3.455-1.868-1.12 5.767-3.455zm-8.87 5.316l1.868 1.12-6.512 3.903-1.868-1.12 6.513-3.902zm-9.614 5.763l1.867 1.118-6.053 3.63-1.87-1.12 6.056-3.627z"/></svg>