<svg xmlns="http://www.w3.org/2000/svg" width="210" height="210" viewBox="-28.912 -14 210 210" overflow="visible"><path class="icon-bg" fill-rule="evenodd" clip-rule="evenodd" fill="#ECEDED" d="M40.75 132.06l-22.645-12.677c-3.793-2.12-3.33-5.855 1.027-8.29l16.004-8.948-24.032-13.453C9.024 87.53 8.004 85.965 8 84.33v-9.41h.05c.063 1.572 1.066 3.06 3.054 4.172l37.43 20.95c4.582 2.566 12.734 2.205 18.113-.807l73.162-40.953c2.97-1.664 4.5-3.8 4.494-5.814h.042v9.424c.118 2.035-1.355 4.207-4.34 5.88L118.99 79.535l16.147 9.037c3.79 2.123 3.33 5.857-1.03 8.292L112.49 108.95l-8.303-4.645c-3.793-2.123-10.457-1.86-14.815.574l-48.62 27.18zm-24.256 6.844l17.884 10.102c1.925 1.086 3.5 3.984 3.5 6.438 0 2.455-1.575 3.574-3.5 2.488L16.494 147.83c-1.925-1.086-3.498-3.984-3.498-6.438 0-2.456 1.573-3.574 3.498-2.488z"/><path class="icon-border" fill-rule="evenodd" clip-rule="evenodd" fill="#A1A4A7" d="M0 116.43c0-.207.025-.406.074-.598.09-1.467.656-2.928 1.684-4.29 1.01-1.34 2.482-2.6 4.396-3.67l17.14-9.595-13.37-7.482c-1.334-.746-2.36-1.656-3.082-2.67-.832-1.166-1.244-2.456-1.248-3.796h-.01v-9.414c0-.2.023-.393.07-.578.087-1.386.623-2.764 1.592-4.05.947-1.26 2.328-2.44 4.12-3.443L35.263 53.47v-1.2l.965.528v.13l.12-.066 3 1.637-3.12 1.745V69.63c1.258.13 2.213.75 2.213 1.494 0 .838-1.204 1.518-2.692 1.518s-2.695-.68-2.695-1.518c0-.745.956-1.365 2.214-1.494V56.788L12.78 69.373c-1.777.995-3.01 2.157-3.676 3.348-.364.654-.558 1.31-.575 1.948-.02.63.134 1.247.462 1.834.448.805 1.228 1.55 2.346 2.17l37.427 20.955c2.213 1.238 5.305 1.77 8.504 1.627 3.21-.142 6.516-.966 9.14-2.435l73.16-40.955c1.78-.994 3.012-2.156 3.68-3.346.363-.653.556-1.31.573-1.947a3.517 3.517 0 0 0-.463-1.833c-.45-.804-1.23-1.546-2.345-2.17l-23.24-13.012v4.38l2.916 1.643c.46.26.63.608.6.974a1.06 1.06 0 0 1-.236.57c-.112.14-.262.27-.438.376-.555.342-1.422.486-2.098.105l-.742-.417v9.295c1.33.13 2.346.783 2.346 1.57 0 .88-1.266 1.595-2.827 1.595-1.563 0-2.83-.714-2.83-1.595 0-.787 1.014-1.44 2.346-1.57v-9.84l-6.525-3.673.978-.556 5.548 3.122v-1.034l-4.63-2.61.98-.554 3.65 2.055v-4.13l.22-.125.748-.424 2.196-1.244 22.46 12.572c1.324.744 2.346 1.648 3.06 2.658.687.975 1.083 2.038 1.19 3.147.053.2.08.408.08.624v9.425h-.002c.06 1.556-.455 3.12-1.525 4.57-.927 1.255-2.28 2.427-4.046 3.414l-10.542 5.9 17.115 9.58c1.41.79 2.49 1.75 3.247 2.816.73 1.034 1.145 2.16 1.255 3.333.057.2.085.415.085.635v33.565h-.002c.06 1.64-.48 3.29-1.616 4.826-.984 1.337-2.43 2.583-4.313 3.64l-79.59 44.55c-3.185 1.78-7.185 2.767-11.065 2.917-3.93.152-7.807-.557-10.678-2.164L4.594 156.804c-1.418-.79-2.508-1.756-3.27-2.828-.875-1.23-1.31-2.586-1.314-3.994H0V116.43zm26.254-16.494L7.57 110.396c-1.932 1.08-3.27 2.34-3.994 3.636-.396.71-.607 1.428-.627 2.123-.02.688.145 1.365.503 2.006.49.876 1.34 1.687 2.554 2.366L46.5 143.194c2.4 1.344 5.755 1.92 9.22 1.766 3.48-.157 7.063-1.05 9.906-2.64l79.153-44.31c1.932-1.08 3.27-2.343 3.992-3.636.397-.71.61-1.428.63-2.125a3.863 3.863 0 0 0-.508-2.005c-.49-.875-1.338-1.684-2.553-2.363l-18.66-10.45-5.73 3.21 13.42 7.51c1.09.61 1.86 1.355 2.316 2.173.35.62.513 1.283.495 1.958-.016.67-.21 1.346-.575 2-.61 1.088-1.703 2.13-3.266 3.004l-21.59 12.068c-.02.012-.035.023-.054.03L64.1 136.552c-2.246 1.256-5.08 1.95-7.84 2.06-2.77.108-5.47-.378-7.445-1.48l-8.303-4.65-.012-.007-22.633-12.67c-1.09-.61-1.86-1.355-2.315-2.17a3.778 3.778 0 0 1-.494-1.96c.016-.67.21-1.345.576-2 .608-1.087 1.7-2.132 3.266-3.005l13.273-7.42-5.916-3.313zm94.71-18.744l-53.338 29.86c-2.965 1.66-6.694 2.575-10.31 2.718-3.664.143-7.282-.52-9.965-2.023l-14.19-7.945-13.79 7.71c-1.4.782-2.366 1.694-2.893 2.636-.29.518-.444 1.043-.456 1.55-.012.503.113 1 .375 1.47.368.66 1.016 1.277 1.946 1.797l22.413 12.547 48.384-27.05c2.248-1.257 5.082-1.952 7.84-2.06 2.77-.107 5.473.38 7.446 1.482l8.067 4.518 21.383-11.955c1.398-.78 2.365-1.693 2.893-2.635.29-.518.442-1.04.455-1.55.014-.502-.11-1-.373-1.47-.37-.66-1.016-1.276-1.947-1.796l-13.936-7.804zm-6.6-47.55l-10.777-6.03c-2.214-1.24-5.306-1.772-8.503-1.628-.887.04-1.783.13-2.668.272v12.632c1.222.126 2.147.73 2.147 1.456 0 .818-1.18 1.48-2.632 1.48-1.45 0-2.63-.662-2.63-1.48 0-.727.93-1.33 2.15-1.456V26.434c-1.975.406-3.873 1.07-5.506 1.983l-44.19 24.738 12.4 6.94c1.607.9 3.796 1.332 6.103 1.316v-4.78c-2.074-.07-3.95-.573-5.34-1.356-1.584-.892-2.562-2.152-2.562-3.568 0-1.418.98-2.68 2.562-3.57 1.498-.844 3.558-1.365 5.824-1.365s4.327.52 5.825 1.365c1.584.89 2.562 2.152 2.562 3.57 0 1.416-.98 2.677-2.56 3.568-1.394.783-3.27 1.29-5.344 1.357v4.75c2.485-.15 5.02-.8 7.045-1.936l46.096-25.804zm-75.57 17.855l45.734-25.602c2.052-1.148 4.45-1.953 6.92-2.402v-9.87c-2.073-.068-3.95-.574-5.34-1.358-1.583-.89-2.563-2.152-2.563-3.568 0-1.418.98-2.678 2.562-3.57 1.5-.843 3.56-1.363 5.824-1.363 2.27 0 4.33.52 5.828 1.363 1.583.893 2.562 2.152 2.562 3.57 0 1.416-.98 2.678-2.563 3.568-1.39.784-3.267 1.29-5.34 1.36v9.71c.847-.12 1.698-.2 2.542-.236 3.706-.17 7.352.48 10.04 1.983l11.81 6.61v-4.37c-2.076-.068-3.95-.575-5.34-1.358-1.585-.892-2.565-2.153-2.565-3.57 0-1.416.98-2.675 2.564-3.566 1.497-.845 3.556-1.366 5.823-1.366 2.266 0 4.326.52 5.822 1.366 1.585.894 2.562 2.15 2.562 3.57 0 1.415-.978 2.677-2.56 3.57-1.393.78-3.27 1.29-5.343 1.356v4.408l9.398-5.262c1.418-.792 2.397-1.716 2.927-2.66.284-.51.437-1.022.45-1.52a2.736 2.736 0 0 0-.36-1.43c-.356-.632-.97-1.217-1.854-1.71L98.2 2.277c-1.767-.99-4.237-1.41-6.796-1.298-2.572.112-5.217.772-7.318 1.95L25.18 35.9c-1.416.793-2.396 1.717-2.924 2.66-.286.51-.438 1.025-.45 1.52-.017.49.104.974.36 1.43.354.632.97 1.22 1.852 1.713l11.246 6.296V44.4c-2.076-.067-3.95-.572-5.342-1.357-1.583-.89-2.562-2.15-2.562-3.567s.98-2.68 2.562-3.57c1.5-.84 3.56-1.366 5.824-1.366s4.326.526 5.824 1.368c1.584.89 2.562 2.152 2.562 3.57s-.98 2.676-2.562 3.566c-1.39.784-3.268 1.29-5.342 1.36v5.66l2.565 1.433zM8.48 77.487v6.843c.002.73.238 1.45.715 2.12.475.668 1.188 1.285 2.145 1.82l37.428 20.953c2.214 1.238 5.284 1.78 8.447 1.66 3.176-.123 6.43-.92 8.996-2.357l73.564-41.175c1.404-.782 2.453-1.68 3.14-2.61.688-.93 1.01-1.894.957-2.82V55.36c-.785 1.205-2.065 2.36-3.823 3.345l-73.162 40.95c-2.757 1.542-6.216 2.407-9.57 2.556-3.37.15-6.647-.42-9.018-1.745L10.867 79.51c-1.044-.582-1.838-1.27-2.385-2.023zm8.248 61c-.578-.33-1.134-.48-1.644-.48-.443 0-.85.114-1.212.333-.35.215-.646.527-.873.93-.31.553-.49 1.27-.49 2.123 0 1.305.416 2.727 1.087 3.96.675 1.24 1.614 2.308 2.658 2.896l17.884 10.1c.575.325 1.132.48 1.642.48.443 0 .853-.116 1.21-.335.352-.215.647-.53.875-.93.312-.553.49-1.27.49-2.123 0-1.307-.418-2.727-1.09-3.96-.673-1.243-1.614-2.308-2.655-2.897l-17.885-10.1zm17.413 10.937l-17.882-10.1c-.424-.24-.82-.354-1.173-.354-.265 0-.505.068-.708.19-.214.13-.396.325-.54.58-.23.407-.36.964-.36 1.65 0 1.147.37 2.403.967 3.5.594 1.095 1.402 2.022 2.284 2.52l17.886 10.1c.422.24.818.355 1.17.355.265 0 .504-.066.71-.19a1.57 1.57 0 0 0 .536-.58c.23-.407.362-.966.362-1.65 0-1.147-.372-2.405-.967-3.503-.594-1.094-1.405-2.02-2.285-2.518zm39.076 5.086v-6.05a.48.48 0 0 0-.962 0v6.05a.482.482 0 0 0 .962 0zm65.597-36.37v-6.048a.48.48 0 0 0-.96 0v6.047a.48.48 0 0 0 .96 0zm-8.712 4.83v-6.048a.48.48 0 0 0-.96 0v6.047a.48.48 0 0 0 .96 0zm-8.647 4.794v-6.047a.48.48 0 0 0-.96 0v6.047a.48.48 0 0 0 .96 0zm-8.907 4.94v-6.046a.484.484 0 0 0-.966 0v6.045c0 .268.217.482.483.482a.482.482 0 0 0 .485-.482zm-8.715 4.83v-6.046a.48.48 0 0 0-.963 0v6.047a.482.482 0 0 0 .964-.002zm-8.65 4.796v-6.047c0-.266-.214-.482-.48-.482s-.48.22-.48.485v6.047a.48.48 0 0 0 .48.483c.265 0 .48-.216.48-.482zm-8.875 4.922v-6.047c0-.268-.214-.48-.48-.48s-.48.213-.48.48v6.047a.48.48 0 0 0 .96 0zm-8.713 4.83v-6.047a.48.48 0 0 0-.96 0v6.047a.48.48 0 0 0 .962 0zm-8.65 4.795v-6.047a.48.48 0 0 0-.96 0v6.047c0 .268.215.48.48.48s.48-.212.48-.48zm-4.48 10.163v-13.724a.48.48 0 0 0-.96 0v13.723c0 .26.214.48.48.48s.48-.22.48-.48zm78.81-43.696V109.62a.48.48 0 0 0-.96 0v13.724a.48.48 0 0 0 .96 0zm-8.757-2.82v-6.048a.48.48 0 0 0-.96 0v6.047c0 .266.216.482.48.482s.48-.216.48-.482zm-8.755 4.855v-6.05a.483.483 0 0 0-.48-.484.486.486 0 0 0-.484.484v6.048a.48.48 0 0 0 .963 0zM117 137.905l.002-13.722a.48.48 0 0 0-.96 0v13.723a.48.48 0 0 0 .96-.002zm-8.754-2.82v-6.047a.482.482 0 0 0-.962 0v6.047a.48.48 0 0 0 .962 0zm-8.756 4.855v-6.046a.482.482 0 0 0-.963 0v6.048a.48.48 0 0 0 .963 0zm-8.758 12.53v-13.72a.48.48 0 0 0-.962 0v13.72a.48.48 0 0 0 .962 0zm-8.754-2.82v-6.045a.483.483 0 0 0-.965 0v6.048a.484.484 0 0 0 .967 0zM115.6 77.77l8.94-5c.235-.13.46-.403.63-.734.175-.35.286-.75.286-1.12 0-.218-.037-.384-.1-.495l-.01-.02a.27.27 0 0 0-.07-.076.122.122 0 0 0-.067-.017.414.414 0 0 0-.2.063l-8.94 5c-.24.13-.46.402-.63.733-.178.348-.29.75-.29 1.122 0 .215.037.38.1.495l.013.02c.02.036.045.063.07.077a.106.106 0 0 0 .066.018c.053 0 .12-.022.2-.065zm1.693-56.76c-1.36 0-2.464.62-2.464 1.387 0 .674.85 1.234 1.976 1.36v2.6c-1.906-.065-3.613-.524-4.87-1.232-1.276-.72-2.067-1.685-2.067-2.728 0-1.04.79-2.007 2.07-2.727 1.36-.766 3.252-1.24 5.352-1.24 2.1 0 3.99.475 5.352 1.24 1.277.72 2.067 1.686 2.067 2.727 0 1.043-.79 2.01-2.066 2.728-1.258.708-2.965 1.167-4.87 1.233v-2.6c1.128-.127 1.98-.688 1.98-1.36 0-.767-1.104-1.388-2.462-1.388zM35.746 38.09c1.36 0 2.46.62 2.46 1.386 0 .673-.85 1.232-1.978 1.36v2.6c1.906-.068 3.614-.525 4.87-1.232 1.276-.72 2.07-1.687 2.07-2.728 0-1.042-.794-2.007-2.07-2.73-1.362-.766-3.253-1.24-5.353-1.24-2.1 0-3.99.475-5.353 1.24-1.278.723-2.067 1.688-2.067 2.73 0 1.04.79 2.007 2.067 2.728 1.255.707 2.965 1.164 4.87 1.232v-2.6c-1.13-.128-1.98-.688-1.98-1.36.003-.767 1.105-1.387 2.464-1.387zM91.932 7.31c-1.358 0-2.46.62-2.46 1.386 0 .672.85 1.233 1.978 1.36v2.6c-1.904-.065-3.613-.525-4.87-1.233-1.276-.72-2.067-1.686-2.067-2.727s.79-2.008 2.068-2.73c1.36-.764 3.256-1.24 5.355-1.24 2.1 0 3.992.477 5.354 1.24 1.276.722 2.067 1.69 2.067 2.73s-.79 2.008-2.068 2.727c-1.258.708-2.966 1.168-4.87 1.234v-2.602c1.127-.126 1.98-.688 1.98-1.36-.003-.765-1.107-1.386-2.466-1.386zM60.74 50.314c1.36 0 2.462.623 2.462 1.39 0 .672-.853 1.23-1.98 1.357v2.604c1.906-.067 3.613-.526 4.87-1.233 1.278-.72 2.067-1.685 2.067-2.725 0-1.043-.79-2.008-2.07-2.73-1.36-.766-3.25-1.24-5.35-1.24s-3.995.475-5.356 1.24c-1.278.722-2.068 1.687-2.068 2.73 0 1.04.79 2.007 2.068 2.727 1.256.71 2.964 1.168 4.868 1.235v-2.602c-1.127-.126-1.978-.686-1.978-1.358.002-.766 1.105-1.39 2.464-1.39zm33.07-4.062l15.74-8.812.84-.47 4.96-2.775 2.963-1.658 8.03-4.495 1.303-.73c1.578-.882 2.682-1.935 3.294-3.03.363-.645.555-1.31.572-1.967a3.693 3.693 0 0 0-.48-1.927c-.44-.784-1.178-1.497-2.223-2.08L98.67 1.438C96.746.36 94.09-.102 91.362.018c-2.716.12-5.517.82-7.747 2.067L24.708 35.062c-1.577.882-2.683 1.935-3.294 3.028-.362.646-.554 1.312-.572 1.97-.02.666.14 1.315.482 1.925.44.785 1.178 1.498 2.223 2.082l1.998 1.12 12.26 6.862 2.96 1.655L51.81 59.89l1.874 1.046c1.75.982 4.107 1.453 6.572 1.438l.968-.03c2.642-.148 5.35-.843 7.517-2.058l25.07-14.033zm-32.586 18.21l-.968-.053v17.345c-1.354.13-2.387.794-2.387 1.593 0 .894 1.282 1.62 2.87 1.62s2.87-.727 2.87-1.62c0-.8-1.03-1.465-2.39-1.594v-17.29zm56.55-23.423v1.03l1.214.685c.346.193.812.104 1.123-.086h.005a.687.687 0 0 0 .186-.156.262.262 0 0 0 .03-.045c0-.005-.032-.01-.11-.054l-2.444-1.377zM45.32 79.612c-1.396-.77-3.334-1.087-5.33-.982-1.98.108-4.034.63-5.687 1.546-1.223.678-2.074 1.488-2.534 2.324a3.2 3.2 0 0 0-.417 1.436c-.016.488.1.963.348 1.406.318.576.856 1.095 1.618 1.515 1.394.768 3.33 1.086 5.327.98 1.98-.105 4.035-.63 5.686-1.545 1.224-.676 2.075-1.486 2.536-2.325.26-.47.397-.953.412-1.435.016-.484-.1-.96-.347-1.405-.317-.574-.854-1.09-1.614-1.51zm.775 1.98c-.23-.418-.644-.807-1.24-1.137-1.235-.68-2.988-.96-4.815-.863-1.842.098-3.748.58-5.27 1.424-1.055.586-1.78 1.263-2.156 1.947-.187.34-.286.674-.295.996-.01.316.06.623.222.913.232.418.644.806 1.24 1.136 1.236.68 2.988.96 4.816.863 1.84-.1 3.747-.582 5.267-1.425 1.057-.588 1.78-1.266 2.156-1.948.19-.338.288-.676.298-.995a1.742 1.742 0 0 0-.225-.912zm83.447-11.627l7.765-4.348c.236-.135.46-.406.63-.738.178-.348.287-.75.287-1.12 0-.217-.036-.383-.1-.497a.297.297 0 0 0-.08-.096l-.015-.01a.142.142 0 0 0-.056-.01c-.054 0-.12.02-.198.064l-7.765 4.348c-.237.134-.46.405-.63.737-.177.348-.286.75-.286 1.12 0 .216.036.384.1.497l.01.02a.3.3 0 0 0 .07.08.16.16 0 0 0 .067.014v.002a.45.45 0 0 0 .2-.065zm8.236-3.508c.403-.228.763-.647 1.014-1.14.245-.48.398-1.038.398-1.56 0-.385-.083-.713-.225-.967a1.21 1.21 0 0 0-.452-.464 1.056 1.056 0 0 0-.537-.143c-.216 0-.44.06-.67.188l-7.765 4.348c-.402.226-.76.646-1.012 1.14a3.517 3.517 0 0 0-.396 1.56c0 .382.083.712.225.967.007.01.015.02.02.03.103.17.232.308.386.407.177.11.374.17.585.17v-.002c.217 0 .443-.06.67-.187l7.764-4.35zm-12.768 7.15c.404-.227.765-.647 1.016-1.14a3.53 3.53 0 0 0 .396-1.558c0-.385-.08-.713-.224-.968l-.02-.032a1.21 1.21 0 0 0-.388-.406 1.083 1.083 0 0 0-.582-.17c-.213 0-.44.06-.668.188l-8.94 5c-.407.227-.766.646-1.02 1.14a3.55 3.55 0 0 0-.394 1.56c0 .383.08.71.222.965l.02.033c.104.17.233.307.388.404.176.113.373.173.584.173.213 0 .438-.06.668-.187l8.942-5zm-13.506 35.34l-7.553-4.228c-1.815-1.018-4.336-1.463-6.94-1.363-2.61.104-5.29.76-7.402 1.94L41.74 132.06l7.552 4.23c1.816 1.018 4.34 1.46 6.94 1.36 2.613-.103 5.292-.755 7.404-1.94l47.868-26.76zM46.03 144.03L5.537 121.366c-1.17-.654-2.05-1.432-2.64-2.283v30.9c.002.8.263 1.588.782 2.318.514.73 1.29 1.4 2.33 1.98l40.494 22.67c2.4 1.344 5.732 1.936 9.16 1.8 3.44-.132 6.967-.995 9.752-2.554L145 131.646c1.522-.85 2.662-1.82 3.41-2.834.75-1.014 1.098-2.068 1.04-3.08V95.13c-.836 1.34-2.24 2.628-4.195 3.722L66.103 143.16c-2.976 1.664-6.713 2.596-10.337 2.76-3.637.162-7.176-.455-9.735-1.887z"/></svg>