<svg xmlns="http://www.w3.org/2000/svg" width="210" height="210" viewBox="-24.189 -14.935 210 210" overflow="visible"><path class="icon-bg" fill-rule="evenodd" clip-rule="evenodd" fill="#ECEDED" d="M107.102 70.986l26.172-15.744v22.252c-1.737-.014-3.483.374-4.796 1.164-1.24.747-1.84 1.688-1.8 2.623.037.828.575 1.65 1.61 2.325l.19.12c2.583 1.552 6.833 1.552 9.417 0 1.2-.725 1.802-1.63 1.802-2.534v4.594c0 .904-.602 1.81-1.802 2.53-2.584 1.555-6.834 1.555-9.418 0-1.2-.722-1.803-1.626-1.803-2.53v-1.21l-2.453 1.477c-2.6-1.154-6.32-1.025-8.67.387-1.203.725-1.803 1.63-1.8 2.537v.092l.004.078v.003c.008.083.02.164.038.244.15.714.67 1.407 1.57 1.99.06.04.125.08.188.12 2.587 1.555 6.835 1.555 9.418 0 1.197-.72 1.8-1.622 1.803-2.525v4.588c0 .904-.6 1.81-1.803 2.53-2.583 1.556-6.83 1.556-9.418 0-1.2-.722-1.8-1.626-1.8-2.53v-1.208l-2.77 1.666c-1.147-.51-2.51-.77-3.878-.78-1.735-.013-3.48.376-4.795 1.166-2.337 1.406-2.398 3.502-.187 4.945h-.002c.062.04.124.08.188.118 2.583 1.555 6.834 1.555 9.418 0 1.2-.723 1.802-1.627 1.802-2.53v4.592c0 .903-.602 1.807-1.8 2.53-2.585 1.554-6.836 1.554-9.42 0-1.2-.72-1.8-1.627-1.8-2.53v-1.21l-2.455 1.477c-2.6-1.156-6.325-1.027-8.67.385-2.34 1.407-2.402 3.503-.19 4.946l.078.05.11.067c2.583 1.556 6.835 1.556 9.417 0l.11-.067.107-.07c.036-.022.07-.046.104-.07l.1-.07c.034-.024.065-.05.098-.073.033-.024.063-.05.094-.074l.092-.07c.027-.026.057-.05.083-.076l.086-.075c.02-.024.047-.047.07-.07l.005-.01.01-.007.066-.068.075-.08.067-.075a.973.973 0 0 1 .064-.08c.02-.025.036-.05.054-.07l.01-.01.005-.01.047-.063.008-.01.004-.01c.016-.023.03-.05.047-.07.016-.024.03-.05.046-.072l.004-.01.007-.01.036-.062.007-.01.006-.013.038-.07.036-.072.005-.01.007-.01.03-.073.03-.07.003-.013.004-.01c.01-.024.02-.048.026-.073.006-.027.016-.05.02-.075l.005-.012.004-.012.016-.06.006-.013.003-.012.015-.074c.006-.022.01-.05.014-.073v-.01l.003-.01.01-.062v-.012l.003-.01.007-.075s.004-.048.004-.07l.003-.014v-.086 4.595c0 .904-.6 1.81-1.8 2.532-2.58 1.553-6.833 1.553-9.415 0-1.2-.723-1.802-1.628-1.802-2.532v-1.208l-6.647 3.996V37.04L107.1 21.3v15.06c-.16 0-.323.004-.483.01v7.376c1.854.072 3.748-.312 5.153-1.157 1.2-.725 1.8-1.63 1.8-2.53v4.59c0 .902-.6 1.807-1.8 2.53-1.282.77-2.974 1.16-4.67 1.165v3.616c-.16.003-.323.007-.483.015v7.37c1.88.086 3.81-.3 5.23-1.155 1.202-.723 1.802-1.627 1.802-2.53v4.59c0 .906-.6 1.81-1.804 2.53-1.3.786-3.025 1.174-4.748 1.168v7.04zm-52.344 49.55V96.378l-26.17 15.744v24.16l26.17-15.743zM22.128 93.56v-4.59c0 .904-.6 1.81-1.8 2.53-2.583 1.556-6.834 1.556-9.417 0-1.2-.722-1.8-1.626-1.8-2.53v4.594c0 .904.6 1.81 1.8 2.53 2.586 1.556 6.837 1.556 9.42 0 1.2-.722 1.8-1.626 1.8-2.53zm32.63-8.426c-1.69-.008-3.382-.396-4.662-1.165-1.2-.726-1.8-1.63-1.8-2.534v4.592c0 .902.6 1.807 1.8 2.53 1.28.77 2.97 1.16 4.662 1.164v-4.59zm0-15.602c-1.72.005-3.44-.384-4.74-1.166-1.203-.722-1.803-1.626-1.803-2.53v4.592c0 .904.6 1.81 1.803 2.53 1.3.782 3.02 1.17 4.74 1.167V69.53zm-6.45 8.673c0 .904-.6 1.81-1.802 2.53-2.584 1.555-6.834 1.555-9.418 0-1.2-.722-1.8-1.626-1.8-2.53V73.62v.066l.002.02c0 .02.002.044.005.067v.017l.007.068v.014c.006.024.008.048.013.073v.007l.002.005.014.07.005.008v.006l.018.07v.01l.003.005.02.076h.002v.008c.01.025.017.05.025.077l.002.007.025.067.007.02c.01.025.018.05.028.072v.003l.004.004.03.07.003.01v.003l.04.08.002.004.037.07.006.006.002.004.04.074.003.006.002.003c.017.024.032.05.05.076l.002.003.05.075v.003l.002.002c.02.023.034.05.053.072l.005.004v.003l.058.072.003.003.002.004c.02.024.04.05.063.075v.002l.063.07.006.006v.004l.002.002.068.073h.004c.02.026.046.05.07.075l.003.004.074.066.004.006.083.076h.003c.025.022.053.045.08.07l.004.003c.03.024.06.05.09.073v.002l.092.072.095.07c.032.024.064.048.097.07h.006v.003c.033.023.068.045.104.068.035.02.07.046.105.07.037.022.072.044.11.07 2.584 1.552 6.834 1.552 9.42 0 .035-.026.072-.048.11-.07.036-.023.07-.047.104-.068V76c.037-.022.07-.044.105-.067v-.002h.006l.096-.07.096-.07h.002l.09-.07.003-.003c.03-.022.06-.05.087-.07v-.002l.007-.004.08-.07h.003c.025-.027.052-.05.08-.076l.005-.006.074-.068.003-.005.074-.075h.002l.07-.075v-.004l.008-.003.06-.07.003-.002a.86.86 0 0 0 .062-.076l.002-.005.004-.002.06-.072.002-.002.005-.006c.02-.023.037-.05.052-.072v-.002l.003-.003.05-.076.004-.004.05-.077.002-.004v-.005l.042-.074.002-.005.004-.006.038-.07.003-.005c.013-.027.024-.053.04-.078v-.002l.004-.01.03-.07.003-.004v-.004l.03-.073.007-.02.022-.067.003-.004c.007-.027.017-.054.022-.08l.003-.005a.364.364 0 0 0 .02-.077l.003-.004v-.01c.008-.02.013-.047.02-.07v-.013l.015-.07v-.005l.003-.006c.002-.026.008-.05.01-.075l.002-.006v-.01a.37.37 0 0 1 .007-.068v-.017l.006-.067v-.02l.003-.065v4.585h-.006zm-13.262 15.4v-4.59c0 .904.6 1.807 1.8 2.53 2.585 1.554 6.835 1.554 9.418 0 1.202-.724 1.802-1.626 1.802-2.53v4.59c0 .906-.602 1.81-1.802 2.533-2.583 1.554-6.833 1.554-9.417 0-1.2-.722-1.8-1.626-1.8-2.532zm.092 7.778c0 .905-.6 1.81-1.8 2.533-2.585 1.554-6.835 1.554-9.42 0-1.2-.723-1.802-1.628-1.802-2.533v-4.578c.008.9.607 1.8 1.803 2.518 2.582 1.555 6.832 1.555 9.416 0 1.2-.723 1.8-1.627 1.8-2.53v4.59zm-.078-15.6c0 .904-.603 1.81-1.804 2.53-2.583 1.555-6.834 1.555-9.418 0-1.2-.722-1.8-1.626-1.8-2.53V81.19c0 .903.6 1.81 1.8 2.532 2.584 1.553 6.835 1.553 9.418 0 1.2-.724 1.803-1.63 1.803-2.533v4.59zm124.292 43.672l-78.468 47.203-78.468-47.203v-6.904l78.468 47.206 78.468-47.203v6.905zm.045-8.918v-24.16l-52.344 31.488v24.16l52.344-31.488zm-6.693-26.93v-4.594c0 .906-.6 1.81-1.802 2.533-2.584 1.553-6.835 1.553-9.42 0-1.2-.725-1.8-1.627-1.8-2.533v4.593c0 .905.6 1.81 1.8 2.532 2.585 1.554 6.836 1.554 9.42 0 1.202-.722 1.802-1.626 1.802-2.532zm-12.93 7.776v-4.59c0 .902-.6 1.807-1.802 2.53-2.582 1.554-6.833 1.554-9.417 0-1.2-.724-1.8-1.628-1.8-2.53v4.59c0 .905.6 1.81 1.8 2.533 2.584 1.554 6.835 1.554 9.417 0 1.202-.723 1.802-1.628 1.802-2.533zm-26.263 7.968c0 .907.605 1.81 1.806 2.535 2.584 1.553 6.833 1.553 9.417 0 1.2-.724 1.802-1.628 1.802-2.532v-4.59c0 .902-.602 1.807-1.8 2.53-2.585 1.554-6.834 1.554-9.418 0-1.2-.724-1.803-1.628-1.803-2.53v4.59zm.095 7.78v-4.593c0 .905-.6 1.81-1.8 2.53-2.583 1.556-6.834 1.556-9.418 0-1.197-.72-1.798-1.622-1.802-2.522v4.584c0 .904.6 1.81 1.802 2.532 2.584 1.553 6.835 1.553 9.418 0 1.2-.72 1.8-1.627 1.8-2.532zM87.48 26.304v-4.592c0 .904-.6 1.81-1.8 2.53-2.585 1.556-6.836 1.556-9.418 0-1.204-.722-1.804-1.626-1.804-2.53v4.592c0 .906.6 1.81 1.804 2.533 2.582 1.552 6.833 1.552 9.417 0 1.2-.723 1.8-1.627 1.8-2.533zm12.928-7.778v-4.592c0 .904-.6 1.81-1.803 2.53-2.584 1.556-6.832 1.556-9.416 0-1.2-.72-1.8-1.62-1.806-2.523v4.585c0 .906.602 1.81 1.803 2.533 2.583 1.553 6.83 1.553 9.415 0 1.203-.722 1.803-1.626 1.803-2.533zM87.4 10.705c0 .902-.6 1.807-1.802 2.53-2.583 1.555-6.833 1.555-9.418 0-1.198-.724-1.8-1.628-1.8-2.53V6.11c0 .906.602 1.81 1.8 2.532 2.585 1.555 6.835 1.555 9.418 0 1.2-.72 1.8-1.62 1.802-2.524v4.587zM74.473 18.48c0 .906-.602 1.81-1.8 2.53-2.585 1.556-6.835 1.556-9.418 0-1.202-.72-1.802-1.624-1.802-2.53v-4.593c0 .905.6 1.81 1.802 2.532 2.583 1.552 6.833 1.552 9.417 0 1.2-.725 1.8-1.63 1.8-2.535v4.594zm52.105 33.993V47.88c0 .904-.6 1.81-1.8 2.53-2.583 1.555-6.836 1.555-9.418 0-1.198-.72-1.798-1.62-1.802-2.523v4.586c0 .903.6 1.81 1.803 2.53 2.584 1.555 6.837 1.555 9.42 0 1.2-.722 1.8-1.627 1.8-2.53z"/><path class="icon-border" fill-rule="evenodd" clip-rule="evenodd" fill="#A1A4A7" d="M115.986 40.496v1.54l.425.255c1.36-.4 2.85-.57 4.3-.5 1.908.09 3.8.588 5.307 1.495.887.532 1.573 1.16 2.06 1.846.606.848.91 1.768.92 2.71v2.02l5.516 3.318a2.41 2.41 0 0 1 1.172 2.064h.008V75.32c.23.042.456.092.68.15.987.246 1.928.622 2.762 1.125.886.533 1.575 1.16 2.063 1.846.606.85.908 1.783.908 2.75h.01v1.98l.426.256a13.14 13.14 0 0 1 4.297-.5c1.905.088 3.796.586 5.3 1.492.888.532 1.576 1.16 2.064 1.846.54.758.84 1.582.897 2.436.014.103.02.207.02.313v1.98l5.353 3.22a2.41 2.41 0 0 1 1.34 2.163c0 11.086-.045 22.055-.045 33.078 0 .947-.547 1.768-1.342 2.164L82.12 178.72c-.802.48-1.77.44-2.514-.025l-.026-.016-78.4-47.16a2.403 2.403 0 0 1-1.17-2.066H0V96.378c0-.94.538-1.754 1.323-2.153l5.37-3.165v-2.092l.002-.03c.01-1.74 1.004-3.378 2.98-4.565 1.552-.936 3.52-1.434 5.494-1.5 1.49-.05 3.02.15 4.392.6l.06-.033v-2.248c0-.957.305-1.89.918-2.75.487-.686 1.176-1.312 2.063-1.846 1.582-.95 3.598-1.453 5.61-1.503 1.524-.038 3.076.182 4.462.657l.197-.116v-2.02c0-.958.307-1.892.918-2.753.488-.68 1.177-1.31 2.063-1.843 1.54-.926 3.486-1.426 5.44-1.498 1.48-.056 2.995.135 4.368.57l.14-.08v-2.174c0-.957.31-1.89.92-2.752.486-.685 1.176-1.312 2.06-1.846a10.17 10.17 0 0 1 2.828-1.14c.242-.06.486-.112.735-.156V21.3c0-.95.55-1.77 1.344-2.165l5.352-3.22V13.87c.004-.948.31-1.876.917-2.73.488-.686 1.178-1.31 2.063-1.847 1.513-.91 3.42-1.407 5.34-1.492a13.14 13.14 0 0 1 4.31.52l.3-.18V6.11c0-.957.302-1.89.915-2.75.487-.686 1.177-1.312 2.062-1.847C76.28.713 77.91.23 79.58.063c.434-.04.87-.063 1.31-.063 2.114 0 4.267.505 5.944 1.514.89.535 1.578 1.164 2.065 1.85.604.855.905 1.79.902 2.754h.012v1.975l.425.256c1.355-.405 2.847-.57 4.3-.505 1.902.09 3.796.588 5.3 1.494.888.53 1.577 1.16 2.064 1.845.606.854.914 1.78.918 2.733v1.996l5.514 3.317a2.4 2.4 0 0 1 1.172 2.068h.006v12.876c.235.043.467.094.697.15 1.004.25 1.955.627 2.796 1.132l.005.005.003-.004c.876.528 1.563 1.157 2.055 1.85.53.745.828 1.554.893 2.388.02.273.02.527.02.8zm23.228 43.178v-.365l-.238.22-.85.613c-1.366.816-3.156 1.227-4.94 1.227-1.764 0-3.538-.4-4.9-1.202l-.855-.61a4.64 4.64 0 0 1-.27-.25v2.477c0 .357.128.724.377 1.074.26.366.66.72 1.19 1.04 1.215.73 2.834 1.096 4.462 1.096s3.246-.365 4.46-1.096c.53-.32.928-.673 1.19-1.042.25-.352.375-.718.375-1.075V83.67zM81.13 170.358a.473.473 0 0 1-.497-.003l-77.735-46.97v5.8l77.985 46.91 77.984-46.91v-5.668l-77.736 46.84zM2.435 122.004l-.018-.077v.087l.018-.01zm130.84-66.2l-25.69 15.454V92.77c1.176.056 2.337.293 3.357.708l2.323-1.398v-3.112c0-.48.138-.958.412-1.414.335-.558.878-1.08 1.625-1.53 1.37-.823 3.168-1.235 4.954-1.235 1.37 0 2.745.24 3.93.722l2.008-1.21V81.19c0-.48.137-.956.41-1.413.336-.557.88-1.08 1.627-1.53 1.368-.822 3.168-1.235 4.957-1.235h.087V55.805zm26.083 66.176l-.006.033.007.004v-.037zM28.77 138.034l52.113 31.35 25.88-15.57-52.2-31.487-25.792 15.707zM2.9 120.004l25.093 15.12.113-.067v-22.664L2.898 97.23v22.773zm26.17 14.463l23.45-14.28V98.572l-23.45 13.823v22.07zm26.174-15.114l.066.042L80.4 134.53v-22.167L55.242 97.23v22.123zm26.17 15.788l25.157 15.18v-22.18l-6.48-3.9-18.676-11.236v22.138zm26.124 15.76l.157.094 51.222-30.883V97.23l-51.38 30.907V150.9zM8.626 93.277l-5.27 3.105 25.23 15.18 23.934-14.4v-7.185c-.975-.2-1.893-.537-2.67-1.006-.65-.39-1.145-.836-1.483-1.31-.37-.52-.555-1.076-.555-1.635v-4.592c0-.48.136-.958.412-1.415.335-.558.878-1.082 1.625-1.53.775-.47 1.693-.804 2.67-1.007v-3.09c-1.006-.2-1.95-.54-2.75-1.02-.625-.375-1.105-.8-1.44-1.25.02.022.032.05.05.076.272.457.41.935.41 1.415v4.593c0 .56-.186 1.113-.557 1.634-.337.475-.83.92-1.48 1.31-1.37.824-3.168 1.236-4.957 1.236-1.776 0-3.562-.406-4.928-1.22a.228.228 0 0 1-.03-.017c-.648-.39-1.14-.834-1.48-1.31-.37-.52-.556-1.074-.556-1.634v-.357l-1.004.592c.597.405 1.04.86 1.33 1.34.27.453.41.927.41 1.402v4.605c0 .56-.184 1.11-.556 1.633-.337.475-.83.92-1.482 1.31-1.367.823-3.165 1.236-4.955 1.236s-3.586-.412-4.955-1.235c-.623-.375-1.104-.798-1.438-1.25l.047.076c.275.456.413.935.413 1.414v4.593c0 .558-.186 1.113-.556 1.633-.34.475-.833.92-1.483 1.31-1.37.823-3.165 1.237-4.954 1.237-1.79 0-3.586-.415-4.955-1.237-.65-.39-1.145-.836-1.482-1.31-.37-.52-.556-1.075-.556-1.634v-.286zm12.93-7.62l-.808.476c.54.348.963.736 1.268 1.147-.307-.48-.46-.984-.46-1.493v-.13zm26.176-15.43l-.866.51c.567.357 1.01.758 1.326 1.186-.306-.48-.46-.982-.46-1.492v-.202zM33.09 94.676c-1.216-.73-2.836-1.098-4.463-1.098s-3.248.365-4.463 1.096c-.605.364-1.037.773-1.293 1.197-.18.306-.27.616-.27.925 0 .307.09.616.27.92.26.423.69.832 1.296 1.197 1.215.73 2.836 1.097 4.463 1.097s3.246-.366 4.46-1.097c.606-.364 1.038-.773 1.29-1.197.184-.303.274-.612.274-.92 0-.308-.09-.618-.272-.92-.252-.425-.684-.834-1.29-1.198zM20.08 86.85c-1.213-.73-2.834-1.097-4.46-1.097-1.628 0-3.25.365-4.463 1.095-.606.365-1.037.772-1.293 1.197-.18.3-.27.613-.27.92 0 .308.09.617.27.92.256.425.687.834 1.293 1.2 1.214.728 2.835 1.095 4.463 1.095 1.626 0 3.247-.366 4.46-1.096.607-.367 1.04-.774 1.295-1.2.18-.302.27-.61.27-.92 0-.306-.09-.618-.27-.92-.255-.424-.687-.83-1.294-1.197zm14.573 14.532V98.91a5.47 5.47 0 0 1-1.07.826c-1.37.823-3.167 1.235-4.956 1.235s-3.588-.41-4.955-1.232a5.565 5.565 0 0 1-1.072-.826v2.474c0 .36.125.726.374 1.076.263.368.66.724 1.19 1.042 1.215.73 2.836 1.096 4.463 1.096s3.247-.365 4.462-1.096c.53-.318.924-.674 1.186-1.043.25-.352.375-.716.375-1.077zm.966-4.59v-.014l-.004-.003c0-.477-.14-.948-.41-1.4-.017-.025-.032-.053-.05-.08.336.454.816.88 1.44 1.254 1.37.823 3.166 1.234 4.956 1.234 1.79 0 3.586-.41 4.955-1.235.65-.39 1.144-.835 1.48-1.31.372-.52.558-1.075.558-1.635v-4.59c0-.483-.14-.96-.414-1.417-.333-.56-.875-1.08-1.624-1.53-1.37-.825-3.167-1.237-4.956-1.237-1.79 0-3.585.413-4.954 1.237-.75.45-1.29.972-1.627 1.53-.267.437-.4.9-.41 1.367v4.638c0 .51.15 1.02.46 1.498-.338-.454-.818-.882-1.44-1.257-1.37-.823-3.17-1.236-4.958-1.236s-3.588.413-4.955 1.236c-.75.45-1.292.973-1.627 1.53-.273.455-.41.935-.41 1.415v4.592c0 .562.185 1.116.555 1.636.337.475.83.92 1.482 1.31 1.368.823 3.166 1.235 4.955 1.235s3.586-.41 4.955-1.232c.648-.39 1.145-.836 1.483-1.31.368-.52.554-1.075.554-1.636v-4.587zM21.643 93.56v-2.474c-.29.293-.648.57-1.072.826-1.37.823-3.165 1.236-4.954 1.236-1.79 0-3.588-.413-4.957-1.236a5.488 5.488 0 0 1-1.07-.826v2.475c0 .36.124.726.373 1.077.263.37.66.723 1.19 1.043 1.215.73 2.836 1.095 4.464 1.095 1.625 0 3.246-.365 4.46-1.096.53-.32.93-.676 1.192-1.045.247-.352.372-.715.372-1.074zm.874-10.25v2.474c0 .357.124.724.374 1.074.264.37.658.723 1.19 1.043 1.218.73 2.838 1.1 4.464 1.1 1.628 0 3.248-.365 4.46-1.096.533-.32.93-.673 1.193-1.042.25-.35.372-.717.372-1.074V83.31c-.29.294-.647.57-1.072.824-1.366.823-3.164 1.237-4.954 1.237s-3.586-.41-4.955-1.234a5.49 5.49 0 0 1-1.07-.825zm25.303-5.107v-2.475a5.44 5.44 0 0 1-1.07.826c-1.37.822-3.167 1.236-4.956 1.236s-3.586-.414-4.956-1.236c-.42-.255-.78-.53-1.07-.826v2.475c0 .36.125.725.376 1.074.26.37.657.722 1.19 1.044l.025.018c1.212.72 2.82 1.08 4.437 1.08 1.627 0 3.246-.365 4.463-1.095.53-.32.93-.674 1.19-1.043.25-.35.375-.716.375-1.075zm4.697-15.35c-.83.18-1.603.47-2.255.862-.61.366-1.04.775-1.295 1.198-.18.302-.27.612-.27.92 0 .308.09.617.27.92l.015.024c.258.414.686.816 1.28 1.174.653.398 1.427.685 2.255.866v-5.962zm0 6.946c-1.005-.2-1.95-.54-2.75-1.024a5.374 5.374 0 0 1-1.07-.826v2.476c0 .36.124.725.373 1.076.262.37.66.723 1.192 1.042.652.394 1.426.682 2.254.864V69.8zm0 15.585c-.976-.205-1.894-.54-2.67-1.008a5.46 5.46 0 0 1-1.073-.827v2.476c0 .36.125.725.374 1.076.265.37.66.723 1.19 1.04.636.384 1.38.665 2.18.847v-3.605zm0-6.915c-.8.18-1.544.465-2.178.846-.608.365-1.04.775-1.295 1.2-.182.3-.272.61-.272.92 0 .306.09.616.27.918.258.425.69.833 1.296 1.2.633.38 1.38.662 2.176.844V78.47zm-16.99 15.137c0 .36.124.726.372 1.075.263.37.66.726 1.192 1.046 1.213.73 2.834 1.095 4.46 1.095s3.246-.364 4.46-1.093c.534-.322.932-.678 1.193-1.045.25-.35.374-.715.374-1.074v-2.473c-.29.295-.647.572-1.07.826-1.37.823-3.168 1.236-4.957 1.236-1.776 0-3.562-.41-4.93-1.22-.008-.006-.02-.01-.028-.018a5.51 5.51 0 0 1-1.07-.827v2.476zm-2.52-14.534c-1.213-.73-2.833-1.096-4.46-1.096-1.628 0-3.247.364-4.46 1.096-.61.365-1.04.773-1.295 1.198a1.773 1.773 0 0 0-.273.92c0 .31.09.62.272.92.254.425.686.834 1.293 1.2 1.215.73 2.834 1.095 4.46 1.095 1.63 0 3.25-.365 4.462-1.096.607-.366 1.04-.775 1.295-1.198.182-.3.27-.61.27-.92 0-.307-.09-.617-.27-.92-.256-.423-.688-.83-1.295-1.197zm13.226-7.594c-1.21-.72-2.82-1.08-4.438-1.08-1.627 0-3.246.363-4.462 1.094-.606.365-1.038.775-1.292 1.2-.18.3-.272.61-.272.92 0 .306.09.618.27.917.255.427.687.835 1.293 1.2 1.217.73 2.836 1.096 4.463 1.096 1.63 0 3.248-.364 4.463-1.096.605-.367 1.036-.775 1.292-1.2.182-.304.273-.614.273-.92 0-.31-.09-.62-.272-.92-.254-.423-.687-.832-1.295-1.2l-.023-.013zm-.218 15.417c-1.213-.73-2.834-1.096-4.46-1.096s-3.25.366-4.462 1.097c-.608.365-1.04.773-1.294 1.197a1.78 1.78 0 0 0-.275.92h.002c0 .31.09.62.27.92.257.425.688.834 1.297 1.2l.024.014c1.21.722 2.817 1.08 4.434 1.08 1.627 0 3.248-.364 4.46-1.095.608-.365 1.04-.773 1.296-1.198.18-.3.272-.612.272-.92 0-.308-.09-.618-.27-.92-.257-.424-.69-.832-1.296-1.198zm61.57-50.042v6.402c1.242-.06 2.453-.334 3.46-.822l.93-.564c.373-.28.656-.584.84-.894.183-.302.275-.613.275-.92s-.09-.62-.273-.922c-.253-.422-.684-.832-1.29-1.195-1.087-.655-2.493-1.015-3.94-1.085zm0 7.37v3.624c1.447-.07 2.854-.433 3.94-1.083.528-.32.925-.674 1.188-1.043.25-.35.377-.715.377-1.075v-2.476c-.074.075-.152.15-.235.224l-.852.612c-1.233.736-2.812 1.14-4.416 1.214zm0 4.592v2.67c1.638.06 3.255.47 4.512 1.227.624.375 1.104.8 1.44 1.256a2.74 2.74 0 0 1-.462-1.498v-4.606c.002-.477.142-.95.413-1.402.333-.557.876-1.08 1.62-1.53l.047-.026-1.103-.665v.403c0 .56-.187 1.114-.557 1.634-.336.475-.832.92-1.48 1.31-1.236.744-2.82 1.15-4.432 1.224zm0 3.637v6.408c1.474-.06 2.914-.42 4.017-1.084.607-.365 1.037-.775 1.294-1.2.18-.3.27-.61.27-.92 0-.306-.09-.618-.27-.92-.257-.424-.687-.83-1.294-1.196-1.103-.665-2.542-1.027-4.017-1.087zm0 7.375v3.624c1.474-.06 2.914-.422 4.017-1.086.53-.32.93-.675 1.192-1.043.25-.35.374-.717.374-1.076v-2.474c-.296.293-.65.57-1.073.826-1.257.757-2.874 1.17-4.512 1.23zm0 4.59v5.715l24.753-14.892-5.28-3.174v.403c0 .56-.183 1.114-.555 1.633-.336.475-.83.92-1.48 1.31-1.368.826-3.167 1.236-4.957 1.236-1.788 0-3.588-.41-4.957-1.233-.623-.377-1.105-.8-1.44-1.256a.82.82 0 0 1 .05.082c.272.453.41.924.413 1.4v4.606c0 .56-.186 1.113-.555 1.635-.34.473-.83.92-1.48 1.31-1.26.755-2.877 1.164-4.515 1.227zm-.968 28.34V71.84L81.413 87v24.24l5.68-3.416v-3.114c0-.47.13-.938.396-1.386 0-.01.01-.02.016-.03.333-.554.876-1.077 1.624-1.528 1.37-.822 3.167-1.235 4.957-1.235 1.37 0 2.742.245 3.925.728l2.01-1.208v-3.132c.002-.475.142-.945.413-1.396.336-.557.878-1.08 1.623-1.528 1.267-.765 2.902-1.175 4.558-1.232zm0-22.044V46.393L81.413 61.556V85.88l24.977-15.03.228-.137zm0-25.445V22.15l-2.056 1.24v-.002L81.41 37.314v23.12l25.21-15.164zm18.365 4.424c.372-.282.653-.584.84-.893.183-.302.274-.614.274-.92 0-.31-.092-.62-.274-.92-.254-.426-.685-.833-1.29-1.197-1.217-.73-2.834-1.097-4.465-1.097-.965 0-1.927.127-2.804.385l-1.146.437a6.1 6.1 0 0 0-.513.276c-.605.364-1.037.77-1.292 1.196a1.77 1.77 0 0 0-.273.92c0 .306.09.62.272.92.255.424.687.833 1.292 1.198 1.216.73 2.834 1.097 4.462 1.097 1.423 0 2.838-.28 3.984-.837l.934-.564zm1.115.67V50l-.237.224-.85.612c-1.365.816-3.157 1.227-4.94 1.227-1.787 0-3.587-.412-4.956-1.235a5.48 5.48 0 0 1-1.07-.826v2.474c0 .36.125.723.376 1.075.262.37.657.725 1.187 1.04 1.216.73 2.834 1.1 4.462 1.1 1.63 0 3.245-.366 4.46-1.097.53-.317.928-.673 1.19-1.04.25-.354.377-.717.377-1.076v-2.11zm15.185 35.68l-1.104-.664v.402c0 .56-.188 1.11-.558 1.633-.338.475-.833.92-1.48 1.31-1.37.823-3.168 1.236-4.957 1.236s-3.59-.41-4.956-1.234c-.625-.374-1.105-.8-1.443-1.252a2.742 2.742 0 0 1 .462 1.493v4.593c0 .56-.185 1.112-.555 1.632-.337.475-.83.92-1.48 1.31-1.37.823-3.167 1.237-4.96 1.237-1.785 0-3.583-.416-4.953-1.238-.65-.39-1.143-.836-1.48-1.31-.37-.52-.556-1.075-.556-1.634V93.2l-1.3.783.007.004c.748.446 1.292.97 1.627 1.53.27.45.408.923.41 1.4v4.605c0 .56-.184 1.114-.554 1.634-.34.474-.832.92-1.482 1.31-1.367.824-3.165 1.236-4.955 1.236-1.788 0-3.586-.412-4.956-1.237-.623-.375-1.103-.8-1.438-1.25l.045.076c.276.456.413.935.413 1.414v4.593c0 .56-.186 1.112-.554 1.633-.34.476-.832.92-1.484 1.31-1.366.825-3.163 1.236-4.953 1.236s-3.59-.41-4.957-1.235c-.65-.39-1.144-.834-1.48-1.31-.37-.52-.557-1.074-.557-1.633v-.358l-5.274 3.175 14.336 8.628 10.896 6.554 51.41-30.926-5.277-3.173v.403c0 .56-.187 1.114-.558 1.634-.338.475-.83.92-1.48 1.31-1.368.825-3.168 1.236-4.956 1.236-1.777 0-3.56-.407-4.927-1.218l-.032-.02c-.62-.373-1.097-.798-1.436-1.25l.05.077c.27.45.407.923.41 1.4v4.606c0 .56-.185 1.115-.555 1.635-.34.478-.834.923-1.48 1.31h-.003c-1.366.824-3.166 1.236-4.956 1.236-1.785 0-3.583-.412-4.953-1.234-.65-.392-1.146-.837-1.483-1.312-.368-.52-.554-1.074-.554-1.635v-4.59c0-.48.137-.96.41-1.415.336-.557.88-1.08 1.627-1.53 1.37-.822 3.167-1.235 4.954-1.235 1.79 0 3.59.413 4.958 1.236.625.376 1.105.8 1.442 1.256a2.747 2.747 0 0 1-.46-1.495V89c0-.475.138-.947.41-1.4.334-.557.877-1.08 1.624-1.53l.047-.027zm-3.13-1.883l-.026-.015.025.016zm-26.597 26.257c-1.216-.73-2.834-1.095-4.462-1.095s-3.25.368-4.46 1.097c-.61.366-1.04.774-1.294 1.2-.186.3-.275.61-.275.92s.09.617.274.92c.252.422.683.832 1.293 1.196 1.21.73 2.832 1.096 4.46 1.096s3.246-.365 4.462-1.097c.608-.364 1.038-.774 1.292-1.197.18-.302.272-.612.272-.92s-.093-.62-.273-.92c-.254-.425-.684-.833-1.292-1.2zm-11.442-1.112v-2.474c-.293.294-.65.57-1.073.827-1.364.823-3.162 1.234-4.952 1.234-1.766 0-3.54-.4-4.9-1.202l-.858-.607-.27-.25v2.475c0 .358.125.724.374 1.073.265.37.66.725 1.19 1.045 1.215.73 2.835 1.095 4.463 1.095s3.248-.364 4.463-1.095c.53-.32.927-.674 1.19-1.045.25-.35.374-.715.374-1.073zm-1.078-7.54l.005.002c.626.375 1.106.8 1.44 1.253-.306-.48-.46-.986-.46-1.494v-.355l-.983.594zm-.486.828c-1.216-.73-2.836-1.095-4.464-1.095s-3.248.366-4.463 1.095c-.605.365-1.035.774-1.292 1.2l-.014.022a1.76 1.76 0 0 0-.258.896c0 .31.09.62.27.92.253.426.687.835 1.292 1.2 1.215.73 2.835 1.096 4.463 1.096s3.248-.365 4.463-1.096c.603-.367 1.032-.776 1.29-1.2l.015-.023c.173-.295.26-.598.26-.897 0-.306-.092-.617-.272-.918-.257-.426-.686-.833-1.292-1.2zm14.49-1.066v-2.474a5.53 5.53 0 0 1-1.07.826c-1.37.82-3.167 1.234-4.957 1.234-1.764 0-3.537-.4-4.898-1.202l-.86-.607a8.06 8.06 0 0 1-.268-.25v2.473c0 .36.124.724.374 1.075.266.37.66.724 1.19 1.044 1.216.73 2.837 1.096 4.463 1.096 1.63 0 3.25-.366 4.463-1.097.53-.32.93-.674 1.19-1.043.25-.35.375-.713.375-1.074zm-1.564-6.71c-1.214-.732-2.834-1.096-4.463-1.096-1.626 0-3.247.364-4.462 1.097-.604.364-1.035.773-1.29 1.198-.183.3-.273.61-.273.92 0 .308.09.618.272.92.255.423.686.833 1.29 1.198 1.216.73 2.837 1.095 4.463 1.095 1.63 0 3.25-.364 4.463-1.095.606-.365 1.038-.775 1.293-1.2.18-.3.27-.61.27-.92 0-.307-.09-.618-.27-.92-.256-.422-.688-.83-1.294-1.196zm14.81-1.255V91.09c-.294.292-.65.57-1.072.825-1.37.823-3.167 1.236-4.96 1.236-1.764 0-3.534-.403-4.896-1.203l-.86-.61-.27-.25v2.475c0 .36.124.724.377 1.075.26.37.656.723 1.19 1.043 1.213.73 2.832 1.096 4.458 1.096 1.63 0 3.25-.365 4.463-1.096.53-.32.93-.674 1.19-1.043.248-.35.376-.714.376-1.073zm-1.08-7.54l.008.003c.622.376 1.103.8 1.44 1.255a2.727 2.727 0 0 1-.462-1.493v-.357l-.986.593zm-.488.83c-1.215-.73-2.836-1.095-4.465-1.095-1.626 0-3.246.365-4.458 1.095-.61.365-1.04.772-1.294 1.197a1.76 1.76 0 0 0-.27.92c0 .307.09.616.272.92.254.424.684.83 1.294 1.2 1.212.727 2.832 1.092 4.458 1.092 1.63 0 3.25-.364 4.463-1.094.607-.367 1.04-.774 1.294-1.2.183-.302.273-.61.273-.92 0-.306-.09-.618-.272-.92-.254-.424-.686-.83-1.294-1.197zm12.927-7.777c-1.215-.73-2.834-1.096-4.462-1.096s-3.247.363-4.462 1.095c-.606.365-1.037.773-1.292 1.198-.18.303-.27.613-.27.92 0 .31.09.62.27.92.256.425.687.834 1.294 1.2 1.215.73 2.834 1.095 4.462 1.095s3.247-.365 4.462-1.096c.606-.366 1.038-.775 1.292-1.198.184-.302.273-.612.273-.92 0-.308-.09-.618-.272-.92-.253-.424-.685-.832-1.292-1.198zM152.22 93.61v-2.474c-.075.075-.156.15-.238.223l-.848.612c-1.37.815-3.16 1.226-4.942 1.226-1.79 0-3.588-.413-4.957-1.236-.42-.256-.78-.53-1.07-.826v2.474c0 .36.125.726.375 1.075.26.367.66.723 1.19 1.044l.026.014c1.212.72 2.82 1.08 4.437 1.08 1.627 0 3.246-.365 4.46-1.095.533-.32.93-.676 1.192-1.045.25-.35.376-.717.376-1.077zm-1.568-6.71c-1.215-.73-2.834-1.097-4.46-1.097-1.63 0-3.248.366-4.464 1.097-.607.365-1.038.773-1.293 1.197a1.77 1.77 0 0 0-.273.92c0 .31.09.62.273.92.255.425.686.834 1.292 1.2 1.215.73 2.832 1.095 4.462 1.095 1.626 0 3.245-.366 4.46-1.097.607-.365 1.04-.774 1.293-1.198.184-.302.274-.612.274-.92 0-.308-.09-.618-.273-.92-.254-.424-.685-.832-1.293-1.198zm-12.927 7.777c-1.214-.73-2.836-1.096-4.463-1.096s-3.246.365-4.46 1.096c-.607.364-1.04.773-1.294 1.197a1.8 1.8 0 0 0-.27.923c0 .307.09.617.27.92.254.423.686.832 1.293 1.197 1.215.73 2.834 1.096 4.46 1.096s3.25-.366 4.464-1.097c.606-.365 1.038-.774 1.295-1.198.18-.302.27-.612.27-.92 0-.308-.09-.62-.27-.92-.257-.425-.69-.834-1.295-1.198zm1.564 4.236a5.46 5.46 0 0 1-1.07.827c-1.367.823-3.167 1.235-4.957 1.235-1.787 0-3.584-.41-4.954-1.234a5.47 5.47 0 0 1-1.07-.825v2.473c0 .36.12.726.372 1.076.262.37.658.725 1.19 1.043 1.215.73 2.834 1.096 4.46 1.096s3.248-.366 4.462-1.096c.532-.323.93-.677 1.194-1.044.245-.352.37-.716.37-1.077V98.91zm-14.808 3.73c-1.213-.73-2.834-1.094-4.462-1.094-1.625 0-3.246.364-4.46 1.095-.606.365-1.04.776-1.293 1.198-.18.302-.272.613-.272.92s.092.62.272.92c.255.425.687.834 1.294 1.2 1.215.73 2.836 1.095 4.46 1.095 1.63 0 3.25-.365 4.465-1.096.607-.366 1.038-.775 1.294-1.2.18-.3.27-.61.27-.92s-.09-.62-.27-.92c-.257-.423-.687-.834-1.295-1.198zm-4.462-2.06c-1.79 0-3.585.41-4.953 1.234-.748.45-1.29.973-1.625 1.53-.27.45-.41.924-.413 1.4v4.606c0 .512.152 1.018.464 1.497-.34-.454-.82-.88-1.444-1.256-1.37-.822-3.166-1.234-4.955-1.234-1.79 0-3.588.412-4.96 1.236-.744.45-1.286.974-1.622 1.53a2.74 2.74 0 0 0-.412 1.414v4.59c0 .56.187 1.113.56 1.634.34.475.83.918 1.48 1.31 1.37.824 3.167 1.237 4.957 1.237s3.587-.412 4.955-1.235c.65-.39 1.147-.834 1.485-1.31.368-.52.554-1.074.554-1.634v-4.61a2.71 2.71 0 0 0-.465-1.48c.34.455.82.88 1.444 1.256 1.367.824 3.164 1.236 4.954 1.236s3.587-.413 4.955-1.237c.65-.39 1.145-.836 1.482-1.31.37-.52.556-1.074.556-1.634v-4.605a2.745 2.745 0 0 0-.41-1.398c-.338-.56-.88-1.08-1.628-1.53-1.37-.822-3.165-1.234-4.956-1.234zm6.03 6.3a5.6 5.6 0 0 1-1.072.824c-1.368.822-3.165 1.234-4.955 1.234s-3.587-.41-4.955-1.233a5.457 5.457 0 0 1-1.072-.826v2.475c0 .36.125.727.375 1.076.264.37.66.726 1.19 1.045 1.216.73 2.837 1.095 4.464 1.095 1.628 0 3.25-.365 4.462-1.095.53-.32.93-.674 1.192-1.044.248-.35.373-.714.373-1.074v-2.473zm-12.93 10.25v-2.476c-.29.294-.65.572-1.07.827-1.37.824-3.166 1.235-4.955 1.235-1.79 0-3.588-.41-4.96-1.235a5.49 5.49 0 0 1-1.066-.826v2.473c0 .36.122.727.372 1.076.263.37.66.722 1.192 1.042 1.21.73 2.832 1.096 4.46 1.096s3.246-.365 4.462-1.096c.53-.32.927-.674 1.188-1.043.252-.35.376-.716.376-1.077zM55.244 96.11l25.205 15.16V87L55.24 71.84v24.27zM80.45 85.88V61.556L55.24 46.393v24.322l.447.27L80.444 85.88zm0-25.445v-23.12L55.24 22.15v23.12l25.205 15.164zM87 26.305v-2.473c-.29.296-.65.573-1.073.827-1.37.82-3.166 1.233-4.954 1.233-1.79 0-3.587-.412-4.956-1.235a5.39 5.39 0 0 1-1.07-.827v2.476c0 .36.125.725.373 1.076.26.37.66.724 1.19 1.044 1.214.73 2.834 1.095 4.46 1.095 1.63 0 3.248-.364 4.46-1.095.534-.32.93-.674 1.19-1.043.254-.35.378-.716.378-1.075zm.964-4.59v4.59c0 .56-.185 1.115-.555 1.636-.34.477-.833.92-1.483 1.31-1.37.826-3.166 1.238-4.954 1.238-1.79 0-3.587-.412-4.956-1.235-.65-.39-1.145-.835-1.48-1.31-.373-.52-.557-1.075-.557-1.635V21.7c0-.476.14-.95.412-1.4.335-.558.876-1.082 1.624-1.53 1.37-.824 3.167-1.236 4.957-1.236s3.586.412 4.955 1.236c.623.375 1.103.8 1.438 1.253-.305-.48-.46-.985-.46-1.495v-4.604c.002-.477.14-.95.413-1.402.332-.558.874-1.08 1.624-1.53l.045-.026-1.105-.664v.404c0 .557-.185 1.112-.556 1.633-.338.472-.83.92-1.48 1.31-1.37.822-3.17 1.233-4.96 1.233s-3.585-.41-4.954-1.235c-.623-.376-1.104-.8-1.44-1.254l.05.08c.27.45.407.923.41 1.398v.014h.002v4.593c0 .56-.188 1.113-.558 1.634-.337.475-.832.92-1.482 1.31-1.37.823-3.166 1.236-4.955 1.236s-3.588-.412-4.955-1.235c-.65-.39-1.146-.835-1.482-1.31-.37-.52-.557-1.074-.557-1.634v-.354L55.695 21.3 79.96 35.9l.97.585 25.24-15.182-5.277-3.176v.402c0 .56-.188 1.112-.556 1.632-.338.475-.833.92-1.483 1.312-1.37.822-3.164 1.232-4.955 1.232-1.79 0-3.59-.41-4.958-1.232-.623-.377-1.104-.802-1.44-1.253l.05.078c.27.45.408.926.41 1.4v.012h-.002zm-15.54-9.945c-1.213-.73-2.832-1.096-4.46-1.096-1.627 0-3.25.366-4.462 1.096-.604.367-1.036.775-1.292 1.2-.18.3-.27.612-.27.918 0 .308.09.618.27.92.256.425.688.835 1.294 1.2 1.215.728 2.836 1.095 4.463 1.095 1.628 0 3.247-.366 4.46-1.096.61-.364 1.04-.774 1.294-1.198.18-.304.273-.616.273-.924 0-.306-.092-.618-.273-.92-.255-.423-.686-.83-1.294-1.198zm.49-.83l.005.003c.622.377 1.104.802 1.44 1.255a2.722 2.722 0 0 1-.46-1.493v-.357l-.986.59zm1.077 5.066c-.29.295-.65.572-1.07.828-1.37.822-3.167 1.234-4.956 1.234s-3.588-.412-4.955-1.234a5.535 5.535 0 0 1-1.073-.826v2.474c0 .358.125.724.374 1.076.263.368.66.722 1.19 1.04 1.216.732 2.837 1.098 4.464 1.098 1.628 0 3.247-.365 4.46-1.098.534-.318.93-.672 1.19-1.04.252-.353.377-.718.377-1.076v-2.476zm24.37-4.188c-1.213-.73-2.835-1.096-4.46-1.096s-3.25.365-4.463 1.096c-.608.365-1.04.773-1.295 1.197-.18.303-.27.612-.27.922 0 .307.09.616.27.918.258.424.69.833 1.297 1.2 1.213.73 2.833 1.095 4.46 1.095s3.25-.365 4.46-1.096c.608-.366 1.038-.775 1.295-1.2.18-.3.27-.61.27-.92 0-.307-.09-.616-.27-.92-.257-.422-.686-.83-1.295-1.196zm1.565 4.237a5.55 5.55 0 0 1-1.07.826c-1.37.827-3.165 1.24-4.956 1.24-1.79 0-3.587-.413-4.956-1.237a5.4 5.4 0 0 1-1.07-.825v2.473c0 .36.123.726.372 1.078.262.368.66.724 1.192 1.042 1.214.73 2.834 1.095 4.46 1.095s3.25-.365 4.462-1.096c.53-.32.927-.676 1.19-1.044.25-.353.373-.717.373-1.077v-2.474zM85.355 3.992c-1.217-.73-2.837-1.094-4.465-1.094-1.626 0-3.246.364-4.46 1.094-.608.366-1.04.775-1.295 1.2-.18.3-.27.612-.27.92s.09.617.27.92c.256.424.687.83 1.294 1.198 1.212.73 2.832 1.096 4.46 1.096 1.626 0 3.246-.367 4.46-1.096.606-.367 1.04-.774 1.295-1.2.18-.3.27-.612.27-.92s-.09-.616-.27-.917c-.256-.425-.69-.836-1.294-1.2zm1.563 4.238c-.293.293-.65.57-1.07.826-1.37.824-3.168 1.236-4.958 1.236-1.788 0-3.585-.412-4.954-1.236a5.557 5.557 0 0 1-1.072-.826v2.475c0 .358.124.723.375 1.074.26.37.655.72 1.19 1.04 1.212.73 2.832 1.096 4.46 1.096 1.626 0 3.246-.365 4.46-1.096.53-.32.93-.672 1.19-1.042.25-.353.376-.717.376-1.075V8.23zM85.43 19.595c-1.214-.73-2.832-1.097-4.46-1.097-1.627 0-3.247.366-4.46 1.097-.608.366-1.04.774-1.295 1.198a1.777 1.777 0 0 0-.272.92c0 .31.09.62.272.92.256.425.687.834 1.294 1.198 1.21.734 2.83 1.098 4.46 1.098 1.626 0 3.245-.363 4.46-1.095.61-.363 1.04-.774 1.292-1.197.182-.3.273-.61.273-.92 0-.307-.092-.618-.273-.92-.253-.424-.685-.832-1.293-1.198z"/></svg>