<svg xmlns="http://www.w3.org/2000/svg" width="210" height="210" viewBox="-35 -28.772 210 210" overflow="visible"><path class="icon-bg" fill-rule="evenodd" clip-rule="evenodd" fill="#EFEEED" d="M79.075 147.772c11.13-6.426 22.263-12.854 33.394-19.278l10.59-6.348c6.833-4.09 9.24-7.433 9.27-15.053V48.877l2.994-1.863v-8.39L80.164 70.45c-8.51 4.467-11.294 13.773-11.294 20.02v60.742l.222.128c2.744-.047 5.457-1.034 8.788-2.886.402-.222.798-.453 1.195-.682z"/><path class="icon-bg" fill-rule="evenodd" clip-rule="evenodd" fill="#ECEDED" d="M57.296 5.833L80.533 19.25c5.132 2.964 9.333 10.67 9.333 17.125v11.003l-7.408 4.277V40.652c0-6.456-4.2-14.163-9.333-17.126L49.888 10.11c-2.27-1.31-4.357-1.483-5.98-.71l7.08-4.103c1.664-.964 3.882-.864 6.308.536zM53.81 19.688l-2.753-1.59c-2.56-1.478-4.654-.053-4.654 3.167v9.574l7.406-4.28v-6.874z"/><path class="icon-bg" fill-rule="evenodd" clip-rule="evenodd" fill="#EFEEED" d="M49.55 90.862l3.028 1.747-3.026-1.75h-.002zm10.188 5.882v15.56c0 2.067-.7 3.52-1.8 4.132l-3.59 2.075c1.077-.624 1.762-2.066 1.762-4.11v-11.803c.01-4.05.337-4 3.628-5.85zm-5.397 21.77l-.01.007.01-.003zM12.62 69.436l6.235 3.6-6.235-3.6zm10.188 5.882v15.56c0 2.066-.7 3.52-1.8 4.133l-3.59 2.077c1.078-.627 1.76-2.07 1.76-4.11v-11.81c.01-4.05.338-3.995 3.63-5.85zm-5.398 21.77l-.012.008.012-.007z"/><path class="icon-border" fill-rule="evenodd" clip-rule="evenodd" fill="#A1A4A7" d="M12.89 69.035L23.05 74.9c.154.09.24.25.24.418v6.215L45.597 94.41c.323-2.05 1.19-2.54 3.056-3.59v-.003c.212-.12.438-.246.63-.357a.477.477 0 0 1 .538 0l10.164 5.866c.152.09.24.25.24.417h.003v6.11l8.165 4.716v-17.1c0-3.58.897-8.144 3.223-12.265 1.818-3.222 4.507-6.176 8.322-8.18l54.49-31.436-21.303-12.3-11.262-6.5-.023-.015-10.346-5.972L77.9 5.958l-.006-.004c-3.41-1.895-6.107-2.944-8.737-3.056-2.623-.11-5.223.713-8.446 2.56l-.032.02-1.516.875 21.614 12.48c2.644 1.525 5.043 4.262 6.774 7.44 1.728 3.172 2.8 6.794 2.8 10.102v11.003a.484.484 0 0 1-.28.44l-7.33 4.23a.48.48 0 0 1-.547.008l-6.932-4a.486.486 0 0 1-.24-.418v-9.574c0-1.53-.5-3.214-1.307-4.694-.805-1.474-1.905-2.736-3.107-3.43l-.024-.016L54.29 20.52v6.04c0 .193-.11.358-.27.437l-7.35 4.244c-.08.05-.17.08-.27.08a.47.47 0 0 1-.28-.086l-5.808-3.352a.48.48 0 0 1-.24-.416h-.002v-10.09l-4.19 2.417-10.367 5.99-.028.014L11.93 33.62c-3.353 2.008-5.613 3.82-7.027 6.05-1.408 2.216-1.993 4.88-2.008 8.59h.002v21.53c.08.028.16.064.235.11l5.52 3.182c.31-2.13 1.177-2.62 3.068-3.686.15-.085.308-.173.63-.36a.49.49 0 0 1 .54 0zM82.94 50.82V40.653c0-3.31-1.073-6.93-2.8-10.103-1.732-3.178-4.13-5.914-6.777-7.44L50.153 9.706l-.022-.016c-1.282-.74-2.52-1.135-3.656-1.22l4.758-2.756c.764-.44 1.66-.634 2.65-.55.98.083 2.052.436 3.176 1.086l23.237 13.416c2.49 1.438 4.76 4.037 6.41 7.067 1.655 3.036 2.682 6.494 2.682 9.642v10.728L82.94 50.82zM53.327 19.964v6.32l-6.443 3.72v-8.74c0-.906.177-1.645.483-2.192l.016-.02c.2-.347.452-.614.748-.79.29-.172.63-.264 1-.264.51 0 1.08.167 1.69.52l2.51 1.447zm19.56 3.98c2.486 1.435 4.754 4.035 6.406 7.065 1.653 3.034 2.682 6.492 2.682 9.642V50.82l-5.992-3.46v-9.295c0-1.69-.547-3.538-1.428-5.154-.885-1.62-2.11-3.02-3.47-3.804-.01-.004-.018-.01-.027-.014L51.296 17.68c-.764-.44-1.5-.65-2.168-.65-.545 0-1.05.14-1.492.404a3.116 3.116 0 0 0-1.087 1.132c-.01.01-.015.02-.02.032-.39.69-.61 1.593-.61 2.667v8.74l-4.88-2.82V16.46c0-1.93.382-3.512 1.06-4.685.44-.766 1.01-1.356 1.67-1.753a4.33 4.33 0 0 1 2.25-.6c1.1 0 2.325.356 3.625 1.106.01.007.02.01.027.015l23.212 13.402zm30.41 112.62L80.07 149.977l-.21.12a2.075 2.075 0 0 1-.174.11l-.402.227c-3.883 2.186-7.062 3.322-10.424 3.314-3.35-.008-6.655-1.158-10.79-3.544l-23.622-13.64-11.137-6.43a1.72 1.72 0 0 1-.133-.07L12.81 124.08c-3.698-2.154-6.054-4.345-7.547-7.2-1.435-2.746-1.964-5.94-2.047-10.186a2.14 2.14 0 0 1-.014-.254V74.407l-1.886-1.12A2.414 2.414 0 0 1 0 71.137v-22.88h.01c.016-4.295.73-7.433 2.448-10.14 1.685-2.655 4.246-4.736 7.992-6.977v.003l.037-.022 13.588-7.843 10.237-5.91c.04-.027.08-.053.122-.077l3.762-2.17c.104-1.247.357-2.38.738-3.383.583-1.54 1.463-2.777 2.58-3.66.48-.384 1.16-.764 1.733-1.083.097-.054.184-.103.404-.23l6.13-3.552c1.28-.74 2.75-1.068 4.336-.934 1.295.11 2.67.533 4.077 1.3l.905-.52a2.28 2.28 0 0 1 .176-.112C62.98.82 66.054-.126 69.27.01c3.15.134 6.235 1.308 10.042 3.427l-.003.002.03.014 13.463 7.773.134.07 10.37 5.988L136.38 36.38a2.414 2.414 0 0 1 1.36 2.173v7.534h-.004c0 .725-.328 1.442-.95 1.916l-2.043 1.57v57.517h-.01c-.015 4.298-.73 7.437-2.45 10.144-1.684 2.654-4.245 4.734-7.988 6.975l-10.508 6.3-.112.065-10.37 5.986-.002-.003-.004.004zm-8.322-54.24l18.228-10.588.358-.207c1.07-.624 2.1-.917 3.04-.917.79 0 1.515.204 2.15.595.634.386 1.17.95 1.59 1.674.65 1.113 1.02 2.61 1.02 4.413v23.387c0 2.68-.82 5.587-2.133 8.11-1.32 2.537-3.154 4.7-5.183 5.878L95.46 125.466c-1.07.623-2.1.916-3.04.916a4.07 4.07 0 0 1-2.153-.595c-.63-.386-1.168-.95-1.59-1.675-.646-1.114-1.02-2.61-1.02-4.414V96.31c0-2.68.817-5.587 2.136-8.11l.01-.02.05-.1.012-.015c1.2-2.285 2.838-4.3 4.77-5.535l.102-.064.05-.03c.06-.036.125-.075.19-.112zm3.97 27.194l-.034-.018-3.256-1.52-.01-.006c-.43-.203-.776-.567-1.01-1.07-.21-.448-.326-1.01-.326-1.658v-9.15c0-1.098.332-2.283.868-3.31.007-.014.013-.026.022-.04.54-1.02 1.288-1.896 2.118-2.378l7.274-4.226a2.81 2.81 0 0 1 1.08-.383c.366-.046.713.004 1.025.14.022.01.048.02.073.035l3.224 1.505c.084.035.165.08.24.126.29.176.535.432.726.758.28.48.438 1.116.438 1.875v9.15c0 1.094-.333 2.28-.87 3.31-.54 1.04-1.297 1.927-2.14 2.416l-7.273 4.226c-.465.27-.918.4-1.336.4-.295 0-.573-.064-.83-.187zm9.442-20.994l.012-.007.01-.007.005-.004.006-.004.008-.005.005-.002.01-.006h.002l.013-.01.01-.006.006-.003.006-.003.007-.005.005-.002.01-.003v-.003l.013-.006.01-.005.003-.002.013-.002.005-.003.006-.004.007-.003.005-.003.01-.006.013-.004.014-.006.01-.004.007-.004.004-.004.01-.005.014-.004.012-.005.01-.005.006-.003h.004l.01-.004.004-.002.008-.003h.003l.01-.005.012-.003.005-.002.01-.003h.005l.004-.005.01-.002.012-.004.01-.004.002-.002.01-.002.004-.002.007-.002.01-.003.013-.003h.002l.01-.003.01-.004h.003l.026-.01h.003l.01-.002h.003l.022-.005h.003c.113-.03.226-.044.328-.044.185 0 .35.045.493.133.15.09.284.232.39.42.196.333.308.805.308 1.39v9.152c0 .94-.29 1.97-.756 2.864h-.002c-.462.887-1.09 1.636-1.77 2.028l-7.27 4.225c-.313.18-.603.267-.855.267-.155 0-.3-.03-.425-.096h-.005l-.003-.002h-.007l-.003-.004-.01-.004-.01-.005-.006-.005v-.002h-.005l-.006-.004-.01-.007-.005-.003-.007-.004-.017-.013h-.002l-.01-.006-.007-.003-.006-.005-.004-.004-.01-.003-.054-.044a1.382 1.382 0 0 1-.355-.49c-.04-.09-.075-.19-.105-.293v-.002l-.015-.052-.002-.01-.002-.008-.01-.036-.003-.02-.004-.02v-.006l-.005-.013-.003-.01-.004-.01v-.017l-.007-.02-.005-.02-.002-.02-.002-.006v-.023l-.003-.01-.002-.014-.002-.007-.003-.015v-.005l-.005-.02-.002-.02v-.003l-.004-.018-.003-.006-.003-.015v-.01l-.003-.01v-.012l-.002-.01-.002-.016v-.004l-.002-.02-.002-.022v-.002l-.002-.02v-.008l-.002-.013-.002-.01-.002-.01v-.016l-.002-.008v-.02l-.002-.024-.002-.022v-.03l-.002-.014v-.022l-.003-.042v-.094l-.004-.015V97.62c0-.937.29-1.967.76-2.863.003-.012.012-.023.016-.035l.002-.007.018-.034.003-.003.02-.034.003-.008.017-.03.005-.01.018-.03.005-.01.018-.033.005-.007.02-.03.007-.01.018-.03.005-.01.02-.03.006-.01.017-.027.006-.012.015-.027.007-.013.016-.027.008-.01.018-.028.007-.012.017-.027.007-.012.018-.023.01-.013.018-.022.01-.014.014-.025.01-.015.015-.022.01-.015.015-.02.01-.016.02-.02.008-.017.017-.02.01-.016.016-.02.01-.015.018-.02.01-.015.016-.02.013-.018.014-.018.013-.018.057-.068.013-.017.014-.02h.003c.023-.03.05-.062.077-.094v-.004l.016-.014.016-.02.008-.014.02-.018.01-.014.018-.02c.066-.072.134-.145.203-.212l.008-.01.02-.02a3.51 3.51 0 0 1 .68-.524l7.25-4.197zm-12.31 18.59l-.028-.014c-.224-.107-.41-.312-.544-.6-.15-.323-.235-.745-.235-1.254v-9.15c0-.94.293-1.968.76-2.866a.23.23 0 0 0 .016-.035c.46-.87 1.08-1.604 1.754-1.992l7.27-4.225c.257-.15.495-.233.714-.26.2-.023.385.004.542.076.01.004.02.01.03.012l1.705.797-.003.003h-.006v.003H108.042l-.003.004h-.004l-.002.002v.003l-.004.002h-.002l-.002.002h-.003l-.003.002-.003.002h-.006l-.003.003-.002.003-.004.003h-.003l-.004.003h-.004l-.003.002-.002.002-.002.002h-.005l-.002.003h-.002v.003h-.004v.002h-.006l-.003.003h-.005l-.004.004h-.002l-.002.003h-.002l-.002.004h-.002l-.002.003h-.003v.002h-.006l-.003.003h-.005v.003l-.004.003h-.005l-7.272 4.226a4.04 4.04 0 0 0-.387.26l-.033.023-.006.002-.068.055-.005.006-.037.03-.03.024-.01.006c-.1.083-.195.172-.293.264l-.024.025-.01.013-.025.023-.012.014-.022.023-.012.013-.022.023-.012.013-.023.023-.012.012-.02.023-.014.014-.07.075-.02.022-.01.015-.02.023-.016.016-.066.08-.02.02-.014.02-.02.02-.014.02-.017.02-.02.02-.015.023-.015.02h-.002l-.03.042-.016.02-.013.022-.016.02-.017.022-.015.02-.017.022-.013.02-.017.024-.015.02-.017.023-.03.04-.002.003-.01.02-.02.024-.013.02-.02.025-.01.02-.018.025-.01.018-.02.027-.013.018-.02.028-.027.047-.012.016-.018.03-.01.017-.02.03-.022.04-.004.006-.013.016-.02.03-.01.016-.017.03-.008.017-.02.03-.007.016-.02.033-.008.012-.02.035-.006.013-.02.035-.007.01-.02.038-.025.048-.008.012c-.006.012-.016.023-.02.037a7.65 7.65 0 0 0-.82 2.58l-.008.053-.006.052v.003l-.005.05v.004l-.004.05v.002l-.003.05v.003l-.006.05-.003.053-.002.053-.003.052-.002.05-.002.053v.053h.014v9.33l.007.203.003.068v.003l.003.03v.005c.02.255.06.494.117.715l-1.673-.787zm21.298-35.444c.312.073.605.196.873.36.494.302.92.75 1.26 1.335.56.97.885 2.3.885 3.93v23.387c0 2.523-.774 5.27-2.023 7.668-1.243 2.383-2.946 4.403-4.81 5.486L94.976 124.63c-.916.532-1.78.784-2.557.784a3.116 3.116 0 0 1-1.654-.453c-.48-.293-.9-.73-1.235-1.3.778.29 1.71.145 2.625-.365L110.74 112.5c2.027-1.18 3.863-3.34 5.184-5.877 1.318-2.524 2.134-5.433 2.134-8.112V76c0-1.957-.167-3.453-.682-4.33zM95.458 83.155l18.19-10.566c2.997-1.74 3.44-.76 3.44 2.876V98.51c0 2.524-.774 5.272-2.022 7.667-1.242 2.385-2.947 4.406-4.81 5.488L91.67 122.46c-1.668 1.12-3.047.16-3.047-2.764V96.31c0-2.348.73-5.123 1.986-7.59l.034-.076c1.175-2.252 2.76-4.178 4.5-5.297l.087-.057.047-.027c.058-.035.117-.072.178-.107zm-72.168 1.71L45.437 97.65v10.867c0 1.942.596 4.052 1.554 5.882.966 1.84 2.307 3.41 3.787 4.264.79.457 1.553.673 2.25.673a3.07 3.07 0 0 0 1.53-.394l.003-.002h.003l.007-.005.015-.01 3.595-2.075c.65-.365 1.176-.972 1.532-1.786.327-.752.512-1.682.512-2.762v-6.117l7.93 4.578a1.3 1.3 0 0 0 .235.107v39.978c-2.65-.114-5.407-1.142-8.884-3.147L35.88 134.06l-11.232-6.484-.025-.016-10.364-5.984c-3.21-1.87-5.226-3.706-6.44-6.03-1.217-2.33-1.656-5.185-1.722-9.072V74.94l2.407 1.39v10.763c0 1.943.596 4.05 1.554 5.883.964 1.842 2.3 3.413 3.782 4.268.79.456 1.553.672 2.252.672.558 0 1.074-.137 1.533-.396v-.002l.01-.004.017-.01.004-.003 3.59-2.07c.65-.365 1.176-.973 1.53-1.786.33-.753.51-1.683.51-2.762v-6.014zm46.064 22.81V90.47c0-3.443.86-7.832 3.094-11.79 1.735-3.077 4.302-5.895 7.94-7.804l.016-.01 54.44-31.408v5.89a1.5 1.5 0 0 0-.344.143L88.318 72.158v.003c-4.57 2.64-8.133 5.114-10.562 8.45-2.473 3.394-3.704 7.567-3.528 13.512.008.218.012 1.39.018 2.495.005 1.005.01 1.958.014 2.13.083 3.293.067 5.02-.61 6.087-.597.94-1.904 1.685-4.296 2.843zm62.493-57.314v56.733h.002c-.015 3.713-.6 6.374-2.01 8.592-1.416 2.227-3.677 4.04-7.03 6.048l-10.59 6.347-33.36 19.26-.03.015-.09.055c-.377.216-.748.434-1.09.624-1.644.913-3.13 1.61-4.538 2.085-1.297.434-2.528.68-3.76.73v-39.98c.047-.016.093-.034.138-.056l.003.006c3.604-1.716 5.5-2.704 6.6-4.44 1.106-1.736 1.15-3.815 1.052-7.703a190.19 190.19 0 0 1-.013-2.072 190.82 190.82 0 0 0-.018-2.564c-.155-5.244.885-8.86 2.976-11.73 2.133-2.93 5.42-5.198 9.673-7.653h.004l42.08-24.296zM19.26 95.466c.26-.7.402-1.54.402-2.49V81.17h-.002c.01-3.45.263-3.685 2.665-5.03v14.74c0 .946-.153 1.748-.43 2.377-.268.62-.653 1.074-1.122 1.335l-.006.004h-.002l-1.505.87zm2.575-20.152c-2.826 1.58-3.127 1.85-3.137 5.856h-.002v11.806c0 1.142-.225 2.07-.613 2.743l-.015.025a2.53 2.53 0 0 1-.848.896c-.33.205-.71.31-1.126.31-.536 0-1.135-.173-1.77-.54-1.32-.762-2.53-2.192-3.41-3.88-.892-1.695-1.44-3.644-1.44-5.436V75.75c0-3.983.6-4.322 2.717-5.517l.43-.243 9.217 5.322zm-7.974 8.66c.535.265.94 1.102.94 1.788v4.225c0 .688-.404.975-.937.71-.53-.268-.937-1.105-.937-1.79V84.68c0-.69.405-.977.938-.71zm36.934 21.424c.532.266.937 1.104.937 1.79v4.222c0 .687-.404.975-.937.71-.53-.268-.937-1.104-.937-1.79v-4.225c0-.687.406-.974.937-.708zm8.464-7.83v14.738c0 .947-.152 1.746-.427 2.377-.27.62-.66 1.075-1.124 1.336l-.006.004-1.51.868c.26-.7.4-1.535.4-2.488v-11.806c.01-3.45.263-3.683 2.665-5.03zm-.49-.83c-2.826 1.583-3.127 1.852-3.138 5.858h-.003V114.4c0 1.142-.223 2.07-.61 2.744l-.016.025c-.23.39-.514.69-.85.893-.325.2-.705.31-1.123.31-.538 0-1.135-.175-1.77-.54-1.32-.763-2.528-2.19-3.41-3.88-.89-1.696-1.44-3.645-1.44-5.437v-11.34c0-3.983.6-4.323 2.716-5.52l.002.003.43-.245 9.213 5.32z"/></svg>