<svg xmlns="http://www.w3.org/2000/svg" width="210" height="210" viewBox="-33 -21.827 210 210" overflow="visible"><path class="icon-bg" fill-rule="evenodd" clip-rule="evenodd" fill="#ECEDED" d="M82.633 94.73L2.415 48.415 82.633 94.73zm0 0l6.443-3.722-6.443 3.72zm49.592-56.126L71.552 3.574C69.28 2.26 67.182 2.1 65.516 2.89h-.004a4.862 4.862 0 0 0-.654.378l-26.494 15.37c1.61-.628 3.585-.41 5.714.82l60.675 35.03c5.373 3.102 9.772 11.505 9.772 18.67v65.507c0 3.7-1.17 6.373-3.044 7.67l27.024-15.607c.072-.038.14-.08.212-.12l.03-.02c1.995-1.24 3.253-3.974 3.253-7.808V57.276c0-7.167-4.398-15.568-9.773-18.672zm-98.746 73.78l2.424-1.4v-6.474l-2.194-2.885-2.19-2.885-2.194.352-2.193.354-2.426 1.4 2.193-.355 2.195-.35 2.19 2.887 2.195 2.884v6.474zm-4.01-8.135c.08 1.23.77 2.593 1.67 3.326.005.074.007.148.007.222 0 1.45-.92 2.096-2.055 1.44-1.136-.655-2.056-2.36-2.056-3.814 0-1.45.92-2.095 2.055-1.44a3 3 0 0 1 .377.262zm-9.5 14.46l3.2-1.85v-8.544l-2.897-3.81-2.895-3.807-2.897.466-2.894.464-3.202 1.85 2.895-.464 2.896-.465 2.894 3.81 2.896 3.808v8.545zm-5.294-10.738c.1 1.626 1.016 3.428 2.206 4.395.004.097.008.194.008.293 0 1.915-1.214 2.767-2.71 1.9-1.5-.863-2.716-3.117-2.716-5.033 0-1.915 1.217-2.767 2.715-1.9.17.096.334.213.496.344zm17.006 20.77l2.228-1.286v-4.71l-1.596-2.1-1.594-2.098-1.597.255-1.596.256-2.228 1.287 1.594-.26 1.595-.255 1.597 2.1 1.596 2.1v4.71zm-3.193-2.498c-.733-.423-1.33-1.53-1.33-2.468s.597-1.354 1.33-.932c.734.424 1.33 1.528 1.33 2.467 0 .94-.595 1.357-1.33.934zM46.693 98.01v9.345l1.146 1.508 1.06 1.396v1.13l-1.148.18-1.146.187-1.146-1.508-1.146-1.51V99.4c-.7-.062-1.344.06-1.9.352l2.22-1.296.054-.032.02-.012c.577-.325 1.25-.465 1.985-.4zm-2.38 27.025v.73c-.742-.066-1.417.075-1.998.405l2-1.133v-.002zm0 16.105zm0 0v-9.34l1.147-.186 1.148-.184.087.112v8.212l-2.38 1.386zm6.63 2.217c1.29-.76 2.1-2.458 2.1-4.866 0-3.51-1.723-7.495-4.143-10.074V117.42c.91.082 1.72-.15 2.38-.658v10.265c2.42 2.58 4.14 6.57 4.14 10.08 0 2.414-.81 4.116-2.11 4.872l-2.365 1.375zm.73-26.952c.857-.9 1.37-2.366 1.37-4.28 0-3.51-1.723-7.5-4.143-10.08l2.38-1.386c2.42 2.576 4.14 6.565 4.14 10.076 0 2.554-.91 4.308-2.336 4.992l-1.41.674zM65.89 92.542c-1.75-.156-3.368 1.133-4.815 1.975.643-.373 1.39-.535 2.217-.46v10.2l1.252 1.65 1.254 1.645 1.252-.2 1.25-.2v-1.236l-2.41-3.17V92.54zm-2.6 41.395v.796c-.81-.073-1.546.083-2.18.442v-.002l2.18-1.236zm0 17.584v-10.197l1.253-.202 1.254-.2.492.65-.4.086v8.354l-2.6 1.513zm7.263 2.41c1.396-.835 2.27-2.683 2.27-5.3 0-3.832-1.878-8.19-4.523-11.004v-23.89c2.646.237 4.524-1.95 4.524-5.782s-1.88-8.19-4.522-11.006v-.002l2.598-1.512c2.643 2.816 4.522 7.173 4.522 11.005 0 2.627-.884 4.48-2.29 5.312l-.006.005-.062.035-2.164 1.227v23.092c2.643 2.816 4.522 7.174 4.522 11.006 0 2.64-.89 4.496-2.307 5.32l-2.562 1.495zM22.82 49.336c-1.394-.805-2.52-.014-2.52 1.767 0 1.78 1.127 3.875 2.52 4.68 1.392.804 2.522.013 2.522-1.767s-1.13-3.875-2.52-4.68zM9.65 41.73c-1.394-.805-2.52-.013-2.52 1.766 0 1.78 1.127 3.874 2.52 4.678 1.393.803 2.52.014 2.52-1.767.002-1.78-1.127-3.875-2.52-4.678zm6.623 3.822c-1.392-.803-2.52-.013-2.52 1.768 0 1.78 1.13 3.875 2.52 4.68 1.394.802 2.523.01 2.523-1.77s-1.13-3.875-2.522-4.678zm29.318 4.105L18.63 34.093c-2.272-1.312-4.37-1.475-6.035-.684h-.002a4.99 4.99 0 0 0-.657.375L5.812 37.31c1.716-.986 3.946-.897 6.377.505l60.67 35.03c5.373 3.103 9.77 11.505 9.77 18.67v65.508c0 3.92-1.314 6.692-3.388 7.888v.004l6.338-3.665c.07-.04.144-.08.21-.123l.033-.02c1.994-1.238 3.252-3.972 3.252-7.805v-29.664l12.26 6.902V69.553l-55.748-31.38v11.484zM8.426 65.342c-.498 1.61-.072 3.598 1.86 4.715l14.79 8.538c1.83 1.057 3.45.306 4.296-1.064L8.425 65.345zm-.022 13.78c-.416 1.58.047 3.466 1.91 4.542L18.5 88.39c1.83 1.057 3.445.31 4.294-1.06l-14.39-8.208zm46.27-46.98c1.394.804 2.523 2.898 2.523 4.678 0 1.78-1.13 2.57-2.522 1.767s-2.522-2.9-2.522-4.68 1.13-2.57 2.524-1.766zM41.5 24.536c1.394.804 2.523 2.898 2.523 4.678 0 1.78-1.13 2.572-2.523 1.767-1.392-.802-2.52-2.9-2.52-4.68 0-1.78 1.128-2.57 2.52-1.763zm6.623 3.823c1.393.802 2.52 2.896 2.52 4.676 0 1.78-1.128 2.57-2.52 1.767C46.73 34 45.6 31.906 45.6 30.126s1.13-2.57 2.524-1.767zM37.06 19.39l-.004.002.004-.002zm73.71 127.35h.004-.003z"/><path class="icon-border" fill-rule="evenodd" clip-rule="evenodd" fill="#A1A4A7" d="M56.477 37.935a.483.483 0 0 1 .645-.155l-.645.155zM7.844 42.38a.482.482 0 0 1-.645.156l.642-.155zm3.5-11.036c.062-.034.12-.063.172-.09l-.172.09zm3.123 14.86a.484.484 0 0 1-.646.155l.65-.157zM43.305 30.33a.482.482 0 0 1 .645-.154l-.645.156zM63.51 93.628c.156.08.265.24.265.43V104.1l1.15 1.515 1.077 1.417.97-.155.845-.137v-.666l-2.31-3.04a.472.472 0 0 1-.098-.29h-.006v-9.727c-.64.043-1.275.287-1.896.61zM46.947 39.49l7.568 12.54L80.51 67.037v.004c3.09 1.79 5.858 5.018 7.827 8.78l.035.07 11.957-6.35-53.385-30.05zm5.84 11.54l-6.715-3.874v-7.25l6.714 11.125zm-7.682-4.433v-8.425a.482.482 0 0 1 .742-.41l55.71 31.36a.474.474 0 0 1 .204.2c.04.074.06.15.06.228v60.986a.485.485 0 0 1-.743.406l-9.585-5.396v12.29l13.504 7.796.023.015c1.28.732 2.493 1.08 3.59 1.08.88 0 1.687-.226 2.39-.657.71-.437 1.32-1.085 1.81-1.927l.01-.02c.778-1.36 1.224-3.208 1.224-5.462v-65.5c0-3.505-1.078-7.318-2.814-10.635-1.73-3.307-4.11-6.112-6.718-7.62l-.023-.014-60.65-35.015c-1.29-.746-2.516-1.098-3.616-1.098-.882 0-1.69.227-2.39.66-.712.435-1.324 1.085-1.81 1.924-.784 1.363-1.235 3.22-1.235 5.486V40.64l10.316 5.957zm46.385 77.845v-9.283l8.486 14.06-8.486-4.78zm0-11.148v-25.5c0-3.638-1.016-7.55-2.686-11.04l12.05-6.4v58.45l-9.364-15.51zM19.838 32.008l-.148-.08c-1.37-.768-2.71-1.21-3.985-1.355-1.42-.16-2.754.042-3.958.576-.14.05-.274.114-.402.193a6.51 6.51 0 0 0-.282.157c-.192.11-.347.206-.462.283l-5.98 3.443c-.02.012-.044.023-.064.037-1.488.876-2.68 2.267-3.466 4.095C.39 40.973 0 42.943 0 45.202v65.507c0 3.96 1.21 8.252 3.155 11.97 1.97 3.767 4.74 7 7.833 8.782l60.676 35.03c1.522.88 3.01 1.355 4.41 1.466l.068.003c1.567.114 3.024-.226 4.308-.97l.003.004 6.336-3.666.1-.06.003.002c.037-.02.08-.047.12-.072l.018-.01c.02-.012.045-.025.066-.04v.003c1.443-.897 2.596-2.3 3.36-4.13.663-1.594 1.032-3.523 1.032-5.722v-12.122l12.054 6.96c.05.026.097.054.148.078 1.363.767 2.7 1.21 3.966 1.354 1.486.172 2.885-.058 4.14-.65.18-.084.36-.178.542-.28.05-.03.098-.06.145-.092.087-.054.17-.105.248-.157l26.917-15.544.002-.002.163-.093c.045-.022.095-.054.15-.09l.05-.03v.004c1.445-.896 2.597-2.3 3.36-4.13.666-1.595 1.034-3.524 1.034-5.724V57.276c0-3.965-1.206-8.255-3.15-11.973-1.976-3.77-4.742-7.003-7.827-8.784L72.76 1.49C71.344.673 69.952.204 68.625.054c-1.417-.16-2.75.04-3.95.572a2.42 2.42 0 0 0-.365.172 10.355 10.355 0 0 0-.658.387L37.284 16.48a7.092 7.092 0 0 0-1.7 1.008c-.027.02-.05.04-.08.06-1.187.97-2.13 2.326-2.755 4.015-.557 1.504-.86 3.28-.86 5.282v12.122l-12.053-6.96zM79.063 69.54L18.39 34.51l-.024-.014c-1.047-.6-2.047-.943-2.978-1.048-.947-.108-1.82.033-2.586.397l-.005.002c-.107.05-.206.104-.3.156a5.418 5.418 0 0 0-.288.183.545.545 0 0 1-.064.036l-3.413 1.963c1.156.075 2.4.47 3.692 1.215l60.648 35.015c.01.004.02.01.026.015 2.767 1.597 5.273 4.545 7.087 8.007 1.807 3.45 2.926 7.423 2.926 11.08v2.38l5.48-3.163v-2.938c0-3.506-1.08-7.32-2.815-10.637-1.73-3.31-4.11-6.115-6.716-7.62h-.002zm2.752 93.328c.83-1.492 1.3-3.47 1.3-5.845V95.005l5.48-3.16V153.3c0 1.816-.29 3.368-.81 4.613-.525 1.262-1.285 2.205-2.215 2.783l-.006.006-.014.006-.01.006-.096.058-.075.044c-.014.004-.024.01-.034.015l-3.523 2.04zm-9.22-89.62L11.948 38.233h-.002c-1.29-.745-2.51-1.097-3.613-1.097a4.51 4.51 0 0 0-2.39.657c-.71.436-1.322 1.085-1.808 1.925-.786 1.36-1.236 3.218-1.236 5.485v2.934l79.25 45.756v-2.377c0-3.506-1.078-7.317-2.814-10.635-1.73-3.305-4.108-6.11-6.715-7.616l-.023-.014zM2.9 49.25l79.25 45.757v62.017c0 2.268-.447 4.126-1.232 5.485-.486.835-1.098 1.484-1.81 1.92-.7.433-1.51.66-2.39.66-1.104 0-2.326-.355-3.616-1.1l-60.675-35.03c-2.604-1.502-4.982-4.31-6.713-7.615-1.737-3.315-2.814-7.13-2.814-10.635V49.25zm19.68.5c.618.356 1.185 1.012 1.602 1.784.42.78.68 1.667.68 2.478 0 .48-.092.862-.248 1.136a.956.956 0 0 1-.33.35.818.818 0 0 1-.424.112c-.234 0-.504-.08-.797-.248-.616-.355-1.18-1.01-1.6-1.785-.417-.78-.68-1.667-.68-2.477 0-.48.09-.864.25-1.138a.946.946 0 0 1 .33-.35.804.804 0 0 1 .422-.11c.237 0 .505.08.796.248zm-.796-1.214c.398 0 .83.122 1.278.38.775.45 1.47 1.242 1.968 2.164.49.913.796 1.963.796 2.933 0 .65-.138 1.2-.38 1.62a1.927 1.927 0 0 1-.665.693c-.272.165-.583.25-.92.25-.4 0-.833-.122-1.28-.38-.775-.45-1.47-1.242-1.965-2.16-.493-.915-.8-1.965-.8-2.935 0-.65.14-1.195.382-1.614.174-.302.4-.536.665-.696.276-.167.586-.253.923-.253zm-12.4-6.406c-.282-.158-.542-.233-.773-.233-.155 0-.3.04-.422.112a.944.944 0 0 0-.328.35l-.015.02c-.148.27-.234.65-.234 1.114 0 .81.26 1.697.68 2.477.42.774.984 1.43 1.6 1.786l.024.013c.282.16.545.235.774.235.16 0 .3-.038.424-.11a.963.963 0 0 0 .33-.35c.157-.273.247-.657.247-1.138 0-.81-.26-1.697-.68-2.477-.416-.77-.98-1.426-1.6-1.783l-.02-.015zm-.774-1.2c-.34 0-.647.087-.92.252a1.914 1.914 0 0 0-.685.728c-.23.414-.363.952-.363 1.585 0 .97.306 2.02.8 2.934.495.92 1.188 1.712 1.964 2.16l.03.014c.437.25.858.366 1.25.366.337 0 .647-.085.92-.25.266-.16.493-.395.665-.696.246-.42.384-.967.384-1.618 0-.97-.305-2.02-.798-2.933-.496-.92-1.19-1.715-1.966-2.163l-.03-.014c-.437-.248-.86-.365-1.25-.365zm7.42 5.04c-.294-.17-.562-.25-.797-.25a.81.81 0 0 0-.425.112.96.96 0 0 0-.328.35l-.014.023c-.148.272-.234.646-.234 1.114 0 .806.26 1.695.68 2.474.417.773.98 1.43 1.598 1.786h.002c.29.168.56.25.796.25.16 0 .302-.04.425-.11.126-.08.238-.197.33-.353.156-.274.245-.657.245-1.136 0-.81-.26-1.695-.68-2.475-.416-.774-.982-1.43-1.6-1.786zm-.797-1.216c-.338 0-.65.087-.923.252-.268.16-.492.395-.664.694l-.02.033c-.23.414-.36.952-.36 1.586 0 .97.304 2.02.796 2.93.494.92 1.19 1.714 1.967 2.162.444.26.88.38 1.275.38.337 0 .647-.085.923-.25.267-.16.49-.395.663-.694.243-.42.38-.968.38-1.62 0-.97-.303-2.02-.797-2.934-.496-.92-1.19-1.715-1.965-2.162-.446-.26-.88-.38-1.277-.38zm38.92 45.634l.024.016c.34.195.45.51.414.796a.905.905 0 0 1-.102.315.887.887 0 0 1-.176.22l-.02.017c-.163.13-.395.166-.652.026l-.02-.01-25.912-14.964c-.34-.196-.45-.51-.414-.794a.946.946 0 0 1 .106-.315.785.785 0 0 1 .196-.236c.168-.137.405-.17.67-.02h.002l25.89 14.946zm-25.407-15.78h.002c-.666-.384-1.297-.27-1.754.095-.18.14-.33.322-.443.526a1.95 1.95 0 0 0-.21.653c-.087.638.154 1.332.885 1.753l.918.53c-.737.524-1.733.642-2.828.01l-14.787-8.54c-1.458-.84-1.944-2.242-1.78-3.516.06-.46.202-.903.416-1.3.21-.39.487-.733.814-.99.74-.593 1.776-.76 2.92-.11l.02.013L27.7 72.27h.002c1.178.682 1.72 1.728 1.8 2.776l-.758-.437zm1.72.995l24.167 13.95c.01.006.02.01.027.017.73.422.973 1.115.886 1.754-.03.232-.104.457-.214.654-.104.19-.245.362-.412.502-.01.008-.02.018-.03.025-.452.357-1.07.475-1.723.11l-.03-.015-24.103-13.916a2.6 2.6 0 0 1-.18.153c-1.043.827-2.47 1.07-4.022.175l-14.788-8.538C8.196 69.406 7.58 67.624 7.79 66c.072-.58.253-1.14.52-1.636.27-.503.632-.948 1.062-1.29 1.035-.823 2.453-1.066 3.992-.19l.032.017 14.786 8.54c1.733 1 2.382 2.63 2.284 4.165zm5.804 18.052v-.002l.002.002c.338.195.448.508.41.794a.88.88 0 0 1-.104.313.766.766 0 0 1-.196.236c-.163.13-.395.167-.652.026l-.018-.012-14.58-8.418c-.34-.195-.45-.51-.413-.795a.872.872 0 0 1 .277-.533l.02-.017c.167-.13.406-.167.67-.014l14.58 8.42zm-14.098-9.252c-.665-.384-1.294-.27-1.754.094-.01.01-.02.02-.03.027-.166.14-.306.31-.41.5-.11.2-.185.422-.216.654-.084.64.156 1.332.887 1.756l.915.53c-.734.518-1.72.638-2.805.02l-.02-.014-8.186-4.724c-1.46-.842-1.946-2.244-1.78-3.52.056-.458.2-.902.415-1.3.206-.39.483-.73.81-.992.75-.593 1.79-.758 2.94-.093l8.16 4.71.024.02c1.178.68 1.72 1.723 1.8 2.77l-.754-.436zm1.72.994l12.86 7.422c.73.423.97 1.114.885 1.75-.03.235-.105.458-.215.657a1.78 1.78 0 0 1-.442.526c-.45.357-1.07.475-1.722.11l-.03-.017-12.768-7.37c-.06.052-.12.103-.18.15-1.036.823-2.452 1.068-3.992.19a.088.088 0 0 1-.03-.016l-8.188-4.72.002-.002c-1.848-1.067-2.463-2.85-2.254-4.47a4.766 4.766 0 0 1 .52-1.64A4.183 4.183 0 0 1 9.4 76.68c1.044-.828 2.47-1.07 4.024-.173l8.158 4.71c.01.005.02.01.028.016 1.733 1 2.38 2.628 2.286 4.164zm-9.505 33.723l-2.72-3.577-2.794-3.677v-7.976l2.485-.4 2.612-.42 2.72 3.578 2.796 3.678v7.974l-2.488.4-2.61.418zm2.762.532l-2.9.464a.49.49 0 0 1-.46-.184l-2.893-3.81-2.867-3.77a.476.476 0 0 1-.127-.328v-8.544c0-.166.086-.328.242-.416l3.2-1.85a.444.444 0 0 1 .165-.057l2.896-.467 2.896-.464a.478.478 0 0 1 .458.185l2.895 3.81 2.867 3.77c.08.088.127.2.127.33v8.543c0 .17-.09.33-.24.418l-3.174 1.83a.485.485 0 0 1-.217.08l-2.87.465zm-6.257-17.062l.86-.497 2.807-.45 2.61-.42 2.723 3.576 2.794 3.675v8.11l-2.236 1.29v-7.71a.494.494 0 0 0-.125-.328l-2.867-3.773-2.895-3.806a.487.487 0 0 0-.46-.185v-.002l-2.895.467-.313.05zm3.525 11.556c-.67-.388-1.285-1.1-1.735-1.935-.455-.842-.735-1.802-.735-2.68 0-.51.094-.92.258-1.22l.015-.02c.1-.174.225-.306.367-.393a.923.923 0 0 1 .474-.125c.26 0 .555.09.875.27.093.057.185.115.274.18.09.88.39 1.79.824 2.598a6.577 6.577 0 0 0 1.368 1.777l.002.065c0 .52-.1.94-.272 1.24a1.057 1.057 0 0 1-.367.39.903.903 0 0 1-.476.125c-.26.003-.555-.084-.875-.27zm.872 1.24c-.422 0-.88-.133-1.355-.406-.828-.478-1.57-1.326-2.1-2.31-.528-.98-.855-2.103-.855-3.142 0-.677.14-1.248.388-1.69.006-.01.01-.02.02-.032.18-.314.42-.563.7-.732.29-.176.62-.266.975-.266.423 0 .882.13 1.356.404.83.48 1.57 1.328 2.103 2.31.527.98.854 2.103.854 3.14 0 .693-.147 1.275-.403 1.722a2.03 2.03 0 0 1-.705.736c-.29.173-.62.265-.978.265zm14.01-2.82l-2.02-2.653-2.092-2.754v-5.908l1.785-.286 1.91-.307 2.02 2.654 2.09 2.753v5.905l-1.784.287-1.908.306zm2.06.646l-2.194.352a.486.486 0 0 1-.46-.184l-2.192-2.886-2.165-2.85a.475.475 0 0 1-.13-.326v-6.472h.003c0-.02 0-.043.005-.065.02-.14.1-.272.236-.35l2.424-1.4a.47.47 0 0 1 .167-.06l2.193-.352 2.195-.352a.483.483 0 0 1 .457.184l2.193 2.884 2.164 2.848c.08.088.127.203.127.33v6.47a.488.488 0 0 1-.242.418l-2.415 1.394a.453.453 0 0 1-.2.07l-2.168.348zm-4.15-13.258l.09-.05 2.102-.337 1.91-.308 2.017 2.652 2.09 2.753v6.038l-1.46.843v-5.64a.49.49 0 0 0-.127-.33l-2.164-2.846-2.193-2.884a.48.48 0 0 0-.457-.184l-1.81.29zm2.124 8.87c-.488-.28-.938-.804-1.27-1.42-.335-.623-.543-1.33-.543-1.978 0-.36.065-.652.18-.86l.014-.02a.69.69 0 0 1 .237-.255.576.576 0 0 1 .3-.074c.175 0 .38.06.603.19v-.002l.002.002c.052.03.104.062.156.098a5.53 5.53 0 0 0 .633 1.958c.275.51.626.98 1.024 1.34 0 .363-.064.654-.178.86l-.013.02a.708.708 0 0 1-.238.257.587.587 0 0 1-.3.077c-.177 0-.38-.06-.605-.19zm.605 1.156c-.34 0-.71-.104-1.09-.323-.647-.374-1.226-1.033-1.638-1.797-.406-.758-.658-1.627-.658-2.434 0-.53.11-.98.304-1.33.004-.013.01-.022.016-.033a1.65 1.65 0 0 1 .574-.598c.237-.143.507-.217.798-.217.34 0 .71.103 1.086.32.647.376 1.225 1.035 1.637 1.8.41.755.66 1.626.66 2.43 0 .532-.108.982-.3 1.333l-.02.035c-.148.26-.344.46-.573.6a1.536 1.536 0 0 1-.798.217zm-1.24 18.755l-1.424-1.87-1.495-1.966v-4.145l1.19-.19 1.312-.21 1.42 1.87 1.495 1.966v4.14l-1.188.19-1.31.21zm1.462.74l-1.596.258a.477.477 0 0 1-.458-.185l-1.598-2.1-1.568-2.062a.483.483 0 0 1-.128-.326v-4.71a.49.49 0 0 1 .24-.42l2.228-1.286a.482.482 0 0 1 .166-.058l1.597-.257 1.598-.26v.003a.477.477 0 0 1 .457.184l1.597 2.1 1.565 2.06c.08.087.13.2.13.327v4.71h-.003a.483.483 0 0 1-.24.418l-2.23 1.285a.43.43 0 0 1-.177.06l-1.583.256zm-1.54-10.102l.575-.093 1.31-.21 1.42 1.868 1.497 1.968v4.274l-1.26.73v-3.878c0-.126-.05-.24-.13-.327l-1.566-2.062-1.596-2.1a.48.48 0 0 0-.25-.17zm.128 6.467l-.017-.01c-.29-.17-.56-.48-.758-.853-.205-.38-.332-.81-.332-1.2 0-.21.037-.374.1-.482v-.002a.29.29 0 0 1 .095-.103.186.186 0 0 1 .105-.026c.086 0 .19.032.307.1.286.165.554.48.756.853.205.38.332.81.332 1.197 0 .2-.034.36-.092.47l-.01.015a.276.276 0 0 1-.094.1.193.193 0 0 1-.105.027.636.636 0 0 1-.288-.09zm.288 1.054a1.542 1.542 0 0 1-.79-.233c-.444-.26-.84-.71-1.122-1.23-.275-.51-.447-1.103-.447-1.653 0-.386.084-.713.23-.97v.002a1.23 1.23 0 0 1 .43-.45 1.19 1.19 0 0 1 .604-.164c.246 0 .514.073.787.23.448.26.846.71 1.126 1.23.275.513.446 1.104.446 1.653 0 .366-.076.682-.213.933-.006.01-.01.022-.02.034-.11.193-.256.343-.43.45-.178.107-.38.164-.6.164zM44.615 99.02l.26-.15.05-.03.018-.01a2.802 2.802 0 0 1 1.267-.35v8.875h.003c0 .1.032.202.097.29l1.146 1.508.963 1.265v.56l-.74.12-.865.14-.972-1.278-1.048-1.378V99.4c0-.156-.07-.29-.18-.38zm3.802 9.808v-6.782l.002-.018v-.047h.002v-.01l.002-.006v-.008l.004-.006v-.024l.005-.004v-.007l.002-.002v-.003l.003-.003.004-.01.002-.004v-.008l.002-.005.006-.017h.002l.002-.007.002-.005v-.003l.003-.002.004-.006.002-.007v-.002l.002-.002.002-.005h.002l.003-.006.003-.007.002-.003v-.002l.004-.004.002-.005.003-.002.004-.004.002-.005v-.002l.004-.005.003-.005.002-.004h.003l.003-.007.006-.006.002-.002.002-.004.003-.003.003-.004.005-.006.004-.004h.002l.004-.006.01-.014.005-.006.006-.005c.014-.015.03-.026.04-.04l.01-.004v-.003l.01-.003.004-.003v-.003l.01-.004.008-.004h.003l.005-.007.005-.003.004-.002.005-.005.012-.005 2.362-1.378a.483.483 0 0 1 .6.083c1.265 1.352 2.347 3.072 3.102 4.914.737 1.793 1.168 3.703 1.168 5.495 0 1.32-.235 2.45-.657 3.35-.45.96-1.112 1.664-1.93 2.063l-.023.013-1.33.637a3.24 3.24 0 0 1-.2.188v9.853c1.213 1.327 2.245 2.994 2.974 4.77.74 1.795 1.17 3.705 1.17 5.496 0 1.247-.21 2.325-.59 3.2-.41.943-1.013 1.65-1.76 2.09l-2.27 1.32a3.76 3.76 0 0 1-2.38.552h-.01a.48.48 0 0 1-.482-.482v-9.18l-1.047-1.378-.193-.257v6.782h-.002a.483.483 0 0 1-.24.416l-2.367 1.38a.484.484 0 0 1-.604-.08c-1.27-1.35-2.35-3.073-3.105-4.913-.738-1.793-1.17-3.703-1.17-5.494 0-.304.014-.61.04-.92.136-1.51.606-2.71 1.323-3.54a3.88 3.88 0 0 1 1.145-.92l1.633-.926v-9.8c-1.21-1.324-2.24-2.99-2.97-4.767-.737-1.794-1.17-3.704-1.17-5.497 0-.303.015-.61.04-.92.137-1.508.607-2.71 1.324-3.54.334-.39.72-.698 1.148-.92l2.188-1.276h.002l.05-.03c.02-.013.04-.024.06-.035.33-.18.68-.31 1.054-.384a4.012 4.012 0 0 1 1.136-.06h.005a.48.48 0 0 1 .482.48v9.185l1.046 1.377.195.266zm1.235-6.663l1.532-.893c1.078 1.22 1.998 2.73 2.66 4.336.687 1.678 1.092 3.46 1.092 5.13 0 1.182-.2 2.173-.564 2.944-.34.727-.82 1.258-1.404 1.566.26-.635.438-1.373.513-2.205.03-.31.044-.616.044-.92 0-1.79-.432-3.7-1.17-5.496-.673-1.64-1.607-3.19-2.702-4.462zm1.144 15.44v9.42c0 .12.044.24.13.332 1.19 1.266 2.204 2.886 2.918 4.618.688 1.68 1.093 3.46 1.093 5.13 0 1.12-.182 2.068-.506 2.82-.324.75-.79 1.303-1.36 1.636l-.104.06c.264-.633.44-1.373.516-2.206.03-.31.043-.617.043-.92 0-1.79-.432-3.7-1.17-5.495-.73-1.776-1.76-3.444-2.972-4.77v-10.31c.507-.017.98-.12 1.415-.31zm-4.588 14.376v7.5l-1.414.823v-8.093l.74-.12.673-.107zm-2.38-32.11v8.87h.004c-.002.1.03.203.097.29l1.145 1.51 1.13 1.485c.103.15.286.238.476.207l1.148-.184 1.107-.176a.486.486 0 0 0 .445-.483v-8.03a15.984 15.984 0 0 1 2.082 3.636c.69 1.68 1.094 3.462 1.094 5.13 0 .305-.013.583-.035.838-.115 1.293-.504 2.31-1.093 2.994a2.788 2.788 0 0 1-2.177.997 3.138 3.138 0 0 1-.354-.017.48.48 0 0 0-.483.483v10.993h.002a.456.456 0 0 0 .13.33c1.187 1.267 2.203 2.886 2.914 4.618.69 1.68 1.093 3.465 1.093 5.13 0 .307-.013.586-.035.84-.116 1.293-.505 2.31-1.094 2.993a2.786 2.786 0 0 1-2.048.995v-8.872h-.002a.462.462 0 0 0-.098-.29l-1.146-1.51L47 131.16a.488.488 0 0 0-.476-.208l-1.146.185-1.11.178a.484.484 0 0 0-.445.48v8.033a15.912 15.912 0 0 1-2.084-3.638c-.69-1.68-1.095-3.462-1.095-5.13 0-.305.012-.584.035-.838.116-1.293.506-2.31 1.095-2.994a2.796 2.796 0 0 1 2.176-.998c.1 0 .19.004.27.01a.48.48 0 0 0 .564-.476v-10.992a.48.48 0 0 0-.13-.33c-1.19-1.268-2.204-2.887-2.916-4.62-.688-1.677-1.094-3.46-1.094-5.13 0-.303.013-.582.036-.836.115-1.294.506-2.31 1.095-2.994a2.79 2.79 0 0 1 2.048-.995zm23.986 4.62v-7.54h.002v-.034l.002-.007v-.02l.002-.006v-.007l.002-.004.002-.005v-.01l.002-.004v-.006l.004-.01v-.006l.002-.003v-.003l.002-.006.002-.005c.006-.016.01-.03.018-.047l.002-.003.008-.02v-.003l.007-.01v-.002l.01-.015v-.006l.005-.003.002-.004.002-.003.004-.007.01-.014v-.003l.007-.01h.003l.002-.003.003-.003.003-.006.006-.004h.002l.003-.003.004-.005.006-.006.003-.005.005-.003.003-.002.01-.006.003-.006v-.01l.004-.002.005-.005.006-.004.004-.006.002-.002.007-.006v.002l.01-.005v-.004h.006l.006-.006.008-.006v-.002l.006-.004.006-.003.032-.02.01-.004 2.58-1.506a.483.483 0 0 1 .6.082c1.38 1.472 2.557 3.348 3.382 5.353.803 1.954 1.273 4.034 1.273 5.984 0 1.355-.23 2.522-.638 3.47-.433 1.01-1.075 1.77-1.872 2.245l-.025.015-.007.004-.063.033-1.92 1.09v22.627c1.324 1.447 2.45 3.268 3.25 5.21.803 1.954 1.273 4.032 1.273 5.983 0 1.357-.23 2.53-.643 3.48-.44 1.017-1.09 1.78-1.896 2.253l-.01.007-2.5 1.456a4.06 4.06 0 0 1-2.17.603c-.115 0-.243-.006-.385-.017H68.3a.484.484 0 0 1-.483-.485V144.37l-1.15-1.516-.294-.385v7.534c0 .167-.087.33-.24.418l-2.59 1.508-.01.006a.48.48 0 0 1-.592-.087c-1.38-1.47-2.556-3.348-3.38-5.35-.803-1.957-1.272-4.036-1.272-5.987 0-.333.015-.665.044-1 .15-1.638.66-2.942 1.435-3.843.36-.417.774-.75 1.234-.99l1.81-1.024V111.03c-1.322-1.446-2.452-3.267-3.25-5.21-.802-1.95-1.27-4.03-1.27-5.982 0-.333.014-.666.043-1.002.148-1.636.658-2.94 1.434-3.84a4.2 4.2 0 0 1 1.147-.944c.227-.134.47-.285.715-.44 1.284-.803 2.68-1.677 4.255-1.554h.006c.268 0 .484.215.484.482v10.043l1.44 1.9zm1.24-7.423l1.75-1.02c1.19 1.342 2.206 3.004 2.934 4.775.755 1.84 1.197 3.79 1.197 5.62 0 1.22-.197 2.26-.554 3.09-.35.813-.855 1.42-1.474 1.793l-.048.03-.034.02-.177.1c.315-.717.523-1.56.61-2.517.03-.336.045-.672.045-1.002 0-1.95-.47-4.03-1.273-5.985-.74-1.805-1.77-3.51-2.976-4.903zm1.36 16.808v22.236c0 .12.044.238.13.33 1.304 1.39 2.415 3.16 3.193 5.06.754 1.84 1.196 3.79 1.196 5.62 0 1.227-.198 2.27-.558 3.096-.352.815-.86 1.422-1.48 1.792a.622.622 0 0 0-.056.032l-.197.113c.315-.718.526-1.562.614-2.52.03-.337.045-.67.045-1.003 0-1.948-.47-4.028-1.274-5.983-.795-1.94-1.924-3.76-3.248-5.21V114.24a4.09 4.09 0 0 0 1.632-.365zm-4.97 27.587a.492.492 0 0 0-.04.194v8.078l-1.632.952v-8.953l.845-.135.827-.134zm-2.634-46.94v9.735c0 .102.032.204.1.29l1.25 1.647 1.237 1.627c.102.15.283.238.475.21l1.252-.204 1.214-.193a.483.483 0 0 0 .446-.48v-8.9a17.38 17.38 0 0 1 2.36 4.084c.755 1.837 1.197 3.79 1.197 5.618 0 .333-.01.64-.035.918-.128 1.424-.558 2.54-1.207 3.295a3.083 3.083 0 0 1-2.41 1.105c-.11 0-.21-.004-.303-.01a.482.482 0 0 0-.567.474v23.888h.003c0 .118.04.236.13.33 1.3 1.387 2.412 3.16 3.192 5.057.756 1.84 1.198 3.793 1.198 5.62 0 .335-.012.64-.037.92-.13 1.423-.558 2.54-1.207 3.294a3.086 3.086 0 0 1-2.312 1.104v-9.734h-.002a.472.472 0 0 0-.1-.29l-1.252-1.647-1.234-1.626a.48.48 0 0 0-.475-.207l-1.25.2-1.213.195a.484.484 0 0 0-.446.483v8.898a17.304 17.304 0 0 1-2.36-4.083c-.755-1.84-1.197-3.79-1.197-5.618 0-.334.013-.64.038-.92.127-1.42.56-2.54 1.208-3.294a3.083 3.083 0 0 1 2.41-1.105c.11 0 .21.004.3.01a.482.482 0 0 0 .568-.472V110.85a.48.48 0 0 0-.134-.33c-1.297-1.387-2.41-3.16-3.19-5.058-.755-1.837-1.197-3.79-1.197-5.618 0-.334.013-.64.038-.92.13-1.424.56-2.54 1.208-3.295a3.086 3.086 0 0 1 2.313-1.104zm69.173-55.5L71.31 3.99c-1.057-.61-2.065-.957-3-1.064-.948-.106-1.82.034-2.588.4a3.942 3.942 0 0 0-.595.34l-.027.018-17.213 9.985h.043c1.324.045 2.75.44 4.105 1.22l60.647 35.016c.007.004.017.008.024.016 2.77 1.596 5.275 4.544 7.09 8.005 1.804 3.45 2.925 7.423 2.925 11.082v65.504c0 1.954-.404 3.618-1.07 4.963a9.724 9.724 0 0 1-.34.624l16.95-9.79.015-.01.095-.05c.032-.022.064-.04.095-.06l.028-.015-.002-.002c.93-.578 1.694-1.52 2.22-2.78.517-1.248.807-2.8.807-4.616v-65.5c0-3.51-1.078-7.32-2.813-10.638-1.733-3.31-4.11-6.115-6.72-7.62zM45.443 15.09l-4.732 2.743c1.134.088 2.35.48 3.61 1.21l60.646 35.014.028.014c2.767 1.6 5.274 4.546 7.087 8.008 1.805 3.45 2.928 7.423 2.928 11.08v65.508c0 2.36-.467 4.33-1.287 5.817l4.738-2.735c.912-.586 1.732-1.492 2.327-2.695.602-1.217.97-2.736.97-4.536V69.01c0-3.507-1.076-7.32-2.813-10.636-1.727-3.307-4.105-6.112-6.714-7.618l-.023-.016-60.648-35.014c-1.215-.7-2.484-1.052-3.653-1.092-.905-.03-1.748.125-2.457.454zm8.99 17.47c-.292-.168-.562-.25-.798-.25-.158 0-.3.04-.424.113a.98.98 0 0 0-.33.35c-.153.274-.243.658-.243 1.137 0 .81.26 1.696.68 2.476.417.772.982 1.427 1.6 1.784.29.168.562.25.796.25.16 0 .303-.038.426-.112a.967.967 0 0 0 .327-.35l.014-.022c.15-.272.235-.647.235-1.115 0-.806-.26-1.695-.68-2.474-.417-.774-.983-1.43-1.6-1.786zm-.798-1.215c-.336 0-.647.087-.922.25-.265.16-.49.396-.664.696h-.005c-.24.42-.38.968-.38 1.62 0 .97.306 2.02.8 2.933.495.92 1.19 1.715 1.965 2.162.448.258.88.38 1.28.38.34 0 .647-.085.922-.25.266-.163.49-.396.664-.696l.018-.033c.23-.415.363-.95.363-1.586 0-.97-.305-2.02-.797-2.933-.497-.92-1.19-1.714-1.966-2.162-.447-.258-.88-.38-1.28-.38zm-12.375-6.39c-.293-.17-.562-.25-.797-.25-.16 0-.3.04-.424.113a.932.932 0 0 0-.33.35c-.16.274-.25.656-.25 1.135 0 .81.26 1.698.68 2.477.42.77.983 1.43 1.6 1.783.293.17.563.25.798.25.157 0 .3-.04.422-.113a.964.964 0 0 0 .33-.35l.013-.02c.148-.272.233-.648.233-1.116 0-.81-.26-1.698-.68-2.477-.418-.774-.982-1.43-1.598-1.785h-.002v.002zm-.797-1.215a1.76 1.76 0 0 0-.922.25c-.264.16-.49.395-.662.694-.242.42-.38.968-.38 1.618 0 .97.305 2.02.797 2.934.497.92 1.19 1.715 1.967 2.163.448.256.88.38 1.28.38.336 0 .646-.088.922-.255.268-.16.493-.395.665-.693l.017-.034c.23-.415.363-.95.363-1.586 0-.97-.305-2.02-.797-2.934-.496-.918-1.19-1.71-1.97-2.16-.444-.26-.88-.38-1.276-.38zm7.42 5.035h.002c.613.356 1.18 1.01 1.596 1.786.42.78.68 1.67.68 2.478 0 .48-.086.862-.243 1.136a.987.987 0 0 1-.33.352.812.812 0 0 1-.424.11c-.235 0-.507-.08-.797-.248-.616-.355-1.18-1.012-1.597-1.784-.423-.78-.683-1.667-.683-2.478 0-.48.09-.862.248-1.136v-.003c.09-.152.2-.27.33-.35a.82.82 0 0 1 .424-.11c.234 0 .503.08.796.248zm-.797-1.214c.398 0 .832.12 1.278.38.776.45 1.47 1.244 1.966 2.164.493.913.797 1.964.797 2.933 0 .65-.137 1.2-.38 1.618-.173.3-.397.534-.665.696a1.76 1.76 0 0 1-.922.25c-.398 0-.83-.12-1.275-.38-.778-.446-1.473-1.24-1.97-2.16-.49-.913-.796-1.963-.796-2.934 0-.65.135-1.2.376-1.62.174-.3.4-.533.664-.694.277-.16.587-.247.925-.247zm83.456 39.878a.483.483 0 0 1 .658.174.484.484 0 0 1-.177.66l-3.98 2.298a.482.482 0 1 1-.48-.834l3.98-2.297zm0 55.266a.48.48 0 1 1 .48.832l-3.98 2.298a.48.48 0 1 1-.48-.833l3.98-2.295zm0-7.342a.483.483 0 0 1 .48.835l-3.98 2.297a.48.48 0 1 1-.48-.834l3.98-2.298zm0-7.284a.478.478 0 0 1 .658.176.48.48 0 0 1-.177.656l-3.98 2.298a.48.48 0 1 1-.48-.834l3.98-2.297zm.002-7.506a.48.48 0 0 1 .476.833l-3.978 2.3a.482.482 0 0 1-.656-.18.476.476 0 0 1 .18-.655l3.978-2.297zm-.002-7.34a.48.48 0 1 1 .48.832l-3.98 2.298a.48.48 0 1 1-.48-.834l3.98-2.297zm.002-7.286a.48.48 0 0 1 .476.833l-3.978 2.295a.48.48 0 1 1-.476-.833l3.978-2.296zm-.002-7.48a.483.483 0 0 1 .48.837l-3.98 2.298a.482.482 0 1 1-.48-.832l3.98-2.298zm.002-7.34a.484.484 0 0 1 .656.177.486.486 0 0 1-.18.66l-3.978 2.295a.48.48 0 1 1-.476-.834l3.978-2.294zm-.002-7.286a.482.482 0 0 1 .48.835l-3.98 2.296a.483.483 0 1 1-.48-.835l3.98-2.297zm5.05-6.694a.478.478 0 0 1 .655.176.48.48 0 0 1-.174.658l-9.028 5.214a.48.48 0 1 1-.482-.834l9.028-5.214zm0 66.396a.477.477 0 0 1 .655.178.478.478 0 0 1-.174.657l-9.028 5.214a.484.484 0 0 1-.482-.84l9.028-5.21zm-5.048-4.46a.48.48 0 0 1 .476.833l-3.978 2.297a.48.48 0 1 1-.476-.833l3.978-2.3zm-.002-7.378a.48.48 0 0 1 .48.835l-3.98 2.294a.48.48 0 0 1-.656-.175.48.48 0 0 1 .176-.66l3.98-2.3zm5.05-10.293a.475.475 0 0 1 .655.175.478.478 0 0 1-.174.657l-9.028 5.213a.482.482 0 1 1-.482-.834l9.028-5.21zm-5.05-4.464a.482.482 0 0 1 .48.835l-3.98 2.3a.482.482 0 0 1-.48-.836l3.98-2.297zm.002-7.377a.48.48 0 0 1 .476.832l-3.978 2.3a.484.484 0 0 1-.656-.18.475.475 0 0 1 .18-.654l3.978-2.3zm5.047-10.294a.48.48 0 0 1 .66.176.48.48 0 0 1-.175.66l-9.028 5.213a.482.482 0 1 1-.482-.835l9.027-5.213zm-5.044-4.463a.48.48 0 0 1 .476.833l-3.977 2.3a.48.48 0 1 1-.476-.835l3.977-2.297z"/></svg>