<svg xmlns="http://www.w3.org/2000/svg" width="210" height="210" viewBox="-10.421 -4 210 210" overflow="visible"><path class="icon-bg" fill-rule="evenodd" clip-rule="evenodd" fill="#ECEDED" d="M189.738 138.43v8.39h-.1c-.61 4.374-3.94 8.817-9.882 12.33l-62.344 36.866c-12.245 7.24-31.144 7.916-41.997 1.498L8.007 157.652C3.095 154.748.64 150.867.56 146.818v-.005c-.002-.05 0-.097 0-.146v-6.878c.443 3.604 2.828 7.005 7.226 9.606L75.64 189.52c10.73 6.347 29.528 5.612 41.774-1.628l62.344-36.865c6.08-3.595 9.446-8.147 9.98-12.596zm-77.477-5.02a26.68 26.68 0 0 0 3.48-2.396c-.176-.203-.35-.406-.53-.605l-.09-.1c-.174-.196-.35-.39-.525-.58l-.034-.036c-.082-.09-.166-.178-.25-.266l-.004-.007-.092-.095-.007-.01-.16-.168-.017-.016-.096-.096-.024-.025-.16-.167-.093-.096-.093-.093-.104-.104-.193-.193-.123-.12-.177-.175-.147-.144-.17-.163-.14-.133-.202-.19-.064-.06-.264-.246-.027-.026-.004-.002-.027-.023-.265-.244-.07-.06-.265-.24-.023-.02-.282-.25-.06-.053-.274-.24-.012-.012h-.002l-.28-.242-.04-.034-.06-.05-.245-.21-.02-.018-.028-.023-.298-.25v-23.776c10.574 8.812 20.687 23.542 20.687 39.806v19.34l3.636-2.15v-19.34c0-6.985-1.865-13.69-4.832-19.76l2.955-1.75v-16.813c0-9.476-3.433-15.22-8.39-17.63-.502 7.464-1.236 15.608-2.017 24.652l.24.29a64.02 64.02 0 0 0-3.413-3.893c.727-9.454 1.125-17.966 1.212-25.676-2.533 3.02-6.283 5.315-11.66 6.615a25.66 25.66 0 0 1-1.9.382c-.033 15.298-.57 32.39-1.598 51.242a33.343 33.343 0 0 0 7.64-3.26zm16.878-14.275c-.127-.258-.24-.485 0 0zM103.792 35.62c-1.183-9.633-2.805-17.756-4.888-24.345-3.526-11.156 1.747-4.062 3.98-1.11 5.534 7.316 9.813 15.518 12.684 26.152-2.324-1.183-4.928-1.577-7.453-1.367-1.493.123-2.934.35-4.323.67zm-24.014 89.287v-22.512c-5.402 4.665-10.62 10.868-14.332 18.012-3.286 6.323-5.39 13.38-5.39 20.753v18.493l6.243-3.7v-6.49c0-5.387 1.67-10.112 4.216-14.225 2.493-4.02 5.827-7.45 9.26-10.33zm35.114 7.17a27.912 27.912 0 0 1-2.63 1.75c-12.147 7.183-27.485 5.435-36.67.062-12.513 9.392 8.515 19.14 20.157 18.28 25.41-1.87 27.794-13.276 19.14-20.094zM.56 137.29v-.23h.03c-.01.077-.023.15-.03.23z"/><path class="icon-border" fill-rule="evenodd" clip-rule="evenodd" fill="#A1A4A7" d="M93.21 63.01c1.41 1.358 2.826 2.72 4.238 4.095 1.025.997 2.922 2.848 4.454 4.323a46.446 46.446 0 0 0 6.24-1.152 943.967 943.967 0 0 1-7.21-6.694c-2.596-2.434-5.154-4.917-7.722-7.37v6.797zm-50.55 43.254l12.332 7.292v-12.423c0-.75.02-1.484.06-2.198l-12.393 7.33zm12.332 8.413v2.578h.004c0 .823.424 1.626 1.185 2.075l1.49.883a53.662 53.662 0 0 0-1.272 3.168c-1.81 4.956-2.87 10.214-2.87 15.63v19.34h.003c0 .826.424 1.627 1.184 2.077l.666.394-13.668 8.08L8.03 148.984c-2.596-1.535-4.467-3.35-5.63-5.314-1.007-1.71-1.48-3.53-1.435-5.39.05-1.86.627-3.763 1.725-5.616 1.604-2.71 4.31-5.318 8.096-7.556l30.926-18.288 13.28 7.854zm1.333 46.702l-13.666 8.08 33.222 19.644c5.284 3.125 12.572 4.506 20.058 4.215 7.495-.29 15.174-2.264 21.23-5.843l30.47-18.018-13.834-8.18-2.19 1.293c-.795.47-1.75.432-2.486-.02l-7.175-4.252a2.414 2.414 0 0 1-1.185-2.073h-.004v-2.66l-21.752-12.863a41.62 41.62 0 0 1-8.022.175L69.2 153.765v2.463c0 .935-.536 1.75-1.318 2.15l-7.08 4.192a2.405 2.405 0 0 1-2.483-.018l-1.997-1.177zm78.426-.66l.37-.22a2.408 2.408 0 0 0 1.32-2.15v-19.34c0-5.856-1.24-11.516-3.31-16.8a64.396 64.396 0 0 0-.833-2l1.077-.638a2.41 2.41 0 0 0 1.186-2.076h.003v-2.382l14.023-8.293 33.682 19.918c2.594 1.532 4.466 3.347 5.628 5.31 1.01 1.708 1.485 3.533 1.437 5.388-.05 1.86-.627 3.763-1.725 5.616-1.604 2.713-4.31 5.318-8.095 7.557l-30.928 18.29-13.834-8.18zm-.186-46.726l13.076-7.732-13.138-7.77c.04.71.062 1.44.062 2.192v13.31zm-.147-16.67l48.342 28.585c2.74 1.62 4.724 3.55 5.97 5.65 1.1 1.866 1.62 3.864 1.565 5.9-.01.33-.032.66-.072.993v8.363a.483.483 0 0 1-.148.35c-.366 2.223-1.402 4.45-3.095 6.562-1.68 2.095-4.01 4.08-6.976 5.834l-31.146 18.417a.212.212 0 0 1-.052.03l-31.146 18.42c-6.193 3.66-14.063 5.662-21.75 5.936-7.7.274-15.233-1.184-20.74-4.44l-33.677-19.914-.052-.03-33.68-19.915c-2.47-1.462-4.34-3.17-5.613-5.026-1.33-1.933-2.016-4.025-2.066-6.166a.345.345 0 0 1-.004-.057v-.005l.002-.04v-.106H.075v-6.85a11.215 11.215 0 0 1-.072-1.557c.01-.334.034-.667.072-1v-.202a.48.48 0 0 1 .06-.234c.246-1.56.823-3.125 1.726-4.652 1.687-2.848 4.51-5.57 8.44-7.895L55.14 97.76c.23-2.564.724-4.865 1.44-6.903 1.237-3.517 3.13-6.237 5.47-8.17-2.216-33.61.068-52.784 23.68-78.3h-.003c.588-.67 1.24-1.306 1.94-1.865C89.384 1.16 91.454.168 93.733.02c2.328-.152 4.78.568 7.152 2.644a15.65 15.65 0 0 1 1.91 2.004c22.954 24.697 25.562 44.45 23.475 77.035.22.14.438.288.653.442 2.64 1.88 4.762 4.692 6.096 8.483.69 1.97 1.166 4.2 1.393 6.697zM1.042 143.157v3.51H1.04v.103c.002.016.002.027.002.044v.005c.04 1.962.668 3.89 1.895 5.673 1.2 1.743 2.968 3.355 5.316 4.743l32.977 19.5v-7.003l-33.69-19.92c-2.74-1.62-4.725-3.55-5.97-5.655-.193-.328-.37-.662-.528-1zm41.153 34.15v-7.002l33.198 19.63c5.445 3.22 12.922 4.647 20.58 4.348 7.65-.3 15.494-2.314 21.686-5.977l30.44-18v7L117.167 195.6c-6.054 3.578-13.758 5.535-21.293 5.806-7.525.267-14.87-1.147-20.215-4.31l-33.466-19.79zm106.873-.57l30.443-18.002c2.867-1.694 5.108-3.604 6.717-5.61 1.646-2.053 2.627-4.21 2.93-6.343a.488.488 0 0 1 .1-.26v-4.57a14.875 14.875 0 0 1-.818 1.596c-1.684 2.846-4.507 5.57-8.436 7.892l-30.934 18.293v7.003zm-48.522-36.246c4.44-.7 8.855-2.172 12.942-4.59.722-.426 1.398-.86 2.03-1.3 1.336 1.804 2.497 3.745 3.383 5.83a22.78 22.78 0 0 1 1.866 9.03v2.987l-20.218-11.956zm-31.348 12.156v-3.184c0-3.067.6-5.88 1.62-8.454.76-1.916 1.76-3.722 2.923-5.42 4.208 2.602 9.69 4.475 15.615 5.14L69.2 152.646zm54.656-81.234c-.265 9.436-1.18 19.978-2.243 32.2l-.25 2.887a63.438 63.438 0 0 0-7.712-7.663.477.477 0 0 0-.552-.044l-3.636 2.15a.487.487 0 0 0-.24.415v23.776c0 .166.083.31.21.398 2.07 1.726 4.102 3.65 5.934 5.786-.9.71-1.932 1.41-3.102 2.096a33.464 33.464 0 0 1-7.64 3.26l.004-.053c-4.64 1.373-9.45 1.736-14.006 1.335-4.836-.426-9.377-1.713-13.106-3.57a26.133 26.133 0 0 1-3.647-2.183c2.015-2.49 4.32-4.71 6.67-6.67a.483.483 0 0 0 .21-.398v-23.777a.486.486 0 0 0-.238-.415l-3.638-2.15v.002a.48.48 0 0 0-.552.044A63.975 63.975 0 0 0 67 108.47c-.187-2.265-.37-4.47-.55-6.617-3.82-45.825-5.557-66.65 21.906-96.046l.005-.007c1.67-1.73 3.47-2.844 5.38-2.968 1.907-.125 3.96.74 6.155 2.964 11.452 12.125 17.83 23.032 21.094 34.936a13.518 13.518 0 0 0-2.75-3.22c-2.93-2.482-6.62-3.34-10.16-3.044-8.113.675-14.75 4.305-19.414 9.39-5.12 5.584-7.862 12.926-7.565 20.043.07 1.628.3 3.246.68 4.82 1.18 4.868 3.798 9.346 7.528 12.55 3.742 3.21 8.6 5.15 14.242 4.91 1.51-.06 3.07-.28 4.685-.67 6.752-1.63 11-4.81 13.514-9.023.93-1.564 1.62-3.263 2.11-5.078zM58.91 117.587a61.317 61.317 0 0 1 5.23-8.526c-.174-2.11-.378-4.564-.578-6.962-.463-5.55-.895-10.738-1.25-15.626-1.232 1.43-2.254 3.21-3.004 5.343-.908 2.583-1.418 5.69-1.418 9.32v15.85l1.02.604zm67.125-32.475c-.415 5.82-.954 12.038-1.54 18.758l-.266 3.084c2.563 3.237 4.9 6.808 6.824 10.634l.607-.36V100.69c0-3.573-.492-6.602-1.373-9.106-.982-2.796-2.45-4.943-4.255-6.47zm-15.85 17.287c5.403 4.664 10.62 10.867 14.332 18.01 3.285 6.323 5.39 13.38 5.39 20.753v18.494l-6.243-3.7v-6.49c0-5.387-1.67-10.112-4.218-14.225-2.493-4.02-5.827-7.45-9.26-10.33V102.4zm3.106-2.605c5.59 4.714 11.03 11.09 14.86 18.466 3.29 6.32 5.39 13.38 5.39 20.75v19.068l-2.666 1.578V141.16c0-7.538-2.146-14.746-5.5-21.198-3.833-7.375-9.25-13.77-14.84-18.538l2.76-1.632zm-46.99 56.16l-6.24 3.7V141.16c0-7.372 2.102-14.43 5.39-20.753.055-.11.113-.22.17-.33l.003-.004.173-.323.005-.01c.06-.105.115-.21.174-.32l.006-.01.17-.314.01-.018.173-.307.01-.02.04-.066.146-.257v-.002l.17-.297.017-.03.063-.11.12-.203.007-.01.167-.285.023-.038.065-.108.12-.197.064-.106.13-.21.008-.017.166-.267.01-.018.1-.157.11-.174.055-.086.15-.237.055-.087.13-.2.116-.177.09-.136.097-.148.115-.174.088-.128.11-.166.105-.155.11-.16.09-.13.12-.175.084-.117.133-.19.087-.123.114-.16.113-.157.103-.143.125-.17.087-.12.128-.173.092-.126.113-.15.113-.154.11-.146.1-.13.133-.174.09-.117.136-.178.085-.113.12-.154.11-.14.145-.182.06-.076.16-.2.075-.09.145-.183.093-.11.136-.166.08-.1.156-.19.077-.095.146-.175.08-.094.162-.19.064-.076.162-.19.08-.096.156-.18.064-.073.177-.2.06-.068.17-.196.068-.074.18-.2.044-.05.18-.2.076-.084.157-.172.083-.09.162-.177.073-.08.155-.163.092-.098.182-.193.012-.013.223-.233.033-.037.187-.194.087-.09.156-.158.09-.092.157-.157.074-.076.18-.18.05-.053.197-.19.054-.053.186-.18.07-.07.19-.187.02-.017.225-.215.034-.033.2-.19.07-.065.186-.174.04-.037.216-.2.016-.015.23-.21.033-.03.204-.187.073-.066.184-.165.033-.03.21-.187.06-.05c.136-.12.276-.243.415-.362v22.512c-2.352 1.978-4.66 4.21-6.68 6.713l-.01.014-.01.01-.01.014-.01.012-.01.01-.01.013-.008.013-.01.012-.01.012-.01.01-.01.01-.01.014-.01.013-.007.012-.01.01-.047.06-.01.013-.01.01-.01.015-.01.01-.02.026-.008.01-.01.014-.064.082-.01.01-.01.013-.006.01-.01.013-.01.012-.008.013-.01.01-.01.013-.01.01-.01.014-.018.024-.01.01-.01.014-.008.012-.01.012-.01.012-.01.014-.01.012-.01.01-.01.014-.007.01-.01.013-.01.014-.01.012-.008.012-.01.012-.008.014-.01.012a34.722 34.722 0 0 0-1.982 2.86c-2.55 4.113-4.22 8.84-4.22 14.226v6.476h.01zm-7.21 3.7V141.16c0-7.538 2.148-14.746 5.5-21.198 3.834-7.376 9.25-13.77 14.843-18.538l-2.76-1.632c-5.59 4.714-11.026 11.09-14.86 18.466-3.287 6.322-5.39 13.38-5.39 20.752v19.066l2.67 1.578zM122.804 49.73c-.966-.456-1.92-1.102-2.894-1.8-.98 1.044-2.326 2.076-4.075 3.077 2.284 2.044 5.07 4.297 7.748 5.824.03.39.057.78.082 1.175a1 1 0 0 0-.22-.177c-1.585-1.016-2.19-1.436-3.778-2.622-1.585-1.184-3.142-2.44-4.706-3.718-.34.18-.694.358-1.063.535a35.68 35.68 0 0 1-4.07 1.648c2.02 1.83 4.057 3.656 6.097 5.41 1.493 1.284 2.102 1.776 3.593 2.99 2.318 1.89 3.715 1.106 4.33-.286.156 5.398-.592 10.288-2.932 14.21-2.383 4-6.44 7.02-12.914 8.586-1.55.372-3.05.58-4.495.642-5.38.225-10.012-1.62-13.578-4.68C86.352 77.47 83.84 73.17 82.71 68.5a23.867 23.867 0 0 1-.653-4.635C81.77 57 84.42 49.91 89.37 44.513c4.512-4.917 10.933-8.428 18.785-9.083 3.307-.276 6.745.52 9.46 2.818 2.29 1.942 4.075 4.968 4.842 9.344.124.71.238 1.42.346 2.136zM93.21 64.694c1.045 1.008 2.092 2.017 3.137 3.035.907.88 2.578 2.56 3.89 3.86a52.44 52.44 0 0 1-7.025.1v-7zm9.613-9.352a41.37 41.37 0 0 0 5.928-1.326c1.806 1.692 3.61 3.302 5.425 4.92 1.867 1.667 2.748 2.395 4.61 4.02.89.76.89 2.455 0 3.755-.886 1.24-2.34 1.588-3.24.79-2.403-2.25-3.81-3.597-6.218-5.883-2.17-2.06-4.34-4.15-6.502-6.273zm-1.492.198c.89.834 1.78 1.663 2.67 2.5.895.84 1.792 1.684 2.685 2.503.938.848.947 2.43.014 3.503-.935 1.038-2.468 1.135-3.4.24-1.468-1.384-2.933-2.76-4.388-4.196-1.446-1.427-2.897-2.85-4.343-4.267a47.43 47.43 0 0 0 6.737-.28l.027-.003z"/></svg>