<svg width="1254" height="165" viewBox="0 0 1254 165" fill="none" xmlns="http://www.w3.org/2000/svg">
<g filter="url(#filter0_d)">
<path d="M269.798 20.5234L294.034 67.5939L269.798 114.664H40.0262C29.2471 114.664 20.5088 106.234 20.5088 95.8362V39.3516C20.5088 28.9534 29.247 20.5234 40.0262 20.5234H269.798Z" fill="#5330DF"/>
</g>
<g filter="url(#filter1_d)">
<path d="M276.536 20.5234L300.771 67.5939L276.536 114.664H524.677L548.912 67.5939L524.677 20.5234H276.536Z" fill="#C2327B"/>
</g>
<g filter="url(#filter2_d)">
<path d="M531.414 20.5234L555.649 67.5939L531.414 114.664H901.751L925.986 67.5939L901.751 20.5234H531.414Z" fill="#F46234"/>
</g>
<g filter="url(#filter3_d)">
<path d="M908.488 20.5234L932.723 67.5939L908.488 114.664H1194.16C1204.94 114.664 1213.68 106.234 1213.68 95.8362V39.3516C1213.68 28.9534 1204.94 20.5234 1194.16 20.5234H908.488Z" fill="#F9952E"/>
</g>
<path d="M104.166 53.7866C106.903 53.7866 109.004 54.519 110.469 55.9838C111.934 57.4245 112.666 59.3095 112.666 61.6388C112.666 64.0401 111.934 65.9851 110.469 67.4739C109.004 68.9387 106.903 69.671 104.166 69.671H99.9877V79H95.3773V53.7866H104.166ZM103.662 65.4208C104.934 65.4208 105.931 65.1086 106.651 64.4843C107.372 63.8359 107.732 62.8995 107.732 61.6748C107.732 60.4742 107.372 59.5737 106.651 58.9734C105.931 58.349 104.934 58.0369 103.662 58.0369H99.9877V65.4208H103.662ZM124.413 61.8549V66.6094H123.908C122.107 66.6094 120.787 67.0417 119.946 67.9061C119.106 68.7706 118.686 70.1993 118.686 72.1924V79H114.291V62.3592H118.65V65.889H118.722C119.61 63.1996 121.447 61.8549 124.233 61.8549H124.413ZM127.449 64.3042C129.202 62.6473 131.411 61.8189 134.076 61.8189C136.742 61.8189 138.939 62.6473 140.668 64.3042C142.421 65.9611 143.297 68.0862 143.297 70.6796C143.297 73.273 142.421 75.3981 140.668 77.055C138.939 78.7118 136.742 79.5403 134.076 79.5403C131.411 79.5403 129.202 78.7118 127.449 77.055C125.72 75.3981 124.855 73.273 124.855 70.6796C124.855 68.0862 125.72 65.9611 127.449 64.3042ZM137.426 67.2938C136.561 66.4293 135.445 65.9971 134.076 65.9971C132.707 65.9971 131.579 66.4293 130.69 67.2938C129.826 68.1342 129.394 69.2628 129.394 70.6796C129.394 72.0963 129.826 73.2369 130.69 74.1014C131.579 74.9418 132.707 75.3621 134.076 75.3621C135.445 75.3621 136.561 74.9418 137.426 74.1014C138.29 73.2369 138.723 72.0963 138.723 70.6796C138.723 69.2628 138.29 68.1342 137.426 67.2938ZM156.281 79.5403C153.736 79.5403 151.887 78.5798 150.734 76.6588H150.662V79H146.232V53.7866H150.662V64.7004H150.734C151.887 62.7794 153.736 61.8189 156.281 61.8189C158.562 61.8189 160.459 62.6113 161.972 64.1961C163.509 65.781 164.277 67.9421 164.277 70.6796C164.277 73.417 163.509 75.5782 161.972 77.163C160.459 78.7479 158.562 79.5403 156.281 79.5403ZM151.887 74.0654C152.727 74.9298 153.82 75.3621 155.165 75.3621C156.509 75.3621 157.59 74.9298 158.406 74.0654C159.247 73.2009 159.667 72.0723 159.667 70.6796C159.667 69.2868 159.247 68.1582 158.406 67.2938C157.59 66.4293 156.509 65.9971 155.165 65.9971C153.82 65.9971 152.727 66.4293 151.887 67.2938C151.07 68.1582 150.662 69.2868 150.662 70.6796C150.662 72.0723 151.07 73.2009 151.887 74.0654ZM171.662 53.7866V79H167.231V53.7866H171.662ZM183.308 61.8189C185.853 61.8189 187.834 62.5993 189.251 64.1601C190.667 65.6969 191.376 67.8821 191.376 70.7156V71.5801H178.949C179.069 72.8527 179.55 73.8493 180.39 74.5696C181.254 75.266 182.335 75.6142 183.632 75.6142C185.433 75.6142 187.09 74.8578 188.602 73.345L190.836 76.5507C188.674 78.5438 186.273 79.5403 183.632 79.5403C180.918 79.5403 178.745 78.7359 177.112 77.127C175.479 75.5182 174.663 73.381 174.663 70.7156C174.663 68.0502 175.455 65.901 177.04 64.2682C178.625 62.6353 180.714 61.8189 183.308 61.8189ZM183.091 65.3848C180.762 65.3848 179.417 66.5014 179.057 68.7345H186.909C186.837 67.678 186.453 66.8616 185.757 66.2852C185.084 65.6849 184.196 65.3848 183.091 65.3848ZM194.173 79V62.3592H198.532V64.8805H198.604C199.54 62.8394 201.233 61.8189 203.683 61.8189C206.18 61.8189 207.885 62.9235 208.797 65.1326H208.869C209.974 62.9235 211.787 61.8189 214.308 61.8189C216.013 61.8189 217.406 62.3832 218.486 63.5118C219.567 64.6404 220.107 66.2852 220.107 68.4464V79H215.677V69.3829C215.677 67.0777 214.668 65.9251 212.651 65.9251C210.418 65.9251 209.302 67.4619 209.302 70.5355V79H204.943V69.3829C204.943 67.0777 203.947 65.9251 201.954 65.9251C199.696 65.9251 198.568 67.4739 198.568 70.5715V79H194.173ZM355.854 54.9752C357.174 53.8226 359.023 53.2463 361.401 53.2463C363.778 53.2463 366.239 53.8346 368.785 55.0113L366.804 59.2255C364.787 58.193 362.998 57.6767 361.437 57.6767C359.684 57.6767 358.807 58.289 358.807 59.5137C358.807 59.9939 358.951 60.4261 359.24 60.8103C359.528 61.1705 360.032 61.6028 360.752 62.107L365.111 65.1687C366.575 66.1772 367.656 67.2338 368.352 68.3383C369.073 69.4189 369.433 70.7276 369.433 72.2644C369.433 74.6177 368.665 76.4186 367.128 77.6673C365.615 78.916 363.514 79.5403 360.824 79.5403C357.631 79.5403 354.725 78.7239 352.108 77.091L354.161 72.8767C356.658 74.3415 358.927 75.0739 360.968 75.0739C362.121 75.0739 362.998 74.8458 363.598 74.3896C364.222 73.9093 364.534 73.285 364.534 72.5166C364.534 71.9162 364.33 71.376 363.922 70.8957C363.514 70.4154 362.866 69.8511 361.977 69.2028L357.907 66.2852C355.241 64.4603 353.909 62.2511 353.909 59.6577C353.909 57.6647 354.557 56.1038 355.854 54.9752ZM374.025 64.3042C375.778 62.6473 377.987 61.8189 380.652 61.8189C383.318 61.8189 385.515 62.6473 387.244 64.3042C388.997 65.9611 389.873 68.0862 389.873 70.6796C389.873 73.273 388.997 75.3981 387.244 77.055C385.515 78.7118 383.318 79.5403 380.652 79.5403C377.987 79.5403 375.778 78.7118 374.025 77.055C372.296 75.3981 371.431 73.273 371.431 70.6796C371.431 68.0862 372.296 65.9611 374.025 64.3042ZM384.002 67.2938C383.138 66.4293 382.021 65.9971 380.652 65.9971C379.284 65.9971 378.155 66.4293 377.267 67.2938C376.402 68.1342 375.97 69.2628 375.97 70.6796C375.97 72.0963 376.402 73.2369 377.267 74.1014C378.155 74.9418 379.284 75.3621 380.652 75.3621C382.021 75.3621 383.138 74.9418 384.002 74.1014C384.867 73.2369 385.299 72.0963 385.299 70.6796C385.299 69.2628 384.867 68.1342 384.002 67.2938ZM397.238 53.7866V79H392.808V53.7866H397.238ZM407.227 79.5403C405.402 79.5403 403.914 78.964 402.761 77.8114C401.632 76.6588 401.068 74.9058 401.068 72.5526V62.3592H405.607V71.7602C405.607 74.2335 406.651 75.4701 408.74 75.4701C411.19 75.4701 412.414 73.7652 412.414 70.3554V62.3592H416.845V79H412.486V76.4426H412.414C411.262 78.5077 409.533 79.5403 407.227 79.5403ZM430.172 66.0691H426.75V73.0568C426.75 73.7292 426.882 74.2095 427.147 74.4976C427.411 74.7858 427.867 74.9298 428.515 74.9298H429.272V79.036H427.327C425.718 79.036 424.481 78.6278 423.617 77.8114C422.752 76.9709 422.32 75.7343 422.32 74.1014V66.0691H419.258V62.3592H422.32V55.6956H426.75V62.3592H430.172V66.0691ZM437.592 54.0027V58.8653H432.549V54.0027H437.592ZM432.837 79V62.3592H437.267V79H432.837ZM442.862 64.3042C444.615 62.6473 446.824 61.8189 449.49 61.8189C452.155 61.8189 454.352 62.6473 456.081 64.3042C457.834 65.9611 458.711 68.0862 458.711 70.6796C458.711 73.273 457.834 75.3981 456.081 77.055C454.352 78.7118 452.155 79.5403 449.49 79.5403C446.824 79.5403 444.615 78.7118 442.862 77.055C441.133 75.3981 440.269 73.273 440.269 70.6796C440.269 68.0862 441.133 65.9611 442.862 64.3042ZM452.839 67.2938C451.975 66.4293 450.858 65.9971 449.49 65.9971C448.121 65.9971 446.992 66.4293 446.104 67.2938C445.239 68.1342 444.807 69.2628 444.807 70.6796C444.807 72.0963 445.239 73.2369 446.104 74.1014C446.992 74.9418 448.121 75.3621 449.49 75.3621C450.858 75.3621 451.975 74.9418 452.839 74.1014C453.704 73.2369 454.136 72.0963 454.136 70.6796C454.136 69.2628 453.704 68.1342 452.839 67.2938ZM471.443 61.8189C473.364 61.8189 474.888 62.3952 476.017 63.5478C477.146 64.6764 477.71 66.4053 477.71 68.7345V79H473.279V69.7791C473.279 67.2097 472.139 65.9251 469.858 65.9251C467.264 65.9251 465.968 67.5699 465.968 70.8597V79H461.573V62.3592H465.932V64.8805H466.004C467.204 62.8394 469.017 61.8189 471.443 61.8189ZM616.356 53.7866V79H611.71V53.7866H616.356ZM620.669 79V62.3592H625.028V64.8805H625.1C626.036 62.8394 627.729 61.8189 630.179 61.8189C632.676 61.8189 634.381 62.9235 635.293 65.1326H635.365C636.47 62.9235 638.283 61.8189 640.804 61.8189C642.509 61.8189 643.902 62.3832 644.982 63.5118C646.063 64.6404 646.603 66.2852 646.603 68.4464V79H642.173V69.3829C642.173 67.0777 641.164 65.9251 639.147 65.9251C636.914 65.9251 635.797 67.4619 635.797 70.5355V79H631.439V69.3829C631.439 67.0777 630.443 65.9251 628.45 65.9251C626.192 65.9251 625.064 67.4739 625.064 70.5715V79H620.669ZM650.287 86.2038V62.3592H654.681V64.7004H654.753C655.906 62.7794 657.755 61.8189 660.3 61.8189C662.581 61.8189 664.478 62.6113 665.991 64.1961C667.528 65.781 668.296 67.9421 668.296 70.6796C668.296 73.417 667.528 75.5782 665.991 77.163C664.478 78.7479 662.581 79.5403 660.3 79.5403C657.755 79.5403 655.906 78.5798 654.753 76.6588H654.681V86.2038H650.287ZM655.906 74.0654C656.746 74.9298 657.839 75.3621 659.183 75.3621C660.528 75.3621 661.609 74.9298 662.425 74.0654C663.266 73.2009 663.686 72.0723 663.686 70.6796C663.686 69.2868 663.266 68.1582 662.425 67.2938C661.609 66.4293 660.528 65.9971 659.183 65.9971C657.839 65.9971 656.746 66.4293 655.906 67.2938C655.089 68.1582 654.681 69.2868 654.681 70.6796C654.681 72.0723 655.089 73.2009 655.906 74.0654ZM675.683 53.7866V79H671.253V53.7866H675.683ZM687.329 61.8189C689.874 61.8189 691.855 62.5993 693.272 64.1601C694.689 65.6969 695.397 67.8821 695.397 70.7156V71.5801H682.971C683.091 72.8527 683.571 73.8493 684.411 74.5696C685.276 75.266 686.356 75.6142 687.653 75.6142C689.454 75.6142 691.111 74.8578 692.624 73.345L694.857 76.5507C692.696 78.5438 690.295 79.5403 687.653 79.5403C684.94 79.5403 682.767 78.7359 681.134 77.127C679.501 75.5182 678.684 73.381 678.684 70.7156C678.684 68.0502 679.477 65.901 681.062 64.2682C682.647 62.6353 684.736 61.8189 687.329 61.8189ZM687.113 65.3848C684.784 65.3848 683.439 66.5014 683.079 68.7345H690.931C690.859 67.678 690.475 66.8616 689.778 66.2852C689.106 65.6849 688.217 65.3848 687.113 65.3848ZM698.195 79V62.3592H702.553V64.8805H702.625C703.562 62.8394 705.255 61.8189 707.704 61.8189C710.201 61.8189 711.906 62.9235 712.819 65.1326H712.891C713.995 62.9235 715.808 61.8189 718.33 61.8189C720.035 61.8189 721.427 62.3832 722.508 63.5118C723.588 64.6404 724.129 66.2852 724.129 68.4464V79H719.698V69.3829C719.698 67.0777 718.69 65.9251 716.673 65.9251C714.44 65.9251 713.323 67.4619 713.323 70.5355V79H708.965V69.3829C708.965 67.0777 707.968 65.9251 705.975 65.9251C703.718 65.9251 702.589 67.4739 702.589 70.5715V79H698.195ZM735.448 61.8189C737.994 61.8189 739.975 62.5993 741.391 64.1601C742.808 65.6969 743.517 67.8821 743.517 70.7156V71.5801H731.09C731.21 72.8527 731.69 73.8493 732.531 74.5696C733.395 75.266 734.476 75.6142 735.773 75.6142C737.573 75.6142 739.23 74.8578 740.743 73.345L742.976 76.5507C740.815 78.5438 738.414 79.5403 735.773 79.5403C733.059 79.5403 730.886 78.7359 729.253 77.127C727.62 75.5182 726.804 73.381 726.804 70.7156C726.804 68.0502 727.596 65.901 729.181 64.2682C730.766 62.6353 732.855 61.8189 735.448 61.8189ZM735.232 65.3848C732.903 65.3848 731.558 66.5014 731.198 68.7345H739.05C738.978 67.678 738.594 66.8616 737.898 66.2852C737.225 65.6849 736.337 65.3848 735.232 65.3848ZM756.184 61.8189C758.105 61.8189 759.629 62.3952 760.758 63.5478C761.887 64.6764 762.451 66.4053 762.451 68.7345V79H758.021V69.7791C758.021 67.2097 756.88 65.9251 754.599 65.9251C752.005 65.9251 750.709 67.5699 750.709 70.8597V79H746.314V62.3592H750.673V64.8805H750.745C751.945 62.8394 753.758 61.8189 756.184 61.8189ZM774.746 66.0691H771.324V73.0568C771.324 73.7292 771.456 74.2095 771.72 74.4976C771.984 74.7858 772.441 74.9298 773.089 74.9298H773.845V79.036H771.9C770.291 79.036 769.055 78.6278 768.19 77.8114C767.326 76.9709 766.894 75.7343 766.894 74.1014V66.0691H763.832V62.3592H766.894V55.6956H771.324V62.3592H774.746V66.0691ZM783.693 79.5403C781.412 79.5403 779.503 78.7479 777.966 77.163C776.453 75.5782 775.697 73.417 775.697 70.6796C775.697 67.9421 776.453 65.781 777.966 64.1961C779.503 62.6113 781.412 61.8189 783.693 61.8189C786.238 61.8189 788.087 62.7794 789.24 64.7004H789.312V62.3592H793.706V79H789.312V76.6588H789.24C788.087 78.5798 786.238 79.5403 783.693 79.5403ZM781.532 74.0654C782.372 74.9298 783.465 75.3621 784.81 75.3621C786.154 75.3621 787.235 74.9298 788.051 74.0654C788.892 73.2009 789.312 72.0723 789.312 70.6796C789.312 69.2868 788.892 68.1582 788.051 67.2938C787.235 66.4293 786.154 65.9971 784.81 65.9971C783.465 65.9971 782.372 66.4293 781.532 67.2938C780.716 68.1582 780.307 69.2868 780.307 70.6796C780.307 72.0723 780.716 73.2009 781.532 74.0654ZM806.966 66.0691H803.544V73.0568C803.544 73.7292 803.676 74.2095 803.94 74.4976C804.205 74.7858 804.661 74.9298 805.309 74.9298H806.065V79.036H804.12C802.512 79.036 801.275 78.6278 800.41 77.8114C799.546 76.9709 799.114 75.7343 799.114 74.1014V66.0691H796.052V62.3592H799.114V55.6956H803.544V62.3592H806.966V66.0691ZM814.385 54.0027V58.8653H809.343V54.0027H814.385ZM809.631 79V62.3592H814.061V79H809.631ZM819.656 64.3042C821.409 62.6473 823.618 61.8189 826.283 61.8189C828.949 61.8189 831.146 62.6473 832.875 64.3042C834.628 65.9611 835.504 68.0862 835.504 70.6796C835.504 73.273 834.628 75.3981 832.875 77.055C831.146 78.7118 828.949 79.5403 826.283 79.5403C823.618 79.5403 821.409 78.7118 819.656 77.055C817.927 75.3981 817.063 73.273 817.063 70.6796C817.063 68.0862 817.927 65.9611 819.656 64.3042ZM829.633 67.2938C828.769 66.4293 827.652 65.9971 826.283 65.9971C824.915 65.9971 823.786 66.4293 822.898 67.2938C822.033 68.1342 821.601 69.2628 821.601 70.6796C821.601 72.0963 822.033 73.2369 822.898 74.1014C823.786 74.9418 824.915 75.3621 826.283 75.3621C827.652 75.3621 828.769 74.9418 829.633 74.1014C830.498 73.2369 830.93 72.0963 830.93 70.6796C830.93 69.2628 830.498 68.1342 829.633 67.2938ZM848.236 61.8189C850.157 61.8189 851.682 62.3952 852.811 63.5478C853.939 64.6764 854.504 66.4053 854.504 68.7345V79H850.073V69.7791C850.073 67.2097 848.933 65.9251 846.651 65.9251C844.058 65.9251 842.761 67.5699 842.761 70.8597V79H838.367V62.3592H842.725V64.8805H842.797C843.998 62.8394 845.811 61.8189 848.236 61.8189ZM1003.78 58.1089H993.114V64.3042H1002.7V68.5545H993.114V79H988.504V53.7866H1003.78V58.1089ZM1013.01 61.8189C1015.56 61.8189 1017.54 62.5993 1018.96 64.1601C1020.37 65.6969 1021.08 67.8821 1021.08 70.7156V71.5801H1008.66C1008.78 72.8527 1009.26 73.8493 1010.1 74.5696C1010.96 75.266 1012.04 75.6142 1013.34 75.6142C1015.14 75.6142 1016.8 74.8578 1018.31 73.345L1020.54 76.5507C1018.38 78.5438 1015.98 79.5403 1013.34 79.5403C1010.62 79.5403 1008.45 78.7359 1006.82 77.127C1005.19 75.5182 1004.37 73.381 1004.37 70.7156C1004.37 68.0502 1005.16 65.901 1006.75 64.2682C1008.33 62.6353 1010.42 61.8189 1013.01 61.8189ZM1012.8 65.3848C1010.47 65.3848 1009.12 66.5014 1008.76 68.7345H1016.62C1016.54 67.678 1016.16 66.8616 1015.46 66.2852C1014.79 65.6849 1013.9 65.3848 1012.8 65.3848ZM1031.52 61.8189C1034.06 61.8189 1036.04 62.5993 1037.46 64.1601C1038.88 65.6969 1039.58 67.8821 1039.58 70.7156V71.5801H1027.16C1027.28 72.8527 1027.76 73.8493 1028.6 74.5696C1029.46 75.266 1030.54 75.6142 1031.84 75.6142C1033.64 75.6142 1035.3 74.8578 1036.81 73.345L1039.04 76.5507C1036.88 78.5438 1034.48 79.5403 1031.84 79.5403C1029.13 79.5403 1026.95 78.7359 1025.32 77.127C1023.69 75.5182 1022.87 73.381 1022.87 70.7156C1022.87 68.0502 1023.66 65.901 1025.25 64.2682C1026.83 62.6353 1028.92 61.8189 1031.52 61.8189ZM1031.3 65.3848C1028.97 65.3848 1027.63 66.5014 1027.27 68.7345H1035.12C1035.05 67.678 1034.66 66.8616 1033.96 66.2852C1033.29 65.6849 1032.4 65.3848 1031.3 65.3848ZM1049.37 79.5403C1047.09 79.5403 1045.18 78.7479 1043.64 77.163C1042.13 75.5782 1041.37 73.417 1041.37 70.6796C1041.37 67.9421 1042.13 65.781 1043.64 64.1961C1045.18 62.6113 1047.09 61.8189 1049.37 61.8189C1051.91 61.8189 1053.76 62.7794 1054.92 64.7004H1054.99V53.7866H1059.38V79H1054.99V76.6588H1054.92C1053.76 78.5798 1051.91 79.5403 1049.37 79.5403ZM1047.21 74.0654C1048.05 74.9298 1049.14 75.3621 1050.49 75.3621C1051.83 75.3621 1052.91 74.9298 1053.73 74.0654C1054.57 73.2009 1054.99 72.0723 1054.99 70.6796C1054.99 69.2868 1054.57 68.1582 1053.73 67.2938C1052.91 66.4293 1051.83 65.9971 1050.49 65.9971C1049.14 65.9971 1048.05 66.4293 1047.21 67.2938C1046.39 68.1582 1045.98 69.2868 1045.98 70.6796C1045.98 72.0723 1046.39 73.2009 1047.21 74.0654ZM1073.5 79.5403C1070.96 79.5403 1069.11 78.5798 1067.96 76.6588H1067.88V79H1063.45V53.7866H1067.88V64.7004H1067.96C1069.11 62.7794 1070.96 61.8189 1073.5 61.8189C1075.78 61.8189 1077.68 62.6113 1079.19 64.1961C1080.73 65.781 1081.5 67.9421 1081.5 70.6796C1081.5 73.417 1080.73 75.5782 1079.19 77.163C1077.68 78.7479 1075.78 79.5403 1073.5 79.5403ZM1069.11 74.0654C1069.95 74.9298 1071.04 75.3621 1072.39 75.3621C1073.73 75.3621 1074.81 74.9298 1075.63 74.0654C1076.47 73.2009 1076.89 72.0723 1076.89 70.6796C1076.89 69.2868 1076.47 68.1582 1075.63 67.2938C1074.81 66.4293 1073.73 65.9971 1072.39 65.9971C1071.04 65.9971 1069.95 66.4293 1069.11 67.2938C1068.29 68.1582 1067.88 69.2868 1067.88 70.6796C1067.88 72.0723 1068.29 73.2009 1069.11 74.0654ZM1091.37 79.5403C1089.09 79.5403 1087.18 78.7479 1085.64 77.163C1084.13 75.5782 1083.37 73.417 1083.37 70.6796C1083.37 67.9421 1084.13 65.781 1085.64 64.1961C1087.18 62.6113 1089.09 61.8189 1091.37 61.8189C1093.91 61.8189 1095.76 62.7794 1096.92 64.7004H1096.99V62.3592H1101.38V79H1096.99V76.6588H1096.92C1095.76 78.5798 1093.91 79.5403 1091.37 79.5403ZM1089.21 74.0654C1090.05 74.9298 1091.14 75.3621 1092.48 75.3621C1093.83 75.3621 1094.91 74.9298 1095.73 74.0654C1096.57 73.2009 1096.99 72.0723 1096.99 70.6796C1096.99 69.2868 1096.57 68.1582 1095.73 67.2938C1094.91 66.4293 1093.83 65.9971 1092.48 65.9971C1091.14 65.9971 1090.05 66.4293 1089.21 67.2938C1088.39 68.1582 1087.98 69.2868 1087.98 70.6796C1087.98 72.0723 1088.39 73.2009 1089.21 74.0654ZM1113.38 79.5403C1110.67 79.5403 1108.46 78.7239 1106.75 77.091C1105.05 75.4581 1104.2 73.321 1104.2 70.6796C1104.2 68.0382 1105.05 65.901 1106.75 64.2682C1108.46 62.6353 1110.67 61.8189 1113.38 61.8189C1115.49 61.8189 1117.44 62.3712 1119.22 63.4758L1117.31 67.1137C1116.08 66.3453 1114.8 65.9611 1113.45 65.9611C1112.08 65.9611 1110.96 66.4053 1110.07 67.2938C1109.18 68.1582 1108.73 69.2868 1108.73 70.6796C1108.73 72.0723 1109.18 73.2129 1110.07 74.1014C1110.96 74.9659 1112.08 75.3981 1113.45 75.3981C1114.8 75.3981 1116.08 75.0139 1117.31 74.2455L1119.22 77.8834C1117.44 78.988 1115.49 79.5403 1113.38 79.5403ZM1138.06 79H1132.29L1126.06 71.0398V79H1121.63V53.7866H1126.06V69.2388L1131.54 62.3592H1137.16L1130.35 69.9232L1138.06 79Z" fill="white"/>
<defs>
<filter id="filter0_d" x="0.508789" y="10.5234" width="333.525" height="154.141" filterUnits="userSpaceOnUse" color-interpolation-filters="sRGB">
<feFlood flood-opacity="0" result="BackgroundImageFix"/>
<feColorMatrix in="SourceAlpha" type="matrix" values="0 0 0 0 0 0 0 0 0 0 0 0 0 0 0 0 0 0 127 0" result="hardAlpha"/>
<feOffset dx="10" dy="20"/>
<feGaussianBlur stdDeviation="15"/>
<feColorMatrix type="matrix" values="0 0 0 0 0.32549 0 0 0 0 0.188235 0 0 0 0 0.87451 0 0 0 0.21 0"/>
<feBlend mode="normal" in2="BackgroundImageFix" result="effect1_dropShadow"/>
<feBlend mode="normal" in="SourceGraphic" in2="effect1_dropShadow" result="shape"/>
</filter>
<filter id="filter1_d" x="256.536" y="10.5234" width="332.376" height="154.141" filterUnits="userSpaceOnUse" color-interpolation-filters="sRGB">
<feFlood flood-opacity="0" result="BackgroundImageFix"/>
<feColorMatrix in="SourceAlpha" type="matrix" values="0 0 0 0 0 0 0 0 0 0 0 0 0 0 0 0 0 0 127 0" result="hardAlpha"/>
<feOffset dx="10" dy="20"/>
<feGaussianBlur stdDeviation="15"/>
<feColorMatrix type="matrix" values="0 0 0 0 0.827451 0 0 0 0 0.184314 0 0 0 0 0.494118 0 0 0 0.21 0"/>
<feBlend mode="normal" in2="BackgroundImageFix" result="effect1_dropShadow"/>
<feBlend mode="normal" in="SourceGraphic" in2="effect1_dropShadow" result="shape"/>
</filter>
<filter id="filter2_d" x="511.414" y="10.5234" width="454.572" height="154.141" filterUnits="userSpaceOnUse" color-interpolation-filters="sRGB">
<feFlood flood-opacity="0" result="BackgroundImageFix"/>
<feColorMatrix in="SourceAlpha" type="matrix" values="0 0 0 0 0 0 0 0 0 0 0 0 0 0 0 0 0 0 127 0" result="hardAlpha"/>
<feOffset dx="10" dy="20"/>
<feGaussianBlur stdDeviation="15"/>
<feColorMatrix type="matrix" values="0 0 0 0 0.85 0 0 0 0 0.343689 0 0 0 0 0.184167 0 0 0 0.3 0"/>
<feBlend mode="normal" in2="BackgroundImageFix" result="effect1_dropShadow"/>
<feBlend mode="normal" in="SourceGraphic" in2="effect1_dropShadow" result="shape"/>
</filter>
<filter id="filter3_d" x="888.488" y="10.5234" width="365.19" height="154.141" filterUnits="userSpaceOnUse" color-interpolation-filters="sRGB">
<feFlood flood-opacity="0" result="BackgroundImageFix"/>
<feColorMatrix in="SourceAlpha" type="matrix" values="0 0 0 0 0 0 0 0 0 0 0 0 0 0 0 0 0 0 127 0" result="hardAlpha"/>
<feOffset dx="10" dy="20"/>
<feGaussianBlur stdDeviation="15"/>
<feColorMatrix type="matrix" values="0 0 0 0 0.866667 0 0 0 0 0.484209 0 0 0 0 0.0902778 0 0 0 0.2 0"/>
<feBlend mode="normal" in2="BackgroundImageFix" result="effect1_dropShadow"/>
<feBlend mode="normal" in="SourceGraphic" in2="effect1_dropShadow" result="shape"/>
</filter>
</defs>
</svg>
