<svg width="1297" height="1183" viewBox="0 0 1297 1183" fill="none" xmlns="http://www.w3.org/2000/svg">
<rect x="733.543" y="115.266" width="795.774" height="381.8" rx="190.9" transform="rotate(45 733.543 115.266)" fill="url(#paint0_linear)" style="mix-blend-mode:multiply"/>
<rect x="368.514" y="0.0742188" width="1151.48" height="520.675" rx="260.338" transform="rotate(45 368.514 0.0742188)" fill="url(#paint1_linear)"/>
<path fill-rule="evenodd" clip-rule="evenodd" d="M608.994 240.554L1023.64 655.205C1078.3 709.865 1103.58 782.783 1099.46 854.327C1030.24 883.024 947.562 869.232 891.281 812.95L598.556 520.226C524.005 445.675 524.005 324.804 598.556 250.253C601.943 246.866 605.425 243.633 608.994 240.554Z" fill="url(#paint2_linear)"/>
<defs>
<linearGradient id="paint0_linear" x1="823.173" y1="240.429" x2="1094.83" y2="160.004" gradientUnits="userSpaceOnUse">
<stop stop-color="#0098DE"/>
<stop offset="1" stop-color="#4C43D9"/>
</linearGradient>
<linearGradient id="paint1_linear" x1="474.642" y1="322.709" x2="1468.93" y2="190.063" gradientUnits="userSpaceOnUse">
<stop offset="0.0142241" stop-color="#FD8D4E"/>
<stop offset="0.500571" stop-color="#C00046"/>
<stop offset="0.672692" stop-color="#AF075D"/>
<stop offset="1" stop-color="#6C22B7"/>
</linearGradient>
<linearGradient id="paint2_linear" x1="654.536" y1="457.676" x2="1008.19" y2="908.722" gradientUnits="userSpaceOnUse">
<stop offset="0.0142241" stop-color="#490971"/>
<stop offset="1" stop-color="#183599"/>
</linearGradient>
</defs>
</svg>
