<svg width="423" height="652" viewBox="0 0 423 652" fill="none" xmlns="http://www.w3.org/2000/svg">
<path d="M422.538 66.6377H254.952V409.303H422.538V66.6377Z" fill="url(#paint0_linear)"/>
<path d="M422.538 400.128C422.538 397.226 420.99 394.323 417.895 392.121L349.445 343.431C343.56 339.245 333.93 339.245 328.046 343.431L259.595 392.121C256.5 394.323 254.952 397.226 254.952 400.128H254.952V409.054H260.888L328.046 456.825C333.93 461.011 343.56 461.011 349.445 456.825L416.602 409.054H422.538V400.128Z" fill="#A8D1BF"/>
<path d="M328.046 465.751L259.595 417.06C253.405 412.657 253.405 405.451 259.595 401.047L328.046 352.356C333.93 348.17 343.56 348.17 349.445 352.356L417.895 401.047C424.086 405.451 424.086 412.657 417.895 417.06L349.445 465.751C343.56 469.937 333.93 469.937 328.046 465.751Z" fill="url(#paint1_radial)"/>
<path d="M168.004 150.926H0.417969V408.423H168.004V150.926Z" fill="url(#paint2_linear)"/>
<path d="M168.004 399.248C168.004 396.346 166.456 393.443 163.361 391.241L94.9104 342.551C89.0256 338.365 79.396 338.365 73.5112 342.551L5.06101 391.241C1.96566 393.443 0.417984 396.346 0.417984 399.248H0.417969V408.174H6.35379L73.5112 455.945C79.396 460.131 89.0256 460.131 94.9104 455.945L162.068 408.174H168.004V399.248Z" fill="#CA9ABC"/>
<path d="M73.5112 464.871L5.061 416.18C-1.12971 411.777 -1.12971 404.571 5.061 400.167L73.5112 351.476C79.396 347.29 89.0256 347.29 94.9104 351.476L163.361 400.167C169.551 404.571 169.551 411.777 163.361 416.18L94.9104 464.871C89.0256 469.057 79.396 469.057 73.5112 464.871Z" fill="url(#paint3_radial)"/>
<path d="M114.298 270.821L100.642 261.107H67.7799L54.6252 270.465V451.437L73.5113 464.871C79.3961 469.057 89.0258 469.057 94.9106 464.871L114.298 451.08V270.821Z" fill="url(#paint4_linear)"/>
<path d="M102.492 292.934L94.9106 287.541C89.0258 283.355 79.3962 283.355 73.5114 287.541L66.4312 292.577V459.834L73.5114 464.87C79.3962 469.056 89.0258 469.056 94.9106 464.87L102.492 459.478V292.934Z" fill="url(#paint5_linear)"/>
<path d="M77.8179 466.816C81.979 468.469 87.0118 468.404 91.105 466.621V294.824H77.8179V466.816Z" fill="url(#paint6_linear)"/>
<path d="M92.1479 446.163C94.6905 446.163 96.7516 444.102 96.7516 441.56C96.7516 439.017 94.6905 436.956 92.1479 436.956C89.6053 436.956 87.5442 439.017 87.5442 441.56C87.5442 444.102 89.6053 446.163 92.1479 446.163Z" fill="#FFEDE0"/>
<path d="M84.4614 323.749C87.0039 323.749 89.0651 321.688 89.0651 319.146C89.0651 316.603 87.0039 314.542 84.4614 314.542C81.9188 314.542 79.8577 316.603 79.8577 319.146C79.8577 321.688 81.9188 323.749 84.4614 323.749Z" fill="white"/>
<path d="M66.4309 406.079C68.9734 406.079 71.0346 404.018 71.0346 401.476C71.0346 398.933 68.9734 396.872 66.4309 396.872C63.8883 396.872 61.8271 398.933 61.8271 401.476C61.8271 404.018 63.8883 406.079 66.4309 406.079Z" fill="#BF2663"/>
<path d="M66.4309 420.216C68.9734 420.216 71.0346 418.155 71.0346 415.612C71.0346 413.07 68.9734 411.009 66.4309 411.009C63.8883 411.009 61.8271 413.07 61.8271 415.612C61.8271 418.155 63.8883 420.216 66.4309 420.216Z" fill="#EC90AD"/>
<path d="M66.4309 289.743C68.9734 289.743 71.0346 287.681 71.0346 285.139C71.0346 282.596 68.9734 280.535 66.4309 280.535C63.8883 280.535 61.8271 282.596 61.8271 285.139C61.8271 287.681 63.8883 289.743 66.4309 289.743Z" fill="white"/>
<path d="M103.278 395.005C105.82 395.005 107.881 392.944 107.881 390.402C107.881 387.859 105.82 385.798 103.278 385.798C100.735 385.798 98.6738 387.859 98.6738 390.402C98.6738 392.944 100.735 395.005 103.278 395.005Z" fill="#BF2663" fill-opacity="0.5"/>
<path d="M294.199 326.584H126.613V499.771H294.199V326.584Z" fill="url(#paint7_linear)"/>
<path d="M294.199 490.596C294.199 487.693 292.651 484.791 289.556 482.589L221.106 433.898C215.221 429.712 205.591 429.712 199.707 433.898L131.256 482.589C128.161 484.791 126.613 487.693 126.613 490.596H126.613V499.522H132.549L199.707 547.293C205.591 551.479 215.221 551.479 221.106 547.293L288.263 499.522H294.199V490.596Z" fill="#8ED4DE"/>
<path d="M199.706 556.22L131.256 507.529C125.066 503.125 125.066 495.919 131.256 491.516L199.706 442.825C205.591 438.639 215.221 438.639 221.106 442.825L289.556 491.516C295.747 495.919 295.747 503.125 289.556 507.529L221.106 556.22C215.221 560.406 205.591 560.406 199.706 556.22Z" fill="url(#paint8_radial)"/>
<path d="M240.493 456.616L226.837 446.902H193.975L180.82 456.26V542.786L199.706 556.22C205.591 560.406 215.221 560.406 221.106 556.22L240.493 542.429V456.616Z" fill="url(#paint9_linear)"/>
<path d="M228.687 448.218L221.105 442.825C215.221 438.639 205.591 438.639 199.706 442.825L192.626 447.861V551.183L199.706 556.22C205.591 560.406 215.221 560.406 221.105 556.22L228.687 550.827V448.218Z" fill="url(#paint10_linear)"/>
<path d="M204.013 558.164C208.174 559.818 213.207 559.752 217.3 557.97V446.902H204.013V558.164Z" fill="url(#paint11_linear)"/>
<path d="M203.706 511.441C206.248 511.441 208.31 509.38 208.31 506.837C208.31 504.295 206.248 502.233 203.706 502.233C201.163 502.233 199.102 504.295 199.102 506.837C199.102 509.38 201.163 511.441 203.706 511.441Z" fill="#00C9C3"/>
<path d="M168.048 500.786C170.59 500.786 172.652 498.724 172.652 496.182C172.652 493.639 170.59 491.578 168.048 491.578C165.505 491.578 163.444 493.639 163.444 496.182C163.444 498.724 165.505 500.786 168.048 500.786Z" fill="#0067A0"/>
<path d="M229.162 497.308C231.704 497.308 233.766 495.247 233.766 492.704C233.766 490.162 231.704 488.101 229.162 488.101C226.619 488.101 224.558 490.162 224.558 492.704C224.558 495.247 226.619 497.308 229.162 497.308Z" fill="#00B8BA" fill-opacity="0.7"/>
<path d="M203.706 531.611C206.248 531.611 208.31 529.55 208.31 527.007C208.31 524.464 206.248 522.403 203.706 522.403C201.163 522.403 199.102 524.464 199.102 527.007C199.102 529.55 201.163 531.611 203.706 531.611Z" fill="#C5FFF9"/>
<path d="M422.538 582.24C422.538 579.338 420.99 576.435 417.895 574.234L349.445 525.543C343.56 521.357 333.93 521.357 328.046 525.543L259.595 574.234C256.5 576.435 254.952 579.338 254.952 582.24H254.952V591.166H260.888L328.046 638.938C333.93 643.124 343.56 643.124 349.445 638.938L416.602 591.166H422.538V582.24Z" fill="#C7C7DC"/>
<path d="M422.538 518.698H254.952V591.416H422.538V518.698Z" fill="url(#paint12_linear)"/>
<path d="M328.046 647.864L259.595 599.174C253.405 594.77 253.405 587.564 259.595 583.16L328.046 534.47C333.93 530.284 343.56 530.284 349.445 534.47L417.895 583.16C424.086 587.564 424.086 594.77 417.895 599.174L349.445 647.864C343.56 652.05 333.93 652.05 328.046 647.864Z" fill="url(#paint13_radial)"/>
<path d="M368.832 548.261L355.176 538.547H322.314L309.159 547.904V634.43L328.045 647.865C333.93 652.051 343.56 652.051 349.445 647.865L368.832 634.074V548.261Z" fill="url(#paint14_linear)"/>
<path d="M357.026 539.863L349.445 534.47C343.56 530.284 333.93 530.284 328.046 534.47L320.965 539.506V642.828L328.046 647.864C333.93 652.05 343.56 652.05 349.445 647.864L357.026 642.471V539.863Z" fill="url(#paint15_linear)"/>
<path d="M332.352 649.809C336.513 651.463 341.546 651.397 345.639 649.615V538.547H332.352V649.809Z" fill="url(#paint16_linear)"/>
<path d="M370.25 472.379L349.445 457.579C343.56 453.393 333.93 453.393 328.046 457.579L307.24 472.379H254.952V514.276C254.952 517.179 256.5 520.081 259.595 522.283L328.046 570.974C333.93 575.16 343.56 575.16 349.445 570.974L417.895 522.283C420.99 520.081 422.538 517.179 422.538 514.276V472.379H370.25Z" fill="url(#paint17_linear)"/>
<path d="M332.045 612.21C334.588 612.21 336.649 610.149 336.649 607.607C336.649 605.064 334.588 603.003 332.045 603.003C329.503 603.003 327.441 605.064 327.441 607.607C327.441 610.149 329.503 612.21 332.045 612.21Z" fill="#D2FFF9"/>
<path d="M320.491 591.448C323.033 591.448 325.094 589.387 325.094 586.844C325.094 584.301 323.033 582.24 320.491 582.24C317.948 582.24 315.887 584.301 315.887 586.844C315.887 589.387 317.948 591.448 320.491 591.448Z" fill="#347BCA"/>
<path d="M357.501 612.21C360.043 612.21 362.105 610.149 362.105 607.607C362.105 605.064 360.043 603.003 357.501 603.003C354.958 603.003 352.897 605.064 352.897 607.607C352.897 610.149 354.958 612.21 357.501 612.21Z" fill="#11ACDD"/>
<path d="M332.045 627.014C334.588 627.014 336.649 624.953 336.649 622.41C336.649 619.868 334.588 617.807 332.045 617.807C329.503 617.807 327.441 619.868 327.441 622.41C327.441 624.953 329.503 627.014 332.045 627.014Z" fill="white"/>
<path d="M368.832 268.478L355.176 258.765H322.314L309.159 268.122V449.094L328.045 462.528C333.93 466.714 343.56 466.714 349.445 462.528L368.832 448.737V268.478Z" fill="url(#paint18_linear)"/>
<path d="M357.026 290.591L349.445 285.198C343.56 281.012 333.93 281.012 328.046 285.198L320.965 290.235V457.491L328.046 462.528C333.93 466.714 343.56 466.714 349.445 462.528L357.026 457.135V290.591Z" fill="url(#paint19_linear)"/>
<path d="M332.352 464.472C336.513 466.126 341.546 466.06 345.639 464.278V292.48H332.352V464.472Z" fill="url(#paint20_linear)"/>
<path d="M336.897 390.627C339.439 390.627 341.5 388.566 341.5 386.024C341.5 383.481 339.439 381.42 336.897 381.42C334.354 381.42 332.293 383.481 332.293 386.024C332.293 388.566 334.354 390.627 336.897 390.627Z" fill="#DBFFBF"/>
<path d="M336.897 289.005C339.439 289.005 341.5 286.944 341.5 284.402C341.5 281.859 339.439 279.798 336.897 279.798C334.354 279.798 332.293 281.859 332.293 284.402C332.293 286.944 334.354 289.005 336.897 289.005Z" fill="white"/>
<path d="M336.897 375.471C339.439 375.471 341.5 373.41 341.5 370.867C341.5 368.325 339.439 366.264 336.897 366.264C334.354 366.264 332.293 368.325 332.293 370.867C332.293 373.41 334.354 375.471 336.897 375.471Z" fill="#4AA063"/>
<path d="M320.105 333.13C322.647 333.13 324.709 331.069 324.709 328.527C324.709 325.984 322.647 323.923 320.105 323.923C317.562 323.923 315.501 325.984 315.501 328.527C315.501 331.069 317.562 333.13 320.105 333.13Z" fill="white" fill-opacity="0.5"/>
<path d="M336.897 213.079C339.439 213.079 341.5 211.017 341.5 208.475C341.5 205.932 339.439 203.871 336.897 203.871C334.354 203.871 332.293 205.932 332.293 208.475C332.293 211.017 334.354 213.079 336.897 213.079Z" fill="white"/>
<path d="M357.812 390.844C360.354 390.844 362.415 388.783 362.415 386.24C362.415 383.698 360.354 381.637 357.812 381.637C355.269 381.637 353.208 383.698 353.208 386.24C353.208 388.783 355.269 390.844 357.812 390.844Z" fill="#3A8D5C"/>
<path d="M328.046 529.076L259.595 480.386C253.405 475.982 253.405 468.776 259.595 464.372L328.046 415.682C333.93 411.495 343.56 411.495 349.445 415.682L417.895 464.372C424.086 468.776 424.086 475.982 417.895 480.386L349.445 529.076C343.56 533.262 333.93 533.262 328.046 529.076Z" fill="url(#paint21_linear)"/>
<path d="M370.25 59.8552L349.445 45.0555C343.56 40.8695 333.93 40.8695 328.046 45.0555L307.24 59.8552H254.952V101.753C254.952 104.655 256.5 107.558 259.595 109.76L328.046 158.45C333.93 162.636 343.56 162.636 349.445 158.45L417.895 109.76C420.99 107.558 422.538 104.655 422.538 101.753V59.8552H370.25Z" fill="url(#paint22_linear)"/>
<path d="M328.046 116.553L259.595 67.8621C253.405 63.4584 253.405 56.2525 259.595 51.8488L328.046 3.15808C333.93 -1.02795 343.56 -1.02795 349.445 3.15808L417.895 51.8488C424.086 56.2525 424.086 63.4584 417.895 67.8621L349.445 116.553C343.56 120.739 333.93 120.739 328.046 116.553Z" fill="url(#paint23_linear)"/>
<path d="M353.961 27.2153C351.702 25.5994 349.097 25.0972 346.018 25.6864C333.054 28.1675 320.082 30.6317 307.118 33.1132C304.162 33.6789 302.251 35.0365 301.456 37.1451C297.974 46.3871 294.517 55.6341 291.031 64.8756C290.203 67.0727 290.896 68.9338 293.166 70.5391C297.906 73.8897 302.612 77.2644 307.332 80.6291C312.138 84.0546 316.941 87.4818 321.749 90.9053C323.88 92.4222 326.418 92.8857 329.314 92.3394C332.551 91.7287 335.791 91.1236 339.01 90.468C342.122 89.8343 344.969 88.8714 347.219 87.117C350.591 84.489 351.186 81.4833 348.761 78.6037C348.091 77.8078 347.262 77.098 346.338 76.4405C340.651 72.3948 334.973 68.3427 329.292 64.2928C325.555 61.6284 321.819 58.9629 318.078 56.3004C317.297 55.7441 316.871 55.7401 316.099 56.2796C315.28 56.8525 314.473 57.4345 313.662 58.0138C312.552 58.8072 312.549 58.9626 313.638 59.7392C318.187 62.9826 322.736 66.2254 327.285 69.4684C332.048 72.8637 336.817 76.2543 341.569 79.6565C343.868 81.3018 343.528 83.6685 340.843 84.9946C339.915 85.4526 338.913 85.7839 337.823 85.991C334.529 86.6169 331.232 87.235 327.949 87.8881C327.118 88.0534 326.546 87.9315 325.935 87.4944C316.554 80.7839 307.157 74.0847 297.744 67.3972C297.124 66.9571 296.995 66.5379 297.215 65.9547C300.669 56.8185 304.109 47.6798 307.525 38.5365C307.757 37.9151 308.194 37.6114 309.062 37.4464C321.886 35.0089 334.704 32.5539 347.518 30.0888C348.343 29.93 348.927 30.0392 349.539 30.4766C358.92 37.1866 368.318 43.8854 377.729 50.5744C378.334 51.0046 378.521 51.4095 378.295 52.0087C374.83 61.1647 371.386 70.3246 367.96 79.4879C367.737 80.0826 367.307 80.3911 366.471 80.5365C363.365 81.0772 360.275 81.6651 357.169 82.2099C356.469 82.3328 356.093 82.5755 355.924 83.0853C355.548 84.2178 354.959 85.2994 354.228 86.3426C354.032 86.6213 353.612 86.9481 353.9 87.2308C354.226 87.5509 354.792 87.3361 355.252 87.27C355.577 87.2234 355.897 87.1576 356.218 87.0988C360.193 86.3726 364.162 85.6323 368.143 84.924C371.311 84.3603 373.267 82.9707 374.107 80.7222C377.549 71.517 381.009 62.315 384.477 53.1148C385.304 50.9213 384.609 49.0605 382.344 47.4501C372.868 40.7158 363.406 33.9716 353.961 27.2153Z" fill="#42AE61"/>
<path d="M359.364 57.0489C356.978 59.7145 353.862 61.8923 350.131 63.5959C347.623 64.7414 345.067 64.7087 342.586 63.4869C342.412 63.4014 342.247 63.3069 342.076 63.2186C341.449 62.895 340.887 62.8912 340.316 63.3204C339.423 63.992 338.483 64.6316 337.569 65.2891C336.714 65.9043 336.716 66.1703 337.623 66.78C341.197 69.1827 345.305 69.7787 349.916 68.5894C353.482 67.6694 356.35 65.9992 359.094 64.2001C361.674 62.4003 364.012 60.4675 365.582 58.1222C368.184 54.2338 367.285 50.8578 362.862 48.0391C360.558 46.5709 357.896 46.0728 354.878 46.6975C353.479 46.987 352.175 47.4263 350.914 47.9376C347.149 49.4637 343.887 51.4951 340.369 53.2687C338.918 54.0004 337.478 54.7491 335.825 55.2464C335.088 55.4685 334.329 55.6092 333.545 55.3693C332.069 54.9172 331.011 53.5673 331.212 52.4088C331.333 51.712 331.713 51.0811 332.227 50.4929C333.859 48.6216 336.059 47.127 338.452 45.7628C341.394 44.0859 344.465 43.7893 347.706 45.3211C348.283 45.5939 348.774 45.5167 349.241 45.1804C350.197 44.4919 351.171 43.8159 352.121 43.1233C352.893 42.5606 352.862 42.2527 352.029 41.7342C347.937 39.188 343.048 38.7783 338.16 40.612C334.441 42.0073 331.446 44.0305 328.775 46.3058C326.837 47.9571 325.326 49.7857 324.767 51.9375C323.962 55.0428 325.618 57.4601 329.023 59.3259C332.112 61.0188 335.404 60.8598 338.75 59.7323C339.104 59.613 339.454 59.4871 339.799 59.3555C342.773 58.2228 345.317 56.6646 347.94 55.1829C350.115 53.9545 352.293 52.7193 354.86 51.9189C357.111 51.2175 358.647 51.6169 359.87 53.1521C360.973 54.5365 360.438 55.849 359.364 57.0489Z" fill="#42AE61"/>
<path d="M210.406 420.369C212.949 420.369 215.01 418.307 215.01 415.765C215.01 413.222 212.949 411.161 210.406 411.161C207.864 411.161 205.802 413.222 205.802 415.765C205.802 418.307 207.864 420.369 210.406 420.369Z" fill="white"/>
<path d="M242.655 284.686L221.849 269.887C215.965 265.701 206.335 265.701 200.45 269.887L179.645 284.686H127.357V326.584H127.357C127.357 329.486 128.905 332.389 132 334.591L200.45 383.281C206.335 387.467 215.965 387.467 221.849 383.281L290.3 334.591C293.395 332.389 294.943 329.486 294.943 326.584V284.686H242.655Z" fill="url(#paint24_linear)"/>
<path d="M200.45 341.384L132 292.693C125.809 288.289 125.809 281.084 132 276.68L200.45 227.989C206.335 223.803 215.965 223.803 221.849 227.989L290.3 276.68C296.49 281.084 296.49 288.289 290.3 292.693L221.849 341.384C215.965 345.57 206.335 345.57 200.45 341.384Z" fill="url(#paint25_linear)"/>
<path d="M244.214 285.469C243.902 285.685 243.59 285.901 243.278 286.117C243.076 286.094 242.995 286.215 242.878 286.286C240.756 287.557 238.473 288.663 235.881 289.421C229.251 291.361 222.662 291.448 216.144 289.155C216.017 289.111 215.895 288.999 215.693 289.073C215.716 289.138 215.735 289.199 215.759 289.259C218.588 296.099 217.38 302.447 210.917 308.141C208.044 310.672 204.51 312.615 200.107 313.718C195.459 314.882 190.709 315.151 185.934 314.157C180.007 312.924 175.529 310.333 172.305 306.733C168.609 302.607 167.549 298.047 168.251 293.277C168.846 289.234 171.17 285.664 174.795 282.49C176.573 280.932 178.613 279.559 181.08 278.533C187.48 275.871 194.176 275.458 201.152 277.333C201.592 277.451 201.715 277.64 201.546 277.927C201.45 278.091 201.322 278.247 201.193 278.4C199.343 280.595 197.442 282.769 195.664 284.991C195.056 285.752 194.35 285.974 193.123 285.93C188.737 285.769 185.394 287.125 183.146 289.66C179.451 293.826 180.557 299.167 185.667 302.528C187.729 303.884 190.163 304.7 193.03 304.717C197.882 304.747 201.221 303.009 203.414 300.156C205.073 297.998 205.031 295.682 204.239 293.352C204.234 293.337 204.181 293.331 204.132 293.314C204.055 293.36 203.969 293.405 203.893 293.458C201.073 295.409 198.255 297.362 195.436 299.313C195.189 299.484 194.945 299.658 194.678 299.813C193.99 300.213 193.295 300.138 192.815 299.616C192.697 299.488 192.604 299.348 192.523 299.206C191.574 297.552 190.699 295.88 189.878 294.193C189.523 293.462 189.733 292.917 190.526 292.376C194.032 289.982 197.499 287.561 200.98 285.15C202.447 284.133 203.911 283.114 205.387 282.103C205.627 281.939 205.706 281.808 205.54 281.579C204.101 279.607 203.278 277.505 202.828 275.325C202.124 271.913 202.482 268.576 204.29 265.341C205.553 263.082 207.354 261.038 209.494 259.132C212.09 256.82 215.161 254.886 219.051 253.683C224.651 251.952 230.428 251.558 236.258 253.037C241.837 254.453 245.945 257.155 249.04 260.6C252.022 263.921 252.986 267.609 252.723 271.464C252.396 276.254 250.008 280.508 245.601 284.216C245.119 284.621 244.534 284.977 244.214 285.469ZM219.525 264.169C219.001 264.578 218.498 264.998 218.072 265.461C215.397 268.37 214.511 271.457 216.229 274.774C217.179 276.61 218.557 278.265 220.904 279.43C226.89 282.402 233.729 280.621 237.02 277.54C238.555 276.104 239.372 274.468 239.721 272.72C240.452 269.061 238.908 265.95 234.832 263.527C230.367 260.872 223.571 261.18 219.525 264.169Z" fill="#27B9AC"/>
<path d="M115.571 145.683L94.7649 130.884C88.8801 126.698 79.2505 126.698 73.3657 130.884L52.5601 145.683H0.272461V187.581H0.272476C0.272476 190.483 1.82015 193.386 4.9155 195.588L73.3657 244.278C79.2505 248.464 88.8801 248.464 94.7649 244.278L163.215 195.588C166.31 193.386 167.858 190.483 167.858 187.581V145.683H115.571Z" fill="url(#paint26_linear)"/>
<path d="M73.3657 202.381L4.91549 153.69C-1.27521 149.287 -1.27521 142.081 4.91549 137.677L73.3657 88.9862C79.2505 84.8002 88.8801 84.8002 94.7649 88.9862L163.215 137.677C169.406 142.081 169.406 149.287 163.215 153.69L94.7649 202.381C88.8801 206.567 79.2505 206.567 73.3657 202.381Z" fill="url(#paint27_linear)"/>
<path d="M370.299 444.149C366.869 443.63 363.499 443.977 360.157 444.573C356.011 445.314 352.107 446.512 348.333 447.935C347.716 448.167 347.465 448.048 347.142 447.68C344.621 444.808 341.723 442.156 338.222 439.873C335.821 438.307 333.2 436.985 330.015 436.377C326.921 435.786 324.119 436.198 321.662 437.713C321.559 437.776 321.466 437.859 321.305 437.832C320.945 438.092 320.586 438.352 320.227 438.612C320.056 439.02 319.609 439.298 319.298 439.639C317.245 441.893 316.127 444.408 315.352 447.017C314.672 449.307 314.313 451.627 314.185 453.966C314.147 454.646 314.148 454.638 313.229 454.673C308.019 454.871 302.891 455.389 297.983 456.743C295.705 457.372 293.561 458.188 291.746 459.381C288.529 461.494 287.718 464.27 289.379 467.28C290.438 469.199 292.094 470.838 294.012 472.341C297.049 474.722 300.566 476.686 304.32 478.437C305.255 478.874 305.234 478.867 304.74 479.569C302.575 482.643 300.784 485.818 299.858 489.219C299.379 490.98 299.155 492.754 299.513 494.545C299.771 495.834 300.325 497.043 301.398 498.107C301.466 498.175 301.541 498.239 301.509 498.332C301.933 498.639 302.358 498.946 302.782 499.253C303.275 499.359 303.635 499.628 304.075 499.802C306.611 500.799 309.349 500.96 312.147 500.805C316.884 500.542 321.301 499.437 325.6 498.05C326.863 497.642 328.099 497.19 329.335 496.739C329.683 496.612 329.87 496.608 330.105 496.875C331.731 498.719 333.484 500.498 335.491 502.136C338.368 504.485 341.46 506.653 345.532 507.913C348.298 508.77 351.105 508.986 353.896 507.964C356.005 507.192 357.476 505.943 358.662 504.5C360.735 501.977 361.774 499.2 362.466 496.341C362.929 494.431 363.202 492.505 363.274 490.567C363.289 490.176 363.466 490.07 363.995 490.053C368.831 489.891 373.606 489.444 378.213 488.307C381.116 487.591 383.859 486.659 386.081 485.069C388.808 483.117 389.544 480.81 388.432 478.178C387.713 476.476 386.435 474.994 384.902 473.623C381.542 470.618 377.394 468.271 372.925 466.202C372.403 465.961 372.268 465.796 372.583 465.359C374.828 462.239 376.654 459.001 377.596 455.532C378.097 453.686 378.298 451.828 377.871 449.958C377.601 448.774 377.054 447.667 376.072 446.686C374.639 445.255 372.629 444.502 370.299 444.149ZM318.85 454.062C319.107 450.749 319.661 447.477 321.254 444.341C322.015 442.844 322.977 441.429 324.669 440.336C325.788 439.614 327.052 439.35 328.511 439.585C330.402 439.89 332.015 440.602 333.517 441.444C334.573 442.035 335.556 442.694 336.139 443.055C339.055 445.223 341.229 447.29 343.204 449.472C343.5 449.799 343.391 449.928 342.964 450.116C339.416 451.681 336.058 453.443 332.81 455.314C332.546 455.466 332.308 455.506 331.989 455.471C327.879 455.013 323.749 454.705 319.589 454.638C319.012 454.629 318.813 454.53 318.85 454.062ZM331.324 491.727C330.012 489.984 328.813 488.203 327.698 486.348C331.399 487.055 335.002 487.743 338.716 488.453C337.274 489.182 335.894 489.893 334.494 490.583C333.656 490.996 332.787 491.375 331.934 491.772C331.71 491.876 331.519 491.985 331.324 491.727ZM311.853 477.33C313.21 475.76 314.646 474.228 316.16 472.735C316.247 472.65 316.326 472.509 316.52 472.548C316.673 472.578 316.669 472.709 316.697 472.802C317.447 475.282 318.397 477.723 319.448 480.144C319.474 480.203 319.463 480.271 319.472 480.373C318.07 479.991 316.768 479.529 315.465 479.071C314.325 478.671 313.214 478.226 312.079 477.816C311.747 477.696 311.625 477.595 311.853 477.33ZM325.931 482.25C325.552 482.153 325.321 482.008 325.181 481.725C323.166 477.665 321.627 473.512 320.511 469.275C320.443 469.016 320.453 468.804 320.715 468.583C322.685 466.924 324.753 465.331 326.98 463.685C329.017 462.257 331.19 460.762 333.47 459.351C333.731 459.19 333.982 459.167 334.296 459.209C340.184 459.995 345.955 461.099 351.597 462.55C351.96 462.643 352.156 462.794 352.284 463.053C354.296 467.114 355.845 471.265 356.964 475.502C357.042 475.796 356.96 476.018 356.702 476.235C353.612 478.83 350.348 481.302 346.827 483.595C345.936 484.176 345.032 484.746 344.155 485.338C343.839 485.55 343.539 485.622 343.101 485.563C337.259 484.777 331.535 483.678 325.931 482.25ZM338.946 456.335C338.893 456.153 339.184 456.071 339.359 455.98C341.34 454.95 343.353 453.953 345.429 453.025C345.622 452.938 345.853 452.717 346.093 453.035C347.411 454.79 348.626 456.58 349.722 458.412C349.52 458.49 349.371 458.42 349.224 458.386C346.02 457.64 342.767 457.026 339.481 456.502C339.288 456.471 338.992 456.495 338.946 456.335ZM357.832 464.335C360.536 465.161 362.996 466.036 365.418 466.969C365.85 467.136 365.671 467.298 365.509 467.488C364.264 468.952 362.937 470.375 361.546 471.769C361.36 471.955 361.166 472.139 360.873 472.424C360.034 469.661 359.051 467.033 357.832 464.335ZM318.814 458.462C318.806 458.256 318.703 458.032 319.214 458.041C321.912 458.088 324.6 458.229 327.28 458.461C327.341 458.466 327.397 458.499 327.579 458.562C324.765 460.423 322.175 462.355 319.468 464.408C319.383 463.895 319.316 463.523 319.26 463.15C319.025 461.592 318.876 460.029 318.814 458.462ZM293.942 466.351C293.817 466.154 293.708 465.951 293.611 465.746C292.806 464.041 293.208 462.867 295.393 461.612C298.007 460.111 301.126 459.435 304.315 458.91C307.316 458.415 310.367 458.189 313.436 458.062C313.918 458.042 314.12 458.093 314.135 458.497C314.246 461.47 314.635 464.425 315.286 467.362C315.36 467.693 315.306 467.945 314.994 468.227C312.425 470.544 310.037 472.955 307.906 475.496C307.661 475.789 307.467 475.864 307.053 475.669C304.034 474.245 301.139 472.709 298.249 470.623C296.736 469.518 295.047 468.091 293.942 466.351ZM327.148 493.302C327.31 493.516 327.409 493.659 326.999 493.808C322.239 495.546 317.358 497.02 311.982 497.407C310.39 497.522 308.8 497.503 307.256 497.132C306.59 496.972 305.992 496.729 305.469 496.379C304.332 495.446 304.07 494.297 304.038 493.116C303.971 490.538 304.907 488.096 306.108 485.701C306.911 484.1 307.901 482.557 308.961 481.037C309.178 480.726 309.346 480.616 309.835 480.81C313.522 482.268 317.344 483.518 321.264 484.611C321.572 484.697 321.746 484.826 321.864 485.046C323.386 487.878 325.135 490.634 327.148 493.302ZM358.599 490.441C358.342 494.159 357.726 497.827 355.699 501.295C355.104 502.313 354.341 503.264 353.298 504.085C351.817 505.25 350.046 505.524 348.009 504.99C345.867 504.429 344.065 503.482 342.392 502.393C341.861 502.048 341.376 501.665 340.871 501.299C338.312 499.52 336.241 497.459 334.277 495.333C333.964 494.994 334.049 494.822 334.493 494.626C338.001 493.078 341.339 491.354 344.53 489.482C344.841 489.299 345.158 489.251 345.555 489.296C349.709 489.765 353.889 490.048 358.093 490.135C358.391 490.141 358.621 490.129 358.599 490.441ZM358.608 486.36C358.613 486.547 358.669 486.739 358.263 486.73C355.479 486.669 352.703 486.545 349.73 486.268C352.649 484.348 355.321 482.449 357.808 480.438C358.036 480.473 357.993 480.594 358.009 480.682C358.342 482.568 358.549 484.46 358.608 486.36ZM383.491 478.395C383.559 478.501 383.626 478.607 383.686 478.716C384.745 480.653 384.169 482.028 381.836 483.261C379.499 484.496 376.836 485.174 374.072 485.674C370.77 486.272 367.404 486.541 364.012 486.685C363.415 486.71 363.291 486.579 363.279 486.173C363.188 483.284 362.802 480.413 362.17 477.561C362.063 477.079 362.183 476.734 362.621 476.339C365.09 474.116 367.395 471.805 369.42 469.356C369.752 468.954 369.978 468.886 370.557 469.161C373.514 470.562 376.337 472.081 379.631 474.46C380.7 475.227 382.379 476.658 383.491 478.395ZM373.202 450.354C373.632 452.08 373.313 453.781 372.799 455.469C371.903 458.408 370.271 461.146 368.41 463.822C368.218 464.099 368.048 464.133 367.679 463.988C363.969 462.523 360.124 461.266 356.183 460.164C355.854 460.072 355.67 459.931 355.542 459.692C354.038 456.89 352.308 454.162 350.321 451.521C350.16 451.308 349.979 451.124 350.433 450.957C354.98 449.283 359.655 447.88 364.763 447.394C366.326 447.246 367.894 447.225 369.448 447.474C370.387 447.624 371.25 447.885 371.97 448.392C372.677 448.936 373.02 449.622 373.202 450.354Z" fill="#119EDD"/>
<path d="M345.445 477.341C349.262 474.602 349.296 470.246 345.521 467.504C341.742 464.758 335.658 464.737 331.896 467.456C328.15 470.163 328.147 474.548 331.889 477.272C335.65 480.009 341.684 480.04 345.445 477.341Z" fill="#119EDD"/>
<path d="M63.0841 167.969C61.239 168.439 59.6409 168.847 57.9109 169.289C58.9931 170.766 59.9374 172.055 60.9892 173.491C62.8452 173.02 64.45 172.612 66.1175 172.188C65.7761 171.673 65.575 171.341 65.3385 171.017C64.6601 170.088 63.9673 169.161 63.0841 167.969Z" fill="#BF2663"/>
<path d="M104.747 158.671C109.707 162.27 109.282 161.977 114.298 160.254C108.453 156.865 109.615 156.99 104.747 158.671Z" fill="#BF2663"/>
<path d="M91.6439 147.846C93.754 151.16 94.5067 151.497 98.9892 151.052C95.8878 147.514 95.5207 147.358 91.6439 147.846Z" fill="#BF2663"/>
<path d="M55.0166 149.198C53.3595 149.16 52.0039 149.128 50.5015 149.093C50.7225 150.3 50.9148 151.349 51.1379 152.568C52.8714 152.598 54.3636 152.623 55.99 152.651C55.6401 151.41 55.3448 150.362 55.0166 149.198Z" fill="#BF2663"/>
<path d="M90.3912 139.856C89.9753 136.959 89.9753 136.959 86.0675 136.404C86.0139 139.34 86.4822 139.701 90.3912 139.856Z" fill="#BF2663"/>
<path d="M55.4197 132.918C53.9299 132.594 52.7791 132.344 51.4697 132.06C51.2161 132.995 50.9929 133.818 50.7352 134.768C52.212 135.084 53.422 135.343 54.779 135.634C55.0097 134.656 55.2031 133.836 55.4197 132.918Z" fill="#BF2663"/>
<path d="M90.4895 129.926C90.6792 129.548 90.885 129.161 91.0673 128.766C91.2687 128.33 91.4486 127.887 91.6654 127.383C90.657 126.982 89.8108 126.646 88.818 126.252C86.6991 128.693 86.853 129.009 90.4895 129.926Z" fill="#BF2663"/>
<path d="M82.9263 113.952C80.8613 111.878 80.0395 111.805 77.0358 113.374C79.0167 115.215 79.0167 115.215 82.9263 113.952Z" fill="#BF2663"/>
<path d="M95.7004 120.632C96.2579 121.057 96.8434 121.504 97.5063 122.009C98.6425 121.483 99.6154 121.032 100.751 120.506C98.9522 118.427 97.7894 118.455 95.7004 120.632Z" fill="#BF2663"/>
<path d="M64.5312 121.253C61.6957 119.668 60.8818 119.824 59.478 122.112C62.492 123.971 62.9147 121.917 64.5312 121.253Z" fill="#BF2663"/>
<path d="M79.666 133.881C80.7896 124.708 88.0856 118.946 100.231 116.338C101.628 116.038 103.065 115.792 104.527 115.582C105.479 115.445 105.414 114.052 104.453 114.005C98.6164 113.72 91.496 114.067 84.2754 115.173C67.772 119.11 59.2184 127.259 59.1099 140.058C58.9999 153.031 65.4763 165.47 76.6742 177.588C78.1659 179.203 79.8916 180.741 81.575 182.38C90.1817 176.645 98.5392 171.077 106.819 165.561C101.299 161.75 95.5444 158.282 90.7296 154.335C83.0871 148.071 78.7761 141.146 79.666 133.881Z" fill="#BF2663"/>
<defs>
<linearGradient id="paint0_linear" x1="338.745" y1="725.002" x2="338.745" y2="101.476" gradientUnits="userSpaceOnUse">
<stop offset="0.173075" stop-color="#7CE180"/>
<stop offset="1" stop-color="#7CE180" stop-opacity="0"/>
</linearGradient>
<radialGradient id="paint1_radial" cx="0" cy="0" r="1" gradientUnits="userSpaceOnUse" gradientTransform="translate(341.441 477.563) rotate(-1.24126) scale(113.36)">
<stop stop-color="#23B065"/>
<stop offset="1" stop-color="#282D70"/>
</radialGradient>
<linearGradient id="paint2_linear" x1="84.2108" y1="707.583" x2="84.2108" y2="150.926" gradientUnits="userSpaceOnUse">
<stop offset="0.403972" stop-color="#FFBCD7"/>
<stop offset="0.995976" stop-color="#FFDDAA" stop-opacity="0"/>
</linearGradient>
<radialGradient id="paint3_radial" cx="0" cy="0" r="1" gradientUnits="userSpaceOnUse" gradientTransform="translate(86.9064 476.683) rotate(-0.70698) scale(115.584)">
<stop stop-color="#BF2663"/>
<stop offset="1" stop-color="#2E005D"/>
</radialGradient>
<linearGradient id="paint4_linear" x1="84.4616" y1="944.777" x2="84.4616" y2="362.926" gradientUnits="userSpaceOnUse">
<stop offset="0.616449" stop-color="#F5B2C9"/>
<stop offset="1" stop-color="#BF2663" stop-opacity="0"/>
</linearGradient>
<linearGradient id="paint5_linear" x1="84.4616" y1="803.564" x2="84.4616" y2="354.701" gradientUnits="userSpaceOnUse">
<stop offset="0.561633" stop-color="#F5B2C9"/>
<stop offset="1" stop-color="#BF2663" stop-opacity="0"/>
</linearGradient>
<linearGradient id="paint6_linear" x1="84.4614" y1="787.872" x2="84.4614" y2="353.14" gradientUnits="userSpaceOnUse">
<stop offset="0.707258" stop-color="#F5B2C9"/>
<stop offset="1" stop-color="#BF2663" stop-opacity="0"/>
</linearGradient>
<linearGradient id="paint7_linear" x1="210.406" y1="543.451" x2="210.406" y2="286.64" gradientUnits="userSpaceOnUse">
<stop stop-color="#33FFE7"/>
<stop offset="1" stop-color="#33FFE7" stop-opacity="0"/>
</linearGradient>
<radialGradient id="paint8_radial" cx="0" cy="0" r="1" gradientUnits="userSpaceOnUse" gradientTransform="translate(216.259 568.031) scale(110.015)">
<stop offset="0.30747" stop-color="#49B2A5"/>
<stop offset="1" stop-color="#250A79"/>
</radialGradient>
<linearGradient id="paint9_linear" x1="210.657" y1="934.597" x2="210.657" y2="478.982" gradientUnits="userSpaceOnUse">
<stop stop-color="#00FFE4"/>
<stop offset="1" stop-color="#00FFE4" stop-opacity="0"/>
</linearGradient>
<linearGradient id="paint10_linear" x1="210.656" y1="861.651" x2="210.656" y2="450.317" gradientUnits="userSpaceOnUse">
<stop stop-color="#00FFE4"/>
<stop offset="1" stop-color="#00FFE4" stop-opacity="0"/>
</linearGradient>
<linearGradient id="paint11_linear" x1="210.657" y1="723.072" x2="210.657" y2="446.902" gradientUnits="userSpaceOnUse">
<stop stop-color="#00FFE4"/>
<stop offset="1" stop-color="#00FFE4" stop-opacity="0"/>
</linearGradient>
<linearGradient id="paint12_linear" x1="338.745" y1="649.918" x2="338.745" y2="517.598" gradientUnits="userSpaceOnUse">
<stop stop-color="#007BFF"/>
<stop offset="1" stop-color="#7CFFFF" stop-opacity="0"/>
</linearGradient>
<radialGradient id="paint13_radial" cx="0" cy="0" r="1" gradientUnits="userSpaceOnUse" gradientTransform="translate(344.598 659.676) scale(110.015)">
<stop offset="0.0414471" stop-color="#49BAD3"/>
<stop offset="1" stop-color="#250A79"/>
</radialGradient>
<linearGradient id="paint14_linear" x1="338.995" y1="910.619" x2="338.995" y2="570.627" gradientUnits="userSpaceOnUse">
<stop stop-color="#00FFE4"/>
<stop offset="1" stop-color="#00B8FF" stop-opacity="0"/>
</linearGradient>
<linearGradient id="paint15_linear" x1="338.996" y1="816.153" x2="338.996" y2="562.642" gradientUnits="userSpaceOnUse">
<stop stop-color="#00FFE4"/>
<stop offset="1" stop-color="#00B8FF" stop-opacity="0"/>
</linearGradient>
<linearGradient id="paint16_linear" x1="338.996" y1="678.901" x2="338.996" y2="584.621" gradientUnits="userSpaceOnUse">
<stop stop-color="#93FFFF"/>
<stop offset="1" stop-color="#35DAFF" stop-opacity="0"/>
</linearGradient>
<linearGradient id="paint17_linear" x1="254.952" y1="514.276" x2="422.538" y2="514.276" gradientUnits="userSpaceOnUse">
<stop stop-color="#A4A6D2"/>
<stop offset="0.0575217" stop-color="#8A8AC2"/>
<stop offset="0.156714" stop-color="#8A8AC2"/>
<stop offset="0.218586" stop-color="#8F8FC4"/>
<stop offset="0.287571" stop-color="#9C9CCC"/>
<stop offset="0.359977" stop-color="#B2B2D7"/>
<stop offset="0.434299" stop-color="#D0D1E8"/>
<stop offset="0.470153" stop-color="#E2E3F1"/>
<stop offset="0.498176" stop-color="#DFDFED"/>
<stop offset="0.511281" stop-color="#DBDAE9"/>
<stop offset="0.592371" stop-color="white"/>
<stop offset="1" stop-color="white"/>
</linearGradient>
<linearGradient id="paint18_linear" x1="338.995" y1="928.379" x2="338.995" y2="351.09" gradientUnits="userSpaceOnUse">
<stop stop-color="#8FFF4C"/>
<stop offset="1" stop-color="#8FFF4C" stop-opacity="0"/>
</linearGradient>
<linearGradient id="paint19_linear" x1="338.996" y1="723.161" x2="338.996" y2="340.101" gradientUnits="userSpaceOnUse">
<stop stop-color="#8FFF4C"/>
<stop offset="1" stop-color="#8FFF4C" stop-opacity="0"/>
</linearGradient>
<linearGradient id="paint20_linear" x1="338.996" y1="730.135" x2="338.996" y2="291.308" gradientUnits="userSpaceOnUse">
<stop stop-color="#8FFF4C"/>
<stop offset="1" stop-color="#8FFF4C" stop-opacity="0"/>
</linearGradient>
<linearGradient id="paint21_linear" x1="338.745" y1="515.774" x2="338.745" y2="423.973" gradientUnits="userSpaceOnUse">
<stop stop-color="#E1E1EF"/>
<stop offset="1" stop-color="#E1E1EF"/>
</linearGradient>
<linearGradient id="paint22_linear" x1="254.952" y1="101.753" x2="422.538" y2="101.753" gradientUnits="userSpaceOnUse">
<stop stop-color="#A4A6D2"/>
<stop offset="0.0575217" stop-color="#8A8AC2"/>
<stop offset="0.201441" stop-color="#8A8AC2"/>
<stop offset="0.254483" stop-color="#8F8FC4"/>
<stop offset="0.313625" stop-color="#9C9CCC"/>
<stop offset="0.375699" stop-color="#B2B2D7"/>
<stop offset="0.439415" stop-color="#D0D1E8"/>
<stop offset="0.470153" stop-color="#E2E3F1"/>
<stop offset="0.498176" stop-color="#DFDFED"/>
<stop offset="0.511281" stop-color="#DBDAE9"/>
<stop offset="0.592371" stop-color="white"/>
<stop offset="1" stop-color="white"/>
</linearGradient>
<linearGradient id="paint23_linear" x1="338.745" y1="103.25" x2="338.745" y2="11.4495" gradientUnits="userSpaceOnUse">
<stop stop-color="#E1E1EF"/>
<stop offset="1" stop-color="#E1E1EF"/>
</linearGradient>
<linearGradient id="paint24_linear" x1="127.357" y1="326.584" x2="294.943" y2="326.584" gradientUnits="userSpaceOnUse">
<stop stop-color="#A4A6D2"/>
<stop offset="0.0575217" stop-color="#8A8AC2"/>
<stop offset="0.193522" stop-color="#8A8AC2"/>
<stop offset="0.248127" stop-color="#8F8FC4"/>
<stop offset="0.309012" stop-color="#9C9CCC"/>
<stop offset="0.372915" stop-color="#B2B2D7"/>
<stop offset="0.438509" stop-color="#D0D1E8"/>
<stop offset="0.470153" stop-color="#E2E3F1"/>
<stop offset="0.498176" stop-color="#DFDFED"/>
<stop offset="0.511281" stop-color="#DBDAE9"/>
<stop offset="0.592371" stop-color="white"/>
<stop offset="1" stop-color="white"/>
</linearGradient>
<linearGradient id="paint25_linear" x1="211.15" y1="328.081" x2="211.15" y2="236.281" gradientUnits="userSpaceOnUse">
<stop stop-color="#E1E1EF"/>
<stop offset="1" stop-color="#E1E1EF"/>
</linearGradient>
<linearGradient id="paint26_linear" x1="0.272461" y1="187.581" x2="167.858" y2="187.581" gradientUnits="userSpaceOnUse">
<stop stop-color="#A4A6D2"/>
<stop offset="0.0575217" stop-color="#8A8AC2"/>
<stop offset="0.164665" stop-color="#8A8AC2"/>
<stop offset="0.224967" stop-color="#8F8FC4"/>
<stop offset="0.292203" stop-color="#9C9CCC"/>
<stop offset="0.362772" stop-color="#B2B2D7"/>
<stop offset="0.435208" stop-color="#D0D1E8"/>
<stop offset="0.470153" stop-color="#E2E3F1"/>
<stop offset="0.498176" stop-color="#DFDFED"/>
<stop offset="0.511281" stop-color="#DBDAE9"/>
<stop offset="0.592371" stop-color="white"/>
<stop offset="1" stop-color="white"/>
</linearGradient>
<linearGradient id="paint27_linear" x1="84.0653" y1="189.078" x2="84.0653" y2="97.2777" gradientUnits="userSpaceOnUse">
<stop stop-color="#E1E1EF"/>
<stop offset="1" stop-color="#E1E1EF"/>
</linearGradient>
</defs>
</svg>
