<svg width="1650" height="983" viewBox="0 0 1650 983" fill="none" xmlns="http://www.w3.org/2000/svg">
<path d="M395.511 171.629C395.511 146.776 415.658 126.629 440.511 126.629H1226.26C1251.12 126.629 1271.26 146.776 1271.26 171.629V1061.42H395.511V171.629Z" stroke="url(#paint0_linear)" stroke-width="4"/>
<g filter="url(#filter0_d)">
<circle cx="834.281" cy="778.876" r="156.16" fill="#EC5F81"/>
</g>
<path d="M2185.02 1227.97C1828.36 909.285 1353.81 714.929 832.88 714.929C311.955 714.929 -162.603 909.285 -519.261 1227.97H2185.02Z" fill="url(#paint1_radial)"/>
<path d="M804.946 315.363H861.829L898.381 723.972H768.394L804.946 315.363Z" fill="url(#paint2_linear)"/>
<g filter="url(#filter1_d)">
<rect x="1064.35" y="225.613" width="375.882" height="63.5414" rx="31.7707" fill="url(#paint3_linear)"/>
</g>
<path d="M1112.92 266.477L1108.31 261.865C1109.46 260.123 1110.13 258.041 1110.13 255.802C1110.13 249.712 1105.18 244.758 1099.09 244.758C1093 244.758 1088.04 249.712 1088.04 255.802C1088.04 261.891 1093 266.845 1099.09 266.845C1101.44 266.845 1103.63 266.097 1105.42 264.833L1109.99 269.404C1110.39 269.808 1110.92 270.01 1111.45 270.01C1111.98 270.01 1112.51 269.808 1112.92 269.404C1113.73 268.596 1113.73 267.286 1112.92 266.477ZM1099.09 262.706C1095.28 262.706 1092.18 259.609 1092.18 255.802C1092.18 251.994 1095.28 248.897 1099.09 248.897C1102.89 248.897 1105.99 251.994 1105.99 255.802C1105.99 259.609 1102.89 262.706 1099.09 262.706Z" fill="#8F297A" fill-opacity="0.8"/>
<path d="M859.625 278.309L855.986 273.697C856.893 271.955 857.425 269.873 857.425 267.634C857.425 261.544 853.516 256.59 848.711 256.59C843.906 256.59 839.996 261.544 839.996 267.634C839.996 273.723 843.906 278.677 848.711 278.677C850.571 278.677 852.293 277.929 853.71 276.666L857.316 281.236C857.635 281.64 858.052 281.842 858.47 281.842C858.888 281.842 859.306 281.64 859.625 281.236C860.263 280.428 860.263 279.118 859.625 278.309ZM848.711 274.538C845.707 274.538 843.262 271.441 843.262 267.634C843.262 263.826 845.707 260.729 848.711 260.729C851.716 260.729 854.159 263.826 854.159 267.634C854.159 271.441 851.716 274.538 848.711 274.538Z" fill="#8F297A" fill-opacity="0.8"/>
<circle cx="448.82" cy="176.737" r="11.4404" fill="#FFBA94"/>
<circle cx="484.285" cy="176.737" r="11.4404" fill="#C77BF5"/>
<circle cx="129.801" cy="548.71" r="7.07382" fill="#65279A"/>
<circle cx="129.801" cy="571.895" r="7.07382" fill="#65279A"/>
<circle cx="129.801" cy="595.08" r="7.07382" fill="#65279A"/>
<circle cx="519.751" cy="176.737" r="11.4404" fill="#FF6067"/>
<path d="M798.762 294.623V292.727C710.2 325.135 657.225 361.212 627.483 397.66C596.154 436.054 590.637 474.822 596.423 509.955C596.504 510.445 596.916 510.767 597.344 510.675C597.772 510.582 598.053 510.11 597.973 509.62C592.275 475.021 597.668 436.844 628.635 398.894C658.061 362.833 710.607 326.943 798.762 294.623Z" fill="url(#paint4_linear)"/>
<path d="M983.866 64.3701C983.636 63.9169 983.042 63.7182 982.54 63.9264C982.038 64.1346 981.819 64.6708 982.049 65.124C995.305 91.187 1002.98 133.659 982.875 176.294C963.217 217.987 916.92 259.999 822.857 286.964V288.859C917.728 261.785 964.73 219.39 984.716 177.002C1005.08 133.815 997.312 90.8062 983.866 64.3701Z" fill="url(#paint5_linear)"/>
<rect x="822.608" y="142.287" width="21.5572" height="103.653" fill="url(#paint6_linear)"/>
<circle cx="833.387" cy="124.631" r="34.5659" fill="url(#paint7_radial)"/>
<path d="M832.632 16.834H834.143L838.409 72.1895H828.366L832.632 16.834Z" fill="url(#paint8_linear)"/>
<circle cx="833.388" cy="18.9688" r="6.49422" fill="url(#paint9_radial)"/>
<path fill-rule="evenodd" clip-rule="evenodd" d="M833.63 178.103L833.859 178.103V178.102C863.176 177.849 886.864 154.005 886.864 124.628C886.864 95.2504 863.174 71.4055 833.855 71.1549V71.1523L832.553 71.1524V71.1593C803.404 71.6059 779.913 95.3737 779.913 124.628C779.913 153.884 803.406 177.653 832.556 178.097V178.103L833.151 178.103C833.204 178.103 833.257 178.104 833.311 178.104C833.337 178.104 833.362 178.104 833.388 178.104C833.414 178.104 833.439 178.104 833.464 178.104C833.52 178.104 833.575 178.103 833.63 178.103ZM823.966 73.3041C799.649 77.7396 781.216 99.0312 781.216 124.628C781.216 150.225 799.649 171.517 823.965 175.952C810.08 169.447 799.94 148.931 799.94 124.628C799.94 100.325 810.08 79.8091 823.966 73.3041ZM842.81 73.3039C856.696 79.8088 866.837 100.325 866.837 124.628C866.837 148.931 856.696 169.447 842.811 175.953C867.128 171.517 885.561 150.225 885.561 124.628C885.561 99.0309 867.127 77.739 842.81 73.3039ZM855.936 161.75C850.128 171.036 842.305 176.596 833.859 176.796L833.855 72.4609C842.303 72.6589 850.127 78.2197 855.936 87.5063C861.84 96.9455 865.534 110.067 865.534 124.628C865.534 139.19 861.84 152.311 855.936 161.75ZM832.556 176.784L832.553 72.473C824.246 72.8215 816.565 78.3548 810.841 87.5063C804.937 96.9455 801.242 110.067 801.242 124.628C801.242 139.19 804.937 152.311 810.841 161.75C816.566 170.903 824.248 176.437 832.556 176.784Z" fill="url(#paint10_linear)"/>
<path fill-rule="evenodd" clip-rule="evenodd" d="M940.23 266.433H726.544C753.46 238.3 791.378 220.779 833.387 220.779C875.397 220.779 913.314 238.3 940.23 266.433Z" fill="url(#paint11_linear)"/>
<path fill-rule="evenodd" clip-rule="evenodd" d="M940.23 285.653H726.544C753.46 313.786 791.378 331.307 833.387 331.307C875.397 331.307 913.314 313.786 940.23 285.653Z" fill="url(#paint12_linear)"/>
<rect x="738.248" y="266.432" width="190.28" height="19.2202" fill="#581383"/>
<path fill-rule="evenodd" clip-rule="evenodd" d="M762.635 282.548C760.244 282.548 758.306 279.784 758.306 276.375C758.306 272.965 760.244 270.201 762.635 270.201C765.026 270.201 766.964 272.965 766.964 276.375C766.964 279.784 765.026 282.548 762.635 282.548ZM777.478 282.548C774.744 282.548 772.527 279.784 772.527 276.375C772.527 272.965 774.744 270.201 777.478 270.201C780.212 270.201 782.428 272.965 782.428 276.375C782.428 279.784 780.212 282.548 777.478 282.548ZM795.299 282.548C791.889 282.548 789.125 279.784 789.125 276.375C789.125 272.965 791.889 270.201 795.299 270.201C798.709 270.201 801.473 272.965 801.473 276.375C801.473 279.784 798.709 282.548 795.299 282.548ZM814.344 282.548C810.934 282.548 808.17 279.784 808.17 276.375C808.17 272.965 810.934 270.201 814.344 270.201C817.753 270.201 820.517 272.965 820.517 276.375C820.517 279.784 817.753 282.548 814.344 282.548ZM839.562 276.375C839.562 279.784 836.798 282.548 833.389 282.548C829.979 282.548 827.215 279.784 827.215 276.375C827.215 272.965 829.979 270.201 833.389 270.201C836.798 270.201 839.562 272.965 839.562 276.375ZM858.607 276.375C858.607 279.784 855.843 282.548 852.433 282.548C849.024 282.548 846.26 279.784 846.26 276.375C846.26 272.965 849.024 270.201 852.433 270.201C855.843 270.201 858.607 272.965 858.607 276.375ZM877.651 276.375C877.651 279.784 874.887 282.548 871.478 282.548C868.068 282.548 865.304 279.784 865.304 276.375C865.304 272.965 868.068 270.201 871.478 270.201C874.887 270.201 877.651 272.965 877.651 276.375ZM894.25 276.375C894.25 279.784 892.033 282.548 889.299 282.548C886.565 282.548 884.348 279.784 884.348 276.375C884.348 272.965 886.565 270.201 889.299 270.201C892.033 270.201 894.25 272.965 894.25 276.375ZM908.47 276.375C908.47 279.784 906.532 282.548 904.141 282.548C901.75 282.548 899.812 279.784 899.812 276.375C899.812 272.965 901.75 270.201 904.141 270.201C906.532 270.201 908.47 272.965 908.47 276.375ZM919.498 276.374C919.498 279.573 918.188 282.166 916.573 282.166C914.959 282.166 913.649 279.573 913.649 276.374C913.649 273.176 914.959 270.582 916.573 270.582C918.188 270.582 919.498 273.176 919.498 276.374ZM925.627 281.454C926.438 281.454 927.096 279.18 927.096 276.375C927.096 273.57 926.438 271.296 925.627 271.296C924.816 271.296 924.159 273.57 924.159 276.375C924.159 279.18 924.816 281.454 925.627 281.454ZM742.717 276.375C742.717 279.18 742.059 281.454 741.249 281.454C740.438 281.454 739.78 279.18 739.78 276.375C739.78 273.57 740.438 271.296 741.249 271.296C742.059 271.296 742.717 273.57 742.717 276.375ZM750.203 282.099C748.607 282.099 747.313 279.536 747.313 276.375C747.313 273.213 748.607 270.65 750.203 270.65C751.799 270.65 753.093 273.213 753.093 276.375C753.093 279.536 751.799 282.099 750.203 282.099Z" fill="url(#paint13_linear)"/>
<path d="M1001.67 721.784C964.377 718.743 926.792 716.7 888.946 715.684C871.012 715.199 853.02 714.947 834.97 714.929L835.138 714.933L835.04 714.933C837.464 714.989 839.885 715.139 842.303 715.383C867.65 717.957 892.59 730.901 916.941 753.599C944.312 779.111 970.809 816.835 996.112 865.585C1030.09 931.043 1061.82 1016.2 1090.61 1117.96H1093.58C1026.69 882.704 944.219 735.821 854.488 715.402C1063.11 725.013 1255.34 873.433 1409.71 1117.96H1414.07C1267.75 887.133 1088 741.384 892.334 716.69C1184.9 734.29 1453.8 881.16 1670.9 1117.96H1673.55C1662.23 1105.58 1650.76 1093.45 1639.16 1081.57C1650.85 1093.45 1662.41 1105.58 1673.82 1117.96H1676.52C1467.78 891.112 1212.19 746.433 933.848 718.075C1297.28 740.953 1631.01 886.553 1901.55 1117.96H1904.55C1876.1 1093.56 1846.94 1070.11 1817.12 1047.65C1847.18 1070.1 1876.58 1093.55 1905.28 1117.96H1908.34C1652.3 899.68 1340.95 757.48 1001.67 721.784Z" fill="url(#paint14_linear)" fill-opacity="0.8"/>
<path d="M-242.578 1117.96H-239.523C-210.8 1093.54 -181.383 1070.07 -151.311 1047.61C-181.147 1070.08 -210.32 1093.55 -238.792 1117.96H-235.791C34.7496 886.553 368.484 740.953 731.913 718.075C453.572 746.433 197.978 891.112 -10.756 1117.96H-8.06433C3.38002 1105.55 14.9647 1093.39 26.6858 1081.48C15.0556 1093.39 3.56361 1105.55 -7.7863 1117.96H-5.13824C211.957 881.161 480.863 734.29 773.425 716.69C577.755 741.384 398.009 887.133 251.688 1117.96H256.052C410.417 873.432 602.652 725.012 811.273 715.402C721.543 735.821 639.076 882.703 572.183 1117.96H575.152C603.941 1016.2 635.674 931.043 669.649 865.585C694.952 816.835 721.449 779.111 748.82 753.599C773.202 730.872 798.175 717.925 823.555 715.374C825.94 715.135 828.328 714.988 830.721 714.933L830.622 714.933L830.79 714.929C812.791 714.947 794.847 715.198 776.962 715.68C739.065 716.695 701.431 718.739 664.087 721.784C324.813 757.48 13.4626 899.68 -242.578 1117.96Z" fill="url(#paint15_linear)" fill-opacity="0.8"/>
<path fill-rule="evenodd" clip-rule="evenodd" d="M463.696 785.793L462.087 783.927C315.645 841.323 178.932 931.881 56.2305 1049.54L62.3908 1048.82C183.65 932.425 318.844 842.759 463.696 785.793Z" fill="url(#paint16_linear)"/>
<path fill-rule="evenodd" clip-rule="evenodd" d="M781.398 112.338C780.428 116.275 779.913 120.392 779.913 124.629C779.913 128.866 780.428 132.982 781.398 136.919H885.379C886.349 132.982 886.864 128.866 886.864 124.629C886.864 120.392 886.349 116.275 885.379 112.338H781.398Z" fill="url(#paint17_linear)"/>
<path d="M842.958 118.455L839.186 130.804H835.664L833.437 123.289L831.111 130.804H827.588L823.816 118.455H827.206L829.549 126.341L832.008 118.455H835.032L837.375 126.412L839.818 118.455H842.958Z" fill="url(#paint18_linear)"/>
<path d="M866.172 118.455L863.038 130.804H860.11L858.26 123.289L856.327 130.804H853.399L850.265 118.455H853.082L855.029 126.341L857.072 118.455H859.585L861.532 126.412L863.562 118.455H866.172Z" fill="url(#paint19_linear)"/>
<path d="M816.51 118.455L813.375 130.804H810.448L808.598 123.289L806.664 130.804H803.737L800.603 118.455H803.419L805.366 126.341L807.41 118.455H809.923L811.87 126.412L813.9 118.455H816.51Z" fill="white"/>
<path d="M1003.51 49.5006L954.368 0.359375V69.7866L974.654 49.5006H1003.51Z" fill="url(#paint20_linear)"/>
<path d="M1003.51 49.5006L954.368 0.359375L974.654 49.5006H1003.51Z" fill="url(#paint21_linear)"/>
<ellipse rx="12.23" ry="5.36957" transform="matrix(-0.997064 0.076572 0.076572 0.997064 463.796 784.918)" fill="#F67086"/>
<path d="M1145.43 820.44C1146.75 819.707 1147.62 818.706 1147.85 817.497C1148.49 814.122 1143.86 810.412 1137.51 809.211C1131.16 808.009 1125.49 809.77 1124.85 813.145C1124.21 816.52 1128.84 820.23 1135.2 821.432C1137.9 821.943 1140.48 821.918 1142.6 821.459C1239.79 890.608 1329.82 991.415 1409.71 1117.96H1414.07C1333.65 991.098 1243.14 889.933 1145.43 820.44Z" fill="url(#paint22_linear)"/>
<path fill-rule="evenodd" clip-rule="evenodd" d="M642.574 916.711C637.398 916.291 633.518 914.2 632.923 911.054C632.073 906.566 638.233 901.633 646.68 900.034C655.127 898.436 662.663 900.779 663.512 905.267C664.361 909.754 658.202 914.688 649.755 916.286C648.22 916.577 646.716 916.737 645.277 916.778C620.418 973.434 596.942 1040.94 575.152 1117.96H572.183C594.075 1040.97 617.636 973.438 642.574 916.711Z" fill="url(#paint23_linear)"/>
<line x1="196.313" y1="546.439" x2="295.028" y2="546.439" stroke="#C77BF5" stroke-width="3" stroke-linecap="round"/>
<line x1="163.586" y1="532.846" x2="163.586" y2="676.734" stroke="#65279A" stroke-width="3" stroke-linecap="round"/>
<line x1="1.5" y1="-1.5" x2="49.3571" y2="-1.5" transform="matrix(1 0 0 -1 194.813 654.339)" stroke="#E95D70" stroke-width="3" stroke-linecap="round"/>
<line x1="196.313" y1="563.571" x2="225.146" y2="563.571" stroke="#C77BF5" stroke-width="3" stroke-linecap="round"/>
<line x1="196.313" y1="638.707" x2="244.171" y2="638.707" stroke="#FFBA94" stroke-width="3" stroke-linecap="round"/>
<line x1="247.171" y1="563.571" x2="339.211" y2="563.571" stroke="#E95D70" stroke-width="3" stroke-linecap="round"/>
<line x1="266.018" y1="638.707" x2="339.211" y2="638.707" stroke="#C77BF5" stroke-width="3" stroke-linecap="round"/>
<line x1="196.313" y1="580.703" x2="295.028" y2="580.703" stroke="#E95D70" stroke-width="3" stroke-linecap="round"/>
<line x1="1.5" y1="-1.5" x2="100.214" y2="-1.5" transform="matrix(1 0 0 -1 194.813 620.075)" stroke="#E95D70" stroke-width="3" stroke-linecap="round"/>
<defs>
<filter id="filter0_d" x="560.12" y="504.716" width="548.321" height="548.321" filterUnits="userSpaceOnUse" color-interpolation-filters="sRGB">
<feFlood flood-opacity="0" result="BackgroundImageFix"/>
<feColorMatrix in="SourceAlpha" type="matrix" values="0 0 0 0 0 0 0 0 0 0 0 0 0 0 0 0 0 0 127 0" result="hardAlpha"/>
<feMorphology radius="13" operator="dilate" in="SourceAlpha" result="effect1_dropShadow"/>
<feOffset/>
<feGaussianBlur stdDeviation="52.5"/>
<feColorMatrix type="matrix" values="0 0 0 0 0.758333 0 0 0 0 0.221181 0 0 0 0 0.511243 0 0 0 0.2 0"/>
<feBlend mode="normal" in2="BackgroundImageFix" result="effect1_dropShadow"/>
<feBlend mode="normal" in="SourceGraphic" in2="effect1_dropShadow" result="shape"/>
</filter>
<filter id="filter1_d" x="1039.39" y="216.462" width="450.754" height="138.414" filterUnits="userSpaceOnUse" color-interpolation-filters="sRGB">
<feFlood flood-opacity="0" result="BackgroundImageFix"/>
<feColorMatrix in="SourceAlpha" type="matrix" values="0 0 0 0 0 0 0 0 0 0 0 0 0 0 0 0 0 0 127 0" result="hardAlpha"/>
<feOffset dx="12.4787" dy="28.285"/>
<feGaussianBlur stdDeviation="18.718"/>
<feColorMatrix type="matrix" values="0 0 0 0 0.346128 0 0 0 0 0.0541667 0 0 0 0 0.5 0 0 0 0.1 0"/>
<feBlend mode="normal" in2="BackgroundImageFix" result="effect1_dropShadow"/>
<feBlend mode="normal" in="SourceGraphic" in2="effect1_dropShadow" result="shape"/>
</filter>
<linearGradient id="paint0_linear" x1="1197.77" y1="138.937" x2="384.937" y2="895.021" gradientUnits="userSpaceOnUse">
<stop offset="0.123722" stop-color="#FF6870"/>
<stop offset="0.380279" stop-color="#D33F85"/>
<stop offset="0.671308" stop-color="#8A3898"/>
<stop offset="0.974353" stop-color="#56209A"/>
</linearGradient>
<radialGradient id="paint1_radial" cx="0" cy="0" r="1" gradientUnits="userSpaceOnUse" gradientTransform="translate(802.232 1601.54) rotate(-54.2998) scale(1184.25 1413.29)">
<stop offset="0.6976" stop-color="#531282"/>
<stop offset="0.841285" stop-color="#9C3071"/>
<stop offset="1" stop-color="#DE4D5E"/>
</radialGradient>
<linearGradient id="paint2_linear" x1="881.971" y1="644.584" x2="682.319" y2="619.839" gradientUnits="userSpaceOnUse">
<stop stop-color="#62167C"/>
<stop offset="0.397415" stop-color="#541282"/>
<stop offset="0.820211" stop-color="#951988"/>
<stop offset="0.988877" stop-color="#96228A"/>
</linearGradient>
<linearGradient id="paint3_linear" x1="870.99" y1="190.613" x2="1429.06" y2="366.006" gradientUnits="userSpaceOnUse">
<stop offset="0.00919548" stop-color="#F1C6A7"/>
<stop offset="1" stop-color="#FF646D"/>
</linearGradient>
<linearGradient id="paint4_linear" x1="840.424" y1="243.332" x2="821.526" y2="647.43" gradientUnits="userSpaceOnUse">
<stop offset="0.086593" stop-color="#FF7D95"/>
<stop offset="0.407514" stop-color="#DE4D70"/>
<stop offset="0.716508" stop-color="#9C3064" stop-opacity="0"/>
<stop offset="0.952446" stop-color="#5F1F92" stop-opacity="0"/>
</linearGradient>
<linearGradient id="paint5_linear" x1="974.699" y1="118.389" x2="884.482" y2="246.501" gradientUnits="userSpaceOnUse">
<stop offset="0.086593" stop-color="#FF7D7D"/>
<stop offset="0.427023" stop-color="#DE4D70"/>
<stop offset="0.716508" stop-color="#9C3064"/>
<stop offset="0.952446" stop-color="#5F1F92"/>
</linearGradient>
<linearGradient id="paint6_linear" x1="797.982" y1="236.572" x2="891.413" y2="205.065" gradientUnits="userSpaceOnUse">
<stop offset="0.127489" stop-color="#DE4D67"/>
<stop offset="0.353303" stop-color="#9C306A"/>
<stop offset="0.571433" stop-color="#5F1F92"/>
</linearGradient>
<radialGradient id="paint7_radial" cx="0" cy="0" r="1" gradientUnits="userSpaceOnUse" gradientTransform="translate(812.635 108.509) rotate(27.1722) scale(77.3654 79.6451)">
<stop stop-color="#EE6472"/>
<stop offset="0.127489" stop-color="#DE4D53"/>
<stop offset="0.353303" stop-color="#9C3064"/>
<stop offset="0.571433" stop-color="#5F1F92"/>
</radialGradient>
<linearGradient id="paint8_linear" x1="806.671" y1="70.3669" x2="875.057" y2="1.14092" gradientUnits="userSpaceOnUse">
<stop stop-color="#ED6270"/>
<stop offset="0.127489" stop-color="#DE4D53"/>
<stop offset="0.353303" stop-color="#9C3064"/>
<stop offset="0.571433" stop-color="#5F1F92"/>
</linearGradient>
<radialGradient id="paint9_radial" cx="0" cy="0" r="1" gradientUnits="userSpaceOnUse" gradientTransform="translate(829.489 15.9398) rotate(45.1891) scale(16.539 17.0263)">
<stop offset="0.139795" stop-color="#9C3064"/>
<stop offset="0.571433" stop-color="#5F1F92"/>
</radialGradient>
<linearGradient id="paint10_linear" x1="788.634" y1="116.635" x2="828.458" y2="183.528" gradientUnits="userSpaceOnUse">
<stop offset="0.00208953" stop-color="#FF7D95"/>
<stop offset="0.127489" stop-color="#DE4D70"/>
<stop offset="0.353303" stop-color="#A42370"/>
<stop offset="0.571433" stop-color="#5F1F92"/>
</linearGradient>
<linearGradient id="paint11_linear" x1="726.544" y1="266.433" x2="786.54" y2="363.639" gradientUnits="userSpaceOnUse">
<stop offset="0.00208953" stop-color="#FF7D95"/>
<stop offset="0.137902" stop-color="#DE4D5E"/>
<stop offset="0.29393" stop-color="#9C3064"/>
<stop offset="0.509877" stop-color="#571383"/>
</linearGradient>
<linearGradient id="paint12_linear" x1="781.655" y1="234.747" x2="856.288" y2="381.057" gradientUnits="userSpaceOnUse">
<stop offset="0.0889617" stop-color="#9C3064"/>
<stop offset="0.353566" stop-color="#6B2289"/>
<stop offset="0.567678" stop-color="#581383"/>
</linearGradient>
<linearGradient id="paint13_linear" x1="910.396" y1="276.375" x2="806.946" y2="276.375" gradientUnits="userSpaceOnUse">
<stop stop-color="#9278DD"/>
<stop offset="1" stop-color="#FFB8E3"/>
</linearGradient>
<linearGradient id="paint14_linear" x1="1977.05" y1="1953.76" x2="-485.806" y2="2035.88" gradientUnits="userSpaceOnUse">
<stop stop-color="#DE4D5E"/>
<stop offset="0.285465" stop-color="#9C3064"/>
<stop offset="0.571433" stop-color="#6F28A7"/>
</linearGradient>
<linearGradient id="paint15_linear" x1="1977.05" y1="1953.76" x2="-485.806" y2="2035.88" gradientUnits="userSpaceOnUse">
<stop stop-color="#DE4D5E"/>
<stop offset="0.285465" stop-color="#9C3064"/>
<stop offset="0.571433" stop-color="#6F28A7"/>
</linearGradient>
<linearGradient id="paint16_linear" x1="508.094" y1="823.977" x2="131.979" y2="1227.95" gradientUnits="userSpaceOnUse">
<stop offset="0.00208953" stop-color="#FF7D95"/>
<stop offset="0.0859235" stop-color="#DE4D5E"/>
<stop offset="0.201911" stop-color="#9C3064"/>
<stop offset="0.571433" stop-color="#571383"/>
</linearGradient>
<linearGradient id="paint17_linear" x1="758.459" y1="214.13" x2="966.336" y2="214.13" gradientUnits="userSpaceOnUse">
<stop offset="0.00208953" stop-color="#FF7D95"/>
<stop offset="0.127489" stop-color="#DE4D67"/>
<stop offset="0.353303" stop-color="#9C3064"/>
<stop offset="0.571433" stop-color="#5F1F92"/>
</linearGradient>
<linearGradient id="paint18_linear" x1="833.387" y1="118.455" x2="864.236" y2="118.81" gradientUnits="userSpaceOnUse">
<stop stop-color="white"/>
<stop offset="1" stop-color="#A0C6FF"/>
</linearGradient>
<linearGradient id="paint19_linear" x1="839.431" y1="118.455" x2="865.069" y2="118.7" gradientUnits="userSpaceOnUse">
<stop stop-color="white"/>
<stop offset="1" stop-color="#A0C6FF"/>
</linearGradient>
<linearGradient id="paint20_linear" x1="877.84" y1="35.073" x2="963.265" y2="117.669" gradientUnits="userSpaceOnUse">
<stop stop-color="#DE4D70"/>
<stop offset="0.296444" stop-color="#9C3064"/>
<stop offset="0.571433" stop-color="#5F1F92"/>
</linearGradient>
<linearGradient id="paint21_linear" x1="969.327" y1="14.8701" x2="949.993" y2="80.489" gradientUnits="userSpaceOnUse">
<stop offset="0.00208953" stop-color="#FF7D95"/>
<stop offset="0.127489" stop-color="#DE4D67"/>
<stop offset="0.353303" stop-color="#9C3064"/>
<stop offset="0.571433" stop-color="#5F1F92"/>
</linearGradient>
<linearGradient id="paint22_linear" x1="1036.64" y1="877.901" x2="1178.57" y2="1325.61" gradientUnits="userSpaceOnUse">
<stop offset="0.00208953" stop-color="#FF7D95"/>
<stop offset="0.0859235" stop-color="#DE4D5E"/>
<stop offset="0.266905" stop-color="#9C3064"/>
<stop offset="0.571433" stop-color="#571383"/>
</linearGradient>
<linearGradient id="paint23_linear" x1="628.529" y1="909.268" x2="610.118" y2="975.019" gradientUnits="userSpaceOnUse">
<stop stop-color="#9B7BF5"/>
<stop offset="1" stop-color="#9B7BF5" stop-opacity="0"/>
</linearGradient>
</defs>
</svg>
