<svg width="664" height="1047" viewBox="0 0 664 1047" fill="none" xmlns="http://www.w3.org/2000/svg">
<path d="M345.541 580.617C313.003 548.479 280.565 509.356 250.722 465.931C220.878 422.505 195.985 378.201 177.645 336.305C168.155 338.911 158.944 341.682 150.045 344.612C169.27 389.163 195.554 436.22 227.12 482.151C258.685 528.083 293.196 569.487 327.896 603.404C333.819 596.147 339.708 588.541 345.541 580.617Z" fill="url(#paint0_linear)"/>
<path d="M443.78 401.209C436.957 418.215 429.439 435.371 421.261 452.516C385.333 527.833 341.293 593.517 297.253 637.47C266.704 667.959 238.248 685.357 217.331 687.001C211.286 687.476 205.869 686.636 201.215 684.416C180.456 674.514 171.503 635.567 177.266 580.235C183.713 518.349 207.049 442.788 242.976 367.471C265.662 319.914 291.583 276.2 318.695 239.369C311.695 232.455 304.69 225.862 297.704 219.621C268.735 258.547 241.123 304.839 217.128 355.141C179.83 433.331 155.558 512.217 148.782 577.268C145.39 609.835 146.55 637.468 152.231 659.399C158.777 684.671 171.109 701.785 188.885 710.265C198.216 714.716 208.45 716.504 219.507 715.634C229.513 714.846 240.195 711.881 251.483 706.743C272.101 697.357 294.307 680.871 317.483 657.741C363.776 611.54 409.812 543.035 447.109 464.846C452.216 454.14 457.076 443.422 461.683 432.728C456.054 422.27 450.077 411.749 443.78 401.209Z" fill="url(#paint1_linear)"/>
<path d="M336.339 216.582C346.486 204.152 356.734 192.746 366.983 182.517C397.532 152.029 425.988 134.632 446.906 132.987C452.95 132.511 458.368 133.352 463.021 135.572C483.781 145.474 492.733 184.42 486.97 239.753C482.974 278.112 472.484 321.727 456.534 367.279C463.156 377.753 469.488 388.245 475.509 398.714C496.727 343.172 510.593 289.386 515.454 242.72C518.846 210.153 517.686 182.52 512.006 160.589C505.459 135.316 493.127 118.202 475.351 109.723C457.576 101.244 436.515 102.429 412.754 113.245C392.135 122.63 369.929 139.117 346.753 162.247C336.243 172.736 325.747 184.378 315.363 197.018C322.348 203.22 329.348 209.748 336.339 216.582Z" fill="url(#paint2_linear)"/>
<path d="M443.78 401.209C436.957 418.215 429.439 435.371 421.261 452.516C385.333 527.833 341.293 593.517 297.253 637.47C266.704 667.959 238.248 685.357 217.331 687.001C211.286 687.476 205.869 686.636 201.215 684.416C180.456 674.514 171.503 635.567 177.266 580.235C183.713 518.349 207.049 442.788 242.976 367.471C265.662 319.914 291.583 276.2 318.695 239.369C311.695 232.455 304.69 225.862 297.704 219.621C268.735 258.547 241.123 304.839 217.128 355.141C179.83 433.331 155.558 512.217 148.782 577.268C145.39 609.835 146.55 637.468 152.231 659.399C158.777 684.671 171.109 701.785 188.885 710.265C198.216 714.716 208.45 716.504 219.507 715.634C229.513 714.846 240.195 711.881 251.483 706.743C272.101 697.357 294.307 680.871 317.483 657.741C363.776 611.54 409.812 543.035 447.109 464.846C452.216 454.14 457.076 443.422 461.683 432.728C456.054 422.27 450.077 411.749 443.78 401.209Z" fill="url(#paint3_linear)"/>
<path d="M342.109 537.005C255.747 543.799 173.402 538.184 110.245 521.193C78.6257 512.687 53.2449 501.7 34.8071 488.536C13.5597 473.367 2.00322 455.72 0.458621 436.086C-1.08598 416.452 7.56883 397.215 26.1828 378.909C42.3353 363.024 65.6857 348.203 95.5857 334.858C155.309 308.2 235.763 289.777 322.126 282.983C408.488 276.189 490.833 281.804 553.99 298.795C585.609 307.301 610.99 318.288 629.428 331.452C650.675 346.622 662.232 364.269 663.776 383.903C665.321 403.537 656.666 422.773 638.052 441.079C621.9 456.964 598.549 471.785 568.649 485.131C508.925 511.788 428.472 530.211 342.109 537.005ZM324.372 311.534C241.182 318.078 164.076 335.649 107.258 361.009C56.4572 383.684 27.205 410.91 29.0089 433.84C30.8127 456.769 63.9624 479.086 117.684 493.538C177.769 509.702 256.673 514.999 339.863 508.455C423.053 501.91 500.159 484.34 556.977 458.979C607.778 436.304 637.03 409.078 635.226 386.149C633.422 363.219 600.273 340.902 546.551 326.45C486.466 310.286 407.561 304.989 324.372 311.534Z" fill="url(#paint4_linear)"/>
<path d="M68.0116 382.142C79.0357 374.852 92.2003 367.73 107.259 361.009C164.076 335.649 241.182 318.078 324.372 311.534C407.562 304.989 486.467 310.286 546.551 326.45C597.138 340.059 629.479 360.642 634.588 382.142H663.61C661.529 363.213 650.038 346.167 629.428 331.452C610.991 318.288 585.609 307.301 553.991 298.795C490.833 281.804 408.489 276.189 322.126 282.983C235.763 289.777 155.31 308.2 95.5861 334.858C65.6861 348.203 42.3356 363.024 26.1832 378.909C25.0906 379.984 24.0355 381.062 23.0116 382.142H68.0116Z" fill="url(#paint5_linear)"/>
<path d="M539.355 546.542C522.49 483.351 486.181 409.231 437.116 337.835C388.05 266.44 331.869 205.977 278.921 167.583C252.413 148.362 227.903 135.551 206.07 129.504C180.91 122.537 159.922 124.66 143.691 135.815C127.46 146.97 117.956 165.801 115.442 191.787C113.261 214.336 116.436 241.811 124.879 273.446C128.708 287.793 133.542 302.705 139.298 318.018C148.163 315.069 157.319 312.271 166.737 309.632C161.047 294.632 156.282 280.05 152.549 266.062C138.204 212.311 140.956 172.444 159.912 159.417C178.867 146.39 217.072 158.11 262.11 190.768C312.481 227.293 366.251 285.284 413.513 354.056C460.776 422.828 495.641 493.81 511.685 553.927C526.03 607.677 523.277 647.544 504.322 660.571C485.367 673.598 447.162 661.878 402.124 629.22C390.401 620.72 378.494 611.056 366.528 600.365C360.691 608.208 354.799 615.751 348.87 622.969C361.103 633.83 373.291 643.688 385.312 652.405C411.82 671.626 436.331 684.438 458.164 690.484C470.117 693.794 481.129 695.052 491.136 694.265C502.192 693.395 512.022 690.029 520.542 684.174C536.773 673.019 546.278 654.187 548.791 628.201C550.973 605.652 547.798 578.178 539.355 546.542Z" fill="url(#paint6_linear)"/>
<path d="M439.812 1045.57C439.946 1045.49 440.088 1045.41 440.22 1045.33V0.433594L225.029 146.406C225.029 562.445 225.029 629.783 225.029 1045.57H439.812Z" fill="url(#paint7_linear)"/>
<path d="M403.16 1045.51V238.74H262.088C262.088 962.665 262.088 328.436 262.088 1045.51H403.16Z" fill="url(#paint8_linear)"/>
<path d="M369.193 1045.57V317.74H296.057C296.057 976.953 296.057 406.368 296.057 1045.57H369.193Z" fill="url(#paint9_linear)"/>
<path d="M369.193 1046.11V886.047H296.057C296.057 1031.02 296.057 905.538 296.057 1046.11H369.193Z" fill="url(#paint10_linear)"/>
<path d="M332.873 464.596C363.046 464.596 387.506 440.136 387.506 409.963C387.506 379.79 363.046 355.33 332.873 355.33C302.7 355.33 278.24 379.79 278.24 409.963C278.24 440.136 302.7 464.596 332.873 464.596Z" fill="url(#paint11_radial)"/>
<path d="M309.003 406.504C315.729 406.504 321.181 401.051 321.181 394.325C321.181 387.599 315.729 382.146 309.003 382.146C302.277 382.146 296.825 387.599 296.825 394.325C296.825 401.051 302.277 406.504 309.003 406.504Z" fill="white"/>
<path d="M362.746 437.726C366.298 437.726 369.177 434.847 369.177 431.296C369.177 427.744 366.298 424.865 362.746 424.865C359.195 424.865 356.316 427.744 356.316 431.296C356.316 434.847 359.195 437.726 362.746 437.726Z" fill="#93278F"/>
<defs>
<linearGradient id="paint0_linear" x1="60.1399" y1="264.106" x2="444.813" y2="675.996" gradientUnits="userSpaceOnUse">
<stop stop-color="#1289EA"/>
<stop offset="0.51723" stop-color="#1162DE"/>
<stop offset="1" stop-color="#710F85"/>
</linearGradient>
<linearGradient id="paint1_linear" x1="602.593" y1="-147.097" x2="193.108" y2="696.308" gradientUnits="userSpaceOnUse">
<stop stop-color="#65E8E0"/>
<stop offset="1" stop-color="#009C9D"/>
</linearGradient>
<linearGradient id="paint2_linear" x1="29.166" y1="346.563" x2="538.572" y2="233.789" gradientUnits="userSpaceOnUse">
<stop stop-color="#1289EA"/>
<stop offset="0.32363" stop-color="#00369E"/>
<stop offset="1" stop-color="#710F85"/>
</linearGradient>
<linearGradient id="paint3_linear" x1="-509.635" y1="831.947" x2="679.953" y2="272.58" gradientUnits="userSpaceOnUse">
<stop stop-color="#1289EA"/>
<stop offset="0.51723" stop-color="#1162DE"/>
<stop offset="0.748312" stop-color="#3521AF"/>
<stop offset="1" stop-color="#710F85"/>
</linearGradient>
<linearGradient id="paint4_linear" x1="158.664" y1="107.25" x2="437.249" y2="593.49" gradientUnits="userSpaceOnUse">
<stop stop-color="#1289EA"/>
<stop offset="0.51723" stop-color="#1162DE"/>
<stop offset="1" stop-color="#710F85"/>
</linearGradient>
<linearGradient id="paint5_linear" x1="190.899" y1="111.328" x2="453.005" y2="568.806" gradientUnits="userSpaceOnUse">
<stop stop-color="#1289EA"/>
<stop offset="0.51723" stop-color="#1162DE"/>
<stop offset="1" stop-color="#710F85"/>
</linearGradient>
<linearGradient id="paint6_linear" x1="118.248" y1="382.742" x2="549.444" y2="437.687" gradientUnits="userSpaceOnUse">
<stop stop-color="#1289EA"/>
<stop offset="0.32204" stop-color="#1162DE"/>
<stop offset="0.65742" stop-color="#000E87"/>
<stop offset="1" stop-color="#710F85"/>
</linearGradient>
<linearGradient id="paint7_linear" x1="332.624" y1="1444.77" x2="332.624" y2="408.312" gradientUnits="userSpaceOnUse">
<stop offset="0.44823" stop-color="#5568FF" stop-opacity="0.5"/>
<stop offset="1" stop-color="#004EEF" stop-opacity="0"/>
</linearGradient>
<linearGradient id="paint8_linear" x1="332.624" y1="1233.37" x2="332.624" y2="293.953" gradientUnits="userSpaceOnUse">
<stop offset="0.2529" stop-color="#00C0F6" stop-opacity="0.7"/>
<stop offset="1" stop-color="#5130FF" stop-opacity="0"/>
</linearGradient>
<linearGradient id="paint9_linear" x1="332.625" y1="994.587" x2="332.625" y2="400.136" gradientUnits="userSpaceOnUse">
<stop offset="0.18277" stop-color="#00BDFF"/>
<stop offset="1" stop-color="#007BFF" stop-opacity="0"/>
</linearGradient>
<linearGradient id="paint10_linear" x1="332.625" y1="1069.37" x2="332.625" y2="902.183" gradientUnits="userSpaceOnUse">
<stop stop-color="white"/>
<stop offset="1" stop-color="white" stop-opacity="0"/>
</linearGradient>
<radialGradient id="paint11_radial" cx="0" cy="0" r="1" gradientUnits="userSpaceOnUse" gradientTransform="translate(269.438 371.65) rotate(-14.4894) scale(94.595)">
<stop stop-color="#52B0F6"/>
<stop offset="0.40951" stop-color="#2760DB"/>
<stop offset="1" stop-color="#13006A"/>
</radialGradient>
</defs>
</svg>
