<svg width="375" height="646" viewBox="0 0 375 646" fill="none" xmlns="http://www.w3.org/2000/svg">
<rect x="-283.275" y="0.725586" width="939.743" height="575.936" fill="url(#paint0_linear)"/>
<g filter="url(#filter0_d)">
<circle cx="188.292" cy="461.061" r="88.1386" fill="#EC5F81"/>
</g>
<path d="M950.663 714.534C749.362 534.666 481.516 424.97 187.5 424.97C-106.516 424.97 -374.361 534.666 -575.662 714.534H950.663Z" fill="url(#paint1_radial)"/>
<path d="M171.737 199.45H203.842L224.473 430.073H151.106L171.737 199.45Z" fill="url(#paint2_linear)"/>
<path d="M202.592 178.536L200.538 175.933C201.05 174.95 201.35 173.774 201.35 172.511C201.35 169.074 199.144 166.277 196.432 166.277C193.72 166.277 191.513 169.074 191.513 172.511C191.513 175.948 193.72 178.744 196.432 178.744C197.482 178.744 198.454 178.321 199.253 177.608L201.289 180.188C201.469 180.416 201.704 180.53 201.94 180.53C202.176 180.53 202.412 180.416 202.592 180.188C202.952 179.732 202.952 178.992 202.592 178.536ZM196.432 176.408C194.736 176.408 193.357 174.66 193.357 172.511C193.357 170.362 194.736 168.613 196.432 168.613C198.128 168.613 199.507 170.362 199.507 172.511C199.507 174.66 198.128 176.408 196.432 176.408Z" fill="#8F297A" fill-opacity="0.8"/>
<path d="M168.242 187.745V186.675C118.257 204.967 88.3569 225.329 71.5704 245.901C53.8878 267.57 50.7744 289.452 54.0398 309.281C54.0854 309.557 54.3181 309.739 54.5596 309.687C54.8011 309.635 54.96 309.368 54.9144 309.092C51.6986 289.563 54.7424 268.016 72.2206 246.597C88.8288 226.243 118.487 205.987 168.242 187.745Z" fill="url(#paint3_linear)"/>
<path d="M272.72 57.7863C272.59 57.5305 272.254 57.4184 271.971 57.5359C271.688 57.6534 271.564 57.956 271.694 58.2119C279.176 72.9221 283.506 96.8939 272.16 120.958C261.065 144.49 234.934 168.201 181.844 183.421V184.49C235.39 169.209 261.919 145.281 273.199 121.357C284.692 96.9819 280.308 72.7072 272.72 57.7863Z" fill="url(#paint4_linear)"/>
<rect x="181.704" y="101.764" width="12.1671" height="58.5029" fill="url(#paint5_linear)"/>
<circle cx="187.786" cy="91.7994" r="19.5094" fill="url(#paint6_radial)"/>
<path d="M187.359 30.957H188.212L190.619 62.2002H184.951L187.359 30.957Z" fill="url(#paint7_linear)"/>
<circle cx="187.783" cy="32.1615" r="3.6654" fill="url(#paint8_radial)"/>
<path fill-rule="evenodd" clip-rule="evenodd" d="M182.46 120.764C174.628 117.087 168.909 105.511 168.909 91.8001C168.909 78.0775 174.637 66.4939 182.479 62.8275C168.75 65.3268 158.34 77.3464 158.34 91.7973C158.34 106.241 168.74 118.256 182.46 120.764ZM187.526 61.6163L187.313 61.6163V61.6189C170.863 61.8721 157.605 75.2865 157.605 91.7973C157.605 108.309 170.864 121.724 187.315 121.976V121.98L187.586 121.98C187.653 121.982 187.72 121.982 187.788 121.982C187.855 121.982 187.923 121.982 187.99 121.98H188.051V121.979C188.074 121.979 188.097 121.978 188.12 121.978C204.636 121.799 217.969 108.355 217.969 91.7973C217.969 75.2154 204.597 61.7566 188.048 61.6163V61.6163L188.046 61.6163C187.96 61.6156 187.874 61.6152 187.787 61.6152C187.7 61.6152 187.613 61.6156 187.526 61.6163ZM193.096 62.8277C200.938 66.4943 206.666 78.0778 206.666 91.8001C206.666 105.511 200.948 117.087 193.116 120.763C206.835 118.256 217.234 106.241 217.234 91.7973C217.234 77.3468 206.825 65.3274 193.096 62.8277ZM188.105 121.243C192.852 121.109 197.247 117.974 200.514 112.752C203.846 107.425 205.931 100.019 205.931 91.8001C205.931 83.5814 203.846 76.1756 200.514 70.848C197.234 65.6056 192.817 62.4668 188.048 62.3562L188.05 121.243C188.069 121.243 188.087 121.243 188.105 121.243ZM187.315 121.237L187.313 62.3632C182.626 62.561 178.292 65.6838 175.062 70.848C171.729 76.1756 169.644 83.5814 169.644 91.8001C169.644 100.019 171.729 107.425 175.062 112.752C178.292 117.917 182.627 121.04 187.315 121.237Z" fill="url(#paint9_linear)"/>
<path fill-rule="evenodd" clip-rule="evenodd" d="M248.088 171.832H127.483C142.675 155.954 164.075 146.065 187.786 146.065C211.496 146.065 232.897 155.954 248.088 171.832Z" fill="url(#paint10_linear)"/>
<path fill-rule="evenodd" clip-rule="evenodd" d="M248.088 182.682H127.483C142.675 198.561 164.075 208.449 187.786 208.449C211.496 208.449 232.897 198.561 248.088 182.682Z" fill="url(#paint11_linear)"/>
<rect x="134.09" y="171.832" width="107.396" height="10.8481" fill="#581383"/>
<path fill-rule="evenodd" clip-rule="evenodd" d="M147.856 180.927C146.506 180.927 145.412 179.367 145.412 177.442C145.412 175.518 146.506 173.958 147.856 173.958C149.205 173.958 150.299 175.518 150.299 177.442C150.299 179.367 149.205 180.927 147.856 180.927ZM156.234 180.927C154.69 180.927 153.439 179.367 153.439 177.442C153.439 175.518 154.69 173.958 156.234 173.958C157.777 173.958 159.028 175.518 159.028 177.442C159.028 179.367 157.777 180.927 156.234 180.927ZM166.292 180.927C164.368 180.927 162.808 179.367 162.808 177.442C162.808 175.518 164.368 173.958 166.292 173.958C168.217 173.958 169.777 175.518 169.777 177.442C169.777 179.367 168.217 180.927 166.292 180.927ZM177.041 180.927C175.117 180.927 173.557 179.367 173.557 177.442C173.557 175.518 175.117 173.958 177.041 173.958C178.965 173.958 180.525 175.518 180.525 177.442C180.525 179.367 178.965 180.927 177.041 180.927ZM191.273 177.442C191.273 179.367 189.713 180.927 187.789 180.927C185.864 180.927 184.304 179.367 184.304 177.442C184.304 175.518 185.864 173.958 187.789 173.958C189.713 173.958 191.273 175.518 191.273 177.442ZM202.024 177.442C202.024 179.367 200.464 180.927 198.54 180.927C196.615 180.927 195.055 179.367 195.055 177.442C195.055 175.518 196.615 173.958 198.54 173.958C200.464 173.958 202.024 175.518 202.024 177.442ZM212.771 177.442C212.771 179.367 211.211 180.927 209.286 180.927C207.362 180.927 205.802 179.367 205.802 177.442C205.802 175.518 207.362 173.958 209.286 173.958C211.211 173.958 212.771 175.518 212.771 177.442ZM222.141 177.442C222.141 179.367 220.89 180.927 219.347 180.927C217.804 180.927 216.553 179.367 216.553 177.442C216.553 175.518 217.804 173.958 219.347 173.958C220.89 173.958 222.141 175.518 222.141 177.442ZM230.168 177.442C230.168 179.367 229.074 180.927 227.725 180.927C226.375 180.927 225.281 179.367 225.281 177.442C225.281 175.518 226.375 173.958 227.725 173.958C229.074 173.958 230.168 175.518 230.168 177.442ZM236.393 177.441C236.393 179.246 235.654 180.71 234.742 180.71C233.831 180.71 233.092 179.246 233.092 177.441C233.092 175.636 233.831 174.172 234.742 174.172C235.654 174.172 236.393 175.636 236.393 177.441ZM239.851 180.309C240.309 180.309 240.68 179.026 240.68 177.442C240.68 175.859 240.309 174.576 239.851 174.576C239.394 174.576 239.023 175.859 239.023 177.442C239.023 179.026 239.394 180.309 239.851 180.309ZM136.614 177.442C136.614 179.026 136.242 180.309 135.785 180.309C135.327 180.309 134.956 179.026 134.956 177.442C134.956 175.859 135.327 174.576 135.785 174.576C136.242 174.576 136.614 175.859 136.614 177.442ZM140.84 180.675C139.939 180.675 139.209 179.228 139.209 177.444C139.209 175.659 139.939 174.213 140.84 174.213C141.741 174.213 142.471 175.659 142.471 177.444C142.471 179.228 141.741 180.675 140.84 180.675Z" fill="url(#paint12_linear)"/>
<path d="M282.767 428.839C261.717 427.122 240.504 425.97 219.143 425.396C209.021 425.123 198.866 424.98 188.679 424.97L188.773 424.972L188.718 424.972C190.086 425.004 191.453 425.088 192.817 425.226C207.123 426.679 221.2 433.984 234.944 446.795C250.392 461.195 265.348 482.487 279.629 510.002C298.805 546.947 316.715 595.013 332.964 652.445H334.64C296.885 519.664 250.34 436.762 199.695 425.237C317.443 430.661 425.942 514.431 513.067 652.445H515.53C432.944 522.164 331.494 439.901 221.055 425.964C386.181 435.897 537.954 518.793 660.485 652.445H661.98C655.59 645.46 649.12 638.613 642.573 631.906C649.172 638.611 655.693 645.459 662.136 652.445H663.656C545.845 524.409 401.585 442.751 244.486 426.745C449.609 439.658 637.972 521.836 790.668 652.445H792.362C776.302 638.673 759.846 625.437 743.017 612.76C759.979 625.432 776.573 638.669 792.774 652.445H794.498C649.986 529.245 474.257 448.986 282.767 428.839Z" fill="url(#paint13_linear)" fill-opacity="0.8"/>
<path d="M-419.501 652.445H-417.777C-401.565 638.661 -384.962 625.416 -367.989 612.737C-384.829 625.421 -401.294 638.665 -417.364 652.445H-415.671C-262.974 521.836 -74.611 439.658 130.512 426.745C-26.5868 442.751 -170.847 524.409 -288.658 652.445H-287.139C-280.68 645.441 -274.141 638.577 -267.526 631.855C-274.09 638.578 -280.576 645.442 -286.982 652.445H-285.487C-162.957 518.793 -11.1834 435.897 153.942 425.964C43.5038 439.901 -57.9468 522.164 -140.532 652.445H-138.069C-50.944 514.431 57.5556 430.661 175.303 425.237C124.659 436.761 78.1136 519.663 40.3585 652.445H42.0343C58.2835 595.013 76.1936 546.947 95.3696 510.002C109.651 482.487 124.606 461.195 140.055 446.795C153.816 433.968 167.911 426.661 182.236 425.221C183.582 425.086 184.93 425.003 186.28 424.972L186.225 424.972L186.319 424.97C176.16 424.98 166.032 425.122 155.938 425.394C134.549 425.967 113.308 427.12 92.2303 428.839C-99.2595 448.986 -274.989 529.245 -419.501 652.445Z" fill="url(#paint14_linear)" fill-opacity="0.8"/>
<path fill-rule="evenodd" clip-rule="evenodd" d="M158.446 84.8604C157.898 87.0826 157.607 89.4061 157.607 91.7975C157.607 94.1888 157.898 96.5122 158.446 98.7344H217.133C217.681 96.5122 217.972 94.1888 217.972 91.7975C217.972 89.4061 217.681 87.0826 217.133 84.8604H158.446Z" fill="url(#paint15_linear)"/>
<path d="M193.188 88.3125L191.06 95.2826H189.071L187.815 91.0408L186.502 95.2826H184.514L182.385 88.3125H184.298L185.62 92.7634L187.008 88.3125H188.715L190.037 92.8032L191.416 88.3125H193.188Z" fill="url(#paint16_linear)"/>
<path d="M206.293 88.3125L204.523 95.2826H202.871L201.827 91.0408L200.736 95.2826H199.083L197.314 88.3125H198.904L200.003 92.7634L201.156 88.3125H202.575L203.674 92.8032L204.82 88.3125H206.293Z" fill="url(#paint17_linear)"/>
<path d="M178.261 88.3125L176.492 95.2826H174.84L173.795 91.0408L172.704 95.2826H171.052L169.283 88.3125H170.873L171.972 92.7634L173.125 88.3125H174.544L175.643 92.8032L176.788 88.3125H178.261Z" fill="white"/>
<path d="M283.804 49.395L256.069 21.6592V60.8446L267.518 49.395H283.804Z" fill="url(#paint18_linear)"/>
<path d="M283.804 49.395L256.069 21.6592L267.518 49.395H283.804Z" fill="url(#paint19_linear)"/>
<path d="M363.908 484.522C364.653 484.108 365.146 483.543 365.275 482.861C365.635 480.956 363.021 478.862 359.436 478.184C355.851 477.506 352.653 478.5 352.292 480.405C351.932 482.309 354.546 484.403 358.131 485.082C359.658 485.37 361.114 485.356 362.311 485.097C417.168 524.125 467.981 581.022 513.069 652.446H515.532C470.143 580.843 419.055 523.744 363.908 484.522Z" fill="url(#paint20_linear)"/>
<path fill-rule="evenodd" clip-rule="evenodd" d="M80.0876 538.857C77.1687 538.62 74.9812 537.439 74.6455 535.665C74.1663 533.132 77.6427 530.348 82.4103 529.446C87.1779 528.544 91.4313 529.866 91.9106 532.399C92.3898 534.932 88.9134 537.716 84.1458 538.618C83.2779 538.782 82.427 538.873 81.6128 538.896C67.5829 570.873 54.3331 608.975 42.0347 652.444H40.3589C52.7151 608.988 66.0128 570.875 80.0876 538.857Z" fill="url(#paint21_linear)"/>
<defs>
<filter id="filter0_d" x="-17.8464" y="254.923" width="412.277" height="412.277" filterUnits="userSpaceOnUse" color-interpolation-filters="sRGB">
<feFlood flood-opacity="0" result="BackgroundImageFix"/>
<feColorMatrix in="SourceAlpha" type="matrix" values="0 0 0 0 0 0 0 0 0 0 0 0 0 0 0 0 0 0 127 0" result="hardAlpha"/>
<feMorphology radius="13" operator="dilate" in="SourceAlpha" result="effect1_dropShadow"/>
<feOffset/>
<feGaussianBlur stdDeviation="52.5"/>
<feColorMatrix type="matrix" values="0 0 0 0 0.758333 0 0 0 0 0.221181 0 0 0 0 0.511243 0 0 0 0.2 0"/>
<feBlend mode="normal" in2="BackgroundImageFix" result="effect1_dropShadow"/>
<feBlend mode="normal" in="SourceGraphic" in2="effect1_dropShadow" result="shape"/>
</filter>
<linearGradient id="paint0_linear" x1="548.175" y1="355.548" x2="222.268" y2="702.195" gradientUnits="userSpaceOnUse">
<stop stop-color="#DD4C52"/>
<stop offset="0.451835" stop-color="#921E8D"/>
<stop offset="1" stop-color="#521182"/>
</linearGradient>
<radialGradient id="paint1_radial" cx="0" cy="0" r="1" gradientUnits="userSpaceOnUse" gradientTransform="translate(170.202 925.381) rotate(-54.2998) scale(668.405 797.676)">
<stop offset="0.6976" stop-color="#531282"/>
<stop offset="0.841285" stop-color="#9C3071"/>
<stop offset="1" stop-color="#DE4D5E"/>
</radialGradient>
<linearGradient id="paint2_linear" x1="215.211" y1="385.266" x2="102.525" y2="371.299" gradientUnits="userSpaceOnUse">
<stop stop-color="#62167C"/>
<stop offset="0.397415" stop-color="#541282"/>
<stop offset="0.820211" stop-color="#951988"/>
<stop offset="0.988877" stop-color="#96228A"/>
</linearGradient>
<linearGradient id="paint3_linear" x1="191.756" y1="158.796" x2="181.09" y2="386.873" gradientUnits="userSpaceOnUse">
<stop offset="0.086593" stop-color="#FF7D95"/>
<stop offset="0.407514" stop-color="#DE4D70"/>
<stop offset="0.716508" stop-color="#9C3064" stop-opacity="0"/>
<stop offset="0.952446" stop-color="#5F1F92" stop-opacity="0"/>
</linearGradient>
<linearGradient id="paint4_linear" x1="267.545" y1="88.2753" x2="216.626" y2="160.583" gradientUnits="userSpaceOnUse">
<stop offset="0.086593" stop-color="#FF7D7D"/>
<stop offset="0.427023" stop-color="#DE4D70"/>
<stop offset="0.716508" stop-color="#9C3064"/>
<stop offset="0.952446" stop-color="#5F1F92"/>
</linearGradient>
<linearGradient id="paint5_linear" x1="167.805" y1="154.979" x2="220.538" y2="137.196" gradientUnits="userSpaceOnUse">
<stop offset="0.127489" stop-color="#DE4D67"/>
<stop offset="0.353303" stop-color="#9C306A"/>
<stop offset="0.571433" stop-color="#5F1F92"/>
</linearGradient>
<radialGradient id="paint6_radial" cx="0" cy="0" r="1" gradientUnits="userSpaceOnUse" gradientTransform="translate(176.073 82.7) rotate(27.1722) scale(43.6658 44.9525)">
<stop stop-color="#EE6472"/>
<stop offset="0.127489" stop-color="#DE4D53"/>
<stop offset="0.353303" stop-color="#9C3064"/>
<stop offset="0.571433" stop-color="#5F1F92"/>
</radialGradient>
<linearGradient id="paint7_linear" x1="172.707" y1="61.1715" x2="211.304" y2="22.0997" gradientUnits="userSpaceOnUse">
<stop stop-color="#ED6270"/>
<stop offset="0.127489" stop-color="#DE4D53"/>
<stop offset="0.353303" stop-color="#9C3064"/>
<stop offset="0.571433" stop-color="#5F1F92"/>
</linearGradient>
<radialGradient id="paint8_radial" cx="0" cy="0" r="1" gradientUnits="userSpaceOnUse" gradientTransform="translate(185.582 30.4519) rotate(45.1891) scale(9.33478 9.60984)">
<stop offset="0.139795" stop-color="#9C3064"/>
<stop offset="0.571433" stop-color="#5F1F92"/>
</radialGradient>
<linearGradient id="paint9_linear" x1="162.527" y1="87.287" x2="185.006" y2="125.043" gradientUnits="userSpaceOnUse">
<stop offset="0.00208953" stop-color="#FF7D95"/>
<stop offset="0.127489" stop-color="#DE4D70"/>
<stop offset="0.353303" stop-color="#A42370"/>
<stop offset="0.571433" stop-color="#5F1F92"/>
</linearGradient>
<linearGradient id="paint10_linear" x1="127.483" y1="171.832" x2="161.344" y2="226.695" gradientUnits="userSpaceOnUse">
<stop offset="0.00208953" stop-color="#FF7D95"/>
<stop offset="0.137902" stop-color="#DE4D5E"/>
<stop offset="0.29393" stop-color="#9C3064"/>
<stop offset="0.509877" stop-color="#571383"/>
</linearGradient>
<linearGradient id="paint11_linear" x1="158.588" y1="153.952" x2="200.71" y2="236.529" gradientUnits="userSpaceOnUse">
<stop offset="0.0889617" stop-color="#9C3064"/>
<stop offset="0.353566" stop-color="#6B2289"/>
<stop offset="0.567678" stop-color="#581383"/>
</linearGradient>
<linearGradient id="paint12_linear" x1="231.255" y1="177.442" x2="172.866" y2="177.442" gradientUnits="userSpaceOnUse">
<stop stop-color="#9278DD"/>
<stop offset="1" stop-color="#FFB8E3"/>
</linearGradient>
<linearGradient id="paint13_linear" x1="833.281" y1="1124.18" x2="-556.782" y2="1170.53" gradientUnits="userSpaceOnUse">
<stop stop-color="#DE4D5E"/>
<stop offset="0.285465" stop-color="#9C3064"/>
<stop offset="0.571433" stop-color="#6F28A7"/>
</linearGradient>
<linearGradient id="paint14_linear" x1="833.281" y1="1124.18" x2="-556.782" y2="1170.53" gradientUnits="userSpaceOnUse">
<stop stop-color="#DE4D5E"/>
<stop offset="0.285465" stop-color="#9C3064"/>
<stop offset="0.571433" stop-color="#6F28A7"/>
</linearGradient>
<linearGradient id="paint15_linear" x1="145.499" y1="142.313" x2="262.827" y2="142.313" gradientUnits="userSpaceOnUse">
<stop offset="0.00208953" stop-color="#FF7D95"/>
<stop offset="0.127489" stop-color="#DE4D67"/>
<stop offset="0.353303" stop-color="#9C3064"/>
<stop offset="0.571433" stop-color="#5F1F92"/>
</linearGradient>
<linearGradient id="paint16_linear" x1="187.787" y1="88.3125" x2="205.198" y2="88.5128" gradientUnits="userSpaceOnUse">
<stop stop-color="white"/>
<stop offset="1" stop-color="#A0C6FF"/>
</linearGradient>
<linearGradient id="paint17_linear" x1="191.2" y1="88.3125" x2="205.67" y2="88.4509" gradientUnits="userSpaceOnUse">
<stop stop-color="white"/>
<stop offset="1" stop-color="#A0C6FF"/>
</linearGradient>
<linearGradient id="paint18_linear" x1="212.875" y1="41.2519" x2="261.09" y2="87.8697" gradientUnits="userSpaceOnUse">
<stop stop-color="#DE4D70"/>
<stop offset="0.296444" stop-color="#9C3064"/>
<stop offset="0.571433" stop-color="#5F1F92"/>
</linearGradient>
<linearGradient id="paint19_linear" x1="264.512" y1="29.8492" x2="253.599" y2="66.8852" gradientUnits="userSpaceOnUse">
<stop offset="0.00208953" stop-color="#FF7D95"/>
<stop offset="0.127489" stop-color="#DE4D67"/>
<stop offset="0.353303" stop-color="#9C3064"/>
<stop offset="0.571433" stop-color="#5F1F92"/>
</linearGradient>
<linearGradient id="paint20_linear" x1="302.503" y1="516.954" x2="382.612" y2="769.645" gradientUnits="userSpaceOnUse">
<stop offset="0.00208953" stop-color="#FF7D95"/>
<stop offset="0.0859235" stop-color="#DE4D5E"/>
<stop offset="0.266905" stop-color="#9C3064"/>
<stop offset="0.571433" stop-color="#571383"/>
</linearGradient>
<linearGradient id="paint21_linear" x1="72.1639" y1="534.657" x2="61.7741" y2="571.767" gradientUnits="userSpaceOnUse">
<stop stop-color="#9B7BF5"/>
<stop offset="1" stop-color="#9B7BF5" stop-opacity="0"/>
</linearGradient>
</defs>
</svg>
