<svg width="472" height="472" viewBox="0 0 472 472" fill="none" xmlns="http://www.w3.org/2000/svg">
<path fill-rule="evenodd" clip-rule="evenodd" d="M374.179 333.015C320.684 409.529 215.29 428.189 138.776 374.693C62.262 321.197 43.602 215.804 97.0976 139.29C150.593 62.7758 255.987 44.1158 332.501 97.6114C409.015 151.107 427.675 256.501 374.179 333.015ZM163.415 339.452C220.466 379.34 299.05 365.426 338.938 308.376C378.826 251.325 364.913 172.74 307.862 132.852C250.811 92.9644 172.226 106.878 132.338 163.929C92.4506 220.98 106.364 299.564 163.415 339.452Z" fill="url(#paint0_linear_21_8)"/>
<path d="M354.413 286.222C355.974 286.836 356.725 288.62 356.034 290.149C335.4 335.856 289.423 367.666 236.016 367.666C163.328 367.666 104.402 308.741 104.402 236.052C104.402 163.364 163.328 104.438 236.016 104.438C284.456 104.438 326.783 130.606 349.633 169.577C350.449 170.967 349.969 172.746 348.584 173.571C347.14 174.431 345.273 173.925 344.421 172.476C322.591 135.332 282.215 110.4 236.016 110.4C166.62 110.4 110.364 166.656 110.364 236.052C110.364 305.448 166.62 361.705 236.016 361.705C286.957 361.705 330.817 331.391 350.543 287.82C351.21 286.347 352.909 285.63 354.413 286.222Z" fill="url(#paint1_linear_21_8)"/>
<path d="M363.05 240.453C363.05 241.784 363.506 242.915 364.418 243.847C365.35 244.778 366.472 245.244 367.784 245.244C369.114 245.244 370.246 244.778 371.177 243.847C372.109 242.915 372.574 241.784 372.574 240.453C372.574 239.122 372.109 238.001 371.177 237.088C370.246 236.176 369.114 235.719 367.784 235.719C366.453 235.719 365.331 236.176 364.418 237.088C363.506 238.001 363.05 239.122 363.05 240.453Z" fill="url(#paint2_linear_21_8)"/>
<path d="M337.698 221.204C336.766 220.292 336.301 219.17 336.301 217.839C336.301 216.527 336.766 215.415 337.698 214.503C338.63 213.571 339.761 213.105 341.092 213.105C342.422 213.105 343.544 213.571 344.457 214.503C345.369 215.415 345.825 216.527 345.825 217.839C345.825 219.17 345.369 220.292 344.457 221.204C343.544 222.117 342.422 222.573 341.092 222.573C339.761 222.573 338.63 222.117 337.698 221.204Z" fill="url(#paint3_linear_21_8)"/>
<path fill-rule="evenodd" clip-rule="evenodd" d="M362.664 271.991V271.99C384.487 267.949 400.083 247.907 398.126 225.339C396.241 203.603 378.722 186.979 357.606 185.581L357.604 185.577C355.09 185.466 353.476 185.494 350.935 185.648L350.902 185.651C326.902 187.732 309.133 208.875 311.214 232.875C313.231 256.136 333.153 273.543 356.229 272.699L356.23 272.697C358.799 272.607 360.267 272.445 362.664 271.991ZM357.261 240.453C357.261 237.506 358.268 235.025 360.284 233.01C362.318 230.995 364.818 229.987 367.784 229.987C370.749 229.987 373.24 230.995 375.255 233.01C377.289 235.025 378.306 237.506 378.306 240.453C378.306 243.381 377.27 245.881 375.198 247.953C373.145 250.007 370.673 251.033 367.784 251.033C364.875 251.033 362.394 250.007 360.341 247.953C358.287 245.881 357.261 243.381 357.261 240.453ZM341.806 250.803C340.394 249.948 339.924 248.123 340.747 246.693L362.867 208.272C363.72 206.791 365.62 206.297 367.086 207.175C368.517 208.032 368.997 209.879 368.163 211.324L346.005 249.724C345.155 251.197 343.261 251.684 341.806 250.803ZM330.569 217.839C330.569 214.873 331.576 212.383 333.592 210.368C335.626 208.352 338.126 207.345 341.092 207.345C344.038 207.345 346.529 208.362 348.563 210.396C350.597 212.411 351.614 214.892 351.614 217.839C351.614 220.767 350.578 223.258 348.506 225.311C346.453 227.345 343.981 228.362 341.092 228.362C338.183 228.362 335.702 227.345 333.649 225.311C331.595 223.258 330.569 220.767 330.569 217.839Z" fill="url(#paint4_linear_21_8)"/>
<path d="M208.448 195.826C207.516 191.928 205.821 189.005 203.364 187.056C200.907 185.107 197.475 184.133 193.069 184.133C186.375 184.133 181.376 186.717 178.072 191.886C174.767 196.97 173.03 205.443 172.861 217.305C175.064 213.577 178.283 210.696 182.52 208.662C186.757 206.629 191.332 205.612 196.247 205.612C201.839 205.612 206.753 206.841 210.99 209.298C215.311 211.67 218.658 215.144 221.03 219.72C223.488 224.295 224.716 229.761 224.716 236.115C224.716 242.047 223.53 247.342 221.158 252.003C218.87 256.663 215.438 260.349 210.863 263.06C206.287 265.687 200.78 267 194.34 267C185.613 267 178.75 265.094 173.75 261.281C168.836 257.383 165.362 251.918 163.328 244.885C161.38 237.852 160.405 229.083 160.405 218.576C160.405 187.564 171.336 172.059 193.196 172.059C201.669 172.059 208.321 174.346 213.15 178.922C218.065 183.497 220.946 189.132 221.793 195.826H208.448ZM193.069 217.813C187.901 217.813 183.494 219.381 179.851 222.516C176.292 225.566 174.513 230.015 174.513 235.861C174.513 241.708 176.165 246.368 179.47 249.842C182.859 253.231 187.562 254.926 193.578 254.926C198.916 254.926 203.11 253.274 206.16 249.969C209.295 246.664 210.863 242.258 210.863 236.751C210.863 230.989 209.338 226.414 206.287 223.024C203.322 219.55 198.916 217.813 193.069 217.813ZM233.817 219.466C233.817 204.807 236.274 193.368 241.188 185.15C246.187 176.846 254.745 172.694 266.862 172.694C278.978 172.694 287.494 176.846 292.408 185.15C297.408 193.368 299.907 204.807 299.907 219.466C299.907 234.294 297.408 245.902 292.408 254.29C287.494 262.594 278.978 266.746 266.862 266.746C254.745 266.746 246.187 262.594 241.188 254.29C236.274 245.902 233.817 234.294 233.817 219.466ZM285.672 219.466C285.672 212.602 285.206 206.798 284.274 202.053C283.427 197.308 281.647 193.453 278.936 190.488C276.225 187.437 272.2 185.912 266.862 185.912C261.524 185.912 257.499 187.437 254.788 190.488C252.076 193.453 250.255 197.308 249.322 202.053C248.475 206.798 248.052 212.602 248.052 219.466C248.052 226.583 248.475 232.557 249.322 237.386C250.17 242.216 251.949 246.114 254.661 249.079C257.457 252.045 261.524 253.528 266.862 253.528C272.2 253.528 276.225 252.045 278.936 249.079C281.732 246.114 283.554 242.216 284.401 237.386C285.249 232.557 285.672 226.583 285.672 219.466Z" fill="black"/>
<path d="M208.448 195.826C207.516 191.928 205.821 189.005 203.364 187.056C200.907 185.107 197.475 184.133 193.069 184.133C186.375 184.133 181.376 186.717 178.072 191.886C174.767 196.97 173.03 205.443 172.861 217.305C175.064 213.577 178.283 210.696 182.52 208.662C186.757 206.629 191.332 205.612 196.247 205.612C201.839 205.612 206.753 206.841 210.99 209.298C215.311 211.67 218.658 215.144 221.03 219.72C223.488 224.295 224.716 229.761 224.716 236.115C224.716 242.047 223.53 247.342 221.158 252.003C218.87 256.663 215.438 260.349 210.863 263.06C206.287 265.687 200.78 267 194.34 267C185.613 267 178.75 265.094 173.75 261.281C168.836 257.383 165.362 251.918 163.328 244.885C161.38 237.852 160.405 229.083 160.405 218.576C160.405 187.564 171.336 172.059 193.196 172.059C201.669 172.059 208.321 174.346 213.15 178.922C218.065 183.497 220.946 189.132 221.793 195.826H208.448ZM193.069 217.813C187.901 217.813 183.494 219.381 179.851 222.516C176.292 225.566 174.513 230.015 174.513 235.861C174.513 241.708 176.165 246.368 179.47 249.842C182.859 253.231 187.562 254.926 193.578 254.926C198.916 254.926 203.11 253.274 206.16 249.969C209.295 246.664 210.863 242.258 210.863 236.751C210.863 230.989 209.338 226.414 206.287 223.024C203.322 219.55 198.916 217.813 193.069 217.813ZM233.817 219.466C233.817 204.807 236.274 193.368 241.188 185.15C246.187 176.846 254.745 172.694 266.862 172.694C278.978 172.694 287.494 176.846 292.408 185.15C297.408 193.368 299.907 204.807 299.907 219.466C299.907 234.294 297.408 245.902 292.408 254.29C287.494 262.594 278.978 266.746 266.862 266.746C254.745 266.746 246.187 262.594 241.188 254.29C236.274 245.902 233.817 234.294 233.817 219.466ZM285.672 219.466C285.672 212.602 285.206 206.798 284.274 202.053C283.427 197.308 281.647 193.453 278.936 190.488C276.225 187.437 272.2 185.912 266.862 185.912C261.524 185.912 257.499 187.437 254.788 190.488C252.076 193.453 250.255 197.308 249.322 202.053C248.475 206.798 248.052 212.602 248.052 219.466C248.052 226.583 248.475 232.557 249.322 237.386C250.17 242.216 251.949 246.114 254.661 249.079C257.457 252.045 261.524 253.528 266.862 253.528C272.2 253.528 276.225 252.045 278.936 249.079C281.732 246.114 283.554 242.216 284.401 237.386C285.249 232.557 285.672 226.583 285.672 219.466Z" fill="url(#paint5_linear_21_8)"/>
<path d="M176.625 294.373C176.625 293.313 176.833 292.372 177.25 291.552C177.679 290.731 178.253 290.1 178.973 289.658C179.705 289.217 180.519 288.996 181.415 288.996C182.198 288.996 182.88 289.153 183.46 289.469C184.053 289.785 184.527 290.182 184.88 290.662V289.166H187.55V299.656H184.88V298.122C184.539 298.614 184.066 299.025 183.46 299.353C182.867 299.668 182.179 299.826 181.396 299.826C180.513 299.826 179.705 299.599 178.973 299.145C178.253 298.69 177.679 298.053 177.25 297.232C176.833 296.399 176.625 295.446 176.625 294.373ZM184.88 294.411C184.88 293.767 184.754 293.218 184.502 292.764C184.249 292.297 183.908 291.943 183.479 291.703C183.05 291.451 182.589 291.325 182.097 291.325C181.605 291.325 181.15 291.445 180.734 291.684C180.317 291.924 179.976 292.278 179.711 292.745C179.459 293.199 179.332 293.742 179.332 294.373C179.332 295.004 179.459 295.56 179.711 296.039C179.976 296.506 180.317 296.866 180.734 297.119C181.163 297.371 181.617 297.497 182.097 297.497C182.589 297.497 183.05 297.377 183.479 297.137C183.908 296.885 184.249 296.532 184.502 296.077C184.754 295.61 184.88 295.055 184.88 294.411ZM188.511 294.411C188.511 293.325 188.732 292.379 189.173 291.571C189.615 290.75 190.227 290.119 191.01 289.677C191.793 289.223 192.689 288.996 193.699 288.996C194.999 288.996 196.072 289.324 196.918 289.98C197.776 290.624 198.35 291.533 198.641 292.707H195.781C195.63 292.252 195.371 291.899 195.005 291.646C194.652 291.381 194.21 291.249 193.68 291.249C192.922 291.249 192.323 291.527 191.881 292.082C191.439 292.625 191.218 293.401 191.218 294.411C191.218 295.408 191.439 296.184 191.881 296.74C192.323 297.283 192.922 297.554 193.68 297.554C194.753 297.554 195.453 297.074 195.781 296.115H198.641C198.35 297.251 197.776 298.154 196.918 298.823C196.059 299.492 194.986 299.826 193.699 299.826C192.689 299.826 191.793 299.605 191.01 299.163C190.227 298.709 189.615 298.078 189.173 297.27C188.732 296.45 188.511 295.496 188.511 294.411ZM202.722 291.344V296.418C202.722 296.771 202.804 297.03 202.968 297.194C203.145 297.346 203.435 297.421 203.839 297.421H205.07V299.656H203.404C201.169 299.656 200.052 298.57 200.052 296.399V291.344H198.803V289.166H200.052V286.572H202.722V289.166H205.07V291.344H202.722ZM207.374 287.916C206.907 287.916 206.516 287.771 206.2 287.481C205.897 287.178 205.746 286.806 205.746 286.364C205.746 285.922 205.897 285.556 206.2 285.266C206.516 284.963 206.907 284.811 207.374 284.811C207.841 284.811 208.226 284.963 208.529 285.266C208.845 285.556 209.003 285.922 209.003 286.364C209.003 286.806 208.845 287.178 208.529 287.481C208.226 287.771 207.841 287.916 207.374 287.916ZM208.681 289.166V299.656H206.03V289.166H208.681ZM214.727 297.213L217.378 289.166H220.199L216.317 299.656H213.098L209.236 289.166H212.076L214.727 297.213ZM230.492 294.184C230.492 294.562 230.467 294.903 230.417 295.206H222.748C222.811 295.964 223.076 296.557 223.543 296.986C224.01 297.415 224.585 297.63 225.266 297.63C226.251 297.63 226.952 297.207 227.368 296.361H230.227C229.924 297.371 229.344 298.204 228.485 298.861C227.627 299.504 226.573 299.826 225.323 299.826C224.313 299.826 223.404 299.605 222.597 299.163C221.801 298.709 221.177 298.072 220.722 297.251C220.28 296.431 220.059 295.484 220.059 294.411C220.059 293.325 220.28 292.372 220.722 291.552C221.164 290.731 221.782 290.1 222.578 289.658C223.373 289.217 224.288 288.996 225.323 288.996C226.32 288.996 227.21 289.21 227.993 289.639C228.788 290.069 229.4 290.681 229.83 291.476C230.271 292.259 230.492 293.161 230.492 294.184ZM227.747 293.426C227.734 292.745 227.488 292.202 227.008 291.798C226.529 291.381 225.942 291.173 225.247 291.173C224.591 291.173 224.036 291.375 223.581 291.779C223.139 292.17 222.868 292.719 222.767 293.426H227.747ZM244.948 289.166V299.656H242.278V298.33C241.938 298.785 241.489 299.145 240.934 299.41C240.391 299.662 239.798 299.788 239.154 299.788C238.334 299.788 237.608 299.618 236.977 299.277C236.346 298.924 235.847 298.412 235.481 297.743C235.127 297.062 234.951 296.254 234.951 295.32V289.166H237.602V294.941C237.602 295.774 237.81 296.418 238.226 296.872C238.643 297.314 239.211 297.535 239.93 297.535C240.663 297.535 241.237 297.314 241.653 296.872C242.07 296.418 242.278 295.774 242.278 294.941V289.166H244.948ZM250.631 299.826C249.773 299.826 249.003 299.675 248.321 299.372C247.639 299.056 247.096 298.633 246.693 298.103C246.301 297.573 246.087 296.986 246.049 296.342H248.719C248.769 296.746 248.965 297.081 249.306 297.346C249.659 297.611 250.094 297.743 250.612 297.743C251.117 297.743 251.508 297.642 251.786 297.44C252.076 297.238 252.221 296.98 252.221 296.664C252.221 296.323 252.045 296.071 251.691 295.907C251.35 295.73 250.801 295.541 250.044 295.339C249.261 295.149 248.618 294.954 248.113 294.752C247.62 294.55 247.191 294.241 246.825 293.824C246.472 293.407 246.295 292.846 246.295 292.139C246.295 291.558 246.459 291.028 246.787 290.548C247.128 290.069 247.608 289.69 248.226 289.412C248.857 289.135 249.596 288.996 250.442 288.996C251.691 288.996 252.688 289.311 253.433 289.942C254.178 290.561 254.588 291.4 254.664 292.461H252.127C252.089 292.044 251.912 291.716 251.597 291.476C251.294 291.224 250.883 291.097 250.366 291.097C249.886 291.097 249.514 291.186 249.249 291.362C248.996 291.539 248.87 291.785 248.87 292.101C248.87 292.454 249.047 292.726 249.4 292.915C249.754 293.092 250.303 293.275 251.047 293.464C251.805 293.654 252.43 293.849 252.922 294.051C253.414 294.253 253.837 294.569 254.191 294.998C254.557 295.414 254.746 295.97 254.759 296.664C254.759 297.27 254.588 297.813 254.247 298.292C253.919 298.772 253.44 299.151 252.808 299.429C252.19 299.694 251.464 299.826 250.631 299.826ZM265.739 294.184C265.739 294.562 265.714 294.903 265.663 295.206H257.995C258.058 295.964 258.323 296.557 258.79 296.986C259.257 297.415 259.832 297.63 260.513 297.63C261.498 297.63 262.198 297.207 262.615 296.361H265.474C265.171 297.371 264.59 298.204 263.732 298.861C262.874 299.504 261.82 299.826 260.57 299.826C259.56 299.826 258.651 299.605 257.843 299.163C257.048 298.709 256.423 298.072 255.969 297.251C255.527 296.431 255.306 295.484 255.306 294.411C255.306 293.325 255.527 292.372 255.969 291.552C256.411 290.731 257.029 290.1 257.825 289.658C258.62 289.217 259.535 288.996 260.57 288.996C261.567 288.996 262.457 289.21 263.24 289.639C264.035 290.069 264.647 290.681 265.076 291.476C265.518 292.259 265.739 293.161 265.739 294.184ZM262.994 293.426C262.981 292.745 262.735 292.202 262.255 291.798C261.776 291.381 261.189 291.173 260.494 291.173C259.838 291.173 259.282 291.375 258.828 291.779C258.386 292.17 258.115 292.719 258.014 293.426H262.994ZM269.378 290.794C269.719 290.239 270.161 289.804 270.703 289.488C271.259 289.172 271.89 289.015 272.597 289.015V291.798H271.896C271.063 291.798 270.432 291.994 270.003 292.385C269.586 292.776 269.378 293.458 269.378 294.43V299.656H266.727V289.166H269.378V290.794ZM277.45 299.826C276.591 299.826 275.821 299.675 275.14 299.372C274.458 299.056 273.915 298.633 273.511 298.103C273.12 297.573 272.906 296.986 272.868 296.342H275.537C275.588 296.746 275.784 297.081 276.124 297.346C276.478 297.611 276.913 297.743 277.431 297.743C277.936 297.743 278.327 297.642 278.605 297.44C278.895 297.238 279.04 296.98 279.04 296.664C279.04 296.323 278.864 296.071 278.51 295.907C278.169 295.73 277.62 295.541 276.863 295.339C276.08 295.149 275.436 294.954 274.931 294.752C274.439 294.55 274.01 294.241 273.644 293.824C273.291 293.407 273.114 292.846 273.114 292.139C273.114 291.558 273.278 291.028 273.606 290.548C273.947 290.069 274.427 289.69 275.045 289.412C275.676 289.135 276.415 288.996 277.26 288.996C278.51 288.996 279.507 289.311 280.252 289.942C280.997 290.561 281.407 291.4 281.483 292.461H278.946C278.908 292.044 278.731 291.716 278.415 291.476C278.112 291.224 277.702 291.097 277.185 291.097C276.705 291.097 276.333 291.186 276.068 291.362C275.815 291.539 275.689 291.785 275.689 292.101C275.689 292.454 275.866 292.726 276.219 292.915C276.572 293.092 277.122 293.275 277.866 293.464C278.624 293.654 279.249 293.849 279.741 294.051C280.233 294.253 280.656 294.569 281.009 294.998C281.375 295.414 281.565 295.97 281.577 296.664C281.577 297.27 281.407 297.813 281.066 298.292C280.738 298.772 280.258 299.151 279.627 299.429C279.009 299.694 278.283 299.826 277.45 299.826Z" fill="black"/>
<path d="M176.625 294.373C176.625 293.313 176.833 292.372 177.25 291.552C177.679 290.731 178.253 290.1 178.973 289.658C179.705 289.217 180.519 288.996 181.415 288.996C182.198 288.996 182.88 289.153 183.46 289.469C184.053 289.785 184.527 290.182 184.88 290.662V289.166H187.55V299.656H184.88V298.122C184.539 298.614 184.066 299.025 183.46 299.353C182.867 299.668 182.179 299.826 181.396 299.826C180.513 299.826 179.705 299.599 178.973 299.145C178.253 298.69 177.679 298.053 177.25 297.232C176.833 296.399 176.625 295.446 176.625 294.373ZM184.88 294.411C184.88 293.767 184.754 293.218 184.502 292.764C184.249 292.297 183.908 291.943 183.479 291.703C183.05 291.451 182.589 291.325 182.097 291.325C181.605 291.325 181.15 291.445 180.734 291.684C180.317 291.924 179.976 292.278 179.711 292.745C179.459 293.199 179.332 293.742 179.332 294.373C179.332 295.004 179.459 295.56 179.711 296.039C179.976 296.506 180.317 296.866 180.734 297.119C181.163 297.371 181.617 297.497 182.097 297.497C182.589 297.497 183.05 297.377 183.479 297.137C183.908 296.885 184.249 296.532 184.502 296.077C184.754 295.61 184.88 295.055 184.88 294.411ZM188.511 294.411C188.511 293.325 188.732 292.379 189.173 291.571C189.615 290.75 190.227 290.119 191.01 289.677C191.793 289.223 192.689 288.996 193.699 288.996C194.999 288.996 196.072 289.324 196.918 289.98C197.776 290.624 198.35 291.533 198.641 292.707H195.781C195.63 292.252 195.371 291.899 195.005 291.646C194.652 291.381 194.21 291.249 193.68 291.249C192.922 291.249 192.323 291.527 191.881 292.082C191.439 292.625 191.218 293.401 191.218 294.411C191.218 295.408 191.439 296.184 191.881 296.74C192.323 297.283 192.922 297.554 193.68 297.554C194.753 297.554 195.453 297.074 195.781 296.115H198.641C198.35 297.251 197.776 298.154 196.918 298.823C196.059 299.492 194.986 299.826 193.699 299.826C192.689 299.826 191.793 299.605 191.01 299.163C190.227 298.709 189.615 298.078 189.173 297.27C188.732 296.45 188.511 295.496 188.511 294.411ZM202.722 291.344V296.418C202.722 296.771 202.804 297.03 202.968 297.194C203.145 297.346 203.435 297.421 203.839 297.421H205.07V299.656H203.404C201.169 299.656 200.052 298.57 200.052 296.399V291.344H198.803V289.166H200.052V286.572H202.722V289.166H205.07V291.344H202.722ZM207.374 287.916C206.907 287.916 206.516 287.771 206.2 287.481C205.897 287.178 205.746 286.806 205.746 286.364C205.746 285.922 205.897 285.556 206.2 285.266C206.516 284.963 206.907 284.811 207.374 284.811C207.841 284.811 208.226 284.963 208.529 285.266C208.845 285.556 209.003 285.922 209.003 286.364C209.003 286.806 208.845 287.178 208.529 287.481C208.226 287.771 207.841 287.916 207.374 287.916ZM208.681 289.166V299.656H206.03V289.166H208.681ZM214.727 297.213L217.378 289.166H220.199L216.317 299.656H213.098L209.236 289.166H212.076L214.727 297.213ZM230.492 294.184C230.492 294.562 230.467 294.903 230.417 295.206H222.748C222.811 295.964 223.076 296.557 223.543 296.986C224.01 297.415 224.585 297.63 225.266 297.63C226.251 297.63 226.952 297.207 227.368 296.361H230.227C229.924 297.371 229.344 298.204 228.485 298.861C227.627 299.504 226.573 299.826 225.323 299.826C224.313 299.826 223.404 299.605 222.597 299.163C221.801 298.709 221.177 298.072 220.722 297.251C220.28 296.431 220.059 295.484 220.059 294.411C220.059 293.325 220.28 292.372 220.722 291.552C221.164 290.731 221.782 290.1 222.578 289.658C223.373 289.217 224.288 288.996 225.323 288.996C226.32 288.996 227.21 289.21 227.993 289.639C228.788 290.069 229.4 290.681 229.83 291.476C230.271 292.259 230.492 293.161 230.492 294.184ZM227.747 293.426C227.734 292.745 227.488 292.202 227.008 291.798C226.529 291.381 225.942 291.173 225.247 291.173C224.591 291.173 224.036 291.375 223.581 291.779C223.139 292.17 222.868 292.719 222.767 293.426H227.747ZM244.948 289.166V299.656H242.278V298.33C241.938 298.785 241.489 299.145 240.934 299.41C240.391 299.662 239.798 299.788 239.154 299.788C238.334 299.788 237.608 299.618 236.977 299.277C236.346 298.924 235.847 298.412 235.481 297.743C235.127 297.062 234.951 296.254 234.951 295.32V289.166H237.602V294.941C237.602 295.774 237.81 296.418 238.226 296.872C238.643 297.314 239.211 297.535 239.93 297.535C240.663 297.535 241.237 297.314 241.653 296.872C242.07 296.418 242.278 295.774 242.278 294.941V289.166H244.948ZM250.631 299.826C249.773 299.826 249.003 299.675 248.321 299.372C247.639 299.056 247.096 298.633 246.693 298.103C246.301 297.573 246.087 296.986 246.049 296.342H248.719C248.769 296.746 248.965 297.081 249.306 297.346C249.659 297.611 250.094 297.743 250.612 297.743C251.117 297.743 251.508 297.642 251.786 297.44C252.076 297.238 252.221 296.98 252.221 296.664C252.221 296.323 252.045 296.071 251.691 295.907C251.35 295.73 250.801 295.541 250.044 295.339C249.261 295.149 248.618 294.954 248.113 294.752C247.62 294.55 247.191 294.241 246.825 293.824C246.472 293.407 246.295 292.846 246.295 292.139C246.295 291.558 246.459 291.028 246.787 290.548C247.128 290.069 247.608 289.69 248.226 289.412C248.857 289.135 249.596 288.996 250.442 288.996C251.691 288.996 252.688 289.311 253.433 289.942C254.178 290.561 254.588 291.4 254.664 292.461H252.127C252.089 292.044 251.912 291.716 251.597 291.476C251.294 291.224 250.883 291.097 250.366 291.097C249.886 291.097 249.514 291.186 249.249 291.362C248.996 291.539 248.87 291.785 248.87 292.101C248.87 292.454 249.047 292.726 249.4 292.915C249.754 293.092 250.303 293.275 251.047 293.464C251.805 293.654 252.43 293.849 252.922 294.051C253.414 294.253 253.837 294.569 254.191 294.998C254.557 295.414 254.746 295.97 254.759 296.664C254.759 297.27 254.588 297.813 254.247 298.292C253.919 298.772 253.44 299.151 252.808 299.429C252.19 299.694 251.464 299.826 250.631 299.826ZM265.739 294.184C265.739 294.562 265.714 294.903 265.663 295.206H257.995C258.058 295.964 258.323 296.557 258.79 296.986C259.257 297.415 259.832 297.63 260.513 297.63C261.498 297.63 262.198 297.207 262.615 296.361H265.474C265.171 297.371 264.59 298.204 263.732 298.861C262.874 299.504 261.82 299.826 260.57 299.826C259.56 299.826 258.651 299.605 257.843 299.163C257.048 298.709 256.423 298.072 255.969 297.251C255.527 296.431 255.306 295.484 255.306 294.411C255.306 293.325 255.527 292.372 255.969 291.552C256.411 290.731 257.029 290.1 257.825 289.658C258.62 289.217 259.535 288.996 260.57 288.996C261.567 288.996 262.457 289.21 263.24 289.639C264.035 290.069 264.647 290.681 265.076 291.476C265.518 292.259 265.739 293.161 265.739 294.184ZM262.994 293.426C262.981 292.745 262.735 292.202 262.255 291.798C261.776 291.381 261.189 291.173 260.494 291.173C259.838 291.173 259.282 291.375 258.828 291.779C258.386 292.17 258.115 292.719 258.014 293.426H262.994ZM269.378 290.794C269.719 290.239 270.161 289.804 270.703 289.488C271.259 289.172 271.89 289.015 272.597 289.015V291.798H271.896C271.063 291.798 270.432 291.994 270.003 292.385C269.586 292.776 269.378 293.458 269.378 294.43V299.656H266.727V289.166H269.378V290.794ZM277.45 299.826C276.591 299.826 275.821 299.675 275.14 299.372C274.458 299.056 273.915 298.633 273.511 298.103C273.12 297.573 272.906 296.986 272.868 296.342H275.537C275.588 296.746 275.784 297.081 276.124 297.346C276.478 297.611 276.913 297.743 277.431 297.743C277.936 297.743 278.327 297.642 278.605 297.44C278.895 297.238 279.04 296.98 279.04 296.664C279.04 296.323 278.864 296.071 278.51 295.907C278.169 295.73 277.62 295.541 276.863 295.339C276.08 295.149 275.436 294.954 274.931 294.752C274.439 294.55 274.01 294.241 273.644 293.824C273.291 293.407 273.114 292.846 273.114 292.139C273.114 291.558 273.278 291.028 273.606 290.548C273.947 290.069 274.427 289.69 275.045 289.412C275.676 289.135 276.415 288.996 277.26 288.996C278.51 288.996 279.507 289.311 280.252 289.942C280.997 290.561 281.407 291.4 281.483 292.461H278.946C278.908 292.044 278.731 291.716 278.415 291.476C278.112 291.224 277.702 291.097 277.185 291.097C276.705 291.097 276.333 291.186 276.068 291.362C275.815 291.539 275.689 291.785 275.689 292.101C275.689 292.454 275.866 292.726 276.219 292.915C276.572 293.092 277.122 293.275 277.866 293.464C278.624 293.654 279.249 293.849 279.741 294.051C280.233 294.253 280.656 294.569 281.009 294.998C281.375 295.414 281.565 295.97 281.577 296.664C281.577 297.27 281.407 297.813 281.066 298.292C280.738 298.772 280.258 299.151 279.627 299.429C279.009 299.694 278.283 299.826 277.45 299.826Z" fill="url(#paint6_linear_21_8)"/>
<defs>
<linearGradient id="paint0_linear_21_8" x1="235.638" y1="19.773" x2="480.676" y2="222.842" gradientUnits="userSpaceOnUse">
<stop stop-color="#FEE9F0" stop-opacity="0.58"/>
<stop offset="1" stop-color="#E7F5FF"/>
</linearGradient>
<linearGradient id="paint1_linear_21_8" x1="351.558" y1="267.82" x2="229.875" y2="135.499" gradientUnits="userSpaceOnUse">
<stop stop-color="#3059D8"/>
<stop offset="0.941137" stop-color="#921E8D"/>
</linearGradient>
<linearGradient id="paint2_linear_21_8" x1="351.558" y1="267.82" x2="229.875" y2="135.499" gradientUnits="userSpaceOnUse">
<stop stop-color="#3059D8"/>
<stop offset="0.941137" stop-color="#921E8D"/>
</linearGradient>
<linearGradient id="paint3_linear_21_8" x1="351.558" y1="267.82" x2="229.875" y2="135.499" gradientUnits="userSpaceOnUse">
<stop stop-color="#3059D8"/>
<stop offset="0.941137" stop-color="#921E8D"/>
</linearGradient>
<linearGradient id="paint4_linear_21_8" x1="351.558" y1="267.82" x2="229.875" y2="135.499" gradientUnits="userSpaceOnUse">
<stop stop-color="#3059D8"/>
<stop offset="0.941137" stop-color="#921E8D"/>
</linearGradient>
<linearGradient id="paint5_linear_21_8" x1="442.894" y1="285.164" x2="372.066" y2="68.3351" gradientUnits="userSpaceOnUse">
<stop stop-color="#3059D8"/>
<stop offset="0.941137" stop-color="#921E8D"/>
</linearGradient>
<linearGradient id="paint6_linear_21_8" x1="374.934" y1="302.65" x2="372.307" y2="266.483" gradientUnits="userSpaceOnUse">
<stop stop-color="#3059D8"/>
<stop offset="0.941137" stop-color="#921E8D"/>
</linearGradient>
</defs>
</svg>
