<svg width="989" height="857" viewBox="0 0 989 857" fill="none" xmlns="http://www.w3.org/2000/svg">
<path d="M897.952 407.835L363.282 811.291C263.335 886.517 121.33 866.477 46.1042 766.53C-29.1215 666.583 -9.08154 524.578 90.8652 449.352L625.535 45.896C725.482 -29.3298 867.487 -9.28949 942.713 90.6572C1017.94 190.604 997.899 332.61 897.952 407.835Z" fill="url(#paint0_linear)"/>
<path d="M352.781 819.22L712.652 547.665V252.615H276.981V854.177C303.657 848.284 329.528 836.721 352.781 819.22Z" fill="url(#paint1_linear)"/>
<path opacity="0.1" d="M669.979 494.386L623.711 448.118V513.213L642.601 494.386H669.979Z" fill="#93278F"/>
<path d="M712.652 252.615H276.981V216.18C276.981 201.647 288.762 189.866 303.294 189.866H686.338C700.87 189.866 712.652 201.647 712.652 216.18V252.615Z" fill="#1E003C"/>
<path d="M310.262 231.112C315.713 231.112 320.133 226.692 320.133 221.241C320.133 215.789 315.713 211.37 310.262 211.37C304.81 211.37 300.391 215.789 300.391 221.241C300.391 226.692 304.81 231.112 310.262 231.112Z" fill="#ED1E60"/>
<path d="M339.052 231.112C344.503 231.112 348.923 226.692 348.923 221.241C348.923 215.789 344.503 211.37 339.052 211.37C333.6 211.37 329.181 215.789 329.181 221.241C329.181 226.692 333.6 231.112 339.052 231.112Z" fill="#FFBE00"/>
<path d="M367.842 231.112C373.293 231.112 377.713 226.692 377.713 221.241C377.713 215.789 373.293 211.37 367.842 211.37C362.39 211.37 357.971 215.789 357.971 221.241C357.971 226.692 362.39 231.112 367.842 231.112Z" fill="#39D59B"/>
<path opacity="0.2" d="M400.651 294.231L501.876 370.195L328.071 546.46L231.727 474.153L400.651 294.231Z" fill="#93278F"/>
<path d="M668.76 478.138L612.156 421.534V501.171L635.267 478.138H668.76Z" fill="url(#paint2_linear)"/>
<path d="M612.156 421.534V501.171L635.267 478.138L612.156 421.534Z" fill="url(#paint3_linear)"/>
<path d="M490.92 551.221H339.856C330.475 551.221 322.87 543.616 322.87 534.235V383.171C322.87 373.79 330.475 366.185 339.856 366.185H490.92C500.301 366.185 507.905 373.79 507.905 383.171V534.235C507.905 543.616 500.301 551.221 490.92 551.221Z" fill="url(#paint4_linear)"/>
<path d="M794.865 488.013C794.041 488.013 793.372 487.345 793.372 486.52V474.811C793.372 473.987 794.041 473.319 794.865 473.319C795.689 473.319 796.357 473.987 796.357 474.811V486.52C796.357 487.345 795.689 488.013 794.865 488.013Z" fill="white"/>
<path d="M363.281 811.291L507.1 702.768V625.798C507.1 611.266 495.319 599.485 480.786 599.485H177.574C163.041 599.485 151.26 611.266 151.26 625.798V841.567C164.056 847.018 177.337 851.136 190.878 853.904C249.616 863.405 311.987 849.898 363.281 811.291Z" fill="#1E003C"/>
<path d="M391.154 476.365H240.089C230.708 476.365 223.104 468.761 223.104 459.38V308.315C223.104 298.935 230.708 291.33 240.089 291.33H391.154C400.534 291.33 408.139 298.935 408.139 308.315V459.38C408.139 468.761 400.534 476.365 391.154 476.365Z" fill="url(#paint5_linear)"/>
<path d="M315.257 434.63C345.783 434.63 370.529 409.884 370.529 379.359C370.529 348.833 345.783 324.087 315.257 324.087C284.732 324.087 259.985 348.833 259.985 379.359C259.985 409.884 284.732 434.63 315.257 434.63Z" fill="white"/>
<path d="M358.598 366.185L225.844 468.594C225.948 468.754 226.045 468.92 226.155 469.076C226.36 469.372 226.577 469.659 226.8 469.94C226.946 470.123 227.097 470.301 227.25 470.478C227.412 470.666 227.58 470.847 227.749 471.027C227.967 471.258 228.19 471.482 228.42 471.7C228.614 471.884 228.811 472.064 229.013 472.239C229.17 472.375 229.327 472.509 229.489 472.639C229.798 472.886 230.114 473.124 230.44 473.35C230.585 473.45 230.733 473.544 230.882 473.64C231.158 473.819 231.44 473.99 231.727 474.153C231.848 474.222 231.966 474.295 232.09 474.361C232.475 474.568 232.873 474.755 233.275 474.933C233.409 474.991 233.543 475.048 233.678 475.104C234.101 475.277 234.531 475.437 234.97 475.576C235.053 475.603 235.138 475.623 235.221 475.648C235.632 475.771 236.05 475.878 236.473 475.97C236.571 475.992 236.668 476.016 236.767 476.035C237.243 476.13 237.727 476.203 238.217 476.257C238.323 476.268 238.43 476.277 238.536 476.287C239.049 476.333 239.565 476.365 240.09 476.365H310.105H391.154C400.535 476.365 408.139 468.76 408.139 459.38V404.014L358.598 366.185Z" fill="#39D59B"/>
<path d="M358.598 366.185V476.365H391.154C400.534 476.365 408.139 468.76 408.139 459.38V404.015L358.598 366.185Z" fill="#0A9C86"/>
<path d="M415.388 488.364H415.388C399.007 488.364 385.727 475.084 385.727 458.703V458.703C385.727 442.321 399.007 429.041 415.388 429.041H415.388C431.77 429.041 445.049 442.321 445.049 458.703V458.703C445.049 475.084 431.77 488.364 415.388 488.364Z" fill="white"/>
<path d="M278.01 743.331H192.681C191.032 743.331 189.695 741.994 189.695 740.345C189.695 738.697 191.032 737.36 192.681 737.36H278.01C279.659 737.36 280.995 738.697 280.995 740.345C280.995 741.994 279.659 743.331 278.01 743.331Z" fill="#39D59B"/>
<path d="M278.01 816.717H192.681C191.032 816.717 189.695 815.38 189.695 813.732C189.695 812.083 191.032 810.747 192.681 810.747H278.01C279.659 810.747 280.995 812.083 280.995 813.732C280.995 815.38 279.659 816.717 278.01 816.717Z" fill="#39D59B"/>
<path d="M341.042 767.793H214.976C213.327 767.793 211.991 766.456 211.991 764.808C211.991 763.159 213.327 761.822 214.976 761.822H341.042C342.691 761.822 344.027 763.159 344.027 764.808C344.027 766.456 342.691 767.793 341.042 767.793Z" fill="#ED1E60"/>
<path d="M278.009 792.255H214.976C213.327 792.255 211.991 790.918 211.991 789.27C211.991 787.621 213.327 786.285 214.976 786.285H278.009C279.658 786.285 280.994 787.621 280.994 789.27C280.994 790.918 279.658 792.255 278.009 792.255Z" fill="#ED1E60"/>
<path d="M410.572 471.81C409.808 471.81 409.045 471.518 408.462 470.935C407.296 469.77 407.296 467.88 408.462 466.714L416.619 458.556L408.755 450.692C407.589 449.526 407.589 447.636 408.755 446.471C409.919 445.305 411.81 445.305 412.976 446.47L425.063 458.556L412.683 470.936C412.1 471.518 411.336 471.81 410.572 471.81Z" fill="#662D91"/>
<path d="M389.145 706.031H101.332C84.8339 706.031 71.3351 692.532 71.3351 676.034V676.034C71.3351 659.535 84.8339 646.036 101.332 646.036H389.145C405.643 646.036 419.142 659.535 419.142 676.034V676.034C419.142 692.532 405.643 706.031 389.145 706.031Z" fill="url(#paint6_linear)"/>
<path d="M119.83 687.96L114.287 682.416C115.669 680.322 116.479 677.818 116.479 675.127C116.479 667.807 110.525 661.852 103.205 661.852C95.8845 661.852 89.9288 667.807 89.9288 675.127C89.9288 682.447 95.8845 688.402 103.205 688.402C106.038 688.402 108.661 687.502 110.819 685.984L116.312 691.477C116.798 691.963 117.434 692.206 118.071 692.206C118.707 692.206 119.344 691.963 119.83 691.478C120.801 690.506 120.801 688.931 119.83 687.96ZM103.205 683.427C98.6277 683.427 94.9041 679.704 94.9041 675.127C94.9041 670.55 98.6277 666.827 103.205 666.827C107.781 666.827 111.504 670.55 111.504 675.127C111.504 679.704 107.781 683.427 103.205 683.427Z" fill="#83278F"/>
<path d="M473.84 644.367C479.291 644.367 483.711 639.947 483.711 634.496C483.711 629.044 479.291 624.625 473.84 624.625C468.388 624.625 463.969 629.044 463.969 634.496C463.969 639.947 468.388 644.367 473.84 644.367Z" fill="#FFBE00"/>
<path d="M445.05 644.367C450.501 644.367 454.921 639.947 454.921 634.496C454.921 629.044 450.501 624.625 445.05 624.625C439.598 624.625 435.179 629.044 435.179 634.496C435.179 639.947 439.598 644.367 445.05 644.367Z" fill="#ED1E60"/>
<path d="M156.932 246.393L155.762 248.003L244.927 312.787L246.097 311.176L156.932 246.393Z" fill="#83278F"/>
<path d="M134.43 259.923C118.827 259.923 106.133 247.23 106.133 231.627C106.133 216.024 118.827 203.331 134.43 203.331C150.032 203.331 162.725 216.024 162.725 231.627C162.725 247.23 150.032 259.923 134.43 259.923ZM134.43 205.321C119.924 205.321 108.123 217.122 108.123 231.627C108.123 246.133 119.924 257.933 134.43 257.933C148.934 257.933 160.735 246.133 160.735 231.627C160.735 217.122 148.934 205.321 134.43 205.321Z" fill="#83278F"/>
<path d="M238.674 311.982V311.982C238.674 315.607 241.613 318.546 245.238 318.546C248.863 318.546 251.802 315.607 251.802 311.982V311.982C251.802 308.357 248.863 305.418 245.238 305.418C241.613 305.418 238.674 308.357 238.674 311.982Z" fill="#83278F"/>
<path d="M126.958 281.992V281.992C126.958 286.118 130.303 289.463 134.429 289.463C138.555 289.463 141.899 286.118 141.899 281.992V281.992C141.899 277.866 138.555 274.521 134.429 274.521C130.303 274.521 126.958 277.866 126.958 281.992Z" fill="#C29EC7"/>
<path fill-rule="evenodd" clip-rule="evenodd" d="M128.924 311.982C128.924 315.022 131.388 317.486 134.428 317.486C137.468 317.486 139.933 315.022 139.933 311.982C139.933 308.942 137.468 306.477 134.428 306.477C131.388 306.477 128.924 308.942 128.924 311.982ZM134.428 319.486C130.284 319.486 126.924 316.126 126.924 311.982C126.924 307.837 130.284 304.477 134.428 304.477C138.573 304.477 141.933 307.837 141.933 311.982C141.933 316.126 138.573 319.486 134.428 319.486Z" fill="#DDD1DF"/>
<path d="M145.16 223.079H143.863C143.018 223.079 142.323 222.545 141.771 221.944L140.263 220.277C139.681 219.651 139.015 219.142 138.17 219.142H130.687C129.843 219.142 129.179 219.649 128.595 220.277L127.087 221.944C126.452 222.609 125.839 223.079 124.995 223.079H123.697C122.319 223.079 121.201 224.197 121.201 225.575V239.283C121.201 240.661 122.319 241.779 123.697 241.779H145.16C146.539 241.779 147.656 240.661 147.656 239.283V225.575C147.656 224.197 146.539 223.079 145.16 223.079ZM134.429 237.868C131.037 237.868 128.288 235.119 128.288 231.727C128.288 228.336 131.037 225.586 134.429 225.586C137.82 225.586 140.57 228.336 140.57 231.727C140.57 235.119 137.82 237.868 134.429 237.868Z" fill="#83278F"/>
<path fill-rule="evenodd" clip-rule="evenodd" d="M612.156 561.386C612.156 562.485 613.047 563.376 614.146 563.376H755.007C756.106 563.376 756.997 562.485 756.997 561.386C756.997 560.287 756.106 559.396 755.007 559.396H614.146C613.047 559.396 612.156 560.287 612.156 561.386ZM756.997 584.718C756.997 583.619 756.106 582.728 755.007 582.728H614.146C613.047 582.728 612.156 583.619 612.156 584.718C612.156 585.818 613.047 586.709 614.146 586.709H755.007C756.106 586.709 756.997 585.818 756.997 584.718ZM612.156 608.051C612.156 606.951 613.047 606.06 614.146 606.06H684.577C685.676 606.06 686.567 606.951 686.567 608.051C686.567 609.15 685.676 610.041 684.577 610.041H614.146C613.047 610.041 612.156 609.15 612.156 608.051Z" fill="#83278F"/>
<path d="M835.203 382.495H823.494C822.67 382.495 822.001 381.827 822.001 381.002C822.001 380.178 822.67 379.51 823.494 379.51H835.203C836.027 379.51 836.695 380.178 836.695 381.002C836.695 381.827 836.027 382.495 835.203 382.495Z" fill="white"/>
<path d="M811.784 382.495H800.075C799.251 382.495 798.583 381.827 798.583 381.002C798.583 380.178 799.251 379.51 800.075 379.51H811.784C812.608 379.51 813.277 380.178 813.277 381.002C813.277 381.827 812.608 382.495 811.784 382.495Z" fill="white"/>
<path d="M788.367 382.495H776.658C775.834 382.495 775.165 381.827 775.165 381.002C775.165 380.178 775.834 379.51 776.658 379.51H788.367C789.191 379.51 789.859 380.178 789.859 381.002C789.859 381.827 789.191 382.495 788.367 382.495Z" fill="white"/>
<path d="M852.882 458.72C852.058 458.72 851.39 458.051 851.39 457.227V445.518C851.39 444.693 852.058 444.025 852.882 444.025C853.706 444.025 854.375 444.693 854.375 445.518V457.227C854.375 458.051 853.706 458.72 852.882 458.72Z" fill="white"/>
<path d="M852.882 482.138C852.058 482.138 851.39 481.47 851.39 480.645V468.936C851.39 468.111 852.058 467.443 852.882 467.443C853.706 467.443 854.375 468.111 854.375 468.936V480.645C854.375 481.47 853.706 482.138 852.882 482.138Z" fill="white"/>
<path d="M852.882 505.556C852.058 505.556 851.39 504.888 851.39 504.064V492.354C851.39 491.53 852.058 490.862 852.882 490.862C853.706 490.862 854.375 491.53 854.375 492.354V504.064C854.375 504.888 853.706 505.556 852.882 505.556Z" fill="white"/>
<path d="M852.882 435.301C852.058 435.301 851.39 434.633 851.39 433.809V422.1C851.39 421.275 852.058 420.607 852.882 420.607C853.706 420.607 854.375 421.275 854.375 422.1V433.809C854.375 434.633 853.706 435.301 852.882 435.301Z" fill="white"/>
<path d="M852.882 411.883C852.058 411.883 851.39 411.215 851.39 410.391V398.681C851.39 397.857 852.058 397.189 852.882 397.189C853.706 397.189 854.375 397.857 854.375 398.681V410.391C854.375 411.215 853.706 411.883 852.882 411.883Z" fill="white"/>
<path d="M865.206 390.839H844.538C843.714 390.839 843.046 390.17 843.046 389.346V368.678C843.046 367.853 843.714 367.185 844.538 367.185H865.206C866.03 367.185 866.699 367.853 866.699 368.678V389.346C866.699 390.17 866.03 390.839 865.206 390.839ZM846.031 387.853H863.713V370.17H846.031V387.853Z" fill="white"/>
<path d="M625.23 655.935H613.521C612.696 655.935 612.028 656.603 612.028 657.427C612.028 658.252 612.696 658.92 613.521 658.92H625.23C626.054 658.92 626.722 658.252 626.722 657.427C626.722 656.603 626.054 655.935 625.23 655.935Z" fill="#83278F"/>
<path d="M672.066 655.935H660.356C659.532 655.935 658.864 656.603 658.864 657.427C658.864 658.252 659.532 658.92 660.356 658.92H672.066C672.89 658.92 673.558 658.252 673.558 657.427C673.558 656.603 672.89 655.935 672.066 655.935Z" fill="#83278F"/>
<path d="M695.483 655.935H683.774C682.95 655.935 682.281 656.603 682.281 657.427C682.281 658.252 682.95 658.92 683.774 658.92H695.483C696.307 658.92 696.976 658.252 696.976 657.427C696.976 656.603 696.307 655.935 695.483 655.935Z" fill="#83278F"/>
<path d="M601.811 655.935H590.102C589.278 655.935 588.609 656.603 588.609 657.427C588.609 658.252 589.278 658.92 590.102 658.92H601.811C602.635 658.92 603.304 658.252 603.304 657.427C603.304 656.603 602.635 655.935 601.811 655.935Z" fill="#83278F"/>
<path d="M648.647 655.935H636.938C636.114 655.935 635.445 656.603 635.445 657.427C635.445 658.252 636.114 658.92 636.938 658.92H648.647C649.471 658.92 650.14 658.252 650.14 657.427C650.14 656.603 649.471 655.935 648.647 655.935Z" fill="#83278F"/>
<path d="M764.948 655.935H753.239C752.415 655.935 751.747 656.603 751.747 657.427C751.747 658.252 752.415 658.92 753.239 658.92H764.948C765.772 658.92 766.441 658.252 766.441 657.427C766.441 656.603 765.772 655.935 764.948 655.935Z" fill="#83278F"/>
<path d="M741.531 655.935H729.822C728.998 655.935 728.329 656.603 728.329 657.427C728.329 658.252 728.998 658.92 729.822 658.92H741.531C742.355 658.92 743.024 658.252 743.024 657.427C743.024 656.603 742.355 655.935 741.531 655.935Z" fill="#83278F"/>
<path d="M835.203 655.935H823.494C822.67 655.935 822.001 656.603 822.001 657.427C822.001 658.252 822.67 658.92 823.494 658.92H835.203C836.027 658.92 836.695 658.252 836.695 657.427C836.695 656.603 836.027 655.935 835.203 655.935Z" fill="#83278F"/>
<path d="M811.784 655.935H800.075C799.251 655.935 798.583 656.603 798.583 657.427C798.583 658.252 799.251 658.92 800.075 658.92H811.784C812.608 658.92 813.277 658.252 813.277 657.427C813.277 656.603 812.608 655.935 811.784 655.935Z" fill="#83278F"/>
<path d="M788.366 655.935H776.658C775.834 655.935 775.165 656.603 775.165 657.427C775.165 658.252 775.834 658.92 776.658 658.92H788.366C789.19 658.92 789.858 658.252 789.858 657.427C789.858 656.603 789.19 655.935 788.366 655.935Z" fill="#83278F"/>
<path d="M573.915 581.202C573.915 580.377 573.246 579.709 572.422 579.709C571.598 579.709 570.93 580.377 570.93 581.202V592.911C570.93 593.736 571.598 594.404 572.422 594.404C573.246 594.404 573.915 593.736 573.915 592.911V581.202Z" fill="#83278F"/>
<path d="M572.422 411.883C573.246 411.883 573.915 411.215 573.915 410.391V398.681C573.915 397.857 573.246 397.189 572.422 397.189C571.598 397.189 570.93 397.857 570.93 398.681V410.391C570.93 411.215 571.598 411.883 572.422 411.883Z" fill="#83278F"/>
<path d="M573.915 557.784C573.915 556.959 573.246 556.291 572.422 556.291C571.598 556.291 570.93 556.959 570.93 557.784V569.493C570.93 570.317 571.598 570.985 572.422 570.985C573.246 570.985 573.915 570.317 573.915 569.493V557.784Z" fill="#83278F"/>
<path d="M573.915 534.365C573.915 533.541 573.246 532.873 572.422 532.873C571.598 532.873 570.93 533.541 570.93 534.365V546.074C570.93 546.899 571.598 547.567 572.422 547.567C573.246 547.567 573.915 546.899 573.915 546.074V534.365Z" fill="#83278F"/>
<path d="M572.422 626.546C571.598 626.546 570.93 627.214 570.93 628.038V639.748C570.93 640.572 571.598 641.24 572.422 641.24C573.246 641.24 573.915 640.572 573.915 639.748V628.038C573.915 627.214 573.246 626.546 572.422 626.546Z" fill="#83278F"/>
<path d="M570.93 457.227C570.93 458.052 571.598 458.72 572.422 458.72C573.246 458.72 573.915 458.052 573.915 457.227V445.518C573.915 444.693 573.246 444.025 572.422 444.025C571.598 444.025 570.93 444.693 570.93 445.518V457.227Z" fill="#83278F"/>
<path d="M570.93 480.645C570.93 481.47 571.598 482.138 572.422 482.138C573.246 482.138 573.915 481.47 573.915 480.645V468.936C573.915 468.111 573.246 467.443 572.422 467.443C571.598 467.443 570.93 468.111 570.93 468.936V480.645Z" fill="#83278F"/>
<path d="M570.93 504.064C570.93 504.888 571.598 505.556 572.422 505.556C573.246 505.556 573.915 504.888 573.915 504.064V492.354C573.915 491.53 573.246 490.862 572.422 490.862C571.598 490.862 570.93 491.53 570.93 492.354V504.064Z" fill="#83278F"/>
<path d="M570.93 433.809C570.93 434.633 571.598 435.301 572.422 435.301C573.246 435.301 573.915 434.633 573.915 433.809V422.099C573.915 421.275 573.246 420.607 572.422 420.607C571.598 420.607 570.93 421.275 570.93 422.099V433.809Z" fill="#83278F"/>
<path d="M573.915 604.62C573.915 603.796 573.246 603.128 572.422 603.128C571.598 603.128 570.93 603.796 570.93 604.62V616.329C570.93 617.154 571.598 617.822 572.422 617.822C573.246 617.822 573.915 617.154 573.915 616.329V604.62Z" fill="#83278F"/>
<path d="M753.239 382.495H764.948C765.772 382.495 766.441 381.827 766.441 381.002C766.441 380.178 765.772 379.51 764.948 379.51H753.239C752.415 379.51 751.747 380.178 751.747 381.002C751.747 381.827 752.415 382.495 753.239 382.495Z" fill="white"/>
<path d="M729.822 382.495H741.531C742.355 382.495 743.024 381.827 743.024 381.002C743.024 380.178 742.355 379.51 741.531 379.51H729.822C728.998 379.51 728.329 380.178 728.329 381.002C728.329 381.827 728.998 382.495 729.822 382.495Z" fill="white"/>
<path d="M660.356 382.495H672.066C672.89 382.495 673.558 381.827 673.558 381.002C673.558 380.178 672.89 379.51 672.066 379.51H660.356C659.532 379.51 658.864 380.178 658.864 381.002C658.864 381.827 659.532 382.495 660.356 382.495Z" fill="#83278F"/>
<path d="M683.774 382.495H695.483C696.307 382.495 696.976 381.827 696.976 381.002C696.976 380.178 696.307 379.51 695.483 379.51H683.774C682.95 379.51 682.281 380.178 682.281 381.002C682.281 381.827 682.95 382.495 683.774 382.495Z" fill="#83278F"/>
<path d="M636.939 382.495H648.647C649.471 382.495 650.14 381.827 650.14 381.002C650.14 380.178 649.471 379.51 648.647 379.51H636.939C636.115 379.51 635.446 380.178 635.446 381.002C635.446 381.827 636.115 382.495 636.939 382.495Z" fill="#83278F"/>
<path d="M613.521 382.495H625.23C626.054 382.495 626.722 381.827 626.722 381.002C626.722 380.178 626.054 379.51 625.23 379.51H613.521C612.696 379.51 612.028 380.178 612.028 381.002C612.028 381.827 612.696 382.495 613.521 382.495Z" fill="#83278F"/>
<path d="M601.811 379.51H590.102C589.278 379.51 588.609 380.178 588.609 381.002C588.609 381.827 589.278 382.495 590.102 382.495H601.811C602.635 382.495 603.304 381.827 603.304 381.002C603.304 380.178 602.635 379.51 601.811 379.51Z" fill="#83278F"/>
<path d="M852.883 626.546C852.059 626.546 851.39 627.214 851.39 628.038V639.748C851.39 640.572 852.059 641.24 852.883 641.24C853.707 641.24 854.375 640.572 854.375 639.748V628.038C854.375 627.214 853.707 626.546 852.883 626.546Z" fill="#83278F"/>
<path d="M854.375 604.62C854.375 603.796 853.707 603.128 852.883 603.128C852.059 603.128 851.39 603.796 851.39 604.62V616.33C851.39 617.154 852.059 617.822 852.883 617.822C853.707 617.822 854.375 617.154 854.375 616.33V604.62Z" fill="#83278F"/>
<path d="M854.375 581.202C854.375 580.377 853.707 579.709 852.883 579.709C852.059 579.709 851.39 580.377 851.39 581.202V592.911C851.39 593.736 852.059 594.404 852.883 594.404C853.707 594.404 854.375 593.736 854.375 592.911V581.202Z" fill="#83278F"/>
<path d="M854.375 557.784C854.375 556.959 853.707 556.291 852.883 556.291C852.059 556.291 851.39 556.959 851.39 557.784V569.493C851.39 570.318 852.059 570.986 852.883 570.986C853.707 570.986 854.375 570.318 854.375 569.493V557.784Z" fill="#83278F"/>
<path d="M854.375 534.365C854.375 533.541 853.707 532.873 852.883 532.873C852.059 532.873 851.39 533.541 851.39 534.365V546.075C851.39 546.899 852.059 547.567 852.883 547.567C853.707 547.567 854.375 546.899 854.375 546.075V534.365Z" fill="#83278F"/>
<path d="M580.766 367.185H560.098C559.274 367.185 558.606 367.853 558.606 368.678V389.346C558.606 390.17 559.274 390.839 560.098 390.839H580.766C581.59 390.839 582.258 390.17 582.258 389.346V368.678C582.258 367.853 581.59 367.185 580.766 367.185ZM579.273 387.853H561.591V370.17H579.273V387.853Z" fill="#83278F"/>
<path d="M580.766 647.591H560.098C559.274 647.591 558.606 648.259 558.606 649.084V669.752C558.606 670.576 559.274 671.244 560.098 671.244H580.766C581.59 671.244 582.258 670.576 582.258 669.752V649.084C582.258 648.259 581.59 647.591 580.766 647.591ZM579.273 668.259H561.591V650.576H579.273V668.259Z" fill="#83278F"/>
<path d="M865.206 647.591H844.538C843.714 647.591 843.046 648.259 843.046 649.084V669.752C843.046 670.576 843.714 671.244 844.538 671.244H865.206C866.03 671.244 866.699 670.576 866.699 669.752V649.084C866.699 648.259 866.03 647.591 865.206 647.591ZM863.713 668.259H846.031V650.576H863.713V668.259Z" fill="#83278F"/>
<path d="M712.635 389.31C717.223 389.31 720.943 385.591 720.943 381.002C720.943 376.414 717.223 372.694 712.635 372.694C708.046 372.694 704.327 376.414 704.327 381.002C704.327 385.591 708.046 389.31 712.635 389.31Z" fill="#83278F"/>
<path d="M712.635 665.736C717.223 665.736 720.943 662.016 720.943 657.427C720.943 652.839 717.223 649.119 712.635 649.119C708.046 649.119 704.327 652.839 704.327 657.427C704.327 662.016 708.046 665.736 712.635 665.736Z" fill="#83278F"/>
<path d="M852.882 527.523C857.47 527.523 861.19 523.803 861.19 519.215V519.214C861.19 514.626 857.47 510.906 852.882 510.906C848.293 510.906 844.574 514.626 844.574 519.214V519.215C844.574 523.803 848.293 527.523 852.882 527.523Z" fill="#83278F"/>
<path d="M564.114 519.214V519.215C564.114 523.803 567.834 527.523 572.422 527.523C577.011 527.523 580.73 523.803 580.73 519.215V519.214C580.73 514.626 577.011 510.906 572.422 510.906C567.834 510.906 564.114 514.626 564.114 519.214Z" fill="#83278F"/>
<defs>
<linearGradient id="paint0_linear" x1="507.732" y1="627.375" x2="474.273" y2="128.167" gradientUnits="userSpaceOnUse">
<stop stop-color="#FBB03B"/>
<stop offset="0.5001" stop-color="#DE594D"/>
<stop offset="1" stop-color="#93278F"/>
</linearGradient>
<linearGradient id="paint1_linear" x1="885.937" y1="317.522" x2="1403.88" y2="115.845" gradientUnits="userSpaceOnUse">
<stop stop-color="#FFFCE9"/>
<stop offset="1" stop-color="white"/>
</linearGradient>
<linearGradient id="paint2_linear" x1="322.598" y1="318.479" x2="816.637" y2="562.248" gradientUnits="userSpaceOnUse">
<stop stop-color="#FBB03B"/>
<stop offset="0.5001" stop-color="#DE594D"/>
<stop offset="1" stop-color="#93278F"/>
</linearGradient>
<linearGradient id="paint3_linear" x1="636.307" y1="430.898" x2="556.973" y2="550.184" gradientUnits="userSpaceOnUse">
<stop stop-color="#FBB03B"/>
<stop offset="0.5001" stop-color="#DE594D"/>
<stop offset="1" stop-color="#93278F"/>
</linearGradient>
<linearGradient id="paint4_linear" x1="467.877" y1="477.412" x2="301.111" y2="417.971" gradientUnits="userSpaceOnUse">
<stop stop-color="#83278F"/>
<stop offset="1" stop-color="#421679"/>
</linearGradient>
<linearGradient id="paint5_linear" x1="355.043" y1="306.115" x2="286.348" y2="441.569" gradientUnits="userSpaceOnUse">
<stop stop-color="#FD993B"/>
<stop offset="0.381426" stop-color="#FBB03B"/>
<stop offset="1" stop-color="#FFFFA5"/>
</linearGradient>
<linearGradient id="paint6_linear" x1="71.3351" y1="676.034" x2="419.142" y2="676.034" gradientUnits="userSpaceOnUse">
<stop offset="0.121021" stop-color="white"/>
<stop offset="0.480559" stop-color="#DDD1DF"/>
<stop offset="1" stop-color="#DDD1DF"/>
</linearGradient>
</defs>
</svg>
