<svg width="1138" height="463" viewBox="0 0 1138 463" fill="none" xmlns="http://www.w3.org/2000/svg">
<rect x="99.2913" y="227.895" width="103.915" height="62.3718" rx="14" fill="#5330DF"/>
<path fill-rule="evenodd" clip-rule="evenodd" d="M1133.13 445.662H17.7856V443.873H1133.13V445.662Z" fill="#A09BBD"/>
<path fill-rule="evenodd" clip-rule="evenodd" d="M18.6803 45.4309L18.6803 444.768L16.8904 444.768L16.8904 45.4309L18.6803 45.4309Z" fill="#A09BBD"/>
<path d="M17.7856 444.768C21.6876 444.768 78.2643 444.768 119.128 444.768C152.636 444.768 182.738 442.747 215.567 436.177C262.816 426.723 299.181 420.836 435.905 401.253C845.797 342.542 866.213 81.7981 1056.24 29.9946" stroke="#5330DF" stroke-width="3.57982" stroke-linecap="round"/>
<circle cx="411.418" cy="444.768" r="10.6968" fill="#D32F7E"/>
<circle cx="594.612" cy="444.768" r="10.6968" fill="#F46234"/>
<circle cx="995.022" cy="444.768" r="10.6968" fill="#F9952E"/>
<rect x="1053.79" y="426.981" width="83.7187" height="35.572" rx="17.786" fill="#A09BBD"/>
<rect x="344.629" y="167.973" width="133.574" height="78.0199" rx="14" fill="#D32F7E"/>
<rect x="526.821" y="75.6348" width="139.163" height="78.0199" rx="14" fill="#F46234"/>
<rect y="99.6494" width="99.6495" height="35.572" rx="17.786" transform="rotate(-90 0 99.6494)" fill="#A09BBD"/>
<path d="M1085.49 438.179H1081.71V449.663H1079.17V438.179H1075.39V435.803H1085.49V438.179ZM1086.94 440.516H1089.37V449.663H1086.94V440.516ZM1088.17 435.665C1088.64 435.665 1089.03 435.823 1089.33 436.14C1089.65 436.444 1089.81 436.833 1089.81 437.308C1089.81 437.77 1089.65 438.159 1089.33 438.476C1089.03 438.78 1088.64 438.932 1088.17 438.932C1087.7 438.932 1087.32 438.78 1087 438.476C1086.69 438.159 1086.54 437.77 1086.54 437.308C1086.54 436.833 1086.69 436.444 1087 436.14C1087.32 435.823 1087.7 435.665 1088.17 435.665ZM1091.58 440.516H1093.97V441.901H1094.01C1094.26 441.347 1094.63 440.931 1095.12 440.654C1095.61 440.364 1096.17 440.219 1096.81 440.219C1097.48 440.219 1098.05 440.37 1098.53 440.674C1099 440.978 1099.37 441.433 1099.62 442.04H1099.66C1099.96 441.446 1100.37 440.997 1100.88 440.694C1101.41 440.377 1102 440.219 1102.65 440.219C1103.58 440.219 1104.35 440.529 1104.94 441.149C1105.54 441.769 1105.83 442.674 1105.83 443.862V449.663H1103.4V444.376C1103.4 443.769 1103.26 443.301 1102.98 442.971C1102.71 442.641 1102.29 442.476 1101.74 442.476C1101.17 442.476 1100.72 442.68 1100.39 443.089C1100.06 443.485 1099.89 444.126 1099.89 445.01V449.663H1097.5V444.376C1097.5 443.769 1097.36 443.301 1097.08 442.971C1096.81 442.641 1096.4 442.476 1095.86 442.476C1095.29 442.476 1094.83 442.68 1094.49 443.089C1094.16 443.499 1093.99 444.145 1093.99 445.03V449.663H1091.58V440.516ZM1112.06 440.219C1113.45 440.219 1114.54 440.648 1115.32 441.505C1116.1 442.35 1116.49 443.551 1116.49 445.109V445.584H1109.66C1109.73 446.284 1109.99 446.831 1110.45 447.227C1110.93 447.61 1111.52 447.802 1112.23 447.802C1113.22 447.802 1114.13 447.386 1114.97 446.554L1116.19 448.316C1115.68 448.791 1115.1 449.187 1114.47 449.504C1113.84 449.808 1113.09 449.96 1112.23 449.96C1111.24 449.96 1110.38 449.762 1109.64 449.366C1108.9 448.956 1108.33 448.389 1107.92 447.663C1107.51 446.924 1107.3 446.072 1107.3 445.109C1107.3 444.145 1107.5 443.294 1107.9 442.555C1108.29 441.816 1108.85 441.241 1109.56 440.832C1110.27 440.423 1111.11 440.219 1112.06 440.219ZM1111.94 442.179C1111.33 442.179 1110.83 442.33 1110.43 442.634C1110.05 442.938 1109.81 443.4 1109.72 444.02H1114.04C1114 443.439 1113.78 442.99 1113.4 442.674C1113.03 442.344 1112.54 442.179 1111.94 442.179Z" fill="white"/>
<path d="M561.174 107.872C559.722 107.872 558.429 107.575 557.294 106.981C556.159 106.374 555.274 105.529 554.641 104.447C554.007 103.351 553.69 102.084 553.69 100.646C553.69 99.2069 554.007 97.9464 554.641 96.864C555.274 95.7685 556.159 94.9237 557.294 94.3298C558.429 93.7226 559.722 93.419 561.174 93.419C563.022 93.419 564.672 93.9272 566.124 94.9435L564.659 97.161C563.563 96.3954 562.395 96.0127 561.155 96.0127C560.257 96.0127 559.452 96.2041 558.739 96.5868C558.026 96.9696 557.465 97.5108 557.056 98.2103C556.66 98.9099 556.462 99.7217 556.462 100.646C556.462 101.57 556.66 102.381 557.056 103.081C557.465 103.78 558.026 104.322 558.739 104.704C559.452 105.087 560.257 105.279 561.155 105.279C562.395 105.279 563.563 104.896 564.659 104.13L566.124 106.348C564.672 107.364 563.022 107.872 561.174 107.872ZM570.021 99.7349H570.06C570.733 98.6657 571.723 98.1311 573.03 98.1311C574.086 98.1311 574.924 98.4413 575.544 99.0617C576.165 99.6821 576.475 100.639 576.475 101.933V107.575H574.04V102.507C574.04 101.094 573.406 100.388 572.139 100.388C571.479 100.388 570.958 100.606 570.575 101.042C570.205 101.477 570.021 102.164 570.021 103.101V107.575H567.585V93.716H570.021V99.7349ZM582.35 107.872C581.544 107.872 580.805 107.681 580.132 107.298C579.459 106.915 578.924 106.361 578.528 105.635C578.146 104.896 577.954 104.018 577.954 103.002C577.954 101.985 578.146 101.114 578.528 100.388C578.924 99.6491 579.459 99.0881 580.132 98.7053C580.805 98.3225 581.544 98.1311 582.35 98.1311C583.062 98.1311 583.669 98.2697 584.171 98.5469C584.686 98.8241 585.095 99.2135 585.399 99.7151H585.438V98.4281H587.854V107.575H585.438V106.288H585.399C585.095 106.79 584.686 107.179 584.171 107.456C583.669 107.734 583.062 107.872 582.35 107.872ZM582.963 105.576C583.702 105.576 584.296 105.338 584.745 104.863C585.207 104.388 585.438 103.767 585.438 103.002C585.438 102.236 585.207 101.616 584.745 101.141C584.296 100.665 583.702 100.428 582.963 100.428C582.224 100.428 581.624 100.665 581.162 101.141C580.713 101.616 580.488 102.236 580.488 103.002C580.488 103.767 580.713 104.388 581.162 104.863C581.624 105.338 582.224 105.576 582.963 105.576ZM595.38 98.1311C596.436 98.1311 597.274 98.4413 597.894 99.0617C598.514 99.6821 598.825 100.639 598.825 101.933V107.575H596.389V102.507C596.389 101.094 595.762 100.388 594.508 100.388C593.849 100.388 593.327 100.606 592.944 101.042C592.562 101.477 592.37 102.164 592.37 103.101V107.575H589.955V98.4281H592.35V99.814H592.39C592.707 99.2729 593.116 98.8571 593.618 98.5667C594.132 98.2763 594.72 98.1311 595.38 98.1311ZM606.284 98.1311C607.34 98.1311 608.179 98.4413 608.799 99.0617C609.419 99.6821 609.729 100.639 609.729 101.933V107.575H607.294V102.507C607.294 101.094 606.667 100.388 605.413 100.388C604.753 100.388 604.232 100.606 603.849 101.042C603.466 101.477 603.275 102.164 603.275 103.101V107.575H600.86V98.4281H603.255V99.814H603.295C603.612 99.2729 604.021 98.8571 604.522 98.5667C605.037 98.2763 605.625 98.1311 606.284 98.1311ZM615.962 98.1311C617.361 98.1311 618.45 98.5601 619.229 99.4181C620.007 100.263 620.397 101.464 620.397 103.021V103.497H613.566C613.632 104.196 613.896 104.744 614.358 105.14C614.833 105.523 615.427 105.714 616.14 105.714C617.13 105.714 618.041 105.298 618.872 104.467L620.1 106.229C619.585 106.704 619.011 107.1 618.377 107.417C617.744 107.72 616.998 107.872 616.14 107.872C615.15 107.872 614.285 107.674 613.546 107.278C612.807 106.869 612.233 106.301 611.824 105.576C611.415 104.836 611.21 103.985 611.21 103.021C611.21 102.058 611.408 101.207 611.804 100.467C612.2 99.7283 612.754 99.1541 613.467 98.7449C614.18 98.3357 615.011 98.1311 615.962 98.1311ZM615.843 100.091C615.236 100.091 614.734 100.243 614.338 100.547C613.955 100.85 613.718 101.312 613.626 101.933H617.942C617.902 101.352 617.691 100.903 617.308 100.586C616.939 100.256 616.45 100.091 615.843 100.091ZM624.409 107.575H621.974V93.716H624.409V107.575ZM637.265 93.0032L627.94 109.793L626.138 108.823L635.464 92.0133L637.265 93.0032ZM555.145 116.716C556.65 116.716 557.805 117.119 558.61 117.924C559.415 118.716 559.818 119.752 559.818 121.032C559.818 122.352 559.415 123.421 558.61 124.24C557.805 125.045 556.65 125.447 555.145 125.447H552.849V130.575H550.314V116.716H555.145ZM554.868 123.111C555.568 123.111 556.115 122.939 556.511 122.596C556.907 122.24 557.105 121.725 557.105 121.052C557.105 120.392 556.907 119.897 556.511 119.567C556.115 119.224 555.568 119.052 554.868 119.052H552.849V123.111H554.868ZM566.274 123.764H565.997C565.007 123.764 564.281 124.002 563.819 124.477C563.357 124.952 563.126 125.738 563.126 126.833V130.575H560.711V121.428H563.107V123.368H563.146C563.384 122.656 563.76 122.108 564.275 121.725C564.789 121.342 565.423 121.151 566.175 121.151H566.274V123.764ZM571.586 121.131C572.55 121.131 573.414 121.342 574.18 121.765C574.959 122.174 575.566 122.748 576.001 123.487C576.437 124.226 576.655 125.065 576.655 126.002C576.655 126.939 576.437 127.777 576.001 128.516C575.566 129.255 574.959 129.836 574.18 130.258C573.414 130.668 572.55 130.872 571.586 130.872C570.623 130.872 569.751 130.668 568.973 130.258C568.207 129.836 567.607 129.255 567.171 128.516C566.735 127.777 566.518 126.939 566.518 126.002C566.518 125.065 566.735 124.226 567.171 123.487C567.607 122.748 568.207 122.174 568.973 121.765C569.751 121.342 570.623 121.131 571.586 121.131ZM571.586 123.428C570.834 123.428 570.213 123.665 569.725 124.141C569.25 124.603 569.012 125.223 569.012 126.002C569.012 126.78 569.25 127.407 569.725 127.883C570.213 128.345 570.834 128.576 571.586 128.576C572.339 128.576 572.952 128.345 573.427 127.883C573.903 127.407 574.14 126.78 574.14 126.002C574.14 125.223 573.903 124.603 573.427 124.141C572.952 123.665 572.339 123.428 571.586 123.428ZM582.069 130.872C581.264 130.872 580.525 130.681 579.852 130.298C579.179 129.915 578.644 129.361 578.248 128.635C577.865 127.896 577.674 127.018 577.674 126.002C577.674 124.985 577.865 124.114 578.248 123.388C578.644 122.649 579.179 122.088 579.852 121.705C580.525 121.323 581.264 121.131 582.069 121.131C582.782 121.131 583.389 121.27 583.891 121.547C584.405 121.824 584.815 122.213 585.118 122.715H585.158V116.716H587.573V130.575H585.158V129.288H585.118C584.815 129.79 584.405 130.179 583.891 130.456C583.389 130.734 582.782 130.872 582.069 130.872ZM582.683 128.576C583.422 128.576 584.016 128.338 584.465 127.863C584.927 127.388 585.158 126.767 585.158 126.002C585.158 125.236 584.927 124.616 584.465 124.141C584.016 123.665 583.422 123.428 582.683 123.428C581.944 123.428 581.343 123.665 580.881 124.141C580.432 124.616 580.208 125.236 580.208 126.002C580.208 126.767 580.432 127.388 580.881 127.863C581.343 128.338 581.944 128.576 582.683 128.576ZM593.058 130.872C592.055 130.872 591.236 130.555 590.603 129.922C589.982 129.288 589.672 128.325 589.672 127.031V121.428H592.167V126.596C592.167 127.282 592.319 127.797 592.622 128.14C592.926 128.47 593.348 128.635 593.889 128.635C594.523 128.635 595.018 128.411 595.374 127.962C595.731 127.5 595.909 126.787 595.909 125.823V121.428H598.344V130.575H595.948V129.169H595.909C595.275 130.305 594.325 130.872 593.058 130.872ZM604.977 130.872C604 130.872 603.129 130.674 602.363 130.278C601.598 129.869 600.997 129.295 600.562 128.556C600.139 127.817 599.928 126.965 599.928 126.002C599.928 125.038 600.139 124.187 600.562 123.448C600.997 122.708 601.598 122.141 602.363 121.745C603.129 121.336 604 121.131 604.977 121.131C606.138 121.131 607.208 121.435 608.184 122.042L607.135 124.042C606.462 123.619 605.756 123.408 605.016 123.408C604.264 123.408 603.644 123.652 603.155 124.141C602.667 124.616 602.423 125.236 602.423 126.002C602.423 126.767 602.667 127.394 603.155 127.883C603.644 128.358 604.264 128.595 605.016 128.595C605.756 128.595 606.462 128.384 607.135 127.962L608.184 129.961C607.208 130.569 606.138 130.872 604.977 130.872ZM612.838 123.467V127.308C612.838 127.678 612.91 127.942 613.055 128.1C613.201 128.259 613.451 128.338 613.808 128.338H614.224V130.595H613.154C612.27 130.595 611.59 130.371 611.115 129.922C610.64 129.46 610.402 128.78 610.402 127.883V123.467H608.719V121.428H610.402V117.765H612.838V121.428H614.719V123.467H612.838ZM624.407 119.092V122.497H629.673V124.834H624.407V130.575H621.872V116.716H630.267V119.092H624.407ZM631.787 121.428H634.222V130.575H631.787V121.428ZM633.014 116.577C633.489 116.577 633.879 116.736 634.182 117.053C634.499 117.356 634.657 117.746 634.657 118.221C634.657 118.683 634.499 119.072 634.182 119.389C633.879 119.692 633.489 119.844 633.014 119.844C632.552 119.844 632.163 119.692 631.846 119.389C631.542 119.072 631.391 118.683 631.391 118.221C631.391 117.746 631.542 117.356 631.846 117.053C632.163 116.736 632.552 116.577 633.014 116.577ZM639.732 123.467V127.308C639.732 127.678 639.805 127.942 639.95 128.1C640.095 128.259 640.346 128.338 640.703 128.338H641.118V130.595H640.049C639.165 130.595 638.485 130.371 638.01 129.922C637.535 129.46 637.297 128.78 637.297 127.883V123.467H635.614V121.428H637.297V117.765H639.732V121.428H641.613V123.467H639.732Z" fill="white"/>
<path d="M149.153 265.644H146.481L144.382 256.636H144.342L141.491 263.585H139.65L136.799 256.636H136.759L134.641 265.644H131.988L135.433 251.785H137.413L140.541 259.665H140.581L143.729 251.785H145.708L149.153 265.644ZM156.278 265.644H153.724L148.596 251.785H151.566L154.972 262.239H155.031L158.436 251.785H161.406L156.278 265.644ZM167.436 251.785C168.94 251.785 170.095 252.187 170.9 252.993C171.706 253.785 172.108 254.821 172.108 256.101C172.108 257.421 171.706 258.49 170.9 259.308C170.095 260.114 168.94 260.516 167.436 260.516H165.139V265.644H162.605V251.785H167.436ZM167.158 258.18C167.858 258.18 168.406 258.008 168.802 257.665C169.198 257.309 169.396 256.794 169.396 256.121C169.396 255.461 169.198 254.966 168.802 254.636C168.406 254.293 167.858 254.121 167.158 254.121H165.139V258.18H167.158Z" fill="white"/>
<path d="M14.8408 67.3975C15.0256 67.3843 15.2896 67.3777 15.6328 67.3777C16.9923 67.3777 18.2264 67.6351 19.3351 68.1499C20.4439 68.6647 21.3282 69.4368 21.9882 70.4664C22.6482 71.4959 22.9781 72.763 22.9781 74.2677C22.9781 75.6801 22.6812 76.9406 22.0872 78.0493C21.4932 79.1581 20.6551 80.0292 19.5727 80.6628C18.4772 81.2831 17.2035 81.5933 15.7516 81.5933C14.3392 81.5933 13.0853 81.2897 11.9898 80.6826C10.8942 80.0622 10.0429 79.1911 9.43573 78.0691C8.82856 76.9472 8.52498 75.6405 8.52498 74.1489C8.52498 72.0767 9.13874 70.2816 10.3663 68.7637L12.5243 70.4466C11.5872 71.5685 11.1186 72.8356 11.1186 74.2479C11.1186 75.1719 11.3232 75.9836 11.7324 76.6832C12.1284 77.3696 12.6761 77.8975 13.3757 78.2671C14.0753 78.6367 14.8672 78.8215 15.7516 78.8215C16.6491 78.8215 17.4477 78.6301 18.1472 78.2473C18.8468 77.8645 19.3945 77.3234 19.7905 76.6238C20.1865 75.911 20.3845 75.0861 20.3845 74.1489C20.3845 73.3042 20.2327 72.5914 19.9291 72.0107C19.6123 71.4167 19.2098 70.9613 18.7214 70.6446C18.233 70.3278 17.7182 70.143 17.1771 70.0902L17.1771 74.0698L14.8408 74.0698L14.8408 67.3975ZM15.8703 60.357L15.8703 60.6342C15.8703 61.6242 16.1079 62.3501 16.5831 62.8121C17.0583 63.2741 17.8436 63.5051 18.9392 63.5051L22.6812 63.5051L22.6812 65.9205L13.5341 65.9205L13.5341 63.5249L15.4744 63.5249L15.4744 63.4853C14.7616 63.2477 14.2138 62.8715 13.8311 62.3567C13.4483 61.842 13.2569 61.2084 13.2569 60.456L13.2569 60.357L15.8703 60.357ZM13.2371 55.0452C13.2371 54.0817 13.4483 53.2171 13.8707 52.4516C14.2798 51.6728 14.854 51.0657 15.5932 50.6301C16.3323 50.1945 17.1705 49.9767 18.1076 49.9767C19.0448 49.9767 19.8829 50.1945 20.6221 50.6301C21.3612 51.0657 21.942 51.6728 22.3644 52.4516C22.7735 53.2171 22.9781 54.0817 22.9781 55.0452C22.9781 56.0088 22.7735 56.8799 22.3644 57.6587C21.942 58.4242 21.3612 59.0248 20.6221 59.4604C19.8829 59.8959 19.0448 60.1137 18.1076 60.1137C17.1705 60.1137 16.3323 59.8959 15.5932 59.4604C14.854 59.0248 14.2798 58.4242 13.8707 57.6587C13.4483 56.8799 13.2371 56.0088 13.2371 55.0452ZM15.5338 55.0452C15.5338 55.7976 15.7714 56.418 16.2465 56.9063C16.7085 57.3815 17.3289 57.6191 18.1076 57.6191C18.8864 57.6191 19.5133 57.3815 19.9885 56.9063C20.4505 56.418 20.6815 55.7976 20.6815 55.0452C20.6815 54.2929 20.4505 53.6791 19.9885 53.2039C19.5133 52.7288 18.8864 52.4912 18.1076 52.4912C17.3289 52.4912 16.7085 52.7288 16.2465 53.2039C15.7714 53.6791 15.5338 54.2929 15.5338 55.0452ZM13.5341 35.0646L22.6812 38.2523L22.6812 40.4103L16.7019 42.509L22.6812 44.6077L22.6812 46.7658L13.5341 49.9534L13.5341 47.4191L19.5331 45.657L13.5341 43.6573L13.5341 41.3607L19.5727 39.361L13.5341 37.5989L13.5341 35.0646ZM15.5734 30.5957L19.4143 30.5957C19.7839 30.5957 20.0479 30.5231 20.2063 30.3779C20.3647 30.2327 20.4439 29.9819 20.4439 29.6255L20.4439 29.2098L22.7009 29.2098L22.7009 30.2789C22.7009 31.1632 22.4766 31.843 22.0278 32.3182C21.5658 32.7933 20.8861 33.0309 19.9885 33.0309L15.5734 33.0309L15.5734 34.7138L13.5341 34.7138L13.5341 33.0309L9.8713 33.0309L9.8713 30.5957L13.5341 30.5957L13.5341 28.7148L15.5734 28.7148L15.5734 30.5957ZM14.8408 24.8147L14.8408 24.7751C13.7717 24.102 13.2371 23.112 13.2371 21.8053C13.2371 20.7494 13.5473 19.9112 14.1676 19.2908C14.788 18.6705 15.745 18.3603 17.0385 18.3603L22.6811 18.3603L22.6811 20.7956L17.6126 20.7956C16.2003 20.7956 15.4942 21.4291 15.4942 22.6962C15.4942 23.3562 15.712 23.8776 16.1475 24.2604C16.5831 24.6299 17.2695 24.8147 18.2066 24.8147L22.6811 24.8147L22.6811 27.25L8.82196 27.25L8.82196 24.8147L14.8408 24.8147Z" fill="white"/>
<path d="M412.017 439.418L412.017 218.777" stroke="#D32F7E" stroke-width="2.68487" stroke-linecap="round" stroke-dasharray="7.16 8.95"/>
<path d="M595.212 439.418L595.212 158.254" stroke="#F46234" stroke-width="2.68487" stroke-linecap="round" stroke-dasharray="7.16 8.95"/>
<path d="M995.622 441.208L995.622 5.33633" stroke="#F9952E" stroke-width="2.68487" stroke-linecap="round" stroke-dasharray="7.16 8.95"/>
<path d="M379.239 186.054C380.744 186.054 381.898 186.457 382.704 187.262C383.509 188.054 383.911 189.09 383.911 190.371C383.911 191.69 383.509 192.76 382.704 193.578C381.898 194.383 380.744 194.786 379.239 194.786H376.942V199.914H374.408V186.054H379.239ZM378.962 192.449C379.661 192.449 380.209 192.278 380.605 191.935C381.001 191.578 381.199 191.063 381.199 190.39C381.199 189.73 381.001 189.235 380.605 188.905C380.209 188.562 379.661 188.391 378.962 188.391H376.942V192.449H378.962ZM390.368 193.103H390.091C389.101 193.103 388.375 193.34 387.913 193.816C387.451 194.291 387.22 195.076 387.22 196.172V199.914H384.804V190.767H387.2V192.707H387.24C387.477 191.994 387.854 191.446 388.368 191.063C388.883 190.681 389.517 190.489 390.269 190.489H390.368V193.103ZM395.68 190.47C396.643 190.47 397.508 190.681 398.273 191.103C399.052 191.512 399.659 192.086 400.095 192.826C400.53 193.565 400.748 194.403 400.748 195.34C400.748 196.277 400.53 197.115 400.095 197.854C399.659 198.594 399.052 199.174 398.273 199.597C397.508 200.006 396.643 200.211 395.68 200.211C394.716 200.211 393.845 200.006 393.066 199.597C392.301 199.174 391.7 198.594 391.265 197.854C390.829 197.115 390.611 196.277 390.611 195.34C390.611 194.403 390.829 193.565 391.265 192.826C391.7 192.086 392.301 191.512 393.066 191.103C393.845 190.681 394.716 190.47 395.68 190.47ZM395.68 192.766C394.927 192.766 394.307 193.004 393.819 193.479C393.344 193.941 393.106 194.561 393.106 195.34C393.106 196.119 393.344 196.746 393.819 197.221C394.307 197.683 394.927 197.914 395.68 197.914C396.432 197.914 397.046 197.683 397.521 197.221C397.996 196.746 398.234 196.119 398.234 195.34C398.234 194.561 397.996 193.941 397.521 193.479C397.046 193.004 396.432 192.766 395.68 192.766ZM406.163 200.211C405.358 200.211 404.618 200.019 403.945 199.636C403.272 199.254 402.738 198.699 402.342 197.973C401.959 197.234 401.767 196.356 401.767 195.34C401.767 194.324 401.959 193.453 402.342 192.727C402.738 191.987 403.272 191.426 403.945 191.044C404.618 190.661 405.358 190.47 406.163 190.47C406.876 190.47 407.483 190.608 407.984 190.885C408.499 191.162 408.908 191.552 409.212 192.053H409.251V186.054H411.667V199.914H409.251V198.627H409.212C408.908 199.128 408.499 199.518 407.984 199.795C407.483 200.072 406.876 200.211 406.163 200.211ZM406.777 197.914C407.516 197.914 408.11 197.676 408.558 197.201C409.02 196.726 409.251 196.106 409.251 195.34C409.251 194.574 409.02 193.954 408.558 193.479C408.11 193.004 407.516 192.766 406.777 192.766C406.037 192.766 405.437 193.004 404.975 193.479C404.526 193.954 404.302 194.574 404.302 195.34C404.302 196.106 404.526 196.726 404.975 197.201C405.437 197.676 406.037 197.914 406.777 197.914ZM417.151 200.211C416.148 200.211 415.33 199.894 414.696 199.26C414.076 198.627 413.766 197.663 413.766 196.37V190.767H416.26V195.934C416.26 196.62 416.412 197.135 416.716 197.478C417.019 197.808 417.442 197.973 417.983 197.973C418.616 197.973 419.111 197.749 419.468 197.3C419.824 196.838 420.002 196.125 420.002 195.162V190.767H422.438V199.914H420.042V198.508H420.002C419.369 199.643 418.418 200.211 417.151 200.211ZM429.071 200.211C428.094 200.211 427.223 200.013 426.457 199.617C425.692 199.207 425.091 198.633 424.655 197.894C424.233 197.155 424.022 196.304 424.022 195.34C424.022 194.376 424.233 193.525 424.655 192.786C425.091 192.047 425.692 191.479 426.457 191.083C427.223 190.674 428.094 190.47 429.071 190.47C430.232 190.47 431.301 190.773 432.278 191.38L431.229 193.38C430.555 192.958 429.849 192.746 429.11 192.746C428.358 192.746 427.737 192.991 427.249 193.479C426.761 193.954 426.516 194.574 426.516 195.34C426.516 196.106 426.761 196.733 427.249 197.221C427.737 197.696 428.358 197.934 429.11 197.934C429.849 197.934 430.555 197.723 431.229 197.3L432.278 199.3C431.301 199.907 430.232 200.211 429.071 200.211ZM436.931 192.806V196.647C436.931 197.016 437.004 197.28 437.149 197.439C437.294 197.597 437.545 197.676 437.901 197.676H438.317V199.933H437.248C436.364 199.933 435.684 199.709 435.209 199.26C434.734 198.798 434.496 198.118 434.496 197.221V192.806H432.813V190.767H434.496V187.104H436.931V190.767H438.812V192.806H436.931ZM450.889 185.342L441.564 202.131L439.762 201.161L449.087 184.352L450.889 185.342ZM385.454 222.914H382.781L380.682 213.905H380.643L377.792 220.854H375.95L373.099 213.905H373.06L370.941 222.914H368.288L371.733 209.054H373.713L376.841 216.934H376.881L380.029 209.054H382.009L385.454 222.914ZM390.347 223.211C389.542 223.211 388.803 223.019 388.129 222.636C387.456 222.254 386.922 221.699 386.526 220.973C386.143 220.234 385.952 219.356 385.952 218.34C385.952 217.324 386.143 216.453 386.526 215.727C386.922 214.987 387.456 214.426 388.129 214.044C388.803 213.661 389.542 213.47 390.347 213.47C391.06 213.47 391.667 213.608 392.168 213.885C392.683 214.162 393.092 214.552 393.396 215.053H393.436V213.767H395.851V222.914H393.436V221.627H393.396C393.092 222.128 392.683 222.518 392.168 222.795C391.667 223.072 391.06 223.211 390.347 223.211ZM390.961 220.914C391.7 220.914 392.294 220.676 392.743 220.201C393.205 219.726 393.436 219.106 393.436 218.34C393.436 217.574 393.205 216.954 392.743 216.479C392.294 216.004 391.7 215.766 390.961 215.766C390.222 215.766 389.621 216.004 389.159 216.479C388.71 216.954 388.486 217.574 388.486 218.34C388.486 219.106 388.71 219.726 389.159 220.201C389.621 220.676 390.222 220.914 390.961 220.914ZM403.516 216.103H403.238C402.249 216.103 401.523 216.34 401.061 216.816C400.599 217.291 400.368 218.076 400.368 219.172V222.914H397.952V213.767H400.348V215.707H400.387C400.625 214.994 401.001 214.446 401.516 214.063C402.031 213.681 402.664 213.489 403.417 213.489H403.516V216.103ZM410.677 222.914L407.252 218.538V222.914H404.817V209.054H407.252V217.548L410.262 213.767H413.35L409.608 217.924L413.845 222.914H410.677ZM418.333 213.47C419.732 213.47 420.821 213.899 421.6 214.756C422.378 215.601 422.768 216.802 422.768 218.36V218.835H415.937C416.003 219.535 416.267 220.082 416.729 220.478C417.204 220.861 417.798 221.052 418.511 221.052C419.501 221.052 420.412 220.637 421.243 219.805L422.471 221.567C421.956 222.042 421.382 222.438 420.748 222.755C420.115 223.059 419.369 223.211 418.511 223.211C417.521 223.211 416.656 223.013 415.917 222.617C415.178 222.207 414.604 221.64 414.195 220.914C413.786 220.175 413.581 219.323 413.581 218.36C413.581 217.396 413.779 216.545 414.175 215.806C414.571 215.067 415.125 214.492 415.838 214.083C416.551 213.674 417.382 213.47 418.333 213.47ZM418.214 215.43C417.607 215.43 417.105 215.581 416.709 215.885C416.326 216.189 416.089 216.651 415.996 217.271H420.313C420.273 216.69 420.062 216.241 419.679 215.925C419.309 215.595 418.821 215.43 418.214 215.43ZM427.225 215.806V219.647C427.225 220.016 427.298 220.28 427.443 220.439C427.588 220.597 427.839 220.676 428.195 220.676H428.611V222.933H427.542C426.658 222.933 425.978 222.709 425.503 222.26C425.028 221.798 424.79 221.118 424.79 220.221V215.806H423.107V213.767H424.79V210.104H427.225V213.767H429.106V215.806H427.225ZM438.794 211.43V214.836H444.061V217.172H438.794V222.914H436.26V209.054H444.655V211.43H438.794ZM446.174 213.767H448.609V222.914H446.174V213.767ZM447.402 208.916C447.877 208.916 448.266 209.074 448.57 209.391C448.887 209.695 449.045 210.084 449.045 210.559C449.045 211.021 448.887 211.41 448.57 211.727C448.266 212.031 447.877 212.183 447.402 212.183C446.94 212.183 446.55 212.031 446.233 211.727C445.93 211.41 445.778 211.021 445.778 210.559C445.778 210.084 445.93 209.695 446.233 209.391C446.55 209.074 446.94 208.916 447.402 208.916ZM454.12 215.806V219.647C454.12 220.016 454.193 220.28 454.338 220.439C454.483 220.597 454.734 220.676 455.09 220.676H455.506V222.933H454.437C453.552 222.933 452.873 222.709 452.397 222.26C451.922 221.798 451.685 221.118 451.685 220.221V215.806H450.002V213.767H451.685V210.104H454.12V213.767H456.001V215.806H454.12Z" fill="white"/>
<path d="M151.849 439.418L151.849 284.777" stroke="#5330DF" stroke-width="2.68487" stroke-linecap="round" stroke-dasharray="7.16 8.95"/>
<path d="M595.437 363.441V445.614H995.83V55.6948C874.182 127.395 827.456 279.657 595.437 363.441Z" fill="url(#paint0_linear)" fill-opacity="0.26"/>
<path d="M411.954 444.498V404.723C483.414 398.251 563.975 374.162 595.323 362.926V444.498H411.954Z" fill="url(#paint1_linear)" fill-opacity="0.31"/>
<path d="M411.56 444.427H151.207L194.182 439.838L260.105 427.321L411.56 405.208V444.427Z" fill="url(#paint2_linear)" fill-opacity="0.16"/>
<path fill-rule="evenodd" clip-rule="evenodd" d="M1061.62 29.0179C1062.4 31.8791 1060.71 34.8308 1057.85 35.6108C1011.5 48.2456 975.346 73.636 940.645 105.966C923.273 122.152 906.332 140.012 888.645 158.858C886.945 160.67 885.238 162.49 883.524 164.319C867.435 181.48 850.669 199.363 832.492 217.292C751.758 296.923 643.173 377.453 436.865 407.004C300.134 426.588 263.905 432.456 216.82 441.878C183.546 448.537 153.072 450.573 119.327 450.573H17.9847C15.0191 450.573 12.615 448.169 12.615 445.203C12.615 442.238 15.0191 439.834 17.9847 439.834H119.327C152.598 439.834 182.329 437.828 214.713 431.348C262.125 421.86 298.627 415.955 435.343 396.373C638.927 367.212 745.496 288.015 824.95 209.646C842.968 191.874 859.59 174.145 875.696 156.966C877.408 155.141 879.114 153.321 880.814 151.509C898.488 132.676 915.656 114.57 933.324 98.1088C968.705 65.1453 1006.36 38.5164 1055.03 25.2495C1057.89 24.4695 1060.84 26.1566 1061.62 29.0179Z" fill="url(#paint3_linear)"/>
<circle cx="151.249" cy="444.768" r="10.6968" fill="#5330DF"/>
<rect x="928.234" width="133.574" height="62.3718" rx="14" fill="#F9952E"/>
<path d="M975.913 35.9595H973.241L971.142 26.951H971.102L968.251 33.9004H966.41L963.559 26.951H963.519L961.401 35.9595H958.748L962.193 22.1003H964.173L967.301 29.9802H967.341L970.489 22.1003H972.468L975.913 35.9595ZM980.807 36.2565C980.001 36.2565 979.262 36.0651 978.589 35.6823C977.916 35.2995 977.381 34.7451 976.985 34.0192C976.603 33.28 976.411 32.4023 976.411 31.3859C976.411 30.3696 976.603 29.4985 976.985 28.7725C977.381 28.0333 977.916 27.4724 978.589 27.0896C979.262 26.7068 980.001 26.5154 980.807 26.5154C981.519 26.5154 982.127 26.654 982.628 26.9312C983.143 27.2084 983.552 27.5978 983.856 28.0993H983.895V26.8124H986.311V35.9595H983.895V34.6725H983.856C983.552 35.1741 983.143 35.5635 982.628 35.8407C982.127 36.1179 981.519 36.2565 980.807 36.2565ZM981.42 33.9598C982.159 33.9598 982.753 33.7222 983.202 33.247C983.664 32.7719 983.895 32.1515 983.895 31.3859C983.895 30.6204 983.664 30 983.202 29.5248C982.753 29.0497 982.159 28.8121 981.42 28.8121C980.681 28.8121 980.081 29.0497 979.619 29.5248C979.17 30 978.945 30.6204 978.945 31.3859C978.945 32.1515 979.17 32.7719 979.619 33.247C980.081 33.7222 980.681 33.9598 981.42 33.9598ZM991.718 28.8517V32.6927C991.718 33.0622 991.791 33.3262 991.936 33.4846C992.081 33.643 992.332 33.7222 992.688 33.7222H993.104V35.9793H992.035C991.151 35.9793 990.471 35.7549 989.996 35.3061C989.521 34.8441 989.283 34.1644 989.283 33.2668V28.8517H987.6V26.8124H989.283V23.1496H991.718V26.8124H993.599V28.8517H991.718ZM998.311 36.2565C997.308 36.2565 996.489 35.9397 995.856 35.3061C995.235 34.6725 994.925 33.709 994.925 32.4155V26.8124H997.42V31.9799C997.42 32.6663 997.572 33.181 997.875 33.5242C998.179 33.8542 998.601 34.0192 999.142 34.0192C999.776 34.0192 1000.27 33.7948 1000.63 33.346C1000.98 32.8841 1001.16 32.1713 1001.16 31.2078V26.8124H1003.6V35.9595H1001.2V34.5538H1001.16C1000.53 35.6889 999.578 36.2565 998.311 36.2565ZM1011.3 29.1487H1011.02C1010.03 29.1487 1009.31 29.3863 1008.84 29.8614C1008.38 30.3366 1008.15 31.122 1008.15 32.2175V35.9595H1005.74V26.8124H1008.13V28.7527H1008.17C1008.41 28.0399 1008.78 27.4922 1009.3 27.1094C1009.81 26.7266 1010.45 26.5352 1011.2 26.5352H1011.3V29.1487ZM1012.6 26.8124H1015.04V35.9595H1012.6V26.8124ZM1013.83 21.9617C1014.3 21.9617 1014.69 22.1201 1015 22.4369C1015.31 22.7404 1015.47 23.1298 1015.47 23.605C1015.47 24.067 1015.31 24.4563 1015 24.7731C1014.69 25.0767 1014.3 25.2285 1013.83 25.2285C1013.37 25.2285 1012.98 25.0767 1012.66 24.7731C1012.36 24.4563 1012.2 24.067 1012.2 23.605C1012.2 23.1298 1012.36 22.7404 1012.66 22.4369C1012.98 22.1201 1013.37 21.9617 1013.83 21.9617ZM1020.55 28.8517V32.6927C1020.55 33.0622 1020.62 33.3262 1020.76 33.4846C1020.91 33.643 1021.16 33.7222 1021.52 33.7222H1021.93V35.9793H1020.86C1019.98 35.9793 1019.3 35.7549 1018.82 35.3061C1018.35 34.8441 1018.11 34.1644 1018.11 33.2668V28.8517H1016.43V26.8124H1018.11V23.1496H1020.55V26.8124H1022.43V28.8517H1020.55ZM1033.02 26.8124L1027.16 39.9192H1024.64L1026.88 35.1081L1022.92 26.8124H1025.77L1028.09 32.3759L1030.46 26.8124H1033.02Z" fill="white"/>
<defs>
<linearGradient id="paint0_linear" x1="894.614" y1="416.659" x2="809.614" y2="123.659" gradientUnits="userSpaceOnUse">
<stop stop-color="#F46234" stop-opacity="0"/>
<stop offset="1" stop-color="#F9952E"/>
</linearGradient>
<linearGradient id="paint1_linear" x1="503.638" y1="367.996" x2="503.638" y2="444.498" gradientUnits="userSpaceOnUse">
<stop stop-color="#F46234"/>
<stop offset="1" stop-color="#FF5AD1" stop-opacity="0"/>
</linearGradient>
<linearGradient id="paint2_linear" x1="375.92" y1="444.427" x2="369.631" y2="405.208" gradientUnits="userSpaceOnUse">
<stop stop-color="#CD4671" stop-opacity="0"/>
<stop offset="1" stop-color="#5125FF"/>
</linearGradient>
<linearGradient id="paint3_linear" x1="998.528" y1="65.4355" x2="12.615" y2="465.834" gradientUnits="userSpaceOnUse">
<stop offset="0.0136257" stop-color="#F9952E"/>
<stop offset="0.429074" stop-color="#F46234"/>
<stop offset="0.649248" stop-color="#D32F7E"/>
<stop offset="0.854768" stop-color="#5330DF"/>
<stop offset="0.959887" stop-color="#A09BBD"/>
</linearGradient>
</defs>
</svg>
