<svg width="471" height="472" viewBox="0 0 471 472" fill="none" xmlns="http://www.w3.org/2000/svg">
<path fill-rule="evenodd" clip-rule="evenodd" d="M373.979 332.568C320.483 409.082 215.09 427.742 138.576 374.247C62.0618 320.751 43.4018 215.357 96.8974 138.844C150.393 62.3296 255.787 43.6695 332.301 97.1651C408.814 150.661 427.475 256.054 373.979 332.568ZM163.215 339.006C220.266 378.894 298.85 364.98 338.738 307.929C378.626 250.878 364.712 172.294 307.661 132.406C250.611 92.5181 172.026 106.432 132.138 163.483C92.2504 220.534 106.164 299.118 163.215 339.006Z" fill="url(#paint0_linear)"/>
<path fill-rule="evenodd" clip-rule="evenodd" d="M301.273 344.532C302.15 345.887 303.949 346.3 305.309 345.43C341.839 322.041 366.052 281.102 366.052 234.507C366.052 161.818 307.127 102.893 234.438 102.893C161.75 102.893 102.824 161.818 102.824 234.507C102.824 281.018 126.95 321.894 163.37 345.303C164.84 346.248 166.793 345.684 167.574 344.121C168.267 342.736 167.783 341.053 166.48 340.214C131.771 317.854 108.786 278.864 108.786 234.507C108.786 165.111 165.042 108.854 234.438 108.854C303.834 108.854 360.091 165.111 360.091 234.507C360.091 278.945 337.022 317.995 302.208 340.335C300.795 341.242 300.361 343.123 301.273 344.532ZM292.938 352.438C292.353 350.25 291.809 348.884 290.76 346.802C286.815 339.563 279.138 334.651 270.313 334.651H198.563C189.81 334.651 182.186 339.484 178.213 346.626C177.02 348.985 176.506 350.353 175.9 352.673L175.887 352.676C175.498 354.362 175.293 356.117 175.293 357.921C175.293 370.773 185.711 381.191 198.563 381.191H270.313C283.165 381.191 293.583 370.773 293.583 357.921C293.583 356.033 293.358 354.197 292.934 352.439L292.938 352.438ZM275.226 254.673V271.888H194.469V258.272L237.978 216.955C242.882 212.26 246.168 208.191 247.838 204.748C249.611 201.2 250.498 197.705 250.498 194.262C250.498 189.149 248.777 185.237 245.334 182.524C241.89 179.811 236.83 178.455 230.153 178.455C218.988 178.455 210.433 182.263 204.486 189.88L190.244 178.924C194.521 173.186 200.26 168.751 207.459 165.621C214.763 162.387 222.901 160.77 231.874 160.77C243.769 160.77 253.263 163.587 260.358 169.221C267.453 174.855 271 182.524 271 192.227C271 198.174 269.748 203.756 267.244 208.973C264.74 214.19 259.941 220.137 252.846 226.815L223.579 254.673H275.226ZM182.097 299.554H186.631V302.177H186.706C187.181 301.128 187.88 300.341 188.805 299.816C189.729 299.267 190.791 298.992 191.99 298.992C193.264 298.992 194.351 299.279 195.25 299.854C196.149 300.428 196.836 301.29 197.311 302.439H197.386C197.961 301.315 198.735 300.466 199.709 299.891C200.709 299.292 201.82 298.992 203.045 298.992C204.818 298.992 206.267 299.579 207.391 300.753C208.516 301.927 209.078 303.638 209.078 305.887V316.867H204.469V306.861C204.469 305.712 204.206 304.825 203.682 304.201C203.157 303.576 202.37 303.264 201.321 303.264C200.247 303.264 199.397 303.651 198.773 304.425C198.148 305.175 197.836 306.387 197.836 308.06V316.867H193.301V306.861C193.301 305.712 193.039 304.825 192.514 304.201C191.99 303.576 191.215 303.264 190.191 303.264C189.117 303.264 188.255 303.651 187.605 304.425C186.981 305.2 186.669 306.424 186.669 308.098V316.867H182.097V299.554ZM217.594 299.554H212.985V316.867H217.594V299.554ZM215.308 290.373C216.208 290.373 216.945 290.673 217.519 291.272C218.119 291.847 218.419 292.584 218.419 293.483C218.419 294.358 218.119 295.095 217.519 295.694C216.945 296.269 216.208 296.556 215.308 296.556C214.434 296.556 213.697 296.269 213.097 295.694C212.523 295.095 212.235 294.358 212.235 293.483C212.235 292.584 212.523 291.847 213.097 291.272C213.697 290.673 214.434 290.373 215.308 290.373ZM221.841 316.867H226.45V290.635H221.841V316.867ZM235.306 316.867H230.697V290.635H235.306V316.867ZM244.162 299.554H239.553V316.867H244.162V299.554ZM241.876 290.373C242.776 290.373 243.513 290.673 244.087 291.272C244.687 291.847 244.987 292.584 244.987 293.483C244.987 294.358 244.687 295.095 244.087 295.694C243.513 296.269 242.776 296.556 241.876 296.556C241.002 296.556 240.265 296.269 239.665 295.694C239.091 295.095 238.804 294.358 238.804 293.483C238.804 292.584 239.091 291.847 239.665 291.272C240.265 290.673 241.002 290.373 241.876 290.373ZM261.787 300.191C260.338 299.392 258.702 298.992 256.878 298.992C255.054 298.992 253.406 299.392 251.932 300.191C250.483 300.965 249.346 302.052 248.521 303.451C247.697 304.85 247.285 306.437 247.285 308.21C247.285 309.984 247.697 311.57 248.521 312.969C249.346 314.368 250.483 315.468 251.932 316.267C253.406 317.042 255.054 317.429 256.878 317.429C258.702 317.429 260.338 317.042 261.787 316.267C263.261 315.468 264.41 314.368 265.235 312.969C266.059 311.57 266.471 309.984 266.471 308.21C266.471 306.437 266.059 304.85 265.235 303.451C264.41 302.052 263.261 300.965 261.787 300.191ZM253.356 304.688C254.28 303.788 255.454 303.339 256.878 303.339C258.302 303.339 259.464 303.788 260.363 304.688C261.262 305.562 261.712 306.736 261.712 308.21C261.712 309.684 261.262 310.871 260.363 311.77C259.464 312.645 258.302 313.082 256.878 313.082C255.454 313.082 254.28 312.645 253.356 311.77C252.456 310.871 252.007 309.684 252.007 308.21C252.007 306.736 252.456 305.562 253.356 304.688ZM279.717 298.992C281.716 298.992 283.302 299.579 284.476 300.753C285.651 301.927 286.238 303.738 286.238 306.187V316.867H281.628V307.273C281.628 304.6 280.442 303.264 278.068 303.264C276.819 303.264 275.833 303.676 275.108 304.5C274.384 305.325 274.021 306.624 274.021 308.398V316.867H269.45V299.554H273.984V302.177H274.059C274.658 301.153 275.433 300.366 276.382 299.816C277.356 299.267 278.468 298.992 279.717 298.992ZM214.865 346.333H218.756L224.676 369.615H219.321L216.162 356.344H216.095L211.771 366.289H208.08L203.789 356.344H203.723L200.563 369.615H195.175L201.128 346.333H205.02L209.909 358.207H209.975L214.865 346.333ZM250.567 369.615H244.813L243.15 364.892H234.17L232.54 369.615H226.753L235.933 346.333H241.387L250.567 369.615ZM238.66 352.087L235.8 360.302H241.554L238.66 352.087ZM271.998 346.333H266.544V359.737C266.544 362.664 265.047 364.726 262.12 364.726C259.193 364.726 257.697 362.664 257.697 359.737V346.333H252.209V360.202C252.209 366.222 255.535 370.047 262.12 370.047C268.672 370.047 271.998 366.222 271.998 360.202V346.333Z" fill="url(#paint1_linear)"/>
<defs>
<linearGradient id="paint0_linear" x1="235.438" y1="19.3267" x2="480.476" y2="222.396" gradientUnits="userSpaceOnUse">
<stop stop-color="#E9E9FE" stop-opacity="0.5"/>
<stop offset="0.336927" stop-color="#FFEBE0" stop-opacity="0.8"/>
<stop offset="0.671252" stop-color="#FFF3DA" stop-opacity="0.5"/>
<stop offset="1" stop-color="#FFF3DA" stop-opacity="0.33"/>
</linearGradient>
<linearGradient id="paint1_linear" x1="335" y1="264" x2="121.528" y2="121.906" gradientUnits="userSpaceOnUse">
<stop stop-color="#DD4C52"/>
<stop offset="0.522029" stop-color="#921E8D"/>
<stop offset="1" stop-color="#521182"/>
</linearGradient>
</defs>
</svg>
