<svg width="471" height="472" viewBox="0 0 471 472" fill="none" xmlns="http://www.w3.org/2000/svg">
<path fill-rule="evenodd" clip-rule="evenodd" d="M373.983 332.672C320.487 409.186 215.094 427.846 138.58 374.351C62.0657 320.855 43.4057 215.461 96.9013 138.948C150.397 62.4336 255.79 43.7735 332.304 97.2691C408.818 150.765 427.478 256.158 373.983 332.672ZM163.219 339.11C220.27 378.998 298.854 365.084 338.742 308.033C378.63 250.982 364.716 172.398 307.665 132.51C292.887 122.178 276.664 115.455 260.043 112.158C251.593 110.481 242.801 86.6257 234.034 86.7985C225.267 86.9712 218.739 110.63 211.003 112.158C180.176 118.246 151.569 135.8 132.142 163.587C92.2543 220.638 106.168 299.222 163.219 339.11Z" fill="url(#paint0_linear)"/>
<path fill-rule="evenodd" clip-rule="evenodd" d="M359.08 190.76C344.377 149.771 309.914 118.191 267.169 107.511C264.568 90.824 249.438 78.7747 232.361 80.2559C217.202 81.5704 205.39 93.1229 203.144 107.513C160.403 118.195 125.943 149.774 111.241 190.76C110.685 192.31 111.49 194.016 113.04 194.572C114.589 195.128 116.296 194.323 116.852 192.773C130.682 154.219 162.821 124.391 202.783 113.764C202.803 114.285 202.836 114.808 202.882 115.333C204.428 133.16 220.132 146.358 237.959 144.812C254.429 143.384 266.948 129.871 267.54 113.765C307.501 124.392 339.638 154.219 353.468 192.773C354.024 194.323 355.731 195.128 357.28 194.572C358.83 194.016 359.636 192.31 359.08 190.76ZM116.852 277.638C116.296 276.089 114.589 275.283 113.04 275.839C111.49 276.395 110.685 278.101 111.241 279.651C129.468 330.465 178.065 366.819 235.16 366.819C292.256 366.819 340.852 330.465 359.08 279.651C359.636 278.101 358.83 276.395 357.28 275.839C355.731 275.283 354.024 276.089 353.468 277.638C336.063 326.159 289.66 360.858 235.16 360.858C180.66 360.858 134.257 326.159 116.852 277.638ZM184.475 178.597H181.058V191.435H181.032L171.957 178.597H168.781V197.281H172.197V184.469H172.224L181.299 197.281H184.475V178.597ZM205.793 197.281H202.003L200.428 193.037H192.741L191.167 197.281H187.377L194.877 178.597H198.293L205.793 197.281ZM196.585 182.628L193.862 189.941H199.307L196.585 182.628ZM220.774 178.597H207.162V181.8H212.26V197.281H215.676V181.8H220.774V178.597ZM223.827 178.597H227.27V197.281H223.827V178.597ZM240.635 178.197C235.083 178.197 230.866 182.147 230.866 187.939C230.866 193.731 235.083 197.681 240.635 197.681C246.186 197.681 250.43 193.731 250.43 187.939C250.43 182.147 246.186 178.197 240.635 178.197ZM240.635 181.694C244.158 181.694 246.667 184.229 246.667 187.939C246.667 191.649 244.158 194.185 240.635 194.185C237.138 194.185 234.603 191.649 234.603 187.939C234.603 184.229 237.138 181.694 240.635 181.694ZM266.311 178.597H269.728V197.281H266.552L257.477 184.469H257.45V197.281H254.034V178.597H257.21L266.285 191.435H266.311V178.597ZM287.256 197.281H291.046L283.546 178.597H280.13L272.63 197.281H276.42L277.994 193.037H285.681L287.256 197.281ZM279.115 189.941L281.838 182.628L284.56 189.941H279.115ZM293.963 178.597H297.379V194.051H305.173V197.281H293.963V178.597ZM97.8242 212.392H108.216V249.534H126.922V259.323H97.8242V212.392ZM149.857 249.601V238.941H166.618V229.488H149.857V222.113H168.495V212.392H139.465V259.323H168.831V249.601H149.857ZM227.312 259.323H215.713L212.361 249.803H194.259L190.974 259.323H179.308L197.812 212.392H208.808L227.312 259.323ZM203.31 223.99L197.544 240.55H209.143L203.31 223.99ZM254.721 212.392H239.77V259.323H254.721C269.538 259.323 280.064 250.473 280.064 235.857C280.064 221.241 269.538 212.392 254.721 212.392ZM255.593 221.845C263.169 221.845 268.867 226.806 268.867 235.857C268.867 244.908 263.169 249.87 255.593 249.87H250.162V221.845H255.593ZM304.308 238.941V249.601H323.282V259.323H293.916V212.392H322.947V222.113H304.308V229.488H321.069V238.941H304.308ZM362.052 259.323H375.059L361.65 241.02C368.89 239.343 372.578 233.913 372.578 227.075C372.578 218.895 367.147 212.392 356.621 212.392H337.849V259.323H348.241V241.556H350.319L362.052 259.323ZM348.241 221.845H355.079C359.236 221.845 361.583 223.856 361.583 227.342C361.583 231.231 359.236 232.84 355.079 232.84H348.241V221.845ZM162.298 300.743V295.352H169.291V292.203H162.298V288.466H169.958V285.263H158.882V303.946H170.092V300.743H162.298ZM173.972 285.263H179.951C185.582 285.263 189.666 288.786 189.666 294.605C189.666 300.423 185.582 303.946 179.951 303.946H173.972V285.263ZM185.983 294.605C185.983 290.575 183.474 288.413 180.111 288.413H177.388V300.797H180.111C183.474 300.797 185.983 298.635 185.983 294.605ZM208.446 285.263H204.843V296.366C204.843 299.062 203.241 300.797 200.759 300.797C198.25 300.797 196.649 299.062 196.649 296.366V285.263H193.045V296.58C193.045 301.304 195.848 304.32 200.759 304.32C205.643 304.32 208.446 301.304 208.446 296.58V285.263ZM228.607 302.292C226.925 303.466 224.817 304.347 221.934 304.347C216.036 304.347 211.845 300.504 211.845 294.605C211.845 288.706 216.036 284.863 221.934 284.863C224.817 284.863 226.925 285.744 228.607 286.918L226.632 289.907C225.484 289.107 223.909 288.359 221.907 288.359C218.278 288.359 215.582 290.788 215.582 294.605C215.582 298.421 218.278 300.85 221.907 300.85C223.909 300.85 225.484 300.103 226.632 299.302L228.607 302.292ZM244.856 303.946H248.646L241.146 285.263H237.73L230.23 303.946H234.02L235.594 299.703H243.281L244.856 303.946ZM236.715 296.607L239.438 289.293L242.16 296.607H236.715ZM250.015 285.263H263.627V288.466H258.529V303.946H255.113V288.466H250.015V285.263ZM270.123 285.263H266.68V303.946H270.123V285.263ZM273.719 294.605C273.719 288.813 277.936 284.863 283.488 284.863C289.039 284.863 293.283 288.813 293.283 294.605C293.283 300.397 289.039 304.347 283.488 304.347C277.936 304.347 273.719 300.397 273.719 294.605ZM289.52 294.605C289.52 290.895 287.011 288.359 283.488 288.359C279.991 288.359 277.456 290.895 277.456 294.605C277.456 298.315 279.991 300.85 283.488 300.85C287.011 300.85 289.52 298.315 289.52 294.605ZM312.581 285.263H309.164V298.101H309.138L300.063 285.263H296.887V303.946H300.303V291.135H300.33L309.404 303.946H312.581V285.263ZM237.836 169.076H239.765L235.949 159.57H234.21L230.394 169.076H232.323L233.124 166.917H237.035L237.836 169.076ZM233.694 165.341L235.079 161.62L236.465 165.341H233.694ZM230.325 267.269H228.573V276.775H230.325V267.269ZM239.855 267.269H241.593V276.775H239.977L235.36 270.257H235.346V276.775H233.608V267.269H235.224L239.841 273.801H239.855V267.269ZM236.702 95.3986C236.217 93.9045 234.103 93.9045 233.618 95.3986L230.804 104.057C230.587 104.725 229.965 105.178 229.262 105.178H220.158C218.587 105.178 217.934 107.188 219.205 108.111L226.57 113.462C227.139 113.875 227.376 114.607 227.159 115.276L224.346 123.934C223.861 125.428 225.571 126.67 226.842 125.747L234.207 120.396C234.775 119.983 235.545 119.983 236.113 120.396L243.479 125.747C244.749 126.67 246.46 125.428 245.974 123.934L243.161 115.276C242.944 114.607 243.182 113.875 243.75 113.462L251.115 108.111C252.386 107.188 251.733 105.178 250.162 105.178H241.058C240.355 105.178 239.733 104.725 239.516 104.057L236.702 95.3986Z" fill="url(#paint1_linear)"/>
<defs>
<linearGradient id="paint0_linear" x1="277" y1="77" x2="437" y2="201" gradientUnits="userSpaceOnUse">
<stop stop-color="#E9E9FF" stop-opacity="0.58"/>
<stop offset="0.985741" stop-color="#E9FCFF" stop-opacity="0.56"/>
</linearGradient>
<linearGradient id="paint1_linear" x1="337.343" y1="322.458" x2="154.251" y2="143.801" gradientUnits="userSpaceOnUse">
<stop stop-color="#11AE97"/>
<stop offset="0.522029" stop-color="#007CEE"/>
<stop offset="1" stop-color="#5433D8"/>
</linearGradient>
</defs>
</svg>
