<svg width="978" height="896" viewBox="0 0 978 896" fill="none" xmlns="http://www.w3.org/2000/svg">
<path d="M300.486 558.402L300.486 221.719H213.202C213.202 526.659 213.202 262.717 213.202 558.402H300.486Z" fill="url(#paint0_linear)"/>
<path d="M888.591 449.873L359.227 850.665C260.272 925.394 119.676 905.486 45.1966 806.199C-29.2827 706.912 -9.44152 565.844 89.5133 491.115L618.877 90.3227C717.832 15.5935 858.428 35.5015 932.908 134.788C1007.39 234.075 987.546 375.143 888.591 449.873Z" fill="url(#paint1_linear)"/>
<path d="M359.227 850.665L550.639 705.743V442.557C550.639 433.994 543.715 427.052 535.174 427.052H316.271C307.731 427.052 300.807 433.994 300.807 442.557V882.481C321.248 875.039 340.948 864.468 359.227 850.665Z" fill="url(#paint2_linear)"/>
<path opacity="0.3" d="M747.713 424.079C832.33 424.079 900.927 355.252 900.927 270.351C900.927 185.449 832.33 116.622 747.713 116.622C663.095 116.622 594.499 185.449 594.499 270.351C594.499 355.252 663.095 424.079 747.713 424.079Z" fill="url(#paint3_linear)"/>
<path opacity="0.4" d="M747.711 371.427C803.348 371.427 848.45 326.173 848.45 270.351C848.45 214.528 803.348 169.274 747.711 169.274C692.075 169.274 646.973 214.528 646.973 270.351C646.973 326.173 692.075 371.427 747.711 371.427Z" fill="url(#paint4_linear)"/>
<path opacity="0.3" d="M747.712 318.935C774.455 318.935 796.134 297.183 796.134 270.35C796.134 243.518 774.455 221.766 747.712 221.766C720.969 221.766 699.29 243.518 699.29 270.35C699.29 297.183 720.969 318.935 747.712 318.935Z" fill="url(#paint5_linear)"/>
<path d="M427.034 303.882C415.058 290.71 403.262 274.821 392.56 257.31C381.858 239.798 373.095 222.045 366.825 205.362C363.09 206.184 359.46 207.077 355.948 208.037C362.507 225.771 371.755 244.625 383.074 263.146C394.394 281.668 406.948 298.488 419.727 312.396C422.172 309.69 424.61 306.849 427.034 303.882Z" fill="url(#paint6_linear)"/>
<path d="M430.822 161.97C435.011 157.336 439.218 153.103 443.401 149.329C455.871 138.079 467.263 131.883 475.413 131.666C477.768 131.604 479.853 132.041 481.614 132.999C489.469 137.276 492.156 152.62 488.801 174.045C486.476 188.897 481.524 205.665 474.414 223.076C476.772 227.288 479.017 231.501 481.142 235.698C490.497 214.506 496.964 193.847 499.793 175.777C501.768 163.167 501.876 152.386 500.115 143.733C498.086 133.761 493.647 126.848 486.921 123.186C480.195 119.525 471.999 119.559 462.561 123.288C454.37 126.524 445.421 132.492 435.961 141.027C431.671 144.898 427.363 149.217 423.079 153.928C425.663 156.484 428.247 159.167 430.822 161.97Z" fill="#55EEEF"/>
<path d="M426.585 286.833C392.938 287.727 361.101 283.871 336.938 275.976C324.841 272.023 315.215 267.231 308.327 261.732C300.389 255.395 296.262 248.291 296.059 240.616C295.857 232.94 299.603 225.627 307.196 218.877C313.784 213.021 323.144 207.724 335.016 203.135C358.728 193.967 390.318 188.426 423.965 187.532C457.612 186.639 489.45 190.494 513.612 198.39C525.709 202.342 535.335 207.135 542.223 212.633C550.161 218.97 554.289 226.075 554.491 233.75C554.694 241.425 550.947 248.739 543.354 255.488C536.766 261.345 527.406 266.641 515.535 271.231C491.822 280.398 460.233 285.939 426.585 286.833ZM424.259 198.693C391.848 199.554 361.575 204.831 339.016 213.553C318.846 221.35 306.946 231.357 307.182 240.32C307.419 249.283 319.831 258.644 340.383 265.36C363.37 272.871 393.88 276.533 426.291 275.672C458.702 274.811 488.975 269.534 511.534 260.813C531.704 253.015 543.604 243.009 543.368 234.045C543.131 225.082 530.72 215.721 510.167 209.005C487.18 201.494 456.671 197.832 424.259 198.693Z" fill="#03ACD6"/>
<path d="M502.926 294.545C497.659 269.602 485.069 240.009 467.473 211.219C449.878 182.429 429.301 157.75 409.532 141.729C399.635 133.709 390.383 128.224 382.034 125.427C372.412 122.205 364.226 122.606 357.703 126.619C351.179 130.633 347.111 137.772 345.611 147.837C344.308 156.572 344.985 167.333 347.622 179.82C348.818 185.483 350.392 191.387 352.316 197.465C355.815 196.497 359.425 195.593 363.132 194.756C361.227 188.801 359.673 183.028 358.508 177.506C354.028 156.289 355.901 140.824 363.52 136.137C371.138 131.45 385.725 136.787 402.54 150.415C421.347 165.656 441.039 189.323 457.988 217.055C474.936 244.788 487.03 273.129 492.04 296.859C496.52 318.076 494.647 333.541 487.028 338.228C479.41 342.916 464.823 337.578 448.008 323.951C443.631 320.404 439.206 316.4 434.779 311.995C432.355 314.93 429.917 317.747 427.47 320.437C431.998 324.914 436.528 328.999 441.016 332.636C450.913 340.657 460.164 346.141 468.514 348.938C473.085 350.469 477.332 351.182 481.231 351.079C485.539 350.964 489.421 349.853 492.845 347.746C499.368 343.732 503.437 336.594 504.937 326.528C506.239 317.793 505.563 307.033 502.926 294.545Z" fill="url(#paint7_linear)"/>
<path d="M468.778 236.027C465.787 242.509 462.523 249.036 459.003 255.545C443.541 284.138 425.125 308.818 407.149 325.036C394.679 336.287 383.286 342.483 375.136 342.699C372.781 342.761 370.696 342.324 368.936 341.366C361.081 337.09 358.394 321.746 361.749 300.321C365.5 276.358 376.082 247.414 391.545 218.82C401.308 200.765 412.249 184.272 423.514 170.483C420.937 167.649 418.352 164.941 415.768 162.369C403.741 176.936 392.091 194.399 381.764 213.496C365.712 243.18 354.7 273.4 350.756 298.588C348.782 311.198 348.674 321.979 350.435 330.633C352.464 340.605 356.903 347.517 363.629 351.179C367.16 353.101 371.094 354.005 375.402 353.89C379.301 353.786 383.506 352.849 387.989 351.077C396.179 347.841 405.129 341.873 414.589 333.338C433.485 316.29 452.732 290.553 468.784 260.869C470.981 256.805 473.084 252.731 475.088 248.661C473.115 244.475 471.008 240.258 468.778 236.027Z" fill="#3AEBEE"/>
<path d="M470.997 427.052C471.054 427.032 471.115 427.011 471.171 426.991V170.483L379.692 206.318C379.692 308.45 379.692 324.98 379.692 427.052H470.997Z" fill="url(#paint8_linear)"/>
<path d="M687.845 601.861L687.845 323.98L600.561 323.98C600.561 639.841 600.561 371.478 600.561 667.945L687.845 601.861Z" fill="url(#paint9_linear)"/>
<path d="M455.417 427.052V212.916L395.446 260.129C395.446 473.116 395.446 216.08 395.446 427.052H455.417Z" fill="url(#paint10_linear)"/>
<path d="M440.417 427.052V245.965H410.446C410.446 409.979 410.446 268.016 410.446 427.052H440.417Z" fill="url(#paint11_linear)"/>
<path d="M440.313 428.031V247.301H410.549C410.549 410.992 410.549 269.308 410.549 428.031H440.313Z" fill="url(#paint12_linear)"/>
<path d="M426.158 340.527C427.698 340.527 428.945 339.275 428.945 337.731C428.945 336.186 427.698 334.935 426.158 334.935C424.619 334.935 423.372 336.186 423.372 337.731C423.372 339.275 424.619 340.527 426.158 340.527Z" fill="#00FFFF"/>
<path d="M440.555 358.435C442.094 358.435 443.342 357.183 443.342 355.639C443.342 354.094 442.094 352.843 440.555 352.843C439.016 352.843 437.768 354.094 437.768 355.639C437.768 357.183 439.016 358.435 440.555 358.435Z" fill="#00FFFF"/>
<path d="M418.272 370.019C419.811 370.019 421.059 368.767 421.059 367.223C421.059 365.678 419.811 364.426 418.272 364.426C416.733 364.426 415.485 365.678 415.485 367.223C415.485 368.767 416.733 370.019 418.272 370.019Z" fill="white"/>
<path d="M425.998 393.794C427.538 393.794 428.785 392.542 428.785 390.998C428.785 389.453 427.538 388.202 425.998 388.202C424.459 388.202 423.211 389.453 423.211 390.998C423.211 392.542 424.459 393.794 425.998 393.794Z" fill="white"/>
<path d="M425.499 260.791C438.464 260.791 448.974 250.246 448.974 237.237C448.974 224.229 438.464 213.683 425.499 213.683C412.534 213.683 402.024 224.229 402.024 237.237C402.024 250.246 412.534 260.791 425.499 260.791Z" fill="url(#paint13_linear)"/>
<path d="M446.638 226.99C452.279 238.703 447.388 252.786 435.714 258.445C424.04 264.105 410.004 259.197 404.364 247.484C398.723 235.771 404.824 225.532 416.498 219.873C428.172 214.214 440.998 215.277 446.638 226.99Z" fill="url(#paint14_linear)"/>
<path d="M415.839 234.912C418.729 234.912 421.072 232.561 421.072 229.661C421.072 226.761 418.729 224.411 415.839 224.411C412.949 224.411 410.606 226.761 410.606 229.661C410.606 232.561 412.949 234.912 415.839 234.912Z" fill="white"/>
<path d="M440.312 245.964C441.838 245.964 443.076 244.723 443.076 243.192C443.076 241.661 441.838 240.419 440.312 240.419C438.786 240.419 437.549 241.661 437.549 243.192C437.549 244.723 438.786 245.964 440.312 245.964Z" fill="#FF7BAC"/>
<path d="M479.36 759.708V429.795C479.36 428.28 478.136 427.052 476.626 427.052H374.817C373.307 427.052 372.083 428.28 372.083 429.795V840.93L479.36 759.708Z" fill="url(#paint15_linear)"/>
<path d="M476.782 432.44H374.76C373.283 432.44 372.075 431.227 372.075 429.746C372.075 428.264 373.283 427.052 374.76 427.052H476.782C478.259 427.052 479.467 428.264 479.467 429.746C479.467 431.227 478.259 432.44 476.782 432.44Z" fill="white"/>
<path opacity="0.57" d="M395.598 309.881C397.165 309.881 398.436 308.606 398.436 307.033C398.436 305.461 397.165 304.186 395.598 304.186C394.031 304.186 392.76 305.461 392.76 307.033C392.76 308.606 394.031 309.881 395.598 309.881Z" fill="#00FFFF"/>
<path opacity="0.7" d="M479.467 429.746L550.731 501.249V705.743L479.36 759.708L479.467 429.746Z" fill="url(#paint16_linear)"/>
<path opacity="0.5" d="M336.451 572.532L372.083 608.283V840.93L336.397 867.882L336.451 572.532Z" fill="url(#paint17_linear)"/>
<path d="M336.93 865.52V576.538C336.93 566.522 328.837 558.401 318.854 558.401H194.662C184.679 558.401 176.586 566.521 176.586 576.538V890.729C229.948 902.38 287.256 894.523 336.93 865.52Z" fill="url(#paint18_linear)"/>
<path d="M300.486 638.981L300.486 309.881H213.202C213.202 607.953 213.202 349.955 213.202 638.981H300.486Z" fill="url(#paint19_linear)"/>
<path d="M256.629 682.72C280.758 682.72 300.318 663.094 300.318 638.884C300.318 614.674 280.758 595.048 256.629 595.048C232.5 595.048 212.94 614.674 212.94 638.884C212.94 663.094 232.5 682.72 256.629 682.72Z" fill="white"/>
<path opacity="0.4" d="M599.725 628.449C599.725 628.554 599.734 628.657 599.743 628.761V668.564L606.441 663.493V635.23L625.054 649.401L630.681 645.14L608.686 628.394L681.963 572.606V606.313L688.661 601.242V566.133C688.67 566.03 688.679 565.926 688.679 565.822C688.679 565.717 688.67 565.613 688.661 565.51V440.718C688.67 440.614 688.679 440.511 688.679 440.406C688.679 440.301 688.67 440.198 688.661 440.094V315.576C688.67 315.472 688.679 315.369 688.679 315.264C688.679 315.159 688.67 315.056 688.661 314.952V190.433C688.67 190.33 688.679 190.226 688.679 190.121C688.679 190.017 688.67 189.913 688.661 189.81V64.9963C688.661 64.9284 688.651 64.8623 688.647 64.795V4.41766C688.647 2.5619 687.147 1.05768 685.298 1.05768C683.449 1.05768 681.949 2.56188 681.949 4.41766V63.3391L601.624 124.493C601.617 124.496 601.61 124.498 601.603 124.502C600.689 124.957 600.052 125.799 599.833 126.773C599.816 126.838 599.804 126.905 599.791 126.972C599.786 127.002 599.779 127.032 599.775 127.062C599.745 127.242 599.725 127.423 599.725 127.607C599.725 127.711 599.734 127.815 599.743 127.918V252.438C599.734 252.541 599.725 252.644 599.725 252.749C599.725 252.854 599.734 252.958 599.743 253.061V377.58C599.734 377.683 599.725 377.786 599.725 377.891C599.725 377.996 599.734 378.1 599.743 378.203V502.721C599.734 502.825 599.725 502.928 599.725 503.033C599.725 503.138 599.734 503.241 599.743 503.345V628.137C599.734 628.241 599.725 628.344 599.725 628.449ZM681.963 558.876L608.614 503.033L681.963 447.19V558.876ZM681.963 433.625L608.686 377.837L681.963 322.048V433.625ZM681.963 308.483L608.686 252.695L681.963 196.906V308.483ZM681.963 71.7636V183.341L608.686 127.552L681.963 71.7636ZM606.441 134.388L679.719 190.176L606.441 245.965V134.388ZM606.441 259.53L679.719 315.318L606.441 371.107V259.53ZM606.441 384.672L679.719 440.461L606.441 496.249V384.672ZM606.441 509.979L679.79 565.822L606.441 621.664V509.979Z" fill="url(#paint20_linear)"/>
<path d="M656.019 379.92C657.527 379.92 658.75 378.693 658.75 377.179C658.75 375.666 657.527 374.439 656.019 374.439C654.51 374.439 653.288 375.666 653.288 377.179C653.288 378.693 654.51 379.92 656.019 379.92Z" fill="white"/>
<path d="M627.794 364.08C629.303 364.08 630.525 362.853 630.525 361.34C630.525 359.826 629.303 358.599 627.794 358.599C626.286 358.599 625.063 359.826 625.063 361.34C625.063 362.853 626.286 364.08 627.794 364.08Z" fill="white"/>
<path d="M640.232 439.439C641.74 439.439 642.963 438.212 642.963 436.699C642.963 435.186 641.74 433.959 640.232 433.959C638.723 433.959 637.5 435.186 637.5 436.699C637.5 438.212 638.723 439.439 640.232 439.439Z" fill="#FF7BAC"/>
<path d="M656.019 424.56C657.527 424.56 658.75 423.333 658.75 421.819C658.75 420.306 657.527 419.079 656.019 419.079C654.51 419.079 653.288 420.306 653.288 421.819C653.288 423.333 654.51 424.56 656.019 424.56Z" fill="#D300B7"/>
<path d="M664.63 469.199C666.138 469.199 667.361 467.972 667.361 466.459C667.361 464.945 666.138 463.718 664.63 463.718C663.122 463.718 661.899 464.945 661.899 466.459C661.899 467.972 663.122 469.199 664.63 469.199Z" fill="#93278F"/>
<path d="M650.755 505.199C652.264 505.199 653.486 503.972 653.486 502.458C653.486 500.945 652.264 499.718 650.755 499.718C649.247 499.718 648.024 500.945 648.024 502.458C648.024 503.972 649.247 505.199 650.755 505.199Z" fill="#662D91"/>
<path d="M94.7025 788.078L95.2795 619.336C95.3216 608.095 86.2734 613.847 75.0698 613.805L74.4165 788.001L94.7025 788.078Z" fill="url(#paint21_linear)" fill-opacity="0.8"/>
<path d="M141.487 663.581L142.144 475.229C142.186 464.008 133.154 467.914 121.97 467.872L121.237 663.505L141.487 663.581Z" fill="url(#paint22_linear)"/>
<path d="M142.164 475.858L121.837 475.964L121.674 444.65C121.645 439.018 126.172 434.428 131.785 434.399H131.785C137.398 434.37 141.972 438.911 142.002 444.543L142.164 475.858Z" fill="#3EDEFF"/>
<path d="M95.2987 620.73L74.9716 620.836L74.8092 589.522C74.78 583.89 79.3067 579.301 84.9199 579.272H84.9199C90.5331 579.242 95.1072 583.784 95.1364 589.416L95.2987 620.73Z" fill="#68FFE2"/>
<path d="M807.835 187.406L808.291 65.7505L788.437 65.6755L787.981 187.331L807.835 187.406Z" fill="url(#paint23_linear)"/>
<path d="M808.701 73.6611L788.374 73.7672L788.212 42.4531C788.182 36.8211 792.709 32.2317 798.322 32.2024C803.935 32.1731 808.509 36.715 808.539 42.347L808.701 73.6611Z" fill="#BC37B2"/>
<path d="M888.59 449.873C913.614 430.974 933.576 407.833 948.234 382.198C946.274 339.521 911.172 305.523 868.153 305.523H868.153C823.875 305.523 787.981 341.537 787.981 385.963V526.046L888.59 449.873Z" fill="url(#paint24_linear)"/>
<path d="M425.877 507.049C428.2 507.049 430.1 508.955 430.1 511.286V864.111C430.1 866.441 428.2 868.348 425.877 868.348C423.555 868.348 421.655 866.441 421.655 864.111V511.286C421.655 508.955 423.555 507.049 425.877 507.049Z" fill="url(#paint25_linear)"/>
<path d="M874.587 304.31C874.559 304.308 874.531 304.306 874.503 304.304C872.078 304.114 870.008 306.05 870.008 308.49V463.941L878.454 457.547V308.497C878.454 306.302 876.768 304.484 874.587 304.31Z" fill="url(#paint26_linear)"/>
<path d="M852.876 304.534C852.848 304.54 852.82 304.545 852.792 304.551C850.826 304.935 849.407 306.662 849.407 308.672V479.537L857.852 473.143V308.655C857.852 306.019 855.455 304.033 852.876 304.534Z" fill="url(#paint27_linear)"/>
<path d="M745.78 281.952L739.703 562.58L754.502 551.375L748.668 281.952C754.301 281.239 758.658 276.419 758.658 270.574C758.658 264.238 753.539 259.101 747.224 259.101C740.909 259.101 735.79 264.238 735.79 270.574C735.79 276.419 740.147 281.239 745.78 281.952Z" fill="url(#paint28_linear)"/>
<path fill-rule="evenodd" clip-rule="evenodd" d="M681.755 1.05951L601.624 61.7494C601.621 61.7508 601.618 61.752 601.614 61.7533C601.61 61.7547 601.607 61.7561 601.603 61.758C600.689 62.2106 600.052 63.049 599.833 64.0171C599.816 64.0826 599.803 64.1488 599.791 64.2152C599.789 64.2274 599.786 64.2394 599.784 64.2515C599.781 64.2694 599.777 64.2873 599.775 64.3055C599.745 64.4836 599.725 64.6636 599.725 64.8469C599.725 64.9511 599.734 65.0542 599.743 65.157V189.03C599.734 189.133 599.725 189.236 599.725 189.34C599.725 189.445 599.734 189.548 599.743 189.651V313.523C599.739 313.566 599.735 313.609 599.732 313.651C599.728 313.712 599.725 313.772 599.725 313.833C599.725 313.938 599.734 314.041 599.743 314.144V438.017C599.734 438.119 599.725 438.222 599.725 438.327C599.725 438.395 599.729 438.464 599.734 438.532C599.737 438.567 599.74 438.602 599.743 438.637V562.782C599.734 562.885 599.725 562.988 599.725 563.093C599.725 563.197 599.734 563.3 599.743 563.403V664.598L606.441 659.553V569.838L665.832 614.82L671.459 610.582L608.686 563.038L681.963 507.539V602.67L688.661 597.626V501.1C688.67 500.997 688.679 500.894 688.679 500.79C688.679 500.685 688.67 500.582 688.661 500.479V376.334C688.67 376.231 688.679 376.128 688.679 376.024C688.679 375.92 688.67 375.817 688.661 375.714V251.841C688.67 251.738 688.679 251.635 688.679 251.531C688.679 251.427 688.67 251.324 688.661 251.221V127.348C688.67 127.245 688.679 127.142 688.679 127.038C688.679 126.933 688.67 126.83 688.661 126.727V4.48009C688.661 -0.160322 684.504 -0.99915 681.755 1.05951ZM608.614 438.327L681.963 493.88V382.773L608.614 438.327ZM608.686 313.779L681.963 369.278V258.28L608.686 313.779ZM608.686 189.286L681.963 244.785V133.787L608.686 189.286ZM681.963 120.292V9.29336L608.686 64.7926L681.963 120.292ZM679.719 127.092L606.441 71.5926V182.591L679.719 127.092ZM679.719 251.585L606.441 196.086V307.084L679.719 251.585ZM679.719 376.078L606.441 320.579V431.578L679.719 376.078ZM679.79 500.79L606.441 445.236V556.343L679.79 500.79Z" fill="url(#paint29_linear)"/>
<path d="M452.619 780.934V595.204C452.619 592.874 450.719 590.967 448.397 590.967H448.397C446.074 590.967 444.174 592.874 444.174 595.204V787.328L452.619 780.934Z" fill="url(#paint30_linear)"/>
<path d="M407.579 815.035V595.204C407.579 592.874 405.678 590.967 403.356 590.967C401.033 590.967 399.133 592.874 399.133 595.204V821.43L407.579 815.035Z" fill="url(#paint31_linear)"/>
<path d="M653.304 297.958C654.812 297.958 656.035 296.731 656.035 295.217C656.035 293.704 654.812 292.477 653.304 292.477C651.796 292.477 650.573 293.704 650.573 295.217C650.573 296.731 651.796 297.958 653.304 297.958Z" fill="#29ABE2"/>
<path d="M664.542 317.428C666.051 317.428 667.273 316.201 667.273 314.687C667.273 313.174 666.051 311.947 664.542 311.947C663.034 311.947 661.811 313.174 661.811 314.687C661.811 316.201 663.034 317.428 664.542 317.428Z" fill="#00FFFF"/>
<path d="M637.443 323.98C638.951 323.98 640.174 322.753 640.174 321.24C640.174 319.726 638.951 318.499 637.443 318.499C635.934 318.499 634.711 319.726 634.711 321.24C634.711 322.753 635.934 323.98 637.443 323.98Z" fill="white"/>
<path opacity="0.44" d="M627.661 267.444C629.197 267.444 630.442 266.194 630.442 264.653C630.442 263.112 629.197 261.863 627.661 261.863C626.125 261.863 624.879 263.112 624.879 264.653C624.879 266.194 626.125 267.444 627.661 267.444Z" fill="#00FFFF"/>
<path d="M868.152 305.523H868.152C864.406 305.523 860.721 305.783 857.112 306.283C857.573 306.954 857.851 307.767 857.851 308.657V473.145L870.008 463.941V308.49C870.008 307.356 870.459 306.334 871.182 305.58C870.176 305.542 869.166 305.523 868.152 305.523Z" fill="url(#paint32_linear)"/>
<defs>
<linearGradient id="paint0_linear" x1="256.844" y1="534.816" x2="256.844" y2="259.834" gradientUnits="userSpaceOnUse">
<stop offset="0.19157" stop-color="#00FFDC" stop-opacity="0.5"/>
<stop offset="0.99682" stop-color="#88FFFF" stop-opacity="0"/>
</linearGradient>
<linearGradient id="paint1_linear" x1="164.317" y1="917.228" x2="800.596" y2="328.907" gradientUnits="userSpaceOnUse">
<stop stop-color="#0F63DF"/>
<stop offset="0.20104" stop-color="#1631C0"/>
<stop offset="0.56942" stop-color="#100B69"/>
<stop offset="0.99943" stop-color="#720D85"/>
</linearGradient>
<linearGradient id="paint2_linear" x1="357.607" y1="414.963" x2="466.099" y2="804.948" gradientUnits="userSpaceOnUse">
<stop stop-color="#7F2A97"/>
<stop offset="0.15196" stop-color="#742696"/>
<stop offset="0.39669" stop-color="#511D88"/>
<stop offset="1" stop-color="#1D4AB4"/>
</linearGradient>
<linearGradient id="paint3_linear" x1="827.426" y1="415.383" x2="664.664" y2="121.229" gradientUnits="userSpaceOnUse">
<stop offset="0.0630608" stop-color="#0F77FF" stop-opacity="0.4"/>
<stop offset="1" stop-color="#A60D85"/>
</linearGradient>
<linearGradient id="paint4_linear" x1="814.413" y1="385.081" x2="687.222" y2="167.767" gradientUnits="userSpaceOnUse">
<stop offset="0.0732681" stop-color="#0F77FF" stop-opacity="0.8"/>
<stop offset="1" stop-color="#A60D85"/>
</linearGradient>
<linearGradient id="paint5_linear" x1="785.594" y1="335.51" x2="708.231" y2="203.332" gradientUnits="userSpaceOnUse">
<stop offset="0.056491" stop-color="#01A1FF"/>
<stop offset="1" stop-color="#F80D85"/>
</linearGradient>
<linearGradient id="paint6_linear" x1="431.488" y1="329.898" x2="322.497" y2="140.554" gradientUnits="userSpaceOnUse">
<stop stop-color="#00A2FF" stop-opacity="0.3"/>
<stop offset="0.51017" stop-color="#00D3E9"/>
<stop offset="1" stop-color="#85E5F1"/>
</linearGradient>
<linearGradient id="paint7_linear" x1="381" y1="291.331" x2="448.593" y2="209.215" gradientUnits="userSpaceOnUse">
<stop stop-color="#00A2FF" stop-opacity="0.3"/>
<stop offset="0.5043" stop-color="#00DFE9"/>
<stop offset="1" stop-color="#85EDF1"/>
</linearGradient>
<linearGradient id="paint8_linear" x1="425.431" y1="525.049" x2="425.431" y2="246.35" gradientUnits="userSpaceOnUse">
<stop offset="0.44384" stop-color="#00A2FF" stop-opacity="0.5"/>
<stop offset="1" stop-color="#0081FF" stop-opacity="0"/>
</linearGradient>
<linearGradient id="paint9_linear" x1="643.081" y1="724.191" x2="644.801" y2="326.4" gradientUnits="userSpaceOnUse">
<stop stop-color="#751388"/>
<stop offset="1" stop-color="#5000BA" stop-opacity="0"/>
</linearGradient>
<linearGradient id="paint10_linear" x1="425.431" y1="476.914" x2="425.431" y2="209.505" gradientUnits="userSpaceOnUse">
<stop offset="0.24734" stop-color="#00FFFF" stop-opacity="0.5"/>
<stop offset="1" stop-color="#0090FF" stop-opacity="0"/>
</linearGradient>
<linearGradient id="paint11_linear" x1="425.431" y1="414.366" x2="425.431" y2="266.465" gradientUnits="userSpaceOnUse">
<stop stop-color="#00FFDC" stop-opacity="0.7"/>
<stop offset="1" stop-color="#00ADFF" stop-opacity="0"/>
</linearGradient>
<linearGradient id="paint12_linear" x1="425.431" y1="441.113" x2="425.431" y2="376.67" gradientUnits="userSpaceOnUse">
<stop stop-color="white"/>
<stop offset="1" stop-color="white" stop-opacity="0"/>
</linearGradient>
<linearGradient id="paint13_linear" x1="413.659" y1="233.699" x2="446.552" y2="243.467" gradientUnits="userSpaceOnUse">
<stop offset="0.03755" stop-color="#1028BF"/>
<stop offset="0.09779" stop-color="#1523B4"/>
<stop offset="0.49042" stop-color="#310673"/>
<stop offset="0.70156" stop-color="#5C0380"/>
<stop offset="0.89436" stop-color="#7D0189"/>
<stop offset="1" stop-color="#89008D"/>
</linearGradient>
<linearGradient id="paint14_linear" x1="425.856" y1="238.398" x2="433.302" y2="262.943" gradientUnits="userSpaceOnUse">
<stop stop-color="#0001FF" stop-opacity="0"/>
<stop offset="0.57813" stop-color="#00FFFF" stop-opacity="0.5"/>
<stop offset="0.89008" stop-color="white"/>
</linearGradient>
<linearGradient id="paint15_linear" x1="427.267" y1="444.682" x2="423.436" y2="814.078" gradientUnits="userSpaceOnUse">
<stop stop-color="#BD52BE"/>
<stop offset="0.32623" stop-color="#7F28A2"/>
<stop offset="0.68275" stop-color="#4C33A5"/>
<stop offset="1" stop-color="#223CA7"/>
</linearGradient>
<linearGradient id="paint16_linear" x1="563.029" y1="543.869" x2="345.161" y2="675.499" gradientUnits="userSpaceOnUse">
<stop offset="0.02295" stop-color="#430E6E"/>
<stop offset="0.66742" stop-color="#211682"/>
</linearGradient>
<linearGradient id="paint17_linear" x1="354.24" y1="603.594" x2="354.24" y2="916.776" gradientUnits="userSpaceOnUse">
<stop offset="0.00275" stop-color="#32008E"/>
<stop offset="0.99454" stop-color="#211682" stop-opacity="0"/>
</linearGradient>
<linearGradient id="paint18_linear" x1="173.742" y1="628.791" x2="357.275" y2="851.91" gradientUnits="userSpaceOnUse">
<stop offset="0.00226" stop-color="#2DCDE9"/>
<stop offset="0.4407" stop-color="#227EFF" stop-opacity="0.5"/>
<stop offset="0.88743" stop-color="#1668D8" stop-opacity="0"/>
</linearGradient>
<linearGradient id="paint19_linear" x1="256.844" y1="615.927" x2="256.844" y2="347.137" gradientUnits="userSpaceOnUse">
<stop offset="0.19157" stop-color="#00FFDC" stop-opacity="0.5"/>
<stop offset="0.56922" stop-color="#00C3FF" stop-opacity="0.28"/>
<stop offset="0.99682" stop-color="#00A8FF" stop-opacity="0"/>
</linearGradient>
<linearGradient id="paint20_linear" x1="572.395" y1="118.712" x2="745.666" y2="562.618" gradientUnits="userSpaceOnUse">
<stop offset="0.00438" stop-color="#451467" stop-opacity="0"/>
<stop offset="0.54654" stop-color="#0D0091"/>
<stop offset="0.97995" stop-color="#2F0B6E"/>
</linearGradient>
<linearGradient id="paint21_linear" x1="84.848" y1="515.307" x2="84.4701" y2="778.994" gradientUnits="userSpaceOnUse">
<stop offset="0.05039" stop-color="#00FFFF" stop-opacity="0.6"/>
<stop offset="0.10157" stop-color="#00FFFF" stop-opacity="0.56766"/>
<stop offset="0.992617" stop-color="#00FFFF" stop-opacity="0"/>
</linearGradient>
<linearGradient id="paint22_linear" x1="133.633" y1="124.369" x2="131.224" y2="663.162" gradientUnits="userSpaceOnUse">
<stop stop-color="#00FFFF" stop-opacity="0.6"/>
<stop offset="1" stop-color="#00FFFF" stop-opacity="0"/>
</linearGradient>
<linearGradient id="paint23_linear" x1="798.636" y1="59.0385" x2="797.679" y2="180.43" gradientUnits="userSpaceOnUse">
<stop stop-color="#AD279C" stop-opacity="0.6"/>
<stop offset="0.97831" stop-color="#93278F" stop-opacity="0"/>
</linearGradient>
<linearGradient id="paint24_linear" x1="784.157" y1="373.365" x2="880.51" y2="444.427" gradientUnits="userSpaceOnUse">
<stop offset="0.00226" stop-color="#29BAE2"/>
<stop offset="0.47797" stop-color="#0A71D2" stop-opacity="0.48"/>
<stop offset="0.99454" stop-color="#662D91" stop-opacity="0"/>
</linearGradient>
<linearGradient id="paint25_linear" x1="425.099" y1="525.554" x2="426.685" y2="853.706" gradientUnits="userSpaceOnUse">
<stop stop-color="white"/>
<stop offset="0.26836" stop-color="#77FFFF"/>
<stop offset="1" stop-color="#2EBBEB"/>
</linearGradient>
<linearGradient id="paint26_linear" x1="827.633" y1="309.58" x2="905.347" y2="435.561" gradientUnits="userSpaceOnUse">
<stop stop-color="white"/>
<stop offset="0.19307" stop-color="#77FFFF"/>
<stop offset="0.49005" stop-color="#29ABE2"/>
<stop offset="0.99019" stop-color="#1668B2" stop-opacity="0.5"/>
</linearGradient>
<linearGradient id="paint27_linear" x1="801.707" y1="308.766" x2="886.431" y2="446.108" gradientUnits="userSpaceOnUse">
<stop stop-color="white"/>
<stop offset="0.21312" stop-color="#77FFFF"/>
<stop offset="0.50822" stop-color="#29ABE2"/>
<stop offset="0.99019" stop-color="#1668B2" stop-opacity="0.5"/>
</linearGradient>
<linearGradient id="paint28_linear" x1="675.827" y1="310.935" x2="806.364" y2="494.445" gradientUnits="userSpaceOnUse">
<stop stop-color="#46EBF8"/>
<stop offset="0.41094" stop-color="#185AC9"/>
<stop offset="0.97882" stop-color="#982187"/>
</linearGradient>
<linearGradient id="paint29_linear" x1="855.547" y1="439.071" x2="448.495" y2="129.228" gradientUnits="userSpaceOnUse">
<stop offset="0.09416" stop-color="#BC49B3"/>
<stop offset="0.49656" stop-color="#4B50F2"/>
<stop offset="0.88351" stop-color="#48ECF9"/>
</linearGradient>
<linearGradient id="paint30_linear" x1="475.942" y1="747.943" x2="404.059" y2="599.774" gradientUnits="userSpaceOnUse">
<stop stop-color="white"/>
<stop offset="0.35966" stop-color="#77FFFF"/>
<stop offset="1" stop-color="#30C9FC"/>
</linearGradient>
<linearGradient id="paint31_linear" x1="432.776" y1="768.885" x2="360.893" y2="620.715" gradientUnits="userSpaceOnUse">
<stop stop-color="white"/>
<stop offset="0.37356" stop-color="#77FFFF"/>
<stop offset="1" stop-color="#31C9FC"/>
</linearGradient>
<linearGradient id="paint32_linear" x1="865.701" y1="507.972" x2="863.677" y2="306.66" gradientUnits="userSpaceOnUse">
<stop stop-color="#BD52BE"/>
<stop offset="0.34955" stop-color="#7F28A2"/>
<stop offset="0.69373" stop-color="#4C33A5"/>
<stop offset="1" stop-color="#223CA7"/>
</linearGradient>
</defs>
</svg>
