<svg width="392" height="492" viewBox="0 0 392 492" fill="none" xmlns="http://www.w3.org/2000/svg">
<path d="M14.3522 199.808H13.1865C13.1865 152.838 31.1288 108.106 63.7081 73.851C96.1326 39.7593 139.956 19.2167 187.104 16.0077L187.184 17.1705C140.327 20.3596 96.7757 40.7744 64.553 74.6541C32.1805 108.691 14.3522 153.138 14.3522 199.808Z" fill="#29ABE2"/>
<path d="M192.316 16.147H191.15V430.435H192.316V16.147Z" fill="#29ABE2"/>
<path d="M361.772 114.516C366.08 114.072 369.212 110.221 368.768 105.915C368.324 101.608 364.472 98.4764 360.164 98.9202C355.856 99.364 352.724 103.215 353.168 107.522C353.612 111.828 357.464 114.96 361.772 114.516Z" fill="#29ABE2"/>
<path d="M16.2601 208.15C20.8698 206.774 23.4913 201.924 22.1154 197.316C20.7396 192.709 15.8874 190.089 11.2777 191.465C6.66803 192.84 4.0465 197.691 5.42235 202.298C6.79819 206.906 11.6504 209.526 16.2601 208.15Z" fill="#29ABE2"/>
<path d="M191.576 273.873C201.931 269.353 212.446 263.989 222.907 257.791C287.337 219.613 325.232 164.481 307.547 134.649C292.703 109.61 243.424 110.357 189.876 133.814L191.576 273.873Z" fill="url(#paint0_linear)"/>
<path d="M192.353 271.115C246.648 293.07 296.033 292.396 310.15 266.9C326.95 236.56 287.449 182.566 221.923 146.301C211.462 140.512 200.971 135.528 190.657 131.357L192.353 271.115Z" fill="url(#paint1_linear)"/>
<path d="M191.733 273.653C246.028 295.609 295.413 294.935 309.53 269.439C326.33 239.099 286.829 185.105 221.303 148.84C210.842 143.05 200.351 138.066 190.037 133.896L191.733 273.653Z" fill="url(#paint2_linear)"/>
<path d="M190.037 133.896L191.733 273.654C191.792 273.677 191.851 273.7 191.91 273.724C202.157 269.235 212.559 263.922 222.907 257.791C250.692 241.327 273.535 221.711 289.121 202.329C272.971 183.415 249.561 164.479 221.303 148.84C210.842 143.05 200.351 138.066 190.037 133.896Z" fill="url(#paint3_linear)"/>
<path d="M196.937 241.236C218.157 237.799 232.573 217.815 229.136 196.599C225.698 175.384 205.709 160.972 184.488 164.409C163.268 167.845 148.852 187.83 152.29 209.045C155.727 230.26 175.717 244.673 196.937 241.236Z" fill="#29ABE2"/>
<path d="M194.988 339.316C229.672 338.895 257.053 277.857 256.144 202.984C255.236 128.111 226.382 67.7553 191.698 68.176C157.014 68.5966 129.633 129.634 130.541 204.507C131.45 279.381 160.304 339.736 194.988 339.316Z" fill="white"/>
<path d="M189.239 68.2051C223.924 67.7843 252.777 128.14 253.686 203.013C254.595 277.885 227.214 338.923 192.53 339.344C157.846 339.764 128.992 279.409 128.084 204.536C127.175 129.663 154.555 68.6258 189.239 68.2051Z" fill="url(#paint4_linear)"/>
<path d="M72.0059 135.59C55.2064 165.93 94.7071 219.924 160.233 256.189C170.694 261.979 181.185 266.962 191.5 271.133L189.804 131.375C135.509 109.42 86.1234 110.094 72.0059 135.59Z" fill="url(#paint5_linear)"/>
<path d="M72.2393 138.11C55.4398 168.45 94.9405 222.444 160.467 258.709C170.928 264.499 181.419 269.482 191.733 273.653L190.037 133.895C135.742 111.94 86.3568 112.614 72.2393 138.11Z" fill="url(#paint6_linear)"/>
<path d="M238.863 118.398C223.622 121.157 206.968 126.327 189.876 133.814L191.576 273.873C201.931 269.353 212.446 263.989 222.907 257.791C233.34 251.608 243.073 244.98 251.991 238.088C253.238 226.891 253.833 215.133 253.686 203.013C253.296 170.928 247.775 141.51 238.863 118.398Z" fill="url(#paint7_linear)"/>
<path d="M140.739 119.894C132.458 143.169 127.696 172.592 128.083 204.536C128.231 216.727 129.121 228.533 130.655 239.754C139.816 246.423 149.793 252.802 160.466 258.709C170.927 264.499 181.418 269.483 191.733 273.653L190.037 133.895C172.783 126.919 156.027 122.231 140.739 119.894Z" fill="url(#paint8_linear)"/>
<path d="M156.661 148.297C92.2301 186.475 54.4542 242.235 72.1394 272.068C86.9534 297.057 136.068 296.361 189.493 273.04L189.877 133.814L186.725 132.582C176.473 137.073 167.014 142.163 156.661 148.297Z" fill="url(#paint9_linear)"/>
<path d="M158.863 149.758C94.4323 187.935 56.5377 243.068 74.2229 272.9C89.0369 297.889 138.151 297.194 191.576 273.873L189.876 133.814C179.624 138.305 169.216 143.623 158.863 149.758Z" fill="url(#paint10_linear)"/>
<path d="M191.573 273.587L189.877 133.832C189.87 133.829 189.863 133.826 189.855 133.823C179.61 138.312 169.21 143.628 158.863 149.758C131.078 166.222 108.235 185.838 92.6484 205.22C108.798 224.134 132.209 243.07 160.467 258.709C170.874 264.469 181.31 269.43 191.573 273.587Z" fill="url(#paint11_linear)"/>
<path d="M241.03 287.654C249.311 264.38 254.074 234.956 253.686 203.013C253.551 191.933 252.804 181.172 251.518 170.878C251.389 169.845 250.798 165.621 250.658 164.598C241.497 157.929 232.856 152.933 222.183 147.026C211.722 141.237 200.118 135.546 189.804 131.375L191.733 273.653C208.987 280.63 225.742 285.318 241.03 287.654Z" fill="url(#paint12_linear)"/>
<path d="M190.714 241.736C212.211 241.736 229.638 224.313 229.638 202.822C229.638 181.33 212.211 163.907 190.714 163.907C169.217 163.907 151.79 181.33 151.79 202.822C151.79 224.313 169.217 241.736 190.714 241.736Z" fill="url(#paint13_linear)"/>
<path d="M192.865 451.454C198.991 450.7 203.346 445.124 202.592 438.999C201.838 432.874 196.26 428.52 190.134 429.273C184.008 430.027 179.652 435.604 180.406 441.729C181.16 447.854 186.738 452.208 192.865 451.454Z" fill="#29ABE2"/>
<path d="M192.698 481.964C195.712 481.301 197.618 478.32 196.954 475.306C196.291 472.293 193.309 470.388 190.295 471.051C187.281 471.715 185.375 474.695 186.039 477.709C186.703 480.722 189.684 482.627 192.698 481.964Z" fill="#29ABE2"/>
<path d="M142.906 289.151C158.053 286.408 174.596 281.286 191.576 273.873L189.876 133.814C179.624 138.305 169.216 143.623 158.863 149.758C148.429 155.941 138.697 162.569 129.778 169.461C128.532 180.658 127.936 192.416 128.083 204.536C128.473 236.621 133.994 266.038 142.906 289.151Z" fill="url(#paint14_linear)"/>
<path d="M190.242 163.91C168.746 164.171 151.532 181.803 151.793 203.294C152.054 224.784 169.691 241.994 191.186 241.733C191.24 241.733 191.292 241.73 191.345 241.729L191.345 241.728C203.595 241.43 213.289 223.948 213.029 202.551C212.77 181.153 202.654 163.913 190.401 163.912L190.401 163.91C190.348 163.91 190.295 163.909 190.242 163.91Z" fill="url(#paint15_linear)"/>
<path d="M198.662 20.7422C200.788 16.7875 199.306 11.8581 195.35 9.73193C191.394 7.60581 186.463 9.08815 184.337 13.0428C182.21 16.9975 183.693 21.9269 187.649 24.0531C191.604 26.1792 196.535 24.6969 198.662 20.7422Z" fill="#29ABE2"/>
<path d="M192.316 273.873H191.15V339.344H192.316V273.873Z" fill="#1B1464"/>
<path d="M191.733 126.558C191.409 126.558 191.147 126.296 191.147 125.972V62.9578C191.147 62.634 191.409 62.3719 191.733 62.3719C192.057 62.3719 192.319 62.634 192.319 62.9578V125.972C192.319 126.296 192.057 126.558 191.733 126.558Z" fill="#29ABE2"/>
<path d="M191.499 410.116C174.598 410.116 160.847 401.869 160.847 391.733C160.847 381.597 174.598 373.351 191.499 373.351C208.401 373.351 222.151 381.597 222.151 391.733C222.151 401.869 208.401 410.116 191.499 410.116ZM191.499 374.516C175.24 374.516 162.013 382.24 162.013 391.733C162.013 401.227 175.24 408.95 191.499 408.95C207.758 408.95 220.986 401.227 220.986 391.733C220.986 382.24 207.758 374.516 191.499 374.516Z" fill="#29ABE2"/>
<path d="M259.621 374.516C259.377 374.516 259.149 374.361 259.068 374.117C258.967 373.811 259.132 373.482 259.438 373.38C277.635 367.353 294.733 358.587 310.255 347.325C325.597 336.196 339.075 322.868 350.316 307.714C373.666 276.234 386.009 238.921 386.009 199.808C386.009 167.937 377.57 136.554 361.605 109.052C361.444 108.773 361.539 108.417 361.817 108.255C362.095 108.094 362.452 108.188 362.614 108.467C378.681 136.146 387.174 167.731 387.174 199.808C387.174 239.172 374.753 276.726 351.252 308.408C339.941 323.658 326.377 337.069 310.94 348.269C295.32 359.6 278.116 368.421 259.804 374.487C259.743 374.507 259.682 374.516 259.621 374.516Z" fill="#29ABE2"/>
<defs>
<linearGradient id="paint0_linear" x1="252.568" y1="80.8492" x2="243.685" y2="402.445" gradientUnits="userSpaceOnUse">
<stop offset="0.06848" stop-color="#E49BBE"/>
<stop offset="0.47833" stop-color="#7F28A2"/>
<stop offset="0.75437" stop-color="#4C33A5"/>
<stop offset="1" stop-color="#223CA7"/>
</linearGradient>
<linearGradient id="paint1_linear" x1="302.561" y1="252.608" x2="148.794" y2="181.194" gradientUnits="userSpaceOnUse">
<stop offset="0.20712" stop-color="white"/>
<stop offset="0.55587" stop-color="#22CDFF"/>
<stop offset="0.97484" stop-color="#9586FF"/>
</linearGradient>
<linearGradient id="paint2_linear" x1="292.894" y1="160.768" x2="198.433" y2="252.396" gradientUnits="userSpaceOnUse">
<stop offset="0.05391" stop-color="white"/>
<stop offset="0.55587" stop-color="#22CDFF"/>
<stop offset="0.97484" stop-color="#9586FF"/>
</linearGradient>
<linearGradient id="paint3_linear" x1="251.562" y1="346.244" x2="233.853" y2="174.522" gradientUnits="userSpaceOnUse">
<stop stop-color="#09E7E7"/>
<stop offset="0.30208" stop-color="#22CDFF"/>
<stop offset="1" stop-color="#966BC6"/>
</linearGradient>
<linearGradient id="paint4_linear" x1="278.038" y1="310.303" x2="123.19" y2="121.043" gradientUnits="userSpaceOnUse">
<stop offset="0.09454" stop-color="#0F63DF"/>
<stop offset="0.27124" stop-color="#1631C0"/>
<stop offset="0.53077" stop-color="#100B69"/>
<stop offset="0.79245" stop-color="#1631C0"/>
<stop offset="1" stop-color="#1665CD"/>
</linearGradient>
<linearGradient id="paint5_linear" x1="114.477" y1="184.425" x2="272.663" y2="214.459" gradientUnits="userSpaceOnUse">
<stop offset="0.05391" stop-color="white"/>
<stop offset="0.55587" stop-color="#22CDFF"/>
<stop offset="0.97484" stop-color="#9586FF"/>
</linearGradient>
<linearGradient id="paint6_linear" x1="167.244" y1="105.052" x2="110.22" y2="267.08" gradientUnits="userSpaceOnUse">
<stop offset="0.05391" stop-color="white"/>
<stop offset="0.55587" stop-color="#22CDFF"/>
<stop offset="0.97484" stop-color="#9586FF"/>
</linearGradient>
<linearGradient id="paint7_linear" x1="296.091" y1="294.99" x2="172.971" y2="144.509" gradientUnits="userSpaceOnUse">
<stop offset="0.37747" stop-color="#100B69"/>
<stop offset="1" stop-color="#720D85"/>
</linearGradient>
<linearGradient id="paint8_linear" x1="57.0135" y1="285.146" x2="201.568" y2="168.122" gradientUnits="userSpaceOnUse">
<stop stop-color="#09E7E7"/>
<stop offset="0.51616" stop-color="#22CDFF"/>
<stop offset="1" stop-color="#9E70D8"/>
</linearGradient>
<linearGradient id="paint9_linear" x1="188.981" y1="197.55" x2="120.453" y2="249.285" gradientUnits="userSpaceOnUse">
<stop offset="0.0077" stop-color="#E49BBE"/>
<stop offset="0.99994" stop-color="white"/>
</linearGradient>
<linearGradient id="paint10_linear" x1="91.6844" y1="180.465" x2="313.392" y2="317.773" gradientUnits="userSpaceOnUse">
<stop offset="0.0077" stop-color="#E49BBE"/>
<stop offset="0.47833" stop-color="#7F28A2"/>
<stop offset="0.75437" stop-color="#4C33A5"/>
<stop offset="1" stop-color="#223CA7"/>
</linearGradient>
<linearGradient id="paint11_linear" x1="111.62" y1="157.178" x2="286.696" y2="265.606" gradientUnits="userSpaceOnUse">
<stop offset="0.02131" stop-color="#BD52BE"/>
<stop offset="0.35143" stop-color="#7F28A2"/>
<stop offset="0.69461" stop-color="#4C33A5"/>
<stop offset="1" stop-color="#223CA7"/>
</linearGradient>
<linearGradient id="paint12_linear" x1="211.01" y1="132.663" x2="227.537" y2="272.355" gradientUnits="userSpaceOnUse">
<stop stop-color="#1631C0"/>
<stop offset="0.43274" stop-color="#100B69"/>
</linearGradient>
<linearGradient id="paint13_linear" x1="186.456" y1="162.606" x2="200.502" y2="295.721" gradientUnits="userSpaceOnUse">
<stop stop-color="#0F63DF"/>
<stop offset="0.20104" stop-color="#1631C0"/>
<stop offset="0.56942" stop-color="#100B69"/>
<stop offset="0.99943" stop-color="#720D85"/>
</linearGradient>
<linearGradient id="paint14_linear" x1="101.265" y1="171.207" x2="257.994" y2="268.272" gradientUnits="userSpaceOnUse">
<stop stop-color="#BD52BE"/>
<stop offset="0.32623" stop-color="#7F28A2"/>
<stop offset="0.68275" stop-color="#4C33A5"/>
<stop offset="1" stop-color="#223CA7"/>
</linearGradient>
<linearGradient id="paint15_linear" x1="160.93" y1="182.798" x2="204.12" y2="217.05" gradientUnits="userSpaceOnUse">
<stop stop-color="white"/>
<stop offset="0.4672" stop-color="#88F4FF"/>
<stop offset="1" stop-color="#00B4FF"/>
</linearGradient>
</defs>
</svg>
