<svg width="981" height="851" viewBox="0 0 981 851" fill="none" xmlns="http://www.w3.org/2000/svg">
<path d="M890.885 404.757L360.307 805.125C261.125 879.776 120.206 859.889 45.5562 760.707L45.5559 760.706C-29.0942 661.524 -9.20729 520.606 89.9746 445.956L620.553 45.5874C719.735 -29.0627 860.654 -9.17579 935.304 90.0061L935.304 90.0064C1009.95 189.188 990.067 330.107 890.885 404.757Z" fill="url(#paint0_linear)"/>
<path d="M279.95 535.761C277.673 535.761 275.425 535.885 273.21 536.12C258.675 512.962 232.916 497.563 203.557 497.563C160.165 497.563 124.631 531.194 121.59 573.811C121.518 573.811 121.447 573.806 121.375 573.806C97.0419 573.806 77.3157 593.532 77.3157 617.866C77.3157 642.199 97.0419 661.925 121.375 661.925H279.95C314.789 661.925 343.032 633.683 343.032 598.843C343.032 564.004 314.789 535.761 279.95 535.761Z" fill="white"/>
<path d="M757.947 212.598C749.877 200.844 737.474 192.818 721.018 188.679C718.667 188.087 716.233 187.575 713.717 187.143C712.73 186.973 711.728 186.819 710.717 186.674C710.384 186.626 710.044 186.586 709.708 186.541C709.023 186.449 708.337 186.36 707.642 186.279C707.237 186.233 706.828 186.192 706.42 186.149C705.781 186.082 705.141 186.017 704.494 185.959C704.056 185.92 703.615 185.884 703.173 185.85C702.541 185.8 701.904 185.754 701.264 185.713C700.811 185.684 700.356 185.656 699.9 185.631C699.251 185.596 698.598 185.567 697.942 185.541C697.488 185.523 697.034 185.503 696.576 185.489C695.884 185.468 695.186 185.456 694.486 185.444C694.055 185.437 693.628 185.426 693.194 185.423C692.353 185.416 691.503 185.42 690.651 185.427C690.35 185.43 690.054 185.427 689.751 185.431C688.619 185.446 687.476 185.474 686.324 185.513C685.875 185.529 685.419 185.552 684.967 185.571C684.238 185.601 683.508 185.632 682.771 185.671C682.236 185.7 681.694 185.736 681.155 185.77C680.491 185.811 679.826 185.853 679.156 185.902C678.582 185.944 678.004 185.991 677.426 186.038C676.778 186.091 676.129 186.146 675.476 186.206C674.877 186.261 674.275 186.318 673.671 186.379C673.029 186.443 672.384 186.512 671.737 186.583C671.118 186.65 670.499 186.718 669.875 186.792C669.232 186.868 668.584 186.95 667.936 187.032C667.3 187.112 666.666 187.191 666.025 187.277C665.374 187.365 664.715 187.462 664.059 187.556C663.416 187.648 662.776 187.736 662.128 187.834C660.902 188.02 659.667 188.216 658.424 188.423C657.705 188.543 656.976 188.674 656.251 188.801C655.647 188.907 655.046 189.009 654.438 189.12C653.697 189.255 652.947 189.399 652.2 189.541C651.6 189.656 651.002 189.769 650.399 189.887C649.637 190.038 648.869 190.194 648.101 190.352C647.507 190.474 646.913 190.597 646.316 190.723C645.533 190.889 644.746 191.059 643.957 191.232C643.369 191.362 642.78 191.494 642.189 191.627C641.381 191.81 640.573 191.994 639.759 192.184C639.192 192.317 638.621 192.454 638.05 192.591C637.203 192.794 636.358 192.996 635.505 193.207C635.01 193.33 634.51 193.459 634.012 193.585C630.689 194.423 627.318 195.325 623.901 196.291C623.569 196.385 623.241 196.475 622.909 196.57C621.937 196.847 620.958 197.135 619.979 197.423C619.478 197.57 618.979 197.715 618.476 197.865C617.531 198.147 616.58 198.437 615.628 198.728C615.09 198.893 614.552 199.057 614.012 199.225C613.063 199.519 612.109 199.82 611.153 200.123C610.61 200.296 610.066 200.471 609.521 200.646C608.553 200.958 607.583 201.273 606.609 201.594C606.083 201.768 605.554 201.945 605.026 202.121C604.022 202.456 603.018 202.793 602.007 203.138C601.549 203.294 601.088 203.455 600.628 203.613C599.536 203.99 598.445 204.366 597.345 204.754C597.344 204.755 597.343 204.755 597.341 204.756C590.854 207.044 584.234 209.529 577.486 212.216C521.612 234.469 461.132 268.741 402.585 311.325C328.495 365.216 265.866 426.348 226.235 483.461C184.753 543.239 173.183 592.581 193.657 622.398L209.575 611.468C194.195 589.066 206.05 546.422 242.1 494.47C280.53 439.089 341.559 379.593 413.944 326.942C471.208 285.29 530.231 251.823 584.631 230.157C592.145 227.165 599.506 224.436 606.701 221.959C607.972 221.521 609.236 221.093 610.496 220.672C610.587 220.641 610.679 220.611 610.77 220.581C612.018 220.164 613.261 219.755 614.498 219.355C614.54 219.341 614.581 219.328 614.622 219.315C620.981 217.259 627.192 215.416 633.239 213.788C633.367 213.754 633.495 213.719 633.622 213.684C634.71 213.393 635.792 213.109 636.869 212.832C637.069 212.78 637.268 212.729 637.468 212.678C638.523 212.408 639.575 212.144 640.619 211.887C640.799 211.843 640.978 211.8 641.157 211.756C645.682 210.654 650.103 209.68 654.415 208.834C654.6 208.798 654.787 208.76 654.972 208.724C655.855 208.552 656.731 208.39 657.605 208.23C657.952 208.166 658.299 208.102 658.645 208.04C659.457 207.894 660.264 207.754 661.067 207.618C661.464 207.551 661.86 207.486 662.255 207.421C663.032 207.293 663.807 207.168 664.576 207.05C664.978 206.988 665.376 206.93 665.775 206.87C666.538 206.757 667.3 206.643 668.054 206.539C668.413 206.489 668.767 206.445 669.123 206.398C670.687 206.189 672.233 205.999 673.759 205.83C674.035 205.8 674.314 205.765 674.588 205.736C675.218 205.668 675.838 205.611 676.462 205.55C676.969 205.501 677.477 205.45 677.979 205.406C678.562 205.354 679.139 205.309 679.717 205.263C680.25 205.221 680.783 205.18 681.312 205.143C681.865 205.104 682.415 205.069 682.962 205.036C683.512 205.003 684.059 204.973 684.603 204.945C685.122 204.919 685.64 204.894 686.153 204.873C686.74 204.849 687.321 204.831 687.901 204.814C688.363 204.801 688.828 204.785 689.285 204.775C690.035 204.76 690.775 204.755 691.512 204.751C691.842 204.75 692.176 204.745 692.504 204.746C693.444 204.748 694.375 204.76 695.295 204.782C695.658 204.791 696.013 204.806 696.372 204.818C697.006 204.838 697.639 204.86 698.264 204.89C698.652 204.908 699.035 204.932 699.42 204.954C700.008 204.988 700.593 205.025 701.172 205.067C701.556 205.096 701.938 205.126 702.317 205.158C702.897 205.207 703.471 205.26 704.041 205.318C704.398 205.354 704.757 205.389 705.111 205.429C705.727 205.498 706.335 205.574 706.94 205.654C707.232 205.692 707.529 205.727 707.819 205.768C708.707 205.893 709.585 206.027 710.447 206.175C722.467 208.24 731.736 212.482 738.093 218.813C739.561 220.274 740.873 221.846 742.028 223.529C757.409 245.93 745.553 288.574 709.503 340.526C684.314 376.825 649.415 414.892 607.974 451.641V477.224C656.19 436.056 696.769 392.749 725.368 351.535C766.85 291.758 778.42 242.416 757.947 212.598Z" fill="url(#paint1_linear)"/>
<path d="M361.662 778.521H395.563L607.975 618.238V232.027C607.975 209.761 589.758 191.544 567.493 191.544H361.662C339.397 191.544 321.18 209.761 321.18 232.027V738.039C321.18 760.305 339.397 778.521 361.662 778.521Z" fill="url(#paint2_linear)"/>
<path d="M626.632 574.384H483.158C472.947 574.384 464.592 566.029 464.592 555.817V430.292C464.592 420.08 472.947 411.725 483.158 411.725H626.632C636.844 411.725 645.199 420.08 645.199 430.292V555.817C645.199 566.029 636.844 574.384 626.632 574.384Z" fill="url(#paint3_linear)"/>
<path d="M505.178 466.615L502.839 472.378C502.569 473.034 502.359 473.683 502.213 474.327C502.065 474.971 501.992 475.598 501.992 476.208C501.992 477.61 502.405 478.649 503.229 479.327C504.054 480.005 505.313 480.344 507.008 480.344H508.874V484.039H489.857V480.378C491.687 480.288 493.24 479.644 494.517 478.446C495.794 477.248 497.087 475.18 498.398 472.242L515.314 434.04H524.907L540.534 474.242C541.37 476.367 542.325 477.886 543.398 478.802C544.472 479.717 545.902 480.231 547.686 480.344V484.039H521.653V480.378C524.477 480.288 526.375 480.034 527.348 479.615C528.319 479.197 528.805 478.469 528.805 477.429C528.805 477.135 528.715 476.689 528.534 476.09C528.353 475.492 528.026 474.559 527.551 473.293L525.043 466.615H505.178ZM507.008 462.582H523.449L515.687 442.514L507.008 462.582Z" fill="#130018"/>
<path d="M604.615 505.815H496.874C495.305 505.815 494.034 504.544 494.034 502.975C494.034 501.407 495.305 500.135 496.874 500.135H604.615C606.184 500.135 607.455 501.407 607.455 502.975C607.455 504.544 606.184 505.815 604.615 505.815Z" fill="#130018"/>
<path d="M604.615 524.962H496.873C495.305 524.962 494.033 523.691 494.033 522.122C494.033 520.554 495.305 519.283 496.873 519.283H604.615C606.183 519.283 607.455 520.554 607.455 522.122C607.455 523.691 606.183 524.962 604.615 524.962Z" fill="#130018"/>
<path d="M526.785 543.771H496.873C495.305 543.771 494.033 542.5 494.033 540.931C494.033 539.363 495.305 538.091 496.873 538.091H526.785C528.353 538.091 529.624 539.363 529.624 540.931C529.624 542.5 528.353 543.771 526.785 543.771Z" fill="#130018"/>
<path d="M463.874 228.586C468.309 228.586 471.904 224.991 471.904 220.556C471.904 216.121 468.309 212.525 463.874 212.525C459.439 212.525 455.843 216.121 455.843 220.556C455.843 224.991 459.439 228.586 463.874 228.586Z" fill="#662D91"/>
<path d="M486.723 224.948C489.149 224.948 491.115 222.982 491.115 220.556C491.115 218.13 489.149 216.163 486.723 216.163C484.297 216.163 482.33 218.13 482.33 220.556C482.33 222.982 484.297 224.948 486.723 224.948Z" fill="#332D33"/>
<path d="M360.307 805.126L438.109 746.417V622.585C438.109 605.404 424.052 591.348 406.872 591.348H166.469C149.401 591.348 135.436 605.313 135.436 622.381V820.114C135.436 824.634 136.417 828.934 138.164 832.822C209.411 862.639 294.143 854.924 360.307 805.126Z" fill="url(#paint4_linear)"/>
<path d="M399.405 727.08H175.355C167.858 727.08 161.724 720.946 161.724 713.449V664.99C161.724 657.493 167.858 651.359 175.355 651.359H399.405C406.902 651.359 413.036 657.493 413.036 664.99V713.449C413.036 720.946 406.902 727.08 399.405 727.08Z" fill="white"/>
<path d="M480.451 786.818H256.402C248.905 786.818 242.771 780.684 242.771 773.186V724.728C242.771 717.231 248.905 711.097 256.402 711.097H480.451C487.949 711.097 494.083 717.231 494.083 724.728V773.186C494.083 780.684 487.949 786.818 480.451 786.818Z" fill="url(#paint5_linear)"/>
<path d="M308.218 633.052H262.601C260.028 633.052 257.923 630.946 257.923 628.373V628.373C257.923 625.8 260.028 623.695 262.601 623.695H308.218C310.791 623.695 312.897 625.8 312.897 628.373V628.373C312.897 630.946 310.791 633.052 308.218 633.052Z" fill="black"/>
<path d="M324.575 633.052C322.002 633.052 319.897 630.946 319.897 628.373C319.897 625.8 322.002 623.695 324.575 623.695C327.149 623.695 329.254 625.8 329.254 628.373C329.254 630.946 327.149 633.052 324.575 633.052Z" fill="white"/>
<path d="M341.443 633.052C338.87 633.052 336.765 630.946 336.765 628.373C336.765 625.8 338.87 623.695 341.443 623.695C344.017 623.695 346.122 625.8 346.122 628.373C346.122 630.946 344.017 633.052 341.443 633.052Z" fill="#22BB8B"/>
<path d="M200.263 713.251C213.495 713.251 224.221 702.491 224.221 689.219C224.221 675.947 213.495 665.188 200.263 665.188C187.031 665.188 176.305 675.947 176.305 689.219C176.305 702.491 187.031 713.251 200.263 713.251Z" fill="#BDBFCF"/>
<path d="M383.579 676.256H242.771C241.202 676.256 239.931 674.985 239.931 673.417C239.931 671.848 241.202 670.577 242.771 670.577H383.579C385.147 670.577 386.419 671.848 386.419 673.417C386.419 674.985 385.147 676.256 383.579 676.256Z" fill="#BDBFCF"/>
<path d="M312.896 694.469H242.77C241.202 694.469 239.93 693.197 239.93 691.629C239.93 690.06 241.202 688.789 242.77 688.789H312.896C314.465 688.789 315.736 690.06 315.736 691.629C315.736 693.197 314.465 694.469 312.896 694.469Z" fill="#BDBFCF"/>
<path d="M284.006 772.988C297.238 772.988 307.964 762.229 307.964 748.957C307.964 735.685 297.238 724.926 284.006 724.926C270.774 724.926 260.048 735.685 260.048 748.957C260.048 762.229 270.774 772.988 284.006 772.988Z" fill="white"/>
<path d="M467.323 743.435H326.515C324.946 743.435 323.675 742.163 323.675 740.595C323.675 739.026 324.946 737.755 326.515 737.755H467.323C468.891 737.755 470.163 739.026 470.163 740.595C470.163 742.163 468.891 743.435 467.323 743.435Z" fill="white"/>
<path d="M365.605 761.553H326.515C324.946 761.553 323.675 760.282 323.675 758.713C323.675 757.144 324.946 755.873 326.515 755.873H365.605C367.174 755.873 368.445 757.144 368.445 758.713C368.445 760.282 367.174 761.553 365.605 761.553Z" fill="white"/>
<path d="M549.84 186.03C549.783 185.811 549.726 185.593 549.669 185.374C549.243 183.742 548.814 182.117 548.378 180.507C548.194 179.826 548.007 179.152 547.821 178.475C547.488 177.262 547.156 176.045 546.818 174.846C546.265 172.884 545.706 170.938 545.139 169.013C523.716 96.3762 494.883 57.9824 461.753 57.9824C428.623 57.9824 399.789 96.3762 378.367 169.013C376.226 176.272 374.195 183.799 372.262 191.545H392.183C393.692 185.712 395.257 180.011 396.889 174.476C414.836 113.623 439.084 77.2933 461.753 77.2933C484.422 77.2933 508.669 113.623 526.617 174.476C527.389 177.095 528.144 179.757 528.887 182.447C528.991 182.821 529.093 183.199 529.197 183.575C529.916 186.2 530.626 188.85 531.32 191.534C547.878 255.539 556.925 336.886 556.925 423.08C556.925 517.123 546.161 605.412 526.617 671.684C525.573 675.223 524.506 678.67 523.421 682.041L549.197 662.591C566.674 596.527 576.236 512.237 576.236 423.08C576.236 335.024 566.907 251.721 549.84 186.03Z" fill="url(#paint6_linear)"/>
<path d="M724.307 487.535C695.311 448.253 655.227 407.148 607.974 367.856V393.145C648.655 428.204 683.207 464.373 708.77 499.003C747.289 551.188 760.834 594.134 745.93 616.83C740.137 625.651 729.916 631.532 715.551 634.308C714.673 634.478 713.779 634.633 712.874 634.779C712.597 634.824 712.312 634.862 712.032 634.905C711.397 635.001 710.759 635.095 710.11 635.179C709.771 635.224 709.427 635.263 709.084 635.304C708.478 635.377 707.869 635.446 707.252 635.509C706.888 635.546 706.521 635.581 706.153 635.615C705.539 635.671 704.918 635.723 704.293 635.769C703.923 635.797 703.552 635.825 703.179 635.849C702.523 635.892 701.86 635.928 701.193 635.96C700.843 635.978 700.495 635.997 700.142 636.011C699.372 636.043 698.592 636.064 697.807 636.082C697.549 636.088 697.296 636.098 697.036 636.102C695.987 636.12 694.925 636.127 693.851 636.122C693.641 636.121 693.425 636.115 693.214 636.113C692.353 636.105 691.486 636.092 690.608 636.069C690.213 636.058 689.812 636.042 689.414 636.029C688.709 636.005 688.002 635.98 687.287 635.946C686.832 635.925 686.373 635.9 685.913 635.875C685.246 635.839 684.576 635.8 683.9 635.755C683.408 635.723 682.913 635.689 682.417 635.652C681.76 635.604 681.099 635.551 680.435 635.495C679.921 635.452 679.408 635.41 678.891 635.362C678.221 635.301 677.544 635.232 676.867 635.163C676.351 635.111 675.838 635.061 675.318 635.004C674.575 634.923 673.823 634.833 673.071 634.743C672.56 634.681 672.052 634.624 671.536 634.559C670.431 634.419 669.318 634.27 668.196 634.112C667.58 634.025 666.955 633.928 666.333 633.836C665.717 633.744 665.103 633.654 664.481 633.557C663.81 633.452 663.133 633.34 662.456 633.228C661.878 633.133 661.302 633.038 660.72 632.939C660.012 632.817 659.3 632.691 658.586 632.563C658.031 632.463 657.474 632.362 656.915 632.258C656.172 632.12 655.427 631.979 654.677 631.834C654.151 631.732 653.622 631.626 653.093 631.521C652.303 631.364 651.513 631.206 650.717 631.04C650.263 630.946 649.806 630.847 649.35 630.75C648.47 630.563 647.591 630.377 646.703 630.181C646.646 630.168 646.588 630.155 646.531 630.142C644.115 629.606 641.669 629.035 639.193 628.429C639.156 628.42 639.119 628.411 639.082 628.402C638.067 628.153 637.043 627.894 636.017 627.633C635.67 627.544 635.324 627.458 634.975 627.368C634.003 627.118 633.024 626.86 632.044 626.599C631.641 626.492 631.24 626.385 630.836 626.276C629.857 626.012 628.873 625.743 627.885 625.468C627.493 625.36 627.101 625.249 626.707 625.139C625.691 624.853 624.672 624.564 623.648 624.267C623.313 624.171 622.977 624.071 622.641 623.974C621.544 623.653 620.444 623.33 619.337 622.997C619.23 622.964 619.123 622.931 619.016 622.899C615.046 621.701 611.017 620.426 606.932 619.07C600.186 616.831 593.293 614.383 586.263 611.718C529.761 590.295 468.074 556.833 407.87 514.95C376.775 493.318 347.607 470.498 321.177 447.258C318.935 445.287 316.716 443.312 314.514 441.335C314.19 441.044 313.869 440.753 313.546 440.462C311.64 438.746 309.749 437.028 307.875 435.308C307.485 434.95 307.096 434.593 306.707 434.235C304.838 432.514 302.986 430.792 301.149 429.068C300.835 428.774 300.519 428.48 300.207 428.186C293.732 422.092 287.457 415.982 281.399 409.872C281.074 409.544 280.754 409.216 280.43 408.888C278.802 407.241 277.189 405.593 275.593 403.945C275.104 403.44 274.619 402.935 274.133 402.43C272.694 400.935 271.268 399.44 269.856 397.946C269.342 397.402 268.827 396.858 268.317 396.315C266.895 394.801 265.491 393.288 264.098 391.776C263.652 391.292 263.201 390.807 262.758 390.323C261.072 388.481 259.406 386.64 257.762 384.801C257.644 384.669 257.523 384.537 257.405 384.405C255.616 382.4 253.855 380.397 252.118 378.396C251.768 377.993 251.429 377.592 251.082 377.19C249.753 375.651 248.437 374.114 247.139 372.578C246.581 371.917 246.032 371.257 245.48 370.597C244.404 369.311 243.337 368.027 242.284 366.744C241.686 366.016 241.093 365.288 240.502 364.56C239.5 363.326 238.51 362.093 237.529 360.861C236.951 360.136 236.372 359.41 235.801 358.685C234.78 357.388 233.777 356.094 232.779 354.801C232.288 354.164 231.79 353.526 231.305 352.891C229.9 351.048 228.516 349.209 227.16 347.375C227.109 347.306 227.056 347.237 227.005 347.169C201.727 312.923 187.204 282.655 184.419 259.479C182.96 247.339 184.722 237.144 189.845 229.343C195.639 220.522 205.859 214.641 220.224 211.864C226.515 210.648 233.52 210.047 241.174 210.047C263.328 210.047 290.872 215.109 321.834 224.849C323.029 218.243 325.838 212.185 329.838 207.097C283.784 192.317 244.98 187.41 216.559 192.904C196.884 196.708 182.466 205.401 173.704 218.742C169.354 225.366 166.598 232.919 165.408 241.304C164.899 244.897 164.677 248.643 164.741 252.535C164.763 253.833 164.816 255.146 164.9 256.475C166.682 284.391 182.437 319.307 211.468 358.637C211.547 358.744 211.631 358.851 211.71 358.958C213.183 360.95 214.69 362.947 216.219 364.947C216.746 365.636 217.283 366.327 217.816 367.017C218.967 368.507 220.133 369.998 221.315 371.492C221.879 372.205 222.442 372.917 223.012 373.63C224.411 375.38 225.831 377.131 227.271 378.886C227.591 379.276 227.903 379.665 228.225 380.055C229.979 382.18 231.767 384.308 233.579 386.439C234.095 387.046 234.621 387.653 235.142 388.26C236.503 389.848 237.879 391.437 239.273 393.027C239.876 393.716 240.481 394.405 241.09 395.094C242.595 396.796 244.119 398.499 245.659 400.203C246.084 400.674 246.502 401.144 246.93 401.615C248.909 403.792 250.916 405.97 252.951 408.15C253.356 408.583 253.77 409.017 254.177 409.451C255.836 411.218 257.513 412.986 259.208 414.755C259.808 415.38 260.411 416.005 261.014 416.63C262.671 418.345 264.345 420.06 266.034 421.775C266.52 422.268 267 422.76 267.488 423.253C269.694 425.48 271.924 427.706 274.184 429.931C274.311 430.056 274.441 430.18 274.568 430.305C276.671 432.372 278.801 434.438 280.95 436.503C281.512 437.044 282.079 437.584 282.644 438.124C284.481 439.879 286.335 441.633 288.204 443.386C288.723 443.872 289.24 444.359 289.761 444.845C294.522 449.285 299.383 453.715 304.342 458.131C304.838 458.572 305.338 459.013 305.836 459.454C307.867 461.254 309.914 463.052 311.977 464.847C312.528 465.327 313.079 465.807 313.632 466.287C316.113 468.435 318.609 470.579 321.133 472.718C321.149 472.731 321.164 472.744 321.179 472.758V472.757C344.694 492.68 370.08 512.185 396.842 530.802C458.325 573.575 521.458 607.799 579.417 629.775C589.499 633.597 599.277 636.977 608.758 639.955C609.549 640.203 610.349 640.464 611.135 640.706C612.689 641.186 614.223 641.637 615.76 642.094C616.729 642.381 617.705 642.678 618.667 642.956C620.106 643.373 621.526 643.766 622.949 644.161C623.99 644.451 625.034 644.745 626.065 645.024C627.422 645.389 628.763 645.736 630.104 646.083C631.182 646.361 632.259 646.641 633.327 646.907C634.617 647.229 635.895 647.535 637.171 647.838C638.267 648.099 639.362 648.358 640.447 648.606C641.678 648.887 642.899 649.155 644.116 649.419C645.226 649.659 646.331 649.894 647.429 650.12C648.602 650.362 649.77 650.595 650.93 650.82C652.05 651.038 653.163 651.246 654.27 651.448C655.386 651.652 656.498 651.851 657.6 652.039C658.731 652.232 659.85 652.412 660.967 652.589C662.026 652.757 663.084 652.923 664.131 653.076C665.27 653.242 666.396 653.392 667.521 653.541C668.519 653.673 669.52 653.809 670.506 653.927C671.667 654.066 672.81 654.185 673.954 654.306C674.879 654.403 675.809 654.507 676.723 654.591C677.926 654.703 679.107 654.79 680.29 654.88C681.121 654.942 681.961 655.016 682.782 655.069C684.092 655.152 685.376 655.206 686.661 655.262C687.331 655.292 688.013 655.335 688.676 655.357C690.611 655.42 692.521 655.455 694.397 655.455C703.363 655.455 711.659 654.729 719.216 653.268C738.891 649.465 753.309 640.772 762.071 627.43C781.956 597.149 768.545 547.467 724.307 487.535Z" fill="url(#paint7_linear)"/>
<path d="M682.968 233.507C703.826 233.507 720.735 216.547 720.735 195.624C720.735 174.702 703.826 157.741 682.968 157.741C662.109 157.741 645.2 174.702 645.2 195.624C645.2 216.547 662.109 233.507 682.968 233.507Z" fill="#00BFFF"/>
<path d="M695.609 187.375H670.324C669.384 187.375 668.62 186.612 668.62 185.671C668.62 184.73 669.384 183.967 670.324 183.967H695.609C696.55 183.967 697.313 184.73 697.313 185.671C697.313 186.612 696.55 187.375 695.609 187.375Z" fill="white"/>
<path d="M695.609 197.328H670.325C669.384 197.328 668.621 196.566 668.621 195.624C668.621 194.683 669.384 193.92 670.325 193.92H695.609C696.55 193.92 697.313 194.683 697.313 195.624C697.313 196.566 696.55 197.328 695.609 197.328Z" fill="white"/>
<path d="M695.609 207.282H670.325C669.384 207.282 668.621 206.519 668.621 205.578C668.621 204.636 669.384 203.874 670.325 203.874H695.609C696.55 203.874 697.313 204.636 697.313 205.578C697.313 206.519 696.55 207.282 695.609 207.282Z" fill="white"/>
<path d="M745.473 390.375H391.349C372.515 390.375 357.104 374.965 357.104 356.131V356.131C357.104 337.296 372.515 321.886 391.349 321.886H745.473C764.308 321.886 779.718 337.296 779.718 356.131V356.131C779.718 374.965 764.308 390.375 745.473 390.375Z" fill="white"/>
<path d="M413.986 368.609L407.658 362.281C409.235 359.89 410.161 357.032 410.161 353.96C410.161 345.603 403.363 338.805 395.006 338.805C386.65 338.805 379.851 345.603 379.851 353.96C379.851 362.316 386.65 369.115 395.006 369.115C398.241 369.115 401.236 368.087 403.699 366.354L409.97 372.625C410.524 373.18 411.251 373.457 411.978 373.457C412.704 373.457 413.431 373.18 413.986 372.626C415.095 371.516 415.095 369.719 413.986 368.609ZM395.006 363.435C389.781 363.435 385.531 359.185 385.531 353.96C385.531 348.735 389.781 344.485 395.006 344.485C400.231 344.485 404.481 348.735 404.481 353.96C404.481 359.185 400.231 363.435 395.006 363.435Z" fill="#0E64BC"/>
<path d="M390.108 563.561C417.985 563.561 440.584 540.893 440.584 512.931C440.584 484.969 417.985 462.301 390.108 462.301C362.231 462.301 339.632 484.969 339.632 512.931C339.632 540.893 362.231 563.561 390.108 563.561Z" fill="#22BB8B"/>
<path d="M385.871 528.341C384.515 528.341 383.215 527.803 382.257 526.844L369.077 513.664C367.08 511.667 367.08 508.431 369.077 506.434C371.071 504.439 374.311 504.439 376.305 506.434L385.871 516.001L406.389 495.483C408.383 493.488 411.622 493.488 413.617 495.483C415.614 497.48 415.614 500.717 413.617 502.713L389.485 526.844C388.526 527.803 387.226 528.341 385.871 528.341Z" fill="white"/>
<defs>
<linearGradient id="paint0_linear" x1="21.5534" y1="744.524" x2="808.648" y2="208.743" gradientUnits="userSpaceOnUse">
<stop stop-color="#00E7CB"/>
<stop offset="0.42438" stop-color="#00BFFF"/>
<stop offset="1" stop-color="#6820B5"/>
</linearGradient>
<linearGradient id="paint1_linear" x1="1002.02" y1="61.7132" x2="213.047" y2="589.184" gradientUnits="userSpaceOnUse">
<stop stop-color="#00E7CB"/>
<stop offset="0.42638" stop-color="#00BFFF"/>
<stop offset="0.80952" stop-color="#345ACC"/>
</linearGradient>
<linearGradient id="paint2_linear" x1="597.672" y1="276.574" x2="139.215" y2="760.643" gradientUnits="userSpaceOnUse">
<stop/>
<stop offset="1" stop-color="#6820B5"/>
</linearGradient>
<linearGradient id="paint3_linear" x1="621.674" y1="493.055" x2="579.82" y2="493.055" gradientUnits="userSpaceOnUse">
<stop stop-color="#2B5CAD"/>
<stop offset="1" stop-color="#4E4B85"/>
</linearGradient>
<linearGradient id="paint4_linear" x1="236.654" y1="720.83" x2="370.633" y2="720.83" gradientUnits="userSpaceOnUse">
<stop stop-color="#849AB7"/>
<stop offset="1" stop-color="#6E609A"/>
</linearGradient>
<linearGradient id="paint5_linear" x1="327.762" y1="696.959" x2="440.853" y2="841.567" gradientUnits="userSpaceOnUse">
<stop stop-color="#ACB9D6"/>
<stop offset="1" stop-color="#E6E6E6"/>
</linearGradient>
<linearGradient id="paint6_linear" x1="627.333" y1="257.729" x2="356.474" y2="471.938" gradientUnits="userSpaceOnUse">
<stop stop-color="#00E7CB"/>
<stop offset="0.34711" stop-color="#00BFFF"/>
<stop offset="1" stop-color="#6820B5"/>
</linearGradient>
<linearGradient id="paint7_linear" x1="700.233" y1="670.703" x2="225.17" y2="164.408" gradientUnits="userSpaceOnUse">
<stop stop-color="#00E7CB"/>
<stop offset="0.42438" stop-color="#00BFFF"/>
<stop offset="1" stop-color="#6820B5"/>
</linearGradient>
</defs>
</svg>
