<svg width="401" height="446" viewBox="0 0 401 446" fill="none" xmlns="http://www.w3.org/2000/svg">
<path fill-rule="evenodd" clip-rule="evenodd" d="M200.163 216.301C200.133 216.352 200.111 216.406 200.098 216.461C200.058 216.5 200.024 216.544 199.995 216.595C199.825 216.889 199.925 217.265 200.22 217.435L202.529 218.768C202.626 218.824 202.731 218.851 202.836 218.851C203.048 218.851 203.255 218.74 203.369 218.543C203.399 218.491 203.42 218.437 203.434 218.382C203.473 218.344 203.508 218.299 203.537 218.249C203.707 217.955 203.606 217.578 203.312 217.409L201.003 216.076C200.709 215.905 200.332 216.006 200.163 216.301ZM379.054 320.402C379.151 320.458 379.256 320.485 379.361 320.485C379.573 320.485 379.78 320.374 379.894 320.177C379.924 320.126 379.945 320.071 379.959 320.016C379.998 319.978 380.033 319.933 380.062 319.883C380.232 319.589 380.131 319.213 379.837 319.043L375.248 316.394C374.955 316.224 374.578 316.324 374.408 316.619C374.378 316.67 374.356 316.725 374.343 316.78C374.304 316.818 374.269 316.863 374.24 316.913C374.07 317.207 374.171 317.583 374.465 317.753L379.054 320.402ZM368.817 314.492C368.914 314.548 369.02 314.575 369.124 314.575C369.337 314.575 369.544 314.464 369.657 314.267C369.687 314.215 369.709 314.161 369.722 314.106C369.762 314.068 369.797 314.023 369.825 313.973C369.995 313.679 369.895 313.303 369.6 313.133L365.011 310.483C364.718 310.313 364.341 310.414 364.171 310.708C364.141 310.76 364.12 310.814 364.106 310.869C364.067 310.908 364.032 310.952 364.003 311.002C363.833 311.297 363.934 311.673 364.228 311.843L368.817 314.492ZM358.58 308.582C358.677 308.638 358.783 308.664 358.888 308.664C359.1 308.664 359.307 308.554 359.421 308.357C359.451 308.305 359.472 308.251 359.486 308.196C359.525 308.157 359.56 308.113 359.589 308.063C359.759 307.769 359.658 307.392 359.364 307.223L354.774 304.573C354.481 304.403 354.103 304.504 353.934 304.798C353.904 304.85 353.883 304.904 353.869 304.959C353.83 304.998 353.795 305.042 353.766 305.092C353.596 305.386 353.697 305.763 353.991 305.932L358.58 308.582ZM348.343 302.672C348.44 302.728 348.546 302.754 348.65 302.754C348.863 302.754 349.07 302.644 349.184 302.447C349.213 302.395 349.235 302.341 349.248 302.286C349.288 302.247 349.323 302.203 349.352 302.153C349.521 301.858 349.421 301.482 349.126 301.312L344.538 298.663C344.244 298.493 343.867 298.594 343.697 298.888C343.667 298.94 343.646 298.994 343.632 299.049C343.593 299.088 343.558 299.132 343.529 299.182C343.359 299.476 343.46 299.853 343.754 300.022L348.343 302.672ZM338.107 296.762C338.203 296.818 338.309 296.844 338.414 296.844C338.626 296.844 338.833 296.734 338.947 296.537C338.977 296.485 338.998 296.431 339.012 296.376C339.051 296.337 339.086 296.293 339.115 296.243C339.285 295.948 339.184 295.572 338.89 295.402L334.301 292.753C334.007 292.583 333.63 292.683 333.461 292.978C333.431 293.029 333.409 293.084 333.396 293.139C333.356 293.177 333.321 293.222 333.293 293.272C333.123 293.566 333.223 293.942 333.518 294.112L338.107 296.762ZM327.87 290.851C327.967 290.908 328.073 290.934 328.177 290.934C328.389 290.934 328.596 290.824 328.71 290.626C328.74 290.575 328.762 290.52 328.775 290.465C328.814 290.427 328.849 290.382 328.878 290.332C329.048 290.038 328.947 289.662 328.653 289.492L324.064 286.842C323.771 286.673 323.394 286.773 323.224 287.068C323.194 287.119 323.173 287.173 323.159 287.229C323.12 287.267 323.085 287.311 323.056 287.362C322.886 287.656 322.987 288.032 323.281 288.202L327.87 290.851ZM317.633 284.941C317.73 284.997 317.836 285.024 317.94 285.024C318.153 285.024 318.36 284.913 318.474 284.716C318.503 284.664 318.525 284.61 318.538 284.555C318.578 284.517 318.613 284.472 318.642 284.422C318.811 284.128 318.711 283.752 318.416 283.582L313.828 280.932C313.534 280.762 313.157 280.863 312.987 281.158C312.957 281.209 312.936 281.263 312.922 281.318C312.883 281.357 312.848 281.401 312.819 281.451C312.649 281.746 312.75 282.122 313.044 282.292L317.633 284.941ZM307.396 279.031C307.493 279.087 307.599 279.114 307.704 279.114C307.916 279.114 308.123 279.003 308.237 278.806C308.267 278.754 308.288 278.7 308.302 278.645C308.341 278.606 308.376 278.562 308.405 278.512C308.575 278.218 308.474 277.841 308.18 277.672L303.591 275.022C303.297 274.852 302.92 274.953 302.751 275.247C302.721 275.299 302.699 275.353 302.686 275.408C302.646 275.447 302.611 275.491 302.583 275.541C302.413 275.835 302.513 276.212 302.808 276.382L307.396 279.031ZM297.16 273.121C297.257 273.177 297.362 273.204 297.467 273.204C297.679 273.204 297.886 273.093 298 272.896C298.03 272.844 298.051 272.79 298.065 272.735C298.104 272.696 298.139 272.652 298.168 272.602C298.338 272.308 298.237 271.931 297.943 271.761L293.354 269.112C293.06 268.942 292.683 269.043 292.513 269.337C292.484 269.389 292.462 269.443 292.449 269.498C292.409 269.536 292.374 269.581 292.345 269.631C292.176 269.925 292.276 270.302 292.571 270.471L297.16 273.121ZM286.923 267.211C287.02 267.267 287.125 267.293 287.23 267.293C287.442 267.293 287.649 267.183 287.763 266.985C287.793 266.934 287.814 266.88 287.828 266.824C287.867 266.786 287.902 266.742 287.931 266.692C288.101 266.397 288 266.021 287.706 265.851L283.117 263.202C282.823 263.032 282.447 263.133 282.277 263.427C282.247 263.479 282.225 263.533 282.212 263.588C282.172 263.626 282.138 263.671 282.109 263.721C281.939 264.015 282.039 264.391 282.334 264.561L286.923 267.211ZM276.686 261.301C276.783 261.357 276.889 261.383 276.993 261.383C277.205 261.383 277.413 261.273 277.526 261.075C277.556 261.024 277.578 260.97 277.591 260.914C277.631 260.876 277.665 260.831 277.694 260.781C277.864 260.487 277.764 260.111 277.469 259.941L272.88 257.292C272.586 257.122 272.21 257.222 272.04 257.517C272.01 257.568 271.989 257.623 271.975 257.678C271.936 257.716 271.901 257.761 271.872 257.811C271.702 258.105 271.803 258.481 272.097 258.651L276.686 261.301ZM266.449 255.39C266.546 255.446 266.652 255.473 266.756 255.473C266.969 255.473 267.176 255.363 267.29 255.165C267.319 255.114 267.341 255.059 267.354 255.004C267.394 254.966 267.429 254.921 267.458 254.871C267.627 254.577 267.527 254.201 267.232 254.031L262.644 251.381C262.35 251.211 261.973 251.312 261.803 251.606C261.774 251.658 261.752 251.712 261.738 251.767C261.699 251.806 261.664 251.85 261.635 251.9C261.465 252.195 261.566 252.571 261.86 252.741L266.449 255.39ZM256.213 249.48C256.309 249.536 256.415 249.563 256.52 249.563C256.732 249.563 256.939 249.452 257.053 249.255C257.083 249.203 257.104 249.149 257.118 249.094C257.157 249.055 257.192 249.011 257.221 248.961C257.391 248.667 257.29 248.29 256.996 248.121L252.407 245.471C252.113 245.301 251.736 245.402 251.567 245.696C251.537 245.748 251.515 245.802 251.502 245.857C251.462 245.896 251.427 245.94 251.399 245.99C251.229 246.285 251.329 246.661 251.624 246.831L256.213 249.48ZM245.976 243.57C246.073 243.626 246.179 243.653 246.283 243.653C246.495 243.653 246.702 243.542 246.816 243.345C246.846 243.293 246.868 243.239 246.881 243.184C246.921 243.145 246.955 243.101 246.984 243.051C247.154 242.757 247.053 242.38 246.759 242.211L242.17 239.561C241.876 239.391 241.5 239.491 241.33 239.786C241.3 239.838 241.279 239.892 241.265 239.947C241.226 239.985 241.191 240.03 241.162 240.08C240.992 240.374 241.093 240.751 241.387 240.92L245.976 243.57ZM235.739 237.66C235.836 237.716 235.942 237.742 236.046 237.742C236.259 237.742 236.466 237.632 236.58 237.435C236.609 237.383 236.631 237.329 236.644 237.274C236.684 237.235 236.719 237.191 236.748 237.141C236.917 236.846 236.817 236.47 236.522 236.3L231.933 233.651C231.639 233.481 231.263 233.581 231.093 233.876C231.063 233.928 231.042 233.982 231.028 234.037C230.989 234.075 230.954 234.12 230.925 234.17C230.755 234.464 230.856 234.84 231.15 235.01L235.739 237.66ZM225.502 231.749C225.599 231.806 225.705 231.832 225.809 231.832C226.022 231.832 226.229 231.722 226.342 231.524C226.372 231.473 226.394 231.418 226.407 231.363C226.447 231.325 226.482 231.28 226.51 231.23C226.68 230.936 226.58 230.56 226.285 230.39L221.696 227.741C221.402 227.571 221.026 227.671 220.856 227.966C220.826 228.017 220.805 228.072 220.791 228.127C220.752 228.165 220.717 228.21 220.688 228.26C220.518 228.554 220.619 228.93 220.913 229.1L225.502 231.749ZM215.265 225.839C215.362 225.895 215.468 225.922 215.573 225.922C215.785 225.922 215.992 225.811 216.106 225.614C216.136 225.562 216.157 225.508 216.171 225.453C216.21 225.415 216.245 225.37 216.274 225.32C216.444 225.026 216.343 224.65 216.049 224.48L211.46 221.83C211.166 221.66 210.789 221.761 210.619 222.056C210.59 222.107 210.568 222.161 210.555 222.217C210.515 222.255 210.48 222.299 210.451 222.35C210.282 222.644 210.382 223.02 210.677 223.19L215.265 225.839Z" fill="#29ABE2"/>
<path d="M200.498 201.813C200.158 201.813 199.883 201.537 199.883 201.197V195.875C199.883 195.535 200.158 195.26 200.498 195.26C200.838 195.26 201.113 195.535 201.113 195.875V201.197C201.113 201.537 200.838 201.813 200.498 201.813ZM200.498 189.94C200.158 189.94 199.883 189.665 199.883 189.325V184.002C199.883 183.663 200.158 183.387 200.498 183.387C200.838 183.387 201.113 183.663 201.113 184.002V189.325C201.113 189.665 200.838 189.94 200.498 189.94ZM200.498 178.067C200.158 178.067 199.883 177.792 199.883 177.452V172.13C199.883 171.79 200.158 171.515 200.498 171.515C200.838 171.515 201.113 171.79 201.113 172.13V177.452C201.113 177.792 200.838 178.067 200.498 178.067ZM200.498 166.195C200.158 166.195 199.883 165.919 199.883 165.58V160.257C199.883 159.917 200.158 159.642 200.498 159.642C200.838 159.642 201.113 159.917 201.113 160.257V165.58C201.113 165.919 200.838 166.195 200.498 166.195ZM200.498 154.322C200.158 154.322 199.883 154.047 199.883 153.707V148.385C199.883 148.045 200.158 147.769 200.498 147.769C200.838 147.769 201.113 148.045 201.113 148.385V153.707C201.113 154.047 200.838 154.322 200.498 154.322ZM200.498 142.45C200.158 142.45 199.883 142.174 199.883 141.834V136.512C199.883 136.172 200.158 135.897 200.498 135.897C200.838 135.897 201.113 136.172 201.113 136.512V141.834C201.113 142.174 200.838 142.45 200.498 142.45ZM200.498 130.577C200.158 130.577 199.883 130.302 199.883 129.962V124.64C199.883 124.3 200.158 124.024 200.498 124.024C200.838 124.024 201.113 124.3 201.113 124.64V129.962C201.113 130.302 200.838 130.577 200.498 130.577ZM200.498 118.704C200.158 118.704 199.883 118.429 199.883 118.089V112.767C199.883 112.427 200.158 112.152 200.498 112.152C200.838 112.152 201.113 112.427 201.113 112.767V118.089C201.113 118.429 200.838 118.704 200.498 118.704ZM200.498 106.832C200.158 106.832 199.883 106.556 199.883 106.216V100.894C199.883 100.554 200.158 100.279 200.498 100.279C200.838 100.279 201.113 100.554 201.113 100.894V106.216C201.113 106.556 200.838 106.832 200.498 106.832ZM200.498 94.9592C200.158 94.9592 199.883 94.6837 199.883 94.3439V89.0217C199.883 88.6819 200.158 88.4064 200.498 88.4064C200.838 88.4064 201.113 88.6819 201.113 89.0217V94.3439C201.113 94.6837 200.838 94.9592 200.498 94.9592ZM200.498 83.0866C200.158 83.0866 199.883 82.8111 199.883 82.4713V77.1491C199.883 76.8093 200.158 76.5338 200.498 76.5338C200.838 76.5338 201.113 76.8093 201.113 77.1491V82.4713C201.113 82.8111 200.838 83.0866 200.498 83.0866ZM200.498 71.2139C200.158 71.2139 199.883 70.9384 199.883 70.5986V65.2765C199.883 64.9367 200.158 64.6612 200.498 64.6612C200.838 64.6612 201.113 64.9367 201.113 65.2765V70.5986C201.113 70.9384 200.838 71.2139 200.498 71.2139ZM200.498 59.3413C200.158 59.3413 199.883 59.0658 199.883 58.7261V53.4039C199.883 53.0641 200.158 52.7887 200.498 52.7887C200.838 52.7887 201.113 53.0641 201.113 53.4039V58.7261C201.113 59.0658 200.838 59.3413 200.498 59.3413ZM200.498 47.4687C200.158 47.4687 199.883 47.1932 199.883 46.8535V41.5312C199.883 41.1914 200.158 40.916 200.498 40.916C200.838 40.916 201.113 41.1914 201.113 41.5312V46.8535C201.113 47.1932 200.838 47.4687 200.498 47.4687ZM200.498 35.5961C200.158 35.5961 199.883 35.3207 199.883 34.9809V29.6586C199.883 29.3189 200.158 29.0434 200.498 29.0434C200.838 29.0434 201.113 29.3189 201.113 29.6586V34.9809C201.113 35.3207 200.838 35.5961 200.498 35.5961ZM200.498 23.7236C200.158 23.7236 199.883 23.4481 199.883 23.1083V17.7861C199.883 17.4463 200.158 17.1708 200.498 17.1708C200.838 17.1708 201.113 17.4463 201.113 17.7861V23.1083C201.113 23.4481 200.838 23.7236 200.498 23.7236ZM200.498 11.851C200.158 11.851 199.883 11.5755 199.883 11.2357V5.91348C199.883 5.57371 200.158 5.29822 200.498 5.29822C200.838 5.29822 201.113 5.5737 201.113 5.91348V11.2357C201.113 11.5755 200.838 11.851 200.498 11.851Z" fill="#00C3F9"/>
<path d="M200.498 211.029C200.159 211.029 199.883 210.754 199.883 210.414V207.748C199.883 207.408 200.159 207.132 200.498 207.132C200.838 207.132 201.114 207.408 201.114 207.748V210.414C201.114 210.754 200.838 211.029 200.498 211.029Z" fill="#00C3F9"/>
<path d="M199.924 201.813C199.584 201.813 199.309 201.537 199.309 201.197V195.875C199.309 195.535 199.584 195.26 199.924 195.26C200.264 195.26 200.539 195.535 200.539 195.875V201.197C200.539 201.537 200.264 201.813 199.924 201.813ZM199.924 189.94C199.584 189.94 199.309 189.665 199.309 189.325V184.002C199.309 183.663 199.584 183.387 199.924 183.387C200.264 183.387 200.539 183.663 200.539 184.002V189.325C200.539 189.665 200.264 189.94 199.924 189.94ZM199.924 178.067C199.584 178.067 199.309 177.792 199.309 177.452V172.13C199.309 171.79 199.584 171.515 199.924 171.515C200.264 171.515 200.539 171.79 200.539 172.13V177.452C200.539 177.792 200.264 178.067 199.924 178.067ZM199.924 166.195C199.584 166.195 199.309 165.919 199.309 165.58V160.257C199.309 159.917 199.584 159.642 199.924 159.642C200.264 159.642 200.539 159.917 200.539 160.257V165.58C200.539 165.919 200.264 166.195 199.924 166.195ZM199.924 154.322C199.584 154.322 199.309 154.047 199.309 153.707V148.385C199.309 148.045 199.584 147.769 199.924 147.769C200.264 147.769 200.539 148.045 200.539 148.385V153.707C200.539 154.047 200.264 154.322 199.924 154.322ZM199.924 142.45C199.584 142.45 199.309 142.174 199.309 141.834V136.512C199.309 136.172 199.584 135.897 199.924 135.897C200.264 135.897 200.539 136.172 200.539 136.512V141.834C200.539 142.174 200.264 142.45 199.924 142.45ZM199.924 130.577C199.584 130.577 199.309 130.302 199.309 129.962V124.64C199.309 124.3 199.584 124.024 199.924 124.024C200.264 124.024 200.539 124.3 200.539 124.64V129.962C200.539 130.302 200.264 130.577 199.924 130.577ZM199.924 118.704C199.584 118.704 199.309 118.429 199.309 118.089V112.767C199.309 112.427 199.584 112.152 199.924 112.152C200.264 112.152 200.539 112.427 200.539 112.767V118.089C200.539 118.429 200.264 118.704 199.924 118.704ZM199.924 106.832C199.584 106.832 199.309 106.556 199.309 106.216V100.894C199.309 100.554 199.584 100.279 199.924 100.279C200.264 100.279 200.539 100.554 200.539 100.894V106.216C200.539 106.556 200.264 106.832 199.924 106.832ZM199.924 94.9592C199.584 94.9592 199.309 94.6837 199.309 94.3439V89.0217C199.309 88.6819 199.584 88.4064 199.924 88.4064C200.264 88.4064 200.539 88.6819 200.539 89.0217V94.3439C200.539 94.6837 200.264 94.9592 199.924 94.9592ZM199.924 83.0866C199.584 83.0866 199.309 82.8111 199.309 82.4713V77.1491C199.309 76.8093 199.584 76.5338 199.924 76.5338C200.264 76.5338 200.539 76.8093 200.539 77.1491V82.4713C200.539 82.8111 200.264 83.0866 199.924 83.0866ZM199.924 71.2139C199.584 71.2139 199.309 70.9384 199.309 70.5986V65.2765C199.309 64.9367 199.584 64.6612 199.924 64.6612C200.264 64.6612 200.539 64.9367 200.539 65.2765V70.5986C200.539 70.9384 200.264 71.2139 199.924 71.2139ZM199.924 59.3413C199.584 59.3413 199.309 59.0658 199.309 58.7261V53.4039C199.309 53.0641 199.584 52.7887 199.924 52.7887C200.264 52.7887 200.539 53.0641 200.539 53.4039V58.7261C200.539 59.0658 200.264 59.3413 199.924 59.3413ZM199.924 47.4687C199.584 47.4687 199.309 47.1932 199.309 46.8535V41.5312C199.309 41.1914 199.584 40.916 199.924 40.916C200.264 40.916 200.539 41.1914 200.539 41.5312V46.8535C200.539 47.1932 200.264 47.4687 199.924 47.4687ZM199.924 35.5961C199.584 35.5961 199.309 35.3207 199.309 34.9809V29.6586C199.309 29.3189 199.584 29.0434 199.924 29.0434C200.264 29.0434 200.539 29.3189 200.539 29.6586V34.9809C200.539 35.3207 200.264 35.5961 199.924 35.5961ZM199.924 23.7236C199.584 23.7236 199.309 23.4481 199.309 23.1083V17.7861C199.309 17.4463 199.584 17.1708 199.924 17.1708C200.264 17.1708 200.539 17.4463 200.539 17.7861V23.1083C200.539 23.4481 200.264 23.7236 199.924 23.7236ZM199.924 11.851C199.584 11.851 199.309 11.5755 199.309 11.2357V5.91348C199.309 5.57371 199.584 5.29822 199.924 5.29822C200.264 5.29822 200.539 5.5737 200.539 5.91348V11.2357C200.539 11.5755 200.264 11.851 199.924 11.851Z" fill="#00C3F9"/>
<path d="M199.924 211.029C199.584 211.029 199.309 210.754 199.309 210.414V207.748C199.309 207.408 199.584 207.132 199.924 207.132C200.264 207.132 200.539 207.408 200.539 207.748V210.414C200.539 210.754 200.264 211.029 199.924 211.029Z" fill="#00C3F9"/>
<path fill-rule="evenodd" clip-rule="evenodd" d="M197.82 217.73C197.806 217.712 197.794 217.693 197.782 217.673C197.612 217.379 197.713 217.002 198.007 216.832L200.317 215.499C200.611 215.33 200.987 215.43 201.157 215.725C201.194 215.789 201.219 215.858 201.231 215.927C201.244 215.945 201.256 215.965 201.268 215.984C201.438 216.279 201.337 216.655 201.043 216.825L198.733 218.158C198.637 218.214 198.531 218.241 198.426 218.241C198.214 218.241 198.007 218.13 197.893 217.933C197.856 217.868 197.832 217.8 197.82 217.73ZM22.9635 318.929C23.0772 319.126 23.2843 319.236 23.4966 319.236C23.6012 319.236 23.7069 319.21 23.8038 319.154L28.4167 316.49C28.7111 316.321 28.8116 315.944 28.6418 315.65C28.6303 315.63 28.6179 315.611 28.6046 315.593C28.5925 315.523 28.5683 315.455 28.531 315.39C28.3611 315.096 27.9842 314.995 27.6906 315.165L23.0777 317.828C22.7833 317.998 22.6828 318.374 22.8526 318.669C22.8641 318.689 22.8766 318.708 22.8899 318.726C22.9019 318.795 22.9262 318.864 22.9635 318.929ZM33.2535 312.988C33.3672 313.185 33.5743 313.296 33.7866 313.296C33.8911 313.296 33.9969 313.269 34.0938 313.213L38.7067 310.549C39.0011 310.38 39.1016 310.003 38.9318 309.709C38.9203 309.689 38.9078 309.67 38.8945 309.652C38.8825 309.582 38.8583 309.514 38.8209 309.449C38.6511 309.154 38.2746 309.054 37.9806 309.224L33.3677 311.887C33.0733 312.057 32.9728 312.434 33.1426 312.728C33.1541 312.748 33.1665 312.767 33.1799 312.785C33.1919 312.854 33.2161 312.923 33.2535 312.988ZM43.5434 307.047C43.6572 307.244 43.8643 307.354 44.0766 307.354C44.1811 307.354 44.2869 307.328 44.3838 307.272L48.9966 304.609C49.2911 304.439 49.3916 304.062 49.2218 303.768C49.2103 303.748 49.1978 303.729 49.1845 303.711C49.1725 303.642 49.1482 303.573 49.1109 303.508C48.9411 303.214 48.5646 303.113 48.2705 303.283L43.6577 305.946C43.3633 306.116 43.2627 306.493 43.4326 306.787C43.4441 306.807 43.4565 306.826 43.4698 306.844C43.4819 306.913 43.5061 306.982 43.5434 307.047ZM53.8334 301.106C53.9472 301.303 54.1543 301.413 54.3665 301.413C54.4711 301.413 54.5768 301.387 54.6738 301.331L59.2866 298.668C59.581 298.498 59.6816 298.122 59.5117 297.827C59.5002 297.807 59.4878 297.788 59.4745 297.77C59.4625 297.701 59.4382 297.632 59.4009 297.567C59.2311 297.273 58.8541 297.173 58.5605 297.342L53.9477 300.005C53.6533 300.175 53.5527 300.552 53.7226 300.846C53.7341 300.866 53.7465 300.885 53.7598 300.903C53.7718 300.972 53.7961 301.041 53.8334 301.106ZM64.1234 295.165C64.2371 295.362 64.4442 295.472 64.6565 295.472C64.7611 295.472 64.8668 295.446 64.9637 295.39L69.5766 292.727C69.871 292.557 69.9715 292.181 69.8017 291.886C69.795 291.875 69.7879 291.863 69.7805 291.852C69.7753 291.844 69.77 291.837 69.7645 291.829C69.7524 291.76 69.7282 291.691 69.6909 291.627C69.521 291.332 69.1441 291.231 68.8505 291.401L64.2376 294.064C63.9432 294.234 63.8427 294.611 64.0125 294.905C64.019 294.916 64.0258 294.927 64.0328 294.938C64.0383 294.946 64.044 294.954 64.0498 294.962C64.0618 295.032 64.0861 295.1 64.1234 295.165ZM74.4133 289.224C74.5271 289.421 74.7342 289.532 74.9465 289.532C75.051 289.532 75.1568 289.505 75.2537 289.449L79.8666 286.786C80.161 286.616 80.2615 286.24 80.0917 285.946C80.0802 285.926 80.0677 285.906 80.0544 285.888C80.0424 285.819 80.0182 285.75 79.9808 285.686C79.811 285.391 79.4341 285.29 79.1405 285.461L74.5276 288.124C74.2332 288.293 74.1327 288.67 74.3025 288.964C74.314 288.984 74.3264 289.003 74.3397 289.021C74.3518 289.091 74.376 289.159 74.4133 289.224ZM84.7033 283.283C84.8171 283.48 85.0242 283.591 85.2365 283.591C85.341 283.591 85.4468 283.564 85.5437 283.508L90.1565 280.845C90.451 280.675 90.5515 280.299 90.3817 280.005C90.3702 279.985 90.3577 279.966 90.3444 279.947C90.3324 279.878 90.3081 279.809 90.2708 279.745C90.101 279.45 89.7245 279.35 89.4304 279.52L84.8176 282.183C84.5232 282.353 84.4226 282.729 84.5925 283.023C84.604 283.043 84.6164 283.062 84.6297 283.08C84.6418 283.15 84.666 283.218 84.7033 283.283ZM94.9933 277.342C95.1071 277.54 95.3142 277.65 95.5265 277.65C95.631 277.65 95.7367 277.623 95.8337 277.567L100.447 274.904C100.741 274.734 100.841 274.358 100.672 274.064C100.66 274.044 100.648 274.025 100.634 274.007C100.622 273.937 100.598 273.868 100.561 273.804C100.391 273.509 100.014 273.409 99.7204 273.579L95.1076 276.242C94.8132 276.412 94.7126 276.788 94.8825 277.082C94.894 277.102 94.9064 277.121 94.9197 277.139C94.9317 277.209 94.956 277.277 94.9933 277.342ZM105.283 271.401C105.397 271.599 105.604 271.709 105.816 271.709C105.921 271.709 106.027 271.682 106.124 271.626L110.736 268.963C111.031 268.793 111.131 268.417 110.961 268.123C110.955 268.112 110.949 268.102 110.942 268.091C110.936 268.083 110.93 268.074 110.924 268.066C110.912 267.996 110.888 267.928 110.85 267.863C110.681 267.568 110.304 267.468 110.01 267.638L105.398 270.301C105.103 270.471 105.003 270.847 105.172 271.141C105.18 271.155 105.189 271.168 105.197 271.181C105.201 271.187 105.205 271.193 105.21 271.198C105.222 271.268 105.246 271.337 105.283 271.401ZM115.573 265.46C115.687 265.658 115.894 265.768 116.106 265.768C116.211 265.768 116.317 265.742 116.414 265.685L121.026 263.022C121.32 262.852 121.421 262.476 121.251 262.182C121.24 262.162 121.227 262.143 121.214 262.125C121.202 262.055 121.178 261.987 121.14 261.922C120.971 261.627 120.594 261.527 120.3 261.697L115.688 264.36C115.393 264.53 115.293 264.906 115.462 265.2C115.474 265.22 115.486 265.239 115.5 265.258C115.512 265.327 115.536 265.396 115.573 265.46ZM125.863 259.519C125.977 259.717 126.184 259.827 126.396 259.827C126.501 259.827 126.607 259.801 126.704 259.745L131.316 257.081C131.61 256.911 131.711 256.535 131.541 256.241C131.53 256.221 131.517 256.202 131.504 256.184C131.492 256.114 131.468 256.046 131.43 255.981C131.26 255.686 130.884 255.586 130.59 255.756L125.978 258.419C125.683 258.589 125.583 258.965 125.752 259.26C125.764 259.279 125.776 259.299 125.79 259.317C125.802 259.386 125.826 259.455 125.863 259.519ZM136.153 253.579C136.267 253.776 136.474 253.886 136.686 253.886C136.791 253.886 136.897 253.86 136.994 253.804L141.606 251.14C141.9 250.97 142.001 250.594 141.831 250.3C141.825 250.289 141.818 250.279 141.812 250.268C141.806 250.26 141.8 250.251 141.794 250.243C141.782 250.173 141.758 250.105 141.72 250.04C141.55 249.745 141.174 249.645 140.88 249.815L136.267 252.478C135.973 252.648 135.873 253.024 136.042 253.319C136.054 253.339 136.066 253.358 136.08 253.376C136.092 253.445 136.116 253.514 136.153 253.579ZM146.443 247.638C146.557 247.835 146.764 247.945 146.976 247.945C147.08 247.945 147.186 247.919 147.283 247.863L151.896 245.199C152.19 245.03 152.291 244.653 152.121 244.359C152.11 244.339 152.097 244.32 152.084 244.302C152.072 244.232 152.048 244.164 152.01 244.099C151.84 243.804 151.464 243.704 151.17 243.874L146.557 246.537C146.263 246.707 146.162 247.084 146.332 247.378C146.338 247.389 146.345 247.4 146.352 247.411C146.358 247.419 146.363 247.427 146.369 247.435C146.381 247.504 146.405 247.573 146.443 247.638ZM156.733 241.697C156.847 241.894 157.054 242.004 157.266 242.004C157.37 242.004 157.476 241.978 157.573 241.922L162.186 239.259C162.48 239.089 162.581 238.712 162.411 238.418C162.4 238.398 162.387 238.379 162.374 238.361C162.362 238.291 162.338 238.223 162.3 238.158C162.13 237.864 161.754 237.763 161.46 237.933L156.847 240.596C156.553 240.766 156.452 241.142 156.622 241.437C156.633 241.457 156.646 241.476 156.659 241.494C156.671 241.563 156.695 241.632 156.733 241.697ZM167.023 235.756C167.136 235.953 167.344 236.063 167.556 236.063C167.66 236.063 167.766 236.037 167.863 235.981L172.476 233.318C172.77 233.148 172.871 232.771 172.701 232.477C172.69 232.457 172.677 232.438 172.664 232.42C172.652 232.351 172.628 232.282 172.59 232.217C172.42 231.923 172.044 231.822 171.75 231.992L167.137 234.655C166.843 234.825 166.742 235.202 166.912 235.496C166.923 235.516 166.936 235.535 166.949 235.553C166.961 235.622 166.985 235.691 167.023 235.756ZM177.313 229.815C177.426 230.012 177.634 230.123 177.846 230.123C177.95 230.123 178.056 230.096 178.153 230.04L182.766 227.377C183.06 227.207 183.161 226.831 182.991 226.536C182.98 226.516 182.967 226.497 182.954 226.479C182.942 226.41 182.918 226.341 182.88 226.276C182.71 225.982 182.333 225.881 182.04 226.051L177.427 228.714C177.133 228.884 177.032 229.261 177.202 229.555C177.213 229.575 177.226 229.594 177.239 229.612C177.251 229.681 177.275 229.75 177.313 229.815ZM187.603 223.874C187.716 224.071 187.924 224.182 188.136 224.182C188.24 224.182 188.346 224.155 188.443 224.099L193.056 221.436C193.35 221.266 193.451 220.89 193.281 220.595C193.27 220.575 193.257 220.556 193.244 220.538C193.232 220.469 193.208 220.4 193.17 220.336C193 220.041 192.623 219.941 192.33 220.11L187.717 222.774C187.423 222.943 187.322 223.32 187.492 223.614C187.503 223.634 187.516 223.653 187.529 223.671C187.541 223.741 187.565 223.809 187.603 223.874ZM15.5107 323.847C15.2984 323.847 15.0913 323.736 14.9776 323.539C14.9403 323.474 14.916 323.406 14.904 323.336C14.8907 323.318 14.8782 323.299 14.8667 323.279C14.6969 322.985 14.7974 322.609 15.0919 322.439L17.4007 321.106C17.6943 320.936 18.0712 321.036 18.241 321.331C18.2784 321.395 18.3026 321.464 18.3146 321.534C18.3279 321.552 18.3404 321.571 18.3519 321.591C18.5217 321.885 18.4212 322.261 18.1268 322.431L15.8179 323.764C15.721 323.82 15.6153 323.847 15.5107 323.847Z" fill="#00C3F9"/>
<path d="M201.64 290.88C258.952 314.061 311.082 313.35 325.985 286.43C343.718 254.396 302.022 197.387 232.853 159.096C221.811 152.983 210.737 147.721 199.849 143.318L201.64 290.88Z" fill="url(#paint0_linear)"/>
<path d="M201.475 291.112C212.405 286.34 223.505 280.676 234.546 274.131C302.558 233.822 342.56 175.611 323.891 144.113C308.223 117.676 256.205 118.464 199.68 143.231L201.475 291.112Z" fill="url(#paint1_linear)"/>
<path d="M199.849 143.318L201.64 290.88C201.702 290.905 201.764 290.929 201.827 290.955C212.643 286.215 223.623 280.605 234.546 274.131C263.876 256.749 287.989 236.037 304.442 215.573C287.394 195.602 262.682 175.609 232.853 159.096C221.811 152.983 210.737 147.721 199.849 143.318Z" fill="url(#paint2_linear)"/>
<path d="M206.647 256.726C229.089 253.367 244.559 232.451 241.199 210.009C237.84 187.567 216.924 172.097 194.482 175.457C172.04 178.816 156.57 199.732 159.93 222.174C163.289 244.616 184.205 260.086 206.647 256.726Z" fill="#29ABE2"/>
<path d="M199.007 73.959C235.619 73.5147 266.077 137.241 267.036 216.294C267.995 295.348 239.093 359.794 202.481 360.239C165.869 360.683 135.411 296.957 134.452 217.903C133.493 138.849 162.395 74.4032 199.007 73.959Z" fill="url(#paint3_linear)"/>
<path d="M75.5038 147.768C57.7705 179.802 99.4669 236.811 168.635 275.101C179.678 281.214 190.752 286.476 201.64 290.88L199.849 143.318C142.536 120.136 90.4061 120.848 75.5038 147.768Z" fill="url(#paint4_linear)"/>
<path d="M251.39 126.954C235.302 129.868 217.722 135.326 199.68 143.231L201.475 291.112C212.405 286.34 223.505 280.676 234.546 274.131C245.56 267.604 255.833 260.605 265.248 253.328C266.564 241.506 267.192 229.092 267.036 216.294C266.625 182.418 260.797 151.358 251.39 126.954Z" fill="url(#paint5_linear)"/>
<path d="M147.811 128.535C139.07 153.109 134.043 184.176 134.452 217.903C134.608 230.775 135.547 243.24 137.166 255.088C146.837 262.129 157.369 268.865 168.635 275.101C179.677 281.214 190.751 286.476 201.639 290.88L199.849 143.318C181.636 135.951 163.949 131.001 147.811 128.535Z" fill="url(#paint6_linear)"/>
<path d="M166.943 160.066C98.9307 200.375 58.9297 258.587 77.598 290.085C93.2354 316.469 145.08 315.735 201.475 291.112L199.68 143.231C188.858 147.973 177.872 153.589 166.943 160.066Z" fill="url(#paint7_linear)"/>
<path d="M201.47 290.81L199.68 143.25C199.672 143.247 199.665 143.244 199.657 143.241C188.842 147.981 177.864 153.593 166.942 160.066C137.613 177.449 113.499 198.161 97.0469 218.625C114.094 238.595 138.806 258.589 168.635 275.101C179.62 281.183 190.637 286.42 201.47 290.81Z" fill="url(#paint8_linear)"/>
<path d="M253.677 305.663C262.419 281.089 267.446 250.022 267.037 216.294C266.895 204.596 266.106 193.234 264.748 182.365C264.612 181.275 264.469 180.183 264.322 179.103C249.608 167.126 216.416 149.534 199.604 143.231L201.64 290.88C219.853 298.246 237.54 303.196 253.677 305.663Z" fill="url(#paint9_linear)"/>
<path d="M200.564 257.181C223.256 257.181 241.652 238.785 241.652 216.093C241.652 193.401 223.256 175.005 200.564 175.005C177.872 175.005 159.477 193.401 159.477 216.093C159.477 238.785 177.872 257.181 200.564 257.181Z" fill="url(#paint10_linear)"/>
<path d="M150.099 307.243C166.087 304.347 183.55 298.938 201.474 291.112L199.68 143.231C188.857 147.973 177.871 153.589 166.942 160.066C155.929 166.594 145.655 173.592 136.241 180.869C134.925 192.692 134.297 205.106 134.452 217.903C134.863 251.779 140.691 282.839 150.099 307.243Z" fill="url(#paint11_linear)"/>
<path d="M200.066 175.008C177.376 175.284 159.205 193.901 159.48 216.591C159.755 239.282 178.373 257.453 201.063 257.177C201.119 257.177 201.175 257.174 201.231 257.173L201.231 257.172C214.161 256.857 224.394 238.399 224.12 215.807C223.846 193.215 213.168 175.011 200.234 175.01L200.234 175.008C200.178 175.009 200.122 175.008 200.066 175.008Z" fill="url(#paint12_linear)"/>
<path d="M396.332 111.798C398.58 107.624 397.019 102.418 392.845 100.17C388.671 97.9217 383.465 99.4827 381.217 103.656C378.969 107.83 380.53 113.036 384.704 115.284C388.878 117.533 394.084 115.972 396.332 111.798Z" fill="#009BF2"/>
<path d="M19.7816 111.799C22.0297 107.625 20.4686 102.419 16.2948 100.171C12.1209 97.9226 6.91492 99.4836 4.66679 103.657C2.41866 107.831 3.97975 113.037 8.15358 115.285C12.3274 117.533 17.5334 115.972 19.7816 111.799Z" fill="#009BF2"/>
<path fill-rule="evenodd" clip-rule="evenodd" d="M306.003 277.346C306.014 277.274 306.038 277.204 306.076 277.137C306.245 276.842 306.619 276.739 306.916 276.907L311.063 279.271C311.358 279.439 311.461 279.815 311.293 280.11C311.257 280.172 311.212 280.226 311.161 280.27C311.15 280.342 311.125 280.413 311.087 280.479C310.974 280.678 310.766 280.79 310.552 280.79C310.449 280.79 310.344 280.764 310.248 280.709L306.101 278.346C305.806 278.178 305.703 277.802 305.871 277.507C305.907 277.444 305.951 277.39 306.003 277.346ZM315.176 282.546C315.187 282.474 315.211 282.404 315.249 282.337C315.418 282.042 315.792 281.939 316.089 282.107L320.235 284.471C320.531 284.639 320.634 285.015 320.465 285.31C320.43 285.372 320.385 285.426 320.334 285.47C320.322 285.542 320.298 285.613 320.26 285.679C320.147 285.878 319.939 285.99 319.725 285.99C319.622 285.99 319.517 285.964 319.421 285.909L315.274 283.546C314.979 283.378 314.876 283.002 315.044 282.707C315.079 282.644 315.124 282.59 315.176 282.546ZM296.751 272.074C296.762 272.003 296.786 271.932 296.824 271.866C296.993 271.57 297.368 271.468 297.664 271.636L301.811 273.999C302.106 274.167 302.209 274.543 302.041 274.838C302.006 274.9 301.961 274.954 301.909 274.999C301.898 275.07 301.874 275.141 301.836 275.207C301.722 275.406 301.514 275.518 301.301 275.518C301.198 275.518 301.093 275.492 300.997 275.437L296.85 273.074C296.554 272.906 296.451 272.53 296.619 272.235C296.655 272.172 296.7 272.119 296.751 272.074ZM287.5 266.802C287.511 266.731 287.535 266.66 287.573 266.594C287.742 266.298 288.116 266.195 288.413 266.364L292.56 268.727C292.855 268.895 292.958 269.271 292.79 269.566C292.754 269.629 292.709 269.682 292.658 269.727C292.647 269.798 292.622 269.869 292.584 269.935C292.471 270.135 292.263 270.246 292.049 270.246C291.946 270.246 291.841 270.22 291.745 270.165L287.598 267.802C287.303 267.634 287.2 267.258 287.368 266.963C287.404 266.901 287.448 266.847 287.5 266.802ZM278.248 261.53C278.259 261.459 278.283 261.388 278.321 261.322C278.49 261.026 278.866 260.924 279.16 261.092L283.308 263.455C283.603 263.623 283.706 263.999 283.538 264.294C283.503 264.357 283.458 264.41 283.406 264.455C283.395 264.526 283.371 264.597 283.333 264.664C283.219 264.863 283.011 264.974 282.798 264.974C282.695 264.974 282.59 264.948 282.494 264.893L278.347 262.53C278.051 262.362 277.948 261.986 278.116 261.691C278.152 261.629 278.197 261.575 278.248 261.53ZM269.459 256.361C269.47 256.29 269.495 256.219 269.532 256.152C269.701 255.857 270.077 255.754 270.372 255.922L274.519 258.286C274.815 258.454 274.918 258.83 274.749 259.125C274.714 259.187 274.669 259.241 274.618 259.285C274.606 259.357 274.582 259.428 274.544 259.494C274.43 259.693 274.223 259.805 274.009 259.805C273.906 259.805 273.801 259.779 273.705 259.724L269.558 257.361C269.262 257.193 269.159 256.817 269.327 256.522C269.363 256.459 269.408 256.405 269.459 256.361Z" fill="white"/>
<path d="M200.417 81.6772C200.077 81.6772 199.801 81.3127 199.801 80.8631V77.3353C199.801 76.8858 200.077 76.5212 200.417 76.5212C200.756 76.5212 201.032 76.8858 201.032 77.3353V80.8631C201.032 81.3127 200.756 81.6772 200.417 81.6772Z" fill="white"/>
<path d="M200.416 127.946C200.076 127.946 199.8 127.671 199.8 127.331V122.146C199.8 121.806 200.076 121.531 200.416 121.531C200.755 121.531 201.031 121.806 201.031 122.146V127.331C201.031 127.671 200.755 127.946 200.416 127.946ZM200.416 116.379C200.076 116.379 199.8 116.104 199.8 115.764V110.578C199.8 110.239 200.076 109.963 200.416 109.963C200.755 109.963 201.031 110.239 201.031 110.578V115.764C201.031 116.104 200.755 116.379 200.416 116.379ZM200.416 104.812C200.076 104.812 199.8 104.536 199.8 104.197V99.0112C199.8 98.6715 200.076 98.396 200.416 98.396C200.755 98.396 201.031 98.6715 201.031 99.0112V104.197C201.031 104.536 200.755 104.812 200.416 104.812ZM200.416 93.2445C200.076 93.2445 199.8 92.969 199.8 92.6292V87.4439C199.8 87.1041 200.076 86.8286 200.416 86.8286C200.755 86.8286 201.031 87.1041 201.031 87.4439V92.6292C201.031 92.969 200.755 93.2445 200.416 93.2445Z" fill="white"/>
<path d="M200.416 140.276C200.076 140.276 199.8 140 199.8 139.661V133.713C199.8 133.373 200.076 133.098 200.416 133.098C200.755 133.098 201.031 133.373 201.031 133.713V139.661C201.031 140 200.755 140.276 200.416 140.276Z" fill="white"/>
<path d="M199.842 81.6772C199.503 81.6772 199.227 81.3127 199.227 80.8631V77.3353C199.227 76.8858 199.503 76.5212 199.842 76.5212C200.182 76.5212 200.458 76.8858 200.458 77.3353V80.8631C200.458 81.3127 200.182 81.6772 199.842 81.6772Z" fill="white"/>
<path d="M199.841 127.946C199.502 127.946 199.226 127.671 199.226 127.331V122.146C199.226 121.806 199.502 121.531 199.841 121.531C200.181 121.531 200.457 121.806 200.457 122.146V127.331C200.457 127.671 200.181 127.946 199.841 127.946ZM199.841 116.379C199.502 116.379 199.226 116.104 199.226 115.764V110.578C199.226 110.239 199.502 109.963 199.841 109.963C200.181 109.963 200.457 110.239 200.457 110.578V115.764C200.457 116.104 200.181 116.379 199.841 116.379ZM199.841 104.812C199.502 104.812 199.226 104.536 199.226 104.197V99.0112C199.226 98.6715 199.502 98.396 199.841 98.396C200.181 98.396 200.457 98.6715 200.457 99.0112V104.197C200.457 104.536 200.181 104.812 199.841 104.812ZM199.841 93.2445C199.502 93.2445 199.226 92.969 199.226 92.6292V87.4439C199.226 87.1041 199.502 86.8286 199.841 86.8286C200.181 86.8286 200.457 87.1041 200.457 87.4439V92.6292C200.457 92.969 200.181 93.2445 199.841 93.2445Z" fill="white"/>
<path d="M199.841 140.276C199.502 140.276 199.226 140 199.226 139.661V133.713C199.226 133.373 199.502 133.098 199.841 133.098C200.181 133.098 200.457 133.373 200.457 133.713V139.661C200.457 140 200.181 140.276 199.841 140.276Z" fill="white"/>
<path fill-rule="evenodd" clip-rule="evenodd" d="M125.498 259.607C125.441 259.561 125.392 259.504 125.353 259.437C125.183 259.142 125.284 258.766 125.578 258.596L127.887 257.263C128.181 257.093 128.558 257.193 128.727 257.488C128.759 257.542 128.781 257.599 128.794 257.657C128.851 257.703 128.9 257.76 128.939 257.827C129.109 258.121 129.008 258.497 128.714 258.667L126.405 260C126.308 260.056 126.202 260.083 126.098 260.083C125.885 260.083 125.678 259.973 125.565 259.775C125.533 259.721 125.511 259.665 125.498 259.607ZM88.6106 280.649C88.6492 280.716 88.6986 280.773 88.7553 280.819C88.7688 280.877 88.7908 280.934 88.822 280.988C88.9358 281.185 89.1429 281.296 89.3552 281.296C89.4597 281.296 89.5655 281.269 89.6624 281.213L93.7802 278.836C94.0746 278.666 94.1751 278.29 94.0053 277.996C93.9666 277.928 93.9172 277.872 93.8605 277.825C93.8471 277.768 93.825 277.711 93.7938 277.657C93.624 277.362 93.2471 277.262 92.9535 277.432L88.8357 279.809C88.5413 279.979 88.4408 280.355 88.6106 280.649ZM97.7958 275.346C97.8345 275.413 97.8839 275.47 97.9406 275.516C97.954 275.574 97.9761 275.631 98.0073 275.685C98.121 275.882 98.3281 275.993 98.5404 275.993C98.645 275.993 98.7507 275.966 98.8476 275.91L102.965 273.533C103.26 273.363 103.36 272.987 103.19 272.692C103.152 272.625 103.102 272.568 103.046 272.522C103.032 272.464 103.01 272.408 102.979 272.354C102.809 272.059 102.433 271.959 102.139 272.129L98.0209 274.506C97.7265 274.676 97.626 275.052 97.7958 275.346ZM106.981 270.043C107.02 270.11 107.07 270.167 107.126 270.213C107.14 270.271 107.162 270.328 107.193 270.382C107.307 270.579 107.514 270.689 107.726 270.689C107.831 270.689 107.936 270.663 108.033 270.607L112.151 268.229C112.445 268.06 112.546 267.683 112.376 267.389C112.337 267.322 112.288 267.265 112.231 267.219C112.218 267.161 112.196 267.104 112.165 267.05C111.995 266.756 111.618 266.655 111.324 266.825L107.207 269.203C106.912 269.373 106.812 269.749 106.981 270.043ZM116.167 264.74C116.205 264.807 116.255 264.864 116.311 264.91C116.325 264.968 116.347 265.024 116.378 265.078C116.492 265.276 116.699 265.386 116.911 265.386C117.016 265.386 117.122 265.36 117.218 265.304L121.336 262.926C121.631 262.756 121.731 262.38 121.561 262.086C121.523 262.019 121.473 261.962 121.417 261.916C121.403 261.858 121.381 261.801 121.35 261.747C121.18 261.453 120.803 261.352 120.51 261.522L116.392 263.899C116.097 264.069 115.997 264.446 116.167 264.74ZM81.3792 285.079C81.3225 285.033 81.2731 284.976 81.2344 284.908C81.0646 284.614 81.1651 284.238 81.4595 284.068L83.7684 282.735C84.0624 282.565 84.4389 282.665 84.6087 282.96C84.6399 283.014 84.6619 283.071 84.6754 283.128C84.7321 283.175 84.7815 283.232 84.8202 283.299C84.99 283.593 84.8895 283.969 84.595 284.139L82.2862 285.472C82.1893 285.528 82.0835 285.555 81.979 285.555C81.7667 285.555 81.5596 285.445 81.4458 285.247C81.4147 285.193 81.3926 285.136 81.3792 285.079Z" fill="white"/>
<path d="M208.057 437.965C210.306 433.792 208.744 428.586 204.571 426.337C200.397 424.089 195.191 425.65 192.943 429.824C190.695 433.998 192.256 439.204 196.429 441.452C200.603 443.7 205.809 442.139 208.057 437.965Z" fill="#009BF2"/>
<path d="M204.869 146.034C206.362 143.262 205.325 139.805 202.553 138.312C199.782 136.819 196.324 137.855 194.831 140.627C193.338 143.399 194.375 146.856 197.147 148.349C199.919 149.842 203.376 148.806 204.869 146.034Z" fill="white"/>
<path d="M269.978 256.393C271.471 253.621 270.434 250.164 267.663 248.671C264.891 247.178 261.433 248.215 259.94 250.987C258.447 253.758 259.484 257.216 262.256 258.709C265.028 260.202 268.485 259.165 269.978 256.393Z" fill="white"/>
<path d="M141.551 256.435C143.044 253.663 142.007 250.206 139.235 248.712C136.463 247.219 133.006 248.256 131.513 251.028C130.02 253.8 131.057 257.257 133.829 258.75C136.601 260.243 140.058 259.206 141.551 256.435Z" fill="white"/>
<path fill-rule="evenodd" clip-rule="evenodd" d="M200.19 435.398C200.286 435.453 200.392 435.48 200.499 435.48C200.606 435.48 200.712 435.453 200.808 435.398L377.411 333.435C385.546 328.739 390.599 319.986 390.599 310.593V106.67C390.599 106.449 390.481 106.245 390.29 106.134L213.687 4.1722C205.552 -0.523849 195.447 -0.524216 187.311 4.1722L10.7075 106.134C10.5164 106.245 10.3984 106.449 10.3984 106.67V310.593C10.3984 319.986 15.452 328.739 23.5864 333.435L200.19 435.398ZM12.3392 310.248V107.441L187.975 6.03767C195.7 1.57796 205.297 1.57832 213.021 6.03767L388.657 107.441V310.248C388.657 319.167 383.858 327.478 376.134 331.938L200.498 433.342L24.862 331.938C17.1377 327.478 12.3392 319.167 12.3392 310.248Z" fill="#009BF2"/>
<path d="M12.7813 106.762C12.2486 106.454 11.566 106.636 11.2579 107.17C10.9504 107.703 11.1323 108.385 11.6661 108.694L192.023 212.823C190.541 216.673 191.834 221.172 195.395 223.591C196.698 224.477 198.15 224.969 199.613 225.109L199.383 434.328L201.613 434.33L201.844 225.058C204.262 224.696 206.53 223.364 208.013 221.181C209.702 218.694 209.988 215.67 209.057 213.04L389.332 108.693C389.866 108.384 390.047 107.702 389.738 107.169C389.429 106.634 388.745 106.456 388.215 106.762L386.72 107.628L208.052 211.044C207.422 210.094 206.606 209.244 205.602 208.562C201.493 205.771 195.914 206.802 193.068 210.851L14.2813 107.628L12.7813 106.762Z" fill="url(#paint13_radial)"/>
<defs>
<linearGradient id="paint0_linear" x1="308.43" y1="171.688" x2="208.695" y2="268.409" gradientUnits="userSpaceOnUse">
<stop offset="0.55587" stop-color="#22CDFF"/>
<stop offset="0.97484" stop-color="#9586FF"/>
</linearGradient>
<linearGradient id="paint1_linear" x1="215.17" y1="60.5915" x2="267.682" y2="232.449" gradientUnits="userSpaceOnUse">
<stop offset="0.55587" stop-color="#22CDFF"/>
<stop offset="0.97484" stop-color="#9586FF"/>
</linearGradient>
<linearGradient id="paint2_linear" x1="264.809" y1="367.516" x2="246.106" y2="186.206" gradientUnits="userSpaceOnUse">
<stop stop-color="#09E7E7"/>
<stop offset="0.30208" stop-color="#22CDFF"/>
<stop offset="0.87653" stop-color="#966BC6"/>
</linearGradient>
<linearGradient id="paint3_linear" x1="255.647" y1="86.7049" x2="156.79" y2="321.489" gradientUnits="userSpaceOnUse">
<stop stop-color="#00E7CB"/>
<stop offset="0.2867" stop-color="#00C3F9"/>
<stop offset="0.42438" stop-color="#00BFFF"/>
<stop offset="1" stop-color="#6820B5"/>
</linearGradient>
<linearGradient id="paint4_linear" x1="175.804" y1="112.856" x2="115.585" y2="283.922" gradientUnits="userSpaceOnUse">
<stop offset="0.55587" stop-color="#22CDFF"/>
<stop offset="0.97484" stop-color="#9586FF"/>
</linearGradient>
<linearGradient id="paint5_linear" x1="311.813" y1="313.4" x2="181.812" y2="154.547" gradientUnits="userSpaceOnUse">
<stop offset="0.37747" stop-color="#100B69"/>
<stop offset="1" stop-color="#720D85"/>
</linearGradient>
<linearGradient id="paint6_linear" x1="59.4458" y1="303.007" x2="212.064" y2="179.484" gradientUnits="userSpaceOnUse">
<stop stop-color="#09E7E7"/>
<stop offset="0.51616" stop-color="#22CDFF"/>
<stop offset="1" stop-color="#9761DD"/>
</linearGradient>
<linearGradient id="paint7_linear" x1="61.3271" y1="47.7504" x2="168.261" y2="281.667" gradientUnits="userSpaceOnUse">
<stop offset="0.55587" stop-color="#22CDFF"/>
<stop offset="0.97484" stop-color="#9586FF"/>
</linearGradient>
<linearGradient id="paint8_linear" x1="117.088" y1="167.893" x2="301.92" y2="282.335" gradientUnits="userSpaceOnUse">
<stop offset="0.02131" stop-color="#BD52BE"/>
<stop offset="0.35143" stop-color="#7F28A2"/>
<stop offset="0.69461" stop-color="#4C33A5"/>
<stop offset="1" stop-color="#223CA7"/>
</linearGradient>
<linearGradient id="paint9_linear" x1="222.288" y1="144.493" x2="239.48" y2="289.771" gradientUnits="userSpaceOnUse">
<stop stop-color="#1631C0"/>
<stop offset="0.43274" stop-color="#100B69"/>
</linearGradient>
<linearGradient id="paint10_linear" x1="196.076" y1="173.63" x2="210.909" y2="314.177" gradientUnits="userSpaceOnUse">
<stop stop-color="#0F63DF"/>
<stop offset="0.20104" stop-color="#1631C0"/>
<stop offset="0.56942" stop-color="#100B69"/>
<stop offset="0.99943" stop-color="#720D85"/>
</linearGradient>
<linearGradient id="paint11_linear" x1="106.157" y1="182.705" x2="271.62" y2="285.155" gradientUnits="userSpaceOnUse">
<stop stop-color="#BD52BE"/>
<stop offset="0.32623" stop-color="#7F28A2"/>
<stop offset="0.68275" stop-color="#4C33A5"/>
<stop offset="1" stop-color="#223CA7"/>
</linearGradient>
<linearGradient id="paint12_linear" x1="169.131" y1="194.949" x2="214.73" y2="231.103" gradientUnits="userSpaceOnUse">
<stop stop-color="white"/>
<stop offset="0.4672" stop-color="#88F4FF"/>
<stop offset="1" stop-color="#00B4FF"/>
</linearGradient>
<radialGradient id="paint13_radial" cx="0" cy="0" r="1" gradientUnits="userSpaceOnUse" gradientTransform="translate(208.396 215.182) scale(177.054 177.127)">
<stop stop-color="#6820B5"/>
<stop offset="0.76007" stop-color="#009BF2"/>
</radialGradient>
</defs>
</svg>
