<svg width="386" height="383" viewBox="0 0 386 383" fill="none" xmlns="http://www.w3.org/2000/svg">
<path d="M66.5166 245.333H16.4006C7.67605 245.333 0.603516 252.405 0.603516 261.13C0.603516 269.854 7.67605 276.927 16.4006 276.927H66.5166C75.2411 276.927 82.3136 269.854 82.3136 261.13C82.3136 252.405 75.2411 245.333 66.5166 245.333Z" fill="url(#paint0_linear)"/>
<path d="M66.5167 202.331H16.4007C7.67617 202.331 0.603638 209.403 0.603638 218.128V218.128C0.603638 226.852 7.67617 233.925 16.4007 233.925H66.5167C75.2413 233.925 82.3138 226.852 82.3138 218.128V218.128C82.3138 209.403 75.2413 202.331 66.5167 202.331Z" fill="url(#paint1_linear)"/>
<path d="M307.058 299.47H129.474C118.136 299.47 108.945 290.279 108.945 278.942V21.3409C108.945 10.0034 118.136 0.8125 129.474 0.8125H288.12C299.458 0.8125 308.649 10.0034 308.649 21.3409V297.879C308.649 298.758 307.936 299.47 307.058 299.47Z" fill="url(#paint2_linear)"/>
<path d="M29.5597 151.028V61.4362C29.5597 47.039 41.2308 35.3679 55.6279 35.3679H145.22C159.617 35.3679 171.288 47.039 171.288 61.4362V151.028C171.288 165.425 159.617 177.097 145.22 177.097H55.6279C41.2308 177.097 29.5597 165.425 29.5597 151.028Z" fill="url(#paint3_linear)"/>
<path d="M357.162 53.3159H204.53C204.01 53.3159 203.589 52.8947 203.589 52.375C203.589 51.8553 204.01 51.4341 204.53 51.4341H357.162C357.681 51.4341 358.103 51.8553 358.103 52.375C358.103 52.8947 357.681 53.3159 357.162 53.3159Z" fill="url(#paint4_linear)"/>
<path d="M357.161 74.6867H204.53C204.01 74.6867 203.589 74.2656 203.589 73.7458C203.589 73.2261 204.01 72.8049 204.53 72.8049H357.161C357.681 72.8049 358.102 73.2261 358.102 73.7458C358.102 74.2656 357.681 74.6867 357.161 74.6867Z" fill="url(#paint5_linear)"/>
<path d="M357.161 96.0578H204.53C204.01 96.0578 203.589 95.6367 203.589 95.1169C203.589 94.5971 204.01 94.176 204.53 94.176H357.161C357.681 94.176 358.102 94.5971 358.102 95.1169C358.102 95.6367 357.681 96.0578 357.161 96.0578Z" fill="url(#paint6_linear)"/>
<path d="M251.353 117.429H204.53C204.01 117.429 203.589 117.007 203.589 116.488C203.589 115.968 204.01 115.547 204.53 115.547H251.353C251.872 115.547 252.294 115.968 252.294 116.488C252.294 117.007 251.872 117.429 251.353 117.429Z" fill="url(#paint7_linear)"/>
<path d="M100.424 110.365C111.838 110.365 121.091 101.112 121.091 89.6976C121.091 78.2831 111.838 69.0298 100.424 69.0298C89.009 69.0298 79.7557 78.2831 79.7557 89.6976C79.7557 101.112 89.009 110.365 100.424 110.365Z" fill="white"/>
<path d="M100.424 115.861C81.4731 115.861 65.6669 129.318 62.0371 147.198H138.81C135.181 129.318 119.374 115.861 100.424 115.861Z" fill="white"/>
<path d="M284.678 193.323L285.213 224.523L279.977 224.309C277.092 214.8 273.957 208.14 270.574 204.328C267.19 200.518 262.881 198.612 257.645 198.612C256.541 198.612 255.846 198.826 255.562 199.253C255.276 199.68 255.134 200.963 255.134 203.1V258.341C255.134 260.977 255.686 262.901 256.79 264.111C257.894 265.322 259.71 265.981 262.24 266.088L267.369 266.355V272.018H223.293V266.355L228.368 266.088C230.897 265.981 232.704 265.331 233.791 264.138C234.877 262.945 235.42 261.012 235.42 258.341V203.206C235.42 200.928 235.287 199.592 235.019 199.2C234.753 198.808 234.049 198.612 232.91 198.612C227.674 198.612 223.373 200.518 220.007 204.328C216.641 208.14 213.498 214.8 210.578 224.309L205.342 224.523L205.983 193.323H284.678Z" fill="white"/>
<path d="M16.5971 276.927C25.3216 276.927 32.3942 269.854 32.3942 261.13C32.3942 252.405 25.3216 245.333 16.5971 245.333C7.87259 245.333 0.799988 252.405 0.799988 261.13C0.799988 269.854 7.87259 276.927 16.5971 276.927Z" fill="url(#paint8_linear)"/>
<path d="M66.3206 233.925C75.0451 233.925 82.1177 226.852 82.1177 218.128C82.1177 209.403 75.0451 202.331 66.3206 202.331C57.5961 202.331 50.5235 209.403 50.5235 218.128C50.5235 226.852 57.5961 233.925 66.3206 233.925Z" fill="url(#paint9_linear)"/>
<path d="M302.376 157.875C292.025 154.743 281.048 153.052 269.675 153.052C207.397 153.052 156.911 203.538 156.911 265.816C156.911 276.687 158.451 287.199 161.323 297.146" stroke="white" stroke-width="3" stroke-miterlimit="10" stroke-linecap="round" stroke-dasharray="10 10"/>
<path d="M308.649 314.921C317.182 314.921 324.1 308.004 324.1 299.47C324.1 290.937 317.182 284.019 308.649 284.019C300.115 284.019 293.198 290.937 293.198 299.47C293.198 308.004 300.115 314.921 308.649 314.921Z" fill="url(#paint10_linear)"/>
<path d="M308.649 156.333V163.69C349.735 179.423 378.988 219.264 378.988 265.816C378.988 326.091 329.95 375.129 269.675 375.129C221.138 375.129 179.895 343.328 165.67 299.47H158.437C172.903 347.19 217.294 382.029 269.675 382.029C333.755 382.029 385.888 329.896 385.888 265.816C385.888 215.401 353.616 172.389 308.649 156.333Z" fill="url(#paint11_linear)"/>
<defs>
<linearGradient id="paint0_linear" x1="-59.0091" y1="152.29" x2="96.3498" y2="320.595" gradientUnits="userSpaceOnUse">
<stop stop-color="#2950C9"/>
<stop offset="1" stop-color="#55006E"/>
</linearGradient>
<linearGradient id="paint1_linear" x1="-37.5767" y1="132.506" x2="117.782" y2="300.811" gradientUnits="userSpaceOnUse">
<stop stop-color="#2950C9"/>
<stop offset="1" stop-color="#55006E"/>
</linearGradient>
<linearGradient id="paint2_linear" x1="115.275" y1="7.35287" x2="294.339" y2="280.745" gradientUnits="userSpaceOnUse">
<stop stop-color="#00E7CB"/>
<stop offset="0.4209" stop-color="#00BFFF"/>
<stop offset="1" stop-color="#D180D5"/>
</linearGradient>
<linearGradient id="paint3_linear" x1="50.8828" y1="45.9354" x2="160.592" y2="179.462" gradientUnits="userSpaceOnUse">
<stop stop-color="#2950C9"/>
<stop offset="1" stop-color="#66176E"/>
</linearGradient>
<linearGradient id="paint4_linear" x1="180.444" y1="-49.6368" x2="403.214" y2="176.705" gradientUnits="userSpaceOnUse">
<stop stop-color="#2950C9"/>
<stop offset="1" stop-color="#66176E"/>
</linearGradient>
<linearGradient id="paint5_linear" x1="169.759" y1="-39.1214" x2="392.53" y2="187.22" gradientUnits="userSpaceOnUse">
<stop stop-color="#2950C9"/>
<stop offset="1" stop-color="#66176E"/>
</linearGradient>
<linearGradient id="paint6_linear" x1="159.075" y1="-28.6058" x2="381.845" y2="197.736" gradientUnits="userSpaceOnUse">
<stop stop-color="#2950C9"/>
<stop offset="1" stop-color="#66176E"/>
</linearGradient>
<linearGradient id="paint7_linear" x1="121.518" y1="8.3585" x2="344.289" y2="234.7" gradientUnits="userSpaceOnUse">
<stop stop-color="#2950C9"/>
<stop offset="1" stop-color="#66176E"/>
</linearGradient>
<linearGradient id="paint8_linear" x1="-46.3087" y1="193.965" x2="143.256" y2="396.365" gradientUnits="userSpaceOnUse">
<stop stop-color="#00E7CB"/>
<stop offset="0.4209" stop-color="#00BFFF"/>
<stop offset="1" stop-color="#D180D5"/>
</linearGradient>
<linearGradient id="paint9_linear" x1="362.425" y1="534.281" x2="51.9331" y2="202.766" gradientUnits="userSpaceOnUse">
<stop stop-color="#00E7CB"/>
<stop offset="0.4209" stop-color="#00BFFF"/>
<stop offset="1" stop-color="#D180D5"/>
</linearGradient>
<linearGradient id="paint10_linear" x1="215.911" y1="167.42" x2="349.13" y2="357.112" gradientUnits="userSpaceOnUse">
<stop stop-color="#2950C9"/>
<stop offset="1" stop-color="#66176E"/>
</linearGradient>
<linearGradient id="paint11_linear" x1="205.64" y1="174.633" x2="338.859" y2="364.325" gradientUnits="userSpaceOnUse">
<stop stop-color="#2950C9"/>
<stop offset="1" stop-color="#66176E"/>
</linearGradient>
</defs>
</svg>
