<svg width="362" height="383" viewBox="0 0 362 383" fill="none" xmlns="http://www.w3.org/2000/svg">
<path d="M181.877 316.199C251.13 316.199 307.27 260.059 307.27 190.807C307.27 121.554 251.13 65.4141 181.877 65.4141C112.625 65.4141 56.4848 121.554 56.4848 190.807C56.4848 260.059 112.625 316.199 181.877 316.199Z" fill="url(#paint0_linear)"/>
<path d="M242.306 83.0781C210.809 91.7399 176.284 106.625 142.491 126.29C109.113 145.713 79.4352 168.061 56.4592 190.871C55.2044 192.117 53.5612 193.78 51.8346 195.555C53.0438 197.144 55.4984 198.671 56.8442 200.564C79.9403 176.583 110.889 152.876 146.054 132.413C179.35 113.037 213.306 98.3874 244.206 89.8964L242.306 83.0781Z" fill="white"/>
<path d="M181.649 234.935C205.687 234.935 225.174 215.449 225.174 191.411C225.174 167.373 205.687 147.886 181.649 147.886C157.611 147.886 138.124 167.373 138.124 191.411C138.124 215.449 157.611 234.935 181.649 234.935Z" fill="url(#paint1_linear)"/>
<path d="M108.237 178.994C108.423 178.999 108.598 178.951 108.748 178.863C109.028 178.701 109.219 178.401 109.229 178.054C109.286 175.923 109.359 173.766 109.444 171.645C109.466 171.112 109.051 170.662 108.518 170.641C108.327 170.633 108.147 170.681 107.994 170.771C107.719 170.93 107.529 171.221 107.514 171.561C107.497 171.973 107.481 172.383 107.466 172.796C107.465 172.815 107.464 172.834 107.463 172.852C107.463 172.863 107.463 172.864 107.463 172.875C107.461 172.904 107.461 172.934 107.46 172.963C107.459 172.968 107.459 172.972 107.459 172.977C107.397 174.646 107.343 176.321 107.297 178.002C107.283 178.535 107.703 178.979 108.237 178.994Z" fill="url(#paint2_linear)"/>
<path d="M108.831 164.225C109.028 164.236 109.214 164.188 109.372 164.096C109.643 163.938 109.832 163.652 109.852 163.316C109.975 161.183 110.114 159.029 110.265 156.911C110.303 156.379 109.902 155.917 109.37 155.878C109.169 155.864 108.978 155.913 108.816 156.007C108.55 156.161 108.362 156.44 108.338 156.77C108.23 158.279 108.129 159.804 108.034 161.325C108.034 161.333 108.034 161.339 108.034 161.347C108.031 161.378 108.029 161.414 108.027 161.446C108.027 161.452 108.027 161.459 108.026 161.465C108.025 161.481 108.024 161.5 108.023 161.516C108.022 161.527 108.022 161.538 108.021 161.548C108.019 161.575 108.018 161.6 108.016 161.626C108.015 161.639 108.015 161.652 108.014 161.665C108.013 161.681 108.012 161.692 108.011 161.707C108.01 161.731 108.009 161.755 108.007 161.779C108.006 161.789 108.006 161.803 108.005 161.814C108.004 161.834 108.002 161.854 108.001 161.874C108.001 161.885 108 161.89 108 161.9C107.998 161.927 107.996 161.954 107.995 161.981C107.994 161.987 107.994 162.001 107.993 162.006C107.989 162.067 107.986 162.128 107.982 162.189C107.982 162.194 107.982 162.194 107.982 162.199C107.978 162.265 107.974 162.331 107.97 162.397H107.97C107.954 162.666 107.938 162.935 107.923 163.205C107.892 163.737 108.299 164.194 108.831 164.225Z" fill="url(#paint3_linear)"/>
<path d="M109.885 149.476C110.092 149.494 110.289 149.446 110.457 149.349C110.718 149.197 110.905 148.924 110.933 148.6C111.124 146.472 111.332 144.325 111.551 142.218C111.607 141.687 111.221 141.212 110.691 141.157C110.479 141.135 110.276 141.183 110.105 141.283C109.848 141.433 109.663 141.699 109.63 142.018C109.444 143.806 109.267 145.604 109.101 147.413L109.1 147.424C109.097 147.452 109.095 147.481 109.092 147.509C109.091 147.519 109.091 147.528 109.09 147.538C109.088 147.558 109.086 147.577 109.084 147.597C109.082 147.618 109.08 147.64 109.079 147.66C109.078 147.669 109.077 147.679 109.076 147.688C109.053 147.934 109.031 148.184 109.009 148.43C108.963 148.96 109.354 149.428 109.885 149.476Z" fill="url(#paint4_linear)"/>
<path d="M113.453 120.14C113.682 120.177 113.905 120.13 114.091 120.021C114.333 119.881 114.512 119.637 114.56 119.339C114.898 117.224 115.257 115.097 115.625 113.017C115.718 112.491 115.368 111.99 114.842 111.897C114.608 111.855 114.379 111.902 114.188 112.013C113.952 112.15 113.776 112.386 113.723 112.676C113.656 113.056 113.588 113.443 113.522 113.824C113.521 113.828 113.52 113.832 113.52 113.836C113.516 113.855 113.514 113.868 113.511 113.887C113.508 113.902 113.505 113.916 113.503 113.931C113.5 113.95 113.497 113.965 113.494 113.984C113.491 114.003 113.487 114.023 113.484 114.042C113.482 114.051 113.48 114.062 113.479 114.072C113.475 114.094 113.47 114.118 113.467 114.141C113.465 114.15 113.464 114.158 113.462 114.167C113.458 114.193 113.453 114.219 113.448 114.245C113.447 114.254 113.447 114.258 113.445 114.267C113.44 114.296 113.435 114.324 113.43 114.352L113.429 114.36C113.162 115.907 112.903 117.465 112.652 119.033C112.567 119.56 112.926 120.056 113.453 120.14Z" fill="url(#paint5_linear)"/>
<path d="M111.416 134.775C111.634 134.802 111.844 134.754 112.02 134.652C112.272 134.505 112.455 134.246 112.494 133.935C112.756 131.813 113.036 129.675 113.328 127.579C113.401 127.051 113.032 126.563 112.504 126.489C112.281 126.458 112.066 126.506 111.885 126.611C111.638 126.755 111.456 127.007 111.414 127.313C111.341 127.841 111.268 128.369 111.196 128.899V128.9C111.187 128.966 111.178 129.032 111.17 129.097L111.169 129.099C111.152 129.231 111.134 129.364 111.116 129.496V129.496C111.019 130.226 110.923 130.957 110.829 131.69L110.828 131.693C110.824 131.726 110.82 131.758 110.816 131.791V131.793C110.811 131.825 110.808 131.856 110.804 131.888L110.803 131.893C110.799 131.922 110.795 131.953 110.792 131.982C110.79 131.992 110.79 131.992 110.789 132.001C110.786 132.029 110.782 132.056 110.778 132.083C110.777 132.093 110.777 132.099 110.775 132.109C110.772 132.131 110.77 132.153 110.767 132.175C110.766 132.18 110.764 132.198 110.763 132.203C110.76 132.227 110.757 132.251 110.754 132.274C110.753 132.284 110.751 132.298 110.75 132.308C110.747 132.332 110.744 132.356 110.741 132.38C110.739 132.395 110.738 132.402 110.736 132.417C110.734 132.432 110.732 132.447 110.73 132.463C110.728 132.482 110.725 132.508 110.722 132.528C110.721 132.54 110.719 132.552 110.717 132.564C110.715 132.579 110.713 132.597 110.711 132.612C110.711 132.617 110.71 132.621 110.71 132.626C110.665 132.982 110.62 133.344 110.576 133.702C110.512 134.23 110.888 134.71 111.416 134.775Z" fill="url(#paint6_linear)"/>
<path d="M109.53 223.2C109.836 223.022 110.033 222.681 110.008 222.304C109.875 220.186 109.754 218.033 109.649 215.903C109.622 215.37 109.169 214.959 108.636 214.986C108.476 214.993 108.327 215.04 108.199 215.115C107.896 215.291 107.701 215.624 107.719 215.997C107.72 216.009 107.719 216.009 107.72 216.021C107.721 216.036 107.721 216.05 107.722 216.065C107.723 216.083 107.724 216.1 107.725 216.118C107.726 216.14 107.727 216.161 107.728 216.183C107.729 216.201 107.73 216.212 107.731 216.23C107.731 216.245 107.732 216.259 107.732 216.273C107.733 216.291 107.734 216.302 107.735 216.321C107.736 216.332 107.736 216.344 107.737 216.355C107.738 216.386 107.74 216.421 107.742 216.452C107.742 216.461 107.743 216.47 107.743 216.48C107.744 216.498 107.745 216.517 107.746 216.536C107.746 216.545 107.747 216.555 107.747 216.565C107.75 216.626 107.754 216.698 107.757 216.76C107.757 216.765 107.758 216.77 107.758 216.774C107.759 216.799 107.76 216.816 107.761 216.84C107.762 216.845 107.762 216.849 107.762 216.854C107.845 218.482 107.936 220.089 108.035 221.704C108.036 221.706 108.036 221.709 108.036 221.712C108.037 221.73 108.038 221.741 108.039 221.759C108.04 221.773 108.041 221.788 108.042 221.802C108.042 221.814 108.043 221.828 108.044 221.841C108.056 222.036 108.068 222.23 108.08 222.425C108.114 222.958 108.573 223.362 109.105 223.329C109.26 223.319 109.404 223.273 109.53 223.2Z" fill="url(#paint7_linear)"/>
<path d="M114.943 266.261C114.598 264.175 114.264 262.044 113.948 259.927C113.87 259.4 113.378 259.036 112.851 259.114C112.726 259.133 112.61 259.174 112.507 259.234C112.175 259.427 111.977 259.809 112.037 260.212C112.306 262.014 112.584 263.803 112.873 265.578C112.875 265.589 112.875 265.593 112.877 265.604C112.88 265.624 112.884 265.644 112.887 265.664C112.89 265.681 112.892 265.697 112.895 265.714C112.898 265.732 112.901 265.749 112.904 265.767C112.907 265.783 112.909 265.799 112.912 265.816C112.913 265.824 112.914 265.833 112.916 265.841C112.956 266.085 112.997 266.336 113.037 266.579C113.125 267.104 113.622 267.458 114.147 267.372C114.266 267.352 114.377 267.311 114.476 267.254C114.812 267.058 115.01 266.668 114.943 266.261Z" fill="url(#paint8_linear)"/>
<path d="M108.086 193.78C108.262 193.78 108.427 193.732 108.568 193.65C108.857 193.482 109.05 193.169 109.049 192.811C109.044 190.679 109.051 188.52 109.074 186.394C109.079 185.86 108.651 185.423 108.117 185.418C107.937 185.416 107.768 185.463 107.622 185.548C107.337 185.714 107.145 186.021 107.141 186.374C107.137 186.74 107.134 187.107 107.132 187.473C107.131 187.479 107.131 187.478 107.131 187.484C107.131 187.511 107.131 187.539 107.131 187.566C107.131 187.572 107.13 187.577 107.13 187.583C107.13 187.611 107.13 187.639 107.13 187.668C107.13 187.679 107.13 187.684 107.13 187.695C107.13 187.714 107.129 187.733 107.129 187.752C107.129 187.769 107.129 187.789 107.129 187.805C107.129 187.823 107.129 187.841 107.128 187.859C107.128 187.87 107.128 187.891 107.128 187.902C107.128 187.914 107.128 187.927 107.128 187.939C107.127 187.972 107.127 188.001 107.127 188.034C107.127 188.04 107.127 188.045 107.127 188.05C107.127 188.072 107.127 188.089 107.126 188.111C107.127 188.112 107.127 188.114 107.127 188.115C107.126 188.225 107.125 188.331 107.125 188.441V188.441C107.121 188.946 107.119 189.446 107.118 189.952C107.118 189.954 107.118 189.955 107.117 189.958C107.118 189.979 107.118 189.994 107.118 190.016C107.117 190.027 107.117 190.039 107.117 190.05C107.117 190.073 107.117 190.105 107.117 190.127C107.117 190.141 107.117 190.154 107.117 190.167C107.117 190.183 107.117 190.197 107.117 190.214C107.117 190.236 107.117 190.258 107.117 190.279C107.117 190.29 107.117 190.309 107.117 190.32C107.117 190.337 107.116 190.354 107.116 190.372C107.117 190.382 107.117 190.397 107.116 190.409C107.116 190.436 107.116 190.463 107.116 190.491C107.116 190.496 107.116 190.498 107.116 190.504C107.116 190.533 107.116 190.562 107.116 190.591V190.599C107.115 191.337 107.115 192.076 107.117 192.817C107.119 193.35 107.552 193.782 108.086 193.78Z" fill="url(#paint9_linear)"/>
<path d="M112.804 251.673C112.533 249.571 112.274 247.428 112.032 245.303C111.972 244.773 111.493 244.392 110.963 244.453C110.826 244.468 110.699 244.512 110.586 244.577C110.265 244.764 110.068 245.128 110.112 245.52C110.232 246.576 110.356 247.631 110.482 248.68C110.483 248.682 110.483 248.683 110.483 248.685C110.491 248.748 110.498 248.809 110.506 248.873C110.507 248.883 110.509 248.893 110.51 248.904C110.512 248.921 110.514 248.936 110.516 248.953C110.518 248.968 110.52 248.983 110.521 248.998C110.524 249.022 110.526 249.038 110.529 249.061C110.531 249.079 110.533 249.097 110.535 249.114C110.537 249.126 110.538 249.138 110.54 249.149C110.543 249.174 110.546 249.199 110.549 249.223C110.549 249.229 110.549 249.229 110.55 249.234C110.554 249.265 110.558 249.296 110.561 249.327C110.562 249.332 110.562 249.334 110.563 249.34C110.669 250.203 110.777 251.062 110.887 251.92C110.955 252.449 111.439 252.823 111.968 252.755C112.101 252.738 112.223 252.695 112.331 252.632C112.657 252.442 112.855 252.07 112.804 251.673Z" fill="url(#paint10_linear)"/>
<path d="M117.623 280.751C117.198 278.685 116.783 276.571 116.389 274.467C116.291 273.942 115.786 273.597 115.261 273.695C115.15 273.716 115.046 273.755 114.953 273.809C114.611 274.008 114.414 274.407 114.489 274.818C114.536 275.071 114.583 275.32 114.631 275.572C114.632 275.579 114.633 275.585 114.635 275.591C114.637 275.607 114.641 275.625 114.644 275.642C114.649 275.666 114.653 275.69 114.658 275.715C114.659 275.72 114.66 275.726 114.661 275.732C114.666 275.757 114.671 275.783 114.676 275.809C114.677 275.814 114.678 275.819 114.679 275.825C114.874 276.848 115.072 277.867 115.274 278.881C115.274 278.886 115.274 278.886 115.275 278.891C115.281 278.921 115.287 278.951 115.293 278.981L115.294 278.986C115.3 279.013 115.305 279.04 115.311 279.067C115.313 279.078 115.314 279.086 115.317 279.097C115.321 279.117 115.325 279.138 115.329 279.158C115.332 279.174 115.337 279.199 115.34 279.215C115.342 279.227 115.345 279.239 115.347 279.251C115.35 279.267 115.354 279.284 115.357 279.3C115.358 279.306 115.359 279.311 115.36 279.317C115.368 279.354 115.375 279.391 115.383 279.428C115.383 279.43 115.383 279.431 115.384 279.431C115.498 280.005 115.614 280.576 115.731 281.145C115.841 281.665 116.35 281.999 116.871 281.892C116.977 281.87 117.075 281.832 117.163 281.781C117.511 281.578 117.709 281.168 117.623 280.751Z" fill="url(#paint11_linear)"/>
<path d="M110.691 237.939C111.007 237.755 111.204 237.4 111.168 237.012C110.967 234.901 110.778 232.752 110.607 230.624C110.564 230.092 110.098 229.696 109.566 229.739C109.417 229.751 109.279 229.796 109.158 229.866C108.848 230.047 108.652 230.394 108.68 230.775C108.854 232.929 109.043 235.072 109.244 237.199C109.297 237.728 109.767 238.116 110.297 238.065C110.441 238.052 110.574 238.007 110.691 237.939Z" fill="url(#paint12_linear)"/>
<path d="M108.827 208.434C109.124 208.261 109.319 207.935 109.307 207.567C109.238 205.444 109.183 203.287 109.141 201.156C109.131 200.623 108.69 200.199 108.157 200.209C107.987 200.212 107.827 200.259 107.69 200.339C107.397 200.51 107.202 200.83 107.209 201.193C107.214 201.427 107.219 201.661 107.223 201.895C107.224 201.901 107.224 201.902 107.224 201.909C107.225 201.934 107.225 201.959 107.225 201.985C107.225 201.991 107.226 202.003 107.226 202.01C107.226 202.039 107.227 202.069 107.228 202.098C107.228 202.105 107.228 202.115 107.228 202.122C107.229 202.143 107.229 202.164 107.23 202.185C107.23 202.198 107.23 202.22 107.23 202.232C107.231 202.244 107.231 202.256 107.231 202.267C107.232 202.286 107.232 202.303 107.232 202.322C107.233 202.326 107.233 202.331 107.233 202.336C107.263 203.717 107.298 205.095 107.34 206.467C107.34 206.472 107.34 206.477 107.34 206.482C107.341 206.501 107.341 206.525 107.342 206.544C107.342 206.558 107.343 206.571 107.343 206.585C107.344 206.61 107.345 206.635 107.346 206.66C107.346 206.678 107.347 206.695 107.347 206.713C107.347 206.725 107.348 206.734 107.348 206.746C107.349 206.769 107.349 206.791 107.35 206.814C107.35 206.82 107.351 206.828 107.351 206.834C107.359 207.099 107.367 207.364 107.376 207.629C107.393 208.163 107.84 208.581 108.373 208.564C108.538 208.558 108.693 208.512 108.827 208.434Z" fill="url(#paint13_linear)"/>
<path d="M326.484 194.162C322.76 190.587 318.793 187.034 314.613 183.511C318.307 179.482 321.787 175.45 325.021 171.427C349.994 140.375 357.94 113.293 347.394 95.1702C336.849 77.0481 309.377 70.5763 270.041 76.9467C261.408 78.3447 252.407 80.3334 243.145 82.8524C240.687 73.6826 237.903 65.0046 234.803 56.9271C220.78 20.3905 201.903 0.269043 181.649 0.269043C161.395 0.269043 142.518 20.3905 128.495 56.9271C124.197 68.1278 120.507 80.4849 117.454 93.7119C103.457 91.2189 90.0505 89.7287 77.5362 89.3268C37.7077 88.0471 11.2896 97.9846 3.15397 117.309C-4.98356 136.633 6.36527 162.474 35.1106 190.071C37.1165 191.997 39.1997 193.916 41.3408 195.828C39.3944 199.497 39.2409 203.855 40.8706 207.625C39.3962 209.354 37.9606 211.081 36.5727 212.807C11.5997 243.86 3.6537 270.941 14.1996 289.064C24.7452 307.186 52.2169 313.658 91.5531 307.288C100.792 305.791 110.448 303.626 120.399 300.85C122.797 309.692 125.496 318.079 128.495 325.895C142.518 362.431 161.395 382.553 181.649 382.553C201.903 382.553 220.78 362.431 234.803 325.895C244.516 300.586 251.152 269.423 254.233 235.481C275.447 220.591 294.299 204.708 309.754 188.681C313.922 192.185 317.875 195.719 321.577 199.273C347.673 224.328 358.729 247.984 351.911 264.175C345.093 280.367 320.445 288.988 284.286 287.826C277.533 287.609 270.508 287.062 263.266 286.21C260.744 288.358 258.142 290.402 255.468 292.337C265.391 293.744 274.962 294.615 284.059 294.907C309.246 295.716 329.065 292.041 342.293 284.342C349.984 279.867 355.449 274.029 358.441 266.925C366.578 247.601 355.229 221.76 326.484 194.162ZM245.119 89.6477C254.096 87.2115 262.813 85.2945 271.174 83.9404C306.885 78.1572 332.434 83.5487 341.271 98.7337C350.107 113.919 342.172 138.796 319.5 166.987C316.284 170.986 312.817 174.997 309.132 179.006C293.208 166.257 274.469 153.996 253.794 142.763C251.856 123.567 248.77 105.322 244.624 88.591C244.788 88.9465 244.951 89.3041 245.119 89.6477ZM120.115 90.9074C120.237 90.7868 120.33 90.6355 120.374 90.4575C120.888 88.3742 121.424 86.2891 121.969 84.2604C122.022 84.0636 122.01 83.8651 121.946 83.6868C135.057 34.4487 156.906 2.20129 181.649 2.20129C215.144 2.20129 243.338 61.2922 251.724 141.643C238.618 134.609 224.758 127.99 210.356 121.925C179.276 108.837 148.111 99.3447 119.373 94.0572C119.616 93.0005 119.864 91.9506 120.115 90.9074ZM90.42 300.294C54.7096 306.077 29.1598 300.685 20.3231 285.5C11.4868 270.315 19.4221 245.438 42.0937 217.247C43.1664 215.913 44.2677 214.578 45.3939 213.242C50.7859 217.156 58.3668 216.637 63.1512 211.723C68.4042 206.327 68.2888 197.695 62.8933 192.442C58.3027 187.972 51.3753 187.404 46.1733 190.653C44.0542 188.763 42.0002 186.865 40.017 184.961C13.921 159.906 2.86527 136.25 9.68381 120.059C12.0387 114.465 16.5212 109.776 22.8721 106.08C34.904 99.0788 53.6412 95.6479 77.3085 96.4079C89.4511 96.7979 102.466 98.2405 116.065 100.655C115.923 101.325 115.777 101.99 115.638 102.665C115.637 102.669 115.638 102.664 115.637 102.669C115.631 102.701 115.624 102.733 115.618 102.765V102.767C115.611 102.797 115.605 102.828 115.599 102.858C115.598 102.863 115.597 102.865 115.596 102.87C115.591 102.897 115.585 102.925 115.579 102.953C115.577 102.962 115.578 102.959 115.576 102.969C115.57 102.995 115.565 103.022 115.56 103.048C115.558 103.057 115.556 103.066 115.554 103.075C115.549 103.099 115.544 103.123 115.54 103.146C115.538 103.155 115.534 103.171 115.533 103.18C115.529 103.2 115.524 103.221 115.52 103.241C115.518 103.255 115.513 103.273 115.511 103.286C115.508 103.302 115.505 103.318 115.501 103.334C115.497 103.352 115.494 103.369 115.491 103.387C115.488 103.401 115.485 103.415 115.482 103.429C115.476 103.456 115.471 103.48 115.466 103.508C115.465 103.513 115.464 103.518 115.463 103.523C115.399 103.837 115.337 104.144 115.274 104.458C115.171 104.98 115.51 105.488 116.032 105.592C116.273 105.64 116.511 105.595 116.707 105.48C116.938 105.346 117.113 105.117 117.169 104.835C117.426 103.553 117.693 102.272 117.963 100.998C146.218 106.183 176.93 115.537 207.606 128.455C223.343 135.082 238.415 142.372 252.531 150.139C253.665 163.425 254.268 177.234 254.268 191.411C254.268 203.834 253.804 215.973 252.926 227.727C241.174 236.106 228.653 244.19 215.54 251.821C183.354 270.55 150.553 284.863 120.489 293.466C120.117 291.95 119.749 290.421 119.395 288.888C119.275 288.368 118.757 288.043 118.237 288.163C118.14 288.186 118.05 288.222 117.968 288.269C117.611 288.477 117.415 288.899 117.512 289.322C117.875 290.895 118.249 292.448 118.629 293.992C108.891 296.712 99.4479 298.832 90.42 300.294ZM181.649 380.62C157.107 380.62 135.413 348.888 122.268 300.322C152.956 291.554 186.373 276.99 219.103 257.944C230.599 251.255 241.651 244.216 252.147 236.933C244.325 319.44 215.732 380.62 181.649 380.62ZM254.978 226.257C255.784 214.877 256.2 203.227 256.2 191.411C256.2 177.756 255.646 164.322 254.574 151.274C273.046 161.567 289.832 172.673 304.255 184.177C290.371 198.522 273.687 212.759 254.978 226.257Z" fill="url(#paint14_linear)"/>
<path d="M250.327 288.253C250.14 288.368 249.912 288.421 249.678 288.387C247.595 288.082 245.448 287.745 243.296 287.389C242.769 287.302 242.413 286.804 242.5 286.278C242.588 285.751 243.084 285.396 243.611 285.482C245.752 285.838 247.887 286.171 249.958 286.475C250.487 286.553 250.852 287.044 250.774 287.571C250.731 287.864 250.56 288.108 250.327 288.253ZM235.717 285.791C235.519 285.914 235.276 285.966 235.029 285.919C232.941 285.523 230.81 285.101 228.694 284.663C228.171 284.555 227.835 284.044 227.943 283.521C228.052 282.999 228.563 282.662 229.085 282.771C231.191 283.206 233.312 283.627 235.388 284.021C235.912 284.12 236.257 284.626 236.158 285.15C236.105 285.426 235.939 285.653 235.717 285.791ZM221.215 282.756C221.006 282.885 220.748 282.935 220.49 282.876C218.427 282.404 216.313 281.903 214.208 281.388C213.69 281.261 213.373 280.739 213.499 280.221C213.626 279.702 214.151 279.385 214.667 279.512C216.763 280.024 218.867 280.522 220.922 280.993C221.441 281.111 221.767 281.63 221.648 282.15C221.588 282.412 221.427 282.624 221.215 282.756ZM206.832 279.199C206.614 279.334 206.342 279.382 206.075 279.311C204.017 278.765 201.922 278.192 199.848 277.609C199.335 277.465 199.035 276.931 199.179 276.418C199.324 275.905 199.857 275.605 200.371 275.749C202.436 276.329 204.522 276.9 206.571 277.444C207.086 277.581 207.393 278.11 207.256 278.625C207.19 278.873 207.034 279.073 206.832 279.199ZM192.577 275.16C192.349 275.302 192.065 275.348 191.789 275.265C189.759 274.654 187.684 274.014 185.62 273.363C185.111 273.202 184.829 272.659 184.99 272.15C185.152 271.642 185.694 271.359 186.202 271.52C188.257 272.169 190.324 272.806 192.345 273.414C192.857 273.568 193.146 274.107 192.992 274.618C192.922 274.853 192.77 275.041 192.577 275.16ZM178.458 270.669C178.222 270.815 177.925 270.859 177.642 270.764C175.612 270.084 173.576 269.387 171.535 268.673C171.032 268.497 170.766 267.946 170.942 267.442C171.119 266.94 171.67 266.673 172.173 266.849C174.206 267.559 176.233 268.254 178.255 268.932C178.761 269.102 179.034 269.649 178.864 270.155C178.79 270.377 178.642 270.555 178.458 270.669ZM164.483 265.748C164.238 265.899 163.929 265.94 163.639 265.833C161.629 265.092 159.615 264.333 157.599 263.56C157.101 263.369 156.851 262.81 157.043 262.312C157.234 261.814 157.792 261.565 158.291 261.756C160.3 262.527 162.305 263.281 164.307 264.02C164.808 264.205 165.064 264.76 164.88 265.261C164.802 265.471 164.659 265.638 164.483 265.748ZM150.662 260.414C150.409 260.57 150.088 260.609 149.791 260.489C147.787 259.682 145.798 258.864 143.821 258.038C143.328 257.832 143.096 257.266 143.302 256.774C143.508 256.283 144.073 256.05 144.566 256.255C146.535 257.078 148.518 257.892 150.514 258.697C151.008 258.897 151.247 259.46 151.048 259.955C150.968 260.152 150.83 260.31 150.662 260.414ZM137.005 254.67C136.744 254.832 136.41 254.867 136.107 254.734C134.124 253.865 132.141 252.979 130.213 252.103C129.727 251.882 129.512 251.31 129.733 250.824C129.954 250.339 130.526 250.123 131.012 250.344C132.933 251.217 134.908 252.098 136.883 252.964C137.372 253.179 137.594 253.748 137.38 254.237C137.298 254.423 137.166 254.57 137.005 254.67ZM123.529 248.513C123.259 248.681 122.912 248.711 122.604 248.565C120.678 247.648 118.723 246.701 116.795 245.75C116.316 245.514 116.119 244.935 116.356 244.457C116.591 243.979 117.17 243.781 117.649 244.018C119.57 244.964 121.516 245.907 123.435 246.82C123.916 247.049 124.121 247.626 123.892 248.108C123.809 248.281 123.681 248.419 123.529 248.513ZM110.254 241.933C109.975 242.106 109.615 242.132 109.301 241.971C107.385 240.982 105.463 239.971 103.586 238.967C103.116 238.715 102.938 238.13 103.191 237.66C103.441 237.188 104.028 237.012 104.498 237.264C106.366 238.263 108.28 239.269 110.188 240.254C110.662 240.498 110.848 241.081 110.603 241.555C110.52 241.716 110.398 241.844 110.254 241.933Z" fill="white"/>
<path d="M111.095 256.998C119.978 256.998 127.179 249.797 127.179 240.914C127.179 232.032 119.978 224.831 111.095 224.831C102.213 224.831 95.0121 232.032 95.0121 240.914C95.0121 249.797 102.213 256.998 111.095 256.998Z" fill="white"/>
<defs>
<linearGradient id="paint0_linear" x1="-14.6852" y1="145.854" x2="345.938" y2="228.326" gradientUnits="userSpaceOnUse">
<stop stop-color="#00E7CB"/>
<stop offset="0.500551" stop-color="#00BFFF"/>
<stop offset="0.960015" stop-color="#D180D5"/>
</linearGradient>
<linearGradient id="paint1_linear" x1="91.6213" y1="68.8017" x2="292.741" y2="342.708" gradientUnits="userSpaceOnUse">
<stop stop-color="#2950C9"/>
<stop offset="1" stop-color="#66176E"/>
</linearGradient>
<linearGradient id="paint2_linear" x1="51.928" y1="97.9472" x2="253.048" y2="371.853" gradientUnits="userSpaceOnUse">
<stop stop-color="#2950C9"/>
<stop offset="1" stop-color="#66176E"/>
</linearGradient>
<linearGradient id="paint3_linear" x1="59.442" y1="92.4298" x2="260.562" y2="366.336" gradientUnits="userSpaceOnUse">
<stop stop-color="#2950C9"/>
<stop offset="1" stop-color="#66176E"/>
</linearGradient>
<linearGradient id="paint4_linear" x1="67.2428" y1="86.7018" x2="268.363" y2="360.608" gradientUnits="userSpaceOnUse">
<stop stop-color="#2950C9"/>
<stop offset="1" stop-color="#66176E"/>
</linearGradient>
<linearGradient id="paint5_linear" x1="83.7272" y1="74.5982" x2="284.847" y2="348.504" gradientUnits="userSpaceOnUse">
<stop stop-color="#2950C9"/>
<stop offset="1" stop-color="#66176E"/>
</linearGradient>
<linearGradient id="paint6_linear" x1="75.3344" y1="80.7605" x2="276.454" y2="354.667" gradientUnits="userSpaceOnUse">
<stop stop-color="#2950C9"/>
<stop offset="1" stop-color="#66176E"/>
</linearGradient>
<linearGradient id="paint7_linear" x1="31.0954" y1="113.244" x2="232.215" y2="387.15" gradientUnits="userSpaceOnUse">
<stop stop-color="#2950C9"/>
<stop offset="1" stop-color="#66176E"/>
</linearGradient>
<linearGradient id="paint8_linear" x1="13.0696" y1="126.479" x2="214.189" y2="400.385" gradientUnits="userSpaceOnUse">
<stop stop-color="#2950C9"/>
<stop offset="1" stop-color="#66176E"/>
</linearGradient>
<linearGradient id="paint9_linear" x1="44.6973" y1="103.257" x2="245.817" y2="377.163" gradientUnits="userSpaceOnUse">
<stop stop-color="#2950C9"/>
<stop offset="1" stop-color="#66176E"/>
</linearGradient>
<linearGradient id="paint10_linear" x1="18.7332" y1="122.321" x2="219.853" y2="396.227" gradientUnits="userSpaceOnUse">
<stop stop-color="#2950C9"/>
<stop offset="1" stop-color="#66176E"/>
</linearGradient>
<linearGradient id="paint11_linear" x1="7.79559" y1="130.352" x2="208.915" y2="404.258" gradientUnits="userSpaceOnUse">
<stop stop-color="#2950C9"/>
<stop offset="1" stop-color="#66176E"/>
</linearGradient>
<linearGradient id="paint12_linear" x1="24.7501" y1="117.903" x2="225.87" y2="391.809" gradientUnits="userSpaceOnUse">
<stop stop-color="#2950C9"/>
<stop offset="1" stop-color="#66176E"/>
</linearGradient>
<linearGradient id="paint13_linear" x1="37.7484" y1="108.359" x2="238.868" y2="382.265" gradientUnits="userSpaceOnUse">
<stop stop-color="#2950C9"/>
<stop offset="1" stop-color="#66176E"/>
</linearGradient>
<linearGradient id="paint14_linear" x1="90.7308" y1="69.4556" x2="291.851" y2="343.362" gradientUnits="userSpaceOnUse">
<stop stop-color="#2950C9"/>
<stop offset="1" stop-color="#66176E"/>
</linearGradient>
</defs>
</svg>
