<svg width="382" height="364" viewBox="0 0 382 364" fill="none" xmlns="http://www.w3.org/2000/svg">
<path d="M46.2224 245.853V98.6131C46.2224 85.8671 56.5551 75.5344 69.3011 75.5344H312.37C325.116 75.5344 335.449 85.8671 335.449 98.6131V245.853C335.449 258.599 325.116 268.932 312.37 268.932H69.3011C56.5551 268.932 46.2224 258.599 46.2224 245.853Z" fill="url(#paint0_linear)"/>
<path d="M0.348633 106.566V26.1986C0.348633 11.8015 12.0197 0.130371 26.4169 0.130371H106.784C121.181 0.130371 132.852 11.8015 132.852 26.1986V132.634H26.4169C12.0197 132.634 0.348633 120.963 0.348633 106.566Z" fill="url(#paint1_linear)"/>
<path d="M53.6135 25.7292C41.3124 27.2022 35.0754 33.5109 35.0754 44.4804V52.6436C35.0754 57.8475 32.8996 60.271 28.2288 60.271H27.448C26.8028 60.271 26.2798 60.7939 26.2798 61.4392V70.1526C26.2798 70.7979 26.8028 71.3208 27.448 71.3208H28.2288C32.8996 71.3208 35.0754 73.7443 35.0754 78.9483V87.1114C35.0754 98.1384 41.3142 104.448 53.6185 105.863C53.6632 105.868 53.708 105.871 53.7522 105.871C54.0374 105.871 54.3144 105.766 54.5298 105.575C54.778 105.353 54.9204 105.036 54.9204 104.703V95.907C54.9204 95.2937 54.4458 94.7845 53.8339 94.7416C48.5743 94.3729 46.1248 91.9484 46.1248 87.1114V78.9483C46.1248 73.9533 44.2904 69.5352 40.6686 65.7984C44.2904 62.0844 46.1248 57.6645 46.1248 52.6436V44.4804C46.1248 39.6931 48.578 37.2682 53.8449 36.8493C54.4522 36.801 54.9204 36.294 54.9204 35.6848V26.8892C54.9204 26.5552 54.7776 26.2371 54.5275 26.0153C54.2779 25.7936 53.9453 25.6904 53.6135 25.7292Z" fill="white"/>
<path d="M105.753 60.271H104.972C100.301 60.271 98.1253 57.8474 98.1253 52.6435V44.4804C98.1253 33.4534 91.8865 27.1442 79.5822 25.7287C79.2519 25.6927 78.9202 25.7958 78.671 26.0171C78.4228 26.2389 78.2804 26.556 78.2804 26.8892V35.6848C78.2804 36.2963 78.7517 36.8041 79.3614 36.8498C84.6246 37.2436 87.076 39.668 87.076 44.4804V52.6435C87.076 57.6398 88.8871 62.0588 92.4634 65.7957C88.8871 69.5329 87.076 73.952 87.076 78.9482V87.1114C87.076 91.8745 84.6215 94.2994 79.3505 94.7429C78.7454 94.794 78.2804 95.2996 78.2804 95.907V104.703C78.2804 105.036 78.4228 105.354 78.6723 105.576C78.8873 105.767 79.1638 105.871 79.4486 105.871C79.4937 105.871 79.5394 105.868 79.585 105.863C91.8874 104.418 98.1253 98.1092 98.1253 87.1114V78.9482C98.1253 73.7443 100.301 71.3208 104.972 71.3208H105.753C106.398 71.3208 106.921 70.7979 106.921 70.1526V61.4391C106.921 60.7939 106.398 60.271 105.753 60.271Z" fill="white"/>
<path d="M131.941 260.539C131.438 260.539 131.03 260.12 131.03 259.604V253.465C131.03 252.949 131.438 252.53 131.941 252.53C132.444 252.53 132.852 252.949 132.852 253.465V259.604C132.852 260.12 132.444 260.539 131.941 260.539ZM131.941 246.419C131.438 246.419 131.03 246 131.03 245.484V239.345C131.03 238.828 131.438 238.41 131.941 238.41C132.444 238.41 132.852 238.828 132.852 239.345V245.484C132.852 246 132.444 246.419 131.941 246.419ZM131.941 232.299C131.438 232.299 131.03 231.88 131.03 231.364V225.224C131.03 224.708 131.438 224.289 131.941 224.289C132.444 224.289 132.852 224.708 132.852 225.224V231.364C132.852 231.88 132.444 232.299 131.941 232.299ZM131.941 218.178C131.438 218.178 131.03 217.759 131.03 217.243V211.104C131.03 210.588 131.438 210.169 131.941 210.169C132.444 210.169 132.852 210.588 132.852 211.104V217.243C132.852 217.759 132.444 218.178 131.941 218.178ZM131.941 204.058C131.438 204.058 131.03 203.639 131.03 203.123V196.984C131.03 196.468 131.438 196.049 131.941 196.049C132.444 196.049 132.852 196.468 132.852 196.984V203.123C132.852 203.639 132.444 204.058 131.941 204.058ZM131.941 189.938C131.438 189.938 131.03 189.519 131.03 189.003V182.864C131.03 182.347 131.438 181.929 131.941 181.929C132.444 181.929 132.852 182.347 132.852 182.864V189.003C132.852 189.519 132.444 189.938 131.941 189.938ZM131.941 175.818C131.438 175.818 131.03 175.399 131.03 174.883V168.743C131.03 168.227 131.438 167.808 131.941 167.808C132.444 167.808 132.852 168.227 132.852 168.743V174.883C132.852 175.399 132.444 175.818 131.941 175.818ZM131.941 161.744C131.438 161.744 131.03 161.325 131.03 160.809V154.67C131.03 154.154 131.438 153.735 131.941 153.735C132.444 153.735 132.852 154.154 132.852 154.67V160.809C132.852 161.325 132.444 161.744 131.941 161.744ZM131.941 147.624C131.438 147.624 131.03 147.205 131.03 146.689V140.55C131.03 140.034 131.438 139.615 131.941 139.615C132.444 139.615 132.852 140.034 132.852 140.55V146.689C132.852 147.205 132.444 147.624 131.941 147.624Z" fill="url(#paint2_linear)"/>
<path d="M294.722 188.452H186.984C186.481 188.452 186.073 188.044 186.073 187.541C186.073 187.038 186.481 186.63 186.984 186.63H294.722C295.225 186.63 295.633 187.038 295.633 187.541C295.633 188.044 295.225 188.452 294.722 188.452Z" fill="white"/>
<path d="M294.721 208.093H205.054C204.551 208.093 204.143 207.686 204.143 207.182C204.143 206.679 204.551 206.271 205.054 206.271H294.721C295.224 206.271 295.633 206.679 295.633 207.182C295.633 207.686 295.224 208.093 294.721 208.093Z" fill="white"/>
<path d="M223.761 227.734H186.984C186.481 227.734 186.073 227.327 186.073 226.823C186.073 226.32 186.481 225.912 186.984 225.912H223.761C224.264 225.912 224.673 226.32 224.673 226.823C224.673 227.327 224.264 227.734 223.761 227.734Z" fill="white"/>
<path d="M294.722 149.17H186.984C186.481 149.17 186.073 148.762 186.073 148.258C186.073 147.755 186.481 147.347 186.984 147.347H294.722C295.225 147.347 295.633 147.755 295.633 148.258C295.633 148.762 295.225 149.17 294.722 149.17Z" fill="white"/>
<path d="M294.721 168.811H205.054C204.551 168.811 204.143 168.403 204.143 167.899C204.143 167.396 204.551 166.988 205.054 166.988H294.721C295.224 166.988 295.633 167.396 295.633 167.899C295.633 168.403 295.224 168.811 294.721 168.811Z" fill="white"/>
<path d="M247.713 126.361H186.983C184.971 126.361 183.339 124.73 183.339 122.716C183.339 120.703 184.971 119.072 186.983 119.072H247.713C249.726 119.072 251.358 120.703 251.358 122.716C251.358 124.73 249.726 126.361 247.713 126.361Z" fill="white"/>
<path d="M186.983 283.244H334.28C334.783 283.244 335.191 282.836 335.191 282.333C335.191 281.83 334.783 281.422 334.28 281.422H186.983C186.48 281.422 186.072 281.83 186.072 282.333C186.072 282.836 186.48 283.244 186.983 283.244Z" fill="url(#paint3_linear)"/>
<path d="M334.28 301.063H205.053C204.55 301.063 204.142 301.471 204.142 301.974C204.142 302.477 204.55 302.885 205.053 302.885H334.28C334.783 302.885 335.191 302.477 335.191 301.974C335.191 301.471 334.783 301.063 334.28 301.063Z" fill="url(#paint4_linear)"/>
<path d="M186.983 322.527H232.17C232.673 322.527 233.081 322.119 233.081 321.616C233.081 321.112 232.673 320.705 232.17 320.705H186.983C186.48 320.705 186.072 321.112 186.072 321.616C186.072 322.119 186.48 322.527 186.983 322.527Z" fill="url(#paint5_linear)"/>
<path d="M354.027 154.756H335.449V161.438H354.027C365.725 161.438 375.243 170.956 375.243 182.654V335.995C375.243 347.694 365.725 357.211 354.027 357.211H156.498C144.799 357.211 135.282 347.694 135.282 335.995V268.932H128.6V335.995C128.6 351.378 141.115 363.893 156.498 363.893H354.027C369.41 363.893 381.925 351.378 381.925 335.995V182.654C381.925 167.271 369.41 154.756 354.027 154.756Z" fill="url(#paint6_linear)"/>
<defs>
<linearGradient id="paint0_linear" x1="328.111" y1="82.322" x2="70.7617" y2="250.878" gradientUnits="userSpaceOnUse">
<stop stop-color="#00E7CB"/>
<stop offset="0.4209" stop-color="#00BFFF"/>
<stop offset="1" stop-color="#D180D5"/>
</linearGradient>
<linearGradient id="paint1_linear" x1="21.0873" y1="10.9879" x2="129.342" y2="142.745" gradientUnits="userSpaceOnUse">
<stop stop-color="#2950C9"/>
<stop offset="1" stop-color="#66176E"/>
</linearGradient>
<linearGradient id="paint2_linear" x1="144.792" y1="295.575" x2="121.215" y2="120.369" gradientUnits="userSpaceOnUse">
<stop stop-color="#2950C9"/>
<stop offset="1" stop-color="#66176E"/>
</linearGradient>
<linearGradient id="paint3_linear" x1="184.081" y1="174.699" x2="366.814" y2="431.63" gradientUnits="userSpaceOnUse">
<stop stop-color="#2950C9"/>
<stop offset="1" stop-color="#66176E"/>
</linearGradient>
<linearGradient id="paint4_linear" x1="180.804" y1="177.029" x2="363.537" y2="433.96" gradientUnits="userSpaceOnUse">
<stop stop-color="#2950C9"/>
<stop offset="1" stop-color="#66176E"/>
</linearGradient>
<linearGradient id="paint5_linear" x1="131.622" y1="212.008" x2="314.356" y2="468.94" gradientUnits="userSpaceOnUse">
<stop stop-color="#2950C9"/>
<stop offset="1" stop-color="#66176E"/>
</linearGradient>
<linearGradient id="paint6_linear" x1="191.382" y1="169.506" x2="374.116" y2="426.437" gradientUnits="userSpaceOnUse">
<stop stop-color="#2950C9"/>
<stop offset="1" stop-color="#66176E"/>
</linearGradient>
</defs>
</svg>
