<svg width="578" height="744" viewBox="0 0 578 744" fill="none" xmlns="http://www.w3.org/2000/svg">
<path d="M143.906 255.349H0.826883L0.826172 540.735H143.906L143.906 255.349Z" fill="url(#paint0_linear)"/>
<path d="M143.906 255.349H2.81738V521.83H143.906V255.349Z" fill="url(#paint1_linear)"/>
<path d="M103.566 255.234H40.4331V453.132H103.566V255.234Z" fill="url(#paint2_linear)"/>
<path d="M55.5421 302.719L8.64728 268.952C-1.78087 261.443 -1.78087 249.156 8.64728 241.647L55.5421 207.88C64.7956 201.217 79.9376 201.217 89.1911 207.88L136.086 241.647C146.514 249.156 146.514 261.443 136.086 268.952L89.1911 302.719C79.9376 309.382 64.7956 309.382 55.5421 302.719Z" fill="white"/>
<path d="M113.61 242.298C108.848 230.851 92.1886 227.767 72.3667 227.767C52.5448 227.767 35.8852 230.851 31.124 242.298H29.7573V254.373C29.7573 269.068 48.8342 280.98 72.3667 280.98C95.8993 280.98 114.976 269.068 114.976 254.373V242.298H113.61Z" fill="url(#paint3_linear)"/>
<path d="M72.3667 269.389C95.8992 269.389 114.976 257.477 114.976 242.782C114.976 228.088 95.8992 216.176 72.3667 216.176C48.8342 216.176 29.7573 228.088 29.7573 242.782C29.7573 257.477 48.8342 269.389 72.3667 269.389Z" fill="url(#paint4_linear)"/>
<path d="M87.0628 230.378C85.321 226.19 79.2266 224.952 71.9755 224.952C64.7243 224.952 58.6299 226.19 56.8881 230.378H56.3882V231.272V237.007V237.902C56.3882 243.277 63.3668 247.635 71.9755 247.635C80.5841 247.635 87.5627 243.277 87.5627 237.902V237.007V231.272V230.378H87.0628Z" fill="url(#paint5_linear)"/>
<path d="M71.9754 239.408C80.584 239.408 87.5627 235.05 87.5627 229.675C87.5627 224.299 80.584 219.941 71.9754 219.941C63.3668 219.941 56.3882 224.299 56.3882 229.675C56.3882 235.05 63.3668 239.408 71.9754 239.408Z" fill="url(#paint6_linear)"/>
<path d="M98.4556 204.389C95.3986 197.039 84.7022 195.059 71.9754 195.059C59.2486 195.059 48.5521 197.039 45.4951 204.389H44.6177V212.142C44.6177 221.576 56.8661 229.224 71.9754 229.224C87.0846 229.224 99.3331 221.576 99.3331 212.142V204.389H98.4556Z" fill="url(#paint7_linear)"/>
<path d="M71.9754 221.783C87.0846 221.783 99.3331 214.135 99.3331 204.7C99.3331 195.265 87.0846 187.617 71.9754 187.617C56.8661 187.617 44.6177 195.265 44.6177 204.7C44.6177 214.135 56.8661 221.783 71.9754 221.783Z" fill="url(#paint8_linear)"/>
<path d="M84.0261 183.866H59.9283V203.185C59.9284 203.185 59.9286 203.185 59.9287 203.185C59.8962 204.615 60.4054 206.069 61.52 207.4C64.8267 211.349 72.1886 212.717 77.963 210.455C81.7735 208.963 83.939 206.263 84.0222 203.465C84.0236 203.464 84.0248 203.462 84.0261 203.461V183.866Z" fill="url(#paint9_linear)"/>
<path d="M71.9753 192.105C78.6296 192.105 84.0239 188.416 84.0239 183.866C84.0239 179.316 78.6296 175.627 71.9753 175.627C65.3211 175.627 59.9268 179.316 59.9268 183.866C59.9268 188.416 65.3211 192.105 71.9753 192.105Z" fill="#3BCCFF"/>
<path d="M77.314 181.788C79.0024 183.807 77.9809 186.378 75.0324 187.53C72.084 188.683 68.325 187.98 66.6366 185.961C64.9483 183.942 65.9698 181.371 68.9182 180.218C71.8667 179.066 75.6256 179.769 77.314 181.788Z" fill="url(#paint10_linear)"/>
<path d="M18.5142 490.315V326.164C18.5142 315.289 25.1827 311.175 33.4092 316.974C41.6356 322.774 48.3043 336.291 48.3043 347.166V490.315H18.5142Z" fill="white"/>
<path d="M30.9924 490.315H18.5142V326.164C18.5142 316.319 23.9795 312.015 31.1181 315.59C31.0354 316.372 30.9924 317.197 30.9924 318.066V490.315Z" fill="url(#paint11_linear)"/>
<path d="M485.139 264.197H390.847V497.979H485.139V264.197Z" fill="url(#paint12_linear)"/>
<path d="M426.905 295.445L396.001 273.192C389.128 268.244 389.128 260.146 396.001 255.198L426.905 232.945C433.004 228.554 442.982 228.554 449.081 232.945L479.985 255.198C486.858 260.146 486.858 268.244 479.985 273.192L449.081 295.445C442.982 299.837 433.004 299.837 426.905 295.445Z" fill="white"/>
<path d="M425.383 230.116L437.276 221.292C437.331 221.248 437.388 221.206 437.445 221.166C437.461 221.154 437.478 221.143 437.494 221.131C437.535 221.102 437.577 221.074 437.619 221.047C437.638 221.035 437.657 221.022 437.677 221.01C437.719 220.984 437.762 220.958 437.805 220.933C437.823 220.923 437.84 220.912 437.857 220.903C437.978 220.835 438.102 220.773 438.229 220.716C438.248 220.708 438.266 220.701 438.285 220.693C438.331 220.673 438.377 220.654 438.424 220.636C438.445 220.628 438.467 220.619 438.489 220.611C438.536 220.594 438.583 220.577 438.631 220.562C438.65 220.555 438.669 220.548 438.689 220.542C438.823 220.5 438.959 220.463 439.098 220.433C439.119 220.428 439.139 220.424 439.16 220.42C439.21 220.41 439.26 220.4 439.311 220.391C439.335 220.387 439.358 220.383 439.382 220.38C439.433 220.371 439.485 220.364 439.537 220.358C439.558 220.355 439.578 220.352 439.599 220.35C439.745 220.333 439.892 220.323 440.042 220.318C440.064 220.318 440.086 220.318 440.108 220.317C440.162 220.316 440.216 220.316 440.271 220.317C440.296 220.317 440.321 220.318 440.347 220.318C440.401 220.32 440.456 220.322 440.512 220.325C440.534 220.326 440.557 220.327 440.58 220.328C440.734 220.338 440.891 220.355 441.05 220.377C441.073 220.38 441.097 220.384 441.121 220.388C441.177 220.396 441.235 220.406 441.292 220.416C441.319 220.421 441.346 220.426 441.373 220.431C441.43 220.442 441.488 220.454 441.546 220.466C441.57 220.472 441.594 220.477 441.618 220.482C441.781 220.519 441.946 220.562 442.112 220.612C442.137 220.619 442.162 220.627 442.186 220.635C442.246 220.653 442.305 220.672 442.365 220.692C442.393 220.702 442.422 220.712 442.45 220.721C442.51 220.742 442.57 220.764 442.63 220.786C442.655 220.795 442.681 220.805 442.706 220.814C442.876 220.879 443.046 220.95 443.218 221.027C443.244 221.039 443.27 221.051 443.297 221.063C443.358 221.091 443.419 221.12 443.48 221.15C443.51 221.164 443.539 221.179 443.569 221.193C443.63 221.224 443.692 221.255 443.753 221.287C443.78 221.301 443.806 221.315 443.833 221.329C444.007 221.421 444.182 221.52 444.358 221.626C444.386 221.642 444.413 221.659 444.44 221.676C444.502 221.713 444.564 221.752 444.626 221.791C444.657 221.811 444.687 221.83 444.718 221.85C444.78 221.89 444.843 221.932 444.905 221.973C444.933 221.992 444.96 222.01 444.988 222.029C445.077 222.089 445.166 222.151 445.255 222.215L462.602 234.576C465.613 236.733 467.936 239.829 469.292 243.454C470.357 246.072 470.879 248.793 470.635 251.165C470.635 251.165 470.635 251.165 470.635 251.165C470.604 254.648 470.619 262.154 470.619 262.154L458.903 270.829L456.964 263.956L425.383 230.116Z" fill="#3BCCFF"/>
<path d="M431.458 251.075L448.804 263.437C452.673 266.207 458.903 270.829 458.903 270.829C458.903 270.829 458.888 263.324 458.918 259.841C458.978 252.978 455.876 246.825 450.886 243.252L433.539 230.891C428.548 227.317 423.997 228.936 423.425 234.486C422.853 240.037 426.467 247.502 431.458 251.075Z" fill="#0071BC"/>
<path d="M468.25 257.68C469.333 254.589 468.686 251.55 466.805 250.891C464.924 250.232 462.522 252.203 461.439 255.293C460.357 258.383 461.004 261.422 462.884 262.081C464.765 262.74 467.168 260.77 468.25 257.68Z" fill="white"/>
<path d="M405.203 245.257L417.096 236.433C417.152 236.389 417.208 236.347 417.265 236.306C417.281 236.294 417.298 236.283 417.314 236.272C417.356 236.243 417.397 236.215 417.439 236.188C417.458 236.175 417.478 236.163 417.497 236.151C417.539 236.124 417.582 236.098 417.626 236.073C417.643 236.063 417.66 236.053 417.677 236.043C417.798 235.975 417.923 235.913 418.05 235.857C418.068 235.849 418.086 235.841 418.105 235.833C418.151 235.814 418.197 235.795 418.244 235.776C418.266 235.768 418.287 235.76 418.309 235.752C418.356 235.735 418.403 235.718 418.451 235.702C418.47 235.696 418.49 235.689 418.509 235.683C418.643 235.64 418.779 235.604 418.919 235.573C418.939 235.569 418.959 235.565 418.98 235.561C419.03 235.55 419.08 235.541 419.131 235.532C419.155 235.528 419.179 235.524 419.202 235.52C419.253 235.512 419.305 235.505 419.357 235.498C419.378 235.496 419.399 235.493 419.42 235.49C419.565 235.474 419.712 235.463 419.862 235.459C419.884 235.458 419.906 235.458 419.928 235.458C419.982 235.457 420.036 235.457 420.091 235.457C420.116 235.458 420.141 235.458 420.167 235.459C420.222 235.46 420.277 235.462 420.332 235.465C420.354 235.467 420.377 235.468 420.4 235.469C420.555 235.479 420.711 235.495 420.87 235.518C420.894 235.521 420.917 235.525 420.941 235.528C420.998 235.537 421.055 235.546 421.112 235.557C421.139 235.561 421.166 235.566 421.193 235.572C421.251 235.583 421.309 235.594 421.367 235.607C421.391 235.612 421.415 235.617 421.439 235.623C421.602 235.66 421.766 235.703 421.933 235.753C421.957 235.76 421.982 235.768 422.007 235.776C422.066 235.794 422.126 235.813 422.185 235.833C422.214 235.843 422.242 235.852 422.27 235.862C422.33 235.883 422.39 235.904 422.45 235.927C422.476 235.936 422.501 235.945 422.527 235.955C422.696 236.019 422.867 236.09 423.039 236.168C423.065 236.18 423.091 236.192 423.117 236.204C423.178 236.232 423.239 236.261 423.3 236.29C423.33 236.305 423.359 236.319 423.389 236.334C423.45 236.364 423.512 236.396 423.574 236.428C423.6 236.442 423.626 236.455 423.653 236.469C423.827 236.562 424.003 236.661 424.179 236.766C424.206 236.783 424.233 236.8 424.26 236.816C424.322 236.854 424.384 236.893 424.447 236.932C424.477 236.951 424.508 236.971 424.538 236.991C424.601 237.031 424.663 237.072 424.726 237.114C424.753 237.133 424.781 237.151 424.808 237.169C424.897 237.23 424.986 237.292 425.075 237.356L442.422 249.717C445.434 251.873 447.756 254.97 449.112 258.594C450.177 261.212 450.699 263.934 450.455 266.306C450.455 266.306 450.455 266.306 450.455 266.306C450.425 269.789 450.439 277.294 450.439 277.294L438.723 285.97L436.784 279.096L405.203 245.257Z" fill="#61F7E5"/>
<path d="M411.278 266.215L428.625 278.576C432.494 281.346 438.723 285.969 438.723 285.969C438.723 285.969 438.709 278.463 438.739 274.981C438.798 268.118 435.696 261.965 430.706 258.392L413.359 246.03C408.369 242.457 403.818 244.075 403.245 249.626C402.673 255.177 406.288 262.642 411.278 266.215Z" fill="url(#paint13_linear)"/>
<path d="M448.071 272.82C449.154 269.73 448.508 266.691 446.627 266.032C444.746 265.373 442.343 267.343 441.26 270.433C440.177 273.523 440.824 276.563 442.705 277.222C444.586 277.88 446.988 275.91 448.071 272.82Z" fill="white"/>
<path d="M420.812 337.36H114.391V584.172H420.812V337.36Z" fill="url(#paint14_linear)"/>
<path d="M420.812 337.36H118.654V584.172H420.812V337.36Z" fill="url(#paint15_linear)"/>
<path d="M334.418 337.218H199.212V584.172H334.418V337.218Z" fill="url(#paint16_linear)"/>
<path d="M231.569 438.913L131.139 366.597C108.805 350.516 108.805 324.201 131.139 308.12L231.569 235.804C251.387 221.534 283.815 221.534 303.633 235.804L404.064 308.12C426.397 324.201 426.397 350.516 404.064 366.597L303.633 438.913C283.815 453.183 251.387 453.183 231.569 438.913Z" fill="white"/>
<path d="M377.667 327.071C365.061 296.764 320.954 288.599 268.474 288.599C215.994 288.599 171.886 296.764 159.28 327.071H155.662V339.93C155.662 378.834 206.17 410.373 268.474 410.373C330.778 410.373 381.285 378.834 381.285 339.93V327.071H377.667Z" fill="url(#paint17_linear)"/>
<path d="M268.474 398.798C330.778 398.798 381.285 367.259 381.285 328.355C381.285 289.45 330.778 257.912 268.474 257.912C206.17 257.912 155.662 289.45 155.662 328.355C155.662 367.259 206.17 398.798 268.474 398.798Z" fill="url(#paint18_linear)"/>
<path d="M317.955 324.769C317.955 324.93 317.954 333.199 317.951 333.358C317.575 352.123 295.177 359.147 267.602 359.147C239.793 359.147 217.25 343.756 217.25 324.769C217.25 305.783 239.793 290.392 267.602 290.392C295.412 290.392 317.955 305.783 317.955 324.769Z" fill="url(#paint19_linear)"/>
<path d="M267.602 372.625C295.411 372.625 317.954 357.233 317.954 338.247C317.954 319.261 295.411 303.869 267.602 303.869C239.792 303.869 217.249 319.261 217.249 338.247C217.249 357.233 239.792 372.625 267.602 372.625Z" fill="#003294"/>
<path d="M373.953 303.784C364.023 285.215 341.428 273.392 312.57 266.059L211.939 321.369C210.022 322.112 208.146 322.891 206.312 323.706L294.581 377.544L304.912 359.277L328.023 366.084L338.576 348.737L351.929 347.415L363.553 323.396L373.953 303.784Z" fill="url(#paint20_linear)"/>
<path d="M326.257 204.293H322.818V230.534H326.257V204.293Z" fill="url(#paint21_linear)"/>
<path d="M218.453 204.697H209.275V238.012H218.453V204.697Z" fill="url(#paint22_linear)"/>
<path d="M172.744 323.396C173.336 326.943 174.357 330.405 175.791 333.752C176.607 333.58 177.465 333.483 178.356 333.483C183.509 333.483 187.686 336.557 187.686 340.35C187.686 342.796 185.943 344.938 183.326 346.154C186.206 349.748 189.589 353.137 193.414 356.279C195.003 355.448 196.95 354.951 199.062 354.951C204.389 354.951 208.707 358.071 208.707 361.919C208.707 363.253 208.179 364.495 207.278 365.555C211.713 367.97 216.483 370.124 221.53 371.987C223.355 370.116 226.434 368.886 229.926 368.886C235.528 368.886 240.069 372.049 240.069 375.952C240.069 376.374 240.006 376.786 239.904 377.188C245.597 378.348 251.517 379.165 257.607 379.606C258.725 376.373 262.761 373.974 267.585 373.974C272.446 373.974 276.511 376.41 277.591 379.683C283.423 379.305 289.103 378.583 294.582 377.544C294.394 377.002 294.283 376.437 294.283 375.853C294.283 372.005 298.602 368.886 303.928 368.886C307.722 368.886 310.995 370.472 312.57 372.773C318.054 370.87 323.226 368.627 328.023 366.085C326.818 364.922 326.096 363.483 326.096 361.919C326.096 358.071 330.414 354.951 335.741 354.951C338.257 354.951 340.54 355.653 342.257 356.793C345.885 353.874 349.122 350.736 351.93 347.415C348.813 346.261 346.677 343.922 346.677 341.218C346.677 337.37 350.995 334.251 356.322 334.251C357.64 334.251 358.894 334.443 360.038 334.788C361.712 331.12 362.9 327.312 363.553 323.396V246.746H352.51V223.414H342.799V246.746H270.386V247.131H202.11V223.177H183.985V247.131H172.675V323.396H172.744Z" fill="url(#paint23_linear)"/>
<path d="M172.606 323.396C172.674 325.855 174.722 333.383 175.79 333.752V260.062H172.606V323.396Z" fill="url(#paint24_linear)"/>
<path d="M183.325 346.155C185.296 349.599 190.019 354.295 193.39 356.28V283.661H183.325V346.155Z" fill="url(#paint25_linear)"/>
<path d="M207.278 365.556C212.32 367.682 216.693 371.25 221.53 371.988V303.062H207.278V365.556Z" fill="url(#paint26_linear)"/>
<path d="M239.904 377.189C245.714 377.71 251.619 379.413 257.606 379.608V314.695H239.904V377.189Z" fill="url(#paint27_linear)"/>
<path d="M277.59 379.685C283.331 379.512 289 378.018 294.581 377.546V303.062H277.59V379.685Z" fill="url(#paint28_linear)"/>
<path d="M312.57 372.773C317.82 372.007 324.218 367.455 328.023 366.085V303.592H312.57V372.773Z" fill="url(#paint29_linear)"/>
<path d="M342.257 356.793C345.537 355.937 349.931 348.767 351.929 347.415V284.922H342.257V356.793Z" fill="url(#paint30_linear)"/>
<path d="M360.232 261.058V334.789C361.347 334.404 363.552 326.986 363.552 323.397V261.058H360.232Z" fill="url(#paint31_linear)"/>
<path d="M240.498 194.457C240.498 198.378 236.145 201.557 230.775 201.557C227.107 201.557 223.916 200.073 222.26 197.883C216.987 199.79 212.015 202.017 207.4 204.521C208.47 205.63 209.105 206.98 209.105 208.44C209.105 212.203 204.927 215.253 199.774 215.253C197.459 215.253 195.345 214.634 193.714 213.614C190.055 216.59 186.794 219.789 183.984 223.177C186.507 224.396 188.174 226.485 188.174 228.86C188.174 232.623 183.996 235.674 178.843 235.674C177.937 235.674 177.063 235.574 176.235 235.398C174.517 239.174 173.31 243.096 172.674 247.131C177.112 247.636 180.505 250.333 180.505 253.593C180.505 256.87 177.078 259.577 172.606 260.062C173.17 263.904 174.244 267.647 175.79 271.258C176.606 271.087 177.465 270.989 178.356 270.989C183.509 270.989 187.686 274.064 187.686 277.856C187.686 280.302 185.942 282.444 183.325 283.661C186.205 287.255 189.588 290.643 193.413 293.786C195.002 292.954 196.95 292.458 199.062 292.458C204.389 292.458 208.707 295.577 208.707 299.425C208.707 300.759 208.178 302.002 207.278 303.061C211.713 305.476 216.483 307.63 221.53 309.494C223.355 307.622 226.433 306.392 229.926 306.392C235.527 306.392 240.068 309.556 240.068 313.458C240.068 313.881 240.005 314.292 239.904 314.694C245.597 315.855 251.516 316.672 257.606 317.113C258.724 313.879 262.761 311.48 267.584 311.48C272.446 311.48 276.51 313.917 277.59 317.19C283.422 316.812 289.102 316.089 294.581 315.051C294.393 314.508 294.283 313.944 294.283 313.359C294.283 309.511 298.601 306.392 303.928 306.392C307.722 306.392 310.995 307.978 312.57 310.279C318.054 308.377 323.226 306.134 328.023 303.591C326.818 302.429 326.095 300.989 326.095 299.425C326.095 295.577 330.414 292.458 335.74 292.458C338.256 292.458 340.539 293.159 342.257 294.299C345.884 291.381 349.122 288.242 351.929 284.922C348.813 283.767 346.676 281.428 346.676 278.724C346.676 274.877 350.995 271.757 356.322 271.757C357.639 271.757 358.894 271.949 360.038 272.295C361.712 268.626 362.899 264.818 363.552 260.902C358.46 260.677 354.423 257.599 354.423 253.824C354.423 250.049 358.46 246.971 363.552 246.746C362.932 243.026 361.83 239.404 360.286 235.906C359.294 236.146 358.233 236.283 357.125 236.283C351.756 236.283 347.403 233.219 347.403 229.439C347.403 226.835 349.469 224.571 352.509 223.414C349.658 219.942 346.33 216.667 342.59 213.624C340.834 214.659 338.561 215.287 336.072 215.287C330.519 215.287 326.018 212.176 326.018 208.338C326.018 206.743 326.804 205.277 328.112 204.104C323.758 201.791 319.097 199.723 314.17 197.935C312.703 200.497 309.239 202.298 305.198 202.298C299.828 202.298 295.475 199.119 295.475 195.198C295.475 194.385 295.671 193.608 296.016 192.88C287.195 191.108 277.84 190.151 268.147 190.151C258.444 190.151 249.079 191.11 240.251 192.885C240.407 193.392 240.498 193.916 240.498 194.457Z" fill="url(#paint32_linear)"/>
<path d="M268.145 297.09C305.929 297.09 336.56 277.017 336.56 252.255C336.56 227.494 305.929 207.421 268.145 207.421C230.36 207.421 199.73 227.494 199.73 252.255C199.73 277.017 230.36 297.09 268.145 297.09Z" fill="url(#paint33_linear)"/>
<path d="M236.323 170.68L212.76 177.956L209.506 182.485L214.158 189.218L235.58 196.828L242.435 182.73L236.323 170.68Z" fill="url(#paint34_linear)"/>
<path d="M299.204 170.68L292.133 184.566L300.335 196.828L323.348 188.416L324.572 178.788L299.204 170.68Z" fill="url(#paint35_linear)"/>
<path d="M301.309 173.694H294.092V193.554H301.309V173.694Z" fill="url(#paint36_linear)"/>
<path d="M244.026 173.533H234.32V193.555H244.026V173.533Z" fill="url(#paint37_linear)"/>
<path d="M265.325 198.343H252.595V220.065H265.325V198.343Z" fill="url(#paint38_linear)"/>
<path d="M282.708 198.484H270.222V221.696H282.708V198.484Z" fill="url(#paint39_linear)"/>
<path d="M244.026 181.75L259.205 164.979H275.937L292.133 184.565L267.621 209.168L244.026 181.75Z" fill="url(#paint40_linear)"/>
<path d="M264.591 156.29L247.453 148.578L235.579 150.469L233.743 159.536L242.434 182.731L235.579 196.829H253.819L244.026 181.751L264.591 156.29Z" fill="url(#paint41_linear)"/>
<path d="M328.754 231.446C326.532 228.673 323.883 226.069 320.859 223.677L302.809 231.932V290.914C313.794 286.675 322.811 280.483 328.754 273.066V231.446Z" fill="url(#paint42_linear)"/>
<path d="M267.621 245.544V297.085C267.795 297.086 267.969 297.089 268.145 297.089C281.678 297.089 294.293 294.513 304.912 290.07V245.544L292.384 257.086L267.621 245.544Z" fill="url(#paint43_linear)"/>
<path d="M206.774 232.426V272.086C212.562 279.763 221.601 286.2 232.718 290.618V231.932L215.154 223.898C211.894 226.511 209.077 229.37 206.774 232.426Z" fill="url(#paint44_linear)"/>
<path d="M230.359 245.544V289.633C241.051 294.284 253.851 297.017 267.621 297.085V245.544L242.877 257.086L230.359 245.544Z" fill="url(#paint45_linear)"/>
<path d="M269.487 157.392L286.011 148.578L299.204 150.047L301.926 164.981L292.133 184.567L298.95 196.407L280.382 196.829L291.644 183.463L269.487 157.392Z" fill="url(#paint46_linear)"/>
<path d="M304.007 196.406H281.606V226.553H304.007V196.406Z" fill="url(#paint47_linear)"/>
<path d="M253.819 196.829H235.58V221.698H253.819V196.829Z" fill="url(#paint48_linear)"/>
<path d="M206.774 249.642V183.69L232.718 195.557V261.595L230.615 260.627V263.017C216.142 259.951 206.802 255.111 206.774 249.642C206.774 249.642 206.774 249.642 206.774 249.642Z" fill="url(#paint49_linear)"/>
<path d="M328.754 249.642V183.69L302.809 195.557V261.595L304.912 260.627V263.017C319.385 259.951 328.725 255.111 328.754 249.642C328.754 249.642 328.754 249.642 328.754 249.642Z" fill="url(#paint50_linear)"/>
<path d="M304.912 209.169L292.384 220.711L267.621 209.169V277.224C276.588 283.187 285.458 286.663 292.384 286.663C294.474 286.663 296.387 286.346 298.072 285.687C302.435 283.978 304.663 280.203 304.91 275.122L304.912 275.121V209.169Z" fill="url(#paint51_linear)"/>
<path d="M230.359 209.169L242.877 220.711L267.621 209.169V277.224C258.661 283.187 249.798 286.663 242.877 286.663C240.789 286.663 238.877 286.346 237.194 285.687C232.835 283.978 230.609 280.203 230.361 275.122L230.359 275.121V209.169Z" fill="url(#paint52_linear)"/>
<path d="M328.753 183.69C328.783 177.96 318.586 172.871 302.952 169.763C306.945 158.97 305.686 150.38 298.445 147.498C296.739 146.819 294.796 146.494 292.667 146.494C285.755 146.495 276.892 149.923 267.907 155.814C258.94 149.851 250.069 146.375 243.143 146.375C241.053 146.375 239.14 146.691 237.455 147.351C230.184 150.199 228.836 158.783 232.718 169.595C217.053 172.627 206.804 177.667 206.774 183.396C206.745 189.126 216.941 194.216 232.575 197.323C228.582 208.116 229.841 216.706 237.083 219.588C238.788 220.267 240.731 220.592 242.861 220.592C249.772 220.592 258.636 217.163 267.621 211.273C276.588 217.235 285.458 220.711 292.385 220.711C294.474 220.711 296.388 220.395 298.072 219.735C305.344 216.888 306.691 208.304 302.809 197.491C318.474 194.459 328.724 189.419 328.753 183.69ZM292.668 150.588H292.668H292.668C293.771 150.588 294.675 150.734 295.433 151.036C298.761 152.361 300.007 157.141 298.685 163.512C298.336 165.193 297.825 166.943 297.163 168.743C292.392 168.002 287.231 167.433 281.788 167.066C278.635 164.013 275.365 161.227 272.069 158.757C272.773 158.295 273.478 157.848 274.182 157.418C284.28 151.254 290.473 150.588 292.668 150.588ZM292.164 188.416C293.402 190.491 294.484 192.54 295.4 194.543C292.402 194.987 289.261 195.355 286.011 195.643C287.093 194.483 288.156 193.293 289.194 192.073C290.233 190.853 291.222 189.633 292.164 188.416ZM284.021 190.014C282.216 192.134 280.306 194.193 278.322 196.167C275.023 196.325 271.645 196.407 268.216 196.407C268.042 196.407 267.871 196.406 267.698 196.406C264.09 196.397 260.538 196.298 257.075 196.115C255.112 194.133 253.224 192.064 251.44 189.935C249.645 187.792 247.994 185.637 246.493 183.492C248.016 181.354 249.69 179.207 251.507 177.073C253.311 174.952 255.221 172.893 257.205 170.92C260.504 170.761 263.883 170.68 267.313 170.68H267.334C267.5 170.68 267.664 170.68 267.83 170.68C271.438 170.689 274.989 170.788 278.452 170.971C280.415 172.954 282.304 175.022 284.087 177.151C285.882 179.294 287.534 181.449 289.035 183.594C287.512 185.732 285.838 187.879 284.021 190.014ZM267.651 205.393C265.597 203.842 263.567 202.17 261.585 200.401C263.589 200.461 265.62 200.495 267.676 200.499C267.857 200.5 268.035 200.5 268.216 200.5C270.088 200.5 271.94 200.475 273.769 200.429C271.769 202.19 269.721 203.851 267.651 205.393ZM246.246 191.969C247.272 193.195 248.323 194.39 249.393 195.557C246.146 195.253 243.01 194.869 240.015 194.41C240.952 192.411 242.054 190.367 243.314 188.299C244.243 189.52 245.22 190.745 246.246 191.969ZM243.364 178.67C242.125 176.595 241.044 174.546 240.127 172.543C243.126 172.099 246.266 171.732 249.516 171.443C248.434 172.604 247.371 173.794 246.333 175.013C245.295 176.233 244.305 177.453 243.364 178.67ZM267.877 161.693C269.93 163.245 271.961 164.916 273.942 166.686C271.939 166.625 269.907 166.592 267.851 166.587C267.67 166.586 267.492 166.586 267.312 166.586C265.439 166.586 263.588 166.611 261.759 166.657C263.758 164.897 265.806 163.235 267.877 161.693ZM289.282 175.117C288.256 173.892 287.205 172.696 286.134 171.53C289.381 171.834 292.517 172.218 295.513 172.677C294.576 174.675 293.473 176.719 292.213 178.788C291.284 177.566 290.308 176.342 289.282 175.117ZM237.049 163.363C235.793 156.986 237.088 152.212 240.43 150.904C241.177 150.611 242.065 150.469 243.14 150.468H243.142H243.143C245.331 150.468 251.503 151.139 261.555 157.35C262.275 157.795 262.995 158.258 263.715 158.737C260.393 161.191 257.094 163.961 253.909 166.999C248.463 167.34 243.296 167.884 238.518 168.601C237.874 166.798 237.381 165.046 237.049 163.363ZM226.85 191.643C218.145 189.198 212.747 186.044 212.76 183.411C212.766 182.286 213.754 181.069 215.697 179.793C218.162 178.175 221.992 176.618 226.774 175.292C229.122 174.64 231.647 174.053 234.32 173.533C235.768 176.728 237.627 180.069 239.883 183.476C237.592 186.872 235.698 190.203 234.218 193.392C231.612 192.871 229.147 192.288 226.85 191.643ZM242.861 216.498C241.757 216.498 240.852 216.352 240.094 216.05C236.766 214.726 235.52 209.945 236.842 203.574C237.191 201.893 237.703 200.144 238.365 198.343C243.136 199.084 248.296 199.653 253.739 200.02C256.892 203.073 260.162 205.859 263.459 208.329C262.754 208.791 262.049 209.238 261.345 209.668C251.248 215.833 245.055 216.498 242.861 216.498ZM298.478 203.723C299.735 210.1 298.439 214.874 295.098 216.183C294.35 216.475 293.463 216.618 292.385 216.618C290.197 216.618 284.025 215.947 273.973 209.736C273.253 209.291 272.533 208.828 271.813 208.349C275.135 205.895 278.434 203.125 281.618 200.087C287.064 199.746 292.231 199.203 297.01 198.485C297.653 200.288 298.147 202.04 298.478 203.723ZM319.83 187.293C317.365 188.911 313.535 190.468 308.754 191.795C306.406 192.446 303.881 193.034 301.207 193.554C299.76 190.358 297.901 187.017 295.644 183.61C297.935 180.215 299.829 176.883 301.309 173.694C303.915 174.215 306.381 174.799 308.678 175.444C317.382 177.888 322.781 181.042 322.767 183.676C322.762 184.8 321.773 186.018 319.83 187.293Z" fill="url(#paint53_linear)"/>
<path d="M257.075 196.115C260.538 196.298 264.09 196.397 267.698 196.406C267.871 196.406 268.042 196.406 268.216 196.406C271.645 196.406 275.023 196.325 278.322 196.166C278.389 196.1 278.454 196.032 278.52 195.966V156.044H256.686V195.716C256.816 195.848 256.944 195.983 257.075 196.115Z" fill="url(#paint54_linear)"/>
<path d="M267.601 163.51C273.63 163.51 278.518 160.167 278.518 156.044C278.518 151.921 273.63 148.579 267.601 148.579C261.572 148.579 256.684 151.921 256.684 156.044C256.684 160.167 261.572 163.51 267.601 163.51Z" fill="url(#paint55_linear)"/>
<path d="M278.517 181.305C278.513 184.771 276.544 188.139 273.026 189.985C267.794 192.731 261.124 191.07 258.128 186.276C257.146 184.705 256.684 182.993 256.686 181.305V195.481C256.816 195.659 256.944 195.839 257.075 196.016C260.538 196.261 264.09 196.394 267.697 196.406C267.871 196.406 268.042 196.407 268.216 196.407C271.645 196.407 275.023 196.297 278.322 196.085C278.389 195.996 278.454 195.905 278.52 195.816V181.305H278.517Z" fill="url(#paint56_linear)"/>
<path d="M284.269 114.445C282.363 109.864 275.696 108.51 267.764 108.51C259.831 108.51 253.164 109.864 251.258 114.445H250.711V115.424V119.158V120.136C250.711 126.017 258.346 130.784 267.764 130.784C277.181 130.784 284.816 126.017 284.816 120.136V119.158V115.424V114.445H284.269Z" fill="url(#paint57_linear)"/>
<path d="M267.764 124.323C277.181 124.323 284.816 119.556 284.816 113.675C284.816 107.795 277.181 103.027 267.764 103.027C258.346 103.027 250.711 107.795 250.711 113.675C250.711 119.556 258.346 124.323 267.764 124.323Z" fill="url(#paint58_linear)"/>
<path d="M296.732 86.2682C293.388 78.2278 281.687 76.0615 267.764 76.0615C253.841 76.0615 242.139 78.2278 238.795 86.2682H237.835V94.7499C237.835 105.071 251.234 113.438 267.764 113.438C284.293 113.438 297.692 105.071 297.692 94.7499V86.2682H296.732Z" fill="url(#paint59_linear)"/>
<path d="M267.764 105.297C284.293 105.297 297.692 96.9296 297.692 86.6083C297.692 76.287 284.293 67.9199 267.764 67.9199C251.235 67.9199 237.835 76.287 237.835 86.6083C237.835 96.9296 251.235 105.297 267.764 105.297Z" fill="url(#paint60_linear)"/>
<path d="M382.164 613.514L330.012 644.922C324.877 648.699 322.746 648.901 322.746 643.767L339.379 535.652L310.936 507.935V482.886C310.936 474.193 315.098 467.173 320.233 463.396L382.164 417.845C387.299 414.068 391.461 415.168 391.461 420.303V591.189C391.461 602.563 387.299 609.736 382.164 613.514Z" fill="url(#paint61_linear)"/>
<path d="M391.428 579.879L310.936 638.244V663.863L391.428 605.498V579.879Z" fill="url(#paint62_linear)"/>
<path d="M411.499 620.558L331.007 678.923V705.915L411.499 647.55V620.558Z" fill="url(#paint63_linear)"/>
<path d="M351.071 719.582V743.802L431.563 685.437V661.217L351.071 719.582Z" fill="url(#paint64_linear)"/>
<path d="M371.354 539.194L310.936 582.946V608.736L371.354 564.984V539.194Z" fill="url(#paint65_linear)"/>
<path d="M310.936 496.132L310.936 582.948L371.354 539.195L310.936 496.132Z" fill="url(#paint66_linear)"/>
<path d="M411.499 620.558L391.428 605.497L310.936 663.862L331.007 678.923L411.499 620.558Z" fill="url(#paint67_linear)"/>
<path d="M411.499 647.55L331.007 705.915L351.071 719.581L431.563 661.216L411.499 647.55Z" fill="url(#paint68_linear)"/>
<path d="M371.354 564.984L310.936 608.737V638.243L391.428 579.878L371.354 564.984Z" fill="url(#paint69_linear)"/>
<path d="M472.134 472.997L483.994 464.213C484.049 464.169 484.105 464.127 484.162 464.086C484.178 464.075 484.195 464.064 484.211 464.052C484.252 464.024 484.293 463.996 484.335 463.968C484.355 463.956 484.374 463.944 484.393 463.932C484.435 463.905 484.478 463.88 484.521 463.855C484.539 463.845 484.556 463.835 484.573 463.825C484.694 463.757 484.817 463.695 484.944 463.639C484.962 463.631 484.981 463.624 484.999 463.616C485.045 463.596 485.091 463.577 485.138 463.559C485.16 463.551 485.181 463.543 485.203 463.535C485.25 463.518 485.297 463.501 485.345 463.485C485.364 463.479 485.383 463.472 485.402 463.466C485.536 463.424 485.672 463.387 485.811 463.357C485.831 463.353 485.851 463.349 485.872 463.344C485.922 463.334 485.972 463.325 486.023 463.316C486.046 463.312 486.07 463.308 486.094 463.304C486.145 463.296 486.196 463.289 486.248 463.282C486.269 463.28 486.29 463.277 486.311 463.274C486.455 463.258 486.602 463.248 486.752 463.243C486.774 463.243 486.796 463.243 486.818 463.242C486.871 463.241 486.925 463.241 486.98 463.242C487.005 463.242 487.03 463.242 487.056 463.243C487.11 463.244 487.165 463.247 487.22 463.25C487.243 463.251 487.265 463.252 487.288 463.253C487.442 463.263 487.599 463.279 487.757 463.302C487.78 463.305 487.804 463.309 487.827 463.312C487.884 463.321 487.941 463.33 487.998 463.34C488.025 463.345 488.052 463.35 488.079 463.355C488.136 463.366 488.194 463.378 488.252 463.391C488.276 463.396 488.3 463.401 488.324 463.406C488.486 463.443 488.65 463.486 488.816 463.536C488.841 463.543 488.866 463.551 488.89 463.558C488.949 463.577 489.009 463.596 489.068 463.616C489.097 463.625 489.125 463.635 489.153 463.644C489.213 463.665 489.273 463.686 489.333 463.709C489.358 463.718 489.383 463.727 489.409 463.737C489.578 463.801 489.748 463.872 489.919 463.949C489.945 463.96 489.971 463.973 489.997 463.985C490.058 464.013 490.119 464.041 490.18 464.071C490.21 464.085 490.239 464.099 490.268 464.114C490.33 464.144 490.391 464.176 490.453 464.208C490.479 464.221 490.505 464.235 490.532 464.249C490.706 464.341 490.88 464.439 491.056 464.545C491.083 464.561 491.11 464.578 491.138 464.594C491.199 464.632 491.261 464.67 491.323 464.71C491.354 464.729 491.384 464.748 491.415 464.768C491.477 464.808 491.539 464.849 491.601 464.891C491.629 464.909 491.656 464.927 491.684 464.946C491.772 465.006 491.861 465.068 491.95 465.131L509.249 477.436C512.252 479.583 514.568 482.665 515.92 486.273C516.982 488.879 517.503 491.588 517.259 493.949C517.259 493.95 517.259 493.95 517.259 493.95C517.229 497.417 517.244 504.888 517.244 504.888L505.56 513.524L503.627 506.682L472.134 472.997Z" fill="#61F7E5"/>
<path d="M478.191 493.86L495.49 506.165C499.348 508.922 505.56 513.524 505.56 513.524C505.56 513.524 505.545 506.052 505.575 502.585C505.635 495.754 502.542 489.629 497.565 486.072L480.267 473.767C475.29 470.21 470.752 471.821 470.181 477.346C469.61 482.872 473.215 490.303 478.191 493.86Z" fill="url(#paint70_linear)"/>
<path d="M571.077 549.473L510.376 505.604C508.696 504.39 508.319 502.044 509.533 500.363L514.113 494.026L577.855 540.093L571.077 549.473Z" fill="url(#paint71_linear)"/>
<path d="M514.885 500.436C515.967 497.36 515.325 494.333 513.45 493.673C511.576 493.014 509.179 494.973 508.097 498.048C507.016 501.123 507.658 504.151 509.533 504.81C511.407 505.469 513.803 503.511 514.885 500.436Z" fill="white"/>
<path opacity="0.5" d="M514.113 494.026L517.246 496.291C517.234 499.995 517.244 504.888 517.244 504.888L513.359 507.76L509.326 504.845C508.226 504.05 507.979 502.514 508.773 501.414L514.113 494.026Z" fill="white"/>
<path d="M374.424 483.34L388.37 473.011C388.435 472.96 388.501 472.911 388.567 472.863C388.587 472.849 388.606 472.836 388.625 472.823C388.674 472.789 388.722 472.756 388.772 472.724C388.794 472.71 388.817 472.695 388.839 472.681C388.889 472.65 388.939 472.62 388.99 472.591C389.01 472.579 389.03 472.567 389.051 472.555C389.193 472.476 389.338 472.403 389.487 472.337C389.509 472.328 389.531 472.319 389.552 472.31C389.606 472.287 389.661 472.264 389.715 472.243C389.741 472.233 389.766 472.224 389.791 472.214C389.847 472.194 389.902 472.175 389.958 472.156C389.981 472.149 390.003 472.141 390.026 472.134C390.183 472.084 390.343 472.041 390.506 472.005C390.53 472 390.554 471.995 390.578 471.991C390.637 471.978 390.696 471.967 390.756 471.957C390.783 471.952 390.811 471.947 390.839 471.943C390.899 471.934 390.959 471.925 391.02 471.917C391.045 471.914 391.069 471.911 391.094 471.908C391.264 471.889 391.437 471.877 391.613 471.872C391.639 471.871 391.664 471.871 391.69 471.87C391.754 471.869 391.817 471.869 391.881 471.87C391.911 471.87 391.94 471.87 391.97 471.871C392.034 471.873 392.099 471.876 392.163 471.879C392.19 471.88 392.216 471.881 392.243 471.883C392.425 471.895 392.608 471.914 392.795 471.94C392.822 471.944 392.85 471.949 392.878 471.953C392.944 471.963 393.011 471.974 393.078 471.986C393.11 471.991 393.142 471.997 393.173 472.003C393.241 472.016 393.309 472.03 393.377 472.045C393.405 472.051 393.433 472.057 393.461 472.063C393.652 472.106 393.845 472.157 394.04 472.215C394.069 472.224 394.098 472.233 394.127 472.242C394.197 472.264 394.267 472.286 394.337 472.309C394.37 472.32 394.403 472.332 394.437 472.343C394.507 472.367 394.577 472.393 394.647 472.419C394.677 472.43 394.707 472.44 394.737 472.452C394.935 472.527 395.136 472.61 395.337 472.701C395.368 472.715 395.398 472.729 395.429 472.743C395.501 472.776 395.572 472.81 395.644 472.845C395.679 472.861 395.713 472.878 395.748 472.895C395.82 472.931 395.892 472.968 395.965 473.006C395.996 473.022 396.026 473.037 396.057 473.054C396.262 473.162 396.467 473.278 396.674 473.402C396.706 473.421 396.738 473.441 396.77 473.46C396.842 473.504 396.915 473.549 396.988 473.596C397.024 473.618 397.06 473.641 397.096 473.664C397.169 473.711 397.242 473.76 397.315 473.809C397.347 473.83 397.38 473.852 397.412 473.873C397.516 473.944 397.621 474.017 397.725 474.091L418.065 488.56C421.596 491.084 424.319 494.709 425.91 498.951C427.159 502.015 427.771 505.2 427.484 507.977C427.484 507.977 427.484 507.977 427.484 507.977C427.449 512.053 427.466 520.839 427.466 520.839L413.728 530.993L411.455 522.948L374.424 483.34Z" fill="#3BCCFF"/>
<path d="M381.547 507.87L401.888 522.339C406.424 525.581 413.728 530.992 413.728 530.992C413.728 530.992 413.711 522.207 413.746 518.13C413.816 510.098 410.179 502.896 404.328 498.713L383.988 484.245C378.136 480.062 372.8 481.956 372.129 488.453C371.458 494.951 375.696 503.688 381.547 507.87Z" fill="#0083CC"/>
<path d="M522.002 595.837L418.857 521.293C417.177 520.079 416.799 517.733 418.013 516.053L423.785 508.066L529.972 584.808L522.002 595.837Z" fill="url(#paint72_linear)"/>
<path d="M424.693 515.605C425.965 511.989 425.209 508.429 423.005 507.654C420.801 506.878 417.983 509.181 416.711 512.797C415.439 516.413 416.195 519.973 418.399 520.749C420.603 521.524 423.421 519.221 424.693 515.605Z" fill="white"/>
<path opacity="0.5" d="M423.785 508.066L427.469 510.729C427.455 515.085 427.466 520.838 427.466 520.838L422.898 524.215L418.156 520.787C416.863 519.853 416.572 518.046 417.507 516.753L423.785 508.066Z" fill="white"/>
<path d="M267.763 57.7711C258.027 57.7711 250.105 52.4035 250.105 45.806C250.105 39.2084 258.027 33.8408 267.763 33.8408C277.5 33.8408 285.422 39.2084 285.422 45.806C285.422 52.4035 277.5 57.7711 267.763 57.7711ZM267.763 35.0269C258.681 35.0269 251.291 39.8624 251.291 45.806C251.291 51.7497 258.681 56.585 267.763 56.585C276.846 56.585 284.236 51.7496 284.236 45.806C284.236 39.8624 276.846 35.0269 267.763 35.0269Z" fill="#298CE2"/>
<path d="M267.764 90.973C271.228 90.973 274.037 89.019 274.037 86.6086C274.037 84.1982 271.228 82.2441 267.764 82.2441C264.299 82.2441 261.491 84.1982 261.491 86.6086C261.491 89.019 264.299 90.973 267.764 90.973Z" fill="#298CE2"/>
<path d="M267.536 8.4901C269.731 8.4901 271.511 6.75042 271.511 4.60442C271.511 2.45843 269.731 0.71875 267.536 0.71875C265.341 0.71875 263.562 2.45843 263.562 4.60442C263.562 6.75042 265.341 8.4901 267.536 8.4901Z" fill="#298CE2"/>
<path d="M71.8389 110.093C73.6392 110.093 75.0987 108.617 75.0987 106.796C75.0987 104.975 73.6392 103.499 71.8389 103.499C70.0386 103.499 68.5791 104.975 68.5791 106.796C68.5791 108.617 70.0386 110.093 71.8389 110.093Z" fill="#298CE2"/>
<path d="M267.589 88.3382C267.262 88.3382 266.996 88.0727 266.996 87.7451V57.5989C266.996 57.2713 267.262 57.0059 267.589 57.0059C267.917 57.0059 268.182 57.2713 268.182 57.5989V87.7451C268.182 88.0727 267.917 88.3382 267.589 88.3382Z" fill="#298CE2"/>
<g opacity="0.3">
<path opacity="0.3" d="M267.589 57.7709C267.261 57.7709 266.996 57.5055 266.996 57.1779V45.8059C266.996 45.4783 267.261 45.2129 267.589 45.2129C267.916 45.2129 268.182 45.4783 268.182 45.8059V57.1779C268.182 57.5055 267.916 57.7709 267.589 57.7709Z" fill="#29ABE2"/>
</g>
<path d="M267.589 46.3995C267.262 46.3995 266.996 46.1341 266.996 45.8065V5.91041C266.996 5.58282 267.262 5.31738 267.589 5.31738C267.917 5.31738 268.182 5.58282 268.182 5.91041V45.8065C268.182 46.1341 267.917 46.3995 267.589 46.3995Z" fill="#298CE2"/>
<path d="M71.8391 184.634C71.5116 184.634 71.2461 184.369 71.2461 184.041V106.796C71.2461 106.469 71.5116 106.203 71.8391 106.203C72.1666 106.203 72.4322 106.469 72.4322 106.796V184.041C72.4322 184.369 72.1666 184.634 71.8391 184.634Z" fill="#298CE2"/>
<path d="M241.44 548.208C241.44 585.73 220.014 600.89 193.583 582.069C167.153 563.248 145.727 517.573 145.727 480.051C145.727 442.529 167.153 427.369 193.583 446.19C220.014 465.011 241.44 510.686 241.44 548.208Z" fill="url(#paint73_linear)"/>
<path d="M114.52 604.369C114.52 586.324 104.216 564.359 91.5053 555.308C85.1451 550.779 79.3876 550.341 75.222 553.296L45.1401 574.124L76.397 644.338L107.582 622.808C107.605 622.793 107.627 622.777 107.65 622.761L107.654 622.758C111.892 619.85 114.52 613.481 114.52 604.369Z" fill="url(#paint74_linear)"/>
<path d="M83.5095 625.784C83.5095 643.829 73.2055 651.119 60.495 642.068C47.7844 633.017 37.4805 611.051 37.4805 593.007C37.4805 574.962 47.7844 567.672 60.495 576.723C73.2055 585.774 83.5095 607.74 83.5095 625.784Z" fill="url(#paint75_linear)"/>
<path d="M193.588 548.14C193.588 530.096 183.284 508.13 170.573 499.079C164.213 494.55 158.455 494.113 154.29 497.067L124.208 517.895L155.465 588.109L186.65 566.579C186.673 566.564 186.695 566.548 186.718 566.533L186.722 566.53C190.96 563.622 193.588 557.252 193.588 548.14Z" fill="url(#paint76_linear)"/>
<path d="M162.577 569.556C162.577 587.6 152.273 594.891 139.563 585.839C126.852 576.788 116.548 554.823 116.548 536.778C116.548 518.734 126.852 511.443 139.563 520.494C152.273 529.546 162.577 551.511 162.577 569.556Z" fill="url(#paint77_linear)"/>
<path d="M238.694 523.528C233.696 499.975 222.292 476.168 207.985 459.578C199.94 458.941 194.333 466.399 194.333 479.71C194.333 497.755 204.636 519.72 217.347 528.771C227.012 535.654 235.284 533.086 238.694 523.528Z" fill="url(#paint78_linear)"/>
<path d="M235.702 511.859C233.189 503.471 229.93 495.211 226.085 487.418C224.652 487.073 223.348 487.424 222.183 488.479C221.187 489.381 220.502 490.799 220.105 492.658C220.076 492.795 220.053 492.879 219.923 492.797C218.379 491.82 216.836 490.856 215.293 489.888C215.263 489.869 215.232 489.846 215.185 489.813C215.215 489.743 215.26 489.752 215.297 489.742C216.445 489.434 217.592 489.123 218.742 488.822C218.851 488.794 218.862 488.735 218.793 488.529C217.396 484.363 215.465 481.162 212.99 478.99C209.324 475.773 205.733 476.444 204.104 480.622C203.579 481.97 203.31 483.581 203.279 485.434C203.174 491.749 206.065 498.967 209.936 502.651C210.314 503.011 210.696 503.33 211.08 503.618C211.11 503.64 211.145 503.645 211.16 503.718C211.203 503.744 211.245 503.771 211.287 503.797C211.541 503.914 211.794 504.073 212.048 504.275C212.09 504.301 212.133 504.327 212.175 504.354C212.396 504.383 212.627 504.545 212.853 504.636C214.653 505.358 216.221 505.168 217.539 504.014C218.741 502.961 219.528 501.265 219.893 498.93C219.901 498.88 219.914 498.833 219.931 498.75C220.062 499.767 220.227 500.748 220.474 501.735C221.623 506.333 223.523 509.975 226.134 512.699C226.6 513.185 227.076 513.585 227.555 513.945C227.588 513.97 227.632 513.966 227.65 514.055C227.693 514.082 227.735 514.108 227.777 514.135C228.031 514.252 228.285 514.411 228.538 514.612C228.581 514.639 228.623 514.665 228.665 514.692C228.886 514.723 229.118 514.888 229.344 514.973C232.155 516.04 234.27 515.08 235.646 511.994C235.666 511.951 235.683 511.903 235.702 511.859ZM210.782 496.5C209.028 494.783 207.736 491.558 207.673 488.736C207.609 485.868 208.765 484.059 210.528 484.354C212.284 484.647 213.701 486.528 214.913 489.623C214.853 489.638 214.789 489.571 214.728 489.533C213.047 488.481 212.714 488.105 211.033 487.042C210.882 486.947 210.839 486.976 210.839 487.222C210.846 489.299 210.845 491.371 210.84 493.439C210.839 493.661 210.877 493.74 211.017 493.827C212.74 494.899 213.115 495.307 214.838 496.389C214.893 496.424 214.952 496.434 215.005 496.519C214.296 497.894 212.626 498.305 210.782 496.5ZM231.094 507.431C229.166 509.47 225.644 506.321 224.503 501.537C223.487 497.282 224.881 493.982 227.36 494.767C227.662 494.862 227.966 495.017 228.161 495.134C229.289 495.904 230.183 497.012 230.928 498.577C232.541 501.964 232.61 505.827 231.094 507.431Z" fill="#F1F8FF"/>
<path d="M137.003 569.818C137.003 569.818 130.044 562.78 125.105 557.141C127.149 517.652 156.028 539.009 156.408 559.426C151.649 540.025 132.063 539.883 137.003 569.818Z" fill="white"/>
<path d="M121.771 545.492L123.886 548.138L124.208 545.177L122.178 542.856L121.771 545.492Z" fill="white"/>
<path d="M139.538 561.4V564.384L141.653 567.03L141.568 563.721L139.538 561.4Z" fill="white"/>
<path d="M123.887 538.728L125.75 541.059L126.748 539.026L124.96 536.982L123.887 538.728Z" fill="white"/>
<path d="M139.857 557.243L141.72 559.573L142.242 557.166L140.453 555.122L139.857 557.243Z" fill="white"/>
<path d="M127.948 533.564L129.811 535.895L131.365 534.681L129.577 532.637L127.948 533.564Z" fill="white"/>
<path d="M141.31 551.419L143.173 553.75L144.219 552.028L142.383 549.823L141.31 551.419Z" fill="white"/>
<path d="M133.809 531.151L135.328 533.051H137.323L135.865 531.385L133.809 531.151Z" fill="white"/>
<path d="M147.059 548.372L145.511 548.139L147.03 550.038L148.684 550.229L147.059 548.372Z" fill="white"/>
<path d="M143.451 534.688L141.96 532.984L140.161 532.102L141.646 533.958L143.451 534.688Z" fill="white"/>
<path d="M72.3665 611.602C72.3665 609.866 71.7721 607.757 70.8073 606.069L62.054 590.76C61.0891 589.072 59.9004 588.062 58.9356 588.111L50.1823 588.553C49.2174 588.601 48.623 589.701 48.623 591.437V607.188C48.623 608.924 49.2174 611.034 50.1823 612.721L52.6509 617.039C53.5715 618.481 54.5059 619.148 54.7975 618.654C55.0333 618.255 55.1529 617.485 55.1529 616.339V595.786L57.3592 597.66V618.366C57.3592 618.824 57.3385 619.411 57.2979 620.128C57.2569 620.844 57.1263 621.459 56.9057 621.973C56.705 622.439 56.3959 622.734 55.9791 622.86L58.9356 628.031C59.9004 629.718 61.0892 630.728 62.054 630.679L70.8073 630.238C71.7721 630.189 72.3665 629.089 72.3665 627.353V611.602ZM67.7445 621.971C67.4664 622.461 67.1071 622.748 66.6659 622.832C66.2246 622.915 65.7221 622.82 65.1583 622.545C64.5945 622.269 64.0264 621.889 63.4546 621.403C62.4901 620.584 61.6443 619.637 60.9174 618.561C60.19 617.485 59.5404 616.093 58.9685 614.384L60.6354 613.661C60.9947 614.526 61.3954 615.363 61.8366 616.171C62.2779 616.979 62.8172 617.653 63.4546 618.194C63.7323 618.43 64.0142 618.625 64.3003 618.779C64.586 618.932 64.8396 619.008 65.0602 619.004C65.2809 619 65.4605 618.911 65.5995 618.736C65.7382 618.562 65.8079 618.283 65.8079 617.901C65.8079 617.392 65.7057 616.885 65.5015 616.38C65.297 615.876 65.0518 615.406 64.7661 614.972C64.4799 614.538 64.1777 614.129 63.8591 613.743C63.5404 613.358 63.2585 613.023 63.0133 612.739C62.5391 612.158 62.0898 611.572 61.665 610.982C61.2399 610.392 60.8641 609.767 60.5374 609.108C60.2103 608.448 59.9491 607.743 59.7529 606.99C59.5568 606.238 59.4588 605.429 59.4588 604.563C59.4588 603.621 59.5852 602.907 59.8387 602.421C60.0919 601.936 60.4271 601.641 60.8438 601.537C61.2606 601.432 61.7344 601.491 62.2656 601.713C62.7965 601.934 63.332 602.274 63.8713 602.732C64.6557 603.399 65.4073 604.266 66.1266 605.335C66.8455 606.405 67.4174 607.654 67.8426 609.085L66.1266 609.652C65.865 608.921 65.5421 608.22 65.1583 607.55C64.7741 606.88 64.3041 606.309 63.7487 605.837C63.2255 605.393 62.772 605.18 62.3882 605.198C62.004 605.215 61.8121 605.555 61.8121 606.217C61.8121 606.752 61.9224 607.279 62.1431 607.797C62.3637 608.316 62.6249 608.805 62.9275 609.266C63.2297 609.726 63.5526 610.154 63.8958 610.547C64.239 610.94 64.5332 611.279 64.7783 611.563C65.2521 612.144 65.6976 612.739 66.1143 613.348C66.5311 613.956 66.8904 614.593 67.193 615.257C67.4952 615.921 67.7323 616.619 67.9038 617.351C68.0755 618.082 68.1612 618.868 68.1612 619.708C68.1613 620.727 68.0222 621.481 67.7445 621.971Z" fill="white"/>
<defs>
<linearGradient id="paint0_linear" x1="72.3659" y1="68.2119" x2="72.3659" y2="449.366" gradientUnits="userSpaceOnUse">
<stop stop-color="#88BAE8"/>
<stop offset="1" stop-color="white"/>
</linearGradient>
<linearGradient id="paint1_linear" x1="571.96" y1="201.088" x2="73.6059" y2="354.165" gradientUnits="userSpaceOnUse">
<stop stop-color="#FF00DE" stop-opacity="0.3"/>
<stop offset="1" stop-color="#FF00FF" stop-opacity="0"/>
</linearGradient>
<linearGradient id="paint2_linear" x1="42.9788" y1="354.183" x2="101.02" y2="354.183" gradientUnits="userSpaceOnUse">
<stop stop-color="white" stop-opacity="0"/>
<stop offset="0.49123" stop-color="white" stop-opacity="0.5"/>
<stop offset="1" stop-color="white" stop-opacity="0"/>
</linearGradient>
<linearGradient id="paint3_linear" x1="10.1619" y1="254.373" x2="123.887" y2="254.373" gradientUnits="userSpaceOnUse">
<stop stop-color="#C4DDE5"/>
<stop offset="0.44878" stop-color="#CDD1F5"/>
<stop offset="0.68277" stop-color="#E4E6FA"/>
<stop offset="0.99264" stop-color="white"/>
</linearGradient>
<linearGradient id="paint4_linear" x1="182.484" y1="336.382" x2="36.8265" y2="212.573" gradientUnits="userSpaceOnUse">
<stop stop-color="#C4C9E5"/>
<stop offset="0.52424" stop-color="#CDD6F5"/>
<stop offset="0.72576" stop-color="#E4E9FA"/>
<stop offset="0.99264" stop-color="white"/>
</linearGradient>
<linearGradient id="paint5_linear" x1="89.6213" y1="236.294" x2="58.538" y2="236.294" gradientUnits="userSpaceOnUse">
<stop stop-color="#EAE6F3"/>
<stop offset="0.16673" stop-color="#988FB8"/>
<stop offset="0.43718" stop-color="#9A91B9"/>
<stop offset="1" stop-color="#EAE6F3"/>
</linearGradient>
<linearGradient id="paint6_linear" x1="103.84" y1="230.63" x2="22.3123" y2="228.185" gradientUnits="userSpaceOnUse">
<stop stop-color="#988FB8"/>
<stop offset="1" stop-color="#EAE6F3"/>
</linearGradient>
<linearGradient id="paint7_linear" x1="32.0363" y1="212.142" x2="105.054" y2="212.142" gradientUnits="userSpaceOnUse">
<stop stop-color="#61F7E5"/>
<stop offset="0.75824" stop-color="#0071A0"/>
<stop offset="0.9977" stop-color="#61F7E5"/>
</linearGradient>
<linearGradient id="paint8_linear" x1="90.6641" y1="220.586" x2="53.8044" y2="189.255" gradientUnits="userSpaceOnUse">
<stop stop-color="#61F7E5"/>
<stop offset="1" stop-color="#D1F7F3"/>
</linearGradient>
<linearGradient id="paint9_linear" x1="64.208" y1="197.536" x2="80.4563" y2="197.737" gradientUnits="userSpaceOnUse">
<stop stop-color="#439DDD"/>
<stop offset="0.99097" stop-color="#0071BC"/>
</linearGradient>
<linearGradient id="paint10_linear" x1="73.0383" y1="157.475" x2="71.4345" y2="196.339" gradientUnits="userSpaceOnUse">
<stop stop-color="#447AE1"/>
<stop offset="1" stop-color="#13006A"/>
</linearGradient>
<linearGradient id="paint11_linear" x1="6.85607" y1="-189.588" x2="27.02" y2="482.287" gradientUnits="userSpaceOnUse">
<stop stop-color="#C4C9E5"/>
<stop offset="0.16649" stop-color="#CDD1F5"/>
<stop offset="0.52193" stop-color="#E4E6FA"/>
<stop offset="0.99264" stop-color="white"/>
</linearGradient>
<linearGradient id="paint12_linear" x1="437.993" y1="43.0001" x2="437.993" y2="493.528" gradientUnits="userSpaceOnUse">
<stop stop-color="#AEBAE8"/>
<stop offset="1" stop-color="white"/>
</linearGradient>
<linearGradient id="paint13_linear" x1="372.804" y1="289.35" x2="448.951" y2="252.579" gradientUnits="userSpaceOnUse">
<stop stop-color="#65E8E0"/>
<stop offset="1" stop-color="#009C9D"/>
</linearGradient>
<linearGradient id="paint14_linear" x1="267.601" y1="103.835" x2="267.601" y2="579.473" gradientUnits="userSpaceOnUse">
<stop stop-color="#88BAE8"/>
<stop offset="1" stop-color="white"/>
</linearGradient>
<linearGradient id="paint15_linear" x1="822.811" y1="22.839" x2="284.99" y2="448.685" gradientUnits="userSpaceOnUse">
<stop stop-color="#FF00DE" stop-opacity="0.4"/>
<stop offset="1" stop-color="#FF00FF" stop-opacity="0"/>
</linearGradient>
<linearGradient id="paint16_linear" x1="204.664" y1="460.695" x2="328.966" y2="460.695" gradientUnits="userSpaceOnUse">
<stop stop-color="white" stop-opacity="0"/>
<stop offset="0.49123" stop-color="white" stop-opacity="0.5"/>
<stop offset="1" stop-color="white" stop-opacity="0"/>
</linearGradient>
<linearGradient id="paint17_linear" x1="76.537" y1="349.486" x2="401.774" y2="349.486" gradientUnits="userSpaceOnUse">
<stop stop-color="#61F7E5"/>
<stop offset="0.75824" stop-color="#0071A0"/>
<stop offset="0.9977" stop-color="#61F7E5"/>
</linearGradient>
<linearGradient id="paint18_linear" x1="334.036" y1="384.083" x2="153.84" y2="230.916" gradientUnits="userSpaceOnUse">
<stop stop-color="#61F7E5"/>
<stop offset="1" stop-color="#D1F7F3"/>
</linearGradient>
<linearGradient id="paint19_linear" x1="215.058" y1="324.769" x2="381.161" y2="324.769" gradientUnits="userSpaceOnUse">
<stop stop-color="#0071BC" stop-opacity="0"/>
<stop offset="1" stop-color="#0071BC"/>
</linearGradient>
<linearGradient id="paint20_linear" x1="525.224" y1="247.989" x2="-307.395" y2="525.263" gradientUnits="userSpaceOnUse">
<stop stop-color="#61F7E5"/>
<stop offset="0.75824" stop-color="#0071A0"/>
<stop offset="0.9977" stop-color="#61F7E5"/>
</linearGradient>
<linearGradient id="paint21_linear" x1="415.574" y1="216.1" x2="237.872" y2="218.663" gradientUnits="userSpaceOnUse">
<stop stop-color="#4C4F78"/>
<stop offset="0.47919" stop-color="#6C6A96"/>
<stop offset="1" stop-color="#5A567F"/>
</linearGradient>
<linearGradient id="paint22_linear" x1="416.147" y1="218.437" x2="243.401" y2="220.928" gradientUnits="userSpaceOnUse">
<stop stop-color="#4C4F78"/>
<stop offset="0.47919" stop-color="#6C6A96"/>
<stop offset="1" stop-color="#5A567F"/>
</linearGradient>
<linearGradient id="paint23_linear" x1="347.704" y1="301.661" x2="133.112" y2="300.924" gradientUnits="userSpaceOnUse">
<stop stop-color="#4C4F78"/>
<stop offset="0.47919" stop-color="#6C6A96"/>
<stop offset="1" stop-color="#5A567F"/>
</linearGradient>
<linearGradient id="paint24_linear" x1="387.346" y1="296.907" x2="157.87" y2="296.907" gradientUnits="userSpaceOnUse">
<stop stop-color="#A9A4C4"/>
<stop offset="0.35681" stop-color="#8582AB"/>
<stop offset="1" stop-color="#BCC0E1"/>
</linearGradient>
<linearGradient id="paint25_linear" x1="387.346" y1="319.971" x2="157.869" y2="319.971" gradientUnits="userSpaceOnUse">
<stop stop-color="#A9A4C4"/>
<stop offset="0.35681" stop-color="#8582AB"/>
<stop offset="1" stop-color="#BCC0E1"/>
</linearGradient>
<linearGradient id="paint26_linear" x1="387.346" y1="337.525" x2="157.87" y2="337.525" gradientUnits="userSpaceOnUse">
<stop stop-color="#A9A4C4"/>
<stop offset="0.35681" stop-color="#8582AB"/>
<stop offset="1" stop-color="#BCC0E1"/>
</linearGradient>
<linearGradient id="paint27_linear" x1="387.346" y1="347.152" x2="157.87" y2="347.152" gradientUnits="userSpaceOnUse">
<stop stop-color="#A9A4C4"/>
<stop offset="0.35681" stop-color="#8582AB"/>
<stop offset="1" stop-color="#BCC0E1"/>
</linearGradient>
<linearGradient id="paint28_linear" x1="387.346" y1="341.374" x2="157.87" y2="341.374" gradientUnits="userSpaceOnUse">
<stop stop-color="#A9A4C4"/>
<stop offset="0.35681" stop-color="#8582AB"/>
<stop offset="1" stop-color="#BCC0E1"/>
</linearGradient>
<linearGradient id="paint29_linear" x1="387.346" y1="338.182" x2="157.87" y2="338.182" gradientUnits="userSpaceOnUse">
<stop stop-color="#A9A4C4"/>
<stop offset="0.35681" stop-color="#8582AB"/>
<stop offset="1" stop-color="#BCC0E1"/>
</linearGradient>
<linearGradient id="paint30_linear" x1="387.346" y1="320.857" x2="157.87" y2="320.857" gradientUnits="userSpaceOnUse">
<stop stop-color="#A9A4C4"/>
<stop offset="0.35681" stop-color="#8582AB"/>
<stop offset="1" stop-color="#BCC0E1"/>
</linearGradient>
<linearGradient id="paint31_linear" x1="387.346" y1="297.923" x2="157.87" y2="297.923" gradientUnits="userSpaceOnUse">
<stop stop-color="#A9A4C4"/>
<stop offset="0.35681" stop-color="#8582AB"/>
<stop offset="1" stop-color="#BCC0E1"/>
</linearGradient>
<linearGradient id="paint32_linear" x1="541.923" y1="373.659" x2="77.9464" y2="170.571" gradientUnits="userSpaceOnUse">
<stop stop-color="#C4C9E5"/>
<stop offset="0.44878" stop-color="#CDD1F5"/>
<stop offset="0.68277" stop-color="#E4E6FA"/>
<stop offset="0.99264" stop-color="white"/>
</linearGradient>
<linearGradient id="paint33_linear" x1="357.486" y1="252.255" x2="240.207" y2="252.255" gradientUnits="userSpaceOnUse">
<stop offset="0.00651" stop-color="#8684B3"/>
<stop offset="1" stop-color="#6D6B97"/>
</linearGradient>
<linearGradient id="paint34_linear" x1="176.117" y1="183.754" x2="240.909" y2="183.754" gradientUnits="userSpaceOnUse">
<stop stop-color="#61F7E5"/>
<stop offset="1" stop-color="#0071A0"/>
</linearGradient>
<linearGradient id="paint35_linear" x1="208.81" y1="183.754" x2="358.592" y2="183.754" gradientUnits="userSpaceOnUse">
<stop stop-color="#61F7E5"/>
<stop offset="1" stop-color="#0071A0"/>
</linearGradient>
<linearGradient id="paint36_linear" x1="264.121" y1="183.624" x2="297.281" y2="183.624" gradientUnits="userSpaceOnUse">
<stop stop-color="#61F7E5"/>
<stop offset="1" stop-color="#0071A0"/>
</linearGradient>
<linearGradient id="paint37_linear" x1="174.664" y1="183.544" x2="260.498" y2="183.544" gradientUnits="userSpaceOnUse">
<stop stop-color="#61F7E5"/>
<stop offset="1" stop-color="#0071A0"/>
</linearGradient>
<linearGradient id="paint38_linear" x1="217.504" y1="209.204" x2="266.878" y2="209.204" gradientUnits="userSpaceOnUse">
<stop stop-color="#61F7E5"/>
<stop offset="1" stop-color="#0071A0"/>
</linearGradient>
<linearGradient id="paint39_linear" x1="201.079" y1="210.09" x2="280.105" y2="210.09" gradientUnits="userSpaceOnUse">
<stop stop-color="#61F7E5"/>
<stop offset="1" stop-color="#0071A0"/>
</linearGradient>
<linearGradient id="paint40_linear" x1="319.517" y1="98.5668" x2="259.372" y2="197.478" gradientUnits="userSpaceOnUse">
<stop stop-color="#61F7E5"/>
<stop offset="1" stop-color="#0071A0"/>
</linearGradient>
<linearGradient id="paint41_linear" x1="175.939" y1="172.704" x2="276.291" y2="172.704" gradientUnits="userSpaceOnUse">
<stop stop-color="#61F7E5"/>
<stop offset="1" stop-color="#0071A0"/>
</linearGradient>
<linearGradient id="paint42_linear" x1="543.609" y1="238.6" x2="312.106" y2="257.273" gradientUnits="userSpaceOnUse">
<stop stop-color="#61F7E5"/>
<stop offset="1" stop-color="#0071A0"/>
</linearGradient>
<linearGradient id="paint43_linear" x1="150.743" y1="270.222" x2="187.109" y2="270.515" gradientUnits="userSpaceOnUse">
<stop stop-color="#61F7E5"/>
<stop offset="1" stop-color="#0071A0"/>
</linearGradient>
<linearGradient id="paint44_linear" x1="195.33" y1="231.714" x2="234.741" y2="265.578" gradientUnits="userSpaceOnUse">
<stop stop-color="#61F7E5"/>
<stop offset="1" stop-color="#0071A0"/>
</linearGradient>
<linearGradient id="paint45_linear" x1="186.982" y1="271.919" x2="245.668" y2="271.347" gradientUnits="userSpaceOnUse">
<stop stop-color="#61F7E5"/>
<stop offset="1" stop-color="#0071A0"/>
</linearGradient>
<linearGradient id="paint46_linear" x1="239.688" y1="172.704" x2="300.314" y2="172.704" gradientUnits="userSpaceOnUse">
<stop stop-color="#61F7E5"/>
<stop offset="1" stop-color="#0071A0"/>
</linearGradient>
<linearGradient id="paint47_linear" x1="178.315" y1="211.479" x2="333.27" y2="211.479" gradientUnits="userSpaceOnUse">
<stop stop-color="#61F7E5"/>
<stop offset="1" stop-color="#0071A0"/>
</linearGradient>
<linearGradient id="paint48_linear" x1="167.026" y1="209.263" x2="250.414" y2="209.263" gradientUnits="userSpaceOnUse">
<stop stop-color="#61F7E5"/>
<stop offset="1" stop-color="#0071A0"/>
</linearGradient>
<linearGradient id="paint49_linear" x1="205.398" y1="223.354" x2="274.211" y2="223.354" gradientUnits="userSpaceOnUse">
<stop stop-color="#61F7E5"/>
<stop offset="0.14217" stop-color="#47D3D2"/>
<stop offset="0.30985" stop-color="#2EB0C0"/>
<stop offset="0.47986" stop-color="#1A94B2"/>
<stop offset="0.65082" stop-color="#0B81A8"/>
<stop offset="0.82341" stop-color="#0375A2"/>
<stop offset="1" stop-color="#0071A0"/>
</linearGradient>
<linearGradient id="paint50_linear" x1="367.505" y1="223.354" x2="300.485" y2="223.354" gradientUnits="userSpaceOnUse">
<stop stop-color="#61F7E5"/>
<stop offset="1" stop-color="#0071A0"/>
</linearGradient>
<linearGradient id="paint51_linear" x1="227.93" y1="247.916" x2="303.134" y2="247.916" gradientUnits="userSpaceOnUse">
<stop stop-color="#61F7E5"/>
<stop offset="1" stop-color="#0071A0"/>
</linearGradient>
<linearGradient id="paint52_linear" x1="211.997" y1="247.916" x2="281.748" y2="247.916" gradientUnits="userSpaceOnUse">
<stop stop-color="#61F7E5"/>
<stop offset="0.01562" stop-color="#5EF3E3"/>
<stop offset="0.27564" stop-color="#36BCC6"/>
<stop offset="0.49926" stop-color="#1993B2"/>
<stop offset="0.6755" stop-color="#077AA5"/>
<stop offset="0.78244" stop-color="#0071A0"/>
</linearGradient>
<linearGradient id="paint53_linear" x1="298.099" y1="210.765" x2="229.172" y2="148.912" gradientUnits="userSpaceOnUse">
<stop stop-color="#61F7E5"/>
<stop offset="1" stop-color="#D1F7F3"/>
</linearGradient>
<linearGradient id="paint54_linear" x1="247.419" y1="176.225" x2="278.595" y2="176.225" gradientUnits="userSpaceOnUse">
<stop stop-color="#447AE1"/>
<stop offset="1" stop-color="#13006A"/>
</linearGradient>
<linearGradient id="paint55_linear" x1="280.125" y1="173.83" x2="255.911" y2="139.442" gradientUnits="userSpaceOnUse">
<stop stop-color="#6353E1"/>
<stop offset="1" stop-color="#73D9FF"/>
</linearGradient>
<linearGradient id="paint56_linear" x1="245.4" y1="188.856" x2="270.012" y2="188.856" gradientUnits="userSpaceOnUse">
<stop stop-color="#447AE1"/>
<stop offset="1" stop-color="#13006A"/>
</linearGradient>
<linearGradient id="paint57_linear" x1="285.74" y1="119.647" x2="252.649" y2="119.647" gradientUnits="userSpaceOnUse">
<stop offset="0.00651" stop-color="white"/>
<stop offset="0.07142" stop-color="#EAE6F3"/>
<stop offset="0.16673" stop-color="#988FB8"/>
<stop offset="0.43718" stop-color="#9A91B9"/>
<stop offset="1" stop-color="#EAE6F3"/>
</linearGradient>
<linearGradient id="paint58_linear" x1="333.883" y1="113.675" x2="218.651" y2="113.675" gradientUnits="userSpaceOnUse">
<stop stop-color="#988FB8"/>
<stop offset="1" stop-color="#EAE6F3"/>
</linearGradient>
<linearGradient id="paint59_linear" x1="224.071" y1="94.7499" x2="303.951" y2="94.7499" gradientUnits="userSpaceOnUse">
<stop stop-color="#61F7E5"/>
<stop offset="0.75824" stop-color="#0071A0"/>
<stop offset="0.9977" stop-color="#61F7E5"/>
</linearGradient>
<linearGradient id="paint60_linear" x1="259.705" y1="101.426" x2="277.447" y2="68.8026" gradientUnits="userSpaceOnUse">
<stop stop-color="#61F7E5"/>
<stop offset="1" stop-color="#D1F7F3"/>
</linearGradient>
<linearGradient id="paint61_linear" x1="415.084" y1="535.832" x2="227.97" y2="522.534" gradientUnits="userSpaceOnUse">
<stop stop-color="#275FD3"/>
<stop offset="0.72733" stop-color="#76119A"/>
</linearGradient>
<linearGradient id="paint62_linear" x1="320.569" y1="578.007" x2="421.356" y2="722.419" gradientUnits="userSpaceOnUse">
<stop stop-color="#9BABD5"/>
<stop offset="0.51512" stop-color="#CDD1F5"/>
<stop offset="0.72057" stop-color="#E4E6FA"/>
<stop offset="0.99264" stop-color="white"/>
</linearGradient>
<linearGradient id="paint63_linear" x1="314.651" y1="582.136" x2="415.439" y2="726.547" gradientUnits="userSpaceOnUse">
<stop stop-color="#9BABD5"/>
<stop offset="0.51512" stop-color="#CDD1F5"/>
<stop offset="0.72057" stop-color="#E4E6FA"/>
<stop offset="0.99264" stop-color="white"/>
</linearGradient>
<linearGradient id="paint64_linear" x1="309.712" y1="585.583" x2="410.5" y2="729.995" gradientUnits="userSpaceOnUse">
<stop stop-color="#9BABD5"/>
<stop offset="0.51512" stop-color="#CDD1F5"/>
<stop offset="0.72057" stop-color="#E4E6FA"/>
<stop offset="0.99264" stop-color="white"/>
</linearGradient>
<linearGradient id="paint65_linear" x1="336.302" y1="567.025" x2="437.089" y2="711.437" gradientUnits="userSpaceOnUse">
<stop stop-color="#9BABD5"/>
<stop offset="0.51512" stop-color="#CDD1F5"/>
<stop offset="0.72057" stop-color="#E4E6FA"/>
<stop offset="0.99264" stop-color="white"/>
</linearGradient>
<linearGradient id="paint66_linear" x1="316.639" y1="454.879" x2="342.254" y2="565.875" gradientUnits="userSpaceOnUse">
<stop stop-color="#C4C9E5"/>
<stop offset="0.44878" stop-color="#CDD1F5"/>
<stop offset="0.68594" stop-color="#E4E6FA"/>
<stop offset="1" stop-color="white"/>
</linearGradient>
<linearGradient id="paint67_linear" x1="454.322" y1="270.464" x2="349.773" y2="687.904" gradientUnits="userSpaceOnUse">
<stop stop-color="#C4C9E5"/>
<stop offset="0.44878" stop-color="#CDD1F5"/>
<stop offset="0.68277" stop-color="#E4E6FA"/>
<stop offset="0.99264" stop-color="white"/>
</linearGradient>
<linearGradient id="paint68_linear" x1="482.951" y1="277.634" x2="378.403" y2="695.074" gradientUnits="userSpaceOnUse">
<stop stop-color="#C4C9E5"/>
<stop offset="0.44878" stop-color="#CDD1F5"/>
<stop offset="0.68277" stop-color="#E4E6FA"/>
<stop offset="0.99264" stop-color="white"/>
</linearGradient>
<linearGradient id="paint69_linear" x1="433.589" y1="265.271" x2="329.041" y2="682.711" gradientUnits="userSpaceOnUse">
<stop stop-color="#C4C9E5"/>
<stop offset="0.44878" stop-color="#CDD1F5"/>
<stop offset="0.68277" stop-color="#E4E6FA"/>
<stop offset="0.99264" stop-color="white"/>
</linearGradient>
<linearGradient id="paint70_linear" x1="439.815" y1="516.889" x2="515.699" y2="480.181" gradientUnits="userSpaceOnUse">
<stop stop-color="#65E8E0"/>
<stop offset="1" stop-color="#009C9D"/>
</linearGradient>
<linearGradient id="paint71_linear" x1="450.462" y1="455.262" x2="570.488" y2="541.879" gradientUnits="userSpaceOnUse">
<stop stop-color="#00FFFF" stop-opacity="0.6"/>
<stop offset="1" stop-color="#00FFFF" stop-opacity="0"/>
</linearGradient>
<linearGradient id="paint72_linear" x1="233.21" y1="378.984" x2="525.824" y2="590.149" gradientUnits="userSpaceOnUse">
<stop stop-color="#00FFFF" stop-opacity="0.6"/>
<stop offset="1" stop-color="#00FFFF" stop-opacity="0"/>
</linearGradient>
<linearGradient id="paint73_linear" x1="231.623" y1="491.106" x2="163.89" y2="532.102" gradientUnits="userSpaceOnUse">
<stop stop-color="#225BD1"/>
<stop offset="0.96291" stop-color="#7E14A3"/>
</linearGradient>
<linearGradient id="paint74_linear" x1="73.3544" y1="580.211" x2="135.537" y2="678.667" gradientUnits="userSpaceOnUse">
<stop stop-color="#61F7E5"/>
<stop offset="0.48817" stop-color="#1D99B4"/>
<stop offset="0.71998" stop-color="#0071A0"/>
</linearGradient>
<linearGradient id="paint75_linear" x1="21.0679" y1="582.977" x2="109.052" y2="641.931" gradientUnits="userSpaceOnUse">
<stop stop-color="#65E8E0"/>
<stop offset="1" stop-color="#009C9D"/>
</linearGradient>
<linearGradient id="paint76_linear" x1="174.483" y1="559.049" x2="151.365" y2="521.859" gradientUnits="userSpaceOnUse">
<stop stop-color="#93278F"/>
<stop offset="1" stop-color="#ED1E79"/>
</linearGradient>
<linearGradient id="paint77_linear" x1="222.791" y1="666.912" x2="102.176" y2="502.071" gradientUnits="userSpaceOnUse">
<stop stop-color="#93278F"/>
<stop offset="1" stop-color="#ED1E79"/>
</linearGradient>
<linearGradient id="paint78_linear" x1="178.919" y1="496.099" x2="247.678" y2="496.099" gradientUnits="userSpaceOnUse">
<stop stop-color="#439DDD"/>
<stop offset="0.99097" stop-color="#0071BC"/>
</linearGradient>
</defs>
</svg>
