<svg width="390" height="368" viewBox="0 0 390 368" fill="none" xmlns="http://www.w3.org/2000/svg">
<path d="M147.034 54.676H280.352C294.749 54.676 306.42 66.3472 306.42 80.7442V341.019C306.42 355.417 294.749 367.088 280.352 367.088H147.034C132.637 367.088 120.966 355.417 120.966 341.019V80.7442C120.966 66.3472 132.637 54.676 147.034 54.676Z" fill="url(#paint0_linear)"/>
<path d="M338.145 270.216H178.815C165.825 270.216 155.295 259.686 155.295 246.697V189.99C155.295 177.001 165.825 166.471 178.815 166.471H338.145C351.134 166.471 361.664 177.001 361.664 189.99V246.697C361.664 259.686 351.134 270.216 338.145 270.216Z" fill="url(#paint1_linear)"/>
<path d="M366.383 166.471H309.676C296.687 166.471 286.157 177.001 286.157 189.99V246.697C286.157 259.686 296.687 270.216 309.676 270.216H366.383C379.372 270.216 389.902 259.686 389.902 246.697V189.99C389.902 177.001 379.372 166.471 366.383 166.471Z" fill="url(#paint2_linear)"/>
<path d="M253.309 59.7344C252.775 59.7344 252.342 60.1668 252.342 60.7005V66.8193C252.342 67.353 252.775 67.7854 253.309 67.7854C253.842 67.7854 254.275 67.353 254.275 66.8193V60.7005C254.275 60.1668 253.842 59.7344 253.309 59.7344Z" fill="url(#paint3_linear)"/>
<path d="M244.642 305.688C243.184 306.845 241.583 307.782 239.883 308.472C239.389 308.672 239.15 309.236 239.351 309.73C239.503 310.106 239.865 310.334 240.246 310.334C240.367 310.334 240.49 310.311 240.609 310.262C242.481 309.503 244.242 308.473 245.843 307.201C246.261 306.869 246.331 306.261 245.999 305.843C245.666 305.426 245.059 305.356 244.642 305.688Z" fill="url(#paint4_linear)"/>
<path d="M230.752 309.854H224.942C224.409 309.854 223.976 310.287 223.976 310.82C223.976 311.354 224.409 311.786 224.942 311.786H230.752C231.286 311.786 231.718 311.354 231.718 310.82C231.718 310.287 231.286 309.854 230.752 309.854Z" fill="url(#paint5_linear)"/>
<path d="M253.309 276.963C252.775 276.963 252.342 277.396 252.342 277.93V283.74C252.342 284.273 252.775 284.706 253.309 284.706C253.842 284.706 254.275 284.273 254.275 283.74V277.93C254.275 277.396 253.842 276.963 253.309 276.963Z" fill="url(#paint6_linear)"/>
<path d="M215.258 309.854H209.448C208.914 309.854 208.482 310.287 208.482 310.82C208.482 311.354 208.914 311.786 209.448 311.786H215.258C215.792 311.786 216.225 311.354 216.225 310.82C216.225 310.287 215.792 309.854 215.258 309.854Z" fill="url(#paint7_linear)"/>
<path d="M253.309 261.469C252.775 261.469 252.342 261.902 252.342 262.435V268.246C252.342 268.779 252.775 269.212 253.309 269.212C253.842 269.212 254.275 268.779 254.275 268.246V262.435C254.275 261.902 253.842 261.469 253.309 261.469Z" fill="url(#paint8_linear)"/>
<path d="M137.786 309.854H131.976C131.442 309.854 131.009 310.287 131.009 310.82C131.009 311.354 131.442 311.786 131.976 311.786H137.786C138.319 311.786 138.752 311.354 138.752 310.82C138.752 310.287 138.319 309.854 137.786 309.854Z" fill="url(#paint9_linear)"/>
<path d="M253.309 245.975C252.775 245.975 252.342 246.407 252.342 246.941V252.751C252.342 253.285 252.775 253.717 253.309 253.717C253.842 253.717 254.275 253.285 254.275 252.751V246.941C254.275 246.407 253.842 245.975 253.309 245.975Z" fill="url(#paint10_linear)"/>
<path d="M199.763 309.854H193.953C193.419 309.854 192.987 310.287 192.987 310.82C192.987 311.354 193.419 311.786 193.953 311.786H199.763C200.297 311.786 200.73 311.354 200.73 310.82C200.73 310.287 200.297 309.854 199.763 309.854Z" fill="url(#paint11_linear)"/>
<path d="M153.28 309.854H147.47C146.937 309.854 146.504 310.287 146.504 310.82C146.504 311.354 146.937 311.786 147.47 311.786H153.28C153.813 311.786 154.246 311.354 154.246 310.82C154.246 310.287 153.813 309.854 153.28 309.854Z" fill="url(#paint12_linear)"/>
<path d="M168.775 309.854H162.964C162.431 309.854 161.998 310.287 161.998 310.82C161.998 311.354 162.431 311.786 162.964 311.786H168.775C169.308 311.786 169.741 311.354 169.741 310.82C169.741 310.287 169.308 309.854 168.775 309.854Z" fill="url(#paint13_linear)"/>
<path d="M184.269 309.854H178.458C177.925 309.854 177.492 310.287 177.492 310.82C177.492 311.354 177.925 311.786 178.458 311.786H184.269C184.802 311.786 185.235 311.354 185.235 310.82C185.235 310.287 184.802 309.854 184.269 309.854Z" fill="url(#paint14_linear)"/>
<path d="M253.135 292.451C252.613 292.358 252.108 292.707 252.015 293.233C251.689 295.063 251.122 296.837 250.33 298.505C250.101 298.987 250.306 299.563 250.788 299.792C250.922 299.856 251.062 299.886 251.201 299.886C251.562 299.886 251.909 299.682 252.074 299.334C252.941 297.51 253.561 295.571 253.917 293.572C254.01 293.046 253.66 292.545 253.135 292.451Z" fill="url(#paint15_linear)"/>
<path d="M253.309 122.02C252.775 122.02 252.342 122.452 252.342 122.986V128.796C252.342 129.33 252.775 129.763 253.309 129.763C253.842 129.763 254.275 129.33 254.275 128.796V122.986C254.275 122.452 253.842 122.02 253.309 122.02Z" fill="url(#paint16_linear)"/>
<path d="M253.309 106.526C252.775 106.526 252.342 106.958 252.342 107.492V113.302C252.342 113.836 252.775 114.268 253.309 114.268C253.842 114.268 254.275 113.836 254.275 113.302V107.492C254.275 106.958 253.842 106.526 253.309 106.526Z" fill="url(#paint17_linear)"/>
<path d="M253.309 137.515C252.775 137.515 252.342 137.947 252.342 138.481V144.291C252.342 144.825 252.775 145.257 253.309 145.257C253.842 145.257 254.275 144.825 254.275 144.291V138.481C254.275 137.947 253.842 137.515 253.309 137.515Z" fill="url(#paint18_linear)"/>
<path d="M253.309 75.5371C252.775 75.5371 252.342 75.9695 252.342 76.5032V82.3135C252.342 82.8472 252.775 83.2796 253.309 83.2796C253.842 83.2796 254.275 82.8472 254.275 82.3135V76.5032C254.275 75.9695 253.842 75.5371 253.309 75.5371Z" fill="url(#paint19_linear)"/>
<path d="M253.309 230.48C252.775 230.48 252.342 230.913 252.342 231.447V237.257C252.342 237.791 252.775 238.223 253.309 238.223C253.842 238.223 254.275 237.791 254.275 237.257V231.447C254.275 230.913 253.842 230.48 253.309 230.48Z" fill="url(#paint20_linear)"/>
<path d="M253.309 91.0315C252.775 91.0315 252.342 91.4639 252.342 91.9976V97.8079C252.342 98.3416 252.775 98.774 253.309 98.774C253.842 98.774 254.275 98.3416 254.275 97.8079V91.9976C254.275 91.4639 253.842 91.0315 253.309 91.0315Z" fill="url(#paint21_linear)"/>
<path d="M253.309 214.986C252.775 214.986 252.342 215.419 252.342 215.952V221.763C252.342 222.296 252.775 222.729 253.309 222.729C253.842 222.729 254.275 222.296 254.275 221.763V215.952C254.275 215.419 253.842 214.986 253.309 214.986Z" fill="url(#paint22_linear)"/>
<path d="M253.309 153.009C252.775 153.009 252.342 153.441 252.342 153.975V159.786C252.342 160.319 252.775 160.752 253.309 160.752C253.842 160.752 254.275 160.319 254.275 159.786V153.975C254.275 153.441 253.842 153.009 253.309 153.009Z" fill="url(#paint23_linear)"/>
<path d="M253.309 199.492C252.775 199.492 252.342 199.924 252.342 200.458V206.268C252.342 206.802 252.775 207.234 253.309 207.234C253.842 207.234 254.275 206.802 254.275 206.268V200.458C254.275 199.924 253.842 199.492 253.309 199.492Z" fill="url(#paint24_linear)"/>
<path d="M253.309 183.997C252.775 183.997 252.342 184.43 252.342 184.963V190.774C252.342 191.308 252.775 191.74 253.309 191.74C253.842 191.74 254.275 191.308 254.275 190.774V184.963C254.275 184.43 253.842 183.997 253.309 183.997Z" fill="url(#paint25_linear)"/>
<path d="M253.309 168.503C252.775 168.503 252.342 168.936 252.342 169.469V175.28C252.342 175.813 252.775 176.246 253.309 176.246C253.842 176.246 254.275 175.813 254.275 175.28V169.469C254.275 168.936 253.842 168.503 253.309 168.503Z" fill="url(#paint26_linear)"/>
<path d="M232.78 0.606689H88.3824C75.1095 0.606689 64.3116 11.4048 64.3116 24.6777V54.6759H23.8681C10.8785 54.6759 0.348633 65.2059 0.348633 78.1953V134.902C0.348633 147.891 10.8785 158.421 23.8681 158.421H64.3116V290.292C64.3116 303.565 75.1095 314.363 88.3824 314.363H120.965V307.278H88.3824C79.0161 307.278 71.3966 299.658 71.3966 290.292V158.421H80.5744C93.564 158.421 104.094 147.891 104.094 134.902V107.515H161.439C161.925 112.537 166.155 116.463 171.305 116.463C176.781 116.463 181.22 112.024 181.22 106.549C181.22 101.073 176.781 96.6337 171.305 96.6337C166.155 96.6337 161.925 100.56 161.439 105.583H104.094V78.1953C104.094 65.2059 93.564 54.6759 80.5744 54.6759H71.3966V24.6777C71.3966 15.3115 79.0161 7.69161 88.3824 7.69161H232.78C242.146 7.69161 249.766 15.3115 249.766 24.6777V54.6759H256.85V24.6777C256.85 11.4048 246.053 0.606689 232.78 0.606689Z" fill="url(#paint27_linear)"/>
<path d="M322.038 202.542C332.701 202.521 343.364 202.521 354.027 202.542C354.664 202.544 354.838 202.391 354.796 201.754C354.462 196.688 352.356 192.545 348.397 189.365C347.981 189.031 347.898 188.849 348.328 188.45C349.27 187.574 350.158 186.641 351.067 185.73C351.912 184.882 351.892 184.382 350.988 183.642C350.727 183.642 350.465 183.642 350.203 183.642C348.94 184.897 347.668 186.143 346.42 187.412C346.132 187.706 345.913 187.754 345.529 187.565C340.534 185.099 335.527 185.11 330.531 187.562C330.15 187.749 329.93 187.713 329.639 187.416C328.391 186.145 327.118 184.898 325.854 183.642C325.593 183.642 325.331 183.642 325.069 183.642C324.225 184.481 324.223 184.905 325.065 185.761C325.937 186.647 326.784 187.561 327.693 188.407C328.16 188.842 328.076 189.036 327.617 189.411C323.714 192.601 321.599 196.721 321.261 201.762C321.218 202.409 321.414 202.543 322.038 202.542ZM344.332 192.029C345.497 192.045 346.42 192.992 346.416 194.169C346.411 195.332 345.462 196.244 344.269 196.23C343.131 196.217 342.208 195.277 342.218 194.139C342.228 192.962 343.179 192.013 344.332 192.029ZM331.74 192.029C332.894 192.023 333.845 192.994 333.839 194.173C333.833 195.308 332.886 196.234 331.737 196.229C330.588 196.223 329.657 195.279 329.675 194.137C329.693 192.968 330.606 192.036 331.74 192.029Z" fill="url(#paint28_linear)"/>
<path d="M314.327 205.987C312.452 205.633 310.497 206.786 309.741 208.683C309.673 208.855 309.69 209.079 309.488 209.187C309.488 214.688 309.488 220.189 309.488 225.691C309.689 225.799 309.672 226.023 309.74 226.196C310.495 228.116 312.471 229.284 314.372 228.922C316.422 228.531 317.855 226.817 317.86 224.698C317.871 219.853 317.872 215.007 317.86 210.161C317.854 208.048 316.424 206.384 314.327 205.987Z" fill="url(#paint29_linear)"/>
<path d="M354.145 205.912C348.78 205.929 343.414 205.923 338.049 205.923C332.662 205.923 327.275 205.925 321.887 205.918C321.504 205.917 321.249 205.907 321.25 206.443C321.267 215.391 321.254 224.338 321.272 233.286C321.275 235.272 322.914 236.974 324.891 237.073C325.416 237.1 325.475 237.291 325.472 237.735C325.456 241.03 325.46 244.325 325.465 247.621C325.47 250.102 327.319 252.022 329.688 252.018C332.025 252.014 333.837 250.101 333.84 247.626C333.843 244.309 333.849 240.992 333.83 237.675C333.828 237.218 333.949 237.086 334.411 237.09C336.788 237.113 339.166 237.118 341.543 237.088C342.083 237.081 342.234 237.221 342.23 237.768C342.204 241.107 342.215 244.446 342.218 247.785C342.22 249.057 342.694 250.138 343.659 250.956C344.965 252.064 346.456 252.365 348.045 251.657C349.668 250.935 350.553 249.624 350.578 247.854C350.625 244.472 350.593 241.089 350.592 237.707C350.591 237.375 350.537 237.109 351.064 237.08C353.242 236.96 354.79 235.279 354.792 233.064C354.799 224.226 354.79 215.388 354.808 206.549C354.809 206.011 354.639 205.911 354.145 205.912Z" fill="url(#paint30_linear)"/>
<path d="M366.57 217.428C366.57 215.05 366.572 212.672 366.569 210.294C366.567 207.854 364.715 205.916 362.398 205.924C360.052 205.932 358.196 207.843 358.194 210.269C358.19 215.047 358.189 219.825 358.194 224.602C358.197 227.062 360.018 228.957 362.373 228.967C364.726 228.977 366.564 227.081 366.569 224.627C366.574 222.227 366.57 219.828 366.57 217.428Z" fill="url(#paint31_linear)"/>
<path d="M68.1785 109.299C67.2401 106.002 67.4474 102.742 69.0304 99.6441C69.9795 97.7869 71.3953 96.3313 73.0783 95.1244C73.3949 94.8974 73.7182 94.678 74.0517 94.4773C74.2229 94.3742 74.2568 94.3156 74.1249 94.1354C72.4497 91.8476 70.2606 90.2638 67.586 89.3478C65.8234 88.744 64.0062 88.4098 62.1428 88.4089C60.4087 88.4081 58.7409 88.8229 57.1054 89.3652C55.6679 89.8418 54.2423 90.3554 52.8139 90.8575C51.7242 91.2406 50.7017 91.1654 49.6348 90.8225C48.184 90.3562 46.7726 89.7792 45.3186 89.3242C44.2413 88.9871 43.153 88.6916 42.0234 88.5964C40.5169 88.4694 39.0369 88.6638 37.5922 89.0757C33.6313 90.205 30.6366 92.5875 28.5485 96.128C27.2659 98.3028 26.5253 100.658 26.2131 103.153C25.6901 107.333 26.2283 111.411 27.3996 115.429C29.0269 121.013 31.8433 125.923 35.751 130.215C36.5467 131.089 37.4341 131.864 38.4355 132.503C40.1476 133.595 41.9779 133.802 43.9253 133.295C45.1155 132.986 46.2528 132.533 47.4005 132.106C48.8316 131.572 50.3059 131.235 51.837 131.187C53.3224 131.141 54.7574 131.423 56.162 131.886C57.1919 132.225 58.1776 132.686 59.2199 132.992C60.1463 133.265 61.084 133.484 62.0519 133.499C63.6387 133.523 65.064 133.012 66.36 132.117C67.6589 131.22 68.7054 130.065 69.6828 128.841C71.7139 126.297 73.4897 123.596 74.7713 120.59C75.1253 119.759 75.4436 118.915 75.7505 118.067C75.7767 117.994 75.7697 117.902 75.8537 117.857C75.8537 117.824 75.8537 117.791 75.8537 117.758C72.0744 116.046 69.3324 113.353 68.1785 109.299Z" fill="white"/>
<path d="M51.2608 85.8204C53.0684 85.8951 54.7488 85.4541 56.3019 84.5486C58.7202 83.1387 60.5551 81.1537 61.9078 78.7176C62.7561 77.1898 63.2403 75.5493 63.3616 73.8008C63.4078 73.1352 63.3779 72.4738 63.3436 71.8108C63.1609 71.8108 62.9781 71.8108 62.7953 71.8108C62.7764 71.8778 62.7176 71.8574 62.6728 71.8653C62.3543 71.9209 62.0308 71.9561 61.7177 72.0332C57.5301 73.0647 54.3468 75.4121 52.3359 79.2622C51.3108 81.225 50.7802 83.307 50.9684 85.5426C50.9868 85.7615 51.0543 85.8119 51.2608 85.8204Z" fill="white"/>
<defs>
<linearGradient id="paint0_linear" x1="123.577" y1="86.0011" x2="314.117" y2="350.047" gradientUnits="userSpaceOnUse">
<stop stop-color="#00E7CB"/>
<stop offset="0.4209" stop-color="#00BFFF"/>
<stop offset="1" stop-color="#D180D5"/>
</linearGradient>
<linearGradient id="paint1_linear" x1="293.884" y1="250.261" x2="198.809" y2="164.55" gradientUnits="userSpaceOnUse">
<stop stop-color="#DBB2EA"/>
<stop offset="1" stop-color="#93F7FF"/>
</linearGradient>
<linearGradient id="paint2_linear" x1="369.846" y1="143.289" x2="287.155" y2="338.355" gradientUnits="userSpaceOnUse">
<stop stop-color="#2950C9"/>
<stop offset="1" stop-color="#66176E"/>
</linearGradient>
<linearGradient id="paint3_linear" x1="242.482" y1="89.2982" x2="159.791" y2="284.365" gradientUnits="userSpaceOnUse">
<stop stop-color="#2950C9"/>
<stop offset="1" stop-color="#66176E"/>
</linearGradient>
<linearGradient id="paint4_linear" x1="321.259" y1="122.692" x2="238.568" y2="317.759" gradientUnits="userSpaceOnUse">
<stop stop-color="#2950C9"/>
<stop offset="1" stop-color="#66176E"/>
</linearGradient>
<linearGradient id="paint5_linear" x1="309.678" y1="117.783" x2="226.987" y2="312.849" gradientUnits="userSpaceOnUse">
<stop stop-color="#2950C9"/>
<stop offset="1" stop-color="#66176E"/>
</linearGradient>
<linearGradient id="paint6_linear" x1="320.486" y1="122.365" x2="237.795" y2="317.431" gradientUnits="userSpaceOnUse">
<stop stop-color="#2950C9"/>
<stop offset="1" stop-color="#66176E"/>
</linearGradient>
<linearGradient id="paint7_linear" x1="296.544" y1="112.215" x2="213.853" y2="307.282" gradientUnits="userSpaceOnUse">
<stop stop-color="#2950C9"/>
<stop offset="1" stop-color="#66176E"/>
</linearGradient>
<linearGradient id="paint8_linear" x1="314.918" y1="120.004" x2="232.227" y2="315.071" gradientUnits="userSpaceOnUse">
<stop stop-color="#2950C9"/>
<stop offset="1" stop-color="#66176E"/>
</linearGradient>
<linearGradient id="paint9_linear" x1="230.873" y1="84.3767" x2="148.182" y2="279.443" gradientUnits="userSpaceOnUse">
<stop stop-color="#2950C9"/>
<stop offset="1" stop-color="#66176E"/>
</linearGradient>
<linearGradient id="paint10_linear" x1="309.351" y1="117.644" x2="226.659" y2="312.711" gradientUnits="userSpaceOnUse">
<stop stop-color="#2950C9"/>
<stop offset="1" stop-color="#66176E"/>
</linearGradient>
<linearGradient id="paint11_linear" x1="283.41" y1="106.648" x2="200.718" y2="301.714" gradientUnits="userSpaceOnUse">
<stop stop-color="#2950C9"/>
<stop offset="1" stop-color="#66176E"/>
</linearGradient>
<linearGradient id="paint12_linear" x1="244.007" y1="89.9444" x2="161.316" y2="285.011" gradientUnits="userSpaceOnUse">
<stop stop-color="#2950C9"/>
<stop offset="1" stop-color="#66176E"/>
</linearGradient>
<linearGradient id="paint13_linear" x1="257.141" y1="95.512" x2="174.45" y2="290.578" gradientUnits="userSpaceOnUse">
<stop stop-color="#2950C9"/>
<stop offset="1" stop-color="#66176E"/>
</linearGradient>
<linearGradient id="paint14_linear" x1="270.275" y1="101.08" x2="187.584" y2="296.146" gradientUnits="userSpaceOnUse">
<stop stop-color="#2950C9"/>
<stop offset="1" stop-color="#66176E"/>
</linearGradient>
<linearGradient id="paint15_linear" x1="324.964" y1="124.263" x2="242.273" y2="319.329" gradientUnits="userSpaceOnUse">
<stop stop-color="#2950C9"/>
<stop offset="1" stop-color="#66176E"/>
</linearGradient>
<linearGradient id="paint16_linear" x1="264.809" y1="98.7625" x2="182.118" y2="293.829" gradientUnits="userSpaceOnUse">
<stop stop-color="#2950C9"/>
<stop offset="1" stop-color="#66176E"/>
</linearGradient>
<linearGradient id="paint17_linear" x1="259.241" y1="96.4024" x2="176.55" y2="291.469" gradientUnits="userSpaceOnUse">
<stop stop-color="#2950C9"/>
<stop offset="1" stop-color="#66176E"/>
</linearGradient>
<linearGradient id="paint18_linear" x1="270.377" y1="101.123" x2="187.685" y2="296.189" gradientUnits="userSpaceOnUse">
<stop stop-color="#2950C9"/>
<stop offset="1" stop-color="#66176E"/>
</linearGradient>
<linearGradient id="paint19_linear" x1="248.106" y1="91.682" x2="165.414" y2="286.748" gradientUnits="userSpaceOnUse">
<stop stop-color="#2950C9"/>
<stop offset="1" stop-color="#66176E"/>
</linearGradient>
<linearGradient id="paint20_linear" x1="303.783" y1="115.284" x2="221.092" y2="310.35" gradientUnits="userSpaceOnUse">
<stop stop-color="#2950C9"/>
<stop offset="1" stop-color="#66176E"/>
</linearGradient>
<linearGradient id="paint21_linear" x1="253.673" y1="94.0421" x2="170.982" y2="289.108" gradientUnits="userSpaceOnUse">
<stop stop-color="#2950C9"/>
<stop offset="1" stop-color="#66176E"/>
</linearGradient>
<linearGradient id="paint22_linear" x1="298.215" y1="112.924" x2="215.524" y2="307.99" gradientUnits="userSpaceOnUse">
<stop stop-color="#2950C9"/>
<stop offset="1" stop-color="#66176E"/>
</linearGradient>
<linearGradient id="paint23_linear" x1="275.944" y1="103.483" x2="193.253" y2="298.549" gradientUnits="userSpaceOnUse">
<stop stop-color="#2950C9"/>
<stop offset="1" stop-color="#66176E"/>
</linearGradient>
<linearGradient id="paint24_linear" x1="292.647" y1="110.564" x2="209.956" y2="305.63" gradientUnits="userSpaceOnUse">
<stop stop-color="#2950C9"/>
<stop offset="1" stop-color="#66176E"/>
</linearGradient>
<linearGradient id="paint25_linear" x1="287.08" y1="108.203" x2="204.389" y2="303.27" gradientUnits="userSpaceOnUse">
<stop stop-color="#2950C9"/>
<stop offset="1" stop-color="#66176E"/>
</linearGradient>
<linearGradient id="paint26_linear" x1="281.512" y1="105.843" x2="198.821" y2="300.91" gradientUnits="userSpaceOnUse">
<stop stop-color="#2950C9"/>
<stop offset="1" stop-color="#66176E"/>
</linearGradient>
<linearGradient id="paint27_linear" x1="136.87" y1="44.5275" x2="54.1792" y2="239.594" gradientUnits="userSpaceOnUse">
<stop stop-color="#2950C9"/>
<stop offset="1" stop-color="#66176E"/>
</linearGradient>
<linearGradient id="paint28_linear" x1="346.785" y1="209.475" x2="562.354" y2="547.137" gradientUnits="userSpaceOnUse">
<stop stop-color="#5EFFD3"/>
<stop offset="0.4209" stop-color="#00BFFF"/>
<stop offset="1" stop-color="#D180D5"/>
</linearGradient>
<linearGradient id="paint29_linear" x1="319.654" y1="226.796" x2="535.224" y2="564.457" gradientUnits="userSpaceOnUse">
<stop stop-color="#5EFFD3"/>
<stop offset="0.4209" stop-color="#00BFFF"/>
<stop offset="1" stop-color="#D180D5"/>
</linearGradient>
<linearGradient id="paint30_linear" x1="333.836" y1="217.742" x2="549.406" y2="555.403" gradientUnits="userSpaceOnUse">
<stop stop-color="#5EFFD3"/>
<stop offset="0.4209" stop-color="#00BFFF"/>
<stop offset="1" stop-color="#D180D5"/>
</linearGradient>
<linearGradient id="paint31_linear" x1="354.246" y1="204.711" x2="569.815" y2="542.373" gradientUnits="userSpaceOnUse">
<stop stop-color="#5EFFD3"/>
<stop offset="0.4209" stop-color="#00BFFF"/>
<stop offset="1" stop-color="#D180D5"/>
</linearGradient>
</defs>
</svg>
