<svg id="ceca60d0-7fbd-48ad-9820-4475180f4b96" data-name="Layer 1" xmlns="http://www.w3.org/2000/svg" xmlns:xlink="http://www.w3.org/1999/xlink" viewBox="0 0 2020.9 1638.33"><defs><linearGradient id="6f784828-9ef1-4010-9d80-fa5eaa87c20e" x1="1018.69" y1="-718.35" x2="1167.54" y2="-718.35" gradientTransform="translate(0 902)" gradientUnits="userSpaceOnUse"><stop offset="0.06" stop-color="#fff"/><stop offset="0.13" stop-color="#f1f1f8"/><stop offset="0.25" stop-color="#cccce5"/><stop offset="0.31" stop-color="#bab9db"/><stop offset="0.45" stop-color="#a09fd2"/><stop offset="0.61" stop-color="#8786c9"/><stop offset="0.76" stop-color="#7877c4"/><stop offset="0.89" stop-color="#7372c2"/></linearGradient><linearGradient id="2fa3de10-7d72-41f6-8f5f-c959994195c9" x1="965.32" y1="-710.73" x2="990.82" y2="-722" gradientTransform="translate(0 902)" gradientUnits="userSpaceOnUse"><stop offset="0.02" stop-color="#e1e1f4"/><stop offset="1" stop-color="#f3f3fb"/></linearGradient><linearGradient id="fcec7fb2-a081-49e1-b10a-f59ee0bb9918" x1="1120.3" y1="-713.07" x2="1163.98" y2="-713.07" gradientTransform="translate(0 902)" gradientUnits="userSpaceOnUse"><stop offset="0.02" stop-color="#8383c6"/><stop offset="1" stop-color="#9192cd"/></linearGradient><linearGradient id="5b6db632-1e59-4d56-ac9e-88f9954879ea" x1="1670.8" y1="149.64" x2="1732.7" y2="256.34" gradientTransform="translate(0 902)" gradientUnits="userSpaceOnUse"><stop offset="0.09" stop-color="#a8dd00"/><stop offset="0.26" stop-color="#a8dd00"/><stop offset="0.5" stop-color="#ade700"/><stop offset="0.72" stop-color="#73c600"/><stop offset="0.92" stop-color="#7cc600"/><stop offset="1" stop-color="#89c600"/></linearGradient><linearGradient id="5988b4fe-a24b-4593-b141-00c9bc40e79f" x1="1688.59" y1="-277.33" x2="1685.2" y2="162.9" gradientTransform="translate(0 902)" gradientUnits="userSpaceOnUse"><stop offset="0.02" stop-color="#eda500"/><stop offset="0.96" stop-color="#9fc100"/><stop offset="1" stop-color="#6da900"/></linearGradient><linearGradient id="45cdeae4-a943-44c1-95da-adad870b7fcf" x1="355.5" y1="234.54" x2="502.5" y2="234.54" gradientTransform="translate(0 902)" gradientUnits="userSpaceOnUse"><stop offset="0.27" stop-color="#5f44d6"/><stop offset="0.38" stop-color="#6e56dc"/><stop offset="0.5" stop-color="#7864dc"/><stop offset="0.61" stop-color="#6f57dc"/><stop offset="0.75" stop-color="#5f44d6"/></linearGradient><linearGradient id="95c6c37a-e824-4055-b897-e971be4946ae" x1="428.96" y1="189.77" x2="428.96" y2="133.56" gradientTransform="translate(0 902)" gradientUnits="userSpaceOnUse"><stop offset="0" stop-color="#a092ed"/><stop offset="1" stop-color="#c1b8f6"/></linearGradient><linearGradient id="be0ceebf-252b-43fd-8c96-76c767e36021" x1="930.27" y1="-801.56" x2="1179.04" y2="-801.56" gradientTransform="translate(0 902)" gradientUnits="userSpaceOnUse"><stop offset="0.02" stop-color="#e0e0f3"/><stop offset="1" stop-color="#c9c9e3"/></linearGradient><linearGradient id="134d7d7c-faaa-498c-a165-f74521bf00b9" x1="428.93" y1="183.06" x2="428.93" y2="156.25" gradientTransform="translate(0 902)" gradientUnits="userSpaceOnUse"><stop offset="0" stop-color="#372093"/><stop offset="1" stop-color="#7768bf"/></linearGradient><linearGradient id="8ab3fcbe-6438-4984-8cbf-9761870a2fe9" x1="428.64" y1="-250.87" x2="421.3" y2="169.15" gradientTransform="translate(0 902)" gradientUnits="userSpaceOnUse"><stop offset="0" stop-color="#c938c3"/><stop offset="1" stop-color="#9b65f6"/></linearGradient><linearGradient id="142bf7cb-ff18-4afa-8a6d-3b469b72b460" x1="1147.79" y1="517.2" x2="1623.78" y2="243.98" gradientTransform="translate(0 902)" gradientUnits="userSpaceOnUse"><stop offset="0" stop-color="#00a59c"/><stop offset="1" stop-color="#8adb08"/></linearGradient><linearGradient id="3d59e386-1b78-4322-be4e-fbf5e710feff" x1="501.37" y1="254.41" x2="946.86" y2="507.95" gradientTransform="translate(0 902)" gradientUnits="userSpaceOnUse"><stop offset="0" stop-color="#7c64df"/><stop offset="1" stop-color="#00a2c9"/></linearGradient><linearGradient id="a27e16ed-a77a-455d-a839-bd0ab6c4f0af" x1="1205.23" y1="-679.73" x2="1575.98" y2="-459.84" gradientTransform="translate(0 902)" gradientUnits="userSpaceOnUse"><stop offset="0.02" stop-color="#9f9ccc"/><stop offset="0.5" stop-color="#d7a38b"/><stop offset="1" stop-color="#fcc500"/></linearGradient><linearGradient id="f2534b2f-2fad-4916-b4c5-45ca9ef33513" x1="924.52" y1="-687.95" x2="502.21" y2="-442.98" gradientTransform="translate(0 902)" gradientUnits="userSpaceOnUse"><stop offset="0" stop-color="#c1c0e0"/><stop offset="1" stop-color="#d6358a"/></linearGradient><linearGradient id="1b89a0be-39c0-43dc-84be-299c41f7769d" x1="987.05" y1="539.54" x2="995.03" y2="526.23" gradientTransform="translate(0 902)" gradientUnits="userSpaceOnUse"><stop offset="0" stop-color="#008fa8"/><stop offset="1" stop-color="#00cfe8"/></linearGradient><linearGradient id="eab134cc-327e-4346-a2ed-82101d618f28" x1="1096.64" y1="558.98" x2="1086.74" y2="542.1" xlink:href="#1b89a0be-39c0-43dc-84be-299c41f7769d"/><linearGradient id="bb0fe75e-6c6e-4947-b27f-b699ae0b40e3" x1="1038.02" y1="511.87" x2="1103.88" y2="620.07" gradientTransform="translate(0 902)" gradientUnits="userSpaceOnUse"><stop offset="0.09" stop-color="#00e3f3"/><stop offset="0.26" stop-color="#00e3f3"/><stop offset="0.45" stop-color="#76f3fa"/><stop offset="0.53" stop-color="#7ef4fb"/><stop offset="0.63" stop-color="#00e3f4"/><stop offset="0.75" stop-color="#00c9e8"/></linearGradient><linearGradient id="a5af48e9-752c-4406-9cea-36b143fe5731" x1="1020.28" y1="595.55" x2="971.58" y2="622.95" xlink:href="#1b89a0be-39c0-43dc-84be-299c41f7769d"/><linearGradient id="a2acfe94-eb3e-4602-a9ed-6160628c450a" x1="892.73" y1="665.38" x2="1001.11" y2="604.05" gradientTransform="translate(0 902)" gradientUnits="userSpaceOnUse"><stop offset="0" stop-color="#1deef8" stop-opacity="0"/><stop offset="0.75" stop-color="#1deef8" stop-opacity="0.4"/><stop offset="1" stop-color="#59eef8"/></linearGradient><linearGradient id="c03cca9e-b0aa-4aaa-a42a-7f29f5280818" x1="1622.11" y1="-447.37" x2="1613.6" y2="-432.9" gradientTransform="translate(0 902)" gradientUnits="userSpaceOnUse"><stop offset="0" stop-color="#ffc600"/><stop offset="1" stop-color="#db8000"/></linearGradient><linearGradient id="537e2c7c-3bbe-4238-8ea2-f7e5063aca80" x1="1612" y1="-369.46" x2="1759" y2="-369.46" gradientTransform="translate(0 902)" gradientUnits="userSpaceOnUse"><stop offset="0.2" stop-color="#e09600"/><stop offset="0.38" stop-color="#eda400"/><stop offset="0.5" stop-color="#efa600"/><stop offset="0.72" stop-color="#cf7700"/><stop offset="1" stop-color="#c88000"/></linearGradient><linearGradient id="b0b0e04b-ced1-45cb-9deb-b4fc89524384" x1="1668.84" y1="-481.6" x2="1702.72" y2="-481.6" gradientTransform="translate(0 902)" gradientUnits="userSpaceOnUse"><stop offset="0" stop-color="#afb0e2"/><stop offset="1" stop-color="#ededfd"/></linearGradient><linearGradient id="4fe32171-4dcb-4a98-ab85-4d4a3a3f6a92" x1="367.5" y1="-336.84" x2="491.2" y2="-336.84" gradientTransform="translate(0 902)" gradientUnits="userSpaceOnUse"><stop offset="0.27" stop-color="#910054"/><stop offset="0.51" stop-color="#bb1a70"/><stop offset="0.75" stop-color="#b3186e"/></linearGradient><linearGradient id="f0cd751e-0119-480a-baa3-0692b0261ce4" x1="355.8" y1="-359.66" x2="502.8" y2="-359.66" gradientTransform="translate(0 902)" gradientUnits="userSpaceOnUse"><stop offset="0.27" stop-color="#b00066"/><stop offset="0.48" stop-color="#db2986"/><stop offset="0.55" stop-color="#d92885"/><stop offset="0.75" stop-color="#ce2581"/></linearGradient><linearGradient id="784f811a-80ad-4b66-83ae-c2bdf5e68222" x1="412.96" y1="-416.29" x2="504.92" y2="-416.29" gradientTransform="translate(0 902)" gradientUnits="userSpaceOnUse"><stop offset="0" stop-color="#f354a3"/><stop offset="1" stop-color="#f367a3"/></linearGradient><radialGradient id="bf85a4e4-8c57-4185-b191-643f98ae4b20" cx="410.4" cy="-504.5" r="9.66" gradientTransform="translate(-82 878.82)" gradientUnits="userSpaceOnUse"><stop offset="0.27" stop-color="#f1f2fd"/><stop offset="1" stop-color="#b7b7da"/></radialGradient><radialGradient id="07ecbb62-b150-4786-a533-e57b00102024" cx="1174.68" cy="-1103.26" r="9.65" gradientTransform="translate(30.87 1972.1) rotate(-34.76)" xlink:href="#bf85a4e4-8c57-4185-b191-643f98ae4b20"/></defs><title>vision</title><path d="M498.8,623.9l-47.3,27.7c-12.5,7.3-32.8,7.3-45.3,0l-47.3-27.7c-12.5-7.3-12.5-19.2,0-26.5l47.3-27.7c12.5-7.3,32.8-7.3,45.3,0l47.3,27.7C511.3,604.7,511.3,616.6,498.8,623.9Z" transform="translate(-82 -23.18)" style="fill:#fff"/><path d="M495.2,623.2l-44.9,26.2c-11.9,6.9-31.1,6.9-43,0l-44.9-26.2c-11.9-6.9-11.9-18.2,0-25.1l44.9-26.2c11.9-6.9,31.1-6.9,43,0l44.9,26.2C507,605,507,616.3,495.2,623.2Z" transform="translate(-82 -23.18)" style="fill:#fcfcfd"/><path d="M491.5,622.5l-42.4,24.8c-11.2,6.6-29.4,6.6-40.6,0l-42.4-24.8c-11.2-6.6-11.2-17.2,0-23.7L408.5,574c11.2-6.6,29.4-6.6,40.6,0l42.4,24.8C502.7,605.3,502.7,616,491.5,622.5Z" transform="translate(-82 -23.18)" style="fill:#fafafc"/><path d="M487.9,621.8,448,645.2c-10.6,6.2-27.7,6.2-38.2,0l-39.9-23.4c-10.6-6.2-10.6-16.2,0-22.4L409.8,576c10.6-6.2,27.7-6.2,38.2,0l39.9,23.4C498.4,605.6,498.4,615.6,487.9,621.8Z" transform="translate(-82 -23.18)" style="fill:#f7f7fa"/><path d="M484.2,621.1,446.7,643c-9.9,5.8-26,5.8-35.9,0l-37.5-21.9c-9.9-5.8-9.9-15.2,0-21l37.5-21.9c9.9-5.8,26-5.8,35.9,0l37.5,21.9C494.1,606,494.1,615.3,484.2,621.1Z" transform="translate(-82 -23.18)" style="fill:#f5f5f9"/><path d="M480.6,620.4l-35,20.5c-9.2,5.4-24.2,5.4-33.5,0l-35-20.5c-9.2-5.4-9.2-14.2,0-19.6l35-20.5c9.2-5.4,24.2-5.4,33.5,0l35,20.5C489.8,606.3,489.8,615,480.6,620.4Z" transform="translate(-82 -23.18)" style="fill:#f2f2f7"/><path d="M476.9,619.7l-32.5,19c-8.6,5-22.5,5-31.1,0l-32.5-19c-8.6-5-8.6-13.2,0-18.2l32.5-19c8.6-5,22.5-5,31.1,0l32.5,19C485.5,606.6,485.5,614.7,476.9,619.7Z" transform="translate(-82 -23.18)" style="fill:#efeff5"/><path d="M473.3,619.1l-30.1,17.6c-7.9,4.6-20.8,4.6-28.8,0l-30.1-17.6c-7.9-4.6-7.9-12.2,0-16.8l30.1-17.6c7.9-4.6,20.8-4.6,28.8,0l30.1,17.6C481.2,606.9,481.2,614.4,473.3,619.1Z" transform="translate(-82 -23.18)" style="fill:#ededf4"/><path d="M469.6,618.4,442,634.5c-7.3,4.3-19.1,4.3-26.4,0L388,618.4c-7.3-4.3-7.3-11.2,0-15.4l27.6-16.2c7.3-4.3,19.1-4.3,26.4,0L469.6,603C476.9,607.2,476.9,614.1,469.6,618.4Z" transform="translate(-82 -23.18)" style="fill:#eaeaf2"/><path d="M466,617.7l-25.2,14.7c-6.6,3.9-17.4,3.9-24,0l-25.2-14.7c-6.6-3.9-6.6-10.2,0-14L416.8,589c6.6-3.9,17.4-3.9,24,0L466,603.7C472.6,607.5,472.6,613.8,466,617.7Z" transform="translate(-82 -23.18)" style="fill:#e7e7f0"/><path d="M462.3,617l-22.7,13.3c-6,3.5-15.7,3.5-21.7,0L395.3,617c-6-3.5-6-9.2,0-12.7L418,591c6-3.5,15.7-3.5,21.7,0l22.7,13.3C468.3,607.8,468.3,613.5,462.3,617Z" transform="translate(-82 -23.18)" style="fill:#e5e5ef"/><path d="M458.7,616.3l-20.2,11.8c-5.3,3.1-14,3.1-19.3,0L399,616.3c-5.3-3.1-5.3-8.2,0-11.3l20.2-11.8c5.3-3.1,14-3.1,19.3,0L458.7,605C464,608.1,464,613.2,458.7,616.3Z" transform="translate(-82 -23.18)" style="fill:#e2e2ed"/><path d="M455,615.6,437.3,626a18.64,18.64,0,0,1-16.9,0l-17.8-10.4c-4.7-2.7-4.7-7.2,0-9.9l17.8-10.4a18.64,18.64,0,0,1,16.9,0l17.8,10.4C459.7,608.4,459.7,612.9,455,615.6Z" transform="translate(-82 -23.18)" style="fill:#e0e0ec"/><path d="M451.4,614.9l-15.3,8.9a16.1,16.1,0,0,1-14.5,0l-15.3-8.9c-4-2.3-4-6.2,0-8.5l15.3-8.9a16.1,16.1,0,0,1,14.5,0l15.3,8.9C455.4,608.7,455.4,612.5,451.4,614.9Z" transform="translate(-82 -23.18)" style="fill:#ddddea"/><path d="M498.8,1202.4l-47.3,27.7c-12.5,7.3-32.8,7.3-45.3,0l-47.3-27.7c-12.5-7.3-12.5-19.2,0-26.5l47.3-27.7c12.5-7.3,32.8-7.3,45.3,0l47.3,27.7C511.3,1183.2,511.3,1195.1,498.8,1202.4Z" transform="translate(-82 -23.18)" style="fill:#fff"/><path d="M495.2,1201.7l-44.9,26.2c-11.9,6.9-31.1,6.9-43,0l-44.9-26.2c-11.9-6.9-11.9-18.2,0-25.1l44.9-26.2c11.9-6.9,31.1-6.9,43,0l44.9,26.2C507,1183.6,507,1194.8,495.2,1201.7Z" transform="translate(-82 -23.18)" style="fill:#fcfcfd"/><path d="M491.5,1201l-42.4,24.8c-11.2,6.6-29.4,6.6-40.6,0L366.1,1201c-11.2-6.6-11.2-17.2,0-23.7l42.4-24.8c11.2-6.6,29.4-6.6,40.6,0l42.4,24.8C502.7,1183.9,502.7,1194.5,491.5,1201Z" transform="translate(-82 -23.18)" style="fill:#fafafc"/><path d="M487.9,1200.4,448,1223.8c-10.6,6.2-27.7,6.2-38.2,0l-39.9-23.4c-10.6-6.2-10.6-16.2,0-22.4l39.9-23.4c10.6-6.2,27.7-6.2,38.2,0l39.9,23.4C498.4,1184.2,498.4,1194.2,487.9,1200.4Z" transform="translate(-82 -23.18)" style="fill:#f7f7fa"/><path d="M484.2,1199.7l-37.5,21.9c-9.9,5.8-26,5.8-35.9,0l-37.5-21.9c-9.9-5.8-9.9-15.2,0-21l37.5-21.9c9.9-5.8,26-5.8,35.9,0l37.5,21.9C494.1,1184.5,494.1,1193.9,484.2,1199.7Z" transform="translate(-82 -23.18)" style="fill:#f5f5f9"/><path d="M480.6,1199l-35,20.5c-9.2,5.4-24.2,5.4-33.5,0l-35-20.5c-9.2-5.4-9.2-14.2,0-19.6l35-20.5c9.2-5.4,24.2-5.4,33.5,0l35,20.5C489.8,1184.8,489.8,1193.6,480.6,1199Z" transform="translate(-82 -23.18)" style="fill:#f2f2f7"/><path d="M476.9,1198.3l-32.5,19c-8.6,5-22.5,5-31.1,0l-32.5-19c-8.6-5-8.6-13.2,0-18.2l32.5-19c8.6-5,22.5-5,31.1,0l32.5,19C485.5,1185.1,485.5,1193.2,476.9,1198.3Z" transform="translate(-82 -23.18)" style="fill:#efeff5"/><path d="M473.3,1197.6l-30.1,17.6c-7.9,4.6-20.8,4.6-28.8,0l-30.1-17.6c-7.9-4.6-7.9-12.2,0-16.8l30.1-17.6c7.9-4.6,20.8-4.6,28.8,0l30.1,17.6C481.2,1185.4,481.2,1192.9,473.3,1197.6Z" transform="translate(-82 -23.18)" style="fill:#ededf4"/><path d="M469.6,1196.9,442,1213c-7.3,4.3-19.1,4.3-26.4,0L388,1196.8c-7.3-4.3-7.3-11.2,0-15.4l27.6-16.2c7.3-4.3,19.1-4.3,26.4,0l27.6,16.2C476.9,1185.7,476.9,1192.6,469.6,1196.9Z" transform="translate(-82 -23.18)" style="fill:#eaeaf2"/><path d="M466,1196.2l-25.2,14.7c-6.6,3.9-17.4,3.9-24,0l-25.2-14.7c-6.6-3.9-6.6-10.2,0-14l25.2-14.7c6.6-3.9,17.4-3.9,24,0l25.2,14.7C472.6,1186,472.6,1192.3,466,1196.2Z" transform="translate(-82 -23.18)" style="fill:#e7e7f0"/><path d="M462.3,1195.5l-22.7,13.3c-6,3.5-15.7,3.5-21.7,0l-22.7-13.3c-6-3.5-6-9.2,0-12.7l22.7-13.3c6-3.5,15.7-3.5,21.7,0l22.7,13.3C468.3,1186.3,468.3,1192,462.3,1195.5Z" transform="translate(-82 -23.18)" style="fill:#e5e5ef"/><path d="M458.7,1194.8l-20.2,11.8c-5.3,3.1-14,3.1-19.3,0L399,1194.8c-5.3-3.1-5.3-8.2,0-11.3l20.2-11.8c5.3-3.1,14-3.1,19.3,0l20.2,11.8C464,1186.7,464,1191.7,458.7,1194.8Z" transform="translate(-82 -23.18)" style="fill:#e2e2ed"/><path d="M455,1194.1l-17.8,10.4a18.64,18.64,0,0,1-16.9,0l-17.8-10.4c-4.7-2.7-4.7-7.2,0-9.9l17.8-10.4a18.64,18.64,0,0,1,16.9,0l17.8,10.4C459.7,1187,459.7,1191.4,455,1194.1Z" transform="translate(-82 -23.18)" style="fill:#e0e0ec"/><path d="M451.4,1193.4l-15.3,8.9a16.1,16.1,0,0,1-14.5,0l-15.3-8.9c-4-2.3-4-6.2,0-8.5l15.3-8.9a16.1,16.1,0,0,1,14.5,0l15.3,8.9C455.4,1187.3,455.4,1191.1,451.4,1193.4Z" transform="translate(-82 -23.18)" style="fill:#ddddea"/><path d="M1122.5,1562.7l-47.3,27.7c-12.5,7.3-32.8,7.3-45.3,0l-47.3-27.7c-12.5-7.3-12.5-19.2,0-26.5l47.3-27.7c12.5-7.3,32.8-7.3,45.3,0l47.3,27.7C1135,1543.5,1135,1555.4,1122.5,1562.7Z" transform="translate(-82 -23.18)" style="fill:#fff"/><path d="M1118.8,1562l-44.9,26.2c-11.9,6.9-31.1,6.9-43,0L986,1562c-11.9-6.9-11.9-18.2,0-25.1l44.9-26.2c11.9-6.9,31.1-6.9,43,0l44.9,26.2C1130.7,1543.8,1130.7,1555,1118.8,1562Z" transform="translate(-82 -23.18)" style="fill:#fcfcfd"/><path d="M1115.2,1561.3l-42.4,24.8c-11.2,6.6-29.4,6.6-40.6,0l-42.4-24.8c-11.2-6.6-11.2-17.2,0-23.7l42.4-24.8c11.2-6.6,29.4-6.6,40.6,0l42.4,24.8C1126.4,1544.1,1126.4,1554.7,1115.2,1561.3Z" transform="translate(-82 -23.18)" style="fill:#fafafc"/><path d="M1111.6,1560.6l-39.9,23.4c-10.6,6.2-27.7,6.2-38.2,0l-39.9-23.4c-10.6-6.2-10.6-16.2,0-22.4l39.9-23.4c10.6-6.2,27.7-6.2,38.2,0l39.9,23.4C1122.1,1544.4,1122.1,1554.4,1111.6,1560.6Z" transform="translate(-82 -23.18)" style="fill:#f7f7fa"/><path d="M1107.9,1559.9l-37.5,21.9c-9.9,5.8-26,5.8-35.9,0L997,1559.9c-9.9-5.8-9.9-15.2,0-21l37.5-21.9c9.9-5.8,26-5.8,35.9,0l37.5,21.9C1117.8,1544.7,1117.8,1554.1,1107.9,1559.9Z" transform="translate(-82 -23.18)" style="fill:#f5f5f9"/><path d="M1104.3,1559.2l-35,20.5c-9.2,5.4-24.2,5.4-33.5,0l-35-20.5c-9.2-5.4-9.2-14.2,0-19.6l35-20.5c9.2-5.4,24.2-5.4,33.5,0l35,20.5C1113.5,1545,1113.5,1553.8,1104.3,1559.2Z" transform="translate(-82 -23.18)" style="fill:#f2f2f7"/><path d="M1100.6,1558.5l-32.5,19c-8.6,5-22.5,5-31.1,0l-32.5-19c-8.6-5-8.6-13.2,0-18.2l32.5-19c8.6-5,22.5-5,31.1,0l32.5,19C1109.2,1545.3,1109.2,1553.5,1100.6,1558.5Z" transform="translate(-82 -23.18)" style="fill:#efeff5"/><path d="M1097,1557.8l-30.1,17.6c-7.9,4.6-20.8,4.6-28.8,0l-30.1-17.6c-7.9-4.6-7.9-12.2,0-16.8l30.1-17.6c7.9-4.6,20.8-4.6,28.8,0L1097,1541C1104.9,1545.7,1104.9,1553.2,1097,1557.8Z" transform="translate(-82 -23.18)" style="fill:#ededf4"/><path d="M1093.3,1557.1l-27.6,16.2c-7.3,4.3-19.1,4.3-26.4,0l-27.6-16.2c-7.3-4.3-7.3-11.2,0-15.4l27.6-16.2c7.3-4.3,19.1-4.3,26.4,0l27.6,16.2C1100.6,1546,1100.6,1552.9,1093.3,1557.1Z" transform="translate(-82 -23.18)" style="fill:#eaeaf2"/><path d="M1089.7,1556.4l-25.2,14.7c-6.6,3.9-17.4,3.9-24,0l-25.2-14.7c-6.6-3.9-6.6-10.2,0-14l25.2-14.7c6.6-3.9,17.4-3.9,24,0l25.2,14.7C1096.3,1546.3,1096.3,1552.6,1089.7,1556.4Z" transform="translate(-82 -23.18)" style="fill:#e7e7f0"/><path d="M1086,1555.8l-22.7,13.3c-6,3.5-15.7,3.5-21.7,0l-22.7-13.3c-6-3.5-6-9.2,0-12.7l22.7-13.3c6-3.5,15.7-3.5,21.7,0l22.7,13.3C1092,1546.6,1092,1552.3,1086,1555.8Z" transform="translate(-82 -23.18)" style="fill:#e5e5ef"/><path d="M1082.4,1555.1l-20.2,11.8c-5.3,3.1-14,3.1-19.3,0l-20.2-11.8c-5.3-3.1-5.3-8.2,0-11.3l20.2-11.8c5.3-3.1,14-3.1,19.3,0l20.2,11.8C1087.7,1546.9,1087.7,1551.9,1082.4,1555.1Z" transform="translate(-82 -23.18)" style="fill:#e2e2ed"/><path d="M1078.7,1554.4l-17.8,10.4a18.64,18.64,0,0,1-16.9,0l-17.8-10.4c-4.7-2.7-4.7-7.2,0-9.9l17.8-10.4a18.64,18.64,0,0,1,16.9,0l17.8,10.4C1083.4,1547.2,1083.4,1551.6,1078.7,1554.4Z" transform="translate(-82 -23.18)" style="fill:#e0e0ec"/><path d="M1075.1,1553.7l-15.3,8.9a16.1,16.1,0,0,1-14.5,0l-15.3-8.9c-4-2.3-4-6.2,0-8.5l15.3-8.9a16.1,16.1,0,0,1,14.5,0l15.3,8.9C1079.1,1547.5,1079.1,1551.3,1075.1,1553.7Z" transform="translate(-82 -23.18)" style="fill:#ddddea"/><path d="M1756,1192.4l-47.3,27.7c-12.5,7.3-32.8,7.3-45.3,0l-47.3-27.7c-12.5-7.3-12.5-19.2,0-26.5l47.3-27.7c12.5-7.3,32.8-7.3,45.3,0l47.3,27.7C1768.5,1173.2,1768.5,1185.1,1756,1192.4Z" transform="translate(-82 -23.18)" style="fill:#fff"/><path d="M1752.3,1191.7l-44.9,26.2c-11.9,6.9-31.1,6.9-43,0l-44.9-26.2c-11.9-6.9-11.9-18.2,0-25.1l44.9-26.2c11.9-6.9,31.1-6.9,43,0l44.9,26.2C1764.2,1173.6,1764.2,1184.8,1752.3,1191.7Z" transform="translate(-82 -23.18)" style="fill:#fcfcfd"/><path d="M1748.7,1191l-42.4,24.8c-11.2,6.6-29.4,6.6-40.6,0l-42.4-24.8c-11.2-6.6-11.2-17.2,0-23.7l42.4-24.8c11.2-6.6,29.4-6.6,40.6,0l42.4,24.8C1759.9,1173.9,1759.9,1184.5,1748.7,1191Z" transform="translate(-82 -23.18)" style="fill:#fafafc"/><path d="M1745.1,1190.4l-39.9,23.4c-10.6,6.2-27.7,6.2-38.2,0l-39.9-23.4c-10.6-6.2-10.6-16.2,0-22.4l39.9-23.4c10.6-6.2,27.7-6.2,38.2,0l39.9,23.4C1755.6,1174.2,1755.6,1184.2,1745.1,1190.4Z" transform="translate(-82 -23.18)" style="fill:#f7f7fa"/><path d="M1741.4,1189.7l-37.5,21.9c-9.9,5.8-26,5.8-35.9,0l-37.5-21.9c-9.9-5.8-9.9-15.2,0-21l37.5-21.9c9.9-5.8,26-5.8,35.9,0l37.5,21.9C1751.3,1174.5,1751.3,1183.9,1741.4,1189.7Z" transform="translate(-82 -23.18)" style="fill:#f5f5f9"/><path d="M1737.8,1189l-35,20.5c-9.2,5.4-24.2,5.4-33.5,0l-35-20.5c-9.2-5.4-9.2-14.2,0-19.6l35-20.5c9.2-5.4,24.2-5.4,33.5,0l35,20.5C1747,1174.8,1747,1183.6,1737.8,1189Z" transform="translate(-82 -23.18)" style="fill:#f2f2f7"/><path d="M1734.1,1188.3l-32.5,19c-8.6,5-22.5,5-31.1,0l-32.5-19c-8.6-5-8.6-13.2,0-18.2l32.5-19c8.6-5,22.5-5,31.1,0l32.5,19C1742.7,1175.1,1742.7,1183.2,1734.1,1188.3Z" transform="translate(-82 -23.18)" style="fill:#efeff5"/><path d="M1730.5,1187.6l-30.1,17.6c-7.9,4.6-20.8,4.6-28.8,0l-30.1-17.6c-7.9-4.6-7.9-12.2,0-16.8l30.1-17.6c7.9-4.6,20.8-4.6,28.8,0l30.1,17.6C1738.4,1175.4,1738.4,1182.9,1730.5,1187.6Z" transform="translate(-82 -23.18)" style="fill:#ededf4"/><path d="M1726.8,1186.9l-27.6,16.2c-7.3,4.3-19.1,4.3-26.4,0l-27.6-16.2c-7.3-4.3-7.3-11.2,0-15.4l27.6-16.2c7.3-4.3,19.1-4.3,26.4,0l27.6,16.2C1734.1,1175.7,1734.1,1182.6,1726.8,1186.9Z" transform="translate(-82 -23.18)" style="fill:#eaeaf2"/><path d="M1723.2,1186.2l-25.2,14.7c-6.6,3.9-17.4,3.9-24,0l-25.2-14.7c-6.6-3.9-6.6-10.2,0-14l25.2-14.7c6.6-3.9,17.4-3.9,24,0l25.2,14.7C1729.8,1176,1729.8,1182.3,1723.2,1186.2Z" transform="translate(-82 -23.18)" style="fill:#e7e7f0"/><path d="M1719.5,1185.5l-22.7,13.3c-6,3.5-15.7,3.5-21.7,0l-22.7-13.3c-6-3.5-6-9.2,0-12.7l22.7-13.3c6-3.5,15.7-3.5,21.7,0l22.7,13.3C1725.5,1176.3,1725.5,1182,1719.5,1185.5Z" transform="translate(-82 -23.18)" style="fill:#e5e5ef"/><path d="M1715.9,1184.8l-20.2,11.8c-5.3,3.1-14,3.1-19.3,0l-20.2-11.8c-5.3-3.1-5.3-8.2,0-11.3l20.2-11.8c5.3-3.1,14-3.1,19.3,0l20.2,11.8C1721.2,1176.7,1721.2,1181.7,1715.9,1184.8Z" transform="translate(-82 -23.18)" style="fill:#e2e2ed"/><path d="M1712.2,1184.1l-17.8,10.4a18.64,18.64,0,0,1-16.9,0l-17.8-10.4c-4.7-2.7-4.7-7.2,0-9.9l17.8-10.4a18.64,18.64,0,0,1,16.9,0l17.8,10.4C1716.9,1177,1716.9,1181.4,1712.2,1184.1Z" transform="translate(-82 -23.18)" style="fill:#e0e0ec"/><path d="M1708.6,1183.4l-15.3,8.9a16.1,16.1,0,0,1-14.5,0l-15.3-8.9c-4-2.3-4-6.2,0-8.5l15.3-8.9a16.1,16.1,0,0,1,14.5,0l15.3,8.9C1712.6,1177.3,1712.6,1181.1,1708.6,1183.4Z" transform="translate(-82 -23.18)" style="fill:#ddddea"/><path d="M1756,602.9l-47.3,27.7c-12.5,7.3-32.8,7.3-45.3,0l-47.3-27.7c-12.5-7.3-12.5-19.2,0-26.5l47.3-27.7c12.5-7.3,32.8-7.3,45.3,0l47.3,27.7C1768.5,583.7,1768.5,595.5,1756,602.9Z" transform="translate(-82 -23.18)" style="fill:#fff"/><path d="M1751.4,602l-44.2,25.8c-11.7,6.8-30.6,6.8-42.3,0L1620.7,602c-11.7-6.8-11.7-17.9,0-24.7l44.2-25.8c11.7-6.8,30.6-6.8,42.3,0l44.2,25.8C1763.1,584.1,1763.1,595.1,1751.4,602Z" transform="translate(-82 -23.18)" style="fill:#fcfcfd"/><path d="M1746.7,601.1l-41.1,24c-10.9,6.3-28.5,6.3-39.3,0l-41.1-24c-10.9-6.3-10.9-16.6,0-23l41.1-24c10.9-6.3,28.5-6.3,39.3,0l41.1,24C1757.6,584.5,1757.6,594.7,1746.7,601.1Z" transform="translate(-82 -23.18)" style="fill:#fafafc"/><path d="M1742.1,600.2l-37.9,22.2c-10,5.9-26.3,5.9-36.3,0L1630,600.2c-10-5.9-10-15.4,0-21.2l37.9-22.2c10-5.9,26.3-5.9,36.3,0l37.9,22.2C1752.1,584.8,1752.1,594.4,1742.1,600.2Z" transform="translate(-82 -23.18)" style="fill:#f7f7fa"/><path d="M1737.5,599.3l-34.8,20.4c-9.2,5.4-24.1,5.4-33.3,0l-34.8-20.4c-9.2-5.4-9.2-14.1,0-19.5l34.8-20.4c9.2-5.4,24.1-5.4,33.3,0l34.8,20.4C1746.7,585.2,1746.7,594,1737.5,599.3Z" transform="translate(-82 -23.18)" style="fill:#f5f5f9"/><path d="M1732.9,598.5,1701.2,617c-8.4,4.9-22,4.9-30.3,0l-31.7-18.5c-8.4-4.9-8.4-12.8,0-17.7l31.7-18.5c8.4-4.9,22-4.9,30.3,0l31.7,18.5C1741.2,585.6,1741.2,593.6,1732.9,598.5Z" transform="translate(-82 -23.18)" style="fill:#f2f2f7"/><path d="M1728.2,597.6l-28.6,16.7c-7.5,4.4-19.8,4.4-27.3,0l-28.6-16.7c-7.5-4.4-7.5-11.6,0-16l28.6-16.7c7.5-4.4,19.8-4.4,27.3,0l28.6,16.7C1735.8,586,1735.8,593.2,1728.2,597.6Z" transform="translate(-82 -23.18)" style="fill:#efeff5"/><path d="M1723.6,596.7l-25.4,14.9c-6.7,3.9-17.6,3.9-24.3,0l-25.4-14.9c-6.7-3.9-6.7-10.3,0-14.2l25.4-14.9c6.7-3.9,17.6-3.9,24.3,0l25.4,14.9C1730.3,586.4,1730.3,592.8,1723.6,596.7Z" transform="translate(-82 -23.18)" style="fill:#ededf4"/><path d="M1719,595.8l-22.3,13c-5.9,3.4-15.4,3.4-21.3,0l-22.3-13c-5.9-3.4-5.9-9,0-12.5l22.3-13c5.9-3.4,15.4-3.4,21.3,0l22.3,13C1724.9,586.8,1724.9,592.4,1719,595.8Z" transform="translate(-82 -23.18)" style="fill:#eaeaf2"/><path d="M1714.3,595l-19.2,11.2c-5.1,3-13.3,3-18.3,0L1657.6,595c-5.1-3-5.1-7.8,0-10.7l19.2-11.2c5.1-3,13.3-3,18.3,0l19.2,11.2C1719.4,587.2,1719.4,592,1714.3,595Z" transform="translate(-82 -23.18)" style="fill:#e7e7f0"/><path d="M1709.7,594.1l-16,9.4a16.54,16.54,0,0,1-15.3,0l-16-9.4c-4.2-2.5-4.2-6.5,0-9l16-9.4a16.54,16.54,0,0,1,15.3,0l16,9.4C1713.9,587.6,1713.9,591.6,1709.7,594.1Z" transform="translate(-82 -23.18)" style="fill:#e5e5ef"/><path d="M1705.1,593.2l-12.9,7.6a13.36,13.36,0,0,1-12.3,0l-12.9-7.6c-3.4-2-3.4-5.2,0-7.2l12.9-7.6a13.36,13.36,0,0,1,12.3,0l12.9,7.6C1708.5,588,1708.5,591.2,1705.1,593.2Z" transform="translate(-82 -23.18)" style="fill:#e2e2ed"/><path d="M1700.4,592.3l-9.8,5.7a10.17,10.17,0,0,1-9.3,0l-9.8-5.7c-2.6-1.5-2.6-3.9,0-5.5l9.8-5.7a10.17,10.17,0,0,1,9.3,0l9.8,5.7C1703,588.4,1703,590.8,1700.4,592.3Z" transform="translate(-82 -23.18)" style="fill:#e0e0ec"/><path d="M1695.8,591.5l-6.7,3.9a7,7,0,0,1-6.3,0l-6.7-3.9c-1.7-1-1.7-2.7,0-3.7l6.7-3.9a7,7,0,0,1,6.3,0l6.7,3.9C1697.6,588.8,1697.6,590.4,1695.8,591.5Z" transform="translate(-82 -23.18)" style="fill:#ddddea"/><path d="M1174.8,246.2l-90,52.6c-23.8,13.9-62.4,13.9-86.1,0l-90-52.6c-23.8-13.9-23.8-36.5,0-50.4l90-52.6c23.8-13.9,62.4-13.9,86.1,0l90,52.6C1198.6,209.8,1198.6,232.3,1174.8,246.2Z" transform="translate(-82 -23.18)" style="fill:#fff"/><path d="M1167.9,244.9l-85.3,49.9c-22.5,13.2-59.1,13.2-81.6,0l-85.3-49.9c-22.5-13.2-22.5-34.6,0-47.7l85.3-49.9c22.5-13.2,59.1-13.2,81.6,0l85.3,49.9C1190.5,210.3,1190.5,231.7,1167.9,244.9Z" transform="translate(-82 -23.18)" style="fill:#fcfcfd"/><path d="M1161,243.6l-80.6,47.1c-21.3,12.5-55.8,12.5-77.1,0l-80.6-47.1c-21.3-12.5-21.3-32.7,0-45.1l80.6-47.1c21.3-12.5,55.8-12.5,77.1,0l80.6,47.1C1182.3,210.9,1182.3,231.1,1161,243.6Z" transform="translate(-82 -23.18)" style="fill:#fafafc"/><path d="M1154,242.3l-75.9,44.4c-20.1,11.7-52.6,11.7-72.6,0l-75.9-44.4c-20.1-11.7-20.1-30.8,0-42.5l75.9-44.4c20.1-11.7,52.6-11.7,72.6,0l75.9,44.4C1174.1,211.5,1174.1,230.5,1154,242.3Z" transform="translate(-82 -23.18)" style="fill:#f7f7fa"/><path d="M1147.1,241l-71.2,41.7c-18.8,11-49.3,11-68.1,0L936.5,241c-18.8-11-18.8-28.8,0-39.9l71.2-41.7c18.8-11,49.3-11,68.1,0l71.2,41.7C1165.9,212.1,1165.9,230,1147.1,241Z" transform="translate(-82 -23.18)" style="fill:#f5f5f9"/><path d="M1140.2,239.6l-66.5,38.9c-17.6,10.3-46.1,10.3-63.6,0l-66.5-38.9c-17.6-10.3-17.6-26.9,0-37.2l66.5-38.9c17.6-10.3,46.1-10.3,63.6,0l66.5,38.9C1157.7,212.7,1157.7,229.4,1140.2,239.6Z" transform="translate(-82 -23.18)" style="fill:#f2f2f7"/><path d="M1133.2,238.3l-61.9,36.2c-16.3,9.6-42.8,9.6-59.2,0l-61.9-36.2c-16.3-9.6-16.3-25,0-34.6l61.9-36.2c16.3-9.6,42.8-9.6,59.2,0l61.9,36.2C1149.6,213.3,1149.6,228.8,1133.2,238.3Z" transform="translate(-82 -23.18)" style="fill:#efeff5"/><path d="M1126.3,237l-57.2,33.4c-15.1,8.8-39.6,8.8-54.7,0L957.3,237c-15.1-8.8-15.1-23.1,0-32l57.2-33.4c15.1-8.8,39.6-8.8,54.7,0l57.2,33.4C1141.4,213.9,1141.4,228.2,1126.3,237Z" transform="translate(-82 -23.18)" style="fill:#ededf4"/><path d="M1119.4,235.7l-52.5,30.7c-13.8,8.1-36.3,8.1-50.2,0l-52.5-30.7c-13.8-8.1-13.8-21.2,0-29.3l52.5-30.7c13.8-8.1,36.3-8.1,50.2,0l52.5,30.7C1133.2,214.5,1133.2,227.6,1119.4,235.7Z" transform="translate(-82 -23.18)" style="fill:#eaeaf2"/><path d="M1112.4,234.4l-47.8,28c-12.6,7.4-33,7.4-45.7,0l-47.8-28c-12.6-7.4-12.6-19.3,0-26.7l47.8-28c12.6-7.4,33-7.4,45.7,0l47.8,28C1125,215.1,1125,227,1112.4,234.4Z" transform="translate(-82 -23.18)" style="fill:#e7e7f0"/><path d="M1105.5,233.1l-43.1,25.2c-11.4,6.6-29.8,6.6-41.2,0l-43.1-25.2c-11.4-6.6-11.4-17.4,0-24.1l43.1-25.2c11.4-6.6,29.8-6.6,41.2,0l43.1,25.2C1116.9,215.6,1116.9,226.4,1105.5,233.1Z" transform="translate(-82 -23.18)" style="fill:#e5e5ef"/><path d="M1098.6,231.8l-38.4,22.5c-10.1,5.9-26.5,5.9-36.7,0L985,231.8c-10.1-5.9-10.1-15.5,0-21.4l38.4-22.5c10.1-5.9,26.5-5.9,36.7,0l38.4,22.5C1108.7,216.2,1108.7,225.8,1098.6,231.8Z" transform="translate(-82 -23.18)" style="fill:#e2e2ed"/><path d="M1091.6,230.4l-33.8,19.7c-8.9,5.2-23.3,5.2-32.2,0L992,230.4c-8.9-5.2-8.9-13.6,0-18.8l33.8-19.7c8.9-5.2,23.3-5.2,32.2,0l33.8,19.7C1100.5,216.8,1100.5,225.2,1091.6,230.4Z" transform="translate(-82 -23.18)" style="fill:#e0e0ec"/><path d="M1084.7,229.1l-29.1,17c-7.6,4.5-20,4.5-27.7,0l-29.1-17c-7.6-4.5-7.6-11.7,0-16.2l29.1-17c7.6-4.5,20-4.5,27.7,0l29.1,17C1092.3,217.4,1092.3,224.7,1084.7,229.1Z" transform="translate(-82 -23.18)" style="fill:#ddddea"/><path d="M1188.8,101.2H923.5v87.7h0c-.3,4.2,2.2,8.5,7.7,11.6L1034.8,261c11.6,6.8,30.7,6.8,42.3,0l104.2-60.9c5.3-3.1,7.7-7.2,7.4-11.2h0l.1-87.7Z" transform="translate(-82 -23.18)" style="fill:url(#6f784828-9ef1-4010-9d80-fa5eaa87c20e)"/><path d="M991.3,180.6l-15.6-9.4a4.67,4.67,0,0,0-4.7-.2h0l-27.3,15.7,22.6,21.9,26.5-15.3C995.9,191.2,996.2,183.8,991.3,180.6Z" transform="translate(-82 -23.18)" style="fill:url(#2fa3de10-7d72-41f6-8f5f-c959994195c9)"/><path d="M1119.9,180l15.6-9.4a4.67,4.67,0,0,1,4.7-.2h0l27.3,15.7L1144.9,208l-26.5-15.3C1115.3,190.6,1115,183.2,1119.9,180Z" transform="translate(-82 -23.18)" style="fill:url(#fcec7fb2-a081-49e1-b10a-f59ee0bb9918)"/><path d="M941.7,190.2h0c-.1,2.8,2.1,7.1,5.1,8.9l15.2,9.2c3,1.8,5.2.5,5.3-2.2h0c.1-2.8-.4-7.1-4-9.4L947.2,187C944.2,185.2,941.8,187.4,941.7,190.2Z" transform="translate(-82 -23.18)" style="fill:#9f9fcf"/><path d="M1169.5,189.6h0c.1,2.8-2.1,7.1-5.1,8.9l-15.2,9.2c-3,1.8-5.2.5-5.3-2.2h0c-.1-2.8.4-7.1,4-9.4l16.1-9.7C1167,184.6,1169.4,186.8,1169.5,189.6Z" transform="translate(-82 -23.18)" style="fill:#d0d0e8"/><path d="M1683.9,1197.7,1609.4,1071l65.7-38.6h0a23.07,23.07,0,0,1,22.5.1l43.5,24.4c10.5,5.9,19.1,20.5,19.1,32.5l.1,52.6c0,7.2-2.6,12.3-6.7,14.6h0Z" transform="translate(-82 -23.18)" style="fill:url(#5b6db632-1e59-4d56-ac9e-88f9954879ea)"/><path d="M1691.5,1182.6l-.1-48.6c0-14.2-10.2-31.5-22.6-38.4l-42.4-23.8c-12.4-7-22.5-1-22.5,13.2l.1,50.2c0,13.3,9.6,29.6,21.2,36.1l43.8,24.5C1681.4,1202.8,1691.5,1196.8,1691.5,1182.6Z" transform="translate(-82 -23.18)" style="fill:#649b00"/><ellipse cx="1643.63" cy="1134.28" rx="8.2" ry="13.9" transform="translate(-415.81 832.07) rotate(-26.58)" style="fill:#3a6500"/><path d="M1738,1112.3c0-7.2-4.7-10.4-10.5-7.3s-10.5,11.5-10.5,18.6c0,5,2.3,8.1,5.7,8.4v14.5c0,3.9,2.2,5.8,4.9,4.3s4.9-5.8,4.9-9.7v-14.5A23.39,23.39,0,0,0,1738,1112.3Z" transform="translate(-82 -23.18)" style="fill:#396400"/><path d="M1669,1054.1h0c2.7-1.6,8.1-1.6,11.4.4l21,12.6c3.3,2,3.2,4.8.6,6.4h0c-2.7,1.6-8.9,2.3-12.3.3l-21-12.6C1665.4,1059.2,1666.4,1055.7,1669,1054.1Z" transform="translate(-82 -23.18)" style="fill:#4d7e00"/><path d="M1687.3,1069.2h0a4.44,4.44,0,0,1-4.4-4.4V609.6h8.1v455.9A3.69,3.69,0,0,1,1687.3,1069.2Z" transform="translate(-82 -23.18)" style="fill:url(#5988b4fe-a24b-4593-b141-00c9bc40e79f)"/><path d="M1675,592.4v13.9c0,3.3,5.3,5.9,11.8,5.9s11.8-2.6,11.8-5.9V592.4Z" transform="translate(-82 -23.18)" style="fill:#d18100"/><path d="M502.5,1073.9h-147v81h0c-.1,4.8,3,9.6,9.2,13.2l45.4,26.5c10.4,6.1,27.4,6.1,37.7,0l45.4-26.5c6.2-3.6,9.3-8.4,9.2-13.2h0l.1-81Z" transform="translate(-82 -23.18)" style="fill:url(#45cdeae4-a943-44c1-95da-adad870b7fcf)"/><path d="M493.3,1088.1l-43.7,25.5c-11.3,6.6-29.9,6.6-41.2,0l-43.7-25.5c-12.3-7.2-12.3-18.9,0-26.1l42.6-24.9c11.9-7,31.4-7,43.3,0l42.6,24.9C505.5,1069.1,505.5,1080.9,493.3,1088.1Z" transform="translate(-82 -23.18)" style="fill:url(#95c6c37a-e824-4055-b897-e971be4946ae)"/><path d="M1181.3,111.7l-104.2,60.9c-11.6,6.8-30.7,6.8-42.3,0L931.2,112.1c-10.3-6-10.3-15.8,0-21.9l107.7-62.9c9.3-5.5,24.6-5.5,34,0l108.4,63.3C1191.2,96.5,1191.2,106,1181.3,111.7Z" transform="translate(-82 -23.18)" style="fill:url(#be0ceebf-252b-43fd-8c96-76c767e36021)"/><ellipse cx="480.11" cy="1142.07" rx="10.5" ry="6.2" transform="translate(-809.66 1394.8) rotate(-80.07)" style="fill:#270f7f"/><path d="M454.7,1080.2l-17.3,10.1c-4.7,2.7-12.3,2.7-17,0l-17.3-10.1c-4.9-2.9-4.9-7.6,0-10.5l17.6-10.3c4.5-2.6,11.8-2.6,16.3,0l17.6,10.3C459.7,1072.6,459.7,1077.4,454.7,1080.2Z" transform="translate(-82 -23.18)" style="fill:url(#134d7d7c-faaa-498c-a165-f74521bf00b9)"/><path d="M425.6,1088.9h0a4.27,4.27,0,0,1-4.3-4.3V610.5h7.8v474.9A3.54,3.54,0,0,1,425.6,1088.9Z" transform="translate(-82 -23.18)" style="fill:url(#8ab3fcbe-6438-4984-8cbf-9761870a2fe9)"/><path d="M984.3,1518.8l-4-7,663.2-382.9a4.25,4.25,0,0,1,5.8,1.5h0a3.92,3.92,0,0,1-1.4,5.3Z" transform="translate(-82 -23.18)" style="fill:url(#142bf7cb-ff18-4afa-8a6d-3b469b72b460)"/><path d="M1104.7,1507l4-7L482.4,1138.4a4.25,4.25,0,0,0-5.8,1.5h0a3.92,3.92,0,0,0,1.4,5.3Z" transform="translate(-82 -23.18)" style="fill:url(#3d59e386-1b78-4322-be4e-fbf5e710feff)"/><path d="M1673,500.3l4-7L1160.5,195.1a4.25,4.25,0,0,0-5.8,1.5h0a3.92,3.92,0,0,0,1.4,5.3Z" transform="translate(-82 -23.18)" style="fill:url(#a27e16ed-a77a-455d-a839-bd0ab6c4f0af)"/><path d="M468.6,482.5l-4-7,486-280.6a4.25,4.25,0,0,1,5.8,1.5h0a3.92,3.92,0,0,1-1.4,5.3Z" transform="translate(-82 -23.18)" style="fill:url(#f2534b2f-2fad-4916-b4c5-45ca9ef33513)"/><path d="M1101.3,76.9l4-2.2.4-3.2-5.9-3.1.1-2.7-22.2-13-.4.8-4.8-2.5a24.22,24.22,0,0,0-3.9-.2,7.67,7.67,0,0,1-1.6,3.1l-4.7-2a44.34,44.34,0,0,0-4.3,1.5,7.16,7.16,0,0,1-3.2,5.2c-1.7.9-3.2,0-3.3-2.1-.1.1-.3.1-.4.2a40.81,40.81,0,0,0-4.4,2.8v.1a7.28,7.28,0,0,1-3.3,5.8,2,2,0,0,1-3.1-1.1,56.25,56.25,0,0,0-4.4,4.1,3.34,3.34,0,0,1,.3,1.5,7.28,7.28,0,0,1-3.3,5.8c-1.3.7-2.5.4-3-.7-1.1,1.3-2.1,2.7-3.1,4.1a3,3,0,0,1,.6,2,7.28,7.28,0,0,1-3.3,5.8,2,2,0,0,1-2.2.1c-.9,1.7-1.8,3.5-2.6,5.3a2.29,2.29,0,0,1,1.7,2.5,6.18,6.18,0,0,1-3.1,5.4,2.7,2.7,0,0,1-1.5.3c-.4,1.7-.8,3.3-1.1,5,1.3-.2,2.2.7,2.3,2.3a5.67,5.67,0,0,1-2.8,5h-.1v2.3l22.2,13,9-8.4,4.6-19.4,11.3-14.4,7.7-3.1,9-3.7,12.3-2.9,8.4,9.4,6.1-.5,3-4Z" transform="translate(-82 -23.18)" style="fill:#9c9cda"/><polygon points="968.4 97.22 1013.2 70.72 993.3 59.02 980.1 62.92 964.8 79.83 968.4 97.22" style="fill:#8685ca"/><polygon points="1008.7 48.63 993.6 53.23 993.3 59.02 1013.2 70.72 1017.2 58.02 1008.7 48.63" style="fill:#9392d5"/><polygon points="932.9 89.72 932.9 92.03 955.1 105.03 955.1 102.83 932.9 89.72" style="fill:#c3c4ed"/><polygon points="933.6 82.42 955.8 95.42 956.8 90.42 934.6 77.33 933.6 82.42" style="fill:#c3c4ed"/><polygon points="937.4 69.13 959.6 82.13 962.2 76.83 940 63.83 937.4 69.13" style="fill:#c3c4ed"/><polygon points="944.9 55.92 967.1 68.92 970.2 64.83 948 51.83 944.9 55.92" style="fill:#c3c4ed"/><polygon points="954 45.23 976.2 58.33 980.6 54.23 958.4 41.23 954 45.23" style="fill:#c3c4ed"/><polygon points="964.8 36.33 987 49.33 991.8 46.42 969.6 33.33 964.8 36.33" style="fill:#c3c4ed"/><polygon points="976.1 30.23 998.3 43.23 1002.6 41.83 980.4 28.73 976.1 30.23" style="fill:#c3c4ed"/><polygon points="990.6 27.93 986.7 27.73 1008.9 40.73 1012.8 40.92 990.6 27.93" style="fill:#c3c4ed"/><path d="M1018.2,1452.3h0a8.77,8.77,0,0,1-11.8,3.2l-40.9-23.6a8.77,8.77,0,0,1-3.2-11.8h0a8.77,8.77,0,0,1,11.8-3.2l40.9,23.6A8.59,8.59,0,0,1,1018.2,1452.3Z" transform="translate(-82 -23.18)" style="fill:url(#1b89a0be-39c0-43dc-84be-299c41f7769d)"/><path d="M1048,1477.1h0a13.4,13.4,0,0,1,4.9-18.3l63.6-36.7a13.4,13.4,0,0,1,18.3,4.9h0a13.4,13.4,0,0,1-4.9,18.3l-63.6,36.7A13.4,13.4,0,0,1,1048,1477.1Z" transform="translate(-82 -23.18)" style="fill:url(#eab134cc-327e-4346-a2ed-82101d618f28)"/><path d="M1054.6,1562.6l-74.5-126.7,65.7-38.6h0a23.07,23.07,0,0,1,22.5.1l43.5,24.4c10.5,5.9,19.1,20.5,19.1,32.5l.1,52.6c0,7.2-2.6,12.3-6.7,14.6h0Z" transform="translate(-82 -23.18)" style="fill:url(#bb0fe75e-6c6e-4947-b27f-b699ae0b40e3)"/><path d="M1062.2,1547.4l-.1-48.6c0-14.2-10.2-31.5-22.6-38.4l-42.4-23.8c-12.4-7-22.5-1-22.5,13.2l.1,50.2c0,13.3,9.6,29.6,21.2,36.1l43.8,24.5C1052.1,1567.6,1062.3,1561.6,1062.2,1547.4Z" transform="translate(-82 -23.18)" style="fill:url(#a5af48e9-752c-4406-9cea-36b143fe5731)"/><path d="M1025.4,1513.5l-19-32.9-122.8,70.7c-.1.1-.3.2-.4.3l20.2,32.2,122-70.3Z" transform="translate(-82 -23.18)" style="fill:url(#a2acfe94-eb3e-4602-a9ed-6160628c450a)"/><ellipse cx="1016.46" cy="1496.77" rx="11.2" ry="19" transform="translate(-644.26 589.77) rotate(-26.58)" style="fill:#fff"/><path d="M469.6,1146.7c-.5-9.2,3.8-18.8,9.7-21.4a8.8,8.8,0,0,1,1.5-.5l-3.1-1.1a5.64,5.64,0,0,0-1.2-.4,6.38,6.38,0,0,0-4,.5c-5.5,2.4-9.6,11.5-9.2,20.2.3,5.9,2.6,10.1,5.8,11.5h.1a1.85,1.85,0,0,0,.7.2l3.4,1.2C471.2,1154.8,469.9,1151.2,469.6,1146.7Z" transform="translate(-82 -23.18)" style="fill:#422aab"/><path d="M1644.9,479.5h0a8.77,8.77,0,0,1-11.8,3.2l-40.9-23.6a8.77,8.77,0,0,1-3.2-11.8h0a8.77,8.77,0,0,1,11.8-3.2l40.9,23.6A8.77,8.77,0,0,1,1644.9,479.5Z" transform="translate(-82 -23.18)" style="fill:url(#c03cca9e-b0aa-4aaa-a42a-7f29f5280818)"/><path d="M1759,469.9H1612v81h0c-.1,4.8,3,9.6,9.2,13.2l45.4,26.5c10.4,6.1,27.4,6.1,37.7,0l45.4-26.5c6.2-3.6,9.3-8.4,9.2-13.2h0v-81Z" transform="translate(-82 -23.18)" style="fill:url(#537e2c7c-3bbe-4238-8ea2-f7e5063aca80)"/><path d="M1749.7,484.1l-45.4,26.5c-10.4,6.1-27.4,6.1-37.7,0l-45.4-26.5c-12.3-7.2-12.3-18.9,0-26.1l46.3-27c9.9-5.8,26.1-5.8,36,0l46.3,27C1762,465.1,1762,476.9,1749.7,484.1Z" transform="translate(-82 -23.18)" style="fill:#ffca00"/><path d="M1686,374.3c-10.5,0-19,24.5-19,54.8a137.43,137.43,0,0,0,3.2,30.3h.2c0,3.9,7,7.1,15.7,7.1s15.7-3.2,15.7-7.1h.2a137.43,137.43,0,0,0,3.2-30.3C1705,398.8,1696.5,374.3,1686,374.3Z" transform="translate(-82 -23.18)" style="fill:url(#b0b0e04b-ced1-45cb-9deb-b4fc89524384)"/><circle cx="1604" cy="384.22" r="6.4" style="fill:#7373c3"/><path d="M1699.2,424.2l-2,1.2,16.1,48.6s2-.8,2-1.2C1717.2,445.6,1712.3,429.3,1699.2,424.2Z" transform="translate(-82 -23.18)" style="fill:#fff"/><path d="M1697.1,425.3v39.1s16.1,9.8,16.1,9.5C1715.2,446.7,1710.3,430.4,1697.1,425.3Z" transform="translate(-82 -23.18)" style="fill:#a7a8df"/><path d="M1673.4,424.2l2,1.2-16,48.6s-2-.8-2-1.2C1655.5,445.6,1660.4,429.3,1673.4,424.2Z" transform="translate(-82 -23.18)" style="fill:#9c9acd"/><path d="M1675.4,425.3v39.1s-16,9.8-16,9.5C1657.5,446.7,1662.4,430.4,1675.4,425.3Z" transform="translate(-82 -23.18)" style="fill:#e5e6f9"/><path d="M491.2,512.5H367.5v68.1h0c-.1,4,2.5,8.1,7.7,11.1L413.4,614c8.7,5.1,23,5.1,31.8,0l38.2-22.3c5.2-3.1,7.8-7.1,7.7-11.1h0l.1-68.1Z" transform="translate(-82 -23.18)" style="fill:url(#4fe32171-4dcb-4a98-ab85-4d4a3a3f6a92)"/><path d="M502.8,484.7h-147v71c-.1,4.8,3,9.6,9.2,13.2l45.4,26.5c10.4,6.1,27.4,6.1,37.7,0l45.4-26.5c6.2-3.6,9.3-8.4,9.2-13.2v-10l.1-61Z" transform="translate(-82 -23.18)" style="fill:url(#f0cd751e-0119-480a-baa3-0692b0261ce4)"/><path d="M493.6,498.9l-45.4,26.5c-10.4,6.1-27.4,6.1-37.7,0l-45.4-26.5c-12.3-7.2-12.3-18.9,0-26.1l46.3-27c9.9-5.8,26.1-5.8,36,0l46.3,27C505.9,479.9,505.9,491.7,493.6,498.9Z" transform="translate(-82 -23.18)" style="fill:url(#784f811a-80ad-4b66-83ae-c2bdf5e68222)"/><circle cx="328.4" cy="374.32" r="9.7" style="fill:url(#bf85a4e4-8c57-4185-b191-643f98ae4b20)"/><path d="M422.9,413.4l-7.3-3.9a4.07,4.07,0,0,0-3.6,0l-12.1,6.2c-6.8,3.5-5.6,12.1-5.6,12.1s.8,10.8,1.2,17.2,3.8,6.9,3.8,6.9.1,14.6,0,21.4c0,2.4.6,3.6,1.5,4.2h0l.1.1c.1,0,.1.1.2.1l7.5,4.1,1.5-7.9a10.13,10.13,0,0,0,2.3-7.7v-4.4l2-10.6Z" transform="translate(-82 -23.18)" style="fill:#b5b5da"/><path d="M407.4,419.8l12.1-6.2s6.1-3.1,5.6,6.8-1.4,18.9-1.4,18.9-.1,5.9-3.8,9.2c-.1,5.8,0,21.7,0,21.7s.9,6.4-4.8,9.7c-1.2.7-2.9,1.6-2.9,1.6s-5.6,2.7-5.5-4.1,0-21.4,0-21.4-3.4-.5-3.8-6.9-1.2-17.2-1.2-17.2S400.6,423.3,407.4,419.8Z" transform="translate(-82 -23.18)" style="fill:#ececfa"/><circle cx="363.1" cy="397.12" r="9.7" style="fill:url(#07ecbb62-b150-4786-a533-e57b00102024)"/><path d="M457.5,436.2l-7.3-3.9a4.07,4.07,0,0,0-3.6,0l-12.1,6.2c-6.8,3.5-5.6,12.1-5.6,12.1s.8,10.8,1.2,17.2,3.8,6.9,3.8,6.9.1,14.6,0,21.4c0,2.4.6,3.6,1.5,4.2h0l.1.1c.1,0,.1.1.2.1l7.5,4.1,1.5-7.9A10.13,10.13,0,0,0,447,489v-4.4l2-10.6Z" transform="translate(-82 -23.18)" style="fill:#b5b5da"/><path d="M442,442.6l12.1-6.2s6.1-3.1,5.6,6.8-1.4,18.9-1.4,18.9-.1,5.9-3.8,9.2c-.1,5.8,0,21.7,0,21.7s.9,6.4-4.8,9.7c-1.2.7-2.9,1.6-2.9,1.6s-5.6,2.7-5.5-4.1,0-21.4,0-21.4-3.4-.5-3.8-6.9-1.2-17.2-1.2-17.2S435.2,446.1,442,442.6Z" transform="translate(-82 -23.18)" style="fill:#ececfa"/><path d="M1107.2,82.3c-1.5.8-2.8,0-2.8-1.9a7.09,7.09,0,0,1,2.8-5h.1a18.87,18.87,0,0,0-1.6-3.8,5.26,5.26,0,0,1-2.1,2.3c-1.6.9-2.9,0-2.9-2a6.93,6.93,0,0,1,1.8-4.3,13.79,13.79,0,0,0-2.5-1.7,6.83,6.83,0,0,1-2.8,3.6c-1.8,1-3.2,0-3.2-2.2a7.14,7.14,0,0,1,.8-3.1,24.22,24.22,0,0,0-3.9-.2,7.6,7.6,0,0,1-3.1,4.4c-1.8,1-3.3,0-3.3-2.3a3.4,3.4,0,0,1,.1-1,44.34,44.34,0,0,0-4.3,1.5,7.16,7.16,0,0,1-3.2,5.2c-1.7.9-3.2,0-3.3-2.1-.1.1-.3.1-.4.2a40.81,40.81,0,0,0-4.4,2.8v.1a7.28,7.28,0,0,1-3.3,5.8,2,2,0,0,1-3.1-1.1,56.25,56.25,0,0,0-4.4,4.1,3.34,3.34,0,0,1,.3,1.5,7.28,7.28,0,0,1-3.3,5.8c-1.3.7-2.5.4-3-.7-1.1,1.3-2.1,2.7-3.1,4.1a3,3,0,0,1,.6,2,7.28,7.28,0,0,1-3.3,5.8,2,2,0,0,1-2.2.1c-.9,1.7-1.8,3.5-2.6,5.3a2.29,2.29,0,0,1,1.7,2.5,6.18,6.18,0,0,1-3.1,5.4,2.7,2.7,0,0,1-1.5.3c-.4,1.7-.8,3.3-1.1,5,1.3-.2,2.2.7,2.3,2.3a5.67,5.67,0,0,1-2.8,5h-.1v2.3l13.3-7.9v-.3c0-14.3,10.6-31,23.6-37.3,11.8-5.7,20.9-2.2,21.2,11.1l13.6-8c0-1.6-.1-3.2-.2-4.6A4.12,4.12,0,0,1,1107.2,82.3Z" transform="translate(-82 -23.18)" style="fill:#6d6dc0"/><path d="M807.2,712.7a29.91,29.91,0,0,1,12.6,42.6,29.74,29.74,0,0,1-12.6,10.5c-5.5,2.5-11.9,3.7-19.3,3.7H773.6v21.4H750.5V709h37.4A47.45,47.45,0,0,1,807.2,712.7Zm-9.9,35.4c2.4-2.1,3.6-5,3.6-8.8s-1.2-6.8-3.6-8.9-6-3.2-10.7-3.2H773.7v24h12.9C791.3,751.2,794.9,750.2,797.3,748.1Z" transform="translate(-82 -23.18)" style="fill:#6966b5"/><path d="M871.2,769.1H858.6v21.7H835.5V709h37.4c7.4,0,13.8,1.2,19.3,3.7a27.58,27.58,0,0,1,17,26.6,29.15,29.15,0,0,1-4.1,15.5,28,28,0,0,1-11.9,10.3l17.6,25.7H886Zm11-38.7c-2.4-2.1-6-3.2-10.7-3.2H858.6v24h12.9c4.8,0,8.3-1,10.7-3.1s3.6-5,3.6-8.8S884.6,732.5,882.2,730.4Z" transform="translate(-82 -23.18)" style="fill:#6966b5"/><path d="M939.9,787a40.94,40.94,0,0,1-16.2-15.2,43.22,43.22,0,0,1,0-43.6A40.94,40.94,0,0,1,939.9,713a52.1,52.1,0,0,1,46.6,0,40.94,40.94,0,0,1,16.2,15.2,43.22,43.22,0,0,1,0,43.6A40.94,40.94,0,0,1,986.5,787a48.58,48.58,0,0,1-23.3,5.5A49.47,49.47,0,0,1,939.9,787Zm34.5-16.6a20.8,20.8,0,0,0,7.9-8.2,27.11,27.11,0,0,0,0-24.4,20.8,20.8,0,0,0-7.9-8.2,22.52,22.52,0,0,0-11.2-2.9,22.25,22.25,0,0,0-11.2,2.9,20.14,20.14,0,0,0-7.9,8.2,27.11,27.11,0,0,0,0,24.4,20.8,20.8,0,0,0,7.9,8.2,23.08,23.08,0,0,0,22.4,0Z" transform="translate(-82 -23.18)" style="fill:#6966b5"/><path d="M1020.8,709h38.7a54.44,54.44,0,0,1,23.8,5,38,38,0,0,1,16.1,14.3,40.5,40.5,0,0,1,5.7,21.6q0,12.45-5.7,21.6a38,38,0,0,1-16.1,14.3c-6.9,3.4-14.9,5-23.8,5h-38.7Zm37.7,63.4c7,0,12.6-2,16.9-6s6.4-9.5,6.4-16.5-2.1-12.5-6.4-16.5-9.9-6-16.9-6h-14.6v44.9l14.6.1Z" transform="translate(-82 -23.18)" style="fill:#6966b5"/><path d="M1126.7,782.5c-6.7-6.6-10.1-16-10.1-28.2V709h23.1v44.6c0,13.1,5.2,19.6,15.5,19.6s15.4-6.5,15.4-19.6V709h22.8v45.3c0,12.2-3.4,21.5-10.1,28.2s-16.2,9.9-28.3,9.9S1133.4,789.1,1126.7,782.5Z" transform="translate(-82 -23.18)" style="fill:#6966b5"/><path d="M1226.8,787a41.09,41.09,0,0,1-16.1-15.1,44.62,44.62,0,0,1,0-44,39.75,39.75,0,0,1,16.1-15.1,52.52,52.52,0,0,1,43.3-1.4,38.73,38.73,0,0,1,15,11.5l-14.7,13.3c-5.3-6.4-11.7-9.6-19.3-9.6a24.66,24.66,0,0,0-11.9,2.9,20,20,0,0,0-8.1,8.2,27.11,27.11,0,0,0,0,24.4,20,20,0,0,0,8.1,8.2,24.38,24.38,0,0,0,11.9,2.9c7.6,0,14-3.2,19.3-9.6l14.7,13.3a39.71,39.71,0,0,1-15,11.5,50.21,50.21,0,0,1-20.2,4A47.73,47.73,0,0,1,1226.8,787Z" transform="translate(-82 -23.18)" style="fill:#6966b5"/><path d="M1312.1,727.4H1287V709h73.3v18.3h-25v63.4h-23.1V727.4Z" transform="translate(-82 -23.18)" style="fill:#6966b5"/><path d="M924.9,806l-35.1,81.8H867L832.1,806h25l22.2,53.3L902,806Z" transform="translate(-82 -23.18)" style="fill:#6966b5"/><path d="M929.7,806h23.1v81.8H929.7Z" transform="translate(-82 -23.18)" style="fill:#6966b5"/><path d="M978.7,887a47.64,47.64,0,0,1-15.2-6.5l7.6-17.1a51.71,51.71,0,0,0,27,8c8.9,0,13.3-2.2,13.3-6.7,0-2.3-1.3-4.1-3.8-5.2a76.3,76.3,0,0,0-12.2-3.6,99.15,99.15,0,0,1-15.4-4.3,25.93,25.93,0,0,1-10.6-7.3c-3-3.3-4.4-7.9-4.4-13.6a23.62,23.62,0,0,1,4.1-13.5,27.06,27.06,0,0,1,12.2-9.5c5.4-2.3,12.1-3.5,19.9-3.5a70.48,70.48,0,0,1,15.9,1.8,50.2,50.2,0,0,1,13.8,5.3l-7.1,17.2c-7.8-4.2-15.3-6.3-22.7-6.3-4.6,0-7.9.7-10,2s-3.2,3.1-3.2,5.3,1.2,3.8,3.7,4.9a69.8,69.8,0,0,0,12,3.4,100.74,100.74,0,0,1,15.5,4.3,26.37,26.37,0,0,1,10.6,7.2q4.5,5,4.5,13.5a23.23,23.23,0,0,1-4.1,13.3c-2.7,4-6.8,7.1-12.3,9.5s-12.1,3.6-19.9,3.6A65.52,65.52,0,0,1,978.7,887Z" transform="translate(-82 -23.18)" style="fill:#6966b5"/><path d="M1044.9,806H1068v81.8h-23.1Z" transform="translate(-82 -23.18)" style="fill:#6966b5"/><path d="M1102.4,884a40.94,40.94,0,0,1-16.2-15.2,43.22,43.22,0,0,1,0-43.6,40.94,40.94,0,0,1,16.2-15.2,52.1,52.1,0,0,1,46.6,0,40.94,40.94,0,0,1,16.2,15.2,43.22,43.22,0,0,1,0,43.6A40.94,40.94,0,0,1,1149,884a48.58,48.58,0,0,1-23.3,5.5A49.76,49.76,0,0,1,1102.4,884Zm34.5-16.6a20.8,20.8,0,0,0,7.9-8.2,27.11,27.11,0,0,0,0-24.4,20.8,20.8,0,0,0-7.9-8.2,22.52,22.52,0,0,0-11.2-2.9,22.25,22.25,0,0,0-11.2,2.9,20.14,20.14,0,0,0-7.9,8.2,27.11,27.11,0,0,0,0,24.4,20.8,20.8,0,0,0,7.9,8.2,23.08,23.08,0,0,0,22.4,0Z" transform="translate(-82 -23.18)" style="fill:#6966b5"/><path d="M1261.1,806v81.8h-19L1206,844.2v43.6h-22.7V806h19l36.1,43.6V806Z" transform="translate(-82 -23.18)" style="fill:#6966b5"/><path d="M1862.9,499.1v3.4c0,14.6-9.3,29.2-28.6,29.2-17.1,0-30.1-11.5-30.1-29.5,0-17.5,12.2-29.8,30.1-29.8a33.58,33.58,0,0,1,21.9,7.6l-5.8,7.1a24.56,24.56,0,0,0-16.5-6.1c-12.4,0-20.5,9.1-20.5,21.1,0,12.2,8.4,21,21,21,12.4,0,18.6-8.5,19.3-16.1h-17.9v-8l27.1.1Z" transform="translate(-82 -23.18)" style="fill:#181d1d"/><path d="M1908.5,511.7c0,11.5-8.8,20-20.6,20s-20.6-8.4-20.6-20,8.8-20,20.6-20S1908.5,500.2,1908.5,511.7Zm-32.7,0c0,7.4,5,12.2,12.1,12.2s12.1-4.8,12.1-12.2-5-12.2-12.1-12.2S1875.8,504.3,1875.8,511.7Z" transform="translate(-82 -23.18)" style="fill:#181d1d"/><path d="M1913.4,511.7c0-12.5,8.4-20,18.3-20,6.2,0,10.3,2.7,12.7,6.7h.2V493h8v37.5h-8V525h-.2c-2.4,4.1-6.5,6.7-12.7,6.7C1921.7,531.7,1913.4,524.2,1913.4,511.7Zm31.5,0c0-7.1-4.5-12.2-11.5-12.2s-11.5,5-11.5,12.2,4.5,12.2,11.5,12.2S1944.9,518.9,1944.9,511.7Z" transform="translate(-82 -23.18)" style="fill:#181d1d"/><path d="M1970.6,530.5h-8V473.6h8Z" transform="translate(-82 -23.18)" style="fill:#181d1d"/><path d="M1977.1,527.7l3.6-7.1a24.09,24.09,0,0,0,11.9,3.6c3.8,0,5.8-1.1,5.8-3.5,0-1.5-.8-2.7-4-4.2l-6.8-3.3c-5.7-2.7-7.9-6.5-7.9-10.8,0-6.9,5.1-10.6,13.3-10.6a32.8,32.8,0,0,1,13,2.9l-3.2,6.9a25.81,25.81,0,0,0-10-2.4c-3.5,0-4.6,1.1-4.6,2.8s1.1,2.9,4.3,4.5l7,3.3c4.9,2.3,7.5,5.5,7.5,10.6,0,7.6-5.8,11.4-14.6,11.4A31.48,31.48,0,0,1,1977.1,527.7Z" transform="translate(-82 -23.18)" style="fill:#181d1d"/><path d="M1845.5,1088.9l-25.7-28.4v28.4h-8.4V1032h8.4v25.3l22.6-25.3h11.7l-24.7,26.1,28.6,30.8Z" transform="translate(-82 -23.18)" style="fill:#181d1d"/><path d="M1898,1070.1v1.3h-29.1c.3,6.7,5,11,11.4,11,6.2,0,9.7-4.1,11.5-6.6l5.6,5.3c-2.8,3.8-7.7,8.9-17,8.9-11.9,0-19.6-8-19.6-19.9,0-11.4,7.1-20.1,19.2-20.1C1891.5,1050.1,1898,1058,1898,1070.1Zm-28.7-4.5h20.1c-.3-5.2-4.1-8.2-9.8-8.2C1874.2,1057.4,1870.3,1060.2,1869.3,1065.6Z" transform="translate(-82 -23.18)" style="fill:#181d1d"/><path d="M1939.4,1051.4l-23.4,53.8h-8.4l9-19.7-15.8-34.1h9.5l10.3,24.6,10-24.6Z" transform="translate(-82 -23.18)" style="fill:#181d1d"/><path d="M1819.9,1112v16h22.6v8h-22.6v24.9h-8.4V1104h32.9v8Z" transform="translate(-82 -23.18)" style="fill:#181d1d"/><path d="M1886.3,1142.1v1.3h-29.1c.3,6.7,5,11,11.4,11,6.2,0,9.7-4.1,11.5-6.6l5.6,5.3c-2.8,3.8-7.7,8.9-17,8.9-11.9,0-19.6-8-19.6-19.9,0-11.4,7.1-20.1,19.2-20.1C1879.8,1122.1,1886.3,1130,1886.3,1142.1Zm-28.7-4.5h20.1c-.3-5.2-4.1-8.2-9.8-8.2C1862.5,1129.4,1858.6,1132.2,1857.6,1137.6Z" transform="translate(-82 -23.18)" style="fill:#181d1d"/><path d="M1891.2,1142.1c0-12.5,8.4-20,18.3-20,6.2,0,10.3,2.7,12.7,6.7h.2v-5.5h8v37.5h-8v-5.5h-.2c-2.4,4.1-6.5,6.7-12.7,6.7C1899.5,1162.1,1891.2,1154.6,1891.2,1142.1Zm31.5,0c0-7.1-4.5-12.2-11.5-12.2s-11.5,5-11.5,12.2,4.5,12.2,11.5,12.2S1922.7,1149.3,1922.7,1142.1Z" transform="translate(-82 -23.18)" style="fill:#181d1d"/><path d="M1951,1130.1v19.7c0,2.7,1.1,3.9,3.9,3.9h2v7.3h-3.7c-6.6,0-10.2-3.5-10.2-9.7v-21.2h-6.7v-6.7h6.7v-15h8v15h7.6v6.7Z" transform="translate(-82 -23.18)" style="fill:#181d1d"/><path d="M1964.7,1146.1v-22.7h8.1v21.9c0,6.2,3.1,9.1,7.9,9.1,5.5,0,9.4-3.6,9.4-13.1v-18h8v37.5h-8v-5.7h-.2a12.16,12.16,0,0,1-11.5,6.9C1971,1162.1,1964.7,1157.6,1964.7,1146.1Z" transform="translate(-82 -23.18)" style="fill:#181d1d"/><path d="M2029,1131.6h-1.2c-7.8,0-11.9,3.7-11.9,12.7V1161h-8v-37.5h8v8.2h.2c1.8-5.6,6.1-9.3,12.4-9.3h.6l-.1,9.2Z" transform="translate(-82 -23.18)" style="fill:#181d1d"/><path d="M2069.3,1142.1v1.3h-29.1c.3,6.7,5,11,11.4,11,6.2,0,9.7-4.1,11.5-6.6l5.6,5.3c-2.8,3.8-7.7,8.9-17,8.9-11.9,0-19.6-8-19.6-19.9,0-11.4,7.1-20.1,19.2-20.1C2062.8,1122.1,2069.3,1130,2069.3,1142.1Zm-28.6-4.5h20.1c-.3-5.2-4.1-8.2-9.8-8.2C2045.5,1129.4,2041.6,1132.2,2040.7,1137.6Z" transform="translate(-82 -23.18)" style="fill:#181d1d"/><path d="M2073,1158.1l3.6-7.1a24.09,24.09,0,0,0,11.9,3.6c3.8,0,5.8-1.1,5.8-3.5,0-1.5-.8-2.7-4-4.2l-6.8-3.3c-5.7-2.7-7.9-6.5-7.9-10.8,0-6.9,5.1-10.6,13.3-10.6a32.8,32.8,0,0,1,13,2.9l-3.2,6.9a25.81,25.81,0,0,0-10-2.4c-3.5,0-4.6,1.1-4.6,2.8s1.1,2.9,4.3,4.5l7,3.3c4.9,2.3,7.5,5.5,7.5,10.6,0,7.6-5.8,11.4-14.6,11.4A32.6,32.6,0,0,1,2073,1158.1Z" transform="translate(-82 -23.18)" style="fill:#181d1d"/><path d="M989.8,1660.4h-7.9l-20.6-56.9H971l14.7,44.8h.2l14.7-44.8h9.7Z" transform="translate(-82 -23.18)" style="fill:#181d1d"/><path d="M1013.3,1641.6c0-12.5,8.4-20,18.3-20,6.2,0,10.3,2.7,12.7,6.7h.2v-5.5h8v37.5h-8v-5.5h-.2c-2.4,4.1-6.5,6.7-12.7,6.7C1021.7,1661.6,1013.3,1654.1,1013.3,1641.6Zm31.5,0c0-7.1-4.5-12.2-11.5-12.2s-11.5,5-11.5,12.2,4.5,12.2,11.5,12.2S1044.8,1648.8,1044.8,1641.6Z" transform="translate(-82 -23.18)" style="fill:#181d1d"/><path d="M1070.5,1660.4h-8v-56.9h8Z" transform="translate(-82 -23.18)" style="fill:#181d1d"/><path d="M1080.2,1645.6v-22.7h8.1v21.9c0,6.2,3.1,9.1,7.9,9.1,5.5,0,9.4-3.6,9.4-13.1v-18h8v37.5h-8v-5.7h-.2a12.16,12.16,0,0,1-11.5,6.9C1086.6,1661.6,1080.2,1657.1,1080.2,1645.6Z" transform="translate(-82 -23.18)" style="fill:#181d1d"/><path d="M1158.1,1641.6v1.3H1129c.3,6.7,5,11,11.4,11,6.2,0,9.7-4.1,11.5-6.6l5.6,5.3c-2.8,3.8-7.7,8.9-17,8.9-11.9,0-19.6-8-19.6-19.9,0-11.4,7.1-20.1,19.2-20.1C1151.6,1621.6,1158.1,1629.5,1158.1,1641.6Zm-28.7-4.5h20.1c-.3-5.2-4.1-8.2-9.8-8.2C1134.3,1628.9,1130.4,1631.7,1129.4,1637.1Z" transform="translate(-82 -23.18)" style="fill:#181d1d"/><path d="M143.2,1132.8h-8.9l-27.9-42.5h-.2v42.5H97.8v-56.9h8.9l27.9,42.5h.2v-42.5h8.4Z" transform="translate(-82 -23.18)" style="fill:#181d1d"/><path d="M188.4,1114v1.3H159.3c.3,6.7,5,11,11.4,11,6.2,0,9.7-4.1,11.5-6.6l5.6,5.3c-2.8,3.8-7.7,8.9-17,8.9-11.9,0-19.6-8-19.6-19.9,0-11.4,7.1-20.1,19.2-20.1C181.9,1094,188.4,1101.9,188.4,1114Zm-28.7-4.4h20.1c-.3-5.2-4.1-8.2-9.8-8.2C164.6,1101.4,160.7,1104.1,159.7,1109.6Z" transform="translate(-82 -23.18)" style="fill:#181d1d"/><path d="M230.4,1114v1.3H201.3c.3,6.7,5,11,11.4,11,6.2,0,9.7-4.1,11.5-6.6l5.6,5.3c-2.8,3.8-7.7,8.9-17,8.9-11.9,0-19.6-8-19.6-19.9,0-11.4,7.1-20.1,19.2-20.1C223.9,1094,230.4,1101.9,230.4,1114Zm-28.7-4.4h20.1c-.3-5.2-4.1-8.2-9.8-8.2C206.6,1101.4,202.7,1104.1,201.7,1109.6Z" transform="translate(-82 -23.18)" style="fill:#181d1d"/><path d="M235.3,1114c0-12.5,8.4-20,18.3-20,6.2,0,10.3,2.7,12.7,6.7h.2v-24.9h8v56.9h-8v-5.5h-.2c-2.4,4.1-6.5,6.7-12.7,6.7C243.7,1134,235.3,1126.5,235.3,1114Zm31.5,0c0-7.1-4.5-12.2-11.5-12.2s-11.5,5-11.5,12.2,4.5,12.2,11.5,12.2S266.8,1121.2,266.8,1114Z" transform="translate(-82 -23.18)" style="fill:#181d1d"/><path d="M280.9,1130l3.6-7.1a24.09,24.09,0,0,0,11.9,3.6c3.8,0,5.8-1.1,5.8-3.5,0-1.5-.8-2.7-4-4.2l-6.8-3.3c-5.7-2.7-7.9-6.5-7.9-10.8,0-6.9,5.1-10.6,13.3-10.6a32.8,32.8,0,0,1,13,2.9l-3.2,6.9a25.81,25.81,0,0,0-10-2.4c-3.5,0-4.6,1.1-4.6,2.8s1.1,2.9,4.3,4.5l7,3.3c4.9,2.3,7.5,5.5,7.5,10.6,0,7.6-5.8,11.4-14.6,11.4A32.6,32.6,0,0,1,280.9,1130Z" transform="translate(-82 -23.18)" style="fill:#181d1d"/><path d="M122.4,453.9h-16v48.9H98V453.9H82v-8h40.5l-.1,8Z" transform="translate(-82 -23.18)" style="fill:#181d1d"/><path d="M125.6,484.1c0-12.5,8.4-20,18.3-20,6.2,0,10.3,2.7,12.7,6.7h.2v-5.5h8v37.5h-8v-5.5h-.2c-2.4,4.1-6.5,6.7-12.7,6.7C134,504,125.6,496.6,125.6,484.1Zm31.5,0c0-7.1-4.5-12.2-11.5-12.2s-11.5,5-11.5,12.2,4.5,12.2,11.5,12.2S157.1,491.2,157.1,484.1Z" transform="translate(-82 -23.18)" style="fill:#181d1d"/><path d="M195.6,473.5h-1.2c-7.8,0-11.9,3.7-11.9,12.7v16.7h-8V465.4h8v8.2h.2c1.8-5.6,6.1-9.3,12.4-9.3h.6v9.2Z" transform="translate(-82 -23.18)" style="fill:#181d1d"/><path d="M205.7,518.6l1.5-7.7a60.26,60.26,0,0,0,12.9,1.7c7.1,0,9.7-2.5,9.7-10.8v-4.5h-.2c-2.4,4.1-6.5,6.7-12.7,6.7-9.9,0-18.3-7.5-18.3-20s8.4-20,18.3-20c6.2,0,10.3,2.7,12.7,6.7h.2v-5.5h8v37.5c-.4,14.7-8,17.5-17.7,17.5A73,73,0,0,1,205.7,518.6Zm24.6-34.5c0-7.1-4.5-12.2-11.5-12.2s-11.5,5-11.5,12.2,4.5,12.2,11.5,12.2S230.3,491.2,230.3,484.1Z" transform="translate(-82 -23.18)" style="fill:#181d1d"/><path d="M282.3,484.1v1.3H253.2c.3,6.7,5,11,11.4,11,6.2,0,9.7-4.1,11.5-6.6l5.6,5.3c-2.8,3.8-7.7,8.9-17,8.9-11.9,0-19.6-8-19.6-19.9,0-11.4,7.1-20.1,19.2-20.1C275.8,464.1,282.3,472,282.3,484.1Zm-28.6-4.5h20.1c-.3-5.2-4.1-8.2-9.8-8.2C258.5,471.4,254.6,474.1,253.7,479.6Z" transform="translate(-82 -23.18)" style="fill:#181d1d"/><path d="M300.6,472v19.7c0,2.7,1.1,3.9,3.9,3.9h1.9v7.3h-3.7c-6.6,0-10.2-3.5-10.2-9.7V472H286v-6.7h6.7v-15h8v15h7.6V472Z" transform="translate(-82 -23.18)" style="fill:#181d1d"/><path d="M142.6,543.4v3.4c0,14.6-9.3,29.2-28.6,29.2-17.1,0-30-11.5-30-29.4,0-17.5,12.2-29.8,30.1-29.8a33.58,33.58,0,0,1,21.9,7.6l-5.8,7.1a24.56,24.56,0,0,0-16.5-6.1c-12.4,0-20.5,9.1-20.5,21.1,0,12.2,8.4,21,21,21,12.4,0,18.6-8.5,19.3-16.1H115.6v-8Z" transform="translate(-82 -23.18)" style="fill:#181d1d"/><path d="M170.6,545.5h-1.2c-7.8,0-11.9,3.7-11.9,12.7v16.7h-8V537.4h8v8.2h.2c1.8-5.6,6.1-9.3,12.4-9.3h.6v9.2Z" transform="translate(-82 -23.18)" style="fill:#181d1d"/><path d="M215,556.1c0,11.5-8.8,20-20.6,20s-20.6-8.4-20.6-20,8.8-20,20.6-20S215,544.5,215,556.1Zm-32.7,0c0,7.4,5,12.2,12.1,12.2s12.1-4.8,12.1-12.2-5-12.2-12.1-12.2S182.3,548.7,182.3,556.1Z" transform="translate(-82 -23.18)" style="fill:#181d1d"/><path d="M221.9,560V537.3H230v21.9c0,6.2,3.1,9.1,7.9,9.1,5.5,0,9.4-3.6,9.4-13.1v-18h8v37.5h-8V569h-.2a12.16,12.16,0,0,1-11.5,6.9C228.2,576,221.9,571.6,221.9,560Z" transform="translate(-82 -23.18)" style="fill:#181d1d"/><path d="M265,537.3h8v5.5h.2c2.4-4.1,6.5-6.7,12.7-6.7,9.9,0,18.3,7.5,18.3,20s-8.4,20-18.3,20c-6.2,0-10.3-2.7-12.7-6.7H273v21.8h-8Zm30.7,18.8c0-7.1-4.5-12.2-11.5-12.2s-11.5,5-11.5,12.2,4.5,12.2,11.5,12.2S295.7,563.2,295.7,556.1Z" transform="translate(-82 -23.18)" style="fill:#181d1d"/></svg>