<svg id="Layer_1" data-name="Layer 1" xmlns="http://www.w3.org/2000/svg" viewBox="0 0 940 640"><defs><style>.cls-1{fill:#27b5da;}.cls-2{fill:#fff;}.cls-3{fill:#a8aaad;}.cls-4{fill:#f2f2f2;}.cls-5{fill:#848688;}.cls-6{fill:#ec1b5e;}.cls-7{fill:#98ca3c;}.cls-8{fill:#c52d58;}.cls-9{fill:#75b343;}.cls-10{fill:#ae509e;}.cls-11{fill:#c177b1;}.cls-12{fill:#ee3477;}.cls-13{fill:#633b97;}.cls-14{fill:#098e81;}.cls-15{fill:#84bd72;}.cls-16{fill:#f5825c;}.cls-17{fill:#424da1;}.cls-18{fill:#c7d75d;}.cls-19{fill:#4662ad;}.cls-20{fill:#fed764;}.cls-21{fill:#4f81c2;}.cls-22{fill:#414142;}.cls-23{fill:#d82f27;}.cls-24{fill:#646567;}.cls-25{fill:#a42122;}.cls-26{fill:#791514;}.cls-27{fill:#b1b091;}.cls-28{fill:#46a046;}.cls-29{fill:#957a5e;}.cls-30{fill:#4f3729;}.cls-31{fill:#59ae46;}.cls-32{fill:#346792;}.cls-33{fill:#df7026;}.cls-34{fill:#03799c;}.cls-35{fill:#06c1e5;}.cls-36{fill:#e7e7e7;}.cls-37{fill:#dc2a43;}.cls-38{fill:#e65f25;}.cls-39{fill:#595a5c;}.cls-40{fill:#86c440;}.cls-41{fill:#fabe19;}.cls-42{fill:#6964a6;}.cls-43{fill:#8c8f95;}.cls-44{fill:#00c0e5;}</style></defs><title>Artboard 2</title><path class="cls-1" d="M506.18,391.78l162,97.28c6.43,3.86,11,7.94,13.58,12.2a15.46,15.46,0,0,1,2.38,8.2,16.64,16.64,0,0,1-2.6,8.52c-3.08,5.12-8.94,10.38-17.85,15.73l-153,91.89c-12.47,7.49-25.13,11.56-37.51,12a63.07,63.07,0,0,1-35.35-9.33L275.8,531c-6.6-4-11-8-13.47-12.11a15.49,15.49,0,0,1-2.39-8.47,17,17,0,0,1,2.64-8.4c3.22-5.36,9.3-10.62,17.71-15.66l153-91.9c10.64-6.39,24.14-9.89,37.33-10.38s26.11,2,35.53,7.69Zm161.17,98.68-162-97.29c-9.14-5.49-21.73-7.93-34.63-7.45s-26.15,3.91-36.55,10.15l-153,91.89c-8.18,4.91-14.08,10-17.15,15.11a15.36,15.36,0,0,0-2.41,7.6,14,14,0,0,0,2.16,7.59c2.32,3.87,6.55,7.73,12.91,11.56l162,97.28A61.68,61.68,0,0,0,473.1,636c12.11-.45,24.5-4.45,36.73-11.78l153-91.9c8.67-5.21,14.35-10.27,17.29-15.17a15.12,15.12,0,0,0,2.37-7.68,14,14,0,0,0-2.15-7.36c-2.42-4-6.82-7.92-13-11.64Z"/><path class="cls-1" d="M116.58,182l1.84,87.86a29.71,29.71,0,0,0,3,13.19,21.31,21.31,0,0,0,8.32,8.66l54.72,32c6.69,3.91,12.7,6.17,18.71,6.38s12-1.61,18.81-5.87l0,0L331.8,260.79h0c4.14-2.39,6.86-5,8.39-7.63h0a10.78,10.78,0,0,0,1.52-5.71,11.78,11.78,0,0,0-1.69-5.6,23.92,23.92,0,0,0-8.95-8.3h0L292.8,211.46h0c-4.78-2.76-8-5.83-9.78-9a13.78,13.78,0,0,1-1.93-7.21,14.51,14.51,0,0,1,2-6.92h0a25,25,0,0,1,9.3-8.76L366,137.08h0c8.49-4.9,15.76-7.35,23.22-7.26s15,2.73,24.11,8l42,24.25-1,1.69-42-24.25c-8.81-5.08-16.08-7.63-23.16-7.72s-14,2.27-22.21,7h0l-73.61,42.5a23.1,23.1,0,0,0-8.58,8h0a12.58,12.58,0,0,0-1.77,6,11.7,11.7,0,0,0,1.67,6.19c1.65,2.87,4.6,5.69,9.07,8.27h0L332,231.85h0a25.88,25.88,0,0,1,9.67,9,13.76,13.76,0,0,1,2,6.53,12.67,12.67,0,0,1-1.79,6.74h0c-1.7,2.94-4.66,5.78-9.09,8.34h0l-109.7,63.34h0c-7.11,4.47-13.52,6.39-19.91,6.16s-12.69-2.57-19.64-6.64l-54.72-32a23.18,23.18,0,0,1-9.06-9.45,31.7,31.7,0,0,1-3.28-14.06L114.62,182l2,0Z"/><path class="cls-2" d="M561.08,445.34v46.8a7.49,7.49,0,0,1,0,1.95v13.28c.49,3.95-2,8.22-7.41,11.45l-66.52,39.95c-9.15,5.49-23.24,6-31.31,1.17l-70.43-42.29c-4-2.4-5.8-5.68-5.49-9.06h0V494.8a8.42,8.42,0,0,1,0-1.42h0v-47.3a9.39,9.39,0,0,1,1.89-6.28,8.25,8.25,0,0,1-1.89-6h0V420a8.42,8.42,0,0,1,0-1.42V371.28a9.39,9.39,0,0,1,1.9-6.29,8.25,8.25,0,0,1-1.9-6h0V345.21a8.42,8.42,0,0,1,0-1.42V296.47c-.36-3.88,2.17-8,7.44-11.2l7.78-4.67V259.52c-.29-3.23,1.81-6.68,6.2-9.31L456.68,217c7.61-4.57,19.33-5,26.05-1l58.59,35.18c3.4,2,4.89,4.86,4.54,7.74v21.66l9.76,5.86c4.09,2.46,5.88,5.84,5.46,9.3v46.81a7.41,7.41,0,0,1,0,1.94v13.29a9.3,9.3,0,0,1-1.86,6.53,8.25,8.25,0,0,1,1.86,6.24v46.81a7.41,7.41,0,0,1,0,1.94v13.28a9.28,9.28,0,0,1-1.86,6.53,8.23,8.23,0,0,1,1.86,6.23Z"/><path class="cls-3" d="M563.42,445.42v46.63a11.26,11.26,0,0,1,0,2.12v13.12a10.69,10.69,0,0,1-1.87,7.07,19.18,19.18,0,0,1-6.41,5.86l-67,39.95a36.48,36.48,0,0,1-17,4.69c-6,.22-11.93-.93-16.27-3.52l-71-42.29a14,14,0,0,1-4.89-4.63,9.7,9.7,0,0,1-1.43-4.19h0V510a11.06,11.06,0,0,1,0-1.41V494.8h0c0-.26,0-.51,0-.7s0-.52,0-.78V446.07h0a9.78,9.78,0,0,1,.4-3.63,12.19,12.19,0,0,1,1.16-2.6,10.75,10.75,0,0,1-1.15-2.43,8.83,8.83,0,0,1-.4-2h0v-.18a11.37,11.37,0,0,1,0-1.43V420h0a6.62,6.62,0,0,1,0-.72c0-.25,0-.51,0-.77V371.28h0a9.64,9.64,0,0,1,.41-3.64h0a11.66,11.66,0,0,1,1.16-2.6,10.19,10.19,0,0,1-1.16-2.43,9.66,9.66,0,0,1-.4-2h0v-.18a11.21,11.21,0,0,1,0-1.42V345.21h0a6.45,6.45,0,0,1,0-.71q0-.39,0-.78V296.47h0a10.82,10.82,0,0,1,2-6.88,19.37,19.37,0,0,1,6.33-5.72l7.77-4.7-.09-19.59h0a10.89,10.89,0,0,1,1.84-6.37,18.25,18.25,0,0,1,5.64-5.05l54.68-32.59A30.77,30.77,0,0,1,470,211.63c5-.19,10,.79,13.68,3l59,35.18a8.24,8.24,0,0,1,3.49,3.43,10.54,10.54,0,0,1,1.23,5.85v20.19L557.1,285a13.87,13.87,0,0,1,5,4.76,9.61,9.61,0,0,1,1.34,6v46.64a9.23,9.23,0,0,1,.05,1.05,9.51,9.51,0,0,1-.05,1.06v13.12a10,10,0,0,1-.34,3.82,12.07,12.07,0,0,1-1.21,2.75,10.38,10.38,0,0,1,1.2,2.58,9.52,9.52,0,0,1,.35,3.79v46.64a9.23,9.23,0,0,1,.05,1.05,9.63,9.63,0,0,1-.05,1.06v13.11a10,10,0,0,1-.34,3.83,11.78,11.78,0,0,1-1.2,2.74,10.45,10.45,0,0,1,1.19,2.57,9.72,9.72,0,0,1,.35,3.79Zm-3.7,46.72v-47a6.4,6.4,0,0,0-.22-2.58,7.06,7.06,0,0,0-1.3-2.44l-.77-1,.71-1a9.11,9.11,0,0,0,1.35-2.75,6.43,6.43,0,0,0,.23-2.64V419.1a6,6,0,0,0,0-1.55V370.36a6.46,6.46,0,0,0-.22-2.59,7.41,7.41,0,0,0-1.31-2.45l-.76-.95.7-1a8.92,8.92,0,0,0,1.36-2.75,6.5,6.5,0,0,0,.23-2.65V344.29a6,6,0,0,0,0-1.55V295.55a6.45,6.45,0,0,0-.88-4.1,10.75,10.75,0,0,0-3.81-3.61L545.25,282l-.8-.48V258.72a5,5,0,0,0-.7-3.24,8.64,8.64,0,0,0-3.07-2.9L481.92,217.4c-3.09-1.85-7.39-2.68-11.83-2.51a27.07,27.07,0,0,0-12.61,3.48L402,251.6a13.26,13.26,0,0,0-4.28,3.85,6.08,6.08,0,0,0-1.15,3.92l0,.15v22l-.81.47-7.8,4.68a16.13,16.13,0,0,0-5.25,4.72,7.59,7.59,0,0,0-1.43,4.93v47.61a5.44,5.44,0,0,0,0,.57c0,.23,0,.42,0,.56v12.3h.15l-.16,1.78a6.17,6.17,0,0,0,.28,2.48,7,7,0,0,0,1.28,2.35l.76,1-.71,1a9.16,9.16,0,0,0-1.33,2.65h0a6.63,6.63,0,0,0-.28,2.55v47.61a5.12,5.12,0,0,0,0,.56c0,.24,0,.43,0,.57v12.3h.15l-.16,1.78a6.36,6.36,0,0,0,.27,2.48,7.55,7.55,0,0,0,1.28,2.35l.76,1-.7,1a9.36,9.36,0,0,0-1.33,2.64,6.61,6.61,0,0,0-.28,2.55v47.45h0v.15a5.3,5.3,0,0,0,0,.57c0,.23,0,.42,0,.56V507h.15l-.16,1.78a6.47,6.47,0,0,0,1,4,10.82,10.82,0,0,0,3.76,3.52l70.64,42.29c3.77,2.25,9,3.26,14.4,3.06a32.92,32.92,0,0,0,15.33-4.23l66.72-40a16.13,16.13,0,0,0,5.32-4.83,7.52,7.52,0,0,0,1.33-5V493.89a6.66,6.66,0,0,0,0-.78,6.49,6.49,0,0,0,0-.77v-.2Z"/><path class="cls-2" d="M485.19,442.19l5.17,3.1h70.72v46.85a7.49,7.49,0,0,1,0,1.95v13.28c.49,3.95-2,8.22-7.41,11.45l-66.52,39.95c-9.15,5.49-23.24,6-31.31,1.17l-70.43-42.29c-4-2.4-5.8-5.68-5.49-9.06h0V494.8a8.42,8.42,0,0,1,0-1.42h0V445.29h70.76l3.2-1.93c9.15-5.49,23.24-6,31.31-1.17Z"/><path class="cls-3" d="M485.42,441.91l5.1,3h71.23v47.17a7.93,7.93,0,0,1,.06,1,8.22,8.22,0,0,1-.06,1v13.25a9.4,9.4,0,0,1-1.64,6.3,18,18,0,0,1-6,5.45l-66.77,39.95a35,35,0,0,1-16.27,4.51c-5.76.21-11.38-.88-15.49-3.34l-70.69-42.29a12.74,12.74,0,0,1-4.43-4.19,8.37,8.37,0,0,1-1.24-5.13V494.8h0c0-.24,0-.48,0-.7s0-.48,0-.73h0V445h71.26l3.14-1.88a34.92,34.92,0,0,1,16.28-4.5c5.75-.22,11.38.88,15.49,3.33Zm4.84,3.66-5.18-3.1c-4-2.39-9.5-3.45-15.13-3.25a34.44,34.44,0,0,0-16,4.42l-3.22,1.93-.17.05H379.91v47.75h0v0a5.32,5.32,0,0,0,0,.69c0,.23,0,.46,0,.67v13.5h0l0,.35a7.66,7.66,0,0,0,1.14,4.79,12.07,12.07,0,0,0,4.21,4L456,559.66c4,2.39,9.49,3.45,15.13,3.24a34.34,34.34,0,0,0,16-4.41l66.77-40a17.42,17.42,0,0,0,5.75-5.24,8.8,8.8,0,0,0,1.53-5.89V494.05a7.54,7.54,0,0,0,.06-.94,7.26,7.26,0,0,0-.06-.93V445.62H490.43l-.17-.05Z"/><path class="cls-4" d="M485.19,393.75l70.43,42.3c8.07,4.84,7.2,13.3-2,18.79l-66.52,40c-9.15,5.49-23.24,6-31.31,1.17l-70.43-42.29c-8.07-4.84-7.2-13.3,1.95-18.8l66.52-39.95c9.15-5.49,23.24-6,31.31-1.17Z"/><path class="cls-3" d="M485.36,393.47l70.43,42.29a12.69,12.69,0,0,1,4.44,4.23,8.4,8.4,0,0,1,1.24,4.59,9.6,9.6,0,0,1-1.47,4.74,17.54,17.54,0,0,1-6.16,5.81l-66.53,39.94a34.54,34.54,0,0,1-16.21,4.51c-5.73.22-11.34-.88-15.43-3.34L385.24,454a12.69,12.69,0,0,1-4.44-4.23,8.43,8.43,0,0,1-1.24-4.59A9.57,9.57,0,0,1,381,440.4a17.45,17.45,0,0,1,6.16-5.81l66.53-39.95a34.77,34.77,0,0,1,16.21-4.51c5.74-.21,11.34.89,15.43,3.34Zm70.09,42.85L485,394c-4-2.39-9.46-3.45-15.08-3.24a34,34,0,0,0-15.9,4.42l-66.52,39.94a17,17,0,0,0-5.95,5.58,9.07,9.07,0,0,0-1.37,4.42,7.71,7.71,0,0,0,1.15,4.24,11.93,11.93,0,0,0,4.22,4L456,495.68c4,2.39,9.46,3.46,15.08,3.25a34,34,0,0,0,15.9-4.42l66.52-39.94a17.18,17.18,0,0,0,6-5.58,9.11,9.11,0,0,0,1.37-4.43,7.88,7.88,0,0,0-1.15-4.24,12,12,0,0,0-4.22-4Z"/><path class="cls-2" d="M485.19,367.4l5.17,3.1h70.72v46.86a7.41,7.41,0,0,1,0,1.94v13.28c.49,3.95-2,8.21-7.41,11.45l-66.52,40c-9.15,5.49-23.24,6-31.31,1.17l-70.43-42.29c-4-2.4-5.8-5.68-5.49-9.06h0V420a8.42,8.42,0,0,1,0-1.42V370.5h70.76l3.2-1.93c9.15-5.49,23.24-6,31.31-1.17Z"/><path class="cls-3" d="M485.42,367.12l5.1,3.05h71.23v47.16a8.2,8.2,0,0,1,0,2v13.25a9.44,9.44,0,0,1-1.64,6.31,18,18,0,0,1-6,5.44l-66.77,39.94a34.74,34.74,0,0,1-16.27,4.51c-5.76.22-11.38-.88-15.49-3.33l-70.69-42.29a12.81,12.81,0,0,1-4.43-4.18,8.43,8.43,0,0,1-1.24-5.14V420h0q0-.37,0-.72c0-.23,0-.48,0-.72h0V370.17h71.26l3.14-1.87a34.81,34.81,0,0,1,16.28-4.51c5.75-.22,11.38.88,15.49,3.33Zm4.84,3.66-5.18-3.09c-4-2.4-9.5-3.46-15.13-3.25a34.2,34.2,0,0,0-16,4.42l-3.22,1.92-.17.05H379.91v47.79a5.27,5.27,0,0,0,0,.68c0,.24,0,.47,0,.68v13.5h0l0,.35a7.66,7.66,0,0,0,1.14,4.79,12.07,12.07,0,0,0,4.21,4L456,484.87c4,2.39,9.49,3.45,15.13,3.24a34.34,34.34,0,0,0,16-4.41l66.77-39.95a17.42,17.42,0,0,0,5.75-5.24,8.8,8.8,0,0,0,1.53-5.89V419.26a7.42,7.42,0,0,0,.06-.94,7.26,7.26,0,0,0-.06-.93V370.83H490.43l-.17-.05Z"/><path class="cls-4" d="M485.19,319l70.43,42.29c8.07,4.85,7.2,13.31-2,18.81L487.15,420c-9.15,5.49-23.24,6-31.31,1.17l-70.43-42.29c-8.07-4.85-7.2-13.31,1.95-18.8l66.52-39.95c9.15-5.49,23.24-6,31.31-1.17Z"/><path class="cls-3" d="M485.36,318.68,555.79,361a12.76,12.76,0,0,1,4.44,4.22,8.46,8.46,0,0,1,1.24,4.6,9.6,9.6,0,0,1-1.47,4.74,17.43,17.43,0,0,1-6.16,5.8l-66.53,39.95a34.65,34.65,0,0,1-16.21,4.51c-5.73.21-11.34-.88-15.43-3.34l-70.43-42.29a12.58,12.58,0,0,1-4.44-4.22,8.44,8.44,0,0,1-1.24-4.6A9.6,9.6,0,0,1,381,365.6a17.52,17.52,0,0,1,6.16-5.8l66.53-39.95a34.77,34.77,0,0,1,16.21-4.51c5.74-.21,11.34.88,15.43,3.34Zm70.09,42.85L485,319.24c-4-2.39-9.46-3.46-15.08-3.25a34.11,34.11,0,0,0-15.9,4.42l-66.52,39.95a17.08,17.08,0,0,0-5.95,5.58,9.07,9.07,0,0,0-1.37,4.42,7.77,7.77,0,0,0,1.15,4.25,12.08,12.08,0,0,0,4.22,4L456,420.89c4,2.4,9.46,3.46,15.08,3.25a34,34,0,0,0,15.9-4.42l66.52-40a17.07,17.07,0,0,0,6-5.57,9.14,9.14,0,0,0,1.37-4.42,7.89,7.89,0,0,0-1.15-4.25,12,12,0,0,0-4.22-4Z"/><path class="cls-2" d="M485.19,292.59l5.17,3.1h70.72v46.85a7.49,7.49,0,0,1,0,1.95v13.29c.49,3.94-2,8.21-7.41,11.44l-66.52,39.95c-9.15,5.49-23.24,6-31.31,1.17l-70.43-42.29c-4-2.4-5.8-5.68-5.49-9.06h0V345.21a8.42,8.42,0,0,1,0-1.42v-48.1h70.76l3.2-1.93c9.15-5.49,23.24-6,31.31-1.17Z"/><path class="cls-3" d="M485.42,292.31l5.1,3.05h71.23v47.17a7.93,7.93,0,0,1,.06,1,8.22,8.22,0,0,1-.06,1v13.25a9.4,9.4,0,0,1-1.64,6.3,18,18,0,0,1-6,5.45l-66.77,39.95A35,35,0,0,1,471.1,414c-5.76.21-11.38-.88-15.49-3.34l-70.69-42.29a12.74,12.74,0,0,1-4.43-4.19,8.37,8.37,0,0,1-1.24-5.13v-13.8h0c0-.25,0-.49,0-.71s0-.48,0-.73h0V295.36h71.26l3.14-1.88A35.05,35.05,0,0,1,469.93,289c5.75-.21,11.38.88,15.49,3.34Zm4.84,3.66-5.18-3.1c-4-2.39-9.5-3.45-15.13-3.24A34.31,34.31,0,0,0,454,294L450.77,296l-.17,0H379.91v47.79a5.32,5.32,0,0,0,0,.69c0,.23,0,.46,0,.67v13.5h0l0,.36a7.65,7.65,0,0,0,1.14,4.78,12.07,12.07,0,0,0,4.21,4L456,410.06c4,2.39,9.49,3.45,15.13,3.24a34.34,34.34,0,0,0,16-4.41l66.77-39.95a17.42,17.42,0,0,0,5.75-5.24,8.8,8.8,0,0,0,1.53-5.89V344.45a7.42,7.42,0,0,0,.06-.94,7.26,7.26,0,0,0-.06-.93V296H490.43l-.17,0Z"/><path class="cls-4" d="M485.19,244.15l70.43,42.29c8.07,4.85,7.2,13.31-2,18.8l-66.52,39.95c-9.15,5.5-23.24,6-31.31,1.17l-70.43-42.29c-8.07-4.85-7.2-13.31,1.95-18.8l66.52-39.95c9.15-5.49,23.24-6,31.31-1.17Z"/><path class="cls-3" d="M485.36,243.87l70.43,42.29a12.76,12.76,0,0,1,4.44,4.22,8.46,8.46,0,0,1,1.24,4.6,9.6,9.6,0,0,1-1.47,4.74,17.52,17.52,0,0,1-6.16,5.8l-66.53,40A34.54,34.54,0,0,1,471.1,350c-5.73.22-11.34-.88-15.43-3.33l-70.43-42.3a12.58,12.58,0,0,1-4.44-4.22,8.44,8.44,0,0,1-1.24-4.6,9.6,9.6,0,0,1,1.47-4.74,17.52,17.52,0,0,1,6.16-5.8l66.53-40a34.77,34.77,0,0,1,16.21-4.51c5.74-.21,11.34.88,15.43,3.34Zm70.09,42.85L485,244.43c-4-2.39-9.46-3.45-15.08-3.24a34,34,0,0,0-15.9,4.41l-66.52,40a17,17,0,0,0-5.95,5.58,9.07,9.07,0,0,0-1.37,4.42,7.77,7.77,0,0,0,1.15,4.25,12,12,0,0,0,4.22,4L456,346.09c4,2.38,9.46,3.45,15.08,3.24a34,34,0,0,0,15.9-4.42l66.52-40a17,17,0,0,0,6-5.58,9.07,9.07,0,0,0,1.37-4.41,7.89,7.89,0,0,0-1.15-4.25,12,12,0,0,0-4.22-4Z"/><path class="cls-2" d="M482.65,256.3l4.26,2.57h58.47v22a6.2,6.2,0,0,1,0,1.61v11.05c.41,3.29-1.68,6.84-6.13,9.53l-55,33.23c-7.56,4.57-19.21,5-25.88,1l-58.22-35.18c-3.3-2-4.79-4.73-4.53-7.53h0V283.12a7.75,7.75,0,0,1,0-1.18V258.87h58.49l2.66-1.6c7.56-4.57,19.21-5,25.88-1Z"/><path class="cls-3" d="M482.83,256l4.19,2.53h58.77v22.34a7.37,7.37,0,0,1,.05.82,7.86,7.86,0,0,1-.05.83v11a7.92,7.92,0,0,1-1.36,5.27,15.11,15.11,0,0,1-4.93,4.55l-55.05,33.23A28.7,28.7,0,0,1,471,340.37c-4.75.18-9.4-.74-12.79-2.78L399.93,302.4a10.43,10.43,0,0,1-3.67-3.5,7,7,0,0,1-1-4.3h0V283.12h0c0-.21,0-.4,0-.59s0-.4,0-.61h0V258.55H454l2.58-1.56A28.66,28.66,0,0,1,470,253.23c4.76-.18,9.41.74,12.8,2.79Zm3.94,3.13-4.27-2.57c-3.29-2-7.81-2.87-12.44-2.7a28,28,0,0,0-13.14,3.67l-2.65,1.6-.17.05H395.88V282a5.12,5.12,0,0,0,0,.56c0,.19,0,.38,0,.56v11.17h0l0,.36a6.39,6.39,0,0,0,.93,3.95,10,10,0,0,0,3.45,3.27L458.54,337c3.28,2,7.81,2.86,12.44,2.69a28.16,28.16,0,0,0,13.14-3.67l55-33.23a14.49,14.49,0,0,0,4.73-4.35,7.3,7.3,0,0,0,1.25-4.86V282.48a6,6,0,0,0,0-1.54V259.2h-58.2l-.17-.05Z"/><path class="cls-4" d="M482.64,216l58.18,35.18c6.67,4,5.95,11.07-1.61,15.64l-55,33.23c-7.55,4.57-19.19,5-25.86,1l-58.18-35.18c-6.67-4-5.94-11.07,1.61-15.64l55-33.24c7.55-4.57,19.19-5,25.86-1Z"/><path class="cls-3" d="M482.85,215.72l58.28,35.18a10.51,10.51,0,0,1,3.7,3.53,7,7,0,0,1,1,3.85,8.17,8.17,0,0,1-1.21,4,14.69,14.69,0,0,1-5.13,4.84l-55.06,33.23A28.43,28.43,0,0,1,471,304.09c-4.76.18-9.41-.73-12.8-2.78l-58.29-35.18a10.56,10.56,0,0,1-3.69-3.53,7.13,7.13,0,0,1-1-3.86,8.19,8.19,0,0,1,1.22-4,14.65,14.65,0,0,1,5.12-4.84l55.06-33.24a28.7,28.7,0,0,1,13.45-3.76c4.75-.17,9.4.74,12.8,2.79Zm57.95,35.74-58.28-35.18c-3.29-2-7.81-2.87-12.45-2.69a28,28,0,0,0-13.13,3.66l-55.06,33.24a14,14,0,0,0-4.9,4.62,7.46,7.46,0,0,0-1.13,3.65,6.45,6.45,0,0,0,.94,3.5,10,10,0,0,0,3.47,3.31l58.29,35.18c3.29,2,7.81,2.87,12.45,2.69a28,28,0,0,0,13.13-3.66l55.06-33.24a14,14,0,0,0,4.9-4.62,7.57,7.57,0,0,0,1.13-3.65,6.46,6.46,0,0,0-1-3.5,9.91,9.91,0,0,0-3.47-3.31Z"/><path class="cls-5" d="M493.51,264.67l-36.14-21.46a7,7,0,0,0-6.33.21h0c-1.87,1.08-2.07,2.75-.46,3.71l36.15,21.46a6.94,6.94,0,0,0,6.32-.22h0c1.87-1.07,2.08-2.74.46-3.7Z"/><path class="cls-6" d="M471,196.74a1,1,0,0,1,2,0v59.2a1,1,0,1,1-2,0v-59.2Z"/><path class="cls-7" d="M485,195.75a1,1,0,0,1,2,0v68.06a1,1,0,0,1-2,0V195.75Z"/><path class="cls-1" d="M460,248.25a1,1,0,1,1-2,0V167.62a1,1,0,0,1,2,0v80.63Z"/><path class="cls-8" d="M411.54,428.39V414.47c-5-3.21-11.15-6.62-16.41-9.77-3.4-2-2.86,2.58-2.86,5.07v11.32c0,1.39-.14,5.83.05,7,1.05.77,14.07,8.38,16.38,9.76,1.69,1,2.83.45,2.83-1.65C411.55,431.52,411.52,433,411.54,428.39Zm-2.37-11.87,0,.36a10.07,10.07,0,0,1-.89-1.26l0-.49A9.2,9.2,0,0,1,409.17,416.52Zm-4-4.38.22,1.06-1-.63-.29-1.19Zm-4.73-1.52c.08-.08,0,0,.13-.09l.33-.07a1,1,0,0,1,.49,0,9.47,9.47,0,0,1,.62,1.44,1.89,1.89,0,0,1-1.16.23c-.2-.52-.57-.93-.78-1.5Zm-2.39,1a8.93,8.93,0,0,1,1,1.55l-1.24,1.23-1.05-1.71C397,412.3,397.86,411.76,398.08,411.6Zm-2.81,3.83,1.65,1-1,2.23a14.61,14.61,0,0,1-1.3-1.31Zm-.52,9.06-1.65-1.37.52-2.24,1.71,1Zm9.1,6.18c-.22-.25-.08.12-.23-.34l-.18-2c1.39,1.05,1.54,1.41,1.73,2.17.06.27,0,.93,0,1.19C405,431.54,404,430.81,403.85,430.67Zm.4-4A6.75,6.75,0,0,1,403,425.5c0-.16-.1-1.25-.1-1.37,0-.46,0-.58.13-.4C403.38,424.23,404.48,424.49,404.25,426.65Zm-1.19-5.19.31-1.25a7.94,7.94,0,0,1,1,1.19,1.75,1.75,0,0,1-.17,1.39C404,422.51,403.4,421.9,403.06,421.46Zm1.79-1.54c-.18-.38-.67-1.06-.75-1.36l-.1-.06a2.93,2.93,0,0,1,.85-.79l.63,1.46C405.34,419.37,405.06,419.87,404.85,419.92Zm1.77-1.46-.37.08-.31-.75-.15-.56.91.07.21,1Zm3.49,1.25a8,8,0,0,0-3.83-3.17,2.52,2.52,0,0,0-2.58.84,4.28,4.28,0,0,0-.81,1.35,13.63,13.63,0,0,0-.84,4.2,27.89,27.89,0,0,0,.43,4.84c.12.78.24,1.45.4,2.21s.38,1.51.5,2.18l-3.45-2.06-3.05-1.81-1.54-.92c0-1.82.28-3.22.39-4.86.14-.43.25-1.35.36-1.85a17,17,0,0,1,1.69-4.6,9.88,9.88,0,0,1,1.61-2.16,4.63,4.63,0,0,1,2-1.3c2.78-.43,5.87,1.82,8.31,5.67.18.33.33.57.51.94Z"/><path class="cls-9" d="M492,368.8v11.47c.19.45.12.71.5.84a1.31,1.31,0,0,0,1.11-.42c.94-.82.93-1.76.93-3.05,0-1.78-.05-5.85,0-7.38l5.23,5.32c.38.29.62.69,1.33.54a2.7,2.7,0,0,0,1.77-1.49,6.54,6.54,0,0,0,.32-2.86v-9.33c0-1.09-.08-1.73-.77-1.6a2.38,2.38,0,0,0-1.62,1.76c-.22.85-.05,7.61-.11,9.23-.43-.17-5.46-5.68-6-5.95s-1.09,0-1.71.68a3.44,3.44,0,0,0-1,2.24Zm25.79-11.72,2.19-1.31c.08-1,0-2.56,0-3.58s-.15-2.05-1.08-1.54a3.07,3.07,0,0,0-1.14,2.8c0,1-.07,2.8,0,3.63Zm2.2,6v-5.93l-2.22,1.28c0,1.15,0,5.64,0,6.38.15,1.94,2.21.82,2.21-1.73Zm24.91-14.3v-.57c-.22-.53,0-.68-.66-1.25-.29-.27-.64-.48-.95-.72l-1-.7c-.22-.16-.88-.54-1-.81.24-.37.69-1.32.94-1.79l.95-1.85a28.66,28.66,0,0,0,1.35-2.73c.13-.38.19-.78.29-1.1v-.52c-.16-.41-.33-1.41-1.45-.56a6.6,6.6,0,0,0-1.55,2.25l-2.52,4.88c-.52,0-2.68-2.21-3.48-2.31-1.38-.19-2.57,2.11-1.89,3.51.46.95,2.91,2.15,3.31,2.74-.44,1.1-2.88,5.31-3.28,6.58-.72,2.27.53,4.29,3-.73.23-.45,2.12-4.07,2.22-4.36.76,0,2.79,2.7,4.07,2.23a2.11,2.11,0,0,0,1-.84,4.63,4.63,0,0,0,.53-1.35Zm-14.68.11c.14,1.44-.16,8.22.13,8.86s1,.48,1.69-.29a3.31,3.31,0,0,0,.72-2.51v-9.25c0-1.06.1-2-.42-2.24s-1.7.21-2.45,1.64l-3.68,8.05c-.25.55-2,4.36-2.14,4.6,0-1,.09-8.44-.09-8.95s-.88-.58-1.6.14a3,3,0,0,0-.78,2.46v9.19c0,.9-.1,2.11.29,2.48s1.15,0,1.83-.64c.86-.86,1.73-3,2.34-4.41l4.16-9.13ZM507,372.69l6.26-3.75c.17-.15,2.2-6.5,2.44-7.24.16-.5.71-2.07.77-2.46-1.19.71-6.61,3.74-7.29,4.47-1.05,1.13-1,2.93.07,2.71a33,33,0,0,0,3.65-2.09l-1,2.81-3.49,2.1c-.23-.73-1.72-3-1.84-3.41-.05-.2,1.56-5,1.75-5.54l3.79-2.27,1.14,1.8,2.57-1.52-2.42-4-6.56,3.9c-.27.7-.51,1.56-.74,2.25L504.66,365a11.35,11.35,0,0,0-.65,2.26l3,5.43Z"/><path class="cls-10" d="M418,354.53s-2.08-.26-1,2.64a6.06,6.06,0,0,0,.82,1.29l.09,0a5,5,0,0,0,2.19,1c.42.08,1.49.12,1.66-.1.45.06.59-.31.93-.35,1-.84,1.48-1.68,1.74-4-.28.26-.22.56-.65.66a1.4,1.4,0,0,1-1.18-.42,3.91,3.91,0,0,1-1.24-2.88v-1.56c-.22.94-.69,1.28-1.7.67l-.16-.11-1.51-.9a3.43,3.43,0,0,0-.47,0,.48.48,0,0,0-.19.05c-.14.07-.08,0-.16.16-.34,0-.52.86-.41,1.57a4.4,4.4,0,0,0,.84,1.87l.41.38Z"/><path class="cls-11" d="M421.53,353.63a4.18,4.18,0,0,1-.19-1.19v-1.56c-.22.94-.69,1.28-1.7.67l-.16-.11-1.51-.9a3.43,3.43,0,0,0-.47,0,.48.48,0,0,0-.19.05c-.14.07-.08,0-.16.16-.34,0-.52.86-.41,1.57a4.4,4.4,0,0,0,.84,1.87l.39.36c1.55.81,2.89.42,3.57-.88Z"/><path class="cls-12" d="M418,339.76l.59-.05a5.33,5.33,0,0,1,3,1c.43,0,.55.13.87-.15a1.45,1.45,0,0,0,.39-1.19,3.79,3.79,0,0,0-1.43-2.79,8.67,8.67,0,0,0-3-1.23c-.54-.09-2.05-.17-2.25.11a3.69,3.69,0,0,0-1.51.63.33.33,0,0,0-.14.19c-.49.1-1.39,1.47-1.71,2.27a11,11,0,0,0-.79,3.92l0,.16a.91.91,0,0,1,1.26-.9,2.55,2.55,0,0,1,1.09.94A3.36,3.36,0,0,1,415,344a1.77,1.77,0,0,1,.16.55v-.22a12.56,12.56,0,0,1,.28-1.7,4.88,4.88,0,0,1,.24-.68,3.56,3.56,0,0,0,.25-.61l.22-.25a3,3,0,0,1,1.86-1.3Z"/><path class="cls-13" d="M424.41,355.08c-.26,2.3-.76,3.14-1.74,4-.34,0-.48.41-.93.35-.17.22-1.24.18-1.66.1a5,5,0,0,1-2.19-1c-.18.17-.5-.06-.79.2a2.37,2.37,0,0,0-.1,2.55,5.46,5.46,0,0,0,.79,1.22l1.6,1c.25,0,1.14.38,1.52.46a5.08,5.08,0,0,0,3.33-.33c.08-.05.05,0,.09-.07.21,0,.51-.27.67-.39a5,5,0,0,0,1.53-1.87,10.61,10.61,0,0,0,1-4.43c-.2.35-.26.62-.56.78-.54.28-1.48-.27-2.05-1.33a7,7,0,0,1-.51-1.42v.26Z"/><path class="cls-14" d="M421.78,344.76a14.31,14.31,0,0,0,1.13,1l.93,1c.3.44-.26-.41.06.11l.07.12a14.06,14.06,0,0,1,1.47,2.05,14.7,14.7,0,0,1,1.27,2.88,12.35,12.35,0,0,1,.62,2.2,13.94,13.94,0,0,1,.22,2.63,4,4,0,0,0,.48,1.39c.57,1,1.47,1.62,2,1.33.4-.21.32-.32.57-.77V357a24.82,24.82,0,0,0-2.24-8,3.47,3.47,0,0,0-.53-1,12.65,12.65,0,0,0-1.18-2.06,19.44,19.44,0,0,0-1.4-1.91,16.86,16.86,0,0,0-3.59-3.29,6.38,6.38,0,0,1,.81,1.13,4.13,4.13,0,0,1,.4,1.5c0,1.14-.49,1.45-1.12,1.37Z"/><path class="cls-15" d="M424,352.24a6.36,6.36,0,0,1,.38,2.58,7,7,0,0,0,.51,1.42c.57,1.06,1.51,1.61,2.05,1.33.3-.16.36-.43.56-.78v-.07a13.94,13.94,0,0,0-.22-2.63,12.35,12.35,0,0,0-.62-2.2,14.7,14.7,0,0,0-1.27-2.88A14.06,14.06,0,0,0,424,347l-.07-.12c-.32-.52.24.33-.06-.11l-.93-1a12.72,12.72,0,0,1-1.13-1l-.18-.05a5.4,5.4,0,0,1,.76.93,5.87,5.87,0,0,1,.47,1.16c.13,1.19-.11,2-.72,1.95h-.36s0,.09-.06.1a6.51,6.51,0,0,1,1.83,2.18,1.23,1.23,0,0,1,.18.43,2.85,2.85,0,0,1,.34.79Z"/><path class="cls-16" d="M420.1,344.13a3.38,3.38,0,0,1,1.5.58l.18.05c.63.08,1.15-.23,1.12-1.37a4.13,4.13,0,0,0-.4-1.5,6.38,6.38,0,0,0-.81-1.13l-.05,0a5.33,5.33,0,0,0-3-1l-.59.05a3,3,0,0,0-1.86,1.3l-.22.25a3.56,3.56,0,0,1-.25.61,4.88,4.88,0,0,0-.24.68,12.56,12.56,0,0,0-.28,1.7c.1-.07.21-.42.37-.56a.79.79,0,0,1,.6-.19,2.33,2.33,0,0,1,1.58,1.35,3.27,3.27,0,0,1,.52,1.42,5,5,0,0,0,.2-.85,2.22,2.22,0,0,1,.34-.69,1.28,1.28,0,0,1,1.13-.61l.2,0Z"/><path class="cls-17" d="M413.49,354.12a.52.52,0,0,0,.1.18,17.84,17.84,0,0,0,4.21,4.16,6.06,6.06,0,0,1-.82-1.29c-1.08-2.9,1-2.63,1-2.64l-.41-.38c-.19.07-.79-.56-1.1-.82s-.51-.58-.75-.85a8.85,8.85,0,0,1-.65-.81,13.32,13.32,0,0,1-1.13-1.82,11.94,11.94,0,0,1-1.43-3.49l-.05-.21-.33-1.84a10.66,10.66,0,0,1-.05-1.66l0-.16c-.1-.23-.14-.54-.22-.74a5.37,5.37,0,0,0-.33-.68,3,3,0,0,0-1-1.09c-1.1-.64-1.31.38-1.51.7V342c.08.31.23,1.91.33,2.46a21.33,21.33,0,0,0,.56,2.26,24,24,0,0,0,1.52,3.9,21.57,21.57,0,0,0,2.13,3.47Z"/><path class="cls-18" d="M421.34,352.44a3.88,3.88,0,0,0,1.25,2.88,1.38,1.38,0,0,0,1.17.42c.43-.1.37-.4.65-.66v-.26a6.36,6.36,0,0,0-.38-2.58,2.85,2.85,0,0,0-.34-.79,1.23,1.23,0,0,0-.18-.43,6.61,6.61,0,0,0-1.83-2.18c.05,0,.06-.09.06-.1-.61-.28-1.09-.62-1.7-.95.45.6.61.55.95,1.33a3.84,3.84,0,0,1,.33,1.76v1.56Z"/><path class="cls-19" d="M413.94,349.85a13.32,13.32,0,0,0,1.13,1.82,8.85,8.85,0,0,0,.65.81c.24.27.55.57.75.85s.91.89,1.1.82a4.4,4.4,0,0,1-.84-1.87c-.11-.71.07-1.59.41-1.57.08-.14,0-.08.16-.16a.48.48,0,0,1,.19-.05,3.43,3.43,0,0,1,.47,0,4.63,4.63,0,0,1-.4-.3.73.73,0,0,1-.17-.18.67.67,0,0,1-.12-.17l-.48-.45a2.44,2.44,0,0,0-.32-.49,1.32,1.32,0,0,1-.16-.25,1.28,1.28,0,0,1-.11-.25,5.92,5.92,0,0,1-.65-1.31,11.11,11.11,0,0,1-.39-1.63v-1A1.77,1.77,0,0,0,415,344a3.36,3.36,0,0,0-.57-1.28,2.55,2.55,0,0,0-1.09-.94.91.91,0,0,0-1.26.9,10.66,10.66,0,0,0,.05,1.66l.33,1.84.05.21a11.94,11.94,0,0,0,1.43,3.49Z"/><path class="cls-20" d="M420.1,344.13l-.2,0a1.28,1.28,0,0,0-1.13.61,2.22,2.22,0,0,0-.34.69,5,5,0,0,1-.2.85v1.34l0,.73a1.12,1.12,0,0,1,.57-.89c.4-.18.65,0,1.21.29s1.09.67,1.7.95h.36c.61.08.85-.76.72-1.95a5.87,5.87,0,0,0-.47-1.16,5.4,5.4,0,0,0-.76-.93,3.38,3.38,0,0,0-1.5-.58Z"/><path class="cls-21" d="M417.27,349.89a.67.67,0,0,0,.12.17.73.73,0,0,0,.17.18,4.63,4.63,0,0,0,.4.3l1.51.9a6.67,6.67,0,0,1-.67-.87,2.37,2.37,0,0,1-.26-.53l-.12-.33,0-.07c-.09-.22,0-.05-.08-.18,0-.29-.07-.72,0-1.07l0-.73v-1.34a3.27,3.27,0,0,0-.52-1.42,2.33,2.33,0,0,0-1.58-1.35.79.79,0,0,0-.6.19c-.16.14-.27.49-.37.56v1.21a11.11,11.11,0,0,0,.39,1.63,5.92,5.92,0,0,0,.65,1.31,1.28,1.28,0,0,0,.11.25,1.32,1.32,0,0,0,.16.25,2.44,2.44,0,0,1,.32.49l.48.45Z"/><path class="cls-22" d="M397.83,361l.88.53v-2.09l1,.6c1.11.67,2,.46,2-1v0a4,4,0,0,0-1.91-3.33l-2-1.19V361Zm.88-2.59v-2.34l1,.62a2.12,2.12,0,0,1,1.08,1.82v0c0,.67-.41.9-1.08.5l-1-.62Zm3,4.92.9.55.52-1.26,2.37,1.43.51,1.88.93.57-2.21-7.89-.81-.49-2.21,5.21Zm1.74-1.53.86-2.08.87,3.13-1.73-1.05Zm6,6.31c1.05.65,1.79.36,1.79-.85v0a3.86,3.86,0,0,0-1.61-2.87c-1-.88-1.19-1.25-1.19-1.75v0c0-.43.3-.58.81-.28a4.72,4.72,0,0,1,1.36,1.5l.48-.58a5.44,5.44,0,0,0-1.82-1.92c-1-.6-1.72-.26-1.72.85v0c0,1.2.61,2,1.67,2.95s1.14,1.21,1.14,1.68v0c0,.48-.35.61-.89.28a4.76,4.76,0,0,1-1.58-1.81l-.53.5a6.14,6.14,0,0,0,2.09,2.3Zm4.51,2.74c1.05.63,1.79.35,1.79-.86v0a3.84,3.84,0,0,0-1.61-2.87c-1-.89-1.19-1.25-1.19-1.75v0c0-.43.3-.59.82-.28a4.84,4.84,0,0,1,1.36,1.5l.47-.58a5.44,5.44,0,0,0-1.82-1.92c-1-.6-1.71-.27-1.71.85v0c0,1.2.6,2,1.67,2.95s1.13,1.22,1.13,1.68v0c0,.48-.35.61-.89.28a4.88,4.88,0,0,1-1.58-1.8l-.53.49a6.26,6.26,0,0,0,2.09,2.31Zm2.83,1.62,3.75,2.27v-1L417.66,372v-1.74l2.51,1.52v-1l-2.51-1.52v-1.69l2.83,1.71v-1L416.78,366v6.51Zm4.8,2.9.86.52v-4.62l2.77,6.3.73.44v-6.5l-.86-.52v4.49l-2.69-6.12-.81-.49v6.5Zm8,5a2.1,2.1,0,0,0,2.09.26v-2.73l-2.13-1.3v1l1.28.78v1.21a1.45,1.45,0,0,1-1.21-.24,4,4,0,0,1-1.7-3.35v0c0-1.25.7-1.87,1.62-1.31A3.92,3.92,0,0,1,431,376.2l.56-.53a5.43,5.43,0,0,0-1.93-2.05c-1.51-.91-2.59,0-2.59,1.8h0a6,6,0,0,0,2.6,4.92Zm3.24,1.85,3.75,2.27v-1l-2.87-1.74V380l2.51,1.52v-1l-2.51-1.53v-1.69l2.84,1.72v-1l-3.72-2.25v6.5Zm4.8,2.9.88.53v-2.26l1.1.67,1.23,3,1.05.63-1.35-3.28c.69.16,1.18-.18,1.18-1.25v0a3.66,3.66,0,0,0-.41-1.65,4,4,0,0,0-1.45-1.53l-2.23-1.35v6.5Zm.88-2.74v-2.18l1.28.77a2,2,0,0,1,1,1.7v0c0,.65-.4.84-1,.46l-1.29-.78Z"/><path class="cls-1" d="M468.17,375.27h2.3v3.45a10.15,10.15,0,0,0,3.45-.46v2.3a16.45,16.45,0,0,1-3.45.46v3.46h-2.3V381a11,11,0,0,1-3.45-.46v-2.3a10.39,10.39,0,0,0,3.45.46v-3.45Z"/><path class="cls-1" d="M484.78,322.22l1.49-.91v-3.75l2.77-1.67v3.75l1.51-.9v-9.36l-1.51.9V314l-2.77,1.68V312l-1.49.91v9.36Zm6.71-4.05,1.53-.93.63-2.47,2.89-1.75.62,1.73,1.57-.95-2.93-7.66-1.38.83-2.93,11.2Zm2.7-5.54.9-3.59.91,2.49-1.81,1.1Zm8.41-1.16,1.5-.91v-2.81l1.15-.69a5.86,5.86,0,0,0,2.76-4.95v0c0-1.91-1-2.64-2.62-1.66l-2.79,1.69v9.36Zm1.5-5.55v-2.86l1.17-.7c.75-.46,1.22-.24,1.22.68v0a2.54,2.54,0,0,1-1.2,2.13l-1.19.72ZM509,307.6l1.5-.9v-3l1.18-.71,1.46,2.11,1.76-1.06-1.67-2.33a5.66,5.66,0,0,0,1.47-3.79v0a2.2,2.2,0,0,0-.59-1.79c-.45-.35-1.12-.28-2,.25L509,298.24v9.36Zm1.5-5.72v-2.69l1.49-.9c.74-.44,1.18-.25,1.18.63v0a2.36,2.36,0,0,1-1.15,2l-1.52.92Zm8.76-.3a8.8,8.8,0,0,0,3.64-7v0c0-2.66-1.51-3.9-3.62-2.63a8.8,8.8,0,0,0-3.64,7v0c0,2.67,1.51,3.91,3.62,2.64Zm0-1.91c-1.21.73-2.07-.1-2.07-1.7v0a5.13,5.13,0,0,1,2-4.15c1.21-.73,2.07.09,2.07,1.7v0a5.13,5.13,0,0,1-2.05,4.16Zm8.57-12.8-1.45,3.91L525,288.61l-1.76,1.06,2.28,3.22-2.38,6.2,1.71-1,1.54-4.14,1.53,2.28,1.76-1.05-2.38-3.36,2.28-6-1.71,1Zm4.45,6.68,1.5-.9v-3.73l2.62-7.22-1.7,1-1.66,4.76-1.63-2.78-1.76,1.06,2.63,4.09v3.69Z"/><path class="cls-1" d="M405.47,291.41l1.5.91v-3.76l2.77,1.67V294l1.51.91v-9.37l-1.51-.91v3.71L407,286.66V283l-1.5-.91v9.37Zm6.72,4.06,1.54.93.62-1.73,2.89,1.75.63,2.47,1.57.95-2.93-11.2-1.39-.84-2.93,7.67Zm2.7-2.29.91-2.5.91,3.59-1.82-1.09Zm8.42,9,1.51.91v-2.81L426,301c1.53.92,2.76.54,2.76-1.63v0a5.7,5.7,0,0,0-2.61-4.82l-2.8-1.68v9.37Zm1.51-3.74v-2.86l1.16.7a2.47,2.47,0,0,1,1.22,2.16v0c0,.8-.44,1.16-1.19.7l-1.19-.72Zm4.91,7.61,1.5.91v-3l1.18.71,1.47,3.88,1.75,1.07L434,305.26c.86.08,1.46-.51,1.46-2v0a5.41,5.41,0,0,0-.59-2.49,5.22,5.22,0,0,0-2-2.15l-3.12-1.89v9.37Zm1.5-3.91v-2.69l1.5.9a2.35,2.35,0,0,1,1.18,2v0c0,.79-.42,1.07-1.16.63l-1.52-.92ZM440,312.41c2.11,1.27,3.64,0,3.64-2.65v0a8.71,8.71,0,0,0-3.62-7c-2.11-1.27-3.65,0-3.65,2.65v0a8.75,8.75,0,0,0,3.63,7Zm0-1.89a5.23,5.23,0,0,1-2.07-4.2v0c0-1.61.84-2.41,2.05-1.68a5.22,5.22,0,0,1,2.07,4.19v0c0,1.61-.84,2.41-2.05,1.68Zm8.58-2.45-1.46,2.16-1.42-3.9L444,305.27l2.28,6-2.38,3.33,1.71,1,1.54-2.28,1.54,4.14,1.75,1.06L448,312.3l2.29-3.2-1.71-1Zm4.45,12.05,1.5.91V317.3l2.63-4.06-1.71-1L453.81,315l-1.63-4.74-1.76-1.06,2.63,7.26v3.69Z"/><path class="cls-23" d="M504.85,508c.13-.3.06,0,.1-.49l-.05-1.81a33.21,33.21,0,0,0-3.92.38c-4.52.52-3.39-.17-8.29,5.21-.45.5-3.67,3.77-3.93,4.51a4.57,4.57,0,0,0,0,2.2c.11.31-.06.15.25.25a1.55,1.55,0,0,0,.37,0c-.33.55-.43.47-.7,1a5.25,5.25,0,0,0,.08,2.15c0,.35.14.28.49.17-.33.91-.57.44-.6,1.47a4.51,4.51,0,0,0,.1,1.71c.09.31-.1.25.83.25,1.31,0,6.61-.33,7.33-.87a19.43,19.43,0,0,0,2-2.25l4-4.63a7.25,7.25,0,0,0,1.82-2.51c.15-.34.1-.29.1-.72s0-.68,0-1c0-1-.23-.4-.63-.68a4.3,4.3,0,0,0,.32-.39c.41-.65.16-.14.21-.58s.06,0,.1-.49l-.05-1.6c-.21-.38.06-.11-.31-.2l-.34-.11a1.83,1.83,0,0,0,.34-.39c.38-.54.22-.23.26-.66Z"/><path class="cls-24" d="M499.06,524.24c-.09.52,0,2.48,0,3.1a3.74,3.74,0,0,0-3.24,1.94c-1.77,2.55-2,6,0,6.52,1.09.26,2.13-.7,3.17-1.94.21.14.34.48.83.07a1.62,1.62,0,0,0,.53-1.36v-8.69C500.36,522.56,499.23,523.33,499.06,524.24Zm-1.2,9.12c-2.07,2.06-3-1.38-1-3.52S500,531.29,497.86,533.36Z"/><path class="cls-24" d="M488.12,537.17a2.26,2.26,0,0,0,1.11,2.26c1.07.49,2.58-.35,3.84-2.15.51-.73.53-1,.19-1.49-1,.29-1,1.32-2.23,1.85-.82.35-1.33.08-1.48-.79l3.36-2a1.91,1.91,0,0,0,.84-2.94C492.39,529.34,488.1,533.05,488.12,537.17Zm1.37-1.62c.42-2.52,3-3.72,3.43-2Z"/><path class="cls-24" d="M506.58,525.33c-.31.06-.6.19-.92.27s-.64.22-.76-.16a1.87,1.87,0,0,1,1.62-1.31,1.07,1.07,0,0,0,1.42-1c.2-1.45-2.05-.79-3.16.44-.93,1-2.74,4.83,1.11,3.66,2.24-.67.35,1.93-1.12,1.71-.23,0-1.24-.23-1.34,1.12-.07,1,1.77,1,3.12-.21C508.52,528,509.07,524.81,506.58,525.33Z"/><path class="cls-24" d="M488.16,533.35a4,4,0,0,0-2,1.94c-.34-.16-.29-.67-.88-.26a1.62,1.62,0,0,0-.61,1.47v5.36c0,1.6,1.16.72,1.32-.24s-.48-4.22,1.38-6.14c.47-.49.79-.48,1-1.14A.77.77,0,0,0,488.16,533.35Z"/><path class="cls-24" d="M501.39,526.47V532c0,1.46,1.33.74,1.33-.92v-5.36C502.72,524.16,501.39,524.94,501.39,526.47Z"/><path class="cls-24" d="M501.75,524l.62-.35C504,520.15,500.12,522.47,501.75,524Z"/><path class="cls-2" d="M493,512.41c-2.74,2.06-1.22,2.91,1.16,1.14.59-.44,2-1.84,1.15-2.1-.5-.15-1.65.46-2.31,1Z"/><path class="cls-2" d="M494.73,514l2.46-.15,1.06-2.65a28.1,28.1,0,0,0-3.52,2.8Z"/><path class="cls-2" d="M496.24,509.18a8.06,8.06,0,0,1-.77.85l-.13.18,1.36-.56.51.71.34-1.11,1.31-1-1,.07.23-1c-1.39,1.36-.79.88-2.1,1.16.08.29.15.33.23.62Z"/><path class="cls-25" d="M500.62,509.68v-2.16l-2.34,2.54a3.84,3.84,0,0,0,2.33-.38Z"/><path class="cls-26" d="M500.62,509.68a21.48,21.48,0,0,0,2.09-2.35l-2.08.19v2.16Z"/><path class="cls-25" d="M488.8,521.48c0,.35.14.28.49.17,0,0,0,0,0,0,.08.3,3.32-.15,3.64-.18,4.64-.33,3.17.34,7.66-4.77,1.08-1.24,2.83-3.08,3.68-4.27a4.3,4.3,0,0,0,.32-.39c.41-.65.16-.14.21-.58l-.05-1.78c-.13.57-7.6,8.93-7.86,9.13-.88.65-6.78.81-8.18.81l0,1.84Z"/><path class="cls-25" d="M488.79,524.83c.09.31-.1.25.83.25,1.31,0,6.61-.33,7.33-.87a19.43,19.43,0,0,0,2-2.25l4-4.63a7.25,7.25,0,0,0,1.82-2.51L504.8,513a10.57,10.57,0,0,1-1.84,2.34c-1.15,1.28-5.51,6.41-6,6.8-.74.55-3.4.57-4.21.63a26,26,0,0,1-4,.17l0,1.86Z"/><path class="cls-25" d="M488.8,518c.11.31-.06.15.25.25a1.55,1.55,0,0,0,.37,0c1.12-.1,2.43-.18,3.63-.27,4.62-.35,3,.41,7.51-4.68l3.53-4.06.08-.1a.87.87,0,0,0,.08-.1,1.83,1.83,0,0,0,.34-.39c.38-.54.22-.23.26-.66l-.05-1.81c-.14.57-3.2,3.9-3.78,4.55-4.26,4.8-3.54,4.91-6.27,5.06a43,43,0,0,1-6,.33l.05,1.87Z"/><path class="cls-27" d="M538.83,500.34a11.27,11.27,0,0,1,.18,1.41l0,1.21.39,0a10.09,10.09,0,0,1,.21-3.33c-.08,0,.07-1.11,0-1.19s-.1-.25-.14-.42c-.14-.62-.47-1-.52-1.5,0,0,0-.05,0-.08v0a32.88,32.88,0,0,1-.15,3.93Z"/><path class="cls-28" d="M537.06,484.46a.88.88,0,0,0-.09.26l-.24.89a27.07,27.07,0,0,0-.72,9.15,10.45,10.45,0,0,0,1.09,3.52,6.11,6.11,0,0,0,1.49,1.85c.12.1.15.09.24.21a18.07,18.07,0,0,0,.29-3v.05a.22.22,0,0,1,0,.08,9.7,9.7,0,0,0,.17,1.6c0,.17.1.28.14.42a.31.31,0,0,0,.2.16l.62-1.26a25.1,25.1,0,0,0,1.43-4.24,22.78,22.78,0,0,0,.58-6.93,15.22,15.22,0,0,0-1.25-4.93c-.16-.32-.31-.59-.47-.86s-.36-.49-.53-.73a3.71,3.71,0,0,1-.55-.7c-.13-.26-.38-1-.41-1-.94,8.54.82,12.8-2,5.66,0-.12,0,0,0-.16Z"/><path class="cls-29" d="M549.18,497.81c-.59-.27-1.12,0-1.81.42-.42.26-.88.57-1.3.81l-.77.41a2,2,0,0,0-.13.59c.81-.31.77-.2.77,1.17s0,2.75,0,4a4.24,4.24,0,0,1-.13,1.41c-.21.4-.37.19-.47.65a.84.84,0,0,0,0,.35c.61-.34,1.21-.7,1.82-1a5.79,5.79,0,0,0,2.61-3.37C550.45,501.06,550.26,498.33,549.18,497.81Zm-.34,6.32a2.77,2.77,0,0,1-1.39,1.66c-.78.35-.76-.15-.76-1.14v-2.87c0-.65,0-1.51,0-2.16a.54.54,0,0,1,.2-.49,1.79,1.79,0,0,1,1.45-.45,1.38,1.38,0,0,1,.81,1A8,8,0,0,1,548.84,504.13Z"/><path class="cls-29" d="M554.06,498.16c-.11,0-.34,0-.42,0h0l.32-.52a3.39,3.39,0,0,0,.35-2.13c-.15-.77-.69-.9-1.34-.52-.82.48-1.39.86-2.23,1.3a1.49,1.49,0,0,0-.11.58c.17,0,.45-.21.58-.14s.12.73.12,1.14v3.74a11.89,11.89,0,0,1-.08,1.81,1.06,1.06,0,0,1-.41.48c-.11.08-.13.07-.17.27a1.11,1.11,0,0,0,0,.4l2-1.1a4.71,4.71,0,0,0,2.12-3.93C554.73,498.65,554.44,498.26,554.06,498.16Zm-2,.21c0-.21,0-1.94,0-2.1s.13-.27.3-.36c.67-.4,1.2-.35,1.2.85a2,2,0,0,1-1.38,2.12C552.05,499,552.07,499,552.07,498.37Zm.87,4.21c-.89.55-.87.11-.87-1.34,0-.46,0-1.2,0-1.64a2.9,2.9,0,0,1,.92-.51.63.63,0,0,1,.65.16A2.82,2.82,0,0,1,552.94,502.58Z"/><path class="cls-30" d="M540.79,505.72a1.49,1.49,0,0,0,.08-.87,1.11,1.11,0,0,1-.49.59c-.47.28-.62,0-1.21.31a3.6,3.6,0,0,0-1.27,1.88,3.79,3.79,0,0,0-.14,1c0,1.64.72,1.31.74,1.44s-.22.46-.28.55a1.51,1.51,0,0,0-.28.55.58.58,0,0,0,.32.57s.12,0,.16.06a5.06,5.06,0,0,1-.24.46,3.43,3.43,0,0,0-.55,1.53c0,1,.67,1.25,1.29.88l.09,0a4.82,4.82,0,0,0,1.84-3.56c0-1-.38-1.12-.92-.91-.3.11-1,.49-1.15.42s-.14-.22,0-.45.35-.33.67-.7a3.84,3.84,0,0,0,.56-.86,4.13,4.13,0,0,0,.33-1.09,4.73,4.73,0,0,0,0-1.28C540.47,506,540.61,506.13,540.79,505.72Zm-2,6c.25-.25,1.17-.71,1.4-.3a2.12,2.12,0,0,1-.5,2c-.44.47-1,.69-1.34.25S538.41,512.06,538.79,511.7Zm.37-2.56c-.46.31-.71-.17-.76-.84a2.16,2.16,0,0,1,.55-1.91c.46-.33.71.14.76.83A2.36,2.36,0,0,1,539.16,509.14Z"/><path class="cls-30" d="M531.51,510.24a4.46,4.46,0,0,0-1.79,3.81c0,1.64.57,2.5,1.54,1.94a4.67,4.67,0,0,0,1.71-3.81V512C533,510.53,532.34,509.76,531.51,510.24Zm.7,3.63a2.19,2.19,0,0,1-.54,1.27c-.67.62-1.08-.13-1.21-1-.14-1,0-2.46.56-3,.36-.35.66-.25.84-.06A4.2,4.2,0,0,1,532.21,513.87Z"/><path class="cls-30" d="M542.86,503.59a4.7,4.7,0,0,0-1.59,3.79c.05,3.14,2,2.09,2.79.23a6,6,0,0,0,.45-2.29C544.52,503.68,543.85,502.85,542.86,503.59Zm.89,3.54c-.26,1.63-1.49,2.15-1.75.2a4,4,0,0,1,.58-3,.56.56,0,0,1,.84,0A4.44,4.44,0,0,1,543.75,507.13Z"/><path class="cls-30" d="M528.66,515.24a8.66,8.66,0,0,0-.14-2.3c-.3-.9-.93-.61-1.52.31s-.4.93-.63.56c-.46-.72-1.2.25-1.67,1.16-.26.51-.07-.38-.15-.64a10.41,10.41,0,0,1-1,1.06c-.07.07-.19.23-.13.34s.29,0,.46.08.11.09.11.31,0,3-.05,3.31-.38.45-.46.61a.91.91,0,0,0,0,.4c.09,0,.28-.15.38-.23l.41-.25a7.55,7.55,0,0,0,.8-.44,1.72,1.72,0,0,0,0-.45c-.57.14-.49.35-.49-2.06v-.79a1.48,1.48,0,0,1,.09-.71c.38-.72,1-1.3,1.26-.59a13.85,13.85,0,0,1,.1,2.87,1.24,1.24,0,0,1-.12.65,4.48,4.48,0,0,1-.33.32.64.64,0,0,0,0,.49c.26-.16.52-.35.78-.49a7.67,7.67,0,0,0,.79-.45c0-.12.09-.44,0-.44a3,3,0,0,1-.32.06c-.14,0-.13-.22-.13-.5v-2.31a5.59,5.59,0,0,1,0-.7,4.31,4.31,0,0,1,.29-.47,1.91,1.91,0,0,1,.37-.38.38.38,0,0,1,.62.12,3.05,3.05,0,0,1,.14,1.25v1.56c0,.78-.08.67-.45,1.08,0,.09,0,.3,0,.37s0,.06.18,0l.93-.57a3.21,3.21,0,0,0,.45-.24,1.87,1.87,0,0,0,0-.47C528.5,516.89,528.66,516.6,528.66,515.24Z"/><path class="cls-30" d="M536.88,511.88c-.09-.06-.07-.54-.07-.76,0-.63,0-1.29,0-1.91a3.08,3.08,0,0,0-.23-1.33c-.72-1.16-1.78,1.24-1.86,1.32a3.86,3.86,0,0,0,0-.85c-.08.08-.19.23-.28.33-.26.29-.87.79-.92,1-.1.34.16.2.43.27s.13.08.14.35v.66c0,.74,0,1.44,0,2.19s-.14.62-.47.91a2.26,2.26,0,0,0,0,.52c.21-.1.65-.43,1-.59l.68-.36a2,2,0,0,0,0-.54c-.55.12-.51.63-.51-2.14,0-.91-.07-1.13.23-1.6s.86-.84,1.09-.33a3.7,3.7,0,0,1,.11,1.22v1.67a.83.83,0,0,1-.45.9,2.25,2.25,0,0,0,0,.52c.3-.16.6-.39.92-.57l.66-.35a.89.89,0,0,0,0-.53C537.25,511.8,537,512,536.88,511.88Z"/><path class="cls-31" d="M537.06,484.46c0,.14,0,0,0,.16l.51,2.28c.17.8.35,1.6.53,2.41.1.42.18.79.27,1.2s.8,3.45.81,3.67a2.27,2.27,0,0,0,0-.45v-3.36c0-1.86,0-10.86-.15-11.41v-.15a.16.16,0,0,0,0,.09.49.49,0,0,0,0,.12,6.25,6.25,0,0,1-.83,2.24c-.25.58-.46,1.12-.68,1.74-.08.22-.43,1.27-.45,1.46Z"/><path class="cls-32" d="M403.87,497.06c-.8-2.53-2.67-8.55,1.22-5.93-1.2-6.35-8.33-12.65-8.58-4.11l.21-.11a3,3,0,0,1,2,1,4.44,4.44,0,0,1,1.25,3c.45,3.94-.88,3.83-1.19,5.66,2.86,1.49-.58,9.64,3.16,11.11,1.91.75,2-.42,2.23-2.64.11-1,.21-1.93.29-2.94.12-1.53,0-1.65.83-2C404.87,498.9,404.46,498.9,403.87,497.06Z"/><path class="cls-32" d="M395.44,487.94a11.86,11.86,0,0,1,.61-3.42,5.86,5.86,0,0,1,.49-1.16c.23-.4.49-.56.66-.89-1.6-1.64-4-3.32-5.26-2.26s-.84,4.29-.44,6.85c.2,1.24,1.83,11.15,3.5,9.52l1.55-1.5-.27,0C394.89,492.56,395.51,490.84,395.44,487.94Z"/><path class="cls-32" d="M405.66,499.54s0,0,0,0Z"/><path class="cls-32" d="M404.81,487.78a16.63,16.63,0,0,1,1.16,3.74,30.79,30.79,0,0,1,.31,4.32c.27,3.62-.5,2.78-.59,3.61,0,.06,0,.08,0,.09a.27.27,0,0,1,0,.08c.21.15,1.34-2.43,1.52-2.93.5-1.37,1.57-4.82.69-7a9.14,9.14,0,0,0-1.3-2.15,7.65,7.65,0,0,0-4-2.83A8.45,8.45,0,0,1,404.81,487.78Z"/><path class="cls-32" d="M398.09,495.59l.28.13a12.13,12.13,0,0,0,.44-1.42,9.11,9.11,0,0,0,.06-4.93,1.8,1.8,0,0,0-2.09-1.42c-.38.09-.28.58-.25,1.21.05,1,0,1.74-.06,2.68A5.14,5.14,0,0,0,398.09,495.59Zm.59-6.24c-.06.78-.83.18-1-.4C397.52,488.19,398.4,488.77,398.68,489.35Z"/><path class="cls-32" d="M403.86,494.15a40.28,40.28,0,0,0,1.38,4.38c.42-.5.22-2,.14-2.95a19,19,0,0,1,.15-3.27C403.8,491.31,403.23,491.4,403.86,494.15Zm.19-2c.12-.31.52-.14.9.22C405,493.28,404.25,492.89,404.05,492.19Z"/><path class="cls-32" d="M398.2,497.92c-.47.36-1.08-.13-1.62,0,1,1.47,3.16,1.56,2.8.1S398.3,497.84,398.2,497.92Z"/><path class="cls-32" d="M405.36,501c-.25.05-.31.34-.26.83a4.05,4.05,0,0,0,1.69.94,1.38,1.38,0,0,0,1.31-.17,5.16,5.16,0,0,1-2-1.07C405.81,501.21,405.66,500.89,405.36,501Z"/><path class="cls-33" d="M453.44,530.83c0-.87,0-4.18,0-5.15a3.81,3.81,0,0,0-.45-2,5.25,5.25,0,0,0-2.23-2,3.88,3.88,0,0,0-1.18-.52.65.65,0,0,0-.46.08c-.54.33-.58,1.18-.59,2.32a35.74,35.74,0,0,0,.17,5,3.3,3.3,0,0,0,1.94,2.44,5.55,5.55,0,0,1,1.21.85c.33.38.47,1,.78,1.48a3.64,3.64,0,0,0,1.18.87L453,532.1C453.13,531.67,453.38,531.89,453.44,530.83Zm-1-.4c-.16-.07-.33-.49-.42-.69a4.65,4.65,0,0,0-.37-.74,3.33,3.33,0,0,0-1.19-.92c.06.26.51,1.33.7,1.94-1.28-.66-1.49-.91-1.52-3.24,0-.88,0-1.9,0-2.75s.15-1.2.62-1a8.2,8.2,0,0,1,1.35.78c.83.56.81.64.85,1.5A43.76,43.76,0,0,1,452.42,530.43Z"/><path class="cls-33" d="M443.53,519.9c-.1,3.78,2.37,3.57,3.21,5.09a2.7,2.7,0,0,1,.13,1.57c-.13.86-.95.29-1.46,0s-1.27-.73-1.9-1.13v1.31c1.07.61,2.65,1.8,3.65,1.91.66.08.72-.48.74-1.93a3.89,3.89,0,0,0-.74-2.83,9.86,9.86,0,0,0-1.7-1.4c-.22-.17-.65-.41-.8-.78a3.71,3.71,0,0,1-.07-1.62c.08-.5.16-.44.65-.21l2.75,1.44,0-1.24c-.85-.47-3-2-3.66-1.9S443.57,518.56,443.53,519.9Z"/><path class="cls-33" d="M458.48,534.49l-1.8-1.17c-.29-.2-.59-.39-.89-.61a1.33,1.33,0,0,1-.62-1c-.2-1.33,0-6.43-.11-7.38l-.94-.58c0,.27,0,3.9,0,4.5a17.22,17.22,0,0,0,.28,4.18,4.48,4.48,0,0,0,1.84,1.93c.76.49,1.51.94,2.27,1.4C458.49,535.43,458.52,534.81,458.48,534.49Z"/><path class="cls-32" d="M430.34,518.79l1.07.65V512c.09.29.18.86.25,1.18.31,1.64.86,4.43,1.19,6,.07.3.19.89.27,1.12a1.45,1.45,0,0,0,1.29.81c.18,0,.23-.37.32-.69.18-.58.32-1.18.49-1.77s.32-1.2.48-1.81c.07-.27.4-1.76.46-1.86.08,1.15.07,6.06.07,7.42l1.07.67c0-1.06.06-8-.15-8.84a1.89,1.89,0,0,0-1.15-1.37c-.49-.12-.61.19-.8.9l-.92,3.57c-.08.31-.16.59-.24.89s-.19.72-.33.68c-.15-.59-.32-1.62-.45-2.3-.18-.94-.92-5.22-1.18-5.76a2,2,0,0,0-.55-.73c-.38-.28-.94-.31-1.09.06a18.94,18.94,0,0,0-.1,2.72c0,2,0,4,0,6Zm11.35,6.93c0,.83-.06,1.09-.46,1a26.93,26.93,0,0,1-3.18-1.74,4.64,4.64,0,0,0,.08,1.4c.21.46,1.88,1.28,2.25,1.46.77.37,1.35.7,1.95.38.29-.16.38-.49.41-1.33.05-1.4,0-5.66,0-7.14l-1.07-.64v5.22a10.83,10.83,0,0,1-2.45-1.68,41.48,41.48,0,0,1-.12-5.08l-1.07-.66c0,1.12,0,2.32,0,3.46a4.91,4.91,0,0,0,.48,2.81c.73,1.19,2.83,2.12,3.15,2.55Z"/><path class="cls-1" d="M416.53,507.81c1.36.81,2.36,0,2.36-1.64v0a5.46,5.46,0,0,0-2.35-4.4c-1.37-.8-2.36,0-2.36,1.64v0a5.44,5.44,0,0,0,2.35,4.4Zm0-1.18A3.28,3.28,0,0,1,415.2,504h0c0-1,.54-1.51,1.33-1a3.26,3.26,0,0,1,1.34,2.63h0c0,1-.55,1.51-1.33,1.05Zm2.95,2.83,1,.57v-1.87l.76.45.95,2.43,1.14.68L422.24,509c.56.05.95-.32.95-1.26v0a3.46,3.46,0,0,0-.38-1.56,3.51,3.51,0,0,0-1.29-1.36l-2-1.19v5.86Zm1-2.44v-1.68l1,.57a1.46,1.46,0,0,1,.77,1.29h0c0,.5-.27.67-.75.39l-1-.58Z"/><path class="cls-34" d="M472.45,197.88h0c-22.32-11.81-29.76-40.25-22.23-52.82l-1.18-.19,4-3.15h0c4.33-3.65,11.13-4.11,20.43.81h0c24.85,13.15,31.26,46.91,19.1,56.43h0l-3.65,2.85-.5-.8c-4.08,1.12-9.39.32-15.95-3.15Z"/><path class="cls-35" d="M468.77,200.77h0c-33.71-17.84-33.5-73.6,1-55.35h0c33.71,17.84,33.5,73.6-1,55.35Z"/><path class="cls-2" d="M453.84,163.54l3.65,2c1.73,1,2.88.79,2.9-.81v0a4,4,0,0,0-1.39-2.95c.55,0,1-.34,1-1.33v0a3.36,3.36,0,0,0-.5-1.79,5.2,5.2,0,0,0-2-1.89l-3.56-2-.14,8.77Zm4.51-3.7c0,.66-.48.67-1.23.25l-1.55-.86,0-1.85,1.66.92a1.8,1.8,0,0,1,1.09,1.52v0Zm.38,3.72v0c0,.65-.47.7-1.21.29l-2-1.12,0-1.93,1.95,1.09a2,2,0,0,1,1.24,1.64Zm2.37,4,1.72,1,.73-1.58,3.24,1.8.67,2.36,1.77,1-3.15-10.66-1.55-.87-3.43,7Zm3.08-2,1.06-2.28,1,3.41-2-1.13Zm9.33,9c1.48.82,2.37.71,3.17.18L475.63,173a1.9,1.9,0,0,1-2-.09,4.75,4.75,0,0,1-2.18-4v0c0-1.5,1-2.21,2.26-1.49a5.71,5.71,0,0,1,1.95,2.08l1.09-.82a7.58,7.58,0,0,0-3-3c-2.35-1.31-4-.19-4.06,2.31v0a8.08,8.08,0,0,0,3.85,6.7ZM478,177l1.68.94,0-2.68.91-.56,2.32,5.06,2,1.13L481.81,174l3.17-2-2-1.14L479.78,173l.06-3.84-1.69-.94L478,177Zm-20.58,1.65,5.83,3.25,0-1.72-4.16-2.31,0-1.85,3.61,2,0-1.72-3.61-2,0-1.78,4.11,2.29,0-1.72-5.78-3.22-.14,8.77Zm7.34,4.09,1.67.93.09-5.58,3.62,7.64,1.43.8.14-8.77-1.66-.93-.09,5.4-3.5-7.4-1.56-.86-.14,8.77Zm8.66,4.82,3,1.66c2.4,1.34,4.09.35,4.13-2.12v0a8,8,0,0,0-4-6.63l-3-1.66-.14,8.77Zm3.11-5.36a4.55,4.55,0,0,1,2.26,3.92v0c0,1.55-1,2.1-2.35,1.33l-1.3-.72.08-5.29,1.31.73Z"/><path class="cls-36" d="M196.78,7.32h0l-5.25-3c-3.05-2.14-7.67-2-12.81,1L19.44,96.5c-9,5.17-16.26,17.15-16.27,26.6l0,161.25c0,12.65,5.38,15.91,8.37,19.1h0c2.85,3.7,8.34,4.2,14.52.65l159.1-91.36c9-5.19,16.27-17.16,16.27-26.61l0-165.84h0V16.54c0-4.58-1.78-7.76-4.64-9.22Z"/><path class="cls-3" d="M198.29,6.31l.37.21v0a9.55,9.55,0,0,1,3,3.57,14.23,14.23,0,0,1,1.37,6.42v1h0v2.75l0,165.84c0,5.05-1.92,10.73-5,15.81a35.61,35.61,0,0,1-12.06,12.21L26.83,305.52a17.38,17.38,0,0,1-9.26,2.61,9.73,9.73,0,0,1-6.1-2.34h0l-.07-.08a10.56,10.56,0,0,1-1.12-1.19c-.37-.39-.78-.79-1.21-1.21-3.23-3.13-7.56-7.31-7.56-19l0-161.25c0-5,1.92-10.74,5-15.82a35.43,35.43,0,0,1,12.07-12.2L177.91,3.83a18.61,18.61,0,0,1,7.76-2.59,10.28,10.28,0,0,1,6.77,1.7l5.12,2.95c.25.13.5.27.73.42Zm-3.39,1.8-4.18-2.4-.13-.08A7.09,7.09,0,0,0,185.9,4.5a15.39,15.39,0,0,0-6.36,2.16L20.25,97.91A32.11,32.11,0,0,0,9.35,109c-2.81,4.6-4.55,9.68-4.55,14.12l0,161.25c0,10.27,3.76,13.91,6.56,16.62l.17.17.17-.16,1.13,1.47a6.35,6.35,0,0,0,4.92,2.42,14.15,14.15,0,0,0,7.5-2.18l159.1-91.37a32.26,32.26,0,0,0,10.91-11.08c2.81-4.6,4.54-9.67,4.54-14.11l0-163.1h0V16.54a10.84,10.84,0,0,0-1-4.95A6.15,6.15,0,0,0,196,8.77l-1.16-.59,0-.07Z"/><path class="cls-36" d="M195,137.29l.07-118.57,2.07-3.67-2-1.64,1.66-6.09-5.25-3c-3.06-2.14-7.67-2-12.81,1L19.44,96.5c-9,5.17-16.26,17.15-16.27,26.6l0,161.37c0,12.65,5.38,15.91,8.37,19.1L164.69,123.85,195,137.29Z"/><path class="cls-3" d="M194.68,136.79l.07-118.07,0-.16,1.93-3.43-1.81-1.47-.16-.13.06-.21,1.59-5.85-5-2.9h0a8.33,8.33,0,0,0-5.52-1.36,16.44,16.44,0,0,0-6.91,2.33L19.9,96.78A33.4,33.4,0,0,0,8.55,108.3c-2.92,4.79-4.73,10.12-4.73,14.8l0,161.37c0,10.83,4,14.68,7,17.56.38.36.73.71,1.07,1.05L164.5,123.63l.16-.18.22.1,29.8,13.24Zm.72-118-.07,118.48v.5l-.46-.2-30-13.35L12.06,303.78l-.24.28-.25-.27c-.39-.42-.83-.84-1.29-1.28-3.06-3-7.15-6.93-7.15-18l0-161.37C3.18,118.29,5,112.85,8,108A34.23,34.23,0,0,1,19.58,96.21L178.59,5a17.3,17.3,0,0,1,7.19-2.41A9,9,0,0,1,191.72,4l5.22,3,.22.13-.07.24-1.6,5.89,1.85,1.51.22.17-.14.24-2,3.6Z"/><path class="cls-2" d="M201.42,20.29V16.54c0-9.44-7.56-12.92-16.59-7.73L25.73,100.18c-9,5.18-16.27,17.15-16.27,26.6l0,165.85h0v3.75c0,9.44,7.56,12.92,16.59,7.73l159.1-91.36c9-5.19,16.27-17.16,16.27-26.61l0-165.84Z"/><path class="cls-3" d="M201.09,20.29V16.54a11.78,11.78,0,0,0-1.4-6,7.41,7.41,0,0,0-2.86-2.86,8.43,8.43,0,0,0-4.1-1A15.88,15.88,0,0,0,185,9.09L25.89,100.46A33.52,33.52,0,0,0,14.52,112c-2.93,4.78-4.73,10.1-4.73,14.78l0,165.27h0v4.32a11.85,11.85,0,0,0,1.39,6A7.48,7.48,0,0,0,14,305.2a8.43,8.43,0,0,0,4.1,1,15.8,15.8,0,0,0,7.75-2.37L185,212.45a33.57,33.57,0,0,0,11.37-11.53c2.93-4.79,4.73-10.11,4.73-14.79l0-165.29h0v-.55Zm.66-3.75v3.2h0v.55l0,165.84c0,4.81-1.84,10.24-4.82,15.13A34.29,34.29,0,0,1,185.29,213L26.18,304.39a16.49,16.49,0,0,1-8.07,2.45,9.08,9.08,0,0,1-4.41-1.07,8.1,8.1,0,0,1-3.12-3.11,12.5,12.5,0,0,1-1.48-6.29V293.2h0v-.57l0-165.85c0-4.8,1.84-10.24,4.82-15.12a34.23,34.23,0,0,1,11.6-11.77L184.67,8.53a16.29,16.29,0,0,1,8.07-2.45,9.1,9.1,0,0,1,4.41,1.06,8.17,8.17,0,0,1,3.12,3.11,12.56,12.56,0,0,1,1.48,6.29Z"/><polygon class="cls-3" points="201.58 27.55 9.62 137.79 9.45 137.89 9.28 137.78 2.99 133.7 3.35 133.16 9.47 137.13 201.26 26.99 201.58 27.55"/><path class="cls-3" d="M40.29,103.14c-1.64.59-3,2.82-3,5s1.34,3.44,3,2.86,3-2.82,3-5-1.33-3.44-3-2.85Zm-15.7,9c-1.64.59-3,2.82-3,5s1.33,3.45,3,2.86,3-2.82,3-5-1.33-3.45-3-2.86Zm7.8-4.48c-1.64.59-3,2.82-3,5s1.33,3.44,3,2.85,3-2.82,3-5-1.33-3.44-3-2.86Z"/><path class="cls-37" d="M51.06,170.53a39.26,39.26,0,0,0,3.63-2.05l4.15-2.39-4.08-9.79h-.09l-3.61,14.23Zm3.62-26.79v.14c.1.05,0,0,.09.08l.77,1.84c.72,1.77,1.71,4.33,2.42,5.9,1,2.3,2.14,5.38,3.21,7.81s2.09,5.29,3.22,7.87c.57,1.28,1.05,2.63,1.62,3.93l1.59,3.95-4.33,2.4c-.18,0-.32-.62-.41-.86-.71-2-1.79-4.62-2.37-6.43l-5.79,3.41,0-.07-5.26,3-2.47,10.17-4.6,2.77c.1-.61,2.84-10.63,3.1-11.61.4-1.49,9.06-33.83,9.26-34.34Zm.08,51.67c.67-.88,1.34-1.79,2-2.69,1.9-2.64,4.21-5.6,6-8.18s4.12-5.54,6-8.17c.18-.24.32-.42.49-.66.79-1.1.6-.5.78-2.69.08-1,2.76-32,2.77-32.92l-18.15,1.7c-.38.27-1.76,1.85-2.2,2.32l-6.66,7.19c-2.93,3.19-5.95,6.31-8.84,9.53-.08.44,1.7,20.41,2,23.69.22,2.6.39,5.37.68,7.9,1.22.32,2.52.51,3.77.78s2.49.57,3.77.79l5.65,1.16c.28.07,1.69.49,1.91.25Z"/><path class="cls-38" d="M108.35,167.09l.42-.23a25,25,0,0,1,1.81-1.76l5.28-5c2.35-2.17,4.72-4.38,7-6.6l3.18-48-35,20.26,3.18,44.35c.79-.06,9-2,10.55-2.3a26.26,26.26,0,0,1,3.56-.73Z"/><path class="cls-2" d="M108.55,142.24l5.39-3.11-.5,7.6-4.83,4.49-4.86,1.15c0-.1,0,0-.07-.22l-.32-4.1L99,150.59c0,.72.52,8.23.64,8.57l8.81-1.91.13-.07,9-8.42,1.17-17.94c-.24-.17-.84.33-1.16.51l-9,5.21-5.79,3.31-.39-5.52,6.18-3.57,10.39-6c.18-.18.06,0,.19-.23l.4-5.79-11,6.36-11,6.35,1.16,16.45,9.81-5.63Z"/><path class="cls-1" d="M144.15,93.67l3.19,44.5c2.37-.5,4.73-1.06,7-1.59l7-1.49.45-.26,14.11-13.55,3.18-48.77L144.15,93.16v.51Z"/><path class="cls-2" d="M161.63,97.71l6.13-3.61a56.87,56.87,0,0,1-.43,6.16l-5.57,3.32-5.37,3.16.43,5.49,4.8-2.83,5.41-3.13-.5,7.67-4.84,4.58a29.3,29.3,0,0,1-4.95,1.18l-.3-4.37-4.34,2.54.56,8.66,9-2,.25-.35c.22-.12,8.26-7.59,8.73-8.35l2-30.15c-.39-.16-4.91,2.71-5.4,3L161.62,92l-10.89,6.45.36,5.47,10.54-6.2Z"/><polygon class="cls-34" points="97.1 195.46 108.29 198.09 108.29 203.64 100.67 201.85 100.67 211.41 108.29 213.2 108.29 219.09 97.1 216.46 97.1 195.46"/><polygon class="cls-35" points="119.49 182.95 108.29 198.09 108.29 203.64 115.92 193.32 115.92 202.88 108.29 213.2 108.29 219.09 119.49 203.94 119.49 182.95"/><polygon class="cls-35" points="108.29 198.09 97.1 213.23 97.1 234.23 108.29 219.09 108.29 213.2 100.67 223.51 100.67 213.95 108.29 203.64 108.29 198.09"/><polygon class="cls-34" points="108.29 198.09 119.49 200.72 119.49 221.72 108.29 219.09 108.29 213.2 115.92 214.99 115.92 205.43 108.29 203.64 108.29 198.09"/><path class="cls-37" d="M172.93,155.29l-6.61,1.9.07.54-.07-.34-5.13,11.46-5.12-5.56-.07.42.07-.62-6.61,5.73a96.51,96.51,0,0,0,.19,27.46l6.88-2.44a89.7,89.7,0,0,1-1.34-17l6,4.28,6-11.2a116.24,116.24,0,0,1-1.34,18.56l6.88-5.49A99.31,99.31,0,0,0,172.93,155.29Zm-20.45,36.3c-.14.11-.28,0-.3-.16a97.56,97.56,0,0,1-.59-10c0-3.49.12-7.16.46-11a.6.6,0,0,1,.3-.5c.14-.06.24.08.22.31-.34,3.83-.48,7.47-.45,10.92a95.62,95.62,0,0,0,.58,9.85A.72.72,0,0,1,152.48,191.59Zm13.76-26-4.93,9.64c-.1.19-.25.28-.35.21l-5.19-3.81c-.11-.08-.12-.32,0-.54s.27-.32.38-.24l5,3.67,4.76-9.29c.1-.21.27-.3.37-.2A.53.53,0,0,1,166.24,165.56Zm3.84,15.55a.61.61,0,0,1-.3.5c-.15,0-.24-.09-.22-.32.35-3.52.55-7,.58-10.52a100,100,0,0,0-.45-10.4.72.72,0,0,1,.22-.57c.15-.11.28,0,.3.16a99.47,99.47,0,0,1,.46,10.52C170.64,174,170.43,177.55,170.08,181.11Z"/><path class="cls-1" d="M50.14,250.52c2-1.11,3.49-4.05,3.49-6.66v0c0-2.61-1.45-3.93-3.47-2.82s-3.48,4.05-3.48,6.66v0c0,2.61,1.45,3.93,3.46,2.83Zm14.45-13.65v1.45l22-12.06v-1.45l-22,12.06ZM53.4,230.7V207.1l-1,.57v23.59l1-.56ZM54.52,248l1.44-.79v-2.94l1.13-.62,1.4,2.18,1.68-.93-1.59-2.4a5.24,5.24,0,0,0,1.4-3.61v0a2.33,2.33,0,0,0-.56-1.79c-.43-.37-1.08-.35-1.91.11l-3,1.64V248ZM56,242.45v-2.64l1.43-.78c.7-.38,1.13-.17,1.13.69v0a2.16,2.16,0,0,1-1.1,1.9l-1.46.8Zm-5.8,6.19c-1.16.64-2-.22-2-1.8v0a4.72,4.72,0,0,1,2-3.94c1.16-.63,2,.23,2,1.8v0a4.66,4.66,0,0,1-2,3.93Z"/><path class="cls-7" d="M496.86,186.71a1,1,0,0,1,1-1.69L860.63,396.25c4.65,2.71,9,4,12.83,4a14.84,14.84,0,0,0,7.65-2,15.74,15.74,0,0,0,5.53-5.74c2.12-3.65,3.32-8.48,3.32-14.22V247.92a1,1,0,1,1,2,0V378.24c0,6.09-1.29,11.25-3.59,15.21a17.61,17.61,0,0,1-6.23,6.44,16.76,16.76,0,0,1-8.64,2.28c-4.17,0-8.84-1.34-13.81-4.23L496.86,186.71Z"/><path class="cls-6" d="M775,176.33a1,1,0,1,1,2,0v79.89c0,7.36-1.2,13.19-3.54,17.18a12.65,12.65,0,0,1-4.31,4.56,11.26,11.26,0,0,1-6,1.59c-3.36,0-7.29-1.24-11.75-3.86L496.67,126.18a22.82,22.82,0,0,0-11.17-3.31,12.66,12.66,0,0,0-5.8,1.29,10.65,10.65,0,0,0-4.38,4.22c-1.49,2.55-2.38,6.08-2.38,10.8v6.24a1,1,0,1,1-2,0v-6.24c0-5.08,1-9,2.65-11.78a12.65,12.65,0,0,1,5.18-5,14.62,14.62,0,0,1,6.69-1.51,24.71,24.71,0,0,1,12.16,3.59L752.36,274c4.14,2.43,7.74,3.58,10.76,3.58a9.28,9.28,0,0,0,4.94-1.31,10.81,10.81,0,0,0,3.64-3.87c2.15-3.68,3.26-9.18,3.26-16.19V176.33Z"/><path class="cls-36" d="M853.58,69.33,859.32,66c2.5-1.68,6.28-1.56,10.47.75l53.78,29.71c7.4,4.09,13.31,13.51,13.31,20.94l.06,161.76c0,3.75-1.68,6.31-4,7.58l-6,3.48h0c-2.51,1.6-6.26,1.44-10.37-.84l-53.78-29.71c-7.39-4.08-13.31-13.5-13.31-20.94l-.06-161.9A8.57,8.57,0,0,1,851.28,71a7.61,7.61,0,0,1,2.3-1.68Z"/><path class="cls-3" d="M852.79,67.92l5.68-3.29a9,9,0,0,1,5.74-1.39,16,16,0,0,1,6.48,2.07l54,29.71a29,29,0,0,1,10,9.72,24.47,24.47,0,0,1,4.18,12.65L939,279.15a11.21,11.21,0,0,1-1.23,5.3,9,9,0,0,1-3.65,3.71h0l-6,3.44-.56.32-.21.12h0a9.47,9.47,0,0,1-4.93.83,16,16,0,0,1-6.37-2.06l-54-29.71a29,29,0,0,1-10-9.72,24.53,24.53,0,0,1-4.18-12.65l-.06-161.9a11.69,11.69,0,0,1,.56-3.78,8.68,8.68,0,0,1,1.75-3.11,7.69,7.69,0,0,1,2.3-1.77l.42-.24Zm7.4-.51-5.76,3.33L854,71a4.73,4.73,0,0,0-1.46,1.09,5.31,5.31,0,0,0-1.09,2,8.72,8.72,0,0,0-.41,2.77l.06,161.9a21.27,21.27,0,0,0,3.69,10.9,25.59,25.59,0,0,0,8.84,8.61l54,29.71a12.7,12.7,0,0,0,5.05,1.66,5.89,5.89,0,0,0,3.69-.77l.73-.46,0,0,5.33-3.07,0,0a5.79,5.79,0,0,0,2.33-2.37,8,8,0,0,0,.85-3.78l-.06-161.76a21.25,21.25,0,0,0-3.68-10.9,25.71,25.71,0,0,0-8.85-8.61l-54-29.71A12.72,12.72,0,0,0,864,66.5a5.77,5.77,0,0,0-3.69.85l-.1.06Z"/><path class="cls-36" d="M856.35,234.59,856.24,77.5l-1.69-2.89,1.66-1.29L852.51,70l6.88-4c2.5-1.68,6.28-1.56,10.48.75l53.77,29.71C931,100.54,937,110,937,117.39L937,279.15c0,3.75-1.69,6.31-4,7.58l-6,3.48-3.29-1.6-2.77-4.77-51.25-28.31c-7.39-4.09-13.31-13.51-13.31-20.94Z"/><path class="cls-3" d="M856,234.59l-.1-157-1.66-2.81-.14-.25.22-.17,1.36-1.06-3.43-3.06-.33-.3.39-.23,6.89-4a7.68,7.68,0,0,1,4.93-1.17,14.65,14.65,0,0,1,5.93,1.91l54,29.7a27.78,27.78,0,0,1,9.55,9.29,23.1,23.1,0,0,1,4,11.94l.07,161.76a10,10,0,0,1-1.08,4.7,7.81,7.81,0,0,1-3.12,3.17h0l-6,3.48-.15.08-.15-.07-3.31-1.61-.14-.13L921,284.08l-51.39-28.26a27.69,27.69,0,0,1-9.56-9.28,23.34,23.34,0,0,1-4-11.95Zm.55-157.09.11,157.09a22.55,22.55,0,0,0,3.88,11.6,26.85,26.85,0,0,0,9.32,9.05l51.46,28.31.13.13,2.73,4.68,3.07,1.48,5.9-3.39h0a7,7,0,0,0,2.86-2.91,9.3,9.3,0,0,0,1-4.39L937,117.39a22.52,22.52,0,0,0-3.88-11.59,26.8,26.8,0,0,0-9.32-9.06L869.79,67a14.05,14.05,0,0,0-5.67-1.83,7.11,7.11,0,0,0-4.52,1.06l0,0-6.52,3.77,3.39,3,.28.26-.31.24L855,74.69l1.55,2.65.05.16Z"/><path class="cls-2" d="M849.52,238.72l-.07-161.9a8.7,8.7,0,0,1,1.73-5.61C853.53,68.34,858,68,863,70.74l53.77,29.71c7.4,4.08,13.31,13.5,13.31,20.94l.07,161.9c0,7.43-6.19,10.17-13.58,6.08l-53.78-29.71c-7.39-4.08-13.31-13.5-13.31-20.94Z"/><path class="cls-3" d="M849.19,238.72l-.06-161.9a11.17,11.17,0,0,1,.45-3.24A7.51,7.51,0,0,1,850.94,71a6.91,6.91,0,0,1,5.28-2.48,13.64,13.64,0,0,1,7,1.92l54,29.71a27.57,27.57,0,0,1,9.55,9.28,23.22,23.22,0,0,1,4,12l.06,161.9a9.75,9.75,0,0,1-1.1,4.77,6.65,6.65,0,0,1-2.6,2.63,7.77,7.77,0,0,1-3.76.9,14.07,14.07,0,0,1-6.65-1.93l-54-29.71a27.57,27.57,0,0,1-9.55-9.28,23.22,23.22,0,0,1-4-11.95Zm.59-161.9.07,161.9a22.63,22.63,0,0,0,3.87,11.6,27.06,27.06,0,0,0,9.32,9.06l54,29.7a13.24,13.24,0,0,0,6.33,1.86,7.06,7.06,0,0,0,3.44-.82,6,6,0,0,0,2.34-2.37,9,9,0,0,0,1-4.46l0-161.9a22.74,22.74,0,0,0-3.88-11.6,27,27,0,0,0-9.32-9.06L862.92,71a13.16,13.16,0,0,0-6.67-1.85,6.36,6.36,0,0,0-4.81,2.25,6.91,6.91,0,0,0-1.23,2.35,10.26,10.26,0,0,0-.43,3Z"/><path class="cls-7" d="M877.77,125.57v23.29a7.39,7.39,0,0,0,1.27,4c1.11,1.62,1.83,1.62,3.22,2.54,0,.32,0,6.53,0,7,0,1.68-.16,2.75,1.21,4.38,1,1.17,2.23,1.63,3,1,.54-.38.45-1.48.45-2.69,0-.47,0-6.76,0-7l4,2.3c.08.37.11,6.31.11,7.17a5.56,5.56,0,0,0,1.47,4.28c.32.37.33.56.74.8a1.54,1.54,0,0,0,1.87.05c.58-.54.69-.77.69-2.15,0-2.36.06-4.7.06-7.06,1.38.61,2.51,1.52,3.63,1.12.68-.24,1.27-1,1.27-2.59V138.61L877.77,125.4v.17Z"/><path class="cls-7" d="M873.28,123.06a1.39,1.39,0,0,0-1.64.2c-.48.54-.36,1.44-.36,2.62v13.17a4.41,4.41,0,0,0,.16,1.52c.68,2.23,3.09,4,4.19,2.81.47-.49.37-1.46.37-2.61V127.6a4.61,4.61,0,0,0-.16-1.52,5,5,0,0,0-.58-1.23,4.66,4.66,0,0,0-2-1.79Z"/><path class="cls-7" d="M905.33,141.35c-.73-.31-1.57-.46-1.89-.1-.48.54-.38,1.52-.38,2.69v13.18c0,1-.27,1.59.39,2.62,1.13,1.75,2.93,2.47,3.62,1.61a3,3,0,0,0,.74-2.33V145.81a5,5,0,0,0-1.1-3,4.57,4.57,0,0,0-2-1.79Z"/><path class="cls-7" d="M899.07,128.41a22.63,22.63,0,0,0-1.75-3.4,20,20,0,0,0-1.65-2.3c-.16-.21-.45-.51-.59-.72a5.29,5.29,0,0,1,.54-.79c.16-.23,1.34-1.82,1.38-2a.91.91,0,0,0-.24-.74c-.22-.23-.38-.17-.47-.06l-2,2.76c-.16-.1-.9-.83-1.12-1a22.81,22.81,0,0,0-3.89-2.79,17,17,0,0,0-3.86-1.66,9,9,0,0,1-1.15-.24l-1.94-4.93c-.32-.79-.77-.64-.74-.15,0,.24.69,1.87.81,2.17L883,114c.1.27.51,1.29.56,1.49a3.79,3.79,0,0,0-1.17.09,4.67,4.67,0,0,0-2.81,1.77,10.53,10.53,0,0,0-1.82,6l23.15,13.22A24,24,0,0,0,899.07,128.41Zm-14.41-5.6c-1.63-.4-2.3-4.09-.58-3.65a2.69,2.69,0,0,1,1.53,2.13C885.81,122.46,885.25,123,884.66,122.81Zm8.34,3.5a1.69,1.69,0,0,1,.2-1.27.67.67,0,0,1,.77-.23c.79.18,1.41,1.29,1.55,2.16C895.89,129.37,893.42,128.73,893,126.31Z"/><polygon class="cls-3" points="858.38 242.77 861.7 242.29 865.02 241.82 865.02 246.38 865.02 250.95 861.7 246.86 858.38 242.77"/><path class="cls-3" d="M890,255.63h0a7,7,0,0,1,3.25,5.62h0c0,2.13-1.46,3.08-3.25,2.11h0a7,7,0,0,1-3.24-5.63h0c0-2.13,1.46-3.08,3.24-2.1Z"/><polygon class="cls-3" points="913.93 268.9 919.84 272.11 919.84 279.14 913.93 275.93 913.93 268.9"/><path class="cls-39" d="M526,431.94V416.12a18.44,18.44,0,0,0,0-2.15c-.11-.3-.68-.33-.94-.38s-.68-.13-1-.2l-.5-.1a2.39,2.39,0,0,1-.51-.12l-.18.1c-.24.41-.18.41-.18,1.18,0,1.58.06,9.16-.06,9.56-.26.24-.82,0-1-.05-.53-.14-.56-.16-1.11.63l-4,5.68a2.1,2.1,0,0,0-.55,1.76v6.8c0,.82.32.71.7.8l3,.69c.32.07.67.14,1,.23.5.13.74-.42,1.13-1,1.33-1.89,2.64-3.81,4-5.69C526.08,433.25,526,432.82,526,431.94Zm-3.39.43c0,.38-.12.44-.33.73S521,435,520.9,435a6.69,6.69,0,0,1-1.35-.27c-.22,0-.34.07-.34-.34v-2.27c0-.37.13-.45.34-.75s1.25-1.82,1.35-1.88a4,4,0,0,1,.92.17c.46.12.76,0,.76.44Z"/><path class="cls-40" d="M507.25,432c-.25.25-3.83,5.42-4.31,6.11a2.23,2.23,0,0,0-.61,1.41c0,.8,0,7.45,0,7.67s1.2.48,1.62.59l3,.69c.54.14.63-.22,1.43-1.36l3.42-4.89a2.18,2.18,0,0,0,.62-1.44c0-.81,0-7.47-.05-7.69s-.51-.29-.77-.35l-2.57-.6-.86-.2c-.24-.05-.63-.26-.95.06Z"/><path class="cls-39" d="M488.79,447.34V457.7c.29.33.34.09,1-.78l1.84-2.63a2,2,0,0,0,.58-1.65c0-1.39,0-2.82,0-4.22a2.4,2.4,0,0,1,.67-1.52,9.38,9.38,0,0,1,1-1.3c.25-.16.78,0,1,.08.94.24.74.05.74,2.66,0,.71,0,1.42,0,2.14,0,.95,0,1,.49,1.09l2.34.53c.2,0,.41,0,.51-.39,0-.11.08-10,0-10.4s-.53-.42-.81-.48l-3.7-.85c-.48-.13-.56-.09-1,.59l-2.8,4-.92,1.32-.47.67a2.16,2.16,0,0,0-.36.77Z"/><path class="cls-39" d="M534.24,415.91c-.21.22-.91,1.27-1.17,1.62l-1.15,1.65c-.38.54-.76,1.07-1.13,1.62s-.78,1.08-1.16,1.65a1.68,1.68,0,0,0-.3,1V430c0,1.3-.06,1.24.61,1.39l4,.89c.23.06.39.07.67-.3.78-1.06,1.52-2.17,2.31-3.25.18-.24.5-.6.51-.9s-.25-.35-.46-.39c-.38-.08-.77-.16-1.15-.26s-.75-.17-1.14-.26l-1.16-.26-.56-.13c-.3-.07-.34,0-.33-.62v-1.31c0-1.26,0-.85,1.29-2.8.47-.68.46-.55,1.22-.37l.58.13c.32.09.28.07.28.73s-.15,2.35.5,1.38,1.52-2.17,2.28-3.28c.66-1,.61-.8.61-2.12a8.28,8.28,0,0,0,0-1.25c-.09-.3-.27-.27-.48-.33l-4-.95a.55.55,0,0,0-.66.15Z"/><path class="cls-40" d="M545.82,414.06c-.09.33,0,5.36,0,6.14a5,5,0,0,1-.09,1.46,1,1,0,0,1-.78.73,6.89,6.89,0,0,1-1.37-.3c0-.11,0-6.06,0-6.75s-.06-.46.52-1.27l.74-1.07c.83-1.16,2.21-3.21,3-4.25.21-.3.4-.17.79-.06s3.68.8,3.72.9c.06.28.05,6.59,0,7.24,0,.12-2.82,4.06-3.12,4.5s-.52.73-.77,1.1c-.53.76-.33.74-1.19.52-.66-.18-.3-.3-1.29.83.07.24.75.31,1,.36,1.15.27,1,.3,2.21-1.42l3-4.35c1.08-1.56,1-1.3,1-3.8V410c0-1.83-.09-1.56-1.34-1.86l-3-.7a.92.92,0,0,0-1.2.41l-4,5.78a2.83,2.83,0,0,0-.7,1.68c0,.72,0,1.55,0,2.28,0,1.53,0,3.07,0,4.61,0,.85.17,1.05.56,1.13s.68.17,1,.21c.87.11,1.87-.58,2.15-2,.15-.73.08-5.51.08-6.83s.1-1.21-.41-.91c-.16.1-.25.11-.34.29Z"/><path class="cls-40" d="M547,417.47c-.15,1,.31,1.45.66,1.53a2.65,2.65,0,0,0,1.78-.6,4.25,4.25,0,0,0,1.54-1.71,2.93,2.93,0,0,0,.21-2.36c-.69-1.17-3.51,1.66-3.2-.15a2.39,2.39,0,0,1,2-1.56c.31.12.22.39.39.7a1.57,1.57,0,0,0,.53-.27c.26-.17.24-.28.2-.59-.21-1.43-1.13-1.19-2.13-.59-2.24,1.36-2.18,3.84-1.48,4.17s2.1-.79,2.75-.7c.28,0,.27.61.05,1.06-.34.68-2.29,2.19-2.53,1-.06-.3,0-.44-.27-.29a2.65,2.65,0,0,0-.55.37Z"/><path class="cls-40" d="M533.42,423.79v1.41c0,.3,0,.23.42.31a2.18,2.18,0,0,0,.53.09,5.47,5.47,0,0,0,.54-.71c.47-.68.49-.39.45-2v-.24a5.15,5.15,0,0,0-1-.19c-.09.05-.86,1.18-1,1.35Z"/><path class="cls-41" d="M467.56,599.83l5.35-1.56L467,594.73l-5.39,1.6,6,3.5Zm4.22-10.23,4.84-1.42a26.35,26.35,0,0,0,2.45-2.85c-.23,0-4.36,1.42-4.58,1.53a22.57,22.57,0,0,0-2.71,2.74Zm-10,5.84a7.45,7.45,0,0,0,1.24-.33l3.6-1.1a25.55,25.55,0,0,0,2.46-2.85c-.24,0-4.37,1.43-4.58,1.54a22.67,22.67,0,0,0-2.72,2.74Zm3.52,8c.8-.32,4.25-1.17,4.81-1.45l2.53-2.91c-.65.2-4.52,1.34-4.8,1.52a30,30,0,0,0-2.54,2.84Zm-10.06,5.86.07,0a.1.1,0,0,0,.08,0c.69-.14,4.61-1.35,4.69-1.4a12.27,12.27,0,0,0,1.26-1.41l1.14-1.34c.08-.14,0-.06.06-.14l-4.74,1.49a28.79,28.79,0,0,0-2.56,2.82Zm13.44,2c.46-.08,4.5-1.25,4.83-1.42A26.64,26.64,0,0,0,476,607c-.36,0-4.41,1.28-4.75,1.46a28.94,28.94,0,0,0-2.55,2.82Zm8.65-17.38,5.34-1.57-5.78-3.44-5.39,1.6,5.83,3.41Zm-9.5.27,5.85,3.43,2.69-3.14L470.63,591l-2.76,3.14ZM471,607.69l5.41-1.57-5.84-3.43-5.36,1.59,5.79,3.41Zm6.88-19.34,5.85,3.43,2.69-3.15-5.78-3.43-2.76,3.15Zm-17,25.27,5.4-1.58-5.84-3.43-5.35,1.59,5.79,3.42Zm13.93-3.6,5.86,3.45a37,37,0,0,0,2.61-3.19l-5.7-3.4L474.79,610Zm4.91,4-5.85-3.46-5.37,1.62c1.43.71,4.76,2.92,5.64,3.3.37.16.52,0,1.39-.25L479.7,614Zm-12.52-2.53,2.59-3c.08-.14.09-.07,0-.21l-5.67-3.34c-.74.74-1.74,2-2.52,2.86-.22.23-.31.22-.07.4l5.67,3.32Zm10.15-5.94,2.65-3.14L474.21,599c-.52.56-1,1.11-1.48,1.66l-1.09,1.24c-.21.24-.28.2,0,.4.79.53,1.94,1.11,2.81,1.62s2,1.25,2.86,1.64Z"/><path class="cls-39" d="M497.58,599.05c.08.05.12.11.11.17a.51.51,0,0,1-.19.24c-.11.08-.29.2-.55.36a5.74,5.74,0,0,1-.64.33,1,1,0,0,1-.37.1.57.57,0,0,1-.29-.08l-.65-.39a2,2,0,0,1-.31,1.18,3.21,3.21,0,0,1-1.14,1,6.23,6.23,0,0,1-1.37.61,6,6,0,0,1-1.45.25,5.56,5.56,0,0,1-1.47-.13,4.86,4.86,0,0,1-1.39-.55,2.5,2.5,0,0,1-1-.91,1.19,1.19,0,0,1-.05-1,3.13,3.13,0,0,1,.87-1.11,10.68,10.68,0,0,1,1.75-1.22l.8-.47-.5-.3a3.94,3.94,0,0,0-.76-.35,2.21,2.21,0,0,0-.75-.14,2.35,2.35,0,0,0-.77.11,4.2,4.2,0,0,0-.82.38,4.57,4.57,0,0,0-.91.68,4.17,4.17,0,0,0-.51.64,5.42,5.42,0,0,0-.3.51.67.67,0,0,1-.25.31.61.61,0,0,1-.24.06.89.89,0,0,1-.32,0,2.87,2.87,0,0,1-.38-.13l-.41-.21a2.07,2.07,0,0,1-.41-.3.43.43,0,0,1-.13-.28A1,1,0,0,1,483,598a3.08,3.08,0,0,1,.45-.62,5.21,5.21,0,0,1,.71-.69,8.24,8.24,0,0,1,1-.67,10.3,10.3,0,0,1,1.84-.86,6.31,6.31,0,0,1,1.72-.31,5,5,0,0,1,1.66.22,7.63,7.63,0,0,1,1.68.74l5.59,3.28Zm-5.85-.75-.88.51a5.74,5.74,0,0,0-.87.61,1.27,1.27,0,0,0-.4.53.49.49,0,0,0,.05.44,1.07,1.07,0,0,0,.42.39,2.08,2.08,0,0,0,1.15.29,2.43,2.43,0,0,0,1.2-.36,1.39,1.39,0,0,0,.65-.67,1.81,1.81,0,0,0,.09-.92l-1.41-.82ZM504,585.52a1.38,1.38,0,0,1,.23.16l.33.31,5.32,5.69a.62.62,0,0,1,.14.22.3.3,0,0,1-.07.22,2.15,2.15,0,0,1-.36.3l-.72.44c-.3.18-.55.32-.76.42a4.7,4.7,0,0,1-.53.22,1.08,1.08,0,0,1-.39,0,1.17,1.17,0,0,1-.35-.08l-6.44-2.14-.1,0,.07.06,3.77,3.7a.65.65,0,0,1,.16.21.31.31,0,0,1-.09.23,2,2,0,0,1-.38.31c-.17.12-.41.27-.71.44s-.56.32-.77.42a3.13,3.13,0,0,1-.52.21.93.93,0,0,1-.39,0,1.11,1.11,0,0,1-.35-.08l-9.7-3.12-.53-.19-.28-.14a.18.18,0,0,1-.11-.12.19.19,0,0,1,.07-.17,1.7,1.7,0,0,1,.3-.25,6.32,6.32,0,0,1,.55-.34,6,6,0,0,1,.62-.34,2.29,2.29,0,0,1,.42-.18.88.88,0,0,1,.31,0,1.45,1.45,0,0,1,.26.07l7.74,2.61.14.06-.1-.08-4.57-4.47a.41.41,0,0,1-.1-.16.18.18,0,0,1,.05-.18,1.38,1.38,0,0,1,.27-.24l.54-.34.58-.31a2.58,2.58,0,0,1,.4-.15.78.78,0,0,1,.28,0,1,1,0,0,1,.25,0l7.79,2.64.13,0-.09-.08-4.54-4.49a.45.45,0,0,1-.12-.16.21.21,0,0,1,.06-.17,1.62,1.62,0,0,1,.29-.25q.19-.13.54-.33a4.49,4.49,0,0,1,.58-.32,3,3,0,0,1,.4-.17.72.72,0,0,1,.28,0,.4.4,0,0,1,.2.07Zm13.14-.69a2.52,2.52,0,0,1,1,.88,1.26,1.26,0,0,1,.16,1,2.27,2.27,0,0,1-.59,1,5.49,5.49,0,0,1-1.24.93,7,7,0,0,1-.95.48,7.51,7.51,0,0,1-.93.33,6.42,6.42,0,0,1-.78.2,3.22,3.22,0,0,1-.53.07,1.43,1.43,0,0,1-.46-.09,4,4,0,0,1-.68-.33l-.4-.26a1,1,0,0,1-.21-.19.14.14,0,0,1,0-.13.37.37,0,0,1,.11-.1,1.17,1.17,0,0,1,.41-.11c.21,0,.47-.07.76-.13s.6-.14.95-.25a4.46,4.46,0,0,0,1-.45,2.4,2.4,0,0,0,.5-.36,1.12,1.12,0,0,0,.24-.36.45.45,0,0,0,0-.34,1,1,0,0,0-.34-.31,1.34,1.34,0,0,0-.65-.18,3.78,3.78,0,0,0-.8.06c-.29.06-.6.12-.92.21s-.66.18-1,.26-.71.16-1.09.21a6.12,6.12,0,0,1-1.14.08,4.68,4.68,0,0,1-1.16-.15,4.55,4.55,0,0,1-1.18-.49,2.44,2.44,0,0,1-.86-.78,1.27,1.27,0,0,1-.19-.88,2.07,2.07,0,0,1,.51-1,5,5,0,0,1,1.21-.93,7.68,7.68,0,0,1,.81-.41c.28-.12.55-.22.8-.31a6.35,6.35,0,0,1,.68-.18l.46-.08h.26a.75.75,0,0,1,.23.07l.27.12.37.2.4.25a1.39,1.39,0,0,1,.2.17c0,.05.06.09,0,.13a.22.22,0,0,1-.1.09.92.92,0,0,1-.35.1l-.65.14a6.47,6.47,0,0,0-.82.23,4.42,4.42,0,0,0-.89.41,2.3,2.3,0,0,0-.48.35.88.88,0,0,0-.2.34.43.43,0,0,0,.07.29.66.66,0,0,0,.27.25,1.41,1.41,0,0,0,.66.18,3.29,3.29,0,0,0,.8-.07c.29,0,.61-.13.94-.21l1-.27c.35-.09.72-.16,1.1-.22a5.47,5.47,0,0,1,1.15-.09,5.2,5.2,0,0,1,1.17.14,4.6,4.6,0,0,1,1.16.48Z"/><path class="cls-42" d="M337.13,524.83a13.83,13.83,0,0,0-3.7-1.9c-.42-.15-.39-.15-.78,0-2,.78-6.08,2.76-5.65,4.3.19.67,1.11,1.31,2.08,1.8a17,17,0,0,0,3.08,1.05l.95-.86c-.95-.37-4.71-1.29-3.87-2.47a4.6,4.6,0,0,1,1.33-1.06l4.64,2.84C337.33,527.33,338.81,526.21,337.13,524.83Zm-2.32,2.11L331.66,525a9.07,9.07,0,0,1,1.65-.82,10.1,10.1,0,0,1,2.32,1.31C336.11,526,335.66,526.49,334.81,526.94Z"/><path class="cls-42" d="M296,511.93l4.71,0c0-.46,0-.94,0-1.4a4.42,4.42,0,0,0,0-1.46l-4.7,2.84Z"/><path class="cls-42" d="M313.73,507.8l2.37,1.49a20.24,20.24,0,0,0,4.88-.69l-2.59-1.6a24.74,24.74,0,0,1-4.66.8Z"/><path class="cls-42" d="M303.45,507.34c1.12.37,8.6,2.25,7.67,3.39-.25.31-7.61,4.66-8.64,5.28l2.24,1.4c1.34-.79,8.5-5,9.13-5.61,2.27-2.07-2.3-3.84-5.22-4.72l5-3-2.33-1.4c-.85.29-6.65,4-7.83,4.7Z"/><path class="cls-42" d="M325.63,508c-.38-.5-7.94-5-9.2-5.78a54.08,54.08,0,0,0-4.72-2.81c-2.22-.78-3.47.25-4.8,1.06l-14.37,8.69c-1.22.74-3.14,1.57-2.07,2.9.38.47,8,5,9.2,5.76.91.55,3.91,2.53,4.72,2.82,2.19.78,3.62-.37,4.76-1.06l14.36-8.69C324.77,510.16,326.64,509.35,325.63,508Zm-1.07,1.36a19.86,19.86,0,0,1-2.08,1.31l-13.35,8.08c-1.41.85-2.75,2-4.39,1.28-1.06-.46-3.36-2-4.43-2.68l-8.67-5.33c-1.23-1,.58-1.82,2-2.68L307,501.29c1.44-.87,2.71-2,4.42-1.24l10.93,6.68C323.57,507.49,325.6,508.31,324.56,509.39Z"/><path class="cls-42" d="M339.5,527.55l-6.3,3.82,1.54.94,5.57-3.37c.9.19,2,.86,2.41.94a4.4,4.4,0,0,0,1.29-.75,16.17,16.17,0,0,0-4.51-1.58Z"/><path class="cls-42" d="M349.77,533.31c-.12-.77-1.1-1.61-2.31-2.16-2.44-1.08-4.87-.48-7.07,1.09s-1.87,3,.88,4.25c2.35,1.12,4.88.51,7.06-1C349.39,534.7,349.89,534,349.77,533.31Zm-3,1.26c-1.28.87-2.77,1.6-4.26,1-.73-.27-1.43-.79-1.5-1.24-.15-.87,2.05-2.06,3.12-2.37a3.17,3.17,0,0,1,2.15,0c.68.25,1.44.79,1.48,1.22S347.4,534.14,346.78,534.57Z"/><path class="cls-42" d="M359.29,546.24l6.29-3.79-1.52-1-5.54,3.35a8.12,8.12,0,0,1-2.32-.81c-1.3-.66-.94-.76.13-1.42,1.59-1,3.26-1.92,4.81-2.91l-1.52-.92c-1.22.71-2.42,1.46-3.62,2.19-2.33,1.4-4.71,2.4-.32,4.23a21,21,0,0,0,3.61,1Z"/><path class="cls-42" d="M345.42,538.86l1.51.92,3.34-2,.84.52c-.12.18-.07.17-.1.38l-.38,1.19c-.27.56-.85,1.35-.94,1.57l1.75,1.1a8.73,8.73,0,0,0,1-2,13.66,13.66,0,0,0,.62-2,34.76,34.76,0,0,0,5.28-.62L356.64,537a17.1,17.1,0,0,1-2.63.48,13.49,13.49,0,0,1-1.35.12c-.81,0-.58,0-1.31-.4l5.88-3.58-1.53-.92-10.28,6.2Z"/><path class="cls-42" d="M318.46,522.34l1.53.94,5.58-3.38a10.16,10.16,0,0,1,2.3.82c1.26.64.72.82-.26,1.42-1.56.94-3.28,1.91-4.76,2.89l1.51.92c1-.57,5.51-3.24,6-3.7,1.78-1.76-2.59-2.77-3.43-3.16l3.37-2-1.54-.93-10.27,6.21Z"/><path class="cls-39" d="M584.8,537.12a14.08,14.08,0,0,0-2.23-.1,15.56,15.56,0,0,0-7.81,2.58,7,7,0,0,0,.1,1.4,15.05,15.05,0,0,1,6-2.78l.95-.1c.61,1.25.22,2.48,2.2,5a8.87,8.87,0,0,0,2.87,2.38,20.84,20.84,0,0,0,4.07,1.45,1.52,1.52,0,0,1-.54,1c-2-1.12-7-2.52-8.49-.37-1.06,1.57,1,4,3.62,5.32a10.84,10.84,0,0,0,7.23-6.73c1-3.86-1.47-8.33-7.94-9.14Z"/><path class="cls-8" d="M585.64,554.31c-3.49-2.09-5.7-3.93-7.5-6.72a12.07,12.07,0,0,1-1.44-3,13.72,13.72,0,0,1-.4-1.56c-.12-.68-.35-.88.71-1.6.24.71,0,1.42.9,2.49,1.78,2.18,4.35.22,3.72-2.6a6.37,6.37,0,0,0-1.21-2.54c-5.29,1.86-7.31,4.25-8.16,7.82a3,3,0,0,0,0,1.18c.2,2.58,1.67,5.29,5.71,6.57a13.7,13.7,0,0,0,7.72,0Z"/><path class="cls-39" d="M626.26,515.43a2.8,2.8,0,0,0-2.63,2.14l-.49-.47c-2.45,1.53-2.27.61,1.06,4.08a37.74,37.74,0,0,0,3,3.07l2-1.26-1.43-1.47C633.33,519.46,629.75,515,626.26,515.43Zm.58,5c-2-1.15-2.3-3.52-.42-3.18a2.61,2.61,0,0,1,1.74,1.63C628.33,519.53,628,520,626.84,520.39Z"/><path class="cls-39" d="M607.25,533c-.73-.75-2.11-2.38-3-2.74-3.07-1.23-8,3.54-3.09,6,2.47,1.22,4.85-.7,4.47-1.65l.5.45c2-1.24,2.07-1.09,1.6-1.59C607.54,533.32,607.4,533.19,607.25,533Zm-4.09,1.81a2.49,2.49,0,0,1-1.68-1.5c-.21-.56-.22-1.24.95-1.55C604.78,532.57,604.92,535.13,603.16,534.84Z"/><path class="cls-39" d="M634.34,511.37c-1.92-.63-4.37,1.11-4.83,2.42-.84,2.38,2.33,4.77,4.83,3.8,1.2-.47,1.64-1.27,1.56-1.83l.5.45,2-1.22C637.48,514.18,635.54,511.75,634.34,511.37Zm-.46,4.65a2.31,2.31,0,0,1-2-1.42c-.26-.63-.33-1.29.89-1.67C633.62,513.21,635.88,515,633.88,516Z"/><path class="cls-39" d="M616,524.16a6.43,6.43,0,0,1,0-.87c0-.3.1-1.42-.13-1.66l-2.12,1.31a10,10,0,0,1,0,1.44l.11,1.46c-.72-.06-2.54-2.48-3.5-3.28l-2,1.25L614.3,530c2.22-1.36,2.19-1.12,1.56-1.75l-1.68-1.76c1.12.1,3.91,1,4.41.86l2-1.26L616,525C615.92,524.61,616,524.53,616,524.16Z"/><path class="cls-39" d="M649.66,507.36a12.54,12.54,0,0,0-1-1c-.38.29-2,3-4,2a8.12,8.12,0,0,0,2.63-2.2c1-1.65-1.88-3.14-4.64-1.27-3.34,2.24-.54,5.7,2.88,5.29C647.28,510,650,507.92,649.66,507.36Zm-6.3-1c.55-1.35,3.5-1,.14,1A.89.89,0,0,1,643.36,506.36Z"/><path class="cls-39" d="M622.28,521.22c-1,0-2.72.76-2.92.15,0-.32.29-.53.85-.81s.88-.32,1.33-.51a2.86,2.86,0,0,0-1-1.08c-3.74,1.27-4.56,3.49-2.39,4.23,1.35.46,2.83-.38,3.62-.19s.14.77-.48,1.06a12.32,12.32,0,0,1-1.89.63,3,3,0,0,0,1,1.12c2.18-.68,4.47-2,4.1-3.37A2.26,2.26,0,0,0,622.28,521.22Z"/><path class="cls-39" d="M642.73,510.15a4.29,4.29,0,0,1-1.79,1.48c-1.92.65-4.57-1.88-.36-3.37a5.56,5.56,0,0,0-1.17-1.15c-3.67,1.48-4.67,4-2.38,5.65s5.29.36,6.6-1.1C644,511.21,643.55,510.88,642.73,510.15Z"/><path class="cls-39" d="M612.43,529a4.39,4.39,0,0,1-1.78,1.48c-1.94.68-4.57-2-.37-3.37L609.17,526c-1.81.72-3,1.58-3.46,2.73-.91,2.21,2.1,4.8,5.58,3.26a7.17,7.17,0,0,0,2-1.42C613.72,530.06,613.21,529.71,612.43,529Z"/><path class="cls-39" d="M598.64,534.45l-1.3-1.4c-1.49.84-1.3,1.25-1.43,2l-.63-.56-1.75,1.08c.77,1.12,3.77,3.59,4.07,4.37l.4.27,2-1.26C598.07,537.09,596.45,535.93,598.64,534.45Z"/><path class="cls-2" d="M579.33,541.14a1.34,1.34,0,0,0,.43,2.63c1.2-.19,1.4-2.37-.43-2.63Z"/><path class="cls-2" d="M579.33,541.14a1.34,1.34,0,0,0,.43,2.63c1.2-.19,1.4-2.37-.43-2.63Z"/><path class="cls-39" d="M447.13,454.76a21,21,0,0,1,2.13,1.3c2,1.24,4.07,2.92,4.52.57a8.58,8.58,0,0,0-.58-4.86c-.8-1.46-2.36-2.22-3.59-3v-1.12c.8.5,3.24,1.89,3.84,2.44V447c-2.73-1.76-6-4.68-6.4-1.2a6.56,6.56,0,0,0,1.17,4.73c1.27,1.77,2.55,1.94,3.47,3.2.16,1.42-.86.56-1.83-.05l-2.72-1.71v2.84Z"/><path class="cls-39" d="M432.87,438.37c0-.65-.08-2-.05-2.43a6.06,6.06,0,0,0-2.74-3.69c-1.26-.88-2.72-1.87-3.48-1.31s-.61,2.69-.61,4.48v5.78c0,.2,0,.09.11.23l2.2,1.38v-2l2.23,1.38v2l2.33,1.46Zm-2.37.45-1.39-.88-.77-.49v-3.29l2.16,1.36v3.3Z"/><path class="cls-39" d="M421.87,435c1.4.54,2.16-.65,2.09-3a6.67,6.67,0,0,0-2.65-5.26,35.41,35.41,0,0,0-4.48-2.89v12l2.24,1.39v-3.05c.31.38,1.47,2.82,1.74,3.35s.2.59.7.9l3,1.9C424.39,439.87,422.3,435.94,421.87,435Zm-2.68-4.3v-2.09l1.93,1.23v2.08A10.36,10.36,0,0,1,419.19,430.71Z"/><path class="cls-39" d="M437.55,437a9,9,0,0,0-1.65-1.08l-.71-.45v11.48l2.39,1.54,0-11.49Z"/><polygon class="cls-39" points="444.27 452.83 444.77 453.14 445.83 453.81 445.83 450.74 442.43 448.61 442.42 440.1 440.1 438.67 440.07 450.19 444.27 452.83 444.27 452.83"/><path class="cls-36" d="M737.72,6.12l5.73-3.34c2.5-1.69,6.29-1.57,10.48.75l53.78,29.71C815.1,37.32,821,46.74,821,54.18l.06,161.76c0,3.74-1.68,6.3-4,7.58L811,227h0c-2.5,1.59-6.25,1.43-10.37-.84L746.9,196.45c-7.4-4.08-13.31-13.51-13.31-20.94l-.07-161.9a8.55,8.55,0,0,1,1.9-5.81,7.33,7.33,0,0,1,2.3-1.68Z"/><path class="cls-3" d="M736.92,4.71l5.67-3.3A9,9,0,0,1,748.33,0a15.75,15.75,0,0,1,6.46,2.07l54,29.7a29,29,0,0,1,10,9.73,24.55,24.55,0,0,1,4.17,12.65L823,215.94a11.24,11.24,0,0,1-1.23,5.3,9,9,0,0,1-3.64,3.71h0l-6,3.43-.56.32-.21.12h0a9.47,9.47,0,0,1-4.93.83,16,16,0,0,1-6.36-2.06l-53.94-29.71a28.93,28.93,0,0,1-10-9.72A24.55,24.55,0,0,1,732,175.51l-.07-161.9a12.33,12.33,0,0,1,.56-3.79,8.74,8.74,0,0,1,1.76-3.1,7.43,7.43,0,0,1,2.29-1.78l.42-.23Zm7.39-.52-5.75,3.34-.44.25a4.8,4.8,0,0,0-1.47,1.1,5.4,5.4,0,0,0-1.08,1.95,8.79,8.79,0,0,0-.41,2.78l.07,161.9a21.26,21.26,0,0,0,3.67,10.89,25.68,25.68,0,0,0,8.83,8.62l53.95,29.71a12.66,12.66,0,0,0,5,1.66,5.88,5.88,0,0,0,3.69-.77l.73-.46.05,0,5.33-3.07,0,0a5.76,5.76,0,0,0,2.32-2.37,7.88,7.88,0,0,0,.86-3.78l-.06-161.76A21.43,21.43,0,0,0,816,43.28a25.56,25.56,0,0,0-8.83-8.61L753.22,5a12.72,12.72,0,0,0-5.13-1.67,5.74,5.74,0,0,0-3.68.84l-.1.06Z"/><path class="cls-36" d="M740.49,171.37l-.11-157.08-1.69-2.89,1.66-1.29-3.7-3.33,6.87-4c2.51-1.69,6.29-1.57,10.48.75l53.78,29.71c7.39,4.08,13.31,13.5,13.31,20.94l.06,161.76c0,3.74-1.68,6.3-4,7.58l-6,3.48-3.3-1.61-2.77-4.77L753.8,192.31c-7.4-4.08-13.3-13.5-13.31-20.94Z"/><path class="cls-3" d="M740.18,171.37l-.11-157-1.65-2.82-.15-.24.23-.18,1.35-1.05L736.43,7l-.34-.29.39-.23,6.9-4a7.75,7.75,0,0,1,4.93-1.18,14.61,14.61,0,0,1,5.93,1.91l54,29.71a27.6,27.6,0,0,1,9.56,9.28,23.22,23.22,0,0,1,4,12l.06,161.76a9.91,9.91,0,0,1-1.08,4.69,7.57,7.57,0,0,1-3.12,3.17h0l-6,3.48-.15.09-.15-.08-3.31-1.6-.14-.13-2.74-4.69L753.72,192.6a27.6,27.6,0,0,1-9.56-9.28,23.31,23.31,0,0,1-4-11.95Zm.55-157.08.11,157.08a22.63,22.63,0,0,0,3.87,11.6A27.09,27.09,0,0,0,754,192l51.48,28.31.13.12,2.73,4.68,3.07,1.49,5.9-3.4h0a7.05,7.05,0,0,0,2.85-2.9,9.33,9.33,0,0,0,1-4.39l-.07-161.76a22.55,22.55,0,0,0-3.88-11.6A27,27,0,0,0,808,33.52l-54-29.7A14.09,14.09,0,0,0,748.27,2a7.13,7.13,0,0,0-4.53,1.07h0L737.2,6.84l3.38,3,.3.26-.31.24-1.44,1.12,1.55,2.64.05.17Z"/><path class="cls-2" d="M733.66,175.51l-.07-161.9A8.68,8.68,0,0,1,735.32,8c2.35-2.88,6.82-3.26,11.85-.48L801,37.23c7.39,4.09,13.3,13.51,13.31,20.94l.06,161.9c0,7.43-6.18,10.17-13.58,6.09L747,196.45c-7.4-4.08-13.31-13.51-13.31-20.94Z"/><path class="cls-3" d="M733.29,175.51l-.06-161.9a10.84,10.84,0,0,1,.45-3.24A7.72,7.72,0,0,1,735,7.79a7,7,0,0,1,5.29-2.48,13.69,13.69,0,0,1,7,1.93l53.95,29.7a27.64,27.64,0,0,1,9.54,9.28,23.16,23.16,0,0,1,4,12l.06,161.9a9.88,9.88,0,0,1-1.09,4.78,6.74,6.74,0,0,1-2.61,2.63,7.76,7.76,0,0,1-3.75.9,13.91,13.91,0,0,1-6.65-1.94l-54-29.7a27.64,27.64,0,0,1-9.54-9.28,23.25,23.25,0,0,1-4-12Zm.59-161.9.07,161.9a22.54,22.54,0,0,0,3.87,11.6,26.91,26.91,0,0,0,9.31,9l54,29.71a13.39,13.39,0,0,0,6.34,1.86,7.16,7.16,0,0,0,3.43-.83,5.89,5.89,0,0,0,2.35-2.37,9.08,9.08,0,0,0,1-4.46l-.06-161.9a22.58,22.58,0,0,0-3.88-11.59A26.77,26.77,0,0,0,801,37.52L747,7.81A13,13,0,0,0,740.34,6a6.3,6.3,0,0,0-4.8,2.24,7.06,7.06,0,0,0-1.24,2.36,10.61,10.61,0,0,0-.42,3Z"/><path class="cls-3" d="M774,187.21c3.54,1.22,6.41,5.84,6.41,10.33s-2.87,7.13-6.41,5.91-6.42-5.84-6.42-10.32,2.88-7.14,6.42-5.92Z"/><path class="cls-43" d="M790.27,95.37A16.88,16.88,0,0,0,789.19,94a23.36,23.36,0,0,1-2.71-4.56,21.14,21.14,0,0,1-1.88-7.38,10.75,10.75,0,0,1,1.24-6.36,5.79,5.79,0,0,1,3.37-2.62,24.49,24.49,0,0,0-1.84-3.6,21.91,21.91,0,0,0-2.46-3.2A13.29,13.29,0,0,0,778.28,62a17.92,17.92,0,0,0-2.85-.25,4.18,4.18,0,0,1-3.14-1c-2-1.73-3.71-4.22-6-5.52a7.1,7.1,0,0,0-5.9-.83,6.46,6.46,0,0,0-3.57,3.45c-2,4-1.76,10.38-.53,16.66a67.38,67.38,0,0,0,5.33,16c.29.62.6,1.24.9,1.8a19.8,19.8,0,0,0,1,1.74,9.4,9.4,0,0,0,2.78,3c3.13,1.86,5.15-.7,9.56,3.32,1,.92,1.84,2,2.81,2.94,1.92,1.85,3.73,2.49,5.27,1.73s2.9-2.57,3.91-4.08a16.52,16.52,0,0,0,1.36-2.48,11.81,11.81,0,0,0,1-3.12ZM772.8,58.06c3.69,2.15,6.83.33,8-3.21a12,12,0,0,0,.58-4.86,5.91,5.91,0,0,0-5-.17,6,6,0,0,0-3,3.48,10.4,10.4,0,0,0-.6,4.76Z"/><path class="cls-44" d="M773.72,148.74c-2.1-1.05-3.57-4-3.57-6.49s1.58-3.78,3.57-2.83a7.75,7.75,0,0,1,3.56,6.49C777.28,148.32,775.81,149.79,773.72,148.74Z"/><path class="cls-44" d="M752.45,132.29a3.54,3.54,0,0,1,.83-1.68,5.21,5.21,0,0,1,1.78-1.25,9.09,9.09,0,0,1,2.94-.63,15.71,15.71,0,0,1,3.14.1h.11v-.21a49.31,49.31,0,0,1-.63-5.65,29.78,29.78,0,0,1,.1-3c.11-.74.21-1.47.32-2.1A5.27,5.27,0,0,1,762,116a1.89,1.89,0,0,1,1.78-.63,5,5,0,0,1,1.89.83,12.1,12.1,0,0,1,1.78,1.47,22.2,22.2,0,0,1,2.83,3.35,41.86,41.86,0,0,1,2.93,4.51c.11.21.21.31.32.52a.1.1,0,0,0,.1-.1c.21-.21.53-.31.73-.52a14.09,14.09,0,0,1,3.67-1.47,9.91,9.91,0,0,1,2.52-.11,5.79,5.79,0,0,1,2.41,1,7.25,7.25,0,0,1,2.41,2.83,8.51,8.51,0,0,1,.84,2.62,17.06,17.06,0,0,1,.41,3.87v1.57a12.34,12.34,0,0,1-.21,2.1,25,25,0,0,1-.52,3v.1l.11.11c.52.52,1.15.94,1.67,1.47a34,34,0,0,1,3.67,4.08,27.71,27.71,0,0,1,2.3,3.46,11.48,11.48,0,0,1,1,2.62,5.21,5.21,0,0,1,.11,2.83,7.18,7.18,0,0,1-.84,1.78,4.14,4.14,0,0,1-1.57,1.15,8.59,8.59,0,0,1-3.25.84,15,15,0,0,1-3-.1H786v.1a23.21,23.21,0,0,1,.41,2.72,30.29,30.29,0,0,1,.21,3v2.41l-.31,2.52a4,4,0,0,1-1,2,1.94,1.94,0,0,1-1.78.63,4.65,4.65,0,0,1-2.09-.95,20.87,20.87,0,0,1-1.79-1.46,23.77,23.77,0,0,1-2.93-3.36,37.31,37.31,0,0,1-3.14-4.82c0-.1-.11-.1-.11-.2l-.1.1a5.37,5.37,0,0,1-1.68.94,8.92,8.92,0,0,1-3.25,1.05,6.35,6.35,0,0,1-2.83-.21,4.57,4.57,0,0,1-1.67-.94,7,7,0,0,1-2.1-2.73,12.88,12.88,0,0,1-.94-2.62,23.12,23.12,0,0,1-.53-3.77c0-1.26,0-2.41.11-3.67a28.49,28.49,0,0,1,.52-3.24v-.21l-.1-.11c-.53-.52-1.15-1.05-1.68-1.57a40.05,40.05,0,0,1-3.88-4.4,21.77,21.77,0,0,1-2-3.25,12.23,12.23,0,0,1-1-2.72A7.84,7.84,0,0,1,752.45,132.29Zm16.66-9.74A18.1,18.1,0,0,0,766.8,120a5.29,5.29,0,0,0-1.36-.94,1,1,0,0,0-1.47.31,5.07,5.07,0,0,0-.52,1.37,11,11,0,0,0-.21,2v1.88a16.39,16.39,0,0,0,.21,2.31l.31,2.51,2.52.63c.73.21,1.36.52,2.09.73.21.11.32.11.53.21h.1a1.92,1.92,0,0,1,.42-.52,18.26,18.26,0,0,1,2.83-2.93l.21-.21C771.31,125.59,770.26,124,769.11,122.55Zm13.09,29.23c-.31.52-.63,1.15-.94,1.68s-.73,1.25-1.15,1.78a17.83,17.83,0,0,0,3.14.94C782.94,154.71,782.62,153.25,782.2,151.78Zm1-9.85a27.61,27.61,0,0,0-3-2.2c.74,1.78,1.36,3.56,2,5.34C782.62,144,782.94,143,783.25,141.93Zm-2.3,6.18c.1-.31.1-.1,0-.52-.53-1.57-1.05-3-1.58-4.61s-1.25-3.35-1.88-4.93a.85.85,0,0,0-.21-.31c-.32-.21-.53-.31-.84-.52l-2.2-1.26a22,22,0,0,0-2.2-1.05c-.63-.31-1.15-.52-1.78-.84-.21-.1-.21-.1-.32.11a40.43,40.43,0,0,0-2.62,4.19c-.31.63-.62,1.26-.94,1.78v.31c.73,2.31,1.47,4.51,2.41,6.82.42,1,.73,2,1.15,2.93a.23.23,0,0,0,.21.21c.63.31,1.26.73,1.78,1.05.74.42,1.37.73,2.1,1.15s1.47.73,2.31,1c.31.1.62.31.94.42.1,0,.21,0,.21-.11.73-1,1.47-2.2,2.2-3.35A28.12,28.12,0,0,0,781,148.11ZM767.32,133a24.31,24.31,0,0,0-3.14-.83c.32,1.46.63,2.83,1.05,4.29.21-.31.31-.63.52-.94.32-.52.53-.94.84-1.36S767.11,133.44,767.32,133Zm-2.2,10.06c-.42,1-.73,2.1-1,3.15l.1.1c.73.53,1.47,1.15,2.2,1.68a5.56,5.56,0,0,1,.84.63C766.49,146.75,765.86,145,765.12,143.08Zm8.6-13.2a13.77,13.77,0,0,0-2.1,2.2c1.36.63,2.83,1.36,4.19,2.1C775.18,132.82,774.45,131.35,773.72,129.88ZM784,130.93a10.11,10.11,0,0,0-.52-1.68,3.76,3.76,0,0,0-1.26-1.57,3.12,3.12,0,0,0-1.57-.52,4.13,4.13,0,0,0-2,.1,9.11,9.11,0,0,0-2.93,1.15c-.21.11-.32.21-.53.32,1.16,2.2,2.31,4.5,3.36,6.91,0,0,0,.11.1.11s.11.1.11.1l.94.63c.52.32.94.63,1.47,1,.73.52,1.57,1.15,2.3,1.67.11.11.32.21.42.32a22.07,22.07,0,0,0,.42-2.52,27.63,27.63,0,0,0,.1-2.93A15.39,15.39,0,0,0,784,130.93Zm1.47,25.36a.37.37,0,0,0,.11.31,9.82,9.82,0,0,0,3.56-.21,5.06,5.06,0,0,0,2-.94,2.58,2.58,0,0,0,.84-.94,3,3,0,0,0,0-2.31,18.44,18.44,0,0,0-1-2.1,29.28,29.28,0,0,0-2.09-2.93,35.51,35.51,0,0,0-3.35-3.46,45,45,0,0,1-1.89,5.14v.31C784.3,151.57,784.93,154,785.45,156.29Zm-7.23,9.32a18.1,18.1,0,0,0,2.31,2.52,4,4,0,0,0,1.36.94,2,2,0,0,0,.73.21.87.87,0,0,0,1-.42,3.52,3.52,0,0,0,.52-1.26c.1-.63.21-1.25.31-2v-1.88a24.5,24.5,0,0,0-.21-2.73l-.31-2.2h-.1c-.63-.21-1.37-.42-2-.63a7.74,7.74,0,0,1-1.46-.52c-.42-.21-1-.32-1.36-.53a.38.38,0,0,0-.32.11,23.54,23.54,0,0,1-3.14,3.35l-.21.21A16.83,16.83,0,0,0,778.22,165.61Zm-4.61-7.23a21.73,21.73,0,0,0,2.2-2.2l-1.26-.63c-.52-.31-1.15-.52-1.67-.84a6.82,6.82,0,0,1-1.26-.73C772,155.24,773.4,158,773.61,158.38Zm-10.27-1.15a9.05,9.05,0,0,0,.53,1.78,3.7,3.7,0,0,0,1.36,1.68,4.61,4.61,0,0,0,1.57.52A4.86,4.86,0,0,0,769,161a10.74,10.74,0,0,0,2.93-1.47c-.1-.1-.1-.31-.2-.41-1-1.79-1.79-3.67-2.62-5.56-.11-.31-.32-.73-.42-1.05a.23.23,0,0,0-.21-.21c-.32-.2-.74-.41-1.05-.62s-.73-.53-1.15-.74-1-.73-1.58-1.05-.94-.73-1.46-1c-.11.73-.21,1.36-.32,2.09a16.58,16.58,0,0,0-.1,3.25C763,155,763.13,156.08,763.34,157.23Zm-7.86-21.38a15.62,15.62,0,0,0,.84,1.89,24.1,24.1,0,0,0,1.78,2.62,34.9,34.9,0,0,0,3.78,4.09,25.84,25.84,0,0,1,2-5v-.32c-.74-2.41-1.37-4.82-1.89-7.12a12.56,12.56,0,0,0-3.46.1,4.68,4.68,0,0,0-2,.74,3.79,3.79,0,0,0-.94.94,1.77,1.77,0,0,0-.32,1.05A6.49,6.49,0,0,0,755.48,135.85Z"/><path class="cls-44" d="M890.31,214.11c-2-1-3.49-3.9-3.49-6.36s1.54-3.7,3.49-2.77a7.59,7.59,0,0,1,3.49,6.36C893.8,213.7,892.36,215.13,890.31,214.11Z"/><path class="cls-44" d="M869.48,198a3.48,3.48,0,0,1,.82-1.64,5,5,0,0,1,1.74-1.24,9,9,0,0,1,2.88-.61,15.9,15.9,0,0,1,3.08.1h.1v-.2a49.94,49.94,0,0,1-.62-5.54,28.59,28.59,0,0,1,.1-3c.11-.72.21-1.44.31-2a5.28,5.28,0,0,1,.93-1.85,1.85,1.85,0,0,1,1.74-.61,4.86,4.86,0,0,1,1.85.82,12,12,0,0,1,1.74,1.43,20.89,20.89,0,0,1,2.77,3.29,40.67,40.67,0,0,1,2.88,4.41c.1.2.2.31.3.51,0,0,.11,0,.11-.1.2-.21.51-.31.71-.51a13.76,13.76,0,0,1,3.6-1.44,9.46,9.46,0,0,1,2.46-.1,5.66,5.66,0,0,1,2.36.92,7.17,7.17,0,0,1,2.36,2.77,8.18,8.18,0,0,1,.82,2.57,16.33,16.33,0,0,1,.41,3.79v1.54a11.74,11.74,0,0,1-.21,2.05,24,24,0,0,1-.51,3v.1l.1.1c.52.52,1.13.93,1.65,1.44a34.24,34.24,0,0,1,3.59,4,27.31,27.31,0,0,1,2.25,3.39,11.43,11.43,0,0,1,1,2.56,5.08,5.08,0,0,1,.1,2.77,6.61,6.61,0,0,1-.82,1.75,4,4,0,0,1-1.54,1.13,8.55,8.55,0,0,1-3.18.82,15,15,0,0,1-3-.1h-.11v.1a22.08,22.08,0,0,1,.41,2.67,28.78,28.78,0,0,1,.21,3v2.36l-.31,2.46a3.89,3.89,0,0,1-1,1.95,1.89,1.89,0,0,1-1.75.62,4.56,4.56,0,0,1-2.05-.92,22.18,22.18,0,0,1-1.75-1.44,22.7,22.7,0,0,1-2.87-3.28A38.3,38.3,0,0,1,890.1,227c0-.11-.1-.11-.1-.21l-.1.1a5.47,5.47,0,0,1-1.64.93,9,9,0,0,1-3.18,1,6.26,6.26,0,0,1-2.78-.2,4.51,4.51,0,0,1-1.64-.93,6.77,6.77,0,0,1-2-2.66,12.59,12.59,0,0,1-.92-2.57,23.41,23.41,0,0,1-.52-3.69c0-1.23,0-2.36.11-3.59a27.45,27.45,0,0,1,.51-3.18v-.21l-.1-.1c-.52-.52-1.13-1-1.64-1.54a39.21,39.21,0,0,1-3.8-4.31,20.1,20.1,0,0,1-2-3.18,12.31,12.31,0,0,1-1-2.67A7.53,7.53,0,0,1,869.48,198Zm16.31-9.54a16.74,16.74,0,0,0-2.25-2.47,5.1,5.1,0,0,0-1.34-.92,1,1,0,0,0-1.43.31,5.27,5.27,0,0,0-.52,1.33,11.68,11.68,0,0,0-.2,1.95v1.85a16.94,16.94,0,0,0,.2,2.25l.31,2.47,2.46.61c.72.21,1.34.52,2.06.72.2.1.3.1.51.21h.1a1.87,1.87,0,0,1,.41-.52,18.81,18.81,0,0,1,2.77-2.87l.21-.2C888,191.43,886.92,189.89,885.79,188.46Zm12.83,28.62c-.31.52-.62,1.13-.92,1.64s-.72,1.24-1.13,1.75a16.91,16.91,0,0,0,3.08.92C899.34,220,899,218.52,898.62,217.08Zm1-9.64a27.9,27.9,0,0,0-3-2.16c.72,1.75,1.33,3.49,2,5.24C899,209.49,899.34,208.46,899.65,207.44Zm-2.26,6.05c.1-.31.1-.1,0-.51-.51-1.54-1-3-1.54-4.52s-1.23-3.28-1.85-4.82a.92.92,0,0,0-.2-.31c-.31-.2-.52-.3-.82-.51l-2.16-1.23a22.07,22.07,0,0,0-2.15-1c-.62-.3-1.13-.51-1.75-.82-.2-.1-.2-.1-.31.1a41,41,0,0,0-2.56,4.11c-.31.61-.62,1.23-.92,1.74V206c.71,2.26,1.43,4.41,2.36,6.67.41,1,.71,2,1.12,2.87a.23.23,0,0,0,.21.21c.62.31,1.23.72,1.74,1,.72.41,1.34.71,2.06,1.12s1.43.72,2.25,1c.31.1.62.31.93.41.1,0,.2,0,.2-.1.72-1,1.44-2.16,2.16-3.29A25.57,25.57,0,0,0,897.39,213.49Zm-13.34-14.77a23.18,23.18,0,0,0-3.08-.82c.31,1.43.62,2.77,1,4.2.2-.31.3-.61.51-.92.31-.51.51-.92.82-1.34S883.84,199.13,884.05,198.72Zm-2.16,9.85c-.41,1-.71,2.05-1,3.07l.1.11c.72.51,1.44,1.13,2.16,1.64a6.47,6.47,0,0,1,.82.61C883.23,212.16,882.61,210.41,881.89,208.57Zm8.42-12.93a13.14,13.14,0,0,0-2,2.15c1.33.62,2.77,1.34,4.1,2.05C891.74,198.51,891,197.07,890.31,195.64Zm10.05,1a9.65,9.65,0,0,0-.51-1.64,3.76,3.76,0,0,0-1.23-1.54,3.13,3.13,0,0,0-1.54-.51,4.22,4.22,0,0,0-2,.1,9,9,0,0,0-2.87,1.13c-.21.1-.31.21-.52.31,1.13,2.15,2.26,4.41,3.29,6.77a.1.1,0,0,0,.1.1.1.1,0,0,0,.1.11l.93.61c.51.31.92.62,1.43.93.72.51,1.54,1.12,2.26,1.64.1.1.31.2.41.31a19.57,19.57,0,0,0,.41-2.47,26.49,26.49,0,0,0,.1-2.87A15.64,15.64,0,0,0,900.36,196.66Zm1.44,24.84a.37.37,0,0,0,.1.3,9.66,9.66,0,0,0,3.49-.2,4.82,4.82,0,0,0,2-.93,2.32,2.32,0,0,0,.82-.92,2.83,2.83,0,0,0,0-2.26,17.5,17.5,0,0,0-.92-2.05,31.59,31.59,0,0,0-2-2.87,35.28,35.28,0,0,0-3.29-3.39,42.42,42.42,0,0,1-1.84,5v.31C900.67,216.88,901.29,219.24,901.8,221.5Zm-7.08,9.13a17.84,17.84,0,0,0,2.26,2.46,3.84,3.84,0,0,0,1.33.92,1.79,1.79,0,0,0,.72.21.82.82,0,0,0,.92-.41,3.51,3.51,0,0,0,.52-1.23c.1-.62.2-1.23.3-2v-1.85a26.1,26.1,0,0,0-.2-2.67l-.31-2.15h-.1c-.62-.21-1.34-.41-1.95-.62a8.57,8.57,0,0,1-1.44-.51c-.41-.21-.92-.31-1.33-.51a.39.39,0,0,0-.31.1,23.12,23.12,0,0,1-3.08,3.28l-.2.21A16.77,16.77,0,0,0,894.72,230.63Zm-4.51-7.08a23.1,23.1,0,0,0,2.15-2.16l-1.23-.61c-.51-.31-1.13-.52-1.64-.82a7.86,7.86,0,0,1-1.23-.72A47.08,47.08,0,0,0,890.21,223.55Zm-10.06-1.13a8.85,8.85,0,0,0,.51,1.74A3.56,3.56,0,0,0,882,225.8a4.39,4.39,0,0,0,1.54.52,4.77,4.77,0,0,0,2.15-.21,10.85,10.85,0,0,0,2.87-1.43c-.1-.11-.1-.31-.2-.41-.92-1.75-1.75-3.6-2.57-5.44-.1-.31-.3-.72-.41-1a.22.22,0,0,0-.2-.2c-.31-.21-.72-.41-1-.62s-.72-.51-1.13-.72-1-.72-1.54-1-.92-.72-1.43-1c-.11.72-.21,1.33-.31,2a15.87,15.87,0,0,0-.1,3.18C879.84,220.26,879.94,221.29,880.15,222.42Zm-7.7-20.93a14.91,14.91,0,0,0,.83,1.84A21,21,0,0,0,875,205.9a34.17,34.17,0,0,0,3.69,4,26.27,26.27,0,0,1,1.95-4.92v-.31c-.72-2.36-1.33-4.72-1.84-7a12.84,12.84,0,0,0-3.39.1,4.62,4.62,0,0,0-1.95.72,3.81,3.81,0,0,0-.92.92,1.72,1.72,0,0,0-.31,1A6,6,0,0,0,872.45,201.49Z"/></svg>