<svg id="Layer_1" data-name="Layer 1" xmlns="http://www.w3.org/2000/svg" viewBox="0 0 852 590"><defs><style>.cls-1{fill:#27b5da;}.cls-2{fill:#fff;}.cls-3{fill:#a8aaad;}.cls-4{fill:#f2f2f2;}.cls-5{fill:#848688;}.cls-6{fill:#ec1b5e;}.cls-7{fill:#98ca3c;}.cls-8{fill:#c52d58;}.cls-9{fill:#75b343;}.cls-10{fill:#ae509e;}.cls-11{fill:#c177b1;}.cls-12{fill:#ee3477;}.cls-13{fill:#633b97;}.cls-14{fill:#098e81;}.cls-15{fill:#84bd72;}.cls-16{fill:#f5825c;}.cls-17{fill:#424da1;}.cls-18{fill:#c7d75d;}.cls-19{fill:#4662ad;}.cls-20{fill:#fed764;}.cls-21{fill:#4f81c2;}.cls-22{fill:#414142;}.cls-23{fill:#d82f27;}.cls-24{fill:#646567;}.cls-25{fill:#a42122;}.cls-26{fill:#791514;}.cls-27{fill:#b1b091;}.cls-28{fill:#46a046;}.cls-29{fill:#957a5e;}.cls-30{fill:#4f3729;}.cls-31{fill:#59ae46;}.cls-32{fill:#346792;}.cls-33{fill:#df7026;}.cls-34{fill:#03799c;}.cls-35{fill:#06c1e5;}.cls-36{fill:#e7e7e7;}.cls-37{fill:#dc2a43;}.cls-38{fill:#e65f25;}.cls-39{fill:#595a5c;}.cls-40{fill:#86c440;}.cls-41{fill:#fabe19;}.cls-42{fill:#6964a6;}.cls-43{fill:#8c8f95;}.cls-44{fill:#00c0e5;}</style></defs><title>Artboard 1</title><path class="cls-1" d="M458.71,360.72,605.05,448.6c5.81,3.49,10,7.18,12.27,11a14,14,0,0,1,2.15,7.42,15,15,0,0,1-2.35,7.69c-2.78,4.62-8.08,9.37-16.12,14.2L462.76,572c-11.26,6.76-22.69,10.43-33.88,10.85a57.11,57.11,0,0,1-31.94-8.42L250.6,486.5c-6-3.58-9.95-7.24-12.17-10.94a14.07,14.07,0,0,1-2.16-7.65,15.46,15.46,0,0,1,2.38-7.59c2.91-4.84,8.41-9.59,16-14.15l138.24-83c9.61-5.77,21.81-8.93,33.72-9.38s23.58,1.83,32.1,6.94Zm145.58,89.15L458,362c-8.26-5-19.63-7.17-31.29-6.74s-23.62,3.53-33,9.17l-138.24,83c-7.39,4.44-12.72,9-15.49,13.65a13.94,13.94,0,0,0-2.18,6.86,12.67,12.67,0,0,0,1.95,6.86c2.1,3.5,5.92,7,11.67,10.44L397.7,573.12a55.7,55.7,0,0,0,31.13,8.21c10.93-.41,22.13-4,33.18-10.65l138.23-83c7.83-4.7,13-9.28,15.62-13.7A13.68,13.68,0,0,0,618,467a12.61,12.61,0,0,0-1.94-6.65c-2.19-3.63-6.16-7.15-11.77-10.51Z"/><path class="cls-1" d="M106.77,171.19l1.66,79.36a26.78,26.78,0,0,0,2.76,11.92,19.27,19.27,0,0,0,7.51,7.82l49.43,28.89c6,3.54,11.48,5.58,16.91,5.76s10.87-1.45,17-5.29l0,0,99.12-57.23h0c3.73-2.16,6.19-4.5,7.57-6.89h0a9.67,9.67,0,0,0,1.38-5.15,10.69,10.69,0,0,0-1.53-5.06,21.73,21.73,0,0,0-8.08-7.5h0L266,197.84h0c-4.32-2.5-7.19-5.27-8.84-8.13a12.31,12.31,0,0,1-1.74-6.5,13,13,0,0,1,1.84-6.25h0a22.47,22.47,0,0,1,8.4-7.92l66.49-38.39h0c7.68-4.43,14.24-6.64,21-6.55s13.56,2.46,21.78,7.21l37.94,21.9-.89,1.53L374,132.84c-8-4.59-14.52-6.9-20.91-7s-12.68,2-20.07,6.32h0l-66.5,38.39a20.8,20.8,0,0,0-7.75,7.27h0a11.25,11.25,0,0,0-1.6,5.4,10.66,10.66,0,0,0,1.5,5.6c1.5,2.59,4.16,5.13,8.2,7.46h0l34.56,19.95h0a23.5,23.5,0,0,1,8.74,8.15,12.4,12.4,0,0,1,1.75,5.9,11.32,11.32,0,0,1-1.61,6.08h0c-1.53,2.66-4.2,5.22-8.21,7.54h0L203,301.14h0c-6.43,4-12.22,5.77-18,5.57s-11.46-2.33-17.74-6l-49.43-28.89a21.08,21.08,0,0,1-8.19-8.54,28.61,28.61,0,0,1-3-12.7L105,171.22l1.77,0Z"/><path class="cls-2" d="M508.3,409.11v42.28a6.83,6.83,0,0,1,0,1.75v12c.45,3.57-1.83,7.43-6.7,10.34l-60.09,36.09c-8.26,5-21,5.44-28.28,1.06l-63.62-38.2c-3.61-2.17-5.23-5.13-5-8.18h0V453.79a6.84,6.84,0,0,1,0-1.28V409.77a8.49,8.49,0,0,1,1.71-5.67,7.47,7.47,0,0,1-1.71-5.41h0V386.23a6.84,6.84,0,0,1,0-1.28h0V342.21a8.47,8.47,0,0,1,1.72-5.68,7.45,7.45,0,0,1-1.72-5.42h0V318.65a6.84,6.84,0,0,1,0-1.28h0V274.63c-.32-3.5,2-7.26,6.72-10.12l7-4.22v-19c-.26-2.91,1.64-6,5.6-8.41l50-30c6.87-4.13,17.47-4.52,23.53-.88l52.93,31.78c3.07,1.85,4.42,4.39,4.1,7v19.57l8.81,5.29c3.7,2.22,5.32,5.28,4.94,8.4v42.28a6.91,6.91,0,0,1,0,1.76v12a8.38,8.38,0,0,1-1.68,5.9,7.46,7.46,0,0,1,1.68,5.64v42.28a6.83,6.83,0,0,1,0,1.75v12a8.37,8.37,0,0,1-1.68,5.89,7.43,7.43,0,0,1,1.68,5.63Z"/><path class="cls-3" d="M510.41,409.18v42.13a7.66,7.66,0,0,1,0,.95,7.82,7.82,0,0,1,0,1v11.85a9.66,9.66,0,0,1-1.68,6.39,17.4,17.4,0,0,1-5.8,5.29l-60.54,36.09a33.1,33.1,0,0,1-15.33,4.24c-5.43.2-10.77-.85-14.7-3.19l-64.09-38.2a12.72,12.72,0,0,1-4.43-4.18,8.82,8.82,0,0,1-1.28-3.78h0v-.18a9.11,9.11,0,0,1,0-1.28V453.79h0c0-.24,0-.46,0-.64s0-.46,0-.7V409.77h0a9,9,0,0,1,.37-3.28,10.4,10.4,0,0,1,1-2.35,9,9,0,0,1-1-2.2,8.2,8.2,0,0,1-.37-1.77h0V400a9.4,9.4,0,0,1,0-1.3V386.23h0c0-.24,0-.46,0-.64s0-.47,0-.7V342.21h0a9,9,0,0,1,.37-3.29h0a10.14,10.14,0,0,1,1.06-2.34,9.22,9.22,0,0,1-1.05-2.2,8.5,8.5,0,0,1-.37-1.79h0v-.16a9.26,9.26,0,0,1,0-1.29V318.65h0c0-.24,0-.46,0-.63s0-.47,0-.71V274.63h0a9.77,9.77,0,0,1,1.79-6.21,17.49,17.49,0,0,1,5.71-5.17l7-4.25L357,241.31h0a9.89,9.89,0,0,1,1.67-5.76,16.48,16.48,0,0,1,5.09-4.56l49.4-29.43A27.56,27.56,0,0,1,426,198a22.89,22.89,0,0,1,12.36,2.69l53.33,31.78a7.45,7.45,0,0,1,3.15,3.09,9.52,9.52,0,0,1,1.11,5.29v18.24l8.76,5.23a12.71,12.71,0,0,1,4.5,4.3,8.64,8.64,0,0,1,1.2,5.43v42.13a9.15,9.15,0,0,1,0,1.91v11.85a8.9,8.9,0,0,1-.31,3.46,10.54,10.54,0,0,1-1.09,2.48,9.09,9.09,0,0,1,1.08,2.33,8.43,8.43,0,0,1,.32,3.42v42.13a7.66,7.66,0,0,1,0,.95,7.92,7.92,0,0,1,0,1V397.5a8.86,8.86,0,0,1-.31,3.46,10.55,10.55,0,0,1-1.08,2.48,9,9,0,0,1,1.07,2.32,8.62,8.62,0,0,1,.32,3.42Zm-3.34,42.21V408.94a5.72,5.72,0,0,0-.2-2.33,6.34,6.34,0,0,0-1.18-2.21l-.69-.87.64-.9a8.31,8.31,0,0,0,1.23-2.48,6.09,6.09,0,0,0,.2-2.39V385.41a5.53,5.53,0,0,0,0-.71,5.22,5.22,0,0,0,0-.69V341.38a5.77,5.77,0,0,0-.2-2.34,6.52,6.52,0,0,0-1.18-2.21L505,336l.64-.9a8.13,8.13,0,0,0,1.23-2.49,6.12,6.12,0,0,0,.2-2.39V317.83a5.48,5.48,0,0,0,0-.7,5.37,5.37,0,0,0,0-.7V273.8a5.8,5.8,0,0,0-.8-3.7,9.45,9.45,0,0,0-3.44-3.26l-8.84-5.3-.72-.43V240.53a4.62,4.62,0,0,0-.63-2.92,7.87,7.87,0,0,0-2.78-2.63L436.79,203.2a19.88,19.88,0,0,0-10.68-2.26,24.38,24.38,0,0,0-11.4,3.15l-50.14,30a11.9,11.9,0,0,0-3.87,3.48,5.44,5.44,0,0,0-1,3.54v20l-.72.43-7.06,4.23a14.58,14.58,0,0,0-4.74,4.26,6.91,6.91,0,0,0-1.29,4.46v42.86h0v.13a4.41,4.41,0,0,0,0,.52c0,.21,0,.38,0,.51v11.11H346l-.15,1.61a5.73,5.73,0,0,0,.25,2.24,6.63,6.63,0,0,0,1.16,2.12l.69.87-.65.9a8.38,8.38,0,0,0-1.2,2.39h0a6.12,6.12,0,0,0-.25,2.3v42.87h0v.13a4.36,4.36,0,0,0,0,.51c0,.22,0,.39,0,.52v11.1H346l-.15,1.61a5.71,5.71,0,0,0,.25,2.24,6.59,6.59,0,0,0,1.15,2.12l.69.86-.64.9a8.51,8.51,0,0,0-1.2,2.39,6.12,6.12,0,0,0-.25,2.3v43a4.36,4.36,0,0,0,0,.51c0,.22,0,.39,0,.51v11.11H346l-.15,1.61a5.82,5.82,0,0,0,.87,3.61,9.59,9.59,0,0,0,3.39,3.17l63.81,38.2c3.41,2,8.14,2.95,13,2.77a29.68,29.68,0,0,0,13.85-3.82l60.27-36.09a14.56,14.56,0,0,0,4.81-4.36,6.77,6.77,0,0,0,1.2-4.53V453a5.53,5.53,0,0,0,0-.71,5.32,5.32,0,0,0,0-.69v-.18Z"/><path class="cls-2" d="M439.75,406.27l4.66,2.8H508.3v42.32a6.83,6.83,0,0,1,0,1.75v12c.45,3.57-1.83,7.43-6.7,10.34l-60.09,36.09c-8.26,5-21,5.44-28.28,1.06l-63.62-38.2c-3.61-2.17-5.23-5.13-5-8.18h0V453.79a6.84,6.84,0,0,1,0-1.28V409.07h63.92l2.9-1.75c8.26-5,21-5.43,28.28-1.05Z"/><path class="cls-3" d="M440,406l4.61,2.75H508.9v42.6a6.71,6.71,0,0,1,0,1.79v12a8.49,8.49,0,0,1-1.48,5.69,16.27,16.27,0,0,1-5.39,4.92l-60.31,36.08A31.57,31.57,0,0,1,427,515.9c-5.2.19-10.28-.8-14-3l-63.86-38.2a11.44,11.44,0,0,1-4-3.78,7.51,7.51,0,0,1-1.12-4.63V453.79h0c0-.22,0-.43,0-.64s0-.43,0-.65h0V408.77h64.37l2.84-1.7A31.53,31.53,0,0,1,426,403c5.2-.19,10.28.8,14,3Zm4.37,3.3-4.68-2.8c-3.6-2.16-8.57-3.12-13.66-2.93a30.85,30.85,0,0,0-14.42,4l-2.91,1.74-.15,0H344.64v43.18c0,.2,0,.41,0,.61a5.79,5.79,0,0,0,0,.61V466h0l0,.33a7,7,0,0,0,1,4.32,10.94,10.94,0,0,0,3.81,3.58l63.85,38.2c3.61,2.15,8.58,3.12,13.67,2.93a30.93,30.93,0,0,0,14.41-4l60.32-36.08a15.94,15.94,0,0,0,5.2-4.74,7.93,7.93,0,0,0,1.38-5.32V453.11a6.06,6.06,0,0,0,.05-.85,5.69,5.69,0,0,0-.05-.83V409.36H444.48l-.16,0Z"/><path class="cls-4" d="M439.75,362.51l63.61,38.2c7.3,4.38,6.51,12-1.76,17l-60.09,36.09c-8.26,5-21,5.44-28.28,1.06l-63.62-38.2c-7.29-4.38-6.5-12,1.76-17l60.1-36.08c8.26-5,21-5.44,28.28-1.06Z"/><path class="cls-3" d="M439.9,362.26l63.62,38.2a11.45,11.45,0,0,1,4,3.81,7.55,7.55,0,0,1,1.12,4.15,8.85,8.85,0,0,1-1.32,4.29,16,16,0,0,1-5.57,5.24L441.66,454A31.33,31.33,0,0,1,427,458.11c-5.18.19-10.25-.8-13.94-3l-63.62-38.2a11.45,11.45,0,0,1-4-3.81,7.55,7.55,0,0,1-1.12-4.15,8.74,8.74,0,0,1,1.32-4.29,15.92,15.92,0,0,1,5.57-5.24l60.1-36.09A31.44,31.44,0,0,1,426,359.24c5.18-.19,10.24.8,13.94,3ZM503.21,401l-63.61-38.2c-3.6-2.15-8.55-3.12-13.62-2.93a30.76,30.76,0,0,0-14.36,4l-60.09,36.09a15.19,15.19,0,0,0-5.37,5,8.15,8.15,0,0,0-1.24,4,6.94,6.94,0,0,0,1,3.83,10.7,10.7,0,0,0,3.8,3.61l63.62,38.21c3.6,2.16,8.54,3.12,13.62,2.93a30.76,30.76,0,0,0,14.36-4l60.09-36.09a15.41,15.41,0,0,0,5.38-5,8.23,8.23,0,0,0,1.23-4,7,7,0,0,0-1-3.83,10.76,10.76,0,0,0-3.81-3.62Z"/><path class="cls-2" d="M439.75,338.71l4.66,2.8H508.3v42.32a6.83,6.83,0,0,1,0,1.75v12c.45,3.56-1.83,7.41-6.7,10.34L441.51,444c-8.26,5-21,5.44-28.28,1.06l-63.62-38.2c-3.61-2.17-5.23-5.13-5-8.18h0V386.23a6.84,6.84,0,0,1,0-1.28h0V341.51h63.92l2.9-1.74c8.26-5,21-5.44,28.28-1.06Z"/><path class="cls-3" d="M440,338.45l4.61,2.76H508.9v42.6a6.65,6.65,0,0,1,.06.89,6.8,6.8,0,0,1-.06.9v12a8.49,8.49,0,0,1-1.48,5.69,16.27,16.27,0,0,1-5.39,4.92l-60.31,36.08a31.57,31.57,0,0,1-14.7,4.08c-5.2.19-10.28-.8-14-3l-63.86-38.2a11.44,11.44,0,0,1-4-3.78,7.52,7.52,0,0,1-1.12-4.63V386.23h0c0-.22,0-.43,0-.64s0-.43,0-.65h0V341.21h64.37l2.84-1.7a31.41,31.41,0,0,1,14.7-4.07c5.2-.19,10.28.8,14,3Zm4.37,3.31-4.68-2.8c-3.6-2.16-8.57-3.12-13.66-2.93a30.85,30.85,0,0,0-14.42,4l-2.91,1.74-.15,0H344.64v43.14h0v0c0,.21,0,.42,0,.62a6.13,6.13,0,0,0,0,.62V398.4h0l0,.32a7,7,0,0,0,1,4.32,10.83,10.83,0,0,0,3.81,3.57l63.85,38.21c3.61,2.16,8.58,3.12,13.67,2.93a30.93,30.93,0,0,0,14.41-4l60.32-36.09a15.7,15.7,0,0,0,5.2-4.73,7.93,7.93,0,0,0,1.38-5.32V385.55a6.06,6.06,0,0,0,.05-.85,5.69,5.69,0,0,0-.05-.83V341.8H444.48l-.16,0Z"/><path class="cls-4" d="M439.75,295l63.61,38.2c7.3,4.38,6.51,12-1.76,17l-60.09,36.08c-8.26,5-21,5.44-28.28,1.06l-63.62-38.2c-7.29-4.38-6.5-12,1.76-17L411.47,296c8.26-5,21-5.44,28.28-1.06Z"/><path class="cls-3" d="M439.9,294.69l63.62,38.21a11.45,11.45,0,0,1,4,3.81,7.55,7.55,0,0,1,1.12,4.15,8.85,8.85,0,0,1-1.32,4.29,16,16,0,0,1-5.57,5.24l-60.1,36.08A31.33,31.33,0,0,1,427,390.55c-5.18.19-10.25-.8-13.94-3l-63.62-38.2a11.45,11.45,0,0,1-4-3.81,7.56,7.56,0,0,1-1.12-4.16,8.68,8.68,0,0,1,1.32-4.28,16,16,0,0,1,5.57-5.24l60.1-36.09A31.33,31.33,0,0,1,426,291.68c5.18-.19,10.24.8,13.94,3Zm63.31,38.71L439.6,295.2c-3.6-2.16-8.55-3.12-13.62-2.93a30.65,30.65,0,0,0-14.36,4l-60.09,36.09a15.13,15.13,0,0,0-5.37,5,8.08,8.08,0,0,0-1.24,4,6.94,6.94,0,0,0,1,3.83,10.7,10.7,0,0,0,3.8,3.61L413.38,387c3.6,2.17,8.54,3.13,13.62,2.94a30.76,30.76,0,0,0,14.36-4l60.09-36.09a15.34,15.34,0,0,0,5.38-5,8.17,8.17,0,0,0,1.23-4,7,7,0,0,0-1-3.83,10.76,10.76,0,0,0-3.81-3.62Z"/><path class="cls-2" d="M439.75,271.13l4.66,2.8H508.3v42.32a6.91,6.91,0,0,1,0,1.76v12c.45,3.56-1.83,7.42-6.7,10.34l-60.09,36.08c-8.26,5-21,5.44-28.28,1.06l-63.62-38.2c-3.61-2.17-5.23-5.13-5-8.18h0V318.65a6.84,6.84,0,0,1,0-1.28h0V273.93h63.92l2.9-1.74c8.26-5,21-5.44,28.28-1.06Z"/><path class="cls-3" d="M440,270.88l4.61,2.75H508.9v42.61a6.54,6.54,0,0,1,.06.89,6.77,6.77,0,0,1-.06.89v12a8.47,8.47,0,0,1-1.48,5.69A16.17,16.17,0,0,1,502,340.6l-60.31,36.09a31.57,31.57,0,0,1-14.7,4.07c-5.2.19-10.28-.79-14-3l-63.86-38.21a11.27,11.27,0,0,1-4-3.78,7.51,7.51,0,0,1-1.12-4.63V318.65h0q0-.33,0-.63t0-.66h0V273.63h64.37l2.84-1.7a31.53,31.53,0,0,1,14.7-4.07c5.2-.19,10.28.8,14,3Zm4.37,3.3-4.68-2.8c-3.6-2.16-8.57-3.12-13.66-2.93a30.85,30.85,0,0,0-14.42,4l-2.91,1.74-.15,0H344.64v43.14h0v0c0,.2,0,.41,0,.62a6.08,6.08,0,0,0,0,.61v12.19h0l0,.32a7,7,0,0,0,1,4.32,10.94,10.94,0,0,0,3.81,3.58l63.85,38.2c3.61,2.16,8.58,3.12,13.67,2.93a30.93,30.93,0,0,0,14.41-4l60.32-36.08a15.83,15.83,0,0,0,5.2-4.74,7.9,7.9,0,0,0,1.38-5.31V318a5.92,5.92,0,0,0,.05-.84,5.75,5.75,0,0,0-.05-.84V274.22H444.48l-.16,0Z"/><path class="cls-4" d="M439.75,227.37l63.61,38.2c7.3,4.38,6.51,12-1.76,17l-60.09,36.08c-8.26,5-21,5.44-28.28,1.06l-63.62-38.2c-7.29-4.38-6.5-12,1.76-17l60.1-36.08c8.26-5,21-5.44,28.28-1.06Z"/><path class="cls-3" d="M439.9,227.12l63.62,38.2a11.45,11.45,0,0,1,4,3.81,7.58,7.58,0,0,1,1.12,4.16,8.81,8.81,0,0,1-1.32,4.28,16,16,0,0,1-5.57,5.24l-60.1,36.08A31.22,31.22,0,0,1,427,323c-5.18.19-10.25-.8-13.94-3l-63.62-38.21a11.45,11.45,0,0,1-4-3.81,7.55,7.55,0,0,1-1.12-4.15,8.71,8.71,0,0,1,1.32-4.29,16,16,0,0,1,5.57-5.24l60.1-36.08A31.33,31.33,0,0,1,426,224.1c5.18-.19,10.24.8,13.94,3Zm63.31,38.7-63.61-38.2c-3.6-2.16-8.55-3.12-13.62-2.93a30.76,30.76,0,0,0-14.36,4l-60.09,36.09a15.21,15.21,0,0,0-5.37,5,8.08,8.08,0,0,0-1.24,4,7,7,0,0,0,1,3.84,10.88,10.88,0,0,0,3.8,3.61l63.62,38.2c3.6,2.16,8.54,3.12,13.62,2.93a30.65,30.65,0,0,0,14.36-4l60.09-36.09a15.25,15.25,0,0,0,5.38-5,8.17,8.17,0,0,0,1.23-4,7,7,0,0,0-1-3.83,10.76,10.76,0,0,0-3.81-3.62Z"/><path class="cls-2" d="M437.5,238.34l3.87,2.33h53v19.9a5.94,5.94,0,0,1,0,1.46v10c.37,3-1.52,6.18-5.56,8.61l-49.89,30c-6.86,4.13-17.42,4.52-23.48.88l-52.81-31.78c-3-1.81-4.35-4.27-4.12-6.81h0V262.57a6.37,6.37,0,0,1,0-1.07h0V240.67h53.06l2.41-1.45c6.86-4.13,17.42-4.52,23.48-.88Z"/><path class="cls-3" d="M437.62,238.28l3.79,2.28h53.13v20.07a6.13,6.13,0,0,1,0,.74,6.27,6.27,0,0,1,0,.74V272a7.09,7.09,0,0,1-1.23,4.73,13.34,13.34,0,0,1-4.46,4.09L439.09,310.7a26,26,0,0,1-12.16,3.38,21.45,21.45,0,0,1-11.57-2.5L362.68,280a9.43,9.43,0,0,1-3.32-3.14,6.33,6.33,0,0,1-.94-3.86V262.64h0c0-.19,0-.37,0-.53s0-.37,0-.55h0v-21h53.15l2.33-1.4a26,26,0,0,1,12.15-3.38,21.43,21.43,0,0,1,11.57,2.5Zm3.57,2.82-3.87-2.31a20.73,20.73,0,0,0-11.24-2.42,25.32,25.32,0,0,0-11.88,3.29l-2.4,1.44-.15,0H359v20.42h0v0c0,.17,0,.34,0,.51s0,.34,0,.5v10h0l0,.32a5.76,5.76,0,0,0,.85,3.55,9,9,0,0,0,3.12,2.94l52.68,31.62a21,21,0,0,0,11.25,2.42,25.56,25.56,0,0,0,11.88-3.3l49.76-29.87a12.77,12.77,0,0,0,4.27-3.9,6.55,6.55,0,0,0,1.14-4.36v-10c0-.23,0-.46,0-.69s0-.46,0-.69V241.14H441.33l-.14,0Z"/><path class="cls-4" d="M437.46,201.94l52.63,31.78c6,3.64,5.38,10-1.46,14.13l-49.71,30c-6.84,4.13-17.37,4.52-23.4.88L362.89,247c-6-3.64-5.38-10,1.46-14.13l49.71-30c6.84-4.13,17.37-4.52,23.4-.88Z"/><path class="cls-3" d="M437.63,201.69l52.65,31.78a9.44,9.44,0,0,1,3.34,3.19,6.35,6.35,0,0,1,.93,3.48,7.32,7.32,0,0,1-1.1,3.58,13.24,13.24,0,0,1-4.62,4.38l-49.74,30a25.87,25.87,0,0,1-12.15,3.4A21.35,21.35,0,0,1,415.38,279l-52.65-31.78a9.44,9.44,0,0,1-3.34-3.19,6.37,6.37,0,0,1-.93-3.48,7.32,7.32,0,0,1,1.1-3.58,13.19,13.19,0,0,1,4.63-4.38l49.73-30a25.87,25.87,0,0,1,12.15-3.4,21.35,21.35,0,0,1,11.56,2.52ZM490,234l-52.65-31.78a20.73,20.73,0,0,0-11.24-2.43,25.29,25.29,0,0,0-11.87,3.31l-49.73,30a12.74,12.74,0,0,0-4.43,4.18,6.75,6.75,0,0,0-1,3.3,5.85,5.85,0,0,0,.85,3.16,9,9,0,0,0,3.14,3l52.65,31.78a20.73,20.73,0,0,0,11.24,2.43,25.41,25.41,0,0,0,11.87-3.31l49.73-30a12.65,12.65,0,0,0,4.43-4.18,6.75,6.75,0,0,0,1-3.3,5.85,5.85,0,0,0-.85-3.16,9,9,0,0,0-3.14-3Z"/><path class="cls-5" d="M447.26,245.9l-32.65-19.38a6.28,6.28,0,0,0-5.71.19h0c-1.69,1-1.87,2.48-.41,3.35l32.64,19.38a6.3,6.3,0,0,0,5.72-.19h0c1.69-1,1.87-2.48.41-3.35Z"/><path class="cls-6" d="M427.18,184.54a.89.89,0,0,1,1.77,0V238a.89.89,0,0,1-1.77,0V184.54Z"/><path class="cls-7" d="M439.08,183.65a.89.89,0,1,1,1.77,0v61.48a.89.89,0,0,1-1.77,0V183.65Z"/><path class="cls-1" d="M417,231.07a.89.89,0,0,1-1.78,0V158.24a.89.89,0,0,1,1.78,0v72.83Z"/><path class="cls-8" d="M373.21,393.8l0-12.58c-4.56-2.9-10.08-6-14.83-8.83-3.07-1.83-2.58,2.34-2.58,4.59v10.23c0,1.25-.13,5.26,0,6.29.95.69,12.71,7.57,14.8,8.82,1.52.91,2.55.4,2.56-1.49C373.23,396.63,373.2,398,373.21,393.8Zm-2.13-10.72,0,.32a9.22,9.22,0,0,1-.81-1.14v-.44A9,9,0,0,1,371.08,383.08Zm-3.59-4,.2,1-.93-.57-.26-1.08Zm-4.27-1.37c.07-.08,0,0,.11-.09l.3-.06a.76.76,0,0,1,.44,0,7.39,7.39,0,0,1,.56,1.3,1.69,1.69,0,0,1-1.05.2c-.17-.46-.51-.83-.69-1.35Zm-2.16.89A8.27,8.27,0,0,1,362,380l-1.13,1.11-.94-1.54C360,379.26,360.86,378.78,361.06,378.64Zm-2.54,3.45L360,383l-.94,2a10.86,10.86,0,0,1-1.17-1.18Zm-.47,8.19L356.56,389l.47-2,1.55.92Zm8.22,5.58c-.2-.23-.08.1-.2-.31l-.17-1.82c1.25.95,1.39,1.27,1.56,2,.06.24,0,.84,0,1.07C367.32,396.65,366.38,396,366.27,395.86Zm.36-3.64a5.76,5.76,0,0,1-1.15-1c0-.15-.09-1.13-.09-1.24,0-.42,0-.52.12-.36C365.85,390,366.84,390.28,366.63,392.22Zm-1.07-4.68.28-1.13a7.3,7.3,0,0,1,.92,1.07,1.56,1.56,0,0,1-.15,1.26C366.37,388.49,365.87,387.93,365.56,387.54Zm1.62-1.4a12.18,12.18,0,0,1-.68-1.22l-.1-.06a2.67,2.67,0,0,1,.78-.71l.56,1.32C367.61,385.65,367.36,386.11,367.18,386.14Zm1.6-1.31-.34.07-.29-.67-.13-.51.82.06.2.9Zm3.14,1.12a7.22,7.22,0,0,0-3.46-2.85,2.24,2.24,0,0,0-2.32.75,3.71,3.71,0,0,0-.74,1.22,12.52,12.52,0,0,0-.76,3.79,26.4,26.4,0,0,0,.39,4.38c.11.7.22,1.31.36,2s.35,1.36.46,2l-3.12-1.85L360,393.7l-1.39-.82c0-1.64.25-2.91.35-4.39.13-.39.23-1.22.33-1.68a15.16,15.16,0,0,1,1.53-4.15,8.46,8.46,0,0,1,1.45-2,4.17,4.17,0,0,1,1.83-1.17c2.52-.39,5.31,1.64,7.51,5.12.16.3.3.51.46.84Z"/><path class="cls-9" d="M445.94,340v10.36c.16.41.1.64.44.76a1.18,1.18,0,0,0,1-.38c.85-.74.84-1.59.84-2.75,0-1.61-.05-5.29,0-6.67L453,346.1c.35.25.56.61,1.2.48a2.47,2.47,0,0,0,1.61-1.34,6.08,6.08,0,0,0,.28-2.59v-8.42c0-1-.07-1.57-.69-1.46a2.18,2.18,0,0,0-1.47,1.6c-.19.77,0,6.88-.1,8.33-.39-.15-4.93-5.12-5.43-5.37s-1,0-1.54.61a3.12,3.12,0,0,0-.88,2Zm23.29-10.59,2-1.18c.08-.92,0-2.31,0-3.24s-.14-1.85-1-1.38a2.75,2.75,0,0,0-1,2.52c0,.89-.06,2.53,0,3.28Zm2,5.44v-5.35l-2,1.16c0,1,0,5.1,0,5.76.14,1.75,2,.74,2-1.57Zm22.5-12.91v-.51c-.2-.48,0-.62-.59-1.14-.27-.24-.58-.43-.87-.64l-.86-.63c-.2-.15-.79-.5-.87-.74.22-.33.63-1.19.85-1.61l.86-1.67c.33-.63,1-1.9,1.22-2.47.12-.34.17-.71.26-1V311c-.15-.37-.3-1.27-1.31-.5a5.93,5.93,0,0,0-1.4,2c-.76,1.49-1.51,2.94-2.28,4.41-.47-.05-2.42-2-3.14-2.09-1.25-.16-2.32,1.91-1.71,3.18.42.85,2.63,1.94,3,2.47-.39,1-2.6,4.79-3,5.94-.65,2.06.48,3.88,2.74-.65.21-.42,1.92-3.68,2-3.95.68,0,2.52,2.44,3.68,2a1.86,1.86,0,0,0,.9-.76,3.94,3.94,0,0,0,.48-1.22Zm-13.26.1c.13,1.3-.15,7.43.12,8s.86.43,1.52-.27a3,3,0,0,0,.65-2.26v-8.36c0-1,.09-1.78-.37-2s-1.55.19-2.22,1.48l-3.33,7.28c-.22.5-1.78,3.94-1.92,4.15,0-.94.07-7.62-.09-8.08s-.79-.53-1.45.13a2.69,2.69,0,0,0-.69,2.22v8.3c0,.81-.1,1.91.25,2.24s1,0,1.65-.58a16.05,16.05,0,0,0,2.12-4l3.76-8.25Zm-21,21.47,5.65-3.39c.16-.13,2-5.87,2.2-6.54.15-.45.65-1.86.7-2.22-1.07.64-6,3.38-6.59,4-.94,1-.9,2.65.07,2.45a29.45,29.45,0,0,0,3.3-1.88l-.89,2.53-3.15,1.9c-.21-.67-1.56-2.67-1.66-3.08,0-.18,1.41-4.53,1.58-5l3.42-2,1,1.63,2.32-1.38-2.19-3.57-5.92,3.52c-.25.64-.46,1.4-.67,2l-1.33,4.08a11,11,0,0,0-.59,2l2.72,4.9Z"/><path class="cls-10" d="M379,327.08s-1.88-.23-.9,2.38a5.72,5.72,0,0,0,.74,1.17l.08,0a4.61,4.61,0,0,0,2,.93c.38.07,1.35.1,1.5-.09.4.05.53-.28.84-.32.89-.75,1.33-1.52,1.57-3.59-.25.23-.19.5-.59.59a1.24,1.24,0,0,1-1.06-.38,3.49,3.49,0,0,1-1.12-2.6v-1.41c-.2.85-.62,1.16-1.54.61l-.14-.11-1.37-.81a2.67,2.67,0,0,0-.42,0,.43.43,0,0,0-.17,0c-.13.07-.08,0-.14.15-.31,0-.47.78-.38,1.41a4.08,4.08,0,0,0,.76,1.7l.37.34Z"/><path class="cls-11" d="M382.24,326.27a4.21,4.21,0,0,1-.17-1.08v-1.41c-.2.85-.62,1.16-1.54.61l-.14-.11-1.37-.81a2.67,2.67,0,0,0-.42,0,.39.39,0,0,0-.17,0c-.13.07-.08,0-.14.15-.31,0-.47.78-.38,1.41a4.08,4.08,0,0,0,.76,1.7l.35.32c1.41.73,2.61.38,3.23-.79Z"/><path class="cls-12" d="M379.06,313.74l.53-.05a4.83,4.83,0,0,1,2.75.92c.39,0,.5.12.79-.13a1.35,1.35,0,0,0,.35-1.08,3.45,3.45,0,0,0-1.29-2.52,7.94,7.94,0,0,0-2.74-1.11c-.48-.08-1.85-.15-2,.1a3.21,3.21,0,0,0-1.35.57c-.09.07-.1.07-.13.17-.45.09-1.26,1.33-1.55,2.05a10.05,10.05,0,0,0-.71,3.55l0,.14a.83.83,0,0,1,1.14-.82,2.34,2.34,0,0,1,1,.85,3.1,3.1,0,0,1,.51,1.16,1.47,1.47,0,0,1,.14.49v-.19a12,12,0,0,1,.26-1.54,6.17,6.17,0,0,1,.21-.61,3.28,3.28,0,0,0,.24-.55l.19-.23a2.68,2.68,0,0,1,1.68-1.17Z"/><path class="cls-13" d="M384.84,327.58c-.24,2.07-.68,2.84-1.57,3.59-.31,0-.44.37-.84.32-.15.19-1.12.16-1.5.09a4.61,4.61,0,0,1-2-.93c-.16.15-.45-.06-.71.18a2.13,2.13,0,0,0-.09,2.3,4.91,4.91,0,0,0,.71,1.11l1.45.87c.22,0,1,.35,1.37.42a4.66,4.66,0,0,0,3-.3c.07,0,.05,0,.08-.07.19,0,.46-.25.6-.35a4.58,4.58,0,0,0,1.38-1.69,9.44,9.44,0,0,0,.92-4c-.18.32-.24.56-.51.7-.48.26-1.33-.24-1.85-1.2a5.85,5.85,0,0,1-.46-1.28v.24Z"/><path class="cls-14" d="M382.46,318.25c.17.22.79.69,1,.91l.84.88c.28.39-.23-.38.06.09l.06.11a11.93,11.93,0,0,1,1.33,1.85,13.58,13.58,0,0,1,1.15,2.6,11.32,11.32,0,0,1,.56,2,13,13,0,0,1,.2,2.38,3.63,3.63,0,0,0,.43,1.25c.51.94,1.33,1.47,1.84,1.2s.28-.28.51-.69v-1.49a22.55,22.55,0,0,0-2-7.25,3.31,3.31,0,0,0-.48-.88,13.07,13.07,0,0,0-1.06-1.87,20.7,20.7,0,0,0-1.28-1.72,14.89,14.89,0,0,0-3.24-3,6.07,6.07,0,0,1,.74,1,3.82,3.82,0,0,1,.36,1.36c0,1-.45,1.31-1,1.23Z"/><path class="cls-15" d="M384.51,325a5.82,5.82,0,0,1,.34,2.33,5.85,5.85,0,0,0,.46,1.28c.52,1,1.37,1.46,1.85,1.2.27-.14.33-.38.51-.7v-.06a13,13,0,0,0-.2-2.38,11.32,11.32,0,0,0-.56-2,13.58,13.58,0,0,0-1.15-2.6,11.93,11.93,0,0,0-1.33-1.85l-.06-.11c-.29-.47.22.3-.06-.09l-.84-.88c-.23-.22-.85-.69-1-.91l-.16,0a4.76,4.76,0,0,1,.69.84,4.61,4.61,0,0,1,.42,1.05c.12,1.07-.1,1.83-.65,1.76h-.32s0,.08-.06.09a5.91,5.91,0,0,1,1.66,2,1.24,1.24,0,0,1,.16.38,3.18,3.18,0,0,1,.31.72Z"/><path class="cls-16" d="M381,317.68a3,3,0,0,1,1.35.53l.16,0c.57.08,1.05-.2,1-1.23a3.82,3.82,0,0,0-.36-1.36,6.07,6.07,0,0,0-.74-1l0,0a4.83,4.83,0,0,0-2.75-.92l-.53.05a2.68,2.68,0,0,0-1.68,1.17l-.19.23a3,3,0,0,1-.24.55,6.17,6.17,0,0,0-.21.61,12,12,0,0,0-.26,1.54c.09-.07.2-.39.34-.51a.69.69,0,0,1,.54-.17,2.14,2.14,0,0,1,1.43,1.22,3,3,0,0,1,.47,1.28,4.14,4.14,0,0,0,.18-.77,2,2,0,0,1,.31-.62,1.15,1.15,0,0,1,1-.55l.18,0Z"/><path class="cls-17" d="M375,326.71a.6.6,0,0,0,.08.16,16.34,16.34,0,0,0,3.81,3.76,5.72,5.72,0,0,1-.74-1.17c-1-2.61.89-2.37.9-2.38l-.37-.34c-.17.06-.71-.51-1-.75a9.51,9.51,0,0,0-.68-.76,7.36,7.36,0,0,1-.59-.74,12.07,12.07,0,0,1-1-1.64,11.23,11.23,0,0,1-1.29-3.15l0-.19-.3-1.66a9.86,9.86,0,0,1-.05-1.5l0-.14c-.09-.21-.13-.49-.2-.68s-.22-.46-.3-.61a2.78,2.78,0,0,0-.94-1c-1-.57-1.19.35-1.37.63v1.23c.08.27.21,1.72.31,2.22a18.45,18.45,0,0,0,.5,2,21,21,0,0,0,1.37,3.52,19.79,19.79,0,0,0,1.93,3.14Z"/><path class="cls-18" d="M382.07,325.19a3.49,3.49,0,0,0,1.12,2.6,1.24,1.24,0,0,0,1.06.38c.4-.09.34-.36.59-.59v-.24a5.82,5.82,0,0,0-.34-2.33,3.18,3.18,0,0,0-.31-.72,1.24,1.24,0,0,0-.16-.38,5.91,5.91,0,0,0-1.66-2c.05,0,.05-.08.06-.09-.56-.26-1-.56-1.54-.86.41.54.55.5.86,1.2a3.37,3.37,0,0,1,.3,1.59v1.41Z"/><path class="cls-19" d="M375.38,322.85a12.07,12.07,0,0,0,1,1.64,7.36,7.36,0,0,0,.59.74,9.51,9.51,0,0,1,.68.76c.28.24.82.81,1,.75a4.08,4.08,0,0,1-.76-1.7c-.09-.63.07-1.43.38-1.41.06-.12,0-.08.14-.15a.39.39,0,0,1,.17,0,2.67,2.67,0,0,1,.42,0,2.42,2.42,0,0,1-.36-.27.57.57,0,0,1-.15-.16.55.55,0,0,1-.11-.15l-.43-.41a2.4,2.4,0,0,0-.29-.44,1.09,1.09,0,0,1-.14-.23.64.64,0,0,1-.1-.23,5,5,0,0,1-.59-1.18,9,9,0,0,1-.35-1.47V318a1.47,1.47,0,0,0-.14-.49,3.1,3.1,0,0,0-.51-1.16,2.34,2.34,0,0,0-1-.85.82.82,0,0,0-1.14.82,9.86,9.86,0,0,0,.05,1.5l.3,1.66,0,.19a11.23,11.23,0,0,0,1.29,3.15Z"/><path class="cls-20" d="M381,317.68l-.18,0a1.15,1.15,0,0,0-1,.55,2,2,0,0,0-.31.62,4.14,4.14,0,0,1-.18.77v1.21l0,.67a1,1,0,0,1,.52-.81c.36-.16.59,0,1.09.26s1,.6,1.54.86h.32c.55.07.77-.69.65-1.76a4.61,4.61,0,0,0-.42-1.05,4.76,4.76,0,0,0-.69-.84,3,3,0,0,0-1.35-.53Z"/><path class="cls-21" d="M378.39,322.89a.55.55,0,0,0,.11.15.57.57,0,0,0,.15.16,2.42,2.42,0,0,0,.36.27l1.37.81a5.56,5.56,0,0,1-.61-.78,2.37,2.37,0,0,1-.23-.48l-.11-.3a.14.14,0,0,1,0-.06,1,1,0,0,0-.08-.16c0-.26-.06-.65,0-1l0-.67v-1.21a3,3,0,0,0-.47-1.28,2.14,2.14,0,0,0-1.43-1.22.69.69,0,0,0-.54.17c-.14.12-.25.44-.34.51v1.09a9,9,0,0,0,.35,1.47,5,5,0,0,0,.59,1.18.64.64,0,0,0,.1.23,1.09,1.09,0,0,0,.14.23,2.4,2.4,0,0,1,.29.44l.43.41Z"/><path class="cls-22" d="M360.83,332.93l.79.48v-1.88l.9.54c1,.6,1.81.41,1.81-.91h0a3.58,3.58,0,0,0-1.72-3l-1.78-1.08v5.87Zm.79-2.34v-2.11l.93.56a1.9,1.9,0,0,1,1,1.64v0c0,.61-.37.82-1,.45l-.93-.56Zm2.69,4.45.81.49.47-1.13,2.14,1.29.46,1.7.84.51-2-7.12-.74-.45-2,4.71Zm1.57-1.39.78-1.87.78,2.82-1.56-1Zm5.44,5.71c.95.58,1.61.32,1.61-.77v0a3.48,3.48,0,0,0-1.45-2.6c-.87-.79-1.08-1.12-1.08-1.57v0c0-.39.27-.53.74-.25a4.11,4.11,0,0,1,1.23,1.35l.43-.53a5,5,0,0,0-1.65-1.73c-.89-.54-1.54-.24-1.54.77v0a3.49,3.49,0,0,0,1.5,2.66c.85.76,1,1.1,1,1.52v0c0,.43-.31.55-.81.25a4.37,4.37,0,0,1-1.42-1.63l-.48.45a5.53,5.53,0,0,0,1.89,2.08Zm4.07,2.47c.95.57,1.62.32,1.62-.77v0a3.47,3.47,0,0,0-1.45-2.6c-.87-.8-1.08-1.12-1.08-1.58h0c0-.39.27-.54.74-.26a4.34,4.34,0,0,1,1.23,1.35l.42-.52a5,5,0,0,0-1.64-1.73c-.9-.54-1.55-.24-1.55.77h0a3.52,3.52,0,0,0,1.51,2.67c.84.76,1,1.1,1,1.51v0c0,.44-.31.55-.8.25A4.19,4.19,0,0,1,374,339.3l-.48.45a5.77,5.77,0,0,0,1.89,2.08Zm2.56,1.46,3.39,2v-.92l-2.6-1.57v-1.58l2.27,1.38v-.93l-2.27-1.37v-1.53l2.56,1.55v-.92l-3.35-2v5.87Zm4.33,2.62.79.48v-4.18l2.49,5.69.67.4v-5.87l-.78-.48V346L383,340.49l-.74-.45v5.87Zm7.26,4.49a1.91,1.91,0,0,0,1.89.24v-2.47L389.5,347v.9l1.16.7v1.1a1.31,1.31,0,0,1-1.09-.22,3.63,3.63,0,0,1-1.54-3v0c0-1.12.63-1.68,1.47-1.18a3.64,3.64,0,0,1,1.26,1.4l.51-.48a4.91,4.91,0,0,0-1.74-1.85c-1.37-.82-2.34,0-2.34,1.63h0a5.4,5.4,0,0,0,2.35,4.44Zm2.93,1.67,3.39,2.05v-.92l-2.6-1.57v-1.58l2.27,1.38v-.92l-2.27-1.38V347.6l2.56,1.55v-.92l-3.35-2v5.87Zm4.33,2.63.8.47v-2l1,.6,1.11,2.72.95.57-1.22-3c.62.15,1.07-.16,1.07-1.13h0a3.43,3.43,0,0,0-.37-1.5,3.68,3.68,0,0,0-1.31-1.38l-2-1.22v5.88Zm.8-2.48v-2l1.15.69a1.8,1.8,0,0,1,.94,1.54v0c0,.6-.36.76-.93.42l-1.16-.7Z"/><path class="cls-1" d="M424.37,345.82h2.08v3.11a9,9,0,0,0,3.12-.42v2.08a15.48,15.48,0,0,1-3.12.42v3.12h-2.08V351a10.2,10.2,0,0,1-3.12-.42v-2.08a9,9,0,0,0,3.12.42v-3.11Z"/><path class="cls-1" d="M439.37,297.89l1.36-.82v-3.39l2.5-1.51v3.39l1.36-.81v-8.46l-1.36.82v3.34l-2.5,1.51v-3.35l-1.36.82v8.46Zm6.07-3.66,1.38-.83.57-2.24,2.61-1.57.56,1.55,1.42-.85-2.65-6.92-1.25.75-2.64,10.11Zm2.43-5,.82-3.24.82,2.25-1.64,1Zm7.6-1.05,1.36-.82v-2.54l1-.62a5.31,5.31,0,0,0,2.5-4.47v0c0-1.73-.89-2.39-2.37-1.5l-2.52,1.52v8.46Zm1.36-5v-2.59l1.05-.63c.68-.41,1.1-.22,1.1.62v0a2.33,2.33,0,0,1-1.08,1.93l-1.07.65Zm4.43,1.52,1.36-.82v-2.71l1.07-.64,1.32,1.91,1.58-1-1.5-2.11a5.1,5.1,0,0,0,1.32-3.42v0a2,2,0,0,0-.53-1.62c-.41-.31-1-.24-1.8.23l-2.82,1.7v8.46Zm1.36-5.17v-2.43l1.35-.81c.66-.4,1.06-.23,1.06.57v0a2.15,2.15,0,0,1-1,1.82l-1.37.83Zm7.91-.28a7.91,7.91,0,0,0,3.29-6.35v0c0-2.4-1.37-3.52-3.27-2.37a7.91,7.91,0,0,0-3.29,6.35v0c0,2.4,1.37,3.52,3.27,2.37Zm0-1.72c-1.09.66-1.87-.08-1.87-1.53v0a4.63,4.63,0,0,1,1.85-3.75c1.1-.66,1.87.08,1.87,1.53v0a4.63,4.63,0,0,1-1.85,3.75ZM478.29,266,477,269.5l-1.29-2-1.58,1,2.06,2.91L474,277l1.54-.93,1.39-3.74,1.39,2.06,1.58-.95-2.15-3,2.06-5.38-1.54.93Zm4,6,1.36-.82v-3.37l2.37-6.52-1.55.93-1.49,4.3L481.53,264l-1.59,1,2.37,3.69V272Z"/><path class="cls-1" d="M367.73,270.06l1.36.82v-3.4l2.5,1.52v3.4l1.36.81v-8.46l-1.36-.82v3.35l-2.5-1.51v-3.35l-1.36-.82v8.46Zm6.08,3.67,1.38.83.57-1.55,2.61,1.57.56,2.24,1.42.86-2.65-10.12-1.25-.76-2.64,6.93Zm2.43-2.07.82-2.26.82,3.24-1.64-1Zm7.61,8.13,1.36.82v-2.54l1,.62c1.39.84,2.5.49,2.5-1.47v0a5.13,5.13,0,0,0-2.37-4.35l-2.52-1.52v8.46Zm1.36-3.38v-2.58l1.05.63a2.23,2.23,0,0,1,1.1,2v0c0,.73-.39,1-1.07.63l-1.08-.65Zm4.43,6.88,1.36.81v-2.7l1.07.64,1.32,3.51,1.59,1-1.51-3.94c.79.08,1.33-.46,1.33-1.82v0a5,5,0,0,0-.53-2.25,4.89,4.89,0,0,0-1.8-2l-2.83-1.7v8.47Zm1.36-3.54v-2.43l1.35.81a2.13,2.13,0,0,1,1.07,1.86v0c0,.72-.38,1-1,.57l-1.38-.83Zm7.92,9.28c1.91,1.15,3.29,0,3.29-2.39v0a7.87,7.87,0,0,0-3.27-6.33c-1.91-1.14-3.29,0-3.29,2.4v0a7.89,7.89,0,0,0,3.27,6.33Zm0-1.71a4.71,4.71,0,0,1-1.87-3.79v0c0-1.45.76-2.18,1.85-1.52a4.7,4.7,0,0,1,1.87,3.79v0c0,1.46-.76,2.18-1.85,1.52Zm7.75-2.21-1.31,1.95-1.29-3.52-1.59-1,2.06,5.4-2.15,3,1.55.93,1.39-2.06,1.38,3.74,1.59,1-2.15-5.63,2.06-2.89-1.54-.93Zm4,10.89,1.36.82v-3.38l2.37-3.66-1.54-.93-1.5,2.5-1.47-4.29-1.59-1,2.37,6.56V296Z"/><path class="cls-23" d="M457.5,465.74c.13-.27.06,0,.09-.44l0-1.64A30.9,30.9,0,0,0,454,464c-4.08.47-3.06-.16-7.49,4.7-.41.45-3.32,3.41-3.55,4.08a4.19,4.19,0,0,0,0,2c.11.28-.05.14.23.22a.79.79,0,0,0,.34,0,9.19,9.19,0,0,0-.64.94,5,5,0,0,0,.07,1.95c0,.32.14.26.45.15-.3.83-.51.4-.54,1.33a4.12,4.12,0,0,0,.09,1.55c.08.28-.09.23.75.22,1.18,0,6-.3,6.62-.78a18.34,18.34,0,0,0,1.83-2l3.66-4.18a6.47,6.47,0,0,0,1.64-2.27c.14-.3.09-.26.1-.65v-.87c0-.86-.21-.37-.57-.62.1-.13.22-.25.29-.35.36-.59.14-.12.18-.52s.06,0,.09-.44l0-1.45c-.19-.35.06-.1-.28-.19l-.3-.09a2,2,0,0,0,.3-.35c.34-.49.2-.21.23-.6Z"/><path class="cls-24" d="M452.27,480.38c-.08.47,0,2.25,0,2.8a3.37,3.37,0,0,0-2.92,1.76c-1.6,2.3-1.81,5.45,0,5.89,1,.23,1.92-.64,2.87-1.76.18.13.3.44.74.07a1.48,1.48,0,0,0,.48-1.23v-7.86C453.45,478.86,452.43,479.56,452.27,480.38Zm-1.08,8.24c-1.87,1.86-2.73-1.24-.88-3.18S453.07,486.76,451.19,488.62Z"/><path class="cls-24" d="M442.39,492.06a2.07,2.07,0,0,0,1,2.05c1,.44,2.33-.33,3.48-1.95.46-.65.47-.93.17-1.35-.89.27-.9,1.19-2,1.68-.74.31-1.2.07-1.34-.71l3-1.82a1.73,1.73,0,0,0,.77-2.66C446.25,485,442.38,488.34,442.39,492.06Zm1.24-1.46c.38-2.28,2.73-3.36,3.1-1.83Z"/><path class="cls-24" d="M459.07,481.37a8.64,8.64,0,0,0-.83.24c-.39.12-.58.2-.69-.14a1.69,1.69,0,0,1,1.47-1.19,1,1,0,0,0,1.28-.92c.18-1.31-1.85-.71-2.86.4-.84.94-2.47,4.37,1,3.31,2-.61.32,1.74-1,1.54-.2,0-1.12-.2-1.2,1-.07.93,1.59.92,2.81-.19C460.82,483.8,461.31,480.89,459.07,481.37Z"/><path class="cls-24" d="M442.43,488.61a3.58,3.58,0,0,0-1.8,1.76c-.32-.15-.27-.61-.8-.24a1.45,1.45,0,0,0-.55,1.33v4.84c0,1.45,1.05.65,1.19-.21s-.44-3.82,1.24-5.55c.43-.44.72-.44.93-1A.71.71,0,0,0,442.43,488.61Z"/><path class="cls-24" d="M454.38,482.4v5c0,1.33,1.2.67,1.2-.83v-4.84C455.58,480.31,454.38,481,454.38,482.4Z"/><path class="cls-24" d="M454.7,480.15l.56-.31C456.71,476.69,453.24,478.79,454.7,480.15Z"/><path class="cls-2" d="M446.75,469.7c-2.47,1.86-1.09,2.63,1.05,1,.54-.4,1.83-1.66,1-1.9-.45-.14-1.49.42-2.09.87Z"/><path class="cls-2" d="M448.37,471.15l2.22-.14,1-2.39a25.86,25.86,0,0,0-3.17,2.53Z"/><path class="cls-2" d="M449.73,466.78c-.31.42-.49.52-.69.77a1.67,1.67,0,0,0-.12.16l1.22-.51.46.64.31-1,1.18-.86-.88.06.2-.87c-1.25,1.23-.71.79-1.89,1.05.07.26.13.3.21.56Z"/><path class="cls-25" d="M453.69,467.23v-2l-2.12,2.3a3.41,3.41,0,0,0,2.11-.34Z"/><path class="cls-26" d="M453.69,467.23a19.19,19.19,0,0,0,1.88-2.12l-1.87.16v2Z"/><path class="cls-25" d="M443,477.89c0,.32.14.26.45.15,0,0,0,0,.05,0,.07.27,3-.13,3.28-.16,4.19-.3,2.87.3,6.92-4.31,1-1.12,2.56-2.79,3.33-3.86.1-.13.22-.25.29-.35.36-.59.14-.12.18-.52l0-1.62c-.11.53-6.86,8.08-7.1,8.25-.8.59-6.13.73-7.39.74l0,1.66Z"/><path class="cls-25" d="M443,480.92c.08.28-.09.23.75.22,1.18,0,6-.3,6.62-.78a18.34,18.34,0,0,0,1.83-2l3.66-4.18a6.47,6.47,0,0,0,1.64-2.27l0-1.61a9.69,9.69,0,0,1-1.66,2.11c-1,1.16-5,5.79-5.44,6.14-.67.5-3.07.52-3.81.57a24.73,24.73,0,0,1-3.58.16l0,1.68Z"/><path class="cls-25" d="M443,474.77c.11.28-.05.14.23.22a.79.79,0,0,0,.34,0l3.28-.23c4.17-.32,2.71.36,6.78-4.24l3.19-3.66.07-.09.08-.09a2,2,0,0,0,.3-.35c.34-.49.2-.21.23-.6l0-1.63a37.16,37.16,0,0,1-3.42,4.11c-3.84,4.33-3.19,4.43-5.66,4.57a38.85,38.85,0,0,1-5.42.29l0,1.69Z"/><path class="cls-27" d="M488.2,458.8a9,9,0,0,1,.16,1.27l0,1.09h.35a9.5,9.5,0,0,1,.19-3c-.07,0,.06-1,0-1.08s-.09-.23-.13-.38c-.13-.56-.42-.89-.47-1.35a.17.17,0,0,0,0-.07v-.05a28.94,28.94,0,0,1-.13,3.56Z"/><path class="cls-28" d="M486.6,444.45a.67.67,0,0,0-.08.24l-.21.8a23.82,23.82,0,0,0-.65,8.26,9.34,9.34,0,0,0,1,3.18A5.32,5.32,0,0,0,488,458.6a.85.85,0,0,1,.22.2,17.09,17.09,0,0,0,.26-2.72v.05a.17.17,0,0,1,0,.07,10.06,10.06,0,0,0,.15,1.45c0,.15.1.25.13.38a.3.3,0,0,0,.18.14l.56-1.14a22.64,22.64,0,0,0,1.29-3.83,20.32,20.32,0,0,0,.52-6.26,13.52,13.52,0,0,0-1.12-4.45c-.15-.29-.28-.53-.43-.78s-.32-.44-.48-.66a3.72,3.72,0,0,1-.49-.63c-.12-.24-.35-.91-.37-.94-.85,7.71.74,11.57-1.81,5.12,0-.11,0,0,0-.15Z"/><path class="cls-29" d="M497.55,456.51c-.53-.25-1,0-1.63.38-.38.23-.8.51-1.18.72l-.7.38a2,2,0,0,0-.11.53c.73-.28.69-.18.69,1.06s0,2.48,0,3.65a4,4,0,0,1-.12,1.27c-.19.37-.34.18-.43.59a.87.87,0,0,0,0,.32c.55-.31,1.1-.63,1.65-.93a5.28,5.28,0,0,0,2.35-3.05C498.7,459.45,498.53,457,497.55,456.51Zm-.3,5.7a2.55,2.55,0,0,1-1.26,1.51c-.71.32-.69-.14-.69-1V460.1c0-.59,0-1.37,0-2a.47.47,0,0,1,.18-.44,1.62,1.62,0,0,1,1.31-.41,1.24,1.24,0,0,1,.73.92A7.23,7.23,0,0,1,497.25,462.21Z"/><path class="cls-29" d="M502,456.82c-.1,0-.31,0-.38,0v0l.28-.46a3,3,0,0,0,.32-1.92c-.13-.7-.62-.82-1.2-.48-.75.44-1.26.78-2,1.18a1.2,1.2,0,0,0-.1.52c.15,0,.4-.19.53-.12s.1.66.1,1v3.37a10.76,10.76,0,0,1-.07,1.63,1,1,0,0,1-.37.44c-.1.07-.12.07-.15.24a.78.78,0,0,0,0,.37l1.78-1a4.27,4.27,0,0,0,1.92-3.55C502.57,457.26,502.3,456.91,502,456.82Zm-1.8.19c0-.19,0-1.75,0-1.89s.11-.24.27-.33c.61-.36,1.08-.31,1.08.77a1.81,1.81,0,0,1-1.24,1.91C500.14,457.56,500.16,457.6,500.16,457Zm.78,3.81c-.8.49-.78.1-.78-1.22,0-.41,0-1.08,0-1.47a2.36,2.36,0,0,1,.83-.46.55.55,0,0,1,.59.14A2.56,2.56,0,0,1,500.94,460.82Z"/><path class="cls-30" d="M490,463.65a1.35,1.35,0,0,0,.08-.78,1,1,0,0,1-.45.53c-.42.25-.56,0-1.1.28a3.33,3.33,0,0,0-1.14,1.7,3.52,3.52,0,0,0-.13.88c0,1.48.65,1.18.67,1.3s-.2.41-.25.5a1.38,1.38,0,0,0-.26.49.53.53,0,0,0,.29.51c.05,0,.12,0,.15.06a4.1,4.1,0,0,1-.22.41,3.26,3.26,0,0,0-.49,1.38c0,.94.6,1.13,1.16.8l.08,0a4.36,4.36,0,0,0,1.66-3.22c0-.92-.34-1-.83-.83-.27.11-.88.45-1,.39s-.13-.2-.05-.41.31-.3.61-.63a3.67,3.67,0,0,0,.5-.78,3.15,3.15,0,0,0,.29-1,4,4,0,0,0,0-1.16C489.69,463.91,489.81,464,490,463.65Zm-1.8,5.4c.22-.22,1.05-.64,1.26-.27a1.89,1.89,0,0,1-.46,1.84c-.39.43-.92.63-1.2.23S487.82,469.38,488.17,469.05Zm.33-2.31c-.41.28-.64-.15-.69-.75a2,2,0,0,1,.5-1.73c.41-.3.64.12.68.75A2.06,2.06,0,0,1,488.5,466.74Z"/><path class="cls-30" d="M481.59,467.74a4,4,0,0,0-1.62,3.44c0,1.48.52,2.26,1.39,1.75a4.23,4.23,0,0,0,1.55-3.45v-.2C482.91,468,482.34,467.3,481.59,467.74Zm.63,3.27a1.88,1.88,0,0,1-.49,1.15c-.61.56-1-.12-1.09-.89a3.6,3.6,0,0,1,.51-2.73c.32-.31.59-.23.75-.05A3.67,3.67,0,0,1,482.22,471Z"/><path class="cls-30" d="M491.84,461.73a4.26,4.26,0,0,0-1.44,3.42c.05,2.83,1.81,1.89,2.53.21a5.64,5.64,0,0,0,.4-2.07C493.34,461.81,492.74,461.06,491.84,461.73Zm.81,3.2c-.24,1.47-1.35,1.94-1.59.18a3.55,3.55,0,0,1,.53-2.71.49.49,0,0,1,.75,0A4,4,0,0,1,492.65,464.93Z"/><path class="cls-30" d="M479,472.25a8,8,0,0,0-.12-2.08c-.27-.81-.85-.55-1.38.28s-.36.84-.57.51c-.41-.65-1.08.23-1.5,1.05-.24.46-.06-.35-.14-.58a8.52,8.52,0,0,1-.94,1c-.06.06-.17.21-.11.3s.25,0,.41.08.1.08.1.28,0,2.71-.05,3-.34.41-.41.56a.73.73,0,0,0,0,.36c.08,0,.25-.14.34-.2l.37-.23a8.25,8.25,0,0,0,.73-.4,1.42,1.42,0,0,0,0-.41c-.51.13-.44.32-.44-1.85v-.72a1.32,1.32,0,0,1,.08-.64c.35-.65.91-1.18,1.14-.53a12.52,12.52,0,0,1,.09,2.58,1.08,1.08,0,0,1-.11.59,4.18,4.18,0,0,1-.3.3.63.63,0,0,0,0,.43c.24-.14.48-.31.71-.44a6.16,6.16,0,0,0,.71-.4c0-.11.08-.4,0-.4a2.93,2.93,0,0,1-.29.05c-.13,0-.12-.19-.12-.45v-2.09a4.4,4.4,0,0,1,0-.62,3.28,3.28,0,0,1,.26-.43,1.57,1.57,0,0,1,.34-.34.34.34,0,0,1,.56.11,2.8,2.8,0,0,1,.13,1.13c0,.46,0,.93,0,1.4,0,.7-.07.6-.4,1a1.93,1.93,0,0,0,0,.34c0,.08,0,0,.16,0l.84-.51a2.67,2.67,0,0,0,.41-.22,1.93,1.93,0,0,0,0-.42C478.87,473.75,479,473.48,479,472.25Z"/><path class="cls-30" d="M486.44,469.22c-.08-.06-.06-.49-.06-.69,0-.57,0-1.16,0-1.73a2.78,2.78,0,0,0-.21-1.19c-.65-1.05-1.61,1.11-1.69,1.18a3.23,3.23,0,0,0,0-.77l-.25.31a6.94,6.94,0,0,0-.83.87c-.09.31.14.18.39.25s.12.07.12.32v.59c0,.67,0,1.3,0,2s-.14.56-.43.82a2.46,2.46,0,0,0,0,.47c.19-.09.59-.38.86-.53l.61-.33a1.61,1.61,0,0,0,0-.48c-.49.11-.46.56-.46-1.94,0-.82-.07-1,.2-1.44s.78-.76,1-.31a3.36,3.36,0,0,1,.1,1.11v1.51a.76.76,0,0,1-.4.81,1.48,1.48,0,0,0,0,.47c.27-.15.53-.36.83-.52l.59-.31a.81.81,0,0,0,0-.48C486.78,469.14,486.53,469.28,486.44,469.22Z"/><path class="cls-31" d="M486.6,444.45c0,.12,0,0,0,.15l.46,2,.48,2.18c.09.38.16.71.24,1.08s.73,3.12.74,3.31a1.76,1.76,0,0,0,0-.4v-3c0-1.68,0-9.82-.13-10.31v-.14s0,0,0,.08a.49.49,0,0,0,0,.12,5.76,5.76,0,0,1-.74,2c-.23.52-.42,1-.62,1.57-.07.2-.39,1.14-.41,1.32Z"/><path class="cls-32" d="M366.29,455.83c-.73-2.29-2.42-7.72,1.1-5.36-1.08-5.73-7.53-11.42-7.75-3.71l.19-.1a2.72,2.72,0,0,1,1.8.87,4.07,4.07,0,0,1,1.13,2.71c.41,3.57-.79,3.47-1.07,5.12,2.58,1.34-.52,8.71,2.85,10,1.73.67,1.8-.38,2-2.39.1-.88.19-1.74.26-2.65.11-1.39,0-1.5.75-1.8A25.87,25.87,0,0,1,366.29,455.83Z"/><path class="cls-32" d="M358.67,447.59a10.65,10.65,0,0,1,.55-3.08,4.9,4.9,0,0,1,.45-1.06c.2-.36.43-.5.59-.8-1.44-1.48-3.59-3-4.75-2s-.76,3.88-.4,6.19c.18,1.12,1.66,10.07,3.16,8.6l1.41-1.36h-.25C358.18,451.77,358.74,450.21,358.67,447.59Z"/><path class="cls-32" d="M367.14,447.45a15.2,15.2,0,0,1,1,3.37,28.15,28.15,0,0,1,.29,3.91c.24,3.26-.46,2.5-.54,3.26,0,.05,0,.07,0,.08a.15.15,0,0,1,0,.07c.19.14,1.21-2.19,1.38-2.65.44-1.23,1.41-4.35.62-6.31a8.62,8.62,0,0,0-1.18-1.94,6.82,6.82,0,0,0-3.61-2.55A7.68,7.68,0,0,1,367.14,447.45Z"/><path class="cls-32" d="M367.91,458.07s0,0,0,0Z"/><path class="cls-32" d="M361.07,454.51l.25.11a12.36,12.36,0,0,0,.4-1.28,8.29,8.29,0,0,0,0-4.46,1.62,1.62,0,0,0-1.89-1.28c-.34.09-.25.52-.22,1.09,0,.94,0,1.58-.06,2.43A4.69,4.69,0,0,0,361.07,454.51Zm.53-5.64c-.05.7-.75.16-.88-.36C360.55,447.81,361.35,448.34,361.6,448.87Z"/><path class="cls-32" d="M366.28,453.2a36.14,36.14,0,0,0,1.25,4c.37-.45.19-1.8.12-2.67a17.43,17.43,0,0,1,.14-2.95C366.23,450.63,365.71,450.72,366.28,453.2Zm.17-1.77c.11-.28.47-.12.81.2C367.32,452.42,366.63,452.06,366.45,451.43Z"/><path class="cls-32" d="M361.17,456.61c-.43.32-1-.12-1.47,0,.88,1.33,2.85,1.42,2.53.1S361.25,456.54,361.17,456.61Z"/><path class="cls-32" d="M367.63,459.35c-.22,0-.27.31-.23.75a3.52,3.52,0,0,0,1.53.85,1.24,1.24,0,0,0,1.18-.15,4.77,4.77,0,0,1-1.81-1C368,459.58,367.9,459.29,367.63,459.35Z"/><path class="cls-33" d="M411.06,486.34c0-.79,0-3.78,0-4.66a3.44,3.44,0,0,0-.4-1.76,4.61,4.61,0,0,0-2-1.78,3.34,3.34,0,0,0-1.07-.48.63.63,0,0,0-.41.07c-.49.3-.52,1.07-.53,2.1a31.94,31.94,0,0,0,.15,4.49,3,3,0,0,0,1.75,2.21,4.87,4.87,0,0,1,1.09.76,14,14,0,0,1,.71,1.34,3.26,3.26,0,0,0,1.07.79l-.78-1.94C410.78,487.09,411,487.3,411.06,486.34Zm-.92-.36c-.14-.07-.3-.45-.37-.63a7,7,0,0,0-.34-.67,3.11,3.11,0,0,0-1.07-.83c.05.24.45,1.2.63,1.75-1.16-.59-1.35-.82-1.38-2.93,0-.79,0-1.71,0-2.47s.14-1.09.57-.93a7.23,7.23,0,0,1,1.21.7c.76.5.73.58.77,1.35A42.1,42.1,0,0,1,410.14,486Z"/><path class="cls-33" d="M402.11,476.46c-.09,3.41,2.15,3.23,2.91,4.6a2.55,2.55,0,0,1,.11,1.42c-.12.77-.86.26-1.31,0s-1.16-.66-1.73-1v1.19c1,.54,2.4,1.62,3.3,1.72.6.07.65-.43.67-1.75a3.47,3.47,0,0,0-.67-2.55,8.45,8.45,0,0,0-1.53-1.27,1.81,1.81,0,0,1-.72-.71,3.28,3.28,0,0,1-.07-1.46c.08-.45.14-.39.59-.19l2.49,1.31v-1.13c-.77-.42-2.73-1.82-3.31-1.71S402.15,475.25,402.11,476.46Z"/><path class="cls-33" d="M415.62,489.64c-.54-.34-1.09-.7-1.63-1.06-.26-.18-.53-.34-.8-.55a1.21,1.21,0,0,1-.56-.89c-.18-1.2,0-5.8-.1-6.67l-.85-.53c0,.26,0,3.53,0,4.08a15.47,15.47,0,0,0,.25,3.77,4.08,4.08,0,0,0,1.67,1.74c.68.44,1.36.85,2,1.27A11.2,11.2,0,0,0,415.62,489.64Z"/><path class="cls-32" d="M390.19,475.45l1,.59V469.3c.07.26.16.78.22,1.07.28,1.47.77,4,1.08,5.37.06.27.17.81.24,1a1.33,1.33,0,0,0,1.17.72c.16,0,.2-.33.29-.62.16-.53.29-1.06.44-1.6s.28-1.09.43-1.64c.06-.24.36-1.58.42-1.67.07,1,.06,5.47.05,6.7l1,.6c0-.95.06-7.26-.13-8a1.7,1.7,0,0,0-1-1.24c-.44-.11-.55.17-.72.81l-.83,3.23c-.08.28-.15.53-.22.8s-.17.65-.3.61c-.13-.52-.29-1.46-.41-2.07-.16-.85-.82-4.72-1.06-5.2a1.7,1.7,0,0,0-.5-.66c-.34-.26-.85-.28-1,.05a16.89,16.89,0,0,0-.09,2.46c0,1.79,0,3.61,0,5.39Zm10.26,6.27c0,.75-.05,1-.42.9a25.35,25.35,0,0,1-2.86-1.58,4.45,4.45,0,0,0,.06,1.27,6.94,6.94,0,0,0,2,1.32c.7.33,1.22.63,1.76.33.26-.14.34-.43.37-1.19,0-1.27,0-5.11,0-6.46l-1-.57v4.72c-.33-.21-2.07-1.16-2.21-1.53a39.36,39.36,0,0,1-.12-4.58l-1-.6c0,1,0,2.1,0,3.13a4.5,4.5,0,0,0,.44,2.54c.66,1.07,2.56,1.91,2.84,2.3Z"/><path class="cls-1" d="M377.72,465.54c1.23.73,2.13,0,2.13-1.48v0a4.91,4.91,0,0,0-2.12-4c-1.23-.73-2.13,0-2.13,1.48v0a4.93,4.93,0,0,0,2.12,4Zm0-1.07a2.94,2.94,0,0,1-1.21-2.38h0c0-.91.49-1.36,1.2-.94a2.94,2.94,0,0,1,1.21,2.38h0c0,.91-.49,1.36-1.2.94ZM380.4,467l.88.52v-1.69l.69.41.86,2.19,1,.61-1-2.47c.51,0,.86-.28.86-1.13v0a3.07,3.07,0,0,0-1.51-2.63l-1.83-1.08V467Zm.88-2.2v-1.52l.87.51a1.34,1.34,0,0,1,.69,1.17h0c0,.45-.24.61-.67.35l-.89-.52Z"/><path class="cls-34" d="M428.24,185.58h0c-20.17-10.68-26.89-36.37-20.08-47.72l-1.07-.18,3.6-2.84h0c3.9-3.29,10.05-3.71,18.45.73h0c22.45,11.88,28.24,42.38,17.25,51h0l-3.3,2.58-.44-.72c-3.69,1-8.49.29-14.41-2.84Z"/><path class="cls-35" d="M424.91,188.18h0c-30.45-16.11-30.26-66.48.9-50h0c30.45,16.11,30.26,66.48-.9,50Z"/><path class="cls-2" d="M411.43,154.55l3.29,1.83c1.57.87,2.61.72,2.63-.73v0a3.61,3.61,0,0,0-1.27-2.67c.5,0,.93-.31.94-1.2v0a3.08,3.08,0,0,0-.45-1.61,4.65,4.65,0,0,0-1.8-1.71l-3.21-1.79-.13,7.92Zm4.07-3.34c0,.59-.44.6-1.11.23l-1.4-.78,0-1.68,1.51.84a1.62,1.62,0,0,1,1,1.37v0Zm.34,3.36v0c0,.58-.42.63-1.09.26l-1.81-1,0-1.74,1.77,1c.78.43,1.12.95,1.11,1.48ZM418,158.2l1.55.86.66-1.42,2.93,1.63.6,2.13,1.59.88-2.84-9.62-1.4-.79L418,158.2Zm2.78-1.8,1-2.05.88,3.08-1.84-1Zm8.43,8.18c1.33.74,2.13.64,2.86.16l-.95-1.66a1.73,1.73,0,0,1-1.84-.08,4.31,4.31,0,0,1-2-3.61v0c0-1.36.87-2,2-1.35a5,5,0,0,1,1.76,1.88l1-.74a7,7,0,0,0-2.71-2.74c-2.13-1.19-3.64-.17-3.68,2.09v0a7.34,7.34,0,0,0,3.49,6.05Zm4.07,2.12,1.52.85,0-2.42.81-.5,2.1,4.56,1.82,1-2.87-6.2,2.87-1.79-1.84-1-2.86,1.9.06-3.46-1.53-.85-.12,7.92Zm-18.59,1.49,5.27,2.94,0-1.55-3.75-2.1,0-1.66,3.26,1.82,0-1.55-3.26-1.82,0-1.61,3.71,2.07,0-1.55-5.22-2.91-.12,7.92Zm6.63,3.69,1.51.84.08-5,3.27,6.9,1.29.72.13-7.92-1.51-.84-.07,4.88-3.17-6.68-1.4-.79-.13,7.92Zm7.82,4.36,2.71,1.5c2.17,1.21,3.7.32,3.74-1.91v0a7.22,7.22,0,0,0-3.62-6l-2.7-1.5-.13,7.92Zm2.81-4.85a4.13,4.13,0,0,1,2,3.55v0c0,1.4-.87,1.89-2.12,1.2l-1.18-.65.08-4.78,1.18.65Z"/><path class="cls-36" d="M179.21,13.43h0l-4.73-2.73c-2.77-1.94-6.94-1.8-11.57.86L19,94c-8.17,4.68-14.69,15.5-14.69,24l0,145.66c0,11.43,4.86,14.37,7.56,17.25h0c2.57,3.34,7.53,3.8,13.12.6L168.69,199c8.16-4.69,14.69-15.5,14.69-24l0-149.81h0V21.76c0-4.14-1.61-7-4.2-8.33Z"/><path class="cls-3" d="M180.58,12.52l.33.19v0A8.61,8.61,0,0,1,183.64,16a12.81,12.81,0,0,1,1.24,5.8v.91h0v2.48l0,149.81c0,4.56-1.73,9.69-4.53,14.28a32.07,32.07,0,0,1-10.9,11L25.7,282.8a15.62,15.62,0,0,1-8.37,2.36,8.76,8.76,0,0,1-5.51-2.11h0l-.06-.07a8.66,8.66,0,0,1-1-1.08c-.33-.35-.7-.71-1.09-1.09-2.93-2.82-6.84-6.61-6.83-17.14L2.85,118c0-4.56,1.73-9.7,4.54-14.29a32,32,0,0,1,10.9-11L162.17,10.28a16.72,16.72,0,0,1,7-2.34,9.29,9.29,0,0,1,6.12,1.54l4.62,2.66a7.08,7.08,0,0,1,.66.38Zm-3.07,1.63L173.74,12l-.11-.07a6.39,6.39,0,0,0-4.24-1,13.91,13.91,0,0,0-5.75,1.95L19.75,95.27a29.12,29.12,0,0,0-9.85,10C7.36,109.42,5.8,114,5.8,118l0,145.66c0,9.28,3.39,12.56,5.93,15l.15.15.15-.15L13,280a5.72,5.72,0,0,0,4.45,2.19,12.74,12.74,0,0,0,6.77-2L168,197.72a29.1,29.1,0,0,0,9.85-10c2.54-4.15,4.11-8.73,4.11-12.74l0-147.33h0V21.76a9.77,9.77,0,0,0-.92-4.47,5.61,5.61,0,0,0-2.47-2.55l-1-.53v-.06Z"/><path class="cls-36" d="M177.61,130.84l.06-107.11,1.87-3.31-1.83-1.48,1.5-5.51-4.73-2.73c-2.77-1.94-6.94-1.8-11.57.86L19,94c-8.17,4.68-14.69,15.5-14.69,24l0,145.77c0,11.43,4.86,14.37,7.56,17.26L150.23,118.69l27.38,12.15Z"/><path class="cls-3" d="M177.32,130.39l.07-106.66,0-.14,1.74-3.1-1.63-1.33-.15-.12.05-.18,1.44-5.29L174.34,11h0a7.54,7.54,0,0,0-5-1.23,14.85,14.85,0,0,0-6.24,2.11L19.43,94.25A30,30,0,0,0,9.19,104.66C6.54,109,4.91,113.79,4.91,118l0,145.77c0,9.78,3.59,13.26,6.28,15.87l1,.94L150.06,118.5l.14-.16.2.09,26.92,12ZM178,23.81l-.06,107v.46l-.42-.19-27.13-12.06-138,162.19-.21.24-.23-.23c-.35-.39-.75-.77-1.16-1.17C8,277.4,4.29,273.82,4.29,263.79L4.33,118c0-4.34,1.66-9.26,4.35-13.67A30.84,30.84,0,0,1,19.14,93.73L162.79,11.3a15.66,15.66,0,0,1,6.49-2.18,8.11,8.11,0,0,1,5.37,1.34l4.71,2.72.2.11-.06.22-1.45,5.32,1.68,1.36.19.16-.12.21L178,23.81Z"/><path class="cls-2" d="M183.41,25.15V21.76c0-8.53-6.83-11.67-15-7L24.7,97.31C16.54,102,10,112.81,10,121.34l0,149.82h0v3.38c0,8.53,6.83,11.67,15,7L168.69,199c8.16-4.68,14.69-15.5,14.69-24l0-149.81Z"/><path class="cls-3" d="M183.11,25.15V21.76a10.68,10.68,0,0,0-1.26-5.38,6.69,6.69,0,0,0-2.58-2.59,7.63,7.63,0,0,0-3.69-.89,14.21,14.21,0,0,0-7,2.13L25.27,97.57A30.27,30.27,0,0,0,15,108c-2.64,4.33-4.26,9.13-4.26,13.35l0,149.3h0v3.9A10.82,10.82,0,0,0,12,279.93a6.69,6.69,0,0,0,2.59,2.58,7.52,7.52,0,0,0,3.69.9,14.26,14.26,0,0,0,7-2.14l143.34-82.53a30.33,30.33,0,0,0,10.24-10.42c2.64-4.33,4.27-9.13,4.27-13.36l0-149.32h0v-.49Zm.59-3.39v2.89h0v.5l0,149.81c0,4.34-1.65,9.25-4.34,13.66a30.88,30.88,0,0,1-10.46,10.63L25.53,281.78A14.75,14.75,0,0,1,18.26,284a8.12,8.12,0,0,1-4-1,7.36,7.36,0,0,1-2.81-2.81,11.39,11.39,0,0,1-1.33-5.68v-2.86h0v-.52l0-149.82c0-4.33,1.66-9.25,4.35-13.66A30.9,30.9,0,0,1,25,97.06L168.32,14.52a14.81,14.81,0,0,1,7.27-2.21,8.18,8.18,0,0,1,4,1,7.29,7.29,0,0,1,2.81,2.81,11.31,11.31,0,0,1,1.33,5.68Z"/><polygon class="cls-3" points="183.55 31.71 10.15 131.29 9.99 131.38 9.84 131.28 4.16 127.6 4.49 127.11 10.01 130.69 183.26 31.2 183.55 31.71"/><path class="cls-3" d="M37.85,100c-1.48.53-2.69,2.55-2.69,4.5s1.21,3.11,2.69,2.58,2.69-2.55,2.69-4.5-1.2-3.11-2.69-2.58Zm-14.18,8.14c-1.48.53-2.68,2.55-2.68,4.5s1.2,3.11,2.68,2.58,2.69-2.55,2.69-4.5-1.2-3.11-2.69-2.58Zm7-4c-1.48.53-2.69,2.54-2.69,4.5s1.21,3.11,2.69,2.58,2.69-2.55,2.69-4.51-1.21-3.1-2.69-2.57Z"/><path class="cls-37" d="M47.59,160.86A31.7,31.7,0,0,0,50.86,159l3.76-2.15L50.93,148h-.08l-3.26,12.85Zm3.27-24.19v.12c.08.05,0,0,.08.08l.69,1.65c.65,1.61,1.54,3.92,2.18,5.33,1,2.09,1.94,4.87,2.9,7.07s1.9,4.77,2.92,7.1c.51,1.16.94,2.38,1.46,3.55l1.44,3.57-3.91,2.17c-.17,0-.29-.57-.37-.78-.65-1.77-1.62-4.17-2.15-5.81l-5.22,3.08,0-.06-4.76,2.75-2.22,9.18-4.16,2.5c.08-.55,2.57-9.6,2.8-10.48.36-1.35,8.19-30.56,8.37-31Zm.06,46.67c.61-.8,1.22-1.61,1.8-2.43,1.72-2.38,3.8-5.06,5.45-7.38s3.73-5,5.44-7.39l.44-.59c.72-1,.54-.46.71-2.43.07-.87,2.49-28.88,2.5-29.74l-16.4,1.53c-.34.25-1.59,1.67-2,2.1l-6,6.5c-2.65,2.88-5.38,5.7-8,8.61-.07.39,1.54,18.43,1.8,21.39.2,2.35.35,4.85.62,7.14,1.1.29,2.28.46,3.4.71s2.25.51,3.41.71l5.1,1.05c.26.06,1.53.44,1.72.22Z"/><path class="cls-38" d="M99.34,157.76l.37-.21a22.35,22.35,0,0,1,1.64-1.59l4.77-4.48c2.13-2,4.26-3.95,6.36-6l2.87-43.39-31.63,18.3,2.87,40.07c.71-.06,8.11-1.77,9.53-2.08a23.68,23.68,0,0,1,3.22-.66Z"/><path class="cls-2" d="M99.52,135.31l4.87-2.81-.45,6.86-4.37,4.06-4.39,1a.41.41,0,0,1-.07-.2l-.29-3.7-4,2.29c0,.65.47,7.44.58,7.75l8-1.73.12-.07,8.13-7.6L108.71,125c-.21-.14-.75.3-1,.47l-8.13,4.7-5.23,3-.35-5,5.58-3.23,9.39-5.45c.17-.16,0,0,.17-.2l.36-5.23-9.93,5.74-9.92,5.74,1.05,14.86,8.87-5.09Z"/><path class="cls-1" d="M131.67,91.43l2.88,40.21c2.15-.46,4.28-1,6.36-1.45l6.29-1.33.41-.24,12.74-12.24,2.88-44.06L131.67,91v.46Z"/><path class="cls-2" d="M147.47,95.09,153,91.83a51.22,51.22,0,0,1-.38,5.56l-5,3-4.85,2.85.39,5,4.33-2.55,4.89-2.83-.45,6.92-4.37,4.14a27.54,27.54,0,0,1-4.47,1.07l-.27-3.94-3.92,2.28.5,7.83,8.09-1.77.23-.32c.2-.11,7.46-6.85,7.89-7.54l1.77-27.24c-.35-.14-4.44,2.46-4.88,2.72l-5,3-9.83,5.82.32,5,9.53-5.6Z"/><polygon class="cls-34" points="89.17 183.39 99.28 185.76 99.28 190.77 92.39 189.15 92.39 197.79 99.28 199.41 99.28 204.73 89.17 202.35 89.17 183.39"/><polygon class="cls-35" points="109.4 172.08 99.28 185.76 99.28 190.77 106.17 181.46 106.17 190.09 99.28 199.41 99.28 204.73 109.4 191.05 109.4 172.08"/><polygon class="cls-35" points="99.28 185.76 89.17 199.44 89.17 218.41 99.28 204.73 99.28 199.41 92.39 208.73 92.39 200.09 99.28 190.77 99.28 185.76"/><polygon class="cls-34" points="99.28 185.76 109.4 188.13 109.4 207.1 99.28 204.73 99.28 199.41 106.17 201.03 106.17 192.39 99.28 190.77 99.28 185.76"/><path class="cls-37" d="M157.67,147.1l-6,1.71.06.49-.06-.31-4.63,10.36-4.63-5-.06.38.06-.56-6,5.17a87.07,87.07,0,0,0,.18,24.8l6.2-2.19a82.11,82.11,0,0,1-1.2-15.38l5.42,3.87,5.42-10.12a105.07,105.07,0,0,1-1.2,16.76l6.21-5A89.66,89.66,0,0,0,157.67,147.1ZM139.2,179.89c-.13.1-.25,0-.27-.14a88.05,88.05,0,0,1-.53-9c0-3.15.1-6.47.41-10a.58.58,0,0,1,.27-.46c.13,0,.22.08.2.28-.3,3.47-.43,6.75-.4,9.87a83.59,83.59,0,0,0,.52,8.9A.66.66,0,0,1,139.2,179.89Zm12.43-23.51-4.45,8.7c-.09.18-.23.26-.32.19l-4.69-3.43a.44.44,0,0,1,0-.49c.08-.2.24-.3.34-.23l4.52,3.32,4.29-8.39c.1-.19.25-.27.34-.18A.51.51,0,0,1,151.63,156.38Zm3.47,14.05a.55.55,0,0,1-.28.45c-.12,0-.21-.09-.19-.29.31-3.18.49-6.35.52-9.5a86.49,86.49,0,0,0-.41-9.4.64.64,0,0,1,.21-.52c.13-.1.25,0,.26.15a90.88,90.88,0,0,1,.42,9.5Q155.58,165.61,155.1,170.43Z"/><path class="cls-1" d="M46.76,233.12c1.82-1,3.14-3.65,3.14-6v0c0-2.35-1.31-3.55-3.13-2.55s-3.15,3.66-3.15,6v0c0,2.36,1.31,3.55,3.14,2.55Zm13-12.33v1.32l19.89-10.9V209.9L59.8,220.79Zm-10.1-5.57V193.9l-.94.52v21.3l.94-.5Zm1,15.59,1.3-.71v-2.66l1-.56,1.27,2,1.52-.84-1.45-2.17a4.69,4.69,0,0,0,1.27-3.26v0a2.12,2.12,0,0,0-.51-1.62c-.39-.33-1-.3-1.72.11l-2.7,1.48v8.29Zm1.3-5v-2.38l1.29-.71c.64-.34,1-.15,1,.63v0a2,2,0,0,1-1,1.72l-1.32.72Zm-5.24,5.6c-1,.57-1.79-.21-1.79-1.63v0a4.25,4.25,0,0,1,1.78-3.56c1-.57,1.78.21,1.78,1.63v0a4.21,4.21,0,0,1-1.77,3.55Z"/><path class="cls-7" d="M450.29,175.49a.89.89,0,0,1,.89-1.54L778.89,364.76a23.3,23.3,0,0,0,11.59,3.58,13.43,13.43,0,0,0,6.91-1.81,14.19,14.19,0,0,0,5-5.19,25.51,25.51,0,0,0,3-12.84V230.77a.89.89,0,0,1,1.77,0V348.5a27.33,27.33,0,0,1-3.23,13.73,15.91,15.91,0,0,1-5.63,5.82,15.13,15.13,0,0,1-7.81,2.07A25.1,25.1,0,0,1,778,366.29L450.29,175.49Z"/><path class="cls-6" d="M701.5,166.11a.89.89,0,1,1,1.77,0v72.16c0,6.65-1.08,11.92-3.19,15.52a11.48,11.48,0,0,1-3.9,4.12,10.13,10.13,0,0,1-5.37,1.44c-3,0-6.58-1.12-10.61-3.49l-230.08-135a20.57,20.57,0,0,0-10.09-3,11.48,11.48,0,0,0-5.24,1.16,9.68,9.68,0,0,0-4,3.81c-1.34,2.3-2.15,5.49-2.15,9.76v5.64a.89.89,0,0,1-1.77,0v-5.64c0-4.6.9-8.09,2.4-10.65a11.36,11.36,0,0,1,4.68-4.49,13.06,13.06,0,0,1,6-1.37,22.34,22.34,0,0,1,11,3.24L681.09,254.34c3.74,2.2,7,3.24,9.72,3.24a8.41,8.41,0,0,0,4.46-1.18,9.77,9.77,0,0,0,3.29-3.5c1.94-3.32,2.94-8.29,2.94-14.63V166.11Z"/><path class="cls-36" d="M772.52,69.45l5.19-3c2.25-1.53,5.67-1.42,9.46.67L835.75,94c6.68,3.69,12,12.2,12,18.91L847.83,259c0,3.39-1.52,5.7-3.62,6.85L838.76,269h0c-2.27,1.44-5.65,1.29-9.37-.76l-48.58-26.84c-6.67-3.69-12-12.2-12-18.91l0-146.25A7.7,7.7,0,0,1,770.45,71a6.75,6.75,0,0,1,2.07-1.52Z"/><path class="cls-3" d="M771.82,68.18l5.14-3a8.17,8.17,0,0,1,5.2-1.25A14.49,14.49,0,0,1,788,65.82l48.92,26.83a26.2,26.2,0,0,1,9.08,8.79,22.1,22.1,0,0,1,3.79,11.42L849.87,259a10,10,0,0,1-1.12,4.79,8.14,8.14,0,0,1-3.3,3.35h0l-5.4,3.1-.51.29-.19.11h0a8.47,8.47,0,0,1-4.46.75,14.47,14.47,0,0,1-5.77-1.86L780.2,242.68a26.15,26.15,0,0,1-9.09-8.79,22,22,0,0,1-3.79-11.42l-.06-146.25a10.93,10.93,0,0,1,.51-3.42A8,8,0,0,1,769.36,70a6.76,6.76,0,0,1,2.08-1.6l.38-.21Zm6.7-.47-5.22,3-.4.22a4.57,4.57,0,0,0-1.32,1,5,5,0,0,0-1,1.77,7.75,7.75,0,0,0-.37,2.51l.06,146.25a19.17,19.17,0,0,0,3.33,9.84,23,23,0,0,0,8,7.78l48.92,26.83a11.45,11.45,0,0,0,4.57,1.51,5.45,5.45,0,0,0,3.35-.7l.65-.41h0l4.83-2.77,0,0a5.18,5.18,0,0,0,2.11-2.14,7.2,7.2,0,0,0,.77-3.42l0-146.12a19.26,19.26,0,0,0-3.33-9.84,23.24,23.24,0,0,0-8-7.78L786.6,68.41A11.47,11.47,0,0,0,782,66.89a5.27,5.27,0,0,0-3.34.77l-.09,0Z"/><path class="cls-36" d="M775,218.73l-.1-141.9-1.53-2.61,1.5-1.17-3.35-3,6.22-3.61c2.26-1.53,5.67-1.42,9.47.67L835.81,94c6.68,3.69,12,12.2,12,18.91l0,146.12c0,3.39-1.52,5.7-3.62,6.85L838.82,269l-3-1.45-2.51-4.31-46.29-25.57c-6.68-3.69-12-12.2-12-18.92Z"/><path class="cls-3" d="M774.76,218.73l-.1-141.82-1.5-2.54-.13-.22.2-.16,1.23-.95-3.1-2.77-.3-.27.35-.2,6.25-3.61a7,7,0,0,1,4.46-1.06,13.36,13.36,0,0,1,5.38,1.72l48.92,26.84a24.93,24.93,0,0,1,8.66,8.38,21,21,0,0,1,3.61,10.79L848.75,259a9,9,0,0,1-1,4.25,7,7,0,0,1-2.83,2.86h0l-5.48,3.15-.14.07-.13-.06-3-1.45-.13-.12-2.48-4.24L787,237.91a25.14,25.14,0,0,1-8.66-8.39,21,21,0,0,1-3.6-10.79Zm.49-141.9.1,141.9a20.32,20.32,0,0,0,3.52,10.48,24.25,24.25,0,0,0,8.44,8.18L833.94,263l.11.11,2.48,4.23,2.77,1.35,5.35-3.07h0a6.38,6.38,0,0,0,2.59-2.63,8.28,8.28,0,0,0,.91-4l-.06-146.13a20.33,20.33,0,0,0-3.51-10.47,24.42,24.42,0,0,0-8.44-8.18L787.21,67.37a12.58,12.58,0,0,0-5.13-1.65,6.41,6.41,0,0,0-4.1,1h0l-5.91,3.41,3.07,2.73.26.24-.29.22-1.3,1,1.41,2.39,0,.15Z"/><path class="cls-2" d="M768.86,222.47,768.8,76.22a7.89,7.89,0,0,1,1.56-5.07c2.11-2.6,6.16-2.94,10.71-.43l48.57,26.84c6.68,3.69,12,12.2,12,18.91l.06,146.25c0,6.72-5.58,9.19-12.26,5.5l-48.58-26.84c-6.68-3.69-12-12.2-12-18.91Z"/><path class="cls-3" d="M768.31,222.47l-.06-146.25a10.22,10.22,0,0,1,.41-2.93A6.89,6.89,0,0,1,769.88,71a6.3,6.3,0,0,1,4.76-2.24A12.28,12.28,0,0,1,781,70.46L829.53,97.3a24.94,24.94,0,0,1,8.6,8.38,21,21,0,0,1,3.57,10.79l.06,146.25a8.87,8.87,0,0,1-1,4.32,6,6,0,0,1-2.35,2.37,6.83,6.83,0,0,1-3.37.81,12.53,12.53,0,0,1-6-1.74l-48.57-26.84a24.94,24.94,0,0,1-8.6-8.38,21.07,21.07,0,0,1-3.58-10.79Zm.53-146.25.06,146.25a20.39,20.39,0,0,0,3.49,10.47,24.37,24.37,0,0,0,8.38,8.19L829.34,268a12,12,0,0,0,5.71,1.68,6.42,6.42,0,0,0,3.09-.74,5.33,5.33,0,0,0,2.11-2.15,8.17,8.17,0,0,0,.92-4l0-146.25A20.58,20.58,0,0,0,837.63,106a24.36,24.36,0,0,0-8.39-8.18L780.67,71a11.67,11.67,0,0,0-6-1.67,5.67,5.67,0,0,0-4.32,2,6.25,6.25,0,0,0-1.11,2.13,9.43,9.43,0,0,0-.39,2.76Z"/><path class="cls-7" d="M794.38,121.44v21a6.6,6.6,0,0,0,1.15,3.62c1,1.47,1.65,1.47,2.9,2.29,0,.29,0,5.9,0,6.33,0,1.52-.14,2.49,1.1,4,.89,1.06,2,1.47,2.76.94.48-.35.4-1.34.4-2.43,0-.43,0-6.11,0-6.35l3.66,2.08c.07.33.1,5.7.1,6.48a5,5,0,0,0,1.33,3.86c.28.34.3.51.66.72a1.41,1.41,0,0,0,1.7.05c.52-.49.62-.7.62-1.94,0-2.13.05-4.25.05-6.38,1.24.55,2.27,1.37,3.28,1,.62-.22,1.15-.86,1.15-2.34V133.23L794.38,121.3v.14Z"/><path class="cls-7" d="M790.32,119.18a1.25,1.25,0,0,0-1.48.18c-.44.49-.33,1.3-.33,2.37v11.89a4,4,0,0,0,.15,1.37c.62,2,2.79,3.58,3.78,2.55.43-.45.34-1.33.34-2.36v-11.9a4,4,0,0,0-.15-1.37,4.64,4.64,0,0,0-.52-1.12,4.25,4.25,0,0,0-1.79-1.61Z"/><path class="cls-7" d="M819.27,135.7c-.66-.28-1.42-.42-1.71-.09-.43.49-.34,1.37-.34,2.43V150c0,.89-.24,1.43.35,2.36,1,1.59,2.65,2.23,3.27,1.46a2.72,2.72,0,0,0,.67-2.11V139.73a4.53,4.53,0,0,0-1-2.7,4.12,4.12,0,0,0-1.78-1.62Z"/><path class="cls-7" d="M813.62,124a20.16,20.16,0,0,0-1.59-3.07,19.49,19.49,0,0,0-1.48-2.08c-.15-.19-.41-.46-.54-.64a4.59,4.59,0,0,1,.49-.72c.14-.21,1.21-1.64,1.24-1.8a.82.82,0,0,0-.21-.67c-.2-.21-.35-.15-.43,0l-1.77,2.49c-.15-.09-.8-.75-1-.93a20.42,20.42,0,0,0-3.51-2.52,15,15,0,0,0-3.49-1.49c-.27-.07-.82-.13-1-.22l-1.75-4.46c-.29-.72-.7-.57-.67-.14,0,.22.63,1.69.73,2l.51,1.28c.09.24.46,1.17.5,1.34a3.32,3.32,0,0,0-1.05.09A4.21,4.21,0,0,0,796,114a9.45,9.45,0,0,0-1.64,5.37l20.9,11.94A21.63,21.63,0,0,0,813.62,124Zm-13-5.06c-1.48-.35-2.08-3.69-.53-3.3a2.47,2.47,0,0,1,1.39,1.93C801.63,118.63,801.13,119.08,800.6,119Zm7.53,3.17a1.53,1.53,0,0,1,.18-1.15.59.59,0,0,1,.69-.21c.72.16,1.28,1.16,1.4,1.95C810.74,124.87,808.51,124.3,808.13,122.12Z"/><polygon class="cls-3" points="776.86 226.12 779.86 225.69 782.86 225.26 782.86 229.38 782.86 233.51 779.86 229.81 776.86 226.12"/><path class="cls-3" d="M805.41,237.74h0a6.33,6.33,0,0,1,2.93,5.08h0c0,1.92-1.32,2.77-2.93,1.9h0a6.36,6.36,0,0,1-2.93-5.09h0c0-1.92,1.32-2.77,2.93-1.89Z"/><polygon class="cls-3" points="827.04 249.73 832.38 252.63 832.38 258.98 827.04 256.08 827.04 249.73"/><path class="cls-39" d="M476.58,397V382.72a15.14,15.14,0,0,0,0-2c-.1-.27-.61-.3-.85-.34s-.61-.12-.91-.18c-.15,0-.3-.06-.45-.09a2.71,2.71,0,0,1-.47-.11l-.15.09c-.23.37-.17.37-.17,1.07,0,1.42,0,8.27-.06,8.63s-.73,0-.94,0c-.48-.13-.51-.15-1,.56l-3.59,5.14a1.9,1.9,0,0,0-.5,1.59v6.14c0,.74.29.64.63.72l2.71.63.88.2c.45.12.67-.37,1-.87,1.2-1.71,2.39-3.45,3.59-5.14C476.68,398.19,476.58,397.8,476.58,397Zm-3.06.39c0,.34-.11.4-.29.66s-1.16,1.67-1.23,1.71a6.84,6.84,0,0,1-1.22-.24c-.19,0-.3.06-.3-.31v-2c0-.34.12-.41.3-.68s1.13-1.64,1.22-1.69a3.28,3.28,0,0,1,.84.14c.41.11.68,0,.68.4Z"/><path class="cls-40" d="M459.67,397.1c-.22.22-3.45,4.89-3.89,5.51a2,2,0,0,0-.55,1.28c0,.72,0,6.73,0,6.93s1.08.43,1.46.53l2.71.62c.49.13.56-.2,1.29-1.22l3.09-4.43a1.93,1.93,0,0,0,.56-1.29c0-.73,0-6.75,0-6.95s-.47-.26-.7-.32l-2.32-.54-.77-.17c-.23-.06-.58-.24-.87.05Z"/><path class="cls-39" d="M443,410.92v9.35c.26.3.3.09.86-.7l1.67-2.37a1.83,1.83,0,0,0,.52-1.49c0-1.26,0-2.56,0-3.82a2.15,2.15,0,0,1,.61-1.37,8.11,8.11,0,0,1,.88-1.17c.23-.15.71,0,.88.07.85.21.67,0,.67,2.4v1.93c0,.86,0,.9.44,1l2.12.47c.18.05.36,0,.45-.35,0-.1.08-9.05,0-9.39s-.48-.38-.74-.44l-3.34-.76c-.43-.12-.5-.08-.94.54l-2.53,3.61-.83,1.19c-.15.22-.29.41-.42.61a1.73,1.73,0,0,0-.33.7Z"/><path class="cls-39" d="M484.05,382.52c-.19.2-.82,1.15-1.05,1.47-.36.5-.69,1-1,1.49l-1,1.46c-.34.5-.7,1-1,1.49a1.57,1.57,0,0,0-.27.92v5.92c0,1.17-.05,1.12.55,1.26l3.65.8c.2.05.35.07.6-.27.71-1,1.38-2,2.09-2.93a1.83,1.83,0,0,0,.46-.82c0-.36-.23-.31-.41-.35-.35-.07-.7-.14-1-.24s-.68-.15-1-.23l-1.05-.24-.5-.11c-.28-.06-.31,0-.31-.56V390.4c0-1.14,0-.77,1.17-2.54.42-.61.42-.5,1.1-.33l.52.12c.3.08.26.06.26.66s-.14,2.12.45,1.24,1.37-1.95,2.06-3c.6-.86.55-.72.55-1.92a6.7,6.7,0,0,0,0-1.12c-.07-.27-.24-.25-.43-.31l-3.62-.85a.5.5,0,0,0-.6.13Z"/><path class="cls-40" d="M494.51,380.85c-.08.31,0,4.85,0,5.55a4.79,4.79,0,0,1-.08,1.32,1,1,0,0,1-.71.66,6.35,6.35,0,0,1-1.23-.27c0-.1,0-5.48,0-6.1s0-.41.48-1.15c.22-.32.44-.65.67-1,.74-1,2-2.9,2.68-3.84.2-.27.37-.15.72-.06s3.32.72,3.36.82c0,.25,0,5.95,0,6.53,0,.11-2.54,3.67-2.82,4.07l-.7,1c-.47.69-.29.68-1.07.47-.6-.16-.27-.26-1.16.76.06.21.68.27.87.32,1,.24.88.27,2-1.29l2.74-3.92c1-1.41.85-1.17.85-3.43V377.2c0-1.66-.07-1.42-1.21-1.68l-2.72-.63a.82.82,0,0,0-1.09.36l-3.65,5.22a2.63,2.63,0,0,0-.63,1.52c0,.66,0,1.41,0,2.06,0,1.39,0,2.77,0,4.16,0,.78.15,1,.51,1s.61.16.92.2c.79.1,1.68-.52,1.94-1.84.13-.66.07-5,.07-6.17s.09-1.1-.37-.82c-.14.08-.22.1-.31.25Z"/><path class="cls-40" d="M495.59,383.94c-.14.86.27,1.3.59,1.38a2.43,2.43,0,0,0,1.6-.54,3.88,3.88,0,0,0,1.4-1.55,2.66,2.66,0,0,0,.19-2.13c-.62-1.06-3.18,1.5-2.89-.13a2.16,2.16,0,0,1,1.84-1.42c.29.12.2.35.36.64a1.58,1.58,0,0,0,.48-.25c.24-.15.22-.25.18-.53-.19-1.3-1-1.08-1.92-.53-2,1.23-2,3.47-1.34,3.76s1.89-.71,2.48-.63c.25,0,.25.55,0,1-.3.61-2.06,2-2.28.89-.05-.27,0-.4-.24-.26a2.14,2.14,0,0,0-.49.34Z"/><path class="cls-40" d="M483.31,389.64v1.27c0,.28,0,.21.38.28a1.69,1.69,0,0,0,.48.09,5.07,5.07,0,0,0,.48-.64c.42-.62.44-.36.41-1.83v-.22a6.2,6.2,0,0,0-.86-.17,15,15,0,0,0-.88,1.22Z"/><path class="cls-41" d="M423.82,548.67l4.83-1.42-5.36-3.19-4.87,1.44,5.4,3.17Zm3.81-9.24,4.37-1.29a22.72,22.72,0,0,0,2.22-2.58c-.21,0-3.94,1.29-4.14,1.39a20.45,20.45,0,0,0-2.45,2.48Zm-9,5.27a7,7,0,0,0,1.12-.3l3.25-1a24.69,24.69,0,0,0,2.22-2.57c-.22,0-3.94,1.28-4.14,1.38a20.45,20.45,0,0,0-2.45,2.48Zm3.18,7.23c.71-.29,3.83-1,4.34-1.3l2.28-2.64c-.58.19-4.08,1.22-4.33,1.38a25.53,25.53,0,0,0-2.29,2.56Zm-9.1,5.3s0,0,.07,0,.06,0,.08,0c.61-.12,4.16-1.22,4.23-1.27a10.81,10.81,0,0,0,1.14-1.27l1-1.2c.07-.13,0-.06.05-.13L415,554.68a27,27,0,0,0-2.32,2.55ZM424.87,559c.41-.07,4.07-1.13,4.36-1.29a24.79,24.79,0,0,0,2.24-2.58c-.34.05-4,1.16-4.3,1.32a25.81,25.81,0,0,0-2.3,2.55Zm7.81-15.7,4.82-1.42-5.22-3.11-4.87,1.44,5.27,3.09Zm-8.58.24,5.28,3.1,2.43-2.84-5.22-3.1-2.49,2.84Zm2.78,12.21,4.89-1.42-5.28-3.1-4.84,1.43,5.23,3.09Zm6.22-17.48,5.28,3.1,2.43-2.84-5.22-3.1-2.49,2.84Zm-15.33,22.83,4.88-1.43-5.28-3.1L412.54,558l5.23,3.09Zm12.58-3.25,5.29,3.11A31.75,31.75,0,0,0,438,558.1L432.86,555l-2.51,2.83Zm4.44,3.61-5.29-3.12-4.85,1.46c1.29.65,4.3,2.64,5.09,3,.34.15.48,0,1.26-.23l3.79-1.09Zm-11.32-2.28,2.35-2.74c.06-.13.08-.06,0-.19l-5.13-3c-.67.66-1.57,1.81-2.28,2.58-.19.21-.27.19-.06.36l5.12,3Zm9.17-5.36L435,551l-5.21-3.09c-.48.5-.89,1-1.34,1.49l-1,1.13c-.18.21-.25.17,0,.36.71.47,1.75,1,2.53,1.46s1.81,1.13,2.58,1.49Z"/><path class="cls-39" d="M450.93,548a.17.17,0,0,1,.11.15.5.5,0,0,1-.17.22,4.08,4.08,0,0,1-.5.32,5.11,5.11,0,0,1-.58.31,1,1,0,0,1-.34.08.54.54,0,0,1-.25-.06l-.6-.36a1.73,1.73,0,0,1-.28,1.07,2.82,2.82,0,0,1-1,.92,6,6,0,0,1-1.24.55,5.36,5.36,0,0,1-1.31.22,5,5,0,0,1-1.33-.11,4.48,4.48,0,0,1-1.25-.5,2.24,2.24,0,0,1-.89-.82,1.07,1.07,0,0,1,0-.91,2.67,2.67,0,0,1,.78-1,10.05,10.05,0,0,1,1.59-1.1l.72-.43-.45-.26a3.33,3.33,0,0,0-.7-.32,2.21,2.21,0,0,0-.67-.13,2.45,2.45,0,0,0-.69.1,4.4,4.4,0,0,0-.75.34,4.25,4.25,0,0,0-.82.62,3.51,3.51,0,0,0-.46.58,3.55,3.55,0,0,0-.27.46.57.57,0,0,1-.23.27.38.38,0,0,1-.22.06.69.69,0,0,1-.28,0,1.9,1.9,0,0,1-.34-.11l-.38-.19a3.29,3.29,0,0,1-.37-.27.36.36,0,0,1-.11-.25.86.86,0,0,1,.14-.4,2.91,2.91,0,0,1,.41-.56,5.45,5.45,0,0,1,.64-.62,6.76,6.76,0,0,1,.88-.6,9.08,9.08,0,0,1,1.66-.78,5.46,5.46,0,0,1,1.55-.28,4.89,4.89,0,0,1,1.51.19,7.13,7.13,0,0,1,1.51.68l5,3Zm-5.28-.68-.79.47a5,5,0,0,0-.79.54,1.27,1.27,0,0,0-.36.48.53.53,0,0,0,0,.41,1.13,1.13,0,0,0,.39.35,2,2,0,0,0,1,.26,2.2,2.2,0,0,0,1.09-.33,1.24,1.24,0,0,0,.58-.6,1.59,1.59,0,0,0,.09-.83l-1.28-.75Zm11.05-11.54a1.05,1.05,0,0,1,.2.14l.29.28L462,541.3a.75.75,0,0,1,.12.2.25.25,0,0,1-.07.2,1.63,1.63,0,0,1-.32.27c-.16.11-.37.24-.65.4l-.68.38a3.6,3.6,0,0,1-.48.19,1.18,1.18,0,0,1-.35,0,1.25,1.25,0,0,1-.32-.08L453.44,541l-.09,0,.06,0,3.41,3.35a.44.44,0,0,1,.14.19.25.25,0,0,1-.07.2,1.41,1.41,0,0,1-.35.28c-.16.11-.38.25-.65.41s-.5.28-.68.37a2.61,2.61,0,0,1-.48.19.92.92,0,0,1-.35,0,1.32,1.32,0,0,1-.32-.07l-8.76-2.83a3.54,3.54,0,0,1-.48-.17l-.25-.12a.21.21,0,0,1-.1-.11.18.18,0,0,1,.07-.16,1.13,1.13,0,0,1,.27-.22c.12-.09.29-.19.49-.31l.56-.31a2.92,2.92,0,0,1,.38-.15.71.71,0,0,1,.28,0l.24.06,7,2.36.12,0-.09-.07-4.13-4a.55.55,0,0,1-.09-.14.19.19,0,0,1,.05-.17,1.64,1.64,0,0,1,.25-.21,4.73,4.73,0,0,1,.48-.3c.21-.12.38-.22.53-.29a2.4,2.4,0,0,1,.36-.14.8.8,0,0,1,.25,0l.22,0,7,2.39.12,0-.08-.07-4.1-4a.6.6,0,0,1-.11-.14.22.22,0,0,1,.06-.17,1.52,1.52,0,0,1,.25-.22l.49-.3a5.85,5.85,0,0,1,.52-.28,1.43,1.43,0,0,1,.37-.15.46.46,0,0,1,.25,0,.33.33,0,0,1,.19.06Zm11.86-.63a2.53,2.53,0,0,1,.89.8,1.12,1.12,0,0,1,.14.87,2,2,0,0,1-.53.89,5.21,5.21,0,0,1-1.12.85,8.62,8.62,0,0,1-.86.43q-.45.18-.84.3c-.26.08-.5.14-.7.18a3.55,3.55,0,0,1-.48.05,1.15,1.15,0,0,1-.42-.08,3,3,0,0,1-.61-.3l-.37-.23a.83.83,0,0,1-.19-.17.14.14,0,0,1,0-.12s.05-.05.1-.08a1.07,1.07,0,0,1,.37-.1c.19,0,.42-.07.68-.13a7.27,7.27,0,0,0,.86-.22,4.28,4.28,0,0,0,.91-.4,2.63,2.63,0,0,0,.45-.33A.76.76,0,0,0,467,537a.38.38,0,0,0,0-.31.85.85,0,0,0-.31-.27,1.32,1.32,0,0,0-.58-.17,3.78,3.78,0,0,0-.73.06c-.26.05-.53.11-.83.19s-.59.16-.92.23-.64.15-1,.2a5.88,5.88,0,0,1-1,.07,4.9,4.9,0,0,1-1.06-.14,4.16,4.16,0,0,1-1.06-.45,2.12,2.12,0,0,1-.77-.7,1.09,1.09,0,0,1-.17-.8,1.8,1.8,0,0,1,.46-.85,4.38,4.38,0,0,1,1.09-.84,6.24,6.24,0,0,1,.73-.37c.25-.11.5-.2.72-.28s.43-.13.62-.17l.41-.07h.24l.2.06.25.11a3,3,0,0,1,.33.19c.15.09.28.16.36.22a1.19,1.19,0,0,1,.19.16s.05.08,0,.11a.19.19,0,0,1-.09.09,1.17,1.17,0,0,1-.32.08c-.16,0-.36.07-.58.13a6.51,6.51,0,0,0-.74.21,4.16,4.16,0,0,0-.81.37,2.08,2.08,0,0,0-.43.32.65.65,0,0,0-.18.3.43.43,0,0,0,.06.27.74.74,0,0,0,.24.22,1.22,1.22,0,0,0,.6.16,3.17,3.17,0,0,0,.73-.06c.26,0,.54-.12.84-.19s.61-.17.92-.24.65-.15,1-.21a7.15,7.15,0,0,1,1-.08,5.59,5.59,0,0,1,1.07.13,4,4,0,0,1,1,.43Z"/><path class="cls-42" d="M295.61,465.74c-.34-.46-7.17-4.52-8.31-5.22-.82-.5-3.52-2.28-4.26-2.54-2-.7-3.14.23-4.34,1l-13,7.85c-1.1.67-2.83,1.41-1.87,2.62.35.42,7.19,4.51,8.31,5.2.82.5,3.53,2.29,4.27,2.55,2,.7,3.27-.34,4.29-1l13-7.85C294.83,467.66,296.53,466.93,295.61,465.74Zm-14.9,9.71c-1.28.77-2.49,1.79-4,1.16-1-.42-3-1.84-4-2.42l-7.83-4.82c-1.12-.89.52-1.64,1.81-2.42l12.06-7.3c1.3-.79,2.44-1.76,4-1.12l9.88,6c1.11.68,2.95,1.42,2,2.4a16.23,16.23,0,0,1-1.88,1.18Z"/><path class="cls-42" d="M273,466.69l-4.24,2.57,4.26,0c0-.42,0-.85,0-1.27A3.87,3.87,0,0,0,273,466.69Z"/><path class="cls-42" d="M284.86,465.53l2.14,1.34a17.71,17.71,0,0,0,4.41-.62l-2.34-1.44A22.11,22.11,0,0,1,284.86,465.53Z"/><path class="cls-42" d="M280.25,464.88l4.5-2.74-2.1-1.27c-.77.26-6,3.6-7.07,4.25,1,.33,7.76,2,6.92,3.06-.22.28-6.87,4.21-7.8,4.76l2,1.27c1.21-.71,7.68-4.55,8.25-5.07C287,467.28,282.89,465.67,280.25,464.88Z"/><path class="cls-42" d="M311,485.47a3.84,3.84,0,0,0,1.18-.67,14.81,14.81,0,0,0-4.08-1.43l-5.69,3.45,1.39.86,5-3.05C309.69,484.8,310.65,485.4,311,485.47Z"/><path class="cls-42" d="M330.32,496l-5,3a7.55,7.55,0,0,1-2.09-.73c-1.18-.59-.86-.69.11-1.28,1.44-.87,2.94-1.74,4.34-2.63l-1.36-.84c-1.11.65-2.19,1.32-3.28,2-2.1,1.27-4.25,2.17-.29,3.82a20.1,20.1,0,0,0,3.27.94l5.68-3.43Z"/><path class="cls-42" d="M323.62,491.87a14.88,14.88,0,0,1-2.38.44c-.39.05-.86.09-1.21.1-.73,0-.52,0-1.19-.36l5.31-3.23-1.37-.84-9.29,5.61,1.36.83,3-1.79.76.46c-.11.17-.07.15-.09.34l-.35,1.08c-.24.51-.76,1.22-.85,1.42l1.58,1a7.48,7.48,0,0,0,.92-1.77,10.82,10.82,0,0,0,.56-1.76,31.41,31.41,0,0,0,4.78-.56Z"/><path class="cls-42" d="M296.76,475.73l3-1.83-1.39-.84-9.27,5.61,1.38.84,5-3a8.78,8.78,0,0,1,2.07.73c1.14.58.66.74-.24,1.29-1.4.84-3,1.73-4.29,2.6l1.36.84c.87-.51,5-2.93,5.39-3.34C301.46,477,297.52,476.08,296.76,475.73Z"/><path class="cls-42" d="M298.87,482.65a4.29,4.29,0,0,1,1.2-1l4.2,2.57c1.91-1.08,3.25-2.1,1.73-3.35a12.62,12.62,0,0,0-3.34-1.71c-.39-.14-.36-.14-.71,0-1.83.7-5.49,2.49-5.1,3.88.17.61,1,1.18,1.88,1.63a15.25,15.25,0,0,0,2.78,1l.85-.78C301.51,484.54,298.12,483.71,298.87,482.65Zm3.68-2.31a9.29,9.29,0,0,1,2.09,1.19c.44.44,0,.88-.74,1.29l-2.85-1.73A8.4,8.4,0,0,1,302.55,480.34Z"/><path class="cls-42" d="M317.42,488.57c-.11-.69-1-1.45-2.09-1.94a6.24,6.24,0,0,0-6.39,1c-1.9,1.36-1.68,2.66.8,3.84,2.12,1,4.41.46,6.38-.94C317.08,489.83,317.52,489.22,317.42,488.57Zm-2.71,1.14c-1.15.79-2.5,1.45-3.84,1-.66-.24-1.29-.71-1.36-1.12-.13-.78,1.86-1.86,2.82-2.14a2.81,2.81,0,0,1,1.94.05c.62.22,1.3.71,1.34,1.1S315.28,489.32,314.71,489.71Z"/><path class="cls-39" d="M529.73,492a12.62,12.62,0,0,0-2-.09,14.14,14.14,0,0,0-7.05,2.33,5.85,5.85,0,0,0,.09,1.27,13.57,13.57,0,0,1,5.39-2.52l.86-.09c.55,1.13.2,2.24,2,4.55a7.82,7.82,0,0,0,2.59,2.15,17.89,17.89,0,0,0,3.68,1.31,1.43,1.43,0,0,1-.49.95c-1.83-1-6.35-2.27-7.67-.33-1,1.41.89,3.6,3.26,4.8a9.78,9.78,0,0,0,6.54-6.08c.89-3.48-1.33-7.52-7.17-8.25Z"/><path class="cls-8" d="M530.49,507.55a18.76,18.76,0,0,1-6.78-6.08,11,11,0,0,1-1.3-2.74,9.58,9.58,0,0,1-.36-1.4c-.11-.62-.32-.79.64-1.45.21.65,0,1.29.81,2.26,1.61,2,3.93.19,3.36-2.36a5.87,5.87,0,0,0-1.09-2.29c-4.78,1.68-6.61,3.84-7.38,7.07a2.92,2.92,0,0,0,0,1.06c.19,2.33,1.52,4.78,5.16,5.93a12.46,12.46,0,0,0,7,0Z"/><path class="cls-39" d="M567.18,472.43a2.53,2.53,0,0,0-2.38,1.93l-.44-.43c-2.21,1.38-2.05.56.95,3.69a35.52,35.52,0,0,0,2.72,2.77l1.82-1.13-1.29-1.33C573.57,476.06,570.33,472,567.18,472.43Zm.52,4.47c-1.83-1-2.07-3.17-.38-2.87a2.31,2.31,0,0,1,1.57,1.48C569.05,476.13,568.78,476.53,567.7,476.9Z"/><path class="cls-39" d="M550,488.32a12.18,12.18,0,0,0-2.73-2.47c-2.77-1.11-7.22,3.19-2.79,5.4,2.23,1.11,4.38-.64,4-1.49l.46.4c1.79-1.11,1.86-1,1.44-1.43C550.27,488.58,550.14,488.46,550,488.32ZM546.32,490a2.2,2.2,0,0,1-1.52-1.35c-.19-.51-.21-1.12.85-1.4C547.78,487.91,547.9,490.22,546.32,490Z"/><path class="cls-39" d="M574.48,468.75c-1.74-.56-4,1-4.37,2.19-.76,2.15,2.11,4.31,4.37,3.43,1.09-.42,1.48-1.14,1.4-1.65l.46.41,1.77-1.1C577.31,471.29,575.56,469.1,574.48,468.75Zm-.42,4.21a2.1,2.1,0,0,1-1.85-1.28c-.24-.57-.3-1.17.8-1.52C573.82,470.42,575.87,472,574.06,473Z"/><path class="cls-39" d="M557.93,480.31a5.15,5.15,0,0,1,0-.78c0-.28.09-1.29-.12-1.51l-1.91,1.19a11.41,11.41,0,0,1,0,1.3l.09,1.32c-.64-.06-2.29-2.24-3.15-3L551,480l5.38,5.55c2-1.23,2-1,1.41-1.58l-1.53-1.59c1,.09,3.54.94,4,.78l1.82-1.14-4.15-1C557.83,480.72,557.94,480.64,557.93,480.31Z"/><path class="cls-39" d="M588.31,465.14a11.54,11.54,0,0,0-.92-.95c-.35.26-1.79,2.68-3.62,1.84a7.35,7.35,0,0,0,2.38-2c.91-1.49-1.7-2.83-4.2-1.15-3,2-.48,5.15,2.6,4.78C586.17,467.48,588.58,465.64,588.31,465.14Zm-5.69-.91c.5-1.22,3.17-.87.13.87A.82.82,0,0,1,582.62,464.23Z"/><path class="cls-39" d="M563.59,477.66c-.91,0-2.46.68-2.65.13,0-.29.27-.48.78-.73s.79-.29,1.2-.46a2.66,2.66,0,0,0-.95-1c-3.38,1.15-4.12,3.15-2.15,3.82,1.21.42,2.55-.34,3.27-.17s.12.69-.44,1a11.82,11.82,0,0,1-1.71.57,2.84,2.84,0,0,0,.94,1c2-.61,4-1.76,3.71-3A2,2,0,0,0,563.59,477.66Z"/><path class="cls-39" d="M582.05,467.66a3.84,3.84,0,0,1-1.61,1.33c-1.73.59-4.13-1.7-.33-3a4.93,4.93,0,0,0-1.05-1c-3.32,1.33-4.22,3.59-2.15,5.1s4.77.33,6-1C583.24,468.62,582.8,468.32,582.05,467.66Z"/><path class="cls-39" d="M554.68,484.69a3.89,3.89,0,0,1-1.6,1.34c-1.76.61-4.13-1.77-.33-3l-1-1.06c-1.64.65-2.7,1.43-3.13,2.47-.82,2,1.9,4.34,5,2.95a6.23,6.23,0,0,0,1.83-1.29C555.85,485.64,555.39,485.32,554.68,484.69Z"/><path class="cls-39" d="M542.23,489.6l-1.17-1.26c-1.35.76-1.18,1.13-1.3,1.79l-.56-.51-1.59,1c.7,1,3.4,3.24,3.68,3.95l.36.24,1.83-1.14C541.72,492,540.25,491,542.23,489.6Z"/><path class="cls-2" d="M524.79,495.65a1.21,1.21,0,0,0,.38,2.38,1.21,1.21,0,0,0-.38-2.38Z"/><path class="cls-2" d="M524.79,495.65a1.21,1.21,0,0,0,.38,2.38,1.21,1.21,0,0,0-.38-2.38Z"/><path class="cls-39" d="M410.85,414.92c-.72-1.32-2.13-2-3.25-2.71v-1c.72.46,2.92,1.71,3.46,2.21v-2.85c-2.47-1.58-5.4-4.23-5.79-1.08a5.91,5.91,0,0,0,1.06,4.27c1.14,1.6,2.31,1.76,3.14,2.9.14,1.28-.78.5-1.66,0l-2.45-1.55v2.57h0a17.21,17.21,0,0,1,1.92,1.18c1.79,1.12,3.67,2.63,4.09.51A7.83,7.83,0,0,0,410.85,414.92Z"/><path class="cls-39" d="M392.44,400.62a5.51,5.51,0,0,0-2.48-3.34c-1.14-.79-2.45-1.69-3.14-1.18s-.55,2.43-.55,4v5.22c0,.18,0,.08.1.2l2,1.25V405l2,1.25v1.81l2.1,1.31v-6.55C392.48,402.23,392.41,401,392.44,400.62Zm-2.09,2.6-1.27-.79-.69-.45v-3l2,1.23v3Z"/><path class="cls-39" d="M384.43,397.11a6,6,0,0,0-2.39-4.75,33.9,33.9,0,0,0-4-2.62V400.6l2,1.25V399.1c.28.34,1.33,2.55,1.57,3s.18.53.63.81l2.73,1.72c-.13-.5-2-4-2.41-4.88C383.81,400.27,384.5,399.19,384.43,397.11Zm-2.43.45a15.47,15.47,0,0,1-2-1.5l0-2.13,2,1.3Z"/><path class="cls-39" d="M395.23,400.59l-.65-.41v10.37l2.16,1.39,0-10.38A7.87,7.87,0,0,0,395.23,400.59Z"/><polygon class="cls-39" points="401.11 404.37 399.02 403.09 398.99 413.49 402.79 415.88 403.24 416.15 404.19 416.76 404.19 413.99 401.12 412.06 401.11 404.37"/><path class="cls-36" d="M667.86,12.35l5.18-3c2.26-1.52,5.68-1.42,9.47.68l48.58,26.83c6.68,3.69,12,12.21,12,18.92l.06,146.12c0,3.38-1.52,5.7-3.63,6.85l-5.44,3.15h0c-2.27,1.43-5.65,1.29-9.37-.76l-48.58-26.84c-6.68-3.69-12-12.2-12-18.92l-.06-146.25a7.69,7.69,0,0,1,1.72-5.24,6.34,6.34,0,0,1,2.07-1.52Z"/><path class="cls-3" d="M667.3,11.07l5.12-3a8.08,8.08,0,0,1,5.17-1.25,14.22,14.22,0,0,1,5.83,1.87L732,35.55a26.09,26.09,0,0,1,9,8.79,22.11,22.11,0,0,1,3.76,11.42l.06,146.12a10.09,10.09,0,0,1-1.11,4.79,8,8,0,0,1-3.28,3.35h0l-5.38,3.1a3.1,3.1,0,0,1-.5.29l-.18.11h0a8.59,8.59,0,0,1-4.44.75,14.36,14.36,0,0,1-5.73-1.86l-48.63-26.84a26,26,0,0,1-9-8.78,22.19,22.19,0,0,1-3.77-11.43l-.05-146.25a10.87,10.87,0,0,1,.5-3.41,7.64,7.64,0,0,1,1.58-2.81,6.73,6.73,0,0,1,2.07-1.6l.37-.22Zm6.67-.46-5.19,3-.39.23a4.28,4.28,0,0,0-1.32,1,4.87,4.87,0,0,0-1,1.77,7.92,7.92,0,0,0-.37,2.5l.06,146.25a19.25,19.25,0,0,0,3.31,9.85,23.28,23.28,0,0,0,8,7.78l48.63,26.83a11.54,11.54,0,0,0,4.54,1.51,5.36,5.36,0,0,0,3.33-.7l.66-.42,0,0,4.81-2.77,0,0a5.22,5.22,0,0,0,2.1-2.14,7.2,7.2,0,0,0,.77-3.42L741.9,55.76a19.33,19.33,0,0,0-3.32-9.84,23.1,23.1,0,0,0-8-7.78L682,11.3a11.44,11.44,0,0,0-4.61-1.51,5.19,5.19,0,0,0-3.33.77l-.08,0Z"/><path class="cls-36" d="M670.36,161.63l-.09-141.9-1.53-2.61,1.5-1.17-3.35-3,6.21-3.62c2.27-1.52,5.68-1.42,9.47.68l48.58,26.83c6.68,3.69,12,12.21,12,18.92l.06,146.12c0,3.38-1.52,5.7-3.62,6.85l-5.45,3.15-3-1.45-2.51-4.31-46.29-25.58c-6.68-3.69-12-12.2-12-18.91Z"/><path class="cls-3" d="M670.08,161.63,670,19.81l-1.5-2.54-.13-.23.21-.16,1.22-.94-3.09-2.77-.31-.27.36-.21L673,9.09A6.94,6.94,0,0,1,677.43,8a13.22,13.22,0,0,1,5.36,1.73l48.8,26.84A24.88,24.88,0,0,1,740.23,45a21.07,21.07,0,0,1,3.6,10.79l0,146.12a9,9,0,0,1-1,4.24,7,7,0,0,1-2.82,2.87h0l-5.47,3.14-.14.08-.13-.07-3-1.45-.13-.12-2.47-4.23L682.32,180.8a25,25,0,0,1-8.64-8.38,21.07,21.07,0,0,1-3.6-10.79Zm.5-141.9.1,141.9a20.41,20.41,0,0,0,3.5,10.47,24.48,24.48,0,0,0,8.42,8.19l46.51,25.57.12.11,2.47,4.23,2.76,1.34,5.33-3.06h0a6.33,6.33,0,0,0,2.58-2.62,8.41,8.41,0,0,0,.91-4l-.06-146.12a20.41,20.41,0,0,0-3.5-10.47,24.48,24.48,0,0,0-8.42-8.19l-48.8-26.83a12.62,12.62,0,0,0-5.12-1.66,6.49,6.49,0,0,0-4.09,1v0L667.39,13l3.06,2.73.26.23-.27.22-1.3,1,1.4,2.39,0,.15Z"/><path class="cls-2" d="M664.19,165.36l-.06-146.24A7.9,7.9,0,0,1,665.7,14c2.11-2.59,6.15-2.93,10.7-.42L725,40.46c6.68,3.68,12,12.19,12,18.91l.06,146.25c0,6.71-5.59,9.19-12.27,5.5l-48.57-26.84c-6.68-3.69-12-12.2-12-18.92Z"/><path class="cls-3" d="M664.19,165.36l-.06-146.25a9.76,9.76,0,0,1,.41-2.92,6.89,6.89,0,0,1,1.22-2.33,6.31,6.31,0,0,1,4.78-2.24,12.31,12.31,0,0,1,6.34,1.74l48.75,26.83a25,25,0,0,1,8.63,8.39,20.87,20.87,0,0,1,3.59,10.79l.06,146.25a8.8,8.8,0,0,1-1,4.31,5.94,5.94,0,0,1-2.36,2.38,7,7,0,0,1-3.39.81,12.59,12.59,0,0,1-6-1.75l-48.76-26.83a24.85,24.85,0,0,1-8.63-8.38,21,21,0,0,1-3.59-10.8Zm.53-146.25.06,146.25a20.35,20.35,0,0,0,3.5,10.48A24.28,24.28,0,0,0,676.7,184l48.75,26.84a12.05,12.05,0,0,0,5.72,1.67,6.38,6.38,0,0,0,3.11-.74,5.52,5.52,0,0,0,2.12-2.14,8.31,8.31,0,0,0,.92-4l-.06-146.25a20.31,20.31,0,0,0-3.5-10.47,24.28,24.28,0,0,0-8.41-8.19L676.59,13.88a11.76,11.76,0,0,0-6-1.67,5.72,5.72,0,0,0-4.34,2,6.35,6.35,0,0,0-1.12,2.13,9.33,9.33,0,0,0-.38,2.75Z"/><path class="cls-3" d="M700.6,175.93c3.2,1.1,5.79,5.28,5.79,9.33s-2.59,6.45-5.79,5.35-5.8-5.28-5.8-9.33,2.6-6.45,5.8-5.35Z"/><path class="cls-43" d="M715.53,94.36c-.06-.16-.71-.89-1-1.25A21.67,21.67,0,0,1,712.1,89a19.24,19.24,0,0,1-1.69-6.67,9.7,9.7,0,0,1,1.12-5.75,5.2,5.2,0,0,1,3-2.36A21.38,21.38,0,0,0,712.9,71a20.2,20.2,0,0,0-2.21-2.89,12.06,12.06,0,0,0-6-3.82,16.8,16.8,0,0,0-2.58-.23,3.79,3.79,0,0,1-2.84-.92c-1.79-1.57-3.35-3.81-5.42-5a6.43,6.43,0,0,0-5.33-.75,5.78,5.78,0,0,0-3.23,3.12c-1.78,3.57-1.58,9.37-.48,15A60.67,60.67,0,0,0,689.64,90c.26.57.54,1.13.81,1.63a17,17,0,0,0,.93,1.57,8.61,8.61,0,0,0,2.51,2.7c2.83,1.67,4.65-.63,8.64,3,.91.83,1.66,1.81,2.53,2.66,1.74,1.67,3.37,2.25,4.77,1.57a11.21,11.21,0,0,0,3.53-3.7,15.09,15.09,0,0,0,1.23-2.23,10.4,10.4,0,0,0,.94-2.82Zm-15.79-33.7c3.34,1.93,6.18.29,7.26-2.91a10.47,10.47,0,0,0,.52-4.38,5.29,5.29,0,0,0-4.52-.15,5.45,5.45,0,0,0-2.72,3.13,9.68,9.68,0,0,0-.54,4.31Z"/><path class="cls-44" d="M700.23,140.47c-1.89-.95-3.22-3.6-3.22-5.87s1.42-3.41,3.22-2.56a7,7,0,0,1,3.22,5.87C703.45,140.09,702.12,141.42,700.23,140.47Z"/><path class="cls-44" d="M681,125.61a3.25,3.25,0,0,1,.76-1.52,4.58,4.58,0,0,1,1.61-1.14,8.35,8.35,0,0,1,2.65-.56,14.21,14.21,0,0,1,2.84.09H689v-.19a46.67,46.67,0,0,1-.56-5.11,27.17,27.17,0,0,1,.09-2.75c.1-.66.19-1.32.29-1.89a4.61,4.61,0,0,1,.85-1.7,1.7,1.7,0,0,1,1.61-.57,4.47,4.47,0,0,1,1.7.76,10.29,10.29,0,0,1,1.61,1.32,19.64,19.64,0,0,1,2.56,3,39.36,39.36,0,0,1,2.65,4.07c.09.19.19.29.28.48a.1.1,0,0,0,.1-.1c.18-.19.47-.28.66-.47a12.89,12.89,0,0,1,3.31-1.33,8.92,8.92,0,0,1,2.27-.09,5.21,5.21,0,0,1,2.18.85,6.56,6.56,0,0,1,2.18,2.56,7.65,7.65,0,0,1,.76,2.36,15.45,15.45,0,0,1,.37,3.5v1.42a12.26,12.26,0,0,1-.18,1.9,24.77,24.77,0,0,1-.48,2.74v.1l.1.09c.47.48,1,.86,1.51,1.33a30.59,30.59,0,0,1,3.31,3.69,25.68,25.68,0,0,1,2.09,3.12,9.93,9.93,0,0,1,.94,2.37,4.71,4.71,0,0,1,.1,2.56,6.33,6.33,0,0,1-.76,1.61,3.67,3.67,0,0,1-1.42,1,8.09,8.09,0,0,1-2.93.76,13.55,13.55,0,0,1-2.75-.1h-.09v.1a23.24,23.24,0,0,1,.38,2.46c.09.94.18,1.89.18,2.74v2.18l-.28,2.27a3.59,3.59,0,0,1-1,1.8A1.75,1.75,0,0,1,709,162a4.29,4.29,0,0,1-1.89-.85c-.57-.38-1-.86-1.61-1.33a20.91,20.91,0,0,1-2.65-3A34.26,34.26,0,0,1,700,152.4c0-.1-.09-.1-.09-.19l-.1.09a4.62,4.62,0,0,1-1.51.85,8.05,8.05,0,0,1-2.94.95,5.68,5.68,0,0,1-2.55-.19,4.09,4.09,0,0,1-1.52-.85,6.3,6.3,0,0,1-1.89-2.46,11.84,11.84,0,0,1-.85-2.37,20.89,20.89,0,0,1-.48-3.41c0-1.13,0-2.17.1-3.31a25.63,25.63,0,0,1,.47-2.93v-.19l-.09-.1c-.48-.47-1.05-.95-1.52-1.42a35.92,35.92,0,0,1-3.5-4,19,19,0,0,1-1.8-2.94,11.09,11.09,0,0,1-.95-2.46A7.06,7.06,0,0,1,681,125.61Zm15-8.81a15.67,15.67,0,0,0-2.08-2.27,4.78,4.78,0,0,0-1.23-.85.9.9,0,0,0-1.32.28,5,5,0,0,0-.48,1.23,11,11,0,0,0-.19,1.8v1.7a16.4,16.4,0,0,0,.19,2.09l.29,2.27,2.27.57c.66.19,1.23.47,1.89.66.19.09.29.09.48.19H696a1.57,1.57,0,0,1,.38-.47,16.85,16.85,0,0,1,2.55-2.65l.19-.19C698.05,119.55,697.11,118.13,696.06,116.8Zm11.84,26.41c-.29.48-.57,1-.85,1.52s-.67,1.13-1,1.61a15.88,15.88,0,0,0,2.84.85C708.56,145.86,708.28,144.54,707.9,143.21Zm1-8.89a23.72,23.72,0,0,0-2.75-2c.66,1.61,1.23,3.22,1.8,4.83C708.28,136.21,708.56,135.26,708.85,134.32Zm-2.09,5.58c.1-.28.1-.09,0-.47-.47-1.42-.94-2.75-1.42-4.17s-1.13-3-1.7-4.45a.78.78,0,0,0-.19-.28c-.28-.19-.47-.29-.76-.48l-2-1.13a19.82,19.82,0,0,0-2-.95c-.57-.28-1.05-.47-1.61-.76-.19-.09-.19-.09-.29.1a35.88,35.88,0,0,0-2.36,3.79c-.29.56-.57,1.13-.86,1.61V133c.67,2.08,1.33,4.07,2.18,6.15.38,1,.66,1.8,1,2.65a.2.2,0,0,0,.19.19c.57.29,1.14.67,1.61,1,.66.38,1.23.66,1.89,1s1.33.66,2.09.95c.28.09.57.28.85.38.09,0,.19,0,.19-.1.66-.94,1.32-2,2-3A25.26,25.26,0,0,0,706.76,139.9Zm-12.3-13.63a21.57,21.57,0,0,0-2.84-.76c.28,1.33.56,2.56.94,3.88.19-.28.29-.57.48-.85.28-.47.47-.85.75-1.23S694.27,126.65,694.46,126.27Zm-2,9.09c-.38.94-.67,1.89-1,2.84l.1.09c.66.47,1.32,1,2,1.52a5,5,0,0,1,.76.56C693.7,138.67,693.13,137.06,692.47,135.36Zm7.76-11.93a12.38,12.38,0,0,0-1.89,2c1.23.56,2.55,1.23,3.78,1.89C701.56,126.08,700.89,124.75,700.23,123.43Zm9.28.94a9.77,9.77,0,0,0-.48-1.51,3.45,3.45,0,0,0-1.13-1.42,2.85,2.85,0,0,0-1.42-.47,3.73,3.73,0,0,0-1.8.09,8.24,8.24,0,0,0-2.65,1c-.19.1-.29.19-.47.29,1,2,2.08,4.07,3,6.24,0,0,0,.1.09.1a.09.09,0,0,0,.09.09l.86.57c.47.29.85.57,1.32.85.66.48,1.42,1,2.08,1.52.1.09.29.19.38.28a17.63,17.63,0,0,0,.38-2.27,22.61,22.61,0,0,0,.1-2.65A15.62,15.62,0,0,0,709.51,124.37Zm1.32,22.91a.35.35,0,0,0,.1.29,9.32,9.32,0,0,0,3.22-.19,4.58,4.58,0,0,0,1.8-.85,2.33,2.33,0,0,0,.75-.85,2.6,2.6,0,0,0,0-2.09,17.45,17.45,0,0,0-.85-1.89,26.91,26.91,0,0,0-1.89-2.65,32.17,32.17,0,0,0-3-3.13,38.33,38.33,0,0,1-1.71,4.64v.29C709.79,143,710.36,145.2,710.83,147.28Zm-6.53,8.43a16.26,16.26,0,0,0,2.08,2.27,3.49,3.49,0,0,0,1.23.85,1.7,1.7,0,0,0,.67.19.75.75,0,0,0,.85-.37,3.16,3.16,0,0,0,.47-1.14c.1-.57.19-1.14.29-1.8V154a24.5,24.5,0,0,0-.19-2.46l-.29-2h-.09l-1.8-.57a8.15,8.15,0,0,1-1.33-.47c-.37-.19-.85-.29-1.23-.48a.33.33,0,0,0-.28.1,22.35,22.35,0,0,1-2.84,3l-.19.19A15.29,15.29,0,0,0,704.3,155.71Zm-4.16-6.53a19.6,19.6,0,0,0,2-2l-1.13-.57c-.48-.28-1-.47-1.52-.76a6,6,0,0,1-1.13-.66C698.72,146.34,700,148.8,700.14,149.18Zm-9.28-1a7.75,7.75,0,0,0,.47,1.61,3.39,3.39,0,0,0,1.23,1.51,4,4,0,0,0,1.42.47,4.54,4.54,0,0,0,2-.18,10,10,0,0,0,2.65-1.33c-.09-.09-.09-.28-.19-.38-.85-1.61-1.61-3.31-2.37-5-.09-.28-.28-.66-.37-.94a.2.2,0,0,0-.19-.19c-.29-.19-.67-.38-1-.57s-.66-.47-1-.66-1-.67-1.42-1-.85-.66-1.33-.95c-.09.67-.19,1.23-.28,1.9a14.85,14.85,0,0,0-.1,2.93C690.57,146.15,690.67,147.1,690.86,148.14Zm-7.1-19.32a14.11,14.11,0,0,0,.75,1.71,22.24,22.24,0,0,0,1.61,2.36,32.37,32.37,0,0,0,3.41,3.7,24.22,24.22,0,0,1,1.8-4.55v-.28c-.66-2.18-1.23-4.36-1.7-6.44a11.73,11.73,0,0,0-3.13.1,4.1,4.1,0,0,0-1.8.66,3.78,3.78,0,0,0-.85.85,1.59,1.59,0,0,0-.28.95A4.81,4.81,0,0,0,683.76,128.82Z"/><path class="cls-44" d="M804.63,203.63c-1.88-.94-3.2-3.57-3.2-5.83s1.42-3.39,3.2-2.54a7,7,0,0,1,3.2,5.83C807.83,203.26,806.52,204.57,804.63,203.63Z"/><path class="cls-44" d="M785.53,188.86a3.35,3.35,0,0,1,.75-1.51,4.74,4.74,0,0,1,1.6-1.13,8.35,8.35,0,0,1,2.64-.56,14.78,14.78,0,0,1,2.82.09h.1v-.18a44,44,0,0,1-.57-5.09,26.47,26.47,0,0,1,.09-2.72c.1-.66.19-1.32.29-1.89a4.87,4.87,0,0,1,.84-1.69,1.74,1.74,0,0,1,1.6-.57,4.56,4.56,0,0,1,1.7.76,10.63,10.63,0,0,1,1.6,1.31,19.92,19.92,0,0,1,2.54,3,36.27,36.27,0,0,1,2.63,4c.1.19.19.28.29.47a.09.09,0,0,0,.09-.09c.19-.19.47-.28.66-.47a12.39,12.39,0,0,1,3.29-1.32,8.83,8.83,0,0,1,2.26-.09,5.11,5.11,0,0,1,2.16.84,6.61,6.61,0,0,1,2.17,2.54,7.44,7.44,0,0,1,.75,2.36,15.25,15.25,0,0,1,.38,3.48v1.41a12,12,0,0,1-.19,1.88,22.49,22.49,0,0,1-.47,2.73v.1l.09.09c.47.47,1,.85,1.51,1.32a31,31,0,0,1,3.29,3.67,24.57,24.57,0,0,1,2.07,3.1,9.86,9.86,0,0,1,.94,2.36,4.63,4.63,0,0,1,.1,2.54,6.6,6.6,0,0,1-.75,1.6,3.72,3.72,0,0,1-1.42,1,7.78,7.78,0,0,1-2.91.75,13.33,13.33,0,0,1-2.73-.09h-.1V213a20.75,20.75,0,0,1,.38,2.45c.09.94.19,1.88.19,2.73v2.16l-.28,2.26a3.56,3.56,0,0,1-.95,1.79,1.71,1.71,0,0,1-1.6.56,4.17,4.17,0,0,1-1.88-.84c-.56-.38-1-.85-1.6-1.32a21.16,21.16,0,0,1-2.63-3,32.86,32.86,0,0,1-2.82-4.33c0-.09-.1-.09-.1-.19l-.09.1a4.68,4.68,0,0,1-1.51.84,8.07,8.07,0,0,1-2.92.94,5.78,5.78,0,0,1-2.54-.18,4.1,4.1,0,0,1-1.5-.85,6.24,6.24,0,0,1-1.88-2.45,11.68,11.68,0,0,1-.85-2.35,20.78,20.78,0,0,1-.47-3.39c0-1.13,0-2.16.09-3.29a27.84,27.84,0,0,1,.47-2.92v-.19l-.09-.09c-.47-.47-1-.94-1.51-1.41a37.58,37.58,0,0,1-3.48-3.95,19.22,19.22,0,0,1-1.79-2.92,11.3,11.3,0,0,1-.94-2.45A7,7,0,0,1,785.53,188.86Zm15-8.75a15.53,15.53,0,0,0-2.07-2.26,4.58,4.58,0,0,0-1.22-.85.91.91,0,0,0-1.32.28,5,5,0,0,0-.47,1.23,10.8,10.8,0,0,0-.19,1.79V182a16.09,16.09,0,0,0,.19,2.07l.28,2.26,2.26.56c.66.19,1.23.47,1.88.66.19.1.29.1.47.19h.1a1.57,1.57,0,0,1,.38-.47,16.69,16.69,0,0,1,2.54-2.64l.18-.18C802.47,182.84,801.53,181.43,800.49,180.11Zm11.77,26.25c-.29.47-.57,1-.85,1.51s-.66,1.13-1,1.6a16,16,0,0,0,2.83.84C812.91,209,812.63,207.68,812.26,206.36Zm.94-8.84a24.66,24.66,0,0,0-2.73-2c.66,1.6,1.22,3.2,1.79,4.8C812.63,199.4,812.91,198.46,813.2,197.52Zm-2.07,5.55c.09-.28.09-.1,0-.47-.47-1.41-.94-2.73-1.42-4.14s-1.12-3-1.69-4.42a.69.69,0,0,0-.19-.29c-.28-.19-.47-.28-.75-.47l-2-1.13a18.58,18.58,0,0,0-2-.94c-.57-.28-1-.47-1.6-.75-.19-.09-.19-.09-.28.09a37.25,37.25,0,0,0-2.36,3.77c-.28.56-.56,1.13-.84,1.6v.28c.65,2.07,1.31,4.05,2.16,6.12.38.94.66,1.78,1,2.63a.2.2,0,0,0,.18.19c.57.28,1.13.66,1.6.94.66.38,1.23.66,1.89,1s1.31.65,2.07.94c.28.09.56.28.84.37.1,0,.19,0,.19-.09.66-.94,1.32-2,2-3C810.37,204.67,810.75,203.92,811.13,203.07Zm-12.24-13.55a21.88,21.88,0,0,0-2.82-.75c.28,1.31.56,2.54.94,3.85.19-.28.28-.56.47-.84.28-.47.47-.85.75-1.23S798.7,189.89,798.89,189.52Zm-2,9c-.38.94-.66,1.88-.94,2.83l.09.09c.66.47,1.32,1,2,1.5a5.42,5.42,0,0,1,.75.57C798.14,201.85,797.58,200.25,796.92,198.55Zm7.71-11.86a13.16,13.16,0,0,0-1.88,2c1.22.57,2.54,1.22,3.77,1.88C806,189.33,805.29,188,804.63,186.69Zm9.23.95a9.77,9.77,0,0,0-.48-1.51,3.4,3.4,0,0,0-1.12-1.41,2.85,2.85,0,0,0-1.42-.47,3.65,3.65,0,0,0-1.78.09,8.19,8.19,0,0,0-2.64,1c-.19.09-.28.19-.47.28,1,2,2.07,4.05,3,6.21a1.28,1.28,0,0,1,.19.19l.85.56c.47.29.84.57,1.31.85.66.47,1.42,1,2.07,1.51.1.09.29.18.38.28a19.74,19.74,0,0,0,.38-2.26,24.91,24.91,0,0,0,.09-2.64A14.39,14.39,0,0,0,813.86,187.64Zm1.31,22.77a.33.33,0,0,0,.1.28,8.75,8.75,0,0,0,3.2-.19,4.42,4.42,0,0,0,1.78-.84,2.19,2.19,0,0,0,.76-.85,2.63,2.63,0,0,0,0-2.07,17.32,17.32,0,0,0-.85-1.88,26.22,26.22,0,0,0-1.88-2.64,31.63,31.63,0,0,0-3-3.1,38.47,38.47,0,0,1-1.7,4.61V204C814.14,206.17,814.7,208.34,815.17,210.41Zm-6.49,8.37a16.11,16.11,0,0,0,2.07,2.26,3.59,3.59,0,0,0,1.22.85,1.83,1.83,0,0,0,.66.19.77.77,0,0,0,.85-.38,3,3,0,0,0,.47-1.13c.09-.56.19-1.13.28-1.79v-1.69a21.88,21.88,0,0,0-.19-2.45l-.28-2h-.09c-.57-.19-1.23-.38-1.79-.57a7,7,0,0,1-1.32-.47c-.37-.19-.85-.28-1.22-.47a.32.32,0,0,0-.28.1,22.14,22.14,0,0,1-2.83,3l-.19.19A15.1,15.1,0,0,0,808.68,218.78Zm-4.14-6.49a18.48,18.48,0,0,0,2-2l-1.13-.56c-.47-.28-1-.47-1.51-.75a7.35,7.35,0,0,1-1.13-.66C803.13,209.47,804.35,211.91,804.54,212.29Zm-9.22-1a7.66,7.66,0,0,0,.47,1.6,3.33,3.33,0,0,0,1.22,1.5,4.12,4.12,0,0,0,1.41.47,4.34,4.34,0,0,0,2-.19,9.8,9.8,0,0,0,2.63-1.31c-.09-.1-.09-.29-.18-.38-.85-1.6-1.6-3.29-2.36-5-.09-.28-.28-.66-.37-.94a.21.21,0,0,0-.19-.19c-.28-.19-.66-.37-.94-.56s-.66-.47-1-.66-.94-.66-1.41-.94-.85-.66-1.32-.94c-.09.66-.19,1.22-.28,1.88a14.77,14.77,0,0,0-.09,2.92C795,209.28,795.13,210.22,795.32,211.26Zm-7.06-19.2a13.86,13.86,0,0,0,.75,1.69,21.7,21.7,0,0,0,1.6,2.36,32.76,32.76,0,0,0,3.39,3.67,23.26,23.26,0,0,1,1.79-4.52V195c-.66-2.17-1.23-4.33-1.7-6.4a11.11,11.11,0,0,0-3.1.09,4.18,4.18,0,0,0-1.79.66,3.78,3.78,0,0,0-.85.85,1.63,1.63,0,0,0-.28.94A5.92,5.92,0,0,0,788.26,192.06Z"/></svg>