<svg id="Layer_1" data-name="Layer 1" xmlns="http://www.w3.org/2000/svg" viewBox="0 0 232 698"><defs><style>.cls-1{fill:#27b5da;}.cls-2{fill:#fff;}.cls-3{fill:#a8aaad;}.cls-4{fill:#f2f2f2;}.cls-5{fill:#848688;}.cls-6{fill:#ec1b5e;}.cls-7{fill:#98ca3c;}.cls-8{fill:#c52d58;}.cls-9{fill:#75b343;}.cls-10{fill:#ae509e;}.cls-11{fill:#c177b1;}.cls-12{fill:#ee3477;}.cls-13{fill:#633b97;}.cls-14{fill:#098e81;}.cls-15{fill:#84bd72;}.cls-16{fill:#f5825c;}.cls-17{fill:#424da1;}.cls-18{fill:#c7d75d;}.cls-19{fill:#4662ad;}.cls-20{fill:#fed764;}.cls-21{fill:#4f81c2;}.cls-22{fill:#414142;}.cls-23{fill:#d82f27;}.cls-24{fill:#646567;}.cls-25{fill:#a42122;}.cls-26{fill:#791514;}.cls-27{fill:#b1b091;}.cls-28{fill:#46a046;}.cls-29{fill:#957a5e;}.cls-30{fill:#4f3729;}.cls-31{fill:#59ae46;}.cls-32{fill:#346792;}.cls-33{fill:#df7026;}.cls-34{fill:#03799c;}.cls-35{fill:#06c1e5;}.cls-36{fill:#e7e7e7;}.cls-37{fill:#dc2a43;}.cls-38{fill:#e65f25;}.cls-39{fill:#595a5c;}.cls-40{fill:#86c440;}.cls-41{fill:#fabe19;}.cls-42{fill:#6964a6;}.cls-43{fill:#8c8f95;}.cls-44{fill:#00c0e5;}</style></defs><title>Artboard 1</title><path class="cls-1" d="M101,420.12,66.79,399.19a12.16,12.16,0,0,1-4.66-5,16.82,16.82,0,0,1-1.62-7.55l-.31-50.11h-1l.21,50.11a18.12,18.12,0,0,0,1.73,8.05,13.31,13.31,0,0,0,5.08,5.48l34.41,21.05C100.73,420.84,100.85,420.48,101,420.12Z"/><path class="cls-1" d="M127.88,200.88a6.94,6.94,0,0,1-2.57,2.82,6.55,6.55,0,0,1-3.45.92,12.62,12.62,0,0,1-6.63-2.15h0L73.15,176.64A11.76,11.76,0,0,0,67,174.56a5.78,5.78,0,0,0-3.23,1,6.92,6.92,0,0,0-2.23,2.59l.17-.25a15.3,15.3,0,0,0-1.53,6.8V336.51h-1V184.68a15.2,15.2,0,0,1,1.49-7.1l.17-.26a6.87,6.87,0,0,1,2.41-2.74A6.68,6.68,0,0,1,67,173.45a12.58,12.58,0,0,1,6.64,2.22l22,13.38,20.07,12.45a11.85,11.85,0,0,0,6.12,2,5.73,5.73,0,0,0,3-.79,6,6,0,0,0,2.17-2.39h0a13.55,13.55,0,0,0,1.22-6.33h0l-.44-70.06,1,0,.44,70.08h0a14.78,14.78,0,0,1-1.36,6.88Z"/><path class="cls-1" d="M134.3,563.38l87.8,52.73c3.48,2.09,6,4.3,7.36,6.61a8.49,8.49,0,0,1,1.29,4.44,9.1,9.1,0,0,1-1.41,4.62c-1.67,2.77-4.85,5.63-9.67,8.52l-82.94,49.81a42.68,42.68,0,0,1-20.32,6.51,34.33,34.33,0,0,1-19.17-5.06L9.45,638.84c-3.58-2.14-6-4.34-7.3-6.56a8.35,8.35,0,0,1-1.3-4.59,9.29,9.29,0,0,1,1.43-4.55c1.75-2.91,5-5.76,9.6-8.49l82.93-49.81A43.23,43.23,0,0,1,115,559.22c7.16-.27,14.15,1.1,19.26,4.16Zm87.34,53.48-87.79-52.72c-5-3-11.78-4.3-18.78-4a42.35,42.35,0,0,0-19.8,5.5L12.33,615.4c-4.43,2.66-7.62,5.41-9.29,8.19a8.4,8.4,0,0,0-1.31,4.12,7.52,7.52,0,0,0,1.18,4.11c1.25,2.1,3.55,4.19,7,6.27l87.8,52.72a33.35,33.35,0,0,0,18.68,4.92,41.85,41.85,0,0,0,19.9-6.38l82.93-49.81c4.7-2.82,7.78-5.56,9.37-8.21a8.12,8.12,0,0,0,1.29-4.17,7.63,7.63,0,0,0-1.17-4c-1.31-2.18-3.7-4.29-7.06-6.31Z"/><path class="cls-2" d="M166.57,587.56v26.69a4.13,4.13,0,0,1,0,1.11v7.57c.28,2.25-1.15,4.69-4.23,6.53l-37.93,22.78c-5.21,3.13-13.25,3.43-17.85.66L66.4,628.79c-2.28-1.37-3.31-3.24-3.13-5.16h0v-7.87a3.57,3.57,0,0,1,0-.8h0V588a5.33,5.33,0,0,1,1.07-3.58A4.76,4.76,0,0,1,63.27,581h0v-7.86a3.66,3.66,0,0,1,0-.81h0v-27a5.33,5.33,0,0,1,1.08-3.59,4.73,4.73,0,0,1-1.08-3.42h0v-7.86a3.66,3.66,0,0,1,0-.81h0v-27c-.21-2.21,1.23-4.58,4.24-6.39L72,493.62v-12c-.17-1.84,1-3.81,3.53-5.31l31.56-19c4.34-2.61,11-2.86,14.85-.56l33.41,20.06c1.94,1.17,2.79,2.78,2.6,4.42v12.35l5.56,3.34c2.33,1.4,3.35,3.33,3.11,5.3v26.69a4.13,4.13,0,0,1,0,1.11v7.58a5.28,5.28,0,0,1-1.06,3.72,4.75,4.75,0,0,1,1.06,3.57V571.6a4.13,4.13,0,0,1,0,1.11v7.57a5.3,5.3,0,0,1-1.06,3.73,4.7,4.7,0,0,1,1.06,3.55Z"/><path class="cls-3" d="M167.9,587.61V614.2a4.52,4.52,0,0,1,0,1.2v7.48a6.07,6.07,0,0,1-1.06,4,11,11,0,0,1-3.66,3.34L125,653a20.66,20.66,0,0,1-9.67,2.67,17.32,17.32,0,0,1-9.28-2L65.55,629.59A7.92,7.92,0,0,1,62.76,627a5.49,5.49,0,0,1-.81-2.39h0v-.11a5.47,5.47,0,0,1,0-.81h0v-7.87h0a3,3,0,0,1,0-.4,3.31,3.31,0,0,1,0-.44V588h0a5.42,5.42,0,0,1,.23-2.07,6.53,6.53,0,0,1,.66-1.49,5.63,5.63,0,0,1-.66-1.38,6.19,6.19,0,0,1-.23-1.12h0v-.11a5.47,5.47,0,0,1,0-.81v-7.88h0a3.1,3.1,0,0,1,0-.41,3.31,3.31,0,0,1,0-.44V545.33h0a5.49,5.49,0,0,1,.23-2.08h0a6.66,6.66,0,0,1,.66-1.48,6.53,6.53,0,0,1-.66-1.39,6.19,6.19,0,0,1-.23-1.12h0v-.11a5.47,5.47,0,0,1,0-.81v-7.88h0a3,3,0,0,1,0-.4,3.39,3.39,0,0,1,0-.45V502.67h0a6.18,6.18,0,0,1,1.12-3.92,11.05,11.05,0,0,1,3.61-3.27l4.43-2.68,0-11.16h0a6.25,6.25,0,0,1,1-3.64,10.52,10.52,0,0,1,3.22-2.88l31.18-18.58a17.55,17.55,0,0,1,8.12-2.25,14.6,14.6,0,0,1,7.8,1.69l33.67,20.07a4.71,4.71,0,0,1,2,1.95,6,6,0,0,1,.71,3.34v11.51l5.52,3.3a7.93,7.93,0,0,1,2.84,2.72,5.46,5.46,0,0,1,.76,3.43v26.59a4,4,0,0,1,0,.6,4.26,4.26,0,0,1,0,.61v7.48a5.59,5.59,0,0,1-.19,2.18,6.71,6.71,0,0,1-.69,1.57,5.75,5.75,0,0,1,.68,1.47,5.26,5.26,0,0,1,.2,2.16v26.59a4,4,0,0,1,0,.6,4.26,4.26,0,0,1,0,.61v7.47a5.56,5.56,0,0,1-.19,2.18A6.73,6.73,0,0,1,167,584a5.81,5.81,0,0,1,.67,1.46,5.32,5.32,0,0,1,.2,2.17Zm-2.11,26.64v-26.8a3.63,3.63,0,0,0-.12-1.47,4.11,4.11,0,0,0-.75-1.39l-.43-.55.4-.57a5.31,5.31,0,0,0,.77-1.57,3.67,3.67,0,0,0,.13-1.5v-7.8a3.4,3.4,0,0,0,0-.45,3,3,0,0,0,0-.43V544.8a3.48,3.48,0,0,0-.13-1.47,4.22,4.22,0,0,0-.74-1.4l-.44-.54.41-.57a5.2,5.2,0,0,0,.77-1.57,3.71,3.71,0,0,0,.13-1.51v-7.8a3.4,3.4,0,0,0,0-.45,3.11,3.11,0,0,0,0-.43V502.14a3.65,3.65,0,0,0-.5-2.33,6.1,6.1,0,0,0-2.17-2.06l-5.59-3.34-.45-.28v-13a2.89,2.89,0,0,0-.39-1.85,4.89,4.89,0,0,0-1.76-1.66l-33.51-20.06a12.52,12.52,0,0,0-6.74-1.43,15.41,15.41,0,0,0-7.2,2L75.84,477.09a7.45,7.45,0,0,0-2.44,2.19,3.44,3.44,0,0,0-.65,2.24v12.62l-.45.27-4.45,2.67a9.3,9.3,0,0,0-3,2.69,4.34,4.34,0,0,0-.81,2.81v27.06h0v.08c0,.11,0,.22,0,.33a2.92,2.92,0,0,0,0,.32v7h.09l-.09,1a3.4,3.4,0,0,0,.16,1.41,4,4,0,0,0,.73,1.34l.43.55-.41.57a5.32,5.32,0,0,0-.75,1.51h0a3.64,3.64,0,0,0-.16,1.45V572.3h0v.08c0,.11,0,.22,0,.32a3,3,0,0,0,0,.33v7h.09l-.09,1a3.61,3.61,0,0,0,.15,1.42,4.31,4.31,0,0,0,.73,1.34l.44.54-.41.57a5.32,5.32,0,0,0-.75,1.51,3.64,3.64,0,0,0-.16,1.45V615h0V615c0,.1,0,.21,0,.32a3.12,3.12,0,0,0,0,.33v7h.09l-.09,1a3.69,3.69,0,0,0,.55,2.28,6,6,0,0,0,2.14,2L107,652.11a15.2,15.2,0,0,0,8.21,1.74,18.6,18.6,0,0,0,8.74-2.41L162,628.66a9.13,9.13,0,0,0,3-2.75,4.29,4.29,0,0,0,.76-2.86v-7.8a3.4,3.4,0,0,0,0-.45,3.15,3.15,0,0,0,0-.44v-.11Z"/><path class="cls-2" d="M123.3,585.76l2.94,1.77h40.33v26.72a4.13,4.13,0,0,1,0,1.11v7.57c.28,2.25-1.15,4.69-4.23,6.53l-37.93,22.78c-5.21,3.13-13.25,3.43-17.85.66L66.4,628.79c-2.28-1.37-3.31-3.24-3.13-5.16h0v-7.87a3.57,3.57,0,0,1,0-.8h0V587.53h40.35l1.82-1.1c5.22-3.13,13.26-3.43,17.86-.67Z"/><path class="cls-3" d="M123.43,585.61l2.9,1.74H167v26.89a5.12,5.12,0,0,1,0,.56,5.59,5.59,0,0,1,0,.57v7.55a5.39,5.39,0,0,1-.93,3.59,10.37,10.37,0,0,1-3.4,3.11L124.54,652.4a19.88,19.88,0,0,1-9.28,2.57,16.34,16.34,0,0,1-8.83-1.91L66.12,629a7.23,7.23,0,0,1-2.53-2.39,4.72,4.72,0,0,1-.7-2.92h0v-7.87h0a2.68,2.68,0,0,1,0-.4,2.82,2.82,0,0,1,0-.41h0v-27.6h40.63l1.79-1.08a19.91,19.91,0,0,1,9.28-2.57,16.49,16.49,0,0,1,8.84,1.91Zm2.76,2.08-3-1.76a16,16,0,0,0-8.62-1.86,19.47,19.47,0,0,0-9.1,2.52l-1.84,1.1-.1,0H63.26V615h0c0,.13,0,.26,0,.39s0,.27,0,.39h0v7.68h0l0,.2a4.37,4.37,0,0,0,.65,2.73,6.83,6.83,0,0,0,2.4,2.26l40.31,24.12a16.08,16.08,0,0,0,8.63,1.85,19.5,19.5,0,0,0,9.1-2.52l38.08-22.78a9.93,9.93,0,0,0,3.28-3,5,5,0,0,0,.87-3.35v-7.63a4.7,4.7,0,0,0,0-1.06V587.72h-40.3l-.09,0Z"/><path class="cls-4" d="M123.3,558.14l40.16,24.12c4.6,2.76,4.1,7.59-1.12,10.72l-37.93,22.78c-5.21,3.13-13.25,3.43-17.85.67L66.4,592.31c-4.6-2.76-4.1-7.59,1.11-10.72l37.93-22.78c5.22-3.13,13.26-3.43,17.86-.67Z"/><path class="cls-3" d="M123.4,558l40.15,24.12a7,7,0,0,1,2.53,2.41,4.69,4.69,0,0,1,.71,2.62,5.51,5.51,0,0,1-.83,2.7,10,10,0,0,1-3.52,3.31l-37.93,22.78a19.79,19.79,0,0,1-9.25,2.57,16.32,16.32,0,0,1-8.8-1.9L66.31,592.47a7.14,7.14,0,0,1-2.54-2.41,4.77,4.77,0,0,1-.71-2.62,5.63,5.63,0,0,1,.84-2.7,10,10,0,0,1,3.52-3.31l37.93-22.78a19.76,19.76,0,0,1,9.25-2.57,16.34,16.34,0,0,1,8.8,1.9Zm40,24.44L123.2,558.3a15.94,15.94,0,0,0-8.59-1.85,19.38,19.38,0,0,0-9.07,2.52L67.61,581.75a9.62,9.62,0,0,0-3.39,3.18,5.14,5.14,0,0,0-.78,2.52,4.37,4.37,0,0,0,.65,2.42,6.87,6.87,0,0,0,2.4,2.28l40.16,24.12a16,16,0,0,0,8.6,1.85,19.38,19.38,0,0,0,9.07-2.52l37.93-22.78a9.71,9.71,0,0,0,3.39-3.18,5.11,5.11,0,0,0,.78-2.53,4.4,4.4,0,0,0-.65-2.41,6.91,6.91,0,0,0-2.41-2.28Z"/><path class="cls-2" d="M123.3,543.12l2.94,1.77h40.33V571.6a4.13,4.13,0,0,1,0,1.11v7.57c.28,2.26-1.15,4.69-4.23,6.53l-37.93,22.78c-5.21,3.13-13.25,3.43-17.85.67L66.4,586.14c-2.28-1.36-3.31-3.24-3.13-5.16h0v-7.86a3.66,3.66,0,0,1,0-.81h0V544.89h40.35l1.82-1.1c5.22-3.14,13.26-3.44,17.86-.67Z"/><path class="cls-3" d="M123.43,543l2.9,1.74H167v26.89a5.25,5.25,0,0,1,0,.56,5.44,5.44,0,0,1,0,.57v7.55a5.41,5.41,0,0,1-.93,3.6,10.35,10.35,0,0,1-3.4,3.1l-38.08,22.78a19.88,19.88,0,0,1-9.28,2.57,16.43,16.43,0,0,1-8.83-1.9L66.12,586.3a7.12,7.12,0,0,1-2.53-2.38,4.75,4.75,0,0,1-.7-2.93h0v-7.86h0a4.21,4.21,0,0,1,0-.82h0V544.7h40.63l1.79-1.07a19.79,19.79,0,0,1,9.28-2.57,16.39,16.39,0,0,1,8.84,1.9Zm2.76,2.08-3-1.76a16,16,0,0,0-8.62-1.85,19.35,19.35,0,0,0-9.1,2.52L103.67,545l-.1,0H63.26V572.3h0c0,.14,0,.26,0,.39s0,.27,0,.39v7.7h0l0,.2a4.4,4.4,0,0,0,.65,2.73,6.9,6.9,0,0,0,2.4,2.25l40.31,24.12a16.08,16.08,0,0,0,8.63,1.85,19.5,19.5,0,0,0,9.1-2.52l38.08-22.78a10,10,0,0,0,3.28-3,5,5,0,0,0,.87-3.36v-7.62a4.89,4.89,0,0,0,0-.54,4.71,4.71,0,0,0,0-.53V545.07h-40.3l-.09,0Z"/><path class="cls-4" d="M123.3,515.49l40.16,24.12c4.6,2.76,4.1,7.59-1.12,10.72l-37.93,22.78c-5.21,3.13-13.25,3.43-17.85.67L66.4,549.67c-4.6-2.77-4.1-7.6,1.11-10.73l37.93-22.78c5.22-3.13,13.26-3.43,17.86-.67Z"/><path class="cls-3" d="M123.4,515.33l40.15,24.12a7.1,7.1,0,0,1,2.53,2.41,4.71,4.71,0,0,1,.71,2.62,5.48,5.48,0,0,1-.83,2.7,9.93,9.93,0,0,1-3.52,3.31l-37.93,22.78a19.79,19.79,0,0,1-9.25,2.57,16.32,16.32,0,0,1-8.8-1.9L66.31,549.82a7.2,7.2,0,0,1-2.54-2.4,4.83,4.83,0,0,1-.71-2.63,5.63,5.63,0,0,1,.84-2.7,10.11,10.11,0,0,1,3.52-3.31L105.35,516a19.76,19.76,0,0,1,9.25-2.57,16.34,16.34,0,0,1,8.8,1.9Zm40,24.44L123.2,515.65a15.94,15.94,0,0,0-8.59-1.85,19.38,19.38,0,0,0-9.07,2.52L67.61,539.1a9.62,9.62,0,0,0-3.39,3.18,5.14,5.14,0,0,0-.78,2.52,4.38,4.38,0,0,0,.65,2.43,6.94,6.94,0,0,0,2.4,2.27l40.16,24.12a16,16,0,0,0,8.6,1.85,19.38,19.38,0,0,0,9.07-2.52l37.93-22.78a9.71,9.71,0,0,0,3.39-3.18,5.11,5.11,0,0,0,.78-2.52,4.46,4.46,0,0,0-.65-2.42,6.91,6.91,0,0,0-2.41-2.28Z"/><path class="cls-2" d="M123.3,500.46l2.94,1.76h40.33v26.72a4.13,4.13,0,0,1,0,1.11v7.58c.28,2.25-1.15,4.68-4.23,6.52l-37.93,22.78c-5.21,3.13-13.25,3.43-17.85.67L66.4,543.48c-2.28-1.36-3.31-3.23-3.13-5.16h0v-7.86a3.66,3.66,0,0,1,0-.81h0V502.22h40.35l1.82-1.09c5.22-3.14,13.26-3.44,17.86-.67Z"/><path class="cls-3" d="M123.43,500.3l2.9,1.74H167v26.89a5.34,5.34,0,0,1,0,1.13v7.56a5.4,5.4,0,0,1-.93,3.59,10.48,10.48,0,0,1-3.4,3.11l-38.08,22.77a19.76,19.76,0,0,1-9.28,2.57,16.34,16.34,0,0,1-8.83-1.9L66.12,543.64a7.12,7.12,0,0,1-2.53-2.38,4.75,4.75,0,0,1-.7-2.93h0v-7.86h0a2.75,2.75,0,0,1,0-.4,3,3,0,0,1,0-.42h0V502h40.63l1.79-1.07a19.91,19.91,0,0,1,9.28-2.57,16.39,16.39,0,0,1,8.84,1.9Zm2.76,2.08-3-1.76a16,16,0,0,0-8.62-1.85,19.47,19.47,0,0,0-9.1,2.52l-1.84,1.09-.1,0H63.26v27.23h0v0c0,.13,0,.25,0,.39s0,.26,0,.38v7.7h0l0,.2a4.4,4.4,0,0,0,.65,2.73,7,7,0,0,0,2.4,2.26l40.31,24.11a16.08,16.08,0,0,0,8.63,1.85,19.5,19.5,0,0,0,9.1-2.52L162.43,544a9.91,9.91,0,0,0,3.28-3,5,5,0,0,0,.87-3.36V530a4.79,4.79,0,0,0,0-1.07V502.41h-40.3l-.09,0Z"/><path class="cls-4" d="M123.3,472.84,163.46,497c4.6,2.77,4.1,7.59-1.12,10.72l-37.93,22.78c-5.21,3.13-13.25,3.43-17.85.67L66.4,507c-4.6-2.76-4.1-7.58,1.11-10.72l37.93-22.77c5.22-3.14,13.26-3.44,17.86-.67Z"/><path class="cls-3" d="M123.4,472.68l40.15,24.11a7.1,7.1,0,0,1,2.53,2.41,4.71,4.71,0,0,1,.71,2.62,5.48,5.48,0,0,1-.83,2.7,9.93,9.93,0,0,1-3.52,3.31l-37.93,22.78a19.79,19.79,0,0,1-9.25,2.57,16.23,16.23,0,0,1-8.8-1.9L66.31,507.16a7.2,7.2,0,0,1-2.54-2.4,4.82,4.82,0,0,1-.71-2.62,5.57,5.57,0,0,1,.84-2.7,10,10,0,0,1,3.52-3.32l37.93-22.78a19.88,19.88,0,0,1,9.25-2.57,16.25,16.25,0,0,1,8.8,1.91Zm40,24.43L123.2,473a16,16,0,0,0-8.59-1.85,19.5,19.5,0,0,0-9.07,2.52L67.61,496.44a9.71,9.71,0,0,0-3.39,3.18,5.14,5.14,0,0,0-.78,2.52,4.33,4.33,0,0,0,.65,2.42,6.89,6.89,0,0,0,2.4,2.29L106.65,531a16,16,0,0,0,8.6,1.85,19.38,19.38,0,0,0,9.07-2.52l37.93-22.78a9.62,9.62,0,0,0,3.39-3.18,5.11,5.11,0,0,0,.78-2.52,4.46,4.46,0,0,0-.65-2.42,6.91,6.91,0,0,0-2.41-2.28Z"/><path class="cls-2" d="M121.75,479.76l2.44,1.47h33.46V493.8a4.71,4.71,0,0,1,0,.92V501c.23,1.87-1,3.89-3.51,5.43L122.67,525.4c-4.32,2.61-11,2.86-14.81.55L74.8,506c-1.88-1.14-2.74-2.7-2.59-4.3h0v-6.54a3.75,3.75,0,0,1,0-.67h0V481.35h0l33.21-.12,1.52-.91c4.32-2.61,11-2.86,14.81-.56Z"/><path class="cls-3" d="M122,479.6l2.39,1.44h33.51v12.75a3.55,3.55,0,0,1,0,.46,3.59,3.59,0,0,1,0,.47V501a4.52,4.52,0,0,1-.77,3,8.63,8.63,0,0,1-2.82,2.6l-31.39,18.95a16.28,16.28,0,0,1-7.66,2.14,13.46,13.46,0,0,1-7.3-1.59L74.68,506.05a6,6,0,0,1-2.1-2,4.07,4.07,0,0,1-.58-2.45h0v-6.54h0c0-.12,0-.23,0-.34s0-.23,0-.34h0V481h33.52l1.47-.88a16.4,16.4,0,0,1,7.66-2.15,13.46,13.46,0,0,1,7.3,1.59Zm2.25,1.79-2.44-1.47a13.07,13.07,0,0,0-7.09-1.53,15.8,15.8,0,0,0-7.49,2.09l-1.52.91-.09,0H72.37v13h0v0c0,.1,0,.21,0,.32s0,.22,0,.32v6.37h0v.2a3.64,3.64,0,0,0,.53,2.25,5.66,5.66,0,0,0,2,1.87L108.1,525.8a13.07,13.07,0,0,0,7.09,1.53,15.91,15.91,0,0,0,7.49-2.09l31.39-18.95a8.3,8.3,0,0,0,2.7-2.48,4.14,4.14,0,0,0,.71-2.77v-6.35a3.15,3.15,0,0,0,0-.44,3.11,3.11,0,0,0,0-.43v-12.4H124.29l-.09,0Z"/><path class="cls-4" d="M121.76,456.78l33.16,20c3.81,2.3,3.39,6.3-.92,8.9l-31.32,18.9c-4.31,2.59-10.94,2.84-14.74.55l-33.17-20c-3.8-2.29-3.38-6.29.92-8.89L107,457.33c4.3-2.6,10.94-2.84,14.74-.55Z"/><path class="cls-3" d="M122,456.62l33.24,20.07a5.82,5.82,0,0,1,2.1,2,4.08,4.08,0,0,1,.6,2.2,4.8,4.8,0,0,1-.7,2.26,8.31,8.31,0,0,1-2.92,2.76l-31.4,18.95a16.41,16.41,0,0,1-7.67,2.15,13.42,13.42,0,0,1-7.29-1.59L74.68,485.37a6,6,0,0,1-2.11-2,4,4,0,0,1-.59-2.19,4.59,4.59,0,0,1,.7-2.27,8.31,8.31,0,0,1,2.92-2.76L107,457.18a16.44,16.44,0,0,1,7.67-2.15,13.55,13.55,0,0,1,7.3,1.59ZM155,477l-33.24-20.06a13.09,13.09,0,0,0-7.1-1.53,16,16,0,0,0-7.49,2.09L75.79,476.45A7.92,7.92,0,0,0,73,479.08a4.25,4.25,0,0,0-.65,2.09,3.62,3.62,0,0,0,.54,2,5.65,5.65,0,0,0,2,1.89l33.23,20.06a13.13,13.13,0,0,0,7.1,1.53,15.8,15.8,0,0,0,7.49-2.09l31.4-18.95a8,8,0,0,0,2.79-2.63,4.32,4.32,0,0,0,.65-2.08,3.81,3.81,0,0,0-.54-2,5.65,5.65,0,0,0-2-1.89Z"/><path class="cls-5" d="M128,484.53,107.43,472.3a4,4,0,0,0-3.61.12h0c-1.06.61-1.18,1.57-.26,2.11l20.61,12.24a4,4,0,0,0,3.61-.12h0c1.07-.62,1.18-1.57.26-2.12Z"/><path class="cls-6" d="M115.2,445.8a.57.57,0,0,1,.56-.56.56.56,0,0,1,.56.56v33.76a.56.56,0,0,1-.56.55.56.56,0,0,1-.56-.55V445.8Z"/><path class="cls-7" d="M123.19,445.23a.56.56,0,0,1,1.12,0V484a.56.56,0,1,1-1.12,0V445.23Z"/><path class="cls-1" d="M108.92,475.17a.56.56,0,1,1-1.12,0v-46a.56.56,0,1,1,1.12,0v46Z"/><path class="cls-8" d="M81.3,577.89V570c-2.88-1.83-6.36-3.78-9.36-5.58-1.94-1.16-1.63,1.48-1.63,2.9v6.45c0,.79-.08,3.33,0,4,.6.43,8,4.77,9.34,5.56,1,.58,1.62.26,1.62-.94C81.3,579.68,81.29,580.55,81.3,577.89ZM80,571.13l0,.2a4.91,4.91,0,0,1-.52-.72v-.28A5.09,5.09,0,0,1,80,571.13Zm-2.26-2.5.12.6-.58-.36-.17-.68Zm-2.7-.87s0,0,.07,0l.19,0a.46.46,0,0,1,.28,0,5.32,5.32,0,0,1,.35.82,1.05,1.05,0,0,1-.66.13c-.11-.29-.32-.53-.44-.85Zm-1.36.56a5.88,5.88,0,0,1,.59.88l-.71.7-.6-1C73,568.72,73.5,568.41,73.63,568.32ZM72,570.51l.94.58-.59,1.27a6.55,6.55,0,0,1-.74-.75Zm-.3,5.16-.93-.78.29-1.28,1,.58Zm5.2,3.52c-.13-.14,0,.07-.13-.19l-.11-1.15c.79.6.88.81,1,1.24,0,.15,0,.53,0,.67C77.58,579.69,77,579.27,76.92,579.19Zm.22-2.29a3.62,3.62,0,0,1-.72-.65c0-.09-.06-.72-.06-.79,0-.26,0-.32.08-.22A1.59,1.59,0,0,1,77.14,576.9Zm-.68-3,.18-.71c.15.2.47.43.58.67a1,1,0,0,1-.09.8C77,574.54,76.66,574.19,76.46,573.94Zm1-.88a6.22,6.22,0,0,1-.43-.77l-.06,0a1.78,1.78,0,0,1,.49-.45l.35.84C77.76,572.75,77.6,573,77.49,573.06Zm1-.83-.22,0-.18-.43-.08-.32.52,0,.12.57Zm2,.71a4.55,4.55,0,0,0-2.18-1.8,1.43,1.43,0,0,0-1.47.47,2.44,2.44,0,0,0-.46.78,7.66,7.66,0,0,0-.48,2.39,15.37,15.37,0,0,0,.24,2.76c.07.45.14.83.23,1.26s.22.86.29,1.24l-2-1.17-1.74-1-.88-.51c0-1,.16-1.84.22-2.78.08-.24.15-.77.21-1.06a9.76,9.76,0,0,1,1-2.62,6,6,0,0,1,.92-1.23,2.73,2.73,0,0,1,1.16-.74c1.59-.24,3.35,1,4.73,3.23.11.19.19.33.3.54Z"/><path class="cls-9" d="M127.2,543.91v6.55c.11.25.07.4.29.47a.7.7,0,0,0,.63-.23c.54-.47.53-1,.53-1.74,0-1,0-3.34,0-4.21l3,3c.22.16.35.39.75.31a1.54,1.54,0,0,0,1-.85,3.72,3.72,0,0,0,.18-1.63v-5.32c0-.63-.05-1-.44-.92a1.39,1.39,0,0,0-.92,1c-.13.48,0,4.34-.07,5.26-.24-.1-3.11-3.24-3.42-3.39s-.62,0-1,.39a2,2,0,0,0-.56,1.27Zm14.71-6.68,1.25-.75c.05-.57,0-1.45,0-2s-.08-1.17-.61-.87a1.72,1.72,0,0,0-.65,1.59c0,.56,0,1.6,0,2.07Zm1.25,3.44v-3.38l-1.26.73c0,.65,0,3.22,0,3.63.08,1.11,1.25.47,1.25-1Zm14.21-8.15v-.33c-.13-.3,0-.39-.38-.72a5.39,5.39,0,0,0-.54-.4l-.55-.4c-.12-.09-.5-.31-.55-.47.14-.2.4-.74.54-1s.36-.69.54-1.06a16,16,0,0,0,.77-1.56c.08-.21.11-.44.17-.63v-.29c-.09-.24-.19-.81-.83-.32a3.63,3.63,0,0,0-.88,1.28l-1.44,2.79c-.3,0-1.53-1.26-2-1.32-.78-.11-1.46,1.2-1.07,2,.26.54,1.66,1.23,1.89,1.56-.25.63-1.64,3-1.87,3.75-.42,1.3.3,2.45,1.73-.41.13-.26,1.21-2.32,1.26-2.49.44,0,1.59,1.54,2.33,1.28a1.19,1.19,0,0,0,.56-.49,2.3,2.3,0,0,0,.31-.76Zm-8.37.06c.08.82-.1,4.69.07,5s.55.28,1-.16a1.88,1.88,0,0,0,.41-1.44v-5.27c0-.61.06-1.12-.24-1.28s-1,.12-1.39.93l-2.1,4.6c-.14.31-1.13,2.49-1.22,2.62,0-.6,0-4.81-.05-5.1s-.5-.34-.92.08a1.74,1.74,0,0,0-.44,1.4v5.24c0,.51-.06,1.2.17,1.42s.65,0,1-.37a10.84,10.84,0,0,0,1.34-2.52l2.37-5.2Zm-13.26,13.55,3.57-2.14c.1-.08,1.25-3.7,1.39-4.13s.41-1.17.44-1.4c-.68.41-3.77,2.13-4.16,2.55-.59.65-.57,1.67,0,1.55a18.79,18.79,0,0,0,2.08-1.19l-.56,1.6-2,1.2c-.14-.42-1-1.69-1.05-1.95s.88-2.85,1-3.16l2.16-1.29.65,1,1.47-.87-1.38-2.26-3.74,2.22c-.16.4-.29.89-.42,1.28l-.84,2.58A6,6,0,0,0,134,543l1.71,3.09Z"/><path class="cls-10" d="M85,535.78s-1.19-.15-.57,1.5a3.52,3.52,0,0,0,.47.74h0a3,3,0,0,0,1.25.59c.24,0,.85.06,1-.06.25,0,.33-.18.53-.2a2.94,2.94,0,0,0,1-2.27c-.16.15-.12.32-.37.38a.8.8,0,0,1-.67-.24,2.21,2.21,0,0,1-.71-1.64v-.9c-.12.54-.39.74-1,.39l-.09-.07L85,533.5a2.28,2.28,0,0,0-.27,0,.2.2,0,0,0-.11,0c-.08,0,0,0-.09.09s-.29.49-.23.89a2.5,2.5,0,0,0,.47,1.07l.24.22Z"/><path class="cls-11" d="M87,535.27a2.54,2.54,0,0,1-.1-.68v-.9c-.12.54-.39.74-1,.39l-.09-.07L85,533.5a2.28,2.28,0,0,0-.27,0,.2.2,0,0,0-.11,0c-.08,0,0,0-.09.09s-.29.49-.23.89a2.5,2.5,0,0,0,.47,1.07l.23.21a1.38,1.38,0,0,0,2-.5Z"/><path class="cls-12" d="M85,527.36l.33,0a3.15,3.15,0,0,1,1.74.59c.25,0,.31.07.5-.09a.83.83,0,0,0,.22-.68,2.18,2.18,0,0,0-.82-1.59,5,5,0,0,0-1.72-.7c-.31-.05-1.17-.09-1.29.07a1.88,1.88,0,0,0-.85.36c-.06,0-.06,0-.08.1-.29.06-.8.84-1,1.3a6.28,6.28,0,0,0-.45,2.23l0,.09a.51.51,0,0,1,.71-.51A1.4,1.4,0,0,1,83,529a1.78,1.78,0,0,1,.32.73.71.71,0,0,1,.09.31v-.13a8.18,8.18,0,0,1,.16-1,3.35,3.35,0,0,1,.14-.38,1.7,1.7,0,0,0,.14-.35l.13-.14a1.65,1.65,0,0,1,1.06-.74Z"/><path class="cls-13" d="M88.64,536.09a2.94,2.94,0,0,1-1,2.27c-.2,0-.28.24-.53.2-.1.12-.71.1-1,.06a3,3,0,0,1-1.25-.59c-.1.1-.29,0-.45.11a1.36,1.36,0,0,0,0,1.46,2.81,2.81,0,0,0,.44.69l.92.56c.14,0,.65.22.86.26a2.88,2.88,0,0,0,1.9-.19s0,0,0,0,.3-.16.38-.22a2.9,2.9,0,0,0,.88-1.07,6.13,6.13,0,0,0,.57-2.52c-.11.2-.14.35-.32.44s-.84-.15-1.16-.76a3.68,3.68,0,0,1-.3-.81v.15Z"/><path class="cls-14" d="M87.14,530.2a7.4,7.4,0,0,0,.64.58l.53.55,0,.06,0,.07a8.5,8.5,0,0,1,.84,1.17,9,9,0,0,1,.72,1.64,7.2,7.2,0,0,1,.35,1.26,7.67,7.67,0,0,1,.13,1.5,2.31,2.31,0,0,0,.27.79c.33.59.84.92,1.16.75s.18-.17.33-.43v-.94a14.22,14.22,0,0,0-1.28-4.58,2.27,2.27,0,0,0-.3-.56,7.38,7.38,0,0,0-.68-1.17,11.7,11.7,0,0,0-.8-1.09,10,10,0,0,0-2-1.88,4.45,4.45,0,0,1,.46.65,2.35,2.35,0,0,1,.23.86c0,.65-.28.82-.64.77Z"/><path class="cls-15" d="M88.43,534.47a3.72,3.72,0,0,1,.21,1.47,4.27,4.27,0,0,0,.29.81c.33.61.87.92,1.17.76s.21-.24.32-.44v0a7.67,7.67,0,0,0-.13-1.5,7.2,7.2,0,0,0-.35-1.26,9,9,0,0,0-.72-1.64,8.5,8.5,0,0,0-.84-1.17l0-.07,0-.06-.53-.55a7.4,7.4,0,0,1-.64-.58l-.11,0a2.88,2.88,0,0,1,.44.53,3,3,0,0,1,.27.66c.07.68-.07,1.16-.41,1.11h-.21s0,0,0,0a3.72,3.72,0,0,1,1,1.25.72.72,0,0,1,.1.24,1.7,1.7,0,0,1,.2.45Z"/><path class="cls-16" d="M86.18,529.85a1.82,1.82,0,0,1,.85.33l.11,0c.36,0,.66-.12.64-.77a2.35,2.35,0,0,0-.23-.86,4.45,4.45,0,0,0-.46-.65h0a3.15,3.15,0,0,0-1.74-.59l-.33,0a1.65,1.65,0,0,0-1.06.74l-.13.14a1.7,1.7,0,0,1-.14.35,3.35,3.35,0,0,0-.14.38,8.18,8.18,0,0,0-.16,1c.06,0,.13-.24.21-.31a.45.45,0,0,1,.34-.12,1.34,1.34,0,0,1,.91.78,1.8,1.8,0,0,1,.29.81,2.51,2.51,0,0,0,.12-.49,1.18,1.18,0,0,1,.19-.39c.14-.19.4-.41.64-.35l.12,0Z"/><path class="cls-17" d="M82.41,535.55c0,.07,0,0,.06.1a10.17,10.17,0,0,0,2.4,2.37,3.52,3.52,0,0,1-.47-.74c-.62-1.65.56-1.5.57-1.5l-.24-.22c-.1,0-.44-.32-.62-.47a4.78,4.78,0,0,0-.43-.48,4.52,4.52,0,0,1-.37-.47,7.44,7.44,0,0,1-.64-1,6.85,6.85,0,0,1-.82-2l0-.12-.2-1a7.8,7.8,0,0,1,0-1l0-.09c-.06-.13-.08-.3-.13-.42a2.35,2.35,0,0,0-.19-.39,1.71,1.71,0,0,0-.58-.62c-.63-.36-.75.22-.87.4v.77c.05.17.13,1.08.19,1.4a10.57,10.57,0,0,0,.32,1.29,13.52,13.52,0,0,0,.87,2.22,12.54,12.54,0,0,0,1.21,2Z"/><path class="cls-18" d="M86.89,534.59a2.21,2.21,0,0,0,.71,1.64.8.8,0,0,0,.67.24c.25-.06.21-.23.37-.38v-.15a3.72,3.72,0,0,0-.21-1.47,1.7,1.7,0,0,0-.2-.45.72.72,0,0,0-.1-.24,3.72,3.72,0,0,0-1-1.25s0,0,0,0c-.35-.17-.62-.36-1-.55.26.34.35.32.54.76a2.1,2.1,0,0,1,.19,1v.9Z"/><path class="cls-19" d="M82.67,533.11a8.15,8.15,0,0,0,.64,1,5.72,5.72,0,0,0,.37.46,4.78,4.78,0,0,1,.43.48c.18.15.52.51.62.47a2.5,2.5,0,0,1-.47-1.07c-.06-.4,0-.9.23-.89s0-.05.09-.09a.2.2,0,0,1,.11,0,2.28,2.28,0,0,1,.27,0l-.23-.17-.1-.1c0-.06,0-.05-.06-.1l-.28-.26a1.67,1.67,0,0,0-.18-.28.67.67,0,0,1-.09-.14.53.53,0,0,1-.06-.14,2.76,2.76,0,0,1-.37-.75,6.32,6.32,0,0,1-.23-.93v-.56a.71.71,0,0,0-.09-.31A1.78,1.78,0,0,0,83,529a1.4,1.4,0,0,0-.63-.54.51.51,0,0,0-.71.51,7.8,7.8,0,0,0,0,1l.2,1,0,.12a6.74,6.74,0,0,0,.82,2Z"/><path class="cls-20" d="M86.18,529.85l-.12,0c-.24-.06-.5.16-.64.35a1.18,1.18,0,0,0-.19.39,2.51,2.51,0,0,1-.12.49v1.18a.65.65,0,0,1,.33-.51c.23-.1.37,0,.69.16s.62.38,1,.55h.21c.34,0,.48-.43.41-1.11a3,3,0,0,0-.27-.66,2.88,2.88,0,0,0-.44-.53,1.82,1.82,0,0,0-.85-.33Z"/><path class="cls-21" d="M84.57,533.13s0,0,.06.1l.1.1.23.17.86.51a3.33,3.33,0,0,1-.38-.49,1.68,1.68,0,0,1-.15-.3l-.07-.19s0,0,0,0l0-.11c0-.16,0-.4,0-.6V531.1a1.8,1.8,0,0,0-.29-.81,1.3,1.3,0,0,0-.91-.77.41.41,0,0,0-.34.11c-.08.07-.15.27-.21.31v.69a6.32,6.32,0,0,0,.23.93,2.76,2.76,0,0,0,.37.75.53.53,0,0,0,.06.14.67.67,0,0,0,.09.14,1.67,1.67,0,0,1,.18.28l.28.26Z"/><path class="cls-22" d="M73.48,539.47l.5.31v-1.2l.57.35c.63.38,1.14.26,1.14-.57h0a2.25,2.25,0,0,0-1.08-1.9l-1.13-.68v3.7ZM74,538v-1.34l.59.36a1.2,1.2,0,0,1,.61,1h0c0,.39-.23.52-.61.29L74,538Zm1.7,2.8.51.31.3-.71,1.35.81.29,1.07.53.33-1.26-4.5-.47-.28-1.25,3Zm1-.87.49-1.19.49,1.79-1-.6Zm3.43,3.6c.6.36,1,.2,1-.49h0a2.22,2.22,0,0,0-.91-1.64c-.56-.5-.69-.71-.69-1h0c0-.25.17-.34.47-.16a2.73,2.73,0,0,1,.78.85l.26-.33a3.22,3.22,0,0,0-1-1.1c-.57-.34-1-.14-1,.49h0a2.23,2.23,0,0,0,1,1.68c.53.48.65.69.65,1h0c0,.28-.2.35-.51.16a2.72,2.72,0,0,1-.9-1l-.3.28a3.45,3.45,0,0,0,1.19,1.32Zm2.57,1.56c.6.36,1,.2,1-.49h0a2.2,2.2,0,0,0-.91-1.64c-.55-.51-.68-.71-.68-1h0c0-.24.17-.33.46-.16a2.67,2.67,0,0,1,.78.86l.27-.33a3.07,3.07,0,0,0-1-1.1c-.57-.34-1-.15-1,.49h0a2.2,2.2,0,0,0,1,1.68c.53.48.64.69.64,1h0c0,.28-.19.34-.51.16a2.81,2.81,0,0,1-.9-1l-.3.28a3.61,3.61,0,0,0,1.19,1.32Zm1.62.92,2.14,1.29v-.58l-1.64-1v-1l1.43.86V545l-1.43-.87v-1l1.61,1v-.58l-2.11-1.29V546ZM87,547.67l.5.3v-2.64l1.57,3.59.42.25v-3.7l-.49-.3v2.56l-1.53-3.49L87,544v3.71Zm4.58,2.83a1.21,1.21,0,0,0,1.2.15v-1.56l-1.22-.74v.57l.73.44v.69a.81.81,0,0,1-.69-.13,2.32,2.32,0,0,1-1-1.91v0c0-.7.4-1.06.93-.74a2.27,2.27,0,0,1,.8.88l.32-.3a3.17,3.17,0,0,0-1.1-1.17c-.87-.52-1.48,0-1.48,1h0a3.41,3.41,0,0,0,1.48,2.8Zm1.85,1.06,2.14,1.29v-.58l-1.64-1v-1l1.44.87v-.58L94,549.7v-1l1.62,1v-.58l-2.12-1.28v3.71Zm2.74,1.65.5.3v-1.29l.63.38.7,1.72.6.36-.78-1.87c.4.09.68-.1.68-.71h0a2.11,2.11,0,0,0-.23-1,2.28,2.28,0,0,0-.83-.86l-1.27-.78v3.71Zm.5-1.56V550.4l.73.44a1.15,1.15,0,0,1,.59,1v0c0,.37-.23.48-.59.26l-.73-.44Z"/><path class="cls-1" d="M113.59,547.61h1.31v2a5.76,5.76,0,0,0,2-.26v1.31a9.62,9.62,0,0,1-2,.26v2h-1.31v-2a6.44,6.44,0,0,1-2-.26v-1.31a5.94,5.94,0,0,0,2,.26v-2Z"/><path class="cls-1" d="M123.06,517.35l.85-.51v-2.15l1.58-1v2.14l.86-.51V510l-.86.52v2.11l-1.58,1V511.5l-.85.51v5.34Zm3.83-2.31.87-.52.36-1.42,1.65-1,.35,1,.9-.54-1.67-4.37-.79.48L126.89,515Zm1.54-3.16.51-2,.52,1.42-1,.62Zm4.8-.66.85-.52v-1.6l.65-.39a3.37,3.37,0,0,0,1.58-2.83h0c0-1.09-.56-1.51-1.49-.95l-1.59,1v5.34Zm.85-3.16v-1.63l.66-.4c.43-.26.7-.14.7.39h0a1.46,1.46,0,0,1-.68,1.22l-.68.41Zm2.8,1,.86-.52v-1.71l.67-.4.83,1.2,1-.6-1-1.33a3.2,3.2,0,0,0,.84-2.16v0a1.26,1.26,0,0,0-.34-1c-.25-.19-.63-.15-1.13.15l-1.78,1.07V509Zm.86-3.26v-1.54l.85-.51c.41-.25.67-.15.67.36h0a1.35,1.35,0,0,1-.66,1.15l-.86.53Zm5-.18a5,5,0,0,0,2.08-4h0c0-1.52-.87-2.23-2.07-1.51a5,5,0,0,0-2.07,4v0c0,1.52.86,2.23,2.06,1.5Zm0-1.09c-.69.42-1.18-.05-1.18-1v0a2.94,2.94,0,0,1,1.17-2.37c.69-.41,1.18.05,1.18,1h0a2.91,2.91,0,0,1-1.17,2.37Zm4.89-7.29-.83,2.23-.81-1.24-1,.6,1.3,1.84-1.36,3.53,1-.59.88-2.36.88,1.31,1-.61L147.3,500l1.3-3.39-1,.59Zm2.54,3.81.85-.52v-2.13l1.5-4.11-1,.59-.94,2.71-.93-1.58-1,.6,1.49,2.33V501Z"/><path class="cls-1" d="M77.84,499.78l.85.52v-2.14l1.58.95v2.15l.86.51v-5.34l-.86-.52V498l-1.58-1V495l-.85-.52v5.34Zm3.83,2.32.88.53.35-1,1.65,1,.36,1.41.89.54-1.67-6.39-.79-.47-1.67,4.37Zm1.54-1.31.52-1.42.51,2-1-.62Zm4.8,5.14.86.51v-1.6l.65.39c.88.53,1.58.31,1.58-.92v0a3.25,3.25,0,0,0-1.5-2.75l-1.59-1v5.35Zm.86-2.13v-1.64l.66.4a1.41,1.41,0,0,1,.7,1.23v0c0,.45-.25.65-.68.4l-.68-.41Zm2.8,4.33.86.52v-1.71l.67.41.84,2.21,1,.61-1-2.49c.49.05.83-.29.83-1.15v0a3.12,3.12,0,0,0-.33-1.42,3.06,3.06,0,0,0-1.14-1.23l-1.78-1.07v5.34Zm.86-2.23v-1.53l.85.51a1.33,1.33,0,0,1,.67,1.17v0c0,.45-.24.61-.65.36l-.87-.53Zm5,5.86c1.21.72,2.08,0,2.08-1.51v0a5,5,0,0,0-2.06-4c-1.21-.73-2.08,0-2.08,1.51h0a5,5,0,0,0,2.06,4Zm0-1.08a3,3,0,0,1-1.18-2.39v0c0-.91.48-1.37,1.16-.95a2.94,2.94,0,0,1,1.19,2.39h0c0,.92-.48,1.38-1.17,1Zm4.89-1.4-.83,1.23-.81-2.22-1-.6,1.3,3.41L99.73,513l1,.58.88-1.3.88,2.36,1,.61-1.36-3.56,1.3-1.82-1-.59Zm2.54,6.88.86.51v-2.12l1.49-2.32-1-.58-.95,1.57-.93-2.71-1-.6,1.5,4.14v2.11Z"/><path class="cls-23" d="M134.51,623.31c.07-.17,0,0,.05-.28l0-1a18.51,18.51,0,0,0-2.24.23c-2.58.29-1.93-.1-4.73,3a23.29,23.29,0,0,0-2.24,2.58,2.72,2.72,0,0,0,0,1.25c.07.17,0,.09.15.14a.76.76,0,0,0,.21,0c-.19.31-.25.26-.4.59a3,3,0,0,0,0,1.23c0,.2.09.16.29.09-.2.52-.33.26-.35.84a2.67,2.67,0,0,0,.06,1c.05.18,0,.14.47.14a17,17,0,0,0,4.18-.5,10.36,10.36,0,0,0,1.16-1.28l2.31-2.64a4.22,4.22,0,0,0,1-1.43c.08-.19.05-.16.06-.41v-.55c0-.55-.13-.23-.37-.39a1.77,1.77,0,0,0,.19-.23c.23-.36.09-.07.12-.32s0,0,.05-.28l0-.91c-.12-.22,0-.07-.18-.12l-.19-.06a1.45,1.45,0,0,0,.19-.23c.21-.31.13-.13.15-.37Z"/><path class="cls-24" d="M134.54,633.24a1,1,0,0,1,.92-.75.61.61,0,0,0,.81-.59c.12-.82-1.17-.45-1.8.26s-1.56,2.75.63,2.09c1.27-.39.2,1.1-.64,1-.13,0-.71-.13-.76.64,0,.58,1,.58,1.78-.12,1.12-1,1.43-2.87,0-2.57-.19,0-.35.11-.53.16s-.36.12-.43-.09Z"/><path class="cls-24" d="M123,639.54v3.06c0,.91.66.41.75-.14s-.27-2.4.79-3.5c.27-.28.45-.27.58-.65a.43.43,0,0,0-.13-.56,2.22,2.22,0,0,0-1.14,1.1c-.2-.09-.16-.38-.5-.14a.89.89,0,0,0-.35.83Z"/><path class="cls-24" d="M131.21,632.55a17.25,17.25,0,0,0,0,1.77,2.15,2.15,0,0,0-1.85,1.1c-1,1.46-1.14,3.45,0,3.72.62.15,1.22-.4,1.81-1.1.12.08.2.27.48,0a1,1,0,0,0,.3-.78v-5C132,631.59,131.3,632,131.21,632.55Zm-.69,5.2c-1.18,1.18-1.72-.78-.56-2S131.71,636.57,130.52,637.75Z"/><path class="cls-24" d="M132.53,633.83V637c0,.84.76.42.76-.52v-3.06c0-.86-.76-.42-.76.46Z"/><path class="cls-24" d="M128.18,636.92c-.78-1.46-3.22.65-3.21,3a1.28,1.28,0,0,0,.63,1.29c.61.28,1.47-.2,2.19-1.23.29-.41.3-.58.11-.85-.56.18-.57.76-1.27,1.06-.47.2-.76,0-.85-.45l1.92-1.14A1.1,1.1,0,0,0,128.18,636.92ZM125.75,639c.24-1.44,1.72-2.12,2-1.16Z"/><path class="cls-24" d="M132.74,632.41l.35-.2c.92-2-1.28-.67-.35.2Z"/><path class="cls-2" d="M127.72,625.81c-1.56,1.17-.69,1.66.66.65.34-.25,1.15-1.05.66-1.2-.29-.09-.94.26-1.32.55Z"/><path class="cls-2" d="M128.74,626.72l1.4-.08.6-1.51a16.83,16.83,0,0,0-2,1.59Z"/><path class="cls-2" d="M129.6,624c-.2.27-.31.33-.44.49l-.07.1.77-.32.29.41.2-.64.74-.54-.56,0,.13-.54c-.79.77-.45.5-1.19.66,0,.16.08.19.13.35Z"/><path class="cls-25" d="M132.1,624.25V623l-1.33,1.44a2.12,2.12,0,0,0,1.33-.21Z"/><path class="cls-26" d="M132.1,624.25a12.05,12.05,0,0,0,1.18-1.34l-1.18.11v1.23Z"/><path class="cls-25" d="M125.35,631c0,.2.09.16.29.09a0,0,0,0,1,0,0,7.92,7.92,0,0,0,2.08-.11c2.64-.18,1.81.2,4.36-2.72.62-.7,1.62-1.75,2.1-2.43a1.77,1.77,0,0,0,.19-.23c.23-.36.09-.07.12-.32l0-1c-.07.33-4.33,5.09-4.48,5.2-.51.37-3.87.47-4.67.47l0,1.05Z"/><path class="cls-25" d="M125.35,632.89c.05.18,0,.14.47.14a17,17,0,0,0,4.18-.5,10.36,10.36,0,0,0,1.16-1.28l2.31-2.64a4.22,4.22,0,0,0,1-1.43l0-1a6.14,6.14,0,0,1-1,1.33c-.65.73-3.14,3.66-3.43,3.88a6.82,6.82,0,0,1-2.41.36,14.72,14.72,0,0,1-2.26.1l0,1.06Z"/><path class="cls-25" d="M125.35,629c.07.17,0,.09.15.14a.76.76,0,0,0,.21,0c.64-.06,1.38-.1,2.07-.15,2.63-.2,1.71.23,4.28-2.68l2-2.31,0-.06,0-.05a1.45,1.45,0,0,0,.19-.23c.21-.31.13-.13.15-.37l0-1a23.68,23.68,0,0,1-2.16,2.59c-2.43,2.74-2,2.8-3.57,2.89a24.6,24.6,0,0,1-3.42.18l0,1.07Z"/><path class="cls-27" d="M153.88,618.92a6.11,6.11,0,0,1,.11.81l0,.69h.22a5.9,5.9,0,0,1,.12-1.9s0-.63,0-.68-.06-.14-.08-.24a7.37,7.37,0,0,1-.3-.85.09.09,0,0,0,0,0v0a19.85,19.85,0,0,1-.09,2.24Z"/><path class="cls-28" d="M152.88,609.87a.34.34,0,0,0-.06.15l-.13.51a15,15,0,0,0-.41,5.21,6,6,0,0,0,.62,2,3.24,3.24,0,0,0,.85,1c.06.06.08.05.13.12a10.87,10.87,0,0,0,.17-1.71v0a.09.09,0,0,1,0,0,5.26,5.26,0,0,0,.1.91c0,.09.06.16.08.24a.19.19,0,0,0,.11.09l.35-.72a13.74,13.74,0,0,0,.82-2.42,12.82,12.82,0,0,0,.33-3.95,8.82,8.82,0,0,0-.71-2.81c-.09-.18-.18-.33-.27-.49s-.2-.28-.3-.42a1.93,1.93,0,0,1-.32-.4c-.07-.14-.21-.57-.23-.59-.53,4.87.47,7.3-1.14,3.23,0-.07,0,0,0-.09Z"/><path class="cls-29" d="M159.78,617.48c-.33-.16-.64,0-1,.24l-.74.46-.44.23a1.47,1.47,0,0,0-.07.34c.46-.18.43-.11.43.67s0,1.57,0,2.3a2.34,2.34,0,0,1-.07.81c-.12.23-.22.11-.27.37a.44.44,0,0,0,0,.2l1-.59a3.3,3.3,0,0,0,1.48-1.92C160.51,619.33,160.4,617.77,159.78,617.48Zm-.19,3.6a1.55,1.55,0,0,1-.79.95c-.44.2-.43-.08-.43-.65s0-1.09,0-1.63c0-.37,0-.87,0-1.24a.3.3,0,0,1,.12-.28,1,1,0,0,1,.82-.25.75.75,0,0,1,.46.58A4.43,4.43,0,0,1,159.59,621.08Z"/><path class="cls-29" d="M162.57,617.68c-.07,0-.2,0-.24,0h0l.18-.3a1.92,1.92,0,0,0,.21-1.21c-.09-.44-.4-.52-.77-.3s-.79.49-1.27.74c0,.07-.09.26-.06.33s.25-.12.33-.08.07.42.07.65c0,.71,0,1.43,0,2.13a6.88,6.88,0,0,1,0,1,.63.63,0,0,1-.23.28c-.06,0-.08,0-.1.15a.62.62,0,0,0,0,.23l1.12-.63a2.66,2.66,0,0,0,1.21-2.24C163,618,162.78,617.73,162.57,617.68Zm-1.14.12c0-.12,0-1.11,0-1.19s.07-.16.17-.21c.39-.23.68-.2.68.48a1.15,1.15,0,0,1-.78,1.21C161.42,618.14,161.43,618.17,161.43,617.8Zm.5,2.4c-.51.31-.5.07-.5-.77,0-.26,0-.68,0-.93a1.68,1.68,0,0,1,.52-.29.35.35,0,0,1,.37.09A1.6,1.6,0,0,1,161.93,620.2Z"/><path class="cls-30" d="M145.11,630.16a.55.55,0,0,0,0,.22c.05,0,.16-.08.22-.12l.23-.15a5,5,0,0,0,.46-.25,1.15,1.15,0,0,0,0-.26c-.32.08-.28.2-.28-1.17V628a.83.83,0,0,1,0-.4c.22-.42.58-.75.72-.34a7.73,7.73,0,0,1,.06,1.63.7.7,0,0,1-.07.37c-.05.07-.17.16-.19.19a.32.32,0,0,0,0,.27l.44-.28a4,4,0,0,0,.45-.25c0-.07,0-.25,0-.25s-.14,0-.19,0-.07-.12-.07-.29v-1.31a2.66,2.66,0,0,1,0-.4,1.58,1.58,0,0,1,.16-.27,1.39,1.39,0,0,1,.21-.21c.17-.12.29-.06.35.07a1.77,1.77,0,0,1,.09.71c0,.3,0,.59,0,.89s0,.38-.25.61a1.61,1.61,0,0,0,0,.22s0,0,.1,0l.53-.32a2.15,2.15,0,0,0,.26-.14,1.23,1.23,0,0,0,0-.27c-.39.15-.3,0-.3-.79a5.33,5.33,0,0,0-.07-1.31c-.18-.52-.54-.35-.87.17s-.23.53-.36.33c-.27-.41-.69.14-.95.66-.15.29,0-.22-.09-.37a5.59,5.59,0,0,1-.59.6s-.11.14-.08.2.17,0,.27,0,.06,0,.06.17,0,1.71,0,1.89-.22.25-.26.35Z"/><path class="cls-30" d="M151.16,625c0,.42,0,.82,0,1.25s-.09.36-.27.52a1.4,1.4,0,0,0,0,.29c.12,0,.37-.24.54-.33l.39-.21a1,1,0,0,0,0-.3c-.31.07-.29.35-.29-1.22,0-.52,0-.65.13-.91s.5-.49.63-.2a2.4,2.4,0,0,1,.06.7v1c0,.28,0,.35-.25.5a.81.81,0,0,0,0,.31c.17-.1.33-.23.52-.33l.38-.2a.55.55,0,0,0,0-.31s-.19.06-.25,0,0-.3,0-.43c0-.36,0-.73,0-1.09a1.83,1.83,0,0,0-.14-.76c-.41-.66-1,.71-1.06.75a1.9,1.9,0,0,0,0-.48,1.6,1.6,0,0,0-.16.19c-.15.16-.5.45-.52.55s.09.11.24.16.07,0,.08.2V625Z"/><path class="cls-30" d="M149.71,624.57a2.54,2.54,0,0,0-1,2.17c0,.94.33,1.43.88,1.11a2.69,2.69,0,0,0,1-2.18v-.13C150.54,624.73,150.18,624.29,149.71,624.57Zm.4,2.07a1.2,1.2,0,0,1-.31.72c-.38.36-.62-.07-.69-.57a2.3,2.3,0,0,1,.32-1.72c.21-.19.38-.14.48,0A2.43,2.43,0,0,1,150.11,626.64Z"/><path class="cls-30" d="M156.18,620.78a2.7,2.7,0,0,0-.91,2.16c0,1.78,1.14,1.19,1.6.12a3.65,3.65,0,0,0,.26-1.3C157.13,620.83,156.75,620.36,156.18,620.78Zm.51,2c-.15.93-.85,1.23-1,.12a2.26,2.26,0,0,1,.33-1.71.32.32,0,0,1,.48,0A2.51,2.51,0,0,1,156.69,622.79Z"/><path class="cls-30" d="M154.51,624.5c-.17.06-.56.28-.65.24s-.08-.12,0-.26.19-.19.38-.4a2.17,2.17,0,0,0,.32-.49,2,2,0,0,0,.18-.62,2.47,2.47,0,0,0,0-.73c.11-.09.19,0,.29-.25a.86.86,0,0,0,.05-.49c-.08.13-.09.22-.28.33s-.36,0-.69.18a1.94,1.94,0,0,0-.72,1.07,2,2,0,0,0-.09.55c0,.94.41.75.43.82s-.13.27-.16.32a.77.77,0,0,0-.16.31.31.31,0,0,0,.18.32s.07,0,.09,0-.11.21-.14.26a2,2,0,0,0-.31.87c0,.6.38.72.74.51l.05,0a2.77,2.77,0,0,0,1-2C155,624.44,154.82,624.38,154.51,624.5Zm-.87-1a1.25,1.25,0,0,1,.31-1.09c.26-.18.41.08.43.48a1.34,1.34,0,0,1-.3,1.09C153.81,624.12,153.67,623.85,153.64,623.46Zm.73,2.93c-.25.27-.58.4-.76.14s0-.92.25-1.13.67-.41.8-.17A1.19,1.19,0,0,1,154.37,626.39Z"/><path class="cls-31" d="M152.88,609.87c0,.08,0,0,0,.09l.29,1.3.3,1.37c.06.24.1.45.16.69s.45,2,.46,2.09a1.14,1.14,0,0,0,0-.26v-1.91c0-1.06,0-6.2-.08-6.5v-.1a.11.11,0,0,0,0,.06.15.15,0,0,0,0,.07,3.55,3.55,0,0,1-.47,1.27c-.14.34-.27.64-.39,1a7.85,7.85,0,0,0-.25.84Z"/><path class="cls-32" d="M72.85,611.26a1.77,1.77,0,0,1,1.14.55,2.58,2.58,0,0,1,.71,1.71c.26,2.26-.5,2.19-.68,3.24,1.63.84-.33,5.49,1.8,6.33,1.09.43,1.14-.24,1.28-1.5.06-.56.12-1.1.16-1.68.07-.88,0-.94.47-1.13a18.36,18.36,0,0,1-.8-1.73c-.46-1.44-1.53-4.87.69-3.38-.68-3.62-4.75-7.21-4.89-2.34Z"/><path class="cls-32" d="M72.6,615.91c-.79-1.42-.44-2.41-.48-4.06a6.59,6.59,0,0,1,.35-2,3,3,0,0,1,.28-.66c.12-.23.27-.32.37-.51-.91-.93-2.27-1.89-3-1.28s-.48,2.44-.25,3.9c.11.71,1,6.36,2,5.43l.88-.86Z"/><path class="cls-32" d="M76.21,610a4.73,4.73,0,0,1,1.25,1.74,9.46,9.46,0,0,1,.66,2.13,16,16,0,0,1,.18,2.47c.15,2.06-.29,1.58-.34,2,0,.13,0,0,0,.1s.76-1.38.87-1.67c.28-.78.89-2.75.39-4a5.09,5.09,0,0,0-.74-1.23A4.36,4.36,0,0,0,76.21,610Z"/><path class="cls-32" d="M72.77,617.54c.55.84,1.8.89,1.6.06s-.62-.1-.68-.06c-.27.21-.61-.07-.92,0Z"/><path class="cls-32" d="M77.63,619.75a2.28,2.28,0,0,0,1,.54.81.81,0,0,0,.75-.1,3.15,3.15,0,0,1-1.15-.61c-.16-.16-.25-.34-.42-.31s-.17.2-.14.48Z"/><path class="cls-32" d="M74.08,612.67a1,1,0,0,0-1.2-.81c-.21,0-.16.33-.14.69,0,.59,0,1,0,1.53a2.92,2.92,0,0,0,.92,2.14l.16.07a7.2,7.2,0,0,0,.25-.81A5.22,5.22,0,0,0,74.08,612.67Zm-.67-.24c-.11-.44.4-.11.56.23C73.93,613.1,73.49,612.76,73.41,612.43Z"/><path class="cls-32" d="M77.87,614.35c-1-.58-1.31-.52-1,1a20.39,20.39,0,0,0,.79,2.5c.24-.28.12-1.14.08-1.68A11.09,11.09,0,0,1,77.87,614.35Zm-.84-.07c.07-.18.29-.08.51.12C77.58,614.9,77.14,614.67,77,614.28Z"/><path class="cls-33" d="M99.53,633.22V634a7.74,7.74,0,0,0,2.08,1.09c.38.05.41-.27.42-1.1a2.19,2.19,0,0,0-.42-1.61,5.41,5.41,0,0,0-1-.8c-.13-.1-.37-.24-.45-.45a2.05,2.05,0,0,1,0-.92c0-.29.09-.25.37-.12l1.58.82v-.71c-.48-.27-1.72-1.15-2.08-1.08s-.45.22-.47,1c-.06,2.16,1.35,2,1.83,2.91a1.55,1.55,0,0,1,.08.9c-.08.48-.55.16-.83,0s-.73-.42-1.09-.65Z"/><path class="cls-33" d="M104.92,637c.09-.24.24-.12.27-.72s0-2.38,0-2.94a2.22,2.22,0,0,0-.26-1.11,3,3,0,0,0-1.27-1.13,2.12,2.12,0,0,0-.68-.3.4.4,0,0,0-.26,0c-.3.19-.33.67-.33,1.32a20.64,20.64,0,0,0,.09,2.84,1.89,1.89,0,0,0,1.11,1.39,3.31,3.31,0,0,1,.69.48c.19.22.27.59.45.84a1.93,1.93,0,0,0,.67.5Zm-.31-.95c-.09,0-.19-.28-.24-.39a2.35,2.35,0,0,0-.21-.42,1.86,1.86,0,0,0-.68-.53c0,.15.29.76.4,1.11-.73-.38-.85-.52-.87-1.85,0-.5,0-1.08,0-1.57s.09-.68.35-.58a4.32,4.32,0,0,1,.77.44c.48.32.46.36.49.85A28.42,28.42,0,0,1,104.61,636.08Z"/><path class="cls-33" d="M108.08,639.13c0-.2,0-.55,0-.73l-1-.67c-.17-.11-.34-.22-.51-.35a.79.79,0,0,1-.35-.56c-.12-.76,0-3.67-.06-4.21l-.54-.33c0,.15,0,2.22,0,2.56a10,10,0,0,0,.16,2.39,2.61,2.61,0,0,0,1,1.1c.43.28.86.53,1.3.8Z"/><path class="cls-32" d="M92,629.44l.61.37v-4.25c.05.16.1.49.14.67.18.93.49,2.52.68,3.39,0,.17.11.51.16.64a.81.81,0,0,0,.73.46c.1,0,.13-.21.18-.39.1-.34.19-.67.28-1s.18-.69.27-1c.05-.15.24-1,.27-1,0,.65,0,3.45,0,4.23l.61.38c0-.61,0-4.59-.09-5a1.12,1.12,0,0,0-.65-.79c-.28-.06-.35.11-.46.52l-.52,2c0,.17-.1.33-.14.5s-.11.41-.19.39c-.08-.33-.18-.92-.26-1.31s-.52-3-.67-3.28a1,1,0,0,0-.31-.42c-.22-.16-.54-.18-.62,0A10.55,10.55,0,0,0,92,626c0,1.14,0,2.28,0,3.41Zm6.47,4c0,.47,0,.62-.26.56a15.75,15.75,0,0,1-1.81-1,3,3,0,0,0,0,.8c.12.26,1.07.73,1.28.83.44.21.78.4,1.12.21.16-.09.21-.27.23-.75,0-.8,0-3.23,0-4.08l-.61-.36v3a6.78,6.78,0,0,1-1.4-1,26.85,26.85,0,0,1-.07-2.9l-.61-.38c0,.65,0,1.33,0,2a2.78,2.78,0,0,0,.28,1.6c.41.68,1.61,1.21,1.79,1.46Z"/><path class="cls-1" d="M84.14,623.18c.78.46,1.35,0,1.35-.93h0a3.11,3.11,0,0,0-1.34-2.51c-.78-.46-1.34,0-1.34.93h0a3.1,3.1,0,0,0,1.33,2.51Zm0-.67a1.85,1.85,0,0,1-.76-1.5h0c0-.58.31-.86.75-.6a1.86,1.86,0,0,1,.77,1.5h0c0,.58-.31.86-.76.6Zm1.68,1.61.56.33v-1.07l.44.26.54,1.38.65.39-.62-1.56c.32,0,.54-.18.54-.71h0a2,2,0,0,0-1-1.67l-1.16-.68v3.34Zm.56-1.39v-1l.55.33a.84.84,0,0,1,.44.73h0c0,.28-.16.38-.43.22l-.56-.33Z"/><path class="cls-34" d="M116,443.45h0c-12.73-6.73-17-22.95-12.67-30.12l-.68-.11,2.27-1.79h0c2.47-2.08,6.35-2.34,11.65.46h0c14.17,7.5,17.83,26.75,10.89,32.18h0l-2.08,1.62-.28-.45c-2.33.63-5.36.18-9.1-1.8Z"/><path class="cls-35" d="M113.93,445.1h0c-19.22-10.17-19.1-42,.57-31.56h0c19.22,10.17,19.1,42-.57,31.56Z"/><path class="cls-2" d="M105.42,423.87,107.5,425c1,.54,1.64.45,1.66-.47h0a2.26,2.26,0,0,0-.8-1.68c.32,0,.58-.2.59-.76v0a1.91,1.91,0,0,0-.29-1,2.93,2.93,0,0,0-1.13-1.07l-2-1.13-.08,5Zm2.57-2.11c0,.37-.28.38-.7.14l-.88-.49v-1.06l1,.53a1,1,0,0,1,.62.87Zm.21,2.12v0c0,.37-.26.4-.68.16l-1.15-.64,0-1.1,1.11.62c.5.28.71.61.7.94Zm1.36,2.29,1,.55.42-.9,1.85,1,.38,1.34,1,.56-1.79-6.08-.89-.49-2,4Zm1.76-1.13.6-1.3.56,1.94-1.16-.64Zm5.32,5.16a1.57,1.57,0,0,0,1.81.1l-.61-1a1.09,1.09,0,0,1-1.15-.06,2.73,2.73,0,0,1-1.25-2.28h0c0-.86.56-1.26,1.29-.85a3.18,3.18,0,0,1,1.11,1.18l.63-.46a4.43,4.43,0,0,0-1.71-1.73c-1.34-.75-2.3-.11-2.32,1.31v0a4.59,4.59,0,0,0,2.2,3.82Zm2.57,1.34,1,.54,0-1.53.51-.32,1.33,2.88,1.15.64-1.81-3.91,1.81-1.13-1.16-.65-1.81,1.2,0-2.19-1-.53-.07,5Zm-11.74.94,3.33,1.85,0-1L108.44,432l0-1,2.06,1.15,0-1L108.47,430l0-1,2.34,1.3,0-1-3.3-1.83-.08,5Zm4.19,2.33,1,.53,0-3.18,2.07,4.36.81.45.08-5-1-.53,0,3.08-2-4.22-.89-.49-.08,5Zm4.94,2.75,1.7.95c1.38.76,2.34.2,2.36-1.21h0a4.52,4.52,0,0,0-2.28-3.78l-1.7-.95-.08,5Zm1.77-3.06a2.63,2.63,0,0,1,1.29,2.24v0c0,.88-.55,1.19-1.34.76l-.75-.42.05-3,.75.41Z"/><path class="cls-36" d="M61.5,5.85h0l3.08-1.8c1.79-1.27,4.5-1.18,7.52.57l93.55,54.31c5.31,3.08,9.56,10.21,9.56,15.84l0,96c0,7.53-3.16,9.47-4.91,11.37h0c-1.68,2.2-4.9,2.5-8.53.39L68.34,128.12c-5.3-3.09-9.55-10.21-9.55-15.83l0-98.72h0V11.34c0-2.73,1-4.62,2.73-5.49Z"/><path class="cls-3" d="M60.61,5.25l-.22.13v0a5.55,5.55,0,0,0-1.78,2.12,8.52,8.52,0,0,0-.81,3.82v.6h0v1.63l0,98.72a19,19,0,0,0,3,9.4A21,21,0,0,0,67.86,129l93.45,54.38a10.09,10.09,0,0,0,5.44,1.56,5.69,5.69,0,0,0,3.59-1.4h0l0,0a5.64,5.64,0,0,0,.66-.72l.71-.71c1.9-1.87,4.44-4.36,4.44-11.3l0-96a19.06,19.06,0,0,0-2.95-9.42,20.91,20.91,0,0,0-7.09-7.26L72.58,3.77A10.79,10.79,0,0,0,68,2.24a5.94,5.94,0,0,0-4,1L61,5l-.43.25Zm2,1.07,2.45-1.43.08,0a4.08,4.08,0,0,1,2.76-.67,8.92,8.92,0,0,1,3.73,1.28l93.56,54.31a19,19,0,0,1,6.4,6.6,17,17,0,0,1,2.67,8.4l0,96c0,6.12-2.2,8.28-3.85,9.9l-.1.1-.09-.1-.67.88a3.75,3.75,0,0,1-2.89,1.44,8.25,8.25,0,0,1-4.41-1.3L68.82,127.28a19.15,19.15,0,0,1-6.41-6.6,17.14,17.14,0,0,1-2.67-8.39V15.21h0V11.34a6.59,6.59,0,0,1,.6-2.95,3.73,3.73,0,0,1,1.6-1.68l.68-.35v0Z"/><path class="cls-36" d="M62.54,83.21l0-70.57-1.21-2.18,1.18-1-1-3.63,3.08-1.8c1.79-1.27,4.5-1.18,7.52.57l93.55,54.31c5.31,3.08,9.56,10.21,9.56,15.84l0,96.05c0,7.52-3.16,9.47-4.91,11.36l-90-107-17.8,8Z"/><path class="cls-3" d="M62.73,82.91l0-70.27,0-.09L61.53,10.5l1.06-.87.1-.08,0-.12-.93-3.49,3-1.72h0a4.87,4.87,0,0,1,3.25-.81A9.54,9.54,0,0,1,72,4.79L165.38,59.1A19.69,19.69,0,0,1,172.05,66a17.79,17.79,0,0,1,2.77,8.81l0,96.05c0,6.44-2.33,8.73-4.08,10.45l-.63.62L80.45,75.08l-.09-.1-.13,0-17.5,7.88ZM62.3,12.69l.05,70.52v.3l.27-.12,17.64-7.94L170,182.31l.14.16.15-.15c.23-.26.48-.51.75-.77,1.8-1.76,4.2-4.13,4.2-10.73l0-96a18.24,18.24,0,0,0-2.83-9,20.15,20.15,0,0,0-6.81-7L72.18,4.45A10.19,10.19,0,0,0,68,3a5.29,5.29,0,0,0-3.5.88L61.4,5.68l-.13.08,0,.14.94,3.51-1.09.9-.12.1.08.14,1.18,2.14Z"/><path class="cls-2" d="M58.77,13.57V11.34c0-5.62,4.44-7.69,9.75-4.6L162,61.12c5.31,3.09,9.55,10.21,9.56,15.84v98.71h0v2.23c0,5.62-4.43,7.69-9.74,4.6L68.34,128.12c-5.3-3.09-9.55-10.21-9.55-15.83l0-98.72Z"/><path class="cls-3" d="M59,13.57V11.34a7.11,7.11,0,0,1,.82-3.55,4.43,4.43,0,0,1,1.68-1.7,4.89,4.89,0,0,1,2.41-.59,9.16,9.16,0,0,1,4.55,1.41l93.45,54.38a19.72,19.72,0,0,1,6.67,6.87,17.77,17.77,0,0,1,2.78,8.8l0,98.37h0v2.57a7.22,7.22,0,0,1-.81,3.55,4.52,4.52,0,0,1-1.69,1.7,4.86,4.86,0,0,1-2.41.59,9.22,9.22,0,0,1-4.55-1.41L68.44,128a19.83,19.83,0,0,1-6.68-6.87A17.77,17.77,0,0,1,59,112.29L59,13.9h0v-.33Zm-.38-2.23v1.9h0v.33l0,98.72a18.24,18.24,0,0,0,2.83,9,20.26,20.26,0,0,0,6.82,7l93.44,54.38a9.59,9.59,0,0,0,4.74,1.46,5.27,5.27,0,0,0,2.6-.64,4.79,4.79,0,0,0,1.83-1.85,7.39,7.39,0,0,0,.86-3.74V176h0V77a18.26,18.26,0,0,0-2.84-9,20.32,20.32,0,0,0-6.81-7L68.61,6.57a9.59,9.59,0,0,0-4.74-1.46,5.23,5.23,0,0,0-2.59.64A4.79,4.79,0,0,0,59.45,7.6a7.5,7.5,0,0,0-.87,3.74Z"/><polygon class="cls-3" points="58.67 17.9 171.42 83.51 171.52 83.57 171.62 83.5 175.31 81.08 175.1 80.75 171.51 83.11 58.87 17.56 58.67 17.9"/><path class="cls-3" d="M75.19,17c-.93-.76-1.69-.37-1.69.86a5.26,5.26,0,0,0,1.69,3.61c.94.75,1.7.36,1.7-.87a5.21,5.21,0,0,0-1.7-3.6Zm-8.93-5.28c-.94-.76-1.7-.37-1.7.86a5.19,5.19,0,0,0,1.7,3.6c.93.76,1.69.37,1.69-.86a5.24,5.24,0,0,0-1.69-3.6Zm4.44,2.63c-.94-.77-1.7-.38-1.7.86a5.23,5.23,0,0,0,1.7,3.6c.93.75,1.69.37,1.69-.87a5.21,5.21,0,0,0-1.69-3.59Z"/><path class="cls-37" d="M81.33,62.56a23.84,23.84,0,0,0,2.06,1.24l2.37,1.4-2.32-8.29-.06-.07-2,5.72ZM83.39,49.7v.07a.37.37,0,0,1,0,.11l.43,1.55c.41,1.49,1,3.61,1.38,5,.6,2,1.22,4.49,1.83,6.58s1.19,4.41,1.84,6.63c.32,1.1.59,2.19.92,3.31l.9,3.31-2.46-1.51A2.82,2.82,0,0,1,88,74c-.4-1.59-1-3.82-1.35-5.24L83.4,66.83l0-.07-3-1.76L79,69.16l-2.62-1.48c.05-.29,1.62-4.17,1.77-4.56.22-.59,5.16-13.26,5.27-13.42Zm0,29.49A10.43,10.43,0,0,0,84.57,79c1.08-.24,2.39-.4,3.43-.66s2.35-.42,3.43-.65l.28-.06c.45-.1.34.11.44-1,0-.5,1.58-16.39,1.58-16.93L83.39,48.59a7.15,7.15,0,0,0-1.25-.13l-3.79-.32c-1.67-.13-3.39-.36-5-.44,0,.2,1,12.76,1.13,14.82.12,1.63.22,3.32.39,4.95.69,1,1.43,2,2.14,3s1.42,2,2.15,3l3.22,4.41a10.74,10.74,0,0,0,1.08,1.4Z"/><path class="cls-38" d="M114,98.63l.24.14a5,5,0,0,1,1,.2l3,.68c1.34.32,2.69.63,4,.91l1.81-25.26L104.11,63.6,105.92,91c.45.48,5.11,4.84,6,5.69.39.37,1.8,1.63,2,1.95Z"/><path class="cls-2" d="M114.07,84.6l3.07,1.8-.29,4-2.75-.65-2.77-2.57a.82.82,0,0,1,0-.18l-.18-2.54L108.61,83c0,.38.3,5,.37,5.31l5,4.75.08,0,5.13,1.18.67-9.45c-.14-.25-.48-.37-.67-.48l-5.12-3-3.3-2-.22-3.4,3.52,2.06L120,81.52c.11,0,0,0,.11,0l.23-3-6.26-3.68-6.25-3.66.66,10.14,5.59,3.31Z"/><path class="cls-1" d="M134.34,80.54,136.15,108c1.36,1.29,2.7,2.53,4,3.76l4,3.78.25.14,8,1.65,1.81-25.69L134.34,80.25v.29Z"/><path class="cls-2" d="M144.3,94.45l3.49,2a26,26,0,0,1-.25,3.22l-3.17-1.8-3.06-1.76.24,3.41,2.74,1.57,3.08,1.81-.29,4-2.75-.6a37.9,37.9,0,0,1-2.82-2.61l-.17-2.68-2.47-1.44.32,5.31,5.1,4.82.14,0a38.33,38.33,0,0,0,5,1l1.12-15.88A22.39,22.39,0,0,0,147.44,93l-3.15-1.82-6.2-3.55.2,3.36,6,3.46Z"/><polygon class="cls-34" points="107.55 107.32 113.92 116.25 113.92 119.41 109.58 113.33 109.58 118.78 113.92 124.86 113.92 128.22 107.55 119.29 107.55 107.32"/><polygon class="cls-35" points="120.3 115.05 113.92 116.25 113.92 119.41 118.27 118.6 118.27 124.04 113.92 124.86 113.92 128.22 120.3 127.02 120.3 115.05"/><polygon class="cls-35" points="113.92 116.25 107.55 117.45 107.55 129.41 113.92 128.22 113.92 124.86 109.58 125.68 109.58 120.23 113.92 119.41 113.92 116.25"/><polygon class="cls-34" points="113.92 116.25 120.3 125.18 120.3 137.14 113.92 128.22 113.92 124.86 118.27 130.94 118.27 125.49 113.92 119.41 113.92 116.25"/><path class="cls-37" d="M150.73,134.76,147,131.45l0,.35,0-.24-2.91,3.14-2.92-6.57,0,.19,0-.3-3.77-1.13a56.87,56.87,0,0,0,.11,15.78l3.92,3.17a66.48,66.48,0,0,1-.76-10.58l3.42,6.42,3.41-2.4a50.32,50.32,0,0,1-.76,9.69l3.92,1.43A55,55,0,0,0,150.73,134.76Zm-11.65,7.11a.38.38,0,0,1-.17-.29q-.3-3-.33-6.06a54.24,54.24,0,0,1,.26-6c0-.11.08-.16.17-.09a.41.41,0,0,1,.13.32,55.78,55.78,0,0,0-.26,5.93q0,3,.33,6C139.22,141.82,139.17,141.9,139.08,141.87Zm7.84-5.7-2.81,2.22c-.05,0-.14,0-.2-.11L141,132.66a.31.31,0,0,1,0-.32c.06-.06.15,0,.22.11l2.85,5.41,2.7-2.14c.06-.05.16,0,.22.14S147,136.12,146.92,136.17Zm2.19,11.41c0,.12-.09.16-.18.09a.44.44,0,0,1-.12-.33,55.16,55.16,0,0,0,.33-5.61q0-3-.26-6.23c0-.13.05-.21.13-.17a.36.36,0,0,1,.17.29q.28,3.3.26,6.29A56.2,56.2,0,0,1,149.11,147.58Z"/><path class="cls-1" d="M80.81,107.53c1.14.71,2,0,2-1.48h0a4.92,4.92,0,0,0-2-3.91c-1.15-.71-2,0-2,1.48h0a4.9,4.9,0,0,0,2,3.91ZM89,109.34v.83l12.54,7.74v-.83L89,109.34ZM82.66,98.4V85l-.59-.37V98l.59.37ZM83.3,109l.82.51v-1.68l.64.4.8,2.17,1,.59-.91-2.43c.47,0,.8-.29.8-1.13v0a3.26,3.26,0,0,0-.32-1.39A2.87,2.87,0,0,0,85,104.8l-1.7-1V109Zm.82-2.18v-1.51l.81.51a1.31,1.31,0,0,1,.65,1.14v0c0,.44-.23.6-.63.35l-.83-.51Zm-3.3-.32a3,3,0,0,1-1.13-2.34v0c0-.9.46-1.34,1.12-.94a2.94,2.94,0,0,1,1.12,2.34v0c0,.89-.45,1.35-1.11.94Z"/><path class="cls-7" d="M181.41,370.81a.56.56,0,0,0-.56.56v74.32A16.16,16.16,0,0,1,179,453.8a9,9,0,0,1-3.15,3.27,8.44,8.44,0,0,1-4.36,1.14,14.77,14.77,0,0,1-7.32-2.25l-34.31-20-.14,0a.19.19,0,0,1-.08,0h-.09l0,0-.11.12,0,.06c0,.11-.06.22-.09.33a1.36,1.36,0,0,1,.09.36l.13.15,34.11,19.86a15.82,15.82,0,0,0,7.88,2.41,9.57,9.57,0,0,0,4.93-1.3,10.1,10.1,0,0,0,3.55-3.67,17.24,17.24,0,0,0,2-8.67V371.37A.56.56,0,0,0,181.41,370.81Z"/><path class="cls-6" d="M116.08,346.91c.25.1.52-.61.8-.54V412.7a.56.56,0,0,1-1.12,0V346.75C115.87,346.74,116,346.93,116.08,346.91Z"/><path class="cls-36" d="M159,264.78l3.31-1.93c1.45-1,3.63-.91,6,.43l31.06,17.16c4.27,2.36,7.68,7.8,7.68,12.09l0,93.41a4.71,4.71,0,0,1-2.32,4.38l-3.48,2h0c-1.45.92-3.61.83-6-.49l-31.05-17.15c-4.27-2.36-7.68-7.8-7.69-12.09l0-93.5a5,5,0,0,1,1.09-3.35,4.18,4.18,0,0,1,1.33-1Z"/><path class="cls-3" d="M158.53,264l3.28-1.9a5.23,5.23,0,0,1,3.32-.8,9.13,9.13,0,0,1,3.74,1.2l31.2,17.15a16.8,16.8,0,0,1,5.79,5.62,14.15,14.15,0,0,1,2.42,7.3l0,93.41a6.4,6.4,0,0,1-.72,3.06,5.13,5.13,0,0,1-2.1,2.15h0l-3.44,2a3.3,3.3,0,0,1-.32.18l-.12.07h0a5.43,5.43,0,0,1-2.85.48,9.28,9.28,0,0,1-3.68-1.19l-31.2-17.15a16.8,16.8,0,0,1-5.79-5.62,14.09,14.09,0,0,1-2.42-7.3l0-93.5a6.71,6.71,0,0,1,.32-2.18,5.1,5.1,0,0,1,1-1.8,4.39,4.39,0,0,1,1.33-1l.24-.14Zm4.28-.29-3.33,1.92-.26.15a2.77,2.77,0,0,0-.84.63,3.16,3.16,0,0,0-.63,1.13,5.23,5.23,0,0,0-.23,1.6l0,93.5a12.23,12.23,0,0,0,2.13,6.29,14.76,14.76,0,0,0,5.1,5L196,391a7.3,7.3,0,0,0,2.91,1,3.42,3.42,0,0,0,2.14-.45l.41-.26h0l3.09-1.78h0a3.34,3.34,0,0,0,1.35-1.36,4.66,4.66,0,0,0,.49-2.19l0-93.41a12.32,12.32,0,0,0-2.13-6.29,14.73,14.73,0,0,0-5.11-5L168,264.11a7.31,7.31,0,0,0-3-1,3.35,3.35,0,0,0-2.14.49l-.05,0Z"/><path class="cls-36" d="M160.59,360.21l-.06-90.71-1-1.68,1-.74-2.14-1.92,4-2.31c1.45-1,3.63-.91,6,.43l31.06,17.16c4.27,2.36,7.68,7.8,7.68,12.09l0,93.41a4.71,4.71,0,0,1-2.32,4.38l-3.48,2-1.9-.93-1.6-2.75L168.28,372.3c-4.28-2.36-7.69-7.8-7.69-12.09Z"/><path class="cls-3" d="M160.41,360.21l-.06-90.66-1-1.63-.08-.14.13-.1.78-.61-2-1.77-.19-.17.23-.13,4-2.31a4.42,4.42,0,0,1,2.84-.68,8.56,8.56,0,0,1,3.43,1.11l31.19,17.15a15.94,15.94,0,0,1,5.51,5.36,13.34,13.34,0,0,1,2.3,6.9l0,93.41a5.74,5.74,0,0,1-.62,2.71,4.52,4.52,0,0,1-1.81,1.84h0l-3.49,2-.09.05-.08,0-1.92-.93-.07-.07-1.59-2.71-29.67-16.32a16,16,0,0,1-5.52-5.36,13.43,13.43,0,0,1-2.3-6.9Zm.32-90.71.06,90.71a13,13,0,0,0,2.24,6.7,15.54,15.54,0,0,0,5.38,5.23l29.72,16.34.07.08,1.58,2.7,1.77.86,3.41-2h0a4.05,4.05,0,0,0,1.65-1.68,5.33,5.33,0,0,0,.58-2.54l0-93.41a13.11,13.11,0,0,0-2.24-6.7,15.71,15.71,0,0,0-5.38-5.23l-31.19-17.15a8,8,0,0,0-3.27-1.06,4.15,4.15,0,0,0-2.62.61h0l-3.77,2.18,1.95,1.75.17.15-.18.14-.83.64.9,1.53,0,.1Z"/><path class="cls-2" d="M156.64,362.6l0-93.5a5,5,0,0,1,1-3.24c1.36-1.66,3.94-1.88,6.85-.27l31.05,17.15c4.27,2.36,7.69,7.81,7.69,12.1l0,93.49c0,4.29-3.58,5.87-7.85,3.51l-31-17.15c-4.27-2.36-7.68-7.8-7.69-12.09Z"/><path class="cls-3" d="M156.45,362.6l0-93.5a6.4,6.4,0,0,1,.26-1.87,4.5,4.5,0,0,1,.78-1.49,4.05,4.05,0,0,1,3-1.43,8,8,0,0,1,4.06,1.11l31.16,17.16a15.94,15.94,0,0,1,5.51,5.36,13.4,13.4,0,0,1,2.3,6.9l0,93.49a5.66,5.66,0,0,1-.64,2.76,3.87,3.87,0,0,1-1.51,1.52,4.45,4.45,0,0,1-2.16.52,8.09,8.09,0,0,1-3.84-1.12l-31.16-17.15a16.06,16.06,0,0,1-5.52-5.36,13.43,13.43,0,0,1-2.3-6.9Zm.34-93.5,0,93.5a13.17,13.17,0,0,0,2.24,6.69,15.53,15.53,0,0,0,5.38,5.23l31.16,17.16a7.69,7.69,0,0,0,3.66,1.07,4.05,4.05,0,0,0,2-.47,3.51,3.51,0,0,0,1.36-1.37,5.29,5.29,0,0,0,.59-2.58l0-93.49a13,13,0,0,0-2.24-6.7,15.45,15.45,0,0,0-5.38-5.23l-31.16-17.16a7.47,7.47,0,0,0-3.85-1.06,3.64,3.64,0,0,0-2.78,1.29,4.09,4.09,0,0,0-.71,1.36,6,6,0,0,0-.25,1.76Z"/><path class="cls-7" d="M173,296.1v13.45a4.34,4.34,0,0,0,.73,2.31c.64.94,1.06.94,1.86,1.46,0,.19,0,3.78,0,4.05a3.12,3.12,0,0,0,.7,2.53c.57.68,1.28.94,1.76.6.31-.22.26-.85.26-1.55,0-.27,0-3.91,0-4.06l2.34,1.33c.05.21.06,3.64.06,4.14a3.24,3.24,0,0,0,.85,2.47c.19.21.2.32.43.46a.89.89,0,0,0,1.08,0c.34-.31.4-.44.4-1.24,0-1.36,0-2.71,0-4.08.79.36,1.44.88,2.09.65.39-.14.74-.55.74-1.5V303.63L173,296v.1Z"/><path class="cls-7" d="M170.37,294.65a.79.79,0,0,0-1,.12c-.28.31-.21.83-.21,1.51v7.61a2.61,2.61,0,0,0,.09.87c.4,1.29,1.78,2.28,2.42,1.62.28-.28.22-.84.22-1.5v-7.61a2.65,2.65,0,0,0-.1-.88,2.9,2.9,0,0,0-.33-.71,2.74,2.74,0,0,0-1.14-1Z"/><path class="cls-7" d="M188.87,305.21c-.42-.18-.9-.27-1.09-.06s-.22.88-.22,1.55v7.62c0,.57-.15.92.23,1.51.65,1,1.69,1.42,2.08.93a1.71,1.71,0,0,0,.44-1.34v-7.63a2.91,2.91,0,0,0-.64-1.73,2.65,2.65,0,0,0-1.14-1Z"/><path class="cls-7" d="M185.26,297.73a12.9,12.9,0,0,0-1-2,12.65,12.65,0,0,0-.95-1.32c-.1-.12-.26-.3-.35-.42a3.28,3.28,0,0,1,.31-.45c.1-.14.78-1.06.8-1.15a.52.52,0,0,0-.14-.43c-.13-.13-.22-.1-.27,0l-1.13,1.6c-.09-.06-.52-.48-.65-.6a13,13,0,0,0-2.24-1.61,9.39,9.39,0,0,0-2.23-1c-.18,0-.53-.08-.67-.14l-1.12-2.85c-.18-.46-.44-.37-.42-.09s.4,1.08.46,1.25l.33.82c.05.15.3.75.32.86a2.19,2.19,0,0,0-.68.05,2.73,2.73,0,0,0-1.62,1,6.22,6.22,0,0,0-1.05,3.44l13.37,7.63A13.89,13.89,0,0,0,185.26,297.73Zm-8.32-3.23c-.95-.22-1.33-2.36-.34-2.11a1.61,1.61,0,0,1,.89,1.24C177.6,294.3,177.28,294.59,176.94,294.5Zm4.81,2a1,1,0,0,1,.12-.74.38.38,0,0,1,.44-.13c.46.11.81.74.9,1.25C183.42,298.29,182,297.93,181.75,296.53Z"/><polygon class="cls-3" points="161.76 364.93 163.68 364.66 165.6 364.38 165.6 367.02 165.6 369.65 163.68 367.3 161.76 364.93"/><path class="cls-3" d="M180,372.36h0a4.06,4.06,0,0,1,1.88,3.25h0c0,1.23-.85,1.77-1.88,1.21h0a4,4,0,0,1-1.87-3.25h0c0-1.23.84-1.77,1.87-1.21Z"/><polygon class="cls-3" points="193.84 380.02 197.25 381.88 197.25 385.93 193.84 384.08 193.84 380.02"/><path class="cls-39" d="M146.55,579.92v-9a12,12,0,0,0,0-1.23c-.07-.17-.39-.19-.54-.21s-.39-.08-.58-.12l-.29-.06a.88.88,0,0,1-.29-.07l-.1.06c-.14.23-.1.24-.1.68,0,.9,0,5.22,0,5.45s-.46,0-.59,0c-.31-.08-.32-.09-.64.36L141.09,579a1.22,1.22,0,0,0-.31,1v3.88c0,.46.18.41.4.45l1.7.4.56.13c.29.07.42-.24.65-.56.76-1.08,1.5-2.17,2.26-3.24C146.61,580.67,146.55,580.42,146.55,579.92Zm-1.93.24c0,.22-.07.25-.19.42s-.73,1-.77,1.08a4.49,4.49,0,0,1-.77-.15c-.13,0-.19,0-.19-.2V580c0-.21.07-.25.19-.42s.71-1,.77-1.07a2.18,2.18,0,0,1,.53.09c.26.07.43,0,.43.25Z"/><path class="cls-40" d="M135.88,580c-.15.14-2.19,3.09-2.46,3.48a1.25,1.25,0,0,0-.35.8c0,.46,0,4.25,0,4.38s.69.27.92.33l1.71.4c.31.08.36-.13.82-.78l1.94-2.79a1.25,1.25,0,0,0,.36-.82c0-.46,0-4.26,0-4.38s-.29-.17-.44-.2l-1.46-.34-.49-.11c-.14,0-.36-.16-.54,0Z"/><path class="cls-39" d="M125.35,588.7v5.91c.17.18.19,0,.54-.45l1.06-1.49a1.2,1.2,0,0,0,.32-.95c0-.79,0-1.61,0-2.4a1.41,1.41,0,0,1,.39-.87,5.1,5.1,0,0,1,.56-.74c.14-.09.44,0,.55,0,.54.14.42,0,.42,1.52,0,.41,0,.81,0,1.22s0,.57.28.62l1.34.3c.11,0,.23,0,.29-.22,0-.06,0-5.71,0-5.93s-.3-.24-.46-.27l-2.11-.49c-.28-.07-.32,0-.59.34l-1.6,2.29-.53.75-.26.38a1.19,1.19,0,0,0-.21.44Z"/><path class="cls-39" d="M151.26,570.78c-.12.12-.52.72-.66.92l-.66.94-.64.93c-.22.31-.45.61-.66.94a.89.89,0,0,0-.17.58v3.73c0,.74,0,.71.34.8l2.31.51c.13,0,.22,0,.38-.18.45-.6.87-1.23,1.32-1.85a1.25,1.25,0,0,0,.29-.51c0-.23-.15-.2-.26-.22l-.66-.15c-.2-.06-.43-.1-.65-.15l-.66-.15-.32-.07c-.17,0-.19,0-.19-.36v-.74c0-.72,0-.49.74-1.6.26-.39.26-.32.69-.21l.33.07c.19,0,.16,0,.16.42s-.08,1.34.29.79.86-1.24,1.3-1.87.34-.46.34-1.22a3.94,3.94,0,0,0,0-.7c0-.18-.15-.16-.27-.2l-2.29-.54a.32.32,0,0,0-.38.09Z"/><path class="cls-40" d="M157.87,569.72c-.05.19,0,3.06,0,3.51a2.86,2.86,0,0,1-.06.83.56.56,0,0,1-.44.41,3.58,3.58,0,0,1-.78-.17c0-.06,0-3.45,0-3.84s0-.27.3-.73l.42-.61c.47-.66,1.26-1.83,1.7-2.42.12-.17.23-.1.45,0s2.1.45,2.13.52,0,3.75,0,4.12c0,.07-1.61,2.32-1.78,2.57s-.29.42-.44.62c-.3.44-.19.43-.68.3s-.17-.17-.73.48c0,.13.43.17.55.2.65.15.55.17,1.25-.81l1.73-2.48c.62-.89.54-.74.54-2.16v-2.61c0-1-.05-.89-.76-1.06l-1.72-.39a.52.52,0,0,0-.69.23l-2.3,3.29a1.65,1.65,0,0,0-.4,1c0,.41,0,.89,0,1.3v2.63c0,.49.09.6.32.64s.38.1.57.13c.5.06,1.07-.33,1.23-1.17.09-.41.05-3.14.05-3.89s0-.69-.24-.52c-.09.05-.14.06-.19.16Z"/><path class="cls-40" d="M158.54,571.67c-.08.55.18.82.38.87a1.44,1.44,0,0,0,1-.34,2.49,2.49,0,0,0,.88-1,1.68,1.68,0,0,0,.12-1.35c-.39-.67-2,.94-1.82-.09a1.36,1.36,0,0,1,1.16-.89c.18.07.13.22.23.4a.93.93,0,0,0,.3-.15c.15-.1.14-.16.11-.34-.11-.82-.64-.68-1.21-.33-1.28.77-1.25,2.18-.85,2.37s1.2-.45,1.57-.4c.16,0,.16.35,0,.61s-1.3,1.25-1.44.56c0-.17,0-.25-.15-.16a1.36,1.36,0,0,0-.32.21Z"/><path class="cls-40" d="M150.8,575.27v.8c0,.18,0,.13.25.18a1,1,0,0,0,.3,0,2.77,2.77,0,0,0,.3-.4c.27-.39.28-.22.26-1.16v-.13a2.88,2.88,0,0,0-.54-.11,9.15,9.15,0,0,0-.55.77Z"/><path class="cls-41" d="M113.24,675.65l3.05-.89-3.38-2-3.08.92,3.41,2Zm2.41-5.83,2.76-.81a15,15,0,0,0,1.4-1.63c-.14,0-2.49.82-2.61.88a12,12,0,0,0-1.55,1.56ZM110,673.15a4,4,0,0,0,.71-.19l2-.62a14.8,14.8,0,0,0,1.4-1.63c-.13,0-2.49.81-2.61.88a12.67,12.67,0,0,0-1.55,1.56Zm2,4.57c.45-.19,2.42-.67,2.74-.83l1.44-1.66c-.37.12-2.57.77-2.74.87a17.8,17.8,0,0,0-1.44,1.62Zm-5.74,3.34h.09c.39-.08,2.63-.77,2.67-.8a8,8,0,0,0,.72-.8l.65-.76c0-.09,0,0,0-.08l-2.7.84a16.05,16.05,0,0,0-1.46,1.61Zm7.67,1.13c.25,0,2.56-.71,2.75-.81a16.63,16.63,0,0,0,1.41-1.63c-.21,0-2.52.73-2.71.84a13.94,13.94,0,0,0-1.45,1.6Zm4.92-9.91,3-.9-3.3-2-3.07.91,3.32,1.95Zm-5.41.15,3.34,2,1.53-1.79-3.3-2-1.57,1.79Zm1.76,7.71,3.08-.9-3.33-2-3.06.91,3.31,1.95Zm3.92-11,3.33,1.95,1.54-1.79-3.3-1.95-1.57,1.79Zm-9.68,14.41,3.08-.9-3.33-2-3,.91,3.3,1.95Zm8-2.06,3.34,2a20.65,20.65,0,0,0,1.49-1.82L119,679.68l-1.58,1.78Zm2.8,2.29-3.34-2-3.06.93c.81.41,2.71,1.66,3.21,1.88.21.09.3,0,.8-.14l2.39-.69ZM113,682.3l1.49-1.72c0-.09,0,0,0-.12l-3.24-1.91c-.42.42-1,1.15-1.44,1.63-.12.13-.17.12,0,.23L113,682.3Zm5.79-3.38,1.51-1.79-3.28-2c-.3.32-.57.63-.85.94l-.62.71c-.12.14-.16.11,0,.23.45.3,1.11.63,1.6.92s1.14.71,1.63.94Z"/><path class="cls-39" d="M130.36,675.21s.07.06.06.1,0,.08-.1.13l-.32.21-.36.19a.68.68,0,0,1-.22,0,.32.32,0,0,1-.16,0l-.37-.22a1.17,1.17,0,0,1-.18.67,1.74,1.74,0,0,1-.64.58,3.73,3.73,0,0,1-.79.35,3.35,3.35,0,0,1-.83.14,3.29,3.29,0,0,1-.83-.07,3,3,0,0,1-.8-.32,1.33,1.33,0,0,1-.55-.52.63.63,0,0,1,0-.57,1.74,1.74,0,0,1,.49-.63,6.36,6.36,0,0,1,1-.7l.46-.27-.29-.17a2.07,2.07,0,0,0-.43-.2,1.31,1.31,0,0,0-.43-.08,1.59,1.59,0,0,0-.43.06,2.5,2.5,0,0,0-.48.22,2.6,2.6,0,0,0-.52.39,2.91,2.91,0,0,0-.29.37,2.38,2.38,0,0,0-.17.29.4.4,0,0,1-.14.17l-.14,0-.18,0a1.11,1.11,0,0,1-.21-.08,1.34,1.34,0,0,1-.24-.12A1.07,1.07,0,0,1,122,675a.26.26,0,0,1-.07-.15.54.54,0,0,1,.09-.25,2.27,2.27,0,0,1,.26-.36,3.91,3.91,0,0,1,.41-.39,4.07,4.07,0,0,1,.55-.38,6.07,6.07,0,0,1,1.05-.49,3.44,3.44,0,0,1,1-.18,3.1,3.1,0,0,1,1,.12,4.66,4.66,0,0,1,1,.43l3.19,1.87Zm-3.34-.43-.5.3a3.37,3.37,0,0,0-.49.34.8.8,0,0,0-.23.3.3.3,0,0,0,0,.26.58.58,0,0,0,.24.22,1.14,1.14,0,0,0,.65.16,1.34,1.34,0,0,0,.69-.2.89.89,0,0,0,.37-.38,1,1,0,0,0,0-.53l-.81-.47Zm7-7.29.13.1.18.17,3,3.25a.35.35,0,0,1,.08.12.24.24,0,0,1,0,.13,1.63,1.63,0,0,1-.21.17l-.41.25-.43.24a1.54,1.54,0,0,1-.3.12.66.66,0,0,1-.23,0,.84.84,0,0,1-.2-.05l-3.67-1.22-.06,0,0,0,2.16,2.12a.33.33,0,0,1,.08.11.14.14,0,0,1,0,.13,1.64,1.64,0,0,1-.22.18l-.41.25c-.18.1-.32.19-.43.24a1.54,1.54,0,0,1-.3.12.66.66,0,0,1-.23,0,.79.79,0,0,1-.2,0l-5.53-1.79-.3-.1-.16-.08a.13.13,0,0,1-.06-.07s0-.06,0-.1a.9.9,0,0,1,.17-.14l.31-.2.35-.19.25-.1a.52.52,0,0,1,.17,0l.15,0,4.42,1.49.07,0-.05,0-2.61-2.55a.24.24,0,0,1-.06-.09.1.1,0,0,1,0-.1.58.58,0,0,1,.16-.14l.3-.19.34-.18.22-.09a.36.36,0,0,1,.17,0,.31.31,0,0,1,.13,0l4.45,1.5.07,0-.05,0-2.59-2.56a.24.24,0,0,1-.06-.09.11.11,0,0,1,0-.1.58.58,0,0,1,.16-.14l.31-.19.33-.18a1.33,1.33,0,0,1,.23-.1.45.45,0,0,1,.16,0l.12,0Zm7.48-.39a1.47,1.47,0,0,1,.56.5.73.73,0,0,1,.1.55,1.25,1.25,0,0,1-.34.56,3.14,3.14,0,0,1-.7.54,5.6,5.6,0,0,1-.55.27,4.91,4.91,0,0,1-.53.19,3.52,3.52,0,0,1-.44.11,1.37,1.37,0,0,1-.3,0,1,1,0,0,1-.27-.05,2.23,2.23,0,0,1-.39-.19l-.23-.15-.12-.1a.13.13,0,0,1,0-.08.1.1,0,0,1,.07,0,.51.51,0,0,1,.23-.07l.43-.07a5,5,0,0,0,.54-.15,2.67,2.67,0,0,0,.58-.25,1.36,1.36,0,0,0,.28-.21.73.73,0,0,0,.14-.2.24.24,0,0,0,0-.2.46.46,0,0,0-.19-.17.89.89,0,0,0-.37-.11,2.6,2.6,0,0,0-.46,0L139,668l-.58.15c-.2,0-.41.09-.62.12a3.55,3.55,0,0,1-.65,0,3.14,3.14,0,0,1-.67-.08,2.9,2.9,0,0,1-.67-.28,1.35,1.35,0,0,1-.49-.45.74.74,0,0,1-.11-.5,1.13,1.13,0,0,1,.3-.54,2.82,2.82,0,0,1,.68-.53,5.06,5.06,0,0,1,.46-.24l.46-.17.39-.11.26,0h.15l.13,0,.16.07.21.12.22.14a.44.44,0,0,1,.12.1s0,.05,0,.07l-.05.06-.21,0a2.27,2.27,0,0,0-.37.08l-.46.13a2.87,2.87,0,0,0-.51.23,1.36,1.36,0,0,0-.28.21.54.54,0,0,0-.11.19.28.28,0,0,0,0,.17.69.69,0,0,0,.15.14.93.93,0,0,0,.38.1,2.6,2.6,0,0,0,.46,0l.53-.12.59-.16a5.25,5.25,0,0,1,.62-.12,2.89,2.89,0,0,1,.66,0,3.14,3.14,0,0,1,.67.08,2.14,2.14,0,0,1,.65.27Z"/><path class="cls-42" d="M42.74,635.32a7.75,7.75,0,0,0-2.11-1.09c-.24-.08-.22-.08-.44,0-1.16.45-3.47,1.58-3.22,2.46.11.38.63.74,1.18,1a9.16,9.16,0,0,0,1.76.6l.54-.49c-.54-.21-2.68-.73-2.21-1.41a2.84,2.84,0,0,1,.76-.6l2.65,1.62C42.86,636.75,43.7,636.11,42.74,635.32Zm-1.32,1.2-1.8-1.09a5.5,5.5,0,0,1,.94-.47,5.84,5.84,0,0,1,1.33.75C42.16,636,41.9,636.27,41.42,636.52Z"/><path class="cls-42" d="M19.26,628H22c0-.27,0-.54,0-.8a2.61,2.61,0,0,0,0-.84L19.26,628Z"/><path class="cls-42" d="M29.4,625.61l1.35.85a12.05,12.05,0,0,0,2.78-.39l-1.47-.92a14.15,14.15,0,0,1-2.66.46Z"/><path class="cls-42" d="M23.54,625.35c.63.21,4.9,1.28,4.37,1.93-.14.18-4.34,2.66-4.93,3l1.28.8c.77-.45,4.85-2.88,5.21-3.2,1.29-1.18-1.32-2.19-3-2.69l2.84-1.73-1.33-.8c-.48.16-3.79,2.27-4.46,2.68Z"/><path class="cls-42" d="M36.19,625.74c-.22-.29-4.53-2.86-5.25-3.29-.52-.32-2.23-1.44-2.69-1.61a2.82,2.82,0,0,0-2.74.6l-8.19,5c-.7.42-1.79.9-1.18,1.66.21.26,4.53,2.84,5.24,3.28.52.32,2.23,1.44,2.69,1.61a2.85,2.85,0,0,0,2.71-.61l8.2-5C35.69,627,36.76,626.49,36.19,625.74Zm-.62.78a12.91,12.91,0,0,1-1.18.74l-7.61,4.61c-.81.49-1.58,1.13-2.51.73-.6-.26-1.92-1.16-2.52-1.53l-4.95-3c-.7-.56.33-1,1.15-1.52l7.61-4.61c.82-.5,1.54-1.12,2.51-.71L34.31,625C35,625.43,36.17,625.9,35.57,626.52Z"/><path class="cls-42" d="M44.1,636.87l-3.6,2.18.88.54,3.18-1.93c.51.11,1.12.49,1.37.54a2.51,2.51,0,0,0,.74-.43,9.27,9.27,0,0,0-2.57-.9Z"/><path class="cls-42" d="M48.63,638.93a3.93,3.93,0,0,0-4,.62c-1.2.85-1.06,1.68.5,2.42a3.92,3.92,0,0,0,4-.59c.6-.43.89-.82.82-1.23S49.32,639.24,48.63,638.93Zm-.39,1.94a2.68,2.68,0,0,1-2.43.6c-.41-.15-.81-.45-.85-.7-.08-.5,1.17-1.18,1.78-1.36a1.82,1.82,0,0,1,1.22,0c.39.14.83.45.85.7S48.6,640.63,48.24,640.87Z"/><path class="cls-42" d="M55.38,647.53,59,645.37l-.88-.54-3.15,1.9a4.69,4.69,0,0,1-1.32-.45c-.75-.38-.54-.44.07-.81.91-.55,1.86-1.1,2.74-1.66l-.86-.53c-.7.4-1.39.83-2.07,1.25-1.33.8-2.68,1.37-.18,2.41a13.26,13.26,0,0,0,2.06.59Z"/><path class="cls-42" d="M47.47,643.32l.86.53,1.91-1.14.47.3c-.06.1,0,.09-.05.21l-.22.68c-.15.32-.48.77-.54.9l1,.62a4.92,4.92,0,0,0,.58-1.11,7.63,7.63,0,0,0,.36-1.12,19,19,0,0,0,3-.35l-1-.61a9,9,0,0,1-1.5.28l-.77.07c-.46,0-.33,0-.75-.23l3.35-2-.87-.53-5.86,3.54Z"/><path class="cls-42" d="M32.1,633.9l.87.53,3.18-1.92a5.54,5.54,0,0,1,1.31.47c.72.36.41.46-.15.81-.89.53-1.87,1.09-2.71,1.64l.86.53c.55-.32,3.14-1.85,3.4-2.11,1-1-1.47-1.58-2-1.8l1.92-1.16-.88-.53L32.1,633.9Z"/><path class="cls-39" d="M176.14,642.52a6.88,6.88,0,0,0-1.27-.06,8.92,8.92,0,0,0-4.46,1.47,3.47,3.47,0,0,0,.06.8,8.51,8.51,0,0,1,3.41-1.59l.53-.06c.35.72.13,1.42,1.26,2.88a5,5,0,0,0,1.64,1.35,11.46,11.46,0,0,0,2.32.83.88.88,0,0,1-.31.6c-1.15-.64-4-1.44-4.84-.21-.61.89.56,2.28,2.06,3a6.19,6.19,0,0,0,4.13-3.84c.55-2.19-.84-4.74-4.53-5.2Z"/><path class="cls-8" d="M176.62,652.32a11.88,11.88,0,0,1-4.28-3.84,6.79,6.79,0,0,1-.82-1.73,6.31,6.31,0,0,1-.23-.88c-.07-.39-.2-.5.4-.91.14.4,0,.81.52,1.42,1,1.24,2.48.12,2.12-1.49a3.71,3.71,0,0,0-.69-1.45c-3,1.06-4.17,2.42-4.66,4.46a2,2,0,0,0,0,.68,4.16,4.16,0,0,0,3.25,3.74,7.87,7.87,0,0,0,4.41,0Z"/><path class="cls-39" d="M193,638.43c1.26-.78,1.25-.64.89-1l-1-1a24,24,0,0,0,2.51.48l1.15-.71-2.61-.61c-.06-.21,0-.26,0-.47s0-.27,0-.49.06-.81-.07-1l-1.21.75a7.54,7.54,0,0,1,0,.82l.06.83c-.41,0-1.45-1.41-2-1.87l-1.15.71,3.39,3.51Z"/><path class="cls-39" d="M195.84,635.43a1.75,1.75,0,0,0,.59.64c1.25-.39,2.55-1.11,2.35-1.92a1.3,1.3,0,0,0-1.27-.7c-.57,0-1.55.43-1.67.08,0-.18.17-.3.49-.46s.5-.18.76-.29a1.65,1.65,0,0,0-.6-.61c-2.13.72-2.6,2-1.36,2.41.77.26,1.61-.22,2.06-.11s.09.44-.27.61a6.77,6.77,0,0,1-1.08.35Z"/><path class="cls-39" d="M209.17,627.14a2.43,2.43,0,0,1-1,.84c-1.09.37-2.6-1.07-.21-1.92a3.17,3.17,0,0,0-.66-.66c-2.1.84-2.66,2.27-1.36,3.22a3,3,0,0,0,3.76-.62c.23-.26,0-.45-.51-.86Z"/><path class="cls-39" d="M191.89,637.89a2.39,2.39,0,0,1-1,.84c-1.11.39-2.61-1.11-.21-1.92l-.64-.67a3.23,3.23,0,0,0-2,1.56c-.52,1.26,1.2,2.74,3.18,1.86a3.92,3.92,0,0,0,1.16-.81c.23-.26-.06-.46-.51-.86Z"/><path class="cls-39" d="M183.44,644.11l.23.16,1.15-.72c-1.11-1-2-1.71-.79-2.56l-.74-.79c-.85.47-.75.71-.82,1.12l-.36-.32-1,.62c.44.64,2.15,2,2.33,2.49Z"/><path class="cls-39" d="M199.78,630.15a1.6,1.6,0,0,0-1.5,1.22l-.28-.27c-1.4.87-1.29.35.6,2.33.52.53,1.13,1.27,1.71,1.75l1.15-.72-.81-.84C203.81,632.44,201.77,629.88,199.78,630.15Zm.33,2.82c-1.16-.65-1.31-2-.24-1.81a1.47,1.47,0,0,1,1,.93C201,632.49,200.79,632.74,200.11,633Z"/><path class="cls-39" d="M189.19,640.44l-.25-.26a7.92,7.92,0,0,0-1.73-1.56c-1.75-.7-4.56,2-1.76,3.41,1.4.7,2.76-.4,2.54-.94l.29.25C189.41,640.64,189.46,640.72,189.19,640.44Zm-2.58.77a1.39,1.39,0,0,1-1-.85c-.12-.32-.13-.71.54-.89C187.53,639.92,187.61,641.38,186.61,641.21Z"/><path class="cls-39" d="M204.39,627.83a2.58,2.58,0,0,0-2.76,1.38c-.48,1.36,1.33,2.72,2.75,2.17.69-.27.94-.73.89-1l.29.25,1.12-.69C206.17,629.43,205.07,628.05,204.39,627.83Zm-.27,2.65a1.29,1.29,0,0,1-1.16-.81c-.16-.36-.19-.73.5-.95C204,628.88,205.26,629.9,204.12,630.48Z"/><path class="cls-39" d="M212.54,625c-.22.16-1.13,1.69-2.29,1.16a4.59,4.59,0,0,0,1.5-1.25c.58-1-1.06-1.79-2.65-.73-1.9,1.28-.3,3.25,1.65,3,1-.12,2.54-1.29,2.37-1.6A6.46,6.46,0,0,0,212.54,625Zm-3,0c.31-.76,2-.54.08.55A.5.5,0,0,1,209.53,625Z"/><path class="cls-2" d="M173,644.81a.77.77,0,0,0,.24,1.5.77.77,0,0,0-.24-1.5Z"/><path class="cls-2" d="M173,644.81a.77.77,0,0,0,.24,1.5.77.77,0,0,0-.24-1.5Z"/><path class="cls-39" d="M101.6,592.93c.31.14.86.53,1.21.74,1.13.71,2.32,1.67,2.58.32a4.92,4.92,0,0,0-.33-2.76,5.32,5.32,0,0,0-2-1.71v-.64a25,25,0,0,1,2.19,1.4v-1.8c-1.56-1-3.4-2.67-3.65-.69a3.77,3.77,0,0,0,.67,2.7c.72,1,1.46,1.11,2,1.83.09.8-.49.31-1,0l-1.54-1v1.62Z"/><path class="cls-39" d="M93.46,583.58c0-.36,0-1.11,0-1.38a3.37,3.37,0,0,0-1.56-2.1c-.72-.51-1.55-1.07-2-.75s-.35,1.53-.35,2.55v3.3c0,.11,0,0,.06.13l1.25.78V585l1.26.79v1.14l1.33.83Zm-1.35.26-.79-.5-.44-.28v-1.88l1.23.78v1.88Z"/><path class="cls-39" d="M87.19,581.67c.8.31,1.23-.37,1.19-1.69a3.8,3.8,0,0,0-1.51-3,21.84,21.84,0,0,0-2.55-1.65v6.86l1.28.79v-1.74c.18.22.84,1.61,1,1.91s.11.34.4.52l1.72,1.08C88.63,584.44,87.43,582.2,87.19,581.67Zm-1.53-2.45V578l1.1.7v1.18A6.11,6.11,0,0,1,85.66,579.22Z"/><path class="cls-39" d="M96.13,582.8a4.64,4.64,0,0,0-.94-.62l-.4-.26v6.55l1.36.88V582.8Z"/><polygon class="cls-39" points="99.97 591.83 100.25 592.01 100.85 592.39 100.85 590.64 98.91 589.42 98.91 584.57 97.59 583.76 97.57 590.33 99.97 591.83 99.97 591.83"/><path class="cls-36" d="M92.08,228.27l3.31-1.93c1.45-1,3.63-.9,6.06.44l31.05,17.15c4.27,2.36,7.68,7.8,7.69,12.1l0,93.41a4.74,4.74,0,0,1-2.31,4.38l-3.49,2h0c-1.45.91-3.61.82-6-.49L97.38,338.18c-4.27-2.35-7.68-7.8-7.68-12.09l0-93.49a5,5,0,0,1,1.09-3.36,4.29,4.29,0,0,1,1.33-1Z"/><path class="cls-3" d="M91.62,227.46l3.28-1.91a5.18,5.18,0,0,1,3.31-.79,9.17,9.17,0,0,1,3.73,1.19l31.15,17.16a16.69,16.69,0,0,1,5.79,5.61,14.19,14.19,0,0,1,2.41,7.31l0,93.41a6.55,6.55,0,0,1-.71,3.06,5.22,5.22,0,0,1-2.1,2.14h0l-3.45,2a3.37,3.37,0,0,1-.32.19l-.12.07h0a5.58,5.58,0,0,1-2.84.48,9.28,9.28,0,0,1-3.68-1.19L97,339a16.8,16.8,0,0,1-5.79-5.62,14.13,14.13,0,0,1-2.41-7.3l0-93.49a7.1,7.1,0,0,1,.32-2.19,5,5,0,0,1,1-1.79,4.09,4.09,0,0,1,1.33-1,2.64,2.64,0,0,1,.24-.14Zm4.27-.3-3.32,1.93-.26.14a2.68,2.68,0,0,0-.84.64,3.16,3.16,0,0,0-.63,1.13,5.18,5.18,0,0,0-.24,1.6l0,93.49a12.27,12.27,0,0,0,2.12,6.29,14.79,14.79,0,0,0,5.1,5L129,354.51a7.25,7.25,0,0,0,2.91,1,3.39,3.39,0,0,0,2.13-.44l.42-.27h0l3.08-1.77h0a3.3,3.3,0,0,0,1.35-1.37,4.59,4.59,0,0,0,.49-2.18l0-93.41a12.33,12.33,0,0,0-2.12-6.3,14.85,14.85,0,0,0-5.1-5L101,227.6a7.39,7.39,0,0,0-3-1,3.32,3.32,0,0,0-2.13.49l0,0Z"/><path class="cls-36" d="M93.68,323.7,93.62,233l-1-1.67,1-.74-2.14-1.92,4-2.32c1.45-1,3.63-.9,6.06.44l31.05,17.15c4.27,2.36,7.68,7.8,7.68,12.1l0,93.41a4.72,4.72,0,0,1-2.32,4.38l-3.47,2-1.91-.93-1.6-2.76-29.59-16.35c-4.27-2.35-7.69-7.79-7.69-12.09Z"/><path class="cls-3" d="M93.5,323.7,93.44,233l-1-1.62-.08-.14.13-.11.79-.6-2-1.77-.2-.18.23-.13,4-2.3a4.45,4.45,0,0,1,2.85-.68,8.34,8.34,0,0,1,3.42,1.1l31.2,17.16a15.79,15.79,0,0,1,5.52,5.36,13.37,13.37,0,0,1,2.3,6.9l0,93.41a5.65,5.65,0,0,1-.63,2.71,4.35,4.35,0,0,1-1.8,1.83h0l-3.49,2-.09.05-.09-.05-1.91-.92-.08-.08-1.58-2.7L101.32,336a16,16,0,0,1-5.52-5.36,13.47,13.47,0,0,1-2.3-6.9ZM93.82,233l.06,90.71a13.08,13.08,0,0,0,2.24,6.7,15.56,15.56,0,0,0,5.39,5.23L131.24,352l.07.07,1.58,2.7,1.77.86,3.4-2h0a4.11,4.11,0,0,0,1.65-1.68,5.4,5.4,0,0,0,.58-2.53l0-93.41a13,13,0,0,0-2.24-6.7,15.45,15.45,0,0,0-5.38-5.23l-31.2-17.16a8.06,8.06,0,0,0-3.27-1.05,4.06,4.06,0,0,0-2.61.61h0l-3.77,2.18,2,1.75.16.14-.17.14-.84.65.9,1.53,0,.09Z"/><path class="cls-2" d="M89.74,326.09l0-93.49a5,5,0,0,1,1-3.24c1.35-1.66,3.93-1.88,6.84-.28l31.05,17.16c4.28,2.36,7.69,7.8,7.69,12.09l0,93.49c0,4.3-3.57,5.88-7.84,3.52L97.42,338.18c-4.27-2.35-7.68-7.8-7.68-12.09Z"/><path class="cls-3" d="M89.52,326.09l0-93.49a6.35,6.35,0,0,1,.26-1.87,4.31,4.31,0,0,1,.78-1.49,4,4,0,0,1,3-1.43,7.82,7.82,0,0,1,4,1.11l31.16,17.15a16,16,0,0,1,5.51,5.36,13.34,13.34,0,0,1,2.3,6.9l0,93.49a5.6,5.6,0,0,1-.64,2.76,3.91,3.91,0,0,1-1.5,1.52,4.41,4.41,0,0,1-2.17.52,8.09,8.09,0,0,1-3.84-1.12L97.33,338.35A15.94,15.94,0,0,1,91.82,333a13.52,13.52,0,0,1-2.3-6.9Zm.35-93.49,0,93.49a13,13,0,0,0,2.24,6.7A15.54,15.54,0,0,0,97.52,338l31.15,17.16a7.8,7.8,0,0,0,3.66,1.07,4.06,4.06,0,0,0,2-.48,3.45,3.45,0,0,0,1.36-1.37,5.26,5.26,0,0,0,.59-2.58l0-93.49a13,13,0,0,0-2.24-6.69,15.54,15.54,0,0,0-5.37-5.24L97.45,229.25a7.59,7.59,0,0,0-3.85-1.07,3.65,3.65,0,0,0-2.77,1.3,3.84,3.84,0,0,0-.72,1.36,6,6,0,0,0-.24,1.76Z"/><path class="cls-3" d="M113,332.85c2,.7,3.7,3.37,3.7,6s-1.66,4.12-3.7,3.42-3.7-3.37-3.7-6,1.65-4.12,3.7-3.42Z"/><path class="cls-43" d="M121.28,278.5c0-.1-.46-.57-.63-.79a13.61,13.61,0,0,1-1.56-2.63,11.88,11.88,0,0,1-1.09-4.27,6.17,6.17,0,0,1,.72-3.67,3.3,3.3,0,0,1,1.94-1.51,13.6,13.6,0,0,0-1.06-2.08,12.35,12.35,0,0,0-1.42-1.85,7.66,7.66,0,0,0-3.83-2.44,9.55,9.55,0,0,0-1.65-.15,2.43,2.43,0,0,1-1.81-.59c-1.15-1-2.14-2.44-3.47-3.19a4.1,4.1,0,0,0-3.41-.48,3.77,3.77,0,0,0-2.06,2c-1.14,2.29-1,6-.31,9.62a39.07,39.07,0,0,0,3.08,9.25c.17.36.35.72.52,1a10.71,10.71,0,0,0,.6,1,5.46,5.46,0,0,0,1.6,1.72c1.81,1.07,3-.4,5.52,1.92.59.53,1.07,1.15,1.63,1.69,1.1,1.07,2.15,1.44,3,1a7,7,0,0,0,2.25-2.37,8.75,8.75,0,0,0,.79-1.43,6.7,6.7,0,0,0,.61-1.8ZM111.18,257c2.14,1.24,3.95.19,4.65-1.86a7,7,0,0,0,.33-2.8,3.42,3.42,0,0,0-2.89-.1,3.48,3.48,0,0,0-1.74,2,6,6,0,0,0-.35,2.75Z"/><path class="cls-44" d="M112.05,311.82a5,5,0,0,1-2.31-4.22c0-1.7,1-2.45,2.31-1.84a5.05,5.05,0,0,1,2.31,4.22C114.36,311.54,113.41,312.49,112.05,311.82Z"/><path class="cls-44" d="M98.25,301.14a2.38,2.38,0,0,1,.54-1.09,3.36,3.36,0,0,1,1.15-.81,6.15,6.15,0,0,1,1.91-.41,10,10,0,0,1,2,.07H104v-.14a32.7,32.7,0,0,1-.41-3.67,17.88,17.88,0,0,1,.07-2c.06-.48.13-.95.2-1.36a3.5,3.5,0,0,1,.61-1.22,1.25,1.25,0,0,1,1.16-.41,3.27,3.27,0,0,1,1.22.54,7.63,7.63,0,0,1,1.16.95,13.73,13.73,0,0,1,1.83,2.18,27.61,27.61,0,0,1,1.91,2.92,3.79,3.79,0,0,0,.2.34A.07.07,0,0,0,112,297c.13-.13.34-.2.47-.34a9.78,9.78,0,0,1,2.38-.95,6.78,6.78,0,0,1,1.64-.07,3.78,3.78,0,0,1,1.56.62,4.59,4.59,0,0,1,1.56,1.83,5.44,5.44,0,0,1,.55,1.7,11.21,11.21,0,0,1,.27,2.52v1a8.23,8.23,0,0,1-.14,1.36,14.69,14.69,0,0,1-.34,2v.07l.07.06c.34.34.75.62,1.09,1a22.89,22.89,0,0,1,2.38,2.65,18.54,18.54,0,0,1,1.49,2.24,6.79,6.79,0,0,1,.68,1.7,3.33,3.33,0,0,1,.07,1.84,4.55,4.55,0,0,1-.54,1.15,2.67,2.67,0,0,1-1,.75,5.53,5.53,0,0,1-2.11.54,10.15,10.15,0,0,1-2-.06H120v.06a13.79,13.79,0,0,1,.27,1.77c.07.68.14,1.36.14,2v1.57l-.2,1.63a2.67,2.67,0,0,1-.68,1.29,1.25,1.25,0,0,1-1.16.41,3,3,0,0,1-1.36-.61c-.41-.28-.75-.62-1.16-1a15.06,15.06,0,0,1-1.9-2.17,24.05,24.05,0,0,1-2-3.13c0-.07-.07-.07-.07-.13l-.07.06a3.44,3.44,0,0,1-1.08.62,5.94,5.94,0,0,1-2.11.68,4.44,4.44,0,0,1-1.84-.14,3,3,0,0,1-1.08-.61,4.5,4.5,0,0,1-1.36-1.77,8.32,8.32,0,0,1-.62-1.7,15.86,15.86,0,0,1-.34-2.45c0-.81,0-1.56.07-2.38s.21-1.42.34-2.1v-.14l-.07-.07c-.34-.34-.74-.68-1.08-1a26.11,26.11,0,0,1-2.52-2.85,13.86,13.86,0,0,1-1.29-2.11,8.41,8.41,0,0,1-.68-1.77A5,5,0,0,1,98.25,301.14Zm10.81-6.32a11.79,11.79,0,0,0-1.5-1.63,3.39,3.39,0,0,0-.88-.62.67.67,0,0,0-1,.21,3.66,3.66,0,0,0-.34.88,8.53,8.53,0,0,0-.13,1.29v1.23a12.49,12.49,0,0,0,.13,1.49l.21,1.64,1.63.4c.48.14.88.34,1.36.48.14.07.2.07.34.14H109a1,1,0,0,1,.27-.34,12.25,12.25,0,0,1,1.83-1.91l.14-.13C110.48,296.79,109.8,295.77,109.06,294.82Zm8.49,19c-.2.34-.4.74-.61,1.08a13.7,13.7,0,0,1-.75,1.16,11.29,11.29,0,0,0,2,.61C118,315.69,117.83,314.74,117.55,313.79Zm.68-6.39a17.44,17.44,0,0,0-2-1.43c.48,1.15.89,2.31,1.29,3.47A20.32,20.32,0,0,0,118.23,307.4Zm-1.49,4c.07-.21.07-.07,0-.34-.34-1-.68-2-1-3s-.82-2.18-1.23-3.2c-.06-.14-.06-.14-.13-.2s-.34-.21-.55-.34l-1.42-.82a14.19,14.19,0,0,0-1.43-.68l-1.16-.54c-.13-.07-.13-.07-.2.06a26.75,26.75,0,0,0-1.7,2.72c-.2.41-.41.82-.61,1.16v.2c.47,1.5.95,2.93,1.56,4.42.27.68.48,1.29.75,1.91a.15.15,0,0,0,.14.13c.4.21.81.48,1.15.68l1.36.75c.48.2,1,.48,1.5.68.2.07.4.2.61.27s.13,0,.13-.07c.48-.68,1-1.42,1.43-2.17C116.19,312.56,116.47,312,116.74,311.41Zm-8.84-9.79a15.12,15.12,0,0,0-2-.55c.2.95.41,1.84.68,2.79.14-.2.2-.41.34-.61s.34-.61.54-.89S107.76,301.89,107.9,301.62Zm-1.43,6.52c-.27.68-.47,1.36-.68,2l.07.07c.48.34,1,.75,1.43,1.09a3.61,3.61,0,0,1,.54.41C107.36,310.52,107,309.37,106.47,308.14Zm5.58-8.56a8.43,8.43,0,0,0-1.36,1.43c.88.4,1.83.88,2.72,1.35C113,301.48,112.52,300.53,112.05,299.58Zm6.66.68a6.51,6.51,0,0,0-.34-1.09,2.41,2.41,0,0,0-.82-1,2.06,2.06,0,0,0-1-.34,2.65,2.65,0,0,0-1.29.07,5.68,5.68,0,0,0-1.9.75,3.79,3.79,0,0,0-.34.2c.75,1.43,1.49,2.92,2.17,4.49a.06.06,0,0,0,.07.06.07.07,0,0,0,.07.07l.61.41c.34.2.61.41,1,.61l1.5,1.09c.07.07.2.14.27.2a11.31,11.31,0,0,0,.27-1.63,16.62,16.62,0,0,0,.07-1.9A11.06,11.06,0,0,0,118.71,300.26Zm1,16.45a.23.23,0,0,0,.07.2,6.59,6.59,0,0,0,2.31-.13,3.26,3.26,0,0,0,1.29-.61,1.6,1.6,0,0,0,.55-.62,1.91,1.91,0,0,0,0-1.49,11,11,0,0,0-.62-1.36,17.22,17.22,0,0,0-1.36-1.9,22.1,22.1,0,0,0-2.17-2.25,28.05,28.05,0,0,1-1.22,3.33v.21C118.91,313.65,119.32,315.21,119.66,316.71ZM115,322.76a11.2,11.2,0,0,0,1.5,1.63,2.5,2.5,0,0,0,.88.61,1.25,1.25,0,0,0,.48.14.55.55,0,0,0,.61-.27,2.5,2.5,0,0,0,.34-.82c.07-.41.13-.81.2-1.29v-1.22c0-.55-.07-1.16-.13-1.77l-.21-1.43h-.07l-1.29-.41a4.52,4.52,0,0,1-1-.34c-.27-.13-.61-.2-.88-.34a.26.26,0,0,0-.21.07,15.29,15.29,0,0,1-2,2.18l-.13.13A10.68,10.68,0,0,0,115,322.76Zm-3-4.69a14.82,14.82,0,0,0,1.43-1.43l-.82-.41c-.34-.2-.75-.34-1.09-.54a4.91,4.91,0,0,1-.81-.48A30,30,0,0,0,112,318.07Zm-6.66-.75a5.06,5.06,0,0,0,.34,1.16,2.45,2.45,0,0,0,.88,1.09,3.15,3.15,0,0,0,1,.34,3.28,3.28,0,0,0,1.43-.14,6.9,6.9,0,0,0,1.9-.95c-.07-.07-.07-.21-.14-.27-.61-1.16-1.15-2.38-1.69-3.61-.07-.2-.21-.47-.28-.68a.13.13,0,0,0-.13-.13c-.21-.14-.48-.28-.68-.41s-.48-.34-.75-.48-.68-.47-1-.68-.61-.47-1-.68c-.07.48-.14.89-.21,1.36a11.28,11.28,0,0,0-.06,2.11C105.11,315.89,105.18,316.57,105.32,317.32Zm-5.1-13.87a9.39,9.39,0,0,0,.54,1.23,15.42,15.42,0,0,0,1.16,1.7,22.68,22.68,0,0,0,2.44,2.65,16.76,16.76,0,0,1,1.3-3.27v-.2c-.48-1.56-.89-3.13-1.23-4.62a8,8,0,0,0-2.24.07,2.84,2.84,0,0,0-1.29.47,2.72,2.72,0,0,0-.62.61,1.21,1.21,0,0,0-.2.68A3.71,3.71,0,0,0,100.22,303.45Z"/><path class="cls-44" d="M180,350.17a5,5,0,0,1-2.32-4.21c0-1.7,1-2.45,2.32-1.84a5.05,5.05,0,0,1,2.31,4.22C182.35,349.9,181.4,350.85,180,350.17Z"/><path class="cls-44" d="M166.24,339.5a2.28,2.28,0,0,1,.54-1.09,3.4,3.4,0,0,1,1.15-.82,5.87,5.87,0,0,1,1.91-.4,10.71,10.71,0,0,1,2,.06H172v-.13a33,33,0,0,1-.41-3.67,17.88,17.88,0,0,1,.07-2c.06-.48.13-1,.2-1.36a3.55,3.55,0,0,1,.61-1.23,1.27,1.27,0,0,1,1.16-.41,3.3,3.3,0,0,1,1.22.55,7.63,7.63,0,0,1,1.16,1,13.73,13.73,0,0,1,1.83,2.18,27.61,27.61,0,0,1,1.91,2.92c.06.13.13.2.2.34a.07.07,0,0,0,.07-.07c.13-.14.34-.2.47-.34a9,9,0,0,1,2.38-.95,6.31,6.31,0,0,1,1.64-.07,3.76,3.76,0,0,1,1.56.61,4.63,4.63,0,0,1,1.56,1.84,5.54,5.54,0,0,1,.55,1.7,11.13,11.13,0,0,1,.27,2.51v1a8,8,0,0,1-.14,1.36,16.48,16.48,0,0,1-.34,2v.07l.07.07c.34.34.75.61,1.09.95a23.74,23.74,0,0,1,2.38,2.65A17.91,17.91,0,0,1,193,351a6.79,6.79,0,0,1,.68,1.7,3.3,3.3,0,0,1,.07,1.83,4.46,4.46,0,0,1-.54,1.16,2.67,2.67,0,0,1-1,.75A5.72,5.72,0,0,1,190,357a9.44,9.44,0,0,1-2-.07H188V357a15.45,15.45,0,0,1,.27,1.77c.07.68.14,1.36.14,2v1.56l-.21,1.63a2.58,2.58,0,0,1-.68,1.3,1.21,1.21,0,0,1-1.15.4A2.94,2.94,0,0,1,185,365a13.84,13.84,0,0,1-1.16-.95,15.06,15.06,0,0,1-1.9-2.17,24.75,24.75,0,0,1-2-3.13c0-.07-.07-.07-.07-.14l-.07.07a3.42,3.42,0,0,1-1.08.61,5.94,5.94,0,0,1-2.11.68,4.27,4.27,0,0,1-1.84-.13,3,3,0,0,1-1.08-.62,4.47,4.47,0,0,1-1.36-1.76,8.54,8.54,0,0,1-.62-1.7,16,16,0,0,1-.34-2.45c0-.82,0-1.56.07-2.38s.21-1.43.34-2.11v-.13l-.07-.07c-.34-.34-.74-.68-1.08-1a26.24,26.24,0,0,1-2.52-2.86,13.46,13.46,0,0,1-1.29-2.1,8.41,8.41,0,0,1-.68-1.77A4.94,4.94,0,0,1,166.24,339.5Zm10.8-6.33a11.69,11.69,0,0,0-1.49-1.63,3.59,3.59,0,0,0-.88-.61.67.67,0,0,0-1,.21,3.66,3.66,0,0,0-.34.88,8.53,8.53,0,0,0-.13,1.29v1.22a12.65,12.65,0,0,0,.13,1.5l.21,1.63,1.63.41c.48.14.88.34,1.36.48.14.06.2.06.34.13H177a1.11,1.11,0,0,1,.27-.34,11.76,11.76,0,0,1,1.83-1.9l.14-.14C178.47,335.15,177.79,334.13,177,333.17Zm8.5,19c-.2.34-.4.75-.61,1.09a13.7,13.7,0,0,1-.75,1.16,12.15,12.15,0,0,0,2,.61C186,354.05,185.82,353.1,185.54,352.14Zm.68-6.39a18.78,18.78,0,0,0-2-1.43c.48,1.16.89,2.32,1.29,3.47A20.32,20.32,0,0,0,186.22,345.75Zm-1.49,4c.07-.2.07-.06,0-.34-.34-1-.68-2-1-3s-.82-2.17-1.23-3.19a.45.45,0,0,0-.13-.21c-.21-.13-.34-.2-.55-.34l-1.42-.81a14.19,14.19,0,0,0-1.43-.68c-.41-.21-.75-.34-1.16-.55-.13-.06-.13-.06-.2.07a26.75,26.75,0,0,0-1.7,2.72c-.2.41-.41.82-.61,1.16v.2c.47,1.5.95,2.92,1.56,4.42.27.68.48,1.29.75,1.9a.15.15,0,0,0,.13.14c.41.2.82.48,1.16.68l1.36.75c.48.2.95.47,1.5.68.2.07.4.2.61.27s.13,0,.13-.07c.48-.68,1-1.43,1.43-2.17A17.86,17.86,0,0,0,184.73,349.76ZM175.89,340a16.38,16.38,0,0,0-2-.54c.2.95.41,1.84.68,2.79.14-.21.2-.41.34-.61a9.94,9.94,0,0,1,.54-.89C175.55,340.45,175.75,340.25,175.89,340Zm-1.43,6.53c-.27.68-.47,1.36-.68,2l.07.07c.48.34,1,.75,1.43,1.09a3.61,3.61,0,0,1,.54.4C175.35,348.88,174.94,347.72,174.46,346.5Zm5.58-8.57a8.82,8.82,0,0,0-1.36,1.43c.88.41,1.83.89,2.72,1.36C181,339.84,180.51,338.89,180,337.93Zm6.66.68a6.41,6.41,0,0,0-.34-1.08,2.41,2.41,0,0,0-.82-1,2,2,0,0,0-1-.34,2.78,2.78,0,0,0-1.29.06,5.9,5.9,0,0,0-1.9.75c-.14.07-.21.14-.34.21.75,1.42,1.49,2.92,2.17,4.48a435384391648.6,435384391648.6,0,0,0,.14.14l.61.41c.34.2.61.41,1,.61l1.5,1.09c.07.06.2.13.27.2a11.54,11.54,0,0,0,.27-1.63,16.62,16.62,0,0,0,.07-1.9A11,11,0,0,0,186.7,338.61Zm1,16.46a.25.25,0,0,0,.07.2,6.36,6.36,0,0,0,2.31-.14,3.13,3.13,0,0,0,1.29-.61,1.57,1.57,0,0,0,.55-.61,1.91,1.91,0,0,0,0-1.49,11,11,0,0,0-.62-1.36,17.35,17.35,0,0,0-1.36-1.91,23.06,23.06,0,0,0-2.17-2.24,29.4,29.4,0,0,1-1.22,3.33v.2C186.9,352,187.31,353.57,187.65,355.07ZM183,361.12a11.74,11.74,0,0,0,1.5,1.63,2.5,2.5,0,0,0,.88.61,1.25,1.25,0,0,0,.48.14.55.55,0,0,0,.61-.27,2.5,2.5,0,0,0,.34-.82c.07-.41.13-.82.2-1.29v-1.23c0-.54-.07-1.15-.13-1.76l-.21-1.43h-.07c-.4-.14-.88-.27-1.29-.41a5.16,5.16,0,0,1-1-.34c-.27-.14-.61-.2-.88-.34a.26.26,0,0,0-.21.07,15.75,15.75,0,0,1-2,2.17l-.13.14A11,11,0,0,0,183,361.12Zm-3-4.69A16.06,16.06,0,0,0,181.4,355l-.82-.41c-.34-.2-.75-.34-1.09-.54a5.73,5.73,0,0,1-.81-.48A31.18,31.18,0,0,0,180,356.43Zm-6.66-.75a5,5,0,0,0,.34,1.15,2.34,2.34,0,0,0,.88,1.09,2.92,2.92,0,0,0,1,.34,3.29,3.29,0,0,0,1.43-.13,7.23,7.23,0,0,0,1.9-1c-.07-.06-.07-.2-.14-.27-.61-1.15-1.15-2.38-1.7-3.6-.06-.2-.2-.48-.27-.68a.14.14,0,0,0-.13-.14c-.21-.13-.48-.27-.68-.4s-.48-.34-.75-.48-.68-.48-1-.68-.61-.48-.95-.68c-.07.48-.14.88-.21,1.36a11.28,11.28,0,0,0-.06,2.11C173.1,354.25,173.17,354.93,173.31,355.68Zm-5.1-13.87a8.73,8.73,0,0,0,.54,1.22,14.53,14.53,0,0,0,1.16,1.7,21.9,21.9,0,0,0,2.44,2.65,16.93,16.93,0,0,1,1.3-3.26v-.2c-.48-1.57-.89-3.13-1.23-4.63a8.85,8.85,0,0,0-2.24.07,3,3,0,0,0-1.29.48,2.53,2.53,0,0,0-.62.61,1.19,1.19,0,0,0-.2.68A3.71,3.71,0,0,0,168.21,341.81Z"/></svg>