<!DOCTYPE svg PUBLIC "-//W3C//DTD SVG 1.1//EN" "http://www.w3.org/Graphics/SVG/1.1/DTD/svg11.dtd" [
	<!ENTITY ns_flows "http://ns.adobe.com/Flows/1.0/">
]><svg xmlns="http://www.w3.org/2000/svg" width="17" height="21" viewBox="-1 -1.008 17 21" overflow="visible"><path fill="#FCEE21" d="M7.502 19.54c1.818-2.302 5.14-5.935 6.506-8.312A7.5 7.5 0 0 0 7.502 0 7.5 7.5 0 0 0 .99 11.228c1.366 2.376 4.692 6.01 6.512 8.31zM7.5 5.46a2.383 2.383 0 0 1 2.375 2.378A2.38 2.38 0 0 1 7.5 10.21a2.38 2.38 0 0 1-2.374-2.37A2.38 2.38 0 0 1 7.5 5.46z"/></svg>