<svg xmlns="http://www.w3.org/2000/svg" width="930" height="330" viewBox="0 0 930 330"><path fill="#12617B" d="M851.266 201.12c3.512 0 6.354 1.293 6.354 2.89 0 1.598-2.847 2.89-6.354 2.89-3.51 0-6.354-1.292-6.354-2.89-.002-1.597 2.844-2.89 6.354-2.89zM8.4 292.214c3.51 0 6.356 1.29 6.356 2.89s-2.847 2.89-6.356 2.89c-3.506 0-6.354-1.29-6.354-2.89s2.848-2.89 6.354-2.89zm32.034-75.074c3.51 0 6.354 1.29 6.354 2.886 0 1.6-2.845 2.89-6.354 2.89-3.51 0-6.354-1.29-6.354-2.89 0-1.596 2.845-2.887 6.354-2.887zm210.215 82.084c2.024 0 3.83.43 4.994 1.103a1.726 1.726 0 0 1-.065-.46c0-1.956 3.48-3.54 7.78-3.54 4.294 0 7.777 1.584 7.777 3.54 0 1.95-3.483 3.535-7.778 3.535-2.64 0-4.968-.603-6.376-1.514.012.072.018.146.018.227 0 1.593-2.845 2.888-6.354 2.888-3.51 0-6.355-1.295-6.355-2.888 0-1.6 2.845-2.89 6.354-2.89zm33.032-16.02c3.51 0 6.354 1.296 6.354 2.888 0 1.598-2.845 2.893-6.354 2.893-3.51 0-6.354-1.295-6.354-2.893 0-1.592 2.844-2.888 6.353-2.888zm361.37-50.052c3.51 0 6.355 1.296 6.355 2.894 0 1.593-2.85 2.888-6.355 2.888s-6.354-1.295-6.354-2.888c0-1.598 2.845-2.894 6.353-2.894zm28.03-6.004c3.51 0 6.355 1.29 6.355 2.89 0 1.596-2.846 2.887-6.354 2.887-3.51 0-6.355-1.29-6.355-2.888 0-1.598 2.844-2.89 6.354-2.89zm36.038 0c3.507 0 6.355 1.29 6.355 2.89 0 1.596-2.848 2.887-6.354 2.887-3.506 0-6.352-1.29-6.352-2.888 0-1.598 2.846-2.89 6.354-2.89zm-20.02 47.05c3.512 0 6.354 1.292 6.354 2.89 0 1.592-2.846 2.887-6.354 2.887-3.51 0-6.354-1.295-6.354-2.888-.002-1.597 2.844-2.89 6.354-2.89zm80.082-31.033c3.514 0 6.355 1.292 6.355 2.89 0 1.596-2.846 2.887-6.355 2.887-3.152 0-5.77-1.047-6.27-2.42-1.39.592-3.254.953-5.303.953-4.305 0-7.783-1.584-7.783-3.535 0-1.955 3.48-3.535 7.78-3.535 4.147 0 7.54 1.48 7.765 3.34 1.063-.365 2.38-.58 3.81-.58zm38.478 12.252c4.295 0 7.775 1.583 7.775 3.535 0 1.955-3.48 3.534-7.775 3.534-4.297 0-7.78-1.58-7.78-3.534 0-1.952 3.483-3.535 7.78-3.535z"/><path fill="#FAED24" d="M850.86 204.083c1.952-2.474 5.522-6.37 6.993-8.93a8.012 8.012 0 0 0 1.062-4.007c0-4.453-3.607-8.062-8.06-8.062s-8.06 3.607-8.06 8.062c0 1.457.39 2.818 1.06 4.004 1.477 2.558 5.053 6.46 7.006 8.933zm0-15.8a3.237 3.237 0 0 1 3.224 3.226c0 1.77-1.45 3.22-3.225 3.22a3.23 3.23 0 0 1-3.23-3.22 3.24 3.24 0 0 1 3.228-3.228z"/><path fill="#FFF" d="M800.692 235.234h4v-8h6v4h4v10h-14v-6zm6-6v2h2v-2h-2zm0 4v2h2v-2h-2zm4 0v2h2v-2h-2zm2 4h-2v2h2v-2zm-4 0h-2v2h2v-2zm-4 0h-2v2h2v-2zm3.23 21.882c3.723-4.714 10.525-12.138 13.322-17.015a15.262 15.262 0 0 0 2.033-7.64c0-8.48-6.877-15.353-15.357-15.353s-15.354 6.875-15.354 15.354c0 2.78.736 5.386 2.025 7.626 2.798 4.88 9.61 12.317 13.333 17.03zM750.692 220.234h4v-8h6v4h4v8c1.354-.685 2.466-.84 4.087-.84a9.98 9.98 0 0 1 3.73.72 15.35 15.35 0 0 0 .697-4.595c0-8.48-6.875-15.356-15.354-15.356-8.48 0-15.354 6.875-15.354 15.354 0 2.77.737 5.376 2.024 7.624 2.797 4.87 9.605 12.31 13.332 17.022a174.73 174.73 0 0 1 3.284-3.996c-.396-.567-.77-1.14-1.1-1.72a9.984 9.984 0 0 1-1.33-5c0-2.854 1.07-5.393 2.977-7.223h-11l.005-5.993zm6-6h2v2h-2v-2zm0 4h2v2h-2v-2zm4 0h2v2h-2v-2zm2 4v2h-2v-2h2zm-4 0v2h-2v-2h2zm-4 0v2h-2v-2h2zM255.692 276.234h4v-8h6v4h4v10h-11.375c1.802 1.813 2.985 4.31 2.985 7.072 0 1.758-.457 3.48-1.332 5.004-.206.356-.424.71-.654 1.062 1.477 1.754 2.866 3.412 3.982 4.82 3.72-4.714 10.523-12.144 13.32-17.017a15.258 15.258 0 0 0 2.034-7.637c0-8.48-6.876-15.355-15.358-15.355-8.478 0-15.354 6.877-15.354 15.355 0 1.413.192 2.782.55 4.08a10.108 10.108 0 0 1 2.75-.383c1.6 0 3.11.326 4.452.99v-3.99zm6-6h2v2h-2v-2zm0 6v-2h2v2h-2zm4-2h2v2h-2v-2zm2 5v1h-2v-2h2v1zm-4-1v2h-2v-2h2zm-4 0v2h-2v-2h2z"/><path fill="#FAED24" d="M768.78 246.396c1.95-2.48 5.52-6.375 6.985-8.933a7.983 7.983 0 0 0 1.066-4.008c0-4.452-3.607-8.062-8.055-8.062a8.062 8.062 0 0 0-7 12.062c1.476 2.563 5.05 6.462 7.005 8.94zm-.003-15.8a3.233 3.233 0 0 1 3.223 3.228c0 1.77-1.45 3.222-3.223 3.222s-3.23-1.45-3.23-3.222a3.242 3.242 0 0 1 3.23-3.228zM708.715 230.636c1.95-2.48 5.52-6.375 6.99-8.93a8.06 8.06 0 0 0-6.994-12.07 8.06 8.06 0 0 0-7 12.06c1.477 2.56 5.05 6.463 7.006 8.94zm-.004-15.802a3.234 3.234 0 0 1 3.227 3.23 3.23 3.23 0 0 1-3.225 3.222 3.232 3.232 0 0 1-3.222-3.223c0-1.777 1.45-3.23 3.223-3.23zM688.842 277.08c1.95-2.48 5.52-6.376 6.992-8.93a8.04 8.04 0 0 0 1.064-4.01 8.062 8.062 0 1 0-15.06 4.002c1.474 2.558 5.05 6.462 7.004 8.937zm-.002-15.803c1.775 0 3.23 1.45 3.23 3.228 0 1.77-1.45 3.222-3.23 3.222a3.234 3.234 0 0 1-3.223-3.222 3.234 3.234 0 0 1 3.223-3.228zM672.824 230.03c1.953-2.474 5.52-6.372 6.992-8.93a8.05 8.05 0 0 0 1.062-4.012c0-4.448-3.604-8.062-8.06-8.062s-8.06 3.606-8.06 8.062c0 1.458.39 2.822 1.06 4.007 1.48 2.56 5.053 6.462 7.006 8.934zm0-15.8a3.238 3.238 0 0 1 3.225 3.227 3.238 3.238 0 0 1-3.227 3.224 3.238 3.238 0 0 1-3.23-3.222c.006-1.773 1.457-3.228 3.23-3.228zM644.797 237.04c1.95-2.478 5.523-6.375 6.992-8.93a8.045 8.045 0 0 0 1.062-4.01c0-4.45-3.607-8.06-8.06-8.06a8.06 8.06 0 0 0-7 12.06c1.476 2.56 5.05 6.462 7.005 8.94zm-.002-15.802a3.235 3.235 0 0 1 3.227 3.223 3.238 3.238 0 0 1-3.227 3.23 3.238 3.238 0 0 1-3.225-3.228 3.235 3.235 0 0 1 3.225-3.222zM251.242 302.242c1.954-2.475 5.523-6.37 6.994-8.93a8.03 8.03 0 0 0 1.065-4.006 8.058 8.058 0 1 0-15.054 4.002c1.47 2.56 5.044 6.46 6.997 8.934zm0-15.795a3.232 3.232 0 0 1 3.225 3.22 3.234 3.234 0 0 1-3.225 3.224 3.23 3.23 0 0 1-3.224-3.22 3.23 3.23 0 0 1 3.224-3.22zM283.264 286.14c1.95-2.473 5.523-6.368 6.99-8.93a7.995 7.995 0 0 0 1.066-4.008c0-4.45-3.61-8.062-8.057-8.062a8.044 8.044 0 0 0-4.947 1.696 17.305 17.305 0 0 1 2.02 5.383 3.233 3.233 0 0 1 2.926-1.885 3.234 3.234 0 0 1 3.226 3.228c0 1.77-1.45 3.224-3.226 3.224-1.07 0-2.02-.53-2.61-1.336l.003.095c0 2.1-.377 4.167-1.11 6.114 1.33 1.62 2.732 3.234 3.72 4.48zM41.013 220.154c1.95-2.473 5.52-6.37 6.992-8.928a8.054 8.054 0 0 0 1.065-4.01 8.058 8.058 0 0 0-16.117 0 8.04 8.04 0 0 0 1.062 4.006c1.468 2.56 5.042 6.462 6.998 8.932zm-.002-15.795a3.23 3.23 0 0 1 3.226 3.22 3.234 3.234 0 0 1-3.224 3.224 3.232 3.232 0 0 1-3.223-3.224c0-1.77 1.45-3.22 3.223-3.22zM8.058 295.154c1.954-2.48 5.524-6.375 6.994-8.928a8.076 8.076 0 0 0 1.065-4.012c0-4.45-3.61-8.062-8.06-8.062-4.45 0-8.057 3.61-8.057 8.062 0 1.454.387 2.822 1.062 4 1.47 2.56 5.043 6.466 6.996 8.94zm0-15.8a3.233 3.233 0 0 1 3.225 3.224 3.234 3.234 0 0 1-3.225 3.225 3.233 3.233 0 0 1-3.224-3.225c0-1.77 1.45-3.223 3.224-3.223z"/><path fill="#308EA8" d="M17.966 275.47a.588.588 0 0 1-.725-.926c32.336-25.295 73.06-39.787 114.83-41.29 39.804-1.43 80.56 8.938 115.91 33 .27.188.337.555.156.82a.593.593 0 0 1-.82.15c-35.133-23.914-75.643-34.22-115.208-32.797-41.52 1.493-82.004 15.903-114.144 41.043zm780.095-57.143a.582.582 0 0 1-.186.812.592.592 0 0 1-.81-.19c-39.683-63.54-88.08-112.21-141.32-147.25C581.402 22.77 497.602.4 414.887 1.195c-82.718.79-164.36 24.745-234.38 68.475-52.097 32.53-97.76 76.003-132.652 129.02a.586.586 0 0 1-.813.17.59.59 0 0 1-.17-.813c34.992-53.167 80.78-96.76 133.01-129.377C250.086 24.832 331.94.812 414.88.02c82.936-.792 166.96 21.638 241.504 70.7 53.387 35.132 101.907 83.92 141.677 147.61zM51.778 205.88c35.398-7.75 70.004-8.247 103.62.295 33.616 8.548 66.257 26.132 97.73 54.546.24.22.614.2.83-.045a.583.583 0 0 0-.045-.828c-31.617-28.548-64.424-46.222-98.224-54.812-33.8-8.593-68.586-8.095-104.157-.308a.584.584 0 0 0-.45.698.583.583 0 0 0 .697.457zm218.585 52.49c16.752-37.375 42.562-68.91 74.038-93.67 41.06-32.293 91.756-53.05 144.57-60.183 52.81-7.136 107.74-.647 157.257 21.543a267.217 267.217 0 0 1 17.438 8.595c-1.957-.98-3.924-1.94-5.904-2.872-47.04-22.1-99.873-28.752-151.213-21.897-51.338 6.852-101.186 27.21-142.262 59.12-32.1 24.937-58.85 56.94-76.768 95.07a.583.583 0 0 0 .284.78c.294.14.644.015.78-.278 17.833-37.954 44.463-69.81 76.428-94.64 40.913-31.793 90.562-52.063 141.69-58.89 51.128-6.828 103.73-.21 150.563 21.798 19.798 9.304 38.567 21.356 55.757 36.31 9.6 8.513 19.922 18.993 28.52 29.224-1.416-1.107-4.066-3.262-5.566-4.2-12.306-7.728-27.24-9.868-41.542-7.885-14.29 1.988-27.957 8.104-37.738 16.888-3.505 3.14-6.51 6.627-8.866 10.383a.58.58 0 0 0 .184.81c.273.177.637.09.81-.183 2.308-3.666 5.237-7.066 8.657-10.135 9.613-8.627 23.06-14.64 37.117-16.594 14.047-1.95 28.7.143 40.754 7.707a49.998 49.998 0 0 1 10.312 8.606l.297.375c.2.26.572.3.826.1l.016-.007.05-.037a.586.586 0 0 0 .105-.822c-10.18-13.104-21.282-24.783-33.137-35.096-20.556-18.23-43.198-32.59-67.103-43.297-49.725-22.29-104.876-28.802-157.895-21.64-53.02 7.164-103.917 28.003-145.143 60.425-31.618 24.873-57.548 56.556-74.383 94.117a.582.582 0 0 0 .296.774.584.584 0 0 0 .774-.294zm470.226-47.895c-4.31-1.266-8.57-1.885-12.7-1.912-4.292-.03-8.438.57-12.354 1.73a.59.59 0 0 0-.398.73.59.59 0 0 0 .732.398 41 41 0 0 1 12.02-1.687c4.02.033 8.167.633 12.374 1.865a.584.584 0 0 0 .73-.396.595.595 0 0 0-.404-.725zm-42.236 9.907a.58.58 0 0 1 .83.015.58.58 0 0 1-.012.83c-4.148 4.03-7.498 8.988-9.77 14.646-2.182 5.417-3.37 11.466-3.33 17.96a.59.59 0 0 1-.586.586.592.592 0 0 1-.592-.59c-.04-6.645 1.184-12.85 3.412-18.395 2.34-5.81 5.78-10.907 10.048-15.054z"/><path fill="#FFF" d="M866.915 195.252h-1.165v-6.896h1.814l2.082 4.332 2.084-4.332h1.805v6.896h-1.164v-5.39l-2.405 4.786h-.65l-2.397-4.785-.002 5.39zM881.222 194.3c-.694.68-1.56 1.02-2.585 1.02-1.024 0-1.888-.34-2.585-1.02-.696-.682-1.047-1.528-1.047-2.546s.35-1.865 1.047-2.547c.697-.682 1.56-1.02 2.585-1.02s1.89.34 2.585 1.02c.698.682 1.048 1.53 1.048 2.547s-.35 1.865-1.048 2.546zm-.853-4.318a2.328 2.328 0 0 0-1.734-.73c-.684 0-1.262.245-1.73.73-.47.485-.705 1.078-.705 1.77 0 .695.235 1.285.707 1.772.47.486 1.047.73 1.73.73.685 0 1.263-.244 1.73-.73.47-.485.705-1.075.705-1.77 0-.693-.234-1.285-.704-1.772zM885.826 189.262c-.34 0-.617.07-.834.207-.22.137-.326.346-.326.625s.107.493.326.644c.217.145.68.307 1.386.48.708.17 1.24.41 1.6.72.357.31.536.765.536 1.365 0 .602-.227 1.092-.68 1.467-.453.375-1.05.562-1.786.562-1.08 0-2.037-.372-2.87-1.115l.728-.88c.695.606 1.42.91 2.17.91.376 0 .674-.08.894-.24a.754.754 0 0 0 .33-.644c0-.27-.103-.475-.31-.622s-.563-.282-1.07-.404a9.013 9.013 0 0 1-1.154-.335 2.606 2.606 0 0 1-.7-.4c-.407-.308-.61-.782-.61-1.42 0-.638.23-1.13.693-1.475.464-.347 1.035-.52 1.72-.52.44 0 .88.072 1.313.218.436.146.81.35 1.125.61l-.62.88c-.206-.187-.48-.336-.83-.455a3.19 3.19 0 0 0-1.034-.18zM893.104 194.195c.4 0 .746-.066 1.035-.2.287-.136.59-.35.906-.646l.75.767c-.73.81-1.617 1.214-2.66 1.214-1.042 0-1.906-.334-2.595-1.005s-1.03-1.52-1.03-2.547c0-1.027.353-1.882 1.05-2.566.7-.684 1.588-1.024 2.655-1.024 1.07 0 1.962.396 2.68 1.185l-.738.812c-.328-.316-.642-.537-.933-.662a2.63 2.63 0 0 0-1.032-.188c-.696 0-1.282.226-1.755.677-.476.45-.713 1.025-.713 1.727s.235 1.287.706 1.76c.47.46 1.028.694 1.674.694zM902.842 194.3c-.697.68-1.56 1.02-2.585 1.02-1.026 0-1.89-.34-2.586-1.02-.695-.682-1.044-1.528-1.044-2.546s.35-1.865 1.046-2.547 1.56-1.02 2.587-1.02c1.024 0 1.887.34 2.584 1.02s1.046 1.53 1.046 2.547-.35 1.865-1.046 2.546zm-.853-4.318a2.33 2.33 0 0 0-1.734-.73 2.31 2.31 0 0 0-1.73.73c-.472.485-.706 1.078-.706 1.77 0 .695.235 1.285.707 1.772.47.486 1.047.73 1.73.73.685 0 1.263-.244 1.732-.73.467-.485.702-1.075.702-1.77 0-.693-.234-1.285-.704-1.772zM907.44 193.318l1.54-4.963h1.046l1.538 4.963 1.735-4.963h1.253l-2.408 6.896h-1.153l-1.45-4.727h-.08l-1.45 4.73h-1.153l-2.407-6.897h1.253l1.732 4.963zM28.102 281.2c-.333 0-.606.067-.818.204-.214.136-.32.34-.32.615 0 .27.106.48.32.627.212.146.667.304 1.36.472s1.218.402 1.57.707c.353.304.53.75.53 1.342 0 .59-.224 1.07-.67 1.437-.445.37-1.03.555-1.753.555-1.06 0-2-.365-2.82-1.098l.718-.86c.685.595 1.396.894 2.133.894.37 0 .66-.08.877-.237a.746.746 0 0 0 .325-.63.7.7 0 0 0-.304-.61c-.205-.146-.555-.277-1.052-.397a10.04 10.04 0 0 1-1.134-.328 2.55 2.55 0 0 1-.688-.394c-.4-.303-.6-.77-.6-1.395 0-.627.228-1.11.683-1.45.456-.34 1.02-.51 1.69-.51.434 0 .864.07 1.29.216.427.144.795.344 1.105.6l-.61.864c-.202-.182-.472-.33-.814-.445a3.003 3.003 0 0 0-1.014-.18zM33.05 285.542l-.678 1.54H31.15l2.985-6.773h1.22l2.986 6.772h-1.22l-.68-1.54h-3.39zm2.927-1.056l-1.23-2.79-1.23 2.79h2.46zM44.36 280.31h1.144v6.773h-1.24l-3.838-4.942v4.944h-1.144v-6.774h1.144l3.935 5.06v-5.06zM51.184 281.375v1.86h3.004v1.057h-3.004v2.79H50.04v-6.773h4.517l-.01 1.064h-3.363zM61.303 282.51c0 1.117-.488 1.82-1.464 2.11l1.77 2.463h-1.453l-1.618-2.278h-1.503v2.278h-1.144v-6.774h2.52c1.034 0 1.774.172 2.22.52.446.35.67.91.67 1.678zm-1.523.957c.233-.2.35-.52.35-.963 0-.443-.12-.747-.36-.912-.238-.164-.664-.246-1.278-.246h-1.454v2.424h1.424c.647 0 1.086-.102 1.318-.303zM63.91 285.542l-.68 1.54h-1.22l2.985-6.773h1.22l2.986 6.772h-1.22l-.68-1.54h-3.39zm2.926-1.056l-1.23-2.79-1.23 2.79h2.46zM75.22 280.31h1.143v6.773h-1.24l-3.838-4.942v4.944H70.14v-6.774h1.145l3.934 5.06v-5.06zM81.335 286.047c.393 0 .733-.066 1.017-.2.284-.13.582-.343.892-.634l.737.756c-.715.793-1.586 1.19-2.61 1.19-1.025 0-1.875-.33-2.55-.988-.676-.66-1.013-1.493-1.013-2.5 0-1.01.344-1.85 1.033-2.522.687-.67 1.556-1.007 2.605-1.007 1.05 0 1.927.39 2.632 1.164l-.728.795c-.325-.312-.63-.525-.917-.648a2.563 2.563 0 0 0-1.014-.186c-.686 0-1.26.223-1.725.664-.464.443-.696 1.008-.696 1.696s.23 1.263.69 1.726c.463.46 1.01.693 1.644.693zM85.376 280.31h1.144v6.773h-1.144v-6.774zM90.45 281.2c-.332 0-.605.067-.818.204-.213.136-.32.34-.32.615 0 .27.106.48.32.627.213.146.667.304 1.362.472.694.167 1.217.402 1.57.707.352.304.527.75.527 1.342 0 .59-.22 1.07-.666 1.437-.446.37-1.03.555-1.755.555-1.06 0-2-.365-2.82-1.098l.716-.86c.685.595 1.396.894 2.133.894.367 0 .66-.08.875-.237a.744.744 0 0 0 .325-.63.704.704 0 0 0-.306-.61c-.204-.146-.555-.277-1.052-.397a9.885 9.885 0 0 1-1.133-.328c-.26-.102-.49-.23-.69-.394-.4-.303-.6-.77-.6-1.395 0-.627.227-1.11.682-1.45.456-.34 1.02-.51 1.69-.51.434 0 .863.07 1.29.216.427.144.795.344 1.105.6l-.61.864c-.2-.182-.472-.33-.814-.445a2.997 2.997 0 0 0-1.013-.18zM97.6 286.047c.393 0 .732-.066 1.017-.2.284-.13.58-.343.892-.634l.735.756c-.717.793-1.588 1.19-2.612 1.19s-1.874-.33-2.55-.988c-.675-.66-1.012-1.493-1.012-2.5 0-1.01.344-1.85 1.033-2.522.688-.67 1.557-1.007 2.607-1.007s1.928.39 2.632 1.164l-.727.795c-.323-.312-.628-.525-.916-.648a2.575 2.575 0 0 0-1.016-.186c-.685 0-1.26.223-1.724.664-.465.442-.697 1.008-.697 1.695s.23 1.264.692 1.725c.462.462 1.01.695 1.644.695zM107.165 286.148c-.685.668-1.53 1.002-2.54 1.002-1.008 0-1.853-.334-2.538-1.002-.686-.67-1.028-1.502-1.028-2.5 0-1 .34-1.832 1.026-2.502.685-.668 1.53-1.002 2.54-1.002 1.007 0 1.853.334 2.538 1.002.685.67 1.027 1.502 1.027 2.502 0 .998-.34 1.83-1.026 2.5zm-.838-4.24a2.275 2.275 0 0 0-1.7-.717c-.674 0-1.24.24-1.702.72-.462.477-.693 1.058-.693 1.74 0 .68.23 1.26.693 1.737.462.48 1.028.72 1.7.72.673 0 1.24-.24 1.702-.72.46-.48.692-1.06.692-1.738 0-.68-.233-1.264-.694-1.74zM21.352 229.205c-.34 0-.617.068-.833.207-.22.138-.327.347-.327.626 0 .278.108.492.325.642.216.147.678.31 1.385.48.706.17 1.24.41 1.598.72.36.31.538.763.538 1.364s-.227 1.09-.68 1.465c-.454.373-1.05.56-1.786.56-1.08 0-2.036-.373-2.87-1.114l.73-.878c.696.603 1.42.905 2.17.905.374 0 .67-.08.89-.24a.754.754 0 0 0 .332-.644.72.72 0 0 0-.31-.62c-.208-.146-.564-.283-1.07-.404a9.263 9.263 0 0 1-1.154-.334 2.618 2.618 0 0 1-.7-.4c-.41-.31-.612-.78-.612-1.42s.232-1.13.695-1.475c.464-.347 1.037-.52 1.72-.52.44 0 .878.072 1.313.22.434.145.808.347 1.124.608l-.62.878c-.205-.185-.48-.335-.83-.453a3.3 3.3 0 0 0-1.03-.175zM30.32 228.297v1.096h-3.677v1.823h3.304v1.035h-3.304v1.847h3.797v1.096h-4.96v-6.895h4.84zM32.905 233.623l-.69 1.568h-1.242l3.037-6.894h1.243l3.038 6.896h-1.24l-.69-1.567h-3.453zm2.978-1.076l-1.252-2.84-1.25 2.84h2.504zM41.31 229.363v5.828h-1.165v-5.826h-2.09V228.3H43.4v1.064h-2.09zM47.266 229.363v5.828H46.1v-5.826h-2.09V228.3h5.346v1.064h-2.09zM50.618 235.19v-6.895h1.164v5.788h3.146v1.104h-4.31v.004zM61.043 228.297v1.096h-3.678v1.823h3.304v1.035h-3.306v1.847h3.797v1.096H56.2v-6.895h4.84zM240.865 311.27h1.16v6.88h-1.26l-3.895-5.02v5.02h-1.162v-6.88h1.162l3.995 5.138v-5.14zM248.766 311.27v1.094h-3.67v1.817h3.296v1.036h-3.296v1.84h3.788v1.095h-4.95v-6.88h4.832zM252.516 316.22l1.535-4.95h1.045l1.535 4.95 1.73-4.95h1.25l-2.4 6.88h-1.15l-1.448-4.716h-.08l-1.445 4.716h-1.152l-2.4-6.88h1.25l1.73 4.95zM266.084 318.148h-1.18v-2.718l-2.56-4.163h1.27l1.88 3.13 1.88-3.13h1.27l-2.56 4.163v2.718zM275.05 317.198c-.695.68-1.555 1.02-2.578 1.02-1.024 0-1.882-.34-2.578-1.02-.696-.68-1.043-1.525-1.043-2.54 0-1.012.35-1.858 1.045-2.537.695-.68 1.554-1.02 2.578-1.02 1.023 0 1.883.34 2.578 1.02.696.68 1.044 1.527 1.044 2.54s-.348 1.86-1.043 2.54zm-.85-4.305a2.32 2.32 0 0 0-1.728-.728c-.683 0-1.258.242-1.727.728-.47.485-.704 1.074-.704 1.768s.237 1.283.706 1.77c.47.485 1.044.73 1.727.73.682 0 1.258-.244 1.727-.73.468-.484.702-1.074.702-1.768s-.234-1.282-.703-1.767zM283.05 313.503c0 1.135-.496 1.85-1.486 2.146l1.8 2.5h-1.476l-1.643-2.314h-1.525v2.312h-1.162v-6.882h2.56c1.048 0 1.8.18 2.252.53.452.356.68.924.68 1.705zm-1.546.974c.237-.2.354-.527.354-.98 0-.448-.12-.757-.364-.924-.243-.167-.675-.25-1.3-.25h-1.475v2.46h1.444c.657 0 1.103-.103 1.34-.306zM284.722 311.27h1.162v3.354l3.148-3.355h1.477l-2.767 3.01 2.804 3.87h-1.377l-2.282-3.014-1.004 1.082v1.93h-1.162v-6.88zM737.708 253.277h1.157v3.343l3.137-3.343h1.47l-2.754 2.998 2.794 3.854h-1.372l-2.272-3-1 1.077v1.92h-1.157v-6.85zM750.08 255.502c0 1.13-.494 1.842-1.48 2.137l1.793 2.487h-1.47l-1.637-2.304h-1.52v2.304h-1.156v-6.853h2.55c1.044 0 1.793.177 2.244.53.45.354.676.92.676 1.697zm-1.54.97c.236-.202.354-.526.354-.976 0-.447-.12-.755-.36-.92-.242-.168-.674-.252-1.295-.252h-1.474v2.45h1.44c.653.003 1.098-.1 1.333-.3zM752.717 258.57l-.687 1.56h-1.234l3.02-6.853h1.233l3.02 6.852h-1.236l-.686-1.56h-3.433zm2.96-1.07l-1.244-2.822-1.245 2.823h2.49zM759.02 253.277h1.156v3.343l3.138-3.343h1.472l-2.755 2.998 2.796 3.854h-1.372l-2.274-3-1 1.077v1.92h-1.157l-.002-6.85zM771.354 259.184c-.69.676-1.55 1.016-2.567 1.016-1.02 0-1.875-.34-2.568-1.016-.69-.678-1.04-1.52-1.04-2.53 0-1.01.35-1.853 1.04-2.527.69-.677 1.547-1.017 2.566-1.017 1.02 0 1.876.34 2.567 1.017.692.677 1.04 1.52 1.04 2.528s-.348 1.85-1.04 2.53zm-.85-4.29a2.31 2.31 0 0 0-1.72-.725 2.29 2.29 0 0 0-1.72.724c-.47.482-.702 1.07-.702 1.76s.232 1.275.702 1.76a2.3 2.3 0 0 0 1.72.73c.68 0 1.254-.243 1.72-.73.47-.48.702-1.068.702-1.76 0-.69-.233-1.278-.7-1.76zM775.92 258.208l1.53-4.93h1.04l1.526 4.93 1.727-4.93h1.246l-2.397 6.85h-1.146l-1.44-4.694h-.08l-1.437 4.695h-1.147l-2.39-6.854h1.243l1.725 4.93zM674.41 287.73h-3.776v-1.036h5.348v.882l-3.89 4.744v.027h3.947v1.045h-5.53v-.87l3.9-4.765v-.028zM678.963 291.86c.306.356.722.537 1.245.537.522 0 .938-.18 1.246-.537.307-.358.46-.845.46-1.457v-3.71h1.13v3.758c0 .967-.266 1.71-.794 2.23-.53.52-1.21.78-2.042.78-.83 0-1.513-.26-2.04-.78-.532-.52-.796-1.263-.796-2.23v-3.755h1.13v3.71c0 .612.153 1.098.46 1.456zM690.166 288.87c0 1.104-.483 1.8-1.447 2.088l1.75 2.435h-1.437l-1.602-2.252h-1.483v2.254h-1.133v-6.697h2.492c1.02 0 1.754.172 2.195.518.445.343.665.895.665 1.655zm-1.505.948c.23-.197.347-.516.347-.954 0-.437-.118-.737-.354-.9-.234-.163-.656-.243-1.266-.243h-1.438v2.398h1.406c.64-.002 1.076-.1 1.306-.3zM691.795 286.694h1.132v6.698h-1.132v-6.698zM697.843 292.367c.39 0 .725-.066 1.006-.195.28-.132.573-.342.88-.63l.73.748c-.71.786-1.57 1.18-2.583 1.18-1.014 0-1.854-.325-2.52-.978-.67-.652-1.002-1.477-1.002-2.473 0-1 .342-1.83 1.02-2.495.68-.664 1.54-.996 2.58-.996s1.904.383 2.6 1.15l-.718.785c-.32-.31-.62-.52-.905-.645a2.57 2.57 0 0 0-1.002-.183c-.677 0-1.245.22-1.704.656-.46.438-.688.996-.688 1.678s.228 1.25.685 1.707.993.69 1.62.69zM701.84 293.393v-6.698h1.13v2.903h3.326v-2.903h1.13v6.698h-1.13v-2.74h-3.326v2.74h-1.13zM695.652 246.396h-3.02v-6.902h2.685c.47 0 .87.057 1.21.168.342.11.593.264.757.454.313.354.475.757.475 1.205 0 .54-.173.94-.517 1.206a2.14 2.14 0 0 1-.258.173c-.046.02-.128.06-.247.11.43.095.77.286 1.02.58.254.292.382.654.382 1.09 0 .48-.166.905-.494 1.272-.39.432-1.054.646-1.996.646zm-1.856-4.04h1.48c.844 0 1.265-.285 1.265-.858 0-.328-.102-.564-.305-.71-.204-.146-.52-.218-.948-.218h-1.49v1.787zm0 2.964h1.827c.428 0 .755-.068.98-.203.23-.135.342-.39.342-.766 0-.61-.49-.916-1.473-.916h-1.68l.004 1.887zM704.45 239.494v1.098h-3.685v1.825h3.31v1.036h-3.31v1.848h3.803v1.098H699.6v-6.9l4.85-.003zM711.568 241.736c0 1.138-.497 1.854-1.49 2.15l1.806 2.51h-1.48l-1.648-2.32h-1.53v2.32h-1.165v-6.902h2.568c1.054 0 1.808.178 2.262.533s.678.925.678 1.71zm-1.55.976c.24-.204.356-.53.356-.98 0-.45-.12-.76-.365-.93s-.68-.253-1.306-.253h-1.48v2.47h1.45c.66 0 1.106-.105 1.344-.31zM713.247 246.396v-6.902h1.166v5.796h3.147v1.106h-4.313zM718.555 239.494h1.166v6.902h-1.164v-6.902zM726.684 239.494h1.166v6.902h-1.264l-3.91-5.036v5.036h-1.165v-6.902h1.167l4.008 5.154v-5.154zM641.898 199.497l-.683 1.546h-1.226l2.993-6.798h1.226l2.994 6.798h-1.225l-.684-1.546h-3.4zm2.938-1.06l-1.235-2.802-1.23 2.803h2.467zM649.3 201.042h-1.146v-6.798h1.79l2.052 4.27 2.053-4.27h1.78v6.798h-1.15v-5.31l-2.37 4.717h-.646l-2.362-4.72-.003 5.31zM659.77 195.14c-.335 0-.606.067-.82.203s-.32.343-.32.618.106.486.32.634c.214.148.67.304 1.366.474.694.168 1.223.404 1.573.71.352.306.527.753.527 1.347s-.223 1.076-.67 1.443c-.446.37-1.034.556-1.76.556-1.064 0-2.008-.367-2.83-1.1l.72-.865c.687.596 1.4.894 2.14.894.368 0 .662-.077.88-.235a.74.74 0 0 0 .325-.634.707.707 0 0 0-.306-.613c-.204-.146-.556-.278-1.056-.398s-.878-.23-1.14-.33c-.26-.1-.486-.23-.688-.395-.4-.306-.604-.772-.604-1.4 0-.63.23-1.114.688-1.454.457-.34 1.02-.51 1.694-.51.436 0 .865.07 1.295.213.43.14.798.342 1.107.602l-.613.865c-.2-.182-.475-.33-.816-.447-.343-.12-.68-.18-1.015-.18zM666.407 195.295v5.747h-1.148v-5.747h-2.064v-1.05h5.27v1.05h-2.06zM674.488 194.245v1.08h-3.627v1.8h3.26v1.02h-3.258v1.82h3.742v1.077h-4.892v-6.798h4.778zM681.502 196.453c0 1.12-.49 1.826-1.47 2.12l1.78 2.47h-1.46l-1.624-2.285h-1.508v2.285h-1.146v-6.798h2.527c1.038 0 1.78.175 2.23.524.45.35.673.91.673 1.682zm-1.527.962c.233-.2.352-.522.352-.968 0-.443-.12-.748-.36-.913-.24-.165-.667-.25-1.283-.25h-1.458v2.434h1.43c.644 0 1.085-.1 1.32-.303zM688.3 195.135c.654.594.98 1.418.98 2.475 0 1.06-.316 1.896-.95 2.51-.637.617-1.61.925-2.92.925h-2.256v-6.798h2.334c1.22-.002 2.156.295 2.81.888zm-.177 2.504c0-1.56-.893-2.336-2.674-2.336h-1.15v4.66h1.273c.825 0 1.455-.197 1.892-.59.438-.393.656-.97.656-1.736zM691.723 199.497l-.68 1.546h-1.228l2.994-6.798h1.227l2.995 6.798h-1.23l-.68-1.546h-3.4zm2.936-1.06l-1.236-2.802-1.233 2.803h2.468zM699.124 201.042h-1.147v-6.798h1.79l2.053 4.27 2.052-4.27h1.78v6.798h-1.147v-5.31l-2.373 4.717h-.642l-2.363-4.72-.003 5.31zM586.5 227.04v-6.738h1.14v5.66h3.073v1.08H586.5zM597.405 226.11c-.684.665-1.523.997-2.526.997s-1.847-.332-2.527-.998c-.68-.668-1.02-1.495-1.02-2.49 0-.99.34-1.82 1.02-2.486.683-.664 1.522-.998 2.525-.998s1.844.334 2.525.998c.68.666 1.02 1.495 1.02 2.487.003.995-.34 1.82-1.02 2.488zm-.834-4.217c-.46-.478-1.02-.715-1.69-.715s-1.232.237-1.69.715c-.46.476-.69 1.05-.69 1.73 0 .676.23 1.254.69 1.728.46.48 1.02.715 1.69.715s1.23-.236 1.692-.713c.46-.476.69-1.053.69-1.728 0-.68-.23-1.255-.69-1.73zM604.914 220.3h1.14v6.74h-1.234l-3.82-4.917v4.918h-1.137v-6.737H601l3.914 5.032V220.3zM613.02 221.184c.648.586.975 1.404.975 2.452 0 1.05-.314 1.878-.943 2.488-.63.608-1.595.916-2.894.916h-2.237v-6.74h2.317c1.21 0 2.138.294 2.785.884zm-.17 2.482c0-1.543-.884-2.314-2.65-2.314h-1.14v4.62h1.266c.814 0 1.44-.194 1.875-.586.434-.388.65-.962.65-1.72zM621.1 226.11c-.68.665-1.52.997-2.522.997-1.003 0-1.844-.332-2.525-.998-.68-.668-1.02-1.495-1.02-2.49 0-.99.34-1.82 1.02-2.486.684-.664 1.522-.998 2.525-.998 1.002 0 1.846.334 2.523.998.686.666 1.024 1.495 1.024 2.487 0 .995-.34 1.82-1.022 2.488zm-.832-4.217c-.46-.478-1.02-.715-1.69-.715s-1.23.237-1.69.715c-.46.476-.69 1.05-.69 1.73 0 .676.23 1.254.69 1.728.46.48 1.02.715 1.69.715s1.23-.236 1.69-.713c.46-.476.69-1.053.69-1.728 0-.68-.23-1.255-.69-1.73zM628.612 220.3h1.138v6.74h-1.233l-3.816-4.918v4.918h-1.14v-6.74h1.14l3.916 5.033-.003-5.032z"/><g fill="#FFF"><path d="M797.708 269.518h1.156v3.31l3.13-3.31h1.43l-2.745 2.828 2.866 3.752h-1.41l-2.248-2.96-1.024 1.052v1.908h-1.156l-.002-6.58zM806.163 273.503l-2.613-3.985h1.372l1.834 2.903 1.862-2.9h1.325l-2.614 3.956v2.623h-1.168v-2.596zM811.028 269.518h1.155v6.58h-1.155v-6.58zM813.38 269.518h1.28l1.98 5.058 1.977-5.058h1.25l-2.728 6.627h-1.026l-2.735-6.627z"/></g></svg>