<svg xmlns="http://www.w3.org/2000/svg" width="1118" height="408" viewBox="0 0 1118 408"><path fill="#12617B" d="M1037.384 245.5c3.96 0 7.168 1.46 7.168 3.26 0 1.803-3.21 3.26-7.168 3.26-3.96 0-7.17-1.457-7.17-3.26 0-1.8 3.21-3.26 7.17-3.26zM9.854 356.507c3.958 0 7.17 1.457 7.17 3.26 0 1.802-3.21 3.263-7.17 3.263s-7.17-1.46-7.17-3.264c0-1.802 3.21-3.26 7.17-3.26zm39-91c3.958 0 7.168 1.457 7.168 3.26 0 1.8-3.21 3.26-7.17 3.26-3.957 0-7.167-1.46-7.167-3.26 0-1.803 3.21-3.26 7.168-3.26zm257.713 100.428c1.447 0 2.792.195 3.917.53a2.295 2.295 0 0 1-.028-.372c0-2.758 4.925-4.996 11-4.996 6.074 0 11 2.238 11 4.996 0 2.768-4.927 5-11 5-3.04 0-5.792-.56-7.78-1.464-.47 1.594-3.472 2.822-7.108 2.822-3.96 0-7.17-1.46-7.17-3.26 0-1.797 3.21-3.258 7.17-3.258zm38.458-18.25c3.96 0 7.17 1.457 7.17 3.264 0 1.797-3.21 3.253-7.17 3.253s-7.17-1.456-7.17-3.255c0-1.808 3.21-3.265 7.17-3.265zm440.357-63.183c3.96 0 7.17 1.46 7.17 3.26 0 1.8-3.21 3.26-7.17 3.26s-7.168-1.46-7.168-3.26c0-1.8 3.21-3.26 7.168-3.26zm34-8c3.96 0 7.17 1.46 7.17 3.26s-3.21 3.26-7.17 3.26-7.17-1.46-7.17-3.26 3.21-3.26 7.17-3.26zm44 1c3.96 0 7.17 1.458 7.17 3.26 0 1.8-3.21 3.26-7.17 3.26s-7.17-1.46-7.17-3.26c0-1.802 3.212-3.26 7.17-3.26zm-23.998 57c3.96 0 7.17 1.46 7.17 3.26s-3.21 3.263-7.17 3.263-7.17-1.465-7.17-3.264 3.21-3.26 7.17-3.26zm83.723-42.397c6.07 0 11 2.235 11 5.002 0 .265-.05.524-.14.783a14.587 14.587 0 0 1 3.41-.393c3.96 0 7.17 1.46 7.17 3.26 0 1.8-3.21 3.26-7.17 3.26-3.844 0-6.98-1.375-7.16-3.102-1.918.734-4.396 1.188-7.11 1.188-6.075 0-10.998-2.237-10.998-4.996 0-2.76 4.92-5.002 10.996-5.002zm62.393 21.022c6.073 0 10.998 2.238 10.998 4.997 0 2.763-4.925 5-10.998 5-6.075 0-11-2.237-11-5 0-2.76 4.925-4.997 11-4.997z"/><path fill="#FFF" d="M321.002 367.127c4.604-5.835 13.02-15.02 16.483-21.05a18.912 18.912 0 0 0 2.515-9.45c0-10.495-8.506-19-19-19-10.492 0-19 8.505-19 19 0 1.65.213 3.25.607 4.775 1.36-.533 2.842-.83 4.393-.83 1.98 0 3.306.212 4.954 1.062L312 337h5v-10h7v5h5v12h-13l-.48.125a11.972 11.972 0 0 1 3.478 8.447c0 2.1-.543 4.146-1.59 5.97a29.085 29.085 0 0 1-1.535 2.375c1.902 2.263 3.7 4.4 5.13 6.21zM324 334h3v3h-3v-3zm0 5h3v3h-3v-3zm-7 3h-3v-3h3v3zm2-3h3v3h-3v-3zm3-5v3h-3v-3h3zm-3-2v-3h3v3h-3z"/><path fill="#FAED24" d="M10 360.678c2.424-3.064 6.853-7.902 8.676-11.076a9.98 9.98 0 0 0 1.322-4.977c0-5.52-4.478-10-9.998-10-5.522 0-10 4.478-10 10a9.98 9.98 0 0 0 1.32 4.97c1.82 3.168 6.256 8.014 8.68 11.083zm0-19.605c2.2 0 4 1.803 4 4 0 2.2-1.8 4.004-4 4.004s-4-1.803-4-4.004c0-2.197 1.8-4 4-4zM49 268.677c2.424-3.067 6.853-7.905 8.676-11.075a9.98 9.98 0 0 0 1.322-4.977c0-5.52-4.476-9.998-9.997-9.998-5.52 0-10 4.477-10 9.998 0 1.81.48 3.503 1.32 4.968 1.82 3.175 6.257 8.016 8.68 11.084zm0-19.605c2.2 0 4 1.803 4 4.004 0 2.197-1.8 4-4 4s-4-1.803-4-4c0-2.2 1.8-4.004 4-4.004zM307 368.624c2.423-3.068 6.852-7.906 8.675-11.076a9.957 9.957 0 0 0 1.324-4.976c0-5.522-4.48-9.998-10-9.998s-10 4.476-10 9.998c0 1.81.48 3.503 1.316 4.968 1.825 3.174 6.258 8.016 8.683 11.084zm0-19.604c2.2 0 4 1.807 4 4.008 0 2.193-1.8 4-4 4a4.017 4.017 0 0 1-4.002-4c0-2.206 1.8-4.008 4.002-4.008zM345.003 350.68c2.42-3.068 6.852-7.91 8.673-11.08a9.944 9.944 0 0 0 1.325-4.972c0-5.526-4.476-10.002-9.996-10.002-2.105 0-4.057.65-5.666 1.758a20.935 20.935 0 0 1 2.327 6.49 4.007 4.007 0 0 1 3.337-1.8c2.2 0 4 1.8 4 4 0 2.202-1.8 4-4 4a3.98 3.98 0 0 1-3.026-1.395 20.914 20.914 0 0 1-1.703 7.29c1.69 2.063 3.478 4.122 4.733 5.71zM786 288.628c2.42-3.07 6.854-7.91 8.673-11.08a9.948 9.948 0 0 0 1.325-4.973c0-5.525-4.48-10.002-9.998-10.002-5.523 0-10 4.477-10 10.002 0 1.807.48 3.504 1.32 4.964 1.82 3.172 6.255 8.016 8.68 11.087zm-.002-19.605c2.2 0 4 1.797 4 3.998 0 2.205-1.8 4-4 4s-4-1.795-4-4c0-2.2 1.8-3.996 4-3.996zM820 280.624c2.422-3.067 6.853-7.906 8.674-11.076a9.942 9.942 0 0 0 1.324-4.978c0-5.52-4.48-9.996-10-9.996s-10 4.476-10 9.996a9.97 9.97 0 0 0 1.318 4.97c1.825 3.174 6.26 8.017 8.683 11.084zm0-19.6c2.198 0 4 1.798 4 4 0 2.196-1.802 4-4 4-2.202 0-4-1.804-4-4 0-2.202 1.798-4 4-4zM864 281.625c2.424-3.068 6.854-7.906 8.677-11.076a9.957 9.957 0 0 0 1.324-4.98c0-5.52-4.477-9.996-10-9.996s-9.997 4.476-9.997 9.997c0 1.81.48 3.505 1.318 4.97 1.824 3.174 6.257 8.016 8.68 11.084zm0-19.604c2.2 0 4 1.805 4 4.006 0 2.197-1.8 4-4 4s-4-1.803-4-4c0-2.202 1.8-4.004 4-4.004zM839.446 338.44c2.424-3.068 6.853-7.906 8.676-11.076a9.983 9.983 0 0 0 1.322-4.98c0-5.52-4.48-9.996-9.998-9.996-5.523 0-10 4.48-10 9.997a10 10 0 0 0 1.315 4.973c1.827 3.172 6.26 8.014 8.687 11.082zm-.002-19.604a4.018 4.018 0 0 1 4.002 4.004c0 2.197-1.805 4-4.002 4-2.2 0-4-1.803-4-4 0-2.2 1.8-4.004 4-4.004zM937.5 300.627c2.423-3.072 6.852-7.91 8.675-11.08a9.973 9.973 0 0 0 1.322-4.972c0-5.526-4.48-10.002-9.997-10.002-5.523 0-10.002 4.476-10.002 10.002a9.95 9.95 0 0 0 1.32 4.964c1.822 3.172 6.256 8.014 8.682 11.086zm-.002-19.606c2.2 0 4 1.8 4 4 0 2.203-1.8 4-4 4s-4-1.797-4-4c0-2.2 1.8-4 4-4zM1038.002 248.678c2.42-3.066 6.854-7.906 8.676-11.08a9.945 9.945 0 0 0 1.322-4.972c0-5.52-4.48-9.998-9.998-9.998-5.523 0-10 4.478-10 9.998 0 1.812.48 3.503 1.32 4.968 1.82 3.17 6.255 8.015 8.68 11.084zm-.002-19.605c2.2 0 4.002 1.803 4.002 4.004 0 2.196-1.8 4-4.002 4-2.2 0-4-1.804-4-4 0-2.2 1.8-4.004 4-4.004z"/><path fill="#FFF" d="M923.975 298.124c1.27-1.606 2.82-3.466 4.485-5.442a27.71 27.71 0 0 1-1.375-2.146 11.928 11.928 0 0 1-1.585-5.96c0-3.84 1.698-7.38 4.5-9.576h-15v-7h5v-10h7v5h5v11c1-1 3.703-1.425 5.5-1.425 1.61 0 3.15.317 4.555.896.6-1.842.918-3.807.918-5.846 0-10.494-8.507-18.998-18.998-18.998-10.494 0-19 8.504-19 18.998 0 3.436.913 6.657 2.508 9.438 3.458 6.03 11.885 15.23 16.492 21.064zM927 265h3v3h-3v-3zm0 5h3v3h-3v-3zm-7 3h-3v-3h3v3zm2-3h3v3h-3v-3zm3-5v3h-3v-3h3zm-3-2v-3h3v3h-3zM985 317.127c4.605-5.835 13.02-15.02 16.482-21.05a18.912 18.912 0 0 0 2.515-9.45c0-10.495-8.506-19-18.998-19-10.496 0-19 8.505-19 19 0 3.434.91 6.655 2.505 9.436 3.46 6.03 11.89 15.23 16.493 21.064zM981 277h7v5h5v12h-17v-7h5v-10zm7 7h3v3h-3v-3zm0 5h3v3h-3v-3zm-7 3h-3v-3h3v3zm2-3h3v3h-3v-3zm3-5v3h-3v-3h3zm-3-2v-3h3v3h-3z"/><path fill="#308EA8" d="M19.787 336.972a.718.718 0 1 1-.885-1.132c39.555-30.938 89.374-48.67 140.466-50.504 48.692-1.75 98.547 10.934 141.79 40.364a.72.72 0 1 1-.81 1.19c-42.978-29.25-92.53-41.855-140.93-40.118-50.792 1.824-100.314 19.446-139.63 50.2zm954.265-69.898c.21.338.107.78-.23.988a.72.72 0 0 1-.99-.23c-48.536-77.73-107.74-137.26-172.87-180.126C709.022 27.856 606.516.493 505.33 1.46c-101.185.97-201.056 30.274-286.713 83.766C154.89 125.02 99.03 178.2 56.35 243.05a.717.717 0 0 1-1.2-.788c42.804-65.034 98.815-118.36 162.707-158.26C303.733 30.374 403.86.99 505.317.024c101.458-.973 204.24 26.467 295.43 86.48 65.303 42.98 124.655 102.658 173.305 180.57zM61.146 251.848c43.3-9.48 85.633-10.086 126.754.362 41.122 10.45 81.05 31.962 119.548 66.72a.714.714 0 0 0 1.017-.054.72.72 0 0 0-.053-1.017c-38.678-34.92-78.812-56.54-120.158-67.047-41.347-10.508-83.897-9.904-127.41-.375a.72.72 0 0 0 .3 1.408zm267.39 64.21c20.492-45.72 52.063-84.3 90.567-114.583 50.225-39.503 112.238-64.896 176.847-73.624 64.602-8.724 131.793-.79 192.366 26.36 7.21 3.23 14.32 6.733 21.332 10.514a306.16 306.16 0 0 0-7.227-3.514c-57.542-27.042-122.17-35.176-184.97-26.793-62.803 8.386-123.78 33.287-174.03 72.32-39.265 30.508-71.99 69.655-93.906 116.303a.716.716 0 0 0 .348.952c.36.17.79.012.955-.347 21.816-46.423 54.39-85.396 93.49-115.77 50.053-38.88 110.783-63.683 173.328-72.035 62.543-8.348 126.896-.25 184.184 26.668 24.22 11.38 47.18 26.125 68.203 44.417 11.737 10.41 24.37 23.236 34.886 35.755-1.73-1.363-4.98-3.996-6.813-5.146-15.056-9.452-33.326-12.073-50.816-9.642-17.48 2.436-34.197 9.906-46.164 20.648-4.284 3.848-7.96 8.104-10.852 12.703a.72.72 0 0 0 1.22.767c2.813-4.488 6.403-8.646 10.59-12.402 11.758-10.553 28.203-17.898 45.4-20.293 17.186-2.39 35.11.173 49.855 9.43a61.055 61.055 0 0 1 12.61 10.522l.36.46c.245.31.7.364 1.015.116l.015-.008.06-.045a.72.72 0 0 0 .13-1.01c-12.446-16.023-26.033-30.312-40.53-42.93-25.146-22.298-52.85-39.86-82.082-52.964-60.826-27.263-128.287-35.23-193.146-26.47-64.854 8.762-127.12 34.256-177.545 73.917-38.678 30.422-70.398 69.184-90.99 115.13a.72.72 0 0 0 .363.95.71.71 0 0 0 .95-.356zm575.21-58.59c-5.272-1.55-10.486-2.304-15.536-2.34-5.25-.037-10.327.7-15.116 2.12-.38.11-.6.512-.482.895.105.38.51.602.89.488a50.32 50.32 0 0 1 14.71-2.064c4.912.037 9.99.772 15.134 2.283.38.107.78-.105.896-.485a.732.732 0 0 0-.497-.897zm-51.667 12.117a.715.715 0 0 1 1.013.017c.277.28.27.74-.014 1.02-5.075 4.934-9.173 11-11.95 17.917-2.665 6.614-4.12 14.02-4.075 21.962a.72.72 0 1 1-1.438.005c-.048-8.13 1.445-15.72 4.174-22.506 2.855-7.105 7.067-13.34 12.286-18.416z"/><path fill="#FFF" d="M1057.203 237.97h-1.165v-6.897h1.813l2.084 4.33 2.083-4.33h1.807v6.896h-1.164v-5.39l-2.408 4.785h-.65l-2.396-4.786-.003 5.39zM1071.51 237.018c-.694.682-1.56 1.02-2.585 1.02-1.024 0-1.888-.34-2.585-1.02-.697-.683-1.047-1.528-1.047-2.547 0-1.015.35-1.863 1.047-2.545.697-.68 1.56-1.02 2.585-1.02s1.89.34 2.585 1.02c.698.682 1.047 1.53 1.047 2.547 0 1.018-.35 1.865-1.047 2.548zm-.853-4.32a2.326 2.326 0 0 0-1.732-.73c-.684 0-1.262.245-1.73.73-.472.487-.705 1.08-.705 1.772s.233 1.282.706 1.77a2.31 2.31 0 0 0 1.73.732 2.31 2.31 0 0 0 1.73-.73c.47-.487.705-1.077.705-1.772 0-.693-.232-1.284-.702-1.77zM1076.114 231.98c-.34 0-.617.068-.834.206-.218.14-.326.35-.326.627 0 .28.108.494.326.644.217.146.68.31 1.386.48.708.17 1.24.41 1.6.72.357.31.536.765.536 1.365 0 .602-.227 1.092-.68 1.467-.453.373-1.05.56-1.786.56-1.08 0-2.037-.37-2.87-1.114l.728-.88c.696.606 1.42.91 2.17.91.376 0 .674-.08.894-.24a.764.764 0 0 0 .33-.644c0-.268-.103-.475-.31-.622s-.563-.28-1.07-.402a9.585 9.585 0 0 1-1.155-.336 2.65 2.65 0 0 1-.7-.4c-.406-.31-.61-.78-.61-1.42s.232-1.13.693-1.476c.467-.346 1.038-.52 1.724-.52.44 0 .88.073 1.312.22.436.145.81.348 1.125.61l-.62.878c-.204-.187-.48-.336-.828-.454a3.21 3.21 0 0 0-1.037-.18zM1083.392 236.912c.4 0 .746-.066 1.035-.2.29-.137.593-.353.908-.647l.75.77c-.73.813-1.617 1.215-2.66 1.215-1.042 0-1.907-.335-2.595-1.006s-1.03-1.52-1.03-2.546c0-1.026.352-1.88 1.05-2.565.7-.685 1.588-1.024 2.654-1.024 1.07 0 1.962.393 2.682 1.182l-.74.81c-.328-.314-.64-.534-.934-.66s-.638-.187-1.03-.187c-.697 0-1.283.227-1.755.678-.477.45-.713 1.024-.713 1.727s.234 1.287.705 1.758c.467.46 1.025.694 1.67.694zM1093.13 237.018c-.697.682-1.56 1.02-2.585 1.02-1.027 0-1.89-.34-2.586-1.02-.7-.683-1.048-1.528-1.048-2.547 0-1.015.35-1.863 1.046-2.545.696-.68 1.558-1.02 2.585-1.02 1.025 0 1.888.34 2.585 1.02.697.682 1.046 1.53 1.046 2.547 0 1.018-.35 1.865-1.046 2.548zm-.853-4.32a2.33 2.33 0 0 0-1.732-.73c-.686 0-1.262.245-1.732.73-.47.487-.706 1.08-.706 1.772s.236 1.282.706 1.77a2.315 2.315 0 0 0 1.732.732c.684 0 1.262-.244 1.732-.73.47-.487.703-1.077.703-1.772 0-.693-.233-1.284-.703-1.77zM1097.73 236.034l1.54-4.964h1.047l1.537 4.964 1.736-4.964h1.254l-2.408 6.896h-1.152l-1.45-4.728h-.08l-1.45 4.728h-1.154l-2.405-6.896h1.253l1.73 4.964zM32.254 343.98c-.333 0-.606.066-.818.202-.214.138-.32.343-.32.615 0 .275.106.485.32.63.212.146.667.305 1.36.473.695.168 1.218.4 1.57.708.353.304.53.75.53 1.342 0 .592-.224 1.07-.67 1.438-.445.37-1.03.555-1.753.555-1.06 0-2-.365-2.82-1.098l.716-.86c.683.595 1.394.893 2.13.893.37 0 .66-.08.877-.237a.74.74 0 0 0 .325-.63.703.703 0 0 0-.305-.607c-.205-.146-.555-.277-1.052-.397a9.564 9.564 0 0 1-1.134-.33 2.494 2.494 0 0 1-.687-.392c-.4-.306-.6-.77-.6-1.396 0-.627.228-1.108.683-1.45.456-.34 1.02-.508 1.69-.508.434 0 .864.07 1.29.213a3.43 3.43 0 0 1 1.105.603l-.61.86c-.2-.18-.47-.327-.813-.443a2.958 2.958 0 0 0-1.014-.182zM37.202 348.323l-.678 1.54h-1.22l2.984-6.773h1.22l2.986 6.774h-1.22l-.68-1.54h-3.392zm2.927-1.056l-1.23-2.79-1.23 2.79h2.46zM48.513 343.09h1.144v6.774h-1.24l-3.838-4.943v4.945h-1.146v-6.774h1.144l3.934 5.063v-5.062zM55.336 344.156v1.858h3.004v1.06h-3.004v2.79h-1.144v-6.774h4.517l-.01 1.066h-3.365zM65.455 345.29c0 1.118-.488 1.82-1.464 2.112l1.775 2.462H64.31l-1.618-2.278H61.19v2.278h-1.144v-6.774h2.52c1.034 0 1.774.174 2.22.523.446.348.67.908.67 1.677zm-1.522.958c.233-.2.35-.52.35-.963 0-.443-.12-.747-.36-.912-.238-.164-.664-.247-1.278-.247H61.19v2.424h1.424c.647 0 1.087-.1 1.32-.302zM68.06 348.323l-.677 1.54h-1.22l2.984-6.773h1.22l2.986 6.774h-1.22l-.68-1.54H68.06zm2.928-1.056l-1.23-2.79-1.23 2.79h2.46zM79.372 343.09h1.144v6.774h-1.24l-3.838-4.943v4.945h-1.145v-6.774h1.145l3.934 5.063v-5.062zM85.488 348.828c.393 0 .733-.067 1.017-.2.284-.13.582-.343.892-.634l.737.756c-.717.795-1.588 1.19-2.612 1.19-1.025 0-1.875-.328-2.55-.986-.676-.66-1.013-1.494-1.013-2.5 0-1.01.342-1.85 1.03-2.522.69-.672 1.558-1.008 2.607-1.008 1.05 0 1.927.39 2.632 1.163l-.73.795c-.322-.31-.627-.524-.914-.647a2.563 2.563 0 0 0-1.014-.187c-.685 0-1.26.222-1.724.664-.467.443-.7 1.008-.7 1.696s.23 1.263.693 1.725c.463.462 1.01.695 1.646.695zM89.53 343.09h1.143v6.774H89.53v-6.774zM94.604 343.98c-.333 0-.606.066-.82.202-.212.138-.32.343-.32.615 0 .275.107.485.32.63.214.146.668.305 1.363.473.694.168 1.217.4 1.57.708.352.304.527.75.527 1.342 0 .592-.223 1.07-.668 1.438-.446.37-1.03.555-1.755.555-1.06 0-2-.365-2.82-1.098l.72-.86c.684.595 1.395.893 2.132.893.37 0 .66-.08.877-.237a.737.737 0 0 0 .324-.63.703.703 0 0 0-.305-.607c-.205-.146-.556-.277-1.053-.397a9.423 9.423 0 0 1-1.133-.33c-.26-.1-.488-.228-.688-.392-.4-.306-.6-.77-.6-1.396 0-.627.227-1.108.682-1.45.456-.34 1.02-.508 1.69-.508.434 0 .863.07 1.29.213a3.43 3.43 0 0 1 1.105.603l-.61.86c-.2-.18-.47-.327-.813-.443a2.957 2.957 0 0 0-1.013-.182zM101.75 348.828c.395 0 .734-.067 1.02-.2.283-.13.58-.343.89-.634l.738.756c-.717.795-1.588 1.19-2.612 1.19s-1.874-.328-2.55-.986c-.675-.66-1.012-1.494-1.012-2.5 0-1.01.343-1.85 1.032-2.522.688-.672 1.557-1.008 2.607-1.008 1.05 0 1.927.39 2.63 1.163l-.726.795c-.323-.31-.628-.524-.916-.647s-.623-.187-1.012-.187c-.685 0-1.26.222-1.724.664-.466.443-.698 1.008-.698 1.696s.23 1.263.692 1.725 1.01.695 1.644.695zM111.317 348.93c-.685.668-1.53 1.002-2.54 1.002-1.008 0-1.853-.334-2.538-1.003-.688-.67-1.03-1.504-1.03-2.5 0-1 .342-1.834 1.03-2.503.683-.67 1.53-1.003 2.537-1.003 1.008 0 1.854.334 2.54 1.003s1.026 1.502 1.026 2.5c0 1-.342 1.832-1.027 2.5zm-.838-4.24a2.273 2.273 0 0 0-1.703-.72c-.673 0-1.24.238-1.7.72a2.4 2.4 0 0 0-.694 1.736c0 .683.23 1.264.693 1.74a2.27 2.27 0 0 0 1.7.717c.673 0 1.24-.237 1.702-.718.46-.478.69-1.058.69-1.74 0-.678-.23-1.26-.69-1.736zM29.327 278.95c-.342 0-.622.067-.84.207-.22.14-.328.35-.328.632 0 .28.107.494.326.644.218.146.684.31 1.396.48.712.172 1.25.414 1.61.727.36.313.542.77.542 1.378 0 .603-.23 1.098-.685 1.476-.46.378-1.06.566-1.8.566-1.088 0-2.053-.375-2.894-1.123l.735-.886c.704.608 1.433.913 2.19.913.376 0 .677-.08.9-.242.22-.16.33-.376.33-.645s-.103-.48-.31-.626c-.21-.148-.57-.286-1.08-.408a9.52 9.52 0 0 1-1.163-.338 2.672 2.672 0 0 1-.707-.403c-.41-.31-.615-.785-.615-1.43 0-.645.233-1.14.7-1.485.468-.35 1.046-.522 1.735-.522.444 0 .885.074 1.323.22a3.51 3.51 0 0 1 1.133.616l-.626.884c-.206-.186-.484-.338-.835-.457a3.19 3.19 0 0 0-1.038-.18zM38.368 278.034v1.104H34.66v1.838h3.33v1.043h-3.33v1.856h3.827v1.104h-5v-6.947h4.88zM40.973 283.402l-.696 1.58h-1.252l3.062-6.948h1.253l3.062 6.948H45.15l-.697-1.58h-3.48zm3.002-1.084l-1.262-2.862-1.262 2.862h2.526zM49.443 279.107v5.875H48.27v-5.875h-2.108v-1.073h5.39v1.073h-2.11zM55.448 279.107v5.875h-1.174v-5.875h-2.107v-1.073h5.39v1.073h-2.11zM58.827 284.982v-6.948H60v5.835h3.17v1.11h-4.343zM69.335 278.034v1.104h-3.708v1.838h3.33v1.043h-3.33v1.856h3.827v1.104h-5v-6.947h4.88zM299.13 378.106h1.162v6.88h-1.26l-3.896-5.022v5.02h-1.162v-6.878h1.162l3.995 5.137v-5.137zM307.032 378.106v1.093h-3.67v1.815h3.296v1.034h-3.296v1.84h3.788v1.094h-4.95v-6.88h4.832zM310.782 383.057l1.535-4.948h1.043l1.535 4.946 1.732-4.948h1.25l-2.4 6.878h-1.152l-1.447-4.714h-.08l-1.445 4.714H310.2l-2.4-6.88h1.25l1.732 4.95zM324.35 384.985h-1.18v-2.718l-2.558-4.16h1.27l1.88 3.128 1.88-3.13h1.27l-2.56 4.162v2.718zM333.316 384.035c-.695.68-1.555 1.02-2.578 1.02-1.024 0-1.882-.34-2.578-1.02-.696-.68-1.043-1.525-1.043-2.54 0-1.012.348-1.858 1.043-2.537.695-.68 1.554-1.02 2.578-1.02 1.02 0 1.883.34 2.578 1.02.695.68 1.043 1.525 1.043 2.538 0 1.014-.35 1.86-1.045 2.54zm-.85-4.305a2.315 2.315 0 0 0-1.728-.73c-.683 0-1.258.243-1.73.73-.468.483-.703 1.072-.703 1.766s.235 1.28.704 1.767c.467.486 1.042.73 1.727.73.682 0 1.258-.243 1.727-.73.47-.483.703-1.07.703-1.767 0-.69-.234-1.28-.703-1.766zM341.316 380.34c0 1.136-.496 1.853-1.486 2.147l1.8 2.5h-1.476l-1.643-2.312h-1.523v2.312h-1.162v-6.88h2.56c1.048 0 1.8.178 2.252.53.452.355.68.923.68 1.704zm-1.545.974c.24-.203.356-.53.356-.98 0-.448-.12-.757-.364-.924-.242-.167-.674-.25-1.298-.25h-1.476v2.46h1.446c.656 0 1.102-.102 1.34-.306zM342.988 378.106h1.162v3.354l3.148-3.354h1.477l-2.765 3.01 2.804 3.87h-1.377l-2.283-3.014-1.004 1.082v1.93h-1.162v-6.878zM906.052 309.004h1.157v3.343l3.135-3.343h1.473l-2.757 3 2.794 3.853h-1.37l-2.274-3-1 1.077v1.923h-1.157l-.003-6.853zM918.424 311.23c0 1.13-.494 1.843-1.48 2.137l1.794 2.49h-1.47l-1.64-2.306h-1.52v2.308h-1.156v-6.854h2.55c1.044 0 1.793.176 2.244.528.452.356.678.92.678 1.7zm-1.54.97c.236-.203.354-.528.354-.98 0-.444-.12-.754-.363-.92-.24-.167-.673-.25-1.294-.25h-1.47v2.45h1.44c.655.004 1.1-.1 1.335-.3zM921.06 314.297l-.686 1.56h-1.234l3.02-6.853h1.234l3.02 6.854h-1.234l-.686-1.56h-3.433zm2.96-1.068l-1.243-2.823-1.245 2.82h2.49zM927.364 309.004h1.157v3.343l3.138-3.343h1.472l-2.756 3 2.794 3.853h-1.372l-2.274-3-1 1.077v1.923h-1.155l-.003-6.853zM939.696 314.91c-.692.677-1.55 1.015-2.568 1.015s-1.875-.338-2.567-1.015c-.69-.677-1.037-1.52-1.037-2.53s.348-1.852 1.04-2.528c.69-.676 1.55-1.015 2.566-1.015 1.02 0 1.875.338 2.567 1.015.69.68 1.04 1.52 1.04 2.53s-.346 1.85-1.04 2.528zm-.847-4.29c-.47-.482-1.043-.724-1.723-.724s-1.253.24-1.72.725c-.47.483-.702 1.07-.702 1.76s.233 1.278.702 1.76c.467.486 1.04.73 1.72.73s1.254-.24 1.72-.73c.47-.48.702-1.066.702-1.76 0-.69-.235-1.275-.7-1.76zM944.265 313.935l1.53-4.93h1.038l1.53 4.93 1.724-4.93h1.246l-2.394 6.853h-1.148l-1.44-4.695h-.077l-1.44 4.695h-1.147l-2.393-6.854h1.244l1.724 4.93zM826.4 346.758h-3.775v-1.034h5.348v.88l-3.89 4.745v.026h3.947v1.045h-5.53v-.87l3.898-4.764v-.03zM830.953 350.89c.306.356.722.536 1.245.536.522 0 .938-.18 1.246-.537.307-.36.46-.846.46-1.458v-3.71h1.13v3.757c0 .964-.266 1.71-.795 2.23s-1.213.78-2.043.78-1.513-.26-2.04-.78c-.532-.523-.796-1.267-.796-2.23v-3.757h1.13v3.71c0 .61.155 1.096.46 1.455zM842.155 347.9c0 1.103-.482 1.8-1.446 2.087l1.75 2.436h-1.437l-1.6-2.252h-1.486v2.254h-1.13v-6.7h2.49c1.022 0 1.755.173 2.196.52.442.342.66.895.66 1.656zm-1.504.947c.23-.197.35-.516.35-.953 0-.437-.12-.738-.355-.9-.234-.162-.658-.243-1.266-.243h-1.44v2.398h1.41c.638 0 1.07-.102 1.3-.3zM843.785 345.724h1.132v6.698h-1.132v-6.698zM849.833 351.397c.39 0 .725-.065 1.006-.195a3.52 3.52 0 0 0 .88-.63l.73.747c-.71.785-1.57 1.18-2.583 1.18-1.016 0-1.854-.326-2.52-.98-.67-.65-1.002-1.477-1.002-2.473 0-.998.34-1.828 1.02-2.493.68-.664 1.54-.996 2.578-.996 1.04 0 1.904.384 2.603 1.148l-.72.787c-.318-.308-.62-.52-.904-.644a2.57 2.57 0 0 0-1.002-.184c-.677 0-1.245.22-1.704.656-.46.438-.69.996-.69 1.678s.23 1.25.687 1.707.993.69 1.62.69zM853.83 352.422v-6.698h1.13v2.903h3.326v-2.903h1.13v6.698h-1.13v-2.74h-3.326v2.74h-1.13zM850.52 297.402h-3.02V290.5h2.687c.47 0 .87.058 1.21.168.34.11.592.266.756.454.313.355.475.757.475 1.205 0 .54-.17.94-.516 1.204-.123.095-.21.15-.257.175-.046.022-.127.062-.245.113.428.093.77.285 1.02.577.254.294.382.657.382 1.09 0 .48-.166.907-.494 1.274-.39.43-1.055.643-1.997.643zm-1.855-4.04h1.48c.844 0 1.265-.285 1.265-.858 0-.326-.104-.563-.308-.71-.203-.145-.52-.218-.947-.218h-1.49v1.787zm0 2.964h1.827c.428 0 .755-.066.98-.203.23-.135.34-.39.34-.765 0-.612-.488-.92-1.47-.92h-1.68l.003 1.888zM859.32 290.5v1.1h-3.686v1.823h3.31v1.036h-3.31v1.85h3.802v1.094h-4.968v-6.902l4.85-.003zM866.437 292.742c0 1.138-.495 1.854-1.49 2.15l1.808 2.51h-1.48l-1.648-2.32h-1.53v2.32h-1.165V290.5h2.566c1.054 0 1.808.18 2.262.533.452.356.677.925.677 1.71zm-1.55.977c.24-.206.356-.533.356-.984s-.12-.76-.365-.928-.678-.254-1.304-.254h-1.48v2.47h1.45c.66 0 1.106-.103 1.344-.307zM868.116 297.402V290.5h1.166v5.796h3.147v1.106h-4.315zM873.705 290.5h1.166v6.902h-1.164V290.5zM881.96 290.5h1.165v6.902h-1.264l-3.91-5.036v5.036h-1.163V290.5h1.165l4.01 5.154V290.5zM789.02 246.432l-.682 1.547h-1.226l2.995-6.8h1.226l2.995 6.8H793.1l-.68-1.55h-3.4zm2.936-1.06l-1.235-2.802-1.23 2.802h2.467zM796.42 247.98h-1.148v-6.8h1.79l2.054 4.27 2.053-4.27h1.78v6.8h-1.15v-5.312l-2.373 4.717h-.644l-2.362-4.717v5.31zM806.89 242.075c-.335 0-.606.067-.82.202-.216.137-.32.343-.32.62 0 .272.104.482.32.63.214.146.67.305 1.364.474.696.17 1.225.405 1.575.71.352.307.527.755.527 1.348 0 .594-.224 1.076-.67 1.444-.446.37-1.034.557-1.76.557-1.064 0-2.01-.368-2.83-1.1l.72-.867c.687.598 1.4.897 2.14.897.368 0 .662-.077.88-.236a.738.738 0 0 0 .325-.632c0-.264-.102-.467-.306-.613s-.557-.278-1.057-.397-.88-.23-1.14-.33a2.57 2.57 0 0 1-.69-.397c-.4-.305-.603-.77-.603-1.4s.23-1.112.688-1.452c.457-.34 1.02-.51 1.694-.51.435 0 .864.07 1.293.214.43.143.8.344 1.108.603l-.612.866c-.2-.18-.474-.33-.815-.446-.343-.12-.68-.18-1.015-.18zM813.527 242.23v5.746h-1.148v-5.746h-2.064v-1.05h5.272v1.05h-2.063zM821.607 241.18v1.08h-3.627v1.8h3.258v1.02h-3.258v1.818h3.742v1.078h-4.892v-6.797h4.777zM828.622 243.39c0 1.12-.49 1.825-1.47 2.117l1.778 2.472h-1.46l-1.623-2.287h-1.507v2.285h-1.146v-6.8h2.527c1.038 0 1.78.176 2.23.524.45.35.673.912.673 1.685zm-1.527.96c.233-.2.352-.52.352-.968 0-.442-.12-.748-.36-.913-.24-.166-.667-.25-1.283-.25h-1.458v2.432h1.43c.644 0 1.085-.1 1.32-.303zM835.42 242.07c.654.593.98 1.418.98 2.475s-.316 1.895-.95 2.51c-.638.616-1.61.924-2.92.924h-2.256v-6.8h2.334c1.22 0 2.156.296 2.81.89zm-.177 2.503c0-1.556-.894-2.333-2.674-2.333h-1.15v4.658h1.274c.824 0 1.455-.196 1.892-.588.438-.392.656-.97.656-1.737zM838.843 246.432l-.68 1.547h-1.228l2.994-6.8h1.227l2.995 6.8h-1.23l-.68-1.55h-3.4zm2.936-1.06l-1.236-2.802-1.234 2.802h2.47zM846.244 247.98h-1.147v-6.8h1.79l2.05 4.27 2.055-4.27h1.778v6.8h-1.146v-5.312l-2.373 4.717h-.64l-2.363-4.717-.002 5.31zM724.802 276.793v-6.738h1.14v5.658h3.073v1.08h-4.213zM735.707 275.86c-.682.667-1.523 1-2.526 1s-1.843-.333-2.52-1c-.684-.665-1.023-1.492-1.023-2.486 0-.992.342-1.82 1.022-2.487.68-.664 1.52-.998 2.522-.998s1.848.332 2.527.996c.68.666 1.02 1.495 1.02 2.487 0 .994-.34 1.82-1.02 2.487zm-.834-4.215c-.46-.477-1.023-.713-1.692-.713s-1.23.236-1.687.713c-.46.477-.69 1.054-.69 1.73s.23 1.254.69 1.728c.458.477 1.02.715 1.69.715s1.23-.238 1.69-.715c.46-.477.69-1.054.69-1.73s-.23-1.254-.69-1.728zM743.216 270.055h1.14v6.738h-1.234l-3.817-4.918v4.918h-1.137v-6.738h1.137l3.914 5.03-.005-5.03zM751.324 270.936c.646.588.973 1.405.973 2.453 0 1.047-.312 1.877-.943 2.486s-1.595.916-2.894.916h-2.237v-6.738h2.315c1.21 0 2.138.293 2.786.88zm-.174 2.482c0-1.543-.885-2.314-2.652-2.314h-1.136v4.62h1.263c.816 0 1.44-.194 1.875-.585.435-.39.65-.964.65-1.723zM759.402 275.86c-.682.667-1.523 1-2.525 1-1.003 0-1.844-.333-2.525-1-.68-.665-1.02-1.492-1.02-2.486 0-.992.34-1.82 1.02-2.487.684-.664 1.522-.998 2.525-.998 1.002 0 1.846.332 2.525.996.682.666 1.02 1.495 1.02 2.487.003.994-.338 1.82-1.02 2.487zm-.833-4.215c-.46-.477-1.025-.713-1.694-.713s-1.23.236-1.69.713c-.46.477-.69 1.054-.69 1.73s.23 1.254.69 1.728c.46.477 1.02.715 1.69.715s1.233-.238 1.692-.715c.46-.477.687-1.054.687-1.73s-.228-1.254-.688-1.728zM766.914 270.055h1.138v6.738h-1.23l-3.82-4.918v4.918h-1.14v-6.738H763l3.914 5.03v-5.03z"/><g fill="#FFF"><path d="M973.898 328.987h1.23v3.518l3.327-3.518h1.52l-2.92 3.008 3.05 3.988h-1.5l-2.39-3.148-1.088 1.12v2.028h-1.23v-6.996zM982.888 333.225l-2.777-4.236h1.46l1.95 3.086 1.98-3.088h1.407l-2.78 4.207v2.788h-1.238v-2.76zM988.06 328.987h1.23v6.996h-1.23v-6.996zM990.56 328.987h1.36l2.107 5.377 2.1-5.377h1.33l-2.9 7.046h-1.09l-2.906-7.046z"/></g></svg>