<!DOCTYPE svg PUBLIC "-//W3C//DTD SVG 1.1//EN" "http://www.w3.org/Graphics/SVG/1.1/DTD/svg11.dtd" [
	<!ENTITY ns_flows "http://ns.adobe.com/Flows/1.0/">
]><svg xmlns="http://www.w3.org/2000/svg" width="17" height="21" viewBox="-1 -0.984 17 21" overflow="visible"><path fill="#FFF" d="M7.502 19.542c1.814-2.306 5.14-5.933 6.506-8.312A7.5 7.5 0 0 0 7.502 0 7.498 7.498 0 0 0 0 7.498c0 1.357.36 2.628.99 3.73 1.366 2.376 4.693 6.008 6.512 8.314zM4 11.016V8h2V4h3v2h2v5.016H4zm3-6h1V6H7v-.984zm0 2h1V8H7v-.984zm2 0h1V8H9v-.984zm0 2h1V10H9v-.984zm-2 0h1V10H7v-.984zm-2 0h1V10H5v-.984z"/></svg>