<!DOCTYPE svg PUBLIC "-//W3C//DTD SVG 1.1//EN" "http://www.w3.org/Graphics/SVG/1.1/DTD/svg11.dtd" [
	<!ENTITY ns_flows "http://ns.adobe.com/Flows/1.0/">
]><svg xmlns="http://www.w3.org/2000/svg" width="480" height="410" viewBox="0 0.021 480 410" overflow="visible"><path fill-rule="evenodd" clip-rule="evenodd" fill="#86888B" d="M2.652 67.402V55.965h1.33v11.437H2.65zm9.682 0v-5.545c0-.7-.157-1.22-.478-1.565-.317-.344-.815-.515-1.494-.515-.897 0-1.554.244-1.972.726-.418.487-.626 1.286-.626 2.403v4.496H6.466v-8.57H7.52l.212 1.17h.063c.266-.422.64-.75 1.12-.982a3.617 3.617 0 0 1 1.603-.348c1.034 0 1.81.248 2.332.747.522.496.78 1.292.78 2.387V67.4h-1.296zm6.933.16c-1.242 0-2.203-.38-2.884-1.146-.68-.766-1.02-1.847-1.02-3.243 0-1.437.345-2.545 1.036-3.326.69-.783 1.672-1.175 2.95-1.175.413 0 .823.045 1.237.132.412.09.735.194.97.315l-.4 1.1a6.42 6.42 0 0 0-.94-.284 4.305 4.305 0 0 0-.897-.112c-1.742 0-2.61 1.11-2.61 3.33 0 1.053.21 1.863.634 2.426.426.565 1.054.846 1.89.846.714 0 1.447-.156 2.198-.463v1.155c-.574.294-1.295.444-2.165.444zm7.362 0c-1.27 0-2.268-.386-3-1.158-.735-.772-1.1-1.845-1.1-3.218 0-1.383.34-2.48 1.02-3.294.68-.814 1.593-1.22 2.74-1.22 1.075 0 1.926.352 2.55 1.06.627.707.94 1.64.94 2.796v.82h-5.905c.026 1.008.28 1.77.762 2.295.482.52 1.16.783 2.04.783.92 0 1.833-.193 2.735-.58v1.158c-.46.2-.895.342-1.303.43-.408.087-.903.127-1.48.127zm-.354-7.8c-.69 0-1.236.224-1.646.672-.41.445-.648 1.066-.722 1.86h4.48c0-.82-.182-1.447-.546-1.88-.367-.437-.888-.653-1.565-.653zm9.25 7.8a3.71 3.71 0 0 1-1.53-.31 2.86 2.86 0 0 1-1.162-.95h-.093c.063.5.094.974.094 1.423v3.522h-1.297V58.833h1.055l.18 1.168h.062c.334-.467.724-.806 1.166-1.014.445-.21.953-.313 1.526-.313 1.138 0 2.015.39 2.635 1.167.62.776.928 1.865.928 3.27 0 1.41-.315 2.503-.94 3.283-.632.78-1.5 1.168-2.62 1.168zm-.188-7.785c-.876 0-1.51.244-1.902.726-.392.487-.592 1.257-.603 2.317v.29c0 1.204.2 2.065.603 2.584.402.52 1.047.78 1.933.78.74 0 1.322-.3 1.742-.9.418-.6.628-1.426.628-2.48 0-1.07-.21-1.89-.627-2.46-.42-.57-1.013-.857-1.774-.857zm8.325 6.713a4.342 4.342 0 0 0 1.173-.158v.996a2.42 2.42 0 0 1-.623.168 4.46 4.46 0 0 1-.74.066c-1.657 0-2.484-.873-2.484-2.622v-5.1h-1.23v-.624l1.23-.54.547-1.83h.75v1.987h2.488v1.008h-2.488v5.046c0 .518.123.912.368 1.19.246.275.583.415 1.01.415zm3.726.912h-1.297v-8.57h1.297v8.57zm-1.407-10.9c0-.295.073-.51.22-.65a.764.764 0 0 1 .548-.207c.208 0 .39.07.54.21.15.142.226.358.226.648 0 .294-.075.514-.226.655a.753.753 0 0 1-.54.217.747.747 0 0 1-.546-.217c-.147-.14-.22-.36-.22-.655zm11.103 6.607c0 1.397-.352 2.49-1.055 3.275-.704.785-1.675 1.176-2.916 1.176-.767 0-1.45-.177-2.044-.54-.59-.36-1.05-.876-1.372-1.55-.327-.67-.486-1.46-.486-2.362 0-1.4.35-2.49 1.05-3.27.697-.78 1.667-1.168 2.906-1.168 1.202 0 2.15.398 2.86 1.196.707.798 1.06 1.88 1.06 3.24zm-6.53 0c0 1.093.218 1.93.657 2.502.44.573 1.08.86 1.932.86.85 0 1.496-.286 1.936-.857.44-.57.66-1.407.66-2.507 0-1.09-.22-1.918-.66-2.483-.44-.567-1.09-.85-1.95-.85-.852 0-1.493.278-1.926.836-.432.56-.648 1.393-.648 2.497zm14.22 4.29v-5.544c0-.7-.16-1.22-.48-1.565-.316-.343-.818-.514-1.494-.514-.897 0-1.554.244-1.972.726-.418.487-.625 1.286-.625 2.403V67.4h-1.298v-8.57h1.056l.21 1.17h.064c.267-.42.638-.75 1.118-.98a3.623 3.623 0 0 1 1.605-.35c1.033 0 1.81.25 2.33.748.525.497.783 1.293.783 2.388V67.4h-1.297zM9.9 87.9c0 1.154-.396 2.047-1.183 2.668-.79.62-1.92.936-3.39.936H3.98v4.5H2.653V84.568h2.964c2.856 0 4.285 1.11 4.285 3.332zm-5.92 2.466h1.197c1.178 0 2.03-.19 2.56-.57.525-.38.79-.993.79-1.83 0-.756-.25-1.32-.744-1.69-.496-.37-1.268-.556-2.317-.556H3.98v4.646zm11.57-3.093c.38 0 .722.034 1.023.095l-.178 1.21a4.45 4.45 0 0 0-.94-.12c-.692 0-1.284.283-1.78.845-.49.564-.734 1.265-.734 2.104v4.598h-1.3v-8.57h1.074l.148 1.582h.064c.318-.558.7-.986 1.15-1.29.447-.3.938-.454 1.477-.454zm5.473 8.892c-1.267 0-2.267-.387-2.998-1.16-.734-.77-1.1-1.844-1.1-3.217 0-1.382.34-2.48 1.02-3.293.68-.815 1.593-1.222 2.742-1.222 1.073 0 1.925.353 2.55 1.06.624.707.94 1.64.94 2.796v.82H18.27c.027 1.006.28 1.77.762 2.294.483.52 1.16.78 2.04.78.92 0 1.833-.19 2.735-.577v1.16c-.458.2-.893.342-1.3.428a7.33 7.33 0 0 1-1.484.13zm-.352-7.8c-.687 0-1.234.223-1.642.67-.412.447-.652 1.066-.724 1.86h4.48c0-.818-.182-1.444-.548-1.88-.366-.435-.885-.65-1.564-.65zm11.1 6.49h-.07c-.6.874-1.498 1.31-2.69 1.31-1.12 0-1.995-.385-2.62-1.15-.62-.767-.935-1.86-.935-3.27 0-1.416.313-2.513.94-3.296.626-.784 1.498-1.177 2.613-1.177 1.163 0 2.054.422 2.676 1.27h.102l-.054-.622-.032-.6v-3.49h1.298v12.175h-1.054l-.173-1.15zm-2.6.22c.888 0 1.53-.24 1.933-.724.397-.48.596-1.26.596-2.334v-.27c0-1.217-.203-2.084-.606-2.602-.405-.52-1.052-.78-1.938-.78-.76 0-1.343.296-1.75.888-.403.593-.605 1.428-.605 2.51 0 1.094.2 1.918.604 2.477.4.557.992.84 1.767.84zm9.743 1.09c-1.268 0-2.265-.387-2.998-1.16-.735-.77-1.1-1.844-1.1-3.217 0-1.382.34-2.48 1.02-3.293.68-.815 1.594-1.222 2.74-1.222 1.074 0 1.927.353 2.552 1.06.624.707.94 1.64.94 2.796v.82H36.16c.026 1.006.28 1.77.76 2.294.483.52 1.16.78 2.04.78.92 0 1.834-.19 2.737-.577v1.16c-.46.2-.895.342-1.304.428-.408.086-.9.13-1.48.13zm-.353-7.8c-.69 0-1.237.223-1.645.67-.41.447-.652 1.066-.723 1.86h4.48c0-.818-.183-1.444-.548-1.88-.366-.435-.887-.65-1.565-.65zm10.79 5.304c0 .796-.3 1.41-.892 1.846-.595.433-1.428.65-2.504.65-1.135-.002-2.02-.182-2.66-.542V94.42c.415.207.855.372 1.328.494.47.118.926.178 1.365.178.677 0 1.197-.11 1.563-.326.366-.216.547-.545.547-.988 0-.334-.143-.62-.435-.858-.288-.237-.85-.517-1.692-.84-.798-.3-1.364-.56-1.7-.78-.337-.22-.59-.473-.752-.755-.166-.28-.245-.616-.245-1.01 0-.7.284-1.25.852-1.655.57-.402 1.348-.607 2.338-.607.92 0 1.824.187 2.705.565l-.46 1.056c-.86-.354-1.64-.53-2.338-.53-.616 0-1.08.095-1.394.287-.31.197-.47.46-.47.8 0 .23.06.425.177.59.116.16.307.314.568.46.26.145.763.36 1.504.632 1.016.374 1.702.746 2.06 1.12.36.378.537.85.537 1.42zm2.95 2.334h-1.297v-8.57H52.3v8.57zm-1.405-10.9c0-.294.07-.512.217-.65.148-.14.33-.21.55-.21.206 0 .388.07.54.21.15.143.225.36.225.65 0 .294-.074.514-.226.656a.752.752 0 0 1-.54.217.75.75 0 0 1-.547-.216c-.146-.14-.218-.36-.218-.653zm10.72 2.33v.822l-1.586.186c.143.18.273.422.39.716s.17.623.17.995c0 .84-.287 1.508-.86 2.007-.575.5-1.36.75-2.363.75-.257 0-.494-.02-.72-.06-.555.29-.83.66-.83 1.102a.56.56 0 0 0 .29.52c.195.113.526.17.994.17h1.52c.93 0 1.64.194 2.14.586.497.39.745.96.745 1.704 0 .947-.38 1.67-1.14 2.167-.765.5-1.875.747-3.334.747-1.12 0-1.987-.207-2.593-.623-.608-.418-.913-1.007-.913-1.766 0-.522.17-.973.503-1.355.334-.378.804-.637 1.407-.77-.22-.1-.403-.253-.55-.462a1.23 1.23 0 0 1-.226-.73 1.4 1.4 0 0 1 .25-.822c.17-.234.432-.46.79-.68a2.337 2.337 0 0 1-1.083-.93 2.77 2.77 0 0 1-.418-1.505c0-.936.282-1.66.844-2.166.565-.512 1.363-.766 2.396-.766.448 0 .852.056 1.212.163h2.964zm-6.835 10.01c0 .462.194.814.588 1.056.39.235.95.356 1.68.356 1.09 0 1.9-.163 2.423-.488.523-.323.788-.768.788-1.323 0-.465-.145-.784-.434-.963-.285-.18-.825-.27-1.616-.27H56.65c-.59 0-1.05.142-1.378.422s-.494.684-.494 1.21zm.704-7.267c0 .6.17 1.054.508 1.363.34.305.81.46 1.418.46 1.267 0 1.9-.618 1.9-1.848 0-1.29-.64-1.933-1.924-1.933-.612 0-1.08.163-1.41.49-.328.33-.492.82-.492 1.465zm13.303 5.83V90.46c0-.7-.156-1.22-.477-1.566-.318-.344-.818-.515-1.495-.515-.897 0-1.555.242-1.97.724-.42.486-.628 1.287-.628 2.403v4.497H62.92v-8.57h1.054l.21 1.17h.065a2.62 2.62 0 0 1 1.12-.982 3.605 3.605 0 0 1 1.602-.35c1.033 0 1.81.25 2.33.748.525.5.784 1.297.784 2.39v5.595h-1.3zM9.9 116.5c0 1.157-.396 2.05-1.183 2.67-.79.622-1.92.935-3.39.935H3.98v4.5H2.653V113.17h2.964c2.856 0 4.285 1.112 4.285 3.333zm-5.92 2.467h1.197c1.178 0 2.03-.19 2.56-.57.525-.38.79-.99.79-1.83 0-.754-.25-1.318-.744-1.69-.496-.37-1.268-.555-2.317-.555H3.98v4.645zm11.57-3.09c.38 0 .722.03 1.023.092l-.178 1.207a4.554 4.554 0 0 0-.94-.116c-.692 0-1.284.28-1.78.844-.49.563-.734 1.265-.734 2.104v4.597h-1.3v-8.57h1.074l.148 1.583h.064c.318-.558.7-.99 1.15-1.29.447-.3.938-.454 1.477-.454zm9.25 4.437c0 1.4-.35 2.49-1.054 3.276-.704.784-1.676 1.177-2.917 1.177-.768 0-1.45-.18-2.045-.54-.592-.36-1.053-.878-1.374-1.55-.326-.672-.486-1.46-.486-2.364 0-1.398.35-2.487 1.05-3.268.697-.78 1.668-1.17 2.907-1.17 1.2 0 2.15.398 2.86 1.198.71.798 1.06 1.88 1.06 3.24zm-6.53 0c0 1.094.22 1.93.657 2.504.44.574 1.08.86 1.933.86.85 0 1.495-.286 1.936-.858.44-.57.66-1.406.66-2.506 0-1.09-.22-1.918-.66-2.483-.44-.564-1.092-.847-1.95-.847-.854 0-1.495.278-1.927.836-.433.556-.65 1.39-.65 2.495zm11.12 3.38c.23 0 .45-.016.664-.05a4.11 4.11 0 0 0 .507-.108v.996c-.14.066-.344.124-.62.17-.27.044-.52.065-.74.065-1.657 0-2.485-.872-2.485-2.622v-5.1h-1.228v-.624l1.228-.54.547-1.83h.753v1.988H30.5v1.007h-2.487v5.045c0 .516.12.912.368 1.19.248.276.584.413 1.01.413zm9.826-3.38c0 1.4-.353 2.49-1.055 3.276-.702.784-1.674 1.177-2.915 1.177-.768 0-1.448-.18-2.043-.54-.59-.36-1.05-.878-1.374-1.55-.326-.672-.485-1.46-.485-2.364 0-1.398.35-2.487 1.05-3.268.696-.78 1.668-1.17 2.907-1.17 1.202 0 2.152.398 2.86 1.198.706.798 1.06 1.88 1.06 3.24zm-6.53 0c0 1.094.218 1.93.657 2.504.437.574 1.08.86 1.932.86.85 0 1.495-.286 1.937-.858.44-.57.658-1.406.658-2.506 0-1.09-.218-1.918-.658-2.483-.442-.564-1.093-.847-1.954-.847-.85 0-1.492.278-1.924.836-.432.556-.65 1.39-.65 2.495h.002zm11.12 3.38c.228 0 .45-.016.664-.05.213-.035.38-.07.506-.108v.996a2.47 2.47 0 0 1-.622.17c-.27.044-.52.065-.74.065-1.656 0-2.485-.872-2.485-2.622v-5.1H39.9v-.624l1.23-.54.546-1.83h.75v1.988h2.49v1.007h-2.49v5.045c0 .516.123.912.37 1.19.245.276.58.413 1.01.413zm1.065-7.657h1.393l1.88 4.885c.41 1.117.667 1.922.767 2.416h.06c.07-.267.21-.72.427-1.364.216-.643.924-2.622 2.125-5.937h1.39l-3.685 9.755c-.364.966-.79 1.65-1.277 2.054-.49.402-1.087.605-1.797.605-.396 0-.788-.043-1.172-.13v-1.035c.287.062.608.094.96.094.894 0 1.533-.503 1.91-1.5l.48-1.223-3.46-8.62zm12.966 8.73c-.558 0-1.07-.105-1.53-.31a2.855 2.855 0 0 1-1.16-.95h-.094c.06.5.094.973.094 1.423v3.52h-1.298v-12.414H54.9l.182 1.17h.06c.334-.47.725-.81 1.168-1.018.443-.21.95-.312 1.525-.312 1.138 0 2.015.39 2.636 1.167.618.777.927 1.866.927 3.27 0 1.41-.315 2.505-.943 3.284-.63.78-1.5 1.17-2.618 1.17zm-.187-7.786c-.877 0-1.51.246-1.9.728-.395.486-.594 1.26-.605 2.318v.288c0 1.205.2 2.066.604 2.586.4.52 1.046.778 1.93.778.74 0 1.323-.298 1.743-.9.42-.6.63-1.426.63-2.48 0-1.068-.21-1.888-.63-2.46-.42-.57-1.012-.857-1.774-.857zm6.853 7.627h-1.297v-8.57h1.297v8.57zm-1.405-10.9c0-.294.07-.51.217-.65s.33-.207.548-.207c.21 0 .39.067.54.21.153.14.227.357.227.647 0 .294-.075.515-.227.657a.763.763 0 0 1-.54.215.764.764 0 0 1-.55-.217c-.145-.142-.216-.363-.216-.657zm9.57 10.9v-5.545c0-.698-.155-1.22-.476-1.563-.316-.345-.816-.517-1.494-.517-.898 0-1.553.245-1.97.727-.42.486-.627 1.288-.627 2.403v4.496h-1.3v-8.57h1.056l.21 1.17h.066a2.66 2.66 0 0 1 1.12-.984 3.617 3.617 0 0 1 1.603-.347c1.034 0 1.81.25 2.33.747.526.496.783 1.294.783 2.388v5.594h-1.3zm10.525-8.57v.82l-1.585.188c.144.183.275.424.39.716.114.296.17.627.17.998 0 .84-.285 1.51-.86 2.01-.573.497-1.36.748-2.363.748a4.12 4.12 0 0 1-.72-.06c-.553.29-.827.658-.827 1.102a.56.56 0 0 0 .288.52c.194.112.526.17.996.17H80.2c.927 0 1.64.19 2.14.586.496.39.746.957.746 1.702 0 .95-.38 1.673-1.14 2.17-.764.5-1.875.746-3.336.746-1.12 0-1.986-.206-2.592-.624-.61-.416-.912-1.006-.912-1.764 0-.522.167-.972.5-1.354.335-.378.805-.638 1.408-.772-.22-.1-.404-.253-.55-.46a1.235 1.235 0 0 1-.224-.73c0-.315.085-.588.25-.823.17-.235.43-.462.79-.68a2.345 2.345 0 0 1-1.084-.932 2.757 2.757 0 0 1-.42-1.503c0-.936.285-1.66.848-2.168.563-.51 1.363-.764 2.394-.764.45 0 .852.053 1.213.16h2.963zm-6.837 10.01c0 .46.195.814.588 1.055.39.238.95.358 1.68.358 1.09 0 1.9-.162 2.424-.49.523-.32.786-.765.786-1.32 0-.465-.142-.784-.43-.963-.288-.18-.827-.27-1.62-.27h-1.556c-.59 0-1.05.14-1.377.422-.33.28-.494.68-.494 1.207zm.706-7.268c0 .6.167 1.054.506 1.36s.813.464 1.418.464c1.268 0 1.902-.62 1.902-1.85 0-1.288-.64-1.932-1.926-1.932-.61 0-1.08.167-1.41.495-.327.33-.49.818-.49 1.463z"/><path fill-rule="evenodd" clip-rule="evenodd" fill="#6E6F71" d="M5.67 3.083c1.512 0 2.61.294 3.302.88.688.586 1.034 1.487 1.034 2.702 0 1.215-.354 2.104-1.062 2.668-.71.563-1.79.843-3.245.843H4.39v2.744H2.196V3.083H5.67zm.2 5.194c.73 0 1.227-.148 1.49-.443.263-.296.394-.728.394-1.294 0-.568-.17-.972-.513-1.212-.34-.238-.873-.36-1.595-.36H4.392v3.31H5.87zM19.292 6.35c0 1.575-.624 2.593-1.872 3.053l2.493 3.517H17.21l-2.18-3.138h-1.52v3.138h-2.195V3.083h3.73c1.528 0 2.617.26 3.27.775.652.517.977 1.346.977 2.49zm-4.178 1.533c.75 0 1.26-.122 1.532-.365.273-.246.41-.633.41-1.163s-.142-.893-.423-1.09c-.282-.196-.774-.296-1.478-.296H13.51V7.88h1.605zm13.45.062c0-.876-.28-1.625-.843-2.244-.562-.617-1.254-.926-2.075-.926-.82 0-1.51.31-2.075.928-.56.62-.844 1.37-.844 2.245 0 .878.283 1.624.845 2.238.566.614 1.256.92 2.078.92.82.002 1.512-.306 2.075-.92.564-.614.844-1.36.844-2.238zm.747 3.617c-.994.972-2.22 1.458-3.672 1.458-1.455 0-2.68-.486-3.673-1.458-.996-.97-1.492-2.178-1.492-3.623 0-1.446.496-2.653 1.492-3.626.994-.97 2.218-1.456 3.672-1.456 1.453 0 2.677.485 3.672 1.455.993.973 1.49 2.18 1.49 3.623 0 1.446-.497 2.653-1.49 3.624zm6.417-8.48c1.755 0 3.1.43 4.04 1.29.938.86 1.406 2.05 1.406 3.58 0 1.53-.457 2.74-1.37 3.63-.916.894-2.312 1.338-4.188 1.338h-3.363V3.083h3.475zm.112 7.895c1.003 0 1.776-.252 2.315-.758.54-.51.81-1.245.81-2.21 0-.968-.27-1.71-.81-2.23-.54-.523-1.367-.783-2.484-.783h-1.223v5.98h1.392zm9.427-.596c.366.455.86.683 1.478.683s1.11-.227 1.47-.68c.362-.456.543-1.077.543-1.866V3.083h2.194v5.503c0 1.426-.395 2.522-1.182 3.287-.788.764-1.797 1.147-3.026 1.147-1.23 0-2.24-.386-3.032-1.155-.793-.77-1.19-1.862-1.19-3.28v-5.5h2.196v5.432c0 .79.182 1.41.548 1.865zm12.075.598c1.078 0 1.96-.425 2.645-1.28l1.407 1.45c-1.117 1.258-2.432 1.886-3.947 1.886-1.515 0-2.763-.478-3.744-1.435-.98-.958-1.47-2.166-1.47-3.625 0-1.46.5-2.677 1.498-3.65 1-.978 2.223-1.466 3.667-1.466 1.614 0 2.964.614 4.053 1.844L60.088 6.25c-.695-.862-1.56-1.294-2.59-1.294-.826 0-1.533.27-2.118.81-.586.54-.88 1.264-.88 2.18 0 .914.276 1.65.83 2.202a2.74 2.74 0 0 0 2.013.83zm9.54-5.993v7.936h-2.196V4.985H61.9v-1.9h7.768v1.9h-2.786zM5.67 17.148c1.756 0 3.103.43 4.04 1.288.94.858 1.408 2.052 1.408 3.58 0 1.53-.458 2.74-1.373 3.633-.913.89-2.31 1.335-4.186 1.335H2.194v-9.838H5.67zm.114 7.896c1.005 0 1.776-.253 2.316-.76.54-.507.81-1.244.81-2.21 0-.967-.27-1.708-.81-2.23-.54-.52-1.37-.78-2.484-.78H4.392v5.98h1.392zm6.824-7.896h2.196v9.838h-2.196v-9.838zm7.374 1.704c-.366 0-.654.086-.864.26-.212.173-.317.404-.317.69s.13.514.388.682c.26.17.855.37 1.788.598.932.23 1.657.575 2.174 1.034.514.46.773 1.13.773 2.013 0 .88-.332 1.595-.993 2.145-.662.547-1.532.822-2.61.822-1.557 0-2.96-.577-4.208-1.73l1.31-1.606c1.06.93 2.04 1.395 2.94 1.395.403 0 .72-.087.95-.26a.84.84 0 0 0 .345-.705.825.825 0 0 0-.366-.703c-.242-.172-.725-.348-1.45-.527-1.142-.27-1.98-.626-2.51-1.062-.53-.436-.794-1.12-.794-2.054 0-.934.335-1.654 1.005-2.16.67-.507 1.51-.76 2.513-.76a6.02 6.02 0 0 1 1.97.338c.658.224 1.23.544 1.718.957l-1.11 1.6c-.856-.646-1.736-.97-2.647-.97zm9.92 6.192c1.08 0 1.96-.427 2.646-1.282l1.407 1.45c-1.116 1.257-2.43 1.886-3.947 1.886-1.516 0-2.762-.478-3.743-1.436-.98-.956-1.47-2.165-1.47-3.622 0-1.46.5-2.676 1.497-3.653 1-.975 2.222-1.463 3.667-1.463 1.61 0 2.96.615 4.05 1.843l-1.365 1.55c-.693-.865-1.557-1.295-2.59-1.295-.825 0-1.53.27-2.116.808-.59.54-.88 1.267-.88 2.18 0 .915.276 1.65.83 2.203.552.554 1.223.83 2.012.83zm12.693-3.033c0-.875-.28-1.624-.844-2.242-.562-.62-1.254-.93-2.074-.93-.82 0-1.512.31-2.076.93-.563.618-.845 1.367-.845 2.244 0 .878.282 1.624.844 2.238.562.616 1.253.923 2.074.923.82 0 1.512-.306 2.076-.922.564-.613.845-1.36.845-2.236zm.746 3.62c-.993.97-2.216 1.455-3.67 1.455-1.455 0-2.678-.487-3.674-1.456-.994-.97-1.492-2.18-1.492-3.625s.497-2.652 1.492-3.624c.996-.97 2.22-1.455 3.673-1.455 1.454 0 2.677.485 3.672 1.456.996.973 1.492 2.18 1.492 3.625s-.496 2.653-1.49 3.624zm6.348-2.218l2.504-6.262h2.38l-3.954 9.838H48.76l-3.957-9.838h2.38l2.504 6.263zM62.42 17.15v1.957h-4.896v2.025h4.406v1.873h-4.406v2.04h5.052v1.943H55.33V17.15h7.09zm9.683 3.266c0 1.576-.624 2.593-1.87 3.054l2.488 3.518h-2.697l-2.183-3.14h-1.52v3.14h-2.196V17.15h3.73c1.528 0 2.62.26 3.27.775.654.516.98 1.346.98 2.49zm-4.18 1.533c.75 0 1.262-.123 1.535-.367.272-.242.407-.63.407-1.16 0-.53-.14-.892-.422-1.09-.28-.197-.773-.295-1.477-.295H66.32v2.912h1.603zm10.006 5.04H75.73V23.1l-3.405-5.954h2.38l2.123 3.66 2.125-3.66h2.378L77.93 23.1v3.884z"/><path fill-rule="evenodd" clip-rule="evenodd" fill="#86888B" d="M146.528 16.316c-.49 0-.876-.068-1.16-.21v-1.132a4.28 4.28 0 0 0 1.16.158c.515 0 .908-.158 1.177-.47.266-.313.403-.764.403-1.355V1.867h1.33v11.328c0 .99-.25 1.76-.752 2.305-.5.545-1.22.816-2.158.816zm6.514-11.58v5.56c0 .696.156 1.22.477 1.565.316.346.815.517 1.494.517.897 0 1.55-.247 1.968-.735.413-.49.62-1.29.62-2.402V4.735h1.3v8.57h-1.07l-.188-1.145h-.073c-.263.42-.634.744-1.11.97-.47.222-1.006.335-1.61.335-1.046 0-1.826-.248-2.347-.742-.518-.497-.776-1.29-.776-2.38V4.735h1.314zm14.023 8.57V7.76c0-.7-.157-1.22-.478-1.566-.318-.344-.818-.515-1.495-.515-.898 0-1.553.24-1.97.725-.42.486-.627 1.286-.627 2.404v4.494h-1.3v-8.57h1.056l.213 1.17h.064c.268-.423.638-.75 1.118-.983a3.64 3.64 0 0 1 1.605-.346c1.033 0 1.81.248 2.33.747.524.498.782 1.297.782 2.39v5.594h-1.297zM215.236 16.316c-.49 0-.876-.068-1.158-.21v-1.132c.37.104.756.158 1.158.158.515 0 .91-.158 1.178-.47.266-.313.402-.764.402-1.355V1.867h1.33v11.328c0 .99-.25 1.76-.752 2.305-.5.545-1.22.816-2.158.816zm6.514-11.58v5.56c0 .696.157 1.22.478 1.565.317.346.817.517 1.494.517.898 0 1.552-.247 1.97-.735.412-.49.62-1.29.62-2.402V4.735h1.298v8.57h-1.07l-.187-1.145h-.072c-.263.42-.633.744-1.107.97-.47.222-1.008.335-1.615.335-1.043 0-1.823-.248-2.344-.742-.52-.497-.776-1.29-.776-2.38V4.735h1.313zm9.453 8.57h-1.298V1.13h1.298v12.175zM289.984 13.305l-1.42-3.636h-4.59l-1.405 3.634h-1.348l4.52-11.486h1.12l4.498 11.485h-1.376zm-1.834-4.837l-1.335-3.543c-.17-.45-.35-1-.53-1.65-.117.498-.276 1.05-.493 1.65l-1.347 3.543h3.705zm5.353-3.733v5.56c0 .697.153 1.22.477 1.566.318.346.816.517 1.495.517.894 0 1.55-.247 1.966-.735.415-.49.626-1.29.626-2.402V4.735h1.294v8.57h-1.07l-.187-1.145h-.074c-.26.42-.633.744-1.11.97-.467.222-1.006.335-1.61.335-1.044 0-1.824-.248-2.35-.742-.512-.497-.773-1.29-.773-2.38V4.735h1.315zm15.167 0v.823l-1.583.187c.142.18.274.42.39.716.113.294.17.625.17.998 0 .837-.286 1.507-.857 2.007-.578.498-1.362.75-2.364.75a4.17 4.17 0 0 1-.72-.062c-.558.29-.827.66-.827 1.103 0 .234.092.408.283.52.196.112.525.168.997.168h1.517c.927 0 1.64.196 2.14.588.5.39.748.96.748 1.704 0 .948-.38 1.67-1.145 2.168-.763.498-1.87.747-3.333.747-1.118 0-1.987-.207-2.59-.623-.61-.417-.914-1.007-.914-1.767 0-.52.17-.97.504-1.353.33-.38.8-.64 1.404-.773a1.4 1.4 0 0 1-.55-.46 1.225 1.225 0 0 1-.22-.73c0-.315.084-.586.25-.822.17-.235.427-.462.79-.682a2.35 2.35 0 0 1-1.084-.93 2.774 2.774 0 0 1-.42-1.503c0-.938.282-1.66.845-2.17.567-.51 1.363-.762 2.395-.762.452 0 .854.053 1.214.16h2.96zm-6.836 10.01c0 .46.197.813.588 1.053.388.24.95.358 1.68.358 1.092 0 1.898-.163 2.423-.488.524-.323.79-.767.79-1.32 0-.466-.144-.787-.435-.966-.287-.178-.822-.27-1.617-.27h-1.558c-.59 0-1.05.142-1.38.422-.327.28-.49.685-.49 1.21zm.704-7.27c0 .602.17 1.056.51 1.364s.81.46 1.415.46c1.272 0 1.903-.618 1.903-1.848 0-1.29-.642-1.934-1.924-1.934-.615 0-1.082.165-1.41.494s-.494.817-.494 1.462zM357.297 10.267c0 1.007-.365 1.79-1.092 2.355-.73.564-1.723.843-2.98.843-1.356 0-2.394-.176-3.125-.526v-1.286c.47.197.98.355 1.532.47.55.114 1.1.172 1.64.172.892 0 1.56-.17 2.004-.505.452-.333.673-.8.673-1.4 0-.396-.08-.72-.24-.973-.16-.254-.424-.486-.794-.703-.376-.212-.944-.456-1.707-.726-1.06-.382-1.823-.833-2.28-1.354-.456-.52-.684-1.202-.684-2.043 0-.88.328-1.582.99-2.103.67-.522 1.544-.782 2.63-.782 1.14 0 2.183.208 3.138.624l-.414 1.155c-.942-.398-1.86-.595-2.755-.595-.7 0-1.25.15-1.648.454-.398.304-.593.723-.593 1.262 0 .398.074.72.216.973.15.254.394.486.738.696.35.212.88.444 1.595.7 1.197.428 2.025.887 2.475 1.377.45.49.68 1.128.68 1.91zm5.304 3.198c-1.264 0-2.266-.386-2.996-1.16-.733-.77-1.098-1.844-1.098-3.217 0-1.38.34-2.48 1.017-3.293.684-.815 1.595-1.22 2.746-1.22 1.07 0 1.922.352 2.547 1.06.62.707.938 1.638.938 2.796v.824h-5.903c.028 1.006.276 1.768.758 2.292.484.52 1.16.783 2.04.783a6.88 6.88 0 0 0 2.736-.58v1.16c-.456.2-.89.34-1.304.427-.408.087-.9.13-1.48.13zm-.353-7.8c-.688 0-1.234.222-1.642.67-.41.45-.653 1.067-.722 1.86h4.48c0-.817-.182-1.445-.548-1.88-.366-.436-.89-.65-1.568-.65zm9.254 7.8c-.562 0-1.07-.104-1.53-.31a2.913 2.913 0 0 1-1.16-.95h-.097c.064.498.095.975.095 1.423v3.52h-1.298V4.736h1.054l.18 1.17h.063c.334-.47.72-.81 1.167-1.02.444-.206.948-.31 1.526-.31 1.135 0 2.014.39 2.634 1.167.615.777.927 1.865.927 3.27 0 1.41-.316 2.504-.94 3.285-.63.778-1.5 1.168-2.62 1.168zm-.184-7.786c-.88 0-1.517.24-1.903.725-.393.486-.594 1.257-.605 2.317v.29c0 1.203.202 2.066.605 2.582.398.523 1.043.782 1.935.782.735 0 1.32-.3 1.736-.9.42-.602.632-1.427.632-2.48 0-1.07-.212-1.89-.632-2.46-.417-.57-1.01-.858-1.77-.858h.002zM428.693 7.573c0 1.83-.46 3.27-1.387 4.32-.922 1.048-2.21 1.572-3.863 1.572-1.685 0-2.984-.516-3.894-1.547-.92-1.03-1.38-2.482-1.38-4.358 0-1.864.46-3.306 1.38-4.332.92-1.024 2.222-1.536 3.912-1.536 1.645 0 2.925.52 3.85 1.564.92 1.044 1.38 2.483 1.38 4.317zm-9.113-.002c0 1.55.328 2.725.99 3.526.663.8 1.622 1.202 2.873 1.202 1.272 0 2.232-.4 2.878-1.198.644-.798.966-1.975.966-3.53 0-1.538-.318-2.704-.964-3.5-.64-.795-1.594-1.193-2.857-1.193-1.272 0-2.23.4-2.894 1.2-.66.802-.99 1.966-.99 3.494zm14.435 5.896c-1.24 0-2.198-.382-2.882-1.145-.678-.765-1.018-1.847-1.018-3.242 0-1.438.345-2.546 1.033-3.327.696-.782 1.675-1.174 2.952-1.174.414 0 .822.044 1.24.133.41.087.732.19.965.313l-.397 1.104c-.287-.115-.6-.21-.94-.286a4.228 4.228 0 0 0-.9-.11c-1.737 0-2.613 1.11-2.613 3.33 0 1.05.213 1.86.638 2.425.428.564 1.054.844 1.89.844.716 0 1.447-.156 2.2-.463v1.153c-.577.296-1.298.445-2.168.445zm6.514-1.073c.225 0 .45-.016.66-.05.213-.037.38-.07.51-.107v.996c-.144.067-.35.123-.627.168a4.403 4.403 0 0 1-.735.067c-1.66 0-2.487-.873-2.487-2.622v-5.1h-1.23V5.12l1.23-.542.547-1.83h.75v1.987h2.487v1.01h-2.487v5.042c0 .518.123.913.365 1.19.246.275.584.415 1.014.415z"/><path fill="#BDBEC0" d="M138.344.217c0-.11.09-.196.196-.196.107 0 .195.09.195.198v402.59c0 .11-.088.196-.195.196a.196.196 0 0 1-.196-.195V.217z"/><path fill="#06C1E5" d="M479.876 36.56c.096 0 .17.086.17.193 0 .108-.074.197-.17.197H.502c-.095 0-.17-.09-.17-.197 0-.107.075-.194.17-.194h479.374z"/><path fill="#BDBEC0" d="M207.253.217a.195.195 0 0 1 .39 0V402.81a.195.195 0 0 1-.39 0V.22zM275.323.217c0-.11.06-.196.136-.196.072 0 .133.09.133.198v402.59c0 .11-.06.196-.135.196-.076 0-.137-.087-.137-.195V.217zM343.545 402.787c0 .11-.03.195-.067.195s-.065-.086-.146-.236V.154l.08.042c0-.11.03-.196.067-.196s.064.087.064.196M412.313.217c0-.11.09-.196.195-.196a.2.2 0 0 1 .197.198v402.59a.197.197 0 0 1-.393 0V.22z"/><path fill="#06C1E5" d="M256.202 6.373c0-.218.175-.39.39-.39s.39.172.39.39v3.907a.39.39 0 0 1-.78 0V6.373zm.78 394.77c0 .212-.173.387-.39.387s-.39-.175-.39-.388v-3.91a.39.39 0 0 1 .78 0v3.91zm0-7.82a.39.39 0 0 1-.78 0v-3.908a.39.39 0 0 1 .78 0v3.91zm0-7.816c0 .216-.173.39-.39.39s-.39-.174-.39-.39V381.6a.39.39 0 0 1 .78 0v3.906zm0-7.818a.39.39 0 0 1-.78 0v-3.91a.39.39 0 0 1 .78 0v3.91zm0-7.818a.39.39 0 0 1-.78 0v-3.91a.39.39 0 0 1 .78 0v3.91zm0-7.82a.39.39 0 0 1-.78 0v-3.91a.39.39 0 0 1 .78 0v3.91zm0-7.814c0 .214-.173.388-.39.388s-.39-.174-.39-.39v-3.91a.39.39 0 0 1 .78 0v3.91zm0-7.818c0 .213-.173.388-.39.388s-.39-.175-.39-.388v-3.91a.39.39 0 0 1 .78 0v3.91zm0-7.818a.39.39 0 0 1-.78 0v-3.908a.39.39 0 0 1 .78 0v3.908zm0-7.818c0 .216-.173.39-.39.39s-.39-.174-.39-.39v-3.907a.39.39 0 0 1 .78-.002v3.908zm0-7.82a.39.39 0 0 1-.78 0v-3.906a.39.39 0 0 1 .78 0v3.907zm0-7.818a.39.39 0 0 1-.78 0v-3.903a.39.39 0 0 1 .78 0v3.904zm0-7.814a.39.39 0 0 1-.78 0v-3.908a.39.39 0 0 1 .78 0v3.91-.002zm0-7.818a.39.39 0 0 1-.78 0v-3.908a.39.39 0 0 1 .78 0v3.908zm0-7.818a.39.39 0 0 1-.78 0v-3.907a.39.39 0 0 1 .78 0v3.907zm0-7.817a.39.39 0 0 1-.78 0v-3.907a.39.39 0 0 1 .78 0v3.908zm0-7.816a.39.39 0 0 1-.78 0v-3.91a.39.39 0 0 1 .78 0v3.91zm0-7.818c0 .217-.173.39-.39.39s-.39-.173-.39-.39v-3.91a.39.39 0 0 1 .78 0v3.91zm0-7.817a.39.39 0 0 1-.78 0v-3.91a.39.39 0 0 1 .78 0v3.91zm0-7.82a.39.39 0 0 1-.78 0v-3.907a.39.39 0 0 1 .78 0v3.908zm0-7.816a.39.39 0 0 1-.78 0v-3.907a.39.39 0 0 1 .78 0v3.907zm0-7.818a.39.39 0 0 1-.78 0v-3.907a.39.39 0 0 1 .78 0v3.906zm0-7.815c0 .218-.173.39-.39.39s-.39-.172-.39-.39v-3.91a.39.39 0 0 1 .78 0v3.91zm0-7.817a.39.39 0 0 1-.78 0v-3.908a.39.39 0 0 1 .78 0v3.908zm0-7.817a.39.39 0 0 1-.78 0v-3.91a.39.39 0 0 1 .78 0v3.91zm0-7.817a.39.39 0 0 1-.78 0v-3.91a.39.39 0 0 1 .78 0v3.91zm0-7.818a.39.39 0 0 1-.78 0v-3.91c0-.214.175-.39.39-.39s.39.177.39.39v3.91zm0-7.817c0 .216-.173.39-.39.39s-.39-.174-.39-.39v-3.91c0-.213.175-.39.39-.39s.39.177.39.39v3.91zm0-7.818c0 .217-.173.39-.39.39s-.39-.173-.39-.39v-3.908a.39.39 0 0 1 .78 0v3.907zm0-7.817c0 .218-.173.392-.39.392s-.39-.174-.39-.39v-3.91a.39.39 0 0 1 .78 0v3.91zm0-7.816a.39.39 0 0 1-.78 0v-3.908a.39.39 0 0 1 .78 0v3.907zm0-7.817a.39.39 0 0 1-.78 0v-3.91a.39.39 0 0 1 .78 0v3.91zm0-7.817a.39.39 0 0 1-.78 0v-3.91a.39.39 0 0 1 .78.002v3.908zm0-7.817a.39.39 0 0 1-.78 0v-3.91a.39.39 0 0 1 .78 0v3.91zm0-7.817c0 .216-.173.39-.39.39s-.39-.174-.39-.39v-3.91a.39.39 0 0 1 .78 0v3.91zm0-7.818c0 .216-.173.39-.39.39s-.39-.174-.39-.39v-3.91c0-.214.175-.39.39-.39s.39.176.39.39v3.91zm0-7.816c0 .216-.173.39-.39.39s-.39-.174-.39-.39v-3.91a.39.39 0 0 1 .78 0v3.91zm0-7.818c0 .216-.173.39-.39.39s-.39-.174-.39-.39v-3.908a.39.39 0 0 1 .78 0v3.908zm0-7.817c0 .216-.173.39-.39.39s-.39-.174-.39-.39v-3.91a.39.39 0 0 1 .78 0v3.91zm0-7.818c0 .215-.173.39-.39.39s-.39-.175-.39-.39v-3.91c0-.215.175-.39.39-.39s.39.175.39.39v3.91zm0-7.818c0 .216-.173.39-.39.39s-.39-.174-.39-.39v-3.91a.39.39 0 0 1 .78 0v3.91zm0-7.818c0 .217-.173.39-.39.39s-.39-.173-.39-.39v-3.908a.39.39 0 0 1 .78 0v3.908zm0-7.816c0 .214-.173.388-.39.388s-.39-.174-.39-.39v-3.91c0-.214.175-.39.39-.39s.39.176.39.39v3.91zm0-7.82a.39.39 0 0 1-.78.002v-3.907c0-.216.175-.393.39-.393s.39.177.39.393V65zm0-7.815c0 .216-.173.39-.39.39s-.39-.174-.39-.39v-3.91a.39.39 0 0 1 .78 0v3.91zm0-7.817c0 .216-.173.39-.39.39s-.39-.174-.39-.39v-3.91c0-.214.175-.39.39-.39s.39.176.39.39v3.91zm0-7.818a.39.39 0 0 1-.78 0v-3.91a.39.39 0 0 1 .78 0v3.91zm0-7.818a.39.39 0 0 1-.78 0v-3.91c0-.214.175-.39.39-.39s.39.176.39.39v3.91zm0-7.817a.39.39 0 0 1-.78 0v-3.908a.39.39 0 0 1 .78 0v3.908zm0-7.816a.39.39 0 0 1-.78 0v-3.91a.39.39 0 0 1 .78 0v3.91z"/><path fill-rule="evenodd" clip-rule="evenodd" fill="#86888B" d="M9.107 228.33c0 1.006-.366 1.79-1.095 2.355-.73.566-1.722.843-2.974.843-1.355 0-2.4-.175-3.13-.525v-1.285c.47.2.98.356 1.534.472.553.114 1.1.17 1.645.17.887 0 1.553-.168 2.002-.504.446-.335.67-.8.67-1.402 0-.395-.08-.72-.237-.973-.16-.252-.427-.48-.798-.7-.374-.212-.942-.455-1.704-.726-1.06-.38-1.822-.832-2.28-1.355-.455-.52-.685-1.2-.685-2.043 0-.88.332-1.582.994-2.102.664-.52 1.54-.784 2.63-.784 1.136 0 2.182.21 3.136.627l-.415 1.155c-.943-.397-1.862-.593-2.753-.593-.702 0-1.256.15-1.65.453-.4.305-.596.724-.596 1.26 0 .403.076.722.22.978.146.254.39.484.74.697.346.212.88.443 1.594.7 1.198.426 2.023.887 2.476 1.378.45.487.677 1.125.677 1.908zm2.98 3.04H10.79v-8.57h1.3v8.57zm-1.406-10.9c0-.297.075-.51.22-.652a.765.765 0 0 1 .55-.207c.206 0 .39.07.54.21.15.145.225.36.225.65 0 .295-.074.515-.226.655a.762.762 0 0 1-.54.217.752.752 0 0 1-.55-.216c-.145-.14-.22-.36-.22-.654zm10.723 2.33v.82l-1.586.19c.145.178.276.42.39.714.115.294.17.623.17.994 0 .84-.284 1.51-.86 2.01-.573.496-1.36.748-2.36.748a4.33 4.33 0 0 1-.722-.06c-.553.29-.828.66-.828 1.102 0 .235.097.408.29.522.193.112.525.167.995.167h1.516c.93 0 1.642.195 2.14.588.5.39.748.958.748 1.703 0 .948-.38 1.67-1.14 2.168-.764.498-1.875.748-3.336.748-1.12 0-1.986-.21-2.59-.626-.61-.417-.914-1.006-.914-1.764 0-.52.167-.973.5-1.355.335-.38.805-.64 1.408-.773a1.36 1.36 0 0 1-.55-.46 1.235 1.235 0 0 1-.224-.73c0-.315.084-.59.25-.82.168-.236.43-.465.79-.682a2.367 2.367 0 0 1-1.084-.932 2.767 2.767 0 0 1-.42-1.503c0-.938.285-1.66.848-2.17.563-.508 1.362-.764 2.394-.764.45 0 .852.055 1.213.163h2.96zm-6.838 10.008c0 .46.197.813.588 1.055.39.238.95.357 1.682.357 1.09 0 1.9-.164 2.422-.487.523-.324.787-.766.787-1.322 0-.462-.144-.784-.432-.964-.285-.177-.824-.27-1.617-.27h-1.557c-.59 0-1.05.144-1.377.423-.327.28-.494.684-.494 1.21zm.705-7.266c0 .598.168 1.054.506 1.36.34.307.813.463 1.418.463 1.268 0 1.902-.617 1.902-1.85 0-1.287-.64-1.93-1.925-1.93-.61 0-1.08.163-1.41.49-.325.33-.49.82-.49 1.467zm13.303 5.827v-5.548c0-.7-.158-1.22-.478-1.564-.32-.345-.818-.514-1.495-.514-.897 0-1.555.24-1.97.725-.42.486-.628 1.285-.628 2.4v4.498h-1.298v-8.57h1.054l.212 1.167h.064a2.67 2.67 0 0 1 1.118-.982 3.67 3.67 0 0 1 1.605-.35c1.033 0 1.81.25 2.332.75.52.498.78 1.295.78 2.39v5.594H28.57zm12.335-11.44v7.404c0 1.3-.392 2.328-1.18 3.076-.787.745-1.87 1.118-3.247 1.118-1.374 0-2.44-.376-3.193-1.125-.753-.754-1.128-1.784-1.128-3.1v-7.372h1.33v7.465c0 .955.26 1.686.78 2.2.52.51 1.288.766 2.3.766.966 0 1.71-.254 2.23-.77.52-.514.78-1.25.78-2.21v-7.45h1.33zm6.365 11.597c-.56 0-1.07-.105-1.53-.307a2.888 2.888 0 0 1-1.16-.95h-.095c.06.497.095.975.095 1.423v3.52h-1.3V222.8h1.055l.18 1.167h.065c.332-.468.722-.807 1.165-1.016.444-.206.95-.313 1.525-.313 1.137 0 2.015.392 2.636 1.17.613.776.923 1.865.923 3.27 0 1.41-.315 2.504-.94 3.284-.63.78-1.503 1.17-2.62 1.17zm-.187-7.782c-.877 0-1.51.24-1.9.725-.393.487-.593 1.257-.603 2.317v.29c0 1.203.198 2.066.602 2.583.4.522 1.047.78 1.933.78.74 0 1.32-.3 1.74-.9.42-.6.63-1.425.63-2.48 0-1.068-.21-1.887-.63-2.46-.418-.57-1.01-.854-1.772-.854zm9.895-3.815l-4.26 11.44h-1.296l4.258-11.44h1.3zm7.74 8.4c0 1.006-.366 1.79-1.095 2.355-.732.566-1.724.843-2.976.843-1.356 0-2.4-.175-3.128-.525v-1.285c.47.2.98.356 1.532.472.553.114 1.1.17 1.644.17.887 0 1.556-.168 2.004-.504.447-.335.673-.8.673-1.402 0-.395-.08-.72-.238-.973-.16-.252-.427-.48-.8-.7-.372-.212-.942-.455-1.703-.726-1.062-.38-1.822-.832-2.28-1.355-.456-.52-.685-1.2-.685-2.043 0-.88.33-1.582.992-2.102.665-.52 1.54-.784 2.63-.784 1.137 0 2.183.21 3.137.627l-.414 1.155c-.947-.397-1.864-.593-2.756-.593-.702 0-1.255.15-1.65.453-.398.305-.596.724-.596 1.26 0 .403.074.722.22.978.145.254.39.484.74.697.347.212.877.443 1.594.7 1.197.426 2.023.887 2.473 1.378.45.487.68 1.125.68 1.908zm2.98 3.04h-1.3v-8.57h1.3v8.57zm-1.41-10.9c0-.297.075-.51.22-.652a.767.767 0 0 1 .55-.207c.207 0 .39.07.54.21.15.145.225.36.225.65 0 .295-.073.515-.226.655a.76.76 0 0 1-.54.217.75.75 0 0 1-.548-.216c-.146-.14-.22-.36-.22-.654zm10.724 2.33v.82l-1.586.19c.144.178.274.42.39.714.115.294.17.623.17.994 0 .84-.286 1.51-.86 2.01-.573.496-1.36.748-2.36.748-.257 0-.496-.022-.723-.06-.552.29-.828.66-.828 1.102 0 .235.097.408.29.522.194.112.525.167.996.167h1.515c.93 0 1.642.195 2.14.588.5.39.746.958.746 1.703 0 .948-.38 1.67-1.14 2.168-.764.498-1.873.748-3.334.748-1.122 0-1.988-.21-2.595-.626-.607-.417-.912-1.006-.912-1.764 0-.52.168-.973.502-1.355.334-.38.804-.64 1.407-.773-.22-.1-.402-.254-.55-.46a1.236 1.236 0 0 1-.225-.73c0-.315.085-.59.252-.82.166-.236.43-.465.79-.682a2.352 2.352 0 0 1-1.085-.932c-.28-.44-.42-.942-.42-1.503 0-.938.284-1.66.846-2.17.565-.508 1.364-.764 2.397-.764.448 0 .85.055 1.21.163h2.965zm-6.838 10.008c0 .46.196.813.588 1.055.39.238.95.357 1.68.357 1.09 0 1.9-.164 2.423-.487.524-.324.788-.766.788-1.322 0-.462-.145-.784-.432-.964-.286-.177-.826-.27-1.618-.27h-1.558c-.59 0-1.048.144-1.377.423-.33.28-.495.684-.495 1.21zm.706-7.266c0 .598.168 1.054.507 1.36.34.307.812.463 1.417.463 1.268 0 1.902-.617 1.902-1.85 0-1.287-.64-1.93-1.927-1.93-.61 0-1.08.163-1.41.49-.328.33-.49.82-.49 1.467zm13.302 5.827v-5.548c0-.7-.156-1.22-.477-1.564-.318-.345-.818-.514-1.495-.514-.898 0-1.554.24-1.97.725-.42.486-.628 1.285-.628 2.4v4.498h-1.298v-8.57h1.055l.21 1.167h.066c.267-.42.636-.75 1.117-.982a3.67 3.67 0 0 1 1.605-.35c1.033 0 1.81.25 2.33.75.526.498.784 1.295.784 2.39v5.594h-1.298zm3.702 0v-11.44h1.33v11.44h-1.33zm9.683 0v-5.548c0-.7-.157-1.22-.478-1.564-.32-.345-.817-.514-1.496-.514-.897 0-1.554.24-1.97.725-.42.486-.627 1.285-.627 2.4v4.498h-1.3v-8.57h1.056l.21 1.167h.065a2.66 2.66 0 0 1 1.12-.982c.48-.23 1.013-.35 1.603-.35 1.033 0 1.81.25 2.33.75.525.498.783 1.295.783 2.39v5.594h-1.298zm-86.28 17.16v7.405c0 1.303-.395 2.33-1.18 3.077-.79.743-1.87 1.117-3.25 1.117-1.377 0-2.444-.377-3.195-1.128-.754-.752-1.13-1.782-1.13-3.1v-7.37h1.33v7.463c0 .954.26 1.686.782 2.2.52.51 1.286.765 2.3.765.965 0 1.708-.255 2.228-.77.52-.515.78-1.25.78-2.207v-7.45h1.332zm7.9 9.1c0 .8-.297 1.417-.89 1.85-.595.435-1.43.65-2.505.65-1.134 0-2.02-.177-2.66-.538v-1.21c.416.21.855.374 1.328.497.473.12.927.177 1.363.177.68 0 1.2-.11 1.566-.327.366-.212.547-.54.547-.984 0-.334-.143-.62-.435-.86-.29-.238-.852-.516-1.692-.84-.798-.298-1.364-.558-1.702-.778-.334-.222-.584-.475-.75-.757-.163-.28-.243-.616-.243-1.01 0-.697.283-1.25.852-1.653.567-.403 1.347-.607 2.337-.607.92 0 1.824.187 2.704.566l-.46 1.055c-.86-.353-1.64-.53-2.337-.53-.616 0-1.08.095-1.394.29-.31.195-.47.46-.47.798 0 .23.06.423.177.59.117.155.307.312.568.46.26.145.76.356 1.5.63 1.017.373 1.704.747 2.062 1.118.357.38.535.852.535 1.418zm5.275 2.5c-1.268 0-2.266-.388-2.998-1.16-.734-.77-1.1-1.842-1.1-3.215 0-1.383.34-2.48 1.02-3.297.68-.813 1.594-1.22 2.742-1.22 1.072 0 1.926.353 2.55 1.06.623.708.94 1.64.94 2.796v.82h-5.907c.027 1.007.28 1.77.76 2.295.485.52 1.163.782 2.04.782.922 0 1.835-.193 2.738-.58v1.162c-.457.197-.894.34-1.302.427a7.393 7.393 0 0 1-1.483.13zm-.352-7.8c-.688 0-1.236.223-1.644.67-.413.447-.653 1.067-.724 1.86h4.48c0-.818-.182-1.444-.548-1.88s-.886-.65-1.565-.65zm9.17-1.09c.38 0 .72.032 1.023.092l-.18 1.21a4.33 4.33 0 0 0-.94-.12c-.69 0-1.284.283-1.777.847-.49.56-.74 1.265-.74 2.102v4.598h-1.3v-8.57h1.075l.146 1.586h.065c.32-.56.7-.987 1.15-1.29.45-.3.94-.455 1.478-.455zm13.778.626c0 1.155-.394 2.047-1.18 2.67-.79.62-1.92.933-3.393.933H41.14v4.5h-1.33v-11.44h2.965c2.856 0 4.285 1.11 4.285 3.336zm-5.92 2.466h1.197c1.178 0 2.033-.19 2.56-.572.525-.38.79-.99.79-1.83 0-.754-.25-1.318-.743-1.69-.497-.37-1.268-.553-2.318-.553H41.14v4.645zm11.57-3.094c.38 0 .723.033 1.025.093l-.18 1.21a4.328 4.328 0 0 0-.938-.12c-.692 0-1.284.284-1.78.848-.49.562-.737 1.266-.737 2.103v4.6h-1.3v-8.57h1.072l.147 1.586h.064c.317-.56.698-.987 1.147-1.29.45-.3.94-.455 1.48-.455zm9.253 4.438c0 1.4-.353 2.49-1.055 3.277-.705.784-1.677 1.175-2.92 1.175-.764 0-1.446-.176-2.04-.537-.594-.36-1.052-.88-1.376-1.55-.325-.674-.485-1.46-.485-2.363 0-1.397.35-2.488 1.05-3.265.696-.782 1.668-1.174 2.906-1.174 1.203 0 2.154.398 2.862 1.195.707.8 1.06 1.88 1.06 3.243zm-6.53 0c0 1.095.217 1.93.656 2.504.436.573 1.08.86 1.932.86.85 0 1.496-.287 1.936-.856.44-.573.66-1.408.66-2.508 0-1.09-.22-1.917-.66-2.48-.44-.57-1.092-.853-1.952-.853-.85 0-1.49.278-1.925.838-.432.557-.647 1.39-.647 2.496zm12.212-3.265h-2.183v7.56h-1.298v-7.558h-1.53v-.59l1.53-.472v-.476c0-2.107.922-3.158 2.764-3.158.455 0 .984.09 1.594.276l-.336 1.04c-.5-.163-.926-.244-1.284-.244-.49 0-.85.166-1.085.492-.235.322-.354.846-.354 1.565v.553h2.185v1.015zm2.864 7.56h-1.3v-8.57h1.298v8.573zm-1.407-10.897c0-.298.072-.516.218-.653a.775.775 0 0 1 .55-.207c.207 0 .39.07.54.21.15.144.225.357.225.65 0 .294-.075.51-.226.654a.755.755 0 0 1-.54.216.75.75 0 0 1-.55-.216c-.145-.143-.217-.36-.217-.653zM74.1 259.97h-1.296V247.8H74.1v12.17zm5.92.16c-1.268 0-2.268-.387-3-1.158-.733-.77-1.1-1.843-1.1-3.216 0-1.383.34-2.48 1.02-3.297.68-.814 1.596-1.22 2.743-1.22 1.073 0 1.924.352 2.55 1.06.624.707.94 1.64.94 2.795v.82h-5.907c.026 1.007.28 1.77.762 2.295.483.52 1.16.783 2.04.783.92 0 1.833-.193 2.735-.58v1.162c-.46.197-.893.34-1.3.427-.41.085-.905.128-1.484.128zm-.353-7.8c-.69 0-1.236.224-1.644.67-.413.448-.652 1.068-.724 1.86h4.48c0-.817-.184-1.443-.55-1.878-.365-.435-.886-.652-1.565-.652zM2.65 288.574v-11.44h1.33v10.237h5.043v1.205h-6.37zm8.96 0h-1.3v-8.572h1.3v8.572zm-1.41-10.9c0-.297.074-.51.22-.65s.33-.21.548-.21c.208 0 .39.07.54.212.15.14.227.358.227.65 0 .293-.076.51-.228.654a.758.758 0 0 1-.54.214c-.22 0-.4-.07-.547-.214s-.22-.36-.22-.655zm9.235 8.564c0 .797-.298 1.415-.89 1.847-.596.43-1.43.65-2.506.65-1.135 0-2.02-.18-2.66-.542v-1.205c.415.208.856.374 1.328.492.47.12.925.18 1.364.18.677 0 1.198-.108 1.564-.325.366-.217.548-.546.548-.99 0-.334-.145-.616-.435-.855-.29-.238-.853-.52-1.693-.84-.8-.3-1.365-.558-1.702-.782-.336-.22-.587-.47-.75-.755-.166-.282-.245-.618-.245-1.01 0-.698.283-1.247.852-1.652.57-.402 1.348-.606 2.34-.606.92 0 1.823.186 2.704.563l-.463 1.058c-.86-.357-1.638-.532-2.335-.532-.616 0-1.082.096-1.393.288-.314.195-.47.46-.47.8 0 .23.058.425.176.59.118.157.308.314.57.46.26.143.76.357 1.5.63 1.018.373 1.705.747 2.063 1.12.357.377.535.847.535 1.42zm4.423 1.422c.23 0 .452-.016.664-.05.214-.035.383-.07.508-.11v.998c-.14.07-.346.125-.622.17-.273.044-.52.067-.74.067-1.658 0-2.485-.876-2.485-2.623v-5.1h-1.228v-.627l1.228-.54.547-1.827h.75v1.985h2.488v1.01H22.48v5.04c0 .52.123.914.368 1.195.246.273.584.412 1.01.412zm13.99-3.377c0 1.394-.354 2.487-1.056 3.273-.704.784-1.676 1.18-2.917 1.18-.768 0-1.447-.18-2.044-.543a3.582 3.582 0 0 1-1.374-1.55c-.325-.672-.486-1.46-.486-2.36 0-1.4.35-2.492 1.05-3.27.698-.78 1.668-1.17 2.908-1.17 1.202 0 2.152.397 2.86 1.194.706.8 1.06 1.88 1.06 3.246zm-6.532 0c0 1.094.22 1.927.657 2.503.438.574 1.082.858 1.933.858.85 0 1.496-.284 1.936-.858.44-.57.66-1.404.66-2.503 0-1.094-.22-1.92-.66-2.485-.44-.566-1.092-.85-1.952-.85-.852 0-1.49.28-1.925.835-.433.557-.65 1.39-.65 2.5zm12.213-3.27h-2.18v7.56h-1.3v-7.56h-1.533v-.59l1.534-.468v-.48c0-2.105.92-3.157 2.76-3.157.457 0 .988.092 1.597.275l-.336 1.042c-.5-.164-.927-.244-1.28-.244-.493 0-.853.163-1.088.49-.235.325-.352.85-.352 1.57v.55h2.18v1.01zm12.67 3.27c0 1.394-.353 2.487-1.057 3.273-.704.784-1.677 1.18-2.918 1.18-.766 0-1.447-.18-2.042-.543-.594-.36-1.052-.876-1.375-1.55-.326-.672-.486-1.46-.486-2.36 0-1.4.35-2.492 1.05-3.27.696-.78 1.668-1.17 2.906-1.17 1.2 0 2.152.397 2.86 1.194.708.8 1.06 1.88 1.06 3.246zm-6.53 0c0 1.094.22 1.927.655 2.503.438.574 1.08.858 1.933.858.848 0 1.493-.284 1.933-.858.443-.57.66-1.404.66-2.503 0-1.094-.217-1.92-.66-2.485-.44-.566-1.09-.85-1.95-.85-.85 0-1.492.28-1.924.835-.434.557-.65 1.39-.65 2.5zm12.26-4.44c.376 0 .72.03 1.02.092l-.18 1.212a4.45 4.45 0 0 0-.94-.12c-.69 0-1.283.28-1.777.846-.492.562-.737 1.265-.737 2.105v4.596h-1.3v-8.572h1.073l.145 1.583h.065c.317-.557.7-.987 1.15-1.29.448-.3.94-.452 1.48-.452zm7.684 7.58h-.068c-.6.874-1.5 1.312-2.692 1.312-1.122 0-1.995-.386-2.62-1.152-.62-.765-.932-1.86-.932-3.272 0-1.41.31-2.51.94-3.292.623-.782 1.496-1.174 2.612-1.174 1.16 0 2.053.42 2.676 1.268h.1l-.05-.617-.033-.603v-3.49h1.297v12.174H69.79l-.175-1.15zm-2.596.22c.884 0 1.528-.24 1.928-.723.397-.486.6-1.26.6-2.335v-.274c0-1.212-.204-2.08-.608-2.597-.406-.52-1.052-.78-1.937-.78-.76 0-1.342.298-1.75.89-.402.588-.605 1.424-.605 2.508 0 1.095.2 1.92.604 2.475.4.56.99.84 1.77.84zm9.74 1.092c-1.27 0-2.267-.39-3-1.16-.734-.77-1.1-1.846-1.1-3.217 0-1.384.34-2.48 1.02-3.296.682-.814 1.595-1.22 2.744-1.22 1.072 0 1.923.353 2.55 1.06.624.71.938 1.64.938 2.796v.822h-5.905c.027 1.008.28 1.772.762 2.295.48.52 1.16.782 2.037.782a6.89 6.89 0 0 0 2.737-.58v1.157c-.46.202-.893.34-1.302.433a7.36 7.36 0 0 1-1.48.128zm-.353-7.803c-.69 0-1.236.226-1.646.674-.41.445-.65 1.063-.723 1.856h4.48c0-.815-.18-1.444-.547-1.88s-.886-.65-1.563-.65zm9.17-1.09c.38 0 .72.033 1.022.093l-.18 1.212a4.45 4.45 0 0 0-.94-.12c-.69 0-1.283.28-1.778.846-.49.562-.737 1.265-.737 2.105v4.596h-1.3v-8.572h1.073l.147 1.583h.062c.318-.557.7-.987 1.147-1.29.45-.3.94-.452 1.48-.452zm7.7 6.396c0 .797-.3 1.415-.89 1.847-.596.43-1.43.65-2.505.65-1.135 0-2.022-.18-2.66-.542v-1.205c.414.208.856.374 1.328.492.472.12.926.18 1.364.18.678 0 1.2-.108 1.565-.325.365-.217.546-.546.546-.99 0-.334-.143-.616-.435-.855-.288-.238-.85-.52-1.692-.84-.798-.3-1.365-.558-1.702-.782-.336-.22-.587-.47-.75-.755-.165-.282-.245-.618-.245-1.01 0-.698.284-1.247.853-1.652.568-.402 1.348-.606 2.338-.606.92 0 1.825.186 2.706.563l-.463 1.058c-.86-.357-1.64-.532-2.336-.532-.616 0-1.08.096-1.394.288-.31.195-.47.46-.47.8 0 .23.06.425.176.59.116.157.31.314.57.46.26.143.76.357 1.5.63 1.016.373 1.703.747 2.06 1.12.358.377.537.847.537 1.42zM12.58 311.442c0 1.832-.465 3.272-1.39 4.32-.924 1.05-2.21 1.574-3.86 1.574-1.686 0-2.987-.517-3.9-1.548-.916-1.03-1.375-2.483-1.375-4.357 0-1.862.46-3.304 1.378-4.33.92-1.025 2.222-1.536 3.91-1.536 1.645 0 2.928.52 3.85 1.563.926 1.043 1.387 2.484 1.387 4.316zm-9.114 0c0 1.545.327 2.723.987 3.522.663.8 1.62 1.203 2.876 1.203 1.265 0 2.226-.4 2.87-1.198.647-.8.97-1.974.97-3.53 0-1.54-.32-2.702-.966-3.5-.644-.797-1.598-1.193-2.86-1.193-1.268 0-2.228.4-2.89 1.2-.66.802-.988 1.967-.988 3.494zm14.918-2.997c.38 0 .72.032 1.023.094l-.182 1.205a4.538 4.538 0 0 0-.94-.116c-.69 0-1.282.28-1.777.84-.492.566-.738 1.27-.738 2.107v4.597h-1.3v-8.568h1.074l.147 1.583h.065c.317-.56.7-.988 1.15-1.293.447-.3.938-.453 1.478-.453zm7.687 7.58H26c-.6.875-1.496 1.31-2.69 1.31-1.12 0-1.994-.38-2.62-1.147-.62-.77-.933-1.86-.933-3.274s.313-2.51.94-3.293c.625-.78 1.498-1.174 2.613-1.174 1.164 0 2.054.422 2.677 1.267h.102l-.056-.617-.032-.6V305H27.3v12.175h-1.054l-.174-1.15zm-2.596.22c.886 0 1.53-.24 1.93-.723.397-.483.597-1.26.597-2.335v-.273c0-1.214-.2-2.083-.603-2.6-.407-.522-1.053-.778-1.94-.778-.762 0-1.343.296-1.748.887-.405.59-.607 1.426-.607 2.508 0 1.095.2 1.92.603 2.477.4.56.99.84 1.768.84zm9.74 1.09c-1.267 0-2.267-.386-2.998-1.16-.734-.77-1.1-1.844-1.1-3.217 0-1.38.34-2.48 1.02-3.294.68-.813 1.594-1.22 2.742-1.22 1.073 0 1.924.353 2.55 1.06.623.708.94 1.64.94 2.798v.82H30.46c.03 1.007.282 1.77.762 2.293.483.522 1.16.782 2.04.782.92 0 1.834-.19 2.735-.578v1.156c-.46.2-.895.343-1.303.43-.408.087-.903.13-1.48.13zm-.35-7.8c-.69 0-1.238.222-1.646.672-.413.447-.653 1.067-.725 1.858h4.48c0-.816-.18-1.443-.547-1.88-.365-.437-.887-.65-1.564-.65zM42.033 308.445c.38 0 .72.032 1.023.094l-.18 1.205a4.554 4.554 0 0 0-.94-.116c-.692 0-1.283.28-1.777.84-.494.566-.74 1.27-.74 2.107v4.597h-1.3v-8.568h1.074l.147 1.583h.065c.318-.56.7-.988 1.147-1.293.45-.3.94-.453 1.48-.453zm12.17 7.58h-.07c-.6.875-1.496 1.31-2.69 1.31-1.12 0-1.994-.38-2.62-1.147-.62-.77-.933-1.86-.933-3.274s.312-2.51.94-3.293c.625-.78 1.497-1.174 2.613-1.174 1.16 0 2.054.422 2.676 1.267h.1l-.054-.617-.033-.6V305h1.298v12.175h-1.053l-.174-1.15zm-2.598.22c.888 0 1.53-.24 1.93-.723.4-.483.6-1.26.6-2.335v-.273c0-1.214-.204-2.083-.607-2.6-.405-.522-1.052-.778-1.938-.778-.76 0-1.343.296-1.75.887-.402.59-.605 1.426-.605 2.508 0 1.095.2 1.92.603 2.477.4.56.992.84 1.767.84zm9.74 1.09c-1.266 0-2.263-.386-2.996-1.16-.737-.77-1.1-1.844-1.1-3.217 0-1.38.337-2.48 1.02-3.294.68-.813 1.592-1.22 2.74-1.22 1.074 0 1.924.353 2.55 1.06.624.708.94 1.64.94 2.798v.82h-5.907c.027 1.007.28 1.77.762 2.293.482.522 1.16.782 2.038.782.922 0 1.836-.19 2.737-.578v1.156c-.458.2-.892.343-1.3.43-.41.087-.903.13-1.484.13zm-.35-7.8c-.69 0-1.237.222-1.645.672-.41.447-.652 1.067-.725 1.858h4.48c0-.816-.18-1.443-.546-1.88-.368-.437-.888-.65-1.567-.65zm8.03 6.73c.23 0 .45-.02.664-.05.212-.04.38-.075.506-.11v.996c-.14.068-.348.123-.622.168a4.4 4.4 0 0 1-.74.07c-1.66 0-2.485-.874-2.485-2.623v-5.1h-1.23v-.624l1.23-.54.545-1.83h.75v1.99h2.49v1.006h-2.49v5.043c0 .516.123.913.37 1.19.244.274.58.415 1.01.415zm7.698.91l-.258-1.22H76.4c-.427.535-.85.905-1.277 1.095-.426.188-.955.286-1.59.286-.85 0-1.518-.22-2-.658-.48-.44-.723-1.06-.723-1.875 0-1.73 1.385-2.638 4.15-2.72l1.456-.05v-.533c0-.67-.143-1.165-.433-1.485-.29-.32-.753-.48-1.388-.48-.716 0-1.522.218-2.424.655l-.395-.992c.42-.23.883-.41 1.384-.542a6.062 6.062 0 0 1 1.514-.195c1.022 0 1.778.228 2.273.683.492.452.737 1.18.737 2.18v5.853h-.96zm-2.934-.91c.807 0 1.442-.225 1.9-.667.463-.443.696-1.063.696-1.86v-.776l-1.3.054c-1.032.036-1.776.197-2.233.484-.456.283-.683.726-.683 1.326 0 .468.143.824.43 1.068.282.244.68.37 1.19.37zm7.412.91h-1.3v-8.568h1.3v8.568zm-1.408-10.895c0-.298.072-.516.22-.654s.327-.208.546-.208c.21 0 .392.07.54.212.153.14.227.36.227.65 0 .29-.074.51-.227.65a.74.74 0 0 1-.54.22.738.738 0 0 1-.546-.22c-.147-.14-.22-.36-.22-.65zm5 10.895H83.5V305h1.296v12.175zm7.83-2.334c0 .8-.3 1.415-.893 1.848-.594.433-1.43.65-2.504.65-1.134 0-2.02-.182-2.66-.543v-1.205c.415.208.855.373 1.33.493.472.12.925.18 1.362.18.677 0 1.2-.11 1.564-.326.367-.218.548-.547.548-.988 0-.335-.146-.62-.436-.858-.288-.24-.85-.52-1.693-.844-.797-.298-1.363-.556-1.7-.778-.335-.223-.587-.473-.75-.757-.164-.28-.245-.616-.245-1.007 0-.702.283-1.25.852-1.658.567-.4 1.347-.605 2.338-.605.92 0 1.823.186 2.706.562l-.463 1.058c-.86-.355-1.638-.53-2.335-.53-.618 0-1.082.095-1.394.286-.312.196-.47.46-.47.802 0 .228.058.423.177.584.118.16.308.316.568.464.26.144.762.36 1.502.634 1.017.368 1.704.744 2.06 1.118.357.376.537.848.537 1.42zM2.65 334.34h3.23c1.517 0 2.617.226 3.292.68.68.455 1.017 1.172 1.017 2.152 0 .68-.187 1.237-.566 1.68-.38.442-.93.724-1.655.856v.08c1.737.294 2.605 1.208 2.605 2.735 0 1.023-.347 1.82-1.036 2.397-.69.57-1.66.857-2.9.857H2.65V334.34zm1.33 4.902h2.19c.938 0 1.614-.148 2.025-.444.414-.293.62-.79.62-1.49 0-.642-.23-1.105-.69-1.388-.46-.284-1.188-.427-2.19-.427H3.982v3.75zm0 1.122v4.275h2.387c.92 0 1.616-.18 2.08-.54.467-.352.703-.913.703-1.675 0-.707-.24-1.23-.715-1.562-.478-.336-1.206-.5-2.178-.5H3.98zm9.694 5.413H12.38v-8.568h1.296v8.566zm-1.406-10.9c0-.295.072-.51.218-.65a.762.762 0 0 1 .55-.205c.207 0 .39.066.538.206.15.143.226.357.226.65 0 .294-.075.516-.226.656a.77.77 0 0 1-.54.216c-.22 0-.4-.076-.548-.216-.146-.14-.218-.362-.218-.657zm5.003 10.9h-1.3v-12.172h1.3v12.172zm3.596 0H19.57v-12.172h1.298v12.172zm3.594 0h-1.297v-8.568h1.297v8.566zm-1.406-10.9c0-.295.072-.51.218-.65a.76.76 0 0 1 .548-.205c.208 0 .39.066.54.206.15.143.227.357.227.65-.002.294-.077.516-.23.656a.764.764 0 0 1-.538.216c-.22 0-.4-.076-.55-.216-.146-.14-.217-.362-.217-.657zm9.572 10.9v-5.545c0-.7-.157-1.22-.478-1.563-.317-.347-.817-.517-1.494-.517-.898 0-1.554.24-1.97.726-.42.484-.628 1.284-.628 2.4v4.496h-1.3v-8.568h1.056l.212 1.168h.064c.268-.423.64-.75 1.118-.984a3.666 3.666 0 0 1 1.604-.347c1.035 0 1.81.248 2.332.748.523.498.782 1.294.782 2.388v5.595h-1.298zm10.524-8.568v.817l-1.587.19a2.74 2.74 0 0 1 .56 1.71c0 .838-.284 1.508-.858 2.007-.575.497-1.362.748-2.362.748-.257 0-.494-.02-.72-.06-.555.293-.83.66-.83 1.102 0 .237.096.41.29.52.195.114.524.17.995.17h1.517c.93 0 1.64.197 2.14.588.497.39.746.96.746 1.704 0 .946-.38 1.67-1.14 2.166-.763.5-1.873.748-3.335.748-1.12 0-1.986-.21-2.59-.625-.61-.416-.914-1.007-.914-1.766 0-.518.17-.973.5-1.353.336-.38.806-.636 1.41-.77a1.37 1.37 0 0 1-.55-.462 1.225 1.225 0 0 1-.225-.73c0-.314.086-.586.25-.82.168-.237.43-.464.79-.68a2.374 2.374 0 0 1-1.083-.934 2.76 2.76 0 0 1-.418-1.502c0-.938.282-1.66.845-2.167.563-.512 1.362-.765 2.396-.765.45 0 .85.052 1.212.16h2.962v.002zm-6.837 10.004c0 .466.195.815.586 1.055.39.24.95.357 1.682.357 1.09 0 1.898-.16 2.422-.488.523-.323.788-.767.788-1.32 0-.466-.144-.786-.433-.968-.286-.177-.825-.27-1.618-.27h-1.557c-.59 0-1.05.143-1.377.425-.33.278-.495.683-.495 1.207zm.705-7.265c0 .596.167 1.053.507 1.36.338.31.81.462 1.418.462 1.268 0 1.9-.618 1.9-1.848 0-1.29-.64-1.932-1.925-1.932-.61 0-1.08.168-1.41.494-.327.33-.49.818-.49 1.463zM9.108 371.34c0 1.006-.367 1.79-1.096 2.354-.73.564-1.722.844-2.974.844-1.355 0-2.4-.174-3.13-.526v-1.283c.47.2.98.355 1.534.47.553.116 1.1.17 1.645.17.887 0 1.553-.17 2.002-.5.446-.335.67-.803.67-1.406 0-.392-.08-.72-.237-.97-.16-.255-.427-.488-.798-.702-.374-.212-.942-.455-1.704-.725-1.06-.384-1.822-.834-2.28-1.356-.455-.52-.685-1.2-.685-2.042 0-.877.332-1.582.994-2.103.664-.52 1.54-.78 2.63-.78 1.136 0 2.182.207 3.136.624l-.415 1.154c-.943-.396-1.862-.594-2.753-.594-.702 0-1.256.15-1.65.45-.4.304-.596.725-.596 1.263 0 .4.076.72.22.977.146.253.39.483.74.696.346.21.88.443 1.594.698 1.198.426 2.023.885 2.476 1.378.45.488.677 1.13.677 1.91zm4.45 2.123a4.364 4.364 0 0 0 1.173-.154v.996a2.454 2.454 0 0 1-.623.168c-.27.045-.52.067-.737.067-1.66 0-2.486-.873-2.486-2.622v-5.096H9.656v-.624l1.228-.544.548-1.828h.75v1.986h2.488v1.01h-2.487v5.044c0 .515.122.91.367 1.19.245.273.582.41 1.01.41zm6.336-7.816c.38 0 .722.03 1.023.09l-.178 1.212a4.51 4.51 0 0 0-.94-.117c-.69 0-1.284.278-1.778.842-.492.565-.737 1.268-.737 2.106v4.597h-1.3v-8.57h1.072l.148 1.58h.064c.317-.554.7-.986 1.146-1.29.448-.297.94-.45 1.478-.45zm3.47 8.73H22.07v-8.57h1.295v8.57zm-1.406-10.9c0-.295.072-.513.217-.65a.778.778 0 0 1 .55-.208c.207 0 .39.07.537.208.152.145.228.36.228.65 0 .297-.076.512-.228.655a.747.747 0 0 1-.538.215c-.22 0-.4-.07-.55-.215-.144-.143-.217-.358-.217-.654zm7.693 11.06c-.56 0-1.067-.106-1.53-.31a2.877 2.877 0 0 1-1.16-.95h-.093c.06.5.093.975.093 1.423v3.52h-1.296V365.81h1.054l.18 1.17h.063c.337-.47.726-.81 1.17-1.018.442-.208.95-.313 1.524-.313 1.137 0 2.015.387 2.635 1.165.615.777.925 1.865.925 3.272 0 1.408-.315 2.504-.94 3.28-.632.783-1.503 1.173-2.62 1.173zm-.186-7.788c-.876 0-1.51.245-1.902.728-.39.487-.59 1.26-.603 2.32v.288c0 1.203.2 2.067.603 2.584.4.518 1.048.778 1.933.778.74 0 1.323-.298 1.742-.9.418-.6.628-1.425.628-2.48 0-1.065-.21-1.888-.63-2.457-.418-.573-1.01-.86-1.772-.86zm9.178 7.788c-1.27 0-2.268-.387-3-1.16-.734-.77-1.098-1.843-1.098-3.215 0-1.385.34-2.482 1.02-3.295.68-.816 1.593-1.22 2.742-1.22 1.073 0 1.924.35 2.548 1.06.625.707.94 1.638.94 2.793v.825H35.89c.027 1.003.28 1.77.762 2.293.482.52 1.16.784 2.04.784.92 0 1.833-.193 2.735-.58v1.16a6.82 6.82 0 0 1-1.302.43 7.382 7.382 0 0 1-1.48.127zm-.352-7.802c-.69 0-1.237.225-1.645.674-.412.445-.652 1.063-.724 1.856h4.48c0-.815-.18-1.444-.546-1.88-.367-.433-.887-.65-1.564-.65zm9.617 7.643v-11.435h1.33v11.437h-1.33zm9.682 0v-5.546c0-.698-.16-1.217-.48-1.562-.32-.342-.816-.517-1.494-.517-.898 0-1.555.244-1.97.728-.42.487-.63 1.287-.63 2.404v4.497H51.72v-8.57h1.055l.21 1.17h.064c.265-.422.636-.75 1.117-.984a3.663 3.663 0 0 1 1.604-.347c1.036 0 1.81.248 2.333.745.523.5.782 1.297.782 2.39v5.596h-1.298zm6.275-.914a4.342 4.342 0 0 0 1.172-.154v.995a2.44 2.44 0 0 1-.62.168 4.64 4.64 0 0 1-.742.067c-1.657 0-2.485-.874-2.485-2.623v-5.097h-1.228v-.624l1.228-.545.547-1.828h.75v1.986h2.49v1.01h-2.49v5.044c0 .515.122.91.37 1.19.243.273.58.41 1.008.41zm6.048 1.076c-1.268 0-2.267-.387-2.998-1.16-.733-.77-1.1-1.843-1.1-3.215 0-1.385.34-2.482 1.02-3.295.682-.816 1.595-1.22 2.742-1.22 1.073 0 1.925.35 2.55 1.06.624.707.94 1.638.94 2.793v.825H67.16c.028 1.003.282 1.77.762 2.293.483.52 1.16.783 2.04.783.92 0 1.834-.193 2.737-.58v1.16c-.46.2-.895.343-1.305.43a7.382 7.382 0 0 1-1.48.127h-.002zm-.352-7.802c-.69 0-1.235.225-1.643.674-.41.445-.652 1.063-.725 1.856h4.48c0-.815-.18-1.444-.546-1.88s-.888-.65-1.566-.65zm12.278-.928v.822l-1.584.19c.143.18.275.42.39.713.115.29.17.623.17.994 0 .84-.285 1.51-.858 2.01-.576.497-1.363.75-2.365.75a4.12 4.12 0 0 1-.72-.063c-.552.293-.826.66-.826 1.104 0 .236.095.41.287.523.196.11.528.168.998.168h1.517c.93 0 1.64.195 2.14.588.496.39.746.956.746 1.704 0 .946-.38 1.67-1.14 2.166-.764.5-1.874.748-3.336.748-1.12 0-1.985-.208-2.59-.624-.61-.415-.914-1.006-.914-1.765 0-.52.17-.972.5-1.353.335-.38.805-.638 1.41-.772-.22-.1-.405-.255-.55-.46a1.223 1.223 0 0 1-.226-.732c0-.313.085-.587.25-.822.17-.233.432-.46.792-.68a2.33 2.33 0 0 1-1.084-.93c-.278-.44-.42-.94-.42-1.505 0-.935.283-1.66.847-2.17.563-.505 1.362-.76 2.395-.76.448 0 .853.053 1.21.16h2.965zm-6.836 10.01c0 .46.195.812.587 1.055.39.237.95.357 1.682.357 1.09 0 1.897-.165 2.422-.488.523-.323.788-.768.788-1.322 0-.466-.144-.786-.433-.965-.286-.177-.826-.27-1.62-.27h-1.556c-.59 0-1.05.142-1.377.422-.33.28-.494.68-.494 1.21zm.705-7.266c0 .598.168 1.05.507 1.357.337.31.81.464 1.417.464 1.27 0 1.9-.615 1.9-1.847 0-1.287-.64-1.933-1.923-1.933-.612 0-1.082.166-1.41.493-.328.33-.49.818-.49 1.467zm11.342-2.905c.38 0 .72.03 1.022.09l-.18 1.214a4.502 4.502 0 0 0-.94-.117c-.69 0-1.283.278-1.777.842-.49.564-.738 1.267-.738 2.105v4.597h-1.3v-8.57h1.074l.146 1.58h.065c.318-.554.7-.986 1.148-1.29.45-.297.94-.45 1.48-.45zm7.122 8.73l-.26-1.22h-.063c-.43.537-.855.9-1.277 1.097-.428.188-.957.285-1.593.285-.852 0-1.515-.217-2-.658-.48-.44-.723-1.06-.723-1.875 0-1.73 1.386-2.64 4.153-2.724l1.455-.047v-.53c0-.67-.145-1.166-.434-1.49-.29-.32-.75-.48-1.39-.48-.713 0-1.52.22-2.422.657l-.397-.994a6 6 0 0 1 1.387-.54 5.96 5.96 0 0 1 1.514-.197c1.023 0 1.78.228 2.273.68.493.455.74 1.183.74 2.182v5.854h-.96zm-2.935-.914c.81 0 1.445-.22 1.904-.665.46-.44.694-1.06.694-1.86v-.772l-1.3.055c-1.03.036-1.775.196-2.232.48-.456.284-.684.725-.684 1.326 0 .47.142.827.43 1.07.282.245.68.366 1.19.366zm8.884 0a4.346 4.346 0 0 0 1.173-.154v.995a2.444 2.444 0 0 1-.623.168 4.58 4.58 0 0 1-.74.067c-1.657 0-2.485-.874-2.485-2.623v-5.097h-1.23v-.624l1.23-.545.546-1.828h.75v1.986h2.49v1.01H98.74v5.044c0 .515.122.91.367 1.19.246.273.583.41 1.01.41zm3.727.916h-1.297v-8.57h1.297v8.57zm-1.408-10.9c0-.294.073-.512.22-.65a.776.776 0 0 1 .546-.207c.208 0 .39.07.538.208.152.145.228.36.228.65 0 .297-.076.512-.228.655a.75.75 0 0 1-.54.215c-.217 0-.398-.07-.545-.215s-.22-.358-.22-.654zm11.102 6.608c0 1.398-.352 2.49-1.054 3.275-.705.783-1.676 1.177-2.916 1.177-.767 0-1.448-.18-2.044-.538-.592-.362-1.052-.88-1.375-1.553-.326-.67-.485-1.46-.485-2.36 0-1.4.35-2.49 1.05-3.268.695-.782 1.667-1.17 2.906-1.17 1.202 0 2.15.395 2.86 1.193.707.802 1.06 1.88 1.06 3.245zm-6.53 0c0 1.095.22 1.928.657 2.504.44.575 1.08.858 1.932.858.848 0 1.495-.283 1.935-.856.442-.57.66-1.406.66-2.506 0-1.09-.218-1.92-.66-2.484-.44-.567-1.093-.85-1.95-.85-.853 0-1.494.28-1.926.837-.43.56-.65 1.392-.65 2.498zm14.22 4.293v-5.547c0-.698-.16-1.217-.48-1.562-.317-.342-.817-.517-1.494-.517-.896 0-1.553.244-1.97.728-.42.487-.627 1.287-.627 2.404v4.496h-1.297v-8.57h1.056l.21 1.17h.064a2.68 2.68 0 0 1 1.118-.984 3.67 3.67 0 0 1 1.606-.347c1.03 0 1.81.248 2.33.745.522.5.782 1.297.782 2.39v5.596h-1.298zM9.9 394.88c0 1.156-.396 2.045-1.183 2.667-.79.623-1.92.937-3.39.937H3.98v4.5H2.653v-11.44h2.964c2.856.002 4.285 1.112 4.285 3.336zm-5.92 2.466h1.197c1.178 0 2.03-.19 2.56-.57.525-.382.79-.993.79-1.83 0-.756-.25-1.32-.744-1.692-.496-.37-1.268-.553-2.317-.553H3.98v4.645zm12.932 5.637l-.258-1.22h-.064c-.428.54-.852.906-1.276 1.096-.428.19-.956.285-1.592.285-.85 0-1.516-.22-2-.658-.48-.44-.722-1.062-.722-1.872 0-1.734 1.385-2.64 4.15-2.726l1.456-.048v-.534c0-.665-.145-1.165-.43-1.485-.293-.32-.756-.48-1.39-.48-.717 0-1.522.22-2.425.657l-.396-.994c.422-.23.884-.41 1.385-.54a5.96 5.96 0 0 1 1.513-.194c1.023 0 1.78.226 2.272.68.493.452.74 1.177.74 2.18v5.85h-.962zm-2.932-.913c.807 0 1.443-.222 1.903-.665.46-.442.694-1.062.694-1.86v-.774l-1.3.06c-1.032.033-1.777.19-2.234.48-.456.28-.682.725-.682 1.324 0 .47.144.826.428 1.07.284.247.682.367 1.192.367zm4.753-7.654h1.39l1.88 4.884c.41 1.116.667 1.923.766 2.416h.06c.07-.268.21-.72.427-1.364.217-.645.924-2.62 2.124-5.937h1.393l-3.684 9.755c-.368.967-.79 1.65-1.28 2.054-.488.402-1.088.607-1.798.607-.394 0-.787-.047-1.172-.132v-1.037c.287.06.608.09.963.09.892 0 1.53-.497 1.91-1.496l.478-1.222-3.456-8.617zm19.896 8.568v-5.575c0-.683-.145-1.193-.44-1.538-.29-.338-.744-.51-1.36-.51-.807 0-1.4.232-1.79.696-.384.463-.58 1.176-.58 2.14v4.787h-1.296v-5.575c0-.682-.147-1.192-.438-1.537-.292-.338-.748-.51-1.37-.51-.812 0-1.406.243-1.786.73-.376.488-.565 1.287-.565 2.398v4.496h-1.297v-8.568h1.054l.21 1.17h.065c.244-.42.59-.742 1.036-.98.447-.233.944-.35 1.5-.35 1.335 0 2.213.485 2.625 1.454h.062a2.774 2.774 0 0 1 1.11-1.065c.486-.26 1.04-.39 1.66-.39.968 0 1.694.25 2.177.75.48.493.724 1.295.724 2.39v5.59h-1.3zm7.14.162c-1.268 0-2.267-.388-3-1.157-.733-.774-1.1-1.845-1.1-3.218 0-1.384.34-2.48 1.02-3.3.683-.81 1.596-1.216 2.744-1.216 1.072 0 1.924.35 2.55 1.058.624.708.94 1.64.94 2.798v.82h-5.907c.028 1.007.28 1.77.762 2.295.482.52 1.16.78 2.04.78.92 0 1.833-.19 2.735-.58v1.162c-.46.2-.896.34-1.302.43-.41.084-.905.126-1.483.126zm-.353-7.8c-.69 0-1.235.224-1.644.67-.412.447-.652 1.068-.723 1.86h4.48c0-.817-.18-1.444-.547-1.88-.365-.433-.886-.65-1.565-.65zm11.13 7.64v-5.544c0-.7-.158-1.22-.478-1.563-.318-.346-.818-.518-1.496-.518-.897 0-1.554.243-1.97.726-.42.488-.628 1.287-.628 2.402v4.495H50.68v-8.567h1.054l.21 1.168h.065c.265-.422.636-.75 1.117-.982a3.64 3.64 0 0 1 1.605-.347c1.032 0 1.81.25 2.33.75.523.493.782 1.295.782 2.39v5.59h-1.297zm6.275-.915a4.315 4.315 0 0 0 1.172-.154v.995c-.14.068-.346.125-.62.17a4.297 4.297 0 0 1-.74.066c-1.66 0-2.487-.873-2.487-2.62v-5.102H58.92v-.625l1.228-.543.548-1.827h.75v1.987h2.49v1.007h-2.49v5.043c0 .52.124.915.37 1.192.244.275.58.41 1.007.41zm10.455-6.646h-2.182v7.56h-1.3v-7.56h-1.532v-.585l1.532-.473v-.477c0-2.107.922-3.158 2.764-3.158.452 0 .985.09 1.593.273l-.337 1.045c-.5-.166-.926-.244-1.282-.244-.49 0-.85.162-1.085.49-.237.324-.355.85-.355 1.567v.555h2.182v1.008zm2.864 7.56h-1.296V390.81h1.297v12.175zm9.695-4.292c0 1.4-.353 2.49-1.055 3.278-.703.784-1.677 1.176-2.918 1.176-.766 0-1.447-.177-2.042-.542-.594-.355-1.052-.876-1.375-1.55-.325-.672-.486-1.46-.486-2.362 0-1.4.35-2.486 1.047-3.268.698-.78 1.67-1.17 2.908-1.17 1.2 0 2.152.4 2.86 1.197.707.8 1.06 1.883 1.06 3.24zm-6.53 0c0 1.097.218 1.933.655 2.508.44.57 1.083.855 1.935.855.848 0 1.495-.283 1.935-.854.442-.57.66-1.405.66-2.507 0-1.09-.218-1.915-.66-2.48-.44-.57-1.092-.85-1.95-.85-.854 0-1.494.277-1.926.833-.433.56-.65 1.394-.65 2.498zm15.03 4.293l-1.573-5.027c-.1-.304-.283-1.003-.556-2.094h-.06c-.21.913-.393 1.614-.55 2.11l-1.62 5.01h-1.5l-2.34-8.567h1.36l1.265 4.916c.29 1.127.456 1.886.498 2.278h.062a21.493 21.493 0 0 1 .61-2.28l1.573-4.915h1.407l1.533 4.916c.293.897.49 1.65.595 2.263h.064a7.1 7.1 0 0 1 .168-.87c.09-.39.633-2.496 1.632-6.31h1.345l-2.372 8.57h-1.543z"/><path fill-rule="evenodd" clip-rule="evenodd" fill="#6E6F71" d="M5.515 166.08c1.51 0 2.61.295 3.3.88.69.586 1.035 1.488 1.035 2.702 0 1.215-.354 2.104-1.062 2.668-.71.562-1.79.842-3.245.842H4.235v2.746H2.04v-9.837h3.475zm.198 5.193c.73 0 1.228-.148 1.492-.443.262-.295.393-.727.393-1.295 0-.567-.17-.97-.513-1.21-.343-.24-.875-.36-1.598-.36H4.235v3.308h1.478zm13.423-1.927c0 1.575-.623 2.593-1.87 3.052l2.49 3.52h-2.702l-2.18-3.14h-1.52v3.14h-2.196v-9.837h3.73c1.53 0 2.618.26 3.27.776.653.516.978 1.346.978 2.49zm-4.177 1.533c.746 0 1.26-.123 1.53-.367.273-.245.41-.63.41-1.16s-.14-.895-.423-1.092c-.282-.196-.774-.295-1.478-.295h-1.647v2.913h1.605-.002zm13.45.06c0-.875-.28-1.623-.845-2.244-.563-.618-1.255-.928-2.076-.928-.823 0-1.51.31-2.076.927-.562.62-.845 1.37-.845 2.245 0 .878.282 1.623.844 2.238.564.615 1.253.922 2.075.922.82 0 1.512-.307 2.075-.922.563-.615.844-1.36.844-2.238zm.745 3.618c-.995.97-2.22 1.456-3.673 1.456-1.455 0-2.68-.485-3.673-1.457-.996-.972-1.49-2.18-1.49-3.624 0-1.446.494-2.653 1.49-3.623.993-.973 2.217-1.457 3.672-1.457 1.454 0 2.678.484 3.673 1.456.994.97 1.49 2.177 1.49 3.623 0 1.444-.496 2.652-1.49 3.623zm6.416-8.48c1.756 0 3.1.43 4.04 1.29.938.858 1.407 2.05 1.407 3.58 0 1.53-.457 2.74-1.372 3.63-.915.893-2.31 1.338-4.186 1.338h-3.364v-9.837h3.475zm.113 7.895c1.004 0 1.777-.252 2.316-.76.54-.507.81-1.243.81-2.21 0-.965-.27-1.71-.81-2.23s-1.368-.78-2.485-.78H34.29v5.98h1.393zm9.428-.597c.367.454.86.682 1.478.682s1.11-.228 1.47-.682c.362-.457.543-1.078.543-1.865v-5.43h2.196v5.502c0 1.426-.395 2.52-1.182 3.285-.788.766-1.797 1.148-3.027 1.148-1.23 0-2.24-.385-3.032-1.154-.794-.77-1.19-1.86-1.19-3.28v-5.5h2.196v5.43c0 .79.183 1.41.55 1.867zm12.076.597c1.078 0 1.96-.426 2.645-1.28l1.407 1.45c-1.116 1.256-2.43 1.884-3.947 1.884-1.513 0-2.76-.48-3.742-1.436-.98-.955-1.47-2.162-1.47-3.623 0-1.457.5-2.675 1.497-3.65 1-.976 2.223-1.464 3.667-1.464 1.614 0 2.963.615 4.053 1.843l-1.365 1.546c-.694-.862-1.558-1.294-2.59-1.294-.826 0-1.532.27-2.117.81-.585.538-.88 1.266-.88 2.18 0 .916.277 1.65.83 2.204.554.553 1.225.83 2.014.83zm9.54-5.994v7.937H64.53v-7.937h-2.786v-1.9h7.768v1.9h-2.786zM5.514 180.083c1.755 0 3.102.43 4.04 1.29.938.857 1.407 2.05 1.407 3.58s-.46 2.74-1.372 3.63c-.915.89-2.31 1.337-4.188 1.337H2.04v-9.835h3.475zm.113 7.894c1.005 0 1.775-.253 2.316-.76.54-.507.808-1.242.808-2.21 0-.965-.27-1.708-.807-2.23-.54-.52-1.37-.78-2.484-.78H4.234v5.98h1.393zm13.917-7.894v1.956h-4.897v2.025h4.404v1.87h-4.403v2.042H19.7v1.942h-7.248v-9.837h7.093zm5.332 6.263l2.506-6.262h2.378l-3.953 9.835H23.95l-3.954-9.836h2.378l2.503 6.262zm12.736-6.263v1.956h-4.898v2.025h4.406v1.87h-4.405v2.042h5.052v1.942H30.52v-9.837h7.093zm1.7 9.836v-9.836h2.197v7.88H45.7v1.955h-6.39zm14.848-4.974c0-.877-.28-1.626-.843-2.244-.564-.62-1.255-.93-2.077-.93-.82 0-1.512.31-2.075.93-.563.618-.845 1.367-.845 2.244 0 .877.282 1.622.845 2.237.563.614 1.255.92 2.075.92.822 0 1.513-.306 2.077-.92.562-.615.844-1.36.844-2.237zm.746 3.615c-.994.974-2.218 1.46-3.672 1.46-1.454 0-2.68-.486-3.674-1.458-.994-.97-1.49-2.176-1.49-3.622 0-1.445.496-2.652 1.49-3.624.994-.97 2.22-1.456 3.674-1.456 1.454 0 2.677.487 3.672 1.455.994.973 1.492 2.18 1.492 3.625 0 1.446-.498 2.653-1.492 3.624zm6.417-8.476c1.51 0 2.61.293 3.3.88.69.585 1.034 1.486 1.034 2.702s-.354 2.104-1.062 2.667c-.708.563-1.79.843-3.244.843h-1.307v2.744h-2.196v-9.836h3.477zm.196 5.192c.73 0 1.23-.146 1.49-.442.264-.295.395-.727.395-1.295s-.173-.973-.514-1.21c-.34-.24-.873-.36-1.596-.36H60.04v3.306h1.478zm14.253-1.547l-2.66 5.374h-1.308l-2.646-5.375v6.19h-2.195v-9.836h2.968l2.533 5.404 2.548-5.404h2.955v9.836h-2.197v-6.19zm11.3-3.646v1.956h-4.898v2.025h4.405v1.87h-4.404v2.042h5.052v1.942H79.98v-9.837h7.093zm8.583 0h2.195v9.836h-2.194l-4.686-6.164v6.163h-2.194v-9.837h2.055l4.828 6.332v-6.333zm8.373 1.9v7.936h-2.196v-7.937h-2.787v-1.9h7.767v1.9h-2.785z"/><path fill-rule="evenodd" clip-rule="evenodd" fill="#98CA3C" d="M157.292 85.052h95.4c2.364 0 4.29 2.023 4.29 4.497v3.944c0 2.475-1.926 4.495-4.29 4.495h-95.4c-2.364 0-4.292-2.02-4.292-4.496V89.55c0-2.477 1.928-4.498 4.292-4.498z"/><path fill-rule="evenodd" clip-rule="evenodd" fill="#06C1E5" d="M177.48 114.02h75.195c2.373 0 4.308 1.87 4.308 4.16v3.65c0 2.29-1.935 4.16-4.308 4.16H177.48c-2.372 0-4.307-1.87-4.307-4.16v-3.65c0-2.29 1.935-4.16 4.308-4.16z"/><path fill-rule="evenodd" clip-rule="evenodd" fill="#FFCB0A" d="M261.182 220.063h22.537c2.31 0 4.196 2.025 4.196 4.5v3.955c0 2.48-1.888 4.503-4.198 4.503H261.18c-2.31 0-4.2-2.02-4.2-4.5v-3.955c0-2.48 1.89-4.5 4.2-4.5zM279.356 249.063h37.33c2.354 0 4.272 2.022 4.272 4.502v3.954c0 2.477-1.923 4.5-4.273 4.5h-37.33c-2.35 0-4.272-2.023-4.272-4.5v-3.956c0-2.48 1.923-4.502 4.272-4.502z"/><path fill-rule="evenodd" clip-rule="evenodd" fill="#06C1E5" d="M325.464 278.104h95.193c2.363 0 4.295 1.847 4.295 4.112v3.61c0 2.264-1.932 4.112-4.295 4.112h-95.193c-2.363 0-4.297-1.848-4.297-4.11v-3.612c0-2.265 1.934-4.112 4.297-4.112zM384.28 306.063h52.44c2.33 0 4.238 2.01 4.238 4.477v3.926c0 2.463-1.907 4.472-4.237 4.472h-52.44c-2.33 0-4.237-2.01-4.237-4.472v-3.926c0-2.468 1.907-4.477 4.237-4.477z"/><path fill-rule="evenodd" clip-rule="evenodd" fill="#A64786" d="M429.294 335.02h41.38c2.34 0 4.243 2.024 4.243 4.502v3.954c0 2.48-1.902 4.503-4.242 4.503h-41.38c-2.335 0-4.244-2.026-4.244-4.505v-3.954c0-2.477 1.91-4.5 4.245-4.5zM452.23 364.188h18.5c2.286 0 4.145 1.84 4.145 4.096v3.595c0 2.255-1.86 4.1-4.146 4.1h-18.5c-2.283 0-4.148-1.843-4.148-4.1v-3.597c0-2.255 1.865-4.096 4.146-4.096zM463.19 392.045h8.662c2.264 0 4.106 1.87 4.106 4.16v3.653c0 2.293-1.842 4.163-4.106 4.163h-8.662c-2.258 0-4.107-1.87-4.107-4.16v-3.653c0-2.293 1.85-4.16 4.106-4.16z"/><path fill-rule="evenodd" clip-rule="evenodd" fill="#EC1B5E" d="M147.357 56.02h4.35c2.363 0 4.293 2.02 4.293 4.496v3.947c0 2.477-1.93 4.496-4.295 4.496h-4.348c-2.365 0-4.294-2.02-4.294-4.498v-3.947c0-2.476 1.93-4.495 4.294-4.495z"/><path fill="#06C1E5" d="M479.545 199.538c.096 0 .17.088.17.196 0 .11-.074.197-.17.197H.17c-.093 0-.17-.086-.17-.195 0-.108.077-.196.17-.196h479.375z"/><path fill="#EC1B5E" d="M390.964 6.394V402.83h-.917V6.394h.917"/><path fill-rule="evenodd" clip-rule="evenodd" fill="#FFF" d="M390.25 3.65a5.012 5.012 0 0 1 5.014 5.015 5.013 5.013 0 0 1-10.028 0 5.016 5.016 0 0 1 5.014-5.015z"/><path fill="#EC1B5E" d="M390.25 3.064c1.548 0 2.947.627 3.958 1.64a5.562 5.562 0 0 1 1.645 3.96 5.57 5.57 0 0 1-1.645 3.962 5.57 5.57 0 0 1-3.958 1.64 5.604 5.604 0 0 1-5.602-5.6c0-1.548.63-2.948 1.643-3.96a5.578 5.578 0 0 1 3.96-1.642zm3.133 2.47c-.8-.802-1.91-1.297-3.133-1.297s-2.33.495-3.132 1.297c-.8.8-1.293 1.908-1.293 3.13a4.417 4.417 0 0 0 4.425 4.428 4.416 4.416 0 0 0 3.133-1.296 4.42 4.42 0 0 0 1.298-3.13 4.422 4.422 0 0 0-1.296-3.132z"/><path fill-rule="evenodd" clip-rule="evenodd" fill="#EC1B5E" d="M260.656 56.02h4.687c2.547 0 4.626 2.025 4.626 4.507v3.957c0 2.482-2.08 4.506-4.628 4.506h-4.687c-2.545 0-4.625-2.024-4.625-4.506v-3.957c0-2.482 2.08-4.506 4.626-4.506z"/></svg>