<svg width="23" height="20" fill="none" xmlns="http://www.w3.org/2000/svg"><path fill-rule="evenodd" clip-rule="evenodd" d="M19.386.84a2.97 2.97 0 0 1 2.97 2.97v9.406a2.97 2.97 0 0 1-2.97 2.97h-3.883v3.253c0 .273-.22.495-.495.495h-6.76a.495.495 0 0 1-.495-.495v-3.253H3.87a2.97 2.97 0 0 1-2.97-2.97V3.81A2.97 2.97 0 0 1 3.87.84h15.516zm-.495 1.98c.82 0 1.485.665 1.485 1.485v8.416c0 .82-.665 1.485-1.485 1.485H4.535c-.82 0-1.485-.665-1.485-1.485V4.305A1.486 1.486 0 0 1 4.535 2.82H18.89z" fill="#fff"/></svg>