<svg fill="none" height="99" width="88" viewBox="0 0 88 99" xmlns="http://www.w3.org/2000/svg"><linearGradient id="a" gradientUnits="userSpaceOnUse" x1="87.544" x2="-10.813" y1="69.324" y2="30.363"><stop offset="0" stop-color="#078e86"/><stop offset=".324" stop-color="#106f91"/><stop offset=".604" stop-color="#9b436b"/><stop offset="1" stop-color="#e35f35"/></linearGradient><g fill="url(#a)"><path d="M44.038 13.724a6.718 6.718 0 0 0 6.593-5.434c4.266.677 8.315 2 12.046 3.867a.763.763 0 1 0 .683-1.365A42.943 42.943 0 0 0 50.75 6.763a6.716 6.716 0 0 0-13.422 0 42.938 42.938 0 0 0-11.372 3.433.763.763 0 1 0 .64 1.386 41.412 41.412 0 0 1 10.85-3.292 6.717 6.717 0 0 0 6.593 5.434zm0 84.963a6.716 6.716 0 0 0 6.711-6.47 42.943 42.943 0 0 0 12.611-4.03.763.763 0 1 0-.683-1.364 41.413 41.413 0 0 1-12.046 3.867 6.718 6.718 0 0 0-13.186 0 41.412 41.412 0 0 1-10.85-3.293.763.763 0 1 0-.64 1.386 42.936 42.936 0 0 0 11.372 3.434 6.716 6.716 0 0 0 6.711 6.47zM2.398 46.915a41.517 41.517 0 0 1 2.658-12.317 6.717 6.717 0 0 0 6.602-11.415A41.953 41.953 0 0 1 20.56 15a.763.763 0 0 0-.86-1.26 43.487 43.487 0 0 0-9.306 8.578 6.716 6.716 0 0 0-6.72 11.619 43.038 43.038 0 0 0-2.8 12.886.763.763 0 1 0 1.523.093zm72.614 20.458a6.718 6.718 0 0 0 1.406 8.424 41.965 41.965 0 0 1-8 7.55.763.763 0 0 0 .893 1.237 43.49 43.49 0 0 0 8.37-7.921 6.716 6.716 0 0 0 6.72-11.619 43.04 43.04 0 0 0 2.8-12.887.763.763 0 0 0-1.523-.092 41.517 41.517 0 0 1-2.658 12.317 6.718 6.718 0 0 0-8.008 2.991zm-61.949 0a6.718 6.718 0 0 0-8.007-2.991 41.516 41.516 0 0 1-2.658-12.317.763.763 0 0 0-1.524.093 43.037 43.037 0 0 0 2.801 12.886 6.716 6.716 0 0 0 6.72 11.619 43.485 43.485 0 0 0 9.306 8.579.763.763 0 1 0 .86-1.262 41.954 41.954 0 0 1-8.903-8.183 6.718 6.718 0 0 0 1.405-8.424zm61.95-35.766a6.718 6.718 0 0 0 8.007 2.991 41.516 41.516 0 0 1 2.658 12.317.763.763 0 0 0 1.523-.093 43.039 43.039 0 0 0-2.8-12.886 6.716 6.716 0 0 0-6.72-11.62 43.492 43.492 0 0 0-8.37-7.92.763.763 0 0 0-.893 1.237 41.964 41.964 0 0 1 8 7.55 6.718 6.718 0 0 0-1.406 8.424z"/><path clip-rule="evenodd" d="M70.792 49.49c0 14.775-11.978 26.754-26.754 26.754-14.776 0-26.754-11.979-26.754-26.755s11.978-26.754 26.754-26.754c14.776 0 26.754 11.978 26.754 26.754zm-7.25 0c0 10.771-8.732 19.504-19.504 19.504S24.534 60.26 24.534 49.489s8.732-19.504 19.504-19.504 19.504 8.732 19.504 19.504z" fill-rule="evenodd"/></g></svg>