<svg width="97" height="87" viewBox="0 0 97 87" fill="none" xmlns="http://www.w3.org/2000/svg"><path fill-rule="evenodd" clip-rule="evenodd" d="M49.35 6.251l-7.235-4.41a10.308 10.308 0 0 0-10.561-.1l-14.24 8.314a11.071 11.071 0 0 0-5.49 9.56v2.13L5.5 26.373a11.071 11.071 0 0 0-4.535 8.936v15.11c0 3.566 1.718 6.915 4.616 8.994l6.243 4.48v2.41c0 3.7 1.85 7.157 4.928 9.21l14.083 9.394a10.308 10.308 0 0 0 11.979-.385l6.533-4.993 6.247 4.873a10.308 10.308 0 0 0 12.14.393L81.386 75.5a11.071 11.071 0 0 0 4.84-9.152v-2.476l6.113-4.476a11.071 11.071 0 0 0 4.53-8.932V35.261c0-3.493-1.65-6.782-4.45-8.871l-6.192-4.623V19.57c0-3.901-2.053-7.515-5.405-9.511L67.011 1.832a10.308 10.308 0 0 0-10.72.102L49.35 6.251zM38.539 7.71a3.436 3.436 0 0 0-3.52-.034l-14.24 8.313a4.2 4.2 0 0 0-2.083 3.627v3.874a3.436 3.436 0 0 1-1.407 2.773l-7.732 5.655a4.2 4.2 0 0 0-1.72 3.39v15.11a4.2 4.2 0 0 0 1.75 3.411l7.677 5.51a3.436 3.436 0 0 1 1.432 2.79v4.173a4.2 4.2 0 0 0 1.87 3.494l14.082 9.394a3.436 3.436 0 0 0 3.993-.129l6.092-4.655a3.054 3.054 0 0 0 1.2-2.427V56.093h-6.86l-4.164 2.797a3.762 3.762 0 1 1-.701-1.335l4.218-2.834a.75.75 0 0 1 .418-.127h7.088V43.285H27.771a3.763 3.763 0 1 1 .004-1.499h18.157V30.7h-7.088a.787.787 0 0 1-.153-.016.75.75 0 0 1-.265-.112l-4.271-2.87a3.762 3.762 0 1 1 .73-1.316l4.187 2.814h6.86V13.931a3.054 3.054 0 0 0-1.464-2.608l-5.93-3.613zm14.265 48.383v15.926c0 .941.434 1.83 1.176 2.408l5.84 4.555a3.436 3.436 0 0 0 4.047.131l13.652-9.293a4.2 4.2 0 0 0 1.836-3.472V62.13c0-1.096.522-2.125 1.406-2.772l7.517-5.506a4.2 4.2 0 0 0 1.718-3.388V35.261a4.2 4.2 0 0 0-1.687-3.365l-7.573-5.653a3.436 3.436 0 0 1-1.38-2.753V19.57a4.2 4.2 0 0 0-2.051-3.608L63.494 7.735a3.436 3.436 0 0 0-3.574.034l-5.675 3.53a3.054 3.054 0 0 0-1.44 2.594v15.306h6.798l3.552-2.386a3.762 3.762 0 1 1 .88 1.215l-3.786 2.543a.75.75 0 0 1-.418.128h-7.027v11.087H70.1a3.763 3.763 0 0 1 7.452.74 3.762 3.762 0 0 1-7.448.76h-17.3v11.308h7.027a.75.75 0 0 1 .418.127l3.724 2.502a3.762 3.762 0 1 1-.852 1.233l-3.518-2.363h-6.799z" fill="url(#paint0_linear)"/><defs><linearGradient id="paint0_linear" x1="96.868" y1="60.885" x2="-3.645" y2="10.854" gradientUnits="userSpaceOnUse"><stop stop-color="#078E86"/><stop offset=".324" stop-color="#106F91"/><stop offset=".604" stop-color="#9B436B"/><stop offset="1" stop-color="#E35F35"/></linearGradient></defs></svg>