<svg width="87" height="88" viewBox="0 0 87 88" fill="none" xmlns="http://www.w3.org/2000/svg">
<path fill-rule="evenodd" clip-rule="evenodd" d="M30.6754 19.1988C30.6754 25.5372 25.5372 30.6754 19.1988 30.6754C12.8604 30.6754 7.72217 25.5372 7.72217 19.1988C7.72217 12.8604 12.8604 7.72217 19.1988 7.72217C22.4879 7.72217 25.4538 9.10576 27.5463 11.3227C25.1164 12.5353 22.844 14.0163 20.7679 15.7267C20.2602 15.4806 19.6903 15.3426 19.0882 15.3426C16.9581 15.3426 15.2314 17.0694 15.2314 19.1995C15.2314 21.3296 16.9581 23.0563 19.0882 23.0563C21.2183 23.0563 22.9451 21.3296 22.9451 19.1995C22.9451 18.2442 22.5978 17.3701 22.0225 16.6964C24.0259 15.0799 26.2152 13.6849 28.5532 12.5483C29.8895 14.4245 30.6754 16.7199 30.6754 19.1988ZM19.1988 0C25.863 0 31.7341 3.39542 35.1766 8.55065C37.8466 7.91446 40.6327 7.57763 43.4973 7.57763C46.1304 7.57763 48.6978 7.86228 51.17 8.40268C54.6254 3.33055 60.4478 0 67.048 0C77.6512 0 86.2467 8.5956 86.2467 19.1988C86.2467 25.6263 83.0882 31.3162 78.2385 34.8008C78.91 37.5396 79.2659 40.4018 79.2659 43.3463C79.2659 46.5141 78.854 49.5859 78.0808 52.511C83.0196 55.9849 86.2467 61.7281 86.2467 68.225C86.2467 78.8282 77.6512 87.4238 67.048 87.4238C56.4447 87.4238 47.8491 78.8282 47.8491 68.225C47.8491 57.6218 56.4447 49.0262 67.048 49.0262C70.5715 49.0262 73.8734 49.9754 76.7118 51.6321C77.3714 48.979 77.7215 46.2036 77.7215 43.3463C77.7215 40.7177 77.4253 38.159 76.8646 35.7015C73.9922 37.4139 70.635 38.3976 67.048 38.3976C56.4447 38.3976 47.8491 29.802 47.8491 19.1988C47.8491 15.7839 48.7407 12.5771 50.3039 9.79877C48.1045 9.35501 45.8284 9.12206 43.4973 9.12206C40.9296 9.12206 38.428 9.40475 36.022 9.94075C37.536 12.6862 38.3976 15.8419 38.3976 19.1988C38.3976 29.802 29.802 38.3976 19.1988 38.3976C8.5956 38.3976 0 29.802 0 19.1988C0 8.5956 8.5956 0 19.1988 0ZM67.048 50.5706C70.4356 50.5706 73.6003 51.5248 76.2882 53.179C75.2615 56.6079 73.7116 59.8109 71.731 62.6953C70.4676 61.6242 68.8325 60.9782 67.0464 60.9782C63.0434 60.9782 59.7983 64.2234 59.7983 68.2264C59.7983 72.2295 63.0434 75.4746 67.0464 75.4746C71.0495 75.4746 74.2946 72.2295 74.2946 68.2264C74.2946 66.5776 73.7441 65.0574 72.8168 63.8395C74.8855 60.8853 76.5191 57.6038 77.6247 54.0883C81.9218 57.3084 84.7023 62.442 84.7023 68.225C84.7023 77.9752 76.7982 85.8794 67.048 85.8794C57.2977 85.8794 49.3936 77.9752 49.3936 68.225C49.3936 58.4748 57.2977 50.5706 67.048 50.5706ZM30.6754 68.225C30.6754 74.5634 25.5372 79.7016 19.1988 79.7016C12.8604 79.7016 7.72217 74.5634 7.72217 68.225C7.72217 61.8866 12.8604 56.7484 19.1988 56.7484C25.5372 56.7484 30.6754 61.8866 30.6754 68.225ZM38.3976 68.225C38.3976 78.8282 29.802 87.4238 19.1988 87.4238C8.5956 87.4238 0 78.8282 0 68.225C0 61.4238 3.53647 55.4486 8.87084 52.038C8.80227 51.9522 8.75099 51.8504 8.72363 51.7365C8.55605 51.0392 8.40824 50.3327 8.28088 49.6174C8.15353 48.9022 8.04838 48.1881 7.96495 47.4758C7.91533 47.0522 8.2185 46.6686 8.64209 46.6189C9.06567 46.5693 9.44928 46.8725 9.49889 47.2961C9.57876 47.978 9.67943 48.6617 9.8014 49.3467C9.91647 49.9929 10.049 50.6316 10.1983 51.2624C12.8828 49.835 15.9464 49.0262 19.1988 49.0262C29.802 49.0262 38.3976 57.6218 38.3976 68.225ZM67.048 30.6754C73.3863 30.6754 78.5246 25.5372 78.5246 19.1988C78.5246 12.8604 73.3863 7.72217 67.048 7.72217C60.7096 7.72217 55.5713 12.8604 55.5713 19.1988C55.5713 25.5372 60.7096 30.6754 67.048 30.6754ZM9.64963 38.2092C9.71359 37.7875 9.42362 37.3938 9.00196 37.3299C8.5803 37.2659 8.18663 37.5559 8.12266 37.9775C7.90768 39.3948 7.77716 40.8341 7.73558 42.2891C7.72339 42.7154 8.05911 43.0709 8.48542 43.0831C8.91173 43.0952 9.2672 42.7595 9.27938 42.3332C9.31916 40.9414 9.444 39.5647 9.64963 38.2092Z" fill="url(#paint0_linear)"/>
<defs>
<linearGradient id="paint0_linear" x1="76.9438" y1="67.0622" x2="-2.53123" y2="6.87626" gradientUnits="userSpaceOnUse">
<stop stop-color="#078E86"/>
<stop offset="0.323651" stop-color="#106F91"/>
<stop offset="0.603752" stop-color="#9B436B"/>
<stop offset="1" stop-color="#E35F35"/>
</linearGradient>
</defs>
</svg>
