<svg width="97" height="91" viewBox="0 0 97 91" fill="none" xmlns="http://www.w3.org/2000/svg"><path fill-rule="evenodd" clip-rule="evenodd" d="M21.844 88.822c7.328 4.234 16.702 1.725 20.936-5.603l5.501-9.523 5.104 8.846c3.454 5.987 11.107 8.04 17.093 4.586 5.987-3.454 8.04-11.107 4.586-17.094l-5.262-9.12h11.491c8.364 0 15.145-6.78 15.145-15.144s-6.78-15.145-15.145-15.145H70.44l4.565-7.907C78.411 16.82 76.39 9.276 70.491 5.87c-5.9-3.406-13.443-1.385-16.849 4.515l-4.612 7.989-5.837-10.226C39.109.994 30-1.494 22.846 2.589c-7.153 4.084-9.642 13.194-5.558 20.347L23.375 33.6l-10.697-.052C5.994 33.515.548 38.908.516 45.592c-.033 6.684 5.36 12.13 12.044 12.162l9.507.047-5.826 10.085c-4.234 7.328-1.726 16.702 5.603 20.936zm8.424-30.982l-7.862 13.608a8.204 8.204 0 1 0 14.208 8.208l7.558-13.082-5.014-8.69-8.89-.044zm14.77 7.235l-4.796-8.313a.75.75 0 0 0-.646-.375l-8.464-.041 5.73-9.92a3.56 3.56 0 0 0 .01-3.547l-4.416-7.736 8.164.04a.75.75 0 0 0 .653-.375l4.495-7.786 5.097 8.929a3.56 3.56 0 0 0 3.092 1.795h10.64l-4.731 8.196a.75.75 0 0 0 0 .75l4.097 7.102H53.61a3.56 3.56 0 0 0-3.083 1.779l-5.49 9.502zm4.11 7.122l5.535 9.596c3.04 5.27 9.777 7.076 15.046 4.036 5.27-3.04 7.077-9.776 4.036-15.045l-5.694-9.87H55.666l-6.519 11.283zm16.546-18.404h15.6a8.024 8.024 0 0 0 0-16.047H66.328l-4.949 8.571 4.314 7.477zm3.015-23.168l4.998-8.656c2.992-5.182 1.216-11.809-3.966-14.8-5.182-2.993-11.808-1.217-14.8 3.965l-5.05 8.747 6.133 10.744H68.71zm-23.802-5.11l-7.899-13.837a7.793 7.793 0 1 0-13.536 7.728l8.126 14.234 8.594.042 4.715-8.167zm-20.673 9.588l5.44 9.53-6.743 11.673-10.364-.051c-5.856-.029-10.58-4.8-10.552-10.656.028-5.856 4.8-10.58 10.656-10.552l11.563.056z" fill="url(#paint0_linear)"/><defs><linearGradient id="paint0_linear" x1="96.438" y1="63.946" x2="-5.827" y2="15.262" gradientUnits="userSpaceOnUse"><stop stop-color="#078E86"/><stop offset=".324" stop-color="#106F91"/><stop offset=".604" stop-color="#9B436B"/><stop offset="1" stop-color="#E35F35"/></linearGradient></defs></svg>