<svg width="97" height="88" viewBox="0 0 97 88" fill="none" xmlns="http://www.w3.org/2000/svg"><path fill-rule="evenodd" clip-rule="evenodd" d="M61.4 20.407A7.026 7.026 0 1 1 68.397 8.22 7.026 7.026 0 0 1 61.4 20.407zm-3.544 6.176a14.099 14.099 0 0 1-6.505-8.194l-2.923 5.06 5.151 9.022h12.313l2.583-4.47c-3.463.905-7.27.505-10.619-1.418zm-6.003 5.889L47.56 24.95l-4.345 7.52h8.638zM47.568 21.94l3.31-5.73a14.085 14.085 0 0 1 1.75-8.94C56.518.495 65.164-1.846 71.94 2.044c6.776 3.889 9.117 12.535 5.228 19.311a14.084 14.084 0 0 1-6.523 5.886l-3.021 5.23h5.674a14.085 14.085 0 0 1 8.615-2.925c7.814 0 14.147 6.334 14.147 14.147 0 7.814-6.334 14.147-14.147 14.147a14.087 14.087 0 0 1-8.816-3.082h-6.795l2.606 4.566a14.1 14.1 0 0 1 8.42 6.498c3.938 6.749 1.659 15.411-5.09 19.349-6.748 3.937-15.411 1.658-19.348-5.09A14.083 14.083 0 0 1 50.993 72l-3.085-5.404-2.7 4.672a14.085 14.085 0 0 1-1.762 8.845c-3.889 6.777-12.535 9.117-19.311 5.228-6.777-3.89-9.118-12.535-5.228-19.312a14.084 14.084 0 0 1 6.611-5.925l3.09-5.347h-5.63a14.087 14.087 0 0 1-8.815 3.082C6.349 57.84.016 51.507.016 43.693c0-7.813 6.333-14.147 14.147-14.147 3.242 0 6.23 1.091 8.615 2.925h5.649l-2.825-4.947a14.085 14.085 0 0 1-6.855-5.962c-3.938-6.749-1.659-15.412 5.09-19.349 6.748-3.937 15.411-1.658 19.348 5.09a14.093 14.093 0 0 1 1.66 9.869l2.723 4.769zM27.715 28.2c3.407.805 7.117.354 10.38-1.55a14.09 14.09 0 0 0 6.187-7.441l2.417 4.234-5.215 9.027H30.153l-2.438-4.27zm1.567 5.77H24.44a14.098 14.098 0 0 1 3.87 9.722c0 3.689-1.411 7.048-3.724 9.566h4.889l5.442-9.42-5.634-9.868zm6.502 8.365l-4.775-8.365h9.608l-4.833 8.365zm.86 1.508l5.705-9.873h10.36l6.122 10.724-4.949 8.564H42.02l-5.375-9.415zm-.867 1.502l-4.572 7.913h9.089l-4.517-7.913zm5.372 9.412H30.34l-2.662 4.607a14.1 14.1 0 0 1 10.541 1.438 14.1 14.1 0 0 1 6.528 8.27l2.301-3.983-5.898-10.332zm7.627 10.336l2.584 4.526a14.106 14.106 0 0 1 6.62-8.888 14.086 14.086 0 0 1 8.974-1.808l-2.378-4.166h-9.828l-5.972 10.336zm16.67-11.835h6.044a14.097 14.097 0 0 1-3.724-9.566c0-3.765 1.472-7.188 3.87-9.722h-4.878l-6.199 10.728 4.887 8.56zm-5.755-7.057l4.029 7.057h-8.106l4.077-7.057zm.008-3.01l5.327-9.221H54.435l5.264 9.22zM47.916 63.587l-5.04-8.829h10.14l-5.1 8.83zm-13.41-43.086a7.026 7.026 0 1 1-7.08-12.137 7.026 7.026 0 0 1 7.08 12.137zM14.164 50.72a7.026 7.026 0 1 0 0-14.052 7.026 7.026 0 0 0 0 14.052zm67.75 0a7.026 7.026 0 1 0 0-14.052 7.026 7.026 0 0 0 0 14.052zM59.04 76.492a7.026 7.026 0 1 0 12.138-7.081 7.026 7.026 0 0 0-12.138 7.08zm-33.957-6.917A7.026 7.026 0 1 0 37.27 76.57a7.026 7.026 0 0 0-12.187-6.995z" fill="url(#paint0_linear)"/><defs><linearGradient id="paint0_linear" x1="96.06" y1="61.242" x2="-4.889" y2="11.356" gradientUnits="userSpaceOnUse"><stop stop-color="#078E86"/><stop offset=".324" stop-color="#106F91"/><stop offset=".604" stop-color="#9B436B"/><stop offset="1" stop-color="#E35F35"/></linearGradient></defs></svg>