<svg width="112" height="94" viewBox="0 0 112 94" fill="none" xmlns="http://www.w3.org/2000/svg"><path fill-rule="evenodd" clip-rule="evenodd" d="M55.581 86.02c-3.867 0-8.323-3.222-12.026-10.617a44.618 44.618 0 0 1-1.863-4.294l.139-.408h9.555a5.222 5.222 0 0 0 10.346-.999 5.22 5.22 0 0 0-10.417-.5H42.31c.974-3.185 1.748-6.635 2.287-10.28h27.998c-1 6.374-2.748 12.007-4.987 16.48-3.703 7.395-8.16 10.618-12.027 10.618zm17.233-28.598h-28.01a84.7 84.7 0 0 0 .677-10.072h28.047a80.102 80.102 0 0 1-.714 10.072zm7.18 0c.403-3.246.627-6.618.655-10.072H101a5.22 5.22 0 1 0 .004-1.499H80.649c-.03-3.49-.26-6.897-.672-10.175h7.84a5.222 5.222 0 0 0 10.345-.998 5.22 5.22 0 0 0-10.417-.5h-7.97c-1.069-7.399-3.074-14.09-5.8-19.534C69.892 6.489 63.594.094 55.582.094c-7.629 0-13.703 5.796-17.791 13.39-3.817-6.476-8.87-10.58-14.567-10.58-6.376 0-11.947 5.143-15.88 12.998-2.57 5.135-4.495 11.52-5.527 18.645a.746.746 0 0 0-.08.566 84.657 84.657 0 0 0-.772 11.504c0 3.95.264 7.779.761 11.422a.755.755 0 0 0 .065.463c1.025 7.2 2.96 13.651 5.553 18.83 3.933 7.855 9.504 12.998 15.88 12.998 5.696 0 10.75-4.104 14.567-10.579 4.088 7.593 10.162 13.39 17.79 13.39 8.013 0 14.311-6.395 18.394-14.55 2.743-5.478 4.756-12.217 5.82-19.67h8.046a5.222 5.222 0 0 0 10.32-1.115 5.22 5.22 0 0 0-10.426-.384h-7.74zm-76.627 1.5c.558 3.695 1.36 7.173 2.366 10.36a.747.747 0 0 1 .338-.08h27.49c-.937-3.218-1.677-6.665-2.192-10.28H3.367zm35.202 0c.553 3.532 1.337 6.837 2.307 9.844.931-3.046 1.678-6.348 2.205-9.844h-4.513zm4.723-1.5H38.35a80.102 80.102 0 0 1-.714-10.072h6.347a83.077 83.077 0 0 1-.69 10.072zm-12.123 0H3.156a83.107 83.107 0 0 1-.689-10.072h28.047c.028 3.454.252 6.826.655 10.072zm2.85 13.279H6.2a48.957 48.957 0 0 0 2.484 5.96c3.852 7.695 9.036 12.17 14.54 12.17 5.135 0 9.993-3.897 13.75-10.672-1.116-2.287-2.106-4.785-2.956-7.458zm39.509-24.85H45.48a84.63 84.63 0 0 0-.694-10.175h28.01c.445 3.232.7 6.64.731 10.175zM42.232 23.78c.999 3.215 1.792 6.705 2.345 10.397h27.996c-1.003-6.319-2.741-11.903-4.965-16.345-3.703-7.395-8.16-10.617-12.027-10.617-3.867 0-8.323 3.222-12.026 10.617a44.618 44.618 0 0 0-1.863 4.293l.053.156h9.57a5.22 5.22 0 1 1 .072 1.499h-9.155zm-8.132-1.5a54.935 54.935 0 0 1 2.875-7.205C33.218 8.301 28.36 4.404 23.225 4.404c-5.504 0-10.688 4.475-14.54 12.17a48.686 48.686 0 0 0-2.396 5.707H34.1zM5.804 23.73c.083.032.173.05.267.05h27.565c-.961 3.249-1.72 6.736-2.248 10.397h-28c.57-3.73 1.389-7.238 2.416-10.446zM2.467 45.852c.031-3.515.276-6.923.707-10.175h28.012a87.617 87.617 0 0 0-.672 10.175H2.467zm38.41-21.382c-.958 2.968-1.734 6.226-2.287 9.708h4.47c-.526-3.446-1.265-6.702-2.184-9.708zm2.398 11.207h-4.907c-.446 3.232-.7 6.64-.733 10.175h6.346a83.03 83.03 0 0 0-.706-10.175z" fill="url(#paint0_linear)"/><defs><linearGradient id="paint0_linear" x1="111.39" y1="65.374" x2="-1.2" y2="5.522" gradientUnits="userSpaceOnUse"><stop stop-color="#078E86"/><stop offset=".324" stop-color="#106F91"/><stop offset=".604" stop-color="#9B436B"/><stop offset="1" stop-color="#E35F35"/></linearGradient></defs></svg>