<svg width="107" height="70" viewBox="0 0 107 70" fill="none" xmlns="http://www.w3.org/2000/svg"><path fill-rule="evenodd" clip-rule="evenodd" d="M46.66 5.863a5 5 0 0 1 5-5h50a5 5 0 0 1 5 5v10.229a5 5 0 0 1-5 5H70.644v3.986h9.168a5 5 0 0 1 5 5v10.229a5 5 0 0 1-5 5h-50a5 5 0 0 1-5-5V30.078a5 5 0 0 1 5-5h38.832v-3.986H51.66a5 5 0 0 1-5-5V5.863zm27.983 5.114a4.888 4.888 0 1 1-9.775 0 4.888 4.888 0 0 1 9.775 0zm-42.83 21.101v6.229h46v-6.229h-46zm24.152 19.215h-50a3 3 0 0 0-3 3v10.229a3 3 0 0 0 3 3h50a3 3 0 0 0 3-3V54.293a3 3 0 0 0-3-3zm-50-2a5 5 0 0 0-5 5v10.229a5 5 0 0 0 5 5h50a5 5 0 0 0 5-5V54.293a5 5 0 0 0-5-5h-50zm58.902 15a4.89 4.89 0 0 1 3.777-4.76v-4.014h2v3.968a4.89 4.89 0 0 1-.89 9.695 4.887 4.887 0 0 1-4.887-4.888zm5.777-18.985v5.43h-2v-5.43h2z" fill="url(#paint0_linear)"/><defs><linearGradient id="paint0_linear" x1="94.829" y1="-31.015" x2="-37.445" y2="7.981" gradientUnits="userSpaceOnUse"><stop stop-color="#078E86"/><stop offset=".324" stop-color="#106F91"/><stop offset=".604" stop-color="#9B436B"/><stop offset="1" stop-color="#E35F35"/></linearGradient></defs></svg>