<svg fill="none" height="94" viewBox="0 0 95 94" width="95" xmlns="http://www.w3.org/2000/svg" xmlns:xlink="http://www.w3.org/1999/xlink"><linearGradient id="a" gradientUnits="userSpaceOnUse" x1="94.2876" x2="-13.2504" y1="79.3017" y2="39.0164"><stop offset="0" stop-color="#078e86"/><stop offset=".323651" stop-color="#106f91"/><stop offset=".603752" stop-color="#9b436b"/><stop offset="1" stop-color="#e35f35"/></linearGradient><g fill="url(#a)"><path d="m43.6774 4.52435c.3327 1.38201 1.5769 2.409 3.061 2.409 1.7388 0 3.1484-1.40982 3.1484-3.14831 0-1.7385-1.4096-3.148321-3.1484-3.148321-1.4746 0-2.7125 1.013811-3.0546 2.382651-9.846.81764-18.7782 4.85387-25.7419 11.05383-1.1689-.5541-2.6087-.3484-3.5758.6186-.981.9809-1.1793 2.4485-.595 3.6263-6.11078 7.1121-10.00422 16.1844-10.60791 26.1454-1.50078.2401-2.647565 1.5409-2.647565 3.1088 0 1.587 1.174445 2.9002 2.701685 3.1169.72012 9.2092 4.25542 17.6279 9.74509 24.3967-.7936 1.2202-.6551 2.8701.4154 3.9403 1.2295 1.2298 3.2229 1.2298 4.4524 0 1.2295-1.229 1.2295-3.223 0-4.452-1.0221-1.0226-2.5721-1.1946-3.7723-.5175-5.27076-6.5323-8.6607-14.6436-9.3483-23.5139 1.22479-.4312 2.10273-1.5987 2.10273-2.9705 0-1.3915-.90276-2.5715-2.15452-2.988.57254-9.5511 4.27545-18.2574 10.09659-25.1089 1.2304.8872 2.957.7766 4.0641-.3309 1.1206-1.1207 1.2199-2.8753.2979-4.1087 6.6707-5.87352 15.1839-9.70332 24.561-10.51145z"/><path clip-rule="evenodd" d="m77.8669 46.5571c0 10.4551-5.2736 19.6768-13.2716 25.1521-.4393.3008-.6997.6032-.8177.792-.0173.0278-.0299.0498-.0388.0674v8.5577c0 6.9708-5.6507 12.6211-12.6212 12.6211h-7.4321c-6.9705 0-12.6211-5.6503-12.6211-12.6211v-8.5577c-.009-.0176-.0215-.0396-.0389-.0674-.1179-.1881-.3784-.4912-.8176-.792-7.9981-5.4753-13.2718-14.697-13.2718-25.1521 0-16.8257 13.6399-30.4657 30.4654-30.4657 16.8256 0 30.4654 13.64 30.4654 30.4657zm-17.5059 18.9667c-2.3463 1.6067-4.1179 4.0911-4.1179 6.9342v8.6683c0 2.8307-2.2948 5.1255-5.1255 5.1255h-3.0346v-31.3829l-.0006-.03c3.9238-.3448 7.0014-3.6388 7.0014-7.6523 0-4.2427-3.4395-7.6823-7.6822-7.6823-4.2428 0-7.6823 3.4396-7.6823 7.6823 0 3.9667 3.0068 7.2314 6.8657 7.6391l-.0012.0432v31.3829h-2.8983c-2.8307 0-5.1255-2.2948-5.1255-5.1255v-8.6683c0-2.8431-1.7716-5.3275-4.118-6.9342-6.0443-4.1372-10.0102-11.089-10.0102-18.9667 0-12.6863 10.2839-22.9701 22.9697-22.9701 12.6859 0 22.9697 10.2838 22.9697 22.9701 0 7.8777-3.9659 14.8295-10.0102 18.9667z" fill-rule="evenodd"/><path d="m53.2477 3.99805c.0621-.40992.4442-.69101.8535-.62879 1.3134.1991 2.608.45604 3.8811.76787.4021.09808.6482.50434.5497.90621-.0985.40186-.5043.64781-.9064.54973-1.2297-.30159-2.4803-.54973-3.7492-.74152-.4093-.06222-.6907-.44432-.6287-.8535z"/><path d="m61.5628 5.96126c.1412-.38869.5712-.58999.9603-.44871 1.245.45164 2.4639.95818 3.654 1.51523.3749.17568.5365.6222.3609.99698s-.6218.53655-.9967.36087c-1.1496-.53875-2.3271-1.02699-3.5296-1.46399-.3891-.14127-.5901-.57096-.4489-.96038z"/><path d="m69.33 9.52023c.2147-.35429.6757-.46702 1.0296-.25254 1.1296.68588 2.226 1.42011 3.2865 2.20041.3333.2452.4047.7144.1594 1.0482-.2455.333-.7147.4048-1.048.1588-1.0248-.7539-2.0842-1.4632-3.1755-2.1257-.354-.2145-.4668-.67562-.252-1.02917z"/><path d="m82.0721 20.7827c.3334-.2452.8026-.1742 1.048.1596.7804 1.0599 1.5148 2.1565 2.2001 3.2859.2148.3543.1019.8155-.252 1.03-.3539.2144-.8149.1017-1.0297-.2519-.6621-1.0914-1.3717-2.1506-2.1258-3.1754-.2454-.3337-.174-.803.1594-1.0482z"/><path d="m86.5636 28.05c.3749-.1757.8212-.0139.9967.3609.5574 1.1902 1.0634 2.409 1.5152 3.6541.1412.3894-.0597.8191-.4489.9604-.3891.1412-.8191-.0601-.9603-.4487-.4364-1.2027-.9252-2.3805-1.4636-3.5297-.1756-.3748-.014-.8213.3609-.997z"/><path d="m89.5449 36.0566c.4021-.0989.8079.1471.9064.549.3118 1.2736.5686 2.5678.7678 3.8817.0621.4092-.2194.7913-.6287.8528-.4093.0622-.7914-.2188-.8535-.628-.1924-1.2693-.4405-2.5196-.7417-3.7493-.0985-.4026.1476-.8081.5497-.9062z"/><path d="m90.5965 52.9869c.4094.0615.6913.4436.6296.8528-.1963 1.3044-.4495 2.5898-.7569 3.8539-.0978.4026-.5032.6493-.9055.5512-.4022-.0973-.649-.5028-.5512-.9054.297-1.221.5415-2.4632.7313-3.723.0616-.4092.4434-.691.8527-.6295z"/><path d="m88.661 61.2475c.3895.1398.5915.5695.4512.9589-.4456 1.2371-.9447 2.4493-1.4944 3.6322-.1745.3755-.6202.5387-.9956.3645-.3755-.1749-.5384-.62-.364-.9955.531-1.1434 1.0131-2.3138 1.4436-3.5092.1402-.3894.5697-.5915.9592-.4509z"/><path d="m85.1514 68.9715c.3547.2138.4693.6742.256 1.0285-.6763 1.1243-1.4011 2.2165-2.1714 3.2727-.2439.3346-.7127.4078-1.0472.164-.3346-.2438-.408-.713-.164-1.0475.7443-1.0204 1.4445-2.0752 2.098-3.1615.2133-.355.6739-.4692 1.0286-.2562z"/><path d="m91.1392 50.7206c1.7388 0 3.1484-1.4098 3.1484-3.1483s-1.4096-3.1483-3.1484-3.1483-3.1483 1.4098-3.1483 3.1483 1.4095 3.1483 3.1483 3.1483z"/><path d="m75.9848 80.2948c1.2295 1.2297 3.2229 1.2297 4.4524 0 1.2295-1.2298 1.2295-3.223 0-4.4528-1.2295-1.229-3.2229-1.229-4.4524 0-1.2295 1.2298-1.2295 3.223 0 4.4528z"/><path d="m79.5677 18.2734c1.2295-1.229 1.2295-3.2229 0-4.452-1.2295-1.2297-3.223-1.2297-4.4524 0-1.2296 1.2291-1.2296 3.223 0 4.452 1.2294 1.2298 3.2229 1.2298 4.4524 0z"/></g></svg>