<svg width="26" height="27" viewBox="0 0 26 27" fill="none" xmlns="http://www.w3.org/2000/svg">
<path fill-rule="evenodd" clip-rule="evenodd" d="M26 13.5C26 20.9559 20.1797 27 13 27C5.8203 27 0 20.9559 0 13.5C0 6.04415 5.8203 0 13 0C20.1797 0 26 6.04415 26 13.5ZM23.209 13.8453C23.198 14.2012 22.8193 14.3955 22.5229 14.2164C21.5861 13.6503 20.644 13.1669 19.6972 12.7668C18.9338 12.4442 18.3774 11.7548 18.0186 10.9842C17.1174 9.04907 15.2088 7.71429 13 7.71429C10.8347 7.71429 8.95786 8.99704 8.03578 10.8707C7.66026 11.6338 7.08848 12.3111 6.31698 12.6152C5.35687 12.9937 4.40515 13.4529 3.46248 13.9889C3.16234 14.1596 2.78934 13.956 2.78617 13.6007C2.78598 13.5794 2.78584 13.558 2.78577 13.5367L2.78571 13.5C2.78571 7.64183 7.3588 2.89286 13 2.89286C18.6412 2.89286 23.2143 7.64183 23.2143 13.5C23.2143 13.5637 23.2137 13.6273 23.2127 13.6907C23.2118 13.7423 23.2106 13.7939 23.209 13.8453ZM21.5794 17.5689C21.9656 17.8225 22.103 18.3398 21.8764 18.7518C20.1175 21.9508 16.8013 24.1071 13 24.1071C9.11338 24.1071 5.73376 21.8529 4.00744 18.5347C3.78958 18.116 3.94042 17.6007 4.3344 17.3575C5.084 16.8947 5.83075 16.4931 6.57458 16.1523C7.25988 15.8382 8.02682 16.2241 8.46196 16.8573C9.47223 18.3273 11.1283 19.2857 13 19.2857C14.8271 19.2857 16.4488 18.3724 17.4648 16.9614C17.914 16.3376 18.6906 15.9694 19.3689 16.3018C20.1008 16.6604 20.8377 17.0819 21.5794 17.5689Z" fill="white"/>
</svg>
