<svg xmlns="http://www.w3.org/2000/svg" width="90" height="48" viewBox="0 0 90 48"><path d="M2 29.434c-.028 3.19-.125 4.65 1.04 4.73 1.477.104.96-2.746.96-4.266v-5.35c5 2.665 10.818 5.672 16.133 8.528 1.032.555 3.57 1.95 3.377-.23-.064-.728-1.193-1.155-1.957-1.553-5.464-2.84-10.823-5.603-15.98-8.45 4.554-2.258 9.154-4.634 13.72-6.978.84-.432 4.204-1.582 4.26-2.713.105-2.102-2.415-.694-3.333-.232-5.543 2.787-11.12 5.803-16.437 8.295.14-1.288.077-2.79.077-4.42 0-1.915.67-4.987-1.045-4.883-1.204.075-.837 1.523-.815 2.87.083 5.05.042 9.885 0 14.652zM63.398 34.164c1.562-.002 1.518-3.064 1.518-4.747 0-2.108-.057-3.458.083-5.458 5.402 0 11 .04 16 .04v5.823c0 1.65-.014 4.438 1.615 4.342 1.432-.087 1.385-3.21 1.385-5.04v-12.25c0-1.757.125-5.032-1.538-4.962-1.52.064-1.462 3.17-1.462 4.498V22H65v-4.893c0-1.645.055-4.01-.414-4.728-.465-.718-2.1-.386-2.42.16-.14 5.092-.082 11.288-.082 16.834 0 1.528-.234 4.79 1.314 4.79zM39.677 29.202c.486.944 1.94 4.884 3.18 4.884.887 0 1.25-1.205 1.782-2.248 2.838-5.582 5.235-10.565 8.14-16.048.405-.768 1.306-2.043 1.084-2.79-.118-.395-.763-.795-1.085-.775-1.205.075-2.285 3.177-2.794 4.187-2.506 4.986-4.637 9.324-7.13 14.03-2.8-5.468-5.562-10.686-8.374-16.278-.47-.938-.728-1.996-1.705-1.938-1.99.116-.335 2.746.155 3.72 2.327 4.625 4.42 8.725 6.745 13.256z"/><path d="M25 36H0v2h27V10h-2zM56 36H30v2h28V10h-2zM86 10v26H61v2h27V10z"/></svg>