<svg xmlns="http://www.w3.org/2000/svg" width="165.375" height="30.987" viewBox="0 0 165.375 30.987"><path fill-rule="evenodd" clip-rule="evenodd" d="M35.312 15.93c-.013 4.934-3.674 8.954-8.603 9.437-5.11.5-9.737-3.186-10.343-8.242-.107-.887-.048-1.788-.237-2.67-.587-2.738-2.99-5.307-6.588-5.312-3.73-.006-6.378 2.757-6.734 6.003-.39 3.563 2.007 6.775 5.46 7.403 2.21.402 4.148-.185 5.818-1.657.3-.265.435-.3.64.075.293.536.67 1.028 1.12 1.44.312.288.208.436-.045.657-1.4 1.22-3.02 1.984-4.854 2.255a9.52 9.52 0 0 1-9.875-5.04c-2.98-5.75.56-12.756 6.955-13.76C13.84 5.608 19 10.01 19.037 15.915c.02 3.45 2.6 6.33 6.026 6.73 3.342.39 6.495-1.825 7.317-5.14.982-3.95-1.806-7.902-5.855-8.313-1.95-.198-3.65.352-5.136 1.613-.51.43-.51.434-.885-.138-.292-.442-.603-.88-.99-1.236-.332-.308-.215-.478.06-.71 1.86-1.584 4.006-2.376 6.447-2.315 4.746.117 8.604 3.596 9.232 8.307.052.402.04.812.058 1.22zM94.378 15.438c.413.035 1.02-.19 1.4.08.38.275.36.915.508 1.397.438 1.436.853 2.88 1.28 4.32.03.102-.01.284.165.263.098-.013.073-.167.098-.262.44-1.772.896-3.54 1.318-5.318.087-.364.224-.504.608-.49.75.032 1.505.012 2.257.01.205 0 .377.002.266.298-1.262 3.34-2.168 6.814-3.853 9.986-.812 1.53-1.972 2.668-3.724 3.1-.423.104-.586.02-.667-.398a13.585 13.585 0 0 0-.402-1.592c-.093-.29-.015-.397.25-.48.732-.226 1.37-.6 1.867-1.2.358-.434.436-.855.21-1.4-1.06-2.57-2.084-5.154-3.123-7.735-.23-.572-.23-.572.414-.576.347-.003.692-.002 1.13-.002zM74.046 21.637c0-.733.004-1.467-.002-2.2-.003-.282-.004-.572-.056-.85-.148-.805-.504-1.49-1.35-1.73-.86-.24-1.658-.053-2.298.604a2.424 2.424 0 0 0-.72 1.76c.006 1.628-.013 3.257.01 4.886.006.452-.078.644-.592.627-1.125-.033-1.127-.003-1.127-1.12 0-3.908.01-7.816-.01-11.725-.002-.473.11-.63.604-.616 1.117.03 1.117.004 1.117 1.124 0 1.384 0 2.77.002 4.152 0 .08-.016.21.02.228.123.063.167-.07.226-.143.815-.992 1.874-1.43 3.133-1.258 1.526.21 2.558 1.377 2.707 3.02.178 1.968.043 3.944.084 5.918.008.325-.134.418-.44.41-1.598-.04-1.266.235-1.3-1.254-.015-.613-.004-1.223-.004-1.833zM104.19 19.98c0-.707-.016-1.318.006-1.927.01-.342-.105-.49-.452-.45-.14.017-.283-.002-.425.002-.263.01-.36-.112-.355-.37.012-.467.02-.935-.002-1.4-.018-.345.145-.397.438-.402.79-.016.79-.027.79-.825 0-.164.01-.327-.003-.49-.026-.29.08-.434.38-.508.69-.167 1.372-.37 2.052-.568.315-.093.45-.005.44.34-.02.547.008 1.098-.01 1.646-.01.323.12.43.43.417.406-.02.813.01 1.22-.01.304-.016.453.065.437.404-.023.445-.018.894-.002 1.34.012.312-.1.446-.422.432-.406-.018-.812.007-1.22-.007-.295-.01-.45.07-.442.405.022 1.098-.008 2.195.035 3.292.04.975.38 1.258 1.336 1.237.6-.014.602-.014.62.605.012.346-.007.693.02 1.036.03.363-.062.554-.467.608-.726.1-1.45.185-2.176.05-1.188-.22-1.93-1.04-2.13-2.278-.145-.89-.075-1.785-.098-2.58zM123.058 15.206c.72.003 1.41.148 2.092.366.33.104.496.262.34.616a.293.293 0 0 0-.02.06c-.115.45-.098 1.044-.383 1.314-.337.32-.818-.2-1.264-.244-.407-.037-.812-.095-1.213-.01-.288.063-.534.215-.597.54-.064.328.11.54.368.706.312.2.658.318 1 .44.48.168.95.357 1.377.64 1.685 1.12 1.67 3.64-.087 4.64-1.752.995-3.59.798-5.412.125-.225-.083-.254-.23-.205-.433.117-.472.237-.944.337-1.42.058-.277.178-.323.423-.202.57.28 1.183.418 1.81.51.328.05.644.02.965-.055.336-.08.557-.273.602-.605.047-.337-.138-.593-.432-.74-.29-.147-.59-.27-.896-.38-.518-.187-1.022-.39-1.477-.71-1.537-1.078-1.6-3.133-.128-4.306.82-.652 1.78-.856 2.8-.854zM77.805 19.74c0-.814-.016-1.63.007-2.443.01-.366-.09-.54-.476-.482-.08.012-.163 0-.245 0-.666 0-.666 0-.664-.645 0-.606 0-.605.64-.61.825-.008.725.102.74-.762.022-1.188-.185-.865.943-1.253.077-.027.164-.027.235-.062.433-.213.52-.018.5.384-.023.446.004.896-.01 1.344-.005.265.102.358.362.354.53-.014 1.06.02 1.587-.012.388-.022.517.127.473.492-.017.14-.01.285-.002.427.018.27-.11.355-.365.35-.53-.012-1.06.01-1.59-.01-.32-.01-.474.066-.468.434.02 1.566-.005 3.135.027 4.7.026 1.302.525 1.717 1.817 1.534.305-.044.375-.007.4.295.077 1.01.09 1.008-.933 1.14-1.658.21-2.653-.538-2.9-2.185-.024-.16-.06-.322-.062-.483-.006-.834-.003-1.67-.003-2.503-.005-.002-.01-.002-.015-.002zM49.433 20.394c-.02-1.308.062-2.832-.078-4.353-.035-.386.083-.487.46-.49 1.048-.007 1.048-.023 1.082 1.008 0 .06-.004.122 0 .182.013.115-.052.294.058.326.14.043.153-.15.207-.244.487-.845 1.185-1.38 2.176-1.475.594-.057.626-.018.632.56v.307c0 .665 0 .665-.69.727-1.213.11-2.102 1.116-2.128 2.488-.03 1.566-.028 3.132.003 4.697.01.487-.134.62-.612.606-1.11-.027-1.11-.004-1.11-1.132v-3.204zM56.795 20.153c0 1.34-.015 2.683.01 4.023.007.423-.11.558-.542.55-1.115-.014-1.115.008-1.115-1.133 0-2.48.014-4.96-.01-7.438-.006-.484.133-.62.61-.607 1.046.03 1.046.004 1.046 1.07v3.535zM25.694 28.4c-.792 0-1.584.01-2.376 0-.742-.012-1.223-.454-1.206-1.085.017-.584.504-1 1.22-1.004 1.562-.007 3.127-.01 4.69.002.754.004 1.172.38 1.184 1.017.013.66-.425 1.06-1.196 1.07-.772.01-1.544 0-2.316 0zM9.527 28.4c-.812 0-1.625.013-2.437-.004-.55-.012-.9-.292-1.042-.77a1.016 1.016 0 0 1 1.03-1.304c1.644.005 3.29-.002 4.934.005.652.004 1.06.392 1.076.988.018.62-.394 1.06-1.063 1.078-.833.023-1.665.006-2.498.006zM25.735 30.98c-.385 0-.772.016-1.156-.002-.505-.022-.87-.37-.942-.867-.067-.466.212-.99.686-1.078.96-.176 1.94-.17 2.902 0 .438.08.736.603.695 1.03a.983.983 0 0 1-.966.915c-.406.02-.813.004-1.22.004zM9.59 30.983c-.364-.002-.73.01-1.094-.005-.528-.02-.9-.353-.955-.833-.064-.578.207-1.05.758-1.136.903-.14 1.82-.14 2.723.002.518.082.84.584.778 1.076-.063.513-.45.86-.99.895H9.59zM55.962 14.004c-.63.01-1.028-.382-1.032-1.02-.004-.623.396-1.05 1.002-1.072a1.014 1.014 0 0 1 1.074 1.006c.024.65-.388 1.077-1.044 1.086zM92.446 20.42c-.174-1.163-.86-1.938-1.923-2.404-.14-.062-.28-.127-.42-.19.092-.15.27-.17.402-.26.133-.094.277-.17.407-.268a2.78 2.78 0 0 0-.187-4.633c-.738-.46-1.555-.677-2.42-.756-1.563-.143-3.12-.027-4.68.1-.523.043-.62.24-.614.71.024 1.89.01 3.78.01 5.67 0 1.932.007 3.864-.003 5.795-.003.33.034.52.44.552 1.623.132 3.243.208 4.864-.01 1.014-.137 2.01-.36 2.832-1.02 1.057-.842 1.493-1.95 1.294-3.286zm-7.696-5.77c0-.65.56-.662 1.238-.658.264 0 .76-.016 1.07-.008.292.003.676.025.96.126.626.218 1.034.634 1.073 1.22s-.235 1.09-.803 1.368c-.7.343-1.443.31-2.194.3-.23-.005-.793-.167-.792-.34.003-.386-.55-.772-.55-1.156v-.852zm3.63 7.778c-.56.25-1.144.267-1.73.25-.248-.003-.865-.01-1.104-.02-.234-.005-.797-.163-.797-.334v-1.46c0-.446.57-.893.552-1.34-.014-.302.44-.445.775-.43.687.027 1.472-.052 2.134.216.737.3 1.154.78 1.17 1.5.016.775-.276 1.295-1 1.618zM112.727 21.02c.853.014 1.707.005 2.56.005.814 0 1.63-.03 2.44.01.498.026.65-.17.628-.628-.02-.425.012-.854-.02-1.28-.122-1.765-1.156-3.194-2.643-3.68-2.527-.826-5.08.476-5.877 3.006a5.84 5.84 0 0 0-.26 2.164c.153 2.252 1.384 3.704 3.595 4.15 1.418.287 2.82.14 4.21-.254.418-.12.57-.294.408-.73-.1-.262-.114-.554-.164-.834-.104-.58-.1-.565-.69-.442-1.077.226-2.16.395-3.245.035-.562-.188-1.012-.507-1.245-1.082-.13-.315-.054-.443.302-.44zm-.366-2.332c.11-.778.84-1.48 1.608-1.52.833-.048 1.467.456 1.656 1.31.078.35.06.59-.417.546-.403-.037-.812-.008-1.22-.008-.448 0-.894-.008-1.34.002-.242.004-.32-.086-.286-.33zM46.01 18.03c-.14-.06-.31-.064-.41-.205.14-.08.28-.163.418-.245 1.018-.604 1.626-1.444 1.604-2.678-.022-1.185-.632-1.977-1.628-2.528-.433-.238-.9-.38-1.383-.454-1.36-.206-2.713-.116-4.07.07-.416.058-.526.21-.52.614.02 1.914.008 3.828.008 5.74 0 1.955.006 3.91-.006 5.863-.003.347.07.52.458.535.812.033 1.623.137 2.437.096 1.16-.058 2.324-.127 3.37-.71 1.275-.712 1.89-1.824 1.81-3.275-.075-1.378-.84-2.29-2.088-2.824zm-4.335-2.803c0-.548.007-1.097-.002-1.647-.004-.238.067-.402.327-.417.832-.043 1.667-.127 2.483.123.786.243 1.31.74 1.41 1.582.107.894-.235 1.59-1.016 2.052a2.67 2.67 0 0 1-1.333.382c-.448.006-.897-.025-1.342.013-.45.037-.556-.15-.532-.56.028-.51.005-1.02.005-1.528zm2.993 8.052c-.64.218-1.28.246-1.93.232-.23-.004-.46-.013-.69-.022-.285-.01-.345-.156-.34-.43.012-.673.042-1.344.042-2.016V19.03c0-.206-.096-.544.216-.544h-.216v.163c1 .025 1.892-.115 2.78.216 1.054.394 1.746 1.15 1.754 2.16.008 1.096-.495 1.87-1.616 2.253zM66.55 16.11c.05-.494-.134-.575-.57-.56-.835.025-.835.003-.97.827-.016.092.03.226-.085.26-.113.03-.17-.095-.228-.17-.973-1.3-3.206-1.51-4.77-.45-2.432 1.645-2.667 5.934-.415 7.828 1.282 1.078 3.33 1.127 4.582.13.243-.193.37-.527.715-.596.002.345.026.69.006 1.034-.1 1.688-.94 2.725-2.35 2.88-.945.105-1.865-.016-2.74-.41-.557-.25-.557-.25-.75.34-.03.096-.06.194-.1.287-.122.298-.046.49.26.626.488.217.992.37 1.516.445.932.138 1.865.145 2.783-.1 1.84-.493 2.83-1.786 2.998-3.834.13-1.584.028-3.17.07-4.477 0-.91-.003-1.54.002-2.17.006-.63-.02-1.264.045-1.89zm-1.806 5.2c-.17 1.054-.937 1.855-1.98 2.052-.968.183-2.07-.282-2.547-1.182-.783-1.474-.76-2.972.11-4.406.54-.887 1.605-1.285 2.6-1.062.964.218 1.653.998 1.833 2.047.07.404.058.808.062 1.327a6.17 6.17 0 0 1-.078 1.222z"/></svg>