<?xml version="1.0" encoding="utf-8"?>
<!-- Generator: Adobe Illustrator 22.1.0, SVG Export Plug-In . SVG Version: 6.00 Build 0)  -->
<svg version="1.1" id="Layer_1" xmlns="http://www.w3.org/2000/svg" xmlns:xlink="http://www.w3.org/1999/xlink" x="0px" y="0px"
	 viewBox="0 0 182 240" style="enable-background:new 0 0 182 240;" xml:space="preserve">
<style type="text/css">
	.st0{fill:#B3B4B4;}
	.st1{fill:#FFFFFF;}
	.st2{fill:#F6F6F6;}
	.st3{fill:#CBCCCB;}
	.st4{fill:#DFDFDE;}
	.st5{fill:#FFFFFE;}
	.st6{fill:#EBECEB;}
	.st7{fill:#DBDBDB;}
	.st8{fill:#D5D6D5;}
	.st9{fill:#F2F2F2;}
	.st10{fill:#6E2CC4;}
	.st11{fill:#E9DFF2;}
	.st12{fill:#81BF08;}
	.st13{fill:#C8C8C8;}
	.st14{fill:#5BAA00;}
	.st15{fill:#93CE11;}
	.st16{fill:#A06CE3;}
	.st17{fill:#CF7815;}
	.st18{fill:#FABB05;}
</style>
<g>
	<path class="st0" d="M160.6,128.1l6.3-3.6c2.3-1.3,4.4-3.4,5.9-5.9c1.5-2.4,2.5-5,2.5-7.1l0.2-44.5c0-0.8-0.1-1.5-0.4-2.1
		c-0.2-0.4-0.5-0.7-0.8-1l-0.1-0.1l-70.3-40.7c-0.1,0-0.2-0.1-0.3-0.1c-0.5-0.2-1-0.3-1.8-0.2c-0.9,0.1-1.9,0.4-3,1l-6.5,3.7v61
		L160.6,128.1z M169,128.3l-7.4,4.1l0,0c-0.6,0.4-1.4,0.4-2.2,0L89,91.8c-0.7-0.3-1.2-1.1-1.2-2V26.6l0,0c0-0.4,0.1-0.7,0.3-1.1
		l0.1-0.2c0.2-0.4,0.5-0.7,0.8-0.9l7.5-4.2c1.7-0.9,3.2-1.4,4.6-1.7c1.7-0.2,3.1,0.1,4.3,0.7c0.1,0,0.1,0.1,0.1,0.1l0.1,0.1l0,0
		L176,60c0.1,0,0.2,0.1,0.3,0.2l0,0c1,0.6,1.9,1.5,2.5,2.8c0.5,1.1,0.8,2.5,0.8,3.9l-0.2,44.5c0,3.1-1.2,6.5-3.2,9.5
		C174.6,124,172,126.7,169,128.3L169,128.3z"/>
	<path class="st1" d="M98.4,65.9v-6.2l61.4,38.2l15.5-35.8l-70.5-40.8l-0.1-0.1c-1.8-0.9-4.2-0.7-7,0.8l-7.5,4.2L90,26.4V54v32.7
		V73.6C95.1,70.7,98.4,71.2,98.4,65.9"/>
	<path class="st0" d="M106.7,70.8v-6.2v-0.5l0.4,0.3l52.7,20.8l15.2-24.8l-70.2-40.6l-0.1-0.1c-0.8-0.4-1.9-0.6-3-0.5
		s-2.4,0.5-3.7,1.3l-7.4,4.2l-0.1,0.1v64.5l7-3.9c2.6-1.4,5-3.8,6.6-6.5C105.6,76.3,106.7,73.4,106.7,70.8L106.7,70.8z M107.3,65.2
		v5.7c0,2.7-1.1,5.7-2.9,8.5c-1.8,2.8-4.1,5.2-6.8,6.7l-7.4,4.1l-0.4,0.2V24.8v-0.1l0.1-0.2l0.1-0.1l7.5-4.2
		c1.3-0.8,2.7-1.2,3.9-1.3c1.1-0.1,2.1,0,2.9,0.4l0,0l0.4,0.2l0.1,0.1l70.5,40.8l0.2,0.1l-0.1,0.2l-15.5,25.2l-0.1,0.2l-0.2-0.1
		L107.3,65.2L107.3,65.2z"/>
	<path class="st0" d="M16.8,128.8v49.8c0,1.3,0.2,2.6,0.6,3.4c0.3,0.7,0.7,1.2,1.2,1.5c0.1,0,0.1,0.1,0.2,0.1l74.8,43.2
		c0.1,0.1,0.2,0.1,0.3,0.2c0.4,0.2,0.8,0.3,1.2,0.2c0.6,0,1.3-0.3,2.1-0.7l52.1-30.2c2-1.1,3.9-3.4,5.3-6.1c1.4-2.7,2.3-5.8,2.3-8.6
		v-49.8L84.3,89.6L16.8,128.8L16.8,128.8z M12.2,178.5v-51.1l0,0c0-0.8,0.4-1.5,1.1-2l69.8-40.3c0.7-0.4,1.5-0.4,2.4,0l74.9,43.4
		c0.8,0.4,1.3,1.1,1.3,2.1v51.1c0,3.5-1.1,7.3-2.8,10.7c-1.8,3.4-4.3,6.3-7,7.9l-52.1,30.4c-1.4,0.8-2.8,1.2-4.1,1.3
		c-1.4,0.1-2.9-0.2-4-1l0,0l-74.9-43.3c-0.1-0.1-0.3-0.1-0.4-0.2c-1.3-0.8-2.4-2.1-3-3.6C12.5,182.3,12.2,180.5,12.2,178.5
		L12.2,178.5z"/>
	<path class="st2" d="M14.9,127.4v51.1c0,3.5,1.1,6,3,7l0,0L89,226.6c2.3,1.3,3.8,2,6.3,2.3l27.2-22.3c4.9-2.8,8.8-10.2,8.8-16.6
		v-42.8l-41.1,22.8L14.9,127.4"/>
	<path class="st0" d="M131,146.9l-40.9,23l-75.3-43.2l-0.4-0.2v51.8l0,0c0,1.8,0.3,3.2,0.8,4.4l-0.2-1.1l0.2,0.8l0.4,0.7l-0.4-0.5
		c0.4,1,1.1,2,1.9,2.5c0.1,0.1,0.3,0.2,0.4,0.3l-0.4-0.4h0.1l0.3,0.4l0,0l0,0l0.7,0.4l75.1,43.4l0.3,0.2l0.1-0.4l0.7-3.6l28.1-18.9
		c2.5-1.4,4.6-4,6.3-7c1.7-3.1,2.6-6.5,2.6-9.8v-43.4L131,146.9z M14.4,178.4l0.1,0.4l0,0v0.3L14.4,178.4z M130.8,190
		c0,3.1-0.9,6.6-2.6,9.5c-1.5,3-3.7,5.5-6.1,6.8L94,225.2l-0.1,0.1v0.1l-0.7,3.3l-75.4-43.6l0,0l0,0l0,0l0,0l0,0
		c-0.9-0.5-1.7-1.3-2.1-2.6c-0.5-1.1-0.7-2.6-0.7-4.2v-50.8l74.9,42.9l0.1,0.1l0.1-0.1l40.6-22.9L130.8,190L130.8,190z"/>
	<path class="st1" d="M90.2,170.3v51c0,6.4,3.9,9.4,8.8,6.6l51.7-29.7c4.7-2.8,8.8-10.2,8.8-16.6v-51.1l-69.1,39.8H90.2"/>
	<path class="st0" d="M90.5,170.7v50.7c0,2.1,0.4,3.7,1.1,5c0.4,0.8,1,1.4,1.7,1.9c0.6,0.4,1.4,0.6,2.3,0.6c1,0,2.1-0.3,3.3-0.9
		l51.8-29.7c2.4-1.3,4.5-3.8,6.1-6.8c1.5-3,2.6-6.4,2.6-9.5v-50.6L90.5,170.7L90.5,170.7L90.5,170.7z M89.8,221.4v-51.5l0.4,0.2l0,0
		l69.4-40.1v51.6c0,3.2-1,6.7-2.6,9.8c-1.7,3.1-3.8,5.7-6.3,7l-51.8,29.7c-1.2,0.7-2.5,1-3.6,1c-0.9,0-1.8-0.2-2.6-0.7
		c-0.7-0.4-1.3-1.1-1.9-2C90.4,225.2,89.8,223.4,89.8,221.4L89.8,221.4z"/>
	<path class="st3" d="M84.2,87l75.3,43.5l-69.2,39.7l-75.2-43.4L84.2,87"/>
	<path class="st4" d="M138.1,122.8l12.9,7.5l-12.9,7.3c0.6-1.5,1.3-4,1.3-7.2C139.6,127.1,138.8,124.4,138.1,122.8"/>
	<path class="st5" d="M52.8,110v-4.4l-37.7,21.7l75.2,43.4l69.1-39.8l-16.8-9.7l-4.1,1.9l12.1,7.6l-60.5,34.7l-55.9-31.9l-9.7-6.4
		L52.8,110"/>
	<path class="st0" d="M84.4,86.8l75.2,43.5c0.1,0.1,0.2,0.2,0.1,0.4l-0.1,0.1l0,0l-69.2,40c-0.1,0.1-0.2,0-0.3,0l-75.5-43.4
		c-0.1-0.1-0.2-0.2-0.1-0.4l0.1-0.1l69.4-40.1C84.2,86.7,84.3,86.7,84.4,86.8L84.4,86.8z M158.8,130.5L84.2,87.4L15.3,127l74.8,43
		L158.8,130.5L158.8,130.5z"/>
	<path class="st1" d="M177.5,111.6l0.2-44.5c0-5.3-4.2-7.1-9.4-4.2l-7.5,4.2l-0.1,0.2v63.4l7.4-4.1
		C173.1,123.5,177.5,116.8,177.5,111.6"/>
	<path class="st0" d="M177.3,111.6l0.2-44.5c0-1.2-0.2-2.4-0.7-3.2c-0.4-0.7-0.9-1.2-1.5-1.5c-0.6-0.3-1.4-0.5-2.3-0.5
		c-1.3,0-2.9,0.4-4.4,1.3l-7.7,4.3l-0.1,0.1v62.7l7.2-4.1c2.6-1.4,4.9-3.8,6.6-6.5C176.1,117.1,177.2,114.1,177.3,111.6L177.3,111.6
		z M177.9,67l-0.2,44.5c0,2.7-1.1,5.7-2.9,8.5c-1.8,2.7-4.1,5.2-6.8,6.7l-7.6,4.3l-0.4,0.2V67.4v-0.1l0.1-0.2l0.1-0.1l7.7-4.3
		c1.8-0.9,3.3-1.4,4.7-1.4c0.9,0,1.8,0.2,2.5,0.6c0.7,0.4,1.3,1,1.8,1.8C177.7,64.4,177.9,65.7,177.9,67L177.9,67z"/>
	<path class="st5" d="M90,89.9V26.6l70.5,40.8v63.3L90,89.9"/>
	<path class="st6" d="M156.6,127.7V69.2l-63.8-37l0.3,17v42.1l57.5,33.6l5.9,3.3L156.6,127.7z"/>
	<polygon class="st7" points="107.3,40.6 92.8,32.2 93.1,49.3 93.1,91.4 150.6,124.9 156.5,128.2 156.6,127.7 156.6,78.2 
		107.3,49.6 	"/>
	<path class="st8" d="M87.3,61v27.4l59.8,34.5v-19.4c0-4.1-2.6-9.1-5.8-10.9L87.3,61"/>
	<path class="st0" d="M157,128.6l-0.5-0.3V69.2L93.1,32.4v59.2l-0.5-0.3V32c0-0.1,0.1-0.3,0.3-0.3c0.1,0,0.1,0,0.1,0l63.9,37.1
		c0.1,0,0.1,0.1,0.1,0.2V128.6"/>
	<path class="st0" d="M89.6,89.8V26.4c0-0.1,0.1-0.3,0.3-0.3c0.1,0,0.1,0,0.2,0l70.4,40.8c0.1,0,0.1,0.1,0.1,0.2v63.3
		c0,0.1-0.1,0.3-0.3,0.3c-0.1,0-0.1,0-0.1,0L89.8,89.9C89.7,90,89.6,89.9,89.6,89.8L89.6,89.8z M90.2,27v62.7l69.8,40.5V67.4
		L90.2,27z"/>
	<path class="st6" d="M55.6,169.8l-9.6-5.6l-3.2,2.3l2.2,4.9l3.4,10.4l2.7,3.4c3.9-2.4,4.3-2.9,4.4-6.2L55.6,169.8"/>
	<path class="st0" d="M55.1,170.1l-9.2-5.4l-2.7,1.9l2.1,4.4l3.3,10.3l2.5,3.1c1.7-1,2.7-1.7,3.2-2.4s0.7-1.7,0.7-3.2L55.1,170.1
		L55.1,170.1z M46.2,163.9l9.6,5.6c0.1,0.1,0.2,0.2,0.2,0.4v9.1c0,1.8-0.2,2.8-0.9,3.7c-0.6,0.9-1.8,1.7-3.7,2.8
		c-0.2,0.1-0.4,0.1-0.6-0.1l-2.7-3.4l0,0l-3.4-10.4l0,0c0,0,0,0,0-0.1l-2.2-4.7c-0.1-0.2,0-0.4,0.1-0.5l3.2-2.3
		C45.9,163.8,46.1,163.8,46.2,163.9L46.2,163.9z"/>
	<path class="st2" d="M52.5,171.8l-9.6-5.3v10.2c0,8.2,9.6,11.9,9.6,5.5V171.8"/>
	<path class="st0" d="M43.1,166.1c-0.2-0.2-0.5-0.1-0.5,0.1c-0.1,0.1-0.1,0.1-0.1,0.2v10.2c0,4,2.2,7,4.5,8.4
		c0.7,0.4,1.4,0.7,2.2,0.8s1.3,0.1,2-0.2c1-0.5,1.8-1.7,1.8-3.4v-10.4c0-0.2-0.1-0.3-0.2-0.4L43.1,166.1z M51.9,182.1
		c0,1.4-0.5,2.3-1.2,2.6c-0.5,0.2-1,0.3-1.5,0.2c-0.6-0.1-1.2-0.4-1.9-0.7c-2.2-1.2-4.1-3.9-4.1-7.5v-9.5l8.8,4.9V182.1z"/>
	<path class="st0" d="M89.7,164.6l-65.3-37.7l15.1-8.8c0-0.2,0.1-0.5,0.2-0.7l-16,9.3c-0.1,0.1-0.2,0.2-0.1,0.4l0.1,0.1l66,38
		c0.1,0.1,0.2,0,0.3,0l58.4-33.2v-0.7L89.7,164.6z"/>
	<path class="st0" d="M140.8,82.9l-73-42.5c-0.4-0.2-0.6-0.3-0.8-0.3c-0.1,0-0.3,0.1-0.6,0.3l-2.5,1.5c-0.8,0.5-1.3,0.8-1.5,1.1
		c-0.2,0.3-0.3,0.8-0.3,1.8v99.9l49.7,7.5l-5.3,3L88.6,145l-22,0.7c-5.2-3-9.2,3.3-9.2-4.9v-96c0-2.1,0.3-3.3,1.1-4.4
		c0.7-1,1.7-1.7,2.9-2.5l2.5-1.5c1-0.6,2-0.9,3.1-0.9c1,0,2.1,0.3,3.2,0.9l72.9,42.5c1.9,1,3.4,3,4.6,5.2c1.1,2.2,1.8,4.6,1.8,6.9
		V131l-4.6,2.7V91c0-1.5-0.5-3.3-1.2-4.7C142.8,84.8,141.9,83.5,140.8,82.9"/>
	<path class="st6" d="M142,81L69,38.4c-1.8-1-3-0.5-4.1,0.2l-3.3,2l2,2.6l13.1,80.3c0.6,3.8,2.8,7.8,5.3,10l37.5,14.2l28-15.4V91
		C147.2,87.2,144.9,82.6,142,81"/>
	<path class="st0" d="M141.9,81.2L68.8,38.6c-0.8-0.5-1.5-0.6-2.1-0.5c-0.6,0.1-1.1,0.4-1.8,0.7l0,0l-3.1,1.9l1.8,2.4l0.1,0.1
		l13.1,80.3c0.3,1.9,0.9,3.7,1.9,5.5c0.9,1.8,2.1,3.3,3.3,4.4l37.6,10.5l-0.5,0.3l-37.5-10.4c-1.2-1.1-2.5-2.8-3.4-4.5
		c-0.9-1.8-1.7-3.7-2-5.7L63.1,43.3l-1.9-2.6L61,40.5l0.3-0.2l3.3-2l0,0c0.6-0.4,1.2-0.7,2-0.8c0.7-0.1,1.5,0.1,2.5,0.6l73,42.5
		c1.4,0.8,2.8,2.5,3.8,4.3c0.9,1.9,1.5,4,1.5,6v41.2l-0.6,0.3V91c0-1.9-0.6-3.9-1.5-5.7C144.4,83.5,143.2,82,141.9,81.2"/>
	<path class="st1" d="M137.9,83.3L64.9,40.8c-2.9-1.7-5.3,0.1-5.3,3.9V141l41.9,16.8l16-9l25.6-14.1V93.4
		C143.2,89.6,140.8,85.1,137.9,83.3"/>
	<path class="st9" d="M112.8,151.7l0.6-0.3c0-2.1,0-4.5,0-4.5c-0.2-8.3-5.8-17.7-19.1-18.3l-1.4-1.1c0,0,0.1-16.9,0.1-17
		c-0.1-4.2-1.4-7.7-5.9-10.5c0.1-0.8,0.1-1.7,0.1-2.5c0-12.5-7.5-26.6-17.1-32.3l0,0c-3.7-2.1-7.3-2.7-10.4-1.8v77.9l41.9,16.8
		L112.8,151.7z"/>
	<path class="st0" d="M137.8,83.6L64.7,41.1c-0.7-0.4-1.3-0.6-2-0.6c-0.4,0-0.9,0.1-1.2,0.3c-0.4,0.2-0.7,0.5-0.9,1
		c-0.4,0.7-0.6,1.8-0.6,3v85.5c0,4.9,1,8.9,7.1,12.8l-6-2.6l-1.7-1.9V44.8c0-1.3,0.3-2.4,0.7-3.2c0.3-0.5,0.7-0.9,1.1-1.2
		c0.4-0.3,1-0.4,1.5-0.4c0.7,0,1.4,0.2,2.2,0.6l73.1,42.5c1.4,0.8,2.8,2.5,3.8,4.3c0.9,1.9,1.5,4,1.5,6v41.1l-0.6,0.3V93.4
		c0-1.9-0.6-3.9-1.5-5.7C140.4,85.9,139.2,84.5,137.8,83.6"/>
	<path class="st3" d="M100.8,135.1l12.3,7.2l5.8,3.3v0l2.1,1.2l0.8-0.5l-2.1-1.2v-10.5l11.3,6.5l0.9-0.5l-12.2-7V123l17.3,10v4.7
		l0.8-0.5v-3.7v-1V122v-1v-10.6v-1V98.9v-1l-0.3-0.2l-0.7-0.4l-17.3-10l-18.3-10.5l-0.3-0.1l-0.7-0.4L82.8,66.1l-0.7-0.4L64.5,55.5
		v0.1v11v0.1v0.3v0.1v11.5v0.1v11V90v0.3v0.1v11.4v0.1v11v0.1v0.3v0.1v0.7l0.8,0.4l17.3,10v0.1l6.6,3.8L100.8,135.1L100.8,135.1z
		 M119.7,88.3l17.3,10v10.6l-0.1-0.1l-17.2-9.9V88.3z M119.7,99.9l17.3,10v10.7l-0.1-0.1l-17.2-9.9V99.9z M119.7,111.5l17.3,10V132
		l-0.1-0.1l-17.2-9.9V111.5z M101.6,77.8l17.3,10v10.6l-17.3-10V77.8z M101.6,89.3l17.3,10V110l-17.3-10V89.3z M101.6,101l17.3,10
		v10.6l-17.3-10V101z M101.6,112.5l17.3,10v10.6l-17.3-10V112.5z M101.6,124l17.3,10v10.6l-17.3-10V124z M82.7,123.8l-0.5-0.3
		l-16.8-9.7V103l17.3,10V123.8z M82.7,112.2l-0.5-0.3l-16.8-9.7V91.4l17.3,10V112.2z M82.7,100.7l-0.5-0.3l-16.8-9.7V79.9l17.3,10
		V100.7z M82.7,89.1l-0.5-0.3l-16.8-9.7V68.3l17.3,10V89.1z M82.7,77.5l-0.5-0.3l-16.8-9.7V56.7l17.3,10V77.5z M83.5,67.3l17.3,10
		V88l-0.4-0.2L83.5,78V67.3z M83.5,78.8l17.3,10v10.8l-0.4-0.2l-16.9-9.7V78.8z M83.5,90.4l17.3,10v10.7l-0.4-0.2l-16.9-9.7V90.4z
		 M83.5,102l17.3,10v10.7l-0.4-0.2l-16.9-9.7V102z M100.4,134l-16.9-9.7v-10.7l17.3,10v10.7L100.4,134z"/>
	<path class="st1" d="M78.5,122.4v-8.1v-0.1v-8.4v-0.1v-8.4v-0.1v-8.4l0,0C78.4,81,67.5,74.8,54,74.8S29.7,81,29.6,88.7l0,0v8.4v0.1
		v8.4v0.1v8.4v0.1v8.4l0,0v5.2l25.8,14.9c12.9-0.4,23-4.4,23-11.8v-8.5H78.5z"/>
	<path class="st10" d="M58.7,146.7c-0.4,0-3.1-1.3-3.4-1.5l-26.6-15.5c-0.6-0.4-1.1-1.1-1.1-1.8V88.8c0-0.1,0-0.1,0-0.2
		c0.2-8.9,11.8-15.8,26.6-15.8s26.3,7,26.6,15.8v0.1v42.3C80.7,141.3,68.7,145.8,58.7,146.7C59.5,147.3,58.7,146.7,58.7,146.7z
		 M31.8,126.6l24.2,14c12.4-0.5,20.3-4.3,20.3-9.7V88.8v-0.1C76.3,82.3,66.1,76.9,54,76.9c-12,0-22.2,5.4-22.3,11.8v0.1v37.8H31.8z"
		/>
	<path class="st11" d="M55.5,144.9c12.9-0.4,23-6.5,23-13.9v-14.9l-5.2,6.3c-4.4-3.3-11.5-5.4-19.3-5.4s-14.9,2.1-19.3,5.4l-5.2-7.4
		v15L55.5,144.9z"/>
	<path class="st11" d="M73.4,105.7c-4.4-3.3-11.5-5.4-19.3-5.4s-14.9,2.1-19.3,5.4h-5.2v11.7c0,7.7,11,13.9,24.5,13.9
		c13.5,0,24.5-6.2,24.5-13.9v-11.7H73.4z"/>
	<path class="st10" d="M54.1,131.9c-13.8,0-25-6.5-25-14.4V97.9l5.5,10.5c4.7-3.5,11.8-5.4,19.5-5.4s14.8,2,19.5,5.4l5.5-10.5v19.6
		C79,125.4,67.8,131.9,54.1,131.9z M30.2,98.8v18.5c0,7.4,10.8,13.4,23.9,13.4s23.9-6,23.9-13.4V98.8l-4.7,10.5l-0.1-0.1
		c-4.5-3.4-11.5-5.3-19-5.3s-14.4,1.9-19,5.3l-0.1-10.4H30.2z"/>
	<ellipse class="st1" cx="54.1" cy="97.2" rx="24.5" ry="13.9"/>
	<path class="st11" d="M73.4,88.7c-4.4-3.3-11.5-5.4-19.3-5.4s-14.9,2.1-19.3,5.4h-5.2v13.8c0,7.7,11,13.9,24.5,13.9
		c13.5,0,24.5-6.2,24.5-13.9V88.7H73.4z"/>
	<path class="st10" d="M54.1,117c-13.8,0-25-6.5-25-14.4V87.2l5.5,6.3c4.7-3.5,11.8-5.4,19.5-5.4s14.8,2,19.5,5.4l5.5-6.3v15.4
		C79,110.5,67.8,117,54.1,117z M30.2,89.2v13.3c0,7.4,10.8,13.4,23.9,13.4s23.9-6,23.9-13.4V92.4l-4.7,2.1l-0.1-0.1
		c-4.5-3.4-11.5-5.3-19-5.3s-14.4,1.9-19,5.3l-0.1,0.1L30.2,89.2z"/>
	<ellipse class="st1" cx="54.1" cy="88.8" rx="24.5" ry="13.9"/>
	<path class="st10" d="M54.1,103.2c-13.8,0-25-6.5-25-14.4c0-8,11.2-14.4,25-14.4s25,6.5,25,14.4C79,96.8,67.8,103.2,54.1,103.2z
		 M54.1,75.3c-13.2,0-23.9,6-23.9,13.4s10.8,13.4,23.9,13.4s23.9-6,23.9-13.4C78,81.4,67.3,75.3,54.1,75.3z"/>
	<g>
		<path class="st10" d="M53.8,82.7l-2.4,0.5c-0.4-0.7-0.8-1.1-1.4-1.5c-0.6-0.4-1-0.3-1.3-0.2c-0.3,0.2-0.3,0.3-0.1,0.8l0.5,1.4
			c0.4,1,0.3,1.7-0.9,2.4c-1.6,1-3.6,0.8-5.6-0.3c-1.1-0.7-1.9-1.5-2.3-2.4l2.5-0.5c0.3,0.8,0.8,1.4,1.6,1.9
			c0.7,0.4,1.3,0.5,1.7,0.2c0.4-0.2,0.3-0.6,0.1-1l-0.5-1.3c-0.4-1-0.1-1.8,0.9-2.4c1.4-0.8,3.2-0.8,5,0.3
			C52.5,81.2,53.2,81.9,53.8,82.7z"/>
		<path class="st10" d="M53.7,92.3v-0.5c-1.1-0.2-2.1-0.5-3-1.1c-2.5-1.5-2.7-3.7,0-5.3c2.7-1.6,6.4-1.5,8.9,0
			c2.5,1.5,2.7,3.7,0,5.3c-1.1,0.7-2.4,1-3.7,1.1l0,1.7L53.7,92.3z M53.7,90l0-2.2l2.1,1.3l0,1.1c0.6-0.1,1.2-0.3,1.7-0.6
			c1.5-0.9,1.4-2.1,0.1-2.9c-1.4-0.8-3.4-0.9-4.9,0.1c-1.5,0.9-1.4,2.1-0.1,2.9C53,89.7,53.3,89.9,53.7,90z"/>
		<path class="st10" d="M60.2,94l3.4,2l-1.8,1.1l-5.3-3.1l8.5-5l1.9,1.1L60.2,94z"/>
	</g>
	<polygon class="st12" points="82.7,77.5 101.6,88.4 101.6,100.9 82.7,89.8 	"/>
	<path class="st13" d="M127,170.1l-2.4,1.5l-6.3,3.9v6.3v2.6v3.7v2.6v6.3l6.3-3.9l2.4-1.5l11.7-7.3v-6.3v-2.6v-3.7v-2.6v-6.3
		L127,170.1z M120.8,176.7l3.9-2.4v3.7l-3.9,2.4V176.7z M120.8,183l3.9-2.4v3.7l-3.9,2.4V183z M124.6,190.6l-3.9,2.4v-3.7l3.9-2.4
		V190.6z M136.3,183.3l-9.3,5.8v-3.7l9.3-5.8V183.3z M136.3,177l-9.3,5.8v-3.7l9.3-5.8V177z M127,176.5v-3.7l9.3-5.8v3.7L127,176.5z
		"/>
	<g>
		<g>
			<g>
				<path class="st14" d="M41.7,69.4l7.2-3.9l0,0c1.1-0.7,1.7-2,1.7-3.8l0.1-20.8c0-4.1-3.4-9.5-7.5-11.8l-16.3-9.2
					c-3.2-1.8-4.9-1.2-7.3,0.3L14.2,23l15.2,22.6L41.7,69.4"/>
			</g>
			<g>
				<path class="st15" d="M12.2,47.7l0.1-20.8c0-4.1,3.5-5.6,7.6-3.3l16.3,9.2c4.1,2.3,7.6,7.7,7.5,11.8l-0.1,20.8
					c0,4.1-3.5,5.6-7.6,3.3l-16.3-9.2C15.6,57.1,12.2,51.8,12.2,47.7"/>
			</g>
		</g>
		<path class="st1" d="M26.6,35.8l-2.1-1.2l-5.6-3.2v5.6v2.3v3.3V45v5.6l5.6,3.2l2.1,1.2l10.5,5.9v-5.6V53v-3.3v-2.3v-5.6L26.6,35.8
			z M24.5,51.5l-3.5-2v-3.3l3.5,2V51.5z M24.5,45.9l-3.5-2v-3.3l3.5,2V45.9z M24.5,40.2l-3.5-2V35l3.5,2V40.2z M34.9,57.4l-8.3-4.7
			v-3.3l8.3,4.7V57.4z M34.9,51.7l-8.3-4.7v-3.3l8.3,4.7V51.7z M34.9,46.1l-8.3-4.7v-3.3l8.3,4.7V46.1z"/>
	</g>
	<path class="st10" d="M151.9,23.2c10.1,5.9,18.1,21.2,18.1,34.4c0,7.2-2.4,12.4-6.3,14.5l0,0l0,0c-0.3,0.1-0.6,0.3-1,0.4l-7.3,3.3
		l-1.7-4.2c-0.6-0.3-1-0.6-1.6-0.9c-10.1-5.9-18.1-21.2-18.1-34.4c0-2.9,0.3-5.5,1.2-7.6l-1.6-3.7l7.1-3.2
		C143.4,20.4,147.4,20.7,151.9,23.2"/>
	<path class="st16" d="M144.1,26.9c10.1,5.9,18.1,21.2,18.1,34.4s-8.2,19.1-18.1,13.4C134,68.8,126,53.5,126,40.3
		C125.8,26.9,133.9,21,144.1,26.9"/>
	<path class="st1" d="M143.2,40l-8.1-4.7v7.8c0,8.2,3.3,17.2,8.1,23c4.8-0.3,8.1-5.4,8.1-13.7v-7.8L143.2,40z"/>
	<path class="st11" d="M143.2,40l-8.1-4.7v7.8c0,8.2,3.3,17.2,8.1,23V40z"/>
	<polygon class="st16" points="100.8,76.5 119.7,87.4 119.7,99.9 100.8,88.8 	"/>
	<path class="st14" d="M89.6,165.2c0.1,0.1,0.2,0,0.3,0l36.4-20.7v-19.3H52.9V144L89.6,165.2z"/>
	<path class="st15" d="M126.4,125.2c0-5.7-4.1-10.9-10.7-14.7l-25.8,14.7c-0.1,0-0.2,0.1-0.3,0l-25.8-14.9c-6.8,3.8-11,9.1-11,14.9
		c0,11.5,16.5,20.9,36.8,20.9S126.4,136.7,126.4,125.2z"/>
	<polygon class="st17" points="116.2,123.1 116.2,150.3 126.4,144.5 126.4,125.2 	"/>
	<path class="st10" d="M89.8,165.2c0,0,0.1,0,0.1,0l26.2-14.9v-22.9H89.8V165.2z"/>
	<path class="st16" d="M115.7,110.4l-25.8,14.7v20.9c20.2-0.1,36.5-9.4,36.5-20.9C126.4,119.4,122.3,114.2,115.7,110.4z"/>
	<path class="st18" d="M126.4,125.2c0-5.7-4.1-10.9-10.7-14.7l-25.8,14.7l26.3,14.5C122.5,135.9,126.4,130.8,126.4,125.2z"/>
	<ellipse class="st10" cx="90" cy="125.8" rx="18.1" ry="10.3"/>
	<path class="st0" d="M89.7,164.6l-65.3-37.7l3.2-1.9v-0.6l-3.9,2.3c-0.1,0.1-0.2,0.2-0.1,0.4l0.1,0.1l66,38c0.1,0.1,0.2,0,0.3,0
		l59.6-33.9v-0.7L89.7,164.6z"/>
	<g>
		<path class="st1" d="M84.5,121.6c0-0.5,0.5-1,1.3-1.5c0.6-0.3,1.2-0.5,1.8-0.6c0.6-0.1,1.3-0.1,1.9,0s1.2,0.3,1.7,0.5
			c0.8,0.4,1.2,0.9,1.1,1.4c0,0.5-0.5,1-1.3,1.5c-0.9,0.5-1.8,0.7-2.8,0.7c-1,0-1.9-0.2-2.6-0.6C84.8,122.6,84.5,122.1,84.5,121.6z
			 M97.1,123.6l2.1,1.1l-17.1,1.7l-2.1-1.1L97.1,123.6z M88,122.4c0.4,0,0.8-0.2,1.3-0.5c0.5-0.3,0.8-0.5,0.9-0.7
			c0.1-0.2,0-0.4-0.3-0.5c-0.3-0.1-0.6-0.2-1-0.1c-0.4,0-0.8,0.2-1.3,0.5c-0.5,0.3-0.8,0.5-0.8,0.7c-0.1,0.2,0,0.4,0.3,0.5
			C87.3,122.4,87.6,122.4,88,122.4z M86.9,128.6c0-0.5,0.5-1,1.3-1.5c0.9-0.5,1.8-0.7,2.8-0.7c1,0,1.9,0.2,2.6,0.6
			c0.8,0.4,1.2,0.9,1.1,1.4c0,0.5-0.5,1-1.3,1.5c-0.9,0.5-1.8,0.7-2.8,0.7c-1,0-1.9-0.2-2.6-0.6C87.2,129.6,86.8,129.1,86.9,128.6z
			 M90.4,129.4c0.4,0,0.8-0.2,1.3-0.5c0.5-0.3,0.8-0.5,0.9-0.7c0.1-0.2,0-0.4-0.3-0.5c-0.3-0.1-0.6-0.2-1-0.1s-0.8,0.2-1.3,0.5
			c-0.5,0.3-0.8,0.5-0.9,0.7c-0.1,0.2,0,0.4,0.3,0.5C89.6,129.4,90,129.4,90.4,129.4z"/>
	</g>
</g>
</svg>
