<svg xmlns="http://www.w3.org/2000/svg" width="11" height="15.438" viewBox="0 -1.438 11 15.438"><path fill="currentColor" d="M5.797 13.564c-.162.16-.39.195-.51.076L.004 8.354c-.12-.12-.085-.347.076-.508.162-.162.39-.197.508-.076l5.286 5.285c.12.12.084.347-.077.51z"/><path fill="currentColor" d="M5.23 13.577c.162.16.39.196.508.078l5.245-5.246c.12-.12.084-.347-.078-.51-.16-.16-.39-.195-.506-.077L5.15 13.07c-.118.118-.083.345.078.507z"/><path fill="currentColor" d="M5.517 13.682c.228-.002.413-.23.414-.514V-.927c0-.282-.184-.512-.413-.51-.228 0-.413.227-.413.51v14.094c0 .284.186.513.414.515z"/></svg>