<?xml version="1.0" encoding="utf-8"?>
<!-- Generator: Adobe Illustrator 15.0.0, SVG Export Plug-In  -->
<!DOCTYPE svg PUBLIC "-//W3C//DTD SVG 1.1//EN" "http://www.w3.org/Graphics/SVG/1.1/DTD/svg11.dtd" [
	<!ENTITY ns_flows "http://ns.adobe.com/Flows/1.0/">
]>
<svg version="1.1"
	 xmlns="http://www.w3.org/2000/svg" xmlns:xlink="http://www.w3.org/1999/xlink" xmlns:a="http://ns.adobe.com/AdobeSVGViewerExtensions/3.0/"
	 x="0px" y="0px" width="104px" height="132px" viewBox="0 -19.784 104 132"
	 overflow="visible" enable-background="new 0 -19.784 104 132" xml:space="preserve">
<defs>
</defs>
<path fill="#ECEDED" d="M44.286,53.729L29.604,56.11L2,71.172c-0.91,0.496-1.066,2.557-0.188,3.104l4.824,3.014
	c1.069,0.667,2.688,0.553,3.779-0.078l18.636-10.758c3.813-2.203,6.038-2.557,9.204,0.178l14.427,12.447l-38.298,24.08
	c-1.205,0.757-0.737,3.486,0.469,4.238l4.679,2.922c1.529,0.955,3.837,1.262,5.398,0.357l35.794-20.665
	c5.521-3.188,9.201-3.868,14.215-0.974l9.08,5.242c1.477,0.853,3.668,1,5.113,0.098l5.352-3.341c0.861-0.538,0.533-2.456-0.303-3.03
	L44.286,53.729z"/>
<path fill="#A2A6A9" d="M18.439,1.715c1.699-0.981,3.361-1.528,4.909-1.674c1.686-0.159,3.231,0.148,4.56,0.881
	c0.135,0.062,0.268,0.138,0.39,0.227l5.7,3.566c1.355,0.772,2.439,1.964,3.166,3.531c0.645,1.39,1,3.068,1,4.99
	c0,2.619-0.66,5.422-1.802,8.096c-0.656,1.539-1.479,3.044-2.431,4.453c0.197,0.105,0.39,0.218,0.576,0.338
	c0.037,0.023,0.073,0.048,0.109,0.074l4.834,3.091c1.866,0.866,3.375,2.339,4.404,4.353c0.939,1.839,1.463,4.108,1.463,6.737v5.106
	c0,0.964-0.561,1.798-1.373,2.195L9.658,67.475c-0.805,0.467-1.766,0.42-2.505-0.039H7.152l-5.999-3.746
	c-0.741-0.461-1.148-1.254-1.149-2.065H0v-5.106c0-4.696,1.658-9.894,4.328-14.479c2.529-4.345,5.999-8.195,9.856-10.606
	l-3.111-1.939l-0.028-0.017c-1.275-0.803-2.291-2-2.969-3.545c-0.596-1.358-0.924-2.976-0.924-4.813
	c0-3.602,1.255-7.557,3.282-11.041c2.02-3.469,4.849-6.528,8.007-8.354L18.439,1.715L18.439,1.715z M23.808,4.882
	c-0.86,0.081-1.849,0.422-2.929,1.045l-0.002-0.004l-0.008,0.004c-2.397,1.384-4.602,3.801-6.223,6.586
	c-1.615,2.775-2.615,5.862-2.615,8.601c0,1.167,0.18,2.128,0.505,2.869c0.256,0.584,0.606,1.028,1.027,1.315
	c0.072,0.042,0.143,0.086,0.21,0.134l5.672,3.535l-0.002,0.005c0.036,0.022,0.071,0.046,0.107,0.071
	c0.027,0.019,0.007,0.001,0.099,0.058c0.03,0.02,0.062,0.038,0.091,0.054l0,0l0.01,0.005l0.084,0.047
	c0.074,0.036,0.068,0.037,0.068,0.038c0.466,0.2,0.873,0.547,1.146,1.021c0.668,1.163,0.267,2.648-0.896,3.316l-2.766,1.597
	c-0.04,0.026-0.082,0.053-0.126,0.078c-3.368,1.945-6.457,5.331-8.72,9.217c-2.259,3.88-3.662,8.208-3.662,12.042v3.76l3.61,2.254
	l31.949-18.445V40.38c0-1.862-0.325-3.382-0.909-4.526c-0.511-1-1.232-1.722-2.104-2.133c-0.217-0.084-0.422-0.201-0.611-0.35
	l-4.781-3.058c-0.053-0.028-0.104-0.059-0.154-0.091c-0.311-0.198-0.643-0.353-0.994-0.461c-0.374-0.115-0.777-0.186-1.207-0.208
	l0.001-0.005c-0.545-0.027-1.083-0.237-1.517-0.633c-0.988-0.905-1.057-2.441-0.15-3.43c1.582-1.73,2.928-3.842,3.871-6.057
	c0.888-2.081,1.402-4.226,1.402-6.19c0-1.208-0.192-2.196-0.543-2.951c-0.292-0.628-0.693-1.084-1.174-1.349V8.935
	c-0.039-0.021-0.076-0.043-0.115-0.067l-5.746-3.596l0.003-0.004l-0.066-0.039l-0.007-0.004C25.15,4.934,24.529,4.814,23.808,4.882z
	"/>
<path fill="#ECEDED" d="M19.659,3.822c2.836-1.637,5.396-1.778,7.226-0.684V3.137l0.032,0.02l0.076,0.048L32.74,6.8l-3.338,5.772
	c-0.905,4.498-3.632,9.207-7.102,12.284l-3.724,6.439l-6.219-3.875h0.001c-1.714-1.069-2.768-3.244-2.768-6.307
	C9.592,14.773,14.099,7.031,19.659,3.822L19.659,3.822z M2.439,61.621l6,3.747l12.926-14.674l15.513-8.958v-5.106
	c0-1.155-0.112-2.215-0.325-3.177l1.768-2.006l-5.125-3.278h-0.002c-2.486-1.59-6.016-1.449-9.917,0.802l-7.235,4.178
	C8.561,37.47,2.439,47.983,2.439,56.516V61.621z"/>
<path fill="#A2A6A9" d="M19.439,3.442c1.447-0.835,2.832-1.297,4.098-1.416c1.329-0.126,2.528,0.124,3.532,0.712
	c0.026,0.012,0.054,0.028,0.078,0.045l0.002,0.001L27.171,2.8l0.053,0.033l0.001-0.001l5.747,3.596
	c0.205,0.127,0.268,0.397,0.142,0.602l-3.297,5.702c-0.467,2.273-1.386,4.593-2.623,6.731c-1.236,2.141-2.798,4.108-4.548,5.672
	l-3.21,5.551l3.599-2.078l0.023-0.014c1.971-1.138,3.857-1.754,5.575-1.893c1.803-0.146,3.423,0.233,4.767,1.083l0.03,0.017
	l5.096,3.259c0.029,0.016,0.059,0.035,0.086,0.058c0.18,0.16,0.197,0.438,0.037,0.619l-1.621,1.841
	c0.089,0.438,0.158,0.891,0.205,1.361c0.056,0.546,0.086,1.111,0.086,1.691v5.106h-0.002c0,0.151-0.078,0.298-0.217,0.379
	l-15.451,8.92L8.768,65.657l0,0c-0.139,0.157-0.375,0.196-0.561,0.083l-5.979-3.733C2.093,61.932,2,61.787,2,61.622v-5.106
	c0-4.343,1.554-9.183,4.056-13.479c2.503-4.297,5.959-8.064,9.766-10.262h0.001h0.001l2.229-1.287l-5.924-3.692l-0.013-0.008
	c-0.942-0.591-1.697-1.487-2.211-2.655c-0.484-1.104-0.752-2.454-0.752-4.016c0-3.248,1.149-6.847,3.01-10.04
	C14.019,7.884,16.592,5.088,19.439,3.442L19.439,3.442L19.439,3.442z M23.619,2.897C22.477,3.005,21.213,3.43,19.878,4.2l0,0
	l-0.002,0.001c-2.71,1.564-5.171,4.245-6.957,7.312c-1.784,3.065-2.888,6.508-2.888,9.601c0,1.441,0.24,2.672,0.676,3.667
	c0.438,0.997,1.074,1.758,1.864,2.256c0.015,0.008,0.029,0.018,0.043,0.028l5.811,3.621l3.497-6.048l0,0
	c0.022-0.04,0.053-0.076,0.088-0.108c1.699-1.507,3.22-3.418,4.426-5.504c1.201-2.076,2.09-4.323,2.533-6.513
	c0.007-0.055,0.025-0.108,0.055-0.159l3.125-5.405l-5.388-3.371l0.002-0.001h-0.002l-0.052-0.033l-0.026-0.015l-0.005-0.003
	L26.66,3.513C25.808,3.004,24.776,2.788,23.619,2.897L23.619,2.897z M2.878,61.379l5.478,3.42l12.681-14.396
	c0.038-0.043,0.081-0.075,0.128-0.1l15.275-8.821V36.63c0-0.564-0.026-1.099-0.078-1.603c-0.053-0.521-0.133-1.016-0.235-1.481
	c-0.031-0.142,0.011-0.282,0.099-0.383v-0.001l1.43-1.623l-4.666-2.984c-0.014-0.007-0.027-0.014-0.041-0.022
	c-1.184-0.754-2.626-1.089-4.246-0.958c-1.592,0.129-3.353,0.707-5.205,1.776l-0.025,0.014l-7.21,4.163v0.001
	c-3.673,2.121-7.019,5.772-9.446,9.944c-2.429,4.17-3.937,8.854-3.937,13.042v4.862L2.878,61.379L2.878,61.379z M32.957,28.54
	l-0.01-0.005L32.957,28.54z"/>
<path fill="#FFFFFF" d="M25.658,7.568c5.561-3.209,10.066-0.672,10.066,5.667c0,6.341-4.506,14.082-10.066,17.292
	C20.1,33.737,15.592,31.2,15.592,24.86C15.592,18.52,20.1,10.778,25.658,7.568L25.658,7.568z M22.041,36.897
	c-7.48,4.32-13.602,14.833-13.602,23.365v5.106l34.439-19.884v-5.106c0-8.531-6.121-11.978-13.602-7.658L22.041,36.897z"/>
<path fill="#A2A6A9" d="M18.287,31.635L18.287,31.635c0.828,0.475,1.783,0.722,2.83,0.722c1.44,0,3.057-0.466,4.761-1.45v-0.001
	c2.848-1.644,5.421-4.441,7.278-7.63c1.86-3.194,3.008-6.793,3.008-10.041c0-1.885-0.389-3.46-1.08-4.67l-0.015-0.028
	c-0.515-0.89-1.195-1.582-2.007-2.057l-0.033-0.021c-0.824-0.473-1.779-0.72-2.83-0.72c-1.429,0-3.038,0.461-4.732,1.435
	l-0.028,0.014c-2.847,1.643-5.42,4.44-7.279,7.631c-1.858,3.193-3.007,6.793-3.007,10.04c0,1.901,0.394,3.484,1.095,4.699
	C16.769,30.462,17.461,31.161,18.287,31.635z M18.919,15.259c1.785-3.066,4.247-5.746,6.959-7.312l0.021-0.013
	c1.556-0.893,3.015-1.317,4.3-1.317c0.895,0,1.703,0.207,2.396,0.601l0.028,0.015c0.678,0.397,1.25,0.982,1.688,1.741l0.014,0.021
	c0.615,1.079,0.963,2.505,0.963,4.238c0,3.093-1.106,6.536-2.889,9.601c-1.787,3.067-4.246,5.747-6.957,7.312l-0.002,0.001v-0.001
	c-1.563,0.903-3.032,1.331-4.322,1.331c-0.897,0-1.705-0.207-2.395-0.603v-0.001c-0.692-0.397-1.274-0.988-1.717-1.755
	c-0.623-1.081-0.975-2.515-0.975-4.259C16.031,21.767,17.135,18.324,18.919,15.259z"/>
<path fill="#A2A6A9" d="M41.863,34.144c-0.688-1.192-1.597-2.116-2.682-2.747l-0.032-0.021c-1.1-0.631-2.371-0.96-3.769-0.96
	c-1.904,0-4.044,0.614-6.296,1.91l-0.028,0.015l-7.235,4.177c-3.808,2.199-7.264,5.965-9.766,10.263C9.553,51.078,8,55.919,8,60.262
	v5.106h0.002c0,0.073,0.019,0.149,0.059,0.219c0.12,0.21,0.389,0.281,0.599,0.16l34.413-19.87c0.146-0.071,0.244-0.221,0.244-0.393
	v-5.106C43.317,37.857,42.794,35.756,41.863,34.144z M42.44,45.232L8.878,64.609v-4.349c0-4.188,1.508-8.871,3.936-13.042
	c2.428-4.172,5.774-7.823,9.447-9.944l7.235-4.177l0.023-0.014c2.111-1.214,4.103-1.79,5.862-1.79c1.243,0,2.367,0.288,3.333,0.842
	l0.027,0.015c0.951,0.553,1.754,1.37,2.363,2.427c0.856,1.479,1.336,3.432,1.336,5.799V45.232z"/>
<path fill="#E84869" d="M73.236,18.312c-1.146-0.644-2.2-0.998-3.133-1.085c-0.824-0.078-1.537,0.062-2.101,0.398l-0.008,0.004
	l-0.062,0.039l-0.013,0.007l0.002,0.003l-6.216,3.889c-0.038,0.023-0.076,0.046-0.114,0.067l0,0
	c-0.559,0.308-1.021,0.832-1.354,1.551c-0.391,0.842-0.606,1.939-0.606,3.275c0,2.15,0.563,4.498,1.534,6.771
	c1.029,2.416,2.497,4.719,4.227,6.608c0.904,0.989,0.836,2.525-0.151,3.43c-0.435,0.396-0.974,0.606-1.517,0.633v0.005
	c-0.479,0.024-0.935,0.104-1.354,0.233c-0.396,0.123-0.771,0.297-1.123,0.521c-0.055,0.033-0.104,0.063-0.158,0.093l-5.277,3.377
	c-0.059,0.04-0.115,0.078-0.174,0.114c-0.09,0.053-0.18,0.098-0.271,0.139l0.002,0.006c-1.025,0.451-1.872,1.278-2.465,2.438
	l0.008,0.004c-0.652,1.277-1.016,2.951-1.016,4.984v4.12l34.761,20.069l4.101-2.562V73.27c0-4.185-1.527-8.896-3.986-13.125
	c-2.463-4.231-5.832-7.921-9.504-10.042l-3.14-1.812c-1.163-0.674-1.562-2.163-0.886-3.325c0.275-0.481,0.693-0.831,1.172-1.028
	l0.055-0.028l0.104-0.049v-0.001l0.119-0.075c0.016-0.009,0.053-0.035,0.11-0.076c0.062-0.042,0.122-0.081,0.187-0.117l6.064-3.78
	c0.068-0.049,0.143-0.094,0.215-0.136c0.488-0.332,0.896-0.842,1.191-1.515c0.361-0.827,0.562-1.894,0.562-3.183
	c0-2.998-1.09-6.371-2.854-9.401c-1.771-3.036-4.181-5.675-6.813-7.197C73.312,18.359,73.273,18.336,73.236,18.312L73.236,18.312z
	 M70.561,12.385c1.599,0.151,3.316,0.708,5.082,1.706c0.051,0.025,0.102,0.051,0.149,0.08c3.378,1.952,6.411,5.236,8.585,8.969
	c2.176,3.737,3.523,7.98,3.523,11.84c0,1.96-0.35,3.684-0.982,5.127c-0.717,1.632-1.785,2.895-3.131,3.742l-0.033,0.021
	l-3.639,2.268c4.254,2.578,8.087,6.795,10.865,11.57c2.873,4.935,4.656,10.521,4.656,15.563v5.521h-0.006
	c-0.001,0.812-0.406,1.605-1.146,2.066l-6.49,4.054l0,0c-0.739,0.458-1.701,0.505-2.506,0.039L48.39,63.534
	c-0.813-0.396-1.372-1.229-1.372-2.193v-5.521c0-2.825,0.555-5.248,1.551-7.196l0.006,0.003l0.002-0.003
	c1.094-2.142,2.696-3.705,4.679-4.623l5.258-3.362c0.033-0.024,0.069-0.048,0.106-0.072c0.258-0.167,0.526-0.32,0.804-0.46
	c-1.074-1.565-2.001-3.247-2.734-4.967c-1.225-2.868-1.935-5.873-1.935-8.678c0-2.05,0.379-3.837,1.063-5.315
	c0.771-1.658,1.914-2.92,3.351-3.734l6.185-3.869l0.002,0.002l0.072-0.045l0.032-0.021l0,0l0.048-0.029l0.09-0.051
	C67.031,12.565,68.717,12.21,70.561,12.385z"/>
<path fill="#FCEDF1" d="M74.572,16.277c-3.066-1.771-5.836-1.924-7.816-0.74v-0.001l-0.033,0.021l-0.084,0.052l-6.215,3.89
	l3.609,6.244c0.98,4.864,3.929,9.958,7.682,13.287l4.027,6.964l6.725-4.191l0,0c1.854-1.156,2.994-3.509,2.994-6.822
	C85.461,28.122,80.586,19.749,74.572,16.277L74.572,16.277z M93.197,78.795l-6.489,4.053L72.727,66.977l-16.778-9.688v-5.522
	c0-1.25,0.12-2.396,0.353-3.438l-1.91-2.169l5.545-3.545v0.001c2.688-1.72,6.51-1.567,10.727,0.868L78.484,48
	c8.092,4.672,14.713,16.044,14.713,25.271V78.795z"/>
<path fill="#E84869" d="M89.253,58.71c-2.703-4.645-6.437-8.712-10.55-11.087v0.001l-0.001-0.001l-2.464-1.422l6.46-4.025
	l0.013-0.009c1.014-0.635,1.827-1.599,2.378-2.856c0.522-1.19,0.81-2.645,0.81-4.33c0-3.507-1.239-7.393-3.248-10.841
	c-2.006-3.448-4.784-6.467-7.858-8.242l-0.024-0.014c-1.553-0.892-3.037-1.386-4.394-1.514c-1.435-0.136-2.728,0.134-3.81,0.771
	l-0.032,0.019l-0.015,0.008l-0.027,0.018l-0.08,0.051h-0.001l-6.218,3.889c-0.205,0.127-0.268,0.396-0.142,0.602l3.569,6.173
	c0.504,2.456,1.497,4.965,2.833,7.277c1.339,2.314,3.026,4.44,4.917,6.129l3.542,6.125L70.9,43.117l-0.022-0.014
	c-2.127-1.229-4.163-1.893-6.015-2.043c-1.944-0.156-3.688,0.251-5.135,1.166l-0.031,0.019l-5.516,3.527
	c-0.031,0.016-0.06,0.035-0.084,0.059c-0.185,0.159-0.199,0.438-0.041,0.618l1.768,2.006c-0.098,0.478-0.174,0.972-0.225,1.483
	c-0.062,0.59-0.095,1.199-0.095,1.824v5.524h0.001c0,0.148,0.078,0.298,0.221,0.379l16.717,9.65l13.934,15.82
	c0.139,0.157,0.375,0.196,0.561,0.082l6.471-4.039c0.136-0.074,0.229-0.219,0.229-0.386v-5.522
	C93.637,68.583,91.957,63.355,89.253,58.71z M72.094,38.808c-0.023-0.039-0.053-0.075-0.09-0.108
	c-1.841-1.631-3.484-3.701-4.793-5.962c-1.301-2.25-2.263-4.684-2.744-7.059c-0.008-0.054-0.027-0.108-0.057-0.158l-3.396-5.876
	l5.855-3.664l0.002-0.001l0.084-0.053l0.004-0.002l0.021-0.012c0.928-0.555,2.053-0.791,3.311-0.672
	c1.234,0.117,2.6,0.573,4.039,1.4l0.023,0.014c2.938,1.697,5.604,4.601,7.539,7.923c1.934,3.32,3.129,7.05,3.129,10.401
	c0,1.564-0.26,2.9-0.734,3.98c-0.477,1.086-1.172,1.916-2.031,2.458c-0.016,0.007-0.031,0.017-0.045,0.027l-6.316,3.937
	L72.094,38.808z M92.758,78.551l-5.967,3.727l-13.736-15.59c-0.037-0.043-0.082-0.076-0.129-0.102l-16.541-9.55v-5.271
	c0-0.609,0.028-1.188,0.086-1.734c0.057-0.564,0.143-1.102,0.256-1.605c0.029-0.142-0.01-0.283-0.1-0.384V48.04l-1.572-1.787
	L60.139,43l0.029-0.017c1.289-0.825,2.861-1.191,4.626-1.048c1.728,0.14,3.638,0.766,5.646,1.925l0.025,0.014l7.801,4.503v0.001
	c3.979,2.298,7.604,6.251,10.23,10.769c2.63,4.519,4.262,9.588,4.262,14.125V78.551z"/>
<path fill="#FFFFFF" d="M68.082,20.329c-6.014-3.473-10.889-0.728-10.889,6.13c0,6.857,4.875,15.231,10.889,18.703
	c6.014,3.473,10.889,0.729,10.889-6.129C78.971,32.174,74.096,23.801,68.082,20.329L68.082,20.329z M71.995,52.054
	c8.093,4.671,14.713,16.044,14.713,25.271v5.521L49.457,61.341v-5.521c0-9.229,6.621-12.957,14.712-8.283L71.995,52.054z"/>
<path fill="#E84869" d="M67.863,45.541l0.027,0.016c1.825,1.049,3.562,1.549,5.104,1.549c1.128,0,2.154-0.266,3.043-0.775
	l0.033-0.021c0.875-0.511,1.604-1.254,2.16-2.213l0.016-0.028c0.744-1.305,1.164-3,1.164-5.035c0-3.506-1.241-7.393-3.25-10.841
	c-2.006-3.448-4.785-6.468-7.857-8.242c-1.838-1.061-3.582-1.564-5.133-1.564c-1.129,0-2.156,0.266-3.043,0.775
	c-0.886,0.51-1.631,1.262-2.193,2.234l-0.015,0.028c-0.745,1.305-1.165,3.001-1.165,5.036c0,3.506,1.243,7.393,3.25,10.841
	C62.012,40.748,64.788,43.767,67.863,45.541z M58.68,21.854l0.012-0.02c0.483-0.835,1.119-1.479,1.871-1.912
	c0.754-0.432,1.633-0.658,2.607-0.658c1.402,0,2.996,0.464,4.693,1.444c2.938,1.697,5.604,4.601,7.539,7.922
	c1.934,3.321,3.131,7.051,3.131,10.402c0,1.882-0.379,3.431-1.049,4.604l-0.012,0.021c-0.479,0.828-1.104,1.465-1.845,1.898
	l-0.026,0.015c-0.754,0.432-1.635,0.658-2.607,0.658c-1.396,0-2.982-0.459-4.67-1.431l-0.021-0.013
	c-2.941-1.698-5.607-4.601-7.541-7.923c-1.934-3.32-3.129-7.05-3.129-10.401C57.633,24.577,58.01,23.027,58.68,21.854z"/>
<path fill="#E84869" d="M82.766,62.761c-2.701-4.643-6.438-8.712-10.553-11.087l-7.824-4.518c-2.439-1.41-4.76-2.077-6.822-2.077
	c-1.504,0-2.875,0.354-4.057,1.031l-0.033,0.021c-1.167,0.678-2.147,1.676-2.889,2.958l-0.002-0.001
	c-1.003,1.739-1.568,4.008-1.568,6.729v5.522c0,0.172,0.099,0.322,0.244,0.393l37.226,21.494c0.209,0.121,0.477,0.049,0.599-0.16
	c0.04-0.069,0.06-0.146,0.06-0.219v-5.522C87.146,72.633,85.469,67.404,82.766,62.761z M86.27,82.089l-36.374-21v-5.271
	c0-2.564,0.522-4.684,1.449-6.289h-0.001l0.001-0.002c0.663-1.147,1.536-2.035,2.572-2.639l0.028-0.015
	c1.049-0.603,2.271-0.916,3.621-0.916c1.916,0,4.084,0.629,6.383,1.956l0.002-0.001v0.001l7.826,4.52
	c3.978,2.297,7.599,6.249,10.229,10.769c2.63,4.517,4.264,9.589,4.264,14.125V82.089L86.27,82.089z"/>
<path fill="#00B7DE" d="M35.707,18.45c2.037-1.154,4.014-1.796,5.843-1.97c2.087-0.197,3.988,0.203,5.604,1.144l0.089,0.05
	l0.075,0.048l0.003-0.003l0.097,0.061l7.301,4.568c1.614,0.914,2.904,2.335,3.773,4.208c0.781,1.685,1.213,3.73,1.213,6.083
	c0,3.249-0.824,6.732-2.242,10.06c-0.92,2.157-2.1,4.261-3.475,6.198c0.443,0.201,0.875,0.435,1.291,0.694l0.062,0.04h0.001
	l6.365,4.068c2.265,1.043,4.093,2.823,5.337,5.261c0.032,0.064,0.062,0.131,0.09,0.198c1.088,2.214,1.689,4.937,1.689,8.087v6.511
	c0,0.966-0.561,1.8-1.372,2.194l-43.761,25.265c-0.806,0.468-1.767,0.421-2.506-0.039v0.003l-7.65-4.777
	c-0.741-0.461-1.148-1.256-1.148-2.067h-0.005v-6.511c0-5.87,2.079-12.377,5.429-18.129c3.346-5.748,7.994-10.801,13.136-13.771
	c0.044-0.025,0.09-0.051,0.136-0.072l0.006-0.004l-4.904-3.057l-0.057-0.036c-1.503-0.952-2.701-2.37-3.504-4.202
	c-0.723-1.646-1.121-3.62-1.121-5.872c0-4.473,1.564-9.397,4.094-13.741c2.525-4.338,6.047-8.153,9.963-10.414
	C35.608,18.5,35.658,18.474,35.707,18.45L35.707,18.45z M42.008,21.321c-1.165,0.11-2.478,0.549-3.891,1.347
	c-0.038,0.025-0.077,0.049-0.117,0.073c-3.173,1.832-6.07,5.001-8.19,8.642c-2.116,3.636-3.427,7.691-3.427,11.301
	c0,1.581,0.25,2.896,0.702,3.926c0.387,0.882,0.927,1.552,1.582,1.988c0.076,0.045,0.151,0.092,0.223,0.143l7.267,4.527
	l-0.004,0.002c0.033,0.021,0.066,0.043,0.098,0.063l0.162,0.103l0.07,0.045c0.059,0.027,0.115,0.061,0.173,0.095l0.052,0.028
	l0.15,0.071v0.002c0.453,0.202,0.848,0.546,1.115,1.011c0.668,1.162,0.266,2.646-0.896,3.314l-3.562,2.058
	c-0.04,0.025-0.082,0.053-0.125,0.078c-4.398,2.538-8.424,6.944-11.364,11.995c-2.938,5.046-4.762,10.683-4.762,15.689v5.161
	l5.261,3.287l41.424-23.916v-5.108c0-2.396-0.413-4.381-1.156-5.915c-0.033-0.053-0.061-0.104-0.09-0.159
	c-0.729-1.428-1.76-2.455-3.01-3.034c-0.162-0.063-0.32-0.146-0.471-0.246c-0.057-0.035-0.107-0.074-0.158-0.113l-6.268-4.007
	l-0.064-0.039c-0.438-0.28-0.92-0.504-1.439-0.664c-0.529-0.164-1.1-0.264-1.701-0.295v-0.004c-0.543-0.027-1.082-0.237-1.516-0.636
	c-0.989-0.903-1.057-2.44-0.152-3.431c2.07-2.264,3.829-5.022,5.062-7.912c1.164-2.733,1.843-5.56,1.843-8.153
	c0-1.639-0.271-2.995-0.756-4.043c-0.414-0.894-0.99-1.559-1.687-1.972c-0.122-0.06-0.24-0.13-0.35-0.21l-7.188-4.499l-0.098-0.061
	l0.001-0.002l-0.004-0.002C44.003,21.406,43.074,21.221,42.008,21.321z"/>
<path fill="#E3F3FB" d="M36.781,20.635c3.613-2.087,6.879-2.268,9.213-0.872v-0.001l0.041,0.025l0.097,0.061l7.327,4.585
	l-4.254,7.36c-1.156,5.734-4.633,11.739-9.057,15.663l-4.748,8.21l-7.929-4.938h0.001c-2.187-1.362-3.528-4.138-3.528-8.042
	C23.944,34.599,29.69,24.728,36.781,20.635L36.781,20.635z M14.823,94.334l7.651,4.775L38.954,80.4l19.78-11.42v-6.51
	c0-1.475-0.145-2.824-0.414-4.053l2.254-2.56l-6.537-4.178h-0.001c-3.17-2.027-7.671-1.85-12.644,1.021l-9.226,5.327
	c-9.539,5.507-17.345,18.912-17.345,29.791v6.512h0.002V94.334z"/>
<path fill="#00B7DE" d="M36.588,20.242c1.818-1.047,3.561-1.626,5.148-1.777c1.677-0.158,3.186,0.157,4.447,0.901l0.036,0.019
	l0.028,0.02l0.018,0.011v-0.001l0.098,0.061l7.329,4.585c0.203,0.127,0.268,0.396,0.142,0.602l-4.214,7.291
	c-0.593,2.891-1.761,5.844-3.335,8.567c-1.575,2.726-3.562,5.229-5.791,7.212l-4.327,7.484l5.009-2.892
	c2.498-1.441,4.885-2.224,7.059-2.397c2.273-0.184,4.316,0.293,6.008,1.364l0.031,0.021l6.506,4.16
	c0.031,0.018,0.062,0.035,0.088,0.06c0.182,0.159,0.197,0.438,0.037,0.618l-2.106,2.395c0.118,0.571,0.21,1.166,0.272,1.781
	c0.068,0.69,0.105,1.407,0.105,2.146v6.51h-0.001c-0.001,0.151-0.079,0.3-0.22,0.379L39.24,80.741L22.802,99.4h-0.001
	c-0.139,0.158-0.375,0.197-0.561,0.082l-7.629-4.765c-0.136-0.075-0.228-0.22-0.228-0.386V87.82c0-5.518,1.974-11.666,5.154-17.129
	c3.18-5.463,7.572-10.25,12.409-13.041l3.017-1.741l-7.724-4.812l-0.018-0.012c-1.18-0.74-2.127-1.863-2.771-3.331
	c-0.611-1.394-0.947-3.096-0.947-5.073c0-4.12,1.459-8.688,3.819-12.741c2.358-4.052,5.624-7.602,9.235-9.687L36.588,20.242
	L36.588,20.242z M41.82,19.336c-1.469,0.139-3.092,0.681-4.799,1.664L37,21.014c-3.478,2.008-6.631,5.441-8.918,9.368
	c-2.285,3.926-3.698,8.337-3.698,12.301c0,1.855,0.309,3.441,0.871,4.724c0.57,1.297,1.4,2.285,2.431,2.935
	c0.016,0.009,0.031,0.019,0.045,0.029l7.518,4.685l4.521-7.82v0.002c0.023-0.041,0.053-0.077,0.089-0.108
	c2.175-1.929,4.122-4.376,5.667-7.047c1.539-2.661,2.676-5.541,3.244-8.349c0.008-0.054,0.027-0.108,0.056-0.158l4.042-6.993
	L45.9,20.22l-0.098-0.062l0,0l-0.004-0.003l-0.004-0.002l-0.025-0.015C44.662,19.476,43.32,19.194,41.82,19.336L41.82,19.336z
	 M15.263,94.091l7.128,4.451l16.236-18.431c0.041-0.047,0.09-0.084,0.145-0.108L58.299,68.73v-6.26c0-0.723-0.035-1.406-0.102-2.057
	c-0.068-0.668-0.17-1.305-0.303-1.9c-0.031-0.144,0.01-0.283,0.099-0.386l-0.001-0.001l1.916-2.174l-6.076-3.886l-0.03-0.02
	c-1.533-0.979-3.404-1.416-5.501-1.247c-2.047,0.165-4.31,0.907-6.688,2.28l-9.227,5.327c-4.701,2.715-8.982,7.386-12.09,12.723
	c-3.106,5.336-5.034,11.328-5.034,16.689L15.263,94.091L15.263,94.091z"/>
<path fill="#FFFFFF" d="M44.43,25.412c7.09-4.093,12.835-0.858,12.835,7.227c0,8.084-5.747,17.955-12.835,22.047
	c-7.088,4.095-12.835,0.856-12.835-7.228S37.342,29.505,44.43,25.412L44.43,25.412z M39.817,62.811
	c-9.54,5.506-17.343,18.912-17.343,29.791v6.51l43.913-25.354v-6.511c0-10.878-7.806-15.271-17.345-9.767L39.817,62.811z"/>
<path fill="#00B7DE" d="M35.058,55.976l0.034,0.021c1.034,0.593,2.232,0.902,3.549,0.902c1.813,0,3.856-0.589,6.008-1.833
	c3.612-2.088,6.879-5.637,9.238-9.688c2.359-4.052,3.818-8.62,3.818-12.74c0-2.402-0.497-4.4-1.38-5.93l-0.001,0.001
	c-0.657-1.136-1.523-2.013-2.557-2.606C52.734,23.51,51.536,23.2,50.22,23.2c-1.804,0-3.838,0.585-5.983,1.818l-0.026,0.016
	c-3.612,2.085-6.877,5.635-9.236,9.687c-2.359,4.053-3.819,8.621-3.819,12.74c0,2.403,0.497,4.399,1.379,5.933
	C33.182,54.513,34.037,55.381,35.058,55.976z M35.733,35.16c2.287-3.928,5.439-7.361,8.916-9.369l0.021-0.013
	c2.004-1.154,3.889-1.7,5.551-1.7c1.16,0,2.211,0.272,3.112,0.789c0.901,0.517,1.66,1.285,2.233,2.281l0.002,0.001h-0.002
	c0.807,1.397,1.26,3.246,1.26,5.491c0,3.964-1.414,8.375-3.699,12.301c-2.287,3.929-5.439,7.361-8.914,9.371h-0.002
	c-2.013,1.16-3.906,1.711-5.57,1.711c-1.162,0-2.213-0.27-3.113-0.787l-0.029-0.014c-0.887-0.519-1.635-1.281-2.205-2.27
	c-0.807-1.396-1.26-3.246-1.26-5.491C32.034,43.497,33.448,39.086,35.733,35.16z"/>
<path fill="#00B7DE" d="M65.004,59.382l-0.016-0.026c-0.875-1.517-2.033-2.688-3.416-3.479s-2.984-1.207-4.744-1.207
	c-2.418,0-5.139,0.783-8.003,2.438l0,0l-9.202,5.311l-0.025,0.014c-4.836,2.793-9.229,7.579-12.408,13.043
	c-3.181,5.463-5.154,11.611-5.154,17.129v6.511c0,0.075,0.02,0.149,0.06,0.221c0.121,0.209,0.389,0.279,0.599,0.158l43.889-25.339
	c0.145-0.071,0.244-0.223,0.244-0.395v-6.511C66.828,64.066,66.17,61.417,65.004,59.382z M65.948,73.505L22.913,98.352v-5.75
	c0-5.36,1.929-11.354,5.035-16.689c3.106-5.337,7.387-10.008,12.09-12.723l0.021-0.017l9.202-5.312v-0.002h0.002
	c2.722-1.57,5.293-2.316,7.563-2.316c1.605,0,3.061,0.375,4.309,1.092s2.299,1.779,3.094,3.158l0.015,0.021
	c1.091,1.901,1.706,4.406,1.706,7.433L65.948,73.505L65.948,73.505z"/>
</svg>
