<?xml version="1.0" encoding="utf-8"?>
<!-- Generator: Adobe Illustrator 15.0.0, SVG Export Plug-In  -->
<!DOCTYPE svg PUBLIC "-//W3C//DTD SVG 1.1//EN" "http://www.w3.org/Graphics/SVG/1.1/DTD/svg11.dtd" [
	<!ENTITY ns_flows "http://ns.adobe.com/Flows/1.0/">
]>
<svg version="1.1"
	 xmlns="http://www.w3.org/2000/svg" xmlns:xlink="http://www.w3.org/1999/xlink" xmlns:a="http://ns.adobe.com/AdobeSVGViewerExtensions/3.0/"
	 x="0px" y="0px" width="104px" height="132px" viewBox="0 -19 104 132" overflow="visible" enable-background="new 0 -19 104 132"
	 xml:space="preserve">
<defs>
</defs>
<path fill="#FFFFFF" d="M1.297,41.816C6.468,14.745,21.318,2.955,42.786,1.614C33.743,6.056,28.779,19.47,28.312,42.782
	c1.703,24.315,6.121,40.764,16.403,40.202C19.396,83.143,5.174,69.102,1.297,41.816z"/>
<path fill="#ECEDED" d="M72.866,72.292c2.976,2.46,4.685,5.327,4.685,8.388c0,9.156-15.29,16.58-34.152,16.58
	S9.246,89.836,9.246,80.68c0-3.061,1.708-5.928,4.685-8.388c5.933,7.203,16.907,12.037,29.468,12.037
	C55.959,84.329,66.936,79.495,72.866,72.292z"/>
<path fill="#ECEDED" d="M84.297,42.066C79.121,14.995,64.259,3.205,42.772,1.864c9.051,4.442,14.019,17.856,14.485,41.168
	c-1.704,24.315-6.126,40.764-16.417,40.202C66.183,83.393,80.417,69.352,84.297,42.066z"/>
<path fill="#A3A7AA" d="M42.813,0c11.822,0,22.525,4.792,30.273,12.541c7.748,7.748,12.54,18.452,12.54,30.273
	c0,11.822-4.792,22.524-12.54,30.273c-7.748,7.746-18.451,12.54-30.273,12.54c-11.821,0-22.525-4.794-30.272-12.54
	C4.792,65.338,0,54.636,0,42.814s4.792-22.525,12.541-30.273C20.289,4.792,30.992,0,42.813,0L42.813,0z M71.016,14.613
	C63.798,7.396,53.827,2.932,42.813,2.932c-11.012,0-20.983,4.464-28.2,11.681C7.396,21.83,2.933,31.801,2.933,42.814
	s4.464,20.982,11.681,28.202c7.216,7.215,17.188,11.68,28.2,11.68c11.014,0,20.984-4.465,28.202-11.68
	c7.217-7.22,11.68-17.188,11.68-28.202S78.23,21.83,71.016,14.613z"/>
<path fill="#A3A7AA" d="M42.813,27.393c11.072,0,21.106,1.69,28.376,4.422c7.398,2.781,11.977,6.672,11.977,11.016
	c0,4.344-4.577,8.237-11.977,11.019c-7.271,2.729-17.304,4.42-28.376,4.42s-21.107-1.69-28.376-4.42
	C7.039,51.066,2.462,47.174,2.462,42.83c0-4.344,4.576-8.235,11.975-11.016C21.707,29.083,31.741,27.393,42.813,27.393
	L42.813,27.393z M70.88,32.635c-7.174-2.695-17.097-4.363-28.066-4.363c-10.969,0-20.893,1.668-28.067,4.363
	C7.7,35.283,3.342,38.892,3.342,42.83c0,3.941,4.358,7.547,11.404,10.195c7.174,2.695,17.098,4.363,28.067,4.363
	c10.971,0,20.894-1.668,28.067-4.363c7.047-2.647,11.406-6.254,11.406-10.195C82.287,38.891,77.928,35.283,70.88,32.635z"/>
<path fill="#A3A7AA" d="M57.257,42.83c0,11.068-1.577,21.1-4.129,28.365c-2.597,7.406-6.242,11.986-10.314,11.986
	c-4.074,0-7.717-4.58-10.315-11.986c-2.551-7.266-4.127-17.297-4.127-28.365c0-11.068,1.576-21.099,4.127-28.366
	C35.097,7.059,38.74,2.478,42.814,2.478c4.073,0,7.717,4.581,10.314,11.985C55.68,21.731,57.257,31.762,57.257,42.83L57.257,42.83z
	 M52.302,70.908c2.519-7.176,4.074-17.104,4.074-28.078c0-10.974-1.558-20.901-4.074-28.077c-2.471-7.041-5.829-11.395-9.488-11.395
	s-7.018,4.354-9.488,11.395C30.808,21.93,29.25,31.857,29.25,42.83c0,10.973,1.558,20.902,4.075,28.078
	c2.471,7.041,5.829,11.396,9.488,11.396S49.831,77.949,52.302,70.908z"/>
<path fill="#A3A7AA" d="M42.813,12.127c9.64,0,18.376,1.472,24.707,3.851c6.461,2.427,10.457,5.833,10.457,9.638
	c0,3.805-3.996,7.21-10.455,9.637c-6.332,2.379-15.068,3.851-24.708,3.851s-18.376-1.472-24.708-3.851
	c-6.458-2.427-10.454-5.832-10.454-9.637c0-3.805,3.995-7.21,10.455-9.638C24.438,13.6,33.174,12.127,42.813,12.127L42.813,12.127z
	 M67.212,16.8c-6.235-2.343-14.861-3.793-24.398-3.793c-9.536,0-18.163,1.45-24.397,3.793c-6.107,2.294-9.886,5.416-9.886,8.816
	c0,3.4,3.778,6.521,9.884,8.816c6.236,2.342,14.862,3.792,24.399,3.792s18.165-1.45,24.399-3.792
	c6.107-2.295,9.885-5.416,9.885-8.816C77.098,22.215,73.32,19.094,67.212,16.8z"/>
<path fill="#A3A7AA" d="M42.813,47.123c9.64,0,18.376,1.471,24.708,3.852c6.459,2.428,10.455,5.832,10.455,9.637
	s-3.996,7.209-10.455,9.638c-6.332,2.38-15.068,3.851-24.708,3.851s-18.376-1.471-24.707-3.851
	c-6.46-2.429-10.455-5.833-10.455-9.638s3.995-7.209,10.455-9.637C24.437,48.593,33.173,47.123,42.813,47.123L42.813,47.123z
	 M67.213,51.793c-6.234-2.344-14.862-3.792-24.399-3.792s-18.163,1.448-24.397,3.792c-6.108,2.295-9.887,5.417-9.887,8.816
	c0,3.4,3.778,6.521,9.886,8.817c6.235,2.345,14.86,3.792,24.397,3.792s18.164-1.447,24.399-3.792
	c6.106-2.296,9.886-5.417,9.886-8.817C77.098,57.21,73.32,54.088,67.213,51.793z"/>
<path fill="#E94969" d="M56.77,41.738c2.344,0,4.258-1.912,4.258-4.255c0-2.343-1.914-4.255-4.258-4.255s-4.254,1.911-4.254,4.255
	C52.516,39.827,54.426,41.738,56.77,41.738z"/>
<path fill="#E94969" d="M29.554,60.766c2.104,0,3.82-1.716,3.82-3.818c0-2.105-1.716-3.821-3.82-3.821s-3.821,1.716-3.821,3.821
	C25.733,59.05,27.45,60.766,29.554,60.766z"/>
<path fill="#E94969" d="M33.509,17.443c2.209,0,4.012-1.803,4.012-4.012S35.719,9.42,33.509,9.42c-2.209,0-4.012,1.802-4.012,4.011
	C29.498,15.641,31.3,17.443,33.509,17.443z"/>
</svg>
