<?xml version="1.0" encoding="utf-8"?>
<!-- Generator: Adobe Illustrator 15.0.0, SVG Export Plug-In  -->
<!DOCTYPE svg PUBLIC "-//W3C//DTD SVG 1.1//EN" "http://www.w3.org/Graphics/SVG/1.1/DTD/svg11.dtd" [
	<!ENTITY ns_flows "http://ns.adobe.com/Flows/1.0/">
]>
<svg version="1.1"
	 xmlns="http://www.w3.org/2000/svg" xmlns:xlink="http://www.w3.org/1999/xlink" xmlns:a="http://ns.adobe.com/AdobeSVGViewerExtensions/3.0/"
	 x="0px" y="0px" width="104px" height="132px" viewBox="0 -17.999 104 132"
	 overflow="visible" enable-background="new 0 -17.999 104 132" xml:space="preserve">
<defs>
</defs>
<path fill="#FFFFFF" d="M89.625,33.876c0-9.25-7.875-13.625-7.875-13.625S58.75,7.126,52,3.126S38.125,3.251,38.125,3.251
	L7.875,20.876c-5.75,3.75-6.75,12.5-6.75,12.5S1.875,52.751,1.5,65.001s7.375,14.75,7.375,14.75s20.75,11.625,28,16.5
	s16,0.25,16,0.25s24-13,30.625-17.375s5.75-13.5,5.75-13.5S89.625,43.126,89.625,33.876z M56.906,20.224
	c-1.113,0-2.016-0.902-2.016-2.015c0-0.93-0.177-1.689-0.496-2.244c-0.209-0.36-0.479-0.638-0.801-0.82
	c-0.328-0.186-0.744-0.285-1.237-0.285c-0.887,0-1.953,0.317-3.153,1.009l-7.065,4.079l-0.104,0.065
	c-1.493,0.862-2.727,2.3-3.519,4.07c-0.785,1.756-1.136,3.835-0.885,6.013c0.126,1.104-0.667,2.102-1.772,2.228
	c-1.104,0.126-2.102-0.667-2.227-1.772c-0.334-2.91,0.146-5.714,1.217-8.106c1.139-2.542,2.95-4.628,5.171-5.911
	c0.038-0.022,0.076-0.042,0.114-0.062l7.072-4.082c1.854-1.07,3.606-1.562,5.152-1.562c1.189,0,2.276,0.287,3.219,0.821
	c0.952,0.538,1.729,1.317,2.298,2.3c0.677,1.172,1.047,2.616,1.047,4.259C58.922,19.321,58.02,20.224,56.906,20.224z M77.154,56.905
	c0,1.789-0.232,4.224-2.737,5.688l-10.496,6.062c2.726-1.959,2.738-3.799,2.738-5.538V60.04l10.495-6.028V56.905z"/>
<path fill="#EAEBEB" d="M80.824,80.617l3.558,2.071c4.267,2.484,3.743,6.854-1.161,9.711l-29.089,16.939
	c-4.906,2.857-12.411,3.161-16.677,0.678L6.042,91.726c-4.266-2.485-3.744-6.855,1.163-9.713l3.126-1.82l31.366,18.252l7.28,0.313
	L80.824,80.617z"/>
<path fill="#EAEBEB" d="M7.794,79.747c10.311,5.761,20.625,11.521,30.935,17.281c4.497,1.627,6.736-1.512,7.084-8.641
	c0-8.697,0-17.397,0-26.097c-0.051-5.993-2.772-10.651-7.431-14.342c-10.024-5.704-20.046-11.407-30.069-17.11
	c-2.659-2.168-3.737-4.687-2.247-7.776c-1.786,3.226-3.572,6.452-5.358,9.677C0.938,44.838,1.169,56.937,1.4,69.033
	C1.544,74.344,3.965,77.661,7.794,79.747z"/>
<path fill="#A3A7AA" d="M52.531,1.937l15.542,8.973l14.921,8.616l-0.002,0.003c2.527,1.46,4.461,3.277,5.77,5.411
	c1.324,2.157,2.002,4.611,2.002,7.322v17.946v17.23c0,2.916-0.609,5.498-1.805,7.703c-1.201,2.213-2.988,4.025-5.348,5.389
	l0.002,0.002l-15.54,8.974h-0.007l-14.918,8.612v0.002c-2.523,1.458-5.066,2.222-7.575,2.288c-2.527,0.067-4.991-0.574-7.34-1.931
	v-0.002l-15.536-8.971H22.69L7.768,80.89l0.002-0.005C5.242,79.426,3.309,77.608,2,75.476c-1.324-2.156-2-4.611-2-7.322V50.207
	v-17.23c0-2.917,0.608-5.5,1.803-7.704c1.203-2.22,2.993-4.032,5.346-5.391h0.006l15.542-8.973l14.918-8.612l-0.002-0.003
	c2.523-1.457,5.067-2.222,7.577-2.289c2.523-0.067,4.984,0.574,7.333,1.931L52.531,1.937L52.531,1.937z M66.611,13.433L51.069,4.459
	l0.001-0.002c-1.874-1.082-3.825-1.594-5.812-1.541c-2.01,0.053-4.086,0.689-6.185,1.901h-0.006l-14.923,8.616l-15.536,8.97
	l0.002,0.002c-1.874,1.082-3.292,2.515-4.24,4.261c-0.961,1.771-1.449,3.888-1.449,6.311v17.23v17.946
	c0,2.17,0.53,4.115,1.566,5.805c1.054,1.72,2.642,3.199,4.735,4.409h0.006l14.922,8.616l-0.001,0.002l15.537,8.971h0.005
	c1.875,1.082,3.827,1.594,5.811,1.541c2.01-0.053,4.086-0.688,6.185-1.898h0.005l14.917-8.613v-0.002L82.15,78.01h0.007
	c1.866-1.079,3.282-2.512,4.231-4.262c0.961-1.771,1.449-3.888,1.449-6.312V50.207V32.261c0-2.17-0.529-4.115-1.564-5.804
	c-1.056-1.721-2.643-3.202-4.736-4.41h-0.006L66.611,13.433z"/>
<path fill="#E94969" d="M18.113,52.04c2.094,1.209,3.866,4.005,4.447,6.775c0.582-2.101,2.354-2.85,4.449-1.641
	c2.567,1.483,4.65,5.348,4.65,8.631c0,4.393-5.514,8.053-9.099,8.869c-4.025-5.398-9.097-14.984-9.097-19.376
	C13.463,52.017,15.544,50.558,18.113,52.04z"/>
<path fill="#A3A7AA" d="M8.751,21.25c0.205-0.13,0.477-0.069,0.606,0.133c0.13,0.203,0.069,0.473-0.132,0.602
	C8,22.763,7.072,23.762,6.593,24.589L6.592,24.59l0.001,0.001c-0.342,0.589-0.498,1.188-0.469,1.787
	c0.028,0.605,0.244,1.221,0.641,1.838c0.721,1.12,2.027,2.236,3.891,3.306l0.023,0.014l28.708,16.475l0.028,0.018l0,0
	c2.784,1.898,4.528,4.311,5.577,6.967c1.041,2.64,1.391,5.512,1.391,8.356v26.912c0,1.529-0.273,3.09-0.857,4.35
	c-0.364,0.791-0.852,1.464-1.47,1.945c-0.637,0.496-1.403,0.782-2.306,0.782l0,0c-0.706,0-1.494-0.179-2.365-0.575
	c-0.22-0.102-0.316-0.361-0.216-0.58c0.102-0.218,0.362-0.313,0.583-0.215c0.751,0.344,1.416,0.498,1.999,0.498v-0.002
	c0.697,0,1.282-0.222,1.766-0.596c0.502-0.391,0.905-0.953,1.212-1.619c0.526-1.141,0.774-2.572,0.774-3.988V63.353
	c0-2.75-0.335-5.519-1.329-8.037c-0.987-2.504-2.631-4.774-5.251-6.564L10.24,32.292l-0.025-0.013
	c-1.984-1.14-3.392-2.354-4.19-3.594c-0.481-0.747-0.744-1.506-0.779-2.266c-0.036-0.768,0.157-1.527,0.585-2.267l0.001,0.001
	C6.383,23.205,7.407,22.106,8.751,21.25z"/>
<path fill="#A3A7AA" d="M12.521,19.04c0.203-0.13,0.473-0.07,0.603,0.134c0.129,0.203,0.068,0.473-0.135,0.602
	c-1.216,0.777-2.057,1.591-2.535,2.419c-0.341,0.591-0.494,1.189-0.466,1.787c0.027,0.606,0.243,1.222,0.638,1.839
	c0.716,1.119,2.015,2.235,3.865,3.305l0.023,0.013l28.535,16.475l0.028,0.018l0.002-0.001c2.766,1.899,4.5,4.359,5.542,7.062
	c1.034,2.688,1.383,5.605,1.383,8.447c0,1.814,0.286,3.155,0.818,4.045c0.265,0.443,0.592,0.771,0.974,0.985
	c0.381,0.215,0.828,0.321,1.332,0.321v0.002c1.044,0,2.328-0.45,3.804-1.335l0.006-0.003l0,0l6.611-3.818
	c0.208-0.119,0.477-0.05,0.598,0.16c0.121,0.209,0.051,0.475-0.16,0.598l-6.61,3.816l0,0c-1.608,0.963-3.043,1.455-4.247,1.453
	v0.002c-0.654,0-1.244-0.143-1.759-0.434c-0.516-0.289-0.95-0.724-1.295-1.301c-0.614-1.025-0.946-2.52-0.946-4.494
	c0-2.752-0.333-5.563-1.322-8.131c-0.981-2.548-2.615-4.864-5.218-6.653L14.081,29.896l-0.027-0.015
	c-1.973-1.137-3.371-2.352-4.164-3.592c-0.479-0.747-0.74-1.507-0.775-2.267c-0.036-0.767,0.156-1.526,0.583-2.266
	C10.244,20.811,11.181,19.897,12.521,19.04L12.521,19.04z M77.502,54.286c-0.209,0.119-0.476,0.051-0.596-0.16
	c-0.119-0.209-0.048-0.475,0.161-0.596l6.062-3.496l0,0c1.433-0.828,2.818-1.984,3.634-3.442c0.82-1.472,1.26-3.403,1.159-6.042
	c-0.008-0.241,0.181-0.444,0.423-0.452c0.24-0.008,0.442,0.18,0.45,0.421c0.106,2.811-0.373,4.891-1.271,6.497
	c-0.903,1.619-2.398,2.874-3.957,3.773v-0.001l-0.002,0.001L77.502,54.286z"/>
<path fill="#A3A7AA" d="M66.346,66.749l7.85-4.532l0,0c1.152-0.673,1.781-1.565,2.119-2.493c0.348-0.949,0.402-1.959,0.402-2.816
	v-5.53c0-0.489-0.267-1.247-0.777-1.985c-0.381-0.547-0.891-1.075-1.522-1.464l-9.583,5.533c0.561,0.36,1,0.837,1.338,1.347
	c0.652,0.985,0.926,2.118,0.926,2.811v5.5c0,0.906-0.005,1.841-0.375,2.84C66.623,66.218,66.499,66.481,66.346,66.749L66.346,66.749
	z M74.635,62.974l-10.494,6.06l0,0c-0.192,0.11-0.44,0.061-0.574-0.123c-0.141-0.195-0.096-0.47,0.1-0.61
	c1.282-0.92,1.921-1.801,2.236-2.646c0.314-0.844,0.318-1.702,0.318-2.535v-5.5c0-0.562-0.229-1.499-0.779-2.327
	c-0.389-0.587-0.936-1.114-1.672-1.397c-0.093-0.033-0.174-0.1-0.228-0.191c-0.119-0.208-0.049-0.477,0.161-0.596l10.479-6.048
	c0.129-0.084,0.299-0.096,0.442-0.016c0.862,0.467,1.543,1.146,2.033,1.854c0.614,0.89,0.936,1.842,0.936,2.481v5.53
	c0,0.933-0.062,2.035-0.456,3.115c-0.404,1.103-1.146,2.16-2.5,2.951H74.635L74.635,62.974z"/>
<rect x="63.482" y="53.481" fill="#A3A7AA" width="0.875" height="15.174"/>
<path fill="#A3A7AA" d="M38.066,30.048c0.076,0.67-0.128,1.31-0.518,1.801c-0.39,0.49-0.968,0.833-1.641,0.908
	c-0.67,0.077-1.309-0.126-1.8-0.517c-0.49-0.389-0.833-0.967-0.91-1.639h-0.001c-0.167-1.466-0.135-2.906,0.073-4.281
	c0.213-1.43,0.619-2.796,1.182-4.053c0.588-1.315,1.353-2.513,2.258-3.547c0.902-1.031,1.945-1.901,3.095-2.564l0.003-0.002
	l0.056-0.031l0.014-0.009l0.056-0.029l0,0l7.055-4.073c0.943-0.543,1.858-0.943,2.73-1.207v0.001
	c0.929-0.281,1.813-0.415,2.64-0.415c0.626,0,1.227,0.075,1.796,0.22c0.578,0.147,1.128,0.369,1.64,0.658
	c0.509,0.288,0.974,0.642,1.386,1.054c0.409,0.411,0.769,0.881,1.071,1.407l0.001-0.001c0.361,0.628,0.643,1.329,0.828,2.09
	c0.184,0.744,0.279,1.544,0.279,2.39c0,0.676-0.274,1.289-0.719,1.733v0.001c-0.442,0.445-1.058,0.72-1.734,0.72
	c-0.678,0-1.291-0.276-1.734-0.72c-0.443-0.443-0.72-1.058-0.72-1.734c0-0.433-0.038-0.82-0.112-1.157
	c-0.072-0.334-0.186-0.625-0.322-0.868v-0.002c-0.086-0.147-0.186-0.278-0.293-0.39c-0.104-0.107-0.222-0.197-0.347-0.267
	c-0.128-0.073-0.274-0.129-0.44-0.167c-0.172-0.04-0.365-0.061-0.58-0.061c-0.41,0-0.865,0.076-1.357,0.233
	c-0.491,0.158-1.019,0.396-1.579,0.718l-7.051,4.071l-0.105,0.064l-0.011,0.008c-0.702,0.406-1.345,0.947-1.905,1.595
	c-0.569,0.657-1.054,1.425-1.435,2.274c-0.384,0.858-0.661,1.799-0.807,2.794c-0.141,0.957-0.162,1.962-0.043,2.991L38.066,30.048
	L38.066,30.048z M36.864,31.305c0.251-0.315,0.382-0.727,0.333-1.16l0,0c-0.128-1.104-0.105-2.186,0.047-3.215
	c0.158-1.072,0.458-2.092,0.875-3.024c0.415-0.927,0.947-1.768,1.572-2.49s1.342-1.327,2.127-1.78l0,0l0.094-0.059l0.013-0.007
	l7.063-4.077c0.616-0.355,1.2-0.617,1.747-0.792c0.585-0.188,1.13-0.278,1.624-0.278c0.275,0,0.534,0.028,0.773,0.083
	c0.249,0.058,0.476,0.145,0.679,0.26c0.196,0.112,0.377,0.251,0.541,0.419c0.155,0.161,0.299,0.35,0.422,0.562v-0.001
	c0.186,0.318,0.324,0.693,0.42,1.118c0.091,0.409,0.138,0.858,0.138,1.346c0,0.435,0.178,0.83,0.463,1.115
	c0.285,0.286,0.679,0.462,1.114,0.462c0.435,0,0.83-0.176,1.115-0.462v0.001c0.285-0.285,0.463-0.68,0.463-1.116
	c0-0.78-0.088-1.51-0.252-2.181c-0.168-0.68-0.418-1.303-0.737-1.859v-0.002c-0.263-0.456-0.576-0.866-0.937-1.227
	c-0.354-0.355-0.756-0.662-1.197-0.91c-0.438-0.249-0.915-0.441-1.422-0.57c-0.5-0.127-1.028-0.192-1.583-0.192
	c-0.75,0-1.551,0.121-2.387,0.375v0.002c-0.819,0.248-1.673,0.62-2.548,1.125l-7.072,4.082l-0.017,0.009l-0.057,0.029l0,0
	l-0.038,0.021l0,0c-1.066,0.614-2.034,1.424-2.874,2.383c-0.848,0.969-1.565,2.093-2.118,3.329c-0.53,1.182-0.911,2.472-1.114,3.828
	c-0.196,1.302-0.227,2.664-0.069,4.051v0.002c0.05,0.431,0.271,0.802,0.586,1.052s0.728,0.381,1.161,0.332
	C36.242,31.839,36.613,31.619,36.864,31.305z"/>
</svg>
