<?xml version="1.0" encoding="utf-8"?>
<!-- Generator: Adobe Illustrator 15.0.0, SVG Export Plug-In  -->
<!DOCTYPE svg PUBLIC "-//W3C//DTD SVG 1.1//EN" "http://www.w3.org/Graphics/SVG/1.1/DTD/svg11.dtd" [
	<!ENTITY ns_flows "http://ns.adobe.com/Flows/1.0/">
]>
<svg version="1.1"
	 xmlns="http://www.w3.org/2000/svg" xmlns:xlink="http://www.w3.org/1999/xlink" xmlns:a="http://ns.adobe.com/AdobeSVGViewerExtensions/3.0/"
	 x="0px" y="0px" width="104px" height="132px" viewBox="0 -0.003 104 132"
	 overflow="visible" enable-background="new 0 -0.003 104 132" xml:space="preserve">
<defs>
</defs>
<path fill="#ECEDED" d="M85.17,97.925l3.54,2.062c4.245,2.472,3.726,6.82-1.155,9.664L58.61,126.506
	c-4.883,2.845-12.351,3.146-16.595,0.673l-31.257-18.201c-4.247-2.473-3.726-6.82,1.156-9.664l3.112-1.812l31.211,18.161
	l7.247,0.314L85.17,97.925z"/>
<polygon fill="#ECEDED" points="35.603,62.899 46.75,89.759 19.884,74.247 "/>
<path fill="#7CCA24" d="M83.555,99.229c-0.162,0.178-0.438,0.188-0.615,0.025c-0.178-0.162-0.188-0.439-0.025-0.615l0.168-0.186
	l0.163-0.186l0.157-0.184l0.156-0.184l0.15-0.184l0.146-0.182L84,97.36l0.018-0.023c0.149-0.188,0.424-0.223,0.613-0.072
	c0.189,0.147,0.223,0.422,0.074,0.61l-0.02,0.022l-0.149,0.188l-0.153,0.188l-0.156,0.188l-0.162,0.191l-0.166,0.188l-0.17,0.19
	L83.555,99.229L83.555,99.229z M38.634,74.479c0.236-0.051,0.467,0.099,0.519,0.332c0.052,0.235-0.098,0.47-0.333,0.521
	l-0.318,0.069l-0.164,0.037c-0.234,0.054-0.468-0.094-0.522-0.327c-0.053-0.234,0.094-0.47,0.33-0.522l0.167-0.035L38.634,74.479
	L38.634,74.479z M36.437,74.999c0.233-0.061,0.471,0.078,0.533,0.312c0.061,0.229-0.079,0.471-0.312,0.531l-0.285,0.073
	l-0.292,0.077l-0.288,0.078l-0.285,0.078l-0.281,0.08l-0.24,0.068c-0.23,0.066-0.473-0.062-0.54-0.296
	c-0.068-0.229,0.064-0.474,0.295-0.541l0.244-0.071l0.286-0.08l0.29-0.08l0.292-0.078l0.296-0.079L36.437,74.999L36.437,74.999z
	 M33.061,75.992c0.228-0.078,0.475,0.043,0.554,0.271c0.078,0.229-0.043,0.478-0.271,0.555L33.1,76.899l-0.252,0.089l-0.249,0.088
	l-0.245,0.088l-0.242,0.09l-0.239,0.091l-0.152,0.06c-0.224,0.088-0.477-0.023-0.564-0.247c-0.088-0.225,0.023-0.479,0.247-0.564
	l0.159-0.062l0.244-0.093l0.248-0.092l0.251-0.092l0.253-0.09l0.257-0.089L33.061,75.992L33.061,75.992z M29.771,77.269
	c0.22-0.1,0.478-0.002,0.578,0.219c0.099,0.22,0.002,0.478-0.218,0.576l-0.053,0.022l-0.21,0.097l-0.207,0.098l-0.204,0.099
	l-0.201,0.097l-0.197,0.101l-0.194,0.101l-0.191,0.098l-0.082,0.046c-0.212,0.112-0.476,0.034-0.591-0.179
	c-0.114-0.211-0.035-0.477,0.177-0.59l0.089-0.048l0.199-0.104l0.201-0.102l0.203-0.103l0.208-0.101l0.21-0.103l0.214-0.101
	l0.216-0.1L29.771,77.269L29.771,77.269z M26.644,78.945c0.203-0.132,0.472-0.073,0.603,0.13c0.13,0.201,0.073,0.472-0.129,0.604
	l-0.022,0.014l-0.16,0.104l-0.157,0.104l-0.154,0.104l-0.15,0.106l-0.148,0.104l-0.145,0.105l-0.142,0.104l-0.139,0.11l-0.136,0.106
	l-0.023,0.021c-0.187,0.149-0.462,0.125-0.614-0.062s-0.126-0.461,0.06-0.612l0.032-0.026l0.144-0.113l0.147-0.112l0.149-0.113
	l0.153-0.112l0.156-0.111l0.159-0.109l0.162-0.109l0.165-0.109l0.167-0.108L26.644,78.945L26.644,78.945z M23.863,81.213
	c0.163-0.177,0.439-0.188,0.615-0.024c0.177,0.162,0.188,0.438,0.024,0.617l-0.038,0.039l-0.1,0.11l-0.099,0.11l-0.094,0.108
	l-0.091,0.112l-0.09,0.109l-0.086,0.109l-0.083,0.112l-0.08,0.11l-0.078,0.112l-0.076,0.11l-0.072,0.109l-0.027,0.045
	c-0.125,0.205-0.394,0.271-0.599,0.146c-0.205-0.125-0.271-0.395-0.145-0.6l0.035-0.059l0.081-0.125l0.083-0.123l0.086-0.125
	l0.089-0.123l0.093-0.123l0.095-0.123l0.099-0.119l0.1-0.121l0.103-0.121l0.107-0.121l0.109-0.12L23.863,81.213L23.863,81.213z
	 M21.967,84.336c0.069-0.229,0.313-0.36,0.543-0.292c0.23,0.07,0.361,0.312,0.292,0.544l-0.014,0.043l-0.032,0.111l-0.029,0.112
	l-0.027,0.11l-0.025,0.11l-0.022,0.111l-0.019,0.111l-0.017,0.111l-0.015,0.109l-0.013,0.109l-0.009,0.112l-0.007,0.11l-0.005,0.111
	l-0.002,0.11v0.096c0.002,0.24-0.191,0.438-0.432,0.438c-0.241,0.002-0.438-0.19-0.44-0.433v-0.112l0.002-0.131l0.005-0.129
	l0.01-0.132l0.011-0.131l0.015-0.131l0.017-0.13l0.02-0.131l0.023-0.131l0.025-0.131l0.029-0.129l0.031-0.129l0.035-0.13
	l0.037-0.131L21.967,84.336L21.967,84.336z M21.992,88.033c-0.076-0.229,0.047-0.478,0.275-0.552
	c0.229-0.076,0.475,0.047,0.552,0.273l0.033,0.102l0.038,0.111l0.042,0.11l0.042,0.11l0.045,0.11l0.048,0.109l0.049,0.108
	l0.054,0.11l0.055,0.11l0.057,0.109l0.061,0.109l0.062,0.109l0.064,0.109l0.037,0.059c0.127,0.205,0.064,0.476-0.14,0.603
	c-0.203,0.129-0.473,0.065-0.6-0.14l-0.044-0.071l-0.073-0.123l-0.069-0.123l-0.067-0.123l-0.065-0.123l-0.062-0.125l-0.06-0.125
	l-0.057-0.125l-0.055-0.125l-0.051-0.125l-0.049-0.127l-0.047-0.127l-0.043-0.126L21.992,88.033L21.992,88.033z M23.86,91.156
	c-0.162-0.179-0.147-0.454,0.031-0.615c0.178-0.162,0.454-0.146,0.615,0.03l0.021,0.023l0.099,0.105l0.1,0.105l0.104,0.104
	l0.105,0.104l0.107,0.105l0.11,0.105l0.112,0.104l0.115,0.104l0.116,0.104l0.12,0.104l0.105,0.088
	c0.185,0.156,0.208,0.432,0.054,0.615c-0.155,0.185-0.431,0.209-0.614,0.053l-0.114-0.096l-0.126-0.109l-0.124-0.111l-0.123-0.111
	l-0.12-0.111l-0.117-0.111l-0.116-0.111l-0.113-0.113l-0.11-0.114l-0.11-0.113l-0.105-0.114L23.86,91.156L23.86,91.156z
	 M26.593,93.481c-0.201-0.133-0.256-0.402-0.124-0.604c0.133-0.199,0.403-0.258,0.604-0.125l0.149,0.102l0.148,0.097l0.151,0.097
	l0.153,0.098l0.155,0.096l0.158,0.095l0.16,0.097l0.163,0.092l0.164,0.094l0.056,0.031c0.211,0.115,0.289,0.381,0.173,0.592
	c-0.116,0.211-0.381,0.289-0.592,0.173l-0.062-0.034l-0.171-0.098l-0.168-0.098l-0.167-0.1l-0.164-0.099l-0.163-0.101l-0.16-0.101
	l-0.158-0.103l-0.155-0.102L26.593,93.481L26.593,93.481z M29.693,95.213c-0.219-0.101-0.315-0.358-0.215-0.577
	c0.099-0.22,0.358-0.314,0.577-0.216l0.179,0.082l0.188,0.085l0.19,0.085l0.192,0.083l0.194,0.082l0.196,0.083L31.394,95l0.2,0.08
	l0.041,0.017c0.224,0.086,0.336,0.34,0.25,0.564c-0.087,0.225-0.339,0.336-0.564,0.248l-0.047-0.02l-0.206-0.082l-0.204-0.082
	l-0.203-0.086l-0.2-0.084l-0.199-0.086l-0.196-0.086l-0.194-0.09L29.693,95.213L29.693,95.213z M32.979,96.513
	c-0.228-0.076-0.352-0.322-0.275-0.552c0.076-0.229,0.323-0.353,0.552-0.276l0.015,0.006l0.219,0.072l0.221,0.071l0.222,0.07
	l0.226,0.069l0.226,0.066l0.228,0.066l0.231,0.066l0.057,0.016c0.232,0.063,0.367,0.306,0.303,0.537
	c-0.064,0.23-0.305,0.367-0.537,0.305l-0.062-0.02l-0.235-0.066l-0.235-0.068l-0.232-0.068l-0.229-0.071l-0.229-0.071l-0.225-0.074
	l-0.224-0.072L32.979,96.513L32.979,96.513z M36.373,97.476c-0.235-0.056-0.38-0.289-0.326-0.522
	c0.055-0.233,0.289-0.38,0.523-0.325l0.188,0.044l0.248,0.058l0.25,0.058l0.251,0.056l0.254,0.053l0.254,0.056l0.243,0.046
	c0.235,0.047,0.39,0.275,0.343,0.514c-0.047,0.234-0.276,0.391-0.513,0.344l-0.247-0.049l-0.26-0.058l-0.258-0.054l-0.257-0.057
	l-0.255-0.058l-0.252-0.06L36.373,97.476L36.373,97.476z M39.821,98.162c-0.237-0.037-0.399-0.263-0.362-0.499
	c0.038-0.236,0.261-0.398,0.499-0.361l0.167,0.025l0.273,0.043l0.273,0.041l0.275,0.04l0.278,0.038l0.278,0.037l0.167,0.021
	c0.239,0.03,0.408,0.25,0.378,0.488c-0.03,0.236-0.248,0.406-0.487,0.378l-0.171-0.022l-0.283-0.037l-0.282-0.039l-0.28-0.041
	l-0.278-0.041l-0.277-0.043L39.821,98.162L39.821,98.162z M43.308,98.608c-0.239-0.021-0.414-0.234-0.392-0.475
	s0.235-0.416,0.475-0.394l0.117,0.011l0.293,0.027l0.294,0.025l0.296,0.022l0.299,0.022l0.3,0.021l0.124,0.011
	c0.241,0.015,0.422,0.224,0.407,0.464c-0.015,0.238-0.224,0.422-0.464,0.404l-0.128-0.008l-0.305-0.021l-0.304-0.022l-0.301-0.024
	l-0.299-0.023l-0.298-0.028L43.308,98.608L43.308,98.608z M46.812,98.849c-0.24-0.008-0.428-0.211-0.419-0.451
	c0.008-0.239,0.21-0.428,0.45-0.42l0.295,0.012l0.313,0.012l0.245,0.008l0.245,0.006l0.243,0.006l0.241,0.002l0.149,0.002
	c0.24,0.002,0.435,0.201,0.433,0.44c-0.002,0.24-0.2,0.435-0.44,0.433l-0.154-0.002l-0.245-0.004l-0.246-0.006l-0.248-0.007
	l-0.25-0.007l-0.317-0.011L46.812,98.849L46.812,98.849z M50.327,98.884c-0.241,0.006-0.441-0.187-0.447-0.427
	c-0.006-0.239,0.186-0.44,0.426-0.446l0,0l0.23-0.006l0.227-0.007l0.226-0.009l0.225-0.008l0.224-0.012l0.221-0.013l0.221-0.011
	l0.151-0.012c0.239-0.015,0.447,0.17,0.463,0.408c0.014,0.239-0.169,0.447-0.409,0.463l-0.155,0.01l-0.225,0.014l-0.227,0.011
	l-0.227,0.013l-0.23,0.008l-0.229,0.01l-0.233,0.006L50.327,98.884L50.327,98.884L50.327,98.884z M53.838,98.667
	c-0.238,0.023-0.453-0.148-0.479-0.391c-0.024-0.237,0.148-0.451,0.39-0.478l0.053-0.006l0.207-0.021l0.207-0.022l0.204-0.022
	l0.202-0.023l0.202-0.023l0.201-0.026l0.199-0.027l0.195-0.028l0.037-0.004c0.236-0.035,0.46,0.127,0.496,0.364
	c0.035,0.239-0.129,0.46-0.366,0.496l-0.042,0.007l-0.202,0.029l-0.202,0.025l-0.205,0.026l-0.207,0.026l-0.207,0.023l-0.209,0.023
	l-0.211,0.023l-0.211,0.021L53.838,98.667L53.838,98.667z M57.331,98.157c-0.234,0.047-0.467-0.105-0.514-0.344
	c-0.047-0.233,0.105-0.467,0.343-0.512l0.174-0.035l0.185-0.037l0.183-0.037l0.181-0.038l0.182-0.04l0.179-0.04l0.178-0.041
	l0.177-0.042l0.176-0.043l0.072-0.02c0.233-0.059,0.473,0.082,0.529,0.315c0.061,0.233-0.082,0.47-0.314,0.528l-0.082,0.021
	l-0.18,0.043l-0.184,0.044l-0.182,0.043l-0.184,0.041l-0.186,0.039l-0.188,0.041l-0.188,0.038L57.5,98.122L57.331,98.157
	L57.331,98.157z M60.755,97.298c-0.229,0.073-0.476-0.056-0.546-0.285c-0.072-0.229,0.055-0.475,0.284-0.547l0.11-0.033l0.16-0.052
	l0.156-0.051l0.158-0.054l0.154-0.053l0.154-0.055l0.153-0.055l0.153-0.057l0.149-0.056l0.149-0.056l0.117-0.045
	c0.226-0.088,0.478,0.027,0.562,0.25c0.086,0.226-0.025,0.479-0.252,0.563l-0.122,0.046l-0.155,0.059l-0.154,0.058l-0.157,0.058
	l-0.158,0.058l-0.159,0.055l-0.16,0.056l-0.164,0.055l-0.162,0.054l-0.166,0.052L60.755,97.298L60.755,97.298z M64.063,96.031
	c-0.217,0.102-0.479,0.007-0.578-0.212c-0.103-0.219-0.008-0.479,0.211-0.579l0.014-0.005l0.135-0.062l0.135-0.062l0.133-0.063
	l0.132-0.064l0.13-0.064l0.128-0.062l0.128-0.066l0.127-0.066l0.126-0.064l0.124-0.067l0.123-0.067l0.094-0.051
	c0.209-0.117,0.476-0.043,0.594,0.166c0.117,0.211,0.043,0.477-0.168,0.594l-0.098,0.055l-0.128,0.07l-0.129,0.068l-0.131,0.069
	l-0.132,0.067l-0.133,0.069l-0.135,0.064l-0.138,0.065l-0.135,0.066l-0.14,0.066l-0.139,0.064l-0.14,0.064L64.063,96.031
	L64.063,96.031z M67.164,94.289c-0.198,0.136-0.472,0.085-0.604-0.114c-0.137-0.197-0.084-0.471,0.113-0.604l0.062-0.041
	l0.105-0.072l0.104-0.074l0.104-0.073l0.103-0.072l0.104-0.074l0.102-0.075l0.102-0.075l0.1-0.074l0.098-0.074l0.098-0.075
	l0.098-0.076l0.094-0.073l0.095-0.078l0.004-0.002c0.185-0.155,0.46-0.131,0.612,0.055c0.154,0.186,0.129,0.46-0.055,0.613
	l-0.01,0.008l-0.099,0.078l-0.101,0.082l-0.1,0.078l-0.102,0.082l-0.104,0.076l-0.103,0.078l-0.105,0.079l-0.105,0.078l-0.105,0.078
	l-0.105,0.075l-0.111,0.076l-0.109,0.075l-0.111,0.078L67.164,94.289L67.164,94.289z M69.914,92.017
	c-0.169,0.17-0.445,0.174-0.616,0.006c-0.173-0.168-0.177-0.443-0.008-0.615l0.02-0.021l0.078-0.078l0.074-0.08l0.075-0.078
	l0.071-0.077l0.074-0.08l0.071-0.079l0.069-0.08l0.07-0.079l0.067-0.078l0.067-0.081l0.066-0.078l0.064-0.08l0.064-0.08l0.062-0.08
	l0.062-0.079l0.047-0.062c0.146-0.191,0.42-0.227,0.61-0.078c0.19,0.146,0.226,0.42,0.08,0.609l-0.052,0.064l-0.066,0.084
	l-0.068,0.086l-0.067,0.086l-0.069,0.085l-0.07,0.085l-0.071,0.084l-0.072,0.084l-0.075,0.086l-0.074,0.084l-0.075,0.084
	l-0.077,0.083l-0.076,0.085l-0.08,0.083l-0.081,0.084l-0.079,0.083L69.914,92.017L69.914,92.017z M72.098,89.167
	c-0.119,0.209-0.385,0.283-0.595,0.164c-0.209-0.118-0.282-0.385-0.164-0.593l0.029-0.052l0.042-0.08l0.044-0.076l0.043-0.079
	l0.04-0.076l0.041-0.079l0.04-0.076l0.038-0.078l0.037-0.076l0.037-0.077l0.035-0.075l0.033-0.077l0.035-0.075l0.032-0.076
	l0.03-0.074l0.031-0.076l0.031-0.075l0.029-0.075l0.027-0.074l0.028-0.072l0.001-0.004c0.081-0.227,0.331-0.344,0.559-0.262
	c0.227,0.08,0.345,0.33,0.263,0.559l-0.005,0.01l-0.028,0.082l-0.032,0.081l-0.031,0.083l-0.033,0.081l-0.034,0.083l-0.035,0.083
	l-0.036,0.082l-0.035,0.082l-0.039,0.083l-0.039,0.083l-0.039,0.083l-0.041,0.085l-0.041,0.084l-0.043,0.083l-0.043,0.084
	l-0.047,0.085l-0.045,0.084l-0.047,0.084l-0.047,0.084L72.098,89.167L72.098,89.167z M73.325,85.747
	c-0.03,0.238-0.25,0.406-0.488,0.376c-0.236-0.028-0.406-0.249-0.377-0.487l0.002-0.019l0.01-0.063l0.008-0.064l0.006-0.064
	l0.006-0.064l0.006-0.062l0.005-0.062l0.004-0.062l0.002-0.062l0.003-0.062l0.001-0.062l0.001-0.061l-0.001-0.061V84.81
	l-0.002-0.061l-0.002-0.059L72.5,84.636l-0.004-0.056l-0.004-0.058l-0.006-0.055l-0.006-0.057l-0.006-0.055l-0.009-0.053
	l-0.008-0.054l-0.009-0.052l-0.01-0.051l-0.012-0.051l-0.01-0.048l0,0c-0.055-0.233,0.092-0.47,0.326-0.522
	c0.234-0.055,0.469,0.092,0.523,0.326l0.002,0.01l0.013,0.061l0.013,0.064l0.012,0.062l0.012,0.063l0.011,0.064l0.008,0.065
	l0.011,0.065l0.006,0.063l0.008,0.065l0.005,0.068l0.004,0.067l0.004,0.067l0.003,0.066l0.002,0.07l0.001,0.068v0.068v0.07
	l-0.002,0.072l-0.003,0.071l-0.003,0.069l-0.004,0.072l-0.005,0.072l-0.006,0.074l-0.008,0.082l-0.008,0.074l-0.008,0.072
	l-0.01,0.074V85.747L73.325,85.747z M72.662,82.204c0.063,0.23-0.067,0.475-0.3,0.539c-0.231,0.064-0.473-0.064-0.538-0.298
	L71.8,82.37l-0.03-0.109l-0.025-0.109l-0.023-0.106L71.7,81.938l-0.02-0.104l-0.017-0.104l-0.013-0.104l-0.008-0.103l-0.008-0.102
	l-0.003-0.099l0.001-0.097l0.003-0.098l0.009-0.095l0.01-0.095l0.013-0.092l0.017-0.092l0.02-0.089l0.021-0.089l0.024-0.086
	l0.013-0.034c0.08-0.228,0.329-0.344,0.557-0.263c0.229,0.08,0.347,0.33,0.265,0.557l-0.001,0.004l-0.016,0.053l-0.016,0.057
	l-0.012,0.061l-0.012,0.059l-0.008,0.062l-0.009,0.064l-0.004,0.065l-0.002,0.065l-0.001,0.069l0.002,0.072l0.005,0.073l0.007,0.075
	l0.01,0.078l0.013,0.08l0.015,0.084l0.019,0.084l0.02,0.089l0.021,0.089l0.025,0.091L72.662,82.204L72.662,82.204z M73.524,79.822
	c-0.225,0.089-0.478-0.021-0.564-0.245s0.021-0.479,0.245-0.562l0.024-0.013l0.082-0.03l0.086-0.029l0.09-0.029l0.089-0.025
	l0.09-0.022l0.091-0.023l0.094-0.021l0.094-0.021l0.097-0.019l0.097-0.015l0.098-0.016l0.099-0.012l0.103-0.012l0.101-0.01
	l0.103-0.008l0.103-0.006l0.104-0.004l0.104-0.003l0.105-0.001h0.029c0.238,0.003,0.434,0.201,0.43,0.441
	c-0.002,0.238-0.199,0.433-0.439,0.432l-0.018-0.002l-0.095,0.002l-0.092,0.001l-0.091,0.004l-0.09,0.006l-0.09,0.006l-0.088,0.009
	l-0.084,0.01l-0.082,0.012l-0.082,0.012l-0.078,0.014l-0.08,0.016l-0.073,0.015l-0.074,0.019l-0.073,0.019l-0.07,0.021l-0.068,0.021
	l-0.066,0.021l-0.063,0.021l-0.062,0.025L73.524,79.822L73.524,79.822z M76.715,79.747c-0.234-0.048-0.387-0.277-0.338-0.516
	c0.048-0.235,0.279-0.389,0.516-0.34l0.09,0.021l0.119,0.022l0.121,0.027l0.121,0.029l0.122,0.027l0.122,0.033l0.123,0.03
	l0.123,0.034l0.124,0.035l0.124,0.035l0.124,0.039l0.125,0.039l0.125,0.041l0.126,0.043l0.046,0.018
	c0.228,0.08,0.347,0.328,0.269,0.555c-0.08,0.229-0.33,0.35-0.557,0.268l-0.04-0.012l-0.116-0.041l-0.119-0.037L77.95,80.06
	l-0.116-0.035l-0.116-0.032L77.6,79.959l-0.115-0.032l-0.112-0.029l-0.115-0.029l-0.112-0.025l-0.111-0.027l-0.112-0.024
	l-0.11-0.022L76.715,79.747L76.715,79.747z M79.908,80.836c-0.218-0.104-0.308-0.366-0.202-0.583s0.365-0.307,0.582-0.201
	L79.908,80.836L79.908,80.836z M79.913,80.833l1.57,0.861l-0.092-0.047c0.205,0.129,0.476,0.07,0.604-0.135
	c0.129-0.201,0.066-0.474-0.137-0.602l-0.006-0.005l-0.123-0.076l-0.123-0.071l-0.125-0.074l-0.125-0.072l-0.125-0.069l-0.125-0.069
	l-0.123-0.067l-0.127-0.067l-0.125-0.062l-0.127-0.064l-0.125-0.064l-0.127-0.061l-0.064-0.033L79.913,80.833z M81.391,81.647
	l-0.115-0.068l-0.116-0.072l-0.117-0.066l-0.118-0.067l-0.117-0.067l-0.117-0.064l-0.119-0.062l-0.118-0.063l-0.119-0.062
	l-0.121-0.064l-0.119-0.061l-0.12-0.061l-0.063-0.03L81.391,81.647L81.391,81.647z M82.778,82.623
	c-0.188-0.151-0.217-0.426-0.064-0.612c0.15-0.188,0.426-0.219,0.612-0.065l0.075,0.062l0.115,0.094l0.113,0.095l0.112,0.096
	l0.112,0.097l0.107,0.099l0.109,0.099l0.109,0.102l0.106,0.102l0.106,0.102l0.104,0.104l0.104,0.104l0.055,0.055
	c0.166,0.173,0.16,0.449-0.012,0.615c-0.174,0.168-0.449,0.162-0.617-0.011l-0.047-0.049l-0.098-0.099l-0.098-0.096l-0.102-0.098
	l-0.103-0.095l-0.103-0.093l-0.104-0.094l-0.105-0.092l-0.104-0.092l-0.107-0.09l-0.104-0.088l-0.104-0.088L82.778,82.623
	L82.778,82.623z M85.123,85.032c-0.142-0.195-0.099-0.471,0.101-0.608c0.193-0.142,0.467-0.098,0.606,0.099l0.022,0.033l0.086,0.118
	l0.084,0.123l0.082,0.121l0.082,0.125l0.08,0.125l0.076,0.125l0.076,0.127l0.074,0.128l0.072,0.131l0.069,0.131l0.068,0.131
	l0.065,0.132c0.106,0.216,0.02,0.477-0.195,0.584c-0.217,0.106-0.479,0.019-0.584-0.197l-0.062-0.118l-0.062-0.121L85.8,86.099
	l-0.065-0.117l-0.067-0.117L85.6,85.748l-0.072-0.117l-0.072-0.112l-0.074-0.113l-0.076-0.113l-0.078-0.113l-0.08-0.108
	L85.123,85.032L85.123,85.032z M86.583,87.999c-0.062-0.232,0.079-0.473,0.312-0.533s0.473,0.078,0.532,0.312l0.03,0.111
	l0.037,0.146l0.033,0.146l0.033,0.148l0.028,0.148l0.028,0.151l0.023,0.15l0.022,0.151l0.021,0.153l0.02,0.153l0.015,0.154
	l0.013,0.158l0.002,0.022c0.014,0.239-0.172,0.446-0.412,0.459c-0.24,0.014-0.444-0.171-0.459-0.411V89.61l-0.01-0.143l-0.016-0.142
	l-0.016-0.136l-0.02-0.139l-0.02-0.138l-0.021-0.14l-0.025-0.137l-0.027-0.135l-0.027-0.134l-0.031-0.136l-0.035-0.133
	L86.583,87.999L86.583,87.999z M86.811,91.285c0.033-0.239,0.254-0.405,0.492-0.372s0.404,0.253,0.372,0.492l-0.012,0.09
	l-0.024,0.166l-0.027,0.168l-0.03,0.167l-0.034,0.17l-0.036,0.169l-0.04,0.171l-0.043,0.171l-0.048,0.172l-0.048,0.174l-0.048,0.154
	c-0.073,0.229-0.317,0.356-0.55,0.284c-0.229-0.069-0.354-0.315-0.282-0.547l0.043-0.144l0.046-0.157l0.043-0.158l0.039-0.156
	l0.037-0.155l0.033-0.154l0.029-0.154l0.028-0.154l0.024-0.15l0.021-0.151L86.811,91.285L86.811,91.285z M85.833,94.472
	c0.105-0.218,0.368-0.307,0.584-0.199c0.216,0.105,0.307,0.367,0.197,0.584l-0.049,0.102l-0.09,0.182l-0.094,0.18l-0.098,0.182
	l-0.102,0.182l-0.104,0.184l-0.106,0.182l-0.111,0.182l-0.114,0.184l-0.011,0.014c-0.131,0.2-0.401,0.258-0.604,0.125
	c-0.201-0.131-0.258-0.4-0.126-0.604l0.002-0.004l0.109-0.174l0.104-0.174l0.104-0.174l0.098-0.171l0.098-0.171l0.09-0.171
	l0.089-0.169l0.085-0.169L85.833,94.472z"/>
<path fill="#A3A7AA" d="M59.132,57.338l18.177,10.495h0.006l17.457,10.079c2.957,1.708,5.064,3.507,6.153,5.392
	c0.562,0.978,0.86,1.979,0.873,3.002c0.015,1.031-0.263,2.056-0.846,3.064v0.006c-0.946,1.641-2.733,3.254-5.457,4.826h-0.005
	l-18.178,10.493l0.002,0.002L59.86,114.776h-0.006c-2.916,1.684-5.849,2.566-8.734,2.644c-2.908,0.078-5.746-0.659-8.453-2.225
	l0.002-0.003l-18.177-10.494h-0.006L7.029,94.621l0.002-0.003c-2.966-1.711-5.073-3.508-6.156-5.383
	c-0.563-0.977-0.86-1.979-0.875-3.01c-0.013-1.028,0.262-2.054,0.846-3.062c0.95-1.646,2.737-3.264,5.458-4.833h0.006l18.18-10.496
	l17.452-10.075l-0.002-0.003c2.915-1.684,5.848-2.567,8.741-2.644C53.589,55.034,56.426,55.774,59.132,57.338L59.132,57.338
	L59.132,57.338z M75.864,70.341L57.686,59.847H57.68c-2.236-1.291-4.562-1.902-6.931-1.839c-2.395,0.063-4.863,0.818-7.356,2.258
	h-0.006L25.933,70.343L7.756,80.836l0.002,0.003c-2.273,1.312-3.71,2.567-4.401,3.766c-0.317,0.55-0.467,1.078-0.46,1.59
	c0.006,0.513,0.173,1.043,0.488,1.588c0.822,1.426,2.569,2.874,5.092,4.331h0.005l17.456,10.075l-0.001,0.004l18.176,10.492h0.005
	c2.236,1.291,4.562,1.902,6.931,1.84c2.396-0.062,4.866-0.815,7.357-2.254l-0.002-0.004l17.455-10.078h0.007l18.177-10.492
	l-0.001-0.002c2.269-1.311,3.705-2.566,4.399-3.771l0.004,0.001c0.312-0.546,0.463-1.073,0.457-1.583
	c-0.008-0.517-0.174-1.048-0.487-1.594c-0.817-1.415-2.567-2.861-5.099-4.324l-17.455-10.08L75.864,70.341z"/>
<rect x="20.232" y="93.145" transform="matrix(-0.866 0.5 -0.5 -0.866 114.8928 156.3728)" fill="#A3A7AA" width="32.526" height="0.87"/>
<rect x="18.16" y="86.216" transform="matrix(0.866 0.5 -0.5 0.866 50.012 -13.3381)" fill="#A3A7AA" width="63.468" height="0.87"/>
<path fill="#F2F6E1" d="M79.458,55.957C74.516,68.306,62.77,78.47,58.053,82.7l-10.242,5.854l-0.001,0.002
	C41.243,75.279,24.153,39.22,24.153,23.596c0-6.506,2.291-10.747,5.848-13.028l-0.005-0.001l7.059-4.666
	c3.037-1.81,5.566-3.312,9.207-3.468c9.276-0.4,19.417,4.921,25.966,14.225C80.458,28.35,83.649,45.493,79.458,55.957L79.458,55.957
	z M47.219,27.575c0.466,5.051,3.98,10.875,8.4,13.921C55.151,36.446,51.639,30.62,47.219,27.575z"/>
<path fill="#7CCA24" d="M81.702,56.856c-4.947,12.355-16.233,22.448-21.422,27.09l-0.616,0.553
	c-0.129,0.116-0.269,0.214-0.411,0.298l0.004,0.007l-10.243,5.853c-1.159,0.664-2.639,0.262-3.303-0.898
	c-0.043-0.075-0.082-0.153-0.116-0.233c-4.062-8.211-12.036-24.917-17.629-40.274c-3.607-9.906-6.234-19.298-6.234-25.65
	c0-3.482,0.611-6.423,1.702-8.852c1.204-2.68,2.975-4.711,5.146-6.134c0.028-0.021,0.055-0.04,0.083-0.059h-0.001l7.06-4.666
	c0.063-0.042,0.127-0.081,0.194-0.116c1.551-0.923,2.981-1.77,4.58-2.446c1.715-0.726,3.523-1.212,5.663-1.304
	c5.128-0.221,10.474,1.141,15.404,3.843c4.781,2.62,9.189,6.497,12.645,11.404c4.32,6.14,7.314,13.703,8.677,21.098
	C84.256,43.836,83.965,51.201,81.702,56.856L81.702,56.856z M57.063,80.349c4.92-4.398,15.621-13.971,20.152-25.291
	c1.918-4.793,2.135-11.208,0.916-17.825c-1.238-6.735-3.96-13.615-7.882-19.186c-3.024-4.298-6.856-7.679-10.995-9.946
	c-4.173-2.286-8.645-3.44-12.89-3.256c-1.5,0.064-2.778,0.41-3.997,0.925c-1.274,0.54-2.572,1.308-3.986,2.149l-6.917,4.571
	c-0.051,0.039-0.104,0.076-0.158,0.111c-1.457,0.934-2.65,2.293-3.465,4.11c-0.811,1.808-1.267,4.089-1.267,6.884
	c0,5.744,2.499,14.578,5.931,24.003c5.047,13.859,12.097,28.901,16.336,37.577l7.82-4.469L57.063,80.349L57.063,80.349z
	 M48.59,25.586l-0.001,0.002c-0.448-0.311-1.003-0.472-1.588-0.418c-1.328,0.12-2.306,1.293-2.186,2.622
	c0.269,2.905,1.385,5.986,3.049,8.744c1.656,2.743,3.882,5.224,6.383,6.946V43.48c0.448,0.311,1.004,0.471,1.59,0.418
	c1.326-0.119,2.306-1.293,2.185-2.621c-0.269-2.904-1.385-5.986-3.049-8.744C53.317,29.79,51.09,27.309,48.59,25.586z"/>
<path fill="#E1F1DA" d="M79.458,55.957C74.516,68.306,62.77,78.47,58.053,82.7l-10.243,5.854
	C40.36,73.187,34.396,32.07,34.396,17.742c0-2.187,0.253-4.164,0.73-5.915l-5.131-1.26l7.059-4.666
	c3.037-1.81,5.566-3.312,9.207-3.468c9.276-0.4,19.418,4.921,25.969,14.225C80.458,28.35,83.649,45.493,79.458,55.957L79.458,55.957
	z M56.598,21.689c-5.208-3.008-9.434-0.875-9.434,4.766s4.224,12.653,9.434,15.66c5.211,3.007,9.436,0.875,9.436-4.766
	S61.809,24.698,56.598,21.689z"/>
<path fill="#7CCA24" d="M79.86,56.12c-4.773,11.932-15.819,21.811-20.898,26.354l-0.617,0.553c-0.021,0.021-0.049,0.039-0.072,0.054
	v0.002l-10.244,5.853c-0.209,0.119-0.475,0.047-0.594-0.16c-0.01-0.018-0.016-0.031-0.024-0.051
	c-3.292-6.797-6.289-18.565-8.613-30.837c-2.961-15.63-4.835-32.094-4.835-40.14c0-1.101,0.063-2.151,0.186-3.147
	c0.106-0.852,0.257-1.669,0.45-2.449l-4.704-1.157c-0.233-0.057-0.376-0.293-0.319-0.526c0.028-0.111,0.094-0.201,0.183-0.258
	v-0.001l7.059-4.665l0.029-0.018c1.525-0.909,2.926-1.741,4.419-2.374c1.511-0.64,3.102-1.067,4.98-1.149
	c4.766-0.206,9.752,1.071,14.375,3.604c4.519,2.474,8.688,6.148,11.968,10.806c4.156,5.905,7.039,13.189,8.352,20.314
	C82.246,43.842,81.985,50.817,79.86,56.12L79.86,56.12z M58.381,81.824c5.03-4.498,15.971-14.283,20.674-26.027
	c2.062-5.147,2.307-11.951,1.024-18.918c-1.289-7.006-4.122-14.166-8.208-19.97c-3.201-4.548-7.27-8.132-11.67-10.543
	c-4.484-2.457-9.315-3.697-13.922-3.498c-1.763,0.076-3.258,0.479-4.681,1.081c-1.433,0.606-2.809,1.425-4.31,2.318l-6.226,4.115
	l4.167,1.024h-0.001l0.011,0.004c0.231,0.062,0.367,0.301,0.305,0.532c-0.234,0.855-0.414,1.777-0.535,2.76
	c-0.118,0.961-0.18,1.976-0.18,3.042c0,8.007,1.869,24.406,4.819,39.981C41.917,69.688,44.82,81.161,48,87.944l9.8-5.602
	L58.381,81.824L58.381,81.824z M47.41,88.722l0.186-0.545C47.4,88.287,47.327,88.522,47.41,88.722L47.41,88.722z M36.833,5.528
	l0.012-0.007L36.833,5.528L36.833,5.528z M56.815,21.312c-1.672-0.964-3.256-1.423-4.646-1.423c-0.973,0-1.857,0.224-2.619,0.649
	c-0.764,0.43-1.398,1.062-1.872,1.881l0.001,0.001l-0.001,0.001c-0.608,1.052-0.947,2.41-0.947,4.034c0,2.9,1.081,6.144,2.826,9.042
	c1.736,2.881,4.139,5.434,6.799,6.978l0.025,0.017c1.672,0.965,3.256,1.423,4.651,1.423c0.973,0,1.856-0.223,2.616-0.649
	c0.764-0.43,1.397-1.062,1.873-1.881l-0.002-0.001l0.002-0.001c0.604-1.052,0.944-2.41,0.944-4.034c0-2.901-1.079-6.144-2.825-9.042
	C61.899,25.416,59.485,22.855,56.815,21.312L56.815,21.312z M62.897,28.756c-1.674-2.775-3.978-5.226-6.515-6.69
	c-1.532-0.884-2.968-1.304-4.216-1.304c-0.824,0-1.564,0.184-2.193,0.537c-0.626,0.352-1.152,0.875-1.545,1.559l-0.001-0.001
	c-0.53,0.919-0.826,2.129-0.826,3.6c0,2.74,1.031,5.823,2.7,8.592c1.667,2.768,3.963,5.212,6.491,6.678l0.024,0.013
	c1.531,0.884,2.968,1.304,4.216,1.304c0.823,0,1.562-0.184,2.19-0.537c0.627-0.352,1.149-0.875,1.545-1.559l0.002,0.002
	c0.528-0.92,0.826-2.13,0.826-3.601C65.596,34.61,64.563,31.525,62.897,28.756z"/>
<path fill="#FFFFFF" d="M70.055,59.482c-4.297,13.389-17.236,24.576-22.245,29.072C41.243,75.279,24.153,39.22,24.153,23.596
	c0-22.654,27.735-17.875,40.269,1.59C71.137,35.613,73.151,49.833,70.055,59.482L70.055,59.482z M46.238,26.954
	c-5.211-3.007-9.433-0.873-9.433,4.767s4.222,12.652,9.433,15.659c5.209,3.007,9.433,0.875,9.433-4.766
	C55.671,36.974,51.45,29.96,46.238,26.954z"/>
<path fill="#7CCA24" d="M46.481,26.594l-0.025-0.017c-1.672-0.965-3.256-1.423-4.65-1.423c-0.973,0-1.857,0.223-2.619,0.649
	c-0.763,0.43-1.398,1.062-1.871,1.881c-0.607,1.052-0.947,2.41-0.947,4.036c0,2.9,1.08,6.145,2.826,9.042
	c1.741,2.891,4.156,5.451,6.827,6.993c1.672,0.965,3.255,1.423,4.648,1.423c0.973,0,1.857-0.222,2.619-0.649
	c0.763-0.428,1.396-1.062,1.872-1.883c0.606-1.052,0.946-2.41,0.946-4.034c0-2.901-1.08-6.144-2.826-9.042
	C51.545,30.689,49.144,28.138,46.481,26.594z M54.41,46.214c-0.394,0.681-0.916,1.204-1.546,1.557
	c-0.627,0.352-1.368,0.536-2.191,0.536c-1.248,0-2.684-0.419-4.216-1.303c-2.538-1.464-4.842-3.915-6.513-6.691
	c-1.669-2.769-2.701-5.852-2.701-8.592c0-1.47,0.297-2.681,0.828-3.6c0.393-0.682,0.918-1.206,1.545-1.558
	c0.629-0.353,1.368-0.537,2.192-0.537c1.247,0,2.682,0.42,4.214,1.304l0.024,0.013c2.528,1.465,4.824,3.91,6.492,6.677
	c1.667,2.769,2.699,5.852,2.699,8.593C55.237,44.084,54.94,45.294,54.41,46.214z"/>
<path fill="#7CCA24" d="M71.299,42.253c-0.988-6.022-3.176-12.126-6.51-17.304c-4.902-7.615-12.115-13.01-19.113-15.434
	c-3.699-1.282-7.346-1.738-10.568-1.257c-3.263,0.485-6.094,1.925-8.123,4.427c-2.048,2.527-3.267,6.127-3.267,10.91
	c0,6.103,2.572,15.265,6.109,24.975c5.581,15.324,13.565,32.034,17.594,40.176c0.017,0.034,0.039,0.067,0.065,0.097
	c0.16,0.18,0.435,0.194,0.613,0.034l0.618-0.554c5.409-4.838,17.586-15.729,21.751-28.708
	C72.065,54.645,72.325,48.489,71.299,42.253z M69.641,59.349C65.548,72.106,53.495,82.888,48.14,87.677l-0.191,0.172
	c-4.095-8.302-11.853-24.607-17.303-39.575c-3.504-9.623-6.055-18.685-6.055-24.679c0-4.571,1.145-7.987,3.069-10.361
	c1.883-2.323,4.525-3.66,7.574-4.115c3.087-0.46,6.592-0.019,10.159,1.217c6.828,2.366,13.87,7.637,18.667,15.083
	c3.269,5.077,5.412,11.063,6.383,16.974C71.442,48.496,71.196,54.512,69.641,59.349z"/>
</svg>
