<?xml version="1.0" encoding="utf-8"?>
<!-- Generator: Adobe Illustrator 15.0.0, SVG Export Plug-In  -->
<!DOCTYPE svg PUBLIC "-//W3C//DTD SVG 1.1//EN" "http://www.w3.org/Graphics/SVG/1.1/DTD/svg11.dtd" [
	<!ENTITY ns_flows "http://ns.adobe.com/Flows/1.0/">
]>
<svg version="1.1"
	 xmlns="http://www.w3.org/2000/svg" xmlns:xlink="http://www.w3.org/1999/xlink" xmlns:a="http://ns.adobe.com/AdobeSVGViewerExtensions/3.0/"
	 x="0px" y="0px" width="104px" height="132px" viewBox="0 -9 104 132" overflow="visible" enable-background="new 0 -9 104 132"
	 xml:space="preserve">
<defs>
</defs>
<path fill="#EAEBEB" d="M12.645,79.117l-2.428,1.415c-4.228,2.464-3.714,6.8,1.152,9.626l37.675,21.896
	c4.865,2.824,12.31,3.146,16.529,0.67l16.608-9.744c4.219-2.474,3.719-6.812-1.152-9.625l-12.743-7.361V71.636l16.205-9.438
	c4.229-2.462,3.709-6.792-1.152-9.624l-3.098-1.805L59.193,63.016c0.746,1.957,1.18,4.026,1.18,5.979v27.943
	c0,5.355-3.283,7.842-7.303,5.521L12.645,79.117z"/>
<path fill="#EAEBEB" d="M39.642,4.71c8.623-4.978,11.362,0.914,11.365,4.957l0.012,9.708l-14.644,8.75L31.75,33.5l-2.25,7.75
	l-14.625-8.265C7.107,28.5,5.708,24.27,11.208,21.128l-0.005,0.002l15.316-8.843L39.642,4.71L39.642,4.71z M7.806,23.091
	l-0.342,0.197c-0.481,0.278-0.934,0.618-1.358,1.011C6.637,23.877,7.204,23.478,7.806,23.091L7.806,23.091z"/>
<path fill="#A3A7AA" d="M45.437,4.246c0.807,0,1.462,0.197,1.986,0.526c0.53,0.334,0.948,0.814,1.271,1.372l0.003-0.001
	c0.611,1.064,0.868,2.378,0.869,3.524l0.009,10.866l2.883-1.665L52.45,9.666c-0.001-1.586-0.373-3.431-1.258-4.965V4.696
	c-0.54-0.937-1.274-1.765-2.233-2.366c-0.96-0.606-2.127-0.968-3.522-0.967C43.658,1.364,41.5,1.97,38.918,3.461l-13.122,7.577
	l0.002,0.002L6.746,22.039c-2.054,1.185-3.632,3.282-4.731,5.637c-1.284,2.751-1.941,5.911-1.941,8.353V48.13v14.55
	c0,2.496,0.522,4.713,1.548,6.604c0.763,1.407,1.8,2.627,3.104,3.635c-1.972-2.885-3.278-6.628-3.278-10.005V34.97
	c0-8.158,4.02-10.742,9.76-13.842c-1.865,1.064-2.935,2.255-3.235,3.538c0.07-0.044,0.14-0.086,0.21-0.127l19.054-11.002h0.006
	L40.366,5.96C42.476,4.742,44.139,4.247,45.437,4.246z"/>
<path fill="#EAEBEB" d="M29.507,41.859c0-3.218,1.188-6.771,3.006-9.595l27.278,15.748c3.08,1.778,5.73,5.885,6.799,10.118
	l-7.709,4.453L29.507,41.859z"/>
<path fill="#06B9DF" d="M30.976,41.128c0.132-2.243,0.855-4.619,1.954-6.718c1.204-2.301,2.833-4.239,4.598-5.256h0.007
	L81.852,3.566L81.85,3.564c0.789-0.454,1.519-0.668,2.16-0.668c0.459,0,0.871,0.112,1.225,0.33c0.373,0.229,0.707,0.586,0.978,1.057
	l0.002-0.001c0.494,0.853,0.771,2.055,0.771,3.556v27.945c0,2.449-0.756,5.12-1.975,7.45c-1.201,2.296-2.834,4.234-4.605,5.256
	L58.959,60.87l-1.207-0.853c0.711,1.205,1.309,2.521,1.75,3.875l0.104-0.061l22.246-12.845c2.248-1.297,4.269-3.661,5.713-6.422
	c1.431-2.73,2.316-5.877,2.316-8.784V7.837c0-2.013-0.426-3.707-1.17-4.997V2.836c-0.516-0.89-1.184-1.591-1.973-2.076
	C85.928,0.261,85.006,0,84.01,0c-1.125,0-2.344,0.342-3.6,1.067h-0.006L36.087,26.654v0.002c-2.25,1.3-4.27,3.662-5.714,6.42
	c-1.228,2.347-2.056,5.003-2.263,7.55l11.863,6.851L30.976,41.128z"/>
<rect x="37.658" y="33.516" transform="matrix(-0.866 0.5 -0.5 -0.866 138.019 30.9159)" fill="#06B9DF" width="54.42" height="0.867"/>
<rect x="28.06" y="25.88" transform="matrix(-0.866 0.5 -0.5 -0.866 125.8894 18.8939)" fill="#06B9DF" width="64.706" height="0.867"/>
<path fill="#06B9DF" d="M72.115,35.427L72.115,35.427c-0.459,0.266-0.883,0.771-1.197,1.37C70.6,37.405,70.4,38.103,70.4,38.742
	v5.15c0,0.388,0.074,0.696,0.199,0.914v0.002c0.063,0.115,0.147,0.204,0.239,0.258h0.002c0.086,0.053,0.185,0.081,0.295,0.081
	c0.16,0,0.347-0.055,0.546-0.17l0,0l6.438-3.717h0.002c0.457-0.264,0.879-0.77,1.193-1.369c0.319-0.608,0.518-1.306,0.518-1.945
	v-5.149c0-0.388-0.072-0.698-0.197-0.915V31.88c-0.064-0.116-0.148-0.203-0.242-0.26h-0.002c-0.084-0.052-0.184-0.08-0.295-0.08
	c-0.158,0-0.344,0.055-0.543,0.171h-0.002L72.115,35.427L72.115,35.427z M78.119,30.962c0.338-0.197,0.672-0.29,0.977-0.29
	c0.275,0,0.529,0.072,0.75,0.21l0,0c0.215,0.131,0.396,0.322,0.539,0.566v-0.001c0.199,0.348,0.314,0.807,0.314,1.349v5.149
	c0,0.776-0.236,1.617-0.617,2.347c-0.387,0.735-0.928,1.368-1.529,1.717l0,0l-6.438,3.717h-0.002
	c-0.34,0.195-0.672,0.289-0.977,0.289c-0.273,0-0.527-0.073-0.75-0.209l0.002-0.001c-0.218-0.129-0.398-0.322-0.535-0.563h-0.002
	c-0.201-0.348-0.318-0.807-0.318-1.349v-5.15c0-0.776,0.238-1.617,0.619-2.345c0.387-0.739,0.926-1.371,1.529-1.719h0.002
	l6.436-3.714V30.962z"/>
<path fill="#FFFFFF" d="M48.709,70.831l7.143,4.122c7.5,4.331,11.969,4.398,18.475,0.645l0,0c5.391-3.424,10.168,5.81,1.979,10.539
	L75.5,86.602c-7.387,4.266-12.305,4.026-20.021-0.431l-6.769-3.907L48.709,70.831L48.709,70.831z"/>
<path fill="#A3A7AA" d="M60.373,79.332c1.754,0.616,3.398,0.943,5.033,0.996c3.283,0.102,6.354-0.913,9.934-2.98l0.07-0.041h0.002
	c0.854-0.541,1.627-0.514,2.166-0.142c0.291,0.202,0.543,0.495,0.73,0.854c0.207,0.396,0.338,0.869,0.366,1.383
	c0.089,1.587-0.829,3.508-3.383,4.984l-0.808,0.465c-3.36,1.94-6.11,2.859-8.825,2.787c-1.671-0.047-3.39-0.468-5.287-1.257v4.319
	c1.778,0.602,3.479,0.927,5.192,0.973c3.521,0.096,6.924-0.998,10.947-3.324l0.805-0.465c4.101-2.369,5.558-5.777,5.394-8.705
	c-0.06-1.095-0.353-2.129-0.824-3.029c-0.493-0.938-1.184-1.734-2.014-2.312c-1.815-1.257-4.211-1.488-6.631,0.051h0.002
	c-2.894,1.659-5.293,2.478-7.728,2.4c-1.588-0.049-3.256-0.475-5.145-1.288v4.331H60.373z"/>
<path fill="#FFFFFF" d="M53.07,55.038L14.876,32.985c-7.77-4.484-9.169-8.715-3.668-11.856c-5.74,3.101-9.76,5.684-9.76,13.843
	v27.943c0,5.358,3.288,11.637,7.304,13.956l44.318,25.587c4.02,2.321,7.303-0.164,7.303-5.521V68.994
	C60.373,63.636,57.09,57.357,53.07,55.038z"/>
<path fill="#A3A7AA" d="M53.789,53.788h0.006c2.246,1.296,4.268,3.66,5.711,6.419c1.43,2.73,2.316,5.88,2.316,8.786v27.944
	c0,2.015-0.426,3.713-1.17,5.002c-0.516,0.887-1.18,1.584-1.971,2.072l0.002,0.002c-0.812,0.5-1.732,0.762-2.73,0.762
	c-1.127,0-2.346-0.346-3.601-1.067h-0.006L8.028,78.123l0.002-0.005c-2.25-1.3-4.271-3.66-5.715-6.417
	C0.886,68.971,0,65.82,0,62.915V34.971c0-4.462,1.131-7.438,3.066-9.745c1.886-2.248,4.451-3.746,7.458-5.37l1.396,2.527
	L11.893,22.4l0,0l-0.027,0.015c-1.108,0.64-1.853,1.3-2.241,1.972l-0.003-0.001C9.413,24.75,9.315,25.123,9.329,25.5
	c0.016,0.412,0.164,0.863,0.44,1.349c0.856,1.497,2.81,3.143,5.83,4.886l-0.001,0.003L53.789,53.788L53.789,53.788z M14.151,34.235
	c-3.465-2-5.779-4.011-6.892-5.96c-0.454-0.796-0.72-1.597-0.795-2.394c-0.431,0.378-0.825,0.775-1.181,1.2
	c-1.507,1.797-2.387,4.194-2.387,7.891v27.944c0,2.451,0.757,5.122,1.975,7.45c1.205,2.298,2.836,4.237,4.6,5.256h0.005
	l44.319,25.59l-0.002,0.002c0.787,0.451,1.518,0.668,2.16,0.668c0.453,0,0.863-0.114,1.217-0.332h0.006
	c0.373-0.228,0.705-0.586,0.975-1.055c0.492-0.854,0.777-2.056,0.777-3.556V68.994c0-2.45-0.758-5.121-1.977-7.452
	c-1.201-2.294-2.834-4.232-4.605-5.254l0.001-0.003l-38.19-22.05H14.151L14.151,34.235z"/>
<path fill="#FFFFFF" d="M54.111,73.951l1.74,1.002c7.5,4.331,11.969,4.398,18.475,0.645l0,0c5.391-3.424,10.168,5.81,1.979,10.539
	L75.5,86.602c-7.387,4.266-12.305,4.026-20.021-0.431l-1.367-0.791V73.951L54.111,73.951z"/>
<path fill="#A3A7AA" d="M54.545,74.7v10.436l1.127,0.648l0.023,0.014c3.795,2.192,6.893,3.347,9.93,3.427
	c3.029,0.082,6.035-0.908,9.658-2.996l0.807-0.467c3.16-1.828,4.289-4.332,4.172-6.447c-0.041-0.74-0.236-1.434-0.547-2.026
	c-0.309-0.589-0.73-1.081-1.234-1.429c-1.041-0.721-2.451-0.83-3.92,0.105l0,0l-0.016,0.01c-3.322,1.918-6.137,2.861-9.094,2.769
	c-2.947-0.093-6.004-1.214-9.814-3.412L54.545,74.7L54.545,74.7z M65.475,77.875c2.775,0.088,5.443-0.812,8.619-2.645
	c1.807-1.147,3.562-0.998,4.879-0.086c0.619,0.428,1.135,1.027,1.508,1.737c0.371,0.702,0.599,1.519,0.646,2.384
	c0.131,2.402-1.113,5.227-4.605,7.242l-0.805,0.467c-3.764,2.174-6.91,3.197-10.113,3.113c-3.199-0.085-6.42-1.279-10.342-3.543
	l-0.022-0.013l-1.345-0.777c-0.139-0.079-0.213-0.226-0.213-0.376h-0.004v-11.43c0-0.239,0.193-0.436,0.434-0.436
	c0.095,0,0.181,0.029,0.252,0.079l1.703,0.985C59.754,76.708,62.684,77.789,65.475,77.875z"/>
<path fill="#A3A7AA" d="M76.037,77.463c0.156-0.04,0.314-0.061,0.465-0.061c0.445,0,0.848,0.162,1.168,0.453
	c0.307,0.277,0.535,0.664,0.65,1.134c0.061,0.231,0.092,0.483,0.092,0.745c0,0.726-0.232,1.439-0.611,2.011
	c-0.389,0.59-0.938,1.028-1.557,1.185c-0.156,0.041-0.312,0.061-0.463,0.061c-0.445,0-0.848-0.163-1.17-0.454
	c-0.307-0.274-0.533-0.665-0.652-1.134c-0.057-0.233-0.09-0.481-0.09-0.745c0-0.726,0.234-1.44,0.611-2.009
	C74.871,78.061,75.42,77.616,76.037,77.463L76.037,77.463z M74.74,80.657c0,0.196,0.02,0.376,0.061,0.534
	c0.072,0.3,0.211,0.541,0.391,0.699c0.162,0.146,0.365,0.229,0.591,0.229c0.081,0,0.168-0.011,0.256-0.032
	c0.396-0.102,0.769-0.404,1.043-0.822c0.287-0.432,0.465-0.978,0.465-1.529c0-0.194-0.021-0.375-0.062-0.537
	c-0.074-0.295-0.211-0.536-0.392-0.698c-0.163-0.147-0.364-0.229-0.59-0.229c-0.084,0-0.17,0.011-0.258,0.031
	c-0.396,0.102-0.767,0.409-1.041,0.821C74.916,79.559,74.74,80.104,74.74,80.657z"/>
</svg>
