<?xml version="1.0" encoding="utf-8"?>
<!-- Generator: Adobe Illustrator 23.0.3, SVG Export Plug-In . SVG Version: 6.00 Build 0)  -->
<svg version="1.1" id="Layer_1" xmlns="http://www.w3.org/2000/svg" xmlns:xlink="http://www.w3.org/1999/xlink" x="0px" y="0px"
	 viewBox="0 0 182 240" style="enable-background:new 0 0 182 240;" xml:space="preserve">
<style type="text/css">
	.st0{fill-rule:evenodd;clip-rule:evenodd;fill:#B3B4B4;}
	.st1{fill-rule:evenodd;clip-rule:evenodd;fill:#FFFFFF;}
	.st2{fill-rule:evenodd;clip-rule:evenodd;fill:#F6F6F6;}
	.st3{fill-rule:evenodd;clip-rule:evenodd;fill:#DADCDD;}
	.st4{fill-rule:evenodd;clip-rule:evenodd;fill:#EBECEB;}
	.st5{fill-rule:evenodd;clip-rule:evenodd;fill:#6E2CC4;}
	.st6{fill-rule:evenodd;clip-rule:evenodd;fill:#DBD0F7;}
	.st7{fill:#FFFFFF;}
	.st8{fill:#B3B4B4;}
	.st9{fill:#EBECEB;}
	.st10{fill:#5BAA00;}
	.st11{fill:#93CE11;}
	.st12{fill:#DB7F1D;}
	.st13{fill:#FCEFA6;}
	.st14{fill:#FCB218;}
	.st15{fill:#6E2CC4;}
	.st16{fill:#A06CE3;}
	.st17{fill:#C8C8C8;}
</style>
<path class="st0" d="M161.08,122.01l6.52-3.68c2.48-1.49,4.58-3.54,6.11-6c1.5-2.18,2.38-4.72,2.55-7.36l0.16-44.05
	c0.02-0.74-0.12-1.47-0.41-2.15c-0.19-0.42-0.51-0.76-0.9-1l-0.13-0.08l-72.5-41.89l-0.27-0.15c-0.58-0.24-1.21-0.32-1.83-0.23
	c-1.09,0.16-2.14,0.53-3.09,1.1l-6.73,3.79v60.96l70.52,40.72L161.08,122.01z M169.78,122.27l-7.64,4.3c-0.69,0.39-1.54,0.39-2.23,0
	l-72.6-41.94c-0.77-0.37-1.26-1.15-1.27-2V19.18c0-0.4,0.1-0.79,0.3-1.13l0.1-0.18c0.2-0.39,0.52-0.71,0.9-0.92l7.73-4.36
	c1.47-0.87,3.11-1.43,4.8-1.65c1.54-0.21,3.11,0.06,4.5,0.77l0.15,0.08l0.13,0.07l72.53,41.88c0.11,0.05,0.21,0.11,0.31,0.18h0.05
	c1.11,0.69,2,1.7,2.55,2.89c0.58,1.28,0.86,2.67,0.83,4.08l-0.14,44.09c-0.17,3.49-1.29,6.87-3.25,9.76
	C175.58,117.84,172.93,120.42,169.78,122.27L169.78,122.27z"/>
<path class="st1" d="M96.99,57.9v-6.33l63.28,39.34l15.94-35.11l-72.71-42l-0.13-0.07c-1.78-1-4.37-0.79-7.23,0.82l-7.74,4.36
	l-0.15,0.26v26.58l0.37,36.39l8.62-7.61c5.37-3-0.28-11.19-0.25-16.6V57.9z"/>
<path class="st0" d="M105.5,62.98v-6.84l0.43,0.27l54.25,21.32l15.64-21.83l-72.38-41.81l-0.12-0.07c-0.96-0.5-2.04-0.68-3.11-0.53
	c-1.36,0.19-2.66,0.64-3.84,1.34l-7.67,4.32l-0.08,0.13v62.86l7.22-4.07c2.77-1.65,5.1-3.94,6.81-6.68c1.71-2.49,2.69-5.4,2.86-8.42
	L105.5,62.98z M106.09,57.15v5.83c-0.16,3.12-1.18,6.14-2.94,8.72c-1.75,2.81-4.15,5.17-7,6.87l-7.67,4.3l-0.42,0.24V19.07
	l0.15-0.26l0.11-0.1l7.74-4.36c1.24-0.74,2.62-1.22,4.05-1.41c1.02-0.13,2.05,0,3,0.39l0.42,0.24l0.13,0.08l72.66,41.95l0.25,0.14
	l-0.15,0.25l-15.88,22.28l-0.15,0.24l-0.24-0.15L106.09,57.15z"/>
<path class="st1" d="M32.54,104.68v49.66c0,3.37,1.14,5.78,2.93,6.83l81.58,47c1.5,0.92,3.51,0.89,5.65-0.36l29.85-17.4
	c4.64-2.7,8.5-9.93,8.5-16.13v-49.67l-81.5-47.07L32.54,104.68L32.54,104.68z"/>
<path class="st0" d="M22.39,122.9v48.37c-0.03,1.14,0.17,2.27,0.58,3.33c0.23,0.62,0.65,1.16,1.2,1.53l0.15,0.1l72.8,41.94
	c0.12,0.05,0.24,0.12,0.35,0.19c0.38,0.2,0.81,0.29,1.24,0.25c0.71-0.07,1.39-0.31,2-0.69l50.71-29.44c2.21-1.47,3.99-3.5,5.14-5.89
	c1.39-2.56,2.15-5.41,2.22-8.32v-48.36L87.99,85.02L22.39,122.9z M17.88,171.27V121.6c0-0.8,0.42-1.55,1.12-1.95l67.85-39.17
	c0.7-0.41,1.58-0.41,2.28,0l72.93,42.11c0.77,0.37,1.26,1.15,1.27,2v49.68c-0.09,3.63-1.03,7.19-2.76,10.39
	c-1.55,3.14-3.93,5.79-6.87,7.69l-50.71,29.44c-1.21,0.74-2.58,1.18-4,1.29c-1.4,0.1-2.81-0.25-4-1l-72.9-42
	c-0.13-0.06-0.25-0.13-0.37-0.21c-1.31-0.84-2.34-2.06-2.94-3.5c-0.67-1.62-1.01-3.36-1-5.11L17.88,171.27z"/>
<path class="st2" d="M20.43,121.65v49.62c0,3.38,1.14,5.78,2.93,6.83l69.17,40c1.83,1.2,3.92,1.94,6.1,2.17l26.42-21.69
	c4.67-2.67,8.5-9.93,8.5-16.13v-41.61l-39.94,22.15L20.43,121.65z"/>
<path class="st0" d="M20.52,121.81v49.38c-0.03,1.41,0.22,2.8,0.74,4.11c0.4,1.02,1.12,1.89,2.05,2.47l73.31,42.35l0.67-3.24v-0.12
	l0.11-0.06l27.46-18.38c2.53-1.63,4.57-3.92,5.89-6.63c1.54-2.85,2.38-6.02,2.46-9.25v-41.11l-39.43,22.24l-0.14,0.08l-0.14-0.08
	L20.52,121.81z M20.07,171.64v0.28l-0.13-0.73c-0.03,1.48,0.24,2.96,0.79,4.33l-0.2-1.09l0.25,0.84l0.39,0.74l-0.4-0.47
	c0.38,0.96,1.01,1.81,1.83,2.45c0.14,0.11,0.29,0.2,0.45,0.29l-0.37-0.45h0.05l0.32,0.43l0.66,0.38l73,42.17l0.34,0.2l0.08-0.38
	l0.72-3.5l27.35-18.32c2.63-1.68,4.74-4.05,6.11-6.85c1.58-2.93,2.45-6.19,2.53-9.52v-42.09l-0.42,0.25L93.62,163l-73.24-41.92
	l-0.42-0.24v50.36L20.07,171.64L20.07,171.64L20.07,171.64z"/>
<path class="st1" d="M93.78,163.27v49.57c0,6.18,3.84,9.08,8.5,6.42l50.3-28.85c4.66-2.66,8.5-9.93,8.5-16.13v-49.67l-67.15,38.76
	L93.78,163.27z"/>
<path class="st0" d="M93.98,163.67v49.23c-0.06,1.66,0.31,3.3,1.07,4.77c0.39,0.71,0.96,1.31,1.64,1.75c0.66,0.4,1.41,0.61,2.18,0.6
	c1.13-0.05,2.23-0.39,3.19-1l50.37-28.9c2.53-1.63,4.57-3.92,5.89-6.63c1.53-2.84,2.38-6,2.46-9.22V125.1l-66.79,38.56L93.98,163.67
	z M93.41,212.9v-50.06l0.42,0.24l67.08-38.73l0.42-0.24v50.16c-0.08,3.32-0.95,6.58-2.53,9.51c-1.37,2.8-3.48,5.18-6.11,6.86
	l-50.37,28.9c-1.05,0.63-2.24,0.97-3.46,1c-0.88,0.01-1.74-0.23-2.48-0.69c-0.77-0.5-1.4-1.19-1.83-2c-0.8-1.54-1.2-3.26-1.15-5
	L93.41,212.9z"/>
<path class="st3" d="M87.87,82.35l73.2,42.26l-67.28,38.67L20.74,121.1"/>
<path class="st1" d="M48.99,109.48v-4.34l-28.32,16.28l73.09,42.15l67.18-38.71l-16.4-9.47l-4.03,1.77l11.78,7.45L93.7,158.44
	l-54.66-31.07l-10.88-5.53L48.99,109.48z"/>
<path class="st0" d="M88.05,82.13l73.16,42.24c0.13,0.08,0.18,0.25,0.1,0.38c-0.02,0.04-0.06,0.07-0.1,0.1l-67.25,38.82
	c-0.09,0.06-0.21,0.06-0.3,0l-73.4-42.17c-0.13-0.08-0.18-0.25-0.1-0.38c0.02-0.04,0.06-0.08,0.1-0.1l67.52-38.89
	C87.86,82.08,87.97,82.08,88.05,82.13L88.05,82.13z M160.5,124.61L87.91,82.7l-66.94,38.57l72.81,41.84l66.69-38.5H160.5z"/>
<path class="st1" d="M178.51,104.97l0.16-44.05c0-5.41-4.36-7.36-9.72-4.34l-7.73,4.36l-0.15,0.26v63.41l7.64-4.3
	c5.37-3,9.78-9.93,9.81-15.34H178.51z"/>
<path class="st0" d="M178.23,104.96l0.16-44.05c0.04-1.15-0.22-2.28-0.75-3.3c-0.37-0.68-0.93-1.23-1.6-1.61
	c-0.72-0.38-1.52-0.58-2.33-0.57c-1.63,0.06-3.22,0.54-4.61,1.39l-7.95,4.45l-0.08,0.13v62.87l7.49-4.22
	c2.77-1.65,5.1-3.94,6.81-6.68C177.07,110.88,178.06,107.97,178.23,104.96L178.23,104.96z M178.95,60.96l-0.17,44.01
	c-0.16,3.12-1.18,6.14-2.94,8.72c-1.75,2.81-4.15,5.17-7,6.87l-7.91,4.45l-0.42,0.24V61.21l0.15-0.26l0.11-0.1l8-4.51
	c1.48-0.9,3.16-1.4,4.89-1.46c0.91-0.01,1.8,0.21,2.6,0.64c0.77,0.43,1.4,1.06,1.82,1.83c0.58,1.1,0.86,2.33,0.82,3.57L178.95,60.96
	z"/>
<path class="st1" d="M88.39,82.65V19.24l72.68,41.96v63.41"/>
<path class="st4" d="M157.04,122.67l-4.9-2.82L157.04,122.67z M157.04,122.67V63.19L91.21,25.06l0.28,17.51v41.57l59.29,34.93
	l6.25,3.6H157.04z"/>
<path class="st3" d="M91.5,39.18v45l65.36,38l0.18-58.99l-12.05-7.19l-0.17,25.41v-4.38c0-3.75-2.29-8.15-5.09-9.78L91.5,39.18z"/>
<path class="st0" d="M157.42,122.5l-0.56-0.32v-59L91.48,25.27v59.18l-0.56-0.33V24.81c0-0.1,0.06-0.2,0.15-0.25
	c0.09-0.05,0.2-0.04,0.29,0.02l65.93,38.2c0.09,0.05,0.14,0.14,0.14,0.24v59.48H157.42z"/>
<path class="st0" d="M87.95,82.56V19.15c0-0.1,0.06-0.2,0.15-0.25c0.09-0.05,0.2-0.04,0.29,0.02l72.55,42
	c0.09,0.05,0.14,0.14,0.14,0.24v63.41c0,0.15-0.12,0.28-0.28,0.28c-0.05,0.02-0.11,0.02-0.16,0l-72.55-42
	c-0.09-0.05-0.14-0.14-0.14-0.24L87.95,82.56z M88.51,19.64V82.4l72,41.72V61.36L88.51,19.64L88.51,19.64z"/>
<path class="st4" d="M60.07,162.8l-9.35-5.43l-3.07,2.18l2.13,4.66l3.3,10.06l2.7,3.32c3.79-2.26,4.25-2.77,4.33-6v-8.77
	L60.07,162.8z"/>
<path class="st0" d="M59.65,163.04l-8.87-5.17l-2.56,1.82l2,4.31l3.26,10l2.41,3c1.17-0.58,2.23-1.38,3.12-2.34
	c0.55-0.95,0.79-2.05,0.69-3.14v-8.53L59.65,163.04z M50.94,157.04l9.32,5.42c0.15,0.07,0.24,0.22,0.24,0.38v8.77
	c0,1.72-0.19,2.72-0.86,3.62c-1.04,1.13-2.28,2.06-3.66,2.74c-0.18,0.12-0.42,0.08-0.56-0.09l-2.64-3.31l-3.29-10.09v-0.07
	l-2.14-4.65c-0.1-0.19-0.04-0.42,0.13-0.54l3.07-2.18c0.14-0.09,0.32-0.09,0.46,0L50.94,157.04z"/>
<path class="st2" d="M57,164.7l-9.35-5.16v9.91c0,7.9,9.35,11.56,9.35,5.36L57,164.7z"/>
<path class="st0" d="M56.57,164.95l-8.5-4.68v9.19c-0.06,2.99,1.46,5.79,4,7.37c0.55,0.33,1.16,0.55,1.79,0.66
	c0.49,0.09,1,0.03,1.46-0.16c0.88-0.51,1.36-1.5,1.22-2.51v-9.86L56.57,164.95z M47.85,159.17l9.32,5.15
	c0.15,0.07,0.24,0.22,0.24,0.38v10.11c0.16,1.34-0.52,2.65-1.72,3.28c-0.61,0.24-1.27,0.3-1.91,0.18c-0.74-0.12-1.45-0.38-2.09-0.76
	c-2.81-1.73-4.5-4.8-4.45-8.1v-9.91c0-0.15,0.08-0.29,0.21-0.36c0.13-0.08,0.28-0.08,0.42-0.01L47.85,159.17z M134.62,113.76
	l18.36,10.6c0.13,0.08,0.18,0.25,0.1,0.38c-0.02,0.04-0.06,0.07-0.1,0.1l-59.15,34.17c-0.09,0.06-0.21,0.06-0.3,0l-65.37-37.17
	c-0.13-0.08-0.18-0.25-0.1-0.38c0.02-0.04,0.06-0.08,0.1-0.1l9.39-5.35v0.64l-8.68,4.95l64.83,36.85l58.59-33.83l-17.66-10.2v-0.65
	L134.62,113.76z"/>
<path class="st1" d="M74.77,68.98c0-1.6,0.58-2.66,1.43-2.89l6.6-3.67c2-1.11,2.22-0.81,4,0.22l3,1.74
	c1.49,0.86,2.71,3.46,2.71,5.78v15.32l8-4.45c2-1.11,2.46-0.85,4,0l3.2,1.84c0.74,0.5,1.34,1.19,1.72,2V72.64
	c0-1.57,0.56-2.62,1.39-2.87l6.2-3.41c2.28-1.25,2.77-1,4.46,0l3,1.71c1.17,0.85,2,2.07,2.35,3.47V55.77
	c-0.13-1.08,0.34-2.15,1.22-2.79l6-3.29c2.31-1.26,3.27-0.9,4.3-0.3l3.28,1.89c1.49,0.86,2.71,3.46,2.71,5.78v72.06l-7.78-3.08
	l-61.79-5.48L74.77,68.98z"/>
<path class="st5" d="M72.55,67.15c-0.02-1.01,0.19-2.02,0.62-2.94l0.09-0.16c0.42-0.84,1.13-1.5,2-1.86l6.51-3.59
	c3-1.66,3.51-1.35,5.9,0l0.12,0.07L88,58.79l3,1.74c1.25,0.81,2.23,1.96,2.82,3.33c0.64,1.37,0.99,2.87,1,4.39v13.37l4.69-2.6
	c1.01-0.67,2.21-1.02,3.42-1c1.03,0.11,2,0.49,2.84,1.09l1.53,0.88v-5.51c-0.02-1,0.19-1.98,0.6-2.89c0.42-0.93,1.18-1.67,2.12-2.06
	l6.06-3.33c1.08-0.72,2.35-1.11,3.65-1.11c1.08,0.11,2.11,0.49,3,1.12l1.93,1.11V53.98c-0.01-0.89,0.15-1.77,0.48-2.6
	c0.31-0.81,0.86-1.51,1.57-2c0.14-0.11,0.3-0.2,0.47-0.27l5.87-3.19c1.12-0.69,2.4-1.08,3.72-1.13c0.99,0.01,1.95,0.31,2.78,0.84
	l3.22,1.89c1.25,0.81,2.23,1.96,2.82,3.33c0.64,1.38,0.99,2.87,1,4.39v72.61l-4.46,2.58V55.27c-0.01-0.86-0.21-1.7-0.57-2.48
	c-0.2-0.53-0.55-1-1-1.35l-3.28-1.89c-0.17-0.12-0.37-0.2-0.57-0.25c-0.55,0.07-1.07,0.26-1.53,0.57l-5.86,3.19
	c-0.09,0.28-0.13,0.57-0.12,0.87v19.41c0,1-0.65,1.88-1.6,2.17c-0.58,0.18-1.21,0.13-1.74-0.16c-0.54-0.29-0.93-0.78-1.09-1.37
	c-0.16-0.54-0.41-1.05-0.72-1.52c-0.14-0.24-0.33-0.45-0.55-0.62h-0.07l-3-1.71c-0.32-0.21-0.65-0.39-1-0.54
	c-0.45,0.11-0.87,0.31-1.25,0.57l-6.2,3.41h-0.09c-0.08,0.27-0.11,0.55-0.1,0.83v10.41c0,0.83-0.46,1.6-1.19,2
	c-1.08,0.57-2.41,0.17-3-0.9c-0.14-0.28-0.32-0.53-0.52-0.77c-0.1-0.12-0.22-0.23-0.36-0.31l-3.2-1.84
	c-0.5-0.29-0.83-0.48-0.87-0.48c-0.32,0.11-0.63,0.25-0.91,0.44l-7.86,4.36c-0.69,0.46-1.57,0.51-2.31,0.13
	c-0.73-0.39-1.19-1.15-1.2-1.98V68.33c-0.02-0.86-0.22-1.71-0.6-2.49c-0.2-0.53-0.55-1-1-1.35l-3-1.74l-0.22-0.13l-0.13-0.07
	c-0.58-0.34-0.71-0.41-1.44,0l-6.6,3.67l-0.15,0.08c-0.08,0.27-0.12,0.55-0.11,0.83v46.52l-4.52-2.57V67.15L72.55,67.15L72.55,67.15
	z"/>
<path class="st6" d="M76.24,64.24l6.6-3.67c2-1.11,2.22-0.81,4,0.22l3,1.74c1.49,0.86,2.71,3.46,2.71,5.78v17.17l8-4.45
	c2-1.11,2.46-0.85,4,0l3.2,1.84c1.31,0.97,2.2,2.4,2.5,4l6.18,3.92l-5.57-19.24l6.2-3.41c2.28-1.25,2.77-1,4.46,0l3,1.71
	c1.49,0.86,2.71,3.46,2.71,5.78v0.58l3.62,1l-2.8-26.03l6-3.29c2.31-1.25,3.27-0.9,4.3-0.3l3.28,1.89c1.49,0.86,2.71,3.46,2.71,5.78
	v73.89l-7.78,4.49l-5.1-2.91l-1.22-2.55c-0.18,0.27-0.5,0.88-0.85,1.37l-11.5-6.55v-0.57l-4.87,2.33l-0.11,0.16l-33.62-10.01
	c-5.49-24.3-2.85-49.94-3-50.68L76.24,64.24z"/>
<path class="st5" d="M75.97,64.31c-0.03-0.13,0.03-0.26,0.14-0.32l6.6-3.67c2-1.11,2.35-0.91,4,0l0.33,0.19l3,1.74
	c0.89,0.61,1.59,1.46,2,2.46c0.53,1.11,0.81,2.33,0.83,3.56v16.71l7.61-4.22c0.67-0.47,1.47-0.75,2.29-0.78
	c0.72,0.11,1.41,0.39,2,0.81l3.2,1.84c0.65,0.41,1.2,0.98,1.59,1.65c0.46,0.75,0.79,1.57,1,2.42l5.47,3.47l-5.38-18.55
	c-0.03-0.13,0.02-0.26,0.14-0.32l6.21-3.32c0.77-0.53,1.67-0.83,2.6-0.87c0.77,0.11,1.5,0.41,2.13,0.87l3,1.71
	c0.89,0.61,1.59,1.46,2,2.46c0.52,1.11,0.8,2.32,0.82,3.55v0.45l3,2.32l-2.78-27.26c-0.01-0.12,0.06-0.24,0.17-0.29l6-3.28
	c0.85-0.53,1.83-0.84,2.83-0.88c0.64,0.02,1.27,0.22,1.81,0.58l3.19,1.89c0.89,0.61,1.59,1.46,2,2.46c0.52,1.11,0.8,2.32,0.82,3.55
	v73.73l-0.57,0.33V55.25c-0.01-1.15-0.28-2.28-0.77-3.32c-0.37-0.9-1-1.67-1.8-2.22l-3.28-1.89c-0.46-0.31-0.99-0.49-1.54-0.51
	c-0.89,0.06-1.74,0.33-2.49,0.81l-5.88,3.2l2.83,27.7c0.01,0.07-0.01,0.15-0.06,0.21c-0.05,0.06-0.11,0.1-0.19,0.11
	c-0.07,0.01-0.15-0.01-0.21-0.06l-3.6-2.81c-0.07-0.05-0.12-0.14-0.12-0.23v-0.58c-0.01-1.15-0.28-2.28-0.77-3.32
	c-0.37-0.9-1-1.67-1.8-2.22l-3-1.71c-0.56-0.4-1.2-0.67-1.88-0.79c-0.82,0.06-1.62,0.33-2.3,0.8l-6,3.3l5.51,19
	c0.03,0.07,0.03,0.15,0,0.22c-0.04,0.06-0.1,0.11-0.18,0.13s-0.15,0-0.21-0.04l-6.17-3.91c-0.07-0.04-0.11-0.11-0.13-0.18
	c-0.21-0.84-0.54-1.64-1-2.37c-0.34-0.59-0.82-1.09-1.39-1.46l-3.2-1.85c-0.49-0.33-1.04-0.57-1.62-0.68
	c-0.72,0.04-1.41,0.28-2,0.69l-8,4.44c-0.09,0.06-0.2,0.07-0.29,0.02c-0.09-0.05-0.15-0.14-0.15-0.25V68.32
	c-0.02-1.16-0.29-2.3-0.79-3.34c-0.37-0.89-0.98-1.65-1.77-2.2l-3-1.74l-0.33-0.19c-1.38-0.8-1.68-1-3.39,0l-6.48,3.53
	c6.47,24.62-2.41,27.68,2.93,50.66l-0.46-0.26c-4.83-22.27-2.93-49.91-3.07-50.46L75.97,64.31z M131.09,130.49l-0.82-1.71
	c-0.17,0.28-0.36,0.62-0.58,0.92l-0.48-0.27c0.2-0.3,0.42-0.67,0.59-1l0.26-0.43c0.03-0.04,0.07-0.08,0.11-0.1
	c0.14-0.07,0.3-0.01,0.37,0.13l1.4,2.92l-0.86-0.49L131.09,130.49z M117.67,122.85v-0.24l-3.32-5.11l-1.63,7.29l0.12-0.17
	c0.08-0.12,0.23-0.16,0.36-0.1l4.87-2.33c0.1,0.05,0.15,0.15,0.15,0.25v0.74L117.67,122.85L117.67,122.85z M95.19,123.97
	c0.05-0.01,0.11-0.01,0.16,0c0.23,0.09,0.43,0.24,0.57,0.44l-0.73-0.42V123.97z M110.77,71.34h0.05H110.77z"/>
<path class="st1" d="M129.63,51.29l4.34,2.5c1.49,0.86,2.71,3.46,2.71,5.78v74.02h-0.07l-9.7,5.59v-85.2c0-2.32,1.22-3.51,2.72-2.65
	L129.63,51.29z M112.26,71.81l4.34,2.5c1.49,0.86,2.71,3.46,2.71,5.78v43.7l-9.77-0.8V74.46c0-2.32,1.22-3.51,2.71-2.65H112.26z
	 M94.89,85.28l4.34,2.5c1.49,0.86,2.71,3.46,2.71,5.78v25.11l-9.77,3.59V87.98c0-2.32,1.22-3.51,2.71-2.65L94.89,85.28z
	 M77.52,64.48l4.34,2.5c1.49,0.86,2.71,3.46,2.71,5.78v45.18l-9.8-5.59V67.13c0-2.32,1.22-3.51,2.71-2.65H77.52z"/>
<path class="st5" d="M129.77,51.05l4.34,2.5c0.89,0.61,1.59,1.46,2,2.46c0.53,1.11,0.81,2.32,0.83,3.55v73.87l-0.35,0.2l-0.21,0.11
	V59.57c-0.01-1.15-0.28-2.28-0.77-3.32c-0.37-0.9-1-1.67-1.8-2.22l-4.34-2.5c-0.24-0.15-0.52-0.23-0.81-0.24
	c-0.21,0-0.41,0.06-0.58,0.18c-0.2,0.14-0.36,0.32-0.48,0.53c-0.3,0.61-0.44,1.3-0.4,1.98v74.34l-0.57-0.32V53.98
	c-0.03-0.77,0.14-1.54,0.5-2.22c0.15-0.31,0.37-0.57,0.64-0.78c0.26-0.18,0.57-0.27,0.89-0.27c0.39,0.01,0.76,0.12,1.09,0.32
	L129.77,51.05z M112.4,71.57l4.34,2.5c0.89,0.61,1.59,1.46,2,2.46c0.62,1.17,1.01,2.46,1.14,3.78l0.14,43.9l-0.49-0.28l-0.21-43.61
	c-0.13-1.24-0.5-2.44-1.09-3.54c-0.37-0.9-1-1.67-1.8-2.22l-4.34-2.5c-0.24-0.15-0.52-0.23-0.81-0.24
	c-0.18,0.01-0.36,0.06-0.51,0.16c-0.2,0.14-0.36,0.32-0.48,0.53c-0.31,0.6-0.46,1.27-0.43,1.94v48.75l-0.57-0.32V74.47
	c-0.03-0.77,0.14-1.54,0.5-2.23c0.16-0.29,0.39-0.53,0.66-0.72c0.26-0.18,0.57-0.27,0.89-0.27c0.39,0.01,0.76,0.12,1.09,0.32
	L112.4,71.57z M95.03,85.04l4.34,2.5c0.89,0.61,1.59,1.46,2,2.46c0.53,1.11,0.81,2.32,0.83,3.55v25.27l-0.56-0.32V93.56
	c-0.01-1.15-0.28-2.28-0.77-3.32c-0.37-0.9-1-1.67-1.8-2.22l-4.3-2.49c-0.24-0.15-0.52-0.23-0.81-0.24c-0.21,0-0.41,0.06-0.58,0.18
	c-0.2,0.14-0.36,0.32-0.48,0.53c-0.31,0.6-0.46,1.27-0.43,1.94v34.49l-0.57-0.32V87.98c-0.03-0.77,0.14-1.54,0.5-2.23
	c0.16-0.29,0.39-0.54,0.66-0.72c0.26-0.18,0.57-0.27,0.89-0.27c0.38,0.01,0.76,0.12,1.09,0.32L95.03,85.04z M77.66,64.23l4.34,2.5
	c0.89,0.61,1.59,1.46,2,2.46c0.52,1.11,0.8,2.32,0.82,3.55v45.37l-0.56-0.32V72.75c-0.01-1.15-0.28-2.28-0.77-3.32
	c-0.35-0.89-0.95-1.65-1.72-2.21l-4.34-2.5c-0.24-0.15-0.52-0.23-0.81-0.24c-0.21,0-0.41,0.06-0.58,0.18
	c-0.2,0.14-0.36,0.32-0.48,0.53c-0.31,0.6-0.46,1.27-0.43,1.94v45.37l-0.57-0.32V67.13c-0.03-0.77,0.14-1.54,0.5-2.23
	c0.16-0.29,0.39-0.53,0.66-0.72c0.26-0.17,0.57-0.27,0.88-0.27c0.38,0.01,0.76,0.12,1.09,0.32L77.66,64.23z"/>
<path class="st7" d="M56.27,96.18l-10.53-5.94c-2.26-1.27-3.46-0.85-5.16,0.21l-6.18,3.49l0.02,0.02c-0.84,0.48-1.36,1.41-1.36,2.73
	l-0.07,13.99c0,2.9,2.4,6.64,5.3,8.34l10.53,5.94c1.53,0.86,2.93,0.96,3.92,0.45l0,0.01l7.55-4.23c0.78-0.49,1.2-1.41,1.2-2.69
	l0.07-13.99C61.57,101.62,59.17,97.81,56.27,96.18z"/>
<path class="st8" d="M51.39,127.61c-1.11,0-2.31-0.34-3.49-1l-10.54-5.94c-3.52-2.06-6.26-6.44-6.26-9.98l0.07-14
	c0-1.78,0.71-3.27,1.97-4.15c0.1-0.09,0.21-0.17,0.33-0.24l6.18-3.49c1.73-1.09,3.77-2.04,7.01-0.21l10.53,5.94
	c3.45,1.94,6.26,6.41,6.26,9.98l-0.07,14c0,1.9-0.74,3.41-2.07,4.26c-0.03,0.02-0.06,0.04-0.09,0.06l-7.55,4.23
	c-0.08,0.04-0.16,0.08-0.24,0.11C52.8,127.47,52.11,127.61,51.39,127.61z M35.59,95.43c-0.08,0.06-0.16,0.12-0.25,0.17
	c-0.35,0.2-0.41,0.77-0.41,1.1l-0.07,14c0,2.21,2.04,5.34,4.37,6.7l10.51,5.92c1.04,0.58,1.8,0.59,2.14,0.42
	c0.03-0.01,0.05-0.03,0.08-0.04l7.35-4.12c0.19-0.15,0.31-0.55,0.31-1.08l0.07-14c0-2.22-2.07-5.42-4.34-6.69c0,0,0,0,0,0
	l-10.53-5.94c-1.49-0.84-1.94-0.64-3.24,0.17L35.59,95.43z M60.3,121.2L60.3,121.2L60.3,121.2z"/>
<path class="st9" d="M52.75,125.43l7.55-4.23l0,0c0.78-0.49,1.2-1.41,1.2-2.69l0.07-13.99c0-2.9-2.4-6.71-5.3-8.34l-10.53-5.94
	c-2.26-1.27-3.46-0.85-5.16,0.21l-6.18,3.49l10.74,15.27L52.75,125.43"/>
<path class="st8" d="M52.75,125.9c-0.05,0-0.1-0.01-0.14-0.02c-0.12-0.04-0.23-0.13-0.28-0.25l-7.6-16.22l-10.7-15.19
	c-0.08-0.11-0.1-0.24-0.07-0.37c0.03-0.13,0.11-0.24,0.23-0.31l6.18-3.49c1.88-1.17,3.27-1.53,5.62-0.21l10.53,5.94
	c3.06,1.71,5.54,5.64,5.54,8.75l-0.07,14c0,1.8-0.77,2.67-1.42,3.08l-7.57,4.24C52.91,125.88,52.83,125.9,52.75,125.9z M35.08,94.1
	l10.44,14.84l7.43,15.83l7.11-3.98c0.79-0.5,0.96-1.52,0.96-2.27l0.07-14c0-2.76-2.32-6.39-5.06-7.93L45.5,90.65
	c-2.07-1.16-3.06-0.81-4.68,0.2L35.08,94.1z"/>
<path class="st7" d="M32.98,110.69l0.07-13.99c0-2.9,2.47-3.96,5.37-2.33l10.53,5.94c2.9,1.63,5.37,5.44,5.3,8.34l-0.07,13.99
	c0,2.9-2.47,3.96-5.37,2.33l-10.53-5.94C35.39,117.34,32.98,113.59,32.98,110.69"/>
<path class="st8" d="M51.4,126.21c-0.87,0-1.83-0.28-2.81-0.82l-10.53-5.94c-3.06-1.79-5.54-5.71-5.54-8.75c0,0,0,0,0,0l0.07-13.99
	c0-1.43,0.55-2.54,1.56-3.13c1.19-0.7,2.83-0.55,4.51,0.39l10.53,5.94c3.08,1.73,5.61,5.74,5.54,8.76l-0.07,13.99
	c0,1.43-0.55,2.54-1.56,3.13C52.6,126.06,52.02,126.21,51.4,126.21z M33.46,110.69c0,2.69,2.32,6.32,5.07,7.93l10.53,5.94
	c1.38,0.77,2.68,0.92,3.58,0.4c0.7-0.41,1.09-1.24,1.09-2.32l0.07-14c0.07-2.68-2.3-6.38-5.06-7.93L38.2,94.78
	c-1.38-0.77-2.68-0.92-3.58-0.4c-0.7,0.41-1.09,1.24-1.09,2.32L33.46,110.69z"/>
<path class="st7" d="M56.27,65.97l-10.53-5.94c-2.26-1.27-3.46-0.85-5.16,0.21l-6.18,3.49l0.02,0.02c-0.84,0.48-1.36,1.41-1.36,2.73
	l-0.07,13.99c0,2.9,2.4,6.64,5.3,8.34l10.53,5.94c1.53,0.86,2.93,0.96,3.92,0.45l0,0.01l7.55-4.23c0.78-0.49,1.2-1.41,1.2-2.69
	l0.07-13.99C61.57,71.41,59.17,67.59,56.27,65.97z"/>
<path class="st8" d="M51.39,97.4c-1.11,0-2.31-0.34-3.49-1l-10.54-5.94c-3.52-2.06-6.26-6.44-6.26-9.98l0.07-14
	c0-1.78,0.71-3.27,1.97-4.15c0.1-0.09,0.21-0.17,0.33-0.24l6.18-3.49c1.73-1.09,3.77-2.04,7.01-0.21l10.53,5.94
	c3.45,1.94,6.26,6.41,6.26,9.98l-0.07,14c0,1.9-0.74,3.41-2.07,4.26c-0.03,0.02-0.06,0.04-0.09,0.05l-7.55,4.23
	c-0.08,0.04-0.16,0.08-0.24,0.11C52.8,97.25,52.11,97.4,51.39,97.4z M35.59,65.22c-0.08,0.06-0.16,0.12-0.25,0.17
	c-0.35,0.2-0.41,0.77-0.41,1.1l-0.07,14c0,2.21,2.04,5.34,4.37,6.71l10.51,5.92c1.04,0.58,1.8,0.59,2.14,0.42
	c0.03-0.01,0.05-0.03,0.08-0.04l7.35-4.12c0.19-0.15,0.31-0.55,0.31-1.08l0.07-14c0-2.22-2.07-5.41-4.34-6.69c0,0,0,0,0,0
	l-10.53-5.94c-1.5-0.84-1.94-0.64-3.24,0.17L35.59,65.22z M60.3,90.99L60.3,90.99L60.3,90.99z"/>
<path class="st9" d="M52.75,95.21l7.55-4.23l0,0c0.78-0.49,1.2-1.41,1.2-2.69l0.07-13.99c0-2.9-2.4-6.71-5.3-8.34l-10.53-5.94
	c-2.26-1.27-3.46-0.85-5.16,0.21l-6.18,3.49l10.74,15.27L52.75,95.21"/>
<path class="st8" d="M52.75,95.68c-0.05,0-0.1-0.01-0.14-0.02c-0.12-0.04-0.23-0.13-0.28-0.25l-7.6-16.22L34.01,64
	c-0.08-0.11-0.1-0.24-0.07-0.37c0.03-0.13,0.11-0.24,0.23-0.31l6.18-3.49c1.88-1.17,3.27-1.53,5.62-0.21l10.53,5.94
	c3.06,1.71,5.54,5.64,5.54,8.75l-0.07,14c0,1.8-0.77,2.67-1.42,3.08l-7.57,4.24C52.91,95.66,52.83,95.68,52.75,95.68z M35.08,63.88
	l10.44,14.84l7.43,15.83l7.11-3.98c0.79-0.5,0.96-1.52,0.96-2.28l0.07-14c0-2.76-2.32-6.39-5.06-7.93L45.5,60.44
	c-2.07-1.16-3.06-0.81-4.68,0.2L35.08,63.88z"/>
<path class="st7" d="M32.98,80.48l0.07-13.99c0-2.9,2.47-3.96,5.37-2.33l10.53,5.94c2.9,1.63,5.37,5.44,5.3,8.34l-0.07,13.99
	c0,2.9-2.47,3.96-5.37,2.33l-10.53-5.94C35.39,87.12,32.98,83.38,32.98,80.48"/>
<path class="st8" d="M51.4,95.99c-0.87,0-1.83-0.28-2.81-0.82l-10.53-5.94c-3.06-1.79-5.54-5.71-5.54-8.75c0,0,0,0,0,0l0.07-13.99
	c0-1.43,0.55-2.54,1.56-3.13c1.19-0.7,2.83-0.55,4.51,0.39l10.53,5.94c3.08,1.73,5.61,5.74,5.54,8.76l-0.07,13.98
	c0,1.43-0.55,2.54-1.56,3.13C52.6,95.85,52.02,95.99,51.4,95.99z M33.46,80.48c0,2.69,2.32,6.33,5.07,7.93l10.53,5.94
	c1.38,0.77,2.68,0.92,3.58,0.4c0.7-0.41,1.09-1.24,1.09-2.32l0.07-14c0.07-2.68-2.3-6.38-5.06-7.93L38.2,64.56
	c-1.38-0.77-2.68-0.92-3.58-0.4c-0.7,0.41-1.09,1.24-1.09,2.32L33.46,80.48z"/>
<g>
	<g>
		<path class="st10" d="M53.42,66.9l8.48-4.75l0,0c0.87-0.56,1.35-1.59,1.35-3.01l0.08-15.71c0-3.25-2.7-7.54-5.95-9.36L45.55,27.4
			c-2.54-1.43-3.89-0.95-5.79,0.24l-6.93,3.92l12.06,17.14L53.42,66.9"/>
	</g>
	<g>
		<path class="st11" d="M31.24,50.36l0.08-15.71c0-3.25,2.78-4.44,6.03-2.62l11.82,6.67c3.25,1.82,6.03,6.11,5.95,9.36l-0.08,15.71
			c0,3.25-2.78,4.44-6.03,2.62l-11.82-6.67C33.94,57.82,31.24,53.61,31.24,50.36"/>
	</g>
</g>
<path class="st7" d="M50.28,45.26c-0.56-1-1.51-1.14-2.06-0.71l-6.41,5.01l-1.6-2.91c-0.56-1-1.5-1.4-2.06-0.96
	c-0.56,0.43-0.7,1.66-0.14,2.67l2.31,4.2c0.56,1,1.46,1.47,2.01,1.03v0l7.61-5.93C50.49,47.22,50.83,46.27,50.28,45.26z"/>
<path class="st12" d="M93.7,158.45l36.55-21.08v-18.69h-73.4v18.8C56.85,137.48,93.6,158.45,93.7,158.45z"/>
<ellipse class="st13" cx="93.58" cy="118.66" rx="36.67" ry="20.92"/>
<path class="st14" d="M130.35,118.68c0-5.7-4.1-10.9-10.7-14.7l-25.8,14.7c-0.1,0-0.2,0.1-0.3,0l-25.8-14.9c-6.8,3.8-11,9.1-11,14.9
	c0,11.5,16.5,20.9,36.8,20.9S130.35,130.18,130.35,118.68z"/>
<polygon class="st10" points="98.29,118.72 120,143.27 130.35,137.34 130.35,118.68 "/>
<path class="st15" d="M93.7,158.45L93.7,158.45l26.3-15.18v-22.62H93.7V158.45z"/>
<path class="st16" d="M119.8,105.92l-26.15,12.66v20.9c20.31-0.1,36.69-9.4,36.69-20.9C130.35,112.88,126.44,109.72,119.8,105.92z"
	/>
<path class="st11" d="M130.35,118.68c0-5.7-4.1-10.9-10.7-14.7l-25.8,14.7l26.16,14.41C126.31,129.29,130.35,124.28,130.35,118.68z"
	/>
<ellipse class="st15" cx="93.64" cy="118.66" rx="17.25" ry="9.83"/>
<g>
	<path class="st7" d="M88.45,115.08c0-0.5,0.5-1,1.3-1.5c0.6-0.3,1.2-0.5,1.8-0.6c0.6-0.1,1.3-0.1,1.9,0s1.2,0.3,1.7,0.5
		c0.8,0.4,1.2,0.9,1.1,1.4c0,0.5-0.5,1-1.3,1.5c-0.9,0.5-1.8,0.7-2.8,0.7s-1.9-0.2-2.6-0.6C88.75,116.08,88.45,115.58,88.45,115.08z
		 M101.05,117.08l2.1,1.1l-17.1,1.7l-2.1-1.1L101.05,117.08z M91.95,115.88c0.4,0,0.8-0.2,1.3-0.5s0.8-0.5,0.9-0.7s0-0.4-0.3-0.5
		s-0.6-0.2-1-0.1c-0.4,0-0.8,0.2-1.3,0.5s-0.8,0.5-0.8,0.7c-0.1,0.2,0,0.4,0.3,0.5C91.25,115.88,91.55,115.88,91.95,115.88z
		 M90.85,122.08c0-0.5,0.5-1,1.3-1.5c0.9-0.5,1.8-0.7,2.8-0.7s1.9,0.2,2.6,0.6c0.8,0.4,1.2,0.9,1.1,1.4c0,0.5-0.5,1-1.3,1.5
		c-0.9,0.5-1.8,0.7-2.8,0.7s-1.9-0.2-2.6-0.6C91.15,123.08,90.75,122.58,90.85,122.08z M94.35,122.88c0.4,0,0.8-0.2,1.3-0.5
		s0.8-0.5,0.9-0.7s0-0.4-0.3-0.5s-0.6-0.2-1-0.1s-0.8,0.2-1.3,0.5c-0.5,0.3-0.8,0.5-0.9,0.7s0,0.4,0.3,0.5
		C93.55,122.88,93.95,122.88,94.35,122.88z"/>
</g>
<g>
	<path class="st17" d="M140.68,172.83l-0.07-13.26c0-2.75-2.34-3.75-5.09-2.21l-9.98,5.63c-2.75,1.54-5.09,5.16-5.02,7.9l0.07,13.26
		c0,2.75,2.34,3.75,5.09,2.21l9.98-5.63C138.4,179.12,140.68,175.57,140.68,172.83"/>
</g>
<g>
	<path class="st7" d="M126.43,171.94c0.47-0.85,1.27-0.97,1.74-0.6l1.88,1.48l3.8-7.04c0.47-0.85,1.27-1.18,1.74-0.81
		c0.47,0.37,0.59,1.4,0.12,2.25l-4.41,8.13c-0.47,0.85-1.23,1.24-1.7,0.87v0l-2.89-2.25C126.25,173.6,125.96,172.79,126.43,171.94z"
		/>
	<path class="st7" d="M130.02,176.85c-0.26,0-0.51-0.08-0.71-0.24l-2.89-2.25c-0.66-0.51-1.01-1.59-0.42-2.66l0,0
		c0.31-0.55,0.76-0.92,1.29-1.02c0.43-0.09,0.87,0.01,1.2,0.27l1.42,1.11l3.52-6.52c0.35-0.64,0.89-1.08,1.45-1.2
		c0.38-0.08,0.75,0,1.03,0.22c0.7,0.55,0.81,1.87,0.25,2.89l-4.4,8.13c-0.37,0.67-0.92,1.13-1.47,1.24
		C130.19,176.84,130.11,176.85,130.02,176.85z M126.87,172.18c-0.36,0.65-0.1,1.18,0.16,1.39l2.89,2.25
		c0.02,0.01,0.06,0.05,0.16,0.03c0.2-0.04,0.52-0.26,0.79-0.75l4.4-8.13c0.39-0.71,0.23-1.45,0.01-1.62
		c-0.02-0.01-0.08-0.06-0.21-0.03c-0.2,0.04-0.53,0.25-0.77,0.7l-4.08,7.56l-2.35-1.84c-0.1-0.08-0.24-0.11-0.38-0.08
		C127.25,171.7,127.03,171.89,126.87,172.18L126.87,172.18z"/>
</g>
</svg>
