<?xml version="1.0" encoding="utf-8"?>
<!-- Generator: Adobe Illustrator 22.1.0, SVG Export Plug-In . SVG Version: 6.00 Build 0)  -->
<svg version="1.1" id="Layer_1" xmlns="http://www.w3.org/2000/svg" xmlns:xlink="http://www.w3.org/1999/xlink" x="0px" y="0px"
	 viewBox="0 0 182 240" style="enable-background:new 0 0 182 240;" xml:space="preserve">
<style type="text/css">
	.st0{fill:#B3B4B4;}
	.st1{fill:#FFFFFF;}
	.st2{fill:#F6F6F6;}
	.st3{fill:#DADCDD;}
	.st4{fill:#EBECEB;}
	.st5{fill:#DB7F1D;}
	.st6{fill:#FCB218;}
	.st7{fill:#FFFFFE;}
	.st8{fill:#F4A10C;}
	.st9{fill:#F2F2F2;}
	.st10{fill:#EFEFEF;}
	.st11{fill:#D1D3D4;}
	.st12{fill:#E94C6D;}
	.st13{fill:#7DBA13;}
	.st14{fill:#D8EABE;}
	.st15{fill:#F0F4E9;}
	.st16{fill:#5BAA00;}
	.st17{fill:#93CE11;}
	.st18{fill:#E6E7E8;}
	.st19{fill:#C71E4E;}
</style>
<path class="st0" d="M159.2,131.1l6.5-3.7c2.5-1.5,4.6-3.5,6.1-6c1.5-2.2,2.4-4.7,2.6-7.4l0.2-44.1c0-0.7-0.1-1.5-0.4-2.2
	c-0.2-0.4-0.5-0.8-0.9-1l-0.1-0.1l-72.5-41.9l-0.3-0.1c-0.6-0.2-1.2-0.3-1.8-0.2c-1.1,0.2-2.1,0.5-3.1,1.1l-6.7,3.8v61L159.2,131.1
	L159.2,131.1L159.2,131.1z M167.9,131.4l-7.6,4.3c-0.7,0.4-1.5,0.4-2.2,0L85.5,93.7c-0.8-0.4-1.3-1.1-1.3-2V28.3
	c0-0.4,0.1-0.8,0.3-1.1l0.1-0.2c0.2-0.4,0.5-0.7,0.9-0.9l7.7-4.4c1.5-0.9,3.1-1.4,4.8-1.6c1.5-0.2,3.1,0.1,4.5,0.8l0.2,0.1l0.1,0.1
	l72.5,41.9c0.1,0,0.2,0.1,0.3,0.2h0.1c1.1,0.7,2,1.7,2.6,2.9c0.6,1.3,0.9,2.7,0.8,4.1l-0.1,44.1c-0.2,3.5-1.3,6.9-3.2,9.8
	C173.7,126.9,171.1,129.5,167.9,131.4L167.9,131.4z"/>
<path class="st1" d="M95.2,67v-6.3l63.3,39.3l15.9-35.1l-72.7-42l-0.1-0.1c-1.8-1-4.4-0.8-7.2,0.8L86.6,28l-0.2,0.3v26.6l-8.7,31.8
	l7.6-4.3C90.7,79.4,95.1,72.5,95.2,67L95.2,67L95.2,67z"/>
<path class="st0" d="M103.7,72.1v-6.8l0.4,0.3l54.2,21.3L174,65l-72.4-41.8l-0.1-0.1c-1-0.5-2-0.7-3.1-0.5c-1.4,0.2-2.7,0.6-3.8,1.3
	l-7.7,4.3l-0.1,0.1v62.9l7.2-4.1c2.8-1.7,5.1-3.9,6.8-6.7C102.5,78,103.5,75.1,103.7,72.1L103.7,72.1z M104.3,66.3v5.8
	c-0.2,3.1-1.2,6.1-2.9,8.7c-1.8,2.8-4.2,5.2-7,6.9L86.6,92l-0.4,0.2v-64l0.2-0.3l0.1-0.1l7.7-4.4c1.2-0.7,2.6-1.2,4.1-1.4
	c1-0.1,2.1,0,3,0.4l0.4,0.2l0.1,0.1l72.7,42l0.2,0.1l-0.1,0.2l-15.9,22.3l-0.1,0.2l-0.2-0.2C158.3,87.5,104.3,66.3,104.3,66.3z"/>
<path class="st1" d="M30.7,113.8v49.7c0,3.4,1.1,5.8,2.9,6.8l81.6,47c1.5,0.9,3.5,0.9,5.7-0.4l29.8-17.4c4.6-2.7,8.5-9.9,8.5-16.1
	v-49.7L77.7,86.7L30.7,113.8L30.7,113.8z"/>
<path class="st0" d="M20.6,132v48.4c0,1.1,0.2,2.3,0.6,3.3c0.2,0.6,0.6,1.2,1.2,1.5l0.1,0.1l72.8,41.9c0.1,0.1,0.2,0.1,0.3,0.2
	c0.4,0.2,0.8,0.3,1.2,0.2c0.7-0.1,1.4-0.3,2-0.7l50.7-29.4c2.2-1.5,4-3.5,5.1-5.9c1.4-2.6,2.1-5.4,2.2-8.3V135L86.2,94.1
	C86.2,94.1,20.6,132,20.6,132z M16,180.4v-49.7c0-0.8,0.4-1.5,1.1-1.9L85,89.6c0.7-0.4,1.6-0.4,2.3,0l72.9,42.1
	c0.8,0.4,1.3,1.1,1.3,2v49.7c-0.1,3.6-1,7.2-2.8,10.4c-1.6,3.1-3.9,5.8-6.9,7.7l-50.7,29.4c-1.2,0.7-2.6,1.2-4,1.3
	c-1.4,0.1-2.8-0.3-4-1l-72.9-42c-0.1-0.1-0.3-0.1-0.4-0.2c-1.3-0.8-2.3-2.1-2.9-3.5C16.3,183.9,15.9,182.1,16,180.4L16,180.4
	L16,180.4z"/>
<path class="st2" d="M18.6,130.8v49.6c0,3.4,1.1,5.8,2.9,6.8l69.2,40c1.8,1.2,3.9,1.9,6.1,2.2l26.4-21.7c4.7-2.7,8.5-9.9,8.5-16.1
	v-41.6l-39.9,22.2C91.8,172.1,18.6,130.8,18.6,130.8z"/>
<path class="st0" d="M131.6,149.7l-39.8,22.4l-73.2-41.9l-0.4-0.2v50.4l0.1,0.5v0.3l-0.1-0.7c0,1.5,0.2,3,0.8,4.3l-0.2-1.1l0.2,0.8
	l0.4,0.7l-0.4-0.5c0.4,1,1,1.8,1.8,2.4c0.1,0.1,0.3,0.2,0.4,0.3l-0.4-0.5h0l0.3,0.4l0.7,0.4l73,42.2l0.3,0.2l0.1-0.4l0.7-3.5
	l27.3-18.3c2.6-1.7,4.7-4,6.1-6.9c1.6-2.9,2.5-6.2,2.5-9.5v-42.1L131.6,149.7z M131.4,191.5c-0.1,3.2-0.9,6.4-2.5,9.2
	c-1.3,2.7-3.4,5-5.9,6.6l-27.5,18.4l-0.1,0.1v0.1l-0.7,3.2l-73.3-42.3c-0.9-0.6-1.6-1.4-2-2.5c-0.5-1.3-0.8-2.7-0.7-4.1v-49.4
	l73,41.8l0.1,0.1l0.1-0.1l39.4-22.2V191.5z"/>
<path class="st1" d="M91.9,172.4V222c0,6.2,3.8,9.1,8.5,6.4l50.3-28.9c4.7-2.7,8.5-9.9,8.5-16.1v-49.7l-67.2,38.8L91.9,172.4
	L91.9,172.4z"/>
<path class="st0" d="M92.1,172.8V222c-0.1,1.7,0.3,3.3,1.1,4.8c0.4,0.7,1,1.3,1.6,1.8c0.7,0.4,1.4,0.6,2.2,0.6
	c1.1-0.1,2.2-0.4,3.2-1l50.4-28.9c2.5-1.6,4.6-3.9,5.9-6.6c1.5-2.8,2.4-6,2.5-9.2v-49.2L92.1,172.8
	C92.2,172.8,92.1,172.8,92.1,172.8z M91.6,222v-50.1l0.4,0.2l67.1-38.7l0.4-0.2v50.2c-0.1,3.3-0.9,6.6-2.5,9.5
	c-1.4,2.8-3.5,5.2-6.1,6.9l-50.4,28.9c-1,0.6-2.2,1-3.5,1c-0.9,0-1.7-0.2-2.5-0.7c-0.8-0.5-1.4-1.2-1.8-2
	C91.9,225.4,91.5,223.7,91.6,222L91.6,222z"/>
<path class="st3" d="M86,91.5l73.2,42.3L92,172.4l-73.1-42.2"/>
<path class="st1" d="M47.2,118.6v-4.3l-28.3,16.3l73.1,42.1l67.2-38.7l-16.4-9.5l-4,1.8l11.8,7.4l-58.6,33.8l-54.7-31.1l-10.9-5.5
	L47.2,118.6"/>
<path class="st0" d="M86.2,91.2l73.2,42.2c0.1,0.1,0.2,0.2,0.1,0.4c0,0-0.1,0.1-0.1,0.1l-67.2,38.8c-0.1,0.1-0.2,0.1-0.3,0
	l-73.4-42.2c-0.1-0.1-0.2-0.2-0.1-0.4c0,0,0.1-0.1,0.1-0.1l67.5-38.9C86,91.2,86.1,91.2,86.2,91.2L86.2,91.2z M158.7,133.7
	L86.1,91.8l-66.9,38.6l72.8,41.8L158.7,133.7L158.7,133.7z"/>
<path class="st1" d="M176.7,114.1l0.2-44.1c0-5.4-4.4-7.4-9.7-4.3l-7.7,4.4l-0.1,0.3v63.4l7.6-4.3
	C172.2,126.4,176.7,119.5,176.7,114.1L176.7,114.1L176.7,114.1z"/>
<path class="st0" d="M176.4,114.1l0.2-44c0-1.1-0.2-2.3-0.8-3.3c-0.4-0.7-0.9-1.2-1.6-1.6c-0.7-0.4-1.5-0.6-2.3-0.6
	c-1.6,0.1-3.2,0.5-4.6,1.4l-7.9,4.4l-0.1,0.1v62.9l7.5-4.2c2.8-1.7,5.1-3.9,6.8-6.7C175.2,120,176.2,117.1,176.4,114.1
	C176.4,114.1,176.4,114.1,176.4,114.1z M177.1,70.1l-0.2,44c-0.2,3.1-1.2,6.1-2.9,8.7c-1.8,2.8-4.2,5.2-7,6.9l-7.9,4.4l-0.4,0.2v-64
	l0.1-0.3l0.1-0.1l8-4.5c1.5-0.9,3.2-1.4,4.9-1.5c0.9,0,1.8,0.2,2.6,0.6c0.8,0.4,1.4,1.1,1.8,1.8C176.8,67.6,177.1,68.8,177.1,70.1
	L177.1,70.1L177.1,70.1z"/>
<path class="st1" d="M86.6,91.8V28.4l72.7,42v63.4"/>
<path class="st4" d="M155.2,131.8l-4.9-2.8L155.2,131.8z M155.2,131.8V72.3L89.4,34.2l0.3,17.5v41.6l59.3,34.9L155.2,131.8
	L155.2,131.8L155.2,131.8z"/>
<path class="st3" d="M89.7,48.3v45l53.3,31.4V86.1c0-3.8-2.3-8.2-5.1-9.8L89.7,48.3z"/>
<path class="st0" d="M155.6,131.6l-0.6-0.3v-59L89.6,34.4v59.2l-0.6-0.3V33.9c0-0.1,0.1-0.2,0.2-0.2c0.1,0,0.2,0,0.3,0l65.9,38.2
	c0.1,0.1,0.1,0.1,0.1,0.2L155.6,131.6L155.6,131.6L155.6,131.6z"/>
<path class="st0" d="M86.1,91.7V28.3c0-0.1,0.1-0.2,0.2-0.2c0.1,0,0.2,0,0.3,0l72.5,42c0.1,0.1,0.1,0.1,0.1,0.2v63.4
	c0,0.2-0.1,0.3-0.3,0.3c-0.1,0-0.1,0-0.2,0L86.3,92C86.2,91.9,86.1,91.8,86.1,91.7C86.1,91.7,86.1,91.7,86.1,91.7z M86.7,28.8v62.8
	l72,41.7V70.5L86.7,28.8C86.7,28.7,86.7,28.8,86.7,28.8z"/>
<path class="st4" d="M58.2,171.9l-9.4-5.4l-3.1,2.2l2.1,4.7l3.3,10.1l2.7,3.3c3.8-2.3,4.2-2.8,4.3-6L58.2,171.9
	C58.3,171.9,58.2,171.9,58.2,171.9z"/>
<path class="st0" d="M57.8,172.1l-8.9-5.2l-2.6,1.8l2,4.3l3.3,10l2.4,3c1.2-0.6,2.2-1.4,3.1-2.3c0.6-0.9,0.8-2,0.7-3.1L57.8,172.1
	L57.8,172.1L57.8,172.1z M49.1,166.1l9.3,5.4c0.1,0.1,0.2,0.2,0.2,0.4v8.8c0,1.7-0.2,2.7-0.9,3.6c-1,1.1-2.3,2.1-3.7,2.7
	c-0.2,0.1-0.4,0.1-0.6-0.1l-2.6-3.3l-3.3-10.1v-0.1l-2.1-4.6c-0.1-0.2,0-0.4,0.1-0.5l3.1-2.2C48.9,166.1,49,166.1,49.1,166.1
	L49.1,166.1L49.1,166.1z"/>
<path class="st2" d="M55.2,173.8l-9.4-5.2v9.9c0,7.9,9.3,11.6,9.3,5.4C55.2,183.9,55.2,173.8,55.2,173.8z"/>
<path class="st0" d="M54.7,174.1l-8.5-4.7v9.2c-0.1,3,1.5,5.8,4,7.4c0.5,0.3,1.2,0.6,1.8,0.7c0.5,0.1,1,0,1.5-0.2
	c0.9-0.5,1.4-1.5,1.2-2.5L54.7,174.1L54.7,174.1L54.7,174.1z M46,168.3l9.3,5.1c0.1,0.1,0.2,0.2,0.2,0.4v10.1
	c0.2,1.3-0.5,2.6-1.7,3.3c-0.6,0.2-1.3,0.3-1.9,0.2c-0.7-0.1-1.4-0.4-2.1-0.8c-2.8-1.7-4.5-4.8-4.5-8.1v-9.9c0-0.1,0.1-0.3,0.2-0.4
	C45.7,168.2,45.9,168.2,46,168.3L46,168.3L46,168.3z M132.8,122.9l18.4,10.6c0.1,0.1,0.2,0.2,0.1,0.4c0,0-0.1,0.1-0.1,0.1L92,168.1
	c-0.1,0.1-0.2,0.1-0.3,0l-65.4-37.2c-0.1-0.1-0.2-0.2-0.1-0.4c0,0,0.1-0.1,0.1-0.1l9.4-5.3v0.6l-8.7,4.9l64.8,36.9l58.6-33.8
	l-17.7-10.2L132.8,122.9L132.8,122.9z"/>
<path class="st1" d="M126.3,81.8l-71-41.3c-1.1-0.8-2.6-0.8-3.8,0L49.1,42c-2,1.2-2.8,1.8-2.8,4.7v73c0,3.8,2.3,8.2,5.1,9.8
	l53.1,30.8l26.9-15.6V91.6C131.4,87.8,129.1,83.4,126.3,81.8L126.3,81.8L126.3,81.8z"/>
<path class="st5" d="M146.5,40.7c11.5,6.6,20.8,24.3,20.8,39.4c0,8.3-2.8,14.2-7.3,16.6c-0.4,0.2-0.7,0.4-1.1,0.5l-8.4,3.9l-2.1-4.8
	c-0.6-0.3-1.2-0.6-1.8-0.9C135,88.7,125.7,71.1,125.7,56c0-2.9,0.4-5.9,1.3-8.7l-1.8-4.2l8-3.7C136.7,37.5,141.4,37.8,146.5,40.7
	L146.5,40.7z"/>
<path class="st6" d="M137.4,44.9c11.5,6.7,20.8,24.3,20.8,39.4s-9.3,21.9-20.8,15.3s-20.8-24.3-20.8-39.4S125.9,38.2,137.4,44.9z"/>
<path class="st7" d="M136.5,54.3c3.8,2.2,7.2,6.1,9.6,10.8c2.5,4.7,4,10,4,15s-1.5,8.5-4,10.4s-5.9,1.9-9.6-0.3
	c-3.8-2.2-7.2-6.1-9.6-10.8c-2.5-4.7-4-10-4-15c0-4.9,1.5-8.5,4-10.4C129.3,52.2,132.7,52.1,136.5,54.3L136.5,54.3z M138.5,63.9
	l0,11.8c-0.1,0.5-0.6,0.7-1.1,0.5c0,0-0.1,0-0.1-0.1l-6.1-3.5c-0.6-0.4-1.2-1.4-1.2-2.2s0.5-1.2,1.2-0.9l4.7,2.7l0-10.2
	C136,59.4,138.5,61.8,138.5,63.9L138.5,63.9z M144.5,66.3c-2-3.9-4.8-7.1-7.9-8.9c-3.1-1.8-5.9-1.8-7.9-0.3c-2,1.5-3.3,4.5-3.3,8.6
	c0,4.1,1.3,8.5,3.3,12.4c2,3.9,4.8,7.1,7.9,8.9c3.1,1.8,5.9,1.8,7.9,0.3c2-1.5,3.3-4.5,3.3-8.6S146.5,70.2,144.5,66.3L144.5,66.3z"
	/>
<path class="st8" d="M137.4,99.5c0.8,0.5,1.6,0.9,2.4,1.2V88.5c0-2.4-0.6-4.7-1.8-6.7c-1-2-2.5-3.8-4.5-5l-16.3-9.5
	C119.6,80.4,127.7,93.9,137.4,99.5z"/>
<path class="st9" d="M126.9,79.3c2.5,4.7,5.9,8.6,9.6,10.8c1.1,0.7,2.3,1.1,3.3,1.4v-2.9c0-0.1,0-0.2,0-0.3c-1-0.2-2.1-0.6-3.3-1.3
	c-3.1-1.8-5.9-5.1-8-8.9c-0.9-1.7-1.7-3.6-2.2-5.5l-2.6-1.5C124.5,73.9,125.5,76.7,126.9,79.3z"/>
<path class="st0" d="M125.2,83.8l-71-41.4c-0.2-0.2-0.5-0.3-0.8-0.3c-0.2,0-0.5,0.1-0.7,0.3l-2.4,1.5c-0.6,0.3-1.1,0.7-1.5,1.1
	c-0.2,0.5-0.3,1.1-0.3,1.7v73c0,1.6,0.5,3.2,1.2,4.7c0.6,1.3,1.5,2.4,2.7,3.2l54.3,31.5l-4.5,2.6l-52-30.2c-1.9-1.2-3.5-3-4.5-5
	c-1.1-2.1-1.7-4.4-1.8-6.7v-73c-0.1-1.5,0.3-3,1.1-4.3c0.8-1,1.8-1.8,2.9-2.3l2.4-1.5c0.9-0.6,1.9-1,3-1c1.1,0,2.2,0.3,3.1,0.9
	l71,41.3c1.9,1.2,3.5,3,4.5,5c1.1,2.1,1.7,4.4,1.8,6.7v51.8l-4.5,2.6V91.6c0-1.6-0.5-3.2-1.2-4.6C127.3,85.7,126.3,84.6,125.2,83.8
	C125.2,83.8,125.2,83.8,125.2,83.8z"/>
<path class="st2" d="M126.3,81.8l-71-41.3c-1.2-0.8-2.8-0.8-4,0.2l-3.3,1.9l1.9,2.5l12.8,61.6c0.6,3.7,2.4,7.1,5.1,9.8l43.9,39.7
	l19.8-11.4V91.6C131.4,87.8,129.1,83.4,126.3,81.8z"/>
<path class="st10" d="M80.7,55.3L55.2,40.5c-1.2-0.8-2.8-0.8-4,0.2l-2.1,1.3l20,18l-2.6-8.2l4-2C70.5,49.7,80.7,55.3,80.7,55.3z"/>
<path class="st0" d="M126.1,82.1l-71-41.3c-0.6-0.4-1.3-0.6-2-0.5c-0.6,0.1-1.2,0.3-1.7,0.7l-3,1.8l1.7,2.3l0,0.1l12.7,61.6
	c0.3,1.9,0.9,3.7,1.8,5.3c0.8,1.6,1.9,3.1,3.2,4.3l44,39.8l-0.5,0.3l-43.9-39.7c-1.4-1.3-2.5-2.8-3.3-4.4c-0.9-1.7-1.5-3.6-1.9-5.5
	L49.6,45.2l-1.8-2.5l-0.2-0.2l0.3-0.2l3.2-2c0.6-0.4,1.2-0.6,1.9-0.7c0.8-0.1,1.7,0.1,2.4,0.6l71,41.3c1.6,1,2.9,2.5,3.7,4.2
	c1,1.8,1.5,3.8,1.5,5.8v53l-0.6,0.3V91.6c0-1.9-0.5-3.8-1.5-5.6C128.8,84.4,127.6,83,126.1,82.1L126.1,82.1z"/>
<path class="st1" d="M122.4,84.2L51.3,42.8c-2.8-1.6-5.1,0.1-5.1,3.8v73c0,3.8,2.3,8.2,5.1,9.8l49.8,32.8l26.4-15.2V94
	C127.5,90.3,125.2,85.9,122.4,84.2C122.4,84.3,122.4,84.2,122.4,84.2z"/>
<path class="st10" d="M57.6,46.8l-2,17l-3.8,5.9c3.4-0.7,5.2,2.7,10.6-0.3c3.4-1.9,5.6-8.5,4.2-17.6C61.3,48.7,62.8,49.8,57.6,46.8z
	"/>
<path class="st2" d="M46.2,87.1v32.6c0,3.8,2.3,8.2,5.1,9.8l44.3,29.2l6.4,3l4.9-2.8l0.1-22.3V90.1c0-1.5-0.4-3-1-4.4
	c-0.6-1.4-1.6-2.5-2.8-3.3l-3.2-1.9c-0.8-0.5-1.8-0.8-2.8-0.8c-1.3,0-2.6,0.4-3.7,1.1L87.6,84c-0.2,0.1-0.3,0.2-0.5,0.3
	c-0.7,0.5-1.3,1.2-1.6,2C85.2,87.1,85,88,85,88.9v11.5l-1.9-1.1c-0.9-0.6-1.9-1-3-1.1c-1.3,0-2.6,0.4-3.7,1.1l-6.1,3.3
	c-0.9,0.4-1.7,1.1-2.1,2.1c-0.4,0.9-0.6,1.9-0.6,2.9v7.3l-1.5-0.9c-0.8-0.6-1.8-0.9-2.8-1.1c-1.2,0-2.4,0.3-3.4,1l-4.7,2.6V97.7
	c0-1.5-0.4-3-1-4.4c-0.6-1.4-1.6-2.5-2.8-3.3l-3-1.7l-0.2-0.1L48.1,88C47.5,87.7,46.9,87.3,46.2,87.1C46.2,87,46.2,87.1,46.2,87.1z"
	/>
<path class="st0" d="M122.2,84.4L51.2,43.1c-0.6-0.3-1.2-0.5-1.9-0.6c-0.4,0-0.9,0.1-1.2,0.3c-0.4,0.2-0.7,0.6-0.9,1
	c-0.5,0.9-0.7,1.9-0.7,2.9v73c0.1,1.9,0.6,3.8,1.5,5.5c0.8,1.6,2,3,3.5,4l49.4,33.2l-0.6,0.3l-49.1-33c-1.6-1-2.9-2.5-3.7-4.2
	c-1-1.8-1.5-3.8-1.5-5.8v-73c0-1.1,0.2-2.2,0.7-3.2c0.3-0.5,0.6-0.8,1.1-1.1c0.5-0.3,1-0.4,1.5-0.4c0.8,0,1.5,0.2,2.2,0.7l71.1,41.3
	c1.6,1,2.9,2.5,3.7,4.2c1,1.8,1.5,3.8,1.5,5.8v52.9l-0.6,0.3V94c0-1.9-0.5-3.9-1.5-5.6C124.9,86.8,123.7,85.4,122.2,84.4L122.2,84.4
	z"/>
<path class="st11" d="M54.2,55.8l12.3,7.1l0.4,0.2l12.3,7.1l0.4,0.2l0.2,0.1l12.7,7.3l12.1,7l0.4,0.2l12.9,7.4v54.8l-0.6,0.3v-10.6
	l-12.1-7v12.9l12.7,7.3l-0.6,0.3l-24.8-14.3v23.5l-0.6-0.3v-23.5l-12.1-7v23.6l-0.6-0.3v-23.6l-12.1-7v23.7l-0.6-0.3v-23.8l-12.1-7
	v23.8l-0.6-0.3V55.6L54.2,55.8L54.2,55.8L54.2,55.8z M117.3,136.5v-14l-12.1-7v14L117.3,136.5z M54.4,100.2l12.1,7v-14l-12.1-7
	C54.4,86.2,54.4,100.2,54.4,100.2z M67.1,107.5l12.1,7v-14l-12.1-7V107.5z M79.8,114.9l12.1,7v-14l-12.1-7V114.9z M92.5,122.2
	l12.1,7v-14l-12.1-7V122.2z M104.6,129.9l-12.1-7v12.9l12.1,7C104.6,142.7,104.6,129.9,104.6,129.9z M91.9,122.5l-12.1-7v12.8
	l12.1,7C91.9,135.4,91.9,122.5,91.9,122.5z M79.2,115.2l-12.1-7v12.9l12.1,7V115.2z M66.5,107.9l-12.1-7v12.9l12.1,7V107.9
	C66.5,107.9,66.5,107.9,66.5,107.9z M54.4,70.9l12.1,7V63.6l-12.1-7V70.9z M67.1,78.2l12.1,7V70.9l-12.1-7V78.2z M79.8,85.5l12.1,7
	V78.3l-12.1-7V85.5z M92.5,92.9l12.1,7V85.6l-12.1-7C92.5,78.6,92.5,92.9,92.5,92.9z M105.2,100.2l12.1,7V92.9l-12.1-7
	C105.2,85.9,105.2,100.2,105.2,100.2z M117.3,107.9l-12.1-7v14l12.1,7V107.9z M104.6,100.5l-12.1-7v14l12.1,7V100.5z M91.9,93.2
	l-12.1-7v14l12.1,7V93.2z M79.2,85.8l-12.1-7v14l12.1,7V85.8z M66.5,78.5l-12.1-7v14l12.1,7V78.5z"/>
<path class="st1" d="M29.9,106.4c0-1.6,0.6-2.7,1.4-2.9l6.6-3.7c2-1.1,2.2-0.8,4,0.2l3,1.7c1.5,0.9,2.7,3.5,2.7,5.8v15.3l8-4.4
	c2-1.1,2.5-0.8,4,0l3.2,1.8c0.7,0.5,1.3,1.2,1.7,2V110c0-1.6,0.6-2.6,1.4-2.9l6.2-3.4c2.3-1.2,2.8-1,4.5,0l3,1.7
	c1.2,0.8,2,2.1,2.3,3.5V93.2c-0.1-1.1,0.3-2.2,1.2-2.8l6-3.3c2.3-1.3,3.3-0.9,4.3-0.3l3.3,1.9c1.5,0.9,2.7,3.5,2.7,5.8v68.6
	l-7.8,4.5l-61.8-35.2C29.9,132.4,29.9,106.4,29.9,106.4z"/>
<path class="st12" d="M54.4,95.6c0.8,0.4,1.5,1.1,1.9,1.9l8-4.4c-0.3-0.7-0.4-1.5-0.4-2.3c0-1.6,1.6-3.4,3.3-2.4
	c1.7,1.1,2.8,2.9,3.2,4.9l21.7,13.1l5-3.4l16.1-9c-0.3-1-0.5-2-0.6-3.1c0-3.1,1.9-4.5,4.3-3.1s4.3,5,4.3,8.1s-1.9,4.5-4.3,3.1
	c-1.1-0.7-2-1.6-2.7-2.8l-17.3,9.7l-4.7,3.5L70.3,96.2c-0.2,0.6-0.7,1-1.3,1.2c-0.6,0.2-1.2,0.1-1.8-0.2c-0.8-0.4-1.4-1-1.8-1.8
	l-8,4.4c0.3,0.7,0.4,1.4,0.4,2.2c0,1.6-1.5,3.5-3.3,2.4c-2-1.4-3.3-3.8-3.3-6.3C51.1,95.7,53.1,94.9,54.4,95.6
	C54.4,95.6,54.4,95.6,54.4,95.6z"/>
<path class="st13" d="M27.7,104.6c0-1,0.2-2,0.6-2.9l0.1-0.2c0.4-0.8,1.1-1.5,2-1.9l6.5-3.6c3-1.7,3.5-1.3,5.9,0l0.1,0.1l0.2,0.1
	l3,1.7c1.2,0.8,2.2,2,2.8,3.3c0.6,1.4,1,2.9,1,4.4V119l4.7-2.6c1-0.7,2.2-1,3.4-1c1,0.1,2,0.5,2.8,1.1l1.5,0.9v-5.5
	c0-1,0.2-2,0.6-2.9c0.4-0.9,1.2-1.7,2.1-2.1l6.1-3.3c1.1-0.7,2.3-1.1,3.7-1.1c1.1,0.1,2.1,0.5,3,1.1l1.9,1.1V91.4
	c0-0.9,0.2-1.8,0.5-2.6c0.3-0.8,0.9-1.5,1.6-2c0.1-0.1,0.3-0.2,0.5-0.3l5.9-3.2c1.1-0.7,2.4-1.1,3.7-1.1c1,0,1.9,0.3,2.8,0.8
	l3.2,1.9c1.2,0.8,2.2,2,2.8,3.3c0.6,1.4,1,2.9,1,4.4v69.2l-4.5,2.6V92.7c0-0.9-0.2-1.7-0.6-2.5c-0.2-0.5-0.6-1-1-1.3l-3.3-1.9
	c-0.2-0.1-0.4-0.2-0.6-0.2c-0.5,0.1-1.1,0.3-1.5,0.6l-5.9,3.2c-0.1,0.3-0.1,0.6-0.1,0.9v19.4c0,1-0.6,1.9-1.6,2.2
	c-0.6,0.2-1.2,0.1-1.7-0.2c-0.5-0.3-0.9-0.8-1.1-1.4c-0.2-0.5-0.4-1.1-0.7-1.5c-0.1-0.2-0.3-0.4-0.6-0.6h-0.1l-3-1.7
	c-0.3-0.2-0.7-0.4-1-0.5c-0.4,0.1-0.9,0.3-1.2,0.6l-6.2,3.4h-0.1c-0.1,0.3-0.1,0.6-0.1,0.8v10.4c0,0.8-0.5,1.6-1.2,2
	c-1.1,0.6-2.4,0.2-3-0.9c-0.1-0.3-0.3-0.5-0.5-0.8c-0.1-0.1-0.2-0.2-0.4-0.3l-3.2-1.8c-0.5-0.3-0.8-0.5-0.9-0.5
	c-0.3,0.1-0.6,0.3-0.9,0.4l-7.9,4.4c-0.7,0.5-1.6,0.5-2.3,0.1c-0.7-0.4-1.2-1.1-1.2-2v-17.1c0-0.9-0.2-1.7-0.6-2.5
	c-0.2-0.5-0.5-1-1-1.3l-3-1.7l-0.2-0.1l-0.1-0.1c-0.6-0.3-0.7-0.4-1.4,0l-6.6,3.7l-0.2,0.1c-0.1,0.3-0.1,0.6-0.1,0.8v29.2l-4.5-2.6
	L27.7,104.6L27.7,104.6L27.7,104.6z"/>
<path class="st14" d="M31.4,101.6L38,98c2-1.1,2.2-0.8,4,0.2l3,1.7c1.5,0.9,2.7,3.5,2.7,5.8v17.2l8-4.4c2-1.1,2.5-0.8,4,0l3.2,1.8
	c1.3,1,2.2,2.4,2.5,4l6.2,3.9L66,108.9l6.2-3.4c2.3-1.2,2.8-1,4.5,0l3,1.7c1.5,0.9,2.7,3.5,2.7,5.8v0.6l3.6,1l-2.8-26l6-3.3
	c2.3-1.2,3.3-0.9,4.3-0.3l3.3,1.9c1.5,0.9,2.7,3.5,2.7,5.8v70.4l-7.8,4.5l-5.1-2.9l-1.2-2.6c-0.2,0.3-0.5,0.9-0.8,1.4l-11.5-6.6
	v-0.6l-4.9-2.4l-0.1,0.2l-33.6-19.2C29,110.6,31.6,102.4,31.4,101.6L31.4,101.6L31.4,101.6z"/>
<path class="st13" d="M31.1,101.7c0-0.1,0-0.3,0.1-0.3l6.6-3.7c2-1.1,2.3-0.9,4,0l0.3,0.2l3,1.7c0.9,0.6,1.6,1.5,2,2.5
	c0.5,1.1,0.8,2.3,0.8,3.6v16.7l7.6-4.2c0.7-0.5,1.5-0.7,2.3-0.8c0.7,0.1,1.4,0.4,2,0.8l3.2,1.8c0.7,0.4,1.2,1,1.6,1.7
	c0.5,0.8,0.8,1.6,1,2.4l5.5,3.5L65.8,109c0-0.1,0-0.3,0.1-0.3l6.2-3.3c0.8-0.5,1.7-0.8,2.6-0.9c0.8,0.1,1.5,0.4,2.1,0.9l3,1.7
	c0.9,0.6,1.6,1.5,2,2.5c0.5,1.1,0.8,2.3,0.8,3.6v0.4l3,2.3l-2.8-27.3c0-0.1,0.1-0.2,0.2-0.3l6-3.3c0.8-0.5,1.8-0.8,2.8-0.9
	c0.6,0,1.3,0.2,1.8,0.6l3.2,1.9c0.9,0.6,1.6,1.5,2,2.5c0.5,1.1,0.8,2.3,0.8,3.6v70.3l-0.6,0.3V92.6c0-1.2-0.3-2.3-0.8-3.3
	c-0.4-0.9-1-1.7-1.8-2.2l-3.3-1.9c-0.5-0.3-1-0.5-1.5-0.5c-0.9,0.1-1.7,0.3-2.5,0.8l-5.9,3.2l2.8,27.7c0,0.1,0,0.2-0.1,0.2
	c0,0.1-0.1,0.1-0.2,0.1c-0.1,0-0.2,0-0.2-0.1l-3.6-2.8c-0.1-0.1-0.1-0.1-0.1-0.2v-0.6c0-1.2-0.3-2.3-0.8-3.3c-0.4-0.9-1-1.7-1.8-2.2
	l-3-1.7c-0.6-0.4-1.2-0.7-1.9-0.8c-0.8,0.1-1.6,0.3-2.3,0.8l-6,3.3l5.5,19c0,0.1,0,0.1,0,0.2c0,0.1-0.1,0.1-0.2,0.1s-0.2,0-0.2,0
	l-6.2-3.9c-0.1,0-0.1-0.1-0.1-0.2c-0.2-0.8-0.5-1.6-1-2.4c-0.3-0.6-0.8-1.1-1.4-1.5l-3.2-1.8c-0.5-0.3-1-0.6-1.6-0.7
	c-0.7,0-1.4,0.3-2,0.7l-8,4.4c-0.1,0.1-0.2,0.1-0.3,0c-0.1,0-0.2-0.1-0.2-0.2v-17.2c0-1.2-0.3-2.3-0.8-3.3c-0.4-0.9-1-1.7-1.8-2.2
	l-3-1.7l-0.3-0.2c-1.4-0.8-1.7-1-3.4,0l-6.5,3.5c6.5,24.6-2.4,10.3,2.9,33.3l-0.5-0.3C29.4,112.5,31.3,102.3,31.1,101.7L31.1,101.7
	L31.1,101.7z M86.3,164.4l-0.8-1.7c-0.2,0.3-0.4,0.6-0.6,0.9l-0.5-0.3c0.2-0.3,0.4-0.7,0.6-1l0.3-0.4c0,0,0.1-0.1,0.1-0.1
	c0.1-0.1,0.3,0,0.4,0.1l1.4,2.9L86.3,164.4L86.3,164.4L86.3,164.4z M72.8,156.8v-0.2l-3.3-1.7l-1.6-0.9l0.1-0.2
	c0.1-0.1,0.2-0.2,0.4-0.1l4.9,2.4c0.1,0,0.2,0.1,0.2,0.2v0.7L72.8,156.8L72.8,156.8L72.8,156.8z M50.4,144c0.1,0,0.1,0,0.2,0
	c0.2,0.1,0.4,0.2,0.6,0.4L50.4,144L50.4,144z M65.9,108.7L65.9,108.7L65.9,108.7z"/>
<path class="st1" d="M84.8,88.7l4.3,2.5c1.5,0.9,2.7,3.5,2.7,5.8v70.6h-0.1l-9.7-5.5V91.4C82.1,89.1,83.3,87.9,84.8,88.7
	C84.8,88.7,84.8,88.7,84.8,88.7z M67.4,109.2l4.3,2.5c1.5,0.9,2.7,3.5,2.7,5.8v40.2l-9.8-5.6v-40.3
	C64.7,109.5,65.9,108.4,67.4,109.2L67.4,109.2z M50.1,122.7l4.3,2.5c1.5,0.9,2.7,3.5,2.7,5.8v16.9l-9.8-5.6v-16.9
	C47.3,123.1,48.6,121.9,50.1,122.7C50.1,122.7,50.1,122.7,50.1,122.7z M32.7,101.9l4.3,2.5c1.5,0.9,2.7,3.5,2.7,5.8V138l-9.8-5.6
	v-27.9C29.9,102.2,31.2,101,32.7,101.9C32.7,101.9,32.7,101.9,32.7,101.9z"/>
<path class="st15" d="M91.9,165v2.6h-0.1l-9.7-5.5v-2.6L91.9,165L91.9,165z M29.9,129.7l9.8,5.6v2.7l-9.8-5.6L29.9,129.7
	C29.9,129.6,29.9,129.7,29.9,129.7z M47.3,139.6l9.8,5.6v2.7l-9.8-5.6V139.6z M64.7,149.5l9.8,5.6v2.7l-9.8-5.6V149.5L64.7,149.5z"
	/>
<path class="st13" d="M84.9,88.4l4.3,2.5c0.9,0.6,1.6,1.5,2,2.5c0.5,1.1,0.8,2.3,0.8,3.6v70.4l-0.3,0.2l-0.2-0.1V97
	c0-1.2-0.3-2.3-0.8-3.3c-0.4-0.9-1-1.7-1.8-2.2l-4.3-2.5c-0.2-0.2-0.5-0.2-0.8-0.2c-0.2,0-0.4,0.1-0.6,0.2c-0.2,0.1-0.4,0.3-0.5,0.5
	c-0.3,0.6-0.4,1.3-0.4,2v70.9l-0.6-0.3V91.4c0-0.8,0.1-1.5,0.5-2.2c0.1-0.3,0.4-0.6,0.6-0.8c0.3-0.2,0.6-0.3,0.9-0.3
	C84.2,88.1,84.6,88.2,84.9,88.4C84.9,88.4,84.9,88.4,84.9,88.4z M67.6,109l4.3,2.5c0.9,0.6,1.6,1.5,2,2.5c0.6,1.2,1,2.5,1.1,3.8
	l0.1,40.5l-0.5-0.3l-0.2-40.2c-0.1-1.2-0.5-2.4-1.1-3.5c-0.4-0.9-1-1.7-1.8-2.2l-4.3-2.5c-0.2-0.2-0.5-0.2-0.8-0.2
	c-0.2,0-0.4,0.1-0.5,0.2c-0.2,0.1-0.4,0.3-0.5,0.5c-0.3,0.6-0.5,1.3-0.4,1.9v40.5l-0.6-0.3v-40.2c0-0.8,0.1-1.5,0.5-2.2
	c0.2-0.3,0.4-0.5,0.7-0.7c0.3-0.2,0.6-0.3,0.9-0.3C66.9,108.7,67.3,108.8,67.6,109C67.6,109,67.6,109,67.6,109z M50.2,122.4l4.3,2.5
	c0.9,0.6,1.6,1.5,2,2.5c0.5,1.1,0.8,2.3,0.8,3.6v17l-0.6-0.3V131c0-1.1-0.3-2.3-0.8-3.3c-0.4-0.9-1-1.7-1.8-2.2l-4.3-2.5
	c-0.2-0.2-0.5-0.2-0.8-0.2c-0.2,0-0.4,0.1-0.6,0.2c-0.2,0.1-0.4,0.3-0.5,0.5c-0.3,0.6-0.5,1.3-0.4,1.9v17.1l-0.6-0.3v-16.8
	c0-0.8,0.1-1.5,0.5-2.2c0.2-0.3,0.4-0.5,0.7-0.7c0.3-0.2,0.6-0.3,0.9-0.3C49.5,122.2,49.9,122.3,50.2,122.4L50.2,122.4L50.2,122.4z
	 M32.8,101.6l4.3,2.5c0.9,0.6,1.6,1.5,2,2.5c0.5,1.1,0.8,2.3,0.8,3.6v28l-0.6-0.3v-27.7c0-1.2-0.3-2.3-0.8-3.3
	c-0.3-0.9-0.9-1.7-1.7-2.2l-4.3-2.5c-0.2-0.2-0.5-0.2-0.8-0.2c-0.2,0-0.4,0.1-0.6,0.2c-0.2,0.1-0.4,0.3-0.5,0.5
	c-0.3,0.6-0.5,1.3-0.4,1.9v28l-0.6-0.3v-27.7c0-0.8,0.1-1.5,0.5-2.2c0.2-0.3,0.4-0.5,0.7-0.7c0.3-0.2,0.6-0.3,0.9-0.3
	C32.2,101.3,32.5,101.4,32.8,101.6C32.9,101.6,32.8,101.6,32.8,101.6z"/>
<path class="st16" d="M41.6,22.4c9.9,5.7,17.9,20.9,17.9,33.9c0,7.2-2.4,12.2-6.3,14.3c-0.3,0.2-0.6,0.3-1,0.4L45,74.3l-1.8-4.1
	c-0.5-0.2-1-0.5-1.6-0.8c-9.9-5.7-17.9-20.9-17.9-33.9c0-2.5,0.3-5.1,1.1-7.5l-1.6-3.7l6.9-3.2C33.2,19.6,37.2,19.9,41.6,22.4
	L41.6,22.4z"/>
<path class="st17" d="M33.9,25.9c9.9,5.7,17.9,20.9,17.9,33.9s-8,18.9-17.9,13.2S15.9,52.1,15.9,39.1S24,20.2,33.9,25.9z"/>
<path class="st1" d="M37.1,43.2c1.2,1.6,1.9,3.5,2.1,5.4c0,0,0,0.1,0,0.1c0,0.1-0.1,0.1-0.2,0.1l-3.2-1.9c0,0-0.1-0.1-0.1-0.1
	c0-0.9-0.2-1.7-0.7-2.5c-0.3-0.4-0.6-0.7-1-1v4.3c1.1,1,2,1.9,2.7,2.6c0.5,0.6,1,1.2,1.4,1.8c0.6,0.8,1,1.7,1.2,2.7
	c0.1,0.5,0.2,1.1,0.2,1.6c0,0.7-0.1,1.3-0.4,1.9c-0.2,0.4-0.5,0.7-0.9,0.9c-0.4,0.2-0.9,0.4-1.4,0.3c-1-0.1-2-0.4-2.8-0.9v2.2
	c0,0,0,0,0,0.1c0,0.1-0.1,0.1-0.2,0.1l-1.9-1.1c-0.1,0-0.1-0.1-0.1-0.1v-2.4c-1.7-1.1-3.2-2.5-4.3-4.1c-0.9-1.5-1.3-3.2-1.3-5
	c0,0,0,0,0-0.1c0-0.1,0.1-0.1,0.2-0.1l3.2,1.9c0.1,0,0.1,0.1,0.1,0.1c0,0.8,0.2,1.6,0.5,2.3c0.4,0.7,0.9,1.4,1.5,1.9v-4.8
	c-1.3-1-2.4-2.2-3.5-3.5c-1.1-1.3-1.7-2.9-1.7-4.6c0-0.7,0.1-1.4,0.5-2c0.2-0.4,0.5-0.6,0.8-0.8c0.4-0.2,0.8-0.3,1.2-0.3
	c1,0.1,1.9,0.4,2.7,0.9v-2.1c0,0,0,0,0-0.1c0-0.1,0.1-0.1,0.2-0.1l1.9,1.1c0.1,0,0.1,0.1,0.1,0.1v2.3C35.1,41.1,36.2,42.1,37.1,43.2
	C37.1,43.2,37.1,43.2,37.1,43.2z M30.7,44.6c0.3,0.5,0.7,0.9,1.1,1.2V42c-0.3-0.2-0.6-0.3-1-0.3c-0.2,0-0.3,0-0.4,0.1
	c-0.1,0.1-0.2,0.2-0.3,0.3C30,42.2,30,42.4,30,42.6C30,43.3,30.2,44,30.7,44.6z M35.3,52.9c-0.4-0.6-0.8-1.1-1.3-1.6v4.4
	c0.3,0.2,0.6,0.3,1,0.3c0.1,0,0.3,0,0.4-0.1c0.1-0.1,0.2-0.2,0.3-0.3c0.1-0.3,0.2-0.6,0.2-0.9C35.8,54,35.6,53.4,35.3,52.9
	C35.3,52.9,35.3,52.9,35.3,52.9z"/>
<path class="st18" d="M73.3,55.9"/>
<g>
	<g>
		<path class="st19" d="M138.9,181.1l9-5.4c0.1,0,0.1-0.1,0.2-0.1h0.1l0,0c1-0.7,1.7-2,1.7-3.7l0.1-20.5c0-4.1-3.3-9.4-7.4-11.6
			l-15.9-9c-3.1-1.8-4.7-1.1-7.2,0.3l-7.1,4.3l14.6,22.2L138.9,181.1"/>
		<path class="st12" d="M110,159.8l0.1-20.5c0-4.1,3.3-5.6,7.5-3.2l15.9,9c4.1,2.3,7.5,7.6,7.4,11.6l-0.1,20.5
			c0,4.1-3.3,5.5-7.5,3.2l-15.9-9C113.4,169.1,110,163.9,110,159.8"/>
	</g>
	<g>
		<path class="st1" d="M134.2,170.4c0-0.9-0.3-1.7-0.9-2.4c-1.7-2.1-3.3-4.2-5-6.3c-0.1-0.2-0.3-0.3-0.5-0.3
			c-1.6,0.2-3.2-0.7-4.8-2.7c-0.1-0.2-0.3-0.3-0.5-0.3c-1.7,0.2-3.3,0.5-5,0.8c-0.6,0.1-0.9,0.6-0.9,1.5c0,0.5,0,1,0,1.6
			c0,1.2,0.4,2,1.4,2.5c2.4,1.4,4.9,2.7,7.3,4.1c2.5,1.4,4.9,2.7,7.4,4.1c0.9,0.5,1.3,0.2,1.3-1C134.2,171.5,134.2,171,134.2,170.4z
			"/>
		<path class="st1" d="M128.6,158.4c1.8-1.7,1.7-6.2-0.2-9.9c-1.7-3.2-4.3-4.7-6-3.4c-1,0.8-1.5,2.3-1.5,4.1c0,1.5,0.3,2.9,0.8,4.4
			C123.3,157.9,126.6,160.2,128.6,158.4z"/>
	</g>
</g>
</svg>
