<svg width="182" height="240" viewBox="0 0 182 240" xmlns="http://www.w3.org/2000/svg"><title>Community</title><g fill="none" fill-rule="evenodd"><path d="M.71 150.48c-.01-.222-.014-.446-.007-.672.043-1.626.545-3.183 1.345-4.595 1.59-2.807 4.3-4.98 7.074-6.545l65.052-36.71c4.885-2.756 10.837-4.172 16.43-4.415 5.17-.224 11.075.527 15.638 3.102l69.707 39.336c1.986 1.122 3.8 2.648 4.935 4.65.79 1.396 1.21 2.963 1.156 4.566l-.005 9.82c0 2.41-.9 4.657-2.318 6.58-1.588 2.15-3.78 3.846-6.095 5.152l-65.053 36.71c-4.886 2.757-10.837 4.172-16.432 4.416-5.168.223-11.073-.528-15.637-3.103L6.796 169.436c-1.73-.976-3.318-2.257-4.446-3.905C1.28 163.97.7 162.194.7 160.304l.008-9.823" fill="#B3B4B4"/><path d="M180.257 149.217l-.004 9.795c0 1.846-.645 3.757-1.99 5.576-1.24 1.68-3.08 3.282-5.56 4.682l-64.98 36.67c-4.497 2.537-10.16 3.954-15.66 4.195-5.503.238-10.854-.704-14.718-2.885L7.717 167.958c-1.738-.98-3.02-2.132-3.88-3.387-.916-1.333-1.354-2.784-1.353-4.27l.008-9.857c-.01-.194-.013-.387-.008-.582.035-1.263.414-2.55 1.126-3.812 1.202-2.12 3.358-4.167 6.432-5.902l16.352-9.228 48.626-27.44c4.498-2.538 10.16-3.956 15.66-4.195 5.505-.24 10.854.702 14.72 2.883l18.46 10.418.1.056.01.005.338.19 32.137 18.137.352.198 18.23 10.288c2.02 1.14 3.448 2.512 4.296 4.01.66 1.167.972 2.41.937 3.68l-.003.07" fill="#FFFFFE"/><path d="M180.212 149.018l-.003 10c-.003 3.48-2.354 7.208-7.453 10.086l-16.272 9.183-48.817 27.546c-8.95 5.052-22.544 5.643-30.213 1.315L7.707 167.79c-3.512-1.984-5.132-4.667-5.13-7.48l.01-10.065c.13 2.683 1.757 5.223 5.12 7.122l18.603 10.497 51.145 28.862c7.67 4.328 21.264 3.735 30.213-1.313l48.817-27.548 16.272-9.183c4.894-2.762 7.257-6.305 7.44-9.664h.015" fill="#F6F6F6"/><path d="M180.433 149.018l-.003 10c-.002 1.85-.647 3.765-1.992 5.588-1.243 1.68-3.087 3.287-5.572 4.69l-65.09 36.73c-4.506 2.542-10.178 3.963-15.686 4.202-5.514.24-10.873-.703-14.744-2.888L7.6 167.982c-1.74-.982-3.027-2.137-3.888-3.394-.917-1.336-1.355-2.79-1.354-4.28l.008-10.063.442-.01c.064 1.335.512 2.634 1.373 3.832.824 1.145 2.027 2.202 3.636 3.11l69.746 39.358c3.798 2.142 9.07 3.067 14.51 2.83 5.443-.235 11.045-1.637 15.488-4.145l48.817-27.548.09.16-.09-.16 16.27-9.182c2.335-1.316 4.084-2.812 5.29-4.376 1.283-1.666 1.947-3.413 2.04-5.108l.01-.21h.447v.222zm-.445 10l.003-7.775c-.35 1.06-.915 2.115-1.702 3.14-1.24 1.608-3.035 3.143-5.422 4.49l-65.09 36.73c-4.506 2.543-10.178 3.964-15.686 4.203-5.514.24-10.873-.703-14.744-2.888L7.6 157.56c-1.667-.94-2.917-2.04-3.777-3.236-.44-.61-.777-1.248-1.018-1.902l-.007 7.887c0 1.4.414 2.768 1.28 4.03.824 1.203 2.06 2.31 3.738 3.258l69.746 39.358c3.798 2.143 9.07 3.068 14.51 2.83 5.443-.236 11.045-1.636 15.488-4.144l48.817-27.548.09.16-.09-.16 16.27-9.182c2.43-1.37 4.226-2.933 5.434-4.568 1.29-1.744 1.908-3.57 1.908-5.325zM105.447 102.076l18.94 10.69c-10.996 6.202-21.986 12.423-32.99 18.616-11.004-6.193-22-12.402-32.992-18.617l16.612-9.374c4.506-2.54 10.178-3.962 15.686-4.202 5.514-.24 10.873.703 14.744 2.888zm18.046 10.69L105.23 102.46c-3.797-2.143-9.07-3.068-14.508-2.832-5.444.238-11.046 1.64-15.49 4.146l-15.932 8.99 32.097 18.113 32.096-18.112z" fill="#B3B4B4"/><path d="M156.037 131.13l-32.096-18.112-32.095 18.112 32.096 18.112 32.097-18.112zm-31.987-18.556l32.883 18.556-32.992 18.617c-11.01-6.18-21.996-12.41-32.992-18.617l32.993-18.618.11.062z" fill="#B3B4B4"/><path d="M156.592 130.938l18.603 10.497c2.02 1.14 3.453 2.516 4.302 4.016.663 1.172.973 2.418.938 3.688-.034 1.265-.413 2.556-1.128 3.817-1.203 2.125-3.36 4.177-6.44 5.914l-16.382 9.242c-11.004-6.193-21.996-12.41-32.992-18.617 10.996-6.207 22.002-12.4 32.992-18.618l.107.06zm18.386 10.88l-18.493-10.436-32.098 18.113 32.098 18.112 16.163-9.12c3.008-1.7 5.11-3.69 6.275-5.746.68-1.198 1.04-2.42 1.072-3.614.033-1.19-.26-2.358-.88-3.457-.812-1.434-2.187-2.75-4.137-3.852zM26.757 131.13l32.095 18.112 32.096-18.112-32.096-18.112-32.095 18.112zm31.988 18.556L25.86 131.13l32.992-18.618c10.98 6.23 21.99 12.423 32.993 18.617-10.995 6.21-21.996 12.41-32.993 18.617l-.107-.06z" fill="#B3B4B4"/><path d="M91.29 168.053l-32.884-18.558c11-6.2 22-12.4 32.99-18.618 10.99 6.218 21.99 12.422 32.992 18.618-10.993 6.21-21.987 12.424-32.99 18.617l-.11-.06zM59.3 149.495l32.097 18.112 32.096-18.112-32.096-18.113L59.3 149.495z" fill="#B3B4B4"/><path d="M91.845 167.86l32.096 18.113 32.097-18.113-32.096-18.113-32.095 18.113zm31.987 18.556L90.948 167.86l32.993-18.618c10.982 6.23 21.996 12.415 32.993 18.618l-32.992 18.618-.108-.062zM26.416 130.938L59.3 149.495c-10.993 6.21-21.995 12.41-32.99 18.617L7.6 157.555c-2.024-1.142-3.454-2.517-4.304-4.017-.664-1.17-.973-2.415-.938-3.686.035-1.266.413-2.556 1.13-3.818 1.2-2.123 3.36-4.176 6.44-5.914l16.38-9.243.108.06zm31.99 18.557l-32.098-18.113-16.163 9.122c-3.008 1.698-5.11 3.69-6.275 5.745-.678 1.198-1.04 2.42-1.072 3.614-.032 1.19.26 2.36.88 3.457.814 1.434 2.188 2.75 4.137 3.85l18.493 10.437 32.098-18.112z" fill="#B3B4B4"/><path d="M90.948 167.86l-32.096-18.113-32.095 18.113 32.095 18.113 32.096-18.113zM58.96 149.303l32.885 18.557-32.993 18.618c-11.01-6.18-21.995-12.41-32.99-18.618l32.99-18.618.11.06z" fill="#B3B4B4"/><path d="M91.505 167.668l32.883 18.557-16.612 9.374c-4.505 2.542-10.178 3.962-15.685 4.2-5.514.242-10.873-.702-14.744-2.886l-18.94-10.69c10.995-6.206 22-12.398 32.99-18.617l.11.06zm31.988 18.557l-32.096-18.113L59.3 186.225l18.26 10.305c3.8 2.144 9.073 3.067 14.51 2.832 5.445-.237 11.047-1.64 15.49-4.147l15.933-8.99zM156.262 178.286h.442v-10.422h-.442" fill="#B3B4B4"/><path fill="#B3B4B4" d="M123.72 196.647h.442v-10.422h-.443M58.63 196.65h.444v-10.42h-.443M26.088 178.282h.443V167.86h-.442"/><g><path d="M108.676 26.272l8.598-4.73c1.292-.71 2.987-.612 4.843.47 4.056 2.36 7.345 8.512 7.345 13.737 0 3.22-.72 4.605-3.118 5.923l-5.888 3.238 12.456 7.256c3.848 2.24 6.997 8.132 6.997 13.09v8.956l-.002-.003V95.946c0 1.192-.41 2.026-1.063 2.378l-7.58 4.093v21.33c0 1.474-.503 2.51-1.298 2.965l-8.59 4.91-.038-.166c-.692.41-1.608.373-2.61-.21-2.132-1.244-3.877-4.51-3.877-7.256v-.948l-3.808 2.11c-.71.58-1.726.615-2.85-.04-2.133-1.244-3.877-4.508-3.877-7.257v-33.94l-3.3 1.88c-.565.457-1.37.482-2.26-.037h-.002c-1.697-.99-3.083-3.587-3.083-5.772V58.39 49.296c0-2.7.932-4.585 2.4-5.386l8.2-4.464c.43-.326.916-.55 1.45-.654-1.003-2.2-1.605-4.6-1.605-6.835 0-2.868.993-4.862 2.558-5.685" fill="#F6F6F6"/><path d="M107.828 24.53l8.526-4.685.046-.024c.983-.53 2.104-.75 3.31-.634 1.08.104 2.22.48 3.374 1.153 2.345 1.363 4.437 3.766 5.923 6.552 1.475 2.757 2.386 5.927 2.386 8.86 0 1.924-.24 3.35-.886 4.578-.673 1.282-1.7 2.196-3.242 3.044l-2.888 1.587 9.5 5.534c2.242 1.305 4.247 3.614 5.675 6.283 1.413 2.642 2.29 5.684 2.29 8.48v8.957c0 .046-.002.092-.007.138h.006v21.596c0 .856-.16 1.623-.45 2.268-.365.816-.926 1.432-1.63 1.815l-6.563 3.543v20.175c0 .994-.183 1.876-.505 2.616-.02.044-.042.087-.06.128-.365.77-.885 1.374-1.527 1.79-.1.072-.206.136-.317.186l-8.46 4.833c-.33.19-.693.268-1.045.252-.416.103-.853.14-1.306.1-.667-.052-1.365-.265-2.068-.65-.1-.05-.192-.102-.283-.165-1.325-.816-2.498-2.18-3.33-3.737-.49-.918-.873-1.916-1.11-2.922l-1.106.614c-.68.494-1.475.747-2.355.734-.76-.012-1.555-.223-2.35-.66-.098-.047-.193-.103-.283-.164-1.325-.816-2.5-2.18-3.332-3.74-.846-1.583-1.374-3.414-1.374-5.108V87.238l-.303.175c-.61.445-1.33.675-2.125.662-.702-.013-1.44-.22-2.165-.642l-.014-.01c-1.16-.678-2.183-1.848-2.9-3.185-.702-1.315-1.138-2.84-1.138-4.252V58.39c0-.047.003-.093.004-.14h-.004v-8.954c0-1.592.286-2.987.798-4.14.584-1.31 1.455-2.296 2.54-2.91.04-.024.082-.048.125-.07l8.043-4.378c-.237-.675-.437-1.357-.596-2.035-.3-1.277-.463-2.564-.463-3.805 0-1.684.3-3.15.84-4.35.622-1.39 1.566-2.425 2.747-3.048l.05-.03zm10.364-1.29l-8.49 4.67c-.043.027-.085.05-.13.073-.412.22-.764.63-1.028 1.217-.316.703-.492 1.628-.492 2.757 0 .95.126 1.94.357 2.925.237 1.017.58 2.024 1.005 2.98.093.17.162.358.202.56.204 1.05-.48 2.068-1.525 2.27-.132.028-.25.064-.347.108-.074.035-.144.072-.21.115-.12.103-.253.192-.395.263l-8.114 4.42-.03.016c-.38.206-.702.586-.94 1.118-.29.65-.453 1.513-.453 2.564v8.954h-.005c.004.047.005.093.005.14v21.596c0 .774.258 1.642.672 2.42.38.71.864 1.304 1.366 1.627.06.03.116.063.17.1.048.023.09.043.124.056.085-.06.177-.11.272-.154l3.03-1.727c.308-.21.68-.334 1.08-.334 1.067 0 1.93.87 1.93 1.94v33.94c0 1.056.35 2.23.907 3.276.543 1.016 1.254 1.865 2.002 2.302l.006.003c.26.152.464.224.608.225.02 0 .034 0 .045-.003.125-.104.263-.193.412-.262l3.594-1.994c.297-.19.653-.3 1.033-.3 1.067 0 1.932.868 1.932 1.938v.95c0 1.052.344 2.23.905 3.275.542 1.015 1.253 1.865 2 2.3l.006.006c.233.134.427.205.58.218.05.005.077.005.083.002v.003c.17-.102.355-.178.557-.222.072-.017.144-.028.217-.037l7.85-4.485.032-.017c.035-.02.073-.072.116-.157l.03-.072c.108-.252.17-.603.17-1.055v-21.33l.004-.002c0-.688.368-1.355 1.014-1.703l7.536-4.07-.01-.004c0 .002-.003 0-.002 0 .066-.15.104-.38.104-.694V74.35h.005c-.003-.045-.005-.09-.005-.138v-8.955c0-2.16-.697-4.547-1.82-6.65-1.112-2.073-2.604-3.83-4.21-4.768l-12.457-7.254h.002c-.295-.172-.55-.426-.726-.75-.508-.936-.163-2.11.77-2.62l5.888-3.24c.854-.468 1.388-.91 1.67-1.45.318-.6.436-1.478.436-2.775 0-2.293-.733-4.81-1.916-7.027-1.17-2.188-2.752-4.042-4.462-5.038-.668-.39-1.273-.6-1.802-.652-.444-.043-.835.03-1.158.206zm19.74 73.38c.038-.02-.04.017-.054.02l.008.006.046-.027z" fill="#2EBCE3"/><path d="M73.287 26.13l-8.598-4.727c-1.293-.713-2.988-.613-4.845.468-4.057 2.364-7.345 8.514-7.345 13.74 0 3.222.72 4.607 3.117 5.925l5.89 3.237-12.456 7.254c-3.847 2.242-6.998 8.13-6.998 13.09v8.955h.003c0 .05-.003.095-.003.142v21.596c0 1.19.414 2.025 1.066 2.378l7.58 4.09v21.332c0 1.474.503 2.51 1.298 2.965l8.59 4.908.037-.162c.69.41 1.607.372 2.61-.21 2.13-1.243 3.877-4.51 3.877-7.257v-.948l3.806 2.112c.71.578 1.726.612 2.85-.042 2.134-1.243 3.88-4.508 3.88-7.257v-33.94l3.298 1.88c.563.458 1.37.482 2.26-.036 1.696-.99 3.086-3.587 3.086-5.774V58.25c0-.046 0-.092-.003-.138l.003-.003v-8.954c0-2.7-.933-4.585-2.402-5.386l-8.2-4.464c-.43-.328-.916-.55-1.45-.653 1.005-2.202 1.606-4.605 1.606-6.835-.003-2.868-.993-4.86-2.557-5.688" fill="#FFF"/><path d="M74.068 24.358c.088.04.175.085.257.138 1.116.63 2.01 1.638 2.61 2.974.537 1.198.838 2.664.838 4.348 0 1.24-.164 2.526-.464 3.805-.16.68-.36 1.36-.597 2.035l8.044 4.38c.042.022.084.044.124.07 1.084.612 1.957 1.598 2.54 2.91.513 1.15.8 2.544.8 4.138v8.953h-.003v.028c.003.037.004.075.004.112v21.596c0 1.413-.436 2.937-1.14 4.252-.69 1.286-1.66 2.42-2.765 3.107-.093.067-.192.124-.3.173-.675.366-1.358.546-2.01.556-.795.013-1.516-.217-2.126-.66l-.303-.175v30.615c0 1.694-.528 3.524-1.375 5.11-.832 1.557-2.006 2.922-3.332 3.738-.09.063-.184.118-.283.164-.796.434-1.59.65-2.35.66-.88.012-1.678-.243-2.358-.736l-1.105-.61c-.235 1.004-.617 2.003-1.107 2.92-.832 1.557-2.007 2.92-3.332 3.737-.09.06-.183.118-.282.164-.702.387-1.4.6-2.067.653-.453.037-.89.002-1.306-.1-.354.017-.713-.062-1.044-.25l-8.46-4.834c-.11-.052-.214-.114-.313-.187-.683-.44-1.226-1.09-1.592-1.926-.32-.74-.503-1.62-.503-2.61v-20.175l-6.446-3.48c-.098-.044-.192-.097-.283-.16-.628-.385-1.13-.965-1.463-1.71h.003l-.003-.006c-.29-.647-.452-1.414-.452-2.268V74.212h.005c-.003-.047-.006-.095-.006-.14v-8.955c0-2.798.878-5.84 2.29-8.48 1.427-2.67 3.434-4.98 5.674-6.284l9.5-5.533-2.888-1.588c-1.543-.85-2.568-1.76-3.243-3.044-.642-1.226-.885-2.652-.885-4.577 0-2.932.913-6.102 2.386-8.86 1.488-2.782 3.58-5.187 5.924-6.552 1.154-.674 2.29-1.05 3.374-1.153 1.216-.12 2.346.11 3.336.65l.02.01 8.46 4.653zm-1.803 3.415l-8.35-4.593c-.085-.04-.168-.082-.248-.132-.3-.14-.657-.193-1.055-.155-.528.052-1.135.263-1.803.653-1.713.997-3.29 2.848-4.46 5.038-1.186 2.215-1.92 4.734-1.92 7.028 0 1.297.12 2.175.435 2.774.285.542.818.984 1.67 1.45l5.89 3.24c.934.51 1.278 1.685.77 2.62-.175.325-.43.578-.725.75v.003L50.017 53.7c-1.608.936-3.102 2.695-4.21 4.77-1.125 2.102-1.822 4.487-1.822 6.648v8.954c0 .048-.002.094-.005.142h.004V95.81c0 .308.036.536.1.686l.003-.002c.002.002 0 .003 0 .003v.005l.008.015 7.516 4.06c.646.35 1.014 1.014 1.014 1.704h.005v21.33c0 .456.06.813.17 1.062.054.122.103.2.146.222l.016.01 7.87 4.493c.068.008.142.02.214.035.2.048.39.123.556.223l.002-.003c.005.004.033.004.082 0 .153-.014.35-.085.58-.22h.006c.747-.44 1.46-1.29 2.003-2.304.557-1.044.903-2.222.903-3.276v-.95c0-1.072.865-1.94 1.932-1.94.38 0 .734.113 1.034.303l3.596 1.994c.148.07.286.157.41.262l.043.002c.146 0 .35-.075.61-.226l.005-.004c.75-.437 1.46-1.286 2-2.3.56-1.046.906-2.222.906-3.28v-33.94c0-1.07.864-1.936 1.93-1.936.403 0 .773.12 1.082.33l3.03 1.727c.095.045.187.096.274.153.05-.02.122-.054.21-.105l.006-.003c.53-.31 1.042-.93 1.44-1.676.416-.776.673-1.645.673-2.42V58.25c0-.046.002-.092.005-.14h-.006v-8.954c0-1.05-.162-1.914-.453-2.565-.237-.53-.56-.91-.94-1.116l-.03-.018-8.12-4.42c-.13-.07-.254-.15-.37-.25l-.018-.014c-.067-.042-.136-.08-.212-.115-.098-.042-.215-.08-.348-.104-1.045-.206-1.727-1.222-1.524-2.272.04-.202.11-.39.203-.56.424-.956.765-1.96 1.005-2.98.23-.986.356-1.976.356-2.924 0-1.13-.175-2.057-.49-2.76-.265-.584-.617-.998-1.03-1.214-.042-.02-.084-.044-.125-.07zM44.082 96.496c-.023-.004-.088-.037-.052-.015l.017.01.02.012.015-.006z" fill="#B3B4B4"/><path d="M111.326 39.595l21.586 12.57c3.847 2.24 6.997 8.133 6.997 13.092v8.954h-.002v21.736c0 1.192-.41 2.026-1.063 2.38l-7.58 4.092v21.33c0 1.474-.503 2.51-1.298 2.965l-8.59 4.908-2.437-10.845-7.893 4.378-2.28-43.772-7.747 4.415-2.945-41.885 8.2-4.464c1.277-.975 3.07-1.004 5.05.15" fill="#DBEEF7"/><path d="M111.445 39.385l21.586 12.57c1.967 1.144 3.748 3.214 5.035 5.623 1.287 2.406 2.085 5.158 2.085 7.68v8.953c0 .014-.002.024-.004.037l.002.102h.002v21.597c0 .62-.107 1.15-.3 1.58-.206.462-.513.806-.892 1.01l-7.453 4.025v21.186c0 .756-.13 1.408-.358 1.933l-.006.016c-.243.545-.596.957-1.03 1.212-.014.01-.03.02-.044.025l-8.572 4.895c-.115.067-.26.025-.327-.088-.012-.022-.02-.044-.025-.067l-2.366-10.53-7.614 4.223c-.117.063-.26.02-.327-.097-.02-.036-.028-.074-.03-.113l-2.256-43.373-7.41 4.223c-.115.065-.262.023-.328-.093-.018-.03-.028-.066-.03-.1l-2.945-41.888c-.007-.096.045-.185.125-.23l8.192-4.46c.69-.518 1.517-.78 2.44-.753.88.025 1.845.317 2.85.902zm21.346 12.99l-21.586-12.572c-.935-.542-1.823-.815-2.625-.838-.813-.024-1.54.206-2.142.66-.018.015-.038.028-.058.038l-8.054 4.386 2.907 41.346 7.408-4.22c.033-.02.072-.033.115-.036.132-.006.247.095.253.23l2.257 43.386 7.558-4.193c.02-.01.04-.018.065-.023.128-.028.257.053.286.183l2.364 10.528 8.297-4.738.012-.008c.355-.203.65-.545.853-1.005l.005-.014c.204-.463.316-1.05.316-1.738V102.42c0-.088.05-.17.13-.214l7.58-4.095c.284-.152.52-.418.68-.78h.003c.162-.366.254-.833.254-1.382V65.258c0-2.44-.776-5.113-2.027-7.45-1.248-2.337-2.964-4.334-4.85-5.432zm-11.648 79.298l.116-.263c-.095.053-.138.162-.116.263zm-10.337-6.507v-.01.01z" fill="#2EBCE3"/><path d="M122.117 22.01c4.056 2.363 7.342 8.514 7.342 13.74 0 3.22-.72 4.605-3.116 5.923l-7.47 4.11-10.198-19.51 8.598-4.732c1.292-.71 2.987-.61 4.843.47" fill="#DBEEF7"/><path d="M122.24 21.803c2.065 1.203 3.934 3.366 5.282 5.89 1.347 2.52 2.18 5.405 2.18 8.058 0 1.65-.187 2.837-.687 3.788-.504.962-1.313 1.664-2.556 2.348l-7.47 4.11c-.117.06-.265.02-.327-.097l-.006-.014-10.195-19.502c-.06-.117-.017-.26.098-.324l8.598-4.73.016-.01c.697-.38 1.5-.536 2.38-.45.838.08 1.743.385 2.685.933zm4.857 6.12c-1.308-2.45-3.112-4.544-5.1-5.703-.88-.512-1.72-.796-2.492-.87-.784-.076-1.5.066-2.115.403l-.012.005-.006.005-8.374 4.606 9.975 19.082 7.257-3.99c1.155-.635 1.905-1.282 2.358-2.15.46-.872.63-1.99.63-3.56 0-2.574-.81-5.38-2.12-7.83zm-9.706-6.17h-.002.003z" fill="#2EBCE3"/><path d="M113.464 26.772c4.055 2.362 7.343 8.512 7.343 13.738 0 5.227-3.288 7.55-7.343 5.187-4.055-2.362-7.344-8.514-7.344-13.74 0-5.225 3.29-7.547 7.344-5.185zM102.67 44.355c-3.847-2.243-6.997-.018-6.997 4.94v8.955h.002l-.002.14v21.596c0 2.185 1.387 4.783 3.085 5.772 1.697.987 3.084.006 3.084-2.18v-20.89c0-2.506 2.476-1.05 2.476 1.42v53.746c0 2.75 1.745 6.013 3.878 7.255s3.88.01 3.88-2.738v-29.7c0-2.632 2.778-1.05 2.778 1.615v29.702c0 2.748 1.745 6.013 3.88 7.255 2.13 1.243 3.877.01 3.877-2.74v-54.16c0-2.027 2.478-.585 2.478 1.44v21.33c0 2.186 1.388 4.783 3.083 5.77 1.7.987 3.086.007 3.086-2.178V79.11c0-.046 0-.09-.002-.14l.002.002v-8.955c0-4.96-3.15-10.85-6.997-13.092l-21.59-12.57z" fill="#FFF"/><path d="M113.585 26.563c2.067 1.204 3.934 3.366 5.283 5.89 1.348 2.52 2.182 5.405 2.182 8.057 0 1.712-.348 3.125-.957 4.18-.403.7-.922 1.242-1.53 1.61-.613.37-1.313.564-2.078.564-.962 0-2.027-.31-3.143-.958-2.068-1.204-3.935-3.368-5.284-5.89-1.345-2.52-2.18-5.405-2.18-8.058 0-1.713.347-3.125.957-4.18.403-.698.922-1.24 1.53-1.608.612-.37 1.313-.565 2.078-.565.962 0 2.026.308 3.142.958zm4.86 6.118c-1.31-2.45-3.114-4.543-5.102-5.7-1.037-.605-2.02-.89-2.9-.89-.676 0-1.293.168-1.828.493-.54.326-1 .81-1.362 1.436-.566.98-.89 2.313-.89 3.937 0 2.574.81 5.376 2.12 7.83 1.308 2.448 3.113 4.543 5.102 5.7 1.036.604 2.018.892 2.9.892.674 0 1.293-.173 1.828-.495.54-.326 1-.81 1.363-1.438.566-.982.89-2.314.89-3.937 0-2.572-.812-5.377-2.122-7.83zM102.79 44.146c-1.058-.615-2.07-.905-2.983-.905-.734 0-1.41.186-1.998.54-.582.355-1.083.876-1.47 1.546-.58 1.004-.91 2.35-.91 3.97v8.954l.003.027-.003.087v21.621c0 1.134.358 2.37.935 3.45.578 1.08 1.377 2.008 2.263 2.528l.006.005c.488.28.956.416 1.382.416.35 0 .67-.09.95-.257.277-.17.512-.414.695-.73.267-.464.422-1.078.422-1.818V62.687c0-.567.126-.886.314-1.006.078-.053.178-.066.285-.048.13.022.27.092.413.2.51.385.98 1.228.98 2.274v53.746c0 1.415.448 2.96 1.167 4.308.725 1.35 1.727 2.514 2.832 3.157.602.35 1.18.517 1.705.517.427 0 .82-.11 1.164-.316.338-.204.628-.507.85-.894.332-.574.522-1.337.522-2.254v-29.7c0-.59.14-.92.348-1.045.096-.06.215-.075.345-.052.15.028.314.103.478.222.585.425 1.126 1.347 1.126 2.49v29.704c0 1.413.447 2.96 1.167 4.308.722 1.345 1.717 2.503 2.818 3.148.01.007.02.014.032.02.595.342 1.17.507 1.688.507v-.002c.427 0 .82-.108 1.164-.315.34-.204.627-.507.85-.894.33-.573.522-1.337.522-2.255v-54.16c0-.395.097-.614.246-.695v-.002c.077-.042.178-.05.288-.028.128.022.268.083.41.175l.014.01c.532.352 1.038 1.106 1.038 1.98v21.33h-.002c0 1.132.358 2.37.934 3.45.58 1.08 1.382 2.013 2.27 2.53.49.285.957.418 1.383.418.348 0 .67-.088.95-.257.276-.168.512-.415.693-.73.268-.463.42-1.08.42-1.818V79.008v-8.99c0-2.52-.798-5.273-2.084-7.678-1.288-2.41-3.07-4.48-5.033-5.623l-21.588-12.572zm21.345 12.99l-21.586-12.57c-.978-.57-1.907-.84-2.74-.84-.646 0-1.236.16-1.746.472-.516.31-.958.774-1.304 1.373-.537.93-.843 2.192-.843 3.727v8.958l-.003.12.003.017v21.594c0 1.054.336 2.21.876 3.222.536 1.002 1.27 1.86 2.072 2.332.013.006.02.013.03.018.405.232.784.342 1.125.342.26 0 .496-.066.7-.19.208-.125.388-.314.527-.556.226-.39.355-.923.355-1.576v-20.89c0-.752.218-1.21.535-1.414.19-.12.407-.156.63-.117.206.036.42.136.62.29.612.464 1.173 1.45 1.173 2.66v53.747c0 1.335.424 2.798 1.11 4.078.683 1.277 1.62 2.37 2.647 2.97.527.305 1.022.45 1.465.45.337 0 .647-.085.914-.246.27-.164.5-.408.686-.725.287-.498.453-1.177.453-2.008l-.002-29.7c0-.778.234-1.247.58-1.46.203-.123.436-.157.68-.115.222.04.456.145.677.308.688.5 1.326 1.573 1.326 2.882v29.702c0 1.334.424 2.797 1.11 4.077.68 1.276 1.617 2.368 2.64 2.966l.005.003c.527.305 1.024.45 1.467.45.337 0 .645-.083.914-.244.27-.166.502-.407.685-.724.29-.5.454-1.18.454-2.013v-54.16c0-.598.197-.957.5-1.12.178-.097.386-.12.6-.082.194.037.394.122.59.252l.015.006c.643.427 1.254 1.336 1.254 2.386l-.002 21.328c0 1.052.336 2.208.878 3.22.537 1.008 1.278 1.872 2.086 2.342.41.237.796.352 1.14.352.26 0 .495-.065.7-.188.208-.128.386-.315.528-.56.223-.388.354-.92.354-1.574V79.11l-.002-.138.002-.026v-8.93c0-2.438-.776-5.11-2.027-7.448-1.248-2.336-2.964-4.336-4.85-5.433z" fill="#2EBCE3"/><path d="M70.637 39.456L49.05 52.026c-3.847 2.242-6.998 8.13-6.998 13.09v8.955h.003c0 .05-.003.096-.003.142v21.596c0 1.19.414 2.025 1.066 2.378l7.58 4.09v21.332c0 1.474.503 2.51 1.298 2.965l8.59 4.908 2.435-10.845 7.896 4.378 2.28-43.773 7.747 4.416 2.944-41.886-8.2-4.464c-1.277-.974-3.07-1.003-5.05.15" fill="#FFF"/><path d="M70.758 39.663L49.17 52.235c-4.004 2.333-6.875 8.314-6.875 12.882V95.808c0 .55.092 1.014.254 1.38.162.363.396.63.68.784l7.582 4.094c.082.044.127.126.127.212v21.33c0 .69.112 1.276.317 1.74.204.465.497.81.857 1.015l.013.01 8.295 4.738 2.364-10.527c.03-.13.157-.21.287-.183.024.005.044.014.063.023l7.56 4.193 2.256-43.388c.008-.133.12-.234.254-.23.043.003.08.017.115.037l7.41 4.22 2.905-41.345-8.054-4.385c-.02-.012-.04-.024-.055-.042-.604-.452-1.332-.682-2.142-.657-.8.022-1.69.294-2.625.837zm-20.3 62.76l-7.47-3.965-1.044-.35-.132-2.3v-30.69l-.33-4.244 2.895-6.168 4.553-2.888 21.587-12.57c1.005-.587 1.97-.878 2.854-.905.923-.027 1.752.235 2.44.754l8.193 4.46H84c.082.045.135.133.128.232l-2.943 41.883h-.003c0 .035-.01.07-.028.102-.066.115-.215.155-.33.09l-7.41-4.22-2.256 43.372v.01l-20.7-22.605zm0 21.185v-21.186 21.186zm.358 1.93c-.232-.524-.358-1.175-.358-1.93l.358 1.93zm1.037 1.23c-.44-.256-.796-.674-1.036-1.23l1.036 1.23zm.042.025c-.015-.006-.03-.015-.042-.024l.042.023zm8.572 4.897l-8.572-4.897 8.572 4.897zm.354-.157c-.006.023-.014.047-.024.065-.067.118-.214.157-.33.092l.355-.157zm2.366-10.53l-2.364 10.53 2.364-10.53zm7.613 4.22l-7.614-4.22 7.613 4.22zm.326-.094c-.062.117-.21.16-.327.094l.326-.095z" fill="#B3B4B4"/><path d="M59.844 21.873c-4.056 2.36-7.344 8.512-7.344 13.74 0 3.22.72 4.604 3.117 5.923l7.473 4.108L73.287 26.13l-8.598-4.727c-1.293-.713-2.988-.613-4.846.47" fill="#FFF"/><path d="M59.966 22.08c-1.99 1.158-3.793 3.253-5.102 5.703-1.312 2.45-2.123 5.254-2.123 7.826 0 1.572.176 2.69.633 3.565.455.866 1.203 1.512 2.36 2.147l7.255 3.99 9.977-19.083-8.377-4.61-.007-.002-.01-.005c-.615-.338-1.33-.48-2.116-.404-.768.075-1.608.36-2.488.87zm-5.527 5.472c1.348-2.523 3.217-4.684 5.284-5.89.94-.547 1.847-.853 2.685-.932.876-.086 1.68.073 2.38.454l.015.006 8.598 4.73c.113.062.157.207.097.324l-10.195 19.5-.005.013c-.063.12-.212.162-.327.098l-7.47-4.11c-1.242-.68-2.053-1.387-2.556-2.345-.5-.954-.688-2.14-.688-3.79 0-2.652.832-5.538 2.18-8.058zm10.13-5.94c-.105-.06-.15-.19-.102-.303l.103.303zm.006.002h-.005.006z" fill="#B3B4B4"/><path d="M68.498 26.632c-4.054 2.362-7.343 8.512-7.343 13.738 0 5.227 3.29 7.55 7.343 5.19 4.056-2.364 7.343-8.516 7.343-13.74 0-5.228-3.286-7.55-7.342-5.188zm10.794 17.583c3.848-2.243 6.997-.018 6.997 4.94v8.954l-.005.002c.003.046.004.092.004.138v21.596c0 2.187-1.39 4.784-3.088 5.772-1.695.987-3.083.007-3.083-2.18V62.55c0-2.505-2.476-1.05-2.476 1.42v53.747c0 2.75-1.745 6.013-3.88 7.256-2.132 1.244-3.877.01-3.877-2.738v-29.7c0-2.632-2.78-1.047-2.78 1.616v29.7c0 2.75-1.746 6.017-3.878 7.257-2.134 1.242-3.88.01-3.88-2.74v-54.16c0-2.025-2.476-.584-2.476 1.44v21.33c0 2.186-1.387 4.783-3.084 5.77-1.697.99-3.085.008-3.085-2.178V78.972c0-.047 0-.095.003-.142h-.003v-8.953c0-4.958 3.15-10.85 7-13.092l21.587-12.57z" fill="#F6F6F6"/><path d="M68.618 26.842c-1.987 1.157-3.792 3.25-5.1 5.7-1.312 2.45-2.124 5.255-2.124 7.828 0 1.625.324 2.956.892 3.94.36.625.824 1.11 1.363 1.435.534.324 1.15.494 1.826.494.88 0 1.864-.288 2.9-.893 1.99-1.156 3.792-3.25 5.102-5.7 1.312-2.45 2.122-5.256 2.122-7.83 0-1.623-.323-2.955-.89-3.935-.362-.63-.824-1.112-1.364-1.437-.534-.323-1.153-.495-1.83-.495-.876 0-1.86.287-2.898.892zm-5.526 5.47c1.35-2.524 3.218-4.687 5.284-5.89 1.115-.65 2.18-.957 3.14-.957.766 0 1.468.194 2.08.563.61.367 1.128.91 1.53 1.61.61 1.054.957 2.467.957 4.18 0 2.653-.833 5.538-2.18 8.057-1.35 2.523-3.217 4.687-5.285 5.89-1.115.65-2.18.957-3.14.957-.767 0-1.467-.193-2.078-.563-.61-.37-1.128-.91-1.53-1.61-.61-1.054-.957-2.468-.957-4.18 0-2.654.834-5.538 2.18-8.06zm16.32 12.112c.98-.57 1.908-.84 2.74-.84.646 0 1.236.162 1.747.47.515.315.955.777 1.3 1.376.54.93.848 2.192.848 3.727v8.93l-.002.03.003.118-.002.017V79.85c0 1.05-.338 2.206-.878 3.218-.54 1.007-1.278 1.87-2.086 2.34-.41.24-.797.353-1.14.353-.26 0-.497-.062-.7-.186-.21-.126-.39-.314-.53-.56-.223-.39-.352-.92-.352-1.573V62.55c0-.754-.218-1.208-.54-1.414-.186-.12-.4-.157-.628-.116-.204.034-.415.134-.617.287-.612.463-1.174 1.452-1.174 2.662v53.748c0 1.334-.425 2.798-1.11 4.078-.68 1.274-1.61 2.36-2.634 2.96-.01.005-.02.013-.032.02-.518.296-1.01.44-1.446.44-.34 0-.646-.086-.912-.247-.272-.163-.503-.408-.686-.723-.29-.5-.453-1.18-.453-2.01V92.53c0-.777-.234-1.246-.58-1.456-.202-.125-.435-.16-.678-.117-.222.038-.456.147-.68.307-.685.5-1.322 1.573-1.322 2.884v29.7c0 1.334-.426 2.798-1.112 4.08-.682 1.277-1.62 2.37-2.647 2.968-.524.306-1.022.45-1.464.45-.337 0-.645-.085-.912-.245-.27-.163-.502-.407-.685-.722-.29-.5-.455-1.18-.455-2.014v-54.16c0-.597-.198-.957-.5-1.118-.177-.098-.388-.12-.602-.08-.192.034-.393.12-.59.247l-.014.01c-.644.425-1.255 1.334-1.255 2.383l.002 21.328c0 1.053-.336 2.21-.877 3.22-.54 1.01-1.278 1.872-2.087 2.343-.41.238-.797.35-1.14.35-.26 0-.496-.062-.7-.186-.21-.124-.388-.314-.527-.558-.225-.39-.354-.922-.354-1.575l-.002-21.595.002-.126c0-.014 0-.027-.002-.042v-8.927c0-2.44.776-5.11 2.027-7.45 1.247-2.335 2.966-4.334 4.85-5.432l21.585-12.57zM57.584 56.577l21.588-12.572c1.054-.615 2.065-.907 2.98-.907.735 0 1.41.188 1.996.544.585.353 1.083.874 1.47 1.545.58 1.005.912 2.348.912 3.97v8.952l-.002.03v.085l.002.024v21.596c0 1.134-.358 2.37-.934 3.45-.58 1.083-1.384 2.014-2.272 2.53-.486.286-.954.418-1.38.418-.35 0-.668-.087-.95-.257-.277-.168-.514-.414-.696-.73-.266-.463-.42-1.08-.42-1.818V62.547c0-.567-.127-.885-.314-1.006-.082-.053-.18-.065-.29-.047-.127.022-.27.09-.41.198-.51.386-.98 1.23-.98 2.274v53.748c0 1.415-.447 2.96-1.17 4.308-.72 1.346-1.72 2.506-2.82 3.153l-.01.003c-.602.35-1.18.517-1.706.517-.427 0-.82-.11-1.164-.316-.34-.204-.627-.507-.85-.894-.33-.574-.52-1.337-.52-2.254v-29.7c0-.588-.14-.92-.348-1.044-.098-.06-.217-.076-.346-.054-.15.028-.314.105-.478.224-.584.423-1.124 1.346-1.124 2.49v29.7c0 1.416-.448 2.96-1.17 4.31-.723 1.352-1.724 2.514-2.83 3.158-.6.35-1.182.516-1.708.515v.002c-.425 0-.818-.11-1.162-.317-.338-.205-.628-.507-.852-.894-.33-.573-.52-1.335-.52-2.254V74.204c0-.394-.098-.613-.247-.694-.078-.043-.176-.052-.29-.03-.127.022-.266.085-.407.175l-.015.01c-.53.352-1.038 1.107-1.038 1.98v21.33h.003c0 1.133-.36 2.37-.936 3.45-.578 1.082-1.382 2.015-2.27 2.53-.487.283-.956.42-1.382.42-.347 0-.668-.09-.95-.26-.276-.167-.513-.413-.693-.73-.268-.462-.42-1.078-.42-1.818V78.97l.003-.103c-.002-.012-.004-.023-.004-.036v-8.953c0-2.52.8-5.274 2.086-7.68 1.292-2.408 3.073-4.477 5.038-5.62z" fill="#B3B4B4"/><path d="M53.354 67.388l8.597-4.73c1.294-.71 2.99-.61 4.846.47 4.055 2.36 7.344 8.513 7.344 13.74 0 3.22-.72 4.605-3.117 5.922l-5.89 3.24L77.59 93.28c3.85 2.24 6.998 8.13 6.998 13.092v8.952h-.003c0 .047.003.094.003.142v21.596c0 1.19-.414 2.025-1.065 2.376l-7.58 4.094v21.33c0 1.475-.502 2.51-1.298 2.966l-8.59 4.906-.037-.162c-.69.41-1.605.372-2.608-.21-2.13-1.244-3.878-4.51-3.878-7.258v-.948l-3.808 2.112c-.71.58-1.725.612-2.848-.043v.002c-2.133-1.245-3.88-4.51-3.88-7.257v-33.94l-3.298 1.88c-.565.456-1.372.48-2.262-.04-1.697-.986-3.085-3.584-3.085-5.77V99.508l.003-.14h-.002v-8.954c0-2.698.933-4.585 2.403-5.388l8.2-4.464c.427-.325.916-.545 1.45-.652-1.003-2.202-1.606-4.602-1.606-6.833.002-2.87.992-4.862 2.557-5.687" fill="#E5EDD0"/><path d="M52.315 65.753c.084-.052.17-.1.257-.14l8.46-4.653.046-.025c.985-.527 2.103-.75 3.31-.632 1.08.104 2.22.48 3.375 1.15 2.344 1.368 4.435 3.77 5.924 6.554 1.472 2.756 2.385 5.93 2.385 8.862 0 1.922-.242 3.35-.887 4.576-.673 1.284-1.7 2.194-3.24 3.043l-2.888 1.59 9.498 5.53c2.24 1.304 4.248 3.616 5.673 6.284 1.415 2.642 2.29 5.682 2.29 8.48v8.955c0 .048 0 .093-.005.14h.006v21.595c0 .856-.164 1.62-.45 2.267-.337.75-.835 1.33-1.46 1.714-.092.063-.19.12-.29.164l-6.446 3.48v20.175c0 .99-.182 1.87-.504 2.61-.364.832-.908 1.482-1.588 1.924-.1.07-.206.136-.32.187l-8.457 4.83c-.328.19-.692.268-1.044.252-.413.1-.85.138-1.303.1-.715-.057-1.462-.296-2.213-.734l-.04-.02c-1.364-.81-2.577-2.202-3.43-3.8-.49-.915-.873-1.914-1.11-2.92l-1.103.614c-.678.492-1.478.75-2.356.735-.805-.014-1.65-.25-2.493-.74l-.015-.01c-1.376-.806-2.596-2.208-3.455-3.812-.848-1.585-1.373-3.416-1.373-5.108v-30.618l-.305.174c-.61.445-1.33.675-2.125.663-.702-.012-1.437-.22-2.165-.643-1.164-.677-2.19-1.85-2.91-3.193-.705-1.32-1.142-2.84-1.142-4.254V99.507c0-.047.002-.094.007-.14h-.007v-8.954c0-1.594.29-2.99.8-4.138.584-1.31 1.456-2.3 2.54-2.91.04-.025.082-.05.123-.07l8.046-4.38c-.24-.674-.44-1.356-.6-2.034-.3-1.28-.463-2.564-.463-3.804 0-1.685.3-3.15.84-4.35.6-1.337 1.494-2.345 2.608-2.973zm10.556-1.397l-8.494 4.674c-.04.025-.082.048-.123.07-.414.22-.766.63-1.03 1.216-.316.702-.493 1.63-.493 2.76 0 .948.126 1.938.358 2.924.238 1.017.58 2.024 1.006 2.98.094.17.16.356.202.557.203 1.05-.48 2.068-1.525 2.273-.132.028-.248.063-.347.108-.076.035-.153.077-.23.13-.115.096-.24.18-.375.247l-8.115 4.42-.03.015c-.38.21-.7.588-.94 1.12-.29.652-.45 1.513-.45 2.564v8.954h-.005c.002.047.006.092.006.14v21.596c0 .773.256 1.644.672 2.42.4.748.915 1.368 1.446 1.677.086.052.158.087.212.108.084-.06.177-.11.272-.155l3.03-1.726c.31-.21.68-.333 1.08-.333 1.068 0 1.932.87 1.932 1.942v33.94c0 1.052.346 2.23.906 3.274.523.977 1.202 1.8 1.918 2.252.06.03.12.066.18.105.217.115.39.173.517.175.017 0 .032 0 .043-.004.123-.102.26-.19.408-.26l3.598-1.995c.3-.19.654-.302 1.034-.302 1.067 0 1.932.87 1.932 1.942v.948c0 1.055.346 2.23.904 3.275.523.976 1.2 1.8 1.915 2.25.065.03.126.07.186.107.19.103.353.158.487.168.048.004.077.004.083 0v.002c.17-.1.356-.176.558-.22.07-.017.143-.027.215-.037l7.85-4.484.034-.018c.04-.023.09-.098.144-.22.11-.253.173-.608.173-1.065v-21.33h.002c.002-.688.37-1.354 1.015-1.704l7.535-4.07-.01-.003v-.003c.066-.147.103-.378.103-.69V115.47h.004c-.002-.046-.004-.092-.004-.14v-8.954c0-2.16-.698-4.545-1.82-6.648-1.11-2.076-2.604-3.834-4.213-4.77L64.17 87.71v-.005c-.294-.17-.55-.423-.724-.746-.507-.938-.165-2.113.768-2.623l5.89-3.238c.853-.468 1.387-.91 1.672-1.452.315-.6.433-1.478.433-2.775 0-2.295-.734-4.813-1.917-7.03-1.17-2.187-2.75-4.04-4.46-5.037-.668-.39-1.276-.6-1.805-.65-.444-.047-.835.026-1.157.203zm19.74 73.38c.04-.02-.04.018-.054.02l.01.005.028-.014.017-.01z" fill="#98CA3C"/><path d="M56.003 80.71L77.59 93.282c3.85 2.24 6.998 8.13 6.998 13.092v8.952h-.003c0 .047.003.094.003.142v21.596c0 1.19-.414 2.025-1.065 2.375l-7.58 4.094v21.328c0 1.475-.504 2.513-1.298 2.968l-8.59 4.906-2.435-10.845-7.895 4.38-2.278-43.773-7.748 4.415-2.947-41.887 8.2-4.464c1.277-.973 3.07-1.003 5.05.15" fill="#E5EDD0"/><path d="M56.123 80.503l21.588 12.57c1.964 1.144 3.745 3.21 5.034 5.622 1.286 2.405 2.085 5.16 2.085 7.68v8.95c0 .015-.002.025-.003.038V115.468h.002v21.596c0 .618-.108 1.15-.3 1.578v.002c-.205.462-.512.806-.892 1.01l-7.454 4.024v21.185c0 .756-.127 1.407-.36 1.932-.24.556-.596.972-1.036 1.23-.012.01-.027.02-.04.025l-8.573 4.898c-.114.065-.262.023-.327-.093-.013-.02-.02-.042-.026-.065l-2.364-10.532-7.615 4.224c-.117.065-.264.022-.327-.095-.02-.035-.03-.075-.03-.113L53.23 122.9l-7.41 4.223c-.116.064-.26.024-.327-.09-.018-.032-.03-.067-.032-.104h-.002l-2.945-41.887c-.006-.098.046-.187.126-.23l8.19-4.46c.69-.52 1.518-.783 2.44-.754.883.025 1.848.316 2.853.903zM77.47 93.49L55.88 80.92c-.934-.545-1.824-.816-2.624-.84-.81-.022-1.54.206-2.142.66-.02.015-.037.03-.06.04l-8.053 4.384 2.907 41.35 7.41-4.222c.033-.022.07-.034.114-.035.13-.007.246.095.252.227l2.258 43.39 7.558-4.194h.002c.018-.01.04-.018.06-.023.13-.03.26.05.29.18l2.364 10.528 8.294-4.738.014-.007c.358-.206.654-.55.857-1.016.203-.465.318-1.052.318-1.742v-21.328c0-.085.048-.17.126-.214l7.582-4.093c.286-.153.52-.42.682-.783.163-.367.254-.832.254-1.38v-21.596h.002l-.004-.128c0-.014 0-.026.003-.037v-8.93c0-2.438-.777-5.11-2.026-7.45-1.25-2.336-2.966-4.335-4.85-5.432zm6.874 21.85v-.01.01zM65.82 172.788l.116-.262c-.093.054-.138.162-.117.262zm-10.335-6.507v-.006.007z" fill="#98CA3C"/><path d="M66.796 63.128c4.055 2.36 7.344 8.513 7.344 13.738 0 3.223-.72 4.607-3.117 5.924l-7.472 4.108-10.196-19.51 8.597-4.73c1.294-.71 2.99-.61 4.846.47" fill="#E5EDD0"/><path d="M66.917 62.92c2.067 1.203 3.936 3.366 5.284 5.888 1.346 2.52 2.18 5.407 2.18 8.06 0 1.648-.187 2.836-.688 3.788-.502.96-1.312 1.664-2.554 2.347l-7.472 4.107c-.116.064-.26.02-.325-.095l-.005-.013L53.14 67.5c-.06-.117-.016-.26.1-.324l8.596-4.73.016-.007c.697-.38 1.502-.538 2.38-.454.84.08 1.744.385 2.685.933zm4.86 6.117c-1.31-2.448-3.114-4.543-5.1-5.7-.88-.513-1.72-.798-2.492-.87-.785-.078-1.5.065-2.116.4l-.012.01h-.008l-8.375 4.61L63.65 86.57l7.257-3.99c1.154-.636 1.905-1.284 2.36-2.15.456-.874.63-1.99.63-3.563 0-2.573-.81-5.377-2.12-7.83zm-9.708-6.17l-.003.004.002-.002z" fill="#98CA3C"/><path d="M58.143 67.888c4.054 2.362 7.343 8.512 7.343 13.74 0 5.226-3.29 7.546-7.343 5.184-4.057-2.36-7.344-8.512-7.344-13.74 0-5.224 3.286-7.545 7.343-5.184zM47.35 85.47c-3.85-2.24-6.998-.017-6.998 4.942V121.103c0 2.186 1.388 4.783 3.086 5.77 1.695.99 3.084.01 3.084-2.177v-20.89c0-2.505 2.474-1.053 2.474 1.42v53.746c0 2.748 1.747 6.013 3.88 7.255 2.132 1.242 3.878.012 3.878-2.74v-29.7c0-2.63 2.778-1.046 2.778 1.618v29.7c0 2.75 1.747 6.014 3.88 7.256 2.13 1.243 3.877.01 3.877-2.738V115.46c0-2.025 2.477-.582 2.477 1.443l-.002 21.328c0 2.186 1.39 4.785 3.085 5.77 1.697.99 3.085.01 3.085-2.177v-21.596l-.003-.142.003.002v-8.954c0-4.96-3.15-10.85-7-13.09L47.35 85.47z" fill="#FFF"/><path d="M58.264 67.678c2.066 1.204 3.934 3.365 5.285 5.89 1.344 2.518 2.177 5.404 2.177 8.058 0 1.712-.347 3.125-.955 4.18-.403.698-.922 1.24-1.53 1.608-.613.37-1.312.565-2.08.565v-.003c-.962 0-2.027-.308-3.14-.957-2.067-1.202-3.936-3.366-5.283-5.89-1.35-2.52-2.183-5.404-2.183-8.058 0-1.71.35-3.124.956-4.18.405-.7.924-1.24 1.53-1.61.613-.37 1.314-.563 2.08-.563.96 0 2.026.308 3.14.958zm4.86 6.12c-1.31-2.45-3.114-4.543-5.1-5.7-1.04-.605-2.024-.892-2.903-.892-.676 0-1.293.17-1.828.494-.54.325-1 .81-1.363 1.437-.566.98-.89 2.313-.89 3.936 0 2.573.812 5.377 2.12 7.83 1.31 2.447 3.114 4.542 5.103 5.7 1.038.605 2.02.892 2.9.892.676 0 1.293-.17 1.827-.493.54-.328 1-.812 1.363-1.437.568-.982.89-2.314.89-3.937 0-2.576-.81-5.378-2.12-7.83zM47.468 85.262c-1.056-.614-2.067-.905-2.983-.905-.735 0-1.407.188-1.995.543-.585.353-1.083.875-1.47 1.546-.58 1.004-.91 2.346-.91 3.97V121.103c0 1.132.357 2.37.932 3.45.58 1.083 1.383 2.015 2.272 2.53.488.284.954.42 1.38.42.35 0 .67-.09.95-.26.28-.17.514-.415.695-.73.27-.462.422-1.08.422-1.817v-20.89c0-.57.127-.886.314-1.008.082-.05.18-.066.29-.047.127.025.27.092.408.2.512.386.98 1.23.98 2.275v53.747c0 1.414.45 2.958 1.17 4.308.723 1.35 1.723 2.514 2.83 3.157.604.352 1.18.515 1.708.515.427 0 .817-.107 1.16-.315.342-.205.63-.507.853-.893.332-.574.522-1.338.522-2.256v-29.702c0-.586.138-.916.347-1.044.096-.057.216-.074.344-.05.152.025.315.104.48.223.583.425 1.124 1.347 1.124 2.49v29.7c0 1.415.448 2.96 1.17 4.31.72 1.35 1.722 2.51 2.827 3.155.602.353 1.182.52 1.71.52v-.002c.426-.002.818-.11 1.16-.315.34-.205.628-.508.852-.895.332-.573.52-1.338.52-2.254V115.46c0-.395.098-.612.246-.694.08-.042.178-.05.288-.03.132.024.277.087.423.185.53.355 1.036 1.106 1.036 1.983h.002l-.002 21.328c0 1.134.357 2.37.935 3.45.576 1.076 1.375 2.003 2.256 2.523l.032.018c.482.278.944.41 1.366.41.348 0 .668-.09.95-.26.276-.165.512-.412.695-.73.265-.46.42-1.076.42-1.816v-21.6l-.004-.1c.003-.01.003-.024.003-.037v-8.953c0-2.52-.8-5.273-2.086-7.68-1.288-2.41-3.07-4.478-5.035-5.62L47.47 85.26zm21.345 12.992l-21.587-12.57c-.98-.57-1.908-.842-2.74-.842-.646 0-1.236.163-1.746.47-.517.314-.96.777-1.302 1.377-.54.93-.846 2.192-.846 3.726v8.932l.002.028-.004.118.002 21.613c0 1.052.336 2.208.876 3.22.54 1.008 1.28 1.87 2.087 2.34.41.24.797.353 1.14.353.26 0 .497-.065.7-.19.208-.123.388-.312.527-.555.226-.39.356-.923.356-1.574v-20.89c0-.755.217-1.21.536-1.415.188-.12.404-.155.63-.115.205.036.416.135.62.288.61.463 1.17 1.453 1.17 2.662v53.748c0 1.334.425 2.797 1.11 4.077.684 1.277 1.623 2.37 2.648 2.97.525.305 1.02.45 1.465.45.336 0 .645-.085.91-.246.273-.164.506-.408.687-.724.288-.5.455-1.18.455-2.012v-29.7c0-.778.234-1.246.58-1.458.2-.122.435-.158.678-.115.223.04.455.146.677.307.687.5 1.324 1.57 1.324 2.883v29.7c0 1.335.427 2.8 1.113 4.08.678 1.272 1.613 2.36 2.635 2.96l.026.016c.52.3 1.01.444 1.45.444.337 0 .646-.084.912-.246.272-.165.502-.408.685-.723.29-.5.454-1.18.454-2.01v-54.166c0-.596.2-.956.502-1.12.18-.096.385-.117.602-.077.198.035.403.122.602.255.643.426 1.254 1.333 1.254 2.385L70 138.23h.003c0 1.054.336 2.21.877 3.22.54 1.006 1.277 1.868 2.084 2.34h.005c.407.24.794.353 1.14.353.258 0 .494-.064.698-.188.21-.125.39-.315.528-.556.224-.392.353-.926.353-1.58v-21.595.002-9.096c0-2.438-.776-5.11-2.026-7.448-1.247-2.336-2.963-4.335-4.85-5.43z" fill="#98CA3C"/><path d="M128.453 67.388l-8.595-4.73h-.002c-1.293-.71-2.988-.61-4.844.47-4.055 2.36-7.343 8.513-7.343 13.738 0 3.223.72 4.607 3.114 5.924l5.89 3.24-12.456 7.252c-3.848 2.24-6.997 8.13-6.997 13.092v8.952h.002v21.738c0 1.19.41 2.025 1.063 2.375l7.58 4.094v21.328c0 1.475.503 2.513 1.298 2.968l8.59 4.906.036-.162c.69.41 1.606.372 2.608-.213 2.132-1.24 3.878-4.505 3.878-7.254v-.948l3.81 2.112c.708.58 1.725.612 2.847-.043 2.134-1.242 3.878-4.507 3.878-7.255v-33.94l3.302 1.88c.564.457 1.37.482 2.26-.038 1.698-.988 3.084-3.585 3.084-5.77V99.506 90.413c0-2.7-.93-4.587-2.4-5.388l-8.2-4.464c-.43-.325-.915-.545-1.448-.652 1.002-2.202 1.602-4.602 1.602-6.833 0-2.87-.99-4.862-2.557-5.687" fill="#FFF"/><path d="M129.234 65.613c.088.04.175.085.26.14 1.113.63 2.006 1.636 2.606 2.973.538 1.2.84 2.665.84 4.35 0 1.24-.163 2.524-.464 3.803-.158.68-.36 1.36-.596 2.034l8.043 4.38c.044.02.085.044.126.067 1.083.615 1.953 1.6 2.538 2.913.513 1.15.8 2.545.8 4.14v8.953h-.006c.002.046.005.092.005.14v21.597c0 1.413-.437 2.935-1.14 4.25-.718 1.343-1.746 2.515-2.91 3.194-.727.424-1.463.63-2.166.643-.793.012-1.515-.218-2.124-.662l-.305-.174v30.617c0 1.693-.524 3.525-1.37 5.11-.854 1.596-2.068 2.99-3.434 3.797l-.04.023c-.84.49-1.687.73-2.492.74-.877.015-1.678-.24-2.356-.735l-1.107-.614c-.235 1.007-.617 2.006-1.105 2.922-.86 1.608-2.08 3.006-3.455 3.812l-.016.01c-.75.437-1.5.676-2.21.734-.456.036-.893 0-1.307-.102-.354.018-.715-.06-1.046-.25l-8.457-4.832c-.113-.053-.22-.117-.32-.19-.68-.44-1.222-1.09-1.585-1.923-.323-.74-.505-1.618-.505-2.608V144.69l-6.446-3.48c-.1-.05-.2-.102-.288-.165-.626-.385-1.125-.965-1.46-1.714-.29-.644-.45-1.41-.45-2.266v-21.596h.004c-.004-.047-.005-.093-.005-.142v-8.952c0-2.8.875-5.84 2.287-8.482 1.428-2.67 3.433-4.98 5.674-6.283l9.5-5.533-2.887-1.59c-1.543-.848-2.568-1.758-3.24-3.043-.646-1.225-.89-2.654-.89-4.578 0-2.93.914-6.105 2.39-8.86 1.486-2.784 3.577-5.188 5.922-6.553 1.154-.67 2.292-1.048 3.373-1.153 1.21-.116 2.328.105 3.31.634l.048.025 8.458 4.653zm-1.8 3.417l-8.496-4.674c-.322-.177-.713-.25-1.158-.207-.53.05-1.136.263-1.803.65-1.712 1-3.292 2.85-4.46 5.04-1.185 2.216-1.917 4.734-1.917 7.027 0 1.297.12 2.173.43 2.774.287.544.823.985 1.675 1.454l5.89 3.237c.93.513 1.277 1.687.768 2.624-.176.324-.43.576-.726.748v.002l-12.454 7.254c-1.608.936-3.102 2.69-4.21 4.768-1.125 2.102-1.82 4.488-1.82 6.648v8.954c0 .048-.003.093-.008.14h.008v21.596c0 .312.036.543.103.692 0 .003-.003.003-.005.003l-.006.002 7.535 4.07c.645.35 1.012 1.016 1.013 1.704h.004v21.33c0 .456.06.81.172 1.064.052.12.1.196.143.22l.032.02 7.853 4.484c.07.008.142.018.214.036.202.045.388.12.558.22h.082c.133-.013.3-.068.492-.17.057-.04.116-.074.176-.104.718-.45 1.398-1.275 1.92-2.254.558-1.043.904-2.22.904-3.276v-.946c0-1.072.865-1.94 1.932-1.94.38 0 .733.11 1.034.3l3.598 1.996c.148.07.283.157.408.26.01.002.025.004.043.004.125-.003.297-.06.513-.173.06-.04.122-.076.186-.11.716-.45 1.394-1.274 1.916-2.25.557-1.044.905-2.22.905-3.275v-33.94c0-1.07.864-1.94 1.93-1.94.402 0 .774.124 1.083.334l3.03 1.726c.095.044.187.095.272.154.053-.02.123-.055.213-.108.53-.31 1.046-.93 1.446-1.676.414-.776.672-1.647.672-2.42V99.507c0-.047.002-.094.005-.14h-.005v-8.954c0-1.05-.162-1.914-.45-2.565-.24-.53-.56-.91-.942-1.118l-.03-.017-8.114-4.418c-.144-.072-.277-.162-.396-.266-.066-.044-.136-.08-.21-.114-.098-.045-.216-.08-.348-.107-1.046-.206-1.728-1.222-1.524-2.274.04-.2.107-.39.202-.56.425-.954.767-1.96 1.005-2.976.23-.988.358-1.976.358-2.927 0-1.128-.178-2.057-.493-2.758-.26-.585-.616-1-1.03-1.214-.04-.022-.082-.045-.122-.07zM99.25 137.757c-.015-.003-.092-.042-.053-.02l.016.01.03.014.006-.003z" fill="#B3B4B4"/><path d="M125.805 80.71l-21.33 12.422c-4.295 2.502-7.253 8.31-7.253 13.242V137.064c0 1.19.41 2.025 1.063 2.375l7.58 4.094v21.328c0 1.475.504 2.513 1.298 2.968l8.59 4.906 2.436-10.845 7.895 4.38 2.276-43.773 7.752 4.415 2.942-41.887-6.51-3.544c-2.428-1.32-3.73-2.52-6.74-.77" fill="#FFF"/><path d="M125.925 80.92l-21.33 12.423c-2.066 1.203-3.817 3.19-5.07 5.474-1.303 2.38-2.06 5.08-2.06 7.557V137.06c0 .553.09 1.017.253 1.382.16.362.395.628.68.783l7.583 4.093c.082.044.128.128.128.213v21.33c0 .972.246 2.228 1.174 2.756l.012.007 8.295 4.738 2.362-10.528c.03-.13.16-.21.29-.18.02.004.042.013.062.02l7.56 4.195 2.257-43.388c.01-.132.12-.235.253-.23.043.003.082.016.115.036l7.41 4.222 2.905-41.35-6.374-3.468c-.25-.136-.54-.3-.815-.458-1.875-1.067-3.152-1.794-5.69-.316zm-10.29 92.028l-8.32-4.752-.468-.282c-.167-.12-.32-.268-.458-.44-.72-.825-.765-2.067-.765-2.61v-21.186l-7.454-4.024c-.378-.204-.684-.548-.892-1.012-.19-.427-.3-.933-.3-1.55v-30.718c0-2.553.86-5.232 2.203-7.682 1.29-2.358 3.03-4.52 5.174-5.768l21.33-12.42c2.777-1.617 4.152-.835 6.17.315.24.134.487.276.804.45l6.51 3.545c.082.045.133.13.126.23l-2.944 41.884c-.003.036-.013.07-.032.102-.064.116-.21.156-.327.09l-7.407-4.22-2.26 43.373-.03.112c-.063.118-.208.162-.326.095l-7.624-4.19-2.336 10.414c-.054.218-.258.305-.372.242z" fill="#B3B4B4"/><path d="M115.012 63.128c-4.055 2.36-7.343 8.513-7.343 13.738 0 3.223.72 4.607 3.114 5.924l7.472 4.108 10.2-19.51-8.597-4.73h-.002c-1.295-.71-2.99-.61-4.846.47" fill="#FFF"/><path d="M115.133 63.338c-1.988 1.158-3.793 3.25-5.103 5.7-1.31 2.453-2.12 5.257-2.12 7.83 0 1.57.172 2.688.63 3.562.456.866 1.205 1.514 2.36 2.15l7.255 3.99 9.977-19.086-8.375-4.606-.01-.002-.01-.008c-.615-.337-1.33-.48-2.115-.4-.77.073-1.61.356-2.49.87zm-5.526 5.47c1.35-2.522 3.216-4.685 5.283-5.89.94-.547 1.85-.852 2.685-.932.88-.087 1.682.073 2.38.452l.017.008 8.597 4.728c.115.064.157.208.097.324l-10.193 19.505-.007.012c-.064.117-.21.16-.326.095l-7.47-4.107c-1.24-.683-2.05-1.388-2.556-2.347-.5-.952-.687-2.14-.687-3.79 0-2.65.833-5.54 2.18-8.058zm10.13-5.94c-.105-.06-.15-.19-.102-.302l.103.302zm.005.003l-.004-.002.004.003z" fill="#B3B4B4"/><path d="M123.666 67.888c-4.056 2.362-7.343 8.512-7.343 13.74 0 5.226 3.287 7.546 7.343 5.184 4.056-2.36 7.343-8.512 7.343-13.74 0-5.224-3.29-7.545-7.344-5.184zM134.46 85.47c3.846-2.24 6.996-.017 6.996 4.942v8.955h-.002l.002.14v21.596c0 2.186-1.387 4.783-3.084 5.77-1.696.99-3.084.01-3.084-2.177v-20.89c0-2.505-2.477-1.053-2.477 1.42v53.746c0 2.748-1.743 6.013-3.877 7.255-2.134 1.242-3.88.012-3.88-2.74v-29.7c0-2.63-2.776-1.046-2.776 1.618v29.7c0 2.75-1.747 6.014-3.88 7.256-2.133 1.244-3.88.01-3.88-2.736V115.46c0-2.025-2.477-.582-2.477 1.443l.002 21.328c.002 2.186-1.387 4.785-3.084 5.77-1.695.99-3.084.01-3.084-2.177v-21.596c0-.047 0-.094.002-.142l-.002.002v-8.954c0-4.96 3.148-10.85 6.996-13.09l21.59-12.573z" fill="#F6F6F6"/><path d="M123.786 68.097c-1.988 1.158-3.793 3.25-5.102 5.7-1.31 2.453-2.12 5.257-2.12 7.83 0 1.624.32 2.954.89 3.938.36.625.822 1.108 1.362 1.435.536.324 1.153.494 1.828.494.882 0 1.864-.287 2.902-.89 1.985-1.16 3.79-3.253 5.1-5.7 1.31-2.455 2.12-5.26 2.12-7.832 0-1.624-.32-2.955-.89-3.936-.36-.626-.823-1.11-1.36-1.438-.537-.322-1.153-.492-1.83-.492-.88 0-1.862.287-2.9.89zm-5.525 5.47c1.35-2.524 3.217-4.685 5.286-5.89 1.114-.65 2.178-.958 3.14-.958.764 0 1.467.193 2.08.563.606.37 1.125.91 1.528 1.61.608 1.055.955 2.468.955 4.18 0 2.653-.834 5.538-2.18 8.057-1.348 2.524-3.218 4.688-5.284 5.89-1.115.652-2.18.96-3.142.96-.764 0-1.467-.195-2.077-.566-.61-.367-1.126-.91-1.53-1.608-.608-1.056-.957-2.468-.957-4.18 0-2.652.834-5.54 2.18-8.06zm16.32 12.114c.98-.57 1.906-.84 2.74-.84.646 0 1.236.163 1.748.47.515.314.956.777 1.302 1.377.538.93.845 2.192.845 3.726v30.692c0 1.053-.337 2.208-.878 3.22-.538 1.01-1.28 1.87-2.086 2.342-.41.24-.795.35-1.14.35-.26 0-.495-.064-.7-.188-.206-.124-.387-.312-.526-.556-.226-.39-.356-.923-.356-1.575v-20.89c0-.755-.216-1.21-.536-1.415-.188-.12-.404-.156-.63-.116-.203.036-.417.135-.62.29-.61.46-1.172 1.45-1.172 2.66v53.75c0 1.332-.426 2.795-1.11 4.075-.682 1.278-1.62 2.372-2.647 2.97-.525.306-1.02.45-1.465.45-.338 0-.647-.084-.912-.245-.272-.164-.504-.408-.686-.724-.29-.498-.453-1.18-.453-2.01v-29.702c0-.777-.235-1.243-.58-1.457-.203-.122-.437-.157-.678-.114-.225.04-.457.146-.68.307-.687.5-1.325 1.572-1.325 2.882v29.7c0 1.336-.425 2.8-1.11 4.08-.68 1.274-1.612 2.364-2.636 2.96-.01.006-.018.01-.027.018-.52.298-1.01.442-1.45.442-.336 0-.644-.084-.913-.247-.27-.163-.502-.407-.684-.722-.288-.5-.454-1.18-.454-2.01v-54.167c0-.596-.198-.956-.498-1.12-.18-.096-.387-.117-.605-.077-.196.035-.404.122-.603.255-.642.426-1.255 1.333-1.255 2.385l.004 21.327h-.003c0 1.054-.334 2.21-.875 3.22-.538 1.006-1.275 1.868-2.083 2.34h-.004c-.408.24-.795.353-1.14.353-.26 0-.496-.064-.7-.188-.208-.125-.388-.315-.527-.556-.226-.392-.355-.926-.355-1.58v-21.595.002V111.132c0-2.44.777-5.112 2.026-7.45 1.25-2.336 2.967-4.335 4.85-5.43l21.586-12.57zm-21.83 12.153l21.587-12.572c1.058-.614 2.07-.905 2.982-.905.735 0 1.408.188 1.997.543.584.353 1.08.875 1.47 1.545.58 1.005.91 2.347.91 3.97v8.954l-.003.028.003.086v21.622c0 1.132-.358 2.37-.935 3.45-.58 1.082-1.382 2.015-2.27 2.53-.487.285-.955.42-1.382.42-.347 0-.67-.09-.948-.26-.278-.166-.514-.414-.695-.73-.27-.463-.422-1.078-.422-1.818v-20.89c0-.568-.126-.886-.313-1.007-.08-.05-.18-.066-.288-.047-.13.023-.27.09-.412.198-.51.388-.98 1.23-.98 2.276v53.748c0 1.413-.448 2.956-1.168 4.306-.722 1.352-1.725 2.513-2.83 3.158-.604.35-1.18.515-1.708.515-.426 0-.82-.108-1.162-.314-.34-.206-.628-.507-.852-.895-.33-.573-.52-1.337-.52-2.254v-29.7c0-.588-.14-.918-.348-1.045-.096-.058-.215-.073-.346-.05-.15.026-.313.105-.476.222-.584.425-1.126 1.35-1.126 2.492v29.7c0 1.415-.45 2.958-1.17 4.307-.722 1.354-1.722 2.514-2.828 3.16h-.002c-.602.35-1.18.518-1.706.518v-.002c-.427 0-.82-.108-1.162-.315-.34-.204-.628-.506-.852-.894-.33-.573-.52-1.337-.52-2.255V115.46c0-.395-.1-.612-.248-.694-.08-.042-.178-.05-.288-.03-.132.024-.276.087-.424.185-.532.355-1.037 1.106-1.037 1.983h-.002l.002 21.328c0 1.134-.357 2.37-.933 3.45-.577 1.076-1.373 2.003-2.254 2.523l-.034.018c-.48.278-.944.41-1.365.41-.35 0-.67-.09-.95-.26-.277-.165-.514-.412-.696-.73-.268-.46-.42-1.076-.42-1.816v-21.599l.002-.102c-.002-.01-.002-.024-.002-.038v-8.952c0-2.52.797-5.273 2.084-7.68 1.29-2.41 3.073-4.477 5.037-5.62z" fill="#B3B4B4"/></g></g></svg>