<svg width="182" height="240" viewBox="0 0 182 240" xmlns="http://www.w3.org/2000/svg"><title>Group 6</title><g fill="none" fill-rule="evenodd"><path d="M161.094 126.546l6.485-3.66c2.348-1.325 4.5-3.52 6.076-5.988 1.553-2.432 2.522-5.073 2.533-7.333l.16-47.49c.005-.865-.14-1.577-.403-2.136-.216-.455-.522-.795-.9-1.014-.043-.024-.088-.054-.13-.082L102.83 17.17c-.094-.042-.185-.092-.272-.146-.476-.228-1.09-.31-1.815-.228-.903.103-1.944.46-3.073 1.1l-6.693 3.776v64.34l70.117 40.534zm8.678.26l-7.593 4.28c-.67.373-1.51.396-2.22-.017L87.75 89.324c-.748-.365-1.265-1.13-1.265-2.023V20.54h.006c0-.384.097-.772.303-1.127l.102-.18c.196-.372.497-.695.89-.916l7.69-4.338c1.66-.938 3.28-1.476 4.775-1.644 1.664-.188 3.186.08 4.476.765.053.025.103.055.154.084l.126.072-.003.005 72.102 41.68c.107.052.21.107.31.177l.052.034c1.08.67 1.943 1.638 2.53 2.877.538 1.136.83 2.5.823 4.065l-.157 47.492c-.017 3.128-1.254 6.616-3.236 9.72-1.955 3.066-4.667 5.813-7.655 7.5z" fill="#B3B4B4"/><path d="M97.376 62.718l.03-6.305 62.916 39.164 15.85-38.593-72.288-41.788-.125-.072c-1.774-.985-4.343-.79-7.186.813l-7.69 4.338-.152.263v30.088l-8.7 31.646 7.592-4.283c5.34-3.013 9.726-9.883 9.752-15.272" fill="#FFF"/><path d="M105.838 67.772l.03-6.305.003-.503.424.265 53.936 21.228 15.553-25.375-71.993-41.62h-.002l-.123-.07c-.85-.47-1.904-.656-3.095-.523-1.163.13-2.456.57-3.816 1.34l-7.622 4.3-.076.13v66.207L96.23 82.8c2.628-1.483 5.025-3.92 6.77-6.65 1.74-2.725 2.827-5.74 2.838-8.378zm.587-5.804l-.026 5.807c-.015 2.746-1.134 5.863-2.93 8.675-1.79 2.806-4.257 5.31-6.966 6.84l-7.59 4.282-.418.236V20.564l.038-.14.153-.26.104-.106 7.693-4.338c1.427-.807 2.792-1.266 4.028-1.405 1.124-.127 2.143.01 3.013.386v-.037l.42.242.128.075 72.243 41.76.25.146-.15.244-15.854 25.86-.147.24-.24-.147-53.748-21.115z" fill="#B3B4B4"/><path d="M33.3 109.29v49.435c0 3.357 1.132 5.755 2.915 6.795v.002l.01.003.004.003 81.106 46.796c1.495.92 3.487.886 5.616-.356l29.682-17.325c4.61-2.692 8.45-9.883 8.45-16.055V129.13l-81.05-46.857L33.3 109.29" fill="#FFF"/><path d="M23.205 127.424v48.14c0 1.337.208 2.453.58 3.317.308.723.718 1.243 1.196 1.527.053.03.105.06.154.096l72.383 41.753c.123.056.24.12.347.195.352.19.767.278 1.23.25.594-.04 1.268-.262 1.997-.687l50.42-29.313c1.944-1.133 3.763-3.295 5.113-5.86 1.362-2.592 2.214-5.547 2.214-8.253V130.42L88.43 89.716l-65.225 37.708zm-4.49 48.14v-49.433h.005c0-.772.402-1.525 1.118-1.94L87.29 85.196c.674-.398 1.537-.43 2.262-.01l72.513 41.92c.748.364 1.264 1.134 1.264 2.023v49.458c0 3.437-1.054 7.134-2.74 10.34-1.724 3.274-4.15 6.086-6.833 7.655l-50.42 29.313c-1.35.787-2.69 1.202-3.963 1.282-1.445.092-2.784-.245-3.94-.954v-.003L22.952 184.41c-.13-.06-.254-.13-.37-.212-1.25-.782-2.25-1.985-2.92-3.542-.61-1.413-.947-3.13-.947-5.09z" fill="#B3B4B4"/><path d="M21.256 126.18v49.433c0 3.364 1.133 5.755 2.917 6.796l.01.005L92.96 222.2c2.188 1.266 3.646 1.9 6.04 2.16l26.27-21.595c4.644-2.657 8.45-9.883 8.45-16.054v-41.42l-39.705 22.044-72.76-41.153" fill="#F6F6F6"/><path d="M21.348 126.342v49.16c0 1.614.264 2.99.74 4.095.48 1.124 1.18 1.96 2.038 2.46l.008.006.002.002.01.004h.004l.003.003 72.882 42.16.66-3.23.027-.123.11-.064 27.3-18.298c2.274-1.3 4.35-3.73 5.858-6.597 1.51-2.87 2.45-6.173 2.45-9.213v-40.934l-39.286 22.14-.14.078-.14-.078-72.526-41.57zm-.452 49.608l.023.277-.132-.724c0 1.69.28 3.143.783 4.314l-.194-1.08.204.82.386.734-.393-.472c.444 1.042 1.066 1.877 1.823 2.435.14.105.29.2.444.286l-.37-.446.048.013.32.432h.004l.015.01.66.382L97.09 224.91l.336.195.08-.38.714-3.484 27.187-18.233c2.372-1.356 4.523-3.87 6.078-6.825 1.552-2.947 2.516-6.342 2.516-9.473v-41.907l-.418.244-39.567 22.3-72.808-41.73-.42-.245v50.13l.11.448z" fill="#B3B4B4"/><path d="M94.177 167.632v49.343c0 6.154 3.816 9.038 8.45 6.39l50.006-28.725c4.633-2.65 8.45-9.884 8.45-16.055V129.13L94.33 167.72l-.153-.088" fill="#FFF"/><path d="M94.382 168.013v49.005c0 1.95.39 3.557 1.07 4.746.432.76.983 1.35 1.625 1.747.637.396 1.37.6 2.17.6.97 0 2.04-.302 3.166-.947l50.082-28.767c2.27-1.298 4.347-3.73 5.855-6.6 1.51-2.87 2.452-6.174 2.452-9.212v-48.968l-66.41 38.39-.01.007zm-.562 49.005v-49.83l.42.244.012.006 66.69-38.552.42-.243v49.94c0 3.13-.966 6.525-2.516 9.472-1.557 2.958-3.71 5.472-6.076 6.828l-50.082 28.767c-1.213.694-2.38 1.023-3.444 1.023-.902 0-1.733-.236-2.46-.687-.726-.447-1.342-1.103-1.823-1.944-.723-1.274-1.14-2.975-1.14-5.024z" fill="#B3B4B4"/><path fill="#EBECEB" d="M88.3 87.052l72.784 42.077-66.896 38.496-72.633-41.99L88.3 87.052"/><path fill="#CBCCCB" d="M126.13 108.92l34.954 20.21-66.896 38.496-10.42-6.024-7.797-54.792 50.16 2.11"/><path fill="#FFFFFE" d="M49.644 114.064l.007-4.317-28.158 16.2 72.662 41.965 66.797-38.54-22.52-13.015-2.086 2.87 16.002 9.9-58.247 33.68-54.34-30.936-10.822-5.504 20.706-12.302"/><path fill="#E3E4E2" d="M148.106 121.95l-9.676-5.593-2.086 2.87 7.956 4.922 3.806-2.2"/><path d="M88.488 86.84l72.734 42.046c.135.077.18.25.103.383-.027.043-.062.08-.103.1L94.35 168.02c-.098.057-.212.05-.297-.01L21.09 126.03c-.133-.077-.178-.247-.1-.38.023-.045.058-.08.1-.103L88.21 86.84c.09-.053.196-.05.28 0zm72.033 42.288L88.35 87.404l-66.56 38.384 72.423 41.668 66.31-38.328z" fill="#B3B4B4"/><path d="M178.426 109.573l.16-47.49c.023-5.39-4.334-7.324-9.66-4.32l-7.69 4.34-.152.26v66.765l7.592-4.284c5.337-3.01 9.724-9.88 9.75-15.27" fill="#FFF"/><path d="M178.146 109.573l.16-47.493c.007-1.32-.258-2.424-.743-3.283-.395-.7-.936-1.24-1.594-1.605-.662-.37-1.447-.56-2.32-.565-1.35-.006-2.917.44-4.588 1.38l-7.894 4.45-.077.135.003 66.207 7.446-4.198c2.626-1.483 5.025-3.922 6.768-6.652 1.74-2.726 2.825-5.74 2.838-8.377zm.72-47.49l-.16 47.49c-.014 2.75-1.134 5.868-2.928 8.678-1.79 2.805-4.256 5.31-6.966 6.84l-7.86 4.434-.417.235V62.513l.037-.14.152-.262.105-.102 7.96-4.49c1.754-.99 3.415-1.456 4.864-1.45.966.004 1.843.22 2.588.634.747.415 1.363 1.027 1.81 1.82.528.94.82 2.135.814 3.56z" fill="#B3B4B4"/><path fill="#FFFFFE" d="M88.82 87.352V20.588l72.264 41.777v66.764L88.82 87.35"/><path d="M157.076 127.196l-4.87-2.805 4.87 2.806zm0 0v-62.85L91.63 26.387l.282 17.432 46.13 71.667 12.82 8.13 6.214 3.58z" fill="#EBECEB"/><path d="M94.225 47.41l43.818 68.075 10.27 6.516V86.894c0-4.366-2.662-9.49-5.918-11.388L94.225 47.41" fill="#CBCCCB"/><path d="M157.46 127.033l-.56-.323V64.345L91.895 26.63v62.52l-.56-.325v-62.68c0-.158.125-.282.28-.282.058 0 .112.018.158.048l65.547 38.03c.088.053.138.146.138.244v62.85" fill="#B3B4B4"/><path d="M88.39 87.267V20.502c0-.156.124-.28.28-.28.056 0 .11.016.155.048l72.13 41.852c.086.052.136.145.136.243l.003 66.764c0 .153-.127.28-.28.28-.06 0-.114-.017-.157-.05L88.53 87.51c-.093-.053-.14-.15-.14-.243zm.56-66.28v66.12l71.584 41.536V62.526L88.95 20.986z" fill="#B3B4B4"/><path d="M60.666 167.145l-9.292-5.405-3.054 2.167 2.134 4.648 3.268 10.043 2.636 3.278c3.77-2.25 4.223-2.755 4.308-5.998v-8.733" fill="#EBECEB"/><path d="M60.245 167.39l-8.848-5.15-2.55 1.81 1.972 4.29 3.24 10.003 2.395 2.985c1.642-.987 2.582-1.62 3.1-2.328.53-.723.65-1.596.69-3.122v-8.49zm-8.66-6.015l9.267 5.392c.14.068.236.212.236.377v8.734h-.003v.01c-.045 1.712-.193 2.71-.852 3.61-.636.87-1.72 1.58-3.64 2.73-.18.12-.424.084-.56-.088l-2.637-3.278-.016-.02-3.268-10.044h.002c-.015-.022-.03-.046-.04-.07l-2.128-4.63c-.094-.182-.04-.413.132-.534l3.054-2.168c.13-.09.305-.106.454-.02z" fill="#B3B4B4"/><path d="M57.612 169.045l-9.29-5.138v9.864c0 7.865 9.29 11.506 9.29 5.338v-10.063" fill="#F6F6F6"/><path d="M57.19 169.292l-8.45-4.67v9.15c0 3.515 1.94 6.14 4 7.333.6.346 1.21.57 1.778.655.54.08 1.04.03 1.454-.156.73-.333 1.218-1.138 1.218-2.497v-9.815zm-8.668-5.753l9.268 5.122c.143.067.242.215.242.38v10.065c0 1.74-.687 2.797-1.714 3.264-.563.257-1.225.326-1.92.222-.672-.1-1.384-.36-2.078-.762-2.277-1.318-4.42-4.206-4.42-8.06v-9.865c0-.068.02-.138.054-.202.108-.2.365-.276.568-.164zM136.344 119.227l16.704 9.66c.135.076.18.248.102.382-.027.043-.062.08-.102.1l-58.81 34.002c-.098.055-.213.047-.297-.013l-65-36.992c-.134-.077-.18-.248-.103-.382.025-.043.06-.08.102-.102l9.332-5.326v.64l-8.634 4.927 64.46 36.68 58.248-33.677-16.002-9.252v-.65" fill="#B3B4B4"/><path d="M125.1 55.456l-67.794-39.54c-1.478-.86-2.83-.916-3.872-.31l-4.116 2.546.007.01c-1.507.564-2.495 2.357-2.495 5.01v34.543l51.487 45.808 32.7-.903V66.843c.002-4.365-2.664-9.49-5.917-11.387" fill="#FFF"/><path d="M122.346 58.307l-67.952-39.54c-.426-.247-.802-.378-1.118-.403-.206-.018-.382.015-.513.09l-.048.03-3.83 2.36c-.082.064-.173.124-.267.177-.104.06-.21.108-.316.15-.22.083-.43.314-.61.67-.268.542-.422 1.295-.422 2.24V86.96l58.445 38.543 21.436-12.35V67.754c0-1.816-.57-3.82-1.485-5.58-.89-1.713-2.07-3.14-3.32-3.866zM56.643 14.884l67.95 39.54c2.014 1.17 3.804 3.257 5.06 5.675 1.235 2.362 2 5.107 2 7.652v47.674h-.006c0 .368-.386.36-.56.45-.19.1-.184.288-.56.506l-23.67 13.64c-.677.4-1.542.43-2.27.01L44.033 90.27c-.75-.366-1.265-1.133-1.265-2.023V24.08c0-1.656.324-3.094.897-4.242.637-1.273 1.577-2.204 2.74-2.73l3.956-2.438c.05-.035.1-.068.154-.098.93-.54 1.983-.78 3.113-.69.973.08 1.99.407 3.016 1.002z" fill="#B3B4B4"/><path d="M123.283 56.366L55.49 16.826c-1.478-.86-2.832-.918-3.873-.31L47.5 19.06l1.7 3.13v65.65c0 .572.047 1.157.135 1.747l57.925 39.572 21.942-12.684V67.752c0-4.364-2.664-9.49-5.92-11.386" fill="#F6F6F6"/><path d="M123.673 56.608l-68.267-39.54c-.69-.4-1.35-.617-1.958-.666-.613-.048-1.176.076-1.656.355l-3.912 2.4 1.584 2.896.035.136V92.34c0 .28.01.56.032.837.02.242.046.487.078.732l56.45 35.817 23.432-13.415V67.752c0-2.137-.658-4.463-1.718-6.49-1.058-2.017-2.51-3.734-4.1-4.654zM55.69 16.583l68.265 39.54c1.688.976 3.216 2.774 4.32 4.88 1.1 2.103 1.782 4.52 1.782 6.75v48.882l-.142.08-23.715 13.58-.14.08-.14-.08L49.21 94.33l-.118-.07-.02-.135c-.044-.3-.08-.607-.102-.906-.023-.3-.037-.596-.037-.88V22.255l-1.675-3.062-.128-.23.227-.142 4.146-2.545.006-.005c.583-.336 1.253-.485 1.983-.428.69.055 1.427.297 2.197.74z" fill="#B3B4B4"/><path d="M118.726 59.136l-67.792-39.54c-3.256-1.9-5.92.122-5.92 4.485V90.4L96.5 120.22l15.788 6.03 12.355-7.142V70.522c0-4.365-2.663-9.49-5.92-11.386" fill="#FFF"/><path d="M45.013 40.82v34.67l11.897 6.788c3.975 2.268 7.243.858 7.265-3.134l.11-20.046c.024-3.99-3.21-9.114-7.185-11.38l-12.087-6.9" fill="#F6F6F6"/><path d="M118.846 59.38L50.814 19.837c-.79-.46-1.538-.675-2.21-.675-.534 0-1.022.136-1.447.396-.43.26-.8.652-1.095 1.157-.486.83-.765 1.97-.765 3.365v67.934l64.552 35.428 14.795-8.495V70.52c0-2.136-.657-4.463-1.715-6.49-1.052-2.02-2.498-3.733-4.084-4.653zm-67.75-40.026l68.03 39.538c1.682.978 3.206 2.775 4.303 4.882 1.097 2.1 1.778 4.52 1.778 6.748v48.747l-.142.08-15.08 8.66-.137.08-.142-.08-64.835-35.59-.14-.083V24.08c0-1.495.308-2.73.842-3.646.343-.586.78-1.045 1.29-1.355.514-.316 1.1-.48 1.737-.48.77 0 1.614.243 2.494.754z" fill="#B3B4B4"/><path d="M52.965 26.624c1.61.934 2.914 3.312 2.914 5.306 0 1.993-1.305 2.85-2.915 1.916-1.607-.936-2.91-3.313-2.91-5.306 0-1.996 1.303-2.852 2.91-1.916" fill="#ED4C6F"/><path d="M61.094 31.405c1.61.934 2.913 3.31 2.913 5.305 0 1.994-1.304 2.853-2.913 1.916-1.61-.936-2.91-3.31-2.91-5.305 0-1.995 1.3-2.853 2.91-1.915" fill="#2EBCE3"/><path d="M44.873 35.44c-.132-.078-.176-.248-.1-.382.078-.134.25-.18.383-.103l79.63 46.35c.134.078.18.25.102.383-.08.133-.25.18-.384.1l-79.63-46.35" fill="#B3B4B4"/><path d="M69.232 36.45c1.61.937 2.914 3.313 2.914 5.31 0 1.993-1.304 2.85-2.914 1.914-1.607-.936-2.91-3.312-2.91-5.307 0-1.994 1.303-2.852 2.91-1.916" fill="#F4B728"/><path d="M68.24 78.83l10.133 5.995v2.458L68.24 81.287V78.83zm45.253 16.134v-2.458L68.24 65.86v2.46l45.253 26.644zm0-6.27v-2.46L68.24 59.525v2.457l45.253 26.713zM68.24 72.455l21.123 12.35v2.457L68.24 74.915v-2.46z" fill="#CDCDCD"/><path d="M129.593 84.97L102.58 69.058c-3.334-1.965-6.302-2.06-8.127-.61l-4.525 3.6v.003c-1.675.81-2.704 2.61-2.704 5.245v24.93c0 5.52 4.512 12.695 10.025 15.94l9.275 5.467 14.752 23.46 5.914-3.42v-8.308c2.084.586 3.883.338 5.148-.638h.002l5.154-3.977v-.002c1.33-.92 2.123-2.59 2.123-4.906v-24.93c0-5.52-4.51-12.694-10.024-15.942" fill="#FFFFFE"/><path d="M128.48 86.87l-27.013-15.913c-1.33-.784-2.552-1.2-3.602-1.277-.854-.064-1.552.11-2.04.496l-4.526 3.6c-.138.11-.283.2-.436.27-.41.205-.748.542-.984 1.005-.29.558-.447 1.31-.447 2.245v24.93c0 2.344.996 5.1 2.6 7.65 1.642 2.61 3.883 4.952 6.328 6.392l9.277 5.465c.316.184.568.437.75.725l14.048 22.34 2.547-1.964v-7.47c0-1.22.99-2.21 2.21-2.21.253 0 .496.043.723.123.692.18 1.32.232 1.87.164.484-.06.894-.215 1.208-.46l5.018-3.868c.104-.094.216-.178.332-.25.296-.23.538-.553.713-.96.23-.53.355-1.217.355-2.06v-24.93c0-2.344-.997-5.1-2.6-7.65-1.643-2.61-3.886-4.952-6.33-6.392zm-24.787-19.712l27.013 15.912c3.067 1.808 5.838 4.678 7.83 7.845 2.03 3.227 3.29 6.82 3.29 9.997v24.93c0 1.43-.26 2.706-.734 3.803-.523 1.208-1.3 2.173-2.28 2.87l-5.126 3.955c-.962.74-2.1 1.2-3.366 1.357-.3.037-.607.057-.92.06v4.51l-10.03 5.798-14.425-22.94-8.81-5.188c-3.066-1.808-5.837-4.678-7.828-7.844-2.03-3.228-3.29-6.82-3.29-9.998v-24.93c0-1.648.337-3.08.947-4.266.647-1.257 1.588-2.212 2.758-2.84l4.36-3.467c1.372-1.092 3.126-1.595 5.11-1.447 1.688.127 3.56.74 5.5 1.882z" fill="#2EBCE3"/><path d="M129.593 84.97L102.58 69.058c-3.334-1.965-6.302-2.06-8.127-.61l-4.525 3.6 2.628 5.453v20.62c0 5.52 4.51 12.693 10.024 15.94l8.696 5.124 10.2 27.792 5.715-3.304v-12.084l5.15 3.138 5.154-3.977v-.002c1.33-.92 2.123-2.59 2.123-4.906v-24.93c0-5.52-4.51-12.694-10.024-15.942" fill="#DBEEF7"/><path d="M129.466 85.187l-27.014-15.913c-1.6-.942-3.11-1.445-4.44-1.545-1.356-.102-2.523.218-3.4.916l-4.37 3.477 2.54 5.268c.017.037.026.074.026.11v20.62c0 2.712 1.113 5.84 2.905 8.688 1.797 2.858 4.273 5.434 6.994 7.037l8.697 5.122c.052.03.09.078.108.13l10.186 27.75-.442.257-10.185-27.75-8.618-5.076c-2.79-1.645-5.327-4.28-7.164-7.2-1.842-2.93-2.985-6.15-2.985-8.958V77.557L89.7 72.16c-.05-.104-.023-.233.07-.308l4.537-3.607c.98-.775 2.262-1.128 3.74-1.018 1.405.104 2.99.63 4.66 1.614l27.014 15.913c2.792 1.644 5.328 4.28 7.165 7.202 1.842 2.927 2.985 6.15 2.985 8.957v24.93c0 1.17-.2 2.185-.566 3.03-.382.883-.946 1.58-1.653 2.075l-5.15 3.973c-.08.067-.197.08-.292.022l-4.764-2.905v11.49l-.655.378.15-.116v-12.202c0-.14.11-.252.25-.252.053 0 .102.016.142.044l4.99 3.04 5.045-3.89c.63-.44 1.134-1.064 1.476-1.856.338-.78.52-1.73.52-2.832v-24.93c0-2.713-1.11-5.84-2.903-8.69-1.797-2.856-4.273-5.432-6.994-7.035" fill="#2EBCE3"/><path d="M124.263 89.077L97.25 73.163c-5.514-3.247-10.026-1.388-10.026 4.132v24.93c0 5.52 4.512 12.695 10.025 15.94l9.275 5.467 14.752 23.46.583-.337v-14.09l2.403 1.414c5.513 3.247 10.023 1.387 10.023-4.133v-24.93c0-5.52-4.51-12.693-10.023-15.94" fill="#FFFFFE"/><path d="M124.134 89.294L97.122 73.38c-1.8-1.06-3.484-1.563-4.927-1.563-.872 0-1.653.184-2.315.54-.66.353-1.204.878-1.607 1.564-.51.872-.796 2.005-.796 3.375v24.93c0 2.713 1.114 5.84 2.905 8.69 1.798 2.856 4.274 5.432 6.994 7.035l9.277 5.464c.036.02.065.05.085.082l14.756 23.47-.435.25-14.716-23.4-9.222-5.433c-2.793-1.643-5.328-4.28-7.165-7.2-1.84-2.928-2.985-6.15-2.985-8.958v-24.93c0-1.46.31-2.68.868-3.63.45-.766 1.064-1.354 1.803-1.752.738-.397 1.598-.6 2.552-.6 1.528 0 3.3.525 5.18 1.634L124.39 88.86c2.79 1.644 5.328 4.28 7.165 7.2 1.84 2.93 2.983 6.15 2.983 8.958v24.93c0 1.46-.31 2.68-.866 3.628-.45.767-1.064 1.357-1.804 1.755-.737.396-1.6.6-2.55.6-1.53 0-3.303-.526-5.184-1.634l-2.022-1.19v13.502l-.504.292v-14.236c0-.14.113-.252.252-.252.054 0 .103.017.145.047l2.384 1.403c1.798 1.06 3.484 1.563 4.927 1.563.872 0 1.653-.185 2.315-.54.658-.353 1.203-.88 1.606-1.565.512-.87.796-2.002.796-3.373v-24.93c0-2.71-1.114-5.838-2.906-8.69-1.795-2.856-4.272-5.43-6.994-7.033" fill="#2EBCE3"/><path d="M123.048 116.377l-14.734-8.752v2.46l14.734 8.752v-2.46zm-27.52-20.36V93.56l27.52 16.22v2.46l-27.52-16.222zm0-6.272v-2.458l27.52 16.156v2.46l-27.52-16.158z" fill="#A5E2F2"/><path d="M47.51 91.756l11.475-6.636c.08-.04.158-.085.233-.133l.073-.042v-.006c1.004-.677 1.61-1.914 1.62-3.624l.11-20.047c.02-3.992-3.21-9.114-7.186-11.383L38.298 41.02c-3.06-1.746-4.597-1.1-6.99.283l-9.634 5.57L35.92 68.585l11.59 23.17" fill="#0086B3"/><path d="M19.428 70.844l.11-20.046c.023-3.99 3.292-5.4 7.266-3.133l15.536 8.868c3.974 2.268 7.21 7.39 7.186 11.382l-.11 20.045c-.023 3.992-3.293 5.403-7.266 3.133l-15.536-8.866c-3.975-2.27-7.21-7.39-7.186-11.383" fill="#2EBCE3"/><path d="M29.02 56.288c-2.087-1.214-3.776-.103-3.776 2.483 0 2.588 1.69 5.67 3.777 6.883 2.086 1.214 3.777.102 3.777-2.485 0-2.586-1.69-5.667-3.776-6.88M40.87 82.547l-11.134-6.48c-1.077-.61-1.08-1.752.102-3.204.89-1.094 3.194-3.963 4.578-5.556.99-1.14 2.262-1.258 3.057.168 1.316 2.365 4.195 8.584 5.787 12.435.76 1.878.343 4.23-2.39 2.637" fill="#F6F6F6"/><path d="M105.044 143.078v2.938c0 2.553-.812 3.464-2.666 4.616l-4.357 2.707c-2.415 1.89-5.532.164-7.783-1.137v5.805h-9.49l-9.452-14.93h33.75M90.237 158.375v2.412l-.172.338-5.095 3.19-.26-.048-3.757-5.934.205-.325h8.75l.33.367" fill="#FFFFFE"/><path d="M103.853 115.24c.754 1.677 1.19 3.383 1.19 4.936v22.902H71.296l-1.824-2.88-25.115-14.52c-3.707-2.142-6.86-6.46-7.862-10.44h67.36" fill="#FFFFFE"/><path d="M49.786 80.025l47.06 27.206c2.958 1.71 5.565 4.807 7.007 8.01h-67.36c-.218-.86-.334-1.704-.334-2.507v-25.84c0-2.168.623-3.345 2.385-4.445l4.91-3.074c1.507-.962 3.79-.818 6.33.65" fill="#FFFFFE"/><path d="M48.806 82l46.946 27.14c1.233.71 2.41 1.726 3.446 2.91.275.315.54.643.792.98H38.37l-.004-.297v-25.84c0-.72.078-1.228.265-1.578.183-.34.532-.652 1.08-.994l5.01-3.137c.337-.184.797-.254 1.35-.196.76.077 1.644.387 2.612.946l.124.066zm43.64 78.787v-2.412h-.01c0-.043 0-.086-.003-.128.008-.078.012-.16.012-.24v-2.248c.348.13.706.245 1.07.34 1.932.508 3.93.432 5.757-.948l4.262-2.647c1.2-.745 2.085-1.448 2.735-2.48.668-1.066.98-2.294.98-4.01v-25.84c0-.92-.13-1.895-.37-2.898-.227-.943-.552-1.888-.958-2.81-.034-.09-.074-.178-.12-.26-.813-1.775-1.948-3.52-3.294-5.058-1.336-1.53-2.894-2.862-4.566-3.828l-46.94-27.135-.112-.07c-1.524-.88-3.01-1.376-4.372-1.517-1.53-.156-2.923.128-4.08.818l-.147.083-4.91 3.073c-1.213.76-2.058 1.585-2.63 2.653-.564 1.054-.8 2.22-.8 3.667v25.84c0 .457.04.96.11 1.503.065.49.155.963.262 1.41.017.093.04.184.068.27.594 2.257 1.77 4.583 3.31 6.628 1.535 2.037 3.457 3.832 5.55 5.043l.002-.006 24.637 14.245 1.487 2.35c.033.057.07.113.105.166l9.35 14.766c.05.09.107.173.167.25.027.056.057.11.09.16l3.756 5.93c.32.51.846.887 1.486.998l.258.047c.516.088 1.065-.003 1.544-.303l5.024-3.144c.362-.206.67-.518.874-.917l.126-.25c.182-.32.287-.692.287-1.09zm-5.093-.568l-1.857 1.162-.735-1.163h2.593zm15.482-14.93v.726c0 .837-.092 1.343-.292 1.66-.218.346-.667.676-1.32 1.08l-4.36 2.71c-.07.042-.135.09-.2.14-.556.433-1.288.428-2.043.228-1.077-.282-2.27-.957-3.28-1.54-1.05-.61-2.4-.25-3.008.804-.202.348-.298.73-.296 1.105h-.007v3.595h-6.07l-6.653-10.508h27.528zm-.48-27.84c.096.293.178.58.248.864.15.63.232 1.255.232 1.862v20.69H72.507l-1.173-1.85c-.235-.37-.56-.646-.927-.818l-24.95-14.425.002-.002c-1.57-.906-3.04-2.29-4.24-3.885-.587-.78-1.104-1.602-1.532-2.435h62.666z" fill="#E94C6D"/><path d="M44.355 83.425l47.06 27.205c4.51 2.606 8.196 8.43 8.196 12.945v25.84c0 4.513-3.687 6.075-8.195 3.47l-6.61-3.822v15.353l-15.334-24.218-25.115-14.52c-4.508-2.606-8.196-8.432-8.196-12.945v-25.84c0-4.514 3.687-6.075 8.195-3.468" fill="#FFFFFE"/><path d="M44.48 83.207l47.06 27.206c2.29 1.323 4.37 3.46 5.876 5.838 1.51 2.386 2.448 5.02 2.448 7.325v25.84c0 1.193-.25 2.193-.703 2.976-.377.655-.892 1.158-1.518 1.498-.62.336-1.348.51-2.152.51-1.244 0-2.68-.417-4.2-1.297l-6.232-3.6v14.916c0 .14-.113.254-.252.254-.095 0-.175-.05-.22-.127l-15.296-24.16-25.06-14.487c-2.292-1.323-4.373-3.46-5.876-5.84-1.51-2.384-2.448-5.018-2.448-7.323v-25.84c0-1.193.25-2.194.704-2.978l.01-.016c.375-.645.887-1.143 1.505-1.48.622-.335 1.35-.51 2.155-.51 1.243 0 2.678.418 4.2 1.297zm46.81 27.64L44.23 83.644c-1.44-.833-2.79-1.228-3.95-1.228-.723 0-1.37.154-1.916.45-.54.292-.986.727-1.312 1.29l-.007.013c-.407.706-.634 1.622-.634 2.725v25.84c0 2.21.908 4.746 2.37 7.052 1.463 2.314 3.483 4.394 5.7 5.674l25.098 14.51c.042.018.08.05.106.093l14.868 23.483v-14.483c.002-.042.012-.086.036-.125.07-.12.222-.163.343-.094l6.61 3.82c1.44.834 2.79 1.23 3.95 1.23.722 0 1.37-.155 1.915-.45.544-.295.992-.733 1.32-1.303.407-.705.634-1.62.634-2.725v-25.84c0-2.208-.908-4.746-2.37-7.052-1.465-2.316-3.484-4.394-5.7-5.675z" fill="#E94C6D"/><path d="M49.786 80.025l47.06 27.206c4.51 2.607 8.198 8.432 8.198 12.946v25.84c0 1.99-.718 3.405-1.907 4.143l-5.116 3.18c1-.783 1.59-2.117 1.59-3.925v-25.84c0-4.514-3.686-10.34-8.195-12.945l-47.06-27.205c-2.526-1.46-4.795-1.612-6.302-.67l5.402-3.38c1.507-.963 3.79-.82 6.33.65zm47.58 73.72l-.005.003.005-.003zm-7.13-1.542v8.814l-5.43 3.4v-15.354l5.43 3.14z" fill="#F4C5C3"/><path d="M64.195 120.765L43.25 108.422v2.458l20.945 12.344v-2.46zm-20.877-16.52v-2.458l45.25 26.473v2.458l-45.25-26.472zm0-6.272v-2.458l45.25 26.406v2.46L43.32 97.972z" fill="#F4C5C3"/><path d="M49.66 80.242l47.063 27.207c2.216 1.28 4.235 3.358 5.7 5.673 1.46 2.307 2.367 4.843 2.367 7.053v25.84c0 .94-.164 1.743-.464 2.396-.308.668-.758 1.184-1.32 1.532l-3.796 2.36c.084-.154.16-.316.23-.484.274-.68.424-1.484.424-2.405v-25.84c0-2.306-.938-4.94-2.448-7.324-1.505-2.376-3.585-4.514-5.876-5.837L44.48 83.207c-1.27-.734-2.482-1.147-3.57-1.262-.368-.04-.72-.044-1.06-.017l3.74-2.34c.72-.46 1.634-.65 2.68-.545 1.024.106 2.175.498 3.39 1.2zm47.312 26.77l-47.06-27.204c-1.278-.74-2.497-1.154-3.592-1.265-1.158-.12-2.182.097-2.997.618l-5.672 3.55.367.365.17-.104c.72-.452 1.63-.635 2.67-.524 1.023.11 2.166.5 3.372 1.197l47.06 27.205c2.216 1.28 4.235 3.36 5.7 5.675 1.462 2.306 2.37 4.844 2.37 7.052v25.84c0 .855-.137 1.597-.388 2.216-.256.632-.633 1.14-1.107 1.51l.287.412 5.39-3.347-.01-.01c.525-.39.95-.918 1.25-1.572.332-.72.514-1.595.514-2.607v-25.84c0-2.306-.94-4.94-2.447-7.324-1.508-2.377-3.587-4.516-5.878-5.84zm.524 46.948l.006-.003-.13-.22.167-.167-.168.166-.125-.213-.306.163.386.384.17-.11zm-7.51-1.613v8.53l-4.928 3.083V149.5l4.927 2.847zm.503 8.67v-8.96l-5.938-3.43v16.245l5.937-3.716v-.14z" fill="#E94C6D"/><path d="M129.557 159.935c2.012-1.16 3.93-1.71 5.66-1.71 1.368 0 2.623.344 3.715 1 1.088.654 2.012 1.618 2.73 2.86 1.06 1.843 1.664 4.3 1.664 7.27 0 4.682-1.497 9.784-3.92 14.248-2.423 4.466-5.78 8.304-9.494 10.45-2.018 1.167-3.942 1.72-5.677 1.72-1.37 0-2.622-.344-3.716-1-1.09-.655-2.014-1.618-2.73-2.86-1.062-1.842-1.665-4.3-1.665-7.27 0-4.68 1.497-9.783 3.918-14.246 2.425-4.467 5.78-8.305 9.492-10.45l.022-.012zm5.66-.95c-1.605 0-3.393.514-5.284 1.603l-.02.01c-3.59 2.078-6.846 5.808-9.207 10.16-2.363 4.355-3.825 9.328-3.825 13.885 0 2.837.568 5.167 1.564 6.895.65 1.126 1.483 2 2.462 2.587.973.583 2.097.89 3.33.89 1.608 0 3.404-.52 5.3-1.615 3.59-2.076 6.847-5.806 9.208-10.16 2.363-4.355 3.827-9.328 3.827-13.885 0-2.837-.567-5.167-1.562-6.894-.65-1.126-1.484-2-2.463-2.586-.974-.585-2.097-.89-3.33-.89z" fill="#C8C8C8"/><path d="M129.95 166.86c3.48-2.012 6.408-.477 7.26 3.407l-3.218 1.86c-.72-1.636-2.26-2.165-4.04-1.135-2.473 1.43-4.478 5.32-4.478 8.69 0 3.37 2.005 4.944 4.477 3.515 1.694-.98 3.17-3.112 3.93-5.443l3.267-1.89c-.924 4.76-3.796 9.5-7.196 11.465-4.145 2.396-7.508-.242-7.508-5.894s3.363-12.178 7.51-14.577" fill="#C8C8C8"/></g></svg>