<svg xmlns="http://www.w3.org/2000/svg" id="Layer_1" data-name="Layer 1" viewBox="0 0 182 240"><defs><style>.cls-1{fill:#b3b4b4}.cls-2{fill:#fff}.cls-3{fill:#f6f6f6}.cls-5{fill:#fffffe}.cls-6{fill:#ebeceb}.cls-8{fill:#ed4c6f}.cls-9{fill:#2ebce3}.cls-10{fill:#98ca3c}.cls-16{fill:#dbeef7}.cls-17{fill:#f4b728}.cls-19{fill:#c9e7f2}</style></defs><path d="M161.36 129.68l6.5-3.66a18.23 18.23 0 0 0 6.09-6 14.52 14.52 0 0 0 2.53-7.33l.16-47.49a4.92 4.92 0 0 0-.4-2.14 2.23 2.23 0 0 0-.9-1l-.13-.09L103 20.3a1.17 1.17 0 0 1-.27-.15 3.47 3.47 0 0 0-1.82-.22A8.22 8.22 0 0 0 97.84 21l-6.71 3.8v64.34l70.23 40.53zm8.69.26l-7.6 4.28a2.25 2.25 0 0 1-2.22 0L87.9 92.46a2.26 2.26 0 0 1-1.26-2V23.67a2.33 2.33 0 0 1 .3-1.13l.11-.18a2.22 2.22 0 0 1 .89-.91l7.7-4.34a12.5 12.5 0 0 1 4.78-1.64 7.68 7.68 0 0 1 4.49.76l.15.08.13.08 72.21 41.68a1.92 1.92 0 0 1 .31.18 6.67 6.67 0 0 1 2.54 2.88 9.25 9.25 0 0 1 .82 4.06l-.15 47.5a19.1 19.1 0 0 1-3.24 9.72 22.88 22.88 0 0 1-7.67 7.5z" class="cls-1"/><path d="M97.54 65.85v-6.31l63 39.17 15.88-38.6-72.36-41.78-.12-.08c-1.78-1-4.35-.79-7.2.82L89 23.41l-.15.26v30.09L80.17 85.4l7.61-4.28c5.35-3 9.74-9.88 9.77-15.27" class="cls-2"/><path d="M106 70.9v-6.81l.43.27 54 21.23 15.58-25.38L104 18.59l-.13-.07a5.17 5.17 0 0 0-3.1-.52 10.2 10.2 0 0 0-3.82 1.34l-7.63 4.3-.08.13V90l7.19-4a20.2 20.2 0 0 0 6.78-6.65A16.44 16.44 0 0 0 106 70.9zm.59-5.8v5.8a17 17 0 0 1-2.93 8.68 20.81 20.81 0 0 1-7 6.84l-7.6 4.28-.42.24V23.56l.15-.27.1-.1 7.71-4.34a10.69 10.69 0 0 1 4-1.4 5.93 5.93 0 0 1 3 .38l.42.25.13.07 72.36 41.76.25.15-16 26.1-.15.24-.24-.15-53.76-21.15z" class="cls-1"/><path d="M23.25 130.55v48.15a8.47 8.47 0 0 0 .58 3.31 3.17 3.17 0 0 0 1.2 1.53l.16.09 72.5 41.76a1.86 1.86 0 0 1 .34.19 2.27 2.27 0 0 0 1.23.25 4.68 4.68 0 0 0 2-.69l50.5-29.31a14.78 14.78 0 0 0 5.12-5.86 18.36 18.36 0 0 0 2.21-8.25v-48.17l-70.51-40.7-65.33 37.7zm-4.5 48.15v-49.44a2.24 2.24 0 0 1 1.12-1.94l67.56-39a2.25 2.25 0 0 1 2.27 0l72.63 41.92a2.23 2.23 0 0 1 1.26 2v49.46a22.85 22.85 0 0 1-2.74 10.34 19.37 19.37 0 0 1-6.84 7.65L103.52 229a9.07 9.07 0 0 1-4 1.29 6.67 6.67 0 0 1-4-1L23 187.54a1.72 1.72 0 0 1-.37-.22 7.68 7.68 0 0 1-2.93-3.54 13 13 0 0 1-.94-5.09z" class="cls-1"/><path d="M21.3 129.31v49.43c0 3.37 1.14 5.76 2.92 6.8l68.89 39.78a13.65 13.65 0 0 0 6 2.16l26.31-21.59c4.65-2.66 8.47-9.89 8.47-16.06v-41.41l-39.71 22.05-72.88-41.15" class="cls-3"/><path d="M133.81 148.18l-39.63 22.3-72.93-41.73-.42-.25v50.13l.11.45v.28l-.13-.73a10.86 10.86 0 0 0 .79 4.32l-.2-1.08.21.82.38.73-.39-.47a5.76 5.76 0 0 0 1.82 2.43c.15.11.3.2.45.29l-.37-.44h.05l.32.43.66.38 72.69 42 .33.2.08-.38.72-3.49 27.23-18.23a16.91 16.91 0 0 0 6.09-6.83 21 21 0 0 0 2.52-9.47v-41.9zm-.15 41.66a20.42 20.42 0 0 1-2.45 9.21 16.32 16.32 0 0 1-5.87 6.6L98 224l-.11.06-.69 3.35-73-42.16a5.13 5.13 0 0 1-2.05-2.46 10.51 10.51 0 0 1-.74-4.1v-49.22L94 171l.14.08.14-.08 39.35-22.14z" class="cls-1"/><path d="M94.34 170.76v49.35c0 6.15 3.82 9 8.46 6.39l50.09-28.73c4.64-2.65 8.46-9.88 8.46-16.05v-49.46l-66.86 38.59-.15-.09" class="cls-2"/><path d="M94.54 171.14v49a9.53 9.53 0 0 0 1.07 4.74 4.77 4.77 0 0 0 1.63 1.75 4 4 0 0 0 2.18.6 6.4 6.4 0 0 0 3.17-1l50.16-28.76a16.39 16.39 0 0 0 5.87-6.6 20.46 20.46 0 0 0 2.45-9.22v-49l-66.51 38.49zm-.56 49v-49.82l.42.24L161.21 132l.42-.25v49.95a21 21 0 0 1-2.52 9.47A16.87 16.87 0 0 1 153 198l-50.17 28.77a6.92 6.92 0 0 1-3.45 1 4.62 4.62 0 0 1-2.46-.68 5.39 5.39 0 0 1-1.83-2 10.19 10.19 0 0 1-1.14-5z" class="cls-1"/><path fill="#cecece" d="M88.45 90.18l72.9 42.08-67 38.5-72.75-42 66.85-38.58"/><path d="M49.73 117.2v-4.32l-28.2 16.2 72.78 42 66.9-38.53-8.77-5.57L94.22 166l-54.39-31L29 129.5l20.74-12.3" class="cls-5"/><path d="M88.64 90l72.85 42a.28.28 0 0 1 .11.38.35.35 0 0 1-.11.1l-67 38.65a.29.29 0 0 1-.3 0l-73.07-42a.28.28 0 0 1-.11-.38.27.27 0 0 1 .11-.1L88.36 90a.28.28 0 0 1 .28 0zm72.15 42.29L88.5 90.54l-66.66 38.38 72.53 41.66 66.42-38.32z" class="cls-1"/><path d="M178.72 112.71l.16-47.49c0-5.39-4.34-7.33-9.67-4.32l-7.7 4.33-.16.26v66.77L169 128c5.34-3 9.74-9.89 9.76-15.27" class="cls-2"/><path d="M178.44 112.7l.16-47.49a6.58 6.58 0 0 0-.74-3.28 4.2 4.2 0 0 0-1.6-1.61 4.71 4.71 0 0 0-2.32-.56 9.51 9.51 0 0 0-4.6 1.38l-7.9 4.45-.08.13v66.21l7.46-4.2a20.2 20.2 0 0 0 6.78-6.65 16.47 16.47 0 0 0 2.84-8.38zm.72-47.49l-.16 47.5a17 17 0 0 1-2.93 8.67 20.69 20.69 0 0 1-7 6.84l-7.88 4.44-.42.23V65.5l.15-.26.11-.1 8-4.49a10 10 0 0 1 4.87-1.45 5.38 5.38 0 0 1 2.6.63 4.72 4.72 0 0 1 1.81 1.82 7.21 7.21 0 0 1 .82 3.56z" class="cls-1"/><path d="M89 90.48V23.72l72.35 41.78v66.76L89 90.48" class="cls-5"/><path d="M157.34 130.33l-4.88-2.81zm0 0V67.48l-65.55-38L92.07 47l21.79 26.21 37.25 53.59z" class="cls-6"/><path fill="#e3e4e3" d="M157.34 130.33l-4.88-2.81zm0 0V104l-36.86-21.33 30.63 44.08z"/><path d="M157.72 130.17l-.56-.33V67.48L92.05 29.76v62.52l-.56-.28V29.28a.29.29 0 0 1 .28-.29.28.28 0 0 1 .16.05l65.65 38a.3.3 0 0 1 .14.25v62.85" class="cls-1"/><path d="M88.54 90.4V23.63a.29.29 0 0 1 .28-.28.3.3 0 0 1 .16 0l72.24 41.85a.3.3 0 0 1 .14.25v66.76a.28.28 0 0 1-.28.28.25.25 0 0 1-.15 0L88.68 90.64a.28.28 0 0 1-.14-.24zm.56-66.28v66.12l71.7 41.53V65.66L89.1 24.12z" class="cls-1"/><path d="M141.29 68.79l-67.9-39.54a3.76 3.76 0 0 0-3.88-.31l-4.12 2.54c-1.51.57-2.5 2.36-2.5 5v34.57l51.57 45.8 32.75-.9V80.17c0-4.36-2.67-9.49-5.93-11.38" class="cls-2"/><path d="M138.53 71.64L70.47 32.1a2.58 2.58 0 0 0-1.12-.4.82.82 0 0 0-.51.09L65 34.18l-.27.17a2.3 2.3 0 0 1-.32.15 1.31 1.31 0 0 0-.61.67 5.09 5.09 0 0 0-.43 2.24v52l58.54 38.54 21.47-12.35V81.08a12.61 12.61 0 0 0-1.48-5.58 9.62 9.62 0 0 0-3.33-3.86zm-65.8-43.42l68.06 39.54a14 14 0 0 1 5.06 5.67 17 17 0 0 1 2 7.66v35.77a2.22 2.22 0 0 1-1.12 1.94L123 132.44a2.25 2.25 0 0 1-2.27 0L60.1 92.69a2.25 2.25 0 0 1-1.27-2V37.41a9.39 9.39 0 0 1 .9-4.24 5.72 5.72 0 0 1 2.74-2.73l4-2.44.16-.1a5.29 5.29 0 0 1 3.12-.68 7 7 0 0 1 3 1z" class="cls-1"/><path d="M139.47 69.7l-67.9-39.54a3.76 3.76 0 0 0-3.88-.31l-4.12 2.54 1.7 3.13v54.74a11.67 11.67 0 0 0 .14 1.74l58 39.57 22-12.69v-37.8c0-4.36-2.67-9.49-5.93-11.38" class="cls-3"/><path d="M139.86 69.94L71.49 30.4a4.77 4.77 0 0 0-2-.67 2.87 2.87 0 0 0-1.66.36L64 32.49l1.58 2.9V95.6c0 .24.05.49.08.73l56.54 35.82 23.47-13.42V81.08a14.5 14.5 0 0 0-1.67-6.49 11.57 11.57 0 0 0-4.11-4.65zm-68.09-40l68.38 39.54a12 12 0 0 1 4.32 4.88 15 15 0 0 1 1.79 6.75v38l-.14.08-23.76 13.58-.14.07-.14-.08-56.8-36-.12-.07v-.14c0-.3-.08-.6-.1-.9s0-.6 0-.88V35.59l-1.68-3.06-.12-.23.23-.15 4.15-2.54a3.36 3.36 0 0 1 2-.43 5.12 5.12 0 0 1 2.2.74z" class="cls-1"/><path d="M134.91 72.47L67 32.93c-3.26-1.9-5.93.12-5.93 4.48v55.41l51.57 29.82 15.81 6 12.38-7.14V83.85c0-4.36-2.67-9.49-5.93-11.38" class="cls-2"/><path d="M61.08 54.72v37.1l51.57 29.82 2.47.94V94.21c0-4.36-2.67-9.48-5.93-11.38L61.08 54.72" class="cls-3"/><path d="M135 72.71L66.89 33.17a4.46 4.46 0 0 0-2.22-.68 2.77 2.77 0 0 0-1.45.4 3.14 3.14 0 0 0-1.09 1.16 6.63 6.63 0 0 0-.77 3.36v57L126 129.86l14.82-8.49V83.85a14.5 14.5 0 0 0-1.72-6.49 11.47 11.47 0 0 0-4.1-4.65zm-67.86-40l68.14 39.54a12.2 12.2 0 0 1 4.31 4.88 15 15 0 0 1 1.78 6.75v37.84l-.14.08-15.1 8.66-.14.08-.14-.08-64.91-35.62-.14-.08V37.41a7.15 7.15 0 0 1 .84-3.64 3.76 3.76 0 0 1 1.29-1.36 3.34 3.34 0 0 1 1.74-.48 5 5 0 0 1 2.5.76z" class="cls-1"/><path d="M68.82 40.27a6.71 6.71 0 0 1 2.92 5.3c0 2-1.31 2.85-2.92 1.92a6.73 6.73 0 0 1-2.92-5.31c0-2 1.31-2.85 2.92-1.91" class="cls-8"/><path d="M77 45.05a6.71 6.71 0 0 1 2.92 5.3c0 2-1.31 2.86-2.92 1.92A6.73 6.73 0 0 1 74 47c0-2 1.31-2.85 2.92-1.91" class="cls-9"/><path d="M60.94 48.77a.27.27 0 0 1-.1-.38.28.28 0 0 1 .38-.1L141 94.64a.28.28 0 1 1-.28.48L60.94 48.77" class="cls-1"/><path d="M141.49 95a.28.28 0 0 1-.28-.49l4.19-2.42a.28.28 0 0 1 .29.49l-4.2 2.42" class="cls-1"/><path d="M85.11 50.1A6.71 6.71 0 0 1 88 55.4c0 2-1.31 2.85-2.92 1.92A6.73 6.73 0 0 1 82.2 52c0-2 1.3-2.85 2.91-1.91" class="cls-10"/><path d="M103.52 119.62a.27.27 0 0 1-.38-.1.28.28 0 0 1 .1-.38l4.19-2.42a.29.29 0 0 1 .39.1.28.28 0 0 1-.11.38l-4.19 2.42" class="cls-1"/><path d="M60.77 170.28l-9.3-5.41-3.06 2.13 2.14 4.65 3.27 10 2.64 3.35c3.77-2.25 4.23-2.76 4.31-6v-8.73" class="cls-6"/><path d="M60.35 170.52l-8.86-5.15-2.55 1.81 2 4.29 3.25 10 2.4 3a10.78 10.78 0 0 0 3.1-2.33 5.2 5.2 0 0 0 .69-3.12zm-8.67-6L61 169.9a.42.42 0 0 1 .24.38V179a5.86 5.86 0 0 1-.85 3.61 12.25 12.25 0 0 1-3.65 2.73.42.42 0 0 1-.56-.09L53.49 182l-3.27-10a.25.25 0 0 1 0-.07l-2.22-4.7a.42.42 0 0 1 .13-.54l3.06-2.16a.41.41 0 0 1 .45 0z" class="cls-1"/><path d="M57.72 172.18L48.41 167v9.86c0 7.87 9.31 11.51 9.31 5.34v-10.02" class="cls-3"/><path d="M57.29 172.42l-8.46-4.67v9.15a8.45 8.45 0 0 0 4 7.34 5.15 5.15 0 0 0 1.78.65 2.56 2.56 0 0 0 1.45-.16 2.45 2.45 0 0 0 1.22-2.49v-9.82zm-8.68-5.75l9.28 5.12a.43.43 0 0 1 .25.39v10.06a3.25 3.25 0 0 1-1.72 3.26 3.36 3.36 0 0 1-1.93.22 5.86 5.86 0 0 1-2.08-.76A9.27 9.27 0 0 1 48 176.9V167a.54.54 0 0 1 0-.21.42.42 0 0 1 .57-.16z" class="cls-1"/><path fill="#c71e4e" d="M120.26 97.87H68.7v31.54a5.16 5.16 0 0 0 2.57 4.34c5.64 2.92 28.73 16.48 28.73 16.48l16-38.56 4.27-2.47V97.87"/><path fill="#0086b3" d="M152.45 118.67h-51.57v12.55l7.91 17.44 11.95 2.45 31.71-18.3v-14.14"/><path fill="#5eab11" d="M121.27 139.54H69.7v12.58L94.22 166 117 153.37l4.28-2.47v-11.36"/><path fill="#3ec9f0" d="M131.51 105l19.17 10.91c2.66 1.51 2.3 4.19-.79 6l-17.6 10c-3.09 1.76-7.79 2-10.45.45l-19.18-10.91c-2.66-1.51-2.3-4.19.79-6l17.6-10c3.09-1.76 7.8-2 10.46-.45"/><path d="M99.32 84.15l19.17 10.91c2.66 1.51 2.31 4.19-.79 6l-17.6 10c-3.09 1.76-7.79 2-10.45.45l-19.17-10.95c-2.66-1.51-2.31-4.19.78-6l17.6-10c3.1-1.76 7.8-2 10.46-.45" class="cls-8"/><path d="M100.31 126l19.18 11c2.65 1.51 2.3 4.19-.79 6l-17.6 10c-3.09 1.76-7.8 2-10.45.45l-19.18-11c-2.66-1.52-2.3-4.19.79-5.95l17.6-10c3.09-1.76 7.79-2 10.45-.45" class="cls-10"/><path d="M152.45 131.52l.86.5a.28.28 0 0 1 .1.38.27.27 0 0 1-.11.1l-58.9 34a.27.27 0 0 1-.3 0l-65.1-37a.28.28 0 0 1-.11-.38.29.29 0 0 1 .11-.12l45-25.79v.64l-44.35 25.4 64.57 36.68 58.34-33.68-.15-.09v-.65" class="cls-1"/><path fill="#c8c8c8" d="M131.85 172.36l-1.35.74-1.06.58-1.34.74a4.85 4.85 0 0 0-2.27 3.84v5.66c0 1.35.91 2 2.06 1.45v8.3a1 1 0 0 0 1.55.92l1.06-.59a3.32 3.32 0 0 0 1.55-2.63v-8.29a4.91 4.91 0 0 0 2.06-3.72v-5.66a1.4 1.4 0 0 0-2.27-1.34zm9.66-3.58l-2 1.13-1.14.63a4.12 4.12 0 0 0-1.94 3.28v4.82c0 1.15.78 1.67 1.76 1.24V187a.82.82 0 0 0 1.32.78l.91-.5a2.84 2.84 0 0 0 1.32-2.24v-7.08a4.19 4.19 0 0 0 1.76-3.17v-4.83c0-1.21-.87-1.73-1.94-1.14zm-1.7-6a4.39 4.39 0 0 0-2.06 3.5c0 1.3.92 1.85 2.06 1.22a4.39 4.39 0 0 0 2.06-3.49c0-1.31-.92-1.85-2.06-1.23zm-10 1.86a5.43 5.43 0 0 0-2.54 4.31c0 1.6 1.14 2.28 2.54 1.5a5.41 5.41 0 0 0 2.54-4.3c0-1.61-1.14-2.28-2.54-1.51zM120 173.7a4.51 4.51 0 0 0-2.12 3.59c0 1.34.95 1.91 2.12 1.26a4.51 4.51 0 0 0 2.12-3.59c0-1.34-1-1.91-2.12-1.26zm1.7 6.26l-1.14.63-.91.5-1.15.63a4.15 4.15 0 0 0-1.93 3.28v4.82c0 1.15.78 1.68 1.76 1.24v7.08a.82.82 0 0 0 1.32.79l.91-.5a2.84 2.84 0 0 0 1.32-2.24v-7.08a4.21 4.21 0 0 0 1.76-3.18v-4.82a1.21 1.21 0 0 0-1.94-1.15z"/><path d="M120.53 115.7l2.91-1.51c1.4-.72 1.39-.82-.06-1.53a7.09 7.09 0 0 0-5.69 0c-1 .51-2 1-3 1.55-1.25.67-1.54 1.7-.65 2.49a6.63 6.63 0 0 0 1.23.77 1.73 1.73 0 0 0 1.81 0zM137.45 120a1.73 1.73 0 0 0-1.81 0l-3.45 1.78-2.91 1.51c-1.4.72-1.39.82.06 1.53a7.09 7.09 0 0 0 5.69 0c1-.51 2-1 3-1.55 1.25-.67 1.54-1.7.65-2.49a6.63 6.63 0 0 0-1.23-.78zM136.15 113.25a21.44 21.44 0 0 0-12.56-1.25c.46.23.89.47 1.37.69a1.24 1.24 0 0 0 .56.06c7.42-.84 14 2.53 12.35 6.39a.21.21 0 0 0 0 .27c.45.26.94.5 1.43.75 1.5-1.83 1.26-4.79-3.15-6.91zM124.57 123.83a7.68 7.68 0 0 0-.81-.42c-.33-.15-.41-.28-.27-.51.39-.67-.17-1.38-1.27-1.74a5.49 5.49 0 0 0-3.65.1c-1 .43-1.37 1.18-.88 1.81a3.52 3.52 0 0 0 3.09 1 3 3 0 0 1 2.19.45l.64.33a7 7 0 0 0 4.71.24l-1.21-.81a3.66 3.66 0 0 1-2.54-.45z" class="cls-2"/><path d="M55.7 111.28l-8.44 5.85V106a4.48 4.48 0 0 0-2.34-3.91v17.26a1.18 1.18 0 0 0 .63 1 1.18 1.18 0 0 0 1.21-.08l13.56-9.38c-2.24-1.25-3.32-.48-4.62.39z" class="cls-9"/><path d="M106 96.85a6.4 6.4 0 0 0-2.42-2.74 13.74 13.74 0 0 0-5.14-2 19.64 19.64 0 0 0-4.16-.37 18.56 18.56 0 0 0-4.59.61 12.85 12.85 0 0 0-4.5 2.09 6.42 6.42 0 0 0-2 2.41 4.34 4.34 0 0 0-.35 1.75 6.14 6.14 0 0 0 1.91 3.59 9.79 9.79 0 0 0 3 1.81 17.16 17.16 0 0 0 5.2 1.21 19.44 19.44 0 0 0 5.23-.25 14 14 0 0 0 5.55-2.17 6.67 6.67 0 0 0 2.22-2.48 4 4 0 0 0 .05-3.46zm-15-2a3.37 3.37 0 0 1 3 0 .92.92 0 0 1 0 1.73 3.33 3.33 0 0 1-3 0 .91.91 0 0 1-.09-1.69zm5 7.56a2.65 2.65 0 0 1-1 .33 10.72 10.72 0 0 1-4.35-.35 7.57 7.57 0 0 1-1.69-.69 4 4 0 0 1-1.75-1.86 2 2 0 0 1 0-1.61 1.21 1.21 0 0 1 .58-.61.73.73 0 0 1 .67 0 7.6 7.6 0 0 1 .89.58c.52.41 1 .84 1.52 1.26a10.35 10.35 0 0 0 2.4 1.34l2.42 1a1.71 1.71 0 0 1 .44.26c.1.09.07.22-.13.35zm4.79-1.87a3.26 3.26 0 0 1-3 0c-.8-.44-.92-1.19-.07-1.71a3.23 3.23 0 0 1 3 0c.78.43.9 1.17.07 1.71zM100.4 135.24a11.93 11.93 0 0 0-9.41.44c-1.53.85-2.31 1.89-2.37 3.12a3.17 3.17 0 0 1-1.32 2.27c-.39.32-.34.69.13 1l1.63.94 1.66 1a1.86 1.86 0 0 0 1.6.08 11.24 11.24 0 0 1 4.12-.79 9.18 9.18 0 0 0 6-2c2.3-2.07 1.39-4.66-2.04-6.06zM88.23 143.47l-1.83-1.06a1.29 1.29 0 0 0-1.25 0c-.23.12-.45.25-.66.38s-.53.52-.29.8.07.39-.13.57l-.07.08c-.27.27-.21.53.17.76l1.1.63c.88.52 1 .53 2.11.16a.75.75 0 0 1 .47 0 2.11 2.11 0 0 0 1.57-.14l.54-.31c.51-.3.52-.56 0-.85zM87.87 134.74a1.27 1.27 0 0 0 1.2 0c.34-.2.33-.49 0-.7l-1-.6-1-.59a1.32 1.32 0 0 0-1.22 0c-.34.19-.34.5 0 .71zM105.5 143.6l-1-.6a1.28 1.28 0 0 0-1.19 0c-.35.2-.36.49 0 .71.68.41 1.38.81 2.08 1.21a1.31 1.31 0 0 0 1.22 0c.32-.19.3-.49 0-.69zM104.5 134.72l2-1.17c.36-.22.38-.52.06-.71a1.32 1.32 0 0 0-1.25 0l-1 .59-1 .59c-.37.22-.39.52 0 .72a1.34 1.34 0 0 0 1.19-.02zM96.18 144.69c-.44 0-.83.19-.84.44v1.83c0 .2.21.34.54.41a1.35 1.35 0 0 0 1-.14c0-.06.16-.17.16-.27v-1.82c-.04-.26-.42-.44-.86-.45zM96.16 133c.47 0 .84-.21.85-.49v-1.72c0-.12-.12-.25-.15-.31a1.34 1.34 0 0 0-1-.15c-.34.08-.52.24-.52.45v1.73c0 .32.37.49.82.49zM110.1 138.38H107a.82.82 0 0 0-.73.32c-.11.19 0 .36.19.54a2.55 2.55 0 0 0 .55.11h3.09c.46 0 .79-.23.79-.49s-.35-.47-.79-.48zM85.8 139.27c.32-.2.4-.38.28-.57a.88.88 0 0 0-.79-.32h-3c-.49 0-.85.22-.84.49s.36.48.86.48h2.94a2.72 2.72 0 0 0 .55-.08z" class="cls-2"/><path d="M38.9 57.3c.21-.16 2.09-1.42 2.34-1.61 1.62-1.2 2.6-1.06 4.19-.15L82.83 77a8.33 8.33 0 0 1 3.48 6.62v32.56a4.68 4.68 0 0 1-2 4.22c-1 .66-2.2 1.46-2.89 1.8h-.78a.87.87 0 0 1-.23 0h-.94l-38-21.8h-.05l-.16-.1-.07-.06h-.05l-.06-.06V100.03a8.66 8.66 0 0 1-1.11-4V60.15a3 3 0 0 1 1.32-2.85" class="cls-16"/><path d="M37 56.37a3.74 3.74 0 0 1 .87-.67l2.2-1.5a5.34 5.34 0 0 1 3.25-1.24 5.9 5.9 0 0 1 3 1l37.4 21.46A8.8 8.8 0 0 1 87 78.89a10.47 10.47 0 0 1 1.25 4.73v32.56a7.62 7.62 0 0 1-.61 3.12 6 6 0 0 1-2.31 2.7l-.56.37c-.86.56-1.75 1.14-2.41 1.49a2.53 2.53 0 0 1-.36.14 5.89 5.89 0 0 1-.59.21 5.13 5.13 0 0 1-.77.12h-.22c-.23 0-.47 0-.7-.07l-.45-.1h-.25c-.12-.06-.29-.11-.43-.17l-.32-.16-.11-.06c-8.66-5-21.46-11.56-31.19-17.62-2.86-1.78-5.61-3.09-7.73-4.84l-.16-.15-.09-.09-.06-.06-.08-.08-.07-.06a.76.76 0 0 1-.09-.09 10 10 0 0 1-1-1.18l-.12-.17-.15-.23-.22-.37-.2-.28a11.49 11.49 0 0 1-1-2.42 9.68 9.68 0 0 1-.36-2.5V60.15a6.1 6.1 0 0 1 .53-2.59 4.33 4.33 0 0 1 .83-1.19zM41.25 58l-.43.29v.2l-1.08.51-.07.13a2.62 2.62 0 0 0-.16 1v33.5a5.6 5.6 0 0 0 .21 1.5 7.76 7.76 0 0 0 .66 1.59c0 .09.11.19.16.29l.06.09.06.1.25.35.28.34.09.1.08.07.15.14.16.13.2.13s34.87 20 38 21.83a1.93 1.93 0 0 0 .4.15l.13-.07c.45-.21 1.3-.78 2.12-1.31l.56-.37a2.3 2.3 0 0 0 .88-1 4 4 0 0 0 .28-1.6V83.62a6.61 6.61 0 0 0-.8-3 4.94 4.94 0 0 0-1.71-2L44.47 57.19a2.7 2.7 0 0 0-1.11-.46 2 2 0 0 0-1 .5l-1.11.77z" class="cls-9"/><path d="M81.39 122.2L44.84 97.91c-1.84-1.22-3.29-7.09-3.49-9.62l-2.45-31c.21-.15 2.09-1.41 2.34-1.6 1.63-1.2 2.61-1.06 4.19-.15L82.83 77a8.33 8.33 0 0 1 3.48 6.62v32.56a4.68 4.68 0 0 1-2 4.22c-1 .66-2.2 1.46-2.89 1.8" class="cls-16"/><path d="M81.21 122.46L44.66 98.17a7.77 7.77 0 0 1-2.44-2.88c-.65-1.24-1.08-5.65-1.19-7l-2.46-31.14.13-.15 1.3-.84 1.07-.72a3.81 3.81 0 0 1 2.3-.93 4.44 4.44 0 0 1 2.24.75L83 76.73a7.19 7.19 0 0 1 2.58 2.89 9 9 0 0 1 1.06 4v32.56a6.31 6.31 0 0 1-.47 2.49 4.42 4.42 0 0 1-1.7 2l-.57.37c-.87.57-1.78 1.17-2.36 1.46l-.17.07-.15-.1zM45 97.65l36.4 24.18c.55-.29 1.36-.82 2.13-1.33l.57-.37a3.86 3.86 0 0 0 1.46-1.72 5.44 5.44 0 0 0 .42-2.23V83.62a8.16 8.16 0 0 0-1-3.7 6.54 6.54 0 0 0-2.33-2.64L45.27 55.81a4.06 4.06 0 0 0-1.92-.67 3.27 3.27 0 0 0-1.92.81l-1.08.74-1.11.76 2.43 30.82c.1 1.24.51 5.56 1.12 6.72A7.14 7.14 0 0 0 45 97.65z" class="cls-9"/><path d="M48.17 66.38a8.84 8.84 0 0 1 3.87 7c0 2.64-1.73 3.77-3.87 2.53a8.86 8.86 0 0 1-3.87-7c0-2.63 1.73-3.76 3.87-2.52" class="cls-17"/><path fill="#ebf4f7" d="M79.06 122.05l-38-21.8a8.33 8.33 0 0 1-3.49-6.62V60.15c0-2.54 1.57-3.72 3.49-2.62l38 21.81A8.28 8.28 0 0 1 82.54 86v33.48c0 2.54-1.56 3.72-3.48 2.62"/><path d="M78.9 122.33l-38-21.81a7.24 7.24 0 0 1-2.59-2.9 8.88 8.88 0 0 1-1.06-4V60.15a4.4 4.4 0 0 1 .52-2.15 2.37 2.37 0 0 1 .81-.85 2.13 2.13 0 0 1 1.11-.31 3.12 3.12 0 0 1 1.54.46l38 21.8A7.15 7.15 0 0 1 81.8 82a8.8 8.8 0 0 1 1.07 4v33.47a4.35 4.35 0 0 1-.51 2.19 2.49 2.49 0 0 1-.81.86 2.12 2.12 0 0 1-1.11.3 3.1 3.1 0 0 1-1.54-.45zM41.23 100l38 21.81a2.44 2.44 0 0 0 1.21.37 1.48 1.48 0 0 0 .78-.22 1.72 1.72 0 0 0 .59-.63 3.67 3.67 0 0 0 .42-1.87V86a8.35 8.35 0 0 0-1-3.7 6.62 6.62 0 0 0-2.34-2.64l-38-21.8a2.5 2.5 0 0 0-1.22-.37 1.44 1.44 0 0 0-.77.21 1.82 1.82 0 0 0-.6.63 3.81 3.81 0 0 0-.42 1.87v33.43a8.33 8.33 0 0 0 1 3.7 6.56 6.56 0 0 0 2.35 2.67z" class="cls-9"/><path d="M37.9 64.39v23.24l16.47 19.88 10.38 6V85.12c0-2.73-1.67-5.94-3.71-7.13L37.9 64.39" class="cls-19"/><path d="M54.37 87.78l18.4 10.68v2.44l-18.4-10.68v-2.44zm0-5.93l18.4 10.68V95l-18.4-10.7zm0 12.37L64 99.79v2.45l-9.61-5.58z" class="cls-9"/><path d="M8.81 63.1c.21-.16 2.1-1.43 2.35-1.61 1.65-1.22 2.63-1.08 4.23-.16L53.11 83c1.93 1.1 3.51 4.11 3.51 6.67v29.81a4.73 4.73 0 0 1-2 4.25c-1 .67-2.22 1.48-2.92 1.82h-1.66L11 103.39h-.05l-.15-.11-.07-.06-.06-.06V102.99a8.67 8.67 0 0 1-1.12-4.05V66a3 3 0 0 1-.73-2.9" class="cls-16"/><path d="M6.87 62.17a3.54 3.54 0 0 1 .88-.67L10 59.94a5.41 5.41 0 0 1 3.28-1.25 6 6 0 0 1 3.07 1l37.72 21.62a8.9 8.9 0 0 1 3.23 3.56 10.52 10.52 0 0 1 1.26 4.77v29.81a7.77 7.77 0 0 1-.62 3.15 6 6 0 0 1-2.31 2.71l-.56.37c-.87.56-1.77 1.15-2.43 1.5a2.69 2.69 0 0 1-.38.19c-.21.09-.39.13-.6.21a5.06 5.06 0 0 1-.78.12h-.22c-.23 0-.48 0-.7-.07l-.46-.1h-.25l-.44-.18a3.34 3.34 0 0 1-.33-.17h-.11c-8.74-5-21.64-11.66-31.45-17.78-2.89-1.79-5.66-3.12-7.8-4.88l-.16-.14-.1-.09-.06-.06-.14-.23H8.6l-.09-.1a9.47 9.47 0 0 1-1-1.19l-.13-.17-.15-.24-.22-.37-.11-.19a11.14 11.14 0 0 1-1-2.44 9.37 9.37 0 0 1-.37-2.52V66a6.2 6.2 0 0 1 .53-2.61 4.41 4.41 0 0 1 .8-1.2zm4.31 1.64l-.43.29v.21l-1.09.52a.41.41 0 0 0-.07.13 2.44 2.44 0 0 0-.17 1v30.76a5.63 5.63 0 0 0 .22 1.51 7.11 7.11 0 0 0 .66 1.6c0 .1.11.2.16.3v.08l.06.1c.08.13.16.23.25.35l.29.34.09.1v.06l.08.07.15.14.17.13.21.13 38.35 22a1.74 1.74 0 0 0 .4.15l.13-.07c.45-.22 1.31-.79 2.14-1.33l.56-.37a2.34 2.34 0 0 0 .89-1 4.06 4.06 0 0 0 .28-1.61V89.65a6.76 6.76 0 0 0-.8-3 5.11 5.11 0 0 0-1.73-2L14.42 63a2.73 2.73 0 0 0-1.12-.46 2 2 0 0 0-1 .5l-1.14.79z" class="cls-9"/><path d="M51.65 125.53L14.79 101a9.52 9.52 0 0 1-3.51-6.68L8.81 63.1c.21-.16 2.1-1.43 2.35-1.61 1.65-1.22 2.64-1.08 4.23-.16L53.11 83c1.93 1.1 3.51 4.11 3.51 6.67v29.81a4.73 4.73 0 0 1-2 4.25c-1 .67-2.22 1.48-2.91 1.82" class="cls-16"/><path d="M51.47 125.79L14.61 101.3a7.9 7.9 0 0 1-2.45-2.91 10.44 10.44 0 0 1-1.2-4L8.47 63l.14-.11c.11-.09.72-.5 1.29-.89s1-.65 1.07-.73a3.9 3.9 0 0 1 2.32-.94 4.59 4.59 0 0 1 2.26.76L53.27 82.7a7.18 7.18 0 0 1 2.6 2.92 8.92 8.92 0 0 1 1.07 4v29.81a6.2 6.2 0 0 1-.47 2.51 4.52 4.52 0 0 1-1.72 2l-.57.37c-.88.58-1.8 1.18-2.38 1.47l-.17.08-.15-.11zm-36.5-25l36.71 24.39c.55-.3 1.37-.83 2.15-1.34l.57-.38a3.88 3.88 0 0 0 1.48-1.73 5.56 5.56 0 0 0 .41-2.25V89.65a8.28 8.28 0 0 0-1-3.73 6.52 6.52 0 0 0-2.36-2.66l-37.7-21.65a4 4 0 0 0-1.94-.68 3.32 3.32 0 0 0-1.93.81l-1.09.75-1.12.77 2.45 31.08a9.86 9.86 0 0 0 1.13 3.75 7.25 7.25 0 0 0 2.27 2.68z" class="cls-9"/><path d="M18.16 72.26a9 9 0 0 1 3.9 7.07c0 2.65-1.74 3.79-3.9 2.55a8.94 8.94 0 0 1-3.91-7.07c0-2.65 1.75-3.79 3.91-2.55" class="cls-17"/><path d="M49.31 125.38L11 103.39a8.38 8.38 0 0 1-3.51-6.67V66c0-2.56 1.58-3.75 3.51-2.64l38.32 22a8.38 8.38 0 0 1 3.5 6.64v30.74c0 2.56-1.58 3.75-3.51 2.64" class="cls-5"/><path d="M49.15 125.66l-38.32-22a7.25 7.25 0 0 1-2.6-2.92 9 9 0 0 1-1.07-4V66a4.46 4.46 0 0 1 .51-2.21 2.51 2.51 0 0 1 .82-.86 2.14 2.14 0 0 1 1.12-.31 3.18 3.18 0 0 1 1.55.46l38.31 22a7.28 7.28 0 0 1 2.6 2.92 8.78 8.78 0 0 1 1.08 4v30.73a4.35 4.35 0 0 1-.52 2.21 2.34 2.34 0 0 1-.82.86 2.13 2.13 0 0 1-1.11.31 3.15 3.15 0 0 1-1.55-.46zm-38-22.55l38.31 22a2.42 2.42 0 0 0 1.22.38 1.45 1.45 0 0 0 .78-.22 1.74 1.74 0 0 0 .6-.63 3.75 3.75 0 0 0 .43-1.89V92a8.24 8.24 0 0 0-1-3.73 6.57 6.57 0 0 0-2.35-2.66l-38.32-22a2.5 2.5 0 0 0-1.22-.37 1.45 1.45 0 0 0-.78.21 1.74 1.74 0 0 0-.6.63A3.8 3.8 0 0 0 7.8 66v30.72a8.3 8.3 0 0 0 1 3.73 6.52 6.52 0 0 0 2.36 2.66z" class="cls-9"/><path d="M30.93 110.48l-2.13 2.8-2.74.57-10.52 7.28v-12.6l-.89-3.37.89-2.68h14.77l.62 8z" class="cls-5"/><path d="M24.49 113.58L16.63 119v-10.35a4.17 4.17 0 0 0-2.18-3.65v16.1a1.08 1.08 0 0 0 .58 1 1.14 1.14 0 0 0 .51.13 1.11 1.11 0 0 0 .62-.2l12.64-8.75c-2.09-1.28-3.12-.52-4.31.3z" class="cls-9"/><path d="M16.16 84.62l28.29 16.47v2.44L16.16 87.07v-2.45zm0-5.93l28.29 16.47v2.44L16.16 81.14zm0 12.37l19.5 11.37v2.44L16.16 93.5z" class="cls-19"/></svg>