<?xml version="1.0" encoding="utf-8"?>
<!-- Generator: Adobe Illustrator 23.0.3, SVG Export Plug-In . SVG Version: 6.00 Build 0)  -->
<svg version="1.1" id="Layer_1" xmlns="http://www.w3.org/2000/svg" xmlns:xlink="http://www.w3.org/1999/xlink" x="0px" y="0px"
	 viewBox="0 0 182 240" style="enable-background:new 0 0 182 240;" xml:space="preserve">
<style type="text/css">
	.st0{fill-rule:evenodd;clip-rule:evenodd;fill:#B3B4B4;}
	.st1{fill-rule:evenodd;clip-rule:evenodd;fill:#FFFFFF;}
	.st2{fill-rule:evenodd;clip-rule:evenodd;fill:#F6F6F6;}
	.st3{fill-rule:evenodd;clip-rule:evenodd;fill:#DADCDD;}
	.st4{fill-rule:evenodd;clip-rule:evenodd;fill:#EBECEB;}
	.st5{fill:#FFFFFF;}
	.st6{fill:#6E2CC4;}
	.st7{fill:#A06CE3;}
	.st8{fill:#FCB218;}
	.st9{fill:#93CE11;}
	.st10{fill:#FFFFFF;stroke:#6E2CC4;stroke-width:3.5;stroke-linecap:round;stroke-linejoin:round;stroke-miterlimit:10;}
	.st11{fill:#DBD0F7;}
	.st12{fill:#FFFFFF;stroke:#6E2CC4;stroke-width:0.6;stroke-linecap:round;stroke-linejoin:round;stroke-miterlimit:10;}
	.st13{fill:#5BAA00;}
	.st14{fill:#DB7F1D;}
	.st15{fill:#C8C8C8;}
</style>
<path class="st0" d="M161.111,129.125l6.52-3.68c2.48-1.49,4.58-3.54,6.11-6c1.5-2.18,2.38-4.72,2.55-7.36l0.16-44.05
	c0.02-0.74-0.12-1.47-0.41-2.15c-0.19-0.42-0.51-0.76-0.9-1l-0.13-0.08l-72.5-41.89l-0.27-0.15c-0.58-0.24-1.21-0.32-1.83-0.23
	c-1.09,0.16-2.14,0.53-3.09,1.1l-6.73,3.79v60.96l70.52,40.72L161.111,129.125z M169.811,129.385l-7.64,4.3
	c-0.69,0.39-1.54,0.39-2.23,0l-72.6-41.94c-0.77-0.37-1.26-1.15-1.27-2v-63.45c0-0.4,0.1-0.79,0.3-1.13l0.1-0.18
	c0.2-0.39,0.52-0.71,0.9-0.92l7.73-4.36c1.47-0.87,3.11-1.43,4.8-1.65c1.54-0.21,3.11,0.06,4.5,0.77l0.15,0.08l0.13,0.07
	l72.53,41.88c0.11,0.05,0.21,0.11,0.31,0.18h0.05c1.11,0.69,2,1.7,2.55,2.89c0.58,1.28,0.86,2.67,0.83,4.08l-0.14,44.09
	c-0.17,3.49-1.29,6.87-3.25,9.76C175.611,124.955,172.961,127.535,169.811,129.385L169.811,129.385z"/>
<path class="st1" d="M97.021,65.015v-6.33l63.28,39.34l15.94-35.11l-72.71-42l-0.13-0.07c-1.78-1-4.37-0.79-7.23,0.82l-7.74,4.36
	l-0.15,0.26v26.58l0.37,36.39l8.62-7.61c5.37-3-0.28-11.19-0.25-16.6V65.015z"/>
<path class="st0" d="M105.531,70.095v-6.84l0.43,0.27l54.25,21.32l15.64-21.83l-72.38-41.81l-0.12-0.07
	c-0.96-0.5-2.04-0.68-3.11-0.53c-1.36,0.19-2.66,0.64-3.84,1.34l-7.67,4.32l-0.08,0.13v62.86l7.22-4.07
	c2.77-1.65,5.1-3.94,6.81-6.68c1.71-2.49,2.69-5.4,2.86-8.42L105.531,70.095z M106.121,64.265v5.83c-0.16,3.12-1.18,6.14-2.94,8.72
	c-1.75,2.81-4.15,5.17-7,6.87l-7.67,4.3l-0.42,0.24v-64.04l0.15-0.26l0.11-0.1l7.74-4.36c1.24-0.74,2.62-1.22,4.05-1.41
	c1.02-0.13,2.05,0,3,0.39l0.42,0.24l0.13,0.08l72.66,41.95l0.25,0.14l-0.15,0.25l-15.88,22.28l-0.15,0.24l-0.24-0.15L106.121,64.265
	z"/>
<path class="st1" d="M32.571,111.795v49.66c0,3.37,1.14,5.78,2.93,6.83l81.58,47c1.5,0.92,3.51,0.89,5.65-0.36l29.85-17.4
	c4.64-2.7,8.5-9.93,8.5-16.13v-49.67l-81.5-47.07L32.571,111.795L32.571,111.795z"/>
<path class="st0" d="M22.421,130.015v48.37c-0.03,1.14,0.17,2.27,0.58,3.33c0.23,0.62,0.65,1.16,1.2,1.53l0.15,0.1l72.8,41.94
	c0.12,0.05,0.24,0.12,0.35,0.19c0.38,0.2,0.81,0.29,1.24,0.25c0.71-0.07,1.39-0.31,2-0.69l50.71-29.44c2.21-1.47,3.99-3.5,5.14-5.89
	c1.39-2.56,2.15-5.41,2.22-8.32v-48.36l-70.79-40.89L22.421,130.015z M17.911,178.385v-49.67c0-0.8,0.42-1.55,1.12-1.95l67.85-39.17
	c0.7-0.41,1.58-0.41,2.28,0l72.93,42.11c0.77,0.37,1.26,1.15,1.27,2v49.68c-0.09,3.63-1.03,7.19-2.76,10.39
	c-1.55,3.14-3.93,5.79-6.87,7.69l-50.71,29.44c-1.21,0.74-2.58,1.18-4,1.29c-1.4,0.1-2.81-0.25-4-1l-72.9-42
	c-0.13-0.06-0.25-0.13-0.37-0.21c-1.31-0.84-2.34-2.06-2.94-3.5c-0.67-1.62-1.01-3.36-1-5.11L17.911,178.385z"/>
<path class="st2" d="M20.461,128.765v49.62c0,3.38,1.14,5.78,2.93,6.83l69.17,40c1.83,1.2,3.92,1.94,6.1,2.17l26.42-21.69
	c4.67-2.67,8.5-9.93,8.5-16.13v-41.61l-39.94,22.15L20.461,128.765z"/>
<path class="st0" d="M20.551,128.925v49.38c-0.03,1.41,0.22,2.8,0.74,4.11c0.4,1.02,1.12,1.89,2.05,2.47l73.31,42.35l0.67-3.24
	v-0.12l0.11-0.06l27.46-18.38c2.53-1.63,4.57-3.92,5.89-6.63c1.54-2.85,2.38-6.02,2.46-9.25v-41.11l-39.43,22.24l-0.14,0.08
	l-0.14-0.08L20.551,128.925z M20.101,178.755v0.28l-0.13-0.73c-0.03,1.48,0.24,2.96,0.79,4.33l-0.2-1.09l0.25,0.84l0.39,0.74
	l-0.4-0.47c0.38,0.96,1.01,1.81,1.83,2.45c0.14,0.11,0.29,0.2,0.45,0.29l-0.37-0.45h0.05l0.32,0.43l0.66,0.38l73,42.17l0.34,0.2
	l0.08-0.38l0.72-3.5l27.35-18.32c2.63-1.68,4.74-4.05,6.11-6.85c1.58-2.93,2.45-6.19,2.53-9.52v-42.09l-0.42,0.25l-39.8,22.4
	l-73.24-41.92l-0.42-0.24v50.36L20.101,178.755L20.101,178.755L20.101,178.755z"/>
<path class="st1" d="M93.811,170.385v49.57c0,6.18,3.84,9.08,8.5,6.42l50.3-28.85c4.66-2.66,8.5-9.93,8.5-16.13v-49.67l-67.15,38.76
	L93.811,170.385z"/>
<path class="st0" d="M94.011,170.785v49.23c-0.06,1.66,0.31,3.3,1.07,4.77c0.39,0.71,0.96,1.31,1.64,1.75
	c0.66,0.4,1.41,0.61,2.18,0.6c1.13-0.05,2.23-0.39,3.19-1l50.37-28.9c2.53-1.63,4.57-3.92,5.89-6.63c1.53-2.84,2.38-6,2.46-9.22
	v-49.17l-66.79,38.56L94.011,170.785z M93.441,220.015v-50.06l0.42,0.24l67.08-38.73l0.42-0.24v50.16
	c-0.08,3.32-0.95,6.58-2.53,9.51c-1.37,2.8-3.48,5.18-6.11,6.86l-50.37,28.9c-1.05,0.63-2.24,0.97-3.46,1
	c-0.88,0.01-1.74-0.23-2.48-0.69c-0.77-0.5-1.4-1.19-1.83-2c-0.8-1.54-1.2-3.26-1.15-5L93.441,220.015z"/>
<path class="st3" d="M87.901,89.465l73.2,42.26l-67.28,38.67l-73.05-42.18"/>
<path class="st1" d="M49.021,116.595v-4.34l-28.32,16.28l73.09,42.15l67.18-38.71l-16.4-9.47l-4.03,1.77l11.78,7.45l-58.59,33.83
	l-54.66-31.07l-10.88-5.53L49.021,116.595z"/>
<path class="st0" d="M88.081,89.245l73.16,42.24c0.13,0.08,0.18,0.25,0.1,0.38c-0.02,0.04-0.06,0.07-0.1,0.1l-67.25,38.82
	c-0.09,0.06-0.21,0.06-0.3,0l-73.4-42.17c-0.13-0.08-0.18-0.25-0.1-0.38c0.02-0.04,0.06-0.08,0.1-0.1l67.52-38.89
	C87.891,89.195,88.001,89.195,88.081,89.245L88.081,89.245z M160.531,131.725l-72.59-41.91l-66.94,38.57l72.81,41.84l66.69-38.5
	H160.531z"/>
<path class="st1" d="M178.541,112.085l0.16-44.05c0-5.41-4.36-7.36-9.72-4.34l-7.73,4.36l-0.15,0.26v63.41l7.64-4.3
	c5.37-3,9.78-9.93,9.81-15.34H178.541z"/>
<path class="st0" d="M178.261,112.075l0.16-44.05c0.04-1.15-0.22-2.28-0.75-3.3c-0.37-0.68-0.93-1.23-1.6-1.61
	c-0.72-0.38-1.52-0.58-2.33-0.57c-1.63,0.06-3.22,0.54-4.61,1.39l-7.95,4.45l-0.08,0.13v62.87l7.49-4.22
	c2.77-1.65,5.1-3.94,6.81-6.68C177.101,117.995,178.091,115.085,178.261,112.075L178.261,112.075z M178.981,68.075l-0.17,44.01
	c-0.16,3.12-1.18,6.14-2.94,8.72c-1.75,2.81-4.15,5.17-7,6.87l-7.91,4.45l-0.42,0.24v-64.04l0.15-0.26l0.11-0.1l8-4.51
	c1.48-0.9,3.16-1.4,4.89-1.46c0.91-0.01,1.8,0.21,2.6,0.64c0.77,0.43,1.4,1.06,1.82,1.83c0.58,1.1,0.86,2.33,0.82,3.57
	L178.981,68.075z"/>
<path class="st1" d="M88.421,89.765v-63.41l72.68,41.96v63.41"/>
<path class="st4" d="M157.071,129.785l-4.9-2.82L157.071,129.785z M157.071,129.785v-59.48l-65.83-38.13l0.28,17.51v41.57
	l59.29,34.93l6.25,3.6H157.071z"/>
<path class="st3" d="M91.531,46.295v45l65.36,38l0.18-58.99l-12.05-7.19l-0.17,25.41v-4.38c0-3.75-2.29-8.15-5.09-9.78
	L91.531,46.295z"/>
<path class="st0" d="M157.451,129.615l-0.56-0.32v-59l-65.38-37.91v59.18l-0.56-0.33v-59.31c0-0.1,0.06-0.2,0.15-0.25
	c0.09-0.05,0.2-0.04,0.29,0.02l65.93,38.2c0.09,0.05,0.14,0.14,0.14,0.24v59.48H157.451z"/>
<path class="st0" d="M87.981,89.675v-63.41c0-0.1,0.06-0.2,0.15-0.25c0.09-0.05,0.2-0.04,0.29,0.02l72.55,42
	c0.09,0.05,0.14,0.14,0.14,0.24v63.41c0,0.15-0.12,0.28-0.28,0.28c-0.05,0.02-0.11,0.02-0.16,0l-72.55-42
	c-0.09-0.05-0.14-0.14-0.14-0.24V89.675z M88.541,26.755v62.76l72,41.72v-62.76L88.541,26.755L88.541,26.755z"/>
<path class="st4" d="M60.101,169.915l-9.35-5.43l-3.07,2.18l2.13,4.66l3.3,10.06l2.7,3.32c3.79-2.26,4.25-2.77,4.33-6v-8.77
	L60.101,169.915z"/>
<path class="st0" d="M59.681,170.155l-8.87-5.17l-2.56,1.82l2,4.31l3.26,10l2.41,3c1.17-0.58,2.23-1.38,3.12-2.34
	c0.55-0.95,0.79-2.05,0.69-3.14v-8.53L59.681,170.155z M50.971,164.155l9.32,5.42c0.15,0.07,0.24,0.22,0.24,0.38v8.77
	c0,1.72-0.19,2.72-0.86,3.62c-1.04,1.13-2.28,2.06-3.66,2.74c-0.18,0.12-0.42,0.08-0.56-0.09l-2.64-3.31l-3.29-10.09v-0.07
	l-2.14-4.65c-0.1-0.19-0.04-0.42,0.13-0.54l3.07-2.18c0.14-0.09,0.32-0.09,0.46,0L50.971,164.155z"/>
<path class="st2" d="M57.031,171.815l-9.35-5.16v9.91c0,7.9,9.35,11.56,9.35,5.36V171.815z"/>
<path class="st0" d="M56.601,172.065l-8.5-4.68v9.19c-0.06,2.99,1.46,5.79,4,7.37c0.55,0.33,1.16,0.55,1.79,0.66
	c0.49,0.09,1,0.03,1.46-0.16c0.88-0.51,1.36-1.5,1.22-2.51v-9.86L56.601,172.065z M47.881,166.285l9.32,5.15
	c0.15,0.07,0.24,0.22,0.24,0.38v10.11c0.16,1.34-0.52,2.65-1.72,3.28c-0.61,0.24-1.27,0.3-1.91,0.18c-0.74-0.12-1.45-0.38-2.09-0.76
	c-2.81-1.73-4.5-4.8-4.45-8.1v-9.91c0-0.15,0.08-0.29,0.21-0.36c0.13-0.08,0.28-0.08,0.42-0.01L47.881,166.285z M134.651,120.875
	l18.36,10.6c0.13,0.08,0.18,0.25,0.1,0.38c-0.02,0.04-0.06,0.07-0.1,0.1l-59.15,34.17c-0.09,0.06-0.21,0.06-0.3,0l-65.37-37.17
	c-0.13-0.08-0.18-0.25-0.1-0.38c0.02-0.04,0.06-0.08,0.1-0.1l9.39-5.35v0.64l-8.68,4.95l64.83,36.85l58.59-33.83l-17.66-10.2v-0.65
	L134.651,120.875z"/>
<path class="st5" d="M122.211,108.615l-0.582-0.332l-9.316-5.314l-0.582-0.332l-9.315-5.313l-0.582-0.332l-9.898-5.645l-6.595,3.762
	l-0.582,0.332l-6.013,3.43l-0.582,0.332l-6.013,3.43l-0.582,0.332l-6.013,3.429l-0.582,0.332l-6.013,3.43l-0.582,0.332l-6.595,3.762
	l9.898,5.645l0.582,0.332l9.315,5.313l0.582,0.332l9.316,5.314l0.582,0.332l9.898,5.645l6.595-3.762l0.582-0.332l6.013-3.43
	l0.582-0.332l6.013-3.429l0.582-0.332l6.013-3.43l0.582-0.332l6.013-3.43l0.582-0.332l6.595-3.762L122.211,108.615z M111.73,103.302
	l9.316,5.314l-6.013,3.429l-9.316-5.314L111.73,103.302z M108.438,115.807l-9.316-5.314l6.013-3.43l9.316,5.314L108.438,115.807z
	 M101.843,119.569l-9.316-5.314l6.013-3.43l9.316,5.314L101.843,119.569z M95.248,123.33l-9.316-5.314l6.013-3.429l9.316,5.314
	L95.248,123.33z M88.653,127.092l-9.316-5.314l6.013-3.43l9.316,5.314L88.653,127.092z M75.453,112.703l9.315,5.313l-6.013,3.43
	l-9.315-5.313L75.453,112.703z M82.047,108.942l9.315,5.313l-6.013,3.429l-9.315-5.313L82.047,108.942z M88.643,105.18l9.315,5.313
	l-6.013,3.43l-9.315-5.313L88.643,105.18z M95.238,101.418l9.315,5.313l-6.013,3.43l-9.315-5.313L95.238,101.418z M101.833,97.656
	l9.315,5.313l-6.013,3.429l-9.315-5.313L101.833,97.656z M91.935,92.011l9.315,5.313l-6.013,3.429l-9.315-5.313L91.935,92.011z
	 M85.341,95.773l9.315,5.313l-6.013,3.43l-9.315-5.313L85.341,95.773z M78.745,99.534l9.315,5.313l-6.013,3.43l-9.315-5.313
	L78.745,99.534z M72.15,103.296l9.315,5.313l-6.013,3.429l-9.315-5.313L72.15,103.296z M65.555,107.058l9.315,5.313l-6.013,3.43
	l-9.315-5.313L65.555,107.058z M62.263,119.562l-9.315-5.313l6.013-3.429l9.315,5.313L62.263,119.562z M72.16,125.208l-9.315-5.313
	l6.013-3.429l9.315,5.313L72.16,125.208z M82.058,130.853l-9.316-5.314l6.013-3.429l9.316,5.314L82.058,130.853z M91.956,136.499
	l-9.315-5.313l6.013-3.429l9.315,5.313L91.956,136.499z M98.551,132.737l-9.315-5.313l6.013-3.43l9.315,5.313L98.551,132.737z
	 M105.146,128.975l-9.315-5.313l6.013-3.429l9.315,5.313L105.146,128.975z M111.741,125.214l-9.315-5.313l6.013-3.43l9.315,5.313
	L111.741,125.214z M118.336,121.452l-9.315-5.313l6.013-3.43l9.315,5.313L118.336,121.452z M115.616,112.377l6.013-3.429
	l9.315,5.313l-6.013,3.429L115.616,112.377z"/>
<path class="st6" d="M93.731,165.565l50.773-29.316v-21.224h-39.467l-2.415-1.378c-5.789-3.305-15.263-3.305-21.053,0l-2.415,1.378
	h-39.48v19.814L93.731,165.565z"/>
<path class="st7" d="M81.57,142.153l-37.552-21.434c-5.79-3.304-5.79-8.712,0-12.016L81.57,87.269
	c5.789-3.304,15.263-3.304,21.053,0l37.552,21.434c5.789,3.304,5.789,8.712,0,12.016l-37.552,21.434
	C96.833,145.458,87.359,145.458,81.57,142.153z"/>
<g>
	<polygon class="st8" points="85.913,105.906 96.462,111.911 88.066,116.69 77.517,110.685 	"/>
	<polygon class="st9" points="103.687,107.131 114.235,113.135 105.839,117.914 95.29,111.91 	"/>
	<path class="st5" d="M61.896,119.577l0.586,0.334l9.376,5.337l0.586,0.334l9.377,5.337l0.586,0.334l9.376,5.337l0.586,0.334
		l0.586-0.334l7.225-4.112l0.586-0.334l7.224-4.112l0.586-0.334l7.225-4.112l0.586-0.334l7.225-4.112l0.586-0.334l7.81-4.445
		l-9.962-5.671l-0.586-0.334l-9.377-5.337l-0.586-0.334l-9.376-5.337l-0.586-0.334l-9.963-5.671l-7.81,4.445l-0.586,0.334
		l-7.225,4.112l-0.586,0.334l-7.225,4.112l-0.586,0.334l-7.224,4.112l-0.586,0.334l-7.225,4.112l-0.586,0.334l0.586,0.334
		L61.896,119.577z M121.46,109.024l9.376,5.337l-7.224,4.112l-9.376-5.337L121.46,109.024z M113.65,113.469l9.376,5.337
		l-7.225,4.112l-9.376-5.337L113.65,113.469z M105.839,117.915l9.376,5.337l-7.225,4.112l-9.376-5.337L105.839,117.915z
		 M98.028,122.361l9.376,5.337l-7.224,4.112l-9.376-5.337L98.028,122.361z M90.218,126.806l9.376,5.337l-7.225,4.112l-9.376-5.337
		L90.218,126.806z M111.497,103.353l9.377,5.337l-7.224,4.112l-9.377-5.337L111.497,103.353z M103.687,107.798l9.377,5.337
		l-7.225,4.112l-9.377-5.337L103.687,107.798z M95.876,112.244l9.377,5.337l-7.225,4.112l-9.377-5.337L95.876,112.244z
		 M88.065,116.69l9.377,5.337l-7.224,4.112l-9.377-5.337L88.065,116.69z M80.255,121.135l9.377,5.337l-7.225,4.112l-9.377-5.337
		L80.255,121.135z M101.534,97.682l9.376,5.337l-7.224,4.112l-9.376-5.337L101.534,97.682z M93.724,102.128l9.376,5.337
		l-7.225,4.112l-9.376-5.337L93.724,102.128z M85.913,106.573l9.376,5.337l-7.225,4.112l-9.376-5.337L85.913,106.573z
		 M78.103,111.019l9.376,5.337l-7.224,4.112l-9.376-5.337L78.103,111.019z M70.293,115.465l9.376,5.337l-7.225,4.112l-9.376-5.337
		L70.293,115.465z M91.572,92.012l9.376,5.337l-7.224,4.112l-9.376-5.337L91.572,92.012z M83.762,96.457l9.376,5.337l-7.225,4.112
		l-9.376-5.337L83.762,96.457z M75.951,100.903l9.376,5.337l-7.225,4.112l-9.376-5.337L75.951,100.903z M68.14,105.349l9.376,5.337
		l-7.224,4.112l-9.376-5.337L68.14,105.349z M60.33,109.794l9.376,5.337l-7.225,4.112l-9.376-5.337L60.33,109.794z"/>
	<polygon class="st5" points="98.028,121.694 108.577,127.698 100.181,132.477 89.632,126.473 	"/>
</g>
<g>
	<g>
		<path class="st6" d="M158.091,99.474l8.775-4.915l0,0c0.9-0.58,1.397-1.645,1.397-3.115l0.083-16.257
			c0-3.363-2.794-7.803-6.157-9.686l-12.242-6.902c-2.628-1.48-4.025-0.983-5.992,0.248l-7.171,4.057l12.48,17.737L158.091,99.474"
			/>
	</g>
	<g>
		<path class="st7" d="M135.138,82.358l0.083-16.257c0-3.363,2.877-4.595,6.24-2.711l12.232,6.902
			c3.363,1.883,6.24,6.323,6.157,9.686l-0.083,16.257c0,3.363-2.877,4.595-6.24,2.711l-12.232-6.902
			C137.932,90.078,135.138,85.721,135.138,82.358"/>
	</g>
	<g>
		<path class="st5" d="M143.51,85.35v-2.608c0-1.016-0.684-2.192-1.527-2.628c-0.843-0.436-1.527,0.034-1.527,1.049v2.628
			L143.51,85.35z"/>
		<path class="st5" d="M148.177,88.125V74.05c0-1.016-0.684-2.192-1.527-2.628c-0.843-0.436-1.527,0.034-1.527,1.049v14.094
			L148.177,88.125z"/>
		<path class="st5" d="M153.035,90.809V79.381c0-1.016-0.684-2.192-1.527-2.628c-0.843-0.436-1.527,0.034-1.527,1.049V89.25
			L153.035,90.809z"/>
	</g>
</g>
<g>
	<g>
		<g>
			<g>
				<polygon class="st5" points="35.369,64.11 51.692,55.609 52.755,63.894 37.884,71.594 				"/>
				<path class="st6" d="M37.884,73.344c-0.223,0-0.445-0.042-0.656-0.128c-0.474-0.191-0.84-0.581-1.002-1.065l-2.515-7.484
					c-0.274-0.816,0.086-1.711,0.851-2.109l16.322-8.501c0.507-0.265,1.112-0.264,1.619,0.001c0.507,0.265,0.853,0.761,0.925,1.328
					l1.063,8.285c0.093,0.729-0.278,1.439-0.931,1.777l-14.871,7.7C38.437,73.278,38.16,73.344,37.884,73.344z M37.504,64.971
					l1.388,4.131l11.971-6.199l-0.588-4.583L37.504,64.971z"/>
			</g>
			<g>
				
					<ellipse transform="matrix(0.9692 -0.2463 0.2463 0.9692 -15.5871 11.1014)" class="st5" cx="36.59" cy="67.868" rx="2.411" ry="3.967"/>
				<path class="st6" d="M37.2,73.507c-0.518,0-1.046-0.121-1.554-0.364c-2.038-0.978-3.47-3.804-3.33-6.574
					c0.089-1.763,0.819-3.179,2.004-3.884c0.966-0.574,2.136-0.607,3.212-0.091c2.039,0.978,3.47,3.804,3.33,6.574
					c-0.089,1.764-0.82,3.18-2.005,3.885C38.348,73.355,37.781,73.507,37.2,73.507z M36.056,65.768
					c-0.086,0.138-0.217,0.446-0.244,0.978c-0.075,1.492,0.727,2.901,1.312,3.223c0.086-0.138,0.217-0.446,0.244-0.978
					C37.443,67.499,36.641,66.09,36.056,65.768z"/>
			</g>
		</g>
		<g>
			<path class="st10" d="M44.757,37.194"/>
		</g>
		<g>
			<path class="st5" d="M45.269,39.156c0,0-0.113-2.698-0.219-4.464c-0.106-1.766-2.914-2.077-5.412,1.292
				c-1.769,2.386-5.09,7.661-3.958,12.182C34.67,43.235,45.269,39.156,45.269,39.156z"/>
			<path class="st6" d="M35.679,49.916c-0.785,0-1.498-0.532-1.696-1.326c-1.29-5.15,2.109-10.763,4.25-13.649
				c2.256-3.042,4.759-3.62,6.349-3.148c1.286,0.382,2.135,1.453,2.216,2.794c0.107,1.779,0.221,4.497,0.221,4.497
				c0.031,0.75-0.419,1.436-1.119,1.706c-3.716,1.436-8.988,4.661-8.504,7.025c0.191,0.932-0.398,1.846-1.326,2.058
				C35.938,49.901,35.807,49.916,35.679,49.916z M43.325,35.17c-0.431,0.101-1.291,0.521-2.281,1.855
				c-0.575,0.776-1.441,2.035-2.206,3.517c1.707-1.156,3.476-2.021,4.629-2.531C43.43,37.192,43.378,36.097,43.325,35.17z"/>
		</g>
		<g>
			<path class="st5" d="M44.289,77.367c0.6-0.378,1.189-0.731,1.761-1.052c2.46-1.423,9.064-5.077,17.133-9.404L45.269,39.156
				c0,0-10.599,4.079-9.589,9.009C37.425,56.683,42.063,71.155,44.289,77.367z"/>
			<path class="st6" d="M44.289,79.117c-0.192,0-0.385-0.032-0.57-0.096c-0.502-0.173-0.898-0.564-1.077-1.064
				c-1.934-5.397-6.804-20.303-8.676-29.441c-1.271-6.203,9.448-10.521,10.675-10.994c0.771-0.3,1.648-0.012,2.099,0.684
				l17.915,27.756c0.265,0.411,0.346,0.914,0.224,1.387s-0.437,0.874-0.867,1.105c-7.869,4.219-14.551,7.91-17.084,9.376
				c-0.566,0.318-1.129,0.655-1.704,1.018C44.94,79.026,44.616,79.117,44.289,79.117z M44.595,41.338
				c-3.526,1.602-7.63,4.378-7.2,6.476c1.561,7.618,5.516,20.198,7.838,26.953c2.385-1.378,8.325-4.664,15.453-8.5L44.595,41.338z"
				/>
		</g>
		<g>
			<g>
				<polygon class="st5" points="78.34,90.126 94.663,81.625 95.726,89.91 80.855,97.61 				"/>
				<path class="st6" d="M80.855,99.36c-0.223,0-0.445-0.042-0.656-0.128c-0.474-0.191-0.84-0.581-1.002-1.064l-2.515-7.484
					c-0.274-0.817,0.086-1.712,0.851-2.11l16.323-8.501c0.506-0.264,1.111-0.265,1.619,0.001c0.507,0.265,0.853,0.761,0.925,1.328
					l1.063,8.285c0.093,0.729-0.278,1.439-0.931,1.777l-14.871,7.7C81.408,99.294,81.132,99.36,80.855,99.36z M80.475,90.987
					l1.388,4.131l11.971-6.199l-0.588-4.583L80.475,90.987z"/>
			</g>
			<g>
				
					<ellipse transform="matrix(0.9692 -0.2463 0.2463 0.9692 -20.6707 22.4852)" class="st5" cx="79.561" cy="93.884" rx="2.411" ry="3.967"/>
				<path class="st6" d="M80.172,99.523c-0.518,0-1.046-0.121-1.554-0.364c-2.039-0.978-3.47-3.804-3.33-6.574
					c0.089-1.764,0.82-3.18,2.005-3.885c0.964-0.575,2.135-0.607,3.211-0.09c2.038,0.977,3.47,3.803,3.33,6.574c0,0,0,0,0,0
					c-0.089,1.763-0.82,3.179-2.005,3.884C81.32,99.371,80.752,99.523,80.172,99.523z M79.027,91.784
					c-0.086,0.138-0.217,0.446-0.244,0.978c-0.075,1.492,0.727,2.901,1.312,3.223c0.086-0.138,0.217-0.446,0.245-0.978
					C80.414,93.515,79.612,92.106,79.027,91.784z M82.087,95.095h0.01H82.087z"/>
			</g>
		</g>
		<g>
			<path class="st5" d="M43.109,74.064c7.207-4.171,33.784-18.276,51.801-26.05c9.139-3.943,12.423,5.421,6.896,9.676
				c-4.572,3.521-39.891,28.762-43.655,31.518c-4.305,3.151-28.684,16.427-37.172,10.039C16.361,95.775,32.309,80.126,43.109,74.064
				z"/>
			<path class="st6" d="M27.289,102.699c-2.876,0-5.427-0.597-7.363-2.054c-1.067-0.803-1.602-2.049-1.505-3.509
				c0.444-6.649,14.753-19.499,23.822-24.592c7.555-4.371,34.317-18.518,51.973-26.137c5.7-2.459,9.443-0.425,11.046,2.299
				c1.969,3.348,0.942,7.806-2.389,10.371C99.747,61.485,82.843,73.62,70.5,82.48c-5.649,4.055-10.108,7.256-11.316,8.14
				C56.635,92.486,39.182,102.699,27.289,102.699z M99.005,48.816c-1.001,0-2.153,0.266-3.402,0.805
				c-17.54,7.569-44.131,21.626-51.617,25.958c-0.006,0.004-0.013,0.008-0.02,0.011c-9.6,5.389-21.76,17.397-22.052,21.779
				c-0.024,0.373,0.064,0.439,0.117,0.479c7.141,5.376,30.226-6.495,35.086-10.052c1.21-0.886,5.68-4.095,11.342-8.159
				c11.627-8.347,29.199-20.961,32.279-23.333c2.206-1.698,2.423-4.267,1.508-5.823C101.597,49.378,100.461,48.816,99.005,48.816z
				 M43.11,74.064h0.01H43.11z"/>
		</g>
		<g>
			<path class="st5" d="M101.513,55.174l16.224,4.407c0,0-1.109,0.736-2.606,1.779c-1.497,1.043-3.724,2.701-9.301,2.419
				c-5.577-0.282-15.087-1.088-15.643-1.163C92.126,61.13,101.513,55.174,101.513,55.174z"/>
			<path class="st6" d="M107.035,65.56c-0.413,0-0.844-0.011-1.293-0.034c-5.567-0.281-15.182-1.094-15.788-1.176
				c-0.701-0.094-1.276-0.601-1.458-1.284c-0.182-0.683,0.065-1.409,0.626-1.839c1.978-1.516,11.066-7.286,11.452-7.531
				c0.414-0.263,0.92-0.342,1.396-0.211l16.225,4.407c0.663,0.18,1.159,0.731,1.269,1.409c0.11,0.678-0.188,1.357-0.759,1.738
				c-0.007,0.005-1.101,0.73-2.574,1.757l-0.108,0.076C114.555,63.896,112.171,65.56,107.035,65.56z M95.242,61.293
				c3.28,0.263,7.566,0.581,10.676,0.738c4.394,0.217,6.351-0.839,7.703-1.755l-11.822-3.211
				C99.961,58.235,97.41,59.872,95.242,61.293z"/>
		</g>
		<g>
			<path class="st5" d="M79.95,55.066c4.668-2.318,9.028-4.409,12.735-6.072l-6.526-10.857c0,0-2.673,1.263-4.586,2.238
				s-3.37,2.159-2.824,6.101C79.119,49.147,79.647,52.913,79.95,55.066z"/>
			<path class="st6" d="M79.95,56.816c-0.281,0-0.561-0.067-0.816-0.202c-0.498-0.263-0.839-0.748-0.917-1.305
				c-0.303-2.154-0.832-5.922-1.202-8.593c-0.681-4.911,1.406-6.699,3.763-7.9c1.914-0.976,4.523-2.209,4.633-2.261
				c0.814-0.382,1.785-0.089,2.248,0.681l6.526,10.857c0.258,0.429,0.319,0.948,0.17,1.425c-0.15,0.478-0.497,0.868-0.954,1.073
				c-3.46,1.552-7.724,3.585-12.673,6.042C80.483,56.755,80.217,56.816,79.95,56.816z M85.478,40.402
				c-0.92,0.443-2.124,1.029-3.11,1.532c-1.346,0.686-2.318,1.182-1.886,4.302c0.255,1.838,0.584,4.195,0.864,6.188
				c3.286-1.615,6.241-3.025,8.827-4.212L85.478,40.402z"/>
		</g>
		<g>
			<path class="st5" d="M77.161,72.578c11.905,3.17,47.825,14.057,47.825,14.057s-3.146,6.991-15.04,5.831
				c-11.894-1.159-42.737-4.193-49.389-5.199C52.556,86.416,70.836,76.168,77.161,72.578z"/>
			<path class="st6" d="M112.547,94.347c-0.873,0-1.796-0.044-2.771-0.139c-15.781-1.538-43.194-4.26-49.481-5.21
				c-2.458-0.26-3.226-1.452-3.424-2.404c-0.557-2.681,2.227-5.781,18.99-15.291l0.437-0.248c0.399-0.226,0.872-0.287,1.314-0.169
				c11.797,3.142,47.522,13.965,47.882,14.074c0.481,0.146,0.877,0.492,1.085,0.95c0.208,0.458,0.209,0.984,0.003,1.443
				C126.443,87.661,123.301,94.347,112.547,94.347z M60.701,85.522c0.013,0.001,0.026,0.003,0.04,0.004
				c6.284,0.949,33.627,3.663,49.374,5.198c6.763,0.661,10.305-1.492,11.983-3.134c-8.035-2.426-34.223-10.307-44.698-13.137
				C66.003,80.928,61.91,84.036,60.701,85.522z"/>
		</g>
		<g>
			<path class="st5" d="M124.986,86.635c0,0,1.408-5.17,1.691-6.167s-0.231-3.121-2.244-1.746c-2.013,1.375-3.855,2.449-5.982,6.073
				s-4.75,7.845-4.75,7.845S121.038,92.843,124.986,86.635z"/>
			<path class="st6" d="M113.79,94.392c-0.07,0-0.116-0.001-0.136-0.001c-0.626-0.018-1.196-0.369-1.493-0.92
				s-0.276-1.22,0.055-1.753c0.026-0.042,2.636-4.245,4.727-7.807c2.17-3.699,4.152-5.04,6.068-6.336l0.435-0.295
				c1.893-1.295,3.248-0.605,3.743-0.248c1.233,0.888,1.524,2.682,1.172,3.918c-0.282,0.992-1.686,6.147-1.686,6.147
				c-0.046,0.169-0.118,0.331-0.212,0.479C122.291,94.133,114.921,94.392,113.79,94.392z M124.833,80.566
				c-1.681,1.139-3.15,2.18-4.872,5.115c-0.924,1.574-1.947,3.271-2.809,4.686c1.997-0.588,4.461-1.831,6.217-4.457
				C123.617,85,124.441,81.98,124.833,80.566z M124.986,86.635h0.01H124.986z"/>
		</g>
		<g>
			<path class="st5" d="M44.098,85.859c-7.871-0.619-10.202-3.626-9.179-6.171c-1.435,1.141-2.857,2.348-4.218,3.582
				c-1.757,4.424,5.282,8.447,10.188,8.063C47.615,90.807,47.437,85.982,44.098,85.859z"/>
			<path class="st6" d="M40.216,93.109c-3.829,0-8.2-2.008-10.254-4.792c-1.319-1.789-1.634-3.81-0.886-5.692
				c0.099-0.249,0.253-0.471,0.452-0.651c1.39-1.26,2.838-2.489,4.304-3.655c0.622-0.495,1.499-0.508,2.135-0.033
				c0.637,0.475,0.874,1.318,0.578,2.056c-0.162,0.402-0.131,0.747,0.1,1.119c0.314,0.506,1.786,2.192,7.561,2.652
				c2.221,0.1,3.859,1.635,3.901,3.665c0.049,2.358-2.121,4.912-7.079,5.3C40.76,93.099,40.489,93.109,40.216,93.109z
				 M32.219,84.259c-0.091,0.413-0.092,1.097,0.559,1.98c1.476,2.001,5.207,3.574,7.975,3.349c2.962-0.232,3.86-1.355,3.853-1.739
				c-0.002-0.124-0.253-0.23-0.571-0.241c-0.024-0.001-0.049-0.002-0.073-0.004c-6.627-0.522-9.255-2.626-10.293-4.3
				c-0.043-0.069-0.084-0.139-0.123-0.209C33.098,83.479,32.656,83.867,32.219,84.259z"/>
		</g>
		<g>
			<path class="st5" d="M86.645,56.739l15.692-8.407c0,0,2.201-8.697,3.356-14.12s-2.178-3.79-3.156-3.389
				c-1.069,0.438-2.002,0.878-3.105,1.409c-1.103,0.532-4.291,1.643-7.014,9.041C89.695,48.672,86.645,56.739,86.645,56.739z"/>
			<path class="st6" d="M86.645,58.489c-0.416,0-0.828-0.148-1.155-0.435c-0.548-0.481-0.741-1.252-0.482-1.934
				c0.03-0.081,3.078-8.145,5.767-15.452c2.821-7.666,6.253-9.252,7.718-9.93l0.179-0.083c1.026-0.494,2.043-0.977,3.201-1.452
				l0.13-0.054c0.872-0.367,2.916-1.228,4.478,0.065c1.575,1.303,1.282,3.684,0.924,5.362c-1.148,5.393-3.348,14.098-3.371,14.185
				c-0.121,0.477-0.436,0.881-0.87,1.113l-15.692,8.407C87.211,58.42,86.928,58.489,86.645,58.489z M104.176,32.077
				c-0.295,0.079-0.665,0.234-0.817,0.298l-0.159,0.066c-0.972,0.399-1.808,0.788-3.009,1.367l-0.229,0.107
				c-1.072,0.496-3.582,1.657-5.903,7.962c-1.451,3.943-3.006,8.105-4.137,11.12l10.906-5.843c0.557-2.222,2.214-8.899,3.153-13.307
				C104.177,32.927,104.196,32.378,104.176,32.077z"/>
		</g>
	</g>
	<g>
		<g>
			<polygon class="st11" points="35.369,64.11 51.692,55.609 52.755,63.894 37.884,71.594 			"/>
			<path class="st6" d="M37.884,71.894c-0.038,0-0.076-0.007-0.112-0.021c-0.082-0.033-0.144-0.1-0.172-0.183l-2.515-7.484
				c-0.047-0.14,0.015-0.293,0.146-0.362l16.323-8.501c0.087-0.045,0.19-0.045,0.278,0c0.087,0.045,0.146,0.131,0.158,0.228
				l1.063,8.285c0.016,0.125-0.047,0.247-0.16,0.305l-14.871,7.7C37.978,71.883,37.931,71.894,37.884,71.894z M35.735,64.257
				l2.321,6.91l14.374-7.443l-0.981-7.65L35.735,64.257z"/>
		</g>
		<g>
			
				<ellipse transform="matrix(0.9692 -0.2463 0.2463 0.9692 -15.5871 11.1014)" class="st5" cx="36.59" cy="67.868" rx="2.411" ry="3.967"/>
			<path class="st6" d="M37.2,72.059c-0.303,0-0.617-0.074-0.927-0.223c-1.517-0.728-2.619-3.009-2.509-5.193
				c0.064-1.271,0.538-2.258,1.298-2.711c0.547-0.325,1.202-0.337,1.843-0.03c1.518,0.728,2.619,3.009,2.509,5.193
				c-0.064,1.271-0.538,2.259-1.298,2.711C37.834,71.974,37.523,72.059,37.2,72.059z M35.981,64.278
				c-0.217,0-0.423,0.056-0.612,0.168c-0.577,0.343-0.953,1.175-1.005,2.226c-0.098,1.928,0.875,4.001,2.169,4.622
				c0.46,0.221,0.901,0.22,1.277-0.004c0.577-0.343,0.953-1.175,1.005-2.226c0.098-1.928-0.875-4.001-2.169-4.622
				C36.418,64.333,36.195,64.278,35.981,64.278z"/>
		</g>
	</g>
	<g>
		<path class="st12" d="M44.757,37.194"/>
	</g>
	<g>
		<path class="st11" d="M45.269,39.156c0,0-0.113-2.698-0.219-4.464c-0.106-1.766-2.914-2.077-5.412,1.292
			c-1.769,2.386-5.09,7.661-3.958,12.182C34.67,43.235,45.269,39.156,45.269,39.156z"/>
		<path class="st6" d="M35.68,48.465c-0.134,0-0.256-0.091-0.291-0.228c-1.188-4.743,2.407-10.275,4.008-12.434
			c1.812-2.443,3.703-2.938,4.771-2.622c0.696,0.207,1.138,0.764,1.181,1.491c0.107,1.769,0.22,4.47,0.22,4.47
			c0.005,0.129-0.072,0.247-0.192,0.292c-0.104,0.04-10.351,4.044-9.403,8.669c0.033,0.16-0.068,0.316-0.228,0.353
			C35.724,48.463,35.702,48.465,35.68,48.465z M43.531,33.693c-0.971,0-2.354,0.719-3.651,2.468c-1.276,1.72-3.862,5.648-4.109,9.49
			c1.747-3.549,7.952-6.197,9.19-6.696c-0.029-0.67-0.122-2.78-0.21-4.246c-0.029-0.478-0.296-0.816-0.753-0.952
			C43.856,33.715,43.7,33.693,43.531,33.693z"/>
	</g>
	<g>
		<path class="st5" d="M44.289,77.367c0.6-0.378,1.189-0.731,1.761-1.052c2.46-1.423,9.064-5.077,17.133-9.404L45.269,39.156
			c0,0-10.599,4.079-9.589,9.009C37.425,56.683,42.063,71.155,44.289,77.367z"/>
		<path class="st6" d="M44.289,77.667c-0.033,0-0.066-0.005-0.098-0.016c-0.086-0.03-0.154-0.097-0.185-0.183
			c-1.923-5.366-6.764-20.181-8.621-29.243c-1.049-5.12,9.333-9.179,9.775-9.349c0.133-0.051,0.283-0.002,0.36,0.117l17.915,27.756
			c0.045,0.07,0.06,0.157,0.039,0.238s-0.075,0.149-0.149,0.189c-7.882,4.227-14.582,7.927-17.125,9.399
			c-0.565,0.317-1.153,0.668-1.751,1.046C44.401,77.651,44.346,77.667,44.289,77.667z M45.152,39.526
			c-1.51,0.622-10.046,4.339-9.177,8.579c1.714,8.367,6.283,22.644,8.472,28.81c0.498-0.308,0.986-0.597,1.457-0.861
			c2.514-1.454,9.089-5.088,16.853-9.253L45.152,39.526z"/>
	</g>
	<g>
		<polygon class="st11" points="78.34,90.126 94.663,81.625 95.726,89.91 80.855,97.61 		"/>
		<path class="st6" d="M80.855,97.91c-0.038,0-0.076-0.007-0.112-0.021c-0.082-0.033-0.144-0.1-0.172-0.183l-2.515-7.484
			c-0.047-0.14,0.015-0.293,0.146-0.362l16.323-8.501c0.087-0.046,0.19-0.045,0.278,0c0.087,0.045,0.146,0.131,0.158,0.228
			l1.063,8.285c0.016,0.125-0.047,0.247-0.159,0.305l-14.871,7.7C80.95,97.899,80.902,97.91,80.855,97.91z M78.706,90.273
			l2.322,6.91l14.374-7.443l-0.981-7.65L78.706,90.273z"/>
	</g>
	
		<ellipse transform="matrix(0.9692 -0.2463 0.2463 0.9692 -20.6707 22.4852)" class="st5" cx="79.561" cy="93.884" rx="2.411" ry="3.967"/>
	<path class="st6" d="M80.171,98.074c-0.303,0-0.616-0.074-0.926-0.223c-1.518-0.728-2.619-3.009-2.509-5.193
		c0.064-1.271,0.538-2.259,1.299-2.712c0.548-0.326,1.203-0.336,1.843-0.029c1.517,0.728,2.619,3.009,2.509,5.193l0,0
		c-0.064,1.271-0.538,2.259-1.299,2.711C80.805,97.99,80.494,98.074,80.171,98.074z M78.952,90.293
		c-0.216,0-0.422,0.056-0.611,0.169c-0.577,0.343-0.953,1.175-1.006,2.226c-0.098,1.928,0.875,4.002,2.169,4.622
		c0.459,0.221,0.902,0.219,1.277-0.004c0.577-0.343,0.953-1.175,1.006-2.226c0.098-1.928-0.875-4.002-2.169-4.622
		C79.389,90.349,79.165,90.293,78.952,90.293z M82.087,95.095h0.007H82.087z"/>
	<g>
		<path class="st5" d="M79.95,55.066c4.668-2.318,9.028-4.409,12.735-6.072l-6.526-10.857c0,0-2.673,1.263-4.586,2.238
			s-3.37,2.159-2.824,6.101C79.119,49.147,79.647,52.913,79.95,55.066z"/>
		<path class="st6" d="M79.615,54.84l0.574-0.227c-0.309-2.197-0.796-5.67-1.143-8.177c-0.531-3.831,0.892-4.89,2.663-5.793
			c1.551-0.791,3.628-1.783,4.332-2.117l6.212,10.334l0.579-0.202l-6.417-10.675c-0.081-0.132-0.248-0.181-0.385-0.117
			c-0.027,0.013-2.699,1.276-4.594,2.242c-1.907,0.972-3.57,2.193-2.985,6.409C78.807,49.086,79.308,52.653,79.615,54.84z"/>
	</g>
	<path class="st5" d="M43.109,74.064c7.207-4.171,33.784-18.276,51.801-26.05c9.139-3.943,12.423,5.421,6.896,9.676
		c-4.572,3.521-39.891,28.762-43.655,31.518c-4.305,3.151-28.684,16.427-37.172,10.039C16.361,95.775,32.309,80.126,43.109,74.064z"
		/>
	<path class="st11" d="M50.403,84.517c-12.581,7.219-29.166,14.613-29.9,11.292c-0.54,1.524-0.461,2.734,0.476,3.438
		c8.487,6.388,32.867-6.888,37.172-10.039c3.765-2.756,39.083-27.997,43.655-31.518c2.457-1.892,3.169-4.791,2.403-7.084
		C98.558,54.26,62.084,77.815,50.403,84.517z"/>
	<path class="st6" d="M27.328,101.274c-2.589,0-4.851-0.524-6.529-1.788c-0.683-0.513-0.996-1.271-0.93-2.254
		c0.367-5.498,13.533-18.062,23.093-23.429c7.519-4.351,34.218-18.465,51.83-26.065c4.833-2.086,7.933-0.488,9.222,1.703
		c1.36,2.312,1.113,6.072-2.024,8.487c-3.108,2.393-20.696,15.019-32.334,23.374c-5.653,4.059-10.119,7.264-11.327,8.148
		C54.656,92.138,38.136,101.274,27.328,101.274z M98.975,47.371c-1.13,0-2.445,0.271-3.946,0.918
		C77.437,55.88,50.768,69.979,43.26,74.324c-0.001,0-0.002,0.001-0.003,0.002c-9.439,5.298-22.434,17.612-22.79,22.947
		c-0.052,0.778,0.175,1.345,0.692,1.734c8.285,6.236,32.501-6.884,36.814-10.041c1.21-0.886,5.677-4.092,11.332-8.151
		c11.635-8.353,29.218-20.975,32.318-23.362c2.864-2.205,3.103-5.617,1.873-7.707C102.725,48.436,101.215,47.371,98.975,47.371z
		 M43.11,74.064h0.007H43.11z"/>
	<g>
		<path class="st5" d="M101.513,55.174l16.224,4.407c0,0-1.109,0.736-2.606,1.779c-1.497,1.043-3.724,2.701-9.301,2.419
			c-5.577-0.282-15.087-1.088-15.643-1.163C92.126,61.13,101.513,55.174,101.513,55.174z"/>
		<path class="st6" d="M107.054,64.11c-0.395,0-0.807-0.011-1.239-0.032c-5.538-0.28-15.069-1.084-15.667-1.165
			c-0.12-0.016-0.219-0.103-0.25-0.22s0.011-0.242,0.107-0.315c1.927-1.477,10.963-7.213,11.347-7.457
			c0.071-0.045,0.158-0.058,0.239-0.036l16.225,4.407c0.114,0.031,0.199,0.125,0.218,0.242c0.019,0.116-0.032,0.232-0.13,0.298
			c-0.001,0.001-1.107,0.735-2.601,1.775l-0.11,0.077C113.785,62.665,111.714,64.11,107.054,64.11z M91.002,62.395
			c2.477,0.224,10.115,0.845,14.843,1.084c5.343,0.273,7.544-1.27,9.004-2.289l0.11-0.077c0.862-0.601,1.596-1.1,2.064-1.416
			l-15.462-4.2C100.591,56.115,93.602,60.563,91.002,62.395z"/>
	</g>
	<g>
		<path class="st5" d="M77.161,72.578c11.905,3.17,47.825,14.057,47.825,14.057s-3.146,6.991-15.04,5.831
			c-11.894-1.159-42.737-4.193-49.389-5.199C52.556,86.416,70.836,76.168,77.161,72.578z"/>
		<path class="st6" d="M112.494,92.895c-0.812,0-1.669-0.041-2.578-0.13c-15.767-1.536-43.15-4.255-49.405-5.201
			c-1.343-0.143-2.074-0.557-2.221-1.265c-0.551-2.65,8.934-8.43,18.285-13.734l0.437-0.248c0.068-0.039,0.149-0.05,0.225-0.029
			c11.773,3.136,47.475,13.952,47.834,14.061c0.083,0.025,0.15,0.084,0.186,0.163c0.036,0.078,0.036,0.168,0,0.247
			C125.229,86.825,122.373,92.895,112.494,92.895z M77.202,72.899l-0.331,0.188c-4.583,2.6-18.53,10.512-17.994,13.09
			c0.107,0.516,0.989,0.716,1.71,0.792c6.253,0.945,33.626,3.663,49.387,5.199c10.088,0.985,13.788-4.045,14.571-5.352
			C120.796,85.681,88.447,75.902,77.202,72.899z"/>
	</g>
	<g>
		<path class="st11" d="M124.986,86.635c0,0,1.408-5.17,1.691-6.167s-0.231-3.121-2.244-1.746c-2.013,1.375-3.855,2.449-5.982,6.073
			s-4.75,7.845-4.75,7.845S121.038,92.843,124.986,86.635z"/>
		<path class="st6" d="M113.751,92.941c-0.035,0-0.054,0-0.058,0c-0.107-0.003-0.205-0.063-0.256-0.158s-0.047-0.209,0.009-0.3
			c0.026-0.042,2.646-4.26,4.746-7.839c2.004-3.417,3.766-4.608,5.63-5.87l0.44-0.299c1.04-0.709,1.703-0.539,2.077-0.269
			c0.731,0.527,0.806,1.71,0.625,2.344c-0.283,0.996-1.69,6.164-1.69,6.164c-0.008,0.029-0.02,0.057-0.037,0.083
			C121.432,92.782,114.459,92.941,113.751,92.941z M125.6,78.574c-0.333,0-0.706,0.197-0.998,0.396l-0.443,0.301
			c-1.807,1.223-3.513,2.377-5.449,5.676c-1.69,2.88-3.715,6.171-4.46,7.377c1.739-0.102,7.259-0.824,10.458-5.812
			c0.137-0.504,1.412-5.183,1.68-6.126c0.139-0.487,0.054-1.367-0.399-1.693C125.873,78.608,125.74,78.574,125.6,78.574z
			 M124.986,86.635h0.007H124.986z"/>
	</g>
	<g>
		<path class="st11" d="M44.098,85.859c-7.871-0.619-10.202-3.626-9.179-6.171c-1.435,1.141-2.857,2.348-4.218,3.582
			c-1.757,4.424,5.282,8.447,10.188,8.063C47.615,90.807,47.437,85.982,44.098,85.859z"/>
		<path class="st6" d="M40.218,91.609c-3.348,0-7.282-1.786-9.049-4.183c-1.015-1.376-1.257-2.845-0.7-4.248
			c0.014-0.036,0.036-0.067,0.064-0.093c1.367-1.238,2.79-2.447,4.23-3.593c0.088-0.071,0.214-0.073,0.305-0.005
			c0.091,0.068,0.125,0.188,0.083,0.294c-0.338,0.841-0.263,1.695,0.216,2.468c0.65,1.049,2.651,2.879,8.745,3.36
			c1.442,0.055,2.466,0.958,2.492,2.198c0.034,1.654-1.713,3.462-5.696,3.774C40.682,91.6,40.451,91.609,40.218,91.609z
			 M30.913,83.416c-0.463,1.218-0.236,2.501,0.658,3.713c1.8,2.44,5.97,4.211,9.299,3.955c3.637-0.285,5.264-1.893,5.235-3.266
			c-0.02-0.979-0.83-1.666-2.016-1.709c-0.003,0-0.007,0-0.01-0.001c-4.683-0.369-7.927-1.645-9.136-3.595
			c-0.421-0.679-0.578-1.41-0.467-2.148C33.264,81.347,32.068,82.371,30.913,83.416z"/>
	</g>
	<g>
		<path class="st11" d="M86.645,56.739l15.692-8.407c0,0,2.201-8.697,3.356-14.12s-2.178-3.79-3.156-3.389
			c-1.069,0.438-2.002,0.878-3.105,1.409c-1.103,0.532-4.291,1.643-7.014,9.041C89.695,48.672,86.645,56.739,86.645,56.739z"/>
		<path class="st6" d="M86.645,57.039c-0.071,0-0.142-0.025-0.198-0.074c-0.094-0.083-0.127-0.215-0.083-0.332
			c0.031-0.081,3.081-8.15,5.771-15.463c2.614-7.102,5.664-8.513,6.966-9.115l0.199-0.093c1.005-0.484,2.001-0.957,3.122-1.417
			l0.142-0.06c0.685-0.288,2.106-0.885,2.991-0.154c0.727,0.601,0.868,1.891,0.431,3.943c-1.142,5.366-3.336,14.044-3.358,14.131
			c-0.021,0.082-0.075,0.151-0.149,0.191l-15.692,8.407C86.742,57.027,86.693,57.039,86.645,57.039z M104.478,30.58
			c-0.59,0-1.284,0.292-1.681,0.459L102.65,31.1c-1.105,0.453-2.092,0.921-3.088,1.402l-0.208,0.097
			c-1.235,0.571-4.127,1.908-6.655,8.777c-2.215,6.019-4.672,12.549-5.491,14.72l14.871-7.967c0.277-1.1,2.256-8.983,3.32-13.981
			c0.474-2.227,0.139-3.054-0.226-3.356C104.986,30.639,104.742,30.58,104.478,30.58z"/>
	</g>
</g>
<g>
	<g>
		<g>
			<path class="st13" d="M147.298,60.172l8.775-4.915l0,0c0.9-0.58,1.397-1.645,1.397-3.115l0.083-16.257
				c0-3.363-2.794-7.803-6.157-9.686l-12.242-6.902c-2.628-1.48-4.025-0.983-5.992,0.248l-7.171,4.057l12.48,17.737L147.298,60.172"
				/>
		</g>
		<g>
			<path class="st9" d="M124.346,43.056l0.083-16.257c0-3.363,2.877-4.595,6.24-2.711L142.9,30.99
				c3.363,1.883,6.24,6.323,6.157,9.686l-0.083,16.257c0,3.363-2.877,4.595-6.24,2.711l-12.232-6.902
				C127.14,50.776,124.346,46.419,124.346,43.056"/>
		</g>
	</g>
	<path class="st5" d="M144.049,37.778c-0.579-1.035-1.563-1.18-2.132-0.735l-6.633,5.184l-1.656-3.011
		c-0.579-1.035-1.552-1.449-2.132-0.993c-0.579,0.445-0.724,1.718-0.145,2.763l2.39,4.346c0.579,1.035,1.511,1.521,2.08,1.066l0,0
		l7.875-6.137C144.266,39.806,144.618,38.823,144.049,37.778z"/>
</g>
<g>
	<g>
		<path class="st14" d="M170.779,151.079l8.342-4.673l0,0c0.856-0.551,1.328-1.564,1.328-2.961l0.079-15.455
			c0-3.197-2.656-7.418-5.854-9.208l-11.638-6.562c-2.499-1.407-3.827-0.935-5.696,0.236l-6.818,3.856l11.864,16.862
			L170.779,151.079"/>
	</g>
	<g>
		<path class="st8" d="M148.958,134.807l0.079-15.455c0-3.197,2.735-4.368,5.932-2.578l11.628,6.562
			c3.197,1.79,5.932,6.011,5.854,9.208L172.372,148c0,3.197-2.735,4.368-5.932,2.578l-11.628-6.562
			C151.615,142.146,148.958,138.005,148.958,134.807"/>
	</g>
	<g>
		<path class="st5" d="M164.693,139.24c-0.049-0.526-0.227-0.998-0.493-1.434c-1.007-1.653-2.146-2.848-3.375-3.624
			c-1.46-0.921-2.785-0.987-3.989-0.413c-0.339,0.162-0.507,0.555-0.506,1.175c0.001,0.942,0,1.883,0,2.824c0,0.066,0,0.132,0,0.22
			c0.066,0.036,0.118,0.065,0.17,0.093c2.684,1.474,5.368,2.949,8.052,4.423c0.053,0.029,0.106,0.053,0.159,0.079
			c0-1.096,0-2.191,0-3.287C164.705,139.277,164.695,139.257,164.693,139.24z"/>
		<path class="st5" d="M160.515,132.831c1.155,0.637,2.091-0.251,2.094-1.987c0.003-1.738-0.926-3.66-2.08-4.301
			c-1.156-0.642-2.094,0.24-2.1,1.975C158.422,130.262,159.355,132.191,160.515,132.831z"/>
	</g>
</g>
<g>
	<path class="st15" d="M140.773,180.092l-0.076-14.385c0-2.983-2.539-4.068-5.522-2.398l-10.827,6.108
		c-2.983,1.671-5.522,5.598-5.446,8.57l0.076,14.385c0,2.983,2.539,4.068,5.522,2.398l10.827-6.108
		C138.299,186.916,140.773,183.065,140.773,180.092"/>
</g>
<path class="st5" d="M125.313,179.127c0.51-0.922,1.378-1.052,1.888-0.651l2.04,1.606l4.123-7.637
	c0.51-0.922,1.378-1.28,1.888-0.879c0.51,0.401,0.64,1.519,0.13,2.441l-4.784,8.82c-0.51,0.922-1.334,1.345-1.844,0.944l0,0
	l-3.135-2.441C125.118,180.928,124.803,180.049,125.313,179.127z"/>
</svg>
