<?xml version="1.0" encoding="utf-8"?>
<!-- Generator: Adobe Illustrator 24.0.1, SVG Export Plug-In . SVG Version: 6.00 Build 0)  -->
<svg version="1.1" id="Layer_1" xmlns="http://www.w3.org/2000/svg" xmlns:xlink="http://www.w3.org/1999/xlink" x="0px" y="0px"
	 viewBox="0 0 182 240" style="enable-background:new 0 0 182 240;" xml:space="preserve">
<style type="text/css">
	.st0{fill-rule:evenodd;clip-rule:evenodd;fill:#BBBABA;}
	.st1{fill-rule:evenodd;clip-rule:evenodd;fill:#FFFFFF;}
	.st2{fill-rule:evenodd;clip-rule:evenodd;fill:#FAF9F9;}
	.st3{fill-rule:evenodd;clip-rule:evenodd;fill:#D3D2D2;}
	.st4{fill-rule:evenodd;clip-rule:evenodd;fill:#F0F1F1;}
	.st5{fill-rule:evenodd;clip-rule:evenodd;fill:#DCDCDB;}
	.st6{fill-rule:evenodd;clip-rule:evenodd;fill:#CE7611;}
	.st7{fill-rule:evenodd;clip-rule:evenodd;fill:#F6BB00;}
	.st8{fill-rule:evenodd;clip-rule:evenodd;fill:none;stroke:#FFFFFF;stroke-width:2.4001;stroke-miterlimit:2.6131;}
	.st9{fill-rule:evenodd;clip-rule:evenodd;fill:#E6E6E5;}
	.st10{fill-rule:evenodd;clip-rule:evenodd;fill:#C81143;}
	.st11{fill-rule:evenodd;clip-rule:evenodd;fill:#E43E65;}
	.st12{fill-rule:evenodd;clip-rule:evenodd;fill:#502E74;}
	.st13{fill-rule:evenodd;clip-rule:evenodd;fill:#6A3E90;}
	.st14{fill-rule:evenodd;clip-rule:evenodd;fill:none;stroke:#F6BB00;stroke-width:0.5;stroke-miterlimit:2.6131;}
	.st15{fill-rule:evenodd;clip-rule:evenodd;fill:#FFEA8D;}
	.st16{fill-rule:evenodd;clip-rule:evenodd;fill:#F8CECD;}
	.st17{fill-rule:evenodd;clip-rule:evenodd;fill:#C6BFDF;}
</style>
<title>Group</title>
<g id="Hk0fKR.tif">
</g>
<path class="st0" d="M171.5,123.91l-7.5,4.17c-0.62,0.42-1.46,0.42-2.18,0L90.77,87.03c-0.73-0.31-1.24-1.15-1.24-1.98V21.2
	c0-0.42,0.11-0.73,0.31-1.15l0.11-0.21c0.21-0.42,0.53-0.73,0.83-0.94l7.61-4.27c1.67-0.94,3.23-1.46,4.69-1.67
	c1.67-0.21,3.12,0.1,4.37,0.73c0.11,0,0.11,0.11,0.11,0.11l0.11,0.1l70.94,41.04c0.11,0,0.21,0.1,0.32,0.21
	c1.03,0.62,1.87,1.56,2.5,2.81c0.52,1.15,0.82,2.5,0.82,3.96l-0.2,44.9c0,3.13-1.26,6.56-3.23,9.58
	C177.13,119.53,174.42,122.24,171.5,123.91L171.5,123.91z M162.97,123.7l6.35-3.65c2.29-1.36,4.47-3.44,5.93-5.94
	c1.56-2.39,2.5-5,2.5-7.19l0.21-44.9c0-0.83-0.11-1.56-0.42-2.08c-0.2-0.42-0.52-0.73-0.83-1.04l-0.09-0.1l-71.04-40.94
	c-0.11,0-0.21-0.1-0.32-0.1c-0.52-0.21-1.05-0.31-1.77-0.21c-0.94,0.1-1.87,0.42-3.02,1.04l-6.57,3.65V83.8L162.97,123.7z"/>
<path class="st1" d="M100.25,54.64l61.99,38.54l15.62-36.15L106.6,15.89l-0.11-0.11c-1.76-0.94-4.26-0.73-7.08,0.83l-7.49,4.27
	l-0.21,0.31v27.81L100.25,54.64z"/>
<path class="st0" d="M109.1,60.16v5.73c0,2.71-1.14,5.73-2.91,8.54c-1.77,2.81-4.17,5.21-6.88,6.77l-7.49,4.17l-0.42,0.21V19.32
	l0.11-0.21l0.11-0.1l7.61-4.27c1.35-0.83,2.7-1.25,3.96-1.35c1.14-0.1,2.08,0,2.91,0.42l0.41,0.21l0.11,0.1l71.15,41.15l0.21,0.1
	l-0.11,0.21l-15.62,25.42l-0.11,0.21l-0.21-0.1L109.1,60.16L109.1,60.16z M108.59,65.89v-6.77l0.41,0.31l53.13,20.94l15.3-25
	L106.5,14.33l-0.09-0.1c-0.83-0.42-1.88-0.63-3.03-0.52c-1.14,0.11-2.4,0.52-3.75,1.35l-7.5,4.27l-0.09,0.1v65.11l7.08-3.96
	c2.6-1.46,4.99-3.85,6.66-6.56C107.44,71.41,108.59,68.49,108.59,65.89z"/>
<path class="st0" d="M13.27,174.53v-51.56c0-0.83,0.42-1.56,1.15-1.98l70.42-40.63c0.73-0.42,1.56-0.42,2.4,0l75.62,43.75
	c0.83,0.42,1.35,1.15,1.35,2.08v51.56c0,3.54-1.14,7.4-2.81,10.83c-1.77,3.44-4.38,6.35-7.08,8.02l-52.62,30.62
	c-1.46,0.83-2.81,1.25-4.16,1.35c-1.47,0.1-2.92-0.21-4.06-1.04L17.65,183.7c-0.1-0.1-0.31-0.1-0.42-0.21
	c-1.36-0.83-2.4-2.08-3.02-3.65C13.59,178.39,13.27,176.51,13.27,174.53L13.27,174.53z M17.96,124.32v50.21
	c0,1.35,0.21,2.6,0.63,3.44c0.31,0.73,0.73,1.25,1.25,1.56c0.1,0,0.1,0.1,0.21,0.1l75.52,43.54c0.11,0.1,0.21,0.1,0.32,0.21
	c0.41,0.21,0.83,0.31,1.24,0.21c0.62,0,1.36-0.31,2.09-0.73l52.6-30.52c1.97-1.15,3.96-3.44,5.31-6.14
	c1.46-2.71,2.29-5.83,2.29-8.65v-50.1l-73.44-42.5L17.96,124.32z"/>
<path class="st2" d="M15.88,122.97v51.56c0,3.54,1.15,6.04,3.02,7.08l71.77,41.46c2.29,1.35,3.85,1.98,6.35,2.29l27.4-22.5
	c4.79-2.81,8.86-10.31,8.86-16.77v-43.23l-41.46,23.02L15.88,122.97z"/>
<path class="st0" d="M132.96,186.1c0,3.12-0.94,6.67-2.6,9.58c-1.57,3.02-3.76,5.52-6.15,6.87l-28.43,19.06l-0.11,0.1v0.11
	l-0.73,3.33L18.9,181.2c-0.94-0.52-1.67-1.36-2.08-2.6c-0.52-1.15-0.73-2.6-0.73-4.27v-51.25l75.63,43.33l0.11,0.1l0.11-0.1
	l40.93-23.13v42.81H132.96L132.96,186.1z M15.36,174.43l0.1,0.42v0.31L15.36,174.43L15.36,174.43z M133.06,142.66l-41.25,23.33
	l-75.94-43.54l-0.42-0.21v52.29c0,1.77,0.31,3.23,0.83,4.48l-0.21-1.15l0.21,0.83l0.42,0.73l-0.42-0.52
	c0.42,1.04,1.15,1.98,1.88,2.5c0.1,0.1,0.31,0.21,0.42,0.31l-0.42-0.42h0.1l0.31,0.42l0.73,0.42l75.73,43.75l0.31,0.21l0.11-0.42
	l0.73-3.65l28.34-19.06c2.5-1.46,4.69-4.06,6.35-7.08c1.67-3.13,2.61-6.56,2.61-9.9v-43.75L133.06,142.66z"/>
<path class="st1" d="M91.92,166.2v51.46c0,6.46,3.96,9.48,8.86,6.67l52.18-30c4.79-2.81,8.86-10.31,8.86-16.77v-51.56L92.12,166.2
	H91.92z"/>
<path class="st0" d="M91.61,217.76v-51.98l0.42,0.21l70-40.42v52.08c0,3.23-1.05,6.77-2.61,9.89c-1.67,3.13-3.85,5.73-6.35,7.08
	l-52.29,30c-1.26,0.73-2.5,1.04-3.55,1.04c-0.94,0-1.77-0.21-2.61-0.73c-0.73-0.42-1.35-1.15-1.87-1.98
	C92.03,221.62,91.61,219.85,91.61,217.76L91.61,217.76z M92.23,166.62v51.15c0,2.08,0.42,3.75,1.15,5c0.41,0.83,1.05,1.46,1.67,1.87
	c0.62,0.42,1.46,0.63,2.29,0.63c1.05,0,2.08-0.31,3.34-0.94l52.29-30c2.4-1.35,4.58-3.85,6.15-6.88c1.56-3.02,2.6-6.46,2.6-9.58
	v-51.04L92.23,166.62z"/>
<polygon class="st3" points="85.87,82.24 161.81,126.1 92.03,166.2 16.19,122.45 "/>
<polygon class="st1" points="69.24,96.73 69.18,92.29 16.19,122.76 92.03,166.51 161.71,126.31 148.91,118.92 144.74,120.8 
	152.75,126.1 91.92,161.2 35.25,128.91 24,123.18 "/>
<path class="st0" d="M161.19,126.1L85.87,82.56l-69.48,40l75.52,43.44L161.19,126.1L161.19,126.1z M86.09,82.03l75.83,43.85
	c0.11,0.1,0.21,0.21,0.11,0.42l-0.11,0.1l-69.8,40.31c-0.09,0.1-0.2,0-0.31,0l-76.15-43.75c-0.1-0.1-0.21-0.21-0.1-0.42l0.1-0.1
	l70.01-40.42C85.87,81.93,85.98,81.93,86.09,82.03z"/>
<path class="st1" d="M180.04,106.93l0.21-44.9c0-5.31-4.28-7.19-9.48-4.27l-7.61,4.27l-0.09,0.21v63.96l7.49-4.17
	C175.67,119.01,179.94,112.24,180.04,106.93z"/>
<path class="st0" d="M180.47,62.03l-0.21,44.9c0,2.71-1.15,5.73-2.91,8.54c-1.77,2.71-4.17,5.21-6.88,6.77l-7.7,4.37l-0.42,0.21
	V62.35l0.11-0.21l0.11-0.1l7.81-4.38c1.77-0.94,3.34-1.46,4.79-1.46c0.94,0,1.77,0.21,2.5,0.62c0.73,0.42,1.36,1.04,1.77,1.77
	C180.15,59.43,180.47,60.68,180.47,62.03L180.47,62.03z M179.74,106.93l0.2-44.9c0-1.25-0.2-2.4-0.73-3.23
	c-0.41-0.73-0.94-1.25-1.56-1.56c-0.62-0.31-1.46-0.52-2.29-0.52c-1.35,0-2.91,0.42-4.47,1.36l-7.81,4.37l-0.11,0.1v63.33l7.28-4.17
	c2.61-1.46,4.9-3.85,6.67-6.56C178.69,112.55,179.74,109.53,179.74,106.93z"/>
<polygon class="st1" points="91.82,85.16 91.82,21.2 162.97,62.35 162.97,126.2 "/>
<polygon class="st4" points="159.01,123.8 159.01,64.22 94.62,26.93 94.94,44.12 94.94,86.1 "/>
<path class="st5" d="M94.46,41.95v43.87l54.75,32.27V65.92c0-3.82-2.37-8.35-5.25-10l-37.9-22.18l-4.07,4.97L94.46,41.95z"/>
<path class="st0" d="M159.42,124.12l-0.52-0.31V64.22L94.84,27.14v59.69l-0.52-0.31V26.72c0-0.1,0.11-0.31,0.31-0.31
	c0.11,0,0.11,0,0.11,0l64.48,37.5c0.11,0,0.11,0.1,0.11,0.21v60H159.42z"/>
<path class="st0" d="M91.92,21.62v63.23l70.41,40.83V62.45C162.44,62.45,91.92,21.62,91.92,21.62L91.92,21.62z M91.39,85.05V21.1
	c0-0.11,0.11-0.31,0.32-0.31c0.11,0,0.11,0,0.21,0l71.04,41.15c0.11,0,0.11,0.1,0.11,0.21v63.85c0,0.1-0.11,0.31-0.32,0.31
	c-0.11,0-0.11,0-0.11,0L91.5,85.26C91.39,85.26,91.39,85.16,91.39,85.05z"/>
<path class="st4" d="M57.02,165.78l-9.69-5.62l-3.23,2.29l2.19,4.9l3.44,10.52l2.71,3.44c3.96-2.39,4.37-2.92,4.48-6.25
	L57.02,165.78z"/>
<path class="st0" d="M47.54,159.74l9.69,5.63c0.1,0.1,0.21,0.21,0.21,0.42v9.17c0,1.77-0.21,2.81-0.94,3.75
	c-0.62,0.94-1.77,1.67-3.75,2.81c-0.21,0.1-0.42,0.1-0.62-0.1l-2.71-3.44l-3.44-10.52c0,0,0,0,0-0.11l-2.19-4.79
	c-0.1-0.21,0-0.42,0.1-0.52l3.23-2.29C47.23,159.64,47.34,159.64,47.54,159.74L47.54,159.74z M56.61,165.99l-9.27-5.42l-2.71,1.87
	l2.08,4.48l3.33,10.42l2.5,3.13c1.67-1.04,2.71-1.67,3.23-2.4c0.52-0.73,0.73-1.67,0.73-3.23L56.61,165.99z"/>
<path class="st2" d="M53.79,167.76l-9.69-5.31v10.31c0,8.23,9.69,11.98,9.69,5.52V167.76z"/>
<path class="st0" d="M129.32,111.83l24.06,13.96c0.11,0.1,0.2,0.21,0.11,0.42l-0.11,0.1l-61.35,35.42c-0.11,0.1-0.21,0-0.32,0
	L23.9,123.18c-0.1-0.1-0.21-0.21-0.1-0.42l0.1-0.1l47.32-27.28v0.62l-46.59,26.86l67.3,38.34l60.73-35.11l-23.34-13.54V111.83
	L129.32,111.83z M44.31,161.93c-0.21-0.1-0.42,0-0.52,0.1c-0.1,0.1-0.1,0.1-0.1,0.21v10.31c0,4.06,2.19,7.08,4.58,8.44
	c0.73,0.42,1.46,0.73,2.19,0.83c0.73,0.1,1.35,0.1,1.98-0.21c1.04-0.52,1.77-1.67,1.77-3.44v-10.52c0-0.21-0.1-0.31-0.21-0.42
	L44.31,161.93L44.31,161.93z M53.38,167.97v10.21c0,1.46-0.52,2.29-1.25,2.6c-0.52,0.21-1.04,0.31-1.56,0.21
	c-0.62-0.11-1.25-0.42-1.88-0.73c-2.19-1.25-4.17-3.96-4.17-7.6v-9.58L53.38,167.97z"/>
<path class="st6" d="M49.47,20.25c12.92,7.41,23.36,27.29,23.36,44.26c0,9.32-3.14,15.95-8.2,18.64c-0.45,0.22-0.79,0.45-1.24,0.56
	l-9.55,4.38l-2.36-5.39c-0.68-0.34-1.35-0.67-2.02-1.01C36.55,74.16,26.11,54.4,26.11,37.44c0-3.26,0.45-6.63,1.46-9.77l-2.13-4.72
	l8.98-4.16C38.58,16.66,43.74,16.99,49.47,20.25z"/>
<path class="st7" d="M39.36,24.97c12.92,7.53,23.36,27.29,23.36,44.26c0,16.96-10.45,24.6-23.36,17.18
	C26.45,78.99,16,59.11,16,42.15C16,25.19,26.45,17.44,39.36,24.97z"/>
<g>
	<g>
		<path class="st8" d="M45.8,40.3c3.46,1.41,6.29,9.64,6.33,18.38c0.03,8.75-2.74,14.7-6.2,13.3c-3.46-1.4-6.29-9.64-6.33-18.38
			C39.57,44.84,42.34,38.89,45.8,40.3z"/>
		<path class="st1" d="M38.94,47l0.61,2.36l2.91,1.62c0.88,0.41,1.65,1.21,2.19,2.15c0.49,0.86,0.82,1.91,0.85,2.92l0.02,0.5
			c0.03,0.76-0.11,1.45-0.38,2.01c-0.24,0.51-0.59,0.94-1.02,1.25c-0.47,0.34-1.03,0.54-1.65,0.56c-0.5,0.02-1.02-0.09-1.54-0.33
			l-2.65-1.2C37.86,55.09,38.15,50.62,38.94,47z"/>
		<path class="st8" d="M41.92,41.98c-1.14,3.04-5.82,6.09-8.86,4.67c-2.46-1.15-3-1.31-5.7-2.59c-4.06-1.92-3.56,8.26-1,9.47
			c2.46,1.16,5.78,2.59,8.48,3.82c3.53,1.61,6.17,6.24,7.87,11.07"/>
		<path class="st1" d="M25.46,54.47l1.81-0.93l4.86,3.03c0.43,1.08,0.64,2.23,0.64,3.48l0.33,8.44c0.04,1.1-0.82,2.02-1.92,2.06
			c-1.1,0.04-2.02-0.82-2.06-1.92l-0.33-8.44V60.1c0-0.76-0.11-1.44-0.35-2.06v-0.01C27.77,56.11,26,55,25.46,54.47z"/>
	</g>
</g>
<g>
	<g>
		<polygon class="st9" points="127,152.7 140.02,160.3 127,167.7 		"/>
		<path class="st10" d="M154.4,196.34l11.87-6.77c0.11,0,0.21-0.1,0.21-0.1h0.09c1.05-0.73,1.67-1.98,1.67-3.75l0.11-20.52
			c0-4.06-3.34-9.37-7.4-11.67l-16.03-9.06c-3.14-1.77-4.79-1.15-7.19,0.31l-10.01,5.73l14.69,22.29L154.4,196.34z"/>
		<path class="st11" d="M125.33,174.88l0.11-20.52c0-4.06,3.44-5.52,7.5-3.23l16.03,9.06c4.06,2.29,7.5,7.6,7.4,11.67l-0.11,20.52
			c0,4.06-3.43,5.52-7.49,3.23l-16.04-9.06C128.67,184.15,125.33,178.95,125.33,174.88z"/>
	</g>
	<path class="st1" d="M149.65,170.58l-12.96,9.25c-0.57,0-1.42-0.38-1.85-1.39c0,0,0-0.13-0.14-0.13l-3.42-6.46
		c-1.85-3.67,2.28-5.45,3.7-2.53l1.99,4.05l10.4-7.47C150.5,163.49,152.5,168.43,149.65,170.58z"/>
</g>
<path class="st12" d="M170.12,99.51l5.31-2.81c1-0.58,2.01-2.13,1.94-3.7l0.34-50.04c0-3.29-2.73-7.61-6.02-9.54l-37.05-20.85
	c-2.61-1.48-3.86-0.91-5.9,0.23l-3.64,2.05l20.67,29.65L170.12,99.51z"/>
<path class="st13" d="M123.17,68.68l0.12-50.55c0-3.3,2.73-4.54,6.14-2.61l36.37,20.76c3.29,1.93,6.02,6.25,6.02,9.54l-0.12,50.55
	c0,3.29-2.73,4.54-6.13,2.61l-36.37-20.75C125.9,76.29,123.17,71.97,123.17,68.68z"/>
<path class="st1" d="M133.12,51.74l2.14,1.26c0.75,0.45,1.34,1.72,1.34,2.82v18.62l-4.88-2.82V52.95
	C131.78,51.85,132.38,51.29,133.12,51.74L133.12,51.74z M141.78,67.26l2.14,1.26c0.75,0.45,1.34,1.72,1.34,2.82v8.1l-4.88-2.82v-8.1
	C140.44,67.42,141.04,66.86,141.78,67.26L141.78,67.26z M150.45,61.05l2.14,1.26c0.75,0.45,1.34,1.72,1.34,2.82v19.26l-4.88-2.82
	V62.25C149.1,61.15,149.7,60.64,150.45,61.05L150.45,61.05z M159.11,51.47l2.14,1.26c0.75,0.45,1.34,1.72,1.34,2.82v33.82l-0.05,0
	l-4.83-2.77V52.73C157.71,51.63,158.36,51.07,159.11,51.47z"/>
<path class="st5" d="M136.61,60.52v13.93l-4.88-2.82V57.71L136.61,60.52L136.61,60.52z M142.89,67.92c0.92,2.07,1.46,4.29,1.46,6.38
	v4.61l-3.96-2.29v-8.1c0.05-1.1,0.65-1.66,1.39-1.25L142.89,67.92z"/>
<path class="st7" d="M160.39,38.77c1.56,0.91,2.82,3.29,2.82,5.33c0,2.04-1.26,2.96-2.82,2.07c-1.56-0.89-2.82-3.29-2.82-5.33
	C157.57,38.8,158.83,37.87,160.39,38.77z"/>
<path class="st7" d="M144.32,47.62c1.56,0.91,2.82,3.29,2.82,5.33c0,2.04-1.26,2.96-2.82,2.07c-1.56-0.89-2.82-3.29-2.82-5.33
	C141.5,47.64,142.76,46.71,144.32,47.62z"/>
<polyline class="st14" points="159.59,43.78 144.17,51.86 134.46,41.51 "/>
<path class="st6" d="M100.52,93.21c0.27,0,0.62,0.09,0.89,0.26c0.53,0.27,0.79,0.88,0.79,1.41v48.68c0,2.12,1.59,4.77,3.19,5.48
	c0.09,0,0.35,0.18,0.53,0.09c0.09,0,0.18-0.09,0.18-0.09l4.32-2.39c0.36-0.18,0.8-0.26,1.24-0.18l12.28-7.24v-23.32
	c0-0.62,0.36-1.15,0.89-1.5c0.53-0.27,1.15-0.27,1.68,0.09c0,0,0.08,0.09,0.17,0.09c0.45,0.26,0.71,0.26,0.89,0.18
	c0.09,0,0.09-0.09,0.18-0.09l6.26-3.53c0.71-0.44,0.89-0.62,0.89-1.41V75.45c0-3.98-2.74-8.92-5.92-10.78L111.48,54.6
	c-0.71-0.35-0.98-1.24-0.8-1.94c0.27-0.8,0.97-1.24,1.76-1.15c0.54,0.09,0.98,0,1.32-0.18c0.09,0,0.18-0.09,0.27-0.09l6.28-3.53
	c1.32-0.79,2.03-2.21,2.03-4.15c0-4.51-3.1-9.98-6.63-12.1c-1.58-0.88-2.65-0.8-3.79-0.27l-6.01,3.36c-0.09,0-0.18,0.09-0.27,0.09
	c-1.15,0.44-1.85,1.94-1.85,4.06c0,3.36,1.76,7.51,4.33,10.16c0.62,0.62,0.62,1.5,0.09,2.21c-0.54,0.71-1.41,0.79-2.12,0.44
	l-1.41-0.79c-0.89-0.53-2.83-1.15-5.3,0.26l-5.22,3.01c-0.17,0.18-0.26,0.26-0.44,0.35c-1.59,0.62-2.38,2.12-2.38,4.15v32.07
	c0,1.94,1.32,4.42,2.91,5.3c0.45,0.26,0.71,0.26,0.89,0.26c0.09,0,0.18-0.09,0.18-0.18l4.5-2.56
	C99.9,93.3,100.25,93.21,100.52,93.21L100.52,93.21z M105.82,152.49c-0.53,0-1.15-0.09-1.67-0.35c-2.92-1.15-5.31-5.12-5.31-8.57
	V97.71l-1.94,1.06c-0.17,0.18-0.44,0.27-0.71,0.35c0,0-0.09,0-0.17,0.09c-1.16,0.44-2.39,0.27-3.72-0.44
	c-2.56-1.5-4.59-5.12-4.59-8.22V58.49c0-3.18,1.5-5.74,4.06-7.07c0.09-0.09,0.18-0.09,0.26-0.18l5.57-3.18
	c1.59-0.88,3.27-1.32,4.86-1.32c-1.32-2.56-2.12-5.48-2.12-8.04c0-3.53,1.41-6.18,3.88-7.16l6.02-3.36c0,0,0.08,0,0.08-0.09
	c2.39-1.15,4.6-0.97,6.98,0.35c4.68,2.65,8.4,9.28,8.4,14.93c0,3.18-1.32,5.65-3.72,7.07l-5.48,3.09l14.13,8.13
	c4.24,2.48,7.6,8.48,7.6,13.69v34.28c0,2.47-1.23,3.53-2.47,4.33l-6.27,3.53c-0.62,0.44-1.32,0.62-2.03,0.62v22.08
	c0,0.62-0.35,1.15-0.8,1.41l-14.39,8.48c-0.45,0.26-0.89,0.26-1.32,0.18l-3.28,1.85c-0.09,0.09-0.26,0.09-0.35,0.18
	C106.8,152.4,106.26,152.49,105.82,152.49z"/>
<path class="st15" d="M121.1,49.21l-6.62,3.8l-7.06-12.19l-2.65-7.33l6.35-3.53c1.59-0.71,3.27-0.97,5.39,0.27
	c4.15,2.39,7.51,8.39,7.51,13.52C124.02,46.56,122.69,48.24,121.1,49.21z"/>
<path class="st6" d="M121.1,49.21L121.1,49.21L121.1,49.21z M105.2,33.58l2.56,6.98l6.8,11.75l6.27-3.53
	c1.76-1.06,2.65-2.83,2.65-5.21c0-4.95-3.27-10.87-7.24-13.16c-1.77-0.97-3.27-1.06-5.04-0.26L105.2,33.58L105.2,33.58z
	 M114.48,53.36c-0.17,0-0.26-0.09-0.35-0.18L107.06,41l-2.74-7.42c-0.09-0.18,0-0.44,0.18-0.53l6.36-3.53
	c2.03-0.97,3.79-0.88,5.83,0.26c4.24,2.47,7.78,8.66,7.78,13.87c0,3.45-1.68,5.12-3.1,6.01l-6.62,3.8
	C114.66,53.36,114.57,53.36,114.48,53.36z"/>
<path class="st15" d="M114.93,100.27c0-1.06,0.71-1.5,1.58-1.06c0.98,0.53,1.68,1.94,1.68,3.09v30.65l-3.27-0.71V100.27
	L114.93,100.27z M125.7,79.87c0-1.24,0.8-1.77,1.85-1.24c0.8,0.44,1.41,1.59,1.41,2.65v17.4l-3.27,0.62V79.87L125.7,79.87z
	 M101.67,94.27c1.59,0.35,2.3-1.06,2.3-3.18V67.06c0-1.15,0.71-1.59,1.67-1.06c0.98,0.62,1.86,2.03,1.86,3.27v61.4l-0.54-0.09
	l-3.71,11.04l3.54,10.69l6.8-3.8l0.17,0.44l12.02-7.07v-35.69l2.56,10.07l6.53-3.71c0.98-0.62,1.68-1.24,1.68-2.83V75.45
	c0-4.59-3.1-10.07-6.8-12.19l-11.23-6.45l-4.15-2.38l-8.91-5.12c-1.68-0.97-4.15-1.32-6.98,0.27c-2.83,1.59-5.57,3.18-5.57,3.18
	l2.56,44.97L101.67,94.27z"/>
<path class="st6" d="M126.76,78.81c-0.09,0-0.18,0-0.26,0.09c-0.27,0.18-0.36,0.44-0.36,0.97v18.82l2.39-0.44V81.28
	c0-0.79-0.54-1.85-1.25-2.21C127.2,78.9,126.94,78.81,126.76,78.81L126.76,78.81z M125.7,99.66c-0.09,0-0.18,0-0.27-0.09
	c-0.09-0.09-0.18-0.18-0.18-0.35V79.78c0-0.8,0.27-1.41,0.8-1.68c0.53-0.26,1.07-0.26,1.68,0.09c0.97,0.53,1.67,1.86,1.67,3v17.49
	c0,0.18-0.17,0.44-0.35,0.44L125.7,99.66C125.79,99.66,125.79,99.66,125.7,99.66L125.7,99.66z M115.36,131.9l2.38,0.53v-30.12
	c0-0.97-0.7-2.21-1.49-2.65c-0.27-0.18-0.54-0.18-0.62-0.09c-0.18,0.09-0.27,0.35-0.27,0.8V131.9L115.36,131.9z M118.19,133.4h-0.09
	l-3.27-0.71c-0.18,0-0.36-0.26-0.36-0.44v-31.98c0-0.71,0.27-1.24,0.71-1.5c0.45-0.26,0.98-0.18,1.5,0.09
	c1.06,0.62,1.94,2.12,1.94,3.45v30.65c0,0.18-0.09,0.27-0.18,0.35C118.45,133.4,118.37,133.4,118.19,133.4L118.19,133.4z
	 M103.61,141.62l3.63-10.51h0.09c0.09,0,0.26,0,0.35-0.09c0.09-0.09,0.18-0.18,0.18-0.35v-61.4c0-1.41-0.89-3-2.03-3.71
	c-0.62-0.35-1.15-0.35-1.59-0.09c-0.44,0.35-0.71,0.88-0.71,1.59V91c0,1.32-0.35,2.3-0.79,2.65c-0.27,0.27-0.54,0.27-0.98,0.18
	c-0.18-0.09-0.26-0.09-0.35,0l-5.48,3.09l-2.48-43.91l5.31-3c3-1.77,5.39-0.88,6.53-0.27l24.29,13.87
	c3.63,2.12,6.53,7.42,6.53,11.84v34.37c0,1.32-0.53,1.85-1.49,2.47l-6.02,3.44l-2.47-9.54c0-0.27-0.27-0.35-0.44-0.35
	c-0.18,0-0.36,0.18-0.36,0.44v34.98l-11.39,6.63c-0.09-0.09-0.18-0.18-0.27-0.18c-0.08-0.09-0.26-0.09-0.35,0l-6.36,3.98
	L103.61,141.62L103.61,141.62z M106.71,152.75c-0.09,0-0.09,0-0.18,0c-0.09-0.09-0.18-0.18-0.27-0.26l-3.53-10.69
	c0-0.09,0-0.18,0-0.26l3.71-11.04c0.09-0.18,0.27-0.35,0.45-0.26V69.27c0-1.06-0.71-2.39-1.59-2.91c-0.27-0.18-0.53-0.18-0.71-0.09
	c-0.18,0.09-0.27,0.44-0.27,0.79V91c0,1.59-0.35,2.74-1.06,3.36c-0.27,0.27-0.8,0.44-1.59,0.35l-5.92,3.36
	c-0.18,0.09-0.27,0.09-0.44,0c-0.18-0.09-0.18-0.18-0.27-0.35l-2.56-44.97c0-0.18,0.09-0.35,0.26-0.44l5.57-3.09
	c3.45-1.94,6.1-0.97,7.42-0.27l24.29,13.96c3.89,2.21,6.98,7.86,6.98,12.54v34.28c0,1.77-0.71,2.56-1.94,3.27l-6.53,3.71
	c-0.09,0.09-0.27,0.09-0.36,0c-0.09-0.09-0.18-0.18-0.27-0.27l-1.76-6.71v31.72c0,0.18-0.09,0.26-0.18,0.35l-12.01,7.07
	c-0.09,0.09-0.27,0.09-0.35,0c-0.09,0-0.18-0.09-0.27-0.18l-6.36,3.98C106.89,152.75,106.8,152.75,106.71,152.75z"/>
<path class="st1" d="M93.28,97.27L93.28,97.27c2.03,1.15,3.79,0.09,3.79-2.47V70.86c0-1.15,0.71-1.59,1.68-1.06
	c0.97,0.62,1.85,2.03,1.85,3.27v71.73c0,2.74,1.94,6.1,4.24,6.98c1.85,0.79,3.27-0.53,3.27-2.83v-42.58c0-1.06,0.71-1.5,1.58-1.06
	c0.98,0.53,1.68,1.94,1.68,3.09v41.52l7.51-4.42V83.67c0-1.24,0.8-1.77,1.85-1.24c0.8,0.44,1.41,1.59,1.41,2.65v24.21
	c0,2.56,1.67,5.57,3.79,6.71c2.03,1.15,3.8,0.09,3.8-2.47V79.34c0-4.59-3.1-10.07-6.8-12.19l-11.31-6.45l-4.14-2.39l-8.92-5.12
	c-3.72-2.12-9.1-0.35-9.1,5.3v32.07C89.48,93.03,91.25,96.12,93.28,97.27z"/>
<path class="st6" d="M97.96,69.18c0.26,0,0.62,0.09,0.88,0.27c1.16,0.71,2.03,2.3,2.03,3.71v71.73c0,2.56,1.95,5.74,3.98,6.63
	c0.62,0.26,1.23,0.26,1.67-0.09c0.62-0.44,0.98-1.24,0.98-2.38v-42.58c0-0.71,0.26-1.24,0.71-1.5c0.44-0.26,0.97-0.18,1.49,0.09
	c1.07,0.62,1.94,2.12,1.94,3.45v40.64l6.63-3.89V83.67c0-0.79,0.26-1.41,0.8-1.68c0.53-0.26,1.06-0.26,1.67,0.09
	c0.98,0.53,1.68,1.85,1.68,3v24.21c0,2.39,1.58,5.3,3.53,6.36c0.8,0.44,1.59,0.53,2.12,0.27c0.62-0.35,0.98-1.15,0.98-2.3V79.34
	c0-4.42-2.92-9.72-6.54-11.84L98.4,53.54c-1.85-1.06-4.15-1.06-5.83-0.09C90.89,54.42,90,56.19,90,58.49v32.07
	c0,2.39,1.59,5.3,3.54,6.36c0.8,0.44,1.59,0.53,2.12,0.26c0.62-0.35,0.98-1.15,0.98-2.3V70.86c0-0.71,0.26-1.24,0.71-1.59
	C97.51,69.27,97.78,69.18,97.96,69.18L97.96,69.18z M105.82,152.57c-0.35,0-0.8-0.09-1.23-0.26c-2.39-0.97-4.5-4.42-4.5-7.42V73.15
	c0-1.06-0.71-2.38-1.59-2.92c-0.27-0.18-0.53-0.18-0.71-0.09c-0.18,0.09-0.27,0.44-0.27,0.79v23.94c0,1.41-0.53,2.56-1.41,3.09
	c-0.88,0.53-1.94,0.44-3-0.26c-2.21-1.24-3.97-4.51-3.97-7.16V58.49c0-2.56,1.06-4.59,3-5.74c1.94-1.15,4.6-1.15,6.71,0.09
	l24.21,13.87c3.88,2.21,6.97,7.86,6.97,12.54v34.28c0,1.41-0.53,2.56-1.41,3.09c-0.88,0.53-1.94,0.44-3-0.18
	c-2.21-1.24-3.97-4.51-3.97-7.16V85.08c0-0.79-0.54-1.85-1.24-2.21c-0.36-0.18-0.63-0.26-0.8-0.09c-0.27,0.18-0.36,0.44-0.36,0.97
	v61.84c0,0.18-0.09,0.27-0.17,0.35l-7.51,4.42c-0.18,0.09-0.27,0.09-0.45,0c-0.17-0.09-0.26-0.26-0.26-0.35v-41.43
	c0-0.97-0.71-2.21-1.5-2.65c-0.27-0.18-0.53-0.18-0.62-0.09c-0.18,0.09-0.27,0.35-0.27,0.8v42.4c0,1.41-0.53,2.56-1.32,3.18
	C106.71,152.4,106.26,152.57,105.82,152.57z"/>
<path class="st1" d="M104.64,33.34c3.1-1.57,7.82,1.52,10.58,6.9c2.75,5.39,2.47,11.03-0.61,12.61c-3.09,1.57-7.82-1.52-10.57-6.9
	C101.29,40.56,101.56,34.91,104.64,33.34z"/>
<path class="st6" d="M106.44,33.4c-0.62,0-1.24,0.18-1.76,0.44c-1.32,0.79-2.12,2.56-2.12,4.95c0,4.95,3.27,10.87,7.24,13.16
	c1.77,1.06,3.45,1.15,4.68,0.44c1.32-0.8,2.12-2.56,2.12-4.95c0-4.95-3.27-10.87-7.24-13.16C108.29,33.66,107.33,33.4,106.44,33.4
	L106.44,33.4z M112.8,53.72c-1.07,0-2.21-0.35-3.45-1.06c-4.24-2.47-7.78-8.66-7.78-13.87c0-2.74,0.89-4.77,2.57-5.74
	c1.49-0.88,3.53-0.71,5.56,0.44c4.24,2.47,7.78,8.66,7.78,13.87c0,2.74-0.89,4.77-2.56,5.74C114.31,53.54,113.6,53.72,112.8,53.72z"
	/>
<g>
	<path class="st11" d="M82.65,153.31l8.57,4.86l13.25-7.77v-4.42c0-0.62,0.35-1.15,0.89-1.5c0.53-0.26,1.15-0.26,1.67,0.09
		c0,0,0.09,0.09,0.18,0.09c0.44,0.27,0.71,0.27,0.89,0.18c0,0,0.09-0.09,0.17-0.09l6.28-3.53c0.71-0.44,0.89-0.62,0.89-1.41v-31.63
		c0-3.98-2.74-8.92-5.92-10.78l-17.67-9.98c-0.71-0.35-0.98-1.24-0.8-1.94c0.26-0.79,0.97-1.24,1.76-1.15
		c0.53,0.09,0.98,0,1.32-0.18c0.09,0,0.18-0.09,0.27-0.09l6.27-3.53c1.32-0.8,2.03-2.21,2.03-4.15c0-4.51-3.1-9.98-6.63-12.1
		c-1.58-0.88-2.65-0.8-3.79-0.26l-6.01,3.36c-0.09,0-0.18,0.09-0.27,0.09c-1.15,0.44-1.85,1.94-1.85,4.06
		c0,3.36,1.76,7.51,4.33,10.16c0.62,0.62,0.62,1.5,0.09,2.21c-0.54,0.62-1.41,0.8-2.12,0.44l-1.41-0.79
		c-0.89-0.53-2.83-1.15-5.3,0.27l-5.21,3c-0.18,0.18-0.26,0.26-0.44,0.35c-1.59,0.62-2.39,2.12-2.39,4.15v32.07
		c0,1.94,1.33,4.42,2.92,5.3c0.44,0.27,0.71,0.27,0.88,0.27c0.09,0,0.18-0.09,0.18-0.18l4.51-2.56c0.53-0.27,1.15-0.27,1.68,0
		c0.53,0.26,0.79,0.88,0.79,1.41V153.31L82.65,153.31z M79.21,153.78v-23.26l-1.94,1.06c-0.18,0.18-0.44,0.26-0.71,0.35
		c0,0-0.09,0-0.09,0.09c-1.15,0.44-2.47,0.27-3.71-0.44c-2.56-1.5-4.59-5.12-4.59-8.22V91.21c0-3.18,1.5-5.74,4.06-7.07
		c0.09-0.09,0.18-0.09,0.26-0.18l5.56-3.18c1.59-0.88,3.27-1.32,4.86-1.32c-1.32-2.56-2.12-5.48-2.12-8.04
		c0-3.53,1.41-6.18,3.89-7.16l6-3.36c0,0,0.09,0,0.09-0.09c2.39-1.15,4.59-0.97,6.98,0.35c4.68,2.65,8.4,9.28,8.4,14.93
		c0,3.18-1.33,5.65-3.72,7.07l-5.48,3.09l14.13,8.13c4.24,2.47,7.6,8.48,7.6,13.69v31.62c0,2.47-1.23,3.53-2.47,4.33l-6.27,3.53
		c-0.62,0.44-1.32,0.62-2.03,0.62v3.09c0,0.62-0.36,1.15-0.8,1.42l-14.64,8.57L79.21,153.78z"/>
	<path class="st16" d="M106.16,112.59c0-1.24,0.79-1.77,1.85-1.24c0.8,0.44,1.41,1.59,1.41,2.65v17.4l-3.27,0.62V112.59
		L106.16,112.59z M82.03,126.99c1.59,0.35,2.3-1.06,2.3-3.18V99.78c0-1.15,0.71-1.59,1.68-1.06c0.98,0.62,1.86,2.03,1.86,3.27v56.68
		l4.13,2.33l3.37-1.94v-26.06c0-1.06,0.71-1.5,1.59-1.06c0.98,0.53,1.68,1.94,1.68,3.09v22.09l7.51-4.42v-13.78l2.56,7.42l6.53-3.71
		c0.98-0.62,1.68-1.24,1.68-2.83v-31.63c0-4.59-3.1-10.07-6.8-12.19l-11.14-6.36l-4.15-2.39l-8.92-5.12
		c-1.67-0.97-4.15-1.33-6.98,0.26c-2.83,1.59-5.56,3.18-5.56,3.18l2.56,44.96L82.03,126.99z"/>
	<path class="st11" d="M107.21,111.62c-0.09,0-0.18,0-0.27,0.09c-0.26,0.18-0.35,0.44-0.35,0.97v18.91l2.38-0.44v-17.05
		c0-0.79-0.53-1.86-1.24-2.21C107.56,111.62,107.39,111.62,107.21,111.62L107.21,111.62z M106.16,132.46c-0.09,0-0.18,0-0.27-0.09
		c-0.09-0.09-0.18-0.18-0.18-0.35v-19.44c0-0.79,0.27-1.41,0.8-1.68c0.53-0.27,1.06-0.27,1.68,0.09c0.97,0.53,1.67,1.86,1.67,3v17.4
		c0,0.18-0.18,0.44-0.35,0.44L106.16,132.46C106.23,132.46,106.16,132.46,106.16,132.46L106.16,132.46z M91.61,160.78l3.32-1.9
		v-25.8c0-0.71,0.27-1.24,0.71-1.5c0.44-0.27,0.98-0.18,1.5,0.09c1.06,0.62,1.94,2.12,1.94,3.45v21.29l6.62-3.89V139
		c0-0.18,0.18-0.44,0.36-0.44c0.17,0,0.44,0.09,0.53,0.26l2.38,6.89l6.1-3.44c0.98-0.62,1.5-1.15,1.5-2.48v-31.63
		c0-4.42-2.92-9.72-6.53-11.84L85.75,82.46c-1.15-0.62-3.54-1.5-6.54,0.27l-5.3,3l2.56,43.91l5.48-3.09c0.09-0.09,0.18-0.09,0.35,0
		c0.44,0.09,0.71,0.09,0.97-0.18c0.44-0.35,0.79-1.32,0.79-2.65V99.78c0-0.71,0.26-1.24,0.71-1.59c0.44-0.26,0.98-0.26,1.59,0.09
		c1.15,0.71,2.03,2.3,2.03,3.71v56.98l-0.98-0.55v-56.34c0-1.06-0.71-2.38-1.58-2.92c-0.27-0.18-0.54-0.18-0.71-0.09
		c-0.18,0.09-0.27,0.44-0.27,0.79v23.94c0,1.59-0.35,2.74-1.06,3.36c-0.27,0.26-0.79,0.44-1.59,0.35l-5.92,3.36
		c-0.18,0.09-0.26,0.09-0.44,0c-0.18-0.09-0.18-0.18-0.27-0.35l-2.56-44.96c0-0.18,0.09-0.35,0.26-0.44l5.57-3.18
		c3.45-1.94,6.1-0.97,7.42-0.26l24.29,13.96c3.88,2.21,6.98,7.86,6.98,12.55v31.63c0,1.77-0.71,2.56-1.94,3.27l-6.54,3.71
		c-0.09,0.09-0.26,0.09-0.35,0c-0.09-0.09-0.18-0.18-0.27-0.26l-1.76-4.95v11.22c0,0.18-0.09,0.27-0.18,0.35l-7.51,4.42
		c-0.18,0.09-0.26,0.09-0.44,0c-0.18-0.09-0.27-0.27-0.27-0.35v-22.09c0-0.97-0.71-2.21-1.5-2.65c-0.26-0.18-0.53-0.18-0.62-0.09
		c-0.17,0.09-0.26,0.35-0.26,0.79v26.06c0,0.18-0.09,0.26-0.18,0.35l-3.09,1.77L91.61,160.78z"/>
	<path class="st16" d="M101.55,81.93l-6.62,3.8l-7.06-12.19l-2.66-7.33l6.36-3.53c1.59-0.71,3.27-0.97,5.39,0.27
		c4.15,2.39,7.51,8.39,7.51,13.52C104.38,79.28,103.15,80.96,101.55,81.93z"/>
	<path class="st11" d="M101.55,81.93L101.55,81.93L101.55,81.93z M85.66,66.29l2.56,6.98l6.8,11.75l6.27-3.53
		c1.76-1.06,2.65-2.83,2.65-5.21c0-4.95-3.27-10.87-7.24-13.16c-1.77-0.97-3.28-1.06-5.04-0.27L85.66,66.29L85.66,66.29z
		 M94.93,86.08c-0.18,0-0.27-0.09-0.35-0.18l-7.07-12.19l-2.74-7.42c-0.09-0.18,0-0.44,0.18-0.53l6.35-3.53
		c2.03-0.97,3.81-0.88,5.84,0.26c4.24,2.47,7.77,8.66,7.77,13.87c0,3.45-1.67,5.12-3.09,6.01l-6.71,3.71
		C95.02,86.08,95.02,86.08,94.93,86.08z"/>
	<path class="st1" d="M85,66.09c3.09-1.58,7.81,1.52,10.57,6.9c2.75,5.39,2.48,11.03-0.61,12.61c-3.09,1.58-7.81-1.52-10.57-6.9
		C81.64,73.31,81.91,67.66,85,66.09z"/>
	<path class="st11" d="M86.8,66.12c-0.62,0-1.23,0.18-1.76,0.44c-1.33,0.79-2.12,2.56-2.12,4.95c0,4.95,3.27,10.87,7.24,13.16
		c1.77,1.06,3.45,1.15,4.68,0.44c1.32-0.8,2.12-2.56,2.12-4.95c0-4.95-3.27-10.87-7.24-13.16C88.74,66.47,87.78,66.12,86.8,66.12
		L86.8,66.12z M93.17,86.44c-1.07,0-2.21-0.35-3.45-1.06c-4.24-2.47-7.78-8.66-7.78-13.87c0-2.74,0.88-4.77,2.56-5.74
		c1.5-0.88,3.53-0.71,5.56,0.44c4.24,2.47,7.78,8.66,7.78,13.87c0,2.74-0.89,4.77-2.56,5.74C94.75,86.26,93.96,86.44,93.17,86.44z"
		/>
	<path class="st1" d="M73.73,130.08L73.73,130.08c2.03,1.15,3.8,0.09,3.8-2.47v-23.94c0-1.15,0.71-1.59,1.68-1.06
		c0.97,0.62,1.86,2.03,1.86,3.27v48.95l7.51,4.24v-19.89c0-1.06,0.7-1.5,1.58-1.06c0.98,0.53,1.68,1.94,1.68,3.09v19.7l0.23,0.13
		l7.28-4.28v-40.37c0-1.24,0.79-1.77,1.85-1.24c0.8,0.44,1.41,1.59,1.41,2.65v21.56c0,2.56,1.67,5.57,3.79,6.71
		c2.03,1.15,3.8,0.09,3.8-2.47v-31.63c0-4.59-3.1-10.07-6.8-12.19l-11.23-6.45l-4.15-2.39l-8.92-5.12c-3.71-2.12-9.1-0.35-9.1,5.3
		v32.07C69.93,125.84,71.61,128.84,73.73,130.08z"/>
	<path class="st11" d="M89.36,137.5c0.27,0,0.62,0.09,0.89,0.26c1.06,0.62,1.94,2.12,1.94,3.45v19.26l6.62-3.89v-40.2
		c0-0.79,0.27-1.41,0.8-1.68c0.53-0.27,1.07-0.27,1.68,0.09c0.97,0.53,1.67,1.85,1.67,3v21.56c0,2.38,1.59,5.3,3.54,6.36
		c0.8,0.44,1.59,0.53,2.12,0.26c0.62-0.35,0.97-1.15,0.97-2.3v-31.62c0-4.42-2.91-9.72-6.53-11.84L78.76,86.35
		c-1.85-1.06-4.15-1.06-5.83-0.09c-1.68,0.97-2.56,2.74-2.56,5.04v32.07c0,2.39,1.59,5.3,3.53,6.36c0.79,0.44,1.59,0.53,2.12,0.26
		c0.62-0.35,0.97-1.15,0.97-2.3v-24.03c0-0.71,0.26-1.24,0.71-1.59c0.44-0.27,0.97-0.27,1.59,0.09c1.15,0.71,2.03,2.3,2.03,3.71
		v49.1l-0.79-0.45v-48.48c0-1.06-0.71-2.38-1.59-2.92c-0.27-0.18-0.53-0.18-0.71-0.09c-0.18,0.09-0.26,0.44-0.26,0.8v23.76
		c0,1.41-0.53,2.56-1.41,3.09c-0.88,0.53-1.94,0.44-3-0.26c-2.21-1.24-3.98-4.51-3.98-7.16V91.21c0-2.56,1.06-4.59,3-5.74
		c1.94-1.15,4.59-1.15,6.71,0.09l24.2,13.96c3.89,2.21,6.98,7.86,6.98,12.55v31.62c0,1.41-0.53,2.56-1.41,3.09
		c-0.88,0.53-1.94,0.44-3-0.26c-2.21-1.24-3.97-4.51-3.97-7.16V117.8c0-0.8-0.54-1.86-1.24-2.21c-0.35-0.18-0.62-0.27-0.79-0.09
		c-0.27,0.18-0.36,0.44-0.36,0.97v40.37c0,0.18-0.09,0.27-0.18,0.35l-6.98,4.1l-1.24-0.7V141.3c0-0.97-0.7-2.21-1.49-2.65
		c-0.27-0.18-0.54-0.18-0.62-0.09c-0.18,0.09-0.27,0.35-0.27,0.79v19.91l-0.98-0.55v-19.53c0-0.71,0.27-1.24,0.71-1.5
		C88.92,137.59,89.1,137.5,89.36,137.5z"/>
</g>
<g>
	<path class="st13" d="M55.61,137.2l36.14,20.5l7.51-4.42v-13.52c0-3.98-2.74-8.92-5.93-10.78l-17.49-10.07
		c-0.71-0.35-0.97-1.24-0.79-1.95c0.18-0.71,0.97-1.24,1.77-1.15c0.53,0.09,0.97,0,1.33-0.18c0.09,0,0.18-0.09,0.27-0.09l6.27-3.53
		c1.32-0.79,2.03-2.21,2.03-4.15c0-4.51-3.09-9.98-6.63-12.1c-1.59-0.88-2.65-0.79-3.8-0.26l-6.01,3.36c-0.09,0-0.18,0.09-0.26,0.09
		c-1.15,0.44-1.85,1.94-1.85,4.06c0,3.36,1.77,7.51,4.33,10.16c0.62,0.62,0.62,1.5,0.09,2.21c-0.53,0.71-1.41,0.79-2.12,0.44
		l-1.41-0.8c-0.88-0.53-2.83-1.15-5.3,0.27l-5.21,3c-0.18,0.18-0.26,0.26-0.44,0.35c-1.59,0.62-2.38,2.12-2.38,4.15v14.4H55.61
		L55.61,137.2z M91.74,161.23c-0.27,0-0.54-0.09-0.8-0.18l-37.81-21.38c-0.53-0.27-0.88-0.88-0.88-1.5V122.8
		c0-3.18,1.5-5.74,4.06-7.07c0.09-0.09,0.18-0.09,0.26-0.18l5.56-3.18c1.59-0.88,3.27-1.32,4.86-1.32
		c-1.33-2.56-2.12-5.48-2.12-8.04c0-3.53,1.41-6.18,3.89-7.16l6.01-3.36c0,0,0.09,0,0.09-0.09c2.39-1.15,4.59-0.97,6.98,0.35
		c4.68,2.65,8.39,9.28,8.39,14.93c0,3.18-1.32,5.66-3.72,7.07l-5.47,3.09l14.13,8.13c4.24,2.47,7.6,8.48,7.6,13.69v14.4
		c0,0.62-0.35,1.15-0.8,1.41l-9.18,5.39C92.36,161.14,92,161.23,91.74,161.23z"/>
	<path class="st17" d="M85.56,113.52l-6.63,3.8l-7.07-12.19l-2.65-7.33l6.36-3.53c1.59-0.71,3.27-0.97,5.39,0.26
		c4.15,2.39,7.51,8.39,7.51,13.52C88.39,110.87,87.14,112.55,85.56,113.52z"/>
	<path class="st13" d="M85.56,113.52L85.56,113.52L85.56,113.52z M69.66,97.89l2.56,6.98l6.8,11.75l6.27-3.53
		c1.77-1.06,2.65-2.83,2.65-5.21c0-4.95-3.27-10.87-7.24-13.16c-1.77-0.97-3.27-1.06-5.03-0.26L69.66,97.89L69.66,97.89z
		 M78.93,117.68c-0.18,0-0.26-0.09-0.35-0.18l-7.07-12.19l-2.83-7.51c-0.09-0.18,0-0.44,0.18-0.53l6.36-3.53
		c2.03-0.97,3.8-0.88,5.83,0.26c4.24,2.47,7.77,8.66,7.77,13.87c0,3.44-1.68,5.12-3.1,6.01l-6.62,3.8
		C79.02,117.68,78.93,117.68,78.93,117.68z"/>
	<path class="st17" d="M68.33,148.07v-16.7c0-1.15,0.71-1.59,1.68-1.06c0.97,0.62,1.86,2.03,1.86,3.27v16.43l18.29,10.34v-16.17
		c0-1.24,0.8-1.77,1.85-1.24c0.8,0.44,1.41,1.59,1.41,2.65v14.75l7.51-4.42v-16.17c0-4.59-3.09-10.07-6.8-12.19l-11.22-6.45
		l-4.15-2.39l-8.92-5.12c-1.68-0.97-4.15-1.32-6.98,0.26c-2.83,1.59-5.57,3.18-5.57,3.18l1.5,25.62L68.33,148.07z"/>
	<path class="st13" d="M72.31,149.74l17.41,9.89v-15.46c0-0.79,0.26-1.41,0.79-1.68c0.54-0.26,1.07-0.26,1.68,0.09
		c0.98,0.53,1.67,1.85,1.67,3v13.96l6.63-3.89v-15.9c0-4.42-2.92-9.72-6.54-11.84l-24.29-13.96c-1.15-0.62-3.54-1.5-6.54,0.27
		l-5.3,3l1.41,25.18l8.66,4.86v-15.9c0-0.71,0.27-1.24,0.71-1.59c0.44-0.26,0.97-0.26,1.59,0.09c1.15,0.71,2.03,2.3,2.03,3.71v16.17
		H72.31L72.31,149.74z M90.15,160.88c-0.09,0-0.18,0-0.18-0.09l-18.29-10.34c-0.18-0.09-0.26-0.27-0.26-0.35v-16.43
		c0-1.06-0.71-2.38-1.59-2.92c-0.26-0.18-0.53-0.18-0.71-0.09c-0.18,0.09-0.26,0.44-0.26,0.79v16.7c0,0.18-0.09,0.27-0.18,0.35
		c-0.18,0.09-0.27,0.09-0.44,0l-9.45-5.39c-0.09-0.09-0.18-0.18-0.26-0.35l-1.5-25.62c0-0.18,0.09-0.35,0.27-0.44l5.57-3.18
		c2.47-1.41,5.21-1.5,7.42-0.27l24.29,13.96c3.89,2.21,6.98,7.86,6.98,12.54v16.17c0,0.18-0.09,0.27-0.18,0.35l-7.51,4.42
		c-0.17,0.09-0.26,0.09-0.44,0c-0.18-0.09-0.26-0.26-0.26-0.35v-14.75c0-0.79-0.54-1.85-1.24-2.21c-0.35-0.18-0.62-0.26-0.79-0.09
		c-0.27,0.18-0.36,0.44-0.36,0.97v16.25c0,0.18-0.09,0.27-0.18,0.35C90.33,160.88,90.24,160.88,90.15,160.88z"/>
	<path class="st1" d="M69.01,97.68c3.08-1.58,7.82,1.51,10.57,6.9c2.76,5.39,2.48,11.03-0.6,12.61c-3.08,1.58-7.82-1.51-10.57-6.9
		C65.65,104.9,65.93,99.25,69.01,97.68z"/>
	<path class="st13" d="M70.8,97.71c-0.62,0-1.24,0.18-1.77,0.44c-1.32,0.79-2.12,2.56-2.12,4.95c0,4.95,3.27,10.87,7.24,13.16
		c1.77,1.06,3.45,1.15,4.68,0.44c1.32-0.8,2.12-2.56,2.12-4.95c0-4.95-3.27-10.87-7.24-13.16C72.75,97.98,71.69,97.71,70.8,97.71
		L70.8,97.71z M77.16,118.03c-1.06,0-2.21-0.35-3.45-1.06c-4.24-2.47-7.77-8.66-7.77-13.87c0-2.74,0.88-4.77,2.56-5.74
		c1.5-0.88,3.53-0.71,5.57,0.44c4.24,2.47,7.77,8.66,7.77,13.87c0,2.74-0.88,4.77-2.56,5.74C78.67,117.85,77.96,118.03,77.16,118.03
		z"/>
	<path class="st1" d="M61.44,144.18v-8.92c0-1.15,0.71-1.59,1.68-1.06c0.97,0.62,1.86,2.03,1.86,3.27v8.66l18.29,10.42v-8.48
		c0-1.24,0.8-1.77,1.86-1.24c0.79,0.44,1.41,1.59,1.41,2.65v9.01l5.22,2.92l2.29-1.33v-16.34c0-4.59-3.09-10.07-6.8-12.19
		l-11.22-6.45l-4.15-2.39l-8.92-5.12c-3.71-2.12-9.1-0.35-9.1,5.3v17.14L61.44,144.18z"/>
	<path class="st13" d="M86.97,158.14l4.77,2.65l1.85-1.06v-16.08c0-4.42-2.92-9.72-6.53-11.84l-24.3-13.96
		c-1.85-1.06-4.15-1.06-5.83-0.09c-1.68,0.97-2.56,2.74-2.56,5.03v16.87l6.63,3.71v-8.22c0-0.71,0.26-1.23,0.71-1.59
		c0.44-0.27,0.97-0.27,1.59,0.09c1.15,0.71,2.03,2.3,2.03,3.71v8.39l17.49,9.98v-7.77c0-0.79,0.26-1.41,0.79-1.68
		c0.44-0.27,1.06-0.27,1.68,0.09c0.98,0.53,1.68,1.86,1.68,3.01V158.14L86.97,158.14z M91.74,161.76c-0.09,0-0.18,0-0.18-0.09
		l-5.21-2.92c-0.18-0.09-0.27-0.26-0.27-0.35v-9.01c0-0.8-0.53-1.86-1.24-2.21c-0.35-0.18-0.62-0.27-0.79-0.09
		c-0.26,0.18-0.35,0.44-0.35,0.97v8.48c0,0.18-0.09,0.26-0.18,0.35c-0.18,0.09-0.27,0.09-0.44,0L64.8,146.56
		c-0.18-0.09-0.26-0.26-0.26-0.35v-8.66c0-1.06-0.71-2.39-1.59-2.92c-0.26-0.18-0.53-0.18-0.71-0.09c-0.18,0.09-0.26,0.44-0.26,0.79
		v8.83c0,0.18-0.09,0.26-0.18,0.35c-0.18,0.09-0.26,0.09-0.44,0l-7.51-4.24c-0.18-0.09-0.27-0.27-0.27-0.35V122.8
		c0-2.56,1.06-4.59,3-5.74c1.94-1.15,4.59-1.15,6.71,0.09l24.3,13.96c3.88,2.21,6.97,7.86,6.97,12.55v16.34
		c0,0.18-0.08,0.26-0.17,0.35l-2.3,1.33C91.91,161.76,91.82,161.76,91.74,161.76z"/>
</g>
<path class="st7" d="M134.37,37.72c1.56,0.91,2.82,3.29,2.82,5.33c0,2.04-1.26,2.96-2.82,2.07c-1.56-0.89-2.82-3.29-2.82-5.33
	C131.55,37.75,132.81,36.82,134.37,37.72z"/>
</svg>
