<?xml version="1.0" encoding="utf-8"?>
<!-- Generator: Adobe Illustrator 22.1.0, SVG Export Plug-In . SVG Version: 6.00 Build 0)  -->
<svg version="1.1" id="Layer_1" xmlns="http://www.w3.org/2000/svg" xmlns:xlink="http://www.w3.org/1999/xlink" x="0px" y="0px"
	 viewBox="0 0 182 240" style="enable-background:new 0 0 182 240;" xml:space="preserve">
<style type="text/css">
	.st0{fill:#B3B4B4;}
	.st1{fill:#FFFFFF;}
	.st2{fill:#F6F6F6;}
	.st3{fill:#EBECEB;}
	.st4{fill:#FFFFFE;}
	.st5{fill:#E3E4E3;}
	.st6{fill:#2EBCE3;}
	.st7{fill:#97CA52;}
	.st8{fill:#F4B728;}
	.st9{fill:#649347;}
	.st10{fill:#0086B3;}
	.st11{fill:#D1822B;}
	.st12{fill:#3EC9F0;}
	.st13{fill:#F6BE25;}
</style>
<title>Group</title>
<path class="st0" d="M159.013,126.275l6.496-3.66c2.35-1.324,4.506-3.52,6.086-5.988c1.555-2.43,2.524-5.072,2.535-7.332
	l0.163-47.49c0.004-0.864-0.14-1.578-0.403-2.136c-0.216-0.454-0.524-0.795-0.9-1.013c-0.045-0.025-0.09-0.055-0.132-0.083
	L100.654,16.9c-0.094-0.04-0.185-0.092-0.27-0.147c-0.48-0.227-1.095-0.308-1.82-0.226c-0.904,0.1-1.946,0.46-3.077,1.1L88.783,21.4
	v64.34l70.23,40.533V126.275z M167.703,126.535l-7.603,4.28h-0.002c-0.668,0.374-1.51,0.397-2.22-0.016L85.55,89.054
	c-0.75-0.365-1.266-1.132-1.266-2.023V20.27h0.007c0-0.384,0.097-0.772,0.3-1.127l0.105-0.18c0.196-0.372,0.498-0.695,0.892-0.916
	l7.703-4.338c1.66-0.938,3.28-1.476,4.78-1.644c1.667-0.19,3.192,0.08,4.483,0.765c0.053,0.025,0.104,0.054,0.154,0.083l0.128,0.072
	l-0.003,0.005l72.218,41.68c0.107,0.05,0.21,0.107,0.31,0.176l0.05,0.034c1.084,0.67,1.95,1.637,2.537,2.878
	c0.537,1.135,0.832,2.5,0.824,4.063l-0.158,47.494c-0.016,3.127-1.255,6.616-3.24,9.72c-1.96,3.065-4.675,5.813-7.668,7.5
	L167.703,126.535z"/>
<path class="st1" d="M95.193,62.448l0.03-6.306l63.015,39.165l15.876-38.594l-72.403-41.786l-0.125-0.074
	c-1.775-0.985-4.348-0.79-7.196,0.814l-7.705,4.338l-0.15,0.262v30.09L77.82,82l7.604-4.284c5.35-3.01,9.742-9.88,9.77-15.27"/>
<path class="st0" d="M103.67,67.502l0.028-6.306l0.004-0.503l0.423,0.267l54.022,21.227l15.578-25.374l-72.108-41.62h-0.002
	l-0.123-0.07c-0.852-0.472-1.907-0.656-3.1-0.523c-1.165,0.13-2.46,0.57-3.822,1.34l-7.636,4.298l-0.076,0.13v66.21l7.186-4.048
	c2.632-1.483,5.034-3.92,6.78-6.65c1.744-2.725,2.832-5.74,2.845-8.378H103.67z M104.255,61.699l-0.027,5.804
	c-0.013,2.747-1.134,5.865-2.93,8.676c-1.795,2.805-4.266,5.31-6.98,6.84L86.715,87.3l-0.418,0.236V20.294l0.04-0.14l0.15-0.262
	l0.106-0.105l7.704-4.337c1.43-0.807,2.796-1.266,4.036-1.405c1.123-0.128,2.145,0.01,3.017,0.385v-0.038l0.42,0.243l0.127,0.074
	l72.36,41.76l0.248,0.146l-16.028,26.104l-0.148,0.24l-0.24-0.147L104.256,61.7L104.255,61.699z"/>
<path class="st0" d="M20.903,127.153v48.142c0,1.336,0.208,2.452,0.578,3.316c0.31,0.723,0.723,1.243,1.2,1.526
	c0.054,0.03,0.105,0.06,0.153,0.096l72.5,41.754c0.123,0.056,0.24,0.12,0.347,0.196c0.354,0.187,0.77,0.275,1.232,0.247
	c0.596-0.04,1.27-0.262,2.002-0.688l50.5-29.313c1.945-1.134,3.768-3.295,5.12-5.862c1.365-2.59,2.217-5.545,2.217-8.252V130.15
	L86.233,89.446L20.903,127.153L20.903,127.153z M16.403,175.295V125.86h0.006c0-0.772,0.4-1.524,1.12-1.94l67.56-38.993
	c0.674-0.398,1.54-0.432,2.265-0.01l72.63,41.92c0.75,0.363,1.266,1.132,1.266,2.022v49.457c0,3.44-1.053,7.135-2.743,10.342
	c-1.726,3.272-4.154,6.084-6.843,7.652l-50.5,29.313c-1.352,0.787-2.696,1.203-3.97,1.282c-1.45,0.093-2.79-0.245-3.946-0.953
	v-0.002l-72.6-41.813c-0.13-0.06-0.255-0.133-0.37-0.214c-1.253-0.782-2.254-1.986-2.926-3.542c-0.608-1.413-0.948-3.13-0.948-5.09
	L16.403,175.295z"/>
<path class="st2" d="M18.95,125.912v49.43c0,3.366,1.134,5.756,2.92,6.797l0.01,0.005h0.002L90.77,221.93
	c2.19,1.266,3.652,1.9,6.05,2.16l26.31-21.595c4.653-2.658,8.465-9.883,8.465-16.055v-41.42l-39.768,22.046l-72.878-41.152"/>
<path class="st0" d="M131.457,144.778l-39.63,22.3l-72.926-41.73l-0.418-0.245v50.13l0.108,0.448l-0.001-0.001l0.023,0.277
	l-0.13-0.724c0,1.69,0.278,3.144,0.783,4.314l-0.197-1.082l0.205,0.82l0.386,0.735l-0.392-0.472
	c0.443,1.042,1.067,1.878,1.824,2.435c0.143,0.105,0.293,0.2,0.445,0.287l-0.372-0.446l0.05,0.013l0.322,0.433h0.004l0.015,0.01
	l0.662,0.38l72.69,41.98l0.335,0.195l0.08-0.38l0.715-3.484l27.232-18.233c2.375-1.357,4.53-3.87,6.087-6.825
	c1.553-2.947,2.518-6.342,2.518-9.474v-41.905L131.457,144.778z M131.31,186.436c0,3.039-0.94,6.343-2.453,9.213
	c-1.511,2.867-3.59,5.297-5.867,6.597l-27.342,18.298l-0.11,0.064l-0.687,3.354l-73.002-42.16v-0.003h-0.005l-0.01-0.004v-0.003
	l-0.01-0.005c-0.858-0.5-1.559-1.336-2.042-2.46c-0.475-1.105-0.742-2.481-0.742-4.095v-49.159l-0.002-0.001h0.002v0.001
	l72.642,41.567l0.14,0.08l0.138-0.08l39.35-22.138V186.436z"/>
<path class="st1" d="M91.987,167.362v49.343c0,6.154,3.822,9.04,8.465,6.39l50.086-28.725c4.64-2.652,8.465-9.885,8.465-16.055
	V128.86L92.14,167.45L91.987,167.362"/>
<path class="st0" d="M92.193,167.742v49.007c0,1.947,0.39,3.555,1.07,4.743c0.435,0.762,0.986,1.352,1.63,1.747
	c0.637,0.396,1.37,0.6,2.172,0.6c0.972,0,2.046-0.303,3.173-0.947l50.162-28.767c2.274-1.3,4.353-3.73,5.865-6.6
	c1.513-2.87,2.455-6.174,2.455-9.212v-48.968l-66.516,38.39l-0.01,0.006L92.193,167.742z M91.629,216.748v-49.83l0.422,0.243
	l0.01,0.01l66.798-38.554l0.42-0.244v49.942c0,3.13-0.966,6.524-2.52,9.47c-1.56,2.96-3.715,5.474-6.084,6.828l-50.164,28.767
	c-1.214,0.694-2.383,1.023-3.448,1.023c-0.905,0-1.736-0.237-2.465-0.688c-0.728-0.447-1.346-1.102-1.826-1.944
	c-0.725-1.272-1.145-2.973-1.145-5.022L91.629,216.748z"/>
<path class="st3" d="M86.1,86.783l72.903,42.076l-67.005,38.496l-72.748-41.99L86.1,86.783"/>
<path class="st4" d="M47.383,113.794l0.008-4.317l-28.205,16.198l72.78,41.966l66.904-38.536l-8.77-5.567l-59.756,34.377
	L37.482,131.6l-10.838-5.504L47.383,113.794"/>
<path class="st0" d="M86.29,86.57l72.852,42.046c0.135,0.077,0.18,0.25,0.102,0.384c-0.026,0.043-0.063,0.078-0.103,0.1
	l-66.985,38.647c-0.098,0.056-0.212,0.047-0.297-0.01L18.784,125.76c-0.133-0.076-0.18-0.248-0.103-0.38
	c0.027-0.046,0.062-0.08,0.104-0.104L86.01,86.57C86.1,86.516,86.205,86.52,86.29,86.57z M158.438,128.857L86.15,87.135
	l-66.666,38.382l72.53,41.664l66.424-38.323V128.857z"/>
<path class="st1" d="M176.372,109.304l0.16-47.49c0.024-5.39-4.34-7.325-9.675-4.32l-7.7,4.338l-0.154,0.26v66.765l7.603-4.282
	C171.953,121.563,176.346,114.692,176.372,109.304"/>
<path class="st0" d="M176.093,109.302l0.16-47.49c0.006-1.323-0.26-2.425-0.745-3.285c-0.395-0.7-0.937-1.242-1.598-1.605
	c-0.66-0.37-1.448-0.56-2.32-0.565c-1.354-0.006-2.923,0.44-4.598,1.38l-7.906,4.45l-0.076,0.135l0.002,66.207l7.458-4.2
	c2.63-1.482,5.033-3.92,6.778-6.65C174.992,114.953,176.08,111.939,176.093,109.302L176.093,109.302z M176.813,61.812l-0.16,47.492
	c-0.013,2.748-1.135,5.867-2.932,8.676c-1.793,2.806-4.264,5.31-6.977,6.84l-7.874,4.434l-0.417,0.235V62.242l0.037-0.14l0.153-0.26
	l0.105-0.104l7.973-4.49c1.758-0.99,3.42-1.456,4.872-1.45c0.97,0.005,1.846,0.22,2.594,0.634c0.748,0.414,1.364,1.027,1.812,1.82
	C176.529,59.192,176.819,60.387,176.813,61.812L176.813,61.812z"/>
<path class="st4" d="M86.62,87.082V20.318l72.383,41.776v66.765L86.62,87.08"/>
<path class="st3" d="M154.988,126.927l-4.878-2.807L154.988,126.927z M154.988,126.927v-62.85l-65.55-37.962l0.28,17.432
	l21.795,26.208l37.25,53.59L154.988,126.927z"/>
<path class="st5" d="M154.988,126.927l-4.878-2.807L154.988,126.927z M154.988,126.927v-26.31l-36.86-21.346l30.635,44.076
	L154.988,126.927z"/>
<path class="st0" d="M155.37,126.764l-0.558-0.323V64.077L89.702,26.36v62.52l-0.56-0.324v-62.68c0-0.16,0.126-0.283,0.28-0.283
	c0.058,0,0.112,0.018,0.158,0.048l65.652,38.03c0.09,0.053,0.14,0.146,0.14,0.243v62.85"/>
<path class="st0" d="M86.19,86.996V20.232c0-0.157,0.126-0.282,0.28-0.282c0.058,0,0.113,0.018,0.158,0.05l72.243,41.852
	c0.09,0.052,0.14,0.145,0.14,0.242h0.002v66.765c0,0.154-0.128,0.28-0.28,0.28c-0.06,0-0.115-0.017-0.156-0.05L86.33,87.24
	C86.24,87.187,86.19,87.09,86.19,86.996z M86.75,20.716v66.12l71.7,41.537V62.257L86.75,20.716L86.75,20.716z"/>
<path class="st1" d="M138.94,71.07l-67.9-39.543c-1.48-0.86-2.836-0.915-3.877-0.31l-4.124,2.545l0.008,0.013
	c-1.51,0.563-2.5,2.354-2.5,5.008v34.544l51.572,45.808l32.753-0.903V82.455c0-4.364-2.67-9.49-5.93-11.386"/>
<path class="st0" d="M136.183,73.92l-68.06-39.54c-0.428-0.248-0.805-0.378-1.12-0.404c-0.208-0.017-0.383,0.014-0.513,0.09
	l-0.05,0.028l-3.835,2.362c-0.083,0.064-0.174,0.125-0.27,0.178c-0.102,0.06-0.207,0.106-0.316,0.148h0.002
	c-0.224,0.083-0.434,0.314-0.613,0.672c-0.27,0.54-0.425,1.293-0.425,2.238v51.965l58.54,38.543l21.47-12.35V83.365
	c0-1.818-0.57-3.82-1.488-5.58c-0.893-1.714-2.073-3.14-3.324-3.866L136.183,73.92z M70.375,30.496l68.06,39.54
	c2.016,1.17,3.81,3.257,5.068,5.675c1.235,2.365,2,5.108,2,7.655v35.776h-0.004c0,0.774-0.405,1.524-1.123,1.94l-23.708,13.64
	c-0.68,0.4-1.545,0.43-2.274,0.01L57.744,94.97c-0.75-0.365-1.268-1.132-1.268-2.022V39.693c0-1.658,0.326-3.094,0.9-4.242
	c0.636-1.273,1.58-2.204,2.745-2.73l3.96-2.437c0.05-0.037,0.1-0.068,0.155-0.1c0.932-0.538,1.988-0.78,3.12-0.688
	C68.329,29.574,69.349,29.902,70.375,30.496L70.375,30.496z"/>
<path class="st2" d="M137.122,71.98L69.22,32.437c-1.48-0.86-2.838-0.917-3.88-0.31l-4.123,2.544l1.703,3.13V92.54
	c0,0.57,0.047,1.156,0.135,1.746l58.018,39.572l21.976-12.683v-37.81C143.049,79,140.381,73.875,137.122,71.98"/>
<path class="st0" d="M137.512,72.22L69.135,32.68c-0.69-0.4-1.354-0.616-1.96-0.665c-0.616-0.048-1.178,0.074-1.66,0.355l-3.92,2.4
	l1.588,2.896l0.036,0.135v59.24c0,0.28,0.012,0.56,0.03,0.838c0.02,0.243,0.048,0.49,0.08,0.733l56.54,35.818l23.47-13.415v-37.65
	c0-2.138-0.66-4.463-1.72-6.49C140.559,74.857,139.106,73.141,137.512,72.22L137.512,72.22z M69.42,32.196l68.375,39.54
	c1.69,0.976,3.22,2.774,4.325,4.882c1.102,2.102,1.787,4.52,1.787,6.748v37.97l-0.143,0.08l-23.754,13.58l-0.14,0.078l-0.14-0.08
	l-56.8-35.965l-0.12-0.07l-0.02-0.134c-0.043-0.3-0.077-0.607-0.1-0.908c-0.025-0.298-0.037-0.593-0.037-0.878v-59.17l-1.68-3.062
	l-0.127-0.23l0.228-0.142l4.15-2.546l0.008-0.003c0.585-0.336,1.258-0.485,1.988-0.43C67.91,31.513,68.65,31.753,69.42,32.196
	L69.42,32.196z"/>
<path class="st1" d="M132.558,74.75L64.655,35.21c-3.26-1.9-5.93,0.12-5.93,4.483v55.405l51.57,29.82l15.816,6.03l12.375-7.14
	V86.134c0-4.366-2.666-9.49-5.927-11.386"/>
<path class="st2" d="M58.726,57.997v37.1l51.57,29.822l2.47,0.94V97.495c0-4.364-2.667-9.487-5.927-11.387L58.726,57.997"/>
<path class="st0" d="M132.678,74.99L64.536,35.45c-0.792-0.458-1.54-0.675-2.214-0.675c-0.534,0-1.023,0.136-1.45,0.395
	c-0.43,0.263-0.8,0.654-1.097,1.158c-0.485,0.832-0.764,1.97-0.764,3.367v57.02l64.656,35.428l14.82-8.495V86.135
	c0-2.136-0.658-4.463-1.718-6.49c-1.054-2.02-2.502-3.733-4.09-4.655L132.678,74.99z M64.818,34.965l68.14,39.54
	c1.685,0.978,3.21,2.775,4.31,4.88c1.1,2.103,1.782,4.52,1.782,6.748v37.835l-0.143,0.08l-15.103,8.66l-0.138,0.08l-0.142-0.08
	l-64.938-35.59l-0.14-0.082V39.693c0-1.495,0.307-2.73,0.843-3.646c0.342-0.586,0.778-1.045,1.29-1.356
	c0.515-0.313,1.103-0.48,1.74-0.48c0.772,0.003,1.616,0.244,2.498,0.755L64.818,34.965z"/>
<path class="st6" d="M66.467,42.547c1.612,0.936,2.917,3.312,2.917,5.306s-1.305,2.85-2.917,1.917
	c-1.61-0.936-2.915-3.312-2.915-5.307C63.552,42.467,64.857,41.611,66.467,42.547"/>
<path class="st7" d="M74.608,47.328c1.612,0.935,2.92,3.31,2.92,5.305s-1.308,2.854-2.92,1.916c-1.61-0.937-2.915-3.31-2.915-5.306
	S72.997,46.388,74.608,47.328"/>
<path class="st0" d="M58.586,51.05c-0.133-0.075-0.178-0.246-0.1-0.38c0.076-0.134,0.25-0.18,0.382-0.102l79.76,46.35
	c0.132,0.077,0.177,0.25,0.1,0.383c-0.08,0.134-0.25,0.18-0.383,0.102l-79.76-46.35"/>
<path class="st0" d="M139.14,97.268c-0.134,0.077-0.306,0.03-0.382-0.1c-0.078-0.136-0.032-0.307,0.1-0.384l4.195-2.42
	c0.134-0.078,0.306-0.03,0.38,0.1c0.08,0.134,0.033,0.307-0.098,0.383l-4.194,2.42"/>
<path class="st8" d="M82.76,52.376c1.613,0.934,2.92,3.312,2.92,5.306c0,1.995-1.307,2.852-2.92,1.915
	c-1.61-0.936-2.916-3.312-2.916-5.306S81.151,51.439,82.76,52.376"/>
<path class="st0" d="M98.077,92.766L49.617,64.45c-0.424-0.25-0.8-0.378-1.116-0.404c-0.207-0.018-0.38,0.015-0.51,0.09
	l-0.047,0.027l-3.776,2.33c-0.087,0.072-0.178,0.136-0.275,0.194c-0.137,0.08-0.278,0.145-0.42,0.193
	c-0.2,0.1-0.387,0.32-0.55,0.645c-0.27,0.538-0.42,1.293-0.42,2.238v53.457l48.324,4.32l12.056-6.96v-18.367
	c0-1.818-0.57-3.82-1.488-5.583C100.505,94.92,99.325,93.494,98.077,92.766L98.077,92.766z M51.867,60.566l48.458,28.32
	c2.013,1.17,3.8,3.256,5.057,5.67c1.232,2.37,1.997,5.112,1.997,7.657v19.66h-0.006c-0.003,0.773-0.404,1.525-1.12,1.94
	l-14.288,8.246c-0.676,0.4-1.54,0.43-2.27,0.01l-50.43-5.537C38.517,126.168,38,125.4,38,124.51V69.76
	c0-1.658,0.325-3.093,0.897-4.242c0.636-1.273,1.576-2.204,2.738-2.728l3.953-2.44c0.048-0.035,0.1-0.067,0.15-0.1
	c0.93-0.536,1.985-0.776,3.115-0.688c0.97,0.08,1.987,0.408,3.013,1.003L51.867,60.566z"/>
<path class="st2" d="M99.49,90.993L50.743,62.51c-1.48-0.863-2.834-0.917-3.877-0.313l-4.123,2.545l1.702,3.13v37.45l46.67,27.01
	l14.307-8.258v-21.69c0-4.367-2.667-9.493-5.93-11.39"/>
<path class="st0" d="M99.298,91.205L50.6,62.75c-0.687-0.398-1.344-0.615-1.946-0.665c-0.61-0.048-1.168,0.076-1.65,0.354
	l-3.89,2.402l1.575,2.895l0.035,0.134v37.29l46.337,26.817l14.024-8.094V102.35c0-2.136-0.654-4.462-1.71-6.49
	C102.325,93.844,100.882,92.127,99.298,91.205L99.298,91.205z M50.882,62.265L99.58,90.72c1.678,0.976,3.198,2.775,4.296,4.882
	c1.092,2.102,1.773,4.52,1.773,6.748v21.854l-0.142,0.08l-14.306,8.26l-0.14,0.077l-0.14-0.077l-46.62-26.98l-0.14-0.08v-0.162
	l0.002-37.38l-1.667-3.062l-0.128-0.235l0.226-0.14l4.124-2.544l0.006-0.006c0.58-0.336,1.246-0.486,1.974-0.427
	c0.682,0.054,1.42,0.294,2.182,0.74L50.882,62.265z"/>
<path class="st1" d="M95.026,93.82L46.178,65.28c-3.26-1.9-5.928,0.12-5.928,4.482v54.963L91.21,143.3l9.745-5.622v-32.472
	C100.955,100.842,98.285,95.718,95.026,93.82"/>
<path class="st0" d="M94.816,94.02l-48.78-28.5c-0.786-0.457-1.532-0.673-2.205-0.673c-0.532,0-1.017,0.135-1.442,0.395
	c-0.43,0.26-0.8,0.652-1.093,1.157c-0.484,0.832-0.763,1.97-0.763,3.363v60.26l50.61,9.274l9.46-5.46v-28.672
	c0-2.137-0.653-4.462-1.71-6.49C97.843,96.656,96.399,94.944,94.816,94.02L94.816,94.02z M46.32,65.038l48.777,28.5
	c1.678,0.976,3.2,2.774,4.295,4.882c1.094,2.1,1.772,4.52,1.772,6.747v28.994l-0.14,0.082l-9.742,5.624l-0.14,0.08l-0.14-0.08
	l-50.893-9.44l-0.14-0.082V69.762c0-1.493,0.307-2.73,0.84-3.645c0.343-0.587,0.777-1.044,1.288-1.356
	c0.513-0.312,1.1-0.478,1.733-0.478C44.6,64.283,45.442,64.526,46.32,65.038z"/>
<path class="st6" d="M47.717,72.192c1.612,0.935,2.916,3.312,2.916,5.307c0,1.993-1.304,2.85-2.916,1.913
	c-1.61-0.934-2.918-3.312-2.918-5.305C44.799,72.111,46.106,71.255,47.717,72.192"/>
<path class="st7" d="M55.858,76.972c1.61,0.936,2.916,3.312,2.916,5.306c0,1.996-1.305,2.854-2.916,1.917
	c-1.61-0.935-2.918-3.31-2.918-5.307C52.94,76.893,54.247,76.038,55.858,76.972"/>
<path class="st0" d="M40.11,81.12c-0.134-0.075-0.18-0.248-0.1-0.38c0.075-0.134,0.248-0.18,0.38-0.1l60.476,35.218
	c0.134,0.077,0.178,0.25,0.1,0.383c-0.076,0.136-0.25,0.18-0.382,0.103L40.11,81.12"/>
<path class="st0" d="M101.17,116.223c-0.136,0.078-0.308,0.032-0.385-0.102c-0.077-0.134-0.03-0.305,0.103-0.382l4.193-2.42
	c0.135-0.077,0.306-0.033,0.384,0.1c0.076,0.135,0.032,0.305-0.102,0.384L101.17,116.223"/>
<path class="st8" d="M64.01,82.02c1.61,0.935,2.918,3.313,2.918,5.307c0,1.993-1.307,2.85-2.918,1.915
	c-1.61-0.935-2.917-3.312-2.917-5.306C61.093,81.941,62.399,81.086,64.01,82.02"/>
<path class="st3" d="M58.423,166.875l-9.306-5.406l-3.06,2.167l2.137,4.648l3.273,10.043l2.642,3.28
	c3.773-2.253,4.227-2.757,4.313-6v-8.733"/>
<path class="st0" d="M58,167.118l-8.862-5.15l-2.553,1.81l1.975,4.293l3.244,10.004l2.402,2.983
	c1.643-0.985,2.584-1.618,3.104-2.328c0.53-0.723,0.652-1.596,0.69-3.122C58,175.608,58,167.118,58,167.118z M49.33,161.106
	l9.28,5.39c0.14,0.07,0.235,0.213,0.235,0.38v8.732h-0.003v0.01c-0.045,1.713-0.193,2.708-0.852,3.61
	c-0.637,0.87-1.723,1.58-3.647,2.73c-0.18,0.12-0.425,0.083-0.56-0.09l-2.642-3.276l-0.014-0.02l-3.273-10.044
	c-0.015-0.023-0.028-0.047-0.04-0.07l-2.13-4.63c-0.095-0.182-0.042-0.412,0.13-0.535l3.06-2.167
	C49.004,161.036,49.181,161.021,49.33,161.106L49.33,161.106z"/>
<path class="st2" d="M55.364,168.774l-9.306-5.137v9.864c0,7.864,9.306,11.506,9.306,5.338v-10.064"/>
<path class="st0" d="M54.942,169.022l-8.464-4.67v9.15c0,3.514,1.94,6.14,4.007,7.333c0.6,0.346,1.21,0.57,1.78,0.654
	c0.54,0.08,1.043,0.03,1.456-0.156c0.733-0.334,1.222-1.138,1.222-2.497v-9.815L54.942,169.022z M46.259,163.268l9.282,5.124
	c0.144,0.067,0.243,0.214,0.243,0.382v10.063c0,1.74-0.688,2.796-1.718,3.264c-0.563,0.257-1.225,0.325-1.923,0.222
	c-0.673-0.1-1.386-0.358-2.08-0.762c-2.28-1.317-4.428-4.206-4.428-8.06v-9.865h0.002c0-0.07,0.018-0.138,0.052-0.203
	c0.11-0.2,0.366-0.275,0.57-0.164L46.259,163.268z"/>
<path class="st9" d="M150.1,117.942H98.532v12.555l7.905,14.635l11.95,2.448l31.713-18.303V117.942"/>
<path class="st10" d="M87.677,118.267H36.11v12.554l31.3,17.793L83.4,132.07l4.277-2.47V118.267"/>
<path class="st11" d="M118.917,136.14H67.35v12.58l24.514,13.874l22.778-12.626l4.275-2.468V136.14"/>
<path class="st7" d="M129.154,104.226l19.175,10.91c2.657,1.512,2.302,4.188-0.79,5.947l-17.6,10.013
	c-3.09,1.76-7.794,1.96-10.45,0.45l-19.177-10.912c-2.66-1.512-2.304-4.187,0.788-5.947l17.6-10.014
	C121.79,102.915,126.495,102.713,129.154,104.226"/>
<path class="st12" d="M66.73,104.55l19.177,10.91c2.657,1.512,2.302,4.19-0.79,5.947l-17.6,10.013
	c-3.09,1.76-7.793,1.962-10.45,0.45L37.89,120.956c-2.657-1.51-2.303-4.187,0.787-5.945l17.6-10.015
	c3.092-1.758,7.795-1.96,10.453-0.448"/>
<path class="st13" d="M97.96,122.636l19.175,10.91c2.657,1.513,2.303,4.19-0.788,5.948l-17.6,10.013
	c-3.092,1.76-7.795,1.96-10.453,0.45l-19.176-10.91c-2.657-1.514-2.304-4.19,0.787-5.948l17.6-10.015
	c3.092-1.76,7.795-1.96,10.454-0.45"/>
<path class="st0" d="M150.1,128.12l0.854,0.496c0.135,0.077,0.18,0.25,0.102,0.384c-0.026,0.043-0.062,0.078-0.103,0.1l-58.904,34
	c-0.1,0.057-0.215,0.048-0.298-0.01l-65.106-36.993c-0.134-0.077-0.18-0.247-0.103-0.38c0.024-0.044,0.06-0.08,0.103-0.104
	l9.464-5.392v0.64l-8.766,4.995l64.565,36.68l58.34-33.678l-0.15-0.087v-0.65"/>
<path class="st4" d="M67.37,113.034c-0.03-0.33-0.24-0.73-0.4-1.07c-0.938-1.993-3.653-4.318-7.227-1.973
	c-0.563,0.37-1.04,0.79-1.45,1.218c-0.402,0.417-0.653,0.82-0.996,1.22c-1.836-0.31-3.247-0.627-5.25-0.55
	c-3.342,0.13-4.004,1.416-2.953,3.184c0.345,0.58,1.326,1.66,2.19,2.207c-0.528,0.322-1.11,0.586-1.666,0.938
	c-4.418,2.8-2.076,4.723,3.976,4.627l1.924-0.083c0.073,0.55,0.642,1.613,1.063,2.14c2.35,2.942,5.74,1.993,8.03-0.316
	c0.43-0.434,0.674-0.84,1.043-1.25c3.916,0.97,10.47,0.964,8.1-2.625c-0.377-0.572-1.363-1.647-2.22-2.183
	c0.964-0.66,2.038-0.952,3.2-2.178c2.657-2.8-1.87-3.445-5.438-3.388c-0.2,0.003-0.312,0.003-0.462,0.013
	C68.496,112.992,67.578,113.06,67.37,113.034L67.37,113.034z M62.555,116.419c-3.387-0.82-5.43,2.03-2.175,2.9
	c1.182,0.314,2.862,0.067,3.543-0.808C64.463,117.819,64.081,116.787,62.555,116.419L62.555,116.419z M73.333,116.229
	c-0.804,0.732-1.64,1.125-2.61,1.683c-0.917-0.528-1.38-0.87-2.443-1.444c-0.476-0.257-0.49-0.177-0.47-0.5
	c0.02-0.36-0.01-0.743-0.047-1.086l-0.125-1.09c1.188-0.024,1.557-0.14,3.064-0.076c2.903,0.127,4.653,0.666,2.63,2.51
	L73.333,116.229z M66.16,116.402c0.433,0.2,0.338,0.257,0.31,0.507c-0.02,0.177-0.026,0.368-0.06,0.55
	c-0.087,0.47-0.272,1.83-0.437,2.222c-0.075,0.174-0.503,0.233-0.765,0.308c-0.308,0.09-0.565,0.173-0.86,0.25
	c-0.585,0.15-1.17,0.313-1.735,0.457l-1.74,0.415c-1.47-0.547-2.768-1.108-4.133-1.74c-0.487-0.226-0.358-0.244-0.33-0.523
	c0.075-0.783,0.152-1.42,0.367-2.214c0.203-0.75-0.03-0.61,0.928-0.893c0.435-0.13,4.01-1.137,4.348-1.068
	C62.666,114.796,65.503,116.093,66.16,116.402L66.16,116.402z M66.12,113.172c-0.582,0.094-1.175,0.147-1.806,0.255
	c-0.598,0.102-1.172,0.194-1.776,0.305c-0.575,0.107-0.38,0.083-1.002-0.127c-0.324-0.11-0.682-0.226-1.014-0.326
	c-0.67-0.205-1.388-0.373-2.023-0.57c0.614-0.72,0.95-1.292,1.88-1.983c0.765-0.564,1.856-1.15,2.838-0.897
	C64.899,110.261,65.852,112.265,66.12,113.172L66.12,113.172z M70.513,118.976c1.253,0.832,3.162,2.884,2.167,3.67
	c-1.093,0.865-5.02,0.31-6.576-0.028c0.163-0.392,0.402-0.786,0.566-1.166c0.063-0.147,0.396-1.114,0.427-1.148
	c0.07-0.074,1.438-0.528,1.704-0.63c0.53-0.203,1.244-0.455,1.713-0.7L70.513,118.976z M67.751,117.218
	c0.33,0.165,1.814,1.014,1.92,1.173c-0.365,0.192-1.916,0.805-2.29,0.887L67.751,117.218z M66.464,114.776
	c0.028,0.253,0.056,0.533,0.042,0.787l-2.874-1.213c0.296-0.103,2.4-0.403,2.685-0.4L66.464,114.776L66.464,114.776z
	 M65.532,120.968c-0.133,0.346-0.464,1.105-0.655,1.373c-0.76-0.172-1.83-0.477-2.567-0.74l3.278-0.853
	C65.598,120.843,65.574,120.863,65.532,120.968L65.532,120.968z M55.509,116.478c-0.124,0.26-0.18,0.746-0.233,1.045
	c-0.06,0.333-0.067,0.727-0.148,1.025c-0.376-0.143-1.698-0.927-1.962-1.143C53.398,117.232,55.212,116.527,55.509,116.478
	L55.509,116.478z M58.079,113.435c0.815,0.233,1.65,0.434,2.455,0.715L57.308,115c0.066-0.255,0.56-1.348,0.77-1.565L58.079,113.435
	z M54.013,116.11c-0.578,0.227-1.152,0.447-1.7,0.693c-1.268-0.84-3.106-2.893-2.114-3.713c0.41-0.34,1.055-0.37,1.56-0.433
	c1.323-0.168,3.768,0.196,5.058,0.484c-0.015,0.14-0.477,0.968-0.58,1.183C55.441,115.966,56.493,115.134,54.013,116.11
	L54.013,116.11z M56.393,120.203l2.893,1.212c-0.355,0.1-0.94,0.176-1.326,0.236c-0.213,0.033-0.454,0.076-0.67,0.11
	c-0.265,0.037-0.418,0.038-0.663,0.093C56.477,121.684,56.377,120.316,56.393,120.203L56.393,120.203z M55.2,121.433l0.1,0.537
	c-0.137,0.004-0.22,0.024-0.378,0.04c-1.484,0.147-4.82,0.08-5.927-0.61c-0.758-0.474-0.21-1.238,0.47-1.85
	c0.518-0.467,1.895-1.397,2.636-1.665c0.354,0.144,1.233,0.74,1.63,0.964c1.14,0.65,1.367,0.537,1.347,0.963
	c-0.016,0.368,0.043,0.728,0.063,1.084c0.012,0.188,0.043,0.355,0.057,0.54L55.2,121.433z M61.393,122.176
	c1.17,0.39,1.908,0.554,3.008,0.883c-0.062,0.377-1.422,1.64-1.915,1.99c-2.374,1.667-3.838,0.815-4.905-0.726
	c-0.244-0.354-0.832-1.472-0.762-1.726c0.602-0.065,1.196-0.16,1.828-0.262c2.52-0.405,1.702-0.507,2.746-0.158V122.176z"/>
<path class="st4" d="M100.63,131.386c3.516,2.092,5.642,4.22,4.747,4.752c-0.896,0.532-4.473-0.733-7.99-2.824
	c-3.518-2.092-5.645-4.22-4.75-4.752C93.534,128.03,97.111,129.292,100.63,131.386L100.63,131.386z M92.686,143.684
	c-0.896,0.533-4.473-0.73-7.99-2.823c-3.52-2.09-5.645-4.218-4.75-4.75l2.71-1.613c0.69,1.23,2.576,2.888,5.23,4.467
	c2.653,1.576,5.444,2.698,7.51,3.108L92.686,143.684L92.686,143.684z M96.988,141.126c-0.896,0.532-4.473-0.732-7.99-2.824
	c-3.518-2.092-5.645-4.22-4.75-4.752l2.71-1.612c0.69,1.23,2.578,2.89,5.23,4.467c2.653,1.576,5.445,2.7,7.51,3.11l-2.71,1.61
	L96.988,141.126z M101.228,138.604c-0.895,0.533-4.472-0.732-7.99-2.823c-3.52-2.09-5.644-4.218-4.75-4.75l2.71-1.613
	c0.692,1.23,2.577,2.89,5.23,4.465c2.654,1.58,5.445,2.7,7.51,3.11L101.228,138.604L101.228,138.604z"/>
<path class="st0" d="M116.068,175.307v14.84c0,1.366,1.011,2.521,2.364,2.702l8.745,1.171c0.966,0.129,1.928-0.267,2.522-1.039
	l11.143-14.474c0.367-0.477,0.566-1.062,0.566-1.663v-14.84c0-1.366-1.011-2.521-2.364-2.702l-8.745-1.171
	c-0.966-0.129-1.928,0.267-2.522,1.039l-11.143,14.474C116.267,174.12,116.068,174.705,116.068,175.307z"/>
<path class="st1" d="M137.326,169.017l-1.347,0.777c-0.161-0.689-0.407-1.285-0.723-1.782l0.953-1.755
	c0.335-0.616,0.335-1.31,0-1.54l-1.22-0.836c-0.334-0.23-0.883,0.087-1.218,0.704l-0.953,1.754
	c-0.539-0.089-1.123-0.061-1.742,0.093l-0.001-0.001v-1.7c0-0.599-0.387-0.865-0.863-0.592l-1.724,0.996
	c-0.474,0.273-0.861,0.987-0.861,1.586v1.7c-0.62,0.561-1.205,1.208-1.742,1.919l-0.953-0.654c-0.336-0.23-0.884,0.087-1.22,0.704
	l-1.218,2.243c-0.336,0.617-0.336,1.31,0,1.54l0.953,0.652c-0.318,0.863-0.563,1.744-0.724,2.618l-1.345,0.778
	c-0.475,0.274-0.863,0.987-0.863,1.586v2.177c0,0.598,0.389,0.865,0.864,0.591l1.345-0.778c0.161,0.69,0.407,1.287,0.724,1.784
	l-0.953,1.753c-0.336,0.618-0.336,1.309,0,1.54l1.22,0.837c0.334,0.23,0.883-0.087,1.218-0.704l0.954-1.754
	c0.538,0.089,1.124,0.061,1.743-0.093v1.701c0,0.598,0.388,0.865,0.861,0.591l1.724-0.995c0.475-0.274,0.862-0.988,0.862-1.587
	v-1.701c0.619-0.559,1.203-1.208,1.742-1.917l0.954,0.652c0.334,0.23,0.883-0.086,1.218-0.703l1.22-2.243
	c0.335-0.617,0.335-1.31,0-1.54l-0.953-0.652c0.317-0.863,0.562-1.743,0.723-2.618l1.347-0.777c0.473-0.273,0.862-0.988,0.862-1.587
	v-2.177C138.188,169.01,137.798,168.744,137.326,169.017z M129.351,179.806c-1.753,1.012-3.174,0.037-3.174-2.177
	c0-2.214,1.42-4.83,3.173-5.84h0.001c1.754-1.012,3.176-0.038,3.176,2.177C132.526,176.18,131.104,178.795,129.351,179.806z"/>
<g id="Hk0fKR.tif">
	
		<image style="overflow:visible;" width="58" height="37" id="Layer_1_1_" xlink:href="C27DC2B21C08A029.png"  transform="matrix(1 0 0 1 654 365)">
	</image>
</g>
<g>
	<path class="st1" d="M137.053,118.549c-0.952-2.042-1.891-4.086-2.84-6.129c-0.214-0.461-0.735-0.755-1.531-0.884
		c-0.439-0.071-0.88-0.136-1.32-0.204c-3.107-0.477-6.213-0.955-9.321-1.429c-0.739-0.113-1.428-0.036-1.973,0.276
		c-2.661,1.523-5.312,3.051-7.958,4.583c-0.389,0.225-0.595,0.504-0.574,0.805c-0.019,0.109-0.016,0.219,0.032,0.334
		c0.307,0.729,0.572,1.467,1.073,2.164c0.385,0.534,1.039,0.937,1.969,1.156c1.046,0.246,1.991,0.064,2.758-0.364
		c1.738-0.97,3.437-1.963,5.151-2.948c0.933-0.536,1.86-1.076,2.799-1.609c0.161-0.091,0.21-0.17,0.148-0.252
		c0.064-0.083,0.027-0.161-0.143-0.247c-0.171-0.087-0.324-0.185-0.486-0.278c-0.455-0.262-0.456-0.262-0.899-0.007
		c-2.482,1.43-4.963,2.86-7.447,4.289c-0.716,0.411-1.648,0.337-2.163-0.164c-0.156-0.152-0.262-0.315-0.34-0.485
		c-0.203-0.444-0.386-0.892-0.623-1.33c-0.022-0.04-0.028-0.075-0.037-0.111c0.032-0.103,0.126-0.193,0.294-0.288
		c2.466-1.408,4.922-2.822,7.365-4.243c0.277-0.161,0.522-0.203,0.899-0.145c3.408,0.533,6.82,1.058,10.233,1.58
		c0.253,0.039,0.377,0.114,0.444,0.259c0.917,1.987,1.839,3.973,2.769,5.958c0.012,0.025,0.015,0.047,0.02,0.069
		c-0.027,0.064-0.09,0.123-0.196,0.184c-2.524,1.447-5.042,2.896-7.552,4.351c-0.239,0.138-0.455,0.164-0.773,0.115
		c-3.422-0.532-6.846-1.058-10.272-1.581c-0.265-0.04-0.407-0.115-0.469-0.271c-0.14-0.355-0.17-0.242-0.272-0.601
		c-0.105-0.37-0.359-0.62-1.057-0.659c-0.096-0.005-0.185-0.048-0.282-0.062c-0.261-0.038-0.535-0.237-0.742-0.13
		c-0.088,0.046-0.084,0.116-0.05,0.192c-0.062,0.107,0.087,0.268,0.149,0.393c0.368,0.74,0.372,1.05,0.916,1.762
		c0.179,0.103,0.358,0.207,0.538,0.31c2.411,0.456,4.89,0.77,7.331,1.165c1.071,0.173,2.156,0.319,3.222,0.501
		c0.828,0.141,1.639,0.231,2.462,0.007c2.85-1.642,5.701-3.284,8.551-4.925c0.154-0.246,0.278-0.492,0.25-0.752
		C137.116,118.788,137.109,118.671,137.053,118.549z"/>
	<path class="st1" d="M120.711,119.135c0.368,0.63,1.086,1.129,1.684,1.485c1.094,0.628,1.851,0.933,2.728,1.13
		c1.473,0.331,3.016,0.023,3.802-0.766c0.227-0.228,0.303-0.45,0.286-0.668c0.041-0.35-0.182-0.689-0.496-1.022
		c-0.485-0.514-1.13-0.965-1.732-1.432c-0.384-0.299-0.779-0.594-1.068-0.928c-0.062-0.071-0.089-0.142-0.102-0.211
		c0.066-0.258,0.449-0.461,0.997-0.463c0.263-0.001,0.496,0.053,0.718,0.124c0.823,0.265,1.443,0.656,2.014,1.078
		c0.278,0.205,0.429,0.415,0.467,0.629c-0.012,0.195-0.106,0.393-0.328,0.594c-0.085,0.077-0.095,0.141-0.057,0.202
		c-0.058,0.092-0.013,0.168,0.119,0.244c0.233,0.134,0.467,0.268,0.698,0.403c0.23,0.134,0.425,0.121,0.631-0.026
		c0.525-0.376,0.782-0.778,0.789-1.191c0.058-0.373-0.097-0.758-0.47-1.145c-0.607-0.63-1.45-1.139-2.442-1.566
		c-0.667-0.287-1.409-0.497-2.261-0.516c-1.101-0.025-1.921,0.275-2.511,0.789c-0.275,0.239-0.376,0.479-0.368,0.717
		c-0.052,0.334,0.139,0.666,0.438,0.992c0.458,0.499,1.103,0.923,1.702,1.365c0.467,0.344,0.948,0.685,1.215,1.102
		c0.036,0.056,0.052,0.107,0.064,0.157c-0.033,0.135-0.16,0.251-0.41,0.357c-0.519,0.22-1.047,0.185-1.566,0.012
		c-0.926-0.307-1.644-0.748-2.299-1.225c-0.364-0.265-0.584-0.536-0.599-0.814c0.038-0.191,0.179-0.386,0.45-0.584
		c0.089-0.065,0.09-0.127,0.048-0.185c0.068-0.088,0.002-0.17-0.123-0.242c-0.232-0.134-0.467-0.268-0.699-0.402
		c-0.21-0.121-0.399-0.125-0.611,0.009c-0.593,0.374-0.89,0.785-0.89,1.231C120.497,118.613,120.555,118.868,120.711,119.135z"/>
</g>
</svg>
