<?xml version="1.0" encoding="utf-8"?>
<!-- Generator: Adobe Illustrator 24.0.1, SVG Export Plug-In . SVG Version: 6.00 Build 0)  -->
<svg version="1.1" id="Layer_1" xmlns="http://www.w3.org/2000/svg" xmlns:xlink="http://www.w3.org/1999/xlink" x="0px" y="0px"
	 viewBox="0 0 182 240" style="enable-background:new 0 0 182 240;" xml:space="preserve">
<style type="text/css">
	.st0{fill-rule:evenodd;clip-rule:evenodd;fill:#BBBABA;}
	.st1{fill-rule:evenodd;clip-rule:evenodd;fill:#FFFFFF;}
	.st2{fill-rule:evenodd;clip-rule:evenodd;fill:#FAF9F9;}
	.st3{fill-rule:evenodd;clip-rule:evenodd;fill:#D3D2D2;}
	.st4{fill-rule:evenodd;clip-rule:evenodd;fill:#E6E6E5;}
	.st5{fill-rule:evenodd;clip-rule:evenodd;fill:#F0F1F1;}
	.st6{fill-rule:evenodd;clip-rule:evenodd;fill:#E2E1E2;}
	.st7{fill-rule:evenodd;clip-rule:evenodd;fill:#B0B1B2;}
	.st8{fill-rule:evenodd;clip-rule:evenodd;fill:#FBBD00;}
	.st9{fill-rule:evenodd;clip-rule:evenodd;fill:#FFF6B1;stroke:#E78D00;stroke-width:0.8864;stroke-miterlimit:10;}
	.st10{fill-rule:evenodd;clip-rule:evenodd;fill:#EED686;}
	.st11{fill-rule:evenodd;clip-rule:evenodd;fill:none;stroke:#E78D00;stroke-width:2.2164;stroke-miterlimit:10;}
	.st12{fill-rule:evenodd;clip-rule:evenodd;fill:#575656;}
	.st13{fill-rule:evenodd;clip-rule:evenodd;fill:#CA7511;}
	.st14{fill-rule:evenodd;clip-rule:evenodd;fill:#005A87;}
	.st15{fill-rule:evenodd;clip-rule:evenodd;fill:#945D11;}
	.st16{fill-rule:evenodd;clip-rule:evenodd;fill:#0081B3;}
	.st17{fill-rule:evenodd;clip-rule:evenodd;fill:#CA7511;stroke:#868685;stroke-width:0.5;stroke-miterlimit:2.6131;}
	.st18{fill-rule:evenodd;clip-rule:evenodd;fill:#CA7511;stroke:#CA7511;stroke-width:0.5;stroke-miterlimit:2.6131;}
	.st19{fill-rule:evenodd;clip-rule:evenodd;fill:#56C3EC;}
	.st20{fill-rule:evenodd;clip-rule:evenodd;fill:#D1CECE;}
	.st21{fill-rule:evenodd;clip-rule:evenodd;fill:#FFFFFF;stroke:#575656;stroke-width:0.72;stroke-miterlimit:10;}
	.st22{fill-rule:evenodd;clip-rule:evenodd;fill:none;stroke:#575656;stroke-width:1.9199;stroke-miterlimit:10;}
</style>
<title>Group</title>
<g id="Hk0fKR.tif">
</g>
<path class="st0" d="M171.19,122.45l-7.545,4.181c-0.612,0.408-1.428,0.408-2.243,0L89.614,85.231
	c-0.714-0.306-1.224-1.123-1.224-2.04V18.746c0-0.408,0.102-0.713,0.307-1.121l0.101-0.204c0.204-0.408,0.51-0.714,0.816-0.919
	l7.648-4.284c1.734-0.917,3.263-1.427,4.691-1.733c1.734-0.204,3.16,0.102,4.385,0.713c0.101,0,0.101,0.103,0.101,0.103l0.102,0.101
	l71.788,41.4c0.101,0,0.204,0.102,0.306,0.204c1.02,0.613,1.937,1.529,2.549,2.856c0.51,1.122,0.816,2.549,0.816,3.977
	l-0.205,45.377c0,3.16-1.223,6.628-3.263,9.687C176.901,118.066,174.25,120.817,171.19,122.45L171.19,122.45z M162.625,122.246
	l6.424-3.671c2.344-1.327,4.486-3.467,6.015-6.016c1.53-2.449,2.55-5.099,2.55-7.24l0.203-45.377c0-0.816-0.101-1.53-0.407-2.142
	c-0.204-0.407-0.51-0.715-0.816-1.02l-0.102-0.102l-71.686-41.501c-0.101,0-0.203-0.102-0.306-0.102
	c-0.509-0.204-1.02-0.306-1.835-0.204c-0.919,0.102-1.937,0.407-3.059,1.02l-6.628,3.773v62.201L162.625,122.246z"/>
<path class="st1" d="M99.294,58.82v-6.323l62.61,38.954l15.806-36.505l-71.889-41.604l-0.102-0.103
	c-1.836-0.917-4.283-0.713-7.138,0.817l-7.648,4.281l-0.204,0.205V80.03V66.673C95.929,63.714,99.294,64.224,99.294,58.82z"/>
<path class="st0" d="M108.369,58.105v5.814c0,2.754-1.122,5.813-2.957,8.667c-1.836,2.855-4.181,5.302-6.934,6.831l-7.547,4.18
	l-0.408,0.205V16.807l0.102-0.202l0.102-0.102l7.648-4.284c1.326-0.815,2.754-1.222,3.977-1.325c1.121-0.102,2.141,0,2.957,0.408
	l0.408,0.203l0.102,0.102l71.889,41.604l0.203,0.102l-0.101,0.202l-15.806,25.698l-0.102,0.203l-0.204-0.101L108.369,58.105
	L108.369,58.105z M107.758,63.817v-6.831l0.407,0.306l53.739,21.208l15.5-25.287l-71.583-41.401l-0.102-0.102
	c-0.816-0.407-1.937-0.612-3.059-0.51c-1.122,0.103-2.448,0.51-3.773,1.326l-7.545,4.282l-0.102,0.103v65.771l7.138-3.977
	c2.651-1.428,5.098-3.876,6.73-6.629C106.636,69.426,107.758,66.468,107.758,63.817z"/>
<path class="st0" d="M11.395,173.64v-52.107c0-0.816,0.407-1.529,1.122-2.04l71.175-41.094c0.714-0.409,1.529-0.409,2.448,0
	l76.375,44.255c0.816,0.407,1.326,1.121,1.326,2.141v52.106c0,3.569-1.121,7.445-2.855,10.912c-1.836,3.468-4.385,6.424-7.138,8.056
	l-53.126,30.998c-1.428,0.817-2.856,1.224-4.181,1.327c-1.427,0.102-2.957-0.204-4.079-1.02L16.086,183.02
	c-0.102-0.101-0.307-0.101-0.408-0.204c-1.326-0.816-2.448-2.141-3.059-3.671C11.701,177.514,11.395,175.679,11.395,173.64
	L11.395,173.64z M16.086,122.96v50.782c0,1.324,0.204,2.65,0.612,3.466c0.306,0.713,0.714,1.222,1.223,1.529
	c0.102,0,0.102,0.102,0.205,0.102L94.4,222.891c0.101,0.102,0.204,0.102,0.306,0.204c0.408,0.203,0.815,0.306,1.223,0.203
	c0.612,0,1.326-0.305,2.142-0.713l53.126-30.795c2.04-1.122,3.977-3.467,5.405-6.221c1.428-2.752,2.345-5.913,2.345-8.769v-50.78
	L84.916,82.988L16.086,122.96z"/>
<path class="st2" d="M14.149,121.532v52.107c0,3.569,1.121,6.117,3.058,7.137l72.502,41.911c2.345,1.326,3.874,2.038,6.423,2.344
	l27.736-22.739c4.998-2.856,8.974-10.401,8.974-16.927v-43.644l-41.911,23.25L14.149,121.532z"/>
<path class="st0" d="M132.332,185.367c0,3.16-0.917,6.729-2.651,9.688c-1.53,3.058-3.773,5.608-6.221,6.934l-28.652,19.271
	l-0.102,0.102v0.102l-0.714,3.364l-76.886-44.459c-0.917-0.509-1.734-1.324-2.142-2.65c-0.509-1.122-0.714-2.652-0.714-4.284v-51.8
	l76.376,43.746l0.102,0.101l0.101-0.101l41.4-23.351L132.332,185.367L132.332,185.367z M13.638,173.537l0.102,0.408v0.306
	L13.638,173.537L13.638,173.537z M132.537,141.417L90.83,164.87l-76.783-44.052l-0.408-0.202v52.82c0,1.836,0.306,3.263,0.816,4.486
	L14.25,176.8l0.205,0.816l0.407,0.714l-0.407-0.51c0.407,1.02,1.121,2.04,1.937,2.549c0.102,0.101,0.306,0.205,0.408,0.307
	l-0.408-0.408h0.102l0.306,0.408l0.713,0.408l76.581,44.254l0.306,0.205l0.101-0.408l0.714-3.671l28.654-19.272
	c2.55-1.428,4.691-4.079,6.424-7.137c1.734-3.162,2.651-6.629,2.651-9.995v-44.255L132.537,141.417z"/>
<path class="st0" d="M90.524,217.386V164.87l0.408,0.205l70.768-40.891V176.8c0,3.263-1.02,6.833-2.651,9.993
	c-1.734,3.162-3.876,5.813-6.424,7.139l-52.821,30.285c-1.223,0.714-2.549,1.02-3.671,1.02c-0.917,0-1.835-0.205-2.65-0.714
	c-0.715-0.408-1.327-1.122-1.938-2.04C91.136,221.259,90.524,219.424,90.524,217.386L90.524,217.386z M91.238,165.685v51.701
	c0,2.141,0.408,3.772,1.122,5.098c0.407,0.815,1.02,1.428,1.734,1.937c0.612,0.407,1.427,0.612,2.344,0.612
	c1.021,0,2.142-0.306,3.365-0.918l52.821-30.285c2.448-1.326,4.588-3.874,6.22-6.934c1.53-3.059,2.652-6.527,2.652-9.687v-51.597
	L91.238,165.685z"/>
<polygon class="st3" points="84.814,80.337 161.598,124.693 91.034,165.175 14.352,120.921 "/>
<path class="st4" d="M139.777,116.842l13.154,7.648l-13.154,7.444c0.612-1.529,1.326-4.079,1.326-7.342
	C141.306,121.227,140.489,118.473,139.777,116.842z"/>
<path class="st1" d="M179.953,105.422l0.203-45.378c0-5.404-4.283-7.24-9.585-4.283l-7.648,4.283l-0.102,0.205v64.648l7.547-4.18
	C175.465,117.556,179.953,110.724,179.953,105.422z"/>
<path class="st0" d="M180.361,59.942l-0.205,45.377c0,2.752-1.121,5.812-2.957,8.668c-1.835,2.752-4.181,5.301-6.934,6.83
	l-7.75,4.386l-0.407,0.202V60.248l0.101-0.205l0.102-0.101l7.852-4.386c1.835-0.916,3.364-1.427,4.792-1.427
	c0.917,0,1.835,0.205,2.55,0.612c0.713,0.408,1.325,1.02,1.835,1.835C180.156,57.291,180.361,58.616,180.361,59.942L180.361,59.942z
	 M179.749,105.422l0.204-45.378c0-1.223-0.204-2.448-0.714-3.263c-0.408-0.714-0.917-1.224-1.529-1.529
	c-0.613-0.306-1.428-0.51-2.346-0.51c-1.326,0-2.957,0.408-4.487,1.326l-7.851,4.386l-0.102,0.101v63.935l7.342-4.181
	c2.651-1.427,4.996-3.874,6.73-6.628C178.525,111.03,179.647,107.971,179.749,105.422z"/>
<polygon class="st1" points="90.729,83.294 90.729,18.746 162.617,60.349 162.617,124.896 "/>
<polygon class="st5" points="158.641,121.837 158.641,62.184 93.583,24.455 93.889,41.79 93.889,84.72 152.522,118.984 
	158.538,122.348 "/>
<polygon class="st6" points="108.369,33.022 93.583,24.455 93.889,41.893 93.889,84.823 152.522,118.984 158.538,122.348 
	158.641,121.837 158.641,71.362 108.369,42.199 "/>
<path class="st0" d="M159.049,122.756l-0.51-0.306V62.184L93.889,24.661v60.367L93.38,84.72V24.253c0-0.102,0.102-0.307,0.306-0.307
	c0.102,0,0.102,0,0.102,0l65.158,37.832c0.102,0,0.102,0.102,0.102,0.205V122.756z"/>
<path class="st0" d="M90.932,19.154v63.935l71.176,41.298V60.349L90.932,19.154L90.932,19.154z M90.32,83.191V18.542
	c0-0.102,0.102-0.306,0.306-0.306c0.102,0,0.102,0,0.203,0l71.788,41.604c0.102,0,0.102,0.102,0.102,0.204v64.548
	c0,0.101-0.102,0.305-0.306,0.305c-0.102,0-0.102,0-0.102,0L90.524,83.294C90.423,83.395,90.32,83.294,90.32,83.191z"/>
<path class="st5" d="M55.65,164.768l-9.79-5.71l-3.263,2.347l2.244,4.997l3.466,10.604l2.754,3.466
	c3.977-2.445,4.385-2.956,4.486-6.321L55.65,164.768z"/>
<path class="st0" d="M46.065,158.751l9.788,5.71c0.102,0.102,0.205,0.204,0.205,0.408v9.279c0,1.836-0.205,2.855-0.919,3.772
	c-0.612,0.919-1.835,1.735-3.772,2.856c-0.205,0.102-0.408,0.102-0.612-0.101l-2.754-3.467l-3.467-10.605c0,0,0,0,0-0.102
	l-2.243-4.792c-0.102-0.205,0-0.408,0.102-0.51l3.263-2.345C45.759,158.65,45.963,158.65,46.065,158.751L46.065,158.751z
	 M55.14,165.075l-9.38-5.508l-2.754,1.938l2.142,4.487l3.365,10.502l2.549,3.162c1.734-1.02,2.754-1.735,3.263-2.448
	c0.509-0.714,0.714-1.734,0.714-3.263L55.14,165.075z"/>
<path class="st2" d="M52.49,166.807l-9.79-5.404v10.399c0,8.363,9.79,12.136,9.79,5.608V166.807z"/>
<path class="st0" d="M51.877,177.311c0,1.427-0.509,2.345-1.223,2.65c-0.509,0.205-1.02,0.307-1.529,0.205
	c-0.612-0.102-1.224-0.408-1.938-0.714c-2.243-1.223-4.18-3.977-4.18-7.649v-9.687l8.973,4.998v10.198H51.877L51.877,177.311z
	 M42.904,160.995c-0.204-0.205-0.509-0.102-0.509,0.1c-0.102,0.104-0.102,0.104-0.102,0.206v10.401c0,4.078,2.243,7.137,4.588,8.565
	c0.714,0.408,1.428,0.713,2.244,0.816c0.815,0.101,1.326,0.101,2.038-0.205c1.02-0.51,1.836-1.734,1.836-3.469v-10.604
	c0-0.204-0.102-0.306-0.204-0.407L42.904,160.995z"/>
<path class="st0" d="M90.423,159.465l-66.588-38.443l15.398-8.973c0-0.204,0.102-0.509,0.205-0.713l-16.315,9.481
	c-0.102,0.103-0.205,0.205-0.102,0.409l0.102,0.101l67.301,38.749c0.101,0.102,0.204,0,0.306,0l59.55-33.854v-0.714L90.423,159.465z
	"/>
<polygon class="st7" points="90.699,160.025 79.64,153.346 92.935,145.671 96.732,154.122 98.344,155.604 "/>
<path class="st0" d="M90.423,159.465l-66.588-38.443l3.264-1.937v-0.612l-3.977,2.344c-0.102,0.103-0.205,0.205-0.102,0.409
	l0.102,0.101l67.301,38.749c0.101,0.102,0.204,0,0.306,0l60.774-34.568v-0.714L90.423,159.465z"/>
<polygon class="st1" points="52.796,103.789 52.796,99.303 14.352,121.431 91.034,165.685 161.496,125.102 144.365,115.209 
	140.183,117.148 152.522,124.896 90.83,160.282 33.829,127.752 23.937,121.227 "/>
<path class="st1" d="M90.932,165.278v52.005c0,6.525,3.977,9.584,8.973,6.73l52.719-30.286c4.793-2.855,8.973-10.4,8.973-16.927
	v-52.107l-70.462,40.585H90.932z"/>
<path class="st0" d="M160.884,124.693l-21.911-12.659v-0.691L161.7,124.49c0.102,0.102,0.204,0.203,0.102,0.407L161.7,125
	l-70.564,40.787c-0.101,0.102-0.203,0-0.306,0l-76.988-44.255c-0.101-0.101-0.204-0.205-0.101-0.408l0.101-0.102l45.866-26.501
	v0.654l-45.152,25.95l76.274,43.848L160.884,124.693z"/>
<path class="st8" d="M136.439,132.322l11.568-6.268c1.766-1.123,2.73-3.214,2.73-6.107l0.161-33.417
	c0-6.588-2.609-13.822-9.196-17.517L112.659,52.79c-5.141-2.893-7.873-1.929-11.729,0.48l-8.675,4.5l24.421,36.312L136.439,132.322z
	"/>
<path class="st9" d="M89.041,97.454L89.2,64.036c0-6.587,5.625-8.996,12.211-5.3l28.666,16.193
	c6.588,3.694,9.734,10.326,9.573,17.548l-0.16,33.418c0,6.587-5.625,8.998-12.211,5.301l-26.189-14.78
	C94.502,112.558,89.041,104.044,89.041,97.454z"/>
<path class="st10" d="M89.041,97.454L89.2,64.036c0-4.459,2.524-6.261,6.22-6.566c0.693-0.057,1.366,0.066,2.038,0.169l0.814,1.524
	l0.656,1.522l0.485,1.514l0.301,1.498l0.103,1.474v0.713v0.713v0.713v0.713v0.713v0.713v0.713v0.713v0.713v0.713v0.713v0.713v0.713
	v0.713v0.713v0.713v0.713v0.713v0.713v0.713v0.713v0.713v0.08l2.44-1.352l5.935,3.456l1.386,0.939l1.296,1.14l1.207,1.325
	l1.118,1.491l1.028,1.642l0.939,1.775l0.849,1.892l0.76,1.992l0.67,2.075l0.581,2.141l0.492,2.19l0.402,2.222l0.313,2.238
	l0.223,2.236l0.134,2.218l0.045,2.183l-0.045,2.131l-0.134,2.062l-0.223,1.976l-0.313,1.873l-0.402,1.754l-0.492,1.617l-0.581,1.464
	l-0.009,0.016l-16.343-9.224C94.502,112.558,89.041,104.044,89.041,97.454z"/>
<path class="st11" d="M148.18,125.968c1.766-1.123,2.73-3.214,2.73-6.107l0.161-34.659c0.175-7.812-3.628-13.017-10.215-16.712
	l-28.024-15.787c-5.141-2.893-7.873-1.929-11.729,0.481l-8.65,4.537c-1.904,1.081-3.08,3.218-3.08,6.228l-0.159,33.419
	c0,6.59,5.462,15.104,12.05,18.961l26.189,14.78c3.546,1.991,6.812,2.21,9.073,0.961L148.18,125.968z"/>
<g>
	<path class="st12" d="M129.425,107.548c1.006-0.152,2.012-0.303,3.018-0.455c-0.335-0.911-0.808-1.902-1.492-3.016
		c-1.972-3.208-5.647-5.238-7.657-4.514c-2.195,0.791-2.336,4.703-0.723,8.172c0.976,2.099,3.02,4.369,4.496,5.86
		c1.389,1.456,2.518,2.997,2.671,4.262c0.188,3.095-3.103,1.34-4.674-0.836c-0.623-0.863-1.091-1.794-1.553-2.908
		c-1.041,0.111-2.081,0.221-3.122,0.332c0.848,2.38,2.071,4.548,3.937,6.352c1.877,1.741,3.842,2.948,5.689,3.307
		c4.123,0.802,4.663-5.601,1.259-10.47c-0.671-0.959-1.463-1.846-2.283-2.734c-0.861-1.012-2.928-3.205-3.44-4.364
		c-0.621-1.406-0.353-2.513,0.526-2.543C127.407,103.95,128.813,105.674,129.425,107.548z"/>
	<path class="st12" d="M115.841,94.112l3.746,2.177v14.859c0,3.557-0.73,5.769-3.885,4.911c-1.175-0.303-2.392-0.992-3.659-2.127
		c-1.903-1.817-3.189-3.859-3.798-6.146c1.012-0.134,2.023-0.269,3.035-0.403c0.683,1.875,1.404,3.026,2.324,3.664
		c0.225,0.131,0.451,0.262,0.676,0.393c1.584,0.577,1.561-0.97,1.561-2.511V94.112z"/>
</g>
<g>
	<polygon class="st13" points="76.107,149.299 88.432,142.467 88.187,142.607 87.921,142.705 87.636,142.759 87.334,142.768 
		87.016,142.731 86.685,142.646 86.342,142.513 85.989,142.33 85.636,142.102 85.292,141.835 84.961,141.534 84.643,141.201 
		84.341,140.84 84.057,140.455 83.79,140.047 83.545,139.62 83.322,139.179 83.123,138.724 82.95,138.262 82.804,137.793 
		82.688,137.322 82.603,136.851 82.551,136.384 82.533,135.925 82.551,135.486 82.603,135.081 82.688,134.71 82.804,134.374 
		82.95,134.074 83.123,133.813 83.322,133.591 83.545,133.409 71.22,140.242 70.997,140.424 70.798,140.646 70.625,140.907 
		70.479,141.206 70.363,141.542 70.278,141.914 70.226,142.319 70.208,142.758 70.226,143.217 70.278,143.684 70.363,144.154 
		70.479,144.626 70.625,145.094 70.798,145.557 70.997,146.011 71.22,146.453 71.465,146.88 71.731,147.287 72.016,147.673 
		72.318,148.034 72.636,148.367 72.967,148.668 73.31,148.934 73.664,149.163 74.017,149.345 74.36,149.479 74.691,149.564 
		75.009,149.601 75.31,149.592 75.596,149.538 75.862,149.44 	"/>
	<polygon class="st14" points="46.298,94.306 58.103,87.761 57.783,87.962 57.478,88.192 57.189,88.448 56.915,88.73 56.657,89.04 
		56.418,89.374 56.195,89.735 55.991,90.12 55.807,90.53 55.641,90.964 55.496,91.422 55.371,91.904 55.268,92.408 55.187,92.935 
		55.128,93.484 55.092,94.056 55.08,94.648 55.08,107.403 43.275,113.948 43.275,101.193 43.287,100.6 43.322,100.029 43.381,99.48 
		43.463,98.953 43.566,98.448 43.69,97.967 43.835,97.509 44.001,97.074 44.186,96.665 44.389,96.279 44.612,95.919 44.852,95.584 
		45.109,95.275 45.383,94.992 45.672,94.736 45.978,94.507 	"/>
	<polygon class="st15" points="54.399,98.516 66.205,91.971 86.53,103.809 87.002,104.068 87.467,104.294 87.927,104.487 
		88.378,104.647 88.823,104.774 89.258,104.87 89.685,104.934 90.103,104.967 90.51,104.969 90.907,104.941 91.292,104.883 
		91.666,104.796 92.027,104.679 92.374,104.534 92.709,104.36 80.903,110.904 80.568,111.078 80.221,111.224 79.86,111.34 
		79.486,111.428 79.101,111.485 78.704,111.514 78.297,111.511 77.88,111.478 77.453,111.415 77.017,111.319 76.573,111.191 
		76.121,111.031 75.661,110.838 75.196,110.613 74.724,110.353 	"/>
	<polygon class="st16" points="31.306,63.932 43.111,57.387 44.139,56.943 45.257,56.753 46.464,56.835 47.76,57.204 49.145,57.879 
		75.391,73.165 63.585,79.709 37.34,64.423 35.954,63.749 34.658,63.379 33.451,63.297 32.334,63.488 	"/>
	<polygon class="st17" points="63.616,125.501 75.422,118.956 75.422,122.062 63.616,128.607 	"/>
	<polygon class="st18" points="63.616,128.607 75.422,122.062 93.466,132.572 81.66,139.116 	"/>
	<polygon class="st18" points="81.66,139.116 93.466,132.572 93.466,142.76 93.363,144.114 93.062,145.262 92.577,146.211 
		91.922,146.969 91.107,147.544 80.196,153.593 80.089,153.533 80.115,153.514 80.772,152.755 81.257,151.806 81.557,150.658 
		81.66,149.304 	"/>
	<polygon class="st16" points="55.405,65.05 67.211,58.505 66.955,58.599 66.682,58.651 66.393,58.659 66.089,58.624 65.772,58.542 
		65.443,58.415 65.105,58.24 64.766,58.021 64.438,57.766 64.121,57.477 63.816,57.159 63.527,56.813 63.254,56.443 62.999,56.053 
		62.764,55.644 62.55,55.221 62.36,54.786 62.194,54.343 62.054,53.894 61.943,53.442 61.862,52.992 61.812,52.545 61.795,52.105 
		61.812,51.684 61.862,51.296 61.943,50.94 62.054,50.619 62.194,50.332 62.36,50.082 62.55,49.869 62.764,49.695 62.999,49.56 
		51.193,56.105 50.958,56.239 50.744,56.414 50.554,56.627 50.389,56.877 50.249,57.163 50.137,57.485 50.056,57.841 50.006,58.229 
		49.989,58.649 50.006,59.089 50.056,59.537 50.137,59.987 50.249,60.438 50.389,60.888 50.554,61.331 50.744,61.766 50.958,62.189 
		51.193,62.597 51.449,62.988 51.721,63.358 52.01,63.703 52.315,64.022 52.632,64.31 52.96,64.565 53.299,64.784 53.637,64.959 
		53.966,65.087 54.283,65.168 54.587,65.204 54.877,65.195 55.15,65.144 	"/>
	<polygon class="st16" points="47.899,51.121 59.705,44.577 60.664,44.177 61.754,43.945 62.963,43.874 64.277,43.955 
		65.684,44.181 67.169,44.545 68.72,45.037 70.324,45.652 71.967,46.381 73.637,47.217 75.319,48.151 77.002,49.177 78.672,50.286 
		80.315,51.471 81.919,52.725 83.47,54.039 84.955,55.405 86.362,56.818 87.676,58.267 88.884,59.747 89.975,61.249 90.934,62.765 
		91.748,64.288 92.404,65.81 92.889,67.324 93.189,68.822 93.292,70.296 93.292,71.01 93.292,71.723 93.292,72.436 93.292,73.15 
		93.292,73.863 93.292,74.576 93.292,75.29 93.292,76.003 93.292,76.717 93.292,77.43 93.292,78.143 93.292,78.856 93.292,79.57 
		93.292,80.283 93.292,80.997 93.292,81.71 93.292,82.423 93.292,83.136 93.292,83.85 93.292,84.563 93.292,85.277 93.292,85.99 
		93.292,86.703 93.292,87.416 93.292,88.13 93.292,88.843 93.292,89.557 93.292,90.27 93.292,90.983 93.292,91.696 93.292,92.41 
		93.292,93.123 93.281,93.704 93.248,94.266 93.194,94.807 93.118,95.328 93.022,95.828 92.907,96.307 92.771,96.764 92.618,97.199 
		92.445,97.612 92.255,98.003 92.048,98.37 91.824,98.714 91.583,99.035 91.327,99.331 91.055,99.603 90.769,99.85 90.468,100.072 
		90.154,100.269 78.349,106.814 78.663,106.617 78.963,106.395 79.25,106.148 79.521,105.875 79.777,105.579 80.018,105.259 
		80.242,104.915 80.449,104.547 80.64,104.157 80.812,103.744 80.966,103.308 81.101,102.851 81.217,102.373 81.312,101.873 
		81.388,101.352 81.442,100.81 81.475,100.249 81.486,99.668 81.486,98.954 81.486,98.241 81.486,97.527 81.486,96.814 
		81.486,96.101 81.486,95.388 81.486,94.674 81.486,93.961 81.486,93.248 81.486,92.535 81.486,91.821 81.486,91.108 81.486,90.394 
		81.486,89.681 81.486,88.968 81.486,88.254 81.486,87.541 81.486,86.828 81.486,86.115 81.486,85.401 81.486,84.688 81.486,83.974 
		81.486,83.261 81.486,82.548 81.486,81.835 81.486,81.121 81.486,80.408 81.486,79.694 81.486,78.981 81.486,78.268 81.486,77.554 
		81.486,76.841 81.384,75.367 81.083,73.869 80.598,72.355 79.942,70.833 79.128,69.309 78.169,67.793 77.079,66.291 75.87,64.812 
		74.556,63.362 73.149,61.95 71.664,60.583 70.113,59.269 68.509,58.016 66.866,56.831 65.196,55.722 63.514,54.696 61.831,53.761 
		60.161,52.926 58.518,52.197 56.914,51.582 55.363,51.089 53.878,50.726 52.472,50.5 51.157,50.418 49.948,50.49 48.858,50.722 	
		"/>
	<polygon class="st15" points="48.852,98.397 60.658,91.852 60.985,91.681 61.325,91.537 61.677,91.419 62.041,91.327 
		62.416,91.263 62.801,91.227 63.197,91.218 63.602,91.238 64.016,91.286 64.439,91.364 64.87,91.471 65.308,91.608 65.753,91.774 
		66.205,91.971 54.399,98.516 53.947,98.319 53.502,98.152 53.064,98.016 52.633,97.908 52.211,97.831 51.796,97.783 51.391,97.763 
		50.996,97.771 50.61,97.808 50.235,97.872 49.872,97.963 49.519,98.081 49.18,98.226 	"/>
	<polygon class="st13" points="83.926,91.262 95.732,84.718 101.667,88.174 103.053,89.113 104.349,90.253 105.555,91.578 
		106.673,93.069 107.701,94.711 108.64,96.486 109.489,98.379 110.249,100.37 110.919,102.445 111.5,104.586 111.992,106.776 
		112.394,108.998 112.707,111.236 112.93,113.472 113.064,115.69 113.109,117.872 113.064,120.003 112.93,122.065 112.707,124.04 
		112.394,125.913 111.992,127.667 111.5,129.284 110.919,130.748 110.249,132.042 109.489,133.149 108.639,134.052 107.701,134.733 
		95.895,141.278 96.834,140.596 97.683,139.694 98.443,138.587 99.113,137.293 99.694,135.829 100.186,134.211 100.588,132.458 
		100.901,130.585 101.125,128.609 101.259,126.547 101.304,124.417 101.259,122.234 101.125,120.017 100.901,117.78 
		100.588,115.542 100.186,113.32 99.694,111.131 99.113,108.99 98.443,106.915 97.683,104.923 96.834,103.031 95.895,101.256 
		94.867,99.614 93.749,98.123 92.543,96.798 91.247,95.658 89.861,94.719 	"/>
	<path class="st19" d="M53.384,56.395c1.831,1.066,3.314,3.816,3.314,6.142c0,2.326-1.484,3.348-3.314,2.282
		c-1.83-1.066-3.314-3.816-3.314-6.143C50.07,56.351,51.554,55.329,53.384,56.395L53.384,56.395z M81.606,76.891
		c0-15.589-35.99-36.551-35.99-20.961v10.201l18.067,10.522v3.11L37.405,64.459c-15.275-8.897-15.276,37.228,0,46.124l5.942,3.46
		v-12.771c0-6.441,4.146-9.295,9.213-6.344l20.35,11.852c4.857,2.268,8.696-0.723,8.696-7.035
		C81.606,92.128,81.606,84.509,81.606,76.891z"/>
	<path class="st8" d="M74.013,148.979c-1.83-1.066-3.314-3.816-3.314-6.142c0-2.326,1.484-3.348,3.314-2.282
		c1.83,1.066,3.314,3.816,3.314,6.143C77.327,149.024,75.843,150.045,74.013,148.979L74.013,148.979z M45.79,128.483
		c0,2.15,0.687,4.402,1.867,6.646l32.604,18.501c0.966-0.889,1.519-2.257,1.519-4.186v-10.201l-18.067-10.523v-3.11l26.277,15.304
		c15.275,8.896,15.276-37.228,0-46.124l-5.942-3.461v12.771c0,6.441-4.146,9.295-9.213,6.344l-20.35-11.852
		c-4.857-2.269-8.696,0.723-8.696,7.035C45.79,113.247,45.79,120.865,45.79,128.483z"/>
</g>
<g>
	<path class="st16" d="M153.594,14.509c10.299,6.017,18.457,21.619,18.457,35.079c0,7.342-2.448,12.644-6.424,14.785
		c-0.306,0.101-0.612,0.306-1.019,0.408l-7.444,3.365l-1.734-4.283c-0.612-0.306-1.02-0.612-1.631-0.919
		c-10.299-6.015-18.457-21.618-18.457-35.077c0-2.957,0.306-5.608,1.224-7.751l-1.633-3.772l7.241-3.263
		C144.928,11.656,149.006,11.96,153.594,14.509z"/>
	<path class="st19" d="M145.64,18.283c10.299,6.017,18.457,21.619,18.457,35.078c0,13.461-8.362,19.477-18.457,13.663
		c-10.299-6.015-18.456-21.616-18.456-35.076C126.98,18.283,135.239,12.267,145.64,18.283z"/>
</g>
<g>
	<path class="st1" d="M137.345,31.106c-1.944-1.155-2.93-0.494-2.93,1.45c0,1.348,0.499,2.787,1.695,4.418l1.406,1.978
		c0.513,0.713,0.867,1.248,0.867,1.794c0,0.631-0.394,0.721-1.13,0.284c-0.841-0.499-1.708-1.406-2.588-2.628l-0.92,1.825
		c1.038,1.401,2.195,2.496,3.429,3.23c2.142,1.271,3.351,0.744,3.351-1.559c0-1.672-0.644-3.009-1.748-4.534l-1.524-2.15
		c-0.525-0.721-0.696-1.062-0.696-1.42c0-0.409,0.197-0.582,0.841-0.2c0.604,0.359,1.235,0.972,2.076,1.983l0.854-1.83
		C139.237,32.485,138.225,31.628,137.345,31.106L137.345,31.106z M151.339,51.609l-1.564-2.941c0.631-0.666,1.012-1.787,1.012-3.356
		c0-3.736-2.116-7.482-4.849-9.104c-2.733-1.622-4.849-0.388-4.849,3.347c0,3.735,2.115,7.481,4.849,9.104
		c0.959,0.569,1.84,0.785,2.589,0.667L149,50.22L151.339,51.609L151.339,51.609z M145.938,45.93
		c-1.472-0.874-2.601-2.892-2.601-5.041c0-2.149,1.13-2.826,2.601-1.952c1.472,0.874,2.602,2.892,2.602,5.041
		c0,0.733-0.131,1.304-0.368,1.692l-0.959-1.814l-2.326-1.381l2.023,3.828C146.622,46.267,146.28,46.133,145.938,45.93
		L145.938,45.93z M154.085,41.299l-2.037-1.209v11.94l5.702,3.385v-2.49l-3.666-2.176V41.299z"/>
</g>
<path class="st0" d="M90.267,159.442L23.804,121.02l15.475-9.376l-0.604-0.362l-15.584,9.533c-0.102,0.104-0.205,0.205-0.102,0.409
	l0.102,0.101l67.176,38.728c0.101,0.102,0.204,0,0.306,0l61.922-35.168l-1.275-0.811l-0.329,0.643l0.339,0.178L90.267,159.442z"/>
<g>
	<g>
		<path class="st20" d="M130.418,165.222c0.533-0.306,0.965,0.025,0.965,0.741c0,0.715-0.432,1.544-0.965,1.85
			c-0.533,0.306-0.965-0.025-0.965-0.741C129.453,166.356,129.885,165.528,130.418,165.222L130.418,165.222z M138.64,161.745
			c0-4.795-10.484,1.23-10.484,6.025v3.138l5.263-3.025v0.956l-7.655,4.399c-4.45,2.557-4.45,16.745,0,14.188l1.731-0.995v-3.929
			c0-1.981,1.208-4.296,2.684-5.144l5.928-3.407c1.415-0.985,2.533-3.236,2.533-5.178C138.64,166.432,138.64,164.089,138.64,161.745
			z"/>
		<path class="st20" d="M136.427,186.551c-0.533,0.306-0.965-0.025-0.965-0.741c0-0.715,0.432-1.544,0.965-1.851
			c0.533-0.306,0.966,0.025,0.966,0.741C137.393,185.416,136.961,186.245,136.427,186.551L136.427,186.551z M128.206,190.027
			c0,4.795,10.484-1.23,10.484-6.025v-3.138l-5.263,3.025v-0.956l7.655-4.399c4.45-2.557,4.45-16.745,0-14.188l-1.731,0.995v3.928
			c0,1.981-1.208,4.296-2.684,5.145l-5.928,3.407c-1.415,0.985-2.533,3.236-2.533,5.178
			C128.206,185.341,128.206,187.684,128.206,190.027z"/>
	</g>
</g>
<g>
	<path class="st6" d="M122.94,167.736l7.2-3.901c1.099-0.699,1.699-2,1.699-3.801l0.101-20.798c0-4.1-3.4-9.499-7.5-11.799
		l-16.299-9.2c-3.2-1.8-4.9-1.201-7.3,0.299l-5.399,2.801l15.199,22.599L122.94,167.736z"/>
	<path class="st21" d="M93.441,146.036l0.099-20.799c0-4.099,3.501-5.599,7.6-3.299l16.299,9.2c4.1,2.299,7.6,7.699,7.5,11.8
		l-0.099,20.799c0,4.099-3.501,5.6-7.6,3.299l-16.299-9.198C96.84,155.436,93.441,150.137,93.441,146.036z"/>
	<path class="st22" d="M130.247,163.782c1.099-0.699,1.699-2,1.699-3.8l0.101-20.798c0-4.1-3.4-9.5-7.5-11.8l-16.299-9.2
		c-3.2-1.8-4.9-1.201-7.3,0.299l-5.384,2.824c-1.185,0.673-1.917,2.003-1.917,3.876l-0.099,20.799c0,4.102,3.399,9.4,7.5,11.801
		l16.299,9.198c2.207,1.239,4.24,1.375,5.647,0.598L130.247,163.782z"/>
	<path class="st12" d="M107.795,134.853l2.734,1.535l-0.029,14.048c-2.466-0.842-4.649-1.946-6.224-3.609
		c-2.382-2.34-2.795-6.13-1.69-7.958c0.624-1.033,1.575-1.204,3.004-0.676c0.743,0.274,1.548,0.711,2.205,1.314V134.853
		L107.795,134.853z M112.041,137.237l2.734,1.535v3.107l-2.734-1.535V137.237L112.041,137.237z M112.041,141.865v7.255
		c0.058,2.524-0.463,4.162-2.574,3.91c0.79,0.89,1.595,1.788,2.385,2.677c2.49,0.502,2.966-2.031,2.923-4.771v-7.536
		L112.041,141.865L112.041,141.865z M107.795,146.802l0.015-4.867c-3.604-3.019-3.814,1.804-1.76,3.887
		C106.632,146.322,107.214,146.654,107.795,146.802z"/>
</g>
</svg>
