<?xml version="1.0" encoding="utf-8"?>
<!-- Generator: Adobe Illustrator 25.4.0, SVG Export Plug-In . SVG Version: 6.00 Build 0)  -->
<svg version="1.1" id="Layer_1" xmlns="http://www.w3.org/2000/svg" xmlns:xlink="http://www.w3.org/1999/xlink" x="0px" y="0px"
	 viewBox="0 0 182 240" style="enable-background:new 0 0 182 240;" xml:space="preserve">
<style type="text/css">
	.st0{fill:#B3B4B4;}
	.st1{fill:#FFFFFF;}
	.st2{fill:#F6F6F6;}
	.st3{fill:#DADCDD;}
	.st4{fill:#EBECEB;}
	.st5{fill-rule:evenodd;clip-rule:evenodd;fill:#DADCDD;}
	.st6{fill:#E6E7E8;}
	.st7{fill:#EFEFEF;}
	.st8{fill:#00ACD7;}
	.st9{fill:#CFCEC9;}
	.st10{fill:#A06CE3;}
	.st11{fill:#A8D424;}
	.st12{fill-rule:evenodd;clip-rule:evenodd;fill:#ED4C6F;}
	.st13{fill-rule:evenodd;clip-rule:evenodd;fill:#2EBCE3;}
	.st14{fill-rule:evenodd;clip-rule:evenodd;fill:#B3B4B4;}
	.st15{fill-rule:evenodd;clip-rule:evenodd;fill:#F4B728;}
	.st16{fill-rule:evenodd;clip-rule:evenodd;fill:#C8C8C8;}
	.st17{fill-rule:evenodd;clip-rule:evenodd;fill:#5FB037;}
	.st18{fill-rule:evenodd;clip-rule:evenodd;fill:#A8D424;}
	.st19{fill:#FFFFFF;stroke:#2EBCE3;stroke-width:4.7324;stroke-linejoin:round;stroke-miterlimit:10;}
	.st20{fill:#DBEEF7;stroke:#2EBCE3;stroke-width:0.7887;stroke-miterlimit:10;}
	.st21{fill:#FFFFFF;stroke:#2EBCE3;stroke-width:0.7887;stroke-miterlimit:10;}
	.st22{fill:#DBEEF7;}
	.st23{fill-rule:evenodd;clip-rule:evenodd;fill:#6E2CC4;}
	.st24{fill-rule:evenodd;clip-rule:evenodd;fill:#A06CE3;}
	.st25{fill-rule:evenodd;clip-rule:evenodd;fill:#FFFFFF;}
</style>
<g>
	<path class="st0" d="M159.3,129.7l6.5-3.7c2.5-1.5,4.6-3.5,6.1-6c1.5-2.2,2.4-4.7,2.6-7.4l0.2-44.1c0-0.7-0.1-1.5-0.4-2.2
		c-0.2-0.4-0.5-0.8-0.9-1l-0.1-0.1l-72.5-41.9l-0.3-0.1c-0.6-0.2-1.2-0.3-1.8-0.2c-1.1,0.2-2.1,0.5-3.1,1.1l-6.7,3.8v61L159.3,129.7
		L159.3,129.7L159.3,129.7z M168,130l-7.6,4.3c-0.7,0.4-1.5,0.4-2.2,0l-72.6-42c-0.8-0.4-1.3-1.1-1.3-2V26.9c0-0.4,0.1-0.8,0.3-1.1
		l0.1-0.2c0.2-0.4,0.5-0.7,0.9-0.9l7.7-4.4c1.5-0.9,3.1-1.4,4.8-1.6c1.5-0.2,3.1,0.1,4.5,0.8l0.2,0.1l0.1,0.1l72.5,41.9
		c0.1,0,0.2,0.1,0.3,0.2h0.1c1.1,0.7,2,1.7,2.6,2.9c0.6,1.3,0.9,2.7,0.8,4.1l-0.1,44.1c-0.2,3.5-1.3,6.9-3.2,9.8
		C173.8,125.5,171.2,128.1,168,130L168,130z"/>
	<path class="st1" d="M95.3,65.6v-6.3l63.3,39.3l15.9-35.1l-72.7-42l-0.1-0.1c-1.8-1-4.4-0.8-7.2,0.8l-7.8,4.4l-0.2,0.3v26.6
		L85.4,81C90.8,78,95.2,71.1,95.3,65.6L95.3,65.6L95.3,65.6z"/>
	<path class="st0" d="M103.8,70.7v-6.8l0.4,0.3l54.2,21.3l15.7-21.9l-72.4-41.8l-0.1-0.1c-1-0.5-2-0.7-3.1-0.5
		c-1.4,0.2-2.7,0.6-3.8,1.3L87,26.8l-0.1,0.1v62.9l7.2-4.1c2.8-1.7,5.1-3.9,6.8-6.7C102.6,76.6,103.6,73.7,103.8,70.7L103.8,70.7z
		 M104.4,64.9v5.8c-0.2,3.1-1.2,6.1-2.9,8.7c-1.8,2.8-4.2,5.2-7,6.9l-7.8,4.3l-0.4,0.2v-64l0.2-0.3l0.1-0.1l7.7-4.4
		c1.2-0.7,2.6-1.2,4.1-1.4c1-0.1,2.1,0,3,0.4l0.4,0.2l0.1,0.1l72.7,42l0.2,0.1l-0.1,0.2l-15.9,22.3l-0.1,0.2l-0.2-0.2
		C158.4,86.1,104.4,64.9,104.4,64.9z"/>
	<path class="st0" d="M20.7,130.6V179c0,1.1,0.2,2.3,0.6,3.3c0.2,0.6,0.6,1.2,1.2,1.5l0.1,0.1l72.8,41.9c0.1,0.1,0.2,0.1,0.3,0.2
		c0.4,0.2,0.8,0.3,1.2,0.2c0.7-0.1,1.4-0.3,2-0.7l50.7-29.4c2.2-1.5,4-3.5,5.1-5.9c1.4-2.6,2.1-5.4,2.2-8.3v-48.3L86.3,92.7
		L20.7,130.6z M16.1,179v-49.7c0-0.8,0.4-1.5,1.1-1.9l67.9-39.2c0.7-0.4,1.6-0.4,2.3,0l72.9,42.1c0.8,0.4,1.3,1.1,1.3,2V182
		c-0.1,3.6-1,7.2-2.8,10.4c-1.6,3.1-3.9,5.8-6.9,7.7l-50.7,29.4c-1.2,0.7-2.6,1.2-4,1.3s-2.8-0.3-4-1l-72.9-42
		c-0.1-0.1-0.3-0.1-0.4-0.2c-1.3-0.8-2.3-2.1-2.9-3.5C16.4,182.5,16,180.7,16.1,179L16.1,179L16.1,179z"/>
	<path class="st2" d="M18.7,129.4V179c0,3.4,1.1,5.8,2.9,6.8l69.2,40c1.8,1.2,3.9,1.9,6.1,2.2l26.4-21.7c4.7-2.7,8.5-9.9,8.5-16.1
		v-41.6l-39.9,22.2C91.9,170.7,18.7,129.4,18.7,129.4z"/>
	<path class="st0" d="M131.7,148.3l-39.8,22.4l-73.2-41.9l-0.4-0.2V179l0.1,0.5v0.3l-0.1-0.7c0,1.5,0.2,3,0.8,4.3l-0.2-1.1l0.2,0.8
		l0.4,0.7l-0.4-0.5c0.4,1,1,1.8,1.8,2.4c0.1,0.1,0.3,0.2,0.4,0.3l-0.4-0.5l0,0l0.3,0.4l0.7,0.4l73,42.2l0.3,0.2l0.1-0.4l0.7-3.5
		l27.3-18.3c2.6-1.7,4.7-4,6.1-6.9c1.6-2.9,2.5-6.2,2.5-9.5V148L131.7,148.3z M131.5,190.1c-0.1,3.2-0.9,6.4-2.5,9.2
		c-1.3,2.7-3.4,5-5.9,6.6l-27.5,18.4l-0.1,0.1v0.1l-0.7,3.2l-73.3-42.3c-0.9-0.6-1.6-1.4-2-2.5c-0.5-1.3-0.8-2.7-0.7-4.1v-49.4
		l73,41.8l0.1,0.1l0.1-0.1l39.4-22.2v41.1H131.5z"/>
	<path class="st1" d="M92,171v49.6c0,6.2,3.8,9.1,8.5,6.4l50.3-28.9c4.7-2.7,8.5-9.9,8.5-16.1v-49.7l-67.2,38.8L92,171L92,171z"/>
	<path class="st0" d="M92.2,171.4v49.2c-0.1,1.7,0.3,3.3,1.1,4.8c0.4,0.7,1,1.3,1.6,1.8c0.7,0.4,1.4,0.6,2.2,0.6
		c1.1-0.1,2.2-0.4,3.2-1l50.4-28.9c2.5-1.6,4.6-3.9,5.9-6.6c1.5-2.8,2.4-6,2.5-9.2v-49.2L92.2,171.4
		C92.3,171.4,92.2,171.4,92.2,171.4z M91.7,220.6v-50.1l0.4,0.2l67.1-38.7l0.4-0.2V182c-0.1,3.3-0.9,6.6-2.5,9.5
		c-1.4,2.8-3.5,5.2-6.1,6.9l-50.4,28.9c-1,0.6-2.2,1-3.5,1c-0.9,0-1.7-0.2-2.5-0.7s-1.4-1.2-1.8-2C92,224,91.6,222.3,91.7,220.6
		L91.7,220.6z"/>
	<path class="st3" d="M86.1,90.1l73.2,42.3L92.1,171L19,128.8"/>
	<path class="st1" d="M47.3,117.2v-4.3L19,129.2l73.1,42.1l67.2-38.7l-16.4-9.5l-4,1.8l11.8,7.4l-58.6,33.8L37.4,135l-10.9-5.5
		L47.3,117.2"/>
	<path class="st0" d="M86.3,89.8l73.2,42.2c0.1,0.1,0.2,0.2,0.1,0.4l-0.1,0.1l-67.2,38.8c-0.1,0.1-0.2,0.1-0.3,0l-73.4-42.2
		c-0.1-0.1-0.2-0.2-0.1-0.4l0.1-0.1l67.5-38.9C86.1,89.8,86.2,89.8,86.3,89.8L86.3,89.8z M158.8,132.3L86.2,90.4L19.3,129l72.8,41.8
		L158.8,132.3L158.8,132.3z"/>
	<path class="st1" d="M176.6,112.8l0.2-44.1c0-5.4-4.4-7.4-9.7-4.3l-7.7,4.4l-0.1,0.3v63.4l7.6-4.3
		C172.1,125.1,176.6,118.2,176.6,112.8L176.6,112.8L176.6,112.8z"/>
	<path class="st0" d="M176.5,112.7l0.2-44c0-1.1-0.2-2.3-0.8-3.3c-0.4-0.7-0.9-1.2-1.6-1.6c-0.7-0.4-1.5-0.6-2.3-0.6
		c-1.6,0.1-3.2,0.5-4.6,1.4l-7.9,4.4l-0.1,0.1V132l7.5-4.2c2.8-1.7,5.1-3.9,6.8-6.7C175.3,118.6,176.3,115.7,176.5,112.7
		L176.5,112.7z M177.2,68.7l-0.2,44c-0.2,3.1-1.2,6.1-2.9,8.7c-1.8,2.8-4.2,5.2-7,6.9l-7.9,4.4l-0.4,0.2v-64l0.1-0.3l0.1-0.1l8-4.5
		c1.5-0.9,3.2-1.4,4.9-1.5c0.9,0,1.8,0.2,2.6,0.6s1.4,1.1,1.8,1.8C176.9,66.2,177.2,67.4,177.2,68.7L177.2,68.7L177.2,68.7z"/>
	<path class="st1" d="M86.4,90.3V26.9l72.7,42v63.4"/>
	<path class="st4" d="M155.3,130.4l-4.9-2.8L155.3,130.4z M155.3,130.4V70.9L89.5,32.8l0.3,17.5v41.6l59.3,34.9L155.3,130.4
		L155.3,130.4L155.3,130.4z"/>
	<polygon class="st5" points="107.5,51.2 107.5,42.8 89.4,32.3 89.4,38.2 89.4,64 89.4,123.1 125,147.4 155.5,129.8 155.5,79.1 	"/>
	<path class="st0" d="M155.7,130.2l-0.6-0.3v-59L89.7,33v59.2l-0.6-0.3V32.5c0-0.1,0.1-0.2,0.2-0.2s0.2,0,0.3,0l65.9,38.2
		c0.1,0.1,0.1,0.1,0.1,0.2L155.7,130.2L155.7,130.2L155.7,130.2z"/>
	<path class="st0" d="M86.2,90.3V26.9c0-0.1,0.1-0.2,0.2-0.2s0.2,0,0.3,0l72.5,42c0.1,0.1,0.1,0.1,0.1,0.2v63.4
		c0,0.2-0.1,0.3-0.3,0.3c-0.1,0-0.1,0-0.2,0l-72.4-42C86.3,90.5,86.2,90.4,86.2,90.3L86.2,90.3z M86.8,27.4v62.8l72,41.7V69.1
		L86.8,27.4C86.8,27.3,86.8,27.4,86.8,27.4z"/>
	<path class="st4" d="M58.3,170.5l-9.4-5.4l-3.1,2.2l2.1,4.7l3.3,10.1l2.7,3.3c3.8-2.3,4.2-2.8,4.3-6L58.3,170.5
		C58.4,170.5,58.3,170.5,58.3,170.5z"/>
	<path class="st0" d="M57.9,170.7l-8.9-5.2l-2.6,1.8l2,4.3l3.3,10l2.4,3c1.2-0.6,2.2-1.4,3.1-2.3c0.6-0.9,0.8-2,0.7-3.1V170.7
		L57.9,170.7L57.9,170.7z M49.2,164.7l9.3,5.4c0.1,0.1,0.2,0.2,0.2,0.4v8.8c0,1.7-0.2,2.7-0.9,3.6c-1,1.1-2.3,2.1-3.7,2.7
		c-0.2,0.1-0.4,0.1-0.6-0.1l-2.6-3.3l-3.3-10.1V172l-2.1-4.6c-0.1-0.2,0-0.4,0.1-0.5l3.1-2.2C49,164.7,49.1,164.7,49.2,164.7
		L49.2,164.7L49.2,164.7z"/>
	<path class="st2" d="M55.3,172.4l-9.4-5.2v9.9c0,7.9,9.3,11.6,9.3,5.4C55.3,182.5,55.3,172.4,55.3,172.4z"/>
	<path class="st0" d="M54.8,172.7l-8.5-4.7v9.2c-0.1,3,1.5,5.8,4,7.4c0.5,0.3,1.2,0.6,1.8,0.7c0.5,0.1,1,0,1.5-0.2
		c0.9-0.5,1.4-1.5,1.2-2.5V172.7L54.8,172.7L54.8,172.7z M46.1,166.9l9.3,5.1c0.1,0.1,0.2,0.2,0.2,0.4v10.1c0.2,1.3-0.5,2.6-1.7,3.3
		c-0.6,0.2-1.3,0.3-1.9,0.2c-0.7-0.1-1.4-0.4-2.1-0.8c-2.8-1.7-4.5-4.8-4.5-8.1v-9.9c0-0.1,0.1-0.3,0.2-0.4
		C45.8,166.8,46,166.8,46.1,166.9L46.1,166.9L46.1,166.9z M132.9,121.5l18.4,10.6c0.1,0.1,0.2,0.2,0.1,0.4l-0.1,0.1l-59.2,34.1
		c-0.1,0.1-0.2,0.1-0.3,0l-65.4-37.2c-0.1-0.1-0.2-0.2-0.1-0.4l0.1-0.1l12.5-7v0.6l-11.8,6.6l64.8,36.9l58.6-33.8l-17.7-10.2
		L132.9,121.5L132.9,121.5z"/>
	<path class="st6" d="M73.4,54.5"/>
</g>
<g>
	<g>
		<path class="st1" d="M136.2,78.9L136.2,78.9L71.7,41.4c-1.4-0.8-2.7-0.9-3.7-0.3l-3.9,2.4l0,0c-1.4,0.5-2.4,2.2-2.4,4.8v32.8
			l42.7,78.1l37.3-21.5v-48C141.8,85.5,139.3,80.7,136.2,78.9z"/>
		<path class="st0" d="M135.7,77.9L71.1,40.4l0,0c-1-0.6-1.9-0.9-2.9-0.9c-1.1-0.1-2.1,0.1-3,0.7c-0.1,0-0.1,0.1-0.1,0.1l-3.8,2.3
			c-1.1,0.5-2,1.4-2.6,2.6c-0.5,1.1-0.9,2.5-0.9,4v96.5c0,0.8,0.5,1.6,1.2,1.9l1.8,1.2l30.9,17.6l2-1.1l-31.6-20.8V49.1
			c0-0.9,0.1-1.6,0.4-2.1c0.2-0.3,0.4-0.6,0.6-0.6l0,0c0.1,0,0.2-0.1,0.3-0.1c0.1-0.1,0.2-0.1,0.3-0.2l3.6-2.2l0,0
			c0.1-0.1,0.3-0.1,0.5-0.1c0.3,0,0.7,0.1,1.1,0.4l64.6,37.5l0,0c1.2,0.7,2.3,2,3.2,3.7s1.4,3.6,1.4,5.3v49.2l4.3-2.5V90.5
			c0-2.4-0.7-5-1.9-7.3C139.3,81,137.6,79,135.7,77.9z"/>
		<path class="st2" d="M134.4,79.7L134.4,79.7L70,42.2c-1.4-0.8-2.7-0.9-3.7-0.3l-3.9,2.4l1.6,3v97.9c0,0.5,0,1.1,0.1,1.7l28.2,19.2
			l47.7-27.5v-48C140.1,86.4,137.5,81.5,134.4,79.7z"/>
		<path class="st0" d="M135.1,79.5L70.2,42c-0.7-0.4-1.4-0.6-2.1-0.7c-0.7-0.1-1.3,0.1-1.9,0.4l0,0l-3.9,2.4L62,44.2l0.1,0.2
			l1.6,2.9v102.1c0,0.3,0,0.6,0,0.8l0,0l0.6,0.3c0-0.1,0-0.3,0-0.4c0-0.3,0-0.5,0-0.8v-102v-0.1l-1.5-2.7l3.7-2.3
			c0.5-0.3,1-0.4,1.6-0.3c0.6,0,1.2,0.3,1.9,0.6L134.9,80l0,0c1.5,0.9,2.9,2.5,3.9,4.4s1.6,4.1,1.6,6.2v47.9l0.5-0.3V90.5
			c0-2.1-0.7-4.4-1.7-6.4C138.1,82.1,136.7,80.4,135.1,79.5z"/>
		<path class="st1" d="M130.1,82.4L130.1,82.4L65.7,44.8c-3.1-1.8-5.6,0.1-5.6,4.3v98.6l32.1,18.6l43.6-25.2V93.2
			C135.7,89,133.2,84.2,130.1,82.4z"/>
		<path class="st7" d="M110.5,111.7L110.5,111.7L60.3,82.3c-0.1,0-0.1-0.1-0.2-0.1v66l31.8,18.1l24.7-14.3v-28.7
			C116.6,118.9,113.8,113.6,110.5,111.7z"/>
		<path class="st0" d="M130.5,82.1L65.8,44.6l0,0c-0.8-0.5-1.6-0.7-2.4-0.7c-0.6,0-1.2,0.2-1.7,0.5s-0.9,0.7-1.2,1.3
			c-0.5,0.9-0.8,2-0.8,3.5v99l0.5,0.3V49.1c0-1.3,0.3-2.4,0.7-3.2c0.3-0.5,0.6-0.8,1-1.1c0.4-0.2,0.9-0.4,1.4-0.4
			c0.6,0,1.3,0.2,2.1,0.6l64.7,37.5l0,0c1.5,0.9,2.9,2.5,3.9,4.4s1.6,4.1,1.6,6.2V141l0.5-0.3V93.2c0-2.1-0.6-4.4-1.7-6.4
			C133.5,84.8,132.1,83.1,130.5,82.1z"/>
	</g>
	<g>
		<path class="st8" d="M82.5,69.8c0.1,0,0.1,0.1,0.1,0.2v0.5c0,0.1-0.1,0.1-0.1,0.1L78.1,68C78,68,78,67.9,78,67.8l0.3-0.4
			c0,0,0.1-0.1,0.2,0L82.5,69.8z"/>
		<path class="st8" d="M83,67.9c0.1,0,0.1,0.1,0.1,0.2l-0.2,0.5c0,0.1-0.1,0.1-0.2,0l-9.6-5.5C73,63.1,73,63,73,62.9l0.4-0.4
			c0,0,0.1,0,0.2,0L83,67.9z"/>
		<path class="st8" d="M84.1,66.4c0.1,0,0.1,0.1,0.1,0.2L83.9,67c0,0-0.1,0.1-0.2,0l-7.3-4.2c-0.1,0-0.1-0.1-0.1-0.2l0.4-0.4
			c0,0,0.1,0,0.2,0L84.1,66.4z"/>
		<path class="st8" d="M114.5,86.2c0.3,3.3-0.5,5.4-2.3,6.5c-1.3,0.8-3,0.8-4.9,0.2c-0.5-0.2-1.1-0.5-1.6-0.7
			c-1.8-1.1-3.5-2.7-4.9-4.9c-1-1.6-1.7-3.2-2-4.8c-0.2,0.4-0.5,0.8-0.9,1.1c-1.5,1.4-3.4,1.6-5.8,0.6c-0.4-0.2-0.8-0.4-1.2-0.6
			c-1.5-0.9-3-2.2-4.3-4.1c-1.5-2.2-2.3-4.4-2.6-6.6c-0.3-2.7,0.4-4.6,1.7-5.8c1.4-1.3,3.3-1.6,5.7-0.8c0.5,0.2,1.1,0.4,1.6,0.7
			c1.3,0.8,2.6,1.9,3.8,3.5c1.1,1.4,1.8,3,2.3,4.6c0.1,0.3,0,0.3-0.2,0.3c-1.3-0.4-2.1-0.6-3.4-0.9c-0.1,0-0.2,0-0.2-0.1
			c-0.1-0.1-0.2-0.2-0.3-0.5c-0.3-0.6-0.5-1-0.9-1.4c-0.5-0.6-1-1-1.6-1.3c-0.7-0.4-1.4-0.5-2.1-0.4C89,71,88.3,72.1,88.3,74
			c0,1.9,1.1,4,2.7,5.2c0.2,0.1,0.4,0.3,0.6,0.4c1.1,0.7,2.1,0.7,2.9,0.1c0.2-0.1,0.3-0.3,0.5-0.5c-0.7-0.4-1.6-0.9-3.9-2.3
			c-0.4-0.2-0.5-0.6-0.4-0.9c0.3-0.6,0.8-1.5,1-1.9c0.1-0.1,0.2-0.3,0.5-0.1c0.9,0.5,4,2.3,6.5,3.8c0.3-0.9,0.8-1.6,1.4-2.2
			c1.5-1.4,3.3-1.5,5.7-0.6c0.6,0.2,1.2,0.5,1.8,0.8c1.4,0.8,2.7,2,4,3.7C113.3,81.5,114.3,83.8,114.5,86.2z M108,88.5
			c1.6,0,2.5-1,2.6-3c0-0.3,0-0.5-0.1-0.8c-0.3-2.1-1.7-4.2-3.3-5.1c-0.3-0.2-0.6-0.3-0.8-0.4c-1.9-0.6-3.1,0.1-3.5,2
			c-0.4,1.6,0.4,3.9,1.8,5.5c0.5,0.5,1,1,1.5,1.3C106.8,88.4,107.4,88.5,108,88.5"/>
	</g>
	<g>
		<polygon class="st9" points="71.6,118.5 71.6,121.5 67.4,119 67.4,116 		"/>
		<polygon class="st9" points="71.7,111.9 71.6,114.9 67.4,112.4 67.4,109.4 		"/>
		<polygon class="st9" points="71.7,105.3 71.7,108.3 67.4,105.8 67.4,102.8 		"/>
		<polygon class="st9" points="71.7,98.7 71.7,101.7 67.4,99.2 67.4,96.2 		"/>
		<polygon class="st9" points="71.7,92.1 71.7,95.1 67.4,92.6 67.5,89.6 		"/>
		<polygon class="st10" points="71.7,85.5 71.7,88.5 67.5,86 67.5,83.1 		"/>
		<polygon class="st9" points="71.7,78.9 71.7,81.9 67.5,79.4 67.5,76.5 		"/>
		<polygon class="st9" points="90.5,129.4 90.5,132.3 76.5,124.3 76.5,121.3 		"/>
		<polygon class="st9" points="108.6,139.8 108.6,142.8 94.6,134.7 94.6,131.7 		"/>
		<polygon class="st9" points="114.8,136.8 114.8,139.8 76.5,117.7 76.5,114.7 		"/>
		<polygon class="st9" points="82.9,111.8 82.9,114.8 76.5,111.1 76.5,108.1 		"/>
		<polygon class="st9" points="103.2,123.5 103.2,126.5 86.5,116.9 86.6,113.9 		"/>
		<polygon class="st9" points="114.9,123.6 114.8,126.6 84.8,109.2 84.8,106.2 		"/>
		<polygon class="st9" points="94.9,105.5 94.9,108.5 84.8,102.6 84.8,99.6 		"/>
		<polygon class="st11" points="97.5,100.4 97.5,103.4 84.8,96 84.8,93.1 		"/>
		<polygon class="st11" points="93.1,91.2 93.1,94.2 76.6,84.7 76.6,81.7 		"/>
		<polygon class="st10" points="113.8,116.4 113.8,119.4 99.8,111.3 99.8,108.3 		"/>
		<polygon class="st9" points="126.8,123.9 126.7,126.9 118.7,122.2 118.7,119.2 		"/>
		<polygon class="st9" points="121.7,114.4 121.7,117.3 102.1,106 102.1,103.1 		"/>
	</g>
</g>
<g>
	<path class="st0" d="M100.2,113.8L51.7,85.5l0,0c-1-0.6-2-0.9-3-1c-1.1-0.1-2.2,0.2-3.1,0.7c0,0-0.1,0.1-0.2,0.1l-4,2.4
		c-1.2,0.5-2.1,1.5-2.7,2.7c-0.6,1.1-0.9,2.6-0.9,4.2v40.9l4.5,2.6V94.7c0-0.9,0.1-1.7,0.4-2.2c0.2-0.3,0.4-0.5,0.6-0.6
		c0.1,0,0.3-0.1,0.4-0.2c0.1-0.1,0.2-0.1,0.3-0.2l3.8-2.3l0,0c0.1-0.1,0.3-0.1,0.5-0.1c0.3,0,0.7,0.2,1.1,0.4l48.5,28.3l0,0
		c1.2,0.7,2.4,2.2,3.3,3.9c0.9,1.8,1.5,3.8,1.5,5.6v32.9l4.5-2.6v-30.4c0-2.5-0.8-5.3-2-7.7C104,117.1,102.2,115,100.2,113.8z"/>
	<path class="st2" d="M99.3,115.9L99.3,115.9L50.6,87.5c-1.5-0.9-2.8-0.9-3.9-0.3l-4.1,2.5l1.7,3.1v46.5l47.6,27.1l13.4-7.7v-31.4
		C105.3,123,102.6,117.8,99.3,115.9z"/>
	<path class="st0" d="M99.4,115.7L50.7,87.2l0,0c-0.8-0.4-1.5-0.7-2.2-0.7c-0.7-0.1-1.4,0.1-2,0.4l0,0l-4.1,2.5l-0.2,0.1l0.1,0.2
		l1.7,3.1V139l0.6,0.3V92.8v-0.1L43,89.8l3.9-2.4c0.5-0.3,1-0.4,1.7-0.4c0.6,0,1.3,0.3,1.9,0.7l48.7,28.5l0,0c1.6,0.9,3,2.6,4.1,4.7
		c1.1,2,1.7,4.4,1.7,6.5v31.5l0.6-0.3v-31.3c0-2.2-0.7-4.6-1.8-6.7C102.6,118.4,101.1,116.6,99.4,115.7z"/>
	<path class="st1" d="M94.9,118.8L94.9,118.8L46,90.2c-3.3-1.9-5.9,0.1-5.9,4.5v42.2l51.8,29.5l8.9-5.1v-31.1
		C100.8,125.8,98.1,120.7,94.9,118.8z"/>
	<polygon class="st7" points="39.9,136.8 91.9,166.4 98.6,162.5 39.9,128.8 	"/>
	<path class="st0" d="M94.9,118.5L46.2,90c-0.9-0.5-1.7-0.8-2.5-0.8c-0.6,0-1.2,0.2-1.7,0.5s-0.9,0.8-1.3,1.4
		c-0.5,0.9-0.8,2.2-0.8,3.6l-0.1,42l0.7,0.3V94.7c0-1.4,0.3-2.5,0.8-3.4c0.3-0.5,0.7-0.9,1.1-1.2c0.4-0.3,0.9-0.4,1.4-0.4
		c0.7,0,1.4,0.2,2.2,0.7l48.8,28.5l0,0c1.6,0.9,3,2.6,4.1,4.7c1.1,2,1.7,4.4,1.7,6.5v31.3l0.6-0.3v-31c0-2.2-0.7-4.6-1.8-6.7
		C98.1,121.3,96.6,119.5,94.9,118.5z"/>
	<path class="st12" d="M47.6,97.1c1.6,0.9,2.9,3.3,2.9,5.3s-1.3,2.8-2.9,1.9c-1.6-0.9-2.9-3.3-2.9-5.3C44.6,97.1,46,96.2,47.6,97.1"
		/>
	<path class="st13" d="M55.7,101.9c1.6,0.9,2.9,3.3,2.9,5.3s-1.3,2.9-2.9,1.9c-1.6-0.9-2.9-3.3-2.9-5.3S54.1,101,55.7,101.9"/>
	<path class="st14" d="M40,106.1c-0.1-0.1-0.2-0.2-0.1-0.4c0.1-0.1,0.2-0.2,0.4-0.1l60.5,35.2c0.1,0.1,0.2,0.2,0.1,0.4
		c-0.1,0.1-0.2,0.2-0.4,0.1L40,106.1"/>
	<path class="st14" d="M101,141.2c-0.1,0.1-0.3,0-0.4-0.1s0-0.3,0.1-0.4l4.2-2.4c0.1-0.1,0.3,0,0.4,0.1s0,0.3-0.1,0.4L101,141.2"/>
	<path class="st15" d="M63.9,107c1.6,0.9,2.9,3.3,2.9,5.3s-1.3,2.8-2.9,1.9s-2.9-3.3-2.9-5.3C60.9,106.9,62.2,106,63.9,107"/>
	<g>
		<path class="st9" d="M46.2,117.2c-0.5-0.3-0.9-0.1-1,0.5l-0.1,22l1.9,1.1l0.1-22C47.2,118.3,46.8,117.5,46.2,117.2z"/>
		<path class="st9" d="M54.7,130.9c0.4,0.2,0.7,0.2,0.9-0.2c0.1-0.3,0.1-0.8-0.2-1.3l-2.2-3.8l2.2-1.2c0.4-0.2,0.4-0.9,0-1.5
			c-0.2-0.3-0.4-0.6-0.7-0.7c-0.2-0.1-0.5-0.2-0.7-0.1l-2.9,1.6c-0.4,0.2-0.4,0.9,0,1.5l2.8,4.9C54.2,130.5,54.5,130.7,54.7,130.9z"
			/>
		<polygon class="st9" points="57.6,138 53.8,135.8 53.8,137.9 57.6,140.1 		"/>
		<path class="st9" d="M57.3,133.4c0.1,0.1,0.2,0.1,0.2,0.2c0.4,0.2,0.8,0.1,0.9-0.3l1.9-7.6c0.1-0.5-0.2-1.3-0.7-1.7
			c-0.1-0.1-0.2-0.1-0.2-0.2c-0.4-0.2-0.8-0.1-0.9,0.3l-1.9,7.6c-0.1,0.2,0,0.6,0.1,0.9C56.9,132.9,57.1,133.2,57.3,133.4z"/>
		<polygon class="st9" points="69.9,136.5 68,135.4 68,137.6 69.9,138.6 		"/>
		<polygon class="st9" points="73.7,138.7 71.8,137.6 71.8,139.8 73.7,140.9 		"/>
		<polygon class="st9" points="77.5,140.9 75.6,139.8 75.6,142 77.5,143.1 		"/>
		<polygon class="st9" points="57.5,144.5 75.6,154.9 75.6,152.7 57.6,142.3 		"/>
		<polygon class="st9" points="59.5,139 59.5,141.2 65.1,144.5 65.1,142.3 		"/>
		<path class="st9" d="M61.4,134.1c0.1,0.5,0.5,1,0.9,1.2c0.3,0.1,0.5,0.2,0.7,0.1l2.9-1.6c0.4-0.2,0.4-0.9,0-1.5l-2.8-4.9
			c-0.2-0.3-0.4-0.5-0.7-0.7c-0.2-0.1-0.5-0.2-0.7-0.1c-0.4,0.2-0.4,0.9,0,1.5l2.2,3.8l-2.2,1.2C61.4,133.2,61.3,133.6,61.4,134.1z"
			/>
		<polygon class="st9" points="78.4,154.3 78.4,156.5 86.9,161.4 86.9,159.3 		"/>
	</g>
</g>
<path class="st0" d="M54.8,172.7l-8.5-4.7v9.2c-0.1,3,1.5,5.8,4,7.4c0.5,0.3,1.2,0.6,1.8,0.7c0.5,0.1,1,0,1.5-0.2
	c0.9-0.5,1.4-1.5,1.2-2.5V172.7L54.8,172.7L54.8,172.7z M46.1,166.9l9.3,5.1c0.1,0.1,0.2,0.2,0.2,0.4v10.1c0.2,1.3-0.5,2.6-1.7,3.3
	c-0.6,0.2-1.3,0.3-1.9,0.2c-0.7-0.1-1.4-0.4-2.1-0.8c-2.8-1.7-4.5-4.8-4.5-8.1v-9.9c0-0.1,0.1-0.3,0.2-0.4
	C45.8,166.8,46,166.8,46.1,166.9L46.1,166.9L46.1,166.9z M151.3,132.1c0.1,0.1,0.2,0.2,0.1,0.4l-0.1,0.1l-59.2,34.1
	c-0.1,0.1-0.2,0.1-0.3,0l-65.4-37.2c-0.1-0.1-0.2-0.2-0.1-0.4l0.1-0.1l0.7,0.2l64.8,36.9l58.6-33.8L151.3,132.1z"/>
<path class="st16" d="M130.9,167.6c0.9-0.2,1.8-0.3,2.6-0.1l1.4-2.6c0.5-0.9,1.3-1.4,1.8-1l1.8,1.2c0.5,0.3,0.5,1.4,0,2.3l-1.4,2.6
	c0.5,0.7,0.8,1.6,1.1,2.6l2-1.1c0.7-0.4,1.3,0,1.3,0.9v3.2c0,0.9-0.6,1.9-1.3,2.3l-2,1.1c-0.2,1.3-0.6,2.6-1.1,3.8l1.4,1
	c0.5,0.3,0.5,1.4,0,2.3l-1.8,3.3c-0.5,0.9-1.3,1.4-1.8,1l-1.4-1c-0.8,1-1.6,2-2.6,2.8v2.5c0,0.9-0.6,1.9-1.3,2.3l-2.5,1.5
	c-0.7,0.4-1.3,0-1.3-0.9v-2.5c-0.9,0.2-1.8,0.3-2.6,0.1l-1.4,2.6c-0.5,0.9-1.3,1.4-1.8,1l-1.8-1.2c-0.5-0.3-0.5-1.4,0-2.3l1.4-2.6
	c-0.5-0.7-0.8-1.6-1.1-2.6l-2,1.1c-0.7,0.4-1.3,0-1.3-0.9v-3.2c0-0.9,0.6-1.9,1.3-2.3l2-1.1c0.2-1.3,0.6-2.6,1.1-3.8l-1.4-1
	c-0.5-0.3-0.5-1.4,0-2.3l1.8-3.3c0.5-0.9,1.3-1.4,1.8-1l1.4,1c0.8-1,1.6-2,2.6-2.8V168c0-0.9,0.6-1.9,1.3-2.3l2.5-1.5
	c0.7-0.4,1.3,0,1.3,0.9V167.6L130.9,167.6z M128.3,175.4c2.6-1.5,4.7-0.1,4.7,3.2c0,3.2-2.1,7.1-4.7,8.6c-2.6,1.5-4.7,0.1-4.7-3.2
	S125.8,176.9,128.3,175.4L128.3,175.4z"/>
<g>
	<path class="st17" d="M148.8,34l15.5,9c6.3,3.7,7.4,6.4,7.4,11.7v22.9c0,2.9-1,5-2.6,5.9l0,0l-0.2,0.1l-6.9,3.3l-5.3-10.5l2.8-24.3
		L145.2,43l-7.4,15.6l-1.3-21.9l7.6-3.2c0.1-0.1,0.3-0.1,0.4-0.2l0,0l0,0C145.7,32.8,147.2,33,148.8,34z"/>
	<path class="st18" d="M141.2,37.2l15.9,9.3c6.3,3.7,7.4,6.4,7.4,11.7v22.9c0,5.3-3.3,7.8-7.4,5.3c-1.2-0.7-16.8-10.2-17.1-10.4
		c-5.1-3.2-6.3-5.3-6.3-10.6V42.5C133.8,37.2,137.1,34.8,141.2,37.2z"/>
	<g>
		<path class="st1" d="M142.2,54.7V50c0-0.9,0.2-1.5,0.7-1.8c0.4-0.3,1.1-0.1,1.9,0.3l1.5,0.9c0.3,0.2,0.6,0.4,0.8,0.8
			c0.2,0.3,0.3,0.7,0.3,1s-0.1,0.5-0.3,0.7c-0.2,0.1-0.4,0.1-0.7-0.1l-0.7-0.4c-0.6-0.3-0.8-0.1-0.8,0.6v4.6c0,0.7-0.2,1.2-0.5,1.5
			s-0.7,0.4-1.2,0.3c0.5,0.4,0.9,0.9,1.2,1.6s0.5,1.4,0.5,2v4.6c0,0.7,0.3,1.2,0.8,1.6l0.7,0.4c0.3,0.2,0.5,0.4,0.7,0.7
			c0.2,0.3,0.3,0.6,0.2,1s-0.1,0.5-0.3,0.6s-0.5,0.1-0.8-0.1l-1.5-0.9c-0.8-0.5-1.4-1.1-1.9-1.9c-0.4-0.8-0.7-1.6-0.7-2.5v-4.7
			c0-0.7-0.1-1.2-0.3-1.6c-0.2-0.4-0.6-0.8-1.1-1.1c-0.3-0.2-0.5-0.4-0.6-0.7c-0.2-0.3-0.2-0.6-0.2-1c0-0.3,0.1-0.5,0.2-0.7
			c0.2-0.1,0.4-0.1,0.6,0c0.5,0.3,0.9,0.3,1.1,0.1C142.1,55.7,142.2,55.3,142.2,54.7"/>
		<path class="st1" d="M153.7,53.7c0.8,0.5,1.4,1.1,1.9,1.9c0.4,0.8,0.7,1.6,0.7,2.5v4.7c0,0.6,0.1,1.2,0.3,1.6s0.6,0.8,1.1,1.1
			c0.3,0.2,0.5,0.4,0.6,0.7c0.1,0.3,0.2,0.6,0.2,1c0,0.3-0.1,0.5-0.2,0.7c-0.1,0.1-0.4,0.1-0.6,0c-0.5-0.3-0.9-0.3-1.1-0.2
			c-0.2,0.2-0.3,0.6-0.3,1.3v4.7c0,0.9-0.2,1.5-0.7,1.8c-0.4,0.3-1.1,0.1-1.9-0.3l-1.5-0.9c-0.3-0.2-0.6-0.4-0.8-0.8
			c-0.2-0.3-0.3-0.7-0.3-1s0.1-0.5,0.3-0.7c0.2-0.1,0.4-0.1,0.7,0.1l0.7,0.4c0.6,0.3,0.8,0.1,0.8-0.6v-4.6c0-0.7,0.2-1.2,0.5-1.5
			s0.7-0.4,1.2-0.3c-0.5-0.4-0.9-0.9-1.2-1.6c-0.3-0.7-0.5-1.4-0.5-2v-4.6c0-0.7-0.3-1.2-0.8-1.5L152,55c-0.3-0.2-0.5-0.4-0.7-0.7
			s-0.3-0.6-0.2-1c0-0.3,0.1-0.5,0.3-0.6s0.5-0.1,0.8,0.1L153.7,53.7z"/>
	</g>
</g>
<g>
	<path class="st19" d="M141.4,182c0.2-1,0.4-2.1,0.4-3.3c0-8.5-5.9-18.8-13.3-23c-2.8-1.6-5.4-2.1-7.6-1.7
		c-3.2-6.6-8.3-12.6-14-15.9c-4-2.3-7.7-2.9-10.7-2.1l0,0c-0.2,0.1-0.4,0.1-0.6,0.2c-0.1,0-0.1,0.1-0.2,0.1
		c-0.1,0.1-0.3,0.1-0.4,0.2c-0.1,0.1-0.2,0.1-0.3,0.2c-0.1,0-0.2,0.1-0.3,0.1c0,0,0,0-0.1,0l-11.4,6.6l0,0c-2.8,1.6-4.7,4.9-5.1,9.5
		l-8.6,5l0,0c-2.4,1.4-3.9,4.3-3.9,8.6c0,8.5,5.9,18.8,13.3,23l50.2,29c3.7,2.1,7.1,2.3,9.5,0.9l0,0l11.4-6.6l0,0l0,0
		c0.1,0,0.1-0.1,0.2-0.1c2.3-1.4,3.7-4.3,3.7-8.4C153.6,196.3,148.2,186.6,141.4,182z"/>
	<path class="st20" d="M153.5,204.3c0-8-5.3-17.7-12.1-22.3c0.2-1,0.4-2.1,0.4-3.3c0-8.5-5.9-18.8-13.3-23c-2.8-1.6-5.4-2.1-7.6-1.7
		c-3.2-6.6-8.3-12.6-14-15.9c-4-2.3-7.7-2.9-10.7-2.1l0,0c-0.2,0.1-0.4,0.1-0.6,0.2c-0.1,0-0.1,0.1-0.2,0.1
		c-0.1,0.1-0.3,0.1-0.4,0.2c-0.1,0.1-0.2,0.1-0.3,0.2c-0.1,0-0.2,0.1-0.3,0.1c0,0,0,0-0.1,0l-11.4,6.6c2-1.1,2.5,6.9,0.7,7
		c-0.1,0-0.1,0-0.2,0c-0.2,0-0.5,0.1-0.7,0.1c-0.1,0-0.2,0-0.3,0.1c-0.2,0-0.4,0.1-0.6,0.2c-0.1,0-0.3,0.1-0.4,0.1
		c-0.1,0.1-0.3,0.1-0.4,0.2c-0.1,0.1-0.3,0.1-0.4,0.2L69.1,158c2-1.2,13.5,20.7,20.9,24.9c0,0,50.3,35.4,48.3,36.6l11.4-6.6l0,0l0,0
		c0.1,0,0.1-0.1,0.2-0.1C152.1,211.3,153.5,208.4,153.5,204.3z"/>
	<path class="st21" d="M129.9,188.7c6.8,4.6,12.2,14.3,12.1,22.3c0,8.5-6,11.9-13.4,7.6l-50.2-29c-7.4-4.3-13.3-14.6-13.3-23
		c0-8.2,5.6-11.7,12.7-8c-0.2-1.2-0.3-2.4-0.2-3.6c0-11.3,8-15.8,17.8-10.2c5.7,3.3,10.7,9.3,14,15.9c2.2-0.5,4.8,0,7.6,1.7
		c7.4,4.3,13.3,14.6,13.3,23C130.3,186.6,130.2,187.7,129.9,188.7z"/>
	<g>
		<path class="st22" d="M94.1,175.8c1,0.6,1.9,2.1,1.9,3.2c0,1.2-0.9,1.7-1.9,1.1c-1-0.6-1.9-2.1-1.9-3.3
			C92.3,175.7,93.1,175.2,94.1,175.8z"/>
		<path class="st22" d="M103.7,181.3c1,0.6,1.9,2.1,1.9,3.2c0,1.2-0.8,1.7-1.9,1.1c-1-0.6-1.9-2.1-1.9-3.3
			C101.8,181.2,102.6,180.7,103.7,181.3z"/>
		<path class="st22" d="M113.2,186.8c1,0.6,1.9,2.1,1.9,3.2c0,1.2-0.9,1.7-1.9,1.1c-1-0.6-1.9-2.1-1.9-3.3
			C111.3,186.7,112.1,186.2,113.2,186.8z"/>
	</g>
</g>
<g>
	<path class="st23" d="M38.3,36.1c7.1,4.1,12.8,14.9,12.8,24.2c0,5.1-1.7,8.7-4.5,10.2l0,0l0,0c-0.2,0.1-0.5,0.2-0.7,0.3L40,73.5
		l-1.3-2.9c-0.4-0.2-0.7-0.4-1.1-0.6c-7.1-4.1-12.8-14.9-12.8-24.2c0-2,0.3-3.8,0.8-5.4l-1.1-2.6l5.7-2.6
		C32.4,34.1,35.2,34.3,38.3,36.1"/>
	<path class="st24" d="M32.1,38.9c7.1,4.1,12.8,14.9,12.8,24.2s-5.7,13.5-12.8,9.4c-7.1-4-12.8-14.9-12.8-24.2
		C19.3,39.1,25,34.9,32.1,38.9"/>
	<path class="st25" d="M33.2,50.4c0.4,0.4,0.9,0.9,1.3,1.4l0.7-0.5c0.3-0.2,0.7,0.1,1,0.6l0.8,1.4c0.3,0.5,0.3,1.1,0,1.3L36.2,55
		c0.2,0.6,0.4,1.3,0.5,1.9l0.9,0.5c0.4,0.2,0.7,0.8,0.7,1.3v1.4c0,0.5-0.3,0.7-0.7,0.5l-0.9-0.5c-0.1,0.5-0.3,0.9-0.5,1.3l0.7,1.2
		c0.3,0.5,0.3,1.1,0,1.3l-0.8,0.5c-0.3,0.2-0.7-0.1-1-0.6l-0.7-1.2c-0.4,0.1-0.8,0-1.3-0.1v1.2c0,0.5-0.3,0.7-0.7,0.5l-1.1-0.6
		c-0.4-0.2-0.7-0.8-0.7-1.3v-1.2c-0.4-0.4-0.9-0.9-1.3-1.4l-0.7,0.5c-0.3,0.2-0.7-0.1-1-0.6L27,58.2c-0.3-0.5-0.3-1.1,0-1.3l0.7-0.5
		c-0.2-0.6-0.4-1.3-0.5-1.9l-1-0.5c-0.4-0.2-0.7-0.8-0.7-1.3v-1.4c0-0.5,0.3-0.7,0.7-0.5l0.9,0.5c0.1-0.5,0.3-0.9,0.5-1.3L27,48.9
		c-0.3-0.5-0.3-1.1,0-1.3l0.8-0.5c0.3-0.2,0.7,0.1,1,0.6l0.7,1.2c0.4-0.1,0.8,0,1.3,0.1v-1.2c0-0.5,0.3-0.7,0.7-0.5l1.1,0.6
		c0.4,0.2,0.7,0.8,0.7,1.3L33.2,50.4L33.2,50.4z M32,52.5c-1.4-0.8-2.5,0-2.5,1.7c0,1.8,1.1,3.9,2.5,4.7c1.4,0.8,2.5,0,2.5-1.7
		C34.5,55.4,33.3,53.4,32,52.5z"/>
</g>
</svg>
