<svg width="182" height="240" viewBox="0 0 182 240" xmlns="http://www.w3.org/2000/svg"><title>Group 7</title><g fill="none" fill-rule="evenodd"><path d="M161.572 126.94l6.485-3.645c2.348-1.32 4.502-3.508 6.077-5.965 1.552-2.422 2.522-5.053 2.533-7.304l.16-47.306c.004-.86-.138-1.57-.403-2.127-.214-.453-.522-.79-.898-1.01-.044-.023-.09-.053-.13-.08l-72.088-41.51c-.095-.044-.184-.094-.27-.148-.478-.227-1.094-.307-1.817-.227-.902.102-1.943.46-3.072 1.096l-6.692 3.76v64.09l70.116 40.377zm8.678.258l-7.593 4.266c-.67.37-1.51.394-2.22-.018L88.23 89.866c-.75-.364-1.267-1.128-1.267-2.017V21.345h.007c-.003-.38.095-.767.3-1.12l.103-.18c.196-.37.497-.693.89-.913l7.69-4.32c1.66-.934 3.28-1.47 4.775-1.638 1.664-.187 3.187.08 4.476.763.052.024.103.053.152.082l.128.07-.003.006 72.105 41.52c.106.05.21.104.31.173l.05.033c1.08.667 1.943 1.63 2.53 2.865.538 1.132.83 2.492.824 4.05l-.16 47.307c-.017 3.115-1.253 6.59-3.235 9.682-1.957 3.054-4.666 5.79-7.655 7.47z" fill="#B3B4B4"/><path d="M97.854 63.362l.03-6.282 62.915 39.012 15.85-38.443-72.288-41.626-.126-.072c-1.772-.98-4.34-.787-7.184.81l-7.692 4.32-.15.263v29.97l-8.7 31.524 7.592-4.268c5.34-3 9.726-9.843 9.752-15.21" fill="#FFF"/><path d="M106.317 68.396l.03-6.782.425.264 53.936 21.146L176.26 57.75l-71.992-41.46-.125-.07c-.85-.47-1.905-.653-3.095-.52-1.163.13-2.456.567-3.816 1.333l-7.622 4.283-.076.13v65.95l7.173-4.03c2.63-1.478 5.026-3.906 6.77-6.626 1.74-2.714 2.827-5.717 2.84-8.344zm.585-5.782l-.027 5.784c-.012 2.736-1.132 5.84-2.926 8.642-1.793 2.794-4.26 5.29-6.968 6.812L89.39 88.12l-.416.234V21.372l.038-.14.15-.26.107-.105 7.69-4.32c1.428-.805 2.793-1.262 4.03-1.4 1.12-.127 2.14.01 3.012.384v-.037l.42.242.127.074 72.24 41.598.25.144-16.003 26.003-.148.24-.24-.148-53.748-21.033z" fill="#B3B4B4"/><path d="M33.777 109.752v49.242c0 3.345 1.133 5.733 2.916 6.77l.01.005h.003l81.108 46.615c1.494.915 3.487.882 5.615-.355l29.68-17.258c4.612-2.68 8.453-9.844 8.453-15.992v-49.265L80.51 82.84l-46.733 26.912" fill="#FFF"/><path d="M23.683 127.815v47.954c0 1.33.208 2.44.578 3.302.31.72.72 1.237 1.198 1.52.052.03.105.06.154.096l72.382 41.59c.124.056.24.12.348.195.352.187.77.275 1.23.246.593-.04 1.268-.26 2-.684l50.416-29.2c1.943-1.127 3.762-3.28 5.113-5.837 1.363-2.582 2.215-5.525 2.215-8.22V130.8L88.907 90.254l-65.224 37.56zm-4.49 47.954v-49.242h.004c0-.77.4-1.52 1.12-1.934l67.45-38.842c.674-.396 1.536-.43 2.262-.01L162.54 127.5c.75.362 1.265 1.128 1.265 2.014v49.266c0 3.424-1.053 7.107-2.74 10.3-1.723 3.26-4.148 6.062-6.833 7.625l-50.418 29.2c-1.35.783-2.69 1.197-3.964 1.276-1.445.093-2.785-.243-3.94-.95v-.002l-72.484-41.65c-.128-.06-.253-.13-.37-.21-1.25-.78-2.25-1.98-2.92-3.53-.606-1.407-.945-3.12-.945-5.07z" fill="#B3B4B4"/><path d="M21.734 126.577v49.24c0 3.35 1.132 5.732 2.917 6.77l.01.006h.002l68.775 39.628c2.188 1.262 3.648 1.895 6.042 2.15l26.268-21.508c4.644-2.648 8.45-9.845 8.45-15.993V145.61L94.493 167.57l-72.76-40.993" fill="#F6F6F6"/><path d="M21.826 126.738v48.97c0 1.606.264 2.978.74 4.077.48 1.12 1.182 1.953 2.038 2.45l.006.007.004.002.01.004h.004v.004l72.886 41.995.686-3.34.11-.063 27.3-18.227c2.273-1.296 4.348-3.716 5.858-6.57 1.51-2.86 2.448-6.152 2.448-9.18v-40.774l-39.284 22.052-.14.08-.14-.08-72.526-41.407zm-.45 49.415l.02.275-.13-.72c0 1.682.28 3.13.784 4.296l-.197-1.077.205.818.385.73-.392-.47c.444 1.04 1.066 1.87 1.822 2.427.143.104.293.198.446.284l-.372-.443.05.013.32.43h.004l.015.01.66.38 72.574 41.815.335.196.078-.38.714-3.47 27.19-18.162c2.37-1.35 4.52-3.855 6.077-6.798 1.55-2.935 2.514-6.317 2.514-9.437v-41.743l-.416.243-39.57 22.213-72.807-41.57-.42-.24v49.934l.11.446z" fill="#B3B4B4"/><path d="M94.654 167.867v49.15c0 6.13 3.816 9.004 8.45 6.365l50.007-28.612c4.634-2.64 8.452-9.846 8.452-15.992v-49.264l-66.756 38.44-.152-.087" fill="#FFF"/><path d="M94.86 168.246v48.815c0 1.942.388 3.544 1.068 4.728.434.76.985 1.345 1.626 1.74.638.394 1.37.598 2.17.598.97 0 2.04-.302 3.167-.944l50.083-28.655c2.27-1.293 4.346-3.717 5.855-6.576 1.51-2.856 2.452-6.148 2.452-9.174V130l-66.41 38.24-.01.006zm-.562 48.815v-49.634l.42.24.01.008 66.69-38.402.423-.243v49.746c0 3.117-.964 6.5-2.516 9.435-1.558 2.947-3.71 5.45-6.076 6.8l-50.083 28.657c-1.212.692-2.378 1.02-3.443 1.02-.902 0-1.733-.237-2.46-.686-.725-.444-1.343-1.097-1.822-1.935-.726-1.268-1.142-2.963-1.142-5.004z" fill="#B3B4B4"/><path fill="#D5D6D5" d="M88.777 87.6l72.785 41.914-66.897 38.347-72.632-41.825L88.777 87.6"/><path fill="#FFFFFE" d="M50.12 114.508l.008-4.3-28.158 16.135 72.662 41.802 66.796-38.39-16.303-9.384-4.008 1.754 11.706 7.388-58.246 33.548-54.34-30.815-10.82-5.483 20.704-12.254"/><path d="M88.967 87.39L161.7 129.27c.136.077.18.248.103.38-.027.045-.063.08-.104.102l-66.866 38.498c-.096.056-.21.047-.295-.012l-72.97-41.813c-.135-.077-.182-.246-.103-.38.024-.044.06-.078.102-.102L88.686 87.39c.09-.054.195-.05.28 0zm72.03 42.122l-72.17-41.56-66.56 38.234 72.428 41.503 66.303-38.178z" fill="#B3B4B4"/><path d="M178.904 110.034l.16-47.307c.024-5.367-4.334-7.294-9.66-4.3l-7.69 4.32-.152.26v66.505l7.592-4.266c5.337-3 9.724-9.844 9.75-15.212" fill="#FFF"/><path d="M178.624 110.034l.16-47.308c.007-1.316-.258-2.414-.743-3.27-.394-.698-.935-1.237-1.593-1.6-.66-.367-1.446-.558-2.32-.562-1.35-.006-2.916.438-4.587 1.376l-7.894 4.432-.077.134v65.95l7.446-4.182c2.628-1.477 5.027-3.907 6.768-6.626 1.743-2.715 2.828-5.716 2.84-8.344zm.72-47.305l-.16 47.305c-.014 2.738-1.134 5.844-2.928 8.643-1.79 2.793-4.257 5.29-6.966 6.813l-7.86 4.417-.417.235V63.158l.037-.14.152-.26.105-.102 7.96-4.473c1.755-.987 3.415-1.45 4.865-1.444.966.003 1.843.218 2.587.63.747.414 1.363 1.024 1.81 1.814.528.936.818 2.127.814 3.545z" fill="#B3B4B4"/><path fill="#FFFFFE" d="M89.297 87.9V21.395l72.265 41.614v66.504L89.297 87.9"/><path d="M157.554 127.59l-4.87-2.796 4.87 2.795zm0 0V64.982L92.11 27.17l.28 17.365.04 44.847 58.91 34.64 6.214 3.567z" fill="#EBECEB"/><path d="M92.39 44.8l.04 44.582 53.01 31.172V82.332c0-3.718-2.274-8.083-5.06-9.697L92.39 44.8" fill="#D5D6D5"/><path d="M157.937 127.426l-.56-.322V64.982L92.374 27.414V89.69l-.56-.323V26.93c0-.157.125-.28.28-.28.058 0 .11.017.156.048l65.547 37.882c.09.05.14.144.14.24v62.606" fill="#B3B4B4"/><path d="M88.866 87.814V21.31c0-.156.125-.28.28-.28.058 0 .112.017.157.048l72.128 41.69c.09.05.14.144.14.24v66.506c0 .153-.126.28-.278.28-.06 0-.115-.017-.158-.05L89.006 88.057c-.09-.052-.14-.147-.14-.242zm.56-66.02v65.86l71.585 41.375V63.17L89.427 21.793z" fill="#B3B4B4"/><path d="M61.143 167.382l-9.29-5.384-3.055 2.16 2.134 4.628L54.2 178.79l2.636 3.265c3.77-2.242 4.222-2.744 4.307-5.974v-8.698" fill="#EBECEB"/><path d="M60.723 167.625l-8.848-5.13-2.55 1.803 1.97 4.275 3.24 9.963 2.4 2.973c1.64-.983 2.578-1.613 3.097-2.32.53-.72.65-1.59.69-3.11v-8.455zm-8.66-5.99l9.267 5.37c.14.068.235.212.235.375v8.7h-.002v.01c-.045 1.706-.194 2.7-.852 3.596-.635.867-1.72 1.574-3.64 2.72-.18.12-.423.083-.56-.088l-2.636-3.265-.016-.02-3.267-10.004h.002c-.015-.024-.03-.048-.04-.072l-2.127-4.61c-.095-.182-.043-.413.13-.533l3.055-2.16c.13-.09.305-.105.454-.02z" fill="#B3B4B4"/><path d="M58.09 169.274l-9.292-5.117v9.825c0 7.833 9.29 11.46 9.29 5.316v-10.024" fill="#F6F6F6"/><path d="M57.668 169.52l-8.45-4.652v9.114c0 3.502 1.94 6.118 4 7.306.6.345 1.208.57 1.777.652.54.08 1.042.03 1.454-.155.73-.332 1.218-1.134 1.218-2.488v-9.776zm-8.67-5.73l9.27 5.103c.143.067.24.214.24.38v10.024c0 1.733-.685 2.786-1.713 3.252-.563.254-1.224.322-1.92.22-.673-.1-1.383-.36-2.078-.76-2.276-1.314-4.42-4.19-4.42-8.03v-9.826h.002c0-.068.017-.137.052-.2.11-.2.363-.275.567-.165zM135.266 118.756l18.26 10.516c.135.077.18.248.102.38-.026.045-.063.08-.103.102l-58.81 33.87c-.098.055-.212.046-.296-.013l-65.003-36.847c-.134-.077-.18-.246-.102-.38.025-.043.06-.08.102-.102l9.333-5.304v.638l-8.634 4.908 64.46 36.538 58.247-33.548-17.557-10.11v-.646" fill="#B3B4B4"/><path d="M128.798 61.723L58.184 20.736c-1.448-.843-2.426-.81-3.726-.01l-2.405 1.482c-1.994 1.227-2.82 1.81-2.82 4.704l-.047 88.653c0 3.715 2.275 8.084 5.06 9.697l52.835 30.595 26.778-15.42V71.418c0-3.716-2.275-8.08-5.06-9.697" fill="#FFF"/><path d="M144.12 33.293c10.39 5.992 18.812 21.876 18.812 35.482 0 7.512-2.57 12.758-6.623 14.94l-.03.015c-.333.177-.674.333-1.023.47-7.107 3.257-11.295 6.692-19.298 2.078-10.39-5.992-18.814-21.876-18.814-35.48 0-8.13 3.007-13.603 7.646-15.415l-.002-.002 7.263-3.312c3.266-1.694 7.475-1.422 12.066 1.225" fill="#EAF2F7"/><path d="M145.222 31.392c5.56 3.207 10.56 8.995 14.15 15.763 3.564 6.722 5.77 14.46 5.77 21.62 0 3.994-.69 7.434-1.92 10.21-1.322 2.987-3.28 5.218-5.705 6.574-.12.077-.248.145-.383.2-.15.076-.3.15-.45.217-.192.088-.388.173-.578.247-.984.453-1.86.882-2.703 1.295-6.134 3.005-10.646 5.215-18.547.658-5.56-3.206-10.56-8.994-14.15-15.762-3.564-6.722-5.768-14.46-5.768-21.618 0-4.328.81-8.01 2.242-10.9 1.58-3.186 3.915-5.424 6.784-6.552l7.072-3.227c2.04-1.06 4.364-1.495 6.882-1.24 2.312.233 4.775 1.054 7.304 2.512zm10.25 17.81c-3.22-6.073-7.627-11.223-12.457-14.007-1.976-1.14-3.838-1.775-5.528-1.947-1.638-.165-3.13.107-4.416.774v-.006l-7.222 3.296c-.08.044-.166.085-.255.117-1.845.72-3.38 2.226-4.463 4.412-1.136 2.29-1.777 5.308-1.777 8.956 0 6.445 2.007 13.452 5.252 19.57 3.22 6.074 7.627 11.223 12.458 14.01 5.872 3.383 9.49 1.612 14.41-.8.91-.446 1.864-.912 2.815-1.35l.174-.076c.14-.053.27-.108.396-.166l.31-.15.097-.056c1.628-.877 2.974-2.427 3.923-4.568.986-2.224 1.536-5.064 1.536-8.437 0-6.445-2.006-13.455-5.252-19.572z" fill="#2EBCE3"/><path d="M144.12 33.293c10.39 5.992 18.812 21.876 18.812 35.482 0 7.512-2.57 12.758-6.623 14.94l-.03.015c-.333.177-.674.333-1.023.47l-7.64 3.5-1.875-4.298c-.535-.25-1.076-.53-1.623-.845-10.392-5.99-18.815-21.875-18.815-35.48 0-2.998.41-5.635 1.158-7.86l-1.67-3.836 7.26-3.312c3.266-1.694 7.475-1.422 12.066 1.225" fill="#DBEEF7"/><path d="M144.245 33.076c5.236 3.02 9.975 8.526 13.4 14.985 3.422 6.456 5.54 13.872 5.54 20.715 0 3.72-.627 6.893-1.748 9.425-1.15 2.593-2.822 4.515-4.876 5.662v.015l-.167.077c-.17.09-.342.175-.517.255-.175.08-.352.155-.526.222l-7.86 3.604-1.94-4.448c-.244-.115-.488-.235-.73-.36-.27-.14-.544-.29-.828-.454-5.236-3.02-9.975-8.525-13.4-14.985-3.422-6.455-5.54-13.87-5.54-20.713 0-1.49.102-2.896.295-4.21.193-1.307.48-2.524.85-3.638l-1.735-3.974c2.5-1.14 5.005-2.273 7.5-3.422 1.7-.876 3.647-1.233 5.764-1.02 2.04.207 4.234.944 6.52 2.262zm12.954 15.22c-3.384-6.38-8.054-11.813-13.208-14.786-2.22-1.28-4.348-1.997-6.315-2.197-2.026-.204-3.887.14-5.507.98l-.164.084-.008-.008-6.878 3.137 1.575 3.608.007.18c-.374 1.11-.663 2.33-.856 3.645-.19 1.285-.288 2.667-.288 4.137 0 6.76 2.094 14.093 5.48 20.478 3.383 6.38 8.053 11.814 13.207 14.785.262.152.533.3.806.44.268.14.534.27.798.393l.125.127 1.774 4.066 7.418-3.4c.172-.067.34-.138.502-.212.16-.073.318-.152.474-.234l.05-.027c2.015-1.084 3.656-2.95 4.785-5.496 1.094-2.467 1.705-5.574 1.705-9.222 0-6.762-2.095-14.094-5.48-20.48z" fill="#2EBCE3"/><path d="M135.96 37.014c10.39 5.99 18.812 21.876 18.812 35.48 0 13.604-8.422 19.774-18.813 13.784-10.39-5.992-18.814-21.876-18.814-35.48 0-13.604 8.423-19.776 18.813-13.784" fill="#FFFFFE"/><path d="M140.253 88.11c-1.38-.375-2.817-.98-4.294-1.832-10.39-5.992-18.814-21.876-18.814-35.48 0-1.082.054-2.116.157-3.102l17.89 10.378c2.786 1.614 5.06 5.98 5.06 9.698V88.11" fill="#EBECEB"/><path d="M136.086 36.796c5.236 3.02 9.973 8.526 13.4 14.986 3.423 6.455 5.54 13.87 5.54 20.712 0 4.467-.903 8.147-2.484 10.874-1.017 1.755-2.316 3.118-3.837 4.04-1.523.926-3.268 1.412-5.17 1.412-2.36 0-4.966-.748-7.702-2.326-5.237-3.018-9.975-8.525-13.4-14.984-3.423-6.456-5.54-13.87-5.54-20.712 0-4.467.904-8.148 2.484-10.875 1.017-1.755 2.316-3.117 3.835-4.04 1.524-.926 3.27-1.41 5.17-1.41 2.362 0 4.968.747 7.704 2.323zm12.954 15.22c-3.384-6.38-8.054-11.814-13.207-14.786-2.655-1.53-5.174-2.254-7.45-2.254-1.81 0-3.465.46-4.908 1.336-1.447.88-2.69 2.182-3.663 3.863-1.536 2.65-2.413 6.246-2.413 10.623 0 6.76 2.092 14.09 5.478 20.478 3.383 6.38 8.054 11.812 13.208 14.784 2.653 1.532 5.174 2.255 7.448 2.255 1.81 0 3.466-.458 4.91-1.336 1.447-.88 2.69-2.183 3.66-3.864 1.54-2.65 2.416-6.245 2.416-10.622 0-6.762-2.094-14.092-5.48-20.478z" fill="#2EBCE3"/><path d="M136.22 58.227c-4.668-1.644-7.956-5.66-8.968-11.206-3.473 5.148-1.37 15.246 4.953 19.75-1.88 1.11-4.494.254-6.357-1.218 3.586 5.535 9.486 8.735 13.155 7.758.467-.124.835-.27 1.235-.468.212-.103.36-.218.56-.323.804-.43 1.816-1.72 2.338-2.63 2.017-3.524 1.62-7.912 1.684-8.095.122-.123.43-.228.598-.304.202-.093.727-.557.925-.74.183-.17.483-.45.595-.713L145.8 59.9c-.436-.082-.843-.255-1.27-.386.024-.038.5-.233.565-.266.235-.12.337-.237.53-.426.325-.325.57-.8.755-1.413l-1.265.064c-.335-.02-1.155-.123-1.517-.31-.104-.344-.7-1.242-.98-1.62-.338-.462-.848-1.028-1.314-1.408-1.963-1.608-3.86-1.437-4.7.337-.326.692-.52 1.553-.472 2.63.015.364.087.823.087 1.124" fill="#3EC9F0"/><path d="M125.604 52.512c-.243 5.06 2.117 11.065 6.6 14.26-1.88 1.108-4.493.252-6.356-1.22 3.586 5.535 9.486 8.735 13.155 7.758.467-.124.835-.27 1.235-.468l.015-.007v-5.063c0-3.717-2.274-8.084-5.06-9.698l-9.59-5.562" fill="#16B4E0"/><path d="M127.676 63.657L57.062 22.67c-.376-.22-.628-.325-.787-.323-.137 0-.344.094-.642.28l-2.405 1.48c-.758.467-1.286.8-1.492 1.098-.184.267-.267.762-.267 1.708l-.047 88.652c0 1.486.475 3.14 1.24 4.607.732 1.406 1.695 2.572 2.705 3.156l53.948 31.242-4.475 2.577-51.72-29.95c-1.77-1.027-3.34-2.85-4.44-4.96-1.07-2.048-1.733-4.44-1.73-6.67l.044-88.653c.002-1.945.332-3.19 1.058-4.245.707-1.024 1.59-1.598 2.825-2.36l2.404-1.48c1.006-.617 1.934-.94 2.976-.945 1.016-.005 1.978.294 3.05.917l70.615 40.99c1.774 1.028 3.342 2.85 4.443 4.96 1.074 2.058 1.742 4.448 1.742 6.67v67.72l-4.495 2.588V71.42c0-1.495-.47-3.15-1.23-4.606-.733-1.405-1.694-2.572-2.704-3.157" fill="#B3B4B4"/><path d="M128.798 61.723L58.175 20.758c-1.73-1.002-2.845-.544-4.002.162l-3.225 1.906 1.853 2.496 12.673 77.372c.602 3.668 2.672 7.543 5.06 9.696l43.642 39.382 19.683-11.336V71.42c0-3.716-2.275-8.082-5.06-9.697" fill="#F6F6F6"/><path d="M128.658 61.965L58.034 21c-.806-.466-1.46-.595-2.043-.523-.587.07-1.122.346-1.672.68l-.002.003-2.96 1.75 1.67 2.25.052.12 12.672 77.37c.293 1.787.942 3.624 1.807 5.284.88 1.688 1.986 3.188 3.165 4.25l43.706 39.442-.508.292-43.575-39.32c-1.23-1.11-2.378-2.664-3.285-4.408-.892-1.706-1.56-3.602-1.863-5.45L52.535 25.434l-1.813-2.442-.184-.25.267-.158 3.226-1.906c.608-.37 1.206-.675 1.896-.758.696-.084 1.466.06 2.388.597l70.626 40.965c1.44.834 2.74 2.37 3.68 4.17.938 1.798 1.518 3.865 1.518 5.767v68.854l-.558.322-.002-69.177c0-1.815-.556-3.79-1.453-5.51-.896-1.712-2.123-3.166-3.467-3.945" fill="#B3B4B4"/><path d="M124.903 64.08L54.243 23.1c-2.782-1.617-5.058.1-5.058 3.816v88.65c0 3.718 2.277 8.085 5.06 9.7l49.5 32.515 26.218-15.1v-68.9c0-3.718-2.275-8.083-5.06-9.7" fill="#FFF"/><path d="M49.185 83.26v32.305c0 3.717 2.277 8.084 5.06 9.698l44.077 28.954 6.385 3.007 13.396-7.714-8.445-17.194v-44.23c0-1.467-.386-3.025-1.01-4.35-.676-1.433-1.664-2.65-2.8-3.304l-3.263-1.873c-.79-.454-1.573-.818-2.762-.83-1.01-.01-2.177.285-3.698 1.11l-5.834 3.166c-.164.07-.32.16-.462.268-.675.45-1.21 1.12-1.56 1.97-.3.737-.472 1.61-.472 2.58v9.628l-1.92-1.103c-1.113-.64-1.83-1.05-2.99-1.112-1.08-.058-2.1.264-3.63 1.103l-6.02 3.3c-.907.358-1.634 1.06-2.11 2.045-.38.784-.598 1.76-.598 2.864v7.275l-1.52-.873c-1.036-.597-1.716-.983-2.79-1.056-1.036-.07-1.995.223-3.398 1.004l.002.003-4.66 2.577V93.786c0-1.47-.387-3.025-1.01-4.35-.676-1.432-1.665-2.65-2.802-3.303l-3.006-1.727-.007.006-.213-.122c-.035-.027-.075-.05-.115-.072-.746-.434-1.31-.762-1.825-.957" fill="#F6F6F6"/><path d="M66.98 30.485l-12.736-7.387c-.32-.185-.63-.327-.934-.427l-2.037 17.464 5.124 10.127 7.915-3.867.15-.074.027-.015c1.533-.827 2.49-2.837 2.49-5.65v-10.17" fill="#E3E4E2"/><path d="M124.764 64.323l-70.66-40.986c-.665-.386-1.296-.568-1.863-.568-.446 0-.855.113-1.21.33-.36.22-.673.55-.92.973-.408.702-.643 1.665-.643 2.842v88.65c0 1.814.556 3.79 1.454 5.51.894 1.713 2.122 3.165 3.464 3.947l49.145 32.88-.56.322-48.866-32.72c-1.438-.833-2.74-2.37-3.68-4.17-.937-1.797-1.52-3.864-1.52-5.768v-88.65c0-1.28.265-2.337.723-3.122.294-.506.672-.9 1.112-1.17.445-.272.952-.414 1.502-.414.662 0 1.388.207 2.143.646l70.66 40.985c1.438.835 2.742 2.37 3.68 4.173.938 1.795 1.52 3.863 1.52 5.766v68.736l-.562.325V73.78c0-1.815-.558-3.79-1.456-5.51-.893-1.714-2.118-3.168-3.463-3.947" fill="#B3B4B4"/><path d="M67.557 52.578l24.76 14.353c1.85 1.077 3.367 3.982 3.367 6.456v30.73c0 2.474-1.516 3.62-3.368 2.544l-26.7-15.48c-1.852-1.077-3.37-3.98-3.37-6.456V56.538c0-4.03 2.353-5.673 5.31-3.96zm11.41 29.17c3.528 2.046 6.653 5.835 8.587 9.997 1.597 3.71.623 5.55-2.92 3.543l-16.166-9.37c.824-5.34 5.21-7.234 10.498-4.17zm0-15.28c-2.74-1.586-4.956-.134-4.956 3.24 0 3.38 2.22 7.405 4.956 8.99 2.734 1.587 4.95.135 4.95-3.243 0-3.38-2.216-7.403-4.95-8.987z" fill="#E94C6D"/><path d="M103.65 96.745l19.18 11.158v2.45l-19.18-11.16v-2.448zm0-6.85l19.18 11.16v2.448l-19.18-11.158v-2.45zm0 14.205l10.397 6.05v2.45l-10.397-6.052V104.1z" fill="#CBCCCB"/><path d="M105.85 64.39c2.8 1.615 5.07 5.896 5.07 9.56 0 3.667-2.27 5.33-5.07 3.717-2.8-1.616-5.07-5.897-5.07-9.562 0-3.666 2.27-5.33 5.07-3.715" fill="#2EBCE3"/><path d="M117.858 71.434c2.8 1.616 5.07 5.895 5.07 9.562 0 3.665-2.27 5.328-5.07 3.714-2.8-1.614-5.07-5.895-5.07-9.56 0-3.666 2.27-5.33 5.07-3.716" fill="#E94C6D"/><path d="M126.423 120.418c6.232 3.595 11.284 13.122 11.284 21.282 0 4.507-1.54 7.655-3.972 8.962l-.018.01c-.2.106-.404.2-.614.28-4.262 1.955-6.775 4.015-11.575 1.246-6.232-3.592-11.284-13.12-11.284-21.28 0-4.877 1.804-8.16 4.585-9.247l4.355-1.987h.002c1.958-1.015 4.482-.853 7.236.735" fill="#FFFFFE"/><path d="M127.527 118.517c3.48 2.008 6.6 5.61 8.824 9.806 2.203 4.153 3.565 8.94 3.565 13.377 0 2.52-.44 4.706-1.225 6.48-.863 1.947-2.148 3.416-3.745 4.325-.123.08-.25.148-.39.203l-.22.106c-.07.036-.183.083-.337.143-.604.277-1.122.532-1.62.775-3.923 1.923-6.807 3.335-11.954.368-3.48-2.007-6.6-5.608-8.824-9.806-2.202-4.152-3.564-8.94-3.564-13.376 0-2.733.517-5.072 1.438-6.928 1.018-2.053 2.523-3.517 4.376-4.293.08-.04.158-.073.24-.102l4.08-1.86c1.37-.716 2.933-1.01 4.62-.84 1.51.154 3.108.684 4.737 1.622zm4.926 11.854c-1.858-3.504-4.384-6.464-7.134-8.05-1.076-.62-2.072-.964-2.962-1.054-.78-.08-1.486.04-2.095.34-.11.063-.227.114-.347.157l-4.034 1.84c-.08.042-.163.082-.25.115-.9.35-1.66 1.11-2.208 2.216-.622 1.254-.973 2.933-.973 4.984 0 3.723 1.166 7.78 3.048 11.33 1.857 3.503 4.384 6.465 7.134 8.052 3.115 1.795 5.107.82 7.815-.507.572-.28 1.167-.573 1.74-.836l.13-.05.287-.13.088-.05c.8-.432 1.474-1.22 1.962-2.32.543-1.223.846-2.806.846-4.707 0-3.723-1.165-7.78-3.047-11.33z" fill="#E94C6D"/><path d="M126.423 120.418c6.232 3.595 11.284 13.122 11.284 21.282 0 4.508-1.54 7.655-3.972 8.962l-.018.01c-.2.106-.404.2-.614.28l-4.58 2.102-1.126-2.58c-.322-.15-.647-.316-.974-.506-6.232-3.594-11.285-13.12-11.285-21.28 0-1.8.245-3.382.696-4.717l-1.005-2.3 4.355-1.987h.002c1.958-1.015 4.482-.853 7.236.735" fill="#F4C5C3"/><path d="M126.55 120.2c3.157 1.822 6.012 5.14 8.075 9.03 2.06 3.886 3.335 8.35 3.335 12.47 0 2.247-.38 4.164-1.057 5.696-.71 1.6-1.748 2.78-3.024 3.474l-.36.178c-.1.047-.207.092-.316.135l-4.578 2.1c-.125.055-.275 0-.332-.126l-1.09-2.496-.41-.2c-.158-.083-.324-.174-.497-.275-3.158-1.82-6.014-5.138-8.077-9.03-2.06-3.884-3.335-8.35-3.335-12.468 0-.898.062-1.748.178-2.542.113-.775.284-1.497.502-2.16l-.966-2.213c-.057-.13.002-.276.128-.33l4.346-1.984c1.04-.536 2.23-.758 3.524-.627 1.236.127 2.568.574 3.95 1.37zm7.63 9.263c-2.02-3.81-4.81-7.055-7.883-8.828-1.32-.76-2.583-1.186-3.748-1.304-1.195-.12-2.29.082-3.243.574l-4.148 1.893.903 2.073c.024.056.03.12.01.18-.224.66-.396 1.384-.512 2.168-.11.764-.17 1.59-.17 2.47 0 4.038 1.252 8.42 3.276 12.235 2.02 3.81 4.81 7.055 7.883 8.827.152.09.313.177.478.263.16.083.32.16.475.233.053.026.098.07.125.128l1.022 2.345c1.424-.655 2.928-1.407 4.363-2 .094-.036.193-.08.295-.126.1-.044.195-.093.29-.143l.018-.01c1.187-.638 2.157-1.742 2.825-3.247.652-1.468 1.015-3.318 1.015-5.493 0-4.04-1.25-8.42-3.276-12.237z" fill="#E94C6D"/><path d="M121.528 122.65c6.232 3.593 11.285 13.12 11.285 21.282 0 8.16-5.053 11.86-11.285 8.266-6.232-3.592-11.284-13.12-11.284-21.28 0-8.16 5.052-11.862 11.284-8.268" fill="#FFFFFE"/><path d="M121.656 122.432c3.156 1.82 6.012 5.14 8.075 9.03 2.06 3.885 3.336 8.35 3.336 12.47 0 2.698-.546 4.923-1.504 6.573-.62 1.068-1.41 1.896-2.336 2.458-.93.565-1.993.862-3.154.862-1.432 0-3.014-.453-4.67-1.41-3.158-1.818-6.012-5.136-8.076-9.027-2.06-3.885-3.335-8.35-3.335-12.47 0-2.698.548-4.922 1.504-6.573.618-1.067 1.41-1.896 2.335-2.46.93-.565 1.995-.86 3.154-.86 1.433 0 3.014.452 4.672 1.407zm7.63 9.263c-2.022-3.81-4.81-7.056-7.884-8.827-1.576-.91-3.07-1.34-4.418-1.34-1.066 0-2.042.27-2.893.787-.85.52-1.584 1.29-2.16 2.28-.913 1.575-1.434 3.715-1.434 6.322 0 4.04 1.25 8.42 3.275 12.237 2.022 3.81 4.81 7.056 7.886 8.828 1.574.91 3.07 1.34 4.416 1.34 1.067 0 2.043-.272 2.892-.788.855-.518 1.587-1.287 2.162-2.28.913-1.575 1.434-3.715 1.434-6.322 0-4.04-1.25-8.42-3.275-12.237z" fill="#E94C6D"/><path d="M124.046 139.187c.485 1.067 1.02 2.212 1.5 3.365.303.728 1.19 3.208 1.476 3.662 1.036-.713 1.64-3.68 1.27-6.096-1.073-.416-3.377-1.407-4.246-.93zm-5.017 5.598c.965.994 2.175 1.894 3.464 2.348 1.135.4 2.89.506 3.54-.15-.314-1.13-2.718-6.916-3.21-7.544-1.8.527-3.958 3.454-3.795 5.345zm-4.56-8.374c.562 2.335 1.895 5.485 3.333 6.97.71-2.85 1.033-3.917 4.148-5.723l-.858-1.63c-.414-.004-.997.24-1.435.32-1.898.35-3.11.22-5.186.064zm-.255-1.706c2.377.337 3.88-.015 5.895-.288-.598-1.264-2.986-4.71-3.824-5.976-1.342.632-2.467 3.3-2.07 6.264zm3.236-6.795l2.914 4.51c.3.492.59 1.022.93 1.51.93-.084 2.364-1.792 2.66-2.954-1.91-2.24-4.114-3.24-6.503-3.067zm4.74 7.565l1.032 2.017c.82.106 1.505.077 2.395.27.816.178 1.612.525 2.36.707-.287-1.223-.734-2.382-1.277-3.486-.32-.654-1.22-2.355-1.748-2.758-.144 1.04-1.617 2.897-2.762 3.25z" fill="#E94C6D"/><path fill="#FFFFFE" d="M26.803 27.53l9.163 17.64 5.5 3.322L54.75 37.11l-2.353-22.93-21.442-8.345-4.152 21.694"/><path d="M40.452.855L55.437 9.53c6.096 3.527 7.148 6.17 7.148 11.263v22.054c0 2.814-.958 4.823-2.494 5.648v.002l-.025.014c-.05.027-.097.052-.148.075l-7.915 3.868-5.125-10.127 2.728-23.384-13.8-8.768-7.18 15.004-1.28-21.044L35.88.364c.12-.06.243-.113.37-.16L36.26.2c1.18-.43 2.63-.25 4.192.655" fill="#0092BA"/><path d="M31.908 4.628l15.38 8.902c6.097 3.528 7.15 6.172 7.15 11.264V46.85c0 5.09-3.14 7.516-7.15 5.12l-5.823-3.478V34.318L45.6 36.71l.444-6.002-4.58-2.65c0-5.106 1.807-5.448 6.11-1.554v-6.4c-7.655-7.343-11.385-3.54-11.608 4.77l-3.052-1.765v6.258l3.052 1.766V45.17l-5.126-3.167c-4.91-3.03-6.078-5.105-6.078-10.198V9.75c0-5.093 3.216-7.397 7.146-5.122" fill="#3EC9F0"/><path d="M33.058 102.378c0-1.588.576-2.64 1.42-2.863l6.56-3.643c1.98-1.098 2.212-.8 3.993.223l3.01 1.727c1.482.853 2.698 3.43 2.698 5.73v15.214l7.982-4.415c1.976-1.1 2.442-.842 3.98.043l3.184 1.83c.647.37 1.245 1.073 1.713 1.94V106.03c0-1.558.557-2.603 1.378-2.85l6.166-3.38c2.27-1.244 2.754-.97 4.43-.01l2.96 1.7c.997.57 1.87 1.92 2.335 3.44V89.304c0-1.393.447-2.375 1.128-2.743l6.01-3.26c2.294-1.246 3.247-.89 4.275-.3l3.264 1.875c1.482.853 2.697 3.43 2.697 5.728v68.04l-7.737 4.454-61.443-34.89-.002-25.83" fill="#FFF"/><path d="M30.812 95.15c0-1.133.225-2.127.618-2.916.026-.056.056-.11.09-.163.48-.885 1.18-1.514 2.034-1.84l6.406-3.554c2.963-1.647 3.49-1.342 5.87.042.04.023.08.047.114.072l.214.123.005-.008 3.007 1.728c1.137.653 2.125 1.87 2.8 3.303.625 1.325 1.01 2.883 1.01 4.35v18.694l4.663-2.576-.004-.004c1.402-.78 2.362-1.073 3.4-1.004 1.07.072 1.752.458 2.79 1.056l1.518.873v-7.276c0-1.106.217-2.082.598-2.865.476-.985 1.204-1.687 2.11-2.042l6.02-3.302c1.53-.838 2.55-1.16 3.63-1.102 1.158.06 1.877.473 2.99 1.11l1.92 1.104v-9.63c0-.967.173-1.842.473-2.577.347-.85.882-1.52 1.558-1.97.142-.108.298-.198.463-.27l5.835-3.163c1.52-.827 2.687-1.12 3.7-1.11 1.187.01 1.97.374 2.76.827l3.262 1.872c1.137.655 2.125 1.87 2.8 3.304.624 1.325 1.01 2.883 1.01 4.35v66.767l-4.49 2.587-.002-69.32c0-.83-.218-1.712-.572-2.46-.3-.644-.663-1.143-1.01-1.342l-3.264-1.875c-.242-.138-.45-.25-.568-.25-.294-.005-.752.147-1.526.567l-5.825 3.16c-.07.19-.115.48-.115.866v15.63l-.008-.002c0 .957-.623 1.848-1.588 2.148-1.183.366-2.432-.29-2.79-1.465-.168-.547-.416-1.07-.712-1.507l.004-.002-.004-.007c-.19-.277-.377-.49-.55-.61l-.066-.035-2.96-1.7c-.56-.324-.923-.53-.992-.534-.148-.007-.507.155-1.244.562l-6.165 3.378-.09.048c-.066.186-.103.464-.103.825v12.134h-.01c0 .795-.43 1.57-1.184 1.976-1.09.588-2.446.19-3.025-.894-.156-.29-.333-.55-.516-.76-.12-.135-.24-.24-.354-.306l-3.185-1.828c-.5-.288-.823-.473-.86-.477-.074-.005-.337.12-.91.44l-.002-.002-.005.003-7.812 4.322c-.353.237-.78.38-1.24.383-1.24.01-2.245-.985-2.245-2.22V96.322c0-.83-.22-1.713-.573-2.463-.302-.643-.664-1.144-1.01-1.34l-3.01-1.73.006-.008h-.004l-.22-.13c-.045-.02-.088-.043-.13-.066-.58-.337-.708-.41-1.434-.01l-6.558 3.644-.003-.005c-.05.026-.097.052-.146.074-.065.188-.106.462-.106.823l.003 34.365-4.49-2.55.002-31.78" fill="#2EBCE3"/><path d="M34.478 92.267l6.56-3.64c1.98-1.1 2.212-.803 3.993.222l3.01 1.725c1.482.853 2.698 3.43 2.698 5.73v22.462l7.982-4.415c1.976-1.1 2.442-.842 3.98.043l3.184 1.828c1.11.637 2.07 2.24 2.482 3.97l6.143 3.883-5.536-20.895 6.166-3.377c2.27-1.245 2.754-.973 4.43-.01l2.96 1.7c1.483.85 2.696 3.43 2.696 5.728v.58l3.598 2.795L85.99 86.56 92 83.3c2.294-1.245 3.247-.89 4.275-.3l3.265 1.876c1.482.852 2.695 3.43 2.695 5.727v68.043l-7.732 4.45-5.072-2.88-1.215-2.525c-.176.267-.5.876-.84 1.358l-11.43-6.49-.008-.567-4.843-2.407c-.036.056-.073.108-.112.158l-33.475-19.008c-5.462-24.1-2.835-37.73-3.03-38.465" fill="#DBEEF7"/><path d="M34.208 92.34c-.03-.128.027-.255.138-.317h-.002l6.56-3.644c1.986-1.102 2.338-.898 3.93.027l.015.01.325.19v-.003l3.006 1.728c.793.454 1.507 1.356 2.02 2.442.505 1.076.82 2.338.82 3.526v21.99l7.567-4.185h-.002c1.04-.58 1.695-.8 2.31-.757.62.04 1.144.338 1.946.8l3.186 1.828c.585.337 1.127.92 1.576 1.64.438.697.79 1.532 1.008 2.398l5.444 3.44-5.35-20.204c-.034-.127.025-.256.137-.318h.004l.006-.002 6.16-3.376c1.184-.65 1.913-.9 2.585-.867.68.036 1.244.358 2.114.86l2.962 1.7c.79.453 1.503 1.355 2.015 2.442.506 1.075.82 2.336.82 3.525v.442l2.96 2.3-2.754-23.366c-.015-.125.057-.24.168-.287l5.99-3.252c1.195-.647 2.05-.878 2.748-.87.72.007 1.252.26 1.8.575l3.263 1.875c.793.454 1.506 1.356 2.018 2.443.506 1.076.82 2.337.82 3.524v67.886l-.563.324V90.605c0-1.108-.292-2.286-.764-3.288-.465-.99-1.1-1.802-1.793-2.2l-3.262-1.875c-.48-.276-.94-.497-1.527-.503-.608-.008-1.376.206-2.476.804l-5.84 3.168 2.808 23.85c.01.07-.01.142-.058.203-.097.123-.272.144-.393.05l-3.584-2.785c-.072-.05-.12-.134-.12-.23v-.577c0-1.11-.295-2.287-.766-3.288-.465-.99-1.102-1.802-1.795-2.2l-2.96-1.7c-.803-.46-1.32-.76-1.867-.787-.555-.03-1.202.202-2.288.798l-5.97 3.27 5.477 20.685v.003c.02.073.01.153-.034.22-.084.132-.256.17-.386.088l-6.134-3.875c-.063-.035-.113-.096-.132-.176-.202-.85-.54-1.668-.963-2.346-.403-.643-.88-1.156-1.385-1.448l-3.184-1.83c-.736-.423-1.215-.696-1.706-.727-.495-.035-1.064.165-1.998.685v-.002.002L50.894 119c-.046.03-.098.046-.157.046-.155.002-.28-.123-.28-.276V96.31c0-1.112-.294-2.29-.766-3.292-.466-.987-1.1-1.8-1.793-2.198l-3.01-1.727v-.002l-.325-.187-.015-.01c-1.368-.794-1.672-.97-3.375-.023l-6.368 3.537c6.43 24.413-2.392 15.66 2.913 38.444l-.455-.258c-4.804-22.085-2.91-37.706-3.054-38.253zm54.8 67.636l-.82-1.7c-.164.278-.362.61-.574.91l-.475-.27c.2-.297.415-.662.585-.954.104-.173.192-.324.26-.424.025-.04.063-.074.11-.098.14-.068.306-.01.373.13l1.392 2.89-.853-.484zM75.664 152.4l-.003-.237-3.304-1.64-1.62-.922c.042-.05.083-.105.12-.165.076-.122.234-.167.363-.103l4.845 2.408h-.003c.092.045.154.138.154.246l.008.73-.56-.317zm-22.348-12.692c.046-.023.1-.034.157-.028.143.018.34.18.568.44l-.725-.412zm15.53-36.776l.054-.02c-.018.004-.036.01-.054.02z" fill="#2EBCE3"/><path d="M87.56 86.677l4.317 2.48c1.485.85 2.7 3.427 2.7 5.726v68.173l-.074.04-9.64-5.474v-68.32c0-2.296 1.216-3.478 2.698-2.625zM70.293 103.4l4.316 2.48c1.483.852 2.7 3.43 2.7 5.73v41.722l-9.713-5.515V106.03c0-2.3 1.213-3.482 2.697-2.63zm-17.268 15.167l4.316 2.48c1.483.853 2.697 3.435 2.697 5.73v16.748l-9.71-5.514V121.2c0-2.3 1.214-3.483 2.697-2.63zM35.756 92.5l4.315 2.48c1.485.853 2.7 3.435 2.7 5.73v33.01l-9.712-5.516V95.13c0-2.3 1.212-3.482 2.698-2.63z" fill="#FFF"/><path d="M94.577 160.524v2.532l-.074.04-9.64-5.474v-2.63l9.714 5.532zm-61.52-35.033l9.712 5.53v2.7l-9.712-5.516v-2.713zm17.27 9.834l9.71 5.53v2.67l-9.71-5.513v-2.686zm17.268 9.836l9.712 5.53v2.642l-9.712-5.515v-2.657z" fill="#ECF5FA"/><path d="M87.703 86.433l4.317 2.48c.79.454 1.505 1.357 2.015 2.444.506 1.074.82 2.336.82 3.524v68.015l-.352.202-.208-.118V94.886c0-1.11-.294-2.288-.764-3.29-.466-.986-1.102-1.802-1.792-2.2l-4.317-2.48c-.285-.163-.555-.24-.8-.24-.21.002-.406.064-.575.176-.18.117-.342.296-.477.525-.266.458-.423 1.114-.423 1.923v68.483l-.562-.32V89.305c0-.912.185-1.666.5-2.205.177-.305.4-.548.655-.715.264-.172.562-.266.88-.268.343-.003.71.1 1.085.316zm-17.27 16.726l4.317 2.477c.79.454 1.505 1.358 2.016 2.444.507 1.075 1.137 2.563 1.137 3.75l.144 41.922-.49-.278-.214-41.64c0-1.11-.61-2.51-1.08-3.512-.467-.987-1.1-1.8-1.794-2.2l-4.318-2.48c-.288-.164-.556-.242-.802-.24-.21.002-.404.062-.574.176-.18.115-.342.294-.475.525-.267.458-.423 1.114-.423 1.924v41.95l-.563-.32v-41.625c0-.913.184-1.668.5-2.208.177-.304.4-.546.654-.713.264-.173.562-.265.88-.267.345-.003.708.1 1.085.316zm-17.268 15.164l4.316 2.48c.792.454 1.505 1.358 2.017 2.445.506 1.075.82 2.337.82 3.523v16.912l-.558-.318v-16.59c0-1.106-.294-2.282-.766-3.287-.467-.99-1.104-1.803-1.794-2.2l-4.317-2.48c-.287-.164-.557-.24-.803-.238-.21 0-.404.06-.574.174-.18.117-.34.295-.476.526-.267.456-.423 1.113-.423 1.925v16.973l-.563-.32V121.2c0-.913.186-1.668.5-2.208.18-.304.4-.546.656-.713.264-.175.563-.267.88-.27.345-.003.708.1 1.085.314zm-17.27-26.066l4.317 2.48c.79.453 1.506 1.357 2.017 2.444.505 1.076.82 2.338.82 3.524v33.172l-.56-.318v-32.85c0-1.11-.295-2.285-.767-3.287-.465-.987-1.1-1.803-1.794-2.2l-4.316-2.48c-.287-.164-.558-.242-.804-.24-.208.002-.402.062-.575.176-.18.116-.34.293-.475.523-.266.46-.422 1.115-.422 1.925v33.236l-.563-.32V95.132c0-.913.184-1.667.5-2.207.178-.304.4-.547.656-.713.264-.175.562-.266.88-.268.346-.003.71.098 1.086.314z" fill="#2EBCE3"/><path d="M121.915 200.067l18.737-10.79c1.442-.83 2.76-2.384 3.723-4.216.965-1.838 1.564-3.952 1.564-5.895V159.82c0-1.247-.247-2.268-.68-3.01-.26-.456-.593-.805-.975-1.04-.376-.23-.81-.352-1.283-.352-.6 0-1.267.193-1.972.6l-18.737 10.787c-1.444.832-2.762 2.385-3.723 4.217-.965 1.84-1.564 3.953-1.564 5.896v19.344c0 1.248.247 2.27.677 3.012.264.455.594.806.975 1.04.377.23.81.35 1.286.35.6 0 1.268-.192 1.97-.597zm19.115-10.14l-18.736 10.79c-.83.476-1.625.703-2.35.703-.616 0-1.182-.16-1.678-.465-.49-.3-.91-.74-1.235-1.303-.496-.857-.78-2.007-.78-3.39v-19.344c0-2.062.632-4.3 1.652-6.245 1.024-1.95 2.445-3.616 4.013-4.52l18.737-10.786c.827-.478 1.622-.704 2.35-.704.614 0 1.18.16 1.677.465.49.3.908.74 1.235 1.303.496.86.78 2.008.78 3.39v19.345c0 2.062-.632 4.3-1.652 6.245-1.024 1.95-2.446 3.616-4.013 4.518z" fill="#C8C8C8"/><path d="M136.568 166.98c1.093.12 1.983.913 2.154 3.13 0 .03-.005.07-.022.117-.043.127-.142.266-.22.312l-3.312 1.928c-.05.032-.086.025-.09-.03-.075-1.107-.343-1.59-.71-1.727-.306-.11-.684.014-1.08.22v4.433c1.19-.31 2.088-.487 2.77-.555.7-.07 1.175-.03 1.504.09.706.256 1.066.8 1.25 1.362.186.565.194 1.146.194 1.476 0 .72-.133 1.57-.432 2.487-.21.647-.506 1.33-.894 2.017-.39.687-.868 1.38-1.447 2.052-.783.905-1.755 1.78-2.946 2.57v2.255c0 .028-.008.064-.02.105-.046.127-.143.268-.22.314l-1.945 1.13c-.056.04-.095.028-.095-.036v-2.432c-2.066 1.03-3.508 1.33-4.438.896-.943-.44-1.357-1.633-1.357-3.585 0-.03.008-.065.023-.107.043-.127.14-.266.218-.312l3.365-1.958c.048-.034.084-.026.088.028.076.844.183 1.492.51 1.827.298.305.78.356 1.59.073v-5.017c-1.252.397-2.59.755-3.617.585-1.055-.174-1.79-.903-1.79-2.71 0-.842.157-1.754.473-2.68.214-.626.5-1.26.858-1.88.358-.62.786-1.23 1.284-1.805.76-.88 1.692-1.696 2.793-2.387v-2.17c.002-.027.01-.062.023-.104.044-.127.143-.267.22-.313l1.944-1.133c.055-.038.093-.028.093.037v2.356c.966-.456 2.22-.975 3.28-.86zm-6.725 9.35c.333.103.752.04 1.164-.085v-3.986c-.403.264-.736.565-1.003.873-.182.213-.333.427-.45.633-.116.203-.204.406-.267.598-.08.246-.12.48-.12.678 0 .798.277 1.164.676 1.287zm4.835 2.946c-.376-.188-.89-.15-1.39-.028v4.53c.303-.205.668-.503.998-.887.16-.184.31-.388.442-.608.128-.218.24-.458.325-.722.112-.346.18-.733.18-1.16 0-.617-.223-.958-.555-1.124z" fill="#C8C8C8"/></g></svg>