<?xml version="1.0" encoding="utf-8"?>
<!-- Generator: Adobe Illustrator 25.0.0, SVG Export Plug-In . SVG Version: 6.00 Build 0)  -->
<svg version="1.1" id="Layer_1" xmlns="http://www.w3.org/2000/svg" xmlns:xlink="http://www.w3.org/1999/xlink" x="0px" y="0px"
	 viewBox="0 0 182 240" style="enable-background:new 0 0 182 240;" xml:space="preserve">
<style type="text/css">
	.st0{fill:#B1B3B4;}
	.st1{fill:#FFFFFF;}
	.st2{fill:#F6F4F4;}
	.st3{fill:#DADCDD;}
	.st4{fill:#EAEBEB;}
	.st5{fill:#0091BA;}
	.st6{fill:#27BBE4;}
	.st7{fill:#E7E6E6;}
	.st8{fill:#C8C7C7;}
	.st9{fill:#DA7F27;}
	.st10{fill:#5BAA00;}
	.st11{fill:#93CE11;}
	.st12{fill-rule:evenodd;clip-rule:evenodd;fill:#DA7F27;}
	.st13{fill:#D9EDF7;}
	.st14{fill:#C7E6F1;}
	.st15{fill-rule:evenodd;clip-rule:evenodd;fill:#EAEBEB;}
	.st16{fill:#FFB312;}
	.st17{fill:#FFCB51;}
	.st18{fill-rule:evenodd;clip-rule:evenodd;fill:#FFFFFF;}
	.st19{fill:#FFCC51;}
</style>
<g>
	<g>
		<path class="st0" d="M168.403305,128.399109l-7.841171,4.436493c-0.72113,0.414093-1.547012,0.414093-2.269409,0
			L83.391823,89.606987c-0.825882-0.411758-1.341766-1.134117-1.341766-2.062332V22.031666
			c0-0.412926,0.103523-0.824717,0.309685-1.135317l0.10321-0.205849c0.206192-0.412989,0.515625-0.722391,0.928871-0.928303
			l7.943787-4.540262c1.547081-0.928241,3.198273-1.443524,4.952087-1.650569c1.547646-0.20585,3.19796,0.103522,4.64296,0.825913
			l0.205887,0.103523l0.103203,0.102326l74.798889,43.228546c0.102356,0,0.205887,0.103519,0.309402,0.20591h0.102356
			c1.13533,0.722359,2.063538,1.754124,2.682343,2.991737c0.620026,1.342361,0.929398,2.785915,0.825882,4.230633
			l-0.103531,45.496758c-0.205841,3.611771-1.341156,7.118851-3.301132,10.111786
			C174.388046,123.756744,171.602158,126.440269,168.403305,128.399109L168.403305,128.399109z M159.428009,128.090866
			l6.705933-3.817642c2.578827-1.54821,4.74588-3.611771,6.292923-6.190613c1.548248-2.269409,2.476456-4.84938,2.682373-7.634132
			l0.207047-45.497986c0-0.722359-0.103531-1.54821-0.412964-2.270569c-0.205841-0.411793-0.515274-0.824688-0.928207-1.030602
			l-0.103516-0.103519L98.970055,18.523451l-0.309402-0.102325c-0.619431-0.205975-1.238274-0.309467-1.857109-0.205975
			c-1.135002,0.205975-2.166451,0.515347-3.198494,1.134184l-6.912346,3.920006v62.93412L159.428009,128.090866
			L159.428009,128.090866z"/>
	</g>
	<g>
		<path class="st1" d="M93.295616,61.958759v-6.500015l65.306511,40.545933l16.404724-36.212967l-75.00531-43.331848
			l-0.102676-0.10264c-1.857643-1.031701-4.539696-0.825852-7.428818,0.825914l-7.943825,4.539095l-0.206192,0.309435v27.443516
			l-9.079109,32.807137l7.840866-4.435349C88.652962,74.751709,93.295616,67.632858,93.295616,61.958759L93.295616,61.958759z"/>
	</g>
	<g>
		<path class="st0" d="M102.684181,61.236366v5.983536c-0.206192,3.198875-1.23764,6.292969-2.992081,8.975334
			c-1.856758,2.889404-4.332932,5.364723-7.222054,7.118813l-7.943825,4.436462l-0.412643,0.20594V21.928112l0.206451-0.309372
			l0.102921-0.102358l7.944138-4.539978c1.237961-0.722391,2.682365-1.237989,4.230011-1.445035
			c1.031448-0.102389,2.166451,0,3.095001,0.412957l0.412361,0.207045l0.103806,0.102642l75.004486,43.331818l0.205856,0.102356
			l-0.102325,0.207047l-16.507111,23.109444l-0.103531,0.207047l-0.205872-0.207047
			C158.39624,83.1082,102.684181,61.236366,102.684181,61.236366L102.684181,61.236366z M102.064781,67.219902v-7.015266
			l0.413208,0.309402l55.918251,21.975327l16.197708-22.594131L99.898865,16.769297l-0.103241-0.10239
			c-1.032074-0.515535-2.06321-0.72258-3.198524-0.515535c-1.444405,0.205851-2.785576,0.617926-3.920326,1.34145
			l-7.944382,4.435291l-0.102959,0.103554v64.89418l7.428253-4.230637c2.88884-1.754059,5.262085-4.023499,7.015579-6.911774
			C100.930656,73.307022,101.858871,70.315254,102.064781,67.219902L102.064781,67.219902z"/>
	</g>
	<g>
		<path class="st1" d="M26.750889,110.241432v51.276512c0,3.507095,1.135254,5.983505,2.992332,7.014114l84.186264,48.490906
			c1.547646,0.929443,3.611176,0.929443,5.88118-0.411758l30.744431-17.951736
			c4.745895-2.787048,8.769394-10.214447,8.769394-16.612076v-51.27536L75.240921,82.282318L26.750889,110.241432
			L26.750889,110.241432z"/>
	</g>
	<g>
		<path class="st0" d="M11.688202,178.952103v-51.274185c0-0.825882,0.412658-1.548218,1.134719-1.961174l69.949463-40.44149
			c0.722046-0.412956,1.650566-0.412956,2.372681,0l75.211212,43.433258c0.825882,0.414093,1.341171,1.135315,1.341171,2.063522
			v51.27536c-0.103531,3.715286-1.031799,7.429413-2.888275,10.730591c-1.651703,3.197952-4.023499,5.985016-7.11879,7.945007
			L99.38298,231.054764c-1.238235,0.721191-2.682648,1.236496-4.127083,1.341156
			c-1.444374,0.101196-2.888809-0.309372-4.12674-1.031723l-75.210968-43.332108
			c-0.102641-0.102386-0.309402-0.102386-0.412626-0.205902c-1.340867-0.827057-2.372945-2.167023-2.992065-3.610611
			c-0.541605-1.445251-0.846065-3.047272-0.844884-4.601089C11.668917,179.392548,11.67534,179.171432,11.688202,178.952103
			L11.688202,178.952103z M16.331152,129.019073v49.933029c0,1.136444,0.205896,2.372925,0.618523,3.404663
			c0.206778,0.618835,0.61912,1.237671,1.238525,1.548248l0.103254,0.103516l75.107422,43.228577
			c0.10321,0.102386,0.206169,0.102386,0.310005,0.207047c0.412361,0.204742,0.824997,0.309464,1.23764,0.204742
			c0.722015-0.102356,1.444122-0.309402,2.063217-0.721191l52.307686-30.331818c2.26944-1.547333,4.125885-3.610855,5.2612-6.087341
			c1.444717-2.682358,2.167053-5.570602,2.269379-8.563538v-49.830612L83.804115,89.917587
			C84.010628,89.917587,16.331152,129.019073,16.331152,129.019073L16.331152,129.019073z"/>
	</g>
	<g>
		<path class="st2" d="M14.267908,127.780304v51.171799c0,3.508209,1.134436,5.984695,2.991499,7.016434l71.393555,41.26857
			c1.857361,1.238846,4.023811,1.960037,6.293564,2.269409l27.236786-22.38826
			c4.849129-2.784683,8.769112-10.214096,8.769112-16.609711v-42.918854l-41.164459,22.90239
			C89.787964,170.389694,14.267908,127.780304,14.267908,127.780304L14.267908,127.780304z"/>
	</g>
	<g>
		<path class="st0" d="M130.643021,190.406219c-0.102371,3.299973-0.928284,6.601456-2.578842,9.4897
			c-1.341202,2.785889-3.508255,5.158813-6.087029,6.809448l-28.372101,18.984695l-0.102959,0.102325v0.103516l-0.72261,3.301239
			l-75.623032-43.64151c-0.928524-0.618835-1.650885-1.444717-2.063527-2.580032
			c-0.515582-1.339996-0.825017-2.783524-0.72236-4.229416v-50.965881l75.314186,43.1259l0.10321,0.102325l0.103271-0.102325
			l40.649414-22.904755v42.40477H130.643021L130.643021,190.406219z M130.850098,147.279114l-41.062134,23.11058
			l-75.520058-43.228226l-0.413224-0.20475v51.995384l0.103239,0.516449v0.309433l-0.103239-0.721222
			c0,1.547104,0.206463,3.095291,0.8256,4.435349l-0.206779-1.135345l0.206779,0.827072l0.412642,0.721176l-0.412642-0.516418
			c0.412642,1.031723,1.031447,1.85881,1.856765,2.477615c0.103521,0.102325,0.309685,0.204712,0.412626,0.308228
			l-0.412626-0.515274l0.309685,0.411758l0.722061,0.412918l75.313896,43.539154l0.309998,0.204742l0.102928-0.411789
			l0.722076-3.61058l28.165619-18.881195c2.682648-1.75293,4.849129-4.12709,6.292625-7.117691
			c1.651794-2.99176,2.580002-6.397614,2.580002-9.800262v-43.436508L130.850098,147.279114L130.850098,147.279114z"/>
	</g>
	<g>
		<path class="st1" d="M89.994156,170.699158v51.173248c0,6.3965,3.920578,9.38707,8.769394,6.603546l51.895065-29.816483
			c4.848251-2.787048,8.769394-10.214447,8.769394-16.612076v-51.27536l-69.33033,40.031784L89.994156,170.699158
			L89.994156,170.699158z"/>
	</g>
	<g>
		<path class="st0" d="M89.581772,221.872406v-51.689758l0.412384,0.207047l69.226807-39.927063l0.412964-0.205902v51.790665
			c-0.102402,3.404724-0.928284,6.810577-2.578812,9.801178c-1.444717,2.889389-3.611801,5.36615-6.292969,7.119141
			L98.76355,228.785385c-1.031136,0.617599-2.270004,1.030563-3.610855,1.030563c-0.928276,0-1.753815-0.205917-2.579124-0.721161
			c-0.825317-0.51651-1.444412-1.240005-1.85733-2.063522C89.891235,225.38063,89.478592,223.626495,89.581772,221.872406
			L89.581772,221.872406z M90.200607,171.112061v50.760345c-0.102928,1.754089,0.309715,3.403564,1.135002,4.950577
			c0.412643,0.723557,1.031479,1.341202,1.650635,1.857651c0.722641,0.414154,1.444122,0.620026,2.269653,0.620026
			c1.13475-0.103516,2.269753-0.414154,3.301483-1.031754l51.997719-29.816544
			c2.578842-1.650543,4.745895-4.024658,6.087051-6.809692c1.548248-2.88942,2.476486-6.190552,2.578812-9.490616v-50.76001
			L90.200607,171.112061L90.200607,171.112061z"/>
	</g>
	<g>
		<polygon class="st3" points="83.907387,87.235222 159.428009,130.875565 89.994156,170.803818 14.577343,127.263794 
			83.907387,87.235222 		"/>
	</g>
	<g>
		<polygon class="st1" points="43.773846,115.194397 43.773846,110.756714 14.577343,127.575554 89.994156,171.00853 
			159.324493,131.082611 142.40451,121.281425 138.278595,123.137901 150.452744,130.772034 89.883301,165.866379 
			22.315001,127.883827 43.773846,115.194397 		"/>
	</g>
	<g>
		<path class="st0" d="M158.809174,130.772034L83.907387,87.544655l-69.02124,39.82386l75.108009,43.123566L158.809174,130.772034
			L158.809174,130.772034z M84.010628,86.92585l75.520897,43.536781c0.102402,0.104691,0.205917,0.208221,0.102402,0.412933
			l-0.102402,0.103516L90.200607,171.00853c-0.102928,0.103531-0.206451,0.103531-0.309372,0l-75.726532-43.536499
			c-0.103554-0.103516-0.206778-0.208237-0.103554-0.412956l0.103554-0.102356l69.639412-40.134392
			C83.907387,86.92585,84.010628,86.92585,84.010628,86.92585L84.010628,86.92585z"/>
	</g>
	<g>
		<path class="st1" d="M177.378647,110.552002l0.207077-45.499115c0-5.57058-4.540009-7.634136-10.007095-4.436459
			l-7.944702,4.541111l-0.102402,0.308273v65.409752l7.840057-4.435295
			C172.839798,123.241425,177.378647,116.123802,177.378647,110.552002L177.378647,110.552002z"/>
	</g>
	<g>
		<path class="st0" d="M177.791565,65.157539l-0.205841,45.394463c-0.207077,3.197647-1.237686,6.292969-2.991776,8.975296
			c-1.857681,2.889442-4.334152,5.364761-7.222366,7.117661l-8.15062,4.643555l-0.411789,0.205856V65.465813l0.102417-0.308273
			l0.103531-0.104652l8.254074-4.642372c1.547104-0.928207,3.301224-1.443523,5.055313-1.547047
			c0.928238,0,1.856491,0.205849,2.682343,0.618839c0.824738,0.412926,1.443542,1.134121,1.856476,1.856419
			C177.585724,62.577564,177.791565,63.815239,177.791565,65.157539L177.791565,65.157539z M177.069214,110.552002
			l0.207031-45.394463c0-1.135254-0.207031-2.374096-0.825851-3.405827c-0.411758-0.722389-0.928207-1.237675-1.650589-1.6506
			c-0.722336-0.412926-1.547058-0.618805-2.37294-0.618805c-1.650558,0.103523-3.301163,0.516449-4.74588,1.444687
			l-8.14946,4.642334l-0.103516,0.103523v64.89447l7.737656-4.334099c2.888275-1.752953,5.2612-4.023529,7.015335-6.911774
			C175.93512,116.639091,176.966843,113.647324,177.069214,110.552002L177.069214,110.552002z"/>
	</g>
	<g>
		<polygon class="st1" points="84.422951,87.544655 84.422951,22.135157 159.428009,65.465813 159.428009,130.875565 
			84.422951,87.544655 		"/>
	</g>
	<g>
		<path class="st4" d="M155.197464,128.812042v-61.38623l-67.885353-39.30706l0.309402,18.05409v42.918861l61.179466,36.006203
			L155.197464,128.812042L155.197464,128.812042z M155.197464,128.812042l-5.055298-2.887054L155.197464,128.812042
			L155.197464,128.812042z"/>
	</g>
	<g>
		<path class="st3" d="M87.621513,42.665764v46.425941l54.990044,32.39563V81.66465c0-3.921204-2.372955-8.461151-5.26236-10.111755
			L87.621513,42.665764L87.621513,42.665764z"/>
	</g>
	<g>
		<path class="st0" d="M155.610397,128.606186l-0.618851-0.309464V67.425812L87.621513,28.324635v61.076504l-0.618835-0.309433
			V27.809288c0-0.103491,0.102669-0.207045,0.205566-0.207045c0.103867,0,0.207077,0,0.309998,0l67.988625,39.411812
			c0.103531,0.102325,0.103531,0.102325,0.103531,0.205849V128.606186L155.610397,128.606186z"/>
	</g>
	<g>
		<path class="st0" d="M84.526222,22.546949v64.791794l74.282951,43.02037V65.569328L84.526222,22.546949
			C84.526222,22.444624,84.526222,22.546949,84.526222,22.546949L84.526222,22.546949z M83.907387,87.441139v-65.40947
			c0-0.103554,0.103241-0.205879,0.206192-0.205879c0.10321,0,0.206451,0,0.309372,0l74.798012,43.331753
			c0.103531,0.102417,0.103531,0.102417,0.103531,0.20475v65.409744c0,0.207047-0.103531,0.310577-0.309372,0.310577
			c-0.103531,0-0.103531,0-0.205948,0l-74.901787-43.3321C84.010628,87.648178,83.907387,87.544655,83.907387,87.441139
			L83.907387,87.441139z"/>
	</g>
	<g>
		<path class="st4" d="M55.225883,170.182648l-9.697628-5.569412l-3.198532,2.26828l2.166451,4.84938l3.404724,10.421158
			l2.785606,3.40358c3.920288-2.371796,4.333214-2.888275,4.436455-6.190643L55.225883,170.182648L55.225883,170.182648z"/>
	</g>
	<g>
		<path class="st0" d="M45.734417,164.200287l9.594738,5.570602c0.103207,0.103531,0.20676,0.205917,0.20676,0.411758v9.078827
			c0,1.75415-0.20676,2.785919-0.929123,3.714127c-1.031479,1.135315-2.372959,2.167053-3.816769,2.787079
			c-0.206791,0.103531-0.41264,0.103531-0.619434-0.103516l-2.682617-3.404724l-3.19796-10.316498v-0.103531l-2.166481-4.747055
			c-0.103271-0.205841,0-0.410553,0.103237-0.515305l3.197964-2.269379
			C45.528255,164.200287,45.734417,164.200287,45.734417,164.200287L45.734417,164.200287z M54.710033,170.389694
			l-9.181778-5.364655l-2.682648,1.856476l2.06324,4.437592l3.405262,10.316498l2.475914,3.095291
			c1.237644-0.61998,2.269123-1.443497,3.198185-2.37413c0.618584-0.928207,0.825348-2.062363,0.721825-3.196457V170.389694
			L54.710033,170.389694z"/>
	</g>
	<g>
		<path class="st2" d="M52.027668,172.143845l-9.697945-5.363525v10.212921c0,8.149414,9.595303,11.968262,9.595303,5.570602
			C52.027668,182.563843,52.027668,172.143845,52.027668,172.143845L52.027668,172.143845z"/>
	</g>
	<g>
		<path class="st0" d="M132.087738,119.629692l18.983841,10.93763c0.102325,0.103531,0.205841,0.204712,0.102325,0.411758
			l-0.102325,0.103531l-61.077423,35.283585c-0.102921,0.102325-0.206192,0.102325-0.309402,0L22.211163,127.98735
			c-0.10294-0.103523-0.205582-0.207047-0.10294-0.411797l0.10294-0.103523l9.698542-5.469383v0.618813l-8.975899,5.056458
			l66.854156,37.967056l60.457733-34.87294l-18.26149-10.522369L132.087738,119.629692L132.087738,119.629692z
			 M42.536171,166.468521l9.594738,5.262375c0.102924,0.103516,0.20676,0.207047,0.20676,0.412949v10.419998
			c0.205879,1.341171-0.516197,2.683563-1.754436,3.404694c-0.618839,0.205902-1.340851,0.309464-1.960289,0.205902
			c-0.722046-0.103516-1.444122-0.411758-2.166481-0.824707c-2.888527-1.755295-4.642933-4.952942-4.539127-8.356491v-10.212921
			c0-0.103516,0.102924-0.311798,0.206196-0.414124C42.329723,166.366196,42.432934,166.366196,42.536171,166.468521
			L42.536171,166.468521z M51.615025,172.454422l-8.769417-4.850586v9.49292c-0.103241,3.095322,1.547642,5.982376,4.126766,7.63414
			c0.515598,0.308228,1.238213,0.618835,1.857334,0.721222c0.515564,0.103516,1.031479,0,1.547676-0.204712
			c0.928177-0.51651,1.444088-1.548248,1.23764-2.580048V172.454422L51.615025,172.454422z"/>
	</g>
	<g>
		<path class="st1" d="M125.381805,77.227028l-73.2509-42.608322c-1.135036-0.825886-2.682678-0.825886-3.920322,0
			l-2.47617,1.547108c-2.063244,1.237614-2.888809,1.857616-2.888809,4.848217v75.314491
			c0,3.921143,2.373211,8.460014,5.261772,10.111748l54.78297,31.775322l27.75267-16.094131V87.338745
			C130.746536,83.417572,128.373611,78.878761,125.381805,77.227028L125.381805,77.227028z"/>
	</g>
	<g>
		<path class="st5" d="M142.491943,21.282135c13.922104,7.990324,25.179962,29.418159,25.179962,47.698662
			c0,10.047112-3.389221,17.189636-8.83638,20.095451c-0.484558,0.241837-0.847824,0.484581-1.332138,0.604729l-10.168793,4.721336
			l-2.542831-5.810371c-0.726166-0.363274-1.452332-0.726166-2.178436-1.089409
			c-14.043793-8.111702-25.302567-29.417877-25.302567-47.698376c0-3.510548,0.484612-7.142498,1.573967-10.531698
			l-2.179329-5.084259l9.685692-4.47978C130.628098,17.40863,136.317139,17.771559,142.491943,21.282135L142.491943,21.282135z"/>
	</g>
	<g>
		<path class="st6" d="M131.59584,26.366676c13.922104,8.111668,25.181442,29.417877,25.181442,47.698341
			c0,18.28022-11.259338,26.510651-25.181442,18.521805c-13.921242-7.990074-25.180275-29.538116-25.180275-47.698406
			C106.415565,26.729572,117.674599,18.256144,131.59584,26.366676L131.59584,26.366676z"/>
	</g>
	<g>
		<path class="st1" d="M132.87793,83.597656c-0.678711,0-1.383789-0.291992-2.060547-0.876953
			c-3.474609-2.525391-5.266602-9.566895-6.170898-15.268555c-2.204102-0.641602-4.398438-0.925781-6.585938-0.843262
			c-0.49707,0.007812-0.974609-0.393555-0.994141-0.924316c-0.019531-0.529785,0.393555-0.975098,0.923828-0.994629
			c2.118164-0.07959,4.235352,0.15332,6.355469,0.689941c-0.266602-2.027344-0.416016-3.747559-0.495117-4.828125
			c-0.109375-1.512207-0.181641-3.07959-0.211914-4.660156l-9.938477-5.927246
			c-0.456055-0.271973-0.604492-0.86084-0.333008-1.316406c0.271484-0.45459,0.862305-0.604004,1.31543-0.333008l8.942383,5.333008
			c0.019531-2.899414,0.189453-5.771973,0.538086-8.352539c-2.303711-2.087402-4.598633-4.537109-6.882812-7.344238
			c-0.333984-0.411621-0.271484-1.016113,0.139648-1.350586c0.411133-0.333984,1.015625-0.271484,1.350586,0.138672
			c1.917969,2.359375,3.839844,4.453613,5.762695,6.282227c0.490234-2.529785,1.193359-4.635254,2.145508-5.996094
			c1.395508-1.993652,3.313477-2.371582,5.264648-1.044434c0.022461,0.015137,0.045898,0.031738,0.067383,0.049316
			c0.023438,0.018066,0.044922,0.037109,0.066406,0.057129c2.969727,2.737305,4.487305,9.413574,5.258789,15.162109
			c2.489258,0.828125,4.96582,1.201172,7.43457,1.10791c0.488281-0.033691,0.974609,0.393555,0.994141,0.924316
			c0.019531,0.529785-0.393555,0.975098-0.923828,0.994629c-2.421875,0.089844-4.833008-0.224609-7.25-0.93457
			c0.295898,2.695312,0.429688,5.01416,0.489258,6.366699c0.037109,0.858398,0.063477,1.730469,0.079102,2.606934
			l10.970703,6.542969c0.456055,0.271973,0.604492,0.86084,0.333008,1.316406
			c-0.270508,0.455078-0.861328,0.605469-1.31543,0.333008l-9.974609-5.948242
			c-0.013672,2.856934-0.152344,5.704102-0.433594,8.289062c2.615234,2.258301,5.220703,4.981445,7.811523,8.166504
			c0.333984,0.411621,0.271484,1.016113-0.139648,1.350586c-0.410156,0.335449-1.014648,0.271973-1.350586-0.138672
			c-2.204102-2.710938-4.413086-5.071289-6.621094-7.080566c-0.527344,3.40918-1.356445,6.134277-2.541992,7.452637
			C134.298828,83.26416,133.603516,83.597656,132.87793,83.597656z M132.05957,81.256348
			c0.757812,0.666504,1.063477,0.445312,1.410156,0.058594c0.994141-1.10498,1.773438-3.886719,2.25293-7.659668
			c-3.013672-2.492676-6.024414-4.328613-9.024414-5.502441c1.152344,6.606934,3.053711,11.437988,5.265625,13.027344
			c0.015625,0.011719,0.032227,0.023438,0.047852,0.035645C132.02832,81.229004,132.043945,81.242676,132.05957,81.256348z
			 M126.355469,65.980469c3.207031,1.10498,6.413086,2.90918,9.608398,5.407227
			c0.210938-2.410156,0.313477-5.112793,0.291016-7.972168l-10.669922-6.363281
			c0.039062,1.104492,0.098633,2.227051,0.180664,3.360352C125.907227,62.356445,126.105469,64.219727,126.355469,65.980469z
			 M125.537109,54.788086l10.674805,6.366211c-0.013672-0.45166-0.030273-0.905762-0.050781-1.362793
			c-0.108398-2.507812-0.302734-4.900391-0.572266-7.128906c-3.233398-1.244141-6.46582-3.199219-9.685547-5.858887
			C125.641602,49.199707,125.513672,51.909668,125.537109,54.788086z M126.206055,44.544434
			c3.032227,2.640625,6.06543,4.617188,9.086914,5.92334c-0.957031-6.371582-2.553711-11.113281-4.476562-12.931152
			c-1.056641-0.701172-1.77832-0.532227-2.564453,0.589355C127.366211,39.39209,126.670898,41.646973,126.206055,44.544434z"/>
	</g>
	<g>
		<path class="st1" d="M138.44043,85.828613c-2.351562,0-4.892578-0.774902-7.467773-2.311035
			c-9.772461-5.828125-17.723633-21.266602-17.723633-34.414551c0-7.13916,2.361328-12.574707,6.478516-14.913086
			c3.441406-1.954102,7.783203-1.570312,12.228516,1.080078l0.000977,0.000488
			c9.772461,5.828613,17.722656,21.26709,17.722656,34.414551c0,7.13916-2.361328,12.574707-6.478516,14.913086
			C141.753906,85.419922,140.146484,85.828613,138.44043,85.828613z M124.492188,34.884766
			c-1.381836,0-2.668945,0.323242-3.816406,0.974609c-3.5,1.987793-5.506836,6.814941-5.506836,13.243652
			c0,12.546875,7.53125,27.245605,16.787109,32.765625c3.826172,2.282227,7.482422,2.657715,10.296875,1.060059
			c3.5-1.987793,5.506836-6.814941,5.506836-13.243652c0-12.546387-7.530273-27.245117-16.787109-32.766113
			C128.707031,35.567383,126.5,34.884766,124.492188,34.884766z"/>
	</g>
	<g>
		<path class="st0" d="M124.246552,79.29055L50.995872,36.578709c-0.205849-0.207047-0.51585-0.309372-0.825283-0.309372
			c-0.206196,0-0.515568,0.102325-0.722359,0.309372l-2.475857,1.547077c-0.618835,0.309433-1.134716,0.722359-1.547642,1.135284
			c-0.205914,0.515285-0.30912,1.135319-0.30912,1.75296v75.314491c0,1.650566,0.51585,3.30117,1.237926,4.84938
			c0.618835,1.341164,1.547359,2.475288,2.785572,3.302368l56.020931,32.497696l-4.642342,2.681168l-53.648594-31.155365
			c-1.960258-1.239975-3.611172-3.095291-4.642338-5.158821c-1.134686-2.167046-1.754154-4.53878-1.857048-6.912903V41.118748
			c-0.103523-1.548241,0.309372-3.095318,1.135002-4.436485c0.825001-1.031796,1.856483-1.857677,2.991451-2.372963l2.4762-1.54821
			c0.928524-0.618835,1.960007-1.031763,3.095009-1.031763s2.270287,0.30937,3.198528,0.929373l73.250336,42.608322
			c1.959694,1.238777,3.611488,3.095261,4.643227,5.158821c1.134109,2.167046,1.752945,4.538841,1.856476,6.912903v53.441559
			l-4.642334,2.683487V87.338745c0-1.650566-0.515884-3.30233-1.237961-4.745857
			C126.41304,81.250526,125.484795,80.116402,124.246552,79.29055L124.246552,79.29055z"/>
	</g>
	<g>
		<path class="st2" d="M125.381805,77.227028l-73.2509-42.608322c-1.237991-0.825886-2.888527-0.825886-4.126801,0.205879
			l-3.404724,1.961166l1.96035,2.578842l13.205589,63.551857c0.619373,3.817902,2.476456,7.324982,5.261776,10.112068
			l45.291504,40.956497l20.427933-11.76123v-54.88504C130.643021,83.417572,128.270081,78.878761,125.381805,77.227028
			L125.381805,77.227028z"/>
	</g>
	<g>
		<path class="st3" d="M78.335617,49.888168L52.130909,34.618706c-1.237991-0.825886-2.888527-0.825886-4.126801,0.205879
			l-2.166451,1.341228l20.633846,18.570602l7.840576-2.682396L78.335617,49.888168
			C78.43885,49.888168,78.335617,49.888168,78.335617,49.888168L78.335617,49.888168z"/>
	</g>
	<g>
		<path class="st0" d="M125.278603,77.5364L52.027668,34.928139c-0.618835-0.412926-1.341164-0.618839-2.063274-0.516479
			c-0.619122,0.103554-1.237926,0.3106-1.753807,0.722393l-3.094975,1.856449l1.753494,2.374092v0.10239l13.102951,63.55299
			c0.308865,1.959969,0.928272,3.817902,1.85648,5.468529c0.8256,1.649406,1.960602,3.197617,3.301796,4.435265l45.394432,41.061249
			l-0.515564,0.311722l-45.291542-40.959984c-1.444149-1.340034-2.579121-2.888275-3.40469-4.538849
			c-0.928272-1.754089-1.547646-3.714439-1.960285-5.674408L46.250267,39.466984l-1.857018-2.578903l-0.206509-0.205818
			l0.309433-0.207047l3.301739-2.063557c0.618835-0.411728,1.237675-0.618839,1.960003-0.721195
			c0.825317-0.103493,1.753841,0.102356,2.475918,0.618835l73.250961,42.608265
			c1.650856,1.031792,2.991142,2.580032,3.817055,4.332962c1.031723,1.857674,1.548248,3.921204,1.548248,5.984695v54.680336
			l-0.620041,0.308228v-54.88504c0-1.961136-0.51532-3.921173-1.547073-5.778786
			C127.960648,79.909325,126.722977,78.465805,125.278603,77.5364L125.278603,77.5364z"/>
	</g>
	<g>
		<path class="st1" d="M121.358307,79.703445L48.004108,36.990501c-2.888496-1.65057-5.261742,0.104687-5.261742,3.921204v75.314423
			c0,3.920013,2.373245,8.458855,5.261742,10.109421l51.378872,33.840034l27.236473-15.681183V89.814064
			C126.619453,85.996414,124.246552,81.457573,121.358307,79.703445
			C121.358307,79.806969,121.358307,79.703445,121.358307,79.703445L121.358307,79.703445z"/>
	</g>
	<g>
		<path class="st7" d="M57.701797,42.893055l-2.063274,15.242168l5.984165,11.761215l9.181747-4.538811l0.206734-0.103523
			c1.753273-0.928238,2.888588-3.302368,2.888588-6.603539V52.17889C73.899757,52.384804,57.701797,42.893055,57.701797,42.893055
			L57.701797,42.893055z"/>
	</g>
	<g>
		<path class="st4" d="M118.979523,148.092117l-26.226677-14.872849c-1.937462-1.38414-3.106972-3.605026-3.149696-5.985893
			V99.665527c0-2.297737,1.418678-3.364922,3.149696-2.3694l34.388374,19.74276
			c1.927231,1.379761,3.090881,3.588623,3.14035,5.958092v18.543091L118.979523,148.092117L118.979523,148.092117z"/>
	</g>
	<g>
		<path class="st0" d="M121.255043,79.909325L47.900898,37.301098c-0.618835-0.310596-1.237988-0.515347-1.960003-0.618835
			c-0.41264,0-0.928806,0.103489-1.237988,0.308239c-0.412895,0.207043-0.722298,0.619968-0.929062,1.032928
			c-0.515911,0.928268-0.722107,1.960003-0.722107,2.990601v75.314491c0.10387,1.961136,0.619434,3.921143,1.547646,5.674126
			c0.825348,1.650543,2.063526,3.095261,3.611202,4.127052l50.965607,34.25293l-0.618813,0.309433l-50.759468-34.047104
			c-1.650852-1.03054-2.992332-2.578781-3.817303-4.331741c-1.032078-1.857674-1.547676-3.921173-1.547676-5.984695V41.01403
			c0-1.134121,0.206161-2.268272,0.722675-3.300037c0.308773-0.516449,0.618237-0.825912,1.134403-1.135284
			c0.515568-0.309372,1.031479-0.412895,1.547646-0.412895c0.825253,0,1.547077,0.205849,2.269722,0.722267l73.353851,42.609516
			c1.650887,1.031769,2.991768,2.578812,3.817368,4.33297c1.031479,1.857613,1.547646,3.919945,1.547646,5.983498v54.576805
			l-0.619438,0.309433V89.814064c0-1.959999-0.515564-4.02356-1.547615-5.777649
			C124.040329,82.385841,122.802116,80.941154,121.255043,79.909325L121.255043,79.909325z"/>
	</g>
	<g>
		<path class="st8" d="M138.071548,193.603867l-19.395882,11.244995c-0.722076,0.411758-1.547676,0.722382-2.475891,0.722382
			c-0.619431,0-1.238274-0.205948-1.754433-0.51651c-0.515854-0.309402-0.928528-0.824692-1.23793-1.341125
			c-0.618805-1.135361-0.8256-2.26947-0.8256-3.507126v-20.117935c0.103271-2.270569,0.619438-4.539978,1.753807-6.501175
			c0.928871-1.960007,2.373528-3.50705,4.127373-4.74472l19.499123-11.245911
			c0.722397-0.412888,1.547073-0.721161,2.476486-0.721161c0.618805,0,1.23764,0.204758,1.75412,0.51532
			c0.51532,0.308243,0.928207,0.824692,1.237671,1.339966c0.618805,1.135345,0.824692,2.270599,0.824692,3.508255v20.117645
			c-0.102356,2.270599-0.618835,4.541168-1.75296,6.501205C141.270401,190.816788,139.929169,192.468552,138.071548,193.603867
			L138.071548,193.603867z M118.262993,204.230042l19.396797-11.24501c1.649399-1.136459,2.99057-2.578812,3.816452-4.334106
			c1.031799-1.856506,1.548248-4.02356,1.650604-6.087082v-20.11882c0-1.031784-0.205917-2.165909-0.722336-3.095322
			c-0.205933-0.410553-0.618835-0.823547-1.031784-1.030594c-0.412933-0.207047-0.824692-0.411758-1.341171-0.411758
			c-0.722366,0-1.443527,0.204712-2.062393,0.618805l-19.396736,11.14122c-1.650917,1.031784-2.992081,2.578812-3.817398,4.334091
			c-1.031731,1.855316-1.547615,4.02356-1.650536,6.087082v20.117935c0,1.031799,0.206161,2.167084,0.722328,3.095322
			c0.205879,0.411804,0.618523,0.824722,1.031479,1.031769c0.412643,0.205917,0.824997,0.411758,1.341476,0.411758
			C116.921509,204.745331,117.64418,204.53949,118.262993,204.230042L118.262993,204.230042z"/>
	</g>
	<g>
		<path class="st7" d="M43.043018,67.875923l16.632511,9.533562c1.279175,0.803085,2.311535,1.941612,2.987358,3.291847
			c0.731743,1.357826,1.131195,2.869476,1.164536,4.411865v27.569359c0.014675,0.99984-0.18129,1.992722-0.573467,2.913338
			c-0.441891,1.032082-1.187645,1.906227-2.135498,2.505707l-0.518181,0.343056
			c-0.804821,0.517082-1.637157,1.063377-2.247211,1.386856c-0.112305,0.067787-0.230438,0.125999-0.351215,0.176025
			c-0.19508,0.082748-0.360596,0.118988-0.554794,0.193855c-0.238625,0.055603-0.479614,0.09301-0.721481,0.110893h-0.204399
			c-0.211769,0-0.443371,0-0.646355-0.065804l-0.425488-0.090675h-0.231606l-0.4077-0.166718
			c-0.104118-0.047035-0.205315-0.100311-0.304428-0.157578h-0.102074c-3.507679-2.006538-6.88372-3.841644-11.29269-6.260513
			L43.043018,67.875923L43.043018,67.875923z"/>
	</g>
	<g>
		<path class="st7" d="M64.80217,139.780685l-0.76622,0.085663v-26.140091c-0.017822-1.015396,0.188911-2.022003,0.603348-2.94873
			c0.236298-0.501869,0.554794-0.958939,0.945213-1.354393c0.2901-0.302979,0.624939-0.56002,0.989349-0.763855l2.505981-1.707619
			c1.039986-0.870308,2.342834-1.36837,3.699806-1.411942c1.220955,0.061707,2.403343,0.45562,3.416405,1.138779l17.963791,9.471878
			c1.584167,0.948738,2.876816,2.315941,3.734276,3.952789c0.89257,1.657303,1.381561,3.502106,1.42366,5.384308l-0.18277,34.814468
			l-13.702179-9.184402L64.80217,139.780685L64.80217,139.780685z"/>
	</g>
	<g>
		<path class="st0" d="M63.789139,73.823433l-12.483578-7.222305v14.44355l12.483578,7.222343V73.823433L63.789139,73.823433z
			 M76.891808,81.35405l-12.483551-7.221176v14.44352l12.483551,7.221237V81.35405L76.891808,81.35405z M89.994156,88.988182
			l-12.483513-7.221176v14.44352l12.483513,7.222404V88.988182L89.994156,88.988182z M103.096825,96.519958l-12.483261-7.221207
			v14.443581l12.483261,7.222656V96.519958L103.096825,96.519958z M116.199776,104.155258l-12.484108-7.222374v14.443863
			l12.484108,7.221146V104.155258L116.199776,104.155258z M103.715668,96.210526l12.484108,7.222404V88.67878l-12.484108-7.221207
			V96.210526L103.715668,96.210526z M90.613564,88.67878l12.483261,7.222374V81.148201l-12.483261-7.222374V88.67878
			L90.613564,88.67878z M77.510643,81.044678l12.483513,7.222343V73.616394l-12.483513-7.221146V81.044678L77.510643,81.044678z
			 M64.408257,73.512871l12.483551,7.222343V65.982292l-12.483551-7.222347V73.512871L64.408257,73.512871z M51.305561,65.982292
			l12.483578,7.221207V58.450512l-12.483578-7.221176V65.982292L51.305561,65.982292z M63.789139,104.155258l-12.483578-7.222374
			v13.308548l12.483578,7.222343V104.155258L63.789139,104.155258z M76.891808,111.686119l-12.483551-7.222343v13.3106
			l12.483551,7.221207V111.686119L76.891808,111.686119z M89.994156,119.217926l-12.483513-7.221207v13.204712l12.483513,7.221176
			C89.994156,132.526199,89.994156,119.217926,89.994156,119.217926L89.994156,119.217926z M102.993874,126.852036
			l-12.483551-7.222343v13.309425l12.483551,7.222351C102.993874,140.057938,102.993874,126.852036,102.993874,126.852036
			L102.993874,126.852036z M90.510323,118.908493l12.483551,7.221207v-14.443581l-12.483551-7.222343V118.908493
			L90.510323,118.908493z M77.407402,111.376747l12.483833,7.221146v-14.442635l-12.483833-7.222374V111.376747
			L77.407402,111.376747z M64.304993,103.742332l12.483574,7.222656v-14.44503l-12.483574-7.221207V103.742332L64.304993,103.742332
			z M51.202385,96.210526l12.483829,7.222404V88.988182l-12.483829-7.221176V96.210526L51.202385,96.210526z M116.096504,133.661484
			v-14.443558l-12.484077-7.221207v14.44355L116.096504,133.661484L116.096504,133.661484z M51.098831,50.403454l12.690308,7.324699
			l0.412643,0.207043l12.690025,7.32476l0.412643,0.205856l0.206192,0.103516l13.102921,7.530586l12.483261,7.222404
			l0.412895,0.207047l13.308861,7.634132v56.536804l-0.618805,0.310577v-10.937637l-12.484108-7.221207v13.309433
			l13.102913,7.531738l-0.618805,0.308243l-25.586212-14.751755v24.24472l-0.619408-0.310562v-24.244736l-12.483513-7.222374
			v24.348228l-0.618835-0.308243v-24.348251l-12.483551-7.221146v24.449448l-0.619118-0.309433v-24.552971l-12.483578-7.222374
			v24.554169l-0.619057-0.309433V50.19754L51.098831,50.403454L51.098831,50.403454z"/>
	</g>
	<g>
		<path class="st8" d="M125.897438,194.737961c1.135002-0.825897,1.960289-2.165894,1.960289-3.508194v-8.873001
			c0-1.341141-0.928276-1.959976-1.960289-1.341141c-1.135002,0.825851-1.857109,2.168213-1.960289,3.508224v8.872971
			C123.937149,194.737961,124.865959,195.253586,125.897438,194.737961L125.897438,194.737961z M131.261856,191.64267
			c1.135254-0.825882,1.959991-2.165863,1.959991-3.508255v-19.807083c0-1.3423-0.928268-1.961136-1.959991-1.3423
			c-1.134125,0.825882-1.960007,2.167053-1.960007,3.50705v19.705902
			C129.301849,191.64267,130.230057,192.157974,131.261856,191.64267L131.261856,191.64267z M136.626862,188.547409
			c1.135254-0.825882,1.961166-2.165894,1.961166-3.508286v-16.094086c0-1.341202-0.928238-1.960007-1.961166-1.341202
			c-1.134125,0.825882-1.960007,2.167053-1.960007,3.508224v15.990601
			C134.666855,188.547409,135.492737,189.063828,136.626862,188.547409L136.626862,188.547409z M120.532715,197.832428
			c1.134964-0.824753,1.856728-2.16507,1.959999-3.50737v-12.689453c0-1.341202-0.825035-1.960007-1.959999-1.341202
			c-1.13504,0.825912-1.960289,2.165909-1.960289,3.508286v12.689667
			C118.572426,197.832428,119.397675,198.452362,120.532715,197.832428L120.532715,197.832428z"/>
	</g>
	<g>
		<path class="st9" d="M77.343933,77.865105c1.776634,1.0186,3.221916,3.7668,3.221916,6.112244
			c0,2.345154-1.445282,3.41111-3.221916,2.368866c-1.776634-1.042625-3.221672-3.7668-3.221672-6.111961
			C74.122261,77.889122,75.567299,76.846848,77.343933,77.865105L77.343933,77.865105z"/>
	</g>
	<g>
		<path class="st10" d="M41.81353,13.359661L59.249443,23.47053c7.11882,4.127085,8.35675,7.222343,8.35675,13.102324v25.689484
			c0,3.30114-1.134689,5.57058-2.888535,6.602341l-0.206474,0.103523l-9.18203,4.538841l-5.983883-11.761215l3.198277-27.2365
			L36.552071,24.295218l-8.356493,17.538839l-1.547361-24.554136l9.903854-4.43674l0.412895-0.205912
			C38.615597,12.121985,40.36972,12.430223,41.81353,13.359661L41.81353,13.359661z"/>
	</g>
	<g>
		<path class="st11" d="M31.909704,17.7964l17.848211,10.316498c7.118881,4.127054,8.357094,7.222342,8.357094,13.10232V66.90464
			c0,5.983566-3.610889,8.769455-8.357094,5.983566c-1.341167-0.722328-18.880289-11.348228-19.189692-11.555275
			c-5.674414-3.50708-7.118221-5.983566-7.118221-11.864742V23.676378C23.552912,17.7964,27.266769,15.114067,31.909704,17.7964
			C31.806465,17.7964,31.909704,17.7964,31.909704,17.7964L31.909704,17.7964z"/>
	</g>
	<g>
		<path class="st1" d="M43.671173,49.468189c-0.413239-0.721161-0.928806-1.237675-1.547642-1.85648v4.951771
			c0.309402,0.207047,0.722076,0.310566,1.134403,0.310566c0.206448,0,0.310001,0,0.515911-0.103519
			c0.206764-0.103523,0.309971-0.207047,0.309971-0.412926c0.102924-0.309437,0.206196-0.722328,0.206196-1.031765
			C44.290012,50.707031,44.083817,50.088192,43.671173,49.468189L43.671173,49.468189z M38.409435,40.081131
			c0.309372,0.515251,0.825001,1.031731,1.237644,1.443523v-4.332966c-0.309437-0.205849-0.72208-0.309402-1.134468-0.309402
			c-0.206417,0-0.30994,0-0.51585,0.103554c-0.102955,0.10236-0.206478,0.205849-0.309689,0.309402
			c-0.103268,0.205883-0.103268,0.411732-0.103268,0.618839C37.687073,38.635246,37.893806,39.358768,38.409435,40.081131
			L38.409435,40.081131z M45.734417,38.429363c1.340881,1.754124,2.166481,3.921173,2.372963,6.190578v0.103523
			c0,0.10239-0.206482,0.10239-0.206482,0.10239l-3.610886-2.165916c-0.103271,0-0.103271-0.103554-0.103271-0.103554
			c0-1.031731-0.309654-1.960003-0.825535-2.785824c-0.309467-0.411793-0.722111-0.824749-1.134438-1.135315v4.952965
			c1.341167,1.237644,2.269405,2.167049,2.99205,2.991768c0.618839,0.619938,1.13472,1.341164,1.650288,2.063526
			c0.618866,0.928207,1.135002,1.960003,1.34148,3.095287c0.103523,0.618809,0.206161,1.237614,0.206161,1.856483
			c0,0.722328-0.102638,1.444687-0.51585,2.167049c-0.206161,0.412891-0.516163,0.825882-1.031792,1.031761
			c-0.515568,0.309402-1.031448,0.412926-1.547615,0.412926c-1.13475-0.103523-2.269753-0.412926-3.19796-0.929405v2.372959
			c0,0.103523-0.206196,0.103523-0.206196,0.103523l-2.167049-1.237675c-0.103207,0-0.103207-0.103523-0.103207-0.207043v-2.682365
			c-1.960007-1.237644-3.610889-2.784691-4.848564-4.744724c-1.031731-1.754093-1.547646-3.715294-1.444405-5.675266V44.10463
			c0-0.103523,0.206196-0.103523,0.206196-0.103523l3.714127,2.165882c0.103176,0,0.103176,0.104752,0.103176,0.104752
			c0,0.928177,0.206196,1.856449,0.516197,2.681137c0.412388,0.825882,1.031193,1.547108,1.753273,2.167049v-5.468189
			c-1.444408-1.237675-2.78532-2.578842-3.920292-4.023529c-1.238243-1.547077-1.85648-3.301201-1.960003-5.261204
			c0-0.825886,0.103523-1.650635,0.51585-2.374096c0.20591-0.411793,0.515881-0.721195,0.928524-0.928242
			c0.41264-0.205879,0.928272-0.309433,1.443836-0.309433c1.135288,0.103554,2.16708,0.412956,3.095291,1.031761V31.31171
			c0-0.103556,0.206795-0.103556,0.206795-0.103556l2.166451,1.237677c0.103237,0,0.103237,0.103489,0.103237,0.207043v2.578812
			C43.464382,36.159958,44.702908,37.191689,45.734417,38.429363L45.734417,38.429363z"/>
	</g>
	<g>
		<polygon class="st12" points="112.748238,99.624344 110.624512,92.082909 106.16082,86.258148 117.749466,87.884506 
			112.748238,99.624344 		"/>
	</g>
	<g>
		<path class="st9" d="M103.053711,97.534668c-0.207031,0-0.414062-0.053711-0.599609-0.161133l-24.81543-14.32666
			L52.986816,97.279297c-0.572266,0.333496-1.307129,0.135254-1.63916-0.438965
			c-0.331543-0.574219-0.134766-1.308105,0.438965-1.63916L77.038574,80.62207c0.371094-0.214844,0.829102-0.214844,1.200195,0
			l24.814941,14.32666l10.621094-6.131836c0.572266-0.331543,1.308594-0.134766,1.638672,0.438965
			c0.332031,0.574219,0.134766,1.308105-0.439453,1.63916l-11.220703,6.478516
			C103.467773,97.480957,103.260742,97.534668,103.053711,97.534668z"/>
	</g>
	<g>
		<path class="st13" d="M13.133787,70.054932c0.194767-0.147408,1.947741-1.325386,2.178761-1.491753
			c1.530705-1.131195,2.439315-1.001633,3.922936-0.148613l34.976803,20.092842
			c1.788628,1.020332,3.254665,3.81179,3.254665,6.185005v27.641869c0.123104,1.54969-0.581402,3.04847-1.854717,3.940445
			c-0.927391,0.622078-2.058586,1.372772-2.707836,1.688599h-1.539993L15.164554,107.41581h-0.046488l-0.138911-0.102699
			l-0.064623-0.055229l-0.055555-0.055603v-0.157578c-0.649252-1.148232-1.006639-2.438202-1.039383-3.756569V72.744888
			c-0.687837-0.712097-0.944912-1.736588-0.67614-2.689957H13.133787L13.133787,70.054932z"/>
	</g>
	<g>
		<path class="st6" d="M14.827964,70.004341l-0.408849,0.276657v0.199455l-1.037336,0.494537l-0.066354,0.12339
			c-0.12021,0.302727-0.174899,0.626427-0.162038,0.951347v29.266121c0.004392,0.486061,0.074005,0.968567,0.209092,1.436218
			c0.147113,0.53112,0.358283,1.042595,0.628488,1.522232c0,0.095589,0.104105,0.190926,0.151191,0.285416v0.076065l0.0582,0.095306
			c0.076036,0.123734,0.152356,0.217873,0.236893,0.332512l0.276643,0.324074l0.08512,0.094429v0.056732l0.07602,0.067848
			l0.142721,0.132744l0.162038,0.123451l0.200308,0.12339l36.486427,20.931252
			c0.119865,0.063477,0.248009,0.110542,0.379868,0.143608l0.124302-0.06842c0.427849-0.208244,1.246395-0.750977,2.035759-1.264816
			l0.532219-0.35099c0.368786-0.228394,0.663895-0.559708,0.847263-0.951355c0.192154-0.487762,0.28223-1.009186,0.266144-1.532684
			V94.587753c-0.028999-0.996399-0.289539-1.973442-0.760395-2.853134c-0.37228-0.768295-0.940834-1.423409-1.646759-1.903015
			L17.910675,69.234062c-0.318487-0.224052-0.68228-0.373161-1.06509-0.437805
			c-0.357386,0.06546-0.686687,0.22953-0.952532,0.475204l-1.084673,0.751923L14.827964,70.004341L14.827964,70.004341z
			 M10.726933,68.443565c0.243599-0.254433,0.526696-0.469696,0.837564-0.637291l2.141043-1.483566
			c0.878809-0.732597,1.977242-1.151093,3.120729-1.189697c1.041428,0.045029,2.052143,0.373474,2.921003,0.951607
			l35.886562,20.569832c1.316071,0.825882,2.37825,1.997162,3.07309,3.386559c0.75309,1.396423,1.16394,2.951973,1.198193,4.538559
			v28.361557c0.015209,1.028519-0.186577,2.050079-0.58987,2.996994c-0.4548,1.06189-1.22187,1.961166-2.196896,2.577995
			l-0.533169,0.352661c-0.828209,0.531967-1.684223,1.09404-2.311531,1.426544
			c-0.115772,0.069931-0.237179,0.129883-0.36145,0.181335c-0.200619,0.084808-0.371113,0.122253-0.570885,0.199448
			c-0.245644,0.057053-0.493305,0.095657-0.742195,0.113785h-0.210289c-0.217876,0-0.455963,0-0.665024-0.067566l-0.437515-0.093262
			H51.04792l-0.41938-0.171677c-0.107304-0.048233-0.211391-0.102966-0.313183-0.162064h-0.104969
			c-8.314682-4.756119-20.588226-11.094643-29.921511-16.915901c-2.749317-1.702614-5.384862-2.968346-7.420934-4.642906
			l-0.152355-0.132805l-0.095321-0.08567l-0.057052-0.057045l-0.133055-0.219925h-0.056736l-0.085703-0.09446
			c-0.348601-0.350647-0.66619-0.730545-0.951618-1.132668l-0.123121-0.160828l-0.142722-0.228676l-0.209391-0.351845
			l-0.105002-0.181038c-0.408533-0.734039-0.727004-1.512856-0.951633-2.32148
			c-0.226063-0.779663-0.343911-1.586502-0.351515-2.397491V72.088333c-0.014042-0.85479,0.15763-1.702362,0.503918-2.483192
			c0.18891-0.420517,0.446551-0.805672,0.760646-1.142593L10.726933,68.443565L10.726933,68.443565z"/>
	</g>
	<g>
		<path class="st13" d="M52.858494,127.94519l-34.179237-22.746208c-1.891319-1.528313-3.069566-3.76963-3.254698-6.194099
			l-2.29077-28.949951c0.194767-0.147408,1.947741-1.325386,2.178761-1.491753
			c1.530705-1.131195,2.448682-1.001633,3.922936-0.148613l34.976803,20.092842
			c1.788628,1.020332,3.254665,3.81179,3.254665,6.185005v27.641869c0.123104,1.54969-0.581402,3.04847-1.854717,3.940445
			c-0.927391,0.622078-2.058586,1.372772-2.698452,1.688599L52.858494,127.94519L52.858494,127.94519z"/>
	</g>
	<g>
		<path class="st6" d="M18.845369,105.003937L52.885414,127.6203c0.510307-0.279274,1.27039-0.769432,1.993629-1.242058
			l0.529358-0.353256c0.607407-0.384842,1.085289-0.944016,1.371582-1.603783
			c0.269886-0.661819,0.399479-1.371613,0.380463-2.086922V94.673424c-0.032429-1.209587-0.350082-2.39399-0.927361-3.458244
			c-0.486912-1.008934-1.244064-1.862022-2.18808-2.466187L19.086906,68.674004
			c-0.5343-0.362648-1.154287-0.581436-1.798281-0.630547c-0.662697,0.051224-1.289988,0.314972-1.789811,0.75164
			l-1.010983,0.695404l-1.038186,0.714142l2.271768,28.819252c0.11289,1.216614,0.468496,2.399284,1.047821,3.477264
			c0.48575,0.987625,1.209574,1.840965,2.104488,2.484955L18.845369,105.003937L18.845369,105.003937z M52.691246,128.184723
			l-34.179604-22.707596c-0.965944-0.701302-1.745623-1.627464-2.271721-2.698143
			c-0.616508-1.14904-0.994942-2.410675-1.112207-3.709183L12.81941,69.963127l0.12956-0.101509
			c0.101476-0.083595,0.667072-0.464401,1.195816-0.825851c0.528176-0.361763,0.927374-0.603317,0.992296-0.677338
			c0.602151-0.518776,1.356939-0.825256,2.151543-0.871223c0.747517,0.045967,1.471025,0.288658,2.095121,0.704826
			l34.976173,20.038399c1.038815,0.661819,1.873165,1.598557,2.411842,2.70784
			c0.616508,1.140259,0.956356,2.410645,0.990833,3.708237v27.643036c0.017853,0.796631-0.130726,1.587975-0.434837,2.326141
			c-0.336639,0.763008-0.891689,1.409302-1.595314,1.854401l-0.529041,0.343033
			c-0.815369,0.538391-1.66877,1.094666-2.206879,1.364311l-0.157047,0.073425l-0.138912-0.102646L52.691246,128.184723
			L52.691246,128.184723z"/>
	</g>
	<g>
		<path class="st1" d="M50.688202,127.805145L15.164554,107.41581c-2.002114-1.430138-3.210792-3.725273-3.254651-6.185036
			V72.744888c0-2.37413,1.465453-3.477234,3.254651-2.448402l35.533062,20.4002
			c1.99155,1.425987,3.193806,3.708298,3.244999,6.15667v28.504555C53.942616,127.732292,52.477745,128.835144,50.688202,127.805145
			L50.688202,127.805145z"/>
	</g>
	<g>
		<path class="st6" d="M15.303481,107.155212l35.523663,20.400475c0.338654,0.216118,0.72847,0.338341,1.130909,0.352097
			c0.255314,0.002052,0.506248-0.069046,0.723843-0.205025c0.231888-0.143257,0.423439-0.344795,0.556213-0.58345
			c0.285442-0.539215,0.422306-1.14344,0.399197-1.75293V96.853355c-0.031265-1.209846-0.349167-2.396324-0.927357-3.458504
			c-0.486946-1.006607-1.240856-1.859688-2.179928-2.466278L14.998171,70.528687
			c-0.342195-0.21022-0.730844-0.328384-1.132373-0.343025c-0.254131-0.005257-0.505067,0.062904-0.722344,0.194511
			c-0.232218,0.144142-0.423473,0.345047-0.556246,0.584297c-0.284278,0.549225-0.418215,1.16246-0.39013,1.780418v28.485886
			c0.03276,1.209526,0.351514,2.393959,0.927343,3.458183c0.487246,1.008972,1.244397,1.862938,2.188128,2.466255H15.303481
			L15.303481,107.155212z M50.539688,128.06572l-35.53215-20.4002c-1.03732-0.664711-1.870539-1.601707-2.410978-2.707771
			c-0.615595-1.141708-0.954547-2.41188-0.993163-3.707985V72.744888c-0.020764-0.712944,0.141257-1.418404,0.473771-2.049202
			c0.185997-0.322815,0.447149-0.596893,0.760078-0.797485c0.313512-0.190102,0.672048-0.289536,1.037903-0.287491
			c0.507995,0.015526,1.002812,0.163193,1.4374,0.426407l35.523979,20.399315
			c1.035824,0.665901,1.869297,1.602615,2.410931,2.707489c0.624947,1.139656,0.968006,2.410927,1.00135,3.709435v28.494011
			c0.022827,0.714172-0.143288,1.421638-0.481941,2.049202c-0.180756,0.328133-0.442207,0.60215-0.760994,0.798683
			c-0.309654,0.188339-0.666157,0.287521-1.028801,0.287521c-0.50798-0.014679-1.003395-0.162064-1.437386-0.427567V128.06572
			L50.539688,128.06572z"/>
	</g>
	<g>
		<polygon class="st1" points="33.644779,113.989471 31.670166,116.585281 29.129391,117.114609 19.37438,123.864922 
			19.37438,112.181824 18.549679,109.05703 19.37438,106.570915 33.070148,106.570915 33.644779,113.989471 		"/>
	</g>
	<g>
		<path class="st6" d="M28.128325,116.977455l-8.07486,4.951454l0.17663-9.565765
			c-0.005825-1.513672-0.981449-3.137985-2.431711-3.781097l-0.276077,15.677383
			c-0.016954,0.414436,0.209108,0.802208,0.576696,0.994926c0.155882,0.080475,0.534615,0.179276,0.711843,0.182518
			c0.220505-0.003242,0.594847-0.051476,0.775255-0.178391l12.964951-8.121651
			C30.632578,115.646492,29.311594,116.163002,28.128325,116.977455L28.128325,116.977455z"/>
	</g>
	<g>
		<path class="st14" d="M19.94936,95.981285l18.081341,10.543694v2.262383L19.94936,98.243668V95.981285L19.94936,95.981285z
			 M19.94936,84.51165l26.232807,15.272072v2.26239L19.94936,86.783386V84.51165L19.94936,84.51165z M19.94936,90.01091
			l26.232807,15.272011v2.262421L19.94936,92.282646V90.01091L19.94936,90.01091z"/>
	</g>
	<g>
		<path class="st1" d="M120.138458,158.710403l-34.378967-19.732208c-1.937492-1.384171-3.107033-3.605042-3.149696-5.98587
			v-27.56781c0-2.297806,1.418655-3.364929,3.149696-2.369469l34.388382,19.742729
			c1.927193,1.379799,3.090851,3.588654,3.140312,5.958084v27.586273
			C123.288185,158.639969,121.870697,159.707062,120.138458,158.710403L120.138458,158.710403z"/>
		<path class="st6" d="M121.387695,160.415039c-0.624023,0-1.27832-0.183594-1.913086-0.548828l-34.490723-19.802734
			c-2.271484-1.624023-3.657227-4.257812-3.707031-7.047852l-0.000488-27.591309c0-1.694824,0.639648-3.037109,1.754883-3.682129
			c0.988281-0.572266,2.225098-0.51416,3.392578,0.157227l34.5,19.814453c2.256836,1.615234,3.638672,4.237305,3.697266,7.013672
			v27.614258c0,1.695312-0.639648,3.037109-1.753906,3.682617C122.416016,160.285156,121.912109,160.415039,121.387695,160.415039z
			 M86.483398,137.856445l34.320312,19.698242c0.311523,0.178711,0.589844,0.240234,0.728516,0.161133
			c0.203125-0.118164,0.422852-0.597656,0.422852-1.374023v-27.585938c-0.040039-1.891602-0.985352-3.705078-2.532227-4.836914
			l-34.327637-19.70752c-0.311523-0.179199-0.590332-0.241211-0.729004-0.160645
			c-0.203613,0.117676-0.422852,0.597656-0.422852,1.373535v27.567871
			C83.977539,134.896484,84.925781,136.71875,86.483398,137.856445z"/>
	</g>
	<g>
		<path class="st7" d="M99.160728,144.988052l-25.634163-14.868195c-1.937775-1.38382-3.107567-3.605286-3.149696-5.98555
			l0.055008-11.152924l0.781105,0.395416l22.625748,11.819122c2.199791,1.317459,3.203789,2.929138,4.394646,5.202393
			c1.239655,2.301544,0.89518,4.26712,0.953674,6.881073L99.160728,144.988052L99.160728,144.988052z"/>
	</g>
	<g>
		<polygon class="st5" points="82.610077,115.310516 82.610077,108.972206 123.28875,132.458313 123.28875,138.796875 
			82.610077,115.310516 		"/>
		<path class="st5" d="M124.62207,141.106445l-43.345703-25.026367v-9.416992l43.345703,25.025391V141.106445z
			 M83.943359,114.541016l38.012695,21.946289v-3.259766L83.943359,111.28125V114.541016z"/>
	</g>
	<g>
		<polygon class="st15" points="92.696991,164.825287 102.121201,159.367844 105.80986,161.414108 89.909027,170.524551 
			89.138741,170.092575 92.696991,164.825287 		"/>
	</g>
	<g>
		<path class="st13" d="M57.225368,103.226448l30.484745,17.49234c2.84407,2.035759,4.558708,5.295967,4.623032,8.792778v43.251999
			c0.176979,2.207382-0.83548,4.34317-2.656891,5.604172c-1.328316,0.876236-2.921867,1.940735-3.838112,2.391663h-2.591087
			l-26.021687-14.928696V103.226448L57.225368,103.226448z"/>
	</g>
	<g>
		<path class="st13" d="M45.57592,103.772995c0.278706-0.211105,2.776505-1.885414,3.10754-2.138649
			c2.152157-1.593292,3.455036-1.407845,5.566544-0.199203l14.582714,8.367638v62.604858L48.9888,161.023132h-0.065804
			l-0.212334-0.131607l-0.093006-0.079254h-0.066055l-0.07925-0.081009v-0.197693
			c-0.915077-1.626633-1.421043-3.450317-1.475449-5.313568v-47.660904c-0.174835-1.491821,0.501839-2.954956,1.753841-3.786102
			H45.57592L45.57592,103.772995z"/>
	</g>
	<g>
		<path class="st9" d="M48.696934,104.703285l-0.570854,0.38456v0.266739l-1.434486,0.677025l-0.093006,0.171967
			c-0.155567,0.425522-0.228962,0.877647-0.212303,1.328606v44.499557c0.002926,0.673782,0.09565,1.344986,0.278107,1.991562
			c0.212933,0.73555,0.506561,1.443832,0.877926,2.113235c0,0.118164,0.145084,0.251572,0.21262,0.384872l0.079563,0.119644
			l0.079277,0.131866l0.332512,0.465591l0.371368,0.451279l0.11961,0.133331l0.106449,0.092407l0.199207,0.185699l0.212585,0.172546
			l0.26498,0.173477c0,0,8.937263,5.125732,19.312229,11.079758v0.089798c7.483543,4.298676,13.559174,7.793442,14.945992,8.604156
			c0.169006,0.086868,0.347717,0.154404,0.531654,0.199173l0.172256-0.091522
			c0.597519-0.278717,1.726631-1.036209,2.815697-1.741882l0.744308-0.491013c0.5121-0.317307,0.917976-0.780228,1.16951-1.328278
			c0.268188-0.674103,0.393906-1.397339,0.371712-2.123825v-43.13205c-0.03331-1.392639-0.396835-2.758682-1.063339-3.983765
			c-0.503639-1.075302-1.288246-1.99334-2.270576-2.656609l-29.024563-16.693085v-0.105255l-4.251354-2.44516
			c-0.438648-0.311195-0.941685-0.521202-1.473373-0.610962c-0.497429,0.08976-0.958622,0.320862-1.328289,0.663292
			L48.696934,104.703285L48.696934,104.703285z M46.028015,162.233261l-0.212585-0.200592l-0.119644-0.118164l-0.079533-0.079559
			l-0.106136-0.10614l-0.093006-0.081039l-0.119892-0.118134c-0.482258-0.488358-0.926826-1.012466-1.328323-1.56839
			l-0.160255-0.225754l-0.199177-0.305908l-0.291866-0.490784l-0.265228-0.371643
			c-0.563267-1.018326-1.009251-2.096619-1.32835-3.213776c-0.304115-1.082962-0.464088-2.198624-0.477818-3.32164v-44.472641
			c-0.021065-1.184464,0.220173-2.358917,0.703625-3.439827c0.27578-0.585464,0.647491-1.118881,1.102543-1.580109
			c0.338623-0.353577,0.729351-0.653313,1.154556-0.891113l2.923382-1.991867
			c1.213051-1.015648,2.733242-1.596481,4.316242-1.647362c1.424255,0.071915,2.803455,0.531685,3.985497,1.328323
			c11.184792,6.417206,22.261337,12.85611,33.461052,19.282097c1.848297,1.106667,3.35611,2.701698,4.356613,4.611107
			c1.041115,1.933365,1.611427,4.085838,1.660797,6.281219v43.251999c0.024025,1.422745-0.252945,2.834702-0.809761,4.143997
			c-0.63842,1.476303-1.707619,2.727112-3.069,3.585159l-0.74427,0.492462c-1.142593,0.744614-2.324409,1.514648-3.202026,1.978775
			c-0.152985,0.073105-0.314377,0.135971-0.477875,0.185699c-0.255882,0.107605-0.517899,0.200577-0.783165,0.278671
			c-0.335434,0.078995-0.678497,0.133362-1.022972,0.159943h-0.29187c-0.305656,0-0.624695,0-0.93-0.092697l-0.597527-0.133331
			h-0.332512c-0.158806-0.079285-0.384811-0.145096-0.570824-0.224594l-0.424919-0.212921l-0.146843-0.080734L46.028015,162.233261
			L46.028015,162.233261z"/>
	</g>
	<g>
		<path class="st16" d="M68.832718,167.929047l-15.367352-10.212662c-2.444019-1.620178-4.370113-9.416901-4.635063-12.777451
			l-3.254383-41.179382c0.278706-0.197662,2.776505-1.871971,3.10754-2.125206
			c2.165348-1.593292,3.466999-1.407845,5.566544-0.199203l14.582714,8.367638V167.929047L68.832718,167.929047z"/>
	</g>
	<g>
		<path class="st16" d="M85.797806,180.759399l-28.572437-18.988495v-58.544456l30.484745,17.49234
			c2.84407,2.035759,4.558708,5.295967,4.623032,8.792778v43.251999c0.176979,2.207382-0.83548,4.34317-2.656891,5.604172
			c-1.328316,0.876236-2.921867,1.940735-3.838112,2.391663H85.797806L85.797806,180.759399z"/>
	</g>
	<g>
		<path class="st9" d="M57.225368,161.278137l28.585598,18.989944c0.730804-0.386322,1.806137-1.089066,2.829147-1.766937
			l0.757751-0.493088c0.859474-0.551239,1.533569-1.345001,1.939537-2.282562
			c0.390701-0.937027,0.580772-1.948013,0.557129-2.961929v-43.251999c-0.046539-1.719017-0.501869-3.404121-1.328323-4.913765
			c-0.69223-1.430367-1.762909-2.643166-3.094437-3.507301l-30.246403-17.37191v-0.992844l30.710835,17.635338
			c1.472176,0.941719,2.656578,2.268845,3.426605,3.838402c0.876198,1.638321,1.35817,3.456482,1.409302,5.31208v43.251999
			c0.016434,1.13208-0.195045,2.25827-0.624626,3.306427c-0.467049,1.093475-1.254898,2.019104-2.258293,2.655457
			l-0.758034,0.492767c-1.154335,0.757751-2.363014,1.553192-3.134239,1.938095l-0.226311,0.094131l-0.197693-0.131851
			l-0.013481-0.014679L57.225368,162.27478V161.278137L57.225368,161.278137z"/>
	</g>
	<g>
		<path class="st9" d="M53.679688,157.370438l15.15303,10.066696v0.995804l-15.605125-10.37027
			c-1.379765-0.98996-2.492256-2.30336-3.241253-3.826477c-0.86417-1.646149-1.434738-7.504532-1.581585-9.297256
			l-3.267796-41.365044l0.174015-0.199211l1.726574-1.115669l1.421043-0.955475
			c0.85104-0.741348,1.927544-1.177094,3.055241-1.235596c1.063313,0.057053,2.092495,0.401527,2.976276,0.996094
			l14.342609,8.236313v0.992249l-14.79533-8.497734c-0.760677-0.50798-1.638321-0.814774-2.550159-0.889893
			c-0.94521,0.070496-1.840706,0.447716-2.550755,1.075592l-1.43449,0.982361l-1.473969,1.011047l3.227493,40.937729
			c0.133057,1.647385,0.677025,7.384964,1.487099,8.926178C51.416702,155.238144,52.426239,156.452393,53.679688,157.370438
			L53.679688,157.370438z"/>
	</g>
	<g>
		<path class="st17" d="M68.832718,172.520218L48.4454,160.823929c-2.849895-2.032196-4.568031-5.292465-4.636761-8.792191
			v-44.472641c0-3.372574,2.086349-4.940681,4.636761-3.478996l20.387318,11.700928V172.520218L68.832718,172.520218z"/>
	</g>
	<g>
		<path class="st17" d="M82.703369,180.560287l-25.478001-14.616989v-56.738289l25.478001,14.622795
			c2.866585,2.038651,4.584465,5.327255,4.621902,8.8452v44.47258c0,3.374039-2.071175,4.942139-4.621902,3.481964V180.560287
			L82.703369,180.560287z"/>
	</g>
	<g>
		<path class="st9" d="M57.225368,165.48793l25.702869,14.751816c0.483452,0.303864,1.037613,0.4729,1.608185,0.493942
			c0.364098,0,0.723557-0.101486,1.036491-0.29335c0.326622-0.208176,0.596008-0.495697,0.783157-0.8358
			c0.401558-0.76503,0.594528-1.621918,0.557411-2.486084v-44.44545c-0.05526-1.71756-0.50943-3.40123-1.328575-4.913795
			c-0.699562-1.428635-1.774902-2.640236-3.107887-3.507362l-25.251652-14.486214v-1.003395l25.702869,14.745331
			c1.470726,0.946663,2.65226,2.279388,3.414383,3.853355c0.889641,1.632744,1.376526,3.453529,1.421333,5.31208v44.460342
			c0.032745,1.012451-0.200623,2.014404-0.678505,2.908676c-0.260567,0.461227-0.630234,0.853714-1.07534,1.140884
			c-0.444534,0.268188-0.956917,0.405914-1.473686,0.400055c-0.723488-0.014618-1.428596-0.222855-2.0457-0.597778v-0.053772
			l-25.265354-14.50061V165.48793L57.225368,165.48793z"/>
	</g>
	<g>
		<path class="st9" d="M48.671463,160.492889l20.161255,11.571426v0.942291L48.232815,161.18364
			c-1.478348-0.946655-2.667439-2.279633-3.440113-3.852127c-0.881989-1.63652-1.364559-3.456482-1.407852-5.313522v-44.458893
			c-0.018135-0.994324,0.219921-1.978134,0.690216-2.855812c0.257923-0.46003,0.627556-0.849274,1.075336-1.129395
			c0.443657-0.269669,0.954277-0.411797,1.475388-0.411797c0.723209,0.022514,1.428913,0.233681,2.045673,0.610901
			l20.161255,11.566452v1.003395l-20.613632-11.825226c-0.48811-0.301216-1.048134-0.470291-1.620499-0.491356
			c-0.360569-0.004684-0.714146,0.091248-1.022667,0.278458c-0.3293,0.211418-0.60363,0.497177-0.796631,0.836967
			c-0.39542,0.767128-0.586945,1.6222-0.558891,2.484985v44.405067c0.055286,1.719025,0.510941,3.401199,1.32832,4.915192
			C46.242397,158.393417,47.323906,159.621674,48.671463,160.492889L48.671463,160.492889z"/>
	</g>
	<g>
		<path class="st12" d="M49.234161,110.307236l31.032524,17.905899c0.698364,0.402969,1.269531,1.493835,1.269531,2.424652v7.697037
			c0,0.930862-0.571167,1.362518-1.269531,0.959503l-31.032524-17.905571c-0.698368-0.403008-1.269505-1.494118-1.269505-2.425003
			v-7.696663C47.964657,110.336205,48.535793,109.904228,49.234161,110.307236L49.234161,110.307236z"/>
	</g>
	<g>
		<path class="st18" d="M51.896313,128.616394c1.882519,1.010437,3.408566,3.732254,3.408566,6.078857
			c0,2.346954-1.526047,3.430481-3.408566,2.420074c-1.882202-1.010422-3.408154-3.731979-3.408154-6.078903
			S50.014111,127.606285,51.896313,128.616394L51.896313,128.616394z M73.990402,165.60524l0.008781,0.004684
			c0.124275,2.272598,1.598778,4.805527,3.399719,5.772079c1.800911,0.966843,3.275414,0.016693,3.39975-2.122589l0.010803,0.005829
			V158.58786l-0.003212-0.001724c-0.036873-2.326706-1.548218-4.994156-3.407341-5.992035
			c-1.859406-0.997864-3.370781,0.046814-3.407623,2.334076l-0.000877-0.000626V165.60524L73.990402,165.60524z
			 M68.886559,158.314163c1.882172,1.010422,3.408218,3.732239,3.408218,6.078842c0,2.346924-1.526047,3.43045-3.408218,2.420029
			c-1.882523-1.010391-3.408501-3.731949-3.408501-6.078873C65.478058,158.387268,67.004036,157.304001,68.886559,158.314163
			L68.886559,158.314163z M68.886559,148.025177c1.882172,1.010422,3.408218,3.731918,3.408218,6.078842
			s-1.526047,3.430161-3.408218,2.420059c-1.882523-1.010406-3.408501-3.732254-3.408501-6.078888
			C65.478058,148.098267,67.004036,147.01474,68.886559,148.025177L68.886559,148.025177z M60.408691,153.763885
			c1.882484,1.010422,3.408531,3.731979,3.408531,6.078903s-1.526047,3.43013-3.408531,2.419998
			c-1.882206-1.010406-3.408188-3.732224-3.408188-6.078827C57.000504,153.837036,58.526485,152.75351,60.408691,153.763885
			L60.408691,153.763885z M60.408691,143.474655c1.882484,1.010422,3.408531,3.731918,3.408531,6.078842
			s-1.526047,3.430481-3.408531,2.420059c-1.882206-1.010406-3.408188-3.731979-3.408188-6.078903
			S58.526485,142.464218,60.408691,143.474655L60.408691,143.474655z M51.896313,149.194977
			c1.882519,1.010422,3.408566,3.731918,3.408566,6.078842s-1.526047,3.430191-3.408566,2.420059
			c-1.882202-1.010422-3.408154-3.732269-3.408154-6.078903C48.488159,149.268051,50.014111,148.184555,51.896313,149.194977
			L51.896313,149.194977z M51.896313,138.905655c1.882519,1.010406,3.408566,3.73201,3.408566,6.078934
			c0,2.346893-1.526047,3.430374-3.408566,2.419968c-1.882202-1.010422-3.408154-3.731918-3.408154-6.078842
			S50.014111,137.895264,51.896313,138.905655L51.896313,138.905655z M77.398903,142.30481
			c1.88224,1.010437,3.408218,3.731964,3.408218,6.078888s-1.525978,3.430481-3.408218,2.420074
			c-1.882515-1.010422-3.408501-3.731979-3.408501-6.078934C73.990402,142.377945,75.516388,141.294388,77.398903,142.30481
			L77.398903,142.30481z M68.886559,137.735886c1.882172,1.010391,3.408218,3.731979,3.408218,6.078873
			s-1.526047,3.43042-3.408218,2.419998c-1.882523-1.010406-3.408501-3.731949-3.408501-6.078842
			C65.478058,137.80899,67.004036,136.725479,68.886559,137.735886L68.886559,137.735886z M60.408691,133.185623
			c1.882484,1.010132,3.408531,3.731964,3.408531,6.078888c0,2.346619-1.526047,3.430145-3.408531,2.419724
			c-1.882206-1.010391-3.408188-3.731949-3.408188-6.078873C57.000504,133.258759,58.526485,132.175201,60.408691,133.185623
			L60.408691,133.185623z"/>
		<path class="st19" d="M78.747559,172.240234c-0.500488,0-1.035645-0.145508-1.575684-0.435547
			c-1.876465-1.007812-3.40332-3.507812-3.631836-5.900391l-0.020996-0.011719l-0.008789-0.287109v-10.677734
			c0.021973-1.336914,0.519043-2.383789,1.36377-2.879883c0.777344-0.456055,1.753906-0.412109,2.751953,0.123047
			c1.938965,1.041016,3.502441,3.691406,3.649414,6.129883l0.010742,0.006836l0.003418,0.280273v11.486328l-0.10791-0.058594
			c-0.192383,0.892578-0.640625,1.567383-1.299316,1.935547C79.537598,172.144531,79.153809,172.240234,78.747559,172.240234z
			 M74.470215,165.4375l0.008301,0.146484c0.116699,2.128906,1.499023,4.490234,3.147461,5.375
			c0.680176,0.365234,1.314453,0.419922,1.788086,0.154297c0.530273-0.296875,0.852051-0.964844,0.905762-1.881836
			l0.009766-0.169922l-0.003418-10.467773c-0.03418-2.160156-1.449219-4.661133-3.154297-5.577148
			c-0.692383-0.370117-1.334961-0.419922-1.811523-0.140625c-0.549316,0.322266-0.873047,1.073242-0.88916,2.05957
			L74.470215,165.4375z M70.234863,167.672852c-0.499512,0-1.03418-0.146484-1.575195-0.436523
			c-2.053223-1.102539-3.661621-3.958008-3.661621-6.501953c0-1.366211,0.491211-2.444336,1.348145-2.957031
			c0.779297-0.46582,1.76123-0.425781,2.767578,0.114258c2.052734,1.101562,3.661133,3.957031,3.661133,6.500977
			c0,1.367188-0.491211,2.444336-1.348145,2.957031C71.066895,167.56543,70.663574,167.672852,70.234863,167.672852z
			 M67.540039,158.416992c-0.258301,0-0.495117,0.061523-0.700684,0.18457c-0.560059,0.334961-0.881348,1.112305-0.881348,2.132812
			c0,2.18457,1.415527,4.72168,3.155762,5.65625c0.695312,0.373047,1.342285,0.420898,1.819824,0.135742
			c0.560059-0.334961,0.881348-1.113281,0.881348-2.133789c0-2.18457-1.415527-4.72168-3.155273-5.655273l0,0
			C68.263184,158.524414,67.882324,158.416992,67.540039,158.416992z M61.757324,163.12207
			c-0.5,0-1.03418-0.146484-1.575684-0.436523c-2.053223-1.102539-3.661133-3.958008-3.661133-6.501953
			c0-1.366211,0.491211-2.443359,1.347656-2.956055c0.779297-0.467773,1.76123-0.425781,2.767578,0.113281l0,0
			c2.053223,1.102539,3.661621,3.958008,3.661621,6.501953c0,1.366211-0.491211,2.443359-1.348145,2.956055
			C62.589355,163.014648,62.186035,163.12207,61.757324,163.12207z M59.0625,153.867188
			c-0.258789,0-0.495605,0.060547-0.701172,0.183594c-0.55957,0.334961-0.880859,1.112305-0.880859,2.132812
			c0,2.18457,1.415527,4.72168,3.155273,5.65625c0.695801,0.374023,1.341797,0.420898,1.820801,0.135742
			c0.55957-0.334961,0.880859-1.112305,0.880859-2.132812c0-2.18457-1.415527-4.72168-3.155762-5.65625
			C59.785156,153.973633,59.404785,153.867188,59.0625,153.867188z M53.245117,158.553711
			c-0.5,0-1.03418-0.146484-1.575684-0.436523c-2.053223-1.102539-3.661133-3.958008-3.661133-6.501953
			c0-1.367188,0.491211-2.445312,1.348145-2.957031c0.779297-0.46582,1.761719-0.425781,2.76709,0.114258
			c2.052734,1.101562,3.661133,3.957031,3.661133,6.500977c0,1.367188-0.491211,2.444336-1.348145,2.957031
			C54.07666,158.446289,53.673828,158.553711,53.245117,158.553711z M50.549805,149.297852
			c-0.258301,0-0.495117,0.061523-0.700684,0.183594c-0.55957,0.334961-0.880859,1.113281-0.880859,2.133789
			c0,2.18457,1.415527,4.72168,3.155273,5.65625c0.696289,0.374023,1.341309,0.421875,1.820312,0.135742
			c0.55957-0.334961,0.880859-1.113281,0.880859-2.133789c0-2.18457-1.415527-4.72168-3.155273-5.655273l0,0
			C51.272949,149.405273,50.89209,149.297852,50.549805,149.297852z M70.234863,157.383789
			c-0.499512,0-1.03418-0.146484-1.575195-0.436523c-2.053223-1.102539-3.661621-3.958008-3.661621-6.501953
			c0-1.366211,0.491211-2.444336,1.348145-2.957031c0.779297-0.46582,1.76123-0.426758,2.767578,0.114258l0,0
			c2.052734,1.101562,3.661133,3.958008,3.661133,6.501953c0,1.366211-0.491211,2.443359-1.348145,2.956055
			C71.066895,157.276367,70.663574,157.383789,70.234863,157.383789z M67.540039,148.12793
			c-0.258301,0-0.495117,0.061523-0.700684,0.18457c-0.560059,0.334961-0.881348,1.112305-0.881348,2.132812
			c0,2.18457,1.415527,4.72168,3.155762,5.65625c0.697266,0.375,1.342773,0.421875,1.820312,0.135742
			c0.55957-0.334961,0.880859-1.112305,0.880859-2.132812c0-2.185547-1.415527-4.722656-3.155273-5.65625l0,0
			C68.263184,148.235352,67.882324,148.12793,67.540039,148.12793z M61.757324,152.833008
			c-0.5,0-1.034668-0.145508-1.575684-0.436523c-2.053223-1.102539-3.661133-3.958008-3.661133-6.501953
			c0-1.367188,0.491211-2.444336,1.348633-2.957031c0.77832-0.46582,1.76123-0.426758,2.766602,0.114258
			c2.053223,1.102539,3.661621,3.958008,3.661621,6.501953c0,1.366211-0.491699,2.444336-1.348633,2.957031
			C62.589355,152.725586,62.186035,152.833008,61.757324,152.833008z M59.0625,143.577148
			c-0.258789,0-0.495117,0.061523-0.700684,0.18457c-0.560059,0.334961-0.881348,1.112305-0.881348,2.132812
			c0,2.18457,1.415527,4.72168,3.155273,5.65625c0.694824,0.374023,1.342285,0.421875,1.820312,0.135742
			c0.560059-0.334961,0.881348-1.112305,0.881348-2.132812c0-2.18457-1.415527-4.72168-3.155762-5.65625
			C59.785156,143.68457,59.404785,143.577148,59.0625,143.577148z M78.747559,151.663086
			c-0.5,0-1.034668-0.145508-1.575684-0.436523c-2.053223-1.102539-3.661621-3.958008-3.661621-6.501953
			c0-1.366211,0.491699-2.444336,1.348633-2.957031c0.77832-0.46582,1.762207-0.426758,2.76709,0.114258
			c2.053223,1.102539,3.661133,3.958008,3.661133,6.501953c0,1.367188-0.491211,2.444336-1.348633,2.957031
			C79.579102,151.555664,79.17627,151.663086,78.747559,151.663086z M76.052246,142.407227
			c-0.258301,0-0.495117,0.061523-0.700684,0.18457c-0.560059,0.334961-0.881348,1.112305-0.881348,2.132812
			c0,2.18457,1.415527,4.72168,3.155762,5.65625c0.695801,0.374023,1.341309,0.420898,1.819824,0.135742
			c0.560059-0.334961,0.881348-1.112305,0.881348-2.132812c0-2.18457-1.415527-4.72168-3.155273-5.65625
			C76.775391,142.514648,76.39502,142.407227,76.052246,142.407227z M53.245117,148.263672
			c-0.5,0-1.034668-0.145508-1.575684-0.436523c-2.052734-1.101562-3.661133-3.957031-3.661133-6.500977
			c0-1.367188,0.491211-2.444336,1.348145-2.957031c0.779297-0.467773,1.76123-0.426758,2.76709,0.113281l0,0
			c2.053223,1.102539,3.661133,3.958008,3.661133,6.501953c0,1.367188-0.491211,2.444336-1.348633,2.957031
			C54.07666,148.15625,53.673828,148.263672,53.245117,148.263672z M50.550293,139.008789
			c-0.258301,0-0.495117,0.060547-0.701172,0.183594c-0.55957,0.334961-0.880859,1.113281-0.880859,2.133789
			c0,2.18457,1.415527,4.72168,3.155273,5.655273c0.695801,0.373047,1.341309,0.420898,1.819824,0.135742
			c0.560059-0.334961,0.881348-1.112305,0.881348-2.132812c0-2.18457-1.415527-4.72168-3.155273-5.65625l0,0
			C51.272949,139.115234,50.892578,139.008789,50.550293,139.008789z M70.23584,147.09375
			c-0.5,0-1.035156-0.145508-1.576172-0.436523c-2.053223-1.100586-3.661621-3.957031-3.661621-6.500977
			c0-1.367188,0.491211-2.444336,1.348145-2.957031c0.780273-0.46582,1.763672-0.425781,2.767578,0.114258
			c2.052734,1.101562,3.661133,3.957031,3.661133,6.500977c0,1.367188-0.491699,2.445312-1.348633,2.957031
			C71.066895,146.986328,70.664062,147.09375,70.23584,147.09375z M67.539551,137.838867
			c-0.258301,0-0.495117,0.061523-0.700684,0.18457c-0.55957,0.333984-0.880859,1.112305-0.880859,2.132812
			c0,2.185547,1.415527,4.72168,3.155762,5.655273c0.695312,0.374023,1.342285,0.420898,1.819824,0.136719
			c0.560059-0.334961,0.881348-1.113281,0.881348-2.133789c0-2.18457-1.415527-4.72168-3.155273-5.655273l0,0
			C68.262695,137.946289,67.882324,137.838867,67.539551,137.838867z M61.757324,142.543945
			c-0.5,0-1.03418-0.146484-1.575684-0.436523c-2.053223-1.102539-3.661133-3.958008-3.661133-6.501953
			c0-1.367188,0.491211-2.444336,1.348633-2.957031c0.77832-0.466797,1.76123-0.426758,2.766602,0.114258
			c2.053223,1.101562,3.661621,3.957031,3.661621,6.501953c0,1.366211-0.491211,2.443359-1.348145,2.956055
			C62.589355,142.436523,62.186035,142.543945,61.757324,142.543945z M59.0625,133.288086
			c-0.258789,0-0.495117,0.061523-0.700684,0.18457c-0.560059,0.334961-0.881348,1.112305-0.881348,2.132812
			c0,2.18457,1.415527,4.72168,3.155273,5.65625c0.695801,0.374023,1.341797,0.421875,1.820801,0.135742
			c0.55957-0.334961,0.880859-1.112305,0.880859-2.132812c0-2.185547-1.415527-4.722656-3.155762-5.65625l0,0
			C59.785156,133.395508,59.404785,133.288086,59.0625,133.288086z M53.245117,137.974609
			c-0.5,0-1.034668-0.145508-1.575684-0.436523c-2.053223-1.102539-3.661133-3.958008-3.661133-6.501953
			c0-1.366211,0.491211-2.443359,1.347656-2.956055c0.77832-0.46875,1.761719-0.425781,2.767578,0.113281l0,0
			c2.053223,1.102539,3.661133,3.958008,3.661133,6.501953c0,1.367188-0.491211,2.444336-1.348633,2.957031
			C54.07666,137.867188,53.673828,137.974609,53.245117,137.974609z M50.550293,128.719727
			c-0.258789,0-0.495605,0.060547-0.701172,0.183594c-0.55957,0.334961-0.880859,1.112305-0.880859,2.132812
			c0,2.18457,1.415527,4.72168,3.155273,5.65625c0.695801,0.373047,1.341309,0.421875,1.819824,0.135742
			c0.560059-0.334961,0.881348-1.112305,0.881348-2.132812c0-2.18457-1.415527-4.72168-3.155273-5.65625
			C51.272949,128.826172,50.892578,128.719727,50.550293,128.719727z"/>
	</g>
</g>
</svg>
