<?xml version="1.0" encoding="utf-8"?>
<!-- Generator: Adobe Illustrator 24.2.1, SVG Export Plug-In . SVG Version: 6.00 Build 0)  -->
<svg version="1.1" id="Layer_1" xmlns="http://www.w3.org/2000/svg" xmlns:xlink="http://www.w3.org/1999/xlink" x="0px" y="0px"
	 viewBox="0 0 182 240" style="enable-background:new 0 0 182 240;" xml:space="preserve">
<style type="text/css">
	.st0{fill-rule:evenodd;clip-rule:evenodd;fill:#B3B4B4;}
	.st1{fill-rule:evenodd;clip-rule:evenodd;fill:#FFFFFF;}
	.st2{fill-rule:evenodd;clip-rule:evenodd;fill:#F6F6F6;}
	.st3{fill-rule:evenodd;clip-rule:evenodd;fill:#EBECEB;}
	.st4{fill-rule:evenodd;clip-rule:evenodd;fill:#FFFFFE;}
	.st5{fill-rule:evenodd;clip-rule:evenodd;fill:#E3E4E3;}
	.st6{fill-rule:evenodd;clip-rule:evenodd;fill:#F0F1EE;}
	.st7{fill-rule:evenodd;clip-rule:evenodd;fill:#6E2CC4;}
	.st8{fill-rule:evenodd;clip-rule:evenodd;fill:#A06CE3;}
	.st9{fill:#EAEAE8;}
	.st10{clip-path:url(#SVGID_2_);}
	.st11{fill-rule:evenodd;clip-rule:evenodd;fill:#ED4C6F;}
	.st12{fill-rule:evenodd;clip-rule:evenodd;fill:#2EBCE3;}
	.st13{fill-rule:evenodd;clip-rule:evenodd;fill:#F4B728;}
	.st14{clip-path:url(#SVGID_2_);fill:#F0F1EE;}
	.st15{clip-path:url(#SVGID_2_);fill-rule:evenodd;clip-rule:evenodd;fill:#F0F1EE;}
	.st16{fill-rule:evenodd;clip-rule:evenodd;fill:#CFCEC9;}
	.st17{fill:#FFFFFF;}
	.st18{fill:#D83C5C;}
	.st19{fill:#F5CECC;}
	.st20{fill:none;stroke:#D83C5C;stroke-width:0.719;stroke-miterlimit:10;}
	.st21{fill:#5BAA00;}
	.st22{fill:#93CE11;}
	.st23{fill:#5EAB11;}
	.st24{fill-rule:evenodd;clip-rule:evenodd;fill:#E5EDD0;}
	.st25{fill-rule:evenodd;clip-rule:evenodd;fill:#FFFFFF;stroke:#5BAA00;stroke-width:0.6642;stroke-miterlimit:10;}
	
		.st26{fill-rule:evenodd;clip-rule:evenodd;fill:#93CE11;stroke:#5BAA00;stroke-width:0.6642;stroke-linecap:round;stroke-linejoin:round;stroke-miterlimit:10;}
	.st27{fill-rule:evenodd;clip-rule:evenodd;fill:#E5EDD0;stroke:#5BAA00;stroke-width:0.6642;stroke-miterlimit:10;}
	.st28{fill-rule:evenodd;clip-rule:evenodd;fill:#D83C5C;}
	.st29{fill-rule:evenodd;clip-rule:evenodd;fill:#5BAA00;}
</style>
<g>
	<path class="st0" d="M177.9,61c-0.6-1.2-1.5-2.2-2.5-2.9l-0.1,0c-0.1-0.1-0.2-0.1-0.3-0.2l-72.3-41.7l-0.1-0.1
		c-0.1,0-0.1-0.1-0.2-0.1c-1.3-0.7-2.8-1-4.5-0.8c-1.5,0.2-3.1,0.7-4.8,1.6l-7.7,4.3c-0.4,0.2-0.7,0.5-0.9,0.9l-0.1,0.2
		c-0.2,0.4-0.3,0.7-0.3,1.1v66.8c0,0.2,0,0.3,0.1,0.5c0,0.1,0,0.1,0.1,0.2c0,0,0,0,0,0c0,0.1,0.1,0.2,0.1,0.3c0.2,0.4,0.6,0.8,1,1
		l0.7,0.4l1,0.6l54.8,31.6v0l10.6,6.1l3.9,2.2l0.3,0.2h0l0.1,0.1l0.1,0.1l0.8,0.5c0.3,0.2,0.6,0.2,0.8,0.3c0.1,0,0.2,0,0.3,0
		s0.2,0,0.3,0c0.3,0,0.6-0.1,0.8-0.3l1.2-0.7l6.5-3.6c3-1.7,5.7-4.4,7.7-7.5c2-3.1,3.2-6.6,3.2-9.7l0.2-47.5
		C178.7,63.5,178.4,62.1,177.9,61z M158.9,129.6L158.9,129.6l-0.6-0.3l-3.1-1.8l-0.4-0.2l-0.2-0.1l-9.5-5.5l-1.9-1.1l-1.3-0.8
		L89.6,89.5L89,89.2v0h0L88.7,89V24.6l0.1-0.1l6.6-3.7c1.1-0.6,2.2-1,3.1-1.1c0.7-0.1,1.3,0,1.8,0.2c0.1,0.1,0.2,0.1,0.3,0.2
		l68.3,39.4l0.3,0.2l0.3,0.2l3.2,1.8l0.2,0.1c0,0,0.1,0,0.1,0.1c0.1,0,0.1,0.1,0.2,0.1c0,0,0,0,0.1,0c0.3,0.2,0.5,0.5,0.7,0.8
		c0.3,0.6,0.4,1.3,0.4,2.1l-0.2,47.5c0,2.3-1,4.9-2.5,7.3c-1.6,2.5-3.7,4.7-6.1,6L158.9,129.6z"/>
	<path class="st1" d="M95.1,59.4l63.1,39.2L174.1,60l-72.5-41.8l-0.1-0.1c-1.8-1-4.4-0.8-7.2,0.8l-7.7,4.3l-0.2,0.3v30.1L95.1,59.4z
		"/>
	<path class="st0" d="M174.2,59.7C174.2,59.7,174.2,59.7,174.2,59.7l-72.4-41.8l-0.1-0.1l-0.4-0.2v0c-0.9-0.4-1.9-0.5-3-0.4
		c-1.2,0.1-2.6,0.6-4,1.4L86.5,23l-0.1,0.1l0,0.1l-0.1,0.2l0,0.1v67.3l0.3-0.2l0.1-0.1l0.1-0.1h0l0.3-0.2l2-1.1h0l0,0l0.6-0.3
		l4.6-2.6c2.7-1.5,5.2-4,7-6.8c0.9-1.4,1.6-2.8,2.1-4.2c0.6-1.5,0.9-3.1,0.9-4.5l0-5.7V65L135,77l19.8,7.7l0.2,0.1l0.4,0.2l2.7,1.1
		l0.2,0.1l0.1-0.2l0,0l0.5-0.8l0,0L173.1,62l0.3-0.4l0.8-1.2l0.2-0.2l0.1-0.2l0,0L174.2,59.7z M172.6,61.7l-13.7,22.3l0,0l-0.5,0.9
		l-0.3,0.5l-2.8-1.1l-0.4-0.2l-0.2-0.1L131.4,75L104,64.2l-0.4-0.3v0.7l0,6.1c0,1.3-0.3,2.6-0.7,4c-0.5,1.5-1.2,3-2.1,4.4
		c-1.7,2.7-4.1,5.2-6.8,6.6l-4.3,2.4L89,88.6l-0.4,0.2l-0.2,0.1l-1.7,1V23.6l0.1-0.1l0.1,0l7.6-4.3c1.4-0.8,2.7-1.2,3.8-1.3
		c1.2-0.1,2.2,0,3.1,0.5l0.1,0.1h0L172,59.1l0.6,0.4c0,0,0,0,0,0l1.1,0.6l0,0L172.6,61.7z M158.4,85l-0.3,0.5l-2.8-1.1l-0.4-0.2
		l-0.2-0.1L131.4,75L104,64.2l-0.4-0.3v0.7l0,6.1c0,1.3-0.3,2.6-0.7,4c-0.5,1.5-1.2,3-2.1,4.4c-1.7,2.7-4.1,5.2-6.8,6.6l-4.3,2.4
		L89,88.6l-0.4,0.2l-0.2,0.1l0.2,0.1l0.3,0.2l0,0l0.6-0.3l4.6-2.6c2.7-1.5,5.2-4,7-6.8c0.9-1.4,1.6-2.8,2.1-4.2
		c0.6-1.5,0.9-3.1,0.9-4.5l0-5.7V65L135,77l19.8,7.7l0.2,0.1l0.4,0.2l2.7,1.1l0.2,0.1l0.1-0.2l0,0l0.5-0.8v-1.1L158.4,85z"/>
	<path class="st0" d="M161,131.3c0-0.1-0.1-0.2-0.1-0.2c0-0.1-0.1-0.2-0.2-0.2c-0.2-0.3-0.5-0.5-0.8-0.7l-1-0.6l0,0l-0.5-0.3
		l-3.1-1.8l-0.4-0.2l-0.2-0.1l-9.5-5.5l-1.9-1.1l-1.3-0.8L89.6,89.5L89,89.2v0h0L88.7,89l-0.2-0.1l-1.2-0.7
		c-0.2-0.1-0.3-0.2-0.5-0.2c0,0-0.1,0-0.1,0c0,0-0.1,0-0.1,0c-0.1,0-0.2,0-0.3,0h-0.1c-0.4,0-0.8,0.1-1.1,0.3l-0.8,0.5l-25,14.4
		l-41.8,24.1c-0.7,0.4-1.1,1.2-1.1,1.9v49.5c0,2,0.3,3.7,1,5.1c0.7,1.6,1.7,2.8,2.9,3.5c0.1,0.1,0.2,0.2,0.4,0.2l72.7,41.8
		c1.2,0.7,2.5,1,3.9,1c1.3-0.1,2.6-0.5,4-1.3l50.5-29.3c2.7-1.6,5.1-4.4,6.8-7.7c1.7-3.2,2.7-6.9,2.7-10.3v-49.5
		C161.2,131.9,161.1,131.6,161,131.3z M21.1,130.2l0.2-0.1l0.1-0.1l0,0l37.7-21.8l27-15.6l1,0.6l54.8,31.6v0l10.6,6.1l3.9,2.2
		l0.3,0.2h0v48.2c0,2.7-0.8,5.7-2.2,8.3c-1.3,2.6-3.2,4.7-5.1,5.9l-47.9,27.8l-2.6,1.5c-0.7,0.4-1.4,0.6-2,0.7c-0.4,0-0.8,0-1.1-0.2
		c0,0-0.1,0-0.1,0c-0.1-0.1-0.2-0.1-0.3-0.2l-0.1,0l-2.4-1.4l-0.3-0.2l-0.5-0.3l-69.3-39.9c0,0-0.1-0.1-0.2-0.1
		c-0.5-0.3-0.9-0.8-1.2-1.5c-0.4-0.9-0.6-2-0.6-3.3v-48.2l0,0l0.1-0.1l0,0L21.1,130.2z"/>
	<path class="st2" d="M18.8,129.2v49.5c0,3.4,1.1,5.8,2.9,6.8l0,0h0l68.9,39.8c2.2,1.3,3.7,1.9,6.1,2.2l26.3-21.6
		c4.7-2.7,8.5-9.9,8.5-16.1v-41.5l-39.8,22.1L18.8,129.2L18.8,129.2z"/>
	<path class="st0" d="M131.4,148.1l-1.3,0.8l-6.6,3.7l-16.2,9.1l-1.1,0.6l-13.2,7.4l-1.2,0.7l0,0l-0.2-0.1v0l-1.1-0.6l-31.2-17.9
		l-3.9-2.2l-33.9-19.4l-2.1-1.2l-0.4-0.2l-0.1-0.1l-0.3-0.2v50.2l0.1,0.5h0l0,0.3l-0.1-0.7c0,1.7,0.3,3.1,0.8,4.3l-0.2-1.1l0.2,0.8
		l0.4,0.7l-0.4-0.5c0.4,1,1.1,1.9,1.8,2.4c0.1,0.1,0.3,0.2,0.4,0.3l-0.4-0.4l0.1,0l0.3,0.4h0l0,0L22,186l72.7,42l0.3,0.2l0.1-0.4
		l0.1-0.3l0.1-0.2l0-0.1l0-0.2l0.3-1.3l0.3-1.3l24.9-16.7l2.3-1.6c2.4-1.4,4.5-3.9,6.1-6.8c1.2-2.2,2-4.7,2.4-7.2
		c0.1-0.8,0.2-1.5,0.2-2.3v-41.9L131.4,148.1z M95.5,223.9l-0.1,0.1l-0.3,1.3l-0.3,1.3l-0.1,0.2l-0.1,0.2l0,0.1l0,0.1l-0.7-0.4
		l-72.3-41.8v0h0l0,0c-0.9-0.5-1.6-1.3-2-2.5c-0.5-1.1-0.7-2.5-0.7-4.1v-49.2l1.9,1.1l38.4,22L91.5,171l0.2,0.1l0.1-0.1h0l0,0v0
		l0.4-0.2l15.2-8.6l0.7-0.4l23.1-13v41c0,0.7,0,1.3-0.1,2c-0.3,2.4-1.1,5-2.3,7.2c-1.5,2.9-3.6,5.3-5.9,6.6L95.5,223.9z"/>
	<path class="st1" d="M91.9,170.7v49.4c0,6.2,3.8,9,8.5,6.4l50.1-28.8c4.6-2.7,8.5-9.9,8.5-16.1v-49.5L92,170.8L91.9,170.7
		L91.9,170.7z"/>
	<path class="st0" d="M158.9,131.8L158.9,131.8L158.9,131.8l-0.3,0.2l-0.2,0.1l0,0h0l-0.1,0.1v0l-1.8,1.1l-14.5,8.3l-34.7,20.1
		l-5.2,3l-10,5.8l0,0l-0.2-0.1l0,0l-0.2-0.1v49.9c0,1.3,0.2,2.4,0.4,3.4c0.2,0.6,0.4,1.2,0.7,1.7c0.5,0.8,1,1.4,1.7,1.9
		c0,0,0.1,0,0.1,0.1c0.1,0,0.2,0.1,0.3,0.2c0.2,0.1,0.4,0.2,0.5,0.2c0.5,0.2,1.1,0.3,1.7,0.3c1.1,0,2.2-0.3,3.4-1l50.2-28.8
		c2.4-1.4,4.5-3.9,6.1-6.8c1.5-2.9,2.5-6.3,2.5-9.5v-50L158.9,131.8z M158.7,181.7c0,3-0.9,6.3-2.5,9.2c-1.5,2.9-3.6,5.3-5.9,6.6
		l-50.2,28.8c-1.1,0.6-2.2,0.9-3.1,0.9h-0.1c-0.6,0-1.1-0.1-1.6-0.3c-0.2-0.1-0.4-0.2-0.5-0.3c0,0-0.1,0-0.1,0
		c-0.6-0.4-1.2-1-1.6-1.7c-0.2-0.3-0.3-0.6-0.4-0.9c-0.4-1-0.6-2.3-0.6-3.8v-49h0l16.1-9.3l22.3-12.9l0.2-0.1l1.1-0.6l10.1-5.9
		l14.7-8.5l0.3-0.2l1.4-0.8l0.3-0.2V181.7z M158.2,132.2l-1.8,1.1l0.3,0.2l-14.7,8.5v0l-11.9,6.9l1.3-0.8l0.4-0.2v0.1l-9.8,5.6
		l8.5-4.7l0.2-0.1l1.1-0.6l10.1-5.9l14.7-8.5l0.3-0.2l1.4-0.8v-0.5L158.2,132.2z"/>
	<path class="st3" d="M86,90.1l73,42.1l-67.1,38.5l-72.8-42L86,90.1L86,90.1z"/>
	<path class="st4" d="M86,90.1l-38.7,22.7L19,129l72.8,42l67-38.6l-4.1-2.7l-62.8,36.7l-65.5-37L89.3,92L86,90.1z"/>
	<path class="st0" d="M156.4,133.3l-14.5,8.3v0l-35.8,20.7l-4.9,2.8l-9.3,5.4l0,0l10-5.8l8.9-4.9l5.5-3.1l13.6-7.8l11.9-6.9v0
		l14.7-8.5L156.4,133.3z M91.5,170.3l0.2,0.1v0L91.5,170.3L91.5,170.3z M159.2,132C159.2,132,159.1,132,159.2,132l-0.2-0.2h0
		l-0.5-0.3l-3.1-1.8l-0.4-0.2l-0.2-0.1l-6.9-4l-0.5-0.3l-5.4-3.1L89.6,91.8L89,91.5l-2-1.2l-0.4-0.2L86.5,90l-0.3-0.2
		c0,0-0.1,0-0.1,0c-0.1,0-0.1,0-0.2,0l-1.7,1l-25.1,14.4l-40.5,23.3c0,0-0.1,0.1-0.1,0.1c-0.1,0.1,0,0.3,0.1,0.4l2.3,1.3l4.8,2.7
		l33.5,19.2L91.5,171l0.2,0.1l0,0c0,0,0.1,0,0.1,0c0.1,0,0.1,0,0.2,0l0,0l15.4-8.9l0.7-0.4l22.3-12.9l0.2-0.1l1.1-0.6l10.1-5.9
		l14.7-8.5l0.3-0.2l1.7-1l0.2-0.1l0.1-0.1l0.2-0.1c0,0,0.1,0,0.1-0.1c0,0,0-0.1,0-0.2S159.2,132.1,159.2,132z M86.2,90.5L86.2,90.5
		l0.3,0.2l2.6,1.5v0l52.9,30.5l6.6,3.8l0.1,0l5.9,3.4l0.5,0.3l3.5,2l-0.1,0.1v0l-1.8,1.1l-14.5,8.3v0l-35.8,20.7l-4.9,2.8l-9.3,5.4
		l0,0l-0.2-0.1v0l-0.2-0.1l-1.1-0.6l-31.2-18l-33.7-19.3l-4-2.3l-2.1-1.2l0,0l7.5-4.3l23.5-13.5l8.8-5.1l25.3-14.5l1.6-0.9
		L86.2,90.5z"/>
	<path class="st1" d="M176.3,112.6l0.2-47.5c0-5.4-4.3-7.3-9.7-4.3l-7.7,4.3l-0.2,0.3v66.8l7.6-4.3
		C171.9,124.9,176.3,118,176.3,112.6L176.3,112.6z"/>
	<path class="st0" d="M175.9,61.5c-0.4-0.7-0.9-1.2-1.5-1.6c-0.1-0.1-0.2-0.1-0.2-0.2c0,0,0,0-0.1,0c-0.5-0.2-0.9-0.4-1.5-0.5
		c-0.2,0-0.5-0.1-0.7-0.1c-0.1,0-0.3,0-0.4,0c-0.8,0-1.7,0.2-2.7,0.5c-0.7,0.2-1.4,0.6-2.2,1l-8,4.5l-0.1,0.1l0,0l-0.1,0.2l0,0.1
		v67.3l0.3-0.2l0.2-0.1l0.1-0.1l0.2-0.1l0.1-0.1l1.8-1l5.7-3.2c2.7-1.5,5.2-4,7-6.8c1.8-2.8,2.9-5.9,2.9-8.7l0.2-47.5
		C176.8,63.6,176.5,62.4,175.9,61.5z M176,112.6c0,2.6-1.1,5.7-2.8,8.4c-1.7,2.7-4.1,5.2-6.8,6.7l-5.7,3.2l-1.5,0.9l-0.3,0.1V65.6
		l0.1-0.1l7.9-4.4c0.9-0.5,1.7-0.8,2.5-1.1c0.7-0.2,1.4-0.3,2.1-0.3c0.8,0,1.5,0.2,2.1,0.5c0.1,0,0.1,0.1,0.2,0.1c0,0,0.1,0,0.1,0.1
		c0.1,0,0.1,0.1,0.2,0.1c0.5,0.3,1,0.8,1.3,1.4c0.5,0.9,0.8,2,0.8,3.3L176,112.6z M158.9,84.1v1.1l-0.5,0.8l0,0v43.2l0.5,0.3l0,0
		L158.9,84.1L158.9,84.1z"/>
	<path class="st4" d="M86.5,90.4V23.5l72.4,41.8v66.8L86.5,90.4L86.5,90.4z"/>
	<path class="st3" d="M89.3,29.3l0.2,21.3l0,5.1l0,1.9l0,2.2l13.2,15l0.4,0.5l38.7,43.8l1.3,1.5l4.1,4.6l0.2,0.3l0.3,0.4l0.6,0.7
		l0.2,0.2l5.7,3.3l0.5,0.3V67.3L89.3,29.3z"/>
	<path class="st5" d="M154.7,103.8l-12.8-7.4L118,82.5l23.9,34.4l3.3,4.7l2.6,3.8l0.1,0.2l0.2,0.3l0.4,0.5l0.1,0.1l5.7,3.3l0.5,0.3
		v-26.3L154.7,103.8z"/>
	<path class="st0" d="M155.3,130.1l-0.6-0.3V67.3L89.6,29.6v62.6L89,91.8V29.1c0-0.2,0.1-0.3,0.3-0.3c0.1,0,0.1,0,0.2,0l65.7,38.1
		c0.1,0.1,0.1,0.1,0.1,0.2L155.3,130.1L155.3,130.1z"/>
	<path class="st0" d="M158.8,65.1l-0.2-0.1L88.8,24.5l-1.9-1.1l-0.3-0.2l-0.1,0c0,0-0.1,0-0.1,0c0,0,0,0,0,0c-0.2,0-0.3,0.1-0.3,0.3
		v66.8c0,0.1,0,0.2,0.1,0.2c0,0,0,0,0,0l0.2,0.1l2.6,1.5l52.9,30.6l12.4,7.2l3.9,2.3v0l0.1,0.1l0.1,0.1l0,0c0,0,0,0,0,0
		c0,0,0.1,0,0.1,0c0,0,0.1,0,0.1,0c0,0,0,0,0,0c0.1,0,0.1-0.1,0.1-0.2c0,0,0,0,0-0.1V65.3C158.9,65.2,158.9,65.2,158.8,65.1z
		 M158.4,131.7l-3.1-1.8l-0.4-0.2l-0.2-0.1l-6.7-3.9l-0.4-0.2l-5.7-3.3L89.6,91.8L89,91.5l-2-1.2l-0.4-0.2V23.9l0.1,0.1l1.9,1.1
		l69.7,40.4V131.7z"/>
	<path class="st3" d="M58.3,170.2l-9.3-5.4l-3.1,2.2l2.1,4.7l3.3,10.1l2.6,3.3c3.8-2.3,4.2-2.8,4.3-6L58.3,170.2L58.3,170.2z"/>
	<path class="st0" d="M58.5,169.8l-9.3-5.4c-0.2-0.1-0.3-0.1-0.5,0l-3,2.1l0,0c0,0,0,0-0.1,0c0,0,0,0-0.1,0.1c0,0.1-0.1,0.1-0.1,0.2
		s0,0.1,0,0.2l0.4,0.8l0.4,0.9l1.3,2.9c0,0,0,0,0,0.1l3.3,10l0,0l2.3,2.8l0.3,0.3l0.1,0.1c0.1,0.1,0.3,0.2,0.4,0.1c0,0,0,0,0,0
		c0,0,0.1,0,0.1,0c0,0,0.1,0,0.1-0.1c1.9-1.1,2.9-1.8,3.6-2.7c0.7-0.9,0.8-1.9,0.8-3.6v0h0v-8.7C58.7,170.1,58.6,169.9,58.5,169.8z
		 M57.8,179c0,1.5-0.2,2.4-0.7,3.1c-0.3,0.5-0.9,0.9-1.7,1.4c-0.2,0.1-0.4,0.2-0.6,0.4c-0.2,0.2-0.5,0.3-0.8,0.5l0,0l-2.4-3l-3.2-10
		l-1.6-3.4l-0.3-0.6l-0.1-0.2l0.3-0.2l2.3-1.6l8.9,5.2V179z"/>
	<path class="st2" d="M55.2,172.1l-9.3-5.1v9.9c0,7.9,9.3,11.5,9.3,5.3V172.1L55.2,172.1z"/>
	<path class="st0" d="M55.4,171.7l-8.7-4.8l-0.4-0.2l-0.2-0.1v0c-0.1-0.1-0.3-0.1-0.4,0l0,0c0,0,0,0-0.1,0c0,0,0,0-0.1,0.1
		c0,0.1-0.1,0.1-0.1,0.2h0v9.9c0,3.8,2.2,6.7,4.4,8.1c0.7,0.4,1.4,0.7,2.1,0.8c0.7,0.1,1.4,0,1.9-0.2c0.1,0,0.1,0,0.2-0.1
		c0,0,0,0,0,0c0.1,0,0.1-0.1,0.2-0.1c0.4-0.2,0.7-0.6,0.9-1c0.1-0.2,0.2-0.4,0.3-0.7c0.1-0.4,0.2-0.8,0.2-1.3v-10.1
		C55.6,172,55.5,171.8,55.4,171.7z M54.8,182.2c0,1-0.3,1.8-0.8,2.2c-0.1,0.1-0.2,0.2-0.3,0.2c0,0-0.1,0-0.1,0.1
		c-0.1,0-0.2,0.1-0.3,0.1c-0.4,0.1-0.7,0.1-1.2,0c-0.6-0.1-1.2-0.3-1.8-0.6c-2.1-1.2-4-3.8-4-7.3v-9.2l0.5,0.3l8,4.4V182.2z"/>
	<path class="st0" d="M150,131.4l0.9,0.5c0.1,0.1,0.2,0.3,0.1,0.4c0,0-0.1,0.1-0.1,0.1l-59,34c-0.1,0.1-0.2,0-0.3,0l-65.2-37
		c-0.1-0.1-0.2-0.2-0.1-0.4c0,0,0.1-0.1,0.1-0.1l9.5-5.4v0.6l-8.8,5l64.6,36.7l58.4-33.7l-0.2-0.1L150,131.4L150,131.4z"/>
</g>
<path class="st6" d="M141.9,90.7l-57.8-1V48.5l1.9,1.1l0.1,0.1l0.2,0.1l0.1,0l0.1,0.1l0.1,0.1l1.9,1.1l0.4,0.2l0.5,0.3l0.1,0
	L131.4,76L135,78l0.4,0.2c1.9,1.1,3.5,3,4.7,5.3c0.9,1.8,1.6,3.9,1.8,5.9C141.9,89.9,141.9,90.3,141.9,90.7z"/>
<g>
	<path class="st7" d="M152.1,119.5l6.3-3.6l0.2-0.1l0.1,0v0c1-0.7,1.6-1.9,1.7-3.7l0.1-61.4c0-4.1-3.3-9.3-7.3-11.6L119.9,20
		c-3.1-1.8-4.7-1.1-7.1,0.3l-4.4,2.5l25.2,36L152.1,119.5z"/>
	<path class="st8" d="M154.1,54.2l-0.1,61.4c0,4-3.4,5.5-7.4,3.2l-5.5-3.2l-27.7-15.9c-4-2.3-7.3-7.5-7.3-11.6l0.1-30.7l0-30.7
		c0-4.1,3.3-5.5,7.4-3.2l33.3,19.1C150.9,45,154.1,50.2,154.1,54.2z"/>
	<path class="st7" d="M141.1,86.3v29.3l-27.7-15.9c-4-2.3-7.3-7.5-7.3-11.6l0.1-30.7l28.4,16.5c1.9,1.1,3.5,3,4.7,5.3
		C140.3,81.4,141.1,84,141.1,86.3z"/>
	<path class="st1" d="M116.5,59.1l25.4,14.8v2.5l-25.4-14.7L116.5,59.1L116.5,59.1z M116.5,85l25.4,14.8v2.5l-25.4-14.7L116.5,85
		L116.5,85z M141.9,86.7l-25.4-14.9v2.5l25.4,14.9V86.7L141.9,86.7z M141.9,80.2l-25.4-14.9v2.5l25.4,14.9V80.2L141.9,80.2z
		 M116.5,78.4v2.5l25.4,14.8v-2.5L116.5,78.4L116.5,78.4z M141.9,60.8L130.5,54v2.5l11.5,6.8V60.8L141.9,60.8z M141.9,54.4v2.5
		l-11.5-6.9v-2.5L141.9,54.4L141.9,54.4z M130.5,60.6v2.5l11.5,6.7v-2.5L130.5,60.6z"/>
	<path class="st1" d="M116,47.1c0.3,0.8,0.2,1.6-0.3,1.8c-0.4,0.2-1.1-0.2-1.4-1l-1.7-4.3c-0.3-0.7-0.4-1.4-0.3-2
		c0.1-0.6,0.3-1.1,0.7-1.3l2.5-1.2c0.4-0.2,1.1,0.2,1.4,1c0.3,0.8,0.2,1.6-0.2,1.8l-2.3,1.1L116,47.1L116,47.1z M123.1,54.6
		c-0.4,0.2-1.1-0.2-1.4-1c-0.3-0.8-0.2-1.6,0.3-1.8l2.3-1.1l-1.6-4c-0.3-0.8-0.2-1.6,0.3-1.8c0.4-0.2,1.1,0.2,1.4,1l1.7,4.3
		c0.3,0.7,0.4,1.4,0.3,2c-0.1,0.6-0.3,1.1-0.7,1.3L123.1,54.6L123.1,54.6z M117.9,53.8l4.5-11.5c0.2-0.6,0-1.5-0.5-2.1
		c-0.5-0.6-1.1-0.6-1.3,0l-4.6,11.5c-0.2,0.6,0,1.5,0.5,2.1C117.1,54.4,117.7,54.4,117.9,53.8z"/>
	<g>
		<path class="st9" d="M116.5,67.8l23.8,13.9c-0.3-0.9-0.7-1.7-1.1-2.5c-0.2-0.3-0.3-0.6-0.5-0.9l-22.2-13V67.8z"/>
		<path class="st9" d="M116.5,74.4l24.6,14.4v-2.4c0,0,0-0.1,0-0.1l-24.6-14.4V74.4z"/>
		<polygon class="st9" points="116.5,78.4 116.5,80.9 141.1,95.2 141.1,92.7 		"/>
		<polygon class="st9" points="141.1,99.2 116.5,85 116.5,87.5 141.1,101.7 		"/>
	</g>
</g>
<g>
	<defs>
		<polygon id="SVGID_1_" points="91.8,165.9 27.2,129.2 27.2,19.7 52.1,11.9 140.2,61 141.7,136.8 		"/>
	</defs>
	<clipPath id="SVGID_2_">
		<use xlink:href="#SVGID_1_"  style="overflow:visible;"/>
	</clipPath>
	<g class="st10">
		<path class="st1" d="M127.1,78L64,41.2c-1.4-0.8-2.6-0.9-3.6-0.3l-3.8,2.4l0,0c-1.4,0.5-2.3,2.2-2.3,4.7v32.1l48,72.9l30.5-0.8
			V88.6C132.7,84.5,130.2,79.7,127.1,78L127.1,78z"/>
		<path class="st0" d="M131.4,82.3c-1.2-2.3-2.8-4.2-4.7-5.3L63.4,40.2c-1-0.5-1.9-0.9-2.8-0.9c-1.1-0.1-2,0.1-2.9,0.6
			c0,0-0.1,0.1-0.1,0.1l-3.7,2.3c-1.1,0.5-2,1.4-2.6,2.5c-0.5,1.1-0.8,2.4-0.8,3.9v104c0,0.8,0.5,1.5,1.2,1.9l1.9,1L73.8,167
			l34.3,20.1c0.7,0.4,1.5,0.4,2.1,0l3.6-2.1l9.5-6.4l1-0.6l2.5-1.4l0.3-0.1l4-2.3l1.2-0.7c0.7-0.4,1-1.1,1-1.8h0V89.4
			C133.3,87,132.5,84.5,131.4,82.3z M129.1,170.4l-2.1,1.2l-0.3,0.1l-6.2,3.6l-3.6,3.1l-7.5,4.3l-0.3,0.2l-19.8-12h0l-9.4-5.2l0,0
			l-6.1-3.4l-19.1-10.6V48.8c0-0.9,0.1-1.6,0.4-2.1c0.2-0.3,0.4-0.5,0.6-0.6c0,0,0,0,0,0c0.1,0,0.2-0.1,0.2-0.1c0,0,0,0,0,0
			c0.1,0,0.1-0.1,0.2-0.1c0,0,0,0,0.1,0l1.6-1l0.2-0.1l0.3-0.2l1.4-0.9l0,0c0.1-0.1,0.3-0.1,0.5-0.1c0.3,0,0.6,0.1,1,0.4l63.3,36.8
			c1.2,0.7,2.3,2,3.1,3.6c0.9,1.6,1.4,3.5,1.4,5.2V170.4z"/>
		<path class="st2" d="M125.5,78.8L62.3,42c-1.4-0.8-2.6-0.9-3.6-0.3l-3.8,2.4l1.6,2.9v90.2c0,0.5,0,1.1,0.1,1.6l69.1,40.2l5.3-4.1
			V89.4C131,85.3,128.5,80.6,125.5,78.8L125.5,78.8z"/>
		<path class="st0" d="M130.1,83.1c-1-2-2.4-3.6-4-4.5L62.5,41.8c-0.7-0.4-1.4-0.6-2-0.7c-0.1,0-0.3,0-0.4,0c-0.5,0-1,0.1-1.5,0.4
			l0,0l-3.9,2.4l-0.1,0L54.5,44l0.1,0.2l0,0l0.1,0.2l0.2,0.3l0.7,1.3l0.6,1v94.3c0,0.3,0,0.5,0,0.8c0,0.3,0.1,0.6,0.1,0.8l0,0.1
			l0.1,0.1l17.4,2l35.4,22.4l0.1,0.1l0.1-0.1l0.1-0.1l17-9.7l0.3-0.1l2.1-1.2l1.9-1.1l0.7-0.4l0.1-0.1V89.4
			C131.8,87.3,131.1,85.1,130.1,83.1z M131.2,154.7l-0.3,0.2l-1.9,1.1l-1.8,1l-0.3,0.2l-0.3,0.1l-17.3,9.9l-3.2-2l-0.1,0l-32.3-20.5
			l-17-1.8c0-0.2-0.1-0.5-0.1-0.7c0-0.3,0-0.5,0-0.8v-4.2l-0.3-0.2V61.4l0.3,0.2V47l0-0.1l-0.6-1.1l-0.8-1.5h0l0-0.1l0.2-0.1l0,0
			l0.2-0.1h0l0.4-0.3l2.8-1.7c0.4-0.3,1-0.4,1.5-0.3c0.6,0,1.2,0.3,1.8,0.6l63.4,36.7l0.2,0.1c1.5,0.9,2.8,2.5,3.8,4.3
			c1,1.9,1.6,4.1,1.6,6V154.7z"/>
		<path class="st1" d="M121.2,81.4L58.1,44.6c-3-1.8-5.5,0.1-5.5,4.2l0.3,102.5l41.2,22.8l31.6,5.9l1-1.8V92
			C126.7,87.9,124.2,83.1,121.2,81.4L121.2,81.4z"/>
		<polygon class="st1" points="52.3,59 127,102.2 127,194.1 52,151.8 		"/>
		<path class="st0" d="M125.6,85.7c-1-2-2.4-3.6-4-4.5L58.3,44.4l-0.1-0.1c-0.8-0.4-1.5-0.7-2.2-0.7c-0.1,0-0.1,0-0.2,0h-0.1
			c-0.1,0-0.2,0-0.3,0c-0.3,0-0.6,0.1-0.8,0.2c-0.1,0.1-0.3,0.1-0.4,0.2c-0.5,0.3-0.9,0.7-1.2,1.3c-0.5,0.8-0.8,2-0.8,3.4v92.6
			l0.1,0.1l0.3,0.2l0.1,0V48.8c0-1.3,0.3-2.4,0.7-3.1c0.3-0.5,0.6-0.8,1-1.1c0.1,0,0.1-0.1,0.2-0.1c0.1,0,0.2-0.1,0.2-0.1
			c0.1,0,0.2-0.1,0.2-0.1l0,0h0c0.2,0,0.4-0.1,0.6-0.1c0.6,0,1.2,0.2,1.9,0.5c0,0,0.1,0.1,0.1,0.1l63.4,36.8h0
			c1.5,0.9,2.8,2.4,3.8,4.3c0.4,0.7,0.7,1.5,0.9,2.2c0.2,0.5,0.3,1,0.4,1.5c0,0.2,0.1,0.4,0.1,0.6c0,0.1,0,0.3,0.1,0.4
			c0,0.1,0,0.2,0,0.3c0,0.1,0,0.2,0,0.4c0,0.2,0,0.4,0,0.6v65.8l0.3-0.1l0.1-0.1l0.1-0.1V92C127.3,89.9,126.6,87.7,125.6,85.7z"/>
		<path class="st11" d="M59.8,51.4c1.5,0.9,2.7,3.1,2.7,4.9s-1.2,2.7-2.7,1.8c-1.5-0.9-2.7-3.1-2.7-4.9C57,51.4,58.3,50.6,59.8,51.4
			L59.8,51.4z"/>
		<path class="st12" d="M67.3,55.9c1.5,0.9,2.7,3.1,2.7,4.9s-1.2,2.7-2.7,1.8c-1.5-0.9-2.7-3.1-2.7-4.9C64.6,55.8,65.8,55,67.3,55.9
			L67.3,55.9z"/>
		<path class="st0" d="M52.4,59.3c-0.1-0.1-0.2-0.2-0.1-0.4c0.1-0.1,0.2-0.2,0.4-0.1l74.2,43.1c0.1,0.1,0.2,0.2,0.1,0.4
			c-0.1,0.1-0.2,0.2-0.4,0.1L52.4,59.3L52.4,59.3z"/>
		<path class="st0" d="M127.3,102.3c-0.1,0.1-0.3,0-0.4-0.1c-0.1-0.1,0-0.3,0.1-0.4l3.9-2.3c0.1-0.1,0.3,0,0.4,0.1
			c0.1,0.1,0,0.3-0.1,0.4L127.3,102.3L127.3,102.3z"/>
		<path class="st13" d="M74.9,60.6c1.5,0.9,2.7,3.1,2.7,4.9c0,1.9-1.2,2.7-2.7,1.8c-1.5-0.9-2.7-3.1-2.7-4.9
			C72.2,60.5,73.4,59.7,74.9,60.6L74.9,60.6z"/>
	</g>
	<path class="st14" d="M133.3,102.7l-35.5,20.6c-3.6,2.1-5.9,6-5.9,10.2V149v10.8v5.4c0,10.8,4.8,20.9,13.3,27.6l8.8,7
		c0.9,0.7,2.1,1.2,3.1,1.3c1.6,0.1,6.1,0.2,6.2,0.2l0.1,0c2.6,0,5-1.6,5.9-4.1l14.9-37.8c0.9-2.2,1.3-4.5,1.3-6.9l-12.3-1.4V102.7z"
		/>
	<path class="st15" d="M72.6,113.9l-3.6-2.2V106c0-6.6-3.2-12.7-8.4-15.9c-1.3-0.8-2.8-1.2-4.3-1.2c-1.6,0-3.1,0.5-4.5,1.4
		c-0.5,0.3-1.4,1.1-1.4,1.1l0,63.9l11.1,6.9c1.4,0.9,2.8,1.3,4,1.3c0.3,0,0.5,0,0.7-0.1l0.1,0.3l1.5-0.9l9.7-5.6l0.1,0l0.1,0
		c1.4-1,2.2-2.9,2.2-5.2l0.1-24.8C80.2,122.5,76.8,116.5,72.6,113.9z M62.2,106v1.3l-4.5-2.8c-1.2-0.8-2.3-1.2-3.4-1.3v-4.6
		c0-0.8,0.4-1.5,1-1.9c0.3-0.2,0.7-0.3,1-0.3c0.3,0,0.7,0.1,1,0.3C60.3,98.6,62.2,102.2,62.2,106z"/>
</g>
<path class="st16" d="M64.3,83c0.3,0.7,0.2,1.5-0.2,1.7c-0.4,0.2-1-0.2-1.3-0.9l-1.6-3.9C61,79.2,60.9,78.5,61,78
	c0.1-0.5,0.3-1,0.7-1.2l2.3-1.1c0.4-0.2,1,0.2,1.3,0.9c0.3,0.7,0.2,1.5-0.2,1.7l-2.1,1L64.3,83L64.3,83z M90.7,146.7
	c-0.4,0.2-1-0.2-1.3-0.9c-0.3-0.7-0.2-1.5,0.2-1.7l2.1-1l-1.5-3.7c-0.3-0.7-0.2-1.5,0.2-1.7c0.4-0.2,1,0.2,1.3,0.9l1.6,3.9
	c0.3,0.6,0.3,1.3,0.3,1.9c-0.1,0.5-0.3,1-0.7,1.2L90.7,146.7L90.7,146.7z M78.5,105.2l25.1,14.6v2.3l-25.1-14.6V105.2L78.5,105.2z
	 M93.6,125.4l-25.6-14.9v2.3l25.6,14.9V125.4L93.6,125.4z M98.1,122.1l-22.3-12.9v2.3l22.3,12.9V122.1L98.1,122.1z M72,118.9v2.3
	l36.4,20.9v-2.3L72,118.9L72,118.9z M94.8,102.6l-19-11.1v2.3l19,11.1V102.6L94.8,102.6z M91.4,94.8v2.3L68.1,83.3V81L91.4,94.8
	L91.4,94.8z M78.6,99.2v2.3L102,115v-2.3L78.6,99.2L78.6,99.2z"/>
<g>
	<g>
		<path class="st17" d="M128.3,201.3c0,0-4.5-0.1-6.1-0.2c-0.9-0.1-1.9-0.5-2.7-1.1l-8.8-7c-8.2-6.5-13-16.3-13-26.8v-31.7
			c0-3.9,2.1-7.5,5.4-9.4l36.2-20.9c0.5-0.3,1.1-0.4,1.7-0.4c0.8,0,1.5,0.3,2.2,0.8l5.3,4.2c0.8,0.6,1.4,1.6,1.4,2.7v42.1
			c0,2.2-0.4,4.4-1.2,6.5l-15,37.8C132.7,199.9,130.7,201.3,128.3,201.3L128.3,201.3z"/>
		<path class="st18" d="M141,104.7c0.6,0,1.1,0.2,1.6,0.6l5.3,4.2c0.6,0.4,1,1.1,1,1.9v18l0,0v24.1c0,2.1-0.4,4.2-1.2,6.1l-15,37.8
			c-0.7,1.9-2.5,2.9-4.3,2.9c0,0,0,0-0.1,0c0,0,0,0,0,0c0,0-4.5-0.1-6-0.2c-0.7-0.1-1.5-0.4-2.2-0.9l-8.8-7
			c-8-6.3-12.6-15.9-12.6-26v-5.4V150v-15.5c0-3.5,1.9-6.8,4.9-8.6l36.2-20.9C140.2,104.8,140.6,104.7,141,104.7 M141,102.8
			L141,102.8c-0.7,0-1.5,0.2-2.1,0.6l-36.2,20.9c-3.6,2.1-5.9,6-5.9,10.2V150v10.8v5.4c0,10.8,4.9,20.8,13.3,27.5l8.8,7
			c0.9,0.7,2.1,1.2,3.2,1.3c1.6,0.1,6.2,0.2,6.2,0.2l0.1,0c2.7,0,5-1.6,6-4.1l15-37.8c0.9-2.2,1.3-4.5,1.3-6.8v-24.1l0-18
			c0-1.4-0.6-2.6-1.7-3.4l-5.3-4.2C143,103.2,142,102.8,141,102.8L141,102.8z"/>
	</g>
	<path class="st19" d="M147.9,109.4l-5.3-4.2c-0.7-0.6-1.8-0.8-2.8-0.2l-36.2,20.9c-3.1,1.8-4.9,5-4.9,8.6V150v10.8v5.4
		c0,10.2,4.7,19.7,12.6,26l8.8,7c0.7,0.5,1.4,0.8,2.1,0.9c0,0,0,0,0,0l0,0c0.3,0,0.6,0.1,1,0l5.1,0.2c0,0-0.9-1.1-1.9-1.7
		c0.3-0.4,0.6-0.8,0.8-1.4l15-37.8c0.8-1.9,1.2-4,1.2-6.1v-18.1L147.9,109.4z"/>
	<g>
		<path class="st17" d="M128.4,200c-1,0-1.9-0.3-2.6-0.9l-8.8-7c-7.9-6.3-12.5-15.6-12.5-25.7l0-27.6c0-3.4,1.8-6.6,4.8-8.3
			l36.2-20.9c0.3-0.2,0.7-0.3,1-0.3c1,0,2.1,0.8,2.1,2.1v42.1c0,2.1-0.4,4.1-1.1,6l-15,37.8C131.7,199,130.1,200,128.4,200
			L128.4,200z"/>
		<path class="st18" d="M146.4,109.7c0.8,0,1.7,0.6,1.7,1.7l0,18v24.1c0,2-0.4,4-1.1,5.9l-15,37.8c-0.6,1.5-2,2.5-3.6,2.5
			c-0.9,0-1.7-0.3-2.4-0.8l-8.8-7c-7.9-6.2-12.4-15.5-12.4-25.5l0-16.2v-11.4c0-3.3,1.8-6.3,4.6-7.9l36.2-20.9
			C145.9,109.8,146.1,109.7,146.4,109.7 M146.4,109c-0.4,0-0.8,0.1-1.2,0.3L109,130.2c-3.1,1.8-5,5-5,8.6v11.4l0,0v16.2
			c0,10.2,4.7,19.7,12.6,26l8.8,7c0.9,0.7,1.9,1,2.8,1c1.8,0,3.6-1.1,4.3-2.9l15-37.8c0.8-1.9,1.2-4,1.2-6.1v-24.1l0,0v-18
			C148.9,110,147.7,109,146.4,109L146.4,109z"/>
	</g>
	<path class="st20" d="M145.3,120.3c0-1.5-1.6-2.4-2.9-1.7l-29.4,17c-2.5,1.4-4,4.1-4,7v8.7l0,0v13.1c0,8.2,3.8,16,10.3,21.1
		l7.2,5.7c2,1.5,4.9,0.8,5.8-1.6l12.2-30.7c0.6-1.6,1-3.3,1-5v-10.7c0,0,0,0,0,0V120.3z"/>
</g>
<g>
	<g>
		<g>
			<path class="st21" d="M142.2,179.1l-7.2-3.9l0,0c-1.1-0.7-1.7-2-1.7-3.8l-0.1-20.8c0-4.1,3.4-9.5,7.5-11.8l16.3-9.2
				c3.2-1.8,4.9-1.2,7.3,0.3l5.4,2.8l-15.2,22.6L142.2,179.1"/>
		</g>
		<g>
			<path class="st22" d="M171.7,157.4l-0.1-20.8c0-4.1-3.5-5.6-7.6-3.3l-16.3,9.2c-4.1,2.3-7.6,7.7-7.5,11.8l0.1,20.8
				c0,4.1,3.5,5.6,7.6,3.3l16.3-9.2C168.3,166.8,171.7,161.5,171.7,157.4"/>
		</g>
	</g>
	<path class="st4" d="M163.8,151.4l-7.7,10.7c-0.4,0.2-1,0-1.6-0.6c0,0-0.1-0.1-0.1-0.1l-3.6-4.3c-2-2.4,0.7-5,2.2-3l2.2,2.8
		l6.2-8.6C163.3,145.6,165.6,149,163.8,151.4"/>
</g>
<g>
	<g>
		<path class="st1" d="M52.5,161.9c-1.3,0-2.8-0.4-4.2-1.2l-17-9.6c-4.5-2.7-8.2-8.5-8.2-13l0.1-25.6c0-2.2,0.9-3.9,2.4-4.8l0.1-0.1
			c0.1-0.1,0.2-0.1,0.3-0.2l6.6-3.4v-8.1c0-3.3,1.7-6.2,4.5-7.9c1.4-0.8,3-1.3,4.6-1.3c1.5,0,3.1,0.4,4.5,1.2
			c5.7,3.1,9.2,9.1,9.2,15.6v6.3l4.5,2.5c4.5,2.5,8.2,8.4,8.2,13L68.2,151c0,2.7-1.2,4-2.2,4.7L54,161.9l0-0.1
			C53.5,161.9,53,161.9,52.5,161.9z M39.1,101.5c1.2,0,2.5,0.4,4.1,1.3l6.4,3.6v-2.9c0-4.3-2.3-8.2-6.1-10.3c-0.5-0.3-1-0.4-1.5-0.4
			c-0.5,0-1.1,0.2-1.6,0.4c-1,0.6-1.5,1.6-1.5,2.7v5.6C38.9,101.5,39,101.5,39.1,101.5z"/>
		<g>
			<path class="st23" d="M41.9,87.6c1.4,0,2.8,0.4,4,1.1c5.4,3,8.7,8.7,8.7,14.9v6.8l4.9,2.8c4.3,2.4,7.8,8,7.8,12.3L67.4,151
				c0,1.9-0.6,3.2-1.8,4l-11.1,5.7l0,0c-0.6,0.3-1.2,0.4-1.9,0.4c-1.1,0-2.4-0.4-3.8-1.1l-17-9.6c-4.3-2.5-7.8-8-7.8-12.3l0.1-25.6
				c0-1.9,0.8-3.3,2-4l0,0l0.1,0c0.1-0.1,0.2-0.1,0.3-0.2l7.1-3.7v-8.7c0-3,1.5-5.7,4.1-7.2C39,87.9,40.5,87.6,41.9,87.6 M38,102.4
				c0.4-0.1,0.7-0.1,1.1-0.1c1,0,2.2,0.3,3.6,1.2l7.7,4.3v-4.3c0-4.6-2.5-8.8-6.5-11.1c-0.6-0.3-1.3-0.5-1.9-0.5
				c-0.7,0-1.4,0.2-2,0.6c-1.2,0.7-2,2-2,3.4V102.4 M41.9,85.8c-1.8,0-3.5,0.5-5.1,1.4c-3.1,1.8-4.9,5.1-4.9,8.6v7.6l-6.2,3.2
				c-0.1,0.1-0.2,0.1-0.3,0.2l-0.1,0l0,0l0,0l0,0c-1.8,1-2.9,3-2.9,5.5l-0.1,25.6c0,4.9,3.8,10.9,8.6,13.8l17,9.6
				c1.6,0.9,3.2,1.3,4.6,1.3c0.3,0,0.6,0,0.8-0.1l0.1,0.3l1.8-0.9l11.1-5.7l0.1,0l0.1,0c1.7-1.1,2.6-3,2.6-5.4l0.1-25.6
				c0-4.9-3.9-11.1-8.7-13.8l-4.1-2.3v-5.8c0-6.8-3.7-13.1-9.6-16.4C45.3,86.3,43.6,85.8,41.9,85.8L41.9,85.8z M39.7,100.6v-4.8
				c0-0.8,0.4-1.5,1.1-1.9c0.4-0.2,0.7-0.3,1.1-0.3c0.4,0,0.7,0.1,1.1,0.3c3.5,1.9,5.6,5.6,5.6,9.6v1.4l-5.1-2.9
				C42.1,101.2,40.9,100.7,39.7,100.6L39.7,100.6z"/>
		</g>
	</g>
	<g>
		<g>
			<path class="st24" d="M54.5,160.6l11.1-5.7c1.1-0.7,1.8-2.1,1.8-4l0.1-25.6c0-4.3-3.5-9.9-7.8-12.3l-17-9.6
				c-3.3-1.9-5.1-1.3-7.6,0.3l-9,4.6l19.2,25.8L54.5,160.6z"/>
			<path class="st25" d="M24,138.1l0.1-25.6c0-4.3,3.6-5.8,7.9-3.4l17,9.6c4.3,2.4,7.9,8,7.8,12.3l-0.1,25.6c0,4.3-3.6,5.8-7.9,3.4
				l-17-9.6C27.5,147.9,24,142.4,24,138.1z"/>
		</g>
	</g>
	<path class="st26" d="M54.7,103.5c0-6.2-3.4-11.9-8.7-14.9c-2.6-1.4-5.7-1.4-8.2,0.1c-2.6,1.5-4.1,4.2-4.1,7.2v10.3
		c0,0,0,0.1,0,0.1c0.1,0.7,1.1,1.1,2.3,0.9c1.1-0.2,1.9-0.7,2-1.3l0,0v-10c0-1.4,0.7-2.7,2-3.4c1.2-0.7,2.7-0.7,3.9,0
		c4,2.2,6.5,6.5,6.5,11.1V115c0,0,0,0,0,0c0.1,0.7,1.1,1.1,2.3,0.9c1.2-0.2,2-0.8,2-1.5l0,0V103.5z"/>
	<path class="st27" d="M39.3,134.3c1.3,0.1,2.2-0.9,2.2-2.9c0-2.4-1.5-5.3-3.4-6.4c-1.9-1.1-3.4,0-3.4,2.5c0,1.7,0.7,3.6,1.8,5
		l-2.9,6.5c-0.4,0.9,0,1.9,0.8,2.4l4.9,2.8c0.9,0.5,1.9-0.3,1.7-1.2L39.3,134.3z"/>
	<path class="st28" d="M41.2,142.9c0,0.2,0,0.3,0,0.5l-3.8-2.1c-0.8-0.5-1.2-1.5-0.8-2.4l2.9-6.5c-1.1-1.4-1.8-3.2-1.8-5
		c0-1,0.2-1.8,0.6-2.3c1.8,1.1,3.3,3.9,3.3,6.3c0,1.9-1,3-2.2,2.9L41.2,142.9z"/>
	<path class="st29" d="M41.2,142.9c0,0.2,0,0.3,0,0.5l-3.8-2.1c-0.8-0.5-1.2-1.5-0.8-2.4l2.9-6.5c-1.1-1.4-1.8-3.2-1.8-5
		c0-1,0.2-1.8,0.6-2.3c1.8,1.1,3.3,3.9,3.3,6.3c0,1.9-1,3-2.2,2.9L41.2,142.9z"/>
</g>
</svg>
