<?xml version="1.0" encoding="utf-8"?>
<!-- Generator: Adobe Illustrator 25.0.0, SVG Export Plug-In . SVG Version: 6.00 Build 0)  -->
<svg version="1.1" id="Layer_1" xmlns="http://www.w3.org/2000/svg" xmlns:xlink="http://www.w3.org/1999/xlink" x="0px" y="0px"
	 viewBox="0 0 182 240" style="enable-background:new 0 0 182 240;" xml:space="preserve">
<style type="text/css">
	.st0{fill:#B2B4B5;}
	.st1{fill:#FFFFFF;}
	.st2{fill:#F7F5F5;}
	.st3{fill:#CBCBCB;}
	.st4{fill:#E0E0DF;}
	.st5{fill:#EAECEB;}
	.st6{fill:#C81F4E;}
	.st7{fill:#EA4B6D;}
	.st8{fill-rule:evenodd;clip-rule:evenodd;fill:#FFFFFF;}
	.st9{fill:#684A9E;}
	.st10{fill:#8D6FB1;}
	.st11{fill:#D4D6D4;}
	.st12{fill:none;stroke:#EA4B6D;stroke-width:2.4001;stroke-miterlimit:2.6131;}
	.st13{fill:#FAC7C5;}
	.st14{fill-rule:evenodd;clip-rule:evenodd;fill:#FAC7C5;}
	.st15{fill:none;stroke:#EA4B6D;stroke-width:0.5;stroke-miterlimit:2.6131;}
	.st16{fill:#0087B4;}
	.st17{fill:#DAEDF7;}
	.st18{fill:none;stroke:#0087B4;stroke-width:0.9601;stroke-miterlimit:2.6131;}
	.st19{fill-rule:evenodd;clip-rule:evenodd;fill:#DAEDF7;}
	.st20{fill:none;stroke:#0087B4;stroke-width:2.4001;stroke-miterlimit:2.6131;}
	.st21{fill:#43C6ED;}
	.st22{fill:#C9C7C7;}
	.st23{fill:none;stroke:#EA4B6D;stroke-width:0.9601;stroke-miterlimit:2.6131;}
</style>
<g id="Hk0fKR.tif">
</g>
<g>
	<path class="st0" d="M171.19,134.3l-7.57,4.21c-0.63,0.42-1.47,0.42-2.21,0L89.66,97.07c-0.74-0.32-1.26-1.16-1.26-2V30.62
		c0-0.42,0.11-0.74,0.32-1.16l0.1-0.21c0.21-0.42,0.52-0.74,0.84-0.95l7.68-4.31c1.68-0.95,3.26-1.47,4.73-1.68
		c1.68-0.21,3.16,0.1,4.42,0.74c0.11,0,0.11,0.11,0.11,0.11l0.1,0.11l71.64,41.43c0.11,0,0.21,0.11,0.32,0.21
		c1.05,0.63,1.89,1.58,2.52,2.84c0.53,1.16,0.84,2.52,0.84,4l-0.21,45.32c0,3.16-1.26,6.62-3.26,9.67
		C176.87,129.88,174.24,132.61,171.19,134.3L171.19,134.3z M162.56,134.09l6.42-3.68c2.31-1.37,4.52-3.47,6-5.99
		c1.58-2.42,2.52-5.05,2.52-7.26l0.21-45.32c0-0.84-0.1-1.58-0.42-2.1c-0.21-0.42-0.53-0.74-0.84-1.05l-0.1-0.1L104.7,27.15
		c-0.11,0-0.21-0.1-0.32-0.1c-0.53-0.21-1.05-0.32-1.79-0.21c-0.95,0.11-1.89,0.42-3.05,1.05l-6.63,3.79v62.15L162.56,134.09
		L162.56,134.09z"/>
	<path class="st1" d="M161.83,103.28l15.78-36.49l-71.85-41.54l-0.1-0.11c-1.79-0.95-4.31-0.73-7.15,0.84l-7.68,4.31l-0.11,0.21
		v28.08L161.83,103.28L161.83,103.28z"/>
	<path class="st0" d="M108.28,69.94v5.78c0,2.73-1.16,5.78-2.94,8.62c-1.79,2.84-4.21,5.26-6.94,6.83l-7.57,4.21L90.4,95.6V28.72
		l0.11-0.21l0.11-0.1l7.68-4.31c1.37-0.84,2.73-1.26,4-1.37c1.16-0.1,2.1,0,2.94,0.42l0.42,0.21l0.1,0.1L177.61,65l0.21,0.11
		l-0.11,0.21l-15.78,25.66l-0.1,0.21l-0.21-0.11L108.28,69.94L108.28,69.94z M107.65,75.73v-6.83l0.42,0.32l53.65,21.13l15.46-25.24
		l-71.53-41.33l-0.1-0.11c-0.84-0.42-1.89-0.63-3.05-0.52c-1.16,0.11-2.42,0.52-3.79,1.37l-7.57,4.31l-0.11,0.11v65.72l7.15-4
		c2.63-1.47,5.05-3.89,6.73-6.62C106.6,81.3,107.65,78.35,107.65,75.73L107.65,75.73z"/>
	<path class="st0" d="M11.4,185.4v-52.05c0-0.84,0.42-1.58,1.16-2l71.11-41.01c0.74-0.42,1.58-0.42,2.42,0l76.37,44.16
		c0.84,0.42,1.37,1.16,1.37,2.1v52.05c0,3.57-1.16,7.47-2.84,10.94c-1.79,3.47-4.42,6.41-7.15,8.1l-53.12,30.91
		c-1.47,0.84-2.84,1.26-4.21,1.37c-1.47,0.1-2.95-0.21-4.1-1.05l-76.37-44.06c-0.1-0.1-0.32-0.1-0.42-0.21
		c-1.37-0.84-2.42-2.1-3.05-3.68C11.71,189.29,11.4,187.4,11.4,185.4L11.4,185.4z M16.13,134.72v50.68c0,1.37,0.21,2.63,0.63,3.47
		c0.32,0.74,0.74,1.26,1.26,1.58c0.11,0,0.11,0.11,0.21,0.11l76.27,43.95c0.1,0.11,0.21,0.11,0.32,0.21
		c0.42,0.21,0.84,0.31,1.26,0.21c0.63,0,1.37-0.32,2.1-0.74l53.13-30.81c2-1.16,4-3.47,5.36-6.2c1.47-2.73,2.32-5.89,2.32-8.73
		v-50.69l-74.16-42.9L16.13,134.72L16.13,134.72z"/>
	<path class="st2" d="M14.13,133.35v52.05c0,3.58,1.16,6.1,3.05,7.15l72.48,41.85c2.31,1.37,3.89,2,6.42,2.31L123.75,214
		c4.94-2.84,8.94-10.41,8.94-16.93v-43.64l-41.87,23.24L14.13,133.35L14.13,133.35z"/>
	<path class="st0" d="M132.27,197.07c0,3.15-0.95,6.73-2.63,9.67c-1.58,3.05-3.79,5.57-6.21,6.94l-28.72,19.24l-0.1,0.11v0.11
		l-0.74,3.36l-76.79-44.37c-0.95-0.53-1.68-1.37-2.1-2.63c-0.53-1.16-0.74-2.63-0.74-4.31v-51.74l76.37,43.74l0.11,0.1l0.11-0.1
		l41.34-23.34L132.27,197.07L132.27,197.07z M13.6,185.3l0.11,0.42v0.32L13.6,185.3L13.6,185.3z M132.48,153.22l-41.66,23.45
		l-76.69-43.95l-0.42-0.21v52.79c0,1.79,0.32,3.26,0.84,4.52l-0.21-1.16l0.21,0.84l0.42,0.73l-0.42-0.53c0.42,1.05,1.16,2,1.89,2.52
		c0.11,0.11,0.31,0.21,0.42,0.32l-0.42-0.42h0.11l0.31,0.42l0.74,0.42l76.48,44.16l0.32,0.21l0.11-0.42l0.74-3.68L123.85,214
		c2.53-1.47,4.73-4.1,6.42-7.15c1.68-3.15,2.63-6.63,2.63-9.99V152.7L132.48,153.22L132.48,153.22z"/>
	<path class="st1" d="M90.92,176.99v51.95c0,6.52,4,9.57,8.94,6.73l52.7-30.28c4.84-2.84,8.94-10.41,8.94-16.93V136.4l-70.38,40.59
		H90.92L90.92,176.99z"/>
	<path class="st0" d="M90.5,229.04v-52.47l0.42,0.21l70.69-40.8v52.58c0,3.26-1.05,6.83-2.63,9.99c-1.68,3.15-3.89,5.78-6.42,7.15
		l-52.81,30.28c-1.26,0.74-2.53,1.05-3.68,1.05c-0.95,0-1.79-0.21-2.63-0.74c-0.74-0.42-1.37-1.16-1.89-2
		C91.03,232.93,90.5,231.14,90.5,229.04L90.5,229.04z M91.13,177.41v51.63c0,2.1,0.42,3.79,1.16,5.05c0.42,0.84,1.05,1.47,1.68,1.89
		c0.63,0.42,1.47,0.63,2.31,0.63c1.05,0,2.1-0.31,3.37-0.95l52.81-30.28c2.42-1.37,4.63-3.89,6.21-6.94
		c1.58-3.05,2.63-6.52,2.63-9.68v-51.52L91.13,177.41L91.13,177.41z"/>
	<polygon class="st3" points="84.72,92.24 161.41,136.5 90.92,176.99 14.34,132.82 84.72,92.24 	"/>
	<path class="st4" d="M139.74,128.62l13.15,7.68l-13.15,7.47c0.63-1.58,1.37-4.1,1.37-7.36
		C141.21,133.03,140.37,130.3,139.74,128.62L139.74,128.62z"/>
	<polygon class="st1" points="52.74,115.58 52.74,111.06 14.34,133.14 90.92,177.3 161.3,136.71 144.15,126.83 139.95,128.72 
		152.25,136.5 90.77,171.73 33.7,139.34 23.81,132.82 52.74,115.58 	"/>
	<path class="st0" d="M160.77,136.5L84.72,92.55l-70.17,40.38l76.27,43.85L160.77,136.5L160.77,136.5z M84.93,92.02l76.58,44.27
		c0.11,0.11,0.21,0.21,0.11,0.42l-0.11,0.11l-70.48,40.69c-0.1,0.11-0.21,0-0.31,0l-76.9-44.16c-0.11-0.1-0.21-0.21-0.11-0.42
		l0.11-0.1l70.69-40.8C84.72,91.92,84.82,91.92,84.93,92.02L84.93,92.02z"/>
	<path class="st1" d="M179.81,117.26l0.21-45.32c0-5.36-4.31-7.26-9.57-4.31l-7.68,4.31l-0.1,0.21v64.56l7.57-4.21
		C175.4,129.35,179.81,122.52,179.81,117.26L179.81,117.26z"/>
	<path class="st0" d="M180.24,71.84l-0.21,45.32c0,2.73-1.16,5.78-2.95,8.62c-1.79,2.74-4.21,5.26-6.94,6.83l-7.78,4.42l-0.42,0.21
		V72.15l0.11-0.21l0.1-0.11l7.89-4.42c1.79-0.94,3.37-1.47,4.84-1.47c0.95,0,1.79,0.21,2.53,0.63c0.74,0.42,1.37,1.05,1.79,1.79
		C180.03,69.21,180.24,70.47,180.24,71.84L180.24,71.84z M179.6,117.26l0.21-45.32c0-1.26-0.21-2.42-0.74-3.26
		c-0.42-0.74-0.95-1.26-1.58-1.58c-0.63-0.32-1.47-0.53-2.31-0.53c-1.37,0-2.95,0.42-4.52,1.37l-7.89,4.42l-0.1,0.11v63.83
		l7.36-4.21c2.63-1.47,4.94-3.89,6.73-6.62C178.45,122.83,179.5,119.79,179.6,117.26L179.6,117.26z"/>
	<polygon class="st1" points="90.71,95.18 90.71,30.62 162.56,72.15 162.56,136.61 90.71,95.18 	"/>
	<polygon class="st5" points="158.56,133.67 158.56,74.04 93.55,36.4 93.87,53.75 93.87,96.65 152.46,130.83 158.46,134.19 
		158.56,133.67 	"/>
	<path class="st0" d="M158.99,134.51l-0.53-0.32V74.04L93.87,36.61v60.25l-0.52-0.32V36.19c0-0.11,0.1-0.32,0.31-0.32
		c0.11,0,0.11,0,0.11,0l65.12,37.75c0.1,0,0.1,0.11,0.1,0.21V134.51L158.99,134.51z"/>
	<path class="st0" d="M90.92,31.04v63.83l71.11,41.22V72.26L90.92,31.04L90.92,31.04z M90.29,95.07V30.51c0-0.1,0.1-0.31,0.32-0.31
		c0.11,0,0.11,0,0.21,0l71.74,41.54c0.11,0,0.11,0.1,0.11,0.21v64.46c0,0.1-0.11,0.31-0.32,0.31c-0.11,0-0.11,0-0.11,0L90.5,95.18
		C90.4,95.28,90.29,95.18,90.29,95.07L90.29,95.07z"/>
	<path class="st5" d="M55.58,176.57l-9.78-5.68l-3.26,2.31l2.21,4.94l3.47,10.62l2.73,3.47c4-2.42,4.42-2.94,4.52-6.31L55.58,176.57
		L55.58,176.57z"/>
	<path class="st0" d="M46,170.47l9.78,5.68c0.11,0.1,0.21,0.21,0.21,0.42v9.25c0,1.79-0.21,2.84-0.95,3.78
		c-0.63,0.95-1.79,1.68-3.79,2.84c-0.21,0.11-0.42,0.11-0.63-0.1l-2.74-3.47l-3.47-10.62c0,0,0,0,0-0.11l-2.21-4.84
		c-0.11-0.21,0-0.42,0.11-0.53l3.26-2.31C45.69,170.36,45.9,170.36,46,170.47L46,170.47z M55.16,176.78l-9.36-5.47l-2.73,1.89
		l2.1,4.52l3.37,10.51l2.52,3.15c1.68-1.05,2.73-1.68,3.26-2.42c0.53-0.74,0.74-1.68,0.74-3.26L55.16,176.78L55.16,176.78z"/>
	<path class="st2" d="M52.42,178.57l-9.79-5.36v10.41c0,8.31,9.79,12.09,9.79,5.57V178.57L52.42,178.57z"/>
	<path class="st0" d="M51.9,189.08c0,1.47-0.53,2.31-1.26,2.63c-0.53,0.21-1.05,0.32-1.58,0.21c-0.63-0.11-1.26-0.42-1.89-0.74
		c-2.21-1.26-4.21-4-4.21-7.68v-9.67l8.94,4.94V189.08L51.9,189.08z M42.85,172.78c-0.21-0.21-0.53-0.1-0.53,0.1
		c-0.11,0.11-0.11,0.11-0.11,0.21v10.41c0,4.1,2.21,7.15,4.63,8.52c0.74,0.42,1.47,0.74,2.21,0.84c0.74,0.11,1.37,0.11,2-0.21
		c1.05-0.53,1.79-1.68,1.79-3.47v-10.62c0-0.21-0.1-0.32-0.21-0.42L42.85,172.78L42.85,172.78z"/>
	<path class="st0" d="M90.4,171.2l-66.59-38.38l15.36-8.94c0-0.21,0.11-0.53,0.21-0.74l-16.3,9.46c-0.1,0.11-0.21,0.21-0.1,0.42
		l0.1,0.11l67.22,38.7c0.1,0.1,0.21,0,0.32,0l59.54-33.86v-0.74L90.4,171.2L90.4,171.2z"/>
	<path class="st6" d="M127.67,2.94l4.21-2.52c0-0.1,0.11,0,0.21-0.1V0.21c0.74-0.32,1.78-0.32,2.83,0.32l32.62,18.61
		c2.42,1.37,4.41,5.26,4.41,8.41l-0.11,38.28c0,2.52-0.95,3.26-2.63,4.21l-2.94,1.79l-12.94-39.33L127.67,2.94L127.67,2.94z"/>
	<path class="st7" d="M130.61,53.1l32.62,18.61c2.42,1.37,4.52-0.1,4.52-3.36l0.11-38.28c0-3.26-1.99-7.04-4.41-8.41L130.82,3.05
		c-2.42-1.37-4.52,0.11-4.52,3.37l-0.11,38.28C126.09,47.95,128.19,51.73,130.61,53.1L130.61,53.1z"/>
	<path class="st1" d="M158.6,26.08c-1.16-0.42-2.11,0.1-2.11,1.37v30.49c0,1.16,0.95,2.52,2.11,2.94c1.15,0.42,2.1-0.1,2.1-1.37
		V29.02C160.8,27.76,159.85,26.5,158.6,26.08L158.6,26.08z"/>
	<path class="st1" d="M150.7,40.17c-1.15-0.42-2.1,0.11-2.1,1.37V53.1c0,1.16,0.95,2.52,2.1,2.94c1.16,0.42,2.11-0.11,2.11-1.37
		V43.11C152.81,41.85,151.86,40.59,150.7,40.17L150.7,40.17z"/>
	<path class="st1" d="M142.7,24.5c-1.15-0.42-2.1,0.1-2.1,1.37v22.82c0,1.16,0.95,2.52,2.1,2.94c1.16,0.42,2.11-0.1,2.11-1.37V27.44
		C144.92,26.29,143.87,24.92,142.7,24.5L142.7,24.5z"/>
	<path class="st1" d="M134.82,28.49c-1.15-0.42-2.1,0.11-2.1,1.37v14.3c0,1.16,0.95,2.52,2.1,2.94c1.16,0.42,2.11-0.11,2.11-1.37
		v-14.3C136.93,30.28,135.98,28.92,134.82,28.49L134.82,28.49z"/>
	<path class="st5" d="M148.49,51.52v1.47c0,1.05,0.74,2.1,1.68,2.74C149.86,54.26,149.23,52.78,148.49,51.52L148.49,51.52z"/>
	<polygon class="st8" points="59.25,152.74 59.15,121.04 66.73,125.43 66.63,157.03 59.25,152.74 	"/>
	<path class="st9" d="M51.19,8.64l-17.36,9.89c-1.37,0.74-2.21,2.21-2.21,3.68v18.82c0,1.37,0.74,2.73,2,3.47l21.57,12.3l10.1-19.03
		l10.94-17.14L55.18,8.64C54.03,7.9,52.45,7.9,51.19,8.64L51.19,8.64z"/>
	<path class="st10" d="M73.7,20.52l-17.67,9.99c-1.58,0.94-2.63,2.63-2.63,4.52v19.35c0,2.1,2.21,3.36,4,2.31l17.88-10.2
		c1.37-0.74,2.1-2.1,2.1-3.68V22.62C77.38,20.73,75.38,19.57,73.7,20.52L73.7,20.52z"/>
	<path class="st1" d="M66.55,40.29c-0.74,0.21-1.37,0.11-2-0.31c-0.1,0-0.1-0.11-0.1-0.11c-0.1,0-0.1-0.11-0.21-0.11
		c-0.63-0.63-0.84-1.47-0.84-2.52c0-2.21,1.26-4.52,3.05-5.05c1.68-0.63,3.05,0.74,3.05,2.94C69.6,37.34,68.13,39.66,66.55,40.29
		L66.55,40.29z M66.55,29.25c-2.84,0.95-5.26,4.94-5.26,8.73c0,1.47,0.32,2.63,0.84,3.58l-2.84,4.84c-0.42,0.73-0.42,1.68,0.21,2
		c0.21,0.21,0.53,0.21,0.74,0.21c0.21-0.11,0.53-0.32,0.74-0.73l2.84-4.84c0.74,0.42,1.68,0.42,2.63,0.11
		c2.84-0.95,5.26-4.94,5.26-8.73C71.81,30.61,69.49,28.3,66.55,29.25L66.55,29.25z"/>
	<path class="st11" d="M102.47,90.88v21.71l42.17,24.93l9.34-5.86l4.35,2.32v-32.64c0-3.89-2.42-8.52-5.36-10.2l-29.4-17.2
		L102.47,90.88L102.47,90.88z"/>
	<path class="st12" d="M109.36,158.83l-0.22-55.71c0-6.58-8.27-9.04-13.38-6.28l-12.09,6.4c-3.63,1.72-10.85,1.47-10.85-2.57v-12.4
		c0-0.27-0.02-0.57,0.04-0.83c0.12-0.58,0.54-1.15,1.33-1.63L91.97,75c5.26-3.17,12.54-3.22,17.96-0.45
		c4.11,2.1,8.06,4.73,12.17,6.83"/>
	<path class="st8" d="M112.85,87.89c-1.41-1.21-3.1-2.83-4.87-3.46c-0.7-0.25-1.67-1.1-3.24-1.44c-9.42-2-11.77,4.54-18.29,6.05
		c-1.69,0.39-7.01,1.44-10.77,0.32c-4.35-1.29,1.17,13.24-2.41,13.93c-1.82,0.35,0.77,1.11,3.92,1.78
		c4.44,0.95,17.92-7.5,21.16-10.91c0.02-0.02,7.67-0.5,11.18,5.94C112,104.65,114.52,91.73,112.85,87.89L112.85,87.89z"/>
	<path class="st1" d="M144.54,96.07l-13.36-7.68l-4.94-2.84l-2.63-1.47c0.95,0.11,1.89,0,2.63-0.42l7.89-4.52
		c1.9-1.05,3.48-3.15,3.48-6.62c0-6.1-4-13.25-8.95-16.09c-2.53-1.47-4.52-1.26-6.42-0.32l-7.26,4.1c-2.1,0.74-3.47,3.15-3.47,6.63
		c0,4.63,2.42,9.99,5.79,13.56l-1.68-0.94c-1.6-0.93-3.81-1.38-6.35-0.55l-0.04,37l4.5,2.56l17.78,9.99l3.89,2.21l6.22,3.47
		l1.99-1.16l8.94-5.26v-17.14C152.53,105.22,148.95,98.7,144.54,96.07L144.54,96.07z"/>
	<path class="st7" d="M109.22,115.59l32.38,24.07l8.94-4.7v-24.39c0-4.73-3.26-10.62-7.06-12.83l-20.83-11.99
		c-0.84-0.42-1.16-1.47-0.95-2.32c0.21-0.84,1.16-1.47,2.1-1.37c0.63,0.1,1.16,0,1.58-0.21c0.11,0,0.21-0.11,0.32-0.11l7.47-4.21
		c1.58-0.95,2.42-2.63,2.42-4.94c0-5.36-3.68-11.88-7.89-14.41c-1.89-1.05-3.15-0.95-4.52-0.31l-7.15,3.99
		c-0.1,0-0.21,0.11-0.32,0.11c-1.37,0.52-2.21,2.31-2.21,4.84c0,3.99,2.1,8.94,5.16,12.09c0.74,0.74,0.74,1.79,0.1,2.63
		c-0.63,0.84-1.68,0.94-2.52,0.53l-1.68-0.95c-0.93-0.56-2.84-1.19-5.3-0.18l0-4.16c0.97-0.26,1.94-0.39,2.88-0.39
		c-1.58-3.05-2.53-6.52-2.53-9.57c0-4.21,1.68-7.36,4.63-8.52l7.15-4c0,0,0.1,0,0.1-0.1c2.84-1.37,5.47-1.16,8.31,0.42
		c5.57,3.15,10,11.04,10,17.77c0,3.79-1.58,6.73-4.42,8.41l-6.52,3.68l16.82,9.68c5.05,2.94,9.05,10.09,9.05,16.3v24.88
		c0,0.74-0.42,1.37-0.95,1.68l-10.94,6.35c-0.52,0.32-0.95,0.42-1.26,0.42c-0.32,0-0.64-0.1-0.95-0.21l-31.43-23.42L109.22,115.59
		L109.22,115.59z"/>
	<path class="st13" d="M134.23,79.35l-7.89,4.52l-8.42-14.51l-3.16-8.73l7.57-4.21c1.89-0.84,3.89-1.16,6.42,0.32
		c4.94,2.84,8.94,9.99,8.94,16.09C137.6,76.2,136.12,78.2,134.23,79.35L134.23,79.35z"/>
	<path class="st7" d="M134.23,79.35L134.23,79.35L134.23,79.35z M115.29,60.74l3.05,8.31l8.1,13.99l7.47-4.21
		c2.11-1.26,3.15-3.36,3.15-6.2c0-5.89-3.89-12.94-8.62-15.67c-2.1-1.15-3.89-1.26-6-0.32L115.29,60.74L115.29,60.74z M126.34,84.29
		c-0.21,0-0.32-0.1-0.42-0.21l-8.42-14.51l-3.37-8.94c-0.11-0.21,0-0.53,0.21-0.63l7.57-4.21c2.42-1.16,4.52-1.05,6.94,0.31
		c5.05,2.94,9.26,10.3,9.26,16.51c0,4.1-2,6.1-3.69,7.15l-7.88,4.52C126.44,84.29,126.34,84.29,126.34,84.29L126.34,84.29z"/>
	<path class="st13" d="M113.72,120.47v-19.87c0-1.37,0.84-1.89,2-1.26c1.16,0.74,2.21,2.42,2.21,3.89v52.93l21.78-11.22v-29.09
		c0-1.47,0.95-2.1,2.21-1.47c0.95,0.53,1.68,1.89,1.68,3.15v23.74l8.94-5.26v-25.42c0-5.47-3.68-11.99-8.1-14.51l-13.36-7.68
		l-4.94-2.84l-10.63-6.1c-1.58-0.91-3.75-1.37-6.25-0.59l-0.04,39.06L113.72,120.47L113.72,120.47z"/>
	<path class="st7" d="M120.57,154.26l18.97-9.9l-0.36-28.52c0-0.95,0.31-1.68,0.94-2c0.64-0.32,1.27-0.32,2,0.11
		c1.16,0.63,1.99,2.21,1.99,3.57l-0.04,23.36l7.94-4.49v-25.81c0-5.26-3.48-11.57-7.79-14.09l-28.92-16.61
		c-1.14-0.61-3.29-1.44-6.04-0.5l0-0.94c2.34-0.74,4.74-0.54,6.77,0.59l28.92,16.61c4.64,2.63,8.31,9.36,8.31,14.93v26.12
		c0,0.21-0.11,0.32-0.21,0.42l-8.98,5.12c-0.2,0.11-0.51,0.42-0.72,0.32c-0.23-0.11-0.07-23.38-0.07-25.04
		c0-0.95-0.64-2.21-1.48-2.63c-0.42-0.21-0.74-0.32-0.94-0.11c-0.32,0.21-0.43,0.53-0.43,1.16l0.12,28.47
		c0,0.15-18.82,9.73-20.72,10.69c-0.21-0.11-0.31-0.32-0.31-0.42l-2.12-51.35c0-1.26-0.84-2.84-1.89-3.47
		c-0.31-0.21-0.63-0.21-0.84-0.11c-0.21,0.11-0.32,0.53-0.32,0.95v19.87c0,0.21-0.11,0.32-0.21,0.42c-0.21,0.1-0.32,0.1-0.53,0
		l-4.39-2.5l0-1.2l3.97,2.23v-18.93c0-0.84,0.32-1.47,0.84-1.89c0.53-0.31,1.16-0.31,1.89,0.11c1.37,0.84,2.42,2.74,2.42,4.42
		l2.12,51.04H120.57L120.57,154.26z"/>
	<path class="st1" d="M109.72,161.56l21.78-12.69v-28.4c0-1.47,0.95-2.1,2.21-1.47c0.94,0.53,1.68,1.89,1.68,3.15l0.02,24.32
		l8.92-4.79v-26.37c0-5.47-3.68-11.99-8.1-14.51l-13.36-7.68l-4.94-2.84l-8.67-4.98C109.22,110.73,109.72,136.15,109.72,161.56
		L109.72,161.56z"/>
	<path class="st7" d="M135.92,145.93l7.97-4.36l-0.08-7.22v-19.14c0-5.26-3.47-11.57-7.78-14.09l-26.77-15.37l0-1.2l27.4,15.73
		c4.63,2.63,8.3,9.36,8.3,14.93v19.45c0,0.21,0.2,7.3,0.09,7.4l-8.95,4.9c-0.99,0.56-1.3,0.28-1.24-0.46v-24.46
		c0-0.95-0.63-2.21-1.47-2.63c-0.42-0.21-0.74-0.32-0.95-0.11c-0.32,0.21-0.42,0.53-0.42,1.16v28.14c0,0.45-0.27,0.5-0.74,0.8
		l-21.78,11.51c-0.15-0.08-0.25-0.21-0.29-0.31l0.01-60.97c0.56,0.87,0.91,1.91,0.91,2.88v56.55l20.83-10.81v-27.89
		c0-0.94,0.32-1.68,0.95-2c0.53-0.32,1.26-0.32,2,0.1c1.16,0.63,2,2.21,2,3.58V145.93L135.92,145.93z"/>
	<path class="st14" d="M113.34,87.54c-1.51-0.82-3.02-1.64-4.53-2.46c-4.98-2.7-9.88-2.79-14.36-0.19c-3.96,2.3-7.88,4.66-11.82,7
		c-5.13,2.44-11.71-2.68-7.47-5.24L92.29,76.3c5.25-3.17,12.53-3.22,17.96-0.45c4.11,2.1,8.06,4.5,12.17,6.6
		C119.34,84.25,116.42,85.74,113.34,87.54L113.34,87.54z"/>
	<path class="st15" d="M109.68,111.93l-0.23-7.5c0-6.58-8.27-9.04-13.38-6.28l-12.09,6.4c-3.63,1.72-10,0.85-10-3.18v-12.4"/>
	<path class="st1" d="M114.53,60.49c3.67-1.88,9.31,1.8,12.58,8.22c3.28,6.41,2.96,13.13-0.72,15.01c-3.67,1.88-9.31-1.8-12.58-8.22
		C110.53,69.08,110.85,62.36,114.53,60.49L114.53,60.49z"/>
	<path class="st7" d="M116.66,60.53c-0.74,0-1.47,0.21-2.1,0.53c-1.58,0.94-2.52,3.05-2.52,5.89c0,5.89,3.89,12.93,8.63,15.67
		c2.1,1.26,4.1,1.37,5.58,0.53c1.58-0.95,2.52-3.05,2.52-5.89c0-5.89-3.89-12.93-8.63-15.67C118.98,60.85,117.71,60.53,116.66,60.53
		L116.66,60.53z M124.24,84.72c-1.26,0-2.63-0.42-4.1-1.26c-5.05-2.94-9.26-10.3-9.26-16.51c0-3.26,1.05-5.68,3.05-6.83
		c1.79-1.05,4.21-0.84,6.63,0.53c5.05,2.94,9.26,10.3,9.26,16.51c0,3.26-1.05,5.68-3.05,6.83C126.02,84.5,125.18,84.72,124.24,84.72
		L124.24,84.72z"/>
	<path class="st1" d="M66.58,100.44L58.84,96l-4.94-2.84l-2.63-1.47c0.95,0.11,1.89,0,2.63-0.42l7.89-4.52
		c1.9-1.05,3.48-3.15,3.48-6.62c0-6.1-4-13.25-8.95-16.09c-2.53-1.47-4.52-1.26-6.42-0.32l-7.26,4.1c-2.1,0.74-3.47,3.15-3.47,6.63
		c0,4.62,2.42,9.99,5.79,13.56l-1.68-0.94c-2-1.16-4.94-1.58-8.31,0.31c-3.36,1.89-6.63,3.79-6.63,3.79v0.11
		c-2.31,0.94-4.1,3.26-4.1,6.73v18.3l5.89,3.37l11.26,6.41l17.78,9.99l0.4,0.23l-0.04-8.44v-23.54L66.58,100.44L66.58,100.44z"/>
	<path class="st16" d="M26.23,129.9l33.32,18.89l0.02,4.56l-36.29-20.51c-0.63-0.32-1.05-1.05-1.05-1.79V98
		c0-3.79,1.79-6.83,4.84-8.41c0.1-0.11,0.21-0.11,0.32-0.21l6.63-3.79c1.89-1.05,3.89-1.58,5.79-1.58
		c-1.58-3.05-2.53-6.52-2.53-9.57c0-4.21,1.68-7.36,4.63-8.52l7.15-4c0,0,0.1,0,0.1-0.1c2.84-1.37,5.47-1.16,8.31,0.42
		c5.57,3.15,10,11.04,10,17.77c0,3.79-1.58,6.73-4.42,8.41l-6.52,3.68l12.33,7.09l-4.31,2.36l-14.22-8.19
		c-0.84-0.42-1.16-1.47-0.95-2.32c0.21-0.84,1.16-1.47,2.1-1.37c0.63,0.1,1.16,0,1.58-0.21c0.11,0,0.21-0.11,0.32-0.11l7.47-4.21
		c1.58-0.95,2.42-2.63,2.42-4.94c0-5.36-3.68-11.88-7.89-14.41c-1.89-1.05-3.15-0.95-4.52-0.31l-7.15,3.99
		c-0.1,0-0.21,0.11-0.32,0.11c-1.37,0.53-2.21,2.31-2.21,4.84c0,3.99,2.1,8.94,5.15,12.09c0.74,0.73,0.74,1.79,0.1,2.63
		c-0.63,0.84-1.68,0.94-2.52,0.52l-1.68-0.95c-1.05-0.63-3.37-1.37-6.31,0.32l-6.21,3.58c-0.21,0.21-0.32,0.32-0.53,0.42
		c-1.89,0.74-2.84,2.52-2.84,4.94v31.91H26.23L26.23,129.9z"/>
	<path class="st1" d="M61.89,86.96L54,91.48l-8.42-14.51l-3.16-8.73L50,64.03c1.89-0.84,3.89-1.16,6.42,0.32
		c4.94,2.84,8.94,9.99,8.94,16.09C65.26,83.8,63.78,85.8,61.89,86.96L61.89,86.96z"/>
	<path class="st16" d="M61.89,86.96L61.89,86.96L61.89,86.96z M42.96,68.34L46,76.65l8.1,13.99l7.47-4.21
		c2.11-1.26,3.15-3.36,3.15-6.2c0-5.89-3.89-12.94-8.62-15.67c-2.1-1.15-3.89-1.26-6-0.32L42.96,68.34L42.96,68.34z M54,91.9
		c-0.21,0-0.32-0.1-0.42-0.21l-8.42-14.51l-3.37-8.94c-0.11-0.21,0-0.53,0.21-0.63l7.57-4.21c2.42-1.16,4.52-1.05,6.94,0.31
		c5.05,2.94,9.26,10.3,9.26,16.51c0,4.1-2,6.1-3.69,7.15l-7.88,4.52C54.11,91.9,54,91.9,54,91.9L54,91.9z"/>
	<path class="st1" d="M40.61,140.82l0.77-32.62c0-1.37,0.84-1.89,2-1.26c1.16,0.74,2.21,2.42,2.21,3.89v19.56l13.98,7.9l-0.05-10.43
		v-23.54l7.01-3.83L58.73,96l-4.94-2.84l-10.62-6.1c-2-1.16-4.94-1.58-8.31,0.31c-3.37,1.89-6.63,3.79-6.63,3.79l1.02,43.24
		L40.61,140.82L40.61,140.82z"/>
	<path class="st16" d="M46.11,130.07l13.45,7.64l0.01,1.22l-14.2-8.02c-0.21-0.11-0.32-0.32-0.32-0.42v-19.56
		c0-1.26-0.84-2.84-1.89-3.47c-0.32-0.21-0.63-0.21-0.84-0.11c-0.21,0.11-0.32,0.52-0.32,0.95v33.77c0,0.21-0.11,0.32-0.21,0.42
		c-0.21,0.1-0.32,0.1-0.53,0l-11.26-6.42c-0.11-0.11-0.21-0.21-0.32-0.42l-1.79-44.39c0-0.21,0.11-0.42,0.32-0.53l6.63-3.79
		c2.94-1.68,6.21-1.79,8.84-0.32l23.47,13.48l-1.13,0.62L42.96,87.48c-1.37-0.74-4.21-1.79-7.79,0.32l-6.31,3.58l1.68,43.86
		l10.31,5.78V108.2c0-0.84,0.32-1.47,0.84-1.89c0.53-0.31,1.16-0.31,1.89,0.11c1.37,0.84,2.42,2.74,2.42,4.42v19.24H46.11
		L46.11,130.07z"/>
	<path class="st17" d="M42.19,68.09c3.67-1.88,9.31,1.8,12.58,8.22c3.28,6.41,2.96,13.13-0.72,15.01c-3.67,1.88-9.31-1.8-12.58-8.22
		C38.19,76.69,38.52,69.97,42.19,68.09L42.19,68.09z"/>
	<path class="st16" d="M44.32,68.13c-0.74,0-1.47,0.21-2.1,0.53c-1.58,0.94-2.52,3.05-2.52,5.89c0,5.89,3.89,12.93,8.63,15.67
		c2.1,1.26,4.1,1.37,5.58,0.53c1.58-0.95,2.52-3.05,2.52-5.89c0-5.89-3.89-12.93-8.63-15.67C46.64,68.45,45.37,68.13,44.32,68.13
		L44.32,68.13z M51.9,92.32c-1.26,0-2.63-0.42-4.1-1.26c-5.05-2.94-9.26-10.3-9.26-16.51c0-3.26,1.05-5.68,3.05-6.83
		c1.79-1.05,4.21-0.84,6.63,0.53c5.05,2.94,9.26,10.3,9.26,16.51c0,3.26-1.05,5.68-3.05,6.83C53.69,92.11,52.84,92.32,51.9,92.32
		L51.9,92.32z"/>
	<path class="st17" d="M33.17,137.45v-24.63c0-1.37,0.84-1.89,2-1.26c1.16,0.74,2.21,2.42,2.21,3.89v24.31l21.78,12.41v-24.1
		c0-0.55,0.13-0.98,0.36-1.27v-20.91l-8.99-5.16l-4.94-2.84l-10.63-6.1c-4.42-2.53-10.83-0.42-10.83,6.31v34.4L33.17,137.45
		L33.17,137.45z"/>
	<path class="st16" d="M59.51,106.33L34.75,92.11c-2.21-1.26-4.94-1.26-6.94-0.1c-2,1.16-3.05,3.26-3.05,5.99v34.51l7.89,4.42
		v-24.21c0-0.84,0.32-1.47,0.84-1.89c0.53-0.32,1.16-0.32,1.89,0.11c1.37,0.84,2.42,2.73,2.42,4.42v24.57l20.83,11.88l0.04-23.92
		c0-0.91,0.29-1.63,0.88-1.96v1.85l0.01,25.3c-0.03,0.04-0.06,0.07-0.1,0.11c-0.21,0.1-0.32,0.1-0.53,0l-21.78-12.3
		c-0.21-0.11-0.32-0.31-0.32-0.42v-24.89c0-1.26-0.84-2.84-1.89-3.47c-0.32-0.21-0.63-0.21-0.84-0.1c-0.21,0.1-0.32,0.53-0.32,0.95
		v24.94c0,0.21-0.11,0.32-0.21,0.42c-0.21,0.1-0.32,0.1-0.53,0l-8.94-5.05c-0.21-0.11-0.32-0.32-0.32-0.42V98
		c0-3.05,1.26-5.47,3.58-6.83c2.31-1.37,5.47-1.37,8,0.11l24.13,13.86V106.33L59.51,106.33z"/>
	<polyline class="st18" points="59.05,152.75 66.48,157.11 66.86,124.97 	"/>
	<path class="st19" d="M61.8,122.37l3.02,1.56c5.97,3.51,14.25,3.17,19.06,0.52l16.24-9.18c4.36-2.47,5.02-5.12,5.03-9.12v-8.64
		l-4.05,1.6L81,107.69l-22.42-2.75l0.14,20.12C59.34,123.82,59.78,122.44,61.8,122.37L61.8,122.37z"/>
	<path class="st8" d="M65.42,98.55c1.51,0.82,3.02,1.64,4.53,2.46c4.98,2.7,9.87,2.79,14.36,0.18c3.96-2.3,7.88-4.66,11.82-7
		c5.13-2.44,11.71,2.68,7.47,5.24l-17.13,10.35c-5.26,3.17-12.53,3.21-17.96,0.45c-4.11-2.1-8.12-4.53-12.23-6.63
		C59.36,101.81,62.34,100.35,65.42,98.55L65.42,98.55z"/>
	<path class="st18" d="M65.42,98.55c1.51,0.82,3.02,1.64,4.53,2.46c4.98,2.7,9.87,2.79,14.36,0.18c3.96-2.3,7.88-4.66,11.82-7
		c5.13-2.44,11.71,2.68,7.47,5.24l-17.13,10.35c-5.26,3.17-12.65,3.49-18.02,0.62l-12.43-6.65 M105.15,97.52v8.64
		c-0.01,4-0.67,6.65-5.03,9.12l-16.24,9.18c-4.81,2.64-13.05,2.77-19.02-0.74l-2.45-1.38c-1.75-0.84-3.06,0.43-3.13,2.09
		l-0.19,13.29"/>
	<path class="st20" d="M66.82,157.25l-0.07-31.83c5.62,2.45,12.8,1.94,17.15-0.45l16.24-9.18c4.36-2.47,5.02-5.12,5.03-9.12v-7.32
		c0-0.96-0.14-2.07-0.72-2.87c-1.37-1.89-5.11-3.28-8.29-1.77c-3.94,2.33-7.86,4.7-11.82,7c-4.49,2.6-9.38,2.51-14.36-0.19
		c-1.51-0.82-4.44-2.56-5.95-3.37"/>
	<polygon class="st16" points="120.24,142.48 63.86,142.48 63.86,156.23 90.67,171.4 120.26,154.9 120.26,142.48 120.24,142.48 	"/>
	<path class="st21" d="M97.33,127.69l20.97,12.02c2.9,1.65,2.51,4.58-0.86,6.56l-19.24,10.93c-3.38,1.92-8.53,2.19-11.43,0.49
		L65.8,145.67c-2.91-1.66-2.51-4.58,0.86-6.5l19.24-10.93c3.38-1.92,8.52-2.19,11.43-0.49V127.69L97.33,127.69z"/>
	<path class="st1" d="M90.4,146.96c-0.29-0.17-0.58-0.32-0.88-0.46c-0.36-0.16-0.45-0.31-0.3-0.56c0.43-0.73-0.19-1.51-1.39-1.9
		c-1.3-0.42-2.71-0.38-3.99,0.11c-1.09,0.47-1.5,1.29-0.96,1.98c0.88,0.89,2.14,1.3,3.38,1.09c0.83-0.15,1.69,0.03,2.39,0.49
		l0.7,0.36c1.63,0.68,3.45,0.77,5.15,0.26l-1.32-0.88C92.22,147.63,91.23,147.45,90.4,146.96L90.4,146.96z M103.06,135.39
		c-4.34-1.82-9.12-2.3-13.73-1.37c0.5,0.25,0.97,0.51,1.5,0.75c0.2,0.07,0.41,0.09,0.61,0.07c8.11-0.92,15.31,2.77,13.5,6.98v0.3
		c0.49,0.28,1.03,0.55,1.56,0.82C108.14,140.94,107.88,137.71,103.06,135.39L103.06,135.39z M104.48,142.77
		c-0.61-0.37-1.37-0.37-1.98,0l-3.77,1.95l-3.18,1.65c-1.53,0.79-1.52,0.9,0.07,1.67c1.98,0.87,4.24,0.87,6.22,0
		c1.09-0.56,2.19-1.09,3.28-1.7c1.37-0.73,1.68-1.86,0.71-2.72C105.41,143.29,104.96,143,104.48,142.77L104.48,142.77z
		 M85.98,138.07l3.18-1.65c1.53-0.79,1.52-0.9-0.07-1.67c-1.98-0.87-4.24-0.87-6.22,0c-1.09,0.56-2.19,1.09-3.28,1.69
		c-1.37,0.73-1.68,1.86-0.71,2.72c0.42,0.33,0.87,0.61,1.34,0.84c0.61,0.37,1.37,0.37,1.98,0L85.98,138.07L85.98,138.07z"/>
	<path class="st22" d="M120.25,185.56l-1.2,0.66l-0.96,0.53l-1.21,0.66c-1.19,0.75-1.95,2.04-2.03,3.45v5.07
		c0,1.21,0.82,1.77,1.85,1.3v7.45c-0.09,0.47,0.22,0.92,0.69,1.01c0.25,0.05,0.5-0.02,0.7-0.18l0.96-0.53
		c0.82-0.52,1.33-1.39,1.39-2.36v-7.44c1.09-0.78,1.77-2.01,1.85-3.34v-5.07c0.12-0.69-0.35-1.35-1.05-1.46
		C120.89,185.25,120.52,185.34,120.25,185.56L120.25,185.56z M118.46,178.98c-1.32,0.82-2.15,2.23-2.23,3.77
		c0,1.41,1,2.01,2.23,1.33c1.31-0.82,2.15-2.23,2.23-3.78C120.69,178.89,119.63,178.29,118.46,178.98L118.46,178.98z M128.78,169.45
		c-1.58,0.99-2.57,2.68-2.67,4.53c0,1.68,1.2,2.4,2.67,1.58c1.58-0.98,2.57-2.67,2.67-4.52
		C131.45,169.34,130.25,168.64,128.78,169.45L128.78,169.45z M139.3,167.49c-1.28,0.8-2.09,2.17-2.17,3.68
		c0,1.37,0.97,1.94,2.17,1.28c1.28-0.8,2.09-2.17,2.17-3.67C141.46,167.41,140.49,166.84,139.3,167.49L139.3,167.49z M141.08,173.8
		l-2.1,1.19l-1.2,0.66c-1.2,0.75-1.97,2.04-2.04,3.45v5.07c0,1.21,0.82,1.75,1.85,1.3v7.49c-0.08,0.47,0.23,0.92,0.7,1
		c0.24,0.04,0.49-0.02,0.69-0.18l0.96-0.53c0.82-0.51,1.33-1.39,1.39-2.36v-7.45c1.09-0.77,1.77-2,1.85-3.33v-5.08
		c0-1.27-0.92-1.82-2.04-1.2L141.08,173.8L141.08,173.8z M130.92,177.57l-1.42,0.78l-1.12,0.61l-1.41,0.78
		c-1.4,0.88-2.3,2.39-2.39,4.04v5.95c0,1.42,0.96,2.1,2.17,1.53v8.73c-0.05,0.58,0.38,1.09,0.96,1.14c0.24,0.02,0.48-0.04,0.67-0.17
		l1.12-0.62c0.96-0.6,1.57-1.63,1.63-2.76v-8.72c1.28-0.91,2.08-2.35,2.17-3.91v-5.95c0.15-0.8-0.37-1.57-1.17-1.72
		c-0.43-0.08-0.88,0.03-1.22,0.31H130.92L130.92,177.57z"/>
	<path class="st23" d="M113.68,87.66c-1.51-0.82-3.36-1.76-4.87-2.57c-4.98-2.7-9.88-2.79-14.36-0.19c-3.96,2.3-7.88,4.66-11.82,7
		c-5.13,2.44-11.71-2.68-7.47-5.24L92.29,76.3c5.25-3.17,12.53-3.22,17.96-0.45c1.85,0.95,3.68,1.96,5.5,2.97"/>
</g>
</svg>
