<?xml version="1.0" encoding="utf-8"?>
<!-- Generator: Adobe Illustrator 24.0.1, SVG Export Plug-In . SVG Version: 6.00 Build 0)  -->
<svg version="1.1" id="Layer_1" xmlns="http://www.w3.org/2000/svg" xmlns:xlink="http://www.w3.org/1999/xlink" x="0px" y="0px"
	 viewBox="0 0 182 240" style="enable-background:new 0 0 182 240;" xml:space="preserve">
<style type="text/css">
	.st0{fill-rule:evenodd;clip-rule:evenodd;fill:#BBBABA;}
	.st1{fill-rule:evenodd;clip-rule:evenodd;fill:#FFFFFF;}
	.st2{fill-rule:evenodd;clip-rule:evenodd;fill:#F0F1F1;}
	.st3{fill-rule:evenodd;clip-rule:evenodd;fill:#E9E9E9;}
	.st4{fill-rule:evenodd;clip-rule:evenodd;fill:#B5B4AF;}
	.st5{fill-rule:evenodd;clip-rule:evenodd;fill:#FAFBFA;}
	.st6{fill-rule:evenodd;clip-rule:evenodd;fill:#FAF9F9;}
	.st7{fill-rule:evenodd;clip-rule:evenodd;fill:#E2E3E2;}
	.st8{fill-rule:evenodd;clip-rule:evenodd;fill:#E3F1FA;}
	.st9{fill-rule:evenodd;clip-rule:evenodd;fill:#38B9E5;}
	.st10{fill-rule:evenodd;clip-rule:evenodd;fill:#F2F7F9;}
	.st11{fill-rule:evenodd;clip-rule:evenodd;fill:#D7D6D5;}
	.st12{fill-rule:evenodd;clip-rule:evenodd;fill:#C81143;}
	.st13{fill-rule:evenodd;clip-rule:evenodd;fill:#0081B3;}
	.st14{fill-rule:evenodd;clip-rule:evenodd;fill:#E78D00;}
	.st15{fill-rule:evenodd;clip-rule:evenodd;fill:#56C3EC;}
	.st16{fill-rule:evenodd;clip-rule:evenodd;fill:#E74168;}
	.st17{fill-rule:evenodd;clip-rule:evenodd;fill:#FBBD00;}
	.st18{fill-rule:evenodd;clip-rule:evenodd;fill:#D1CECE;}
	.st19{fill-rule:evenodd;clip-rule:evenodd;fill:#EBEBEA;}
	.st20{fill-rule:evenodd;clip-rule:evenodd;fill:#3AB2D4;}
	.st21{fill-rule:evenodd;clip-rule:evenodd;fill:#E3F1F5;}
	.st22{fill-rule:evenodd;clip-rule:evenodd;fill:#D83C5C;}
	.st23{fill-rule:evenodd;clip-rule:evenodd;fill:#F5CECC;}
	.st24{fill:#FFFFFF;}
</style>
<g>
	<path class="st0" d="M170.664,127.103l-7.527,4.24c-0.683,0.387-1.518,0.387-2.2,0L89.29,89.978
		c-0.756-0.373-1.237-1.138-1.247-1.981V21.838c0.002-0.393,0.105-0.778,0.297-1.12l0.108-0.178c0.199-0.38,0.506-0.694,0.882-0.902
		l7.627-4.298c1.452-0.859,3.061-1.412,4.734-1.625c1.525-0.204,3.076,0.058,4.448,0.753l0.149,0.078l0.129,0.081l71.528,41.287
		c0.107,0.049,0.211,0.108,0.307,0.177c1.101,0.683,1.976,1.675,2.515,2.852c0.573,1.262,0.85,2.637,0.813,4.022l-0.149,47.052
		c-0.172,3.442-1.282,6.771-3.209,9.629c-1.91,3.042-4.513,5.59-7.598,7.428L170.664,127.103L170.664,127.103z M162.057,126.847
		l6.438-3.628c2.453-1.473,4.521-3.511,6.032-5.943c1.479-2.148,2.345-4.657,2.506-7.26l0.159-47.042
		c0.028-0.727-0.107-1.451-0.397-2.12c-0.188-0.414-0.498-0.759-0.891-0.991l-0.129-0.089L104.248,18.5
		c-0.095-0.038-0.186-0.088-0.268-0.15c-0.57-0.232-1.193-0.307-1.803-0.218c-1.073,0.147-2.107,0.508-3.041,1.06l-6.646,3.765
		V86.69l69.567,40.146V126.847z"/>
	<path class="st1" d="M98.839,63.62v-6.251l62.404,38.799l15.73-38.234l-71.676-41.386l-0.118-0.079
		c-1.764-0.991-4.309-0.783-7.132,0.813L90.38,21.58l-0.149,0.258v29.806l-8.598,31.34l7.539-4.239
		c5.299-2.972,9.648-9.787,9.677-15.125L98.839,63.62L98.839,63.62z"/>
	<path class="st0" d="M107.804,62.876v5.745c-0.163,3.078-1.167,6.052-2.903,8.599c-1.739,2.778-4.117,5.1-6.933,6.776l-7.529,4.239
		l-0.416,0.238V21.729l0.15-0.268l0.098-0.098l7.638-4.299c1.215-0.723,2.561-1.194,3.962-1.387c1.006-0.134,2.03-0.004,2.972,0.377
		l0.415,0.247l0.13,0.069l71.676,41.366l0.248,0.148l-15.849,25.854l-0.149,0.237l-0.238-0.149l-53.252-20.95H107.804
		L107.804,62.876z M107.22,68.621v-6.744l0.425,0.267l53.49,21.03l15.433-25.141l-71.33-41.226l-0.129-0.069
		c-0.946-0.487-2.019-0.665-3.071-0.515c-1.337,0.184-2.624,0.637-3.784,1.327l-7.557,4.259l-0.079,0.128v65.604l7.122-3.963
		c2.729-1.629,5.032-3.888,6.715-6.587C106.129,74.509,107.084,71.613,107.22,68.621z"/>
	<path class="st1" d="M179.252,110.037l0.159-47.041c0-5.34-4.3-7.261-9.579-4.28l-7.627,4.29l-0.159,0.257v66.14l7.576-4.22
		c5.291-2.972,9.65-9.797,9.669-15.126L179.252,110.037z"/>
	<path class="st0" d="M179.688,62.985l-0.16,47.052c-0.163,3.073-1.166,6.044-2.9,8.587c-1.737,2.781-4.115,5.104-6.934,6.777
		l-7.806,4.398l-0.416,0.227V63.272l0.15-0.257l0.108-0.099l7.925-4.448c1.456-0.886,3.119-1.38,4.823-1.436
		c0.898-0.011,1.784,0.203,2.574,0.624c0.754,0.425,1.374,1.048,1.794,1.804c0.569,1.086,0.849,2.301,0.813,3.526L179.688,62.985
		L179.688,62.985z M178.975,110.027l0.158-47.042c0.04-1.128-0.212-2.248-0.734-3.249c-0.371-0.667-0.92-1.218-1.585-1.595
		c-0.706-0.38-1.498-0.57-2.297-0.555c-1.612,0.058-3.181,0.529-4.557,1.367l-7.826,4.408l-0.079,0.13v65.584l7.389-4.161
		c2.732-1.631,5.033-3.888,6.716-6.586C177.839,115.869,178.812,112.999,178.975,110.027z"/>
	<polygon class="st1" points="90.38,88.017 90.38,21.888 162.047,63.272 162.047,129.403 	"/>
	<path class="st2" d="M158.074,127.491V65.233l-64.93-37.64l0.278,17.354l-0.209,39.088l58.691,39.959L158.074,127.491z
		 M158.074,127.491l-4.833-2.784L158.074,127.491z"/>
	<path class="st3" d="M158.074,127.491v-26.082l-36.511-21.128l-0.119,36.729L158.074,127.491z M158.074,127.491l-4.833-2.784
		L158.074,127.491z"/>
	<path class="st0" d="M158.451,127.331l-0.554-0.326V65.233L93.401,27.87V89.8l-0.555-0.278V27.395c0-0.154,0.123-0.281,0.278-0.287
		l0.158,0.049l65.029,37.641c0.086,0.054,0.137,0.147,0.14,0.248v62.256V127.331z"/>
	<path class="st0" d="M90.479,22.284v65.495l71.022,41.137V63.431L90.479,22.284L90.479,22.284z M89.925,87.937V21.798
		c0.004-0.151,0.126-0.273,0.277-0.277h0.159l71.558,41.454c0.085,0.054,0.137,0.147,0.138,0.248v66.129
		c0,0.153-0.124,0.278-0.278,0.278h-0.148L90.063,88.175C89.978,88.126,89.926,88.036,89.925,87.937z"/>
	<path class="st0" d="M104.763,116.882c-0.125,0.078-0.29,0.039-0.368-0.086l-0.008-0.015c-0.075-0.131-0.031-0.298,0.099-0.375
		l4.15-2.397c0.135-0.077,0.305-0.033,0.386,0.098c0.074,0.134,0.025,0.303-0.11,0.377L104.763,116.882z"/>
</g>
<path class="st1" d="M141.651,65.284L71.353,24.375c-1.444-0.841-2.417-0.808-3.711-0.009l-2.393,1.476
	c-1.986,1.225-2.808,1.808-2.809,4.696l-0.046,66.784c-0.001,3.71,2.265,8.069,5.036,9.68l52.598,26.921l26.656-15.393V74.964
	C146.683,71.255,144.424,66.897,141.651,65.284z"/>
<path class="st4" d="M140.532,67.214L70.234,26.305c-0.373-0.219-0.624-0.324-0.783-0.324c-0.138,0-0.343,0.095-0.639,0.278
	l-2.395,1.48c-0.755,0.467-1.282,0.799-1.485,1.094c-0.184,0.268-0.267,0.763-0.267,1.707l-0.045,75.828
	c-0.002,1.482,0.471,3.133,1.234,4.597c0.728,1.403,1.688,2.568,2.693,3.15l25.884,15.12l-4.454,2.572l-23.667-13.83l-6.144-3.792
	l0.043-83.644c0.003-1.942,0.331-3.186,1.054-4.237c0.704-1.022,1.584-1.594,2.812-2.353l2.395-1.48
	c1-0.614,1.923-0.937,2.959-0.943c1.013-0.006,1.97,0.295,3.039,0.914l70.3,40.913c1.764,1.026,3.318,2.845,4.418,4.951
	c1.07,2.056,1.733,4.44,1.733,6.659v42.274l-4.477,2.584v-44.86c0-1.494-0.466-3.144-1.218-4.598
	C142.493,68.964,141.543,67.798,140.532,67.214z"/>
<path class="st5" d="M141.651,65.284L71.342,24.396c-1.722-1.001-2.831-0.543-3.984,0.161l-3.212,1.903l1.846,2.493l12.615,55.525
	c0.599,3.661,2.661,7.529,5.037,9.677l43.446,35.692l19.593-11.315V74.964C146.683,71.255,144.424,66.896,141.651,65.284z"/>
<path class="st4" d="M141.513,65.527L71.201,24.638c-0.802-0.464-1.452-0.594-2.033-0.523c-0.584,0.071-1.118,0.345-1.664,0.68
	l-0.003,0.002l-2.947,1.746l1.663,2.247l0.051,0.121l12.614,55.525c0.293,1.782,0.938,3.615,1.802,5.27
	c0.876,1.686,1.976,3.184,3.148,4.245l43.514,35.75l-0.514,0.291L83.458,94.361c-1.225-1.106-2.369-2.657-3.27-4.397
	c-0.889-1.704-1.555-3.598-1.856-5.441L65.728,29.064l-1.805-2.438l-0.185-0.249l0.268-0.156l3.21-1.903
	c0.605-0.37,1.2-0.677,1.886-0.758c0.692-0.083,1.46,0.062,2.379,0.599l70.308,40.887c1.436,0.833,2.734,2.365,3.665,4.162
	c0.931,1.794,1.506,3.857,1.506,5.757v43.406l-0.555,0.321V74.964c0-1.812-0.555-3.785-1.446-5.499
	C144.068,67.755,142.849,66.304,141.513,65.527z"/>
<path class="st1" d="M137.768,67.638L67.429,26.731c-2.771-1.613-5.036,0.101-5.036,3.811v84.834l27.315,15.58l17.871,10.157
	l35.23-20.342V77.318C142.81,73.608,140.542,69.25,137.768,67.638z"/>
<path class="st6" d="M62.657,67.904l34.27,19.817l2.447,0.93V60.549c0-4.319-2.646-9.39-5.874-11.272L62.706,31.285L62.657,67.904z"
	/>
<path class="st7" d="M133.805,144.811l-13.821-8.172c-0.554-0.327-1.006-1.205-1.006-1.952v-6.577c0-0.747,0.453-1.09,1.006-0.762
	l13.821,8.172c0.554,0.327,1.006,1.205,1.006,1.952v6.577C134.812,144.796,134.359,145.139,133.805,144.811L133.805,144.811z
	 M72.333,48.172l61.718,36.491c0.404,0.239,0.734-0.176,0.734-0.923v-6.577c0-0.746-0.331-1.553-0.734-1.792L72.333,38.88
	c-0.404-0.239-0.735,0.176-0.735,0.923v6.577C71.598,47.127,71.929,47.933,72.333,48.172L72.333,48.172z M91.649,70.464
	L72.393,59.078c-0.405-0.239-0.735-1.045-0.735-1.792v-6.577c0-0.747,0.33-1.162,0.735-0.923l19.255,11.385
	c0.405,0.239,0.735,1.045,0.735,1.792v6.577C92.384,70.287,92.053,70.703,91.649,70.464L91.649,70.464z M112.862,83.007
	L94.526,72.152c-0.405-0.239-0.735-1.046-0.735-1.792v-6.577c0-0.746,0.331-1.162,0.735-0.923l18.336,10.855
	c0.404,0.239,0.735,1.046,0.735,1.792v6.577C113.598,82.83,113.267,83.246,112.862,83.007L112.862,83.007z M134.076,95.55
	l-18.289-10.827c-0.403-0.239-0.735-1.045-0.735-1.792v-6.577c0-0.747,0.332-1.162,0.735-0.923l18.289,10.827
	c0.403,0.239,0.735,1.046,0.735,1.792v6.577C134.812,95.373,134.48,95.789,134.076,95.55L134.076,95.55z M90.878,86.629
	L72.993,76.054c-0.79-0.467-1.437-2.045-1.437-3.505v-9.528c0-1.46,0.647-2.273,1.437-1.805l17.885,10.575
	c0.791,0.467,1.438,2.044,1.438,3.505v9.528C92.316,86.285,91.669,87.097,90.878,86.629L90.878,86.629z M112.126,99.193
	L95.16,89.148c-0.79-0.468-1.438-2.045-1.438-3.505v-9.528c0-1.46,0.648-2.273,1.438-1.805l16.966,10.045
	c0.791,0.468,1.438,2.045,1.438,3.505v9.528C113.564,98.847,112.916,99.66,112.126,99.193L112.126,99.193z M133.374,111.756
	l-16.918-10.017c-0.79-0.468-1.437-2.045-1.437-3.505v-9.528c0-1.46,0.646-2.273,1.437-1.805l16.918,10.017
	c0.791,0.468,1.438,2.045,1.438,3.505v9.528C134.812,111.411,134.163,112.223,133.374,111.756L133.374,111.756z M72.333,86.219
	l61.718,36.492c0.404,0.239,0.734-0.176,0.734-0.923v-6.577c0-0.746-0.331-1.553-0.734-1.792L72.333,76.926
	c-0.404-0.239-0.735,0.176-0.735,0.923v6.577C71.598,85.173,71.929,85.98,72.333,86.219L72.333,86.219z M72.333,97.658
	l61.718,36.492c0.404,0.239,0.734-0.176,0.734-0.923v-6.577c0-0.747-0.331-1.553-0.734-1.792L72.333,88.365
	c-0.404-0.239-0.735,0.176-0.735,0.923v6.577C71.598,96.612,71.929,97.419,72.333,97.658L72.333,97.658z M72.231,119.211
	l46.012,27.206c0.404,0.239,0.735-0.177,0.735-0.923c0,0.747,0.453,1.625,1.006,1.952l13.821,8.172
	c0.554,0.327,1.006-0.016,1.006-0.763v-6.577c0-0.747-0.453-1.625-1.006-1.952l-13.821-8.172c-0.554-0.327-1.006,0.016-1.006,0.763
	c0-0.747-0.331-1.553-0.735-1.792l-46.012-27.206c-0.404-0.239-0.735,0.176-0.735,0.923v6.577
	C71.495,118.166,71.826,118.972,72.231,119.211L72.231,119.211z M72.484,108.554l13.822,8.172c0.553,0.327,1.005-0.016,1.005-0.762
	v-6.577c0-0.747-0.452-1.625-1.005-1.952l-13.822-8.172c-0.554-0.327-1.006,0.016-1.006,0.763v6.577
	C71.478,107.349,71.93,108.227,72.484,108.554L72.484,108.554z M102.139,126.088l-13.821-8.172
	c-0.553-0.327-1.006-1.205-1.006-1.952v-6.577c0-0.747,0.453-1.09,1.006-0.763l13.821,8.173c0.554,0.327,1.006,1.205,1.006,1.952
	c0-0.747,0.453-1.09,1.006-0.763l13.822,8.172c0.553,0.327,1.005,1.205,1.005,1.952v6.577c0,0.747-0.452,1.09-1.005,0.763
	l-13.822-8.172c-0.553-0.327-1.006-1.205-1.006-1.952C103.145,126.072,102.693,126.415,102.139,126.088L102.139,126.088z"/>
<path class="st4" d="M137.629,67.88L67.29,26.971c-0.663-0.385-1.291-0.568-1.855-0.568c-0.446,0-0.851,0.114-1.205,0.332
	c-0.359,0.219-0.669,0.547-0.917,0.971c-0.407,0.699-0.64,1.662-0.64,2.838v66.782c0,1.81,0.554,3.783,1.447,5.499
	c0.89,1.708,2.111,3.16,3.449,3.94c13.931,8.551,21.846,13.782-0.279,0.481c-1.432-0.831-2.728-2.366-3.663-4.163
	c-0.933-1.791-1.513-3.856-1.513-5.756l0.002-66.782c0-1.278,0.26-2.332,0.716-3.116c0.293-0.507,0.67-0.901,1.108-1.168
	c0.443-0.271,0.949-0.413,1.495-0.413c0.661,0,1.384,0.207,2.134,0.643l70.337,40.908c1.436,0.834,2.734,2.368,3.676,4.166
	c0.931,1.791,1.506,3.855,1.506,5.755v43.29l-0.555,0.324V77.318c0-1.811-0.555-3.784-1.456-5.499
	C140.195,70.108,138.966,68.657,137.629,67.88z"/>
<g>
	<path class="st8" d="M39.457,34.605c0.208-0.158,2.07-1.406,2.317-1.595c1.605-1.188,2.577-1.05,4.151-0.149l37.046,21.258
		c2.121,1.518,3.399,3.949,3.448,6.557v32.254c0.132,1.646-0.623,3.239-1.981,4.179c-0.991,0.653-2.179,1.447-2.862,1.784h-1.932
		L42.002,77.297h-0.049l-0.158-0.098l-0.069-0.059h-0.049l-0.059-0.06v-0.147c-0.682-1.213-1.06-2.573-1.1-3.963V37.428
		c-0.131-1.112,0.374-2.204,1.308-2.823H39.457z"/>
	<path class="st9" d="M41.784,35.298l-0.426,0.287v0.199l-1.07,0.505l-0.069,0.128c-0.116,0.317-0.171,0.655-0.158,0.991v33.184
		c0.002,0.503,0.071,1.003,0.208,1.485c0.159,0.548,0.378,1.077,0.654,1.576c0,0.088,0.108,0.188,0.159,0.287l0.059,0.089
		l0.059,0.098l0.248,0.347l0.277,0.336l0.089,0.099l0.08,0.069l0.148,0.138l0.158,0.129l0.198,0.129c0,0,34.541,19.81,37.641,21.623
		c0.126,0.065,0.259,0.115,0.397,0.148l0.128-0.068c0.446-0.208,1.288-0.773,2.1-1.299l0.555-0.366
		c0.382-0.237,0.685-0.582,0.872-0.991c0.2-0.503,0.294-1.042,0.277-1.584V60.676c-0.025-1.039-0.296-2.057-0.793-2.971
		c-0.375-0.802-0.961-1.487-1.693-1.981L44.974,34.496c-0.327-0.232-0.702-0.389-1.099-0.456c-0.371,0.067-0.715,0.239-0.991,0.495
		L41.784,35.298L41.784,35.298z M37.575,33.684c0.252-0.264,0.544-0.487,0.861-0.665l2.18-1.485c0.905-0.757,2.038-1.19,3.219-1.228
		c1.062,0.054,2.091,0.396,2.972,0.991l37.047,21.256c1.378,0.825,2.503,2.015,3.249,3.439c0.776,1.442,1.202,3.047,1.239,4.684
		v32.254c0.018,1.061-0.189,2.114-0.604,3.09c-0.476,1.101-1.273,2.034-2.288,2.674l-0.555,0.367
		c-0.852,0.555-1.733,1.129-2.388,1.476c-0.114,0.054-0.234,0.101-0.356,0.138c-0.191,0.08-0.386,0.15-0.584,0.208
		c-0.25,0.059-0.506,0.099-0.763,0.119h-0.218c-0.228,0-0.466,0-0.694-0.069l-0.446-0.099h-0.248
		c-0.118-0.059-0.287-0.108-0.426-0.168l-0.317-0.159l-0.11-0.06c-8.577-4.953-21.257-11.451-30.894-17.453
		c-2.833-1.762-5.557-3.06-7.657-4.794l-0.159-0.15l-0.089-0.088l-0.059-0.059l-0.079-0.079l-0.069-0.06l-0.089-0.088
		c-0.36-0.364-0.691-0.755-0.991-1.17l-0.12-0.168l-0.149-0.228l-0.218-0.366l-0.198-0.277c-0.42-0.759-0.753-1.563-0.991-2.397
		c-0.227-0.808-0.346-1.64-0.356-2.477V37.428c-0.016-0.883,0.164-1.759,0.525-2.565C36.958,34.426,37.235,34.029,37.575,33.684z"/>
	<path class="st8" d="M81.545,98.892L45.34,74.831c-1.823-1.208-3.259-7.022-3.457-9.529l-2.427-30.708
		c0.208-0.147,2.07-1.396,2.317-1.585c1.615-1.188,2.585-1.05,4.151-0.149l37.046,21.258c2.121,1.518,3.399,3.949,3.448,6.557
		v32.254c0.132,1.646-0.623,3.239-1.981,4.179c-0.991,0.653-2.179,1.447-2.862,1.784L81.545,98.892L81.545,98.892z"/>
	<path class="st9" d="M45.5,74.573l36.055,23.953c0.545-0.288,1.347-0.812,2.11-1.318l0.565-0.368
		c0.641-0.411,1.144-1.003,1.446-1.702c0.292-0.699,0.433-1.453,0.416-2.209V60.676c-0.035-1.282-0.374-2.539-0.991-3.664
		c-0.516-1.067-1.315-1.971-2.308-2.616L45.766,33.129c-0.567-0.379-1.222-0.608-1.902-0.663c-0.705,0.053-1.373,0.334-1.902,0.802
		L40.893,34l-1.099,0.754l2.407,30.528c0.099,1.228,0.505,5.507,1.109,6.656C43.812,72.983,44.565,73.889,45.5,74.573L45.5,74.573z
		 M81.367,99.149l-36.205-24.06c-1.029-0.738-1.858-1.718-2.417-2.853c-0.644-1.228-1.07-5.596-1.179-6.933l-2.437-30.847
		l0.13-0.149l1.288-0.832l1.06-0.713c0.635-0.553,1.437-0.878,2.278-0.921c0.793,0.042,1.56,0.299,2.219,0.743L83.14,53.852
		c1.098,0.702,1.981,1.692,2.555,2.862c0.653,1.222,1.013,2.578,1.051,3.961v32.254c0.012,0.844-0.145,1.684-0.466,2.466
		c-0.348,0.815-0.936,1.506-1.684,1.98l-0.565,0.368c-0.861,0.565-1.762,1.158-2.337,1.445l-0.169,0.07l-0.147-0.098L81.367,99.149z
		"/>
	<path class="st10" d="M79.238,98.744L41.596,77.149c-2.125-1.515-3.406-3.947-3.458-6.557V37.428c0-2.515,1.556-3.684,3.458-2.594
		l37.641,21.604c2.138,1.52,3.419,3.973,3.447,6.596v33.164c0,2.516-1.545,3.686-3.447,2.597V98.744z"/>
	<path class="st9" d="M41.765,76.902l37.64,21.603c0.361,0.227,0.774,0.353,1.199,0.368c0.272,0,0.54-0.076,0.773-0.219
		c0.243-0.155,0.444-0.37,0.584-0.623c0.299-0.571,0.443-1.21,0.416-1.854V63.033c-0.041-1.281-0.38-2.536-0.991-3.664
		c-0.522-1.065-1.324-1.969-2.318-2.616L41.428,35.16c-0.364-0.225-0.782-0.351-1.208-0.367c-0.269-0.003-0.533,0.068-0.763,0.208
		c-0.246,0.158-0.45,0.371-0.594,0.624c-0.295,0.572-0.438,1.21-0.417,1.853v33.114c0.041,1.282,0.381,2.536,0.991,3.665
		C39.954,75.336,40.76,76.252,41.765,76.902L41.765,76.902z M79.079,99.021L41.438,77.417c-1.102-0.706-1.989-1.7-2.565-2.873
		c-0.658-1.221-1.018-2.578-1.05-3.962V37.428c-0.013-0.742,0.164-1.475,0.515-2.13c0.192-0.343,0.468-0.633,0.802-0.842
		c0.331-0.201,0.712-0.307,1.1-0.307c0.539,0.017,1.066,0.174,1.525,0.456l37.64,21.594c1.097,0.706,1.978,1.7,2.546,2.874
		c0.663,1.217,1.027,2.575,1.06,3.961v33.155c0.024,0.755-0.15,1.502-0.506,2.169c-0.194,0.344-0.47,0.637-0.802,0.851
		c-0.332,0.2-0.713,0.303-1.099,0.298c-0.539-0.011-1.065-0.166-1.526-0.446V99.021z"/>
	<path class="st9" d="M48.86,63.797l14.427,8.328v2.428L48.88,66.214L48.86,63.797L48.86,63.797z M48.86,51.545v2.427l23.115,13.41
		v-2.446L48.86,51.545L48.86,51.545z M48.86,57.418v2.417l23.115,13.39v-2.417L48.86,57.418z"/>
</g>
<path class="st0" d="M20.794,175.403v-48.972c0-0.793,0.423-1.526,1.109-1.922l66.922-38.632c0.695-0.405,1.553-0.405,2.249,0
	l71.942,41.525c0.762,0.366,1.246,1.137,1.249,1.981v48.993c-0.083,3.581-1.012,7.091-2.715,10.241
	c-1.536,3.09-3.877,5.708-6.775,7.578l-50.013,29.033c-1.203,0.731-2.56,1.169-3.962,1.279c-1.392,0.097-2.779-0.25-3.961-0.991
	l-71.835-41.356c-0.132-0.057-0.254-0.13-0.366-0.217c-1.303-0.847-2.316-2.069-2.903-3.507c-0.646-1.602-0.962-3.316-0.932-5.042
	L20.794,175.403L20.794,175.403z M25.252,127.709v47.695c-0.03,1.12,0.165,2.235,0.574,3.279c0.228,0.618,0.642,1.147,1.188,1.515
	l0.159,0.09l71.815,41.365c0.118,0.051,0.232,0.114,0.337,0.189c0.374,0.195,0.796,0.282,1.218,0.248
	c0.704-0.075,1.381-0.308,1.981-0.685l50.022-29.032c2.178-1.447,3.93-3.452,5.072-5.805c1.362-2.514,2.112-5.314,2.19-8.172V130.68
	L89.964,90.364L25.252,127.709z"/>
<path class="st6" d="M23.32,126.479v48.965c0,3.338,1.129,5.704,2.892,6.734l68.239,39.406c1.785,1.172,3.821,1.905,5.944,2.139
	l26.061-21.386c4.606-2.636,8.39-9.797,8.39-15.908v-41.02l-39.334,21.843L23.32,126.49C23.32,126.49,23.32,126.479,23.32,126.479z"
	/>
<path class="st0" d="M134.618,186.439c-0.077,3.189-0.909,6.315-2.427,9.123c-1.3,2.671-3.312,4.933-5.814,6.537l-27.082,18.176
	l-0.108,0.06l-0.684,3.318l-72.311-41.763c-0.92-0.575-1.632-1.428-2.03-2.437c-0.514-1.291-0.763-2.671-0.734-4.061v-48.755
	l71.904,41.137l0.14,0.081l0.138-0.081l38.978-21.93L134.618,186.439L134.618,186.439z M134.767,145.172l-39.256,22.089
	l-72.24-41.336l-0.417-0.248v49.657l0.109,0.446v0.278l-0.13-0.724c-0.033,1.464,0.234,2.922,0.783,4.279l-0.198-1.07l0.208,0.811
	l0.377,0.724l-0.386-0.465c0.374,0.948,0.997,1.78,1.802,2.407c0.149,0.109,0.297,0.199,0.447,0.287l-0.367-0.437h0.05l0.317,0.427
	l0.653,0.377l72.004,41.602l0.326,0.199l0.079-0.376l0.713-3.457l26.972-18.058c2.594-1.659,4.682-3.999,6.033-6.767
	c1.56-2.885,2.415-6.1,2.496-9.379v-41.506L134.767,145.172z"/>
<path class="st1" d="M95.67,167.539v48.883c0,6.091,3.784,8.916,8.379,6.329l49.617-28.458c4.597-2.624,8.381-9.786,8.381-15.898
	v-48.993l-66.228,38.225L95.67,167.539z"/>
<path class="st0" d="M95.313,216.451v-49.348l0.415,0.237l66.179-38.196l0.416-0.247v49.478c-0.081,3.28-0.936,6.494-2.496,9.38
	c-1.354,2.771-3.45,5.112-6.053,6.765l-49.695,28.499c-1.032,0.625-2.21,0.967-3.418,0.992c-0.86,0.008-1.703-0.227-2.437-0.675
	c-0.763-0.496-1.387-1.177-1.812-1.981c-0.792-1.528-1.182-3.232-1.129-4.953L95.313,216.451L95.313,216.451z M95.868,167.915
	v48.536c-0.059,1.632,0.306,3.248,1.059,4.696c0.383,0.706,0.938,1.302,1.615,1.732c0.648,0.403,1.398,0.61,2.16,0.596
	c1.116-0.049,2.199-0.391,3.139-0.991l49.685-28.489c2.502-1.606,4.512-3.868,5.817-6.538c1.517-2.811,2.349-5.94,2.427-9.133
	v-48.537l-65.882,38.127H95.868z"/>
<polygon class="st11" points="89.835,87.72 162.047,129.403 95.679,167.539 23.617,125.936 "/>
<polygon class="st1" points="51.48,114.484 51.48,110.205 23.547,126.253 95.639,167.856 161.908,129.69 153.22,124.171 
	95.551,162.822 41.675,132.116 30.948,126.668 51.49,114.484 "/>
<path class="st0" d="M161.49,129.432L89.884,88.076l-66.03,38.017L95.7,167.36l65.791-37.957V129.432L161.49,129.432z
	 M90.023,87.541l72.162,41.603c0.134,0.075,0.182,0.243,0.11,0.377l-0.11,0.098l-66.367,38.286c-0.092,0.055-0.206,0.055-0.297,0
	l-72.38-41.603c-0.133-0.075-0.183-0.243-0.108-0.377l0.108-0.099l66.605-38.285H90.023z"/>
<path class="st2" d="M62.416,167.063l-9.212-5.358l-3.031,2.108l2.12,4.606l3.239,9.906l2.615,3.318
	c3.733-2.228,4.19-2.733,4.269-5.943v-8.647V167.063z"/>
<path class="st0" d="M53.412,161.357l9.233,5.328c0.145,0.07,0.237,0.217,0.237,0.378v8.637c0.114,1.252-0.181,2.506-0.841,3.576
	c-1.025,1.12-2.251,2.037-3.616,2.705c-0.18,0.117-0.421,0.078-0.554-0.091l-2.665-3.22l-3.24-9.905v-0.068l-2.199-4.657
	c-0.097-0.186-0.042-0.414,0.129-0.535l3.03-2.139c0.136-0.088,0.311-0.088,0.447,0L53.412,161.357L53.412,161.357z M62.001,167.3
	l-8.776-5.101l-2.526,1.794l1.981,4.249l3.219,9.905l2.378,2.972c1.155-0.577,2.195-1.36,3.07-2.308
	c0.547-0.933,0.786-2.014,0.685-3.092L62.001,167.3z"/>
<path class="st6" d="M59.395,168.945l-9.222-5.132v9.768c0,7.795,9.222,11.402,9.222,5.29V168.945z"/>
<path class="st0" d="M50.371,163.487l9.192,5.071c0.151,0.07,0.248,0.221,0.248,0.387v9.965c0.156,1.326-0.521,2.609-1.704,3.229
	c-0.602,0.259-1.267,0.335-1.912,0.219c-0.728-0.118-1.427-0.374-2.06-0.754c-2.765-1.701-4.426-4.737-4.368-7.984v-10.015
	c0.113-0.198,0.365-0.269,0.565-0.158L50.371,163.487L50.371,163.487z M58.97,169.183l-8.381-4.627v9.064
	c-0.054,2.954,1.452,5.716,3.962,7.272c0.543,0.32,1.14,0.54,1.764,0.644c0.485,0.087,0.983,0.031,1.436-0.16
	c0.873-0.493,1.353-1.473,1.208-2.466v-9.728H58.97z"/>
<path class="st12" d="M121.345,95.337H70.272v31.242c0.042,1.778,1.006,3.406,2.545,4.299c5.586,2.891,28.459,16.323,28.459,16.323
	l15.849-38.195l4.229-2.446V95.337H121.345z"/>
<polygon class="st13" points="153.23,115.94 102.148,115.94 102.148,128.373 109.983,145.648 121.82,148.075 153.23,129.947 "/>
<polygon class="st14" points="122.345,136.613 71.262,136.613 71.262,149.074 95.551,162.822 118.115,150.313 122.355,147.865 
	122.355,136.613 "/>
<path class="st15" d="M132.489,102.399l18.988,10.807c2.635,1.495,2.278,4.151-0.783,5.944l-17.433,9.905
	c-3.06,1.742-7.716,1.981-10.351,0.447l-18.998-10.808c-2.635-1.497-2.279-4.15,0.782-5.944l17.433-9.905
	C125.188,101.101,129.853,100.864,132.489,102.399z"/>
<path class="st16" d="M100.602,81.746l18.989,10.808c2.635,1.497,2.288,4.15-0.783,5.944l-17.433,9.905
	c-3.061,1.743-7.717,1.981-10.352,0.447L72.035,98.001c-2.636-1.496-2.288-4.15,0.773-5.943l17.433-9.906
	c3.07-1.743,7.726-1.98,10.361-0.444V81.746z"/>
<path class="st17" d="M101.583,123.201l18.999,10.896c2.624,1.497,2.278,4.15-0.783,5.944l-17.434,9.905
	c-3.061,1.744-7.726,1.981-10.352,0.447l-18.998-10.896c-2.635-1.506-2.278-4.151,0.782-5.895l17.434-9.906
	c3.061-1.742,7.717-1.981,10.352-0.444V123.201z"/>
<path class="st0" d="M153.23,128.668l0.852,0.496c0.131,0.078,0.174,0.246,0.099,0.377l-0.109,0.099l-58.344,33.679
	c-0.089,0.06-0.206,0.06-0.297,0l-64.484-36.651c-0.134-0.074-0.185-0.241-0.11-0.375l0.11-0.119l44.574-25.546v0.633l-43.931,25.16
	l63.96,36.335l57.789-33.363l-0.148-0.088v-0.643L153.23,128.668z"/>
<path class="st18" d="M122.771,176.651l-1.129,0.624l-0.902,0.496l-1.139,0.624c-1.125,0.709-1.838,1.92-1.911,3.248v4.776
	c0,1.139,0.772,1.663,1.743,1.227v7.014c-0.084,0.441,0.207,0.865,0.649,0.948c0.232,0.044,0.473-0.017,0.658-0.165l0.902-0.495
	c0.768-0.486,1.255-1.312,1.306-2.22v-7.011c1.027-0.733,1.669-1.892,1.743-3.15v-4.774c0.108-0.653-0.333-1.27-0.987-1.379
	C123.375,176.358,123.035,176.444,122.771,176.651L122.771,176.651z M121.087,170.451c-1.24,0.771-2.023,2.098-2.1,3.555
	c0,1.327,0.94,1.893,2.1,1.248c1.237-0.772,2.023-2.098,2.099-3.557C123.187,170.372,122.196,169.807,121.087,170.451
	L121.087,170.451z M130.805,161.477c-1.484,0.929-2.422,2.521-2.516,4.27c0,1.585,1.129,2.257,2.516,1.485
	c1.483-0.925,2.421-2.514,2.516-4.261C133.321,161.377,132.191,160.714,130.805,161.477L130.805,161.477z M140.71,159.634
	c-1.205,0.751-1.968,2.047-2.04,3.468c0,1.287,0.911,1.832,2.04,1.207c1.204-0.751,1.964-2.04,2.042-3.456
	C142.751,159.555,141.839,159.02,140.71,159.634L140.71,159.634z M142.394,165.578l-1.981,1.119l-1.129,0.623
	c-1.134,0.704-1.851,1.918-1.921,3.25v4.774c0,1.138,0.772,1.653,1.742,1.228v7.051c-0.076,0.444,0.22,0.863,0.662,0.94
	c0.229,0.039,0.464-0.021,0.646-0.165l0.901-0.496c0.768-0.485,1.256-1.312,1.308-2.219v-7.014c1.027-0.727,1.669-1.882,1.743-3.139
	v-4.785c0-1.198-0.862-1.714-1.921-1.129L142.394,165.578L142.394,165.578z M132.825,169.123l-1.337,0.734l-1.05,0.574l-1.328,0.731
	c-1.322,0.829-2.161,2.247-2.248,3.805v5.605c0,1.337,0.901,1.981,2.04,1.437v8.221c-0.048,0.546,0.354,1.026,0.9,1.074
	c0.224,0.019,0.448-0.038,0.635-0.162l1.05-0.585c0.905-0.567,1.476-1.539,1.536-2.605v-8.212c1.204-0.854,1.955-2.211,2.041-3.684
	v-5.606c0.143-0.753-0.348-1.48-1.102-1.624c-0.407-0.078-0.827,0.03-1.147,0.296H132.825z"/>
<path class="st1" d="M87.211,136.345c0.316-0.197,0.395-0.375,0.277-0.563c-0.189-0.233-0.485-0.354-0.783-0.318h-2.972
	c-0.485,0-0.842,0.219-0.832,0.486c0.01,0.268,0.357,0.476,0.852,0.476h2.913C86.849,136.417,87.032,136.391,87.211,136.345
	L87.211,136.345z M111.281,135.465h-3.07c-0.281-0.027-0.554,0.093-0.724,0.317c-0.108,0.188,0,0.355,0.189,0.535
	c0.177,0.055,0.36,0.092,0.545,0.108h3.06c0.455,0,0.783-0.228,0.783-0.485C112.063,135.683,111.717,135.475,111.281,135.465
	L111.281,135.465z M97.472,130.134c0.466,0,0.832-0.208,0.842-0.483v-1.705c0-0.119-0.118-0.248-0.149-0.307
	c-0.298-0.176-0.653-0.23-0.991-0.147c-0.336,0.079-0.515,0.238-0.515,0.446v1.714C96.66,129.967,97.026,130.134,97.472,130.134
	L97.472,130.134z M97.492,141.714c-0.436,0-0.822,0.189-0.832,0.437v1.812c0,0.199,0.207,0.337,0.535,0.407
	c0.336,0.084,0.69,0.033,0.991-0.14c0-0.059,0.159-0.167,0.159-0.267v-1.802C98.304,141.903,97.928,141.725,97.492,141.714
	L97.492,141.714z M105.733,131.839l1.981-1.159c0.357-0.218,0.376-0.515,0.06-0.704c-0.387-0.208-0.852-0.208-1.238,0l-0.991,0.584
	l-0.991,0.584c-0.366,0.219-0.386,0.515,0,0.714C104.929,132.036,105.366,132.03,105.733,131.839L105.733,131.839z M106.724,140.636
	l-0.991-0.595c-0.37-0.193-0.809-0.193-1.178,0c-0.346,0.199-0.356,0.486,0,0.704c0.674,0.407,1.367,0.802,2.061,1.198
	c0.378,0.2,0.83,0.2,1.208,0c0.317-0.189,0.297-0.485,0-0.685L106.724,140.636L106.724,140.636z M89.261,131.859
	c0.371,0.199,0.816,0.199,1.188,0c0.337-0.199,0.327-0.486,0-0.694l-0.991-0.594l-0.991-0.584c-0.38-0.198-0.83-0.198-1.208,0
	c-0.337,0.188-0.337,0.496,0,0.703L89.261,131.859L89.261,131.859z M89.618,140.506l-1.813-1.05c-0.385-0.213-0.853-0.213-1.239,0
	c-0.228,0.119-0.446,0.248-0.653,0.376c-0.209,0.129-0.525,0.514-0.287,0.793c0.237,0.277,0.069,0.385-0.129,0.565l-0.069,0.078
	c-0.267,0.268-0.208,0.524,0.169,0.753l1.089,0.624c0.872,0.515,0.991,0.525,2.091,0.158c0.152-0.049,0.314-0.049,0.466,0
	c0.516,0.158,1.073,0.107,1.555-0.137l0.535-0.307c0.505-0.298,0.515-0.555,0-0.842L89.618,140.506L89.618,140.506z
	 M101.673,132.354c3.397,1.387,4.299,3.951,2.02,6.003c-1.684,1.344-3.789,2.045-5.943,1.981c-1.398,0.002-2.783,0.267-4.082,0.782
	c-0.513,0.214-1.095,0.184-1.585-0.079l-1.644-0.989l-1.615-0.931c-0.465-0.307-0.515-0.674-0.129-0.991
	c0.74-0.526,1.217-1.347,1.308-2.249c0.059-1.217,0.832-2.248,2.348-3.09C95.266,131.372,98.637,131.214,101.673,132.354
	L101.673,132.354z M102.059,97.981c-0.931,0.484-2.04,0.484-2.972,0c-0.793-0.436-0.911-1.178-0.069-1.693
	c0.93-0.488,2.042-0.488,2.972,0C102.763,96.714,102.881,97.447,102.059,97.981L102.059,97.981z M97.314,99.834
	c-0.306,0.174-0.642,0.286-0.992,0.327c-1.445,0.181-2.911,0.062-4.309-0.347c-0.583-0.159-1.144-0.389-1.674-0.684
	c-0.764-0.407-1.373-1.055-1.733-1.841c-0.223-0.508-0.223-1.087,0-1.595c0.113-0.264,0.317-0.478,0.574-0.604
	c0.209-0.107,0.457-0.107,0.664,0c0.307,0.171,0.601,0.363,0.881,0.574c0.515,0.407,0.991,0.832,1.507,1.249
	c0.729,0.546,1.529,0.992,2.377,1.327l2.398,0.991c0.157,0.064,0.304,0.151,0.436,0.258C97.541,99.577,97.512,99.705,97.314,99.834
	L97.314,99.834z M92.361,92.345c0.936-0.466,2.035-0.466,2.971,0c0.474,0.171,0.719,0.694,0.547,1.167
	c-0.093,0.255-0.293,0.455-0.547,0.546c-0.934,0.472-2.037,0.472-2.971,0c-0.472-0.158-0.727-0.668-0.569-1.14
	c0.079-0.237,0.255-0.429,0.48-0.533L92.361,92.345L92.361,92.345z M107.22,94.327c-0.518-1.119-1.351-2.062-2.398-2.714
	c-1.546-0.998-3.278-1.672-5.09-1.981c-1.358-0.268-2.738-0.391-4.121-0.366c-1.536,0.01-3.062,0.213-4.547,0.603
	c-1.607,0.395-3.12,1.098-4.457,2.071c-0.849,0.62-1.529,1.441-1.981,2.388c-0.235,0.547-0.353,1.138-0.347,1.733
	c0.209,1.366,0.876,2.62,1.892,3.556c0.876,0.772,1.881,1.379,2.972,1.793c1.645,0.667,3.382,1.071,5.151,1.199
	c1.731,0.151,3.473,0.068,5.181-0.248c1.964-0.314,3.839-1.047,5.497-2.15c0.929-0.62,1.686-1.465,2.2-2.456
	C107.706,96.679,107.723,95.417,107.22,94.327z"/>
<g>
	<path class="st19" d="M27.802,149.693l-0.654,0.453c-0.634,0.439-1.67-0.159-2.303-1.329l-0.781-1.44l-4.178,2.393l-0.125,0.071
		l-0.002,0.001c-0.281,0.129-0.639,0.098-1.025-0.127l-2.527-1.458c-0.895-0.517-1.629-1.871-1.629-3.01v-2.794
		c-1.039-0.942-2.019-2.033-2.924-3.23l-1.557,1.079c-0.634,0.441-1.671-0.158-2.303-1.329l-1.786-3.299
		c-0.634-1.171-0.634-2.486,0-2.926l1.556-1.079c-0.53-1.452-0.943-2.937-1.212-4.411l-2.2-1.272
		c-0.896-0.516-1.629-1.87-1.629-3.009v-3.208c0-0.617,0.214-1.047,0.553-1.232l4.059-2.432l-1.126-2.083
		c-0.634-1.17-0.634-2.486,0-2.925l1.786-1.237l0.067-0.042l7.533-4.312c0.634-0.439,1.672,0.159,2.304,1.329l0.793,1.464
		l4.212-2.447c0.292-0.175,0.68-0.16,1.104,0.085l2.527,1.458c0.897,0.517,1.629,1.871,1.629,3.009v2.795
		c1.04,0.942,2.021,2.032,2.925,3.229l1.556-1.078c0.634-0.437,1.67,0.16,2.303,1.331l1.785,3.298c0.635,1.171,0.635,2.486,0,2.925
		l-1.556,1.08c0.53,1.453,0.944,2.937,1.214,4.413l2.2,1.27c0.896,0.519,1.628,1.873,1.628,3.011v3.206
		c0,0.694-0.272,1.154-0.688,1.29l-3.973,2.284l1.175,2.173c0.635,1.171,0.635,2.486,0,2.927
		C33.732,146.496,30.784,147.993,27.802,149.693L27.802,149.693z M19.36,124.038c0.46,2.782,1.923,5.654,3.824,7.574
		C22.725,128.831,21.261,125.959,19.36,124.038z"/>
	<path class="st20" d="M26.678,152.814c-0.278,0-0.562-0.033-0.845-0.101c-1.02-0.243-1.969-0.917-2.699-1.897l-1.927,1.103
		c-0.122,0.08-0.25,0.149-0.382,0.21c-1.056,0.481-2.272,0.394-3.352-0.229l-2.527-1.458c-1.675-0.968-2.89-3.151-2.89-5.195v-1.715
		c-0.301-0.299-0.597-0.611-0.887-0.934c-0.721,0.376-1.554,0.469-2.384,0.273c-1.277-0.305-2.447-1.287-3.211-2.696l-1.786-3.298
		c-1.29-2.385-0.961-4.992,0.782-6.201l0.008-0.005c-0.177-0.599-0.333-1.199-0.469-1.793l-1.219-0.704
		C1.216,127.203,0,125.02,0,122.976v-3.208c0-1.522,0.701-2.811,1.873-3.449l1.896-1.136c-1.267-2.374-0.933-4.959,0.802-6.161
		l1.786-1.239l0.285-0.176l7.438-4.256c0.773-0.49,1.701-0.637,2.631-0.414c1.022,0.245,1.976,0.922,2.706,1.906l2.022-1.173
		c1.062-0.639,2.432-0.614,3.636,0.083l2.523,1.457c1.675,0.963,2.892,3.15,2.892,5.193v1.717c0.301,0.298,0.596,0.609,0.887,0.933
		c0.721-0.376,1.553-0.471,2.386-0.272c1.276,0.306,2.445,1.288,3.207,2.696l1.785,3.298c1.294,2.386,0.965,4.993-0.784,6.201
		l-0.003,0.004c0.177,0.599,0.333,1.198,0.47,1.795l1.216,0.702c1.677,0.97,2.891,3.154,2.891,5.197v3.206
		c0,1.657-0.799,2.994-2.112,3.568l-1.683,0.968l0.004,0.012c1.294,2.383,0.965,4.992-0.782,6.199
		c-2.173,1.504-4.43,2.756-6.616,3.967c-0.733,0.406-1.469,0.813-2.208,1.234l-0.563,0.389
		C28.02,152.612,27.364,152.814,26.678,152.814L26.678,152.814z M24.064,144.851c0.232,0,0.462,0.034,0.69,0.097
		c0.654,0.186,1.204,0.628,1.53,1.224l0.613,1.134c0.673-0.382,1.345-0.755,2.014-1.125c1.909-1.057,3.723-2.063,5.472-3.217
		l-0.066-0.135l-1.177-2.174c-0.651-1.202-0.223-2.705,0.961-3.388l3.396-1.954v-2.639c0-0.251-0.238-0.72-0.4-0.847l-2.166-1.247
		c-0.639-0.37-1.088-1.003-1.219-1.731c-0.241-1.314-0.611-2.66-1.103-4.003c-0.394-1.079-0.009-2.286,0.934-2.94l0.846-0.584
		l-0.071-0.143l-1.596-2.951l-0.393,0.273c-1.112,0.77-2.636,0.526-3.451-0.553c-0.823-1.09-1.699-2.059-2.606-2.88
		c-0.528-0.479-0.828-1.158-0.828-1.87v-2.795c0-0.25-0.24-0.718-0.4-0.846l-1.855-1.068l-3.427,1.99
		c-0.59,0.341-1.293,0.431-1.951,0.248c-0.656-0.185-1.21-0.627-1.536-1.228l-0.658-1.213l-6.451,3.691l-1.007,0.699l0.067,0.142
		l1.13,2.084c0.643,1.188,0.236,2.671-0.923,3.367l-3.386,2.03v2.677c0,0.25,0.239,0.718,0.401,0.847l2.165,1.248
		c0.642,0.371,1.087,1.003,1.221,1.731c0.24,1.312,0.61,2.66,1.1,4.003c0.394,1.078,0.012,2.285-0.932,2.939l-0.843,0.585
		l0.068,0.144l1.597,2.953l0.394-0.275c1.114-0.77,2.635-0.526,3.451,0.554c0.821,1.088,1.697,2.056,2.606,2.88
		c0.527,0.478,0.828,1.158,0.828,1.869v2.794c0,0.251,0.239,0.719,0.4,0.846l1.857,1.072l3.447-1.978
		C23.194,144.966,23.628,144.851,24.064,144.851L24.064,144.851z M35.099,120.828l-0.003,0.003L35.099,120.828L35.099,120.828z
		 M4.471,120.642l-0.098,0.059L4.471,120.642L4.471,120.642z M22.549,108.12l0.002,0.002L22.549,108.12L22.549,108.12z
		 M24.001,108.017l-0.041,0.021L24.001,108.017L24.001,108.017z M16.833,107.578l-0.002,0.002L16.833,107.578L16.833,107.578z
		 M23.185,134.134c0.389,0,0.783-0.09,1.146-0.276c0.979-0.499,1.521-1.574,1.342-2.659c-0.543-3.286-2.231-6.627-4.521-8.934
		c-0.773-0.781-1.961-0.971-2.939-0.473c-0.979,0.5-1.522,1.577-1.342,2.658c0.544,3.287,2.233,6.627,4.521,8.938
		C21.878,133.876,22.527,134.134,23.185,134.134z"/>
	<path class="st21" d="M27.965,113.197c1.04,0.942,1.927,1.905,2.828,3.102l1.654-0.952c0.667-0.386,1.67,0.16,2.303,1.331
		l1.785,3.298c0.635,1.171,0.635,2.486,0,2.925l-1.556,1.08c0.53,1.453,0.944,2.937,1.214,4.413l2.2,1.27
		c0.896,0.519,1.628,1.873,1.628,3.011v3.206c0,0.694-0.272,1.154-0.688,1.29l-3.973,2.284l1.175,2.173
		c0.635,1.171,0.635,2.486,0,2.927c-2.803,1.941-5.751,3.437-8.733,5.138l-1.395-3.663l-6.647,3.81l-1.112-7.591l6.511,2.431
		l-1.35-0.78c-0.895-0.516-1.628-1.871-1.628-3.009v-0.998l-2.19,1.42l-6.859-3.901l-4.485-13.587l3.043-2.235
		c-0.607-0.378-1.13-1.138-1.39-1.94l-3.582,4.234l-3.642-5.349l5.922-3.548l-1.145-5.166l7.542-4.318
		c0.634-0.439,1.671,0.161,2.304,1.329l0.777,1.435l4.228-2.418c0.292-0.175,0.68-0.16,1.104,0.085l2.527,1.458
		c0.897,0.517,1.629,1.871,1.629,3.009L27.965,113.197L27.965,113.197z M26.93,133.787l-7.067-14.569
		c-0.42,0.784-0.656,1.809-0.656,3.043c0,4.115,2.628,8.966,5.866,10.835C25.722,133.471,26.347,133.697,26.93,133.787z"/>
	<path class="st20" d="M19.76,150.157l-0.138-0.031c-0.092-0.047-0.159-0.135-0.174-0.238l-1.113-7.592
		c-0.015-0.11,0.028-0.221,0.117-0.291c0.085-0.072,0.202-0.09,0.306-0.051l4.105,1.532c-0.591-0.708-0.997-1.709-0.997-2.594
		v-0.419l-1.7,1.104c-0.099,0.064-0.225,0.069-0.327,0.009l-6.862-3.9l-0.143-0.175l-4.485-13.587
		c-0.044-0.129,0.001-0.271,0.113-0.352l2.702-1.985c-0.378-0.338-0.718-0.807-0.961-1.33l-3.243,3.831l-0.257,0.11
		c-0.099-0.003-0.188-0.056-0.243-0.136l-3.64-5.35l-0.048-0.245l0.146-0.203l5.725-3.432l-1.095-4.944
		c-0.029-0.136,0.032-0.275,0.151-0.343l7.542-4.318c0.256-0.176,0.594-0.231,0.959-0.146c0.656,0.156,1.323,0.755,1.779,1.6
		l0.623,1.151l3.95-2.257c0.398-0.242,0.905-0.211,1.418,0.085l2.526,1.459c0.986,0.568,1.786,2.04,1.786,3.281v2.656
		c0.969,0.887,1.782,1.771,2.596,2.829l1.414-0.812c0.303-0.175,0.661-0.214,1.041-0.105c0.639,0.182,1.259,0.749,1.697,1.558
		l1.785,3.298c0.723,1.334,0.68,2.798-0.099,3.336l-1.356,0.939c0.488,1.37,0.863,2.744,1.118,4.093l2.075,1.197
		c1.002,0.579,1.786,2.021,1.786,3.284v3.206c0,0.811-0.34,1.406-0.907,1.589l-3.646,2.106l1.028,1.904
		c0.723,1.331,0.68,2.797-0.099,3.334c-2.08,1.443-4.188,2.609-6.42,3.847c-0.774,0.428-1.554,0.862-2.336,1.306l-0.264,0.023
		l-0.188-0.184l-1.262-3.316l-6.327,3.625L19.76,150.157L19.76,150.157z M19.038,142.732l0.967,6.605l6.244-3.579l0.263-0.024
		l0.191,0.186l1.262,3.316c0.677-0.382,1.352-0.757,2.024-1.13c2.217-1.228,4.311-2.39,6.368-3.811
		c0.435-0.302,0.503-1.41-0.098-2.518l-1.176-2.173c-0.081-0.151-0.027-0.338,0.122-0.424l3.971-2.284
		c0.355-0.122,0.53-0.493,0.53-1.017v-3.206c0-1.023-0.673-2.277-1.471-2.737l-2.2-1.269c-0.081-0.046-0.136-0.126-0.153-0.217
		c-0.263-1.436-0.666-2.903-1.198-4.363c-0.051-0.136-0.001-0.287,0.115-0.369l1.557-1.078c0.435-0.301,0.503-1.408-0.098-2.515
		l-1.786-3.298c-0.351-0.65-0.843-1.119-1.315-1.253c-0.213-0.059-0.4-0.044-0.554,0.045l-1.654,0.952
		c-0.139,0.081-0.313,0.044-0.408-0.084c-0.878-1.161-1.737-2.106-2.789-3.059l-0.102-0.232v-2.795c0-1.023-0.673-2.276-1.473-2.736
		l-2.525-1.457c-0.306-0.177-0.587-0.209-0.786-0.087l-4.233,2.42l-0.243,0.029l-0.19-0.153l-0.777-1.434
		c-0.363-0.669-0.902-1.174-1.373-1.285c-0.186-0.046-0.346-0.024-0.473,0.065l-7.364,4.215l1.094,4.942
		c0.028,0.133-0.031,0.269-0.146,0.338l-5.634,3.378l3.22,4.73l3.314-3.918c0.073-0.088,0.191-0.129,0.302-0.106
		c0.111,0.02,0.203,0.102,0.239,0.212c0.242,0.747,0.737,1.444,1.257,1.769c0.087,0.055,0.142,0.151,0.148,0.257
		c0.003,0.104-0.045,0.203-0.13,0.264l-2.858,2.1l4.375,13.253l6.589,3.747l2.027-1.318c0.097-0.064,0.22-0.066,0.322-0.012
		c0.102,0.055,0.165,0.161,0.165,0.278v0.998c0,1.023,0.674,2.276,1.471,2.736l1.348,0.779c0.144,0.082,0.199,0.26,0.128,0.409
		c-0.069,0.148-0.241,0.216-0.395,0.161L19.038,142.732L19.038,142.732z M26.93,134.103c0.099,0,0.194-0.047,0.255-0.129
		c0.069-0.094,0.081-0.221,0.031-0.324l-7.068-14.568c-0.054-0.107-0.159-0.178-0.28-0.179c-0.125,0.003-0.229,0.063-0.284,0.166
		c-0.459,0.861-0.692,1.935-0.692,3.192c0,4.208,2.702,9.19,6.023,11.108c0.67,0.387,1.333,0.631,1.965,0.73L26.93,134.103
		L26.93,134.103z M19.876,119.97c-0.231,0.656-0.353,1.435-0.353,2.291c0,4.006,2.56,8.744,5.708,10.562
		c0.382,0.22,0.759,0.388,1.126,0.505L19.876,119.97z"/>
	<path class="st1" d="M20.362,117.552c1.041,0.942,2.022,2.033,2.926,3.229l1.557-1.078c0.633-0.437,1.669,0.161,2.303,1.331
		l1.785,3.298c0.633,1.171,0.633,2.487,0,2.926l-1.557,1.079c0.532,1.454,0.944,2.938,1.214,4.413l2.2,1.27
		c0.895,0.517,1.631,1.872,1.631,3.01v3.208c0,1.137-0.736,1.645-1.631,1.127l-2.2-1.271c-0.269,1.164-0.682,2.174-1.214,3.015
		l1.557,2.876c0.633,1.171,0.633,2.486,0,2.925l-1.785,1.237c-0.634,0.439-1.67-0.159-2.303-1.329l-1.557-2.878
		c-0.903,0.154-1.885,0.109-2.926-0.147v2.792c0,1.14-0.733,1.647-1.628,1.13l-2.527-1.458c-0.895-0.517-1.629-1.871-1.629-3.01
		v-2.794c-1.039-0.942-2.019-2.033-2.924-3.228l-1.557,1.076c-0.634,0.441-1.671-0.158-2.303-1.329l-1.786-3.299
		c-0.634-1.171-0.634-2.486,0-2.926l1.556-1.079c-0.53-1.452-0.943-2.937-1.212-4.411l-2.2-1.272
		c-0.896-0.516-1.629-1.87-1.629-3.009v-3.208c0-1.137,0.733-1.647,1.629-1.127l2.2,1.269c0.269-1.163,0.682-2.173,1.212-3.012
		l-1.556-2.876c-0.634-1.17-0.634-2.486,0-2.925l1.786-1.237c0.633-0.44,1.669,0.159,2.303,1.33l1.557,2.877
		c0.904-0.153,1.885-0.109,2.924,0.148v-2.795c0-1.137,0.734-1.646,1.629-1.13l2.527,1.461c0.895,0.515,1.628,1.871,1.628,3.009
		L20.362,117.552L20.362,117.552z M17.471,122.554c-3.239-1.87-5.865-0.052-5.865,4.062c0,4.114,2.626,8.963,5.865,10.836
		c3.24,1.868,5.865,0.051,5.865-4.063C23.336,129.275,20.711,124.424,17.471,122.554z"/>
	<path class="st20" d="M26.675,150.606c-0.106,0-0.217-0.014-0.328-0.041c-0.658-0.158-1.323-0.754-1.781-1.6l-1.451-2.682
		c-0.776,0.102-1.594,0.072-2.439-0.099v2.399c0,0.698-0.251,1.24-0.691,1.494c-0.404,0.232-0.904,0.201-1.41-0.092l-2.526-1.459
		c-0.985-0.569-1.785-2.039-1.785-3.282v-2.654c-0.933-0.857-1.832-1.844-2.678-2.937l-1.309,0.907
		c-0.277,0.191-0.615,0.247-0.982,0.16c-0.657-0.158-1.322-0.756-1.78-1.6l-1.786-3.299c-0.72-1.333-0.678-2.798,0.097-3.335
		l1.358-0.94c-0.487-1.369-0.863-2.744-1.117-4.092l-2.073-1.197c-0.985-0.569-1.788-2.042-1.788-3.283v-3.208
		c0-0.695,0.253-1.24,0.694-1.495c0.403-0.231,0.902-0.199,1.409,0.094l1.837,1.061c0.254-0.946,0.606-1.797,1.052-2.542
		l-1.47-2.715c-0.72-1.332-0.678-2.797,0.097-3.335l1.787-1.237c0.275-0.192,0.614-0.246,0.981-0.16
		c0.656,0.157,1.322,0.754,1.778,1.598l1.453,2.682c0.777-0.103,1.593-0.07,2.438,0.1v-2.401c0-0.694,0.25-1.238,0.692-1.493
		c0.401-0.233,0.902-0.2,1.409,0.092l2.525,1.458c0.985,0.569,1.786,2.041,1.786,3.283v2.655c0.931,0.856,1.831,1.841,2.677,2.936
		l1.31-0.905c0.277-0.191,0.615-0.248,0.98-0.161c0.657,0.156,1.324,0.754,1.782,1.6l1.785,3.298
		c0.721,1.333,0.678,2.796-0.098,3.335l-1.358,0.94c0.486,1.365,0.862,2.741,1.117,4.09l2.074,1.199
		c0.985,0.568,1.787,2.04,1.787,3.282v3.208c0,0.694-0.254,1.24-0.693,1.493c-0.404,0.231-0.904,0.2-1.409-0.092l-1.839-1.063
		c-0.254,0.947-0.606,1.801-1.052,2.542l1.47,2.716c0.721,1.333,0.678,2.797-0.098,3.335l-1.785,1.236
		C27.136,150.538,26.915,150.606,26.675,150.606L26.675,150.606z M23.288,145.625c0.115,0,0.222,0.063,0.276,0.165l1.557,2.876
		c0.361,0.668,0.901,1.173,1.373,1.285c0.186,0.047,0.348,0.025,0.475-0.064l1.786-1.236c0.435-0.302,0.5-1.41-0.097-2.518
		l-1.556-2.875c-0.055-0.1-0.052-0.222,0.009-0.318c0.52-0.825,0.915-1.805,1.171-2.916c0.025-0.097,0.092-0.179,0.183-0.218
		c0.092-0.042,0.197-0.034,0.282,0.017l2.201,1.27c0.303,0.174,0.579,0.207,0.779,0.092c0.24-0.139,0.378-0.485,0.378-0.947v-3.208
		c0-1.023-0.674-2.275-1.472-2.738l-2.2-1.269c-0.081-0.046-0.136-0.126-0.154-0.216c-0.264-1.438-0.666-2.906-1.198-4.361
		c-0.048-0.136-0.001-0.287,0.117-0.369l1.557-1.077c0.435-0.302,0.5-1.409-0.097-2.517l-1.786-3.299
		c-0.361-0.669-0.901-1.175-1.372-1.287c-0.191-0.046-0.349-0.024-0.474,0.066l-1.557,1.077c-0.138,0.095-0.329,0.067-0.431-0.069
		c-0.91-1.203-1.879-2.274-2.885-3.185c-0.066-0.06-0.104-0.144-0.104-0.234v-2.794c0-1.023-0.674-2.277-1.471-2.736l-2.526-1.458
		c-0.301-0.176-0.58-0.209-0.777-0.092c-0.24,0.138-0.378,0.485-0.378,0.947v2.795c0,0.097-0.045,0.187-0.121,0.249
		c-0.075,0.06-0.173,0.081-0.269,0.056c-0.983-0.243-1.924-0.292-2.796-0.144c-0.135,0.025-0.265-0.043-0.331-0.159l-1.556-2.877
		c-0.363-0.669-0.9-1.173-1.371-1.287c-0.191-0.046-0.349-0.022-0.476,0.066l-1.787,1.236c-0.435,0.301-0.503,1.408,0.099,2.517
		l1.557,2.876c0.054,0.101,0.049,0.222-0.011,0.318c-0.52,0.824-0.914,1.805-1.171,2.916c-0.024,0.098-0.091,0.178-0.182,0.219
		c-0.092,0.041-0.199,0.033-0.284-0.017l-2.2-1.27c-0.303-0.175-0.579-0.208-0.779-0.092c-0.24,0.138-0.379,0.483-0.379,0.947v3.208
		c0,1.023,0.677,2.276,1.473,2.736l2.201,1.27c0.078,0.047,0.136,0.125,0.152,0.217c0.261,1.434,0.665,2.901,1.198,4.363
		c0.051,0.135,0.001,0.285-0.115,0.368l-1.558,1.076c-0.436,0.303-0.502,1.41,0.098,2.518l1.786,3.299
		c0.36,0.669,0.901,1.174,1.372,1.287c0.186,0.043,0.347,0.021,0.473-0.066l1.56-1.078c0.136-0.094,0.327-0.065,0.431,0.069
		c0.904,1.198,1.876,2.271,2.883,3.186l0.103,0.232v2.794c0,1.023,0.674,2.277,1.472,2.736l2.525,1.461
		c0.303,0.172,0.58,0.205,0.779,0.091c0.24-0.139,0.377-0.484,0.377-0.949v-2.792c0-0.097,0.046-0.188,0.121-0.248
		c0.076-0.059,0.177-0.08,0.27-0.059c0.983,0.245,1.922,0.291,2.797,0.145L23.288,145.625L23.288,145.625z M19.899,138.502
		c0.603,0,1.167-0.147,1.675-0.437c1.321-0.763,2.078-2.467,2.078-4.676c0-4.208-2.701-9.19-6.023-11.109
		c-1.564-0.902-3.077-1.023-4.259-0.34c-1.319,0.762-2.078,2.466-2.078,4.676c0,4.207,2.702,9.189,6.022,11.107
		C18.209,138.241,19.088,138.502,19.899,138.502L19.899,138.502z M15.047,122.134c-0.496,0-0.956,0.116-1.362,0.352
		c-1.121,0.646-1.764,2.151-1.764,4.13c0,4.006,2.56,8.744,5.707,10.561c1.363,0.784,2.651,0.906,3.629,0.341
		c1.121-0.647,1.762-2.152,1.762-4.13c0-4.006-2.559-8.744-5.707-10.561C16.517,122.368,15.745,122.134,15.047,122.134z"/>
	<path class="st20" d="M32.113,141.683l-0.312-0.546l7.525-4.306l0.313,0.547L32.113,141.683L32.113,141.683z M28.746,133.022
		l-0.313-0.546l7.602-4.355l0.314,0.547L28.746,133.022L28.746,133.022z M28.785,127.741l-0.312-0.548l7.416-4.226l0.312,0.549
		L28.785,127.741L28.785,127.741z M24.672,120.203l-0.315-0.546l7.987-4.619l0.315,0.546L24.672,120.203L24.672,120.203z
		 M20.519,117.825l7.602-4.355l-0.312-0.546l-7.603,4.354L20.519,117.825L20.519,117.825z M15.338,110.438l-0.315-0.546l7.979-4.591
		l0.313,0.548L15.338,110.438z"/>
</g>
<g>
	<path class="st22" d="M62.216,139.748c-0.329,0-0.667-0.041-1.004-0.121c-1.651-0.395-3.191-1.717-4.224-3.629l-0.06-0.111
		l-4.579,2.623c-0.154,0.101-0.315,0.189-0.48,0.265l-0.074,0.032c-1.221,0.536-2.615,0.411-3.93-0.347l-4.165-2.403
		c-2.248-1.299-3.944-4.369-3.944-7.14v-3.521c-0.964-0.929-1.903-1.937-2.81-3.012l-0.639,0.443
		c-0.92,0.637-2.063,0.843-3.213,0.564c-1.652-0.392-3.191-1.714-4.227-3.627l-2.943-5.441c-1.695-3.129-1.362-6.606,0.777-8.086
		l1.005-0.696c-0.505-1.565-0.924-3.135-1.251-4.691l-2.641-1.525c-2.247-1.298-3.943-4.368-3.943-7.14v-5.29
		c0-1.926,0.813-3.472,2.23-4.239l4.539-2.723l-0.716-1.324c-1.722-3.179-1.395-6.58,0.776-8.085l2.947-2.038
		c0.117-0.084,0.231-0.154,0.348-0.217l12.301-7.04c0.904-0.578,1.999-0.754,3.102-0.49c1.653,0.394,3.192,1.715,4.226,3.628
		l0.074,0.138l4.71-2.739c1.27-0.759,2.862-0.713,4.341,0.137l4.166,2.407c2.247,1.297,3.941,4.366,3.941,7.141v3.518
		c0.965,0.929,1.904,1.937,2.811,3.013l0.64-0.443c0.922-0.639,2.067-0.838,3.215-0.564c1.645,0.393,3.191,1.716,4.221,3.626
		l2.952,5.44c1.694,3.131,1.357,6.606-0.782,8.088l-1.002,0.698c0.496,1.567,0.922,3.136,1.249,4.691l2.635,1.525
		c2.249,1.297,3.952,4.366,3.952,7.138v5.29c0,2.081-0.98,3.734-2.575,4.401l-4.258,2.45l0.782,1.431
		c1.713,3.18,1.387,6.581-0.782,8.088c-3.517,2.433-7.203,4.474-10.759,6.447c-1.239,0.686-2.486,1.378-3.738,2.089l-0.987,0.686
		C63.776,139.515,63.013,139.748,62.216,139.748L62.216,139.748z M57.912,129.916c0.23,0,0.462,0.033,0.687,0.095
		c0.652,0.186,1.199,0.626,1.522,1.221l1.285,2.377c0.253,0.469,0.519,0.766,0.716,0.94l0.525-0.363l0.185-0.117
		c1.3-0.742,2.598-1.461,3.888-2.176c3.503-1.941,6.813-3.776,10.033-5.974c0.02-0.322-0.059-0.995-0.476-1.775l-1.941-3.582
		c-0.653-1.198-0.228-2.695,0.95-3.373l6.429-3.698v-5.31c0-1.055-0.783-2.415-1.427-2.788l-3.625-2.093
		c-0.643-0.369-1.089-0.998-1.219-1.721c-0.415-2.261-1.05-4.573-1.892-6.872c-0.386-1.075-0.01-2.276,0.932-2.927l2.268-1.572
		c0.02-0.321-0.059-0.994-0.476-1.771l-2.952-5.441c-0.247-0.467-0.515-0.766-0.713-0.94l-2.015,1.395
		c-1.106,0.767-2.62,0.524-3.433-0.552c-1.418-1.877-2.933-3.551-4.506-4.979c-0.524-0.474-0.825-1.151-0.825-1.859v-4.607
		c0-1.059-0.784-2.419-1.428-2.791l-3.943-2.274l-6.477,3.763c-0.588,0.342-1.289,0.428-1.941,0.246
		c-0.655-0.183-1.206-0.623-1.53-1.221l-1.307-2.414c-0.27-0.499-0.555-0.806-0.755-0.975L32.46,72.65l-2.597,1.798
		c-0.02,0.322,0.057,0.994,0.478,1.775l1.86,3.435c0.641,1.181,0.236,2.658-0.918,3.351l-6.385,3.826l-0.002,0.062v5.29
		c0,1.056,0.787,2.416,1.432,2.789l3.629,2.093c0.638,0.369,1.082,0.999,1.214,1.722c0.414,2.265,1.051,4.576,1.89,6.871
		c0.392,1.073,0.011,2.277-0.928,2.927l-2.268,1.57c-0.02,0.322,0.057,0.995,0.478,1.773l2.945,5.441
		c0.254,0.468,0.518,0.765,0.716,0.939l2.014-1.394c1.109-0.768,2.624-0.524,3.434,0.552c1.417,1.875,2.933,3.551,4.505,4.977
		c0.525,0.476,0.824,1.152,0.824,1.861v4.609c0,1.055,0.787,2.415,1.433,2.789l3.939,2.272l6.511-3.73
		C57.046,130.03,57.478,129.916,57.912,129.916L57.912,129.916z M24.639,86.989l-0.05,0.031L24.639,86.989L24.639,86.989z
		 M56.961,66.097l-0.027,0.013L56.961,66.097L56.961,66.097z M56.46,108.939c0.39,0,0.781-0.089,1.143-0.275
		c0.975-0.497,1.515-1.567,1.336-2.646c-0.841-5.095-3.459-10.271-7.001-13.846c-0.771-0.775-1.955-0.968-2.926-0.469
		c-0.973,0.499-1.516,1.567-1.335,2.647c0.84,5.094,3.456,10.27,6.999,13.844C55.159,108.684,55.806,108.939,56.46,108.939z"/>
	<path class="st23" d="M64.346,76.059c1.715,1.555,3.2,3.218,4.69,5.19l2.782-1.456c1.121-0.589,2.677,0.078,3.717,2.007
		l2.952,5.441c1.04,1.931,1.04,4.102,0,4.825l-2.575,1.778c0.881,2.399,1.556,4.848,2.001,7.281l3.635,2.095
		c1.475,0.854,2.684,3.087,2.684,4.963v5.29c0,1.145-0.444,1.904-1.139,2.127l-6.547,3.768l1.941,3.583
		c1.04,1.931,1.04,4.104,0,4.828c-4.626,3.203-9.49,5.669-14.409,8.474l-2.301-6.04l-10.963,6.283l-1.834-12.522l10.737,4.01
		l-2.222-1.283c-1.478-0.854-2.687-3.087-2.687-4.966v-1.647l-3.61,2.345l-11.316-6.434L32.485,93.59l5.02-3.686
		c-1.002-0.628-1.865-1.879-2.295-3.202l-5.908,6.983l-6.004-8.819l9.765-5.853l-1.889-8.524l12.441-7.12
		c1.045-0.724,2.755,0.264,3.798,2.193l1.309,2.416l6.946-4.039v0.002c0.48-0.288,1.122-0.264,1.824,0.14l4.164,2.404
		c1.479,0.854,2.687,3.088,2.687,4.967V76.059L64.346,76.059z M62.641,110.016L50.982,85.99c-0.689,1.29-1.08,2.983-1.08,5.02
		c0,6.784,4.331,14.784,9.675,17.869C60.648,109.494,61.677,109.869,62.641,110.016z"/>
	<path class="st22" d="M50.813,136.81l-0.14-0.032c-0.092-0.044-0.158-0.133-0.172-0.236L48.67,124.02
		c-0.018-0.109,0.026-0.219,0.113-0.291c0.086-0.071,0.202-0.09,0.307-0.051l7.63,2.85c-1.272-1.091-2.227-3.081-2.227-4.794v-1.068
		l-3.125,2.027c-0.099,0.064-0.223,0.069-0.325,0.011l-11.317-6.433l-0.143-0.176l-7.397-22.408
		c-0.042-0.127,0.002-0.269,0.113-0.349l4.669-3.43c-0.759-0.603-1.433-1.538-1.867-2.591l-5.559,6.572
		C29.476,93.962,29.382,94,29.287,94c-0.1-0.005-0.19-0.056-0.243-0.138l-6.005-8.821l-0.047-0.244l0.147-0.203l9.57-5.736
		l-1.841-8.3c-0.029-0.134,0.032-0.273,0.152-0.341l12.441-7.122c0.384-0.266,0.887-0.345,1.429-0.218
		c1.026,0.246,2.074,1.194,2.802,2.536l1.153,2.131l6.667-3.878c0.599-0.357,1.359-0.307,2.138,0.141l4.165,2.406
		c1.569,0.906,2.845,3.254,2.845,5.238v4.467c1.58,1.446,3.008,3.019,4.464,4.929l2.549-1.335c1.365-0.716,3.068,0.165,4.138,2.135
		l2.943,5.44c1.149,2.107,1.099,4.406-0.09,5.233l-2.368,1.641c0.832,2.325,1.476,4.664,1.902,6.961l3.497,2.021
		c1.575,0.907,2.853,3.255,2.853,5.235v5.29c0,1.244-0.505,2.151-1.357,2.426l-6.231,3.587l1.794,3.316
		c1.149,2.107,1.099,4.406-0.09,5.234c-3.428,2.374-6.905,4.299-10.584,6.336c-1.276,0.707-2.561,1.419-3.849,2.153l-0.262,0.024
		l-0.186-0.185l-2.17-5.695l-10.644,6.1L50.813,136.81L50.813,136.81z M49.368,124.454l1.688,11.54l10.563-6.052l0.263-0.025
		l0.189,0.186l2.169,5.697c1.182-0.673,2.363-1.326,3.536-1.977c3.664-2.031,7.125-3.95,10.532-6.304
		c0.902-0.626,0.852-2.649-0.098-4.419l-1.942-3.583c-0.079-0.149-0.029-0.338,0.119-0.422l6.548-3.768
		c0.643-0.213,0.98-0.897,0.98-1.855v-5.29c0-1.751-1.159-3.898-2.526-4.69l-3.625-2.095c-0.079-0.047-0.139-0.126-0.159-0.215
		c-0.435-2.382-1.1-4.815-1.981-7.229c-0.049-0.135-0.01-0.284,0.109-0.366l2.574-1.779c0.902-0.626,0.852-2.65-0.098-4.418
		l-2.952-5.441c-0.892-1.654-2.248-2.425-3.299-1.877l-2.779,1.456c-0.135,0.068-0.304,0.033-0.395-0.091
		c-1.521-2.013-2.999-3.649-4.649-5.146l-0.104-0.232v-4.607c0-1.755-1.158-3.903-2.528-4.693l-4.165-2.406
		c-0.574-0.329-1.108-0.383-1.507-0.144l-6.95,4.04l-0.243,0.03l-0.191-0.152l-1.308-2.412c-0.633-1.173-1.55-2.025-2.394-2.226
		c-0.369-0.087-0.689-0.041-0.949,0.139L31.53,70.647l1.841,8.297c0.029,0.133-0.03,0.27-0.145,0.34l-9.48,5.679l5.584,8.205
		l5.642-6.667c0.074-0.087,0.191-0.13,0.3-0.105c0.112,0.021,0.203,0.102,0.238,0.211c0.421,1.296,1.25,2.459,2.161,3.031
		c0.089,0.055,0.144,0.151,0.149,0.253c0.003,0.105-0.045,0.204-0.129,0.266l-4.836,3.552l7.287,22.075l11.044,6.279l3.449-2.238
		c0.097-0.062,0.22-0.069,0.322-0.013c0.101,0.055,0.164,0.16,0.164,0.275v1.647c0,1.752,1.159,3.901,2.53,4.693l2.224,1.284
		c0.142,0.083,0.198,0.259,0.126,0.406c-0.068,0.149-0.24,0.217-0.392,0.16L49.368,124.454L49.368,124.454z M62.641,110.33
		c0.097,0,0.192-0.046,0.251-0.128c0.069-0.094,0.08-0.218,0.031-0.324L51.264,85.853c-0.051-0.106-0.16-0.176-0.276-0.177
		c-0.104,0.004-0.227,0.062-0.284,0.165c-0.741,1.388-1.116,3.126-1.116,5.169c0,6.873,4.41,15.011,9.83,18.14
		c1.084,0.625,2.151,1.021,3.173,1.176L62.641,110.33L62.641,110.33z M50.985,86.715c-0.505,1.188-0.768,2.659-0.768,4.295
		c0,6.672,4.268,14.567,9.518,17.596c0.8,0.462,1.586,0.79,2.347,0.978L50.985,86.715z"/>
	<path class="st1" d="M51.807,83.241c1.715,1.556,3.334,3.352,4.824,5.324l2.566-1.778c1.045-0.723,2.757,0.265,3.802,2.194
		l2.945,5.44c1.045,1.931,1.045,4.104,0,4.826l-2.568,1.779c0.876,2.397,1.554,4.847,2,7.279l3.628,2.096
		c1.479,0.853,2.688,3.087,2.688,4.963v5.29c0,1.876-1.21,2.713-2.688,1.862l-3.628-2.096c-0.446,1.92-1.124,3.584-2,4.971
		l2.568,4.742c1.045,1.93,1.045,4.103,0,4.826l-2.945,2.041c-1.045,0.722-2.756-0.263-3.802-2.194l-2.566-4.744
		c-1.49,0.254-3.109,0.18-4.824-0.244v4.607c0,1.877-1.209,2.714-2.687,1.862l-4.165-2.406c-1.478-0.852-2.688-3.087-2.688-4.962
		v-4.609c-1.712-1.554-3.332-3.352-4.821-5.325l-2.569,1.778c-1.044,0.726-2.754-0.263-3.799-2.192l-2.945-5.441
		c-1.045-1.929-1.045-4.103,0-4.826l2.566-1.778c-0.876-2.398-1.553-4.846-1.999-7.281l-3.629-2.095
		c-1.479-0.852-2.687-3.086-2.687-4.963v-5.29c0-1.877,1.208-2.715,2.687-1.861l3.629,2.094c0.446-1.919,1.123-3.583,1.999-4.969
		l-2.566-4.744c-1.045-1.93-1.045-4.101,0-4.825l2.945-2.039c1.045-0.725,2.755,0.264,3.799,2.195l2.569,4.742
		c1.49-0.254,3.109-0.18,4.821,0.246v-4.609c0-1.877,1.21-2.715,2.688-1.862l4.165,2.404c1.477,0.853,2.687,3.086,2.687,4.964
		V83.241L51.807,83.241z M47.039,91.49c-5.343-3.085-9.673-0.084-9.673,6.699c0,6.786,4.33,14.787,9.673,17.87
		c5.342,3.086,9.673,0.086,9.673-6.699C56.711,102.576,52.38,94.576,47.039,91.49z"/>
	<path class="st22" d="M62.216,137.55c-0.159,0-0.324-0.02-0.493-0.062c-1.027-0.244-2.076-1.192-2.801-2.535l-2.463-4.548
		c-1.371,0.206-2.829,0.136-4.338-0.193v4.212c0,1.071-0.38,1.905-1.04,2.285c-0.6,0.348-1.351,0.293-2.118-0.152l-4.166-2.404
		c-1.567-0.906-2.844-3.255-2.844-5.236v-4.47c-1.599-1.462-3.136-3.154-4.577-5.035l-2.321,1.607
		c-0.407,0.284-0.911,0.365-1.453,0.234c-1.028-0.245-2.075-1.194-2.802-2.535l-2.945-5.441c-1.14-2.107-1.099-4.407,0.097-5.233
		l2.369-1.641c-0.835-2.322-1.476-4.662-1.905-6.96l-3.502-2.022c-1.568-0.907-2.846-3.255-2.846-5.236v-5.29
		c0-1.071,0.379-1.904,1.04-2.286c0.597-0.346,1.351-0.294,2.119,0.153l3.265,1.886c0.429-1.692,1.049-3.202,1.844-4.5l-2.481-4.582
		c-1.14-2.106-1.098-4.405,0.097-5.234l2.946-2.039c0.405-0.281,0.907-0.365,1.451-0.233c1.028,0.246,2.076,1.194,2.802,2.534
		l2.464,4.55c1.37-0.201,2.829-0.137,4.338,0.193v-4.213c0-1.071,0.378-1.904,1.04-2.285c0.599-0.347,1.349-0.292,2.117,0.153
		l4.165,2.405c1.569,0.904,2.846,3.252,2.846,5.234v4.471c1.6,1.462,3.137,3.154,4.577,5.034l2.32-1.607
		c0.409-0.282,0.912-0.362,1.453-0.235c1.029,0.247,2.076,1.194,2.802,2.537l2.946,5.44c1.14,2.107,1.098,4.406-0.097,5.233
		l-2.369,1.64c0.835,2.328,1.479,4.667,1.904,6.96l3.503,2.024c1.568,0.906,2.846,3.254,2.846,5.235v5.29
		c0,1.071-0.381,1.904-1.041,2.283c-0.598,0.349-1.35,0.292-2.12-0.151l-3.264-1.884c-0.428,1.689-1.048,3.2-1.843,4.498l2.48,4.582
		c1.14,2.108,1.098,4.407-0.097,5.234l-2.946,2.04C62.896,137.451,62.569,137.55,62.216,137.55L62.216,137.55z M56.631,129.746
		c0.114,0,0.221,0.064,0.275,0.165l2.568,4.745c0.633,1.169,1.551,2.022,2.396,2.223c0.368,0.088,0.688,0.042,0.949-0.137
		l2.946-2.04c0.904-0.626,0.859-2.651-0.098-4.42l-2.569-4.742c-0.053-0.1-0.049-0.222,0.012-0.317
		c0.87-1.377,1.53-3.017,1.959-4.873c0.022-0.097,0.089-0.178,0.181-0.217c0.092-0.039,0.198-0.033,0.282,0.017l3.629,2.094
		c0.565,0.327,1.095,0.382,1.49,0.154c0.461-0.267,0.726-0.903,0.726-1.742v-5.29c0-1.752-1.157-3.9-2.531-4.69l-3.627-2.097
		c-0.081-0.046-0.136-0.125-0.152-0.215c-0.435-2.379-1.103-4.81-1.987-7.227c-0.049-0.135-0.001-0.284,0.116-0.366l2.569-1.779
		c0.904-0.627,0.859-2.65-0.098-4.418l-2.944-5.442c-0.633-1.169-1.552-2.022-2.397-2.223c-0.371-0.089-0.69-0.044-0.949,0.138
		l-2.568,1.779c-0.138,0.094-0.327,0.064-0.43-0.069c-1.499-1.984-3.107-3.761-4.783-5.282l-0.102-0.232v-4.608
		c0-1.751-1.16-3.9-2.531-4.691l-4.166-2.406c-0.565-0.327-1.097-0.381-1.491-0.153c-0.46,0.267-0.725,0.901-0.725,1.742v4.609
		c0,0.096-0.044,0.186-0.122,0.246c-0.075,0.062-0.171,0.084-0.267,0.058c-1.648-0.409-3.229-0.489-4.695-0.24
		c-0.136,0.024-0.265-0.042-0.329-0.159l-2.567-4.743c-0.635-1.172-1.552-2.024-2.395-2.225c-0.371-0.086-0.69-0.042-0.951,0.137
		l-2.945,2.041c-0.904,0.626-0.861,2.65,0.097,4.418l2.569,4.743c0.055,0.101,0.048,0.221-0.011,0.317
		c-0.871,1.376-1.53,3.015-1.96,4.873c-0.023,0.097-0.089,0.178-0.181,0.218c-0.09,0.039-0.195,0.033-0.282-0.017l-3.628-2.094
		c-0.567-0.327-1.095-0.382-1.49-0.154c-0.462,0.266-0.728,0.902-0.728,1.742v5.29c0,1.751,1.159,3.899,2.531,4.69l3.628,2.095
		c0.081,0.048,0.135,0.126,0.151,0.216c0.437,2.385,1.107,4.816,1.988,7.229c0.049,0.134,0.001,0.285-0.115,0.366l-2.569,1.778
		c-0.906,0.627-0.861,2.652,0.097,4.42l2.945,5.44c0.633,1.17,1.552,2.022,2.396,2.223c0.371,0.094,0.69,0.045,0.949-0.139
		l2.566-1.778c0.138-0.095,0.328-0.068,0.432,0.069c1.5,1.987,3.108,3.765,4.782,5.282l0.103,0.232v4.609
		c0,1.752,1.158,3.9,2.53,4.692l4.165,2.405c0.569,0.325,1.094,0.378,1.491,0.152c0.461-0.267,0.727-0.902,0.727-1.743v-4.607
		c0-0.097,0.044-0.187,0.119-0.248c0.077-0.059,0.176-0.08,0.268-0.057c1.647,0.406,3.228,0.486,4.695,0.24L56.631,129.746
		L56.631,129.746z M51.042,117.587c0.959,0,1.857-0.231,2.656-0.691c2.114-1.222,3.327-3.966,3.327-7.536
		c0-6.875-4.41-15.011-9.829-18.14c-2.515-1.452-4.937-1.652-6.82-0.564c-2.114,1.221-3.325,3.966-3.325,7.533
		c0,6.875,4.41,15.014,9.83,18.142C48.326,117.165,49.742,117.587,51.042,117.587L51.042,117.587z M43.036,90.594
		c-0.853,0-1.645,0.201-2.347,0.605c-1.912,1.105-3.01,3.653-3.01,6.99c0,6.674,4.27,14.569,9.518,17.598
		c2.31,1.334,4.507,1.536,6.189,0.564c1.913-1.105,3.011-3.652,3.011-6.991c0-6.675-4.269-14.568-9.515-17.596
		C45.534,90.986,44.226,90.594,43.036,90.594z"/>
	<path class="st22" d="M70.729,123.046l-0.311-0.544l12.763-7.286l0.317,0.545L70.729,123.046L70.729,123.046z M65.533,108.579
		l-0.313-0.545l12.543-7.181l0.307,0.543L65.533,108.579L65.533,108.579z M66.094,99.523l-0.3-0.553l9.969-5.401l0.297,0.552
		L66.094,99.523L66.094,99.523z M60.071,86.823l-0.314-0.544l10.538-6.058l0.313,0.545L60.071,86.823L60.071,86.823z M51.965,83.513
		l12.536-7.18l-0.312-0.546l-12.537,7.183L51.965,83.513L51.965,83.513z M43.398,71.337l-0.314-0.545l12.431-7.123l0.313,0.546
		L43.398,71.337z"/>
</g>
<g>
	<path class="st24" d="M127.03,127.283c-0.194,0-0.39-0.047-0.572-0.147l-7.371-4.055c-0.576-0.317-0.787-1.041-0.47-1.617
		c0.317-0.576,1.038-0.787,1.617-0.47l7.371,4.055c0.576,0.317,0.787,1.041,0.47,1.617
		C127.857,127.06,127.45,127.283,127.03,127.283z M132.365,124.716c-0.198,0-0.398-0.049-0.583-0.153l-18.292-10.297
		c-0.572-0.323-0.776-1.049-0.453-1.622c0.324-0.572,1.046-0.776,1.622-0.453l18.292,10.297c0.572,0.323,0.776,1.048,0.453,1.622
		C133.184,124.498,132.781,124.716,132.365,124.716z M137.278,122.158c-0.199,0-0.4-0.049-0.585-0.154l-18.377-10.397
		c-0.572-0.324-0.774-1.05-0.45-1.622c0.325-0.572,1.052-0.772,1.622-0.45l18.377,10.396c0.572,0.324,0.774,1.05,0.45,1.622
		C138.097,121.941,137.693,122.158,137.278,122.158z M116.614,121.48c-0.196,0-0.394-0.048-0.577-0.15l-7.839-4.357
		c-0.574-0.319-0.782-1.044-0.462-1.619c0.32-0.574,1.044-0.782,1.619-0.462l7.839,4.357c0.574,0.319,0.782,1.044,0.462,1.619
		C117.437,121.259,117.032,121.48,116.614,121.48z M141.581,119.577c-0.207,0-0.417-0.054-0.606-0.167l-3.714-2.205
		c-0.566-0.336-0.752-1.066-0.417-1.631c0.337-0.566,1.069-0.751,1.631-0.416l3.714,2.205c0.566,0.336,0.752,1.066,0.417,1.631
		C142.383,119.369,141.987,119.577,141.581,119.577z M145.987,117.206c-0.201,0-0.405-0.051-0.592-0.158l-9.145-5.256
		c-0.571-0.328-0.767-1.055-0.439-1.625c0.327-0.571,1.055-0.766,1.624-0.439l9.145,5.256c0.571,0.328,0.767,1.055,0.439,1.625
		C146.8,116.991,146.399,117.206,145.987,117.206z M134.711,115.552c-0.211,0-0.424-0.056-0.618-0.174l-3.867-2.354
		c-0.562-0.342-0.74-1.074-0.398-1.636c0.343-0.562,1.074-0.739,1.636-0.398l3.867,2.354c0.562,0.342,0.74,1.074,0.398,1.636
		C135.504,115.348,135.112,115.552,134.711,115.552z M127.87,111.537c-0.21,0-0.423-0.056-0.617-0.173l-3.992-2.423
		c-0.562-0.341-0.741-1.073-0.4-1.635c0.343-0.562,1.073-0.74,1.636-0.4l3.992,2.423c0.562,0.341,0.741,1.073,0.4,1.635
		C128.665,111.333,128.272,111.537,127.87,111.537z M133.799,110.073c-0.202,0-0.407-0.051-0.595-0.16l-5.359-3.094
		c-0.569-0.328-0.764-1.057-0.435-1.626c0.327-0.57,1.057-0.763,1.626-0.435l5.359,3.094c0.569,0.328,0.764,1.057,0.435,1.626
		C134.61,109.859,134.209,110.073,133.799,110.073z"/>
</g>
</svg>
