<?xml version="1.0" encoding="utf-8"?>
<!-- Generator: Adobe Illustrator 23.0.3, SVG Export Plug-In . SVG Version: 6.00 Build 0)  -->
<svg version="1.1" id="Layer_1" xmlns="http://www.w3.org/2000/svg" xmlns:xlink="http://www.w3.org/1999/xlink" x="0px" y="0px"
	 viewBox="0 0 182 240" style="enable-background:new 0 0 182 240;" xml:space="preserve">
<style type="text/css">
	.st0{fill-rule:evenodd;clip-rule:evenodd;fill:#BAA7D0;}
	.st1{fill:#BBBCBF;}
	.st2{fill:#B1B3B4;}
	.st3{fill:#FFFFFF;}
	.st4{fill:#F6F4F4;}
	.st5{fill:#CACBCA;}
	.st6{fill:#DFDFDE;}
	.st7{fill:#EAEBEB;}
	.st8{fill:#DADADA;}
	.st9{fill-rule:evenodd;clip-rule:evenodd;fill:#D0D2D3;}
	.st10{fill:#DB7F1D;}
	.st11{fill:#FCB218;}
	.st12{fill:#E69F32;}
	.st13{fill-rule:evenodd;clip-rule:evenodd;fill:#FFFFFF;}
	.st14{fill-rule:evenodd;clip-rule:evenodd;fill:#CACBCA;}
	.st15{fill-rule:evenodd;clip-rule:evenodd;fill:#B1B3B4;}
	.st16{fill-rule:evenodd;clip-rule:evenodd;fill:#F6F4F4;}
	.st17{fill-rule:evenodd;clip-rule:evenodd;fill:#FCB218;}
	.st18{fill:#673400;}
	.st19{fill-rule:evenodd;clip-rule:evenodd;fill:#E5E6E7;}
	.st20{fill-rule:evenodd;clip-rule:evenodd;fill:#D1B5E8;}
	.st21{opacity:0.3;fill-rule:evenodd;clip-rule:evenodd;fill:#A06CE3;}
	.st22{fill:#A06CE3;}
	.st23{fill:#6E2CC4;}
	.st24{fill-rule:evenodd;clip-rule:evenodd;fill:#E1943A;}
	.st25{fill-rule:evenodd;clip-rule:evenodd;fill:#F1B259;}
	.st26{fill-rule:evenodd;clip-rule:evenodd;fill:#A06CE3;}
	.st27{fill-rule:evenodd;clip-rule:evenodd;fill:#6E2CC4;}
	.st28{fill:#8C6EB0;}
	.st29{fill-rule:evenodd;clip-rule:evenodd;fill:#C8C7C7;}
	.st30{fill:#E7DDED;}
</style>
<g>
	<path class="st0" d="M78.5,87.9l-0.1-6.3c1.3-5.6,13.4-8.8,16-7.5l-0.1,10.2L78.5,87.9L78.5,87.9z"/>
	<path class="st1" d="M64.2,135.7l-15.3-8.4l0.2-0.4l15.3,8.4L64.2,135.7z M45.1,113.7l-0.5,0l0.4-44.4l29.6,17.4l-0.2,0.4l-28.9-17
		L45.1,113.7z"/>
	<path class="st2" d="M171,128.8l-7.2,4c-0.6,0.4-1.4,0.4-2.1,0L92.9,93.2c-0.7-0.3-1.2-1.1-1.2-2V29.5c0-0.4,0.1-0.7,0.3-1.1
		l0.1-0.2c0.2-0.4,0.5-0.7,0.8-0.9l7.3-4.1c1.7-0.9,3.1-1.4,4.5-1.7c1.7-0.2,3,0.1,4.2,0.7c0.1,0,0.1,0.1,0.1,0.1l0.1,0.1l68.7,39.6
		c0.1,0,0.2,0.1,0.3,0.2c1,0.6,1.9,1.5,2.4,2.7c0.5,1.1,0.8,2.4,0.8,3.8l-0.2,43.4c0,3-1.2,6.3-3.1,9.3
		C176.4,124.6,173.9,127.3,171,128.8L171,128.8z M162.8,128.6l6.2-3.5c2.2-1.3,4.3-3.3,5.8-5.8c1.5-2.3,2.4-4.9,2.4-6.9l0.2-43.4
		c0-0.8-0.1-1.5-0.4-2.1c-0.2-0.4-0.5-0.7-0.8-1l-0.1-0.1l-68.6-39.7c-0.1,0-0.2-0.1-0.3-0.1c-0.5-0.2-1-0.3-1.8-0.2
		c-0.9,0.1-1.9,0.4-2.9,1l-6.3,3.6V90L162.8,128.6L162.8,128.6z"/>
	<path class="st3" d="M102.1,67.9v-6.1L162,99.1l15.1-34.9l-68.8-39.8l-0.1-0.1c-1.8-0.9-4.1-0.7-6.8,0.8l-7.3,4.1l-0.2,0.2v58.9
		V75.4C98.8,72.6,102.1,73.1,102.1,67.9L102.1,67.9z"/>
	<path class="st2" d="M110.7,67.2v5.6c0,2.6-1.1,5.6-2.8,8.3c-1.8,2.7-4,5.1-6.6,6.5l-7.2,4l-0.4,0.2V27.7l0.1-0.2l0.1-0.1l7.3-4.1
		c1.3-0.8,2.6-1.2,3.8-1.3c1.1-0.1,2,0,2.8,0.4l0.4,0.2l0.1,0.1l68.8,39.8l0.2,0.1l-0.1,0.2l-15.1,24.6l-0.1,0.2l-0.2-0.1
		L110.7,67.2L110.7,67.2z M110.2,72.7v-6.5l0.4,0.3L162,86.7l14.8-24.2l-68.5-39.6l-0.1-0.1c-0.8-0.4-1.9-0.6-2.9-0.5
		c-1.1,0.1-2.3,0.5-3.6,1.3l-7.2,4.1l-0.1,0.1v63l6.8-3.8c2.5-1.4,4.9-3.7,6.4-6.3C109.1,78.1,110.2,75.2,110.2,72.7L110.2,72.7z"/>
	<path class="st2" d="M17.9,177.8v-49.9c0-0.8,0.4-1.5,1.1-2l68.1-39.3c0.7-0.4,1.5-0.4,2.3,0l73.1,42.4c0.8,0.4,1.3,1.1,1.3,2v49.9
		c0,3.4-1.1,7.1-2.7,10.4c-1.8,3.3-4.2,6.1-6.8,7.7l-50.9,29.7c-1.4,0.8-2.7,1.2-4,1.3c-1.4,0.1-2.8-0.2-3.9-1l-73.1-42.3
		c-0.1-0.1-0.3-0.1-0.4-0.2c-1.3-0.8-2.3-2-2.9-3.5C18.2,181.5,17.9,179.8,17.9,177.8L17.9,177.8z M22.4,129.3v48.6
		c0,1.3,0.2,2.5,0.6,3.3c0.3,0.7,0.7,1.2,1.2,1.5c0.1,0,0.1,0.1,0.2,0.1l73,42.2c0.1,0.1,0.2,0.1,0.3,0.2c0.4,0.2,0.8,0.3,1.2,0.2
		c0.6,0,1.3-0.3,2.1-0.7l50.9-29.5c2-1.1,3.8-3.3,5.2-6c1.4-2.6,2.2-5.7,2.2-8.4v-48.6L88.3,91L22.4,129.3L22.4,129.3z"/>
	<path class="st4" d="M20.5,127.9v49.9c0,3.4,1.1,5.9,2.9,6.8l69.4,40.1c2.2,1.3,3.7,2,6.1,2.2l26.6-21.8c4.8-2.7,8.6-10,8.6-16.2
		v-41.8l-40.1,22.3L20.5,127.9L20.5,127.9z"/>
	<path class="st2" d="M133.7,189c0,3-0.9,6.4-2.5,9.3c-1.5,2.9-3.6,5.4-6,6.6l-27.4,18.4l-0.1,0.1v0.1l-0.7,3.2l-1.2-0.7l-72.4-41.9
		c-0.9-0.5-1.7-1.3-2.1-2.5c-0.5-1.1-0.7-2.5-0.7-4.1V128l73.1,41.9l0.1,0.1l0.1-0.1l39.6-22.4L133.7,189L133.7,189z M20.1,177.7
		l0.1,0.4v0.3L20.1,177.7L20.1,177.7z M133.9,147L94,169.4l-73.5-42.2l-0.4-0.2v50.6c0,1.8,0.3,3.1,0.8,4.3l-0.2-1.1l0.2,0.8
		l0.4,0.7l-0.4-0.5c0.4,1,1.1,2,1.9,2.4c0.1,0.1,0.3,0.2,0.4,0.3l-0.4-0.4h0.1l0.3,0.4l0.7,0.4l73.3,42.4l0.3,0.2l0.1-0.4l0.7-3.5
		l27.4-18.5c2.4-1.4,4.5-3.9,6.2-6.8c1.7-3,2.5-6.3,2.5-9.6v-42.4L133.9,147L133.9,147z"/>
	<polygon class="st5" points="88.2,88.5 161.7,131 94.2,169.7 20.7,127.4 88.2,88.5 	"/>
	<polygon class="st6" points="140.3,124.2 152.1,131.1 140.3,137.9 140.3,124.2 	"/>
	<polygon class="st3" points="57.5,110.9 57.5,106.7 20.7,127.8 94.2,170.2 161.6,131.4 147.7,122.8 142.6,125 153,131.1 94,165 
		39.4,133.9 29.9,127.6 57.5,110.9 	"/>
	<path class="st3" d="M179.3,112.5l0.2-43.4c0-5.2-4.1-6.9-9.2-4.1l-7.3,4.1l-0.1,0.2v61.9l7.2-4C175,124.1,179.3,117.6,179.3,112.5
		L179.3,112.5z"/>
	<path class="st2" d="M179.7,69l-0.2,43.4c0,2.6-1.1,5.6-2.8,8.3c-1.8,2.6-4,5.1-6.6,6.5l-7.4,4.2l-0.4,0.2V69.3l0.1-0.2l0.1-0.1
		l7.5-4.2c1.8-0.9,3.2-1.4,4.6-1.4c0.9,0,1.8,0.2,2.4,0.6c0.7,0.4,1.3,1,1.8,1.8C179.5,66.4,179.7,67.7,179.7,69L179.7,69z
		 M179.1,112.5l0.2-43.4c0-1.2-0.2-2.3-0.7-3.1c-0.4-0.7-0.9-1.2-1.5-1.5c-0.6-0.3-1.4-0.5-2.2-0.5c-1.3,0-2.8,0.4-4.3,1.3l-7.5,4.2
		l-0.1,0.1v61.2l7-4c2.5-1.4,4.8-3.7,6.4-6.3C177.9,117.9,179,115,179.1,112.5L179.1,112.5z"/>
	<polygon class="st3" points="93.9,91.3 93.9,29.5 162.7,69.4 162.7,131.2 93.9,91.3 	"/>
	<polygon class="st7" points="158.9,128.2 158.9,71.1 96.6,35 96.9,51.6 96.9,92.7 153,125.5 158.8,128.7 158.9,128.2 	"/>
	<polygon class="st8" points="110.7,43.2 96.6,35 96.9,51.7 96.9,92.8 153,125.5 158.8,128.7 158.9,128.2 158.9,71.1 110.7,43.2 	
		"/>
	<path class="st2" d="M159.3,129.1l-0.5-0.3V71.1L96.9,35.2V93l-0.5-0.3V34.8c0-0.1,0.1-0.3,0.3-0.3c0.1,0,0.1,0,0.1,0l62.4,36.2
		c0.1,0,0.1,0.1,0.1,0.2V129.1L159.3,129.1z"/>
	<path class="st9" d="M93.8,91.3l53.7,31.5L147,68.2c0-4.3-1.9-8.4-5.1-10.3L93.8,29.2L93.8,91.3L93.8,91.3z"/>
	<path class="st2" d="M94.1,29.9v61.2l68.1,39.5V69.4L94.1,29.9L94.1,29.9z M93.5,91.2V29.3c0-0.1,0.1-0.3,0.3-0.3
		c0.1,0,0.1,0,0.2,0l68.7,39.8c0.1,0,0.1,0.1,0.1,0.2v61.8c0,0.1-0.1,0.3-0.3,0.3c-0.1,0-0.1,0-0.1,0L93.7,91.3
		C93.6,91.4,93.5,91.3,93.5,91.2L93.5,91.2z"/>
	<path class="st10" d="M150.6,13.8c11.2,6.4,20.3,23.7,20.3,38.5c0,8.1-2.7,13.9-7.1,16.2c-0.4,0.2-0.7,0.4-1.1,0.5l-8.3,3.8l-2-4.7
		c-0.6-0.3-1.2-0.6-1.8-0.9c-11.2-6.5-20.3-23.7-20.3-38.5c0-2.8,0.4-5.8,1.3-8.5l-1.9-4.1l7.8-3.6C141.1,10.7,145.6,11,150.6,13.8
		L150.6,13.8z"/>
	<path class="st11" d="M141.8,17.9c11.2,6.5,20.3,23.7,20.3,38.5c0,14.7-9.1,21.4-20.3,14.9c-11.2-6.4-20.3-23.7-20.3-38.5
		C121.5,18.1,130.6,11.4,141.8,17.9L141.8,17.9z"/>
	<path class="st12" d="M151.2,73.7c-2.8,0.3-6-0.4-9.5-2.4c-6.9-4-13.1-12.1-16.7-21.2L145.5,62l0,0c3.2,1.9,5.8,6.9,5.8,11.1V73.7
		L151.2,73.7z"/>
	<polygon class="st13" points="140.2,28.8 139.7,55.1 142.5,56.8 141.4,29.4 140.2,28.8 	"/>
	<path class="st3" d="M147.8,34.5c-0.1,0-0.2,0-0.4-0.1l-13.6-8.2c-0.3-0.2-0.4-0.6-0.2-1c0.2-0.3,0.6-0.4,1-0.2l13.6,8.2
		c0.3,0.2,0.4,0.6,0.2,1C148.3,34.4,148,34.5,147.8,34.5z"/>
	<path class="st13" d="M133.5,54.8c6.8-0.8,11.9,1.5,14.9,8.8L133.5,54.8L133.5,54.8z"/>
	<path class="st3" d="M136,48.4c-0.8,0-1.6-0.3-2.5-0.8c-2.1-1.3-3.9-3.8-4.4-6.2c0-0.1,0-0.1,0-0.2l0-0.4c0-0.1,0-0.1,0-0.2
		l4.1-14.7c0.1-0.3,0.4-0.5,0.7-0.5c0.3,0,0.6,0.2,0.7,0.6l4.1,19.5c0,0,0,0.1,0,0.1l0,0.5c0,0.1,0,0.1,0,0.2
		c-0.2,0.9-0.8,1.6-1.6,1.9C136.8,48.3,136.4,48.4,136,48.4z M130.6,41.2c0.4,2,2,4.2,3.7,5.2c0.9,0.5,1.7,0.7,2.3,0.5
		c0.3-0.1,0.6-0.4,0.7-0.8l0-0.3l-3.5-16.6l-3.3,11.8L130.6,41.2z"/>
	<path class="st13" d="M138,45.7L138,45.7l-8.1-4.9l0,0l0,0.4c0.4,2.2,2.1,4.6,4.1,5.8c2,1.2,3.6,0.8,4.1-0.9L138,45.7L138,45.7z"/>
	<path class="st3" d="M150.2,56.4c-0.8,0-1.6-0.3-2.5-0.8c-2.1-1.3-3.9-3.8-4.4-6.2c0-0.1,0-0.1,0-0.2l0-0.4c0-0.1,0-0.1,0-0.2
		l4.1-14.7c0.1-0.3,0.4-0.5,0.7-0.5c0.3,0,0.6,0.2,0.7,0.6l4.1,19.5c0,0,0,0.1,0,0.1l0,0.5c0,0.1,0,0.1,0,0.2
		c-0.2,0.9-0.8,1.6-1.6,1.9C150.9,56.3,150.6,56.4,150.2,56.4z M144.7,49.2c0.4,2,2,4.2,3.7,5.2c0.9,0.5,1.7,0.7,2.3,0.5
		c0.3-0.1,0.6-0.4,0.7-0.8l0-0.3L148,37.1l-3.3,11.8L144.7,49.2z"/>
	<path class="st13" d="M152.1,53.7L152.1,53.7l-8.1-4.9l0,0l0,0.4c0.4,2.2,2.1,4.6,4.1,5.8c2,1.2,3.6,0.8,4.1-0.9L152.1,53.7
		L152.1,53.7z"/>
	<polygon class="st14" points="140.3,123.7 142.4,124.6 142.5,136.7 140.4,138.1 140.3,123.7 	"/>
	<path class="st15" d="M87.1,35.1l47.3,27.6c2,1.1,3.7,3.2,4.9,5.5c1.2,2.3,1.9,5,1.9,7.5l0.1,61.6c-0.1,0-13.7,8.2-15.1,9
		c-0.7,0.4-1.5,0.4-2.2,0l-49.2-23.5c-0.7-0.4-1.2-1.1-1.2-2V44.1c0-1.6,0.3-3,0.9-4.1c0.6-1.2,1.5-2.2,2.7-2.7l3.9-2.4l0.1-0.1
		c0.9-0.5,1.9-0.8,3-0.7C85.1,34.2,86.1,34.5,87.1,35.1L87.1,35.1L87.1,35.1z M132.2,66.5L84.9,38.9c-0.4-0.2-0.8-0.4-1.1-0.4
		c-0.2,0-0.4,0-0.5,0.1l0,0l-3.7,2.3c-0.1,0.1-0.2,0.1-0.3,0.2c-0.1,0.1-0.3,0.1-0.4,0.2c-0.2,0.1-0.4,0.3-0.5,0.6
		c-0.3,0.5-0.4,1.3-0.4,2.2v75.6l47.2,22.3l11.8-6.8V75.7c0-1.8-0.6-3.7-1.5-5.5C134.6,68.6,133.5,67.2,132.2,66.5L132.2,66.5
		L132.2,66.5z"/>
	<path class="st16" d="M133.6,65.1L86,37.3c-1.4-0.8-2.8-0.9-3.8-0.3l-4,2.5l1.7,3.1v95.3l29.9,17.4l29.6-16.6V76.2
		C139.4,72,136.8,67,133.6,65.1L133.6,65.1L133.6,65.1z"/>
	<path class="st15" d="M86.2,36.7l47.5,27.8c1.6,1,3.1,2.7,4.2,4.8c1.1,2.1,1.7,4.4,1.7,6.6v62.7l-0.6,0.3V75.9
		c0-2.1-0.6-4.4-1.7-6.3c-1-2-2.4-3.6-4-4.5h0L85.9,37.2c-0.7-0.4-1.3-0.6-1.9-0.6c-0.6,0-1.1,0.1-1.6,0.3l-3.8,2.3l1.5,2.8l0,0.1
		v97.9l26.8,15.4l-0.5,0.3l-26.7-15.4l-0.1-0.1v-0.2l0-98l-1.6-3l-0.1-0.2l0.2-0.1l4-2.5l0,0c0.6-0.3,1.2-0.5,1.9-0.4
		C84.7,36.1,85.4,36.3,86.2,36.7L86.2,36.7L86.2,36.7z"/>
	<path class="st13" d="M129.3,67.5L81.6,39.7c-3.2-1.9-5.8,0.1-5.8,4.4v99.7l31.9,12.1l27.4-16.6V78.7
		C135.1,74.4,132.4,69.4,129.3,67.5L129.3,67.5L129.3,67.5z"/>
	<path class="st15" d="M81.7,39.4l47.6,27.8c1.6,1,3.1,2.7,4.2,4.8c1.1,2,1.7,4.4,1.7,6.6v62l-0.5,0.3V78.6c0-2.1-0.6-4.4-1.7-6.3
		c-1-2-2.4-3.6-4-4.5l0,0L81.4,39.9c-0.8-0.4-1.5-0.7-2.2-0.7c-0.5,0-1,0.1-1.4,0.4c-0.4,0.3-0.8,0.6-1.1,1.1
		c-0.5,0.8-0.7,1.9-0.7,3.3v93.6l34.5,15.1l-0.6,0.3L75.7,138l-0.1-0.1V44.1c0-1.5,0.3-2.7,0.8-3.6c0.3-0.6,0.8-1,1.3-1.3
		c0.5-0.3,1.1-0.5,1.7-0.5C80,38.7,80.9,38.9,81.7,39.4L81.7,39.4z"/>
	<path class="st17" d="M120.8,71.6c3.8,2.2,7,7.9,7,12.7c0,4.8-3.1,6.8-7,4.6c-3.8-2.2-7-7.9-7-12.7
		C113.8,71.4,116.9,69.4,120.8,71.6L120.8,71.6z"/>
	<path class="st18" d="M80.1,49.6l2.5,1.5v9.2l4.2,2.5v2.6l-6.7-3.9V49.6L80.1,49.6z M93.9,67.1L90.1,65l-0.7,1.9l-2.6-1.5l3.9-9.5
		l2.5,1.4l3.9,14.1l-2.6-1.5L93.9,67.1L93.9,67.1z M93.2,64.3L92,59.8l-1.1,3.1L93.2,64.3L93.2,64.3z M111.4,67.8l-2.9,10.1
		l-2.7-1.6l-1.7-8.2l-1.8,6.2l-2.7-1.6l-2.9-13.5l2.6,1.5l1.8,8.6l1.9-6.4l2.3,1.3l1.8,8.6l1.9-6.5L111.4,67.8L111.4,67.8z"/>
	<path class="st15" d="M80,92.4c-0.1-0.1-0.2-0.2-0.1-0.4c0.1-0.1,0.2-0.2,0.4-0.1l47.1,27.3c0.1,0.1,0.2,0.2,0.1,0.4
		c-0.1,0.1-0.2,0.2-0.4,0.1L80,92.4L80,92.4z"/>
	<path class="st2" d="M93.6,164.3l-63.7-36.8l3.1-1.9V125l-3.8,2.2c-0.1,0.1-0.2,0.2-0.1,0.4l0.1,0.1l64.4,37.1c0.1,0.1,0.2,0,0.3,0
		l59.1-33.7l-0.5-0.4L93.6,164.3L93.6,164.3z"/>
	<path class="st15" d="M54.1,87.6C54,87.7,53.9,87.9,54,88c0.1,0.1,0.2,0.2,0.3,0.1l3.2-2.1c0.1-0.1,0.1-0.2,0.1-0.3
		c-0.1-0.1-0.2-0.2-0.3-0.1L54.1,87.6L54.1,87.6L54.1,87.6z"/>
	<path class="st7" d="M60.3,169.3l-9.4-5.5l-3.1,2.2l2.1,4.8l3.3,10.2l2.6,3.3c3.8-2.3,4.2-2.8,4.3-6.1L60.3,169.3L60.3,169.3z"/>
	<path class="st2" d="M51.4,163.7l9.1,5.3c0.1,0.1,0.2,0.2,0.2,0.4v8.9c0,1.8-0.2,2.7-0.9,3.6c-0.6,0.9-1.8,1.7-3.6,2.7
		c-0.2,0.1-0.4,0.1-0.6-0.1l-2.6-3.3l-3.3-10.2c0,0,0,0,0-0.1l-2.1-4.6c0-0.2,0.1-0.5,0.3-0.6l3-2.1
		C50.9,163.5,51.3,163.6,51.4,163.7L51.4,163.7z M59.8,169.6l-9-5.3l-2.6,1.9l2.1,4.3l3.2,10.1l2.4,3c1.7-1,2.6-1.7,3.1-2.3
		c0.5-0.7,0.7-1.7,0.7-3.1L59.8,169.6L59.8,169.6z"/>
	<path class="st4" d="M57.3,171.3l-9.4-5.2v10c0,8,9.4,11.6,9.4,5.4V171.3L57.3,171.3z"/>
	<path class="st2" d="M56.9,181.3c0,1.4-0.6,2.2-1.3,2.5c-0.5,0.2-1,0.3-1.5,0.2c-0.6-0.1-1.2-0.4-1.9-0.7c-2.1-1.2-4-3.8-4-7.3
		v-9.3l8.6,4.8V181.3L56.9,181.3L56.9,181.3z M48.5,166c-0.2-0.2-0.2-0.3-0.4-0.2c-0.5,0.2-0.6,0.6-0.6,0.7v9.6
		c0,3.9,2.1,6.8,4.4,8.2c0.7,0.4,1.4,0.7,2.1,0.8c0.8,0.1,1.3,0.1,2-0.2c1-0.5,1.8-1.7,1.8-3.3v-10.2c0-0.2-0.1-0.3-0.2-0.4
		l-9.5-5.2L48.5,166z"/>
	<path class="st19" d="M109.7,91.7l5.6,3.2c2.5,1.5,3.6,3.2,4.1,5.2c0.8,3.1-1,9.1,1.4,10.4l13.9,7.8v22.6l-22.3,12.9l-17.6-19.4
		l14.5-43.1L109.7,91.7L109.7,91.7z"/>
	<path class="st2" d="M127.6,120.7c-0.1,0-0.1,0-0.2,0l-33.1-19c-0.2-0.1-0.2-0.3-0.1-0.5c0.1-0.2,0.3-0.2,0.5-0.1l33.1,19
		c0.2,0.1,0.2,0.3,0.1,0.5C127.8,120.6,127.7,120.7,127.6,120.7z M127.6,110.4c-0.1,0-0.1,0-0.2,0l-33.1-19
		c-0.2-0.1-0.2-0.3-0.1-0.5c0.1-0.2,0.3-0.2,0.5-0.1l33.1,19c0.2,0.1,0.2,0.3,0.1,0.5C127.8,110.3,127.7,110.4,127.6,110.4z
		 M127.6,100.1c-0.1,0-0.1,0-0.2,0l-26.3-15.1c-0.2-0.1-0.2-0.3-0.1-0.5c0.1-0.2,0.3-0.2,0.5-0.1l26.3,15.1c0.2,0.1,0.2,0.3,0.1,0.5
		C127.8,100,127.7,100.1,127.6,100.1z"/>
	<polygon class="st20" points="42.8,60.7 78.6,81.9 77.6,155.3 42.1,134 42.8,60.7 	"/>
	<polygon class="st13" points="77.4,64.9 77.4,80.3 72.5,77.5 72.5,62 77.4,64.9 	"/>
	<path class="st21" d="M60.4,123.9c0.2,2.9,1.7,2.9,4.5,4.7V148c-7.4-4.3-14.5-8.5-21.8-12.9l-0.9-2.9l0.3-30.9l10.7,6
		c4,2.2,7.3,7.5,7.3,11.5C60.4,120.5,60.4,122.2,60.4,123.9L60.4,123.9z"/>
	<path class="st22" d="M94.9,73.7L94.9,73.7L59.6,53c-3.2-1.9-8.1-2.2-11-0.6l-5.3,2.8c-1.4,0.8-2.2,1.9-2.2,3.2c0,0,0,0,0,0.1l0,0
		l-0.9,74.6l1.9,0L43,61.7c0.3,0.3,0.7,0.5,1.1,0.7l34.1,20l0.9-1.6L45,60.9c-1.3-0.7-2-1.7-2-2.5c0-0.7,0.7-1.3,1.2-1.6l5.3-2.8
		c2.3-1.2,6.5-1,9.2,0.6l34.5,20.2v88.8h1.9V73.7H94.9z"/>
	<path class="st23" d="M94,165.2l31.1-18.1l0.1-15.5H62.8l-0.1,15.6C65.9,149,93.1,165.2,94,165.2L94,165.2z"/>
	<path class="st3" d="M94.2,169.8v49.8c0,6.2,3.8,9.2,8.6,6.4l50.5-29c4.6-2.7,8.6-10,8.6-16.2v-49.9l-67.5,38.9H94.2L94.2,169.8z"
		/>
	<path class="st24" d="M14.1,73L14.1,73c1-1.9,3.5-2.6,5.4-1.5l59.6,34.1c1.9,1.1,2.5,3.5,1.5,5.4l0,0c-1,1.9-3.5,2.6-5.4,1.5
		L15.6,78.5C13.7,77.4,13,75,14.1,73L14.1,73z"/>
	<path class="st25" d="M14.1,73L14.1,73c1.1-1.9,3.5-2.6,5.4-1.5l13.4,7.7c-1.9-1.1-4.3-0.4-5.4,1.5l0,0c-1.1,1.9-0.4,4.3,1.5,5.4
		l-13.4-7.7C13.7,77.4,13,74.9,14.1,73L14.1,73z"/>
	<path class="st18" d="M79.6,104.8L20.3,70.9L20,70.7c-0.9-0.5-1.9-0.7-2.8-0.6c-0.3,0-0.7,0.1-1,0.2c-1.2,0.3-2.2,1.1-2.8,2.2
		c0,0,0,0,0,0.1c0,0,0,0,0,0c0,0,0,0,0,0v0c0,0,0,0.1,0,0.1c-1.3,2.3-0.5,5.3,1.9,6.6L28.5,87c0,0,0.1,0,0.1,0l46.1,26.4
		c0.8,0.4,1.6,0.6,2.5,0.6c0.5,0,0.9-0.1,1.3-0.2c1.3-0.4,2.3-1.2,2.9-2.3C82.7,109.2,81.9,106.2,79.6,104.8z M29.8,78.5
		c-1.1,0.3-2,1-2.6,2c-0.6,1-0.7,2.1-0.4,3.3L16,77.7c-1.4-0.8-1.9-2.7-1.1-4.2c0.5-0.9,1.4-1.4,2.4-1.5c0.6,0,1.2,0.1,1.7,0.4
		l0.4,0.2L29.8,78.5z M79.8,110.6c-0.4,0.7-1,1.2-1.8,1.4c-0.8,0.2-1.7,0.1-2.4-0.3L27.7,84.3c-0.1-0.2-0.2-0.5-0.3-0.7
		c-0.3-0.9-0.1-1.9,0.3-2.8c0.5-0.8,1.3-1.4,2.2-1.7c0.3-0.1,0.5-0.1,0.8-0.1l1.7,1c0,0,0,0,0.1,0l46.2,26.4
		C80.1,107.3,80.6,109.2,79.8,110.6z"/>
	<path class="st2" d="M161,131L140.4,119v-0.7l21.4,12.4c0.1,0.1,0.2,0.2,0.1,0.4l-0.1,0.1l-67.6,39c-0.1,0.1-0.2,0-0.3,0
		l-73.7-42.4c-0.1-0.1-0.2-0.2-0.1-0.4l0.1-0.1l3.4-1.9h0.9l-3.6,2l73,42L161,131L161,131z"/>
	<path class="st26" d="M94,114.6c-17.3,0-31.4,7.7-31.4,17.2c0,9.5,14,17.2,31.4,17.2c17.3,0,31.4-7.7,31.4-17.2
		C125.3,122.4,111.3,114.6,94,114.6L94,114.6z"/>
	<path class="st23" d="M99.5,115.9c11.4,0,20.7,4.9,20.7,10.9c0,6-9.3,10.9-20.7,10.9c-11.4,0-20.7-4.9-20.7-10.9
		C78.8,120.8,88.1,115.9,99.5,115.9L99.5,115.9z"/>
	<polygon class="st13" points="120.6,73.6 122.3,79 126.2,82.3 123.3,83.5 124,88.6 120.6,83.9 117.2,83.7 117.9,79.6 115.1,74.4 
		118.9,76.6 120.6,73.6 	"/>
	<path class="st27" d="M54.6,65l4.4-2.1L69.6,69L65,71.5c-1.2,0.6-1.4,1.3-1.4,2.5v17l-0.2-0.1l-5.2-8.2l-5.2,2.2l-0.2-0.1V68.6
		C52.9,66.9,52.8,65.9,54.6,65L54.6,65z"/>
	<path class="st26" d="M54.6,65l4.4-2.1l10.7,6.1L65,71.5c-0.4,0.2-0.7,0.4-0.9,0.7l-10.7-6.3C53.7,65.5,54.1,65.3,54.6,65L54.6,65z
		"/>
	<path class="st22" d="M83.1,76.7c-0.1,0-0.1,0-0.2,0L53.7,59.9c-0.2-0.1-0.2-0.3-0.1-0.5c0.1-0.2,0.3-0.2,0.5-0.1L83.2,76
		c0.2,0.1,0.2,0.3,0.1,0.5C83.3,76.6,83.2,76.7,83.1,76.7z"/>
	<path class="st28" d="M78.4,81.8c-0.8-3,4.6-6.3,10.5-8c1.8-0.5,3.9-0.2,5.6,0.2l-0.2,0.7c-1.7-0.4-3.6-0.7-5.3-0.2
		c-6.2,1.8-10.6,4.9-10,7.1L78.4,81.8z"/>
	<path class="st28" d="M78.1,85.8c-0.5,0-0.9-0.4-0.9-0.9v-3.4c0-0.5,0.4-0.9,0.9-0.9s0.9,0.4,0.9,0.9v3.4
		C79.1,85.4,78.7,85.8,78.1,85.8z"/>
	<path class="st25" d="M70.9,92.9C71.3,87,80,82.3,90.6,82.3c10.6,0,19.2,4.7,19.7,10.7l0,7.9c0,2.1-1.3,4.1-3.5,5.7v6.2
		c2.2,1.3,3.5,3,3.5,4.7v7.8c-0.1,10.2-11,13.5-19.7,13.5c-8.4,0-19.6-3.3-19.7-13.3l0-8c-0.1-2.1,1.8-3.8,3.5-4.8v-6.2
		c-2.2-1.6-3.5-3.6-3.5-5.7L70.9,92.9L70.9,92.9z"/>
	<path class="st18" d="M90.6,139.8c-10.2,0-20.5-4.4-20.6-14.3l0-8c-0.1-1.9,1.2-3.8,3.5-5.3v-5.2c-2.3-1.8-3.5-3.9-3.5-6.2l0-7.9
		c0,0,0,0,0-0.1c0.5-6.5,9.6-11.5,20.6-11.5c11,0,20.1,5.1,20.6,11.5l0,8c0,2.2-1.2,4.4-3.5,6.2v5.2c2.3,1.5,3.5,3.3,3.5,5.2v7.8
		C111.1,136,100,139.8,90.6,139.8z M71.8,93l0,7.9c0,2.2,1.7,3.9,3.1,5c0.2,0.2,0.4,0.5,0.4,0.8v6.2c0,0.3-0.2,0.6-0.4,0.8
		c-1.2,0.7-3.1,2.2-3,4l0,8c0.1,5.7,5,12.4,18.8,12.4c8.6,0,18.7-3.3,18.8-12.6v-7.8c0-1.7-1.6-3.1-3-3.9c-0.3-0.2-0.4-0.5-0.4-0.8
		v-6.2c0-0.3,0.1-0.6,0.4-0.8c1.4-1,3.1-2.8,3.1-5l0-7.9c-0.4-5.3-8.8-9.7-18.7-9.7C80.7,83.2,72.3,87.6,71.8,93z"/>
	<path class="st24" d="M90.6,82.3c10.9,0,19.7,4.5,19.7,10.1c0,5.5-8.8,10.1-19.7,10.1c-10.9,0-19.7-4.5-19.7-10.1
		C70.9,86.8,79.7,82.3,90.6,82.3L90.6,82.3z"/>
	<path class="st24" d="M110.1,116.5c-1.1,5-9.6,8.8-19.8,8.8c-9.7,0-17.8-3.5-19.6-8l0.8-2.1l2.5-2.3c3.5,2.9,9.6,4.8,16.5,4.8
		c7.2,0,13.4-2.1,16.9-5.1l2.1,2L110.1,116.5L110.1,116.5z"/>
	<path class="st24" d="M106.6,106c-3.6,2.6-9.4,4.2-16,4.2c-6.7,0-12.7-1.4-16.3-4l0.1,6.8c3.5,2.9,9.3,4.7,16.2,4.7
		c6.7,0,12.5-1.8,16.1-4.5L106.6,106L106.6,106z"/>
	<path class="st18" d="M111.2,100.9l0-8c0,0,0-0.1,0-0.1c0-0.1,0-0.3,0-0.4c0-6.2-9.1-11-20.6-11c-11.6,0-20.6,4.8-20.6,11
		c0,0.1,0,0.3,0,0.4c0,0,0,0.1,0,0.1c0,0,0,0,0,0.1l0,7.9c0,2.2,1.2,4.4,3.5,6.2v5.2c-2.1,1.4-3.3,3.1-3.4,4.8
		c-0.1,0.2-0.1,0.3,0,0.5l0,7.9c0.1,9.9,10.4,14.3,20.6,14.3c9.5,0,20.5-3.8,20.6-14.5v-7.8c0-0.3,0-0.5-0.1-0.8
		c0-0.2,0-0.4-0.1-0.6c-0.4-1.4-1.5-2.7-3.3-3.9v-5.2C110,105.2,111.2,103.1,111.2,100.9z M90.6,83.2c9.8,0,18.1,4.3,18.7,9.6
		c-0.5,4.7-8.9,8.7-18.7,8.7c-9.8,0-18.2-3.9-18.7-8.6C72.5,87.5,80.8,83.2,90.6,83.2z M109.3,125.3c-0.1,9.3-10.2,12.6-18.8,12.6
		c-13.8,0-18.7-6.7-18.8-12.4l0-5c3.5,3.6,10.5,5.9,18.6,5.9c8.3,0,15.6-2.5,18.9-6.3V125.3z M109.2,116.7
		c-1.3,4.4-9.4,7.8-18.8,7.8c-8.8,0-16.7-3.1-18.6-7.2c0.1-1.6,1.6-2.8,2.7-3.6c2.3,1.7,5.5,2.9,9,3.6c0.1,0,0.3,0,0.4,0.1
		c0.6,0.1,1.2,0.2,1.8,0.3c0.2,0,0.3,0,0.5,0.1c0.6,0.1,1.3,0.1,1.9,0.2c0.1,0,0.2,0,0.3,0c0.7,0,1.5,0.1,2.2,0.1
		c0.8,0,1.5,0,2.3-0.1c0,0,0,0,0.1,0c5.4-0.3,10.3-1.9,13.6-4.3C107.6,114.5,108.8,115.5,109.2,116.7z M75.2,113.2
		c0.1-0.1,0.1-0.3,0.1-0.4v-5.5c3.6,2.1,9.1,3.3,15.3,3.3c0.7,0,1.4,0,2.1-0.1c0.1,0,0.3,0,0.4,0c0.6,0,1.2-0.1,1.7-0.1
		c0.1,0,0.3,0,0.4-0.1c0.6-0.1,1.1-0.1,1.6-0.2c0.2,0,0.3-0.1,0.4-0.1c0.5-0.1,1-0.2,1.5-0.3c0.2,0,0.3-0.1,0.5-0.1
		c0.4-0.1,0.9-0.2,1.3-0.4c0.2-0.1,0.4-0.1,0.6-0.2c0.4-0.1,0.7-0.2,1.1-0.4c0.2-0.1,0.5-0.2,0.7-0.3c0.3-0.1,0.6-0.2,0.8-0.4
		c0.3-0.1,0.5-0.2,0.7-0.4c0.2-0.1,0.4-0.2,0.7-0.4c0.2-0.1,0.4-0.2,0.6-0.3v5.9c0,0.2,0.1,0.3,0.1,0.5c-1.8,1.3-4.1,2.3-6.7,3
		c-0.1,0-0.1,0-0.2,0c-0.6,0.2-1.2,0.3-1.8,0.4c-0.1,0-0.2,0.1-0.4,0.1c-0.6,0.1-1.2,0.2-1.8,0.3c-0.1,0-0.3,0-0.4,0.1
		c-0.6,0.1-1.2,0.1-1.9,0.2c-0.1,0-0.2,0-0.3,0c-0.7,0-1.4,0.1-2.1,0.1c-0.7,0-1.4,0-2.1-0.1c-0.1,0-0.2,0-0.3,0
		c-0.6,0-1.2-0.1-1.8-0.2c-0.2,0-0.3,0-0.5-0.1c-0.6-0.1-1.2-0.2-1.7-0.3c-0.1,0-0.3,0-0.4-0.1C80.3,116,77.4,114.8,75.2,113.2z
		 M106.4,105.7C106.4,105.7,106.4,105.7,106.4,105.7c-0.5,0.3-1,0.6-1.5,0.9c0,0,0,0,0,0c-2.1,1.2-4.6,2-7.5,2.6c-0.1,0-0.1,0-0.2,0
		c-0.6,0.1-1.2,0.2-1.8,0.3c-0.1,0-0.3,0-0.4,0.1c-0.6,0.1-1.2,0.1-1.7,0.2c-0.2,0-0.3,0-0.5,0c-0.7,0-1.5,0.1-2.2,0.1
		c-6.5,0-12.3-1.6-15.8-4.1c-1.4-1.1-3-2.7-3-4.9l0-3.9c3.2,3.8,10.3,6.4,18.8,6.4c8.4,0,15.5-2.6,18.8-6.4l0,3.9
		C109.3,103,107.8,104.7,106.4,105.7z"/>
	<path class="st29" d="M126.8,182.2c0,0.1,0,0.1,0,0.2v13.2l0.2-0.1l4-6.3l4,1.7l0.2-0.1v-12.5c0-0.3,0-0.5,0-0.8L126.8,182.2
		L126.8,182.2z"/>
	<path class="st13" d="M131.8,163.9c0.9-0.5,1.8-0.7,2.5-0.6c0.6,0,1.1,0.3,1.6,0.6c0.5,0.4,0.8,0.8,1.1,1.5
		c0.4,0.9,0.6,2.1,0.5,3.5c-0.2,2.2-1,4.6-2.2,6.7c-1.2,2.1-2.8,3.8-4.5,4.7c-0.9,0.5-1.8,0.7-2.5,0.6c-0.6,0-1.1-0.3-1.6-0.6
		c-0.5-0.3-0.8-0.8-1.1-1.5c-0.4-0.9-0.6-2.1-0.5-3.5c0.2-2.2,1-4.6,2.2-6.7C128.4,166.5,130,164.8,131.8,163.9L131.8,163.9
		L131.8,163.9L131.8,163.9z"/>
	<polygon class="st29" points="131.1,162 132.2,163 133.6,161.3 134.2,162.8 135.8,161.7 136,163.6 137.5,163.1 137.2,165.3 
		138.6,165.5 137.8,167.6 139,168.5 137.8,170.4 138.6,171.8 137.1,173.4 137.4,175.2 135.8,176.2 135.6,178.4 134,178.7 
		133.3,180.9 131.9,180.6 130.8,182.6 129.8,181.6 128.4,183.3 127.7,181.7 126.1,182.9 126,180.9 124.4,181.4 124.7,179.3 
		123.3,179.1 124.1,176.9 122.9,176.1 124.1,174.2 123.4,172.7 124.8,171.2 124.6,169.3 126.1,168.3 126.4,166.2 127.9,165.8 
		128.6,163.7 130,164 131.1,162 	"/>
	<path class="st13" d="M131.5,167.1c0.6-0.3,1.1-0.4,1.5-0.4c0.4,0,0.7,0.2,1,0.4c0.3,0.2,0.5,0.5,0.7,0.9c0.2,0.6,0.3,1.3,0.3,2.1
		c-0.1,1.3-0.6,2.8-1.3,4c-0.7,1.2-1.7,2.3-2.7,2.8c-0.6,0.3-1.1,0.4-1.5,0.4c-0.4,0-0.7-0.2-1-0.4c-0.3-0.2-0.5-0.5-0.7-0.9
		c-0.2-0.6-0.3-1.3-0.3-2.1c0.1-1.3,0.6-2.8,1.3-4C129.5,168.7,130.5,167.7,131.5,167.1L131.5,167.1L131.5,167.1L131.5,167.1z"/>
	<path class="st23" d="M40.1,150.3l7-3.8c1.1-0.7,1.7-2,1.7-3.7l0.1-20.3c0-4-3.3-9.3-7.3-11.5l-15.9-9c-3.1-1.8-4.8-1.2-7.1,0.3
		l-5.3,2.7l14.8,22.1L40.1,150.3L40.1,150.3z"/>
	<path class="st22" d="M11.3,129.1l0.1-20.3c0-4,3.4-5.5,7.4-3.2l15.9,9c4,2.2,7.4,7.5,7.3,11.5l-0.1,20.3c0,4-3.4,5.5-7.4,3.2
		l-15.9-9C14.6,138.3,11.3,133.1,11.3,129.1L11.3,129.1z"/>
	<path class="st3" d="M26.4,118.7l-6.1-3.5v5.8c0,6.1,2.5,12.9,6.1,17.2c3.6-0.2,6.1-4,6.1-10.3v-5.8L26.4,118.7L26.4,118.7z"/>
	<path class="st30" d="M26.4,118.7l-6.1-3.5v5.8c0,6.1,2.5,12.9,6.1,17.2V118.7L26.4,118.7z"/>
	<path class="st2" d="M93.7,219.7v-50.3l0.4,0.2l67.8-39.1v50.4c0,3.1-1,6.5-2.5,9.6c-1.7,3-3.7,5.6-6.2,6.8l-50.6,29
		c-1.2,0.7-2.4,1-3.5,1c-0.9,0-1.7-0.3-2.5-0.7C94.2,225.5,93.7,221.7,93.7,219.7L93.7,219.7z M94.3,170.2v49.5c0,2,0.4,3.6,1.1,4.9
		c0.4,0.8,1,1.4,1.7,1.9c0.6,0.4,1.4,0.6,2.2,0.6c1,0,2.1-0.3,3.2-0.9l50.6-29c2.3-1.3,4.4-3.7,6-6.6c1.5-2.9,2.5-6.2,2.5-9.3v-49.4
		L94.3,170.2L94.3,170.2z"/>
</g>
</svg>
