<?xml version="1.0" encoding="utf-8"?>
<!-- Generator: Adobe Illustrator 22.1.0, SVG Export Plug-In . SVG Version: 6.00 Build 0)  -->
<svg version="1.1" id="Layer_1" xmlns="http://www.w3.org/2000/svg" xmlns:xlink="http://www.w3.org/1999/xlink" x="0px" y="0px"
	 viewBox="0 0 182 240" style="enable-background:new 0 0 182 240;" xml:space="preserve">
<style type="text/css">
	.st0{fill:#B3B4B4;}
	.st1{fill:#FFFFFF;}
	.st2{fill:#F6F6F6;}
	.st3{fill:#CBCCCB;}
	.st4{fill:#DFDFDE;}
	.st5{fill:#FFFFFE;}
	.st6{fill:#EBECEB;}
	.st7{fill:#D5D6D5;}
	.st8{fill:#E84D5D;}
	.st9{fill:#FDDBD2;}
	.st10{fill:#00A7CE;}
	.st11{fill:#D1E7ED;}
	.st12{fill:#6E2CC4;}
	.st13{fill:#A06CE3;}
	.st14{fill:#BA1A48;}
	.st15{fill:#C8C8C8;}
	.st16{fill:#1984A5;}
	.st17{fill:#2EBCE3;}
	.st18{fill:#E9DFF2;}
</style>
<g>
	<g>
		<path class="st0" d="M160,129.7l6.1-3.5c2.2-1.3,4.3-3.3,5.7-5.7c1.5-2.3,2.4-4.8,2.4-6.9l0.2-43.1c0-0.8-0.1-1.5-0.4-2
			c-0.2-0.4-0.5-0.7-0.8-1l-0.1-0.1L105,28c-0.1,0-0.2-0.1-0.3-0.1c-0.5-0.2-1-0.3-1.7-0.2c-0.9,0.1-1.8,0.4-2.9,1l-6.3,3.6v59.1
			L160,129.7z M168.2,129.9l-7.2,4l0,0c-0.6,0.4-1.4,0.4-2.1,0L90.7,94.5c-0.7-0.3-1.2-1.1-1.2-1.9V31.3l0,0c0-0.4,0.1-0.7,0.3-1.1
			l0.1-0.2c0.2-0.4,0.5-0.7,0.8-0.9L98,25c1.6-0.9,3.1-1.4,4.5-1.6c1.6-0.2,3,0.1,4.2,0.7c0.1,0,0.1,0.1,0.1,0.1l0.1,0.1l0,0
			L175,63.7c0.1,0,0.2,0.1,0.3,0.2l0,0c1,0.6,1.8,1.5,2.4,2.7c0.5,1.1,0.8,2.4,0.8,3.8l-0.2,43.1c0,3-1.2,6.3-3.1,9.2
			C173.6,125.7,171.1,128.3,168.2,129.9L168.2,129.9z"/>
	</g>
</g>
<g>
	<g>
		<path class="st1" d="M99.8,69.4v-6l59.5,37l15-34.7L106,26.2l-0.1-0.1c-1.7-0.9-4.1-0.7-6.8,0.8L91.8,31l-0.1,0.2v26.7l-8.2,29.9
			l7.2-4C95.6,81,99.8,74.5,99.8,69.4"/>
	</g>
</g>
<g>
	<g>
		<path class="st0" d="M107.8,74.2v-6v-0.5l0.4,0.3l51,20.1l14.7-24l-68-39.3l-0.1-0.1c-0.8-0.4-1.8-0.6-2.9-0.5s-2.3,0.5-3.6,1.3
			l-7.2,4.1L92,29.7v62.5l6.8-3.8c2.5-1.4,4.8-3.7,6.4-6.3C106.8,79.5,107.8,76.7,107.8,74.2L107.8,74.2z M108.4,68.7v5.5
			c0,2.6-1.1,5.5-2.8,8.2c-1.7,2.7-4,5-6.6,6.5l-7.2,4l-0.4,0.2V29.6v-0.1l0.1-0.2l0.1-0.1l7.3-4.1c1.3-0.8,2.6-1.2,3.8-1.3
			c1.1-0.1,2,0,2.8,0.4l0,0l0.4,0.2l0.1,0.1L174.3,64l0.2,0.1l-0.1,0.2l-15,24.4l-0.1,0.2l-0.2-0.1L108.4,68.7L108.4,68.7z"/>
	</g>
</g>
<g>
	<g>
		<path class="st0" d="M20.8,130.3v48.2c0,1.3,0.2,2.5,0.6,3.3c0.3,0.7,0.7,1.2,1.2,1.5c0.1,0,0.1,0.1,0.2,0.1l72.5,41.8
			c0.1,0.1,0.2,0.1,0.3,0.2c0.4,0.2,0.8,0.3,1.2,0.2c0.6,0,1.3-0.3,2-0.7l50.5-29.3c1.9-1.1,3.8-3.3,5.1-5.9
			c1.4-2.6,2.2-5.6,2.2-8.3v-48.2L86.1,92.4L20.8,130.3L20.8,130.3z M16.3,178.5V129l0,0c0-0.8,0.4-1.5,1.1-1.9l67.6-39
			c0.7-0.4,1.5-0.4,2.3,0l72.6,42c0.8,0.4,1.3,1.1,1.3,2v49.5c0,3.4-1.1,7.1-2.7,10.4c-1.7,3.3-4.2,6.1-6.8,7.7l-50.5,29.4
			c-1.4,0.8-2.7,1.2-4,1.3c-1.4,0.1-2.8-0.2-3.9-1l0,0l-72.6-41.9c-0.1-0.1-0.3-0.1-0.4-0.2c-1.3-0.8-2.3-2-2.9-3.5
			C16.6,182.2,16.3,180.4,16.3,178.5L16.3,178.5z"/>
	</g>
</g>
<g>
	<g>
		<path class="st2" d="M18.9,129v49.5c0,3.4,1.1,5.8,2.9,6.8l0,0l68.9,39.8c2.2,1.3,3.7,1.9,6.1,2.2l26.3-21.6
			c4.7-2.7,8.5-9.9,8.5-16.1v-41.5l-39.8,22.1L18.9,129"/>
	</g>
</g>
<g>
	<g>
		<path class="st0" d="M131.4,147.9l-39.6,22.3l-72.9-41.8l-0.4-0.2v50.2l0,0c0,1.7,0.3,3.1,0.8,4.3l-0.2-1.1l0.2,0.8l0.4,0.7
			l-0.4-0.5c0.4,1,1.1,1.9,1.8,2.4c0.1,0.1,0.3,0.2,0.4,0.3l-0.4-0.4h0.1l0.3,0.4l0,0l0,0l0.7,0.4l72.7,42l0.3,0.2l0.1-0.4L96,224
			l27.2-18.3c2.4-1.4,4.5-3.9,6.1-6.8c1.6-3,2.5-6.3,2.5-9.5v-42L131.4,147.9z M18.4,178.4l0.1,0.4l0,0v0.3L18.4,178.4z
			 M131.2,189.6c0,3-0.9,6.4-2.5,9.2c-1.5,2.9-3.6,5.3-5.9,6.6l-27.3,18.3l-0.1,0.1v0.1l-0.7,3.2l-73-42.2l0,0l0,0l0,0l0,0l0,0
			c-0.9-0.5-1.6-1.3-2-2.5c-0.5-1.1-0.7-2.5-0.7-4.1v-49.2l72.6,41.6l0.1,0.1l0.1-0.1l39.3-22.2L131.2,189.6L131.2,189.6z"/>
	</g>
</g>
<g>
	<g>
		<path class="st1" d="M91.9,170.5v49.4c0,6.2,3.8,9.1,8.5,6.4l50.1-28.8c4.6-2.7,8.5-9.9,8.5-16.1v-49.5l-66.9,38.6L91.9,170.5"/>
	</g>
</g>
<g>
	<g>
		<path class="st0" d="M92.1,170.9V220c0,2,0.4,3.6,1.1,4.8c0.4,0.8,1,1.4,1.6,1.8s1.4,0.6,2.2,0.6c1,0,2-0.3,3.2-0.9l50.2-28.8
			c2.3-1.3,4.4-3.7,5.9-6.6c1.5-2.9,2.5-6.2,2.5-9.2v-49L92.1,170.9L92.1,170.9L92.1,170.9z M91.5,220v-49.9l0.4,0.2l0,0l67.2-38.8
			v50c0,3.1-1,6.5-2.5,9.5c-1.6,3-3.7,5.5-6.1,6.8l-50.2,28.8c-1.2,0.7-2.4,1-3.5,1c-0.9,0-1.7-0.2-2.5-0.7
			c-0.7-0.4-1.3-1.1-1.8-1.9C92,223.7,91.5,222,91.5,220L91.5,220z"/>
	</g>
</g>
<g>
	<g>
		<path class="st3" d="M86,89.9l72.9,42.1l-67,38.5l-72.8-42L86,89.9"/>
	</g>
</g>
<g>
	<g>
		<path class="st4" d="M138.3,124.5l12.5,7.3l-12.5,7.1c0.6-1.5,1.3-3.9,1.3-7C139.7,128.7,138.9,126.1,138.3,124.5"/>
	</g>
</g>
<g>
	<g>
		<path class="st5" d="M55.6,112.1v-4.3l-36.5,21l72.8,42l66.9-38.6l-16.3-9.4l-4,1.8l11.7,7.4l-58.3,33.7l-54.4-31l-9.4-6.2
			L55.6,112.1"/>
	</g>
</g>
<g>
	<g>
		<path class="st0" d="M86.2,89.7l72.8,42.1c0.1,0.1,0.2,0.2,0.1,0.4l-0.1,0.1l0,0L92,171c-0.1,0.1-0.2,0-0.3,0l-73.1-42
			c-0.1-0.1-0.2-0.2-0.1-0.4l0.1-0.1l67.2-38.8C86,89.6,86.1,89.6,86.2,89.7L86.2,89.7z M158.3,132L86,90.2l-66.7,38.4l72.5,41.7
			L158.3,132L158.3,132z"/>
	</g>
</g>
<g>
	<g>
		<path class="st1" d="M176.4,113.7l0.2-43.1c0-5.1-4.1-6.9-9.1-4.1l-7.3,4.1l-0.1,0.2v61.4l7.2-4
			C172.2,125.2,176.4,118.7,176.4,113.7"/>
	</g>
</g>
<g>
	<g>
		<path class="st0" d="M176.2,113.7l0.2-43.1c0-1.2-0.2-2.3-0.7-3.1c-0.4-0.7-0.9-1.2-1.5-1.5s-1.4-0.5-2.2-0.5
			c-1.3,0-2.8,0.4-4.3,1.3l-7.5,4.2l-0.1,0.1v60.7l7-4c2.5-1.4,4.7-3.7,6.4-6.3C175.1,119,176.1,116.1,176.2,113.7L176.2,113.7z
			 M176.8,70.5l-0.2,43.1c0,2.6-1.1,5.5-2.8,8.2c-1.7,2.6-4,5-6.6,6.5l-7.4,4.2l-0.4,0.2V70.9v-0.1l0.1-0.2l0.1-0.1l7.5-4.2
			c1.7-0.9,3.2-1.4,4.6-1.4c0.9,0,1.7,0.2,2.4,0.6c0.7,0.4,1.3,1,1.7,1.7C176.6,68,176.8,69.2,176.8,70.5L176.8,70.5z"/>
	</g>
</g>
<g>
	<g>
		<path class="st5" d="M91.7,92.7V31.3L160,70.8v61.3L91.7,92.7"/>
	</g>
</g>
<g>
	<g>
		<path class="st6" d="M156.2,129.3V72.6L94.4,36.8l0.3,16.5v40.8l55.7,32.5l5.7,3.2L156.2,129.3z"/>
	</g>
</g>
<g>
	<g>
		<path class="st7" d="M89,64.7v26.5l57.9,33.4v-18.8c0-4-2.5-8.8-5.6-10.6L89,64.7"/>
	</g>
</g>
<g>
	<g>
		<path class="st0" d="M156.6,130.1l-0.5-0.3V72.6L94.7,37v57.3L94.2,94V36.6c0-0.1,0.1-0.3,0.3-0.3c0.1,0,0.1,0,0.1,0l61.9,35.9
			c0.1,0,0.1,0.1,0.1,0.2V130.1"/>
	</g>
</g>
<g>
	<g>
		<path class="st0" d="M91.3,92.6V31.2c0-0.1,0.1-0.3,0.3-0.3c0.1,0,0.1,0,0.2,0L160,70.4c0.1,0,0.1,0.1,0.1,0.2v61.3
			c0,0.1-0.1,0.3-0.3,0.3c-0.1,0-0.1,0-0.1,0L91.5,92.7C91.4,92.8,91.3,92.7,91.3,92.6L91.3,92.6z M91.9,31.7v60.7l67.6,39.2V70.9
			C159.5,70.9,91.9,31.7,91.9,31.7z"/>
	</g>
</g>
<g>
	<g>
		<path class="st6" d="M58.3,170.1l-9.3-5.4l-3.1,2.2l2.1,4.7l3.3,10.1l2.6,3.3c3.8-2.3,4.2-2.8,4.3-6L58.3,170.1"/>
	</g>
</g>
<g>
	<g>
		<path class="st0" d="M57.9,170.3l-8.9-5.2l-2.6,1.8l2,4.3l3.2,10l2.4,3c1.6-1,2.6-1.6,3.1-2.3s0.7-1.6,0.7-3.1L57.9,170.3
			L57.9,170.3z M49.2,164.3l9.3,5.4c0.1,0.1,0.2,0.2,0.2,0.4v8.8c0,1.7-0.2,2.7-0.9,3.6c-0.6,0.9-1.7,1.6-3.6,2.7
			c-0.2,0.1-0.4,0.1-0.6-0.1l-2.6-3.3l0,0l-3.3-10.1l0,0c0,0,0,0,0-0.1l-2.1-4.6c-0.1-0.2,0-0.4,0.1-0.5l3.1-2.2
			C48.9,164.2,49.1,164.2,49.2,164.3L49.2,164.3z"/>
	</g>
</g>
<path class="st1" d="M114.9,119.4L114.9,119.4L114.9,119.4c-0.2-0.1-0.4-0.3-0.6-0.4l-32.6-18.6c-2-1.1-4.4-1.1-6.3,0L47.9,116
	c-2.1,1.2-3.4,3.4-3.4,5.8v14.9l34.2,19.4v-8l13.2,15.5l24.7-14.3v-26.8C116.5,121.2,115.8,120,114.9,119.4z"/>
<path class="st8" d="M91.9,165.6c-0.6,0-1.1-0.2-1.5-0.7l-9.7-11.4v2.6c0,0.7-0.4,1.4-1,1.7c-0.6,0.4-1.4,0.4-2,0L43.6,138
	c-0.6-0.4-1.1-0.3-1.1-1v-15.2c0-3.1,1.7-6,4.4-7.6l27.4-15.6c2.6-1.5,5.7-1.5,8.3,0l32.6,18.6c0.3,0.1,0.5,0.3,0.8,0.5
	c0,0,0.1,0,0.1,0.1c1.6,1.1,2.5,2.9,2.5,4.8v26.8c0,0.7-0.4,1.4-1,1.2l-24.7,14.3C92.5,165.5,92.2,165.6,91.9,165.6z M78.7,146.1
	c0.6,0,1.1,0.2,1.5,0.7L92.3,161l22.2-12.9v-25.6c0-0.9-0.5-1.4-0.8-1.6c0,0,0,0,0,0c-0.1-0.1-0.2-0.1-0.3-0.2
	c-0.1,0-0.1-0.1-0.2-0.1l-32.6-18.6c-1.3-0.8-3-0.8-4.3,0l-27.4,15.6c-1.5,0.8-2.4,2.4-2.4,4.1v13.7l30.2,17.1v-4.6
	c0-0.8,0.5-1.6,1.3-1.9C78.2,146.1,78.4,146.1,78.7,146.1z M116.5,149.3L116.5,149.3L116.5,149.3z"/>
<g>
	<g>
		<path class="st2" d="M55.3,172l-9.3-5.1v9.9c0,7.9,9.3,11.5,9.3,5.3V172"/>
	</g>
</g>
<path class="st9" d="M88.4,163.6l9.2-17.2l17.3-27.1l-33.2-19c-2-1.1-4.4-1.1-6.3,0L47.9,116c-2.1,1.2-3.4,3.4-3.4,5.8v16.9
	L88.4,163.6z"/>
<path class="st8" d="M115.3,119.2c0-0.1-0.1-0.2-0.2-0.3l-33.3-19c-2.1-1.2-4.7-1.2-6.8,0l-27.4,15.6c-2.3,1.3-3.7,3.7-3.7,6.3v16.3
	l1,0.6v-16.9c0-2.2,1.2-4.3,3.2-5.4l27.4-15.6c1.8-1,4-1,5.8,0l32.8,18.7l-17,26.7L89,164.3l0.8,0.5l8.2-18.1l17.3-27.1
	C115.3,119.5,115.4,119.4,115.3,119.2z"/>
<g>
	<path class="st1" d="M91.9,165.6l24.7-14.3v-28.8c0-3-3.2-4.9-5.8-3.4l-27.9,15.7c-2.6,1.4-4.2,4.2-4.2,7.1v16.1L91.9,165.6z"/>
	<path class="st8" d="M91.9,166.1c-0.1,0-0.2,0-0.2-0.1l-13.2-7.5c-0.2-0.1-0.3-0.3-0.3-0.4V142c0-3.1,1.7-6,4.4-7.5l27.9-15.7
		c1.4-0.8,3-0.8,4.4,0c1.4,0.8,2.2,2.2,2.2,3.8v28.3c0,0.2-0.8,0.5-1,0.6L91.9,165C91.8,165.1,91.9,166.1,91.9,166.1z M79.2,157.8
		l12.7,7.2l24.2-14v-28.5c0-1.2-0.6-2.3-1.7-3c-1.1-0.6-2.3-0.6-3.4,0l-27.9,15.7c-2.4,1.4-3.9,3.9-3.9,6.7V157.8z"/>
</g>
<g>
	<g>
		<path class="st0" d="M46.2,166.5c-0.2-0.2-0.5-0.1-0.5,0.1c-0.1,0.1-0.1,0.1-0.1,0.2v9.9c0,3.9,2.1,6.8,4.4,8.1
			c0.7,0.4,1.4,0.7,2.1,0.8s1.3,0.1,1.9-0.2c1-0.5,1.7-1.6,1.7-3.3V172c0-0.2-0.1-0.3-0.2-0.4L46.2,166.5z M54.8,182
			c0,1.4-0.5,2.2-1.2,2.5c-0.5,0.2-1,0.3-1.5,0.2c-0.6-0.1-1.2-0.4-1.8-0.7c-2.1-1.2-4-3.8-4-7.3v-9.2l8.5,4.7V182z"/>
	</g>
</g>
<g>
	<path class="st1" d="M114.9,68.6L114.9,68.6L114.9,68.6c-0.2-0.1-0.4-0.3-0.6-0.4L81.6,49.6c-2-1.1-4.4-1.1-6.3,0L47.9,65.2
		c-2.1,1.2-3.4,3.4-3.4,5.8v29.7c0,2.2,1.2,4.3,3.1,5.4l32.4,18.6c1.3,1.1,3.2,1.5,4.9,0.5l28.2-16c2.1-1.2,3.4-3.4,3.4-5.8V71.8
		C116.5,70.4,115.8,69.3,114.9,68.6z"/>
	<path class="st10" d="M82.9,127.9c-1.4,0-2.9-0.5-4-1.5l-32.3-18.5c-2.6-1.5-4.1-4.2-4.1-7.1V71c0-3.1,1.7-6,4.4-7.6l27.4-15.6
		c2.6-1.5,5.7-1.5,8.3,0l32.6,18.6c0.3,0.1,0.5,0.3,0.8,0.5c0,0,0,0,0.1,0c1.6,1.1,2.5,2.9,2.5,4.8v31.7c0,3.1-1.7,6-4.4,7.5L86,127
		C85,127.6,84,127.9,82.9,127.9z M78.4,50.8c-0.8,0-1.5,0.2-2.2,0.6L48.9,66.9c-1.5,0.8-2.4,2.4-2.4,4.1v29.7c0,1.5,0.8,2.9,2.1,3.7
		L81.1,123c0.1,0.1,0.2,0.2,0.3,0.2c0.6,0.5,1.6,0.9,2.6,0.3l28.2-16c1.5-0.8,2.4-2.4,2.4-4V71.8c0-0.9-0.5-1.4-0.8-1.6c0,0,0,0,0,0
		c-0.1-0.1-0.2-0.1-0.3-0.2c-0.1,0-0.1-0.1-0.2-0.1L80.6,51.4C79.9,51,79.2,50.8,78.4,50.8z"/>
</g>
<g>
	<path class="st11" d="M75.3,49.6L47.9,65.2c-2.1,1.2-3.4,3.4-3.4,5.8v29.7c0,2.2,1.2,4.3,3.1,5.4l34,19.5l16-30l17.3-27.1l-33.2-19
		C79.6,48.5,77.2,48.5,75.3,49.6z"/>
	<path class="st10" d="M81.6,126.2c-0.1,0-0.2,0-0.2-0.1l-34-19.5c-2.1-1.2-3.4-3.4-3.4-5.8V71c0-2.6,1.4-5,3.7-6.3L75,49.2l0,0
		c2.1-1.2,4.7-1.2,6.8,0l33.3,19c0.1,0.1,0.2,0.2,0.2,0.3s0,0.3-0.1,0.4L98,95.9l-16,30c-0.1,0.1-0.2,0.2-0.3,0.2
		C81.7,126.2,81.7,126.2,81.6,126.2z M75.5,50.1L48.1,65.6C46.2,66.7,45,68.8,45,71v29.7c0,2,1.1,3.9,2.9,5L81.4,125l15.7-29.5
		l17-26.7L81.4,50.1C79.6,49.1,77.3,49.1,75.5,50.1L75.5,50.1z"/>
</g>
<g>
	<path class="st1" d="M110.7,68.4L82.8,84.1c-2.6,1.4-4.2,4.2-4.2,7.1v30.4c0,3.2,3.5,5.3,6.3,3.7l28.2-16c2.1-1.2,3.4-3.4,3.4-5.8
		V71.8C116.5,68.8,113.3,66.9,110.7,68.4z"/>
	<path class="st10" d="M82.9,126.4c-0.8,0-1.6-0.2-2.4-0.7c-1.5-0.9-2.4-2.4-2.4-4.1V91.2c0-3.1,1.7-6,4.4-7.5L110.4,68
		c1.4-0.8,3-0.8,4.4,0c1.4,0.8,2.2,2.2,2.2,3.8v31.7c0,2.6-1.4,5-3.6,6.2l-28.2,16C84.5,126.2,83.7,126.4,82.9,126.4z M112.6,68.4
		c-0.6,0-1.2,0.1-1.7,0.4l0,0L83.1,84.5c-2.4,1.4-3.9,3.9-3.9,6.7v30.4c0,1.3,0.7,2.6,1.9,3.2s2.6,0.7,3.7,0l28.2-16
		c1.9-1.1,3.1-3.1,3.1-5.3V71.8c0-1.2-0.6-2.3-1.7-3C113.8,68.5,113.2,68.4,112.6,68.4z M110.7,68.4L110.7,68.4L110.7,68.4z"/>
</g>
<g>
	<polygon class="st11" points="104.3,87.4 92.9,93.8 92.9,106.6 104.3,100.1 	"/>
	<path class="st10" d="M92.9,107.1c-0.1,0-0.2,0-0.3-0.1c-0.2-0.1-0.2-0.3-0.2-0.4V93.8c0-0.2,0.1-0.3,0.3-0.4l11.4-6.4
		c0.2-0.1,0.3-0.1,0.5,0c0.2,0.1,0.2,0.3,0.2,0.4v12.7c0,0.2-0.1,0.3-0.3,0.4L93.1,107C93.1,107.1,93,107.1,92.9,107.1z M93.4,94.1
		v11.6l10.4-5.9V88.2L93.4,94.1z"/>
</g>
<g>
	<polygon class="st9" points="104.3,137.9 92.9,144.3 92.9,157.1 104.3,150.6 	"/>
	<path class="st8" d="M92.9,157.6c-0.1,0-0.2,0-0.3-0.1c-0.2-0.1-0.2-0.3-0.2-0.4v-12.8c0-0.2,0.1-0.3,0.3-0.4l11.4-6.4
		c0.2-0.1,0.3-0.1,0.5,0c0.2,0.1,0.2,0.3,0.2,0.4v12.7c0,0.2-0.1,0.3-0.3,0.4l-11.4,6.5C93.1,157.6,93,157.6,92.9,157.6z
		 M93.4,144.6v11.6l10.4-5.9v-11.6L93.4,144.6z"/>
</g>
<g>
	<path class="st12" d="M37.2,39.1l-16.5,9.4c-1.3,0.7-2.1,2.1-2.1,3.5v17.9c0,1.3,0.7,2.6,1.9,3.3L41,84.9l9.6-18.1l10.4-16.3
		L41,39.1C39.9,38.4,38.4,38.4,37.2,39.1z"/>
</g>
<g>
	<path class="st13" d="M58.6,50.4l-16.8,9.5c-1.5,0.9-2.5,2.5-2.5,4.3v18.4c0,2,2.1,3.2,3.8,2.2l17-9.7c1.3-0.7,2-2,2-3.5V52.4
		C62.1,50.6,60.2,49.5,58.6,50.4z"/>
</g>
<g>
	<path class="st14" d="M144.1,34l-18.9,10.7c-1.5,0.8-2.4,2.4-2.4,4v20.5c0,1.5,0.8,3,2.2,3.7l23.5,13.5l11-20.7l11.9-18.7l-23-13.1
		C147.1,33.3,145.4,33.3,144.1,34z"/>
</g>
<g>
	<path class="st8" d="M168.5,47l-19.3,10.9c-1.8,1-2.9,2.9-2.9,4.9v21c0,2.2,2.4,3.6,4.4,2.5l19.5-11c1.4-0.8,2.3-2.3,2.3-4V49.3
		C172.5,47.2,170.3,45.9,168.5,47z"/>
</g>
<g>
	<g>
		<path class="st1" d="M166.9,54.6c-0.1-0.5-0.3-0.7-0.6-0.7c0,0-0.1,0-0.1,0c-1.6,0.9-3.2,1.8-4.8,2.7c0,0,0,0,0,0.1
			c-0.4,0.4-0.6,1.3-0.2,1.6c0.5,0.4,1,0.9,1.5,1.3c0,0,0.1,0.1,0.2,0.1c-0.1,0.1-0.1,0.2-0.1,0.2c-1.4,2.5-3.4,5.4-4.8,7.9
			c-0.9,1.6,0.2,3.3,1.5,1.3c1.6-2.4,2.7-4.5,4.8-7.8c0-0.1,0.1-0.2,0.1-0.2c0.1,0,0.1,0.1,0.1,0.1c0.5,0.5,1.1,0.9,1.6,1.5
			c0.3,0.3,0.9-0.2,1-0.9c0-0.1,0-0.2,0.1-0.3c0-2.2,0-4.4,0-6.5C167,54.8,167,54.7,166.9,54.6z"/>
	</g>
	<g>
		<path class="st1" d="M165.8,66.1c-0.5-0.5,0,0-0.5-0.5c-0.5-0.4-1.4,0.1-1.4,1v2.5c0,0.4-0.2,0.8-0.6,1l-7.1,3.9
			c-0.4,0.2-0.9-0.1-0.9-0.5V65c0-0.4,0.2-0.8,0.6-1l3.2-1.8c0.7-0.3,0.9-1.5,0.4-2c-0.5-0.5-0.3-0.2-0.8-0.7
			c-0.1-0.1-0.1-0.1-0.2,0c-1.1,0.6-2.2,1.2-3.3,1.8c-0.2,0.1-0.3,0.2-0.5,0.3c-0.8,0.7-1.4,2.1-1.4,3.3c0,4.5,0,5.8,0,10.3
			c0,0.1,0,0.2,0,0.3c0.3,1.9,1.4,1.6,2.8,0.9c2-1,4.3-2.3,6.9-3.7c2.4-1.3,3-2.4,3-4.4c0-1.6,0-0.4,0-2.1
			C165.9,66.3,165.8,66.2,165.8,66.1z"/>
	</g>
</g>
<g>
	<path class="st1" d="M51.8,58.7c-2.7,0.9-5,4.7-5,8.3c0,1.4,0.3,2.5,0.8,3.4L44.9,75c-0.4,0.7-0.4,1.6,0.2,1.9
		c0.2,0.2,0.5,0.2,0.7,0.2c0.2-0.1,0.5-0.3,0.7-0.7l2.7-4.6c0.7,0.4,1.6,0.4,2.5,0.1c2.7-0.9,5-4.7,5-8.3
		C56.8,60,54.6,57.8,51.8,58.7z M51.8,69.2c-0.7,0.2-1.3,0.1-1.9-0.3c-0.1,0-0.1-0.1-0.1-0.1c-0.1,0-0.1-0.1-0.2-0.1
		c-0.6-0.6-0.8-1.4-0.8-2.4c0-2.1,1.2-4.3,2.9-4.8c1.6-0.6,2.9,0.7,2.9,2.8C54.7,66.4,53.3,68.6,51.8,69.2z"/>
</g>
<g>
	<g>
		<path class="st15" d="M130.2,165.5c-1.7,1.1-3.5,2.1-5.2,3.2c-1,0.6-1.6,1.7-2.1,3.2c-0.6,2.1-0.5,8.3,0.1,9.6
			c0.5,0.9,1.1,1.2,2,0.5c0-2.7,0-5.4,0-8.1c0-1.1,0.2-1.5,0.9-2c1.1-0.7,2.1-1.3,3.2-1.9c1-0.6,1.1-0.5,1.1,1
			c0,2.6-0.1,5.2-0.1,7.8c1.4-0.5,2.5-2.9,2.6-4.9c0.1-2.3,0.1-4.5,0-6.6C132.7,165.2,131.6,164.6,130.2,165.5z"/>
	</g>
	<g>
		<path class="st15" d="M130.4,182.1c0,2.6,0,5.1,0,7.7c0,1.5-0.1,1.7-1.1,2.3c-1,0.6-2.1,1.3-3.1,1.9c-0.9,0.6-1.1,0.4-1.1-0.9
			c0-2.6-0.1-5.1-0.2-7.7c-1.1,0.7-2.1,2.6-2.3,5c-0.1,2.2-0.1,4.3,0,6.4c0.1,2.1,1.1,2.6,2.6,1.7c1.7-1,3.5-2.1,5.2-3.1
			c0.9-0.6,1.6-1.5,2.1-3c0.7-2.1,0.7-8.6,0-9.9C131.9,181.4,131.2,181.3,130.4,182.1z"/>
	</g>
	<g>
		<path class="st15" d="M126.8,188.6c0.7-0.1,1.5-0.5,2.2-1.6c0.1-0.4,0.2-0.9,0.2-1.2c0-3.2,0-6.4,0-9.5c0-0.9-0.4-1.2-1-0.9
			c-0.2,0.1-0.5,0.3-0.8,0.5c-1,0.7-1.3,1.3-1.3,2.9c0,2.8,0,5.6,0,8.4C126.2,187.9,126.2,188.7,126.8,188.6z"/>
	</g>
</g>
<path class="st0" d="M91.4,165l-63.3-36.5l14.6-8.5c0-0.2,0.1-0.5,0.2-0.7l-15.5,9c-0.1,0.1-0.2,0.2-0.1,0.4l0.1,0.1l63.9,36.8
	c0.1,0.1,0.2,0,0.3,0l56.6-32.2v-0.7L91.4,165z"/>
<g>
	<g>
		<path class="st16" d="M80.9,155.6l-15.5,8.8c-1.2,0.7-1.9,1.9-1.9,3.3v16.9c0,1.3,0.7,2.4,1.8,3.1l19.3,11.1l9.1-17l9.8-15.4
			l-18.9-10.8C83.4,154.9,82,154.9,80.9,155.6z"/>
	</g>
	<g>
		<path class="st17" d="M101,166.2l-15.8,8.9c-1.5,0.8-2.4,2.4-2.4,4v17.3c0,1.8,2,3,3.6,2.1l16-9.1c1.2-0.7,1.9-1.9,1.9-3.3v-18
			C104.3,166.4,102.5,165.4,101,166.2z"/>
	</g>
</g>
<g>
	<g>
		<path class="st1" d="M88.9,184c-0.8,0.4-1.4,1.5-1.4,2.5v3.7c0,1,0.6,1.5,1.4,1.1c0.8-0.4,1.4-1.5,1.4-2.5v-3.7
			C90.3,184.1,89.6,183.6,88.9,184z"/>
	</g>
	<g>
		<path class="st1" d="M93.7,174.8c-0.8,0.4-1.4,1.5-1.4,2.5v10.4c0,1,0.6,1.5,1.4,1.1c0.8-0.4,1.4-1.5,1.4-2.5v-10.4
			C95.1,174.9,94.4,174.4,93.7,174.8z"/>
	</g>
	<g>
		<path class="st1" d="M98.5,175.2c-0.8,0.4-1.4,1.5-1.4,2.5v7.6c0,1,0.6,1.5,1.4,1.1c0.8-0.4,1.4-1.5,1.4-2.5v-7.6
			C99.8,175.3,99.2,174.8,98.5,175.2z"/>
	</g>
</g>
<g>
	<path class="st1" d="M169.7,116.1c-7.2-4.2-18-5-26.6-2.4L112.5,96l-9.8,5.7h0v10l6.9,4l7,4.1v0l14.2,8.2v5.9
		c-0.3,3.6,1.9,7.3,6.6,10c8.9,5.2,23.3,5.2,32.2,0c4.5-2.6,6.7-6,6.7-9.4v-9C176.4,122.1,174.1,118.7,169.7,116.1z M160,130
		c-3.7,1.8-9.2,1.8-12.9,0C150.8,128.2,156.3,128.2,160,130z"/>
	<path class="st12" d="M153.6,149.7c-6.2,0-12.3-1.4-17.1-4.2c-5.2-3-8-7.3-7.6-11.8v-4.6l-27.1-15.7c-0.6-0.4-1-1-1-1.7v-10
		c0-0.7,0.4-1.4,1-1.7l9.8-5.7c0.6-0.4,1.4-0.4,2,0l29.9,17.3c9.2-2.5,20.1-1.4,27.3,2.8c0,0,0,0,0,0c4.9,2.9,7.7,6.8,7.7,11.1v9
		c0,4.3-2.7,8.2-7.7,11.1C165.9,148.3,159.7,149.7,153.6,149.7z M104.7,110.5l27.1,15.7c0.6,0.4,1,1,1,1.7v5.9c0,0.1,0,0.1,0,0.2
		c-0.2,2.9,1.8,5.9,5.6,8.1c8.3,4.8,21.9,4.8,30.2,0c3.7-2.1,5.7-4.8,5.7-7.6v-9c0-2.8-2-5.5-5.7-7.6l0,0c-6.5-3.8-16.8-4.7-25-2.2
		c-0.5,0.2-1.1,0.1-1.6-0.2l-29.6-17.2l-7.8,4.5V110.5z M153.6,133.3c-2.6,0-5.2-0.5-7.3-1.6c-0.7-0.3-1.1-1-1.1-1.8
		s0.4-1.5,1.1-1.8c4.3-2.1,10.3-2.1,14.6,0c0.7,0.3,1.1,1,1.1,1.8s-0.4,1.5-1.1,1.8C158.7,132.8,156.1,133.3,153.6,133.3z"/>
</g>
<g>
	<path class="st18" d="M102.7,101.6h11.2v4h13v7.7l13.4,7.8v-4.5H165v6.5c1.7,0.6,3.2,1.3,4.7,2.1c0.2,0.1,0.4,0.3,0.6,0.4h6.1v9
		c0,3.4-2.2,6.8-6.7,9.4c-8.9,5.2-23.3,5.2-32.2,0c-4.7-2.8-6.9-6.4-6.6-10v-5.9l-14.2-8.2l-7-4.1l-6.9-4V101.6z M163.5,133.7
		c-0.3-1.2-1.2-2.4-2.9-3.4c-3.9-2.3-10.3-2.3-14.2,0c-1.6,0.9-2.6,2.1-2.9,3.4H163.5z"/>
	<path class="st12" d="M153.6,148.2c-5.9,0-11.9-1.3-16.4-3.9c-4.7-2.7-7.2-6.6-6.9-10.5l0-5.6l-27.8-16.2c-0.2-0.1-0.2-0.3-0.2-0.4
		v-10c0-0.3,0.2-0.5,0.5-0.5h11.2c0.3,0,0.5,0.2,0.5,0.5v3.5h12.5c0.3,0,0.5,0.2,0.5,0.5v7.4l12.4,7.2v-3.7c0-0.3,0.2-0.5,0.5-0.5
		H165c0.3,0,0.5,0.2,0.5,0.5v6.2c1.6,0.6,3.1,1.2,4.4,2c0.1,0.1,0.3,0.2,0.4,0.2l0.1,0.1h5.9c0.3,0,0.5,0.2,0.5,0.5v9
		c0,3.7-2.5,7.2-6.9,9.8C165.4,146.9,159.5,148.2,153.6,148.2z M103.2,111.3l27.8,16.2c0.2,0.1,0.2,0.3,0.2,0.4v5.9
		c-0.3,3.6,2,7,6.4,9.6c8.8,5.1,23,5.1,31.7,0c4.1-2.4,6.4-5.6,6.4-8.9V126h-5.6c-0.1,0-0.2,0-0.3-0.1l-0.2-0.2
		c-0.1-0.1-0.2-0.1-0.3-0.2c-1.3-0.8-2.9-1.5-4.6-2c-0.2-0.1-0.3-0.3-0.3-0.5v-6h-23.8v4c0,0.2-0.1,0.3-0.3,0.4
		c-0.2,0.1-0.3,0.1-0.5,0l-13.4-7.8c-0.2-0.1-0.2-0.3-0.2-0.4v-7.2h-12.5c-0.3,0-0.5-0.2-0.5-0.5v-3.5h-10.2V111.3z M163.5,134.2
		h-20c-0.2,0-0.3-0.1-0.4-0.2c-0.1-0.1-0.1-0.3-0.1-0.4c0.3-1.4,1.4-2.7,3.1-3.7c4.1-2.4,10.7-2.4,14.7,0c1.7,1,2.8,2.3,3.1,3.7
		c0,0.1,0,0.3-0.1,0.4C163.8,134.1,163.7,134.2,163.5,134.2z M144.3,133.2h18.6c-0.4-0.9-1.2-1.7-2.4-2.4c-3.8-2.2-10-2.2-13.7,0
		C145.5,131.5,144.7,132.3,144.3,133.2z"/>
</g>
<g>
	<path class="st1" d="M133.3,119.4l-30.6-17.8l9.8-5.7l30.6,17.8c8.6-2.6,19.4-1.8,26.6,2.4c8.9,5.2,8.9,13.5,0,18.7
		s-23.3,5.1-32.2,0C130.2,130.7,128.7,124.7,133.3,119.4z M160.7,129.6c3.9-2.3,3.9-6,0-8.3c-3.9-2.3-10.3-2.3-14.2,0s-3.9,6,0,8.3
		S156.7,131.9,160.7,129.6z"/>
	<path class="st12" d="M153.6,139.2c-5.9,0-11.9-1.3-16.4-3.9c-4-2.3-6.4-5.2-6.9-8.4c-0.4-2.5,0.4-5,2.3-7.4l-30.1-17.5
		c-0.2-0.1-0.2-0.3-0.2-0.4s0.1-0.3,0.2-0.4l9.8-5.7c0.2-0.1,0.3-0.1,0.5,0l30.4,17.7c8.9-2.6,19.7-1.6,26.8,2.5
		c4.5,2.6,6.9,6.1,6.9,9.8c0,3.7-2.5,7.2-6.9,9.8C165.4,137.9,159.5,139.2,153.6,139.2z M103.7,101.6l29.9,17.3
		c0.1,0.1,0.2,0.2,0.2,0.4c0,0.1,0,0.3-0.1,0.4c-2,2.2-2.8,4.7-2.4,7c0.5,2.9,2.7,5.5,6.4,7.7c8.8,5.1,23,5.1,31.7,0
		c4.1-2.4,6.4-5.6,6.4-8.9s-2.3-6.5-6.4-8.9c-6.9-4-17.5-5-26.2-2.4c-0.1,0-0.3,0-0.4,0l-30.3-17.6L103.7,101.6z M153.6,131.8
		c-2.7,0-5.3-0.6-7.4-1.8c-2.1-1.2-3.2-2.8-3.2-4.6s1.1-3.4,3.2-4.6c4.1-2.4,10.7-2.4,14.7,0c2.1,1.2,3.2,2.8,3.2,4.6
		s-1.1,3.4-3.2,4.6C158.9,131.2,156.2,131.8,153.6,131.8z M153.6,120.1c-2.5,0-5,0.5-6.9,1.7c-1.7,1-2.7,2.3-2.7,3.7s1,2.7,2.7,3.7
		c3.8,2.2,10,2.2,13.7,0l0,0c1.7-1,2.7-2.3,2.7-3.7s-1-2.7-2.7-3.7C158.5,120.7,156,120.1,153.6,120.1z"/>
</g>
<g>
	<path class="st12" d="M108.7,109.9c-0.7-0.3-1.4,0.1-1.4,0.8l-0.1,5l2.7,1.1l0.1-5C110,111,109.4,110.2,108.7,109.9z"/>
	<path class="st12" d="M114.9,113.4c-0.7-0.3-1.4,0.1-1.4,0.8l-0.1,5l2.7,1.1l0.1-5C116.3,114.5,115.7,113.7,114.9,113.4z"/>
</g>
</svg>
