<?xml version="1.0" encoding="UTF-8"?>
<!DOCTYPE svg PUBLIC "-//W3C//DTD SVG 1.1//EN" "http://www.w3.org/Graphics/SVG/1.1/DTD/svg11.dtd">
<!-- Creator: CorelDRAW 2019 (64-Bit) -->
<svg xmlns="http://www.w3.org/2000/svg" xml:space="preserve" width="2.46096in" height="2.87611in" version="1.1" style="shape-rendering:geometricPrecision; text-rendering:geometricPrecision; image-rendering:optimizeQuality; fill-rule:evenodd; clip-rule:evenodd"
viewBox="0 0 2033.79 2376.88"
 xmlns:xlink="http://www.w3.org/1999/xlink"
 xmlns:xodm="http://www.corel.com/coreldraw/odm/2003">
 <defs>
  <style type="text/css">
   <![CDATA[
    .str1 {stroke:#727271;stroke-width:11.02;stroke-miterlimit:2.61313}
    .str4 {stroke:#F04368;stroke-width:11.02;stroke-miterlimit:2.61313}
    .str2 {stroke:#F04368;stroke-width:11.02;stroke-linecap:round;stroke-linejoin:round;stroke-miterlimit:2.61313}
    .str3 {stroke:#FEFEFE;stroke-width:11.02;stroke-linecap:round;stroke-linejoin:round;stroke-miterlimit:2.61313}
    .str0 {stroke:#B2B3B3;stroke-width:11.02;stroke-miterlimit:10}
    .fil13 {fill:none}
    .fil12 {fill:none;fill-rule:nonzero}
    .fil21 {fill:#FFF0AC}
    .fil34 {fill:#E44859}
    .fil31 {fill:#F4BA16}
    .fil19 {fill:#EDE4F2}
    .fil17 {fill:#E9E9E9}
    .fil29 {fill:#E3F1FA}
    .fil22 {fill:#6E4694}
    .fil27 {fill:#7836B5}
    .fil18 {fill:#A568D1}
    .fil32 {fill:#C4A4E3}
    .fil23 {fill:#C71E45}
    .fil28 {fill:#D4D3D0}
    .fil33 {fill:#DEC9F2}
    .fil24 {fill:#E3E1E2}
    .fil14 {fill:#F04368}
    .fil30 {fill:#F4E8FA}
    .fil20 {fill:#FAB711}
    .fil16 {fill:#FEFEFE}
    .fil15 {fill:#FFE8E8}
    .fil9 {fill:#9D9E9E;fill-rule:nonzero}
    .fil6 {fill:#DCDDDC;fill-rule:nonzero}
    .fil2 {fill:#BDBCBC;fill-rule:nonzero}
    .fil8 {fill:#666666;fill-rule:nonzero}
    .fil0 {fill:#BABABA;fill-rule:nonzero}
    .fil25 {fill:#C71E45;fill-rule:nonzero}
    .fil10 {fill:#CF7923;fill-rule:nonzero}
    .fil4 {fill:#D4D3D0;fill-rule:nonzero}
    .fil7 {fill:#E3E1E2;fill-rule:nonzero}
    .fil26 {fill:#F04368;fill-rule:nonzero}
    .fil5 {fill:#F0F1F0;fill-rule:nonzero}
    .fil3 {fill:#F8F8F9;fill-rule:nonzero}
    .fil11 {fill:#FAB711;fill-rule:nonzero}
    .fil1 {fill:#FEFEFE;fill-rule:nonzero}
   ]]>
  </style>
 </defs>
 <g id="Layer_x0020_1">
  <metadata id="CorelCorpID_0Corel-Layer"/>
  <path class="fil0" d="M1897.85 1223.12l-82.63 45.91c-6.9,4.6 -16.07,4.6 -24.11,0l-782.8 -452.22c-8.04,-3.44 -13.78,-12.64 -13.78,-21.81l0 -703.61c0,-4.61 1.15,-8.04 3.44,-12.63l1.15 -2.29c2.3,-4.59 5.75,-8.04 9.19,-10.33l83.78 -47.07c18.36,-10.33 35.59,-16.07 51.66,-18.38 18.35,-2.28 34.42,1.16 48.21,8.05 1.14,0 1.14,1.15 1.14,1.15l1.15 1.15 781.66 452.23c1.14,0 2.29,1.15 3.44,2.28 11.47,6.91 20.65,17.22 27.54,31.01 5.75,12.63 9.19,27.55 9.19,43.61l-2.29 494.71c0,34.42 -13.78,72.3 -35.59,105.6 -18.36,34.44 -47.05,64.27 -80.35,82.63zm-94.12 -2.29l70.02 -40.17c25.25,-14.93 49.36,-37.89 65.42,-65.43 17.22,-26.4 27.55,-55.09 27.55,-79.2l2.29 -494.7c0,-9.18 -1.14,-17.21 -4.58,-22.96 -2.3,-4.58 -5.75,-8.02 -9.19,-11.48l-1.14 -1.15 -781.66 -452.23c-1.15,0 -2.3,-1.15 -3.44,-1.15 -5.75,-2.29 -11.48,-3.43 -19.52,-2.29 -10.33,1.15 -20.67,4.59 -33.28,11.48l-72.32 41.32 0 678.34 759.84 439.62z"/>
  <path class="fil1" d="M1112.76 528.7l0 -68.87 682.95 424.69 172.17 -398.28 -783.95 -453.38 -1.15 -1.15c-19.52,-10.33 -47.05,-8.05 -78.05,9.18l-83.79 47.07 -1.15 2.3 0 670.31 0 -145.78c56.24,-32.13 92.98,-27.54 92.98,-86.08z"/>
  <path class="fil2" d="M1211.46 520.68l0 63.13c0,29.84 -12.62,63.13 -32.14,94.11 -19.52,30.99 -45.92,57.38 -75.76,74.61l-82.64 45.92 -4.59 2.3 0 -730 1.15 -2.3 1.15 -1.14 83.78 -47.07c14.92,-9.18 29.86,-13.78 43.62,-14.92 12.62,-1.14 22.96,0 32.13,4.59l4.59 2.28 1.15 1.16 783.95 453.38 2.29 1.15 -1.15 2.29 -172.17 280.07 -1.14 2.28 -2.3 -1.14 -581.94 -230.7zm-6.88 63.13l0 -74.61 4.59 3.44 585.38 230.7 168.73 -275.46 -780.51 -451.09 -1.15 -1.15c-9.18,-4.58 -20.66,-6.88 -33.29,-5.73 -12.62,1.15 -26.4,5.73 -41.32,14.92l-82.64 47.05 -1.14 1.15 0 717.38 78.05 -43.62c28.69,-16.06 55.09,-42.46 73.45,-72.3 18.37,-29.84 29.85,-61.99 29.85,-90.68z"/>
  <path class="fil0" d="M154.33 1780.97l0 -568.17c0,-9.18 4.59,-17.21 12.63,-21.81l775.91 -447.65c8.04,-4.58 17.21,-4.58 26.4,0l833.31 482.08c9.19,4.59 14.92,12.63 14.92,22.96l0 568.16c0,39.02 -12.63,81.49 -30.99,119.37 -19.52,37.88 -48.21,70.02 -78.05,88.38l-579.65 337.45c-16.06,9.17 -30.98,13.78 -45.92,14.91 -16.06,1.16 -32.13,-2.28 -44.76,-11.48l-833.29 -480.91c-1.15,-1.16 -3.44,-1.16 -4.59,-2.3 -14.92,-9.18 -26.4,-22.96 -33.29,-40.17 -9.19,-18.37 -12.63,-39.04 -12.63,-60.83zm51.65 -553.25l0 553.25c0,14.92 2.3,28.69 6.88,37.87 3.46,8.04 8.04,13.78 13.78,17.22 1.14,0 1.14,1.14 2.29,1.14l832.15 479.79c1.15,1.15 2.3,1.15 3.46,2.28 4.58,2.31 9.18,3.46 13.77,2.31 6.88,0 14.92,-3.44 22.96,-8.04l579.64 -336.3c21.81,-12.62 43.62,-37.88 58.55,-67.72 16.06,-29.85 25.25,-64.28 25.25,-95.28l0 -553.23 -809.2 -468.32 -749.52 435.03z"/>
  <path class="fil3" d="M184.17 1212.79l0 568.17c0,39.01 12.63,66.57 33.29,78.05l790.85 456.83c25.25,14.92 42.46,21.81 70.01,25.25l301.87 -247.92c53.95,-30.99 97.56,-113.64 97.56,-184.8l0 -476.34 -456.83 253.67 -836.75 -472.9z"/>
  <path class="fil2" d="M1473.17 1908.37c0,34.44 -10.34,73.45 -28.7,105.6 -17.21,33.29 -41.32,60.83 -67.72,75.74l-313.35 210.06 -1.15 1.15 0 1.15 -8.04 36.73 -837.89 -484.37c-10.34,-5.74 -18.37,-14.92 -22.96,-28.69 -5.74,-12.63 -8.04,-28.7 -8.04,-47.06l0 -564.72 833.31 477.49 1.14 1.15 1.15 -1.15 451.09 -254.81 1.15 471.75zm-1294.73 -128.57l1.14 4.6 0 3.44 -1.14 -8.05zm1297.02 -350.08l-454.53 255.97 -836.75 -479.8 -4.59 -2.28 0 576.18c0,19.52 3.46,35.59 9.19,49.37l-2.29 -12.63 2.29 9.17 4.59 8.05 -4.59 -5.74c4.59,11.48 12.63,21.81 20.66,27.55 1.15,1.15 3.44,2.3 4.59,3.45l-4.59 -4.6 1.15 0 3.44 4.6 8.04 4.59 834.46 482.08 3.44 2.28 1.14 -4.58 8.04 -40.18 312.21 -210.04c27.55,-16.07 51.65,-44.76 70.02,-78.06 18.36,-34.44 28.69,-72.3 28.69,-109.05l0 -482.08 -4.59 5.74z"/>
  <path class="fil1" d="M1022.08 1689.14l0 567.01c0,71.18 43.61,104.46 97.56,73.47l575.06 -330.57c52.79,-30.99 97.56,-113.63 97.56,-184.81l0 -568.16 -767.89 443.06 -2.29 0z"/>
  <path class="fil0" d="M1017.48 2257.3l0 -572.75 4.59 2.3 771.32 -445.35 0 573.9c0,35.58 -11.48,74.61 -28.69,109.05 -18.36,34.43 -42.47,63.13 -70.01,78.04l-576.21 330.57c-13.77,8.03 -27.54,11.48 -40.17,11.48 -10.33,0 -19.52,-2.29 -28.69,-8.03 -8.04,-4.59 -14.93,-12.63 -20.67,-21.81 -5.73,-14.92 -11.48,-34.44 -11.48,-57.39zm6.88 -563.58l0 563.58c0,22.95 4.59,41.32 12.63,55.09 4.59,9.18 11.48,16.07 18.36,20.66 6.88,4.59 16.07,6.88 25.25,6.88 11.48,0 22.96,-3.44 36.73,-10.33l576.21 -330.57c26.4,-14.92 50.5,-42.47 67.72,-75.75 17.21,-33.29 28.69,-71.17 28.69,-105.6l0 -562.42 -765.59 438.45z"/>
  <polygon class="fil4" points="954.36,764 1791.11,1247.23 1022.08,1689.14 186.48,1207.06 "/>
  <polygon class="fil1" points="605.42,1018.82 605.42,969.46 186.48,1210.5 1022.08,1692.58 1789.96,1249.52 1602.87,1141.63 1556.95,1162.3 1691.25,1247.23 1018.63,1632.9 397.67,1278.23 289.78,1207.06 "/>
  <path class="fil0" d="M1784.22 1247.23l-829.87 -479.78 -765.59 440.75 832.16 478.64 763.3 -439.61zm-827.58 -485.53l835.61 483.23c1.14,1.14 2.29,2.29 1.14,4.58l-1.14 1.15 -769.03 444.2c-1.15,1.15 -2.3,0 -3.46,0l-839.04 -482.08c-1.15,-1.15 -2.29,-2.29 -1.15,-4.59l1.15 -1.14 771.33 -445.36c2.29,-1.14 3.44,-1.14 4.58,0z"/>
  <path class="fil1" d="M1991.98 1037.18l2.29 -494.7c0,-58.55 -47.07,-79.2 -104.46,-47.07l-83.78 47.07 -1.15 2.29 0 704.75 82.64 -45.9c56.24,-34.44 104.46,-109.04 104.46,-166.44z"/>
  <path class="fil0" d="M1996.56 541.33l-2.29 494.7c0,29.84 -12.63,63.14 -32.15,94.12 -19.52,29.83 -45.9,57.39 -75.76,74.61l-84.93 48.21 -4.59 2.31 0 -710.5 1.15 -2.29 1.15 -1.15 86.08 -48.21c19.52,-10.34 36.73,-16.07 52.8,-16.07 10.33,0 19.52,2.3 27.54,6.88 8.04,4.58 14.92,11.48 19.52,19.52 9.19,9.19 11.48,22.96 11.48,37.88zm-6.88 495.85l2.3 -494.7c0,-13.78 -2.3,-26.4 -8.05,-35.59 -4.58,-8.02 -10.33,-13.77 -17.21,-17.21 -6.88,-3.44 -16.07,-5.75 -25.25,-5.75 -14.92,0 -32.15,4.58 -49.36,14.93l-86.08 48.21 -1.15 1.14 0 696.72 80.35 -45.92c28.69,-16.09 53.94,-42.47 73.45,-72.32 18.36,-28.69 29.84,-61.98 30.99,-89.53z"/>
  <polygon class="fil1" points="1019.77,796.14 1019.77,91.39 1803.72,544.77 1803.72,1248.38 "/>
  <polygon class="fil5" points="1760.11,1216.24 1760.11,565.44 1050.77,154.52 1054.21,343.91 1054.21,812.22 1693.54,1185.26 1758.96,1221.98 "/>
  <path class="fil6" d="M988.79 474.76l0 304.17 664.58 383.37 0 -215.79c0,-45.92 -28.7,-101.01 -64.28,-121.66l-600.3 -350.08z"/>
  <polygon class="fil7" points="1211.46,247.49 1050.77,154.52 1054.21,343.91 1054.21,812.22 1693.54,1185.26 1758.96,1221.98 1760.11,1216.24 1760.11,665.29 1211.46,347.35 "/>
  <path class="fil0" d="M1764.71 1225.43l-5.75 -3.44 0 -656.54 -704.75 -408.62 0 657.7 -5.73 -3.44 0 -658.85c0,-1.15 1.15,-3.44 3.44,-3.44 1.15,0 1.15,0 1.15,0l710.48 412.06c1.15,0 1.15,1.15 1.15,2.29l0 662.29z"/>
  <path class="fil0" d="M1022.08 95.99l0 696.7 775.91 449.95 0 -696.72 -775.91 -449.93zm-6.88 699.02l0 -704.75c0,-1.15 1.14,-3.47 3.44,-3.47 1.14,0 1.14,0 2.29,0l782.8 453.4c1.15,0 1.15,1.15 1.15,2.3l0 703.6c0,1.15 -1.15,3.44 -3.44,3.44 -1.15,0 -1.15,0 -1.15,0l-782.8 -453.38c-1.15,1.15 -2.29,0 -2.29,-1.14z"/>
  <path class="fil2" d="M1016.33 1626.01l-726.55 -418.95 96.11 -55.97 71.48 -41.59c0,-2.3 1.14,-5.75 2.29,-8.04l-177.91 103.3c-1.14,1.14 -2.29,2.3 -1.14,4.59l1.14 1.15 733.45 422.39c1.14,1.15 2.29,0 3.44,0l649.65 -369.59 0 -8.03 -651.95 370.74z"/>
  <path class="fil8" d="M1584.5 764l-811.5 -472.88c-4.59,-2.29 -6.88,-3.46 -9.18,-3.46 -1.15,0 -3.44,1.16 -6.9,3.46l-27.54 17.21c-9.19,5.75 -14.92,9.19 -17.22,12.63 -2.29,3.44 -3.44,9.19 -3.44,19.52l27.96 1056.25 343.6 199.45 -31.67 11.9 -285.85 -163.24c-57.39,-33.3 -105.68,-58.06 -105.68,-148.74l0 -954.49c0,-22.94 3.44,-36.74 12.63,-49.34 8.02,-11.48 18.36,-18.36 32.13,-27.56l27.55 -17.21c11.48,-6.88 21.81,-10.33 34.44,-10.33 11.48,0 22.96,3.44 35.58,10.33l810.35 472.9c20.67,11.49 37.88,33.3 51.65,57.39 12.63,24.11 19.52,51.65 19.52,76.91l0 394.83 -51.65 29.85 0 -425.84c0,-17.21 -5.75,-36.73 -13.77,-52.8 -9.19,-16.07 -19.52,-29.84 -30.99,-36.74z"/>
  <path class="fil9" d="M1597.13 742.2l-811.5 -472.9c-19.52,-11.48 -33.28,-5.75 -45.92,2.29l-36.73 21.81 21.81 28.69 145.77 893.01c6.88,42.45 30.99,87.23 58.55,111.32l371.91 141.4 355.8 -204.24 0 -410.04c-1.15,-42.46 -27.55,-92.97 -59.68,-111.33z"/>
  <path class="fil8" d="M1595.98 744.49l-812.64 -472.9c-9.19,-5.73 -17.22,-6.9 -22.96,-5.73 -6.9,1.14 -12.63,4.57 -19.52,8.04l-34.44 20.65 19.52 26.4 1.15 1.14 145.77 893.01c3.44,20.65 10.33,41.32 20.65,60.83 10.34,19.51 22.96,36.72 36.73,49.35l417.81 117.08 -5.75 3.44 -416.64 -115.93c-13.78,-12.62 -27.55,-30.99 -37.88,-50.5 -10.34,-19.51 -18.36,-41.32 -21.81,-63.14l-145.78 -892.99 -20.65 -28.69 -2.3 -2.29 3.46 -2.3 36.73 -21.81c6.88,-4.59 13.77,-8.04 21.81,-9.19 8.04,-1.14 17.21,1.15 27.55,6.9l811.49 472.9c16.07,9.18 30.99,27.54 42.47,48.19 10.33,20.67 17.21,44.78 17.21,66.58l0 412.42 -6.88 3.45 0 -415.86c0,-20.68 -6.88,-43.62 -17.21,-63.13 -9.19,-19.52 -22.96,-36.73 -37.88,-45.92z"/>
  <path class="fil1" d="M1552.37 768.59l-812.65 -472.88c-32.13,-18.36 -58.53,1.14 -58.53,43.6l0 936.81 466.01 276.13 177.9 -99.86 284.65 -157.25 0 -414.04c1.15,-42.49 -25.25,-92.98 -57.38,-112.5z"/>
  <path class="fil8" d="M1551.22 772.05l-812.65 -472.91c-8.02,-4.58 -14.91,-6.87 -21.81,-6.87 -4.59,0 -10.33,1.14 -13.77,3.44 -4.59,2.29 -8.04,5.73 -10.33,11.48 -4.59,8.02 -6.88,19.52 -6.88,33.28l0 950.38c0,53.95 11.47,98.71 79.19,142.33l-66.57 -28.69 -18.36 -20.67 0 -1043.34c0,-14.92 3.44,-26.4 8.04,-35.6 3.44,-5.73 8.04,-10.31 12.63,-13.76 4.58,-3.46 11.47,-4.59 17.21,-4.59 8.04,0 16.07,2.3 24.11,6.88l812.64 472.9c16.07,9.18 30.98,27.55 42.47,48.22 10.33,20.65 17.21,44.76 17.21,66.57l0 409.63 -6.88 3.44 0 -413.08c0,-20.67 -6.88,-43.62 -17.21,-63.13 -10.34,-20.67 -24.11,-36.75 -39.03,-45.92z"/>
  <path class="fil0" d="M1016.33 1626.01l-726.55 -418.95 35.59 -20.67 0 -6.88 -43.62 25.25c-1.14,1.14 -2.29,2.3 -1.14,4.59l1.14 1.15 733.45 422.39c1.01,0.59 2.29,0.5 3.44,0l662.28 -376.48 0 -8.04 -664.58 377.63z"/>
  <path class="fil10" d="M1704.88 34.21c-51.65,-28.69 -97.56,-32.12 -128.54,-16.06l-22.01 9.91c-4.07,1.35 -7.98,2.93 -11.64,4.83l-81.49 36.74 18.36 42.46c-10.33,24.11 -13.77,53.95 -13.77,87.24 0,151.5 91.82,327.13 207.74,394.85 6.88,3.44 11.48,6.88 18.36,10.33l25.67 46.83c0,0 119.32,-54.69 122.76,-55.84 44.76,-24.11 72.32,-83.79 72.32,-166.44 0,-151.5 -91.83,-327.13 -207.76,-394.85z"/>
  <path class="fil11" d="M1588.13 88.03c115.93,67.71 207.76,243.35 207.76,394.83 0,151.52 -94.12,219.25 -207.76,153.82 -115.93,-67.73 -207.75,-243.35 -207.75,-394.86 -2.3,-153.79 90.67,-221.53 207.75,-153.79z"/>
  <line class="fil12 str0" x1="1610.63" y1="939.25" x2="685.58" y2= "401.53" />
  <line class="fil13 str1" x1="1610.31" y1="938.82" x2="1675.53" y2= "901.17" />
  <g id="_2264431009216">
   <path class="fil14" d="M907.07 1263.23l0 0zm119.11 -85.69l359.54 208.42c9.89,5.76 19.04,14.7 26.57,25.4l-43.1 24.93c-2.65,-3.25 -5.46,-5.8 -8.26,-7.44l-360.28 -208.82 -2.22 0.93 -90.18 41.84 -1.18 0.43 0.59 0.22c-0.89,2.36 -1.48,5.83 -1.48,10.35l0 73.77c0,10.33 3.1,21.67 7.97,31.56 4.72,9.17 10.48,16.56 16.38,19.92l251.21 145.59 -49.44 28.59 -226.56 -131.31c-14.47,-8.28 -27.01,-23.18 -35.72,-40.47 -8.26,-16.56 -13.43,-35.82 -13.43,-53.89l0 -73.77c0,-11.11 1.77,-21.02 5.31,-29.37 4.14,-9.79 10.33,-17.51 18.16,-22.7l3.39 -2.08 0.29 -0.13c1.18,-0.68 2.66,-1.34 4.28,-1.94l90.18 -41.89c7.23,-4.09 15.2,-6.02 23.62,-5.61 8.11,0.4 16.23,2.82 24.2,7.47l0.15 0z"/>
   <path class="fil15" d="M1013.64 1198.99l359.69 208.42c6.34,3.64 12.25,9.37 17.56,16.39l-191.43 110.58 -130.48 -126.33 -52.99 -30.66c-15.5,-9.03 -29.07,-30.58 -34.24,-53.03l-87.08 -82.57 94.91 -44.03 0 0.02c6.49,-4.21 14.9,-4.14 24.06,1.18l0 0.04z"/>
   <path class="fil14" d="M1015.71 1195.39l359.69 208.45c6.94,3.99 13.28,10.24 19.04,17.88l-7.23 4.13c-4.72,-6.37 -10.18,-11.55 -15.94,-14.86l-359.69 -208.41c-3.99,-2.32 -7.53,-3.45 -10.92,-3.64 -3.4,-0.15 -6.35,0.63 -8.86,2.3l-3.84 2.53 -0.3 -0.55 -85.75 39.8 82.66 78.42 1.03 2.02c2.65,10.94 7.23,21.64 12.99,30.61 5.61,8.66 12.4,15.68 19.48,19.79l52.99 30.66 0.74 0.59 131.5 127.18 -7.53 4.29 -129.3 -125.2 -52.54 -30.38c-8.26,-4.78 -15.94,-12.77 -22.29,-22.4 -6.05,-9.49 -10.77,-20.65 -13.73,-32.06l-90.62 -85.9 100.36 -46.51c3.84,-2.45 8.42,-3.64 13.28,-3.42 4.72,0.26 9.74,1.8 14.76,4.7l0 -0.01z"/>
   <path class="fil16" d="M918.15 1243.42l362.34 210c7.97,4.59 15.35,12.38 21.26,21.86l-144.79 83.63 -238.81 -138.38c-20.37,-11.71 -36.75,-44.53 -36.75,-72.93l0 -73.8c0,-28.4 16.38,-42.07 36.75,-30.38z"/>
   <path class="fil14" d="M920.21 1239.86l362.35 210c8.56,4.93 16.38,13.26 22.73,23.35l-7.08 4.13c-5.76,-8.89 -12.55,-16.13 -19.63,-20.34l-362.5 -210c-4.28,-2.5 -8.27,-3.65 -11.81,-3.65 -2.95,0 -5.46,0.8 -7.82,2.19 -2.36,1.5 -4.57,3.76 -6.2,6.69 -2.95,5.24 -4.72,12.56 -4.72,21.57l0 73.78c0,13.55 3.99,28.22 10.34,40.87 6.34,12.53 14.9,23.05 24.35,28.5l240.88 139.63 -8.27 4.74 -236.74 -137.21c-10.78,-6.29 -20.66,-18.05 -27.6,-31.94 -6.93,-13.77 -11.22,-29.73 -11.22,-44.57l0 -73.77c0,-10.51 2.07,-19.25 5.91,-25.68 2.36,-4.07 5.31,-7.32 8.86,-9.55 3.69,-2.27 7.82,-3.47 12.25,-3.47 5.02,0 10.33,1.55 15.94,4.75l0 -0.01z"/>
   <path class="fil17" d="M890.1 870.01l362.2 209.75c20.22,11.72 36.75,44.56 36.75,72.96l0 73.77c0,14.8 -4.43,25.55 -11.66,30.88 -2.07,1.55 -4.28,2.6 -6.79,3.19l-91.8 43.14 -0.15 0.07c-6.2,2.86 -13.73,2.27 -21.84,-2.46l-362.2 -209.72c-20.22,-11.69 -36.9,-44.55 -36.9,-72.93l0 -73.78c0,-15.93 5.31,-27.2 13.43,-32l0 0 3.25 -1.51 91.66 -42.52c6.34,-4.19 14.9,-4.14 24.06,1.16z"/>
   <path class="fil18" d="M783.53 934.31l0.15 0 -0.15 0 0 0zm456.37 166.91l-362.94 -210.12 -2.06 0.91 -90.18 41.83 -1.03 0.47 0.59 0.21c-1.18,2.35 -1.62,5.8 -1.62,10.35l0 73.77c0,10.35 2.95,21.7 7.97,31.57 4.57,9.17 10.48,16.54 16.24,19.93l363.23 210.28 88.41 -41.48c1.33,-0.74 2.65,-1.37 4.13,-1.89l0.15 -0.62c0.88,-2.33 1.48,-5.67 1.48,-9.93l0 -73.78c0,-10.36 -3.1,-21.7 -8.12,-31.59 -4.57,-9.17 -10.48,-16.53 -16.24,-19.9l0 -0.02zm-337.4 -252.61l362.2 209.74c14.32,8.31 27.01,23.21 35.72,40.47 8.26,16.56 13.43,35.84 13.43,53.9l0 73.78c0,10.17 -1.62,19.41 -4.58,27.38 -3.54,9.34 -8.85,16.88 -15.64,22.33 -1.18,1.09 -2.51,2.01 -3.99,2.81 -1.62,0.99 -3.25,1.9 -5.02,2.71 -1.77,0.86 -3.69,1.62 -5.61,2.23 -28.93,13.61 -62.88,31.86 -91.95,43.13 -6.79,2.73 -13.88,3.75 -21.55,2.89 -6.94,-0.75 -14.17,-3.14 -21.26,-7.23l-362.05 -209.75c-14.32,-8.29 -27.01,-23.2 -35.72,-40.46 -8.27,-16.58 -13.43,-35.88 -13.43,-53.9l0 -73.78c0,-11.1 1.92,-21 5.46,-29.35 3.99,-9.8 10.18,-17.52 18.01,-22.72l3.39 -2.08c1.33,-0.75 2.95,-1.43 4.57,-2.1l90.33 -41.87c6.94,-4.06 15.05,-6.02 23.61,-5.64 7.97,0.45 16.09,2.87 24.06,7.5l0 0.02z"/>
   <path class="fil19" d="M890.1 870.01l362.2 209.75c20.22,11.72 36.75,44.56 36.75,72.96l0 73.77c0,14.8 -4.43,25.55 -11.66,30.88 -2.07,1.55 -4.28,2.6 -6.79,3.19l-91.95 43.22 -235.71 -225.97 -52.84 -30.66c-15.65,-9.04 -28.93,-30.61 -34.24,-53.03l-84.72 -81.25 94.9 -44.03c6.34,-4.19 14.9,-4.13 24.06,1.16l0 0.02z"/>
   <path class="fil18" d="M1250.24 1083.35l-362.2 -209.7c-3.98,-2.32 -7.68,-3.47 -11.07,-3.65 -3.25,-0.18 -6.19,0.65 -8.7,2.28l-6.49 4.14 0 -1.12 -83.39 38.76 80.29 77.04 1.18 2.07c2.66,10.94 7.23,21.62 12.99,30.63 5.61,8.61 12.25,15.63 19.33,19.78l52.99 30.63 0.74 0.59 233.5 224.04 89.59 -41.99 0.74 -0.31 2.8 -0.93 2.21 -1.33 0.3 -0.26c2.95,-2.22 5.46,-5.73 7.08,-10.3 1.92,-4.68 2.8,-10.46 2.8,-17.2l0 -73.78c0,-13.58 -3.99,-28.22 -10.33,-40.89 -6.34,-12.53 -14.91,-23.04 -24.35,-28.5l0 0.01zm-358.07 -216.86l362.2 209.7c10.78,6.29 20.67,18.04 27.6,31.94 6.94,13.77 11.22,29.72 11.22,44.59l0 73.78c0,7.7 -1.18,14.49 -3.25,20.09 -1.62,4.34 -3.84,7.98 -6.49,10.89l2.07 2.08 -6.35 1.59 -3.25 1.87c-1.18,0.62 -2.65,1.08 -3.99,1.45l-94.02 44.19 -237.48 -227.59 -52.4 -30.39c-8.27,-4.81 -15.79,-12.75 -22.14,-22.39 -6.2,-9.5 -11.07,-20.68 -13.87,-32.07l-88.12 -84.58 100.22 -46.49c1.63,-1.01 3.4,-1.81 5.02,-2.35l0.89 -0.47 0 0.18c2.36,-0.67 4.87,-0.9 7.38,-0.77 4.72,0.22 9.74,1.74 14.76,4.71l0 0.04z"/>
   <path class="fil16" d="M794.61 914.47l362.2 209.72c20.07,11.73 36.75,44.56 36.75,72.99l0 73.75c0,28.43 -16.68,42.1 -36.75,30.39l-362.2 -209.75c-20.22,-11.71 -36.9,-44.53 -36.9,-72.93l0 -73.78c0,-28.4 16.68,-42.08 36.9,-30.38l0 -0.02z"/>
   <path class="fil18" d="M1154.74 1127.81l-362.35 -209.75c-4.14,-2.46 -8.12,-3.63 -11.66,-3.63 -2.95,0 -5.61,0.77 -7.97,2.18 -2.36,1.46 -4.43,3.74 -6.05,6.69 -3.1,5.21 -4.72,12.53 -4.72,21.56l0 73.75c0,13.57 3.84,28.22 10.33,40.89 6.2,12.55 14.91,23.04 24.35,28.49l362.2 209.76c4.14,2.45 8.26,3.6 11.81,3.6 2.81,0 5.46,-0.77 7.82,-2.17 2.36,-1.51 4.43,-3.75 6.2,-6.69 2.95,-5.23 4.72,-12.56 4.72,-21.57l0 -73.75c0,-13.58 -3.99,-28.25 -10.33,-40.89 -6.34,-12.53 -15.05,-23.06 -24.35,-28.48zm-358.07 -216.89l362.2 209.72c10.78,6.28 20.52,18.05 27.45,31.94 6.94,13.75 11.22,29.74 11.22,44.6l0 73.75c0,10.5 -2.07,19.26 -5.75,25.7 -2.37,4.09 -5.46,7.32 -9,9.52 -3.69,2.29 -7.68,3.47 -12.11,3.47 -5.02,0 -10.33,-1.51 -15.94,-4.72l-362.35 -209.72c-10.63,-6.27 -20.52,-18.03 -27.45,-31.94 -6.94,-13.75 -11.22,-29.71 -11.22,-44.59l0 -73.77c0,-10.51 2.07,-19.25 5.91,-25.7 2.36,-4.12 5.31,-7.32 8.85,-9.56 3.69,-2.26 7.68,-3.44 12.25,-3.44 4.87,0 10.34,1.52 15.94,4.77l0 -0.03z"/>
   <path class="fil17" d="M771.88 544.77l480.42 278.2c20.22,11.69 36.75,44.51 36.75,72.9l0 73.8c0,14.76 -4.43,25.52 -11.66,30.86 -2.07,1.51 -4.28,2.58 -6.79,3.19l-91.8 43.14 -0.15 0 0 0.06c-6.2,2.86 -13.73,2.27 -21.84,-2.43l-480.42 -278.2c-20.22,-11.72 -36.9,-44.5 -36.9,-72.94l0 -73.75c0,-15.94 5.31,-27.23 13.43,-32.02l0 -0.03 3.25 -1.47 91.66 -42.55c6.34,-4.19 14.9,-4.09 24.06,1.24l0 0.01z"/>
   <path class="fil20" d="M665.31 608.99l-0.15 0.03 0.15 -0.03 0 0zm574.59 235.38l-481.16 -278.56 -2.21 0.91 -90.92 42.26 0.3 0.25c-1.03,2.35 -1.48,5.82 -1.48,10.35l0 73.75c0,10.35 2.95,21.7 8.12,31.59 4.57,9.14 10.33,16.54 16.23,19.92l481.31 278.74 88.41 -41.46c1.33,-0.74 2.8,-1.4 4.13,-1.92l0.29 -0.61c0.74,-2.32 1.33,-5.65 1.33,-9.93l0 -73.78c0,-10.37 -3.1,-21.67 -8.12,-31.59 -4.57,-9.12 -10.33,-16.5 -16.24,-19.93zm-455.63 -321.05l480.42 278.18c14.32,8.34 26.87,23.21 35.72,40.51 8.26,16.5 13.43,35.84 13.43,53.87l0 73.78c0,10.18 -1.62,19.42 -4.72,27.38 -3.4,9.32 -8.71,16.9 -15.5,22.35 -1.18,1.09 -2.66,2.01 -4.13,2.79 -1.47,1 -3.1,1.87 -4.87,2.72 -1.92,0.87 -3.69,1.61 -5.61,2.23l-88.41 41.54 -2.37 1.14 -1.18 0.47c-6.79,2.7 -13.88,3.75 -21.55,2.87 -6.94,-0.75 -14.17,-3.11 -21.26,-7.22l-480.42 -278.19c-14.17,-8.32 -26.86,-23.22 -35.57,-40.5 -8.41,-16.53 -13.43,-35.84 -13.43,-53.89l0 -73.75c0,-11.1 1.92,-21.03 5.31,-29.39 3.99,-9.43 9.89,-16.96 17.42,-22.17 1.62,-1.22 3.25,-2.21 5.02,-3.01l1.48 -0.81 2.95 -1.21 89.44 -41.5c7.23,-4.1 15.2,-6.05 23.76,-5.62 7.82,0.38 15.94,2.8 24.06,7.45l0 0z"/>
   <path class="fil21" d="M771.88 544.77l480.42 278.2c20.22,11.69 36.75,44.51 36.75,72.9l0 73.8c0,14.76 -4.43,25.52 -11.66,30.86 -2.07,1.51 -4.28,2.58 -6.79,3.19l-91.95 43.2 -351.57 -293.11 -52.99 -30.66c-15.5,-9.03 -28.93,-30.6 -34.24,-53.03l-86.93 -82.57 94.9 -44.02c6.34,-4.19 14.9,-4.1 24.06,1.24z"/>
   <path class="fil20" d="M1250.24 826.53l-480.43 -278.21c-3.99,-2.26 -7.68,-3.44 -11.07,-3.6 -3.24,-0.13 -6.2,0.65 -8.71,2.3l-3.99 2.51 -0.15 -0.55 -85.75 39.8 82.51 78.39 1.18 2.04c2.66,10.92 7.23,21.64 12.99,30.63 5.61,8.62 12.25,15.64 19.33,19.76l52.99 30.64 0.59 0.41 349.5 291.4 89.59 -42.06 0.74 -0.25 2.8 -0.97 2.07 -1.21 0.59 -0.34c2.95,-2.26 5.46,-5.76 7.08,-10.33 1.77,-4.66 2.8,-10.46 2.8,-17.21l0 -73.78c0,-13.57 -3.99,-28.21 -10.33,-40.9 -6.34,-12.52 -14.91,-23.01 -24.35,-28.45zm-476.29 -285.35l480.42 278.18c10.78,6.29 20.67,18.06 27.6,31.94 6.94,13.76 11.22,29.75 11.22,44.59l0 73.78c0,7.72 -1.18,14.51 -3.25,20.1 -1.62,4.33 -3.84,7.97 -6.49,10.88l0.88 0.99 -4.72 2.41c-1.03,0.81 -2.37,1.53 -3.69,2.17 -1.33,0.61 -2.65,1.08 -3.99,1.43l-93.87 44.12 -353.35 -294.54 -52.54 -30.51c-8.27,-4.78 -15.94,-12.74 -22.14,-22.38 -6.2,-9.5 -11.07,-20.69 -13.88,-32.09l-90.62 -85.9 100.36 -46.52c3.84,-2.46 8.41,-3.64 13.28,-3.41 4.72,0.23 9.74,1.77 14.76,4.72l0 0.04z"/>
   <path class="fil16" d="M676.38 589.23l480.42 278.17c20.07,11.7 36.75,44.52 36.75,72.93l0 73.78c0,28.41 -16.68,42.08 -36.75,30.38l-480.42 -278.19c-20.22,-11.74 -36.9,-44.53 -36.9,-72.96l0 -73.75c0,-28.4 16.68,-42.08 36.9,-30.36z"/>
   <path class="fil20" d="M1154.74 870.97l-480.57 -278.19c-4.14,-2.46 -8.11,-3.61 -11.66,-3.61 -2.95,0 -5.61,0.74 -7.97,2.19 -2.36,1.47 -4.43,3.73 -6.05,6.67 -3.1,5.21 -4.72,12.55 -4.72,21.55l0 73.75c0,13.56 3.84,28.24 10.33,40.89 6.2,12.53 14.9,23.04 24.35,28.5l480.42 278.19c4.14,2.46 8.26,3.62 11.81,3.62 2.81,0 5.46,-0.75 7.82,-2.16 2.36,-1.48 4.43,-3.78 6.2,-6.67 2.95,-5.24 4.72,-12.58 4.72,-21.58l0 -73.78c0,-13.55 -3.99,-28.19 -10.33,-40.86 -6.34,-12.56 -15.05,-23.06 -24.35,-28.49l0 -0.02zm-476.29 -285.33l480.42 278.18c10.78,6.29 20.52,18.03 27.45,31.92 6.94,13.76 11.22,29.75 11.22,44.59l0 73.8c0,10.49 -2.07,19.2 -5.75,25.7 -2.37,4.09 -5.46,7.34 -9,9.53 -3.69,2.25 -7.68,3.47 -12.11,3.47 -5.02,0 -10.33,-1.54 -15.94,-4.77l-480.57 -278.19c-10.63,-6.29 -20.52,-18.06 -27.6,-31.94 -6.94,-13.74 -11.07,-29.71 -11.07,-44.59l0 -73.75c0,-10.51 2.07,-19.25 5.9,-25.71 2.37,-4.09 5.31,-7.32 8.86,-9.52 3.69,-2.3 7.67,-3.48 12.25,-3.48 4.87,0 10.33,1.53 15.94,4.75l0 0.02z"/>
  </g>
  <path class="fil22" d="M858.9 999.5c-8.31,-15.6 -19.76,-28.91 -32.34,-36.13 -6.33,-3.64 -12.33,-5.37 -17.7,-5.37 -4.18,0 -7.99,1.06 -11.3,3.06 -3.36,2.02 -6.24,5.05 -8.52,8.97 -3.68,6.33 -5.78,14.96 -5.78,25.57 0,16.57 5.15,34.54 13.49,50.22 8.33,15.61 19.74,28.91 32.34,36.15 6.33,3.63 12.33,5.36 17.68,5.36 4.18,0 8,-1.06 11.31,-3.07 3.37,-2.02 6.25,-5.04 8.53,-8.96 3.68,-6.33 5.76,-14.97 5.76,-25.58 0,-16.57 -5.14,-34.54 -13.48,-50.21l0.01 0zm-29.82 -40.46c13.43,7.7 25.54,21.72 34.28,38.13 8.71,16.37 14.09,35.17 14.09,52.54 0,11.49 -2.36,20.99 -6.49,28.09 -2.69,4.64 -6.17,8.27 -10.24,10.74 -4.11,2.48 -8.8,3.81 -13.93,3.81 -6.21,0 -13.06,-1.96 -20.22,-6.07 -13.42,-7.7 -25.53,-21.71 -34.26,-38.14 -8.71,-16.35 -14.09,-35.16 -14.09,-52.53 0,-11.48 2.35,-20.99 6.47,-28.08 2.7,-4.66 6.18,-8.29 10.24,-10.75 4.13,-2.5 8.83,-3.81 13.94,-3.81 6.24,0 13.07,1.96 20.22,6.08l-0.01 -0.01z"/>
  <path class="fil16" d="M1577.48 185.23l0 0c9.28,5.46 16.88,20 16.88,32.31l0 274.99c0,12.31 -7.59,17.92 -16.88,12.46l0 -0c-9.28,-5.46 -16.87,-20 -16.87,-32.31l0 -274.99c0,-12.31 7.59,-17.92 16.87,-12.46zm-100.99 32.61l0 0c9.28,5.46 16.87,20.01 16.87,32.32l0 82.92c0,12.31 -7.59,17.92 -16.87,12.46l0 0c-9.28,-5.46 -16.87,-20 -16.87,-32.31l0 -82.93c0,-12.32 7.59,-17.92 16.87,-12.46zm248.19 181.7l0 0c9.28,5.46 16.87,20.01 16.87,32.32l0 15.55c0,12.31 -7.59,17.92 -16.87,12.46l0 0c-9.28,-5.46 -16.87,-20 -16.87,-32.32l0 -15.55c0,-12.31 7.59,-17.92 16.87,-12.46zm-96.99 -85.22l0 0c9.28,5.46 16.88,20.01 16.88,32.31l0 82.93c0,12.31 -7.6,17.92 -16.88,12.46l0 0c-9.28,-5.46 -16.87,-20 -16.87,-32.31l0 -82.93c0,-12.31 7.59,-17.92 16.87,-12.46zm48.5 -2.64l0 0c9.28,5.46 16.87,20 16.87,32.32l0 138.23c0,12.31 -7.59,17.92 -16.87,12.46l-0 0c-9.28,-5.46 -16.87,-20 -16.87,-32.31l0 -138.23c0,-12.32 7.59,-17.92 16.87,-12.46zm-147.07 -81.11l0 0c9.28,5.46 16.87,20 16.87,32.31l0 138.23c0,12.31 -7.59,17.92 -16.87,12.46l0 0c-9.28,-5.46 -16.87,-20 -16.87,-32.32l0 -138.23c0,-12.31 7.59,-17.92 16.87,-12.46z"/>
  <line class="fil13 str2" x1="1030.04" y1="704.73" x2="1030.04" y2= "1619.66" />
  <path class="fil23" d="M1036.71 640.53l63.9 36.78c15.96,9.18 29.01,32.59 29.01,52.01l0 61.56c0,15.87 -5.59,21.37 -13.18,27.12 -12.7,9.64 -31.21,19.05 -36.33,22.33 -0.32,0.2 -0.65,0.38 -0.99,0.53l-0.02 0.17 -62.09 30.03 -63.1 -201.63 61.79 -29.98c5.29,-3.72 12.76,-3.65 20.99,1.08z"/>
  <g id="_2264430948704">
   <path class="fil14" d="M974.26 670.85l63.9 36.78c15.96,9.18 29.01,32.59 29.01,52.01l0 61.56c0,15.87 -5.59,21.37 -13.18,27.12 -12.7,9.64 -31.21,19.05 -36.33,22.33 -6.25,4.01 -16.48,-1.88 -22.73,-13.08 -5.26,-9.43 -22.86,-38.33 -35.46,-62.06 -7.85,-14.82 -14.22,-28.38 -14.22,-44.48l0 -61.56c0,-19.42 13.05,-27.79 29.01,-18.61z"/>
  </g>
  <g id="_2264430948000">
   <path class="fil24" d="M1275.68 1772.01l231.56 -134.11c9.46,-5.48 17.19,0.09 17.19,12.37l0 52.34 -8.64 5c-7.81,4.52 -14.2,16.52 -14.2,26.66l0 56.01c0,10.14 6.39,14.74 14.2,10.22l8.64 -5 0 52.25c0,12.28 -7.74,26.81 -17.19,32.29l-231.56 134.11c-9.46,5.48 -17.19,-0.09 -17.19,-12.37l0 -52.25 13.47 -7.8c7.81,-4.52 14.2,-16.52 14.2,-26.66l0 -56.01c0,-10.14 -6.39,-14.74 -14.2,-10.22l-13.47 7.8 0 -52.34c0,-12.28 7.73,-26.81 17.19,-32.29zm41.06 50.88l21.3 -12.33c7.81,-4.52 14.2,0.07 14.2,10.22l0 56.01c0,10.14 -6.39,22.14 -14.2,26.66l-21.3 12.34c-7.81,4.52 -14.2,-0.07 -14.2,-10.22l0 -56.01c0,-10.14 6.39,-22.14 14.2,-26.66zm66.35 -38.43l21.3 -12.34c7.81,-4.52 14.2,0.07 14.2,10.22l0 56.01c0,10.14 -6.39,22.14 -14.2,26.66l-21.3 12.34c-7.81,4.52 -14.2,-0.07 -14.2,-10.22l0 -56.01c0,-10.14 6.39,-22.14 14.2,-26.66zm66.35 -38.43l21.3 -12.34c7.81,-4.52 14.2,0.07 14.2,10.22l0 56.01c0,10.14 -6.39,22.14 -14.2,26.66l-21.3 12.34c-7.81,4.52 -14.2,-0.07 -14.2,-10.22l0 -56.01c0,-10.14 6.39,-22.14 14.2,-26.66z"/>
  </g>
  <g id="_2264430950432">
   <g>
    <path class="fil25" d="M1877.74 1872.91l124.84 -67.64c19.06,-12.12 29.46,-34.68 29.46,-65.9l1.74 -360.63c0,-71.1 -58.96,-164.72 -130.04,-204.6l-282.63 -159.53c-55.48,-31.22 -84.96,-20.82 -126.58,5.18l-93.62 48.56 263.54 391.87 213.28 412.69z"/>
    <path class="fil26" d="M1366.23 1496.63l1.72 -360.65c0,-71.08 60.7,-97.09 131.78,-57.2l282.62 159.52c71.1,39.86 131.78,133.51 130.04,204.6l-1.72 360.65c0,71.08 -60.7,97.1 -131.78,57.2l-282.63 -159.5c-71.1,-41.62 -130.04,-133.5 -130.04,-204.62z"/>
   </g>
   <path class="fil1" d="M1567.37 1262.45l226.4 282.12c7.91,9.87 10.6,23.06 6.03,29.46 -1.54,2.16 -3.72,3.27 -6.22,3.42l-113 8.98c-0.3,0.02 -0.61,0.03 -0.92,0.03l-112.34 8.93c-7.9,0.6 -18,-8.41 -22.54,-20.14 -1.49,-3.85 -2.2,-7.52 -2.2,-10.72l-0 -0 0 -300.11c0,-10.47 7.4,-14.64 16.52,-9.32 3.02,1.76 5.84,4.34 8.28,7.38l0.01 -0.02z"/>
  </g>
  <g>
   <path class="fil27" d="M827.84 996.47c11.09,6.38 20.03,23.27 20.03,37.73 0,14.45 -8.94,21 -20.02,14.65 -11.09,-6.38 -20.07,-23.28 -20.07,-37.74 0,-14.46 8.98,-21.03 20.07,-14.65l-0.01 0.01zm-294.5 155l298.23 -135.05 3 6.52 -298.24 135.04 -2.99 -6.51z"/>
  </g>
  <g>
   <path class="fil28" d="M685.4 1297.55l141.61 71.27 0 -119.33c0,-44.56 -27.49,-96.75 -61.14,-116.08l-77.25 -44.34 -2.94 1.32 -0.28 207.16z"/>
   <path class="fil29" d="M48.02 903.18c3.09,-2.38 30.89,-21.02 34.57,-23.78 24.14,-17.79 38.68,-15.76 62.13,-2.29l554.04 318.05c28.38,16.25 51.6,60.38 51.6,98l0 437.96c0,24.66 -7.46,47.76 -30.07,62.42 -15.01,9.79 -32.67,21.74 -42.86,26.71l-0.43 0.27 -0.3 0.19 -0.17 0.05 -0.39 0.27 -0.39 0.19 -0.07 0.05 -0.88 0.46 -0.03 0 0 0.03 -0.9 0.38 -0.06 0.03 -0.1 0.04 -0.75 0.3 -0.17 0.05 -0.32 0.12 -0.44 0.15 -0.27 0.09 -2.07 0.57 -0.12 0.04 -0.97 0.2 -0.03 0.03 -1 0.13 -0.05 0 -0.47 0.08 -0.51 0.05 -0.1 0 -3.43 0.15 -1.29 0 -1.05 -0.08 -0.05 0 -1.08 -0.1 -0.05 0 -0.51 -0.08 -0.56 -0.07 -0.16 0 0 -0.03 -3.25 -0.65 -0.43 -0.12 -0.17 -0.05 -0.56 -0.19 -0.49 -0.14 -0.08 -0.02 -0.59 -0.19 -0.58 -0.18 -1.19 -0.43 -0.07 -0.05 -1.13 -0.44 -0.15 -0.07 -0.45 -0.19 -0.61 -0.25 -0.25 -0.1 -0.33 -0.16 -0.93 -0.43 -0.3 -0.15 -0.61 -0.29 -0.4 -0.22 -0.2 -0.08 -0.59 -0.3 -0.53 -0.31 -0.08 -0.05 -0.63 -0.3 -0.62 -0.38 -562.83 -323.05 -0.63 -0.39 -0.64 -0.37 0 -0.05 -0.59 -0.37 -0.64 -0.37 -0.12 -0.1 -0.07 -0.04 -2.29 -1.54 -0.26 -0.15 -0.35 -0.31 -0.61 -0.44 -0.31 -0.22 -0.32 -0.2 -0.63 -0.44 -0.34 -0.31 -0.27 -0.2 -1 -0.81 -0.2 -0.17 -0.6 -0.51 -0.46 -0.38 -0.15 -0.1 -0.61 -0.52 -0.49 -0.44 -0.1 -0.09 -0.14 -0.15 -0.99 -0.9 -0.04 0 -0.59 -0.56 -0.58 -0.56 -0.03 -0.02 -0.58 -0.56 -0.56 -0.56 -0.6 -0.58 -0.56 -0.58 -0.15 -0.15 -0.42 -0.44 -0.56 -0.58 -0.19 -0.2 -0.38 -0.4 -0.59 -0.63 -0.52 -0.61 -0.54 -0.63 -0.56 -0.59 -0.54 -0.68 -0.34 -0.37 -0.18 -0.26 -0.55 -0.64 -0.39 -0.44 -0.15 -0.2 -0.54 -0.68 -0.52 -0.68 -0.51 -0.67 -0.46 -0.59 -0.07 -0.07 -0.51 -0.68 -0.51 -0.66 -0.54 -0.71 -0.49 -0.71 -0.04 -0.07 -0.48 -0.64 -0.51 -0.7 -0.09 -0.15 -0.39 -0.59 -0.53 -0.71 -0.1 -0.19 -0.34 -0.51 -0.53 -0.76 -0.15 -0.24 -0.29 -0.46 -0.52 -0.75 -0.2 -0.36 -0.27 -0.39 -0.44 -0.76 -0.29 -0.41 -0.2 -0.35 -0.46 -0.75 -0.29 -0.51 -0.15 -0.3 -0.44 -0.75 -0.37 -0.55 -0.1 -0.2 -0.47 -0.8 -0.34 -0.63 -0.05 -0.15 -0.46 -0.75c-10.14,-18.33 -16.45,-39.76 -16.45,-59.43l0 -451.48c0,-21.58 7.63,-36.52 19.51,-42.27l-0.14 0z"/>
   <path class="fil27" d="M82.79 913.63l-6.28 4.26 0 2.98 -16.03 7.75 -1.05 1.88c-1.56,3.38 -2.43,8.36 -2.43,14.91l0 574.66c0,7.34 1.12,14.89 3.16,22.24 2.21,7.94 5.56,15.98 9.73,23.56 0.64,1.39 1.65,2.85 2.39,4.29l0.07 0 0.85 1.29 -0.08 0.02 0.07 0.07 0.07 -0.03 0.98 1.51 -0.07 0.07 0.34 0.44 0.07 -0.05c1.27,1.85 2.33,3.37 3.68,5.12l-0.05 0.05c1.36,1.68 2.8,3.34 4.19,5l0.03 -0.07 1.33 1.43 0.03 -0.03 0.64 0.76 0.09 -0.04 0.56 0.55 -0.05 0.07 1.2 1.04 -0.03 0.06 2.29 2.02 -0.03 0.03 2.41 1.85 -0.03 0.02 3 1.93c-0.04,0.12 516.46,296.48 563.41,323.41l-0.04 0.07c1.95,1.05 3.75,1.66 5.92,2.19l1.88 -0.97c6.7,-3.26 19.32,-11.59 31.45,-19.51l8.29 -5.45 0 -0.08c6.33,-4.14 10.49,-9.33 13.03,-15.12 2.93,-6.69 4.13,-14.85 4.13,-23.67l0 -561.03c0,-14.35 -4.53,-30.12 -11.81,-43.98 -6.99,-13.23 -16.04,-24.22 -25.44,-29.63l-0.17 0 -554.01 -317.91 0.02 -0.05c-7.43,-4.26 -12.77,-6.72 -16.47,-6.77l-0.11 0c-3.12,0.05 -7.56,2.32 -14.37,7.36 -2.77,2.02 -9.59,6.65 -16.74,11.52l0 -0.02zm-63.27 -24.1l0 -0.17 0.63 -0.49c3.83,-3.97 8.18,-7.28 12.93,-9.87l32.62 -22.22c17.2,-12.74 32.07,-18.39 48.1,-18.45l0.1 0c15.42,-0.05 29.04,5.22 44.98,14.35l0.09 0 554.03 318.03 0 0.03c18.91,10.91 35.63,30.16 47.34,52.36 11.41,21.69 18.5,46.78 18.5,70.1l0 561.02c0,15.84 -2.56,31.55 -9.01,46.23 -6.86,15.61 -17.71,29.34 -33.94,39.86l-0.07 -0.07 -8.28 5.44c-12.67,8.31 -25.88,16.98 -35.7,22.03 -1.75,1.12 -3.61,1.97 -5.48,2.83l0.04 0.07c-3.06,1.32 -5.65,2.02 -8.72,3.1 -3.98,1.03 -7.41,1.39 -11.46,1.73l-3.27 0.05 0 0.1c-3.43,0 -6.96,-0.62 -10.31,-0.94l0 -0.09c-2.15,-0.41 -4.55,-0.87 -6.65,-1.47l-0.17 -0.12 -1.09 -0.34 -0.04 0.08 -1.47 -0.49 -0.12 -0.12 -0.58 -0.12 -1.2 -0.42c-1.82,-0.9 -4.33,-1.73 -6.34,-2.65l0.04 -0.06 -4.79 -2.4 -1.57 -0.85c-128.4,-73.71 -317.92,-171.24 -462.13,-261.07 -42.42,-26.43 -83.13,-45.85 -114.48,-71.75l-0.15 0 -2.38 -2.12 -0.07 0.06 -1.34 -1.27 0.03 -0.09 -0.9 -0.85 -0.12 0 -1.27 -1.12 0.04 -0.07 -0.95 -0.9 -1.35 -1.35 0 0.04c-5.07,-5.02 -10.28,-11.6 -14.44,-17.46l0.08 -0.01 -1.87 -2.53 -0.13 -0.35 -2.26 -3.5 -0.1 0 -3.31 -5.44 -1.56 -2.78c-6.09,-11.04 -11.13,-23.31 -14.62,-35.94 -3.46,-12.5 -5.38,-25.09 -5.38,-37.04l0 -574.63c0,-14.59 2.8,-27.58 7.77,-38.37 3.12,-6.77 7.05,-12.64 11.74,-17.58l0.02 0.04z"/>
   <path class="fil30" d="M677.41 1939.38l-541.48 -357.91c-27.23,-18.11 -48.66,-60.53 -51.6,-98.03l-36.3 -580.29c3.08,-2.34 30.89,-20.98 34.57,-23.73 24.14,-17.82 38.67,-15.79 62.13,-2.31l554.02 318.03c28.4,16.25 51.62,60.38 51.62,98.01l0 557.11c0,24.66 -7.48,47.76 -30.05,62.43 -15.03,9.77 -32.69,21.73 -42.88,26.7l-0.03 0z"/>
   <path class="fil27" d="M138.54 1592.4l539.18 350.79c8.16,-4.38 20.12,-12.2 31.65,-19.74l8.31 -5.46c10.47,-6.77 17.42,-15.52 21.76,-25.43 4.4,-10.01 6.12,-21.32 6.12,-33.06l0 -566.31c0,-18.08 -5.58,-37.76 -14.59,-54.86 -8.97,-16.99 -21.22,-31.44 -34.62,-39.11l-554.03 -318.03c-11.03,-6.33 -19.83,-9.96 -28.43,-9.92 -8.5,0 -17.3,3.7 -28.5,11.94 -1.92,1.41 -8.8,6.07 -15.99,10.98l-16.46 11.3 36.08 592.46c1.46,18.35 7.48,38 16.52,55.16 8.7,16.61 20.22,30.84 32.97,39.32l0 -0.02zm536.25 360.14l-541.52 -352.32c-14.11,-9.36 -26.65,-24.85 -36.1,-42.78 -9.63,-18.27 -16.06,-39.2 -17.61,-58.79l-36.48 -597.65 2.02 -1.56c1.66,-1.28 10.53,-7.33 18.93,-13.03 7.24,-4.94 14.2,-9.63 15.72,-10.77 12.94,-9.55 23.49,-13.77 34.11,-13.81 10.58,-0.03 20.76,4.05 33.21,11.2l554.06 318.03c14.94,8.58 28.51,24.37 38.23,42.88 9.67,18.44 15.71,39.64 15.71,59.22l0 566.34c0,12.89 -1.99,25.46 -6.96,36.86 -5.04,11.49 -13.1,21.67 -25.26,29.53l-8.29 5.41c-12.96,8.48 -26.47,17.37 -35.06,21.58l-2.44 1.14 -2.27 -1.5 0 0.02z"/>
   <path class="fil31" d="M185.36 1037.74c31.65,18.32 57.35,64.81 57.35,103.8 0,38.99 -25.63,55.77 -57.35,37.45 -31.68,-18.35 -57.4,-64.79 -57.4,-103.84 0.02,-38.96 25.7,-55.72 57.4,-37.41z"/>
   <path class="fil18" d="M642.93 1940.49l-562.82 -323.04c-28.39,-16.31 -51.6,-60.41 -51.6,-98.03l0 -573.98c0,-37.62 23.2,-55.06 51.6,-38.78l562.82 323.05c28.41,16.28 51.59,60.4 51.59,98.04l0 573.95c0,37.63 -23.19,55.1 -51.59,38.81l0 -0.01z"/>
   <path class="fil27" d="M83.07 1616.24l563.45 322.39c6.48,3.69 12.56,5.46 18.02,5.46 4.26,0 8.14,-1.08 11.48,-3.15 3.46,-2.13 6.45,-5.27 8.81,-9.33 3.95,-6.78 6.22,-16.18 6.22,-27.71l-1.25 -576.15c0,-18.05 -5.6,-37.72 -14.62,-54.84 -8.92,-17 -21.2,-31.43 -34.58,-39.12l-562.87 -323.06c-6.45,-3.68 -12.54,-5.46 -18.02,-5.46 -4.19,0 -8.12,1.09 -11.45,3.12 -3.46,2.12 -6.41,5.27 -8.81,9.32 -3.95,6.82 -6.22,16.22 -6.22,27.72l0.58 576.85c0,18.05 5.65,37.72 14.63,54.83 8.96,17 21.2,31.43 34.63,39.12l-0.02 0zm558.76 330.53l-563.52 -322.39c-14.98,-8.63 -28.51,-24.39 -38.27,-42.94 -9.68,-18.42 -15.71,-39.62 -15.71,-59.16l-0.58 -576.85c0,-13.18 2.73,-24.17 7.53,-32.42 3.19,-5.44 7.26,-9.73 12.03,-12.65 4.9,-2.97 10.43,-4.51 16.42,-4.51 7.09,0 14.76,2.15 22.76,6.73l562.82 323.05c14.98,8.64 28.54,24.44 38.3,42.93 9.69,18.41 15.71,39.64 15.71,59.22l1.25 576.15c0,13.18 -2.77,24.17 -7.51,32.41 -3.19,5.48 -7.3,9.74 -12.04,12.68 -4.89,2.95 -10.42,4.54 -16.44,4.54 -7.04,0 -14.72,-2.2 -22.69,-6.78l-0.05 0z"/>
  </g>
  <path class="fil1" d="M293.63 1625.38l51.43 64.09c1.8,2.24 2.41,5.24 1.37,6.7 -0.35,0.49 -0.84,0.74 -1.41,0.77l-25.67 2.04c-0.07,0.01 -0.14,0.01 -0.21,0.01l-25.52 2.03c-1.8,0.14 -4.09,-1.91 -5.12,-4.57 -0.34,-0.88 -0.5,-1.71 -0.5,-2.44l0 0 0 -68.18c0,-2.38 1.68,-3.33 3.75,-2.12 0.69,0.4 1.33,0.99 1.88,1.68l0 -0.01z"/>
  <rect class="fil16" transform="matrix(0.334115 0.190737 -0 0.426069 461.801 1722.94)" width="151.63" height="151.63" rx="22.38" ry="22.38"/>
  <path class="fil16" d="M160.2 1551.3l10.65 6.08c1.81,1.03 3.29,3.84 3.29,6.24l0 55.88c0,2.4 -1.48,3.52 -3.29,2.49l-10.65 -6.08c-1.81,-1.03 -3.29,-3.84 -3.29,-6.24l0 -55.88c0,-2.4 1.48,-3.52 3.29,-2.49zm-28.6 -16.33l10.65 6.08c1.81,1.03 3.29,3.84 3.29,6.24l0 55.88c0,2.4 -1.48,3.52 -3.29,2.49l-10.65 -6.08c-1.81,-1.03 -3.29,-3.84 -3.29,-6.24l0 -55.88c0,-2.4 1.48,-3.52 3.29,-2.49z"/>
  <path class="fil32" d="M245.33 1238.56c-2.32,16.09 -9.52,42.96 -11.58,54.78 -6.95,32.92 -2.08,25.81 -38.35,60.67 -15.31,14.71 -13.81,10.96 -44.28,-3.86 -13.56,-6.6 -34.4,-18.01 -49.37,-24.32 -35.4,-14.93 -49.9,27.95 -20.47,44.67 27.92,15.86 77.38,42.33 98.85,53.07 26.42,13.21 31.16,3.65 43.39,-5.62l35.81 -32.24c32.89,61.91 30.68,50 27.44,138.87 -0.48,13.18 -0.66,31.99 3.9,44.15 9.62,25.65 41.87,25.53 44.69,-0.34 1.33,-12.28 0.75,-29.23 1.14,-41.51 0.74,-23.74 5.1,-60.64 -2.84,-84.58 -9.29,-28 -25.34,-46.69 -33.7,-70.41 -6.81,-19.3 3.4,-53.07 11.8,-83.65 8.88,15.11 20.31,35.21 22.53,39.45 5.54,10.56 8.04,13.92 30.34,26.53 10.72,6.06 24.79,13.82 35.89,15.63 19.54,3.19 26.9,-24.89 10.88,-40.33 -8.82,-8.5 -23.33,-13.71 -36.93,-21.62 -15.71,-8.64 -15.19,-9.57 -23.59,-24.08 -15.45,-26.7 -25.98,-75.16 -61.19,-95.38 -8.24,-4.72 -13.54,-5.57 -22.5,-7.42 -65.74,-13.67 -49.15,-23.46 -100.67,30.77 -31.44,30.9 9.6,68.46 31.66,46.19l25.69 -24.83c4.03,-3.99 7.56,-8.49 13.75,-7.65 9.85,1.33 8.82,5.32 7.7,13.06zm69.26 -142.17c21.27,11.89 38.5,42.35 38.5,68.03 0,25.68 -17.23,36.87 -38.5,24.98 -21.27,-11.89 -38.51,-42.34 -38.51,-68.03 0,-25.69 17.24,-36.87 38.51,-24.98z"/>
  <path class="fil33" d="M359.7 1299.11c-2.32,16.09 -9.52,42.96 -11.58,54.78 -6.95,32.92 -2.08,25.81 -38.35,60.67 -15.31,14.71 -13.81,10.96 -44.28,-3.86 -13.56,-6.6 -34.4,-18.01 -49.37,-24.32 -35.4,-14.93 -49.9,27.95 -20.47,44.67 27.92,15.86 77.38,42.33 98.85,53.07 26.42,13.21 31.16,3.65 43.39,-5.62l35.81 -32.24c32.89,61.91 30.68,50 27.44,138.87 -0.48,13.18 -0.66,31.99 3.9,44.15 9.62,25.65 41.87,25.53 44.69,-0.34 1.33,-12.28 0.75,-29.23 1.14,-41.51 0.74,-23.74 5.1,-60.64 -2.84,-84.58 -9.29,-28 -25.34,-46.69 -33.7,-70.41 -6.81,-19.3 3.4,-53.07 11.8,-83.65 8.88,15.11 20.31,35.21 22.53,39.45 5.54,10.56 8.04,13.92 30.34,26.53 10.72,6.06 24.79,13.82 35.89,15.63 19.54,3.19 26.9,-24.89 10.88,-40.33 -8.82,-8.5 -23.33,-13.71 -36.93,-21.62 -15.71,-8.64 -15.19,-9.57 -23.59,-24.08 -15.45,-26.7 -25.98,-75.16 -61.19,-95.38 -8.24,-4.72 -13.54,-5.57 -22.5,-7.42 -65.74,-13.67 -49.15,-23.46 -100.67,30.77 -31.44,30.9 9.6,68.46 31.66,46.19l25.69 -24.83c4.03,-3.99 7.56,-8.49 13.75,-7.65 9.85,1.33 8.82,5.32 7.7,13.06zm69.26 -142.17c21.27,11.89 38.5,42.35 38.5,68.03 0,25.68 -17.23,36.87 -38.5,24.98 -21.27,-11.89 -38.51,-42.34 -38.51,-68.03 0,-25.69 17.24,-36.87 38.51,-24.98z"/>
  <path class="fil16" d="M466.17 1365.02c-2.32,16.09 -9.52,42.96 -11.58,54.78 -6.95,32.92 -2.08,25.81 -38.35,60.67 -15.31,14.71 -13.81,10.96 -44.28,-3.86 -13.56,-6.6 -34.4,-18.01 -49.37,-24.32 -35.4,-14.93 -49.9,27.95 -20.47,44.67 27.92,15.86 77.38,42.33 98.85,53.07 26.42,13.21 31.16,3.65 43.39,-5.62l35.81 -32.24c32.89,61.91 30.68,50 27.44,138.87 -0.48,13.18 -0.66,31.99 3.9,44.15 9.62,25.65 41.87,25.53 44.69,-0.34 1.33,-12.28 0.75,-29.23 1.14,-41.51 0.74,-23.74 5.1,-60.64 -2.84,-84.58 -9.29,-28 -25.34,-46.69 -33.7,-70.41 -6.81,-19.3 3.4,-53.07 11.8,-83.65 8.88,15.11 20.31,35.21 22.53,39.45 5.54,10.56 8.04,13.92 30.34,26.53 10.72,6.06 24.79,13.82 35.89,15.63 19.54,3.19 26.9,-24.89 10.88,-40.33 -8.82,-8.5 -23.33,-13.71 -36.93,-21.62 -15.71,-8.64 -15.19,-9.57 -23.59,-24.08 -15.45,-26.7 -25.98,-75.16 -61.19,-95.38 -8.24,-4.72 -13.54,-5.57 -22.5,-7.42 -65.74,-13.67 -49.15,-23.46 -100.67,30.77 -31.44,30.9 9.6,68.46 31.66,46.19l25.69 -24.83c4.03,-3.99 7.56,-8.49 13.75,-7.65 9.85,1.33 8.82,5.32 7.7,13.06zm69.26 -142.17c21.27,11.89 38.5,42.35 38.5,68.03 0,25.68 -17.23,36.87 -38.5,24.98 -21.27,-11.89 -38.51,-42.34 -38.51,-68.03 0,-25.69 17.24,-36.87 38.51,-24.98z"/>
  <line class="fil13 str3" x1="38.73" y1="1431.06" x2="683.15" y2= "1793.58" />
  <rect class="fil34" transform="matrix(0.319911 0.182628 -0 0.407957 230 1507.27)" width="151.63" height="151.63" rx="75.82" ry="75.82"/>
  <line class="fil13 str4" x1="30.98" y1="1426.58" x2="261.61" y2= "1556.42" />
 </g>
</svg>
