<?xml version="1.0" encoding="UTF-8"?>
<!DOCTYPE svg PUBLIC "-//W3C//DTD SVG 1.1//EN" "http://www.w3.org/Graphics/SVG/1.1/DTD/svg11.dtd">
<!-- Creator: CorelDRAW 2019 (64-Bit) -->
<svg xmlns="http://www.w3.org/2000/svg" xml:space="preserve" width="2.325in" height="2.96639in" version="1.1" style="shape-rendering:geometricPrecision; text-rendering:geometricPrecision; image-rendering:optimizeQuality; fill-rule:evenodd; clip-rule:evenodd"
viewBox="0 0 2335.51 2979.81"
 xmlns:xlink="http://www.w3.org/1999/xlink"
 xmlns:xodm="http://www.corel.com/coreldraw/odm/2003">
 <defs>
  <style type="text/css">
   <![CDATA[
    .fil21 {fill:#7537B0}
    .fil22 {fill:#999999}
    .fil11 {fill:#FEFEFE;fill-rule:nonzero}
    .fil8 {fill:#FAF9F9;fill-rule:nonzero}
    .fil10 {fill:#F6F8F9;fill-rule:nonzero}
    .fil4 {fill:#E7E7E6;fill-rule:nonzero}
    .fil7 {fill:#DCDDDC;fill-rule:nonzero}
    .fil9 {fill:#BDBCBC;fill-rule:nonzero}
    .fil16 {fill:#5FB037;fill-rule:nonzero}
    .fil12 {fill:#7537B0;fill-rule:nonzero}
    .fil14 {fill:#95CC35;fill-rule:nonzero}
    .fil18 {fill:#A76DC9;fill-rule:nonzero}
    .fil17 {fill:#A8D424;fill-rule:nonzero}
    .fil0 {fill:#BABABA;fill-rule:nonzero}
    .fil19 {fill:#D17622;fill-rule:nonzero}
    .fil15 {fill:#D1CDCD;fill-rule:nonzero}
    .fil3 {fill:#D4D3D2;fill-rule:nonzero}
    .fil6 {fill:#E3E1E2;fill-rule:nonzero}
    .fil5 {fill:#EFF1F1;fill-rule:nonzero}
    .fil13 {fill:#F3E6FA;fill-rule:nonzero}
    .fil20 {fill:#F5BC00;fill-rule:nonzero}
    .fil2 {fill:#FAF9F9;fill-rule:nonzero}
    .fil1 {fill:#FEFEFE;fill-rule:nonzero}
   ]]>
  </style>
 </defs>
 <g id="Layer_x0020_1">
  <metadata id="CorelCorpID_0Corel-Layer"/>
  <g id="_2308794342560">
   <path class="fil0" d="M2187.61 1532.75l-103.24 57.21c-8.37,5.58 -19.54,5.58 -30.69,0l-982.2 -566.44c-9.77,-4.18 -16.75,-15.37 -16.75,-27.91l0 -881.75c0,-5.58 1.4,-9.75 4.2,-15.34l1.39 -2.78c2.8,-5.58 6.98,-9.77 11.17,-12.57l104.64 -58.61c23.72,-12.54 44.64,-19.52 64.18,-23.71 23.72,-2.78 43.24,1.4 59.99,9.76 1.38,0 1.38,1.41 1.38,1.41l1.4 1.38 982.2 566.44c1.38,0 2.78,1.4 4.18,2.78 13.95,8.38 26.51,20.92 34.87,39.07 6.98,15.35 11.17,34.87 11.17,54.41l-2.8 620.85c0,43.24 -16.74,90.68 -44.64,132.54 -22.32,43.26 -58.6,80.9 -100.46,103.24zm-117.19 -2.78l87.9 -50.23c32.07,-18.15 61.38,-47.44 82.3,-82.32 20.94,-33.51 34.89,-69.76 34.89,-99.05l2.78 -620.85c0,-11.17 -1.39,-20.94 -5.57,-29.31 -2.8,-5.57 -6.98,-9.78 -11.17,-13.95l-1.4 -1.4 -980.8 -567.82c-1.38,0 -2.78,-1.4 -4.18,-1.4 -6.97,-2.78 -13.95,-4.18 -25.11,-2.78 -12.57,1.4 -26.51,5.57 -41.86,13.95l-90.68 51.63 0 851.04 952.9 552.49z"/>
   <path class="fil1" d="M1202.63 662.17l0 -86.52 856.63 532.97 216.26 -499.46 -983.59 -569.23 -1.4 -1.41c-25.12,-12.54 -58.59,-9.76 -97.67,11.18l-104.64 58.58 -2.78 2.8 0 841.27 0 -182.75c71.15,-40.47 117.19,-33.51 117.19,-107.44z"/>
   <path class="fil0" d="M1326.8 652.39l0 79.55c0,37.67 -15.35,79.53 -40.46,118.59 -25.12,39.06 -57.21,72.55 -94.87,93.47l-103.25 57.19 -5.58 2.8 0 -916.64 1.4 -2.77 1.4 -1.4 104.64 -58.61c18.14,-11.16 37.67,-16.72 54.41,-18.12 15.34,-1.4 29.29,0 40.46,5.58l5.58 2.78 1.4 1.4 983.59 569.23 2.78 1.4 -1.39 2.77 -216.26 351.6 -1.4 2.78 -2.78 -1.38 -729.67 -290.22zm-8.37 78.15l0 -93.47 5.57 4.18 735.25 290.17 212.08 -345.98 -979.4 -566.44 -1.4 -1.4c-11.17,-5.57 -26.51,-8.37 -41.86,-6.98 -15.35,1.41 -33.49,6.98 -51.63,18.15l-103.24 58.58 -1.4 1.42 0 899.88 97.67 -54.41c36.27,-19.54 69.75,-53.03 92.08,-90.7 20.92,-36.26 36.27,-76.73 36.27,-113z"/>
   <path class="fil0" d="M-0 2233.13l0 -712.93c0,-11.17 5.57,-20.92 15.35,-27.91l973.82 -562.24c9.77,-5.6 20.92,-5.6 33.49,0l1044.97 605.5c11.17,5.57 18.14,15.34 18.14,29.29l0 712.92c0,48.83 -15.34,101.87 -39.06,149.29 -25.12,47.45 -59.99,87.89 -97.67,110.22l-726.87 424.11c-19.54,11.18 -39.07,16.75 -57.21,18.15 -19.52,1.4 -40.46,-2.78 -55.81,-13.95l-1044.97 -604.12c-1.4,-1.38 -4.2,-1.38 -5.58,-2.78 -18.14,-11.17 -33.49,-29.29 -41.86,-50.23 -12.55,-22.32 -16.74,-47.43 -16.74,-75.33zm64.18 -693.4l0 694.8c0,18.12 2.78,36.26 8.37,47.43 4.18,9.75 9.77,16.72 16.74,20.92 1.4,0 1.4,1.4 2.8,1.4l1043.58 602.72c1.38,1.4 2.78,1.4 4.18,2.78 5.58,2.78 11.15,4.18 16.74,2.78 8.37,0 18.14,-4.17 29.31,-9.75l726.87 -421.35c27.91,-15.35 54.41,-47.43 73.95,-85.12 19.54,-37.66 32.09,-80.9 32.09,-119.97l0 -694.78 -1012.89 -588.76 -941.73 546.91z"/>
   <path class="fil2" d="M37.67 1520.2l0 712.93c0,48.83 15.34,83.7 41.84,97.65l991.97 573.43c32.09,18.14 53.01,27.89 87.88,32.07l379.49 -311.11c68.38,-39.07 122.79,-142.31 122.79,-231.6l0 -597.14 -573.42 318.11 -1050.55 -594.34z"/>
   <path class="fil0" d="M1654.66 2393.58c0,43.24 -12.55,92.07 -36.27,132.55 -20.94,41.84 -51.63,76.73 -85.12,94.87l-392.02 263.67 -1.4 1.4 0 1.4 -9.77 46.03 -1051.95 -608.29c-12.55,-6.97 -23.72,-18.12 -29.31,-36.26 -6.97,-15.35 -9.77,-36.29 -9.77,-58.61l0 -708.73 1044.98 598.53 1.4 1.38 1.38 -1.38 566.44 -319.49 1.4 592.94zm-1623.97 -161.85l1.4 5.58 0 4.18 -1.4 -9.77zm1626.77 -439.47l-570.64 320.88 -1050.55 -602.73 -5.58 -2.77 0 722.69c0,25.12 4.18,44.64 11.17,61.38l-2.8 -15.34 2.8 11.17 5.57 9.77 -5.57 -6.98c5.57,13.95 15.34,27.91 26.51,34.87 1.4,1.38 4.18,2.8 5.58,4.2l-5.58 -5.58 1.4 0 4.18 5.58 9.75 5.58 1047.78 605.49 4.18 2.8 1.38 -5.58 9.77 -50.23 392.04 -263.68c34.89,-19.54 64.18,-55.81 87.9,-97.65 23.72,-43.26 36.27,-90.7 36.27,-136.75l0 -605.5 -5.57 8.38z"/>
   <path class="fil1" d="M1088.22 2118.73l0 711.54c0,89.27 54.41,131.13 122.77,92.08l721.3 -414.38c65.58,-39.06 122.77,-142.3 122.77,-231.6l0 -712.93 -964.06 555.29 -2.78 0z"/>
   <path class="fil0" d="M1082.64 2831.67l0 -718.52 5.58 2.8 968.25 -559.47 0 719.9c0,44.64 -13.95,93.48 -36.27,136.73 -23.72,43.26 -53.03,79.54 -87.9,97.67l-722.7 414.36c-16.74,9.77 -34.87,13.95 -50.23,13.95 -12.55,0 -25.11,-2.8 -36.26,-9.77 -9.78,-5.58 -18.15,-15.35 -26.52,-27.91 -5.58,-16.75 -13.95,-41.86 -13.95,-69.75zm9.77 -707.37l0 707.37c0,29.29 5.58,51.61 15.35,69.75 5.57,11.15 13.95,19.54 23.72,26.51 8.37,5.57 19.52,8.37 32.07,8.37 13.97,0 29.31,-4.18 46.04,-12.55l722.7 -414.36c33.49,-18.14 62.78,-53.01 85.1,-94.87 20.94,-41.86 36.29,-89.3 36.29,-132.54l0 -705.95 -961.28 548.29z"/>
   <polygon class="fil3" points="1004.52,956.56 2055.07,1563.44 1089.62,2117.31 40.46,1511.83 "/>
   <path class="fil4" d="M1756.52 1456.02l179.97 104.64 -179.97 101.85c8.37,-20.92 18.14,-55.81 18.14,-100.45 2.78,-46.04 -8.38,-83.72 -18.14,-106.04z"/>
   <polygon class="fil1" points="566.44,1277.44 566.44,1216.06 40.46,1518.82 1089.62,2124.3 2053.69,1569.04 1819.29,1433.69 1762.08,1460.21 1930.9,1566.23 1086.82,2050.37 306.94,1605.3 171.6,1516.02 "/>
   <path class="fil0" d="M2045.3 1563.44l-1040.78 -601.3 -961.28 552.47 1043.58 599.93 958.48 -551.1zm-1038 -609.69l1049.17 606.9c1.4,1.4 2.78,2.78 1.4,5.57l-1.4 1.42 -965.46 558.06c-1.38,1.4 -2.78,0 -4.18,0l-1053.35 -605.5c-1.38,-1.38 -2.78,-2.8 -1.38,-5.58l1.38 -1.4 968.25 -559.46c2.8,-1.4 4.18,-1.4 5.58,0z"/>
   <path class="fil1" d="M2306.21 1299.78l2.78 -620.87c0,-73.93 -58.6,-99.05 -131.15,-58.59l-104.64 58.59 -1.4 2.8 0 884.52 103.25 -57.19c69.75,-43.24 131.15,-136.71 131.15,-209.26z"/>
   <path class="fil0" d="M2311.79 677.52l-2.8 620.85c0,37.66 -15.34,79.52 -40.46,118.59 -25.11,37.66 -57.2,72.53 -94.87,93.45l-106.04 60.01 -5.57 2.77 0 -891.49 1.38 -2.8 1.4 -1.38 107.44 -60.01c25.11,-12.54 46.03,-19.52 65.56,-19.52 12.55,0 25.11,2.8 34.89,8.37 9.76,5.58 18.12,13.95 25.11,25.11 11.15,9.78 13.95,27.91 13.95,46.06zm-8.37 622.25l2.78 -620.87c0,-16.74 -2.78,-33.49 -9.77,-44.64 -5.58,-9.77 -12.55,-16.75 -20.92,-20.92 -8.38,-4.18 -19.54,-6.98 -32.09,-6.98 -18.14,0 -40.46,5.58 -61.39,18.14l-107.42 60.01 -1.4 1.38 0 874.77 100.45 -57.21c36.27,-19.52 68.36,-53.01 92.09,-90.68 20.92,-36.26 36.27,-78.12 37.67,-112.99z"/>
   <polygon class="fil1" points="1085.44,997.02 1085.44,113.87 2069.03,683.09 2069.03,1566.23 "/>
   <polygon class="fil5" points="2014.61,1524.37 2014.61,708.2 1124.5,191.98 1128.68,429.16 1128.68,1016.54 1930.9,1485.33 2013.21,1531.35 "/>
   <polygon class="fil6" points="1326.8,309.2 1124.5,191.98 1128.68,430.58 1128.68,1017.94 1930.9,1485.33 2013.21,1531.35 2014.61,1524.37 2014.61,833.77 1326.8,434.76 "/>
   <path class="fil7" d="M1047.76 593.81l0 382.27 834.31 481.34 0 -270.67c0,-57.19 -36.27,-126.96 -80.92,-152.06l-753.39 -440.88z"/>
   <path class="fil0" d="M2020.2 1536.94l-6.98 -4.18 0 -824.56 -884.53 -513.4 0 825.94 -6.97 -4.2 0 -827.32c0,-1.4 1.4,-4.2 4.18,-4.2 1.4,0 1.4,0 1.4,0l891.5 517.61c1.4,0 1.4,1.4 1.4,2.8l0 831.51z"/>
   <path class="fil0" d="M1088.22 119.45l0 874.76 973.83 565.04 0 -876.17 -973.83 -563.64zm-8.37 876.16l0 -884.53c0,-1.4 1.4,-4.18 4.18,-4.18 1.4,0 1.4,0 2.78,0l982.2 569.22c1.4,0 1.4,1.4 1.4,2.78l0 883.15c0,1.38 -1.4,4.17 -4.18,4.17 -1.4,0 -1.4,0 -1.4,0l-982.2 -569.21c-1.38,1.38 -2.78,0 -2.78,-1.4z"/>
   <path class="fil5" d="M605.5 2111.74l-133.94 -78.13 -44.64 32.11 30.71 68.36 47.43 145.08 37.67 47.43c54.41,-33.46 59.99,-40.44 61.38,-86.48l1.4 -128.36z"/>
   <path class="fil0" d="M474.36 2029.43l133.93 78.13c1.4,1.4 2.8,2.78 2.8,5.58l0 126.96c0,25.12 -2.8,39.06 -12.57,51.61 -8.37,12.57 -25.11,23.74 -51.61,39.07 -2.8,1.4 -5.58,1.4 -8.37,-1.38l-37.67 -47.44 -47.44 -145.09c0,0 0,0 0,-1.4l-30.69 -65.56c-1.4,-2.8 0,-5.58 1.4,-6.98l44.64 -32.09c1.4,-2.78 4.18,-2.78 5.58,-1.4zm124.16 86.52l-128.34 -75.36 -37.67 26.52 29.31 61.39 46.04 143.69 34.87 43.26c23.72,-13.95 37.67,-23.74 44.64,-33.49 6.97,-9.77 9.77,-23.72 9.77,-44.64l1.38 -121.37z"/>
   <path class="fil8" d="M562.26 2139.65l-133.94 -73.93 0 142.28c0,114.42 133.94,166.05 133.94,76.73l0 -145.08z"/>
   <path class="fil0" d="M553.87 2283.36c0,19.52 -6.97,32.09 -16.74,36.26 -6.97,2.8 -13.95,4.2 -20.92,2.8 -8.37,-1.4 -16.75,-5.58 -26.52,-9.77 -30.69,-16.74 -57.19,-54.41 -57.19,-104.65l0 -132.54 122.77 68.38 0 139.53 -1.4 0zm-122.77 -223.23c-2.78,-2.8 -6.97,-1.4 -6.97,1.37 -1.4,1.42 -1.4,1.42 -1.4,2.82l0 142.31c0,55.79 30.69,97.65 62.78,117.19 9.77,5.58 19.54,9.75 30.71,11.17 11.15,1.38 18.14,1.38 27.89,-2.8 13.95,-6.98 25.12,-23.72 25.12,-47.46l0 -145.08c0,-2.78 -1.4,-4.18 -2.78,-5.57l-135.34 -73.95z"/>
   <path class="fil9" d="M1081.26 2039.2l-911.06 -525.98 210.67 -122.77c0,-2.78 1.4,-6.97 2.8,-9.75l-223.23 129.73c-1.4,1.42 -2.8,2.8 -1.4,5.6l1.4 1.38 920.81 530.17c1.38,1.4 2.78,0 4.18,0l814.77 -463.19 0 -9.77 -818.95 464.59z"/>
   <path class="fil0" d="M1794.17 899.35l-1018.46 -592.94c-5.58,-2.8 -8.38,-4.18 -11.17,-4.18 -1.4,0 -4.18,1.38 -8.37,4.18l-34.89 20.94c-11.15,6.97 -18.12,11.14 -20.92,15.34 -2.78,4.18 -4.18,11.17 -4.18,25.12l0 1393.75 693.4 104.64 -73.95 41.86 -249.73 -142.29 -306.94 9.75c-72.55,-41.86 -128.34,46.06 -128.34,-68.35l0 -1339.36c0,-29.32 4.18,-46.04 15.34,-61.39 9.77,-13.95 23.72,-23.72 40.46,-34.87l34.87 -20.92c13.97,-8.38 27.92,-12.57 43.26,-12.57 13.95,0 29.31,4.18 44.64,12.57l1017.08 592.93c26.51,13.97 47.44,41.86 64.18,72.56 15.35,30.69 25.12,64.15 25.12,96.25l0 558.07 -64.18 37.66 0 -595.73c0,-20.92 -6.98,-46.04 -16.74,-65.56 -12.57,-20.94 -25.12,-39.06 -40.47,-47.44z"/>
   <path class="fil5" d="M1810.93 872.84l-1018.48 -594.34c-25.12,-13.95 -41.86,-6.97 -57.19,2.8l-46.04 27.91 27.89 36.26 182.78 1120.33c8.37,53.03 39.06,108.82 73.93,139.51l523.2 198.1 380.59 -214.84 0 -576.21c-4.18,-53.03 -26.23,-117.19 -66.69,-139.51z"/>
   <path class="fil0" d="M1809.53 875.63l-1019.86 -594.33c-11.17,-6.98 -20.94,-8.37 -29.31,-6.98 -8.37,1.38 -15.35,5.58 -25.11,9.77l-43.26 26.49 25.11 33.51 1.4 1.38 182.77 1120.33c4.18,26.51 12.55,51.61 26.51,76.73 12.55,25.12 29.31,46.04 46.04,61.39l524.59 146.49 -6.97 4.17 -523.2 -145.09c-16.74,-15.35 -34.87,-39.06 -47.43,-62.78 -12.55,-25.11 -23.72,-51.61 -27.91,-79.52l-182.77 -1120.33 -26.51 -36.29 -2.78 -2.77 4.18 -2.78 46.04 -27.91c8.37,-5.58 16.74,-9.77 27.89,-11.17 9.77,-1.4 20.94,1.4 34.89,8.37l1018.46 592.94c19.54,11.17 39.07,34.87 53.03,59.99 12.55,26.51 20.92,55.81 20.92,83.72l0 574.81 -8.37 4.18 0 -577.61c0,-26.51 -8.37,-54.41 -20.92,-79.52 -12.57,-25.11 -29.31,-46.04 -47.44,-57.21z"/>
   <path class="fil1" d="M1753.72 904.93l-1018.46 -592.94c-40.47,-23.72 -73.95,1.4 -73.95,54.39l0 1343.56 584.58 234.39 223.23 -125.56 357.15 -196.74 0 -576.2c1.4,-53.01 -32.09,-115.79 -72.55,-140.91z"/>
   <path class="fil10" d="M1403.53 1859.21l8.37 -4.17c0,-29.31 0,-62.78 0,-62.78 -2.78,-115.8 -80.92,-246.96 -266.47,-255.33l-19.54 -15.34c0,0 1.4,-235.79 1.4,-237.18 -1.4,-58.6 -19.54,-107.44 -82.32,-146.5 1.38,-11.18 1.38,-23.72 1.38,-34.87 0,-174.4 -104.64,-371.12 -238.56,-450.67 -51.63,-29.27 -101.85,-37.64 -145.11,-25.09l0 1086.82 584.58 234.39 156.26 -89.3z"/>
   <path class="fil0" d="M1752.32 909.12l-1019.86 -592.94c-9.77,-5.6 -18.14,-8.37 -27.91,-8.37 -5.58,0 -12.55,1.4 -16.74,4.18 -5.58,2.78 -9.77,6.98 -12.57,13.95 -5.57,9.77 -8.37,25.11 -8.37,41.86l0 1192.86c0,68.35 13.97,124.16 99.07,178.58l-83.72 -36.27 -23.72 -26.51 0 -1308.67c0,-18.14 4.18,-33.49 9.77,-44.64 4.18,-6.98 9.77,-12.58 15.35,-16.75 5.58,-4.18 13.95,-5.58 20.92,-5.58 9.77,0 19.54,2.78 30.71,8.38l1019.86 592.93c19.54,11.17 39.06,34.89 53.01,60.01 12.55,26.51 20.94,55.79 20.94,83.7l0 573.43 -8.38 4.18 0 -577.61c0,-26.51 -8.37,-54.41 -20.92,-79.53 -11.15,-25.11 -27.91,-44.64 -47.44,-57.19z"/>
   <path class="fil3" d="M1230.53 1612.28l-235.78 -135.33 0 -149.29 241.37 139.53 0 149.28 -5.58 -4.18zm-235.78 -446.45l241.37 139.51 0 149.28 -5.58 -2.78 -235.78 -135.33 0 -150.68zm0 -161.85l241.37 139.53 0 149.28 -5.58 -2.8 -235.78 -135.35 0 -150.66zm0 -161.83l241.37 139.51 0 150.68 -5.58 -2.78 -235.78 -135.34 0 -152.06zm235.78 125.56l-253.92 -147.89 -234.39 -135.31 -12.55 -7.11 0 657.25 11.15 5.57 241.36 139.53 0 1.4 92.09 53.01 161.85 93.48 171.6 100.44 80.92 46.04 29.31 16.75 11.15 -6.98 -29.29 -16.74 0 -146.49 157.66 90.68 12.55 -6.97 -170.21 -97.67 0 -147.88 241.36 139.51 0 65.56 11.15 -6.98 0 -388.69 -12.55 -7.51 -239.96 -138.13 -11.17 -6.97 -241.36 -139.53 -16.74 -8.37zm-246.95 18.14l-6.97 -4.18 -234.39 -135.33 0 -150.68 241.36 139.51 0 150.68zm0 161.83l-6.97 -4.17 -234.39 -135.36 0 -150.65 241.36 139.51 0 150.66zm0 160.45l-6.97 -4.17 -234.39 -135.36 0 -150.66 241.36 139.53 0 150.67zm0 161.85l-6.97 -4.18 -234.39 -135.33 0 -150.68 241.36 139.51 0 150.68zm263.69 2.8l241.36 139.51 0 147.88 -241.36 -139.51 0 -147.88zm0 -160.45l241.36 139.51 0 147.89 -241.36 -139.53 0 -147.88zm0 -160.45l241.36 139.51 0 147.89 -241.36 -139.51 0 -147.9zm0 -163.23l241.36 139.51 0 149.28 -241.36 -139.51 0 -149.28zm252.53 309.73l241.36 139.51 0 146.49 -1.4 -1.4 -239.96 -138.11 0 -146.49zm0 -161.85l241.36 139.53 0 149.28 -1.4 -1.4 -239.96 -138.13 0 -149.28z"/>
   <path class="fil11" d="M924.99 1450.44l0 -468.78c-1.4,-108.82 -153.48,-195.32 -341.81,-195.32 -188.35,0 -339.03,86.5 -340.41,193.9l0 545.54 359.95 207.86c179.97,-5.57 320.88,-61.36 320.88,-164.6l0 -118.6 1.4 0z"/>
   <path class="fil12" d="M273.45 1509.03l337.63 195.34c173,-6.98 283.2,-59.99 283.2,-135.33l0 -588.8c0,-89.27 -142.29,-164.6 -311.11,-164.6 -167.41,0 -309.72,75.33 -311.12,164.6l0 528.79 1.4 0zm375.29 280.42c-5.57,0 -43.24,-18.12 -47.43,-20.92l-371.12 -216.26c-8.37,-5.57 -15.34,-15.34 -15.34,-25.09l0 -545.52c0,-1.42 0,-1.42 0,-2.78 2.78,-124.19 164.61,-220.44 371.1,-220.44 206.49,0 366.93,97.67 371.12,220.44l0 591.55c-1.4,143.69 -168.81,206.49 -308.34,219.03 11.17,8.38 0,0 0,0z"/>
   <path class="fil13" d="M604.1 1764.36c179.98,-5.58 320.89,-90.7 320.89,-193.94l0 -207.87 -72.55 87.88c-61.39,-46.03 -160.45,-75.33 -269.27,-75.33 -108.82,0 -207.89,29.31 -269.27,75.33l-72.55 -103.24 0 209.27 362.73 207.89z"/>
   <path class="fil13" d="M853.84 1217.44c-61.39,-46.04 -160.45,-75.33 -269.27,-75.33 -108.84,0 -207.89,29.29 -269.27,75.33l-72.55 0 0 163.25c0,107.42 153.46,193.92 341.81,193.92 188.34,0 341.81,-86.5 341.81,-193.92l0 -163.25 -72.55 0z"/>
   <path class="fil12" d="M251.13 1121.17l0 258.12c0,103.24 150.68,186.94 333.45,186.94 182.75,0 333.43,-83.7 333.43,-186.94l0 -258.12 -65.56 146.5 -1.4 -1.4c-62.78,-47.43 -160.45,-73.94 -265.08,-73.94 -104.64,0 -200.9,26.51 -265.08,73.94l-1.38 -145.1 -68.36 0zm333.45 461.81c-192.54,0 -348.8,-90.68 -348.8,-200.9l0 -273.46 76.73 146.5c65.58,-48.83 164.63,-75.34 272.07,-75.34 107.42,0 206.47,27.91 272.05,75.34l76.73 -146.5 0 273.46c-1.4,110.22 -157.65,200.9 -348.78,200.9z"/>
   <path class="fil11" d="M584.58 904.93c188.78,0 341.81,86.82 341.81,193.92 0,107.11 -153.04,193.94 -341.81,193.94 -188.79,0 -341.81,-86.83 -341.81,-193.94 0,-107.1 153.02,-193.92 341.81,-193.92z"/>
   <path class="fil13" d="M853.84 980.25c-61.39,-46.01 -160.45,-75.32 -269.27,-75.32 -108.84,0 -207.89,29.31 -269.27,75.32l-72.55 0 0 192.55c0,107.42 153.46,193.94 341.81,193.94 188.34,0 341.81,-86.52 341.81,-193.94l0 -192.55 -72.55 0z"/>
   <path class="fil12" d="M251.13 987.23l0 185.57c0,103.26 150.68,186.96 333.45,186.96 182.75,0 333.43,-83.7 333.43,-186.96l0 -140.91 -65.56 29.31 -1.4 -1.4c-62.78,-47.44 -160.45,-73.95 -265.08,-73.95 -104.64,0 -200.9,26.51 -265.08,73.95l-1.38 1.4 -68.36 -73.96zm333.45 387.88c-192.54,0 -348.8,-90.68 -348.8,-200.91l0 -214.87 76.73 87.92c65.58,-48.84 164.63,-75.35 272.07,-75.35 107.42,0 206.47,27.91 272.05,75.35l76.73 -87.92 0 214.87c-1.4,110.22 -157.65,200.91 -348.78,200.91z"/>
   <path class="fil1" d="M584.58 787.74c188.78,0 341.81,86.82 341.81,193.92 0,107.11 -153.04,193.92 -341.81,193.92 -188.79,0 -341.81,-86.81 -341.81,-193.92 0,-107.1 153.02,-193.92 341.81,-193.92z"/>
   <path class="fil12" d="M584.58 793.31c-184.17,0 -333.45,83.72 -333.45,186.94 0,103.27 150.68,186.97 333.45,186.97 182.75,0 333.43,-83.7 333.43,-186.97 0,-101.82 -149.28,-186.94 -333.43,-186.94zm0 389.24c-192.54,0 -348.8,-90.68 -348.8,-200.89 0,-111.6 156.26,-200.9 348.8,-200.9 192.52,0 348.78,90.68 348.78,200.9 -1.4,111.62 -157.65,200.89 -348.78,200.89z"/>
   <path class="fil12" d="M580.39 896.55l-33.49 6.97c-5.58,-9.75 -11.17,-15.32 -19.54,-20.92 -8.37,-5.57 -13.95,-4.17 -18.14,-2.77 -4.18,2.77 -4.18,4.18 -1.38,11.15l6.97 19.52c5.58,13.95 4.18,23.74 -12.57,33.49 -22.31,13.95 -50.23,11.17 -78.12,-4.18 -15.35,-9.75 -26.52,-20.92 -32.09,-33.47l34.87 -6.98c4.18,11.15 11.17,19.54 22.32,26.51 9.77,5.57 18.14,6.98 23.72,2.8 5.58,-2.8 4.18,-8.37 1.4,-13.95l-6.98 -18.15c-5.57,-13.95 -1.38,-25.11 12.57,-33.47 19.52,-11.17 44.64,-11.17 69.75,4.18 12.57,8.37 22.32,18.14 30.71,29.29z"/>
   <path class="fil12" d="M578.99 998.4l0 -30.69 29.29 18.14 0 15.34c8.37,-1.38 16.75,-4.17 23.72,-8.35 20.94,-12.58 19.54,-29.31 1.4,-40.47 -19.54,-11.15 -47.44,-12.55 -68.36,1.4 -20.94,12.55 -19.54,29.31 -1.4,40.46 5.58,0 9.77,2.8 15.35,4.18zm0 32.11l0 -6.98c-15.35,-2.78 -29.31,-6.98 -41.86,-15.37 -34.89,-20.92 -37.67,-51.59 0,-73.92 37.67,-22.32 89.3,-20.94 124.17,0 34.87,20.92 37.66,51.61 0,73.92 -15.35,9.78 -33.49,13.95 -51.63,15.37l0 23.72 -30.69 -16.74z"/>
   <polygon class="fil12" points="669.68,1054.21 717.1,1082.11 692,1097.47 618.05,1054.21 736.64,984.46 763.14,999.8 "/>
   <polygon class="fil14" points="983.58,986.85 1247.27,1138.91 1247.27,1313.31 983.58,1158.45 "/>
   <path class="fil15" d="M1601.64 2205.23l0 -51.63 129.76 -80.92 0 51.61 -129.76 80.93zm129.76 6.97l-129.76 80.93 0 -51.63 129.76 -80.92 0 51.61zm0 87.9l-129.76 80.92 0 -51.61 129.76 -80.93 0 51.63zm-163.23 101.85l-54.41 33.47 0 -51.61 54.41 -33.49 0 51.63zm-53.01 -106.04l54.41 -33.49 0 51.63 -54.41 33.47 0 -51.61zm0 -87.92l54.41 -33.46 0 51.61 -54.41 33.49 0 -51.64zm86.48 -92.05l-33.47 20.92 -87.9 54.41 0 299.96 87.9 -54.41 33.47 -20.92 163.25 -101.85 0 -299.96 -163.25 101.85z"/>
   <path class="fil16" d="M411.58 711.01l100.45 -54.43c15.34,-9.75 23.71,-27.91 23.71,-53.03l1.4 -290.17c0,-57.21 -47.44,-132.54 -104.64,-164.63l-227.41 -128.36c-44.64,-25.12 -68.36,-16.75 -101.85,4.17l-75.33 39.07 212.06 315.31 171.61 332.06z"/>
   <path class="fil17" d="M-0 408.24l1.38 -290.19c0,-57.19 48.84,-78.12 106.04,-46.03l227.41 128.36c57.21,32.07 106.04,107.42 104.64,164.63l-1.38 290.19c0,57.19 -48.84,78.13 -106.04,46.03l-227.41 -128.34c-57.21,-33.49 -104.64,-107.42 -104.64,-164.65z"/>
   <path class="fil1" d="M316.69 385.93l-115.79 -65.58 0 -46.04 115.79 65.58 0 46.04zm0 78.12l-115.79 -65.56 0 -46.06 115.79 65.59 0 46.03zm0 79.53l-115.79 -65.58 0 -46.03 115.79 65.56 0 46.04zm-145.09 -239.98l-48.83 -27.91 0 -44.63 48.83 27.91 0 44.63zm0 79.53l-48.83 -27.91 0 -46.03 48.83 27.89 0 46.04zm0 78.13l-48.83 -27.91 0 -46.04 48.83 27.89 0 46.06zm29.31 -219.04l-29.31 -16.74 -78.13 -44.64 0 267.87 78.13 44.64 29.31 16.74 146.49 82.33 0 -266.48 -146.49 -83.72z"/>
   <path class="fil12" d="M1949.04 66.42c140.91,82.33 252.53,295.79 252.53,479.96 0,100.45 -33.49,173 -87.9,202.29 -4.18,1.38 -8.37,4.18 -13.94,5.58l-101.85 46.04 -23.72 -58.59c-8.37,-4.18 -13.95,-8.37 -22.32,-12.57 -140.91,-82.3 -252.53,-295.77 -252.53,-479.92 0,-40.46 4.18,-76.73 16.75,-106.05l-22.34 -51.61 99.07 -44.64c37.67,-19.52 93.47,-15.35 156.25,19.52z"/>
   <path class="fil18" d="M1840.22 118.05c140.91,82.33 252.53,295.79 252.53,479.94 0,184.17 -114.4,266.48 -252.53,186.94 -140.91,-82.3 -252.51,-295.76 -252.51,-479.91 -2.8,-186.97 110.2,-269.27 252.51,-186.97z"/>
   <path class="fil1" d="M1827.66 300.82l-113 -65.56 0 108.82c0,114.4 46.04,239.96 113,320.89 66.96,-4.18 113,-75.36 113,-191.14l0 -108.82 -113 -64.19z"/>
   <path class="fil13" d="M1827.66 300.82l-113 -65.56 0 108.82c0,114.4 46.04,239.96 113,320.89l0 -364.15z"/>
   <polygon class="fil18" points="1236.12,970.6 1499.8,1122.68 1499.8,1297.06 1236.12,1142.2 "/>
   <path class="fil16" d="M1079.86 2047.57c1.4,1.4 2.78,0 4.18,0l507.84 -288.79 0 -269.28 -1024.06 0 0 262.3 512.03 295.77z"/>
   <path class="fil17" d="M1593.27 1489.5c0,-79.52 -57.19,-152.06 -149.28,-205.07l-359.95 205.07c-1.4,0 -2.78,1.4 -4.18,0l-359.95 -207.87c-94.87,53.03 -153.46,126.97 -153.46,207.87 0,160.45 230.19,291.6 513.42,291.6 283.22,0 513.41,-131.16 513.41,-291.6z"/>
   <polygon class="fil19" points="1450.98,1460.21 1450.98,1839.69 1593.27,1758.78 1593.27,1489.5 "/>
   <polygon class="fil12" points="1082.64,2047.57 1084.04,2047.57 1449.58,1839.69 1449.58,1520.2 1082.64,1520.2 "/>
   <path class="fil18" d="M1443.99 1283.02l-359.95 205.09 0 291.59c281.82,-1.4 509.23,-131.14 509.23,-291.59 0,-79.52 -57.19,-152.08 -149.28,-205.09z"/>
   <path class="fil20" d="M1593.27 1489.5c0,-79.52 -57.19,-152.06 -149.28,-205.07l-359.95 205.07 366.93 202.29c87.88,-52.99 142.29,-124.14 142.29,-202.29z"/>
   <path class="fil12" d="M1085.44 1354.19c139.46,0 252.53,64.33 252.53,143.69 0,79.37 -113.07,143.71 -252.53,143.71 -139.47,0 -252.53,-64.34 -252.53,-143.71 0,-79.36 113.07,-143.69 252.53,-143.69z"/>
   <path class="fil0" d="M1081.26 2039.2l-911.06 -525.98 44.66 -26.51 0 -8.37 -54.41 32.07c-1.4,1.42 -2.8,2.8 -1.4,5.6l1.4 1.38 920.81 530.17c1.38,1.4 2.78,0 4.18,0l831.51 -472.96 0 -9.77 -835.69 474.36z"/>
   <path class="fil1" d="M1091.01 1548.11c5.58,0 11.17,-2.8 18.14,-6.98 6.98,-4.18 11.17,-6.97 12.57,-9.77 1.4,-2.78 0,-5.57 -4.18,-6.98 -4.2,-1.37 -8.38,-2.77 -13.95,-1.37 -5.58,1.37 -11.17,2.78 -18.14,6.97 -6.98,4.18 -11.17,6.97 -12.55,9.77 -1.4,2.78 0,5.57 4.18,6.97 2.78,1.4 8.37,1.4 13.94,1.4zm-48.83 -11.17c0,-6.97 6.98,-13.94 18.14,-20.92 12.57,-6.98 25.12,-9.77 39.07,-9.77 13.94,0 26.51,2.78 36.27,8.37 11.15,5.58 16.74,12.57 15.34,19.54 0,6.97 -6.97,13.95 -18.14,20.92 -12.55,6.98 -25.11,9.77 -39.06,9.77 -13.95,0 -26.51,-2.78 -36.28,-8.37 -11.17,-5.58 -16.75,-12.55 -15.35,-19.54zm15.35 -86.5c5.58,0 11.17,-2.8 18.14,-6.97 6.97,-4.18 11.15,-6.98 12.55,-9.78 1.4,-2.77 0,-5.57 -4.18,-6.97 -4.18,-1.38 -8.37,-2.78 -13.95,-1.38 -5.58,0 -11.16,2.78 -18.14,6.97 -6.97,4.18 -11.17,6.98 -11.17,9.77 -1.38,2.8 0,5.57 4.2,6.98 2.78,1.38 6.97,1.38 12.55,1.38zm126.96 16.75l29.29 15.34 -238.57 23.72 -29.29 -15.35 238.57 -23.71zm-175.79 -27.91c0,-6.98 6.97,-13.95 18.14,-20.94 8.37,-4.18 16.74,-6.97 25.11,-8.37 8.37,-1.38 18.14,-1.38 26.51,0 8.37,1.4 16.75,4.18 23.72,6.98 11.15,5.58 16.75,12.55 15.35,19.52 0,6.98 -6.98,13.95 -18.14,20.94 -12.57,6.97 -25.12,9.77 -39.07,9.77 -13.96,0 -26.51,-2.8 -36.28,-8.37 -11.15,-5.58 -15.34,-12.57 -15.34,-19.54z"/>
   <path class="fil21" d="M930.14 565.68c28.37,16.57 51.37,62.4 51.37,102.34 0,39.94 -23,58.88 -51.37,42.31 -28.37,-16.57 -51.37,-62.4 -51.37,-102.33 0,-39.94 23,-58.89 51.37,-42.31zm0 -51.41c48.54,28.36 87.89,106.74 87.89,175.08 0,68.34 -39.35,100.75 -87.89,72.39 -48.54,-28.36 -87.89,-106.74 -87.89,-175.08 0,-68.34 39.35,-100.75 87.89,-72.39z"/>
   <path class="fil22" d="M1297.18 780.12c28.37,16.57 51.37,62.39 51.37,102.33 0,39.94 -23,58.89 -51.37,42.31 -28.37,-16.57 -51.37,-62.4 -51.37,-102.33 0,-39.94 23,-58.89 51.37,-42.31zm0 -51.41c48.54,28.36 87.89,106.74 87.89,175.08 0,68.34 -39.35,100.75 -87.89,72.39 -48.54,-28.36 -87.89,-106.74 -87.89,-175.08 0,-68.34 39.35,-100.75 87.89,-72.39zm183.52 158.64c28.37,16.57 51.37,62.39 51.37,102.33 0,39.94 -23,58.88 -51.37,42.31 -28.37,-16.57 -51.37,-62.39 -51.37,-102.33 0,-39.94 23,-58.89 51.37,-42.31zm0 -51.42c48.54,28.36 87.89,106.75 87.89,175.09 0,68.34 -39.35,100.74 -87.89,72.39 -48.54,-28.36 -87.89,-106.75 -87.89,-175.09 0,-68.34 39.35,-100.75 87.89,-72.39zm-367.04 -163.03c28.37,16.57 51.37,62.39 51.37,102.33 0,39.94 -23,58.88 -51.37,42.31 -28.37,-16.57 -51.37,-62.39 -51.37,-102.33 0,-39.94 23,-58.88 51.37,-42.31zm70.4 -89.58l0 0c9.62,5.62 17.49,21.3 17.49,34.84l0 139.06c0,14.53 0.48,33.06 -0.18,47.22 -2.92,62.91 -41.07,91.76 -87.71,64.51 -48.54,-28.36 -87.89,-106.75 -87.89,-175.09 0,-68.34 39.35,-100.75 87.89,-72.39 19.87,11.61 38.19,31.59 52.91,55.85l0 -79.6c0,-13.54 7.87,-20.02 17.49,-14.4z"/>
  </g>
 </g>
</svg>
