<svg width="182" height="240" viewBox="0 0 182 240" xmlns="http://www.w3.org/2000/svg"><title>Group 3</title><g fill="none" fill-rule="evenodd"><path d="M161.828 126.275l6.496-3.66c2.353-1.324 4.508-3.52 6.087-5.988 1.556-2.43 2.527-5.072 2.538-7.332l.16-47.49c.006-.864-.137-1.578-.402-2.136-.216-.454-.523-.795-.9-1.013-.045-.025-.09-.055-.133-.083L103.47 16.9c-.094-.04-.184-.092-.27-.147-.48-.227-1.095-.308-1.818-.226-.906.1-1.948.46-3.08 1.1L91.6 21.4v64.34l70.228 40.533zm8.69.26l-7.602 4.28c-.67.374-1.512.397-2.224-.016L88.367 89.054c-.75-.365-1.266-1.132-1.266-2.023V20.27h.006c0-.384.097-.772.3-1.127l.105-.18c.198-.372.498-.695.893-.916l7.702-4.338c1.662-.938 3.283-1.476 4.783-1.644 1.665-.19 3.19.08 4.482.765.052.025.103.054.154.083l.126.072-.002.005 72.22 41.68c.106.05.21.107.308.176l.052.034c1.082.67 1.946 1.637 2.535 2.878.538 1.135.83 2.5.824 4.063l-.16 47.494c-.015 3.127-1.254 6.616-3.24 9.72-1.958 3.065-4.674 5.813-7.668 7.5z" fill="#B3B4B4"/><path d="M98.008 62.448l.03-6.306 63.017 39.165 15.876-38.594-72.402-41.786-.126-.074c-1.777-.985-4.35-.79-7.197.814L89.5 20.005l-.15.262v54.72l-8.713 7.015 7.604-4.284c5.348-3.01 9.742-9.88 9.768-15.27" fill="#FFF"/><path d="M106.486 67.502l.03-6.306v-.503l.426.267 54.02 21.227 15.58-25.374-72.11-41.62-.124-.07c-.853-.472-1.908-.656-3.1-.523-1.164.13-2.46.57-3.823 1.34l-7.634 4.298-.076.13v66.21l7.187-4.048c2.633-1.483 5.035-3.92 6.78-6.65 1.744-2.725 2.833-5.74 2.846-8.378zm.585-5.803l-.025 5.804c-.014 2.747-1.134 5.865-2.93 8.676-1.797 2.805-4.266 5.31-6.98 6.84L89.532 87.3l-.418.236V20.294l.038-.14.152-.262.106-.105 7.704-4.337c1.427-.807 2.796-1.266 4.034-1.405 1.125-.128 2.146.01 3.018.385v-.038l.422.243.126.074 72.36 41.76.248.146-.15.244-15.878 25.86-.15.24-.237-.147L107.07 61.7z" fill="#B3B4B4"/><path d="M23.718 127.153v48.142c0 1.336.21 2.452.58 3.316.31.723.722 1.243 1.198 1.526.053.03.105.06.154.096l72.5 41.754c.122.056.24.12.346.196.354.187.77.275 1.232.247.596-.04 1.27-.262 2.003-.688l50.5-29.313c1.946-1.134 3.768-3.295 5.12-5.862 1.365-2.59 2.218-5.545 2.218-8.252V130.15l-70.52-40.703-65.33 37.706zm-4.497 48.142V125.86h.006c0-.772.402-1.524 1.12-1.94l67.56-38.993c.675-.398 1.54-.432 2.266-.01l72.63 41.92c.75.363 1.264 1.132 1.264 2.022v49.457c0 3.44-1.054 7.135-2.743 10.342-1.725 3.272-4.153 6.084-6.843 7.652l-50.5 29.313c-1.352.787-2.695 1.203-3.97 1.282-1.448.093-2.79-.245-3.946-.953v-.002l-72.6-41.813c-.13-.06-.254-.133-.37-.214-1.254-.782-2.254-1.986-2.925-3.542-.61-1.413-.95-3.13-.95-5.09z" fill="#B3B4B4"/><path d="M21.766 125.912v49.43c0 3.366 1.135 5.756 2.923 6.797l.007.005h.002l68.886 39.783c2.19 1.266 3.65 1.9 6.05 2.16l26.312-21.595c4.65-2.658 8.464-9.883 8.464-16.055v-41.42l-39.77 22.046-72.876-41.152" fill="#F6F6F6"/><path d="M21.858 126.072v49.16c0 1.614.264 2.99.74 4.095.483 1.124 1.185 1.96 2.043 2.46l.008.005.003.003.01.004h.005l.002.003 73 42.16.662-3.23.026-.124.11-.064 27.343-18.298c2.276-1.3 4.355-3.73 5.866-6.597 1.512-2.87 2.454-6.174 2.454-9.213v-40.934L94.78 167.64l-.138.08-.14-.08-72.644-41.568zm-.452 49.608l.023.277-.133-.724c0 1.69.28 3.144.786 4.314l-.198-1.082.206.82.387.735-.394-.472c.445 1.042 1.068 1.878 1.826 2.435.142.105.29.2.444.287l-.372-.446.05.013.32.433h.004l.014.01.662.38 72.69 41.98.337.195.077-.38.717-3.484 27.23-18.233c2.376-1.357 4.53-3.87 6.09-6.825 1.553-2.947 2.518-6.342 2.518-9.474v-41.905l-.42.244-39.63 22.3-72.925-41.73-.42-.245v50.13l.11.448z" fill="#B3B4B4"/><path d="M94.804 167.362v49.343c0 6.154 3.822 9.04 8.464 6.39l50.087-28.725c4.64-2.652 8.463-9.885 8.463-16.055V128.86l-66.86 38.59-.154-.088" fill="#FFF"/><path d="M95.01 167.742v49.007c0 1.947.39 3.555 1.07 4.743.433.762.986 1.352 1.628 1.747.64.396 1.372.6 2.173.6.974 0 2.047-.303 3.174-.947l50.163-28.767c2.272-1.3 4.353-3.73 5.863-6.6 1.514-2.87 2.457-6.174 2.457-9.212v-48.968l-66.517 38.39-.01.006zm-.564 49.006v-49.83l.42.243.014.01 66.796-38.554.422-.244v49.942c0 3.13-.967 6.524-2.52 9.47-1.56 2.96-3.717 5.474-6.087 6.828l-50.16 28.767c-1.215.694-2.384 1.023-3.45 1.023-.904 0-1.737-.237-2.466-.688-.726-.447-1.344-1.102-1.824-1.944-.726-1.272-1.144-2.973-1.144-5.022z" fill="#B3B4B4"/><path fill="#EBECEB" d="M88.917 86.783l72.9 42.076-67.002 38.496-72.748-41.99 66.85-38.583"/><path fill="#FFFFFE" d="M50.2 113.794l13.724-7.314-3.206-3.26-38.716 22.455L94.78 167.64l66.906-38.536-24.586-14.282-4.28 1.803 20.727 12.114-58.81 34.217-54.44-31.356-10.837-5.504 20.74-12.302"/><path d="M89.106 86.57l72.853 42.046c.133.077.177.25.1.384-.026.043-.062.078-.103.1L94.98 167.75c-.097.055-.212.048-.295-.01L21.6 125.76c-.134-.076-.18-.248-.103-.38.025-.046.06-.08.102-.104L88.826 86.57c.09-.054.195-.05.28 0zm72.15 42.287l-72.29-41.722L22.3 125.517l72.542 41.667 66.413-38.327z" fill="#B3B4B4"/><path d="M179.19 109.304l.16-47.49c.022-5.39-4.343-7.325-9.677-4.32l-7.702 4.338-.152.26v66.765l7.603-4.282c5.35-3.012 9.742-9.883 9.77-15.27" fill="#FFF"/><path d="M178.908 109.302l.162-47.49c.005-1.323-.26-2.425-.746-3.285-.395-.7-.937-1.242-1.597-1.605-.662-.37-1.448-.56-2.322-.565-1.352-.006-2.922.44-4.596 1.38l-7.907 4.45-.077.135v66.207l7.46-4.2c2.632-1.482 5.034-3.92 6.78-6.65 1.743-2.726 2.83-5.74 2.842-8.378zm.72-47.49l-.16 47.492c-.013 2.748-1.134 5.867-2.93 8.676-1.795 2.806-4.265 5.31-6.98 6.84l-7.872 4.434-.417.235V62.242l.035-.14.153-.26.105-.104 7.973-4.49c1.76-.99 3.422-1.456 4.872-1.45.968.005 1.847.22 2.593.634.75.414 1.366 1.027 1.813 1.82.53.94.822 2.135.815 3.56z" fill="#B3B4B4"/><path fill="#FFFFFE" d="M89.436 87.082V20.318l72.382 41.776v66.765L89.436 87.08"/><path d="M157.805 126.927l-4.878-2.807 4.878 2.807zm0 0l-.002-62.85-65.55-37.962.283 62.584 59.044 34.646 6.225 3.58z" fill="#EBECEB"/><path d="M158.188 126.764l-.56-.323V64.077L92.518 26.36v62.52l-.56-.324v-62.68c0-.16.125-.283.282-.283.057 0 .11.018.157.048l65.652 38.03c.086.053.137.146.137.243v62.85" fill="#B3B4B4"/><path d="M89.007 86.996V20.232c0-.157.125-.282.28-.282.057 0 .11.018.157.05l72.244 41.852c.09.052.138.145.138.242v66.765c0 .154-.125.28-.28.28-.057 0-.112-.017-.155-.05L89.148 87.24c-.09-.053-.14-.15-.14-.244zm.56-66.28v66.12l71.7 41.537V62.257l-71.7-41.54z" fill="#B3B4B4"/><path d="M61.24 166.875l-9.306-5.406-3.06 2.167 2.137 4.648 3.274 10.043 2.64 3.28c3.776-2.253 4.23-2.757 4.316-6v-8.733" fill="#EBECEB"/><path d="M60.818 167.118l-8.863-5.15-2.554 1.81 1.975 4.293 3.245 10.004 2.403 2.983c1.643-.985 2.584-1.618 3.104-2.328.53-.723.65-1.596.69-3.122v-8.49zm-8.673-6.012l9.28 5.39c.14.07.237.213.237.38v8.732h-.003v.01c-.046 1.713-.194 2.708-.855 3.61-.637.87-1.72 1.58-3.647 2.73-.18.12-.423.083-.56-.09l-2.64-3.276-.017-.02-3.27-10.044c-.015-.023-.03-.047-.04-.07l-2.13-4.63c-.096-.182-.044-.412.13-.535l3.058-2.167c.132-.09.307-.105.457-.02z" fill="#B3B4B4"/><path d="M58.18 168.774l-9.306-5.137v9.864c0 7.864 9.307 11.506 9.307 5.338v-10.064" fill="#F6F6F6"/><path d="M57.757 169.022l-8.463-4.67v9.15c0 3.514 1.943 6.14 4.007 7.333.6.346 1.21.57 1.78.654.542.08 1.044.03 1.458-.156.73-.334 1.22-1.138 1.22-2.497v-9.815zm-8.682-5.754l9.284 5.124c.142.067.24.214.24.382v10.063c0 1.74-.687 2.796-1.716 3.264-.563.257-1.227.325-1.924.222-.672-.1-1.386-.358-2.08-.762-2.28-1.317-4.428-4.206-4.428-8.06v-9.865h.003c0-.07.016-.138.052-.203.11-.2.365-.275.568-.164zM126.593 112.93l27.178 15.686c.135.077.18.25.103.384-.027.043-.063.078-.104.1l-58.906 34c-.097.057-.212.048-.295-.01l-65.11-36.993c-.132-.077-.177-.247-.1-.38.024-.044.06-.08.1-.104l34.13-19.626v.64l-33.43 19.228 64.566 36.68 58.34-33.678-26.473-15.28v-.648" fill="#B3B4B4"/><path d="M130.99 158.226c2.144-1.233 4.186-1.82 6.028-1.82 1.457 0 2.792.366 3.955 1.063 1.158.694 2.142 1.718 2.904 3.038 1.13 1.96 1.775 4.574 1.775 7.736 0 4.983-1.598 10.418-4.182 15.172-2.585 4.757-6.165 8.842-10.124 11.127-2.152 1.24-4.2 1.83-6.05 1.83-1.455 0-2.79-.365-3.953-1.062-1.158-.694-2.142-1.718-2.904-3.038-1.132-1.958-1.776-4.574-1.776-7.736 0-4.984 1.598-10.417 4.182-15.17 2.584-4.758 6.164-8.844 10.122-11.13l.022-.01zm6.028-1.06c-1.716 0-3.63.55-5.652 1.713l-.02.01c-3.835 2.216-7.315 6.195-9.838 10.837-2.525 4.646-4.086 9.95-4.086 14.81 0 3.028.605 5.514 1.67 7.36.698 1.204 1.59 2.137 2.638 2.764 1.044.628 2.247.955 3.567.955 1.72 0 3.643-.556 5.673-1.725 3.835-2.213 7.313-6.192 9.838-10.836 2.524-4.646 4.086-9.95 4.086-14.81 0-3.03-.605-5.516-1.67-7.36-.697-1.206-1.59-2.138-2.64-2.766-1.042-.626-2.245-.953-3.566-.953z" fill="#C8C8C8"/><path d="M132.932 179.765c-.01-2.12.45-2.944 1.547-4.488 1.962-2.747 3.082-4.806 3.073-7.194-.024-5.776-5.043-3.41-6.578-2.532-2.79 1.596-6.136 5.28-6.115 10.41l3.61-2.064v-.03c.122-1.458.445-3.652 2.75-4.97 1.074-.613 2.484-.8 2.494 1.5.005 1.208-.58 2.458-1.576 3.825-2.346 3.264-2.597 4.647-2.585 7.478l3.38-1.933zm.267 2.713l-3.738 2.136.018 4.156 3.736-2.136-.017-4.156z" fill="#C8C8C8"/><path d="M111.488 152.843l-2.076 1.193c-.174-.325-.384-.64-.628-.948-.556.44-1.166.853-1.827 1.235-1.434.828-3.11 1.514-4.958 2.018.753.207 1.478.442 2.17.706l-2.786 1.6c-2.046-.555-4.34-.867-6.77-.867-2.46 0-4.784.317-6.85.89l-2.77-1.6c.71-.274 1.458-.518 2.235-.73-1.85-.503-3.525-1.19-4.96-2.017-.66-.382-1.27-.794-1.827-1.235-.252.32-.468.646-.647.98l-2.074-1.196c.275-.5.61-.984.995-1.448-1.223-1.468-1.91-3.136-1.91-4.918 0-1.783.687-3.452 1.912-4.92-1.226-1.466-1.914-3.136-1.914-4.92 0-1.783.688-3.453 1.914-4.92-1.226-1.468-1.914-3.136-1.914-4.92 0-3.107 2.088-5.87 5.463-7.818 3.18-1.836 7.547-2.973 12.343-2.973 4.798 0 9.163 1.137 12.344 2.973 3.376 1.95 5.463 4.71 5.463 7.818 0 1.784-.688 3.452-1.913 4.92 1.225 1.467 1.913 3.137 1.913 4.92 0 1.784-.688 3.454-1.913 4.92 1.226 1.468 1.913 3.137 1.913 4.92 0 1.782-.687 3.45-1.91 4.918.38.454.706.928.978 1.42zm-2.707-19.432c-.553.44-1.164.85-1.823 1.233-1.44.83-3.12 1.518-4.977 2.022 1.856.505 3.538 1.192 4.977 2.025.66.38 1.27.793 1.826 1.23.8-1.007 1.244-2.11 1.244-3.254 0-1.144-.444-2.246-1.246-3.255zm-21.532 3.255c-1.856-.504-3.538-1.19-4.98-2.022-.657-.382-1.267-.794-1.823-1.232-.8 1.01-1.245 2.112-1.245 3.256 0 1.145.444 2.247 1.243 3.255.558-.437 1.167-.85 1.826-1.23 1.44-.833 3.122-1.52 4.978-2.025zm18.513-15.59c-2.83-1.636-6.77-2.648-11.147-2.648-4.377 0-8.317 1.012-11.147 2.647-2.636 1.522-4.266 3.56-4.266 5.752 0 1.145.445 2.247 1.245 3.257.556-.44 1.166-.852 1.824-1.233 3.18-1.838 7.547-2.974 12.343-2.974 4.797 0 9.163 1.136 12.344 2.974.66.38 1.27.793 1.824 1.233.803-1.01 1.247-2.112 1.247-3.257 0-2.19-1.63-4.23-4.266-5.752zm-23.564 10.67c.392.292.816.57 1.27.832 2.83 1.635 6.77 2.647 11.147 2.647 4.377 0 8.317-1.012 11.148-2.647.455-.26.878-.54 1.27-.83-.392-.293-.815-.57-1.27-.832-2.83-1.635-6.77-2.646-11.147-2.646-4.377 0-8.315 1.01-11.147 2.645-.454.263-.878.54-1.27.83zm26.587 11.505c-.556.44-1.167.85-1.826 1.234-1.437.83-3.116 1.516-4.967 2.02 1.85.505 3.53 1.19 4.967 2.02.66.382 1.27.795 1.827 1.235.8-1.01 1.243-2.11 1.243-3.254 0-1.144-.444-2.247-1.244-3.256zm-21.545 3.255c-1.852-.505-3.532-1.19-4.97-2.02-.658-.384-1.267-.794-1.823-1.235-.8 1.01-1.245 2.112-1.245 3.256 0 1.143.444 2.245 1.243 3.253.556-.44 1.167-.854 1.826-1.235 1.436-.83 3.116-1.516 4.968-2.02zm-5.043-4.92c.39.293.816.57 1.27.834 2.83 1.633 6.77 2.645 11.148 2.645 4.377 0 8.317-1.012 11.148-2.646.456-.264.88-.542 1.27-.834-.39-.292-.814-.57-1.27-.83-2.83-1.637-6.77-2.647-11.147-2.647-4.377 0-8.317 1.01-11.147 2.645-.455.26-.88.54-1.27.83zm-.002 9.84c.392.29.817.57 1.273.832 2.83 1.635 6.77 2.647 11.147 2.647 4.377 0 8.317-1.012 11.148-2.647.456-.262.882-.542 1.274-.833-.392-.292-.818-.57-1.273-.834-2.83-1.635-6.77-2.646-11.147-2.646-4.377 0-8.317 1.01-11.147 2.646-.456.263-.88.542-1.273.834z" fill="#B3B4B4"/><path d="M56.947 88.26v19.29c-.005.13-.005.26 0 .39v.123l.01.005c.12 1.755 1.235 3.417 3.383 4.673l25.163 14.71c5.01 2.928 13.816 2.576 19.565-.786l22.476-13.138c4.428-2.588 4.733-4.993 4.733-9.014V88.32L94.56 90.497 56.948 88.26" fill="#B83302"/><path d="M103.723 68.064l25.164 14.71c5.01 2.927 4.406 8.075-1.344 11.435l-22.475 13.137c-5.75 3.36-14.554 3.715-19.565.786L60.34 93.423c-5.01-2.928-4.406-8.074 1.343-11.435L84.16 68.85c5.75-3.362 14.553-3.715 19.563-.786" fill="#E85F21"/><path d="M90.744 91.363c2.593-1.51 3.923-1.53 6.588-1.28 4.753.463 8.063.378 10.98-1.32 7.055-4.112.61-8.58-1.55-9.838-3.922-2.288-10.798-3.776-17.062-.127l5.076 2.957.035-.02c1.874-.88 4.79-2.035 8.03-.146 1.51.88 2.736 2.474-.072 4.11-1.477.86-3.42 1.027-5.797.776-5.65-.566-7.522.105-10.977 2.118l4.75 2.77zm-3.13 2.245l-5.258-3.062-5.075 2.957 5.256 3.062 5.077-2.957z" fill="#FFFFFE"/><path d="M131.345 44.725v-2.71l-6.873-1.423-4.51 1.442c-.963.308-2.61.557-2.68 1.19-.008.077-.004 2.635 0 2.71.026.54.36 1.054 1.01 1.447l1.408.846c1.5.905 4.153.825 5.89-.177l5.755-3.325" fill="#EBECEB"/><path d="M131.075 44.57v-2.335l-6.587-1.364-4.443 1.423-.015.004c-.235.073-.487.14-.745.208l-.01.003c-.805.21-1.693.444-1.726.746-.002.026-.003.468-.003.984 0 .757.002 1.65.004 1.684.012.222.088.443.233.652.145.208.363.404.647.577l1.406.846h.003c.704.426 1.69.618 2.707.59 1.024-.03 2.078-.29 2.907-.77l.017-.008 5.605-3.237zm.54-2.554v2.71c0 .093-.05.183-.136.234l-5.74 3.313-.017.01c-.904.522-2.05.806-3.16.84-1.117.032-2.21-.186-3.003-.664v-.004l-1.405-.844c-.353-.21-.623-.458-.814-.73-.203-.293-.313-.61-.328-.933 0-.058-.007-.966-.007-1.71 0-.474.002-.892.006-1.012l.004-.027v-.004c.073-.668 1.148-.955 2.124-1.21l.01-.002c.26-.07.517-.138.717-.2l.014-.006 4.51-1.443c.043-.012.09-.02.137-.007l6.85 1.418c.133.02.238.133.238.27z" fill="#B3B4B4"/><path d="M131.345 42.016l-6.873-4.134-5.755 3.323c-1.735 1.002-1.926 2.56-.425 3.467l1.408.845c1.5.904 4.153.824 5.89-.177l5.755-3.324" fill="#FFF"/><path d="M130.814 42.013l-6.345-3.818-5.618 3.243c-.508.293-.87.634-1.083.986l-.002.002c-.135.23-.21.46-.22.684v.002c-.006.22.05.438.168.644l.01.016c.143.243.378.47.708.67l.016.01 1.386.833.002.002.002-.002c.705.426 1.692.62 2.708.59 1.025-.032 2.08-.29 2.907-.77l.017-.01 5.342-3.082zm-6.203-4.363l6.873 4.135c.038.022.072.055.094.096.075.13.028.296-.098.37l-5.742 3.31-.015.01c-.906.524-2.05.808-3.16.84-1.117.033-2.21-.183-3.005-.663l.002-.002-1.392-.833-.015-.01c-.408-.244-.706-.54-.894-.86l-.013-.017c-.17-.294-.25-.61-.24-.934.014-.318.114-.637.297-.945v.002c.26-.43.686-.835 1.276-1.176h.002l5.744-3.315c.083-.052.194-.057.285-.005zm-6.16 6.8c.113.08.147.238.075.36l-.076-.36z" fill="#B3B4B4"/></g></svg>