<?xml version="1.0" encoding="utf-8"?>
<!-- Generator: Adobe Illustrator 22.1.0, SVG Export Plug-In . SVG Version: 6.00 Build 0)  -->
<svg version="1.1" id="Layer_1" xmlns="http://www.w3.org/2000/svg" xmlns:xlink="http://www.w3.org/1999/xlink" x="0px" y="0px"
	 viewBox="0 0 182 240" style="enable-background:new 0 0 182 240;" xml:space="preserve">
<style type="text/css">
	.st0{fill:#B3B4B4;}
	.st1{fill:#FFFFFF;}
	.st2{fill:#F6F6F6;}
	.st3{fill:#CBCCCB;}
	.st4{fill:#DFDFDE;}
	.st5{fill:#FFFFFE;}
	.st6{fill:#EBECEB;}
	.st7{fill:#DBDBDB;}
	.st8{fill:#D5D6D5;}
	.st9{fill:#F2F2F2;}
	.st10{fill:#E94C6D;}
	.st11{fill:#81BF08;}
	.st12{fill:#DFEABE;}
	.st13{fill:#2EBCE3;}
	.st14{fill:#DBEEF7;}
	.st15{fill:#C71E4E;}
	.st16{fill:#1C7CA0;}
	.st17{fill:#39B5D3;}
	.st18{fill:#5BAA00;}
	.st19{fill:#93CE11;}
	.st20{fill:#C8C8C8;}
</style>
<path class="st0" d="M160,128.8l6.1-3.5c2.2-1.3,4.3-3.3,5.7-5.7c1.5-2.3,2.4-4.8,2.4-6.9l0.2-43.1c0-0.8-0.1-1.5-0.4-2
	c-0.2-0.4-0.5-0.7-0.8-1l-0.1-0.1L105,27.1c-0.1,0-0.2-0.1-0.3-0.1c-0.5-0.2-1-0.3-1.7-0.2c-0.9,0.1-1.8,0.4-2.9,1l-6.3,3.6v59.1
	L160,128.8z M168.2,129l-7.2,4l0,0c-0.6,0.4-1.4,0.4-2.1,0L90.7,93.6c-0.7-0.3-1.2-1.1-1.2-1.9V30.4l0,0c0-0.4,0.1-0.7,0.3-1.1
	l0.1-0.2c0.2-0.4,0.5-0.7,0.8-0.9l7.3-4.1c1.6-0.9,3.1-1.4,4.5-1.6c1.6-0.2,3,0.1,4.2,0.7c0.1,0,0.1,0.1,0.1,0.1l0.1,0.1l0,0
	L175,62.8c0.1,0,0.2,0.1,0.3,0.2l0,0c1,0.6,1.8,1.5,2.4,2.7c0.5,1.1,0.8,2.4,0.8,3.8l-0.2,43.1c0,3-1.2,6.3-3.1,9.2
	C173.6,124.8,171.1,127.4,168.2,129L168.2,129z"/>
<path class="st1" d="M99.8,68.5v-6l59.5,37l15-34.7L106,25.3l-0.1-0.1c-1.7-0.9-4.1-0.7-6.8,0.8l-7.3,4.1l-0.1,0.2V57l0,31.7l0-12.7
	C96.6,73.2,99.8,73.6,99.8,68.5"/>
<path class="st0" d="M107.8,73.3v-6v-0.5l0.4,0.3l51,20.1l14.7-24l-68-39.3l-0.1-0.1c-0.8-0.4-1.8-0.6-2.9-0.5s-2.3,0.5-3.6,1.3
	l-7.2,4.1L92,28.8v62.5l6.8-3.8c2.5-1.4,4.8-3.7,6.4-6.3C106.8,78.6,107.8,75.8,107.8,73.3L107.8,73.3z M108.4,67.8v5.5
	c0,2.6-1.1,5.5-2.8,8.2c-1.7,2.7-4,5-6.6,6.5l-7.2,4l-0.4,0.2V28.7v-0.1l0.1-0.2l0.1-0.1l7.3-4.1c1.3-0.8,2.6-1.2,3.8-1.3
	c1.1-0.1,2,0,2.8,0.4l0,0l0.4,0.2l0.1,0.1l68.3,39.5l0.2,0.1l-0.1,0.2l-15,24.4l-0.1,0.2l-0.2-0.1L108.4,67.8L108.4,67.8z"/>
<path class="st0" d="M20.8,129.4v48.2c0,1.3,0.2,2.5,0.6,3.3c0.3,0.7,0.7,1.2,1.2,1.5c0.1,0,0.1,0.1,0.2,0.1l72.5,41.8
	c0.1,0.1,0.2,0.1,0.3,0.2c0.4,0.2,0.8,0.3,1.2,0.2c0.6,0,1.3-0.3,2-0.7l50.5-29.3c1.9-1.1,3.8-3.3,5.1-5.9c1.4-2.6,2.2-5.6,2.2-8.3
	v-48.2L86.1,91.5L20.8,129.4L20.8,129.4z M16.3,177.6v-49.5l0,0c0-0.8,0.4-1.5,1.1-1.9l67.6-39c0.7-0.4,1.5-0.4,2.3,0l72.6,42
	c0.8,0.4,1.3,1.1,1.3,2v49.5c0,3.4-1.1,7.1-2.7,10.4c-1.7,3.3-4.2,6.1-6.8,7.7l-50.5,29.4c-1.4,0.8-2.7,1.2-4,1.3
	c-1.4,0.1-2.8-0.2-3.9-1l0,0l-72.6-41.9c-0.1-0.1-0.3-0.1-0.4-0.2c-1.3-0.8-2.3-2-2.9-3.5C16.6,181.3,16.3,179.5,16.3,177.6
	L16.3,177.6z"/>
<path class="st2" d="M18.9,128.1v49.5c0,3.4,1.1,5.8,2.9,6.8l0,0l68.9,39.8c2.2,1.3,3.7,1.9,6.1,2.2l26.3-21.6
	c4.7-2.7,8.5-9.9,8.5-16.1v-41.5l-39.8,22.1L18.9,128.1"/>
<path class="st0" d="M131.4,147l-39.6,22.3l-72.9-41.8l-0.4-0.2v50.2l0,0c0,1.7,0.3,3.1,0.8,4.3l-0.2-1.1l0.2,0.8l0.4,0.7l-0.4-0.5
	c0.4,1,1.1,1.9,1.8,2.4c0.1,0.1,0.3,0.2,0.4,0.3l-0.4-0.4h0.1l0.3,0.4l0,0l0,0l0.7,0.4l72.7,42l0.3,0.2l0.1-0.4l0.7-3.5l27.2-18.3
	c2.4-1.4,4.5-3.9,6.1-6.8c1.6-3,2.5-6.3,2.5-9.5v-42L131.4,147z M18.4,177.5l0.1,0.4l0,0v0.3L18.4,177.5z M131.2,188.7
	c0,3-0.9,6.4-2.5,9.2c-1.5,2.9-3.6,5.3-5.9,6.6l-27.3,18.3l-0.1,0.1v0.1l-0.7,3.2l-73-42.2l0,0l0,0l0,0l0,0l0,0
	c-0.9-0.5-1.6-1.3-2-2.5c-0.5-1.1-0.7-2.5-0.7-4.1v-49.2l72.6,41.6l0.1,0.1l0.1-0.1l39.3-22.2L131.2,188.7L131.2,188.7z"/>
<path class="st1" d="M91.9,169.6V219c0,6.2,3.8,9.1,8.5,6.4l50.1-28.8c4.6-2.7,8.5-9.9,8.5-16.1V131l-66.9,38.6H91.9"/>
<path class="st0" d="M92.1,170v49.1c0,2,0.4,3.6,1.1,4.8c0.4,0.8,1,1.4,1.6,1.8s1.4,0.6,2.2,0.6c1,0,2-0.3,3.2-0.9l50.2-28.8
	c2.3-1.3,4.4-3.7,5.9-6.6c1.5-2.9,2.5-6.2,2.5-9.2v-49L92.1,170L92.1,170L92.1,170z M91.5,219.1v-49.9l0.4,0.2l0,0l67.2-38.8v50
	c0,3.1-1,6.5-2.5,9.5c-1.6,3-3.7,5.5-6.1,6.8l-50.2,28.8c-1.2,0.7-2.4,1-3.5,1c-0.9,0-1.7-0.2-2.5-0.7c-0.7-0.4-1.3-1.1-1.8-1.9
	C92,222.8,91.5,221.1,91.5,219.1L91.5,219.1z"/>
<path class="st3" d="M86,89l72.9,42.1l-67,38.5l-72.8-42L86,89"/>
<path class="st4" d="M138.3,123.6l12.5,7.3l-12.5,7.1c0.6-1.5,1.3-3.9,1.3-7C139.7,127.8,138.9,125.2,138.3,123.6"/>
<path class="st5" d="M55.6,111.2v-4.3l-36.5,21l72.8,42l66.9-38.6l-16.3-9.4l-4,1.8l11.7,7.4l-58.6,33.6l-54.1-30.9l-9.4-6.2
	L55.6,111.2"/>
<path class="st0" d="M86.2,88.8l72.8,42.1c0.1,0.1,0.2,0.2,0.1,0.4l-0.1,0.1l0,0l-67,38.7c-0.1,0.1-0.2,0-0.3,0l-73.1-42
	c-0.1-0.1-0.2-0.2-0.1-0.4l0.1-0.1l67.2-38.8C86,88.7,86.1,88.7,86.2,88.8L86.2,88.8z M158.3,131.1L86,89.3l-66.7,38.4l72.5,41.7
	L158.3,131.1L158.3,131.1z"/>
<path class="st1" d="M176.4,112.8l0.2-43.1c0-5.1-4.1-6.9-9.1-4.1l-7.3,4.1l-0.1,0.2v61.4l7.2-4
	C172.2,124.3,176.4,117.8,176.4,112.8"/>
<path class="st0" d="M176.2,112.8l0.2-43.1c0-1.2-0.2-2.3-0.7-3.1c-0.4-0.7-0.9-1.2-1.5-1.5s-1.4-0.5-2.2-0.5
	c-1.3,0-2.8,0.4-4.3,1.3l-7.5,4.2l-0.1,0.1v60.7l7-4c2.5-1.4,4.7-3.7,6.4-6.3C175.1,118.1,176.1,115.2,176.2,112.8L176.2,112.8z
	 M176.8,69.6l-0.2,43.1c0,2.6-1.1,5.5-2.8,8.2c-1.7,2.6-4,5-6.6,6.5l-7.4,4.2l-0.4,0.2V70v-0.1l0.1-0.2l0.1-0.1l7.5-4.2
	c1.7-0.9,3.2-1.4,4.6-1.4c0.9,0,1.7,0.2,2.4,0.6c0.7,0.4,1.3,1,1.7,1.7C176.6,67.1,176.8,68.3,176.8,69.6L176.8,69.6z"/>
<path class="st5" d="M91.7,91.8V30.4L160,69.9v61.3L91.7,91.8"/>
<path class="st6" d="M156.2,128.4V71.7L94.4,35.9l0.3,16.5v40.8l55.7,32.5l5.7,3.2L156.2,128.4z"/>
<polygon class="st7" points="108.4,44 94.4,35.9 94.7,52.4 94.7,93.2 150.4,125.7 156.1,128.9 156.2,128.4 156.2,80.4 108.4,52.7 
	"/>
<path class="st8" d="M89,63.8v26.5l57.9,33.4v-18.8c0-4-2.5-8.8-5.6-10.6L89,63.8"/>
<path class="st0" d="M156.6,129.2l-0.5-0.3V71.7L94.7,36.1v57.3l-0.5-0.3V35.7c0-0.1,0.1-0.3,0.3-0.3c0.1,0,0.1,0,0.1,0l61.9,35.9
	c0.1,0,0.1,0.1,0.1,0.2V129.2"/>
<path class="st0" d="M91.3,91.7V30.3c0-0.1,0.1-0.3,0.3-0.3c0.1,0,0.1,0,0.2,0L160,69.5c0.1,0,0.1,0.1,0.1,0.2V131
	c0,0.1-0.1,0.3-0.3,0.3c-0.1,0-0.1,0-0.1,0L91.5,91.8C91.4,91.9,91.3,91.8,91.3,91.7L91.3,91.7z M91.9,30.8v60.7l67.6,39.2V70
	L91.9,30.8z"/>
<path class="st6" d="M58.3,169.2l-9.3-5.4l-3.1,2.2l2.1,4.7l3.3,10.1l2.6,3.3c3.8-2.3,4.2-2.8,4.3-6L58.3,169.2"/>
<path class="st0" d="M57.9,169.4l-8.9-5.2l-2.6,1.8l2,4.3l3.2,10l2.4,3c1.6-1,2.6-1.6,3.1-2.3s0.7-1.6,0.7-3.1L57.9,169.4
	L57.9,169.4z M49.2,163.4l9.3,5.4c0.1,0.1,0.2,0.2,0.2,0.4v8.8c0,1.7-0.2,2.7-0.9,3.6c-0.6,0.9-1.7,1.6-3.6,2.7
	c-0.2,0.1-0.4,0.1-0.6-0.1l-2.6-3.3l0,0l-3.3-10.1l0,0c0,0,0,0,0-0.1l-2.1-4.6c-0.1-0.2,0-0.4,0.1-0.5l3.1-2.2
	C48.9,163.3,49.1,163.3,49.2,163.4L49.2,163.4z"/>
<path class="st2" d="M55.3,171.1L46,166v9.9c0,7.9,9.3,11.5,9.3,5.3V171.1"/>
<path class="st0" d="M46.2,165.6c-0.2-0.2-0.5-0.1-0.5,0.1c-0.1,0.1-0.1,0.1-0.1,0.2v9.9c0,3.9,2.1,6.8,4.4,8.1
	c0.7,0.4,1.4,0.7,2.1,0.8s1.3,0.1,1.9-0.2c1-0.5,1.7-1.6,1.7-3.3v-10.1c0-0.2-0.1-0.3-0.2-0.4L46.2,165.6z M54.8,181.1
	c0,1.4-0.5,2.2-1.2,2.5c-0.5,0.2-1,0.3-1.5,0.2c-0.6-0.1-1.2-0.4-1.8-0.7c-2.1-1.2-4-3.8-4-7.3v-9.2l8.5,4.7V181.1z"/>
<path class="st0" d="M91.4,164.1l-63.3-36.5l14.6-8.5c0-0.2,0.1-0.5,0.2-0.7l-15.5,9c-0.1,0.1-0.2,0.2-0.1,0.4l0.1,0.1l63.9,36.8
	c0.1,0.1,0.2,0,0.3,0l56.6-32.2v-0.7L91.4,164.1z"/>
<path class="st1" d="M57.1,49.2c-3.8-2.1-7.3-2.4-9.8-1.1l-6.5,3l0,0c-3.7,1.6-6.1,6.1-6,12.8c0,11.4,6.9,24.5,15.6,29.6
	c3.8,2.2,7.3,2.4,10,1l0,0l6-2.8c0.4-0.1,0.6-0.2,0.9-0.4c3.3-1.9,5.4-6.3,5.4-12.5C72.7,67.4,65.7,54.2,57.1,49.2z"/>
<path class="st0" d="M140.9,85L70.2,43.8c-0.4-0.2-0.6-0.3-0.8-0.3c-0.1,0-0.3,0.1-0.6,0.3l-2.4,1.5c-0.8,0.5-1.3,0.8-1.5,1.1
	s-0.3,0.8-0.3,1.7v96.8l48.1,7.3l-5.1,2.9l-17.3-10L69,145.9c-5-2.9-8.9,3.2-8.9-4.7v-93c0-2,0.3-3.2,1.1-4.3c0.7-1,1.6-1.6,2.8-2.4
	l2.4-1.5c1-0.6,1.9-0.9,3-0.9c1,0,2,0.3,3.1,0.9l70.6,41.2c1.8,1,3.3,2.9,4.5,5c1.1,2.1,1.7,4.5,1.7,6.7v38.8l-4.5,2.6V92.8
	c0-1.5-0.5-3.2-1.2-4.6C142.8,86.8,141.9,85.6,140.9,85"/>
<path class="st6" d="M142,83.1L71.3,41.9c-1.7-1-2.9-0.5-4,0.2L64.1,44l1.9,2.5l12.7,77.8c0.6,3.7,2.7,7.6,5.1,9.7l36.3,13.8
	l27.1-14.9V92.8C147.1,89.1,144.8,84.7,142,83.1"/>
<path class="st0" d="M141.9,83.3L71.1,42.1c-0.8-0.5-1.5-0.6-2-0.5c-0.6,0.1-1.1,0.4-1.7,0.7l0,0l-3,1.8l1.7,2.3l0.1,0.1l12.7,77.8
	c0.3,1.8,0.9,3.6,1.8,5.3c0.9,1.7,2,3.2,3.2,4.3l36.4,10.2l-0.5,0.3l-36.3-10.1c-1.2-1.1-2.4-2.7-3.3-4.4c-0.9-1.7-1.6-3.6-1.9-5.5
	L65.6,46.6l-1.8-2.5l-0.2-0.2l0.3-0.2l3.2-1.9l0,0c0.6-0.4,1.2-0.7,1.9-0.8s1.5,0.1,2.4,0.6l70.7,41.2c1.4,0.8,2.7,2.4,3.7,4.2
	c0.9,1.8,1.5,3.9,1.5,5.8v39.9l-0.6,0.3V92.8c0-1.8-0.6-3.8-1.5-5.5C144.4,85.6,143.2,84.1,141.9,83.3"/>
<path class="st1" d="M138.1,85.4L67.3,44.2c-2.8-1.6-5.1,0.1-5.1,3.8v93.3l40.6,16.3l15.5-8.7l24.8-13.7v-40
	C143.2,91.5,140.9,87.1,138.1,85.4"/>
<path class="st9" d="M113.7,151.6l0.6-0.3c0-2,0-4.4,0-4.4c-0.2-8-5.6-17.1-18.5-17.7v-17.2c0,0-1.3-0.3-1.3-0.4
	c-0.1-4.1-1.4-7.5-5.7-10.2c0.1-0.8,0.1-1.6,0.1-2.4c0-12.1-7.3-25.8-16.6-31.3c0,0,0,0,0,0c-3.6-2-7.1-2.6-10.1-1.7v75.5l40.6,16.3
	L113.7,151.6z"/>
<path class="st0" d="M138,85.7L67.2,44.5c-0.7-0.4-1.3-0.6-1.9-0.6c-0.4,0-0.9,0.1-1.2,0.3c-0.4,0.2-0.7,0.5-0.9,1
	c-0.4,0.7-0.6,1.7-0.6,2.9v82.8c0,4.7,1,8.6,6.9,12.4l-5.8-2.5l-1.6-1.8V48.1c0-1.3,0.3-2.3,0.7-3.1c0.3-0.5,0.7-0.9,1.1-1.2
	c0.4-0.3,1-0.4,1.5-0.4c0.7,0,1.4,0.2,2.1,0.6l70.8,41.2c1.4,0.8,2.7,2.4,3.7,4.2c0.9,1.8,1.5,3.9,1.5,5.8V135l-0.6,0.3V95.2
	c0-1.8-0.6-3.8-1.5-5.5C140.5,87.9,139.3,86.5,138,85.7"/>
<path class="st3" d="M67,64.8l13.2,7.6l0.5,0.3l13.2,7.6l0.5,0.3l0.2,0.1l13.7,7.9l13,7.5l0.5,0.3l13.8,8v34.7l-0.6,0.4v-34.8
	l-13-7.5V147l-0.6,0.4V96.8l-13-7.5v65.5l0,0l-0.6,0.6V88.9l-13-7.5V146l-0.6-0.4V81l-13-7.5v64.7l-0.6-0.4V73.1l-13-7.5v81.3
	l-0.6-1.1V64.5L67,64.8"/>
<path class="st0" d="M128.6,95.2v-4.6l2.5,1.4v0.8l-1.8-1v1.1l1.5,0.9v0.8l-1.5-0.9v2L128.6,95.2 M116.1,88v-3.9l-1.1-0.6v-0.8
	l2.9,1.7v0.8l-1.1-0.6v3.9L116.1,88 M100.9,79.2l-0.9-5.1l0.8,0.4l0.5,3.5l0.7-2.8l0.9,0.5l0.6,3.6l0.5-2.9l0.7,0.4l-0.9,4.1
	l-0.8-0.4l-0.7-3.9l-0.7,3.1L100.9,79.2 M72.7,63v-4.6l1.1,0.6l0.6,3.5l0.6-2.8l1.1,0.6v4.6l-0.7-0.4v-3.7L74.7,64L74,63.6l-0.7-4.1
	v3.7L72.7,63"/>
<path class="st10" d="M86.9,158.7h0.8V68.2h-0.8"/>
<path class="st10" d="M87.5,62.9c2.4,1.4,4.4,5.1,4.4,8.3c0,3.2-2,4.6-4.4,3.2s-4.4-5.1-4.4-8.3C83.1,63,85.1,61.5,87.5,62.9"/>
<path class="st5" d="M86.7,71v-3.8l-1.1-0.6v-1.2l3.2,1.9v1.2l-1.1-0.6v3.9l-1.1-0.6L86.7,71"/>
<path class="st10" d="M88.5,156.7c1,0.6,1.8-20.9,1.8-19.6c0,1.3-0.8,1.9-1.8,1.3c-1-0.6-1.8-2.1-1.8-3.4
	C86.7,133.7,87.5,156.1,88.5,156.7"/>
<path class="st11" d="M56.7,97.3c-2.3,0-4.8-0.7-7.3-2.2C40.1,89.7,32.8,76,32.8,63.9c-0.1-7.3,2.5-12.6,7.1-14.6c0,0,0.1,0,0.1,0
	l6.5-3c3.2-1.6,7.3-1.2,11.6,1.2c0,0,0,0,0,0c9.3,5.4,16.6,19.2,16.6,31.3c0,6.8-2.4,12-6.5,14.2c-0.3,0.2-0.6,0.3-1.1,0.5l-5.9,2.8
	c0,0,0,0-0.1,0C59.8,97,58.3,97.3,56.7,97.3z M41.8,52.8c-0.1,0-0.1,0.1-0.2,0.1c-3.1,1.3-4.8,5.4-4.8,11c0,10.7,6.5,23.1,14.6,27.9
	c3,1.7,5.9,2.1,8.1,0.9c0.1,0,0.1-0.1,0.2-0.1l5.8-2.8c0.1,0,0.2-0.1,0.2-0.1c0.2-0.1,0.4-0.2,0.6-0.3c2.7-1.5,4.3-5.5,4.3-10.7
	c0-10.6-6.5-23.1-14.6-27.8c-3-1.7-5.9-2-7.9-1.1L41.8,52.8z"/>
<path class="st1" d="M79.5,123.7v-7.7v-0.1v-8v-0.1v-8v-0.1v-8h0c-0.1-7.3-10.4-13.2-23.2-13.2s-23.1,5.9-23.2,13.2h0v8v0.1v8v0.1v8
	v0.1v8c0,0,0,0,0,0v4.9L57.7,143c12.2-0.4,21.8-4.2,21.8-11.2V123.7L79.5,123.7z"/>
<path class="st11" d="M57.7,145c-0.4,0-0.7-0.1-1-0.3l-24.5-14.1c-0.6-0.4-1-1-1-1.7V91.7c0-0.1,0-0.1,0-0.2
	c0.2-8.4,11.2-15,25.2-15c14,0,25,6.6,25.2,15c0,0,0,0.1,0,0.1v40.1C81.5,139.5,72.4,144.5,57.7,145C57.8,145,57.7,145,57.7,145z
	 M35.2,127.7l23,13.3c11.8-0.5,19.3-4.1,19.3-9.2v-40c0,0,0-0.1,0-0.1c-0.1-6.1-9.8-11.2-21.2-11.2c-11.4,0-21.1,5.1-21.2,11.2
	c0,0,0,0.1,0,0.1V127.7z"/>
<path class="st12" d="M57.7,145c12.2-0.4,21.8-6.2,21.8-13.2v-8.1h-4.9c-4.2-3.1-10.9-5.1-18.3-5.1c-7.4,0-14.1,2-18.3,5.1h-4.9v7.2
	L57.7,145z"/>
<path class="st12" d="M74.7,115.8c-4.2-3.1-10.9-5.1-18.3-5.1c-7.4,0-14.1,2-18.3,5.1h-4.9v8.1c0,7.3,10.4,13.2,23.2,13.2
	s23.2-5.9,23.2-13.2v-8.1H74.7z"/>
<path class="st11" d="M56.4,137.7c-13.1,0-23.7-6.2-23.7-13.7v-8.6h5.2c4.5-3.3,11.2-5.1,18.5-5.1s14,1.9,18.5,5.1H80v8.6
	C80,131.5,69.4,137.7,56.4,137.7z M33.7,116.3v7.6c0,7,10.2,12.7,22.7,12.7C68.9,136.7,79,131,79,124v-7.6h-4.5l-0.1-0.1
	c-4.3-3.2-10.9-5-18-5s-13.7,1.8-18,5l-0.1,0.1H33.7z"/>
<path class="st12" d="M74.7,107.8c-4.2-3.1-10.9-5.1-18.3-5.1c-7.4,0-14.1,2-18.3,5.1h-4.9v8.1c0,7.3,10.4,13.2,23.2,13.2
	s23.2-5.9,23.2-13.2v-8.1H74.7z"/>
<path class="st11" d="M56.4,129.7c-13.1,0-23.7-6.2-23.7-13.7v-8.6h5.2c4.5-3.3,11.2-5.1,18.5-5.1s14,1.9,18.5,5.1H80v8.6
	C80,123.5,69.4,129.7,56.4,129.7z M33.7,108.3v7.6c0,7,10.2,12.7,22.7,12.7c12.5,0,22.7-5.7,22.7-12.7v-7.6h-4.5l-0.1-0.1
	c-4.3-3.2-10.9-5-18-5s-13.7,1.8-18,5l-0.1,0.1H33.7z"/>
<path class="st12" d="M74.7,99.8c-4.2-3.1-10.9-5.1-18.3-5.1c-7.4,0-14.1,2-18.3,5.1h-4.9v8.1c0,7.3,10.4,13.2,23.2,13.2
	s23.2-5.9,23.2-13.2v-8.1H74.7z"/>
<path class="st11" d="M56.4,121.6c-13.1,0-23.7-6.2-23.7-13.7v-8.6h5.2c4.5-3.3,11.2-5.1,18.5-5.1s14,1.9,18.5,5.1H80v8.6
	C80,115.5,69.4,121.6,56.4,121.6z M33.7,100.3v7.6c0,7,10.2,12.7,22.7,12.7c12.5,0,22.7-5.7,22.7-12.7v-7.6h-4.5l-0.1-0.1
	c-4.3-3.2-10.9-5-18-5s-13.7,1.8-18,5l-0.1,0.1H33.7z"/>
<ellipse class="st1" cx="56.4" cy="99.8" rx="23.2" ry="13.2"/>
<path class="st12" d="M74.7,91.7c-4.2-3.1-10.9-5.1-18.3-5.1c-7.4,0-14.1,2-18.3,5.1h-4.9v8.1c0,7.3,10.4,13.2,23.2,13.2
	s23.2-5.9,23.2-13.2v-8.1H74.7z"/>
<path class="st11" d="M56.4,113.6c-13.1,0-23.7-6.2-23.7-13.7v-8.6h5.2c4.5-3.3,11.2-5.1,18.5-5.1s14,1.9,18.5,5.1H80v8.6
	C80,107.4,69.4,113.6,56.4,113.6z M33.7,92.2v7.6c0,7,10.2,12.7,22.7,12.7c12.5,0,22.7-5.7,22.7-12.7v-7.6h-4.5l-0.1-0.1
	c-4.3-3.2-10.9-5-18-5s-13.7,1.8-18,5l-0.1,0.1H33.7z"/>
<ellipse class="st1" cx="56.4" cy="91.8" rx="23.2" ry="13.2"/>
<path class="st11" d="M56.4,105.5c-13.1,0-23.7-6.2-23.7-13.7c0-7.6,10.6-13.7,23.7-13.7S80,84.2,80,91.8
	C80,99.4,69.4,105.5,56.4,105.5z M56.4,79c-12.5,0-22.7,5.7-22.7,12.7c0,7,10.2,12.7,22.7,12.7S79,98.8,79,91.8
	C79,84.8,68.9,79,56.4,79z"/>
<path class="st12" d="M57.1,49.2c8.7,5.1,15.6,18.2,15.6,29.6c0,6.2-2.1,10.6-5.4,12.5l0,0l0,0c-0.2,0.1-0.5,0.2-0.9,0.4l-6,2.8
	l-1.8-3.6c-0.5-0.2-0.9-0.5-1.4-0.7C48.5,85,41.6,71.9,41.6,60.5c0-2.5,0.2-4.7,1-6.6l-1.8-3l6.5-3C49.8,46.8,53.2,47.1,57.1,49.2"
	/>
<path class="st11" d="M60.2,95.1l-2-3.9c-0.2-0.1-0.4-0.2-0.6-0.3c-0.2-0.1-0.4-0.2-0.7-0.4c-8.9-5.2-15.9-18.4-15.9-30
	c0-2.7,0.3-4.8,0.9-6.5l-2-3.2l7-3.2c2.7-1.4,6.4-1,10.2,1.1l0,0c8.9,5.2,15.8,18.4,15.8,30c0,6.2-2.1,10.9-5.7,12.9
	c-0.3,0.1-0.5,0.3-0.9,0.4L60.2,95.1z M41.5,51.3l1.6,2.7l-0.1,0.2c-0.7,1.6-1,3.7-1,6.4c0,11.1,6.9,24.2,15.3,29.1
	c0.2,0.1,0.5,0.2,0.7,0.4c0.2,0.1,0.4,0.2,0.7,0.4l0.1,0.1l1.7,3.3l5.5-2.6c0.4-0.1,0.6-0.3,0.9-0.4c3.3-1.8,5.2-6.2,5.2-12
	c0-11.1-6.9-24.2-15.3-29.1c-3.5-1.9-6.8-2.3-9.3-1.1L41.5,51.3z"/>
<path class="st1" d="M102.7,130.9L102.7,130.9c-0.1-7.3-10.4-13.2-23.2-13.2s-23.1,5.9-23.2,13.2h0v8V137v5.2l35.1,20.2l10.5-5.9
	c0.4-0.2,0.8-0.5,0.8-0.5v-9v-0.1v-8c0,0,0,0,0,0V130.9z"/>
<path class="st13" d="M91.5,164.3c-0.3,0-0.7-0.3-1-0.4l-35.1-20.2c-0.6-0.4-1.1-0.5-1.1-1.3v-11.3c0-0.1,0-0.1,0-0.2
	c0.2-8.4,11.2-15,25.2-15c14,0,25,6.6,25.2,15c0,0.1,0,0.1,0,0.2v25.1c0,0.7-0.1,0.8-0.6,1.2c0,0-1,0.4-1.4,0.7l-10.5,6
	C91.8,164.3,91.9,164.3,91.5,164.3z M58.3,141.3l33.1,19.1l9.2-5.3v-23.9c0,0,0-0.1,0-0.1c-0.1-6.1-9.8-11.2-21.2-11.2
	c-11.4,0-21.1,5.1-21.2,11.2c0,0,0,0.1,0,0.1V141.3z"/>
<path class="st14" d="M91.4,164.7l10.5-5.9c0.5-1.1,0.8-2.2,0.8-3.4v-8.1h-4.9c-4.2-3.1-10.9-5.1-18.3-5.1s-14.1,2-18.3,5.1h-0.1
	L91.4,164.7z"/>
<path class="st13" d="M91.3,164.3l-29.8-17.2l-0.5-0.5c4.5-3.3,11.2-5.1,18.5-5.1s14,1.9,18.5,5.1h5.2v8.6c0,1.2,0,1.6-0.5,2.8l0,0
	L91.3,164.3z M62.1,147.2l29.4,16.9l10.1-5.7c0.4-1,0.7-2,0.7-3.1v-7.6h-4.5l-0.1-0.1c-4.3-3.2-10.9-5-18-5
	C72.7,142.5,66.4,144.2,62.1,147.2z"/>
<path class="st14" d="M83.8,160.3c10.7-1.2,18.9-6.5,18.9-13v-8.1h-4.9c-4.2-3.1-10.9-5.1-18.3-5.1s-14.1,2-18.3,5.1h-4.9v5.3
	L83.8,160.3z"/>
<path class="st13" d="M83.9,160L83.9,160l-28.1-16.1v-5.3H61c4.5-3.3,11.2-5.1,18.5-5.1c7.2,0,14,1.9,18.5,5.1h5.2v8.6
	c0,6.4-7.7,12-18.3,13.4c-0.2,0-0.2-0.3-0.4-0.2c-0.1,0-0.2-0.3-0.3-0.3L83.9,160z M56.8,144.1l27.1,15.6
	c10.6-1.2,18.3-6.4,18.3-12.5v-7.6h-4.5l-0.1-0.1c-4.3-3.2-10.9-5-18-5c-7.1,0-13.7,1.8-18,5l-0.1,0.1h-4.5V144.1z"/>
<path class="st14" d="M97.8,131.1c-4.2-3.1-10.9-5.1-18.3-5.1c-7.4,0-14.1,2-18.3,5.1h-4.9v8.1c0,2.7,1.4,5.2,3.8,7.3
	c0.9,0.8,2.2,1.2,3.4,1.9c1.3,0.7,2.5,1.7,4.1,2.2c3.5,1.2,7.6,1.9,11.9,1.9c12.8,0,23.2-5.9,23.2-13.2v-8.1H97.8z"/>
<path class="st13" d="M79.5,152.9c-3.7,0-7.2-0.5-10.4-1.4c-2.3-0.7-4.4-2.5-6.2-3.5c-1.8-1-3.3-1.5-4.5-2.8
	c-0.1-0.1-0.3-0.1-0.4-0.2c-1.5-1.8-2.3-3.8-2.3-5.9v-8.6H61c4.5-3.3,11.2-5.1,18.5-5.1c7.2,0,14,1.9,18.5,5.1h5.2v8.6
	C103.2,146.8,92.6,152.9,79.5,152.9z M56.8,131.6v7.6c0,7,10.2,12.7,22.7,12.7c12.5,0,22.7-5.7,22.7-12.7v-7.6h-4.5l-0.1-0.1
	c-4.3-3.2-10.9-5-18-5c-7.1,0-13.7,1.8-18,5l-0.1,0.1H56.8z"/>
<ellipse class="st1" cx="79.5" cy="131.2" rx="23.2" ry="13.2"/>
<path class="st13" d="M79.5,144.9c-13.1,0-23.7-6.2-23.7-13.7s10.6-13.7,23.7-13.7c13.1,0,23.7,6.2,23.7,13.7S92.6,144.9,79.5,144.9
	z M79.5,118.4c-12.5,0-22.7,5.7-22.7,12.7s10.2,12.7,22.7,12.7c12.5,0,22.7-5.7,22.7-12.7S92,118.4,79.5,118.4z"/>
<path class="st1" d="M50.4,52.4C59.1,57.5,66,70.6,66,82s-7.1,16.5-15.6,11.5c-8.7-5.1-15.6-18.2-15.6-29.6
	C34.7,52.4,41.6,47.3,50.4,52.4"/>
<path class="st11" d="M56.7,95.8c-2,0-4.3-0.7-6.5-2c-8.9-5.2-15.8-18.4-15.8-30c-0.1-6.1,1.9-10.8,5.4-12.8c3-1.8,6.9-1.4,11,0.9
	l0,0c8.9,5.2,15.8,18.4,15.8,30c0,6.1-2,10.7-5.6,12.8C59.6,95.5,58.2,95.8,56.7,95.8z M44,50.9c-1.4,0-2.6,0.3-3.8,1
	c-3.2,1.9-5,6.2-4.9,12c0,11.1,6.9,24.2,15.3,29.1c3.6,2.1,7.1,2.4,9.8,0.8c3.2-1.9,5.1-6.2,5.1-11.9c0-11.1-6.9-24.2-15.3-29.1
	C48,51.6,45.9,50.9,44,50.9z"/>
<path class="st11" d="M55.9,75.2c-0.7-1.4-1.9-2.6-3.4-3.9c-2.2-1.8-3.5-2.9-3.9-3.4c-0.4-0.5-0.6-1-0.6-1.6c0-0.5,0.2-0.8,0.5-1
	c0.3-0.2,0.9-0.1,1.7,0.4c1,0.5,1.7,1.2,2.1,2.1c0.2,0.5,0.4,1.1,0.4,1.8l3.7,1.9c-0.2-2.5-0.8-4.5-1.9-6.1c-0.7-1-1.5-1.8-2.5-2.5
	v-2.8l-3.2-1.6v2.7c-1.3-0.4-2.3-0.3-3.1,0.3c-1,0.8-1.6,2.1-1.6,3.9c0,1.5,0.3,2.9,1,4c0.7,1.2,1.8,2.4,3.4,3.8
	c2.3,1.9,3.6,3.1,3.9,3.5c0.4,0.5,0.5,1,0.5,1.6c0,0.6-0.2,0.9-0.7,1c-0.4,0.1-1-0.1-1.8-0.4c-1.3-0.6-2.1-1.4-2.6-2.3
	c-0.3-0.5-0.4-1.3-0.5-2.2l-3.8-1.9c0,2,0.5,4,1.6,5.8c0.8,1.4,2,2.6,3.5,3.6v2.8l3.2,1.6v-2.9c1.4,0.5,2.5,0.4,3.3-0.1
	c1.1-0.7,1.6-2,1.6-4C57,78,56.6,76.6,55.9,75.2z"/>
<path class="st13" d="M74.8,134.4c-1.1-0.6-1.8-1.3-2.1-2.1c-0.4-0.8-0.4-1.5,0-2.3c0.2-0.3,0.4-0.7,0.7-1l4.7,2.8l3.2-1.9l-4.7-2.8
	c0.5-0.2,1.1-0.3,1.7-0.4c1.3-0.2,2.6-0.2,3.9,0c1.3,0.2,2.5,0.6,3.5,1.3c1.7,1,2.5,2.2,2.3,3.7l4.9,0.1c0.2-1.1-0.1-2.1-0.8-3.1
	c-0.7-1-1.8-2-3.2-2.8c-1.8-1-3.7-1.7-5.9-2.1c-2.2-0.4-4.3-0.4-6.5-0.1c-1.4,0.2-2.8,0.6-4,1.1l-2.3-1.4l-3.2,1.9l2.3,1.4
	c-0.9,0.7-1.5,1.5-1.9,2.4c-0.5,1.3-0.5,2.5,0.2,3.8c0.7,1.3,1.8,2.4,3.6,3.5c1.5,0.9,3.1,1.5,4.8,1.9c1.7,0.4,3.5,0.6,5.3,0.4
	l-0.2-2.9C78.6,135.8,76.5,135.4,74.8,134.4z"/>
<path class="st0" d="M91.4,164.1l-63.3-36.5l3.1-1.8v-0.6l-3.8,2.2c-0.1,0.1-0.2,0.2-0.1,0.4l0.1,0.1l63.9,36.8c0.1,0.1,0.2,0,0.3,0
	l57.7-32.8v-0.7L91.4,164.1z"/>
<path class="st15" d="M95.1,87.1l33.5,19.4c1.4,0.8,2.6,3.1,2.6,5.1v5.1c0,1-0.3,1.7-0.7,2.1c-0.5,0.4-1.5,1.2-2.4,1.7l-33-21
	c-1.4-0.8-2.6-3.1-2.6-5.1l-1.5-5.6c0.6-0.6,1.5-1.3,2.2-1.6C93.9,86.9,94.4,86.7,95.1,87.1"/>
<path class="st16" d="M117.8,118.2l10.9,6.3c1.4,0.8,2.6,3.1,2.6,5.1v5.1c0,1-0.3,1.7-0.8,2.1c-0.5,0.4-1.5,1.2-2.5,1.8l-10.1-8.1
	c-1.4-0.8-2.6-3.1-2.6-5.1l-1.6-5.5c0.6-0.5,1.6-1.2,2.3-1.7C116.5,117.9,117.1,117.8,117.8,118.2"/>
<path class="st10" d="M92.8,88.7l33.5,19.4c1.4,0.8,2.6,3.1,2.6,5.1v5.1c0,2-1.2,2.9-2.6,2.1l-33.5-19.4c-1.4-0.8-2.6-3.1-2.6-5.1
	v-5.1C90.3,88.9,91.4,87.9,92.8,88.7"/>
<path class="st17" d="M115.5,119.9l10.9,6.3c1.4,0.8,2.6,3.1,2.6,5.1v5.1c0,2-1.2,2.9-2.6,2.1l-10.9-6.3c-1.4-0.8-2.6-3.1-2.6-5.1
	V122C112.9,120,114,119,115.5,119.9"/>
<g>
	<g>
		<g>
			<path class="st18" d="M158,82.7l11.4-6.5c0.1,0,0.2-0.1,0.2-0.1h0.1l0,0c1-0.7,1.6-1.9,1.6-3.6l0.1-19.7c0-3.9-3.2-9-7.1-11.2
				l-15.4-8.7c-3-1.7-4.6-1.1-6.9,0.3l-9.6,5.5l14.1,21.4L158,82.7"/>
		</g>
		<g>
			<path class="st19" d="M130.2,62.1l0.1-19.7c0-3.9,3.3-5.3,7.2-3.1l15.4,8.7c3.9,2.2,7.2,7.3,7.1,11.2l-0.1,19.7
				c0,3.9-3.3,5.3-7.2,3.1l-15.4-8.7C133.4,71,130.2,66,130.2,62.1"/>
		</g>
	</g>
	<path class="st5" d="M150.6,58.5l-9.1,7.3c-0.4,0-1-0.3-1.3-1.1c0,0,0-0.1-0.1-0.1l-2.4-5.1c-1.3-2.9,1.6-4.3,2.6-2l1.4,3.2
		l7.3-5.9C151.2,52.9,152.6,56.8,150.6,58.5"/>
</g>
<path class="st20" d="M133.4,173.6v-3.3c0-2.9-1.6-4.3-3.6-3.1c-2,1.2-3.6,4.4-3.6,7.3v3.3c-0.8,1.1-1.4,2.6-1.4,4.1v4.2
	c0,2,1.1,2.9,2.5,2.1l5.1-3c1.4-0.8,2.5-3.1,2.5-5V176C134.9,174.6,134.3,173.7,133.4,173.6z M129.8,169.6c1.1-0.6,2,0.1,2,1.7v2.9
	l-3.9,2.3v-2.9C127.9,172,128.8,170.3,129.8,169.6z"/>
<g>
	<path class="st20" d="M137.6,161.3c-2.5-1.4-5.6-1.2-8.9,0.7l0,0c-7.1,4.1-12.9,15.1-12.9,24.3c0,4.9,1.7,8.7,4.5,10.4
		c1.1,0.6,2.2,0.9,3.5,0.9c1.7,0,3.5-0.5,5.3-1.6c7.1-4.1,12.9-15.1,12.9-24.3C142.1,166.7,140.5,162.9,137.6,161.3z M128.7,195.2
		c-2.9,1.7-5.7,1.9-7.8,0.7c-2.6-1.5-4-5-4-9.5c0-9,5.6-19.5,12.4-23.5c2.9-1.7,5.8-2,7.9-0.7c2.6,1.5,4,5,4,9.6
		C141.1,180.7,135.5,191.2,128.7,195.2z"/>
</g>
</svg>
