<?xml version="1.0" encoding="utf-8"?>
<!-- Generator: Adobe Illustrator 22.1.0, SVG Export Plug-In . SVG Version: 6.00 Build 0)  -->
<svg version="1.1" id="Layer_1" xmlns="http://www.w3.org/2000/svg" xmlns:xlink="http://www.w3.org/1999/xlink" x="0px" y="0px"
	 viewBox="0 0 182 240" style="enable-background:new 0 0 182 240;" xml:space="preserve">
<style type="text/css">
	.st0{fill:#B3B4B4;}
	.st1{fill:#FFFFFF;}
	.st2{fill:#F6F6F6;}
	.st3{fill:#CBCCCB;}
	.st4{fill:#DFDFDE;}
	.st5{fill:#FFFFFE;}
	.st6{fill:#EBECEB;}
	.st7{fill:#D5D6D5;}
	.st8{fill:#1C7CA0;}
	.st9{fill:#39B5D3;}
	.st10{fill:#86BC11;}
	.st11{fill:#DFEABE;}
	.st12{fill:#E94C6D;}
	.st13{fill:#FFC8C5;}
	.st14{fill:#2EBCE3;}
	.st15{fill:#DBEEF7;}
	.st16{fill:#5BAA00;}
	.st17{fill:#93CE11;}
	.st18{fill:#C71E4E;}
</style>
<title>Group</title>
<g>
	<g>
		<path class="st0" d="M153.2,127.4l6.1-3.5c2.2-1.3,4.3-3.3,5.7-5.7c1.5-2.3,2.4-4.8,2.4-6.9l0.2-43.1c0-0.8-0.1-1.5-0.4-2
			c-0.2-0.4-0.5-0.7-0.8-1c0,0-0.1-0.1-0.1-0.1L98.1,25.8c-0.1,0-0.2-0.1-0.3-0.1c-0.5-0.2-1-0.3-1.7-0.2c-0.9,0.1-1.8,0.4-2.9,1
			L86.9,30v59.1L153.2,127.4z M161.4,127.6l-7.2,4v0c-0.6,0.4-1.4,0.4-2.1,0L83.9,92.2c-0.7-0.3-1.2-1.1-1.2-1.9V29h0
			c0-0.4,0.1-0.7,0.3-1.1l0.1-0.2c0.2-0.4,0.5-0.7,0.8-0.9l7.3-4.1c1.6-0.9,3.1-1.4,4.5-1.6c1.6-0.2,3,0.1,4.2,0.7
			c0.1,0,0.1,0.1,0.1,0.1l0.1,0.1l0,0l68.1,39.4c0.1,0,0.2,0.1,0.3,0.2l0,0c1,0.6,1.8,1.5,2.4,2.7c0.5,1.1,0.8,2.4,0.8,3.8
			l-0.2,43.1c0,3-1.2,6.3-3.1,9.2C166.8,123.4,164.2,126,161.4,127.6L161.4,127.6z"/>
	</g>
	<g>
		<path class="st1" d="M93,67.1l0-6l59.5,37l15-34.7L99.1,23.9L99,23.8c-1.7-0.9-4.1-0.7-6.8,0.8L85,28.7L84.8,29v26.7l-8.2,29.9
			l7.2-4C88.8,78.7,93,72.2,93,67.1"/>
	</g>
	<g>
		<path class="st0" d="M101,71.9l0-6l0-0.5l0.4,0.3l51,20.1l14.7-24L99,22.4l-0.1-0.1c-0.8-0.4-1.8-0.6-2.9-0.5
			c-1.1,0.1-2.3,0.5-3.6,1.3l-7.2,4.1l-0.1,0.1v62.5l6.8-3.8c2.5-1.4,4.8-3.7,6.4-6.3C99.9,77.2,101,74.4,101,71.9L101,71.9z
			 M101.5,66.4l0,5.5c0,2.6-1.1,5.5-2.8,8.2c-1.7,2.7-4,5-6.6,6.5l-7.2,4l-0.4,0.2V27.3l0-0.1l0.1-0.2l0.1-0.1l7.3-4.1
			c1.3-0.8,2.6-1.2,3.8-1.3c1.1-0.1,2,0,2.8,0.4v0l0.4,0.2l0.1,0.1l68.3,39.5l0.2,0.1l-0.1,0.2l-15,24.4l-0.1,0.2l-0.2-0.1
			L101.5,66.4L101.5,66.4z"/>
	</g>
	<g>
		<path class="st0" d="M14,128v48.2c0,1.3,0.2,2.5,0.6,3.3c0.3,0.7,0.7,1.2,1.2,1.5c0.1,0,0.1,0.1,0.2,0.1l72.5,41.8
			c0.1,0.1,0.2,0.1,0.3,0.2c0.4,0.2,0.8,0.3,1.2,0.2c0.6,0,1.3-0.3,2-0.7l50.5-29.3c1.9-1.1,3.8-3.3,5.1-5.9
			c1.4-2.6,2.2-5.6,2.2-8.3V131L79.3,90.2L14,128L14,128z M9.5,176.2v-49.5h0c0-0.8,0.4-1.5,1.1-1.9l67.6-39c0.7-0.4,1.5-0.4,2.3,0
			l72.6,42c0.8,0.4,1.3,1.1,1.3,2v49.5c0,3.4-1.1,7.1-2.7,10.4c-1.7,3.3-4.2,6.1-6.8,7.7l-50.5,29.4c-1.4,0.8-2.7,1.2-4,1.3
			c-1.4,0.1-2.8-0.2-3.9-1v0L13.7,185c-0.1-0.1-0.3-0.1-0.4-0.2c-1.3-0.8-2.3-2-2.9-3.5C9.8,179.9,9.5,178.1,9.5,176.2L9.5,176.2z"
			/>
	</g>
	<g>
		<path class="st2" d="M12,126.7v49.5c0,3.4,1.1,5.8,2.9,6.8l0,0l68.9,39.8c2.2,1.3,3.7,1.9,6.1,2.2l26.3-21.6
			c4.6-2.7,8.5-9.9,8.5-16.1v-41.5l-39.8,22.1L12,126.7"/>
	</g>
	<g>
		<path class="st0" d="M124.5,145.6L84.9,168L12,126.2l-0.4-0.2v50.2l0,0c0,1.7,0.3,3.1,0.8,4.3l-0.2-1.1l0.2,0.8l0.4,0.7l-0.4-0.5
			c0.4,1,1.1,1.9,1.8,2.4c0.1,0.1,0.3,0.2,0.4,0.3l-0.4-0.4l0.1,0l0.3,0.4h0l0,0l0.7,0.4l72.7,42l0.3,0.2l0.1-0.4l0.7-3.5l27.2-18.3
			c2.4-1.4,4.5-3.9,6.1-6.8c1.6-3,2.5-6.3,2.5-9.5v-42L124.5,145.6z M11.5,176.1l0.1,0.4h0l0,0.3L11.5,176.1z M124.4,187.3
			c0,3-0.9,6.4-2.5,9.2c-1.5,2.9-3.6,5.3-5.9,6.6l-27.3,18.3l-0.1,0.1l0,0.1l-0.7,3.2l-73-42.2l0,0h0l0,0h0l0,0
			c-0.9-0.5-1.6-1.3-2-2.5c-0.5-1.1-0.7-2.5-0.7-4.1v-49.2l72.6,41.6l0.1,0.1l0.1-0.1l39.3-22.2V187.3z"/>
	</g>
	<g>
		<path class="st1" d="M85,168.2v49.4c0,6.2,3.8,9.1,8.5,6.4l50.1-28.8c4.6-2.7,8.5-9.9,8.5-16.1v-49.5l-66.9,38.6L85,168.2"/>
	</g>
	<g>
		<path class="st0" d="M85.3,168.6v49.1c0,2,0.4,3.6,1.1,4.8c0.4,0.8,1,1.4,1.6,1.8c0.6,0.4,1.4,0.6,2.2,0.6c1,0,2-0.3,3.2-0.9
			l50.2-28.8c2.3-1.3,4.4-3.7,5.9-6.6c1.5-2.9,2.5-6.2,2.5-9.2v-49L85.3,168.6L85.3,168.6L85.3,168.6z M84.7,217.7v-49.9l0.4,0.2
			l0,0l67.2-38.8v50c0,3.1-1,6.5-2.5,9.5c-1.6,3-3.7,5.5-6.1,6.8l-50.2,28.8c-1.2,0.7-2.4,1-3.4,1c-0.9,0-1.7-0.2-2.5-0.7
			c-0.7-0.4-1.3-1.1-1.8-1.9C85.1,221.4,84.7,219.7,84.7,217.7L84.7,217.7z"/>
	</g>
	<g>
		<path class="st3" d="M79.2,87.6l72.9,42.1l-67,38.5l-72.8-42L79.2,87.6"/>
	</g>
	<g>
		<path class="st4" d="M131.5,122.2l12.5,7.3l-12.5,7.1V122.2"/>
	</g>
	<g>
		<path class="st5" d="M48.8,109.8l0-4.3l-36.5,21l72.8,42l66.9-38.6l-16.3-9.4l-4,1.8l11.7,7.4L85,163.4l-54.4-31l-10.8-5.5
			L48.8,109.8"/>
	</g>
	<g>
		<path class="st0" d="M79.4,87.4l72.8,42.1c0.1,0.1,0.2,0.2,0.1,0.4c0,0-0.1,0.1-0.1,0.1v0l-67,38.7c-0.1,0.1-0.2,0-0.3,0l-73.1-42
			c-0.1-0.1-0.2-0.2-0.1-0.4c0,0,0.1-0.1,0.1-0.1l67.2-38.8C79.2,87.3,79.3,87.3,79.4,87.4L79.4,87.4z M151.5,129.7L79.2,87.9
			l-66.7,38.4l72.5,41.7L151.5,129.7L151.5,129.7z"/>
	</g>
	<g>
		<path class="st1" d="M169.6,111.3l0.2-43.1c0-5.1-4.1-6.9-9.1-4.1l-7.3,4.1l-0.1,0.2v61.4l7.2-4
			C165.4,122.9,169.5,116.4,169.6,111.3"/>
	</g>
	<g>
		<path class="st0" d="M169.3,111.3l0.2-43.1c0-1.2-0.2-2.3-0.7-3.1c-0.4-0.7-0.9-1.2-1.5-1.5c-0.6-0.3-1.4-0.5-2.2-0.5
			c-1.3,0-2.8,0.4-4.3,1.3l-7.5,4.2l-0.1,0.1v60.8l7-4c2.5-1.4,4.7-3.7,6.4-6.3C168.3,116.7,169.3,113.8,169.3,111.3L169.3,111.3z
			 M170,68.2l-0.2,43.1c0,2.6-1.1,5.5-2.8,8.2c-1.7,2.6-4,5-6.6,6.5l-7.4,4.2l-0.4,0.2V68.6l0-0.1l0.1-0.2l0.1-0.1l7.5-4.2
			c1.7-0.9,3.2-1.4,4.6-1.4c0.9,0,1.7,0.2,2.4,0.6c0.7,0.4,1.3,1,1.7,1.7C169.7,65.7,170,66.9,170,68.2L170,68.2z"/>
	</g>
	<g>
		<path class="st5" d="M84.9,90.4V29l68.3,39.5v61.3L84.9,90.4"/>
	</g>
	<g>
		<path class="st6" d="M149.4,128l-4.6-2.7L149.4,128z M149.4,128l0-57.7L87.6,34.5l0.3,16.5l0,40.8l55.7,32.9L149.4,128L149.4,128z
			"/>
	</g>
	<g>
		<path class="st7" d="M86.9,43.1l0,48.5l53.1,31.3V80.9c0-3.7-2.3-8.1-5.1-9.7L86.9,43.1"/>
	</g>
	<g>
		<path class="st0" d="M149.8,127.8l-0.5-0.3V70.3L87.8,34.7v57.3l-0.5-0.3V34.3c0-0.1,0.1-0.3,0.3-0.3c0.1,0,0.1,0,0.1,0L149.6,70
			c0.1,0,0.1,0.1,0.1,0.2V127.8"/>
	</g>
	<g>
		<path class="st0" d="M84.5,90.3V28.9c0-0.1,0.1-0.3,0.3-0.3c0.1,0,0.1,0,0.2,0l68.2,39.5c0.1,0,0.1,0.1,0.1,0.2v61.3
			c0,0.1-0.1,0.3-0.3,0.3c-0.1,0-0.1,0-0.1,0L84.6,90.5C84.5,90.5,84.5,90.4,84.5,90.3L84.5,90.3z M85,29.4v60.7l67.6,39.2V68.6
			C152.7,68.6,85,29.4,85,29.4z"/>
	</g>
	<g>
		<path class="st6" d="M51.5,167.8l-9.3-5.4l-3.1,2.2l2.1,4.7l3.3,10.1l2.6,3.3c3.8-2.3,4.2-2.8,4.3-6L51.5,167.8"/>
	</g>
	<g>
		<path class="st0" d="M51.1,168l-8.9-5.2l-2.6,1.8l2,4.3l3.2,10l2.4,3c1.6-1,2.6-1.6,3.1-2.3c0.5-0.7,0.7-1.6,0.7-3.1L51.1,168
			L51.1,168z M42.4,162l9.3,5.4c0.1,0.1,0.2,0.2,0.2,0.4v8.8c0,1.7-0.2,2.7-0.9,3.6c-0.6,0.9-1.7,1.6-3.6,2.7
			c-0.2,0.1-0.4,0.1-0.6-0.1l-2.6-3.3l0,0l-3.3-10.1h0c0,0,0,0,0-0.1l-2.1-4.6c-0.1-0.2,0-0.4,0.1-0.5l3.1-2.2
			C42.1,161.9,42.2,161.9,42.4,162L42.4,162z"/>
	</g>
	<g id="Fill-33_4_">
		<path class="st8" d="M159.3,92.6l4.5-2.6c0.1,0,0.1-0.1,0.2-0.1l0.1,0v0c0.7-0.5,1.2-1.4,1.2-2.7l0.1-44.5c0-2.9-2.4-6.7-5.3-8.4
			L136,20.5c-2.3-1.3-3.4-0.8-5.2,0.2l-3.2,1.8l18.2,26.1L159.3,92.6"/>
	</g>
	<g id="Fill-34_4_">
		<path class="st9" d="M125.9,69.9l0.1-44.5c0-2.9,2.4-4,5.4-2.3l24.1,13.8c2.9,1.7,5.3,5.5,5.3,8.4l-0.1,44.5c0,2.9-2.4,4-5.4,2.3
			l-24.1-13.8C128.3,76.6,125.9,72.8,125.9,69.9"/>
	</g>
	<g id="Fill-38_4_">
		<path class="st5" d="M144.9,53.6l7.3,4.3v1.9l-7.3-4.3V53.6z M152.2,51.8l-7.3-4.4v1.9l7.3,4.4V51.8z M152.2,69.9l-19.4-11.4v1.9
			l19.4,11.4V69.9z M152.2,76l-19.4-11.4v1.9l19.4,11.4V76z M132.8,52.7l19.4,11.3v1.9l-19.4-11.3V52.7L132.8,52.7z"/>
	</g>
	<g>
		<path class="st2" d="M48.4,169.7l-9.3-5.1v9.9c0,7.9,9.3,11.5,9.3,5.3L48.4,169.7"/>
	</g>
	<g>
		<path class="st0" d="M48,169.9l-8.5-4.7v9.2c0,3.5,1.9,6.1,4,7.3c0.6,0.3,1.2,0.6,1.8,0.7c0.5,0.1,1,0,1.5-0.2
			c0.7-0.3,1.2-1.1,1.2-2.5L48,169.9L48,169.9z M39.3,164.1l9.3,5.1c0.1,0.1,0.2,0.2,0.2,0.4v10.1c0,1.7-0.7,2.8-1.7,3.3
			c-0.6,0.3-1.2,0.3-1.9,0.2c-0.7-0.1-1.4-0.4-2.1-0.8c-2.3-1.3-4.4-4.2-4.4-8.1v-9.9c0-0.1,0-0.1,0.1-0.2
			C38.9,164.1,39.1,164,39.3,164.1L39.3,164.1z M120.9,116l23.1,13.4c0.1,0.1,0.2,0.2,0.1,0.4c0,0-0.1,0.1-0.1,0.1v0l-58.9,34
			c-0.1,0.1-0.2,0-0.3,0l-65.1-37c-0.1-0.1-0.2-0.2-0.1-0.4c0,0,0.1-0.1,0.1-0.1l28.4-16.2v0.6l-27.7,15.8L85,163.4l58.3-33.7
			l-22.4-13L120.9,116"/>
	</g>
	<g>
		<path class="st1" d="M125.6,53.9l-12.7-7.3l-4.7-2.7l-2.5-1.4c0.9,0.1,1.8,0,2.5-0.4l0,0l7.5-4.3c1.8-1,3.3-3,3.3-6.3
			c0-5.8-3.8-12.6-8.5-15.3c-2.4-1.4-4.3-1.2-6.1-0.3l-6.9,3.9c-2,0.7-3.3,3-3.3,6.3c0,4.4,2.3,9.5,5.5,12.9l-1.6-0.9
			c-1.9-1.1-4.7-1.5-7.9,0.3S83.9,42,83.9,42l0,0.1C81.7,43,80,45.1,80,48.5v36.3c0,2.9,1.9,6.3,4.3,7.6h0c1,0.6,1.9,0.7,2.6,0.4
			l0,0l0,0c0.2-0.1,0.3-0.2,0.5-0.3l5.1-2.9v55.1c0,3.1,2.2,6.9,4.8,7.9c0.9,0.4,1.6,0.3,2.2,0l0,0l5.2-2.9v0.7l2.7-1.6l0,0l5.3-3.1
			l0.4-0.3l0,0l7.8-4.6v-27.4c0.1,0,0.1,0.1,0.2,0.1h0c1.2,0.7,2.3,0.7,3.1,0.1l7.1-4c1.1-0.7,1.9-1.4,1.9-3.2V67.7
			C133.3,62.6,129.8,56.4,125.6,53.9z"/>
		<path class="st10" d="M98.5,154.9c-0.6,0-1.3-0.1-1.9-0.4c-3.3-1.3-6-5.8-6-9.7V92.9l-2.2,1.2c-0.2,0.2-0.5,0.3-0.8,0.4
			c0,0-0.1,0-0.2,0.1c-1.3,0.5-2.7,0.3-4.2-0.5c-2.9-1.7-5.2-5.8-5.2-9.3V48.5c0-3.6,1.7-6.5,4.6-8c0.1-0.1,0.2-0.1,0.3-0.2l6.3-3.6
			c1.8-1,3.7-1.5,5.5-1.5c-1.5-2.9-2.4-6.2-2.4-9.1c0-4,1.6-7,4.4-8.1l6.8-3.8c0,0,0.1,0,0.1-0.1c2.7-1.3,5.2-1.1,7.9,0.4
			c5.3,3,9.5,10.5,9.5,16.9c0,3.6-1.5,6.4-4.2,8l-6.2,3.5l16,9.2c4.8,2.8,8.6,9.6,8.6,15.5v38.8c0,2.8-1.4,4-2.8,4.9l-7.1,4
			c-0.7,0.5-1.5,0.7-2.3,0.7V141c0,0.7-0.4,1.3-0.9,1.6l-16.3,9.6c-0.5,0.3-1,0.3-1.5,0.2l-3.7,2.1c-0.1,0.1-0.3,0.1-0.4,0.2
			C99.6,154.8,99,154.9,98.5,154.9z M92.5,87.8c0.3,0,0.7,0.1,1,0.3c0.6,0.3,0.9,1,0.9,1.6v55.1c0,2.4,1.8,5.4,3.6,6.2
			c0.1,0,0.4,0.2,0.6,0.1c0.1,0,0.2-0.1,0.2-0.1l4.9-2.7c0.4-0.2,0.9-0.3,1.4-0.2l13.9-8.2v-26.4c0-0.7,0.4-1.3,1-1.7
			c0.6-0.3,1.3-0.3,1.9,0.1c0,0,0.1,0.1,0.2,0.1c0.5,0.3,0.8,0.3,1,0.2c0.1,0,0.1-0.1,0.2-0.1l7.1-4c0.8-0.5,1-0.7,1-1.6V67.7
			c0-4.5-3.1-10.1-6.7-12.2l0,0l-19.8-11.4c-0.8-0.4-1.1-1.4-0.9-2.2c0.3-0.9,1.1-1.4,2-1.3c0.6,0.1,1.1,0,1.5-0.2
			c0.1,0,0.2-0.1,0.3-0.1l7.1-4c1.5-0.9,2.3-2.5,2.3-4.7c0-5.1-3.5-11.3-7.5-13.7c-1.8-1-3-0.9-4.3-0.3l-6.8,3.8
			c-0.1,0-0.2,0.1-0.3,0.1c-1.3,0.5-2.1,2.2-2.1,4.6c0,3.8,2,8.5,4.9,11.5c0.7,0.7,0.7,1.7,0.1,2.5s-1.6,0.9-2.4,0.5l-1.6-0.9
			c-1-0.6-3.2-1.3-6,0.3l-5.9,3.4c-0.2,0.2-0.3,0.3-0.5,0.4c-1.8,0.7-2.7,2.4-2.7,4.7v36.3c0,2.2,1.5,5,3.3,6c0.5,0.3,0.8,0.3,1,0.3
			c0,0,0,0,0,0c0.1,0,0.2-0.1,0.2-0.2l5.1-2.9C91.8,87.9,92.2,87.8,92.5,87.8z"/>
	</g>
	<g>
		<path class="st11" d="M115.8,38l-7.5,4.3l-8-13.8l-3-8.3l7.2-4c1.8-0.8,3.7-1.1,6.1,0.3c4.7,2.7,8.5,9.5,8.5,15.3
			C119.1,35,117.6,36.9,115.8,38z"/>
		<path class="st10" d="M108.3,42.7c-0.2,0-0.3-0.1-0.4-0.2l-8-13.8l-3.1-8.4c-0.1-0.2,0-0.5,0.2-0.6l7.2-4c2.3-1.1,4.3-1,6.6,0.3
			c4.8,2.8,8.8,9.8,8.8,15.7c0,3.9-1.9,5.8-3.5,6.8c0,0,0,0,0,0l-7.5,4.3C108.5,42.7,108.4,42.7,108.3,42.7z M97.8,20.3l2.9,7.9
			l7.7,13.3l7.1-4c2-1.2,3-3.2,3-5.9c0-5.6-3.7-12.3-8.2-14.9c-2-1.1-3.7-1.2-5.7-0.3L97.8,20.3z M115.8,38L115.8,38L115.8,38z"/>
	</g>
	<g>
		<path class="st11" d="M93.8,89c1.8,0.4,2.6-1.2,2.6-3.6V58.2c0-1.3,0.8-1.8,1.9-1.2c1.1,0.7,2.1,2.3,2.1,3.7v69.5l-0.6-0.1
			l-4.2,12.5l4,12.1l7.7-4.3l0.2,0.5l13.6-8v-40.4l2.9,11.4l7.4-4.2c1.1-0.7,1.9-1.4,1.9-3.2V67.7c0-5.2-3.5-11.4-7.7-13.8
			l-12.7-7.3l-4.7-2.7l-10.1-5.8c-1.9-1.1-4.7-1.5-7.9,0.3S83.9,42,83.9,42l2.9,50.9L93.8,89z M121,72.7c0-1.4,0.9-2,2.1-1.4
			c0.9,0.5,1.6,1.8,1.6,3V94l-3.7,0.7V72.7z M108.8,95.8c0-1.2,0.8-1.7,1.8-1.2c1.1,0.6,1.9,2.2,1.9,3.5v34.7l-3.7-0.8V95.8z"/>
		<path class="st10" d="M99.5,155.2c-0.1,0-0.1,0-0.2,0c-0.1-0.1-0.2-0.2-0.3-0.3l-4-12.1c0-0.1,0-0.2,0-0.3l4.2-12.5
			c0.1-0.2,0.3-0.4,0.5-0.3V60.7c0-1.2-0.8-2.7-1.8-3.3c-0.3-0.2-0.6-0.2-0.8-0.1c-0.2,0.1-0.3,0.5-0.3,0.9v27.1
			c0,1.8-0.4,3.1-1.2,3.8c-0.3,0.3-0.9,0.5-1.8,0.4l-6.7,3.8c-0.2,0.1-0.3,0.1-0.5,0c-0.2-0.1-0.2-0.2-0.3-0.4L83.4,42
			c0-0.2,0.1-0.4,0.3-0.5L90,38c3.9-2.2,6.9-1.1,8.4-0.3l27.5,15.8c4.4,2.5,7.9,8.9,7.9,14.2v38.8c0,2-0.8,2.9-2.2,3.7l-7.4,4.2
			c-0.1,0.1-0.3,0.1-0.4,0c-0.1-0.1-0.2-0.2-0.3-0.3l-2-7.6v35.9c0,0.2-0.1,0.3-0.2,0.4l-13.6,8c-0.1,0.1-0.3,0.1-0.4,0
			c-0.1,0-0.2-0.1-0.3-0.2l-7.2,4.5C99.7,155.2,99.6,155.2,99.5,155.2z M96,142.6l3.8,11.4l7.2-4.5c0.1-0.1,0.3-0.1,0.4,0
			c0.1,0,0.2,0.1,0.3,0.2l12.9-7.5v-39.6c0-0.3,0.2-0.5,0.4-0.5c0.2,0,0.5,0.1,0.5,0.4l2.8,10.8l6.8-3.9c1.1-0.7,1.7-1.3,1.7-2.8
			V67.7c0-5-3.3-11-7.4-13.4L97.9,38.6c-1.3-0.7-4-1.7-7.4,0.3l-6,3.4L87.3,92l6.2-3.5c0.1-0.1,0.2-0.1,0.4,0
			c0.5,0.1,0.8,0.1,1.1-0.2c0.5-0.4,0.9-1.5,0.9-3V58.2c0-0.8,0.3-1.4,0.8-1.8c0.5-0.3,1.1-0.3,1.8,0.1c1.3,0.8,2.3,2.6,2.3,4.2
			v69.5c0,0.2-0.1,0.3-0.2,0.4c-0.1,0.1-0.3,0.1-0.4,0.1l-0.1,0L96,142.6z M112.5,133.3c0,0-0.1,0-0.1,0l-3.7-0.8
			c-0.2,0-0.4-0.3-0.4-0.5V95.8c0-0.8,0.3-1.4,0.8-1.7c0.5-0.3,1.1-0.2,1.7,0.1c1.2,0.7,2.2,2.4,2.2,3.9v34.7c0,0.2-0.1,0.3-0.2,0.4
			C112.8,133.3,112.7,133.3,112.5,133.3z M109.3,131.6l2.7,0.6V98.1c0-1.1-0.8-2.5-1.7-3c-0.3-0.2-0.6-0.2-0.7-0.1
			c-0.2,0.1-0.3,0.4-0.3,0.9V131.6z M121,95.1c-0.1,0-0.2,0-0.3-0.1c-0.1-0.1-0.2-0.2-0.2-0.4v-22c0-0.9,0.3-1.6,0.9-1.9
			c0.6-0.3,1.2-0.3,1.9,0.1c1.1,0.6,1.9,2.1,1.9,3.4V94c0,0.2-0.2,0.5-0.4,0.5L121,95.1C121.1,95.1,121.1,95.1,121,95.1z
			 M122.2,71.5c-0.1,0-0.2,0-0.3,0.1c-0.3,0.2-0.4,0.5-0.4,1.1V94l2.7-0.5V74.3c0-0.9-0.6-2.1-1.4-2.5
			C122.7,71.6,122.4,71.5,122.2,71.5z"/>
	</g>
	<g>
		<path class="st1" d="M84.3,92.4L84.3,92.4c2.3,1.3,4.3,0.1,4.3-2.8V62.5c0-1.3,0.8-1.8,1.9-1.2c1.1,0.7,2.1,2.3,2.1,3.7v81.2
			c0,3.1,2.2,6.9,4.8,7.9c2.1,0.9,3.7-0.6,3.7-3.2v-48.2c0-1.2,0.8-1.7,1.8-1.2c1.1,0.6,1.9,2.2,1.9,3.5V152l8.5-5V77
			c0-1.4,0.9-2,2.1-1.4c0.9,0.5,1.6,1.8,1.6,3V106c0,2.9,1.9,6.3,4.3,7.6h0c2.3,1.3,4.3,0.1,4.3-2.8V72.1c0-5.2-3.5-11.4-7.7-13.8
			L105.1,51l-4.7-2.7l-10.1-5.8c-4.2-2.4-10.3-0.4-10.3,6v36.3C80,87.6,82,91.1,84.3,92.4z"/>
		<path class="st10" d="M98.5,155c-0.4,0-0.9-0.1-1.4-0.3c-2.7-1.1-5.1-5-5.1-8.4V65.1c0-1.2-0.8-2.7-1.8-3.3
			c-0.3-0.2-0.6-0.2-0.8-0.1c-0.2,0.1-0.3,0.5-0.3,0.9v27.1c0,1.6-0.6,2.9-1.6,3.5c-1,0.6-2.2,0.5-3.4-0.3l0,0
			c-2.5-1.4-4.5-5.1-4.5-8.1V48.5c0-2.9,1.2-5.2,3.4-6.5c2.2-1.3,5.2-1.3,7.6,0.1L118,57.8c4.4,2.5,7.9,8.9,7.9,14.2v38.8
			c0,1.6-0.6,2.9-1.6,3.5c-1,0.6-2.2,0.5-3.4-0.2c-2.5-1.4-4.5-5.1-4.5-8.1V78.6c0-0.9-0.6-2.1-1.4-2.5c-0.4-0.2-0.7-0.3-0.9-0.1
			c-0.3,0.2-0.4,0.5-0.4,1.1v70c0,0.2-0.1,0.3-0.2,0.4l-8.5,5c-0.2,0.1-0.3,0.1-0.5,0c-0.2-0.1-0.3-0.3-0.3-0.4v-46.9
			c0-1.1-0.8-2.5-1.7-3c-0.3-0.2-0.6-0.2-0.7-0.1c-0.2,0.1-0.3,0.4-0.3,0.9V151c0,1.6-0.6,2.9-1.5,3.6C99.5,154.8,99,155,98.5,155z
			 M89.6,60.6c0.3,0,0.7,0.1,1,0.3c1.3,0.8,2.3,2.6,2.3,4.2v81.2c0,2.9,2.2,6.5,4.5,7.5c0.7,0.3,1.4,0.3,1.9-0.1
			c0.7-0.5,1.1-1.4,1.1-2.7v-48.2c0-0.8,0.3-1.4,0.8-1.7c0.5-0.3,1.1-0.2,1.7,0.1c1.2,0.7,2.2,2.4,2.2,3.9v46l7.5-4.4V77
			c0-0.9,0.3-1.6,0.9-1.9c0.6-0.3,1.2-0.3,1.9,0.1c1.1,0.6,1.9,2.1,1.9,3.4V106c0,2.7,1.8,6,4,7.2c0.9,0.5,1.8,0.6,2.4,0.3
			c0.7-0.4,1.1-1.3,1.1-2.6V72.1c0-5-3.3-11-7.4-13.4L90.1,42.9c-2.1-1.2-4.7-1.2-6.6-0.1c-1.9,1.1-2.9,3.1-2.9,5.7v36.3
			c0,2.7,1.8,6,4,7.2l0,0c0.9,0.5,1.8,0.6,2.4,0.3c0.7-0.4,1.1-1.3,1.1-2.6V62.5c0-0.8,0.3-1.4,0.8-1.8
			C89.1,60.7,89.4,60.6,89.6,60.6z"/>
	</g>
	<g>
		
			<ellipse transform="matrix(0.8906 -0.4548 0.4548 0.8906 -2.8923 50.1312)" class="st1" cx="102.8" cy="31.1" rx="7.1" ry="12.4"/>
		<path class="st10" d="M106.4,43.1c-1.2,0-2.5-0.4-3.9-1.2c-4.8-2.8-8.8-9.8-8.8-15.7c0-3.1,1-5.4,2.9-6.5c1.7-1,4-0.8,6.3,0.5
			c4.8,2.8,8.8,9.8,8.8,15.7c0,3.1-1,5.4-2.9,6.5C108.1,42.9,107.3,43.1,106.4,43.1z M99.2,20.1c-0.7,0-1.4,0.2-2,0.5
			c-1.5,0.9-2.4,2.9-2.4,5.6c0,5.6,3.7,12.3,8.2,14.9c2,1.2,3.9,1.3,5.3,0.5c1.5-0.9,2.4-2.9,2.4-5.6c0-5.6-3.7-12.3-8.2-14.9
			C101.3,20.4,100.2,20.1,99.2,20.1z"/>
	</g>
	<g>
		<path class="st1" d="M106.6,89.3L93.9,82l-4.7-2.7l-2.5-1.4c0.9,0.1,1.8,0,2.5-0.4l0,0l7.5-4.3c1.8-1,3.3-3,3.3-6.3
			c0-5.8-3.8-12.6-8.5-15.3c-2.4-1.4-4.3-1.2-6.1-0.3l-6.9,3.9c-2,0.7-3.3,3-3.3,6.3c0,4.4,2.3,9.5,5.5,12.9l-1.6-0.9
			c-1.9-1.1-4.7-1.5-7.9,0.3c-3.2,1.8-6.3,3.6-6.3,3.6l0,0.1c-2.2,0.9-3.9,3.1-3.9,6.4v36.3c0,2.9,1.9,6.3,4.3,7.6v0
			c1,0.6,1.9,0.7,2.6,0.4l0,0l0,0c0.2-0.1,0.3-0.2,0.5-0.3l5.1-2.9v30.4l7.8,4.4l0,0l3.8,2.2l0.6-0.3v0l8.5-5l0,0l7.8-4.6v-6.2
			c0.1,0,0.1,0.1,0.2,0.1v0c1.2,0.7,2.3,0.7,3.1,0.1l7.1-4c1.1-0.7,1.9-1.4,1.9-3.2v-35.8C114.3,97.9,110.8,91.7,106.6,89.3z"/>
		<path class="st12" d="M85.1,163.7c-0.3,0-0.6-0.1-0.9-0.2l-11.7-6.6c-0.6-0.3-1-1-1-1.7v-26.9l-2.2,1.2c-0.2,0.2-0.5,0.3-0.8,0.4
			c0,0-0.1,0-0.1,0.1c-1.3,0.5-2.8,0.3-4.2-0.5c-2.9-1.7-5.2-5.8-5.2-9.3V83.8c0-3.6,1.7-6.5,4.6-8c0.1-0.1,0.2-0.1,0.3-0.2l6.3-3.6
			c1.8-1,3.7-1.5,5.5-1.5c-1.5-2.9-2.4-6.2-2.4-9.1c0-4,1.6-7,4.4-8.1l6.8-3.8c0,0,0.1,0,0.1-0.1c2.7-1.3,5.2-1.1,7.9,0.4
			c5.3,3,9.5,10.5,9.5,16.9c0,3.6-1.5,6.4-4.2,8l-6.2,3.5l16,9.2c4.8,2.8,8.6,9.6,8.6,15.5v35.8c0,2.8-1.4,4-2.8,4.9l-7.1,4
			c-0.7,0.5-1.5,0.7-2.3,0.7v3.5c0,0.7-0.4,1.3-0.9,1.6l-16.9,9.9C85.8,163.6,85.4,163.7,85.1,163.7z M75.4,154.1l9.7,5.5l15-8.8v-5
			c0-0.7,0.4-1.3,1-1.7c0.6-0.3,1.3-0.3,1.9,0.1c0,0,0.1,0.1,0.2,0.1c0.5,0.3,0.8,0.3,1,0.2c0,0,0.1-0.1,0.2-0.1l7.1-4
			c0.8-0.5,1-0.7,1-1.6v-35.8c0-4.5-3.1-10.1-6.7-12.2l0,0L85.8,79.5c-0.8-0.4-1.1-1.4-0.9-2.2c0.3-0.9,1.1-1.4,2-1.3
			c0.6,0.1,1.1,0,1.5-0.2c0.1,0,0.2-0.1,0.3-0.1l7.1-4c1.5-0.9,2.3-2.5,2.3-4.7c0-5.1-3.5-11.3-7.5-13.7c-1.8-1-3-0.9-4.3-0.3
			l-6.8,3.8c-0.1,0-0.2,0.1-0.3,0.1c-1.3,0.5-2.1,2.2-2.1,4.6c0,3.8,2,8.5,4.9,11.5c0.7,0.7,0.7,1.7,0.1,2.5
			c-0.6,0.7-1.6,0.9-2.4,0.5l-1.6-0.9c-1-0.6-3.2-1.3-6,0.3l-5.9,3.4c-0.2,0.2-0.3,0.3-0.5,0.4c-1.8,0.7-2.7,2.4-2.7,4.7v36.3
			c0,2.2,1.5,5,3.3,6c0.5,0.3,0.8,0.3,1,0.3c0,0,0,0,0,0c0.1,0,0.2-0.1,0.2-0.2l5.1-2.9c0.6-0.3,1.3-0.3,1.9,0
			c0.6,0.3,0.9,1,0.9,1.6V154.1z"/>
	</g>
	<g>
		<path class="st13" d="M74.7,124.3c1.8,0.4,2.6-1.2,2.6-3.6V93.5c0-1.3,0.8-1.8,1.9-1.2c1.1,0.7,2.1,2.3,2.1,3.7v65.1l3.8,2.2
			l4.7-2.7v-29.5c0-1.2,0.8-1.7,1.8-1.2c1.1,0.6,1.9,2.2,1.9,3.5v25l8.5-5v-15.6l2.9,8.4l7.4-4.2c1.1-0.7,1.9-1.4,1.9-3.2v-35.8
			c0-5.2-3.5-11.4-7.7-13.8L93.9,82l-4.7-2.7l-10.1-5.8c-1.9-1.1-4.7-1.5-7.9,0.3c-3.2,1.8-6.3,3.6-6.3,3.6l2.9,50.9L74.7,124.3z
			 M102,108c0-1.4,0.9-2,2.1-1.4c0.9,0.5,1.6,1.8,1.6,3v19.7L102,130V108z"/>
		<path class="st12" d="M85.1,163.9c-0.1,0-0.2,0-0.2-0.1l-3.8-2.2c-0.2-0.1-0.3-0.3-0.3-0.4V96.1c0-1.2-0.8-2.7-1.8-3.3
			c-0.3-0.2-0.6-0.2-0.8-0.1c-0.2,0.1-0.3,0.5-0.3,0.9v27.1c0,1.8-0.4,3.1-1.2,3.8c-0.3,0.3-0.9,0.5-1.8,0.4l-6.7,3.8
			c-0.2,0.1-0.3,0.1-0.5,0c-0.2-0.1-0.2-0.2-0.3-0.4l-2.9-50.9c0-0.2,0.1-0.4,0.3-0.5l6.3-3.6c3.9-2.2,6.9-1.1,8.4-0.3l27.5,15.8
			c4.4,2.5,7.9,8.9,7.9,14.2v35.8c0,2-0.8,2.9-2.2,3.7l-7.4,4.2c-0.1,0.1-0.3,0.1-0.4,0c-0.1-0.1-0.2-0.2-0.3-0.3l-2-5.6v12.7
			c0,0.2-0.1,0.3-0.2,0.4l-8.5,5c-0.2,0.1-0.3,0.1-0.5,0c-0.2-0.1-0.3-0.3-0.3-0.4v-25c0-1.1-0.8-2.5-1.7-3
			c-0.3-0.2-0.6-0.2-0.7-0.1c-0.2,0.1-0.3,0.4-0.3,0.9v29.5c0,0.2-0.1,0.3-0.2,0.4l-4.7,2.7C85.3,163.9,85.2,163.9,85.1,163.9z
			 M81.8,160.9l3.3,1.9l4.2-2.4v-29.2c0-0.8,0.3-1.4,0.8-1.7c0.5-0.3,1.1-0.2,1.7,0.1c1.2,0.7,2.2,2.4,2.2,3.9v24.1l7.5-4.4v-15.3
			c0-0.2,0.2-0.5,0.4-0.5c0.2,0,0.5,0.1,0.6,0.3l2.7,7.8l6.9-3.9c1.1-0.7,1.7-1.3,1.7-2.8v-35.8c0-5-3.3-11-7.4-13.4L78.9,73.9
			c-1.3-0.7-4-1.7-7.4,0.3l-6,3.4l2.9,49.7l6.2-3.5c0.1-0.1,0.2-0.1,0.4,0c0.5,0.1,0.8,0.1,1.1-0.2c0.5-0.4,0.9-1.5,0.9-3V93.5
			c0-0.8,0.3-1.4,0.8-1.8c0.5-0.3,1.1-0.3,1.8,0.1c1.3,0.8,2.3,2.6,2.3,4.2V160.9z M102,130.5c-0.1,0-0.2,0-0.3-0.1
			c-0.1-0.1-0.2-0.2-0.2-0.4v-22c0-0.9,0.3-1.6,0.9-1.9c0.6-0.3,1.2-0.3,1.9,0.1c1.1,0.6,1.9,2.1,1.9,3.4v19.7
			c0,0.2-0.2,0.5-0.4,0.5L102,130.5C102.1,130.5,102,130.5,102,130.5z M103.2,106.9c-0.1,0-0.2,0-0.3,0.1c-0.3,0.2-0.4,0.5-0.4,1.1
			v21.4l2.7-0.5v-19.3c0-0.9-0.6-2.1-1.4-2.5C103.6,106.9,103.4,106.9,103.2,106.9z"/>
	</g>
	<g>
		<path class="st13" d="M96.8,73.3l-7.5,4.3l-8-13.8l-3-8.3l7.2-4c1.8-0.8,3.7-1.1,6.1,0.3c4.7,2.7,8.5,9.5,8.5,15.3
			C100,70.3,98.6,72.2,96.8,73.3z"/>
		<path class="st12" d="M89.3,78c-0.2,0-0.3-0.1-0.4-0.2l-8-13.8l-3.1-8.4c-0.1-0.2,0-0.5,0.2-0.6l7.2-4c2.3-1.1,4.3-1,6.6,0.3
			c4.8,2.8,8.8,9.8,8.8,15.7c0,3.9-1.9,5.8-3.5,6.8c0,0,0,0,0,0L89.5,78C89.4,78,89.4,78,89.3,78z M78.8,55.6l2.9,7.9l7.7,13.3
			l7.1-4c2-1.2,3-3.2,3-5.9c0-5.6-3.7-12.3-8.2-14.9c-2-1.1-3.7-1.2-5.7-0.3L78.8,55.6z M96.8,73.3L96.8,73.3L96.8,73.3z"/>
	</g>
	<g>
		
			<ellipse transform="matrix(0.8906 -0.4548 0.4548 0.8906 -21.0445 45.3437)" class="st1" cx="83.7" cy="66.4" rx="7.1" ry="12.4"/>
		<path class="st12" d="M87.3,78.4c-1.2,0-2.5-0.4-3.9-1.2l0,0c-4.8-2.8-8.8-9.8-8.8-15.7c0-3.1,1-5.4,2.9-6.5c1.7-1,4-0.8,6.3,0.5
			c4.8,2.8,8.8,9.8,8.8,15.7c0,3.1-1,5.4-2.9,6.5C89.1,78.2,88.2,78.4,87.3,78.4z M80.1,55.4c-0.7,0-1.4,0.2-2,0.5
			c-1.5,0.9-2.4,2.9-2.4,5.6c0,5.6,3.7,12.3,8.2,14.9l0,0c2,1.2,3.9,1.3,5.3,0.5c1.5-0.9,2.4-2.9,2.4-5.6c0-5.6-3.7-12.3-8.2-14.9
			C82.3,55.8,81.2,55.4,80.1,55.4z"/>
	</g>
	<g>
		<path class="st1" d="M65.3,127.8L65.3,127.8c2.3,1.3,4.3,0.1,4.3-2.8V97.9c0-1.3,0.8-1.8,1.9-1.2c1.1,0.7,2.1,2.3,2.1,3.7v56.4
			l8.5,4.8v-23.5c0-1.2,0.8-1.7,1.8-1.2c1.1,0.6,1.9,2.2,1.9,3.5v22.6l8.5-5v-45.7c0-1.4,0.9-2,2.1-1.4c0.9,0.5,1.6,1.8,1.6,3v24.4
			c0,2.9,1.9,6.3,4.3,7.6v0c2.3,1.3,4.3,0.1,4.3-2.8v-35.8c0-5.2-3.5-11.4-7.7-13.8l-12.7-7.3l-4.7-2.7l-10.1-5.8
			c-4.2-2.4-10.3-0.4-10.3,6v36.3C61,123,62.9,126.4,65.3,127.8z"/>
		<path class="st12" d="M85.7,163.6c-0.1,0-0.2,0-0.2-0.1c-0.2-0.1-0.3-0.3-0.3-0.4v-22.6c0-1.1-0.8-2.5-1.7-3
			c-0.3-0.2-0.6-0.2-0.7-0.1c-0.2,0.1-0.3,0.4-0.3,0.9v23.5c0,0.2-0.1,0.3-0.2,0.4c-0.2,0.1-0.3,0.1-0.5,0l-8.5-4.8
			c-0.2-0.1-0.3-0.3-0.3-0.4v-56.4c0-1.2-0.8-2.7-1.8-3.3c-0.3-0.2-0.6-0.2-0.8-0.1c-0.2,0.1-0.3,0.5-0.3,0.9V125
			c0,1.6-0.6,2.9-1.6,3.5c-1,0.6-2.2,0.5-3.4-0.3c-2.5-1.4-4.5-5.1-4.5-8.1V83.8c0-2.9,1.2-5.2,3.4-6.5c2.2-1.3,5.2-1.3,7.6,0.1
			L99,93.2c4.4,2.5,7.9,8.9,7.9,14.2v35.8c0,1.6-0.6,2.9-1.6,3.5c-1,0.6-2.2,0.5-3.4-0.3c-2.5-1.4-4.5-5.1-4.5-8.1v-24.4
			c0-0.9-0.6-2.1-1.4-2.5c-0.4-0.2-0.7-0.3-0.9-0.1c-0.3,0.2-0.4,0.5-0.4,1.1v45.7c0,0.2-0.1,0.3-0.2,0.4l-8.5,5
			C85.9,163.5,85.8,163.6,85.7,163.6z M83,136.2c0.3,0,0.7,0.1,1,0.3c1.2,0.7,2.2,2.4,2.2,3.9v21.8l7.5-4.4v-45.5
			c0-0.9,0.3-1.6,0.9-1.9c0.6-0.3,1.2-0.3,1.9,0.1c1.1,0.6,1.9,2.1,1.9,3.4v24.4c0,2.7,1.8,6,4,7.2c0.9,0.5,1.8,0.6,2.4,0.3
			c0.7-0.4,1.1-1.3,1.1-2.6v-35.8c0-5-3.3-11-7.4-13.4L71,78.3c-2.1-1.2-4.7-1.2-6.6-0.1c-1.9,1.1-2.9,3.1-2.9,5.7v36.3
			c0,2.7,1.8,6,4,7.2c0.9,0.5,1.8,0.6,2.4,0.3c0.7-0.4,1.1-1.3,1.1-2.6V97.9c0-0.8,0.3-1.4,0.8-1.8c0.5-0.3,1.1-0.3,1.8,0.1
			c1.3,0.8,2.3,2.6,2.3,4.2v56.1l7.5,4.2v-22.6c0-0.8,0.3-1.4,0.8-1.7C82.5,136.3,82.7,136.2,83,136.2z"/>
	</g>
	<g>
		<path class="st1" d="M87.9,125.2l-12.7-7.3l-4.7-2.7l-2.5-1.4c0.9,0.1,1.8,0,2.5-0.4l0,0l7.5-4.3c1.8-1,3.3-3,3.3-6.3
			c0-5.8-3.8-12.6-8.5-15.3c-2.4-1.4-4.3-1.2-6.1-0.3l-6.9,3.9c-2,0.7-3.3,3-3.3,6.3c0,4.4,2.3,9.5,5.5,12.9l-1.6-0.9
			c-1.9-1.1-4.7-1.5-7.9,0.3s-6.3,3.6-6.3,3.6l0,0.1c-2.2,0.9-3.9,3.1-3.9,6.4v17.4l5.6,3.2l0,0l10.7,6.1l0,0l16.9,9.5v0l3.7,2.1
			l0,0l5.9,3.3l1.9-1.1v0l8.5-5V139C95.5,133.9,92.1,127.7,87.9,125.2z"/>
		<path class="st14" d="M85.1,163.3c-0.3,0-0.6-0.1-0.9-0.2l-42.8-24.2c-0.6-0.3-1-1-1-1.7v-17.4c0-3.6,1.7-6.5,4.6-8
			c0.1-0.1,0.2-0.1,0.3-0.2l6.3-3.6c1.8-1,3.7-1.5,5.5-1.5c-1.5-2.9-2.4-6.2-2.4-9.1c0-4,1.6-7,4.4-8.1l6.8-3.8c0,0,0.1,0,0.1-0.1
			c2.7-1.3,5.2-1.1,7.9,0.4c5.3,3,9.5,10.5,9.5,16.9c0,3.6-1.5,6.4-4.2,8l-6.2,3.5l16,9.2l0,0c4.8,2.8,8.6,9.6,8.6,15.5v16.3
			c0,0.7-0.4,1.3-0.9,1.6l-10.4,6.1C85.8,163.2,85.4,163.3,85.1,163.3z M44.2,136.1l40.9,23.2l8.5-5V139c0-4.5-3.1-10.1-6.7-12.2
			l-19.8-11.4c-0.8-0.4-1.1-1.4-0.9-2.2s1.1-1.4,2-1.3c0.6,0.1,1.1,0,1.5-0.2c0.1,0,0.2-0.1,0.3-0.1l7.1-4c1.5-0.9,2.3-2.5,2.3-4.7
			c0-5.1-3.5-11.3-7.5-13.7c-1.8-1-3-0.9-4.3-0.3l-6.8,3.8c-0.1,0-0.2,0.1-0.3,0.1c-1.3,0.5-2.1,2.2-2.1,4.6c0,3.8,2,8.5,4.9,11.5
			c0.7,0.7,0.7,1.7,0.1,2.5s-1.6,0.9-2.4,0.5l-1.6-0.9c-1-0.6-3.2-1.3-6,0.3l-5.9,3.4c-0.2,0.2-0.3,0.3-0.5,0.4
			c-1.8,0.7-2.7,2.4-2.7,4.7V136.1z"/>
	</g>
	<g>
		<path class="st15" d="M78.1,109.3l-7.5,4.3l-8-13.8l-3-8.3l7.2-4c1.8-0.8,3.7-1.1,6.1,0.3c4.7,2.7,8.5,9.5,8.5,15.3
			C81.3,106.3,79.9,108.2,78.1,109.3z"/>
		<path class="st14" d="M70.6,114c-0.2,0-0.3-0.1-0.4-0.2l-8-13.8L59,91.5c-0.1-0.2,0-0.5,0.2-0.6l7.2-4c2.3-1.1,4.3-1,6.6,0.3
			c4.8,2.8,8.8,9.8,8.8,15.7c0,3.9-1.9,5.8-3.5,6.8c0,0,0,0,0,0l-7.5,4.3C70.7,114,70.6,114,70.6,114z M60.1,91.6l2.9,7.9l7.7,13.3
			l7.1-4c2-1.2,3-3.2,3-5.9c0-5.6-3.7-12.3-8.2-14.9c-2-1.1-3.7-1.2-5.7-0.3L60.1,91.6z M78.1,109.3L78.1,109.3L78.1,109.3z"/>
	</g>
	<g>
		<path class="st15" d="M58.6,148.4v-18.9c0-1.3,0.8-1.8,1.9-1.2c1.1,0.7,2.1,2.3,2.1,3.7v18.6l20.7,11.7V144c0-1.4,0.9-2,2.1-1.4
			c0.9,0.5,1.6,1.8,1.6,3v16.7l8.5-5V139c0-5.2-3.5-11.4-7.7-13.8l-12.7-7.3l-4.7-2.7l-10.1-5.8c-1.9-1.1-4.7-1.5-7.9,0.3
			s-6.3,3.6-6.3,3.6l1.7,29L58.6,148.4z"/>
		<path class="st14" d="M83.3,162.9c-0.1,0-0.2,0-0.2-0.1l-20.7-11.7c-0.2-0.1-0.3-0.3-0.3-0.4v-18.6c0-1.2-0.8-2.7-1.8-3.3
			c-0.3-0.2-0.6-0.2-0.8-0.1c-0.2,0.1-0.3,0.5-0.3,0.9v18.9c0,0.2-0.1,0.3-0.2,0.4c-0.2,0.1-0.3,0.1-0.5,0l-10.7-6.1
			c-0.1-0.1-0.2-0.2-0.3-0.4l-1.7-29c0-0.2,0.1-0.4,0.3-0.5l6.3-3.6c2.8-1.6,5.9-1.7,8.4-0.3l27.5,15.8c4.4,2.5,7.9,8.9,7.9,14.2
			v18.3c0,0.2-0.1,0.3-0.2,0.4l-8.5,5c-0.2,0.1-0.3,0.1-0.5,0s-0.3-0.3-0.3-0.4v-16.7c0-0.9-0.6-2.1-1.4-2.5
			c-0.4-0.2-0.7-0.3-0.9-0.1c-0.3,0.2-0.4,0.5-0.4,1.1v18.4c0,0.2-0.1,0.3-0.2,0.4C83.5,162.9,83.4,162.9,83.3,162.9z M63.1,150.3
			l19.7,11.2V144c0-0.9,0.3-1.6,0.9-1.9c0.6-0.3,1.2-0.3,1.9,0.1c1.1,0.6,1.9,2.1,1.9,3.4v15.8L95,157v-18c0-5-3.3-11-7.4-13.4
			l-27.5-15.8c-1.3-0.7-4-1.7-7.4,0.3l-6,3.4l1.6,28.5l9.8,5.5v-18c0-0.8,0.3-1.4,0.8-1.8c0.5-0.3,1.1-0.3,1.8,0.1
			c1.3,0.8,2.3,2.6,2.3,4.2V150.3z"/>
	</g>
	<g>
		<ellipse transform="matrix(0.8906 -0.4548 0.4548 0.8906 -39.4496 40.7685)" class="st1" cx="65" cy="102.4" rx="7.1" ry="12.4"/>
		<path class="st14" d="M68.6,114.4c-1.2,0-2.5-0.4-3.9-1.2c-4.8-2.8-8.8-9.8-8.8-15.7c0-3.1,1-5.4,2.9-6.5c1.7-1,4-0.8,6.3,0.5
			c4.8,2.8,8.8,9.8,8.8,15.7c0,3.1-1,5.4-2.9,6.5C70.3,114.2,69.5,114.4,68.6,114.4z M61.4,91.4c-0.7,0-1.4,0.2-2,0.5
			c-1.5,0.9-2.4,2.9-2.4,5.6c0,5.6,3.7,12.3,8.2,14.9c2,1.2,3.9,1.3,5.3,0.5c1.5-0.9,2.4-2.9,2.4-5.6c0-5.6-3.7-12.3-8.2-14.9
			C63.6,91.7,62.4,91.4,61.4,91.4z"/>
	</g>
	<g>
		<path class="st1" d="M50.8,144v-10.1c0-1.3,0.8-1.8,1.9-1.2c1.1,0.7,2.1,2.3,2.1,3.7v9.8L75.5,158v-9.6c0-1.4,0.9-2,2.1-1.4
			c0.9,0.5,1.6,1.8,1.6,3v10.2l5.9,3.3l2.6-1.5v-18.5c0-5.2-3.5-11.4-7.7-13.8l-12.7-7.3l-4.7-2.7l-10.1-5.8
			c-4.2-2.4-10.3-0.4-10.3,6v19.4L50.8,144z"/>
		<path class="st14" d="M85.1,163.9c-0.1,0-0.2,0-0.2-0.1l-5.9-3.3c-0.2-0.1-0.3-0.3-0.3-0.4v-10.2c0-0.9-0.6-2.1-1.4-2.5
			c-0.4-0.2-0.7-0.3-0.9-0.1c-0.3,0.2-0.4,0.5-0.4,1.1v9.6c0,0.2-0.1,0.3-0.2,0.4c-0.2,0.1-0.3,0.1-0.5,0l-20.7-11.7
			c-0.2-0.1-0.3-0.3-0.3-0.4v-9.8c0-1.2-0.8-2.7-1.8-3.3c-0.3-0.2-0.6-0.2-0.8-0.1c-0.2,0.1-0.3,0.5-0.3,0.9V144
			c0,0.2-0.1,0.3-0.2,0.4c-0.2,0.1-0.3,0.1-0.5,0l-8.5-4.8c-0.2-0.1-0.3-0.3-0.3-0.4v-19.4c0-2.9,1.2-5.2,3.4-6.5
			c2.2-1.3,5.2-1.3,7.6,0.1l27.5,15.8c4.4,2.5,7.9,8.9,7.9,14.2v18.5c0,0.2-0.1,0.3-0.2,0.4l-2.6,1.5
			C85.3,163.9,85.2,163.9,85.1,163.9z M79.7,159.8l5.4,3l2.1-1.2v-18.2c0-5-3.3-11-7.4-13.4l-27.5-15.8c-2.1-1.2-4.7-1.2-6.6-0.1
			c-1.9,1.1-2.9,3.1-2.9,5.7v19.1l7.5,4.2v-9.3c0-0.8,0.3-1.4,0.8-1.8c0.5-0.3,1.1-0.3,1.8,0.1c1.3,0.8,2.3,2.6,2.3,4.2v9.5
			L75,157.1v-8.8c0-0.9,0.3-1.6,0.9-1.9c0.5-0.3,1.2-0.3,1.9,0.1c1.1,0.6,1.9,2.1,1.9,3.4V159.8z"/>
	</g>
	<g>
		<path class="st16" d="M157.8,164.1l11.4-6.5c0.1,0,0.2-0.1,0.2-0.1l0.1,0v0c1-0.7,1.6-1.9,1.6-3.6l0.1-19.7c0-3.9-3.2-9-7.1-11.2
			l-15.4-8.7c-3-1.7-4.6-1.1-6.9,0.3l-9.6,5.5l14.1,21.4L157.8,164.1"/>
	</g>
	<g>
		<path class="st17" d="M129.9,143.5l0.1-19.7c0-3.9,3.3-5.3,7.2-3.1l15.4,8.7c3.9,2.2,7.2,7.3,7.1,11.2l-0.1,19.7
			c0,3.9-3.3,5.3-7.2,3.1l-15.4-8.7C133.1,152.4,129.9,147.4,129.9,143.5"/>
	</g>
	<g>
		<path class="st18" d="M55.9,72.4l10.6-6.1c0.1,0,0.1-0.1,0.2-0.1l0.1,0v0c0.9-0.6,1.5-1.8,1.5-3.3l0.1-18.4c0-3.7-3-8.4-6.6-10.4
			l-14.3-8.1c-2.8-1.6-4.2-1-6.5,0.3l-8.9,5.1l13.1,19.9L55.9,72.4"/>
	</g>
	<g>
		<path class="st12" d="M30,53.3l0.1-18.4c0-3.7,3-5,6.7-2.9l14.3,8.1c3.7,2.1,6.7,6.8,6.6,10.4l-0.1,18.4c0,3.7-3,4.9-6.7,2.9
			l-14.3-8.1C33,61.6,30,56.9,30,53.3"/>
	</g>
	<g>
		<g>
			<ellipse transform="matrix(0.8906 -0.4548 0.4548 0.8906 -3.6699 66.7609)" class="st1" cx="136.9" cy="41" rx="1.9" ry="3.2"/>
		</g>
		<g>
			<path class="st1" d="M139.3,46.6l-0.6-0.4l-1.1-0.6l-2.3-1.3c-1-0.5-2.3-0.1-2.3,1.4v2.8l8,4.7v-3.4
				C141,48.6,140.2,47.2,139.3,46.6z"/>
		</g>
	</g>
	<g>
		<path class="st1" d="M151.7,152l-3.5-5.8c0.7-1.1,1.1-2.6,1.1-4.4c0-4.6-2.9-9.4-6.4-10.6c-3.5-1.2-6.4,1.6-6.4,6.2
			s2.9,9.4,6.4,10.6c1.2,0.4,2.3,0.4,3.3-0.1l3.5,5.9c0.3,0.4,0.6,0.7,0.9,0.8s0.7,0.1,0.9-0.2C152.3,154,152.3,152.9,151.7,152z
			 M139.3,138.4c0-2.7,1.7-4.3,3.7-3.6c2.1,0.7,3.7,3.5,3.7,6.2c0,1.3-0.4,2.4-1.1,3.1c-0.1,0-0.1,0.1-0.2,0.1c0,0,0,0.1-0.1,0.1
			c-0.7,0.5-1.5,0.7-2.4,0.4C141,143.9,139.3,141.1,139.3,138.4z"/>
	</g>
	<g>
		<path class="st1" d="M52.7,51.1c-0.2-1.7-0.7-2.7-2.1-3.7c-0.1-0.1-0.3-0.2-0.4-0.3c-4-2.3-8.1-4.6-12.1-6.9
			c-0.2,0-0.3-0.1-0.5-0.1c-0.3-0.1-0.6,0-0.8,0c-0.5,0.1-0.9,0.5-1.1,1.1c-0.2,0.4-0.3,1-0.3,1.6c0,3.1,0,6.2,0,9.3
			c0,2.1,1.1,4.4,2.7,5.3c3.9,2.3,7.8,4.5,11.8,6.7c0.7,0.4,1.3,0.4,1.7,0.1c0.3-0.1,0.5-0.4,0.7-0.8c0.2-0.3,0.3-0.6,0.4-1.1
			c0-0.1,0-0.1,0.1-0.2c0-3.5,0-7,0-10.5C52.7,51.5,52.7,51.2,52.7,51.1z M44.8,54.2c-0.1,0.1-0.2,0.2-0.4,0.3c-0.3,0-0.7-0.3-1-1.2
			c-1.5-3.5-3.1-7-4.6-10.4c3.6,2,7.2,4.1,10.7,6.1C47.9,50.8,46.3,52.5,44.8,54.2z M50.7,62c-0.2,0-0.5,0-0.7-0.2
			c-1.4-0.8-2.8-1.6-4.2-2.4c-2.4-1.4-4.8-2.7-7.2-4.1c-1-0.6-1.6-1.6-1.6-3c0-2.9,0-5.9,0-8.8c0-0.2,0-0.4,0-0.5
			c0,0.1,0.1,0.1,0.1,0.2c1.7,3.7,3.3,7.5,5,11.2c0.9,2.1,2.2,2.9,3.2,2.3c0.2-0.1,0.3-0.2,0.5-0.4c1.7-1.8,3.3-3.7,5-5.5
			c0,0,0.1-0.1,0.1-0.1c0,0,0.1,0,0.1,0.1c0.1,0.4,0.1,0.8,0.2,1.2c0,3,0,6.1,0,9.1c0,0.3,0,0.5-0.1,0.7
			C50.9,61.8,50.8,61.9,50.7,62z"/>
	</g>
</g>
</svg>
