<svg width="182" height="240" viewBox="0 0 182 240" xmlns="http://www.w3.org/2000/svg"><title>Group 9</title><g fill="none" fill-rule="evenodd"><path d="M162.336 127.234l6.486-3.642c2.347-1.32 4.5-3.505 6.075-5.96 1.553-2.42 2.523-5.05 2.535-7.298l.16-47.265c.004-.86-.14-1.57-.404-2.125-.214-.452-.52-.79-.898-1.01-.044-.023-.09-.053-.133-.08L104.07 18.38c-.093-.04-.182-.093-.27-.148-.476-.225-1.092-.306-1.815-.224-.903.1-1.944.458-3.073 1.094L92.22 22.86V86.89l70.116 40.342zm8.677.257l-7.592 4.263c-.668.37-1.51.392-2.218-.017L88.992 90.19c-.75-.363-1.263-1.127-1.263-2.013V21.732h.004c-.003-.38.097-.767.3-1.12l.103-.18c.197-.37.497-.692.89-.912l7.69-4.318c1.66-.93 3.28-1.467 4.775-1.634 1.663-.187 3.185.08 4.476.762.052.024.103.053.154.08l.126.073-.004.005L178.35 55.97c.105.05.208.106.307.175l.05.034c1.082.665 1.944 1.628 2.532 2.863.538 1.128.83 2.49.823 4.045l-.16 47.265c-.016 3.11-1.252 6.585-3.234 9.674-1.956 3.05-4.667 5.785-7.657 7.464z" fill="#B3B4B4"/><path d="M98.618 63.71l.03-6.277 62.915 38.98 15.85-38.41-72.287-41.59-.126-.07c-1.772-.98-4.34-.788-7.184.81l-7.692 4.316-.15.26V73.35l-8.7 9.823 7.593-4.26c5.338-3 9.725-9.838 9.75-15.2" fill="#FFF"/><path d="M107.08 68.74l.03-6.276.003-.5.423.265 53.936 21.126 15.552-25.254-71.992-41.42-.125-.072c-.85-.47-1.905-.652-3.095-.52-1.163.13-2.456.565-3.816 1.33l-7.622 4.282-.076.13v65.892l7.173-4.028c2.63-1.476 5.027-3.902 6.77-6.617 1.742-2.714 2.828-5.714 2.84-8.34zm.586-5.775l-.027 5.778c-.013 2.733-1.132 5.837-2.927 8.634-1.792 2.79-4.258 5.285-6.967 6.806l-7.59 4.263-.42.235V21.758l.04-.14.15-.26.107-.104 7.69-4.317c1.428-.804 2.794-1.26 4.03-1.398 1.122-.128 2.142.01 3.013.383v-.036l.42.24.126.075 72.492 41.705-.15.244-15.853 25.736-.146.24-.24-.148-53.748-21.013z" fill="#B3B4B4"/><path d="M24.447 128.107v47.913c0 1.33.208 2.44.578 3.3.31.72.72 1.235 1.197 1.518.053.03.104.06.154.096l72.382 41.555c.124.054.24.118.347.192.353.188.768.276 1.23.248.594-.04 1.268-.26 2-.684l50.417-29.173c1.944-1.128 3.762-3.28 5.113-5.835 1.363-2.578 2.214-5.517 2.214-8.21v-47.94L89.67 90.58l-65.223 37.527zm-4.49 47.913v-49.2h.004c.003-.768.402-1.517 1.12-1.93L88.53 86.08c.675-.396 1.538-.43 2.264-.01l72.512 41.72c.748.362 1.265 1.128 1.265 2.013v49.223c0 3.42-1.053 7.1-2.74 10.292-1.72 3.257-4.147 6.056-6.83 7.617l-50.42 29.172c-1.35.784-2.69 1.197-3.964 1.277-1.445.09-2.785-.244-3.94-.95L24.193 184.82c-.13-.057-.253-.13-.368-.21-1.25-.778-2.252-1.977-2.922-3.525-.606-1.407-.944-3.117-.944-5.065z" fill="#B3B4B4"/><path d="M22.497 126.872v49.195c0 3.348 1.133 5.728 2.918 6.764l.01.007 68.777 39.594c2.187 1.26 3.647 1.892 6.04 2.15l26.27-21.492c4.644-2.645 8.45-9.835 8.45-15.977v-41.22l-39.705 21.938-72.76-40.956" fill="#F6F6F6"/><path d="M22.59 127.03v48.928c0 1.604.264 2.976.74 4.074.482 1.12 1.182 1.952 2.038 2.448l.008.006.002.003.01.003h.004v.003l72.886 41.96.66-3.213.026-.125.11-.062 27.3-18.21c2.274-1.296 4.348-3.714 5.857-6.567 1.512-2.86 2.45-6.146 2.45-9.17v-40.74l-39.285 22.033-.14.08-.138-.08L22.59 127.03zm-.45 49.373l.02.275-.13-.72c0 1.68.28 3.13.784 4.293l-.197-1.075.204.817.388.73-.393-.47c.443 1.038 1.066 1.87 1.822 2.424.143.105.292.2.445.284l-.372-.442.05.012.32.43.003.002.015.01.66.38 72.575 41.777.336.194.79-3.846 27.19-18.148c2.37-1.35 4.522-3.85 6.078-6.79 1.55-2.934 2.515-6.313 2.515-9.43v-41.706l-.42.243-39.566 22.194L22.45 126.31l-.42-.242v49.892l.11.445z" fill="#B3B4B4"/><path d="M95.418 168.124v49.11c0 6.123 3.816 8.995 8.452 6.357l50.005-28.587c4.633-2.638 8.45-9.836 8.45-15.98v-49.218L95.57 168.213l-.152-.09" fill="#FFF"/><path d="M95.623 168.503v48.772c0 1.94.39 3.54 1.07 4.723.433.758.984 1.346 1.625 1.74.637.393 1.37.596 2.17.596.97 0 2.04-.3 3.168-.943l50.08-28.63c2.27-1.29 4.35-3.712 5.856-6.57 1.51-2.854 2.453-6.142 2.453-9.166V130.29l-66.41 38.207-.012.006zm-.562 48.772v-49.59l.422.24.01.007 67.113-38.61v49.702c0 3.114-.967 6.493-2.517 9.426-1.558 2.943-3.71 5.446-6.076 6.795l-50.083 28.63c-1.213.692-2.38 1.02-3.443 1.02-.904 0-1.734-.236-2.463-.685-.724-.445-1.34-1.098-1.82-1.935-.726-1.267-1.143-2.96-1.143-5z" fill="#B3B4B4"/><path fill="#EBECEB" d="M89.54 87.928l72.786 41.877-66.896 38.312-72.633-41.788L89.54 87.927"/><path fill="#FFFFFE" d="M50.885 114.812l.008-4.298-28.16 16.123 72.662 41.766 66.797-38.355-11.026-6.483-3.616 2.215 6.697 4.118-60.47 28.823L41 132.535l-10.82-5.48 20.705-12.242"/><path d="M89.73 87.715l72.735 41.848c.133.077.18.248.102.38-.027.045-.063.08-.102.102L95.598 168.51c-.097.056-.212.047-.296-.01l-72.97-41.776c-.134-.077-.18-.248-.102-.38.025-.045.06-.08.102-.103l67.12-38.525c.087-.052.194-.05.28 0zm72.033 42.088L89.59 88.28l-66.56 38.2 72.43 41.465 66.303-38.142z" fill="#B3B4B4"/><path d="M179.668 110.343l.16-47.266c.023-5.363-4.335-7.288-9.66-4.298l-7.69 4.317-.152.26v66.446l7.59-4.263c5.34-2.995 9.726-9.834 9.752-15.197" fill="#FFF"/><path d="M179.388 110.34l.16-47.265c.007-1.315-.26-2.412-.743-3.267-.394-.698-.936-1.236-1.594-1.598-.66-.367-1.445-.558-2.318-.562-1.35-.006-2.918.438-4.588 1.374l-7.895 4.43-.078.13v65.894l7.448-4.178c2.628-1.475 5.026-3.902 6.768-6.62 1.743-2.713 2.828-5.712 2.84-8.337zm.72-47.26l-.16 47.264c-.014 2.734-1.134 5.838-2.928 8.634-1.79 2.79-4.257 5.285-6.966 6.807l-7.86 4.412-.417.235V63.507l.037-.14.15-.26.107-.102 7.96-4.47c1.756-.983 3.416-1.447 4.866-1.44.966.004 1.843.218 2.587.63.748.412 1.363 1.022 1.81 1.812.53.935.82 2.124.816 3.542z" fill="#B3B4B4"/><path fill="#FFFFFE" d="M90.06 88.227V21.78l72.266 41.578v66.447L90.06 88.227"/><path d="M158.32 127.88l-4.872-2.79 4.87 2.79zm0 0l-.002-62.55-65.445-37.78.28 50.04 21.76 9.557 37.19 37.17 6.216 3.564z" fill="#EBECEB"/><path d="M158.702 127.72l-.56-.323V65.33L93.137 27.79v62.224l-.56-.322V27.31c0-.155.125-.28.28-.28.058 0 .11.018.156.048l65.547 37.85c.09.05.14.144.14.24h.002v62.55" fill="#B3B4B4"/><path d="M89.63 88.142V21.695c0-.156.125-.28.28-.28.058 0 .112.018.158.048l72.127 41.653c.088.052.137.144.137.242v66.447c0 .153-.123.28-.277.28-.06 0-.114-.018-.157-.05L89.77 88.386c-.09-.054-.14-.15-.14-.243zm.56-65.964v65.804l71.585 41.34V63.518L90.19 22.177z" fill="#B3B4B4"/><path d="M61.907 167.64l-9.29-5.38-3.056 2.157 2.137 4.626 3.266 9.995 2.638 3.264c3.77-2.242 4.222-2.743 4.307-5.97v-8.692" fill="#EBECEB"/><path d="M61.487 167.88l-8.85-5.123-2.55 1.8 1.973 4.273 3.24 9.955 2.398 2.97c1.64-.982 2.58-1.61 3.098-2.317.53-.72.65-1.588.69-3.107v-8.45zm-8.66-5.982l9.267 5.366c.14.068.235.21.235.376v8.69h-.002v.01c-.046 1.705-.193 2.697-.853 3.593-.636.866-1.72 1.573-3.64 2.718-.18.12-.424.084-.56-.087l-2.637-3.262-.016-.02-3.267-9.995h.002c-.017-.022-.03-.046-.04-.07l-2.128-4.606c-.096-.184-.044-.414.13-.534l3.053-2.158c.13-.09.306-.104.454-.02z" fill="#B3B4B4"/><path d="M58.853 169.53l-9.29-5.113v9.818c0 7.825 9.29 11.45 9.29 5.31V169.53" fill="#F6F6F6"/><path d="M93.795 92.793l11.478-6.604c.08-.042.158-.087.233-.135l.072-.042v-.005c1.003-.674 1.61-1.903 1.62-3.607l.108-19.95c.023-3.972-3.21-9.07-7.184-11.327L84.585 42.3c-3.06-1.74-4.596-1.098-6.988.28l-9.635 5.542 14.247 21.61 11.585 23.06" fill="#0086B3"/><path d="M65.715 71.98l.11-19.95c.022-3.972 3.292-5.377 7.266-3.12l15.537 8.826c3.975 2.258 7.208 7.355 7.187 11.328l-.11 19.95c-.023 3.974-3.293 5.377-7.266 3.12l-15.536-8.825c-3.975-2.26-7.21-7.358-7.187-11.33" fill="#2EBCE3"/><path d="M58.432 169.777l-8.45-4.65v9.108c0 3.498 1.94 6.112 4 7.298.6.345 1.208.57 1.777.65.54.082 1.04.032 1.455-.154.73-.332 1.217-1.13 1.217-2.485v-9.768zm-8.67-5.727l9.27 5.1c.142.066.24.213.24.38v10.015c0 1.73-.685 2.783-1.713 3.248-.564.255-1.225.323-1.92.22-.674-.1-1.384-.357-2.078-.758-2.277-1.31-4.42-4.186-4.42-8.023v-9.817c0-.068.02-.137.053-.2.11-.2.365-.275.568-.165zM151.978 128.23l2.312 1.333c.134.077.18.248.102.38-.026.045-.063.08-.102.102l-58.81 33.84c-.098.055-.212.046-.297-.013L30.18 127.056c-.133-.076-.178-.246-.1-.38.024-.043.06-.077.1-.1l9.45-5.37v.64l-8.75 4.97 64.46 36.505 58.248-33.517-1.61-.926v-.646" fill="#B3B4B4"/><path d="M114.747 11.193L142.17 26.8c4.25 2.42 7.727 8.995 7.727 14.61v90.517L102.24 159.35V19.783c0-3.08 1.043-5.257 2.69-6.197l4.686-2.72c1.368-.832 3.168-.79 5.13.328" fill="#FEFEFE"/><path d="M115.934 9.385l27.304 15.542c2.492 1.418 4.723 3.984 6.303 6.975 1.56 2.944 2.526 6.352 2.526 9.51v89.268l-4.34 2.495V41.412c0-2.46-.77-5.15-2.013-7.5-1.22-2.307-2.858-4.24-4.61-5.237L113.79 13.13c-.038-.02-.077-.04-.118-.064-.668-.382-1.274-.58-1.8-.612-.43-.028-.812.06-1.127.25l-.043.025-4.585 2.66c-.037.023-.072.046-.11.066-.434.25-.807.704-1.082 1.338-.333.763-.516 1.765-.516 2.988v138.32l-4.338 2.496V19.782c0-1.797.316-3.38.885-4.693.662-1.522 1.657-2.67 2.898-3.38l.08-.043L108.53 9l.018-.008c1.063-.632 2.28-.928 3.594-.844 1.18.076 2.422.455 3.68 1.17l.112.067" fill="#B2B3B3"/><path d="M114.75 11.193L142.17 26.8c4.25 2.42 7.727 8.995 7.727 14.61v90.517L107.02 156.6V23.86l-2.112-10.263 4.71-2.732c1.366-.832 3.166-.79 5.132.328" fill="#F6F6F6"/><path d="M114.882 10.958l27.42 15.61c2.17 1.235 4.14 3.523 5.563 6.213 1.42 2.686 2.3 5.78 2.3 8.63v90.362l-.538.31v-90.67c0-2.765-.858-5.77-2.238-8.38-1.38-2.605-3.276-4.813-5.355-5.998l-27.42-15.608c-.925-.527-1.81-.806-2.623-.856-.828-.054-1.583.132-2.233.525l-.25.152-.005-.004-4.29 2.49 2.07 10.073.008.053V156.44l-.547.316V23.88l-2.105-10.23-.038-.19.167-.096 4.71-2.733.028-.016.09-.053.13-.075v.004c.684-.354 1.46-.514 2.293-.46.9.06 1.86.36 2.862.928" fill="#B2B3B3"/><path d="M109.967 13.968l27.42 15.607c4.25 2.42 7.73 8.995 7.73 14.612v90.492l-42.877 24.67V19.783c0-5.617 3.476-8.234 7.727-5.814" fill="#FFF"/><path d="M102.24 152.882v-69.38l22.495 13.057c3.256 1.888 5.917 6.988 5.917 11.333v34.354l-23.407 13.47-5.005-2.835" fill="#F6F6F6"/><path d="M110.03 13.734l27.184 15.61c2.154 1.234 4.105 3.522 5.515 6.213 1.408 2.686 2.284 5.78 2.284 8.63v90.55l-.54.31v-90.86c0-2.766-.85-5.768-2.218-8.38-1.367-2.604-3.243-4.814-5.307-5.997L109.764 14.2c-1.024-.586-1.997-.865-2.877-.865-.718 0-1.378.185-1.95.542-.577.358-1.077.89-1.465 1.578-.615 1.08-.967 2.546-.967 4.327v139.415l-.537.31V19.78c0-1.876.38-3.432 1.038-4.592.436-.766.996-1.364 1.65-1.77.658-.408 1.41-.623 2.232-.623.968 0 2.03.3 3.14.937" fill="#B2B3B3"/><path d="M109.967 20.154c1.6.91 2.895 3.176 2.895 5.06 0 1.883-1.294 2.673-2.895 1.763-1.6-.912-2.898-3.177-2.898-5.063 0-1.883 1.296-2.67 2.897-1.76" fill="#ED4C6F"/><path d="M117.806 24.798c1.6.91 2.897 3.175 2.897 5.06 0 1.883-1.297 2.673-2.897 1.762-1.598-.91-2.896-3.175-2.896-5.06-.002-1.884 1.298-2.673 2.896-1.762" fill="#2CBCE3"/><path fill="#B2B3B3" d="M102.11 28.6l42.87 24.406.27-.468-42.874-24.404-.267.467"/><path fill="#B2B3B3" d="M123.088 141.553h.543V40.573h-.542M113.24 49.8l-4.29-.043 4.296-9.14 4.198 13.48-4.203-4.297M130.654 51.824l8.318 4.734.206.117V67.4l-.607-.346-8.316-4.734-.207-.117V51.478l.607.346zm7.71 5.32l-7.505-4.273v8.865l7.504 4.272v-8.864z"/><path fill="#B2B3B3" d="M128.924 49.506l3.058 1.74v3.6l-3.058-1.74v-3.6M137.243 54.24l3.058 1.74v3.598l-3.057-1.74V54.24M137.243 64.035l3.058 1.74v3.6l-3.057-1.74v-3.6M128.924 59.3l3.058 1.74v3.598l-3.058-1.74V59.3M133.525 57.54l2.174 1.237v2.56l-2.175-1.237v-2.56M139.124 134.797l-.076.047-.488-.28-.083-.13c-.027-.793-.053-1.264-.086-1.415-.06-.28-.226-.515-.496-.712-.102-.076-.59-.364-1.456-.857l-1.035-.59c-.09 1.767-.017 4.23-.017 6.03 0 1.447.035 2.405.1 2.882.017.137.068.258.147.363l-1.264.727-.1-.055c-1.103-.628-1.898-1.06-2.38-1.3l-.072-.124V138.2l.08-.044c.524.263.828.403.904.42.152.04.24-.022.264-.184.067-.402.1-1.324.1-2.77 0-1.64.112-4.358-.022-6.05l-1.108-.63c-.922-.524-1.462-.797-1.616-.82-.082-.01-.142 0-.17.038-.048.07-.084.245-.115.518-.035.302-.062.617-.072.952l-.077.05-.488-.278-.086-.142-.016-1.567c-.004-.502-.027-1.42-.092-1.972l.07-.05c.303.234 1.413.896 3.327 1.985l3.14 1.785c1.764 1.004 2.872 1.604 3.328 1.8l.077.14c-.15.954-.11 2.344-.12 3.417M109.49 65.692v-2.057l1.998 1.138v2.055l3.41 1.94c.673.384 1.292 1.026 1.77 1.777l2.975-1.81.37.645-2.98 1.813c.378.768.604 1.598.604 2.36v4.156l1.828 1.038v2.306l-1.828-1.04v2.056l-1.997-1.138v-2.054l-3.41-1.94c-1.507-.86-2.737-3.012-2.737-4.785V68l-1.828-1.04v-2.306l1.826 1.038zm2.145 7.916l3.525-2.144c-.16-.24-.344-.437-.518-.538l-3.154-1.792v3.85c0 .175.057.395.147.624zm3.87-1.487l-3.52 2.14c.157.23.335.42.504.516l3.15 1.794v-3.85c0-.17-.052-.38-.136-.6zM132.593 82.16l.12.068v-4.69c0-1.107.772-1.576 1.71-1.04.943.535 1.713 1.88 1.713 2.99v4.69l.123.066c.384.22.7.774.7 1.23 0 .455-.316.647-.7.426l-3.67-2.087c-.383-.218-.7-.773-.7-1.227 0-.454.317-.647.703-.427"/><path d="M132.512 82.58l-.12-.07c-.034-.018-.062-.03-.082-.034-.01.025-.015.065-.015.112 0 .157.06.336.154.5v.002c.092.163.215.3.343.374l3.666 2.088h.002c.03.02.06.03.08.033.008-.023.014-.06.014-.11 0-.157-.058-.34-.153-.503-.094-.16-.215-.3-.345-.376l-.12-.066-.207-.117V79.49c0-.483-.17-1.027-.446-1.51-.278-.483-.65-.897-1.058-1.13-.203-.112-.384-.166-.54-.166-.097 0-.182.023-.25.062-.07.04-.136.108-.184.192-.082.147-.13.35-.13.603v5.388l-.61-.35zm-.206-.916V77.54c0-.398.087-.74.24-1.004.122-.21.285-.376.477-.488.198-.115.42-.175.66-.175.294 0 .613.088.942.274.534.307 1.017.832 1.36 1.432.343.6.56 1.284.56 1.907v4.46c.22.148.42.373.563.626.16.28.26.604.26.9 0 .206-.048.384-.13.53-.07.122-.166.22-.282.288v.002c-.117.07-.25.105-.393.105-.16 0-.333-.047-.505-.145l-3.666-2.087c-.256-.147-.487-.396-.648-.677h-.002c-.16-.28-.26-.605-.26-.903 0-.206.047-.385.13-.528.07-.124.168-.22.283-.29.116-.067.25-.105.394-.105h.016v.002z" fill="#B2B3B3"/><path d="M135.146 91.105h.02v-.002c.155 0 .287-.06.376-.17.112-.136.183-.356.19-.642l.002-.045V85.9l-2.61-1.486v3.883c0 .344.087.72.237 1.08v.002c.16.382.387.745.656 1.043l.104.27v.844c0 .16.06.346.156.516.094.164.222.306.354.382.038.022.068.032.092.037.01-.026.018-.067.018-.12V91.1l.406.005zm1.02.343c-.167.202-.378.34-.62.412v.493c0 .206-.047.387-.13.533-.07.123-.168.223-.286.293-.118.067-.253.106-.395.106-.16 0-.336-.05-.51-.15-.26-.148-.494-.4-.657-.685-.163-.284-.264-.612-.264-.913v-.696c-.282-.34-.52-.74-.695-1.153-.19-.458-.302-.938-.302-1.39V83.02l4.03 2.293.206.118v4.814l-.003.005v.058c-.01.476-.146.865-.373 1.14zm-1.454 1.038v.002-.002zM134.765 101.555l4.177 12.402c-1.086.152-2.008.518-2.75 1.123l-3.527-2.008c-.772-1.603-1.707-3.037-2.814-4.287l4.178-7.65v6.946c-.556-.126-.965.246-.965.963 0 .867.597 1.91 1.332 2.328.737.42 1.335.058 1.335-.81 0-.718-.41-1.554-.967-2.06v-6.943l.002-.002zm-2.21 12.46v2.192l3.682 2.097v-2.19l-3.683-2.098zM112.467 116.324c-.2-.1-.28-.342-.18-.543.102-.2.346-.28.547-.18l.018.01.038.02.037.02.04.02.04.02.037.022.04.023.037.02.032.02.007.004.077.043.038.022.038.023.04.023.037.023.036.022.04.025.038.02.04.026.035.023.038.024.04.023.034.026.04.023.036.026.04.025.037.025.038.027.038.024.036.026.037.025.04.027.037.027.036.027.037.03.034.024.036.03.038.028.037.03.037.026.034.03.038.028.036.03.034.028.036.03.034.028.008.006c.17.143.192.4.045.57-.146.17-.403.192-.573.047l-.005-.005-.032-.026-.034-.028-.034-.03-.032-.025-.03-.024-.037-.028-.032-.026-.032-.025-.033-.026-.034-.026-.033-.027-.033-.025-.033-.024-.03-.023-.034-.023-.034-.026-.036-.023-.034-.024-.033-.024-.033-.025-.036-.02-.033-.022-.033-.024-.036-.02-.032-.025-.035-.02-.034-.025-.033-.02-.035-.023-.032-.02-.035-.024-.036-.022-.03-.02-.038-.02-.034-.022-.034-.02-.034-.02-.037-.02-.035-.02-.033-.02-.035-.02-.037-.02-.03-.017-.036-.018-.036-.02-.02.004zm-2.185-1.337c.226-.015.42.158.43.38.016.222-.157.415-.38.428l-.03.002-.027.002h-.024l-.028.004-.024.002-.025.003h-.024l-.028.005-.026.003-.023.005-.025.003-.024.004-.028.006-.024.004-.023.004-.026.008-.024.003-.023.005-.024.007-.022.006-.026.007-.02.007-.026.007-.023.007-.023.01-.024.006-.02.007-.024.008-.025.01-.02.008-.024.01-.023.008-.02.01-.025.01-.02.006-.024.013-.023.01-.022.008-.02.012-.024.01-.02.01-.024.013-.02.01-.023.01-.02.014-.022.012-.022.014-.022.01-.018.013-.022.016-.022.012-.02.014-.02.013-.02.014-.02.014-.02.012-.006.005c-.184.13-.438.088-.567-.094-.13-.18-.088-.435.095-.565l.01-.006.027-.02.026-.02.028-.016.028-.02.03-.017.025-.017.025-.017.03-.02.028-.016.024-.016.028-.016.03-.017.028-.013.03-.016.027-.014.03-.014.027-.014.03-.015.032-.014.027-.014.028-.014.03-.014.03-.01.03-.013.03-.013.032-.012.033-.01.027-.012.03-.01.033-.012.03-.01.03-.01.034-.01.03-.007.033-.01.03-.008.032-.01.032-.006.033-.008.032-.007.03-.006.033-.007.032-.005.03-.006.035-.005.033-.006.033-.003.034-.005.03-.005.036-.003.034-.005.035-.002.03-.003.037-.004h.033l.037.004zm-3.193 2.804c.057-.214.282-.342.498-.283.218.057.347.28.287.496l-.003.016-.01.03-.008.03-.01.033-.006.032-.008.032-.008.033-.007.033-.008.034-.006.032-.007.033-.013.068-.006.035-.007.035-.006.033-.004.035-.007.037-.006.036-.006.035-.005.034-.003.037-.006.036-.004.04-.004.034v.042l-.005.036-.002.04-.003.04-.004.035v.04l-.004.038-.002.04-.002.037-.002.04v.038l-.003.038v.04l-.005.12v.04c0 .224-.185.402-.41.4-.224 0-.405-.185-.402-.41v-.132l.004-.043.002-.088.003-.045v-.043l.003-.045.003-.044.002-.042.005-.043.002-.045.005-.04.003-.044.004-.04.005-.043.005-.043.005-.04.003-.04.007-.043.006-.043.006-.04.007-.04.008-.04.005-.04.008-.04.007-.04.008-.04.007-.04.007-.037.01-.04.008-.04.007-.04.01-.037.008-.036.01-.04.01-.038.008-.035.01-.037.01-.04.002-.012h-.003zm.084 4.214c-.052-.217.08-.437.298-.492.217-.054.44.08.492.297l.01.043.012.044.012.043.01.043.015.045.01.044.013.045.012.042.013.04.015.047.012.044.013.045.014.044.013.043.044.13.015.046.015.04.015.045.014.044.014.043.015.043.015.043.016.043.018.045.017.044.015.043.016.043.018.045.016.043.017.042.016.044.018.044.004.01c.08.207-.02.442-.23.525-.207.08-.444-.022-.525-.23l-.008-.01-.036-.094-.018-.046-.017-.047-.017-.046-.017-.047-.018-.048-.018-.046-.018-.045-.016-.046-.017-.046-.018-.048-.017-.047-.015-.045-.015-.046-.015-.05-.014-.045-.016-.046-.015-.048-.014-.047-.016-.046-.014-.048-.015-.048-.012-.047-.014-.046-.015-.045-.015-.048-.013-.046-.012-.048-.013-.046-.014-.047-.01-.05-.013-.046-.01-.04zm1.625 3.833c-.118-.19-.058-.44.134-.557.192-.117.44-.058.56.133l.014.022.025.04.024.04.024.04.026.04.024.04.025.04.024.04.025.038.026.038.026.04.026.038.025.04.026.04.026.037.022.038.028.04.028.038.025.036.027.04.026.037.025.038.03.037.027.04.026.036.027.037.026.035.03.04.026.035.03.037.027.037.026.035.028.034.028.04.004.003c.14.175.11.43-.067.568-.176.14-.433.11-.57-.065l-.006-.01-.03-.037-.03-.037-.03-.04-.03-.04-.03-.04-.028-.036-.03-.04-.03-.04-.03-.04-.028-.04-.018-.033-.03-.04-.03-.04-.026-.04-.026-.04-.03-.042-.026-.038-.028-.04-.032-.043-.027-.043-.028-.037-.027-.042-.027-.042-.026-.04-.03-.043-.026-.042-.026-.042-.026-.04-.027-.043-.024-.04-.028-.044-.025-.042-.025-.042-.02-.02zm2.71 3.174c-.174-.142-.198-.397-.057-.57.14-.173.4-.197.573-.055l.01.008.03.025.034.028.033.025.034.027.033.025.033.024.035.025.033.028.034.022.032.024.033.024.033.024.036.024.033.026.034.02.033.026.034.022.034.023.035.022.034.023.033.02.035.024.036.023.033.02.036.02.03.024.038.02.034.024.033.02.036.02.036.022.034.02.035.02.037.02.035.02.033.02.034.018.005.002c.198.107.27.35.165.55-.106.197-.352.27-.55.164l-.01-.003-.038-.022-.038-.02-.038-.022-.038-.022-.04-.023-.038-.02-.038-.025-.038-.02-.04-.024-.037-.023-.038-.022-.038-.024-.04-.024-.038-.024-.038-.024-.037-.023-.04-.026-.036-.024-.038-.024-.04-.025-.037-.026-.04-.024-.035-.027-.038-.027-.036-.025-.037-.025-.04-.03-.037-.024-.037-.03-.036-.027-.036-.026-.036-.027-.038-.03-.035-.028-.036-.027-.038-.03-.036-.03-.007-.014zm3.926 1.66c-.224 0-.406-.18-.408-.403 0-.224.18-.407.404-.407h.075l.028-.003h.024l.026-.002h.026l.027-.004h.023l.03-.003.023-.002.025-.003.025-.003.028-.004.025-.003.023-.003.027-.005.024-.004.026-.004.026-.004.022-.007.026-.004.024-.004.022-.008.023-.004.024-.006.024-.006.024-.008.024-.007.023-.008.048-.015.02-.006.024-.01.024-.007.022-.01.022-.01.023-.008.023-.01.022-.007.022-.01.023-.01.02-.012.025-.01.02-.01.024-.01.02-.01.024-.013.02-.01.023-.012.02-.01.02-.012.022-.014.023-.012.018-.012.022-.012.002-.003c.19-.118.44-.06.56.13.12.19.06.44-.13.56l-.007.004-.027.016-.03.018-.028.018-.024.014-.03.017-.026.016-.03.016-.03.015-.027.015-.03.016-.027.015-.03.015-.03.014-.027.013-.03.014-.032.013-.028.013-.03.012-.03.012-.03.013-.032.01-.03.01-.028.01-.034.013-.03.01-.032.006-.032.012-.03.01-.03.006-.032.008-.03.01-.035.01-.033.005-.033.006-.028.005-.034.01-.033.005-.03.005-.035.008-.032.005-.035.005-.033.004-.032.005-.034.004-.032.003-.036.002-.03.002-.035.003h-.06l-.035.002-.035.002h-.134zm3.338-2.628c-.068.213-.294.333-.51.265-.214-.066-.334-.293-.267-.508l.005-.013.01-.03.01-.03.01-.032.006-.03.01-.03.01-.033.007-.03.007-.033.01-.033.008-.032.006-.033.008-.034.01-.035.005-.03.007-.034.006-.034.008-.035.007-.033.006-.034.006-.036.004-.034.008-.035.004-.035.006-.038.003-.033.006-.038.005-.037.005-.035.004-.037.002-.036.004-.038.004-.04.003-.038.004-.036.003-.037.003-.04.002-.037.002-.037.003-.04v-.08l.002-.03c.01-.225.197-.4.42-.393.226.007.4.194.394.417l-.004.04v.043l-.002.044-.003.043v.044l-.004.044v.044l-.005.044-.003.044-.003.04-.004.043-.008.084-.005.043-.006.04-.003.043-.005.04-.006.04-.007.043-.007.04-.006.04-.006.04-.007.04-.008.04-.006.04-.008.04-.008.038-.01.04-.008.04-.01.037-.006.038-.01.04-.01.038-.01.037-.008.036-.01.038-.01.038-.012.035-.01.04-.012.035-.01.034-.012.037-.002.005zm.007-4.218c.054.217-.082.434-.3.484-.22.05-.438-.085-.488-.303l-.008-.032-.01-.044-.013-.044-.01-.043-.01-.045-.01-.045-.013-.043-.01-.043-.012-.045-.013-.044-.01-.044-.014-.044-.013-.042-.014-.045-.012-.043-.013-.045-.015-.044-.013-.04-.014-.044-.014-.044-.014-.043-.016-.046-.015-.042-.014-.045-.015-.045-.014-.044-.015-.044-.015-.043-.017-.042-.015-.045-.018-.044-.013-.044-.017-.043-.018-.044-.01-.024c-.078-.21.03-.444.24-.52.21-.08.443.026.524.235l.008.027.02.047.017.047.02.047.015.048.016.045.02.047.016.046.017.047.017.047.016.047.014.047.018.047.013.048.018.045.015.05.013.046.016.048.014.045.014.047.014.05.013.045.013.044.015.05.013.046.015.046.01.048.014.047.01.047.014.046.015.047.01.05.01.045.01.047.006.03zm-1.57-3.855c.114.19.05.44-.142.554-.192.115-.443.05-.556-.14l-.005-.007-.023-.04-.024-.043-.025-.04-.023-.038-.025-.04-.024-.04-.024-.038-.026-.04-.024-.042-.025-.04-.026-.036-.025-.04-.025-.04-.028-.038-.024-.038-.025-.04-.026-.04-.027-.037-.024-.038-.026-.04-.028-.04-.026-.035-.026-.038-.026-.038-.027-.038-.027-.038-.03-.038-.025-.036-.053-.074-.03-.038-.025-.035-.028-.04-.016-.016c-.136-.177-.104-.433.073-.57.178-.134.434-.102.57.076l.018.02.03.04.027.036.03.04.03.04.03.04.027.04.028.04.03.04.027.038.03.04.028.04.028.043.027.04.028.04.03.042.027.04.025.044.028.038.027.043.027.04.027.043.026.04.027.043.025.042.054.083.024.043.026.044.026.042.025.043.027.042.025.04.024.044.005.003z" fill="#B2B3B3"/><path d="M112.957 111.004c1.3.74 2.354 2.58 2.354 4.11 0 1.528-1.052 2.172-2.353 1.43-1.298-.74-2.353-2.578-2.353-4.108 0-1.53 1.055-2.172 2.353-1.432M111.276 94.256c1.223.696 2.213 2.427 2.213 3.865 0 1.438-.99 2.042-2.214 1.345-1.22-.694-2.212-2.424-2.212-3.864 0-1.437.99-2.04 2.212-1.344zm.92-2.998c1.332.758 2.53 2.064 3.39 3.567.858 1.494 1.386 3.202 1.386 4.76 0 .976-.208 1.803-.574 2.444-.286.496-.664.884-1.12 1.148-.454.264-.978.405-1.547.405-.704 0-1.475-.216-2.28-.672-1.332-.76-2.53-2.07-3.39-3.567-.858-1.492-1.39-3.202-1.39-4.76 0-.973.21-1.803.577-2.445.284-.497.664-.885 1.117-1.15.46-.267.98-.405 1.548-.405v.002c.706.002 1.483.22 2.285.673zm2.186 4.242c-.764-1.333-1.806-2.483-2.953-3.13v-.003c-.593-.336-1.136-.494-1.603-.494-.31 0-.59.073-.82.205-.233.138-.434.348-.59.622-.25.436-.393 1.035-.393 1.778 0 1.355.476 2.86 1.238 4.195.764 1.335 1.808 2.486 2.95 3.134.588.334 1.132.495 1.605.495v.003c.307 0 .583-.072.818-.21.232-.136.435-.346.59-.62.252-.434.392-1.034.392-1.776.002-1.355-.473-2.86-1.235-4.2z" fill="#B2B3B3"/><path d="M113.16 110.652c.71.405 1.354 1.105 1.815 1.91.46.8.742 1.716.742 2.552 0 .52-.11.965-.306 1.31-.153.265-.356.472-.6.614-.243.142-.523.218-.83.218-.376 0-.79-.116-1.22-.36-.715-.408-1.357-1.11-1.818-1.913-.46-.8-.744-1.716-.744-2.55 0-.523.112-.966.31-1.31.152-.266.353-.475.597-.617.247-.143.525-.217.83-.217.378 0 .795.117 1.225.362zm1.11 2.308c-.39-.683-.926-1.272-1.512-1.604v-.003c-.304-.17-.585-.252-.823-.252v.002c-.16 0-.3.037-.42.103-.12.072-.222.18-.303.32-.127.223-.202.53-.202.912 0 .695.244 1.466.636 2.15.39.685.926 1.275 1.51 1.608.303.172.582.252.825.252v.003c.158 0 .3-.037.42-.107.12-.072.223-.178.304-.32.13-.22.2-.528.2-.91 0-.693-.242-1.466-.633-2.153zM145.25 53.006c-.13.074-.293.03-.37-.098-.072-.13-.03-.293.1-.37l4.784-2.75c.128-.075.292-.032.368.097.074.13.03.295-.1.37l-4.78 2.75M145.25 78.25c-.13.075-.293.03-.37-.098-.072-.13-.03-.293.1-.368l4.784-2.752c.128-.074.292-.03.368.098.074.128.03.292-.1.367l-4.78 2.753M145.25 103.494c-.13.074-.293.03-.37-.097-.072-.127-.03-.292.1-.37l4.784-2.75c.128-.074.292-.03.368.098.074.128.03.293-.1.37l-4.78 2.75M145.25 128.74c-.13.074-.294.027-.37-.098-.074-.13-.03-.294.1-.37l4.784-2.748c.13-.075.293-.03.368.098.076.128.03.292-.1.366l-4.782 2.753" fill="#B2B3B3"/><path fill="#B2B3B3" d="M102.11 53.847l42.87 24.405.27-.468-42.874-24.405-.267.467M102.11 79.093l42.87 24.405.27-.47-42.872-24.403-.268.468M102.11 104.336l42.87 24.405.27-.468-42.874-24.405-.267.47M102.11 129.582l26.07 14.84.544-.31-26.345-14.998-.27.468"/><path d="M116.416 103.32L48.463 63.97c-.426-.247-.8-.378-1.117-.402-.207-.02-.38.014-.513.09l-.048.027-3.83 2.35c-.083.065-.174.125-.268.178-.103.058-.21.105-.316.146h.003c-.223.083-.432.313-.61.67-.27.536-.424 1.285-.424 2.227v63.482l-4.503-2.55V69.257c0-1.65.324-3.08.897-4.224.637-1.267 1.578-2.192 2.74-2.717l3.956-2.426c.048-.034.1-.066.154-.096.93-.538 1.984-.777 3.113-.686.972.078 1.99.403 3.017.997l67.95 39.35c2.013 1.166 3.802 3.243 5.06 5.648 1.234 2.353 1.998 5.084 1.998 7.617v33.118l-4.5 2.59V112.72c0-1.807-.57-3.8-1.487-5.553-.892-1.703-2.07-3.124-3.32-3.847" fill="#B3B4B4"/><path d="M117.353 101.39L49.558 62.036c-1.476-.856-2.83-.913-3.87-.31l-4.118 2.534 1.7 3.114v66.457l52.07 29.49 27.93-16.07v-34.53c0-4.343-2.663-9.442-5.917-11.33" fill="#F6F6F6"/><path d="M117.742 101.63L49.475 62.277c-.69-.397-1.35-.613-1.958-.662-.613-.048-1.174.074-1.656.352l-3.91 2.39 1.583 2.882.037.134v66.628l-.567-.322V67.44l-1.676-3.046-.126-.23.226-.14 4.146-2.534.006-.005c.584-.333 1.255-.48 1.984-.425.69.056 1.43.294 2.198.734l68.266 39.353c1.686.972 3.215 2.76 4.318 4.857 1.1 2.092 1.783 4.5 1.783 6.716v34.037l-.564.324-.002-34.36c0-2.126-.656-4.44-1.717-6.458-1.057-2.01-2.51-3.716-4.1-4.633" fill="#B3B4B4"/><path d="M112.795 104.145l-67.792-39.35c-3.256-1.89-5.92.12-5.92 4.463v60.393l56.258 31.86 23.375-13.45v-32.582c0-4.345-2.662-9.445-5.92-11.333" fill="#FFF"/><path d="M76.96 136.452l.033-17.236c.01-4.128 3.42-5.585 7.546-3.24l16.138 9.167c4.128 2.345 7.47 7.64 7.464 11.766l-.034 18.778-7.055 4.347-24.093-23.583" fill="#EBECEB"/><path d="M112.915 104.386l-68.03-39.35c-.792-.458-1.54-.673-2.212-.673-.534 0-1.022.136-1.447.393-.43.262-.8.65-1.095 1.153-.485.826-.764 1.96-.764 3.348v62.363l-.564-.317V69.258c0-1.488.308-2.72.843-3.63.342-.583.778-1.04 1.288-1.348.516-.313 1.1-.478 1.74-.478.77 0 1.612.24 2.493.75l68.032 39.352c1.68.97 3.203 2.76 4.302 4.856 1.096 2.092 1.777 4.5 1.777 6.717v34.07l-.562.324V115.48c0-2.127-.658-4.44-1.715-6.46-1.053-2.008-2.5-3.714-4.085-4.632" fill="#B3B4B4"/><path fill="#F6F6F6" d="M39.366 131.62l55.975 31.7 5.548-3.174-61.522-34.45v5.925"/><path d="M56.683 83.817c.193.113.257.362.144.554-.113.194-.364.26-.557.145l-2.102-1.236c-.193-.115-.257-.364-.144-.555.114-.193.363-.257.558-.144l2.1 1.237M62.285 87.113c.194.113.257.362.143.556-.113.19-.362.255-.557.142l-2.1-1.236c-.194-.113-.257-.362-.145-.555.115-.19.365-.254.56-.14l2.1 1.233M67.888 90.408c.193.113.258.362.144.553-.115.194-.363.26-.557.145l-2.1-1.236c-.195-.114-.258-.363-.145-.555.114-.193.365-.257.557-.143l2.1 1.236M73.49 93.704c.194.114.257.363.143.555-.112.19-.363.257-.556.142l-2.1-1.236c-.195-.113-.26-.362-.144-.555.113-.193.364-.256.556-.14l2.1 1.234M79.092 97c.194.114.257.363.145.555-.113.192-.363.258-.557.145l-2.102-1.236c-.193-.113-.26-.363-.145-.556.115-.19.363-.256.557-.142L79.092 97M84.696 100.296c.194.113.257.362.144.555-.114.194-.365.258-.558.143l-2.1-1.235c-.196-.115-.258-.362-.144-.555.113-.192.363-.258.556-.144l2.102 1.236M90.298 103.592c.193.112.258.36.143.554-.11.19-.362.257-.554.144l-2.102-1.236c-.193-.115-.257-.362-.142-.555.112-.193.363-.258.557-.144l2.098 1.236M95.902 106.886c.192.113.256.363.143.555-.115.192-.364.258-.558.142l-2.1-1.236c-.195-.113-.256-.36-.143-.553.114-.193.362-.26.558-.144l2.1 1.236M101.503 110.182c.193.114.258.362.143.555-.114.194-.363.257-.558.144l-2.1-1.236c-.193-.112-.256-.36-.143-.555.11-.19.364-.256.555-.143l2.103 1.235M109.83 115.043c.193.115.257.364.143.556-.113.19-.363.255-.557.142l-4.826-2.803c-.19-.114-.254-.362-.142-.556.113-.19.363-.256.56-.142l4.823 2.8M48.366 125.08c0-.224.183-.405.406-.405.225 0 .407.183.407.405v2.432c0 .222-.183.404-.408.404-.223 0-.406-.182-.406-.404v-2.432M48.366 118.596c0-.223.183-.404.406-.404.225 0 .407.18.407.404v2.43c0 .225-.183.406-.408.406-.223 0-.406-.18-.406-.405v-2.43M48.366 112.114c0-.224.183-.405.406-.405.225 0 .407.18.407.404v2.43c0 .224-.183.406-.408.406-.223 0-.406-.182-.406-.406v-2.43" fill="#B2B3B3"/><path d="M107.716 111.216l4.273 2.522c.128.074.2.21.2.35v5.228c0 .224-.182.405-.406.405-.084 0-.16-.023-.225-.066l-4.276-2.52c-.126-.077-.2-.213-.2-.35v-5.23c0-.223.182-.404.407-.404.083 0 .163.024.226.066M110.044 125.45c0 .225-.18.406-.405.406-.226 0-.407-.18-.407-.405v-2.43c0-.224.18-.405.406-.405.224 0 .404.18.404.405v2.43M110.044 131.934c0 .224-.18.406-.405.406-.226 0-.407-.182-.407-.406v-2.43c0-.225.18-.406.407-.406.224 0 .405.18.405.405v2.43M110.044 138.417c0 .225-.18.405-.405.405-.226 0-.407-.18-.407-.405v-2.43c0-.225.18-.406.406-.406.224 0 .404.182.404.406v2.43M110.044 144.902c0 .223-.18.404-.405.404-.226 0-.407-.18-.407-.404v-2.432c0-.223.18-.405.406-.405.224 0 .404.182.404.405v2.432M48.366 105.278c0-.225.183-.405.406-.405.225 0 .407.18.407.405v2.43c0 .224-.183.405-.408.405-.223 0-.406-.18-.406-.404v-2.432M48.366 98.793c0-.223.183-.404.406-.404.225 0 .407.18.407.403v2.432c0 .223-.183.404-.408.404-.223 0-.406-.182-.406-.405v-2.432M48.366 92.31c0-.223.183-.405.406-.405.225 0 .407.183.407.405v2.43c0 .225-.183.405-.408.405-.223 0-.406-.18-.406-.405v-2.43M48.366 85.827c0-.224.183-.405.406-.405.225 0 .407.18.407.405v2.432c0 .22-.183.403-.408.403-.223 0-.406-.182-.406-.404v-2.433M47.054 75.9l4.274 2.523c.126.074.2.208.2.348V84c0 .224-.182.405-.407.405-.082 0-.158-.024-.225-.066l-4.274-2.524c-.125-.076-.198-.21-.198-.347v-5.232c0-.224.182-.405.406-.405.084 0 .162.026.226.068zm3.66 3.102l-3.48-2.054v4.29l3.48 2.054v-4.29zM47.054 130.302l1.756 1.036-1.946-1.102c.07.006.136.03.19.066" fill="#B2B3B3"/><path d="M48.366 131.18c0-.224.183-.405.406-.405.225 0 .407.182.407.405v2.43c0 .225-.183.407-.408.407-.223 0-.406-.182-.406-.406v-2.43M110.044 151.395c0 .225-.18.406-.405.406-.226 0-.407-.18-.407-.405v-2.432c0-.223.18-.404.406-.404.224 0 .404.18.404.403v2.432" fill="#B2B3B3"/><path d="M81.82 132.612l-24.488-14.09c-1.235-.71-2.246-2.634-2.246-4.275V94.554c0-1.64 1.01-2.4 2.246-1.69L81.82 106.95c1.235.712 2.245 2.634 2.245 4.276v19.693c0 1.64-1.01 2.402-2.245 1.692z" fill="#D2D2D2"/><path d="M81.977 132.34c1.005.577 1.773 0 1.773-1.42V111.23c0-1.534-.955-3.35-2.088-4.004L57.174 93.136c-1.004-.578-1.772 0-1.772 1.418v19.693c0 1.533.955 3.35 2.088 4.003l24.487 14.09zm-.315.544l-24.488-14.09c-1.337-.77-2.403-2.798-2.403-4.547V94.554c0-1.863 1.254-2.806 2.72-1.963l24.487 14.09c1.338.77 2.403 2.8 2.403 4.548v19.693c0 1.864-1.252 2.807-2.718 1.964z" fill="#D2D2D2" fill-rule="nonzero"/><path d="M83.442 128.495l-.05-1.38-4.71-14.444c-.55-1.685-2.84-3.244-4.787-1.93l-4.687 2.632-1.328-2.05c-1.078-1.667-2.635-2.36-3.867-1.52l-8.104 5.52c.356 1.313 1.076 2.266 2.51 3.09l22.858 13.15c1.19.686 2.164-.048 2.164-1.63v-1.437M60.672 99.36c1.378.797 2.497 2.825 2.497 4.525 0 1.702-1.117 2.434-2.498 1.634-1.377-.8-2.496-2.826-2.496-4.53 0-1.698 1.118-2.43 2.496-1.63M87.48 71.686c.083-.317.078-1.87.028-2.347-1.462-2.147-5.2-4.125-5.513-.758-.11 1.18.148 2.05.724 3.12.452.837 1.078 1.635 1.768 2.41.345.39.678.733.926 1.145.918 1.53-.164 2.4-2.69-.602-.854-1.016-.744-1.277-.744.605 0 .904-.27 1.205 1.366 2.704 1.487 1.36 3.372 2.098 4.244.926.4-.538.57-1.658.318-2.82-.245-1.12-.77-1.898-1.364-2.704-1.04-1.406-2.688-2.74-2.31-3.692.28-.713 1.624.362 2.21.952.294.294.817.994 1.035 1.06zm-11.704-5.192c.893.535 1.526 1.023 2.216.84 1.077-.285 1.164-3.06.067-4.71-.618-.93-1.42-1.287-2.253-1.7l-.03 5.57zm-2.31-9.127c-.072 3.006-.003 8.25 0 11.503l.02 3.49c.542.42 1.425.854 2.008 1.18.355.2.278.136.28-.988l.012-3.657 1.062.636c5.696 3.183 5.874-7.053.226-10.242l-3.608-1.92z" fill="#FFFFFE"/><path d="M105.192 157.65l.034-19.423c.006-4.126-3.338-9.422-7.463-11.765l-16.138-9.167c-3.18-1.806-4.775-1.14-7.26.29l-10.008 5.76 12.072 18.308 16.897 20.58 2.014 1.088 9.852-5.67" fill="#D0792A"/><path d="M62.106 144.64l.032-17.237c.01-4.127 3.42-5.584 7.548-3.24l16.138 9.168c4.127 2.345 7.47 7.642 7.463 11.766l-.034 17.095-31.147-17.55" fill="#F0AB2D"/><path fill="#FFFFFE" d="M67.265 136.866l4.247-2.386 10.79 6.23 4.29 7.317-9.672 5.506-9.655-16.667"/><path fill="#FFF479" d="M76.82 137.545l5.48 3.165 4.29 7.317-9.67 5.506-.1-.17v-15.818"/><path fill="#FFF479" d="M86.59 148.027l-9.67 5.506-9.655-16.667 19.326 11.16"/><path fill="#FBD147" d="M86.59 148.027l-9.67 5.506-.1-.17v-10.978l9.77 5.642"/><path d="M132.77 169.817l-7.213 21.42c1.873.26 3.468.893 4.75 1.936l6.09-3.467c1.333-2.768 2.947-5.245 4.856-7.403l-7.21-13.21v11.995c.96-.22 1.666.423 1.666 1.657 0 1.5-1.03 3.303-2.302 4.026-1.272.722-2.304.096-2.304-1.4 0-1.24.707-2.684 1.67-3.557V169.82l-.003-.002zm3.82 21.52v3.782l-6.365 3.62v-3.78l6.364-3.622zM132.12 158.74l1.77-1.018c.542-.31.985.02.985.74v2.173c0 .72-.443 1.562-.984 1.873l-1.77 1.02c-.543.31-.984-.023-.984-.742v-2.17c0-.72.44-1.564.984-1.875" fill="#C8C8C8"/><path d="M114.302 195.93c0-13.334 8.457-29.026 18.86-35.01 10.28-5.914 18.546-.09 18.546 13.126h.63c0-13.67-8.762-19.843-19.492-13.67-10.604 6.1-19.175 22.002-19.175 35.554h.632z" fill="#C8C8C8" fill-rule="nonzero"/><path d="M151.137 172.163l1.772-1.02c.54-.31.983.023.983.742v2.172c0 .718-.443 1.562-.984 1.872l-1.773 1.02c-.54.31-.984-.023-.984-.742v-2.172c0-.72.443-1.56.984-1.873M113.1 194.047l1.773-1.02c.54-.31.983.023.983.742v2.17c0 .72-.443 1.562-.983 1.873l-1.774 1.02c-.542.312-.985-.02-.985-.74v-2.173c0-.72.443-1.56.984-1.873" fill="#C8C8C8"/></g></svg>