<?xml version="1.0" encoding="utf-8"?>
<!-- Generator: Adobe Illustrator 22.1.0, SVG Export Plug-In . SVG Version: 6.00 Build 0)  -->
<svg version="1.1" id="Layer_1" xmlns="http://www.w3.org/2000/svg" xmlns:xlink="http://www.w3.org/1999/xlink" x="0px" y="0px"
	 viewBox="0 0 182 240" style="enable-background:new 0 0 182 240;" xml:space="preserve">
<style type="text/css">
	.st0{fill:#B3B4B4;}
	.st1{fill:#FFFFFF;}
	.st2{fill:#F6F6F6;}
	.st3{fill:#CBCCCB;}
	.st4{fill:#DFDFDE;}
	.st5{fill:#FFFFFE;}
	.st6{fill:#EBECEB;}
	.st7{fill:#D5D6D5;}
	.st8{fill:#BA1A48;}
	.st9{fill:#E84D5D;}
	.st10{fill:#D24555;}
	.st11{fill:#FCAF17;}
	.st12{fill:#54B948;}
	.st13{fill:#81BF08;}
	.st14{fill:#39B5D3;}
	.st15{fill:#00AEEF;}
	.st16{fill:#FFECC1;}
	.st17{fill:#DAECCE;}
	.st18{fill:#DBEDF2;}
	.st19{fill:#FDDBD2;}
	.st20{fill:#0092BA;}
	.st21{fill:#2EBCE3;}
	.st22{fill:#479900;}
	.st23{fill:#BF7E15;}
	.st24{fill:#1C7CA0;}
	.st25{fill:#93CE11;}
	.st26{fill:#FABB05;}
	.st27{fill:#C8C8C8;}
</style>
<g>
	<path class="st0" d="M161,129.3l6.1-3.5c2.2-1.3,4.3-3.3,5.7-5.7c1.5-2.3,2.4-4.8,2.4-6.9l0.2-43.1c0-0.8-0.1-1.5-0.4-2
		c-0.2-0.4-0.5-0.7-0.8-1l-0.1-0.1L106,27.6c-0.1,0-0.2-0.1-0.3-0.1c-0.5-0.2-1-0.3-1.7-0.2c-0.9,0.1-1.8,0.4-2.9,1l-6.3,3.6V91
		L161,129.3z M169.2,129.5l-7.2,4l0,0c-0.6,0.4-1.4,0.4-2.1,0L91.7,94.1c-0.7-0.3-1.2-1.1-1.2-1.9V30.9l0,0c0-0.4,0.1-0.7,0.3-1.1
		l0.1-0.2c0.2-0.4,0.5-0.7,0.8-0.9l7.3-4.1c1.6-0.9,3.1-1.4,4.5-1.6c1.6-0.2,3,0.1,4.2,0.7c0.1,0,0.1,0.1,0.1,0.1l0.1,0.1l0,0
		L176,63.3c0.1,0,0.2,0.1,0.3,0.2l0,0c1,0.6,1.8,1.5,2.4,2.7c0.5,1.1,0.8,2.4,0.8,3.8l-0.2,43.1c0,3-1.2,6.3-3.1,9.2
		C174.6,125.3,172.1,127.9,169.2,129.5L169.2,129.5z"/>
</g>
<g>
	<path class="st1" d="M100.8,69v-6l59.5,37l15-34.7L107,25.8l-0.1-0.1c-1.7-0.9-4.1-0.7-6.8,0.8l-7.3,4.1l-0.1,0.2v26.7l-8.2,29.9
		l7.2-4C96.6,80.6,100.8,74.1,100.8,69"/>
</g>
<g>
	<path class="st0" d="M108.8,73.8v-6v-0.5l0.4,0.3l51,20.1l14.7-24l-68-39.3l-0.1-0.1c-0.8-0.4-1.8-0.6-2.9-0.5s-2.3,0.5-3.6,1.3
		l-7.2,4.1L93,29.3v62.5l6.8-3.8c2.5-1.4,4.8-3.7,6.4-6.3C107.8,79.1,108.8,76.3,108.8,73.8L108.8,73.8z M109.4,68.3v5.5
		c0,2.6-1.1,5.5-2.8,8.2c-1.7,2.7-4,5-6.6,6.5l-7.2,4l-0.4,0.2V29.2v-0.1l0.1-0.2l0.1-0.1l7.3-4.1c1.3-0.8,2.6-1.2,3.8-1.3
		c1.1-0.1,2,0,2.8,0.4l0,0l0.4,0.2l0.1,0.1l68.3,39.5l0.2,0.1l-0.1,0.2l-15,24.4l-0.1,0.2l-0.2-0.1L109.4,68.3L109.4,68.3z"/>
</g>
<g>
	<path class="st0" d="M21.8,129.9v48.2c0,1.3,0.2,2.5,0.6,3.3c0.3,0.7,0.7,1.2,1.2,1.5c0.1,0,0.1,0.1,0.2,0.1l72.5,41.8
		c0.1,0.1,0.2,0.1,0.3,0.2c0.4,0.2,0.8,0.3,1.2,0.2c0.6,0,1.3-0.3,2-0.7l50.5-29.3c1.9-1.1,3.8-3.3,5.1-5.9c1.4-2.6,2.2-5.6,2.2-8.3
		v-48.2L87,92L21.8,129.9L21.8,129.9z M17.3,178.1v-49.5l0,0c0-0.8,0.4-1.5,1.1-1.9l67.6-39c0.7-0.4,1.5-0.4,2.3,0l72.6,42
		c0.8,0.4,1.3,1.1,1.3,2v49.5c0,3.4-1.1,7.1-2.7,10.4c-1.7,3.3-4.2,6.1-6.8,7.7l-50.5,29.4c-1.4,0.8-2.7,1.2-4,1.3
		c-1.4,0.1-2.8-0.2-3.9-1l0,0l-72.6-41.9c-0.1-0.1-0.3-0.1-0.4-0.2c-1.3-0.8-2.3-2-2.9-3.5C17.6,181.8,17.3,180,17.3,178.1
		L17.3,178.1z"/>
</g>
<g>
	<path class="st2" d="M19.9,128.6v49.5c0,3.4,1.1,5.8,2.9,6.8l0,0l68.9,39.8c2.2,1.3,3.7,1.9,6.1,2.2l26.3-21.6
		c4.7-2.7,8.5-9.9,8.5-16.1v-41.5l-39.8,22.1L19.9,128.6"/>
</g>
<g>
	<path class="st0" d="M132.4,147.5l-39.6,22.3L19.9,128l-0.4-0.2V178l0,0c0,1.7,0.3,3.1,0.8,4.3l-0.2-1.1l0.2,0.8l0.4,0.7l-0.4-0.5
		c0.4,1,1.1,1.9,1.8,2.4c0.1,0.1,0.3,0.2,0.4,0.3l-0.4-0.4h0.1l0.3,0.4l0,0l0,0l0.7,0.4l72.7,42l0.3,0.2l0.1-0.4l0.7-3.5l27.2-18.3
		c2.4-1.4,4.5-3.9,6.1-6.8c1.6-3,2.5-6.3,2.5-9.5v-42L132.4,147.5z M19.4,178l0.1,0.4l0,0v0.3L19.4,178z M132.2,189.2
		c0,3-0.9,6.4-2.5,9.2c-1.5,2.9-3.6,5.3-5.9,6.6l-27.3,18.3l-0.1,0.1v0.1l-0.7,3.2l-73-42.2l0,0l0,0l0,0l0,0l0,0
		c-0.9-0.5-1.6-1.3-2-2.5c-0.5-1.1-0.7-2.5-0.7-4.1v-49.2l72.6,41.6l0.1,0.1l0.1-0.1l39.3-22.2L132.2,189.2L132.2,189.2z"/>
</g>
<g>
	<path class="st1" d="M92.9,170.1v49.4c0,6.2,3.8,9.1,8.5,6.4l50.1-28.8c4.6-2.7,8.5-9.9,8.5-16.1v-49.5l-66.9,38.6L92.9,170.1"/>
</g>
<g>
	<path class="st0" d="M93.1,170.5v49.1c0,2,0.4,3.6,1.1,4.8c0.4,0.8,1,1.4,1.6,1.8s1.4,0.6,2.2,0.6c1,0,2-0.3,3.2-0.9l50.2-28.8
		c2.3-1.3,4.4-3.7,5.9-6.6c1.5-2.9,2.5-6.2,2.5-9.2v-49L93.1,170.5L93.1,170.5L93.1,170.5z M92.5,219.6v-49.9l0.4,0.2l0,0l67.2-38.8
		v50c0,3.1-1,6.5-2.5,9.5c-1.6,3-3.7,5.5-6.1,6.8l-50.2,28.8c-1.2,0.7-2.4,1-3.5,1c-0.9,0-1.7-0.2-2.5-0.7c-0.7-0.4-1.3-1.1-1.8-1.9
		C93,223.3,92.5,221.6,92.5,219.6L92.5,219.6z"/>
</g>
<g>
	<path class="st3" d="M87,89.5l72.9,42.1l-67,38.5l-72.8-42L87,89.5"/>
</g>
<g>
	<path class="st4" d="M139.3,124.1l12.5,7.3l-12.5,7.1c0.6-1.5,1.3-3.9,1.3-7C140.7,128.3,139.9,125.7,139.3,124.1"/>
</g>
<g>
	<path class="st5" d="M56.6,111.7v-4.3l-36.5,21l72.8,42l66.9-38.6l-16.3-9.4l-4,1.8l11.7,7.4l-58.3,33.7l-54.4-31l-2.4-10.9
		L56.6,111.7"/>
</g>
<g>
	<path class="st0" d="M87.2,89.3l72.8,42.1c0.1,0.1,0.2,0.2,0.1,0.4l-0.1,0.1l0,0l-67,38.7c-0.1,0.1-0.2,0-0.3,0l-73.1-42
		c-0.1-0.1-0.2-0.2-0.1-0.4l0.1-0.1l67.2-38.8C87,89.2,87.1,89.2,87.2,89.3L87.2,89.3z M159.3,131.6L87,89.8l-66.7,38.4l72.5,41.7
		L159.3,131.6L159.3,131.6z"/>
</g>
<g>
	<path class="st1" d="M177.4,113.3l0.2-43.1c0-5.1-4.1-6.9-9.1-4.1l-7.3,4.1l-0.1,0.2v61.4l7.2-4
		C173.2,124.8,177.4,118.3,177.4,113.3"/>
</g>
<g>
	<path class="st0" d="M177.2,113.3l0.2-43.1c0-1.2-0.2-2.3-0.7-3.1c-0.4-0.7-0.9-1.2-1.5-1.5s-1.4-0.5-2.2-0.5
		c-1.3,0-2.8,0.4-4.3,1.3l-7.5,4.2l-0.1,0.1v60.7l7-4c2.5-1.4,4.7-3.7,6.4-6.3C176.1,118.6,177.1,115.7,177.2,113.3L177.2,113.3z
		 M177.8,70.1l-0.2,43.1c0,2.6-1.1,5.5-2.8,8.2c-1.7,2.6-4,5-6.6,6.5l-7.4,4.2l-0.4,0.2V70.5v-0.1l0.1-0.2l0.1-0.1l7.5-4.2
		c1.7-0.9,3.2-1.4,4.6-1.4c0.9,0,1.7,0.2,2.4,0.6c0.7,0.4,1.3,1,1.7,1.7C177.6,67.6,177.8,68.8,177.8,70.1L177.8,70.1z"/>
</g>
<g>
	<path class="st5" d="M92.7,92.3V30.9L161,70.4v61.3L92.7,92.3"/>
</g>
<g>
	<path class="st6" d="M157.2,128.9V72.2L95.4,36.4l0.3,16.5v40.8l55.7,32.5l5.7,3.2L157.2,128.9z"/>
</g>
<path class="st7" d="M135.9,75.5c-9.1-14.3-19.9-23.9-32-28.5c-2.9-1.1-5.7-1.8-8.3-2l0.1,5.8c2,0.2,4,0.8,6.2,1.6
	c10.9,4.2,20.7,13,29.2,26.2c0.1,0.1,0.2,0.3,0.3,0.5l-1.2,0.7c-2,1.2-4,2.3-6,3.5c-0.1,0-0.2,0.1-0.3,0.1L112.5,90l-0.4-0.7l0,0
	c-0.6-1-1.3-2-1.9-2.9c-0.1-0.2-0.3-0.4-0.4-0.6l-0.2-0.3c-0.5-0.7-1-1.4-1.4-2c-0.2-0.3-0.4-0.6-0.6-0.8c-0.5-0.7-1-1.3-1.5-1.9
	l-0.5-0.7c-0.6-0.7-1.2-1.5-1.8-2.2l-0.2-0.3c-2.4-2.7-4.9-5.2-7.5-7.4V78c1.1,1.1,2.2,2.2,3.2,3.4l0.2,0.2c0.6,0.7,1.1,1.3,1.7,2
	l0.5,0.6c0.5,0.6,0.9,1.2,1.4,1.8c0.2,0.3,0.4,0.5,0.6,0.8c0.5,0.6,0.9,1.2,1.4,1.9l0.6,0.8c0.6,0.9,1.2,1.8,1.9,2.8l0,0l0.5,0.8
	c0,0.1,0.1,0.1,0.1,0.2c-0.3,0.8-0.2,1.8,0.3,2.6c0.5,0.9,1.5,1.3,2.4,1.3c0.5,0,1-0.1,1.4-0.4l14.7-8.5c0.1-0.1,0.3-0.1,0.4-0.2
	c2-1.2,4-2.3,6-3.5l2.1-1.2c1-0.6,2.2-1.3,2.6-2.9C138.1,79,137.3,77.7,135.9,75.5L135.9,75.5z"/>
<g>
	<path class="st7" d="M90,64.3v26.5l57.9,33.4v-18.8c0-4-2.5-8.8-5.6-10.6L90,64.3"/>
</g>
<g>
	<path class="st0" d="M157.6,129.7l-0.5-0.3V72.2L95.7,36.6v57.3l-0.5-0.3V36.2c0-0.1,0.1-0.3,0.3-0.3c0.1,0,0.1,0,0.1,0l61.9,35.9
		c0.1,0,0.1,0.1,0.1,0.2V129.7"/>
</g>
<g>
	<path class="st0" d="M92.3,92.2V30.8c0-0.1,0.1-0.3,0.3-0.3c0.1,0,0.1,0,0.2,0L161,70c0.1,0,0.1,0.1,0.1,0.2v61.3
		c0,0.1-0.1,0.3-0.3,0.3c-0.1,0-0.1,0-0.1,0L92.5,92.3C92.4,92.4,92.3,92.3,92.3,92.2L92.3,92.2z M92.9,31.3V92l67.6,39.2V70.5
		C160.5,70.5,92.9,31.3,92.9,31.3z"/>
</g>
<g>
	<path class="st6" d="M59.3,169.7l-9.3-5.4l-3.1,2.2l2.1,4.7l3.3,10.1l2.6,3.3c3.8-2.3,4.2-2.8,4.3-6L59.3,169.7"/>
</g>
<g>
	<path class="st0" d="M58.9,169.9l-8.9-5.2l-2.6,1.8l2,4.3l3.2,10l2.4,3c1.6-1,2.6-1.6,3.1-2.3s0.7-1.6,0.7-3.1L58.9,169.9
		L58.9,169.9z M50.2,163.9l9.3,5.4c0.1,0.1,0.2,0.2,0.2,0.4v8.8c0,1.7-0.2,2.7-0.9,3.6c-0.6,0.9-1.7,1.6-3.6,2.7
		c-0.2,0.1-0.4,0.1-0.6-0.1l-2.6-3.3l0,0l-3.3-10.1l0,0c0,0,0,0,0-0.1l-2.1-4.6c-0.1-0.2,0-0.4,0.1-0.5l3.1-2.2
		C49.9,163.8,50.1,163.8,50.2,163.9L50.2,163.9z"/>
</g>
<g>
	<path class="st2" d="M56.3,171.6l-9.3-5.1v9.9c0,7.9,9.3,11.5,9.3,5.3V171.6"/>
</g>
<g>
	<polygon class="st0" points="56,112.1 36.1,123.5 36.1,124.1 56,112.7 	"/>
	<path class="st0" d="M47.2,166.1c-0.2-0.2-0.5-0.1-0.5,0.1c-0.1,0.1-0.1,0.1-0.1,0.2v9.9c0,3.9,2.1,6.8,4.4,8.1
		c0.7,0.4,1.4,0.7,2.1,0.8s1.3,0.1,1.9-0.2c1-0.5,1.7-1.6,1.7-3.3v-10.1c0-0.2-0.1-0.3-0.2-0.4L47.2,166.1z M55.8,181.6
		c0,1.4-0.5,2.2-1.2,2.5c-0.5,0.2-1,0.3-1.5,0.2c-0.6-0.1-1.2-0.4-1.8-0.7c-2.1-1.2-4-3.8-4-7.3v-9.2l8.5,4.7V181.6z"/>
	<path class="st0" d="M151.9,131.3l-23.1-13.4v0.6l22.4,13l-58.3,33.7l-56.8-32.3v0.7l56.6,32.2c0.1,0,0.2,0.1,0.3,0l58.9-34
		l0.1-0.1C152.1,131.5,152,131.4,151.9,131.3z"/>
</g>
<path class="st8" d="M112.3,26.5l4-2.4c0-0.1,0.1,0,0.2-0.1v-0.1l0,0c0.7-0.3,1.7-0.3,2.7,0.3l31,17.7c2.3,1.3,4.2,5,4.2,8
	l-0.1,36.4c0,2.4-0.9,3.1-2.5,4l-2.8,1.7l-12.3-37.4L112.3,26.5"/>
<path class="st9" d="M115.1,74.2l31,17.7c2.3,1.3,4.3-0.1,4.3-3.2l0.1-36.4c0-3.1-1.9-6.7-4.2-8l-31-17.7c-2.3-1.3-4.3,0.1-4.3,3.2
	l-0.1,36.4C110.8,69.3,112.8,72.9,115.1,74.2"/>
<path class="st10" d="M130.1,69.4c-5.7-8.9-12.1-15.7-19.2-20.3v6.1c5.4,4.1,10.4,9.8,15,16.9c0.1,0.1,0.2,0.3,0.3,0.4l-1.1,0.6
	c-1.7,1-3.4,1.9-5.1,3l5,2.9c0.9-0.5,1,2.6,1.9,2.1l4.6,2.6C137.3,79.4,131.3,71.2,130.1,69.4L130.1,69.4z"/>
<g>
	<path class="st1" d="M141.7,48.5c-1.1-0.4-2,0.1-2,1.3v29c0,1.1,0.9,2.4,2,2.8c1.1,0.4,2-0.1,2-1.3v-29
		C143.8,50.1,142.9,48.9,141.7,48.5z"/>
	<path class="st1" d="M134.2,61.9c-1.1-0.4-2,0.1-2,1.3v11c0,1.1,0.9,2.4,2,2.8s2-0.1,2-1.3v-11C136.2,63.5,135.3,62.3,134.2,61.9z"
		/>
	<path class="st1" d="M126.6,47c-1.1-0.4-2,0.1-2,1.3V70c0,1.1,0.9,2.4,2,2.8c1.1,0.4,2-0.1,2-1.3V49.8
		C128.7,48.7,127.7,47.4,126.6,47z"/>
	<path class="st1" d="M119.1,50.8c-1.1-0.4-2,0.1-2,1.3v13.6c0,1.1,0.9,2.4,2,2.8s2-0.1,2-1.3V53.6
		C121.1,52.5,120.2,51.2,119.1,50.8z"/>
</g>
<path class="st1" d="M87,82.3c-0.1-2.8,0.4-5.1,1-7.4c-3.5-5.4-7-10.7-10.6-16.1c-1.9,2.9-2.9,6.8-3.3,11.1
	c-0.1,0.9-0.2,1.9-0.2,2.9L57.3,83.3l9.9,18.7L88,89.9C87.5,87.4,87,84.7,87,82.3z"/>
<path class="st11" d="M67.2,104.6c-0.2,0-0.5,0-0.7-0.1c-0.7-0.2-1.2-0.6-1.5-1.2l-9.9-18.7c-0.6-1.2-0.2-2.6,0.9-3.3l15.5-9.8
	c0-0.6,0.1-1.2,0.1-1.8c0.6-5.3,1.8-9.2,3.7-12.2c0.5-0.7,1.2-1.1,2.1-1.1l0,0c0.8,0,1.6,0.4,2.1,1.1l10.6,16.1
	c0.4,0.6,0.5,1.3,0.3,2c-0.5,2-1,4.2-0.9,6.8l0,0c0,2.2,0.5,4.5,0.9,7l0.1,0.3c0.2,1-0.3,2.1-1.2,2.6l-20.8,12.1
	C68.1,104.5,67.6,104.6,67.2,104.6z M60.6,84.2l7.6,14.4l17-9.9c-0.4-2.1-0.7-4.3-0.7-6.4l0,0c0-2.7,0.4-5,0.8-7l-7.5-11.4
	c-0.6,1.8-1,3.8-1.2,6.3c-0.1,0.8-0.1,1.6-0.2,2.7c0,0.8-0.5,1.6-1.2,2L60.6,84.2z"/>
<path class="st1" d="M117.7,120.2c-2.8,0.3-5.8-0.3-9.1-1.9c-5.9-2.9-11-8.2-15.4-15.5c-2.5-4.1-4-8.4-5.3-12.8l-20.8,12.1
	c1.2,4.4,2.8,8.7,5.3,12.8c4.4,7.3,9.4,12.6,15.4,15.5c3.3,1.6,6.3,2.2,9.1,1.9c0.7,1.1,1.5,2.2,2.2,3.4c6.9,0.1,13.4-0.2,17.6,1
	c4.2,1.1,8,1,11.2-0.8C124.5,130.6,121.1,125.4,117.7,120.2z"/>
<path class="st12" d="M121.8,139.8c-1.8,0-3.7-0.3-5.7-0.8c-3-0.8-7.8-0.8-12.9-0.8c-1.3,0-2.7,0-4.1,0c-0.8,0-1.6-0.4-2.1-1.1
	l-1.4-2.2c-2.9,0-5.8-0.7-8.9-2.3c-6.2-3.1-11.8-8.6-16.4-16.5c-2.3-3.8-4-8.1-5.5-13.4c-0.3-1.1,0.2-2.3,1.2-2.8l18.9-11l2.4,0.8
	c0.7-0.4,1.5-0.4,2.2-0.2c0.7,0.3,1.3,0.9,1.5,1.6c1.4,4.9,2.4,6.9,4.4,10.3c4.1,7,9,11.9,14.3,14.5c2.8,1.4,5.4,1.9,7.8,1.7
	c0.9-0.1,1.8,0.3,2.4,1.1l10.2,15.6c0.4,0.6,0.5,1.3,0.3,2s-0.6,1.2-1.2,1.6C127,139.2,124.5,139.8,121.8,139.8z M100.5,133.2
	c0.9,0,1.8,0,2.7,0c5.6,0,10.5,0,14.1,1c2.6,0.7,4.8,0.8,6.8,0.4l-7.7-11.8c-2.9,0-5.8-0.7-8.9-2.3c-6.2-3.1-11.8-8.6-16.4-16.5
	c-1.8-3.1-3.3-6.4-4.6-10.3l-16.4,9.5c1.2,4,2.7,7.3,4.5,10.3c4.1,7,9,11.9,14.3,14.5c2.8,1.4,5.4,1.9,7.8,1.7
	c0.9-0.1,1.8,0.3,2.4,1.1L100.5,133.2z"/>
<path class="st1" d="M67.2,102.1c-3.5,1.1-7,2.2-10.6,3.3c-1.7-4.6-2.6-9-3.1-13.3c-0.4-3.6-0.6-6.9-0.2-10
	c0.5-4.3,1.4-8.2,3.3-11.1c3.5,5.4,7,10.7,10.6,16.1c-0.6,2.3-1.1,4.6-1,7.4C66.2,96.8,66.7,99.4,67.2,102.1z"/>
<path class="st11" d="M56.6,107.8c-1,0-2-0.6-2.3-1.6c-1.6-4.4-2.6-8.9-3.3-13.9c-0.5-4-0.6-7.5-0.2-10.6c0.6-5.3,1.8-9.2,3.7-12.2
	c0.5-0.7,3-4.7,3.9-4.7l-1.8,3.5c0.8,0,1.6,0.4,2.1,1.1l10.6,16.1c0.4,0.6,0.5,1.3,0.3,2c-0.5,2-1,4.2-0.9,6.8c0,2.2,0.5,4.5,0.9,7
	l0.1,0.3c0.2,1.2-0.5,2.5-1.7,2.8l-10.6,3.3C57.1,107.8,56.9,107.8,56.6,107.8z M57,76c-0.6,1.8-1,3.8-1.2,6.3
	c-0.3,2.7-0.2,5.8,0.2,9.5c0.5,3.7,1.2,7.2,2.2,10.5l6.1-1.9c-0.3-2-0.6-4-0.7-5.9c0-2.7,0.4-5,0.8-7L57,76z"/>
<path class="st1" d="M67.2,102.1c1.2,4.4,2.8,8.7,5.3,12.8c4.4,7.3,9.4,12.6,15.4,15.5c3.3,1.6,6.3,2.2,9.1,1.9
	c3.4,5.2,6.8,10.4,10.2,15.6c-3.2,1.7-7,1.9-11.2,0.8c-10.6-2.8-20.5-10.4-29.5-23.6c-4.2-6.2-7.6-12.8-9.8-19.8
	C60.2,104.2,63.7,103.2,67.2,102.1z"/>
<path class="st13" d="M101,151.9c-1.8,0-3.7-0.3-5.7-0.8c-11.4-3-21.8-11.3-30.9-24.6c-4.4-6.4-7.8-13.3-10.1-20.4
	c-0.2-0.6-0.1-1.3,0.2-1.9c0.3-0.6,0.8-1,1.5-1.2l10.6-3.3c0.6-0.2,1.3-0.1,1.9,0.2s1,0.9,1.2,1.5c1.4,4.9,3,8.7,5,12.2
	c4.1,7,9,11.9,14.3,14.5c2.8,1.4,5.4,1.9,7.8,1.7c0.9-0.1,1.8,0.3,2.4,1.1l10.2,15.6c0.4,0.6,4.8-0.5,4.6,0.2
	c-0.2,0.7-4.9,3-5.5,3.3C106.2,151.3,103.7,151.9,101,151.9z M59.8,107c2.1,5.8,5,11.4,8.7,16.7c8.4,12.3,17.9,19.8,28.1,22.6
	c2.6,0.7,4.8,0.8,6.7,0.4l-7.7-11.8c-2.9,0-5.8-0.7-8.9-2.3c-6.2-3.1-11.8-8.6-16.4-16.5c-1.9-3.2-3.5-6.7-4.8-10.9L59.8,107z"/>
<path class="st1" d="M137.2,105.9c-0.1-0.7-0.3-1.1-0.9-1.5c-9.7-5.9-19.4-11.7-29.1-17.6c-0.7-0.4-0.8-0.3-0.8,0.5
	c0,4.3,0,8.6,0,12.9c0,0.9,0.2,1.3,1,1.8c5.1,3,10.2,6.2,15.3,9.2c0.6,0.4,1,0.6,1.2,0.8l-7.9,4.8l0,0c0.3,0.3,0.5,0.7,0.5,1.2
	c0.9,8.2,0.6,15.5-1.8,21.4c-1.1,2.8-2.6,5.2-4.6,6.8l-2.1,1.4c0,0,18.9-10.4,22.4-13.1c2.2-1.7,3.9-4.2,5.1-7.2
	C137.8,121.4,138.1,114.1,137.2,105.9z"/>
<path class="st14" d="M108.5,148.6c-0.8,0-0.9,0.1-1.3-0.7c-0.7-1.1-1.7-1.7-0.6-2.4l2-1.3c1.5-1.3,2.8-3.2,3.8-5.7
	c2-5,2.5-11.6,1.6-20.1c-0.4-0.5-0.6-1.2-0.5-1.8c0.1-0.8,0.5-1.5,1.2-1.9l4.5-2.7l-1.6-1c-3.8-2.3-7.5-4.6-11.3-6.8
	c-1.5-0.9-2.2-2.1-2.2-3.9c0-3.8,0-7.8,0-12.9c0-1.4,0.5-2.3,1.4-2.9c0.7-0.4,1.8-0.6,3.2,0.2c9.7,5.9,19.4,11.8,29.1,17.6
	c1.2,0.8,1.9,1.8,2.1,3.3c1,9.4,0.4,16.7-1.9,22.6c-1.4,3.6-3.4,6.4-5.9,8.3c-3.6,2.8-19,11.3-19.8,11.7
	C109.8,149.2,108.9,148.6,108.5,148.6z M118.9,117.9c0.9,8.8,0.4,15.9-1.7,21.6c5-2.9,10-5.8,11.6-7c1.7-1.3,3.2-3.4,4.3-6.2
	c2-5,2.5-11.5,1.6-19.9c-8.6-5.2-17.2-10.4-25.8-15.6c0,3.4,0,6.4,0,9.2c3.7,2.2,7.4,4.5,11.1,6.7l4.2,2.6c0.5,0.3,0.9,0.5,1.2,0.8
	c0.6,0.5,1,1.3,0.9,2.1s-0.5,1.5-1.2,2L118.9,117.9z M114.2,118.6L114.2,118.6L114.2,118.6z"/>
<path class="st1" d="M107.2,147.9c-3.4-5.2-6.8-10.4-10.2-15.6c2.9-0.8,5.1-2.8,6.1-6.4c0.5-1.8,0.7-1.5-1.1-2.6
	c-5.1-3.1-10.2-6.2-15.3-9.2c-0.8-0.5-1-0.9-1-1.8c0-4.3,0-8.6,0-12.9c0-0.8,0.1-0.9,0.8-0.5c9.7,5.9,19.4,11.8,29.1,17.6
	c0.6,0.4,0.8,0.8,0.9,1.5c0.9,8.2,0.6,15.5-1.8,21.4C113,143.4,110.6,146.5,107.2,147.9z"/>
<path class="st15" d="M108.9,149.4c-0.8,0-1.6-0.4-2.1-1.1l-10.2-15.6c-0.4-0.7-2.3-0.5-2-1.2s0.9-1.3,1.7-1.5
	c2.2-0.6,3.6-2,4.3-4.5l-3.9-2.4c-3.8-2.3-7.5-4.6-11.3-6.8c-1.5-0.9-2.2-2.1-2.2-3.9c0-3.8,0-7.8,0-12.9c0-1.4,0.5-2.3,1.4-2.9
	c0.7-0.4,1.7-0.6,3.2,0.2c9.7,5.9,19.4,11.8,29.1,17.6c1.2,0.8,1.9,1.8,2.1,3.3c1,9.4,0.4,16.7-1.9,22.6c-2,5-3.2,7.3-7.1,9
	C109.5,149.3,109.2,149.4,108.9,149.4z M100.7,133.4l7.3,11.2c1.8-1.3,3.2-3.3,4.4-6.2c2-5,2.5-11.5,1.6-19.9
	c-8.6-5.2-17.2-10.4-25.8-15.6c0,3.4,0,6.4,0,9.2c3.7,2.2,7.4,4.5,11.1,6.7l4.3,2.6c1.9,1.1,2.7,2.2,2,4.6c0,0.1-0.1,0.3-0.1,0.5
	C104.6,129.6,103,131.9,100.7,133.4z"/>
<polygon class="st1" points="115.9,116.8 136.3,104.4 106.6,86.5 85.8,98.5 "/>
<path class="st14" d="M115.9,119.3c-0.4,0-0.9-0.1-1.3-0.4l-30.1-18.3c-0.8-0.5-1.2-1.3-1.2-2.2s0.5-1.7,1.2-2.1l4.8-2.8l-0.8-3.3
	l-0.6-3.3l6,4l11.4-6.6c0.8-0.5,1.8-0.5,2.5,0l29.7,18c0.7,0.5,1.2,1.3,1.2,2.1s-0.5,1.7-1.2,2.1l-20.4,12.4
	C116.8,119.2,116.4,119.3,115.9,119.3z M90.7,98.6l25.2,15.3l15.6-9.4l-24.9-15.1L90.7,98.6z"/>
<path class="st1" d="M56.6,70.9c1.2-2.6,3-4.4,5.1-5.8c4.8-3.2,10.6-3.7,17.5-1.1C89,67.7,98,75.5,105.8,87.8
	c1.7,2.6,1.6,2.6,0.2,3.5c-2.4,1.4-4.7,2.7-7.1,4.1c-0.4,0.3-0.6,0.3-1.2-0.6c-3.7-6.1-8.1-10.6-13-13.1c-8.4-4.3-14.1-2.4-17.3,4.9
	c-0.1,0.1-0.1,0.3-0.2,0.4C63.7,81.6,60.2,76.2,56.6,70.9z"/>
<g>
	<path class="st6" d="M117,53.8v11.9c0,1.1,0.9,2.4,2,2.8s2-0.1,2-1.3v-9.5C119.8,56.3,118.4,55,117,53.8z"/>
	<path class="st6" d="M124.6,69.9c0,1.1,0.9,2.4,2,2.8c1.1,0.4,2-0.1,2-1.3v-4.2c-1.3-1.9-2.7-3.8-4.1-5.5L124.6,69.9L124.6,69.9z"
		/>
	<path class="st6" d="M132.1,72.7v1.4c0,1,0.7,2,1.6,2.6C133.4,75.3,132.8,73.9,132.1,72.7z"/>
</g>
<path class="st9" d="M98.4,98c-0.9,0-2-0.4-2.9-2c-3.5-5.8-7.6-9.9-12-12.2c-3.7-1.9-6.8-2.4-9.1-1.6c-1.9,0.7-3.6,2.5-4.8,5.3
	c-0.1,0.2-0.2,0.4-0.3,0.6c-0.4,0.8-1.2,1.3-2.1,1.3s-0.3-1.8-0.7-2.5L55.9,70.8c-0.5-0.7-0.9-2.2-0.4-2.9c1-1.7,2.1-3.1,4.7-4.9
	c5.6-3.8,12.2-4.2,19.8-1.3c10.5,4,19.9,12.3,27.8,24.8c1.2,1.9,1.9,3,1.6,4.5c-0.3,1.4-1.4,2-2.3,2.5l-1.8,1c-1.7,1-3.5,2-5.2,3
	C99.8,97.8,99.2,98,98.4,98z M76.7,76.9c2.7,0,5.8,0.8,9.1,2.5c5,2.5,9.4,6.9,13.3,12.9c1.3-0.7,2.5-1.5,3.8-2.2l1-0.6
	c-0.1-0.1-0.2-0.3-0.3-0.4c-7.4-11.5-15.9-19.2-25.4-22.8c-6-2.3-11-2-15.2,0.8c-1.5,1-2.7,2.2-3.6,3.6l7.5,11.4
	c1.6-2.2,3.5-3.7,5.8-4.6C74,77.1,75.3,76.9,76.7,76.9z"/>
<path class="st1" d="M126.6,75.7c-7.8-12.3-16.8-20-26.6-23.8c-6.2-2.4-11.5-2.2-16,0.2l0,0h-0.1c-0.3,0.2-0.6,0.3-0.9,0.5
	L63.6,63.9l0,0c0.5-0.2,0.9-0.4,1.4-0.6c0.1,0,0.2-0.1,0.3-0.1c0.2-0.1,0.4-0.1,0.5-0.2c0.1,0,0.3-0.1,0.4-0.1
	c0.2-0.1,0.4-0.1,0.5-0.1s0.3-0.1,0.4-0.1c0.2,0,0.4-0.1,0.5-0.1c0.2,0,0.3-0.1,0.5-0.1s0.3-0.1,0.5-0.1s0.3,0,0.5,0s0.3,0,0.5,0
	s0.4,0,0.6,0s0.3,0,0.4,0c0.3,0,0.7,0,1,0c0.1,0,0.3,0,0.4,0c0.2,0,0.4,0,0.7,0.1c0.2,0,0.3,0,0.5,0.1c0.2,0,0.4,0.1,0.6,0.1
	s0.3,0.1,0.5,0.1s0.4,0.1,0.7,0.1c0.2,0,0.3,0.1,0.5,0.1c0.2,0.1,0.5,0.1,0.7,0.2c0.2,0,0.3,0.1,0.5,0.1c0.3,0.1,0.5,0.2,0.8,0.2
	c0.1,0,0.3,0.1,0.4,0.1c0.4,0.1,0.8,0.3,1.2,0.4c0.8,0.3,1.5,0.6,2.3,1l0,0l0,0c6,2.7,11.7,7,16.9,13c0.1,0.1,0.1,0.2,0.2,0.2
	c0.5,0.6,1,1.2,1.5,1.8c0.2,0.2,0.3,0.4,0.5,0.6c0.4,0.5,0.8,1.1,1.3,1.6c0.2,0.2,0.4,0.5,0.5,0.7c0.4,0.6,0.8,1.1,1.2,1.7
	c0.2,0.2,0.3,0.5,0.5,0.7c0.6,0.8,1.1,1.6,1.6,2.5l0,0l0,0c0.1,0.2,0.3,0.4,0.4,0.6c0,0,0,0.1,0.1,0.1c0.1,0.2,0.2,0.4,0.3,0.5
	c0,0,0,0,0,0.1c0.2,0.3,0.3,0.6,0.4,0.8l0,0c0,0.1,0,0.2,0,0.3l0,0c0,0.2-0.1,0.3-0.2,0.4l0,0c-0.1,0.1-0.2,0.1-0.3,0.2l0,0
	l12.9-7.5c0.1,0,0.1-0.1,0.2-0.1c2.3-1.4,4.7-2.7,7.1-4.1C128.2,78.3,128.2,78.3,126.6,75.7z"/>
<path class="st9" d="M106.6,93.4c-0.8,0-1.6-0.4-2.1-1.2c-0.4-0.7-0.5-1.5-0.2-2.2l-0.1-0.1l-0.4-0.7l0,0c-0.5-0.9-1.1-1.7-1.6-2.4
	l-0.5-0.7c-0.4-0.6-0.8-1.1-1.2-1.6c-0.2-0.2-0.3-0.5-0.5-0.7c-0.4-0.5-0.8-1.1-1.2-1.6l-0.4-0.5c-0.5-0.6-1-1.2-1.5-1.8l-0.2-0.2
	c-4.9-5.6-10.4-9.7-16.1-12.3c-0.8-0.4-1.5-0.7-2.2-0.9c-0.4-0.1-0.7-0.3-1.1-0.4L77,66c-0.2-0.1-0.5-0.2-0.7-0.2l-0.4-0.1
	c-0.2-0.1-0.4-0.1-0.6-0.2l-0.4-0.1c-0.2,0-0.4-0.1-0.6-0.1l-0.4-0.1c-0.2,0-0.4-0.1-0.6-0.1L72.9,65c-0.2,0-0.4,0-0.6,0h-0.4
	c-0.3,0-0.6,0-0.9,0h-0.5c-0.1,0-0.3,0-0.4,0s-0.2,0-0.3,0h-0.1c-0.1,0-0.3,0-0.4,0s-0.3,0-0.4,0.1c-0.1,0-0.3,0-0.4,0.1
	c-0.2,0-0.3,0.1-0.4,0.1s-0.3,0.1-0.4,0.1s-0.3,0.1-0.4,0.1L67,65.6h-0.1c-0.1,0-0.3,0.1-0.4,0.1l-0.3,0.1c-0.4,0.2-0.8,0.3-1.2,0.5
	c-1.2,0.6-2.7,0.1-3.3-1.1s-1.5-2.3-0.4-2.9L82,50.6c0.3-0.2,0.6-0.4,0.9-0.5H83l0,0c5.2-2.8,11.3-2.9,18.1-0.3
	c10.5,4,19.9,12.3,27.8,24.8l0,0c1.2,1.9,1.9,3,1.6,4.5c-0.3,1.4-1.4,2-2.3,2.5l-1.9,1.1c-1.7,1-3.5,2-5.2,3
	c-0.1,0.1-0.3,0.1-0.4,0.2L108,93.3C107.4,93.3,107,93.4,106.6,93.4z M107.9,86.4L107.9,86.4l0.4,0.6l9.9-5.8c0.1,0,0.2-0.1,0.2-0.1
	c1.7-1,3.5-2,5.2-3l1.1-0.6c-0.1-0.1-0.2-0.3-0.3-0.4C117,65.6,108.5,57.9,99,54.3c-5.4-2-10-2-13.9,0.1l0,0l0,0
	c-0.2,0.1-0.5,0.3-0.7,0.4L75,60.2c0.2,0,0.4,0.1,0.7,0.1c0.2,0,0.4,0.1,0.5,0.1c0.3,0.1,0.5,0.1,0.8,0.2l0.5,0.1
	c0.3,0.1,0.6,0.2,0.9,0.3l0.4,0.1c0.4,0.1,0.9,0.3,1.3,0.5c0.7,0.3,1.5,0.6,2.4,1c6.4,2.9,12.4,7.5,17.8,13.6l0.2,0.2
	c0.5,0.6,1.1,1.2,1.6,1.9l0.5,0.6c0.4,0.5,0.9,1.1,1.3,1.7c0.2,0.2,0.4,0.5,0.6,0.7c0.4,0.6,0.8,1.2,1.3,1.7l0.2,0.2
	c0.1,0.2,0.2,0.3,0.3,0.5C106.8,84.7,107.3,85.5,107.9,86.4z M118.4,81.2L118.4,81.2L118.4,81.2z M118.5,81.1L118.5,81.1L118.5,81.1
	z"/>
<path class="st16" d="M87,82.3c-0.1-2.8,0.4-5.1,1-7.4c-3.5-5.4-7-10.7-10.6-16.1c-1.9,2.9-2.9,6.8-3.3,11.1
	c-0.1,0.9-0.2,1.9-0.2,2.9L57.3,83.3l9.9,18.7L88,89.9C87.5,87.4,87,84.7,87,82.3z"/>
<path class="st11" d="M67.2,102.6L67.2,102.6c-0.2,0-0.3-0.1-0.4-0.2l-9.9-18.7c-0.1-0.2,0-0.5,0.2-0.7l16.4-10.4
	c0-1,0.1-1.9,0.2-2.7c0.6-5,1.7-8.6,3.4-11.3c0.1-0.1,0.2-0.2,0.4-0.2l0,0c0.2,0,0.3,0.1,0.4,0.2l10.6,16.1c0.1,0.1,0.1,0.3,0.1,0.4
	c-0.5,2.2-1,4.5-1,7.3l0,0c0,2.3,0.5,4.9,1,7.3l0.1,0.3c0,0.2-0.1,0.4-0.2,0.5l-20.8,12.1C67.4,102.5,67.3,102.6,67.2,102.6z
	 M58,83.5l9.4,17.9l20-11.6c-0.5-2.5-0.9-5-1-7.4l0,0c-0.1-2.8,0.4-5.2,1-7.3l-10-15.2c-1.4,2.5-2.4,5.8-2.9,10.2
	c-0.1,0.8-0.2,1.7-0.2,2.9c0,0.2-0.1,0.3-0.2,0.4L58,83.5z"/>
<path class="st17" d="M117.7,120.2c-2.8,0.3-5.8-0.3-9.1-1.9c-5.9-2.9-11-8.2-15.4-15.5c-2.5-4.1-4-8.4-5.3-12.8l-20.8,12.1
	c1.2,4.4,2.8,8.7,5.3,12.8c4.4,7.3,9.4,12.6,15.4,15.5c3.3,1.6,6.3,2.2,9.1,1.9c0.7,1.1,1.5,2.2,2.2,3.4c6.9,0.1,13.4-0.2,17.6,1
	c4.2,1.1,8,1,11.2-0.8C124.5,130.6,121.1,125.4,117.7,120.2z"/>
<path class="st1" d="M67.2,102.1c-3.5,1.1-7,2.2-10.6,3.3c-1.7-4.6-2.6-9-3.1-13.3c-0.4-3.6-0.6-6.9-0.2-10
	c0.5-4.3,1.4-8.2,3.3-11.1c3.5,5.4,7,10.7,10.6,16.1c-0.6,2.3-1.1,4.6-1,7.4C66.2,96.8,66.7,99.4,67.2,102.1z"/>
<path class="st1" d="M67.2,102.1c1.2,4.4,2.8,8.7,5.3,12.8c4.4,7.3,9.4,12.6,15.4,15.5c3.3,1.6,6.3,2.2,9.1,1.9
	c3.4,5.2,6.8,10.4,10.2,15.6c-3.2,1.7-7,1.9-11.2,0.8c-10.6-2.8-20.5-10.4-29.5-23.6c-4.2-6.2-7.6-12.8-9.8-19.8
	C60.2,104.2,63.7,103.2,67.2,102.1z"/>
<path class="st13" d="M101,149.9c-1.6,0-3.4-0.2-5.2-0.7c-10.9-2.9-21-10.9-29.8-23.8c-4.3-6.3-7.7-13-9.9-19.9c0-0.1,0-0.3,0-0.4
	c0.1-0.1,0.2-0.2,0.3-0.2l10.6-3.3c0.1,0,0.3,0,0.4,0c0.1,0.1,0.2,0.2,0.2,0.3c1.4,5,3.1,9.1,5.2,12.7c4.3,7.3,9.4,12.5,15.1,15.3
	c3.2,1.6,6.1,2.2,8.9,1.9c0.2,0,0.4,0.1,0.5,0.2l10.2,15.6c0.1,0.1,0.1,0.3,0.1,0.4c0,0.1-0.1,0.2-0.2,0.3
	C105.5,149.4,103.4,149.9,101,149.9z M57.3,105.7c2.2,6.7,5.4,13.1,9.6,19.2c8.7,12.7,18.5,20.5,29.2,23.4c4,1.1,7.5,0.9,10.3-0.5
	l-9.7-14.9c-2.9,0.2-5.9-0.4-9.1-2c-5.9-2.9-11.1-8.2-15.6-15.7c-2.1-3.6-3.8-7.5-5.2-12.4L57.3,105.7z"/>
<path class="st11" d="M56.6,105.8c-0.2,0-0.4-0.1-0.5-0.3c-1.5-4.2-2.6-8.6-3.2-13.4c-0.5-3.8-0.5-7.2-0.2-10.2
	c0.6-5,1.7-8.6,3.4-11.3c0.1-0.1,0.2-0.3,0.4-0.2c0.2,0,0.3,0.1,0.4,0.2l10.6,16.1c0.1,0.1,0.1,0.3,0.1,0.4c-0.5,2.2-1,4.5-1,7.3
	c0,2.3,0.5,4.9,1,7.3l0.1,0.3c0,0.2-0.1,0.5-0.3,0.6l-10.6,3.3C56.7,105.8,56.7,105.8,56.6,105.8z M56.6,71.8
	c-1.4,2.5-2.4,5.8-2.9,10.2c-0.3,2.9-0.3,6.2,0.2,9.9c0.6,4.6,1.5,8.7,2.9,12.8l9.7-3c-0.4-2.5-0.9-5-0.9-7.3
	c-0.1-2.8,0.4-5.2,1-7.3L56.6,71.8z"/>
<path class="st13" d="M121.8,137.8c-1.6,0-3.4-0.2-5.2-0.7c-3.3-0.9-8.2-0.9-13.4-0.9c-1.3,0-2.7,0-4.1,0c-0.2,0-0.3-0.1-0.4-0.2
	l-2-3.1c-2.9,0.2-5.9-0.4-9.1-2c-5.9-2.9-11.1-8.2-15.6-15.7c-2.2-3.7-3.9-7.8-5.3-12.9c-0.1-0.2,0-0.5,0.2-0.6l20.8-12.1
	c0.1-0.1,0.7-0.3,0.8-0.2c0.1,0.1,0.3,0.3,0.4,0.5c1.4,5,2.6,9.1,4.8,12.7c4.3,7.3,9.4,12.5,15.1,15.3c3.2,1.6,6.1,2.2,8.9,1.9
	c0.2,0,0.4,0.1,0.5,0.2l10.2,15.6c0.1,0.1,0.1,0.3,0.1,0.4c0,0.1-0.1,0.2-0.2,0.3C126.3,137.3,124.2,137.8,121.8,137.8z M99.4,135.2
	c1.3,0,2.6,0,3.8,0c5.3,0,10.2,0,13.6,0.9c4,1.1,7.5,0.9,10.3-0.5l-9.7-14.9c-2.9,0.2-5.9-0.4-9.1-2c-5.9-2.9-11.1-8.2-15.6-15.7
	c-2.1-3.5-3.7-7.5-5.1-12.3l-19.9,11.6c1.4,4.9,3,8.8,5.1,12.3c4.3,7.3,9.4,12.5,15.1,15.3c3.2,1.6,6.1,2.2,8.9,1.9
	c0.2,0,0.4,0.1,0.5,0.2L99.4,135.2z"/>
<path class="st18" d="M137.2,105.9c-0.1-0.7-0.3-1.1-0.9-1.5c-9.7-5.9-19.4-11.7-29.1-17.6c-0.7-0.4-0.8-0.3-0.8,0.5
	c0,4.3,0,8.6,0,12.9c0,0.9,0.2,1.3,1,1.8c5.1,3,10.2,6.2,15.3,9.2c0.6,0.4,1,0.6,1.2,0.8l-7.9,4.8l0,0c0.3,0.3,0.5,0.7,0.5,1.2
	c0.9,8.2,0.6,15.5-1.8,21.4c-1.1,2.8-2.6,5.2-4.6,6.8l-2.1,1.4c0,0,18.9-10.4,22.4-13.1c2.2-1.7,3.9-4.2,5.1-7.2
	C137.8,121.4,138.1,114.1,137.2,105.9z"/>
<path class="st14" d="M108.2,148l-0.5-0.9l2.1-1.4c1.8-1.5,3.3-3.7,4.4-6.6c2.1-5.4,2.7-12.3,1.7-21.1c0-0.4-0.1-0.7-0.4-0.9
	l-0.5-0.5l7.8-4.7c-0.1,0-0.1-0.1-0.2-0.1l-4.2-2.6c-3.8-2.3-7.5-4.6-11.3-6.8c-0.9-0.6-1.2-1.1-1.2-2.2c0-3.8,0-7.9,0-12.9
	c0-0.3,0-0.9,0.4-1.1c0.4-0.2,0.9,0.1,1.2,0.2c9.7,5.9,19.4,11.8,29.1,17.6c0.7,0.4,1,1,1.1,1.8c1,9,0.4,16.1-1.8,21.6
	c-1.3,3.2-3.1,5.7-5.2,7.4C127.2,137.5,108.9,147.6,108.2,148z M116.6,116.9c0.1,0.3,0.2,0.6,0.3,1c1,9,0.4,16.1-1.8,21.6
	c-0.8,2-1.8,3.7-2.9,5.1c5.8-3.3,15.5-8.7,17.8-10.5c2-1.6,3.7-3.9,4.9-7c2.1-5.4,2.7-12.3,1.7-21.1l0,0c-0.1-0.6-0.2-0.8-0.7-1.1
	c-9.7-5.9-19.4-11.7-29.1-17.6c0,0,0,0-0.1,0v0.1c0,5,0,9.2,0,12.9c0,0.7,0.1,1,0.7,1.3c3.8,2.3,7.5,4.5,11.3,6.8l4.2,2.6
	c0.4,0.3,0.7,0.4,1,0.6l0.5,0.4L116.6,116.9z"/>
<path class="st1" d="M107.2,147.9c-3.4-5.2-6.8-10.4-10.2-15.6c2.9-0.8,5.1-2.8,6.1-6.4c0.5-1.8,0.7-1.5-1.1-2.6
	c-5.1-3.1-10.2-6.2-15.3-9.2c-0.8-0.5-1-0.9-1-1.8c0-4.3,0-8.6,0-12.9c0-0.8,0.1-0.9,0.8-0.5c9.7,5.9,19.4,11.8,29.1,17.6
	c0.6,0.4,0.8,0.8,0.9,1.5c0.9,8.2,0.6,15.5-1.8,21.4C113,143.4,110.6,146.5,107.2,147.9z"/>
<path class="st14" d="M107.4,149c-0.2,0-0.5-0.7-0.6-0.8l-10.2-15.6c-0.1-0.1-0.1-0.3,0-0.5c0.1-0.1,0.2-0.3,0.3-0.3
	c3-0.8,4.8-2.8,5.7-6c0.1-0.2,0.1-0.4,0.2-0.6c0.1-0.3,0.2-0.6,0.2-0.7c0-0.1-0.4-0.3-0.8-0.6l-4.3-2.6c-3.8-2.3-7.5-4.6-11.3-6.8
	c-0.9-0.6-1.2-1.1-1.2-2.2c0-3.8,0-7.9,0-12.9c0-0.3,0-0.9,0.4-1.1c0.4-0.2,0.9,0.1,1.2,0.2c9.7,5.9,19.4,11.8,29.1,17.6
	c0.7,0.4,1,1,1.1,1.8c1,9,0.4,16.1-1.8,21.6c-1.8,4.5-4.4,7.4-7.8,8.9C107.3,148.4,107.4,149,107.4,149z M97.7,132.6l9.6,14.7
	c3-1.4,5.2-4,6.8-8.1c2.1-5.4,2.7-12.3,1.7-21.1c-0.1-0.6-0.2-0.8-0.7-1.1c-9.7-5.9-18.9-11.3-28.6-17.2c0,0,0,0-0.1,0v0.1
	c0,5,0,8.9,0,12.6c0,0.7,0.1,1,0.7,1.3c3.8,2.3,7,4.1,10.8,6.4l4.3,2.6c1.4,0.8,2.1,1.3,1.7,2.7c0,0.2-0.1,0.3-0.2,0.6
	C102.5,129.7,100.7,131.6,97.7,132.6z"/>
<polygon class="st18" points="115.9,116.8 136.3,104.4 106.6,86.5 85.8,98.5 "/>
<path class="st14" d="M115.9,117.4L86,99.3c-0.6-0.3-0.5-1.1,0-1.5l22.2-13.3l7.1,4.3l-1,1.7l23,13.9L115.9,117.4z M86.8,98.5
	l29.1,17.7l19.4-11.8L106.6,87L86.8,98.5z"/>
<path class="st1" d="M56.6,70.9c1.2-2.6,3-4.4,5.1-5.8c4.8-3.2,10.6-3.7,17.5-1.1C89,67.7,98,75.5,105.8,87.8
	c1.7,2.6,1.6,2.6,0.2,3.5c-2.4,1.4-4.7,2.7-7.1,4.1c-0.4,0.3-0.6,0.3-1.2-0.6c-3.7-6.1-8.1-10.6-13-13.1c-8.4-4.3-14.1-2.4-17.3,4.9
	c-0.1,0.1-0.1,0.3-0.2,0.4C63.7,81.6,60.2,76.2,56.6,70.9z"/>
<path class="st9" d="M98.5,96c-0.5,0-0.8-0.4-1.2-1c-3.7-6.1-8-10.5-12.8-12.9c-4.2-2.2-7.8-2.7-10.6-1.7c-2.5,0.9-4.5,3-5.9,6.4
	c0,0.1-0.1,0.2-0.2,0.3l-0.1,0.1c-0.1,0.2-0.2,0.2-0.4,0.3c-0.2,0-0.3-0.1-0.4-0.2L56.3,71.2c-0.1-0.1-0.4-0.5-0.3-0.7
	c1.2-2.4,3.2-4.2,5.5-5.8c5-3.4,11-3.8,17.9-1.1c10.1,3.9,19.1,11.9,26.8,24c1,1.6,1.5,2.3,1.3,3c-0.1,0.5-0.6,0.8-1.3,1.2l-1.8,1
	c-1.8,1-3.5,2-5.3,3.1C98.9,96,98.7,96,98.5,96z M76.8,78.9c2.4,0,5.1,0.8,8.1,2.3c4.9,2.5,9.4,7,13.2,13.3c0.2,0.4,0.3,0.5,0.4,0.5
	c0,0,0.1,0,0.1-0.1c1.7-1,3.5-2.1,5.3-3.1l1.8-1c0.4-0.2,0.8-0.5,0.8-0.6c0.1-0.2-0.5-1.2-1.2-2.2c-7.6-11.9-16.5-19.8-26.4-23.6
	c-6.6-2.5-12.3-2.2-17,1c-2.1,1.4-3.7,3.2-4.8,5.3L67,85.8c1.6-3.4,3.7-5.5,6.3-6.5C74.5,79.1,75.6,78.9,76.8,78.9z"/>
<path class="st19" d="M126.6,75.7c-7.8-12.3-16.8-20-26.6-23.8c-6.2-2.4-11.5-2.2-16,0.2l0,0h-0.1c-0.3,0.2-0.6,0.3-0.9,0.5
	L63.6,63.9l0,0c0.5-0.2,0.9-0.4,1.4-0.6c0.1,0,0.2-0.1,0.3-0.1c0.2-0.1,0.4-0.1,0.5-0.2c0.1,0,0.3-0.1,0.4-0.1
	c0.2-0.1,0.4-0.1,0.5-0.1s0.3-0.1,0.4-0.1c0.2,0,0.4-0.1,0.5-0.1c0.2,0,0.3-0.1,0.5-0.1s0.3-0.1,0.5-0.1s0.3,0,0.5,0s0.3,0,0.5,0
	s0.4,0,0.6,0s0.3,0,0.4,0c0.3,0,0.7,0,1,0c0.1,0,0.3,0,0.4,0c0.2,0,0.4,0,0.7,0.1c0.2,0,0.3,0,0.5,0.1c0.2,0,0.4,0.1,0.6,0.1
	s0.3,0.1,0.5,0.1s0.4,0.1,0.7,0.1c0.2,0,0.3,0.1,0.5,0.1c0.2,0.1,0.5,0.1,0.7,0.2c0.2,0,0.3,0.1,0.5,0.1c0.3,0.1,0.5,0.2,0.8,0.2
	c0.1,0,0.3,0.1,0.4,0.1c0.4,0.1,0.8,0.3,1.2,0.4c0.8,0.3,1.5,0.6,2.3,1l0,0l0,0c6,2.7,11.7,7,16.9,13c0.1,0.1,0.1,0.2,0.2,0.2
	c0.5,0.6,1,1.2,1.5,1.8c0.2,0.2,0.3,0.4,0.5,0.6c0.4,0.5,0.8,1.1,1.3,1.6c0.2,0.2,0.4,0.5,0.5,0.7c0.4,0.6,0.8,1.1,1.2,1.7
	c0.2,0.2,0.3,0.5,0.5,0.7c0.6,0.8,1.1,1.6,1.6,2.5l0,0l0,0c0.1,0.2,0.3,0.4,0.4,0.6c0,0,0,0.1,0.1,0.1c0.1,0.2,0.2,0.4,0.3,0.5
	c0,0,0,0,0,0.1c0.2,0.3,0.3,0.6,0.4,0.8l0,0c0,0.1,0,0.2,0,0.3l0,0c0,0.2-0.1,0.3-0.2,0.4l0,0c-0.1,0.1-0.2,0.1-0.3,0.2l0,0
	l12.9-7.5c0.1,0,0.1-0.1,0.2-0.1c2.3-1.4,4.7-2.7,7.1-4.1C128.2,78.3,128.2,78.3,126.6,75.7z"/>
<path class="st9" d="M106.6,91.4c-0.2,0-0.3-0.1-0.4-0.2c-0.1-0.2-0.1-0.5,0.1-0.7c0.1-0.1,0.1-0.1,0.2-0.1c0.1-0.1,0.1-0.1,0.1-0.1
	v-0.1c-0.1-0.2-0.2-0.4-0.3-0.7c-0.1-0.2-0.2-0.4-0.3-0.6l-0.5-0.7c-0.6-0.9-1.1-1.7-1.7-2.5l-0.5-0.7c-0.4-0.6-0.8-1.1-1.2-1.7
	c-0.2-0.2-0.4-0.5-0.5-0.7c-0.4-0.6-0.8-1.1-1.3-1.6l-0.5-0.6c-0.5-0.6-1-1.2-1.5-1.8l-0.2-0.2C93,72.6,87.3,68.3,81.3,65.6
	c-0.9-0.4-1.6-0.7-2.3-1c-9.4-3.7-15.6,0-16.1,0.2c-0.2,0.1,0.4-0.3,0.2-0.5c-0.1-0.2,0-0.5,0.2-0.7l19.4-11.3
	c0.3-0.2,0.6-0.3,0.9-0.5c0,0,0,0,0.1,0l0,0c4.7-2.5,10.2-2.6,16.4-0.2c10.1,3.9,19.1,11.9,26.8,24l0,0c1,1.6,1.5,2.3,1.3,3
	c-0.1,0.5-0.6,0.8-1.3,1.2l-1.9,1.1c-1.7,1-3.5,2-5.2,3c-0.1,0.1-0.2,0.1-0.3,0.2L106.6,91.4C106.8,91.4,106.7,91.4,106.6,91.4z
	 M79.4,63.4c0.7,0.3,1.4,0.6,2.3,1c6.1,2.8,11.9,7.2,17.1,13.1l0.2,0.2c0.5,0.6,1,1.2,1.6,1.8l0.5,0.6c0.4,0.5,0.9,1.1,1.3,1.6
	c0.2,0.2,0.4,0.5,0.5,0.7c0.4,0.6,0.8,1.1,1.2,1.7l0.5,0.7c0.6,0.8,1.1,1.6,1.7,2.5l0.5,0.8c0.1,0.2,0.2,0.4,0.3,0.6
	c0.2,0.4,0.4,0.7,0.5,1l11.7-6.8c0.1-0.1,0.2-0.1,0.2-0.1c1.7-1,3.5-2,5.2-3.1l1.9-1.1c0.4-0.2,0.8-0.5,0.8-0.6
	c0.1-0.2-0.5-1.2-1.2-2.2c-7.6-11.9-16.5-19.8-26.4-23.6c-5.9-2.3-11.2-2.2-15.6,0.2l0,0c-0.3,0.2-0.6,0.3-0.9,0.5l-16.7,9.4
	C66.7,62.3,71.3,60.4,79.4,63.4z"/>
<path class="st20" d="M33.9,57.7c7,4.1,12.6,14.7,12.6,23.9c0,5-1.7,8.6-4.4,10.1l0,0l0,0c-0.2,0.1-0.4,0.2-0.7,0.3l-5.1,2.3
	l-1.2-2.9c-0.4-0.2-0.7-0.4-1.1-0.6c-7-4.1-12.6-14.7-12.6-23.9c0-2,0.2-3.8,0.8-5.3L21.1,59l4.9-2.2C28,55.8,30.8,56,33.9,57.7"/>
<path class="st21" d="M28.5,60.3c7,4.1,12.6,14.7,12.6,23.9s-5.7,13.3-12.6,9.3c-7-4.1-12.6-14.7-12.6-23.9
	C15.8,60.3,21.4,56.2,28.5,60.3"/>
<g>
	<path class="st1" d="M35,85.1L31.9,80c0.6-1,1-2.3,1-3.9c0-4-2.6-8.3-5.6-9.3c-3.1-1.1-5.6,1.4-5.6,5.5c0,4.1,2.6,8.3,5.6,9.3
		c1.1,0.4,2,0.4,2.9-0.1l3.1,5.2c0.3,0.4,0.5,0.6,0.8,0.7s0.6,0.1,0.8-0.2C35.4,86.9,35.4,85.9,35,85.1z M24,73.2
		c0-2.4,1.5-3.8,3.3-3.2c1.8,0.6,3.3,3.1,3.3,5.5c0,1.1-0.4,2.1-1,2.7c-0.1,0-0.1,0.1-0.2,0.1c0,0,0,0.1-0.1,0.1
		c-0.6,0.4-1.3,0.6-2.1,0.4C25.5,78,24,75.5,24,73.2z"/>
</g>
<path class="st22" d="M66.9,143.5c-1.8,0.2-3.8-0.2-6-1.3c-3.9-1.9-7.2-5.3-10.1-10.1c-1.6-2.7-2.6-5.5-3.4-8.4
	c-2.3,0.7-7.4,2.3-9.7,3c1.5,4.6,3,11,5.8,15c3.5,5.2,8.5,7.9,13.5,9.7l0.1,1.8l9.2,5.1l7.3-4.7C71.3,150.4,69.1,147,66.9,143.5z"/>
<path class="st23" d="M47.4,123.8c-2.7,1.8-4.6,3-7.3,4.7c-1.1-3-1.3-8.5-1.7-11.3c-0.3-2.3-0.4-4.5-0.1-6.6
	c0.3-2.8,0.9-5.3,2.2-7.3c2.3,3.5,4.6,7,6.9,10.5c-0.4,1.5-0.7,3-0.7,4.9C46.8,120.3,47.1,122,47.4,123.8z"/>
<path class="st8" d="M72.6,114.4c-5.1-8-11-13.1-17.4-15.6c-4.2-1.6-7.8-1.4-10.8,0.3l0,0L44,99.4c-0.1,0.1-0.2,0.1-0.2,0.1
	l-0.1,0.1l-6.5,4.2l1.1,11.9l7.5-4.3c0.5,0.8,1,1.6,1.6,2.4c0-0.1,0.1-0.2,0.1-0.2c0.3-0.7,0.6-1.2,0.9-1.8l17.2,9.4l5.2-3.5
	c0.6-0.4,1.3-0.7,1.9-1.1C73.7,116.1,73.7,116.1,72.6,114.4z"/>
<path class="st24" d="M79.6,134.2c0-0.4-0.2-0.7-0.6-1c-6.3-3.8-12.7-7.7-19-11.5c-0.4-0.3-0.5-0.2-0.5,0.3l-7.3,4.3l16.6,16.4
	c-0.6,0.4-1.2,0.7-1.9,0.9c0.5,0.8,1.1,1.6,1.6,2.5L67.4,158l7.6-4.9l0,0c1.5-1.1,2.7-2.8,3.5-4.8C80,144.3,80.2,139.5,79.6,134.2z"
	/>
<path class="st9" d="M33.2,108.1c0.8-1.7,2-2.9,3.3-3.8c3.1-2.1,6.9-2.4,11.4-0.7c6.4,2.4,12.3,7.5,17.4,15.6
	c1.1,1.7,1.1,1.7,0.1,2.3c-1.5,0.9-3.1,1.8-4.6,2.7c-0.3,0.2-0.4,0.2-0.8-0.4c-2.4-4-5.3-6.9-8.5-8.6c-5.5-2.8-9.2-1.5-11.3,3.2
	c0,0.1-0.1,0.2-0.1,0.2C37.8,115.1,35.5,111.6,33.2,108.1z"/>
<path class="st25" d="M40.1,128.5c0.8,2.8,1.8,5.7,3.4,8.4c2.8,4.8,6.2,8.2,10.1,10.1c2.2,1.1,4.1,1.5,6,1.3
	c2.2,3.4,4.4,6.8,6.7,10.2c-2.1,1.1-4.6,1.2-7.3,0.5c-6.9-1.8-13.4-6.8-19.3-15.4c-2.8-4-5-8.4-6.4-12.9
	C35.5,129.9,37.8,129.2,40.1,128.5z"/>
<path class="st14" d="M66.2,158.5c-2.2-3.4-4.4-6.8-6.7-10.2c1.9-0.5,3.3-1.8,4-4.2c0.3-1.2,0.4-1-0.7-1.7c-3.3-2-6.7-4.1-10-6
	c-0.5-0.3-0.6-0.6-0.6-1.2c0-2.8,0-5.6,0-8.5c0-0.5,0.1-0.6,0.5-0.3c6.3,3.9,12.7,7.7,19,11.5c0.4,0.2,0.5,0.5,0.6,1
	c0.6,5.4,0.4,10.2-1.2,14C70.1,155.5,68.5,157.5,66.2,158.5z"/>
<path class="st26" d="M40.1,128.5c-2.3,0.7-4.6,1.4-6.9,2.1c-1.1-3-1.7-5.9-2-8.7c-0.3-2.3-0.4-4.5-0.1-6.6c0.3-2.8,0.9-5.3,2.2-7.3
	c2.3,3.5,4.6,7,6.9,10.5c-0.4,1.5-0.7,3-0.7,4.9C39.5,125.1,39.8,126.8,40.1,128.5z"/>
<g>
	<path class="st27" d="M137.6,161.9c-2.5-1.4-5.6-1.2-8.9,0.7l0,0c-7.1,4.1-12.9,15.1-12.9,24.3c0,4.9,1.7,8.7,4.5,10.4
		c1.1,0.6,2.2,0.9,3.5,0.9c1.7,0,3.5-0.5,5.3-1.6c7.1-4.1,12.9-15.1,12.9-24.3C142.1,167.3,140.5,163.5,137.6,161.9z M128.7,195.8
		c-2.9,1.7-5.7,1.9-7.8,0.7c-2.6-1.5-4-5-4-9.5c0-9,5.6-19.5,12.4-23.5c2.9-1.7,5.8-2,7.9-0.7c2.6,1.5,4,5,4,9.6
		C141.1,181.3,135.5,191.8,128.7,195.8z"/>
	<path class="st27" d="M130.2,169.5c-3.3,1.1-6.1,5.7-6.1,10.1c0,1.7,0.4,3.1,1,4.2l-3.3,5.5c-0.5,0.9-0.5,1.9,0.2,2.3
		c0.2,0.3,0.6,0.3,0.9,0.2s0.6-0.4,0.9-0.8l3.3-5.6c0.9,0.5,2,0.5,3.1,0.1c3.3-1.1,6.1-5.7,6.1-10.1
		C136.3,171,133.6,168.4,130.2,169.5z M130.3,182.3c-0.9,0.3-1.6,0.1-2.3-0.4c-0.1,0-0.1-0.1-0.1-0.1c-0.1,0-0.1-0.1-0.2-0.1
		c-0.7-0.7-1-1.7-1-2.9c0-2.6,1.5-5.2,3.5-5.9c1.9-0.7,3.5,0.9,3.5,3.4C133.8,178.9,132.1,181.5,130.3,182.3z"/>
</g>
</svg>
