<?xml version="1.0" encoding="utf-8"?>
<!-- Generator: Adobe Illustrator 24.0.1, SVG Export Plug-In . SVG Version: 6.00 Build 0)  -->
<svg version="1.1" id="Layer_1" xmlns="http://www.w3.org/2000/svg" xmlns:xlink="http://www.w3.org/1999/xlink" x="0px" y="0px"
	 viewBox="0 0 182 240" style="enable-background:new 0 0 182 240;" xml:space="preserve">
<style type="text/css">
	.st0{fill-rule:evenodd;clip-rule:evenodd;fill:#BBBABA;}
	.st1{fill-rule:evenodd;clip-rule:evenodd;fill:#FFFFFF;}
	.st2{fill-rule:evenodd;clip-rule:evenodd;fill:#F0F1F1;}
	.st3{fill-rule:evenodd;clip-rule:evenodd;fill:#E9E9E9;}
	.st4{fill-rule:evenodd;clip-rule:evenodd;fill:#B5B4AF;}
	.st5{fill-rule:evenodd;clip-rule:evenodd;fill:#FAFBFA;}
	.st6{fill-rule:evenodd;clip-rule:evenodd;fill:#FAF9F9;}
	.st7{fill-rule:evenodd;clip-rule:evenodd;fill:#CFCEC9;}
	.st8{fill-rule:evenodd;clip-rule:evenodd;fill:#E3F1FA;}
	.st9{fill-rule:evenodd;clip-rule:evenodd;fill:#38B9E5;}
	.st10{fill-rule:evenodd;clip-rule:evenodd;fill:#F2F7F9;}
	.st11{fill-rule:evenodd;clip-rule:evenodd;fill:#D7D6D5;}
	.st12{fill-rule:evenodd;clip-rule:evenodd;fill:#C81143;}
	.st13{fill-rule:evenodd;clip-rule:evenodd;fill:#0081B3;}
	.st14{fill-rule:evenodd;clip-rule:evenodd;fill:#E78D00;}
	.st15{fill-rule:evenodd;clip-rule:evenodd;fill:#56C3EC;}
	.st16{fill-rule:evenodd;clip-rule:evenodd;fill:#E74168;}
	.st17{fill-rule:evenodd;clip-rule:evenodd;fill:#FBBD00;}
	.st18{fill-rule:evenodd;clip-rule:evenodd;fill:#D1CECE;}
	.st19{fill-rule:evenodd;clip-rule:evenodd;fill:#EBEBEA;}
	.st20{fill-rule:evenodd;clip-rule:evenodd;fill:#3AB2D4;}
	.st21{fill-rule:evenodd;clip-rule:evenodd;fill:#E3F1F5;}
	.st22{fill-rule:evenodd;clip-rule:evenodd;fill:#D83C5C;}
	.st23{fill-rule:evenodd;clip-rule:evenodd;fill:#F5CECC;}
</style>
<g>
	<path class="st0" d="M170.66383,127.10311l-7.52731,4.24047c-0.68349,0.3867-1.51764,0.3867-2.19992,0L89.29015,89.97775
		c-0.7559-0.37284-1.2374-1.13795-1.24731-1.9812V21.83836c0.00227-0.39305,0.1048-0.77828,0.29707-1.12002l0.10817-0.1777
		c0.1988-0.37968,0.50597-0.69359,0.88248-0.9022l7.62677-4.29772c1.45165-0.85861,3.0611-1.41154,4.73405-1.6249
		c1.52546-0.20445,3.07578,0.05815,4.44818,0.75282l0.14858,0.07806l0.12858,0.08053L177.9444,55.9139
		c0.10728,0.04913,0.21109,0.10807,0.30717,0.17741c1.1012,0.68348,1.97556,1.67523,2.51501,2.8522
		c0.57304,1.26216,0.8499,2.63695,0.81314,4.02175l-0.14857,47.05169c-0.17177,3.44198-1.28207,6.77123-3.20851,9.62907
		c-1.90988,3.04229-4.51306,5.5899-7.59784,7.42816L170.66383,127.10311L170.66383,127.10311z M162.05661,126.84735l6.4384-3.6275
		c2.45271-1.47295,4.521-3.51122,6.03188-5.94253c1.4789-2.14752,2.34544-4.65719,2.5063-7.26037l0.15869-47.04159
		c0.02783-0.72697-0.10728-1.45086-0.39651-2.11969c-0.18782-0.41445-0.49806-0.75946-0.8912-0.99055l-0.12857-0.08935
		L104.2479,18.50039c-0.09519-0.03814-0.18553-0.08846-0.26814-0.14967c-0.56967-0.23248-1.19273-0.30717-1.80261-0.21782
		c-1.07317,0.14739-2.10731,0.50815-3.0409,1.05989l-6.64632,3.7648v63.73252l69.56668,40.14605V126.84735z"/>
	<path class="st1" d="M98.83918,63.61982v-6.25089l62.40429,38.79939l15.73048-38.23418l-71.67646-41.38602l-0.11818-0.07915
		c-1.76368-0.99065-4.30871-0.78313-7.13198,0.81285l-7.66718,4.29851l-0.14858,0.25804v29.80586l-8.59821,31.34003l7.53851-4.23936
		c5.29937-2.97176,9.64819-9.78677,9.67712-15.12506H98.83918z"/>
	<path class="st0" d="M107.80379,62.87601v5.74482c-0.16314,3.07804-1.16717,6.05209-2.90272,8.59859
		c-1.73891,2.77752-4.11664,5.10046-6.93318,6.77569l-7.5285,4.23927l-0.41643,0.23813V21.7289l0.14967-0.26785l0.09826-0.09826
		l7.63766-4.29861c1.21531-0.72271,2.56107-1.19391,3.96172-1.38737c1.00601-0.13392,2.03034-0.00426,2.97176,0.37651
		l0.41534,0.24685l0.12967,0.06934l71.67627,41.36582l0.24792,0.14848l-15.84875,25.85434l-0.14859,0.23674l-0.23782-0.14858
		L107.8237,62.87601H107.80379L107.80379,62.87601z M107.21976,68.62083v-6.74448l0.42545,0.26705l53.4901,21.02956
		l15.43323-25.14055l-71.32997-41.22625l-0.12858-0.06934c-0.94598-0.48686-2.01914-0.66545-3.07131-0.51499
		c-1.33675,0.18444-2.62447,0.63683-3.78381,1.32705l-7.55743,4.25948l-0.07914,0.12838v65.60417l7.12188-3.96251
		c2.72947-1.62936,5.03221-3.88753,6.71526-6.58698C106.12866,74.50867,107.08445,71.61289,107.21976,68.62083z"/>
	<path class="st1" d="M179.25233,110.03696l0.15858-47.0414c0-5.33968-4.2997-7.26056-9.57906-4.27979l-7.62677,4.28959
		l-0.15858,0.25695v66.14046l7.57645-4.22045c5.29065-2.97186,9.64958-9.79697,9.66949-15.12635L179.25233,110.03696z"/>
	<path class="st0" d="M179.68777,62.98547l-0.15977,47.0515c-0.16284,3.07349-1.16579,6.04416-2.90024,8.58731
		c-1.73665,2.78088-4.11546,5.10383-6.93428,6.77677l-7.80566,4.39825l-0.41632,0.22655V63.27243l0.14957-0.25695l0.10847-0.09935
		l7.92493-4.44828c1.4561-0.88556,3.11925-1.38034,4.8233-1.4362c0.89793-0.01119,1.78358,0.20336,2.57425,0.62425
		c0.75391,0.42455,1.37389,1.04761,1.79369,1.8037c0.56857,1.08554,0.8488,2.30086,0.81314,3.52588H179.68777L179.68777,62.98547z
		 M178.97546,110.02706l0.15829-47.0416c0.04042-1.12794-0.21198-2.24826-0.7337-3.24902
		c-0.37056-0.66655-0.92012-1.21828-1.58469-1.59459c-0.70596-0.37988-1.49771-0.56967-2.2972-0.55511
		c-1.61163,0.05814-3.18066,0.52935-4.55655,1.36686l-7.82587,4.40816l-0.07915,0.12966v65.58397l7.38895-4.16122
		c2.73174-1.63055,5.03339-3.88753,6.71634-6.5859C177.83852,115.86915,178.81232,112.99892,178.97546,110.02706z"/>
	<polygon class="st1" points="90.38015,88.01675 90.38015,21.88759 162.04651,63.27243 162.04651,129.40279 	"/>
	<path class="st2" d="M158.0739,127.49062V65.23343l-64.9305-37.64005l0.27795,17.3543l-0.20861,39.08754l58.6909,39.95874
		L158.0739,127.49062z M158.0739,127.49062l-4.8334-2.78425L158.0739,127.49062z"/>
	<path class="st3" d="M158.0739,127.49062v-26.08197l-36.51093-21.12811l-0.11887,36.72913L158.0739,127.49062z M158.0739,127.49062
		l-4.8334-2.78425L158.0739,127.49062z"/>
	<path class="st0" d="M158.4505,127.33084l-0.55402-0.32599V65.23343L93.40114,27.87024v61.93011l-0.55481-0.27824V27.39457
		c0-0.15413,0.12263-0.28132,0.27795-0.28696l0.1575,0.04913l65.02915,37.64124c0.08589,0.05359,0.1373,0.14739,0.13957,0.24793
		v62.256V127.33084z"/>
	<path class="st0" d="M90.4795,22.28401v65.49491l71.02201,41.13671V63.43111L90.4795,22.28401L90.4795,22.28401z
		 M89.92469,87.93732V21.79824c0.00426-0.15076,0.1261-0.2726,0.27686-0.27686h0.15868l71.5579,41.45398
		c0.08488,0.05359,0.13739,0.1474,0.13847,0.24794v66.12927c0,0.15303-0.12381,0.27794-0.27794,0.27794h-0.14751L90.06317,88.17545
		C89.97838,88.12631,89.92588,88.03558,89.92469,87.93732z"/>
	<path class="st0" d="M104.76259,116.88199c-0.12491,0.07835-0.29033,0.03902-0.36839-0.08598l-0.00783-0.01456
		c-0.07498-0.13055-0.03149-0.29826,0.09936-0.37512l4.15002-2.39684c0.13511-0.07687,0.30499-0.03339,0.38641,0.09826
		c0.0738,0.13422,0.02467,0.30271-0.10956,0.37661L104.76259,116.88199z"/>
</g>
<path class="st1" d="M141.65102,65.28424L71.3526,24.37507c-1.44403-0.84098-2.41675-0.80839-3.71111-0.00872l-2.39318,1.47632
	c-1.98576,1.22512-2.80782,1.80806-2.80901,4.69622l-0.04576,66.78402c-0.00109,3.70972,2.2648,8.06925,5.03568,9.67979
	l52.59781,26.92137l26.65619-15.39252V74.96384C146.68321,71.25461,144.42406,66.89687,141.65102,65.28424z"/>
<path class="st4" d="M140.53178,67.21414L70.23367,26.30486c-0.37315-0.21871-0.62415-0.32371-0.78284-0.32371
	c-0.13838,0-0.34283,0.09489-0.63881,0.27795l-2.39456,1.48009c-0.755,0.46665-1.28207,0.79938-1.48534,1.09417
	c-0.18414,0.26814-0.26705,0.76292-0.26705,1.70662l-0.04458,75.82787c-0.00227,1.48177,0.47141,3.13283,1.23403,4.59676
	c0.72836,1.40282,1.68751,2.56782,2.69273,3.15046l25.88356,15.1198l-4.45393,2.57198l-23.6666-13.82981l-6.14361-3.79174
	l0.04348-83.64423c0.00337-1.94218,0.33075-3.18631,1.05435-4.23699c0.70369-1.02205,1.5836-1.5938,2.81208-2.35336l2.39456-1.47969
	c0.99957-0.61434,1.92306-0.93697,2.95948-0.94261c1.01304-0.00565,1.97001,0.29479,3.03892,0.91448l70.30039,40.91264
	c1.76358,1.02631,3.31805,2.84547,4.41817,4.95088c1.06979,2.0559,1.73326,4.44036,1.73326,6.65851v42.27415l-4.4774,2.58435
	v-44.8596c0-1.49435-0.46556-3.14392-1.21838-4.59815C142.49307,68.96425,141.54265,67.79817,140.53178,67.21414z"/>
<path class="st5" d="M141.65102,65.28424L71.34171,24.39637c-1.72237-1.00076-2.8312-0.54272-3.98381,0.16087l-3.21197,1.90295
	l1.84619,2.49283L78.60761,84.478c0.59859,3.66089,2.66132,7.5285,5.03677,9.67652l43.44558,35.69164l19.59325-11.31461V74.96384
	C146.68321,71.25461,144.42406,66.89568,141.65102,65.28424z"/>
<path class="st4" d="M141.51253,65.52663L71.20075,24.63757c-0.80166-0.46437-1.45166-0.59413-2.03262-0.52252
	c-0.58403,0.07132-1.11784,0.34511-1.66393,0.68001l-0.00337,0.00228L64.55364,26.543l1.66284,2.24687l0.05141,0.12075
	l12.6143,55.5247c0.29261,1.78161,0.93816,3.61543,1.80152,5.27044c0.87555,1.68642,1.97566,3.18414,3.14848,4.24541
	l43.51443,35.75007l-0.5136,0.29123L83.45786,94.36115c-1.22502-1.10625-2.36871-2.65736-3.27002-4.39736
	c-0.88892-1.70444-1.55467-3.59829-1.85629-5.44112L65.72844,29.06366l-1.80489-2.43815l-0.18533-0.24903l0.26814-0.15641
	l3.20969-1.90285c0.60542-0.36987,1.19956-0.67704,1.88631-0.75847c0.69249-0.08251,1.45958,0.06151,2.37881,0.59869
	l70.3082,40.88679c1.4362,0.83305,2.73404,2.36534,3.66545,4.1624c0.93132,1.7936,1.50554,3.85741,1.50554,5.7572v43.40626
	l-0.5551,0.32124V74.96384c0-1.81162-0.55511-3.785-1.4463-5.49916C144.06776,67.75468,142.84938,66.30382,141.51253,65.52663z"/>
<path class="st1" d="M137.76775,67.63839L67.42921,26.73051c-2.77087-1.61282-5.03568,0.10054-5.03568,3.81056v84.83389
	l27.31521,15.58031l17.87128,10.15714l35.23003-20.3418V77.31799C142.81006,73.60796,140.54189,69.25012,137.76775,67.63839z"/>
<path class="st6" d="M62.89535,67.90406l34.2697,19.81702l2.44676,0.93033V60.5488c0-4.31881-2.64557-9.39005-5.87428-11.27191
	L62.94448,31.28517L62.89535,67.90406z"/>
<path class="st7" d="M71.59717,58.50975l24.86399,14.42038v2.4434L71.59717,60.95424V58.50975L71.59717,58.50975z
	 M108.6209,79.96157l24.61041,14.2718v2.44399L108.6209,82.40498V79.96157L108.6209,79.96157z M71.59717,83.57333l24.86399,14.42008
	v2.44399L71.59717,86.01703V83.57333L71.59717,83.57333z M108.6209,105.02575l24.61041,14.27151v2.4432l-24.61041-14.27022
	V105.02575L108.6209,105.02575z M133.23131,106.74615L108.6209,92.32121v2.44399l24.61041,14.42345V106.74615L133.23131,106.74615z
	 M96.46116,85.25747L71.59717,70.68068v2.4437l24.86399,14.57679V85.25747L96.46116,85.25747z M133.23131,100.42255
	L108.6209,86.00692v2.44449l24.61041,14.41474V100.42255L133.23131,100.42255z M96.46116,78.94517L71.59717,64.37729v2.44489
	l24.86399,14.56659V78.94517L96.46116,78.94517z M71.59717,77.23765v2.44341l24.86399,14.41978v-2.44389L71.59717,77.23765
	L71.59717,77.23765z M108.6209,98.68888v2.44568l24.61041,14.26992v-2.44341L108.6209,98.68888L108.6209,98.68888z
	 M133.23131,81.68246L108.6209,67.25653v2.44479l24.61041,14.42484V81.68246L133.23131,81.68246z M96.46116,60.19389
	L71.59717,45.61601v2.44449l24.86399,14.57679V60.19389L96.46116,60.19389z M133.23131,75.44395v2.44598L108.6209,63.43587v-2.44568
	L133.23131,75.44395L133.23131,75.44395z M96.46116,53.9217v2.44479l-24.86399-14.6068v-2.44597L96.46116,53.9217L96.46116,53.9217z
	 M71.59717,52.17377v2.44479l24.86399,14.41929v-2.4437L71.59717,52.17377L71.59717,52.17377z M108.6209,73.6248v2.44558
	l24.61041,14.27071v-2.44449L108.6209,73.6248z"/>
<path class="st4" d="M137.62926,67.87989L67.28965,26.97062c-0.66328-0.38523-1.29109-0.56828-1.85491-0.56828
	c-0.44555,0-0.85108,0.11372-1.20511,0.33164c-0.35858,0.21872-0.66882,0.54718-0.91676,0.97144
	c-0.40662,0.69923-0.64019,1.66205-0.64019,2.83794v66.78185c0,1.80965,0.55402,3.78273,1.4474,5.49857
	c0.89011,1.70831,2.11097,3.15977,3.44891,3.93953c13.93124,8.55106,21.84607,13.78207-0.27934,0.48121
	c-1.43175-0.83107-2.72839-2.36643-3.66317-4.16349c-0.93251-1.79063-1.51317-3.85603-1.51317-5.75581l0.00228-66.78185
	c0-1.27752,0.26002-2.33196,0.71568-3.11589c0.29261-0.50706,0.67031-0.9013,1.10803-1.16836
	c0.44337-0.27121,0.94934-0.41306,1.49544-0.41306c0.661,0,1.38371,0.20673,2.13425,0.64337l70.33714,40.90779
	c1.4362,0.83424,2.73402,2.36792,3.67554,4.16577c0.93132,1.79142,1.50555,3.85524,1.50555,5.75502v43.28977l-0.55511,0.3243
	V77.31799c0-1.81142-0.5551-3.78391-1.45641-5.49926C140.1945,70.10794,138.96611,68.65708,137.62926,67.87989z"/>
<g>
	<path class="st8" d="M39.45667,34.60461c0.20772-0.1575,2.07046-1.40609,2.3173-1.59479
		c1.60499-1.18837,2.57653-1.04989,4.15111-0.14858L82.9713,54.11882c2.12078,1.51793,3.39948,3.94924,3.44753,6.55687v32.25371
		c0.13194,1.6463-0.62305,3.23891-1.98121,4.17924c-0.99065,0.65337-2.17892,1.4472-2.8624,1.78359h-1.93208L42.0017,77.29718
		h-0.04913l-0.15839-0.09826l-0.06934-0.05894h-0.04913l-0.05923-0.06042v-0.14739c-0.68229-1.21304-1.0597-2.57317-1.10011-3.96252
		V37.42799c-0.13065-1.11249,0.37423-2.20358,1.30783-2.82338H39.45667z"/>
	<path class="st9" d="M41.78408,35.2982l-0.42564,0.28696v0.19881l-1.0698,0.50488l-0.06934,0.12828
		c-0.11599,0.31728-0.17077,0.65456-0.15839,0.99065v33.18424c0.00218,0.50261,0.07132,1.00294,0.20752,1.48534
		c0.15859,0.54837,0.3776,1.07653,0.65446,1.57578c0,0.08816,0.10837,0.18761,0.15869,0.28696l0.05923,0.08925l0.05923,0.09837
		l0.24794,0.34729l0.27686,0.33639l0.08925,0.09936l0.07954,0.06914l0.14848,0.13838l0.15839,0.12857l0.19761,0.12947
		c0,0,34.541,19.81008,37.64144,21.62289c0.1261,0.06478,0.25923,0.1151,0.39652,0.14848l0.12827-0.06825
		c0.44565-0.20772,1.28772-0.77273,2.09978-1.29891l0.55511-0.3661c0.38186-0.23675,0.68457-0.58186,0.87209-0.99065
		c0.19999-0.50261,0.29369-1.04196,0.27715-1.5836V60.67569c-0.02467-1.0386-0.29597-2.05728-0.79294-2.97067
		c-0.37542-0.80195-0.96054-1.48652-1.69315-1.9813L44.97356,34.49625c-0.32718-0.23219-0.7023-0.3886-1.09872-0.45565
		c-0.37096,0.06706-0.71488,0.23922-0.99065,0.49468L41.78408,35.2982L41.78408,35.2982z M37.57482,33.68449
		c0.25239-0.26358,0.54391-0.48715,0.86089-0.66456l2.18001-1.48543c0.90467-0.75728,2.03827-1.19045,3.21871-1.22839
		c1.06217,0.05359,2.09066,0.39642,2.97206,0.99055l37.047,21.25649c1.37816,0.82523,2.50274,2.01459,3.24873,3.43851
		c0.77639,1.44185,1.20184,3.04675,1.23859,4.68403v32.25371c0.01793,1.06108-0.18871,2.11404-0.60394,3.09033
		c-0.47596,1.101-1.27345,2.03381-2.28848,2.67371l-0.55511,0.36729c-0.85217,0.55511-1.73327,1.12923-2.38783,1.47552
		c-0.11401,0.05448-0.23447,0.10133-0.35631,0.13838c-0.19088,0.08034-0.38631,0.14967-0.58403,0.20782
		c-0.25021,0.05894-0.50597,0.09936-0.76292,0.11926h-0.21752c-0.22803,0-0.46586,0-0.69359-0.06904l-0.44565-0.09935h-0.24794
		c-0.11847-0.05923-0.28696-0.10847-0.42564-0.1677l-0.31698-0.15859l-0.10956-0.06042
		c-8.5772-4.95307-21.25748-11.45071-30.89438-17.45336c-2.83348-1.76249-5.5573-3.06032-7.65708-4.79359L39.63517,78.05
		l-0.08925-0.08816l-0.05923-0.05933l-0.07914-0.07915l-0.06944-0.06033l-0.08925-0.08816
		c-0.35967-0.36423-0.69131-0.7551-0.99065-1.16955l-0.11956-0.1684l-0.14858-0.22802l-0.21762-0.36621l-0.19761-0.27705
		c-0.4201-0.75926-0.75282-1.56349-0.99065-2.39655c-0.22684-0.8076-0.3462-1.63956-0.3563-2.47708V37.42799
		c-0.01575-0.88337,0.16423-1.75912,0.5248-2.56533C36.9582,34.42612,37.23536,34.02851,37.57482,33.68449z"/>
	<path class="st8" d="M81.5452,98.89224L45.33997,74.8313c-1.82262-1.20818-3.25882-7.02243-3.45654-9.52853l-2.42676-30.70825
		c0.20772-0.1474,2.07046-1.39599,2.3173-1.58469c1.6148-1.18837,2.58545-1.04989,4.15111-0.14858L82.9713,54.11882
		c2.12078,1.51793,3.39948,3.94924,3.44753,6.55687v32.25371c0.13194,1.6463-0.62305,3.23891-1.98121,4.17924
		c-0.99065,0.65337-2.17892,1.4472-2.8624,1.78359H81.5452z"/>
	<path class="st9" d="M45.49974,74.57326l36.05526,23.95258c0.54501-0.28815,1.34695-0.81206,2.10988-1.31773l0.56491-0.3676
		c0.64099-0.41108,1.14359-1.00293,1.44631-1.70216c0.29152-0.69884,0.43327-1.45274,0.41553-2.20894V60.67569
		c-0.03477-1.28207-0.37423-2.53859-0.99055-3.66426c-0.51608-1.06673-1.31466-1.9711-2.3075-2.61556L45.7665,33.12938
		c-0.56719-0.37879-1.22175-0.6076-1.90176-0.66347c-0.70478,0.0525-1.37251,0.33382-1.90206,0.80195l-1.0698,0.73251
		l-1.09902,0.75391l2.40665,30.52827c0.09935,1.22849,0.50478,5.50708,1.10912,6.65632
		C43.81224,72.98312,44.56496,73.88869,45.49974,74.57326L45.49974,74.57326z M81.36749,99.14909L45.16246,75.08934
		c-1.02879-0.73816-1.85847-1.71752-2.41695-2.85329c-0.64445-1.22769-1.0698-5.59643-1.17935-6.93328L39.1292,34.45613
		l0.12976-0.14858l1.28772-0.83197l1.05969-0.7126c0.63455-0.55283,1.43729-0.87773,2.27827-0.92121
		c0.79294,0.04239,1.56032,0.29925,2.21933,0.74262l37.03581,21.26768c1.09783,0.7022,1.98121,1.69167,2.55544,2.8623
		c0.65337,1.22175,1.01274,2.57762,1.05097,3.96133v32.25371c0.01208,0.84435-0.14541,1.68414-0.46586,2.46589
		c-0.34837,0.81542-0.93587,1.50554-1.68414,1.98012L84.031,97.743c-0.86089,0.56491-1.7622,1.15816-2.33731,1.44512
		l-0.16869,0.07023l-0.14739-0.09827L81.36749,99.14909z"/>
	<path class="st10" d="M79.23771,98.74366L41.59647,77.1486c-2.12523-1.51535-3.40641-3.94666-3.45782-6.55657V37.42799
		c0-2.51501,1.55586-3.68446,3.45782-2.59446l37.64124,21.60368c2.13761,1.5202,3.41859,3.97262,3.44663,6.596v33.16403
		c0,2.51611-1.54457,3.68555-3.44663,2.59674V98.74366z"/>
	<path class="st9" d="M41.76496,76.90186l37.64035,21.60288c0.36056,0.22664,0.77382,0.35264,1.19926,0.36839
		c0.27151,0,0.53966-0.07578,0.77303-0.21871c0.24338-0.15532,0.44446-0.36977,0.58403-0.62335
		c0.29925-0.57056,0.44337-1.20966,0.41553-1.85402V63.03321c-0.04131-1.28099-0.37988-2.53631-0.99065-3.66426
		c-0.52172-1.06534-1.32358-1.96893-2.3176-2.61556L41.42778,35.15982c-0.36423-0.22466-0.78175-0.35075-1.20848-0.3665
		c-0.26903-0.00337-0.53272,0.06825-0.76263,0.20782c-0.24575,0.1575-0.45011,0.37067-0.59413,0.62415
		c-0.29489,0.57204-0.43783,1.20966-0.41673,1.85293v33.11382c0.04131,1.28207,0.38107,2.53632,0.99065,3.66534
		C39.95364,75.33618,40.76004,76.25205,41.76496,76.90186L41.76496,76.90186z M79.07902,99.02052L41.43788,77.41684
		c-1.10239-0.70596-1.98913-1.69989-2.56524-2.87251c-0.65792-1.22056-1.01759-2.57762-1.04989-3.96241V37.42799
		c-0.01347-0.74153,0.16394-1.47523,0.51469-2.12979c0.19226-0.34283,0.46804-0.63316,0.80185-0.84207
		c0.33084-0.20108,0.71151-0.30717,1.10021-0.30717c0.53936,0.01684,1.06554,0.17434,1.52545,0.45565l37.64035,21.59368
		c1.09674,0.70587,1.97784,1.69989,2.54621,2.8736c0.66348,1.21749,1.02651,2.57534,1.0599,3.96132v33.15502
		c0.02447,0.755-0.14967,1.50217-0.50597,2.16911c-0.19425,0.34392-0.47002,0.63653-0.80186,0.85078
		c-0.33163,0.1999-0.71349,0.30261-1.09902,0.29816c-0.53945-0.01089-1.06534-0.16621-1.52555-0.44555V99.02052z"/>
	<path class="st9" d="M48.86036,63.79726l14.42717,8.32816v2.42795l-14.40716-8.33935L48.86036,63.79726L48.86036,63.79726z
		 M48.86036,51.54451v2.42686l23.11502,13.4096v-2.44568L48.86036,51.54451L48.86036,51.54451z M48.86036,57.418v2.41675
		l23.11502,13.39048v-2.41676L48.86036,57.418z"/>
</g>
<path class="st0" d="M20.79355,175.40331v-48.97238c0-0.79294,0.42316-1.52575,1.10883-1.92226l66.92221-38.6318
	c0.69467-0.40543,1.55328-0.40543,2.24915,0l71.94234,41.52451c0.76154,0.36641,1.24641,1.13686,1.24948,1.98122v48.99258
	c-0.08252,3.58055-1.01166,7.09068-2.7149,10.24133c-1.53566,3.09013-3.87654,5.70816-6.7746,7.57764l-50.01346,29.03284
	c-1.20283,0.73141-2.55959,1.16914-3.96241,1.2787c-1.39163,0.09708-2.7787-0.25021-3.96143-0.99066L25.004,184.1593
	c-0.13204-0.05696-0.25358-0.12965-0.36641-0.21674c-1.30347-0.84662-2.31621-2.06937-2.90252-3.50676
	c-0.64554-1.60162-0.96173-3.31577-0.93172-5.0424L20.79355,175.40331L20.79355,175.40331z M25.25194,127.70854v47.69476
	c-0.03031,1.12032,0.16512,2.23479,0.57393,3.27904c0.22773,0.61771,0.64218,1.14696,1.18827,1.51454l0.15869,0.09044
	l71.81485,41.36464c0.11817,0.05141,0.23219,0.11401,0.33718,0.18871c0.37404,0.19543,0.79631,0.2816,1.21838,0.24792
	c0.70369-0.07468,1.38142-0.30806,1.98121-0.68457l50.02247-29.03165c2.17783-1.44749,3.93022-3.45198,5.07162-5.80533
	c1.36232-2.51382,2.11177-5.31383,2.18982-8.17168V130.6804L89.96372,90.36417L25.25194,127.70854z"/>
<path class="st6" d="M23.31986,126.47897v48.96476c0,3.33797,1.12903,5.7045,2.89232,6.73438l68.23885,39.40561
	c1.78468,1.17172,3.82066,1.90543,5.94362,2.13881l26.06097-21.38586c4.60578-2.63576,8.38969-9.79668,8.38969-15.90799v-41.01962
	l-39.33439,21.8427l-72.19106-40.76178V126.47897z"/>
<path class="st0" d="M134.61758,186.43877c-0.07727,3.18948-0.90923,6.31548-2.42686,9.12329
	c-1.30009,2.67143-3.31241,4.93286-5.81425,6.53677l-27.08164,18.17616l-0.10836,0.06032l-0.68369,3.31807l-72.31052-41.76254
	c-0.92042-0.57501-1.63164-1.42838-2.03034-2.43666c-0.5139-1.29109-0.76292-2.67143-0.734-4.06078v-48.75496l71.90419,41.13701
	l0.13977,0.08052l0.13847-0.08052l38.978-21.92978L134.61758,186.43877L134.61758,186.43877z M134.76726,145.1721
	l-39.25634,22.08865l-72.24029-41.33581l-0.41663-0.24793v49.65715l0.10946,0.44565v0.27795l-0.12966-0.7236
	c-0.03348,1.46404,0.23357,2.92163,0.78313,4.27948l-0.19772-1.06979l0.20752,0.81097l0.37651,0.72359l-0.38632-0.46477
	c0.37393,0.94826,0.99699,1.78023,1.80231,2.40695c0.14858,0.10945,0.29707,0.19881,0.44674,0.28696l-0.3673-0.43663H25.549
	l0.31698,0.42653l0.65337,0.37651l72.00365,41.60246l0.32599,0.19881l0.07944-0.37621l0.71349-3.45674l26.97238-18.05769
	c2.59445-1.65868,4.68185-3.99927,6.03297-6.76697c1.56032-2.8846,2.41476-6.09982,2.49619-9.37886v-41.50569L134.76726,145.1721z"
	/>
<path class="st1" d="M95.66961,167.53871v48.88332c0,6.09113,3.78362,8.91559,8.37949,6.32895l49.61674-28.45781
	c4.59706-2.62448,8.38068-9.78647,8.38068-15.8978v-48.99258l-66.22832,38.22527L95.66961,167.53871z"/>
<path class="st0" d="M95.3133,216.45096v-49.3477l0.41525,0.23665l66.17949-38.19624l0.41563-0.24686v49.47836
	c-0.08063,3.28012-0.93588,6.49426-2.4962,9.38025c-1.35368,2.77077-3.4498,5.11165-6.05327,6.76468l-49.69499,28.49902
	c-1.03196,0.62534-2.21012,0.96698-3.41751,0.99174c-0.86,0.00752-1.70325-0.22693-2.43696-0.67476
	c-0.76283-0.49588-1.38707-1.17708-1.81242-1.98122c-0.79185-1.52773-1.18163-3.23218-1.12933-4.95306L95.3133,216.45096
	L95.3133,216.45096z M95.86841,167.91502v48.53593c-0.05923,1.63164,0.30579,3.24783,1.05861,4.69612
	c0.38324,0.70596,0.93805,1.30228,1.615,1.73218c0.64782,0.40326,1.39806,0.60988,2.1599,0.59641
	c1.11576-0.04912,2.19904-0.39087,3.13947-0.99065l49.68488-28.48892c2.50185-1.60579,4.51198-3.86751,5.81653-6.53775
	c1.51654-2.81099,2.34851-5.94035,2.42686-9.1335v-48.53683l-65.88242,38.12701H95.86841z"/>
<polygon class="st11" points="89.83514,87.71969 162.04651,129.40279 95.67941,167.53871 23.61693,125.93624 "/>
<polygon class="st1" points="51.48021,114.48435 51.48021,110.20457 23.54749,126.25322 95.6393,167.85597 161.90804,129.68974 
	153.22028,124.17147 95.55113,162.82239 41.67452,132.11551 30.94772,126.66766 51.49031,114.48435 "/>
<path class="st0" d="M161.49022,129.4317L89.88428,88.07599l-66.02952,38.01746l71.84486,41.26666l65.7906-37.95732V129.4317
	L161.49022,129.4317z M90.02296,87.54089l72.16193,41.60277c0.13422,0.07468,0.18227,0.24338,0.10956,0.3774l-0.10956,0.09827
	l-66.3667,38.28578c-0.09163,0.05478-0.20554,0.05478-0.29717,0l-72.38005-41.60275
	c-0.13283-0.07469-0.18305-0.24348-0.10837-0.3774l0.10837-0.09935L89.7459,87.54089H90.02296z"/>
<path class="st2" d="M62.41632,167.06303l-9.21156-5.35849l-3.03109,2.1084l2.11969,4.60577l3.23891,9.90613l2.61546,3.31805
	c3.7334-2.22804,4.19024-2.73264,4.26859-5.94252v-8.64745V167.06303z"/>
<path class="st0" d="M53.41229,161.35715l9.23285,5.32829c0.14522,0.07043,0.23674,0.21674,0.23674,0.37759v8.63734
	c0.11391,1.25195-0.18087,2.50629-0.84098,3.5761c-1.02512,1.12032-2.25133,2.03706-3.61631,2.70509
	c-0.17968,0.1171-0.42089,0.07806-0.55392-0.09073l-2.66469-3.2198l-3.2397-9.90503v-0.06796l-2.19913-4.65709
	c-0.09717-0.18562-0.04239-0.41444,0.12947-0.53519l3.02991-2.1385c0.1362-0.08836,0.31054-0.08836,0.44674,0L53.41229,161.35715
	L53.41229,161.35715z M62.00069,167.29979l-8.77591-5.10057l-2.52631,1.7937l1.9813,4.24948l3.21861,9.90503l2.37772,2.97186
	c1.15489-0.57729,2.19467-1.36043,3.07012-2.30838c0.54728-0.93282,0.7862-2.01379,0.68457-3.09152L62.00069,167.29979z"/>
<path class="st6" d="M59.39533,168.9449l-9.22166-5.13196v9.76775c0,7.79546,9.22166,11.40167,9.22166,5.29034V168.9449z"/>
<path class="st0" d="M50.37139,163.48694l9.19244,5.07135c0.15076,0.07042,0.24794,0.22119,0.24794,0.38661v9.96536
	c0.15631,1.32565-0.52143,2.60883-1.70415,3.22852c-0.60196,0.25922-1.26662,0.3353-1.91217,0.21901
	c-0.72806-0.11847-1.42719-0.37404-2.06035-0.75392c-2.76523-1.70067-4.42609-4.73741-4.36795-7.98415v-10.01451
	c0.11283-0.19771,0.36532-0.26903,0.56521-0.15839L50.37139,163.48694L50.37139,163.48694z M58.96959,169.18272l-8.38058-4.62708
	v9.06407c-0.05369,2.95412,1.45195,5.71599,3.96241,7.27185c0.54282,0.32034,1.14032,0.54044,1.76368,0.64435
	c0.48458,0.08707,0.98273,0.0312,1.4362-0.15977c0.87327-0.49251,1.35339-1.47295,1.20818-2.46588v-9.72754H58.96959z"/>
<path class="st12" d="M121.34535,95.33744H70.2719v31.24207c0.0424,1.77795,1.00631,3.40621,2.54533,4.29852
	c5.58623,2.89133,28.4588,16.32333,28.4588,16.32333l15.84876-38.19516l4.22926-2.44568V95.33744H121.34535z"/>
<polygon class="st13" points="153.23038,115.94047 102.14822,115.94047 102.14822,128.37291 109.98271,145.64796 
	121.81982,148.07481 153.23038,129.9467 "/>
<polygon class="st14" points="122.34462,136.61282 71.26246,136.61282 71.26246,149.07449 95.55113,162.82239 118.11546,150.31297 
	122.35473,147.86482 122.35473,136.61282 "/>
<path class="st15" d="M132.48888,102.3992l18.98822,10.80724c2.63547,1.49544,2.27838,4.15141-0.78313,5.94402l-17.43344,9.90504
	c-3.06003,1.74199-7.71602,1.9812-10.35069,0.44675l-18.99833-10.80754c-2.63547-1.49663-2.27937-4.15032,0.78204-5.94372
	l17.43345-9.90504C125.1882,101.10148,129.85312,100.86443,132.48888,102.3992z"/>
<path class="st16" d="M100.60246,81.74566l18.98931,10.80753c2.63467,1.49653,2.28848,4.15002-0.78284,5.94373l-17.43345,9.90504
	c-3.0614,1.74338-7.7174,1.98121-10.35207,0.44664L72.03549,98.00105c-2.63577-1.49554-2.28838-4.15002,0.77273-5.94263
	l17.43345-9.90613c3.07022-1.74338,7.72622-1.98012,10.36079-0.44446V81.74566z"/>
<path class="st17" d="M101.58302,123.20103l18.99941,10.8957c2.62447,1.49663,2.27827,4.15002-0.78284,5.94371l-17.43355,9.90504
	c-3.0614,1.74446-7.72632,1.9812-10.35197,0.44675l-18.99803-10.89571c-2.63467-1.50554-2.27837-4.15111,0.78165-5.89458
	l17.43355-9.90614c3.06111-1.74229,7.71711-1.98121,10.35178-0.44447V123.20103z"/>
<path class="st0" d="M153.23038,128.66769l0.85217,0.49586c0.13055,0.07835,0.17404,0.24567,0.09937,0.37651l-0.10947,0.09946
	l-58.3439,33.67873c-0.08925,0.06032-0.20634,0.06032-0.29707,0l-64.48376-36.65059
	c-0.13422-0.07389-0.18454-0.2412-0.10955-0.37542l0.10955-0.11936l44.57433-25.54628v0.63346l-43.93106,25.15967l63.96015,36.33469
	l57.78871-33.36284l-0.14848-0.08815v-0.64326L153.23038,128.66769z"/>
<path class="st18" d="M122.77145,176.6508l-1.12904,0.62445l-0.9025,0.49586l-1.13913,0.62425
	c-1.12488,0.70924-1.83827,1.91969-1.91108,3.24753v4.77567c0,1.13913,0.77194,1.66304,1.74348,1.22729v7.01381
	c-0.0837,0.4411,0.20663,0.86534,0.64891,0.94817c0.23219,0.04358,0.47338-0.01685,0.65782-0.16533l0.9025-0.49478
	c0.76817-0.48576,1.25513-1.31239,1.30644-2.22023v-7.01143c1.0274-0.73262,1.66879-1.89197,1.74348-3.15047v-4.77446
	c0.10836-0.65347-0.33273-1.26979-0.98729-1.37926C123.3746,176.3582,123.03484,176.44418,122.77145,176.6508L122.77145,176.6508z
	 M121.08731,170.45132c-1.23968,0.77075-2.02251,2.0975-2.09978,3.55501c0,1.32674,0.94034,1.89284,2.09978,1.24838
	c1.2374-0.77153,2.02251-2.09828,2.09938-3.55698C123.18669,170.37218,122.19614,169.80687,121.08731,170.45132L121.08731,170.45132
	z M130.80475,161.47652c-1.48425,0.92944-2.4223,2.52097-2.5164,4.26968c0,1.58469,1.12932,2.25717,2.5164,1.48534
	c1.48315-0.92459,2.4212-2.51393,2.5161-4.26067C133.32085,161.37717,132.19072,160.71388,130.80475,161.47652L130.80475,161.47652z
	 M140.70978,159.63399c-1.20509,0.75143-1.96802,2.04698-2.04044,3.46773c0,1.28653,0.91141,1.83154,2.04044,1.20709
	c1.20374-0.75055,1.96437-2.04044,2.04164-3.45644C142.75142,159.55455,141.83882,159.01965,140.70978,159.63399
	L140.70978,159.63399z M142.39392,165.57771l-1.9812,1.11893l-1.12903,0.62305c-1.13379,0.70369-1.85066,1.91782-1.92119,3.25011
	v4.77448c0,1.13805,0.77194,1.65274,1.74229,1.22849v7.05136c-0.07579,0.44366,0.2202,0.86346,0.66238,0.93953
	c0.22881,0.03903,0.46446-0.02129,0.64554-0.16531l0.90131-0.49588c0.76826-0.48468,1.25621-1.31248,1.30763-2.21913v-7.01372
	c1.02739-0.72696,1.66869-1.88185,1.74336-3.13927v-4.78456c0-1.19838-0.86227-1.71416-1.92078-1.12904L142.39392,165.57771
	L142.39392,165.57771z M132.82498,169.12349l-1.33676,0.7337l-1.04988,0.57422l-1.32784,0.73143
	c-1.3223,0.8286-2.16119,2.24718-2.24826,3.80492v5.60535c0,1.33685,0.9013,1.9812,2.04044,1.43739v8.22079
	c-0.04803,0.5462,0.35413,1.02632,0.90022,1.07436c0.22435,0.01912,0.44783-0.03793,0.63544-0.16176l1.04988-0.58511
	c0.90468-0.56749,1.47633-1.53902,1.53557-2.60457v-8.21198c1.20401-0.85435,1.95544-2.21141,2.04053-3.68446v-5.60645
	c0.14284-0.75282-0.34846-1.47978-1.10239-1.62381c-0.40662-0.07805-0.8275,0.03001-1.14705,0.29597H132.82498z"/>
<path class="st1" d="M125.61355,121.05222c-0.25883-0.15413-0.52698-0.29369-0.80166-0.41643
	c-0.32738-0.14848-0.40652-0.27715-0.26705-0.50597c0.38533-0.66348-0.16869-1.36716-1.2587-1.72237
	c-1.18153-0.38186-2.45687-0.3462-3.61631,0.09945c-0.98946,0.42455-1.35558,1.16717-0.87099,1.79251
	c0.79858,0.80869,1.94,1.17846,3.06121,0.99065c0.75272-0.1362,1.53001,0.02249,2.16872,0.44447l0.63464,0.32857
	c1.48088,0.61514,3.12907,0.70022,4.66472,0.23664l-1.19818-0.80195C127.2654,121.65982,126.37083,121.50114,125.61355,121.05222
	L125.61355,121.05222z M137.08455,110.57216c-3.92903-1.65195-8.26437-2.08402-12.44135-1.23859
	c0.45565,0.22773,0.8811,0.46556,1.35696,0.68338c0.1786,0.06271,0.3673,0.08261,0.55491,0.05933
	c7.34981-0.83226,13.86775,2.5071,12.23274,6.33004v0.26785c0.44675,0.25576,0.93132,0.49478,1.41708,0.74271
	C141.69034,115.60437,141.4525,112.67154,137.08455,110.57216L137.08455,110.57216z M138.37227,117.25741
	c0.43318,0.21307,0.84207,0.47111,1.21829,0.77382c0.88139,0.78284,0.59413,1.80261-0.64326,2.4647
	c-0.99066,0.54619-1.98239,1.03107-2.97186,1.53674c-1.79677,0.7862-3.84058,0.7862-5.63655,0
	c-1.4362-0.70329-1.4463-0.80166-0.05923-1.51654l2.88261-1.49425l3.4174-1.76447
	C137.12923,116.92101,137.82272,116.92101,138.37227,117.25741L138.37227,117.25741z M121.61211,112.99892l-3.41751,1.75328
	c-0.54945,0.3361-1.24304,0.3361-1.7925,0c-0.43327-0.20891-0.84207-0.46556-1.21838-0.76263
	c-0.88219-0.78313-0.59522-1.80379,0.64327-2.46727c0.99065-0.54391,1.9813-1.03077,2.97186-1.53566
	c1.79597-0.7862,3.83949-0.7862,5.63655,0c1.4362,0.70369,1.4463,0.80305,0.05923,1.51575L121.61211,112.99892z"/>
<path class="st1" d="M87.21057,136.34499c0.31618-0.19682,0.39543-0.37543,0.27716-0.56294
	c-0.1887-0.23337-0.48458-0.35411-0.78284-0.31845h-2.97186c-0.48488,0-0.84207,0.21901-0.83217,0.48605
	c0.01011,0.26785,0.35739,0.47566,0.85217,0.47566h2.91253C86.84892,136.41739,87.03207,136.39075,87.21057,136.34499
	L87.21057,136.34499z M111.28053,135.46468h-3.07012c-0.28053-0.02664-0.55402,0.09271-0.7239,0.31737
	c-0.10836,0.18752,0,0.35512,0.18871,0.5349c0.17661,0.05469,0.35966,0.09154,0.545,0.10837h3.06032
	c0.45546,0,0.78284-0.22772,0.78284-0.48466C112.06337,135.6826,111.71717,135.47478,111.28053,135.46468L111.28053,135.46468z
	 M97.47202,130.13422c0.46576,0,0.83197-0.20773,0.84207-0.48349v-1.70544c0-0.11857-0.11827-0.24793-0.14858-0.30727
	c-0.29816-0.17632-0.65337-0.22991-0.99055-0.1474c-0.3362,0.07944-0.51469,0.23784-0.51469,0.44566v1.71445
	C96.66026,129.96661,97.02637,130.13422,97.47202,130.13422L97.47202,130.13422z M97.49223,141.71448
	c-0.43555,0-0.82216,0.18869-0.83197,0.43663v1.81163c0,0.19881,0.20743,0.33717,0.5349,0.40652
	c0.33609,0.08369,0.69012,0.03348,0.99055-0.13977c0-0.05894,0.15869-0.1674,0.15869-0.26675v-1.80153
	C98.30399,141.90317,97.92767,141.72458,97.49223,141.71448L97.49223,141.71448z M105.73334,131.83945l1.9812-1.15904
	c0.35709-0.21793,0.37621-0.515,0.06003-0.70369c-0.38741-0.20772-0.85188-0.20772-1.23849,0l-0.99065,0.58403l-0.99055,0.58403
	c-0.3662,0.21901-0.38641,0.51498,0,0.71379C104.9291,132.03598,105.36574,132.02954,105.73334,131.83945L105.73334,131.83945z
	 M106.72388,140.63567l-0.99055-0.59523c-0.36987-0.19316-0.80869-0.19316-1.17847,0c-0.3463,0.19881-0.3561,0.48576,0,0.7036
	c0.67358,0.40662,1.36707,0.80194,2.06065,1.19847c0.37849,0.19989,0.82968,0.19989,1.20818,0
	c0.31738-0.189,0.29716-0.48499,0-0.68488L106.72388,140.63567L106.72388,140.63567z M89.26122,131.85857
	c0.37067,0.19881,0.81622,0.19881,1.18827,0c0.33729-0.19881,0.32708-0.48576,0-0.69359l-0.99065-0.59413l-0.99055-0.58403
	c-0.37968-0.19762-0.82978-0.19762-1.20847,0c-0.33728,0.18761-0.33728,0.49586,0,0.70259L89.26122,131.85857L89.26122,131.85857z
	 M89.61752,140.5062l-1.81271-1.04979c-0.38533-0.21346-0.85307-0.21346-1.23859,0
	c-0.22772,0.11926-0.44565,0.24794-0.65307,0.37622c-0.20891,0.12857-0.52509,0.5139-0.28726,0.79294
	c0.23694,0.27715,0.06934,0.38522-0.12946,0.5652l-0.06934,0.07806c-0.26675,0.26814-0.20752,0.524,0.16869,0.75282l1.08892,0.62415
	c0.87218,0.51498,0.99065,0.52509,2.09076,0.15759c0.15195-0.04913,0.31361-0.04913,0.46556,0
	c0.51608,0.1575,1.07346,0.10718,1.55467-0.13728l0.5349-0.30728c0.50489-0.29816,0.51499-0.5551,0-0.84207L89.61752,140.5062
	L89.61752,140.5062z M101.67256,132.35443c3.3972,1.38707,4.29861,3.95122,2.02023,6.00296
	c-1.68414,1.34358-3.78947,2.045-5.94253,1.9812c-1.39837,0.00229-2.78316,0.26706-4.08208,0.78175
	c-0.51271,0.21445-1.09456,0.18414-1.58479-0.07925l-1.64402-0.98946l-1.6148-0.93132
	c-0.46467-0.30717-0.51499-0.67368-0.12858-0.99066c0.74044-0.52617,1.21749-1.34695,1.30793-2.24934
	c0.05923-1.21748,0.83196-2.24826,2.34761-3.09033C95.26635,131.3717,98.63701,131.21411,101.67256,132.35443L101.67256,132.35443z
	 M102.05888,97.98103c-0.93132,0.48359-2.04044,0.48359-2.97186,0c-0.79294-0.43575-0.91141-1.17846-0.06934-1.69315
	c0.93033-0.48795,2.04163-0.48795,2.97186,0C102.76257,96.71442,102.88074,97.44703,102.05888,97.98103L102.05888,97.98103z
	 M97.31442,99.83366c-0.30579,0.17444-0.64208,0.28617-0.99174,0.32748c-1.44492,0.18078-2.91144,0.06231-4.30861-0.34738
	c-0.58295-0.15869-1.14449-0.3886-1.67404-0.68369c-0.76381-0.40741-1.37251-1.05524-1.73337-1.84144
	c-0.22317-0.50826-0.22317-1.08664,0-1.59489c0.11292-0.26359,0.31728-0.47814,0.57423-0.60424
	c0.20861-0.10728,0.45654-0.10728,0.66436,0c0.30717,0.17097,0.60088,0.36304,0.8811,0.57393
	c0.51498,0.40662,0.99065,0.83226,1.50673,1.24869c0.72915,0.5461,1.52882,0.99174,2.37653,1.32675l2.39793,0.99055
	c0.1573,0.06379,0.3038,0.15076,0.43555,0.25803C97.54136,99.57681,97.51213,99.70539,97.31442,99.83366L97.31442,99.83366z
	 M92.36135,92.34538c0.93617-0.46556,2.0349-0.46556,2.97077,0c0.47369,0.17097,0.71934,0.69359,0.54728,1.16727
	c-0.09271,0.25467-0.29261,0.45456-0.54728,0.54609c-0.93359,0.4723-2.03687,0.4723-2.97077,0
	c-0.47229-0.1575-0.72697-0.66793-0.56937-1.14023c0.07915-0.23674,0.25467-0.42911,0.48012-0.53271L92.36135,92.34538
	L92.36135,92.34538z M107.21976,94.32658c-0.51836-1.11893-1.35141-2.06154-2.39793-2.71372
	c-1.54565-0.99847-3.27784-1.67185-5.09035-1.9813c-1.35815-0.26785-2.73848-0.39088-4.1211-0.36611
	c-1.53565,0.0098-3.06229,0.21307-4.54654,0.60285c-1.60717,0.39533-3.12035,1.09783-4.45719,2.07075
	c-0.84881,0.6197-1.52912,1.44077-1.98121,2.38754c-0.23476,0.54728-0.35294,1.13805-0.34739,1.73337
	c0.20871,1.36597,0.87555,2.62032,1.89166,3.55609c0.87585,0.77164,1.88076,1.37924,2.97186,1.7926
	c1.64522,0.66654,3.38185,1.07089,5.15079,1.19926c1.73138,0.15076,3.47337,0.06815,5.18108-0.24793
	c1.96437-0.31371,3.83949-1.04652,5.49698-2.1497c0.92915-0.61999,1.68642-1.46542,2.20022-2.45608
	C107.70553,96.67876,107.72326,95.41669,107.21976,94.32658z"/>
<g>
	<path class="st19" d="M27.80217,149.69272l-0.65396,0.45317c-0.63405,0.43861-1.67037-0.15918-2.30334-1.32922l-0.78085-1.44046
		l-4.17786,2.39258l-0.12461,0.07083l-0.00198,0.00108c-0.28053,0.12888-0.63851,0.09767-1.02542-0.12669l-2.52651-1.45839
		c-0.89516-0.51717-1.62887-1.87144-1.62887-3.00999v-2.79356c-1.03889-0.94231-2.01944-2.03261-2.92352-3.22989l-1.55705,1.07851
		c-0.63396,0.4408-1.67067-0.15839-2.30324-1.32872L6.0089,135.673c-0.63405-1.17142-0.63405-2.48608,0-2.92609l1.55576-1.07901
		c-0.53034-1.45197-0.9434-2.93709-1.21244-4.41124L4.152,125.9845c-0.89625-0.51608-1.62887-1.87007-1.62887-3.00891v-3.20751
		c0-0.61681,0.21426-1.04671,0.55322-1.23175l4.05869-2.43221l-1.12616-2.08314c-0.63405-1.17033-0.63405-2.48609,0-2.925
		l1.78607-1.2374l0.06736-0.04239l7.53296-4.31228c0.63405-0.43892,1.67186,0.15888,2.30442,1.32922l0.79324,1.46404
		l4.21233-2.44676c0.29172-0.17523,0.68011-0.16037,1.10407,0.08528l2.52651,1.4584
		c0.89744,0.51697,1.62916,1.87125,1.62916,3.00871v2.79465c1.03968,0.94231,2.02132,2.03153,2.9255,3.22881l1.55616-1.07832
		c0.63396-0.43743,1.67037,0.15958,2.30294,1.33071l1.78527,3.29814c0.63485,1.17113,0.63485,2.48609,0,2.92461l-1.55616,1.0802
		c0.53044,1.45304,0.9435,2.93729,1.21363,4.41262l2.20022,1.26968c0.89625,0.51855,1.62798,1.87254,1.62798,3.01138v3.20602
		c0,0.69449-0.27181,1.1544-0.68794,1.2905l-3.97252,2.28392l1.1748,2.17308c0.63485,1.17113,0.63485,2.48608,0,2.92688
		C33.73232,146.49649,30.78413,147.99312,27.80217,149.69272L27.80217,149.69272z M19.36027,124.03777
		c0.45962,2.78236,1.92286,5.65448,3.82433,7.57397C22.72469,128.83057,21.26144,125.95865,19.36027,124.03777z"/>
	<path class="st20" d="M26.67819,152.81364c-0.27835,0-0.56214-0.03258-0.84464-0.10103
		c-1.02007-0.24348-1.96912-0.91736-2.69946-1.89702l-1.92653,1.10289c-0.12184,0.07974-0.25011,0.14908-0.38245,0.20979
		c-1.05573,0.48122-2.27154,0.39365-3.35203-0.22891l-2.52651-1.45839c-1.67483-0.96817-2.88984-3.15125-2.88984-5.19536v-1.71535
		c-0.30073-0.29935-0.59691-0.61127-0.88724-0.93448c-0.72142,0.37572-1.55388,0.46892-2.38397,0.27269
		c-1.27672-0.30528-2.44696-1.28682-3.21108-2.69589l-1.78577-3.29834c-1.2902-2.38506-0.96143-4.9921,0.78204-6.20146
		l0.00753-0.00455c-0.17711-0.5992-0.33302-1.19946-0.46863-1.79282l-1.21858-0.70448C1.2161,127.20278,0,125.0197,0,122.97559
		v-3.20751c0-1.52208,0.70111-2.81119,1.87264-3.44861l1.89582-1.13627c-1.26662-2.37386-0.9333-4.95871,0.80225-6.16134
		l1.78607-1.23859l0.28469-0.17632l7.43807-4.25611c0.77303-0.49033,1.70068-0.63712,2.63071-0.41396
		c1.02205,0.24457,1.97556,0.92211,2.70589,1.90603l2.02172-1.17341c1.06217-0.63851,2.43211-0.61356,3.63583,0.08311
		l2.52324,1.4573c1.67483,0.96332,2.89202,3.14986,2.89202,5.19288v1.71673c0.30073,0.29816,0.59592,0.60899,0.88734,0.9333
		c0.72053-0.37572,1.55279-0.47141,2.38614-0.27181c1.27583,0.30638,2.44479,1.28822,3.20652,2.69589l1.78468,3.29835
		c1.29366,2.38615,0.9651,4.99348-0.78392,6.20146l-0.00337,0.00446c0.17721,0.59928,0.33302,1.19847,0.46972,1.79508l1.2164,0.7023
		c1.67711,0.96955,2.89103,3.15383,2.89103,5.19674v3.20602c0,1.657-0.79888,2.99435-2.11156,3.56769l-1.68275,0.96815
		l0.00446,0.01239c1.29366,2.38278,0.9651,4.99239-0.78165,6.19948c-2.17327,1.50415-4.43025,2.75621-6.61561,3.96696
		c-0.73291,0.40604-1.46879,0.81345-2.20784,1.23373l-0.56323,0.38919C28.01999,152.61177,27.36355,152.81364,26.67819,152.81364
		L26.67819,152.81364z M24.06402,144.85078c0.23219,0,0.46249,0.03378,0.68992,0.09747
		c0.65426,0.18642,1.20402,0.6284,1.53031,1.22423l0.61266,1.13408c0.67298-0.38245,1.34497-0.755,2.0138-1.12506
		c1.90909-1.05693,3.7232-2.06323,5.47222-3.21674l-0.06627-0.13451l-1.17678-2.17407
		c-0.6506-1.20154-0.22317-2.70491,0.96143-3.38799l3.39582-1.95427v-2.63864c0-0.2513-0.23783-0.72043-0.40038-0.84712
		l-2.16624-1.2475c-0.6394-0.37038-1.08802-1.00294-1.21947-1.73109c-0.2412-1.31377-0.61127-2.65984-1.10288-4.00283
		c-0.39375-1.07911-0.00872-2.28619,0.9336-2.94045l0.84573-0.58433l-0.07082-0.14343l-1.59628-2.95076l-0.39276,0.2729
		c-1.1117,0.77045-2.63636,0.52589-3.45089-0.55312c-0.82325-1.08952-1.6993-2.05877-2.60575-2.87984
		c-0.52757-0.47923-0.8283-1.15796-0.8283-1.87027v-2.79465c0-0.25021-0.24001-0.71775-0.40038-0.84573l-1.85541-1.06812
		l-3.42652,1.99022c-0.58987,0.34115-1.29327,0.43069-1.9506,0.24794c-0.65614-0.18533-1.21046-0.62732-1.53566-1.22849
		l-0.65753-1.21274l-6.45078,3.691l-1.0072,0.69913l0.06706,0.14234l1.12992,2.08432
		c0.64267,1.18797,0.23555,2.67113-0.92349,3.3666l-3.38571,2.02954v2.67677c0,0.25011,0.23892,0.71796,0.40147,0.84712
		l2.16545,1.24751c0.64158,0.37116,1.08694,1.00274,1.22145,1.73109c0.24001,1.31238,0.61038,2.65953,1.09951,4.00262
		c0.39365,1.07822,0.01238,2.28531-0.93221,2.93927l-0.84346,0.58453l0.06825,0.14352l1.59737,2.95274l0.39394-0.27487
		c1.11388-0.76967,2.63517-0.52589,3.45089,0.55421c0.82097,1.08841,1.69731,2.05649,2.60625,2.87984
		c0.52697,0.47783,0.82771,1.15794,0.82771,1.86887v2.79356c0,0.2513,0.23902,0.71904,0.40048,0.84573l1.85679,1.07178
		l3.44723-1.97794C23.19362,144.96619,23.62768,144.85078,24.06402,144.85078L24.06402,144.85078z M35.09869,120.82837
		l-0.00337,0.00337L35.09869,120.82837L35.09869,120.82837z M4.47096,120.64225l-0.09767,0.05923L4.47096,120.64225
		L4.47096,120.64225z M22.54946,108.11996l0.00228,0.00228L22.54946,108.11996L22.54946,108.11996z M24.00112,108.01665
		l-0.04131,0.0213L24.00112,108.01665L24.00112,108.01665z M16.83347,107.57803l-0.00228,0.00228L16.83347,107.57803
		L16.83347,107.57803z M23.1846,134.13379c0.38919,0,0.78313-0.08984,1.14647-0.27606
		c0.97936-0.49925,1.52129-1.5741,1.3419-2.65904c-0.54312-3.28577-2.23142-6.62661-4.52098-8.9344
		c-0.77332-0.78085-1.9613-0.97065-2.93927-0.4725c-0.97857,0.50033-1.52159,1.57656-1.3419,2.65795
		c0.54421,3.28716,2.23251,6.6268,4.52099,8.93796C21.87757,133.87575,22.52727,134.13379,23.1846,134.13379z"/>
	<path class="st21" d="M27.96502,113.19744c1.03968,0.94231,1.92702,1.90484,2.82803,3.10212l1.65363-0.95162
		c0.66744-0.38573,1.67037,0.15958,2.30294,1.33071l1.78527,3.29814c0.63485,1.17113,0.63485,2.48609,0,2.92461l-1.55616,1.0802
		c0.53044,1.45304,0.9435,2.93729,1.21363,4.41262l2.20022,1.26968c0.89625,0.51855,1.62798,1.87254,1.62798,3.01138v3.20602
		c0,0.69449-0.27181,1.1544-0.68794,1.2905l-3.97252,2.28392l1.1748,2.17308c0.63485,1.17113,0.63485,2.48608,0,2.92688
		c-2.80257,1.9408-5.75076,3.43742-8.73272,5.13811l-1.39549-3.66287l-6.64711,3.80977l-1.1116-7.5914l6.51111,2.43111
		l-1.34973-0.78006c-0.89516-0.51578-1.62768-1.87115-1.62768-3.00861v-0.99847l-2.18992,1.42015l-6.85909-3.9006l-4.48523-13.58672
		l3.04258-2.23479c-0.60701-0.3782-1.12992-1.13776-1.38985-1.94l-3.58204,4.23402l-3.64177-5.34899l5.92232-3.54836
		l-1.14538-5.16613l7.54198-4.31792c0.63405-0.43892,1.67067,0.16116,2.30442,1.32922l0.77748,1.43481l4.22808-2.41754
		c0.29172-0.17523,0.68011-0.16037,1.10407,0.08528l2.52651,1.4584c0.89744,0.51697,1.62916,1.87125,1.62916,3.00871V113.19744
		L27.96502,113.19744z M26.93028,133.78699l-7.06651-14.56866c-0.4195,0.78422-0.65624,1.80855-0.65624,3.04258
		c0,4.11496,2.62764,8.9659,5.86616,10.83478C25.7223,133.47052,26.34714,133.69716,26.93028,133.78699z"/>
	<path class="st20" d="M19.75957,150.15709l-0.13818-0.0314c-0.09183-0.04715-0.15918-0.13452-0.17374-0.23784l-1.11308-7.5925
		c-0.01456-0.11005,0.02833-0.22119,0.11679-0.29082c0.08538-0.07162,0.20217-0.08965,0.30638-0.05061l4.10485,1.53169
		c-0.59106-0.70816-0.99739-1.70882-0.99739-2.59387v-0.4187l-1.69959,1.10406c-0.09886,0.06409-0.22545,0.06854-0.32738,0.00902
		l-6.86246-3.89961l-0.14264-0.17493l-4.48503-13.58664c-0.04378-0.12917,0.00109-0.27071,0.11292-0.35244l2.70173-1.98457
		c-0.37799-0.33778-0.71805-0.80671-0.96143-1.32952l-3.24337,3.83107L6.701,124.19952
		c-0.09856-0.00336-0.1884-0.05617-0.24348-0.1356l-3.64038-5.35038l-0.04824-0.24457l0.14601-0.20306l5.72461-3.43177
		l-1.09476-4.94386c-0.02942-0.1359,0.03229-0.27488,0.15136-0.34253l7.54218-4.31792
		c0.25586-0.17573,0.59443-0.2308,0.95925-0.14571c0.65644,0.15582,1.32278,0.755,1.77933,1.59995l0.62276,1.15092l3.94983-2.25728
		c0.3982-0.24229,0.90527-0.21088,1.41828,0.08509l2.52621,1.45869c0.9861,0.56778,1.78607,2.04044,1.78607,3.2813v2.65568
		c0.96926,0.88724,1.78161,1.77121,2.59595,2.82922l1.41372-0.81236c0.30301-0.17493,0.6607-0.21426,1.04117-0.10529
		c0.6393,0.18167,1.2588,0.74915,1.69731,1.55804l1.78468,3.29845c0.72251,1.33378,0.67982,2.79801-0.09856,3.33628
		l-1.35646,0.93894c0.48804,1.37004,0.86287,2.74413,1.11754,4.09277l2.07531,1.19699
		c1.00185,0.57869,1.78607,2.02142,1.78607,3.28378v3.20602c0,0.81126-0.34006,1.4057-0.90665,1.58876l-3.64573,2.10562
		l1.02849,1.90404c0.72251,1.33141,0.67982,2.79663-0.09856,3.334c-2.08006,1.44275-4.18786,2.60852-6.42047,3.84712
		c-0.77412,0.42812-1.55388,0.86227-2.33553,1.30644l-0.26398,0.02278l-0.1884-0.18394l-1.26216-3.31638l-6.32716,3.62492
		L19.75957,150.15709L19.75957,150.15709z M19.03824,142.73169l0.96698,6.60521l6.24415-3.57857l0.2626-0.02357l0.19058,0.18642
		l1.26246,3.31609c0.67724-0.38246,1.35171-0.75728,2.0236-1.12964c2.21686-1.22838,4.31119-2.38971,6.36768-3.81105
		c0.43525-0.30182,0.50261-1.41016-0.09767-2.51759l-1.17648-2.17268c-0.08122-0.15056-0.02724-0.33807,0.12214-0.42424
		l3.97113-2.28423c0.35462-0.12244,0.52985-0.49251,0.52985-1.01651v-3.20602c0-1.02344-0.67328-2.27737-1.47107-2.7374
		l-2.19962-1.2688c-0.08093-0.04605-0.13591-0.1255-0.15274-0.21654c-0.2626-1.4359-0.66634-2.90331-1.19817-4.36308
		c-0.05052-0.13561-0.00109-0.28696,0.1154-0.36899l1.55725-1.07822c0.43525-0.30073,0.50261-1.40758-0.09767-2.51501
		l-1.78587-3.29845c-0.35125-0.6505-0.84257-1.11942-1.31486-1.25314c-0.21317-0.05924-0.39959-0.04379-0.55431,0.04497
		l-1.65353,0.95242c-0.13898,0.08083-0.31311,0.04379-0.40831-0.084c-0.87823-1.16132-1.73664-2.10581-2.789-3.05943
		l-0.10193-0.23219v-2.79465c0-1.02294-0.67308-2.27609-1.47305-2.73631l-2.52542-1.4573
		c-0.30628-0.17712-0.5868-0.2094-0.7864-0.08727l-4.23293,2.41982l-0.24338,0.02912l-0.18959-0.15274l-0.77748-1.43362
		c-0.36333-0.66862-0.9019-1.1743-1.37301-1.28545c-0.18622-0.04606-0.3457-0.02387-0.47339,0.06488l-7.36427,4.21481
		l1.09426,4.94187c0.02783,0.13254-0.03061,0.26933-0.14601,0.33778l-5.63397,3.37788l3.21979,4.7299l3.3138-3.91754
		c0.073-0.08766,0.19098-0.12917,0.30182-0.10559c0.11124,0.0202,0.20306,0.10222,0.23922,0.21198
		c0.24239,0.74718,0.73687,1.44383,1.25741,1.76923c0.08737,0.05508,0.14234,0.15136,0.14799,0.25695
		c0.00337,0.10441-0.04497,0.20296-0.13006,0.26448l-2.85755,2.10027l4.37528,13.25262l6.58887,3.74707l2.02707-1.31833
		c0.09658-0.064,0.2201-0.06598,0.32203-0.01228c0.10223,0.05498,0.16512,0.16145,0.16512,0.27824v0.99847
		c0,1.02315,0.67417,2.27629,1.47078,2.73621l1.34834,0.77946c0.14373,0.08232,0.19851,0.25954,0.12778,0.40862
		c-0.06944,0.14798-0.2412,0.21643-0.39483,0.16057L19.03824,142.73169L19.03824,142.73169z M26.93028,134.10338
		c0.09886,0,0.19435-0.04715,0.25467-0.12907c0.06855-0.0941,0.08093-0.22099,0.03061-0.32431l-7.0677-14.56837
		c-0.05388-0.10668-0.15948-0.17751-0.27963-0.1786c-0.1255,0.00337-0.22882,0.0629-0.2836,0.16622
		c-0.45912,0.86059-0.6924,1.93514-0.6924,3.19166c0,4.20817,2.70173,9.19016,6.02346,11.10768
		c0.66961,0.3869,1.33259,0.63147,1.96516,0.73003L26.93028,134.10338L26.93028,134.10338z M19.87605,119.97005
		c-0.2311,0.65644-0.35323,1.43482-0.35323,2.29086c0,4.00629,2.55999,8.74371,5.70816,10.56238
		c0.38245,0.21989,0.75926,0.38809,1.12626,0.50488L19.87605,119.97005z"/>
	<path class="st1" d="M20.36182,117.55162c1.04147,0.94231,2.02172,2.03262,2.9261,3.22852l1.55695-1.07832
		c0.63296-0.43742,1.66928,0.16068,2.30334,1.33071l1.78468,3.29815c0.63287,1.17143,0.63287,2.48748,0,2.92599l-1.55695,1.07912
		c0.53183,1.45393,0.94449,2.93817,1.21383,4.41341l2.19992,1.26999c0.89516,0.51697,1.63114,1.87224,1.63114,3.0098v3.20772
		c0,1.13745-0.73598,1.64452-1.63114,1.12735l-2.19992-1.27118c-0.26933,1.16449-0.682,2.17416-1.21383,3.01454l1.55695,2.87637
		c0.63287,1.17113,0.63287,2.4861,0,2.92471l-1.78468,1.2374c-0.63405,0.43861-1.67037-0.15918-2.30334-1.32922l-1.55695-2.87776
		c-0.90329,0.15353-1.88463,0.10887-2.9261-0.1469v2.79218c0,1.13992-0.73252,1.64709-1.62768,1.12982l-2.52651-1.45839
		c-0.89516-0.51717-1.62887-1.87144-1.62887-3.00999v-2.79356c-1.03889-0.94231-2.01944-2.03261-2.92352-3.22762l-1.55705,1.07623
		c-0.63396,0.4408-1.67067-0.15839-2.30324-1.32872L6.0089,135.673c-0.63405-1.17142-0.63405-2.48608,0-2.92609l1.55576-1.07901
		c-0.53034-1.45197-0.9434-2.93709-1.21244-4.41124L4.152,125.9845c-0.89625-0.51608-1.62887-1.87007-1.62887-3.00891v-3.20751
		c0-1.13745,0.73261-1.64679,1.62887-1.12735l2.20022,1.26861c0.26903-1.16301,0.6821-2.17268,1.21244-3.01198l-1.55576-2.87637
		c-0.63405-1.17033-0.63405-2.48609,0-2.925l1.78607-1.2374c0.63257-0.4397,1.66928,0.15948,2.30324,1.32952l1.55705,2.87667
		c0.90408-0.15274,1.88463-0.10896,2.92352,0.14799v-2.79465c0-1.13745,0.7337-1.64571,1.62887-1.12963l2.52651,1.46067
		c0.89516,0.51499,1.62768,1.87145,1.62768,3.00891V117.55162L20.36182,117.55162z M17.47089,122.55382
		c-3.23861-1.87006-5.86507-0.0517-5.86507,4.06246c0,4.11376,2.62645,8.96322,5.86507,10.83576
		c3.24,1.86789,5.86537,0.05061,5.86537-4.06325C23.33626,129.27472,20.71089,124.42418,17.47089,122.55382z"/>
	<path class="st20" d="M26.67482,150.60609c-0.10559,0-0.21653-0.01376-0.32767-0.04071
		c-0.65763-0.15808-1.32259-0.7536-1.78052-1.59964l-1.45057-2.68153c-0.7761,0.10223-1.594,0.07222-2.43884-0.09856v2.39853
		c0,0.69774-0.2513,1.23969-0.69101,1.49435c-0.40415,0.23248-0.90447,0.20078-1.41045-0.09183l-2.52621-1.45869
		c-0.98501-0.56857-1.78498-2.03935-1.78498-3.28239v-2.65428c-0.9333-0.85693-1.83183-1.84422-2.67786-2.937l-1.30902,0.90744
		c-0.27716,0.19098-0.61494,0.24686-0.98164,0.16037c-0.65654-0.15808-1.3217-0.75618-1.77963-1.59964l-1.78577-3.29924
		c-0.72023-1.33289-0.67754-2.79811,0.09737-3.33519l1.35765-0.94034c-0.48696-1.36864-0.86287-2.74393-1.11725-4.09247
		l-2.07333-1.19708c-0.98501-0.56888-1.78835-2.04183-1.78835-3.2826v-3.20751c0-0.69547,0.25348-1.23968,0.69438-1.49544
		c0.40296-0.23109,0.9022-0.19851,1.40926,0.0944l1.83748,1.06138c0.25358-0.94598,0.60592-1.79736,1.05236-2.54225
		l-1.46959-2.71501c-0.72023-1.3317-0.67754-2.79663,0.09737-3.33509l1.78726-1.23661
		c0.27488-0.19177,0.61375-0.24576,0.98075-0.16007c0.65624,0.1567,1.32249,0.75361,1.77795,1.59826l1.45284,2.68153
		c0.77749-0.10312,1.59311-0.06963,2.43775,0.09995v-2.401c0-0.69438,0.25021-1.23829,0.6921-1.49326
		c0.40068-0.23308,0.9022-0.19959,1.40926,0.09212l2.52512,1.45839c0.98501,0.56858,1.78617,2.04074,1.78617,3.2827v2.65508
		c0.93102,0.85614,1.83064,1.84115,2.67667,2.93591l1.3105-0.90497c0.27686-0.19088,0.61484-0.24794,0.98045-0.16057
		c0.65733,0.15611,1.32388,0.75391,1.78161,1.59994l1.78498,3.29805c0.72103,1.33289,0.67833,2.79554-0.09777,3.3352
		l-1.35755,0.94043c0.48577,1.36517,0.86168,2.74077,1.11724,4.09019l2.07442,1.19926
		c0.98501,0.56769,1.78726,2.04044,1.78726,3.28239v3.20772c0,0.69437-0.25358,1.23967-0.69329,1.49315
		c-0.40405,0.2308-0.90438,0.19971-1.40926-0.09201l-1.83857-1.06258c-0.25358,0.94687-0.60592,1.80074-1.05246,2.54225
		l1.46998,2.71611c0.72103,1.33289,0.67833,2.79663-0.09777,3.33539l-1.78518,1.23601
		C27.13552,150.53755,26.91483,150.60609,26.67482,150.60609L26.67482,150.60609z M23.28792,145.62491
		c0.1154,0,0.22178,0.0627,0.27577,0.16483l1.55725,2.87558c0.36135,0.66823,0.90101,1.17311,1.37301,1.28543
		c0.18612,0.04715,0.34788,0.02467,0.47477-0.06398l1.78587-1.23631c0.43525-0.30162,0.50033-1.41016-0.09747-2.51759
		l-1.55606-2.87518c-0.05507-0.10004-0.05171-0.22218,0.00891-0.31847c0.52034-0.82463,0.91537-1.80518,1.17123-2.91599
		c0.02466-0.09737,0.09182-0.17938,0.18305-0.21841c0.09182-0.04181,0.19742-0.03398,0.28241,0.01654l2.20111,1.26999
		c0.30301,0.17384,0.57898,0.20673,0.77868,0.09212c0.24001-0.13898,0.37819-0.48468,0.37819-0.94676v-3.20772
		c0-1.02295-0.67447-2.27501-1.47216-2.73828l-2.20002-1.26891c-0.08053-0.04596-0.13561-0.12579-0.15354-0.21643
		c-0.26369-1.43819-0.66635-2.90559-1.19837-4.36061c-0.04804-0.13562-0.00119-0.28726,0.11679-0.36929l1.55725-1.07682
		c0.43525-0.30183,0.50033-1.40926-0.09747-2.5167l-1.78607-3.29894c-0.36135-0.66882-0.90081-1.1748-1.37222-1.28683
		c-0.19068-0.04636-0.34877-0.02357-0.47428,0.06597l-1.55725,1.07713c-0.13808,0.09549-0.32876,0.06706-0.43069-0.06854
		c-0.91002-1.20264-1.87928-2.27382-2.88538-3.18493c-0.06627-0.05953-0.1044-0.14353-0.1044-0.23417v-2.79356
		c0-1.02345-0.67447-2.27659-1.47107-2.73631l-2.52621-1.4584c-0.30073-0.17602-0.57987-0.20891-0.77749-0.09212
		c-0.24011,0.13789-0.37829,0.48467-0.37829,0.94687v2.79465c0,0.09658-0.04457,0.18732-0.12095,0.24902
		c-0.07528,0.05953-0.17275,0.08064-0.26933,0.05617c-0.98273-0.24258-1.92395-0.29202-2.79574-0.14373
		c-0.13452,0.02467-0.26458-0.04269-0.33084-0.15918l-1.55606-2.87667c-0.36254-0.66862-0.89962-1.17341-1.37083-1.28663
		c-0.19068-0.04606-0.34877-0.02238-0.47566,0.06627l-1.78716,1.23602c-0.43525,0.30073-0.50261,1.40816,0.09876,2.5167
		l1.55725,2.87646c0.05369,0.10074,0.04913,0.22179-0.01149,0.31837c-0.52024,0.82355-0.91418,1.80518-1.17083,2.9157
		c-0.02387,0.09766-0.09133,0.1783-0.18196,0.21871c-0.09212,0.04071-0.19851,0.03259-0.28389-0.01654l-2.19992-1.27029
		c-0.30301-0.17464-0.57878-0.20752-0.77867-0.09183c-0.23981,0.13789-0.37928,0.48349-0.37928,0.94677v3.20751
		c0,1.02315,0.67665,2.2763,1.47325,2.73621l2.20111,1.26999c0.07835,0.04696,0.13561,0.12471,0.15155,0.21654
		c0.26121,1.43372,0.66496,2.90104,1.19817,4.36289c0.05052,0.13472,0.00109,0.28468-0.11461,0.36809l-1.55834,1.07565
		c-0.43634,0.30301-0.50152,1.41014,0.09767,2.51758l1.78587,3.29924c0.36026,0.66882,0.90101,1.17371,1.37221,1.28712
		c0.18612,0.04349,0.34679,0.02101,0.47338-0.06627l1.55953-1.07822c0.13561-0.09439,0.32738-0.06517,0.43069,0.06934
		c0.90408,1.19838,1.87591,2.27075,2.88311,3.18613l0.10302,0.23218v2.79356c0,1.02315,0.67447,2.27748,1.47216,2.73621
		l2.52512,1.46068c0.30301,0.17186,0.58017,0.20523,0.77867,0.09073c0.24001-0.13898,0.3771-0.48438,0.3771-0.94905v-2.79218
		c0-0.09657,0.04606-0.1884,0.12105-0.24794c0.07637-0.05923,0.17741-0.07973,0.27032-0.05923
		c0.98283,0.24457,1.92177,0.29143,2.79693,0.14462L23.28792,145.62491L23.28792,145.62491z M19.89884,138.50223
		c0.60345,0,1.16747-0.1469,1.67463-0.43742c1.32051-0.76292,2.07779-2.46727,2.07779-4.67601
		c0-4.20818-2.70144-9.19046-6.02346-11.10876c-1.56369-0.9019-3.07716-1.02314-4.25948-0.34006
		c-1.31942,0.76183-2.07759,2.46588-2.07759,4.67631c0,4.20669,2.70233,9.18897,6.02207,11.10708
		C18.20905,138.24081,19.08767,138.50223,19.89884,138.50223L19.89884,138.50223z M15.04651,122.13432
		c-0.49587,0-0.95579,0.11649-1.36181,0.35234c-1.12091,0.64614-1.76358,2.15148-1.76358,4.12962
		c0,4.00599,2.56018,8.74361,5.70668,10.56089c1.3633,0.78421,2.65122,0.90645,3.62919,0.34114
		c1.12091-0.64713,1.76249-2.15158,1.76249-4.12952c0-4.0062-2.5588-8.74392-5.70668-10.56119
		C16.51728,122.36769,15.74545,122.13432,15.04651,122.13432z"/>
	<path class="st20" d="M32.11335,141.68269l-0.31173-0.54639l7.52543-4.30583l0.31301,0.54747L32.11335,141.68269
		L32.11335,141.68269z M28.74557,133.02179l-0.31311-0.54639l7.6021-4.35497l0.31391,0.54727L28.74557,133.02179L28.74557,133.02179
		z M28.7849,127.74135l-0.31193-0.54758l7.41638-4.2261l0.31192,0.54867L28.7849,127.74135L28.7849,127.74135z M24.67222,120.20333
		l-0.31529-0.54639l7.98664-4.61865l0.31509,0.54639L24.67222,120.20333L24.67222,120.20333z M20.51882,117.82511l7.60201-4.35506
		l-0.31193-0.54639l-7.6029,4.35388L20.51882,117.82511L20.51882,117.82511z M15.33833,110.43786l-0.31539-0.54639l7.97861-4.59092
		l0.31301,0.54758L15.33833,110.43786z"/>
</g>
<g>
	<path class="st22" d="M62.21598,139.74805c-0.32936,0-0.66664-0.04102-1.00383-0.12094
		c-1.65076-0.39455-3.19087-1.71674-4.22392-3.62889l-0.06033-0.11066l-4.57913,2.62309
		c-0.15413,0.10083-0.3147,0.189-0.48012,0.26537l-0.0736,0.03169c-1.22086,0.5358-2.61467,0.41109-3.93012-0.34679
		l-4.16468-2.40298c-2.24826-1.29861-3.94359-4.36923-3.94359-7.13951v-3.52083c-0.96371-0.92914-1.90295-1.93653-2.8099-3.01228
		l-0.63871,0.44278c-0.92022,0.63683-2.06273,0.84296-3.21306,0.56363c-1.65185-0.39207-3.19087-1.71366-4.22729-3.62672
		l-2.94264-5.44082c-1.69533-3.12936-1.36152-6.6058,0.77719-8.08608l1.00521-0.69636
		c-0.50479-1.56478-0.92379-3.13501-1.25087-4.69107l-2.64131-1.52466c-2.24717-1.29842-3.94339-4.36824-3.94339-7.13961v-5.28976
		c0-1.92564,0.81285-3.47189,2.23023-4.23898l4.53872-2.72283l-0.71577-1.32358c-1.72237-3.17938-1.3949-6.58025,0.7761-8.0845
		l2.94719-2.03817c0.11728-0.08399,0.23129-0.15413,0.34838-0.21683l12.3007-7.04036
		c0.90358-0.57848,1.99923-0.75391,3.10162-0.49032c1.65274,0.39424,3.19167,1.71534,4.2258,3.62751l0.07389,0.13847
		l4.70959-2.73858c1.26979-0.75926,2.8624-0.71349,4.341,0.1365l4.16577,2.40665c2.24707,1.29664,3.94141,4.36567,3.94141,7.1409
		v3.51805c0.9648,0.92904,1.90395,1.93653,2.8109,3.01307l0.63999-0.44337c0.92231-0.63881,2.06709-0.83751,3.21524-0.56412
		c1.64511,0.39345,3.19087,1.71564,4.22055,3.62642l2.95155,5.44022c1.69434,3.13104,1.35706,6.6064-0.78165,8.08778
		l-1.00185,0.69774c0.49587,1.56686,0.92152,3.1359,1.2486,4.69117l2.63467,1.52466
		c2.24935,1.29723,3.95231,4.36597,3.95231,7.13763v5.29025c0,2.08066-0.98045,3.73449-2.57534,4.40133l-4.25839,2.44994
		l0.78165,1.43115c1.71336,3.17958,1.38717,6.58104-0.78165,8.08777c-3.51686,2.43271-7.20251,4.47433-10.75949,6.44662
		c-1.23859,0.68616-2.48609,1.37776-3.73785,2.08868l-0.98719,0.68596C63.77631,139.51508,63.01338,139.74805,62.21598,139.74805
		L62.21598,139.74805z M57.91173,129.91631c0.23001,0,0.46249,0.03288,0.68685,0.0952
		c0.65228,0.18622,1.19946,0.62593,1.52238,1.22055l1.28544,2.37714c0.25328,0.46873,0.51925,0.76579,0.71577,0.94043
		l0.52509-0.36255l0.18523-0.11708c1.3001-0.74213,2.59763-1.46097,3.88753-2.17635
		c3.5025-1.94138,6.81273-3.77609,10.03252-5.97432c0.02021-0.32173-0.05923-0.99541-0.47566-1.77458l-1.94109-3.58194
		c-0.65337-1.19847-0.22803-2.6953,0.95043-3.37283l6.42949-3.69774v-5.31046c0-1.05494-0.78284-2.41477-1.42719-2.78822
		l-3.62523-2.09334c-0.64336-0.36918-1.08891-0.99847-1.21867-1.72148c-0.41525-2.26143-1.04989-4.57319-1.89196-6.87226
		c-0.38631-1.07485-0.0098-2.27629,0.93172-2.92719l2.26817-1.57181c0.02021-0.32124-0.05923-0.99403-0.47566-1.77121
		l-2.95195-5.44141c-0.24674-0.46694-0.51488-0.76629-0.7126-0.94033l-2.01459,1.3949
		c-1.10576,0.76718-2.62012,0.5237-3.43327-0.55173c-1.41817-1.8773-2.93253-3.55134-4.50632-4.97892
		c-0.52361-0.47448-0.82523-1.15122-0.82523-1.85937v-4.60687c0-1.0588-0.78392-2.41893-1.42838-2.79099l-3.9425-2.27381
		l-6.47743,3.76252c-0.5875,0.34174-1.28881,0.42792-1.94109,0.24576c-0.65456-0.18316-1.206-0.62316-1.53001-1.22066
		l-1.30684-2.41447c-0.27012-0.49924-0.55481-0.8064-0.7547-0.9752l-11.99244,6.86414l-2.59674,1.79786
		c-0.01991,0.32183,0.05706,0.99402,0.47794,1.77487l1.85966,3.43514c0.64099,1.18074,0.23555,2.65825-0.91824,3.35065
		l-6.38481,3.82601l-0.00218,0.06231v5.28976c0,1.05602,0.78729,2.41595,1.43165,2.7894l3.62869,2.09294
		c0.63762,0.36948,1.08208,0.99877,1.21412,1.72237c0.41415,2.2645,1.05098,4.57566,1.88968,6.87137
		c0.39196,1.07287,0.01089,2.27669-0.92835,2.92748l-2.26817,1.57023c-0.01991,0.32173,0.05706,0.99531,0.47794,1.7729
		l2.94511,5.44101c0.25358,0.46754,0.51836,0.76461,0.71607,0.93924l2.0135-1.3941c1.10912-0.76768,2.62447-0.52361,3.43425,0.55204
		c1.41719,1.87511,2.93263,3.55113,4.50524,4.97723c0.5248,0.47646,0.82414,1.15231,0.82414,1.86076v4.60915
		c0,1.05544,0.78729,2.41536,1.43284,2.7888l3.93913,2.27232l6.51091-3.73022
		C57.04638,130.02953,57.47846,129.91631,57.91173,129.91631L57.91173,129.91631z M24.63854,86.98907l-0.05032,0.03061
		L24.63854,86.98907L24.63854,86.98907z M56.9613,66.09741l-0.02665,0.01347L56.9613,66.09741L56.9613,66.09741z
		 M56.45978,108.93935c0.39008,0,0.78085-0.08905,1.14251-0.27518c0.9752-0.49736,1.51466-1.56715,1.33576-2.64587
		c-0.84098-5.09521-3.45872-10.27096-7.00114-13.84596c-0.77075-0.77521-1.95456-0.96787-2.92609-0.46863
		c-0.97292,0.49874-1.51565,1.56735-1.33457,2.64676c0.83979,5.09372,3.45644,10.27036,6.99886,13.84418
		C55.15888,108.68408,55.80561,108.93935,56.45978,108.93935z"/>
	<path class="st23" d="M64.34567,76.05941c1.71455,1.55477,3.19989,3.21761,4.68978,5.1898l2.78197-1.45612
		c1.12121-0.58888,2.67677,0.07806,3.71676,2.00677l2.95165,5.44051c1.03978,1.93098,1.03978,4.10228,0,4.82499l-2.57534,1.77824
		c0.8811,2.39912,1.55586,4.84777,2.00141,7.28086l3.63513,2.09463c1.47523,0.85386,2.68371,3.08666,2.68371,4.96268v5.29025
		c0,1.14538-0.44446,1.90434-1.13914,2.12672l-6.54687,3.76846l1.94109,3.58283c1.03978,1.93148,1.03978,4.10366,0,4.82786
		c-4.62599,3.20266-9.48971,5.66874-14.4091,8.47439l-2.30075-6.0397l-10.96276,6.28317l-1.83381-12.52168l10.73721,4.00986
		l-2.2224-1.28345c-1.47781-0.85445-2.68708-3.08667-2.68708-4.96604v-1.64729l-3.60958,2.34484l-11.31569-6.43394
		l-7.39676-22.40791l5.02022-3.68595c-1.00184-0.62811-1.86501-1.87897-2.29521-3.20177l-5.90806,6.98291l-6.00375-8.819
		l9.76547-5.85298l-1.88859-8.52361l12.44145-7.11961c1.04504-0.7236,2.75503,0.26369,3.79818,2.19348l1.30902,2.41566
		l6.94636-4.03938v0.00188c0.48042-0.28805,1.12151-0.26448,1.82401,0.13987L61.6586,66.486
		c1.4789,0.85445,2.68707,3.08815,2.68707,4.96654V76.05941L64.34567,76.05941z M62.64054,110.01608L50.98192,85.98971
		c-0.68903,1.2905-1.0799,2.98315-1.0799,5.01993c0,6.7841,4.3309,14.78401,9.67513,17.8687
		C60.64804,109.49446,61.67653,109.86869,62.64054,110.01608z"/>
	<path class="st22" d="M50.81322,136.80966l-0.13957-0.03178c-0.09153-0.04428-0.1575-0.13274-0.17186-0.23557l-1.83154-12.52228
		c-0.01803-0.10916,0.02555-0.21901,0.11253-0.29053c0.08628-0.07132,0.20217-0.08984,0.30717-0.05062l7.63014,2.85002
		c-1.27197-1.09139-2.22696-3.08112-2.22696-4.79447v-1.06752l-3.1248,2.02727c-0.09945,0.06379-0.22327,0.06934-0.3249,0.01099
		l-11.31688-6.43345l-0.14284-0.17632L32.18695,93.6878c-0.0424-0.12749,0.00218-0.26904,0.11282-0.34927l4.66947-3.43038
		c-0.75946-0.60255-1.43283-1.53813-1.86749-2.5906l-5.55929,6.57163c-0.06597,0.07301-0.16087,0.11114-0.25586,0.11114
		c-0.10044-0.00535-0.18979-0.05556-0.24338-0.13788L23.038,85.04185l-0.04685-0.24407l0.14739-0.20267l9.57004-5.7359
		l-1.84055-8.30015c-0.02922-0.13392,0.03229-0.2726,0.15195-0.34055l12.44135-7.12188
		c0.38414-0.26587,0.88675-0.34541,1.42947-0.21792c1.02631,0.24575,2.07392,1.19391,2.80198,2.53641l1.15261,2.13088
		l6.66653-3.87772c0.59948-0.35739,1.35894-0.30717,2.13841,0.14076l4.16468,2.40576
		c1.56933,0.90556,2.84457,3.25426,2.84457,5.23775v4.4674c1.58033,1.4463,3.00751,3.01871,4.46403,4.92949l2.54948-1.33467
		c1.36488-0.71568,3.06815,0.16542,4.13794,2.13544l2.94294,5.43972c1.14904,2.10701,1.09872,4.40608-0.08955,5.2333
		l-2.36762,1.64114c0.83196,2.32493,1.47642,4.66363,1.90206,6.96072l3.49665,2.02142
		c1.57468,0.90665,2.8525,3.25516,2.8525,5.23528v5.29025c0,1.24424-0.50479,2.15089-1.35706,2.42606l-6.23058,3.587l1.7936,3.31638
		c1.14904,2.1067,1.09872,4.40588-0.08955,5.23388c-3.42752,2.37376-6.90515,4.29941-10.58397,6.33647
		c-1.27643,0.70737-2.56078,1.41887-3.8485,2.15257l-0.26249,0.02417l-0.18642-0.18483l-2.1702-5.69519l-10.64439,6.09982
		L50.81322,136.80966L50.81322,136.80966z M49.36831,124.45449l1.6883,11.53976l10.56297-6.05209l0.2625-0.02495l0.1887,0.18552
		l2.16882,5.69669c1.18183-0.67279,2.36337-1.32616,3.53598-1.97705c3.66425-2.03093,7.12525-3.94954,10.53167-6.30399
		c0.90219-0.62613,0.85197-2.64864-0.09827-4.41895l-1.94218-3.58283c-0.07944-0.14938-0.02922-0.33778,0.11936-0.42208
		l6.54795-3.76787c0.64327-0.21287,0.98045-0.89655,0.98045-1.85461v-5.29025c0-1.75051-1.15905-3.89764-2.52621-4.69028
		l-3.62493-2.09502c-0.07944-0.04655-0.13878-0.1257-0.15869-0.21505c-0.43545-2.38189-1.10011-4.81489-1.9812-7.22887
		c-0.04913-0.13471-0.01011-0.28439,0.10925-0.36561l2.57446-1.77904c0.90219-0.62583,0.85197-2.64973-0.09827-4.41787
		l-2.95185-5.44051c-0.89239-1.65413-2.24826-2.42458-3.29904-1.8774l-2.77859,1.4565
		c-0.13541,0.06796-0.30381,0.03339-0.39533-0.09074c-1.52139-2.0135-2.9988-3.64851-4.64926-5.14622l-0.10391-0.23228v-4.60687
		c0-1.75456-1.15825-3.90318-2.52849-4.69275l-4.16468-2.40575c-0.57422-0.32936-1.10793-0.38305-1.50663-0.14413l-6.95012,4.03978
		l-0.24338,0.03001l-0.19098-0.15195l-1.30793-2.41219c-0.63316-1.17282-1.54992-2.0248-2.39427-2.22578
		c-0.36858-0.08737-0.68903-0.04052-0.94935,0.13947l-12.26503,7.01807l1.84055,8.29688
		c0.02922,0.13283-0.03001,0.27012-0.14511,0.33956l-9.48049,5.67944l5.58405,8.20456l5.6421-6.66722
		c0.0738-0.08736,0.19088-0.12976,0.30043-0.10509c0.11173,0.0208,0.20326,0.10193,0.23783,0.21119
		c0.42118,1.29643,1.24978,2.45855,2.16119,3.03109c0.08935,0.05537,0.14403,0.15136,0.14858,0.25329
		c0.00307,0.10529-0.04497,0.20444-0.12867,0.26586l-4.83569,3.55202l7.28731,22.07549l11.04418,6.27892l3.44861-2.23845
		c0.09718-0.06231,0.2201-0.06934,0.32173-0.01288c0.10054,0.05527,0.16404,0.16027,0.16404,0.27518v1.64729
		c0,1.75159,1.15934,3.90099,2.52958,4.69314l2.22389,1.28406c0.14175,0.08331,0.19761,0.25854,0.126,0.40592
		c-0.06815,0.14859-0.24001,0.21684-0.39196,0.15959L49.36831,124.45449L49.36831,124.45449z M62.64054,110.33009
		c0.09707,0,0.19197-0.04606,0.2513-0.12778c0.06904-0.0938,0.08023-0.21763,0.03111-0.32381L51.26442,85.85271
		c-0.05141-0.10609-0.15978-0.17632-0.27577-0.17721c-0.10391,0.00396-0.22684,0.0624-0.2836,0.16542
		c-0.74073,1.38846-1.11586,3.12599-1.11586,5.16871c0,6.87256,4.41034,15.01085,9.83035,18.14001
		c1.08446,0.62475,2.15089,1.02146,3.17294,1.17648L62.64054,110.33009L62.64054,110.33009z M50.98528,86.71469
		c-0.50478,1.18837-0.76847,2.65934-0.76847,4.29494c0,6.67207,4.26849,14.56728,9.51754,17.5961
		c0.79967,0.46159,1.58588,0.79036,2.34652,0.97768L50.98528,86.71469z"/>
	<path class="st1" d="M51.80715,83.24052c1.71455,1.55556,3.33381,3.35204,4.8237,5.32433l2.56633-1.77824
		c1.04543-0.7227,2.75651,0.26478,3.80164,2.19437l2.94511,5.44022c1.04543,1.93128,1.04543,4.10376,0,4.82587l-2.56751,1.77914
		c0.87555,2.39734,1.55447,4.84658,2.00002,7.27938l3.62751,2.09601c1.4786,0.85307,2.68826,3.08677,2.68826,4.96268v5.29025
		c0,1.87571-1.20966,2.71333-2.68826,1.86164l-3.62751-2.09631c-0.44555,1.91999-1.12447,3.58392-2.00002,4.9707l2.56751,4.74168
		c1.04543,1.9296,1.04543,4.10316,0,4.82588l-2.94511,2.04074c-1.04513,0.72221-2.75621-0.2634-3.80164-2.19408l-2.56633-4.74358
		c-1.48989,0.25359-3.10915,0.18028-4.8237-0.24377v4.60716c0,1.87682-1.20937,2.71413-2.68678,1.86224l-4.16468-2.40605
		c-1.47781-0.85197-2.68826-3.08676-2.68826-4.96237v-4.60915c-1.71227-1.55359-3.33153-3.35233-4.82142-5.32542l-2.5686,1.77824
		c-1.04424,0.72588-2.75423-0.26279-3.79927-2.1924l-2.94521-5.44081c-1.04533-1.9295-1.04533-4.10307,0-4.82638l2.56643-1.77774
		c-0.87555-2.39813-1.55339-4.84609-1.99894-7.28077l-3.6286-2.09492c-1.4787-0.85197-2.68717-3.08646-2.68717-4.96267v-5.28976
		c0-1.8767,1.20848-2.71461,2.68717-1.86105l3.6286,2.09383c0.44555-1.9194,1.12339-3.58283,1.99894-4.96882l-2.56643-4.74416
		c-1.04533-1.92979-1.04533-4.10119,0-4.82479l2.94521-2.03935c1.04503-0.72469,2.75503,0.26369,3.79927,2.19467l2.5686,4.74198
		c1.48989-0.25359,3.10915-0.17979,4.82142,0.24566v-4.60915c0-1.8773,1.21046-2.71491,2.68826-1.86165l4.16468,2.40437
		c1.47741,0.85336,2.68678,3.08587,2.68678,4.96436V83.24052L51.80715,83.24052z M47.03852,91.49005
		c-5.34304-3.08498-9.67276-0.08419-9.67276,6.69902c0,6.78638,4.32971,14.78709,9.67276,17.86959
		c5.34176,3.08557,9.67256,0.08588,9.67256-6.69902C56.71108,102.57613,52.38028,94.57563,47.03852,91.49005z"/>
	<path class="st22" d="M62.21598,137.54951c-0.15869,0-0.32381-0.01961-0.4925-0.06151
		c-1.0274-0.24428-2.0762-1.19223-2.80089-2.53464l-2.46281-4.54762c-1.37132,0.20613-2.82892,0.13589-4.33754-0.19316v4.21202
		c0,1.07149-0.37968,1.90494-1.03978,2.28531c-0.59978,0.34769-1.35141,0.29321-2.1185-0.15184l-4.16578-2.40378
		c-1.56705-0.90646-2.84358-3.25496-2.84358-5.23587v-4.46958c-1.59935-1.46235-3.13609-3.15412-4.57676-5.03538l-2.32077,1.60667
		c-0.40742,0.2836-0.91111,0.36472-1.45275,0.23387c-1.0277-0.24536-2.07531-1.19362-2.80228-2.53463l-2.94492-5.44081
		c-1.14023-2.10731-1.09902-4.40717,0.09717-5.23329l2.36871-1.64145c-0.83533-2.32216-1.47632-4.66164-1.90543-6.95963
		l-3.5022-2.02192c-1.56795-0.90694-2.84576-3.25486-2.84576-5.23586v-5.28976c0-1.07148,0.37879-1.90395,1.03968-2.2861
		c0.5975-0.346,1.35141-0.2935,2.11889,0.15275l3.26546,1.88601c0.42881-1.69176,1.0488-3.20206,1.84402-4.49989l-2.48055-4.5822
		c-1.14023-2.10641-1.09783-4.40499,0.09717-5.23359l2.946-2.03935c0.40543-0.28132,0.90695-0.36502,1.45086-0.23328
		c1.02849,0.24566,2.0761,1.19391,2.80198,2.53403l2.4639,4.54991c1.37023-0.20109,2.82892-0.13729,4.33754,0.19315v-4.21262
		c0-1.07089,0.37849-1.90405,1.03978-2.28501c0.59869-0.34739,1.34923-0.29152,2.11741,0.15304l4.16468,2.40467
		c1.56923,0.90437,2.84576,3.25199,2.84576,5.23438v4.47066c1.60044,1.46206,3.13718,3.15382,4.57676,5.03449l2.31958-1.60748
		c0.4089-0.2822,0.9123-0.36244,1.45284-0.23476c1.02879,0.24684,2.0764,1.1945,2.80228,2.53671l2.94601,5.44022
		c1.14023,2.107,1.09783,4.40608-0.09718,5.23299l-2.36871,1.64036c0.83533,2.3277,1.4786,4.66749,1.90424,6.95963l3.5034,2.0236
		c1.56795,0.90576,2.84576,3.25407,2.84576,5.23528v5.29025c0,1.07128-0.38097,1.90404-1.04087,2.28342
		c-0.5975,0.34867-1.35023,0.29231-2.11989-0.15136l-3.26447-1.88413c-0.42762,1.6887-1.04761,3.19958-1.84253,4.49821
		l2.48025,4.5819c1.14023,2.1082,1.09783,4.40727-0.09718,5.2336l-2.946,2.04024
		C62.8963,137.45065,62.56892,137.54951,62.21598,137.54951L62.21598,137.54951z M56.63085,129.74612
		c0.11391,0,0.22089,0.06351,0.27458,0.16464l2.56781,4.74464c0.63316,1.16896,1.55101,2.02173,2.39645,2.2227
		c0.3676,0.08826,0.68794,0.04161,0.94935-0.13699l2.9463-2.04015c0.90447-0.62622,0.85871-2.65062-0.09826-4.41994l-2.5689-4.74159
		c-0.05339-0.10024-0.04913-0.22208,0.01238-0.31727c0.8701-1.37678,1.53001-3.01713,1.95902-4.87333
		c0.02219-0.09718,0.08925-0.17751,0.18088-0.21743c0.09152-0.03902,0.19761-0.03338,0.2824,0.01714l3.6286,2.09412
		c0.56521,0.32658,1.09456,0.38245,1.48989,0.15364c0.4613-0.26676,0.72588-0.90279,0.72588-1.74179v-5.29025
		c0-1.75209-1.15687-3.89991-2.53077-4.69027l-3.6272-2.09721c-0.08064-0.04606-0.1365-0.12471-0.15195-0.21455
		c-0.43465-2.3793-1.10347-4.81013-1.98685-7.22717c-0.04913-0.13472-0.00109-0.28439,0.11599-0.36552l2.5689-1.77914
		c0.90447-0.62672,0.85871-2.64973-0.09826-4.41787l-2.94403-5.4422c-0.63316-1.16895-1.55249-2.02172-2.39684-2.2227
		c-0.37057-0.08905-0.69012-0.04379-0.94905,0.13759l-2.56781,1.77934c-0.13838,0.0941-0.32708,0.06429-0.4298-0.06934
		c-1.49891-1.98438-3.10697-3.76113-4.78329-5.28242l-0.10163-0.23228v-4.60796c0-1.7513-1.16043-3.89981-2.53067-4.69057
		l-4.16578-2.40576c-0.56521-0.32708-1.09674-0.38077-1.49098-0.15304c-0.46021,0.26705-0.72499,0.90131-0.72499,1.74229v4.60915
		c0,0.09599-0.04358,0.18642-0.12164,0.24565c-0.07489,0.06152-0.17097,0.084-0.26695,0.05815
		c-1.64828-0.40881-3.22881-0.48914-4.69503-0.24011c-0.1362,0.02447-0.26487-0.0424-0.32946-0.15858l-2.56662-4.74307
		c-0.63544-1.17172-1.5522-2.0236-2.39536-2.22469c-0.37096-0.08617-0.69022-0.0424-0.95054,0.13729l-2.94511,2.04054
		c-0.90447,0.62643-0.86089,2.65002,0.09717,4.41817l2.5689,4.74297c0.05468,0.10054,0.04794,0.22099-0.01129,0.31708
		c-0.87129,1.37608-1.53001,3.01456-1.96011,4.87273c-0.02338,0.09718-0.08935,0.17751-0.18088,0.21822
		c-0.09044,0.03873-0.19543,0.03259-0.28241-0.01714l-3.62751-2.09413c-0.56749-0.32658-1.09456-0.38216-1.48989-0.15353
		c-0.46249,0.26587-0.72806,0.9018-0.72806,1.74249v5.28976c0,1.7513,1.15905,3.89872,2.53077,4.68997l3.6283,2.09522
		c0.08053,0.04774,0.13531,0.12579,0.15076,0.21623c0.43693,2.38506,1.10685,4.81578,1.98794,7.22857
		c0.04913,0.13392,0.00119,0.28528-0.11481,0.36561l-2.5689,1.77824c-0.90556,0.62702-0.86089,2.65171,0.09717,4.41985
		l2.94511,5.43992c0.63316,1.16975,1.55249,2.02172,2.39565,2.22271c0.37067,0.09351,0.69022,0.04467,0.94935-0.13868
		l2.56643-1.77765c0.13838-0.09519,0.32827-0.06766,0.43208,0.06875c1.5,1.98714,3.10806,3.7646,4.78239,5.28193l0.10252,0.23219
		v4.60915c0,1.75179,1.15826,3.89951,2.52958,4.69196l4.16468,2.40497c0.56858,0.32509,1.09446,0.37819,1.49098,0.15184
		c0.4613-0.26675,0.72717-0.9019,0.72717-1.74258v-4.60716c0-0.09686,0.04358-0.18721,0.11936-0.24792
		c0.07726-0.05923,0.17553-0.07974,0.26814-0.05696c1.64739,0.40602,3.22762,0.48636,4.69503,0.23952L56.63085,129.74612
		L56.63085,129.74612z M51.04234,117.58698c0.95916,0,1.85709-0.2308,2.65567-0.69101
		c2.11404-1.22175,3.32697-3.96638,3.32697-7.53633c0-6.87474-4.41024-15.01085-9.82916-18.14021
		c-2.51502-1.45226-4.93742-1.65215-6.82036-0.56353c-2.11404,1.22057-3.32479,3.96638-3.32479,7.53316
		c0,6.87454,4.41034,15.01402,9.83035,18.14199C48.32624,117.16491,49.74224,117.58698,51.04234,117.58698L51.04234,117.58698z
		 M43.03569,90.59351c-0.85307,0-1.64511,0.20108-2.34741,0.60513c-1.91217,1.10546-3.01,3.65337-3.01,6.99044
		c0,6.67435,4.26958,14.56896,9.51754,17.59837c2.30977,1.33398,4.50742,1.53585,6.18937,0.56352
		c1.91326-1.10466,3.01118-3.65247,3.01118-6.99133c0-6.67455-4.26859-14.56807-9.51536-17.59609
		C45.53407,90.98576,44.22624,90.59351,43.03569,90.59351z"/>
	<path class="st22" d="M70.7294,123.04573l-0.31143-0.54362l12.76289-7.28552l0.31738,0.545L70.7294,123.04573L70.7294,123.04573z
		 M65.53285,108.57909l-0.31252-0.54481l12.54308-7.18052l0.30687,0.54272L65.53285,108.57909L65.53285,108.57909z
		 M66.09361,99.52315l-0.30044-0.55263l9.96873-5.40149l0.29707,0.55203L66.09361,99.52315L66.09361,99.52315z M60.07074,86.82336
		l-0.31391-0.54352l10.5382-6.05803l0.31282,0.54501L60.07074,86.82336L60.07074,86.82336z M51.96465,83.51322l12.53635-7.18032
		l-0.31172-0.5461l-12.53734,7.18251L51.96465,83.51322L51.96465,83.51322z M43.39764,71.33744l-0.31401-0.54501l12.43135-7.12297
		l0.31282,0.54609L43.39764,71.33744z"/>
</g>
</svg>
