<?xml version="1.0" encoding="utf-8"?>
<!-- Generator: Adobe Illustrator 25.0.0, SVG Export Plug-In . SVG Version: 6.00 Build 0)  -->
<svg version="1.1" id="Layer_1" xmlns="http://www.w3.org/2000/svg" xmlns:xlink="http://www.w3.org/1999/xlink" x="0px" y="0px"
	 viewBox="0 0 182 240" style="enable-background:new 0 0 182 240;" xml:space="preserve">
<style type="text/css">
	.st0{fill-rule:evenodd;clip-rule:evenodd;fill:#B5B4AF;}
	.st1{fill-rule:evenodd;clip-rule:evenodd;fill:#FFFFFF;}
	.st2{fill-rule:evenodd;clip-rule:evenodd;fill:#FAFBFA;}
	.st3{fill-rule:evenodd;clip-rule:evenodd;fill:#DEDFDC;}
	.st4{fill-rule:evenodd;clip-rule:evenodd;fill:#F0F1EE;}
	.st5{fill-rule:evenodd;clip-rule:evenodd;fill:#C91244;}
	.st6{fill-rule:evenodd;clip-rule:evenodd;fill:#E63E65;}
	.st7{fill-rule:evenodd;clip-rule:evenodd;fill:#D56A00;}
	.st8{fill-rule:evenodd;clip-rule:evenodd;fill:#F6AC00;}
	.st9{fill-rule:evenodd;clip-rule:evenodd;fill:#F39500;}
	.st10{fill-rule:evenodd;clip-rule:evenodd;fill:#6E2CC4;}
	.st11{fill-rule:evenodd;clip-rule:evenodd;fill:#A06CE3;}
	.st12{fill-rule:evenodd;clip-rule:evenodd;fill:#E2E2DF;}
	.st13{fill-rule:evenodd;clip-rule:evenodd;fill:#CFCEC9;}
	.st14{fill-rule:evenodd;clip-rule:evenodd;fill:#EBEBEA;}
	.st15{fill-rule:evenodd;clip-rule:evenodd;fill:#D3BDED;}
	.st16{fill-rule:evenodd;clip-rule:evenodd;fill:#D83C5C;}
	.st17{fill-rule:evenodd;clip-rule:evenodd;fill:#F5CECC;}
	.st18{fill-rule:evenodd;clip-rule:evenodd;fill:#CBC9C4;}
</style>
<path class="st0" d="M163.24831,139.79745v-1.3578c-0.01021-0.87419-0.53011-1.6282-1.2708-1.9874l-0.96971-0.5627l6.51001-3.6731
	c2.3598-1.32921,4.53029-3.53481,6.10979-6.01091c1.55931-2.43999,2.5401-5.0918,2.55031-7.35809l0.1602-44.0175
	c0-0.8672-0.1398-1.5832-0.41051-2.1433c-0.1803-0.3767-0.42039-0.6766-0.7103-0.8932l0.33051-0.7396l0.8501-1.186l0.1499-0.2458
	l0,0l-0.25031-0.1454l-72.6-41.9159l-0.1299-0.0757l-0.4192-0.2435v0.0383c-0.6608-0.2863-1.41051-0.434-2.22121-0.434
	c-0.26929,0-0.5355,0.0148-0.8119,0.0451c-1.2413,0.142-2.6132,0.6021-4.0476,1.4128l-7.7298,4.3532l-0.1049,0.1048l-0.1544,0.2614
	l-0.0372,0.1423v27.3747l-2.0194,7.3401v-34.7398h0.0046l0,0c-0.0023-0.3843,0.098-0.7733,0.3033-1.1296l0.1026-0.1817
	c0.1984-0.3741,0.5006-0.699,0.8952-0.9209l7.7289-4.3532c1.6673-0.9417,3.2944-1.4817,4.7985-1.6484
	c0.3297-0.0379,0.6525-0.0569,0.968-0.0598h0.015h0.0701c1.2591,0.0046,2.4295,0.2863,3.45,0.8286l0.15,0.0825l0.1295,0.072
	l-0.0102,0.0045l72.4706,41.836c0.10941,0.0485,0.2097,0.106,0.3101,0.1746l0.04959,0.0352
	c1.09021,0.6718,1.9494,1.6426,2.5401,2.8862c0.5298,1.11169,0.8195,2.442,0.82971,3.9608v0.1205l-0.1602,44.0167
	c-0.0201,3.1388-1.26021,6.6421-3.2493,9.75819c-1.96051,3.0737-4.6902,5.8329-7.6904,7.5249L163.24831,139.79745
	L163.24831,139.79745z M158.7383,139.77756v-0.0014l-70.7635-40.8523h-0.0011L158.7383,139.77756L158.7383,139.77756z
	 M90.31651,95.07696l0.2177-0.1219v-10.3073c-0.6168,0.5762-1.2628,1.10941-1.9301,1.5854v7.9293
	c0.1701,0.0496,0.337,0.1208,0.4972,0.2143L90.31651,95.07696L90.31651,95.07696z M86.022,94.85155l0.8062-0.4657
	c0.34721-0.2041,0.7452-0.3135,1.1489-0.3135c0.0215,0,0.0428,0.0011,0.0643,0.0011v-7.456
	c-0.2885,0.1883-0.5819,0.3677-0.8773,0.5344l-1.1421,0.644V94.85155z"/>
<path class="st1" d="M96.9652,71.82295l0.0295-6.3275l63.233,39.3094l15.9301-35.0858l-72.6497-41.942l-0.131-0.0731
	c-1.779-0.9879-4.3588-0.7926-7.2178,0.8161l-7.729,4.3554l-0.15331,0.2639v26.5473l-8.74229,31.7645l7.62939-4.2993
	C92.53091,84.12926,96.9394,77.23145,96.9652,71.82295z"/>
<path class="st0" d="M90.88371,95.40495l-0.3495-0.2016v-0.2483l5.281-2.9753c2.6407-1.4881,5.0521-3.93359,6.802-6.6736
	c1.7509-2.7362,2.8403-5.7602,2.8505-8.4087l0.0303-6.114l0.5593,0.3461l-0.0193,5.7691c-0.0201,2.7555-1.1409,5.8867-2.9506,8.7086
	c-1.7994,2.8154-4.2752,5.3297-6.9981,6.8641L90.88371,95.40495z"/>
<path class="st0" d="M90.5342,95.20335l-0.2177-0.1264l0.2177-0.1219v0.2492V95.20335L90.5342,95.20335z M88.6041,94.16245
	c-0.1851-0.0541-0.3745-0.0833-0.5627-0.089v-7.456c0.1894-0.1227,0.3765-0.2514,0.5627-0.3843V94.16245L88.6041,94.16245z
	 M175.54781,71.05386l0.61-1.3348l-72.6497-41.942l-0.131-0.0731c-0.70921-0.3957-1.5593-0.6032-2.4996-0.6032
	c-1.398,0-3.0081,0.4566-4.7182,1.4193l-7.729,4.3554l-0.15331,0.2639v26.5473l-0.2356,0.8535v-27.3747l0.0372-0.1423l0.1544-0.2614
	l0.1049-0.1048l7.7298-4.3532c1.4344-0.8107,2.8063-1.2708,4.0476-1.4128c0.2634-0.0289,0.5176-0.0437,0.7739-0.0451h0.03799h0.0379
	c0.7963,0.0046,1.5327,0.1522,2.1833,0.434v-0.0383l0.4192,0.2435l0.1299,0.0757l72.6,41.9159l0.25031,0.1454l-0.1499,0.2458
	L175.54781,71.05386L175.54781,71.05386z M176.54781,69.62206"/>
<path class="st0" d="M160.31779,92.41376l-0.2401-0.1499l-54.02039-21.1918v0.0575l-0.5593-0.3461l0.0102-0.7206l0.4193,0.2685
	l54.20999,21.3046l15.63-21.8154l-72.3597-41.7751l0,0l-0.11971-0.0711c-0.6797-0.3742-1.48019-0.5669-2.3712-0.5669
	c-0.2389,0-0.4881,0.0144-0.7406,0.0416c-1.1702,0.1319-2.4679,0.5715-3.83559,1.3439l-7.6601,4.3172l-0.0765,0.1307v52.9923
	c-0.1862,0.1329-0.3733,0.2616-0.5627,0.3843v-26.0773l0.2356-0.8535v-26.5473l0.15331-0.2639l7.729-4.3554
	c1.7101-0.9627,3.3202-1.4193,4.7182-1.4193c0.9403,0,1.7904,0.2075,2.4996,0.6032l0.131,0.0731l72.6497,41.942l-0.61,1.3348
	l-15.08,21.1187L160.31779,92.41376z"/>
<path class="st1" d="M98.50671,236.91046c-0.3484,0-0.69141-0.02531-1.0251-0.07491h2.0858
	c-0.1985,0.0278-0.3969,0.04759-0.593,0.0598C98.8176,236.90555,98.6611,236.91046,98.50671,236.91046L98.50671,236.91046z
	 M17.98711,186.65526c-0.0507-0.50171-0.0765-1.02391-0.0765-1.5639v-49.61819h0.0057c0-0.18961,0.0235-0.3775,0.0708-0.5609
	V186.65526z"/>
<path class="st0" d="M99.56741,236.83556h-2.0858c-0.8861-0.1321-1.7149-0.4359-2.4669-0.89709v-0.0032l-72.8479-41.966
	c-0.1287-0.0598-0.2526-0.1338-0.371-0.2126c-1.2549-0.78639-2.2607-1.9953-2.9336-3.5575
	c-0.4422-1.0287-0.7433-2.2178-0.8751-3.5439v-51.743c0.1443-0.5639,0.5086-1.07301,1.0531-1.38791l66.9818-38.6728v1.6912
	c0.017,0.8759,0.529,1.6279,1.2697,1.9876l0.682,0.39349l-65.5489,37.8465v48.321c0,1.34,0.2086,2.46111,0.5808,3.3282
	c0.3112,0.72479,0.7225,1.2458,1.203,1.5318l0.1534,0.0961l72.74429,41.91c0.1228,0.0538,0.2413,0.11819,0.3507,0.19389
	c0.3075,0.16411,0.6639,0.254,1.0565,0.254c0.0583,0,0.117-0.00229,0.178-0.0063c0.59859-0.03769,1.275-0.2596,2.0058-0.6877
	l50.67069-29.4222c1.95961-1.1367,3.78931-3.3049,5.1389-5.88409c1.37111-2.5988,2.2314-5.5636,2.2314-8.28061v-48.3483
	l1.12961,0.6534c0.3306,0.19591,0.7002,0.29401,1.05989,0.30281c0.0204,0.00079,0.03941,0.00079,0.0598,0.00079l0,0
	c0.0202,0,0.03941,0,0.05981-0.00079c0.37079-0.0088,0.7305-0.1078,1.0508-0.28581v0.00171l1.1489-0.65021v48.5441
	c-0.0416,3.39081-1.09641,7.01151-2.7487,10.1633c-1.7309,3.28511-4.17059,6.10701-6.8709,7.68111l-50.6696,29.42081
	C101.80791,236.27745,100.6678,236.68056,99.56741,236.83556L99.56741,236.83556z M160.9978,135.88956h0.00999l-70.12409-40.4846
	h-0.0011L160.9978,135.88956z"/>
<path class="st0" d="M160.98759,140.73315L160.98759,140.73315c-0.02039,0-0.0394,0-0.0598-0.00079h0.11961
	C161.02701,140.73315,161.0078,140.73315,160.98759,140.73315z"/>
<path class="st0" d="M161.04741,140.73236h-0.11961c-0.3597-0.0088-0.72929-0.1069-1.05989-0.30281l-1.12961-0.65199v-0.0014
	l-70.7635-40.8523l-0.6831-0.39349c-0.7407-0.3597-1.2527-1.1117-1.2697-1.9876v-1.6912l0.8062-0.4657
	c0.3419-0.201,0.7327-0.3101,1.12991-0.3135h0.019h0.0039h0.004h0.0043l0.0521,0.0011v2.9347h-0.0011l0.42039-0.2378l2.42191-1.3654
	l70.1152,40.4846h0.00999l0.96971,0.5627c0.7271,0.35269,1.24159,1.08569,1.26959,1.9398v1.40599l-1.1489,0.65021v-0.00171
	C161.77791,140.62456,161.4182,140.72356,161.04741,140.73236L161.04741,140.73236z M88.6041,96.04325l1.7124-0.96629
	l-1.2152-0.7002c-0.1602-0.0935-0.3271-0.1647-0.4972-0.2143V96.04325z"/>
<polygon class="st0" points="90.88261,95.40495 90.5342,95.20425 90.88371,95.40495 "/>
<path class="st0" d="M88.04031,97.00816L88.04031,97.00816l0.0011-2.9347c0.1882,0.0057,0.3776,0.0349,0.5627,0.089v1.8808
	l1.7124-0.96629l0.2177,0.1264v0.0009l0.3484,0.2007l-2.42191,1.3654l-0.4193,0.2378H88.04031z"/>
<path class="st2" d="M20.46431,135.52446v49.61629c0,3.37491,1.1398,5.7756,2.9325,6.8215l0.0079,0.0054l0.0023,0.0009
	l69.1205,39.9308c2.1986,1.271,3.6655,1.9071,6.0738,2.16591l26.3962-21.6748c4.6701-2.668,8.4898-9.91901,8.4898-16.1138v-41.5732
	l-39.8988,22.12689L20.46431,135.52446z"/>
<path class="st0" d="M20.55791,135.68546v49.3441c0,1.6169,0.2636,2.99879,0.7418,4.1086
	c0.4836,1.1293,1.1883,1.96921,2.0497,2.4684v0.0006l0.008,0.00621l0.0022,0.00079l0.0091,0.0054l0.0042,0.0009l0.0023,0.0031
	l73.2484,42.3136l0.6642-3.23889l0.026-0.1236l0.1103-0.0632l27.4337-18.36711c2.2898-1.30469,4.37019-3.7448,5.8898-6.6223
	c1.52-2.8819,2.46021-6.19649,2.46021-9.2477v-41.0856l-39.48061,22.2207l-0.1409,0.0811l-0.1398-0.0811L20.55791,135.68546
	L20.55791,135.68546z M20.10351,185.47745l-0.1094-0.44789v-50.3172l0.4229,0.24409l73.17149,41.88701l39.7693-22.38321
	l0.41949-0.245v42.0614c0,3.14189-0.9697,6.55049-2.5291,9.5085c-1.5704,2.967-3.7307,5.4882-6.11089,6.8494l-27.3232,18.30211
	l-0.718,3.4977l-0.07909,0.381l-0.33701-0.1967l-72.93829-42.1331l-0.663-0.38319l-0.0156-0.0097l-0.0034-0.0014l-0.3226-0.4337
	l-0.0484-0.01329l0.3733,0.44699c-0.1545-0.08499-0.3045-0.18199-0.4499-0.28569c-0.7577-0.5601-1.3824-1.3992-1.83-2.44521
	l0.3968,0.4743l-0.3877-0.7365l-0.2064-0.82491l0.1961,1.0871c-0.5051-1.1769-0.7868-2.6368-0.7868-4.3308l0.1318,0.7249
	L20.10351,185.47745z"/>
<path class="st1" d="M93.75101,177.12856v49.5267c0,6.177,3.8333,9.0708,8.4965,6.4111l50.2501-28.8309
	c4.6599-2.658,8.5002-9.9193,8.5002-16.11411v-49.63921l-67.0935,38.73631L93.75101,177.12856z"/>
<path class="st0" d="M93.95621,177.51126v49.18709c0,1.9559,0.39,3.5688,1.0732,4.76421c0.4362,0.7636,0.991,1.3546,1.6339,1.75259
	c0.64259,0.39691,1.37759,0.60211,2.1815,0.60211c0.9763,0,2.0532-0.30391,3.1828-0.9507l50.3302-28.87431
	c2.2899-1.30199,4.37019-3.74399,5.89011-6.62569c1.5197-2.87941,2.4599-6.194,2.4599-9.24521v-49.1488L93.9672,177.50336
	L93.95621,177.51126L93.95621,177.51126z M93.3912,226.69835v-50.01509l0.4238,0.24519l0.0114,0.00481l67.0215-38.6949l0.4192-0.244
	v50.127c0,3.1411-0.96941,6.5489-2.5197,9.50681c-1.5695,2.9693-3.7298,5.4922-6.1098,6.8519l-50.3303,28.8743
	c-1.22,0.6982-2.3935,1.02811-3.4636,1.02811c-0.9065,0-1.7419-0.23781-2.4738-0.68881
	c-0.7271-0.45009-1.3473-1.10719-1.8309-1.95329C93.81161,230.46306,93.3912,228.75516,93.3912,226.69835z"/>
<polygon class="st3" points="87.8441,96.24845 160.9978,138.48215 93.762,177.12236 20.76651,134.97655 "/>
<polygon class="st1" points="48.99471,123.36185 49.0015,119.02656 20.7021,135.28755 93.7272,177.40945 160.8578,138.72626 
	144.4781,129.26956 140.4472,131.03755 152.21811,138.48045 93.67191,172.28445 39.0607,141.23436 28.18501,135.70935 "/>
<path class="st0" d="M88.03461,96.03416l73.09279,42.2042c0.13971,0.078,0.18031,0.2509,0.1105,0.3853l-0.1105,0.10089v0.00081
	l-67.19619,38.79129c-0.0969,0.0558-0.21201,0.04651-0.2953-0.0125l-73.33739-42.13159
	c-0.1341-0.0771-0.1803-0.25031-0.1026-0.38321l0.1026-0.10179l67.4544-38.8534H88.03461L88.03461,96.03416z M160.4272,138.48045
	l-72.5323-41.8779l-66.894,38.52679l72.79169,41.8201L160.4272,138.48045z"/>
<path class="st1" d="M178.41701,118.85306l0.17039-44.01521c0.0204-5.4085-4.36-7.3502-9.70979-4.3353l-7.72981,4.3543
	l-0.14999,0.2639v63.3597l7.6295-4.299C173.9873,131.16025,178.39799,124.26245,178.41701,118.85306z"/>
<path class="st0" d="M178.1375,118.85195l0.1602-44.0152c0.01021-1.3261-0.25031-2.4344-0.73959-3.2959
	c-0.40021-0.7033-0.94051-1.2469-1.61011-1.6109c-0.66069-0.3711-1.44989-0.5638-2.3306-0.5672
	c-1.34959-0.0068-2.93021,0.4396-4.61031,1.3856l-7.92929,4.4671l-0.08,0.1329v62.80099l7.4897-4.2108
	c2.6405-1.48911,5.05-3.9371,6.7998-6.6759C177.03709,124.52545,178.1273,121.50035,178.1375,118.85195L178.1375,118.85195z
	 M178.868,74.83895l-0.1599,44.0153c-0.0204,2.7589-1.1412,5.8892-2.95059,8.7091c-1.79971,2.81509-4.26981,5.33-6.99951,6.8661
	l-7.90019,4.4493l-0.42039,0.2355V75.27065l0.04059-0.1397l0.1499-0.26389l0.10941-0.1026l8.0005-4.5065
	c1.76009-0.9933,3.42969-1.4613,4.88979-1.4556c0.96971,0.0045,1.8502,0.2211,2.59991,0.6361
	c0.74979,0.4169,1.37,1.0315,1.81989,1.8286C178.57719,72.21066,178.868,73.40916,178.868,74.83895z"/>
<polygon class="st1" points="88.366,96.55065 88.366,33.18895 160.9978,75.12186 160.9978,138.48215 "/>
<path class="st4" d="M156.96811,136.54436l-4.2202-2.427L156.96811,136.54436z M156.96811,136.54436v-51.2132l-56.67901-32.8331
	l0.2389,15.0789l0.03941,35.7925l51.0205,30.077L156.96811,136.54436z"/>
<path class="st3" d="M95.2774,59.30685l0.0406,45.8362l53.2797,31.41161v-39.428c0-3.7443-2.2899-8.1448-5.0905-9.7707
	L95.2774,59.30685z"/>
<path class="st0" d="M157.34821,136.37946l-0.56041-0.3252V80.76145L91.4577,42.90326v59.1033l-0.5615-0.3249v-59.2642
	c0-0.1568,0.1261-0.2832,0.2818-0.2832l0.1567,0.0496l65.8735,38.1694c0.08929,0.053,0.14,0.1465,0.14,0.2446V136.37946z"/>
<path class="st0" d="M87.93311,96.46365v-63.3614c0-0.1568,0.1262-0.2821,0.2818-0.2821l0.1568,0.0485l72.4861,42.00859
	c0.09039,0.053,0.14,0.1454,0.14,0.24351v63.36139c0,0.15511-0.1196,0.28351-0.2809,0.28351l-0.1488-0.0513l-72.49409-42.0072
	C87.9839,96.65526,87.93311,96.55946,87.93311,96.46365L87.93311,96.46365z M88.4969,33.59035v62.7134l71.94051,41.6906v-62.7112
	L88.4969,33.59035z"/>
<path class="st4" d="M60.0723,176.64046l-9.3376-5.4258l-3.0703,2.1756l2.1456,4.6653l3.2819,10.08l2.6507,3.2921
	c3.7874-2.2612,4.2429-2.7672,4.3297-6.02161V176.64046z"/>
<path class="st5" d="M76.372,40.47456l11.2805,6.5464c4.5899,2.6617,5.3813,4.6576,5.3813,8.5011v16.6458
	c0,2.1221-0.7217,3.6383-1.876,4.2631l-0.0204,0.0102l-0.1105,0.055l-5.95869,2.9202l-3.8583-7.6442l2.0543-17.6471l-10.3895-6.616
	l-5.404,11.3221l-0.9629-15.8828l6.4244-2.8446c0.0901-0.045,0.1825-0.0856,0.2772-0.1218l0.0091-0.0034v0.0011
	C74.1069,39.65506,75.1974,39.79145,76.372,40.47456z"/>
<path class="st6" d="M69.94331,43.32166l11.5767,6.7184c4.5899,2.6632,5.3816,4.6576,5.3816,8.5011v16.6451
	c0,3.8435-2.3644,5.6744-5.3816,3.867c-0.8614-0.5162-12.1821-7.3996-12.3817-7.5234c-3.6958-2.2879-4.5754-3.8537-4.5754-7.6961
	v-16.6462C64.5629,43.34406,66.9837,41.60336,69.94331,43.32166z"/>
<path class="st7" d="M101.16721,38.55465l11.28049,6.5449c4.5899,2.6643,5.3802,4.6599,5.3802,8.5023v29.4259
	c0,2.1206-0.7203,3.6394-1.8805,4.263l-0.0102,0.0099l-0.1194,0.0564l-5.9598,2.918l-3.8503-7.6419l2.0497-30.4282l-10.3875-6.6161
	l-5.40511,11.3233l-0.96159-15.884l6.4231-2.8434c0.0901-0.0462,0.1828-0.0856,0.2775-0.1216l0.01019-0.0045
	C98.90121,37.73486,99.9914,37.87125,101.16721,38.55465z"/>
<path class="st8" d="M94.73631,41.40265l11.5815,6.7175c4.5899,2.6629,5.3802,4.6588,5.3802,8.5v29.427
	c0,3.8424-2.3701,5.67329-5.3802,3.8648c-0.8603-0.5151-12.1859-7.3985-12.3866-7.5212c-3.6946-2.2878-4.5739-3.8537-4.5739-7.6986
	v-29.4245C89.35731,41.42505,91.7778,39.68425,94.73631,41.40265z"/>
<path class="st9" d="M111.69801,78.08605v7.96111c0,3.8424-2.3701,5.67329-5.3802,3.8648
	c-0.8603-0.5151-12.1859-7.3985-12.3866-7.5212c-3.6946-2.2878-4.5739-3.8537-4.5739-7.6986v-9.5046L111.69801,78.08605z"/>
<path class="st0" d="M59.6493,176.88315l-8.8923-5.16789l-2.5639,1.815l1.9823,4.31009l3.255,10.04001l2.4103,2.9948
	c1.6486-0.98979,2.5945-1.6236,3.1153-2.33679c0.5312-0.7249,0.6528-1.6008,0.6922-3.1329v-8.52231H59.6493L59.6493,176.88315z
	 M50.9464,170.84955l9.3118,5.41161c0.1409,0.0692,0.2367,0.2123,0.2367,0.3793v8.765h-0.0023v0.0108
	c-0.045,1.71809-0.1927,2.717-0.8555,3.6221c-0.6406,0.87279-1.7285,1.5871-3.6598,2.74109
	c-0.1794,0.11911-0.4252,0.08281-0.5615-0.0882l-2.6496-3.2907l-0.0181-0.02101l-3.282-10.07999h0.0023l-0.0417-0.07001
	l-2.1378-4.646c-0.0959-0.18541-0.0417-0.41611,0.132-0.53801l3.0688-2.17609
	C50.6207,170.77846,50.79641,170.76535,50.9464,170.84955z"/>
<path class="st2" d="M57.00211,178.54846l-9.3377-5.1582v9.90109c0,7.89,9.3377,11.547,9.3377,5.355V178.54846z"/>
<path class="st0" d="M56.5771,178.79565l-8.49-4.68941v9.1851c0,3.528,1.9474,6.164,4.0195,7.3602
	c0.6021,0.34781,1.2144,0.57491,1.7847,0.6568c0.5448,0.08081,1.0497,0.0312,1.4635-0.15619
	c0.7331-0.3336,1.2223-1.13951,1.2223-2.50751V178.79565L56.5771,178.79565z M47.86631,173.01945l9.3152,5.1432
	c0.1431,0.06779,0.2446,0.2157,0.2446,0.3835v10.0985c0,1.7458-0.6911,2.80881-1.724,3.2765
	c-0.5658,0.2583-1.23,0.32739-1.9301,0.2234c-0.6755-0.10031-1.3901-0.35941-2.0869-0.76311
	c-2.289-1.32401-4.4436-4.2242-4.4436-8.0932v-9.8997h0.0023l0.053-0.2041C47.4062,172.98315,47.6622,172.90836,47.86631,173.01945z
	"/>
<path class="st0" d="M134.5676,127.64136l18.3506,10.597c0.12961,0.078,0.1792,0.2509,0.0993,0.3853l-0.0993,0.10089v0.00081
	l-59.10659,34.12579c-0.09811,0.05721-0.21291,0.0484-0.29761-0.00969l-65.32899-37.12991
	c-0.1329-0.07849-0.178-0.25-0.1026-0.38409l0.1026-0.10291l18.0644-10.35919v0.6432l-17.3608,9.95901l64.7833,36.81689
	l58.5462-33.804l-17.65051-10.186V127.64136z"/>
<path class="st10" d="M160.1678,125.84365l6.1799-3.5292l0.2401-0.1343l0.0697-0.04169v-0.00571
	c1.0103-0.6797,1.6203-1.9199,1.63049-3.6371l0.10941-60.6027c0-4.0048-3.2394-9.1347-7.22949-11.4223l-32.77101-18.8084
	c-3.06879-1.7612-4.61909-1.1038-7.01949,0.284l-4.3398,2.4591l24.8303,35.5388L160.1678,125.84365z"/>
<path class="st11" d="M114.7375,94.93375l0.1095-60.616c0-4.0048,3.3103-5.4323,7.3003-3.1448l32.8207,18.8345
	c3.99001,2.2876,7.22949,7.42,7.21919,11.4248l-0.10939,60.6149c0,4.0051-3.3103,5.432-7.30031,3.1451l-32.8195-18.8337
	C117.9679,104.07066,114.7273,98.94086,114.7375,94.93375z"/>
<path class="st10" d="M114.7375,94.93375l0.0394-22.4254l22.20129,12.9209c1.78011,1.036,3.35991,2.8726,4.45921,4.9991
	c1.07999,2.0744,1.74979,4.48161,1.74979,6.7187v21.39709l-21.22919-12.1856
	C117.9679,104.07066,114.7273,98.94086,114.7375,94.93375z"/>
<path class="st1" d="M76.68211,55.51405c0.459,0.4161,0.8918,0.8963,1.2909,1.4239l0.6866-0.4757
	c0.2798-0.195,0.73869,0.0709,1.0182,0.5873l0.7869,1.4568c0.2798,0.5153,0.2798,1.097,0,1.2897l-0.68771,0.4771
	c0.23441,0.6426,0.41611,1.2977,0.53661,1.9483l0.97089,0.5615c0.39571,0.2288,0.71941,0.824,0.71941,1.328v1.4151
	c0,0.5017-0.3237,0.7259-0.71941,0.4983l-0.97089-0.5604c-0.1205,0.51421-0.3022,0.9584-0.53661,1.33031l0.68771,1.26849
	c0.2798,0.5176,0.2798,1.09821,0,1.2909l-0.7869,0.5457c-0.2795,0.195-0.7384-0.0686-1.0182-0.5874l-0.6866-1.2673
	c-0.3991,0.0666-0.8319,0.0473-1.2909-0.0652v1.2322c0,0.5029-0.3237,0.7262-0.7194,0.4995l-1.1137-0.6461
	c-0.3972-0.2276-0.7206-0.8243-0.7206-1.3271v-1.2323c-0.4589-0.4161-0.8929-0.8997-1.2897-1.4261l-0.688,0.4757
	c-0.2795,0.1939-0.7384-0.0709-1.0157-0.5862l-0.7903-1.4556c-0.2786-0.5176-0.2786-1.1004,0-1.292l0.6877-0.476
	c-0.2336-0.6426-0.4161-1.2965-0.53429-1.9494l-0.972-0.5592c-0.39571-0.2288-0.71941-0.8275-0.71941-1.3292v-1.4162
	c0-0.5017,0.3237-0.726,0.71941-0.4983l0.972,0.5626c0.11819-0.5153,0.3007-0.9606,0.53429-1.3325l-0.6877-1.2685
	c-0.2786-0.5165-0.2786-1.0982,0-1.2921l0.7903-0.5445c0.27731-0.195,0.7362,0.0686,1.0157,0.5862l0.688,1.2697
	c0.3968-0.0678,0.8308-0.0474,1.2897,0.0651v-1.2322c0-0.5028,0.3234-0.7273,0.7206-0.5006l1.1137,0.6449
	c0.3957,0.2288,0.7194,0.8255,0.7194,1.3292V55.51405L76.68211,55.51405z M75.4057,57.72165
	c-1.4295-0.8265-2.5886-0.0226-2.5886,1.7927s1.1591,3.9574,2.5886,4.7826c1.4298,0.82661,2.58891,0.0215,2.58891-1.7938
	C77.99461,60.68676,76.8355,58.54686,75.4057,57.72165z"/>
<path class="st1" d="M128.06781,95.73315L57.099,54.43375c-1.4579-0.8489-2.4398-0.8161-3.7466-0.0088l-2.4159,1.4905
	c-2.0047,1.2368-2.8347,1.8252-2.8358,4.7409l-0.0462,67.42101c-0.0011,3.74509,2.2864,8.14619,5.0836,9.77209l53.0995,27.17799
	l26.91039-15.5392v-43.98319C133.14799,101.76045,130.8672,97.36105,128.06781,95.73315z"/>
<path class="st1" d="M125.0472,66.20016l25.10979,14.5579v2.4916l-25.10979-14.5556V66.20016L125.0472,66.20016z M125.0472,91.76435
	l25.10979,14.5568v2.49281l-25.10979-14.5557V91.76435L125.0472,91.76435z M150.157,93.51875l-25.10979-14.7113v2.494
	l25.10979,14.7112V93.51875L150.157,93.51875z M150.157,87.06966l-25.10979-14.7022v2.4917l25.10979,14.7044V87.06966
	L150.157,87.06966z M125.0472,85.30165v2.4931l25.10979,14.5567v-2.4919L125.0472,85.30165L125.0472,85.30165z M150.157,67.95566
	l-11.3196-6.7536v2.4928l11.3196,6.7524V67.95566L150.157,67.95566z M150.157,61.59435v2.49281l-11.3196-6.7827v-2.4951
	L150.157,61.59435L150.157,61.59435z M138.8374,67.69736v2.4928l11.3196,6.5982v-2.4942L138.8374,67.69736z"/>
<path class="st12" d="M138.8969,86.91746c0.98111,0.9776,1.86041,2.18829,2.54051,3.51089
	c0.12039,0.2166,0.2298,0.442,0.3302,0.6676l-16.72041-9.7945v-2.494L138.8969,86.91746L138.8969,86.91746z M143.10811,95.77365
	l-18.06091-10.472v2.4931l18.13999,10.5179v-1.1656C143.18719,96.69495,143.16791,96.23605,143.10811,95.77365L143.10811,95.77365z
	 M143.18719,102.28265v2.4916l-18.13999-10.516v-2.4939L143.18719,102.28265z"/>
<path class="st0" d="M126.9379,97.68146l-70.9685-41.2994c-0.3767-0.2208-0.6302-0.3269-0.7903-0.3269
	c-0.1398,0-0.3461,0.0959-0.6449,0.2807l-2.4174,1.4941c-0.7622,0.4711-1.2943,0.807-1.4995,1.1047
	c-0.186,0.2707-0.2696,0.7702-0.2696,1.7229l-0.045,76.551c-0.0023,1.4958,0.4759,3.1626,1.2458,4.64059
	c0.7353,1.4162,1.7036,2.5923,2.7184,3.1805l26.1303,15.26401l-4.4963,2.5965l-23.8924-13.96179l-6.2022-3.82791l0.044-84.4418
	c0.0034-1.9607,0.3339-3.2167,1.0644-4.2775c0.7103-1.0318,1.5987-1.6089,2.8389-2.3757l2.4174-1.4938
	c1.0091-0.6203,1.9414-0.946,2.9877-0.9516c1.0227-0.0057,1.9888,0.2976,3.0679,0.9232l70.97079,41.3028
	c1.7804,1.036,3.3497,2.8726,4.4603,4.998c1.08,2.0756,1.7498,4.4827,1.7498,6.7221v42.6773l-4.5201,2.60899v-45.28739
	c0-1.50861-0.47-3.174-1.23-4.64201C128.91791,99.44826,127.95831,98.27106,126.9379,97.68146z"/>
<path class="st2" d="M128.06781,95.73315l-70.9799-41.2778c-1.7387-1.0103-2.8581-0.548-4.0218,0.1624l-3.2425,1.921l1.8638,2.5166
	l12.7358,56.0546c0.6043,3.6958,2.6866,7.6002,5.0847,9.7687l43.8599,36.0321l19.78019-11.4225v-43.98319
	C133.14799,101.76045,130.8672,97.35995,128.06781,95.73315z"/>
<path class="st0" d="M127.928,95.97775l-70.98239-41.2789c-0.8092-0.4689-1.4655-0.5998-2.052-0.5276
	c-0.5896,0.072-1.1284,0.3484-1.6798,0.6866l-0.0034,0.0023l-2.9752,1.7623l1.6787,2.2682l0.0518,0.1219l12.7347,56.0543
	c0.2954,1.7986,0.94701,3.64989,1.8187,5.32059c0.8838,1.70251,1.9944,3.2145,3.1785,4.286l43.9293,36.091l-0.51839,0.29401
	l-43.7888-35.9711c-1.23669-1.11691-2.3913-2.6827-3.3012-4.4394c-0.8975-1.7206-1.5696-3.6326-1.874-5.4929l-12.7233-55.988
	l-1.8221-2.4613l-0.1871-0.2514l0.2707-0.1579l3.2403-1.9211c0.6111-0.3733,1.211-0.6834,1.9043-0.7656
	c0.699-0.0833,1.4735,0.0621,2.4015,0.6043l70.9787,41.2767c1.44991,0.8411,2.7601,2.3879,3.7003,4.2021
	c0.94029,1.8108,1.51999,3.8943,1.51999,5.8122v43.8202l-0.56039,0.3243v-44.14449c0-1.8289-0.56039-3.82111-1.46021-5.5517
	C130.50751,98.22705,129.2776,96.76245,127.928,95.97775z"/>
<path class="st1" d="M124.1474,98.10976l-71.00929-41.298c-2.7972-1.6282-5.0836,0.1015-5.0836,3.8469v85.64291l27.5757,15.7289
	l18.0417,10.254l35.56599-20.5359v-43.867C129.2379,104.13615,126.9481,99.73685,124.1474,98.10976z"/>
<polygon class="st4" points="48.0545,118.24766 48.0545,146.30156 74.7824,161.54735 74.7824,118.24766 "/>
<path class="st4" d="M77.397,161.96745v-2.7708l-0.0847-0.0771h-0.0011l-0.0845-0.07739l-0.2526-0.2359h-0.0011l-0.0834-0.07881
	l-0.0847-0.08099l-0.0834-0.0788l-0.0833-0.0811l-0.0836-0.0802l-0.0834-0.0811H76.469l-0.07999-0.0811H76.3879l-0.0836-0.08189
	l-0.0811-0.0811l-0.0845-0.08191l-0.0824-0.0847l-0.0822-0.082l-0.0823-0.0842l-0.08241-0.0827l-0.0811-0.0851h-0.0023
	l-0.0799-0.0842l-0.0814-0.08409l-0.081-0.0856h-0.0012l-0.0802-0.0851l-0.0822-0.08591l-0.0822-0.0873l-0.0791-0.08591h-0.0023
	l-0.0788-0.0873l-0.0822-0.0867l-0.0791-0.08591l-0.0799-0.08929l-0.0802-0.0876l-0.0799-0.089l-0.08-0.09039l-0.0791-0.08681
	l-0.159-0.1808l-0.0788-0.08899l-0.1568-0.1803l-0.0788-0.09271l-0.07681-0.09129l-0.0788-0.0898l-0.07681-0.09221l-0.15559-0.18559
	l-0.07771-0.0936l-0.0768-0.09151l-0.0754-0.09529h-0.0011l-0.0766-0.09271l-0.0757-0.09439l-0.0776-0.0938l-0.07571-0.095
	l-0.0766-0.09601l-0.0756-0.0939l-0.0754-0.0961l-0.0746-0.09489l-0.0765-0.097l-0.0746-0.0952l-0.0742-0.097l-0.0746-0.09801
	l-0.0743-0.0961l-0.0745-0.09779l-0.0732-0.0981l-2.7172,1.8822l-0.1061,0.06799l-0.16579,0.0797l-0.0575,0.02121l-0.1758,0.0488
	l-0.1814,0.02721l-0.0632,0.004l-0.06319,0.00169h-0.0621v-0.0009l-0.0641-0.0031l-0.0654-0.00481l-0.0655-0.00679l-0.0652-0.00911
	l-0.0655-0.013l-0.0655-0.015l-0.0663-0.0159l-0.0678-0.0201l-0.0677-0.021l-0.0663-0.0233l-0.06779-0.0258l-0.0677-0.0269
	l-0.0686-0.0309v-0.0011l-0.0666-0.0321l-0.0689-0.03369l-0.0686-0.03511l-0.0689-0.0394l-0.0689-0.0394l-0.0675-0.0443
	l-0.0688-0.0439l-0.0675-0.04651l-0.0677-0.0479l-0.0689-0.05069l-0.0675-0.05301l-0.06551-0.05299v-0.0023l-0.06889-0.05589
	l-0.0663-0.05751l-0.0677-0.0607l-0.0655-0.0598l-0.0652-0.0652l-0.0655-0.0654l-0.0643-0.06689l-0.0652-0.0692l-0.0632-0.07001
	l-0.0633-0.07489l-0.0632-0.0731l-0.0629-0.0762l-0.0598-0.07719h-0.0023l-0.0609-0.07961l-0.0598-0.0802l-0.0598-0.08279
	l-0.0573-0.08421l-0.0576-0.08589l-0.0586-0.0878l-0.0553-0.0891l-0.05531-0.09041l0,0l-0.0553-0.093l-0.0518-0.0929l-0.0519-0.095
	h-0.0023l-3.11271-5.75569l-0.053-0.097l-0.0496-0.0961l-0.0485-0.0961l-0.0453-0.0966v-0.00151l-0.0451-0.0961l-0.0428-0.09689
	l-0.0417-0.09779l-0.0394-0.09721l-0.0371-0.09779l-0.0363-0.097l-0.036-0.0972l-0.0315-0.09689l-0.0328-0.09781l-0.0304-0.09731
	l-0.0283-0.09689l-0.027-0.0961l-0.0246-0.09579l-0.0227-0.09471v-0.00229l-0.0238-0.0952l-0.0179-0.09581l-0.0192-0.095
	l-0.0179-0.0941l-0.0147-0.09299v-0.00081l-0.0148-0.093l-0.0124-0.0918l-0.01-0.0936l-0.009-0.0898v-0.0009l-0.0068-0.0921
	l-0.0057-0.08791l-0.0045-0.08809l-0.0023-0.089v-0.1727l0.0023-0.0864v-0.0009l0.0045-0.08301l0.0057-0.082v-0.0011l0.0068-0.08279
	l0.009-0.07991v-0.00079l0.01-0.08031l0.0124-0.0771l0.0148-0.0779l0.0147-0.07629l0.0179-0.0757l0.0192-0.0731l0.0179-0.07089
	l0.0238-0.0722l0.0227-0.06779l0.0246-0.0672l0.027-0.06601l0.0283-0.0638l0.0304-0.0629l0.0328-0.06041l0.0315-0.05899
	l0.036-0.0567l0.0363-0.05501l0.0371-0.05379l0.0394-0.0522l0.0417-0.04901l0.0428-0.0482l0.0451-0.04559l0.0453-0.0434
	l0.0485-0.0417l0.0496-0.03799l0.053-0.03821l2.7159-1.8811l-0.044-0.11879l-0.0439-0.119h-0.0011l-0.0417-0.11911l-0.0825-0.23979
	H64.943l-0.04079-0.11729l-0.0417-0.1188h-0.0011l-0.0405-0.12111l-0.0406-0.11899v-0.0009l-0.0405-0.1187l-0.04079-0.12021
	l-0.0394-0.11909l-0.03941-0.121l-0.0777-0.2393h-0.0023l-0.0351-0.1199l-0.0405-0.12099l-0.036-0.1179l-0.0012-0.00171
	l-0.036-0.1205h-0.0022l-0.0363-0.11879v-0.00081l-0.0372-0.11789v-0.00121l-0.0742-0.2412l-0.03519-0.1199l-0.036-0.1188h-0.0011
	l-0.036-0.12219l-0.06779-0.23981l-0.036-0.12129l-0.0328-0.121l-0.0338-0.1205l-0.0326-0.1205h-0.0011l-0.0318-0.1196
	l-0.0337-0.12131l-0.0326-0.12109l-0.0317-0.1196l-0.0618-0.244l0,0l-0.0318-0.11911l-0.0314-0.12099l-0.0292-0.12111
	l-0.0307-0.1199l-0.0303-0.12019l-0.0295-0.1219l-0.0269-0.1221l-0.0306-0.11971l-0.0269-0.12129l-0.027-0.121l-0.0294-0.1199
	l-0.0258-0.12019l-0.0542-0.2438h-0.0011l-0.025-0.119l-0.0269-0.12109l-0.0249-0.121v-0.0009l-0.0247-0.1199l-0.0261-0.12219
	l-0.0235-0.1201l-0.0238-0.1219l-0.0462-0.2401l-0.0462-0.241l-0.0224-0.1196l-3.8404-2.21811l-0.0731-0.04309l-0.0712-0.047
	l-0.0731-0.04681l-0.0723-0.05019l-0.0709-0.05101l-0.0688-0.05389l-0.0723-0.0564l-0.0675-0.0558l-0.07-0.05901l-0.0689-0.0601
	l-0.0663-0.06259l-0.0678-0.06551l-0.0655-0.06459l-0.0663-0.06691l-0.0643-0.0692v-0.00169l-0.0644-0.0692l-0.064-0.0722
	l-0.0621-0.07401l-0.0632-0.07399l-0.0598-0.0757l-0.0596-0.0771v-0.0009l-0.0598-0.0771l-0.0587-0.0802l-0.0564-0.08101
	l-0.0564-0.08279l-0.0552-0.0834l-0.0542-0.08359l-0.0541-0.08501l-0.0508-0.0862l-0.053-0.0876l-0.0496-0.0873l-0.0485-0.089
	v-0.0023l-0.0473-0.0876l-0.0462-0.0909v-0.00121l-0.0451-0.08869v-0.0014l-0.0439-0.0907l-0.0428-0.0941l-0.0428-0.0922
	l-0.0406-0.0929l-0.0385-0.09531l-0.0371-0.0938l-0.036-0.0953l-0.036-0.09351l-0.0341-0.09689l-0.0326-0.09531l-0.0291-0.09579
	l-0.0307-0.0969l-0.028-0.0961l-0.0261-0.097l-0.0247-0.0958v-0.0014l-0.0238-0.097l-0.0224-0.0961l-0.0181-0.0958v-0.0008
	l-0.0182-0.0961v-0.0009l-0.0167-0.0952v-0.0023l-0.017-0.0947l-0.0125-0.0958v-0.0014l-0.0113-0.0947l-0.0099-0.0952l-0.008-0.095
	l-0.0068-0.0961l-0.0056-0.0938l-0.0012-0.093v-5.8385l0.0012-0.0363l0.0022-0.0133l0.0023-0.0473l0.0011-0.0261l0.0023-0.0235
	l0.0011-0.0465l0.0034-0.0179l0.0034-0.0283l0.0023-0.0474l0.0023-0.0099l0.0034-0.034l0.0065-0.0462v-0.0034l0.0045-0.0428
	l0.0023-0.0068l0.0045-0.036l0.008-0.0439l0.0045-0.0341l0.0034-0.0088l0.008-0.0428l0.0056-0.0272l0.0046-0.0147l0.0076-0.0428
	l0.0045-0.019l0.0046-0.0215l0.0102-0.0417l0.0034-0.0136l0.0057-0.0258l0.0124-0.0397v-0.0077l0.0111-0.0306l0.0113-0.0405l0,0
	l0.0136-0.036l0.0102-0.034l0.0023-0.0046l0.0133-0.0371l0.0091-0.0269l0.0045-0.0102l0.0136-0.036l0.008-0.0193l0.0068-0.0147
	l0.0156-0.0349l0.0056-0.0159l0.0091-0.019l0.017-0.034l0.0046-0.0088l0.011-0.0238l0.0318-0.0587l0.0011-0.0068l0.0178-0.0303
	h0.0012l0.0181-0.03149l0.0148-0.0249l0.0022-0.0057l0.0202-0.0292l0.0136-0.0204l0.0056-0.0091l0.0202-0.028l0.0192-0.0292
	l0.0204-0.0261l0.0417-0.0541l0.0045-0.0057l0.0179-0.0201c0.1253-0.1443,0.2662-0.2605,0.4229-0.345l7.0827-4.2452l-1.965-3.6348
	v-0.0012l-0.053-0.0946v-0.0023l-0.0496-0.0947l-0.0485-0.0958v-0.0023l-0.0453-0.0969l-0.0451-0.0958l-0.0428-0.09579v-0.00121
	l-0.0417-0.09689v-0.00121l-0.0394-0.0969l0,0l-0.0371-0.09689l-0.0363-0.09811l-0.036-0.0972l-0.0315-0.097v-0.0011l-0.0328-0.097
	v-0.0011l-0.0304-0.0958l-0.0283-0.0958l-0.027-0.0981l-0.0246-0.09579v-0.00121l-0.0227-0.0935l-0.0238-0.0958v-0.0011
	l-0.0179-0.0947l-0.0192-0.0958l-0.0179-0.0936l-0.0147-0.0949l-0.0148-0.0936l-0.0124-0.0912l-0.01-0.0913l-0.009-0.0936
	l-0.0068-0.089l0,0l-0.0057-0.0904l-0.0045-0.0879l-0.0023-0.0878v-0.1749l0.0023-0.0845l0.0045-0.0845l0.0057-0.0833l0.0068-0.0814
	l0.009-0.0811l0.01-0.0802l0.0124-0.0788l0.0148-0.0779l0.0147-0.0754l0.0179-0.0746l0.0192-0.0743l0.0179-0.0722l0.0238-0.0698
	l0.0227-0.0677l0.0246-0.0686l0.027-0.0655l0.0283-0.0643l0.0304-0.061l0.0328-0.0618l0.0315-0.0598l0.036-0.0575l0.1545-0.20869
	v-0.0022l0.1817-0.1758l0.1026-0.0779l1.6866-1.16679l1.4261-0.9901l0.0542-0.0337l0,0v-0.0035l0.03709-0.0192l0.0034-0.0023
	l0.0023-0.0008l0.0034-0.0034l0.0045-0.00121l0.0011-0.0011l0,0l0.0034-0.0023l0.0046-0.0034l0.0034-0.0011l0.0045-0.0023
	l13.1463-7.5248c1.1049-0.7654,2.9134,0.2809,4.0206,2.3215l1.3833,2.5572l7.3511-4.2744v-0.0011
	c0.5074-0.30331,1.186-0.27731,1.9281,0.1522l4.4073,2.5424c1.5648,0.902,2.8446,3.2675,2.8446,5.2517v4.8765l0.0799,0.0788
	l0.0891,0.0768l0.0802,0.07771v0.0011l0.0901,0.0757v0.0023l0.08,0.0765v0.0023l0.2503,0.231v0.0068l0.0802,0.0734l0.0099,0.0079
	l0.07,0.0698l0.0102,0.0102l0.06969,0.07l0.0205,0.0111l0.07,0.0677l0.0088,0.0136l0.07,0.0655l0.0102,0.0156l0.0708,0.0643
	l0.0103,0.0182l0.07,0.06181l0.019,0.0215l0.0598,0.0598l0.0204,0.0213l0.0598,0.05869l0.0799,0.081l0.0204,0.0295
	c1.2198,1.2345,2.38,2.5886,3.47929,4.0306l1.40031-0.7328l1.4408-0.9944c1.069-0.7429,2.7995,0.2155,3.9102,2.1331h0.0102
	l0.0496,0.0935l0.0496,0.0947l3.1198,5.7558c1.1004,2.0432,1.1004,4.3398,0,5.1057l-2.7196,1.882
	c0.9289,2.5373,1.6404,5.1293,2.1198,7.7031l3.8401,2.217c1.5604,0.90199,2.84,3.2652,2.84,5.2529v5.595
	c0,1.2121-0.4802,2.01489-1.2098,2.2493l-3.2797,1.2506l6.5888,3.59921l-13.5499,7.79019l-0.22871,0.1386l-0.24039,0.13831
	l-0.2401,0.1378v0.00079l-0.2401,0.13831l0,0l-0.2299,0.13499v0.002l-0.2403,0.136v0.00121l-0.2401,0.136v0.0009l-0.2401,0.136l0,0
	l-0.2401,0.13469l0,0l-0.239,0.136l0,0l-0.2404,0.13611l-0.2299,0.13409h-0.0102l-0.2298,0.1338h-0.0103l-0.07,0.0408
	l-11.1211,6.34529l-10.5353-11.912l-5.4051,2.86221L77.397,161.96745L77.397,161.96745z M91.5782,95.32156v-0.0011V95.32156z"/>
<path class="st13" d="M57.34591,88.89406l25.1011,14.55779v2.4668l-25.1011-14.5568V88.89406L57.34591,88.89406z M94.7227,110.55045
	l24.8451,14.4079v2.4673l-24.8451-14.4085V110.55045L94.7227,110.55045z M57.34591,114.19666l25.1011,14.5576v2.46719
	l-25.1011-14.55779V114.19666L57.34591,114.19666z M94.7227,135.85356l24.8451,14.4077v2.4664l-24.8451-14.4062V135.85356
	L94.7227,135.85356z M119.5678,137.59035l-24.8451-14.56239v2.4673l24.8451,14.561V137.59035L119.5678,137.59035z
	 M82.44701,115.89686l-25.1011-14.71581v2.467l25.1011,14.7158V115.89686L82.44701,115.89686z M119.5678,131.20645
	l-24.8451-14.55299v2.4678l24.8451,14.55221V131.20645L119.5678,131.20645z M82.44701,109.52425l-25.1011-14.7067v2.46809
	l25.1011,14.7056V109.52425L82.44701,109.52425z M57.34591,107.80055v2.46671l25.1011,14.5573v-2.4673L57.34591,107.80055
	L57.34591,107.80055z M94.7227,129.45636v2.46899l24.8451,14.4059v-2.46671L94.7227,129.45636L94.7227,129.45636z
	 M119.5678,112.28776L94.7227,97.72425v2.4681l24.8451,14.5624V112.28776L119.5678,112.28776z M82.44701,90.59425l-25.1011-14.7169
	v2.4678l25.1011,14.7158V90.59425L82.44701,90.59425z M119.5678,105.98975v2.4693l-24.8451-14.5919v-2.469L119.5678,105.98975
	L119.5678,105.98975z M82.44701,84.26215v2.4682l-25.1011-14.7461v-2.4693L82.44701,84.26215L82.44701,84.26215z M57.34591,82.49766
	v2.46809l25.1011,14.5568v-2.467L57.34591,82.49766L57.34591,82.49766z M94.7227,104.15315v2.469l24.8451,14.4068v-2.4678
	L94.7227,104.15315z"/>
<path class="st0" d="M124.00771,98.35345L52.9973,57.05415c-0.6696-0.3889-1.3034-0.5738-1.8726-0.5738
	c-0.4499,0-0.8592,0.1148-1.2166,0.3348c-0.362,0.2208-0.6752,0.5525-0.9255,0.9808c-0.4105,0.7058-0.6463,1.6778-0.6463,2.865
	v67.41861c0,1.827,0.5592,3.81889,1.4612,5.5511c0.8986,1.72459,2.1311,3.18979,3.4818,3.97699
	c14.0641,8.63271,22.0544,13.9136-0.282,0.4859c-1.4454-0.8391-2.7545-2.3891-3.6981-4.2032
	c-0.9414-1.80769-1.5276-3.8929-1.5276-5.81079l0.0023-67.41861c0-1.2898,0.2625-2.3542,0.7225-3.1456
	c0.2954-0.512,0.6766-0.9099,1.1186-1.1795c0.4476-0.2738,0.9584-0.417,1.5097-0.417c0.6673,0,1.3969,0.2086,2.1546,0.6494
	l71.0079,41.298c1.44991,0.84209,2.7601,2.3904,3.7105,4.2055c0.9403,1.8085,1.52,3.8919,1.52,5.8098v43.7026l-0.56039,0.32741
	v-44.03001c0-1.8286-0.56041-3.8199-1.47041-5.5516C126.5974,100.60275,125.3573,99.13815,124.00771,98.35345z"/>
<path class="st1" d="M124.5477,54.37085c0.2999,0.771,0.1995,1.5738-0.2503,1.7926c-0.4397,0.2177-1.0599-0.2324-1.3697-1.0057
	l-1.6903-4.2123c-0.2795-0.6956-0.3696-1.4071-0.2897-1.9933c0.0799-0.5851,0.3302-1.0463,0.7296-1.2424l2.4307-1.1841
	c0.4397-0.2196,1.0497,0.2313,1.3598,1.0046c0.32,0.7736,0.2098,1.5752-0.2401,1.7941l-2.2697,1.1069L124.5477,54.37085
	L124.5477,54.37085z M131.5977,61.77266c-0.43961,0.2163-1.0508-0.2324-1.36971-1.0057
	c-0.31009-0.7724-0.19949-1.5752,0.24921-1.7938l2.2706-1.1072l-1.58971-3.937c-0.31009-0.7747-0.2007-1.5775,0.2491-1.7952
	c0.44081-0.2163,1.06111,0.2324,1.3712,1.0069l1.68881,4.21c0.2807,0.6967,0.37079,1.4094,0.28969,1.9944
	c-0.0788,0.5865-0.3291,1.0474-0.72929,1.2436L131.5977,61.77266L131.5977,61.77266z M126.4679,61.00935l4.48949-11.3616
	c0.2299-0.5737,0.0204-1.4938-0.47029-2.0543c-0.4892-0.5592-1.0788-0.5456-1.3087,0.0284l-4.491,11.3604
	c-0.2299,0.5737-0.0201,1.495,0.4703,2.054C125.647,61.59665,126.2377,61.58416,126.4679,61.00935z"/>
<path class="st14" d="M48.71301,120.84415l-0.6574,0.4555c-0.6369,0.4408-1.6787-0.1601-2.3147-1.3359l-0.7847-1.4477
	l-4.1987,2.4046l-0.1252,0.0712l-0.002,0.00111c-0.2821,0.12959-0.6418,0.0981-1.0307-0.1273l-2.539-1.4658
	c-0.8997-0.5198-1.637-1.8807-1.637-3.0251v-2.8074c-1.0443-0.9471-2.0296-2.043-2.9384-3.24599l-1.5647,1.08369
	c-0.6373,0.4431-1.679-0.159-2.3148-1.3351l-1.7949-3.3157c-0.6372-1.1772-0.6372-2.4985,0-2.9407l1.5636-1.0845
	c-0.5332-1.459-0.9482-2.95171-1.2186-4.43311l-2.211-1.27869c-0.9009-0.5185-1.637-1.8794-1.637-3.0237v-3.2236
	c0-0.6199,0.2151-1.0519,0.5558-1.2379l4.0791-2.4443l-1.1319-2.0937c-0.6372-1.176-0.6372-2.49841,0-2.9395l1.7949-1.2435
	l0.0678-0.0428l7.5707-4.3339c0.637-0.4411,1.6801,0.1598,2.3159,1.3359l0.7971,1.4715l4.2336-2.4591
	c0.2931-0.176,0.6834-0.1612,1.1095,0.0857l2.5389,1.4657c0.902,0.5196,1.6373,1.8806,1.6373,3.0238v2.80849
	c1.0452,0.94711,2.0316,2.0418,2.9404,3.2448l1.5639-1.0834c0.6369-0.4396,1.6787,0.1602,2.3145,1.3372l1.794,3.3148
	c0.6381,1.1769,0.6381,2.49841,0,2.9392l-1.5638,1.0857c0.5332,1.4601,0.9481,2.9517,1.2197,4.4345l2.211,1.2762
	c0.9009,0.521,1.6362,1.8819,1.6362,3.0262v3.2222c0,0.6979-0.273,1.1602-0.6914,1.2968l-3.9923,2.2955l1.1806,2.1838
	c0.6381,1.177,0.6381,2.4985,0,2.9416C54.67281,117.63196,51.7098,119.13596,48.71301,120.84415L48.71301,120.84415z
	 M40.2289,95.06106c0.462,2.7961,1.9324,5.68259,3.8435,7.6116C43.6101,99.87766,42.13971,96.99146,40.2289,95.06106z"/>
<path class="st10" d="M47.5834,123.98065c-0.2798,0-0.565-0.0326-0.849-0.10149c-1.025-0.24461-1.9789-0.9221-2.7128-1.9065
	l-1.936,1.1083c-0.1228,0.0802-0.2515,0.15-0.3844,0.2109c-1.061,0.4836-2.283,0.3957-3.369-0.2299l-2.539-1.4658
	c-1.6832-0.9731-2.9043-3.1671-2.9043-5.2214v-1.7237c-0.3022-0.3011-0.5999-0.6146-0.8918-0.9392
	c-0.7248,0.3776-1.5616,0.4712-2.3959,0.2739c-1.2829-0.3067-2.459-1.2932-3.2269-2.7094l-1.7949-3.3148
	c-1.2966-2.397-0.9661-5.0171,0.786-6.2326l0.0077-0.0045c-0.178-0.6021-0.3348-1.2053-0.4711-1.8017l-1.2246-0.7081
	c-1.6832-0.9728-2.9055-3.1669-2.9055-5.2211v-3.2236c0-1.52979,0.7047-2.82529,1.8819-3.4659l1.9054-1.1421
	c-1.273-2.3856-0.9379-4.9833,0.8062-6.192l1.7949-1.2447l0.2863-0.1771l7.4753-4.2775c0.7767-0.4927,1.709-0.6404,2.6438-0.4161
	c1.027,0.2457,1.9854,0.9269,2.7193,1.9156l2.0319-1.1792c1.0675-0.6418,2.4443-0.61681,3.6541,0.0833l2.5356,1.4647
	c1.6832,0.9683,2.9067,3.1657,2.9067,5.2189v1.7251c0.3021,0.2999,0.5986,0.6123,0.8917,0.938
	c0.724-0.3776,1.5605-0.4737,2.3982-0.273c1.2821,0.3079,2.4567,1.2946,3.2224,2.7094l1.7937,3.3148
	c1.3,2.3981,0.9698,5.0185-0.788,6.2326l-0.0034,0.0045c0.178,0.6021,0.3348,1.2042,0.4723,1.804l1.2223,0.7058
	c1.6854,0.9743,2.9055,3.1694,2.9055,5.2225v3.2222c0,1.6653-0.8028,3.0092-2.122,3.5855l-1.6912,0.9729l0.0045,0.0125
	c1.3,2.3947,0.9698,5.0173-0.7857,6.2305c-2.1841,1.5117-4.4524,2.77-6.6487,3.9866c-0.7364,0.4082-1.476,0.8176-2.2189,1.2402
	l-0.5661,0.3912C48.9318,123.77776,48.27221,123.98065,47.5834,123.98065L47.5834,123.98065z M44.9562,115.97795
	c0.2333,0,0.4646,0.034,0.6934,0.09801c0.6573,0.18739,1.2098,0.6316,1.5378,1.23029l0.6157,1.1398
	c0.6766-0.3844,1.3518-0.7589,2.0239-1.1308c1.9188-1.0621,3.742-2.0735,5.4998-3.2326l-0.0666-0.1352l-1.1827-2.1849
	c-0.6539-1.2076-0.2245-2.71851,0.9661-3.40501l3.4129-1.9641v-2.6519c0-0.2525-0.239-0.7239-0.4025-0.8512l-2.177-1.25381
	c-0.6426-0.3722-1.0936-1.008-1.2257-1.73959c-0.2424-1.3204-0.6143-2.6733-1.1084-4.0229
	c-0.3957-1.0846-0.0088-2.2978,0.9383-2.9551l0.8501-0.58739l-0.0711-0.1443l-1.6044-2.9653l-0.3946,0.2741
	c-1.1174,0.7745-2.6496,0.5287-3.4682-0.5558c-0.8275-1.0948-1.7079-2.0691-2.6189-2.8942
	c-0.5301-0.4816-0.8323-1.1636-0.8323-1.8797v-2.80849c0-0.2515-0.2412-0.7215-0.4025-0.85011l-1.8646-1.0732l-3.4436,2.0001
	c-0.593,0.3427-1.2999,0.4328-1.9604,0.2491c-0.6596-0.1862-1.2166-0.6304-1.5435-1.2347l-0.6607-1.2186l-6.4832,3.7094
	l-1.0122,0.7024l0.0675,0.1432l1.1355,2.0948c0.646,1.1939,0.2367,2.68439-0.928,3.3834l-3.4028,2.0395v2.6904
	c0,0.2514,0.2401,0.72141,0.4037,0.8512l2.1762,1.2538c0.6448,0.373,1.0924,1.0077,1.2276,1.7396
	c0.2413,1.319,0.6135,2.6731,1.105,4.0227c0.3957,1.0836,0.0125,2.2969-0.9369,2.9539l-0.8478,0.58771l0.0686,0.1442l1.6055,2.9674
	l0.3957-0.2761c1.1197-0.7736,2.6485-0.5287,3.4682,0.557c0.8252,1.09361,1.7059,2.0667,2.6193,2.8941
	c0.5297,0.4802,0.8319,1.1637,0.8319,1.8783v2.8074c0,0.2526,0.2401,0.7228,0.4025,0.8501l1.8661,1.0769l3.4645-1.9877
	C44.0815,116.09415,44.5177,115.97795,44.9562,115.97795L44.9562,115.97795z M56.04591,91.83556l-0.0034,0.0034L56.04591,91.83556
	L56.04591,91.83556z M25.26511,91.64845l-0.0981,0.0595L25.26511,91.64845L25.26511,91.64845z M43.43401,79.06345l0.0023,0.0023
	L43.43401,79.06345L43.43401,79.06345z M44.89301,78.95975l-0.0417,0.0215L44.89301,78.95975L44.89301,78.95975z M37.68961,78.51895
	l-0.0023,0.0022L37.68961,78.51895L37.68961,78.51895z M44.0724,105.20735c0.3912,0,0.7869-0.0904,1.1523-0.2775
	c0.9842-0.5017,1.5287-1.5817,1.3484-2.6722c-0.5457-3.3021-2.2425-6.6597-4.5436-8.979c-0.777-0.7846-1.971-0.9754-2.954-0.4748
	c-0.9834,0.5028-1.529,1.5843-1.3485,2.6711c0.5468,3.3035,2.2437,6.66,4.5437,8.9827
	C42.7588,104.94805,43.41161,105.20735,44.0724,105.20735z"/>
<path class="st15" d="M48.8765,84.16635c1.0452,0.94711,1.937,1.9146,2.8423,3.1176l1.662-0.9562
	c0.6707-0.3877,1.6787,0.1602,2.3145,1.3372l1.794,3.3148c0.6381,1.1769,0.6381,2.49841,0,2.9392l-1.5638,1.0857
	c0.5332,1.4601,0.9481,2.9517,1.2197,4.4345l2.211,1.2762c0.9009,0.521,1.6362,1.8819,1.6362,3.0262v3.2222
	c0,0.6979-0.273,1.1602-0.6914,1.2968l-3.9923,2.2955l1.1806,2.1838c0.6381,1.177,0.6381,2.4985,0,2.9416
	c-2.8165,1.9505-5.7795,3.4545-8.7763,5.1638l-1.4026-3.681l-6.6801,3.8287l-1.1174-7.6294l6.5437,2.4431l-1.3563-0.7837
	c-0.8998-0.5185-1.6359-1.8805-1.6359-3.0238v-1.0034l-2.2008,1.42719l-6.8933-3.92l-4.5077-13.6548l3.0578-2.2459
	c-0.6101-0.3801-1.1356-1.1435-1.397-1.9496l-3.6,4.2551l-3.6598-5.3757l5.9519-3.5662l-1.1511-5.19199l7.5798-4.3395
	c0.637-0.4411,1.679,0.16209,2.3159,1.3359l0.7813,1.442l4.2494-2.4296c0.2931-0.176,0.6834-0.1612,1.1095,0.0857l2.5389,1.4657
	c0.902,0.5196,1.6373,1.8806,1.6373,3.0238V84.16635L48.8765,84.16635z M47.8368,104.85905l-7.1019-14.6416
	c-0.4215,0.7881-0.6594,1.8176-0.6594,3.0578c0,4.1354,2.6405,9.0108,5.8955,10.889
	C46.6227,104.54095,47.25061,104.76855,47.8368,104.85905z"/>
<path class="st10" d="M40.63031,121.31106l-0.1389-0.03181c-0.0924-0.04729-0.1602-0.13519-0.1746-0.2389l-1.1186-7.6306
	c-0.0147-0.1106,0.0284-0.2223,0.1174-0.2923c0.0856-0.072,0.2029-0.0901,0.3078-0.0507l4.1253,1.5392
	c-0.5942-0.7115-1.0024-1.7172-1.0024-2.6068v-0.4206l-1.7081,1.1095c-0.0992,0.0643-0.2265,0.0689-0.3291,0.009l-6.8967-3.9191
	l-0.1432-0.1758l-4.5076-13.6548c-0.044-0.1298,0.0011-0.2718,0.1136-0.354l2.7151-1.9945
	c-0.3799-0.3396-0.7214-0.8107-0.9661-1.3362l-3.2595,3.8503l-0.2583,0.1105c-0.0992-0.0034-0.1893-0.0564-0.2446-0.1363
	l-3.6587-5.37711l-0.0484-0.2457l0.1465-0.2041l5.7535-3.4489l-1.1004-4.9686c-0.0295-0.1366,0.0326-0.27641,0.1522-0.3441
	l7.5798-4.3396c0.2571-0.1769,0.5976-0.2321,0.9641-0.1465c0.6596,0.1567,1.3294,0.7588,1.7881,1.6078l0.6259,1.1568l3.9696-2.2686
	c0.4003-0.2435,0.9099-0.212,1.4253,0.0856l2.539,1.4658c0.991,0.5707,1.7949,2.0509,1.7949,3.2979v2.6688
	c0.9742,0.8918,1.7906,1.7801,2.609,2.8434l1.4207-0.8164c0.3044-0.1757,0.6642-0.2151,1.0463-0.10571
	c0.6426,0.1826,1.2651,0.7529,1.7059,1.5659l1.7937,3.3148c0.726,1.3405,0.6832,2.812-0.0992,3.3531l-1.3632,0.9437
	c0.4904,1.37669,0.8671,2.7578,1.1231,4.113l2.0857,1.203c1.0069,0.5817,1.7949,2.0316,1.7949,3.3001v3.2222
	c0,0.8152-0.3415,1.4128-0.911,1.5967l-3.6641,2.1161l1.0338,1.91341c0.726,1.3382,0.6832,2.8108-0.0992,3.3508
	c-2.0903,1.4499-4.2089,2.6215-6.4525,3.8662c-0.7781,0.4306-1.5616,0.8668-2.3474,1.3133l-0.265,0.0227l-0.1894-0.1849
	l-1.2685-3.3329l-6.3589,3.6431L40.63031,121.31106L40.63031,121.31106z M39.9052,113.84825l0.972,6.6384l6.2753-3.5966
	l0.2639-0.0238l0.1916,0.1874l1.2685,3.3327c0.6809-0.3844,1.3587-0.7611,2.0339-1.1353c2.2277-1.2345,4.3328-2.4015,6.3995-3.8301
	c0.4374-0.3034,0.5051-1.4171-0.0981-2.53l-1.1826-2.1838c-0.0814-0.1511-0.0272-0.3396,0.1227-0.4263l3.9912-2.2955
	c0.3563-0.12299,0.5324-0.4949,0.5324-1.0216v-3.2222c0-1.0284-0.6767-2.2886-1.4783-2.751l-2.2107-1.2753
	c-0.0814-0.0462-0.1367-0.1261-0.1534-0.2174c-0.2639-1.4431-0.6698-2.918-1.2042-4.3849c-0.0507-0.1364-0.0011-0.2886,0.116-0.3708
	l1.565-1.0837c0.4374-0.3021,0.5051-1.4147-0.0981-2.5276l-1.7949-3.3149c-0.3529-0.6539-0.8467-1.125-1.3215-1.2594
	c-0.214-0.0595-0.4014-0.0439-0.557,0.0451l-1.6617,0.9572c-0.1397,0.0814-0.3146,0.044-0.4104-0.0844
	c-0.8827-1.1671-1.7453-2.1164-2.8029-3.0748l-0.1026-0.23331v-2.80849c0-1.02821-0.6764-2.28761-1.4803-2.7499l-2.5381-1.4647
	c-0.3079-0.178-0.5896-0.2106-0.7903-0.08791l-4.254,2.43221l-0.2446,0.0292l-0.1905-0.1534l-0.7815-1.4408
	c-0.3651-0.6721-0.9063-1.1804-1.3799-1.2921c-0.1871-0.0462-0.3473-0.0238-0.4757,0.0652l-7.401,4.2361l1.0996,4.9666
	c0.0281,0.1329-0.0306,0.2704-0.1468,0.3393l-5.6619,3.3948l3.2357,4.7534l3.3304-3.937c0.0734-0.0882,0.1919-0.1299,0.3033-0.10609
	c0.1117,0.0202,0.2041,0.1027,0.2404,0.2129c0.2435,0.7509,0.7407,1.4511,1.2637,1.7782c0.0879,0.0553,0.1431,0.1522,0.1488,0.2582
	c0.0034,0.1049-0.0451,0.2041-0.1307,0.2659l-2.8717,2.11069l4.3971,13.3189l6.6217,3.7658l2.0373-1.3249
	c0.0969-0.0644,0.2211-0.0664,0.3237-0.0125c0.1026,0.0553,0.1658,0.1624,0.1658,0.2798v1.0034c0,1.0282,0.6775,2.2876,1.478,2.7499
	l1.3552,0.7835c0.1443,0.0825,0.1996,0.2605,0.1284,0.4105c-0.0697,0.1488-0.2423,0.2177-0.3968,0.1613L39.9052,113.84825
	L39.9052,113.84825z M47.8368,105.17676c0.0992,0,0.1953-0.0473,0.256-0.1295c0.0688-0.0947,0.0813-0.22231,0.0306-0.326
	l-7.1031-14.6412c-0.0541-0.1072-0.1601-0.1783-0.2809-0.1795c-0.1261,0.0034-0.2299,0.0632-0.2852,0.16701
	c-0.4612,0.8648-0.6956,1.94479-0.6956,3.2077c0,4.2293,2.715,9.2361,6.0534,11.1631c0.6729,0.3889,1.3394,0.6347,1.9752,0.7339
	L47.8368,105.17676L47.8368,105.17676z M40.7473,90.97295c-0.2321,0.6596-0.3551,1.442-0.3551,2.3023
	c0,4.0263,2.573,8.7874,5.7367,10.6152c0.3844,0.22079,0.7631,0.39,1.1319,0.5074L40.7473,90.97295z"/>
<path class="st1" d="M41.2355,88.54225c1.0465,0.94701,2.0318,2.0429,2.9406,3.2448l1.5648-1.0837
	c0.636-0.4396,1.6778,0.1613,2.3147,1.3374l1.7938,3.3145c0.6361,1.1773,0.6361,2.4999,0,2.9407l-1.5647,1.0845
	c0.5343,1.4613,0.9493,2.9529,1.2197,4.4354l2.211,1.2765c0.8998,0.5195,1.6393,1.8816,1.6393,3.0248v3.22359
	c0,1.1432-0.7395,1.6528-1.6393,1.133l-2.211-1.2773c-0.2704,1.1701-0.6854,2.1849-1.2197,3.0294l1.5647,2.8907
	c0.6361,1.1773,0.6361,2.4988,0,2.9396l-1.7938,1.2435c-0.6369,0.4408-1.6787-0.1601-2.3147-1.3359l-1.5648-2.8922
	c-0.9076,0.1545-1.8941,0.1094-2.9406-0.14771v2.8063c0,1.1455-0.7362,1.6551-1.6359,1.1355l-2.539-1.4658
	c-0.8997-0.5198-1.637-1.8807-1.637-3.0251v-2.8074c-1.0443-0.9471-2.0296-2.043-2.9384-3.2437l-1.5647,1.0814
	c-0.6373,0.4431-1.679-0.159-2.3148-1.3351l-1.7949-3.3157c-0.6372-1.1772-0.6372-2.4985,0-2.9407l1.5636-1.0845
	c-0.5332-1.459-0.9482-2.95171-1.2186-4.43311l-2.211-1.27869c-0.9009-0.5185-1.637-1.8794-1.637-3.0237v-3.2236
	c0-1.1432,0.7361-1.6551,1.637-1.133l2.211,1.275c0.2704-1.169,0.6854-2.1838,1.2186-3.0271l-1.5636-2.8908
	c-0.6372-1.176-0.6372-2.49841,0-2.9395l1.7949-1.2435c0.6358-0.442,1.6775,0.1601,2.3148,1.3359l1.5647,2.8911
	c0.9088-0.1534,1.8941-0.1094,2.9384,0.1488v-2.80859c0-1.1432,0.7373-1.65401,1.637-1.1352l2.539,1.4677
	c0.8997,0.5176,1.6359,1.8808,1.6359,3.024V88.54225L41.2355,88.54225z M38.33001,93.56946
	c-3.2548-1.8794-5.8944-0.0519-5.8944,4.08279c0,4.1343,2.6396,9.0082,5.8944,10.8901c3.2561,1.87711,5.8946,0.0507,5.8946-4.0836
	C44.22461,100.32416,41.58611,95.44916,38.33001,93.56946z"/>
<path class="st10" d="M47.58001,121.76205c-0.106,0-0.2177-0.0137-0.3294-0.0409c-0.6608-0.1587-1.3292-0.7574-1.7892-1.6075
	l-1.4579-2.6949c-0.7801,0.1026-1.6021,0.0723-2.4511-0.0992v2.4106c0,0.7013-0.2526,1.2458-0.6945,1.5018
	c-0.4059,0.2335-0.9088,0.2018-1.4173-0.0924l-2.539-1.46581c-0.9899-0.5715-1.7938-2.0498-1.7938-3.299v-2.6674
	c-0.938-0.8614-1.8411-1.8536-2.6912-2.9517l-1.3158,0.9119c-0.2784,0.19189-0.618,0.248-0.9865,0.1613
	c-0.6596-0.159-1.3283-0.76-1.7884-1.6078l-1.7949-3.3157c-0.7237-1.33971-0.6809-2.812,0.0981-3.35201l1.3643-0.945
	c-0.4892-1.3754-0.8671-2.7576-1.1228-4.1128l-2.0837-1.20309c-0.9899-0.5717-1.7972-2.052-1.7972-3.2989v-3.2236
	c0-0.699,0.2548-1.2458,0.6979-1.5029c0.4048-0.2322,0.9065-0.1996,1.4162,0.0947l1.8468,1.0666
	c0.2548-0.9504,0.6088-1.8062,1.0576-2.55479l-1.4772-2.7284c-0.7237-1.3385-0.6809-2.8108,0.0981-3.35191l1.796-1.2427
	c0.2764-0.19279,0.6169-0.24689,0.9856-0.16109c0.6597,0.1577,1.3292,0.7575,1.787,1.6064l1.4601,2.6949
	c0.7813-0.10371,1.601-0.07,2.45,0.1004v-2.4129c0-0.69791,0.2514-1.24471,0.6956-1.5006c0.4026-0.2345,0.9066-0.2007,1.4162,0.0924
	l2.5379,1.4658c0.9898,0.5714,1.7949,2.0508,1.7949,3.2989v2.66859c0.9357,0.86031,1.84,1.85011,2.6901,2.95061l1.3169-0.90971
	c0.2784-0.19189,0.618-0.2491,0.9854-0.1613c0.6607,0.1568,1.3305,0.75771,1.7906,1.6078l1.7938,3.3146
	c0.7248,1.3396,0.682,2.8097-0.0981,3.35201l-1.3643,0.945c0.4881,1.37199,0.866,2.75449,1.1228,4.1106l2.0849,1.2052
	c0.9898,0.5707,1.796,2.0509,1.796,3.299v3.22359c0,0.69791-0.2548,1.2458-0.6968,1.5006
	c-0.4059,0.2322-0.9088,0.2007-1.4162-0.0924l-1.8479-1.0678c-0.2548,0.9516-0.6088,1.8096-1.0576,2.5549l1.4772,2.7297
	c0.7248,1.3394,0.682,2.8106-0.0981,3.35201l-1.7941,1.2424C48.04321,121.69315,47.82121,121.76205,47.58001,121.76205
	L47.58001,121.76205z M44.17611,116.75606c0.116,0,0.2231,0.0629,0.2773,0.1655l1.565,2.8899
	c0.3631,0.6718,0.9054,1.1792,1.3799,1.2921c0.1871,0.0473,0.3495,0.0246,0.477-0.0644l1.7949-1.2424
	c0.4374-0.3033,0.5029-1.4173-0.098-2.5302l-1.5639-2.8896c-0.0553-0.1004-0.0519-0.2231,0.0091-0.3201
	c0.523-0.8288,0.9198-1.8142,1.1769-2.9304c0.0249-0.09811,0.0924-0.18031,0.184-0.2197c0.0924-0.042,0.1984-0.034,0.284,0.0167
	l2.2122,1.2764c0.3044,0.17471,0.5816,0.2075,0.7823,0.0925c0.2413-0.13979,0.3801-0.487,0.3801-0.9516v-3.22359
	c0-1.0281-0.6777-2.2864-1.4794-2.7522l-2.211-1.27499c-0.081-0.0462-0.1363-0.1264-0.1545-0.2177
	c-0.2647-1.4454-0.6695-2.9199-1.2041-4.3823c-0.0485-0.1364-0.0012-0.2886,0.1173-0.3711l1.565-1.0823
	c0.4374-0.3033,0.5029-1.4162-0.098-2.529l-1.7949-3.3157c-0.3632-0.6721-0.9054-1.1807-1.3791-1.29321
	c-0.1916-0.04649-0.3506-0.0238-0.4768,0.06631l-1.565,1.0826c-0.1386,0.0958-0.3302,0.0675-0.4328-0.0689
	c-0.9145-1.2087-1.8888-2.2853-2.8999-3.2009c-0.0666-0.0598-0.1049-0.1443-0.1049-0.2355v-2.8075
	c0-1.0284-0.6777-2.2878-1.4782-2.7498l-2.539-1.4658c-0.3022-0.1769-0.5828-0.2098-0.7812-0.09251
	c-0.2416,0.1387-0.3802,0.48701-0.3802,0.95161v2.80859c0,0.0969-0.045,0.1882-0.1216,0.25031
	c-0.0757,0.0598-0.1737,0.0811-0.2707,0.0564c-0.9876-0.2438-1.9335-0.2934-2.8097-0.1446
	c-0.1352,0.025-0.2659-0.0428-0.3325-0.1598l-1.5639-2.8911c-0.3642-0.67181-0.9042-1.17921-1.3776-1.29311
	c-0.1916-0.0463-0.3507-0.0224-0.4782,0.0666l-1.796,1.2424c-0.4374,0.3022-0.5052,1.415,0.0992,2.5291l1.565,2.8907
	c0.0541,0.10149,0.0496,0.2231-0.0114,0.3201c-0.523,0.8277-0.919,1.8141-1.1769,2.9304c-0.0238,0.0981-0.0916,0.1792-0.1828,0.2197
	c-0.0924,0.04079-0.1996,0.0329-0.2852-0.0167l-2.211-1.2765c-0.3045-0.1757-0.5817-0.2086-0.7824-0.0924
	c-0.2412,0.1386-0.3813,0.4859-0.3813,0.9516v3.2236c0,1.0281,0.6801,2.2875,1.4806,2.7499l2.2121,1.2761
	c0.0788,0.0474,0.1364,0.1253,0.1523,0.2177c0.2625,1.4409,0.6684,2.9157,1.2041,4.3847c0.0508,0.1355,0.0012,0.2863-0.1151,0.3699
	l-1.5661,1.0811c-0.4385,0.3045-0.504,1.4173,0.0981,2.5302l1.7949,3.3157c0.362,0.6721,0.9054,1.1795,1.379,1.2935
	c0.1871,0.0439,0.3484,0.02119,0.4757-0.0667l1.5673-1.0834c0.1363-0.0949,0.3291-0.0654,0.4328,0.0698
	c0.9088,1.20409,1.8853,2.2819,2.8976,3.202l0.1037,0.2333v2.8074c0,1.0284,0.6778,2.289,1.4794,2.7499l2.5379,1.4681
	c0.3044,0.1726,0.5828,0.2063,0.7823,0.09119c0.2413-0.13969,0.379-0.487,0.379-0.9538v-2.8063c0-0.097,0.0462-0.1894,0.1216-0.2492
	c0.0769-0.05949,0.1783-0.0799,0.2719-0.05949c0.9876,0.2458,1.9312,0.2931,2.8108,0.14539L44.17611,116.75606L44.17611,116.75606z
	 M40.77,109.59766c0.6066,0,1.1736-0.1476,1.6832-0.4396c1.3272-0.7668,2.088-2.47951,2.088-4.6993
	c0-4.2293-2.7147-9.2364-6.0534-11.1642c-1.5715-0.9066-3.0926-1.0285-4.2808-0.3419c-1.3261,0.7656-2.088,2.4783-2.088,4.6996
	c0,4.22781,2.7158,9.2349,6.0522,11.1628C39.07211,109.33495,39.9548,109.59766,40.77,109.59766L40.77,109.59766z M35.8936,93.14796
	c-0.4984,0-0.9607,0.1171-1.3686,0.3541c-1.1265,0.6494-1.7725,2.1622-1.7725,4.1502c0,4.026,2.573,8.7874,5.7353,10.6137
	c1.37,0.7883,2.6643,0.9111,3.6474,0.343c1.1265-0.6505,1.7714-2.1625,1.7714-4.1502c0-4.0263-2.5719-8.7877-5.7354-10.614
	C37.3718,93.38235,36.596,93.14796,35.8936,93.14796z"/>
<path class="st10" d="M53.0457,112.79405l-0.3132-0.5491l7.5628-4.3274l0.3147,0.5502L53.0457,112.79405L53.0457,112.79405z
	 M49.66121,104.08996l-0.3147-0.549l7.64-4.377l0.3155,0.5502L49.66121,104.08996L49.66121,104.08996z M49.7006,98.78295
	l-0.3135-0.55019l7.4537-4.2472l0.3135,0.5514L49.7006,98.78295L49.7006,98.78295z M45.56741,91.20735l-0.3169-0.5491l8.0265-4.6417
	l0.3167,0.5491L45.56741,91.20735L45.56741,91.20735z M41.39341,88.81715l7.6399-4.3767l-0.3135-0.549l-7.6408,4.3755
	L41.39341,88.81715L41.39341,88.81715z M36.18671,81.39295l-0.3166-0.5491l8.0183-4.6136l0.3147,0.5502L36.18671,81.39295z"/>
<path class="st14" d="M92.6021,176.45816l-1.0894,0.75519c-1.055,0.72911-2.7825-0.2659-3.8378-2.215l-1.2977-2.4001l-6.9565,3.9872
	l-0.20641,0.11911l-0.0034,0.00079c-0.4688,0.2132-1.06181,0.1602-1.709-0.21291l-4.2043-2.42699
	c-1.49191-0.86-2.71391-3.1161-2.71391-5.0097v-4.653c-1.7286-1.56841-3.3633-3.38431-4.8674-5.37621l-2.5931,1.79521
	c-1.0542,0.7327-2.7805-0.26541-3.8378-2.2133l-2.971-5.49271c-1.0554-1.948-1.0554-4.1423,0-4.8725l2.5908-1.7946
	c-0.8838-2.4211-1.5681-4.8923-2.018-7.3502l-3.6632-2.11499c-1.4927-0.86-2.7127-3.1158-2.7127-5.0099v-5.3402
	c0-1.0259,0.3563-1.7427,0.9224-2.0497l6.7578-4.0519l-1.8771-3.469c-1.0554-1.9483-1.0554-4.1403,0-4.8708l2.971-2.0588
	l0.1159-0.0709l12.5444-7.1798c1.0551-0.7305,2.7814,0.2661,3.8345,2.2144l1.3215,2.4386l7.0126-4.0779v0.002
	c0.485-0.2908,1.1322-0.267,1.8414,0.1412l4.2041,2.4273c1.493,0.8626,2.7127,3.1175,2.7127,5.0139v4.6508
	c1.7308,1.5695,3.3656,3.3834,4.8696,5.3759l2.5932-1.7963c1.0531-0.7305,2.7825,0.2662,3.8324,2.2155l2.9798,5.4925
	c1.0497,1.9493,1.0497,4.1414,0,4.87099l-2.59991,1.79521c0.8895,2.42189,1.5706,4.894,2.0205,7.35019l3.6697,2.1147
	c1.4894,0.862,2.7094,3.1161,2.7094,5.0099v5.34081c0,1.15619-0.4487,1.92239-1.15,2.1469l-6.6093,3.8044l1.9596,3.617
	c1.0497,1.95,1.0497,4.1429,0,4.8739C102.4774,171.13756,97.5672,173.62636,92.6021,176.45816L92.6021,176.45816z
	 M78.54481,133.74545c0.7653,4.631,3.202,9.4091,6.3666,12.6048C84.1483,141.72246,81.7117,136.94035,78.54481,133.74545z"/>
<path class="st16" d="M90.7224,179.98875c-0.3325,0-0.6729-0.0414-1.0134-0.12219c-1.6664-0.39821-3.22121-1.73311-4.26411-3.66351
	l-0.061-0.11169l-4.6227,2.64819c-0.1556,0.1017-0.3178,0.1907-0.4847,0.26781l-0.0743,0.0321
	c-1.2325,0.5408-2.6396,0.41499-3.9676-0.3501l-4.2044-2.4259c-2.2697-1.311-3.9813-4.41101-3.9813-7.2077v-3.55431
	c-0.9728-0.93799-1.921-1.95509-2.8366-3.041l-0.6449,0.44701c-0.9289,0.6429-2.0823,0.851-3.2436,0.56889
	c-1.6677-0.39569-3.2213-1.73-4.2676-3.66119l-2.9707-5.49271c-1.7116-3.15919-1.3745-6.66879,0.7846-8.16319l1.0148-0.703
	c-0.5097-1.5798-0.9326-3.1649-1.2628-4.7359l-2.6666-1.5392c-2.2685-1.3107-3.9809-4.40981-3.9809-7.2076v-5.3402
	c0-1.944,0.8206-3.505,2.2515-4.2795l4.5819-2.7487l-0.7225-1.3363c-1.7388-3.2097-1.4083-6.643,0.7835-8.1615l2.9752-2.0577
	c0.1185-0.08469,0.2336-0.15559,0.3518-0.2188l12.418-7.1076c0.9122-0.5839,2.0183-0.76109,3.1312-0.4949
	c1.6684,0.398,3.2221,1.7317,4.26611,3.6621l0.0746,0.13969l4.75449-2.7646c1.2818-0.7665,2.8897-0.7203,4.3824,0.1377
	l4.20551,2.4296c2.26849,1.3091,3.9789,4.4073,3.9789,7.2091v3.5515c0.974,0.938,1.9222,1.9551,2.8378,3.0419l0.646-0.4476
	c0.9312-0.6449,2.0869-0.8456,3.24599-0.5695c1.6608,0.3971,3.22131,1.732,4.2607,3.6609l2.9798,5.4922
	c1.7104,3.1609,1.37,6.6693-0.7891,8.16489l-1.0115,0.70441c0.5006,1.5817,0.9304,3.1657,1.2606,4.73579l2.65981,1.53931
	c2.2708,1.3096,3.99,4.4075,3.99,7.2056v5.34081c0,2.10049-0.9898,3.7701-2.5999,4.4433l-4.299,2.47321l0.7891,1.44479
	c1.7297,3.20999,1.4003,6.64391-0.7891,8.1649c-3.5504,2.45599-7.2712,4.51709-10.8621,6.5081
	c-1.2504,0.69279-2.5098,1.39099-3.7735,2.10869l-0.9967,0.6925C92.2976,179.75345,91.5275,179.98875,90.7224,179.98875
	L90.7224,179.98875z M86.3772,170.06325c0.2322,0,0.4669,0.03311,0.6934,0.0961c0.6584,0.18791,1.2109,0.63181,1.5369,1.23221
	l1.2977,2.3998c0.2557,0.4731,0.5241,0.77301,0.7226,0.94931l0.53001-0.36591l0.1871-0.11819
	c1.3125-0.74921,2.6223-1.4749,3.9246-2.1972c3.5359-1.95981,6.8777-3.812,10.1282-6.0312
	c0.0204-0.32491-0.0598-1.0049-0.4802-1.7915l-1.9596-3.6162c-0.6596-1.20979-0.23019-2.72099,0.9595-3.405l6.4908-3.73289v-5.36121
	c0-1.065-0.7903-2.43781-1.4409-2.8148l-3.6598-2.11319c-0.6494-0.3728-1.0992-1.00801-1.2302-1.7379
	c-0.4192-2.28311-1.0599-4.61681-1.91-6.93781c-0.39-1.0851-0.0099-2.2981,0.9405-2.95509l2.2899-1.58691
	c0.0204-0.3243-0.0598-1.00339-0.4802-1.78809l-2.9801-5.49321c-0.2491-0.4714-0.5199-0.7736-0.7194-0.94939l-2.0339,1.40829
	c-1.1163,0.77441-2.645,0.5287-3.4659-0.557c-1.4318-1.89529-2.96049-3.5853-4.54929-5.0264
	c-0.5287-0.4791-0.83311-1.1622-0.83311-1.8771v-4.6508c0-1.069-0.7914-2.4421-1.44199-2.8176l-3.9801-2.2955l-6.5393,3.7984
	c-0.593,0.345-1.3011,0.432-1.9596,0.248c-0.6607-0.18481-1.2174-0.62901-1.5446-1.2322l-1.3192-2.4375
	c-0.2727-0.50401-0.5601-0.8141-0.762-0.9845l-12.1067,6.9296l-2.6215,1.81499c-0.0201,0.32491,0.0575,1.0035,0.4824,1.7918
	l1.8774,3.4679c0.6472,1.192,0.2379,2.6836-0.9269,3.3826l-6.4457,3.8625l-0.0023,0.0629v5.3402
	c0,1.0661,0.7949,2.4389,1.4454,2.8159l3.6632,2.11299c0.6438,0.373,1.0925,1.00821,1.2257,1.73871
	c0.4181,2.28619,1.061,4.6194,1.9078,6.937c0.3957,1.0831,0.011,2.29829-0.9372,2.9554l-2.2898,1.5851
	c-0.0201,0.32491,0.0575,1.0049,0.4824,1.78979l2.9733,5.49301c0.256,0.472,0.5233,0.7719,0.7228,0.9482l2.0328-1.40739
	c1.11971-0.77501,2.64951-0.5287,3.467,0.5573c1.4307,1.8929,2.9605,3.5849,4.5482,5.0247
	c0.52979,0.48099,0.83199,1.1633,0.83199,1.87849v4.653c0,1.0656,0.7948,2.4384,1.4465,2.8154l3.9767,2.2941l6.573-3.76579
	C85.5036,170.17746,85.9398,170.06325,86.3772,170.06325L86.3772,170.06325z M52.78671,126.72665l-0.0508,0.0308L52.78671,126.72665
	L52.78671,126.72665z M85.4177,105.63576l-0.027,0.0136L85.4177,105.63576L85.4177,105.63576z M84.91141,148.88615
	c0.3937,0,0.7883-0.0898,1.1534-0.2778c0.9845-0.502,1.529-1.582,1.3485-2.6711c-0.84901-5.14371-3.49181-10.3688-7.0679-13.97791
	c-0.7782-0.78259-1.9732-0.9771-2.954-0.4731c-0.9822,0.5034-1.5302,1.58231-1.3473,2.67191
	c0.8478,5.1424,3.4894,10.3683,7.0656,13.9763C83.59811,148.62845,84.2509,148.88615,84.91141,148.88615z"/>
<path class="st17" d="M92.87251,115.69276c1.7308,1.5695,3.2304,3.2482,4.7344,5.2393l2.8086-1.4701
	c1.1319-0.5944,2.7023,0.0788,3.7522,2.0259l2.9798,5.4925c1.0497,1.9493,1.0497,4.1414,0,4.87099l-2.59991,1.79521
	c0.8895,2.42189,1.5706,4.894,2.0205,7.35019l3.6697,2.1147c1.4894,0.862,2.7094,3.1161,2.7094,5.0099v5.34081
	c0,1.15619-0.4487,1.92239-1.15,2.1469l-6.6093,3.8044l1.9596,3.617c1.0497,1.95,1.0497,4.1429,0,4.8739
	c-4.6701,3.2332-9.58031,5.7229-14.5466,8.5553l-2.3227-6.0974l-11.0673,6.34309l-1.8513-12.6411l10.8397,4.0482l-2.2436-1.2957
	c-1.4919-0.86261-2.7128-3.1162-2.7128-5.0134v-1.6631l-3.6439,2.3672l-11.4236-6.4953l-7.4673-22.62161l5.068-3.72099
	c-1.01141-0.63409-1.8827-1.897-2.31701-3.2324l-5.9644,7.04949l-6.061-8.90299l9.8586-5.90891l-1.9066-8.6048l12.56-7.1875
	c1.0551-0.7305,2.7814,0.2661,3.8345,2.2144l1.3215,2.4386l7.0126-4.0779v0.002c0.485-0.2908,1.1322-0.267,1.8414,0.1412
	l4.2041,2.4273c1.493,0.8626,2.7127,3.1175,2.7127,5.0139V115.69276L92.87251,115.69276z M91.151,149.97325l-11.7697-24.25549
	c-0.69559,1.3028-1.09019,3.01149-1.09019,5.06779c0,6.8488,4.37209,14.925,9.7673,18.03911
	C89.1396,149.44655,90.1779,149.82445,91.151,149.97325z"/>
<path class="st16" d="M79.21091,177.02225l-0.1408-0.032c-0.0925-0.0448-0.1591-0.13409-0.1735-0.23779l-1.84911-12.64171
	c-0.0181-0.11029,0.0258-0.2211,0.1137-0.2934c0.08701-0.07199,0.2041-0.0907,0.3101-0.05099l7.7029,2.8772
	c-1.2841-1.1019-2.2482-3.1105-2.2482-4.84019v-1.07771l-3.1547,2.0466c-0.1003,0.0643-0.2253,0.07001-0.3279,0.011
	l-11.4248-6.49469l-0.14429-0.17801l-7.4673-22.62129c-0.0428-0.12871,0.0023-0.27161,0.114-0.35271l4.714-3.46309
	c-0.7668-0.60831-1.4465-1.55281-1.8853-2.6152l-5.6123,6.6342c-0.0667,0.0737-0.1625,0.11229-0.2583,0.11229
	c-0.1015-0.0054-0.1916-0.0562-0.2457-0.13919l-6.0625-8.9048l-0.0473-0.2463l0.1488-0.2047l9.6613-5.7906l-1.8581-8.3792
	c-0.0295-0.1352,0.0326-0.2752,0.1533-0.3438l12.5601-7.1898c0.3878-0.2685,0.8952-0.3487,1.4431-0.22
	c1.0361,0.248,2.0937,1.2053,2.8287,2.5605l1.1636,2.1512l6.73-3.9146c0.60519-0.3608,1.37199-0.3101,2.1589,0.142l4.2043,2.4287
	c1.5843,0.9142,2.8718,3.28539,2.8718,5.2878v4.5099c1.5954,1.4601,3.03619,3.0475,4.50649,4.97649l2.57391-1.3473
	c1.3779-0.7225,3.0974,0.167,4.1774,2.1558l2.971,5.4915c1.1599,2.12711,1.1092,4.4481-0.0904,5.2832l-2.3902,1.65689
	c0.8399,2.34711,1.49049,4.70801,1.9202,7.0271l3.53,2.0406c1.5897,0.9153,2.8797,3.28621,2.8797,5.2852v5.34081
	c0,1.256-0.5097,2.1713-1.37,2.4491l-6.2901,3.62129l1.8108,3.34801c1.1599,2.1268,1.1092,4.4478-0.0904,5.2838
	c-3.4603,2.39641-6.971,4.34041-10.6849,6.3969c-1.2887,0.714-2.58521,1.43231-3.8852,2.173l-0.265,0.0244l-0.1883-0.18649
	l-2.1909-5.74951l-10.7458,6.158L79.21091,177.02225L79.21091,177.02225z M77.7522,164.54926l1.7045,11.6499l10.6637-6.1098
	l0.265-0.0253l0.1905,0.18739l2.1895,5.7509c1.1931-0.6792,2.3859-1.33879,3.5696-1.99579
	c3.6992-2.05031,7.1932-3.9873,10.63219-6.36411c0.9108-0.6321,0.86-2.6739-0.0992-4.4612l-1.9607-3.617
	c-0.0802-0.1508-0.0295-0.341,0.1205-0.42599l6.6103-3.8038c0.64951-0.2149,0.98991-0.90511,0.98991-1.8723v-5.34081
	c0-1.76711-1.1701-3.93469-2.5503-4.735l-3.6596-2.1149c-0.0802-0.0471-0.14-0.127-0.1601-0.2171
	c-0.4397-2.40469-1.1106-4.8609-2.0001-7.29779c-0.0496-0.13611-0.0102-0.2872,0.1102-0.36911l2.5991-1.79599
	c0.9108-0.63191,0.86-2.67511-0.0992-4.46011l-2.9801-5.4924c-0.90079-1.6699-2.2697-2.4477-3.3304-1.8952l-2.8051,1.47031
	c-0.1367,0.0686-0.3068,0.0337-0.3992-0.09151c-1.5358-2.0328-3.0274-3.6834-4.6936-5.1954l-0.1049-0.2344v-4.6508
	c0-1.7714-1.1692-3.9405-2.5526-4.7376l-4.2043-2.4287c-0.5797-0.3325-1.1186-0.3866-1.5211-0.1454l-7.0163,4.0782l-0.2457,0.0303
	l-0.19279-0.1533l-1.3204-2.4353c-0.6392-1.184-1.5647-2.044-2.4171-2.247c-0.3722-0.0881-0.6956-0.04079-0.9584,0.14091
	l-12.382,7.0849l1.8581,8.3761c0.0295,0.13409-0.0303,0.2727-0.1465,0.3427l-9.5709,5.7337l5.6372,8.28279l5.696-6.7309
	c0.0745-0.0881,0.1927-0.1309,0.3033-0.106c0.1128,0.021,0.2052,0.1029,0.2401,0.2132c0.4252,1.3087,1.2617,2.482,2.1818,3.06001
	c0.0901,0.0558,0.14539,0.1528,0.14989,0.25569c0.0032,0.10631-0.0453,0.2063-0.1298,0.2684l-4.8818,3.5858l7.3567,22.286
	l11.1496,6.33881l3.4815-2.2597c0.098-0.06299,0.2222-0.0701,0.3248-0.01309c0.1015,0.05589,0.1656,0.1619,0.1656,0.2778v1.6631
	c0,1.7683,1.1704,3.9382,2.5537,4.73779l2.245,1.2963c0.1432,0.08421,0.1996,0.26111,0.1273,0.40991
	c-0.0689,0.14999-0.2424,0.2188-0.3957,0.161L77.7522,164.54926L77.7522,164.54926z M91.151,150.29016
	c0.09811,0,0.1939-0.04651,0.2537-0.12901c0.0698-0.09459,0.0811-0.2197,0.0315-0.3268l-11.7697-24.2549
	c-0.0519-0.1072-0.1613-0.178-0.2784-0.1789c-0.1049,0.00401-0.229,0.0629-0.2863,0.16701
	c-0.7478,1.4017-1.1265,3.1558-1.1265,5.21799c0,6.9381,4.4524,15.15401,9.9241,18.3129
	c1.0947,0.63071,2.1713,1.03131,3.20319,1.1877L91.151,150.29016L91.151,150.29016z M79.3847,126.44965
	c-0.5097,1.1996-0.7758,2.6847-0.7758,4.3359c0,6.7357,4.3092,14.7061,9.6083,17.7639c0.8073,0.466,1.60101,0.7979,2.3689,0.987
	L79.3847,126.44965z"/>
<path class="st1" d="M80.2144,122.94235c1.7308,1.5704,3.3656,3.384,4.86961,5.37511l2.5909-1.7952
	c1.0553-0.7297,2.7828,0.2673,3.8378,2.2152l2.9733,5.4922c1.05531,1.9496,1.05531,4.14279,0,4.87189l-2.592,1.79601
	c0.8838,2.4202,1.5692,4.8929,2.0191,7.3488l3.6621,2.1161c1.4927,0.86119,2.7139,3.1161,2.7139,5.0099v5.34079
	c0,1.89351-1.2212,2.73911-2.7139,1.87941l-3.6621-2.11641c-0.4499,1.9384-1.1353,3.61821-2.0191,5.0182l2.592,4.7869
	c1.05531,1.94791,1.05531,4.14221,0,4.8719l-2.9733,2.0602c-1.055,0.72911-2.7825-0.2659-3.8378-2.215l-2.5909-4.78889
	c-1.50401,0.256-3.1388,0.18199-4.86961-0.246v4.65109c0,1.89471-1.22089,2.74001-2.71249,1.87991l-4.2043-2.429
	c-1.49191-0.86-2.71391-3.1161-2.71391-5.0097v-4.653c-1.7286-1.56841-3.3633-3.38431-4.8674-5.37621l-2.5931,1.79521
	c-1.0542,0.7327-2.7805-0.26541-3.8356-2.2133l-2.9732-5.49271c-1.0554-1.948-1.0554-4.1423,0-4.8725l2.5908-1.7946
	c-0.8838-2.4211-1.5681-4.8923-2.018-7.3502l-3.6632-2.11499c-1.4927-0.86-2.7127-3.1158-2.7127-5.0099v-5.3402
	c0-1.8947,1.22-2.7405,2.7127-1.8788l3.6632,2.1138c0.4499-1.9378,1.1342-3.617,2.018-5.0162l-2.5908-4.78941
	c-1.0554-1.9483-1.0554-4.1403,0-4.8708l2.9732-2.0588c1.0551-0.7316,2.7814,0.2662,3.8356,2.2156l2.5931,4.7871
	c1.5041-0.256,3.1388-0.1814,4.8674,0.248v-4.653c0-1.8953,1.222-2.74081,2.71391-1.8794l4.2043,2.4273
	c1.4916,0.8615,2.71249,3.1153,2.71249,5.0117V122.94235L80.2144,122.94235z M75.40031,131.27055
	c-5.394-3.1144-9.76511-0.0851-9.76511,6.76289c0,6.85101,4.3711,14.9281,9.76511,18.04001
	c5.39259,3.1149,9.76479,0.0867,9.76479-6.76291C85.1651,142.46225,80.7929,134.38556,75.40031,131.27055z"/>
<path class="st16" d="M90.7224,177.76926c-0.1601,0-0.3268-0.0199-0.4972-0.0621c-1.0372-0.2466-2.0959-1.2036-2.8275-2.55879
	l-2.4863-4.591c-1.38441,0.20799-2.8559,0.13719-4.37901-0.1951v4.25229c0,1.08171-0.3832,1.923-1.0496,2.30711
	c-0.6055,0.35089-1.3643,0.2959-2.1388-0.15331l-4.2054-2.4268c-1.5821-0.91499-2.8707-3.2859-2.8707-5.2858v-4.5121
	c-1.6146-1.4763-3.166-3.1842-4.6205-5.0834l-2.3428,1.62201c-0.4113,0.2863-0.9198,0.36819-1.4666,0.2361
	c-1.0375-0.24771-2.0951-1.205-2.829-2.55881l-2.973-5.49269c-1.1511-2.12741-1.1095-4.44931,0.0981-5.2832l2.3913-1.6572
	c-0.8433-2.34421-1.4905-4.7061-1.9236-7.02591l-3.5357-2.04129c-1.5828-0.91551-2.8729-3.2859-2.8729-5.28571v-5.3402
	c0-1.0817,0.3824-1.9222,1.0497-2.308c0.6032-0.3492,1.3643-0.2962,2.139,0.1542l3.2967,1.9041
	c0.4329-1.7079,1.0588-3.2327,1.8615-4.5428l-2.5041-4.62589c-1.1511-2.1266-1.1083-4.44701,0.0981-5.2835l2.9741-2.0588
	c0.4093-0.284,0.9156-0.3685,1.4647-0.2356c1.0383,0.2481,2.0959,1.2053,2.8286,2.5583l2.4874,4.5933
	c1.3834-0.203,2.856-0.1386,4.37901,0.195v-4.2528c0-1.0812,0.3821-1.9222,1.0497-2.3069c0.6043-0.3506,1.362-0.2942,2.1376,0.1545
	l4.2043,2.4276c1.5843,0.91309,2.87289,3.2831,2.87289,5.28439v4.51331c1.6158,1.476,3.1672,3.1839,4.6205,5.0825l2.34171-1.6228
	c0.4127-0.2849,0.921-0.366,1.4667-0.23701c1.0386,0.24921,2.0962,1.2059,2.8289,2.5608l2.9742,5.49211
	c1.1511,2.1272,1.1083,4.4482-0.0981,5.28299l-2.3913,1.65601c0.8433,2.3499,1.4927,4.71201,1.9224,7.02589l3.5368,2.04291
	c1.58289,0.91449,2.87289,3.2851,2.87289,5.2852v5.34079c0,1.08141-0.3846,1.92221-1.0508,2.3051
	c-0.6032,0.35211-1.3632,0.2951-2.1401-0.1528l-3.2956-1.90199c-0.4317,1.7048-1.0576,3.2301-1.8601,4.54109l2.5039,4.62561
	c1.1511,2.1282,1.1083,4.4492-0.0981,5.28349l-2.9741,2.0596C91.4093,177.66945,91.0787,177.76926,90.7224,177.76926
	L90.7224,177.76926z M85.08401,169.89145c0.1151,0,0.2231,0.0641,0.2773,0.16611l2.5922,4.78999
	c0.6393,1.1801,1.5659,2.04091,2.4194,2.24391c0.3711,0.08899,0.6945,0.04199,0.9584-0.13831l2.9744-2.05971
	c0.913-0.6321,0.8668-2.67589-0.0992-4.46199l-2.5934-4.7869c-0.0539-0.10121-0.0496-0.22421,0.0124-0.32031
	c0.8785-1.3898,1.5446-3.04579,1.9778-4.9198c0.0224-0.0981,0.0901-0.17909,0.1825-0.21939
	c0.0924-0.0394,0.1996-0.03371,0.2852,0.0173l3.6632,2.11409c0.57059,0.32961,1.105,0.38611,1.5041,0.155
	c0.4657-0.2693,0.7327-0.9113,0.7327-1.7583v-5.34079c0-1.7688-1.1678-3.93701-2.55479-4.73491l-3.6618-2.1172
	c-0.0814-0.04649-0.1378-0.1259-0.1534-0.2166c-0.4388-2.4021-1.114-4.856-2.0058-7.2961
	c-0.04961-0.13609-0.00111-0.2872,0.1171-0.36909l2.5934-1.79601c0.913-0.63271,0.8668-2.67509-0.0992-4.45999l-2.9721-5.49411
	c-0.6392-1.1801-1.5673-2.041-2.4197-2.244c-0.3742-0.0898-0.6967-0.0442-0.9581,0.1389l-2.5923,1.79639
	c-0.1397,0.09491-0.3302,0.06491-0.434-0.0701c-1.5131-2.0032-3.13651-3.797-4.8288-5.33279l-0.1026-0.23441v-4.6519
	c0-1.768-1.1716-3.9371-2.5549-4.7353l-4.2054-2.4287c-0.5707-0.3303-1.1073-0.3844-1.5052-0.1545
	c-0.46461,0.2695-0.7319,0.9099-0.7319,1.7589v4.653c0,0.097-0.044,0.18829-0.1228,0.2481
	c-0.0757,0.0621-0.1726,0.08469-0.2696,0.05869c-1.66389-0.4128-3.2595-0.4938-4.7398-0.24239
	c-0.1375,0.0247-0.2673-0.0428-0.3325-0.1602l-2.5911-4.7883c-0.6415-1.1828-1.567-2.0429-2.4183-2.2458
	c-0.3744-0.0871-0.6967-0.0428-0.9595,0.1386l-2.9732,2.0599c-0.9131,0.6324-0.8692,2.6753,0.098,4.4603l2.5934,4.7883
	c0.0553,0.10149,0.0485,0.2231-0.0113,0.32c-0.8796,1.3893-1.5446,3.0433-1.9789,4.9193c-0.0235,0.0981-0.0901,0.1791-0.1825,0.2202
	c-0.0913,0.0392-0.1973,0.0329-0.2852-0.0173l-3.6621-2.11401c-0.5728-0.3297-1.1049-0.3858-1.504-0.1551
	c-0.4669,0.2685-0.735,0.9105-0.735,1.7592v5.3402c0,1.7679,1.1701,3.9359,2.5548,4.7347l3.663,2.1152
	c0.0813,0.0482,0.1366,0.127,0.1522,0.21829c0.441,2.4077,1.1174,4.86171,2.0069,7.2975
	c0.0496,0.13521,0.0011,0.28801-0.1159,0.36911l-2.5934,1.79509c-0.9142,0.63301-0.8692,2.67711,0.098,4.46201l2.9733,5.4919
	c0.6392,1.18091,1.5673,2.04091,2.4185,2.2439c0.3742,0.09441,0.6968,0.0451,0.9584-0.14l2.5909-1.7946
	c0.1397-0.0961,0.3313-0.06839,0.4362,0.06941c1.51431,2.00609,3.1377,3.8004,4.828,5.33229l0.1035,0.23441v4.653
	c0,1.7686,1.1692,3.9368,2.5537,4.73669l4.2043,2.4279c0.574,0.32831,1.105,0.38181,1.5052,0.1534
	c0.4658-0.26929,0.7342-0.91049,0.7342-1.7592v-4.65109c0-0.09779,0.0439-0.1891,0.1205-0.25031
	c0.0779-0.0598,0.1771-0.08049,0.2707-0.0575c1.6631,0.40981,3.2584,0.49091,4.73981,0.24181L85.08401,169.89145L85.08401,169.89145
	z M79.44221,157.61635c0.9684,0,1.87489-0.23309,2.681-0.69769c2.1343-1.23331,3.3588-4.0042,3.3588-7.60811
	c0-6.9404-4.4524-15.1541-9.9229-18.31329c-2.539-1.46609-4.9845-1.66789-6.8854-0.56889
	c-2.1342,1.23219-3.3565,4.0042-3.3565,7.60509c0,6.94,4.4524,15.1571,9.9241,18.31491
	C76.7003,157.19026,78.12981,157.61635,79.44221,157.61635L79.44221,157.61635z M71.35921,130.36545
	c-0.8611,0-1.6608,0.20291-2.36971,0.6109c-1.9304,1.11601-3.0388,3.68811-3.0388,7.0571c0,6.7379,4.31039,14.70781,9.6084,17.76611
	c2.3317,1.34679,4.5504,1.5506,6.2484,0.56889c1.9315-1.1151,3.0398-3.6873,3.0398-7.05791c0-6.7383-4.3092-14.70699-9.606-17.76389
	C73.8815,130.76146,72.5611,130.36545,71.35921,130.36545z"/>
<path class="st16" d="M99.3171,163.12715l-0.3144-0.5488l12.88461-7.3551l0.3203,0.5502L99.3171,163.12715L99.3171,163.12715z
	 M94.07101,148.52246l-0.31551-0.54991l12.66261-7.24899l0.3099,0.5479L94.07101,148.52246L94.07101,148.52246z M94.6371,139.38016
	l-0.3033-0.5578l10.0638-5.453l0.2999,0.5573L94.6371,139.38016L94.6371,139.38016z M88.5568,126.55936l-0.31699-0.54881
	l10.63879-6.1157l0.3157,0.5502L88.5568,126.55936L88.5568,126.55936z M80.37341,123.21755l12.6559-7.2487l-0.3147-0.5514
	l-12.65701,7.2511L80.37341,123.21755L80.37341,123.21755z M71.7246,110.92575l-0.31689-0.55019l12.5498-7.191l0.3158,0.5514
	L71.7246,110.92575z"/>
<path class="st1" d="M102.8879,52.90845c1.4703,0.8479,2.6597,3.0013,2.6597,4.8087c0,1.8096-1.1894,2.5852-2.6597,1.7385
	c-0.6302-0.3665-1.2098-0.974-1.6699-1.6912l-3.0643,0.8975c0.2243,0.6111,0.3541,1.2424,0.3541,1.8388
	c0,0.4692-0.0802,0.8683-0.2257,1.186l2.9158,4.8121c0.46-0.2007,1.0496-0.1408,1.68999,0.2302
	c1.4703,0.849,2.6597,3.0002,2.6597,4.8098c0,1.806-1.1894,2.5852-2.6597,1.7351c-1.4704-0.8478-2.6552-3.0013-2.6552-4.8075
	c0-0.3912,0.0552-0.7328,0.1567-1.0205l-3.0104-4.9212c-0.43401,0.1261-0.9618,0.0405-1.531-0.2878
	c-1.47031-0.8478-2.65971-3.0001-2.65971-4.8084c0-1.8085,1.1894-2.5854,2.65971-1.7365c0.5908,0.3405,1.1364,0.8929,1.57719,1.5492
	l3.1028-0.9077c-0.1871-0.5635-0.2953-1.1421-0.2953-1.6866C100.2327,52.83846,101.4175,52.05946,102.8879,52.90845z"/>
<path class="st18" d="M132.0173,182.07646c-1.9191,1.10609-3.46941,4.0096-3.46941,6.48169c0,2.47301,1.55031,3.5802,3.46941,2.4713
	c1.92101-1.10579,3.47009-4.00989,3.47009-6.48199S133.93831,180.96835,132.0173,182.07646L132.0173,182.07646z M134.2677,175.08455
	c0.61-0.12729,1.19051-0.15199,1.7294-0.07509l0.94031-1.755c0.54019-1.0032,1.4207-1.5108,1.95949-1.12669l1.2303,0.87759
	c0.54001,0.38409,0.54001,1.51511,0,2.5177l-0.93939,1.7552c0.3101,0.5289,0.55049,1.13809,0.71939,1.81389l1.33061-0.7679
	c0.75969-0.4377,1.3799,0.00311,1.3799,0.98221v2.25299c0,0.981-0.62021,2.14011-1.3799,2.58011l-1.33061,0.76669
	c-0.1689,0.8728-0.40929,1.7601-0.71939,2.6405l0.93939,0.6687c0.54001,0.3821,0.54001,1.5148,0,2.51801l-1.2303,2.306
	c-0.53879,1.0029-1.4193,1.51199-1.95949,1.12709l-0.94031-0.6682c-0.53889,0.7081-1.1194,1.3522-1.7294,1.9211v1.71291
	c0,0.98-0.62019,2.1382-1.3802,2.57671l-1.73959,1.01059c-0.7699,0.43851-1.39011-0.0034-1.39011-0.98529v-1.711
	c-0.59979,0.125-1.18039,0.15109-1.72069,0.07399l-0.93911,1.754c-0.53999,1.0029-1.42039,1.5112-1.96069,1.12711l-1.23-0.8773
	c-0.5388-0.38359-0.5388-1.51599,0-2.5186l0.9403-1.75519c-0.3101-0.52811-0.5502-1.13731-0.7203-1.8119l-1.3294,0.7659
	c-0.76,0.4408-1.37991-0.0031-1.37991-0.98221v-2.2527c0-0.9791,0.6199-2.13899,1.37991-2.57809l1.3294-0.7668
	c0.1701-0.875,0.4102-1.7614,0.7203-2.6413l-0.9403-0.6698c-0.5388-0.381-0.5388-1.5135,0-2.51691l1.23-2.306
	c0.5403-1.0043,1.4207-1.5112,1.96069-1.1279l0.93911,0.6675c0.5403-0.70689,1.1209-1.35149,1.72069-1.91899v-1.715
	c0-0.9776,0.62021-2.1376,1.39011-2.57671l1.73959-1.00909c0.76001-0.43991,1.3802,0.0031,1.3802,0.9839V175.08455z"/>
</svg>
