<?xml version="1.0" encoding="UTF-8"?>
<!DOCTYPE svg PUBLIC "-//W3C//DTD SVG 1.1//EN" "http://www.w3.org/Graphics/SVG/1.1/DTD/svg11.dtd">
<!-- Creator: CorelDRAW 2019 (64-Bit) -->
<svg xmlns="http://www.w3.org/2000/svg" xml:space="preserve" width="2.26274in" height="2.94533in" version="1.1" style="shape-rendering:geometricPrecision; text-rendering:geometricPrecision; image-rendering:optimizeQuality; fill-rule:evenodd; clip-rule:evenodd"
viewBox="0 0 2262.74 2945.33"
 xmlns:xlink="http://www.w3.org/1999/xlink"
 xmlns:xodm="http://www.corel.com/coreldraw/odm/2003">
 <defs>
  <style type="text/css">
   <![CDATA[
    .str0 {stroke:#DCDDDC;stroke-width:53.33;stroke-linejoin:bevel;stroke-miterlimit:2.61313}
    .str1 {stroke:#0B7FAC;stroke-width:53.33;stroke-linejoin:bevel;stroke-miterlimit:2.61313}
    .fil22 {fill:none}
    .fil1 {fill:#FEFEFE}
    .fil3 {fill:#FAFAFA}
    .fil8 {fill:#F6BC01}
    .fil6 {fill:#F0F1EE}
    .fil15 {fill:#E3E3DF}
    .fil5 {fill:#DFDFDD}
    .fil16 {fill:#DCDDDC}
    .fil7 {fill:#D07A25}
    .fil17 {fill:#CCCAC5}
    .fil4 {fill:#B6B5B0}
    .fil18 {fill:#B6B5B0}
    .fil26 {fill:#B1DEEF}
    .fil10 {fill:#9EC428}
    .fil20 {fill:#80CDE9}
    .fil11 {fill:#8BB72F}
    .fil13 {fill:#42B4D5}
    .fil14 {fill:#3BA1BF}
    .fil9 {fill:#4B973C}
    .fil12 {fill:#0B7FAC}
    .fil19 {fill:#007EA7}
    .fil2 {fill:#FEFEFE;fill-rule:nonzero}
    .fil0 {fill:#B6B5B0;fill-rule:nonzero}
    .fil25 {fill:url(#id0)}
    .fil21 {fill:url(#id1)}
    .fil23 {fill:url(#id2)}
    .fil24 {fill:url(#id3)}
   ]]>
  </style>
  <linearGradient id="id0" gradientUnits="userSpaceOnUse" x1="730.47" y1="1262.16" x2="878.34" y2="1109.41">
   <stop offset="0" style="stop-opacity:1; stop-color:#4BBCC5"/>
   <stop offset="1" style="stop-opacity:1; stop-color:#3974A7"/>
  </linearGradient>
  <linearGradient id="id1" gradientUnits="userSpaceOnUse" xlink:href="#id0" x1="752.74" y1="1514.18" x2="975.96" y2="1505.17">
  </linearGradient>
  <linearGradient id="id2" gradientUnits="userSpaceOnUse" xlink:href="#id0" x1="729.02" y1="1453.43" x2="876.9" y2="1300.68">
  </linearGradient>
  <linearGradient id="id3" gradientUnits="userSpaceOnUse" xlink:href="#id0" x1="733.85" y1="1528.22" x2="994.85" y2="1491.12">
  </linearGradient>
 </defs>
 <g id="Layer_x0020_1">
  <metadata id="CorelCorpID_0Corel-Layer"/>
  <g id="_1131914216560">
   <g>
    <path class="fil0" d="M2018.58 1596.54l0 -18.86c-0.14,-12.14 -7.36,-22.61 -17.65,-27.6l-13.47 -7.81 90.42 -51.02c32.78,-18.46 62.92,-49.09 84.86,-83.48 21.66,-33.89 35.28,-70.72 35.42,-102.2l2.22 -611.36c0,-12.04 -1.94,-21.99 -5.7,-29.77 -2.5,-5.23 -5.84,-9.4 -9.87,-12.41l4.59 -10.27 11.81 -16.47 2.08 -3.41 0 0 -3.48 -2.02 -1008.34 -582.17 -1.8 -1.05 -5.82 -3.38 0 0.53c-9.18,-3.98 -19.59,-6.03 -30.85,-6.03 -3.74,0 -7.44,0.2 -11.28,0.63 -17.24,1.97 -36.3,8.36 -56.22,19.62l-107.36 60.46 -1.46 1.46 -2.15 3.63 -0.52 1.98 0 380.21 -28.05 101.95 0 -482.5 0.06 0 0 0c-0.03,-5.34 1.36,-10.74 4.21,-15.69l1.43 -2.52c2.76,-5.2 6.95,-9.71 12.43,-12.79l107.35 -60.46c23.16,-13.08 45.76,-20.58 66.65,-22.89 4.58,-0.53 9.06,-0.79 13.44,-0.83l0.21 0 0.97 0c17.49,0.06 33.74,3.98 47.92,11.51l2.08 1.15 1.8 1 -0.14 0.06 1006.54 581.06c1.52,0.67 2.91,1.47 4.31,2.43l0.69 0.49c15.14,9.33 27.07,22.82 35.28,40.09 7.36,15.44 11.38,33.92 11.52,55.01l0 1.67 -2.22 611.34c-0.28,43.59 -17.5,92.25 -45.13,135.53 -27.23,42.69 -65.14,81.01 -106.81,104.51l-89.99 50.69zm-62.64 -0.28l-982.84 -567.41 0.02 0 982.83 567.39 0 0.02zm-950.3 -620.84l-16.88 -9.72c-2.22,-1.3 -4.54,-2.29 -6.91,-2.98l0 -110.13c9.27,-6.61 18.24,-14.02 26.81,-22.02l0 143.16 -3.02 1.69zm-59.65 -3.13l0 -98 15.86 -8.94c4.1,-2.31 8.18,-4.81 12.19,-7.42l0 103.56c-0.3,0 -0.59,-0.02 -0.89,-0.02 -5.61,0 -11.13,1.52 -15.96,4.35l-11.2 6.47z"/>
   </g>
   <path class="fil1" d="M1097.98 652.45l0.41 -87.88 878.24 545.97 221.25 -487.3 -1009.03 -582.53 -1.82 -1.02c-24.71,-13.72 -60.54,-11.01 -100.25,11.33l-107.35 60.49 -2.13 3.67 0 368.71 -121.42 441.17 105.96 -59.71c74.54,-41.98 135.77,-137.78 136.13,-212.9z"/>
   <path class="fil0" d="M1013.52 979.97l-4.85 -2.8 0 -3.45 73.35 -41.32c36.68,-20.67 70.17,-54.63 94.47,-92.69 24.32,-38 39.45,-80 39.59,-116.79l0.42 -84.92 7.77 4.81 -0.27 80.13c-0.28,38.27 -15.85,81.76 -40.98,120.95 -24.99,39.1 -59.38,74.02 -97.2,95.33l-72.3 40.74z"/>
   <g>
    <path class="fil0" d="M1008.66 977.17l-3.02 -1.76 3.02 -1.69 0 3.46 0 -0.01zm-26.81 -14.46c-2.57,-0.75 -5.2,-1.16 -7.81,-1.24l0 -103.56c2.63,-1.7 5.23,-3.49 7.81,-5.34l0 110.13zm1207.55 -320.95l8.47 -18.54 -1009.03 -582.53 -1.82 -1.02c-9.85,-5.5 -21.66,-8.38 -34.72,-8.38 -19.42,0 -41.78,6.34 -65.53,19.71l-107.35 60.49 -2.13 3.67 0 368.71 -3.27 11.85 0 -380.21 0.52 -1.98 2.15 -3.63 1.46 -1.46 107.36 -60.46c19.92,-11.26 38.98,-17.65 56.22,-19.62 3.66,-0.4 7.19,-0.61 10.75,-0.63l0.53 0 0.53 0c11.06,0.06 21.29,2.11 30.32,6.03l0 -0.53 5.82 3.38 1.8 1.05 1008.34 582.17 3.48 2.02 -2.08 3.41 -11.81 16.47zm13.89 -19.89l0 0z"/>
   </g>
   <path class="fil0" d="M1977.88 938.43l-3.33 -2.08 -750.28 -294.33 0 0.8 -7.77 -4.81 0.14 -10.01 5.82 3.73 752.92 295.9 217.08 -302.99 -1005 -580.21 0 0 -1.66 -0.99c-9.44,-5.2 -20.56,-7.87 -32.93,-7.87 -3.32,0 -6.78,0.2 -10.29,0.58 -16.25,1.83 -34.28,7.94 -53.27,18.67l-106.39 59.96 -1.06 1.81 0 736.01c-2.59,1.85 -5.19,3.63 -7.81,5.34l0 -362.19 3.27 -11.85 0 -368.71 2.13 -3.67 107.35 -60.49c23.75,-13.37 46.11,-19.71 65.53,-19.71 13.06,0 24.87,2.88 34.72,8.38l1.82 1.02 1009.03 582.53 -8.47 18.54 -209.45 293.32 -2.08 3.35z"/>
   <path class="fil2" d="M1119.39 2945.33c-4.84,0 -9.6,-0.35 -14.24,-1.04l28.97 0c-2.76,0.39 -5.51,0.66 -8.24,0.83 -2.18,0.14 -4.35,0.21 -6.5,0.21zm-1118.33 -697.99c-0.7,-6.97 -1.06,-14.22 -1.06,-21.72l0 -689.14 0.08 0c0,-2.63 0.33,-5.24 0.98,-7.79l0 718.65z"/>
   <path class="fil0" d="M1134.12 2944.29l-28.97 0c-12.31,-1.83 -23.82,-6.06 -34.26,-12.46l0 -0.04 -1011.78 -582.86c-1.79,-0.83 -3.51,-1.86 -5.15,-2.95 -17.43,-10.92 -31.4,-27.71 -40.74,-49.41 -6.14,-14.29 -10.32,-30.8 -12.15,-49.22l0 -718.65c2,-7.83 7.06,-14.9 14.63,-19.28l930.3 -537.12 0 23.49c0.24,12.17 7.35,22.61 17.63,27.61l9.47 5.46 -910.4 525.65 0 671.13c0,18.61 2.9,34.18 8.07,46.22 4.32,10.07 10.04,17.3 16.71,21.28l2.13 1.33 1010.34 582.08c1.7,0.75 3.35,1.64 4.87,2.69 4.27,2.28 9.22,3.53 14.67,3.53 0.81,0 1.63,-0.03 2.47,-0.09 8.31,-0.52 17.71,-3.61 27.86,-9.55l703.76 -408.64c27.22,-15.79 52.63,-45.9 71.37,-81.72 19.04,-36.09 30.99,-77.27 30.99,-115.01l0 -671.51 15.69 9.07c4.59,2.72 9.72,4.08 14.72,4.2 0.28,0.01 0.55,0.01 0.83,0.01l0 0c0.28,0 0.55,0 0.83,-0.01 5.15,-0.12 10.15,-1.5 14.59,-3.97l0 0.02 15.96 -9.03 0 674.23c-0.58,47.09 -15.23,97.38 -38.18,141.16 -24.04,45.63 -57.93,84.82 -95.43,106.68l-703.75 408.62c-15.97,9.31 -31.81,14.91 -47.09,17.06zm853.2 -1402.03l-973.82 -562.29 0.02 0 973.95 562.29 -0.14 0z"/>
   <path class="fil0" d="M1987.18 1609.53l0 0c-0.28,0 -0.55,0 -0.83,-0.01l1.66 0c-0.28,0.01 -0.55,0.01 -0.83,0.01z"/>
   <path class="fil0" d="M1988.02 1609.52l-1.66 0c-5,-0.12 -10.13,-1.48 -14.72,-4.2l-15.69 -9.06 0 -0.02 -982.83 -567.39 -9.49 -5.46c-10.29,-5 -17.4,-15.44 -17.63,-27.61l0 -23.49 11.2 -6.47c4.75,-2.79 10.18,-4.31 15.69,-4.35l0.26 0 0.06 0 0.06 0 0.06 0 0.72 0.02 0 40.76 -0.02 0 5.84 -3.3 33.64 -18.96 973.82 562.29 0.14 0 13.47 7.81c10.1,4.9 17.24,15.08 17.63,26.94l0 19.53 -15.96 9.03 0 -0.02c-4.45,2.47 -9.44,3.85 -14.59,3.97zm-1006.16 -620.68l0 -26.12c2.36,0.69 4.68,1.68 6.91,2.98l16.88 9.72 -23.78 13.42z"/>
   <polygon class="fil0" points="1013.5,979.97 1008.66,977.19 1013.52,979.97 "/>
   <path class="fil0" d="M974.03 1002.24l0 0 0.02 -40.76c2.61,0.08 5.24,0.48 7.81,1.24l0 26.12 23.78 -13.42 3.02 1.76 0 0.01 4.84 2.79 -33.64 18.96 -5.82 3.3 -0.02 0z"/>
   <path class="fil3" d="M35.47 1537.19l0 689.12c0,46.87 15.83,80.22 40.73,94.74l0.11 0.07 0.03 0.01 960.01 554.6c30.54,17.65 50.91,26.49 84.36,30.08l366.61 -301.04c64.86,-37.06 117.91,-137.76 117.91,-223.8l0 -577.41 -554.15 307.32 -1015.62 -573.69z"/>
   <path class="fil4" d="M36.77 1539.43l0 685.34c0,22.46 3.66,41.65 10.3,57.06 6.72,15.69 16.5,27.35 28.47,34.28l0 0.01 0.11 0.09 0.03 0.01 0.13 0.07 0.06 0.01 0.03 0.04 1017.34 587.69 9.22 -44.98 0.36 -1.72 1.53 -0.88 381.02 -255.1c31.8,-18.12 60.7,-52.01 81.8,-91.98 21.11,-40.03 34.17,-86.06 34.17,-128.44l0 -570.63 -548.34 308.62 -1.96 1.13 -1.94 -1.13 -1012.34 -579.5zm-6.31 691.56l0.31 3.85 -1.83 -10.07c0,23.53 3.91,43.8 10.93,60.15l-2.72 -15.1 2.87 11.46 5.39 10.23 -5.51 -6.59c6.22,14.53 14.89,26.18 25.42,33.96 2.02,1.44 4.1,2.79 6.25,3.97l-5.19 -6.21 0.67 0.19 4.48 6.02 0.05 0.02 0.22 0.13 9.21 5.32 1013.03 585.18 4.68 2.73 1.1 -5.29 9.97 -48.58 379.49 -254.2c33.06,-18.91 63.06,-53.92 84.87,-95.13 21.66,-41.08 35.13,-88.43 35.13,-132.06l0 -584.19 -5.83 3.4 -552.35 310.88 -1016.27 -581.76 -5.87 -3.39 0 698.85 1.52 6.22z"/>
   <path class="fil1" d="M1053.34 2115.03l0 687.87c0,85.79 53.24,125.98 118.01,89.04l697.92 -400.43c64.72,-36.92 118.06,-137.77 118.06,-223.81l0 -689.43 -931.86 538 -2.13 -1.25z"/>
   <path class="fil4" d="M1056.19 2120.34l0 683.15c0,27.17 5.42,49.57 14.91,66.17 6.06,10.61 13.76,18.81 22.69,24.34 8.93,5.51 19.13,8.36 30.3,8.36 13.56,0 28.52,-4.22 44.2,-13.2l699.03 -401.03c31.8,-18.08 60.7,-52 81.81,-92.02 21.11,-39.99 34.17,-86.03 34.17,-128.41l0 -682.62 -926.95 535.15 -0.15 0.11zm-7.85 683.15l0 -694.65 5.89 3.41 0.16 0.07 930.86 -537.43 5.82 -3.39 0 696.21c0,43.63 -13.46,90.96 -35,132.04 -21.8,41.24 -51.8,76.28 -84.86,95.17l-699.03 401.03c-16.94,9.7 -33.24,14.28 -48.11,14.28 -12.59,0 -24.19,-3.3 -34.36,-9.57 -10.1,-6.25 -18.71,-15.38 -25.43,-27.13 -10.1,-17.74 -15.94,-41.46 -15.94,-70.03z"/>
   <polygon class="fil5" points="971.3,991.69 1987.33,1578.27 1053.49,2114.94 39.67,1529.58 "/>
   <polygon class="fil1" points="431.73,1368.27 431.82,1308.05 38.77,1533.9 1053.01,2118.93 1985.38,1581.66 1757.88,1450.32 1701.9,1474.87 1865.39,1578.25 1052.24,2047.75 293.75,1616.49 142.7,1539.76 "/>
   <path class="fil4" d="M973.95 988.71l1015.18 586.17c1.94,1.08 2.5,3.48 1.54,5.35l-1.54 1.4 0 0.01 -933.28 538.77c-1.35,0.78 -2.94,0.65 -4.1,-0.17l-1018.58 -585.16c-1.86,-1.07 -2.5,-3.48 -1.43,-5.32l1.43 -1.41 936.87 -539.63 3.91 0zm1005.45 589.53l-1007.4 -581.64 -929.08 535.1 1011 580.84 925.48 -534.29z"/>
   <path class="fil1" d="M2229.26 1305.64l2.37 -611.32c0.28,-75.12 -60.56,-102.09 -134.86,-60.21l-107.36 60.48 -2.08 3.67 0 880 105.96 -59.71c74.45,-41.96 135.7,-137.76 135.97,-212.89z"/>
   <path class="fil4" d="M2225.38 1305.63l2.22 -611.32c0.14,-18.42 -3.48,-33.81 -10.27,-45.78 -5.56,-9.77 -13.06,-17.32 -22.36,-22.37 -9.18,-5.15 -20.14,-7.83 -32.37,-7.88 -18.74,-0.09 -40.7,6.11 -64.03,19.24l-110.13 62.04 -1.11 1.85 0 872.24 104.02 -58.48c36.67,-20.68 70.14,-54.68 94.44,-92.72 24.3,-38.02 39.44,-80.03 39.59,-116.82zm10.15 -611.29l-2.22 611.32c-0.28,38.32 -15.85,81.8 -40.98,120.96 -25,39.1 -59.3,74.03 -97.22,95.36l-109.72 61.8 -5.84 3.27 0 -886.72 0.56 -1.94 2.08 -3.67 1.52 -1.43 111.12 -62.59c24.44,-13.8 47.63,-20.3 67.91,-20.22 13.47,0.06 25.7,3.07 36.11,8.83 10.41,5.79 19.03,14.33 25.28,25.4 7.36,13.11 11.4,29.75 11.4,49.61z"/>
   <polygon class="fil1" points="978.55,995.89 978.55,115.86 1987.33,698.26 1987.33,1578.27 "/>
   <path class="fil6" d="M1931.36 1551.36l-58.61 -33.71 58.61 33.71zm0 0l0 -711.3 -787.21 -456.02 3.32 209.43 0.55 497.12 708.62 417.74 74.72 43.03z"/>
   <path class="fil5" d="M1074.54 478.61l0.56 636.62 740 436.27 0 -547.61c0,-52 -31.8,-113.12 -70.7,-135.7l-669.86 -389.57z"/>
   <path class="fil4" d="M1936.64 1549.07l-7.78 -4.52 0 -767.96 -907.36 -525.81 0 820.88 -7.8 -4.51 0 -823.12c0,-2.18 1.75,-3.93 3.91,-3.93l2.18 0.69 914.91 530.13c1.24,0.74 1.94,2.04 1.94,3.4l0 774.75z"/>
   <path class="fil4" d="M972.54 994.68l0 -880.02c0,-2.18 1.75,-3.92 3.91,-3.92l2.18 0.67 1006.75 583.45c1.26,0.74 1.94,2.02 1.94,3.38l0 880.02c0,2.15 -1.66,3.94 -3.9,3.94l-2.07 -0.71 -1006.86 -583.43c-1.25,-0.72 -1.96,-2.05 -1.96,-3.38zm7.83 -873.24l0 871.02 999.17 579.04 0 -870.99 -999.17 -579.07z"/>
   <path class="fil6" d="M585.58 2108.25l-129.69 -75.36 -42.64 30.22 29.8 64.8 45.58 140 36.82 45.72c52.6,-31.41 58.93,-38.43 60.13,-83.63l0 -121.74z"/>
   <path class="fil7" d="M811.97 217.05l156.67 90.92c63.75,36.97 74.74,64.69 74.74,118.07l0 231.19c0,29.47 -10.02,50.53 -26.06,59.21l-0.28 0.14 -1.54 0.76 -82.76 40.56 -53.59 -106.17 28.53 -245.1 -144.3 -91.89 -75.06 157.25 -13.37 -220.59 89.23 -39.51c1.25,-0.63 2.54,-1.19 3.85,-1.69l0.13 -0.05 0 0.02c12.34,-4.51 27.48,-2.61 43.8,6.87z"/>
   <path class="fil8" d="M722.68 256.59l160.79 93.31c63.75,36.99 74.74,64.69 74.74,118.07l0 231.18c0,53.38 -32.84,78.81 -74.74,53.71 -11.96,-7.17 -169.2,-102.77 -171.97,-104.49 -51.33,-31.78 -63.55,-53.52 -63.55,-106.89l0 -231.2c0,-53.38 33.62,-77.56 74.73,-53.69z"/>
   <path class="fil9" d="M1156.34 190.39l156.67 90.9c63.75,37 74.72,64.72 74.72,118.09l0 408.69c0,29.45 -10,50.55 -26.12,59.21l-0.14 0.14 -1.66 0.78 -82.78 40.53 -53.48 -106.14 28.47 -422.61 -144.27 -91.89 -75.07 157.27 -13.35 -220.61 89.21 -39.49c1.25,-0.64 2.54,-1.19 3.85,-1.69l0.14 -0.06c12.32,-4.5 27.46,-2.6 43.8,6.89z"/>
   <path class="fil10" d="M1067.03 229.94l160.85 93.3c63.75,36.98 74.72,64.7 74.72,118.06l0 408.71c0,53.37 -32.92,78.8 -74.72,53.68 -11.95,-7.15 -169.25,-102.76 -172.04,-104.46 -51.32,-31.78 -63.53,-53.52 -63.53,-106.93l0 -408.67c0,-53.37 33.62,-77.55 74.71,-53.68z"/>
   <path class="fil11" d="M1302.6 739.43l0 110.57c0,53.37 -32.92,78.8 -74.72,53.68 -11.95,-7.15 -169.25,-102.76 -172.04,-104.46 -51.32,-31.78 -63.53,-53.52 -63.53,-106.93l0 -132.01 310.29 179.15z"/>
   <path class="fil4" d="M579.71 2111.62l-123.5 -71.78 -35.61 25.21 27.53 59.86 45.21 139.45 33.48 41.59c22.9,-13.75 36.04,-22.55 43.27,-32.46 7.38,-10.07 9.07,-22.23 9.61,-43.51l0 -118.37 0.02 0zm-120.87 -83.8l129.33 75.16c1.96,0.96 3.29,2.95 3.29,5.27l0 121.74 -0.03 0 0 0.15c-0.63,23.86 -2.68,37.74 -11.88,50.31 -8.9,12.12 -24.01,22.04 -50.83,38.07 -2.49,1.65 -5.91,1.15 -7.8,-1.22l-36.8 -45.7 -0.25 -0.29 -45.58 -140 0.03 0 -0.58 -0.97 -29.69 -64.53c-1.33,-2.57 -0.58,-5.78 1.83,-7.47l42.62 -30.22c1.82,-1.26 4.26,-1.44 6.34,-0.28z"/>
   <path class="fil3" d="M542.94 2134.75l-129.69 -71.64 0 137.52c0,109.58 129.69,160.37 129.69,74.37l0 -140.25z"/>
   <path class="fil4" d="M537.04 2138.18l-117.92 -65.13 0 127.57c0,49 27.05,85.61 55.83,102.22 8.36,4.83 16.87,7.98 24.79,9.12 7.57,1.12 14.58,0.43 20.33,-2.17 10.18,-4.63 16.98,-15.83 16.98,-34.83l0 -136.79zm-120.98 -80.22l129.38 71.43c1.99,0.94 3.4,3 3.4,5.33l0 140.26c0,24.25 -9.6,39.01 -23.94,45.51 -7.86,3.59 -17.08,4.55 -26.81,3.1 -9.38,-1.39 -19.31,-4.99 -28.98,-10.6 -31.79,-18.39 -61.72,-58.67 -61.72,-112.41l0 -137.5 0.03 0 0.74 -2.83c1.52,-2.8 5.07,-3.83 7.91,-2.29z"/>
   <path class="fil4" d="M1620.24 1427.7l254.87 147.18c1.8,1.08 2.49,3.48 1.38,5.35l-1.38 1.4 0 0.01 -820.93 473.97c-1.36,0.8 -2.96,0.67 -4.13,-0.13l-907.35 -515.69c-1.85,-1.09 -2.47,-3.47 -1.43,-5.33l1.43 -1.43 250.89 -143.88 0 8.93 -241.12 138.32 899.77 511.35 813.14 -469.5 -245.15 -141.47 0 -9.07z"/>
   <path class="fil12" d="M1975.8 1402.73l85.83 -49.02 3.33 -1.87 0.97 -0.58 0 -0.08c14.03,-9.44 22.5,-26.67 22.65,-50.52l1.52 -841.71c0,-55.62 -44.99,-126.87 -100.41,-158.64l-455.15 -261.23c-42.62,-24.46 -64.15,-15.33 -97.49,3.94l-60.28 34.15 344.87 493.6 254.17 831.94z"/>
   <path class="fil13" d="M1344.82 973.43l1.52 -841.89c0,-55.62 45.98,-75.45 101.39,-43.68l455.84 261.59c55.42,31.77 100.41,103.06 100.27,158.68l-1.52 841.88c0,55.63 -45.98,75.45 -101.39,43.68l-455.83 -261.58c-55.42,-31.78 -100.43,-103.02 -100.28,-158.68z"/>
   <path class="fil14" d="M1344.82 973.43l0.55 -311.47 308.35 179.46c24.72,14.39 46.67,39.9 61.93,69.43 15,28.81 24.3,62.24 24.3,93.32l0 297.18 -294.85 -169.24c-55.42,-31.78 -100.43,-103.02 -100.28,-158.68z"/>
   <path class="fil1" d="M816.27 425.93c6.37,5.78 12.39,12.45 17.93,19.78l9.54 -6.61c3.89,-2.71 10.26,0.98 14.14,8.16l10.93 20.23c3.89,7.16 3.89,15.24 0,17.91l-9.55 6.63c3.26,8.93 5.78,18.02 7.45,27.06l13.48 7.8c5.5,3.18 9.99,11.44 9.99,18.44l0 19.65c0,6.97 -4.5,10.08 -9.99,6.92l-13.48 -7.78c-1.67,7.14 -4.2,13.31 -7.45,18.48l9.55 17.62c3.89,7.19 3.89,15.25 0,17.93l-10.93 7.58c-3.88,2.71 -10.26,-0.95 -14.14,-8.16l-9.54 -17.6c-5.54,0.93 -11.56,0.66 -17.93,-0.91l0 17.11c0,6.98 -4.5,10.09 -9.99,6.94l-15.47 -8.97c-5.52,-3.16 -10.01,-11.45 -10.01,-18.43l0 -17.11c-6.37,-5.78 -12.4,-12.5 -17.91,-19.81l-9.56 6.61c-3.88,2.69 -10.26,-0.98 -14.11,-8.14l-10.98 -20.22c-3.87,-7.19 -3.87,-15.28 0,-17.94l9.55 -6.61c-3.24,-8.93 -5.78,-18.01 -7.42,-27.07l-13.5 -7.77c-5.5,-3.18 -9.99,-11.49 -9.99,-18.46l0 -19.67c0,-6.97 4.5,-10.08 9.99,-6.92l13.5 7.81c1.64,-7.16 4.18,-13.34 7.42,-18.51l-9.55 -17.62c-3.87,-7.17 -3.87,-15.25 0,-17.94l10.98 -7.56c3.85,-2.71 10.22,0.95 14.11,8.14l9.56 17.63c5.51,-0.94 11.54,-0.66 17.91,0.91l0 -17.11c0,-6.98 4.49,-10.1 10.01,-6.95l15.47 8.96c5.5,3.18 9.99,11.46 9.99,18.46l0 17.13zm-17.73 30.66c19.86,11.46 35.96,41.18 35.96,66.41 0,25.21 -16.1,36.39 -35.96,24.91 -19.85,-11.46 -35.95,-41.21 -35.95,-66.43 0,-25.21 16.1,-36.38 35.95,-24.9z"/>
   <path class="fil1" d="M1529.96 984.53l-985.68 -573.6c-20.25,-11.79 -33.89,-11.33 -52.04,-0.12l-33.56 20.7c-27.84,17.18 -39.37,25.35 -39.39,65.85l-0.64 936.4c-0.02,52.02 31.76,113.14 70.61,135.72l737.49 377.47 373.76 -215.82 0 -610.88c0,-52.01 -31.68,-113.11 -70.56,-135.72z"/>
   <path class="fil1" d="M1488.01 574.35l348.75 202.19 0 34.61 -348.75 -202.16 0 -34.64zm0 355.06l348.75 202.18 0 34.62 -348.75 -202.16 0 -34.64zm348.75 24.37l-348.75 -204.32 0 34.64 348.75 204.32 0 -34.64zm0 -89.57l-348.75 -204.2 0 34.61 348.75 204.23 0 -34.64zm-348.75 -24.56l348.75 202.19 0 34.61 -348.75 -202.18 0 -34.63zm348.75 -240.92l-157.22 -93.8 0 34.62 157.22 93.78 0 -34.61zm0 -88.35l-157.22 -94.24 0 34.65 157.22 94.2 0 -34.62zm-157.22 84.76l157.22 91.62 0 34.64 -157.22 -91.64 0 -34.62z"/>
   <path class="fil15" d="M1680.37 862.09c13.63,13.58 25.84,30.39 35.28,48.76 1.67,3.01 3.19,6.14 4.59,9.27l-232.23 -136.04 0 -34.64 192.36 112.64zm58.49 123c0.83,6.42 1.1,12.8 1.1,19.07l0 16.19 -251.95 -146.08 0 -34.63 250.85 145.45zm1.1 90.4l0 34.61 -251.95 -146.06 0 -34.64 251.95 146.09z"/>
   <path class="fil4" d="M1514.27 1011.59l-985.67 -573.6c-5.23,-3.07 -8.75,-4.54 -10.98,-4.54 -1.94,0 -4.81,1.33 -8.96,3.9l-33.57 20.75c-10.59,6.54 -17.98,11.21 -20.83,15.34 -2.58,3.76 -3.74,10.7 -3.74,23.93l-0.63 1063.21c-0.03,20.78 6.61,43.93 17.3,64.45 10.21,19.67 23.66,36 37.76,44.17l362.92 212 -62.45 36.06 -331.84 -193.91 -86.14 -53.17 0.61 -1172.81c0.05,-27.23 4.64,-44.68 14.78,-59.41 9.87,-14.33 22.2,-22.35 39.43,-33l33.57 -20.75c14.02,-8.61 26.96,-13.14 41.5,-13.22 14.2,-0.08 27.62,4.13 42.61,12.82l985.71 573.65c24.73,14.39 46.52,39.9 61.95,69.42 15,28.83 24.3,62.26 24.3,93.36l0 592.74 -62.78 36.24 0 -628.99c0,-20.95 -6.53,-44.08 -17.08,-64.47 -10.27,-19.65 -23.6,-36 -37.77,-44.19z"/>
   <path class="fil3" d="M1529.96 984.53l-985.83 -573.3c-24.15,-14.03 -39.7,-7.61 -55.86,2.26l-45.04 26.68 25.89 34.95 176.89 778.54c8.39,51.33 37.32,105.56 70.62,135.68l609.17 500.45 274.72 -158.65 0 -610.88c0,-52.01 -31.68,-113.13 -70.56,-135.72z"/>
   <path class="fil4" d="M1528.02 987.93l-985.87 -573.32c-11.24,-6.51 -20.35,-8.33 -28.5,-7.33 -8.19,1 -15.67,4.84 -23.33,9.54l-0.05 0.03 -41.32 24.48 23.32 31.5 0.72 1.69 176.87 778.53c4.1,24.98 13.15,50.69 25.26,73.9 12.28,23.65 27.7,44.65 44.15,59.53l610.13 501.26 -7.2 4.08 -608.18 -499.6c-17.18,-15.51 -33.21,-37.26 -45.85,-61.66 -12.46,-23.9 -21.8,-50.45 -26.03,-76.29l-176.71 -777.61 -25.31 -34.19 -2.6 -3.49 3.76 -2.19 45 -26.68c8.49,-5.19 16.82,-9.49 26.45,-10.63 9.71,-1.16 20.46,0.86 33.35,8.39l985.82 573.29c20.14,11.68 38.33,33.17 51.39,58.36 13.06,25.15 21.11,54.09 21.11,80.72l0 608.62 -7.78 4.5 0 -613.12c0,-25.4 -7.78,-53.07 -20.28,-77.11 -12.5,-23.98 -29.58,-44.32 -48.32,-55.22z"/>
   <path class="fil1" d="M1475.51 1017.54l-986.24 -573.58c-38.85,-22.61 -70.61,1.41 -70.61,53.43l0 1189.49 383 218.46 250.58 142.42 493.97 -285.22 0 -609.26c0,-52.02 -31.8,-113.12 -70.7,-135.72z"/>
   <path class="fil16" d="M547.71 889.54l348.63 202.19 0 34.26 -348.63 -202.18 0 -34.28zm519.12 300.78l345.07 200.11 0 34.27 -345.07 -200.12 0 -34.26zm-519.12 50.64l348.63 202.19 0 34.27 -348.63 -202.19 0 -34.26zm519.12 300.79l345.07 200.11 0 34.26 -345.07 -200.09 0 -34.28zm345.07 24.12l-345.07 -202.26 0 34.27 345.07 202.24 0 -34.25zm-515.57 -301.3l-348.63 -204.39 0 34.26 348.63 204.39 0 -34.26zm515.57 212.63l-345.07 -202.13 0 34.28 345.07 202.11 0 -34.26zm-515.57 -301.14l-348.63 -204.26 0 34.28 348.63 204.24 0 -34.26zm-348.63 -23.94l348.63 202.18 0 34.27 -348.63 -202.19 0 -34.26zm519.12 300.78l345.07 200.11 0 34.26 -345.07 -200.08 0 -34.29zm345.07 -238.45l-345.07 -202.27 0 34.28 345.07 202.26 0 -34.26zm-515.57 -301.3l-348.63 -204.4 0 34.28 348.63 204.39 0 -34.26zm515.57 213.83l-345.07 -202.66 0 34.29 345.07 202.67 0 -34.3zm-515.57 -301.77l-348.63 -204.82 0 34.3 348.63 204.81 0 -34.28zm-348.63 -24.51l348.63 202.19 0 34.26 -348.63 -202.18 0 -34.28zm519.12 300.77l345.07 200.11 0 34.28 -345.07 -200.09 0 -34.29z"/>
   <path class="fil4" d="M1473.57 1020.93l-986.26 -573.6c-9.3,-5.4 -18.1,-7.97 -26.01,-7.97 -6.25,0 -11.93,1.59 -16.9,4.65 -5.03,3.07 -9.38,7.67 -12.85,13.62 -5.7,9.8 -8.98,23.3 -8.98,39.79l0 1056.45c0,25.37 7.77,53.04 20.3,77.1 12.48,23.95 29.6,44.3 48.36,55.24 195.33,119.9 306.31,193.24 -3.92,6.75 -20.07,-11.65 -38.26,-33.18 -51.36,-58.38 -13.07,-25.11 -21.22,-54.07 -21.22,-80.7l0.03 -1056.45c0,-17.91 3.65,-32.7 10.04,-43.69 4.1,-7.11 9.4,-12.64 15.54,-16.38 6.22,-3.8 13.31,-5.79 20.97,-5.79 9.27,0 19.4,2.9 29.93,9.02l986.22 573.58c20.14,11.7 38.33,33.2 51.54,58.41 13.06,25.12 21.11,54.06 21.11,80.69l0 606.98 -7.78 4.55 0 -611.53c0,-25.4 -7.78,-53.06 -20.42,-77.11 -12.35,-23.99 -29.58,-44.33 -48.32,-55.23z"/>
   <path class="fil1" d="M1481.07 410.06c4.17,10.71 2.77,21.86 -3.48,24.9 -6.11,3.02 -14.72,-3.23 -19.02,-13.97l-23.48 -58.5c-3.88,-9.66 -5.13,-19.54 -4.02,-27.69 1.11,-8.13 4.59,-14.53 10.13,-17.26l33.76 -16.44c6.11,-3.05 14.58,3.21 18.89,13.95 4.44,10.74 2.91,21.88 -3.33,24.92l-31.52 15.37 22.08 54.72zm97.92 102.8c-6.11,3 -14.59,-3.23 -19.02,-13.97 -4.31,-10.73 -2.77,-21.88 3.46,-24.91l31.54 -15.38 -22.08 -54.68c-4.31,-10.76 -2.79,-21.91 3.46,-24.93 6.12,-3 14.74,3.23 19.04,13.98l23.46 58.47c3.9,9.68 5.15,19.57 4.02,27.7 -1.09,8.15 -4.57,14.55 -10.13,17.27l-33.75 16.44zm-71.25 -10.6c-3.2,7.98 -11.4,8.16 -18.2,0.37 -6.81,-7.76 -9.72,-20.56 -6.53,-28.53l62.37 -157.78c3.19,-7.97 11.38,-8.16 18.18,-0.39 6.81,7.78 9.72,20.56 6.53,28.53l-62.35 157.8z"/>
   <path class="fil1" d="M1180.24 389.74c20.42,11.78 36.94,41.69 36.94,66.79 0,25.13 -16.52,35.91 -36.94,24.15 -8.75,-5.09 -16.8,-13.53 -23.19,-23.49l-42.56 12.46c3.11,8.49 4.92,17.26 4.92,25.54 0,6.52 -1.11,12.06 -3.13,16.47l40.5 66.83c6.39,-2.79 14.58,-1.96 23.47,3.2 20.42,11.79 36.94,41.67 36.94,66.8 0,25.08 -16.52,35.91 -36.94,24.1 -20.42,-11.78 -36.88,-41.69 -36.88,-66.77 0,-5.43 0.77,-10.18 2.18,-14.17l-41.81 -68.35c-6.03,1.75 -13.36,0.56 -21.26,-4 -20.42,-11.78 -36.94,-41.67 -36.94,-66.78 0,-25.12 16.52,-35.91 36.94,-24.12 8.2,4.73 15.78,12.4 21.91,21.52l43.09 -12.61c-2.6,-7.83 -4.1,-15.86 -4.1,-23.43 0,-25.12 16.46,-35.94 36.88,-24.15z"/>
   <path class="fil17" d="M1584.82 2183.75c-26.65,15.36 -48.19,55.69 -48.19,90.02 0,34.35 21.53,49.72 48.19,34.32 26.68,-15.36 48.2,-55.69 48.2,-90.03 0,-34.33 -21.52,-49.71 -48.2,-34.32zm31.26 -97.11c8.47,-1.77 16.54,-2.11 24.02,-1.04l13.06 -24.37c7.5,-13.93 19.73,-20.98 27.22,-15.65l17.09 12.19c7.5,5.33 7.5,21.04 0,34.97l-13.05 24.38c4.31,7.35 7.65,15.81 9.99,25.19l18.48 -10.67c10.55,-6.08 19.17,0.04 19.17,13.64l0 31.29c0,13.63 -8.61,29.72 -19.17,35.83l-18.48 10.65c-2.35,12.12 -5.69,24.44 -9.99,36.67l13.05 9.29c7.5,5.31 7.5,21.04 0,34.97l-17.09 32.03c-7.48,13.93 -19.71,21 -27.22,15.65l-13.06 -9.28c-7.48,9.83 -15.55,18.78 -24.02,26.68l0 23.79c0,13.61 -8.61,29.7 -19.17,35.79l-24.16 14.04c-10.69,6.09 -19.31,-0.05 -19.31,-13.69l0 -23.76c-8.33,1.74 -16.39,2.1 -23.9,1.03l-13.04 24.36c-7.5,13.93 -19.73,20.99 -27.23,15.65l-17.08 -12.19c-7.48,-5.33 -7.48,-21.06 0,-34.98l13.06 -24.38c-4.31,-7.33 -7.64,-15.8 -10,-25.17l-18.46 10.64c-10.56,6.12 -19.17,-0.04 -19.17,-13.64l0 -31.29c0,-13.6 8.61,-29.71 19.17,-35.81l18.46 -10.65c2.36,-12.15 5.7,-24.46 10,-36.69l-13.06 -9.3c-7.48,-5.29 -7.48,-21.02 0,-34.96l17.08 -32.03c7.5,-13.95 19.73,-20.99 27.23,-15.67l13.04 9.27c7.5,-9.82 15.57,-18.77 23.9,-26.65l0 -23.82c0,-13.58 8.61,-29.69 19.31,-35.79l24.16 -14.02c10.56,-6.11 19.17,0.04 19.17,13.67l0 23.8z"/>
   <path class="fil18 str0" d="M507.12 906.01l212.5 -110.33c83.22,-37.46 165,-20.33 247.21,16.87l127.59 61.87 -1.56 207.76 236.55 126.37 4.26 184.45 -214.69 111.47 210.45 117.99 0.05 179.57 -221.01 114.76 -38.03 -15.5 -129.65 67.32 -72.1 37.44 -124.71 -58.03c-218.19,-101.53 -408.1,-330.06 -384.44,-712.45 10.38,-167.87 71.28,-261.77 110.89,-301.16 12.66,-12.59 21.53,-20.52 36.68,-28.39z"/>
   <polygon class="fil18" points="1217.25,1356.61 1306.26,1374.12 1306.26,1438.33 1211.41,1485.75 "/>
   <path class="fil19 str1" d="M431.15 978.42l207.06 -107.51c81.1,-36.5 153.33,-22.29 233.45,13.96l124.33 60.29 -1.52 202.45 233.19 113.1 1.46 189.77 -209.2 108.62 205.08 99.46 0.05 204.3 -215.36 111.83 -37.05 -15.11 -196.59 102.07 -121.52 -56.54c-212.61,-98.93 -397.66,-335.43 -374.61,-708.05 10.12,-163.58 76.9,-252.59 115.5,-290.98 12.34,-12.27 20.98,-20 35.75,-27.66z"/>
   <g>
    <path class="fil20" d="M402.64 995.15l215.36 -111.82c81.1,-36.5 153.33,-22.29 233.45,13.95l124.32 60.3 -215.36 111.82 -124.33 -60.3c-80.11,-36.24 -149.9,-49.02 -233.45,-13.95z"/>
    <polygon class="fil21" points="757.45,1463.12 972.81,1351.3 971.26,1556.22 755.9,1668.05 "/>
    <polygon class="fil22" points="757.45,1463.12 972.81,1351.3 971.26,1556.22 755.9,1668.05 "/>
    <polygon class="fil23" points="633.12,1402.82 848.47,1290.99 972.81,1351.3 757.45,1463.12 "/>
    <polygon class="fil24" points="758.89,1271.85 974.25,1160.03 969.82,1747.5 754.45,1859.32 "/>
    <polygon class="fil22" points="758.89,1271.85 974.25,1160.03 969.82,1747.5 754.45,1859.32 "/>
    <polygon class="fil13" points="989.47,1973.3 1204.83,1861.48 1206.27,1670.2 990.91,1782.02 "/>
    <polygon class="fil25" points="634.56,1211.55 849.91,1099.73 974.25,1160.03 758.89,1271.85 "/>
    <polygon class="fil13" points="760.41,1069.4 975.77,957.58 968.3,1949.94 752.93,2061.76 "/>
    <path class="fil12" d="M649.47 999.98l121.45 61.39 -15.17 1003.74 -121.45 -61.39c-209.3,-105.79 -396,-321.6 -372.95,-694.22 17.05,-275.54 178.82,-415.32 388.12,-309.52z"/>
    <path class="fil1" d="M767.82 1266.14l-8.98 594.21 -121.45 -61.39c-141.25,-71.39 -223.25,-247.56 -220.78,-410.97 2.47,-163.41 105.86,-245.86 229.76,-183.23l121.45 61.39z"/>
    <path class="fil12" d="M764.9 1459.6l-3.13 207.28 -121.45 -61.39c-54.04,-27.32 -77.88,-86.36 -77.02,-143.36l0 0c0.86,-57 36.93,-85.76 80.15,-63.92l121.45 61.39z"/>
    <polygon class="fil20" points="990.9,1783.51 1206.25,1671.69 971.23,1557.71 758.88,1667.09 "/>
    <path class="fil26" d="M797.21 1289.69c19.34,-9.01 32,-6.79 51.27,1.31l124.33 60.3 -215.36 111.82 -124.33 -60.3c-15.93,-6.69 -25.7,-9.16 -41.85,-5.08 5.24,-3.06 10.39,-6.2 15.8,-9.02l190.14 -99.03z"/>
    <polygon class="fil13" points="993.55,1574.71 1208.91,1462.9 1210.35,1271.62 994.99,1383.44 "/>
    <polygon class="fil20" points="997.38,1383.74 1209.25,1274 974.25,1160.03 766.68,1266.89 "/>
    <path class="fil12" d="M767.82 1266.14l-2.93 193.46 229.56 116.04 2.93 -193.46 -229.56 -116.04zm-6.06 400.74l-2.93 193.46 230.45 117.37 2.04 -194.79 -229.56 -116.04z"/>
   </g>
   <polygon class="fil18" points="1251.29,1804.72 1302.9,1783.81 1301.4,1908 1050.02,2053.81 952.43,2000.06 973.93,1988.7 1000.02,1999.23 1021.72,1998.5 1237.24,1886.23 1251.75,1863.42 "/>
   <polygon class="fil16" points="1301.82,1830.92 1355.72,1799.51 1354.48,1873.75 1301.21,1904.64 "/>
  </g>
 </g>
</svg>
