<?xml version="1.0" encoding="utf-8"?>
<!-- Generator: Adobe Illustrator 24.0.1, SVG Export Plug-In . SVG Version: 6.00 Build 0)  -->
<svg version="1.1" id="Layer_1" xmlns="http://www.w3.org/2000/svg" xmlns:xlink="http://www.w3.org/1999/xlink" x="0px" y="0px"
	 viewBox="0 0 182 240" style="enable-background:new 0 0 182 240;" xml:space="preserve">
<style type="text/css">
	.st0{fill-rule:evenodd;clip-rule:evenodd;fill:#BBBABA;}
	.st1{fill-rule:evenodd;clip-rule:evenodd;fill:#FFFFFF;}
	.st2{fill-rule:evenodd;clip-rule:evenodd;fill:#F8F8F8;}
	.st3{fill-rule:evenodd;clip-rule:evenodd;fill:#D3D2D0;}
	.st4{fill-rule:evenodd;clip-rule:evenodd;fill:#E6E6E4;}
	.st5{fill-rule:evenodd;clip-rule:evenodd;fill:#F0F1EF;}
	.st6{fill-rule:evenodd;clip-rule:evenodd;fill:#DCDCDB;}
	.st7{fill-rule:evenodd;clip-rule:evenodd;fill:#E2E1E2;}
	.st8{fill-rule:evenodd;clip-rule:evenodd;fill:#6E6E6E;}
	.st9{fill-rule:evenodd;clip-rule:evenodd;fill:#9B9B9B;}
	.st10{fill-rule:evenodd;clip-rule:evenodd;fill:#CE7611;}
	.st11{fill-rule:evenodd;clip-rule:evenodd;fill:#F6BB00;}
	.st12{fill-rule:evenodd;clip-rule:evenodd;fill:none;stroke:#6E6E6E;stroke-width:0.9601;stroke-miterlimit:10;}
	.st13{fill-rule:evenodd;clip-rule:evenodd;fill:#D8D9D9;}
	.st14{fill-rule:evenodd;clip-rule:evenodd;fill:#502E74;}
	.st15{fill-rule:evenodd;clip-rule:evenodd;fill:#6A3E90;}
	.st16{fill-rule:evenodd;clip-rule:evenodd;fill:#09789F;}
	.st17{fill-rule:evenodd;clip-rule:evenodd;fill:#3AB2D4;}
	.st18{fill-rule:evenodd;clip-rule:evenodd;fill:#FFFFFF;stroke:#502E74;stroke-width:2.4001;stroke-miterlimit:2.6131;}
	.st19{fill-rule:evenodd;clip-rule:evenodd;fill:#946DAB;}
	.st20{fill-rule:evenodd;clip-rule:evenodd;fill:none;stroke:#6E6E6E;stroke-width:0.9601;stroke-miterlimit:2.6131;}
	.st21{fill-rule:evenodd;clip-rule:evenodd;fill:#C81143;}
	.st22{fill-rule:evenodd;clip-rule:evenodd;fill:#E43E65;}
	.st23{fill-rule:evenodd;clip-rule:evenodd;fill:#E3F1FA;}
	.st24{fill-rule:evenodd;clip-rule:evenodd;fill:#38B9E5;}
</style>
<title>Group</title>
<g id="Hk0fKR.tif">
</g>
<path class="st0" d="M171.28,121.95l-7.49,4.16c-0.63,0.42-1.46,0.42-2.18,0L90.67,85.13c-0.73-0.31-1.25-1.15-1.25-1.98V19.39
	c0-0.42,0.1-0.73,0.31-1.14l0.1-0.21c0.21-0.42,0.52-0.73,0.83-0.94l7.59-4.27c1.66-0.94,3.23-1.46,4.68-1.67
	c1.66-0.21,3.12,0.11,4.37,0.73c0.1,0,0.1,0.1,0.1,0.1l0.1,0.1l70.84,40.99c0.1,0,0.21,0.1,0.31,0.21c1.04,0.63,1.87,1.56,2.5,2.81
	c0.52,1.14,0.83,2.5,0.83,3.95l-0.21,44.84c0,3.12-1.25,6.55-3.23,9.57C176.9,117.58,174.3,120.29,171.28,121.95L171.28,121.95z
	 M162.75,121.74l6.35-3.64c2.29-1.35,4.47-3.43,5.93-5.93c1.56-2.39,2.5-4.99,2.5-7.18l0.21-44.83c0-0.83-0.1-1.56-0.42-2.08
	c-0.21-0.42-0.52-0.73-0.83-1.04l-0.1-0.1l-70.84-40.99c-0.1,0-0.21-0.1-0.31-0.1c-0.52-0.21-1.04-0.31-1.77-0.21
	c-0.94,0.1-1.87,0.42-3.02,1.04l-6.55,3.74V81.9L162.75,121.74z"/>
<path class="st1" d="M100.13,59.02v-6.24l61.89,38.49l15.6-36.1l-71.05-41.09l-0.1-0.1c-1.77-0.94-4.26-0.73-7.07,0.83l-7.59,4.27
	l-0.1,0.21v60.75V66.82C96.8,63.91,100.13,64.32,100.13,59.02z"/>
<path class="st0" d="M109.08,58.29v5.72c0,2.7-1.14,5.72-2.91,8.53c-1.77,2.81-4.16,5.2-6.87,6.76l-7.49,4.16l-0.42,0.21V17.51
	l0.1-0.21l0.1-0.1l7.59-4.27c1.35-0.83,2.71-1.25,3.95-1.35c1.14-0.1,2.08,0,2.91,0.42l0.42,0.21l0.1,0.11l71.05,41.09l0.21,0.1
	l-0.1,0.21l-15.6,25.38l-0.1,0.21l-0.21-0.1L109.08,58.29L109.08,58.29z M108.45,64.01v-6.76l0.42,0.31l53.05,20.91l15.29-24.96
	l-70.74-40.88l-0.1-0.1c-0.83-0.42-1.87-0.62-3.02-0.52c-1.14,0.1-2.39,0.52-3.74,1.35l-7.49,4.26l-0.1,0.1v65.02l7.07-3.95
	c2.6-1.46,4.99-3.85,6.66-6.55C107.41,69.53,108.45,66.61,108.45,64.01z"/>
<path class="st0" d="M13.27,172.51v-51.49c0-0.83,0.42-1.56,1.14-1.98l70.32-40.57c0.73-0.42,1.56-0.42,2.39,0l75.52,43.69
	c0.83,0.42,1.35,1.14,1.35,2.08v51.49c0,3.54-1.14,7.39-2.81,10.82c-1.77,3.43-4.37,6.35-7.07,8.01l-52.53,30.58
	c-1.46,0.83-2.81,1.25-4.16,1.35c-1.46,0.1-2.91-0.21-4.06-1.04l-75.52-43.58c-0.1-0.11-0.31-0.11-0.42-0.21
	c-1.35-0.83-2.39-2.08-3.02-3.64C13.58,176.36,13.27,174.48,13.27,172.51L13.27,172.51z M17.95,122.37v50.14
	c0,1.35,0.21,2.6,0.62,3.43c0.31,0.73,0.73,1.25,1.25,1.56c0.1,0,0.1,0.1,0.21,0.1l75.42,43.48c0.1,0.1,0.21,0.1,0.31,0.21
	c0.42,0.21,0.83,0.31,1.25,0.21c0.62,0,1.35-0.31,2.08-0.73l52.53-30.48c1.98-1.14,3.95-3.43,5.31-6.14
	c1.46-2.7,2.29-5.83,2.29-8.64v-50.14L85.88,82.94L17.95,122.37z"/>
<path class="st2" d="M15.98,121.02v51.49c0,3.54,1.14,6.03,3.02,7.07l71.67,41.4c2.29,1.35,3.85,1.98,6.35,2.29l27.36-22.47
	c4.89-2.81,8.84-10.3,8.84-16.75v-43.17l-41.4,22.99L15.98,121.02z"/>
<path class="st0" d="M132.8,184.06c0,3.12-0.94,6.66-2.6,9.57c-1.56,3.02-3.74,5.51-6.14,6.86l-28.4,19.04l-0.1,0.1v0.1l-0.73,3.33
	l-75.94-43.9c-0.94-0.52-1.66-1.35-2.08-2.6c-0.52-1.14-0.73-2.6-0.73-4.27v-51.18l75.52,43.27l0.1,0.1l0.1-0.1l40.88-23.09
	L132.8,184.06L132.8,184.06z M15.46,172.4l0.1,0.42v0.31L15.46,172.4L15.46,172.4z M133,140.68l-41.19,23.2l-75.83-43.48l-0.42-0.21
	v52.22c0,1.77,0.31,3.23,0.83,4.47l-0.21-1.14l0.21,0.83l0.42,0.73l-0.42-0.52c0.42,1.04,1.14,1.98,1.87,2.5
	c0.1,0.1,0.31,0.21,0.42,0.31l-0.42-0.42h0.1l0.31,0.42l0.73,0.42l75.63,43.69l0.31,0.21l0.1-0.41l0.73-3.64l28.29-19.04
	c2.5-1.46,4.68-4.06,6.35-7.07c1.66-3.12,2.6-6.55,2.6-9.88v-43.69L133,140.68z"/>
<path class="st1" d="M91.92,164.19v51.39c0,6.45,3.95,9.47,8.84,6.66l52.12-29.96c4.78-2.81,8.84-10.3,8.84-16.75v-51.49
	l-69.59,40.15H91.92z"/>
<path class="st0" d="M91.5,215.68v-51.91l0.42,0.21l69.9-40.36v52.01c0,3.23-1.04,6.76-2.6,9.88c-1.66,3.12-3.85,5.72-6.35,7.07
	l-52.22,29.96c-1.25,0.73-2.5,1.04-3.64,1.04c-0.94,0-1.77-0.21-2.6-0.73c-0.73-0.42-1.35-1.14-1.87-1.98
	C92.02,219.53,91.5,217.76,91.5,215.68L91.5,215.68z M92.12,164.6v51.08c0,2.08,0.42,3.74,1.14,4.99c0.42,0.83,1.04,1.46,1.66,1.87
	c0.62,0.42,1.46,0.62,2.29,0.62c1.04,0,2.08-0.31,3.33-0.94l52.22-29.96c2.39-1.35,4.58-3.85,6.14-6.87c1.56-3.02,2.6-6.45,2.6-9.57
	v-50.97L92.12,164.6z"/>
<polygon class="st3" points="85.78,80.34 161.61,124.14 91.92,164.19 16.19,120.5 "/>
<path class="st4" d="M140.18,116.34l13,7.59l-13,7.38c0.62-1.56,1.35-4.06,1.35-7.28C141.64,120.7,140.81,118,140.18,116.34z"/>
<polygon class="st1" points="54.15,103.44 54.15,98.96 16.19,120.81 91.92,164.5 161.51,124.34 144.55,114.57 140.39,116.44 
	152.56,124.14 91.6,159.09 35.33,126.95 25.55,120.5 "/>
<path class="st0" d="M160.99,124.14L85.78,80.66L16.39,120.6l75.42,43.38L160.99,124.14L160.99,124.14z M85.99,80.13l75.73,43.79
	c0.1,0.1,0.21,0.21,0.1,0.42l-0.1,0.1l-69.7,40.26c-0.1,0.1-0.21,0-0.31,0l-76.04-43.69c-0.1-0.1-0.21-0.21-0.1-0.42l0.1-0.1
	l69.9-40.36C85.78,80.03,85.88,80.03,85.99,80.13z"/>
<path class="st1" d="M179.82,105.1l0.21-44.83c0-5.31-4.27-7.18-9.47-4.27l-7.59,4.27l-0.1,0.21v63.87l7.49-4.16
	C175.45,117.06,179.82,110.3,179.82,105.1z"/>
<path class="st0" d="M180.23,60.16L180.02,105c0,2.7-1.14,5.72-2.91,8.53c-1.77,2.7-4.16,5.2-6.87,6.76l-7.7,4.37l-0.42,0.21V60.47
	l0.1-0.21l0.1-0.1l7.8-4.37c1.77-0.94,3.33-1.46,4.79-1.46c0.94,0,1.77,0.21,2.5,0.62c0.73,0.42,1.35,1.04,1.77,1.77
	C180.02,57.56,180.23,58.81,180.23,60.16L180.23,60.16z M179.61,105.1l0.21-44.83c0-1.25-0.21-2.39-0.73-3.23
	c-0.42-0.73-0.94-1.25-1.56-1.56c-0.62-0.31-1.46-0.52-2.29-0.52c-1.35,0-2.91,0.42-4.47,1.35l-7.8,4.37l-0.1,0.1v63.14l7.28-4.16
	c2.6-1.46,4.89-3.85,6.66-6.55C178.46,110.61,179.5,107.6,179.61,105.1z"/>
<polygon class="st1" points="91.71,83.26 91.71,19.39 162.75,60.47 162.75,124.24 "/>
<polygon class="st5" points="158.8,121.33 158.8,62.35 94.52,25.11 94.83,42.27 94.83,84.71 152.77,118.52 158.7,121.85 "/>
<path class="st6" d="M88.9,54.13V81.7l60.23,34.74V96.88c0-4.16-2.6-9.15-5.83-11.03L88.9,54.13z"/>
<polygon class="st7" points="109.08,33.53 94.52,25.11 94.83,42.27 94.83,84.71 152.77,118.52 158.7,121.85 158.8,121.33 
	158.8,71.4 109.08,42.58 "/>
<path class="st0" d="M159.22,122.16l-0.52-0.31v-59.5L94.83,25.31v59.61l-0.52-0.31V24.9c0-0.1,0.1-0.31,0.31-0.31
	c0.1,0,0.1,0,0.1,0l64.39,37.34c0.1,0,0.1,0.1,0.1,0.21V122.16z"/>
<path class="st0" d="M91.92,19.8v63.14l70.32,40.78V60.58L91.92,19.8L91.92,19.8z M91.29,83.15V19.28c0-0.1,0.1-0.31,0.31-0.31
	c0.1,0,0.1,0,0.21,0l70.94,41.09c0.1,0,0.1,0.1,0.1,0.21v63.77c0,0.1-0.1,0.31-0.31,0.31c-0.1,0-0.1,0-0.1,0L91.5,83.26
	C91.39,83.36,91.29,83.26,91.29,83.15z"/>
<path class="st5" d="M56.96,163.77l-9.67-5.62l-3.23,2.29l2.18,4.89l3.43,10.51l2.7,3.43c3.95-2.39,4.37-2.91,4.47-6.24
	L56.96,163.77z"/>
<path class="st0" d="M47.5,157.74l9.67,5.62c0.1,0.1,0.21,0.21,0.21,0.42v9.15c0,1.77-0.21,2.81-0.94,3.75
	c-0.62,0.93-1.77,1.66-3.74,2.81c-0.21,0.1-0.42,0.1-0.62-0.1l-2.7-3.43l-3.43-10.51c0,0,0,0,0-0.1l-2.18-4.79
	c-0.1-0.21,0-0.42,0.1-0.52l3.23-2.29C47.18,157.63,47.39,157.63,47.5,157.74L47.5,157.74z M56.55,163.98l-9.26-5.41l-2.7,1.87
	l2.08,4.47l3.33,10.4l2.5,3.12c1.66-1.04,2.7-1.66,3.22-2.39c0.52-0.73,0.73-1.66,0.73-3.22L56.55,163.98z"/>
<path class="st2" d="M53.84,165.75l-9.67-5.31v10.3c0,8.22,9.67,11.96,9.67,5.51V165.75z"/>
<path class="st0" d="M53.32,176.15c0,1.46-0.52,2.29-1.25,2.6c-0.52,0.21-1.04,0.31-1.56,0.21c-0.62-0.1-1.25-0.42-1.87-0.73
	c-2.18-1.25-4.16-3.95-4.16-7.59v-9.57l8.84,4.89V176.15L53.32,176.15z M44.38,160.03c-0.21-0.21-0.52-0.11-0.52,0.1
	c-0.1,0.1-0.1,0.1-0.1,0.21v10.3c0,4.06,2.18,7.07,4.58,8.43c0.73,0.42,1.46,0.73,2.18,0.83c0.73,0.1,1.35,0.1,1.98-0.21
	c1.04-0.52,1.77-1.66,1.77-3.43v-10.51c0-0.21-0.1-0.31-0.21-0.42L44.38,160.03z"/>
<path class="st0" d="M91.39,158.47L25.55,120.5l8.71-5.07l17.48-10.08c0-0.21,0.1-0.52,0.21-0.73l-27.12,15.67
	c-0.1,0.1-0.21,0.21-0.1,0.42l0.1,0.1l66.47,38.28c0.1,0.1,0.21,0,0.31,0l58.88-33.5v-0.73L91.39,158.47z"/>
<path class="st8" d="M142.89,80.34L69.34,37.49c-0.42-0.21-0.62-0.31-0.83-0.31c-0.1,0-0.31,0.11-0.63,0.31l-2.5,1.56
	c-0.83,0.52-1.35,0.83-1.56,1.14c-0.21,0.31-0.31,0.83-0.31,1.77v90.29l44.57,16.99l-3.4,1.96l-14.43-8.34l-22.16-9.57
	c-5.2-3.02-9.26-7.07-9.26-15.29V42.06c0-2.08,0.31-3.33,1.14-4.47c0.73-1.04,1.66-1.66,2.91-2.5l2.5-1.56
	c1.04-0.62,1.98-0.94,3.12-0.94c1.04,0,2.08,0.31,3.22,0.94l73.44,42.86c1.87,1.04,3.43,3.02,4.68,5.2
	c1.14,2.19,1.77,4.68,1.77,6.97v35.78l-4.68,2.71V88.46c0-1.56-0.52-3.33-1.25-4.79C144.86,82.22,143.93,80.97,142.89,80.34z"/>
<path class="st9" d="M144.03,78.37L70.49,35.51c-1.77-1.04-3.02-0.52-4.16,0.21L63,37.69l1.98,2.6l13.21,80.93
	c0.62,3.85,2.81,7.91,5.31,10.09l33.71,12.81l32.25-18.51V88.46C149.34,84.61,146.94,80.03,144.03,78.37z"/>
<path class="st8" d="M143.93,78.57L70.28,35.72c-0.83-0.52-1.56-0.63-2.08-0.52c-0.63,0.1-1.14,0.41-1.77,0.73l-3.12,1.87l1.77,2.39
	l0.1,0.1l13.21,80.93c0.31,1.87,0.94,3.74,1.87,5.51c0.94,1.77,2.08,3.33,3.33,4.47l37.87,10.61l-0.52,0.31l-37.76-10.51
	c-1.25-1.14-2.5-2.81-3.43-4.58c-0.94-1.77-1.66-3.74-1.98-5.72L64.56,40.4l-1.87-2.6l-0.21-0.21l0.31-0.21l3.33-1.98
	c0.62-0.42,1.25-0.73,1.98-0.83c0.73-0.1,1.56,0.1,2.5,0.63l73.54,42.86c1.46,0.83,2.81,2.5,3.85,4.37
	c0.94,1.87,1.56,4.06,1.56,6.03v37.38l-0.62,0.31V88.46c0-1.87-0.62-3.95-1.56-5.72C146.53,80.97,145.28,79.41,143.93,78.57z"/>
<path class="st1" d="M139.97,80.76L66.33,37.9c-2.91-1.66-5.3,0.1-5.3,3.95v97.06l42.23,12.87l16.12-9.05l25.8-14.25V90.95
	C145.28,87.1,142.89,82.53,139.97,80.76z"/>
<path class="st8" d="M139.87,81.07L66.22,38.21c-0.73-0.42-1.35-0.62-1.98-0.62c-0.42,0-0.94,0.1-1.25,0.31
	c-0.42,0.21-0.73,0.52-0.94,1.04c-0.42,0.73-0.62,1.77-0.62,3.02v86.13c0,4.89,1.04,8.95,7.18,12.9l-6.03-2.6l-1.66-1.87V41.96
	c0-1.35,0.31-2.39,0.73-3.23c0.31-0.52,0.73-0.93,1.14-1.25c0.42-0.31,1.04-0.42,1.56-0.42c0.73,0,1.46,0.21,2.19,0.62l73.65,42.86
	c1.46,0.83,2.81,2.5,3.85,4.37c0.94,1.87,1.56,4.06,1.56,6.03v37.12l-0.62,0.31V90.95c0-1.87-0.62-3.95-1.56-5.72
	C142.47,83.36,141.22,81.9,139.87,81.07z"/>
<path class="st0" d="M91.39,158.47L25.55,120.5l3.23-1.87V118l-3.95,2.29c-0.1,0.1-0.21,0.21-0.1,0.42l0.1,0.1l66.47,38.28
	c0.09,0.05,0.21,0.05,0.31,0l60.02-34.12v-0.73L91.39,158.47z"/>
<path class="st10" d="M153.8,14.2c-4.68-2.6-8.84-2.91-11.65-1.46l-2,0.9c-0.37,0.12-0.72,0.27-1.06,0.44l-7.39,3.33l1.66,3.85
	c-0.94,2.19-1.25,4.89-1.25,7.91c0,13.73,8.32,29.65,18.83,35.78c0.62,0.31,1.04,0.62,1.66,0.94l2.33,4.24
	c0,0,10.81-4.96,11.13-5.06c4.06-2.19,6.55-7.59,6.55-15.08C172.63,36.26,164.3,20.34,153.8,14.2z"/>
<path class="st11" d="M143.22,19.08c10.51,6.14,18.83,22.05,18.83,35.78c0,13.73-8.53,19.87-18.83,13.94
	c-10.51-6.14-18.83-22.05-18.83-35.79C124.18,19.08,132.6,12.94,143.22,19.08z"/>
<line class="st12" x1="145.25" y1="96.22" x2="61.02" y2="47.26"/>
<path class="st13" d="M92.53,75.18c-1.84-1.06-3.47-0.81-4.99,0.17l-3.29,2.14l-14.05-8c-1.72-0.99-3.46-1.08-4.81-0.32l-3.89,1.88
	l1.06,44.79l54.17,28.22l16.78-9.47V112.4c0-5.06-2.48-8.24-5.54-10.01l-18.45-10.51L107,86.2c-1.44-3.26-5.21-5.44-7.24-6.69
	L92.53,75.18z"/>
<path class="st14" d="M111.03,147.71l16.78-9.47v-21.19c0-5.06-2.48-8.24-5.54-10.01L64.5,74.16c-1.72-0.99-3.46-1.08-4.81-0.32
	c-0.77,0.44-10.37,5.14-11.17,5.77l0.55,41.06L111.03,147.71z"/>
<path class="st15" d="M91.08,158.98l25.57-14.89V122.9c0-5.06-2.48-8.24-5.54-10.01L53.35,80c-3.06-1.77-6.45-1.09-6.45,3.97v48.97
	L91.08,158.98z"/>
<g>
	<path class="st16" d="M102.35,111.63l7.29,4.21c0.94,0.53,1.74,2.07,1.74,3.41v3.41c0,0.67-0.2,1.14-0.54,1.4
		c-0.33,0.27-1,0.8-1.67,1.2l-6.75-5.41c-0.94-0.54-1.74-2.07-1.74-3.41l-1.07-3.68c0.4-0.33,1.07-0.8,1.54-1.14
		C101.48,111.43,101.88,111.37,102.35,111.63z"/>
	<path class="st17" d="M100.81,112.77l7.29,4.21c0.94,0.53,1.74,2.07,1.74,3.41v3.41c0,1.34-0.8,1.94-1.74,1.4l-7.29-4.21
		c-0.94-0.53-1.74-2.07-1.74-3.41v-3.41C99.07,112.84,99.81,112.17,100.81,112.77z"/>
</g>
<path class="st18" d="M80.73,102.41c9.46,4.86,17.51,19.22,17.98,32.08c0.47,12.85-6.82,19.33-16.28,14.47
	c-9.46-4.86-17.51-19.22-17.98-32.08C63.98,104.03,71.27,97.55,80.73,102.41z"/>
<g>
	<path class="st19" d="M81.1,104c-4.11-2.28-7.77-2.56-10.24-1.28l-1.75,0.79c-0.32,0.11-0.64,0.23-0.93,0.38l-6.49,2.93l1.46,3.38
		c-0.82,1.92-1.1,4.3-1.1,6.95c0,12.07,7.31,26.05,16.54,31.45c0.55,0.27,0.91,0.55,1.46,0.82l2.04,3.73c0,0,9.5-4.36,9.78-4.45
		c3.57-1.92,5.76-6.67,5.76-13.25C97.64,123.38,90.33,109.4,81.1,104z"/>
	<path class="st1" d="M71.8,108.29c9.23,5.39,16.55,19.38,16.55,31.44c0,12.07-7.5,17.46-16.55,12.25
		c-9.23-5.39-16.54-19.38-16.54-31.45C55.07,108.29,62.47,102.9,71.8,108.29z"/>
</g>
<path class="st15" d="M70.39,120.56c3.38,1.9,6.13,7.24,6.13,11.93c0,4.69-2.74,6.96-6.13,5.06c-3.38-1.9-6.13-7.24-6.13-11.93
	C64.27,120.93,67.01,118.66,70.39,120.56z"/>
<path class="st15" d="M60.04,76.6l2.6,1.51c0.71,0.41,1.39,1.57,1.39,2.59l0.06,2.69l-2.22,1.61l-2.53-2.7l-2.58-4.34l1.72-1.22
	C58.92,76.41,59.53,76.39,60.04,76.6z"/>
<path class="st19" d="M57.72,77.96l2.85,1.7c0.8,0.57,1.36,1.48,1.33,2.6l0,2.66l-5.5-3.16c0-0.04,0-0.09,0-0.13v-2.6
	C56.4,78.02,56.96,77.51,57.72,77.96z"/>
<path class="st14" d="M86.84,79.84c-1.84-1.06-3.47-0.81-4.99,0.17l-10.56,6.86l38.19,21.74l0.05-3.8c-2.88-2.7-3.49-3.23-5.69-8.22
	l-2.54-5.74c-1.44-3.26-5.21-5.44-7.24-6.69L86.84,79.84z"/>
<path class="st15" d="M84.91,87.68l5.03,3.11c2.03,1.25,3.98,3.79,5.41,7.06l2.49,5.66c0.45,1.03,0.97,1.93,1.54,2.71L69.22,89.04
	c1.04,0.16,1.99-0.18,2.76-1.01l2.49-2.68c1.43-1.55,3.38-1.76,5.41-0.58L84.91,87.68z"/>
<line class="st20" x1="145.23" y1="96.19" x2="151.14" y2="92.77"/>
<g>
	<g>
		<path class="st21" d="M30.69,107.61l7.49-4.06c1.14-0.73,1.77-2.08,1.77-3.95l0.1-21.64c0-4.27-3.54-9.88-7.8-12.27l-16.96-9.57
			c-3.33-1.87-5.1-1.25-7.59,0.31l-5.62,2.91l15.81,23.51L30.69,107.61z"/>
		<path class="st22" d="M0,85.04L0.1,63.4c0-4.26,3.64-5.82,7.91-3.43l16.96,9.57c4.27,2.39,7.91,8.01,7.8,12.27l-0.1,21.64
			c0,4.26-3.64,5.83-7.91,3.43L7.8,97.32C3.54,94.82,0,89.31,0,85.04z"/>
	</g>
	<path class="st1" d="M12.07,70.99l13.58,16.93c0.47,0.59,0.64,1.38,0.36,1.77c-0.09,0.13-0.22,0.2-0.37,0.2l-6.78,0.54
		c-0.02,0-0.04,0-0.06,0l-6.74,0.54c-0.47,0.04-1.08-0.5-1.35-1.21c-0.09-0.23-0.13-0.45-0.13-0.64l0,0v-18
		c0-0.63,0.44-0.88,0.99-0.56C11.75,70.65,11.92,70.81,12.07,70.99L12.07,70.99z"/>
</g>
<g>
	<g>
		<path class="st16" d="M170.79,183.63l5.58-3.22c0.13,0,0.13-0.12,0.25-0.12h0.11c0.88-0.62,1.5-1.74,1.5-3.35l0.13-39.44
			c0-3.59-2.98-8.31-6.57-10.41l-29.88-17.11c-2.85-1.61-4.21-0.99-6.44,0.25l-3.97,2.23l22.56,32.35L170.79,183.63z"/>
		<path class="st17" d="M129.38,155.39l0.13-39.34c0-3.6,2.98-4.96,6.69-2.85l29.88,17.11c3.59,2.11,6.57,6.82,6.57,10.41
			l-0.13,39.34c0,3.59-2.98,4.96-6.69,2.85l-29.88-17.11C132.36,163.69,129.38,158.98,129.38,155.39z"/>
	</g>
	<g>
		<path class="st1" d="M141.86,154.26c0-3.98,0-7.96,0-11.93c0.16-2.59,1.16-4.74,3.15-6.4c0.51-0.65,1.01-1.3,1.52-1.95
			c0.52-0.62,0.57-2.04,0.17-4.21c-0.15-0.68-0.15-1.28,0.39-1.59c1.03-0.33,1.99,0.27,2.85,2.02c1.31,2.7,1.45,5.1,1.22,7.4
			c-0.22,1.03-0.44,2.06-0.66,3.1c-0.18,0.6-0.41,1.18-0.71,1.72c2.33,1.29,4.65,2.57,6.98,3.85c2.96,1.65,2.4,6.22,0.77,5.77
			c1.72,1.63,1.77,5.61-0.17,5c1.65,2.37,1.08,4.8-0.34,4.54c1.2,2.41,0.54,4.46-0.96,3.72c-3.85-2.13-7.71-4.26-11.56-6.39
			C142.86,158.2,141.77,156.88,141.86,154.26z"/>
	</g>
</g>
<g>
	<path class="st23" d="M85.15,139.28c0.19-0.14,1.88-1.28,2.1-1.44c1.48-1.09,2.35-0.97,3.78-0.14l33.74,19.38
		c1.73,0.98,3.14,3.68,3.14,5.97v26.66c0.12,1.49-0.56,2.94-1.79,3.8c-0.89,0.6-1.99,1.32-2.61,1.63h-1.49L87.1,175.32h-0.04
		l-0.13-0.1l-0.06-0.05l-0.05-0.05v-0.15c-0.63-1.11-0.97-2.35-1-3.62v-29.46C85.14,141.19,84.9,140.2,85.15,139.28L85.15,139.28z"
		/>
	<path class="st24" d="M87.26,139.92l-0.38,0.26v0.19l-0.98,0.46l-0.06,0.12c-0.11,0.28-0.16,0.59-0.15,0.89v27.51
		c0,0.46,0.07,0.91,0.2,1.35c0.14,0.5,0.34,0.98,0.59,1.43c0,0.09,0.1,0.18,0.14,0.27v0.07l0.05,0.09c0.07,0.12,0.14,0.2,0.22,0.31
		l0.26,0.3l0.08,0.09v0.05l0.07,0.06l0.13,0.13l0.15,0.12l0.19,0.12l34.3,19.68c0.11,0.06,0.23,0.1,0.36,0.14l0.12-0.06
		c0.4-0.2,1.17-0.71,1.91-1.19l0.5-0.33c0.35-0.21,0.62-0.53,0.8-0.89c0.18-0.46,0.27-0.95,0.25-1.44v-26.61
		c-0.03-0.94-0.27-1.86-0.71-2.68c-0.35-0.72-0.88-1.34-1.55-1.79l-33.59-19.36c-0.3-0.21-0.64-0.35-1-0.41
		c-0.34,0.06-0.65,0.22-0.9,0.45l-1.02,0.71L87.26,139.92L87.26,139.92z M83.41,138.45c0.23-0.24,0.5-0.44,0.79-0.6l2.01-1.39
		c0.83-0.69,1.86-1.08,2.93-1.12c0.98,0.04,1.93,0.35,2.75,0.89l33.74,19.34c1.24,0.78,2.24,1.88,2.89,3.18
		c0.71,1.31,1.09,2.78,1.13,4.27v26.66c0.01,0.97-0.18,1.93-0.55,2.82c-0.43,1-1.15,1.84-2.07,2.42l-0.5,0.33
		c-0.78,0.5-1.58,1.03-2.17,1.34c-0.11,0.07-0.22,0.12-0.34,0.17c-0.19,0.08-0.35,0.11-0.54,0.19c-0.23,0.05-0.46,0.09-0.7,0.11
		h-0.2c-0.2,0-0.43,0-0.63-0.06l-0.41-0.09h-0.22l-0.39-0.16c-0.1-0.05-0.2-0.1-0.29-0.15h-0.1c-7.82-4.47-19.35-10.43-28.13-15.9
		c-2.58-1.6-5.06-2.79-6.98-4.36l-0.14-0.12l-0.09-0.08l-0.05-0.05l-0.13-0.21h-0.05l-0.08-0.09c-0.33-0.33-0.63-0.69-0.89-1.06
		l-0.12-0.15l-0.13-0.22l-0.2-0.33l-0.1-0.17c-0.38-0.69-0.68-1.42-0.89-2.18c-0.21-0.73-0.32-1.49-0.33-2.25v-27.53
		c-0.01-0.8,0.15-1.6,0.47-2.33c0.18-0.4,0.42-0.76,0.72-1.07L83.41,138.45z"/>
	<path class="st23" d="M123.46,195.12l-32.97-21.94c-1.82-1.47-2.96-3.64-3.14-5.97l-2.21-27.92c0.19-0.14,1.88-1.28,2.1-1.44
		c1.48-1.09,2.36-0.97,3.78-0.14l33.74,19.38c1.73,0.98,3.14,3.68,3.14,5.97v26.66c0.12,1.49-0.56,2.94-1.79,3.8
		c-0.89,0.6-1.99,1.32-2.6,1.63L123.46,195.12z"/>
	<path class="st24" d="M90.65,172.99l32.83,21.81c0.49-0.27,1.23-0.74,1.92-1.2l0.51-0.34c0.59-0.37,1.05-0.91,1.32-1.55
		c0.26-0.64,0.39-1.32,0.37-2.01v-26.68c-0.03-1.17-0.34-2.31-0.89-3.34c-0.47-0.97-1.2-1.8-2.11-2.38l-33.72-19.36
		c-0.52-0.35-1.11-0.56-1.73-0.61c-0.64,0.05-1.24,0.3-1.73,0.73l-0.98,0.67l-1,0.69l2.19,27.8c0.11,1.17,0.45,2.31,1.01,3.35
		c0.47,0.95,1.17,1.78,2.03,2.4L90.65,172.99L90.65,172.99z M123.3,195.35l-32.97-21.9c-0.93-0.68-1.68-1.57-2.19-2.6
		c-0.59-1.11-0.96-2.33-1.07-3.58l-2.23-28.07l0.12-0.1c0.1-0.08,0.64-0.45,1.15-0.8c0.51-0.35,0.89-0.58,0.96-0.65
		c0.58-0.5,1.31-0.8,2.08-0.84c0.72,0.04,1.42,0.28,2.02,0.68l33.74,19.33c1,0.64,1.81,1.54,2.33,2.61c0.59,1.1,0.92,2.33,0.96,3.58
		v26.66c0.02,0.77-0.13,1.53-0.42,2.24c-0.32,0.74-0.86,1.36-1.54,1.79l-0.51,0.33c-0.79,0.52-1.61,1.06-2.13,1.32l-0.15,0.07
		l-0.13-0.1L123.3,195.35z"/>
	<path class="st1" d="M121.37,194.98L87.1,175.32c-1.93-1.38-3.1-3.59-3.14-5.97v-27.48c0-2.29,1.41-3.35,3.14-2.36l34.27,19.68
		c1.92,1.38,3.08,3.58,3.13,5.94v27.49C124.51,194.91,123.09,195.98,121.37,194.98z"/>
	<path class="st24" d="M87.24,175.07l34.26,19.68c0.33,0.21,0.7,0.33,1.09,0.34c0.25,0,0.49-0.07,0.7-0.2
		c0.22-0.14,0.41-0.33,0.54-0.56c0.28-0.52,0.41-1.1,0.39-1.69v-27.5c-0.03-1.17-0.34-2.31-0.89-3.34c-0.47-0.97-1.2-1.79-2.1-2.38
		l-34.27-19.68c-0.33-0.2-0.7-0.32-1.09-0.33c-0.24-0.01-0.49,0.06-0.7,0.19c-0.22,0.14-0.41,0.33-0.54,0.56
		c-0.27,0.53-0.4,1.12-0.38,1.72v27.48c0.03,1.17,0.34,2.31,0.89,3.34C85.61,173.66,86.34,174.48,87.24,175.07L87.24,175.07
		L87.24,175.07z M121.22,195.23l-34.27-19.68c-1-0.64-1.8-1.54-2.33-2.61c-0.59-1.1-0.92-2.33-0.96-3.58v-27.49
		c-0.02-0.69,0.14-1.37,0.46-1.98c0.18-0.31,0.43-0.58,0.73-0.77c0.3-0.18,0.65-0.28,1-0.28c0.49,0.02,0.97,0.16,1.39,0.41
		l34.26,19.68c1,0.64,1.8,1.55,2.33,2.61c0.6,1.1,0.93,2.33,0.97,3.58v27.48c0.02,0.69-0.14,1.37-0.46,1.98
		c-0.17,0.32-0.43,0.58-0.73,0.77c-0.3,0.18-0.64,0.28-0.99,0.28C122.12,195.62,121.64,195.48,121.22,195.23L121.22,195.23z"/>
	<polygon class="st1" points="104.93,181.66 103.02,184.16 100.57,184.67 91.16,191.18 91.16,179.91 90.37,176.9 91.16,174.5 
		104.37,174.5 	"/>
	<path class="st24" d="M99.17,184.43l-7.03,4.85v-9.26c0-1.36-0.75-2.61-1.95-3.26v14.4c-0.02,0.37,0.19,0.72,0.52,0.9
		c0.14,0.07,0.3,0.11,0.46,0.11c0.2,0,0.39-0.06,0.55-0.18l11.31-7.83C101.15,183.02,100.23,183.7,99.17,184.43z"/>
	<g>
		<path class="st24" d="M96.5,157.72c1.57,1.08,2.54,2.83,2.61,4.74c0,1.79-1.17,2.55-2.61,1.72c-1.58-1.08-2.54-2.84-2.61-4.75
			C93.88,157.64,95.06,156.88,96.5,157.72z"/>
		<path class="st24" d="M103.81,162c1.57,1.08,2.54,2.84,2.61,4.74c0,1.79-1.17,2.56-2.61,1.72c-1.59-1.06-2.59-2.81-2.68-4.71
			c0-1.79,1.17-2.55,2.61-1.71L103.81,162z"/>
		<path class="st24" d="M111.07,166.51c1.56,1.08,2.52,2.84,2.58,4.74c0,1.79-1.17,2.55-2.61,1.72c-1.56-1.09-2.52-2.85-2.58-4.76
			C108.46,166.42,109.63,165.66,111.07,166.51L111.07,166.51z"/>
	</g>
</g>
<g>
	<g>
		<path class="st1" d="M143.21,29.68L143.21,29.68c2.04,1.18,3.71,4.36,3.71,7.08V48.3c0,2.72-1.67,3.98-3.71,2.8h0
			c-2.04-1.18-3.71-4.36-3.71-7.08V32.48C139.5,29.76,141.17,28.5,143.21,29.68z"/>
		<path class="st1" d="M148.69,50.36c0-0.97,0.6-1.41,1.35-0.98c0.74,0.43,1.35,1.57,1.35,2.54c0,2.94-0.92,5.08-2.4,6.16
			c-1.48,1.08-3.52,1.1-5.77-0.2v0.01c-2.25-1.3-4.29-3.68-5.77-6.47c-1.48-2.79-2.4-5.99-2.4-8.94c0-0.97,0.6-1.41,1.35-0.98
			c0.74,0.43,1.35,1.57,1.35,2.54c0,1.97,0.62,4.12,1.61,5.99c0.99,1.87,2.36,3.47,3.87,4.34v0.01c1.5,0.87,2.87,0.85,3.87,0.12
			C148.07,53.77,148.69,52.33,148.69,50.36z"/>
		<path class="st1" d="M141.85,55.3c0-0.97,0.6-1.41,1.35-0.98c0.74,0.43,1.35,1.57,1.35,2.54v6.51c0,0.97-0.6,1.41-1.35,0.98
			c-0.74-0.43-1.35-1.57-1.35-2.54V55.3z"/>
	</g>
</g>
<g>
	<polygon class="st8" points="105.38,73.04 98.53,56.64 109.93,63.27 116.78,79.66 	"/>
	<polygon class="st8" points="127.68,85.99 120.83,69.62 132.23,76.25 139.07,92.61 	"/>
	<polygon class="st8" points="83.32,60.22 76.46,43.8 87.86,50.43 94.72,66.84 	"/>
	<path class="st8" d="M65.12,37.4l6.76,16.18l-10.9-6.33l0.04-5.39C61.02,38.55,62.78,36.78,65.12,37.4z"/>
</g>
</svg>
