<svg xmlns="http://www.w3.org/2000/svg" xmlns:xlink="http://www.w3.org/1999/xlink" x="0px" y="0px"
	 width="94.863px" height="48px" viewBox="0.554 -12 94.863 48" enable-background="new 0.554 -12 94.863 48" xml:space="preserve">
<g enable-background="new    ">
	<path d="M0.554,4.804H5.22c2.126,0,3.669,0.303,4.629,0.907c0.96,0.605,1.441,1.568,1.441,2.886c0,0.896-0.21,1.631-0.63,2.205
		c-0.421,0.574-0.979,0.92-1.677,1.035v0.104c0.95,0.211,1.636,0.607,2.056,1.189c0.421,0.58,0.631,1.354,0.631,2.315
		c0,1.367-0.494,2.435-1.481,3.199c-0.988,0.767-2.33,1.148-4.025,1.148h-5.61V4.804z M3.732,10.74h1.846
		c0.861,0,1.485-0.133,1.871-0.398c0.386-0.268,0.58-0.709,0.58-1.324c0-0.574-0.21-0.984-0.63-1.234
		c-0.421-0.25-1.085-0.375-1.995-0.375H3.732V10.74z M3.732,13.264v3.906h2.071c0.875,0,1.521-0.166,1.938-0.502
		c0.417-0.334,0.625-0.848,0.625-1.539c0-1.242-0.889-1.865-2.666-1.865H3.732z"/>
	<path d="M23.84,19.795l-1.087-3.568h-5.465l-1.087,3.568h-3.425l5.291-15.052h3.886l5.312,15.052H23.84z M21.995,13.561
		c-1.005-3.231-1.571-5.061-1.697-5.485c-0.127-0.422-0.217-0.758-0.272-1.004c-0.226,0.875-0.872,3.039-1.938,6.49H21.995z"/>
	<path d="M35.52,7.234c-1.196,0-2.123,0.449-2.779,1.348c-0.656,0.9-0.984,2.152-0.984,3.758c0,3.344,1.254,5.016,3.763,5.016
		c1.053,0,2.328-0.264,3.825-0.791v2.666C38.114,19.744,36.74,20,35.222,20c-2.181,0-3.849-0.66-5.004-1.984
		c-1.155-1.322-1.733-3.221-1.733-5.695c0-1.559,0.284-2.924,0.851-4.096c0.567-1.173,1.382-2.072,2.445-2.698
		c1.062-0.625,2.309-0.938,3.738-0.938c1.456,0,2.919,0.352,4.389,1.056l-1.025,2.583c-0.561-0.266-1.125-0.498-1.692-0.697
		C36.624,7.334,36.066,7.234,35.52,7.234z"/>
	<path d="M54.592,19.795h-3.609l-3.926-6.316l-1.343,0.965v5.353h-3.179V4.804h3.179v6.86l1.25-1.764l4.061-5.096h3.527
		l-5.229,6.633L54.592,19.795z"/>
	<path d="M70.086,12.279c0,2.48-0.615,4.389-1.846,5.721c-1.23,1.334-2.994,2-5.291,2s-4.061-0.666-5.291-2
		c-1.23-1.332-1.846-3.246-1.846-5.742c0-2.494,0.615-4.4,1.851-5.715c1.233-1.316,3.002-1.974,5.306-1.974
		c2.305,0,4.066,0.663,5.286,1.989C69.477,7.885,70.086,9.791,70.086,12.279z M59.145,12.279c0,1.676,0.318,2.936,0.953,3.784
		c0.637,0.848,1.586,1.271,2.853,1.271c2.534,0,3.804-1.685,3.804-5.055c0-3.377-1.261-5.066-3.783-5.066
		c-1.266,0-2.219,0.426-2.861,1.277C59.468,9.34,59.145,10.605,59.145,12.279z"/>
	<path d="M83.549,9.48c0,1.613-0.504,2.848-1.513,3.702c-1.009,0.854-2.442,1.28-4.302,1.28h-1.363v5.332h-3.18V4.804h4.789
		c1.817,0,3.201,0.392,4.147,1.174C83.075,6.761,83.549,7.928,83.549,9.48z M76.371,11.859h1.046c0.978,0,1.709-0.193,2.194-0.58
		c0.484-0.387,0.728-0.949,0.728-1.688c0-0.744-0.203-1.295-0.608-1.65c-0.407-0.355-1.045-0.533-1.912-0.533h-1.446L76.371,11.859
		L76.371,11.859z"/>
	<path d="M95.229,15.633c0,1.354-0.486,2.42-1.461,3.199S91.438,20,89.701,20c-1.6,0-3.016-0.301-4.245-0.902v-2.953
		c1.012,0.451,1.868,0.771,2.567,0.953c0.701,0.187,1.343,0.277,1.924,0.277c0.697,0,1.232-0.133,1.604-0.4
		c0.373-0.266,0.561-0.662,0.561-1.188c0-0.293-0.082-0.556-0.246-0.783s-0.405-0.448-0.725-0.662
		c-0.316-0.211-0.966-0.549-1.941-1.016c-0.917-0.431-1.604-0.844-2.062-1.24c-0.457-0.396-0.824-0.857-1.097-1.385
		c-0.274-0.525-0.41-1.141-0.41-1.846c0-1.324,0.449-2.368,1.349-3.126c0.898-0.759,2.142-1.138,3.728-1.138
		c0.778,0,1.522,0.092,2.229,0.277c0.707,0.185,1.447,0.444,2.221,0.779l-1.025,2.47c-0.8-0.328-1.461-0.557-1.984-0.686
		c-0.521-0.131-1.037-0.195-1.543-0.195c-0.602,0-1.062,0.141-1.385,0.42c-0.32,0.281-0.48,0.646-0.48,1.098
		c0,0.281,0.063,0.525,0.193,0.732c0.131,0.209,0.338,0.41,0.621,0.605c0.283,0.195,0.955,0.545,2.016,1.051
		c1.4,0.67,2.361,1.342,2.882,2.016C94.968,13.83,95.229,14.654,95.229,15.633z"/>
</g>
</svg>
