<?xml version="1.0" encoding="UTF-8"?>
<svg width="127px" height="23px" viewBox="0 0 127 23" version="1.1" xmlns="http://www.w3.org/2000/svg" xmlns:xlink="http://www.w3.org/1999/xlink">
    <!-- Generator: Sketch 49.1 (51147) - http://www.bohemiancoding.com/sketch -->
    <title>quorso</title>
    <desc>Created with Sketch.</desc>
    <defs></defs>
    <g id="Page-1" stroke="none" stroke-width="1" fill="none" fill-rule="evenodd">
        <g id="quorso" fill="#FFFFFF" fill-rule="nonzero">
            <path d="M66.4,3.144 C68.4171701,5.156008 69.5493541,7.88894051 69.546,10.738 C69.5485804,13.586906 68.4165144,16.3195534 66.4,18.332 C64.387947,20.3483701 61.6555252,21.4801318 58.807,21.477 C57.357,21.477 55.97,21.187 54.702,20.663 C53.3985739,20.1211127 52.213678,19.3295969 51.214,18.333 C49.1976067,16.3201445 48.0658887,13.5871086 48.069,10.738 C48.069,9.288 48.359,7.901 48.883,6.634 C50.5430769,2.61808417 54.4604926,-0.000895590271 58.806,1.54336179e-16 C61.6547278,-0.00366280899 64.3875381,1.12775091 66.4,3.144 Z M58.806,3.67 C56.9310388,3.6665316 55.1322659,4.41167067 53.809,5.74 C53.1516402,6.39625617 52.6297399,7.17536911 52.273,8.033 C51.919152,8.89086855 51.7377001,9.8100209 51.739,10.738 C51.7360863,12.6128513 52.4811405,14.4114195 53.809,15.735 C54.4654488,16.3923761 55.2444958,16.9145719 56.102,17.272 C56.9593898,17.6251153 57.877742,17.8065434 58.805,17.806 C59.7329234,17.8067273 60.6519653,17.6252972 61.51,17.272 C63.2408082,16.549594 64.6164982,15.1731853 65.338,13.442 C65.6934279,12.5849252 65.875272,11.6658475 65.873,10.738 C65.8756921,8.86319258 65.1306717,7.06470612 63.803,5.741 C62.4797355,4.4125513 60.6810442,3.66759508 58.806,3.67 Z M123.673,3.144 C124.661,4.134 125.458,5.316 126.003,6.634 C126.528,7.901 126.818,9.287 126.818,10.738 C126.820845,13.5867621 125.689148,16.3193892 123.673,18.332 C121.660196,20.3472475 118.928262,21.4788071 116.08,21.477 C114.67109,21.4786394 113.275727,21.2020136 111.974,20.663 C110.669763,20.1215237 109.484137,19.3299735 108.484,18.333 C106.468247,16.3198788 105.337248,13.5868427 105.341,10.738 C105.341,9.288 105.631,7.901 106.155,6.634 C107.813602,2.61597398 111.733107,-0.00387471763 116.08,5.52184166e-16 C118.92825,-0.00273404453 121.660407,1.12855828 123.673,3.144 Z M116.081,3.67 C114.205758,3.66659794 112.406699,4.41170649 111.083,5.74 C109.754612,7.06363617 109.009487,8.86273635 109.013,10.738 C109.010805,11.6656145 109.193002,12.5844145 109.549,13.441 C109.90326,14.3000622 110.42469,15.0801678 111.083,15.736 C111.740238,16.3928832 112.519507,16.9150007 113.377,17.273 C114.235035,17.6262972 115.154077,17.8077273 116.082,17.807 C117.042,17.807 117.955,17.615 118.786,17.273 C119.643848,16.9156634 120.42324,16.3934643 121.08,15.736 C122.407578,14.4122311 123.152581,12.6137855 123.15,10.739 C123.15,9.779 122.958,8.867 122.615,8.034 C122.258443,7.17680877 121.736892,6.39805075 121.08,5.742 C119.75486,4.41148253 117.956005,3.66630948 116.081,3.67 Z M80.72,4.294 C79.8541242,4.65631946 79.0681471,5.18574118 78.407,5.852 C77.0647801,7.19917517 76.3141718,9.0253195 76.321,10.927 L76.321,20.062 C76.3210029,20.173117 76.2766575,20.2796398 76.1978048,20.3579293 C76.1189521,20.4362188 76.0121142,20.4797994 75.901,20.479 L73.031,20.479 C72.9204965,20.4790003 72.8145334,20.4350346 72.7364895,20.3568031 C72.6584455,20.2785715 72.6147344,20.1725032 72.615,20.062 L72.615,10.927 C72.615,9.452 72.907,8.045 73.435,6.761 C73.9791233,5.43667957 74.7786612,4.23244569 75.788,3.217 C77.813688,1.17423557 80.5711445,0.0248153833 83.448,0.024 C83.678,0.024 83.865,0.21 83.865,0.444 L83.865,3.329 C83.8660654,3.44056427 83.8226976,3.54796796 83.7444656,3.62751329 C83.6662335,3.70705863 83.5595665,3.75220816 83.448,3.753 C82.48,3.754 81.56,3.944 80.72,4.294 Z M91.488,8.437 C91.935,8.485 92.416,8.517 92.906,8.549 L93.204,8.569 C95.224,8.705 97.53,8.799 99.526,9.685 C104.203,11.752 104.64,17.279 100.212,19.887 C98.475,20.91 96.207,21.443 94.046,21.477 C93.908,21.479 93.766,21.479 93.63,21.477 C91.79,21.447 90.13,21.089 88.68,20.425 C87.2253322,19.762394 85.9542578,18.7549397 84.977,17.49 C84.8375654,17.3098915 84.8649102,17.0518802 85.039,16.905 L87.213,15.082 C87.2946934,15.0112098 87.4019932,14.9772963 87.5095315,14.9882773 C87.6170699,14.9992583 87.7153006,15.0541591 87.781,15.14 C88.357,15.886 89.174,16.553 90.219,17.047 C91.164,17.489 92.294,17.787 93.594,17.857 C93.826,17.87 94.057,17.875 94.284,17.875 C95.522,17.868 96.84,17.66 97.86,17.195 C100.31,16.075 99.9,13.875 97.713,12.88 C94.643,11.478 89.803,13.03 86.91,10.505 C84.536,8.433 84.652,5.145 86.644,2.892 C87.387,2.052 88.334,1.416 89.372,0.955 C90.853,0.292 92.53,-0.005 94.046,5.5509796e-16 C95.6,0.006 97.026,0.326 98.3,0.9 C99.6386858,1.50341278 100.833775,2.38456113 101.806,3.485 C101.881742,3.57126469 101.919463,3.68444744 101.910615,3.79890365 C101.901767,3.91335986 101.8471,4.01940078 101.759,4.093 L99.719,6.043 C99.6420132,6.11689869 99.5382259,6.15621644 99.4315997,6.1518759 C99.3249736,6.14753537 99.2247255,6.09991175 99.154,6.02 C98.5162848,5.32288785 97.7452926,4.76250651 96.886,4.373 C96.0038828,3.96878435 95.0522794,3.73792803 94.083,3.693 C93.079,3.645 91.933,3.786 90.953,4.195 C90.475,4.395 90.043,4.661 89.693,4.997 C88.161,6.467 88.923,7.985 90.823,8.337 C91.035,8.379 91.255,8.409 91.488,8.437 Z M28.206,11.027 C28.206,14.944 31.032,17.764 34.772,17.794 C38.469,17.779 41.338,14.944 41.338,11.028 L41.338,1.438 C41.338,1.21 41.52,1.023 41.748,1.023 L44.585,1.023 C44.815,1.023 44.998,1.21 44.998,1.437 L44.998,10.864 C44.998,16.814 40.683,21.477 34.771,21.477 C28.859,21.477 24.543,16.815 24.543,10.864 L24.543,1.437 C24.543,1.21 24.728,1.023 24.957,1.023 L27.792,1.023 C28.019,1.023 28.204,1.21 28.204,1.437 L28.206,11.027 Z M19.261,21.947 L12.828,15.51 C12.0895357,14.7673267 12.0895357,13.5676733 12.828,12.825 C13.5710059,12.0882889 14.7689941,12.0882889 15.512,12.825 L21.948,19.262 C22.6848279,20.0053477 22.6848279,21.2036523 21.948,21.947 C21.2041928,22.6846056 20.0048072,22.6846056 19.261,21.947 Z M18.671,3.485 C20.725174,5.53463277 21.8781739,8.31817038 21.875,11.22 C21.8778414,14.1212735 20.7252806,16.9042598 18.672,18.954 C17.6543145,19.9696048 16.4476126,20.7761111 15.12,21.328 C13.7947739,21.8767509 12.3743469,22.1587974 10.94,22.158 C9.50562737,22.1590594 8.08514973,21.8770029 6.76,21.328 C5.43157495,20.7759741 4.223915,19.9695087 3.205,18.954 C1.15098582,16.9045882 -0.00231147549,14.1215613 -4.44089633e-16,11.22 C-4.44089633e-16,9.742 0.295,8.33 0.83,7.04 C2.52216267,2.95068846 6.51140593,0.283693638 10.937,0.283 C13.83863,0.280931625 16.6209029,1.43298618 18.671,3.485 Z M10.937,4.022 C9.02759378,4.02021786 7.19605121,4.77874276 5.847,6.13 C5.17659563,6.79804096 4.64415396,7.59143682 4.28,8.465 C3.91955075,9.33871176 3.73470018,10.2748576 3.736,11.22 C3.73277961,13.1296913 4.49152409,14.9617641 5.844,16.31 C6.51352627,16.9787801 7.30744102,17.5100949 8.181,17.874 C9.05443101,18.2342201 9.9902042,18.4190642 10.935,18.418 C11.912,18.418 12.841,18.223 13.688,17.874 C14.5613344,17.5097747 15.3549233,16.9781109 16.024,16.309 C17.3785492,14.9621526 18.1376683,13.1291752 18.132,11.219 C18.1352204,9.30930871 17.3764759,7.47723592 16.024,6.129 C14.6792677,4.77677177 12.846867,4.01789149 10.937,4.022 Z" id="Shape"></path>
        </g>
    </g>
</svg>