<svg xmlns="http://www.w3.org/2000/svg" width="110" height="80" viewBox="-3.438 -12.192 200 80" overflow="visible"><path fill-rule="evenodd" clip-rule="evenodd" d="M48.66 20.332c1.798-.76 4.715-.91 6.646-.53-1.578-2.674-3.238-6.146-5.316-9.57-1.778-2.93-3.958-7.19-6.114-8.772-5.962-4.38-13.436 2.117-15.948 6.113.065.103.13.21.196.312l.07-.046c0 .05 0 .1-.004.15 3.977 6.312 8.268 13.586 11.435 19.784-3.595-1.456-7.972-2.13-11.165-3.986.182-5.538-.437-10.276-.27-15.798-.02-.035-.043-.07-.065-.105-1.914 1.244-3.48 3.687-4.98 6.067-4.163 6.603-10.653 19.01-21 17.014 1.485 3.01 3.376 6.12 5.315 9.304 2.625 4.304 4.404 9.324 10.102 10.366h1.328c15.115-3.207 16.704-24.773 29.77-30.304zm-32.962 18.34c.71-4.96 1.13-10.212 1.596-15.416 4.32 6.225 8.086 13 11.96 19.67-4.602-1.335-9.06-2.81-13.556-4.253zM43.875 3.587c3.73 4.688 6.716 10.12 9.57 15.683-3.552-2.12-7.023-4.32-10.632-6.38.167-3.287.894-6.017 1.062-9.304zM175.72 18.47c.426-1.346.926-2.616.8-4.518-3.71-1.29-6.747.326-5.85 4.52 1.194.48 3.835.357 5.05 0zM128.67 14.218c-.542 2.116-.237 5.078-1.063 6.912-9.748-1.544-16.405 12.053-10.632 18.075 3.974 1.385 7.23-1.374 8.506-2.658-.05 1.026-.007 1.958.267 2.658H130c.22-8.217 3.09-16.035 3.457-24.987-1.242-.25-3.603-.55-4.786 0zm-7.975 21.266c-1.845-4.5.593-10.915 6.38-10.368-1.117 4.466-.97 10.196-6.38 10.368zM194.062 14.218c-1.31-.208-4.183-.734-5.05.266.074 2.558-.086 4.877-.797 6.646-8.322-.897-13.537 7.26-12.76 14.088.713 6.27 8.653 4.42 10.634 1.33-.16 1.132.188 1.758.262 2.657h4.52c-.123-9.514 3.06-15.725 3.19-24.987zm-12.76 21.266c-1.73-4.52.587-10.83 6.382-10.368-.99 4.595-1.003 10.164-6.382 10.368zM65.14 24.054c1.268 3.573 8.01 4.113 7.975 7.708-.042 4.33-6.777 3.79-10.367 2.394-.518 1.343-1.157 2.564-1.33 4.252 8.747 3.645 19.832-1.134 16.748-9.834-1.32-3.726-8.344-4.113-7.976-7.976.353-3.672 6.544-2.147 8.774-1.33.302-1.378 1.16-2.206 1.062-3.985-7.918-3.44-17.692.854-14.885 8.77zM147.81 26.446c-.358 3.007-.728 6.007-1.595 8.506-4.234.734-6.644-1.328-6.912-4.785-.534-6.884 5.195-14.354 12.494-10.898.312-1.344 1.456-3.068 1.063-4.254-5.633-1.664-10.78-.826-14.354 2.657-4.17 4.066-6.9 14.398-2.392 19.14 2.776 2.92 9.583 3.434 14.885 1.86.514-4.27 1.277-8.292 2.126-12.227-1.34-.41-3.977-.41-5.317 0z"/><path fill-rule="evenodd" clip-rule="evenodd" d="M5.76 28.624c6.945-.975 12.157-10.945 15.42-15.417-9.71.395-18.652 1.552-21 9.304-.205 1.052-.272 1.776 0 2.924.824 2.332 2.087 3.68 5.58 3.19zM51.867 21.69c-7.452.94-11.478 10.41-15.15 15.416 8.466-.31 19.275-1.592 20.73-8.772.928-4.567-1.204-7.196-5.58-6.645zM88.532 21.13c-4.61.762-8.61 6.822-8.24 11.962.48 6.657 7.6 7.662 14.09 5.315.154-1.662-.24-2.773-.8-3.72-2.594.877-8.437 1.95-8.24-2.127 4.69-.794 11.905-2.196 10.633-8.24-.565-2.688-4.574-3.664-7.443-3.19zm-3.19 7.973c.576-2.377 2.847-5.495 5.85-3.72.167 3.358-3.084 3.298-5.85 3.72zM113.784 23.522c-1.365-4.534-8.728-1.713-10.1.267-.056-.834.18-1.953-.267-2.394-1.68-.29-2.506-.137-4.254 0-.184 6.638-1.807 11.837-2.657 17.81 1.812.344 3.188.19 5.05 0 1.583-5.24.093-13.556 6.647-13.824 1.165 4.288-1.105 9.45-1.596 13.823 1.76.294 3.29.294 5.05 0-.163-4.945 3.63-10.698 2.127-15.683zM160.57 23.522c.187-.985-.456-1.14-.267-2.126-1.832-.204-2.69-.204-4.52 0-.09 6.734-1.647 12-2.658 17.81 1.758.293 3.29.293 5.05 0 1.555-5.277.45-14.61 7.71-13.292.344-1.426.98-2.562.797-4.518-2.756-1.073-4.94 1.664-6.113 2.126zM168.277 21.396c-.192 1.312-.76 2.25-.532 3.986.637.163 1.93-.332 2.128.267-.9 4.418-1.695 8.938-2.394 13.556 1.715.28 3.068.28 4.786 0 1.136-5.86 2.06-11.938 3.188-17.81h-7.177z"/></svg>