<svg xmlns="http://www.w3.org/2000/svg" width="165" height="48" viewBox="0 -9.337 165 48" overflow="visible"><path fill-rule="evenodd" clip-rule="evenodd" fill="#3F434A" d="M52.928 16.96c-.303-2.025-.08-4.654-.08-7.22 0-2.58.045-5.15-.07-7.22-.892.123-1.57.225-2.496.383-.61.106-1.668.048-1.535.768 1.352.108 1.993.58 2.108 1.98.113 1.358 0 3.356 0 5.495 0 2.048.144 4.096 0 5.496-.064.614-.365 1.273-.64 1.47-.385.275-1.396-.02-1.47.34-.128.618.63.213 1.342.213h3.386c.56 0 1.527.494 1.527.215v-.383c-1-.077-1.916-.474-2.072-1.535zM102.225 17.345c-.29-4.695.445-9.92.37-14.824-1.396.223-2.595.316-3.595.768v.446c2-.158 1.244 4.52 1.61 7.284-.964-.81-1.946-1.398-3.504-1.406-1.482-.006-2.908.785-3.64 1.662-2.347 2.807-.973 8.053 3.26 8.242 1.708.076 2.536-.726 3.483-1.533.08.516.217.96.37 1.406.446-.015.966-.16 1.715-.32.584-.127 1.823-.085 1.594-.83-.714-.14-1.426-.282-1.665-.895zm-2.173-1.024c-.23.956-1.073 1.706-1.853 1.92-4.496 1.224-5.106-7.01-1.088-7.413 1.303-.13 2.6.648 2.94 1.916.22.815.256 2.51 0 3.578zM127.91 17.407c-.47.297-1.642 1.09-2.557.366-.686-1.68-.327-5.11-.318-7.11H127v-1h-2.03c.524-4-1.275-6.24-4.663-5.936-2.75.248-4.515 2.416-3.896 5.723-2.75-.01-3.65 3.203-1.725 4.842.832.707 3.42 1.39 3.643 2.58.156.85-.43 1.486-1.087 1.61-1.53.286-2.553-.878-2.938-1.72-.188-.41-.086-1.178-.7-1.274-.34.358-.194 1.302-.194 2.11 0 .688-.292 1.955.446 1.917.247-.2.085-.812.448-.894.995.328 1.393.856 2.428.896 2.176.08 3.566-1.438 3.322-3.323-.3-2.33-3.688-2.72-4.535-3.896-.62-.863.15-2.068 1.276-1.854.216.688.68 1.72 1.535 1.79.755.06 1.27-.424 1.085-1.28-.14-.647-.877-.878-1.47-1.213-1.283-2.27-.034-4.737 2.173-5.048 2.15-.303 3.642 1.015 3.643 2.812 0 1.206-.57 2.146-1.278 2.556-.484.28-1.06.163-.832 1.022.433.034 1.014-.075 1.342.062.157 3.562-1.004 8.912 3.068 8.244.43-.07.963-.38 1.34-.64.375-.257.886-.597.895-1.022-.2-.035-.17-.3-.384-.32zM162.67 18.24c-.77.09-1.146-.57-1.278-1.105-.402-1.646.123-4.472 0-6.472h2.17c.105 0 .105-.595 0-.812-.727-.04-1.612.187-2.233.04.524-4.066-1.51-6.275-4.666-6.016-2.748.227-4.41 2.67-4.09 5.713-4.224.25-6.113 5.98-3.194 8.702 1.93 1.798 5.953 1.48 7.412-.695-.27-.094-.25-.474-.575-.51-1.11 1.22-3.808 1.738-5.11.385-1.605-1.66-.996-6.803 1.724-6.9.436 1.08.688 2.34 2.365 2.174 1.566-.748.476-2.888-.958-3.003-1.055-2.31.146-4.742 2.235-5.047 1.89-.273 3.652.88 3.672 2.748.014 1.572-1.144 2.577-2.144 2.94v.703c0 .035 1.026-.076 1.377.062.163 3.543-1.052 8.954 3.052 8.244.91-.16 1.9-.927 2.227-1.663-.517-.813-1.067.403-1.987.512zM108.742 7.12c1.552-.034 1.55-2.757-.257-2.428-1.475.27-1.146 2.46.257 2.428zM143.438 7.12c1.55-.084 1.398-2.762-.32-2.428-.68.133-1.053.398-1.022 1.215.02.58.625 1.252 1.342 1.213zM43.25 9.612c-1.518-.09-2.712.695-3.515 1.533-.078-.56-.077-1.086-.27-1.533-1.195.232-2.465.386-3.465.703v.64c1-.136 1.812.49 1.93 1.66.148 1.444-.055 3.35-.055 5.368 0 1.984.243 3.936.086 5.43-.14 1.346-.96 1.72-1.96 1.662v.64c2-.042 4 .084 6-.064v-.446c-1-.32-1.43-.114-1.837-.767-.486-.783-.277-2.246-.277-3.578 0-1.036-.07-2.07.054-2.75 2.54 2.89 7.312.795 7.725-2.745.36-3.103-1.394-5.4-4.415-5.753zm-1.598 8.627c-.66-.194-1.585-1.052-1.79-1.79-.122-.45 0-1.266 0-1.918 0-.676-.11-1.408 0-1.852.523-2.084 3.943-2.635 5.113-.576 1.336 2.702.08 7.125-3.323 6.135zM136.6 9.612c-1.26-.004-2.103.963-2.81 1.727-.084-.643-.097-1.268-.362-1.728-1.162.243-2.428.39-3.428.703v.64c0 .047.508-.06.81 0 1.436.285 1.393 3.728 1.19 5.687-.144 1.395-1 1.884-2 1.725v.64c2 .002 4 0 6 0v-.64c-1 .078-1.422-.13-1.81-.51-.527-1.837-.622-5.512.694-6.647.444-.383 1.304-.643 1.72-.127-.02.982.612 1.843 1.532 1.47 1.366-.556.344-3.338-1.536-2.94zM87.4 18.11c-.125-.096-.315-.41-.383-.574-.846-2.088.51-5.613-1.15-7.22-1.322-1.282-3.938-.556-5.11.384-.312.247-.444.652-.832.766-.437-1.328-1.54-1.896-2.938-1.854-1.594.05-2.61 1.164-3.388 1.79-.08-.69-.462-1.392-.833-1.79-1.117.265-2.767.39-3.767.703v.64c1-.067 1.732.076 2.043.574.516.824.307 3.748.162 5.175C71.07 18.018 70 18.45 69 18.365v.64c2-.043 4.518.088 6.008-.064-.012-.183.193-.417.094-.51-.418-.09-.858-.082-1.135-.32-.053-.237-.228-.51-.28-.83-.146-.918-.124-3.505.02-4.28.286-1.523 3.03-2.86 4.102-1.406.64.875.623 4.486.387 5.752-.06.305-.327.787-.51.895-.3.175-.883-.007-1.148.32.09.19-.006.216.11.382 1.36.15 4.35.024 5.35.063v-.574c-1-.13-1.038-.054-1.325-.32-.505-.465-.595-3.94-.407-4.98.18-1.003 1.648-2.352 3.056-2.175 1.743.22 1.585 3.307 1.437 5.367-.1 1.36.24 2.205-1.76 2.11v.573c2 0 4.204.004 5.843 0 .282-.943-.91-.486-1.443-.895zM109.668 9.677c-1.158.098-2.74.373-3.944.64-.02.31-.11.28-.025.574.597.068 1.312.098 1.65.512.654.81.762 5.95-.264 6.71-.436.322-.94.125-1.408.384-.142.14.156.26.094.51 1.758-.002 4.23.006 6.23 0v-.574c-3.002.62-1.488-6.83-2.334-8.755zM144.672 17.024c-.318-1.848-.024-5.393-.202-7.348-.062 0-.298-.053-.35-.064-1.26.273-2.12.4-4.12.703v.64c2-.134 2.075.458 2.198 1.66.198 1.944.02 4.985-.716 5.495-.31.215-.482.305-1.482.256v.64c2-.002 5 .003 7 0v-.575c-1 .016-2.152-.412-2.328-1.406zM66.444 17.855c-.17-.16-.332-.63-.384-.896-.36-1.866.14-4.584-.065-6.837-.583-.113-1.815-.063-2.562-.063-.72 0-1.434-.155-2.434.19v.32c1 .236 1.815.153 2.177.574.555.647.798 3.87.61 4.856-.217 1.163-1.724 2.15-3.145 1.91-2.51-.422-1.184-5.25-1.483-8.25h-3.962c-.2 0-.11.52-.13.71.23.246.882.138 1.342.355 1.38.652.644 3.94.83 5.672.136 1.25.855 2.562 2.174 2.965 2.062.63 3.437-.636 4.665-1.457.055.56.216 1.023.382 1.476.657-.096 1.078-.152 1.854-.315.28-.06 1.676-.16 1.53-.702-.08-.307-1.168-.284-1.402-.508zM28.283 15.007c.627-.93 1.36-2.328.827-3.766-.25-.67-.99-1.248-1.406-1.984-.603-1.064-.77-2.04-2.11-2.317-1.622-.337-3.567.195-5.09.578.3-1.616 1.4-4.925.373-6.455C20.387.33 18.332.36 17.07.36c-.646 0-1.215.006-1.78-.084-.526-.083-1.053-.205-1.57-.248-2.008-.17-3.808.428-4.554 1.697-.823 1.4.026 3.28.538 4.964-1.556-.675-3.402-1.936-5.213-1.862-.56.023-1.153.187-1.49.538-.33.348-.377.883-.65 1.406C1.674 8.065 1 9.274 0 10.702v.953c0 1.307.963 2.52 1.852 3.477 1.04 1.113 2.29 2.228 4.112 2.44a12.35 12.35 0 0 0-.343 3.972c.19 2.652 1.16 5.694 3.098 6.62.63.302 1.54.29 2.273.543.79.273 1.525.956 2.107.956h.87c2.012-1 2.864-2.82 3.765-4.763 1.595.58 3.6 1.654 6.082 1.405.773-.078 1.77-.3 2.358-.623.427-.232.747-.598 1.16-.95.5-.433 1.152-.76 1.196-1.616.062-1.11-.55-2.21-1.032-3.104-.51-.94-1.086-1.765-1.613-2.48.847-.78 1.697-1.485 2.4-2.525zm-7.737 3.475c-1.144 1.17-3.108 1.203-5.007.993-.917-.102-1.55-.35-2.276-.828-.737-.484-1.502-.96-2.153-1.572-.67-.63-1.333-1.168-1.2-2.648.094-1.002.54-3.104 1.2-3.558.276-.19.92-.318 1.492-.498.762-.238 1.33-.377 2.068-.455.14-.014.562-.054.703-.04 3.44.314 5.796 1.704 6.125 5.17.145 1.532-.282 2.75-.952 3.435z"/><path fill-rule="evenodd" clip-rule="evenodd" fill="#3F434A" d="M15.745 12.606c-1.163.14-1.833 1.008-1.943 1.945-.154 1.302.47 1.634 1.364 1.945.496.174.846.315 1.53.248.666-.47 1.335-1.973 1.282-2.938-.046-.91-1.148-1.326-2.233-1.2z"/></svg>