<svg id="Layer_1" data-name="Layer 1" xmlns="http://www.w3.org/2000/svg" xmlns:xlink="http://www.w3.org/1999/xlink" viewBox="0 0 2133.36 1609.58"><defs><style>.cls-1{fill:url(#linear-gradient);}.cls-2{fill:url(#linear-gradient-2);}.cls-3{fill:url(#linear-gradient-3);}.cls-4{fill:#fff;}.cls-5{fill:#3ddb9a;}.cls-6{fill:#96ff93;}.cls-7{fill:#afffac;}.cls-8{fill:#b7fcb0;}</style><linearGradient id="linear-gradient" x1="1578.58" y1="-30.16" x2="510.36" y2="1733.63" gradientTransform="translate(525.87 -420.03) rotate(29.06)" gradientUnits="userSpaceOnUse"><stop offset="0" stop-color="#3dd2dd"/><stop offset="0.57" stop-color="#71f592"/><stop offset="1" stop-color="#d1fdbf"/></linearGradient><linearGradient id="linear-gradient-2" x1="1235.68" y1="635.05" x2="1435.11" y2="534.24" gradientUnits="userSpaceOnUse"><stop offset="0" stop-color="#5af1a6" stop-opacity="0"/><stop offset="1" stop-color="#5af1a6"/></linearGradient><linearGradient id="linear-gradient-3" x1="378.28" y1="853.76" x2="194.98" y2="1156.42" gradientUnits="userSpaceOnUse"><stop offset="0.26" stop-color="#78eba3" stop-opacity="0"/><stop offset="1" stop-color="#78eba3"/></linearGradient></defs><title>Artboard 1</title><rect class="cls-1" x="-69.8" y="320.4" width="2285.93" height="967.94" rx="483.97" ry="483.97" transform="translate(-255.61 622.59) rotate(-29.06)"/><path class="cls-2" d="M1489.78,559.57s-93.39,95.4-406.31,89.78-128.38,107.52-1.61,100.3c93.22-5.31,187-.8,315.34-72.21C1435.35,656.21,1459,606,1489.78,559.57Z"/><path class="cls-3" d="M32.42,1049.75s42.68-74.52,209.37-54.23c39.76,4.84,91.52-12.63,123.71-35.86,49.1-35.44,76.09-83.73,76.09-83.73l91.6,97.13s-125.48,113.37-223.65,110.61c-30.6-.86-74.31-14.52-116.83-31.11-28.34-11.06-57.1-15.45-82.61-17.25-28.76-2-54.74,2.24-75.12,18.14C34.74,1053.6,32.42,1049.75,32.42,1049.75Z"/><path class="cls-4" d="M32.42,1049.75A142.77,142.77,0,0,1,64.74,1024c38.48-22.83,84.38-29.3,124.05-29.3,13.5,0,26.28.75,37.79,1.86a202.79,202.79,0,0,0,90.81-11.82c23.31-8.66,45.77-21.7,66.77-38.74,35.73-29,55.13-60.07,55.32-60.38l.14-.27c8.37-11.21,17.56-40.07,73.42-76.93,32.83-21.66,72.33-38.13,117.41-48.95,56.41-13.54,121.75-18.22,194.21-13.91,128.08,7.63,275,12.91,393.61-5.81,73.62-11.62,131.87-31.7,175.73-60.78l-1.66-3.71c-43.44,29-101.34,49-174.69,60.54-118.22,18.66-264.89,13.39-392.76,5.77-73-4.34-138.78.39-195.63,14.07-45.55,11-85.5,27.66-118.71,49.64C455,842,447.14,868.67,436,883.64c-12,15.79-20.27,31.58-54.36,59.25C361,959.66,338.9,972.48,316,981a198.81,198.81,0,0,1-89,11.59c-46-4.43-111.77-3.16-164.27,28a147.71,147.71,0,0,0-32.6,25.75Z"/><path class="cls-4" d="M1508.27,545.42c24.76-28.39,51.83-50.62,81-66.44,38.39-20.87,70.4-24.8,85.55-25.34l.31-4c-15.34.5-48.3,4.38-87.77,25.83-29.4,16-56.73,38.38-81.72,66.93C1505.78,543.57,1506.78,544.57,1508.27,545.42Z"/><path class="cls-4" d="M1410.19,669.19a2,2,0,0,1-1.31-3.51c2.8-2.43,5.57-4.95,8.22-7.49a2,2,0,1,1,2.76,2.89c-2.69,2.58-5.51,5.15-8.36,7.62A2,2,0,0,1,1410.19,669.19Zm20-19.64a2,2,0,0,1-1.49-3.34c2.46-2.75,4.88-5.6,7.19-8.47a2,2,0,0,1,3.12,2.51c-2.35,2.93-4.82,5.83-7.33,8.63A2,2,0,0,1,1430.18,649.55Zm17.27-22.08a2,2,0,0,1-1.13-.34,2,2,0,0,1-.53-2.78c2.07-3.05,4.09-6.2,6-9.36a2,2,0,1,1,3.42,2.07c-1.94,3.22-4,6.43-6.11,9.53A2,2,0,0,1,1447.45,627.47Zm14.94-23.74a2,2,0,0,1-1.68-3.08c2-3.17,4.14-6.33,6.22-9.39a2,2,0,0,1,3.31,2.25c-2.07,3-4.14,6.16-6.17,9.31A2,2,0,0,1,1462.39,603.73Zm15.92-23.08a2,2,0,0,1-1.18-.39,2,2,0,0,1-.43-2.8c2.24-3,4.53-6.05,6.82-9a2,2,0,1,1,3.15,2.46c-2.26,2.9-4.53,5.89-6.75,8.89A2,2,0,0,1,1478.31,580.65Z"/><circle class="cls-4" cx="1394.28" cy="679.07" r="8.5"/><circle class="cls-4" cx="1672.28" cy="453.07" r="8.5"/><circle class="cls-4" cx="226.78" cy="993.57" r="9"/><path class="cls-5" d="M35,1053.45a100.51,100.51,0,0,1,29.28-12.19c50.3-12.68,110.83,5.59,152.74,23.15,34.85,14.6,66.09,20.72,94.66,20.72,75.51,0,132.39-42.71,187.88-84.39,13.18-9.9,26.81-20.14,40.37-29.53,29-20.07,63.34-32.43,95.39-40l-.41-4c-32.61,7.69-67.64,20.25-97.25,40.75-13.63,9.44-27.29,19.7-40.5,29.62-37.7,28.31-76.69,57.59-121.22,72.75-49.94,17-101.42,13.87-157.37-9.57-77-32.24-126.91-30.49-155.26-23.34a103.85,103.85,0,0,0-31.06,13Z"/><circle class="cls-5" cx="637.78" cy="928.57" r="9"/><path class="cls-6" d="M1432.7,591.55c-31.44,15.5-68.53,27.86-110.22,36.72-52.15,11.09-111.7,16.71-177,16.71-117.78,0-210.37,8.54-291.37,26.88C782,688.19,728.51,710.11,671.87,733.32,650.8,742,629,750.89,606,759.62q-9.39,3.55-19.1,7l2.09,3.52q9.34-3.32,18.42-6.75c23.1-8.75,44.92-17.69,66-26.34C729.86,713.9,783.2,692,855,675.78,935.71,657.51,1028,649,1145.49,649c65.71,0,125.64-5.68,178.15-16.87,42.06-9,79.47-21.47,111.22-37.17,25.42-12.57,43.31-25.53,54.92-35.39l1-6.12C1479.5,563.62,1460.93,577.63,1432.7,591.55Z"/><path class="cls-7" d="M595.91,763.35c-69,25.21-150.15,45.68-221.06,62.49-63,14.94-120.94,36.57-172.24,64.31-41.06,22.2-78,48.33-109.71,77.68-33.67,31.12-54.36,59.4-65.25,76.44l2.64,3.3c10.5-16.62,31.12-45.17,65.32-76.78,31.5-29.12,68.14-55.06,108.9-77.11,51-27.56,108.61-49.07,171.26-63.93C447,812.88,528.4,792.32,597.73,767Z"/><circle class="cls-7" cx="588.78" cy="767.57" r="9"/><path class="cls-4" d="M1498.28,562.57a12.5,12.5,0,1,1,12.5-12.5A12.51,12.51,0,0,1,1498.28,562.57Zm0-21a8.5,8.5,0,1,0,8.5,8.5A8.51,8.51,0,0,0,1498.28,541.57Z"/><circle class="cls-8" cx="19.78" cy="1061.57" r="16"/><path class="cls-4" d="M19.78,1080.57a19,19,0,1,1,19-19A19,19,0,0,1,19.78,1080.57Zm0-34a15,15,0,1,0,15,15A15,15,0,0,0,19.78,1046.57Z"/><circle class="cls-4" cx="19.78" cy="1061.57" r="7"/></svg>