<svg id="Layer_1" data-name="Layer 1" xmlns="http://www.w3.org/2000/svg" xmlns:xlink="http://www.w3.org/1999/xlink" viewBox="0 0 2124.91 1605.23"><defs><style>.cls-1{fill:url(#linear-gradient);}.cls-2{fill:#dcdece;}.cls-3{fill:#fff;}.cls-4{fill:url(#linear-gradient-2);}.cls-5{fill:#67ce62;}.cls-6{fill:#75de70;}.cls-7{fill:url(#linear-gradient-3);}.cls-8{fill:#f6f7f0;}.cls-9{fill:#f1f5d7;}.cls-10{fill:#99ab8f;}.cls-11{fill:#c1de70;}.cls-12{fill:#b7bb9f;}</style><linearGradient id="linear-gradient" x1="2074.49" y1="812.97" x2="1784.04" y2="764.91" gradientUnits="userSpaceOnUse"><stop offset="0" stop-color="#73de71"/><stop offset="0.58" stop-color="#dbf032"/><stop offset="1" stop-color="#f0fb9e"/></linearGradient><linearGradient id="linear-gradient-2" x1="284.89" y1="2007.32" x2="-1517.64" y2="1818.04" gradientTransform="translate(2426.94 -642.12) rotate(29.06)" xlink:href="#linear-gradient"/><linearGradient id="linear-gradient-3" x1="1987.5" y1="486.15" x2="1057.64" y2="332.29" gradientUnits="userSpaceOnUse"><stop offset="0" stop-color="#d6ef2d"/><stop offset="0.58" stop-color="#fdff75"/><stop offset="1" stop-color="#fff"/></linearGradient></defs><title>Artboard 1</title><rect class="cls-1" x="1785.06" y="766.72" width="328.59" height="51.1" rx="25.55" ry="25.55"/><rect class="cls-2" x="1785.06" y="766.72" width="328.59" height="51.1" rx="25.55" ry="25.55"/><rect class="cls-3" x="2070.55" y="789.05" width="20.93" height="4.84"/><rect class="cls-3" x="2070.55" y="789.05" width="20.93" height="4.84" transform="translate(2872.49 -1289.54) rotate(90)"/><rect class="cls-4" x="-80.16" y="319.14" width="2285.93" height="967.94" rx="483.97" ry="483.97" transform="translate(518.17 -412.58) rotate(28.79)"/><rect class="cls-5" x="667.5" y="766.72" width="876.75" height="51.1" rx="25.55" ry="25.55"/><rect class="cls-3" x="666.84" y="585.87" width="876.15" height="51.1" rx="25.55" ry="25.55"/><rect class="cls-6" x="1237.5" y="585.87" width="876.15" height="51.1" rx="25.55" ry="25.55"/><rect class="cls-7" x="1060.14" y="394.31" width="1053.51" height="51.1" rx="25.55" ry="25.55"/><rect class="cls-6" x="135.35" y="394.31" width="877.47" height="51.1" rx="25.55" ry="25.55"/><circle class="cls-8" cx="777.86" cy="419.82" r="54.94"/><circle class="cls-9" cx="1381.41" cy="419.82" r="54.94"/><path class="cls-10" d="M774.72,427.85v3.43H755.5a6.17,6.17,0,0,1,.42-2.48,13.09,13.09,0,0,1,2.35-3.87,37,37,0,0,1,4.67-4.4,39.13,39.13,0,0,0,6.4-6.16,7.36,7.36,0,0,0,1.67-4.29,4.77,4.77,0,0,0-1.52-3.58,5.47,5.47,0,0,0-4-1.46,5.59,5.59,0,0,0-4.13,1.55,5.88,5.88,0,0,0-1.57,4.28l-3.67-.37a9,9,0,0,1,2.84-6.26,9.65,9.65,0,0,1,6.61-2.15,9.21,9.21,0,0,1,6.62,2.32,7.59,7.59,0,0,1,2.44,5.75,8.65,8.65,0,0,1-.72,3.43,13,13,0,0,1-2.37,3.55,57,57,0,0,1-5.5,5.12c-2.14,1.8-3.52,3-4.12,3.66a11.17,11.17,0,0,0-1.51,1.93Z"/><path class="cls-10" d="M778.55,423.67l3.75-.32a6.69,6.69,0,0,0,1.93,4.11,5.24,5.24,0,0,0,3.66,1.38,5.71,5.71,0,0,0,4.36-1.94,7.35,7.35,0,0,0,1.79-5.16,6.61,6.61,0,0,0-1.72-4.82,6,6,0,0,0-4.49-1.76,6.22,6.22,0,0,0-3.11.78,6,6,0,0,0-2.19,2l-3.35-.43L782,402.6h14.46V406H784.85l-1.56,7.82a9.41,9.41,0,0,1,5.49-1.83,8.71,8.71,0,0,1,6.43,2.64,9.24,9.24,0,0,1,2.62,6.78,10.62,10.62,0,0,1-2.3,6.83,9.24,9.24,0,0,1-7.64,3.53,9.42,9.42,0,0,1-6.48-2.22A8.69,8.69,0,0,1,778.55,423.67Z"/><path class="cls-10" d="M1373.06,423.67l3.75-.32a6.69,6.69,0,0,0,1.94,4.11,5.24,5.24,0,0,0,3.66,1.38,5.72,5.72,0,0,0,4.36-1.94,7.34,7.34,0,0,0,1.78-5.16,6.65,6.65,0,0,0-1.71-4.82,6,6,0,0,0-4.49-1.76,6.28,6.28,0,0,0-3.12.78,6.09,6.09,0,0,0-2.18,2l-3.35-.43,2.81-14.94H1391V406h-11.6l-1.57,7.82a9.47,9.47,0,0,1,5.5-1.83,8.68,8.68,0,0,1,6.42,2.64,9.2,9.2,0,0,1,2.62,6.78,10.56,10.56,0,0,1-2.3,6.83,9.22,9.22,0,0,1-7.63,3.53,9.41,9.41,0,0,1-6.48-2.22A8.7,8.7,0,0,1,1373.06,423.67Z"/><rect class="cls-3" x="2070.55" y="608.21" width="20.93" height="4.84"/><rect class="cls-3" x="2070.55" y="608.21" width="20.93" height="4.84" transform="translate(2691.65 -1470.39) rotate(90)"/><rect class="cls-3" x="2070.55" y="417.66" width="20.93" height="4.84"/><rect class="cls-3" x="2070.55" y="417.66" width="20.93" height="4.84" transform="translate(2501.1 -1660.94) rotate(90)"/><rect class="cls-3" x="969.55" y="417.66" width="20.93" height="4.84"/><rect class="cls-3" x="969.55" y="417.66" width="20.93" height="4.84" transform="translate(1400.1 -559.94) rotate(90)"/><rect class="cls-11" x="1087.55" y="417.66" width="20.93" height="4.84"/><rect class="cls-3" x="690.55" y="789.05" width="20.93" height="4.84"/><rect class="cls-6" x="690.55" y="608.21" width="20.93" height="4.84"/><path class="cls-12" d="M1970.76,766.72H1810.61a25.62,25.62,0,0,0-25.55,25.55h0a25.62,25.62,0,0,0,25.55,25.55h207.52A480.17,480.17,0,0,0,1970.76,766.72Z"/></svg>