<svg id="Layer_1" data-name="Layer 1" xmlns="http://www.w3.org/2000/svg" xmlns:xlink="http://www.w3.org/1999/xlink" viewBox="0 0 2018.02 1744.15"><defs><style>.cls-1{fill:url(#linear-gradient);}.cls-2{fill:url(#linear-gradient-2);}.cls-3{fill:url(#linear-gradient-3);}.cls-4{fill:url(#linear-gradient-4);}.cls-5{fill:url(#linear-gradient-5);}</style><linearGradient id="linear-gradient" x1="527.24" y1="491.78" x2="364.76" y2="954.09" gradientUnits="userSpaceOnUse"><stop offset="0" stop-color="#ffb5ad"/><stop offset="1" stop-color="#ffd041"/></linearGradient><linearGradient id="linear-gradient-2" x1="1242.39" y1="1291.63" x2="928.16" y2="1530.87" gradientUnits="userSpaceOnUse"><stop offset="0" stop-color="#81ed7a"/><stop offset="1" stop-color="#31dc6d"/></linearGradient><linearGradient id="linear-gradient-3" x1="2094.16" y1="268.72" x2="224.69" y2="1330.89" gradientTransform="matrix(0.95, -0.11, 0.13, 0.96, -182.86, 216.64)" gradientUnits="userSpaceOnUse"><stop offset="0" stop-color="#88dbff"/><stop offset="1" stop-color="#f5a1c1"/></linearGradient><linearGradient id="linear-gradient-4" x1="672.76" y1="547.25" x2="314.35" y2="1139.04" gradientUnits="userSpaceOnUse"><stop offset="0" stop-color="#be8a91"/><stop offset="1" stop-color="#e28a0c"/></linearGradient><linearGradient id="linear-gradient-5" x1="1181.63" y1="1205.59" x2="868.21" y2="1449.76" gradientUnits="userSpaceOnUse"><stop offset="0" stop-color="#5da867"/><stop offset="1" stop-color="#239457"/></linearGradient></defs><title>Artboard 1</title><circle class="cls-1" cx="427.41" cy="775.85" r="359.07"/><circle class="cls-2" cx="1088.75" cy="1408.6" r="213.32"/><path class="cls-3" d="M1821.68,868.18,765.92,1650.25C552.11,1807.52,251.3,1761.69,94,1547.88h0C-63.25,1334.08-17.42,1033.26,196.39,876L1252.15,93.92C1466-63.35,1766.77-17.52,1924,196.29h0C2081.31,410.09,2035.48,710.91,1821.68,868.18Z"/><path class="cls-4" d="M786.47,775.85A358,358,0,0,0,678.32,519L196.39,876a481.6,481.6,0,0,0-81.82,76.21c61.62,109.07,178.63,182.71,312.84,182.71C625.71,1134.91,786.47,974.15,786.47,775.85Z"/><path class="cls-5" d="M1088.75,1195.29c-117.81,0-213.32,95.5-213.32,213.31a212.42,212.42,0,0,0,43.11,128.59l342.81-253.94A213,213,0,0,0,1088.75,1195.29Z"/></svg>