<svg xmlns="http://www.w3.org/2000/svg" xmlns:xlink="http://www.w3.org/1999/xlink" id="Layer_1" data-name="Layer 1" viewBox="0 0 1538.52 1585.64"><defs><style>.cls-4{fill:#4dd9eb}.cls-10{fill:#fff}.cls-27{fill:#0019b1}.cls-34{fill:#31008a}.cls-37{fill:#2021b0}.cls-38{fill:#0039ca}.cls-39{fill:url(#linear-gradient-24)}.cls-40{fill:url(#linear-gradient-29)}</style><linearGradient id="linear-gradient" x1="809.44" x2="809.44" y1="151.28" y2="852.37" gradientTransform="rotate(45 809.44 856.56)" gradientUnits="userSpaceOnUse"><stop offset="0" stop-color="#0ba2fb"/><stop offset="1" stop-color="#67f0e4"/></linearGradient><linearGradient id="linear-gradient-2" x1="1175.03" x2="1175.03" y1="769.49" y2="1020.55" xlink:href="#linear-gradient"/><linearGradient id="linear-gradient-3" x1="517.13" x2="280.58" y1="1018.81" y2="786.01" gradientUnits="userSpaceOnUse"><stop offset="0" stop-color="#5145c5"/><stop offset="1" stop-color="#12a8f7"/></linearGradient><linearGradient id="linear-gradient-4" x1="997.61" x2="1212.55" y1="865.44" y2="880.64" gradientUnits="userSpaceOnUse"><stop offset="0" stop-color="#18acf8"/><stop offset="1" stop-color="#1bc2ff"/></linearGradient><linearGradient id="linear-gradient-5" x1="534.45" x2="468.49" y1="1012.64" y2="950.45" xlink:href="#linear-gradient-4"/><linearGradient id="linear-gradient-6" x1="792.92" x2="790.96" y1="325.83" y2="76.37" gradientUnits="userSpaceOnUse"><stop offset="0" stop-color="#0ba2fb"/><stop offset=".47" stop-color="#0abdff"/><stop offset="1" stop-color="#67f0e4"/></linearGradient><linearGradient id="linear-gradient-7" x1="968.46" x2="141.99" y1="1138.8" y2="1143.24" gradientUnits="userSpaceOnUse"><stop offset="0" stop-color="#7e17a4"/><stop offset="1" stop-color="#1d6be5"/></linearGradient><linearGradient id="linear-gradient-8" x1="791.16" x2="791.16" y1="812.58" y2="116.86" gradientUnits="userSpaceOnUse"><stop offset="0" stop-color="#0039ca"/><stop offset="1" stop-color="#74127b"/></linearGradient><linearGradient id="linear-gradient-9" x1="632.8" x2="368.46" y1="1046.74" y2="666.27" gradientUnits="userSpaceOnUse"><stop offset="0" stop-color="#7e17a4"/><stop offset="1" stop-color="#0c9cf4"/></linearGradient><linearGradient id="linear-gradient-10" x1="1135.91" x2="807.86" y1="699.18" y2="351.04" gradientUnits="userSpaceOnUse"><stop offset="0" stop-color="#008bfd"/><stop offset=".47" stop-color="#0abdff"/><stop offset=".92" stop-color="#67f0e4"/></linearGradient><linearGradient id="linear-gradient-11" x1="1223.27" x2="895.22" y1="616.86" y2="268.72" xlink:href="#linear-gradient-10"/><linearGradient id="linear-gradient-12" x1="1045.24" x2="717.19" y1="784.61" y2="436.48" xlink:href="#linear-gradient-10"/><linearGradient id="linear-gradient-13" x1="1052.22" x2="724.17" y1="778.04" y2="429.9" xlink:href="#linear-gradient-10"/><linearGradient id="linear-gradient-14" x1="842.49" x2="514.44" y1="975.67" y2="627.53" xlink:href="#linear-gradient-10"/><linearGradient id="linear-gradient-15" x1="151.32" x2="240.81" y1="791.76" y2="878.88" gradientUnits="userSpaceOnUse"><stop offset="0" stop-color="#caf3ff"/><stop offset="1" stop-color="#fff"/></linearGradient><linearGradient id="linear-gradient-16" x1="460.91" x2="459.57" y1="385.44" y2="221.86" gradientUnits="userSpaceOnUse"><stop offset="0" stop-color="#0ba2fb"/><stop offset=".47" stop-color="#0abdff"/><stop offset=".92" stop-color="#67f0e4"/></linearGradient><linearGradient id="linear-gradient-17" x1="647.26" x2="-35.08" y1="1220.06" y2="1567.19" xlink:href="#linear-gradient-8"/><linearGradient id="linear-gradient-18" x1="867.65" x2="806.33" y1="1120.05" y2="1290.87" gradientUnits="userSpaceOnUse"><stop offset="0" stop-color="#9e2f8a"/><stop offset="1" stop-color="#1737be"/></linearGradient><linearGradient id="linear-gradient-19" x1="502.66" x2="447.83" y1="1469.33" y2="1270.14" gradientUnits="userSpaceOnUse"><stop offset="0" stop-color="#7642b0"/><stop offset="1" stop-color="#3244be"/></linearGradient><linearGradient id="linear-gradient-20" x1="239.83" x2="239.83" y1="1202.92" y2="1103.72" gradientUnits="userSpaceOnUse"><stop offset="0" stop-color="#18009e"/><stop offset="1" stop-color="#74127b"/></linearGradient><linearGradient id="linear-gradient-21" x1="182.11" x2="182.11" y1="1278.6" y2="1475.46" gradientUnits="userSpaceOnUse"><stop offset="0" stop-color="#2c18a0"/><stop offset="1" stop-color="#582aa3" stop-opacity="0"/></linearGradient><linearGradient id="linear-gradient-22" x1="485.68" x2="485.68" y1="252.64" y2="384.06" gradientUnits="userSpaceOnUse"><stop offset="0" stop-color="#005dca"/><stop offset="1" stop-color="#8d3cb1"/></linearGradient><linearGradient id="linear-gradient-23" x1="460.29" x2="460.29" y1="632.31" y2="285.66" xlink:href="#linear-gradient-16"/><linearGradient id="linear-gradient-24" x1="829.8" x2="829.8" y1="1293.52" y2="1144.68" gradientUnits="userSpaceOnUse"><stop offset="0" stop-color="#a949a8"/><stop offset="1" stop-color="#67f0e4"/></linearGradient><linearGradient id="linear-gradient-29" x1="851.8" x2="851.8" y1="1293.52" y2="1144.68" xlink:href="#linear-gradient-24"/><linearGradient id="linear-gradient-34" x1="215.22" x2="19.58" y1="1250.85" y2="1155.59" gradientUnits="userSpaceOnUse"><stop offset="0" stop-color="#a82e8d"/><stop offset="1" stop-color="#edbcd0"/></linearGradient><linearGradient id="linear-gradient-35" x1="105.49" x2="28.57" y1="1303.71" y2="1225.84" gradientTransform="rotate(9.22 58.92 1256.22)" gradientUnits="userSpaceOnUse"><stop offset="0" stop-color="#3000a1"/><stop offset="1" stop-color="#531bb8"/></linearGradient><linearGradient id="linear-gradient-36" x1="161.41" x2="84.49" y1="1248.47" y2="1170.6" gradientTransform="rotate(9.22 169.38 1256.18)" xlink:href="#linear-gradient-35"/><linearGradient id="linear-gradient-37" x1="174.09" x2="97.17" y1="1235.95" y2="1158.08" xlink:href="#linear-gradient-35"/><linearGradient id="linear-gradient-38" x1="134.98" x2="58.06" y1="1274.58" y2="1196.71" xlink:href="#linear-gradient-35"/><linearGradient id="linear-gradient-39" x1="115.94" x2="39.02" y1="1293.39" y2="1215.52" xlink:href="#linear-gradient-35"/><linearGradient id="linear-gradient-40" x1="161.01" x2="84.09" y1="1248.87" y2="1171" xlink:href="#linear-gradient-35"/><linearGradient id="linear-gradient-41" x1="186.58" x2="109.66" y1="1223.61" y2="1145.74" xlink:href="#linear-gradient-35"/><linearGradient id="linear-gradient-42" x1="157.01" x2="80.09" y1="1252.82" y2="1174.95" xlink:href="#linear-gradient-35"/><linearGradient id="linear-gradient-43" x1="183.04" x2="106.12" y1="1227.11" y2="1149.24" xlink:href="#linear-gradient-35"/><linearGradient id="linear-gradient-44" x1="208.61" x2="131.69" y1="1201.85" y2="1123.98" xlink:href="#linear-gradient-35"/><linearGradient id="linear-gradient-45" x1="199.21" x2="122.29" y1="1211.13" y2="1133.26" xlink:href="#linear-gradient-35"/><linearGradient id="linear-gradient-46" x1="1019.35" x2="1264.2" y1="808.45" y2="597.92" gradientUnits="userSpaceOnUse"><stop offset="0" stop-color="#008bfd"/><stop offset=".37" stop-color="#0aeff1"/><stop offset=".92" stop-color="#c3ffff"/></linearGradient><linearGradient id="linear-gradient-47" x1="999.96" x2="1244.81" y1="785.9" y2="575.37" xlink:href="#linear-gradient-46"/><linearGradient id="linear-gradient-48" x1="168.38" x2="14.25" y1="1271.53" y2="1250.44" xlink:href="#linear-gradient-34"/><linearGradient id="linear-gradient-49" x1="170.41" x2="16.28" y1="1256.68" y2="1235.59" gradientTransform="rotate(9.22 169.38 1256.18)" xlink:href="#linear-gradient-34"/><linearGradient id="linear-gradient-50" x1="1120" x2="1346.84" y1="916.52" y2="691.22" gradientUnits="userSpaceOnUse"><stop offset="0" stop-color="#822a9a"/><stop offset=".51" stop-color="#2246c8"/><stop offset="1" stop-color="#0084ff"/></linearGradient><linearGradient id="linear-gradient-51" x1="1143.44" x2="1370.29" y1="940.12" y2="714.83" xlink:href="#linear-gradient-50"/></defs><rect width="1719.12" height="831.56" x="-50.12" y="440.78" fill="url(#linear-gradient)" rx="415.78" ry="415.78" transform="rotate(-45 809.44 856.56)"/><path fill="url(#linear-gradient-2)" d="M1197.22 768.47l-11.54 4.67-9.27-3.93-106.66 251.77 11.97 5.08 105.21-248.36 83.39 205.98 9.99-9.99-83.09-205.22z"/><path fill="url(#linear-gradient-3)" d="M676.18 791.81v-28.62h-33.31v-9.65l-20.15-10.8-20.15 10.8v9.65H472.35v-80a9.39 9.39 0 0 0 4.06-7.7 9.4 9.4 0 0 0-8.11-9.28l-6.07-28.88H456l-6.64 28.78h-11l-11.09-52.81h-12.91l-12.17 52.81h-11.31l-6-28.78h-6.26l-6.66 28.89a9.4 9.4 0 0 0-8 9.27 9.4 9.4 0 0 0 4.82 8.18v63.74a366.34 366.34 0 0 1-8.64 69.25c-9.67 43.14-25.86 78.12-48.14 104-42.35 49.04-108 75.68-195.49 79.34q-5.78 13-10.63 26.21H335.3v61.16l34.3 14.44 103.81 8.69 32.6-23.13v-61.16h168.41v-25.78H472.35V791.81zm-432.79 208.63h-48.22a285.87 285.87 0 0 0 48.22-16.33zm31.06 0h-24.78V981.2a233.06 233.06 0 0 0 24.78-13.79zm30.9 0h-24.62v-37.22a209.17 209.17 0 0 0 24.62-19.86zm31.07 0h-24.79V937.2c3-3.05 5.85-6.17 8.63-9.4a187.1 187.1 0 0 0 16.16-21.88zm32.29 0h-26v-105.1c11.89-21.38 20.27-44.72 26-67.43z"/><path d="M1048.86 1057.74v-13.13h-97.87v-63.02H868.3v105.79h298.32l29.64-29.64h-147.4z" class="cls-4"/><path fill="url(#linear-gradient-4)" d="M771.68 791.81v208.63h-32.84v25.78H738v61.16h170.73v-61.16h319l25.78-25.78h-110.06c-95.44-1-166.54-27.8-211.35-79.82-22.28-25.86-38.48-60.84-48.14-104a365.52 365.52 0 0 1-8.64-69.25v-63.72a9.4 9.4 0 0 0 4.82-8.18 9.41 9.41 0 0 0-8-9.27l-6.66-28.89h-6.26l-6 28.78h-11.38l-12.18-52.81h-12.87l-11.09 52.81h-11l-6.63-28.78h-6.26l-6.06 28.88a9.4 9.4 0 0 0-8.11 9.28 9.39 9.39 0 0 0 4.06 7.7v80h39v-9.65l-20.15-10.8-20.15 10.8v9.65h-33.3v28.62zm191.61 171.41v37.22h-24.61v-57.08a209.88 209.88 0 0 0 24.61 19.86zm6.29 4.19a233.06 233.06 0 0 0 24.78 13.79v19.24h-24.78zm79.28 33h-48.22v-16.3a285.27 285.27 0 0 0 48.22 16.33zm-141.25 0v-94.49a186 186 0 0 0 16.16 21.88c2.78 3.23 5.66 6.35 8.63 9.4v63.24zm-32.29 0v-172.5c5.74 22.71 14.12 46.05 26 67.43v105.1z"/><path d="M639.94 1037.72v-56.13h-95.65v-22.93h-90.35v122.28h231.41v-43.22h-45.41z" class="cls-4"/><path fill="url(#linear-gradient-5)" d="M589.35 1067.6c.5-9.38.77-19 .77-28.88 0-90.71-22.08-164.24-49.31-164.24s-49.3 73.53-49.3 164.24c0 9.85.26 19.5.76 28.88h-38.33v19.78h216.23v-19.78z"/><path fill="#4cd8eb" d="M243.39 1026.22v15.46H100.56a415.93 415.93 0 0 0-11.93 45.7H335.3v-61.16z"/><path fill="url(#linear-gradient-6)" d="M800.06 9.63a9.63 9.63 0 1 0-13.39 8.86v76.88h7.53V18.49a9.63 9.63 0 0 0 5.86-8.86z"/><rect width="205.67" height="9.82" y="1264.93" fill="#cee4f3" rx="4.91" ry="4.91"/><path d="M1087.73 482.36a68.26 68.26 0 0 0-22.16 3.68 95.18 95.18 0 0 0-160.37-22.45 80.16 80.16 0 1 0-26 156h208.57a68.61 68.61 0 0 0 0-137.21z" class="cls-10"/><path fill="#d6f1f8" d="M952.16 597.35c.17-4.15 0-13.5 2.81-16.82 2.5-3 4.63-4.35 6.82-7.57a11.79 11.79 0 0 0 3.74-8.59V430.06a95 95 0 0 0-60.33 33.53 80.16 80.16 0 1 0-26 156h73z"/><path fill="url(#linear-gradient-7)" d="M80.37 1168.88L558 1197.15l527.17-28.27 81.5-81.5H88.63a420.8 420.8 0 0 0-8.26 81.5z"/><path fill="url(#linear-gradient-8)" d="M911.83 366.18h-1.43v-72.81a8.25 8.25 0 1 0-7.53 0v19.56c-11.76-9.71-53.05-46.34-53.05-81.58 0-6.15-.18-28.67-.18-28.67v-40.4a8.25 8.25 0 1 0-7.53 0V178c-49-85.8-48.28-128.92-48.28-128.92-.14-1.29-.81-2-1.63-2a1.84 1.84 0 0 0-1.73 2c1.27 45.7-8.19 91.09-12.08 136.64l-47.5 16.93-.17 12.63 22.67 49.14 13.2 7.15 4.29.72s17.6 0 1.07 36.49l-101.9 12.59V396l3.77 134.56 1.93.23L658.67 542c2.94 8.07 11.5 15.83 11.5 24.86 3.13.93 6.26 7.11 9.38 8l5.8 326.76 89 267.23a185.26 185.26 0 0 0 135.95 0V574.51c.16-4.14 0-13.49 2.81-16.81 2.5-3 4.63-4.35 6.81-7.57a11.76 11.76 0 0 0 3.74-8.59V378a11.84 11.84 0 0 0-11.83-11.82z"/><path fill="url(#linear-gradient-9)" d="M676.18 791.81v-28.62h-33.31v-9.65l-20.15-10.8-20.15 10.8v9.65H472.35v-80a9.39 9.39 0 0 0 4.06-7.7 9.4 9.4 0 0 0-8.11-9.28l-6.07-28.88H456l-6.64 28.78h-11l-11.09-52.81h-6.58v474.1H506v-61.16h168.42v-25.78H472.35V791.81z"/><path fill="url(#linear-gradient-10)" d="M670.05 293.38v28H806c-16.53-36.46-15.88-76-15.88-76v-29.77l-.6-.29h-58.84v16c0 35.27-41.39 71.95-53.1 81.62v-19.6a8.25 8.25 0 1 0-7.53 0zm83.3-48.5a6.61 6.61 0 0 1 6.6-6.6 6.61 6.61 0 0 1 6.6 6.6v7.65h-13.2z"/><path fill="url(#linear-gradient-11)" d="M730.85 162.29v40.4h59.58V49.12h-3.76s.75 43.12-48.29 128.92v-15.75a8.25 8.25 0 1 0-7.53 0z"/><path fill="url(#linear-gradient-12)" d="M735.5 425.51a3.26 3.26 0 0 0-3.25 3.25v22.95L717 460.5a4.3 4.3 0 0 0-1.56 5.86 4.29 4.29 0 0 0 5.85 1.57l15.28-8.82a4.29 4.29 0 0 0 2.12-3.93 1.79 1.79 0 0 0 0-.23v-26.19a3.25 3.25 0 0 0-3.19-3.25z"/><path fill="url(#linear-gradient-13)" d="M806.1 366.56V335H670.05v31.19h-1.54A11.84 11.84 0 0 0 656.7 378v157.5a11.84 11.84 0 0 0 11.81 11.81h134.68A11.85 11.85 0 0 0 815 535.49V378a11.85 11.85 0 0 0-8.9-11.44zm-38.81-8a6.6 6.6 0 0 1 6.6-6.59 6.6 6.6 0 0 1 6.6 6.59v7.65h-13.2zm-25.37 0a6.59 6.59 0 0 1 6.59-6.59 6.6 6.6 0 0 1 6.6 6.59v7.65h-13.19zm-25.62 0a6.59 6.59 0 0 1 6.6-6.59 6.59 6.59 0 0 1 6.59 6.59v7.65H716.3zm-25.38 0a6.59 6.59 0 0 1 6.6-6.59 6.59 6.59 0 0 1 6.59 6.59v7.65h-13.19zm43.9 145.52a49 49 0 1 1 49-49 49 49 0 0 1-49 48.97z"/><path fill="url(#linear-gradient-14)" d="M670.17 1168.88h136V561h-136zm33-321.1a5.37 5.37 0 1 1-10.73 0v-94.86a5.37 5.37 0 1 1 10.73 0zm24.95 0a5.37 5.37 0 1 1-10.73 0v-94.86a5.37 5.37 0 1 1 10.73 0zm25.24 0a5.37 5.37 0 1 1-10.73 0v-94.86a5.37 5.37 0 1 1 10.73 0zm25 0a5.37 5.37 0 0 1-10.74 0v-94.86a5.37 5.37 0 1 1 10.74 0zm-10.74-257a5.37 5.37 0 0 1 10.74 0v94.86a5.37 5.37 0 1 1-10.74 0zm-24.94 0a5.37 5.37 0 1 1 10.73 0v94.86a5.37 5.37 0 1 1-10.73 0zm-25.24 0a5.37 5.37 0 1 1 10.73 0v94.86a5.37 5.37 0 1 1-10.73 0zm-24.95 0a5.37 5.37 0 1 1 10.73 0v94.86a5.37 5.37 0 1 1-10.73 0zM685.35 718a5.38 5.38 0 0 1 5.36-5.37h92.87a5.38 5.38 0 0 1 5.36 5.37 5.38 5.38 0 0 1-5.36 5.37h-92.87a5.38 5.38 0 0 1-5.36-5.37z"/><path fill="url(#linear-gradient-15)" d="M272.86 816.26a37.34 37.34 0 0 0-12.06 2A51.79 51.79 0 0 0 173.53 806a43.63 43.63 0 1 0-14.17 84.89h113.5a37.34 37.34 0 1 0 0-74.67z"/><path fill="url(#linear-gradient-16)" d="M512.07 310.26c0 38.31-32.88 95.78-51.78 95.78-19.73 0-51.78-55.27-51.78-95.78a51.78 51.78 0 0 1 103.56 0z"/><circle cx="460.29" cy="443.29" r="14.25" fill="#1ba8f5"/><path fill="url(#linear-gradient-17)" d="M80.37 1168.88c-.37 107.07 40 214.26 121.27 295.48 161.7 161.7 426.3 161.7 588 0l295.48-295.48z"/><circle cx="381.9" cy="621" r="6.72" fill="#0dacf9"/><circle cx="459.3" cy="621" r="6.72" fill="#089ff7"/><circle cx="420.66" cy="592.9" r="7.69" fill="#08a0f7"/><path d="M791.16 1086.42c-16.94.43-28.75 5.67-35.22 9.9v14.89a6.39 6.39 0 0 1 0 12.57v173.12h75.28v-153.6h8.94v-56.88z" class="cls-27"/><path fill="url(#linear-gradient-18)" d="M871.5 1117.53a6.42 6.42 0 0 1 6.3-6.4v-14.78c-5.44-4.39-18.94-9.65-36.47-9.92-18.87-.29-31.89 5.4-38.81 9.92v200.55h75.28v-173a6.41 6.41 0 0 1-6.3-6.37z"/><rect width="25.28" height="12.8" x="766.88" y="1111.13" fill="#76319a" rx="6.4" ry="6.4"/><rect width="46.04" height="12.8" x="815.92" y="1111.13" class="cls-27" rx="6.4" ry="6.4"/><path fill="#0326be" d="M789.64 1464.36l88.16-88.16v-79.3H755.94v197.67a415 415 0 0 0 33.7-30.21z"/><path fill="url(#linear-gradient-19)" d="M842.17 1411.83H385.84a28.75 28.75 0 0 1-6.46-.64c-13.25-3-22.76-14.76-22.59-27.91.17-13.45 10.7-27.86 26.11-27.86h188.57c16.18.55 38.27-6 49.52-18.38 12-13.27 18-31.92 15.7-48.67-1.78-12.79-8.65-25.51-18.85-34.88a57.87 57.87 0 0 0-39.1-15.63H85.82q2.37 14.58 5.77 29h487.15c15.13 0 27.55 13.44 29.23 25.52 1.16 8.33-2.17 18.22-8.48 25.19-3.85 4.26-17.47 9.25-27.17 8.86H382.9c-30 0-54.72 25.34-55.11 56.5-.33 26.73 18.66 50.52 45.16 56.55a57.6 57.6 0 0 0 12.89 1.36h427.33z"/><path fill="url(#linear-gradient-20)" d="M241.93 1139.28H201.5a36.23 36.23 0 0 1 36.23 36.23V1255h40.43v-79.51a36.23 36.23 0 0 0-36.23-36.21z"/><path fill="url(#linear-gradient-21)" d="M217.94 1239.39h-27.47v27.47h-7.21v-27.47h-27.47v27.47h-48v-27.47H86.07a412.88 412.88 0 0 0 115.57 225 413 413 0 0 0 76.52 60.33v-257.86h-60.22z"/><circle cx="204.3" cy="1256.54" r="13.98" class="cls-34"/><circle cx="93.68" cy="1256.54" r="13.98" class="cls-34"/><path fill="url(#linear-gradient-22)" d="M460.29 258.48h-1V406c.33 0 .66.05 1 .05 18.9 0 51.78-57.47 51.78-95.78a51.78 51.78 0 0 0-51.78-51.79z"/><path fill="url(#linear-gradient-23)" d="M482.61 310.26c0 38.31-14.17 95.78-22.32 95.78-8.51 0-22.32-55.27-22.32-95.78 0-28.59 10-51.78 22.32-51.78s22.32 23.19 22.32 51.78z"/><path d="M453.94 1073.8h6.95v95.08h-6.95z" class="cls-37"/><path d="M464.02 1073.8h-13.21l-7-32.12h27.21l-7 32.12z" class="cls-10"/><path d="M715.56 1073.8h6.95v95.08h-6.95z" class="cls-38"/><path d="M725.64 1073.8h-13.21l-7-32.12h27.21l-7 32.12z" class="cls-10"/><path d="M988.9 1073.8h6.95v95.08h-6.95z" class="cls-38"/><path d="M998.98 1073.8h-13.22l-7-32.12h27.22l-7 32.12z" class="cls-10"/><path d="M725.64 1033.74h-13.21l-7 7.94h27.21l-7-7.94zM998.98 1033.75h-13.22l-7 7.93h27.22l-7-7.93z" class="cls-38"/><path d="M464.02 1033.43h-13.21l-7 8.25h27.21l-7-8.25z" class="cls-37"/><path d="M829.8 1141.5a7.49 7.49 0 0 0-7.47 7.47v21.42h14.94V1149a7.49 7.49 0 0 0-7.47-7.5zM822.33 1207.03h14.94v26.36h-14.94zM822.33 1176.03h14.94v25.36h-14.94zM822.33 1239.03h14.94v26.36h-14.94zM822.33 1271.03h14.94v25.86h-14.94z" class="cls-39"/><path d="M851.8 1141.5a7.49 7.49 0 0 0-7.47 7.47v21.42h14.94V1149a7.49 7.49 0 0 0-7.47-7.5zM844.33 1207.03h14.94v26.36h-14.94zM844.33 1176.03h14.94v25.36h-14.94zM844.33 1239.03h14.94v26.36h-14.94zM844.33 1271.03h14.94v25.86h-14.94z" class="cls-40"/><path fill="url(#linear-gradient-34)" d="M201.5 1139.28h-153a37.6 37.6 0 0 0-37.6 37.6v25A18 18 0 0 0 0 1218.4v36.6h237.73v-79.51a36.23 36.23 0 0 0-36.23-36.21z"/><circle cx="58.9" cy="1256.54" r="13.98" fill="url(#linear-gradient-35)" transform="rotate(-9.22 58.85 1256.23)"/><circle cx="169.39" cy="1256.54" r="13.98" fill="url(#linear-gradient-36)" transform="rotate(-9.22 169.33 1256.21)"/><path fill="url(#linear-gradient-37)" d="M10.89 1182.53h226.84v6.04H10.89z"/><path fill="url(#linear-gradient-38)" d="M80.91 1197.15H54a9 9 0 0 0 0 18.1h26.91a9 9 0 1 0 0-18.1z"/><path fill="url(#linear-gradient-39)" d="M29.81 1197.15a9.07 9.07 0 0 0-9 9 9.05 9.05 0 0 0 18.1 0 9.07 9.07 0 0 0-9.1-9z"/><path fill="url(#linear-gradient-40)" d="M132.34 1197.15h-26.95a9 9 0 0 0 0 18.1h27a9 9 0 1 0 0-18.1z"/><path fill="url(#linear-gradient-41)" d="M182.86 1197.15h-26.94a9 9 0 0 0 0 18.1h26.94a9 9 0 0 0 0-18.1z"/><path fill="url(#linear-gradient-42)" d="M54 1171.19h26.91a9.05 9.05 0 0 0 0-18.1H54a9.05 9.05 0 1 0 0 18.1z"/><path fill="url(#linear-gradient-43)" d="M105.39 1171.19h27a9.05 9.05 0 0 0 0-18.1h-27a9.05 9.05 0 1 0 0 18.1z"/><path fill="url(#linear-gradient-44)" d="M155.92 1171.19h26.94a9.05 9.05 0 0 0 0-18.1h-26.94a9.05 9.05 0 1 0 0 18.1z"/><path fill="url(#linear-gradient-45)" d="M208 1197.52a9.07 9.07 0 0 0-9 9v26.94a9.05 9.05 0 0 0 18.1 0v-26.94a9.07 9.07 0 0 0-9.1-9z"/><path fill="url(#linear-gradient-46)" d="M1186.69 607.85c-84.67 0-153.55 68.89-153.55 153.56a153 153 0 0 0 41.61 105l6.36-6.36a144.06 144.06 0 0 1-38.89-94.12h133.61l15.36-15.37V616.93a144 144 0 0 1 94.12 38.9l.31.29-88 88 88-88 1.11 1 7.08-5.66-2.13-2a153 153 0 0 0-104.99-41.61zm-144.47 149.06a144 144 0 0 1 39.18-94.43l94.43 94.43zm45.54-100.8a144 144 0 0 1 94.43-39.18v133.61z"/><path fill="url(#linear-gradient-47)" d="M1335.74 612.35a17.86 17.86 0 0 0-22.59-2.19 198.42 198.42 0 0 0-35.15-23.55 17.86 17.86 0 0 0-32.32-13.43 195.63 195.63 0 0 0-41.12-8.21 17.86 17.86 0 0 0-34.94-.08 196.6 196.6 0 0 0-41.31 8.07 17.86 17.86 0 0 0-32.49 10.24 17.55 17.55 0 0 0 .28 3 198.06 198.06 0 0 0-35.56 23.65 17.84 17.84 0 0 0-24.65 24.51A198.53 198.53 0 0 0 1012 670a17.84 17.84 0 0 0-13.34 31.94 197.45 197.45 0 0 0-.06 118.82 17.84 17.84 0 0 0 13.22 31.81 198.25 198.25 0 0 0 23.83 35.56l6.67-6.05a188.9 188.9 0 0 1-22.12-32.91 17.84 17.84 0 0 0-13.28-32 188.47 188.47 0 0 1 .1-111.86 17.84 17.84 0 0 0 13.28-31.79 189.16 189.16 0 0 1 22.17-32.91 17.86 17.86 0 0 0 24.33-24.2 188.67 188.67 0 0 1 33.07-22 17.86 17.86 0 0 0 31.66-13 187.41 187.41 0 0 1 38.47-7.51 17.87 17.87 0 0 0 34.13.07 186.84 186.84 0 0 1 38.54 7.7 17.86 17.86 0 0 0 31.43 13.06 188.86 188.86 0 0 1 33.06 22.17 17.86 17.86 0 1 0 28.55-4.55z"/><circle cx="58.9" cy="1256.54" r="5.44" fill="url(#linear-gradient-48)"/><circle cx="169.39" cy="1256.54" r="5.44" fill="url(#linear-gradient-49)" transform="rotate(-9.22 169.33 1256.21)"/><path fill="url(#linear-gradient-50)" d="M1186.69 915c84.67 0 153.55-68.88 153.55-153.55A153.13 153.13 0 0 0 1292 649.73l-6.36 6.36-83 83a27.36 27.36 0 0 0-38.17 38.17l-5.77 5.74-77.3 77.29-6.37 6.37A153.17 153.17 0 0 0 1186.69 915zM1292 860.33l-83-83a27.29 27.29 0 0 0 4.73-11.4h117.48a144 144 0 0 1-39.21 94.4zm0-197.84a144 144 0 0 1 39.19 94.42h-117.5a27.27 27.27 0 0 0-4.69-11.41zM1191.19 788.4a27.27 27.27 0 0 0 11.41-4.73l83 83a144 144 0 0 1-94.43 39.18zm-20.4-4.73a27.1 27.1 0 0 0 11.4 4.73v117.48a144 144 0 0 1-94.42-39.19z"/><path fill="url(#linear-gradient-51)" d="M1383.14 743.52a195.5 195.5 0 0 0-8.37-41.59 17.86 17.86 0 0 0-13.51-32.29 193.92 193.92 0 0 0-23.31-34.7 17.3 17.3 0 0 1-3.07 3.52 17.76 17.76 0 0 1-3.7 2.47 191.83 191.83 0 0 1 11.8 15.72 185.18 185.18 0 0 1 10.17 16.91A17.86 17.86 0 0 0 1366.3 705a187.64 187.64 0 0 1 7.84 39 17.87 17.87 0 0 0 .06 34.14 186.76 186.76 0 0 1-7.52 38.54 17.86 17.86 0 0 0-13 31.66 188.72 188.72 0 0 1-22 33.07 17.85 17.85 0 0 0-24.19 24.32 189.13 189.13 0 0 1-32.9 22.18 17.84 17.84 0 0 0-31.8 13.28 186.61 186.61 0 0 1-38.43 7.71 17.84 17.84 0 0 0-34.55.07 186.38 186.38 0 0 1-38.44-7.55 17.84 17.84 0 0 0-32-13.21 189.08 189.08 0 0 1-33-22 17.85 17.85 0 0 0-28-21.75 17.12 17.12 0 0 0-1.15 1.27l-2.33 1.7.64.76a17.84 17.84 0 0 0 24.47 24.27 197.83 197.83 0 0 0 36 24.08 17.84 17.84 0 0 0 31.84 13.15 196 196 0 0 0 42 8.26 17.84 17.84 0 0 0 34.5-.09 195.69 195.69 0 0 0 41.84-8.38 17.83 17.83 0 0 0 31.93-13.34 198.25 198.25 0 0 0 35.59-24 17.85 17.85 0 0 0 24.51-24.66 197.55 197.55 0 0 0 23.68-35.48 17.85 17.85 0 0 0 13.25-32.22 196 196 0 0 0 8.06-41.31 17.86 17.86 0 0 0-.06-34.93z"/><path d="M1043.64 709.23a50 50 0 0 0-16.17 2.69 69.42 69.42 0 0 0-117-16.38 58.47 58.47 0 1 0-19 113.78h152.13a50 50 0 0 0 0-100.09z" class="cls-10"/></svg>