<svg xmlns="http://www.w3.org/2000/svg" width="136" height="48" viewBox="0 0 136 48"><path d="M8.83 10.046c-4.804.422-8.457 4.324-8.8 9.07-.344 4.806 2.405 7.378 4.446 10.344a293.982 293.982 0 0 1 5.26 7.892c1.61-1.88 2.968-4.227 4.537-6.535 1.492-2.19 3.42-4.35 4.536-6.62.603-1.232.99-3.01.907-4.718-.28-5.56-4.684-9.982-10.887-9.434zM6.2 27.19c-2.538-1.245-4.74-4.11-4.355-8.256.226-2.417 1.077-3.39 2.27-4.625 1.1-1.144 2.515-2.114 4.714-2.36 5.013-.563 8.676 2.72 9.07 7.256.542 6.2-5.84 10.863-11.7 7.983z"/><path d="M8.56 21.48c1.046.583 2.386.262 2.993-.365 1.18-1.226.566-5.715.635-7.168-1.36-.553-3.55-.585-4.81.09-.066 1.77-.474 6.51 1.182 7.442z"/><path d="M13.82 15.035c0 .09.022.842.022.93-.022 1.725.148 2.5-.022 3.88-.33 2.676-2.917 4.14-5.714 3.172-2.587-.894-2.49-4.055-2.36-7.8-1.53 1.1-2.57 2.897-2.27 5.625.36 3.203 3.506 5.856 6.988 5.534 3.008-.28 5.972-2.717 5.805-6.714-.074-1.758-1.09-3.863-2.45-4.627zM25.055 18.816h3.936v11.11h3.042v-11.11h3.935V16.13H25.055zM40.662 24.31h5.983v-2.805h-5.983v-2.568h6.332V16.13h-9.37v13.795h9.722v-2.808h-6.684zM59.815 25.715h-.038L53.91 16.13h-4.13v13.795h3.042v-9.82h.037l6.022 9.82h3.976V16.13h-3.043zM75.695 25.715h-.037l-5.866-9.586h-4.13v13.795h3.04v-9.82h.037l6.022 9.82h3.974V16.13h-3.04zM81.5 16.13h3.04v13.795H81.5zM94.59 22.657a6.51 6.51 0 0 0-1.53-.664 37.234 37.234 0 0 1-1.53-.468 4.433 4.433 0 0 1-1.18-.564c-.31-.22-.465-.537-.465-.958 0-.255.062-.478.192-.66.13-.18.302-.325.51-.438.208-.108.423-.19.662-.242.23-.05.46-.08.68-.08.374 0 .775.076 1.197.224.42.148.758.38 1.005.694l2.083-2.28a5.22 5.22 0 0 0-1.967-1.11 7.7 7.7 0 0 0-2.262-.33 6.96 6.96 0 0 0-1.972.282 5.125 5.125 0 0 0-1.686.848 4.29 4.29 0 0 0-1.17 1.403c-.288.56-.433 1.208-.433 1.946 0 .768.156 1.385.475 1.85.32.472.715.85 1.198 1.134.48.284 1 .512 1.558.682.56.168 1.078.338 1.56.506.48.17.88.373 1.2.615.315.238.477.572.477.98 0 .248-.062.463-.186.648-.123.18-.287.328-.486.447a2.37 2.37 0 0 1-.68.26 3.18 3.18 0 0 1-.75.088c-.505 0-.995-.113-1.476-.34a3.097 3.097 0 0 1-1.174-.967l-2.162 2.38c.66.608 1.375 1.052 2.143 1.323a7.41 7.41 0 0 0 2.493.412c.715 0 1.396-.092 2.037-.275a4.84 4.84 0 0 0 1.693-.838c.49-.377.873-.85 1.158-1.424.288-.567.43-1.237.43-2.005 0-.803-.153-1.447-.466-1.926a3.603 3.603 0 0 0-1.173-1.153zM107.883 22.11h-7.516v-5.98h-1.405v13.795h1.405v-6.528h7.516v6.528h1.407V16.13h-1.407zM121.484 24.623c0 .664-.062 1.235-.19 1.708-.13.474-.307.873-.52 1.198s-.452.582-.72.77c-.27.188-.535.333-.8.438a3.155 3.155 0 0 1-.776.204c-.256.033-.47.05-.635.05a4.95 4.95 0 0 1-.643-.05c-.247-.03-.5-.1-.77-.204a3.745 3.745 0 0 1-.798-.437 2.853 2.853 0 0 1-.725-.772 4.236 4.236 0 0 1-.514-1.197c-.128-.472-.193-1.043-.193-1.707V16.13h-1.403v8.647c0 .573.068 1.18.205 1.827a4.88 4.88 0 0 0 .77 1.78c.38.545.89.996 1.54 1.352.65.362 1.493.536 2.53.536 1.026 0 1.868-.18 2.525-.536.652-.355 1.17-.807 1.548-1.353a4.904 4.904 0 0 0 .77-1.78 8.747 8.747 0 0 0 .204-1.826V16.13h-1.406v8.493zM134.8 23.682c-.55-.606-1.313-.945-2.284-1.024v-.04c.777-.183 1.376-.542 1.803-1.08.42-.54.63-1.185.63-1.94 0-.648-.125-1.194-.372-1.637a3.02 3.02 0 0 0-.99-1.07c-.42-.27-.89-.468-1.423-.584a7.822 7.822 0 0 0-1.662-.176h-4.11v13.796h4.21c1.104 0 1.987-.157 2.652-.467.66-.313 1.168-.683 1.518-1.105.352-.424.582-.85.693-1.275.11-.427.167-.755.167-.976 0-1.01-.277-1.82-.832-2.422zm-7.002-6.267h2.69c.66 0 1.19.097 1.578.28.39.19.683.413.887.674.2.258.33.52.388.778.06.26.09.465.09.606 0 .44-.087.813-.256 1.12a2.278 2.278 0 0 1-.648.748 2.7 2.7 0 0 1-.9.42c-.33.084-.662.126-1.003.126h-2.826v-4.754zm6.033 9.782a2.4 2.4 0 0 1-.77.81 3.47 3.47 0 0 1-1.15.476 6.198 6.198 0 0 1-1.42.155h-2.692V23.34h2.865c1.128 0 1.987.22 2.573.66.585.444.876 1.12.876 2.025 0 .457-.094.847-.28 1.172z"/></svg>