<?xml version="1.0" encoding="utf-8"?>
<!-- Generator: Adobe Illustrator 22.1.0, SVG Export Plug-In . SVG Version: 6.00 Build 0)  -->
<svg version="1.1" id="Layer_1" xmlns="http://www.w3.org/2000/svg" xmlns:xlink="http://www.w3.org/1999/xlink" x="0px" y="0px"
	 viewBox="0 0 290 310" style="enable-background:new 0 0 290 310;" xml:space="preserve">
<style type="text/css">
	.st0{fill:none;stroke:#00A551;stroke-miterlimit:10;}
	.st1{fill:url(#SVGID_1_);}
	.st2{fill:url(#SVGID_2_);}
	.st3{fill:url(#SVGID_3_);}
</style>
<path class="st0" d="M40.6,130.8"/>
<linearGradient id="SVGID_1_" gradientUnits="userSpaceOnUse" x1="74.6073" y1="76.9056" x2="201.0687" y2="184.2785">
	<stop  offset="0" style="stop-color:#F4EDFA"/>
	<stop  offset="1" style="stop-color:#EDF2FA"/>
</linearGradient>
<path class="st1" d="M281.4,112.4l-60.8-60.8c-2.9-2.9-6.7-4.5-10.8-4.5h-36c-6.5,0-11.8,5.3-11.8,11.8v13.5h43.3l57.2,57.2v5.7
	l-118,117.2L27,135.2V130l57.1-56.9h37l6.6-13c2.9-5.7-1.3-12.5-7.7-12.5H78.8c-4,0-7.9,1.6-10.8,4.5L8.4,111.6
	c-11.3,11.3-11.3,29.5,0,40.8l116.9,116.9c11.9,11.9,29.9,8.6,38.9-0.5l119-119C292.8,140.3,292.4,123.3,281.4,112.4z"/>
<g>
	<linearGradient id="SVGID_2_" gradientUnits="userSpaceOnUse" x1="85.8346" y1="70.5114" x2="206.3309" y2="194.5868">
		<stop  offset="0" style="stop-color:#BB2F6F"/>
		<stop  offset="1" style="stop-color:#4B0CB1"/>
	</linearGradient>
	<path class="st2" d="M269.8,121.8l-54.6-54.6c-2.5-2.5-5.8-3.8-9.2-3.8H162v21.7h40l43.4,43.4h-47c-1.4,0-2.5,1.1-2.5,2.5
		c0,1.4,1.1,2.5,2.5,2.5H246v0.4L144.6,234.6l-101-100.8v-0.2h47.6c1.4,0,2.5-1.1,2.5-2.5c0-1.4-1.1-2.5-2.5-2.5H44.5l43.4-43.2
		h27.4l11-21.9h-43c-3.5,0-6.8,1.4-9.2,3.8l-54.6,54.6c-5.1,5.1-5.1,13.4,0,18.5l115.9,115.9c5.1,5.1,13.4,5.1,18.5,0l115.9-115.9
		C274.9,135.1,274.9,126.9,269.8,121.8z"/>
	<linearGradient id="SVGID_3_" gradientUnits="userSpaceOnUse" x1="85.9169" y1="70.4315" x2="206.4132" y2="194.5069">
		<stop  offset="0" style="stop-color:#BB2F6F"/>
		<stop  offset="1" style="stop-color:#4B0CB1"/>
	</linearGradient>
	<polygon class="st3" points="108.5,140.1 145,140.1 145,199.3 182,123.1 145,123.1 145,63.3 	"/>
</g>
</svg>
