<svg id="95d4015d-355d-482e-9508-e196da214189" data-name="Layer 1" xmlns="http://www.w3.org/2000/svg" xmlns:xlink="http://www.w3.org/1999/xlink" viewBox="0 0 66.3 70"><defs><linearGradient id="449cff6f-9226-4a30-890e-5658cfc5eac1" x1="50.35" y1="66.7" x2="19.36" y2="-2.92" gradientTransform="matrix(1, 0, 0, -1, 0, 78)" gradientUnits="userSpaceOnUse"><stop offset="0" stop-color="#2701ca"/><stop offset="1" stop-color="#d3285e"/></linearGradient><linearGradient id="dd7c4ddf-54cb-4169-aaaf-adadcb2dde4b" x1="48.98" y1="67.31" x2="17.99" y2="-2.31" gradientTransform="matrix(1, 0, 0, -1, -5.3, 74.4)" xlink:href="#449cff6f-9226-4a30-890e-5658cfc5eac1"/></defs><title>icon-tooling</title><path d="M36.6,3.6H33.9v7.9a8,8,0,0,1-4.1-3.6l-.3-.6-.7.2A33.81,33.81,0,0,0,20.2,11l-.6.4.2.7a8,8,0,0,1-1.9,7.8,7.5,7.5,0,0,1-7.8,1.9l-.7-.2-.3.4a33.43,33.43,0,0,0-3.6,8.5l-.2.7.7.4a7.79,7.79,0,0,1,4.1,6.9A7.76,7.76,0,0,1,6,45.3l-.6.3.2.7a33.81,33.81,0,0,0,3.5,8.6l.4.6.7-.2A8,8,0,0,1,18,57.2,7.71,7.71,0,0,1,19.9,65l-.2.7.6.4a33.43,33.43,0,0,0,8.5,3.6l.7.2.3-.6A7.44,7.44,0,0,1,34,65.7v7.9h2.7a35,35,0,0,0-.1-70ZM33.9,63.5a9.54,9.54,0,0,0-5.4,4.1,31.37,31.37,0,0,1-6.8-2.8,9.76,9.76,0,0,0-2.5-8.9,9.62,9.62,0,0,0-8.8-2.6,29.4,29.4,0,0,1-2.8-6.9,9.48,9.48,0,0,0,4.5-8.1,9.61,9.61,0,0,0-4.5-8.1,31.37,31.37,0,0,1,2.8-6.8,9.76,9.76,0,0,0,8.9-2.5,9.62,9.62,0,0,0,2.6-8.8,29.4,29.4,0,0,1,6.9-2.8,9.43,9.43,0,0,0,5.3,4.1v4.4a20.87,20.87,0,0,0,0,41.4ZM36.6,54a15.5,15.5,0,1,1,0-31h1.3a15.52,15.52,0,0,1-.6,31Zm2.6,13.9V55.6a17.36,17.36,0,0,0,0-34.4V9a29.57,29.57,0,0,1,0,58.9Z" transform="translate(-5.3 -3.6)" style="fill:url(#449cff6f-9226-4a30-890e-5658cfc5eac1)"/><circle cx="31.3" cy="34.9" r="6" style="fill:url(#dd7c4ddf-54cb-4169-aaaf-adadcb2dde4b)"/></svg>