<svg id="0754c4d9-405a-4758-8c21-ea1d1a90e20f" data-name="Layer 1" xmlns="http://www.w3.org/2000/svg" xmlns:xlink="http://www.w3.org/1999/xlink" viewBox="0 0 62.8 62.8"><defs><linearGradient id="0669ccb1-c996-41b8-8fb1-33b7504bfba3" x1="56.22" y1="59.41" x2="-2.43" y2="2.67" gradientTransform="matrix(1, 0, 0, -1, 0, 78)" gradientUnits="userSpaceOnUse"><stop offset="0" stop-color="#2701ca"/><stop offset="1" stop-color="#d3285e"/></linearGradient></defs><title>icon-community</title><path d="M68.6,55.5a12.76,12.76,0,0,0-3.9-9.2,29.58,29.58,0,0,0,0-18.6,12.76,12.76,0,0,0,3.9-9.2,12.55,12.55,0,0,0-3.8-9.1,13,13,0,0,0-9.1-3.8,12.76,12.76,0,0,0-9.2,3.9,29.58,29.58,0,0,0-18.6,0,12.76,12.76,0,0,0-9.2-3.9A12.93,12.93,0,0,0,5.8,18.5a12.44,12.44,0,0,0,3.8,9.1l.1.1a29.58,29.58,0,0,0,0,18.6l-.1.1a13,13,0,0,0-3.8,9.1,12.55,12.55,0,0,0,3.8,9.1,13,13,0,0,0,9.1,3.8,12.55,12.55,0,0,0,9.1-3.8l.1-.1a29.58,29.58,0,0,0,18.6,0l.1.1a13,13,0,0,0,9.1,3.8,12.55,12.55,0,0,0,9.1-3.8A12.71,12.71,0,0,0,68.6,55.5Zm-8-41.9a6.79,6.79,0,1,1-9.6,0A6.88,6.88,0,0,1,60.6,13.6ZM13.9,23.2a6.79,6.79,0,0,1,9.6-9.6,6.79,6.79,0,0,1-9.6,9.6Zm0,37.1a6.79,6.79,0,0,1,9.6-9.6,6.7,6.7,0,0,1,0,9.6A6.88,6.88,0,0,1,13.9,60.3Zm23.3,3.8a27.22,27.22,0,0,1-8-1.2,13.85,13.85,0,0,0,2.4-7.4,12.55,12.55,0,0,0-3.8-9.1,13,13,0,0,0-9.1-3.8A12.35,12.35,0,0,0,11.3,45a26.73,26.73,0,0,1-1.2-8,27.22,27.22,0,0,1,1.2-8,12.58,12.58,0,0,0,7.4,2.4h0A12.93,12.93,0,0,0,31.6,18.5a12.58,12.58,0,0,0-2.4-7.4,26.73,26.73,0,0,1,8-1.2,27.22,27.22,0,0,1,8,1.2,12.58,12.58,0,0,0-2.4,7.4,12.44,12.44,0,0,0,3.8,9.1,13,13,0,0,0,9.1,3.8h0A12.58,12.58,0,0,0,63.1,29a26.73,26.73,0,0,1,1.2,8,27.22,27.22,0,0,1-1.2,8,12.58,12.58,0,0,0-7.4-2.4A12.93,12.93,0,0,0,42.8,55.5a12.58,12.58,0,0,0,2.4,7.4A26.25,26.25,0,0,1,37.2,64.1ZM51,60.3a6.79,6.79,0,1,1,9.6,0A6.88,6.88,0,0,1,51,60.3Z" transform="translate(-5.8 -5.6)" style="fill:url(#0669ccb1-c996-41b8-8fb1-33b7504bfba3)"/></svg>