<svg id="f54c24ef-f6ce-4eac-8656-be8fa6a78ffb" data-name="Layer 1" xmlns="http://www.w3.org/2000/svg" xmlns:xlink="http://www.w3.org/1999/xlink" viewBox="0 0 76 72.8"><defs><linearGradient id="8a597701-50f0-4e3b-9d62-3f100bd4d97d" x1="59.2" y1="63.58" x2="-0.1" y2="10.02" gradientTransform="matrix(1, 0, 0, -1, 0, 78)" gradientUnits="userSpaceOnUse"><stop offset="0" stop-color="#2701ca"/><stop offset="1" stop-color="#d3285e"/></linearGradient></defs><title>icon-architecture</title><path d="M75.1,34.8,57.9,18.3l3.7-3.7a.91.91,0,0,0,0-1.2L50.8,2.6a.86.86,0,0,0-.6-.3H25.8a.71.71,0,0,0-.6.3L14.4,13.4a.91.91,0,0,0,0,1.2l3.7,3.7L.9,34.8a3.14,3.14,0,0,0,0,4.4l35,35a3,3,0,0,0,2.1.9,2.88,2.88,0,0,0,2.1-.9l35-35a3.14,3.14,0,0,0,0-4.4ZM40.9,32.9a5.12,5.12,0,0,0-5.8,0L25.2,23H50.8ZM22.8,23,33.9,34.1a4.85,4.85,0,0,0-.8,2.1H8.3L22,23ZM33.1,37.9A5,5,0,0,0,38,42a5,5,0,0,0,4.9-4.1H67.8L38,67.7,8.2,37.9ZM43,36.2a4.85,4.85,0,0,0-.8-2.1L53.2,23H54L67.7,36.2ZM26.2,4.1H49.8L59.7,14l-3.2,3.2a3.08,3.08,0,0,0-1.3-.3H20.8a2.77,2.77,0,0,0-1.3.3L16.3,14Z" transform="translate(0 -2.3)" style="fill:url(#8a597701-50f0-4e3b-9d62-3f100bd4d97d)"/></svg>