<svg id="c54cd02d-8312-4170-9b7c-4e6b41ee4ec3" data-name="Layer 1" xmlns="http://www.w3.org/2000/svg" xmlns:xlink="http://www.w3.org/1999/xlink" viewBox="0 0 71.25 61.9"><defs><linearGradient id="fc830b1e-782d-4a36-bacb-49d407bcf799" x1="59.27" y1="54.25" x2="7.77" y2="18.96" gradientTransform="matrix(1, 0, 0, -1, 0, 78)" gradientUnits="userSpaceOnUse"><stop offset="0" stop-color="#2701ca"/><stop offset="1" stop-color="#d3285e"/></linearGradient></defs><title>icon-libraries</title><path d="M73.3,38,56.2,8.2c-.1-.3-.2-.5-.5-.6a.9.9,0,0,0-.5-.1H20.5a1.05,1.05,0,0,0-.9.5L2.3,38h0c0,.1-.1.1-.1.2v.5c0,.1.1.1.1.2h0l17.3,30a1.05,1.05,0,0,0,.9.5H55.1a.9.9,0,0,0,.5-.1,1.47,1.47,0,0,0,.5-.6L73.3,39A.9.9,0,0,0,73.3,38ZM26.1,45.2l.1-13.6,11.6-6.7,11.9,7v13L37.8,52ZM21.6,26.7V10.2l14.1,8.3Zm-2,20.1L5.2,38.5l14.4-8.3Zm2,3.4,14.1,8.2L21.6,66.7Zm32.6-.3V66.8L39.7,58.5Zm2-19.4,13.5,7.9L56.2,46.3Zm-16.5-12,14.5-8.3V27Zm-2-1.1L24.3,9.5H51.5ZM19.6,27.8,5.9,35.7,19.6,12Zm0,21.3V64.9L5.9,41.2ZM37.7,59.5l13.7,7.9H24.3ZM56.2,48.7l14-8.2-14,24.2Zm0-20.5v-16l14,24.2Z" transform="translate(-2.2 -7.5)" style="fill:url(#fc830b1e-782d-4a36-bacb-49d407bcf799)"/></svg>