<?xml version="1.0" encoding="utf-8"?>
<!-- Generator: Adobe Illustrator 22.1.0, SVG Export Plug-In . SVG Version: 6.00 Build 0)  -->
<svg version="1.1" id="Layer_1" xmlns="http://www.w3.org/2000/svg" xmlns:xlink="http://www.w3.org/1999/xlink" x="0px" y="0px"
	 viewBox="0 0 290 310" style="enable-background:new 0 0 290 310;" xml:space="preserve">
<style type="text/css">
	.st0{fill:url(#SVGID_1_);}
	.st1{fill:url(#SVGID_2_);}
	.st2{fill:url(#SVGID_3_);}
</style>
<linearGradient id="SVGID_1_" gradientUnits="userSpaceOnUse" x1="75.5281" y1="75.8895" x2="211.6467" y2="225.4852">
	<stop  offset="0" style="stop-color:#F4EDFA"/>
	<stop  offset="1" style="stop-color:#EDF2FA"/>
</linearGradient>
<path class="st0" d="M203.6,236.4l-46,26.6c-7.5,4.3-16.6,4.3-24.1,0l-77.3-44.6c-7.5-4.3-12-12.3-12-20.9v-89.2
	c0-8.6,4.6-16.6,12-20.9l77.3-44.6c7.5-4.3,16.6-4.3,24.1,0l77.3,44.6c7.5,4.3,12,12.3,12,20.9v82.5l19,9.2V97.2
	c0-8.6-4.6-16.6-12-20.9l-96.3-55.6c-7.5-4.3-16.6-4.3-24.1,0L37.2,76.4c-7.5,4.3-12,12.3-12,20.9v111.2c0,8.6,4.6,16.6,12,20.9
	l96.3,55.6c7.5,4.3,16.6,4.3,24.1,0l51.5-29.7L203.6,236.4z"/>
<g>
	<linearGradient id="SVGID_2_" gradientUnits="userSpaceOnUse" x1="60.3173" y1="57.3524" x2="205.8698" y2="220.4252">
		<stop  offset="0" style="stop-color:#BB2F6F"/>
		<stop  offset="1" style="stop-color:#4B0CB1"/>
	</linearGradient>
	<path class="st1" d="M148.9,250.2c-0.2,0.1-0.3,0.2-0.5,0.3v-42.5c0.7-0.2,1.3-0.5,1.9-0.8l39.9-23.1c2.9-1.7,4.7-4.8,4.7-8.2
		v-46.1c0-1-0.2-1.9-0.5-2.9l36.9-21.2c0.1,0.4,0.1,0.8,0.1,1.3v76.2l19.9,9.7v-87.3c0-8.6-4.6-16.6-12-20.9l-81.8-47.2
		c-7.5-4.3-16.6-4.3-24.1,0L51.7,84.8c-7.5,4.3-12,12.3-12,20.9V200c0,8.6,4.6,16.6,12,20.9l81.8,47.2c7.5,4.3,16.6,4.3,24.1,0
		l47.3-27.3l-5.7-19.7L148.9,250.2z M148.3,55.2c0.2,0.1,0.3,0.2,0.5,0.3l79.2,45.7l-36.8,21.1c-0.3-0.3-0.7-0.5-1-0.7l-39.9-23.1
		c-0.6-0.4-1.3-0.6-1.9-0.8V55.2z M62.9,101.3l79.3-45.8c0.2-0.1,0.3-0.2,0.5-0.3v42.5c-0.7,0.2-1.3,0.5-1.9,0.8l-39.9,23.1
		c-0.5,0.3-1,0.6-1.4,1l-37.2-20.9C62.5,101.5,62.7,101.4,62.9,101.3z M59.6,107c0-0.1,0-0.3,0-0.4l36.9,20.7
		c-0.2,0.8-0.3,1.6-0.3,2.4v46.1c0,0.3,0,0.6,0,0.9l-36.6,21V107z M142.7,250.4c-0.2-0.1-0.3-0.2-0.5-0.3l-79.3-45.8
		c-0.6-0.3-1.1-0.7-1.5-1.2l37-21.2c0.7,0.8,1.5,1.5,2.5,2.1l39.9,23.1c0.6,0.4,1.3,0.6,1.9,0.8V250.4z M143.6,202.3l-39.9-23.1
		c-1.2-0.7-1.9-2-1.9-3.3v-46.1c0-1.4,0.7-2.6,1.9-3.3l39.9-23.1c0.6-0.3,1.3-0.5,1.9-0.5c0.7,0,1.3,0.2,1.9,0.5l39.9,23.1
		c1.2,0.7,1.9,2,1.9,3.3v46.1c0,1.4-0.7,2.6-1.9,3.3l-39.9,23.1C146.3,202.9,144.8,202.9,143.6,202.3z"/>
	<linearGradient id="SVGID_3_" gradientUnits="userSpaceOnUse" x1="75.0084" y1="44.3447" x2="220.561" y2="207.4175">
		<stop  offset="0" style="stop-color:#BB2F6F"/>
		<stop  offset="1" style="stop-color:#4B0CB1"/>
	</linearGradient>
	<path class="st2" d="M253.2,231.8l26.2-7.6l-73.2-35.6l23.1,77.6l12.2-24.4c0,0,8.9,9.9,16,18.8c7.1,8.9,20.6,0.3,11.4-10.1
		C259.8,240,253.2,231.8,253.2,231.8z"/>
</g>
</svg>
