<svg id="57bef068-8263-4d78-9fbc-84a5f6a64cab" data-name="Layer 1" xmlns="http://www.w3.org/2000/svg" xmlns:xlink="http://www.w3.org/1999/xlink" viewBox="0 0 65.5 65.5"><defs><linearGradient id="aa1d5c5b-c35f-4f16-88ab-a736331e1db8" x1="34.83" y1="65.82" x2="9.56" y2="10.04" gradientTransform="matrix(1, 0, 0, -1, 0, 78)" gradientUnits="userSpaceOnUse"><stop offset="0" stop-color="#2701ca"/><stop offset="1" stop-color="#d3285e"/></linearGradient><linearGradient id="7406e947-12b1-4f10-81c2-b0cb29224946" x1="48.48" y1="59.64" x2="23.21" y2="3.85" xlink:href="#aa1d5c5b-c35f-4f16-88ab-a736331e1db8"/><linearGradient id="4a471027-3a80-4069-bd43-3066b43d8e7f" x1="60.2" y1="54.33" x2="34.93" y2="-1.46" xlink:href="#aa1d5c5b-c35f-4f16-88ab-a736331e1db8"/><linearGradient id="a8039551-3643-4db7-a1b1-f1d8dae928f2" x1="55.36" y1="56.52" x2="30.09" y2="0.73" xlink:href="#aa1d5c5b-c35f-4f16-88ab-a736331e1db8"/><linearGradient id="979dde92-03c0-4075-a11d-0298724c2b78" x1="47.07" y1="60.28" x2="21.8" y2="4.49" xlink:href="#aa1d5c5b-c35f-4f16-88ab-a736331e1db8"/><linearGradient id="07fd6e6c-348d-4336-be4b-edfc4f387e29" x1="22.69" y1="71.32" x2="-2.58" y2="15.53" gradientTransform="matrix(1, 0, 0, -1, -5.2, 72.9)" xlink:href="#aa1d5c5b-c35f-4f16-88ab-a736331e1db8"/><linearGradient id="3813f11a-84c5-4939-a5d6-5406a42e930f" x1="31.16" y1="67.49" x2="5.88" y2="11.7" gradientTransform="matrix(1, 0, 0, -1, -5.2, 72.9)" xlink:href="#aa1d5c5b-c35f-4f16-88ab-a736331e1db8"/></defs><title>icon-code</title><path d="M41,30.1a3.33,3.33,0,0,0-3.3-3.3h-22a3.3,3.3,0,0,0,0,6.6h22A3.27,3.27,0,0,0,41,30.1Z" transform="translate(-5.2 -5.1)" style="fill:url(#aa1d5c5b-c35f-4f16-88ab-a736331e1db8)"/><path d="M24.7,39.3A3.33,3.33,0,0,0,28,42.6H50A3.3,3.3,0,0,0,50,36H28A3.33,3.33,0,0,0,24.7,39.3Z" transform="translate(-5.2 -5.1)" style="fill:url(#7406e947-12b1-4f10-81c2-b0cb29224946)"/><path d="M60,45.1H38a3.3,3.3,0,1,0,0,6.6H60a3.3,3.3,0,0,0,0-6.6Z" transform="translate(-5.2 -5.1)" style="fill:url(#4a471027-3a80-4069-bd43-3066b43d8e7f)"/><path d="M50,54.3H28a3.3,3.3,0,1,0,0,6.6H50a3.3,3.3,0,0,0,0-6.6Z" transform="translate(-5.2 -5.1)" style="fill:url(#a8039551-3643-4db7-a1b1-f1d8dae928f2)"/><path d="M58.5,5.1H17.4A12.25,12.25,0,0,0,5.2,17.3V58.4A12.25,12.25,0,0,0,17.4,70.6H58.5A12.25,12.25,0,0,0,70.7,58.4V17.3A12.25,12.25,0,0,0,58.5,5.1ZM68.8,58.4A10.29,10.29,0,0,1,58.5,68.7H17.4A10.29,10.29,0,0,1,7.1,58.4V17.3A10.29,10.29,0,0,1,17.4,7H58.5A10.29,10.29,0,0,1,68.8,17.3Z" transform="translate(-5.2 -5.1)" style="fill:url(#979dde92-03c0-4075-a11d-0298724c2b78)"/><circle cx="12.5" cy="12.6" r="4" style="fill:url(#07fd6e6c-348d-4336-be4b-edfc4f387e29)"/><circle cx="22.7" cy="12.6" r="4" style="fill:url(#3813f11a-84c5-4939-a5d6-5406a42e930f)"/></svg>